<?xml version="1.0" encoding="UTF-8"?>
<svg xmlns="http://www.w3.org/2000/svg" xmlns:xlink="http://www.w3.org/1999/xlink" width="10pt" height="15pt" viewBox="0 0 10 15" version="1.1">
<g id="surface1">
<path style=" stroke:none;fill-rule:nonzero;fill:rgb(99.607843%,80.392157%,8.627451%);fill-opacity:1;" d="M 4.332031 14.402344 L 4.320312 13.792969 L 2.6875 13.753906 L 2.6875 12.558594 L 3.503906 12.535156 L 4.320312 12.515625 L 4.320312 12.105469 C 4.320312 11.703125 4.320312 11.691406 4.214844 11.664062 C 4.15625 11.644531 3.972656 11.59375 3.804688 11.546875 C 2.394531 11.140625 1.324219 10 1.007812 8.566406 C 0.882812 7.996094 0.941406 7.113281 1.140625 6.535156 C 1.34375 5.949219 1.820312 5.242188 2.261719 4.878906 C 2.390625 4.773438 2.496094 4.671875 2.496094 4.652344 C 2.496094 4.601562 2.089844 4.003906 2.039062 3.984375 C 2.015625 3.976562 1.757812 4.113281 1.464844 4.296875 C 1.175781 4.476562 0.914062 4.617188 0.886719 4.605469 C 0.855469 4.59375 0.738281 4.453125 0.625 4.292969 C 0.464844 4.066406 0.429688 3.992188 0.464844 3.945312 C 0.492188 3.917969 0.738281 3.753906 1.007812 3.585938 C 1.28125 3.417969 1.503906 3.253906 1.503906 3.226562 C 1.503906 3.152344 1.019531 2.433594 0.96875 2.433594 C 0.945312 2.433594 0.722656 2.5625 0.472656 2.722656 L 0.0234375 3.011719 L 0.0117188 1.519531 C 0.00390625 0.699219 0.00390625 0.0234375 0.0117188 0.015625 C 0.0195312 0.0078125 0.519531 0.183594 1.121094 0.40625 C 1.722656 0.628906 2.371094 0.871094 2.558594 0.9375 C 2.746094 1.007812 2.90625 1.089844 2.914062 1.121094 C 2.917969 1.152344 2.761719 1.277344 2.558594 1.402344 C 2.359375 1.527344 2.195312 1.65625 2.195312 1.6875 C 2.191406 1.761719 2.671875 2.472656 2.722656 2.472656 C 2.746094 2.472656 3.003906 2.324219 3.296875 2.144531 C 3.585938 1.964844 3.84375 1.816406 3.867188 1.816406 C 3.914062 1.816406 4.34375 2.390625 4.34375 2.453125 C 4.34375 2.476562 4.097656 2.644531 3.800781 2.824219 C 3.503906 3.007812 3.246094 3.183594 3.226562 3.21875 C 3.199219 3.265625 3.253906 3.394531 3.425781 3.667969 C 3.695312 4.101562 3.613281 4.070312 4.214844 3.941406 C 4.585938 3.859375 5.453125 3.859375 5.855469 3.941406 C 6.148438 4 6.171875 3.996094 6.242188 3.929688 C 6.414062 3.757812 7.828125 1.839844 7.828125 1.78125 C 7.824219 1.738281 7.671875 1.617188 7.460938 1.484375 C 7.257812 1.359375 7.101562 1.234375 7.105469 1.203125 C 7.113281 1.171875 7.273438 1.089844 7.460938 1.023438 C 7.652344 0.953125 8.296875 0.714844 8.898438 0.488281 C 9.5 0.265625 10 0.0898438 10.007812 0.0976562 C 10.015625 0.105469 10.015625 0.78125 10.011719 1.601562 L 10 3.09375 L 9.546875 2.804688 C 9.296875 2.644531 9.074219 2.515625 9.046875 2.515625 C 9.007812 2.515625 7.742188 4.503906 7.671875 4.679688 C 7.652344 4.722656 7.707031 4.796875 7.84375 4.910156 C 8.253906 5.257812 8.726562 5.972656 8.921875 6.535156 C 9.1875 7.300781 9.1875 8.285156 8.921875 9.054688 C 8.703125 9.691406 8.191406 10.414062 7.667969 10.816406 C 7.148438 11.21875 6.699219 11.4375 6.042969 11.605469 L 5.699219 11.695312 L 5.699219 12.515625 L 6.535156 12.535156 L 7.375 12.558594 L 7.375 13.753906 L 6.535156 13.773438 L 5.699219 13.792969 L 5.675781 15.011719 L 4.347656 15.011719 Z M 5.699219 10.328125 C 6.195312 10.210938 6.570312 9.996094 6.972656 9.613281 C 7.546875 9.0625 7.785156 8.515625 7.785156 7.753906 C 7.785156 6.988281 7.546875 6.445312 6.972656 5.894531 C 6.394531 5.34375 5.828125 5.113281 5.03125 5.113281 C 4.234375 5.113281 3.667969 5.34375 3.09375 5.894531 C 2.515625 6.445312 2.277344 6.988281 2.277344 7.753906 C 2.277344 8.515625 2.515625 9.0625 3.09375 9.613281 C 3.488281 9.992188 3.863281 10.207031 4.34375 10.328125 C 4.660156 10.40625 5.378906 10.410156 5.699219 10.328125 Z M 5.699219 10.328125 "/>
</g>
</svg>
