<?xml version="1.0" encoding="UTF-8"?>
<svg xmlns="http://www.w3.org/2000/svg" xmlns:xlink="http://www.w3.org/1999/xlink" width="11pt" height="15pt" viewBox="0 0 11 15" version="1.1">
<g id="surface1">
<path style=" stroke:none;fill-rule:nonzero;fill:rgb(99.607843%,17.647059%,56.862745%);fill-opacity:1;" d="M 4.757812 14.417969 L 4.746094 13.851562 L 3.371094 13.8125 L 3.371094 12.320312 L 4.746094 12.28125 L 4.757812 11.679688 C 4.769531 10.992188 4.820312 11.082031 4.375 10.996094 C 4.003906 10.921875 3.464844 10.734375 3.070312 10.535156 C 1.53125 9.769531 0.480469 8.390625 0.101562 6.636719 C -0.0117188 6.101562 -0.0117188 5.011719 0.101562 4.476562 C 0.207031 3.984375 0.34375 3.582031 0.539062 3.160156 C 1.285156 1.574219 2.730469 0.453125 4.488281 0.0898438 C 4.953125 -0.00390625 6.027344 -0.00390625 6.496094 0.0898438 C 8.742188 0.550781 10.390625 2.199219 10.878906 4.476562 C 10.996094 5.011719 10.996094 6.101562 10.878906 6.636719 C 10.503906 8.390625 9.453125 9.769531 7.910156 10.535156 C 7.492188 10.746094 6.953125 10.929688 6.566406 11 C 6.425781 11.027344 6.289062 11.066406 6.261719 11.085938 C 6.226562 11.113281 6.21875 11.265625 6.226562 11.703125 L 6.234375 12.28125 L 7.539062 12.320312 L 7.539062 13.8125 L 6.234375 13.851562 L 6.226562 14.417969 L 6.214844 14.980469 L 4.765625 14.980469 Z M 6.460938 9.449219 C 7.25 9.242188 8.023438 8.730469 8.535156 8.082031 C 8.855469 7.679688 9.164062 7.050781 9.296875 6.53125 C 9.382812 6.195312 9.394531 6.078125 9.394531 5.535156 C 9.394531 4.996094 9.382812 4.878906 9.296875 4.539062 C 8.929688 3.113281 7.847656 2 6.460938 1.621094 C 6.128906 1.53125 6.015625 1.519531 5.492188 1.519531 C 4.964844 1.519531 4.851562 1.53125 4.523438 1.621094 C 3.136719 2 2.054688 3.113281 1.6875 4.539062 C 1.597656 4.878906 1.589844 4.996094 1.589844 5.535156 C 1.589844 6.078125 1.597656 6.195312 1.6875 6.53125 C 2.085938 8.089844 3.277344 9.21875 4.847656 9.523438 C 5.261719 9.605469 5.996094 9.570312 6.460938 9.449219 Z M 6.460938 9.449219 "/>
</g>
</svg>
