<?xml version="1.0" encoding="UTF-8"?>
<svg xmlns="http://www.w3.org/2000/svg" xmlns:xlink="http://www.w3.org/1999/xlink" width="15pt" height="15pt" viewBox="0 0 15 15" version="1.1">
<g id="surface1">
<path style=" stroke:none;fill-rule:nonzero;fill:rgb(1.568627%,51.764706%,99.607843%);fill-opacity:1;" d="M 5.804688 14.957031 C 5.40625 14.910156 4.863281 14.789062 4.472656 14.660156 C 3.992188 14.503906 3.148438 14.074219 2.726562 13.773438 C 2.269531 13.449219 1.542969 12.722656 1.21875 12.265625 C 0.917969 11.84375 0.488281 11 0.332031 10.519531 C -0.109375 9.179688 -0.109375 7.726562 0.332031 6.386719 C 0.488281 5.90625 0.917969 5.0625 1.21875 4.636719 C 1.542969 4.183594 2.269531 3.457031 2.726562 3.132812 C 3.148438 2.832031 3.992188 2.402344 4.472656 2.242188 C 6.320312 1.632812 8.363281 1.875 10.003906 2.902344 C 10.152344 2.992188 10.285156 3.066406 10.300781 3.066406 C 10.347656 3.066406 11.441406 2.011719 11.421875 1.984375 C 11.414062 1.96875 11.277344 1.945312 11.117188 1.933594 C 10.5625 1.882812 10.1875 1.6875 10.089844 1.394531 C 10.042969 1.246094 10.0625 0.792969 10.128906 0.554688 C 10.183594 0.371094 10.3125 0.1875 10.464844 0.0859375 L 10.589844 0 L 14.996094 0 L 14.984375 2.214844 L 14.972656 4.433594 L 14.878906 4.597656 C 14.746094 4.835938 14.574219 4.914062 14.128906 4.929688 L 13.769531 4.945312 L 13.628906 4.820312 C 13.457031 4.667969 13.226562 4.207031 13.136719 3.820312 C 13.09375 3.640625 13.054688 3.554688 13.015625 3.554688 C 12.945312 3.554688 11.820312 4.457031 11.816406 4.515625 C 11.816406 4.539062 11.90625 4.703125 12.023438 4.878906 C 13.101562 6.539062 13.375 8.628906 12.75 10.519531 C 12.589844 11 12.160156 11.84375 11.859375 12.265625 C 11.535156 12.722656 10.808594 13.449219 10.355469 13.773438 C 9.933594 14.074219 9.089844 14.503906 8.605469 14.660156 C 7.730469 14.949219 6.691406 15.058594 5.804688 14.957031 Z M 7.214844 13.074219 C 7.410156 13.042969 7.695312 12.984375 7.847656 12.941406 C 8.195312 12.84375 8.816406 12.550781 9.164062 12.320312 C 9.511719 12.089844 10.007812 11.613281 10.285156 11.246094 C 10.550781 10.894531 10.917969 10.15625 11.027344 9.761719 C 11.269531 8.890625 11.269531 8.015625 11.027344 7.144531 C 10.917969 6.746094 10.550781 6.011719 10.285156 5.65625 C 8.945312 3.882812 6.550781 3.28125 4.566406 4.226562 C 4.054688 4.472656 3.726562 4.695312 3.339844 5.058594 C 2.910156 5.464844 2.613281 5.867188 2.351562 6.410156 C 2.109375 6.90625 2.003906 7.242188 1.921875 7.777344 C 1.824219 8.414062 1.867188 9.09375 2.050781 9.761719 C 2.160156 10.15625 2.53125 10.894531 2.796875 11.246094 C 3.828125 12.617188 5.550781 13.328125 7.214844 13.074219 Z M 7.214844 13.074219 "/>
</g>
</svg>
