<?xml version="1.0" encoding="UTF-8"?>
<svg xmlns="http://www.w3.org/2000/svg" xmlns:xlink="http://www.w3.org/1999/xlink" width="10pt" height="15pt" viewBox="0 0 10 15" version="1.1">
<g id="surface1">
<path style=" stroke:none;fill-rule:nonzero;fill:rgb(0%,99.607843%,47.843137%);fill-opacity:1;" d="M 4.28125 14.980469 C 2.4375 14.730469 0.828125 13.457031 0.242188 11.785156 C 0.0351562 11.203125 0 10.96875 0 10.242188 C 0 9.519531 0.0351562 9.285156 0.242188 8.703125 C 0.796875 7.113281 2.273438 5.882812 4 5.5625 C 4.175781 5.53125 4.382812 5.492188 4.457031 5.476562 L 4.589844 5.453125 L 4.601562 4.574219 C 4.605469 4.089844 4.597656 3.679688 4.578125 3.664062 C 4.558594 3.644531 4.449219 3.730469 4.324219 3.863281 C 3.992188 4.207031 3.652344 4.476562 3.417969 4.582031 C 3.253906 4.65625 3.175781 4.667969 3.019531 4.652344 C 2.796875 4.625 2.597656 4.519531 2.535156 4.386719 C 2.359375 4.027344 2.492188 3.660156 2.882812 3.425781 C 2.996094 3.359375 4.410156 2.9375 4.519531 2.9375 C 4.527344 2.9375 4.53125 2.921875 4.53125 2.902344 C 4.53125 2.863281 4.308594 2.796875 3.65625 2.644531 C 3.394531 2.585938 3.097656 2.5 2.988281 2.457031 C 2.628906 2.308594 2.414062 1.96875 2.46875 1.628906 C 2.535156 1.199219 3.015625 1.054688 3.550781 1.300781 C 3.714844 1.378906 3.90625 1.535156 4.300781 1.914062 C 4.589844 2.195312 4.851562 2.421875 4.878906 2.421875 C 4.953125 2.421875 4.90625 2.210938 4.707031 1.621094 C 4.503906 1.011719 4.472656 0.816406 4.53125 0.539062 C 4.609375 0.175781 4.839844 0 5.238281 0 C 5.523438 0 5.6875 0.0898438 5.804688 0.3125 C 5.886719 0.46875 5.898438 0.539062 5.894531 0.808594 C 5.890625 0.984375 5.855469 1.230469 5.816406 1.375 C 5.773438 1.519531 5.691406 1.804688 5.632812 2.011719 C 5.574219 2.21875 5.535156 2.398438 5.550781 2.414062 C 5.566406 2.425781 5.808594 2.214844 6.089844 1.945312 C 6.703125 1.351562 6.957031 1.199219 7.316406 1.203125 C 7.714844 1.207031 7.929688 1.40625 7.929688 1.78125 C 7.929688 2.207031 7.550781 2.457031 6.5 2.714844 C 5.917969 2.859375 5.820312 2.894531 5.867188 2.9375 C 5.886719 2.957031 6.160156 3.027344 6.476562 3.101562 C 7.367188 3.304688 7.789062 3.539062 7.890625 3.894531 C 8.015625 4.34375 7.699219 4.703125 7.226562 4.652344 C 6.921875 4.617188 6.671875 4.460938 6.226562 4.03125 C 6.003906 3.8125 5.808594 3.644531 5.792969 3.660156 C 5.777344 3.671875 5.769531 4.082031 5.769531 4.574219 C 5.769531 5.242188 5.78125 5.46875 5.816406 5.496094 C 5.84375 5.515625 5.96875 5.554688 6.09375 5.578125 C 6.988281 5.761719 7.878906 6.230469 8.546875 6.863281 C 9.234375 7.519531 9.683594 8.304688 9.921875 9.269531 C 10.023438 9.691406 10.023438 10.796875 9.921875 11.21875 C 9.453125 13.113281 8.078125 14.445312 6.097656 14.910156 C 5.746094 14.996094 4.679688 15.035156 4.28125 14.980469 Z M 5.714844 13.4375 C 5.882812 13.398438 6.195312 13.28125 6.414062 13.179688 C 7.164062 12.828125 7.6875 12.335938 8.0625 11.621094 C 8.34375 11.089844 8.4375 10.742188 8.4375 10.242188 C 8.4375 9.757812 8.347656 9.40625 8.082031 8.894531 C 7.710938 8.179688 7.195312 7.683594 6.441406 7.324219 C 5.886719 7.058594 5.519531 6.96875 4.996094 6.96875 C 4.472656 6.96875 4.105469 7.058594 3.550781 7.324219 C 2.796875 7.683594 2.28125 8.179688 1.910156 8.894531 C 1.644531 9.40625 1.554688 9.757812 1.554688 10.242188 C 1.554688 10.742188 1.648438 11.089844 1.929688 11.621094 C 2.292969 12.3125 2.804688 12.804688 3.511719 13.152344 C 4.308594 13.539062 4.949219 13.621094 5.714844 13.4375 Z M 5.714844 13.4375 "/>
</g>
</svg>
