<?xml version="1.0" encoding="UTF-8"?>
<svg xmlns="http://www.w3.org/2000/svg" xmlns:xlink="http://www.w3.org/1999/xlink" width="15pt" height="15pt" viewBox="0 0 15 15" version="1.1">
<g id="surface1">
<path style=" stroke:none;fill-rule:nonzero;fill:rgb(90.196078%,90.588235%,90.980392%);fill-opacity:1;" d="M 13.332031 13.332031 C 13.332031 14.253906 12.585938 15 11.667969 15 L 3.332031 15 C 2.414062 15 1.667969 14.253906 1.667969 13.332031 L 1.667969 1.667969 C 1.667969 0.746094 2.414062 0 3.332031 0 L 11.667969 0 C 12.585938 0 13.332031 0.746094 13.332031 1.667969 Z M 13.332031 13.332031 "/>
<path style=" stroke:none;fill-rule:nonzero;fill:rgb(74.509804%,9.803922%,19.215686%);fill-opacity:1;" d="M 3.5 4.953125 C 3.71875 4.953125 3.914062 4.988281 4.078125 5.050781 C 4.179688 5.078125 4.265625 5.109375 4.339844 5.148438 C 4.671875 5.128906 5.011719 5.097656 5.363281 5.050781 C 5.824219 4.996094 6.390625 4.925781 7.0625 4.84375 L 7.0625 3.878906 C 7.0625 3.207031 6.984375 2.648438 6.828125 2.207031 C 6.761719 2.070312 6.730469 1.976562 6.730469 1.929688 C 6.730469 1.792969 6.785156 1.722656 6.894531 1.722656 C 7.191406 1.722656 7.460938 1.761719 7.710938 1.835938 C 7.996094 1.917969 8.136719 2.023438 8.136719 2.152344 C 8.136719 2.199219 8.121094 2.292969 8.082031 2.441406 C 7.972656 2.726562 7.917969 3.257812 7.917969 4.03125 L 7.917969 4.746094 C 8.460938 4.691406 9.050781 4.632812 9.699219 4.566406 C 9.992188 4.550781 10.273438 4.5 10.539062 4.414062 C 10.734375 4.378906 10.847656 4.359375 10.886719 4.359375 C 10.996094 4.359375 11.234375 4.453125 11.601562 4.636719 C 11.988281 4.867188 12.183594 5.046875 12.183594 5.175781 C 12.183594 5.277344 12.132812 5.378906 12.03125 5.480469 C 11.691406 5.847656 11.445312 6.234375 11.300781 6.636719 L 10.96875 7.34375 C 10.914062 7.480469 10.851562 7.585938 10.789062 7.660156 L 10.84375 7.6875 C 11.054688 7.816406 11.160156 7.933594 11.160156 8.03125 C 11.160156 8.117188 11.085938 8.160156 10.925781 8.171875 C 10.21875 8.171875 9.578125 8.207031 9.007812 8.28125 L 7.917969 8.363281 L 7.90625 10.214844 C 7.90625 11.050781 7.875 11.722656 7.820312 12.230469 C 7.765625 12.800781 7.683594 13.207031 7.574219 13.445312 C 7.472656 13.648438 7.386719 13.75 7.324219 13.75 C 7.285156 13.75 7.226562 13.640625 7.144531 13.417969 C 7.089844 13.160156 7.0625 12.714844 7.0625 12.078125 L 7.0625 8.433594 L 6.316406 8.503906 C 5.820312 8.546875 5.4375 8.574219 5.171875 8.574219 C 5.058594 8.574219 4.96875 8.5625 4.894531 8.542969 C 4.875 8.628906 4.847656 8.699219 4.8125 8.765625 C 4.753906 8.886719 4.695312 8.945312 4.632812 8.945312 C 4.546875 8.945312 4.472656 8.878906 4.398438 8.75 C 4.277344 8.570312 4.214844 8.378906 4.203125 8.183594 L 4.039062 7.109375 C 3.972656 6.546875 3.898438 6.15625 3.816406 5.933594 C 3.769531 5.703125 3.644531 5.484375 3.445312 5.273438 C 3.371094 5.226562 3.332031 5.195312 3.332031 5.175781 C 3.332031 5.027344 3.390625 4.953125 3.5 4.953125 Z M 4.894531 7.964844 C 5.648438 7.929688 6.371094 7.882812 7.0625 7.828125 L 7.0625 5.273438 C 6.351562 5.355469 5.667969 5.464844 5.003906 5.601562 C 4.875 5.648438 4.753906 5.683594 4.644531 5.699219 C 4.644531 5.808594 4.652344 5.921875 4.671875 6.03125 C 4.785156 6.871094 4.855469 7.515625 4.894531 7.964844 Z M 7.917969 5.175781 L 7.917969 7.742188 C 8.222656 7.707031 8.515625 7.667969 8.800781 7.632812 C 9.351562 7.558594 9.753906 7.515625 10 7.496094 C 10.019531 7.449219 10.042969 7.398438 10.070312 7.34375 C 10.152344 7.078125 10.261719 6.660156 10.402344 6.085938 C 10.511719 5.636719 10.566406 5.351562 10.566406 5.230469 C 10.566406 5.082031 10.425781 5.011719 10.140625 5.011719 C 9.707031 5.011719 9.015625 5.0625 8.066406 5.160156 C 8.015625 5.160156 7.960938 5.167969 7.917969 5.175781 Z M 7.917969 5.175781 "/>
</g>
</svg>
