<?xml version="1.0" encoding="UTF-8"?>
<svg xmlns="http://www.w3.org/2000/svg" xmlns:xlink="http://www.w3.org/1999/xlink" width="15pt" height="15pt" viewBox="0 0 15 15" version="1.1">
<g id="surface1">
<path style=" stroke:none;fill-rule:nonzero;fill:rgb(90.196078%,90.588235%,90.980392%);fill-opacity:1;" d="M 13.332031 13.332031 C 13.332031 14.253906 12.585938 15 11.667969 15 L 3.332031 15 C 2.414062 15 1.667969 14.253906 1.667969 13.332031 L 1.667969 1.667969 C 1.667969 0.746094 2.414062 0 3.332031 0 L 11.667969 0 C 12.585938 0 13.332031 0.746094 13.332031 1.667969 Z M 13.332031 13.332031 "/>
<path style=" stroke:none;fill-rule:nonzero;fill:rgb(86.666667%,18.039216%,26.666667%);fill-opacity:1;" d="M 4.582031 2.917969 C 3.535156 2.917969 2.671875 3.695312 2.53125 4.707031 C 2.835938 4.375 3.265625 4.167969 3.75 4.167969 C 4.671875 4.167969 5.417969 4.914062 5.417969 5.832031 C 5.417969 6.667969 6.039062 6.75 5.710938 7.054688 C 6.722656 6.910156 6.667969 6.050781 6.667969 5 C 6.667969 3.847656 5.734375 2.917969 4.582031 2.917969 Z M 4.582031 2.917969 "/>
<path style=" stroke:none;fill-rule:nonzero;fill:rgb(33.333333%,67.45098%,93.333333%);fill-opacity:1;" d="M 9.582031 5.832031 C 9.582031 4.914062 10.328125 4.167969 11.25 4.167969 C 11.734375 4.167969 12.164062 4.375 12.46875 4.707031 C 12.328125 3.695312 11.464844 2.917969 10.417969 2.917969 C 9.265625 2.917969 8.332031 3.847656 8.332031 5 C 8.332031 6.050781 8.277344 6.910156 9.289062 7.054688 C 8.960938 6.75 9.582031 6.667969 9.582031 5.832031 Z M 9.582031 5.832031 "/>
<path style=" stroke:none;fill-rule:nonzero;fill:rgb(100%,67.45098%,20%);fill-opacity:1;" d="M 5.832031 5 C 5.832031 2.929688 7.5 1.25 7.5 1.25 C 7.5 1.25 9.167969 2.929688 9.167969 5 C 9.167969 7.070312 8.421875 8.75 7.5 8.75 C 6.578125 8.75 5.832031 7.070312 5.832031 5 Z M 5.832031 5 "/>
<path style=" stroke:none;fill-rule:nonzero;fill:rgb(33.333333%,21.568627%,53.333333%);fill-opacity:1;" d="M 4.878906 8.78125 C 5.207031 9.085938 5.417969 9.515625 5.417969 10 C 5.417969 10.921875 4.671875 11.667969 3.75 11.667969 C 3.265625 11.667969 2.835938 11.457031 2.53125 11.128906 C 2.671875 12.136719 3.535156 12.917969 4.582031 12.917969 C 5.734375 12.917969 6.667969 11.984375 6.667969 10.832031 C 6.667969 9.785156 5.886719 8.921875 4.878906 8.78125 Z M 11.25 11.667969 C 10.328125 11.667969 9.582031 10.921875 9.582031 10 C 9.582031 9.515625 9.792969 9.085938 10.121094 8.78125 C 9.113281 8.921875 8.332031 9.785156 8.332031 10.832031 C 8.332031 11.984375 9.265625 12.917969 10.417969 12.917969 C 11.464844 12.917969 12.328125 12.136719 12.46875 11.128906 C 12.164062 11.457031 11.734375 11.667969 11.25 11.667969 Z M 11.25 11.667969 "/>
<path style=" stroke:none;fill-rule:nonzero;fill:rgb(57.254902%,40%,80%);fill-opacity:1;" d="M 5.832031 10 C 5.832031 12.070312 7.082031 13.75 7.5 13.75 C 7.917969 13.75 9.167969 12.070312 9.167969 10 C 9.167969 9.636719 9.144531 9.285156 9.101562 8.949219 C 8.898438 7.390625 8.257812 6.25 7.5 6.25 C 6.742188 6.25 6.101562 7.390625 5.898438 8.949219 C 5.855469 9.285156 5.832031 9.636719 5.832031 10 Z M 5.832031 10 "/>
<path style=" stroke:none;fill-rule:nonzero;fill:rgb(92.941176%,73.333333%,62.352941%);fill-opacity:1;" d="M 5.417969 7.082031 C 5.417969 5.472656 6.667969 5.417969 7.5 5.417969 C 8.332031 5.417969 9.582031 5.472656 9.582031 7.082031 C 9.582031 8.695312 8.652344 10 7.5 10 C 6.347656 10 5.417969 8.695312 5.417969 7.082031 Z M 5.417969 7.082031 "/>
<path style=" stroke:none;fill-rule:nonzero;fill:rgb(40%,12.941176%,7.45098%);fill-opacity:1;" d="M 7.082031 7.082031 C 7.082031 7.3125 6.898438 7.5 6.667969 7.5 C 6.4375 7.5 6.25 7.3125 6.25 7.082031 C 6.25 6.851562 6.4375 6.667969 6.667969 6.667969 C 6.898438 6.667969 7.082031 6.851562 7.082031 7.082031 Z M 7.082031 7.082031 "/>
<path style=" stroke:none;fill-rule:nonzero;fill:rgb(40%,12.941176%,7.45098%);fill-opacity:1;" d="M 8.75 7.082031 C 8.75 7.3125 8.5625 7.5 8.332031 7.5 C 8.101562 7.5 7.917969 7.3125 7.917969 7.082031 C 7.917969 6.851562 8.101562 6.667969 8.332031 6.667969 C 8.5625 6.667969 8.75 6.851562 8.75 7.082031 Z M 8.75 7.082031 "/>
<path style=" stroke:none;fill-rule:nonzero;fill:rgb(40%,12.941176%,7.45098%);fill-opacity:1;" d="M 7.5 9.167969 C 7.960938 9.167969 8.332031 8.792969 8.332031 8.332031 L 6.667969 8.332031 C 6.667969 8.792969 7.039062 9.167969 7.5 9.167969 Z M 7.5 9.167969 "/>
<path style=" stroke:none;fill-rule:nonzero;fill:rgb(62.745098%,1.568627%,11.764706%);fill-opacity:1;" d="M 2.917969 4.582031 C 2.917969 4.8125 2.730469 5 2.5 5 C 2.269531 5 2.082031 4.8125 2.082031 4.582031 C 2.082031 4.351562 2.269531 4.167969 2.5 4.167969 C 2.730469 4.167969 2.917969 4.351562 2.917969 4.582031 Z M 2.917969 4.582031 "/>
<path style=" stroke:none;fill-rule:nonzero;fill:rgb(13.333333%,40%,60%);fill-opacity:1;" d="M 12.917969 4.582031 C 12.917969 4.8125 12.730469 5 12.5 5 C 12.269531 5 12.082031 4.8125 12.082031 4.582031 C 12.082031 4.351562 12.269531 4.167969 12.5 4.167969 C 12.730469 4.167969 12.917969 4.351562 12.917969 4.582031 Z M 12.917969 4.582031 "/>
<path style=" stroke:none;fill-rule:nonzero;fill:rgb(86.666667%,18.039216%,26.666667%);fill-opacity:1;" d="M 7.917969 1.25 C 7.917969 1.480469 7.730469 1.667969 7.5 1.667969 C 7.269531 1.667969 7.082031 1.480469 7.082031 1.25 C 7.082031 1.019531 7.269531 0.832031 7.5 0.832031 C 7.730469 0.832031 7.917969 1.019531 7.917969 1.25 Z M 7.917969 1.25 "/>
</g>
</svg>
