<?xml version="1.0" encoding="UTF-8"?>
<svg xmlns="http://www.w3.org/2000/svg" xmlns:xlink="http://www.w3.org/1999/xlink" width="15pt" height="15pt" viewBox="0 0 15 15" version="1.1">
<g id="surface1">
<path style=" stroke:none;fill-rule:nonzero;fill:rgb(13.333333%,40%,60%);fill-opacity:1;" d="M 15 13.332031 C 15 14.253906 14.253906 15 13.332031 15 L 1.667969 15 C 0.746094 15 0 14.253906 0 13.332031 L 0 1.667969 C 0 0.746094 0.746094 0 1.667969 0 L 13.332031 0 C 14.253906 0 15 0.746094 15 1.667969 Z M 15 13.332031 "/>
<path style=" stroke:none;fill-rule:nonzero;fill:rgb(100%,100%,100%);fill-opacity:1;" d="M 4.582031 3.957031 C 4.582031 3.328125 4.957031 2.917969 5.625 2.917969 L 7.984375 2.917969 C 9.941406 2.917969 11.398438 4.144531 11.398438 6.050781 C 11.398438 7.996094 9.890625 9.167969 8.0625 9.167969 L 6.667969 9.167969 L 6.667969 11.449219 C 6.667969 12.117188 6.238281 12.488281 5.667969 12.488281 C 5.09375 12.488281 4.582031 12.117188 4.582031 11.449219 Z M 6.667969 7.5 L 7.941406 7.5 C 8.785156 7.5 9.316406 6.890625 9.316406 6.089844 C 9.316406 5.289062 8.785156 4.675781 7.941406 4.675781 L 6.667969 4.675781 Z M 6.667969 7.5 "/>
</g>
</svg>
