<?xml version="1.0" encoding="UTF-8"?>
<svg xmlns="http://www.w3.org/2000/svg" xmlns:xlink="http://www.w3.org/1999/xlink" width="15pt" height="15pt" viewBox="0 0 15 15" version="1.1">
<g id="surface1">
<path style=" stroke:none;fill-rule:nonzero;fill:rgb(86.666667%,18.039216%,26.666667%);fill-opacity:1;" d="M 15 13.332031 C 15 14.253906 14.253906 15 13.332031 15 L 1.667969 15 C 0.746094 15 0 14.253906 0 13.332031 L 0 1.667969 C 0 0.746094 0.746094 0 1.667969 0 L 13.332031 0 C 14.253906 0 15 0.746094 15 1.667969 Z M 15 13.332031 "/>
<path style=" stroke:none;fill-rule:nonzero;fill:rgb(100%,100%,100%);fill-opacity:1;" d="M 2.914062 7.5 C 2.914062 4.726562 4.78125 2.59375 7.5 2.59375 C 10.179688 2.59375 12.085938 4.792969 12.085938 7.5 C 12.085938 10.261719 10.234375 12.40625 7.5 12.40625 C 4.792969 12.40625 2.914062 10.261719 2.914062 7.5 Z M 10.007812 7.5 C 10.007812 5.886719 9.167969 4.433594 7.5 4.433594 C 5.832031 4.433594 4.992188 5.886719 4.992188 7.5 C 4.992188 9.125 5.808594 10.566406 7.5 10.566406 C 9.195312 10.566406 10.007812 9.125 10.007812 7.5 Z M 10.007812 7.5 "/>
</g>
</svg>
