<?xml version="1.0" encoding="UTF-8"?>
<svg xmlns="http://www.w3.org/2000/svg" xmlns:xlink="http://www.w3.org/1999/xlink" width="15pt" height="15pt" viewBox="0 0 15 15" version="1.1">
<g id="surface1">
<path style=" stroke:none;fill-rule:nonzero;fill:rgb(86.666667%,18.039216%,26.666667%);fill-opacity:1;" d="M 15 13.332031 C 15 14.253906 14.253906 15 13.332031 15 L 1.667969 15 C 0.746094 15 0 14.253906 0 13.332031 L 0 1.667969 C 0 0.746094 0.746094 0 1.667969 0 L 13.332031 0 C 14.253906 0 15 0.746094 15 1.667969 Z M 15 13.332031 "/>
<path style=" stroke:none;fill-rule:nonzero;fill:rgb(100%,100%,100%);fill-opacity:1;" d="M 2.980469 4.195312 C 3.175781 3.660156 3.632812 3.226562 4.226562 3.226562 C 4.84375 3.226562 5.277344 3.636719 5.476562 4.195312 L 7.761719 10.542969 C 7.832031 10.730469 7.855469 10.894531 7.855469 10.972656 C 7.855469 11.429688 7.484375 11.746094 7.050781 11.746094 C 6.558594 11.746094 6.316406 11.488281 6.199219 11.136719 L 5.832031 10 L 2.617188 10 L 2.253906 11.125 C 2.140625 11.488281 1.894531 11.746094 1.414062 11.746094 C 0.949219 11.746094 0.550781 11.394531 0.550781 10.929688 C 0.550781 10.742188 0.609375 10.601562 0.632812 10.542969 Z M 3.109375 8.429688 L 5.324219 8.429688 L 4.238281 5.046875 L 4.214844 5.046875 Z M 8.332031 4.207031 C 8.332031 3.648438 8.71875 3.332031 9.253906 3.332031 L 11.496094 3.332031 C 12.707031 3.332031 13.6875 4.148438 13.6875 5.386719 C 13.6875 6.203125 13.351562 6.75 12.601562 7.101562 L 12.601562 7.125 C 13.59375 7.265625 14.375 8.136719 14.375 9.148438 C 14.375 10.792969 13.28125 11.667969 11.671875 11.667969 L 9.265625 11.667969 C 8.730469 11.667969 8.332031 11.300781 8.332031 10.753906 Z M 10.082031 6.667969 L 10.992188 6.667969 C 11.566406 6.667969 11.9375 6.328125 11.9375 5.742188 C 11.9375 5.195312 11.507812 4.875 10.992188 4.875 L 10.082031 4.875 Z M 10.082031 10 L 11.460938 10 C 12.089844 10 12.558594 9.695312 12.558594 9.042969 C 12.558594 8.496094 12.136719 8.164062 11.320312 8.164062 L 10.082031 8.164062 Z M 10.082031 10 "/>
</g>
</svg>
