<?xml version="1.0" encoding="UTF-8"?>
<svg xmlns="http://www.w3.org/2000/svg" xmlns:xlink="http://www.w3.org/1999/xlink" width="15pt" height="15pt" viewBox="0 0 15 15" version="1.1">
<g id="surface1">
<path style=" stroke:none;fill-rule:nonzero;fill:rgb(86.666667%,18.039216%,26.666667%);fill-opacity:1;" d="M 15 13.332031 C 15 14.253906 14.253906 15 13.332031 15 L 1.667969 15 C 0.746094 15 0 14.253906 0 13.332031 L 0 1.667969 C 0 0.746094 0.746094 0 1.667969 0 L 13.332031 0 C 14.253906 0 15 0.746094 15 1.667969 Z M 15 13.332031 "/>
<path style=" stroke:none;fill-rule:nonzero;fill:rgb(100%,100%,100%);fill-opacity:1;" d="M 5.335938 2.730469 C 6.28125 2.730469 8.117188 3.039062 8.117188 4.175781 C 8.117188 4.640625 7.792969 5.042969 7.3125 5.042969 C 6.785156 5.042969 6.421875 4.589844 5.335938 4.589844 C 3.734375 4.589844 2.910156 5.945312 2.910156 7.523438 C 2.910156 9.058594 3.75 10.378906 5.335938 10.378906 C 6.421875 10.378906 6.863281 9.835938 7.390625 9.835938 C 7.972656 9.835938 8.246094 10.417969 8.246094 10.714844 C 8.246094 11.953125 6.292969 12.238281 5.335938 12.238281 C 2.714844 12.238281 0.894531 10.15625 0.894531 7.484375 C 0.894531 4.796875 2.703125 2.730469 5.335938 2.730469 Z M 8.886719 3.816406 C 8.886719 3.167969 9.300781 2.808594 9.859375 2.808594 C 10.414062 2.808594 10.828125 3.167969 10.828125 3.816406 L 10.828125 10.300781 L 13.125 10.300781 C 13.785156 10.300781 14.070312 10.792969 14.054688 11.230469 C 14.03125 11.65625 13.695312 12.082031 13.125 12.082031 L 9.898438 12.082031 C 9.261719 12.082031 8.886719 11.671875 8.886719 11.023438 Z M 8.886719 3.816406 "/>
</g>
</svg>
