<?xml version="1.0" encoding="UTF-8"?>
<svg xmlns="http://www.w3.org/2000/svg" xmlns:xlink="http://www.w3.org/1999/xlink" width="15pt" height="15pt" viewBox="0 0 15 15" version="1.1">
<g id="surface1">
<path style=" stroke:none;fill-rule:nonzero;fill:rgb(95.686275%,56.470588%,4.705882%);fill-opacity:1;" d="M 15 13.332031 C 15 14.253906 14.253906 15 13.332031 15 L 1.667969 15 C 0.746094 15 0 14.253906 0 13.332031 L 0 1.667969 C 0 0.746094 0.746094 0 1.667969 0 L 13.332031 0 C 14.253906 0 15 0.746094 15 1.667969 Z M 15 13.332031 "/>
<path style=" stroke:none;fill-rule:nonzero;fill:rgb(100%,100%,100%);fill-opacity:1;" d="M 7.074219 2.976562 C 6.648438 2.976562 6.386719 3.25 6.226562 3.585938 L 4.289062 8.785156 L 2.351562 3.585938 C 2.1875 3.25 1.925781 2.976562 1.5 2.976562 C 1 2.976562 0.539062 3.351562 0.539062 3.875 C 0.539062 4.050781 0.5625 4.175781 0.625 4.335938 L 3.363281 11.300781 C 3.527344 11.699219 3.738281 12.023438 4.289062 12.023438 C 4.839844 12.023438 5.050781 11.699219 5.214844 11.300781 L 7.949219 4.335938 C 8.011719 4.175781 8.039062 4.050781 8.039062 3.875 C 8.035156 3.351562 7.574219 2.976562 7.074219 2.976562 Z M 10.289062 5.511719 C 10.289062 4.988281 10.773438 4.699219 11.3125 4.699219 C 12.0625 4.699219 12.464844 5.074219 12.976562 5.074219 C 13.488281 5.074219 13.8125 4.636719 13.8125 4.148438 C 13.8125 3.160156 12.0625 2.898438 11.363281 2.898438 C 9.699219 2.898438 8.261719 3.988281 8.261719 5.738281 C 8.261719 8.636719 12.4375 7.75 12.4375 9.222656 C 12.4375 9.835938 11.988281 10.300781 11.164062 10.300781 C 10.351562 10.300781 9.652344 9.8125 9.0625 9.8125 C 8.550781 9.8125 8.226562 10.210938 8.226562 10.699219 C 8.226562 11.875 10.300781 12.097656 11.261719 12.097656 C 12.988281 12.097656 14.460938 10.988281 14.460938 9.199219 C 14.460938 5.976562 10.289062 6.800781 10.289062 5.511719 Z M 10.289062 5.511719 "/>
</g>
</svg>
