<?xml version="1.0" encoding="UTF-8"?>
<svg xmlns="http://www.w3.org/2000/svg" xmlns:xlink="http://www.w3.org/1999/xlink" width="15pt" height="15pt" viewBox="0 0 15 15" version="1.1">
<g id="surface1">
<path style=" stroke:none;fill-rule:nonzero;fill:rgb(23.137255%,53.333333%,76.470588%);fill-opacity:1;" d="M 15 13.332031 C 15 14.253906 14.253906 15 13.332031 15 L 1.667969 15 C 0.746094 15 0 14.253906 0 13.332031 L 0 1.667969 C 0 0.746094 0.746094 0 1.667969 0 L 13.332031 0 C 14.253906 0 15 0.746094 15 1.667969 Z M 15 13.332031 "/>
<path style=" stroke:none;fill-rule:nonzero;fill:rgb(100%,100%,100%);fill-opacity:1;" d="M 2.488281 5.359375 C 2.914062 5.359375 3.742188 5.496094 3.742188 6.011719 C 3.742188 6.222656 3.597656 6.402344 3.378906 6.402344 C 3.140625 6.402344 2.976562 6.199219 2.488281 6.199219 C 1.765625 6.199219 1.390625 6.8125 1.390625 7.523438 C 1.390625 8.21875 1.769531 8.8125 2.488281 8.8125 C 2.976562 8.8125 3.175781 8.566406 3.414062 8.566406 C 3.679688 8.566406 3.800781 8.832031 3.800781 8.964844 C 3.800781 9.527344 2.917969 9.652344 2.488281 9.652344 C 1.304688 9.652344 0.480469 8.714844 0.480469 7.503906 C 0.480469 6.292969 1.296875 5.359375 2.488281 5.359375 Z M 2.488281 5.359375 "/>
<path style=" stroke:none;fill-rule:nonzero;fill:rgb(100%,100%,100%);fill-opacity:1;" d="M 3.695312 7.503906 C 3.695312 6.292969 4.511719 5.359375 5.703125 5.359375 C 6.875 5.359375 7.710938 6.320312 7.710938 7.503906 C 7.710938 8.714844 6.898438 9.652344 5.703125 9.652344 C 4.515625 9.652344 3.695312 8.714844 3.695312 7.503906 Z M 6.796875 7.503906 C 6.796875 6.800781 6.429688 6.164062 5.703125 6.164062 C 4.972656 6.164062 4.605469 6.800781 4.605469 7.503906 C 4.605469 8.21875 4.960938 8.847656 5.703125 8.847656 C 6.441406 8.847656 6.796875 8.21875 6.796875 7.503906 Z M 7.90625 7.503906 C 7.90625 6.292969 8.722656 5.359375 9.914062 5.359375 C 11.085938 5.359375 11.921875 6.320312 11.921875 7.503906 C 11.921875 8.714844 11.109375 9.652344 9.914062 9.652344 C 8.726562 9.652344 7.90625 8.714844 7.90625 7.503906 Z M 11.011719 7.503906 C 11.011719 6.800781 10.644531 6.164062 9.914062 6.164062 C 9.183594 6.164062 8.816406 6.800781 8.816406 7.503906 C 8.816406 8.21875 9.171875 8.847656 9.914062 8.847656 C 10.652344 8.847656 11.011719 8.21875 11.011719 7.503906 Z M 12.164062 5.847656 C 12.164062 5.554688 12.351562 5.390625 12.601562 5.390625 C 12.851562 5.390625 13.039062 5.554688 13.039062 5.847656 L 13.039062 8.777344 L 14.078125 8.777344 C 14.375 8.777344 14.503906 9 14.5 9.199219 C 14.488281 9.390625 14.335938 9.582031 14.078125 9.582031 L 12.617188 9.582031 C 12.332031 9.582031 12.164062 9.398438 12.164062 9.105469 Z M 12.164062 5.847656 "/>
</g>
</svg>
