<?xml version="1.0" encoding="UTF-8"?>
<svg xmlns="http://www.w3.org/2000/svg" xmlns:xlink="http://www.w3.org/1999/xlink" width="15pt" height="15pt" viewBox="0 0 15 15" version="1.1">
<g id="surface1">
<path style=" stroke:none;fill-rule:nonzero;fill:rgb(57.254902%,40%,80%);fill-opacity:1;" d="M 15 13.332031 C 15 14.253906 14.253906 15 13.332031 15 L 1.667969 15 C 0.746094 15 0 14.253906 0 13.332031 L 0 1.667969 C 0 0.746094 0.746094 0 1.667969 0 L 13.332031 0 C 14.253906 0 15 0.746094 15 1.667969 Z M 15 13.332031 "/>
<path style=" stroke:none;fill-rule:nonzero;fill:rgb(100%,100%,100%);fill-opacity:1;" d="M 2.382812 3.816406 C 2.382812 3.167969 2.796875 2.808594 3.351562 2.808594 C 3.90625 2.808594 4.320312 3.167969 4.320312 3.816406 L 4.320312 11.152344 C 4.320312 11.800781 3.90625 12.160156 3.351562 12.160156 C 2.796875 12.160156 2.382812 11.800781 2.382812 11.152344 Z M 5.480469 3.878906 C 5.480469 3.285156 5.894531 2.886719 6.476562 2.886719 L 8.621094 2.886719 C 11.515625 2.886719 13.167969 4.746094 13.167969 7.613281 C 13.167969 10.328125 11.410156 12.082031 8.75 12.082031 L 6.503906 12.082031 C 6.078125 12.082031 5.480469 11.851562 5.480469 11.113281 Z M 7.417969 10.300781 L 8.722656 10.300781 C 10.390625 10.300781 11.152344 9.074219 11.152344 7.523438 C 11.152344 5.871094 10.378906 4.667969 8.59375 4.667969 L 7.417969 4.667969 Z M 7.417969 10.300781 "/>
</g>
</svg>
