<?xml version="1.0" encoding="UTF-8"?>
<svg xmlns="http://www.w3.org/2000/svg" xmlns:xlink="http://www.w3.org/1999/xlink" width="15pt" height="15pt" viewBox="0 0 15 15" version="1.1">
<g id="surface1">
<path style=" stroke:none;fill-rule:nonzero;fill:rgb(86.666667%,18.039216%,26.666667%);fill-opacity:1;" d="M 15 13.332031 C 15 14.253906 14.253906 15 13.332031 15 L 1.667969 15 C 0.746094 15 0 14.253906 0 13.332031 L 0 1.667969 C 0 0.746094 0.746094 0 1.667969 0 L 13.332031 0 C 14.253906 0 15 0.746094 15 1.667969 Z M 15 13.332031 "/>
<path style=" stroke:none;fill-rule:nonzero;fill:rgb(100%,100%,100%);fill-opacity:1;" d="M 4.066406 5.214844 C 4.066406 5.539062 3.851562 5.832031 3.507812 5.832031 C 3.167969 5.832031 2.902344 5.582031 2.402344 5.582031 C 2.042969 5.582031 1.714844 5.773438 1.714844 6.125 C 1.714844 6.984375 4.5 6.433594 4.5 8.582031 C 4.5 9.773438 3.515625 10.515625 2.367188 10.515625 C 1.726562 10.515625 0.339844 10.367188 0.339844 9.582031 C 0.339844 9.257812 0.558594 8.992188 0.898438 8.992188 C 1.292969 8.992188 1.757812 9.316406 2.300781 9.316406 C 2.851562 9.316406 3.152344 9.007812 3.152344 8.597656 C 3.152344 7.617188 0.367188 8.207031 0.367188 6.273438 C 0.367188 5.105469 1.324219 4.382812 2.433594 4.382812 C 2.902344 4.382812 4.066406 4.558594 4.066406 5.214844 Z M 4.632812 7.449219 C 4.632812 5.714844 5.800781 4.382812 7.5 4.382812 C 9.175781 4.382812 10.367188 5.757812 10.367188 7.449219 C 10.367188 9.175781 9.210938 10.515625 7.5 10.515625 C 5.808594 10.515625 4.632812 9.175781 4.632812 7.449219 Z M 9.066406 7.449219 C 9.066406 6.441406 8.542969 5.53125 7.5 5.53125 C 6.457031 5.53125 5.933594 6.441406 5.933594 7.449219 C 5.933594 8.464844 6.441406 9.367188 7.5 9.367188 C 8.558594 9.367188 9.066406 8.464844 9.066406 7.449219 Z M 14.226562 5.214844 C 14.226562 5.539062 14.007812 5.832031 13.667969 5.832031 C 13.324219 5.832031 13.058594 5.582031 12.558594 5.582031 C 12.199219 5.582031 11.875 5.773438 11.875 6.125 C 11.875 6.984375 14.660156 6.433594 14.660156 8.582031 C 14.660156 9.773438 13.675781 10.515625 12.527344 10.515625 C 11.882812 10.515625 10.5 10.367188 10.5 9.582031 C 10.5 9.257812 10.71875 8.992188 11.058594 8.992188 C 11.449219 8.992188 11.917969 9.316406 12.457031 9.316406 C 13.007812 9.316406 13.308594 9.007812 13.308594 8.597656 C 13.308594 7.617188 10.523438 8.207031 10.523438 6.273438 C 10.523438 5.105469 11.484375 4.382812 12.59375 4.382812 C 13.058594 4.382812 14.226562 4.558594 14.226562 5.214844 Z M 14.226562 5.214844 "/>
</g>
</svg>
