<?xml version="1.0" encoding="UTF-8"?>
<svg xmlns="http://www.w3.org/2000/svg" xmlns:xlink="http://www.w3.org/1999/xlink" width="15pt" height="15pt" viewBox="0 0 15 15" version="1.1">
<g id="surface1">
<path style=" stroke:none;fill-rule:nonzero;fill:rgb(23.137255%,53.333333%,76.470588%);fill-opacity:1;" d="M 15 13.332031 C 15 14.253906 14.253906 15 13.332031 15 L 1.667969 15 C 0.746094 15 0 14.253906 0 13.332031 L 0 1.667969 C 0 0.746094 0.746094 0 1.667969 0 L 13.332031 0 C 14.253906 0 15 0.746094 15 1.667969 Z M 15 13.332031 "/>
<path style=" stroke:none;fill-rule:nonzero;fill:rgb(100%,100%,100%);fill-opacity:1;" d="M 0.804688 7.273438 C 0.804688 5.191406 2.207031 3.59375 4.246094 3.59375 C 6.253906 3.59375 7.6875 5.242188 7.6875 7.273438 C 7.6875 9.34375 6.296875 10.953125 4.246094 10.953125 C 2.214844 10.953125 0.804688 9.34375 0.804688 7.273438 Z M 6.125 7.273438 C 6.125 6.0625 5.496094 4.972656 4.246094 4.972656 C 2.996094 4.972656 2.367188 6.0625 2.367188 7.273438 C 2.367188 8.492188 2.976562 9.574219 4.246094 9.574219 C 5.515625 9.574219 6.125 8.492188 6.125 7.273438 Z M 8.304688 4.390625 C 8.304688 3.984375 8.605469 3.652344 9.054688 3.652344 C 9.484375 3.652344 9.804688 3.933594 9.804688 4.390625 L 9.804688 6.554688 L 12.265625 3.933594 C 12.375 3.8125 12.566406 3.652344 12.84375 3.652344 C 13.226562 3.652344 13.585938 3.941406 13.585938 4.371094 C 13.585938 4.632812 13.425781 4.84375 13.097656 5.171875 L 11.207031 7.03125 L 13.515625 9.441406 C 13.753906 9.683594 13.9375 9.902344 13.9375 10.203125 C 13.9375 10.671875 13.566406 10.890625 13.15625 10.890625 C 12.867188 10.890625 12.675781 10.722656 12.394531 10.421875 L 9.804688 7.621094 L 9.804688 10.171875 C 9.804688 10.5625 9.503906 10.890625 9.054688 10.890625 C 8.625 10.890625 8.304688 10.613281 8.304688 10.171875 Z M 8.304688 4.390625 "/>
</g>
</svg>
