<?xml version="1.0" encoding="UTF-8"?>
<svg xmlns="http://www.w3.org/2000/svg" xmlns:xlink="http://www.w3.org/1999/xlink" width="15pt" height="15pt" viewBox="0 0 15 15" version="1.1">
<g id="surface1">
<path style=" stroke:none;fill-rule:nonzero;fill:rgb(23.137255%,53.333333%,76.470588%);fill-opacity:1;" d="M 15 13.332031 C 15 14.253906 14.253906 15 13.332031 15 L 1.667969 15 C 0.746094 15 0 14.253906 0 13.332031 L 0 1.667969 C 0 0.746094 0.746094 0 1.667969 0 L 13.332031 0 C 14.253906 0 15 0.746094 15 1.667969 Z M 15 13.332031 "/>
<path style=" stroke:none;fill-rule:nonzero;fill:rgb(100%,100%,100%);fill-opacity:1;" d="M 1.046875 4.433594 C 1.046875 3.933594 1.363281 3.652344 1.796875 3.652344 C 1.984375 3.652344 2.296875 3.804688 2.425781 3.984375 L 5.59375 8.214844 L 5.613281 8.214844 L 5.613281 4.433594 C 5.613281 3.933594 5.933594 3.652344 6.363281 3.652344 C 6.796875 3.652344 7.113281 3.933594 7.113281 4.433594 L 7.113281 10.113281 C 7.113281 10.613281 6.796875 10.894531 6.363281 10.894531 C 6.175781 10.894531 5.875 10.742188 5.734375 10.5625 L 2.566406 6.382812 L 2.546875 6.382812 L 2.546875 10.113281 C 2.546875 10.613281 2.226562 10.894531 1.796875 10.894531 C 1.367188 10.894531 1.046875 10.613281 1.046875 10.113281 Z M 13.296875 6.613281 C 13.925781 6.613281 14.175781 6.933594 14.175781 7.574219 C 14.175781 9.503906 12.914062 10.953125 10.914062 10.953125 C 8.886719 10.953125 7.476562 9.34375 7.476562 7.273438 C 7.476562 5.191406 8.875 3.59375 10.914062 3.59375 C 12.425781 3.59375 13.664062 4.300781 13.664062 5.003906 C 13.664062 5.433594 13.394531 5.703125 13.046875 5.703125 C 12.367188 5.703125 12.226562 4.972656 10.914062 4.972656 C 9.664062 4.972656 9.035156 6.0625 9.035156 7.273438 C 9.035156 8.492188 9.644531 9.574219 10.914062 9.574219 C 11.707031 9.574219 12.617188 9.132812 12.617188 7.992188 L 11.597656 7.992188 C 11.1875 7.992188 10.894531 7.703125 10.894531 7.292969 C 10.894531 6.871094 11.214844 6.613281 11.597656 6.613281 Z M 13.296875 6.613281 "/>
</g>
</svg>
