<?xml version="1.0" encoding="UTF-8"?>
<svg xmlns="http://www.w3.org/2000/svg" xmlns:xlink="http://www.w3.org/1999/xlink" width="15pt" height="15pt" viewBox="0 0 15 15" version="1.1">
<g id="surface1">
<path style=" stroke:none;fill-rule:nonzero;fill:rgb(12.156863%,25.882353%,60.784314%);fill-opacity:1;" d="M 5.417969 2.082031 L 1.667969 2.082031 C 0.746094 2.082031 0 2.828125 0 3.75 L 0 7.5 L 5.417969 7.5 Z M 3.472656 5.953125 L 2.691406 5.386719 L 1.90625 5.953125 L 2.203125 5.035156 L 1.421875 4.464844 L 2.390625 4.464844 L 2.691406 3.542969 L 2.988281 4.464844 L 3.957031 4.464844 L 3.175781 5.035156 Z M 3.472656 5.953125 "/>
<path style=" stroke:none;fill-rule:nonzero;fill:rgb(93.333333%,93.333333%,93.333333%);fill-opacity:1;" d="M 13.332031 2.082031 L 5.417969 2.082031 L 5.417969 7.5 L 15 7.5 L 15 3.75 C 15 2.828125 14.253906 2.082031 13.332031 2.082031 Z M 13.332031 2.082031 "/>
<path style=" stroke:none;fill-rule:nonzero;fill:rgb(83.137255%,17.647059%,15.294118%);fill-opacity:1;" d="M 0 7.5 L 0 11.25 C 0 12.171875 0.746094 12.917969 1.667969 12.917969 L 13.332031 12.917969 C 14.253906 12.917969 15 12.171875 15 11.25 L 15 7.5 Z M 0 7.5 "/>
<path style=" stroke:none;fill-rule:nonzero;fill:rgb(100%,100%,100%);fill-opacity:1;" d="M 2.988281 4.464844 L 2.691406 3.542969 L 2.390625 4.464844 L 1.421875 4.464844 L 2.203125 5.035156 L 1.90625 5.953125 L 2.691406 5.386719 L 3.472656 5.953125 L 3.175781 5.035156 L 3.957031 4.464844 Z M 2.988281 4.464844 "/>
</g>
</svg>
