<?xml version="1.0" encoding="UTF-8"?>
<svg xmlns="http://www.w3.org/2000/svg" xmlns:xlink="http://www.w3.org/1999/xlink" width="15pt" height="15pt" viewBox="0 0 15 15" version="1.1">
<g id="surface1">
<path style=" stroke:none;fill-rule:nonzero;fill:rgb(0%,20%,60%);fill-opacity:1;" d="M 13.332031 2.082031 L 1.667969 2.082031 C 0.746094 2.082031 0 2.828125 0 3.75 L 0 11.25 C 0 12.171875 0.746094 12.917969 1.667969 12.917969 L 13.332031 12.917969 C 14.253906 12.917969 15 12.171875 15 11.25 L 15 3.75 C 15 2.828125 14.253906 2.082031 13.332031 2.082031 Z M 13.332031 2.082031 "/>
<path style=" stroke:none;fill-rule:nonzero;fill:rgb(100%,80%,0%);fill-opacity:1;" d="M 7.722656 4.042969 L 8.078125 3.785156 L 7.640625 3.785156 L 7.503906 3.371094 L 7.371094 3.785156 L 6.933594 3.785156 L 7.289062 4.042969 L 7.152344 4.460938 L 7.503906 4.203125 L 7.859375 4.460938 Z M 7.722656 11.265625 L 8.078125 11.007812 L 7.640625 11.007812 L 7.503906 10.59375 L 7.371094 11.007812 L 6.933594 11.007812 L 7.289062 11.265625 L 7.152344 11.683594 L 7.503906 11.425781 L 7.859375 11.683594 Z M 4.113281 7.65625 L 4.46875 7.398438 L 4.03125 7.398438 L 3.894531 6.980469 L 3.757812 7.398438 L 3.324219 7.398438 L 3.675781 7.65625 L 3.542969 8.070312 L 3.894531 7.8125 L 4.25 8.070312 Z M 4.574219 5.871094 L 4.929688 5.613281 L 4.492188 5.613281 L 4.355469 5.195312 L 4.222656 5.613281 L 3.785156 5.613281 L 4.136719 5.871094 L 4.003906 6.285156 L 4.355469 6.027344 L 4.710938 6.285156 Z M 4.574219 9.460938 L 4.929688 9.203125 L 4.492188 9.203125 L 4.355469 8.789062 L 4.222656 9.203125 L 3.785156 9.203125 L 4.136719 9.460938 L 4.003906 9.875 L 4.355469 9.621094 L 4.710938 9.875 Z M 5.917969 4.527344 L 6.273438 4.269531 L 5.835938 4.269531 L 5.699219 3.855469 L 5.566406 4.269531 L 5.128906 4.269531 L 5.480469 4.527344 L 5.347656 4.941406 L 5.699219 4.6875 L 6.054688 4.941406 Z M 5.917969 10.804688 L 6.273438 10.546875 L 5.835938 10.546875 L 5.699219 10.132812 L 5.566406 10.546875 L 5.128906 10.546875 L 5.480469 10.804688 L 5.347656 11.222656 L 5.699219 10.964844 L 6.054688 11.222656 Z M 10.886719 7.65625 L 10.53125 7.398438 L 10.96875 7.398438 L 11.105469 6.980469 L 11.242188 7.398438 L 11.675781 7.398438 L 11.324219 7.65625 L 11.457031 8.070312 L 11.105469 7.8125 L 10.75 8.070312 Z M 10.425781 5.871094 L 10.070312 5.613281 L 10.507812 5.613281 L 10.644531 5.195312 L 10.777344 5.613281 L 11.214844 5.613281 L 10.863281 5.871094 L 10.996094 6.285156 L 10.644531 6.027344 L 10.289062 6.285156 Z M 10.425781 9.460938 L 10.070312 9.203125 L 10.507812 9.203125 L 10.644531 8.789062 L 10.777344 9.203125 L 11.214844 9.203125 L 10.863281 9.460938 L 10.996094 9.875 L 10.644531 9.621094 L 10.289062 9.875 Z M 9.082031 4.527344 L 8.726562 4.269531 L 9.164062 4.269531 L 9.300781 3.855469 L 9.433594 4.269531 L 9.871094 4.269531 L 9.519531 4.527344 L 9.652344 4.941406 L 9.300781 4.6875 L 8.945312 4.941406 Z M 9.082031 10.804688 L 8.726562 10.546875 L 9.164062 10.546875 L 9.300781 10.132812 L 9.433594 10.546875 L 9.871094 10.546875 L 9.519531 10.804688 L 9.652344 11.222656 L 9.300781 10.964844 L 8.945312 11.222656 Z M 9.082031 10.804688 "/>
</g>
</svg>
