<?xml version="1.0" encoding="UTF-8"?>
<svg xmlns="http://www.w3.org/2000/svg" xmlns:xlink="http://www.w3.org/1999/xlink" width="15pt" height="15pt" viewBox="0 0 15 15" version="1.1">
<g id="surface1">
<path style=" stroke:none;fill-rule:nonzero;fill:rgb(0%,16.862745%,49.803922%);fill-opacity:1;" d="M 0 11.25 C 0 12.171875 0.746094 12.917969 1.667969 12.917969 L 13.332031 12.917969 C 14.253906 12.917969 15 12.171875 15 11.25 L 15 10.417969 L 0 10.417969 Z M 0 11.25 "/>
<path style=" stroke:none;fill-rule:nonzero;fill:rgb(97.647059%,90.980392%,7.843137%);fill-opacity:1;" d="M 0 8.75 L 15 8.75 L 15 10.417969 L 0 10.417969 Z M 0 8.75 "/>
<path style=" stroke:none;fill-rule:nonzero;fill:rgb(0%,16.862745%,49.803922%);fill-opacity:1;" d="M 13.332031 2.082031 L 1.667969 2.082031 C 0.746094 2.082031 0 2.828125 0 3.75 L 0 8.75 L 15 8.75 L 15 3.75 C 15 2.828125 14.253906 2.082031 13.332031 2.082031 Z M 1.667969 4.066406 L 1.175781 4.425781 L 1.363281 3.847656 L 0.875 3.492188 L 1.480469 3.492188 L 1.667969 2.917969 L 1.855469 3.492188 L 2.460938 3.492188 L 1.96875 3.847656 L 2.15625 4.425781 Z M 3.984375 6.316406 L 3.332031 5.839844 L 2.679688 6.316406 L 2.929688 5.546875 L 2.277344 5.074219 L 3.085938 5.074219 L 3.332031 4.304688 L 3.582031 5.074219 L 4.390625 5.074219 L 3.738281 5.546875 Z M 3.984375 6.316406 "/>
<path style=" stroke:none;fill-rule:nonzero;fill:rgb(100%,100%,100%);fill-opacity:1;" d="M 3.582031 5.074219 L 3.332031 4.304688 L 3.082031 5.074219 L 2.277344 5.074219 L 2.929688 5.546875 L 2.679688 6.316406 L 3.332031 5.839844 L 3.984375 6.316406 L 3.738281 5.546875 L 4.390625 5.074219 Z M 2.460938 3.492188 L 1.855469 3.492188 L 1.667969 2.917969 L 1.480469 3.492188 L 0.875 3.492188 L 1.363281 3.847656 L 1.175781 4.425781 L 1.667969 4.066406 L 2.15625 4.425781 L 1.96875 3.847656 Z M 2.460938 3.492188 "/>
</g>
</svg>
