<?xml version="1.0" encoding="UTF-8"?>
<svg xmlns="http://www.w3.org/2000/svg" xmlns:xlink="http://www.w3.org/1999/xlink" width="15pt" height="15pt" viewBox="0 0 15 15" version="1.1">
<g id="surface1">
<path style=" stroke:none;fill-rule:nonzero;fill:rgb(0%,16.470588%,56.078431%);fill-opacity:1;" d="M 13.332031 2.082031 L 1.667969 2.082031 C 0.746094 2.082031 0 2.828125 0 3.75 L 0 11.25 C 0 12.171875 0.746094 12.917969 1.667969 12.917969 L 13.332031 12.917969 C 14.253906 12.917969 15 12.171875 15 11.25 L 15 3.75 C 15 2.828125 14.253906 2.082031 13.332031 2.082031 Z M 13.332031 2.082031 "/>
<path style=" stroke:none;fill-rule:nonzero;fill:rgb(93.333333%,93.333333%,93.333333%);fill-opacity:1;" d="M 5.769531 6.25 L 15 6.25 L 15 4.167969 L 2.882812 4.167969 Z M 2.882812 10.832031 L 15 10.832031 L 15 8.75 L 5.769531 8.75 Z M 2.882812 10.832031 "/>
<path style=" stroke:none;fill-rule:nonzero;fill:rgb(81.176471%,7.843137%,16.862745%);fill-opacity:1;" d="M 5.769531 6.25 L 2.882812 4.167969 L 0.574219 2.5 C 0.226562 2.804688 0 3.25 0 3.75 L 0 11.25 C 0 11.75 0.226562 12.195312 0.574219 12.5 L 2.882812 10.832031 L 5.769531 8.75 L 7.5 7.5 Z M 5.769531 6.25 "/>
<path style=" stroke:none;fill-rule:nonzero;fill:rgb(100%,100%,100%);fill-opacity:1;" d="M 3.121094 7.75 L 3.957031 7.144531 L 2.925781 7.144531 L 2.605469 6.160156 L 2.285156 7.144531 L 1.25 7.144531 L 2.085938 7.75 L 1.765625 8.734375 L 2.605469 8.125 L 3.445312 8.734375 Z M 3.121094 7.75 "/>
</g>
</svg>
