<?xml version="1.0" encoding="UTF-8"?>
<svg xmlns="http://www.w3.org/2000/svg" xmlns:xlink="http://www.w3.org/1999/xlink" width="15pt" height="15pt" viewBox="0 0 15 15" version="1.1">
<g id="surface1">
<path style=" stroke:none;fill-rule:nonzero;fill:rgb(0%,61.960784%,28.627451%);fill-opacity:1;" d="M 13.332031 2.082031 L 1.667969 2.082031 C 0.746094 2.082031 0 2.828125 0 3.75 L 0 11.25 C 0 12.171875 0.746094 12.917969 1.667969 12.917969 L 13.332031 12.917969 C 14.253906 12.917969 15 12.171875 15 11.25 L 15 3.75 C 15 2.828125 14.253906 2.082031 13.332031 2.082031 Z M 13.332031 2.082031 "/>
<path style=" stroke:none;fill-rule:nonzero;fill:rgb(100%,100%,100%);fill-opacity:1;" d="M 0.753906 2.355469 C 0.6875 2.398438 0.628906 2.445312 0.570312 2.496094 L 0.570312 12.503906 C 0.628906 12.554688 0.6875 12.601562 0.753906 12.644531 L 15 7.5 Z M 0.753906 2.355469 "/>
<path style=" stroke:none;fill-rule:nonzero;fill:rgb(98.823529%,81.960784%,8.627451%);fill-opacity:1;" d="M 1.320312 11.964844 L 13.542969 7.5 L 1.320312 3.035156 Z M 1.320312 11.964844 "/>
<path style=" stroke:none;fill-rule:nonzero;fill:rgb(7.843137%,7.843137%,7.843137%);fill-opacity:1;" d="M 7.5 7.5 L 1.320312 3.035156 L 0.570312 2.496094 C 0.441406 2.609375 0.328125 2.742188 0.242188 2.886719 L 0.246094 12.105469 C 0.335938 12.253906 0.441406 12.390625 0.570312 12.503906 L 1.320312 11.964844 Z M 7.5 7.5 "/>
<path style=" stroke:none;fill-rule:nonzero;fill:rgb(80.784314%,6.666667%,14.901961%);fill-opacity:1;" d="M 0.242188 2.886719 L 0.238281 2.886719 C 0.0859375 3.140625 0 3.433594 0 3.75 L 0 11.25 C 0 11.566406 0.09375 11.855469 0.246094 12.105469 L 6.667969 7.5 Z M 0.242188 2.886719 "/>
</g>
</svg>
