<?xml version="1.0" encoding="UTF-8"?>
<svg xmlns="http://www.w3.org/2000/svg" xmlns:xlink="http://www.w3.org/1999/xlink" width="15pt" height="15pt" viewBox="0 0 15 15" version="1.1">
<g id="surface1">
<path style=" stroke:none;fill-rule:nonzero;fill:rgb(81.176471%,10.588235%,16.862745%);fill-opacity:1;" d="M 15 11.25 C 15 12.171875 14.253906 12.917969 13.332031 12.917969 L 1.667969 12.917969 C 0.746094 12.917969 0 12.171875 0 11.25 L 0 3.75 C 0 2.828125 0.746094 2.082031 1.667969 2.082031 L 13.332031 2.082031 C 14.253906 2.082031 15 2.828125 15 3.75 Z M 15 11.25 "/>
<path style=" stroke:none;fill-rule:nonzero;fill:rgb(97.254902%,86.27451%,8.235294%);fill-opacity:1;" d="M 7.925781 6.90625 C 7.925781 7.222656 7.667969 7.484375 7.347656 7.484375 C 7.03125 7.484375 6.773438 7.222656 6.773438 6.90625 C 6.773438 6.589844 7.03125 6.328125 7.347656 6.328125 C 7.667969 6.328125 7.925781 6.589844 7.925781 6.90625 Z M 7.925781 6.90625 "/>
<path style=" stroke:none;fill-rule:nonzero;fill:rgb(97.254902%,86.27451%,8.235294%);fill-opacity:1;" d="M 7.925781 7.214844 C 7.925781 7.535156 7.667969 7.792969 7.347656 7.792969 C 7.03125 7.792969 6.773438 7.535156 6.773438 7.214844 C 6.773438 6.898438 7.03125 6.640625 7.347656 6.640625 C 7.667969 6.640625 7.925781 6.898438 7.925781 7.214844 Z M 7.925781 7.214844 "/>
<path style=" stroke:none;fill-rule:nonzero;fill:rgb(100%,100%,100%);fill-opacity:1;" d="M 4.109375 5.046875 C 4.277344 4.960938 4.660156 5.6875 4.964844 5.671875 C 5.269531 5.652344 6.054688 5.070312 6.484375 5.03125 C 6.484375 5.03125 6.484375 4.847656 6.84375 4.847656 C 7.199219 4.847656 7.253906 5.027344 7.289062 5.261719 C 7.289062 5.261719 7.574219 5.707031 7.699219 6.046875 C 7.824219 6.386719 7.824219 6.617188 7.824219 6.617188 C 7.824219 6.617188 7.558594 6.886719 7.394531 6.902344 C 7.234375 6.921875 6.789062 6.761719 6.789062 6.761719 C 6.789062 6.761719 6.699219 6.082031 6.664062 5.878906 L 6.539062 5.742188 C 6.539062 5.742188 6.359375 5.9375 6.039062 5.992188 C 5.714844 6.046875 5.214844 6.027344 5.035156 6.0625 C 4.859375 6.101562 4.875 6.332031 4.714844 6.316406 C 4.554688 6.296875 4.679688 5.9375 4.394531 5.742188 C 4.109375 5.546875 3.894531 5.152344 4.109375 5.046875 Z M 7.257812 10.914062 C 7.101562 10.808594 7.539062 10.109375 7.371094 9.855469 C 7.203125 9.601562 6.308594 9.210938 6.058594 8.859375 C 6.058594 8.859375 5.898438 8.953125 5.722656 8.640625 C 5.542969 8.332031 5.671875 8.195312 5.855469 8.050781 C 5.855469 8.050781 6.097656 7.578125 6.328125 7.300781 C 6.5625 7.023438 6.761719 6.90625 6.761719 6.90625 C 6.761719 6.90625 7.128906 7.003906 7.222656 7.132812 C 7.320312 7.265625 7.402344 7.734375 7.402344 7.734375 C 7.402344 7.734375 6.863281 8.148438 6.703125 8.28125 L 6.648438 8.457031 C 6.648438 8.457031 6.90625 8.515625 7.113281 8.765625 C 7.320312 9.019531 7.554688 9.460938 7.675781 9.597656 C 7.796875 9.734375 7.988281 9.601562 8.054688 9.75 C 8.117188 9.898438 7.746094 9.96875 7.71875 10.316406 C 7.691406 10.660156 7.457031 11.042969 7.257812 10.914062 Z M 10.746094 5.277344 C 10.734375 5.464844 9.910156 5.433594 9.773438 5.707031 C 9.636719 5.980469 9.746094 6.949219 9.566406 7.34375 C 9.566406 7.34375 9.726562 7.433594 9.546875 7.742188 C 9.367188 8.050781 9.1875 8.007812 8.96875 7.925781 C 8.96875 7.925781 8.4375 7.949219 8.082031 7.886719 C 7.722656 7.828125 7.523438 7.710938 7.523438 7.710938 C 7.523438 7.710938 7.425781 7.34375 7.488281 7.195312 C 7.554688 7.046875 7.917969 6.742188 7.917969 6.742188 C 7.917969 6.742188 8.550781 7.003906 8.746094 7.074219 L 8.925781 7.035156 C 8.925781 7.035156 8.84375 6.78125 8.960938 6.476562 C 9.074219 6.167969 9.339844 5.746094 9.398438 5.574219 C 9.457031 5.398438 9.246094 5.300781 9.339844 5.167969 C 9.4375 5.039062 9.683594 5.324219 9.996094 5.175781 C 10.3125 5.027344 10.757812 5.039062 10.746094 5.277344 Z M 10.746094 5.277344 "/>
<path style=" stroke:none;fill-rule:nonzero;fill:rgb(97.254902%,86.27451%,8.235294%);fill-opacity:1;" d="M 4.84375 6.203125 L 5 6.339844 L 5.203125 6.289062 L 5.121094 6.480469 L 5.230469 6.65625 L 5.027344 6.636719 L 4.894531 6.796875 L 4.847656 6.59375 L 4.652344 6.519531 L 4.832031 6.410156 Z M 7.894531 9.695312 L 7.933594 9.488281 L 7.789062 9.339844 L 7.996094 9.316406 L 8.089844 9.132812 L 8.175781 9.320312 L 8.382812 9.355469 L 8.230469 9.496094 L 8.261719 9.703125 L 8.078125 9.601562 Z M 9.371094 5.335938 L 9.175781 5.402344 L 9.121094 5.601562 L 8.996094 5.4375 L 8.789062 5.445312 L 8.90625 5.277344 L 8.835938 5.082031 L 9.035156 5.144531 L 9.195312 5.015625 L 9.199219 5.222656 Z M 9.371094 5.335938 "/>
</g>
</svg>
