<?xml version="1.0" encoding="UTF-8"?>
<svg xmlns="http://www.w3.org/2000/svg" xmlns:xlink="http://www.w3.org/1999/xlink" width="15pt" height="15pt" viewBox="0 0 15 15" version="1.1">
<g id="surface1">
<path style=" stroke:none;fill-rule:nonzero;fill:rgb(93.333333%,93.333333%,93.333333%);fill-opacity:1;" d="M 0 5.832031 L 15 5.832031 L 15 9.167969 L 0 9.167969 Z M 0 5.832031 "/>
<path style=" stroke:none;fill-rule:nonzero;fill:rgb(0.392157%,33.72549%,63.921569%);fill-opacity:1;" d="M 13.332031 2.082031 L 1.667969 2.082031 C 0.746094 2.082031 0 2.828125 0 3.75 L 0 5.832031 L 15 5.832031 L 15 3.75 C 15 2.828125 14.253906 2.082031 13.332031 2.082031 Z M 0 11.25 C 0 12.171875 0.746094 12.917969 1.667969 12.917969 L 13.332031 12.917969 C 14.253906 12.917969 15 12.171875 15 11.25 L 15 9.167969 L 0 9.167969 Z M 0 11.25 "/>
<path style=" stroke:none;fill-rule:nonzero;fill:rgb(14.901961%,34.117647%,65.490196%);fill-opacity:1;" d="M 7.609375 7.398438 L 7.507812 7.082031 L 7.402344 7.398438 L 7.066406 7.398438 L 7.339844 7.597656 L 7.234375 7.917969 L 7.507812 7.71875 L 7.777344 7.917969 L 7.675781 7.597656 L 7.945312 7.398438 Z M 9.832031 8.433594 L 9.726562 8.753906 L 10 8.554688 L 10.273438 8.753906 L 10.167969 8.433594 L 10.441406 8.234375 L 10.105469 8.234375 L 10 7.917969 L 9.894531 8.234375 L 9.558594 8.234375 Z M 10.105469 6.566406 L 10 6.246094 L 9.894531 6.566406 L 9.558594 6.566406 L 9.832031 6.765625 L 9.726562 7.082031 L 10 6.886719 L 10.273438 7.082031 L 10.167969 6.765625 L 10.441406 6.566406 Z M 4.808594 8.433594 L 4.707031 8.753906 L 4.976562 8.554688 L 5.25 8.753906 L 5.144531 8.433594 L 5.417969 8.234375 L 5.082031 8.234375 L 4.976562 7.917969 L 4.875 8.234375 L 4.539062 8.234375 Z M 5.082031 6.566406 L 4.976562 6.246094 L 4.875 6.566406 L 4.539062 6.566406 L 4.808594 6.765625 L 4.707031 7.082031 L 4.976562 6.886719 L 5.25 7.082031 L 5.144531 6.765625 L 5.417969 6.566406 Z M 5.082031 6.566406 "/>
</g>
</svg>
