<?xml version="1.0" encoding="UTF-8"?>
<svg xmlns="http://www.w3.org/2000/svg" xmlns:xlink="http://www.w3.org/1999/xlink" width="15pt" height="15pt" viewBox="0 0 15 15" version="1.1">
<g id="surface1">
<path style=" stroke:none;fill-rule:nonzero;fill:rgb(0%,41.568627%,30.196078%);fill-opacity:1;" d="M 15 11.25 C 15 12.171875 14.253906 12.917969 13.332031 12.917969 L 1.667969 12.917969 C 0.746094 12.917969 0 12.171875 0 11.25 L 0 3.75 C 0 2.828125 0.746094 2.082031 1.667969 2.082031 L 13.332031 2.082031 C 14.253906 2.082031 15 2.828125 15 3.75 Z M 15 11.25 "/>
<path style=" stroke:none;fill-rule:nonzero;fill:rgb(95.686275%,16.470588%,25.490196%);fill-opacity:1;" d="M 9.582031 7.292969 C 9.582031 8.902344 8.277344 10.207031 6.667969 10.207031 C 5.054688 10.207031 3.75 8.902344 3.75 7.292969 C 3.75 5.679688 5.054688 4.375 6.667969 4.375 C 8.277344 4.375 9.582031 5.679688 9.582031 7.292969 Z M 9.582031 7.292969 "/>
</g>
</svg>
