<?xml version="1.0" encoding="UTF-8"?>
<svg xmlns="http://www.w3.org/2000/svg" xmlns:xlink="http://www.w3.org/1999/xlink" width="15pt" height="15pt" viewBox="0 0 15 15" version="1.1">
<g id="surface1">
<path style=" stroke:none;fill-rule:nonzero;fill:rgb(0%,14.117647%,49.019608%);fill-opacity:1;" d="M 13.332031 2.082031 L 1.667969 2.082031 C 1.582031 2.082031 1.496094 2.089844 1.414062 2.101562 L 1.414062 2.832031 L 0.277344 2.832031 C 0.101562 3.09375 0 3.410156 0 3.75 L 0 11.25 C 0 12.171875 0.746094 12.917969 1.667969 12.917969 L 13.332031 12.917969 C 14.253906 12.917969 15 12.171875 15 11.25 L 15 3.75 C 15 2.828125 14.253906 2.082031 13.332031 2.082031 Z M 13.332031 2.082031 "/>
<path style=" stroke:none;fill-rule:nonzero;fill:rgb(100%,100%,100%);fill-opacity:1;" d="M 3.75 10.84375 L 3.242188 11.3125 L 3.292969 10.621094 L 2.605469 10.515625 L 3.179688 10.125 L 2.832031 9.523438 L 3.496094 9.726562 L 3.75 9.082031 L 4.003906 9.726562 L 4.667969 9.523438 L 4.320312 10.125 L 4.894531 10.515625 L 4.210938 10.621094 L 4.257812 11.3125 Z M 11.644531 3.984375 L 11.3125 4.292969 L 11.347656 3.839844 L 10.898438 3.769531 L 11.273438 3.515625 L 11.046875 3.121094 L 11.480469 3.253906 L 11.644531 2.832031 L 11.8125 3.253906 L 12.246094 3.121094 L 12.019531 3.515625 L 12.394531 3.769531 L 11.945312 3.839844 L 11.980469 4.292969 Z M 9.980469 6.484375 L 9.644531 6.792969 L 9.679688 6.339844 L 9.230469 6.269531 L 9.605469 6.015625 L 9.378906 5.621094 L 9.8125 5.753906 L 9.980469 5.332031 L 10.144531 5.753906 L 10.578125 5.621094 L 10.355469 6.015625 L 10.726562 6.269531 L 10.28125 6.339844 L 10.3125 6.792969 Z M 13.730469 5.652344 L 13.394531 5.957031 L 13.429688 5.507812 L 12.980469 5.4375 L 13.355469 5.179688 L 13.128906 4.789062 L 13.5625 4.921875 L 13.730469 4.5 L 13.894531 4.921875 L 14.328125 4.789062 L 14.105469 5.179688 L 14.476562 5.4375 L 14.03125 5.507812 L 14.0625 5.957031 Z M 11.644531 11.484375 L 11.3125 11.792969 L 11.347656 11.339844 L 10.898438 11.269531 L 11.273438 11.015625 L 11.046875 10.621094 L 11.480469 10.753906 L 11.644531 10.332031 L 11.8125 10.753906 L 12.246094 10.621094 L 12.019531 11.015625 L 12.394531 11.269531 L 11.945312 11.339844 L 11.980469 11.792969 Z M 12.917969 6.667969 L 13.039062 6.914062 L 13.3125 6.953125 L 13.113281 7.148438 L 13.160156 7.421875 L 12.917969 7.292969 L 12.671875 7.421875 L 12.71875 7.148438 L 12.519531 6.953125 L 12.792969 6.914062 Z M 12.917969 6.667969 "/>
<path style=" stroke:none;fill-rule:nonzero;fill:rgb(0%,14.117647%,49.019608%);fill-opacity:1;" d="M 7.917969 7.5 L 7.917969 2.082031 L 1.667969 2.082031 C 1.535156 2.082031 1.414062 2.101562 1.414062 2.101562 L 1.414062 2.832031 L 0.277344 2.832031 C 0.277344 2.832031 0.257812 2.855469 0.222656 2.917969 C 0.0820312 3.160156 0 3.445312 0 3.75 L 0 7.5 Z M 7.917969 7.5 "/>
<path style=" stroke:none;fill-rule:nonzero;fill:rgb(93.333333%,93.333333%,93.333333%);fill-opacity:1;" d="M 7.917969 2.082031 L 6.945312 2.082031 L 5 3.445312 L 5 2.082031 L 2.917969 2.082031 L 2.917969 3.152344 L 1.414062 2.101562 C 1.160156 2.140625 0.917969 2.238281 0.71875 2.378906 L 2.675781 3.75 L 1.953125 3.75 L 0.402344 2.664062 C 0.355469 2.714844 0.316406 2.773438 0.277344 2.832031 L 1.589844 3.75 L 0 3.75 L 0 5.832031 L 1.617188 5.832031 L 0 6.984375 L 0 7.5 L 1.386719 7.5 L 2.917969 6.429688 L 2.917969 7.5 L 5 7.5 L 5 6.136719 L 6.945312 7.5 L 7.917969 7.5 L 7.917969 6.65625 L 6.742188 5.832031 L 7.917969 5.832031 L 7.917969 3.75 L 6.746094 3.75 L 7.917969 2.929688 Z M 7.917969 2.082031 "/>
<path style=" stroke:none;fill-rule:nonzero;fill:rgb(81.176471%,10.588235%,16.862745%);fill-opacity:1;" d="M 4.582031 2.082031 L 3.332031 2.082031 L 3.332031 4.167969 L 0 4.167969 L 0 5.417969 L 3.332031 5.417969 L 3.332031 7.5 L 4.582031 7.5 L 4.582031 5.417969 L 7.917969 5.417969 L 7.917969 4.167969 L 4.582031 4.167969 Z M 4.582031 2.082031 "/>
<path style=" stroke:none;fill-rule:nonzero;fill:rgb(81.176471%,10.588235%,16.862745%);fill-opacity:1;" d="M 7.917969 2.082031 L 7.308594 2.082031 L 5 3.699219 L 5 3.75 L 5.65625 3.75 L 7.917969 2.164062 Z M 0.71875 2.378906 C 0.601562 2.460938 0.496094 2.554688 0.402344 2.664062 L 1.953125 3.75 L 2.675781 3.75 Z M 2.683594 5.832031 L 0.304688 7.5 L 1.027344 7.5 L 2.917969 6.175781 L 2.917969 5.832031 Z M 7.917969 7.417969 L 7.917969 6.910156 L 6.378906 5.832031 L 5.652344 5.832031 Z M 7.917969 7.417969 "/>
</g>
</svg>
