<?xml version="1.0" encoding="UTF-8"?>
<svg xmlns="http://www.w3.org/2000/svg" xmlns:xlink="http://www.w3.org/1999/xlink" width="15pt" height="15pt" viewBox="0 0 15 15" version="1.1">
<g id="surface1">
<path style=" stroke:none;fill-rule:nonzero;fill:rgb(92.941176%,10.980392%,13.72549%);fill-opacity:1;" d="M 15 11.25 C 15 12.171875 14.253906 12.917969 13.332031 12.917969 L 1.667969 12.917969 C 0.746094 12.917969 0 12.171875 0 11.25 L 0 3.75 C 0 2.828125 0.746094 2.082031 1.667969 2.082031 L 13.332031 2.082031 C 14.253906 2.082031 15 2.828125 15 3.75 Z M 15 11.25 "/>
<path style=" stroke:none;fill-rule:nonzero;fill:rgb(1.176471%,30.588235%,63.529412%);fill-opacity:1;" d="M 0 7.082031 L 15 7.082031 L 15 10 L 0 10 Z M 0 7.082031 "/>
<path style=" stroke:none;fill-rule:nonzero;fill:rgb(100%,86.666667%,0%);fill-opacity:1;" d="M 15 7.082031 L 15 3.75 C 15 2.828125 14.253906 2.082031 13.332031 2.082031 L 1.667969 2.082031 C 0.746094 2.082031 0 2.828125 0 3.75 L 0 7.082031 Z M 15 7.082031 "/>
<path style=" stroke:none;fill-rule:nonzero;fill:rgb(100%,86.666667%,0%);fill-opacity:1;" d="M 9.582031 7.917969 C 9.582031 8.375 9.210938 8.75 8.75 8.75 L 6.25 8.75 C 5.789062 8.75 5.417969 8.375 5.417969 7.917969 L 5.417969 6.667969 C 5.417969 6.207031 5.789062 5.832031 6.25 5.832031 L 8.75 5.832031 C 9.210938 5.832031 9.582031 6.207031 9.582031 6.667969 Z M 9.582031 7.917969 "/>
<path style=" stroke:none;fill-rule:nonzero;fill:rgb(1.176471%,30.588235%,63.529412%);fill-opacity:1;" d="M 9.167969 7.5 C 9.167969 7.960938 8.792969 8.75 8.332031 8.75 L 6.667969 8.75 C 6.207031 8.75 5.832031 7.960938 5.832031 7.5 L 5.832031 7.082031 C 5.832031 6.625 6.207031 6.25 6.667969 6.25 L 8.332031 6.25 C 8.792969 6.25 9.167969 6.625 9.167969 7.082031 Z M 9.167969 7.5 "/>
<path style=" stroke:none;fill-rule:nonzero;fill:rgb(92.941176%,10.980392%,13.72549%);fill-opacity:1;" d="M 8.75 7.5 C 8.75 7.960938 8.375 8.75 7.917969 8.75 L 7.082031 8.75 C 6.625 8.75 6.25 7.960938 6.25 7.5 L 6.25 7.082031 C 6.25 6.625 6.625 6.25 7.082031 6.25 L 7.917969 6.25 C 8.375 6.25 8.75 6.625 8.75 7.082031 Z M 8.75 7.5 "/>
<path style=" stroke:none;fill-rule:nonzero;fill:rgb(42.745098%,74.509804%,27.45098%);fill-opacity:1;" d="M 8.320312 5.890625 C 8.265625 6.09375 7.921875 6.25 7.5 6.25 C 7.078125 6.25 6.734375 6.09375 6.679688 5.890625 C 6.175781 5.960938 6.25 6.09375 6.25 6.25 C 6.25 6.480469 6.578125 6.667969 7.5 6.667969 C 8.421875 6.667969 8.75 6.480469 8.75 6.25 C 8.75 6.09375 8.824219 5.960938 8.320312 5.890625 Z M 8.320312 5.890625 "/>
<path style=" stroke:none;fill-rule:nonzero;fill:rgb(65.098039%,82.745098%,53.333333%);fill-opacity:1;" d="M 7.917969 7.917969 C 7.917969 8.148438 7.730469 8.332031 7.5 8.332031 C 7.269531 8.332031 7.082031 8.148438 7.082031 7.917969 L 7.082031 6.667969 C 7.082031 6.4375 7.269531 6.25 7.5 6.25 C 7.730469 6.25 7.917969 6.4375 7.917969 6.667969 Z M 7.917969 7.917969 "/>
<path style=" stroke:none;fill-rule:nonzero;fill:rgb(40%,12.941176%,7.45098%);fill-opacity:1;" d="M 8.957031 5 C 9.140625 5 9.316406 5.023438 9.476562 5.058594 C 9.21875 4.609375 8.332031 4.167969 7.5 5 C 6.667969 4.167969 5.78125 4.609375 5.523438 5.058594 C 5.683594 5.023438 5.859375 5 6.042969 5 C 6.847656 5 7.5 5.375 7.5 5.832031 C 7.5 5.375 8.152344 5 8.957031 5 Z M 8.957031 5 "/>
<path style=" stroke:none;fill-rule:nonzero;fill:rgb(55.686275%,82.352941%,90.588235%);fill-opacity:1;" d="M 8.332031 7.292969 C 8.332031 6.484375 7.960938 5.832031 7.5 5.832031 C 7.039062 5.832031 6.667969 6.484375 6.667969 7.292969 C 6.667969 8.097656 7.039062 8.75 7.5 8.75 C 7.960938 8.75 8.332031 8.097656 8.332031 7.292969 Z M 8.332031 7.292969 "/>
<path style=" stroke:none;fill-rule:nonzero;fill:rgb(42.745098%,74.509804%,27.45098%);fill-opacity:1;" d="M 7.292969 7.082031 C 7.066406 7.082031 6.859375 7.136719 6.671875 7.226562 C 6.671875 7.25 6.667969 7.269531 6.667969 7.292969 C 6.667969 8.097656 7.039062 8.75 7.5 8.75 C 7.917969 8.75 8.261719 8.210938 8.320312 7.507812 C 8.058594 7.246094 7.691406 7.082031 7.292969 7.082031 Z M 7.292969 7.082031 "/>
<path style=" stroke:none;fill-rule:nonzero;fill:rgb(100%,80%,30.196078%);fill-opacity:1;" d="M 8.75 9.167969 C 8.75 8.9375 8.191406 8.75 7.5 8.75 C 6.808594 8.75 6.25 8.9375 6.25 9.167969 C 6.25 9.398438 6.808594 9.582031 7.5 9.582031 C 8.191406 9.582031 8.75 9.398438 8.75 9.167969 Z M 8.75 9.167969 "/>
<path style=" stroke:none;fill-rule:nonzero;fill:rgb(1.176471%,30.588235%,63.529412%);fill-opacity:1;" d="M 8.332031 9.582031 C 8.332031 9.929688 7.960938 10 7.5 10 C 7.039062 10 6.667969 9.929688 6.667969 9.582031 C 6.667969 9.238281 7.039062 8.75 7.5 8.75 C 7.960938 8.75 8.332031 9.238281 8.332031 9.582031 Z M 8.332031 9.582031 "/>
<path style=" stroke:none;fill-rule:nonzero;fill:rgb(92.941176%,10.980392%,13.72549%);fill-opacity:1;" d="M 7.082031 9.582031 C 7.082031 9.238281 7.269531 8.75 7.5 8.75 C 7.730469 8.75 7.917969 9.238281 7.917969 9.582031 C 7.917969 9.929688 7.730469 10 7.5 10 C 7.269531 10 7.082031 9.929688 7.082031 9.582031 Z M 7.082031 9.582031 "/>
<path style=" stroke:none;fill-rule:nonzero;fill:rgb(80%,83.921569%,86.666667%);fill-opacity:1;" d="M 7.082031 4.582031 C 7.082031 4.351562 7.269531 4.582031 7.5 4.582031 C 7.730469 4.582031 7.917969 4.351562 7.917969 4.582031 C 7.917969 4.8125 7.730469 5 7.5 5 C 7.269531 5 7.082031 4.8125 7.082031 4.582031 Z M 7.082031 4.582031 "/>
<path style=" stroke:none;fill-rule:nonzero;fill:rgb(100%,100%,100%);fill-opacity:1;" d="M 7.917969 7.292969 C 7.917969 7.175781 7.730469 7.082031 7.5 7.082031 C 7.269531 7.082031 7.082031 7.175781 7.082031 7.292969 C 7.082031 7.40625 7.269531 7.5 7.5 7.5 C 7.730469 7.5 7.917969 7.40625 7.917969 7.292969 Z M 7.917969 7.292969 "/>
<path style=" stroke:none;fill-rule:nonzero;fill:rgb(75.686275%,41.176471%,30.980392%);fill-opacity:1;" d="M 5.832031 6.457031 C 5.832031 6.34375 5.648438 6.25 5.417969 6.25 C 5.1875 6.25 5 6.34375 5 6.457031 C 5 6.574219 5.1875 6.667969 5.417969 6.667969 C 5.648438 6.667969 5.832031 6.574219 5.832031 6.457031 Z M 5.832031 6.457031 "/>
<path style=" stroke:none;fill-rule:nonzero;fill:rgb(75.686275%,41.176471%,30.980392%);fill-opacity:1;" d="M 6.25 5.625 C 6.25 5.511719 6.0625 5.417969 5.832031 5.417969 C 5.601562 5.417969 5.417969 5.511719 5.417969 5.625 C 5.417969 5.738281 5.601562 5.832031 5.832031 5.832031 C 6.0625 5.832031 6.25 5.738281 6.25 5.625 Z M 6.25 5.625 "/>
<path style=" stroke:none;fill-rule:nonzero;fill:rgb(75.686275%,41.176471%,30.980392%);fill-opacity:1;" d="M 10 6.457031 C 10 6.34375 9.8125 6.25 9.582031 6.25 C 9.351562 6.25 9.167969 6.34375 9.167969 6.457031 C 9.167969 6.574219 9.351562 6.667969 9.582031 6.667969 C 9.8125 6.667969 10 6.574219 10 6.457031 Z M 10 6.457031 "/>
<path style=" stroke:none;fill-rule:nonzero;fill:rgb(75.686275%,41.176471%,30.980392%);fill-opacity:1;" d="M 9.582031 5.625 C 9.582031 5.511719 9.398438 5.417969 9.167969 5.417969 C 8.9375 5.417969 8.75 5.511719 8.75 5.625 C 8.75 5.738281 8.9375 5.832031 9.167969 5.832031 C 9.398438 5.832031 9.582031 5.738281 9.582031 5.625 Z M 9.582031 5.625 "/>
</g>
</svg>
