<?xml version="1.0" encoding="UTF-8"?>
<svg xmlns="http://www.w3.org/2000/svg" xmlns:xlink="http://www.w3.org/1999/xlink" width="15pt" height="15pt" viewBox="0 0 15 15" version="1.1">
<g id="surface1">
<path style=" stroke:none;fill-rule:nonzero;fill:rgb(23.137255%,53.333333%,76.470588%);fill-opacity:1;" d="M 15 13.332031 C 15 14.253906 14.253906 15 13.332031 15 L 1.667969 15 C 0.746094 15 0 14.253906 0 13.332031 L 0 1.667969 C 0 0.746094 0.746094 0 1.667969 0 L 13.332031 0 C 14.253906 0 15 0.746094 15 1.667969 Z M 15 13.332031 "/>
<path style=" stroke:none;fill-rule:nonzero;fill:rgb(100%,100%,100%);fill-opacity:1;" d="M 10.625 2.917969 C 10.050781 2.917969 9.582031 3.382812 9.582031 3.957031 L 9.582031 6.25 L 5.417969 6.25 L 5.417969 3.957031 C 5.417969 3.382812 4.949219 2.917969 4.375 2.917969 C 3.800781 2.917969 3.332031 3.382812 3.332031 3.957031 L 3.332031 11.042969 C 3.332031 11.617188 3.800781 12.082031 4.375 12.082031 C 4.949219 12.082031 5.417969 11.617188 5.417969 11.042969 L 5.417969 8.332031 L 9.582031 8.332031 L 9.582031 11.042969 C 9.582031 11.617188 10.050781 12.082031 10.625 12.082031 C 11.199219 12.082031 11.667969 11.617188 11.667969 11.042969 L 11.667969 3.957031 C 11.667969 3.382812 11.199219 2.917969 10.625 2.917969 Z M 10.625 2.917969 "/>
</g>
</svg>
