<?xml version="1.0" encoding="UTF-8"?>
<svg xmlns="http://www.w3.org/2000/svg" xmlns:xlink="http://www.w3.org/1999/xlink" width="15pt" height="15pt" viewBox="0 0 15 15" version="1.1">
<g id="surface1">
<path style=" stroke:none;fill-rule:nonzero;fill:rgb(0%,14.117647%,53.333333%);fill-opacity:1;" d="M 15 11.25 C 15 12.171875 14.253906 12.917969 13.332031 12.917969 L 1.667969 12.917969 C 0.746094 12.917969 0 12.171875 0 11.25 L 0 3.75 C 0 2.828125 0.746094 2.082031 1.667969 2.082031 L 13.332031 2.082031 C 14.253906 2.082031 15 2.828125 15 3.75 Z M 15 11.25 "/>
<path style=" stroke:none;fill-rule:nonzero;fill:rgb(7.843137%,7.843137%,7.843137%);fill-opacity:1;" d="M 0 11.25 C 0 12.171875 0.746094 12.917969 1.667969 12.917969 L 13.332031 12.917969 C 14.253906 12.917969 15 12.171875 15 11.25 L 15 5.832031 L 0 5.832031 Z M 0 11.25 "/>
<path style=" stroke:none;fill-rule:nonzero;fill:rgb(0%,50.196078%,0%);fill-opacity:1;" d="M 12.082031 11.867188 C 12.082031 11.867188 8.585938 10.027344 6.890625 9.46875 C 5.199219 8.914062 4.75 9.347656 4.652344 9.558594 C 4.835938 9.0625 5.027344 8.941406 5.027344 8.941406 C 5.027344 8.941406 4.359375 9.113281 4.367188 9.53125 C 4.226562 9.15625 4.695312 8.699219 5.3125 8.6875 C 4.757812 8.609375 3.792969 8.699219 3.621094 9.246094 C 3.628906 8.679688 4.609375 8.523438 5.007812 8.539062 C 4.011719 8.226562 3.175781 8.238281 3.117188 8.652344 C 3.046875 8.472656 3.238281 8.320312 3.238281 8.320312 C 3.238281 8.320312 2.847656 8.289062 2.65625 8.460938 C 2.648438 8.304688 3.289062 8.152344 3.601562 8.183594 C 3.054688 7.96875 2.628906 7.933594 2.527344 8.179688 C 2.492188 7.890625 3.507812 7.8125 3.976562 7.917969 C 2.882812 7.515625 2.472656 7.359375 2.066406 7.785156 C 2.066406 7.492188 2.421875 7.378906 2.671875 7.40625 C 2.457031 7.179688 2.292969 7.03125 2.066406 7.023438 C 2.195312 6.96875 2.472656 7.074219 2.472656 7.074219 C 2.472656 7.074219 2.160156 6.746094 1.945312 6.640625 C 2.328125 6.703125 3.039062 7.4375 3.089844 7.5 C 3.140625 7.558594 3.445312 7.628906 3.445312 7.628906 C 3.445312 7.628906 2.457031 6.820312 2.421875 6.5625 C 2.828125 6.761719 3.628906 7.636719 3.628906 7.636719 C 3.628906 7.636719 3.828125 7.75 3.835938 7.664062 C 3.847656 7.578125 2.640625 6.789062 2.65625 6.335938 C 2.898438 6.675781 3.246094 7.054688 3.246094 7.054688 C 3.246094 7.054688 2.996094 6.726562 3.019531 6.421875 C 3.265625 6.855469 3.628906 7.386719 3.957031 7.566406 C 3.417969 7.035156 3.359375 6.726562 3.402344 6.613281 C 3.699219 7.152344 4.175781 7.691406 4.253906 7.722656 C 4.332031 7.757812 4.375 7.75 4.375 7.75 C 4.375 7.75 4.039062 7.394531 3.984375 7.167969 C 4.21875 7.332031 4.382812 7.714844 4.4375 7.734375 C 4.488281 7.75 4.550781 7.714844 4.550781 7.714844 C 4.550781 7.714844 4.046875 7.195312 4.046875 6.941406 C 4.289062 7.132812 4.609375 7.664062 4.652344 7.742188 C 4.695312 7.820312 4.894531 7.957031 4.921875 7.898438 C 4.949219 7.835938 4.203125 7.160156 4.417969 7.046875 C 4.765625 7.332031 4.964844 7.75 5 7.757812 C 5.035156 7.765625 5.191406 7.828125 5.164062 7.777344 C 5.140625 7.722656 4.675781 7.136719 4.792969 6.8125 C 4.816406 7.160156 5.175781 7.820312 5.789062 7.96875 C 6.40625 8.113281 8.238281 9.347656 9.460938 9.710938 C 10.6875 10.078125 12.890625 10.5625 12.890625 10.5625 L 12.820312 10.667969 C 12.820312 10.667969 9.582031 9.816406 9.582031 9.84375 C 9.582031 9.871094 9.679688 9.957031 9.679688 9.957031 C 9.679688 9.957031 12.785156 10.773438 12.777344 10.796875 C 12.769531 10.824219 12.707031 10.945312 12.707031 10.945312 L 9.558594 9.964844 L 9.460938 9.964844 C 9.460938 9.964844 12.605469 11.023438 12.605469 11.050781 C 12.605469 11.078125 12.542969 11.1875 12.542969 11.1875 L 9.296875 9.964844 L 9.402344 10.085938 C 9.402344 10.085938 12.5 11.265625 12.492188 11.300781 C 12.484375 11.335938 12.40625 11.421875 12.40625 11.421875 L 9.453125 10.214844 L 9.28125 10.171875 L 12.351562 11.5 L 12.257812 11.613281 L 9.402344 10.347656 L 9.304688 10.347656 L 12.195312 11.78125 Z M 12.082031 11.867188 "/>
<path style=" stroke:none;fill-rule:nonzero;fill:rgb(98.823529%,86.666667%,3.529412%);fill-opacity:1;" d="M 10.5625 10.144531 C 10.5625 10.144531 10.453125 9.777344 9.742188 9.761719 L 9.742188 9.757812 C 10.132812 9.371094 10.484375 9.40625 10.679688 9.484375 C 10.679688 9.484375 10.5 9.15625 9.820312 9.277344 C 10.121094 8.855469 10.460938 8.824219 10.660156 8.859375 C 10.660156 8.859375 10.410156 8.554688 9.734375 8.839844 C 9.738281 8.828125 9.746094 8.820312 9.75 8.8125 C 9.945312 8.296875 10.285156 8.1875 10.492188 8.175781 C 10.492188 8.175781 10.195312 7.949219 9.628906 8.335938 C 9.730469 7.835938 10.023438 7.664062 10.21875 7.617188 C 10.21875 7.617188 9.871094 7.445312 9.375 7.972656 C 9.375 7.964844 9.375 7.957031 9.375 7.953125 C 9.347656 7.402344 9.609375 7.164062 9.796875 7.074219 C 9.796875 7.074219 9.421875 6.980469 9.054688 7.59375 L 9.054688 7.589844 C 8.910156 7.058594 9.121094 6.769531 9.28125 6.640625 C 9.28125 6.640625 8.902344 6.632812 8.667969 7.296875 C 8.425781 6.816406 8.566406 6.492188 8.699219 6.335938 C 8.699219 6.335938 8.328125 6.40625 8.238281 7.101562 C 7.90625 6.683594 7.976562 6.339844 8.070312 6.15625 C 8.070312 6.15625 7.71875 6.300781 7.777344 7.003906 C 7.363281 6.660156 7.363281 6.308594 7.417969 6.109375 C 7.417969 6.109375 7.105469 6.324219 7.304688 7 C 6.828125 6.75 6.753906 6.40625 6.765625 6.199219 C 6.765625 6.199219 6.503906 6.476562 6.84375 7.101562 C 6.316406 6.957031 6.171875 6.632812 6.140625 6.429688 C 6.140625 6.429688 5.941406 6.75 6.398438 7.285156 C 5.867188 7.246094 5.660156 6.964844 5.589844 6.769531 C 5.589844 6.769531 5.457031 7.132812 6.027344 7.566406 C 6.027344 7.566406 6.023438 7.566406 6.019531 7.566406 C 5.476562 7.652344 5.210938 7.417969 5.101562 7.242188 C 5.101562 7.242188 5.050781 7.609375 5.664062 7.90625 C 5.183594 8.0625 4.890625 7.894531 4.753906 7.75 C 4.753906 7.75 4.777344 8.140625 5.488281 8.308594 C 5.476562 8.3125 5.46875 8.316406 5.460938 8.324219 C 5 8.621094 4.660156 8.511719 4.488281 8.394531 C 4.488281 8.394531 4.597656 8.765625 5.308594 8.777344 L 5.308594 8.78125 C 4.917969 9.167969 4.566406 9.132812 4.371094 9.058594 C 4.371094 9.058594 4.550781 9.382812 5.226562 9.261719 C 4.929688 9.683594 4.589844 9.71875 4.390625 9.683594 C 4.390625 9.683594 4.640625 9.984375 5.3125 9.699219 C 5.308594 9.710938 5.304688 9.71875 5.300781 9.726562 C 5.105469 10.238281 4.765625 10.351562 4.558594 10.363281 C 4.558594 10.363281 4.855469 10.589844 5.421875 10.203125 C 5.320312 10.703125 5.027344 10.875 4.832031 10.921875 C 4.832031 10.921875 5.179688 11.09375 5.675781 10.566406 C 5.675781 10.574219 5.675781 10.582031 5.675781 10.589844 C 5.703125 11.136719 5.441406 11.375 5.253906 11.464844 C 5.253906 11.464844 5.625 11.558594 5.996094 10.945312 L 5.996094 10.949219 C 6.140625 11.480469 5.933594 11.769531 5.769531 11.898438 C 5.769531 11.898438 6.148438 11.90625 6.382812 11.242188 C 6.621094 11.722656 6.484375 12.046875 6.351562 12.203125 C 6.351562 12.203125 6.722656 12.132812 6.8125 11.4375 C 7.144531 11.855469 7.074219 12.199219 6.980469 12.382812 C 6.980469 12.382812 7.328125 12.234375 7.273438 11.535156 C 7.6875 11.878906 7.6875 12.230469 7.632812 12.429688 C 7.632812 12.429688 7.945312 12.210938 7.746094 11.539062 C 8.222656 11.789062 8.296875 12.132812 8.285156 12.335938 C 8.285156 12.335938 8.546875 12.0625 8.207031 11.4375 C 8.734375 11.582031 8.878906 11.90625 8.910156 12.109375 C 8.910156 12.109375 9.109375 11.789062 8.65625 11.253906 C 9.1875 11.292969 9.390625 11.578125 9.460938 11.769531 C 9.460938 11.769531 9.59375 11.40625 9.023438 10.972656 L 9.03125 10.96875 C 9.574219 10.882812 9.839844 11.121094 9.949219 11.296875 C 9.949219 11.296875 10 10.929688 9.386719 10.628906 C 9.867188 10.472656 10.160156 10.644531 10.296875 10.789062 C 10.296875 10.789062 10.273438 10.398438 9.5625 10.230469 C 9.574219 10.222656 9.582031 10.21875 9.589844 10.214844 C 10.050781 9.917969 10.390625 10.027344 10.5625 10.144531 Z M 2.605469 4.757812 C 2.605469 4.757812 2.621094 4.140625 2.222656 3.8125 C 1.824219 3.480469 1.570312 3.835938 1.589844 4.035156 C 1.605469 4.234375 1.777344 4.496094 2.09375 4.59375 C 1.902344 4.210938 2.164062 4.203125 2.257812 4.253906 C 2.386719 4.324219 2.457031 4.515625 2.457031 4.757812 Z M 2.785156 2.613281 C 2.351562 2.839844 2.371094 3.507812 2.507812 3.84375 C 2.648438 4.183594 2.683594 4.757812 2.683594 4.757812 L 2.890625 4.757812 C 2.890625 4.757812 2.925781 4.183594 3.066406 3.84375 C 3.203125 3.507812 3.21875 2.839844 2.785156 2.613281 Z M 2.96875 4.757812 C 2.96875 4.757812 2.953125 4.140625 3.351562 3.8125 C 3.75 3.480469 4 3.835938 3.984375 4.035156 C 3.964844 4.234375 3.792969 4.496094 3.476562 4.59375 C 3.671875 4.210938 3.40625 4.203125 3.316406 4.253906 C 3.1875 4.324219 3.117188 4.515625 3.117188 4.757812 Z M 2.785156 4.835938 L 2.421875 4.867188 L 2.785156 4.894531 L 3.152344 4.867188 Z M 3.261719 5.285156 C 3.035156 5.164062 2.96875 4.972656 2.96875 4.972656 L 2.605469 4.972656 C 2.605469 4.972656 2.539062 5.164062 2.3125 5.285156 C 2.511719 5.320312 2.722656 5.214844 2.722656 5.214844 C 2.722656 5.214844 2.605469 5.5 2.785156 5.78125 C 2.96875 5.5 2.851562 5.214844 2.851562 5.214844 C 2.851562 5.214844 3.058594 5.320312 3.261719 5.285156 Z M 7.316406 4.757812 C 7.316406 4.757812 7.335938 4.140625 6.9375 3.8125 C 6.535156 3.480469 6.285156 3.835938 6.300781 4.035156 C 6.320312 4.234375 6.492188 4.496094 6.808594 4.59375 C 6.613281 4.210938 6.878906 4.203125 6.96875 4.253906 C 7.101562 4.324219 7.171875 4.515625 7.171875 4.757812 Z M 7.5 2.613281 C 7.066406 2.839844 7.082031 3.507812 7.222656 3.84375 C 7.359375 4.183594 7.394531 4.757812 7.394531 4.757812 L 7.605469 4.757812 C 7.605469 4.757812 7.640625 4.183594 7.777344 3.84375 C 7.917969 3.507812 7.933594 2.839844 7.5 2.613281 Z M 7.683594 4.757812 C 7.683594 4.757812 7.664062 4.140625 8.0625 3.8125 C 8.464844 3.480469 8.714844 3.835938 8.699219 4.035156 C 8.679688 4.234375 8.507812 4.496094 8.191406 4.59375 C 8.386719 4.210938 8.121094 4.203125 8.027344 4.253906 C 7.898438 4.324219 7.828125 4.515625 7.828125 4.757812 Z M 7.5 4.835938 L 7.132812 4.867188 L 7.5 4.894531 L 7.867188 4.867188 Z M 7.976562 5.285156 C 7.746094 5.164062 7.683594 4.972656 7.683594 4.972656 L 7.316406 4.972656 C 7.316406 4.972656 7.253906 5.164062 7.023438 5.285156 C 7.226562 5.320312 7.433594 5.214844 7.433594 5.214844 C 7.433594 5.214844 7.316406 5.5 7.5 5.78125 C 7.683594 5.5 7.566406 5.214844 7.566406 5.214844 C 7.566406 5.214844 7.773438 5.320312 7.976562 5.285156 Z M 12.0625 4.757812 C 12.0625 4.757812 12.082031 4.140625 11.683594 3.8125 C 11.28125 3.480469 11.03125 3.835938 11.046875 4.035156 C 11.066406 4.234375 11.238281 4.496094 11.554688 4.59375 C 11.359375 4.210938 11.625 4.203125 11.71875 4.253906 C 11.847656 4.324219 11.917969 4.515625 11.917969 4.757812 Z M 12.246094 2.613281 C 11.8125 2.839844 11.828125 3.507812 11.96875 3.84375 C 12.109375 4.183594 12.140625 4.757812 12.140625 4.757812 L 12.351562 4.757812 C 12.351562 4.757812 12.386719 4.183594 12.523438 3.84375 C 12.664062 3.507812 12.679688 2.839844 12.246094 2.613281 Z M 12.429688 4.757812 C 12.429688 4.757812 12.410156 4.140625 12.808594 3.8125 C 13.210938 3.480469 13.460938 3.835938 13.445312 4.035156 C 13.425781 4.234375 13.253906 4.496094 12.9375 4.59375 C 13.132812 4.210938 12.867188 4.203125 12.773438 4.253906 C 12.644531 4.324219 12.574219 4.515625 12.574219 4.757812 Z M 12.246094 4.835938 L 11.878906 4.867188 L 12.246094 4.894531 L 12.613281 4.867188 Z M 12.722656 5.285156 C 12.492188 5.164062 12.429688 4.972656 12.429688 4.972656 L 12.0625 4.972656 C 12.0625 4.972656 12 5.164062 11.769531 5.285156 C 11.972656 5.320312 12.179688 5.214844 12.179688 5.214844 C 12.179688 5.214844 12.0625 5.5 12.246094 5.78125 C 12.429688 5.5 12.3125 5.214844 12.3125 5.214844 C 12.3125 5.214844 12.519531 5.320312 12.722656 5.285156 Z M 12.722656 5.285156 "/>
</g>
</svg>
