<?xml version="1.0" encoding="UTF-8"?>
<svg xmlns="http://www.w3.org/2000/svg" xmlns:xlink="http://www.w3.org/1999/xlink" width="15pt" height="15pt" viewBox="0 0 15 15" version="1.1">
<g id="surface1">
<path style=" stroke:none;fill-rule:nonzero;fill:rgb(87.843137%,0%,20.392157%);fill-opacity:1;" d="M 0 5.417969 L 15 5.417969 L 15 9.582031 L 0 9.582031 Z M 0 5.417969 "/>
<path style=" stroke:none;fill-rule:nonzero;fill:rgb(0%,59.607843%,76.470588%);fill-opacity:1;" d="M 13.332031 2.082031 L 1.667969 2.082031 C 0.746094 2.082031 0 2.828125 0 3.75 L 0 5.417969 L 15 5.417969 L 15 3.75 C 15 2.828125 14.253906 2.082031 13.332031 2.082031 Z M 13.332031 2.082031 "/>
<path style=" stroke:none;fill-rule:nonzero;fill:rgb(100%,100%,100%);fill-opacity:1;" d="M 7.433594 8.890625 C 6.667969 8.890625 6.046875 8.265625 6.046875 7.5 C 6.046875 6.734375 6.667969 6.109375 7.433594 6.109375 C 7.84375 6.109375 8.210938 6.289062 8.464844 6.570312 C 8.167969 6.125 7.660156 5.832031 7.082031 5.832031 C 6.164062 5.832031 5.417969 6.578125 5.417969 7.5 C 5.417969 8.421875 6.164062 9.167969 7.082031 9.167969 C 7.660156 9.167969 8.167969 8.875 8.464844 8.429688 C 8.210938 8.710938 7.84375 8.890625 7.433594 8.890625 Z M 7.433594 8.890625 "/>
<path style=" stroke:none;fill-rule:nonzero;fill:rgb(100%,100%,100%);fill-opacity:1;" d="M 9.859375 7.5 L 9.363281 7.324219 L 9.589844 6.84375 L 9.113281 7.070312 L 8.933594 6.574219 L 8.757812 7.074219 L 8.757812 7.070312 L 8.28125 6.847656 L 8.507812 7.324219 L 8.007812 7.5 L 8.507812 7.675781 L 8.28125 8.15625 L 8.757812 7.929688 L 8.9375 8.425781 L 9.113281 7.925781 L 9.589844 8.152344 L 9.363281 7.675781 Z M 9.859375 7.5 "/>
<path style=" stroke:none;fill-rule:nonzero;fill:rgb(0%,68.235294%,39.607843%);fill-opacity:1;" d="M 1.667969 12.917969 L 13.332031 12.917969 C 14.253906 12.917969 15 12.171875 15 11.25 L 15 9.582031 L 0 9.582031 L 0 11.25 C 0 12.171875 0.746094 12.917969 1.667969 12.917969 Z M 1.667969 12.917969 "/>
</g>
</svg>
