<?xml version="1.0" encoding="UTF-8"?>
<svg xmlns="http://www.w3.org/2000/svg" xmlns:xlink="http://www.w3.org/1999/xlink" width="15pt" height="15pt" viewBox="0 0 15 15" version="1.1">
<g id="surface1">
<path style=" stroke:none;fill-rule:nonzero;fill:rgb(0%,38.431373%,20%);fill-opacity:1;" d="M 1.667969 2.082031 C 0.746094 2.082031 0 2.828125 0 3.75 L 0 11.25 C 0 12.171875 0.746094 12.917969 1.667969 12.917969 L 7.5 12.917969 L 7.5 2.082031 Z M 1.667969 2.082031 "/>
<path style=" stroke:none;fill-rule:nonzero;fill:rgb(93.333333%,93.333333%,93.333333%);fill-opacity:1;" d="M 13.332031 2.082031 L 7.5 2.082031 L 7.5 12.917969 L 13.332031 12.917969 C 14.253906 12.917969 15 12.171875 15 11.25 L 15 3.75 C 15 2.828125 14.253906 2.082031 13.332031 2.082031 Z M 13.332031 2.082031 "/>
<path style=" stroke:none;fill-rule:nonzero;fill:rgb(82.352941%,5.882353%,20.392157%);fill-opacity:1;" d="M 8.332031 10 C 6.953125 10 5.832031 8.882812 5.832031 7.5 C 5.832031 6.121094 6.953125 5 8.332031 5 C 8.878906 5 9.382812 5.175781 9.792969 5.472656 C 9.234375 4.839844 8.414062 4.4375 7.5 4.4375 C 5.808594 4.4375 4.4375 5.808594 4.4375 7.5 C 4.4375 9.191406 5.808594 10.5625 7.5 10.5625 C 8.414062 10.5625 9.234375 10.160156 9.792969 9.527344 C 9.382812 9.824219 8.878906 10 8.332031 10 Z M 8.332031 10 "/>
<path style=" stroke:none;fill-rule:nonzero;fill:rgb(82.352941%,5.882353%,20.392157%);fill-opacity:1;" d="M 10.542969 7.597656 L 9.527344 7.828125 L 9.433594 8.867188 L 8.898438 7.972656 L 7.878906 8.207031 L 8.566406 7.421875 L 8.03125 6.527344 L 8.988281 6.933594 L 9.675781 6.148438 L 9.582031 7.1875 Z M 10.542969 7.597656 "/>
</g>
</svg>
