<?xml version="1.0" encoding="UTF-8"?>
<svg xmlns="http://www.w3.org/2000/svg" xmlns:xlink="http://www.w3.org/1999/xlink" width="15pt" height="15pt" viewBox="0 0 15 15" version="1.1">
<g id="surface1">
<path style=" stroke:none;fill-rule:nonzero;fill:rgb(81.568627%,4.705882%,20%);fill-opacity:1;" d="M 0 11.25 C 0 12.171875 0.746094 12.917969 1.667969 12.917969 L 13.332031 12.917969 C 14.253906 12.917969 15 12.171875 15 11.25 L 15 7.5 L 0 7.5 Z M 0 11.25 "/>
<path style=" stroke:none;fill-rule:nonzero;fill:rgb(93.333333%,93.333333%,93.333333%);fill-opacity:1;" d="M 13.332031 2.082031 L 1.667969 2.082031 C 0.746094 2.082031 0 2.828125 0 3.75 L 0 7.5 L 15 7.5 L 15 3.75 C 15 2.828125 14.253906 2.082031 13.332031 2.082031 Z M 13.332031 2.082031 "/>
<path style=" stroke:none;fill-rule:nonzero;fill:rgb(93.333333%,93.333333%,93.333333%);fill-opacity:1;" d="M 8.957031 7.5 C 8.957031 9.339844 7.464844 10.832031 5.625 10.832031 C 3.785156 10.832031 2.292969 9.339844 2.292969 7.5 C 2.292969 5.660156 3.785156 4.167969 5.625 4.167969 C 7.464844 4.167969 8.957031 5.660156 8.957031 7.5 Z M 8.957031 7.5 "/>
<path style=" stroke:none;fill-rule:nonzero;fill:rgb(81.568627%,4.705882%,20%);fill-opacity:1;" d="M 5.625 4.167969 C 3.785156 4.167969 2.292969 5.660156 2.292969 7.5 L 8.957031 7.5 C 8.957031 5.660156 7.464844 4.167969 5.625 4.167969 Z M 5.625 4.167969 "/>
</g>
</svg>
