<?xml version="1.0" encoding="UTF-8"?>
<svg xmlns="http://www.w3.org/2000/svg" xmlns:xlink="http://www.w3.org/1999/xlink" width="15pt" height="15pt" viewBox="0 0 15 15" version="1.1">
<g id="surface1">
<path style=" stroke:none;fill-rule:nonzero;fill:rgb(0%,50.196078%,0%);fill-opacity:1;" d="M 15 11.25 C 15 12.171875 14.253906 12.917969 13.332031 12.917969 L 1.667969 12.917969 C 0.746094 12.917969 0 12.171875 0 11.25 L 0 3.75 C 0 2.828125 0.746094 2.082031 1.667969 2.082031 L 13.332031 2.082031 C 14.253906 2.082031 15 2.828125 15 3.75 Z M 15 11.25 "/>
<path style=" stroke:none;fill-rule:nonzero;fill:rgb(100%,87.843137%,0%);fill-opacity:1;" d="M 12.71875 8.191406 L 12.792969 8.433594 L 13.035156 8.433594 L 12.84375 8.585938 L 12.914062 8.820312 L 12.71875 8.671875 L 12.527344 8.8125 L 12.597656 8.585938 L 12.40625 8.433594 L 12.644531 8.433594 Z M 12.082031 5.480469 L 11.800781 5.742188 L 11.828125 5.359375 L 11.445312 5.300781 L 11.765625 5.082031 L 11.574219 4.75 L 11.941406 4.863281 L 12.082031 4.503906 L 12.222656 4.863281 L 12.59375 4.75 L 12.402344 5.082031 L 12.71875 5.300781 L 12.335938 5.359375 L 12.367188 5.742188 Z M 10.574219 7.695312 L 10.289062 7.957031 L 10.316406 7.574219 L 9.9375 7.515625 L 10.253906 7.296875 L 10.0625 6.964844 L 10.433594 7.078125 L 10.574219 6.71875 L 10.714844 7.078125 L 11.082031 6.964844 L 10.890625 7.296875 L 11.207031 7.515625 L 10.828125 7.574219 L 10.855469 7.957031 Z M 13.535156 7.511719 L 13.253906 7.773438 L 13.28125 7.390625 L 12.898438 7.332031 L 13.21875 7.113281 L 13.027344 6.78125 L 13.394531 6.894531 L 13.535156 6.535156 L 13.675781 6.894531 L 14.046875 6.78125 L 13.851562 7.113281 L 14.171875 7.332031 L 13.789062 7.390625 L 13.816406 7.773438 Z M 12.058594 10.738281 L 11.773438 11 L 11.804688 10.617188 L 11.421875 10.558594 L 11.738281 10.339844 L 11.546875 10.003906 L 11.917969 10.117188 L 12.058594 9.761719 L 12.199219 10.117188 L 12.566406 10.003906 L 12.375 10.339844 L 12.691406 10.558594 L 12.3125 10.617188 L 12.339844 11 Z M 8.484375 9.140625 C 7.578125 9.140625 6.84375 8.40625 6.84375 7.5 C 6.84375 6.59375 7.578125 5.859375 8.484375 5.859375 C 8.832031 5.859375 9.148438 5.964844 9.414062 6.148438 C 9.035156 5.714844 8.484375 5.441406 7.863281 5.441406 C 6.722656 5.441406 5.800781 6.363281 5.800781 7.5 C 5.800781 8.636719 6.722656 9.558594 7.863281 9.558594 C 8.480469 9.558594 9.035156 9.285156 9.414062 8.851562 C 9.152344 9.035156 8.832031 9.140625 8.484375 9.140625 Z M 4.988281 5 C 4.988281 6.171875 4.039062 7.121094 2.871094 7.121094 C 1.699219 7.121094 0.75 6.171875 0.75 5 C 0.75 3.828125 1.699219 2.878906 2.871094 2.878906 C 4.039062 2.878906 4.988281 3.828125 4.988281 5 Z M 4.988281 5 "/>
<path style=" stroke:none;fill-rule:nonzero;fill:rgb(50.196078%,12.54902%,0%);fill-opacity:1;" d="M 2.976562 6.667969 L 2.503906 6.667969 C 2.503906 6.667969 2.660156 6.519531 2.742188 6.386719 C 2.820312 6.253906 3.144531 5.550781 3.109375 4.90625 C 3.074219 4.261719 3.183594 4.371094 3.21875 4.753906 C 3.257812 5.136719 3.21875 5.925781 3.152344 6.152344 C 3.085938 6.382812 3.015625 6.527344 3.109375 6.558594 C 3.207031 6.589844 3.234375 6.667969 3.234375 6.667969 Z M 2.976562 6.667969 "/>
<path style=" stroke:none;fill-rule:nonzero;fill:rgb(0%,50.196078%,0%);fill-opacity:1;" d="M 2.15625 3.714844 L 2.445312 3.714844 L 3.035156 4.277344 L 2.835938 3.914062 L 3.019531 3.804688 L 3.074219 3.355469 L 3.566406 3.308594 L 3.5 3.5625 L 3.757812 3.695312 L 3.472656 4.113281 L 4.097656 4.054688 L 3.980469 4.425781 L 4.320312 4.425781 L 4.460938 4.890625 L 3.632812 4.824219 L 4.046875 5.132812 L 4.046875 5.605469 L 3.175781 4.785156 L 3.101562 5.132812 L 3.050781 5.480469 L 2.859375 5.539062 L 2.8125 5.273438 L 2.613281 5.605469 L 2.347656 5.605469 L 2.609375 4.671875 L 1.277344 4.921875 L 1.632812 4.492188 L 2.335938 4.351562 L 1.714844 4.027344 L 2.628906 4.1875 L 1.683594 3.714844 Z M 2.15625 3.714844 "/>
</g>
</svg>
