<?xml version="1.0" encoding="UTF-8"?>
<svg xmlns="http://www.w3.org/2000/svg" xmlns:xlink="http://www.w3.org/1999/xlink" width="15pt" height="15pt" viewBox="0 0 15 15" version="1.1">
<g id="surface1">
<path style=" stroke:none;fill-rule:nonzero;fill:rgb(77.647059%,3.921569%,11.372549%);fill-opacity:1;" d="M 15 11.25 C 15 12.171875 14.253906 12.917969 13.332031 12.917969 L 1.667969 12.917969 C 0.746094 12.917969 0 12.171875 0 11.25 L 0 3.75 C 0 2.828125 0.746094 2.082031 1.667969 2.082031 L 13.332031 2.082031 C 14.253906 2.082031 15 2.828125 15 3.75 Z M 15 11.25 "/>
<path style=" stroke:none;fill-rule:nonzero;fill:rgb(100%,76.862745%,0%);fill-opacity:1;" d="M 0 5 L 15 5 L 15 10 L 0 10 Z M 0 5 "/>
<path style=" stroke:none;fill-rule:nonzero;fill:rgb(91.764706%,34.901961%,43.137255%);fill-opacity:1;" d="M 3.75 7.082031 L 3.75 8.332031 C 3.75 9.023438 4.308594 9.582031 5 9.582031 C 5.691406 9.582031 6.25 9.023438 6.25 8.332031 L 6.25 7.082031 Z M 3.75 7.082031 "/>
<path style=" stroke:none;fill-rule:nonzero;fill:rgb(95.686275%,63.529412%,69.803922%);fill-opacity:1;" d="M 5 6.667969 L 6.25 6.667969 L 6.25 7.917969 L 5 7.917969 Z M 5 6.667969 "/>
<path style=" stroke:none;fill-rule:nonzero;fill:rgb(86.666667%,18.039216%,26.666667%);fill-opacity:1;" d="M 3.75 6.667969 L 5 6.667969 L 5 7.917969 L 3.75 7.917969 Z M 3.75 6.667969 "/>
<path style=" stroke:none;fill-rule:nonzero;fill:rgb(91.764706%,34.901961%,43.137255%);fill-opacity:1;" d="M 6.25 6.042969 C 6.25 5.695312 5.691406 5.417969 5 5.417969 C 4.308594 5.417969 3.75 5.695312 3.75 6.042969 C 3.75 6.386719 4.308594 6.667969 5 6.667969 C 5.691406 6.667969 6.25 6.386719 6.25 6.042969 Z M 6.25 6.042969 "/>
<path style=" stroke:none;fill-rule:nonzero;fill:rgb(100%,67.45098%,20%);fill-opacity:1;" d="M 6.25 5.730469 C 6.25 5.554688 5.691406 5.417969 5 5.417969 C 4.308594 5.417969 3.75 5.554688 3.75 5.730469 C 3.75 5.902344 4.308594 6.042969 5 6.042969 C 5.691406 6.042969 6.25 5.902344 6.25 5.730469 Z M 6.25 5.730469 "/>
<path style=" stroke:none;fill-rule:nonzero;fill:rgb(60%,66.666667%,70.980392%);fill-opacity:1;" d="M 2.917969 6.667969 L 3.332031 6.667969 L 3.332031 9.582031 L 2.917969 9.582031 Z M 6.667969 6.667969 L 7.082031 6.667969 L 7.082031 9.582031 L 6.667969 9.582031 Z M 6.667969 6.667969 "/>
<path style=" stroke:none;fill-rule:nonzero;fill:rgb(40%,45.882353%,49.803922%);fill-opacity:1;" d="M 2.5 9.167969 L 3.75 9.167969 L 3.75 9.582031 L 2.5 9.582031 Z M 6.25 9.167969 L 7.5 9.167969 L 7.5 9.582031 L 6.25 9.582031 Z M 2.917969 6.25 L 3.332031 6.25 L 3.332031 6.667969 L 2.917969 6.667969 Z M 6.667969 6.25 L 7.082031 6.25 L 7.082031 6.667969 L 6.667969 6.667969 Z M 6.667969 6.25 "/>
</g>
</svg>
