<?xml version="1.0" encoding="UTF-8"?>
<svg xmlns="http://www.w3.org/2000/svg" xmlns:xlink="http://www.w3.org/1999/xlink" width="15pt" height="15pt" viewBox="0 0 15 15" version="1.1">
<g id="surface1">
<path style=" stroke:none;fill-rule:nonzero;fill:rgb(7.45098%,53.333333%,3.137255%);fill-opacity:1;" d="M 0 11.25 C 0 12.171875 0.746094 12.917969 1.667969 12.917969 L 13.332031 12.917969 C 14.253906 12.917969 15 12.171875 15 11.25 L 15 9.582031 L 0 9.582031 Z M 0 11.25 "/>
<path style=" stroke:none;fill-rule:nonzero;fill:rgb(93.333333%,93.333333%,93.333333%);fill-opacity:1;" d="M 0 5.417969 L 15 5.417969 L 15 9.582031 L 0 9.582031 Z M 0 5.417969 "/>
<path style=" stroke:none;fill-rule:nonzero;fill:rgb(100%,60%,20%);fill-opacity:1;" d="M 15 5.417969 L 15 3.75 C 15 2.828125 14.253906 2.082031 13.332031 2.082031 L 1.667969 2.082031 C 0.746094 2.082031 0 2.828125 0 3.75 L 0 5.417969 Z M 15 5.417969 "/>
<path style=" stroke:none;fill-rule:nonzero;fill:rgb(0%,0%,50.196078%);fill-opacity:1;" d="M 9.167969 7.5 C 9.167969 8.421875 8.421875 9.167969 7.5 9.167969 C 6.578125 9.167969 5.832031 8.421875 5.832031 7.5 C 5.832031 6.578125 6.578125 5.832031 7.5 5.832031 C 8.421875 5.832031 9.167969 6.578125 9.167969 7.5 Z M 9.167969 7.5 "/>
<path style=" stroke:none;fill-rule:nonzero;fill:rgb(93.333333%,93.333333%,93.333333%);fill-opacity:1;" d="M 8.75 7.5 C 8.75 8.191406 8.191406 8.75 7.5 8.75 C 6.808594 8.75 6.25 8.191406 6.25 7.5 C 6.25 6.808594 6.808594 6.25 7.5 6.25 C 8.191406 6.25 8.75 6.808594 8.75 7.5 Z M 8.75 7.5 "/>
<path style=" stroke:none;fill-rule:nonzero;fill:rgb(40%,40%,70.196078%);fill-opacity:1;" d="M 7.5 6.25 L 7.5625 7.191406 L 7.976562 6.34375 L 7.671875 7.238281 L 8.382812 6.617188 L 7.761719 7.328125 L 8.65625 7.023438 L 7.808594 7.4375 L 8.75 7.5 L 7.808594 7.5625 L 8.65625 7.976562 L 7.761719 7.671875 L 8.382812 8.382812 L 7.671875 7.761719 L 7.976562 8.65625 L 7.5625 7.808594 L 7.5 8.75 L 7.4375 7.808594 L 7.023438 8.65625 L 7.328125 7.761719 L 6.617188 8.382812 L 7.238281 7.671875 L 6.34375 7.976562 L 7.191406 7.5625 L 6.25 7.5 L 7.191406 7.4375 L 6.34375 7.023438 L 7.238281 7.328125 L 6.617188 6.617188 L 7.328125 7.238281 L 7.023438 6.34375 L 7.4375 7.191406 Z M 7.5 6.25 "/>
<path style=" stroke:none;fill-rule:nonzero;fill:rgb(0%,0%,50.196078%);fill-opacity:1;" d="M 7.917969 7.5 C 7.917969 7.730469 7.730469 7.917969 7.5 7.917969 C 7.269531 7.917969 7.082031 7.730469 7.082031 7.5 C 7.082031 7.269531 7.269531 7.082031 7.5 7.082031 C 7.730469 7.082031 7.917969 7.269531 7.917969 7.5 Z M 7.917969 7.5 "/>
</g>
</svg>
