<?xml version="1.0" encoding="UTF-8"?>
<svg xmlns="http://www.w3.org/2000/svg" xmlns:xlink="http://www.w3.org/1999/xlink" width="15pt" height="15pt" viewBox="0 0 15 15" version="1.1">
<g id="surface1">
<path style=" stroke:none;fill-rule:nonzero;fill:rgb(100%,80%,0%);fill-opacity:1;" d="M 15 11.25 C 15 12.171875 14.253906 12.917969 13.332031 12.917969 L 1.667969 12.917969 C 0.746094 12.917969 0 12.171875 0 11.25 L 0 3.75 C 0 2.828125 0.746094 2.082031 1.667969 2.082031 L 13.332031 2.082031 C 14.253906 2.082031 15 2.828125 15 3.75 Z M 15 11.25 "/>
<path style=" stroke:none;fill-rule:nonzero;fill:rgb(93.333333%,93.333333%,93.333333%);fill-opacity:1;" d="M 1.667969 2.082031 C 0.746094 2.082031 0 2.828125 0 3.75 L 0 11.25 C 0 12.171875 0.746094 12.917969 1.667969 12.917969 L 5 12.917969 L 5 2.082031 Z M 1.667969 2.082031 "/>
<path style=" stroke:none;fill-rule:nonzero;fill:rgb(3.137255%,40.784314%,66.27451%);fill-opacity:1;" d="M 5 2.082031 L 10 2.082031 L 10 12.917969 L 5 12.917969 Z M 5 2.082031 "/>
<path style=" stroke:none;fill-rule:nonzero;fill:rgb(75.294118%,60.784314%,35.294118%);fill-opacity:1;" d="M 8.757812 6.792969 C 8.644531 6.671875 8.503906 6.792969 8.441406 6.753906 C 8.378906 6.71875 8.300781 6.691406 8.308594 6.820312 C 8.3125 6.949219 8.410156 7.007812 8.464844 7.050781 C 8.519531 7.09375 8.492188 7.21875 8.492188 7.21875 C 8.492188 7.21875 8.398438 7.117188 8.363281 7.046875 C 8.324219 6.980469 8.296875 6.921875 8.226562 6.921875 C 8.160156 6.921875 8.09375 7.011719 8.136719 7.046875 C 8.179688 7.085938 8.332031 7.121094 8.332031 7.21875 C 8.332031 7.316406 8.394531 7.414062 8.394531 7.414062 L 8.375 7.480469 C 8.375 7.480469 8.3125 7.449219 8.296875 7.414062 C 8.277344 7.378906 8.3125 7.261719 8.226562 7.261719 C 8.144531 7.261719 8.117188 7.449219 8.171875 7.480469 C 8.226562 7.511719 8.386719 7.6875 8.386719 7.6875 C 8.386719 7.6875 8.453125 7.816406 8.558594 7.878906 C 8.660156 7.9375 8.796875 8.074219 8.796875 8.074219 C 8.796875 8.074219 8.617188 8.203125 8.605469 8.28125 C 8.59375 8.359375 8.667969 8.390625 8.660156 8.457031 C 8.65625 8.523438 8.578125 8.492188 8.507812 8.527344 C 8.441406 8.5625 8.511719 8.65625 8.511719 8.65625 L 8.695312 8.65625 L 8.785156 8.488281 L 8.785156 8.367188 L 8.976562 8.324219 C 8.976562 8.324219 8.960938 8.394531 8.996094 8.4375 C 9.035156 8.480469 9.175781 8.542969 9.175781 8.644531 C 9.175781 8.75 9.121094 8.753906 9.058594 8.757812 C 8.996094 8.765625 8.96875 8.835938 8.96875 8.835938 L 9.207031 8.835938 C 9.207031 8.835938 9.273438 8.679688 9.308594 8.609375 C 9.34375 8.535156 9.320312 8.484375 9.277344 8.464844 C 9.234375 8.445312 9.191406 8.351562 9.207031 8.273438 C 9.207031 8.273438 9.289062 8.339844 9.386719 8.320312 C 9.484375 8.304688 9.570312 8.222656 9.578125 8.117188 C 9.582031 8.015625 9.578125 7.910156 9.480469 7.875 C 9.382812 7.839844 9.402344 7.945312 9.4375 7.972656 C 9.472656 8.003906 9.472656 8.140625 9.425781 8.167969 C 9.375 8.199219 9.296875 8.238281 9.273438 8.152344 C 9.246094 8.066406 9.195312 7.933594 9.089844 7.894531 C 8.988281 7.859375 8.84375 7.628906 8.851562 7.460938 C 8.855469 7.296875 8.898438 6.9375 8.757812 6.792969 Z M 6.234375 6.792969 C 6.347656 6.671875 6.488281 6.792969 6.550781 6.753906 C 6.609375 6.71875 6.691406 6.691406 6.683594 6.820312 C 6.679688 6.949219 6.582031 7.007812 6.527344 7.050781 C 6.472656 7.09375 6.5 7.21875 6.5 7.21875 C 6.5 7.21875 6.59375 7.117188 6.628906 7.046875 C 6.667969 6.980469 6.695312 6.921875 6.765625 6.921875 C 6.832031 6.921875 6.898438 7.011719 6.855469 7.046875 C 6.8125 7.085938 6.660156 7.121094 6.660156 7.21875 C 6.660156 7.316406 6.597656 7.414062 6.597656 7.414062 L 6.617188 7.480469 C 6.617188 7.480469 6.679688 7.449219 6.695312 7.414062 C 6.714844 7.378906 6.679688 7.261719 6.765625 7.261719 C 6.847656 7.261719 6.875 7.449219 6.820312 7.480469 C 6.765625 7.511719 6.605469 7.6875 6.605469 7.6875 C 6.605469 7.6875 6.539062 7.816406 6.433594 7.878906 C 6.332031 7.9375 6.195312 8.074219 6.195312 8.074219 C 6.195312 8.074219 6.375 8.203125 6.386719 8.28125 C 6.398438 8.359375 6.324219 8.390625 6.332031 8.457031 C 6.335938 8.523438 6.417969 8.492188 6.484375 8.527344 C 6.550781 8.5625 6.53125 8.65625 6.53125 8.65625 L 6.347656 8.65625 L 6.207031 8.488281 L 6.207031 8.367188 L 6.019531 8.324219 C 6.019531 8.324219 6.035156 8.398438 5.996094 8.4375 C 5.960938 8.484375 5.820312 8.542969 5.820312 8.648438 C 5.820312 8.75 5.875 8.753906 5.933594 8.757812 C 5.996094 8.765625 6.027344 8.835938 6.027344 8.835938 L 5.789062 8.835938 C 5.789062 8.835938 5.71875 8.679688 5.683594 8.609375 C 5.648438 8.535156 5.671875 8.484375 5.714844 8.464844 C 5.757812 8.445312 5.800781 8.351562 5.789062 8.273438 C 5.789062 8.273438 5.703125 8.339844 5.605469 8.320312 C 5.507812 8.304688 5.421875 8.222656 5.414062 8.117188 C 5.410156 8.015625 5.414062 7.910156 5.511719 7.875 C 5.609375 7.839844 5.59375 7.945312 5.554688 7.972656 C 5.519531 8.003906 5.519531 8.140625 5.566406 8.171875 C 5.617188 8.199219 5.695312 8.238281 5.722656 8.152344 C 5.746094 8.066406 5.796875 7.933594 5.902344 7.894531 C 6.007812 7.859375 6.148438 7.628906 6.140625 7.464844 C 6.136719 7.296875 6.09375 6.9375 6.234375 6.792969 Z M 6.234375 6.792969 "/>
<path style=" stroke:none;fill-rule:nonzero;fill:rgb(54.901961%,55.294118%,56.078431%);fill-opacity:1;" d="M 8.84375 7.183594 C 8.753906 7.199219 8.613281 7.1875 8.507812 7.183594 C 8.472656 7.179688 8.457031 7.285156 8.484375 7.292969 C 8.566406 7.3125 8.78125 7.324219 8.847656 7.285156 C 8.875 7.269531 8.882812 7.179688 8.84375 7.183594 Z M 8.84375 7.183594 "/>
<path style=" stroke:none;fill-rule:nonzero;fill:rgb(0%,0%,0%);fill-opacity:1;" d="M 8.40625 6.738281 C 8.40625 6.738281 8.371094 6.792969 8.308594 6.800781 C 8.308594 6.800781 8.300781 6.75 8.335938 6.730469 C 8.375 6.710938 8.40625 6.738281 8.40625 6.738281 Z M 8.554688 6.828125 C 8.5 6.816406 8.460938 6.847656 8.511719 6.867188 C 8.5625 6.886719 8.585938 6.835938 8.554688 6.828125 Z M 8.785156 6.953125 C 8.785156 6.953125 8.777344 7.148438 8.671875 7.144531 C 8.5625 7.140625 8.605469 6.976562 8.671875 6.90625 C 8.671875 6.90625 8.59375 7.101562 8.664062 7.109375 C 8.734375 7.113281 8.785156 6.953125 8.785156 6.953125 Z M 8.785156 6.953125 "/>
<path style=" stroke:none;fill-rule:nonzero;fill:rgb(54.901961%,55.294118%,56.078431%);fill-opacity:1;" d="M 6.148438 7.183594 C 6.234375 7.199219 6.378906 7.1875 6.484375 7.183594 C 6.519531 7.179688 6.535156 7.285156 6.507812 7.292969 C 6.425781 7.3125 6.210938 7.324219 6.144531 7.285156 C 6.117188 7.269531 6.109375 7.179688 6.148438 7.183594 Z M 6.148438 7.183594 "/>
<path style=" stroke:none;fill-rule:nonzero;fill:rgb(0%,0%,0%);fill-opacity:1;" d="M 6.585938 6.738281 C 6.585938 6.738281 6.621094 6.792969 6.683594 6.800781 C 6.683594 6.800781 6.691406 6.75 6.65625 6.730469 C 6.617188 6.710938 6.585938 6.738281 6.585938 6.738281 Z M 6.4375 6.828125 C 6.492188 6.816406 6.53125 6.847656 6.480469 6.867188 C 6.429688 6.886719 6.402344 6.835938 6.4375 6.828125 Z M 6.207031 6.953125 C 6.207031 6.953125 6.214844 7.148438 6.320312 7.144531 C 6.429688 7.140625 6.386719 6.976562 6.320312 6.90625 C 6.320312 6.90625 6.398438 7.101562 6.328125 7.109375 C 6.257812 7.113281 6.207031 6.953125 6.207031 6.953125 Z M 6.207031 6.953125 "/>
<path style=" stroke:none;fill-rule:nonzero;fill:rgb(92.156863%,81.960784%,10.588235%);fill-opacity:1;" d="M 7.816406 6.308594 C 7.816406 6.308594 7.691406 6.1875 7.558594 6.21875 L 7.53125 6.199219 L 7.53125 6.070312 L 7.472656 6.070312 L 7.472656 6.199219 L 7.445312 6.21875 C 7.3125 6.1875 7.1875 6.308594 7.1875 6.308594 C 6.992188 6.226562 6.800781 6.359375 6.800781 6.507812 C 6.800781 6.660156 6.914062 6.726562 6.9375 6.753906 C 6.964844 6.78125 7.09375 7.105469 7.09375 7.105469 L 7.910156 7.105469 C 7.910156 7.105469 8.039062 6.78125 8.066406 6.753906 C 8.089844 6.726562 8.203125 6.660156 8.203125 6.507812 C 8.203125 6.359375 8.011719 6.226562 7.816406 6.308594 Z M 7.816406 6.308594 "/>
<path style=" stroke:none;fill-rule:nonzero;fill:rgb(74.509804%,9.411765%,15.294118%);fill-opacity:1;" d="M 7.421875 6.4375 L 7.421875 6.535156 L 7.355469 6.609375 C 7.355469 6.609375 7.289062 6.617188 7.257812 6.59375 C 7.230469 6.570312 7.203125 6.515625 7.203125 6.515625 C 7.203125 6.515625 7.273438 6.46875 7.3125 6.457031 C 7.351562 6.445312 7.421875 6.4375 7.421875 6.4375 Z M 7.179688 6.550781 C 7.179688 6.550781 7.167969 6.628906 7.109375 6.648438 C 7.050781 6.671875 6.992188 6.660156 6.992188 6.660156 C 6.992188 6.660156 7.007812 6.621094 7.054688 6.585938 C 7.105469 6.550781 7.179688 6.550781 7.179688 6.550781 Z M 7.179688 6.550781 "/>
<path style=" stroke:none;fill-rule:nonzero;fill:rgb(3.137255%,40.784314%,66.27451%);fill-opacity:1;" d="M 7.292969 6.351562 C 7.355469 6.339844 7.421875 6.351562 7.421875 6.351562 C 7.421875 6.351562 7.421875 6.4375 7.34375 6.453125 C 7.261719 6.464844 7.230469 6.429688 7.230469 6.429688 C 7.230469 6.429688 7.246094 6.363281 7.292969 6.351562 Z M 6.917969 6.515625 C 6.898438 6.414062 7.039062 6.375 7.113281 6.453125 C 7.113281 6.453125 7.125 6.5625 7.042969 6.59375 C 6.957031 6.628906 6.925781 6.558594 6.917969 6.515625 Z M 7.113281 6.371094 C 7.128906 6.332031 7.210938 6.367188 7.1875 6.410156 C 7.164062 6.453125 7.082031 6.441406 7.113281 6.371094 Z M 7.113281 6.371094 "/>
<path style=" stroke:none;fill-rule:nonzero;fill:rgb(3.137255%,40.784314%,66.27451%);fill-opacity:1;" d="M 7.128906 6.472656 C 7.167969 6.433594 7.222656 6.511719 7.179688 6.535156 C 7.128906 6.554688 7.101562 6.503906 7.128906 6.472656 Z M 7.128906 6.472656 "/>
<path style=" stroke:none;fill-rule:nonzero;fill:rgb(74.509804%,9.411765%,15.294118%);fill-opacity:1;" d="M 7.570312 6.4375 L 7.570312 6.535156 L 7.644531 6.609375 C 7.644531 6.609375 7.710938 6.617188 7.742188 6.59375 C 7.773438 6.570312 7.800781 6.515625 7.800781 6.515625 C 7.800781 6.515625 7.726562 6.46875 7.683594 6.457031 C 7.644531 6.445312 7.570312 6.4375 7.570312 6.4375 Z M 7.828125 6.550781 C 7.828125 6.550781 7.839844 6.628906 7.894531 6.648438 C 7.953125 6.671875 8.011719 6.660156 8.011719 6.660156 C 8.011719 6.660156 8 6.621094 7.949219 6.585938 C 7.902344 6.550781 7.828125 6.550781 7.828125 6.550781 Z M 7.828125 6.550781 "/>
<path style=" stroke:none;fill-rule:nonzero;fill:rgb(3.137255%,40.784314%,66.27451%);fill-opacity:1;" d="M 7.710938 6.351562 C 7.648438 6.339844 7.582031 6.351562 7.582031 6.351562 C 7.582031 6.351562 7.582031 6.4375 7.664062 6.453125 C 7.742188 6.464844 7.773438 6.429688 7.773438 6.429688 C 7.773438 6.429688 7.757812 6.363281 7.710938 6.351562 Z M 8.085938 6.515625 C 8.109375 6.414062 7.964844 6.375 7.890625 6.453125 C 7.890625 6.453125 7.878906 6.5625 7.964844 6.59375 C 8.046875 6.628906 8.078125 6.558594 8.085938 6.515625 Z M 7.890625 6.371094 C 7.875 6.332031 7.792969 6.367188 7.816406 6.410156 C 7.839844 6.453125 7.921875 6.441406 7.890625 6.371094 Z M 7.890625 6.371094 "/>
<path style=" stroke:none;fill-rule:nonzero;fill:rgb(3.137255%,40.784314%,66.27451%);fill-opacity:1;" d="M 7.875 6.472656 C 7.835938 6.433594 7.78125 6.511719 7.828125 6.535156 C 7.875 6.554688 7.902344 6.503906 7.875 6.472656 Z M 7.875 6.472656 "/>
<path style=" stroke:none;fill-rule:nonzero;fill:rgb(74.509804%,9.411765%,15.294118%);fill-opacity:1;" d="M 7.09375 7.046875 C 7.09375 6.972656 7.273438 6.90625 7.496094 6.90625 C 7.71875 6.90625 7.898438 6.972656 7.898438 7.046875 C 7.898438 7.125 7.71875 7.1875 7.496094 7.1875 C 7.273438 7.1875 7.09375 7.125 7.09375 7.046875 Z M 7.09375 7.046875 "/>
<path style=" stroke:none;fill-rule:nonzero;fill:rgb(0.784314%,0.784314%,0.784314%);fill-opacity:1;" d="M 7.5 7.023438 L 6.71875 7.023438 L 6.71875 8.296875 C 6.71875 8.800781 7.5 8.800781 7.5 8.800781 C 7.5 8.800781 8.273438 8.800781 8.273438 8.296875 L 8.273438 7.023438 Z M 7.5 7.023438 "/>
<path style=" stroke:none;fill-rule:nonzero;fill:rgb(29.803922%,52.54902%,78.039216%);fill-opacity:1;" d="M 7.5 7.105469 L 6.808594 7.105469 L 6.808594 8.300781 C 6.808594 8.714844 7.5 8.707031 7.5 8.707031 C 7.5 8.707031 8.191406 8.714844 8.191406 8.300781 L 8.191406 7.105469 Z M 7.5 7.105469 "/>
<path style=" stroke:none;fill-rule:nonzero;fill:rgb(64.705882%,65.490196%,66.27451%);fill-opacity:1;" d="M 8.484375 6.140625 C 8.585938 6.105469 8.667969 5.964844 8.667969 5.964844 C 8.667969 5.964844 8.503906 5.984375 8.402344 5.964844 C 8.300781 5.945312 8.226562 5.871094 8.226562 5.871094 C 8.300781 5.742188 8.179688 5.664062 7.945312 5.636719 C 7.769531 5.613281 7.5 5.609375 7.5 5.609375 C 7.5 5.609375 7.226562 5.613281 7.046875 5.636719 C 6.8125 5.664062 6.691406 5.742188 6.765625 5.871094 C 6.765625 5.871094 6.6875 5.945312 6.585938 5.964844 C 6.484375 5.984375 6.320312 5.964844 6.320312 5.964844 C 6.320312 5.964844 6.402344 6.105469 6.503906 6.140625 C 6.503906 6.140625 6.472656 6.234375 6.347656 6.253906 C 6.347656 6.253906 6.613281 6.300781 6.804688 6.21875 C 6.996094 6.136719 7.101562 6.066406 7.128906 6.039062 C 7.15625 6.011719 7.054688 5.945312 7.128906 5.9375 C 7.207031 5.929688 7.5 5.921875 7.5 5.921875 C 7.5 5.921875 7.785156 5.929688 7.859375 5.9375 C 7.9375 5.945312 7.828125 6.011719 7.859375 6.039062 C 7.886719 6.066406 7.992188 6.136719 8.183594 6.21875 C 8.375 6.300781 8.640625 6.253906 8.640625 6.253906 C 8.515625 6.234375 8.484375 6.140625 8.484375 6.140625 Z M 8.484375 6.140625 "/>
<path style=" stroke:none;fill-rule:nonzero;fill:rgb(100%,100%,100%);fill-opacity:1;" d="M 7.730469 8.5625 L 7.261719 8.5625 L 7.496094 8.324219 Z M 7.390625 7.78125 L 6.917969 7.78125 L 7.15625 7.542969 Z M 7.390625 7.414062 L 6.917969 7.414062 L 7.15625 7.179688 Z M 7.390625 8.171875 L 6.917969 8.171875 L 7.15625 7.933594 Z M 8.050781 7.78125 L 7.578125 7.78125 L 7.8125 7.542969 Z M 8.050781 7.414062 L 7.578125 7.414062 L 7.8125 7.179688 Z M 8.050781 8.171875 L 7.578125 8.171875 L 7.8125 7.933594 Z M 8.050781 8.171875 "/>
</g>
</svg>
