<?xml version="1.0" encoding="UTF-8"?>
<svg xmlns="http://www.w3.org/2000/svg" xmlns:xlink="http://www.w3.org/1999/xlink" width="15pt" height="15pt" viewBox="0 0 15 15" version="1.1">
<g id="surface1">
<path style=" stroke:none;fill-rule:nonzero;fill:rgb(93.333333%,93.333333%,93.333333%);fill-opacity:1;" d="M 15 11.25 C 15 12.171875 14.253906 12.917969 13.332031 12.917969 L 1.667969 12.917969 C 0.746094 12.917969 0 12.171875 0 11.25 L 0 3.75 C 0 2.828125 0.746094 2.082031 1.667969 2.082031 L 13.332031 2.082031 C 14.253906 2.082031 15 2.828125 15 3.75 Z M 15 11.25 "/>
<path style=" stroke:none;fill-rule:nonzero;fill:rgb(0%,14.117647%,49.019608%);fill-opacity:1;" d="M 14.316406 11.71875 C 13.5625 11.71875 13.5625 11.277344 12.804688 11.277344 C 12.046875 11.277344 12.046875 11.691406 11.265625 11.691406 C 10.53125 11.691406 10.53125 11.277344 9.761719 11.277344 C 9.015625 11.277344 9.015625 11.691406 8.257812 11.691406 C 7.5 11.691406 7.5 11.277344 6.742188 11.277344 C 5.984375 11.277344 5.984375 11.691406 5.226562 11.691406 C 4.46875 11.691406 4.46875 11.277344 3.710938 11.277344 C 2.953125 11.277344 2.953125 11.691406 2.199219 11.691406 C 1.441406 11.691406 1.441406 11.277344 0.683594 11.277344 C 0.363281 11.277344 0.183594 11.351562 0.0195312 11.4375 C 0.046875 11.703125 0.132812 11.949219 0.273438 12.164062 C 0.382812 12.128906 0.515625 12.109375 0.683594 12.109375 C 1.441406 12.109375 1.441406 12.527344 2.199219 12.527344 C 2.957031 12.527344 2.957031 12.109375 3.714844 12.109375 C 4.46875 12.109375 4.46875 12.527344 5.226562 12.527344 C 5.984375 12.527344 5.984375 12.109375 6.742188 12.109375 C 7.5 12.109375 7.5 12.527344 8.257812 12.527344 C 9.015625 12.527344 9.015625 12.109375 9.769531 12.109375 C 10.53125 12.109375 10.53125 12.527344 11.285156 12.527344 C 12.046875 12.527344 12.046875 12.109375 12.804688 12.109375 C 13.5625 12.109375 13.5625 12.511719 14.320312 12.511719 C 14.355469 12.511719 14.382812 12.507812 14.417969 12.507812 C 14.699219 12.265625 14.898438 11.933594 14.96875 11.554688 C 14.808594 11.644531 14.628906 11.71875 14.316406 11.71875 Z M 15 10.578125 L 15 9.765625 C 14.832031 9.859375 14.648438 9.945312 14.316406 9.945312 C 13.5625 9.945312 13.5625 9.503906 12.804688 9.503906 C 12.046875 9.503906 12.046875 9.917969 11.265625 9.917969 C 10.53125 9.917969 10.53125 9.503906 9.761719 9.503906 C 9.015625 9.503906 9.015625 9.917969 8.257812 9.917969 C 7.5 9.917969 7.5 9.503906 6.742188 9.503906 C 5.984375 9.503906 5.984375 9.917969 5.226562 9.917969 C 4.46875 9.917969 4.46875 9.503906 3.710938 9.503906 C 2.953125 9.503906 2.953125 9.917969 2.199219 9.917969 C 1.441406 9.917969 1.441406 9.503906 0.683594 9.503906 C 0.351562 9.503906 0.167969 9.582031 0 9.671875 L 0 10.503906 C 0.167969 10.414062 0.351562 10.335938 0.683594 10.335938 C 1.441406 10.335938 1.441406 10.753906 2.199219 10.753906 C 2.953125 10.753906 2.953125 10.335938 3.710938 10.335938 C 4.46875 10.335938 4.46875 10.753906 5.226562 10.753906 C 5.984375 10.753906 5.984375 10.335938 6.742188 10.335938 C 7.5 10.335938 7.5 10.753906 8.257812 10.753906 C 9.015625 10.753906 9.015625 10.335938 9.769531 10.335938 C 10.53125 10.335938 10.53125 10.753906 11.285156 10.753906 C 12.046875 10.753906 12.046875 10.335938 12.804688 10.335938 C 13.5625 10.335938 13.5625 10.738281 14.320312 10.738281 C 14.648438 10.738281 14.832031 10.664062 15 10.578125 Z M 15 8.800781 L 15 7.992188 C 14.832031 8.085938 14.648438 8.171875 14.316406 8.171875 C 13.5625 8.171875 13.5625 7.730469 12.804688 7.730469 C 12.046875 7.730469 12.046875 8.144531 11.265625 8.144531 C 10.53125 8.144531 10.53125 7.730469 9.761719 7.730469 C 9.015625 7.730469 9.015625 8.144531 8.257812 8.144531 C 7.5 8.144531 7.5 7.730469 6.742188 7.730469 C 5.984375 7.730469 5.984375 8.144531 5.226562 8.144531 C 4.46875 8.144531 4.46875 7.730469 3.710938 7.730469 C 2.953125 7.730469 2.953125 8.144531 2.199219 8.144531 C 1.441406 8.144531 1.441406 7.730469 0.683594 7.730469 C 0.351562 7.730469 0.167969 7.808594 0 7.898438 L 0 8.730469 C 0.167969 8.640625 0.351562 8.5625 0.683594 8.5625 C 1.441406 8.5625 1.441406 8.980469 2.199219 8.980469 C 2.953125 8.980469 2.953125 8.5625 3.710938 8.5625 C 4.46875 8.5625 4.46875 8.980469 5.226562 8.980469 C 5.984375 8.980469 5.984375 8.5625 6.742188 8.5625 C 7.5 8.5625 7.5 8.980469 8.257812 8.980469 C 9.015625 8.980469 9.015625 8.5625 9.769531 8.5625 C 10.53125 8.5625 10.53125 8.980469 11.285156 8.980469 C 12.046875 8.980469 12.046875 8.5625 12.804688 8.5625 C 13.5625 8.5625 13.5625 8.964844 14.320312 8.964844 C 14.648438 8.964844 14.832031 8.890625 15 8.800781 Z M 15 7.027344 L 15 6.21875 C 14.832031 6.3125 14.648438 6.398438 14.316406 6.398438 C 13.5625 6.398438 13.5625 5.957031 12.804688 5.957031 C 12.046875 5.957031 12.046875 6.371094 11.265625 6.371094 C 10.53125 6.371094 10.53125 5.957031 9.761719 5.957031 C 9.015625 5.957031 9.015625 6.371094 8.257812 6.371094 C 7.5 6.371094 7.5 5.957031 6.742188 5.957031 C 5.984375 5.957031 5.984375 6.371094 5.226562 6.371094 C 4.46875 6.371094 4.46875 5.957031 3.710938 5.957031 C 2.953125 5.957031 2.953125 6.371094 2.199219 6.371094 C 1.441406 6.371094 1.441406 5.957031 0.683594 5.957031 C 0.351562 5.957031 0.167969 6.035156 0 6.125 L 0 6.957031 C 0.167969 6.867188 0.351562 6.789062 0.683594 6.789062 C 1.441406 6.789062 1.441406 7.207031 2.199219 7.207031 C 2.953125 7.207031 2.953125 6.789062 3.710938 6.789062 C 4.46875 6.789062 4.46875 7.207031 5.226562 7.207031 C 5.984375 7.207031 5.984375 6.789062 6.742188 6.789062 C 7.5 6.789062 7.5 7.207031 8.257812 7.207031 C 9.015625 7.207031 9.015625 6.789062 9.769531 6.789062 C 10.53125 6.789062 10.53125 7.207031 11.285156 7.207031 C 12.046875 7.207031 12.046875 6.789062 12.804688 6.789062 C 13.5625 6.789062 13.5625 7.191406 14.320312 7.191406 C 14.648438 7.191406 14.832031 7.113281 15 7.027344 Z M 15 5.253906 L 15 4.445312 C 14.832031 4.539062 14.648438 4.625 14.316406 4.625 C 13.5625 4.625 13.5625 4.179688 12.804688 4.179688 C 12.046875 4.179688 12.046875 4.597656 11.265625 4.597656 C 10.53125 4.597656 10.53125 4.179688 9.761719 4.179688 C 9.015625 4.179688 9.015625 4.597656 8.257812 4.597656 C 7.5 4.597656 7.5 4.179688 6.742188 4.179688 C 5.984375 4.179688 5.984375 4.597656 5.226562 4.597656 C 4.46875 4.597656 4.46875 4.179688 3.710938 4.179688 C 2.953125 4.179688 2.953125 4.597656 2.199219 4.597656 C 1.441406 4.597656 1.441406 4.179688 0.683594 4.179688 C 0.351562 4.179688 0.167969 4.261719 0 4.347656 L 0 5.183594 C 0.167969 5.09375 0.351562 5.015625 0.683594 5.015625 C 1.441406 5.015625 1.441406 5.429688 2.199219 5.429688 C 2.953125 5.429688 2.953125 5.015625 3.710938 5.015625 C 4.46875 5.015625 4.46875 5.429688 5.226562 5.429688 C 5.984375 5.429688 5.984375 5.015625 6.742188 5.015625 C 7.5 5.015625 7.5 5.429688 8.257812 5.429688 C 9.015625 5.429688 9.015625 5.015625 9.769531 5.015625 C 10.53125 5.015625 10.53125 5.429688 11.285156 5.429688 C 12.046875 5.429688 12.046875 5.015625 12.804688 5.015625 C 13.5625 5.015625 13.5625 5.417969 14.320312 5.417969 C 14.648438 5.417969 14.832031 5.339844 15 5.253906 Z M 14.972656 3.492188 C 14.933594 3.238281 14.84375 3.003906 14.699219 2.800781 C 14.597656 2.828125 14.472656 2.851562 14.316406 2.851562 C 13.5625 2.851562 13.5625 2.40625 12.804688 2.40625 C 12.046875 2.40625 12.046875 2.824219 11.265625 2.824219 C 10.53125 2.824219 10.53125 2.40625 9.761719 2.40625 C 9.015625 2.40625 9.015625 2.824219 8.257812 2.824219 C 7.5 2.824219 7.5 2.40625 6.742188 2.40625 C 5.984375 2.40625 5.984375 2.824219 5.226562 2.824219 C 4.46875 2.824219 4.46875 2.40625 3.710938 2.40625 C 2.953125 2.40625 2.953125 2.824219 2.199219 2.824219 C 1.441406 2.824219 1.4375 2.410156 0.6875 2.40625 C 0.367188 2.640625 0.128906 2.988281 0.0429688 3.390625 C 0.199219 3.308594 0.378906 3.242188 0.683594 3.242188 C 1.4375 3.242188 1.4375 3.65625 2.195312 3.65625 C 2.953125 3.65625 2.953125 3.242188 3.710938 3.242188 C 4.46875 3.242188 4.46875 3.65625 5.226562 3.65625 C 5.984375 3.65625 5.984375 3.242188 6.742188 3.242188 C 7.5 3.242188 7.5 3.65625 8.257812 3.65625 C 9.015625 3.65625 9.015625 3.242188 9.769531 3.242188 C 10.53125 3.242188 10.53125 3.65625 11.285156 3.65625 C 12.046875 3.65625 12.046875 3.242188 12.800781 3.242188 C 13.5625 3.242188 13.5625 3.644531 14.316406 3.644531 C 14.632812 3.644531 14.8125 3.574219 14.972656 3.492188 Z M 14.972656 3.492188 "/>
<path style=" stroke:none;fill-rule:nonzero;fill:rgb(75.686275%,41.176471%,30.980392%);fill-opacity:1;" d="M 11.351562 11.949219 C 11.351562 12.023438 11.292969 12.082031 11.21875 12.082031 C 11.144531 12.082031 11.085938 12.023438 11.085938 11.949219 L 11.085938 5.339844 C 11.085938 5.265625 11.144531 5.203125 11.21875 5.203125 C 11.292969 5.203125 11.351562 5.265625 11.351562 5.339844 Z M 11.351562 11.949219 "/>
<path style=" stroke:none;fill-rule:nonzero;fill:rgb(86.666667%,18.039216%,26.666667%);fill-opacity:1;" d="M 10.273438 8.484375 C 10.273438 8.484375 10.332031 8.347656 10.535156 8.347656 C 10.738281 8.347656 10.789062 8.453125 10.910156 8.5 C 11.03125 8.550781 11.1875 8.574219 11.1875 8.574219 L 11.1875 9.59375 L 10.09375 9.59375 C 10.09375 9.59375 10.054688 9.210938 9.988281 9.023438 C 9.921875 8.835938 9.867188 8.582031 10.003906 8.5 C 10.144531 8.421875 10.273438 8.484375 10.273438 8.484375 Z M 10.273438 8.484375 "/>
<path style=" stroke:none;fill-rule:nonzero;fill:rgb(100%,80%,30.196078%);fill-opacity:1;" d="M 11.183594 8.21875 L 11.183594 8.367188 C 11.183594 8.367188 10.902344 8.34375 10.65625 8.171875 C 10.507812 8.066406 10.191406 7.9375 9.949219 8.148438 C 9.789062 8.28125 9.800781 8.625 9.898438 8.757812 C 9.996094 8.894531 10.09375 9.199219 9.886719 8.992188 C 9.679688 8.78125 9.617188 8.464844 9.679688 8.257812 C 9.738281 8.046875 9.875 7.839844 10.191406 7.839844 C 10.511719 7.839844 10.71875 8.011719 10.867188 8.097656 C 10.992188 8.171875 11.195312 8.195312 11.183594 8.21875 Z M 11.183594 8.21875 "/>
<path style=" stroke:none;fill-rule:nonzero;fill:rgb(100%,80%,30.196078%);fill-opacity:1;" d="M 9.957031 8.957031 L 10.128906 8.949219 L 10.078125 9.210938 C 10.078125 9.210938 10.25 9.082031 10.257812 9.113281 C 10.265625 9.144531 10.289062 9.382812 10.289062 9.382812 L 10.070312 9.332031 L 10.199219 9.519531 L 10.027344 9.601562 C 10.027344 9.601562 9.964844 9.382812 9.949219 9.277344 C 9.929688 9.171875 9.957031 8.957031 9.957031 8.957031 Z M 10.316406 9.097656 L 10.476562 9.082031 C 10.476562 9.082031 10.335938 8.761719 10.542969 8.769531 C 10.773438 8.777344 10.617188 9.074219 10.617188 9.074219 L 10.789062 9.074219 L 10.8125 9.308594 L 10.648438 9.210938 L 10.648438 9.351562 L 10.828125 9.523438 L 10.355469 9.570312 L 10.476562 9.367188 L 10.46875 9.21875 L 10.355469 9.351562 Z M 10.316406 9.097656 "/>
<path style=" stroke:none;fill-rule:nonzero;fill:rgb(86.666667%,18.039216%,26.666667%);fill-opacity:1;" d="M 12.167969 8.484375 C 12.167969 8.484375 12.109375 8.347656 11.90625 8.347656 C 11.703125 8.347656 11.65625 8.453125 11.53125 8.5 C 11.410156 8.550781 11.253906 8.574219 11.253906 8.574219 L 11.253906 9.59375 L 12.347656 9.59375 C 12.347656 9.59375 12.390625 9.210938 12.453125 9.023438 C 12.519531 8.835938 12.578125 8.582031 12.4375 8.5 C 12.300781 8.421875 12.167969 8.484375 12.167969 8.484375 Z M 12.167969 8.484375 "/>
<path style=" stroke:none;fill-rule:nonzero;fill:rgb(100%,80%,30.196078%);fill-opacity:1;" d="M 11.257812 8.21875 L 11.257812 8.367188 C 11.257812 8.367188 11.539062 8.34375 11.785156 8.171875 C 11.933594 8.066406 12.25 7.9375 12.496094 8.148438 C 12.652344 8.28125 12.640625 8.625 12.542969 8.757812 C 12.445312 8.894531 12.347656 9.199219 12.554688 8.992188 C 12.765625 8.78125 12.824219 8.464844 12.765625 8.257812 C 12.703125 8.046875 12.566406 7.839844 12.25 7.839844 C 11.929688 7.839844 11.722656 8.011719 11.578125 8.097656 C 11.449219 8.171875 11.246094 8.195312 11.257812 8.21875 Z M 11.257812 8.21875 "/>
<path style=" stroke:none;fill-rule:nonzero;fill:rgb(100%,80%,30.196078%);fill-opacity:1;" d="M 12.488281 8.957031 L 12.316406 8.949219 L 12.363281 9.210938 C 12.363281 9.210938 12.191406 9.082031 12.183594 9.113281 C 12.175781 9.144531 12.152344 9.382812 12.152344 9.382812 L 12.371094 9.332031 L 12.242188 9.519531 L 12.414062 9.601562 C 12.414062 9.601562 12.476562 9.382812 12.496094 9.277344 C 12.511719 9.171875 12.488281 8.957031 12.488281 8.957031 Z M 12.128906 9.097656 L 11.964844 9.082031 C 11.964844 9.082031 12.105469 8.761719 11.898438 8.769531 C 11.671875 8.777344 11.824219 9.074219 11.824219 9.074219 L 11.65625 9.074219 L 11.628906 9.308594 L 11.792969 9.210938 L 11.792969 9.351562 L 11.613281 9.523438 L 12.085938 9.570312 L 11.964844 9.367188 L 11.972656 9.21875 L 12.085938 9.351562 Z M 11.503906 7.808594 C 11.503906 7.96875 11.375 8.101562 11.21875 8.101562 C 11.0625 8.101562 10.933594 7.96875 10.933594 7.808594 C 10.933594 7.644531 11.0625 7.515625 11.21875 7.515625 C 11.375 7.515625 11.503906 7.644531 11.503906 7.808594 Z M 10.960938 7.164062 L 11.476562 7.164062 L 11.476562 7.367188 L 10.960938 7.367188 Z M 10.960938 7.164062 "/>
<path style=" stroke:none;fill-rule:nonzero;fill:rgb(100%,80%,30.196078%);fill-opacity:1;" d="M 11.097656 7.023438 L 11.339844 7.023438 L 11.339844 8.910156 L 11.097656 8.910156 Z M 11.097656 7.023438 "/>
<path style=" stroke:none;fill-rule:nonzero;fill:rgb(100%,80%,30.196078%);fill-opacity:1;" d="M 11.015625 8.828125 L 11.398438 8.828125 L 11.292969 9.097656 L 11.539062 8.964844 L 11.539062 9.324219 L 11.300781 9.242188 L 11.503906 9.554688 L 10.976562 9.554688 L 11.136719 9.242188 L 10.902344 9.300781 L 10.902344 8.984375 L 11.121094 9.089844 Z M 11.015625 8.828125 "/>
<path style=" stroke:none;fill-rule:nonzero;fill:rgb(100%,80%,30.196078%);fill-opacity:1;" d="M 11.21875 9.429688 C 11.726562 9.429688 12.042969 9.472656 12.402344 9.601562 C 12.402344 9.601562 12.429688 9.816406 12.378906 9.921875 C 12.332031 10.027344 11.210938 9.847656 11.210938 9.847656 Z M 11.21875 9.429688 "/>
<path style=" stroke:none;fill-rule:nonzero;fill:rgb(100%,80%,30.196078%);fill-opacity:1;" d="M 11.234375 9.429688 C 10.730469 9.429688 10.410156 9.472656 10.050781 9.601562 C 10.050781 9.601562 10.027344 9.816406 10.074219 9.921875 C 10.125 10.027344 11.242188 9.847656 11.242188 9.847656 Z M 11.234375 9.429688 "/>
<path style=" stroke:none;fill-rule:nonzero;fill:rgb(93.333333%,93.333333%,93.333333%);fill-opacity:1;" d="M 12.53125 10.136719 C 12.53125 10.296875 11.945312 10.425781 11.21875 10.425781 C 10.496094 10.425781 9.90625 10.296875 9.90625 10.136719 C 9.90625 9.976562 10.496094 9.847656 11.21875 9.847656 C 11.945312 9.847656 12.53125 9.976562 12.53125 10.136719 Z M 12.53125 10.136719 "/>
<path style=" stroke:none;fill-rule:nonzero;fill:rgb(60%,66.666667%,70.980392%);fill-opacity:1;" d="M 12.101562 10.242188 C 12.101562 10.332031 11.707031 10.402344 11.21875 10.402344 C 10.730469 10.402344 10.335938 10.332031 10.335938 10.242188 C 10.335938 10.15625 10.730469 10.082031 11.21875 10.082031 C 11.707031 10.082031 12.101562 10.15625 12.101562 10.242188 Z M 12.101562 10.242188 "/>
<path style=" stroke:none;fill-rule:nonzero;fill:rgb(46.666667%,69.803922%,33.333333%);fill-opacity:1;" d="M 10.691406 2.863281 L 10.957031 3.199219 C 10.957031 3.199219 11.148438 3.085938 11.15625 3.109375 C 11.164062 3.132812 11.140625 3.386719 11.140625 3.386719 L 11.269531 3.417969 L 11.164062 3.753906 C 11.164062 3.753906 11.328125 3.664062 11.316406 3.695312 C 11.308594 3.730469 11.269531 4.015625 11.269531 4.015625 L 11.335938 4.054688 L 11.328125 4.375 C 11.328125 4.375 11.390625 4.488281 11.390625 4.464844 C 11.390625 4.4375 11.457031 4.046875 11.457031 4.046875 L 11.546875 4.121094 L 11.578125 3.917969 L 11.652344 3.566406 L 11.734375 3.695312 L 11.90625 3.117188 L 11.996094 3.320312 L 12.199219 3.085938 L 12.335938 3.078125 L 12.542969 3.019531 L 12.582031 3.140625 L 12.769531 3.140625 C 12.769531 3.140625 12.671875 3.222656 12.679688 3.246094 C 12.6875 3.273438 12.859375 3.359375 12.835938 3.371094 C 12.808594 3.378906 12.394531 3.335938 12.394531 3.335938 L 12.160156 3.574219 L 12.304688 3.621094 L 12.085938 3.753906 L 12.273438 3.808594 L 12.101562 3.941406 L 12.246094 3.925781 L 12.011719 4.105469 L 12.246094 4.152344 L 11.929688 4.316406 L 12.003906 4.398438 L 11.683594 4.585938 L 11.644531 4.714844 L 11.945312 4.480469 C 11.945312 4.480469 12.191406 4.316406 12.3125 4.242188 C 12.433594 4.167969 12.535156 4.03125 12.738281 3.972656 C 12.941406 3.917969 13.332031 3.980469 13.332031 3.980469 L 12.964844 4.175781 L 13.039062 4.292969 L 12.804688 4.363281 L 12.835938 4.503906 L 12.445312 4.5625 L 12.453125 4.707031 L 12.117188 4.765625 L 12.078125 4.902344 L 11.847656 4.984375 L 11.953125 5.074219 C 11.953125 5.074219 11.757812 5.140625 11.785156 5.148438 C 11.808594 5.15625 12.070312 5.179688 12.070312 5.179688 C 12.070312 5.179688 11.9375 5.296875 11.960938 5.296875 C 11.988281 5.296875 12.3125 5.3125 12.3125 5.3125 L 12.175781 5.410156 L 12.5 5.425781 L 12.355469 5.539062 C 12.355469 5.539062 12.621094 5.5625 12.621094 5.589844 C 12.621094 5.613281 12.507812 5.734375 12.507812 5.734375 L 12.746094 5.761719 C 12.746094 5.761719 12.632812 5.882812 12.65625 5.890625 C 12.679688 5.898438 12.992188 6.109375 12.992188 6.109375 L 12.621094 6.0625 C 12.621094 6.0625 12.535156 6.183594 12.523438 6.160156 C 12.515625 6.136719 12.429688 5.988281 12.429688 5.988281 L 12.339844 6.085938 L 12.242188 5.890625 C 12.242188 5.890625 12.125 5.957031 12.132812 5.929688 C 12.140625 5.90625 12.003906 5.75 12.003906 5.75 L 11.972656 5.824219 L 11.882812 5.605469 L 11.800781 5.71875 L 11.644531 5.507812 L 11.585938 5.597656 L 11.375 5.410156 C 11.375 5.410156 11.367188 5.53125 11.375 5.554688 C 11.382812 5.582031 11.53125 5.6875 11.53125 5.6875 C 11.53125 5.6875 11.433594 5.726562 11.433594 5.75 C 11.433594 5.777344 11.628906 5.929688 11.628906 5.929688 L 11.539062 5.996094 L 11.75 6.175781 C 11.75 6.175781 11.554688 6.214844 11.578125 6.234375 C 11.605469 6.25 11.703125 6.378906 11.703125 6.378906 L 11.621094 6.574219 L 11.457031 6.324219 L 11.367188 6.347656 L 11.351562 6.136719 L 11.261719 6.125 L 11.308594 5.890625 L 11.210938 5.90625 L 11.203125 5.710938 L 11.164062 5.515625 L 11.082031 5.382812 C 11.082031 5.382812 11.023438 5.480469 11.03125 5.507812 C 11.039062 5.53125 11.105469 5.6875 11.105469 5.6875 C 11.105469 5.6875 11.015625 5.734375 11.03125 5.757812 C 11.050781 5.785156 11.140625 5.964844 11.140625 5.964844 C 11.140625 5.964844 10.941406 6.003906 10.96875 6.003906 C 10.992188 6.003906 11.058594 6.117188 11.058594 6.117188 L 10.953125 6.160156 L 10.902344 6.28125 C 10.902344 6.28125 10.78125 6.140625 10.789062 6.167969 C 10.796875 6.191406 10.714844 6.421875 10.714844 6.421875 L 10.59375 6.28125 L 10.714844 5.800781 L 10.566406 5.757812 L 10.460938 5.980469 C 10.460938 5.980469 10.371094 5.875 10.363281 5.898438 C 10.355469 5.921875 10.265625 6.085938 10.265625 6.085938 C 10.265625 6.085938 10.160156 5.90625 10.167969 5.929688 C 10.175781 5.953125 10.046875 6.214844 10.046875 6.214844 C 10.046875 6.214844 9.933594 5.988281 9.933594 6.019531 C 9.933594 6.054688 9.851562 6.339844 9.851562 6.339844 C 9.851562 6.339844 9.71875 6.117188 9.726562 6.160156 C 9.738281 6.199219 9.636719 6.386719 9.636719 6.386719 L 9.613281 6.183594 L 9.433594 6.289062 L 9.636719 5.996094 L 9.980469 5.679688 L 10.242188 5.484375 L 10.070312 5.457031 C 10.070312 5.457031 10.316406 5.371094 10.347656 5.367188 C 10.421875 5.359375 10.234375 5.296875 10.234375 5.296875 L 10.691406 5.15625 C 10.691406 5.15625 10.484375 5.050781 10.460938 5.074219 C 10.4375 5.097656 10.191406 5.148438 10.191406 5.148438 L 10.160156 4.960938 L 9.90625 5.066406 C 9.90625 5.066406 9.867188 4.894531 9.859375 4.917969 C 9.851562 4.945312 9.652344 5.050781 9.652344 5.050781 L 9.558594 4.945312 L 9.441406 5.125 L 9.3125 5.027344 L 9.074219 5.097656 L 9.1875 4.929688 L 9.058594 4.855469 L 9.328125 4.683594 L 9.386719 4.570312 L 9.753906 4.59375 C 9.753906 4.59375 9.652344 4.464844 9.671875 4.488281 C 9.6875 4.511719 10.046875 4.570312 10.046875 4.570312 L 10.152344 4.554688 L 10.511719 4.683594 L 10.21875 4.445312 L 9.964844 4.398438 L 10.128906 4.265625 L 9.746094 4.128906 L 9.828125 4 L 9.320312 3.867188 L 9.628906 3.785156 L 9.417969 3.425781 L 9.859375 3.6875 L 10.054688 3.621094 L 10.152344 3.875 L 10.332031 3.980469 L 10.363281 4.167969 L 10.453125 4.128906 L 10.535156 4.347656 L 10.640625 4.316406 L 10.699219 4.472656 L 10.855469 4.480469 L 10.8125 4.273438 L 10.878906 4.175781 L 10.699219 4.03125 L 10.855469 3.957031 L 10.625 3.769531 L 10.820312 3.746094 L 10.542969 3.476562 L 10.765625 3.484375 L 10.542969 3.230469 L 10.722656 3.191406 Z M 10.691406 2.863281 "/>
<path style=" stroke:none;fill-rule:nonzero;fill:rgb(0%,14.117647%,49.019608%);fill-opacity:1;" d="M 7.917969 7.5 L 7.917969 2.082031 L 1.667969 2.082031 C 1.535156 2.082031 1.414062 2.101562 1.414062 2.101562 L 1.414062 2.832031 L 0.277344 2.832031 C 0.277344 2.832031 0.257812 2.855469 0.222656 2.917969 C 0.0820312 3.160156 0 3.445312 0 3.75 L 0 7.5 Z M 7.917969 7.5 "/>
<path style=" stroke:none;fill-rule:nonzero;fill:rgb(93.333333%,93.333333%,93.333333%);fill-opacity:1;" d="M 7.917969 2.082031 L 6.945312 2.082031 L 5 3.445312 L 5 2.082031 L 2.917969 2.082031 L 2.917969 3.152344 L 1.414062 2.101562 C 1.160156 2.140625 0.917969 2.238281 0.71875 2.378906 L 2.675781 3.75 L 1.953125 3.75 L 0.402344 2.664062 C 0.355469 2.714844 0.316406 2.773438 0.277344 2.832031 L 1.589844 3.75 L 0 3.75 L 0 5.832031 L 1.617188 5.832031 L 0 6.984375 L 0 7.5 L 1.386719 7.5 L 2.917969 6.429688 L 2.917969 7.5 L 5 7.5 L 5 6.136719 L 6.945312 7.5 L 7.917969 7.5 L 7.917969 6.65625 L 6.742188 5.832031 L 7.917969 5.832031 L 7.917969 3.75 L 6.746094 3.75 L 7.917969 2.929688 Z M 7.917969 2.082031 "/>
<path style=" stroke:none;fill-rule:nonzero;fill:rgb(81.176471%,10.588235%,16.862745%);fill-opacity:1;" d="M 4.582031 2.082031 L 3.332031 2.082031 L 3.332031 4.167969 L 0 4.167969 L 0 5.417969 L 3.332031 5.417969 L 3.332031 7.5 L 4.582031 7.5 L 4.582031 5.417969 L 7.917969 5.417969 L 7.917969 4.167969 L 4.582031 4.167969 Z M 4.582031 2.082031 "/>
<path style=" stroke:none;fill-rule:nonzero;fill:rgb(81.176471%,10.588235%,16.862745%);fill-opacity:1;" d="M 7.917969 2.082031 L 7.308594 2.082031 L 5 3.699219 L 5 3.75 L 5.65625 3.75 L 7.917969 2.164062 Z M 0.71875 2.378906 C 0.601562 2.460938 0.496094 2.554688 0.402344 2.664062 L 1.953125 3.75 L 2.675781 3.75 Z M 2.683594 5.832031 L 0.304688 7.5 L 1.027344 7.5 L 2.917969 6.175781 L 2.917969 5.832031 Z M 7.917969 7.417969 L 7.917969 6.910156 L 6.378906 5.832031 L 5.652344 5.832031 Z M 7.917969 7.417969 "/>
</g>
</svg>
