<?xml version="1.0" encoding="UTF-8"?>
<svg xmlns="http://www.w3.org/2000/svg" xmlns:xlink="http://www.w3.org/1999/xlink" width="15pt" height="15pt" viewBox="0 0 15 15" version="1.1">
<g id="surface1">
<path style=" stroke:none;fill-rule:nonzero;fill:rgb(7.843137%,7.843137%,7.843137%);fill-opacity:1;" d="M 15 11.25 C 15 12.171875 14.253906 12.917969 13.332031 12.917969 L 1.667969 12.917969 C 0.746094 12.917969 0 12.171875 0 11.25 L 0 3.75 C 0 2.828125 0.746094 2.082031 1.667969 2.082031 L 13.332031 2.082031 C 14.253906 2.082031 15 2.828125 15 3.75 Z M 15 11.25 "/>
<path style=" stroke:none;fill-rule:nonzero;fill:rgb(93.333333%,93.333333%,93.333333%);fill-opacity:1;" d="M 0 5.417969 L 15 5.417969 L 15 9.582031 L 0 9.582031 Z M 0 5.417969 "/>
<path style=" stroke:none;fill-rule:nonzero;fill:rgb(80.784314%,7.058824%,14.509804%);fill-opacity:1;" d="M 13.332031 2.082031 L 1.667969 2.082031 C 0.746094 2.082031 0 2.828125 0 3.75 L 0 5.417969 L 15 5.417969 L 15 3.75 C 15 2.828125 14.253906 2.082031 13.332031 2.082031 Z M 13.332031 2.082031 "/>
<path style=" stroke:none;fill-rule:nonzero;fill:rgb(74.901961%,57.647059%,0%);fill-opacity:1;" d="M 6.144531 8.984375 C 6.144531 8.984375 6.152344 9.089844 6.242188 9.140625 C 6.242188 9.140625 6.21875 9.21875 6.316406 9.265625 C 6.414062 9.308594 6.765625 9.382812 7.375 9.382812 C 7.988281 9.382812 8.332031 9.316406 8.425781 9.269531 C 8.515625 9.226562 8.523438 9.121094 8.523438 9.121094 C 8.523438 9.121094 8.621094 9.070312 8.613281 9.003906 C 8.605469 8.9375 8.476562 8.867188 8.476562 8.867188 C 8.476562 8.867188 8.445312 8.78125 8.351562 8.75 C 8.261719 8.71875 7.96875 8.894531 7.410156 8.867188 C 6.847656 8.839844 6.53125 8.757812 6.425781 8.761719 C 6.320312 8.769531 6.277344 8.875 6.277344 8.875 C 6.277344 8.875 6.160156 8.925781 6.144531 8.984375 Z M 6.144531 8.984375 "/>
<path style=" stroke:none;fill-rule:nonzero;fill:rgb(93.333333%,93.333333%,93.333333%);fill-opacity:1;" d="M 6.21875 8.976562 C 6.210938 9.015625 6.296875 9.101562 6.296875 9.101562 C 6.296875 9.101562 6.296875 9.199219 6.378906 9.226562 C 6.464844 9.25 6.808594 9.316406 7.371094 9.308594 C 7.929688 9.304688 8.328125 9.269531 8.371094 9.230469 C 8.417969 9.191406 8.457031 9.109375 8.457031 9.109375 C 8.457031 9.109375 8.546875 9.042969 8.542969 8.992188 C 8.535156 8.9375 8.40625 8.90625 8.40625 8.90625 C 8.40625 8.90625 8.367188 8.828125 8.324219 8.796875 C 8.28125 8.761719 8 8.925781 7.402344 8.925781 C 6.816406 8.925781 6.476562 8.78125 6.417969 8.789062 C 6.359375 8.796875 6.320312 8.90625 6.320312 8.90625 C 6.320312 8.90625 6.222656 8.933594 6.21875 8.976562 Z M 6.21875 8.976562 "/>
<path style=" stroke:none;fill-rule:nonzero;fill:rgb(74.901961%,57.647059%,0%);fill-opacity:1;" d="M 8.691406 6.453125 C 8.691406 6.453125 8.679688 6.144531 8.398438 6.183594 C 8.117188 6.222656 8.097656 6.359375 7.800781 6.394531 L 7.738281 6.398438 C 7.691406 6.28125 7.65625 6.109375 7.65625 5.976562 C 7.65625 5.78125 7.714844 5.695312 7.511719 5.597656 C 7.3125 5.5 7.273438 5.59375 7.273438 5.59375 C 7.273438 5.59375 7.117188 5.515625 7.042969 5.574219 C 6.972656 5.632812 7.011719 5.78125 7.042969 5.734375 C 7.078125 5.691406 7.207031 5.820312 7.207031 5.820312 C 7.25 6.035156 7.125 6.269531 7.039062 6.402344 C 7.011719 6.398438 6.984375 6.398438 6.953125 6.394531 C 6.652344 6.359375 6.632812 6.222656 6.355469 6.183594 C 6.074219 6.144531 6.0625 6.453125 6.0625 6.453125 L 5.949219 8.816406 L 6.179688 8.640625 L 6.179688 8.609375 L 6.652344 8.191406 L 6.734375 8.109375 L 6.535156 8.683594 C 6.535156 8.683594 6.238281 8.664062 6.320312 8.90625 C 6.320312 8.90625 6.367188 8.769531 6.445312 8.796875 C 6.523438 8.820312 6.75 8.878906 6.75 8.878906 L 6.828125 9.003906 L 6.925781 8.910156 L 7.234375 8.898438 C 7.234375 8.898438 7.328125 8.925781 7.324219 9.011719 C 7.34375 8.964844 7.347656 8.925781 7.339844 8.890625 L 7.429688 8.886719 C 7.421875 8.917969 7.421875 8.960938 7.445312 9.011719 C 7.4375 8.925781 7.535156 8.898438 7.535156 8.898438 L 7.84375 8.914062 L 7.941406 9.003906 L 8.019531 8.878906 C 8.019531 8.878906 8.246094 8.820312 8.324219 8.796875 C 8.402344 8.769531 8.449219 8.90625 8.449219 8.90625 C 8.53125 8.664062 8.234375 8.683594 8.234375 8.683594 L 8.046875 8.136719 L 8.097656 8.191406 L 8.574219 8.613281 L 8.574219 8.640625 L 8.800781 8.816406 Z M 7.398438 7.882812 C 6.925781 7.59375 6.886719 6.863281 6.886719 6.863281 C 6.886719 6.863281 7.179688 6.847656 7.390625 6.699219 C 7.578125 6.867188 7.902344 6.847656 7.902344 6.847656 C 7.902344 6.847656 7.882812 7.582031 7.398438 7.882812 Z M 8.46875 6.359375 L 8.074219 6.738281 L 8.007812 6.765625 C 7.9375 6.765625 7.605469 6.769531 7.394531 6.582031 C 7.136719 6.765625 6.777344 6.777344 6.777344 6.777344 L 6.722656 6.753906 L 6.28125 6.359375 L 6.167969 6.410156 C 6.171875 6.359375 6.199219 6.253906 6.339844 6.277344 C 6.578125 6.308594 6.671875 6.4375 6.921875 6.464844 L 6.992188 6.472656 L 6.964844 6.503906 C 7.003906 6.503906 7.0625 6.492188 7.101562 6.484375 L 7.148438 6.488281 L 7.128906 6.5625 C 7.160156 6.550781 7.210938 6.523438 7.25 6.496094 L 7.359375 6.507812 L 7.382812 6.542969 L 7.464844 6.5 L 7.519531 6.496094 C 7.570312 6.523438 7.636719 6.546875 7.636719 6.546875 L 7.648438 6.484375 C 7.707031 6.523438 7.804688 6.523438 7.804688 6.523438 C 7.796875 6.515625 7.785156 6.492188 7.773438 6.46875 L 7.832031 6.464844 C 8.078125 6.4375 8.175781 6.308594 8.410156 6.277344 C 8.554688 6.253906 8.582031 6.359375 8.585938 6.40625 Z M 8.46875 6.359375 "/>
<path style=" stroke:none;fill-rule:nonzero;fill:rgb(93.333333%,93.333333%,93.333333%);fill-opacity:1;" d="M 7.238281 7.871094 L 7.003906 8.761719 L 6.613281 8.683594 L 7.019531 7.539062 Z M 7.53125 7.871094 L 7.765625 8.761719 L 8.15625 8.683594 L 7.753906 7.539062 Z M 7.53125 7.871094 "/>
<path style=" stroke:none;fill-rule:nonzero;fill:rgb(74.901961%,57.647059%,0%);fill-opacity:1;" d="M 6.984375 6.933594 C 6.984375 6.933594 7.019531 7.3125 7.1875 7.605469 L 7.1875 6.847656 C 7.1875 6.847656 7.078125 6.914062 6.984375 6.933594 Z M 7.800781 6.945312 C 7.800781 6.945312 7.765625 7.324219 7.597656 7.617188 L 7.597656 6.863281 C 7.597656 6.863281 7.707031 6.925781 7.800781 6.945312 Z M 7.800781 6.945312 "/>
<path style=" stroke:none;fill-rule:nonzero;fill:rgb(93.333333%,93.333333%,93.333333%);fill-opacity:1;" d="M 7.0625 5.65625 C 7.0625 5.65625 7.109375 5.613281 7.238281 5.703125 C 7.324219 5.761719 7.398438 5.808594 7.398438 5.808594 C 7.398438 5.808594 7.453125 5.75 7.53125 5.765625 C 7.609375 5.777344 7.566406 5.886719 7.578125 6.113281 C 7.589844 6.339844 7.683594 6.4375 7.683594 6.4375 L 7.570312 6.375 L 7.578125 6.445312 L 7.453125 6.386719 L 7.394531 6.472656 L 7.335938 6.378906 L 7.242188 6.4375 L 7.214844 6.359375 L 7.101562 6.417969 C 7.101562 6.417969 7.265625 6.21875 7.277344 5.996094 C 7.28125 5.929688 7.265625 5.78125 7.265625 5.78125 C 7.265625 5.78125 7.160156 5.652344 7.0625 5.65625 Z M 7.0625 5.65625 "/>
<path style=" stroke:none;fill-rule:nonzero;fill:rgb(74.901961%,57.647059%,0%);fill-opacity:1;" d="M 6.476562 9.023438 C 6.402344 9.066406 6.433594 9.09375 6.476562 9.113281 C 6.523438 9.132812 6.796875 9.167969 7.351562 9.179688 C 7.917969 9.191406 8.269531 9.128906 8.3125 9.101562 C 8.359375 9.074219 8.367188 9.03125 8.289062 9.015625 C 8.210938 9.003906 7.820312 9.070312 7.34375 9.070312 C 6.757812 9.070312 6.511719 9.003906 6.476562 9.023438 Z M 6.476562 9.023438 "/>
</g>
</svg>
