<?xml version="1.0" encoding="UTF-8"?>
<svg xmlns="http://www.w3.org/2000/svg" xmlns:xlink="http://www.w3.org/1999/xlink" width="15pt" height="15pt" viewBox="0 0 15 15" version="1.1">
<g id="surface1">
<path style=" stroke:none;fill-rule:nonzero;fill:rgb(41.568627%,69.803922%,90.588235%);fill-opacity:1;" d="M 13.332031 2.082031 L 1.667969 2.082031 C 1.242188 2.082031 0.859375 2.242188 0.5625 2.503906 L 7.292969 7.5 L 15 7.5 L 15 3.75 C 15 2.828125 14.253906 2.082031 13.332031 2.082031 Z M 13.332031 2.082031 "/>
<path style=" stroke:none;fill-rule:nonzero;fill:rgb(7.058824%,67.843137%,16.862745%);fill-opacity:1;" d="M 13.332031 12.917969 L 1.667969 12.917969 C 1.242188 12.917969 0.859375 12.757812 0.5625 12.496094 L 7.292969 7.5 L 15 7.5 L 15 11.25 C 15 12.171875 14.253906 12.917969 13.332031 12.917969 Z M 13.332031 12.917969 "/>
<path style=" stroke:none;fill-rule:nonzero;fill:rgb(93.333333%,93.333333%,93.333333%);fill-opacity:1;" d="M 0.578125 12.488281 L 7.292969 7.5 L 0.5625 2.503906 C 0.21875 2.808594 0 3.253906 0 3.75 L 0 11.042969 C 0 11.660156 0.222656 12.160156 0.578125 12.488281 Z M 0.578125 12.488281 "/>
<path style=" stroke:none;fill-rule:nonzero;fill:rgb(84.313725%,7.843137%,10.196078%);fill-opacity:1;" d="M 2.707031 6.042969 L 3.050781 7.101562 L 4.167969 7.101562 L 3.265625 7.757812 L 3.609375 8.816406 L 2.707031 8.160156 L 1.808594 8.816406 L 2.152344 7.757812 L 1.25 7.101562 L 2.363281 7.101562 Z M 2.707031 6.042969 "/>
</g>
</svg>
