<?xml version="1.0" encoding="UTF-8"?>
<svg xmlns="http://www.w3.org/2000/svg" xmlns:xlink="http://www.w3.org/1999/xlink" width="15pt" height="15pt" viewBox="0 0 15 15" version="1.1">
<g id="surface1">
<path style=" stroke:none;fill-rule:nonzero;fill:rgb(93.333333%,93.333333%,93.333333%);fill-opacity:1;" d="M 3.933594 2.082031 L 1.667969 2.082031 C 0.746094 2.082031 0 2.828125 0 3.75 L 0 6.042969 L 3.933594 6.042969 Z M 15 6.042969 L 15 3.75 C 15 2.828125 14.253906 2.082031 13.332031 2.082031 L 6.875 2.082031 L 6.875 6.042969 Z M 15 6.042969 "/>
<path style=" stroke:none;fill-rule:nonzero;fill:rgb(0%,39.607843%,74.117647%);fill-opacity:1;" d="M 15 6.667969 L 15 6.042969 L 6.875 6.042969 L 6.875 2.082031 L 6.25 2.082031 L 6.25 6.667969 Z M 4.582031 2.082031 L 3.933594 2.082031 L 3.933594 6.042969 L 0 6.042969 L 0 6.667969 L 4.582031 6.667969 Z M 4.582031 2.082031 "/>
<path style=" stroke:none;fill-rule:nonzero;fill:rgb(93.333333%,93.333333%,93.333333%);fill-opacity:1;" d="M 0 8.957031 L 0 11.25 C 0 12.171875 0.746094 12.917969 1.667969 12.917969 L 3.933594 12.917969 L 3.933594 8.957031 Z M 6.875 8.957031 L 6.875 12.917969 L 13.332031 12.917969 C 14.253906 12.917969 15 12.171875 15 11.25 L 15 8.957031 Z M 6.875 8.957031 "/>
<path style=" stroke:none;fill-rule:nonzero;fill:rgb(92.941176%,16.078431%,22.352941%);fill-opacity:1;" d="M 6.25 6.667969 L 6.25 2.082031 L 4.582031 2.082031 L 4.582031 6.667969 L 0 6.667969 L 0 8.332031 L 4.582031 8.332031 L 4.582031 12.917969 L 6.25 12.917969 L 6.25 8.332031 L 15 8.332031 L 15 6.667969 Z M 6.25 6.667969 "/>
<path style=" stroke:none;fill-rule:nonzero;fill:rgb(0%,39.607843%,74.117647%);fill-opacity:1;" d="M 6.25 8.332031 L 6.25 12.917969 L 6.875 12.917969 L 6.875 8.957031 L 15 8.957031 L 15 8.332031 Z M 4.582031 8.332031 L 0 8.332031 L 0 8.957031 L 3.933594 8.957031 L 3.933594 12.917969 L 4.582031 12.917969 Z M 4.582031 8.332031 "/>
</g>
</svg>
