<?xml version="1.0" encoding="UTF-8"?>
<svg xmlns="http://www.w3.org/2000/svg" xmlns:xlink="http://www.w3.org/1999/xlink" width="15pt" height="15pt" viewBox="0 0 15 15" version="1.1">
<g id="surface1">
<path style=" stroke:none;fill-rule:nonzero;fill:rgb(23.137255%,53.333333%,76.470588%);fill-opacity:1;" d="M 15 13.332031 C 15 14.253906 14.253906 15 13.332031 15 L 1.667969 15 C 0.746094 15 0 14.253906 0 13.332031 L 0 1.667969 C 0 0.746094 0.746094 0 1.667969 0 L 13.332031 0 C 14.253906 0 15 0.746094 15 1.667969 Z M 15 13.332031 "/>
<path style=" stroke:none;fill-rule:nonzero;fill:rgb(100%,100%,100%);fill-opacity:1;" d="M 10.691406 6.632812 C 11.503906 6.632812 11.828125 7.042969 11.828125 7.871094 C 11.828125 10.363281 10.203125 12.238281 7.617188 12.238281 C 4.996094 12.238281 3.171875 10.160156 3.171875 7.484375 C 3.171875 4.796875 4.980469 2.730469 7.617188 2.730469 C 9.566406 2.730469 11.167969 3.648438 11.167969 4.550781 C 11.167969 5.105469 10.820312 5.457031 10.367188 5.457031 C 9.492188 5.457031 9.308594 4.511719 7.617188 4.511719 C 6.003906 4.511719 5.1875 5.921875 5.1875 7.484375 C 5.1875 9.058594 5.976562 10.457031 7.617188 10.457031 C 8.636719 10.457031 9.8125 9.886719 9.8125 8.414062 L 8.496094 8.414062 C 7.964844 8.414062 7.589844 8.039062 7.589844 7.511719 C 7.589844 6.96875 8.003906 6.632812 8.496094 6.632812 Z M 10.691406 6.632812 "/>
</g>
</svg>
