<?xml version="1.0" encoding="UTF-8"?>
<svg xmlns="http://www.w3.org/2000/svg" xmlns:xlink="http://www.w3.org/1999/xlink" width="15pt" height="15pt" viewBox="0 0 15 15" version="1.1">
<g id="surface1">
<path style=" stroke:none;fill-rule:nonzero;fill:rgb(0%,14.117647%,49.019608%);fill-opacity:1;" d="M 13.332031 2.082031 L 1.667969 2.082031 C 1.582031 2.082031 1.496094 2.089844 1.414062 2.101562 L 1.414062 2.832031 L 0.277344 2.832031 C 0.101562 3.09375 0 3.410156 0 3.75 L 0 11.25 C 0 12.171875 0.746094 12.917969 1.667969 12.917969 L 13.332031 12.917969 C 14.253906 12.917969 15 12.171875 15 11.25 L 15 3.75 C 15 2.828125 14.253906 2.082031 13.332031 2.082031 Z M 13.332031 2.082031 "/>
<path style=" stroke:none;fill-rule:nonzero;fill:rgb(72.941176%,40.392157%,27.843137%);fill-opacity:1;" d="M 9.699219 9.441406 C 9.8125 9.226562 9.894531 9.011719 9.988281 8.945312 C 10.082031 8.878906 10.605469 8.933594 10.707031 9.050781 C 10.808594 9.167969 10.757812 9.773438 10.554688 10.109375 C 10.355469 10.449219 9.976562 10.578125 9.835938 10.554688 C 9.695312 10.527344 9.605469 10.273438 9.578125 10.183594 C 9.554688 10.089844 9.640625 10.058594 9.835938 10.117188 C 10.035156 10.175781 10.328125 9.675781 10.320312 9.492188 C 10.152344 9.367188 10.003906 9.464844 9.9375 9.617188 C 9.871094 9.765625 9.699219 9.441406 9.699219 9.441406 Z M 9.699219 9.441406 "/>
<path style=" stroke:none;fill-rule:nonzero;fill:rgb(84.313725%,65.882353%,58.823529%);fill-opacity:1;" d="M 9.4375 9.875 C 9.464844 9.996094 9.578125 10.285156 9.699219 10.445312 C 9.640625 10.089844 9.90625 10.203125 9.886719 10.34375 C 9.976562 10.371094 9.859375 10.144531 9.839844 10.011719 C 9.8125 9.882812 9.832031 9.628906 9.621094 9.640625 C 9.402344 9.65625 9.417969 9.789062 9.4375 9.875 Z M 9.4375 9.875 "/>
<path style=" stroke:none;fill-rule:nonzero;fill:rgb(72.941176%,40.392157%,27.843137%);fill-opacity:1;" d="M 13.589844 9.441406 C 13.472656 9.226562 13.394531 9.011719 13.300781 8.945312 C 13.207031 8.878906 12.683594 8.933594 12.578125 9.050781 C 12.476562 9.167969 12.527344 9.773438 12.730469 10.109375 C 12.933594 10.449219 13.308594 10.578125 13.449219 10.554688 C 13.589844 10.527344 13.679688 10.273438 13.703125 10.183594 C 13.730469 10.089844 13.644531 10.058594 13.445312 10.117188 C 13.25 10.175781 12.957031 9.675781 12.964844 9.492188 C 13.132812 9.367188 13.28125 9.464844 13.347656 9.617188 C 13.414062 9.765625 13.589844 9.441406 13.589844 9.441406 Z M 13.589844 9.441406 "/>
<path style=" stroke:none;fill-rule:nonzero;fill:rgb(91.372549%,81.176471%,77.647059%);fill-opacity:1;" d="M 13.710938 9.773438 C 13.742188 9.640625 13.589844 9.441406 13.492188 9.246094 C 13.09375 9.992188 12.046875 10.089844 11.644531 10.089844 C 11.242188 10.089844 10.195312 9.992188 9.796875 9.246094 C 9.699219 9.441406 9.546875 9.640625 9.574219 9.773438 C 9.605469 9.902344 10.550781 10.578125 11.636719 10.585938 L 11.652344 10.585938 C 12.738281 10.578125 13.683594 9.902344 13.710938 9.773438 Z M 13.710938 9.773438 "/>
<path style=" stroke:none;fill-rule:nonzero;fill:rgb(84.313725%,65.882353%,58.823529%);fill-opacity:1;" d="M 13.851562 9.875 C 13.824219 9.996094 13.710938 10.285156 13.589844 10.445312 C 13.648438 10.089844 13.382812 10.203125 13.402344 10.34375 C 13.308594 10.371094 13.425781 10.144531 13.449219 10.011719 C 13.472656 9.882812 13.453125 9.628906 13.667969 9.640625 C 13.882812 9.65625 13.871094 9.789062 13.851562 9.875 Z M 13.851562 9.875 "/>
<path style=" stroke:none;fill-rule:nonzero;fill:rgb(100%,100%,100%);fill-opacity:1;" d="M 11.648438 4.4375 L 9.695312 4.4375 L 9.695312 7.144531 C 9.695312 9.523438 11.648438 10.042969 11.648438 10.042969 C 11.648438 10.042969 13.601562 9.523438 13.601562 7.144531 L 13.601562 4.4375 Z M 11.648438 4.4375 "/>
<path style=" stroke:none;fill-rule:nonzero;fill:rgb(0%,44.705882%,76.862745%);fill-opacity:1;" d="M 11.648438 9.875 C 11.433594 9.8125 9.835938 9.257812 9.835938 7.148438 L 9.835938 4.601562 L 13.464844 4.601562 L 13.464844 7.148438 C 13.464844 9.238281 11.851562 9.8125 11.648438 9.875 Z M 11.648438 9.875 "/>
<path style=" stroke:none;fill-rule:nonzero;fill:rgb(100%,100%,100%);fill-opacity:1;" d="M 10.871094 6.953125 C 10.917969 6.769531 10.949219 6.515625 10.839844 6.476562 C 10.730469 6.4375 10.535156 6.320312 10.46875 6.113281 C 10.402344 5.90625 10.4375 5.421875 10.378906 5.390625 C 10.320312 5.359375 10.144531 5.4375 10.039062 5.304688 C 9.933594 5.175781 10 5.128906 10.070312 5.085938 C 10.144531 5.039062 10.34375 4.933594 10.332031 4.894531 C 10.320312 4.855469 10.34375 4.792969 10.46875 4.753906 C 10.695312 4.675781 10.878906 4.875 10.949219 4.953125 C 11.023438 5.03125 11.210938 5.136719 11.296875 5.144531 C 11.378906 5.148438 12.402344 5.164062 12.519531 5.175781 C 12.636719 5.1875 12.9375 5.265625 12.910156 5.625 C 12.882812 5.984375 12.832031 6.328125 12.785156 6.394531 C 12.734375 6.457031 12.703125 6.476562 12.703125 6.476562 C 12.703125 6.476562 12.753906 6.765625 12.746094 6.816406 C 12.742188 6.867188 12.648438 6.886719 12.644531 6.796875 C 12.636719 6.703125 12.605469 6.492188 12.605469 6.492188 L 12.429688 6.457031 C 12.429688 6.457031 12.433594 6.769531 12.375 6.863281 C 12.316406 6.953125 12.167969 6.894531 12.207031 6.828125 C 12.246094 6.765625 12.265625 6.707031 12.265625 6.628906 C 12.265625 6.550781 12.246094 6.433594 12.207031 6.417969 C 12.167969 6.40625 11.972656 6.484375 11.828125 6.484375 C 11.6875 6.484375 11.367188 6.394531 11.308594 6.445312 C 11.25 6.496094 11.171875 6.765625 11.132812 6.914062 C 11.09375 7.0625 11.027344 6.972656 11.035156 6.902344 C 11.042969 6.828125 11.066406 6.589844 11.027344 6.628906 C 10.988281 6.667969 11.003906 6.847656 10.976562 6.90625 C 10.949219 6.964844 10.871094 6.953125 10.871094 6.953125 Z M 10.871094 6.953125 "/>
<path style=" stroke:none;fill-rule:nonzero;fill:rgb(0.392157%,31.764706%,12.941176%);fill-opacity:1;" d="M 10.410156 6.628906 C 10.410156 6.628906 10.496094 7.113281 10.8125 7.324219 C 11.132812 7.535156 12.472656 7.480469 12.703125 7.316406 C 12.933594 7.15625 13.144531 6.757812 13.144531 6.757812 C 13.144531 6.757812 12.957031 6.757812 12.890625 6.6875 C 12.703125 6.789062 12.589844 6.746094 12.550781 6.679688 C 12.402344 6.828125 12.414062 6.738281 12.394531 6.691406 C 12.265625 6.839844 12.078125 6.75 12.019531 6.699219 C 11.886719 6.785156 11.691406 6.730469 11.652344 6.679688 C 11.503906 6.808594 11.28125 6.777344 11.238281 6.71875 C 11.140625 6.882812 10.996094 6.824219 10.917969 6.769531 C 10.808594 6.875 10.761719 6.757812 10.722656 6.6875 C 10.632812 6.84375 10.480469 6.730469 10.410156 6.628906 Z M 10.410156 6.628906 "/>
<path style=" stroke:none;fill-rule:nonzero;fill:rgb(100%,100%,100%);fill-opacity:1;" d="M 9.757812 7.238281 C 9.757812 7.238281 9.960938 7.265625 10.117188 7.121094 C 10.273438 6.980469 10.539062 6.90625 10.734375 7.121094 C 10.929688 7.335938 11.152344 7.332031 11.320312 7.15625 C 11.492188 6.980469 11.746094 6.894531 11.984375 7.136719 C 12.226562 7.375 12.433594 7.273438 12.578125 7.136719 C 12.722656 7 13.019531 6.910156 13.214844 7.136719 C 13.410156 7.363281 13.546875 7.238281 13.546875 7.238281 L 13.464844 7.839844 C 13.464844 7.839844 13.40625 7.851562 13.222656 7.695312 C 13.039062 7.539062 12.785156 7.480469 12.605469 7.675781 C 12.421875 7.871094 12.148438 7.878906 11.953125 7.6875 C 11.757812 7.5 11.53125 7.519531 11.359375 7.667969 C 11.191406 7.820312 10.898438 7.890625 10.664062 7.667969 C 10.429688 7.449219 10.226562 7.558594 10.109375 7.675781 C 9.992188 7.792969 9.835938 7.839844 9.835938 7.839844 Z M 9.960938 8.308594 C 10.011719 8.289062 10.066406 8.261719 10.117188 8.214844 C 10.273438 8.074219 10.539062 8 10.734375 8.214844 C 10.929688 8.429688 11.152344 8.425781 11.320312 8.25 C 11.492188 8.074219 11.746094 7.988281 11.984375 8.230469 C 12.226562 8.46875 12.433594 8.367188 12.578125 8.230469 C 12.722656 8.09375 13.019531 8.003906 13.214844 8.230469 C 13.253906 8.273438 13.292969 8.304688 13.324219 8.328125 C 13.359375 8.457031 13.175781 8.75 13.152344 8.734375 C 12.976562 8.621094 12.761719 8.597656 12.605469 8.769531 C 12.421875 8.964844 12.148438 8.96875 11.953125 8.78125 C 11.757812 8.59375 11.53125 8.613281 11.359375 8.761719 C 11.191406 8.910156 10.898438 8.984375 10.664062 8.761719 C 10.460938 8.570312 10.28125 8.628906 10.164062 8.722656 C 10.144531 8.738281 9.851562 8.34375 9.960938 8.308594 Z M 10.46875 9.160156 C 10.5625 9.167969 10.65625 9.207031 10.734375 9.296875 C 10.929688 9.511719 11.152344 9.503906 11.320312 9.328125 C 11.492188 9.152344 11.746094 9.070312 11.984375 9.308594 C 12.226562 9.550781 12.433594 9.449219 12.578125 9.308594 C 12.628906 9.261719 12.703125 9.214844 12.785156 9.191406 C 12.515625 9.578125 11.75 9.96875 11.648438 9.96875 C 11.546875 9.96875 10.714844 9.601562 10.46875 9.160156 Z M 10.46875 9.160156 "/>
<path style=" stroke:none;fill-rule:nonzero;fill:rgb(0%,0%,0%);fill-opacity:1;" d="M 10.292969 5.039062 C 10.324219 4.96875 10.433594 4.988281 10.46875 5.039062 C 10.5 5.089844 10.261719 5.109375 10.292969 5.039062 Z M 10.292969 5.039062 "/>
<path style=" stroke:none;fill-rule:nonzero;fill:rgb(86.666667%,54.509804%,34.901961%);fill-opacity:1;" d="M 9.9375 8.214844 C 9.894531 8.265625 10.4375 8.5 10.4375 8.5 C 10.4375 8.5 10.484375 8.757812 10.527344 8.722656 C 10.570312 8.691406 10.753906 8.726562 10.753906 8.726562 C 10.753906 8.726562 10.800781 9.492188 11.652344 9.492188 C 12.507812 9.492188 12.738281 8.675781 12.738281 8.675781 C 12.738281 8.675781 13.046875 8.679688 13.082031 8.695312 C 13.117188 8.714844 13.007812 8.597656 13.054688 8.5 C 13.097656 8.40625 13.210938 8.292969 13.144531 8.269531 C 13.078125 8.242188 12.390625 8.429688 12.390625 8.429688 C 12.390625 8.429688 12.402344 9.050781 11.652344 9.050781 C 10.90625 9.050781 11.003906 8.644531 11.003906 8.644531 C 11.003906 8.644531 9.996094 8.140625 9.9375 8.214844 Z M 9.9375 8.214844 "/>
<path style=" stroke:none;fill-rule:nonzero;fill:rgb(86.666667%,54.509804%,34.901961%);fill-opacity:1;" d="M 11.035156 8.882812 C 11.035156 8.902344 11.019531 8.921875 11 8.921875 C 10.980469 8.921875 10.964844 8.902344 10.964844 8.882812 L 10.964844 7.234375 C 10.964844 7.214844 10.980469 7.199219 11 7.199219 C 11.019531 7.199219 11.035156 7.214844 11.035156 7.234375 Z M 11.652344 9.085938 C 11.652344 9.101562 11.640625 9.113281 11.625 9.113281 C 11.609375 9.113281 11.59375 9.101562 11.59375 9.085938 L 11.59375 7.121094 C 11.59375 7.101562 11.609375 7.089844 11.625 7.089844 C 11.640625 7.089844 11.652344 7.101562 11.652344 7.121094 Z M 12.296875 8.976562 C 12.296875 8.996094 12.285156 9.011719 12.265625 9.011719 C 12.246094 9.011719 12.234375 8.996094 12.234375 8.976562 L 12.234375 7.234375 C 12.234375 7.214844 12.246094 7.199219 12.265625 7.199219 C 12.285156 7.199219 12.296875 7.214844 12.296875 7.234375 Z M 12.296875 8.976562 "/>
<path style=" stroke:none;fill-rule:nonzero;fill:rgb(99.607843%,81.176471%,23.921569%);fill-opacity:1;" d="M 10.78125 7.5 C 10.78125 7.5 10.839844 7.617188 11.035156 7.566406 C 11.230469 7.511719 11.238281 7.351562 11.238281 7.351562 Z M 11.855469 7.238281 L 11.414062 7.351562 C 11.414062 7.351562 11.457031 7.496094 11.625 7.460938 C 11.789062 7.429688 11.855469 7.238281 11.855469 7.238281 Z M 12.050781 7.449219 C 12.050781 7.449219 12.15625 7.570312 12.296875 7.527344 C 12.441406 7.480469 12.53125 7.3125 12.53125 7.3125 Z M 11.300781 7.578125 L 10.742188 7.730469 C 10.742188 7.730469 10.691406 7.832031 10.710938 7.9375 C 10.730469 8.039062 10.78125 8.136719 10.78125 8.136719 C 10.78125 8.136719 10.832031 8.007812 10.964844 7.980469 C 11.09375 7.953125 11.183594 8.058594 11.183594 8.058594 C 11.183594 8.058594 11.136719 7.820312 11.300781 7.578125 Z M 11.414062 7.578125 C 11.414062 7.578125 11.300781 7.644531 11.300781 7.839844 C 11.304688 7.945312 11.414062 8.082031 11.414062 8.082031 C 11.414062 8.082031 11.472656 7.976562 11.59375 7.9375 C 11.71875 7.898438 11.855469 8.007812 11.855469 8.007812 C 11.855469 8.007812 11.804688 7.851562 11.824219 7.726562 C 11.84375 7.605469 11.925781 7.460938 11.925781 7.460938 Z M 12.011719 7.675781 C 12.011719 7.675781 11.972656 7.761719 11.972656 7.859375 C 11.972656 7.957031 12.050781 8.136719 12.050781 8.136719 C 12.050781 8.136719 12.089844 8 12.234375 7.96875 C 12.375 7.9375 12.453125 8.035156 12.453125 8.035156 C 12.453125 8.035156 12.40625 7.9375 12.425781 7.796875 C 12.449219 7.65625 12.589844 7.535156 12.589844 7.535156 Z M 11.203125 8.105469 L 10.714844 8.195312 C 10.714844 8.195312 10.773438 8.351562 10.960938 8.332031 C 11.144531 8.3125 11.203125 8.105469 11.203125 8.105469 Z M 11.882812 8.082031 C 11.882812 8.082031 11.414062 8.105469 11.414062 8.136719 C 11.414062 8.171875 11.457031 8.289062 11.613281 8.261719 C 11.769531 8.234375 11.882812 8.082031 11.882812 8.082031 Z M 12.488281 8.105469 L 12.023438 8.207031 C 12.023438 8.207031 12.089844 8.328125 12.257812 8.292969 C 12.421875 8.261719 12.488281 8.105469 12.488281 8.105469 Z M 12.488281 8.105469 "/>
<path style=" stroke:none;fill-rule:nonzero;fill:rgb(100%,0.392157%,0%);fill-opacity:1;" d="M 10.964844 7.234375 L 10.617188 7.351562 L 10.964844 7.386719 Z M 11.621094 7.125 L 11.277344 7.238281 L 11.621094 7.277344 Z M 12.273438 7.199219 L 11.925781 7.316406 L 12.273438 7.351562 Z M 12.273438 7.199219 "/>
<path style=" stroke:none;fill-rule:nonzero;fill:rgb(0%,14.117647%,49.019608%);fill-opacity:1;" d="M 7.917969 7.5 L 7.917969 2.082031 L 1.667969 2.082031 C 1.535156 2.082031 1.414062 2.101562 1.414062 2.101562 L 1.414062 2.832031 L 0.277344 2.832031 C 0.277344 2.832031 0.257812 2.855469 0.222656 2.917969 C 0.0820312 3.160156 0 3.445312 0 3.75 L 0 7.5 Z M 7.917969 7.5 "/>
<path style=" stroke:none;fill-rule:nonzero;fill:rgb(93.333333%,93.333333%,93.333333%);fill-opacity:1;" d="M 7.917969 2.082031 L 6.945312 2.082031 L 5 3.445312 L 5 2.082031 L 2.917969 2.082031 L 2.917969 3.152344 L 1.414062 2.101562 C 1.160156 2.140625 0.917969 2.238281 0.71875 2.378906 L 2.675781 3.75 L 1.953125 3.75 L 0.402344 2.664062 C 0.355469 2.714844 0.316406 2.773438 0.277344 2.832031 L 1.589844 3.75 L 0 3.75 L 0 5.832031 L 1.617188 5.832031 L 0 6.984375 L 0 7.5 L 1.386719 7.5 L 2.917969 6.429688 L 2.917969 7.5 L 5 7.5 L 5 6.136719 L 6.945312 7.5 L 7.917969 7.5 L 7.917969 6.65625 L 6.742188 5.832031 L 7.917969 5.832031 L 7.917969 3.75 L 6.746094 3.75 L 7.917969 2.929688 Z M 7.917969 2.082031 "/>
<path style=" stroke:none;fill-rule:nonzero;fill:rgb(81.176471%,10.588235%,16.862745%);fill-opacity:1;" d="M 4.582031 2.082031 L 3.332031 2.082031 L 3.332031 4.167969 L 0 4.167969 L 0 5.417969 L 3.332031 5.417969 L 3.332031 7.5 L 4.582031 7.5 L 4.582031 5.417969 L 7.917969 5.417969 L 7.917969 4.167969 L 4.582031 4.167969 Z M 4.582031 2.082031 "/>
<path style=" stroke:none;fill-rule:nonzero;fill:rgb(81.176471%,10.588235%,16.862745%);fill-opacity:1;" d="M 7.917969 2.082031 L 7.308594 2.082031 L 5 3.699219 L 5 3.75 L 5.65625 3.75 L 7.917969 2.164062 Z M 0.71875 2.378906 C 0.601562 2.460938 0.496094 2.554688 0.402344 2.664062 L 1.953125 3.75 L 2.675781 3.75 Z M 2.683594 5.832031 L 0.304688 7.5 L 1.027344 7.5 L 2.917969 6.175781 L 2.917969 5.832031 Z M 7.917969 7.417969 L 7.917969 6.910156 L 6.378906 5.832031 L 5.652344 5.832031 Z M 7.917969 7.417969 "/>
</g>
</svg>
