<?xml version="1.0" encoding="UTF-8"?>
<svg xmlns="http://www.w3.org/2000/svg" xmlns:xlink="http://www.w3.org/1999/xlink" width="15pt" height="15pt" viewBox="0 0 15 15" version="1.1">
<g id="surface1">
<path style=" stroke:none;fill-rule:nonzero;fill:rgb(93.333333%,93.333333%,93.333333%);fill-opacity:1;" d="M 15 11.25 C 15 12.171875 14.253906 12.917969 13.332031 12.917969 L 1.667969 12.917969 C 0.746094 12.917969 0 12.171875 0 11.25 L 0 3.75 C 0 2.828125 0.746094 2.082031 1.667969 2.082031 L 13.332031 2.082031 C 14.253906 2.082031 15 2.828125 15 3.75 Z M 15 11.25 "/>
<path style=" stroke:none;fill-rule:evenodd;fill:rgb(36.078431%,56.862745%,23.137255%);fill-opacity:1;" d="M 5.40625 9.226562 C 5.410156 9.253906 5.402344 9.257812 5.375 9.25 C 5.226562 9.207031 5.097656 9.140625 5.003906 9.015625 C 4.972656 8.972656 4.953125 8.925781 4.941406 8.875 C 4.9375 8.851562 4.941406 8.835938 4.972656 8.84375 C 5.140625 8.886719 5.277344 8.980469 5.375 9.128906 C 5.394531 9.15625 5.40625 9.191406 5.40625 9.226562 Z M 8.933594 9.257812 C 8.925781 9.210938 8.9375 9.167969 8.960938 9.128906 C 9.058594 8.980469 9.195312 8.886719 9.367188 8.84375 C 9.398438 8.835938 9.398438 8.851562 9.394531 8.875 C 9.371094 8.972656 9.316406 9.050781 9.242188 9.113281 C 9.152344 9.1875 9.046875 9.230469 8.933594 9.257812 Z M 9.332031 9.351562 C 9.328125 9.371094 9.316406 9.382812 9.304688 9.390625 C 9.183594 9.503906 9.042969 9.566406 8.875 9.550781 C 8.832031 9.546875 8.792969 9.527344 8.757812 9.503906 C 8.738281 9.488281 8.738281 9.480469 8.757812 9.464844 C 8.820312 9.414062 8.890625 9.378906 8.96875 9.359375 C 9.074219 9.332031 9.183594 9.324219 9.289062 9.339844 C 9.304688 9.34375 9.316406 9.347656 9.332031 9.351562 Z M 5.183594 9.332031 C 5.296875 9.335938 5.425781 9.359375 5.539062 9.433594 C 5.5625 9.449219 5.597656 9.464844 5.59375 9.484375 C 5.589844 9.507812 5.554688 9.519531 5.53125 9.527344 C 5.460938 9.558594 5.390625 9.558594 5.316406 9.542969 C 5.207031 9.515625 5.109375 9.46875 5.03125 9.386719 C 5.019531 9.378906 5.003906 9.367188 5.011719 9.351562 C 5.015625 9.34375 5.03125 9.34375 5.046875 9.339844 C 5.085938 9.332031 5.125 9.332031 5.183594 9.332031 Z M 5.636719 9.171875 C 5.636719 9.210938 5.632812 9.25 5.621094 9.285156 C 5.609375 9.308594 5.601562 9.308594 5.582031 9.296875 C 5.523438 9.253906 5.488281 9.191406 5.464844 9.125 C 5.425781 9.011719 5.40625 8.898438 5.433594 8.78125 C 5.445312 8.742188 5.449219 8.738281 5.476562 8.769531 C 5.585938 8.882812 5.628906 9.019531 5.636719 9.171875 Z M 8.699219 9.160156 C 8.710938 9.019531 8.753906 8.882812 8.859375 8.773438 C 8.890625 8.738281 8.894531 8.738281 8.902344 8.78125 C 8.9375 8.953125 8.90625 9.113281 8.800781 9.253906 C 8.785156 9.277344 8.757812 9.308594 8.734375 9.300781 C 8.707031 9.292969 8.710938 9.253906 8.703125 9.226562 C 8.699219 9.207031 8.703125 9.1875 8.699219 9.160156 Z M 7.773438 9.417969 C 7.785156 9.648438 7.675781 9.8125 7.519531 9.960938 C 7.46875 9.78125 7.558594 9.503906 7.773438 9.417969 Z M 6.820312 9.964844 C 6.671875 9.820312 6.558594 9.664062 6.566406 9.449219 C 6.566406 9.417969 6.574219 9.417969 6.601562 9.433594 C 6.746094 9.519531 6.8125 9.652344 6.828125 9.816406 C 6.832031 9.863281 6.832031 9.910156 6.820312 9.964844 Z M 8.332031 9.171875 C 8.359375 9.25 8.355469 9.332031 8.339844 9.414062 C 8.320312 9.511719 8.28125 9.605469 8.203125 9.675781 C 8.167969 9.710938 8.160156 9.710938 8.140625 9.660156 C 8.117188 9.601562 8.121094 9.535156 8.136719 9.476562 C 8.164062 9.363281 8.21875 9.269531 8.300781 9.191406 C 8.308594 9.183594 8.3125 9.179688 8.320312 9.175781 Z M 6.003906 9.167969 C 6.140625 9.261719 6.238281 9.484375 6.207031 9.625 C 6.199219 9.652344 6.195312 9.691406 6.171875 9.699219 C 6.148438 9.703125 6.128906 9.671875 6.109375 9.652344 C 5.992188 9.511719 5.964844 9.351562 6.003906 9.167969 Z M 8.34375 9.761719 C 8.480469 9.773438 8.597656 9.820312 8.6875 9.925781 C 8.71875 9.960938 8.714844 9.964844 8.671875 9.976562 C 8.558594 10.007812 8.453125 9.976562 8.351562 9.929688 C 8.296875 9.90625 8.246094 9.871094 8.199219 9.828125 C 8.179688 9.8125 8.183594 9.800781 8.207031 9.792969 C 8.25 9.773438 8.296875 9.761719 8.34375 9.761719 Z M 5.992188 9.765625 C 6.039062 9.761719 6.082031 9.773438 6.121094 9.789062 C 6.160156 9.804688 6.160156 9.808594 6.128906 9.835938 C 6.042969 9.910156 5.945312 9.960938 5.832031 9.980469 C 5.777344 9.992188 5.71875 9.992188 5.664062 9.972656 C 5.621094 9.960938 5.621094 9.960938 5.648438 9.925781 C 5.71875 9.84375 5.808594 9.796875 5.910156 9.773438 C 5.9375 9.765625 5.964844 9.765625 5.992188 9.765625 Z M 8.40625 10.109375 C 8.246094 10.183594 8.011719 10.179688 7.898438 10.003906 C 7.878906 9.976562 7.886719 9.96875 7.914062 9.960938 C 8.101562 9.917969 8.261719 9.972656 8.40625 10.109375 Z M 5.933594 10.109375 C 6.023438 10.015625 6.125 9.96875 6.246094 9.949219 C 6.304688 9.941406 6.363281 9.945312 6.417969 9.960938 C 6.460938 9.96875 6.460938 9.972656 6.4375 10.003906 C 6.359375 10.121094 6.246094 10.164062 6.113281 10.152344 C 6.050781 10.152344 5.992188 10.140625 5.933594 10.109375 Z M 6.515625 9.726562 C 6.515625 9.761719 6.507812 9.792969 6.5 9.820312 C 6.488281 9.84375 6.480469 9.847656 6.460938 9.832031 C 6.390625 9.773438 6.34375 9.699219 6.3125 9.617188 C 6.277344 9.53125 6.25 9.445312 6.265625 9.351562 C 6.269531 9.339844 6.269531 9.324219 6.277344 9.320312 C 6.289062 9.316406 6.296875 9.332031 6.308594 9.339844 C 6.398438 9.429688 6.476562 9.527344 6.507812 9.65625 C 6.511719 9.671875 6.515625 9.683594 6.515625 9.699219 Z M 7.820312 9.726562 C 7.820312 9.667969 7.839844 9.609375 7.867188 9.554688 C 7.910156 9.472656 7.96875 9.398438 8.035156 9.332031 C 8.054688 9.316406 8.066406 9.3125 8.070312 9.34375 C 8.085938 9.410156 8.074219 9.472656 8.054688 9.53125 C 8.023438 9.644531 7.972656 9.746094 7.886719 9.824219 C 7.855469 9.851562 7.851562 9.851562 7.835938 9.808594 C 7.824219 9.785156 7.820312 9.753906 7.820312 9.726562 Z M 8.097656 10.308594 C 8.015625 10.316406 7.929688 10.320312 7.847656 10.296875 C 7.734375 10.261719 7.664062 10.183594 7.613281 10.082031 C 7.605469 10.066406 7.601562 10.058594 7.625 10.058594 C 7.820312 10.058594 7.976562 10.140625 8.09375 10.292969 C 8.097656 10.296875 8.097656 10.300781 8.097656 10.304688 C 8.097656 10.304688 8.097656 10.308594 8.097656 10.308594 Z M 6.234375 10.3125 C 6.257812 10.261719 6.292969 10.230469 6.328125 10.199219 C 6.4375 10.109375 6.558594 10.058594 6.699219 10.058594 C 6.722656 10.058594 6.738281 10.058594 6.722656 10.085938 C 6.648438 10.230469 6.535156 10.308594 6.375 10.3125 C 6.328125 10.3125 6.285156 10.3125 6.234375 10.3125 Z M 8.480469 9.507812 C 8.425781 9.425781 8.421875 9.339844 8.445312 9.253906 C 8.464844 9.15625 8.515625 9.074219 8.578125 9 C 8.597656 8.980469 8.605469 8.984375 8.617188 9.003906 C 8.644531 9.0625 8.652344 9.121094 8.640625 9.179688 C 8.621094 9.304688 8.566406 9.414062 8.480469 9.507812 Z M 5.738281 8.984375 C 5.867188 9.097656 5.96875 9.355469 5.859375 9.503906 C 5.714844 9.394531 5.644531 9.097656 5.738281 8.984375 Z M 5.53125 9.761719 C 5.472656 9.761719 5.402344 9.753906 5.339844 9.714844 C 5.304688 9.691406 5.304688 9.6875 5.335938 9.660156 C 5.410156 9.59375 5.5 9.585938 5.59375 9.597656 C 5.664062 9.609375 5.734375 9.628906 5.800781 9.648438 C 5.828125 9.652344 5.824219 9.660156 5.8125 9.675781 C 5.78125 9.710938 5.738281 9.726562 5.695312 9.742188 C 5.644531 9.753906 5.59375 9.761719 5.53125 9.761719 Z M 8.796875 9.761719 C 8.722656 9.761719 8.652344 9.753906 8.589844 9.722656 L 8.566406 9.710938 C 8.546875 9.699219 8.515625 9.683594 8.519531 9.660156 C 8.519531 9.640625 8.554688 9.644531 8.574219 9.636719 C 8.664062 9.613281 8.753906 9.585938 8.847656 9.59375 C 8.90625 9.597656 8.957031 9.621094 9 9.660156 C 9.035156 9.6875 9.035156 9.691406 8.996094 9.714844 C 8.933594 9.753906 8.863281 9.761719 8.796875 9.761719 Z M 8.796875 9.761719 "/>
<path style=" stroke:none;fill-rule:evenodd;fill:rgb(36.078431%,56.862745%,23.137255%);fill-opacity:1;" d="M 7.511719 10.230469 C 7.40625 10.207031 7.300781 10.179688 7.199219 10.15625 C 7.175781 10.148438 7.160156 10.148438 7.136719 10.15625 C 7.035156 10.179688 6.929688 10.207031 6.824219 10.230469 C 6.890625 10.175781 6.964844 10.144531 7.054688 10.117188 L 6.714844 10 C 6.753906 9.992188 6.78125 10.003906 6.808594 10.011719 C 6.917969 10.042969 7.027344 10.066406 7.140625 10.085938 C 7.1875 10.09375 7.230469 10.078125 7.277344 10.070312 C 7.410156 10.046875 7.539062 10.011719 7.671875 9.976562 C 7.546875 10.027344 7.417969 10.070312 7.28125 10.117188 C 7.371094 10.144531 7.445312 10.175781 7.511719 10.230469 Z M 7.511719 10.230469 "/>
<path style=" stroke:none;fill-rule:evenodd;fill:rgb(95.686275%,56.470588%,4.705882%);fill-opacity:1;" d="M 10.738281 4.628906 L 10.675781 4.660156 C 10.566406 4.714844 10.460938 4.785156 10.328125 4.777344 C 10.316406 4.777344 10.300781 4.78125 10.296875 4.796875 C 10.289062 4.839844 10.257812 4.84375 10.226562 4.84375 C 10.160156 4.84375 10.113281 4.871094 10.078125 4.925781 C 10.035156 4.980469 9.984375 5.027344 9.910156 5.042969 C 9.886719 5.046875 9.867188 5.058594 9.84375 5.074219 C 9.785156 5.109375 9.722656 5.125 9.652344 5.121094 C 9.628906 5.117188 9.613281 5.125 9.597656 5.140625 C 9.566406 5.183594 9.53125 5.226562 9.496094 5.269531 C 9.480469 5.289062 9.457031 5.3125 9.429688 5.316406 C 9.335938 5.335938 9.261719 5.394531 9.183594 5.4375 C 9.03125 5.519531 8.878906 5.597656 8.710938 5.640625 C 8.640625 5.65625 8.566406 5.675781 8.496094 5.65625 C 8.441406 5.640625 8.40625 5.660156 8.371094 5.6875 C 8.347656 5.703125 8.324219 5.722656 8.304688 5.742188 C 8.222656 5.816406 8.132812 5.851562 8.023438 5.835938 C 8.003906 5.835938 7.980469 5.835938 7.964844 5.84375 C 7.871094 5.894531 7.769531 5.898438 7.667969 5.914062 C 7.625 5.925781 7.578125 5.910156 7.535156 5.917969 C 7.433594 5.941406 7.332031 5.914062 7.234375 5.90625 C 7.160156 5.898438 7.085938 5.882812 7.011719 5.894531 C 6.964844 5.902344 6.925781 5.890625 6.894531 5.859375 C 6.863281 5.832031 6.828125 5.828125 6.792969 5.851562 C 6.761719 5.867188 6.726562 5.871094 6.695312 5.851562 C 6.660156 5.832031 6.625 5.832031 6.585938 5.84375 C 6.539062 5.855469 6.488281 5.867188 6.441406 5.847656 C 6.328125 5.8125 6.210938 5.785156 6.101562 5.738281 C 6.050781 5.710938 6.050781 5.714844 6.054688 5.773438 C 6.0625 5.84375 6.085938 5.90625 6.082031 5.976562 C 6.078125 6.074219 6.074219 6.171875 6.066406 6.265625 C 6.058594 6.410156 5.984375 6.503906 5.859375 6.574219 C 5.816406 6.597656 5.773438 6.597656 5.726562 6.574219 C 5.640625 6.535156 5.558594 6.488281 5.46875 6.457031 C 5.355469 6.414062 5.242188 6.402344 5.128906 6.453125 C 5.089844 6.46875 5.054688 6.507812 5.007812 6.496094 C 5.003906 6.492188 4.996094 6.5 4.996094 6.503906 C 4.953125 6.546875 4.914062 6.585938 4.898438 6.644531 C 4.875 6.726562 4.839844 6.800781 4.753906 6.839844 C 4.707031 6.863281 4.671875 6.902344 4.621094 6.925781 C 4.554688 6.957031 4.476562 6.960938 4.429688 6.917969 C 4.371094 6.867188 4.289062 6.835938 4.261719 6.753906 C 4.257812 6.738281 4.242188 6.726562 4.230469 6.75 C 4.207031 6.800781 4.1875 6.855469 4.210938 6.914062 C 4.230469 6.953125 4.253906 6.996094 4.285156 7.027344 C 4.296875 7.039062 4.300781 7.050781 4.304688 7.066406 C 4.3125 7.113281 4.316406 7.164062 4.304688 7.210938 C 4.296875 7.238281 4.304688 7.265625 4.316406 7.289062 C 4.328125 7.304688 4.347656 7.332031 4.339844 7.34375 C 4.300781 7.390625 4.335938 7.421875 4.359375 7.457031 C 4.359375 7.460938 4.363281 7.464844 4.363281 7.46875 C 4.363281 7.527344 4.402344 7.546875 4.445312 7.566406 C 4.472656 7.578125 4.5 7.589844 4.507812 7.621094 C 4.53125 7.699219 4.542969 7.785156 4.570312 7.863281 C 4.582031 7.890625 4.585938 7.910156 4.613281 7.925781 C 4.671875 7.957031 4.734375 7.984375 4.769531 8.046875 C 4.789062 8.078125 4.828125 8.089844 4.863281 8.082031 C 4.878906 8.082031 4.894531 8.078125 4.902344 8.089844 C 4.921875 8.117188 4.949219 8.117188 4.972656 8.117188 C 5.03125 8.109375 5.074219 8.132812 5.109375 8.179688 C 5.125 8.203125 5.148438 8.21875 5.175781 8.226562 C 5.238281 8.246094 5.296875 8.265625 5.355469 8.292969 C 5.390625 8.308594 5.425781 8.316406 5.457031 8.289062 C 5.464844 8.285156 5.476562 8.28125 5.488281 8.285156 C 5.542969 8.292969 5.589844 8.277344 5.632812 8.242188 C 5.648438 8.226562 5.671875 8.214844 5.691406 8.226562 C 5.730469 8.242188 5.765625 8.234375 5.800781 8.226562 C 5.839844 8.214844 5.882812 8.210938 5.921875 8.234375 C 5.988281 8.273438 6.035156 8.335938 6.074219 8.402344 C 6.101562 8.441406 6.101562 8.488281 6.09375 8.535156 C 6.09375 8.550781 6.097656 8.554688 6.113281 8.554688 C 6.191406 8.558594 6.273438 8.566406 6.355469 8.574219 C 6.347656 8.546875 6.328125 8.53125 6.3125 8.507812 C 6.28125 8.460938 6.261719 8.410156 6.28125 8.355469 C 6.3125 8.261719 6.378906 8.195312 6.46875 8.152344 C 6.503906 8.132812 6.542969 8.121094 6.582031 8.101562 C 6.683594 8.050781 6.792969 8.054688 6.898438 8.085938 C 6.957031 8.105469 7.023438 8.082031 7.058594 8.039062 C 7.066406 8.027344 7.074219 8.027344 7.085938 8.023438 C 7.113281 8.019531 7.144531 8.015625 7.171875 8.023438 C 7.203125 8.035156 7.226562 8.035156 7.25 8.007812 C 7.261719 7.996094 7.28125 7.992188 7.296875 7.992188 C 7.308594 7.992188 7.316406 7.992188 7.328125 7.980469 C 7.355469 7.953125 7.390625 7.941406 7.429688 7.929688 C 7.4375 7.929688 7.445312 7.929688 7.453125 7.921875 C 7.507812 7.851562 7.589844 7.832031 7.671875 7.816406 C 7.703125 7.808594 7.722656 7.796875 7.742188 7.773438 C 7.800781 7.683594 7.859375 7.664062 7.964844 7.691406 C 7.988281 7.695312 7.996094 7.6875 8.003906 7.667969 C 8.015625 7.628906 8.03125 7.589844 8.066406 7.570312 C 8.089844 7.558594 8.09375 7.542969 8.09375 7.523438 C 8.09375 7.464844 8.09375 7.40625 8.09375 7.347656 C 8.097656 7.210938 8.199219 7.136719 8.304688 7.121094 C 8.367188 7.113281 8.429688 7.117188 8.496094 7.121094 C 8.539062 7.121094 8.578125 7.132812 8.613281 7.15625 C 8.648438 7.179688 8.675781 7.203125 8.710938 7.226562 C 8.742188 7.25 8.777344 7.246094 8.8125 7.226562 C 8.839844 7.210938 8.855469 7.191406 8.847656 7.15625 C 8.839844 7.132812 8.851562 7.128906 8.871094 7.128906 C 8.902344 7.132812 8.933594 7.140625 8.957031 7.121094 C 9.011719 7.085938 9.066406 7.105469 9.121094 7.109375 C 9.144531 7.109375 9.164062 7.109375 9.183594 7.121094 C 9.226562 7.148438 9.285156 7.144531 9.328125 7.183594 C 9.332031 7.183594 9.335938 7.183594 9.351562 7.183594 C 9.328125 7.171875 9.332031 7.15625 9.335938 7.144531 C 9.34375 7.109375 9.335938 7.078125 9.316406 7.046875 C 9.28125 7 9.222656 6.972656 9.214844 6.90625 C 9.210938 6.894531 9.191406 6.882812 9.175781 6.875 C 9.152344 6.855469 9.125 6.835938 9.101562 6.816406 C 9.085938 6.804688 9.070312 6.792969 9.066406 6.773438 C 9.050781 6.699219 8.996094 6.648438 8.945312 6.597656 C 8.84375 6.5 8.800781 6.382812 8.824219 6.242188 C 8.832031 6.195312 8.835938 6.148438 8.867188 6.113281 C 8.894531 6.082031 8.929688 6.058594 8.925781 6.007812 C 8.925781 6.003906 8.929688 5.996094 8.933594 5.992188 C 8.988281 5.949219 9.042969 5.902344 9.121094 5.917969 C 9.15625 5.925781 9.191406 5.925781 9.226562 5.917969 C 9.269531 5.914062 9.308594 5.890625 9.320312 5.839844 C 9.328125 5.8125 9.332031 5.785156 9.34375 5.765625 C 9.417969 5.644531 9.527344 5.554688 9.640625 5.480469 C 9.691406 5.449219 9.746094 5.425781 9.800781 5.402344 C 9.835938 5.386719 9.867188 5.367188 9.90625 5.363281 C 9.929688 5.359375 9.941406 5.347656 9.957031 5.328125 C 10.023438 5.242188 10.09375 5.164062 10.207031 5.132812 C 10.238281 5.125 10.25 5.097656 10.261719 5.070312 C 10.277344 5.03125 10.289062 4.992188 10.324219 4.96875 C 10.433594 4.902344 10.523438 4.804688 10.664062 4.796875 C 10.695312 4.796875 10.710938 4.777344 10.71875 4.75 L 10.746094 4.632812 C 10.746094 4.632812 10.75 4.628906 10.75 4.628906 C 10.746094 4.625 10.742188 4.628906 10.738281 4.628906 Z M 10.738281 4.628906 "/>
</g>
</svg>
