<?xml version="1.0" encoding="UTF-8"?>
<svg xmlns="http://www.w3.org/2000/svg" xmlns:xlink="http://www.w3.org/1999/xlink" width="15pt" height="15pt" viewBox="0 0 15 15" version="1.1">
<g id="surface1">
<path style=" stroke:none;fill-rule:nonzero;fill:rgb(23.137255%,53.333333%,76.470588%);fill-opacity:1;" d="M 15 13.332031 C 15 14.253906 14.253906 15 13.332031 15 L 1.667969 15 C 0.746094 15 0 14.253906 0 13.332031 L 0 1.667969 C 0 0.746094 0.746094 0 1.667969 0 L 13.332031 0 C 14.253906 0 15 0.746094 15 1.667969 Z M 15 13.332031 "/>
<path style=" stroke:none;fill-rule:nonzero;fill:rgb(100%,100%,100%);fill-opacity:1;" d="M 4.375 3.855469 C 4.375 3.234375 4.800781 2.886719 5.394531 2.886719 L 7.875 2.886719 C 9.21875 2.886719 10.304688 3.789062 10.304688 5.160156 C 10.304688 6.0625 9.929688 6.671875 9.101562 7.058594 L 9.101562 7.082031 C 10.199219 7.238281 11.066406 8.15625 11.066406 9.28125 C 11.066406 11.101562 9.851562 12.082031 8.070312 12.082031 L 5.40625 12.082031 C 4.8125 12.082031 4.375 11.710938 4.375 11.101562 Z M 6.3125 6.527344 L 7.320312 6.527344 C 7.953125 6.527344 8.367188 6.152344 8.367188 5.507812 C 8.367188 4.898438 7.886719 4.589844 7.320312 4.589844 L 6.3125 4.589844 Z M 6.3125 10.378906 L 7.835938 10.378906 C 8.535156 10.378906 9.050781 9.976562 9.050781 9.253906 C 9.050781 8.648438 8.585938 8.234375 7.683594 8.234375 L 6.3125 8.234375 Z M 6.3125 10.378906 "/>
</g>
</svg>
