<?xml version="1.0" encoding="UTF-8"?>
<svg xmlns="http://www.w3.org/2000/svg" xmlns:xlink="http://www.w3.org/1999/xlink" width="15pt" height="15pt" viewBox="0 0 15 15" version="1.1">
<g id="surface1">
<path style=" stroke:none;fill-rule:nonzero;fill:rgb(0%,49.803922%,100%);fill-opacity:1;" d="M 1.667969 12.917969 L 13.332031 12.917969 C 14.253906 12.917969 15 12.171875 15 11.25 L 15 4.6875 L 1.339844 12.882812 C 1.445312 12.90625 1.554688 12.917969 1.667969 12.917969 Z M 13.332031 2.082031 L 1.667969 2.082031 C 0.746094 2.082031 0 2.828125 0 3.75 L 0 10.3125 L 13.660156 2.117188 C 13.554688 2.09375 13.445312 2.082031 13.332031 2.082031 Z M 4.011719 6.675781 L 2.738281 5.699219 L 1.460938 6.675781 L 1.949219 5.101562 L 0.675781 4.125 L 2.25 4.125 L 2.738281 2.550781 L 3.226562 4.125 L 4.800781 4.125 L 3.523438 5.101562 Z M 4.011719 6.675781 "/>
<path style=" stroke:none;fill-rule:nonzero;fill:rgb(96.862745%,83.921569%,9.411765%);fill-opacity:1;" d="M 3.226562 4.125 L 2.738281 2.550781 L 2.25 4.125 L 0.675781 4.125 L 1.949219 5.101562 L 1.460938 6.675781 L 2.738281 5.699219 L 4.011719 6.675781 L 3.523438 5.101562 L 4.800781 4.125 Z M 1.339844 12.882812 L 15 4.6875 L 15 4.125 L 0.78125 12.65625 C 0.949219 12.761719 1.136719 12.84375 1.339844 12.882812 Z M 13.660156 2.117188 L 0 10.3125 L 0 10.875 L 14.21875 2.34375 C 14.050781 2.238281 13.863281 2.15625 13.660156 2.117188 Z M 13.660156 2.117188 "/>
<path style=" stroke:none;fill-rule:nonzero;fill:rgb(80.784314%,6.27451%,12.941176%);fill-opacity:1;" d="M 14.21875 2.34375 L 0 10.875 L 0 11.25 C 0 11.84375 0.3125 12.363281 0.78125 12.65625 L 15 4.125 L 15 3.75 C 15 3.15625 14.6875 2.636719 14.21875 2.34375 Z M 14.21875 2.34375 "/>
</g>
</svg>
