<?xml version="1.0" encoding="UTF-8"?>
<svg xmlns="http://www.w3.org/2000/svg" xmlns:xlink="http://www.w3.org/1999/xlink" width="15pt" height="15pt" viewBox="0 0 15 15" version="1.1">
<g id="surface1">
<path style=" stroke:none;fill-rule:nonzero;fill:rgb(98.823529%,86.666667%,3.921569%);fill-opacity:1;" d="M 0 5.417969 L 15 5.417969 L 15 9.582031 L 0 9.582031 Z M 0 5.417969 "/>
<path style=" stroke:none;fill-rule:nonzero;fill:rgb(3.137255%,53.72549%,18.823529%);fill-opacity:1;" d="M 13.332031 2.082031 L 1.667969 2.082031 C 0.746094 2.082031 0 2.828125 0 3.75 L 0 5.417969 L 15 5.417969 L 15 3.75 C 15 2.828125 14.253906 2.082031 13.332031 2.082031 Z M 13.332031 2.082031 "/>
<path style=" stroke:none;fill-rule:nonzero;fill:rgb(85.490196%,7.058824%,9.803922%);fill-opacity:1;" d="M 1.667969 12.917969 L 13.332031 12.917969 C 14.253906 12.917969 15 12.171875 15 11.25 L 15 9.582031 L 0 9.582031 L 0 11.25 C 0 12.171875 0.746094 12.917969 1.667969 12.917969 Z M 1.667969 12.917969 "/>
<path style=" stroke:none;fill-rule:nonzero;fill:rgb(5.882353%,27.843137%,68.627451%);fill-opacity:1;" d="M 11.25 7.5 C 11.25 9.570312 9.570312 11.25 7.5 11.25 C 5.429688 11.25 3.75 9.570312 3.75 7.5 C 3.75 5.429688 5.429688 3.75 7.5 3.75 C 9.570312 3.75 11.25 5.429688 11.25 7.5 Z M 11.25 7.5 "/>
<path style=" stroke:none;fill-rule:nonzero;fill:rgb(98.823529%,86.666667%,3.921569%);fill-opacity:1;" d="M 5.519531 10.195312 L 6.238281 7.890625 L 5.097656 7.0625 L 5.582031 7.0625 L 7.15625 8.269531 L 6.90625 8.417969 L 6.523438 8.074219 L 5.910156 9.910156 Z M 5.519531 10.195312 "/>
<path style=" stroke:none;fill-rule:nonzero;fill:rgb(98.823529%,86.666667%,3.921569%);fill-opacity:1;" d="M 9.421875 10.195312 L 7.449219 8.800781 L 6.316406 9.621094 L 6.464844 9.164062 L 8.117188 7.988281 L 8.179688 8.269531 L 7.710938 8.585938 L 9.269531 9.734375 Z M 9.421875 10.195312 "/>
<path style=" stroke:none;fill-rule:nonzero;fill:rgb(98.823529%,86.666667%,3.921569%);fill-opacity:1;" d="M 10.574219 6.515625 L 8.691406 7.921875 L 9.113281 9.265625 L 8.726562 8.980469 L 8.117188 7.050781 L 8.402344 7.074219 L 8.570312 7.605469 L 10.109375 6.503906 Z M 10.574219 6.515625 "/>
<path style=" stroke:none;fill-rule:nonzero;fill:rgb(98.823529%,86.666667%,3.921569%);fill-opacity:1;" d="M 7.445312 4.195312 L 8.222656 6.480469 L 9.613281 6.503906 L 9.226562 6.785156 L 7.332031 6.769531 L 7.445312 6.503906 L 7.851562 6.476562 L 7.296875 4.65625 Z M 4.25 6.476562 L 6.710938 6.476562 L 7.15625 5.121094 L 7.304688 5.578125 L 6.671875 7.5 L 6.453125 7.308594 L 6.652344 6.738281 L 4.65625 6.75 Z M 7.386719 9.296875 L 7.5625 9.296875 L 7.5625 10.816406 L 7.386719 10.816406 Z M 10.65625 8.425781 L 10.601562 8.59375 L 9.167969 8.109375 L 9.21875 7.945312 Z M 10.65625 8.425781 "/>
<path style=" stroke:none;fill-rule:nonzero;fill:rgb(98.823529%,86.666667%,3.921569%);fill-opacity:1;" d="M 9.363281 4.773438 L 9.503906 4.875 L 8.597656 6.132812 L 8.457031 6.03125 Z M 5.464844 4.875 L 5.605469 4.773438 L 6.511719 6.03125 L 6.371094 6.132812 Z M 4.367188 8.59375 L 4.3125 8.425781 L 5.75 7.945312 L 5.804688 8.109375 Z M 4.367188 8.59375 "/>
</g>
</svg>
