<?xml version="1.0" encoding="UTF-8"?>
<svg xmlns="http://www.w3.org/2000/svg" xmlns:xlink="http://www.w3.org/1999/xlink" width="15pt" height="15pt" viewBox="0 0 15 15" version="1.1">
<g id="surface1">
<path style=" stroke:none;fill-rule:nonzero;fill:rgb(83.529412%,16.862745%,11.764706%);fill-opacity:1;" d="M 1.667969 2.082031 C 0.746094 2.082031 0 2.828125 0 3.75 L 0 11.25 C 0 12.171875 0.746094 12.917969 1.667969 12.917969 L 4.167969 12.917969 L 4.167969 2.082031 Z M 13.332031 2.082031 L 10.832031 2.082031 L 10.832031 12.917969 L 13.332031 12.917969 C 14.253906 12.917969 15 12.171875 15 11.25 L 15 3.75 C 15 2.828125 14.253906 2.082031 13.332031 2.082031 Z M 13.332031 2.082031 "/>
<path style=" stroke:none;fill-rule:nonzero;fill:rgb(93.333333%,93.333333%,93.333333%);fill-opacity:1;" d="M 4.167969 2.082031 L 10.832031 2.082031 L 10.832031 12.917969 L 4.167969 12.917969 Z M 4.167969 2.082031 "/>
<path style=" stroke:none;fill-rule:nonzero;fill:rgb(83.529412%,16.862745%,11.764706%);fill-opacity:1;" d="M 7.757812 9.214844 C 8.253906 9.273438 8.703125 9.324219 9.203125 9.378906 L 9.074219 8.964844 C 9.054688 8.890625 9.082031 8.808594 9.140625 8.765625 L 10.589844 7.585938 L 10.289062 7.441406 C 10.160156 7.394531 10.195312 7.320312 10.242188 7.140625 L 10.464844 6.335938 L 9.621094 6.511719 C 9.539062 6.527344 9.484375 6.472656 9.472656 6.421875 L 9.363281 6.042969 L 8.699219 6.792969 C 8.601562 6.910156 8.410156 6.910156 8.472656 6.636719 L 8.753906 5.121094 L 8.375 5.320312 C 8.265625 5.378906 8.160156 5.390625 8.101562 5.28125 L 7.574219 4.296875 L 7.574219 4.320312 L 7.574219 4.296875 L 7.046875 5.28125 C 6.984375 5.390625 6.878906 5.378906 6.773438 5.320312 L 6.390625 5.121094 L 6.675781 6.636719 C 6.734375 6.910156 6.542969 6.910156 6.449219 6.792969 L 5.78125 6.042969 L 5.671875 6.425781 C 5.660156 6.472656 5.605469 6.527344 5.523438 6.515625 L 4.683594 6.335938 L 4.902344 7.140625 C 4.949219 7.320312 4.988281 7.394531 4.855469 7.441406 L 4.554688 7.585938 L 6.003906 8.765625 C 6.0625 8.808594 6.089844 8.890625 6.070312 8.964844 L 5.941406 9.382812 L 7.390625 9.214844 C 7.433594 9.214844 7.460938 9.238281 7.460938 9.289062 L 7.371094 10.832031 L 7.769531 10.832031 L 7.683594 9.289062 C 7.683594 9.238281 7.710938 9.214844 7.757812 9.214844 Z M 7.757812 9.214844 "/>
</g>
</svg>
