<?xml version="1.0" encoding="UTF-8"?>
<svg xmlns="http://www.w3.org/2000/svg" xmlns:xlink="http://www.w3.org/1999/xlink" width="15pt" height="15pt" viewBox="0 0 15 15" version="1.1">
<g id="surface1">
<path style=" stroke:none;fill-rule:nonzero;fill:rgb(82.352941%,10.980392%,20%);fill-opacity:1;" d="M 15 11.25 C 15 12.171875 14.253906 12.917969 13.332031 12.917969 L 1.667969 12.917969 C 0.746094 12.917969 0 12.171875 0 11.25 L 0 3.75 C 0 2.828125 0.746094 2.082031 1.667969 2.082031 L 13.332031 2.082031 C 14.253906 2.082031 15 2.828125 15 3.75 Z M 15 11.25 "/>
<path style=" stroke:none;fill-rule:nonzero;fill:rgb(0%,12.54902%,62.352941%);fill-opacity:1;" d="M 13.332031 2.082031 L 1.667969 2.082031 C 0.746094 2.082031 0 2.828125 0 3.75 L 0 7.5 L 15 7.5 L 15 3.75 C 15 2.828125 14.253906 2.082031 13.332031 2.082031 Z M 13.332031 2.082031 "/>
<path style=" stroke:none;fill-rule:nonzero;fill:rgb(100%,100%,100%);fill-opacity:1;" d="M 5 5.433594 L 9.960938 5.433594 L 9.960938 9.582031 L 5 9.582031 Z M 5 5.433594 "/>
<path style=" stroke:none;fill-rule:nonzero;fill:rgb(0%,41.568627%,8.627451%);fill-opacity:1;" d="M 9.960938 9.007812 C 9.335938 8.691406 8.492188 8.492188 7.503906 8.492188 C 6.515625 8.492188 5.625 8.691406 5 9.007812 L 5 9.582031 L 9.960938 9.582031 Z M 9.960938 9.007812 "/>
<path style=" stroke:none;fill-rule:nonzero;fill:rgb(0%,12.54902%,62.352941%);fill-opacity:1;" d="M 6.46875 6.964844 L 6.953125 7.511719 L 6.890625 7.855469 L 6.789062 7.796875 L 6.691406 8.152344 L 6.667969 8.152344 L 6.625 8.34375 L 5.800781 8.273438 L 5.820312 7.683594 L 6.019531 7.742188 L 6.042969 7.191406 L 6.332031 7.386719 L 6.34375 7.054688 Z M 6.46875 6.964844 "/>
<path style=" stroke:none;fill-rule:nonzero;fill:rgb(82.352941%,10.980392%,20%);fill-opacity:1;" d="M 7.503906 8.035156 L 7.503906 8.867188 L 6.878906 8.683594 L 6.71875 8.453125 L 6.609375 8.371094 L 6.667969 8.160156 L 6.761719 7.796875 L 6.90625 7.796875 L 6.941406 7.488281 Z M 5.703125 7.65625 C 5.78125 7.566406 5.917969 7.628906 5.921875 7.65625 C 5.929688 7.6875 5.867188 7.679688 5.8125 7.730469 C 5.757812 7.78125 5.773438 7.933594 5.679688 7.914062 C 5.585938 7.894531 5.703125 7.65625 5.703125 7.65625 Z M 6.042969 7.191406 C 6.136719 7.128906 6.253906 7.222656 6.253906 7.253906 C 6.25 7.28125 6.191406 7.261719 6.125 7.292969 C 6.058594 7.328125 6.03125 7.480469 5.945312 7.433594 C 5.863281 7.386719 6.042969 7.191406 6.042969 7.191406 Z M 6.441406 6.90625 C 6.542969 6.855469 6.648438 6.964844 6.640625 6.996094 C 6.632812 7.023438 6.558594 6.972656 6.488281 6.996094 C 6.421875 7.019531 6.390625 7.191406 6.3125 7.132812 C 6.234375 7.078125 6.441406 6.90625 6.441406 6.90625 Z M 6.441406 6.90625 "/>
<path style=" stroke:none;fill-rule:nonzero;fill:rgb(94.509804%,70.980392%,9.019608%);fill-opacity:1;" d="M 6.226562 6.675781 L 6.550781 6.871094 L 6.515625 6.964844 L 7.382812 7.929688 L 7.382812 8.003906 L 6.480469 6.992188 L 6.363281 6.972656 Z M 5.765625 6.964844 C 5.765625 6.964844 6.085938 7.089844 6.085938 7.105469 C 6.085938 7.121094 6.148438 7.21875 6.148438 7.21875 L 7.324219 8.171875 L 7.289062 8.21875 L 6.121094 7.265625 L 5.953125 7.191406 Z M 5.421875 7.457031 C 5.421875 7.457031 5.792969 7.507812 5.800781 7.523438 C 5.804688 7.539062 5.828125 7.621094 5.828125 7.621094 L 7.195312 8.367188 L 7.136719 8.402344 L 5.804688 7.667969 L 5.652344 7.65625 Z M 5.421875 7.457031 "/>
<path style=" stroke:none;fill-rule:nonzero;fill:rgb(94.509804%,70.980392%,9.019608%);fill-opacity:1;" d="M 5.746094 8.164062 L 7.148438 8.335938 L 7.015625 8.496094 L 6.808594 8.515625 L 6.960938 8.722656 L 6.886719 8.808594 L 6.679688 8.582031 C 6.679688 8.582031 6.613281 8.914062 6.332031 8.914062 C 6.046875 8.914062 5.957031 8.628906 5.957031 8.535156 C 5.957031 8.441406 5.984375 8.390625 5.984375 8.390625 L 5.714844 8.390625 Z M 5.746094 8.164062 "/>
<path style=" stroke:none;fill-rule:nonzero;fill:rgb(0%,12.54902%,62.352941%);fill-opacity:1;" d="M 8.519531 6.9375 L 8.011719 7.539062 L 8.03125 7.886719 L 8.164062 7.796875 L 8.257812 8.152344 L 8.28125 8.152344 L 8.328125 8.34375 L 9.152344 8.273438 L 9.128906 7.683594 L 8.933594 7.742188 L 8.90625 7.191406 L 8.621094 7.386719 L 8.605469 7.054688 Z M 8.519531 6.9375 "/>
<path style=" stroke:none;fill-rule:nonzero;fill:rgb(82.352941%,10.980392%,20%);fill-opacity:1;" d="M 7.503906 8.035156 L 7.503906 8.867188 L 8.101562 8.683594 L 8.246094 8.453125 L 8.347656 8.371094 L 8.285156 8.160156 L 8.1875 7.796875 L 8.078125 7.878906 L 8.039062 7.539062 Z M 9.246094 7.65625 C 9.171875 7.566406 9.03125 7.628906 9.027344 7.65625 C 9.019531 7.6875 9.082031 7.679688 9.136719 7.730469 C 9.191406 7.78125 9.175781 7.933594 9.269531 7.914062 C 9.363281 7.894531 9.246094 7.65625 9.246094 7.65625 Z M 8.90625 7.191406 C 8.8125 7.128906 8.695312 7.222656 8.699219 7.253906 C 8.703125 7.28125 8.757812 7.261719 8.824219 7.292969 C 8.890625 7.328125 8.917969 7.480469 9.003906 7.433594 C 9.089844 7.386719 8.90625 7.191406 8.90625 7.191406 Z M 8.511719 6.90625 C 8.40625 6.855469 8.304688 6.964844 8.308594 6.996094 C 8.316406 7.023438 8.390625 6.972656 8.460938 6.996094 C 8.53125 7.019531 8.558594 7.191406 8.636719 7.132812 C 8.714844 7.078125 8.511719 6.90625 8.511719 6.90625 Z M 8.511719 6.90625 "/>
<path style=" stroke:none;fill-rule:nonzero;fill:rgb(94.509804%,70.980392%,9.019608%);fill-opacity:1;" d="M 8.722656 6.675781 L 8.402344 6.871094 L 8.464844 6.964844 L 7.621094 7.929688 L 7.621094 8.003906 L 8.496094 6.992188 L 8.601562 6.972656 Z M 9.183594 6.964844 C 9.183594 6.964844 8.863281 7.089844 8.863281 7.105469 C 8.863281 7.121094 8.804688 7.21875 8.804688 7.21875 L 7.625 8.171875 L 7.660156 8.21875 L 8.828125 7.265625 L 8.996094 7.191406 Z M 9.527344 7.457031 C 9.527344 7.457031 9.15625 7.507812 9.152344 7.523438 C 9.144531 7.539062 9.121094 7.621094 9.121094 7.621094 L 7.753906 8.367188 L 7.816406 8.402344 L 9.144531 7.667969 L 9.300781 7.65625 Z M 9.527344 7.457031 "/>
<path style=" stroke:none;fill-rule:nonzero;fill:rgb(94.509804%,70.980392%,9.019608%);fill-opacity:1;" d="M 9.207031 8.164062 L 7.804688 8.335938 L 7.9375 8.496094 L 8.144531 8.515625 L 7.988281 8.722656 L 8.0625 8.808594 L 8.273438 8.582031 C 8.273438 8.582031 8.335938 8.914062 8.621094 8.914062 C 8.902344 8.914062 8.992188 8.628906 8.992188 8.535156 C 8.992188 8.441406 8.96875 8.390625 8.96875 8.390625 L 9.234375 8.390625 Z M 9.207031 8.164062 "/>
<path style=" stroke:none;fill-rule:nonzero;fill:rgb(100%,100%,100%);fill-opacity:1;" d="M 9.523438 9.226562 C 9.523438 9.226562 9.277344 9.234375 9.019531 9.179688 C 8.761719 9.121094 8.71875 9.023438 8.605469 9.042969 C 8.496094 9.066406 8.234375 9.164062 8.023438 9.191406 C 7.808594 9.21875 7.503906 9.226562 7.503906 9.226562 C 7.503906 9.226562 7.21875 9.21875 7.007812 9.191406 C 6.792969 9.164062 6.558594 9.066406 6.445312 9.042969 C 6.332031 9.023438 6.289062 9.121094 6.03125 9.179688 C 5.773438 9.234375 5.527344 9.226562 5.527344 9.226562 L 5.59375 9.34375 L 5.527344 9.402344 C 6.109375 9.414062 6.378906 9.226562 6.378906 9.226562 C 6.671875 9.417969 7.503906 9.425781 7.503906 9.425781 C 7.503906 9.425781 8.359375 9.417969 8.652344 9.226562 C 8.652344 9.226562 8.933594 9.414062 9.515625 9.402344 L 9.453125 9.34375 Z M 9.523438 9.226562 "/>
<path style=" stroke:none;fill-rule:nonzero;fill:rgb(94.509804%,70.980392%,9.019608%);fill-opacity:1;" d="M 7.621094 7.457031 C 7.621094 8.078125 7.566406 8.582031 7.5 8.582031 C 7.433594 8.582031 7.378906 8.078125 7.378906 7.457031 C 7.378906 6.835938 7.433594 6.332031 7.5 6.332031 C 7.566406 6.332031 7.621094 6.835938 7.621094 7.457031 Z M 7.621094 7.457031 "/>
<path style=" stroke:none;fill-rule:nonzero;fill:rgb(82.352941%,10.980392%,20%);fill-opacity:1;" d="M 7.265625 8.511719 L 7.742188 8.511719 L 7.742188 8.988281 L 7.265625 8.988281 Z M 7.265625 8.511719 "/>
<path style=" stroke:none;fill-rule:nonzero;fill:rgb(100%,100%,100%);fill-opacity:1;" d="M 7.769531 8.480469 C 7.769531 8.535156 7.65625 8.578125 7.515625 8.578125 C 7.375 8.578125 7.257812 8.535156 7.257812 8.480469 C 7.257812 8.425781 7.375 8.382812 7.515625 8.382812 C 7.65625 8.382812 7.769531 8.425781 7.769531 8.480469 Z M 7.769531 8.480469 "/>
<path style=" stroke:none;fill-rule:nonzero;fill:rgb(82.352941%,10.980392%,20%);fill-opacity:1;" d="M 7.769531 8.957031 C 7.769531 9.011719 7.65625 9.058594 7.515625 9.058594 C 7.375 9.058594 7.257812 9.011719 7.257812 8.957031 C 7.257812 8.902344 7.375 8.859375 7.515625 8.859375 C 7.65625 8.859375 7.769531 8.902344 7.769531 8.957031 Z M 7.769531 8.957031 "/>
<path style=" stroke:none;fill-rule:nonzero;fill:rgb(0%,41.568627%,8.627451%);fill-opacity:1;" d="M 8.546875 6.121094 C 8.453125 6.007812 8.207031 6.011719 8.039062 6.007812 C 7.875 6.003906 7.789062 6.0625 7.863281 5.984375 C 7.9375 5.90625 8.054688 5.925781 8.175781 5.917969 C 8.296875 5.914062 8.316406 5.898438 8.242188 5.859375 C 8.167969 5.820312 8.039062 5.769531 7.863281 5.816406 C 7.695312 5.859375 7.585938 5.964844 7.496094 5.984375 C 7.40625 5.964844 7.289062 5.859375 7.121094 5.816406 C 6.945312 5.769531 6.8125 5.820312 6.738281 5.859375 C 6.664062 5.898438 6.683594 5.914062 6.804688 5.917969 C 6.925781 5.925781 7.039062 5.902344 7.113281 5.984375 C 7.191406 6.0625 7.105469 6.003906 6.9375 6.007812 C 6.773438 6.011719 6.527344 6.007812 6.429688 6.121094 C 6.335938 6.238281 6.515625 6.160156 6.609375 6.148438 C 6.703125 6.132812 6.84375 6.128906 6.84375 6.128906 C 6.84375 6.128906 6.609375 6.195312 6.542969 6.285156 C 6.480469 6.375 6.5625 6.453125 6.683594 6.386719 C 6.800781 6.316406 6.984375 6.222656 7.085938 6.210938 C 7.085938 6.210938 6.828125 6.320312 6.714844 6.410156 C 6.597656 6.503906 6.71875 6.496094 6.804688 6.496094 C 6.890625 6.496094 6.980469 6.460938 7.054688 6.40625 C 7.128906 6.351562 7.007812 6.515625 6.984375 6.621094 C 6.964844 6.722656 7.121094 6.699219 7.148438 6.621094 C 7.175781 6.539062 7.265625 6.378906 7.265625 6.378906 C 7.265625 6.378906 7.222656 6.609375 7.230469 6.761719 C 7.234375 6.917969 7.285156 6.925781 7.324219 6.859375 C 7.363281 6.789062 7.503906 6.898438 7.503906 6.898438 C 7.503906 6.898438 7.628906 6.789062 7.667969 6.859375 C 7.707031 6.925781 7.746094 6.917969 7.75 6.761719 C 7.753906 6.609375 7.714844 6.378906 7.714844 6.378906 C 7.714844 6.378906 7.804688 6.539062 7.832031 6.621094 C 7.859375 6.699219 8.011719 6.722656 7.992188 6.621094 C 7.972656 6.515625 7.847656 6.351562 7.921875 6.40625 C 7.996094 6.460938 8.085938 6.496094 8.171875 6.496094 C 8.261719 6.496094 8.378906 6.503906 8.265625 6.410156 C 8.152344 6.320312 7.894531 6.210938 7.894531 6.210938 C 7.992188 6.222656 8.175781 6.316406 8.296875 6.386719 C 8.414062 6.453125 8.5 6.375 8.433594 6.285156 C 8.371094 6.195312 8.136719 6.128906 8.136719 6.128906 C 8.136719 6.128906 8.277344 6.132812 8.371094 6.148438 C 8.464844 6.164062 8.644531 6.238281 8.546875 6.121094 Z M 8.546875 6.121094 "/>
</g>
</svg>
