<?xml version="1.0" encoding="UTF-8"?>
<svg xmlns="http://www.w3.org/2000/svg" xmlns:xlink="http://www.w3.org/1999/xlink" width="15pt" height="15pt" viewBox="0 0 15 15" version="1.1">
<g id="surface1">
<path style=" stroke:none;fill-rule:nonzero;fill:rgb(23.137255%,53.333333%,76.470588%);fill-opacity:1;" d="M 15 13.332031 C 15 14.253906 14.253906 15 13.332031 15 L 1.667969 15 C 0.746094 15 0 14.253906 0 13.332031 L 0 1.667969 C 0 0.746094 0.746094 0 1.667969 0 L 13.332031 0 C 14.253906 0 15 0.746094 15 1.667969 Z M 15 13.332031 "/>
<path style=" stroke:none;fill-rule:nonzero;fill:rgb(100%,100%,100%);fill-opacity:1;" d="M 5.214844 3.890625 C 5.214844 3.363281 5.574219 2.886719 6.222656 2.886719 L 9.527344 2.886719 C 10.097656 2.886719 10.394531 3.324219 10.394531 3.777344 C 10.394531 4.214844 10.109375 4.667969 9.527344 4.667969 L 7.152344 4.667969 L 7.152344 6.554688 L 9.152344 6.554688 C 9.773438 6.554688 10.085938 6.992188 10.085938 7.433594 C 10.085938 7.882812 9.773438 8.335938 9.152344 8.335938 L 7.152344 8.335938 L 7.152344 11.152344 C 7.152344 11.800781 6.738281 12.160156 6.183594 12.160156 C 5.625 12.160156 5.214844 11.800781 5.214844 11.152344 Z M 5.214844 3.890625 "/>
</g>
</svg>
