<?xml version="1.0" encoding="UTF-8"?>
<svg xmlns="http://www.w3.org/2000/svg" xmlns:xlink="http://www.w3.org/1999/xlink" width="15pt" height="15pt" viewBox="0 0 15 15" version="1.1">
<g id="surface1">
<path style=" stroke:none;fill-rule:nonzero;fill:rgb(7.843137%,7.843137%,7.843137%);fill-opacity:1;" d="M 13.332031 2.082031 L 1.667969 2.082031 C 0.746094 2.082031 0 2.828125 0 3.75 L 0 5.625 L 15 5.625 L 15 3.75 C 15 2.828125 14.253906 2.082031 13.332031 2.082031 Z M 13.332031 2.082031 "/>
<path style=" stroke:none;fill-rule:nonzero;fill:rgb(0%,47.843137%,23.921569%);fill-opacity:1;" d="M 0 11.25 C 0 12.171875 0.746094 12.917969 1.667969 12.917969 L 13.332031 12.917969 C 14.253906 12.917969 15 12.171875 15 11.25 L 15 9.375 L 0 9.375 Z M 0 11.25 "/>
<path style=" stroke:none;fill-rule:nonzero;fill:rgb(93.333333%,93.333333%,93.333333%);fill-opacity:1;" d="M 0 5.625 L 15 5.625 L 15 9.375 L 0 9.375 Z M 0 5.625 "/>
<path style=" stroke:none;fill-rule:nonzero;fill:rgb(80.784314%,6.666667%,14.901961%);fill-opacity:1;" d="M 0.5625 2.5 C 0.21875 2.808594 0 3.253906 0 3.75 L 0 11.25 C 0 11.746094 0.21875 12.191406 0.5625 12.5 L 7.292969 7.5 Z M 0.5625 2.5 "/>
<path style=" stroke:none;fill-rule:nonzero;fill:rgb(100%,100%,100%);fill-opacity:1;" d="M 2.761719 8.058594 L 3.203125 8.464844 L 3.15625 7.867188 L 3.75 7.777344 L 3.253906 7.4375 L 3.554688 6.917969 L 2.980469 7.09375 L 2.761719 6.535156 L 2.542969 7.09375 L 1.96875 6.917969 L 2.265625 7.4375 L 1.773438 7.777344 L 2.363281 7.867188 L 2.320312 8.464844 Z M 2.761719 8.058594 "/>
</g>
</svg>
