<?xml version="1.0" encoding="UTF-8"?>
<svg xmlns="http://www.w3.org/2000/svg" xmlns:xlink="http://www.w3.org/1999/xlink" width="15pt" height="15pt" viewBox="0 0 15 15" version="1.1">
<g id="surface1">
<path style=" stroke:none;fill-rule:nonzero;fill:rgb(80%,12.941176%,17.647059%);fill-opacity:1;" d="M 13.332031 2.082031 L 1.667969 2.082031 C 0.746094 2.082031 0 2.828125 0 3.75 L 0 5.832031 L 15 5.832031 L 15 3.75 C 15 2.828125 14.253906 2.082031 13.332031 2.082031 Z M 13.332031 2.082031 "/>
<path style=" stroke:none;fill-rule:nonzero;fill:rgb(98.431373%,81.960784%,8.627451%);fill-opacity:1;" d="M 6.425781 9.167969 L 8.585938 9.167969 L 7.507812 8.382812 Z M 7.921875 7.109375 L 9.261719 7.109375 L 8.175781 7.894531 L 8.589844 9.167969 L 15 9.167969 L 15 5.832031 L 7.507812 5.832031 Z M 6.835938 7.894531 L 5.753906 7.109375 L 7.09375 7.109375 L 7.507812 5.832031 L 0 5.832031 L 0 9.167969 L 6.421875 9.167969 Z M 6.835938 7.894531 "/>
<path style=" stroke:none;fill-rule:nonzero;fill:rgb(15.686275%,52.156863%,25.490196%);fill-opacity:1;" d="M 8.589844 9.167969 L 0 9.167969 L 0 11.25 C 0 12.171875 0.746094 12.917969 1.667969 12.917969 L 13.332031 12.917969 C 14.253906 12.917969 15 12.171875 15 11.25 L 15 9.167969 Z M 8.589844 9.167969 "/>
<path style=" stroke:none;fill-rule:nonzero;fill:rgb(0%,0%,0%);fill-opacity:1;" d="M 5.753906 7.109375 L 6.835938 7.894531 L 6.421875 9.167969 L 6.425781 9.167969 L 7.507812 8.382812 L 8.585938 9.167969 L 8.589844 9.167969 L 8.175781 7.894531 L 9.261719 7.109375 L 7.921875 7.109375 L 7.507812 5.832031 L 7.09375 7.109375 Z M 5.753906 7.109375 "/>
</g>
</svg>
