<?xml version="1.0" encoding="UTF-8"?>
<svg xmlns="http://www.w3.org/2000/svg" xmlns:xlink="http://www.w3.org/1999/xlink" width="15pt" height="15pt" viewBox="0 0 15 15" version="1.1">
<g id="surface1">
<path style=" stroke:none;fill-rule:nonzero;fill:rgb(0%,12.941176%,67.843137%);fill-opacity:1;" d="M 15 11.25 C 15 12.171875 14.253906 12.917969 13.332031 12.917969 L 1.667969 12.917969 C 0.746094 12.917969 0 12.171875 0 11.25 L 0 3.75 C 0 2.828125 0.746094 2.082031 1.667969 2.082031 L 13.332031 2.082031 C 14.253906 2.082031 15 2.828125 15 3.75 Z M 15 11.25 "/>
<path style=" stroke:none;fill-rule:nonzero;fill:rgb(10.588235%,54.117647%,25.882353%);fill-opacity:1;" d="M 14.425781 12.5 C 14.773438 12.195312 15 11.75 15 11.25 L 15 3.75 C 15 2.828125 14.253906 2.082031 13.332031 2.082031 L 1.667969 2.082031 C 1.246094 2.082031 0.867188 2.242188 0.574219 2.5 Z M 14.425781 12.5 "/>
<path style=" stroke:none;fill-rule:nonzero;fill:rgb(100%,100%,100%);fill-opacity:1;" d="M 3.550781 9.277344 L 3.621094 9.519531 L 3.863281 9.519531 L 3.671875 9.667969 L 3.742188 9.902344 L 3.550781 9.753906 L 3.355469 9.898438 L 3.425781 9.667969 L 3.234375 9.519531 L 3.472656 9.519531 Z M 2.910156 6.566406 L 2.628906 6.828125 L 2.65625 6.441406 L 2.277344 6.386719 L 2.59375 6.167969 L 2.402344 5.832031 L 2.769531 5.945312 L 2.910156 5.589844 L 3.054688 5.945312 L 3.421875 5.832031 L 3.230469 6.167969 L 3.546875 6.386719 L 3.167969 6.441406 L 3.195312 6.828125 Z M 1.402344 8.777344 L 1.121094 9.039062 L 1.148438 8.65625 L 0.765625 8.597656 L 1.085938 8.382812 L 0.894531 8.046875 L 1.261719 8.160156 L 1.402344 7.800781 L 1.542969 8.160156 L 1.910156 8.046875 L 1.71875 8.382812 L 2.039062 8.597656 L 1.65625 8.65625 L 1.683594 9.039062 Z M 4.363281 8.597656 L 4.082031 8.859375 L 4.109375 8.472656 L 3.730469 8.414062 L 4.046875 8.199219 L 3.855469 7.863281 L 4.222656 7.976562 L 4.363281 7.621094 L 4.503906 7.976562 L 4.875 7.863281 L 4.683594 8.199219 L 5 8.414062 L 4.621094 8.472656 L 4.648438 8.859375 Z M 2.886719 11.820312 L 2.605469 12.082031 L 2.632812 11.699219 L 2.25 11.640625 L 2.570312 11.421875 L 2.378906 11.089844 L 2.746094 11.203125 L 2.886719 10.84375 L 3.027344 11.203125 L 3.394531 11.089844 L 3.203125 11.421875 L 3.523438 11.640625 L 3.140625 11.699219 L 3.167969 12.082031 Z M 2.886719 11.820312 "/>
<path style=" stroke:none;fill-rule:nonzero;fill:rgb(100%,77.647059%,22.352941%);fill-opacity:1;" d="M 6.015625 7.5 C 6.015625 6.679688 6.679688 6.015625 7.5 6.015625 C 8.320312 6.015625 8.984375 6.679688 8.984375 7.5 C 8.984375 8.320312 8.320312 8.984375 7.5 8.984375 C 6.679688 8.984375 6.015625 8.320312 6.015625 7.5 Z M 6.015625 7.5 "/>
<path style=" stroke:none;fill-rule:nonzero;fill:rgb(10.588235%,54.117647%,25.882353%);fill-opacity:1;" d="M 6.609375 6.816406 C 6.609375 6.816406 7.0625 7.234375 7.292969 7.253906 C 7.671875 7.28125 8.035156 6.964844 8.035156 6.734375 L 8.390625 6.582031 L 8.390625 7.050781 L 8.730469 7.28125 L 8.09375 7.867188 L 8.09375 8.566406 L 7.714844 8.472656 L 7.683594 7.988281 C 7.683594 7.988281 7.667969 7.800781 7.433594 7.800781 C 7.203125 7.800781 7.019531 7.789062 6.972656 7.660156 C 6.957031 7.628906 6.339844 7.75 6.339844 7.75 L 6.742188 7.191406 L 6.609375 7.050781 Z M 6.609375 6.816406 "/>
<path style=" stroke:none;fill-rule:nonzero;fill:rgb(100%,77.647059%,22.352941%);fill-opacity:1;" d="M 12.339844 2.714844 C 12.4375 2.640625 13.34375 3.535156 13.453125 3.710938 C 13.558594 3.882812 13.515625 4.53125 13.625 4.820312 C 13.734375 5.113281 13.828125 5.179688 13.9375 5.113281 C 14.046875 5.046875 14.425781 5.113281 14.476562 5.253906 C 14.476562 5.253906 14.175781 5.4375 14.152344 5.566406 C 14.152344 5.566406 13.191406 5.902344 12.640625 6.183594 C 12.09375 6.464844 12.234375 6.320312 11.777344 6.515625 C 11.109375 6.808594 10.503906 6.667969 10.0625 6.601562 C 9.621094 6.539062 9.75 6.441406 10.0625 6.484375 C 10.375 6.527344 11.3125 6.429688 11.5625 6.34375 C 11.8125 6.257812 12.296875 5.871094 12.503906 5.773438 C 12.707031 5.675781 12.964844 5.320312 12.738281 5.101562 C 12.511719 4.886719 11.832031 4.582031 11.5625 4.292969 C 11.292969 4 11.292969 3.957031 11.714844 4.023438 C 12.136719 4.085938 12.503906 4.308594 12.707031 4.511719 C 12.921875 4.726562 13.117188 4.449219 12.984375 4.105469 C 12.855469 3.757812 12.675781 3.796875 12.554688 3.480469 C 12.4375 3.167969 12.242188 2.792969 12.339844 2.714844 Z M 12.339844 2.714844 "/>
</g>
</svg>
