<?xml version="1.0" encoding="UTF-8"?>
<svg xmlns="http://www.w3.org/2000/svg" xmlns:xlink="http://www.w3.org/1999/xlink" width="15pt" height="15pt" viewBox="0 0 15 15" version="1.1">
<g id="surface1">
<path style=" stroke:none;fill-rule:nonzero;fill:rgb(93.333333%,93.333333%,93.333333%);fill-opacity:1;" d="M 13.332031 2.082031 L 8.542969 2.082031 L 8.542969 6.457031 L 15 6.457031 L 15 3.75 C 15 2.828125 14.253906 2.082031 13.332031 2.082031 Z M 13.332031 2.082031 "/>
<path style=" stroke:none;fill-rule:nonzero;fill:rgb(90.980392%,6.666667%,17.647059%);fill-opacity:1;" d="M 8.542969 2.082031 L 6.457031 2.082031 L 6.457031 6.457031 L 0 6.457031 L 0 8.542969 L 6.457031 8.542969 L 6.457031 12.917969 L 8.542969 12.917969 L 8.542969 8.542969 L 15 8.542969 L 15 6.457031 L 8.542969 6.457031 Z M 8.542969 2.082031 "/>
<path style=" stroke:none;fill-rule:nonzero;fill:rgb(90.980392%,6.666667%,17.647059%);fill-opacity:1;" d="M 12.046875 3.992188 C 12.0625 3.734375 12.089844 3.476562 12.140625 3.21875 C 11.894531 3.25 11.648438 3.25 11.402344 3.21875 C 11.453125 3.476562 11.480469 3.734375 11.496094 3.992188 C 11.234375 3.980469 10.976562 3.949219 10.71875 3.902344 C 10.75 4.148438 10.75 4.394531 10.71875 4.640625 C 10.976562 4.589844 11.234375 4.558594 11.496094 4.546875 C 11.480469 4.808594 11.453125 5.066406 11.402344 5.320312 C 11.648438 5.292969 11.894531 5.292969 12.140625 5.320312 C 12.089844 5.066406 12.0625 4.808594 12.046875 4.546875 C 12.308594 4.558594 12.566406 4.589844 12.824219 4.640625 C 12.792969 4.394531 12.792969 4.144531 12.824219 3.902344 C 12.566406 3.949219 12.308594 3.980469 12.046875 3.992188 Z M 12.046875 3.992188 "/>
<path style=" stroke:none;fill-rule:nonzero;fill:rgb(93.333333%,93.333333%,93.333333%);fill-opacity:1;" d="M 6.457031 2.082031 L 1.667969 2.082031 C 0.746094 2.082031 0 2.828125 0 3.75 L 0 6.457031 L 6.457031 6.457031 Z M 6.457031 2.082031 "/>
<path style=" stroke:none;fill-rule:nonzero;fill:rgb(90.980392%,6.666667%,17.647059%);fill-opacity:1;" d="M 3.507812 3.992188 C 3.519531 3.734375 3.550781 3.476562 3.597656 3.21875 C 3.351562 3.25 3.105469 3.25 2.859375 3.21875 C 2.910156 3.476562 2.941406 3.734375 2.953125 3.992188 C 2.691406 3.980469 2.433594 3.949219 2.179688 3.902344 C 2.207031 4.148438 2.207031 4.394531 2.179688 4.640625 C 2.433594 4.589844 2.691406 4.558594 2.953125 4.546875 C 2.941406 4.808594 2.910156 5.066406 2.859375 5.320312 C 3.105469 5.292969 3.355469 5.292969 3.597656 5.320312 C 3.550781 5.066406 3.519531 4.808594 3.507812 4.546875 C 3.765625 4.558594 4.023438 4.589844 4.28125 4.640625 C 4.25 4.394531 4.25 4.144531 4.28125 3.902344 C 4.023438 3.949219 3.765625 3.980469 3.507812 3.992188 Z M 3.507812 3.992188 "/>
<path style=" stroke:none;fill-rule:nonzero;fill:rgb(93.333333%,93.333333%,93.333333%);fill-opacity:1;" d="M 15 11.25 L 15 8.542969 L 8.542969 8.542969 L 8.542969 12.917969 L 13.332031 12.917969 C 14.253906 12.917969 15 12.171875 15 11.25 Z M 15 11.25 "/>
<path style=" stroke:none;fill-rule:nonzero;fill:rgb(90.980392%,6.666667%,17.647059%);fill-opacity:1;" d="M 12.046875 11.007812 C 12.0625 11.265625 12.089844 11.523438 12.140625 11.78125 C 11.894531 11.75 11.648438 11.75 11.402344 11.78125 C 11.453125 11.523438 11.480469 11.265625 11.496094 11.007812 C 11.234375 11.019531 10.976562 11.050781 10.71875 11.097656 C 10.75 10.851562 10.75 10.605469 10.71875 10.359375 C 10.976562 10.410156 11.234375 10.441406 11.496094 10.453125 C 11.480469 10.191406 11.453125 9.933594 11.402344 9.679688 C 11.648438 9.707031 11.894531 9.707031 12.140625 9.679688 C 12.089844 9.933594 12.0625 10.191406 12.046875 10.453125 C 12.308594 10.441406 12.566406 10.410156 12.824219 10.359375 C 12.792969 10.605469 12.792969 10.855469 12.824219 11.097656 C 12.566406 11.050781 12.308594 11.019531 12.046875 11.007812 Z M 12.046875 11.007812 "/>
<path style=" stroke:none;fill-rule:nonzero;fill:rgb(93.333333%,93.333333%,93.333333%);fill-opacity:1;" d="M 6.457031 8.542969 L 0 8.542969 L 0 11.25 C 0 12.171875 0.746094 12.917969 1.667969 12.917969 L 6.457031 12.917969 Z M 6.457031 8.542969 "/>
<path style=" stroke:none;fill-rule:nonzero;fill:rgb(90.980392%,6.666667%,17.647059%);fill-opacity:1;" d="M 3.507812 11.007812 C 3.519531 11.265625 3.550781 11.523438 3.597656 11.78125 C 3.351562 11.75 3.105469 11.75 2.859375 11.78125 C 2.910156 11.523438 2.941406 11.265625 2.953125 11.007812 C 2.691406 11.019531 2.433594 11.050781 2.179688 11.097656 C 2.207031 10.851562 2.207031 10.605469 2.179688 10.359375 C 2.433594 10.410156 2.691406 10.441406 2.953125 10.453125 C 2.941406 10.191406 2.910156 9.933594 2.859375 9.679688 C 3.105469 9.707031 3.355469 9.707031 3.597656 9.679688 C 3.550781 9.933594 3.519531 10.191406 3.507812 10.453125 C 3.765625 10.441406 4.023438 10.410156 4.28125 10.359375 C 4.25 10.605469 4.25 10.855469 4.28125 11.097656 C 4.023438 11.050781 3.765625 11.019531 3.507812 11.007812 Z M 3.507812 11.007812 "/>
</g>
</svg>
