<?xml version="1.0" encoding="UTF-8"?>
<svg xmlns="http://www.w3.org/2000/svg" xmlns:xlink="http://www.w3.org/1999/xlink" width="15pt" height="15pt" viewBox="0 0 15 15" version="1.1">
<g id="surface1">
<path style=" stroke:none;fill-rule:nonzero;fill:rgb(92.941176%,92.54902%,92.54902%);fill-opacity:1;" d="M 13.332031 2.082031 L 7.5 2.082031 L 7.5 6.25 L 15 6.25 L 15 3.75 C 15 2.828125 14.253906 2.082031 13.332031 2.082031 Z M 13.332031 2.082031 "/>
<path style=" stroke:none;fill-rule:nonzero;fill:rgb(93.333333%,93.333333%,93.333333%);fill-opacity:1;" d="M 4.582031 2.082031 L 1.667969 2.082031 C 0.746094 2.082031 0 2.828125 0 3.75 L 0 6.25 L 4.582031 6.25 Z M 4.582031 2.082031 "/>
<path style=" stroke:none;fill-rule:nonzero;fill:rgb(92.941176%,92.54902%,92.54902%);fill-opacity:1;" d="M 13.332031 12.917969 L 7.5 12.917969 L 7.5 8.75 L 15 8.75 L 15 11.25 C 15 12.171875 14.253906 12.917969 13.332031 12.917969 Z M 4.582031 12.917969 L 1.667969 12.917969 C 0.746094 12.917969 0 12.171875 0 11.25 L 0 8.75 L 4.582031 8.75 Z M 4.582031 12.917969 "/>
<path style=" stroke:none;fill-rule:nonzero;fill:rgb(0%,20.784314%,50.196078%);fill-opacity:1;" d="M 7.5 2.082031 L 4.582031 2.082031 L 4.582031 6.25 L 0 6.25 L 0 8.75 L 4.582031 8.75 L 4.582031 12.917969 L 7.5 12.917969 L 7.5 8.75 L 15 8.75 L 15 6.25 L 7.5 6.25 Z M 7.5 2.082031 "/>
</g>
</svg>
