<?xml version="1.0" encoding="UTF-8"?>
<svg xmlns="http://www.w3.org/2000/svg" xmlns:xlink="http://www.w3.org/1999/xlink" width="15pt" height="15pt" viewBox="0 0 15 15" version="1.1">
<g id="surface1">
<path style=" stroke:none;fill-rule:nonzero;fill:rgb(0%,61.960784%,28.627451%);fill-opacity:1;" d="M 8.167969 7.890625 L 8.578125 9.164062 L 7.5 8.378906 L 6.417969 9.164062 L 6.832031 7.890625 L 6.292969 7.5 L 0 7.5 L 0 11.25 C 0 12.171875 0.746094 12.917969 1.667969 12.917969 L 13.332031 12.917969 C 14.253906 12.917969 15 12.171875 15 11.25 L 15 7.5 L 8.707031 7.5 Z M 8.167969 7.890625 "/>
<path style=" stroke:none;fill-rule:nonzero;fill:rgb(93.72549%,16.862745%,17.647059%);fill-opacity:1;" d="M 13.332031 2.082031 L 1.667969 2.082031 C 0.746094 2.082031 0 2.828125 0 3.75 L 0 7.5 L 6.292969 7.5 L 5.753906 7.109375 L 7.085938 7.109375 L 7.5 5.835938 L 7.914062 7.109375 L 9.246094 7.109375 L 8.707031 7.5 L 15 7.5 L 15 3.75 C 15 2.828125 14.253906 2.082031 13.332031 2.082031 Z M 13.332031 2.082031 "/>
<path style=" stroke:none;fill-rule:nonzero;fill:rgb(98.823529%,81.960784%,8.627451%);fill-opacity:1;" d="M 6.417969 9.164062 L 7.5 8.378906 L 8.582031 9.164062 L 8.167969 7.890625 L 9.246094 7.109375 L 7.914062 7.109375 L 7.5 5.835938 L 7.085938 7.109375 L 5.753906 7.109375 L 6.832031 7.890625 Z M 6.417969 9.164062 "/>
</g>
</svg>
