<?xml version="1.0" encoding="UTF-8"?>
<svg xmlns="http://www.w3.org/2000/svg" xmlns:xlink="http://www.w3.org/1999/xlink" width="15pt" height="15pt" viewBox="0 0 15 15" version="1.1">
<g id="surface1">
<path style=" stroke:none;fill-rule:nonzero;fill:rgb(92.941176%,92.54902%,92.54902%);fill-opacity:1;" d="M 8.609375 7.917969 L 8.417969 8.253906 L 8.804688 8.253906 Z M 7.5 9.007812 L 7.695312 8.671875 L 7.304688 8.671875 Z M 7.5 9.007812 "/>
<path style=" stroke:none;fill-rule:nonzero;fill:rgb(93.333333%,93.333333%,93.333333%);fill-opacity:1;" d="M 0 10.417969 L 15 10.417969 L 15 4.582031 L 0 4.582031 Z M 0.121094 3.125 L 14.878906 3.125 C 14.628906 2.515625 14.03125 2.082031 13.332031 2.082031 L 1.667969 2.082031 C 0.96875 2.082031 0.371094 2.515625 0.121094 3.125 Z M 0.121094 3.125 "/>
<path style=" stroke:none;fill-rule:nonzero;fill:rgb(92.941176%,92.54902%,92.54902%);fill-opacity:1;" d="M 8.804688 6.746094 L 8.417969 6.746094 L 8.609375 7.082031 Z M 6.582031 6.746094 L 6.195312 6.746094 L 6.390625 7.082031 Z M 7.933594 8.253906 L 8.371094 7.5 L 7.933594 6.746094 L 7.066406 6.746094 L 6.628906 7.5 L 7.066406 8.253906 Z M 6.390625 7.917969 L 6.195312 8.253906 L 6.582031 8.253906 Z M 7.5 5.992188 L 7.304688 6.328125 L 7.695312 6.328125 Z M 7.5 5.992188 "/>
<path style=" stroke:none;fill-rule:nonzero;fill:rgb(0%,21.960784%,72.156863%);fill-opacity:1;" d="M 0.121094 3.125 C 0.0429688 3.316406 0 3.527344 0 3.75 L 0 4.582031 L 15 4.582031 L 15 3.75 C 15 3.527344 14.957031 3.316406 14.878906 3.125 Z M 0.121094 3.125 "/>
<path style=" stroke:none;fill-rule:nonzero;fill:rgb(93.333333%,93.333333%,93.333333%);fill-opacity:1;" d="M 0.121094 11.875 L 14.878906 11.875 C 14.628906 12.484375 14.03125 12.917969 13.332031 12.917969 L 1.667969 12.917969 C 0.96875 12.917969 0.371094 12.484375 0.121094 11.875 Z M 0.121094 11.875 "/>
<path style=" stroke:none;fill-rule:nonzero;fill:rgb(0%,21.960784%,72.156863%);fill-opacity:1;" d="M 0.121094 11.875 C 0.0429688 11.683594 0 11.472656 0 11.25 L 0 10.417969 L 15 10.417969 L 15 11.25 C 15 11.472656 14.957031 11.683594 14.878906 11.875 Z M 6.824219 8.671875 L 7.5 9.839844 L 8.175781 8.671875 L 9.527344 8.671875 L 8.851562 7.5 L 9.527344 6.328125 L 8.175781 6.328125 L 7.5 5.160156 L 6.824219 6.328125 L 5.472656 6.328125 L 6.148438 7.5 L 5.472656 8.671875 Z M 7.5 9.007812 L 7.304688 8.671875 L 7.695312 8.671875 Z M 8.804688 6.746094 L 8.609375 7.082031 L 8.417969 6.746094 Z M 8.609375 7.917969 L 8.804688 8.253906 L 8.417969 8.253906 Z M 7.5 5.992188 L 7.695312 6.328125 L 7.304688 6.328125 Z M 7.066406 6.746094 L 7.933594 6.746094 L 8.371094 7.5 L 7.933594 8.253906 L 7.066406 8.253906 L 6.628906 7.5 Z M 6.582031 6.746094 L 6.390625 7.082031 L 6.195312 6.746094 Z M 6.390625 7.917969 L 6.582031 8.253906 L 6.195312 8.253906 Z M 6.390625 7.917969 "/>
</g>
</svg>
