<?xml version="1.0" encoding="UTF-8"?>
<svg xmlns="http://www.w3.org/2000/svg" xmlns:xlink="http://www.w3.org/1999/xlink" width="15pt" height="15pt" viewBox="0 0 15 15" version="1.1">
<g id="surface1">
<path style=" stroke:none;fill-rule:nonzero;fill:rgb(80.784314%,6.666667%,14.901961%);fill-opacity:1;" d="M 13.332031 2.082031 L 1.667969 2.082031 C 0.746094 2.082031 0 2.828125 0 3.75 L 0 11.25 C 0 12.171875 0.746094 12.917969 1.667969 12.917969 L 13.332031 12.917969 C 14.253906 12.917969 15 12.171875 15 11.25 L 15 3.75 C 15 2.828125 14.253906 2.082031 13.332031 2.082031 Z M 13.332031 2.082031 "/>
<path style=" stroke:none;fill-rule:nonzero;fill:rgb(0%,47.843137%,36.862745%);fill-opacity:1;" d="M 1.457031 3.542969 L 13.542969 3.542969 L 13.542969 11.457031 L 1.457031 11.457031 Z M 1.457031 3.542969 "/>
<path style=" stroke:none;fill-rule:nonzero;fill:rgb(98.823529%,81.960784%,8.627451%);fill-opacity:1;" d="M 1.457031 3.542969 L 13.542969 3.542969 L 1.457031 11.457031 L 13.542969 11.457031 Z M 1.457031 3.542969 "/>
<path style=" stroke:none;fill-rule:nonzero;fill:rgb(80.784314%,6.666667%,14.901961%);fill-opacity:1;" d="M 8.957031 7.5 C 8.957031 8.304688 8.304688 8.957031 7.5 8.957031 C 6.695312 8.957031 6.042969 8.304688 6.042969 7.5 C 6.042969 6.695312 6.695312 6.042969 7.5 6.042969 C 8.304688 6.042969 8.957031 6.695312 8.957031 7.5 Z M 8.957031 7.5 "/>
<path style=" stroke:none;fill-rule:nonzero;fill:rgb(98.823529%,81.960784%,8.627451%);fill-opacity:1;" d="M 7.5 6.164062 L 7.800781 7.089844 L 8.769531 7.089844 L 7.984375 7.65625 L 8.285156 8.578125 L 7.5 8.007812 L 6.714844 8.578125 L 7.015625 7.65625 L 6.230469 7.089844 L 7.199219 7.089844 Z M 7.5 2.160156 L 7.660156 2.652344 L 8.179688 2.652344 L 7.761719 2.960938 L 7.921875 3.453125 L 7.5 3.148438 L 7.078125 3.453125 L 7.238281 2.960938 L 6.820312 2.652344 L 7.339844 2.652344 Z M 10.839844 2.160156 L 11.003906 2.652344 L 11.523438 2.652344 L 11.101562 2.960938 L 11.261719 3.453125 L 10.839844 3.148438 L 10.421875 3.453125 L 10.582031 2.960938 L 10.160156 2.652344 L 10.679688 2.652344 Z M 4.160156 2.160156 L 4.320312 2.652344 L 4.839844 2.652344 L 4.417969 2.960938 L 4.578125 3.453125 L 4.160156 3.148438 L 3.738281 3.453125 L 3.898438 2.960938 L 3.476562 2.652344 L 3.996094 2.652344 Z M 7.5 11.535156 L 7.660156 12.027344 L 8.179688 12.027344 L 7.761719 12.335938 L 7.921875 12.828125 L 7.5 12.523438 L 7.078125 12.828125 L 7.238281 12.335938 L 6.820312 12.027344 L 7.339844 12.027344 Z M 10.839844 11.535156 L 11.003906 12.027344 L 11.523438 12.027344 L 11.101562 12.335938 L 11.261719 12.828125 L 10.839844 12.523438 L 10.421875 12.828125 L 10.582031 12.335938 L 10.160156 12.027344 L 10.679688 12.027344 Z M 4.160156 11.535156 L 4.320312 12.027344 L 4.839844 12.027344 L 4.417969 12.335938 L 4.578125 12.828125 L 4.160156 12.523438 L 3.738281 12.828125 L 3.898438 12.335938 L 3.476562 12.027344 L 3.996094 12.027344 Z M 4.160156 11.535156 "/>
<path style=" stroke:none;fill-rule:nonzero;fill:rgb(80.784314%,6.666667%,14.901961%);fill-opacity:1;" d="M 2.550781 7.945312 C 2.675781 8.074219 2.816406 8.1875 2.949219 8.242188 C 2.953125 8.097656 2.925781 7.929688 2.882812 7.761719 C 2.769531 7.660156 2.644531 7.570312 2.519531 7.523438 C 2.503906 7.65625 2.515625 7.804688 2.550781 7.945312 Z M 2.550781 7.945312 "/>
<path style=" stroke:none;fill-rule:nonzero;fill:rgb(98.823529%,81.960784%,8.627451%);fill-opacity:1;" d="M 3.183594 8.152344 C 3.519531 6.9375 2.328125 7.011719 2.015625 6.621094 C 2.230469 7.066406 1.464844 8.128906 2.742188 8.378906 C 2.65625 8.261719 2.589844 8.109375 2.550781 7.945312 C 2.515625 7.804688 2.503906 7.65625 2.519531 7.523438 C 2.644531 7.570312 2.769531 7.660156 2.882812 7.761719 C 3.011719 7.886719 3.121094 8.027344 3.183594 8.152344 Z M 3.183594 8.152344 "/>
</g>
</svg>
