<?xml version="1.0" encoding="UTF-8"?>
<svg xmlns="http://www.w3.org/2000/svg" xmlns:xlink="http://www.w3.org/1999/xlink" width="15pt" height="15pt" viewBox="0 0 15 15" version="1.1">
<g id="surface1">
<path style=" stroke:none;fill-rule:nonzero;fill:rgb(93.333333%,93.333333%,93.333333%);fill-opacity:1;" d="M 15 11.25 C 15 12.171875 14.253906 12.917969 13.332031 12.917969 L 1.667969 12.917969 C 0.746094 12.917969 0 12.171875 0 11.25 L 0 3.75 C 0 2.828125 0.746094 2.082031 1.667969 2.082031 L 13.332031 2.082031 C 14.253906 2.082031 15 2.828125 15 3.75 Z M 15 11.25 "/>
<path style=" stroke:none;fill-rule:nonzero;fill:rgb(83.529412%,12.54902%,28.235294%);fill-opacity:1;" d="M 1.328125 2.117188 C 0.839844 2.21875 0.4375 2.535156 0.207031 2.960938 L 6.371094 7.5 L 0.207031 12.039062 C 0.4375 12.464844 0.839844 12.78125 1.328125 12.882812 L 7.5 8.332031 L 13.671875 12.882812 C 14.160156 12.78125 14.5625 12.464844 14.792969 12.039062 L 8.628906 7.5 L 14.792969 2.960938 C 14.5625 2.535156 14.160156 2.21875 13.671875 2.117188 L 7.5 6.667969 Z M 1.328125 2.117188 "/>
<path style=" stroke:none;fill-rule:nonzero;fill:rgb(100%,80%,30.196078%);fill-opacity:1;" d="M 8.554688 2.917969 C 8.484375 2.945312 8.449219 3.070312 8.449219 3.070312 C 8.449219 3.070312 8.386719 2.925781 8.195312 3.019531 C 8.195312 3.019531 8.300781 3.121094 8.277344 3.210938 C 8.253906 3.296875 8.195312 3.335938 8.09375 3.320312 C 7.972656 3.304688 7.953125 3.167969 7.953125 3.167969 C 7.953125 3.167969 8.027344 3.152344 8.035156 3.089844 C 8.039062 3.050781 8.019531 2.996094 7.953125 2.992188 C 7.90625 2.988281 7.855469 3.019531 7.855469 3.078125 C 7.855469 3.121094 7.910156 3.160156 7.910156 3.160156 C 7.910156 3.160156 7.867188 3.253906 7.769531 3.257812 C 7.644531 3.265625 7.589844 3.191406 7.589844 3.074219 C 7.585938 2.902344 7.804688 2.898438 7.804688 2.898438 C 7.804688 2.898438 7.785156 2.816406 7.710938 2.773438 C 7.632812 2.730469 7.5625 2.789062 7.5625 2.789062 C 7.5625 2.789062 7.617188 2.667969 7.601562 2.582031 C 7.585938 2.511719 7.535156 2.4375 7.515625 2.414062 L 7.515625 2.40625 L 7.511719 2.410156 L 7.507812 2.40625 L 7.507812 2.414062 C 7.488281 2.4375 7.433594 2.511719 7.417969 2.582031 C 7.402344 2.667969 7.457031 2.789062 7.457031 2.789062 C 7.457031 2.789062 7.386719 2.730469 7.308594 2.773438 C 7.234375 2.816406 7.214844 2.902344 7.214844 2.902344 C 7.214844 2.902344 7.433594 2.902344 7.433594 3.074219 C 7.429688 3.195312 7.375 3.265625 7.25 3.257812 C 7.152344 3.253906 7.109375 3.160156 7.109375 3.160156 C 7.109375 3.160156 7.164062 3.125 7.164062 3.078125 C 7.164062 3.019531 7.113281 2.988281 7.066406 2.992188 C 7 3 6.980469 3.054688 6.988281 3.089844 C 6.996094 3.152344 7.066406 3.167969 7.066406 3.167969 C 7.066406 3.167969 7.046875 3.304688 6.925781 3.320312 C 6.824219 3.335938 6.765625 3.296875 6.742188 3.210938 C 6.722656 3.125 6.824219 3.019531 6.824219 3.019531 C 6.632812 2.929688 6.570312 3.070312 6.570312 3.070312 C 6.570312 3.070312 6.535156 2.945312 6.464844 2.917969 C 6.394531 2.890625 6.324219 2.902344 6.324219 2.902344 C 6.324219 2.902344 6.457031 3.105469 6.542969 3.308594 C 6.628906 3.507812 6.660156 3.714844 6.660156 3.714844 C 6.660156 3.714844 6.808594 3.609375 7.050781 3.550781 C 7.238281 3.507812 7.480469 3.503906 7.511719 3.503906 C 7.542969 3.503906 7.78125 3.507812 7.96875 3.550781 C 8.210938 3.609375 8.359375 3.714844 8.359375 3.714844 C 8.359375 3.714844 8.390625 3.507812 8.480469 3.308594 C 8.566406 3.105469 8.695312 2.902344 8.695312 2.902344 C 8.695312 2.902344 8.625 2.890625 8.554688 2.917969 Z M 8.554688 2.917969 "/>
<path style=" stroke:none;fill-rule:nonzero;fill:rgb(86.666667%,18.039216%,26.666667%);fill-opacity:1;" d="M 8.359375 3.714844 C 8.359375 3.714844 8.160156 3.585938 7.953125 3.539062 C 7.757812 3.496094 7.539062 3.496094 7.511719 3.496094 C 7.480469 3.496094 7.261719 3.496094 7.066406 3.539062 C 6.859375 3.585938 6.660156 3.714844 6.660156 3.714844 C 6.660156 3.714844 6.492188 4.347656 6.589844 4.808594 C 6.789062 5.71875 7.433594 6.09375 7.507812 6.136719 L 7.507812 6.140625 L 7.511719 6.136719 L 7.515625 6.140625 L 7.515625 6.136719 C 7.589844 6.09375 8.234375 5.71875 8.429688 4.808594 C 8.53125 4.347656 8.359375 3.714844 8.359375 3.714844 Z M 8.359375 3.714844 "/>
<path style=" stroke:none;fill-rule:nonzero;fill:rgb(13.72549%,12.156863%,12.54902%);fill-opacity:1;" d="M 7.507812 6.140625 L 7.503906 6.136719 C 7.433594 6.097656 6.785156 5.71875 6.589844 4.808594 C 6.492188 4.351562 6.660156 3.722656 6.660156 3.714844 C 6.664062 3.710938 6.859375 3.582031 7.066406 3.535156 C 7.25 3.496094 7.453125 3.492188 7.511719 3.492188 C 7.566406 3.492188 7.769531 3.496094 7.953125 3.535156 C 8.160156 3.582031 8.359375 3.710938 8.359375 3.714844 C 8.363281 3.71875 8.53125 4.351562 8.429688 4.808594 C 8.234375 5.71875 7.585938 6.097656 7.515625 6.136719 L 7.515625 6.140625 C 7.511719 6.140625 7.511719 6.140625 7.507812 6.136719 Z M 7.511719 6.136719 L 7.515625 6.140625 L 7.511719 6.136719 C 7.585938 6.09375 8.234375 5.71875 8.429688 4.808594 C 8.527344 4.359375 8.363281 3.734375 8.359375 3.714844 C 8.347656 3.710938 8.15625 3.585938 7.953125 3.539062 C 7.769531 3.5 7.566406 3.496094 7.511719 3.496094 C 7.453125 3.496094 7.25 3.5 7.070312 3.539062 C 6.863281 3.585938 6.664062 3.714844 6.660156 3.714844 C 6.660156 3.722656 6.492188 4.355469 6.589844 4.808594 C 6.789062 5.71875 7.433594 6.09375 7.507812 6.136719 Z M 7.511719 6.136719 "/>
<path style=" stroke:none;fill-rule:nonzero;fill:rgb(100%,80%,30.196078%);fill-opacity:1;" d="M 8.085938 3.71875 C 8.085938 3.71875 8.046875 3.769531 7.914062 3.769531 C 7.78125 3.769531 7.839844 3.75 7.734375 3.75 C 7.628906 3.75 7.582031 3.777344 7.582031 3.8125 C 7.582031 3.84375 7.621094 3.863281 7.761719 3.863281 C 7.902344 3.863281 7.957031 3.828125 8.070312 3.828125 C 8.183594 3.828125 8.226562 3.871094 8.226562 3.921875 C 8.226562 3.972656 8.152344 4.066406 8.035156 4.039062 C 8.035156 4.039062 8.117188 4.078125 8.207031 4.074219 C 8.292969 4.066406 8.363281 4.050781 8.371094 4.070312 C 8.375 4.089844 8.410156 4.191406 8.40625 4.246094 C 8.398438 4.328125 8.292969 4.359375 8.25 4.351562 C 8.207031 4.347656 8.148438 4.390625 8.132812 4.40625 L 8.144531 4.351562 L 8.097656 4.367188 L 8.125 4.296875 L 8.070312 4.296875 C 8.070312 4.296875 8.097656 4.242188 8.140625 4.242188 C 8.183594 4.242188 8.28125 4.253906 8.289062 4.222656 C 8.292969 4.191406 8.261719 4.152344 8.199219 4.15625 C 8.136719 4.15625 8.015625 4.191406 7.941406 4.171875 C 7.941406 4.171875 7.917969 4.207031 7.941406 4.234375 C 7.960938 4.261719 7.992188 4.296875 7.976562 4.316406 C 7.960938 4.332031 7.921875 4.332031 7.882812 4.332031 C 7.84375 4.328125 7.714844 4.339844 7.667969 4.355469 C 7.621094 4.371094 7.578125 4.398438 7.578125 4.398438 L 7.601562 4.335938 C 7.601562 4.335938 7.558594 4.320312 7.535156 4.339844 C 7.535156 4.339844 7.542969 4.300781 7.578125 4.289062 L 7.539062 4.28125 C 7.539062 4.28125 7.554688 4.230469 7.613281 4.238281 C 7.671875 4.242188 7.699219 4.253906 7.71875 4.234375 C 7.738281 4.210938 7.671875 4.167969 7.671875 4.167969 C 7.671875 4.167969 7.625 4.1875 7.515625 4.203125 C 7.40625 4.222656 7.335938 4.214844 7.335938 4.214844 C 7.335938 4.214844 7.324219 4.328125 7.148438 4.347656 C 6.976562 4.367188 6.890625 4.285156 6.847656 4.269531 C 6.808594 4.253906 6.75 4.265625 6.75 4.265625 L 6.777344 4.214844 L 6.710938 4.230469 C 6.710938 4.230469 6.707031 4.167969 6.753906 4.164062 L 6.695312 4.148438 C 6.695312 4.148438 6.738281 4.097656 6.796875 4.109375 C 6.855469 4.121094 6.886719 4.171875 6.941406 4.203125 C 7.035156 4.246094 7.25 4.214844 7.089844 4.183594 C 7.054688 4.175781 7.027344 4.140625 7.027344 4.140625 C 7.027344 4.140625 6.925781 4.160156 6.847656 4.039062 C 6.792969 3.957031 6.765625 3.886719 6.667969 3.90625 C 6.667969 3.90625 6.714844 3.847656 6.765625 3.867188 C 6.765625 3.867188 6.738281 3.828125 6.691406 3.828125 C 6.691406 3.828125 6.714844 3.777344 6.777344 3.796875 C 6.777344 3.796875 6.742188 3.761719 6.710938 3.765625 C 6.710938 3.765625 6.730469 3.707031 6.816406 3.757812 C 6.902344 3.804688 6.851562 3.84375 6.867188 3.875 C 6.878906 3.894531 6.902344 3.925781 6.960938 3.976562 C 7.058594 4.066406 7.101562 4.085938 7.074219 4 C 7.039062 3.976562 7.019531 3.921875 7.011719 3.894531 C 7.003906 3.867188 6.960938 3.800781 6.972656 3.785156 C 6.984375 3.769531 7.027344 3.800781 7.027344 3.800781 C 7.027344 3.800781 7.078125 3.777344 7.148438 3.777344 C 7.21875 3.777344 7.246094 3.808594 7.246094 3.808594 C 7.246094 3.808594 7.296875 3.773438 7.304688 3.789062 C 7.3125 3.808594 7.277344 3.839844 7.261719 3.871094 C 7.242188 3.90625 7.261719 3.941406 7.261719 3.941406 C 7.261719 3.941406 7.308594 4.003906 7.40625 4.007812 C 7.503906 4.011719 7.652344 3.996094 7.703125 3.984375 C 7.753906 3.972656 7.84375 3.953125 7.902344 3.964844 C 7.964844 3.976562 8.132812 3.972656 8.125 3.929688 C 8.121094 3.886719 8.078125 3.871094 7.996094 3.882812 C 7.910156 3.894531 7.839844 3.921875 7.683594 3.910156 C 7.527344 3.898438 7.511719 3.820312 7.523438 3.78125 C 7.535156 3.730469 7.625 3.699219 7.707031 3.699219 C 7.785156 3.699219 7.890625 3.734375 7.949219 3.734375 C 8.007812 3.734375 8.085938 3.71875 8.085938 3.71875 Z M 8.085938 3.71875 "/>
<path style=" stroke:none;fill-rule:nonzero;fill:rgb(86.666667%,18.039216%,26.666667%);fill-opacity:1;" d="M 7.082031 3.953125 C 7.082031 3.953125 7.113281 3.96875 7.132812 3.96875 C 7.152344 3.96875 7.1875 3.949219 7.1875 3.949219 C 7.1875 3.949219 7.175781 3.96875 7.175781 3.988281 C 7.175781 4.007812 7.171875 4.027344 7.136719 4.027344 C 7.089844 4.03125 7.097656 4 7.09375 3.984375 C 7.089844 3.972656 7.082031 3.953125 7.082031 3.953125 Z M 7.082031 3.953125 "/>
<path style=" stroke:none;fill-rule:nonzero;fill:rgb(6.666667%,25.882353%,60.392157%);fill-opacity:1;" d="M 7.164062 4.128906 C 7.164062 4.144531 7.152344 4.15625 7.136719 4.15625 L 7.132812 4.15625 C 7.121094 4.15625 7.109375 4.144531 7.109375 4.128906 L 7.109375 4.023438 C 7.109375 4.011719 7.121094 4 7.132812 4 L 7.136719 4 C 7.152344 4 7.164062 4.011719 7.164062 4.023438 Z M 6.734375 4.117188 C 6.707031 4.128906 6.691406 4.148438 6.691406 4.148438 L 6.753906 4.164062 C 6.707031 4.164062 6.710938 4.226562 6.710938 4.226562 L 6.777344 4.214844 Z M 8.113281 4.25 C 8.085938 4.261719 8.070312 4.296875 8.070312 4.296875 L 8.125 4.296875 L 8.097656 4.367188 L 8.144531 4.351562 L 8.132812 4.40625 C 8.140625 4.398438 8.160156 4.382812 8.179688 4.371094 Z M 7.617188 4.375 L 7.574219 4.242188 C 7.546875 4.253906 7.539062 4.277344 7.539062 4.277344 L 7.578125 4.289062 C 7.542969 4.296875 7.535156 4.339844 7.535156 4.339844 C 7.558594 4.320312 7.601562 4.332031 7.601562 4.332031 L 7.578125 4.394531 C 7.578125 4.394531 7.59375 4.386719 7.617188 4.375 Z M 6.710938 3.765625 C 6.726562 3.761719 6.75 3.773438 6.761719 3.78125 L 6.769531 3.738281 C 6.722656 3.726562 6.710938 3.765625 6.710938 3.765625 Z M 6.777344 4.214844 L 6.75 4.265625 C 6.75 4.265625 6.769531 4.261719 6.796875 4.261719 Z M 6.75 3.847656 L 6.761719 3.789062 C 6.707031 3.785156 6.691406 3.828125 6.691406 3.828125 C 6.714844 3.828125 6.738281 3.839844 6.75 3.847656 Z M 6.667969 3.90625 C 6.699219 3.898438 6.722656 3.902344 6.742188 3.910156 L 6.75 3.859375 C 6.703125 3.859375 6.667969 3.90625 6.667969 3.90625 Z M 6.667969 3.90625 "/>
<path style=" stroke:none;fill-rule:nonzero;fill:rgb(100%,80%,30.196078%);fill-opacity:1;" d="M 8.007812 4.464844 C 8.007812 4.464844 7.972656 4.511719 7.855469 4.511719 C 7.734375 4.511719 7.789062 4.496094 7.691406 4.496094 C 7.597656 4.496094 7.558594 4.519531 7.558594 4.550781 C 7.558594 4.578125 7.589844 4.597656 7.71875 4.597656 C 7.84375 4.597656 7.890625 4.566406 7.992188 4.566406 C 8.09375 4.566406 8.132812 4.601562 8.132812 4.648438 C 8.132812 4.695312 8.070312 4.78125 7.964844 4.753906 C 7.964844 4.753906 8.035156 4.789062 8.113281 4.785156 C 8.191406 4.78125 8.257812 4.765625 8.265625 4.785156 C 8.269531 4.800781 8.300781 4.890625 8.296875 4.941406 C 8.289062 5.015625 8.191406 5.042969 8.152344 5.039062 C 8.113281 5.03125 8.0625 5.070312 8.046875 5.085938 L 8.058594 5.035156 L 8.019531 5.050781 L 8.042969 4.984375 L 7.992188 4.984375 C 7.992188 4.984375 8.015625 4.9375 8.054688 4.9375 C 8.09375 4.9375 8.183594 4.945312 8.1875 4.921875 C 8.191406 4.894531 8.164062 4.855469 8.105469 4.859375 C 8.050781 4.863281 7.941406 4.894531 7.878906 4.875 C 7.878906 4.875 7.855469 4.910156 7.875 4.933594 C 7.894531 4.957031 7.925781 4.984375 7.910156 5.003906 C 7.894531 5.019531 7.859375 5.019531 7.824219 5.019531 C 7.789062 5.015625 7.671875 5.027344 7.632812 5.039062 C 7.589844 5.054688 7.550781 5.078125 7.550781 5.078125 L 7.570312 5.019531 C 7.570312 5.019531 7.53125 5.007812 7.511719 5.023438 C 7.511719 5.023438 7.519531 4.988281 7.550781 4.980469 L 7.515625 4.972656 C 7.515625 4.972656 7.527344 4.925781 7.582031 4.933594 C 7.636719 4.9375 7.660156 4.949219 7.679688 4.929688 C 7.695312 4.910156 7.636719 4.871094 7.636719 4.871094 C 7.636719 4.871094 7.59375 4.886719 7.496094 4.902344 C 7.398438 4.917969 7.335938 4.914062 7.335938 4.914062 C 7.335938 4.914062 7.320312 5.015625 7.164062 5.03125 C 7.007812 5.046875 6.933594 4.976562 6.894531 4.960938 C 6.859375 4.945312 6.808594 4.960938 6.808594 4.960938 L 6.832031 4.914062 L 6.773438 4.925781 C 6.773438 4.925781 6.769531 4.867188 6.808594 4.867188 L 6.757812 4.851562 C 6.757812 4.851562 6.796875 4.804688 6.847656 4.816406 C 6.902344 4.828125 6.929688 4.875 6.980469 4.902344 C 7.0625 4.941406 7.253906 4.914062 7.113281 4.882812 C 7.078125 4.875 7.054688 4.84375 7.054688 4.84375 C 7.054688 4.84375 6.964844 4.863281 6.890625 4.753906 C 6.84375 4.679688 6.820312 4.617188 6.734375 4.632812 C 6.734375 4.632812 6.777344 4.582031 6.820312 4.597656 C 6.820312 4.597656 6.796875 4.5625 6.753906 4.566406 C 6.753906 4.566406 6.773438 4.515625 6.832031 4.535156 C 6.832031 4.535156 6.800781 4.503906 6.769531 4.507812 C 6.769531 4.507812 6.789062 4.457031 6.867188 4.5 C 6.945312 4.542969 6.898438 4.582031 6.910156 4.609375 C 6.921875 4.625 6.941406 4.652344 6.996094 4.699219 C 7.082031 4.777344 7.125 4.796875 7.097656 4.71875 C 7.066406 4.699219 7.050781 4.648438 7.042969 4.625 C 7.035156 4.601562 6.996094 4.542969 7.007812 4.527344 C 7.019531 4.511719 7.054688 4.539062 7.054688 4.539062 C 7.054688 4.539062 7.101562 4.519531 7.164062 4.519531 C 7.230469 4.519531 7.253906 4.550781 7.253906 4.550781 C 7.253906 4.550781 7.296875 4.515625 7.304688 4.53125 C 7.3125 4.550781 7.28125 4.574219 7.265625 4.605469 C 7.25 4.632812 7.269531 4.667969 7.269531 4.667969 C 7.269531 4.667969 7.308594 4.726562 7.398438 4.726562 C 7.484375 4.730469 7.617188 4.714844 7.664062 4.707031 C 7.707031 4.695312 7.789062 4.679688 7.84375 4.691406 C 7.898438 4.699219 8.046875 4.695312 8.042969 4.65625 C 8.039062 4.617188 8 4.605469 7.925781 4.613281 C 7.851562 4.625 7.785156 4.648438 7.644531 4.640625 C 7.507812 4.628906 7.492188 4.558594 7.503906 4.523438 C 7.515625 4.476562 7.59375 4.449219 7.664062 4.449219 C 7.738281 4.449219 7.828125 4.480469 7.882812 4.480469 C 7.9375 4.480469 8.007812 4.464844 8.007812 4.464844 Z M 8.007812 4.464844 "/>
<path style=" stroke:none;fill-rule:nonzero;fill:rgb(86.666667%,18.039216%,26.666667%);fill-opacity:1;" d="M 7.101562 4.679688 C 7.101562 4.679688 7.128906 4.695312 7.148438 4.691406 C 7.164062 4.691406 7.195312 4.675781 7.195312 4.675781 C 7.195312 4.675781 7.183594 4.695312 7.183594 4.710938 C 7.183594 4.726562 7.179688 4.746094 7.152344 4.746094 C 7.109375 4.746094 7.113281 4.71875 7.113281 4.707031 C 7.109375 4.695312 7.101562 4.679688 7.101562 4.679688 Z M 7.101562 4.679688 "/>
<path style=" stroke:none;fill-rule:nonzero;fill:rgb(6.666667%,25.882353%,60.392157%);fill-opacity:1;" d="M 7.175781 4.839844 C 7.175781 4.851562 7.164062 4.859375 7.152344 4.859375 L 7.148438 4.859375 C 7.136719 4.859375 7.125 4.851562 7.125 4.839844 L 7.125 4.742188 C 7.125 4.730469 7.136719 4.722656 7.148438 4.722656 L 7.152344 4.722656 C 7.164062 4.722656 7.175781 4.730469 7.175781 4.742188 Z M 6.773438 4.824219 C 6.75 4.835938 6.734375 4.851562 6.734375 4.851562 L 6.789062 4.867188 C 6.75 4.867188 6.753906 4.925781 6.753906 4.925781 L 6.808594 4.914062 Z M 8.011719 4.941406 C 7.988281 4.957031 7.972656 4.984375 7.972656 4.984375 L 8.019531 4.984375 L 8 5.046875 L 8.039062 5.035156 L 8.027344 5.085938 C 8.035156 5.078125 8.050781 5.0625 8.070312 5.050781 Z M 7.566406 5.058594 L 7.527344 4.9375 C 7.5 4.949219 7.492188 4.972656 7.492188 4.972656 L 7.53125 4.980469 C 7.5 4.988281 7.492188 5.023438 7.492188 5.023438 C 7.511719 5.007812 7.550781 5.019531 7.550781 5.019531 L 7.53125 5.074219 C 7.53125 5.074219 7.546875 5.066406 7.566406 5.058594 Z M 6.75 4.507812 C 6.769531 4.503906 6.785156 4.515625 6.796875 4.523438 L 6.804688 4.484375 C 6.761719 4.476562 6.75 4.507812 6.75 4.507812 Z M 6.8125 4.914062 L 6.785156 4.957031 C 6.785156 4.957031 6.804688 4.953125 6.828125 4.953125 Z M 6.789062 4.585938 L 6.796875 4.53125 C 6.75 4.527344 6.734375 4.566406 6.734375 4.566406 C 6.757812 4.566406 6.777344 4.574219 6.789062 4.585938 Z M 6.714844 4.632812 C 6.742188 4.628906 6.761719 4.628906 6.777344 4.640625 L 6.785156 4.59375 C 6.746094 4.59375 6.714844 4.632812 6.714844 4.632812 Z M 6.714844 4.632812 "/>
<path style=" stroke:none;fill-rule:nonzero;fill:rgb(100%,80%,30.196078%);fill-opacity:1;" d="M 7.859375 5.191406 C 7.859375 5.191406 7.835938 5.226562 7.746094 5.226562 C 7.65625 5.226562 7.695312 5.214844 7.625 5.214844 C 7.554688 5.214844 7.523438 5.234375 7.523438 5.253906 C 7.523438 5.277344 7.550781 5.289062 7.644531 5.289062 C 7.738281 5.289062 7.773438 5.265625 7.847656 5.265625 C 7.925781 5.265625 7.953125 5.292969 7.953125 5.328125 C 7.953125 5.363281 7.90625 5.425781 7.828125 5.40625 C 7.828125 5.40625 7.882812 5.433594 7.941406 5.429688 C 7.996094 5.425781 8.046875 5.414062 8.050781 5.429688 C 8.054688 5.441406 8.078125 5.507812 8.074219 5.542969 C 8.066406 5.601562 7.996094 5.621094 7.96875 5.617188 C 7.941406 5.613281 7.902344 5.640625 7.890625 5.652344 L 7.898438 5.613281 L 7.871094 5.625 L 7.886719 5.578125 L 7.847656 5.578125 C 7.847656 5.578125 7.867188 5.542969 7.894531 5.542969 C 7.925781 5.542969 7.992188 5.550781 7.996094 5.527344 C 7.996094 5.507812 7.976562 5.480469 7.933594 5.484375 C 7.894531 5.484375 7.8125 5.507812 7.765625 5.496094 C 7.765625 5.496094 7.75 5.519531 7.761719 5.539062 C 7.777344 5.558594 7.800781 5.578125 7.789062 5.589844 C 7.777344 5.601562 7.75 5.601562 7.722656 5.601562 C 7.699219 5.601562 7.613281 5.605469 7.582031 5.617188 C 7.550781 5.628906 7.523438 5.644531 7.523438 5.644531 L 7.535156 5.601562 C 7.535156 5.601562 7.507812 5.59375 7.492188 5.605469 C 7.492188 5.605469 7.5 5.578125 7.523438 5.574219 L 7.496094 5.566406 C 7.496094 5.566406 7.503906 5.535156 7.546875 5.539062 C 7.585938 5.542969 7.605469 5.550781 7.617188 5.535156 C 7.628906 5.519531 7.585938 5.492188 7.585938 5.492188 C 7.585938 5.492188 7.554688 5.503906 7.480469 5.515625 C 7.410156 5.527344 7.359375 5.523438 7.359375 5.523438 C 7.359375 5.523438 7.351562 5.597656 7.234375 5.613281 C 7.121094 5.625 7.0625 5.570312 7.035156 5.558594 C 7.007812 5.550781 6.96875 5.558594 6.96875 5.558594 L 6.988281 5.523438 L 6.945312 5.53125 C 6.945312 5.53125 6.941406 5.492188 6.972656 5.488281 L 6.933594 5.480469 C 6.933594 5.480469 6.960938 5.445312 7 5.453125 C 7.039062 5.460938 7.0625 5.496094 7.097656 5.515625 C 7.160156 5.546875 7.304688 5.523438 7.195312 5.503906 C 7.171875 5.496094 7.152344 5.472656 7.152344 5.472656 C 7.152344 5.472656 7.085938 5.488281 7.035156 5.40625 C 6.996094 5.351562 6.980469 5.304688 6.914062 5.316406 C 6.914062 5.316406 6.945312 5.277344 6.980469 5.289062 C 6.980469 5.289062 6.960938 5.265625 6.929688 5.265625 C 6.929688 5.265625 6.945312 5.230469 6.988281 5.242188 C 6.988281 5.242188 6.964844 5.222656 6.941406 5.222656 C 6.941406 5.222656 6.957031 5.183594 7.015625 5.21875 C 7.070312 5.25 7.035156 5.277344 7.046875 5.296875 C 7.054688 5.308594 7.070312 5.332031 7.109375 5.367188 C 7.175781 5.425781 7.207031 5.4375 7.1875 5.378906 C 7.164062 5.367188 7.152344 5.328125 7.144531 5.308594 C 7.140625 5.292969 7.109375 5.25 7.121094 5.238281 C 7.128906 5.226562 7.15625 5.246094 7.15625 5.246094 C 7.15625 5.246094 7.191406 5.230469 7.238281 5.230469 C 7.285156 5.230469 7.300781 5.253906 7.300781 5.253906 C 7.300781 5.253906 7.335938 5.226562 7.339844 5.242188 C 7.347656 5.253906 7.320312 5.273438 7.3125 5.296875 C 7.300781 5.316406 7.3125 5.34375 7.3125 5.34375 C 7.3125 5.34375 7.34375 5.382812 7.410156 5.386719 C 7.476562 5.386719 7.570312 5.378906 7.605469 5.371094 C 7.640625 5.363281 7.703125 5.351562 7.742188 5.359375 C 7.78125 5.367188 7.894531 5.363281 7.890625 5.332031 C 7.886719 5.304688 7.859375 5.296875 7.800781 5.300781 C 7.746094 5.308594 7.699219 5.328125 7.59375 5.320312 C 7.492188 5.3125 7.480469 5.261719 7.488281 5.234375 C 7.496094 5.203125 7.554688 5.179688 7.609375 5.179688 C 7.664062 5.179688 7.730469 5.203125 7.769531 5.203125 C 7.808594 5.203125 7.859375 5.191406 7.859375 5.191406 Z M 7.859375 5.191406 "/>
<path style=" stroke:none;fill-rule:nonzero;fill:rgb(86.666667%,18.039216%,26.666667%);fill-opacity:1;" d="M 7.191406 5.351562 C 7.191406 5.351562 7.210938 5.359375 7.222656 5.359375 C 7.238281 5.359375 7.257812 5.347656 7.257812 5.347656 C 7.257812 5.347656 7.253906 5.359375 7.253906 5.375 C 7.253906 5.386719 7.25 5.398438 7.226562 5.398438 C 7.195312 5.402344 7.199219 5.378906 7.199219 5.371094 C 7.195312 5.363281 7.191406 5.351562 7.191406 5.351562 Z M 7.191406 5.351562 "/>
<path style=" stroke:none;fill-rule:nonzero;fill:rgb(6.666667%,25.882353%,60.392157%);fill-opacity:1;" d="M 7.242188 5.46875 C 7.242188 5.476562 7.238281 5.484375 7.226562 5.484375 L 7.222656 5.484375 C 7.214844 5.484375 7.207031 5.476562 7.207031 5.46875 L 7.207031 5.398438 C 7.207031 5.386719 7.214844 5.378906 7.222656 5.378906 L 7.226562 5.378906 C 7.238281 5.378906 7.242188 5.386719 7.242188 5.398438 Z M 6.957031 5.457031 C 6.941406 5.464844 6.929688 5.480469 6.929688 5.480469 L 6.972656 5.488281 C 6.941406 5.492188 6.945312 5.53125 6.945312 5.53125 L 6.988281 5.523438 Z M 7.878906 5.546875 C 7.859375 5.554688 7.847656 5.578125 7.847656 5.578125 L 7.886719 5.578125 L 7.871094 5.625 L 7.898438 5.613281 L 7.890625 5.652344 C 7.894531 5.644531 7.910156 5.636719 7.921875 5.628906 Z M 7.546875 5.632812 L 7.519531 5.542969 C 7.5 5.550781 7.496094 5.566406 7.496094 5.566406 L 7.519531 5.574219 C 7.496094 5.582031 7.492188 5.609375 7.492188 5.609375 C 7.507812 5.59375 7.535156 5.605469 7.535156 5.605469 L 7.519531 5.644531 C 7.519531 5.644531 7.53125 5.640625 7.546875 5.632812 Z M 6.941406 5.222656 C 6.953125 5.222656 6.96875 5.230469 6.976562 5.234375 L 6.980469 5.207031 C 6.949219 5.199219 6.941406 5.222656 6.941406 5.222656 Z M 6.988281 5.523438 L 6.96875 5.558594 C 6.96875 5.558594 6.984375 5.554688 7 5.554688 Z M 6.96875 5.28125 L 6.976562 5.242188 C 6.941406 5.238281 6.929688 5.265625 6.929688 5.265625 C 6.945312 5.265625 6.960938 5.273438 6.96875 5.28125 Z M 6.914062 5.316406 C 6.933594 5.3125 6.949219 5.316406 6.960938 5.320312 L 6.96875 5.289062 C 6.9375 5.285156 6.914062 5.316406 6.914062 5.316406 Z M 6.914062 5.316406 "/>
</g>
</svg>
