<?xml version="1.0" encoding="UTF-8"?>
<svg xmlns="http://www.w3.org/2000/svg" xmlns:xlink="http://www.w3.org/1999/xlink" width="15pt" height="15pt" viewBox="0 0 15 15" version="1.1">
<g id="surface1">
<path style=" stroke:none;fill-rule:nonzero;fill:rgb(93.333333%,93.333333%,93.333333%);fill-opacity:1;" d="M 13.332031 2.082031 L 1.667969 2.082031 C 0.746094 2.082031 0 2.828125 0 3.75 L 0 11.25 C 0 12.171875 0.746094 12.917969 1.667969 12.917969 L 13.332031 12.917969 C 14.253906 12.917969 15 12.171875 15 11.25 L 15 3.75 C 15 2.828125 14.253906 2.082031 13.332031 2.082031 Z M 13.332031 2.082031 "/>
<path style=" stroke:none;fill-rule:nonzero;fill:rgb(90.980392%,6.666667%,17.647059%);fill-opacity:1;" d="M 8.75 12.917969 L 6.25 12.917969 L 6.25 8.75 L 0 8.75 L 0 6.25 L 6.25 6.25 L 6.25 2.082031 L 8.75 2.082031 L 8.75 6.25 L 15 6.25 L 15 8.75 L 8.75 8.75 Z M 8.75 12.917969 "/>
<path style=" stroke:none;fill-rule:nonzero;fill:rgb(97.647059%,86.666667%,8.627451%);fill-opacity:1;" d="M 11.457031 7.082031 L 7.917969 7.082031 L 7.917969 3.957031 L 8.332031 3.542969 L 6.667969 3.542969 L 7.082031 3.957031 L 7.082031 7.082031 L 3.542969 7.082031 L 3.125 6.667969 L 3.125 8.332031 L 3.542969 7.917969 L 7.082031 7.917969 L 7.082031 11.042969 L 6.667969 11.457031 L 8.332031 11.457031 L 7.917969 11.042969 L 7.917969 7.917969 L 11.457031 7.917969 L 11.875 8.332031 L 11.875 6.667969 Z M 11.457031 7.082031 "/>
</g>
</svg>
