<?xml version="1.0" encoding="UTF-8"?>
<svg xmlns="http://www.w3.org/2000/svg" xmlns:xlink="http://www.w3.org/1999/xlink" width="15pt" height="15pt" viewBox="0 0 15 15" version="1.1">
<g id="surface1">
<path style=" stroke:none;fill-rule:nonzero;fill:rgb(29.019608%,65.098039%,34.117647%);fill-opacity:1;" d="M 2.5 12.917969 L 13.332031 12.917969 C 14.253906 12.917969 15 12.171875 15 11.25 L 15 9.582031 L 2.5 9.582031 Z M 2.5 12.917969 "/>
<path style=" stroke:none;fill-rule:nonzero;fill:rgb(78.431373%,19.215686%,24.313725%);fill-opacity:1;" d="M 13.332031 2.082031 L 2.5 2.082031 L 2.5 9.582031 L 15 9.582031 L 15 3.75 C 15 2.828125 14.253906 2.082031 13.332031 2.082031 Z M 13.332031 2.082031 "/>
<path style=" stroke:none;fill-rule:nonzero;fill:rgb(100%,100%,100%);fill-opacity:1;" d="M 1.667969 2.082031 C 0.746094 2.082031 0 2.828125 0 3.75 L 0 11.25 C 0 12.171875 0.746094 12.917969 1.667969 12.917969 L 2.5 12.917969 L 2.5 2.082031 Z M 1.667969 2.082031 "/>
<path style=" stroke:none;fill-rule:nonzero;fill:rgb(78.431373%,19.215686%,24.313725%);fill-opacity:1;" d="M 0.320312 12.160156 L 0.578125 11.699219 L 0.847656 12.175781 L 0.621094 12.539062 C 0.691406 12.597656 0.765625 12.648438 0.847656 12.691406 L 1.175781 12.09375 L 0.585938 11.144531 L 0.121094 11.863281 C 0.195312 12.058594 0.308594 12.226562 0.445312 12.378906 Z M 2.492188 12.125 L 1.867188 11.199219 L 1.242188 12.101562 L 1.777344 12.917969 L 2.046875 12.917969 Z M 1.886719 11.699219 L 2.152344 12.175781 L 1.886719 12.605469 L 1.625 12.160156 Z M 2.5 7.640625 L 2.5 7.265625 L 2.371094 7.449219 Z M 1.175781 2.925781 L 0.804688 2.328125 C 0.480469 2.527344 0.230469 2.828125 0.101562 3.191406 L 0.636719 3.90625 Z M 0.320312 2.996094 L 0.578125 2.53125 L 0.847656 3.007812 L 0.578125 3.4375 Z M 1.921875 3.972656 L 2.492188 2.957031 L 1.902344 2.082031 L 1.832031 2.082031 L 1.242188 2.9375 Z M 2.152344 3.007812 L 1.886719 3.4375 L 1.625 2.996094 L 1.886719 2.53125 Z M 2.152344 3.007812 "/>
<path style=" stroke:none;fill-rule:nonzero;fill:rgb(78.431373%,19.215686%,24.313725%);fill-opacity:1;" d="M 2.0625 6.25 L 2.429688 5.644531 L 2.5 5.675781 L 2.5 5.417969 L 1.914062 4.503906 L 1.210938 5.480469 L 0.585938 4.480469 L 0 5.382812 L 0 5.65625 L 0.359375 6.25 L 0.613281 5.878906 L 0.429688 5.625 L 0.566406 5.441406 L 0.964844 5.957031 L 0.378906 6.921875 L 0 6.402344 L 0 7.046875 L 0.0234375 7.015625 L 0.421875 7.53125 L 0 8.222656 L 0 8.714844 L 0.378906 8.191406 L 0.964844 9.15625 L 0.632812 9.582031 L 0.566406 9.671875 L 0.5 9.582031 L 0.429688 9.488281 L 0.613281 9.234375 L 0.359375 8.863281 L 0 9.457031 L 0 9.699219 L 0.597656 10.613281 L 1.183594 9.582031 L 1.203125 9.542969 L 1.230469 9.582031 L 1.902344 10.671875 L 2.5 9.609375 L 2.5 9.445312 L 2.449219 9.46875 L 2.082031 8.863281 L 1.828125 9.234375 L 2.011719 9.488281 L 1.941406 9.582031 L 1.875 9.671875 L 1.808594 9.582031 L 1.476562 9.15625 L 2.0625 8.195312 L 2.5 8.792969 L 2.5 8.316406 L 2.019531 7.527344 L 2.414062 7.011719 L 2.5 7.125 L 2.5 6.292969 L 2.042969 6.921875 L 1.457031 5.957031 L 1.855469 5.441406 L 1.992188 5.625 L 1.808594 5.878906 Z M 1.785156 7.097656 L 1.785156 7.898438 L 1.203125 8.816406 L 0.65625 7.894531 L 0.65625 7.101562 L 1.203125 6.179688 Z M 1.785156 7.097656 "/>
<path style=" stroke:none;fill-rule:nonzero;fill:rgb(78.431373%,19.215686%,24.313725%);fill-opacity:1;" d="M 0.847656 7.007812 L 1.09375 7.464844 L 0.847656 7.917969 L 1.027344 8.019531 L 1.214844 7.679688 L 1.398438 8.019531 L 1.582031 7.917969 L 1.332031 7.464844 L 1.582031 7.007812 L 1.398438 6.910156 L 1.214844 7.246094 L 1.027344 6.910156 Z M 0.0117188 10.910156 L 0.269531 11.355469 L 0.539062 10.925781 L 0.269531 10.449219 Z M 0.640625 10.910156 L 0.902344 11.355469 L 1.167969 10.925781 L 0.902344 10.449219 Z M 1.261719 10.910156 L 1.519531 11.355469 L 1.789062 10.925781 L 1.519531 10.449219 Z M 1.925781 10.910156 L 2.183594 11.355469 L 2.453125 10.925781 L 2.183594 10.449219 Z M 0.0117188 4.21875 L 0.269531 4.660156 L 0.539062 4.230469 L 0.269531 3.757812 Z M 0.640625 4.21875 L 0.902344 4.660156 L 1.167969 4.230469 L 0.902344 3.757812 Z M 1.261719 4.21875 L 1.519531 4.660156 L 1.789062 4.230469 L 1.519531 3.757812 Z M 1.925781 4.21875 L 2.183594 4.660156 L 2.453125 4.230469 L 2.183594 3.757812 Z M 1.925781 4.21875 "/>
</g>
</svg>
