<?xml version="1.0" encoding="UTF-8"?>
<svg xmlns="http://www.w3.org/2000/svg" xmlns:xlink="http://www.w3.org/1999/xlink" width="15pt" height="15pt" viewBox="0 0 15 15" version="1.1">
<g id="surface1">
<path style=" stroke:none;fill-rule:nonzero;fill:rgb(100%,100%,100%);fill-opacity:1;" d="M 4.617188 8.75 L 7.5 12.917969 L 10.382812 8.75 Z M 4.617188 8.75 "/>
<path style=" stroke:none;fill-rule:nonzero;fill:rgb(7.843137%,7.843137%,7.843137%);fill-opacity:1;" d="M 4.28125 6.25 L 4.238281 6.242188 L 5.902344 5.894531 L 4.488281 4.890625 L 6.144531 5.257812 L 5.195312 3.742188 L 6.59375 4.773438 L 6.253906 2.976562 L 7.183594 4.507812 L 7.5 2.707031 L 7.816406 4.507812 L 8.746094 2.976562 L 8.40625 4.773438 L 9.804688 3.742188 L 8.855469 5.261719 L 10.511719 4.890625 L 9.097656 5.898438 L 10.761719 6.242188 L 10.71875 6.25 L 12.117188 6.25 L 14.597656 2.664062 C 14.292969 2.308594 13.839844 2.082031 13.332031 2.082031 L 1.667969 2.082031 C 1.160156 2.082031 0.707031 2.308594 0.402344 2.664062 L 2.882812 6.25 Z M 4.28125 6.25 "/>
<path style=" stroke:none;fill-rule:nonzero;fill:rgb(98.823529%,81.960784%,8.627451%);fill-opacity:1;" d="M 10.761719 6.242188 L 9.097656 5.894531 L 10.511719 4.890625 L 8.855469 5.257812 L 9.804688 3.742188 L 8.40625 4.773438 L 8.746094 2.976562 L 7.816406 4.507812 L 7.5 2.707031 L 7.183594 4.507812 L 6.253906 2.976562 L 6.59375 4.773438 L 5.195312 3.742188 L 6.144531 5.257812 L 4.488281 4.890625 L 5.902344 5.894531 L 4.238281 6.242188 L 4.28125 6.25 L 10.71875 6.25 Z M 10.761719 6.242188 "/>
<path style=" stroke:none;fill-rule:nonzero;fill:rgb(0%,44.705882%,77.647059%);fill-opacity:1;" d="M 4.28125 6.25 L 2.882812 6.25 L 4.617188 8.75 L 10.382812 8.75 L 12.117188 6.25 Z M 4.28125 6.25 "/>
<path style=" stroke:none;fill-rule:nonzero;fill:rgb(80.784314%,6.666667%,14.901961%);fill-opacity:1;" d="M 12.117188 6.25 L 10.382812 8.75 L 7.5 12.917969 L 13.332031 12.917969 C 14.253906 12.917969 15 12.171875 15 11.25 L 15 3.75 C 15 3.335938 14.847656 2.957031 14.597656 2.664062 Z M 2.882812 6.25 L 0.402344 2.664062 C 0.152344 2.957031 0 3.335938 0 3.75 L 0 11.25 C 0 12.171875 0.746094 12.917969 1.667969 12.917969 L 7.5 12.917969 L 4.617188 8.75 Z M 2.882812 6.25 "/>
</g>
</svg>
