<?xml version="1.0" encoding="UTF-8"?>
<svg xmlns="http://www.w3.org/2000/svg" xmlns:xlink="http://www.w3.org/1999/xlink" width="15pt" height="15pt" viewBox="0 0 15 15" version="1.1">
<g id="surface1">
<path style=" stroke:none;fill-rule:nonzero;fill:rgb(45.882353%,69.803922%,86.666667%);fill-opacity:1;" d="M 13.332031 2.082031 L 1.667969 2.082031 C 0.746094 2.082031 0 2.828125 0 3.75 L 0 11.25 C 0 12.171875 0.746094 12.917969 1.667969 12.917969 L 13.332031 12.917969 C 14.253906 12.917969 15 12.171875 15 11.25 L 15 3.75 C 15 2.828125 14.253906 2.082031 13.332031 2.082031 Z M 13.332031 2.082031 "/>
<path style=" stroke:none;fill-rule:nonzero;fill:rgb(100%,100%,100%);fill-opacity:1;" d="M 7.625 3.167969 L 7.382812 3.914062 L 6.59375 3.914062 L 7.230469 4.378906 L 6.988281 5.125 L 7.625 4.664062 L 8.261719 5.125 L 8.019531 4.378906 L 8.65625 3.914062 L 7.867188 3.914062 Z M 11.210938 7.257812 L 11.210938 6.46875 L 10.746094 7.105469 L 10 6.863281 L 10.460938 7.5 L 10 8.136719 L 10.746094 7.894531 L 11.210938 8.53125 L 11.210938 7.742188 L 11.957031 7.5 Z M 8.019531 10.621094 L 8.261719 9.875 L 7.625 10.335938 L 6.988281 9.875 L 7.230469 10.621094 L 6.59375 11.085938 L 7.382812 11.085938 L 7.625 11.832031 L 7.867188 11.085938 L 8.65625 11.085938 Z M 4.503906 7.105469 L 4.039062 6.46875 L 4.039062 7.257812 L 3.292969 7.5 L 4.039062 7.742188 L 4.039062 8.53125 L 4.503906 7.894531 L 5.25 8.136719 L 4.789062 7.5 L 5.25 6.863281 Z M 4.503906 7.105469 "/>
</g>
</svg>
