<?xml version="1.0" encoding="UTF-8"?>
<svg xmlns="http://www.w3.org/2000/svg" xmlns:xlink="http://www.w3.org/1999/xlink" width="15pt" height="15pt" viewBox="0 0 15 15" version="1.1">
<g id="surface1">
<path style=" stroke:none;fill-rule:nonzero;fill:rgb(0%,67.058824%,78.823529%);fill-opacity:1;" d="M 0.566406 12.496094 C 0.863281 12.753906 1.242188 12.917969 1.667969 12.917969 L 13.332031 12.917969 C 14.253906 12.917969 15 12.171875 15 11.25 L 15 9.375 L 4.765625 9.375 Z M 0.566406 12.496094 "/>
<path style=" stroke:none;fill-rule:nonzero;fill:rgb(98.039216%,87.843137%,25.882353%);fill-opacity:1;" d="M 7.292969 7.5 L 4.765625 9.375 L 15 9.375 L 15 5.625 L 4.765625 5.625 Z M 7.292969 7.5 "/>
<path style=" stroke:none;fill-rule:nonzero;fill:rgb(0%,67.058824%,78.823529%);fill-opacity:1;" d="M 13.332031 2.082031 L 1.667969 2.082031 C 1.242188 2.082031 0.863281 2.246094 0.566406 2.503906 L 4.765625 5.625 L 15 5.625 L 15 3.75 C 15 2.828125 14.253906 2.082031 13.332031 2.082031 Z M 13.332031 2.082031 "/>
<path style=" stroke:none;fill-rule:nonzero;fill:rgb(7.843137%,7.843137%,7.843137%);fill-opacity:1;" d="M 7.292969 7.5 L 4.765625 5.625 L 0.566406 2.503906 C 0.222656 2.8125 0 3.253906 0 3.75 L 0 11.25 C 0 11.746094 0.222656 12.1875 0.566406 12.496094 L 4.765625 9.375 Z M 7.292969 7.5 "/>
</g>
</svg>
