<?xml version="1.0" encoding="UTF-8"?>
<svg xmlns="http://www.w3.org/2000/svg" xmlns:xlink="http://www.w3.org/1999/xlink" width="15pt" height="15pt" viewBox="0 0 15 15" version="1.1">
<g id="surface1">
<path style=" stroke:none;fill-rule:nonzero;fill:rgb(81.176471%,10.588235%,16.862745%);fill-opacity:1;" d="M 13.332031 2.082031 L 1.667969 2.082031 C 1.582031 2.082031 1.496094 2.089844 1.414062 2.101562 L 1.414062 2.832031 L 0.277344 2.832031 C 0.101562 3.09375 0 3.410156 0 3.75 L 0 11.25 C 0 12.171875 0.746094 12.917969 1.667969 12.917969 L 13.332031 12.917969 C 14.253906 12.917969 15 12.171875 15 11.25 L 15 3.75 C 15 2.828125 14.253906 2.082031 13.332031 2.082031 Z M 13.332031 2.082031 "/>
<path style=" stroke:none;fill-rule:nonzero;fill:rgb(0%,0%,0%);fill-opacity:1;" d="M 9.410156 5.242188 L 9.410156 9.023438 C 9.410156 9.289062 9.46875 9.652344 9.957031 9.878906 C 10.371094 10.070312 10.988281 10.292969 11.265625 10.46875 C 11.425781 10.566406 11.667969 10.734375 11.667969 10.734375 C 11.667969 10.734375 11.910156 10.570312 12.066406 10.46875 C 12.347656 10.292969 12.917969 10.070312 13.332031 9.878906 C 13.820312 9.652344 13.878906 9.289062 13.878906 9.023438 L 13.878906 5.242188 Z M 9.410156 5.242188 "/>
<path style=" stroke:none;fill-rule:nonzero;fill:rgb(18.039216%,56.078431%,13.333333%);fill-opacity:1;" d="M 9.628906 8.9375 C 9.632812 9.1875 9.695312 9.558594 10.140625 9.765625 C 10.527344 9.945312 11.03125 10.152344 11.292969 10.316406 C 11.441406 10.410156 11.667969 10.566406 11.667969 10.566406 C 11.667969 10.566406 11.894531 10.410156 12.039062 10.316406 C 12.304688 10.152344 12.808594 9.945312 13.195312 9.765625 C 13.640625 9.558594 13.703125 9.1875 13.707031 8.9375 Z M 9.628906 8.9375 "/>
<path style=" stroke:none;fill-rule:nonzero;fill:rgb(100%,100%,100%);fill-opacity:1;" d="M 9.628906 5.460938 L 13.707031 5.460938 L 13.707031 8.976562 L 9.628906 8.976562 Z M 9.628906 5.460938 "/>
<path style=" stroke:none;fill-rule:nonzero;fill:rgb(81.176471%,10.588235%,16.862745%);fill-opacity:1;" d="M 13.277344 8.488281 C 13.246094 8.328125 13.277344 8.078125 13.230469 8.003906 C 13.1875 7.929688 12.773438 7.78125 12.476562 7.808594 C 12.183594 7.839844 12.390625 7.441406 12.597656 7.335938 C 12.804688 7.234375 12.996094 7.144531 13.023438 7.027344 C 13.054688 6.910156 12.949219 6.820312 12.773438 6.847656 C 12.597656 6.878906 12.492188 6.878906 12.390625 6.984375 C 12.285156 7.085938 12.269531 6.96875 12.226562 6.847656 C 12.183594 6.730469 12.253906 6.6875 12.269531 6.570312 C 12.285156 6.449219 12.253906 6.125 12.167969 5.992188 C 12.078125 5.859375 12.125 5.769531 11.976562 5.695312 C 11.828125 5.621094 11.667969 5.5625 11.667969 5.5625 C 11.667969 5.5625 11.503906 5.625 11.355469 5.695312 C 11.210938 5.769531 11.253906 5.859375 11.164062 5.992188 C 11.078125 6.125 11.046875 6.449219 11.0625 6.570312 C 11.078125 6.6875 11.148438 6.730469 11.105469 6.847656 C 11.0625 6.96875 11.046875 7.085938 10.945312 6.984375 C 10.839844 6.878906 10.738281 6.878906 10.558594 6.847656 C 10.382812 6.820312 10.277344 6.910156 10.308594 7.027344 C 10.335938 7.144531 10.527344 7.234375 10.734375 7.335938 C 10.941406 7.441406 11.148438 7.839844 10.855469 7.808594 C 10.558594 7.78125 10.144531 7.929688 10.101562 8.003906 C 10.058594 8.078125 10.085938 8.328125 10.058594 8.488281 C 10.027344 8.652344 9.953125 8.785156 10.027344 8.753906 C 10.101562 8.726562 10.441406 8.609375 10.605469 8.488281 C 10.765625 8.371094 10.957031 8.964844 10.882812 9.109375 C 10.808594 9.257812 10.796875 9.363281 10.675781 9.300781 C 10.558594 9.242188 10.382812 9.332031 10.324219 9.449219 C 10.265625 9.566406 10.398438 9.640625 10.542969 9.746094 C 10.691406 9.847656 10.871094 9.640625 10.941406 9.539062 C 11.015625 9.433594 11.667969 9.109375 11.667969 9.109375 C 11.667969 9.109375 12.316406 9.433594 12.390625 9.539062 C 12.464844 9.640625 12.640625 9.847656 12.789062 9.746094 C 12.9375 9.640625 13.070312 9.566406 13.007812 9.449219 C 12.949219 9.332031 12.773438 9.242188 12.65625 9.300781 C 12.535156 9.363281 12.523438 9.257812 12.445312 9.109375 C 12.375 8.964844 12.566406 8.371094 12.726562 8.488281 C 12.890625 8.609375 13.230469 8.726562 13.304688 8.753906 C 13.378906 8.785156 13.304688 8.652344 13.277344 8.488281 Z M 13.277344 8.488281 "/>
<path style=" stroke:none;fill-rule:nonzero;fill:rgb(100%,87.843137%,0%);fill-opacity:1;" d="M 12.859375 7.664062 C 12.859375 7.664062 12.90625 7.765625 12.964844 7.765625 C 13.023438 7.765625 13.128906 7.632812 13.039062 7.53125 C 12.949219 7.425781 12.875 7.382812 12.921875 7.292969 C 12.964844 7.203125 12.847656 7.058594 12.847656 7.058594 C 12.785156 7.144531 12.625 7.277344 12.34375 7.101562 C 12.0625 6.925781 11.839844 6.894531 11.796875 6.996094 L 11.535156 6.996094 C 11.492188 6.894531 11.269531 6.925781 10.988281 7.101562 C 10.707031 7.277344 10.546875 7.144531 10.488281 7.058594 C 10.488281 7.058594 10.367188 7.203125 10.414062 7.292969 C 10.457031 7.382812 10.382812 7.425781 10.292969 7.53125 C 10.207031 7.632812 10.308594 7.765625 10.367188 7.765625 C 10.429688 7.765625 10.472656 7.664062 10.472656 7.664062 C 10.472656 7.664062 10.664062 7.824219 10.648438 8.046875 C 10.632812 8.269531 10.339844 8.472656 10.339844 8.472656 C 10.429688 8.578125 10.429688 8.726562 10.515625 8.992188 C 10.605469 9.257812 10.914062 9.183594 10.914062 9.183594 C 10.929688 9.347656 11.210938 9.507812 11.3125 9.507812 C 11.417969 9.507812 11.445312 9.597656 11.445312 9.597656 C 11.445312 9.597656 11.328125 9.671875 11.386719 9.730469 C 11.441406 9.785156 11.640625 9.710938 11.667969 9.703125 C 11.691406 9.710938 11.890625 9.785156 11.945312 9.730469 C 12.003906 9.671875 11.886719 9.597656 11.886719 9.597656 C 11.886719 9.597656 11.914062 9.507812 12.019531 9.507812 C 12.121094 9.507812 12.402344 9.347656 12.417969 9.183594 C 12.417969 9.183594 12.726562 9.257812 12.816406 8.992188 C 12.90625 8.726562 12.90625 8.578125 12.992188 8.472656 C 12.992188 8.472656 12.699219 8.269531 12.683594 8.046875 C 12.667969 7.824219 12.859375 7.664062 12.859375 7.664062 Z M 12.859375 7.664062 "/>
<path style=" stroke:none;fill-rule:nonzero;fill:rgb(39.215686%,70.588235%,81.960784%);fill-opacity:1;" d="M 13.039062 7.542969 C 12.953125 7.441406 12.878906 7.394531 12.921875 7.308594 C 12.96875 7.21875 12.863281 7.160156 12.863281 7.160156 C 12.804688 7.25 12.558594 7.375 12.347656 7.25 C 12.125 7.117188 12.066406 7.144531 12.007812 7.117188 C 12.007812 7.117188 12.042969 7.21875 11.960938 7.25 C 11.84375 7.292969 11.800781 7.191406 11.800781 7.191406 L 11.535156 7.191406 C 11.535156 7.191406 11.488281 7.292969 11.371094 7.25 C 11.289062 7.21875 11.328125 7.117188 11.328125 7.117188 C 11.265625 7.144531 11.207031 7.117188 10.988281 7.25 C 10.777344 7.375 10.527344 7.25 10.46875 7.160156 C 10.46875 7.160156 10.367188 7.21875 10.410156 7.308594 C 10.457031 7.394531 10.382812 7.441406 10.292969 7.542969 C 10.203125 7.648438 10.335938 7.558594 10.394531 7.558594 C 10.457031 7.558594 10.601562 7.664062 10.601562 7.664062 C 10.601562 7.664062 10.765625 7.78125 10.75 8.0625 C 10.738281 8.285156 10.410156 8.503906 10.410156 8.503906 C 10.5 8.609375 10.589844 8.976562 10.589844 8.976562 C 10.675781 9.171875 12.59375 8.285156 12.582031 8.0625 C 12.566406 7.78125 12.730469 7.664062 12.730469 7.664062 C 12.730469 7.664062 12.878906 7.558594 12.9375 7.558594 C 12.996094 7.558594 13.128906 7.648438 13.039062 7.542969 Z M 13.039062 7.542969 "/>
<path style=" stroke:none;fill-rule:nonzero;fill:rgb(80%,80%,80%);fill-opacity:1;" d="M 12.582031 8.0625 C 12.582031 8.023438 12.582031 7.988281 12.585938 7.953125 C 12.445312 7.960938 12.308594 7.886719 12.257812 7.824219 C 12.199219 7.75 12.125 7.75 11.992188 7.824219 C 11.859375 7.898438 11.859375 8.105469 11.859375 8.105469 L 11.859375 8.136719 L 12.671875 8.667969 L 12.90625 8.527344 C 12.910156 8.519531 12.917969 8.511719 12.921875 8.503906 C 12.921875 8.503906 12.59375 8.285156 12.582031 8.0625 Z M 12.582031 8.0625 "/>
<path style=" stroke:none;fill-rule:nonzero;fill:rgb(89.411765%,79.607843%,36.862745%);fill-opacity:1;" d="M 10.691406 7.457031 L 10.796875 8.550781 L 11.265625 8.902344 L 11.753906 8.503906 L 11.652344 8.195312 L 11.59375 7.796875 L 11.414062 7.675781 L 11.265625 7.382812 L 11.074219 7.367188 L 10.972656 7.441406 C 10.972656 7.441406 10.882812 7.382812 10.882812 7.398438 C 10.882812 7.410156 10.808594 7.484375 10.808594 7.484375 Z M 10.691406 7.457031 "/>
<path style=" stroke:none;fill-rule:nonzero;fill:rgb(0%,0%,0%);fill-opacity:1;" d="M 11.519531 7.5 L 11.695312 7.457031 L 11.949219 7.898438 L 12.199219 7.871094 L 12.242188 7.988281 L 11.5625 8.210938 L 11.5625 8.03125 L 11.59375 7.972656 Z M 11.519531 7.5 "/>
<path style=" stroke:none;fill-rule:nonzero;fill:rgb(0%,0%,0%);fill-opacity:1;" d="M 11.046875 7.648438 L 11.121094 8.710938 L 11.195312 8.667969 C 11.195312 8.667969 11.089844 7.796875 11.105469 7.808594 C 11.121094 7.824219 11.328125 8.5625 11.328125 8.5625 L 11.414062 8.59375 L 11.164062 7.675781 L 11.5625 8.371094 L 11.636719 8.195312 L 11.222656 7.632812 L 11.105469 7.484375 Z M 11.046875 7.648438 "/>
<path style=" stroke:none;fill-rule:nonzero;fill:rgb(62.352941%,35.294118%,16.862745%);fill-opacity:1;" d="M 11.546875 8.105469 L 12.214844 7.957031 L 12.507812 8.402344 L 12.390625 8.742188 C 12.390625 8.742188 11.886719 8.992188 11.875 9.007812 C 11.859375 9.019531 11.386719 8.960938 11.386719 8.960938 Z M 11.546875 8.105469 "/>
<path style=" stroke:none;fill-rule:nonzero;fill:rgb(80%,80%,80%);fill-opacity:1;" d="M 12.316406 9.050781 C 12.316406 9.050781 12.347656 8.964844 12.433594 8.976562 C 12.523438 8.992188 12.496094 9.09375 12.496094 9.09375 C 12.496094 9.09375 12.65625 9.171875 12.746094 8.976562 C 12.75 8.96875 12.757812 8.960938 12.761719 8.949219 C 12.8125 8.789062 12.835938 8.609375 12.921875 8.503906 C 12.921875 8.503906 12.914062 8.5 12.902344 8.488281 C 12.820312 8.519531 12.761719 8.5625 12.761719 8.5625 C 12.761719 8.5625 12.761719 8.433594 12.613281 8.402344 C 12.464844 8.371094 12.316406 8.59375 12.316406 8.59375 C 12.257812 8.417969 12.019531 8.59375 11.917969 8.757812 C 11.816406 8.917969 11.5625 8.875 11.5625 8.875 L 11.519531 8.785156 C 11.519531 8.785156 11.535156 8.636719 11.414062 8.5625 C 11.296875 8.492188 11.121094 8.667969 11.121094 8.667969 C 11.164062 8.476562 10.957031 8.503906 10.914062 8.535156 C 10.867188 8.5625 10.796875 8.460938 10.691406 8.433594 C 10.613281 8.410156 10.546875 8.578125 10.507812 8.71875 C 10.53125 8.792969 10.546875 8.871094 10.574219 8.949219 C 10.578125 8.960938 10.582031 8.96875 10.589844 8.976562 C 10.675781 9.171875 10.839844 9.097656 10.839844 9.097656 C 10.839844 9.097656 10.808594 8.992188 10.898438 8.976562 C 10.988281 8.964844 11.015625 9.050781 11.015625 9.050781 C 11.015625 9.050781 11.121094 9.023438 11.148438 9.109375 C 11.179688 9.199219 11.046875 9.230469 11.046875 9.230469 C 11.03125 9.257812 11.121094 9.390625 11.425781 9.460938 C 11.484375 9.503906 11.519531 9.582031 11.519531 9.582031 L 11.519531 9.714844 L 11.816406 9.714844 L 11.816406 9.582031 C 11.816406 9.582031 11.847656 9.503906 11.90625 9.460938 C 12.214844 9.390625 12.300781 9.257812 12.285156 9.230469 C 12.285156 9.230469 12.15625 9.199219 12.183594 9.109375 C 12.214844 9.023438 12.316406 9.050781 12.316406 9.050781 Z M 12.316406 9.050781 "/>
<path style=" stroke:none;fill-rule:nonzero;fill:rgb(100%,100%,100%);fill-opacity:1;" d="M 11.460938 5.859375 L 11.609375 5.933594 L 11.578125 5.992188 L 11.429688 5.964844 Z M 11.859375 5.859375 L 11.710938 5.933594 L 11.742188 5.992188 L 11.886719 5.964844 Z M 11.859375 5.859375 "/>
<path style=" stroke:none;fill-rule:nonzero;fill:rgb(0%,0%,0%);fill-opacity:1;" d="M 11.976562 6.050781 L 12.007812 5.949219 L 11.875 6.082031 L 11.816406 6.15625 L 11.742188 6.082031 L 11.667969 6.15625 L 11.59375 6.082031 L 11.519531 6.15625 L 11.460938 6.082031 L 11.328125 5.949219 L 11.355469 6.050781 L 11.207031 6.15625 L 11.339844 6.097656 L 11.414062 6.125 L 11.488281 6.199219 L 11.59375 6.171875 L 11.667969 6.257812 L 11.742188 6.171875 L 11.84375 6.199219 L 11.917969 6.125 L 11.992188 6.097656 L 12.125 6.15625 Z M 11.976562 6.050781 "/>
<path style=" stroke:none;fill-rule:nonzero;fill:rgb(0%,14.117647%,49.019608%);fill-opacity:1;" d="M 7.917969 7.5 L 7.917969 2.082031 L 1.667969 2.082031 C 1.535156 2.082031 1.414062 2.101562 1.414062 2.101562 L 1.414062 2.832031 L 0.277344 2.832031 C 0.277344 2.832031 0.257812 2.855469 0.222656 2.917969 C 0.0820312 3.160156 0 3.445312 0 3.75 L 0 7.5 Z M 7.917969 7.5 "/>
<path style=" stroke:none;fill-rule:nonzero;fill:rgb(93.333333%,93.333333%,93.333333%);fill-opacity:1;" d="M 7.917969 2.082031 L 6.945312 2.082031 L 5 3.445312 L 5 2.082031 L 2.917969 2.082031 L 2.917969 3.152344 L 1.414062 2.101562 C 1.160156 2.140625 0.917969 2.238281 0.71875 2.378906 L 2.675781 3.75 L 1.953125 3.75 L 0.402344 2.664062 C 0.355469 2.714844 0.316406 2.773438 0.277344 2.832031 L 1.589844 3.75 L 0 3.75 L 0 5.832031 L 1.617188 5.832031 L 0 6.984375 L 0 7.5 L 1.386719 7.5 L 2.917969 6.429688 L 2.917969 7.5 L 5 7.5 L 5 6.136719 L 6.945312 7.5 L 7.917969 7.5 L 7.917969 6.65625 L 6.742188 5.832031 L 7.917969 5.832031 L 7.917969 3.75 L 6.746094 3.75 L 7.917969 2.929688 Z M 7.917969 2.082031 "/>
<path style=" stroke:none;fill-rule:nonzero;fill:rgb(81.176471%,10.588235%,16.862745%);fill-opacity:1;" d="M 4.582031 2.082031 L 3.332031 2.082031 L 3.332031 4.167969 L 0 4.167969 L 0 5.417969 L 3.332031 5.417969 L 3.332031 7.5 L 4.582031 7.5 L 4.582031 5.417969 L 7.917969 5.417969 L 7.917969 4.167969 L 4.582031 4.167969 Z M 4.582031 2.082031 "/>
<path style=" stroke:none;fill-rule:nonzero;fill:rgb(81.176471%,10.588235%,16.862745%);fill-opacity:1;" d="M 7.917969 2.082031 L 7.308594 2.082031 L 5 3.699219 L 5 3.75 L 5.65625 3.75 L 7.917969 2.164062 Z M 0.71875 2.378906 C 0.601562 2.460938 0.496094 2.554688 0.402344 2.664062 L 1.953125 3.75 L 2.675781 3.75 Z M 2.683594 5.832031 L 0.304688 7.5 L 1.027344 7.5 L 2.917969 6.175781 L 2.917969 5.832031 Z M 7.917969 7.417969 L 7.917969 6.910156 L 6.378906 5.832031 L 5.652344 5.832031 Z M 7.917969 7.417969 "/>
</g>
</svg>
