<?xml version="1.0" encoding="UTF-8"?>
<svg xmlns="http://www.w3.org/2000/svg" xmlns:xlink="http://www.w3.org/1999/xlink" width="15pt" height="15pt" viewBox="0 0 15 15" version="1.1">
<g id="surface1">
<path style=" stroke:none;fill-rule:nonzero;fill:rgb(40.784314%,74.901961%,89.803922%);fill-opacity:1;" d="M 13.332031 2.082031 L 1.667969 2.082031 C 1.582031 2.082031 1.496094 2.089844 1.414062 2.101562 L 1.414062 2.832031 L 0.277344 2.832031 C 0.101562 3.09375 0 3.410156 0 3.75 L 0 11.25 C 0 12.171875 0.746094 12.917969 1.667969 12.917969 L 13.332031 12.917969 C 14.253906 12.917969 15 12.171875 15 11.25 L 15 3.75 C 15 2.828125 14.253906 2.082031 13.332031 2.082031 Z M 13.332031 2.082031 "/>
<path style=" stroke:none;fill-rule:nonzero;fill:rgb(0%,0%,0%);fill-opacity:1;" d="M 11.519531 4.84375 L 9.488281 4.84375 L 9.488281 8.28125 C 9.488281 9.445312 11.519531 10.09375 11.519531 10.09375 C 11.519531 10.09375 13.550781 9.445312 13.550781 8.28125 L 13.550781 4.84375 Z M 11.519531 4.84375 "/>
<path style=" stroke:none;fill-rule:nonzero;fill:rgb(100%,100%,100%);fill-opacity:1;" d="M 11.519531 10.007812 C 11.289062 9.929688 9.570312 9.300781 9.570312 8.28125 L 9.570312 4.925781 L 13.46875 4.925781 L 13.46875 8.28125 C 13.46875 9.300781 11.75 9.929688 11.519531 10.007812 Z M 11.519531 10.007812 "/>
<path style=" stroke:none;fill-rule:nonzero;fill:rgb(82.352941%,6.27451%,20.392157%);fill-opacity:1;" d="M 13.46875 6.207031 L 13.46875 4.925781 L 9.570312 4.925781 L 9.570312 6.207031 L 11.242188 6.207031 L 11.242188 7.621094 L 9.570312 7.621094 L 9.570312 8.167969 L 11.242188 8.167969 L 11.242188 9.902344 C 11.375 9.957031 11.472656 9.992188 11.519531 10.007812 C 11.5625 9.992188 11.660156 9.957031 11.789062 9.90625 L 11.789062 8.167969 L 13.46875 8.167969 L 13.46875 7.621094 L 11.789062 7.621094 L 11.789062 6.207031 Z M 13.46875 6.207031 "/>
<path style=" stroke:none;fill-rule:nonzero;fill:rgb(100%,100%,100%);fill-opacity:1;" d="M 10.078125 5.703125 C 10.078125 5.820312 9.96875 5.914062 9.839844 5.914062 C 9.707031 5.914062 9.601562 5.820312 9.601562 5.703125 C 9.601562 5.589844 9.707031 5.496094 9.839844 5.496094 C 9.96875 5.496094 10.078125 5.589844 10.078125 5.703125 Z M 10.078125 5.703125 "/>
<path style=" stroke:none;fill-rule:nonzero;fill:rgb(100%,81.960784%,0.392157%);fill-opacity:1;" d="M 9.882812 5.539062 C 9.746094 5.5625 9.679688 5.480469 9.707031 5.402344 C 9.734375 5.324219 9.863281 5.253906 9.988281 5.242188 C 10.109375 5.226562 10.226562 5.351562 10.324219 5.359375 C 10.421875 5.363281 10.476562 5.308594 10.496094 5.238281 C 10.515625 5.167969 10.652344 5.007812 10.566406 4.96875 C 10.675781 4.96875 10.675781 5.085938 10.675781 5.085938 C 10.675781 5.085938 10.800781 4.960938 10.890625 4.96875 C 10.945312 5.058594 10.890625 5.1875 10.890625 5.1875 C 10.890625 5.1875 11.023438 5.136719 11.113281 5.195312 C 10.9375 5.222656 10.910156 5.324219 10.910156 5.324219 C 10.910156 5.324219 10.945312 5.410156 10.898438 5.453125 C 10.851562 5.5 11.257812 5.585938 11.476562 5.519531 C 11.699219 5.453125 12.121094 5.304688 12.394531 5.304688 C 12.667969 5.304688 12.726562 5.410156 12.792969 5.316406 C 12.859375 5.226562 12.714844 5.128906 12.480469 5.148438 C 12.246094 5.167969 11.847656 5.441406 11.691406 5.257812 C 11.652344 5.257812 11.632812 5.304688 11.632812 5.304688 C 11.632812 5.304688 11.535156 5.273438 11.4375 5.21875 C 11.339844 5.167969 11.359375 5.34375 11.414062 5.371094 C 11.25 5.363281 11.253906 5.257812 11.253906 5.257812 C 11.253906 5.257812 11.054688 5.109375 11.183594 5 C 11.195312 5.203125 11.375 5.144531 11.472656 5.105469 C 11.570312 5.066406 11.691406 5.097656 11.75 5.148438 C 11.808594 5.203125 11.980469 5.246094 12.195312 5.125 C 12.410156 5 12.988281 4.953125 12.996094 5.214844 C 13 5.476562 12.707031 5.496094 12.707031 5.496094 C 12.707031 5.496094 12.742188 5.652344 12.921875 5.617188 C 13.105469 5.585938 13.222656 5.535156 13.273438 5.675781 C 13.328125 5.820312 13.445312 5.828125 13.40625 5.945312 C 13.367188 6.0625 13.234375 6.117188 13.058594 6.085938 C 12.882812 6.054688 12.863281 5.984375 13.007812 5.957031 C 13.152344 5.933594 13.175781 5.820312 13.125 5.792969 C 13.074219 5.769531 12.976562 5.871094 12.84375 5.820312 C 12.714844 5.769531 12.546875 5.664062 12.546875 5.664062 C 12.546875 5.664062 12.550781 5.734375 12.433594 5.773438 C 12.316406 5.8125 12.414062 5.859375 12.449219 5.929688 C 12.480469 6.003906 12.332031 6.0625 12.175781 6.09375 C 12.019531 6.125 11.902344 6.210938 11.75 6.027344 C 11.601562 5.847656 11.789062 5.792969 11.867188 5.851562 C 11.945312 5.910156 12.023438 6.015625 12.089844 5.964844 C 12.15625 5.910156 12.042969 5.878906 12.03125 5.78125 C 12.019531 5.683594 12.039062 5.566406 12.039062 5.566406 C 12.039062 5.566406 11.828125 5.890625 11.386719 5.957031 C 10.945312 6.023438 10.867188 6.023438 10.867188 6.023438 L 10.734375 5.929688 L 10.578125 6.035156 L 10.574219 5.917969 C 10.574219 5.917969 10.324219 6.113281 10.195312 6.140625 C 10.066406 6.171875 9.710938 6.085938 9.703125 5.988281 C 9.695312 5.890625 9.734375 5.847656 9.851562 5.808594 C 9.96875 5.765625 9.988281 5.832031 10.046875 5.886719 C 10.105469 5.9375 10.167969 6.007812 10.253906 5.9375 C 10.339844 5.867188 10.382812 5.839844 10.382812 5.839844 L 10.410156 5.714844 L 10.285156 5.710938 L 10.332031 5.566406 C 10.332031 5.566406 10.238281 5.585938 10.175781 5.527344 C 10.109375 5.46875 10.101562 5.410156 10.046875 5.429688 C 9.988281 5.449219 10.03125 5.515625 9.882812 5.539062 Z M 9.882812 5.539062 "/>
<path style=" stroke:none;fill-rule:nonzero;fill:rgb(58.823529%,29.411765%,21.176471%);fill-opacity:1;" d="M 10.195312 7.429688 C 10.085938 7.472656 9.914062 7.109375 10.011719 7.003906 C 10.109375 6.902344 10.304688 7.382812 10.195312 7.429688 Z M 10.410156 7.382812 C 10.304688 7.390625 10.34375 6.886719 10.410156 6.886719 C 10.476562 6.886719 10.554688 7.371094 10.410156 7.382812 Z M 10.59375 7.460938 C 10.464844 7.4375 10.65625 7.136719 10.710938 7.136719 C 10.761719 7.136719 10.742188 7.488281 10.59375 7.460938 Z M 12.648438 7.546875 C 12.394531 7.550781 12.539062 7.5 12.566406 7.433594 C 12.589844 7.363281 12.574219 6.847656 12.574219 6.847656 L 12.722656 6.847656 C 12.722656 6.847656 12.675781 7.292969 12.722656 7.382812 C 12.765625 7.472656 12.882812 7.539062 12.648438 7.546875 Z M 13.152344 8.445312 C 13.210938 8.375 13.058594 8.269531 12.957031 8.269531 C 12.851562 8.269531 12.734375 8.328125 12.644531 8.574219 C 12.558594 8.820312 12.742188 8.75 12.792969 8.613281 C 12.839844 8.476562 12.878906 8.398438 12.949219 8.390625 C 13.019531 8.386719 13.046875 8.5625 13.152344 8.445312 Z M 12.15625 9.308594 C 12.019531 9.300781 11.90625 9.648438 11.90625 9.648438 C 11.90625 9.648438 12.507812 9.335938 12.15625 9.308594 Z M 12.15625 9.308594 "/>
<path style=" stroke:none;fill-rule:nonzero;fill:rgb(0%,65.098039%,31.764706%);fill-opacity:1;" d="M 10.078125 7.136719 C 10.109375 7.238281 9.777344 7.117188 9.773438 7.300781 C 9.636719 7.277344 9.832031 7.011719 9.953125 7.050781 C 9.929688 6.90625 9.746094 6.847656 9.726562 7.082031 C 9.519531 6.902344 9.78125 6.726562 9.902344 6.804688 C 9.839844 6.582031 9.714844 6.585938 9.703125 6.71875 C 9.546875 6.589844 9.703125 6.378906 9.839844 6.476562 C 9.972656 6.574219 9.984375 6.679688 9.984375 6.679688 C 9.984375 6.679688 10.078125 6.34375 10.320312 6.453125 C 10.027344 6.574219 9.972656 6.796875 10.078125 7.136719 Z M 10.078125 7.136719 "/>
<path style=" stroke:none;fill-rule:nonzero;fill:rgb(0%,65.098039%,31.764706%);fill-opacity:1;" d="M 10.417969 6.992188 C 10.332031 6.90625 10.28125 6.816406 10.28125 6.816406 C 10.28125 6.816406 10.371094 7.0625 10.226562 7.167969 C 10.234375 6.941406 10.078125 6.863281 10.164062 6.769531 C 10.246094 6.679688 10.390625 6.769531 10.390625 6.769531 C 10.390625 6.769531 10.425781 6.71875 10.277344 6.589844 C 10.132812 6.460938 10.027344 6.464844 10.019531 6.355469 C 10.167969 6.441406 10.390625 6.441406 10.417969 6.6875 C 10.449219 6.394531 10.582031 6.386719 10.640625 6.378906 C 10.703125 6.375 10.847656 6.40625 10.898438 6.355469 C 10.898438 6.457031 10.78125 6.425781 10.703125 6.457031 C 10.808594 6.53125 10.8125 6.761719 10.8125 6.761719 C 10.8125 6.761719 10.664062 6.496094 10.597656 6.515625 C 10.535156 6.535156 10.492188 6.734375 10.492188 6.734375 C 10.492188 6.734375 10.726562 6.726562 10.640625 7.046875 C 10.605469 6.871094 10.566406 6.847656 10.519531 6.847656 C 10.476562 6.847656 10.417969 6.992188 10.417969 6.992188 Z M 10.417969 6.992188 "/>
<path style=" stroke:none;fill-rule:nonzero;fill:rgb(0%,65.098039%,31.764706%);fill-opacity:1;" d="M 10.640625 7.210938 C 10.652344 7.089844 10.710938 6.882812 10.773438 6.863281 C 10.796875 6.730469 10.867188 6.542969 11.007812 6.511719 C 11.152344 6.476562 11.183594 6.628906 11.152344 6.710938 C 11.066406 6.589844 10.949219 6.554688 10.925781 6.847656 C 11.046875 6.816406 11.121094 6.914062 11.085938 7.042969 C 10.96875 6.90625 10.886719 6.890625 10.832031 6.992188 C 10.96875 7.042969 10.972656 7.160156 10.902344 7.257812 C 10.871094 7.089844 10.78125 7.101562 10.734375 7.257812 C 10.6875 7.414062 10.640625 7.210938 10.640625 7.210938 Z M 12.621094 6.992188 C 12.472656 6.992188 12.277344 7.144531 12.265625 7.382812 C 12.109375 7.148438 12.300781 6.886719 12.5 6.796875 C 12.148438 6.804688 12.019531 6.960938 11.972656 7.089844 C 11.925781 6.746094 12.367188 6.609375 12.5 6.667969 C 12.414062 6.515625 12.078125 6.527344 11.90625 6.652344 C 11.90625 6.367188 12.414062 6.296875 12.621094 6.558594 C 12.597656 6.347656 12.683594 6.296875 12.683594 6.296875 L 12.683594 6.574219 C 12.683594 6.574219 13.152344 6.132812 13.414062 6.667969 C 12.996094 6.453125 12.792969 6.671875 12.792969 6.671875 C 12.792969 6.671875 13.222656 6.570312 13.164062 7.070312 C 13.027344 6.765625 12.742188 6.796875 12.742188 6.796875 C 12.742188 6.796875 13.074219 6.945312 12.941406 7.316406 C 12.8125 6.960938 12.621094 6.992188 12.621094 6.992188 Z M 12.621094 6.992188 "/>
<path style=" stroke:none;fill-rule:nonzero;fill:rgb(100%,94.901961%,0.784314%);fill-opacity:1;" d="M 12.304688 8.621094 C 12.285156 8.425781 12.53125 8.3125 12.53125 8.3125 C 12.53125 8.3125 12.949219 8.566406 13.007812 8.621094 C 13.066406 8.671875 12.972656 8.890625 12.792969 8.945312 C 12.609375 9.003906 12.304688 8.621094 12.304688 8.621094 Z M 12.304688 8.621094 "/>
<path style=" stroke:none;fill-rule:nonzero;fill:rgb(0%,65.098039%,31.764706%);fill-opacity:1;" d="M 12.191406 9.316406 C 12.09375 9.253906 12.03125 8.90625 12.191406 8.875 C 12.128906 8.664062 12.257812 8.5625 12.304688 8.546875 C 12.351562 8.535156 12.519531 8.609375 12.644531 8.734375 C 12.773438 8.855469 12.882812 8.882812 12.894531 8.929688 C 12.902344 8.976562 12.8125 9.121094 12.660156 9.132812 C 12.707031 9.277344 12.34375 9.410156 12.191406 9.316406 Z M 12.191406 9.316406 "/>
<path style=" stroke:none;fill-rule:nonzero;fill:rgb(0%,0%,0%);fill-opacity:1;" d="M 10.019531 8.503906 C 10.019531 8.503906 10.117188 8.464844 10.175781 8.40625 C 10.234375 8.347656 10.3125 8.347656 10.378906 8.453125 C 10.441406 8.5625 10.492188 8.699219 10.492188 8.699219 C 10.492188 8.699219 10.46875 8.503906 10.671875 8.398438 C 10.871094 8.292969 10.902344 8.269531 10.902344 8.269531 L 10.832031 8.546875 C 10.832031 8.546875 11.074219 8.398438 11.113281 8.3125 C 11.164062 8.644531 10.917969 8.882812 10.761719 8.945312 C 10.847656 9.089844 10.808594 9.207031 10.808594 9.207031 L 11.09375 9.441406 L 10.78125 9.539062 L 10.640625 9.238281 C 10.640625 9.238281 10.28125 9.25 10.226562 8.976562 C 10.175781 8.703125 10.300781 8.558594 10.226562 8.546875 C 10.15625 8.535156 10.019531 8.503906 10.019531 8.503906 Z M 10.019531 8.503906 "/>
<path style=" stroke:none;fill-rule:nonzero;fill:rgb(100%,100%,100%);fill-opacity:1;" d="M 10.667969 9.195312 L 10.640625 9.195312 C 10.578125 9.195312 10.3125 9.183594 10.269531 8.96875 C 10.242188 8.828125 10.265625 8.722656 10.28125 8.652344 C 10.292969 8.597656 10.300781 8.5625 10.28125 8.53125 L 10.269531 8.519531 L 10.234375 8.503906 C 10.207031 8.5 10.171875 8.496094 10.140625 8.488281 C 10.164062 8.472656 10.1875 8.453125 10.207031 8.433594 C 10.21875 8.421875 10.238281 8.40625 10.257812 8.40625 C 10.285156 8.40625 10.316406 8.429688 10.34375 8.476562 C 10.402344 8.578125 10.453125 8.710938 10.453125 8.710938 L 10.53125 8.691406 C 10.53125 8.6875 10.515625 8.523438 10.691406 8.433594 C 10.753906 8.402344 10.804688 8.375 10.839844 8.355469 L 10.769531 8.636719 L 10.855469 8.582031 C 10.882812 8.5625 11 8.492188 11.078125 8.417969 C 11.070312 8.683594 10.855469 8.863281 10.746094 8.90625 L 10.703125 8.925781 L 10.726562 8.96875 C 10.800781 9.089844 10.769531 9.1875 10.769531 9.191406 L 10.757812 9.21875 L 11.007812 9.421875 L 10.804688 9.488281 Z M 10.667969 9.195312 "/>
<path style=" stroke:none;fill-rule:nonzero;fill:rgb(0%,65.098039%,31.764706%);fill-opacity:1;" d="M 10.105469 8.457031 C 10.058594 8.347656 10.058594 8.347656 9.984375 8.3125 C 9.980469 8.386719 9.984375 8.429688 9.984375 8.429688 C 9.984375 8.429688 9.941406 8.292969 9.875 8.3125 C 9.835938 8.46875 9.976562 8.503906 9.976562 8.503906 C 9.976562 8.503906 9.914062 8.523438 9.921875 8.632812 C 10.03125 8.679688 10.019531 8.582031 10.019531 8.582031 C 10.019531 8.582031 9.996094 8.679688 10.078125 8.738281 C 10.128906 8.652344 10.105469 8.457031 10.105469 8.457031 Z M 10.105469 8.457031 "/>
<path style=" stroke:none;fill-rule:nonzero;fill:rgb(0%,14.117647%,49.019608%);fill-opacity:1;" d="M 7.917969 7.5 L 7.917969 2.082031 L 1.667969 2.082031 C 1.535156 2.082031 1.414062 2.101562 1.414062 2.101562 L 1.414062 2.832031 L 0.277344 2.832031 C 0.277344 2.832031 0.257812 2.855469 0.222656 2.917969 C 0.0820312 3.160156 0 3.445312 0 3.75 L 0 7.5 Z M 7.917969 7.5 "/>
<path style=" stroke:none;fill-rule:nonzero;fill:rgb(93.333333%,93.333333%,93.333333%);fill-opacity:1;" d="M 7.917969 2.082031 L 6.945312 2.082031 L 5 3.445312 L 5 2.082031 L 2.917969 2.082031 L 2.917969 3.152344 L 1.414062 2.101562 C 1.160156 2.140625 0.917969 2.238281 0.71875 2.378906 L 2.675781 3.75 L 1.953125 3.75 L 0.402344 2.664062 C 0.355469 2.714844 0.316406 2.773438 0.277344 2.832031 L 1.589844 3.75 L 0 3.75 L 0 5.832031 L 1.617188 5.832031 L 0 6.984375 L 0 7.5 L 1.386719 7.5 L 2.917969 6.429688 L 2.917969 7.5 L 5 7.5 L 5 6.136719 L 6.945312 7.5 L 7.917969 7.5 L 7.917969 6.65625 L 6.742188 5.832031 L 7.917969 5.832031 L 7.917969 3.75 L 6.746094 3.75 L 7.917969 2.929688 Z M 7.917969 2.082031 "/>
<path style=" stroke:none;fill-rule:nonzero;fill:rgb(81.176471%,10.588235%,16.862745%);fill-opacity:1;" d="M 4.582031 2.082031 L 3.332031 2.082031 L 3.332031 4.167969 L 0 4.167969 L 0 5.417969 L 3.332031 5.417969 L 3.332031 7.5 L 4.582031 7.5 L 4.582031 5.417969 L 7.917969 5.417969 L 7.917969 4.167969 L 4.582031 4.167969 Z M 4.582031 2.082031 "/>
<path style=" stroke:none;fill-rule:nonzero;fill:rgb(81.176471%,10.588235%,16.862745%);fill-opacity:1;" d="M 7.917969 2.082031 L 7.308594 2.082031 L 5 3.699219 L 5 3.75 L 5.65625 3.75 L 7.917969 2.164062 Z M 0.71875 2.378906 C 0.601562 2.460938 0.496094 2.554688 0.402344 2.664062 L 1.953125 3.75 L 2.675781 3.75 Z M 2.683594 5.832031 L 0.304688 7.5 L 1.027344 7.5 L 2.917969 6.175781 L 2.917969 5.832031 Z M 7.917969 7.417969 L 7.917969 6.910156 L 6.378906 5.832031 L 5.652344 5.832031 Z M 7.917969 7.417969 "/>
</g>
</svg>
