<?xml version="1.0" encoding="UTF-8"?>
<svg xmlns="http://www.w3.org/2000/svg" xmlns:xlink="http://www.w3.org/1999/xlink" width="15pt" height="15pt" viewBox="0 0 15 15" version="1.1">
<g id="surface1">
<path style=" stroke:none;fill-rule:nonzero;fill:rgb(7.843137%,7.843137%,7.843137%);fill-opacity:1;" d="M 0 7.5 L 0 11.25 C 0 12.171875 0.746094 12.917969 1.667969 12.917969 L 13.332031 12.917969 C 14.253906 12.917969 15 12.171875 15 11.25 L 15 7.5 Z M 0 7.5 "/>
<path style=" stroke:none;fill-rule:nonzero;fill:rgb(80.784314%,10.588235%,14.901961%);fill-opacity:1;" d="M 15 7.5 L 15 3.75 C 15 2.828125 14.253906 2.082031 13.332031 2.082031 L 1.667969 2.082031 C 0.746094 2.082031 0 2.828125 0 3.75 L 0 7.5 Z M 15 7.5 "/>
<path style=" stroke:none;fill-rule:nonzero;fill:rgb(97.647059%,83.921569%,8.627451%);fill-opacity:1;" d="M 7.273438 5.6875 L 7.523438 6.195312 L 8.085938 6.277344 L 7.679688 6.671875 L 7.773438 7.230469 L 7.273438 6.96875 L 6.769531 7.230469 L 6.863281 6.671875 L 6.457031 6.277344 L 7.019531 6.195312 Z M 6.316406 7.160156 C 6.457031 7.394531 7.636719 8.625 8.78125 9.34375 C 8.933594 9.441406 9.34375 9.753906 9.5 9.863281 C 9.433594 9.949219 9.34375 10.070312 9.246094 10.175781 C 9.082031 10.046875 7.589844 9.128906 7.101562 8.878906 C 6.613281 8.632812 6.171875 8.203125 6.171875 7.792969 C 6.171875 7.382812 6.316406 7.160156 6.316406 7.160156 Z M 9.578125 9.914062 C 9.503906 10.019531 9.394531 10.164062 9.328125 10.242188 C 9.460938 10.261719 9.792969 10.421875 9.960938 10.773438 C 10.128906 11.125 10.4375 10.945312 10.410156 10.753906 C 10.382812 10.566406 10.011719 10.15625 9.578125 9.914062 Z M 9.578125 9.914062 "/>
<path style=" stroke:none;fill-rule:nonzero;fill:rgb(16.078431%,18.431373%,20%);fill-opacity:1;" d="M 9.765625 10.203125 C 9.765625 10.246094 9.730469 10.28125 9.691406 10.28125 C 9.648438 10.28125 9.617188 10.246094 9.617188 10.203125 C 9.617188 10.164062 9.648438 10.128906 9.691406 10.128906 C 9.730469 10.128906 9.765625 10.164062 9.765625 10.203125 Z M 9.765625 10.203125 "/>
<path style=" stroke:none;fill-rule:nonzero;fill:rgb(16.078431%,18.431373%,20%);fill-opacity:1;" d="M 10.183594 10.621094 C 10.183594 10.664062 10.148438 10.695312 10.109375 10.695312 C 10.066406 10.695312 10.03125 10.664062 10.03125 10.621094 C 10.03125 10.582031 10.066406 10.546875 10.109375 10.546875 C 10.148438 10.546875 10.183594 10.582031 10.183594 10.621094 Z M 10.183594 10.621094 "/>
<path style=" stroke:none;fill-rule:nonzero;fill:rgb(16.078431%,18.431373%,20%);fill-opacity:1;" d="M 9.394531 10.015625 C 9.382812 10.015625 9.371094 10.011719 9.359375 10.007812 L 7.417969 8.683594 C 7.390625 8.664062 7.382812 8.625 7.402344 8.597656 C 7.421875 8.570312 7.460938 8.5625 7.488281 8.582031 L 9.429688 9.902344 C 9.457031 9.921875 9.464844 9.960938 9.445312 9.988281 C 9.433594 10.007812 9.414062 10.015625 9.394531 10.015625 Z M 9.394531 10.015625 "/>
<path style=" stroke:none;fill-rule:nonzero;fill:rgb(97.647059%,83.921569%,8.627451%);fill-opacity:1;" d="M 10.34375 7.769531 L 10.347656 7.230469 L 9.894531 7.234375 C 9.878906 7.058594 9.84375 6.890625 9.792969 6.730469 L 10.199219 6.566406 L 10.015625 6.058594 L 9.582031 6.234375 C 9.507812 6.097656 9.421875 5.972656 9.324219 5.855469 L 9.617188 5.523438 L 9.203125 5.175781 L 8.941406 5.472656 C 8.8125 5.367188 8.675781 5.273438 8.527344 5.195312 L 8.714844 4.792969 L 8.210938 4.601562 L 8.027344 4.992188 C 7.878906 4.949219 7.722656 4.917969 7.566406 4.902344 L 7.507812 5.464844 C 8.546875 5.570312 9.363281 6.4375 9.363281 7.507812 C 9.363281 8.136719 9.074219 8.691406 8.632812 9.070312 L 8.863281 9.230469 L 9.433594 9.652344 L 9.652344 9.410156 L 9.304688 9.152344 C 9.410156 9.027344 9.503906 8.890625 9.585938 8.746094 L 10.003906 8.917969 L 10.210938 8.421875 L 9.792969 8.25 C 9.839844 8.097656 9.875 7.9375 9.894531 7.773438 Z M 8.289062 9.902344 L 8.117188 9.570312 L 7.90625 9.46875 C 7.710938 9.527344 7.511719 9.570312 7.296875 9.570312 C 6.800781 9.570312 6.347656 9.386719 5.992188 9.089844 L 5.644531 9.5 C 5.773438 9.605469 5.914062 9.695312 6.058594 9.777344 L 5.875 10.175781 L 6.371094 10.386719 L 6.558594 9.980469 C 6.703125 10.023438 6.851562 10.054688 7.003906 10.070312 L 7 10.492188 L 7.542969 10.488281 L 7.542969 10.085938 C 7.710938 10.070312 7.875 10.039062 8.035156 9.992188 L 8.175781 10.40625 L 8.464844 10.320312 L 8.285156 9.90625 Z M 8.289062 9.902344 "/>
</g>
</svg>
