<?xml version="1.0" encoding="UTF-8"?>
<svg xmlns="http://www.w3.org/2000/svg" xmlns:xlink="http://www.w3.org/1999/xlink" width="15pt" height="15pt" viewBox="0 0 15 15" version="1.1">
<g id="surface1">
<path style=" stroke:none;fill-rule:nonzero;fill:rgb(23.137255%,53.333333%,76.470588%);fill-opacity:1;" d="M 15 13.332031 C 15 14.253906 14.253906 15 13.332031 15 L 1.667969 15 C 0.746094 15 0 14.253906 0 13.332031 L 0 1.667969 C 0 0.746094 0.746094 0 1.667969 0 L 13.332031 0 C 14.253906 0 15 0.746094 15 1.667969 Z M 15 13.332031 "/>
<path style=" stroke:none;fill-rule:nonzero;fill:rgb(100%,100%,100%);fill-opacity:1;" d="M 9.625 9.5 C 9.625 11.671875 8.242188 12.238281 7.066406 12.238281 C 6.175781 12.238281 4.691406 11.890625 4.691406 10.765625 C 4.691406 10.417969 4.988281 9.976562 5.414062 9.976562 C 5.929688 9.976562 6.382812 10.457031 6.964844 10.457031 C 7.6875 10.457031 7.6875 9.785156 7.6875 9.371094 L 7.6875 3.816406 C 7.6875 3.167969 8.101562 2.808594 8.65625 2.808594 C 9.210938 2.808594 9.625 3.167969 9.625 3.816406 Z M 9.625 9.5 "/>
</g>
</svg>
