<?xml version="1.0" encoding="UTF-8"?>
<svg xmlns="http://www.w3.org/2000/svg" xmlns:xlink="http://www.w3.org/1999/xlink" width="15pt" height="15pt" viewBox="0 0 15 15" version="1.1">
<g id="surface1">
<path style=" stroke:none;fill-rule:nonzero;fill:rgb(93.333333%,92.941176%,92.941176%);fill-opacity:1;" d="M 0.570312 12.503906 L 14.429688 2.496094 C 14.136719 2.238281 13.753906 2.082031 13.332031 2.082031 L 5.519531 2.082031 L 0 6.597656 L 0 11.25 C 0 11.75 0.21875 12.199219 0.570312 12.503906 Z M 0.570312 12.503906 "/>
<path style=" stroke:none;fill-rule:nonzero;fill:rgb(0.392157%,16.470588%,52.941176%);fill-opacity:1;" d="M 14.429688 2.496094 L 0.570312 12.503906 C 0.863281 12.761719 1.246094 12.917969 1.667969 12.917969 L 13.332031 12.917969 C 14.253906 12.917969 15 12.171875 15 11.25 L 15 3.75 C 15 3.519531 14.953125 3.300781 14.871094 3.101562 C 14.769531 2.867188 14.621094 2.660156 14.429688 2.496094 Z M 14.429688 2.496094 "/>
<path style=" stroke:none;fill-rule:nonzero;fill:rgb(97.647059%,85.098039%,5.882353%);fill-opacity:1;" d="M 1.667969 2.082031 C 0.746094 2.082031 0 2.828125 0 3.75 L 0 6.597656 L 5.519531 2.082031 Z M 1.667969 2.082031 "/>
<path style=" stroke:none;fill-rule:nonzero;fill:rgb(0%,0%,0%);fill-opacity:1;" d="M 6.878906 6.621094 L 7.378906 6.335938 L 6.878906 6.050781 C 6.75 5 5.917969 4.167969 4.871094 4.039062 L 4.582031 3.542969 L 4.296875 4.039062 C 3.25 4.167969 2.417969 5 2.285156 6.046875 L 1.789062 6.335938 L 2.285156 6.621094 C 2.417969 7.671875 3.25 8.503906 4.296875 8.632812 L 4.582031 9.128906 L 4.871094 8.632812 C 5.917969 8.503906 6.75 7.671875 6.878906 6.621094 Z M 4.582031 8.351562 C 3.472656 8.351562 2.566406 7.449219 2.566406 6.335938 C 2.566406 5.222656 3.46875 4.316406 4.582031 4.316406 C 5.695312 4.316406 6.601562 5.222656 6.601562 6.335938 C 6.601562 7.449219 5.695312 8.351562 4.582031 8.351562 Z M 4.582031 8.351562 "/>
<path style=" stroke:none;fill-rule:nonzero;fill:rgb(86.27451%,9.019608%,11.372549%);fill-opacity:1;" d="M 5.378906 6.335938 L 5.78125 5.644531 L 4.980469 5.644531 L 4.582031 4.953125 L 4.183594 5.644531 L 3.386719 5.644531 L 3.785156 6.335938 L 3.386719 7.027344 L 4.183594 7.027344 L 4.582031 7.71875 L 4.980469 7.027344 L 5.78125 7.027344 Z M 5.378906 6.335938 "/>
</g>
</svg>
