<?xml version="1.0" encoding="UTF-8"?>
<svg xmlns="http://www.w3.org/2000/svg" xmlns:xlink="http://www.w3.org/1999/xlink" width="15pt" height="15pt" viewBox="0 0 15 15" version="1.1">
<g id="surface1">
<path style=" stroke:none;fill-rule:nonzero;fill:rgb(80.784314%,10.588235%,14.901961%);fill-opacity:1;" d="M 15 11.25 C 15 12.171875 14.253906 12.917969 13.332031 12.917969 L 1.667969 12.917969 C 0.746094 12.917969 0 12.171875 0 11.25 L 0 3.75 C 0 2.828125 0.746094 2.082031 1.667969 2.082031 L 13.332031 2.082031 C 14.253906 2.082031 15 2.828125 15 3.75 Z M 15 11.25 "/>
<path style=" stroke:none;fill-rule:nonzero;fill:rgb(0%,24.313725%,52.941176%);fill-opacity:1;" d="M 0.230469 2.917969 C 0.0898438 3.164062 0 3.445312 0 3.75 L 0 11.25 C 0 11.554688 0.0898438 11.835938 0.230469 12.082031 L 14.769531 12.082031 C 14.910156 11.835938 15 11.554688 15 11.25 L 15 3.75 C 15 3.445312 14.910156 3.164062 14.769531 2.917969 Z M 0.230469 2.917969 "/>
<path style=" stroke:none;fill-rule:nonzero;fill:rgb(100%,100%,100%);fill-opacity:1;" d="M 11.667969 7.5 C 11.667969 9.800781 9.800781 11.667969 7.5 11.667969 C 5.199219 11.667969 3.332031 9.800781 3.332031 7.5 C 3.332031 5.199219 5.199219 3.332031 7.5 3.332031 C 9.800781 3.332031 11.667969 5.199219 11.667969 7.5 Z M 11.667969 7.5 "/>
<path style=" stroke:none;fill-rule:nonzero;fill:rgb(45.098039%,3.529412%,0%);fill-opacity:1;" d="M 11.25 7.5 C 11.25 9.570312 9.570312 11.25 7.5 11.25 C 5.429688 11.25 3.75 9.570312 3.75 7.5 C 3.75 5.429688 5.429688 3.75 7.5 3.75 C 9.570312 3.75 11.25 5.429688 11.25 7.5 Z M 11.25 7.5 "/>
<path style=" stroke:none;fill-rule:nonzero;fill:rgb(100%,100%,100%);fill-opacity:1;" d="M 11.144531 7.5 C 11.144531 9.511719 9.511719 11.144531 7.5 11.144531 C 5.488281 11.144531 3.855469 9.511719 3.855469 7.5 C 3.855469 5.488281 5.488281 3.855469 7.5 3.855469 C 9.511719 3.855469 11.144531 5.488281 11.144531 7.5 Z M 11.144531 7.5 "/>
<path style=" stroke:none;fill-rule:nonzero;fill:rgb(0%,49.803922%,0%);fill-opacity:1;" d="M 7.710938 3.75 C 7.710938 3.597656 7.617188 3.476562 7.5 3.476562 C 7.382812 3.476562 7.289062 3.597656 7.289062 3.75 C 7.289062 3.902344 7.382812 4.023438 7.5 4.023438 C 7.617188 4.023438 7.710938 3.902344 7.710938 3.75 Z M 7.710938 3.75 "/>
<path style=" stroke:none;fill-rule:nonzero;fill:rgb(0%,49.803922%,0%);fill-opacity:1;" d="M 7.710938 11.25 C 7.710938 11.097656 7.617188 10.976562 7.5 10.976562 C 7.382812 10.976562 7.289062 11.097656 7.289062 11.25 C 7.289062 11.402344 7.382812 11.523438 7.5 11.523438 C 7.617188 11.523438 7.710938 11.402344 7.710938 11.25 Z M 7.710938 11.25 "/>
<path style=" stroke:none;fill-rule:nonzero;fill:rgb(0%,49.803922%,0%);fill-opacity:1;" d="M 6.324219 11.066406 C 6.363281 10.921875 6.488281 10.828125 6.601562 10.859375 C 6.714844 10.886719 6.773438 11.03125 6.734375 11.175781 C 6.695312 11.324219 6.574219 11.417969 6.457031 11.386719 C 6.34375 11.355469 6.285156 11.214844 6.324219 11.066406 Z M 8.398438 4.140625 C 8.511719 4.171875 8.636719 4.078125 8.675781 3.933594 C 8.714844 3.785156 8.65625 3.644531 8.542969 3.613281 C 8.429688 3.582031 8.304688 3.675781 8.265625 3.820312 C 8.226562 3.96875 8.285156 4.109375 8.398438 4.140625 Z M 5.441406 10.640625 C 5.515625 10.511719 5.660156 10.453125 5.761719 10.511719 C 5.863281 10.570312 5.882812 10.722656 5.808594 10.851562 C 5.734375 10.984375 5.589844 11.042969 5.488281 10.984375 C 5.386719 10.925781 5.367188 10.773438 5.441406 10.640625 Z M 9.238281 4.488281 C 9.339844 4.546875 9.484375 4.488281 9.558594 4.359375 C 9.636719 4.226562 9.613281 4.074219 9.511719 4.015625 C 9.410156 3.957031 9.265625 4.015625 9.191406 4.144531 C 9.117188 4.277344 9.136719 4.429688 9.238281 4.488281 Z M 4.699219 10 C 4.804688 9.894531 4.957031 9.875 5.042969 9.957031 C 5.125 10.039062 5.105469 10.195312 5 10.300781 C 4.890625 10.410156 4.738281 10.429688 4.65625 10.34375 C 4.570312 10.261719 4.589844 10.109375 4.699219 10 Z M 9.957031 5.042969 C 10.042969 5.125 10.195312 5.105469 10.300781 5 C 10.410156 4.890625 10.429688 4.738281 10.34375 4.65625 C 10.261719 4.570312 10.109375 4.589844 10 4.699219 C 9.894531 4.804688 9.875 4.957031 9.957031 5.042969 Z M 4.144531 9.191406 C 4.277344 9.117188 4.429688 9.136719 4.488281 9.238281 C 4.546875 9.339844 4.488281 9.484375 4.359375 9.558594 C 4.226562 9.636719 4.074219 9.613281 4.015625 9.511719 C 3.957031 9.410156 4.015625 9.265625 4.144531 9.191406 Z M 10.511719 5.761719 C 10.570312 5.863281 10.722656 5.882812 10.855469 5.808594 C 10.984375 5.734375 11.042969 5.589844 10.984375 5.488281 C 10.925781 5.386719 10.773438 5.363281 10.640625 5.441406 C 10.511719 5.515625 10.453125 5.660156 10.511719 5.761719 Z M 3.824219 8.265625 C 3.96875 8.226562 4.113281 8.285156 4.140625 8.398438 C 4.171875 8.511719 4.078125 8.636719 3.933594 8.675781 C 3.785156 8.714844 3.644531 8.65625 3.613281 8.542969 C 3.582031 8.429688 3.675781 8.304688 3.824219 8.265625 Z M 10.859375 6.601562 C 10.886719 6.714844 11.03125 6.773438 11.175781 6.734375 C 11.324219 6.695312 11.417969 6.570312 11.386719 6.457031 C 11.355469 6.34375 11.214844 6.285156 11.066406 6.324219 C 10.921875 6.363281 10.828125 6.488281 10.859375 6.601562 Z M 10.859375 6.601562 "/>
<path style=" stroke:none;fill-rule:nonzero;fill:rgb(0%,49.803922%,0%);fill-opacity:1;" d="M 4.023438 7.5 C 4.023438 7.382812 3.902344 7.289062 3.75 7.289062 C 3.597656 7.289062 3.476562 7.382812 3.476562 7.5 C 3.476562 7.617188 3.597656 7.710938 3.75 7.710938 C 3.902344 7.710938 4.023438 7.617188 4.023438 7.5 Z M 4.023438 7.5 "/>
<path style=" stroke:none;fill-rule:nonzero;fill:rgb(0%,49.803922%,0%);fill-opacity:1;" d="M 10.976562 7.5 C 10.976562 7.617188 11.097656 7.710938 11.25 7.710938 C 11.402344 7.710938 11.523438 7.617188 11.523438 7.5 C 11.523438 7.382812 11.402344 7.289062 11.25 7.289062 C 11.097656 7.289062 10.976562 7.382812 10.976562 7.5 Z M 3.933594 6.324219 C 4.078125 6.363281 4.171875 6.488281 4.140625 6.601562 C 4.113281 6.714844 3.96875 6.773438 3.824219 6.734375 C 3.675781 6.695312 3.582031 6.574219 3.613281 6.457031 C 3.644531 6.34375 3.785156 6.285156 3.933594 6.324219 Z M 10.859375 8.398438 C 10.828125 8.511719 10.921875 8.636719 11.066406 8.675781 C 11.214844 8.714844 11.355469 8.65625 11.386719 8.542969 C 11.417969 8.429688 11.324219 8.304688 11.175781 8.265625 C 11.03125 8.226562 10.890625 8.285156 10.859375 8.398438 Z M 4.359375 5.441406 C 4.488281 5.515625 4.546875 5.660156 4.488281 5.761719 C 4.429688 5.863281 4.277344 5.882812 4.144531 5.808594 C 4.015625 5.734375 3.957031 5.589844 4.015625 5.488281 C 4.074219 5.386719 4.226562 5.363281 4.359375 5.441406 Z M 10.511719 9.238281 C 10.453125 9.339844 10.511719 9.484375 10.640625 9.558594 C 10.773438 9.636719 10.925781 9.613281 10.984375 9.511719 C 11.042969 9.410156 10.984375 9.265625 10.855469 9.191406 C 10.722656 9.113281 10.570312 9.136719 10.511719 9.238281 Z M 5 4.699219 C 5.105469 4.804688 5.125 4.957031 5.042969 5.042969 C 4.960938 5.125 4.804688 5.105469 4.699219 5 C 4.589844 4.890625 4.570312 4.738281 4.65625 4.65625 C 4.738281 4.570312 4.890625 4.589844 5 4.699219 Z M 9.957031 9.957031 C 9.875 10.042969 9.894531 10.195312 10 10.300781 C 10.109375 10.410156 10.261719 10.429688 10.34375 10.34375 C 10.429688 10.261719 10.410156 10.109375 10.300781 10 C 10.195312 9.894531 10.042969 9.875 9.957031 9.957031 Z M 5.808594 4.144531 C 5.882812 4.277344 5.863281 4.429688 5.761719 4.488281 C 5.660156 4.546875 5.515625 4.488281 5.441406 4.359375 C 5.367188 4.226562 5.386719 4.074219 5.488281 4.015625 C 5.589844 3.957031 5.734375 4.015625 5.808594 4.144531 Z M 9.238281 10.511719 C 9.136719 10.570312 9.117188 10.722656 9.191406 10.855469 C 9.265625 10.984375 9.410156 11.042969 9.511719 10.984375 C 9.613281 10.925781 9.636719 10.773438 9.558594 10.640625 C 9.484375 10.511719 9.339844 10.453125 9.238281 10.511719 Z M 6.734375 3.824219 C 6.773438 3.96875 6.714844 4.109375 6.601562 4.140625 C 6.488281 4.171875 6.363281 4.078125 6.324219 3.933594 C 6.285156 3.785156 6.34375 3.644531 6.457031 3.613281 C 6.570312 3.582031 6.695312 3.675781 6.734375 3.824219 Z M 8.398438 10.859375 C 8.285156 10.890625 8.226562 11.03125 8.265625 11.179688 C 8.304688 11.324219 8.429688 11.417969 8.542969 11.386719 C 8.65625 11.355469 8.714844 11.214844 8.675781 11.066406 C 8.636719 10.921875 8.511719 10.828125 8.398438 10.859375 Z M 8.398438 10.859375 "/>
<path style=" stroke:none;fill-rule:nonzero;fill:rgb(70.196078%,29.411765%,0%);fill-opacity:1;" d="M 6.234375 5.082031 L 6.648438 5.789062 L 7.097656 5.789062 L 7.300781 5.949219 L 7.425781 6.382812 L 6.980469 6.1875 L 7.398438 6.527344 L 7.296875 6.871094 L 7.640625 6.871094 L 7.640625 6.261719 L 8.203125 5.917969 L 8.109375 5.847656 L 7.644531 6.109375 L 7.589844 5.726562 L 7.503906 5.636719 L 7.792969 5.285156 L 7.644531 5.222656 L 7.429688 5.546875 L 7.398438 5.285156 L 7.429688 4.960938 C 7.429688 4.960938 7.285156 4.847656 7.296875 4.886719 C 7.308594 4.921875 7.296875 5.167969 7.296875 5.167969 L 7.027344 4.878906 L 6.902344 4.925781 L 7.171875 5.167969 L 6.855469 5.40625 L 6.472656 5.300781 L 6.546875 4.90625 L 6.46875 4.90625 L 6.398438 5.277344 L 6.332031 4.960938 L 6.234375 5.136719 M 7.6875 4.703125 L 7.777344 4.703125 L 7.777344 5.042969 L 7.6875 5.042969 Z M 8.160156 4.773438 L 8.273438 4.773438 L 8.273438 4.953125 L 8.160156 4.953125 Z M 8.160156 4.773438 "/>
<path style=" stroke:none;fill-rule:nonzero;fill:rgb(100%,100%,100%);fill-opacity:1;" d="M 6.734375 5.484375 C 6.746094 5.515625 6.808594 5.683594 6.808594 5.683594 L 7.242188 5.726562 L 7.429688 5.917969 L 7.355469 5.699219 L 7.242188 5.449219 Z M 6.734375 5.484375 "/>
<path style=" stroke:none;fill-rule:nonzero;fill:rgb(15.686275%,58.039216%,0%);fill-opacity:1;" d="M 6.242188 4.710938 C 6.503906 4.554688 6.675781 4.816406 6.675781 4.816406 C 6.675781 4.816406 6.785156 4.484375 7.105469 4.464844 C 7.429688 4.441406 7.429688 4.582031 7.429688 4.582031 C 7.429688 4.582031 7.5 4.375 7.933594 4.460938 C 8.363281 4.546875 8.351562 4.6875 8.277344 4.75 C 8.207031 4.808594 7.550781 4.773438 7.550781 4.773438 C 7.550781 4.773438 7.617188 4.898438 7.625 4.953125 C 7.632812 5.003906 7.867188 4.855469 8.234375 4.953125 C 8.234375 4.953125 8.417969 4.636719 8.695312 4.800781 C 8.972656 4.96875 9.15625 5.285156 9.085938 5.375 C 9.019531 5.464844 8.523438 5.402344 8.464844 5.34375 C 8.464844 5.34375 8.363281 5.507812 8.128906 5.480469 C 7.898438 5.449219 7.503906 5.199219 7.503906 5.199219 L 7.425781 5.078125 C 7.425781 5.078125 7.246094 4.9375 7.027344 4.929688 C 6.804688 4.921875 6.652344 4.929688 6.652344 4.929688 C 6.652344 4.929688 6.503906 5.101562 6.332031 5.125 C 6.160156 5.148438 5.976562 5.140625 5.976562 5.140625 C 5.976562 5.140625 5.941406 4.890625 6.242188 4.710938 Z M 6.242188 4.710938 "/>
<path style=" stroke:none;fill-rule:nonzero;fill:rgb(15.686275%,58.039216%,0%);fill-opacity:1;" d="M 6.546875 5.191406 C 6.980469 5.125 7.265625 5.191406 7.296875 5.402344 C 7.324219 5.613281 6.972656 5.578125 6.902344 5.585938 C 6.828125 5.59375 6.414062 5.734375 6.277344 5.726562 C 6.144531 5.71875 5.863281 5.585938 6.066406 5.390625 C 6.273438 5.191406 6.546875 5.191406 6.546875 5.191406 Z M 8.203125 5.578125 C 8.628906 5.675781 8.832031 5.910156 8.734375 6.007812 C 8.636719 6.105469 8.382812 6.089844 8.15625 6.007812 C 7.925781 5.921875 7.609375 5.984375 7.539062 5.824219 C 7.46875 5.667969 7.722656 5.464844 8.203125 5.578125 Z M 8.058594 6.121094 C 8.382812 6.171875 8.394531 6.457031 8.339844 6.511719 C 8.289062 6.5625 7.792969 6.496094 7.679688 6.359375 C 7.566406 6.222656 7.738281 6.066406 8.058594 6.121094 Z M 6.855469 5.976562 C 7.261719 5.824219 7.433594 6 7.429688 6.15625 C 7.421875 6.316406 7.085938 6.308594 6.953125 6.367188 C 6.820312 6.429688 6.582031 6.503906 6.496094 6.414062 C 6.414062 6.320312 6.539062 6.097656 6.855469 5.976562 Z M 6.855469 5.976562 "/>
<path style=" stroke:none;fill-rule:nonzero;fill:rgb(67.843137%,67.843137%,67.843137%);fill-opacity:1;" d="M 6.578125 10.140625 C 6.46875 10.25 6.296875 10.480469 6.660156 10.550781 C 7.027344 10.625 6.882812 10.265625 6.808594 10.207031 C 6.730469 10.144531 6.578125 10.140625 6.578125 10.140625 Z M 6.578125 10.140625 "/>
<path style=" stroke:none;fill-rule:nonzero;fill:rgb(40%,60%,100%);fill-opacity:1;" d="M 6.761719 10.242188 C 6.769531 10.265625 6.8125 10.371094 6.761719 10.429688 C 6.707031 10.492188 6.617188 10.535156 6.535156 10.527344 C 6.535156 10.527344 6.890625 10.589844 6.964844 10.628906 C 7.039062 10.664062 7.105469 10.550781 7.070312 10.394531 C 7.03125 10.234375 6.761719 10.242188 6.761719 10.242188 Z M 6.761719 10.242188 "/>
<path style=" stroke:none;fill-rule:nonzero;fill:rgb(93.333333%,93.333333%,93.333333%);fill-opacity:1;" d="M 9.0625 9.511719 C 8.867188 9.511719 8.605469 9.671875 8.605469 9.671875 C 8.605469 9.671875 8.484375 9.550781 8.289062 9.65625 C 8.09375 9.761719 7.980469 9.792969 7.996094 9.988281 C 7.996094 9.988281 7.886719 10.042969 7.785156 10.070312 C 7.617188 10.117188 7.503906 10.078125 7.503906 10.078125 C 7.503906 10.078125 7.394531 10.117188 7.226562 10.070312 C 7.125 10.042969 7.015625 9.988281 7.015625 9.988281 C 7.03125 9.792969 6.917969 9.761719 6.722656 9.65625 C 6.527344 9.550781 6.40625 9.671875 6.40625 9.671875 C 6.40625 9.671875 6.144531 9.511719 5.949219 9.511719 C 5.753906 9.511719 5.578125 9.703125 5.585938 9.753906 C 5.59375 9.808594 5.683594 9.988281 5.738281 10.078125 C 5.789062 10.167969 5.835938 10.21875 5.976562 10.21875 C 6.121094 10.21875 6.421875 10.128906 6.421875 10.128906 C 6.421875 10.128906 6.488281 10.199219 6.84375 10.332031 C 7.195312 10.46875 7.503906 10.460938 7.503906 10.460938 C 7.503906 10.460938 7.8125 10.46875 8.167969 10.332031 C 8.519531 10.199219 8.589844 10.128906 8.589844 10.128906 C 8.589844 10.128906 8.890625 10.21875 9.035156 10.21875 C 9.175781 10.21875 9.222656 10.167969 9.273438 10.078125 C 9.328125 9.988281 9.417969 9.808594 9.425781 9.753906 C 9.433594 9.703125 9.257812 9.511719 9.0625 9.511719 Z M 9.0625 9.511719 "/>
<path style=" stroke:none;fill-rule:nonzero;fill:rgb(67.843137%,67.843137%,67.843137%);fill-opacity:1;" d="M 6.441406 9.695312 C 6.585938 9.792969 6.886719 9.929688 7.015625 9.988281 C 7.015625 9.988281 7.0625 9.859375 6.949219 9.785156 C 6.832031 9.714844 6.664062 9.644531 6.582031 9.613281 C 6.496094 9.582031 6.441406 9.695312 6.441406 9.695312 Z M 6.496094 10.140625 C 6.292969 9.957031 6.167969 9.890625 6.015625 9.859375 C 5.867188 9.828125 5.6875 9.882812 5.695312 10 C 5.699219 10.117188 5.84375 10.234375 5.976562 10.21875 C 6.113281 10.207031 6.496094 10.140625 6.496094 10.140625 Z M 6.496094 10.140625 "/>
<path style=" stroke:none;fill-rule:nonzero;fill:rgb(40%,60%,100%);fill-opacity:1;" d="M 6.496094 9.738281 C 6.496094 9.738281 6.503906 9.597656 6.601562 9.65625 C 6.699219 9.714844 6.671875 9.824219 6.671875 9.824219 Z M 6.363281 10.09375 C 6.363281 10.09375 6.105469 9.90625 5.992188 9.90625 C 5.878906 9.90625 5.765625 9.914062 5.773438 10 C 5.78125 10.085938 5.933594 10.125 6.015625 10.136719 C 6.097656 10.152344 6.363281 10.09375 6.363281 10.09375 Z M 6.363281 10.09375 "/>
<path style=" stroke:none;fill-rule:nonzero;fill:rgb(67.843137%,67.843137%,67.843137%);fill-opacity:1;" d="M 8.433594 10.140625 C 8.542969 10.25 8.714844 10.480469 8.351562 10.550781 C 7.984375 10.625 8.128906 10.265625 8.203125 10.207031 C 8.28125 10.144531 8.433594 10.140625 8.433594 10.140625 Z M 8.433594 10.140625 "/>
<path style=" stroke:none;fill-rule:nonzero;fill:rgb(40%,60%,100%);fill-opacity:1;" d="M 8.25 10.242188 C 8.242188 10.265625 8.199219 10.371094 8.25 10.429688 C 8.304688 10.492188 8.394531 10.535156 8.476562 10.527344 C 8.476562 10.527344 8.121094 10.589844 8.046875 10.628906 C 7.972656 10.664062 7.90625 10.550781 7.941406 10.394531 C 7.980469 10.234375 8.25 10.242188 8.25 10.242188 Z M 8.25 10.242188 "/>
<path style=" stroke:none;fill-rule:nonzero;fill:rgb(67.843137%,67.843137%,67.843137%);fill-opacity:1;" d="M 8.570312 9.695312 C 8.425781 9.792969 8.125 9.929688 7.996094 9.988281 C 7.996094 9.988281 7.949219 9.859375 8.066406 9.785156 C 8.179688 9.714844 8.351562 9.644531 8.433594 9.613281 C 8.515625 9.582031 8.570312 9.695312 8.570312 9.695312 Z M 8.515625 10.140625 C 8.71875 9.957031 8.84375 9.890625 8.996094 9.859375 C 9.144531 9.828125 9.324219 9.882812 9.316406 10 C 9.3125 10.117188 9.167969 10.234375 9.035156 10.21875 C 8.898438 10.207031 8.515625 10.140625 8.515625 10.140625 Z M 8.515625 10.140625 "/>
<path style=" stroke:none;fill-rule:nonzero;fill:rgb(40%,60%,100%);fill-opacity:1;" d="M 8.515625 9.738281 C 8.515625 9.738281 8.507812 9.597656 8.410156 9.65625 C 8.3125 9.714844 8.339844 9.824219 8.339844 9.824219 Z M 8.648438 10.09375 C 8.648438 10.09375 8.90625 9.90625 9.019531 9.90625 C 9.132812 9.90625 9.246094 9.914062 9.238281 10 C 9.230469 10.085938 9.078125 10.125 8.996094 10.136719 C 8.914062 10.152344 8.648438 10.09375 8.648438 10.09375 Z M 8.648438 10.09375 "/>
<path style=" stroke:none;fill-rule:nonzero;fill:rgb(82.745098%,82.745098%,82.745098%);fill-opacity:1;" d="M 6.257812 9.695312 C 6.433594 9.761719 6.714844 10.070312 6.257812 9.875 C 5.796875 9.679688 5.984375 9.589844 6.257812 9.695312 Z M 6.867188 10.054688 C 7.066406 10.109375 7.402344 10.167969 7.589844 10.167969 C 7.777344 10.167969 7.898438 10.363281 7.664062 10.339844 C 7.429688 10.316406 6.949219 10.269531 6.785156 10.199219 C 6.617188 10.128906 6.703125 10.007812 6.867188 10.054688 Z M 8.054688 10.078125 C 8.265625 9.964844 8.664062 9.714844 8.800781 9.6875 C 8.9375 9.65625 9.101562 9.671875 9.085938 9.738281 C 9.070312 9.808594 8.988281 9.84375 8.859375 9.859375 C 8.734375 9.875 8.320312 10.21875 8.054688 10.257812 C 7.792969 10.296875 8.054688 10.078125 8.054688 10.078125 Z M 8.054688 10.078125 "/>
<path style=" stroke:none;fill-rule:nonzero;fill:rgb(15.686275%,58.039216%,0%);fill-opacity:1;" d="M 5.4375 8.867188 C 5.851562 8.78125 7.722656 8.730469 8.257812 8.796875 C 8.792969 8.867188 9.960938 9.191406 9.808594 9.378906 C 9.660156 9.566406 9.011719 9.550781 8.640625 9.492188 C 8.273438 9.429688 8.128906 9.753906 7.503906 9.761719 C 6.878906 9.769531 6.566406 9.566406 6.300781 9.46875 C 6.039062 9.371094 5.660156 9.421875 5.4375 9.492188 C 5.210938 9.558594 4.464844 9.0625 5.4375 8.867188 Z M 5.4375 8.867188 "/>
<path style=" stroke:none;fill-rule:nonzero;fill:rgb(0%,0%,0%);fill-opacity:1;" d="M 6.398438 6.78125 L 6.398438 8.203125 C 6.398438 8.722656 6.789062 9.144531 6.953125 9.296875 C 7.113281 9.445312 7.503906 9.664062 7.503906 9.664062 C 7.503906 9.664062 7.898438 9.445312 8.058594 9.296875 C 8.222656 9.144531 8.613281 8.722656 8.613281 8.203125 L 8.613281 6.78125 Z M 6.398438 6.78125 "/>
<path style=" stroke:none;fill-rule:nonzero;fill:rgb(61.960784%,84.313725%,100%);fill-opacity:1;" d="M 6.511719 6.871094 L 6.511719 8.207031 C 6.511719 8.671875 6.863281 9.097656 7.007812 9.230469 C 7.15625 9.367188 7.503906 9.5625 7.503906 9.5625 C 7.503906 9.5625 7.855469 9.367188 8.003906 9.230469 C 8.148438 9.097656 8.5 8.671875 8.5 8.207031 L 8.5 6.871094 Z M 6.511719 6.871094 "/>
<path style=" stroke:none;fill-rule:nonzero;fill:rgb(0%,41.568627%,78.431373%);fill-opacity:1;" d="M 6.855469 9.0625 L 8.15625 9.0625 C 8.207031 8.996094 8.261719 8.921875 8.308594 8.835938 L 6.703125 8.835938 C 6.753906 8.921875 6.804688 8.996094 6.855469 9.0625 Z M 6.855469 9.0625 "/>
<path style=" stroke:none;fill-rule:nonzero;fill:rgb(35.294118%,78.431373%,0%);fill-opacity:1;" d="M 6.855469 9.0625 C 6.914062 9.136719 6.96875 9.195312 7.007812 9.230469 C 7.035156 9.253906 7.070312 9.28125 7.109375 9.308594 L 7.90625 9.308594 C 7.941406 9.28125 7.976562 9.253906 8.003906 9.230469 C 8.042969 9.195312 8.097656 9.136719 8.15625 9.0625 Z M 6.855469 9.0625 "/>
<path style=" stroke:none;fill-rule:nonzero;fill:rgb(100%,84.705882%,0.392157%);fill-opacity:1;" d="M 7.507812 9.5625 C 7.507812 9.5625 7.738281 9.429688 7.90625 9.308594 L 7.105469 9.308594 C 7.273438 9.429688 7.507812 9.5625 7.507812 9.5625 Z M 7.507812 9.5625 "/>
<path style=" stroke:none;fill-rule:nonzero;fill:rgb(100%,100%,100%);fill-opacity:1;" d="M 6.59375 8.609375 L 7.507812 7.796875 L 7.507812 6.871094 L 6.511719 6.871094 L 6.511719 8.207031 C 6.511719 8.347656 6.546875 8.484375 6.59375 8.609375 Z M 6.59375 8.609375 "/>
<path style=" stroke:none;fill-rule:nonzero;fill:rgb(100%,84.705882%,23.529412%);fill-opacity:1;" d="M 8.417969 8.609375 C 8.46875 8.484375 8.5 8.347656 8.5 8.207031 L 8.5 6.871094 L 7.503906 6.871094 L 7.503906 7.796875 Z M 8.417969 8.609375 "/>
<path style=" stroke:none;fill-rule:nonzero;fill:rgb(70.196078%,29.411765%,0%);fill-opacity:1;" d="M 7.375 7.636719 L 7.371094 7.632812 C 7.359375 7.617188 7.335938 7.617188 7.324219 7.632812 L 7.296875 7.660156 L 7.097656 7.464844 C 7.121094 7.433594 7.125 7.394531 7.101562 7.371094 L 6.703125 6.980469 C 6.679688 6.957031 6.632812 6.964844 6.601562 6.996094 C 6.570312 7.03125 6.5625 7.074219 6.585938 7.097656 L 6.984375 7.492188 C 7.003906 7.507812 7.027344 7.507812 7.054688 7.496094 L 7.253906 7.699219 L 7.214844 7.742188 C 7.203125 7.753906 7.203125 7.777344 7.214844 7.789062 L 7.21875 7.792969 C 7.230469 7.804688 7.253906 7.804688 7.265625 7.792969 L 7.375 7.683594 C 7.390625 7.671875 7.390625 7.648438 7.375 7.636719 Z M 7.375 7.636719 "/>
<path style=" stroke:none;fill-rule:nonzero;fill:rgb(47.058824%,12.941176%,12.941176%);fill-opacity:1;" d="M 6.734375 7.839844 C 6.722656 7.859375 6.691406 7.863281 6.671875 7.847656 C 6.652344 7.832031 6.648438 7.804688 6.664062 7.785156 L 7.089844 7.226562 C 7.105469 7.207031 7.132812 7.203125 7.152344 7.21875 C 7.175781 7.234375 7.179688 7.261719 7.164062 7.28125 Z M 6.734375 7.839844 "/>
<path style=" stroke:none;fill-rule:nonzero;fill:rgb(82.745098%,82.745098%,82.745098%);fill-opacity:1;" d="M 7.015625 7.148438 L 7.132812 6.960938 L 7.382812 7.121094 L 7.265625 7.308594 Z M 7.015625 7.148438 "/>
<path style=" stroke:none;fill-rule:nonzero;fill:rgb(47.058824%,12.941176%,12.941176%);fill-opacity:1;" d="M 8.332031 7.773438 C 8.351562 7.792969 8.378906 7.792969 8.398438 7.777344 C 8.417969 7.757812 8.417969 7.730469 8.402344 7.710938 L 7.929688 7.191406 C 7.910156 7.171875 7.882812 7.171875 7.863281 7.1875 C 7.84375 7.207031 7.84375 7.234375 7.859375 7.253906 Z M 8.332031 7.773438 "/>
<path style=" stroke:none;fill-rule:nonzero;fill:rgb(100%,100%,100%);fill-opacity:1;" d="M 7.589844 7.226562 L 7.804688 7.023438 L 7.957031 7.183594 L 7.742188 7.386719 Z M 7.679688 7.558594 L 8.238281 7.019531 L 8.378906 7.167969 L 7.820312 7.703125 Z M 7.679688 7.558594 "/>
<path style=" stroke:none;fill-rule:nonzero;fill:rgb(70.196078%,29.411765%,0%);fill-opacity:1;" d="M 6.953125 8.582031 C 6.953125 8.582031 7.257812 8.722656 7.515625 8.730469 C 7.777344 8.734375 7.84375 8.691406 7.84375 8.691406 L 7.769531 8.835938 L 7.132812 8.835938 Z M 6.953125 8.582031 "/>
<path style=" stroke:none;fill-rule:nonzero;fill:rgb(100%,100%,100%);fill-opacity:1;" d="M 7.054688 8.5625 L 7.210938 8.675781 L 7.804688 8.675781 L 7.722656 8.285156 L 7.210938 8.3125 Z M 7.054688 8.5625 "/>
<path style=" stroke:none;fill-rule:nonzero;fill:rgb(53.72549%,14.901961%,7.843137%);fill-opacity:1;" d="M 5.925781 5.726562 C 6.101562 5.640625 6.433594 5.453125 6.484375 5.425781 C 6.535156 5.398438 6.621094 5.5 6.539062 5.535156 C 6.460938 5.566406 6.042969 5.816406 5.925781 5.871094 C 5.808594 5.929688 5.925781 5.726562 5.925781 5.726562 Z M 5.925781 5.726562 "/>
<path style=" stroke:none;fill-rule:nonzero;fill:rgb(98.431373%,83.137255%,30.196078%);fill-opacity:1;" d="M 5.316406 9.023438 C 5.292969 9.191406 5.195312 9.355469 5.382812 9.40625 C 5.570312 9.460938 5.605469 9.285156 5.554688 9.128906 C 5.503906 8.972656 5.316406 9.023438 5.316406 9.023438 Z M 5.972656 9.015625 C 5.941406 9.085938 5.851562 9.234375 6.03125 9.214844 C 6.210938 9.195312 6.324219 9.199219 6.4375 9.214844 C 6.550781 9.234375 6.617188 9.113281 6.496094 9.117188 C 6.378906 9.121094 6.285156 9.078125 6.242188 8.964844 C 6.195312 8.855469 5.972656 9.015625 5.972656 9.015625 Z M 5.527344 6.9375 L 5.476562 6.644531 C 5.476562 6.644531 5.324219 6.800781 5.269531 6.875 C 5.21875 6.949219 5.113281 6.839844 5.054688 6.792969 C 4.992188 6.742188 4.925781 6.59375 4.910156 6.464844 C 4.894531 6.335938 4.746094 6.261719 4.796875 6.171875 C 4.847656 6.082031 4.894531 6.035156 4.984375 6.035156 C 5.074219 6.035156 5.097656 6.15625 5.097656 6.15625 C 5.097656 6.15625 5.273438 6.179688 5.203125 6.261719 C 5.035156 6.46875 5.167969 6.503906 5.167969 6.503906 L 5.269531 6.375 C 5.269531 6.375 5.234375 6.132812 5.269531 6.089844 C 5.308594 6.042969 5.535156 5.960938 5.609375 5.953125 C 5.683594 5.945312 5.777344 5.878906 5.742188 5.832031 C 5.707031 5.789062 5.632812 5.703125 5.632812 5.605469 C 5.632812 5.507812 5.597656 5.296875 5.820312 5.328125 C 6.039062 5.359375 6.113281 5.5 6.054688 5.621094 C 5.992188 5.742188 5.964844 5.78125 5.984375 5.847656 C 6.007812 5.914062 6.015625 6 6.164062 6.003906 C 6.308594 6.011719 6.339844 6.058594 6.359375 6.1875 C 6.382812 6.316406 6.386719 6.382812 6.378906 6.488281 C 6.371094 6.59375 6.378906 6.628906 6.378906 6.628906 C 6.378906 6.628906 6.511719 6.605469 6.609375 6.621094 C 6.707031 6.632812 6.910156 6.757812 6.910156 6.757812 L 6.421875 6.757812 L 6.386719 6.917969 C 6.386719 6.917969 6.332031 6.976562 6.308594 6.96875 C 6.285156 6.960938 6.164062 6.765625 6.164062 6.765625 L 6.105469 6.96875 Z M 5.527344 6.9375 "/>
<path style=" stroke:none;fill-rule:nonzero;fill:rgb(82.745098%,82.745098%,82.745098%);fill-opacity:1;" d="M 5.488281 6.917969 C 5.40625 7.097656 5.332031 7.488281 5.347656 7.699219 C 5.359375 7.910156 5.402344 8.128906 5.34375 8.324219 C 5.285156 8.519531 5.203125 9.078125 5.203125 9.078125 L 5.414062 9.21875 L 5.648438 9.070312 L 5.683594 8.1875 L 5.816406 7.753906 L 5.949219 8.066406 L 5.894531 9.046875 L 6.277344 9.039062 C 6.277344 9.039062 6.25 8.136719 6.242188 7.992188 C 6.234375 7.851562 6.179688 7.414062 6.160156 7.277344 C 6.144531 7.144531 6.105469 6.96875 6.105469 6.96875 Z M 5.488281 6.917969 "/>
<path style=" stroke:none;fill-rule:nonzero;fill:rgb(60.784314%,37.254902%,0%);fill-opacity:1;" d="M 5.503906 6.878906 C 5.503906 6.878906 5.660156 6.921875 5.816406 6.917969 C 5.984375 6.910156 6.15625 6.859375 6.160156 6.878906 C 6.167969 6.917969 6.160156 7.046875 6.160156 7.046875 C 6.160156 7.046875 6.019531 7.015625 5.832031 7.046875 C 5.648438 7.074219 5.570312 7.066406 5.503906 7.046875 C 5.4375 7.023438 5.503906 6.878906 5.503906 6.878906 Z M 5.503906 6.878906 "/>
<path style=" stroke:none;fill-rule:nonzero;fill:rgb(0%,0%,0%);fill-opacity:1;" d="M 5.871094 5.207031 C 6.035156 5.207031 6.109375 5.335938 6.101562 5.472656 C 6.09375 5.605469 6.054688 5.644531 6.054688 5.644531 C 6.054688 5.644531 6.078125 5.5 5.992188 5.570312 L 5.992188 5.425781 C 5.992188 5.425781 5.804688 5.441406 5.742188 5.425781 C 5.675781 5.410156 5.640625 5.398438 5.640625 5.398438 L 5.613281 5.5 C 5.613281 5.5 5.527344 5.398438 5.609375 5.296875 C 5.691406 5.203125 5.832031 5.207031 5.832031 5.207031 "/>
<path style=" stroke:none;fill-rule:nonzero;fill:rgb(53.72549%,14.901961%,7.843137%);fill-opacity:1;" d="M 4.597656 6.4375 C 4.675781 6.324219 4.8125 6.238281 4.8125 6.238281 C 4.8125 6.238281 4.835938 6.265625 4.914062 6.238281 C 4.996094 6.210938 4.988281 6.1875 5.035156 6.171875 C 5.078125 6.15625 5.074219 6.105469 5.074219 6.105469 C 5.074219 6.105469 5.339844 5.996094 5.453125 5.945312 C 5.566406 5.894531 5.695312 5.816406 5.695312 5.816406 L 5.746094 5.855469 C 5.746094 5.855469 5.746094 5.941406 5.699219 5.96875 C 5.65625 5.996094 5.316406 6.164062 5.289062 6.1875 C 5.261719 6.210938 5.199219 6.234375 5.199219 6.234375 C 5.199219 6.234375 5.171875 6.175781 5.140625 6.199219 C 5.113281 6.222656 5.097656 6.285156 5.097656 6.285156 C 5.097656 6.285156 4.984375 6.335938 4.914062 6.378906 C 4.847656 6.425781 4.769531 6.582031 4.695312 6.617188 C 4.621094 6.652344 4.570312 6.480469 4.597656 6.4375 Z M 4.597656 6.4375 "/>
<path style=" stroke:none;fill-rule:nonzero;fill:rgb(82.745098%,82.745098%,82.745098%);fill-opacity:1;" d="M 6.222656 5.535156 C 6.265625 5.496094 6.417969 5.386719 6.453125 5.445312 C 6.488281 5.5 6.546875 5.8125 6.726562 5.78125 C 6.726562 5.78125 6.621094 5.878906 6.53125 5.921875 C 6.4375 5.96875 6.277344 5.980469 6.277344 5.980469 C 6.277344 5.980469 6.277344 5.832031 6.277344 5.75 C 6.28125 5.664062 6.222656 5.535156 6.222656 5.535156 Z M 6.222656 5.535156 "/>
<path style=" stroke:none;fill-rule:nonzero;fill:rgb(70.196078%,29.411765%,0%);fill-opacity:1;" d="M 7.972656 5.132812 C 8.035156 5.105469 8.648438 5.433594 8.753906 5.476562 C 8.855469 5.523438 8.917969 5.703125 9.019531 5.742188 C 9.121094 5.78125 9.035156 5.851562 8.972656 5.816406 C 8.910156 5.78125 8.777344 5.792969 8.65625 5.753906 C 8.539062 5.714844 7.90625 5.375 7.886719 5.328125 C 7.871094 5.277344 7.972656 5.132812 7.972656 5.132812 Z M 7.972656 5.132812 "/>
<path style=" stroke:none;fill-rule:nonzero;fill:rgb(53.72549%,14.901961%,7.843137%);fill-opacity:1;" d="M 9.675781 9.023438 C 9.699219 9.191406 9.796875 9.355469 9.609375 9.40625 C 9.421875 9.460938 9.386719 9.285156 9.4375 9.128906 C 9.488281 8.972656 9.675781 9.023438 9.675781 9.023438 Z M 9.023438 9.015625 C 9.050781 9.085938 9.140625 9.234375 8.960938 9.214844 C 8.78125 9.195312 8.667969 9.199219 8.554688 9.214844 C 8.441406 9.234375 8.375 9.113281 8.496094 9.117188 C 8.617188 9.121094 8.707031 9.078125 8.75 8.964844 C 8.796875 8.855469 9.023438 9.015625 9.023438 9.015625 Z M 9.464844 6.9375 L 9.519531 6.644531 C 9.519531 6.644531 9.640625 6.765625 9.691406 6.839844 C 9.746094 6.914062 9.867188 6.925781 9.925781 6.875 C 9.988281 6.828125 10.070312 6.59375 10.082031 6.464844 C 10.097656 6.335938 10.242188 6.359375 10.1875 6.269531 C 10.136719 6.179688 10.078125 6.121094 9.988281 6.121094 C 9.898438 6.121094 9.894531 6.15625 9.894531 6.15625 C 9.894531 6.15625 9.78125 6.1875 9.824219 6.285156 C 9.871094 6.382812 9.8125 6.515625 9.8125 6.515625 L 9.722656 6.4375 C 9.722656 6.4375 9.695312 6.148438 9.65625 6.105469 C 9.617188 6.058594 9.457031 5.960938 9.382812 5.953125 C 9.308594 5.945312 9.21875 5.878906 9.253906 5.832031 C 9.285156 5.789062 9.359375 5.703125 9.359375 5.605469 C 9.359375 5.507812 9.394531 5.296875 9.175781 5.328125 C 8.953125 5.359375 8.878906 5.5 8.941406 5.621094 C 9 5.742188 8.992188 5.789062 8.96875 5.855469 C 8.945312 5.921875 8.976562 6 8.832031 6.003906 C 8.683594 6.011719 8.636719 6.089844 8.613281 6.21875 C 8.589844 6.347656 8.609375 6.382812 8.617188 6.488281 C 8.625 6.59375 8.617188 6.628906 8.617188 6.628906 C 8.617188 6.628906 8.480469 6.605469 8.382812 6.621094 C 8.285156 6.632812 8.082031 6.757812 8.082031 6.757812 L 8.570312 6.757812 L 8.609375 6.917969 C 8.609375 6.917969 8.660156 6.976562 8.683594 6.96875 C 8.707031 6.960938 8.832031 6.765625 8.832031 6.765625 L 8.886719 6.96875 Z M 9.464844 6.9375 "/>
<path style=" stroke:none;fill-rule:nonzero;fill:rgb(82.745098%,82.745098%,82.745098%);fill-opacity:1;" d="M 9.503906 6.917969 C 9.585938 7.097656 9.660156 7.488281 9.648438 7.699219 C 9.632812 7.910156 9.589844 8.128906 9.648438 8.324219 C 9.707031 8.519531 9.789062 9.078125 9.789062 9.078125 L 9.578125 9.21875 L 9.347656 9.070312 L 9.308594 8.1875 L 9.175781 7.753906 L 9.046875 8.066406 L 9.097656 9.046875 L 8.714844 9.039062 C 8.714844 9.039062 8.746094 8.136719 8.753906 7.992188 C 8.761719 7.851562 8.8125 7.414062 8.832031 7.277344 C 8.851562 7.144531 8.886719 6.96875 8.886719 6.96875 Z M 9.503906 6.917969 "/>
<path style=" stroke:none;fill-rule:nonzero;fill:rgb(60.784314%,37.254902%,0%);fill-opacity:1;" d="M 9.488281 6.878906 C 9.488281 6.878906 9.335938 6.921875 9.175781 6.917969 C 9.007812 6.910156 8.839844 6.859375 8.835938 6.878906 C 8.828125 6.917969 8.835938 7.046875 8.835938 7.046875 C 8.835938 7.046875 8.972656 7.015625 9.160156 7.046875 C 9.347656 7.074219 9.421875 7.066406 9.488281 7.046875 C 9.558594 7.023438 9.488281 6.878906 9.488281 6.878906 Z M 9.488281 6.878906 "/>
<path style=" stroke:none;fill-rule:nonzero;fill:rgb(0%,0%,0%);fill-opacity:1;" d="M 9.121094 5.207031 C 8.957031 5.207031 8.882812 5.335938 8.890625 5.472656 C 8.898438 5.605469 8.9375 5.644531 8.9375 5.644531 C 8.9375 5.644531 8.90625 5.5 8.996094 5.570312 L 8.996094 5.425781 C 8.996094 5.425781 9.1875 5.441406 9.25 5.425781 C 9.3125 5.410156 9.351562 5.398438 9.351562 5.398438 L 9.378906 5.5 C 9.378906 5.5 9.464844 5.398438 9.382812 5.296875 C 9.300781 5.203125 9.160156 5.207031 9.160156 5.207031 "/>
<path style=" stroke:none;fill-rule:nonzero;fill:rgb(70.196078%,29.411765%,0%);fill-opacity:1;" d="M 9.253906 5.816406 L 9.871094 6.148438 C 9.871094 6.148438 9.789062 6.148438 9.789062 6.21875 C 9.792969 6.289062 9.285156 5.980469 9.285156 5.980469 Z M 10.121094 6.3125 L 10.3125 6.375 C 10.3125 6.375 10.335938 6.3125 10.390625 6.34375 C 10.445312 6.375 10.363281 6.625 10.324219 6.621094 C 10.28125 6.617188 10.238281 6.554688 10.230469 6.503906 C 10.226562 6.453125 10.058594 6.386719 10.058594 6.386719 Z M 10.121094 6.3125 "/>
</g>
</svg>
