<?xml version="1.0" encoding="UTF-8"?>
<svg xmlns="http://www.w3.org/2000/svg" xmlns:xlink="http://www.w3.org/1999/xlink" width="15pt" height="15pt" viewBox="0 0 15 15" version="1.1">
<g id="surface1">
<path style=" stroke:none;fill-rule:nonzero;fill:rgb(5.098039%,36.862745%,69.019608%);fill-opacity:1;" d="M 1.667969 12.917969 L 13.332031 12.917969 C 13.625 12.917969 13.902344 12.839844 14.140625 12.707031 L 0.859375 12.707031 C 1.097656 12.839844 1.375 12.917969 1.667969 12.917969 Z M 1.667969 12.917969 "/>
<path style=" stroke:none;fill-rule:nonzero;fill:rgb(93.333333%,93.333333%,93.333333%);fill-opacity:1;" d="M 3.542969 8.125 L 0 8.125 L 0 9.167969 L 15 9.167969 L 15 8.125 Z M 0 11.25 C 0 11.320312 0.00390625 11.390625 0.015625 11.457031 L 14.984375 11.457031 C 14.996094 11.390625 15 11.320312 15 11.25 L 15 10.417969 L 0 10.417969 Z M 5.832031 5.832031 L 15 5.832031 L 15 6.875 L 5.832031 6.875 Z M 5.832031 3.542969 L 5.832031 4.582031 L 15 4.582031 L 15 3.75 C 15 3.679688 14.996094 3.609375 14.984375 3.542969 Z M 5.832031 3.542969 "/>
<path style=" stroke:none;fill-rule:nonzero;fill:rgb(5.098039%,36.862745%,69.019608%);fill-opacity:1;" d="M 5.832031 4.582031 L 15 4.582031 L 15 5.832031 L 5.832031 5.832031 Z M 0 9.167969 L 15 9.167969 L 15 10.417969 L 0 10.417969 Z M 0.859375 12.707031 L 14.140625 12.707031 C 14.59375 12.457031 14.917969 11.996094 14.984375 11.457031 L 0.015625 11.457031 C 0.0820312 11.996094 0.40625 12.457031 0.859375 12.707031 Z M 0 5.832031 L 2.292969 5.832031 L 2.292969 8.125 L 0 8.125 Z M 5.832031 6.875 L 5.832031 5.832031 L 3.542969 5.832031 L 3.542969 8.125 L 15 8.125 L 15 6.875 Z M 14.140625 2.292969 C 13.902344 2.160156 13.625 2.082031 13.332031 2.082031 L 1.667969 2.082031 C 1.375 2.082031 1.097656 2.160156 0.859375 2.292969 C 0.40625 2.542969 0.0820312 3.003906 0.015625 3.542969 C 0.00390625 3.609375 0 3.679688 0 3.75 L 0 4.582031 L 2.292969 4.582031 L 2.292969 2.292969 L 3.542969 2.292969 L 3.542969 4.582031 L 5.832031 4.582031 L 5.832031 3.542969 L 14.984375 3.542969 C 14.917969 3.003906 14.59375 2.542969 14.140625 2.292969 Z M 14.140625 2.292969 "/>
<path style=" stroke:none;fill-rule:nonzero;fill:rgb(93.333333%,93.333333%,93.333333%);fill-opacity:1;" d="M 3.542969 4.582031 L 3.542969 2.082031 L 2.292969 2.082031 L 2.292969 4.582031 L 0 4.582031 L 0 5.832031 L 2.292969 5.832031 L 2.292969 8.125 L 3.542969 8.125 L 3.542969 5.832031 L 5.832031 5.832031 L 5.832031 4.582031 Z M 3.542969 4.582031 "/>
</g>
</svg>
