<?xml version="1.0" encoding="UTF-8"?>
<svg xmlns="http://www.w3.org/2000/svg" xmlns:xlink="http://www.w3.org/1999/xlink" width="15pt" height="15pt" viewBox="0 0 15 15" version="1.1">
<g id="surface1">
<path style=" stroke:none;fill-rule:nonzero;fill:rgb(93.333333%,93.333333%,93.333333%);fill-opacity:1;" d="M 15 11.25 C 15 12.171875 14.253906 12.917969 13.332031 12.917969 L 1.667969 12.917969 C 0.746094 12.917969 0 12.171875 0 11.25 L 0 3.75 C 0 2.828125 0.746094 2.082031 1.667969 2.082031 L 13.332031 2.082031 C 14.253906 2.082031 15 2.828125 15 3.75 Z M 15 11.25 "/>
<path style=" stroke:none;fill-rule:nonzero;fill:rgb(92.941176%,10.588235%,18.431373%);fill-opacity:1;" d="M 10.417969 7.5 C 10.417969 9.109375 9.109375 10.417969 7.5 10.417969 C 5.890625 10.417969 4.582031 9.109375 4.582031 7.5 C 4.582031 5.890625 5.890625 4.582031 7.5 4.582031 C 9.109375 4.582031 10.417969 5.890625 10.417969 7.5 Z M 10.417969 7.5 "/>
</g>
</svg>
