<?xml version="1.0" encoding="UTF-8"?>
<svg xmlns="http://www.w3.org/2000/svg" xmlns:xlink="http://www.w3.org/1999/xlink" width="15pt" height="15pt" viewBox="0 0 15 15" version="1.1">
<g id="surface1">
<path style=" stroke:none;fill-rule:nonzero;fill:rgb(28.627451%,59.215686%,81.568627%);fill-opacity:1;" d="M 13.332031 2.082031 L 10 2.082031 L 10 12.917969 L 13.332031 12.917969 C 14.253906 12.917969 15 12.171875 15 11.25 L 15 3.75 C 15 2.828125 14.253906 2.082031 13.332031 2.082031 Z M 1.667969 2.082031 C 0.746094 2.082031 0 2.828125 0 3.75 L 0 11.25 C 0 12.171875 0.746094 12.917969 1.667969 12.917969 L 5 12.917969 L 5 2.082031 Z M 1.667969 2.082031 "/>
<path style=" stroke:none;fill-rule:nonzero;fill:rgb(93.333333%,93.333333%,93.333333%);fill-opacity:1;" d="M 5 2.082031 L 10 2.082031 L 10 12.917969 L 5 12.917969 Z M 5 2.082031 "/>
<path style=" stroke:none;fill-rule:nonzero;fill:rgb(26.27451%,49.411765%,14.117647%);fill-opacity:1;" d="M 9.441406 7.808594 C 9.488281 7.707031 9.480469 7.640625 9.425781 7.699219 C 9.378906 7.75 9.308594 7.765625 9.222656 7.828125 L 9.230469 7.804688 C 9.304688 7.660156 9.46875 7.730469 9.566406 7.5 C 9.585938 7.457031 9.671875 7.410156 9.554688 7.417969 C 9.46875 7.421875 9.359375 7.472656 9.285156 7.582031 C 9.34375 7.421875 9.484375 7.503906 9.542969 7.117188 C 9.554688 7.042969 9.5625 6.898438 9.515625 7.019531 C 9.496094 7.066406 9.449219 7.113281 9.402344 7.167969 C 9.417969 7.089844 9.410156 7.019531 9.394531 6.96875 C 9.425781 6.921875 9.453125 6.875 9.460938 6.816406 C 9.472656 6.722656 9.449219 6.640625 9.414062 6.738281 C 9.402344 6.777344 9.378906 6.796875 9.351562 6.824219 C 9.34375 6.789062 9.335938 6.777344 9.308594 6.824219 C 9.28125 6.871094 9.269531 6.929688 9.257812 6.996094 L 9.257812 7 C 9.253906 6.964844 9.246094 6.929688 9.234375 6.894531 C 9.253906 6.765625 9.457031 6.769531 9.386719 6.347656 C 9.371094 6.246094 9.363281 6.21875 9.328125 6.34375 C 9.292969 6.460938 9.191406 6.472656 9.183594 6.707031 L 9.175781 6.679688 C 9.152344 6.453125 9.308594 6.265625 9.191406 6.074219 C 9.128906 5.972656 9.097656 5.960938 9.101562 6.046875 C 9.109375 6.140625 9.050781 6.246094 9.0625 6.386719 L 9.058594 6.378906 C 9.035156 6.203125 9.097656 6.152344 9.027344 6.039062 C 8.988281 5.980469 8.933594 5.90625 8.949219 6 C 8.953125 6.019531 8.953125 6.042969 8.957031 6.066406 C 8.933594 5.964844 8.847656 5.90625 8.742188 5.871094 C 8.640625 5.839844 8.671875 5.886719 8.707031 5.925781 C 8.761719 5.984375 8.746094 6.054688 8.8125 6.140625 C 8.742188 6.105469 8.679688 6.101562 8.640625 6.050781 C 8.558594 5.949219 8.597656 6.078125 8.621094 6.136719 C 8.660156 6.25 8.726562 6.308594 8.800781 6.347656 C 8.792969 6.355469 8.796875 6.386719 8.820312 6.445312 C 8.847656 6.523438 8.878906 6.578125 8.914062 6.621094 C 8.886719 6.605469 8.863281 6.585938 8.84375 6.5625 C 8.761719 6.433594 8.726562 6.421875 8.742188 6.570312 C 8.757812 6.703125 8.8125 6.769531 8.878906 6.816406 C 8.878906 6.84375 8.890625 6.878906 8.917969 6.917969 C 8.964844 6.988281 9.015625 7.015625 9.0625 7.03125 C 9.082031 7.085938 9.097656 7.136719 9.109375 7.1875 C 9.105469 7.183594 9.101562 7.179688 9.101562 7.179688 C 8.972656 7.089844 9.003906 7.140625 9.015625 7.21875 C 9.0625 7.589844 9.238281 7.464844 9.203125 7.703125 C 9.199219 7.726562 9.191406 7.746094 9.1875 7.765625 C 9.191406 7.628906 9.128906 7.550781 9.078125 7.492188 C 9.003906 7.40625 8.980469 7.429688 9.015625 7.585938 C 9.023438 7.621094 9.03125 7.667969 9.039062 7.714844 L 9.035156 7.710938 C 8.964844 7.5625 8.941406 7.605469 8.949219 7.71875 C 8.957031 7.824219 8.867188 7.867188 8.925781 8.070312 C 8.945312 8.132812 8.953125 8.246094 8.894531 8.335938 L 8.882812 8.347656 C 9.011719 8.113281 8.859375 8.042969 8.871094 7.96875 C 8.890625 7.886719 8.867188 7.875 8.820312 7.972656 C 8.769531 8.089844 8.78125 8.171875 8.796875 8.242188 C 8.785156 8.246094 8.78125 8.25 8.765625 8.257812 C 8.726562 8.285156 8.691406 8.3125 8.664062 8.339844 C 8.667969 8.316406 8.675781 8.292969 8.675781 8.273438 C 8.6875 8.164062 8.660156 8.113281 8.613281 8.230469 C 8.554688 8.371094 8.453125 8.367188 8.386719 8.578125 C 8.335938 8.75 8.300781 8.785156 8.21875 8.820312 L 8.207031 8.824219 C 8.328125 8.730469 8.394531 8.605469 8.414062 8.460938 C 8.429688 8.296875 8.390625 8.320312 8.335938 8.417969 C 8.285156 8.511719 8.183594 8.5 8.121094 8.703125 C 8.101562 8.765625 8.058594 8.863281 7.933594 8.90625 C 8.097656 8.789062 8.171875 8.597656 8.152344 8.480469 C 8.144531 8.421875 8.117188 8.386719 8.089844 8.484375 C 8.058594 8.601562 7.972656 8.570312 7.90625 8.792969 C 7.871094 8.90625 7.839844 8.929688 7.691406 8.996094 L 7.714844 8.992188 C 7.628906 9.027344 7.550781 9.0625 7.488281 9.097656 C 7.429688 9.0625 7.359375 9.027344 7.273438 8.996094 L 7.285156 8.996094 C 7.140625 8.929688 7.109375 8.910156 7.074219 8.796875 C 7.007812 8.578125 6.921875 8.605469 6.890625 8.492188 C 6.867188 8.398438 6.839844 8.433594 6.832031 8.488281 C 6.8125 8.601562 6.882812 8.792969 7.042969 8.910156 C 6.925781 8.867188 6.878906 8.769531 6.859375 8.707031 C 6.796875 8.507812 6.699219 8.519531 6.648438 8.425781 C 6.59375 8.332031 6.554688 8.308594 6.574219 8.46875 C 6.589844 8.609375 6.65625 8.734375 6.773438 8.828125 L 6.75 8.816406 C 6.679688 8.785156 6.644531 8.746094 6.597656 8.585938 C 6.535156 8.375 6.433594 8.378906 6.375 8.242188 C 6.328125 8.128906 6.300781 8.179688 6.3125 8.28125 C 6.316406 8.304688 6.320312 8.328125 6.324219 8.347656 C 6.296875 8.324219 6.265625 8.296875 6.222656 8.269531 C 6.210938 8.261719 6.203125 8.257812 6.195312 8.253906 C 6.210938 8.183594 6.21875 8.101562 6.167969 7.988281 C 6.125 7.890625 6.101562 7.902344 6.121094 7.984375 C 6.132812 8.054688 5.980469 8.125 6.109375 8.363281 L 6.097656 8.347656 C 6.039062 8.261719 6.046875 8.144531 6.066406 8.085938 C 6.121094 7.882812 6.035156 7.839844 6.042969 7.734375 C 6.050781 7.625 6.027344 7.582031 5.957031 7.726562 L 5.953125 7.734375 C 5.960938 7.683594 5.96875 7.640625 5.976562 7.605469 C 6.011719 7.453125 5.988281 7.429688 5.917969 7.511719 C 5.863281 7.570312 5.800781 7.648438 5.808594 7.785156 C 5.800781 7.761719 5.796875 7.742188 5.792969 7.71875 C 5.757812 7.484375 5.929688 7.609375 5.976562 7.242188 C 5.988281 7.164062 6.019531 7.113281 5.894531 7.203125 C 5.890625 7.203125 5.886719 7.207031 5.886719 7.210938 C 5.898438 7.160156 5.910156 7.109375 5.933594 7.058594 C 5.980469 7.039062 6.027344 7.011719 6.074219 6.941406 C 6.101562 6.90625 6.109375 6.871094 6.109375 6.84375 C 6.175781 6.796875 6.230469 6.726562 6.246094 6.597656 C 6.261719 6.453125 6.230469 6.464844 6.144531 6.589844 C 6.128906 6.617188 6.105469 6.632812 6.078125 6.652344 C 6.113281 6.605469 6.144531 6.550781 6.171875 6.476562 C 6.191406 6.417969 6.195312 6.386719 6.1875 6.378906 C 6.265625 6.339844 6.328125 6.28125 6.367188 6.167969 C 6.386719 6.113281 6.429688 5.984375 6.347656 6.085938 C 6.308594 6.136719 6.246094 6.140625 6.175781 6.171875 C 6.242188 6.089844 6.226562 6.019531 6.28125 5.960938 C 6.316406 5.921875 6.347656 5.875 6.25 5.90625 C 6.140625 5.941406 6.058594 6 6.035156 6.097656 C 6.035156 6.074219 6.039062 6.054688 6.042969 6.035156 C 6.054688 5.941406 6 6.015625 5.964844 6.070312 C 5.894531 6.183594 5.957031 6.234375 5.933594 6.40625 L 5.929688 6.417969 C 5.941406 6.277344 5.882812 6.175781 5.890625 6.078125 C 5.898438 5.996094 5.863281 6.007812 5.804688 6.109375 C 5.6875 6.296875 5.839844 6.484375 5.820312 6.703125 L 5.808594 6.730469 C 5.804688 6.5 5.703125 6.492188 5.671875 6.375 C 5.632812 6.25 5.628906 6.28125 5.609375 6.378906 C 5.542969 6.796875 5.742188 6.792969 5.757812 6.921875 C 5.75 6.953125 5.742188 6.988281 5.738281 7.023438 L 5.734375 7.015625 C 5.734375 6.996094 5.726562 6.976562 5.722656 6.957031 L 5.71875 6.953125 C 5.710938 6.914062 5.703125 6.878906 5.6875 6.847656 C 5.660156 6.804688 5.652344 6.816406 5.644531 6.847656 C 5.617188 6.824219 5.59375 6.800781 5.582031 6.765625 C 5.546875 6.667969 5.523438 6.75 5.539062 6.84375 C 5.546875 6.898438 5.570312 6.945312 5.601562 6.992188 C 5.585938 7.042969 5.578125 7.113281 5.597656 7.191406 C 5.546875 7.136719 5.503906 7.089844 5.484375 7.042969 C 5.4375 6.925781 5.445312 7.066406 5.457031 7.140625 C 5.511719 7.523438 5.65625 7.441406 5.714844 7.601562 C 5.636719 7.492188 5.53125 7.441406 5.445312 7.4375 C 5.328125 7.429688 5.414062 7.476562 5.433594 7.515625 C 5.527344 7.746094 5.691406 7.675781 5.765625 7.820312 L 5.773438 7.84375 C 5.6875 7.78125 5.617188 7.765625 5.570312 7.714844 C 5.515625 7.660156 5.511719 7.722656 5.558594 7.820312 C 5.507812 7.828125 5.453125 7.832031 5.417969 7.820312 C 5.375 7.808594 5.375 7.871094 5.492188 7.921875 C 5.546875 7.941406 5.632812 7.976562 5.714844 8.015625 C 5.773438 8.0625 5.835938 8.09375 5.886719 8.140625 C 5.726562 8.023438 5.601562 8.082031 5.511719 8.027344 C 5.398438 7.960938 5.460938 8.066406 5.492188 8.097656 C 5.808594 8.414062 5.859375 8.175781 6.035156 8.34375 C 6.007812 8.332031 5.980469 8.320312 5.945312 8.316406 C 5.804688 8.300781 5.753906 8.28125 5.828125 8.371094 C 5.914062 8.476562 5.988281 8.527344 6.050781 8.554688 C 6.007812 8.554688 5.96875 8.558594 5.933594 8.566406 C 5.839844 8.585938 5.871094 8.601562 5.933594 8.621094 C 6.007812 8.640625 6.054688 8.695312 6.140625 8.726562 C 6.003906 8.769531 5.980469 8.785156 6.082031 8.839844 C 6.257812 8.925781 6.382812 8.929688 6.480469 8.914062 C 6.433594 8.929688 6.390625 8.949219 6.355469 8.976562 C 6.28125 9.03125 6.300781 9.050781 6.363281 9.042969 C 6.484375 9.023438 6.5625 9.058594 6.660156 9.058594 C 6.601562 9.101562 6.550781 9.152344 6.457031 9.179688 C 6.398438 9.199219 6.375 9.234375 6.476562 9.242188 C 6.859375 9.273438 6.957031 9.035156 7.136719 9.039062 C 7.230469 9.066406 7.320312 9.101562 7.402344 9.15625 C 7.378906 9.175781 7.351562 9.195312 7.335938 9.214844 C 7.339844 9.253906 7.4375 9.234375 7.449219 9.257812 C 7.460938 9.246094 7.472656 9.234375 7.488281 9.222656 C 7.5 9.234375 7.511719 9.246094 7.527344 9.257812 C 7.535156 9.234375 7.617188 9.242188 7.621094 9.199219 C 7.609375 9.183594 7.589844 9.171875 7.570312 9.15625 C 7.65625 9.097656 7.746094 9.066406 7.839844 9.035156 C 8.023438 9.03125 8.125 9.273438 8.507812 9.242188 C 8.609375 9.234375 8.589844 9.199219 8.527344 9.179688 C 8.4375 9.152344 8.386719 9.101562 8.324219 9.054688 C 8.425781 9.054688 8.5 9.019531 8.625 9.039062 C 8.6875 9.050781 8.710938 9.027344 8.632812 8.972656 C 8.597656 8.945312 8.550781 8.921875 8.503906 8.910156 C 8.605469 8.925781 8.730469 8.921875 8.910156 8.832031 C 9.015625 8.78125 8.988281 8.765625 8.851562 8.722656 C 8.9375 8.6875 8.984375 8.632812 9.058594 8.609375 C 9.121094 8.59375 9.152344 8.574219 9.0625 8.558594 C 9.023438 8.546875 8.984375 8.546875 8.941406 8.546875 C 9.003906 8.519531 9.078125 8.464844 9.167969 8.359375 C 9.242188 8.265625 9.191406 8.289062 9.046875 8.304688 C 9.011719 8.308594 8.984375 8.320312 8.953125 8.332031 C 9.132812 8.160156 9.183594 8.40625 9.507812 8.082031 C 9.539062 8.050781 9.601562 7.945312 9.484375 8.011719 C 9.394531 8.066406 9.269531 8.007812 9.101562 8.132812 C 9.15625 8.082031 9.21875 8.050781 9.28125 8.003906 C 9.363281 7.960938 9.449219 7.925781 9.503906 7.902344 C 9.625 7.851562 9.625 7.789062 9.582031 7.804688 C 9.546875 7.816406 9.492188 7.8125 9.441406 7.808594 Z M 6.550781 8.785156 L 6.59375 8.816406 C 6.546875 8.792969 6.492188 8.773438 6.433594 8.753906 C 6.464844 8.757812 6.503906 8.765625 6.554688 8.792969 Z M 7.0625 8.921875 L 7.039062 8.914062 L 7.054688 8.917969 Z M 6.179688 8.320312 C 6.183594 8.328125 6.183594 8.332031 6.1875 8.335938 C 6.222656 8.394531 6.230469 8.449219 6.265625 8.519531 C 6.246094 8.503906 6.230469 8.488281 6.214844 8.472656 C 6.171875 8.421875 6.167969 8.375 6.179688 8.320312 Z M 6.109375 6.449219 C 6.0625 6.511719 5.988281 6.519531 5.914062 6.582031 C 5.957031 6.507812 6.011719 6.441406 6.078125 6.421875 C 6.105469 6.417969 6.128906 6.40625 6.152344 6.398438 C 6.140625 6.410156 6.128906 6.425781 6.109375 6.449219 Z M 6.039062 8.339844 L 6.046875 8.347656 L 6.042969 8.347656 Z M 6.511719 8.910156 C 6.585938 8.894531 6.644531 8.875 6.703125 8.878906 L 6.726562 8.890625 C 6.648438 8.886719 6.578125 8.890625 6.511719 8.910156 Z M 8.988281 6.304688 C 8.988281 6.304688 8.984375 6.304688 8.988281 6.304688 C 8.984375 6.304688 8.988281 6.304688 8.988281 6.304688 Z M 8.882812 6.417969 C 8.863281 6.394531 8.847656 6.378906 8.835938 6.367188 C 8.859375 6.375 8.886719 6.382812 8.914062 6.390625 C 8.980469 6.410156 9.035156 6.476562 9.078125 6.550781 C 9.003906 6.492188 8.929688 6.480469 8.882812 6.417969 Z M 8.558594 8.75 C 8.496094 8.765625 8.441406 8.789062 8.394531 8.808594 L 8.4375 8.78125 L 8.433594 8.785156 C 8.484375 8.757812 8.523438 8.75 8.558594 8.75 Z M 8.800781 8.328125 L 8.8125 8.3125 C 8.820312 8.363281 8.820312 8.410156 8.773438 8.464844 C 8.757812 8.480469 8.742188 8.496094 8.726562 8.511719 C 8.761719 8.441406 8.765625 8.382812 8.800781 8.328125 Z M 7.925781 8.914062 L 7.941406 8.910156 L 7.917969 8.917969 C 7.921875 8.917969 7.921875 8.917969 7.925781 8.914062 Z M 8.257812 8.886719 L 8.285156 8.875 C 8.34375 8.871094 8.40625 8.890625 8.484375 8.90625 C 8.414062 8.886719 8.339844 8.882812 8.257812 8.886719 Z M 8.945312 8.339844 L 8.953125 8.332031 L 8.949219 8.335938 C 8.949219 8.335938 8.949219 8.339844 8.945312 8.339844 Z M 8.945312 8.339844 "/>
<path style=" stroke:none;fill-rule:nonzero;fill:rgb(69.411765%,71.372549%,72.941176%);fill-opacity:1;" d="M 6.914062 7.675781 C 6.914062 7.675781 6.597656 7.960938 6.558594 8 C 6.519531 8.039062 6.480469 8.207031 6.480469 8.207031 L 6.582031 8.273438 L 7.042969 7.800781 Z M 6.914062 7.675781 "/>
<path style=" stroke:none;fill-rule:nonzero;fill:rgb(42.352941%,18.823529%,11.764706%);fill-opacity:1;" d="M 6.472656 8.203125 L 6.570312 8.28125 C 6.570312 8.28125 6.484375 8.363281 6.472656 8.449219 C 6.460938 8.53125 6.234375 8.792969 6.1875 8.855469 C 6.140625 8.921875 6.082031 8.910156 6.058594 8.855469 C 6.03125 8.804688 5.972656 8.765625 5.96875 8.726562 C 5.960938 8.6875 6.109375 8.550781 6.179688 8.472656 C 6.253906 8.394531 6.328125 8.363281 6.371094 8.320312 C 6.410156 8.273438 6.472656 8.203125 6.472656 8.203125 Z M 6.933594 7.746094 L 6.738281 7.96875 L 6.789062 8.019531 L 6.980469 7.804688 Z M 6.933594 7.746094 "/>
<path style=" stroke:none;fill-rule:nonzero;fill:rgb(69.411765%,71.372549%,72.941176%);fill-opacity:1;" d="M 6.023438 5.824219 L 6.65625 6.480469 L 6.8125 6.402344 L 6.761719 6.332031 L 6.65625 6.359375 Z M 6.023438 5.824219 "/>
<path style=" stroke:none;fill-rule:nonzero;fill:rgb(98.039216%,72.156863%,10.588235%);fill-opacity:1;" d="M 6.8125 8.550781 L 6.890625 8.683594 L 6.960938 8.617188 C 6.960938 8.617188 7.015625 8.722656 6.960938 8.738281 C 6.902344 8.761719 6.859375 8.738281 6.859375 8.738281 L 6.660156 8.902344 C 6.660156 8.902344 6.582031 8.855469 6.519531 8.902344 C 6.519531 8.902344 6.53125 8.804688 6.570312 8.804688 C 6.609375 8.804688 6.75 8.617188 6.75 8.617188 C 6.75 8.617188 6.675781 8.597656 6.691406 8.550781 C 6.707031 8.507812 6.8125 8.550781 6.8125 8.550781 Z M 6.8125 8.550781 "/>
<path style=" stroke:none;fill-rule:nonzero;fill:rgb(69.411765%,71.372549%,72.941176%);fill-opacity:1;" d="M 6.8125 8.605469 C 6.8125 8.605469 7.964844 7.453125 8.445312 7.410156 C 8.445312 7.410156 8.082031 7.632812 7.855469 7.816406 C 7.628906 7.996094 6.890625 8.683594 6.890625 8.683594 Z M 6.8125 8.605469 "/>
<path style=" stroke:none;fill-rule:nonzero;fill:rgb(69.411765%,71.372549%,72.941176%);fill-opacity:1;" d="M 8.121094 7.675781 C 8.121094 7.675781 8.441406 7.960938 8.476562 8 C 8.515625 8.039062 8.558594 8.207031 8.558594 8.207031 L 8.453125 8.273438 L 7.992188 7.800781 Z M 8.121094 7.675781 "/>
<path style=" stroke:none;fill-rule:nonzero;fill:rgb(42.352941%,18.823529%,11.764706%);fill-opacity:1;" d="M 8.5625 8.203125 L 8.464844 8.28125 C 8.464844 8.28125 8.550781 8.363281 8.5625 8.449219 C 8.578125 8.53125 8.804688 8.792969 8.847656 8.855469 C 8.894531 8.921875 8.953125 8.910156 8.980469 8.855469 C 9.003906 8.804688 9.0625 8.765625 9.070312 8.726562 C 9.078125 8.6875 8.925781 8.550781 8.855469 8.472656 C 8.785156 8.394531 8.707031 8.363281 8.667969 8.320312 C 8.628906 8.273438 8.5625 8.203125 8.5625 8.203125 Z M 8.101562 7.746094 L 8.296875 7.96875 L 8.246094 8.019531 L 8.058594 7.804688 Z M 8.101562 7.746094 "/>
<path style=" stroke:none;fill-rule:nonzero;fill:rgb(69.411765%,71.372549%,72.941176%);fill-opacity:1;" d="M 7.828125 6.777344 L 7.753906 6.984375 L 8.378906 6.359375 L 8.285156 6.339844 Z M 7.828125 6.777344 "/>
<path style=" stroke:none;fill-rule:nonzero;fill:rgb(69.411765%,71.372549%,72.941176%);fill-opacity:1;" d="M 9.011719 5.824219 L 8.378906 6.480469 L 8.226562 6.402344 L 8.378906 6.359375 Z M 9.011719 5.824219 "/>
<path style=" stroke:none;fill-rule:nonzero;fill:rgb(98.039216%,72.156863%,10.588235%);fill-opacity:1;" d="M 8.226562 8.550781 L 8.148438 8.683594 L 8.078125 8.617188 C 8.078125 8.617188 8.019531 8.722656 8.078125 8.738281 C 8.132812 8.761719 8.179688 8.738281 8.179688 8.738281 L 8.375 8.902344 C 8.375 8.902344 8.453125 8.855469 8.519531 8.902344 C 8.519531 8.902344 8.503906 8.804688 8.464844 8.804688 C 8.425781 8.804688 8.285156 8.617188 8.285156 8.617188 C 8.285156 8.617188 8.359375 8.597656 8.34375 8.550781 C 8.328125 8.507812 8.226562 8.550781 8.226562 8.550781 Z M 8.226562 8.550781 "/>
<path style=" stroke:none;fill-rule:nonzero;fill:rgb(69.411765%,71.372549%,72.941176%);fill-opacity:1;" d="M 8.226562 8.605469 C 8.226562 8.605469 7.070312 7.453125 6.589844 7.410156 C 6.589844 7.410156 6.953125 7.632812 7.179688 7.816406 C 7.40625 7.996094 8.148438 8.683594 8.148438 8.683594 Z M 8.226562 8.605469 "/>
<path style=" stroke:none;fill-rule:nonzero;fill:rgb(97.647059%,94.117647%,66.666667%);fill-opacity:1;" d="M 6.820312 6.316406 C 7.007812 6.308594 7.554688 6.324219 7.753906 6.316406 C 7.957031 6.3125 7.910156 6.414062 7.921875 6.472656 C 7.9375 6.53125 7.8125 6.597656 7.8125 6.597656 C 7.8125 6.597656 7.941406 6.675781 8.113281 7.128906 C 8.28125 7.585938 8.242188 7.792969 8.015625 7.804688 C 7.789062 7.820312 7.203125 7.859375 7.007812 7.859375 C 6.8125 7.859375 6.78125 7.785156 6.78125 7.683594 C 6.78125 7.578125 6.9375 7.421875 7.09375 7.511719 C 7.09375 7.511719 7.09375 7.441406 7 7.183594 C 6.910156 6.921875 6.714844 6.644531 6.695312 6.519531 C 6.675781 6.394531 6.722656 6.324219 6.820312 6.316406 Z M 6.820312 6.316406 "/>
<path style=" stroke:none;fill-rule:nonzero;fill:rgb(26.27451%,49.411765%,14.117647%);fill-opacity:1;" d="M 7.390625 5.871094 C 7.3125 5.796875 7.421875 5.722656 7.5 5.726562 C 7.578125 5.734375 7.617188 5.777344 7.535156 5.871094 C 7.535156 5.871094 7.761719 5.992188 7.941406 6.164062 C 8.125 6.332031 8.496094 6.785156 8.535156 7.277344 C 8.578125 7.914062 8.226562 8.246094 8.097656 8.472656 C 7.96875 8.699219 7.675781 9.273438 7.675781 9.273438 C 7.675781 9.273438 7.671875 8.980469 8.054688 8.449219 C 8.054688 8.449219 7.753906 8.980469 7.292969 9.078125 C 7.292969 9.078125 7.871094 8.671875 8.03125 8.347656 C 8.195312 8.023438 8.433594 7.535156 8.394531 7.195312 C 8.355469 6.859375 8.292969 6.570312 7.84375 6.351562 C 7.84375 6.351562 7.5625 6.335938 7.4375 6.234375 C 7.234375 6.070312 7.390625 5.871094 7.390625 5.871094 Z M 7.390625 5.871094 "/>
<path style=" stroke:none;fill-rule:nonzero;fill:rgb(88.627451%,81.176471%,50.588235%);fill-opacity:1;" d="M 7.8125 6.597656 C 7.8125 6.617188 7.898438 6.722656 7.886719 6.722656 L 6.894531 6.722656 C 6.882812 6.722656 6.828125 6.652344 6.828125 6.632812 L 6.75 6.546875 C 6.808594 6.570312 6.882812 6.546875 6.894531 6.546875 L 7.886719 6.546875 C 7.898438 6.546875 7.8125 6.578125 7.8125 6.597656 Z M 7.09375 7.746094 C 7.09375 7.765625 7.050781 7.832031 7.0625 7.832031 L 8.054688 7.832031 C 8.066406 7.832031 8.15625 7.761719 8.15625 7.742188 L 8.195312 7.652344 C 8.136719 7.675781 8.066406 7.652344 8.054688 7.652344 L 7.0625 7.652344 C 7.050781 7.652344 7.09375 7.726562 7.09375 7.746094 Z M 7.09375 7.746094 "/>
</g>
</svg>
