<?xml version="1.0" encoding="UTF-8"?>
<svg xmlns="http://www.w3.org/2000/svg" xmlns:xlink="http://www.w3.org/1999/xlink" width="15pt" height="15pt" viewBox="0 0 15 15" version="1.1">
<g id="surface1">
<path style=" stroke:none;fill-rule:nonzero;fill:rgb(85.490196%,10.980392%,4.313725%);fill-opacity:1;" d="M 15 11.25 C 15 12.171875 14.253906 12.917969 13.332031 12.917969 L 1.667969 12.917969 C 0.746094 12.917969 0 12.171875 0 11.25 L 0 9.167969 L 15 9.167969 Z M 15 11.25 "/>
<path style=" stroke:none;fill-rule:nonzero;fill:rgb(93.333333%,93.333333%,93.333333%);fill-opacity:1;" d="M 13.332031 2.082031 L 1.667969 2.082031 C 0.746094 2.082031 0 2.828125 0 3.75 L 0 9.582031 L 15 9.582031 L 15 3.75 C 15 2.828125 14.253906 2.082031 13.332031 2.082031 Z M 13.332031 2.082031 "/>
<path style=" stroke:none;fill-rule:nonzero;fill:rgb(85.490196%,10.980392%,4.313725%);fill-opacity:1;" d="M 6.019531 4.316406 L 6.019531 4.640625 L 5.695312 4.640625 L 5.695312 4.316406 L 5.046875 4.316406 L 5.046875 4.640625 L 4.722656 4.640625 L 4.722656 4.316406 L 4.398438 4.316406 L 4.398438 4.964844 L 4.722656 4.964844 L 4.722656 6.589844 L 6.019531 6.589844 L 6.019531 4.964844 L 6.347656 4.964844 L 6.347656 4.316406 Z M 6.019531 4.316406 "/>
<path style=" stroke:none;fill-rule:nonzero;fill:rgb(85.490196%,10.980392%,4.313725%);fill-opacity:1;" d="M 6.351562 5.941406 L 6.351562 6.265625 L 6.027344 6.265625 L 6.027344 5.941406 L 5.703125 5.941406 L 5.703125 6.265625 L 5.054688 6.265625 L 5.054688 5.941406 L 4.726562 5.941406 L 4.726562 6.265625 L 4.402344 6.265625 L 4.402344 5.941406 L 4.078125 5.941406 L 4.078125 6.589844 L 4.402344 6.589844 L 4.402344 8.359375 L 4.078125 8.535156 L 4.078125 8.859375 L 6.675781 8.859375 L 6.675781 8.535156 L 6.351562 8.359375 L 6.351562 6.589844 L 6.675781 6.589844 L 6.675781 5.941406 Z M 6.351562 5.941406 "/>
<path style=" stroke:none;fill-rule:nonzero;fill:rgb(0%,0%,0%);fill-opacity:1;" d="M 5.046875 5.617188 L 5.695312 5.617188 L 5.695312 6.265625 L 5.046875 6.265625 Z M 5.046875 5.617188 "/>
<path style=" stroke:none;fill-rule:nonzero;fill:rgb(0%,0%,0%);fill-opacity:1;" d="M 5.695312 5.617188 C 5.695312 5.792969 5.550781 5.941406 5.371094 5.941406 C 5.195312 5.941406 5.046875 5.792969 5.046875 5.617188 C 5.046875 5.4375 5.195312 5.292969 5.371094 5.292969 C 5.550781 5.289062 5.695312 5.4375 5.695312 5.617188 Z M 5.695312 7.660156 C 5.695312 7.398438 5.632812 7.191406 5.371094 7.191406 C 5.113281 7.191406 5.046875 7.398438 5.046875 7.660156 L 5.046875 8.210938 L 5.699219 8.210938 L 5.699219 7.660156 Z M 5.695312 7.660156 "/>
<path style=" stroke:none;fill-rule:nonzero;fill:rgb(85.490196%,10.980392%,4.313725%);fill-opacity:1;" d="M 10.378906 4.316406 L 10.378906 4.640625 L 10.054688 4.640625 L 10.054688 4.316406 L 9.40625 4.316406 L 9.40625 4.640625 L 9.082031 4.640625 L 9.082031 4.316406 L 8.757812 4.316406 L 8.757812 4.964844 L 9.082031 4.964844 L 9.082031 6.589844 L 10.378906 6.589844 L 10.378906 4.964844 L 10.703125 4.964844 L 10.703125 4.316406 Z M 10.378906 4.316406 "/>
<path style=" stroke:none;fill-rule:nonzero;fill:rgb(85.490196%,10.980392%,4.313725%);fill-opacity:1;" d="M 10.703125 5.941406 L 10.703125 6.265625 L 10.378906 6.265625 L 10.378906 5.941406 L 10.054688 5.941406 L 10.054688 6.265625 L 9.40625 6.265625 L 9.40625 5.941406 L 9.082031 5.941406 L 9.082031 6.265625 L 8.757812 6.265625 L 8.757812 5.941406 L 8.433594 5.941406 L 8.433594 6.589844 L 8.757812 6.589844 L 8.757812 8.359375 L 8.433594 8.535156 L 8.433594 8.859375 L 11.027344 8.859375 L 11.027344 8.535156 L 10.703125 8.359375 L 10.703125 6.589844 L 11.027344 6.589844 L 11.027344 5.941406 Z M 10.703125 5.941406 "/>
<path style=" stroke:none;fill-rule:nonzero;fill:rgb(0%,0%,0%);fill-opacity:1;" d="M 9.40625 5.617188 L 10.054688 5.617188 L 10.054688 6.265625 L 9.40625 6.265625 Z M 9.40625 5.617188 "/>
<path style=" stroke:none;fill-rule:nonzero;fill:rgb(0%,0%,0%);fill-opacity:1;" d="M 10.054688 5.617188 C 10.054688 5.792969 9.910156 5.941406 9.730469 5.941406 C 9.550781 5.941406 9.40625 5.792969 9.40625 5.617188 C 9.40625 5.4375 9.550781 5.292969 9.730469 5.292969 C 9.910156 5.289062 10.054688 5.4375 10.054688 5.617188 Z M 10.054688 7.660156 C 10.054688 7.398438 9.988281 7.191406 9.730469 7.191406 C 9.472656 7.191406 9.40625 7.398438 9.40625 7.660156 L 9.40625 8.210938 L 10.054688 8.210938 Z M 10.054688 7.660156 "/>
<path style=" stroke:none;fill-rule:nonzero;fill:rgb(85.490196%,10.980392%,4.313725%);fill-opacity:1;" d="M 8.332031 3.332031 L 8.332031 3.75 L 7.917969 3.75 L 7.917969 3.332031 L 7.082031 3.332031 L 7.082031 3.75 L 6.667969 3.75 L 6.667969 3.332031 L 6.25 3.332031 L 6.25 4.167969 L 6.667969 4.167969 L 6.667969 6.25 L 8.332031 6.25 L 8.332031 4.167969 L 8.75 4.167969 L 8.75 3.332031 Z M 8.332031 3.332031 "/>
<path style=" stroke:none;fill-rule:nonzero;fill:rgb(85.490196%,10.980392%,4.313725%);fill-opacity:1;" d="M 8.75 5.417969 L 8.75 5.832031 L 8.332031 5.832031 L 8.332031 5.417969 L 7.917969 5.417969 L 7.917969 5.832031 L 7.082031 5.832031 L 7.082031 5.417969 L 6.667969 5.417969 L 6.667969 5.832031 L 6.25 5.832031 L 6.25 5.417969 L 5.832031 5.417969 L 5.832031 9.167969 L 9.167969 9.167969 L 9.167969 5.417969 Z M 8.75 5.417969 "/>
<path style=" stroke:none;fill-rule:nonzero;fill:rgb(0%,0%,0%);fill-opacity:1;" d="M 7.082031 5 L 7.917969 5 L 7.917969 5.832031 L 7.082031 5.832031 Z M 7.082031 5 "/>
<path style=" stroke:none;fill-rule:nonzero;fill:rgb(0%,0%,0%);fill-opacity:1;" d="M 7.917969 5 C 7.917969 5.230469 7.730469 5.417969 7.5 5.417969 C 7.269531 5.417969 7.082031 5.230469 7.082031 5 C 7.082031 4.769531 7.269531 4.582031 7.5 4.582031 C 7.730469 4.582031 7.917969 4.769531 7.917969 5 Z M 7.917969 5 "/>
<path style=" stroke:none;fill-rule:nonzero;fill:rgb(0%,0%,0%);fill-opacity:1;" d="M 8.101562 7.625 C 8.101562 7.292969 7.832031 7.023438 7.5 7.023438 C 7.167969 7.023438 6.898438 7.292969 6.898438 7.625 L 6.898438 8.527344 L 8.101562 8.527344 Z M 8.101562 7.625 "/>
<path style=" stroke:none;fill-rule:nonzero;fill:rgb(100%,94.509804%,0%);fill-opacity:1;" d="M 7.566406 9.730469 L 7.566406 9.785156 L 8.015625 10.234375 L 7.566406 10.683594 L 7.566406 12.648438 L 7.421875 12.648438 L 7.421875 12.429688 L 6.925781 12.429688 L 6.925781 12.132812 L 7.070312 12.132812 L 7.070312 12.285156 L 7.421875 12.285156 L 7.421875 11.847656 L 7.070312 11.847656 L 7.070312 11.996094 L 6.925781 11.996094 L 6.925781 11.703125 L 7.421875 11.703125 L 7.421875 10.683594 L 6.972656 10.234375 L 7.421875 9.785156 L 7.421875 9.730469 Z M 7.566406 9.730469 "/>
<path style=" stroke:none;fill-rule:nonzero;fill:rgb(85.490196%,10.980392%,4.313725%);fill-opacity:1;" d="M 7.183594 10.230469 L 7.496094 9.921875 L 7.808594 10.234375 L 7.496094 10.542969 Z M 7.183594 10.230469 "/>
<path style=" stroke:none;fill-rule:nonzero;fill:rgb(100%,94.509804%,0%);fill-opacity:1;" d="M 7.5625 8.882812 L 7.4375 8.882812 C 7.335938 8.882812 7.253906 9.007812 7.253906 9.160156 L 7.253906 9.71875 C 7.253906 9.875 7.335938 10 7.4375 10 L 7.5625 10 C 7.664062 10 7.746094 9.875 7.746094 9.71875 L 7.746094 9.160156 C 7.746094 9.007812 7.664062 8.882812 7.5625 8.882812 Z M 7.605469 9.730469 C 7.605469 9.816406 7.5625 9.886719 7.503906 9.886719 C 7.449219 9.886719 7.402344 9.816406 7.402344 9.730469 L 7.402344 9.167969 C 7.402344 9.082031 7.445312 9.011719 7.503906 9.011719 C 7.5625 9.011719 7.605469 9.082031 7.605469 9.167969 Z M 7.605469 9.730469 "/>
<path style=" stroke:none;fill-rule:nonzero;fill:rgb(100%,94.509804%,0%);fill-opacity:1;" d="M 8.050781 8.445312 C 8.007812 8.417969 7.949219 8.417969 7.921875 8.445312 L 7.5 8.824219 L 7.078125 8.445312 C 7.050781 8.417969 6.992188 8.417969 6.949219 8.445312 C 6.902344 8.46875 6.890625 8.507812 6.917969 8.535156 L 7.429688 8.996094 C 7.445312 9.011719 7.472656 9.015625 7.5 9.011719 C 7.527344 9.015625 7.554688 9.011719 7.570312 8.996094 L 8.082031 8.535156 C 8.109375 8.507812 8.097656 8.46875 8.050781 8.445312 Z M 8.050781 8.445312 "/>
</g>
</svg>
