<?xml version="1.0" encoding="UTF-8"?>
<svg xmlns="http://www.w3.org/2000/svg" xmlns:xlink="http://www.w3.org/1999/xlink" width="15pt" height="15pt" viewBox="0 0 15 15" version="1.1">
<g id="surface1">
<path style=" stroke:none;fill-rule:nonzero;fill:rgb(85.490196%,0%,0.392157%);fill-opacity:1;" d="M 0 11.25 C 0 12.171875 0.746094 12.917969 1.667969 12.917969 L 13.332031 12.917969 C 14.253906 12.917969 15 12.171875 15 11.25 L 15 9.582031 L 0 9.582031 Z M 0 11.25 "/>
<path style=" stroke:none;fill-rule:nonzero;fill:rgb(93.333333%,93.333333%,93.333333%);fill-opacity:1;" d="M 0 5.417969 L 15 5.417969 L 15 9.582031 L 0 9.582031 Z M 0 5.417969 "/>
<path style=" stroke:none;fill-rule:nonzero;fill:rgb(13.72549%,62.352941%,25.098039%);fill-opacity:1;" d="M 15 5.417969 L 15 3.75 C 15 2.828125 14.253906 2.082031 13.332031 2.082031 L 1.667969 2.082031 C 0.746094 2.082031 0 2.828125 0 3.75 L 0 5.417969 Z M 15 5.417969 "/>
<path style=" stroke:none;fill-rule:nonzero;fill:rgb(91.372549%,40%,40.392157%);fill-opacity:1;" d="M 0 9.582031 L 15 9.582031 L 15 10 L 0 10 Z M 0 9.582031 "/>
<path style=" stroke:none;fill-rule:nonzero;fill:rgb(74.509804%,9.803922%,19.215686%);fill-opacity:1;" d="M 8.109375 6.238281 C 8.507812 6.441406 9.375 7.46875 8.441406 8.625 C 9.023438 8.496094 9.761719 6.789062 8.109375 6.238281 Z M 6.886719 6.238281 C 5.238281 6.789062 5.972656 8.496094 6.554688 8.625 C 5.621094 7.46875 6.488281 6.441406 6.886719 6.238281 Z M 7.492188 6.175781 C 7.507812 6.257812 7.949219 6.359375 7.898438 5.9375 C 7.828125 6.109375 7.625 6.105469 7.496094 6.023438 C 7.316406 6.125 7.148438 6.101562 7.082031 5.929688 C 7.019531 6.246094 7.328125 6.335938 7.492188 6.175781 Z M 7.492188 6.175781 "/>
<path style=" stroke:none;fill-rule:nonzero;fill:rgb(74.509804%,9.803922%,19.215686%);fill-opacity:1;" d="M 8.558594 7.460938 C 8.550781 6.941406 8.277344 6.480469 8.003906 6.292969 C 8.183594 6.511719 8.734375 7.726562 7.675781 8.523438 L 7.695312 6.398438 L 7.5 6.226562 L 7.300781 6.390625 L 7.332031 8.535156 L 7.328125 8.527344 C 6.257812 7.730469 6.8125 6.515625 6.992188 6.292969 C 6.71875 6.480469 6.445312 6.941406 6.4375 7.460938 C 6.433594 7.90625 6.636719 8.394531 7.203125 8.796875 C 6.96875 8.859375 6.71875 8.882812 6.503906 8.878906 C 6.695312 8.984375 7.0625 8.960938 7.339844 8.933594 L 7.339844 8.960938 L 7.503906 9.144531 L 7.671875 8.953125 L 7.671875 8.933594 C 7.953125 8.957031 8.324219 8.988281 8.523438 8.878906 C 8.300781 8.882812 8.039062 8.859375 7.800781 8.789062 C 8.359375 8.390625 8.5625 7.90625 8.558594 7.460938 Z M 8.558594 7.460938 "/>
<path style=" stroke:none;fill-rule:nonzero;fill:rgb(48.235294%,77.254902%,54.901961%);fill-opacity:1;" d="M 0 5 L 15 5 L 15 5.417969 L 0 5.417969 Z M 0 5 "/>
</g>
</svg>
