<?xml version="1.0" encoding="UTF-8"?>
<svg xmlns="http://www.w3.org/2000/svg" xmlns:xlink="http://www.w3.org/1999/xlink" width="15pt" height="15pt" viewBox="0 0 15 15" version="1.1">
<g id="surface1">
<path style=" stroke:none;fill-rule:nonzero;fill:rgb(0%,18.823529%,50.980392%);fill-opacity:1;" d="M 13.332031 2.082031 L 1.667969 2.082031 C 0.746094 2.082031 0 2.828125 0 3.75 L 0 4.792969 L 15 4.792969 L 15 3.75 C 15 2.828125 14.253906 2.082031 13.332031 2.082031 Z M 13.332031 2.082031 "/>
<path style=" stroke:none;fill-rule:nonzero;fill:rgb(93.333333%,93.333333%,93.333333%);fill-opacity:1;" d="M 0 4.792969 L 15 4.792969 L 15 7.5 L 0 7.5 Z M 0 4.792969 "/>
<path style=" stroke:none;fill-rule:nonzero;fill:rgb(15.686275%,59.215686%,15.686275%);fill-opacity:1;" d="M 0 7.5 L 15 7.5 L 15 10.207031 L 0 10.207031 Z M 0 7.5 "/>
<path style=" stroke:none;fill-rule:nonzero;fill:rgb(100%,80.784314%,0%);fill-opacity:1;" d="M 0 10.207031 L 0 11.25 C 0 12.171875 0.746094 12.917969 1.667969 12.917969 L 13.332031 12.917969 C 14.253906 12.917969 15 12.171875 15 11.25 L 15 10.207031 Z M 0 10.207031 "/>
<path style=" stroke:none;fill-rule:nonzero;fill:rgb(82.352941%,6.27451%,20.392157%);fill-opacity:1;" d="M 6.25 2.082031 L 8.75 2.082031 L 8.75 12.917969 L 6.25 12.917969 Z M 6.25 2.082031 "/>
<path style=" stroke:none;fill-rule:nonzero;fill:rgb(100%,80.784314%,0%);fill-opacity:1;" d="M 2.867188 3.171875 L 2.582031 2.300781 L 2.296875 3.171875 L 1.382812 3.171875 L 2.125 3.710938 L 1.839844 4.582031 L 2.582031 4.042969 L 3.324219 4.582031 L 3.039062 3.710938 L 3.785156 3.171875 Z M 2.867188 3.171875 "/>
</g>
</svg>
