<?xml version="1.0" encoding="UTF-8"?>
<svg xmlns="http://www.w3.org/2000/svg" xmlns:xlink="http://www.w3.org/1999/xlink" width="15pt" height="15pt" viewBox="0 0 15 15" version="1.1">
<g id="surface1">
<path style=" stroke:none;fill-rule:nonzero;fill:rgb(7.843137%,7.843137%,7.843137%);fill-opacity:1;" d="M 13.332031 2.082031 L 1.667969 2.082031 C 0.746094 2.082031 0 2.828125 0 3.75 L 0 5.625 L 15 5.625 L 15 3.75 C 15 2.828125 14.253906 2.082031 13.332031 2.082031 Z M 13.332031 2.082031 "/>
<path style=" stroke:none;fill-rule:nonzero;fill:rgb(0%,47.843137%,23.921569%);fill-opacity:1;" d="M 0 11.25 C 0 12.171875 0.746094 12.917969 1.667969 12.917969 L 13.332031 12.917969 C 14.253906 12.917969 15 12.171875 15 11.25 L 15 9.375 L 0 9.375 Z M 0 11.25 "/>
<path style=" stroke:none;fill-rule:nonzero;fill:rgb(93.333333%,93.333333%,93.333333%);fill-opacity:1;" d="M 0 5.625 L 15 5.625 L 15 9.375 L 0 9.375 Z M 0 5.625 "/>
<path style=" stroke:none;fill-rule:nonzero;fill:rgb(76.862745%,6.666667%,10.588235%);fill-opacity:1;" d="M 0.46875 2.59375 C 0.179688 2.894531 0 3.300781 0 3.75 L 0 11.25 C 0 11.699219 0.179688 12.105469 0.46875 12.40625 L 5 7.5 Z M 0.46875 2.59375 "/>
<path style=" stroke:none;fill-rule:nonzero;fill:rgb(76.862745%,6.666667%,10.588235%);fill-opacity:1;" d="M 7.457031 7.515625 C 7.457031 6.808594 7.960938 6.222656 8.628906 6.09375 C 8.542969 6.078125 8.453125 6.070312 8.359375 6.070312 C 7.5625 6.070312 6.914062 6.714844 6.914062 7.515625 C 6.914062 8.3125 7.5625 8.957031 8.359375 8.957031 C 8.449219 8.957031 8.542969 8.949219 8.628906 8.933594 C 7.960938 8.804688 7.457031 8.21875 7.457031 7.515625 Z M 7.457031 7.515625 "/>
<path style=" stroke:none;fill-rule:nonzero;fill:rgb(76.862745%,6.666667%,10.588235%);fill-opacity:1;" d="M 7.972656 8.386719 L 8.585938 7.949219 L 9.199219 8.394531 L 8.96875 7.671875 L 9.582031 7.230469 L 8.828125 7.222656 L 8.59375 6.503906 L 8.355469 7.222656 L 7.597656 7.21875 L 8.207031 7.667969 Z M 7.972656 8.386719 "/>
</g>
</svg>
