<?xml version="1.0" encoding="UTF-8"?>
<svg xmlns="http://www.w3.org/2000/svg" xmlns:xlink="http://www.w3.org/1999/xlink" width="15pt" height="15pt" viewBox="0 0 15 15" version="1.1">
<g id="surface1">
<path style=" stroke:none;fill-rule:nonzero;fill:rgb(93.333333%,93.333333%,93.333333%);fill-opacity:1;" d="M 15 11.25 C 15 12.171875 14.253906 12.917969 13.332031 12.917969 L 1.667969 12.917969 C 0.746094 12.917969 0 12.171875 0 11.25 L 0 3.75 C 0 2.828125 0.746094 2.082031 1.667969 2.082031 L 13.332031 2.082031 C 14.253906 2.082031 15 2.828125 15 3.75 Z M 15 11.25 "/>
<path style=" stroke:none;fill-rule:nonzero;fill:rgb(80.784314%,10.196078%,14.117647%);fill-opacity:1;" d="M 4.328125 8.855469 C 4.328125 8.855469 4.1875 9.277344 4.222656 9.703125 C 4.257812 10.125 5.246094 10.089844 5.457031 10.054688 C 5.667969 10.019531 5.808594 10.019531 5.667969 10.195312 C 5.527344 10.371094 5.351562 10.652344 5.386719 10.96875 C 5.421875 11.285156 4.964844 11.074219 4.824219 10.757812 C 4.683594 10.441406 4.542969 10.441406 4.292969 10.300781 C 4.046875 10.160156 3.808594 9.804688 3.660156 9.59375 C 3.484375 9.347656 3.378906 9.171875 4.328125 8.855469 Z M 10.671875 8.855469 C 10.671875 8.855469 10.8125 9.277344 10.777344 9.703125 C 10.742188 10.125 9.753906 10.089844 9.542969 10.054688 C 9.332031 10.019531 9.191406 10.019531 9.332031 10.195312 C 9.472656 10.371094 9.648438 10.652344 9.613281 10.96875 C 9.578125 11.285156 10.035156 11.074219 10.175781 10.757812 C 10.320312 10.441406 10.460938 10.441406 10.707031 10.300781 C 10.953125 10.160156 11.191406 9.804688 11.339844 9.59375 C 11.515625 9.347656 11.621094 9.171875 10.671875 8.855469 Z M 10.671875 8.855469 "/>
<path style=" stroke:none;fill-rule:nonzero;fill:rgb(96.470588%,89.411765%,74.509804%);fill-opacity:1;" d="M 11.269531 9.523438 C 10.882812 9.703125 10.078125 9.816406 9.753906 9.84375 C 9.328125 9.875 9.261719 9.984375 9.261719 10.089844 C 9.261719 10.195312 9.71875 10.265625 9.964844 10.230469 C 10.210938 10.195312 10.496094 10.265625 10.070312 10.511719 C 9.648438 10.757812 9.085938 11.109375 8.554688 11.25 C 8.027344 11.390625 7.5 11.355469 7.5 11.355469 C 7.5 11.355469 6.972656 11.390625 6.441406 11.25 C 5.914062 11.109375 5.351562 10.757812 4.929688 10.511719 C 4.503906 10.265625 4.785156 10.195312 5.035156 10.230469 C 5.28125 10.265625 5.738281 10.195312 5.738281 10.089844 C 5.738281 9.984375 5.671875 9.875 5.246094 9.84375 C 4.921875 9.816406 4.117188 9.703125 3.730469 9.523438 C 3.566406 9.449219 3.519531 9.3125 3.519531 9.3125 C 3.519531 9.3125 3.519531 9.382812 3.554688 9.59375 C 3.589844 9.808594 3.765625 9.949219 3.800781 10.160156 C 3.835938 10.371094 3.835938 10.476562 4.011719 10.511719 C 4.1875 10.546875 4.578125 10.582031 4.578125 10.582031 C 4.578125 10.582031 4.578125 10.898438 4.503906 11.074219 C 4.433594 11.25 4.683594 11.570312 5.632812 11.921875 C 6.585938 12.273438 7.007812 12.238281 7.5 12.238281 C 7.992188 12.238281 8.414062 12.273438 9.367188 11.921875 C 10.316406 11.566406 10.5625 11.25 10.496094 11.074219 C 10.421875 10.898438 10.421875 10.582031 10.421875 10.582031 C 10.421875 10.582031 10.8125 10.546875 10.988281 10.511719 C 11.164062 10.476562 11.164062 10.371094 11.199219 10.160156 C 11.234375 9.945312 11.410156 9.804688 11.445312 9.59375 C 11.480469 9.382812 11.480469 9.3125 11.480469 9.3125 C 11.480469 9.3125 11.433594 9.449219 11.269531 9.523438 Z M 11.269531 9.523438 "/>
<path style=" stroke:none;fill-rule:nonzero;fill:rgb(73.72549%,67.843137%,58.823529%);fill-opacity:1;" d="M 5.949219 11.390625 C 6.339844 11.523438 7.964844 11.863281 8.945312 11.429688 C 9.261719 11.285156 9.367188 11.707031 9.085938 11.816406 C 8.863281 11.898438 7.992188 12.027344 7.605469 12.027344 C 7.21875 12.027344 6.15625 11.902344 5.84375 11.78125 C 5.667969 11.707031 5.738281 11.320312 5.949219 11.390625 Z M 5.949219 11.390625 "/>
<path style=" stroke:none;fill-rule:nonzero;fill:rgb(40%,40%,40%);fill-opacity:1;" d="M 5.246094 4.382812 L 9.753906 4.382812 L 9.753906 5.015625 L 5.246094 5.015625 Z M 5.246094 4.382812 "/>
<path style=" stroke:none;fill-rule:nonzero;fill:rgb(80.784314%,10.196078%,14.117647%);fill-opacity:1;" d="M 7.5 4.804688 L 5.246094 4.804688 L 5.246094 7.480469 C 5.246094 8.820312 6.089844 9.347656 6.511719 9.664062 C 6.9375 9.984375 8.0625 9.984375 8.484375 9.664062 C 8.910156 9.347656 9.753906 8.820312 9.753906 7.480469 L 9.753906 4.804688 Z M 7.5 4.804688 "/>
<path style=" stroke:none;fill-rule:nonzero;fill:rgb(7.45098%,32.54902%,70.588235%);fill-opacity:1;" d="M 5.300781 8.046875 C 5.496094 8.980469 6.15625 9.398438 6.511719 9.667969 C 6.9375 9.984375 7.5 10.195312 7.5 10.195312 C 7.5 10.195312 8.0625 9.984375 8.484375 9.667969 C 8.84375 9.398438 9.503906 8.980469 9.699219 8.046875 Z M 5.246094 4.804688 L 9.753906 4.804688 L 9.753906 6.460938 L 5.246094 6.460938 Z M 5.246094 4.804688 "/>
<path style=" stroke:none;fill-rule:nonzero;fill:rgb(91.764706%,80.784314%,13.72549%);fill-opacity:1;" d="M 6.160156 5.402344 C 6.160156 5.402344 6.195312 5.332031 6.160156 5.226562 C 6.128906 5.132812 5.984375 5.050781 5.984375 5.050781 C 5.984375 5.050781 5.839844 5.132812 5.808594 5.226562 C 5.773438 5.332031 5.808594 5.402344 5.808594 5.402344 C 5.632812 5.332031 5.5625 5.507812 5.5625 5.613281 C 5.5625 5.722656 5.703125 5.789062 5.703125 5.789062 C 5.703125 5.789062 5.703125 5.648438 5.773438 5.648438 C 5.84375 5.648438 5.84375 5.789062 5.84375 5.789062 C 5.703125 5.789062 5.84375 5.898438 5.84375 5.898438 L 5.738281 6.074219 L 5.878906 6.035156 C 5.84375 6.144531 5.984375 6.25 5.984375 6.25 C 5.984375 6.25 6.128906 6.144531 6.089844 6.035156 L 6.234375 6.074219 L 6.128906 5.898438 C 6.128906 5.898438 6.269531 5.789062 6.128906 5.789062 C 6.128906 5.789062 6.128906 5.648438 6.195312 5.648438 C 6.265625 5.648438 6.265625 5.789062 6.265625 5.789062 C 6.265625 5.789062 6.410156 5.722656 6.410156 5.613281 C 6.40625 5.507812 6.335938 5.332031 6.160156 5.402344 Z M 9.191406 5.402344 C 9.191406 5.402344 9.226562 5.332031 9.191406 5.226562 C 9.160156 5.132812 9.015625 5.050781 9.015625 5.050781 C 9.015625 5.050781 8.871094 5.132812 8.839844 5.226562 C 8.804688 5.332031 8.839844 5.402344 8.839844 5.402344 C 8.664062 5.332031 8.59375 5.507812 8.59375 5.613281 C 8.59375 5.722656 8.734375 5.789062 8.734375 5.789062 C 8.734375 5.789062 8.734375 5.648438 8.804688 5.648438 C 8.875 5.648438 8.875 5.789062 8.875 5.789062 C 8.734375 5.789062 8.875 5.898438 8.875 5.898438 L 8.769531 6.074219 L 8.910156 6.035156 C 8.875 6.144531 9.015625 6.25 9.015625 6.25 C 9.015625 6.25 9.15625 6.144531 9.121094 6.035156 L 9.261719 6.074219 L 9.15625 5.898438 C 9.15625 5.898438 9.296875 5.789062 9.15625 5.789062 C 9.15625 5.789062 9.15625 5.648438 9.226562 5.648438 C 9.296875 5.648438 9.296875 5.789062 9.296875 5.789062 C 9.296875 5.789062 9.4375 5.722656 9.4375 5.613281 C 9.4375 5.507812 9.367188 5.332031 9.191406 5.402344 Z M 7.675781 5.402344 C 7.675781 5.402344 7.710938 5.332031 7.675781 5.226562 C 7.644531 5.132812 7.5 5.050781 7.5 5.050781 C 7.5 5.050781 7.355469 5.132812 7.324219 5.226562 C 7.289062 5.332031 7.324219 5.402344 7.324219 5.402344 C 7.148438 5.332031 7.078125 5.507812 7.078125 5.613281 C 7.078125 5.722656 7.21875 5.789062 7.21875 5.789062 C 7.21875 5.789062 7.21875 5.648438 7.289062 5.648438 C 7.359375 5.648438 7.359375 5.789062 7.359375 5.789062 C 7.21875 5.789062 7.359375 5.898438 7.359375 5.898438 L 7.253906 6.074219 L 7.394531 6.035156 C 7.359375 6.144531 7.5 6.25 7.5 6.25 C 7.5 6.25 7.640625 6.144531 7.605469 6.039062 L 7.746094 6.074219 L 7.640625 5.898438 C 7.640625 5.898438 7.78125 5.792969 7.640625 5.792969 C 7.640625 5.792969 7.640625 5.652344 7.710938 5.652344 C 7.78125 5.652344 7.78125 5.792969 7.78125 5.792969 C 7.78125 5.792969 7.921875 5.722656 7.921875 5.617188 C 7.921875 5.507812 7.851562 5.332031 7.675781 5.402344 Z M 7.675781 5.402344 "/>
<path style=" stroke:none;fill-rule:nonzero;fill:rgb(100%,100%,100%);fill-opacity:1;" d="M 7.886719 7.269531 L 8.0625 7.023438 L 7.570312 7.164062 L 7.710938 6.707031 L 7.5 6.847656 L 7.289062 6.707031 L 7.429688 7.164062 L 6.9375 7.023438 L 7.113281 7.269531 L 6.9375 7.480469 L 7.429688 7.304688 L 7.253906 7.796875 L 7.5 7.65625 L 7.746094 7.796875 L 7.570312 7.304688 L 8.0625 7.480469 Z M 7.886719 7.269531 "/>
<path style=" stroke:none;fill-rule:nonzero;fill:rgb(91.764706%,80.784314%,13.72549%);fill-opacity:1;" d="M 7.886719 9.171875 C 7.886719 9.171875 7.78125 9.171875 7.78125 9.277344 C 7.78125 9.386719 7.886719 9.417969 7.886719 9.417969 C 7.886719 9.417969 7.816406 9.523438 7.710938 9.523438 C 7.605469 9.523438 7.570312 9.417969 7.570312 9.417969 C 7.570312 9.417969 7.710938 9.386719 7.710938 9.3125 C 7.710938 9.242188 7.605469 9.207031 7.605469 9.207031 C 7.605469 9.207031 7.605469 9.03125 7.5 9.03125 C 7.394531 9.03125 7.394531 9.207031 7.394531 9.207031 C 7.394531 9.207031 7.289062 9.242188 7.289062 9.3125 C 7.289062 9.386719 7.429688 9.417969 7.429688 9.417969 C 7.429688 9.417969 7.394531 9.523438 7.289062 9.523438 C 7.183594 9.523438 7.113281 9.417969 7.113281 9.417969 C 7.113281 9.417969 7.21875 9.386719 7.21875 9.277344 C 7.21875 9.171875 7.113281 9.171875 7.113281 9.171875 C 7.113281 9.03125 6.972656 9.101562 6.972656 9.101562 L 7.078125 9.84375 L 7.921875 9.84375 L 8.027344 9.101562 C 8.027344 9.101562 7.886719 9.03125 7.886719 9.171875 Z M 7.078125 8.257812 C 7.078125 8.257812 6.972656 8.257812 6.972656 8.363281 C 6.972656 8.46875 7.078125 8.503906 7.078125 8.503906 C 7.078125 8.503906 7.007812 8.609375 6.902344 8.609375 C 6.796875 8.609375 6.761719 8.503906 6.761719 8.503906 C 6.761719 8.503906 6.902344 8.46875 6.902344 8.398438 C 6.902344 8.328125 6.796875 8.292969 6.796875 8.292969 C 6.796875 8.292969 6.796875 8.117188 6.691406 8.117188 C 6.585938 8.117188 6.585938 8.292969 6.585938 8.292969 C 6.585938 8.292969 6.480469 8.328125 6.480469 8.398438 C 6.480469 8.46875 6.621094 8.503906 6.621094 8.503906 C 6.621094 8.503906 6.585938 8.609375 6.480469 8.609375 C 6.375 8.609375 6.300781 8.503906 6.300781 8.503906 C 6.300781 8.503906 6.410156 8.46875 6.410156 8.363281 C 6.410156 8.257812 6.300781 8.257812 6.300781 8.257812 C 6.300781 8.117188 6.160156 8.1875 6.160156 8.1875 L 6.265625 8.925781 L 7.113281 8.925781 L 7.21875 8.1875 C 7.21875 8.1875 7.078125 8.117188 7.078125 8.257812 Z M 8.699219 8.257812 C 8.699219 8.257812 8.59375 8.257812 8.59375 8.363281 C 8.59375 8.46875 8.699219 8.503906 8.699219 8.503906 C 8.699219 8.503906 8.628906 8.609375 8.519531 8.609375 C 8.414062 8.609375 8.378906 8.503906 8.378906 8.503906 C 8.378906 8.503906 8.519531 8.46875 8.519531 8.398438 C 8.519531 8.328125 8.414062 8.292969 8.414062 8.292969 C 8.414062 8.292969 8.414062 8.117188 8.308594 8.117188 C 8.203125 8.117188 8.203125 8.292969 8.203125 8.292969 C 8.203125 8.292969 8.097656 8.328125 8.097656 8.398438 C 8.097656 8.46875 8.238281 8.503906 8.238281 8.503906 C 8.238281 8.503906 8.203125 8.609375 8.097656 8.609375 C 7.992188 8.609375 7.921875 8.503906 7.921875 8.503906 C 7.921875 8.503906 8.027344 8.46875 8.027344 8.363281 C 8.027344 8.257812 7.921875 8.257812 7.921875 8.257812 C 7.921875 8.117188 7.78125 8.1875 7.78125 8.1875 L 7.886719 8.925781 L 8.734375 8.925781 L 8.839844 8.1875 C 8.839844 8.1875 8.699219 8.117188 8.699219 8.257812 Z M 10.210938 3.113281 L 10.140625 3.324219 L 10 3.289062 L 10.035156 3.078125 L 9.683594 3.007812 L 9.644531 3.230469 L 9.507812 3.191406 L 9.507812 2.9375 L 9.15625 2.902344 L 9.125 3.121094 L 8.875 3.078125 L 8.875 3.21875 L 8.804688 3.21875 L 8.804688 3.042969 L 8.628906 3.042969 L 8.628906 3.183594 L 8.519531 3.183594 L 8.519531 3.007812 L 8.34375 3.007812 L 8.34375 3.148438 L 8.203125 3.113281 L 8.203125 2.796875 L 7.851562 2.761719 L 7.851562 2.972656 L 7.675781 2.972656 L 7.675781 2.761719 L 7.324219 2.761719 L 7.324219 2.972656 L 7.148438 2.972656 L 7.148438 2.761719 L 6.796875 2.796875 L 6.796875 3.113281 L 6.65625 3.148438 L 6.65625 3.007812 L 6.480469 3.007812 L 6.480469 3.183594 L 6.375 3.183594 L 6.375 3.042969 L 6.195312 3.042969 L 6.195312 3.21875 L 6.128906 3.21875 L 6.128906 3.078125 L 5.875 3.121094 L 5.84375 2.902344 L 5.492188 2.9375 L 5.492188 3.191406 L 5.355469 3.230469 L 5.316406 3.007812 L 4.964844 3.078125 L 5 3.289062 L 4.859375 3.324219 L 4.789062 3.113281 L 4.433594 3.21875 L 4.613281 3.675781 L 4.71875 3.640625 L 5.246094 4.804688 C 5.246094 4.804688 5.84375 4.628906 6.40625 4.558594 C 6.972656 4.488281 7.5 4.488281 7.5 4.488281 C 7.5 4.488281 8.027344 4.488281 8.59375 4.558594 C 9.15625 4.628906 9.753906 4.804688 9.753906 4.804688 L 10.28125 3.640625 L 10.386719 3.675781 L 10.5625 3.21875 Z M 10.210938 3.113281 "/>
<path style=" stroke:none;fill-rule:nonzero;fill:rgb(36.862745%,32.156863%,5.098039%);fill-opacity:1;" d="M 7.5 3.324219 C 7.421875 3.324219 7.359375 3.386719 7.359375 3.464844 L 7.359375 3.816406 L 7.640625 3.816406 L 7.640625 3.464844 C 7.640625 3.386719 7.578125 3.324219 7.5 3.324219 Z M 5.367188 3.542969 C 5.289062 3.5625 5.246094 3.640625 5.265625 3.714844 L 5.355469 4.058594 L 5.625 3.988281 L 5.539062 3.644531 C 5.519531 3.570312 5.441406 3.523438 5.367188 3.542969 Z M 9.632812 3.542969 C 9.710938 3.5625 9.753906 3.640625 9.734375 3.714844 L 9.644531 4.058594 L 9.375 3.984375 L 9.460938 3.644531 C 9.480469 3.570312 9.558594 3.523438 9.632812 3.542969 Z M 9.632812 3.542969 "/>
</g>
</svg>
