<?xml version="1.0" encoding="UTF-8"?>
<svg xmlns="http://www.w3.org/2000/svg" xmlns:xlink="http://www.w3.org/1999/xlink" width="15pt" height="15pt" viewBox="0 0 15 15" version="1.1">
<g id="surface1">
<path style=" stroke:none;fill-rule:nonzero;fill:rgb(81.568627%,10.980392%,22.745098%);fill-opacity:1;" d="M 15 11.25 C 15 12.171875 14.253906 12.917969 13.332031 12.917969 L 1.667969 12.917969 C 0.746094 12.917969 0 12.171875 0 11.25 L 0 3.75 C 0 2.828125 0.746094 2.082031 1.667969 2.082031 L 13.332031 2.082031 C 14.253906 2.082031 15 2.828125 15 3.75 Z M 15 11.25 "/>
<path style=" stroke:none;fill-rule:nonzero;fill:rgb(0%,12.54902%,65.882353%);fill-opacity:1;" d="M 1.667969 2.082031 C 0.746094 2.082031 0 2.828125 0 3.75 L 0 11.25 C 0 12.171875 0.746094 12.917969 1.667969 12.917969 L 5 12.917969 L 5 2.082031 Z M 1.667969 2.082031 "/>
<path style=" stroke:none;fill-rule:nonzero;fill:rgb(99.607843%,87.45098%,0%);fill-opacity:1;" d="M 5 2.082031 L 10 2.082031 L 10 12.917969 L 5 12.917969 Z M 5 2.082031 "/>
<path style=" stroke:none;fill-rule:nonzero;fill:rgb(78.039216%,70.196078%,49.803922%);fill-opacity:1;" d="M 9.597656 8.183594 C 9.53125 7.988281 9.363281 8.023438 9.363281 8.089844 C 9.363281 8.089844 9.140625 7.925781 9.308594 7.628906 C 9.308594 7.628906 9.632812 7.667969 9.449219 7.414062 C 9.449219 7.414062 9.726562 7.257812 9.738281 6.929688 C 9.746094 6.601562 9.371094 6.394531 9.214844 6.527344 C 9.214844 6.527344 9.203125 6.394531 9.136719 6.394531 C 9.074219 6.394531 9.035156 6.480469 9.035156 6.480469 C 9.035156 6.480469 9.046875 6.265625 9.183594 6.140625 C 9.324219 6.019531 9.617188 5.691406 9.007812 5.503906 C 8.398438 5.320312 8.371094 5.703125 8.464844 5.785156 C 8.464844 5.785156 8.3125 5.871094 8.144531 5.863281 C 7.976562 5.851562 8.097656 5.65625 8.136719 5.570312 C 8.171875 5.488281 8.144531 5.1875 7.9375 5.199219 C 7.734375 5.207031 7.722656 5.292969 7.648438 5.320312 C 7.574219 5.347656 7.5 5.328125 7.5 5.328125 C 7.5 5.328125 7.425781 5.347656 7.351562 5.316406 C 7.277344 5.289062 7.265625 5.207031 7.058594 5.195312 C 6.855469 5.1875 6.824219 5.488281 6.863281 5.570312 C 6.902344 5.65625 7.023438 5.851562 6.855469 5.859375 C 6.683594 5.871094 6.535156 5.785156 6.535156 5.785156 C 6.628906 5.703125 6.601562 5.316406 5.992188 5.503906 C 5.382812 5.691406 5.675781 6.019531 5.816406 6.140625 C 5.953125 6.261719 5.964844 6.480469 5.964844 6.480469 C 5.964844 6.480469 5.925781 6.394531 5.859375 6.394531 C 5.796875 6.394531 5.785156 6.527344 5.785156 6.527344 C 5.628906 6.394531 5.253906 6.601562 5.261719 6.929688 C 5.273438 7.253906 5.550781 7.414062 5.550781 7.414062 C 5.363281 7.667969 5.691406 7.628906 5.691406 7.628906 C 5.859375 7.925781 5.636719 8.089844 5.636719 8.089844 C 5.636719 8.023438 5.46875 7.984375 5.402344 8.183594 C 5.335938 8.378906 5.535156 8.445312 5.535156 8.445312 C 5.269531 8.78125 5.441406 9.101562 5.691406 9.289062 C 5.945312 9.472656 6.433594 9.445312 6.675781 9.464844 C 6.917969 9.484375 6.964844 9.605469 6.964844 9.605469 C 6.777344 9.785156 7.058594 9.925781 7.058594 9.925781 C 7.117188 10.113281 7.339844 9.90625 7.339844 9.90625 L 7.5 10.046875 L 7.660156 9.90625 C 7.660156 9.90625 7.882812 10.113281 7.941406 9.925781 C 7.941406 9.925781 8.222656 9.785156 8.035156 9.605469 C 8.035156 9.605469 8.082031 9.484375 8.324219 9.464844 C 8.566406 9.449219 9.054688 9.476562 9.308594 9.289062 C 9.558594 9.101562 9.726562 8.78125 9.464844 8.445312 C 9.464844 8.445312 9.664062 8.378906 9.597656 8.183594 Z M 9.597656 8.183594 "/>
<path style=" stroke:none;fill-rule:nonzero;fill:rgb(81.568627%,10.980392%,22.745098%);fill-opacity:1;" d="M 7.425781 7.351562 L 7.425781 6.113281 L 6.1875 6.113281 L 6.1875 7.351562 Z M 7.425781 7.351562 "/>
<path style=" stroke:none;fill-rule:nonzero;fill:rgb(99.607843%,87.45098%,0%);fill-opacity:1;" d="M 6.640625 6.878906 L 6.269531 7.257812 L 6.328125 7.320312 L 6.640625 6.980469 Z M 7.242188 6.394531 C 7.242188 6.394531 7.40625 6.4375 7.40625 6.292969 C 7.40625 6.148438 7.308594 6.148438 7.277344 6.148438 C 7.242188 6.148438 7.09375 6.171875 7.089844 6.230469 C 7.082031 6.292969 7.148438 6.328125 7.113281 6.363281 C 7.078125 6.394531 6.988281 6.476562 6.988281 6.476562 L 7.042969 6.542969 C 7.042969 6.542969 7.121094 6.476562 7.183594 6.386719 C 7.214844 6.339844 7.1875 6.226562 7.21875 6.222656 C 7.308594 6.203125 7.339844 6.246094 7.335938 6.277344 C 7.332031 6.3125 7.277344 6.34375 7.277344 6.34375 Z M 7.242188 6.394531 "/>
<path style=" stroke:none;fill-rule:nonzero;fill:rgb(100%,100%,100%);fill-opacity:1;" d="M 6.9375 7.046875 C 6.9375 7.046875 6.960938 7.21875 7.046875 7.226562 C 7.128906 7.238281 7.160156 6.960938 7.296875 6.960938 C 7.433594 6.960938 7.449219 7.199219 7.296875 7.238281 L 7.277344 7.167969 C 7.277344 7.167969 7.375 7.070312 7.304688 7.054688 C 7.234375 7.042969 7.199219 7.128906 7.191406 7.167969 C 7.183594 7.207031 7.125 7.304688 7.042969 7.304688 C 6.902344 7.304688 6.882812 7.175781 6.859375 7.074219 C 6.839844 6.976562 6.9375 7.046875 6.9375 7.046875 Z M 6.6875 7.046875 C 6.6875 7.046875 6.664062 7.21875 6.582031 7.226562 C 6.496094 7.238281 6.46875 6.960938 6.328125 6.960938 C 6.191406 6.960938 6.175781 7.199219 6.328125 7.238281 L 6.351562 7.167969 C 6.351562 7.167969 6.253906 7.070312 6.324219 7.054688 C 6.394531 7.042969 6.425781 7.128906 6.433594 7.167969 C 6.445312 7.207031 6.5 7.304688 6.585938 7.304688 C 6.726562 7.304688 6.742188 7.175781 6.765625 7.074219 C 6.785156 6.976562 6.6875 7.046875 6.6875 7.046875 Z M 6.6875 7.046875 "/>
<path style=" stroke:none;fill-rule:nonzero;fill:rgb(100%,100%,100%);fill-opacity:1;" d="M 6.832031 6.164062 L 7.191406 6.625 L 7.011719 7.117188 C 7.011719 7.117188 6.9375 7.074219 6.832031 7.074219 C 6.722656 7.074219 6.636719 7.117188 6.636719 7.117188 L 6.445312 6.621094 Z M 6.832031 6.164062 "/>
<path style=" stroke:none;fill-rule:nonzero;fill:rgb(99.607843%,87.45098%,0%);fill-opacity:1;" d="M 6.859375 6.324219 L 7.113281 6.628906 L 6.984375 7.011719 L 6.863281 6.976562 Z M 6.777344 6.324219 L 6.527344 6.628906 L 6.652344 7.011719 L 6.777344 6.976562 Z M 6.1875 7.460938 L 6.1875 8.230469 C 6.1875 8.734375 6.558594 8.804688 6.875 8.734375 C 7.132812 8.679688 7.425781 8.734375 7.425781 8.734375 L 7.425781 7.460938 Z M 6.1875 7.460938 "/>
<path style=" stroke:none;fill-rule:nonzero;fill:rgb(81.568627%,10.980392%,22.745098%);fill-opacity:1;" d="M 6.875 8.734375 L 6.902344 8.730469 L 6.902344 7.460938 L 6.714844 7.460938 L 6.714844 8.757812 C 6.769531 8.753906 6.824219 8.746094 6.875 8.734375 Z M 7.277344 8.71875 L 7.277344 7.460938 L 7.089844 7.460938 L 7.089844 8.710938 C 7.15625 8.710938 7.222656 8.710938 7.277344 8.71875 Z M 6.527344 8.742188 L 6.527344 7.460938 L 6.339844 7.460938 L 6.339844 8.644531 C 6.390625 8.695312 6.457031 8.726562 6.527344 8.742188 Z M 6.527344 8.742188 "/>
<path style=" stroke:none;fill-rule:nonzero;fill:rgb(99.607843%,87.45098%,0%);fill-opacity:1;" d="M 7.574219 7.351562 L 7.574219 6.113281 L 8.8125 6.113281 L 8.8125 7.351562 Z M 7.574219 7.351562 "/>
<path style=" stroke:none;fill-rule:nonzero;fill:rgb(81.568627%,10.980392%,22.745098%);fill-opacity:1;" d="M 7.722656 6.113281 L 7.910156 6.113281 L 7.910156 7.351562 L 7.722656 7.351562 Z M 8.097656 6.113281 L 8.285156 6.113281 L 8.285156 7.351562 L 8.097656 7.351562 Z M 8.472656 6.113281 L 8.660156 6.113281 L 8.660156 7.351562 L 8.472656 7.351562 Z M 8.472656 6.113281 "/>
<path style=" stroke:none;fill-rule:nonzero;fill:rgb(99.607843%,87.45098%,0%);fill-opacity:1;" d="M 8.8125 7.460938 L 8.8125 8.230469 C 8.8125 8.734375 8.441406 8.804688 8.125 8.734375 C 7.867188 8.679688 7.574219 8.734375 7.574219 8.734375 L 7.574219 7.460938 Z M 8.8125 7.460938 "/>
<path style=" stroke:none;fill-rule:nonzero;fill:rgb(81.568627%,10.980392%,22.745098%);fill-opacity:1;" d="M 7.761719 7.667969 L 7.878906 7.574219 L 8.023438 7.574219 L 8.023438 7.648438 C 8.023438 7.648438 8.230469 7.648438 8.398438 7.628906 C 8.566406 7.613281 8.617188 7.738281 8.566406 7.769531 C 8.515625 7.804688 8.578125 7.929688 8.566406 7.992188 C 8.558594 8.050781 8.445312 8.140625 8.472656 8.089844 C 8.5 8.039062 8.472656 7.898438 8.472656 7.898438 C 8.472656 7.898438 8.441406 8.003906 8.414062 8.039062 C 8.382812 8.070312 8.285156 8.074219 8.324219 8.046875 C 8.359375 8.019531 8.398438 7.957031 8.367188 7.925781 C 8.332031 7.894531 8.1875 7.886719 8.179688 7.902344 C 8.171875 7.917969 8.144531 8.078125 8.128906 8.089844 C 8.109375 8.097656 8.085938 8.074219 8.097656 8.023438 C 8.113281 7.972656 8.097656 7.882812 8.097656 7.882812 C 8.097656 7.882812 8 7.878906 8.003906 7.921875 C 8.011719 7.964844 8.050781 7.980469 8.042969 8.015625 C 8.035156 8.046875 7.972656 8.089844 7.96875 8.035156 C 7.964844 7.976562 7.871094 7.941406 7.910156 7.910156 C 7.953125 7.882812 7.996094 7.839844 7.996094 7.839844 C 7.996094 7.839844 7.941406 7.828125 7.90625 7.777344 C 7.867188 7.726562 7.835938 7.730469 7.761719 7.730469 C 7.722656 7.730469 7.761719 7.667969 7.761719 7.667969 Z M 7.761719 8.230469 L 7.878906 8.136719 L 8.023438 8.136719 L 8.023438 8.210938 C 8.023438 8.210938 8.230469 8.207031 8.398438 8.191406 C 8.566406 8.175781 8.617188 8.300781 8.566406 8.332031 C 8.515625 8.367188 8.578125 8.492188 8.566406 8.554688 C 8.558594 8.613281 8.445312 8.703125 8.472656 8.652344 C 8.5 8.601562 8.472656 8.460938 8.472656 8.460938 C 8.472656 8.460938 8.441406 8.566406 8.414062 8.601562 C 8.382812 8.632812 8.285156 8.636719 8.324219 8.609375 C 8.359375 8.582031 8.398438 8.519531 8.367188 8.488281 C 8.332031 8.453125 8.1875 8.449219 8.179688 8.464844 C 8.171875 8.476562 8.144531 8.640625 8.128906 8.652344 C 8.109375 8.660156 8.085938 8.636719 8.097656 8.585938 C 8.113281 8.535156 8.097656 8.445312 8.097656 8.445312 C 8.097656 8.445312 8 8.441406 8.003906 8.484375 C 8.011719 8.523438 8.050781 8.542969 8.042969 8.578125 C 8.035156 8.609375 7.972656 8.652344 7.96875 8.59375 C 7.964844 8.539062 7.871094 8.5 7.910156 8.472656 C 7.953125 8.445312 7.996094 8.402344 7.996094 8.402344 C 7.996094 8.402344 7.941406 8.390625 7.90625 8.339844 C 7.867188 8.285156 7.835938 8.292969 7.761719 8.292969 C 7.722656 8.292969 7.761719 8.230469 7.761719 8.230469 Z M 7.761719 8.230469 "/>
<path style=" stroke:none;fill-rule:nonzero;fill:rgb(68.627451%,56.862745%,40.392157%);fill-opacity:1;" d="M 6.09375 8.828125 C 6.09375 8.84375 6.785156 9.03125 6.859375 9.046875 C 6.9375 9.058594 6.910156 9.21875 6.808594 9.207031 C 6.703125 9.199219 6.195312 9.085938 6.128906 9.054688 C 6.0625 9.019531 6.09375 8.828125 6.09375 8.828125 Z M 7.042969 9.0625 C 7.042969 9.0625 7.246094 9.089844 7.425781 9.097656 C 7.601562 9.105469 7.722656 9.089844 7.722656 9.089844 L 7.851562 9.261719 C 7.851562 9.261719 7.632812 9.285156 7.480469 9.285156 C 7.332031 9.285156 7.089844 9.261719 7.089844 9.261719 Z M 7.941406 9.0625 C 7.941406 9.0625 8.234375 9.007812 8.414062 8.964844 C 8.589844 8.921875 8.824219 8.839844 8.886719 8.828125 C 8.945312 8.820312 8.988281 8.929688 9.007812 8.945312 L 9.027344 8.960938 C 9.027344 8.960938 8.71875 9.105469 8.566406 9.148438 C 8.417969 9.191406 7.941406 9.253906 7.941406 9.253906 C 7.941406 9.253906 7.871094 9.074219 7.941406 9.0625 Z M 7.941406 9.0625 "/>
</g>
</svg>
