<?xml version="1.0" encoding="UTF-8"?>
<svg xmlns="http://www.w3.org/2000/svg" xmlns:xlink="http://www.w3.org/1999/xlink" width="15pt" height="15pt" viewBox="0 0 15 15" version="1.1">
<g id="surface1">
<path style=" stroke:none;fill-rule:nonzero;fill:rgb(0%,14.117647%,49.019608%);fill-opacity:1;" d="M 13.332031 2.082031 L 1.667969 2.082031 C 1.582031 2.082031 1.496094 2.089844 1.414062 2.101562 L 1.414062 2.832031 L 0.277344 2.832031 C 0.101562 3.09375 0 3.410156 0 3.75 L 0 11.25 C 0 12.171875 0.746094 12.917969 1.667969 12.917969 L 13.332031 12.917969 C 14.253906 12.917969 15 12.171875 15 11.25 L 15 3.75 C 15 2.828125 14.253906 2.082031 13.332031 2.082031 Z M 13.332031 2.082031 "/>
<path style=" stroke:none;fill-rule:nonzero;fill:rgb(80.392157%,67.843137%,34.117647%);fill-opacity:1;" d="M 11.105469 4.167969 C 11.050781 4.125 10.964844 4.070312 10.839844 3.996094 C 10.714844 3.925781 10.691406 3.777344 10.75 3.664062 C 10.808594 3.554688 10.945312 3.515625 10.910156 3.621094 C 10.878906 3.722656 10.839844 3.851562 10.910156 3.863281 C 10.984375 3.875 10.964844 3.722656 11.027344 3.730469 C 11.09375 3.738281 10.964844 3.972656 11.027344 3.976562 C 11.09375 3.984375 11.074219 3.769531 11.144531 3.796875 C 11.214844 3.820312 11.203125 4.011719 11.144531 4.023438 C 11.085938 4.035156 11.152344 4.121094 11.195312 4.167969 C 11.238281 4.210938 11.164062 4.210938 11.105469 4.167969 Z M 11.441406 4.167969 C 11.496094 4.125 11.582031 4.070312 11.707031 3.996094 C 11.832031 3.925781 11.855469 3.777344 11.796875 3.664062 C 11.738281 3.554688 11.601562 3.515625 11.632812 3.621094 C 11.667969 3.722656 11.703125 3.851562 11.632812 3.863281 C 11.5625 3.875 11.582031 3.722656 11.519531 3.730469 C 11.453125 3.738281 11.582031 3.972656 11.519531 3.976562 C 11.453125 3.984375 11.472656 3.769531 11.402344 3.796875 C 11.328125 3.820312 11.34375 4.011719 11.402344 4.023438 C 11.460938 4.035156 11.394531 4.121094 11.351562 4.167969 C 11.308594 4.210938 11.382812 4.210938 11.441406 4.167969 Z M 11.441406 4.167969 "/>
<path style=" stroke:none;fill-rule:nonzero;fill:rgb(57.254902%,24.705882%,0%);fill-opacity:1;" d="M 11.214844 4.53125 C 11.253906 4.386719 11.207031 4.246094 11.09375 4.289062 C 10.980469 4.332031 10.875 4.261719 10.894531 4.226562 C 10.910156 4.191406 11.042969 4.089844 11.214844 4.089844 C 11.390625 4.089844 11.613281 4.183594 11.597656 4.226562 C 11.578125 4.269531 11.390625 4.308594 11.390625 4.308594 C 11.390625 4.308594 11.414062 4.480469 11.734375 4.480469 C 12.058594 4.480469 12.328125 4.558594 12.265625 4.949219 C 12.207031 5.339844 12.1875 5.390625 12.136719 5.375 C 12.085938 5.355469 12.074219 5.226562 12.101562 5.113281 C 12.128906 5 12.058594 4.84375 12.023438 4.957031 C 11.988281 5.070312 11.917969 5.285156 11.832031 5.304688 C 11.746094 5.320312 11.867188 4.972656 11.859375 4.894531 C 11.847656 4.816406 11.648438 4.835938 11.640625 4.957031 C 11.632812 5.078125 11.65625 5.277344 11.582031 5.328125 C 11.511719 5.382812 11.5 5.207031 11.511719 5.085938 C 11.519531 4.964844 11.433594 4.773438 11.421875 4.941406 C 11.414062 5.105469 11.40625 5.3125 11.328125 5.339844 C 11.25 5.363281 11.328125 5.140625 11.300781 5 C 11.277344 4.863281 11.171875 4.695312 11.214844 4.53125 Z M 11.214844 4.53125 "/>
<path style=" stroke:none;fill-rule:nonzero;fill:rgb(100%,100%,100%);fill-opacity:1;" d="M 11.464844 6.503906 C 11.355469 6.609375 10.9375 6.84375 10.773438 6.457031 C 11.164062 6.613281 11.394531 6.277344 11.394531 6.277344 Z M 10.890625 5.578125 C 10.71875 5.046875 10.332031 5 10.332031 5 C 10.332031 5 10.3125 5.167969 10.398438 5.289062 C 10.117188 5.265625 9.84375 5.136719 9.84375 5.136719 C 9.765625 5.359375 10.234375 5.59375 10.519531 5.578125 C 10.382812 5.714844 10.515625 5.832031 10.644531 5.855469 C 10.578125 5.695312 10.789062 5.589844 10.832031 5.714844 C 10.878906 5.839844 10.890625 5.578125 10.890625 5.578125 Z M 10.890625 5.578125 "/>
<path style=" stroke:none;fill-rule:nonzero;fill:rgb(8.235294%,0%,100%);fill-opacity:1;" d="M 10.964844 6.5 C 10.613281 6.535156 10.363281 5.996094 10.363281 5.835938 C 10.574219 5.898438 10.742188 6.042969 10.742188 6.042969 C 10.742188 6.042969 10.796875 5.566406 10.839844 5.449219 C 11.015625 5.578125 11.0625 5.945312 11.003906 6.113281 C 11.195312 6.121094 11.230469 6.28125 11.171875 6.402344 C 11.082031 6.269531 10.984375 6.394531 10.964844 6.5 Z M 10.964844 6.5 "/>
<path style=" stroke:none;fill-rule:nonzero;fill:rgb(100%,100%,100%);fill-opacity:1;" d="M 11.976562 6.503906 C 12.089844 6.609375 12.503906 6.84375 12.667969 6.457031 C 12.277344 6.613281 12.046875 6.277344 12.046875 6.277344 Z M 12.550781 5.578125 C 12.722656 5.046875 13.109375 5 13.109375 5 C 13.109375 5 13.128906 5.167969 13.046875 5.289062 C 13.324219 5.265625 13.597656 5.136719 13.597656 5.136719 C 13.675781 5.359375 13.207031 5.59375 12.921875 5.578125 C 13.058594 5.714844 12.929688 5.832031 12.796875 5.855469 C 12.863281 5.695312 12.652344 5.589844 12.609375 5.714844 C 12.5625 5.839844 12.550781 5.578125 12.550781 5.578125 Z M 12.550781 5.578125 "/>
<path style=" stroke:none;fill-rule:nonzero;fill:rgb(8.235294%,0%,100%);fill-opacity:1;" d="M 12.480469 6.5 C 12.828125 6.535156 13.078125 5.996094 13.078125 5.835938 C 12.871094 5.898438 12.699219 6.042969 12.699219 6.042969 C 12.699219 6.042969 12.644531 5.566406 12.601562 5.449219 C 12.425781 5.578125 12.382812 5.945312 12.441406 6.113281 C 12.25 6.121094 12.210938 6.28125 12.269531 6.402344 C 12.359375 6.269531 12.457031 6.394531 12.480469 6.5 Z M 12.480469 6.5 "/>
<path style=" stroke:none;fill-rule:nonzero;fill:rgb(39.607843%,38.431373%,38.823529%);fill-opacity:1;" d="M 11.75 7.253906 C 11.210938 7.253906 11.023438 7.003906 11.074219 6.835938 C 11.125 6.667969 11.308594 6.757812 11.367188 6.710938 C 11.425781 6.667969 11.425781 6.367188 11.289062 6.230469 C 11.152344 6.09375 11.066406 5.949219 11.125 5.878906 C 11.046875 5.75 11.171875 5.691406 11.207031 5.539062 C 11.242188 5.390625 11.28125 5.25 11.339844 5.234375 C 11.394531 5.21875 11.425781 5.359375 11.445312 5.332031 C 11.464844 5.304688 11.484375 5.1875 11.582031 5.183594 C 11.679688 5.175781 11.664062 5.28125 11.699219 5.304688 C 11.730469 5.332031 11.757812 5.183594 11.847656 5.183594 C 11.9375 5.179688 11.964844 5.304688 12.003906 5.3125 C 12.042969 5.320312 12.054688 5.21875 12.132812 5.234375 C 12.210938 5.25 12.1875 5.449219 12.238281 5.535156 C 12.289062 5.617188 12.402344 5.78125 12.335938 5.878906 C 12.425781 5.945312 12.328125 6.0625 12.21875 6.144531 C 12.109375 6.230469 11.976562 6.4375 12.054688 6.671875 C 12.128906 6.828125 12.402344 6.667969 12.464844 6.765625 C 12.53125 6.863281 12.507812 7.253906 11.75 7.253906 Z M 11.75 7.253906 "/>
<path style=" stroke:none;fill-rule:nonzero;fill:rgb(100%,100%,100%);fill-opacity:1;" d="M 11.066406 5.789062 C 11.066406 5.632812 11.484375 5.578125 11.71875 5.578125 C 11.953125 5.578125 12.382812 5.632812 12.382812 5.789062 C 12.382812 5.941406 12.054688 5.789062 11.722656 5.789062 C 11.394531 5.789062 11.066406 5.9375 11.066406 5.789062 Z M 11.066406 5.789062 "/>
<path style=" stroke:none;fill-rule:nonzero;fill:rgb(8.235294%,0%,100%);fill-opacity:1;" d="M 11.496094 5.59375 C 11.421875 5.601562 11.347656 5.613281 11.28125 5.632812 C 11.261719 5.703125 11.273438 5.777344 11.3125 5.835938 C 11.375 5.828125 11.445312 5.8125 11.519531 5.804688 C 11.476562 5.753906 11.460938 5.675781 11.496094 5.59375 Z M 11.699219 5.578125 L 11.699219 5.789062 C 11.707031 5.789062 11.714844 5.789062 11.722656 5.789062 C 11.804688 5.789062 11.882812 5.796875 11.960938 5.808594 C 11.984375 5.78125 12 5.753906 12 5.71875 C 12 5.667969 11.96875 5.625 11.929688 5.589844 C 11.851562 5.582031 11.707031 5.578125 11.699219 5.578125 Z M 12.101562 5.832031 C 12.265625 5.863281 12.382812 5.878906 12.382812 5.789062 C 12.382812 5.707031 12.265625 5.652344 12.117188 5.621094 C 12.140625 5.652344 12.160156 5.683594 12.160156 5.71875 C 12.160156 5.765625 12.132812 5.804688 12.101562 5.832031 Z M 12.101562 5.832031 "/>
<path style=" stroke:none;fill-rule:nonzero;fill:rgb(67.843137%,69.019608%,69.803922%);fill-opacity:1;" d="M 11.109375 5.953125 C 11.125 5.878906 11.722656 6.289062 11.722656 6.289062 C 11.722656 6.289062 12.359375 5.847656 12.363281 5.90625 C 12.371094 5.96875 11.722656 6.398438 11.722656 6.398438 C 11.722656 6.398438 11.09375 6.027344 11.109375 5.953125 Z M 11.109375 5.953125 "/>
<path style=" stroke:none;fill-rule:nonzero;fill:rgb(41.568627%,29.803922%,17.647059%);fill-opacity:1;" d="M 11.121094 7.683594 C 10.832031 7.957031 9.6875 8.945312 9.621094 9.152344 C 9.558594 9.363281 9.695312 9.414062 9.894531 9.277344 C 9.824219 9.441406 9.914062 9.503906 9.960938 9.511719 C 10.007812 9.519531 10.195312 9.453125 10.273438 9.285156 C 10.359375 9.421875 10.574219 9.441406 10.613281 9.414062 C 10.652344 9.386719 10.671875 9.34375 10.671875 9.34375 C 10.671875 9.34375 10.707031 9.539062 10.78125 9.511719 C 10.851562 9.484375 10.917969 9.382812 10.964844 9.386719 C 11.007812 9.394531 10.960938 9.484375 11.066406 9.480469 C 11.171875 9.472656 11.214844 9.425781 11.273438 9.367188 C 11.328125 9.308594 11.417969 9.394531 11.464844 9.378906 C 11.511719 9.367188 11.554688 9.089844 11.628906 8.886719 C 11.699219 8.683594 11.121094 7.683594 11.121094 7.683594 Z M 11.121094 7.683594 "/>
<path style=" stroke:none;fill-rule:nonzero;fill:rgb(100%,100%,100%);fill-opacity:1;" d="M 12.160156 8.699219 C 12.351562 8.742188 12.566406 8.6875 12.667969 8.75 C 12.769531 8.8125 12.847656 8.863281 12.996094 8.871094 C 13.140625 8.878906 13.421875 8.75 13.480469 8.871094 C 13.542969 8.992188 13.621094 9.167969 13.699219 9.191406 C 13.777344 9.21875 14.070312 9.3125 13.777344 9.332031 C 13.480469 9.347656 12.820312 9.332031 12.820312 9.332031 L 12.902344 9.4375 L 12.324219 9.472656 C 12.324219 9.472656 11.984375 9.175781 12 8.96875 C 12.015625 8.757812 12.160156 8.699219 12.160156 8.699219 Z M 12.160156 8.699219 "/>
<path style=" stroke:none;fill-rule:nonzero;fill:rgb(0%,44.313725%,23.921569%);fill-opacity:1;" d="M 11.464844 8.699219 C 11.230469 8.839844 11.339844 9.019531 11.339844 9.019531 C 11.339844 9.019531 11.378906 9.261719 11.394531 9.234375 C 11.414062 9.210938 11.519531 9.125 11.519531 9.125 C 11.519531 9.125 11.503906 9.316406 11.503906 9.308594 C 11.507812 9.300781 11.632812 9.308594 11.632812 9.308594 C 11.632812 9.308594 11.679688 9.480469 11.699219 9.515625 C 11.71875 9.546875 11.828125 9.4375 11.828125 9.4375 C 11.828125 9.4375 11.933594 9.503906 11.976562 9.519531 C 12.023438 9.539062 12.039062 9.402344 12.039062 9.402344 C 12.039062 9.402344 12.164062 9.558594 12.242188 9.515625 C 12.320312 9.472656 12.421875 9.339844 12.421875 9.339844 L 12.273438 9.210938 C 12.273438 9.210938 12.300781 9.175781 12.273438 9.109375 C 12.25 9.046875 12.152344 9.019531 12.152344 9.019531 C 12.152344 9.019531 12.25 8.949219 12.179688 8.90625 C 12.109375 8.863281 11.851562 8.464844 11.464844 8.699219 Z M 11.464844 8.699219 "/>
<path style=" stroke:none;fill-rule:nonzero;fill:rgb(100%,100%,100%);fill-opacity:1;" d="M 12.527344 7.078125 L 12.40625 7.074219 L 11.777344 7.5 L 11.148438 7.074219 L 11.042969 7.078125 L 10.988281 7.078125 L 10.988281 8 C 10.988281 8.082031 11.003906 8.207031 11.050781 8.347656 C 11.085938 8.457031 11.144531 8.578125 11.234375 8.691406 C 11.277344 8.746094 11.332031 8.796875 11.390625 8.847656 C 11.472656 8.917969 11.574219 8.980469 11.695312 9.035156 C 11.722656 9.046875 11.746094 9.0625 11.777344 9.074219 C 11.8125 9.0625 11.835938 9.046875 11.867188 9.035156 C 11.984375 8.980469 12.085938 8.917969 12.167969 8.847656 C 12.230469 8.792969 12.285156 8.738281 12.332031 8.679688 C 12.421875 8.566406 12.46875 8.441406 12.511719 8.335938 C 12.558594 8.203125 12.566406 8.078125 12.566406 8 L 12.566406 7.078125 Z M 12.527344 7.078125 "/>
<path style=" stroke:none;fill-rule:nonzero;fill:rgb(11.764706%,35.294118%,65.098039%);fill-opacity:1;" d="M 12.566406 7.46875 L 12.398438 7.246094 L 12.527344 7.078125 L 12.40625 7.074219 L 11.777344 7.5 L 11.148438 7.074219 L 11.042969 7.078125 L 11.175781 7.246094 L 10.988281 7.484375 L 10.988281 7.5 L 11.167969 7.734375 L 10.988281 7.964844 L 10.988281 7.980469 L 11.160156 8.203125 L 11.050781 8.347656 C 11.085938 8.457031 11.144531 8.578125 11.234375 8.691406 L 11.394531 8.480469 L 11.535156 8.660156 L 11.390625 8.847656 C 11.472656 8.917969 11.574219 8.980469 11.695312 9.035156 L 11.78125 8.921875 L 11.867188 9.03125 C 11.984375 8.980469 12.085938 8.917969 12.167969 8.847656 L 12.027344 8.660156 L 12.171875 8.472656 L 12.332031 8.679688 C 12.421875 8.566406 12.472656 8.445312 12.511719 8.335938 L 12.410156 8.203125 L 12.566406 8 L 12.566406 7.945312 L 12.402344 7.734375 L 12.566406 7.519531 Z M 12.324219 7.734375 L 12.171875 7.933594 L 12.015625 7.734375 L 12.171875 7.53125 Z M 12.023438 8.203125 L 12.171875 8.011719 L 12.316406 8.203125 L 12.171875 8.394531 Z M 11.542969 7.734375 L 11.394531 7.925781 L 11.246094 7.734375 L 11.394531 7.539062 Z M 11.253906 8.203125 L 11.394531 8.019531 L 11.539062 8.203125 L 11.394531 8.386719 Z M 11.632812 8.660156 L 11.78125 8.46875 L 11.929688 8.660156 L 11.78125 8.855469 Z M 11.632812 8.660156 "/>
<path style=" stroke:none;fill-rule:nonzero;fill:rgb(0.392157%,42.352941%,0%);fill-opacity:1;" d="M 11.777344 7.1875 C 11.609375 7.085938 11.355469 7.074219 11.148438 7.074219 L 11.777344 8.839844 C 11.777344 8.847656 11.78125 8.847656 11.78125 8.839844 L 12.40625 7.074219 C 12.199219 7.074219 11.945312 7.085938 11.777344 7.1875 Z M 11.777344 7.1875 "/>
<path style=" stroke:none;fill-rule:nonzero;fill:rgb(54.509804%,58.039216%,59.215686%);fill-opacity:1;" d="M 9.96875 7.351562 C 9.984375 6.933594 10.050781 6.726562 10.046875 6.5625 C 10.039062 6.398438 10.183594 6.398438 10.292969 6.367188 C 10.402344 6.335938 10.457031 6.425781 10.546875 6.433594 C 10.636719 6.4375 10.691406 6.453125 10.664062 6.5625 C 10.636719 6.671875 10.554688 6.816406 10.535156 6.855469 C 10.515625 6.894531 10.644531 7.140625 10.75 7.351562 C 10.851562 7.558594 11.003906 7.824219 10.890625 8.242188 C 10.78125 8.660156 10.714844 8.808594 10.671875 8.839844 C 10.625 8.875 10.660156 8.566406 10.621094 8.425781 C 10.578125 8.28125 10.527344 8.25 10.527344 8.25 C 10.527344 8.25 10.351562 8.414062 10.285156 8.625 C 10.222656 8.835938 10.273438 8.988281 10.398438 9.074219 C 10.523438 9.160156 10.800781 9.210938 10.847656 9.238281 C 10.890625 9.265625 10.753906 9.324219 10.566406 9.308594 C 10.378906 9.296875 9.933594 9.136719 9.765625 8.960938 C 9.597656 8.78125 9.367188 8.492188 9.5 8.171875 C 9.570312 7.996094 9.707031 7.9375 9.753906 7.878906 C 9.796875 7.820312 9.964844 7.476562 9.96875 7.351562 Z M 9.96875 7.351562 "/>
<path style=" stroke:none;fill-rule:nonzero;fill:rgb(100%,100%,100%);fill-opacity:1;" d="M 13.136719 6.5 C 13.28125 6.480469 13.632812 7.390625 13.671875 7.78125 C 13.710938 8.171875 13.703125 8.875 13.46875 8.898438 C 13.234375 8.925781 13.023438 8.835938 12.953125 8.445312 C 12.878906 8.054688 12.933594 7.753906 12.953125 7.5 C 12.96875 7.246094 12.929688 6.53125 13.136719 6.5 Z M 13.136719 6.5 "/>
<path style=" stroke:none;fill-rule:nonzero;fill:rgb(0%,0%,0%);fill-opacity:1;" d="M 13.078125 6.5 C 13.089844 6.332031 13.25 6.277344 13.4375 6.308594 C 13.625 6.339844 13.613281 6.632812 13.605469 6.769531 C 13.601562 6.90625 13.902344 6.875 13.90625 7.609375 C 13.90625 8.347656 13.699219 8.761719 13.757812 8.867188 C 13.816406 8.972656 14.082031 9.109375 13.933594 9.132812 C 13.78125 9.160156 13.59375 9.003906 13.464844 8.957031 C 13.332031 8.914062 13.472656 8.730469 13.527344 8.507812 C 13.582031 8.289062 13.554688 8.046875 13.445312 8.078125 C 13.332031 8.105469 13.488281 8.644531 13.308594 8.625 C 13.125 8.605469 13.027344 8.203125 13.046875 7.835938 C 13.066406 7.46875 13.136719 7.441406 13.242188 7.324219 C 13.347656 7.207031 13.28125 7.15625 13.171875 7.03125 C 13.058594 6.90625 13.097656 6.808594 13.214844 6.746094 C 13.332031 6.679688 13.066406 6.726562 13.078125 6.5 Z M 13.078125 6.5 "/>
<path style=" stroke:none;fill-rule:nonzero;fill:rgb(100%,100%,100%);fill-opacity:1;" d="M 12.914062 7.128906 C 12.757812 7.140625 12.597656 7.1875 12.597656 7.253906 C 12.597656 7.316406 12.589844 7.53125 12.597656 7.558594 C 12.605469 7.585938 12.820312 7.449219 12.914062 7.453125 Z M 12.914062 7.128906 "/>
<path style=" stroke:none;fill-rule:nonzero;fill:rgb(96.470588%,41.960784%,0.392157%);fill-opacity:1;" d="M 13.136719 6.5 C 13.175781 6.300781 12.8125 6.492188 12.792969 6.542969 C 12.773438 6.59375 13.097656 6.707031 13.136719 6.5 Z M 13.136719 6.5 "/>
<path style=" stroke:none;fill-rule:nonzero;fill:rgb(97.254902%,94.117647%,0.392157%);fill-opacity:1;" d="M 13.25 6.398438 C 13.269531 6.339844 13.703125 6.269531 13.777344 6.277344 C 13.847656 6.28125 13.84375 6.265625 13.824219 6.300781 C 13.816406 6.3125 13.609375 6.339844 13.605469 6.359375 C 13.601562 6.394531 13.789062 6.375 13.820312 6.398438 C 13.84375 6.417969 13.613281 6.414062 13.652344 6.445312 C 13.703125 6.484375 13.902344 6.570312 13.84375 6.550781 C 13.742188 6.511719 13.214844 6.496094 13.25 6.398438 Z M 13.25 6.398438 "/>
<path style=" stroke:none;fill-rule:nonzero;fill:rgb(96.470588%,41.960784%,0.392157%);fill-opacity:1;" d="M 13.179688 8.847656 C 13.082031 8.863281 12.78125 8.84375 12.882812 8.902344 C 12.988281 8.964844 13.019531 8.972656 13.019531 8.972656 C 13.019531 8.972656 12.832031 9.039062 12.914062 9.074219 C 12.996094 9.109375 13.179688 9.085938 13.300781 9.085938 C 13.425781 9.082031 13.515625 9.011719 13.464844 8.957031 C 13.414062 8.902344 13.324219 8.820312 13.179688 8.847656 Z M 13.179688 8.847656 "/>
<path style=" stroke:none;fill-rule:nonzero;fill:rgb(75.686275%,8.627451%,0%);fill-opacity:1;" d="M 10.4375 10.449219 C 10.671875 10.496094 10.980469 10.59375 10.980469 10.59375 L 10.941406 11.015625 C 10.941406 11.015625 10.84375 10.871094 10.328125 10.78125 C 10.269531 10.613281 10.4375 10.449219 10.4375 10.449219 Z M 10.515625 9.738281 C 10.515625 9.738281 10.523438 9.875 10.339844 10.03125 C 10.160156 10.1875 9.949219 10.175781 9.964844 10 C 10.140625 9.953125 10.09375 9.605469 10.238281 9.5625 C 10.222656 9.707031 10.28125 9.804688 10.515625 9.738281 Z M 13.214844 10.449219 C 12.980469 10.496094 12.671875 10.59375 12.671875 10.59375 L 12.714844 11.015625 C 12.714844 11.015625 12.808594 10.871094 13.324219 10.78125 C 13.382812 10.613281 13.214844 10.449219 13.214844 10.449219 Z M 13.214844 10.449219 "/>
<path style=" stroke:none;fill-rule:nonzero;fill:rgb(100%,73.72549%,0%);fill-opacity:1;" d="M 13.109375 10.078125 C 13.257812 9.914062 13.363281 9.921875 13.441406 9.765625 C 13.519531 9.609375 13.402344 9.484375 13.203125 9.523438 C 13 9.558594 12.792969 9.882812 12.792969 9.882812 C 12.792969 9.882812 12.40625 9.65625 11.828125 9.65625 C 11.246094 9.65625 10.863281 9.882812 10.863281 9.882812 C 10.863281 9.882812 10.652344 9.558594 10.453125 9.523438 C 10.25 9.484375 10.132812 9.609375 10.210938 9.765625 C 10.289062 9.921875 10.394531 9.914062 10.542969 10.078125 C 10.304688 10.242188 10.109375 10.566406 10.109375 10.566406 L 10.328125 10.78125 C 10.328125 10.78125 10.453125 10.574219 10.714844 10.359375 C 10.941406 10.617188 10.941406 11.015625 10.941406 11.015625 C 10.941406 11.015625 11.007812 10.734375 11.113281 10.644531 C 11.109375 10.390625 11.039062 10.203125 11.039062 10.203125 C 11.039062 10.203125 11.378906 9.992188 11.828125 9.992188 C 12.277344 9.992188 12.617188 10.203125 12.617188 10.203125 C 12.617188 10.203125 12.542969 10.390625 12.539062 10.644531 C 12.644531 10.734375 12.714844 11.015625 12.714844 11.015625 C 12.714844 11.015625 12.714844 10.617188 12.941406 10.359375 C 13.203125 10.574219 13.324219 10.78125 13.324219 10.78125 L 13.546875 10.566406 C 13.546875 10.566406 13.351562 10.242188 13.109375 10.078125 Z M 13.109375 10.078125 "/>
<path style=" stroke:none;fill-rule:nonzero;fill:rgb(75.686275%,8.627451%,0%);fill-opacity:1;" d="M 13.136719 9.738281 C 13.136719 9.738281 13.128906 9.875 13.3125 10.03125 C 13.496094 10.1875 13.703125 10.175781 13.6875 10 C 13.511719 9.953125 13.558594 9.605469 13.414062 9.5625 C 13.429688 9.707031 13.371094 9.804688 13.136719 9.738281 Z M 13.136719 9.738281 "/>
<path style=" stroke:none;fill-rule:nonzero;fill:rgb(0%,14.117647%,49.019608%);fill-opacity:1;" d="M 7.917969 7.5 L 7.917969 2.082031 L 1.667969 2.082031 C 1.535156 2.082031 1.414062 2.101562 1.414062 2.101562 L 1.414062 2.832031 L 0.277344 2.832031 C 0.277344 2.832031 0.257812 2.855469 0.222656 2.917969 C 0.0820312 3.160156 0 3.445312 0 3.75 L 0 7.5 Z M 7.917969 7.5 "/>
<path style=" stroke:none;fill-rule:nonzero;fill:rgb(93.333333%,93.333333%,93.333333%);fill-opacity:1;" d="M 7.917969 2.082031 L 6.945312 2.082031 L 5 3.445312 L 5 2.082031 L 2.917969 2.082031 L 2.917969 3.152344 L 1.414062 2.101562 C 1.160156 2.140625 0.917969 2.238281 0.71875 2.378906 L 2.675781 3.75 L 1.953125 3.75 L 0.402344 2.664062 C 0.355469 2.714844 0.316406 2.773438 0.277344 2.832031 L 1.589844 3.75 L 0 3.75 L 0 5.832031 L 1.617188 5.832031 L 0 6.984375 L 0 7.5 L 1.386719 7.5 L 2.917969 6.429688 L 2.917969 7.5 L 5 7.5 L 5 6.136719 L 6.945312 7.5 L 7.917969 7.5 L 7.917969 6.65625 L 6.742188 5.832031 L 7.917969 5.832031 L 7.917969 3.75 L 6.746094 3.75 L 7.917969 2.929688 Z M 7.917969 2.082031 "/>
<path style=" stroke:none;fill-rule:nonzero;fill:rgb(81.176471%,10.588235%,16.862745%);fill-opacity:1;" d="M 4.582031 2.082031 L 3.332031 2.082031 L 3.332031 4.167969 L 0 4.167969 L 0 5.417969 L 3.332031 5.417969 L 3.332031 7.5 L 4.582031 7.5 L 4.582031 5.417969 L 7.917969 5.417969 L 7.917969 4.167969 L 4.582031 4.167969 Z M 4.582031 2.082031 "/>
<path style=" stroke:none;fill-rule:nonzero;fill:rgb(81.176471%,10.588235%,16.862745%);fill-opacity:1;" d="M 7.917969 2.082031 L 7.308594 2.082031 L 5 3.699219 L 5 3.75 L 5.65625 3.75 L 7.917969 2.164062 Z M 0.71875 2.378906 C 0.601562 2.460938 0.496094 2.554688 0.402344 2.664062 L 1.953125 3.75 L 2.675781 3.75 Z M 2.683594 5.832031 L 0.304688 7.5 L 1.027344 7.5 L 2.917969 6.175781 L 2.917969 5.832031 Z M 7.917969 7.417969 L 7.917969 6.910156 L 6.378906 5.832031 L 5.652344 5.832031 Z M 7.917969 7.417969 "/>
</g>
</svg>
