<?xml version="1.0" encoding="UTF-8"?>
<svg xmlns="http://www.w3.org/2000/svg" xmlns:xlink="http://www.w3.org/1999/xlink" width="15pt" height="15pt" viewBox="0 0 15 15" version="1.1">
<g id="surface1">
<path style=" stroke:none;fill-rule:nonzero;fill:rgb(82.745098%,17.647059%,15.294118%);fill-opacity:1;" d="M 12.917969 11.25 C 12.917969 12.171875 12.171875 12.917969 11.25 12.917969 L 3.75 12.917969 C 2.828125 12.917969 2.082031 12.171875 2.082031 11.25 L 2.082031 3.75 C 2.082031 2.828125 2.828125 2.082031 3.75 2.082031 L 11.25 2.082031 C 12.171875 2.082031 12.917969 2.828125 12.917969 3.75 Z M 12.917969 11.25 "/>
<path style=" stroke:none;fill-rule:nonzero;fill:rgb(100%,100%,100%);fill-opacity:1;" d="M 10.417969 6.691406 L 8.332031 6.691406 L 8.332031 4.609375 L 6.667969 4.609375 L 6.667969 6.691406 L 4.582031 6.691406 L 4.582031 8.332031 L 6.667969 8.332031 L 6.667969 10.441406 L 8.332031 10.441406 L 8.332031 8.332031 L 10.417969 8.332031 Z M 10.417969 6.691406 "/>
</g>
</svg>
