<?xml version="1.0" encoding="UTF-8"?>
<svg xmlns="http://www.w3.org/2000/svg" xmlns:xlink="http://www.w3.org/1999/xlink" width="15pt" height="15pt" viewBox="0 0 15 15" version="1.1">
<g id="surface1">
<path style=" stroke:none;fill-rule:nonzero;fill:rgb(0%,41.960784%,24.705882%);fill-opacity:1;" d="M 15 11.25 C 15 12.171875 14.253906 12.917969 13.332031 12.917969 L 1.667969 12.917969 C 0.746094 12.917969 0 12.171875 0 11.25 L 0 3.75 C 0 2.828125 0.746094 2.082031 1.667969 2.082031 L 13.332031 2.082031 C 14.253906 2.082031 15 2.828125 15 3.75 Z M 15 11.25 "/>
<path style=" stroke:none;fill-rule:nonzero;fill:rgb(93.333333%,93.333333%,93.333333%);fill-opacity:1;" d="M 15 6.25 L 8.75 6.25 L 8.75 2.082031 L 6.25 2.082031 L 6.25 6.25 L 0 6.25 L 0 8.75 L 6.25 8.75 L 6.25 12.917969 L 8.75 12.917969 L 8.75 8.75 L 15 8.75 Z M 15 6.25 "/>
<path style=" stroke:none;fill-rule:nonzero;fill:rgb(98.823529%,81.960784%,8.627451%);fill-opacity:1;" d="M 6.25 2.082031 L 7.082031 2.082031 L 7.082031 12.917969 L 6.25 12.917969 Z M 6.25 2.082031 "/>
<path style=" stroke:none;fill-rule:nonzero;fill:rgb(98.823529%,81.960784%,8.627451%);fill-opacity:1;" d="M 0 6.25 L 15 6.25 L 15 7.082031 L 0 7.082031 Z M 0 6.25 "/>
<path style=" stroke:none;fill-rule:nonzero;fill:rgb(7.843137%,7.843137%,7.843137%);fill-opacity:1;" d="M 7.082031 2.082031 L 7.917969 2.082031 L 7.917969 12.917969 L 7.082031 12.917969 Z M 7.082031 2.082031 "/>
<path style=" stroke:none;fill-rule:nonzero;fill:rgb(7.843137%,7.843137%,7.843137%);fill-opacity:1;" d="M 0 7.082031 L 15 7.082031 L 15 7.917969 L 0 7.917969 Z M 0 7.082031 "/>
<path style=" stroke:none;fill-rule:nonzero;fill:rgb(86.666667%,18.039216%,26.666667%);fill-opacity:1;" d="M 10 7.5 C 10 8.878906 8.878906 10 7.5 10 C 6.121094 10 5 8.878906 5 7.5 C 5 6.121094 6.121094 5 7.5 5 C 8.878906 5 10 6.121094 10 7.5 Z M 10 7.5 "/>
<path style=" stroke:none;fill-rule:nonzero;fill:rgb(0%,37.647059%,0%);fill-opacity:1;" d="M 7.5 5.265625 L 7.429688 5.484375 L 7.199219 5.484375 L 7.386719 5.621094 L 7.3125 5.839844 L 7.5 5.703125 L 7.683594 5.839844 L 7.613281 5.617188 L 7.800781 5.484375 L 7.570312 5.484375 Z M 6.214844 5.683594 L 6.289062 5.902344 L 6.101562 6.035156 L 6.332031 6.035156 L 6.402344 6.253906 L 6.472656 6.035156 L 6.703125 6.035156 L 6.515625 5.902344 L 6.589844 5.683594 L 6.402344 5.820312 Z M 5.421875 6.777344 L 5.609375 6.910156 L 5.539062 7.128906 L 5.726562 6.992188 L 5.910156 7.128906 L 5.839844 6.910156 L 6.023438 6.777344 L 5.792969 6.773438 L 5.722656 6.554688 L 5.652344 6.777344 Z M 5.421875 8.125 L 5.652344 8.125 L 5.722656 8.34375 L 5.796875 8.125 L 6.023438 8.125 L 5.839844 7.988281 L 5.910156 7.769531 L 5.722656 7.90625 L 5.539062 7.769531 L 5.609375 7.988281 Z M 6.214844 9.214844 L 6.402344 9.082031 L 6.589844 9.21875 L 6.515625 8.996094 L 6.703125 8.863281 L 6.472656 8.863281 L 6.402344 8.644531 L 6.332031 8.863281 L 6.101562 8.863281 L 6.289062 8.996094 Z M 7.5 9.632812 L 7.570312 9.414062 L 7.800781 9.414062 L 7.613281 9.277344 L 7.683594 9.0625 L 7.5 9.195312 L 7.316406 9.0625 L 7.386719 9.28125 L 7.199219 9.414062 L 7.429688 9.414062 Z M 8.785156 9.214844 L 8.710938 9 L 8.898438 8.863281 L 8.667969 8.863281 L 8.597656 8.644531 L 8.527344 8.863281 L 8.296875 8.863281 L 8.484375 9 L 8.410156 9.214844 L 8.597656 9.082031 Z M 9.578125 8.125 L 9.390625 7.988281 L 9.460938 7.769531 L 9.273438 7.90625 L 9.089844 7.769531 L 9.160156 7.988281 L 8.976562 8.125 L 9.207031 8.125 L 9.273438 8.34375 L 9.347656 8.125 Z M 9.574219 6.773438 L 9.347656 6.777344 L 9.277344 6.554688 L 9.203125 6.777344 L 8.972656 6.773438 L 9.160156 6.910156 L 9.089844 7.128906 L 9.277344 6.992188 L 9.460938 7.128906 L 9.390625 6.910156 Z M 8.78125 5.683594 L 8.597656 5.816406 L 8.410156 5.683594 L 8.484375 5.902344 L 8.296875 6.035156 L 8.527344 6.035156 L 8.597656 6.253906 L 8.667969 6.035156 L 8.898438 6.039062 L 8.710938 5.902344 Z M 8.78125 5.683594 "/>
<path style=" stroke:none;fill-rule:nonzero;fill:rgb(0%,41.176471%,24.705882%);fill-opacity:1;" d="M 8.164062 8.675781 C 8.15625 8.617188 8.140625 8.402344 8.136719 8.230469 C 8.132812 8.117188 7.925781 7.960938 7.785156 7.964844 C 7.691406 7.769531 7.417969 7.539062 7.230469 7.722656 C 7.214844 7.851562 7.246094 8.101562 7.308594 8.199219 L 7.589844 8.261719 C 7.617188 8.246094 7.648438 8.203125 7.660156 8.167969 C 7.667969 8.164062 7.671875 8.15625 7.679688 8.152344 C 7.734375 8.355469 7.839844 8.671875 7.867188 8.75 C 7.898438 8.832031 7.945312 9 8.050781 9.027344 C 8.097656 9.054688 8.160156 9.035156 8.132812 8.820312 C 8.164062 8.8125 8.171875 8.730469 8.164062 8.675781 Z M 8.164062 8.675781 "/>
<path style=" stroke:none;fill-rule:nonzero;fill:rgb(49.019608%,46.27451%,71.372549%);fill-opacity:1;" d="M 7.859375 6.566406 C 7.863281 6.609375 7.890625 6.652344 7.921875 6.679688 C 7.902344 6.695312 7.890625 6.714844 7.886719 6.734375 C 7.765625 6.835938 7.492188 7.542969 7.488281 7.695312 C 7.46875 7.78125 7.433594 7.910156 7.398438 7.96875 C 7.21875 7.804688 7.03125 7.5 7.0625 7.359375 C 7.050781 7.359375 7.035156 7.359375 7.015625 7.351562 C 7.019531 7.339844 7.027344 7.277344 7.03125 7.238281 C 7.019531 7.238281 7 7.238281 6.984375 7.234375 C 6.988281 7.210938 6.992188 7.144531 6.992188 7.113281 C 6.976562 7.109375 6.953125 7.089844 6.9375 7.070312 C 6.949219 7.039062 6.984375 6.976562 7 6.941406 C 6.972656 6.9375 6.953125 6.910156 6.945312 6.894531 C 6.96875 6.878906 6.996094 6.839844 7.007812 6.8125 C 6.988281 6.796875 6.96875 6.773438 6.964844 6.761719 C 6.988281 6.738281 7.0625 6.660156 7.09375 6.613281 C 7.074219 6.613281 7.066406 6.613281 7.050781 6.609375 C 7.078125 6.597656 7.109375 6.558594 7.144531 6.527344 C 7.203125 6.578125 7.320312 6.570312 7.378906 6.539062 C 7.480469 6.597656 7.589844 6.605469 7.730469 6.558594 C 7.757812 6.566406 7.832031 6.578125 7.859375 6.566406 Z M 7.859375 6.566406 "/>
<path style=" stroke:none;fill-rule:nonzero;fill:rgb(0%,41.176471%,24.705882%);fill-opacity:1;" d="M 8.265625 8.511719 C 8.285156 7.757812 8.160156 7.066406 7.960938 6.8125 C 7.761719 6.5625 7.398438 6.617188 7.296875 6.835938 C 7.253906 6.925781 7.246094 7.144531 7.289062 7.238281 C 7.367188 7.398438 7.65625 7.90625 7.851562 8.097656 C 8.050781 8.292969 8.191406 8.421875 8.265625 8.511719 Z M 8.265625 8.511719 "/>
<path style=" stroke:none;fill-rule:nonzero;fill:rgb(100%,83.137255%,12.54902%);fill-opacity:1;" d="M 7.96875 8.332031 C 7.910156 8.339844 7.84375 8.324219 7.789062 8.300781 C 7.734375 8.273438 7.6875 8.25 7.632812 8.25 C 7.574219 8.25 7.265625 8.226562 7.214844 8.210938 C 7.164062 8.191406 7.023438 8.167969 6.96875 8.171875 C 6.910156 8.171875 6.820312 8.214844 6.785156 8.214844 C 6.75 8.214844 6.730469 8.242188 6.730469 8.269531 C 6.730469 8.300781 6.738281 8.351562 6.78125 8.382812 C 6.855469 8.378906 6.964844 8.371094 6.976562 8.355469 C 7.082031 8.386719 7.21875 8.414062 7.304688 8.417969 C 7.390625 8.421875 7.546875 8.429688 7.601562 8.425781 C 7.660156 8.421875 7.671875 8.402344 7.746094 8.429688 C 7.820312 8.453125 7.921875 8.507812 7.96875 8.519531 C 8.011719 8.535156 8.042969 8.488281 8.050781 8.4375 C 8.0625 8.390625 8.027344 8.328125 7.96875 8.332031 Z M 7.96875 8.332031 "/>
<path style=" stroke:none;fill-rule:nonzero;fill:rgb(100%,100%,100%);fill-opacity:1;" d="M 7.199219 6.25 C 7.199219 6.25 7.195312 6.253906 7.191406 6.253906 C 7.175781 6.179688 7.101562 6.128906 7.058594 6.132812 C 6.929688 6.167969 6.9375 6.410156 7.054688 6.492188 C 7.050781 6.449219 7.066406 6.414062 7.085938 6.382812 C 7.097656 6.410156 7.117188 6.441406 7.175781 6.445312 C 7.238281 6.425781 7.21875 6.289062 7.199219 6.25 Z M 7.199219 6.25 "/>
<path style=" stroke:none;fill-rule:nonzero;fill:rgb(49.019608%,46.27451%,71.372549%);fill-opacity:1;" d="M 7.144531 6.527344 C 7.207031 6.578125 7.324219 6.570312 7.378906 6.539062 C 7.480469 6.597656 7.589844 6.605469 7.734375 6.558594 C 7.757812 6.566406 7.832031 6.578125 7.859375 6.566406 C 7.875 6.550781 7.890625 6.539062 7.90625 6.53125 C 7.875 6.503906 7.84375 6.453125 7.828125 6.40625 C 7.828125 6.40625 7.851562 6.375 7.863281 6.359375 C 7.835938 6.332031 7.785156 6.289062 7.757812 6.273438 C 7.773438 6.257812 7.789062 6.207031 7.789062 6.207031 C 7.734375 6.191406 7.683594 6.15625 7.660156 6.132812 L 7.664062 6.101562 C 7.578125 6.097656 7.582031 5.988281 7.390625 5.957031 C 7.265625 5.933594 7.070312 5.988281 7.058594 6.132812 C 7.132812 6.203125 7.242188 6.296875 7.179688 6.449219 C 7.160156 6.46875 7.132812 6.496094 7.113281 6.507812 C 7.125 6.519531 7.132812 6.519531 7.144531 6.527344 Z M 7.144531 6.527344 "/>
<path style=" stroke:none;fill-rule:nonzero;fill:rgb(100%,100%,100%);fill-opacity:1;" d="M 7.640625 8.425781 C 7.605469 8.421875 7.570312 8.382812 7.570312 8.347656 C 7.570312 8.316406 7.574219 8.253906 7.636719 8.246094 C 7.617188 8.210938 7.585938 8.203125 7.558594 8.207031 C 7.535156 8.175781 7.492188 8.167969 7.453125 8.175781 C 7.453125 8.175781 7.453125 8.171875 7.457031 8.171875 C 7.421875 8.144531 7.386719 8.148438 7.351562 8.164062 C 7.289062 8.128906 7.195312 8.175781 7.183594 8.289062 C 7.167969 8.398438 7.222656 8.476562 7.308594 8.472656 C 7.34375 8.492188 7.398438 8.472656 7.410156 8.453125 L 7.410156 8.445312 C 7.445312 8.46875 7.476562 8.46875 7.507812 8.445312 C 7.519531 8.457031 7.53125 8.464844 7.546875 8.46875 C 7.59375 8.480469 7.628906 8.441406 7.640625 8.425781 Z M 7.640625 8.425781 "/>
<path style=" stroke:none;fill-rule:nonzero;fill:rgb(100%,83.137255%,12.54902%);fill-opacity:1;" d="M 7.316406 6.078125 C 7.222656 6.078125 7.222656 6.222656 7.316406 6.222656 C 7.410156 6.222656 7.414062 6.078125 7.316406 6.078125 Z M 7.316406 6.078125 "/>
<path style=" stroke:none;fill-rule:nonzero;fill:rgb(0%,0%,0%);fill-opacity:1;" d="M 7.316406 6.132812 C 7.292969 6.132812 7.292969 6.167969 7.316406 6.167969 C 7.339844 6.167969 7.339844 6.132812 7.316406 6.132812 Z M 7.316406 6.132812 "/>
</g>
</svg>
