<?xml version="1.0" encoding="UTF-8"?>
<svg xmlns="http://www.w3.org/2000/svg" xmlns:xlink="http://www.w3.org/1999/xlink" width="15pt" height="15pt" viewBox="0 0 15 15" version="1.1">
<g id="surface1">
<path style=" stroke:none;fill-rule:nonzero;fill:rgb(0%,14.117647%,49.019608%);fill-opacity:1;" d="M 15 11.25 C 15 12.171875 14.253906 12.917969 13.332031 12.917969 L 1.667969 12.917969 C 0.746094 12.917969 0 12.171875 0 11.25 L 0 3.75 C 0 2.828125 0.746094 2.082031 1.667969 2.082031 L 13.332031 2.082031 C 14.253906 2.082031 15 2.828125 15 3.75 Z M 15 11.25 "/>
<path style=" stroke:none;fill-rule:nonzero;fill:rgb(100%,100%,100%);fill-opacity:1;" d="M 1.398438 4.644531 L 1.539062 5.101562 L 2.019531 5.101562 L 1.628906 5.378906 L 1.78125 5.832031 L 1.394531 5.546875 L 1.007812 5.832031 L 1.164062 5.375 L 0.773438 5.097656 L 1.253906 5.101562 Z M 3.375 7.5 L 3.558594 8.089844 L 4.175781 8.085938 L 3.671875 8.441406 L 3.867188 9.03125 L 3.371094 8.660156 L 2.875 9.027344 L 3.074219 8.441406 L 2.570312 8.082031 L 3.1875 8.089844 Z M 3.453125 2.714844 L 3.59375 3.175781 L 4.074219 3.171875 L 3.683594 3.449219 L 3.835938 3.90625 L 3.449219 3.617188 L 3.0625 3.902344 L 3.21875 3.449219 L 2.828125 3.167969 L 3.308594 3.175781 Z M 5.441406 4.550781 L 5.542969 4.875 L 5.882812 4.871094 L 5.605469 5.070312 L 5.714844 5.390625 L 5.441406 5.1875 L 5.167969 5.390625 L 5.277344 5.066406 L 5 4.871094 L 5.339844 4.875 Z M 5.441406 4.550781 "/>
<path style=" stroke:none;fill-rule:nonzero;fill:rgb(99.607843%,81.960784%,0%);fill-opacity:1;" d="M 13.332031 12.082031 L 2.082031 12.082031 C 2.082031 12.082031 1.972656 12.011719 1.972656 11.875 C 1.972656 11.738281 2.082031 11.667969 2.082031 11.667969 L 13.332031 11.667969 L 13.953125 11.875 Z M 2.082031 11.25 C 2.082031 11.25 4.167969 10.417969 6.667969 7.917969 C 9.167969 5.417969 10.832031 3.75 11.667969 3.332031 C 10.9375 4.0625 10.09375 9.167969 12.179688 10.832031 C 12.179688 10.832031 13.332031 11.050781 13.332031 11.25 Z M 2.082031 11.25 "/>
</g>
</svg>
