<?xml version="1.0" encoding="UTF-8"?>
<svg xmlns="http://www.w3.org/2000/svg" xmlns:xlink="http://www.w3.org/1999/xlink" width="15pt" height="15pt" viewBox="0 0 15 15" version="1.1">
<g id="surface1">
<path style=" stroke:none;fill-rule:nonzero;fill:rgb(80.784314%,6.666667%,14.901961%);fill-opacity:1;" d="M 13.332031 2.082031 L 7.917969 2.082031 L 7.917969 7.5 L 0 7.5 L 0 11.25 C 0 12.171875 0.746094 12.917969 1.667969 12.917969 L 13.332031 12.917969 C 14.253906 12.917969 15 12.171875 15 11.25 L 15 3.75 C 15 2.828125 14.253906 2.082031 13.332031 2.082031 Z M 13.332031 2.082031 "/>
<path style=" stroke:none;fill-rule:nonzero;fill:rgb(0%,16.862745%,49.803922%);fill-opacity:1;" d="M 7.917969 2.082031 L 1.667969 2.082031 C 0.746094 2.082031 0 2.828125 0 3.75 L 0 7.5 L 7.917969 7.5 Z M 3.78125 2.746094 L 3.921875 2.308594 L 4.066406 2.746094 L 4.527344 2.746094 L 4.152344 3.015625 L 4.296875 3.453125 L 3.921875 3.183594 L 3.550781 3.453125 L 3.695312 3.015625 L 3.320312 2.746094 Z M 2.640625 4.808594 L 2.269531 4.539062 L 1.894531 4.808594 L 2.039062 4.371094 L 1.667969 4.101562 L 2.125 4.101562 L 2.269531 3.664062 L 2.410156 4.101562 L 2.871094 4.101562 L 2.5 4.371094 Z M 4.390625 7.273438 L 3.921875 6.9375 L 3.457031 7.273438 L 3.636719 6.726562 L 3.171875 6.390625 L 3.746094 6.390625 L 3.921875 5.84375 L 4.101562 6.390625 L 4.675781 6.390625 L 4.210938 6.726562 Z M 4.984375 5.542969 L 4.75 5.375 L 4.519531 5.542969 L 4.609375 5.269531 L 4.375 5.101562 L 4.664062 5.101562 L 4.75 4.828125 L 4.839844 5.101562 L 5.128906 5.101562 L 4.894531 5.269531 Z M 5.964844 4.511719 L 5.617188 4.257812 L 5.265625 4.511719 L 5.402344 4.101562 L 5.050781 3.847656 L 5.484375 3.847656 L 5.617188 3.4375 L 5.75 3.847656 L 6.179688 3.847656 L 5.832031 4.101562 Z M 5.964844 4.511719 "/>
<path style=" stroke:none;fill-rule:nonzero;fill:rgb(100%,100%,100%);fill-opacity:1;" d="M 3.550781 3.453125 L 3.921875 3.183594 L 4.296875 3.453125 L 4.152344 3.015625 L 4.527344 2.746094 L 4.066406 2.746094 L 3.921875 2.308594 L 3.78125 2.746094 L 3.320312 2.746094 L 3.695312 3.015625 Z M 2.410156 4.101562 L 2.269531 3.664062 L 2.125 4.101562 L 1.667969 4.101562 L 2.039062 4.371094 L 1.898438 4.808594 L 2.269531 4.539062 L 2.640625 4.808594 L 2.5 4.371094 L 2.871094 4.101562 Z M 5.75 3.847656 L 5.617188 3.4375 L 5.484375 3.847656 L 5.050781 3.847656 L 5.402344 4.101562 L 5.265625 4.511719 L 5.617188 4.257812 L 5.964844 4.511719 L 5.832031 4.101562 L 6.179688 3.847656 Z M 4.839844 5.101562 L 4.75 4.828125 L 4.664062 5.101562 L 4.375 5.101562 L 4.609375 5.269531 L 4.519531 5.542969 L 4.75 5.375 L 4.984375 5.542969 L 4.894531 5.269531 L 5.128906 5.101562 Z M 4.101562 6.390625 L 3.921875 5.84375 L 3.746094 6.390625 L 3.171875 6.390625 L 3.636719 6.726562 L 3.457031 7.273438 L 3.921875 6.9375 L 4.390625 7.273438 L 4.210938 6.726562 L 4.675781 6.390625 Z M 4.101562 6.390625 "/>
</g>
</svg>
