<?xml version="1.0" encoding="UTF-8"?>
<svg xmlns="http://www.w3.org/2000/svg" xmlns:xlink="http://www.w3.org/1999/xlink" width="15pt" height="15pt" viewBox="0 0 15 15" version="1.1">
<g id="surface1">
<path style=" stroke:none;fill-rule:nonzero;fill:rgb(23.137255%,53.333333%,76.470588%);fill-opacity:1;" d="M 15 13.332031 C 15 14.253906 14.253906 15 13.332031 15 L 1.667969 15 C 0.746094 15 0 14.253906 0 13.332031 L 0 1.667969 C 0 0.746094 0.746094 0 1.667969 0 L 13.332031 0 C 14.253906 0 15 0.746094 15 1.667969 Z M 15 13.332031 "/>
<path style=" stroke:none;fill-rule:nonzero;fill:rgb(100%,100%,100%);fill-opacity:1;" d="M 11.09375 3.75 C 11.09375 3.234375 10.703125 2.808594 10.160156 2.808594 C 9.824219 2.808594 9.527344 2.949219 9.359375 3.195312 L 7.5 5.894531 L 5.640625 3.195312 C 5.472656 2.949219 5.175781 2.808594 4.839844 2.808594 C 4.296875 2.808594 3.910156 3.234375 3.910156 3.75 C 3.910156 3.957031 3.972656 4.164062 4.089844 4.332031 L 6.25 7.371094 L 6.25 10.878906 C 6.25 11.542969 6.789062 12.082031 7.453125 12.082031 L 7.546875 12.082031 C 8.210938 12.082031 8.75 11.542969 8.75 10.878906 L 8.75 7.371094 L 10.910156 4.332031 C 11.027344 4.164062 11.09375 3.957031 11.09375 3.75 Z M 11.09375 3.75 "/>
</g>
</svg>
