<?xml version="1.0" encoding="UTF-8"?>
<svg xmlns="http://www.w3.org/2000/svg" xmlns:xlink="http://www.w3.org/1999/xlink" width="15pt" height="15pt" viewBox="0 0 15 15" version="1.1">
<g id="surface1">
<path style=" stroke:none;fill-rule:nonzero;fill:rgb(0%,60%,70.980392%);fill-opacity:1;" d="M 0 3.75 L 0 5.417969 L 15 5.417969 L 15 3.75 C 15 2.828125 14.253906 2.082031 13.332031 2.082031 L 1.667969 2.082031 C 0.746094 2.082031 0 2.828125 0 3.75 Z M 0 3.75 "/>
<path style=" stroke:none;fill-rule:nonzero;fill:rgb(11.764706%,70.980392%,22.745098%);fill-opacity:1;" d="M 15 11.25 L 15 9.582031 L 0 9.582031 L 0 11.25 C 0 12.171875 0.746094 12.917969 1.667969 12.917969 L 13.332031 12.917969 C 14.253906 12.917969 15 12.171875 15 11.25 Z M 15 11.25 "/>
<path style=" stroke:none;fill-rule:nonzero;fill:rgb(80.784314%,6.666667%,14.901961%);fill-opacity:1;" d="M 0 5.417969 L 15 5.417969 L 15 6.042969 L 0 6.042969 Z M 0 8.957031 L 15 8.957031 L 15 9.582031 L 0 9.582031 Z M 0 8.957031 "/>
<path style=" stroke:none;fill-rule:nonzero;fill:rgb(93.333333%,93.333333%,93.333333%);fill-opacity:1;" d="M 0 7.5 L 0 8.957031 L 15 8.957031 L 15 6.042969 L 0 6.042969 Z M 0 7.5 "/>
<path style=" stroke:none;fill-rule:nonzero;fill:rgb(100%,100%,100%);fill-opacity:1;" d="M 1.75 3.816406 C 1.75 3.171875 2.21875 2.636719 2.832031 2.535156 C 2.761719 2.523438 2.691406 2.515625 2.617188 2.515625 C 1.898438 2.515625 1.316406 3.097656 1.316406 3.816406 C 1.316406 4.535156 1.898438 5.117188 2.617188 5.117188 C 2.691406 5.117188 2.761719 5.109375 2.832031 5.097656 C 2.21875 4.996094 1.75 4.460938 1.75 3.816406 Z M 3.703125 4.777344 L 3.644531 4.597656 L 3.585938 4.777344 L 3.394531 4.777344 L 3.546875 4.886719 L 3.488281 5.066406 L 3.644531 4.957031 L 3.796875 5.066406 L 3.738281 4.886719 L 3.890625 4.777344 Z M 4.828125 4.777344 L 4.769531 4.597656 L 4.710938 4.777344 L 4.523438 4.777344 L 4.675781 4.886719 L 4.617188 5.066406 L 4.769531 4.957031 L 4.921875 5.066406 L 4.863281 4.886719 L 5.015625 4.777344 Z M 4.769531 3.558594 L 4.710938 3.734375 L 4.523438 3.734375 L 4.675781 3.847656 L 4.617188 4.027344 L 4.769531 3.914062 L 4.921875 4.027344 L 4.863281 3.847656 L 5.015625 3.734375 L 4.828125 3.734375 Z M 5.953125 4.777344 L 5.894531 4.597656 L 5.835938 4.777344 L 5.648438 4.777344 L 5.800781 4.886719 L 5.742188 5.066406 L 5.894531 4.957031 L 6.046875 5.066406 L 5.988281 4.886719 L 6.140625 4.777344 Z M 5.894531 3.558594 L 5.835938 3.734375 L 5.648438 3.734375 L 5.800781 3.847656 L 5.742188 4.027344 L 5.894531 3.914062 L 6.046875 4.027344 L 5.988281 3.847656 L 6.140625 3.734375 L 5.953125 3.734375 Z M 5.894531 2.515625 L 5.835938 2.695312 L 5.648438 2.695312 L 5.800781 2.808594 L 5.742188 2.988281 L 5.894531 2.875 L 6.046875 2.988281 L 5.988281 2.808594 L 6.140625 2.695312 L 5.953125 2.695312 Z M 7.078125 4.777344 L 7.019531 4.597656 L 6.964844 4.777344 L 6.773438 4.777344 L 6.925781 4.886719 L 6.867188 5.066406 L 7.019531 4.957031 L 7.171875 5.066406 L 7.117188 4.886719 L 7.269531 4.777344 Z M 7.019531 3.558594 L 6.964844 3.734375 L 6.773438 3.734375 L 6.925781 3.847656 L 6.867188 4.027344 L 7.019531 3.914062 L 7.171875 4.027344 L 7.117188 3.847656 L 7.269531 3.734375 L 7.078125 3.734375 Z M 7.019531 2.515625 L 6.964844 2.695312 L 6.773438 2.695312 L 6.925781 2.808594 L 6.867188 2.988281 L 7.019531 2.875 L 7.171875 2.988281 L 7.117188 2.808594 L 7.269531 2.695312 L 7.078125 2.695312 Z M 8.207031 4.777344 L 8.148438 4.597656 L 8.089844 4.777344 L 7.898438 4.777344 L 8.054688 4.886719 L 7.996094 5.066406 L 8.148438 4.957031 L 8.300781 5.066406 L 8.242188 4.886719 L 8.394531 4.777344 Z M 8.148438 3.558594 L 8.089844 3.734375 L 7.898438 3.734375 L 8.054688 3.847656 L 7.996094 4.027344 L 8.148438 3.914062 L 8.300781 4.027344 L 8.242188 3.847656 L 8.394531 3.734375 L 8.207031 3.734375 Z M 8.148438 2.515625 L 8.089844 2.695312 L 7.898438 2.695312 L 8.054688 2.808594 L 7.996094 2.988281 L 8.148438 2.875 L 8.300781 2.988281 L 8.242188 2.808594 L 8.394531 2.695312 L 8.207031 2.695312 Z M 8.148438 2.515625 "/>
</g>
</svg>
