<?xml version="1.0" encoding="UTF-8"?>
<svg xmlns="http://www.w3.org/2000/svg" xmlns:xlink="http://www.w3.org/1999/xlink" width="15pt" height="15pt" viewBox="0 0 15 15" version="1.1">
<g id="surface1">
<path style=" stroke:none;fill-rule:nonzero;fill:rgb(80.784314%,6.666667%,14.901961%);fill-opacity:1;" d="M 0 11.25 C 0 12.171875 0.746094 12.917969 1.667969 12.917969 L 13.332031 12.917969 C 14.253906 12.917969 15 12.171875 15 11.25 L 15 10 L 0 10 Z M 13.332031 2.082031 L 1.667969 2.082031 C 0.746094 2.082031 0 2.828125 0 3.75 L 0 5 L 15 5 L 15 3.75 C 15 2.828125 14.253906 2.082031 13.332031 2.082031 Z M 13.332031 2.082031 "/>
<path style=" stroke:none;fill-rule:nonzero;fill:rgb(0%,15.686275%,40.784314%);fill-opacity:1;" d="M 0 10 L 15 10 L 15 5 L 0 5 Z M 7.5 5.417969 C 8.652344 5.417969 9.582031 6.347656 9.582031 7.5 C 9.582031 8.652344 8.652344 9.582031 7.5 9.582031 C 6.347656 9.582031 5.417969 8.652344 5.417969 7.5 C 5.417969 6.347656 6.347656 5.417969 7.5 5.417969 Z M 7.5 5.417969 "/>
<path style=" stroke:none;fill-rule:nonzero;fill:rgb(100%,100%,100%);fill-opacity:1;" d="M 9.582031 7.5 C 9.582031 8.652344 8.652344 9.582031 7.5 9.582031 C 6.347656 9.582031 5.417969 8.652344 5.417969 7.5 C 5.417969 6.347656 6.347656 5.417969 7.5 5.417969 C 8.652344 5.417969 9.582031 6.347656 9.582031 7.5 Z M 9.582031 7.5 "/>
</g>
</svg>
