<?xml version="1.0" encoding="UTF-8"?>
<svg xmlns="http://www.w3.org/2000/svg" xmlns:xlink="http://www.w3.org/1999/xlink" width="15pt" height="15pt" viewBox="0 0 15 15" version="1.1">
<g id="surface1">
<path style=" stroke:none;fill-rule:nonzero;fill:rgb(1.176471%,16.470588%,52.941176%);fill-opacity:1;" d="M 15 11.25 C 15 12.171875 14.253906 12.917969 13.332031 12.917969 L 1.667969 12.917969 C 0.746094 12.917969 0 12.171875 0 11.25 L 0 3.75 C 0 2.828125 0.746094 2.082031 1.667969 2.082031 L 13.332031 2.082031 C 14.253906 2.082031 15 2.828125 15 3.75 Z M 15 11.25 "/>
<path style=" stroke:none;fill-rule:nonzero;fill:rgb(86.27451%,9.411765%,11.764706%);fill-opacity:1;" d="M 13.332031 2.082031 L 1.667969 2.082031 C 0.746094 2.082031 0 2.828125 0 3.75 L 0 7.5 L 15 7.5 L 15 3.75 C 15 2.828125 14.253906 2.082031 13.332031 2.082031 Z M 13.332031 2.082031 "/>
<path style=" stroke:none;fill-rule:nonzero;fill:rgb(93.333333%,93.333333%,93.333333%);fill-opacity:1;" d="M 0.546875 12.476562 L 7.097656 7.527344 L 0.554688 2.515625 C 0.214844 2.820312 0 3.257812 0 3.75 L 0 11.25 C 0 11.738281 0.214844 12.171875 0.546875 12.476562 Z M 0.546875 12.476562 "/>
<path style=" stroke:none;fill-rule:nonzero;fill:rgb(98.039216%,85.490196%,6.27451%);fill-opacity:1;" d="M 3.59375 6.140625 C 3.59375 6.523438 3.191406 6.832031 2.699219 6.832031 C 2.203125 6.832031 1.804688 6.523438 1.804688 6.140625 C 1.804688 5.761719 2.203125 5.453125 2.699219 5.453125 C 3.191406 5.453125 3.59375 5.761719 3.59375 6.140625 Z M 3.59375 6.140625 "/>
<path style=" stroke:none;fill-rule:nonzero;fill:rgb(74.117647%,44.705882%,37.254902%);fill-opacity:1;" d="M 1.605469 5.851562 C 1.796875 5.660156 2.488281 5.667969 2.699219 5.789062 C 2.464844 5.476562 2.785156 5.625 3.039062 5.625 C 3.289062 5.625 3.359375 5.703125 3.195312 5.71875 C 3.03125 5.738281 2.890625 5.710938 2.933594 5.765625 C 2.976562 5.816406 3.230469 5.773438 3.453125 5.71875 C 3.679688 5.667969 3.941406 5.859375 3.957031 5.894531 C 3.976562 5.929688 3.558594 5.84375 3.410156 5.894531 C 3.265625 5.945312 3.03125 5.9375 3.046875 5.988281 C 3.066406 6.042969 2.800781 6.078125 2.699219 6.050781 C 2.597656 6.023438 2.171875 6.03125 2.238281 5.988281 C 2.308594 5.945312 2.394531 5.894531 2.429688 5.875 C 2.464844 5.859375 1.910156 5.84375 1.605469 5.851562 Z M 1.605469 5.851562 "/>
<path style=" stroke:none;fill-rule:nonzero;fill:rgb(86.27451%,9.411765%,11.764706%);fill-opacity:1;" d="M 4.230469 6.066406 C 4.230469 6.066406 3.839844 6.265625 3.445312 6.171875 C 3.007812 6.066406 2.6875 6.113281 2.6875 6.230469 C 2.6875 6.113281 2.371094 6.066406 1.933594 6.171875 C 1.539062 6.265625 1.144531 6.066406 1.144531 6.066406 C 1.144531 6.066406 1.433594 6.53125 1.261719 7.453125 C 1.085938 8.398438 1.140625 8.828125 1.882812 8.855469 C 2.511719 8.878906 2.6875 9.070312 2.6875 9.070312 C 2.6875 9.070312 2.863281 8.878906 3.492188 8.855469 C 4.238281 8.828125 4.289062 8.398438 4.113281 7.453125 C 3.941406 6.53125 4.230469 6.066406 4.230469 6.066406 Z M 4.230469 6.066406 "/>
<path style=" stroke:none;fill-rule:nonzero;fill:rgb(38.823529%,69.019608%,88.627451%);fill-opacity:1;" d="M 3.945312 7.742188 C 3.722656 6.980469 3.957031 6.355469 3.957031 6.355469 C 3.957031 6.355469 3.613281 6.457031 3.230469 6.347656 C 2.84375 6.238281 2.6875 6.425781 2.6875 6.425781 C 2.6875 6.425781 2.53125 6.238281 2.148438 6.347656 C 1.765625 6.457031 1.417969 6.355469 1.417969 6.355469 C 1.417969 6.355469 1.652344 6.980469 1.433594 7.742188 C 1.210938 8.503906 1.75 8.613281 2.117188 8.605469 C 2.480469 8.601562 2.6875 8.808594 2.6875 8.808594 C 2.6875 8.808594 2.898438 8.601562 3.261719 8.605469 C 3.625 8.613281 4.167969 8.503906 3.945312 7.742188 Z M 3.945312 7.742188 "/>
<path style=" stroke:none;fill-rule:nonzero;fill:rgb(100%,100%,100%);fill-opacity:1;" d="M 3.5625 8.289062 L 3.5625 7.910156 L 3.644531 7.910156 L 3.644531 7.761719 L 3.554688 7.761719 L 3.554688 7.355469 L 3.640625 7.355469 L 2.941406 6.894531 L 2.941406 6.707031 L 3.046875 6.707031 L 2.6875 6.464844 L 2.332031 6.707031 L 2.433594 6.707031 L 2.433594 6.894531 L 1.738281 7.355469 L 1.824219 7.355469 L 1.824219 7.761719 L 1.730469 7.761719 L 1.730469 7.910156 L 1.816406 7.910156 L 1.816406 8.289062 L 1.710938 8.289062 L 1.710938 8.476562 L 3.664062 8.476562 L 3.664062 8.289062 Z M 3.628906 6.714844 C 3.628906 6.863281 3.597656 6.921875 3.5625 6.921875 C 3.523438 6.921875 3.492188 6.863281 3.492188 6.714844 C 3.492188 6.566406 3.5625 6.445312 3.5625 6.445312 C 3.5625 6.445312 3.628906 6.566406 3.628906 6.714844 Z M 3.628906 6.714844 "/>
<path style=" stroke:none;fill-rule:nonzero;fill:rgb(100%,100%,100%);fill-opacity:1;" d="M 3.824219 6.941406 L 3.296875 6.941406 C 3.296875 6.867188 3.414062 6.808594 3.5625 6.808594 C 3.707031 6.808594 3.824219 6.867188 3.824219 6.941406 Z M 3.824219 6.941406 "/>
<path style=" stroke:none;fill-rule:nonzero;fill:rgb(0.392157%,53.333333%,18.823529%);fill-opacity:1;" d="M 2.03125 6.746094 C 2.03125 6.746094 1.933594 6.921875 1.914062 7.023438 C 1.894531 7.128906 1.835938 6.960938 1.835938 6.960938 C 1.835938 6.960938 1.730469 7.0625 1.707031 7.101562 C 1.679688 7.140625 1.671875 6.804688 1.707031 6.757812 C 1.738281 6.714844 1.628906 6.726562 1.589844 6.707031 C 1.550781 6.6875 1.671875 6.5625 1.671875 6.5625 C 1.671875 6.5625 1.503906 6.484375 1.5625 6.464844 C 1.621094 6.445312 1.835938 6.457031 1.90625 6.515625 C 1.980469 6.578125 2.148438 6.476562 2.214844 6.464844 C 2.277344 6.453125 2.214844 6.53125 2.160156 6.578125 C 2.109375 6.621094 2.136719 6.738281 2.136719 6.796875 C 2.136719 6.855469 2.03125 6.746094 2.03125 6.746094 Z M 2.03125 6.746094 "/>
<path style=" stroke:none;fill-rule:nonzero;fill:rgb(71.372549%,71.372549%,71.372549%);fill-opacity:1;" d="M 2.324219 7.585938 L 3.09375 7.585938 L 3.09375 7.804688 L 2.324219 7.804688 Z M 1.953125 7.402344 L 2.1875 7.402344 L 2.1875 7.707031 L 1.953125 7.707031 Z M 1.953125 7.917969 L 2.1875 7.917969 L 2.1875 8.222656 L 1.953125 8.222656 Z M 3.210938 7.402344 L 3.445312 7.402344 L 3.445312 7.707031 L 3.210938 7.707031 Z M 3.210938 7.917969 L 3.445312 7.917969 L 3.445312 8.222656 L 3.210938 8.222656 Z M 2.519531 6.757812 L 2.871094 6.757812 L 2.871094 6.921875 L 2.519531 6.921875 Z M 2.519531 6.757812 "/>
<path style=" stroke:none;fill-rule:nonzero;fill:rgb(98.039216%,85.490196%,6.27451%);fill-opacity:1;" d="M 4.792969 7.820312 L 4.726562 7.449219 L 4.382812 7.558594 L 4.484375 8.058594 L 4.5625 8.078125 C 4.5625 8.078125 4.570312 8.484375 4.265625 8.796875 C 3.957031 9.109375 3.417969 9.109375 3.417969 9.109375 C 3.417969 9.109375 3.136719 9.308594 2.6875 9.308594 C 2.238281 9.308594 1.960938 9.109375 1.960938 9.109375 C 1.960938 9.109375 1.417969 9.109375 1.113281 8.796875 C 0.808594 8.484375 0.8125 8.078125 0.8125 8.078125 L 0.890625 8.058594 L 0.996094 7.558594 L 0.652344 7.449219 L 0.585938 7.820312 L 0.464844 7.832031 C 0.464844 7.832031 0.46875 8.5625 0.722656 8.945312 C 0.976562 9.328125 1.542969 9.445312 1.542969 9.445312 C 1.542969 9.445312 1.550781 9.492188 1.5625 9.539062 C 1.933594 9.753906 2.691406 9.765625 2.691406 9.765625 C 2.691406 9.765625 3.445312 9.753906 3.816406 9.539062 C 3.828125 9.492188 3.835938 9.445312 3.835938 9.445312 C 3.835938 9.445312 4.402344 9.328125 4.65625 8.945312 C 4.910156 8.5625 4.917969 7.832031 4.917969 7.832031 Z M 4.792969 7.820312 "/>
</g>
</svg>
