<?xml version="1.0" encoding="UTF-8"?>
<svg xmlns="http://www.w3.org/2000/svg" xmlns:xlink="http://www.w3.org/1999/xlink" width="15pt" height="15pt" viewBox="0 0 15 15" version="1.1">
<g id="surface1">
<path style=" stroke:none;fill-rule:nonzero;fill:rgb(83.921569%,15.686275%,15.686275%);fill-opacity:1;" d="M 13.332031 2.082031 L 10.070312 2.082031 L 0.46875 12.410156 L 0.472656 12.410156 C 0.535156 12.476562 0.601562 12.535156 0.675781 12.589844 L 15 5.695312 L 15 3.75 C 15 2.828125 14.253906 2.082031 13.332031 2.082031 Z M 13.332031 2.082031 "/>
<path style=" stroke:none;fill-rule:nonzero;fill:rgb(98.823529%,84.705882%,33.72549%);fill-opacity:1;" d="M 0.316406 12.230469 C 0.363281 12.292969 0.414062 12.355469 0.472656 12.410156 L 10.070312 2.082031 L 5 2.082031 Z M 0.316406 12.230469 "/>
<path style=" stroke:none;fill-rule:nonzero;fill:rgb(0%,24.705882%,52.941176%);fill-opacity:1;" d="M 5 2.082031 L 1.667969 2.082031 C 0.746094 2.082031 0 2.828125 0 3.75 L 0 11.25 C 0 11.617188 0.117188 11.953125 0.316406 12.230469 Z M 5 2.082031 "/>
<path style=" stroke:none;fill-rule:nonzero;fill:rgb(93.333333%,93.333333%,93.333333%);fill-opacity:1;" d="M 0.859375 12.707031 L 0.859375 12.710938 L 15 9.304688 L 15 5.695312 L 0.675781 12.589844 C 0.734375 12.632812 0.796875 12.671875 0.859375 12.707031 Z M 0.859375 12.707031 "/>
<path style=" stroke:none;fill-rule:nonzero;fill:rgb(0%,47.843137%,23.921569%);fill-opacity:1;" d="M 1.667969 12.917969 L 13.332031 12.917969 C 14.253906 12.917969 15 12.171875 15 11.25 L 15 9.304688 L 0.859375 12.710938 C 1.101562 12.839844 1.375 12.917969 1.667969 12.917969 Z M 1.667969 12.917969 "/>
</g>
</svg>
