<?xml version="1.0" encoding="UTF-8"?>
<svg xmlns="http://www.w3.org/2000/svg" xmlns:xlink="http://www.w3.org/1999/xlink" width="15pt" height="15pt" viewBox="0 0 15 15" version="1.1">
<g id="surface1">
<path style=" stroke:none;fill-rule:nonzero;fill:rgb(4.705882%,25.098039%,46.27451%);fill-opacity:1;" d="M 0 5.417969 L 15 5.417969 L 15 9.582031 L 0 9.582031 Z M 0 5.417969 "/>
<path style=" stroke:none;fill-rule:nonzero;fill:rgb(93.333333%,93.333333%,93.333333%);fill-opacity:1;" d="M 0 11.25 C 0 12.171875 0.746094 12.917969 1.667969 12.917969 L 13.332031 12.917969 C 14.253906 12.917969 15 12.171875 15 11.25 L 15 9.582031 L 0 9.582031 Z M 0 11.25 "/>
<path style=" stroke:none;fill-rule:nonzero;fill:rgb(77.647059%,21.176471%,23.529412%);fill-opacity:1;" d="M 15 3.75 C 15 2.828125 14.253906 2.082031 13.332031 2.082031 L 1.667969 2.082031 C 0.746094 2.082031 0 2.828125 0 3.75 L 0 5.417969 L 15 5.417969 Z M 2.917969 5.417969 L 2.917969 9.375 C 2.917969 10.640625 3.941406 11.667969 5.207031 11.667969 C 6.472656 11.667969 7.5 10.640625 7.5 9.375 L 7.5 5.417969 Z M 2.917969 5.417969 "/>
<path style=" stroke:none;fill-rule:nonzero;fill:rgb(92.941176%,72.54902%,18.039216%);fill-opacity:1;" d="M 5.207031 2.941406 C 3.566406 2.941406 3.054688 3.640625 3.191406 3.898438 C 3.328125 4.160156 3.738281 4.832031 3.738281 4.832031 C 3.738281 4.832031 3.605469 4.882812 3.738281 5.144531 C 3.867188 5.402344 4.375 5.226562 5.207031 5.226562 C 6.042969 5.226562 6.550781 5.402344 6.679688 5.144531 C 6.808594 4.882812 6.679688 4.832031 6.679688 4.832031 C 6.679688 4.832031 7.089844 4.160156 7.226562 3.898438 C 7.363281 3.640625 6.847656 2.941406 5.207031 2.941406 Z M 3.777344 4.179688 C 3.65625 4.214844 3.777344 4.578125 3.734375 4.421875 C 3.699219 4.292969 3.566406 4.238281 3.566406 4.308594 C 3.566406 4.382812 3.515625 4.308594 3.527344 4.179688 C 3.542969 4.050781 3.503906 3.972656 3.425781 3.859375 C 3.347656 3.75 3.347656 3.652344 3.445312 3.585938 C 3.542969 3.523438 3.757812 3.46875 3.757812 3.46875 C 3.757812 3.46875 3.839844 3.839844 3.886719 3.925781 C 3.933594 4.011719 4.015625 4.066406 4.015625 4.066406 C 4.015625 4.066406 3.976562 4.128906 4.015625 4.160156 C 4.054688 4.191406 4.101562 4.269531 4.101562 4.269531 C 4.101562 4.269531 3.957031 4.152344 3.933594 4.179688 C 3.90625 4.207031 3.964844 4.238281 3.957031 4.285156 C 3.953125 4.328125 3.878906 4.148438 3.777344 4.179688 Z M 5.105469 4.1875 C 5.070312 4.21875 5.046875 4.160156 4.980469 4.113281 C 4.914062 4.070312 4.875 4.09375 4.890625 4.148438 C 4.902344 4.199219 4.8125 4.191406 4.8125 4.269531 C 4.8125 4.347656 4.726562 4.316406 4.726562 4.316406 C 4.726562 4.316406 4.832031 4.042969 4.65625 4.050781 C 4.554688 4.054688 4.589844 4.257812 4.65625 4.328125 C 4.625 4.285156 4.542969 4.285156 4.476562 4.230469 C 4.40625 4.179688 4.484375 4.09375 4.433594 4.113281 C 4.378906 4.132812 4.347656 4.21875 4.296875 4.238281 C 4.246094 4.257812 4.269531 4.179688 4.296875 4.113281 C 4.320312 4.050781 4.265625 4.015625 4.265625 4.015625 C 4.265625 4.015625 4.269531 3.972656 4.308594 3.945312 C 4.347656 3.917969 4.363281 3.875 4.308594 3.820312 C 4.257812 3.769531 4.070312 3.476562 4.128906 3.378906 C 4.1875 3.28125 4.382812 3.171875 4.929688 3.183594 C 5.027344 3.632812 4.875 3.855469 4.875 3.855469 C 4.875 3.855469 4.988281 3.925781 5.019531 3.964844 C 4.941406 3.996094 5 4.03125 5.050781 4.074219 C 5.105469 4.121094 5.136719 4.152344 5.105469 4.1875 Z M 6.121094 4.113281 C 6.144531 4.179688 6.171875 4.257812 6.121094 4.238281 C 6.066406 4.21875 6.035156 4.132812 5.984375 4.113281 C 5.929688 4.09375 6.007812 4.179688 5.941406 4.230469 C 5.871094 4.285156 5.789062 4.285156 5.761719 4.328125 C 5.828125 4.257812 5.859375 4.054688 5.761719 4.050781 C 5.585938 4.042969 5.691406 4.316406 5.691406 4.316406 C 5.691406 4.316406 5.605469 4.347656 5.605469 4.269531 C 5.605469 4.191406 5.515625 4.199219 5.527344 4.148438 C 5.539062 4.09375 5.5 4.070312 5.4375 4.113281 C 5.371094 4.160156 5.34375 4.21875 5.3125 4.1875 C 5.28125 4.152344 5.3125 4.121094 5.363281 4.074219 C 5.417969 4.03125 5.476562 3.996094 5.398438 3.964844 C 5.429688 3.925781 5.539062 3.855469 5.539062 3.855469 C 5.539062 3.855469 5.390625 3.632812 5.488281 3.183594 C 6.035156 3.171875 6.230469 3.28125 6.289062 3.378906 C 6.347656 3.476562 6.160156 3.769531 6.105469 3.820312 C 6.054688 3.875 6.066406 3.917969 6.105469 3.945312 C 6.144531 3.972656 6.148438 4.015625 6.148438 4.015625 C 6.148438 4.015625 6.09375 4.050781 6.121094 4.113281 Z M 6.992188 3.859375 C 6.914062 3.972656 6.875 4.050781 6.886719 4.179688 C 6.902344 4.308594 6.847656 4.382812 6.847656 4.308594 C 6.847656 4.238281 6.714844 4.292969 6.683594 4.421875 C 6.640625 4.578125 6.757812 4.214844 6.640625 4.179688 C 6.535156 4.148438 6.398438 4.460938 6.433594 4.425781 C 6.464844 4.394531 6.511719 4.207031 6.484375 4.179688 C 6.457031 4.152344 6.316406 4.269531 6.316406 4.269531 C 6.316406 4.269531 6.359375 4.191406 6.398438 4.160156 C 6.4375 4.128906 6.398438 4.066406 6.398438 4.066406 C 6.398438 4.066406 6.484375 4.011719 6.53125 3.925781 C 6.574219 3.839844 6.660156 3.46875 6.660156 3.46875 C 6.660156 3.46875 6.875 3.523438 6.972656 3.585938 C 7.070312 3.652344 7.070312 3.75 6.992188 3.859375 Z M 6.992188 3.859375 "/>
<path style=" stroke:none;fill-rule:nonzero;fill:rgb(100%,67.45098%,20%);fill-opacity:1;" d="M 5.253906 3.015625 C 5.253906 3.058594 5.21875 3.09375 5.179688 3.09375 C 5.136719 3.09375 5.105469 3.058594 5.105469 3.015625 L 5.105469 2.359375 C 5.105469 2.320312 5.136719 2.285156 5.179688 2.285156 C 5.21875 2.285156 5.253906 2.320312 5.253906 2.359375 Z M 5.253906 3.015625 "/>
<path style=" stroke:none;fill-rule:nonzero;fill:rgb(92.941176%,72.54902%,18.039216%);fill-opacity:1;" d="M 5.402344 2.535156 C 5.402344 2.574219 5.375 2.605469 5.335938 2.605469 L 5.011719 2.605469 C 4.972656 2.605469 4.941406 2.574219 4.941406 2.535156 C 4.941406 2.496094 4.972656 2.46875 5.011719 2.46875 L 5.335938 2.46875 C 5.375 2.46875 5.402344 2.496094 5.402344 2.535156 Z M 5.402344 2.535156 "/>
<path style=" stroke:none;fill-rule:nonzero;fill:rgb(4.705882%,25.098039%,46.27451%);fill-opacity:1;" d="M 5.421875 2.941406 C 5.421875 3.082031 5.3125 3.191406 5.171875 3.191406 C 5.035156 3.191406 4.921875 3.082031 4.921875 2.941406 C 4.921875 2.804688 5.035156 2.691406 5.171875 2.691406 C 5.3125 2.691406 5.421875 2.804688 5.421875 2.941406 Z M 4 5.113281 C 4 5.175781 3.929688 5.226562 3.84375 5.226562 C 3.757812 5.226562 3.6875 5.175781 3.6875 5.113281 C 3.6875 5.054688 3.757812 5.003906 3.84375 5.003906 C 3.929688 5.003906 4 5.054688 4 5.113281 Z M 4 5.113281 "/>
<path style=" stroke:none;fill-rule:nonzero;fill:rgb(77.647059%,21.176471%,23.529412%);fill-opacity:1;" d="M 4.636719 5.078125 C 4.636719 5.136719 4.566406 5.1875 4.476562 5.1875 C 4.390625 5.1875 4.320312 5.136719 4.320312 5.078125 C 4.320312 5.015625 4.390625 4.964844 4.476562 4.964844 C 4.566406 4.964844 4.636719 5.015625 4.636719 5.078125 Z M 6.042969 5.078125 C 6.042969 5.136719 5.972656 5.1875 5.882812 5.1875 C 5.796875 5.1875 5.726562 5.136719 5.726562 5.078125 C 5.726562 5.015625 5.796875 4.964844 5.882812 4.964844 C 5.972656 4.964844 6.042969 5.015625 6.042969 5.078125 Z M 6.042969 5.078125 "/>
<path style=" stroke:none;fill-rule:nonzero;fill:rgb(4.705882%,25.098039%,46.27451%);fill-opacity:1;" d="M 6.691406 5.113281 C 6.691406 5.175781 6.621094 5.226562 6.535156 5.226562 C 6.449219 5.226562 6.378906 5.175781 6.378906 5.113281 C 6.378906 5.054688 6.449219 5.003906 6.535156 5.003906 C 6.621094 5.003906 6.691406 5.054688 6.691406 5.113281 Z M 5.335938 5.070312 C 5.335938 5.128906 5.265625 5.179688 5.179688 5.179688 C 5.09375 5.179688 5.023438 5.128906 5.023438 5.070312 C 5.023438 5.007812 5.09375 4.957031 5.179688 4.957031 C 5.265625 4.957031 5.335938 5.007812 5.335938 5.070312 Z M 5.335938 5.070312 "/>
<path style=" stroke:none;fill-rule:nonzero;fill:rgb(92.941176%,72.54902%,18.039216%);fill-opacity:1;" d="M 4.285156 9.402344 C 4.144531 9.722656 4.128906 9.882812 3.960938 9.871094 C 3.789062 9.859375 3.671875 9.832031 3.671875 9.902344 C 3.671875 9.96875 3.941406 9.941406 3.941406 9.941406 C 3.941406 9.941406 3.6875 10.046875 3.734375 10.171875 C 3.785156 10.296875 4.003906 10.015625 4.003906 10.015625 C 4.003906 10.015625 4.050781 10.027344 4.132812 9.957031 C 4.21875 9.890625 4.441406 9.558594 4.441406 9.558594 Z M 6.125 9.402344 C 6.265625 9.722656 6.28125 9.882812 6.449219 9.871094 C 6.621094 9.859375 6.738281 9.832031 6.738281 9.902344 C 6.738281 9.96875 6.46875 9.941406 6.46875 9.941406 C 6.46875 9.941406 6.722656 10.046875 6.675781 10.171875 C 6.625 10.296875 6.40625 10.015625 6.40625 10.015625 C 6.40625 10.015625 6.359375 10.027344 6.277344 9.957031 C 6.191406 9.890625 5.96875 9.558594 5.96875 9.558594 Z M 6.125 9.402344 "/>
<path style=" stroke:none;fill-rule:nonzero;fill:rgb(100%,100%,100%);fill-opacity:1;" d="M 7.128906 6.535156 C 7.058594 6.035156 6.582031 6.191406 6.382812 6.535156 C 6.179688 6.882812 6.007812 7.09375 5.820312 6.847656 C 5.636719 6.605469 5.511719 6.347656 5.78125 6.015625 L 6.050781 5.6875 C 6.011719 5.484375 5.851562 5.53125 5.621094 5.625 C 5.390625 5.71875 5.242188 5.675781 5.265625 5.78125 C 5.289062 5.886719 5.375 5.894531 5.375 5.894531 C 5.375 5.894531 5.226562 6.035156 5.191406 6.523438 C 5.152344 6.035156 5.007812 5.894531 5.007812 5.894531 C 5.007812 5.894531 5.089844 5.886719 5.113281 5.78125 C 5.136719 5.675781 4.992188 5.71875 4.761719 5.625 C 4.527344 5.53125 4.367188 5.484375 4.328125 5.6875 L 4.597656 6.015625 C 4.867188 6.347656 4.746094 6.605469 4.558594 6.847656 C 4.371094 7.09375 4.199219 6.910156 3.996094 6.5625 C 3.796875 6.214844 3.320312 6.058594 3.25 6.5625 C 3.175781 7.066406 3.261719 7.941406 3.261719 7.941406 C 3.261719 7.941406 3.214844 8.421875 3.308594 8.828125 C 3.398438 9.234375 3.453125 9.601562 3.308594 9.914062 C 3.46875 9.871094 3.566406 9.660156 3.566406 9.660156 C 3.566406 9.660156 3.515625 9.914062 3.613281 9.886719 C 3.714844 9.859375 3.738281 9.671875 3.8125 9.601562 C 3.890625 9.53125 3.953125 9.375 3.953125 9.375 C 3.953125 9.375 4.113281 9.3125 3.953125 9.582031 C 4.082031 9.59375 4.167969 9.503906 4.167969 9.503906 L 4.214844 9.75 L 4.292969 9.617188 L 4.328125 9.851562 L 4.46875 9.625 L 4.558594 9.730469 C 4.558594 9.730469 4.574219 9.289062 4.699219 9.375 C 4.820312 9.460938 4.828125 9.75 4.746094 9.921875 C 4.660156 10.09375 4.746094 10.164062 4.746094 10.164062 C 4.746094 10.164062 4.621094 10.347656 4.558594 10.453125 C 4.496094 10.554688 4.589844 10.675781 4.589844 10.675781 C 4.589844 10.675781 4.351562 11.03125 4.417969 11.171875 C 4.484375 11.304688 4.878906 11.390625 5.171875 11.398438 L 5.207031 11.398438 C 5.5 11.390625 5.894531 11.304688 5.960938 11.171875 C 6.027344 11.035156 5.789062 10.675781 5.789062 10.675781 C 5.789062 10.675781 5.882812 10.554688 5.820312 10.453125 C 5.757812 10.347656 5.632812 10.164062 5.632812 10.164062 C 5.632812 10.164062 5.71875 10.09375 5.632812 9.921875 C 5.550781 9.75 5.558594 9.460938 5.679688 9.375 C 5.804688 9.289062 5.820312 9.730469 5.820312 9.730469 L 5.910156 9.625 L 6.050781 9.851562 L 6.089844 9.617188 L 6.164062 9.75 L 6.210938 9.503906 C 6.210938 9.503906 6.296875 9.589844 6.425781 9.582031 C 6.265625 9.3125 6.425781 9.375 6.425781 9.375 C 6.425781 9.375 6.488281 9.53125 6.566406 9.601562 C 6.640625 9.671875 6.664062 9.859375 6.765625 9.886719 C 6.863281 9.914062 6.8125 9.660156 6.8125 9.660156 C 6.8125 9.660156 6.910156 9.871094 7.070312 9.914062 C 6.925781 9.601562 6.980469 9.234375 7.070312 8.828125 C 7.164062 8.421875 7.117188 7.941406 7.117188 7.941406 C 7.117188 7.941406 7.203125 7.039062 7.128906 6.535156 Z M 7.128906 6.535156 "/>
<path style=" stroke:none;fill-rule:nonzero;fill:rgb(92.941176%,72.54902%,18.039216%);fill-opacity:1;" d="M 4.953125 5.964844 C 4.769531 5.789062 4.3125 5.558594 4.160156 5.59375 C 4.011719 5.625 3.890625 5.730469 4 5.890625 C 4.113281 6.054688 4.160156 6.046875 4.160156 6.046875 C 4.160156 6.046875 4.34375 5.886719 4.421875 5.976562 C 4.5 6.066406 4.433594 6.101562 4.289062 6.113281 C 4.148438 6.125 4.003906 6.027344 4.003906 6.027344 C 4.003906 6.027344 4.050781 6.199219 4.246094 6.21875 C 4.382812 6.347656 4.550781 6.25 4.636719 6.25 C 4.71875 6.25 5.117188 6.121094 4.953125 5.964844 Z M 5.425781 5.964844 C 5.609375 5.789062 6.066406 5.558594 6.21875 5.59375 C 6.371094 5.625 6.492188 5.730469 6.378906 5.890625 C 6.265625 6.054688 6.21875 6.046875 6.21875 6.046875 C 6.21875 6.046875 6.039062 5.886719 5.960938 5.976562 C 5.882812 6.066406 5.945312 6.101562 6.089844 6.113281 C 6.234375 6.125 6.378906 6.027344 6.378906 6.027344 C 6.378906 6.027344 6.332031 6.199219 6.132812 6.21875 C 6 6.347656 5.828125 6.25 5.746094 6.25 C 5.660156 6.25 5.261719 6.121094 5.425781 5.964844 Z M 4.152344 10.5 C 4.210938 10.367188 4.171875 10.347656 4.125 10.304688 C 4.078125 10.257812 4.054688 10.195312 4.054688 10.195312 C 4.054688 10.195312 4.03125 10.257812 3.988281 10.304688 C 3.941406 10.347656 3.902344 10.367188 3.957031 10.5 C 3.820312 10.417969 3.796875 10.566406 3.859375 10.660156 C 3.878906 10.578125 3.988281 10.597656 3.988281 10.695312 C 3.988281 10.796875 3.894531 10.75 3.90625 10.792969 C 3.917969 10.832031 4 10.917969 4.054688 10.917969 C 4.109375 10.917969 4.191406 10.832031 4.203125 10.792969 C 4.214844 10.75 4.125 10.796875 4.125 10.695312 C 4.125 10.597656 4.234375 10.578125 4.25 10.660156 C 4.316406 10.566406 4.292969 10.417969 4.152344 10.5 Z M 6.417969 10.5 C 6.476562 10.367188 6.4375 10.347656 6.390625 10.304688 C 6.34375 10.257812 6.320312 10.195312 6.320312 10.195312 C 6.320312 10.195312 6.296875 10.257812 6.253906 10.304688 C 6.207031 10.347656 6.164062 10.367188 6.222656 10.5 C 6.085938 10.417969 6.0625 10.566406 6.125 10.660156 C 6.144531 10.578125 6.253906 10.597656 6.253906 10.695312 C 6.253906 10.796875 6.160156 10.75 6.171875 10.792969 C 6.183594 10.832031 6.265625 10.917969 6.320312 10.917969 C 6.375 10.917969 6.457031 10.832031 6.46875 10.792969 C 6.480469 10.75 6.390625 10.796875 6.390625 10.695312 C 6.390625 10.597656 6.5 10.578125 6.515625 10.660156 C 6.582031 10.566406 6.558594 10.417969 6.417969 10.5 Z M 6.417969 10.5 "/>
<path style=" stroke:none;fill-rule:nonzero;fill:rgb(77.647059%,21.176471%,23.529412%);fill-opacity:1;" d="M 4.269531 7.03125 L 4.269531 8.640625 C 4.269531 9.152344 4.683594 9.570312 5.199219 9.570312 C 5.714844 9.570312 6.128906 9.152344 6.128906 8.640625 L 6.128906 7.03125 Z M 4.269531 7.03125 "/>
<path style=" stroke:none;fill-rule:nonzero;fill:rgb(93.333333%,93.333333%,93.333333%);fill-opacity:1;" d="M 6.128906 7.988281 L 5.398438 7.988281 L 5.398438 7.03125 L 5 7.03125 L 5 7.988281 L 4.269531 7.988281 L 4.269531 8.390625 L 5 8.390625 L 5 9.546875 C 5.0625 9.5625 5.128906 9.570312 5.199219 9.570312 C 5.269531 9.570312 5.335938 9.5625 5.402344 9.546875 L 5.402344 8.390625 L 6.128906 8.390625 Z M 6.128906 7.988281 "/>
</g>
</svg>
