<?xml version="1.0" encoding="UTF-8"?>
<svg xmlns="http://www.w3.org/2000/svg" xmlns:xlink="http://www.w3.org/1999/xlink" width="15pt" height="15pt" viewBox="0 0 15 15" version="1.1">
<g id="surface1">
<path style=" stroke:none;fill-rule:nonzero;fill:rgb(93.333333%,93.333333%,93.333333%);fill-opacity:1;" d="M 15 11.25 C 15 12.171875 14.253906 12.917969 13.332031 12.917969 L 1.667969 12.917969 C 0.746094 12.917969 0 12.171875 0 11.25 L 0 3.75 C 0 2.828125 0.746094 2.082031 1.667969 2.082031 L 13.332031 2.082031 C 14.253906 2.082031 15 2.828125 15 3.75 Z M 15 11.25 "/>
<path style=" stroke:none;fill-rule:nonzero;fill:rgb(92.941176%,16.078431%,22.352941%);fill-opacity:1;" d="M 15 7.5 L 15 3.75 C 15 2.828125 14.253906 2.082031 13.332031 2.082031 L 1.667969 2.082031 C 0.746094 2.082031 0 2.828125 0 3.75 L 0 7.5 Z M 15 7.5 "/>
<path style=" stroke:none;fill-rule:nonzero;fill:rgb(100%,100%,100%);fill-opacity:1;" d="M 2.5 4.792969 C 2.5 3.714844 3.175781 2.8125 4.085938 2.566406 C 3.910156 2.527344 3.730469 2.5 3.542969 2.5 C 2.277344 2.5 1.25 3.527344 1.25 4.792969 C 1.25 6.058594 2.277344 7.082031 3.542969 7.082031 C 3.730469 7.082031 3.910156 7.058594 4.085938 7.015625 C 3.175781 6.769531 2.5 5.867188 2.5 4.792969 Z M 2.5 4.792969 "/>
<path style=" stroke:none;fill-rule:nonzero;fill:rgb(93.333333%,93.333333%,93.333333%);fill-opacity:1;" d="M 5 2.917969 L 5.09375 3.203125 L 5.394531 3.203125 L 5.152344 3.382812 L 5.246094 3.671875 L 5 3.492188 L 4.753906 3.671875 L 4.847656 3.382812 L 4.605469 3.203125 L 4.90625 3.203125 Z M 4.167969 5.832031 L 4.261719 6.121094 L 4.5625 6.121094 L 4.316406 6.300781 L 4.410156 6.585938 L 4.167969 6.410156 L 3.921875 6.585938 L 4.015625 6.300781 L 3.769531 6.121094 L 4.074219 6.121094 Z M 5.832031 5.832031 L 5.925781 6.121094 L 6.230469 6.121094 L 5.984375 6.300781 L 6.078125 6.585938 L 5.832031 6.410156 L 5.589844 6.585938 L 5.683594 6.300781 L 5.4375 6.121094 L 5.738281 6.121094 Z M 3.75 4.167969 L 3.84375 4.453125 L 4.144531 4.453125 L 3.902344 4.632812 L 3.996094 4.921875 L 3.75 4.742188 L 3.503906 4.921875 L 3.597656 4.632812 L 3.355469 4.453125 L 3.65625 4.453125 Z M 6.25 4.167969 L 6.34375 4.453125 L 6.644531 4.453125 L 6.402344 4.632812 L 6.496094 4.921875 L 6.25 4.742188 L 6.003906 4.921875 L 6.097656 4.632812 L 5.855469 4.453125 L 6.15625 4.453125 Z M 6.25 4.167969 "/>
</g>
</svg>
