<?xml version="1.0" encoding="UTF-8"?>
<svg xmlns="http://www.w3.org/2000/svg" xmlns:xlink="http://www.w3.org/1999/xlink" width="15pt" height="15pt" viewBox="0 0 15 15" version="1.1">
<g id="surface1">
<path style=" stroke:none;fill-rule:nonzero;fill:rgb(80.784314%,6.666667%,14.901961%);fill-opacity:1;" d="M 15 11.25 C 15 12.171875 14.253906 12.917969 13.332031 12.917969 L 1.667969 12.917969 C 0.746094 12.917969 0 12.171875 0 11.25 L 0 3.75 C 0 2.828125 0.746094 2.082031 1.667969 2.082031 L 13.332031 2.082031 C 14.253906 2.082031 15 2.828125 15 3.75 Z M 15 11.25 "/>
<path style=" stroke:none;fill-rule:nonzero;fill:rgb(0%,21.960784%,65.882353%);fill-opacity:1;" d="M 13.332031 2.082031 L 1.667969 2.082031 C 0.746094 2.082031 0 2.828125 0 3.75 L 0 7.5 L 15 7.5 L 15 3.75 C 15 2.828125 14.253906 2.082031 13.332031 2.082031 Z M 13.332031 2.082031 "/>
<path style=" stroke:none;fill-rule:nonzero;fill:rgb(93.333333%,93.333333%,93.333333%);fill-opacity:1;" d="M 0.546875 12.476562 L 7.929688 7.527344 L 0.554688 2.515625 C 0.214844 2.820312 0 3.257812 0 3.75 L 0 11.25 C 0 11.738281 0.214844 12.171875 0.546875 12.476562 Z M 0.546875 12.476562 "/>
<path style=" stroke:none;fill-rule:nonzero;fill:rgb(98.823529%,81.960784%,8.627451%);fill-opacity:1;" d="M 6.695312 6.882812 L 6.714844 7.363281 L 7.179688 7.484375 L 6.726562 7.652344 L 6.753906 8.132812 L 6.457031 7.753906 L 6.007812 7.925781 L 6.277344 7.527344 L 5.972656 7.15625 L 6.4375 7.289062 Z M 0.667969 3.324219 L 1.027344 3.644531 L 1.4375 3.390625 L 1.246094 3.832031 L 1.613281 4.140625 L 1.132812 4.097656 L 0.953125 4.542969 L 0.847656 4.074219 L 0.367188 4.035156 L 0.78125 3.792969 Z M 0.847656 10.496094 L 1.085938 10.914062 L 1.554688 10.808594 L 1.234375 11.164062 L 1.480469 11.574219 L 1.042969 11.378906 L 0.726562 11.742188 L 0.777344 11.261719 L 0.335938 11.074219 L 0.804688 10.976562 Z M 4.167969 7.5 C 4.167969 8.191406 3.605469 8.75 2.917969 8.75 C 2.226562 8.75 1.667969 8.191406 1.667969 7.5 C 1.667969 6.808594 2.226562 6.25 2.917969 6.25 C 3.605469 6.25 4.167969 6.808594 4.167969 7.5 Z M 4.167969 7.5 "/>
<path style=" stroke:none;fill-rule:nonzero;fill:rgb(98.823529%,81.960784%,8.627451%);fill-opacity:1;" d="M 3.164062 5.25 L 3.097656 6.351562 L 2.996094 6.335938 L 3.03125 5.054688 L 2.917969 4.980469 L 2.800781 5.054688 L 2.835938 6.335938 L 2.734375 6.351562 L 2.667969 5.25 L 2.523438 5.339844 L 2.660156 6.464844 L 3.175781 6.464844 L 3.3125 5.339844 Z M 2.667969 9.75 L 2.734375 8.648438 L 2.835938 8.664062 L 2.800781 9.945312 L 2.917969 10.019531 L 3.03125 9.945312 L 2.996094 8.664062 L 3.097656 8.648438 L 3.164062 9.75 L 3.3125 9.660156 L 3.175781 8.535156 L 2.660156 8.535156 L 2.523438 9.660156 Z M 1.148438 8.917969 L 1.976562 8.183594 L 2.035156 8.265625 L 1.105469 9.144531 L 1.136719 9.28125 L 1.269531 9.308594 L 2.152344 8.378906 L 2.234375 8.441406 L 1.5 9.265625 L 1.667969 9.308594 L 2.367188 8.414062 L 2.183594 8.234375 L 2 8.050781 L 1.109375 8.75 Z M 4.683594 6.082031 L 3.855469 6.816406 L 3.796875 6.734375 L 4.726562 5.855469 L 4.699219 5.71875 L 4.5625 5.691406 L 3.683594 6.621094 L 3.597656 6.558594 L 4.332031 5.734375 L 4.164062 5.691406 L 3.46875 6.585938 L 3.832031 6.949219 L 4.722656 6.25 Z M 0.664062 7.253906 L 1.769531 7.316406 L 1.753906 7.417969 L 0.472656 7.382812 L 0.398438 7.5 L 0.472656 7.617188 L 1.753906 7.582031 L 1.769531 7.683594 L 0.664062 7.746094 L 0.757812 7.894531 L 1.878906 7.757812 L 1.878906 7.242188 L 0.757812 7.105469 Z M 5.167969 7.746094 L 4.0625 7.683594 L 4.078125 7.582031 L 5.359375 7.617188 L 5.4375 7.5 L 5.359375 7.382812 L 4.078125 7.417969 L 4.0625 7.316406 L 5.167969 7.253906 L 5.078125 7.105469 L 3.953125 7.242188 L 3.953125 7.757812 L 5.078125 7.894531 Z M 1.5 5.734375 L 2.234375 6.558594 L 2.152344 6.621094 L 1.269531 5.691406 L 1.136719 5.71875 L 1.105469 5.855469 L 2.035156 6.734375 L 1.976562 6.816406 L 1.148438 6.082031 L 1.109375 6.25 L 2 6.949219 L 2.183594 6.765625 L 2.367188 6.585938 L 1.667969 5.691406 Z M 4.332031 9.265625 L 3.597656 8.441406 L 3.683594 8.378906 L 4.5625 9.308594 L 4.699219 9.28125 L 4.726562 9.144531 L 3.796875 8.265625 L 3.855469 8.183594 L 4.683594 8.917969 L 4.722656 8.75 L 3.832031 8.050781 L 3.46875 8.414062 L 4.164062 9.308594 Z M 4.332031 9.265625 "/>
</g>
</svg>
