<?xml version="1.0" encoding="UTF-8"?>
<svg xmlns="http://www.w3.org/2000/svg" xmlns:xlink="http://www.w3.org/1999/xlink" width="15pt" height="15pt" viewBox="0 0 15 15" version="1.1">
<g id="surface1">
<path style=" stroke:none;fill-rule:nonzero;fill:rgb(0%,41.568627%,30.588235%);fill-opacity:1;" d="M 0 11.25 C 0 12.171875 0.746094 12.917969 1.667969 12.917969 L 13.332031 12.917969 C 14.253906 12.917969 15 12.171875 15 11.25 L 15 10.75 L 0 10.75 Z M 6.46875 8.542969 L 6.457031 8.542969 L 15 8.582031 L 15 6.417969 L 6.46875 6.417969 Z M 13.332031 2.082031 L 6.46875 2.082031 L 6.46875 4.25 L 15 4.25 L 15 3.75 C 15 2.828125 14.253906 2.082031 13.332031 2.082031 Z M 13.332031 2.082031 "/>
<path style=" stroke:none;fill-rule:nonzero;fill:rgb(100%,80.784314%,0%);fill-opacity:1;" d="M 6.46875 6.390625 L 6.46875 6.417969 L 15 6.417969 L 15 4.25 L 6.46875 4.25 Z M 0.0117188 8.542969 L 0 10.75 L 15 10.75 L 15 8.582031 L 6.457031 8.542969 Z M 0.0117188 8.542969 "/>
<path style=" stroke:none;fill-rule:nonzero;fill:rgb(82.352941%,6.27451%,20.392157%);fill-opacity:1;" d="M 1.667969 2.082031 C 0.78125 2.082031 0.0664062 2.773438 0.0117188 3.644531 L 0.0117188 8.542969 L 6.46875 8.542969 L 6.46875 2.082031 Z M 1.667969 2.082031 "/>
<path style=" stroke:none;fill-rule:nonzero;fill:rgb(100%,100%,100%);fill-opacity:1;" d="M 5.140625 4.753906 L 3.703125 4.753906 L 3.695312 4.738281 L 3.238281 3.332031 L 3.230469 3.363281 L 2.777344 4.753906 L 1.28125 4.753906 L 2.472656 5.621094 L 2.492188 5.632812 L 2.046875 7.003906 L 2.03125 7.058594 L 3.238281 6.179688 L 4.449219 7.058594 L 3.988281 5.632812 L 5.199219 4.753906 Z M 5.140625 4.753906 "/>
</g>
</svg>
