<?xml version="1.0" encoding="UTF-8"?>
<svg xmlns="http://www.w3.org/2000/svg" xmlns:xlink="http://www.w3.org/1999/xlink" width="15pt" height="15pt" viewBox="0 0 15 15" version="1.1">
<g id="surface1">
<path style=" stroke:none;fill-rule:nonzero;fill:rgb(23.137255%,53.333333%,76.470588%);fill-opacity:1;" d="M 15 13.332031 C 15 14.253906 14.253906 15 13.332031 15 L 1.667969 15 C 0.746094 15 0 14.253906 0 13.332031 L 0 1.667969 C 0 0.746094 0.746094 0 1.667969 0 L 13.332031 0 C 14.253906 0 15 0.746094 15 1.667969 Z M 15 13.332031 "/>
<path style=" stroke:none;fill-rule:nonzero;fill:rgb(100%,100%,100%);fill-opacity:1;" d="M 10.117188 10.378906 C 10.660156 10.378906 11.046875 10.675781 11.046875 11.230469 C 11.046875 11.722656 10.582031 12.082031 10.117188 12.082031 L 5.039062 12.082031 C 4.355469 12.082031 3.953125 11.695312 3.953125 11.152344 C 3.953125 10.894531 4.046875 10.636719 4.214844 10.402344 L 8.371094 4.589844 L 4.976562 4.589844 C 4.457031 4.589844 4.070312 4.292969 4.070312 3.765625 C 4.070312 3.273438 4.484375 2.886719 4.976562 2.886719 L 9.703125 2.886719 C 10.453125 2.886719 10.789062 3.363281 10.789062 3.816406 C 10.789062 4.097656 10.671875 4.421875 10.503906 4.640625 L 6.371094 10.378906 Z M 10.117188 10.378906 "/>
</g>
</svg>
