<?xml version="1.0" encoding="UTF-8"?>
<svg xmlns="http://www.w3.org/2000/svg" xmlns:xlink="http://www.w3.org/1999/xlink" width="15pt" height="15pt" viewBox="0 0 15 15" version="1.1">
<g id="surface1">
<path style=" stroke:none;fill-rule:nonzero;fill:rgb(0%,58.431373%,26.27451%);fill-opacity:1;" d="M 15 11.25 C 15 12.171875 14.253906 12.917969 13.332031 12.917969 L 1.667969 12.917969 C 0.746094 12.917969 0 12.171875 0 11.25 L 0 3.75 C 0 2.828125 0.746094 2.082031 1.667969 2.082031 L 13.332031 2.082031 C 14.253906 2.082031 15 2.828125 15 3.75 Z M 15 11.25 "/>
<path style=" stroke:none;fill-rule:nonzero;fill:rgb(93.333333%,93.333333%,93.333333%);fill-opacity:1;" d="M 0 5.417969 L 15 5.417969 L 15 9.582031 L 0 9.582031 Z M 0 5.417969 "/>
<path style=" stroke:none;fill-rule:nonzero;fill:rgb(0%,12.54902%,62.352941%);fill-opacity:1;" d="M 13.332031 2.082031 L 1.667969 2.082031 C 0.746094 2.082031 0 2.828125 0 3.75 L 0 5.417969 L 15 5.417969 L 15 3.75 C 15 2.828125 14.253906 2.082031 13.332031 2.082031 Z M 13.332031 2.082031 "/>
<path style=" stroke:none;fill-rule:evenodd;fill:rgb(16.078431%,18.431373%,20%);fill-opacity:1;" d="M 8.832031 8.273438 C 8.828125 8.253906 8.65625 8.332031 8.65625 8.332031 L 7.886719 7.347656 C 7.980469 7.179688 8.089844 6.902344 8.089844 6.554688 C 8.089844 6.039062 7.816406 5.902344 7.640625 5.867188 L 7.640625 5.84375 C 7.640625 5.773438 7.582031 5.714844 7.511719 5.714844 L 7.488281 5.714844 C 7.414062 5.714844 7.359375 5.773438 7.359375 5.84375 L 7.359375 5.867188 C 7.183594 5.902344 6.910156 6.039062 6.910156 6.554688 C 6.910156 6.910156 7.023438 7.191406 7.121094 7.359375 L 6.386719 8.332031 C 6.386719 8.332031 6.238281 8.253906 6.230469 8.273438 C 6.222656 8.292969 5.917969 8.78125 5.917969 8.78125 C 5.917969 8.78125 6.570312 9.207031 7.5 9.207031 C 8.332031 9.207031 9.113281 8.78125 9.113281 8.78125 C 9.113281 8.78125 8.839844 8.292969 8.832031 8.273438 Z M 7.957031 6.574219 C 7.957031 6.804688 7.863281 7.058594 7.777344 7.210938 L 7.632812 7.023438 C 7.632812 7.015625 7.640625 7.011719 7.640625 7.003906 L 7.640625 6.699219 L 7.84375 6.699219 L 7.640625 6.496094 L 7.640625 6.027344 C 7.847656 6.101562 7.957031 6.328125 7.957031 6.574219 Z M 7.042969 6.574219 C 7.042969 6.328125 7.152344 6.101562 7.359375 6.027344 L 7.359375 6.496094 L 7.15625 6.699219 L 7.359375 6.699219 L 7.359375 7.003906 C 7.359375 7.011719 7.367188 7.019531 7.367188 7.027344 L 7.226562 7.21875 C 7.140625 7.066406 7.042969 6.8125 7.042969 6.574219 Z M 7.042969 6.574219 "/>
<path style=" stroke:none;fill-rule:evenodd;fill:rgb(32.54902%,39.215686%,42.745098%);fill-opacity:1;" d="M 8.664062 8.476562 C 8.664062 8.476562 8.074219 8.695312 7.5 8.695312 C 6.925781 8.695312 6.335938 8.476562 6.335938 8.476562 L 6.191406 8.746094 C 6.191406 8.746094 6.796875 9.015625 7.5 9.015625 C 8.203125 9.015625 8.808594 8.746094 8.808594 8.746094 Z M 8.664062 8.476562 "/>
</g>
</svg>
