<?xml version="1.0" encoding="UTF-8"?>
<svg xmlns="http://www.w3.org/2000/svg" xmlns:xlink="http://www.w3.org/1999/xlink" width="15pt" height="15pt" viewBox="0 0 15 15" version="1.1">
<g id="surface1">
<path style=" stroke:none;fill-rule:nonzero;fill:rgb(90.980392%,6.666667%,17.647059%);fill-opacity:1;" d="M 15 11.25 C 15 12.171875 14.253906 12.917969 13.332031 12.917969 L 1.667969 12.917969 C 0.746094 12.917969 0 12.171875 0 11.25 L 0 3.75 C 0 2.828125 0.746094 2.082031 1.667969 2.082031 L 13.332031 2.082031 C 14.253906 2.082031 15 2.828125 15 3.75 Z M 15 11.25 "/>
<path style=" stroke:none;fill-rule:nonzero;fill:rgb(100%,80%,30.196078%);fill-opacity:1;" d="M 7.695312 4.996094 C 7.703125 4.558594 8.089844 4.257812 8.105469 3.679688 C 8.382812 4.027344 7.925781 4.679688 8.085938 5.054688 C 8.160156 4.628906 8.589844 4.390625 8.695312 3.820312 C 8.914062 4.207031 8.359375 4.78125 8.460938 5.179688 C 8.601562 4.765625 9.0625 4.601562 9.253906 4.054688 C 9.410156 4.46875 8.777344 4.949219 8.8125 5.355469 C 9.015625 4.972656 9.496094 4.878906 9.773438 4.371094 C 9.863281 4.804688 9.160156 5.179688 9.132812 5.589844 C 9.394531 5.238281 9.882812 5.222656 10.234375 4.765625 C 10.253906 5.207031 9.503906 5.464844 9.410156 5.867188 C 9.722656 5.5625 10.207031 5.625 10.628906 5.226562 C 10.578125 5.667969 9.796875 5.804688 9.644531 6.1875 C 10 5.933594 10.46875 6.070312 10.945312 5.742188 C 10.828125 6.171875 10.03125 6.183594 9.824219 6.539062 C 10.214844 6.347656 10.65625 6.554688 11.179688 6.304688 C 10.996094 6.707031 10.207031 6.597656 9.945312 6.914062 C 10.359375 6.785156 10.765625 7.058594 11.320312 6.894531 C 11.074219 7.265625 10.316406 7.03125 10.007812 7.304688 C 10.4375 7.242188 10.792969 7.574219 11.367188 7.5 C 11.070312 7.828125 10.355469 7.476562 10.007812 7.695312 C 10.441406 7.703125 10.742188 8.089844 11.320312 8.105469 C 10.972656 8.382812 10.320312 7.921875 9.945312 8.085938 C 10.375 8.160156 10.609375 8.589844 11.179688 8.695312 C 10.792969 8.914062 10.222656 8.359375 9.820312 8.460938 C 10.234375 8.601562 10.402344 9.0625 10.945312 9.253906 C 10.53125 9.410156 10.054688 8.777344 9.644531 8.8125 C 10.027344 9.015625 10.121094 9.496094 10.628906 9.773438 C 10.195312 9.863281 9.820312 9.160156 9.410156 9.132812 C 9.761719 9.394531 9.777344 9.882812 10.234375 10.234375 C 9.792969 10.253906 9.53125 9.503906 9.132812 9.410156 C 9.4375 9.722656 9.375 10.207031 9.773438 10.628906 C 9.332031 10.578125 9.195312 9.796875 8.8125 9.644531 C 9.0625 10 8.929688 10.46875 9.253906 10.945312 C 8.828125 10.828125 8.816406 10.03125 8.460938 9.824219 C 8.65625 10.214844 8.445312 10.65625 8.695312 11.179688 C 8.289062 10.996094 8.402344 10.207031 8.085938 9.945312 C 8.214844 10.359375 7.941406 10.765625 8.105469 11.320312 C 7.734375 11.074219 7.96875 10.316406 7.695312 10.007812 C 7.757812 10.4375 7.425781 10.792969 7.5 11.367188 C 7.171875 11.070312 7.523438 10.355469 7.304688 10.007812 C 7.296875 10.441406 6.910156 10.742188 6.894531 11.320312 C 6.617188 10.972656 7.074219 10.320312 6.914062 9.945312 C 6.839844 10.375 6.410156 10.609375 6.304688 11.179688 C 6.085938 10.792969 6.640625 10.222656 6.539062 9.824219 C 6.398438 10.234375 5.9375 10.402344 5.742188 10.945312 C 5.589844 10.53125 6.222656 10.054688 6.1875 9.644531 C 5.984375 10.027344 5.503906 10.121094 5.226562 10.628906 C 5.136719 10.195312 5.839844 9.820312 5.867188 9.410156 C 5.605469 9.761719 5.121094 9.777344 4.765625 10.234375 C 4.746094 9.792969 5.5 9.53125 5.589844 9.132812 C 5.277344 9.4375 4.792969 9.375 4.371094 9.773438 C 4.421875 9.332031 5.203125 9.195312 5.355469 8.8125 C 5 9.0625 4.53125 8.929688 4.054688 9.253906 C 4.171875 8.828125 4.96875 8.816406 5.179688 8.460938 C 4.789062 8.65625 4.347656 8.445312 3.820312 8.695312 C 4.003906 8.289062 4.792969 8.402344 5.054688 8.085938 C 4.640625 8.214844 4.238281 7.941406 3.679688 8.105469 C 3.925781 7.734375 4.683594 7.96875 4.996094 7.695312 C 4.5625 7.757812 4.207031 7.425781 3.632812 7.5 C 3.933594 7.171875 4.648438 7.523438 4.996094 7.304688 C 4.558594 7.296875 4.257812 6.910156 3.679688 6.894531 C 4.027344 6.617188 4.679688 7.074219 5.054688 6.914062 C 4.628906 6.839844 4.390625 6.410156 3.820312 6.304688 C 4.207031 6.085938 4.78125 6.640625 5.179688 6.539062 C 4.765625 6.398438 4.601562 5.9375 4.054688 5.742188 C 4.46875 5.589844 4.949219 6.222656 5.355469 6.1875 C 4.972656 5.984375 4.878906 5.503906 4.371094 5.226562 C 4.804688 5.136719 5.179688 5.839844 5.589844 5.867188 C 5.242188 5.605469 5.222656 5.121094 4.765625 4.765625 C 5.207031 4.746094 5.464844 5.5 5.867188 5.589844 C 5.5625 5.277344 5.625 4.792969 5.226562 4.371094 C 5.667969 4.421875 5.804688 5.203125 6.1875 5.355469 C 5.933594 5 6.070312 4.53125 5.746094 4.054688 C 6.171875 4.171875 6.183594 4.96875 6.539062 5.179688 C 6.347656 4.789062 6.554688 4.347656 6.304688 3.820312 C 6.710938 4.003906 6.597656 4.792969 6.914062 5.054688 C 6.785156 4.640625 7.058594 4.238281 6.894531 3.679688 C 7.265625 3.925781 7.03125 4.683594 7.304688 4.996094 C 7.242188 4.5625 7.574219 4.207031 7.5 3.632812 C 7.828125 3.933594 7.476562 4.648438 7.695312 4.996094 Z M 7.695312 4.996094 "/>
<path style=" stroke:none;fill-rule:nonzero;fill:rgb(90.980392%,6.666667%,17.647059%);fill-opacity:1;" d="M 7.5 9.542969 C 8.628906 9.542969 9.542969 8.628906 9.542969 7.5 C 9.542969 6.371094 8.628906 5.457031 7.5 5.457031 C 6.371094 5.457031 5.457031 6.371094 5.457031 7.5 C 5.457031 8.628906 6.371094 9.542969 7.5 9.542969 Z M 7.5 9.542969 "/>
<path style=" stroke:none;fill-rule:nonzero;fill:rgb(100%,80%,30.196078%);fill-opacity:1;" d="M 7.5 5.605469 C 8.023438 5.605469 8.492188 5.828125 8.816406 6.183594 C 8.304688 6.238281 7.871094 6.359375 7.5 6.542969 C 7.128906 6.359375 6.695312 6.238281 6.183594 6.183594 C 6.511719 5.828125 6.980469 5.605469 7.5 5.605469 Z M 7.367188 6.613281 C 7.324219 6.636719 7.285156 6.660156 7.246094 6.683594 C 6.914062 6.507812 6.515625 6.394531 6.042969 6.359375 C 6.0625 6.332031 6.085938 6.300781 6.109375 6.273438 C 6.601562 6.316406 7.015625 6.433594 7.367188 6.613281 Z M 7.636719 6.613281 C 7.675781 6.636719 7.71875 6.660156 7.757812 6.683594 C 8.089844 6.507812 8.484375 6.394531 8.960938 6.359375 C 8.9375 6.332031 8.914062 6.300781 8.890625 6.273438 C 8.398438 6.316406 7.984375 6.433594 7.636719 6.613281 Z M 5.980469 6.453125 C 5.964844 6.484375 5.945312 6.515625 5.929688 6.546875 C 6.367188 6.558594 6.738281 6.660156 7.039062 6.824219 C 7.074219 6.800781 7.105469 6.777344 7.136719 6.757812 C 6.820312 6.582031 6.4375 6.476562 5.980469 6.453125 Z M 5.929688 8.226562 C 5.773438 7.964844 5.71875 7.714844 5.71875 7.386719 C 5.71875 7.121094 5.777344 6.867188 5.878906 6.640625 C 6.304688 6.640625 6.660156 6.734375 6.953125 6.894531 C 6.523438 7.246094 6.171875 7.660156 5.929688 8.226562 Z M 6.773438 9.015625 C 6.695312 8.984375 6.605469 8.894531 6.53125 8.855469 C 6.574219 8.183594 6.886719 7.632812 7.324219 7.171875 C 7.355469 7.203125 7.386719 7.234375 7.417969 7.265625 C 7.011719 7.742188 6.75 8.359375 6.773438 9.015625 Z M 9.019531 6.453125 C 9.039062 6.484375 9.054688 6.515625 9.074219 6.546875 C 8.632812 6.558594 8.261719 6.660156 7.960938 6.824219 C 7.929688 6.800781 7.894531 6.777344 7.863281 6.757812 C 8.179688 6.582031 8.5625 6.476562 9.019531 6.453125 Z M 9.019531 6.453125 "/>
<path style=" stroke:none;fill-rule:nonzero;fill:rgb(100%,80%,30.196078%);fill-opacity:1;" d="M 9.074219 8.226562 C 9.226562 7.964844 9.28125 7.714844 9.28125 7.386719 C 9.28125 7.121094 9.226562 6.867188 9.121094 6.640625 C 8.695312 6.640625 8.339844 6.734375 8.046875 6.894531 C 8.480469 7.246094 8.828125 7.660156 9.074219 8.226562 Z M 7.5 7.421875 C 7.820312 7.933594 7.882812 8.496094 7.863281 9.132812 C 7.726562 9.167969 7.648438 9.167969 7.5 9.167969 C 7.351562 9.167969 7.277344 9.167969 7.136719 9.132812 C 7.121094 8.527344 7.179688 7.953125 7.5 7.421875 Z M 8.226562 9.015625 C 8.304688 8.984375 8.394531 8.921875 8.46875 8.878906 C 8.425781 8.210938 8.113281 7.632812 7.675781 7.171875 C 7.644531 7.203125 7.613281 7.234375 7.582031 7.269531 C 7.988281 7.742188 8.246094 8.359375 8.226562 9.015625 Z M 7.21875 7.074219 C 7.179688 7.042969 7.136719 7.011719 7.097656 6.984375 C 6.644531 7.382812 6.308594 7.847656 6.121094 8.480469 C 6.191406 8.558594 6.1875 8.621094 6.269531 8.683594 C 6.386719 8.019531 6.765625 7.511719 7.21875 7.074219 Z M 7.78125 7.074219 C 7.820312 7.042969 7.863281 7.011719 7.90625 6.984375 C 8.355469 7.382812 8.691406 7.859375 8.878906 8.488281 C 8.808594 8.570312 8.800781 8.621094 8.71875 8.683594 C 8.601562 8.019531 8.234375 7.511719 7.78125 7.074219 Z M 7.5 6.6875 C 7.523438 6.703125 7.601562 6.75 7.621094 6.765625 C 7.589844 6.78125 7.519531 6.828125 7.5 6.84375 C 7.480469 6.828125 7.410156 6.78125 7.382812 6.765625 C 7.402344 6.75 7.476562 6.703125 7.5 6.6875 Z M 7.273438 6.839844 C 7.246094 6.859375 7.199219 6.894531 7.179688 6.910156 C 7.222656 6.941406 7.285156 6.984375 7.300781 7 C 7.324219 6.980469 7.371094 6.941406 7.394531 6.921875 C 7.363281 6.898438 7.296875 6.851562 7.273438 6.839844 Z M 7.726562 6.839844 C 7.757812 6.859375 7.800781 6.894531 7.820312 6.910156 C 7.777344 6.941406 7.71875 6.984375 7.699219 7 C 7.675781 6.980469 7.628906 6.941406 7.605469 6.921875 C 7.636719 6.898438 7.703125 6.851562 7.726562 6.839844 Z M 7.5 7.003906 C 7.519531 7.019531 7.578125 7.070312 7.59375 7.085938 C 7.566406 7.113281 7.523438 7.152344 7.5 7.175781 C 7.476562 7.152344 7.433594 7.113281 7.40625 7.085938 C 7.421875 7.070312 7.480469 7.019531 7.5 7.003906 Z M 7.5 7.003906 "/>
</g>
</svg>
