<?xml version="1.0" encoding="UTF-8"?>
<svg xmlns="http://www.w3.org/2000/svg" xmlns:xlink="http://www.w3.org/1999/xlink" width="15pt" height="15pt" viewBox="0 0 15 15" version="1.1">
<g id="surface1">
<path style=" stroke:none;fill-rule:nonzero;fill:rgb(80.784314%,14.509804%,25.098039%);fill-opacity:1;" d="M 13.332031 2.082031 L 1.667969 2.082031 C 0.746094 2.082031 0 2.828125 0 3.75 L 0 11.25 C 0 12.171875 0.746094 12.917969 1.667969 12.917969 L 13.332031 12.917969 C 14.253906 12.917969 15 12.171875 15 11.25 L 15 3.75 C 15 2.828125 14.253906 2.082031 13.332031 2.082031 Z M 13.332031 2.082031 "/>
<path style=" stroke:none;fill-rule:nonzero;fill:rgb(5.882353%,39.215686%,20%);fill-opacity:1;" d="M 0 3.75 L 0 11.25 L 15 11.25 L 15 3.75 Z M 0 3.75 "/>
<path style=" stroke:none;fill-rule:nonzero;fill:rgb(100%,77.254902%,7.843137%);fill-opacity:1;" d="M 6.222656 5.277344 L 7.011719 5.847656 L 6.710938 6.773438 L 6.710938 6.777344 L 6.714844 6.773438 L 7.5 6.203125 L 8.285156 6.773438 L 8.289062 6.777344 L 8.289062 6.773438 L 7.988281 5.847656 L 8.777344 5.277344 L 7.800781 5.277344 L 7.5 4.347656 L 7.199219 5.277344 Z M 6.222656 5.277344 "/>
<path style=" stroke:none;fill-rule:nonzero;fill:rgb(100%,77.254902%,7.843137%);fill-opacity:1;" d="M 10.875 5.683594 C 10.867188 7.542969 9.359375 9.046875 7.5 9.046875 C 5.640625 9.046875 4.132812 7.542969 4.125 5.683594 C 4.046875 5.972656 4.003906 6.277344 4.003906 6.589844 C 4.003906 8.519531 5.566406 10.085938 7.5 10.085938 C 9.433594 10.085938 11 8.519531 11 6.589844 C 10.996094 6.277344 10.953125 5.972656 10.875 5.683594 Z M 10.875 5.683594 "/>
</g>
</svg>
