<?xml version="1.0" encoding="UTF-8"?>
<svg xmlns="http://www.w3.org/2000/svg" xmlns:xlink="http://www.w3.org/1999/xlink" width="15pt" height="15pt" viewBox="0 0 15 15" version="1.1">
<g id="surface1">
<path style=" stroke:none;fill-rule:nonzero;fill:rgb(91.764706%,15.686275%,22.352941%);fill-opacity:1;" d="M 0 11.25 C 0 12.171875 0.746094 12.917969 1.667969 12.917969 L 13.332031 12.917969 C 14.253906 12.917969 15 12.171875 15 11.25 L 15 9.582031 L 0 9.582031 Z M 0 11.25 "/>
<path style=" stroke:none;fill-rule:nonzero;fill:rgb(20.392157%,69.803922%,19.607843%);fill-opacity:1;" d="M 0 5.417969 L 15 5.417969 L 15 9.582031 L 0 9.582031 Z M 0 5.417969 "/>
<path style=" stroke:none;fill-rule:nonzero;fill:rgb(99.607843%,79.607843%,0.392157%);fill-opacity:1;" d="M 13.332031 2.082031 L 1.667969 2.082031 C 0.746094 2.082031 0 2.828125 0 3.75 L 0 5.417969 L 15 5.417969 L 15 3.75 C 15 2.828125 14.253906 2.082031 13.332031 2.082031 Z M 13.332031 2.082031 "/>
<path style=" stroke:none;fill-rule:nonzero;fill:rgb(100%,100%,100%);fill-opacity:1;" d="M 7.5 3.648438 L 8.480469 6.667969 L 11.652344 6.667969 L 9.085938 8.472656 L 10.066406 11.460938 L 7.5 9.578125 L 4.933594 11.4375 L 5.914062 8.476562 L 3.347656 6.667969 L 6.519531 6.667969 Z M 7.5 3.648438 "/>
</g>
</svg>
