<?xml version="1.0" encoding="UTF-8"?>
<svg xmlns="http://www.w3.org/2000/svg" xmlns:xlink="http://www.w3.org/1999/xlink" width="15pt" height="15pt" viewBox="0 0 15 15" version="1.1">
<g id="surface1">
<path style=" stroke:none;fill-rule:nonzero;fill:rgb(7.843137%,7.843137%,7.843137%);fill-opacity:1;" d="M 15 11.25 C 15 12.171875 14.253906 12.917969 13.332031 12.917969 L 1.667969 12.917969 C 0.746094 12.917969 0 12.171875 0 11.25 L 0 3.75 C 0 2.828125 0.746094 2.082031 1.667969 2.082031 L 13.332031 2.082031 C 14.253906 2.082031 15 2.828125 15 3.75 Z M 15 11.25 "/>
<path style=" stroke:none;fill-rule:nonzero;fill:rgb(80.784314%,6.666667%,14.901961%);fill-opacity:1;" d="M 14.425781 12.5 C 14.773438 12.195312 15 11.75 15 11.25 L 15 3.75 C 15 2.828125 14.253906 2.082031 13.332031 2.082031 L 1.667969 2.082031 C 1.246094 2.082031 0.867188 2.242188 0.574219 2.5 Z M 14.425781 12.5 "/>
<path style=" stroke:none;fill-rule:nonzero;fill:rgb(100%,100%,100%);fill-opacity:1;" d="M 3.21875 5.640625 L 3.375 6.1875 L 3.929688 6.1875 L 3.492188 6.523438 L 3.652344 7.054688 L 3.21875 6.722656 L 2.78125 7.039062 L 2.941406 6.523438 L 2.503906 6.1875 L 3.042969 6.1875 Z M 1.542969 7.777344 L 1.703125 8.328125 L 2.253906 8.328125 L 1.820312 8.660156 L 1.980469 9.195312 L 1.542969 8.859375 L 1.109375 9.179688 L 1.269531 8.660156 L 0.832031 8.328125 L 1.371094 8.328125 Z M 3.21875 10.667969 L 3.375 11.214844 L 3.929688 11.214844 L 3.492188 11.550781 L 3.652344 12.082031 L 3.21875 11.75 L 2.78125 12.066406 L 2.941406 11.550781 L 2.503906 11.214844 L 3.042969 11.214844 Z M 3.964844 9.503906 L 4.042969 9.777344 L 4.320312 9.777344 L 4.101562 9.945312 L 4.183594 10.210938 L 3.964844 10.042969 L 3.746094 10.203125 L 3.824219 9.945312 L 3.609375 9.777344 L 3.875 9.777344 Z M 4.882812 7.625 L 5.042969 8.175781 L 5.59375 8.175781 L 5.15625 8.507812 L 5.316406 9.042969 L 4.882812 8.707031 L 4.445312 9.027344 L 4.605469 8.507812 L 4.171875 8.175781 L 4.707031 8.175781 Z M 4.882812 7.625 "/>
<path style=" stroke:none;fill-rule:nonzero;fill:rgb(98.823529%,81.960784%,8.627451%);fill-opacity:1;" d="M 9.46875 5.304688 C 9.339844 5.472656 9.035156 5.140625 8.671875 5.132812 C 8.304688 5.125 8.046875 5.480469 7.941406 5.601562 C 7.835938 5.722656 7.492188 6.363281 7.5 6.429688 C 7.507812 6.5 7.714844 6.238281 7.789062 6.195312 C 7.796875 6.285156 7.703125 6.390625 7.726562 6.421875 C 7.75 6.453125 7.996094 6.238281 8.078125 6.234375 C 8.101562 6.292969 8.03125 6.355469 8.054688 6.445312 C 8.085938 6.476562 8.222656 6.292969 8.3125 6.253906 C 8.328125 6.324219 8.230469 6.453125 8.28125 6.535156 C 8.320312 6.542969 8.550781 6.277344 8.625 6.25 C 8.699219 6.21875 8.585938 6.5 8.625 6.523438 C 8.691406 6.476562 8.90625 6.234375 8.972656 6.203125 C 9.042969 6.171875 8.964844 6.515625 8.996094 6.515625 C 9.082031 6.453125 9.292969 6.164062 9.316406 6.121094 C 9.339844 6.074219 9.292969 6.558594 9.527344 6.816406 C 9.765625 7.078125 10.121094 7.371094 10.160156 7.371094 C 10.207031 7.289062 10.144531 7.113281 10.183594 7.121094 C 10.289062 7.234375 10.488281 7.402344 10.53125 7.402344 C 10.578125 7.402344 10.503906 7.222656 10.5625 7.222656 C 10.683594 7.335938 11.035156 7.785156 11.71875 7.988281 C 11.671875 7.859375 11.574219 7.746094 11.566406 7.683594 C 11.609375 7.691406 11.769531 7.769531 11.800781 7.761719 C 11.832031 7.753906 11.464844 7.304688 11.488281 7.246094 C 11.574219 7.234375 11.609375 7.289062 11.640625 7.25 C 11.601562 7.191406 11.285156 6.832031 11.285156 6.75 C 11.285156 6.667969 11.382812 6.765625 11.414062 6.75 C 11.445312 6.734375 11.292969 6.417969 11.320312 6.378906 C 11.351562 6.339844 11.6875 6.582031 11.769531 6.582031 C 11.855469 6.582031 11.792969 6.285156 11.832031 6.273438 C 11.871094 6.257812 12.152344 6.429688 12.210938 6.429688 C 12.273438 6.429688 12.265625 6.300781 12.289062 6.316406 C 12.308594 6.332031 12.972656 6.992188 12.742188 7.769531 C 12.515625 8.324219 12.058594 8.617188 11.390625 8.375 C 11.429688 8.4375 11.785156 8.734375 12.171875 8.625 C 12.5625 8.519531 13.03125 8.214844 12.980469 7.457031 C 12.925781 6.695312 12.675781 6.589844 12.636719 6.476562 C 12.597656 6.363281 12.699219 6.507812 12.78125 6.535156 C 12.867188 6.566406 12.765625 6.378906 12.742188 6.292969 C 12.722656 6.210938 12.996094 6.46875 13.0625 6.492188 C 13.132812 6.515625 12.902344 5.867188 12.835938 5.824219 C 12.765625 5.777344 12.902344 5.839844 12.949219 5.855469 C 12.996094 5.867188 12.53125 5.148438 12.433594 5.148438 C 12.332031 5.148438 12.515625 5.109375 12.570312 5.109375 C 12.621094 5.109375 12.039062 4.636719 11.9375 4.636719 C 11.839844 4.636719 12.152344 4.515625 12.179688 4.507812 C 12.234375 4.515625 11.503906 4.121094 10.851562 4.515625 C 10.8125 4.484375 11.160156 4.246094 11.171875 4.144531 C 11.175781 4.117188 11.058594 4.0625 11.050781 4.03125 C 11.042969 4 11.230469 3.910156 11.238281 3.839844 C 11.195312 3.78125 11.109375 3.800781 11.066406 3.789062 C 11.054688 3.730469 11.222656 3.589844 11.210938 3.527344 C 11.199219 3.496094 11.074219 3.484375 11.042969 3.503906 C 11.011719 3.527344 11.121094 3.347656 11.101562 3.292969 C 11.089844 3.269531 11.027344 3.285156 10.964844 3.300781 C 10.929688 3.292969 11.164062 2.964844 11.117188 2.921875 C 11.074219 2.875 10.433594 3.253906 10.199219 3.679688 C 9.964844 4.105469 10.144531 4.449219 10.117188 4.59375 C 10.085938 4.734375 10.046875 4.878906 9.949219 4.878906 C 9.851562 4.878906 9.621094 4.730469 9.546875 4.652344 C 9.46875 4.578125 9.453125 4.523438 9.347656 4.492188 C 9.242188 4.464844 9 4.554688 8.90625 4.5625 C 8.816406 4.570312 8.460938 4.492188 8.4375 4.515625 C 8.414062 4.539062 8.785156 4.675781 8.871094 4.722656 C 8.953125 4.765625 8.960938 4.828125 9.019531 4.867188 C 9.082031 4.902344 9.652344 5.070312 9.46875 5.304688 Z M 11.695312 6.378906 C 11.875 6.558594 13.105469 7.378906 13.105469 8.382812 C 13.105469 9.386719 12.210938 9.355469 11.953125 9.324219 C 12.242188 9.566406 13.335938 9.523438 13.335938 8.382812 C 13.335938 7.378906 11.921875 6.378906 11.738281 6.285156 C 11.558594 6.195312 11.511719 6.195312 11.695312 6.378906 Z M 11.695312 6.378906 "/>
</g>
</svg>
