<?xml version="1.0" encoding="UTF-8"?>
<svg xmlns="http://www.w3.org/2000/svg" xmlns:xlink="http://www.w3.org/1999/xlink" width="15pt" height="15pt" viewBox="0 0 15 15" version="1.1">
<g id="surface1">
<path style=" stroke:none;fill-rule:nonzero;fill:rgb(0%,58.431373%,26.27451%);fill-opacity:1;" d="M 0.445312 12.375 C 0.75 12.707031 1.183594 12.917969 1.667969 12.917969 L 13.332031 12.917969 C 14.253906 12.917969 15 12.171875 15 11.25 L 15 3.75 C 15 3.324219 14.835938 2.941406 14.574219 2.648438 Z M 0.445312 12.375 "/>
<path style=" stroke:none;fill-rule:nonzero;fill:rgb(0%,20.784314%,50.196078%);fill-opacity:1;" d="M 14.554688 2.625 C 14.25 2.292969 13.816406 2.082031 13.332031 2.082031 L 1.667969 2.082031 C 0.746094 2.082031 0 2.828125 0 3.75 L 0 11.25 C 0 11.675781 0.164062 12.058594 0.425781 12.351562 Z M 14.554688 2.625 "/>
<path style=" stroke:none;fill-rule:nonzero;fill:rgb(93.333333%,93.333333%,93.333333%);fill-opacity:1;" d="M 15 3.75 C 15 2.828125 14.253906 2.082031 13.332031 2.082031 L 13.058594 2.082031 L 0 11.226562 L 0 11.25 C 0 12.171875 0.746094 12.917969 1.667969 12.917969 L 1.941406 12.917969 L 15 3.773438 Z M 15 3.75 "/>
<path style=" stroke:none;fill-rule:nonzero;fill:rgb(82.352941%,5.882353%,20.392157%);fill-opacity:1;" d="M 13.742188 2.140625 L 0.0742188 11.710938 C 0.238281 12.285156 0.699219 12.730469 1.285156 12.867188 L 14.933594 3.3125 C 14.777344 2.734375 14.324219 2.289062 13.742188 2.140625 Z M 13.742188 2.140625 "/>
<path style=" stroke:none;fill-rule:nonzero;fill:rgb(100%,80.784314%,0%);fill-opacity:1;" d="M 3.332031 3.332031 L 3.671875 4.160156 L 4.375 3.613281 L 4.253906 4.496094 L 5.136719 4.375 L 4.589844 5.078125 L 5.417969 5.417969 L 4.589844 5.753906 L 5.136719 6.457031 L 4.253906 6.335938 L 4.375 7.222656 L 3.671875 6.675781 L 3.332031 7.5 L 2.996094 6.675781 L 2.292969 7.222656 L 2.414062 6.335938 L 1.527344 6.457031 L 2.074219 5.753906 L 1.25 5.417969 L 2.074219 5.078125 L 1.527344 4.375 L 2.414062 4.496094 L 2.292969 3.613281 L 2.996094 4.160156 Z M 3.332031 3.332031 "/>
<path style=" stroke:none;fill-rule:nonzero;fill:rgb(0%,20.784314%,50.196078%);fill-opacity:1;" d="M 4.65625 5.417969 C 4.65625 6.148438 4.0625 6.738281 3.332031 6.738281 C 2.601562 6.738281 2.011719 6.148438 2.011719 5.417969 C 2.011719 4.6875 2.601562 4.09375 3.332031 4.09375 C 4.0625 4.09375 4.65625 4.6875 4.65625 5.417969 Z M 4.65625 5.417969 "/>
<path style=" stroke:none;fill-rule:nonzero;fill:rgb(100%,80.784314%,0%);fill-opacity:1;" d="M 4.359375 5.417969 C 4.359375 5.984375 3.902344 6.445312 3.332031 6.445312 C 2.765625 6.445312 2.304688 5.984375 2.304688 5.417969 C 2.304688 4.847656 2.765625 4.390625 3.332031 4.390625 C 3.902344 4.390625 4.359375 4.847656 4.359375 5.417969 Z M 4.359375 5.417969 "/>
</g>
</svg>
