<?xml version="1.0" encoding="UTF-8"?>
<svg xmlns="http://www.w3.org/2000/svg" xmlns:xlink="http://www.w3.org/1999/xlink" width="15pt" height="15pt" viewBox="0 0 15 15" version="1.1">
<g id="surface1">
<path style=" stroke:none;fill-rule:nonzero;fill:rgb(10.196078%,54.117647%,0%);fill-opacity:1;" d="M 13.332031 2.082031 L 1.667969 2.082031 C 0.746094 2.082031 0 2.828125 0 3.75 L 0 11.25 C 0 12.171875 0.746094 12.917969 1.667969 12.917969 L 13.332031 12.917969 C 14.253906 12.917969 15 12.171875 15 11.25 L 15 3.75 C 15 2.828125 14.253906 2.082031 13.332031 2.082031 Z M 13.332031 2.082031 "/>
<path style=" stroke:none;fill-rule:nonzero;fill:rgb(93.72549%,49.019608%,0%);fill-opacity:1;" d="M 12.917969 12.917969 L 13.332031 12.917969 C 14.253906 12.917969 15 12.171875 15 11.25 L 15 6.25 L 12.917969 6.25 Z M 12.917969 12.917969 "/>
<path style=" stroke:none;fill-rule:nonzero;fill:rgb(7.843137%,7.843137%,7.843137%);fill-opacity:1;" d="M 10.832031 6.25 L 12.917969 6.25 L 12.917969 12.917969 L 10.832031 12.917969 Z M 10.832031 6.25 "/>
<path style=" stroke:none;fill-rule:nonzero;fill:rgb(87.058824%,12.54902%,5.882353%);fill-opacity:1;" d="M 8.75 6.25 L 10.832031 6.25 L 10.832031 12.917969 L 8.75 12.917969 Z M 8.75 6.25 "/>
<path style=" stroke:none;fill-rule:nonzero;fill:rgb(93.72549%,49.019608%,0%);fill-opacity:1;" d="M 14.617188 3.441406 C 14.574219 3.429688 14.320312 3.574219 14.320312 3.574219 C 14.320312 3.574219 14.554688 3.304688 14.5 3.304688 C 14.445312 3.304688 14.140625 3.449219 14.140625 3.449219 C 14.140625 3.449219 14.328125 3.214844 14.265625 3.242188 C 14.203125 3.269531 13.859375 3.421875 13.597656 3.53125 C 13.632812 3.46875 13.625 3.375 13.597656 3.375 C 13.570312 3.375 13.417969 3.476562 13.183594 3.53125 C 12.945312 3.585938 12.59375 3.78125 12.441406 3.753906 C 12.289062 3.730469 11.980469 3.753906 11.980469 3.753906 C 11.980469 3.753906 11.890625 3.621094 11.964844 3.585938 C 12.035156 3.546875 12.089844 3.636719 12.089844 3.636719 C 12.089844 3.636719 12.214844 3.585938 12.214844 3.507812 C 12.214844 3.429688 12 3.421875 12 3.421875 C 12 3.421875 11.910156 3.304688 11.765625 3.304688 C 11.386719 3.304688 11.359375 3.710938 11.359375 3.710938 C 11.359375 3.710938 11.203125 3.65625 11.058594 3.621094 C 10.914062 3.585938 10.664062 3.601562 10.410156 3.449219 C 10.15625 3.296875 9.996094 3.242188 10.300781 3.566406 C 9.851562 3.414062 9.617188 3.105469 9.550781 3.238281 C 9.488281 3.371094 9.722656 3.53125 9.722656 3.53125 C 9.722656 3.53125 9.597656 3.496094 9.488281 3.394531 C 9.378906 3.296875 9.226562 3.230469 9.371094 3.449219 C 9.183594 3.394531 9.316406 3.59375 9.316406 3.59375 C 9.316406 3.59375 9.164062 3.636719 9.316406 3.746094 C 9.472656 3.855469 9.75 3.902344 9.75 3.902344 C 9.75 3.902344 9.625 3.992188 9.707031 4.027344 C 9.785156 4.0625 9.921875 4.035156 9.921875 4.035156 C 9.921875 4.035156 9.816406 4.125 9.921875 4.160156 C 10.03125 4.199219 10.167969 4.160156 10.167969 4.160156 C 10.167969 4.160156 10.121094 4.253906 10.230469 4.292969 C 10.339844 4.332031 10.511719 4.242188 10.511719 4.242188 C 10.511719 4.242188 10.429688 4.296875 10.511719 4.34375 C 10.589844 4.386719 10.71875 4.292969 10.71875 4.292969 C 10.71875 4.292969 10.644531 4.414062 10.71875 4.433594 C 10.789062 4.449219 10.90625 4.359375 10.90625 4.359375 C 10.90625 4.359375 10.835938 4.476562 10.90625 4.488281 C 10.980469 4.496094 11.140625 4.40625 11.140625 4.40625 C 11.140625 4.40625 11.042969 4.53125 11.140625 4.53125 C 11.242188 4.53125 11.359375 4.46875 11.359375 4.46875 C 11.359375 4.46875 11.332031 4.566406 11.414062 4.605469 C 11.496094 4.640625 11.609375 4.542969 11.609375 4.542969 C 11.609375 4.542969 11.640625 4.730469 11.621094 4.839844 C 11.601562 4.949219 11.738281 4.867188 11.738281 4.867188 C 11.738281 4.867188 11.71875 5.027344 11.609375 5.019531 C 11.503906 5.011719 11.394531 5.15625 11.429688 5.191406 C 11.464844 5.226562 11.609375 5.164062 11.609375 5.164062 C 11.609375 5.164062 11.601562 5.363281 11.65625 5.347656 C 11.710938 5.328125 11.800781 5.21875 11.800781 5.21875 C 11.800781 5.21875 11.855469 5.363281 11.890625 5.34375 C 11.925781 5.328125 11.945312 5.246094 11.945312 5.199219 C 11.945312 5.15625 12.042969 5.136719 12.042969 5.136719 C 12.042969 5.136719 12.070312 5.316406 12.109375 5.28125 C 12.144531 5.246094 12.152344 5.128906 12.207031 5.09375 C 12.261719 5.058594 12.242188 5.300781 12.296875 5.28125 C 12.351562 5.265625 12.324219 5.101562 12.304688 5.046875 C 12.289062 4.992188 12.414062 5.09375 12.40625 5.046875 C 12.398438 5 12.296875 4.910156 12.296875 4.910156 C 12.296875 4.910156 12.421875 4.957031 12.386719 4.910156 C 12.351562 4.867188 12.332031 4.75 12.386719 4.773438 C 12.441406 4.800781 12.488281 4.695312 12.488281 4.695312 C 12.488281 4.695312 12.632812 4.804688 12.722656 4.765625 C 12.8125 4.730469 12.605469 4.605469 12.605469 4.605469 C 12.605469 4.605469 12.921875 4.714844 12.988281 4.695312 C 13.058594 4.675781 12.882812 4.558594 12.882812 4.558594 C 12.882812 4.558594 13.082031 4.605469 13.117188 4.558594 C 13.15625 4.515625 12.988281 4.476562 12.988281 4.476562 C 12.988281 4.476562 13.207031 4.515625 13.234375 4.476562 C 13.261719 4.441406 13.171875 4.398438 13.171875 4.398438 C 13.171875 4.398438 13.535156 4.386719 13.605469 4.261719 C 13.96875 4.269531 14.363281 3.980469 14.402344 3.917969 C 14.4375 3.855469 14.339844 3.855469 14.339844 3.855469 C 14.339844 3.855469 14.554688 3.683594 14.527344 3.65625 C 14.5 3.628906 14.382812 3.691406 14.382812 3.691406 C 14.382812 3.691406 14.664062 3.449219 14.617188 3.441406 Z M 11.9375 4.992188 C 11.820312 4.992188 11.898438 4.929688 11.882812 4.867188 C 11.863281 4.804688 11.945312 4.859375 11.933594 4.804688 C 11.925781 4.75 11.933594 4.488281 11.933594 4.488281 C 12.027344 4.578125 12.070312 4.695312 12.0625 4.785156 C 12.054688 4.875 12.105469 4.882812 12.125 4.929688 C 12.144531 4.976562 12.054688 4.992188 11.9375 4.992188 Z M 11.9375 4.992188 "/>
</g>
</svg>
