<?xml version="1.0" encoding="UTF-8"?>
<svg xmlns="http://www.w3.org/2000/svg" xmlns:xlink="http://www.w3.org/1999/xlink" width="15pt" height="15pt" viewBox="0 0 15 15" version="1.1">
<g id="surface1">
<path style=" stroke:none;fill-rule:nonzero;fill:rgb(0%,40.784314%,27.843137%);fill-opacity:1;" d="M 1.667969 2.082031 C 0.746094 2.082031 0 2.828125 0 3.75 L 0 11.25 C 0 12.171875 0.746094 12.917969 1.667969 12.917969 L 4.582031 12.917969 L 4.582031 2.082031 Z M 1.667969 2.082031 "/>
<path style=" stroke:none;fill-rule:nonzero;fill:rgb(80.784314%,6.666667%,14.901961%);fill-opacity:1;" d="M 13.332031 2.082031 L 10.417969 2.082031 L 10.417969 12.917969 L 13.332031 12.917969 C 14.253906 12.917969 15 12.171875 15 11.25 L 15 3.75 C 15 2.828125 14.253906 2.082031 13.332031 2.082031 Z M 13.332031 2.082031 "/>
<path style=" stroke:none;fill-rule:nonzero;fill:rgb(93.333333%,93.333333%,93.333333%);fill-opacity:1;" d="M 4.582031 2.082031 L 10.417969 2.082031 L 10.417969 12.917969 L 4.582031 12.917969 Z M 4.582031 2.082031 "/>
<path style=" stroke:none;fill-rule:nonzero;fill:rgb(65.098039%,82.745098%,53.333333%);fill-opacity:1;" d="M 9.582031 7.5 C 9.582031 8.652344 8.652344 9.582031 7.5 9.582031 C 6.347656 9.582031 5.417969 8.652344 5.417969 7.5 L 5 7.5 C 5 8.878906 6.121094 10 7.5 10 C 8.878906 10 10 8.878906 10 7.5 Z M 9.582031 7.5 "/>
<path style=" stroke:none;fill-rule:nonzero;fill:rgb(36.078431%,56.862745%,23.137255%);fill-opacity:1;" d="M 5.644531 8.445312 C 5.605469 8.371094 5.527344 8.328125 5.449219 8.332031 C 5.417969 8.332031 5.390625 8.339844 5.363281 8.355469 C 5.257812 8.40625 5.21875 8.53125 5.269531 8.636719 C 5.308594 8.707031 5.351562 8.78125 5.394531 8.851562 L 5.398438 8.859375 L 5.402344 8.859375 L 5.402344 8.867188 L 5.410156 8.875 L 5.410156 8.878906 L 5.414062 8.878906 L 5.414062 8.886719 L 5.417969 8.886719 L 5.417969 8.894531 L 5.421875 8.894531 C 5.441406 8.929688 5.464844 8.960938 5.488281 8.992188 C 5.53125 9.046875 5.597656 9.078125 5.664062 9.074219 C 5.703125 9.070312 5.746094 9.058594 5.777344 9.03125 C 5.871094 8.964844 5.890625 8.832031 5.820312 8.742188 C 5.757812 8.648438 5.695312 8.546875 5.644531 8.445312 Z M 5.4375 7.785156 C 5.425781 7.722656 5.421875 7.65625 5.417969 7.585938 C 5.414062 7.539062 5.414062 7.488281 5.417969 7.4375 C 5.421875 7.324219 5.328125 7.226562 5.214844 7.226562 L 5.199219 7.226562 C 5.089844 7.230469 5.003906 7.316406 5 7.425781 C 5 7.472656 5 7.515625 5 7.558594 L 5 7.636719 L 5.003906 7.640625 L 5.003906 7.648438 C 5.003906 7.714844 5.011719 7.78125 5.019531 7.84375 C 5.035156 7.953125 5.128906 8.027344 5.234375 8.023438 C 5.242188 8.023438 5.25 8.023438 5.253906 8.023438 C 5.371094 8.003906 5.453125 7.902344 5.4375 7.785156 Z M 7.640625 9.578125 L 7.585938 9.582031 C 7.488281 9.585938 7.390625 9.582031 7.292969 9.574219 C 7.28125 9.570312 7.273438 9.570312 7.261719 9.570312 C 7.160156 9.578125 7.074219 9.65625 7.0625 9.757812 C 7.050781 9.875 7.136719 9.976562 7.25 9.988281 L 7.300781 9.992188 L 7.320312 9.992188 L 7.324219 9.996094 L 7.335938 9.996094 C 7.402344 10 7.464844 10 7.527344 10 L 7.589844 10 L 7.59375 9.996094 L 7.613281 9.996094 C 7.632812 9.996094 7.648438 9.996094 7.667969 9.996094 C 7.777344 9.984375 7.863281 9.886719 7.855469 9.773438 C 7.851562 9.660156 7.753906 9.574219 7.640625 9.578125 Z M 6.625 9.390625 C 6.519531 9.34375 6.417969 9.285156 6.324219 9.21875 C 6.285156 9.191406 6.242188 9.183594 6.199219 9.183594 C 6.132812 9.1875 6.074219 9.21875 6.035156 9.273438 C 5.96875 9.367188 5.992188 9.5 6.089844 9.5625 L 6.089844 9.566406 L 6.09375 9.566406 L 6.097656 9.570312 C 6.210938 9.648438 6.328125 9.714844 6.449219 9.769531 C 6.480469 9.785156 6.511719 9.789062 6.546875 9.789062 C 6.621094 9.785156 6.691406 9.742188 6.726562 9.667969 C 6.773438 9.5625 6.730469 9.441406 6.625 9.390625 Z M 8.722656 9.226562 C 8.6875 9.226562 8.648438 9.238281 8.617188 9.257812 C 8.519531 9.320312 8.417969 9.375 8.3125 9.421875 C 8.207031 9.464844 8.15625 9.585938 8.199219 9.691406 C 8.234375 9.773438 8.316406 9.824219 8.402344 9.820312 C 8.425781 9.820312 8.449219 9.8125 8.472656 9.804688 L 8.527344 9.777344 L 8.539062 9.777344 L 8.539062 9.773438 L 8.546875 9.773438 L 8.546875 9.769531 L 8.550781 9.769531 C 8.554688 9.769531 8.554688 9.765625 8.554688 9.765625 L 8.5625 9.765625 L 8.5625 9.761719 L 8.570312 9.761719 L 8.570312 9.757812 L 8.578125 9.757812 L 8.578125 9.753906 L 8.585938 9.753906 L 8.589844 9.75 L 8.597656 9.746094 L 8.601562 9.746094 L 8.605469 9.742188 L 8.609375 9.742188 L 8.613281 9.738281 L 8.617188 9.738281 L 8.617188 9.734375 L 8.621094 9.734375 L 8.628906 9.730469 L 8.632812 9.730469 L 8.640625 9.726562 L 8.640625 9.722656 C 8.644531 9.722656 8.644531 9.722656 8.644531 9.722656 C 8.644531 9.722656 8.648438 9.722656 8.648438 9.722656 L 8.652344 9.71875 L 8.660156 9.714844 L 8.664062 9.714844 L 8.664062 9.710938 L 8.671875 9.710938 L 8.675781 9.707031 L 8.679688 9.707031 L 8.679688 9.703125 L 8.6875 9.703125 L 8.6875 9.699219 L 8.691406 9.699219 L 8.695312 9.695312 L 8.699219 9.695312 L 8.703125 9.691406 C 8.703125 9.691406 8.707031 9.691406 8.707031 9.691406 L 8.710938 9.6875 L 8.714844 9.6875 L 8.714844 9.683594 L 8.722656 9.683594 L 8.722656 9.679688 L 8.726562 9.679688 L 8.730469 9.675781 C 8.730469 9.679688 8.730469 9.675781 8.730469 9.675781 L 8.734375 9.675781 L 8.734375 9.671875 L 8.742188 9.671875 C 8.742188 9.667969 8.742188 9.667969 8.742188 9.667969 L 8.75 9.667969 L 8.757812 9.660156 L 8.761719 9.660156 C 8.761719 9.660156 8.765625 9.65625 8.769531 9.65625 C 8.796875 9.640625 8.824219 9.625 8.847656 9.605469 C 8.945312 9.542969 8.972656 9.417969 8.910156 9.320312 C 8.863281 9.257812 8.792969 9.222656 8.722656 9.226562 Z M 9.792969 7.300781 L 9.78125 7.300781 C 9.671875 7.304688 9.582031 7.398438 9.582031 7.507812 C 9.582031 7.625 9.574219 7.742188 9.554688 7.855469 C 9.535156 7.96875 9.609375 8.074219 9.722656 8.09375 C 9.738281 8.097656 9.753906 8.097656 9.765625 8.097656 C 9.863281 8.09375 9.945312 8.023438 9.964844 7.925781 L 9.964844 7.90625 C 9.976562 7.855469 9.984375 7.800781 9.988281 7.746094 L 9.988281 7.730469 L 9.992188 7.730469 L 9.988281 7.726562 C 9.992188 7.726562 9.992188 7.726562 9.992188 7.726562 L 9.992188 7.714844 C 9.996094 7.648438 10 7.578125 10 7.507812 C 10 7.394531 9.90625 7.300781 9.792969 7.300781 Z M 9.609375 8.425781 C 9.574219 8.40625 9.535156 8.398438 9.5 8.398438 C 9.429688 8.402344 9.359375 8.441406 9.324219 8.507812 C 9.269531 8.605469 9.203125 8.703125 9.132812 8.792969 C 9.058594 8.886719 9.074219 9.015625 9.164062 9.085938 C 9.207031 9.121094 9.253906 9.132812 9.304688 9.132812 C 9.363281 9.128906 9.417969 9.101562 9.457031 9.054688 C 9.507812 8.992188 9.550781 8.929688 9.59375 8.863281 C 9.597656 8.859375 9.597656 8.859375 9.601562 8.855469 L 9.601562 8.851562 L 9.609375 8.84375 C 9.609375 8.84375 9.609375 8.84375 9.609375 8.839844 C 9.613281 8.839844 9.613281 8.835938 9.613281 8.835938 L 9.613281 8.832031 L 9.617188 8.832031 L 9.617188 8.828125 L 9.621094 8.824219 L 9.621094 8.820312 C 9.621094 8.820312 9.621094 8.820312 9.625 8.820312 L 9.625 8.8125 L 9.628906 8.8125 L 9.628906 8.808594 L 9.632812 8.808594 L 9.632812 8.804688 C 9.632812 8.800781 9.632812 8.800781 9.632812 8.800781 L 9.636719 8.800781 L 9.636719 8.796875 C 9.640625 8.796875 9.640625 8.796875 9.640625 8.792969 L 9.640625 8.789062 L 9.644531 8.789062 L 9.644531 8.78125 L 9.648438 8.78125 L 9.648438 8.777344 L 9.652344 8.773438 L 9.652344 8.769531 L 9.65625 8.769531 C 9.65625 8.769531 9.65625 8.765625 9.65625 8.765625 L 9.65625 8.761719 L 9.660156 8.761719 C 9.660156 8.761719 9.660156 8.761719 9.660156 8.757812 L 9.660156 8.753906 L 9.664062 8.753906 L 9.664062 8.75 L 9.667969 8.75 L 9.667969 8.742188 L 9.671875 8.742188 L 9.671875 8.734375 L 9.675781 8.734375 L 9.675781 8.730469 L 9.679688 8.726562 L 9.679688 8.722656 L 9.691406 8.703125 C 9.746094 8.605469 9.707031 8.480469 9.609375 8.425781 Z M 9.609375 8.425781 "/>
<path style=" stroke:none;fill-rule:nonzero;fill:rgb(33.333333%,67.45098%,93.333333%);fill-opacity:1;" d="M 8.75 8.75 C 8.75 8.519531 8.191406 8.332031 7.5 8.332031 C 6.808594 8.332031 6.25 8.519531 6.25 8.75 C 6.25 8.980469 6.808594 9.167969 7.5 9.167969 C 8.191406 9.167969 8.75 8.980469 8.75 8.75 Z M 8.75 8.75 "/>
<path style=" stroke:none;fill-rule:nonzero;fill:rgb(100%,80%,30.196078%);fill-opacity:1;" d="M 8.332031 8.75 C 8.332031 8.519531 8.054688 8.332031 7.707031 8.332031 C 7.363281 8.332031 7.082031 8.519531 7.082031 8.75 C 7.082031 8.980469 7.363281 9.167969 7.707031 9.167969 C 8.054688 9.167969 8.332031 8.980469 8.332031 8.75 Z M 8.332031 8.75 "/>
<path style=" stroke:none;fill-rule:nonzero;fill:rgb(36.078431%,56.862745%,23.137255%);fill-opacity:1;" d="M 7.964844 8.863281 C 7.933594 8.863281 7.898438 8.855469 7.867188 8.839844 C 7.765625 8.785156 7.726562 8.65625 7.78125 8.554688 C 7.847656 8.433594 7.917969 8.324219 7.992188 8.226562 C 7.933594 8.226562 7.875 8.230469 7.8125 8.230469 C 7.695312 8.230469 7.59375 8.136719 7.59375 8.019531 C 7.59375 7.90625 7.671875 7.8125 7.789062 7.8125 L 7.824219 7.8125 C 7.945312 7.8125 8.074219 7.804688 8.1875 7.792969 C 8.253906 7.785156 8.316406 7.8125 8.355469 7.859375 C 8.363281 7.855469 8.367188 7.851562 8.375 7.847656 C 8.417969 7.820312 8.457031 7.796875 8.492188 7.777344 C 8.515625 7.761719 8.546875 7.746094 8.578125 7.738281 L 8.59375 7.738281 C 8.671875 7.710938 8.726562 7.707031 8.75 7.707031 C 8.816406 7.707031 8.878906 7.738281 8.917969 7.792969 C 8.957031 7.847656 8.96875 7.914062 8.949219 7.976562 C 8.914062 8.089844 8.839844 8.113281 8.703125 8.140625 C 8.679688 8.148438 8.644531 8.167969 8.605469 8.195312 C 8.527344 8.246094 8.425781 8.238281 8.355469 8.179688 C 8.414062 8.253906 8.414062 8.359375 8.355469 8.433594 C 8.285156 8.527344 8.214844 8.632812 8.148438 8.753906 C 8.109375 8.824219 8.039062 8.863281 7.964844 8.863281 Z M 7.375 8.203125 C 7.363281 8.203125 7.355469 8.203125 7.347656 8.199219 C 7.191406 8.179688 7.042969 8.148438 6.90625 8.109375 C 6.796875 8.074219 6.734375 7.960938 6.765625 7.847656 L 6.769531 7.839844 L 6.761719 7.851562 C 6.707031 7.949219 6.578125 7.988281 6.480469 7.929688 C 6.339844 7.851562 6.210938 7.753906 6.101562 7.648438 C 6.019531 7.566406 6.019531 7.433594 6.101562 7.351562 C 6.183594 7.269531 6.316406 7.269531 6.394531 7.351562 C 6.476562 7.433594 6.574219 7.507812 6.683594 7.566406 C 6.773438 7.617188 6.808594 7.722656 6.777344 7.816406 C 6.820312 7.726562 6.925781 7.679688 7.023438 7.707031 C 7.140625 7.742188 7.265625 7.769531 7.398438 7.785156 C 7.511719 7.800781 7.59375 7.90625 7.578125 8.019531 C 7.566406 8.125 7.476562 8.203125 7.375 8.203125 Z M 6.351562 7.226562 C 6.175781 7.226562 5.945312 7.160156 5.804688 6.996094 C 5.59375 6.742188 5.46875 6.421875 5.484375 6.171875 C 5.492188 6.105469 5.425781 6.054688 5.363281 6.035156 C 5.328125 6.027344 5.261719 6.019531 5.234375 6.085938 C 5.207031 6.136719 5.148438 6.160156 5.09375 6.136719 C 5.042969 6.113281 5.019531 6.050781 5.042969 5.996094 C 5.109375 5.855469 5.253906 5.792969 5.414062 5.835938 C 5.566406 5.875 5.707031 6.007812 5.695312 6.1875 C 5.679688 6.382812 5.789062 6.652344 5.964844 6.859375 C 6.058594 6.96875 6.21875 7.015625 6.328125 7.019531 C 6.417969 7.023438 6.464844 7.003906 6.472656 6.992188 C 6.449219 6.9375 6.140625 6.777344 6.011719 6.707031 C 5.898438 6.648438 5.863281 6.566406 5.855469 6.511719 C 5.828125 6.320312 6.023438 6.128906 6.210938 5.941406 C 6.277344 5.878906 6.339844 5.816406 6.375 5.769531 C 6.414062 5.71875 6.40625 5.683594 6.398438 5.664062 C 6.371094 5.585938 6.246094 5.507812 6.097656 5.476562 C 5.957031 5.445312 5.863281 5.378906 5.816406 5.277344 C 5.757812 5.140625 5.789062 4.96875 5.914062 4.742188 C 5.941406 4.691406 6.007812 4.671875 6.058594 4.699219 C 6.109375 4.726562 6.125 4.792969 6.097656 4.84375 C 5.980469 5.054688 5.992188 5.152344 6.007812 5.191406 C 6.027344 5.230469 6.070312 5.257812 6.140625 5.273438 C 6.316406 5.3125 6.53125 5.414062 6.59375 5.589844 C 6.632812 5.691406 6.613281 5.800781 6.542969 5.894531 C 6.496094 5.953125 6.429688 6.019531 6.359375 6.09375 C 6.25 6.199219 6.050781 6.394531 6.0625 6.480469 C 6.066406 6.496094 6.089844 6.511719 6.105469 6.523438 C 6.421875 6.6875 6.628906 6.804688 6.671875 6.949219 C 6.683594 7.003906 6.679688 7.054688 6.652344 7.101562 C 6.613281 7.171875 6.527344 7.214844 6.410156 7.226562 C 6.390625 7.226562 6.371094 7.226562 6.351562 7.226562 Z M 6.351562 7.226562 "/>
<path style=" stroke:none;fill-rule:nonzero;fill:rgb(100%,80%,30.196078%);fill-opacity:1;" d="M 8.332031 7.5 C 8.332031 7.269531 8.238281 7.082031 8.125 7.082031 C 8.011719 7.082031 7.917969 7.269531 7.917969 7.5 C 7.917969 7.730469 8.011719 7.917969 8.125 7.917969 C 8.238281 7.917969 8.332031 7.730469 8.332031 7.5 Z M 8.332031 7.5 "/>
<path style=" stroke:none;fill-rule:nonzero;fill:rgb(100%,80%,30.196078%);fill-opacity:1;" d="M 7.203125 7.160156 C 7.203125 7.28125 7.0625 7.378906 6.882812 7.378906 C 6.707031 7.378906 6.5625 7.28125 6.5625 7.160156 C 6.5625 7.042969 6.707031 6.945312 6.882812 6.945312 C 7.0625 6.945312 7.203125 7.042969 7.203125 7.160156 Z M 6.710938 5.234375 C 6.730469 5.320312 6.617188 5.425781 6.453125 5.464844 C 6.289062 5.503906 6.140625 5.460938 6.117188 5.375 C 6.097656 5.285156 6.214844 5.183594 6.375 5.144531 C 6.539062 5.105469 6.691406 5.144531 6.710938 5.234375 Z M 6.710938 5.234375 "/>
<path style=" stroke:none;fill-rule:nonzero;fill:rgb(75.686275%,41.176471%,30.980392%);fill-opacity:1;" d="M 9.390625 7.480469 C 9.425781 7.511719 9.488281 7.175781 9.480469 7.074219 C 9.480469 7.066406 9.46875 6.847656 9.515625 6.6875 C 9.542969 6.636719 9.546875 6.238281 9.5 6.132812 C 9.535156 6.128906 9.578125 6.117188 9.582031 6.078125 C 9.421875 6.136719 9.382812 5.734375 9.226562 5.503906 C 9.078125 5.277344 8.890625 5.140625 8.695312 5 C 8.710938 4.960938 8.734375 4.925781 8.761719 4.890625 C 8.523438 5.007812 8.148438 4.574219 7.597656 4.605469 C 7.472656 4.617188 7.414062 4.625 7.382812 4.703125 C 7.28125 4.710938 7.175781 4.734375 7.175781 4.871094 C 7.175781 4.902344 7.207031 4.960938 7.273438 4.960938 C 7.363281 4.988281 7.433594 4.96875 7.496094 5.09375 L 7.511719 5.222656 C 7.511719 5.222656 7.433594 5.121094 7.386719 5.105469 L 7.414062 5.046875 C 7.375 5.023438 7.300781 5.042969 7.300781 5.042969 C 7.300781 5.042969 7.140625 4.96875 7.011719 4.988281 L 6.984375 4.882812 C 6.964844 4.949219 6.914062 4.945312 6.90625 5.003906 C 6.890625 4.960938 6.871094 4.910156 6.859375 4.867188 C 6.8125 4.925781 6.828125 4.992188 6.8125 5.058594 C 6.792969 5.074219 6.757812 5.074219 6.75 5.03125 C 6.742188 4.980469 6.738281 4.976562 6.738281 4.917969 C 6.703125 4.972656 6.664062 5 6.652344 5.097656 L 6.617188 4.992188 C 6.621094 5.117188 6.507812 5.195312 6.40625 5.285156 C 6.375 5.339844 6.410156 5.339844 6.414062 5.367188 L 6.46875 5.394531 L 6.566406 5.386719 C 6.582031 5.410156 6.570312 5.410156 6.613281 5.421875 C 6.726562 5.457031 6.871094 5.316406 6.984375 5.535156 C 6.929688 5.578125 6.878906 5.679688 6.894531 5.699219 C 6.917969 5.699219 6.855469 5.726562 6.9375 5.699219 C 6.851562 5.785156 6.792969 5.898438 6.792969 5.90625 C 6.78125 5.929688 6.828125 5.902344 6.816406 5.945312 L 6.839844 5.941406 C 6.640625 6.160156 6.832031 6.390625 6.808594 6.515625 C 6.84375 6.570312 6.847656 6.515625 6.890625 6.507812 C 6.925781 6.660156 7.027344 6.753906 7.085938 6.875 L 6.957031 6.878906 C 6.960938 6.933594 7.011719 6.988281 7.054688 7.039062 L 6.964844 7.066406 C 6.902344 7.097656 6.863281 7.132812 6.820312 7.179688 C 6.789062 7.25 6.957031 7.269531 7.039062 7.28125 L 7.035156 7.363281 C 7.164062 7.378906 7.308594 7.339844 7.308594 7.332031 L 7.339844 7.308594 L 7.410156 7.347656 C 7.433594 7.347656 7.472656 7.253906 7.453125 7.179688 C 7.5 7.234375 7.542969 7.320312 7.589844 7.375 L 7.632812 7.371094 C 7.671875 7.433594 7.726562 7.496094 7.765625 7.558594 L 7.808594 7.574219 C 7.835938 7.566406 7.855469 7.5625 7.871094 7.511719 L 7.890625 7.546875 L 7.957031 7.5 L 8.007812 7.488281 L 8.042969 7.546875 C 8.066406 7.539062 8.085938 7.496094 8.085938 7.445312 C 8.109375 7.488281 8.113281 7.484375 8.128906 7.496094 L 8.160156 7.429688 L 8.335938 7.589844 L 8.464844 7.597656 C 8.511719 7.628906 8.640625 7.648438 8.660156 7.597656 C 8.765625 7.644531 8.890625 7.59375 8.882812 7.542969 C 8.980469 7.582031 9.128906 7.554688 9.128906 7.546875 C 9.148438 7.546875 9.195312 7.5 9.152344 7.46875 C 8.832031 7.246094 8.355469 6.878906 8.175781 6.789062 C 8.175781 6.722656 8.125 6.484375 8.070312 6.421875 L 8.113281 6.347656 C 8.238281 6.464844 8.285156 6.453125 8.351562 6.472656 C 8.421875 6.527344 8.445312 6.613281 8.515625 6.691406 L 8.578125 6.703125 C 8.535156 6.589844 8.480469 6.484375 8.347656 6.339844 C 8.417969 6.371094 8.53125 6.464844 8.605469 6.53125 C 8.65625 6.613281 8.671875 6.679688 8.71875 6.785156 C 8.75 6.808594 8.785156 6.886719 8.78125 6.820312 C 8.773438 6.699219 8.6875 6.507812 8.6875 6.492188 C 8.824219 6.601562 8.820312 6.769531 8.863281 6.871094 C 8.898438 6.921875 8.914062 6.992188 8.929688 6.976562 L 8.890625 6.660156 L 8.867188 6.542969 C 8.964844 6.601562 9.003906 6.824219 9.050781 7.089844 C 9.050781 7.128906 9.066406 7.175781 9.0625 7.203125 C 9.085938 7.230469 9.109375 7.304688 9.109375 7.261719 C 9.109375 7.261719 9.109375 6.828125 9.078125 6.730469 C 9.074219 6.679688 9.09375 6.59375 9.09375 6.59375 C 9.128906 6.769531 9.167969 6.964844 9.207031 7.144531 L 9.207031 7.273438 L 9.261719 7.328125 C 9.269531 7.222656 9.285156 7.113281 9.292969 7.007812 L 9.253906 6.621094 L 9.253906 6.511719 C 9.253906 6.472656 9.289062 6.480469 9.3125 6.523438 C 9.316406 6.617188 9.316406 6.691406 9.320312 6.785156 C 9.335938 6.894531 9.347656 6.972656 9.355469 7.109375 C 9.359375 7.21875 9.367188 7.484375 9.390625 7.480469 Z M 9.390625 7.480469 "/>
</g>
</svg>
