<?xml version="1.0" encoding="UTF-8"?>
<svg xmlns="http://www.w3.org/2000/svg" xmlns:xlink="http://www.w3.org/1999/xlink" width="15pt" height="15pt" viewBox="0 0 15 15" version="1.1">
<g id="surface1">
<path style=" stroke:none;fill-rule:nonzero;fill:rgb(0%,14.117647%,49.019608%);fill-opacity:1;" d="M 13.332031 2.082031 L 1.667969 2.082031 C 1.582031 2.082031 1.496094 2.089844 1.414062 2.101562 L 1.414062 2.832031 L 0.277344 2.832031 C 0.101562 3.09375 0 3.410156 0 3.75 L 0 11.25 C 0 12.171875 0.746094 12.917969 1.667969 12.917969 L 13.332031 12.917969 C 14.253906 12.917969 15 12.171875 15 11.25 L 15 3.75 C 15 2.828125 14.253906 2.082031 13.332031 2.082031 Z M 13.332031 2.082031 "/>
<path style=" stroke:none;fill-rule:nonzero;fill:rgb(100%,100%,100%);fill-opacity:1;" d="M 13.945312 9.433594 C 13.828125 9.359375 13.65625 9.195312 13.625 9.144531 C 13.507812 8.949219 13.371094 8.910156 13.28125 8.910156 C 13.269531 8.910156 13.257812 8.914062 13.242188 8.914062 C 13.289062 8.839844 13.316406 8.765625 13.316406 8.699219 L 13.316406 4.851562 L 9.113281 4.851562 L 9.113281 8.699219 C 9.113281 8.765625 9.144531 8.839844 9.1875 8.914062 C 9.175781 8.910156 9.160156 8.910156 9.152344 8.910156 C 9.058594 8.910156 8.921875 8.953125 8.804688 9.144531 C 8.777344 9.195312 8.605469 9.359375 8.488281 9.433594 C 8.390625 9.496094 8.332031 9.597656 8.328125 9.714844 C 8.316406 9.882812 8.414062 10.074219 8.570312 10.207031 C 8.636719 10.261719 8.710938 10.289062 8.792969 10.289062 C 8.902344 10.289062 8.992188 10.238281 9.066406 10.179688 C 9.757812 10.75 10.464844 11.027344 11.214844 11.027344 C 11.964844 11.027344 12.671875 10.75 13.363281 10.179688 C 13.4375 10.238281 13.527344 10.289062 13.636719 10.289062 C 13.71875 10.289062 13.792969 10.261719 13.859375 10.207031 C 14.015625 10.074219 14.113281 9.882812 14.101562 9.714844 C 14.097656 9.597656 14.039062 9.496094 13.945312 9.433594 Z M 13.945312 9.433594 "/>
<path style=" stroke:none;fill-rule:nonzero;fill:rgb(0%,38.039216%,16.078431%);fill-opacity:1;" d="M 11.214844 10.015625 C 10.285156 9.601562 9.324219 8.984375 9.324219 8.699219 L 9.324219 5.0625 L 13.109375 5.0625 L 13.109375 8.699219 C 13.109375 8.988281 12.144531 9.601562 11.214844 10.015625 Z M 11.214844 10.015625 "/>
<path style=" stroke:none;fill-rule:nonzero;fill:rgb(100%,77.647059%,70.980392%);fill-opacity:1;" d="M 10.449219 7.453125 C 10.363281 7.488281 10.339844 7.257812 10.449219 7.097656 C 10.558594 6.933594 10.886719 6.601562 10.957031 6.296875 C 11.027344 5.988281 11.15625 6.035156 11.214844 5.949219 C 11.277344 5.867188 11.285156 5.769531 11.214844 5.75 C 11.144531 5.730469 11.046875 5.703125 11.113281 5.449219 C 11.179688 5.195312 11.457031 5.222656 11.457031 5.398438 C 11.457031 5.574219 11.394531 5.730469 11.457031 5.867188 C 11.523438 6.003906 11.671875 5.96875 11.765625 6.230469 C 11.855469 6.492188 11.886719 6.746094 11.828125 6.855469 C 11.769531 6.964844 11.738281 7.390625 11.660156 7.5 C 11.582031 7.609375 11.476562 7.566406 11.496094 7.363281 C 11.515625 7.160156 11.648438 6.886719 11.6875 6.746094 C 11.726562 6.601562 11.628906 6.308594 11.484375 6.277344 C 11.339844 6.246094 11.082031 6.578125 10.964844 6.714844 C 10.847656 6.847656 10.59375 6.953125 10.578125 7.066406 C 10.566406 7.175781 10.535156 7.421875 10.449219 7.453125 Z M 10.449219 7.453125 "/>
<path style=" stroke:none;fill-rule:nonzero;fill:rgb(100%,100%,100%);fill-opacity:1;" d="M 11.984375 9.113281 C 11.835938 9.148438 11.503906 9.269531 11.320312 9.226562 C 11.140625 9.179688 10.8125 9.296875 10.769531 9.234375 C 10.722656 9.171875 10.8125 8.835938 10.828125 8.679688 C 10.839844 8.523438 10.859375 8.367188 10.832031 8.367188 C 10.808594 8.367188 10.699219 8.367188 10.753906 8.085938 C 10.8125 7.804688 10.910156 7.292969 10.910156 7.292969 C 10.910156 7.292969 10.8125 7.253906 10.871094 7.097656 C 10.929688 6.941406 11.003906 6.570312 10.984375 6.484375 C 10.964844 6.398438 10.820312 6.425781 10.871094 6.296875 C 10.925781 6.164062 10.964844 6.140625 11.003906 6.042969 C 11.042969 5.945312 11.121094 5.867188 11.179688 5.890625 C 11.234375 5.917969 11.296875 5.988281 11.363281 5.953125 C 11.425781 5.910156 11.433594 5.855469 11.515625 5.859375 C 11.601562 5.867188 11.78125 6.035156 11.746094 6.074219 C 11.707031 6.113281 11.636719 6.246094 11.625 6.410156 C 11.613281 6.578125 11.511719 6.980469 11.476562 7.109375 C 11.445312 7.242188 11.589844 7.554688 11.667969 7.847656 C 11.746094 8.136719 11.984375 9.113281 11.984375 9.113281 Z M 11.984375 9.113281 "/>
<path style=" stroke:none;fill-rule:nonzero;fill:rgb(61.176471%,31.764706%,0%);fill-opacity:1;" d="M 11.117188 5.261719 C 11.15625 5.160156 11.339844 5.078125 11.496094 5.203125 C 11.652344 5.324219 11.71875 5.554688 11.609375 5.691406 C 11.496094 5.828125 11.433594 5.792969 11.390625 5.691406 C 11.347656 5.585938 11.394531 5.492188 11.335938 5.460938 C 11.277344 5.429688 11.328125 5.339844 11.277344 5.320312 C 11.222656 5.300781 11.0625 5.40625 11.117188 5.261719 Z M 11.117188 5.261719 "/>
<path style=" stroke:none;fill-rule:nonzero;fill:rgb(100%,0%,0%);fill-opacity:1;" d="M 9.628906 5.203125 C 9.605469 5.171875 9.539062 5.292969 9.5625 5.378906 C 9.589844 5.464844 9.582031 5.542969 9.632812 5.53125 C 9.6875 5.515625 9.671875 5.441406 9.707031 5.382812 C 9.734375 5.339844 9.628906 5.351562 9.660156 5.300781 Z M 9.628906 5.203125 "/>
<path style=" stroke:none;fill-rule:nonzero;fill:rgb(97.254902%,77.647059%,0%);fill-opacity:1;" d="M 9.523438 5.5 L 9.871094 5.5 C 9.871094 5.5 9.914062 5.34375 9.988281 5.339844 C 10.058594 5.332031 10.078125 5.496094 10.078125 5.496094 C 10.078125 5.496094 10.242188 5.535156 10.3125 5.488281 C 10.382812 5.441406 10.558594 5.496094 10.421875 5.574219 C 10.285156 5.652344 10.363281 5.488281 10.285156 5.574219 C 10.207031 5.65625 10.136719 5.691406 10.148438 5.722656 C 10.164062 5.753906 10.109375 5.78125 10 5.78125 C 9.890625 5.78125 9.816406 5.753906 9.832031 5.703125 C 9.84375 5.652344 9.757812 5.632812 9.660156 5.613281 C 9.5625 5.59375 9.523438 5.5 9.523438 5.5 Z M 9.523438 5.5 "/>
<path style=" stroke:none;fill-rule:nonzero;fill:rgb(100%,0%,0%);fill-opacity:1;" d="M 9.628906 5.863281 C 9.605469 5.835938 9.539062 5.953125 9.5625 6.039062 C 9.589844 6.125 9.582031 6.203125 9.632812 6.191406 C 9.6875 6.179688 9.671875 6.105469 9.707031 6.046875 C 9.734375 6 9.628906 6.011719 9.660156 5.960938 Z M 9.628906 5.863281 "/>
<path style=" stroke:none;fill-rule:nonzero;fill:rgb(97.254902%,77.647059%,0%);fill-opacity:1;" d="M 9.523438 6.164062 L 9.871094 6.164062 C 9.871094 6.164062 9.914062 6.007812 9.988281 6 C 10.058594 5.992188 10.078125 6.15625 10.078125 6.15625 C 10.078125 6.15625 10.242188 6.195312 10.3125 6.148438 C 10.382812 6.105469 10.558594 6.15625 10.421875 6.234375 C 10.285156 6.3125 10.363281 6.148438 10.285156 6.234375 C 10.207031 6.320312 10.136719 6.351562 10.148438 6.382812 C 10.164062 6.417969 10.109375 6.441406 10 6.441406 C 9.890625 6.441406 9.816406 6.417969 9.832031 6.363281 C 9.84375 6.3125 9.757812 6.292969 9.660156 6.273438 C 9.5625 6.253906 9.523438 6.164062 9.523438 6.164062 Z M 9.523438 6.164062 "/>
<path style=" stroke:none;fill-rule:nonzero;fill:rgb(100%,0%,0%);fill-opacity:1;" d="M 9.628906 6.597656 C 9.605469 6.570312 9.539062 6.691406 9.5625 6.777344 C 9.589844 6.859375 9.582031 6.941406 9.632812 6.925781 C 9.6875 6.914062 9.671875 6.839844 9.707031 6.78125 C 9.734375 6.734375 9.628906 6.75 9.660156 6.695312 Z M 9.628906 6.597656 "/>
<path style=" stroke:none;fill-rule:nonzero;fill:rgb(97.254902%,77.647059%,0%);fill-opacity:1;" d="M 9.523438 6.898438 L 9.871094 6.898438 C 9.871094 6.898438 9.914062 6.742188 9.988281 6.734375 C 10.058594 6.730469 10.078125 6.890625 10.078125 6.890625 C 10.078125 6.890625 10.242188 6.929688 10.3125 6.886719 C 10.382812 6.839844 10.558594 6.890625 10.421875 6.96875 C 10.285156 7.046875 10.363281 6.886719 10.285156 6.96875 C 10.207031 7.054688 10.136719 7.085938 10.148438 7.121094 C 10.164062 7.152344 10.109375 7.179688 10 7.179688 C 9.890625 7.179688 9.816406 7.152344 9.832031 7.101562 C 9.84375 7.046875 9.757812 7.027344 9.660156 7.007812 C 9.5625 6.988281 9.523438 6.898438 9.523438 6.898438 Z M 9.523438 6.898438 "/>
<path style=" stroke:none;fill-rule:nonzero;fill:rgb(100%,0%,0%);fill-opacity:1;" d="M 10.046875 7.316406 C 10.019531 7.285156 9.953125 7.40625 9.980469 7.492188 C 10.007812 7.578125 10 7.65625 10.050781 7.644531 C 10.101562 7.628906 10.089844 7.558594 10.125 7.496094 C 10.148438 7.453125 10.046875 7.464844 10.078125 7.414062 Z M 10.046875 7.316406 "/>
<path style=" stroke:none;fill-rule:nonzero;fill:rgb(97.254902%,77.647059%,0%);fill-opacity:1;" d="M 9.941406 7.613281 L 10.285156 7.613281 C 10.285156 7.613281 10.332031 7.457031 10.402344 7.453125 C 10.476562 7.445312 10.496094 7.609375 10.496094 7.609375 C 10.496094 7.609375 10.65625 7.648438 10.730469 7.601562 C 10.800781 7.554688 10.976562 7.609375 10.839844 7.6875 C 10.703125 7.765625 10.78125 7.601562 10.703125 7.6875 C 10.625 7.769531 10.554688 7.804688 10.566406 7.835938 C 10.578125 7.867188 10.527344 7.894531 10.414062 7.894531 C 10.304688 7.894531 10.234375 7.867188 10.246094 7.816406 C 10.261719 7.765625 10.175781 7.746094 10.078125 7.722656 C 9.980469 7.703125 9.941406 7.613281 9.941406 7.613281 Z M 9.941406 7.613281 "/>
<path style=" stroke:none;fill-rule:nonzero;fill:rgb(100%,0%,0%);fill-opacity:1;" d="M 9.605469 7.898438 C 9.582031 7.871094 9.515625 7.992188 9.539062 8.074219 C 9.566406 8.160156 9.558594 8.238281 9.609375 8.226562 C 9.660156 8.214844 9.648438 8.140625 9.683594 8.082031 C 9.707031 8.035156 9.605469 8.046875 9.636719 7.996094 Z M 9.605469 7.898438 "/>
<path style=" stroke:none;fill-rule:nonzero;fill:rgb(97.254902%,77.647059%,0%);fill-opacity:1;" d="M 9.5 8.199219 L 9.84375 8.199219 C 9.84375 8.199219 9.890625 8.042969 9.960938 8.035156 C 10.035156 8.027344 10.054688 8.191406 10.054688 8.191406 C 10.054688 8.191406 10.214844 8.230469 10.289062 8.183594 C 10.359375 8.140625 10.535156 8.191406 10.398438 8.269531 C 10.261719 8.347656 10.339844 8.183594 10.261719 8.269531 C 10.183594 8.355469 10.113281 8.386719 10.125 8.417969 C 10.136719 8.453125 10.085938 8.476562 9.976562 8.476562 C 9.863281 8.476562 9.792969 8.453125 9.808594 8.398438 C 9.820312 8.347656 9.734375 8.328125 9.636719 8.308594 C 9.539062 8.289062 9.5 8.199219 9.5 8.199219 Z M 9.5 8.199219 "/>
<path style=" stroke:none;fill-rule:nonzero;fill:rgb(100%,0%,0%);fill-opacity:1;" d="M 9.605469 8.59375 C 9.582031 8.566406 9.515625 8.6875 9.539062 8.773438 C 9.566406 8.855469 9.558594 8.9375 9.609375 8.921875 C 9.660156 8.910156 9.648438 8.835938 9.683594 8.777344 C 9.707031 8.730469 9.605469 8.746094 9.636719 8.691406 Z M 9.605469 8.59375 "/>
<path style=" stroke:none;fill-rule:nonzero;fill:rgb(97.254902%,77.647059%,0%);fill-opacity:1;" d="M 9.5 8.894531 L 9.84375 8.894531 C 9.84375 8.894531 9.890625 8.738281 9.960938 8.730469 C 10.035156 8.726562 10.054688 8.886719 10.054688 8.886719 C 10.054688 8.886719 10.214844 8.925781 10.289062 8.882812 C 10.359375 8.835938 10.535156 8.886719 10.398438 8.964844 C 10.261719 9.042969 10.339844 8.882812 10.261719 8.964844 C 10.183594 9.050781 10.113281 9.082031 10.125 9.117188 C 10.136719 9.148438 10.085938 9.175781 9.976562 9.175781 C 9.863281 9.175781 9.792969 9.148438 9.808594 9.097656 C 9.820312 9.042969 9.734375 9.023438 9.636719 9.003906 C 9.539062 8.984375 9.5 8.894531 9.5 8.894531 Z M 9.5 8.894531 "/>
<path style=" stroke:none;fill-rule:nonzero;fill:rgb(100%,0%,0%);fill-opacity:1;" d="M 12.09375 8.59375 C 12.066406 8.566406 12 8.6875 12.027344 8.773438 C 12.050781 8.855469 12.042969 8.9375 12.097656 8.921875 C 12.148438 8.910156 12.132812 8.835938 12.167969 8.777344 C 12.195312 8.730469 12.089844 8.746094 12.121094 8.691406 Z M 12.09375 8.59375 "/>
<path style=" stroke:none;fill-rule:nonzero;fill:rgb(97.254902%,77.647059%,0%);fill-opacity:1;" d="M 11.984375 8.894531 L 12.332031 8.894531 C 12.332031 8.894531 12.375 8.738281 12.449219 8.730469 C 12.519531 8.726562 12.539062 8.886719 12.539062 8.886719 C 12.539062 8.886719 12.703125 8.925781 12.773438 8.882812 C 12.84375 8.835938 13.019531 8.886719 12.882812 8.964844 C 12.746094 9.042969 12.824219 8.882812 12.746094 8.964844 C 12.667969 9.050781 12.597656 9.082031 12.609375 9.117188 C 12.625 9.148438 12.570312 9.175781 12.460938 9.175781 C 12.351562 9.175781 12.277344 9.148438 12.292969 9.097656 C 12.304688 9.042969 12.21875 9.023438 12.121094 9.003906 C 12.023438 8.984375 11.984375 8.894531 11.984375 8.894531 Z M 11.984375 8.894531 "/>
<path style=" stroke:none;fill-rule:nonzero;fill:rgb(100%,0%,0%);fill-opacity:1;" d="M 12.09375 7.941406 C 12.066406 7.910156 12 8.03125 12.027344 8.117188 C 12.050781 8.203125 12.042969 8.28125 12.097656 8.269531 C 12.148438 8.257812 12.132812 8.183594 12.167969 8.125 C 12.195312 8.078125 12.089844 8.089844 12.121094 8.039062 Z M 12.09375 7.941406 "/>
<path style=" stroke:none;fill-rule:nonzero;fill:rgb(97.254902%,77.647059%,0%);fill-opacity:1;" d="M 11.984375 8.242188 L 12.332031 8.242188 C 12.332031 8.242188 12.375 8.085938 12.449219 8.078125 C 12.519531 8.070312 12.539062 8.234375 12.539062 8.234375 C 12.539062 8.234375 12.703125 8.273438 12.773438 8.226562 C 12.84375 8.183594 13.019531 8.234375 12.882812 8.3125 C 12.746094 8.390625 12.824219 8.226562 12.746094 8.3125 C 12.667969 8.394531 12.597656 8.429688 12.609375 8.460938 C 12.625 8.492188 12.570312 8.519531 12.460938 8.519531 C 12.351562 8.519531 12.277344 8.492188 12.292969 8.441406 C 12.304688 8.390625 12.21875 8.371094 12.121094 8.351562 C 12.023438 8.332031 11.984375 8.242188 11.984375 8.242188 Z M 11.984375 8.242188 "/>
<path style=" stroke:none;fill-rule:nonzero;fill:rgb(100%,0%,0%);fill-opacity:1;" d="M 12.09375 7.273438 C 12.066406 7.242188 12 7.363281 12.027344 7.449219 C 12.050781 7.53125 12.042969 7.613281 12.097656 7.597656 C 12.148438 7.585938 12.132812 7.511719 12.167969 7.453125 C 12.195312 7.410156 12.089844 7.421875 12.121094 7.371094 Z M 12.09375 7.273438 "/>
<path style=" stroke:none;fill-rule:nonzero;fill:rgb(97.254902%,77.647059%,0%);fill-opacity:1;" d="M 11.984375 7.570312 L 12.332031 7.570312 C 12.332031 7.570312 12.375 7.414062 12.449219 7.40625 C 12.519531 7.402344 12.539062 7.5625 12.539062 7.5625 C 12.539062 7.5625 12.703125 7.601562 12.773438 7.558594 C 12.84375 7.511719 13.019531 7.5625 12.882812 7.640625 C 12.746094 7.71875 12.824219 7.558594 12.746094 7.640625 C 12.667969 7.726562 12.597656 7.757812 12.609375 7.792969 C 12.625 7.824219 12.570312 7.851562 12.460938 7.851562 C 12.351562 7.851562 12.277344 7.824219 12.292969 7.773438 C 12.304688 7.71875 12.21875 7.699219 12.121094 7.679688 C 12.023438 7.660156 11.984375 7.570312 11.984375 7.570312 Z M 11.984375 7.570312 "/>
<path style=" stroke:none;fill-rule:nonzero;fill:rgb(100%,0%,0%);fill-opacity:1;" d="M 12.09375 6.597656 C 12.066406 6.570312 12 6.691406 12.027344 6.777344 C 12.050781 6.859375 12.042969 6.941406 12.097656 6.925781 C 12.148438 6.914062 12.132812 6.839844 12.167969 6.78125 C 12.195312 6.734375 12.089844 6.75 12.121094 6.695312 Z M 12.09375 6.597656 "/>
<path style=" stroke:none;fill-rule:nonzero;fill:rgb(97.254902%,77.647059%,0%);fill-opacity:1;" d="M 11.984375 6.898438 L 12.332031 6.898438 C 12.332031 6.898438 12.375 6.742188 12.449219 6.734375 C 12.519531 6.730469 12.539062 6.890625 12.539062 6.890625 C 12.539062 6.890625 12.703125 6.929688 12.773438 6.886719 C 12.84375 6.839844 13.019531 6.890625 12.882812 6.96875 C 12.746094 7.046875 12.824219 6.886719 12.746094 6.96875 C 12.667969 7.054688 12.597656 7.085938 12.609375 7.121094 C 12.625 7.152344 12.570312 7.179688 12.460938 7.179688 C 12.351562 7.179688 12.277344 7.152344 12.292969 7.101562 C 12.304688 7.046875 12.21875 7.027344 12.121094 7.007812 C 12.023438 6.988281 11.984375 6.898438 11.984375 6.898438 Z M 11.984375 6.898438 "/>
<path style=" stroke:none;fill-rule:nonzero;fill:rgb(100%,0%,0%);fill-opacity:1;" d="M 12.09375 5.90625 C 12.066406 5.875 12 5.996094 12.027344 6.082031 C 12.050781 6.167969 12.042969 6.246094 12.097656 6.234375 C 12.148438 6.222656 12.132812 6.148438 12.167969 6.089844 C 12.195312 6.042969 12.089844 6.054688 12.121094 6.003906 Z M 12.09375 5.90625 "/>
<path style=" stroke:none;fill-rule:nonzero;fill:rgb(97.254902%,77.647059%,0%);fill-opacity:1;" d="M 11.984375 6.207031 L 12.332031 6.207031 C 12.332031 6.207031 12.375 6.050781 12.449219 6.042969 C 12.519531 6.035156 12.539062 6.199219 12.539062 6.199219 C 12.539062 6.199219 12.703125 6.238281 12.773438 6.191406 C 12.84375 6.148438 13.019531 6.199219 12.882812 6.277344 C 12.746094 6.355469 12.824219 6.191406 12.746094 6.277344 C 12.667969 6.359375 12.597656 6.394531 12.609375 6.425781 C 12.625 6.457031 12.570312 6.484375 12.460938 6.484375 C 12.351562 6.484375 12.277344 6.457031 12.292969 6.40625 C 12.304688 6.355469 12.21875 6.335938 12.121094 6.316406 C 12.023438 6.296875 11.984375 6.207031 11.984375 6.207031 Z M 11.984375 6.207031 "/>
<path style=" stroke:none;fill-rule:nonzero;fill:rgb(100%,0%,0%);fill-opacity:1;" d="M 12.09375 5.203125 C 12.066406 5.171875 12 5.292969 12.027344 5.378906 C 12.050781 5.464844 12.042969 5.542969 12.097656 5.53125 C 12.148438 5.515625 12.132812 5.441406 12.167969 5.382812 C 12.195312 5.339844 12.089844 5.351562 12.121094 5.300781 Z M 12.09375 5.203125 "/>
<path style=" stroke:none;fill-rule:nonzero;fill:rgb(97.254902%,77.647059%,0%);fill-opacity:1;" d="M 11.984375 5.5 L 12.332031 5.5 C 12.332031 5.5 12.375 5.34375 12.449219 5.339844 C 12.519531 5.332031 12.539062 5.496094 12.539062 5.496094 C 12.539062 5.496094 12.703125 5.535156 12.773438 5.488281 C 12.84375 5.441406 13.019531 5.496094 12.882812 5.574219 C 12.746094 5.652344 12.824219 5.488281 12.746094 5.574219 C 12.667969 5.65625 12.597656 5.691406 12.609375 5.722656 C 12.625 5.753906 12.570312 5.78125 12.460938 5.78125 C 12.351562 5.78125 12.277344 5.753906 12.292969 5.703125 C 12.304688 5.652344 12.21875 5.632812 12.121094 5.613281 C 12.023438 5.59375 11.984375 5.5 11.984375 5.5 Z M 13.832031 9.609375 C 13.699219 9.523438 13.5 9.339844 13.445312 9.253906 C 13.394531 9.167969 13.289062 9.046875 13.179688 9.175781 C 13.066406 9.304688 12.1875 10.164062 11.214844 10.164062 C 10.242188 10.164062 9.363281 9.304688 9.25 9.175781 C 9.140625 9.046875 9.035156 9.167969 8.984375 9.253906 C 8.933594 9.339844 8.730469 9.523438 8.597656 9.609375 C 8.46875 9.695312 8.546875 9.914062 8.703125 10.046875 C 8.859375 10.175781 9.046875 9.890625 9.046875 9.890625 C 9.589844 10.371094 10.292969 10.820312 11.214844 10.820312 C 12.136719 10.820312 12.839844 10.371094 13.378906 9.890625 C 13.378906 9.890625 13.570312 10.175781 13.726562 10.046875 C 13.882812 9.914062 13.960938 9.695312 13.832031 9.609375 Z M 13.832031 9.609375 "/>
<path style=" stroke:none;fill-rule:nonzero;fill:rgb(0%,14.117647%,49.019608%);fill-opacity:1;" d="M 7.917969 7.5 L 7.917969 2.082031 L 1.667969 2.082031 C 1.535156 2.082031 1.414062 2.101562 1.414062 2.101562 L 1.414062 2.832031 L 0.277344 2.832031 C 0.277344 2.832031 0.257812 2.855469 0.222656 2.917969 C 0.0820312 3.160156 0 3.445312 0 3.75 L 0 7.5 Z M 7.917969 7.5 "/>
<path style=" stroke:none;fill-rule:nonzero;fill:rgb(93.333333%,93.333333%,93.333333%);fill-opacity:1;" d="M 7.917969 2.082031 L 6.945312 2.082031 L 5 3.445312 L 5 2.082031 L 2.917969 2.082031 L 2.917969 3.152344 L 1.414062 2.101562 C 1.160156 2.140625 0.917969 2.238281 0.71875 2.378906 L 2.675781 3.75 L 1.953125 3.75 L 0.402344 2.664062 C 0.355469 2.714844 0.316406 2.773438 0.277344 2.832031 L 1.589844 3.75 L 0 3.75 L 0 5.832031 L 1.617188 5.832031 L 0 6.984375 L 0 7.5 L 1.386719 7.5 L 2.917969 6.429688 L 2.917969 7.5 L 5 7.5 L 5 6.136719 L 6.945312 7.5 L 7.917969 7.5 L 7.917969 6.65625 L 6.742188 5.832031 L 7.917969 5.832031 L 7.917969 3.75 L 6.746094 3.75 L 7.917969 2.929688 Z M 7.917969 2.082031 "/>
<path style=" stroke:none;fill-rule:nonzero;fill:rgb(81.176471%,10.588235%,16.862745%);fill-opacity:1;" d="M 4.582031 2.082031 L 3.332031 2.082031 L 3.332031 4.167969 L 0 4.167969 L 0 5.417969 L 3.332031 5.417969 L 3.332031 7.5 L 4.582031 7.5 L 4.582031 5.417969 L 7.917969 5.417969 L 7.917969 4.167969 L 4.582031 4.167969 Z M 4.582031 2.082031 "/>
<path style=" stroke:none;fill-rule:nonzero;fill:rgb(81.176471%,10.588235%,16.862745%);fill-opacity:1;" d="M 7.917969 2.082031 L 7.308594 2.082031 L 5 3.699219 L 5 3.75 L 5.65625 3.75 L 7.917969 2.164062 Z M 0.71875 2.378906 C 0.601562 2.460938 0.496094 2.554688 0.402344 2.664062 L 1.953125 3.75 L 2.675781 3.75 Z M 2.683594 5.832031 L 0.304688 7.5 L 1.027344 7.5 L 2.917969 6.175781 L 2.917969 5.832031 Z M 7.917969 7.417969 L 7.917969 6.910156 L 6.378906 5.832031 L 5.652344 5.832031 Z M 7.917969 7.417969 "/>
</g>
</svg>
