<?xml version="1.0" encoding="UTF-8"?>
<svg xmlns="http://www.w3.org/2000/svg" xmlns:xlink="http://www.w3.org/1999/xlink" width="15pt" height="15pt" viewBox="0 0 15 15" version="1.1">
<g id="surface1">
<path style=" stroke:none;fill-rule:nonzero;fill:rgb(0%,68.627451%,79.215686%);fill-opacity:1;" d="M 15 11.25 C 15 12.171875 14.253906 12.917969 13.332031 12.917969 L 1.667969 12.917969 C 0.746094 12.917969 0 12.171875 0 11.25 L 0 3.75 C 0 2.828125 0.746094 2.082031 1.667969 2.082031 L 13.332031 2.082031 C 14.253906 2.082031 15 2.828125 15 3.75 Z M 15 11.25 "/>
<path style=" stroke:none;fill-rule:nonzero;fill:rgb(100%,80%,30.196078%);fill-opacity:1;" d="M 9.125 6.878906 C 9.125 7.539062 8.589844 8.074219 7.929688 8.074219 C 7.273438 8.074219 6.738281 7.539062 6.738281 6.878906 C 6.738281 6.222656 7.273438 5.6875 7.929688 5.6875 C 8.589844 5.6875 9.125 6.222656 9.125 6.878906 Z M 9.125 6.878906 "/>
<path style=" stroke:none;fill-rule:nonzero;fill:rgb(100%,80%,30.196078%);fill-opacity:1;" d="M 7.933594 5.597656 C 8.003906 5.597656 8.027344 5.550781 8.027344 5.5 C 8.027344 5.425781 7.933594 4.875 7.933594 4.875 C 7.933594 4.875 7.832031 5.425781 7.832031 5.5 C 7.832031 5.550781 7.859375 5.597656 7.933594 5.597656 Z M 7.933594 8.171875 C 7.859375 8.171875 7.832031 8.214844 7.832031 8.269531 C 7.832031 8.339844 7.933594 8.886719 7.933594 8.886719 C 7.933594 8.886719 8.027344 8.339844 8.027344 8.269531 C 8.027344 8.214844 8.003906 8.171875 7.933594 8.171875 Z M 7.597656 8.121094 C 7.53125 8.101562 7.492188 8.140625 7.480469 8.191406 C 7.460938 8.257812 7.410156 8.816406 7.410156 8.816406 C 7.410156 8.816406 7.648438 8.308594 7.667969 8.242188 C 7.683594 8.191406 7.667969 8.140625 7.597656 8.121094 Z M 8.265625 5.632812 C 8.335938 5.652344 8.371094 5.617188 8.386719 5.566406 C 8.402344 5.496094 8.449219 4.945312 8.449219 4.945312 C 8.449219 4.945312 8.214844 5.445312 8.195312 5.515625 C 8.183594 5.566406 8.195312 5.617188 8.265625 5.632812 Z M 7.289062 7.992188 C 7.226562 7.957031 7.183594 7.980469 7.15625 8.027344 C 7.121094 8.089844 6.929688 8.617188 6.929688 8.617188 C 6.929688 8.617188 7.289062 8.1875 7.324219 8.125 C 7.351562 8.078125 7.351562 8.027344 7.289062 7.992188 Z M 8.574219 5.761719 C 8.636719 5.796875 8.683594 5.773438 8.710938 5.726562 C 8.746094 5.664062 8.933594 5.144531 8.933594 5.144531 C 8.933594 5.144531 8.578125 5.566406 8.539062 5.628906 C 8.515625 5.675781 8.515625 5.726562 8.574219 5.761719 Z M 7.023438 7.789062 C 6.972656 7.738281 6.921875 7.75 6.886719 7.789062 C 6.835938 7.839844 6.511719 8.296875 6.511719 8.296875 C 6.511719 8.296875 6.972656 7.976562 7.023438 7.925781 C 7.058594 7.890625 7.074219 7.835938 7.023438 7.789062 Z M 8.84375 5.964844 C 8.894531 6.015625 8.945312 6.003906 8.980469 5.964844 C 9.03125 5.917969 9.347656 5.460938 9.347656 5.460938 C 9.347656 5.460938 8.894531 5.777344 8.84375 5.828125 C 8.808594 5.867188 8.792969 5.917969 8.84375 5.964844 Z M 6.820312 7.519531 C 6.785156 7.460938 6.730469 7.460938 6.6875 7.488281 C 6.625 7.523438 6.195312 7.882812 6.195312 7.882812 C 6.195312 7.882812 6.722656 7.691406 6.785156 7.65625 C 6.828125 7.628906 6.855469 7.582031 6.820312 7.519531 Z M 9.046875 6.234375 C 9.085938 6.296875 9.136719 6.296875 9.183594 6.269531 C 9.246094 6.234375 9.667969 5.878906 9.667969 5.878906 C 9.667969 5.878906 9.148438 6.066406 9.085938 6.101562 C 9.039062 6.128906 9.015625 6.171875 9.046875 6.234375 Z M 6.691406 7.210938 C 6.671875 7.144531 6.621094 7.128906 6.570312 7.144531 C 6.503906 7.160156 5.996094 7.398438 5.996094 7.398438 C 5.996094 7.398438 6.554688 7.351562 6.621094 7.332031 C 6.671875 7.316406 6.710938 7.28125 6.691406 7.210938 Z M 9.175781 6.546875 C 9.195312 6.613281 9.246094 6.628906 9.296875 6.613281 C 9.367188 6.597656 9.867188 6.359375 9.867188 6.359375 C 9.867188 6.359375 9.316406 6.40625 9.246094 6.425781 C 9.195312 6.441406 9.160156 6.476562 9.175781 6.546875 Z M 6.648438 6.878906 C 6.648438 6.808594 6.601562 6.78125 6.550781 6.78125 C 6.480469 6.78125 5.925781 6.878906 5.925781 6.878906 C 5.925781 6.878906 6.480469 6.976562 6.550781 6.976562 C 6.601562 6.976562 6.648438 6.953125 6.648438 6.878906 Z M 9.222656 6.878906 C 9.222656 6.953125 9.265625 6.976562 9.320312 6.976562 C 9.390625 6.976562 9.9375 6.878906 9.9375 6.878906 C 9.9375 6.878906 9.390625 6.78125 9.320312 6.78125 C 9.265625 6.78125 9.222656 6.808594 9.222656 6.878906 Z M 6.691406 6.546875 C 6.710938 6.480469 6.671875 6.441406 6.621094 6.429688 C 6.554688 6.410156 5.996094 6.359375 5.996094 6.359375 C 5.996094 6.359375 6.503906 6.597656 6.570312 6.617188 C 6.621094 6.628906 6.671875 6.617188 6.691406 6.546875 Z M 9.179688 7.214844 C 9.160156 7.28125 9.195312 7.320312 9.246094 7.335938 C 9.316406 7.351562 9.867188 7.398438 9.867188 7.398438 C 9.867188 7.398438 9.367188 7.164062 9.296875 7.144531 C 9.246094 7.132812 9.195312 7.144531 9.179688 7.214844 Z M 6.820312 6.238281 C 6.855469 6.175781 6.828125 6.132812 6.78125 6.105469 C 6.722656 6.070312 6.195312 5.878906 6.195312 5.878906 C 6.195312 5.878906 6.625 6.238281 6.683594 6.273438 C 6.730469 6.300781 6.785156 6.300781 6.820312 6.238281 Z M 9.050781 7.523438 C 9.015625 7.585938 9.039062 7.632812 9.085938 7.660156 C 9.148438 7.695312 9.667969 7.882812 9.667969 7.882812 C 9.667969 7.882812 9.246094 7.527344 9.183594 7.488281 C 9.136719 7.464844 9.085938 7.464844 9.050781 7.523438 Z M 7.023438 5.972656 C 7.074219 5.921875 7.058594 5.871094 7.023438 5.835938 C 6.972656 5.785156 6.511719 5.460938 6.511719 5.460938 C 6.511719 5.460938 6.835938 5.921875 6.882812 5.972656 C 6.921875 6.007812 6.972656 6.023438 7.023438 5.972656 Z M 8.84375 7.792969 C 8.792969 7.84375 8.808594 7.894531 8.84375 7.929688 C 8.894531 7.980469 9.351562 8.296875 9.351562 8.296875 C 9.351562 8.296875 9.03125 7.84375 8.980469 7.792969 C 8.945312 7.753906 8.894531 7.742188 8.84375 7.792969 Z M 7.289062 5.769531 C 7.351562 5.730469 7.351562 5.679688 7.324219 5.632812 C 7.289062 5.574219 6.929688 5.144531 6.929688 5.144531 C 6.929688 5.144531 7.121094 5.671875 7.15625 5.730469 C 7.183594 5.777344 7.226562 5.804688 7.289062 5.769531 Z M 8.578125 7.996094 C 8.515625 8.035156 8.515625 8.085938 8.542969 8.132812 C 8.578125 8.191406 8.933594 8.617188 8.933594 8.617188 C 8.933594 8.617188 8.746094 8.09375 8.710938 8.035156 C 8.683594 7.988281 8.640625 7.960938 8.578125 7.996094 Z M 7.597656 5.640625 C 7.667969 5.621094 7.679688 5.570312 7.667969 5.519531 C 7.648438 5.453125 7.414062 4.941406 7.414062 4.941406 C 7.414062 4.941406 7.460938 5.503906 7.480469 5.570312 C 7.492188 5.621094 7.53125 5.660156 7.597656 5.640625 Z M 8.265625 8.125 C 8.195312 8.144531 8.183594 8.195312 8.195312 8.246094 C 8.214844 8.316406 8.449219 8.816406 8.449219 8.816406 C 8.449219 8.816406 8.402344 8.265625 8.386719 8.195312 C 8.371094 8.144531 8.335938 8.109375 8.265625 8.125 Z M 8.265625 8.125 "/>
<path style=" stroke:none;fill-rule:nonzero;fill:rgb(100%,80%,30.196078%);fill-opacity:1;" d="M 9.101562 9.851562 L 9.085938 9.859375 L 9.070312 9.859375 L 9.058594 9.863281 L 9.035156 9.859375 L 9.011719 9.851562 L 9.003906 9.84375 L 8.984375 9.828125 L 8.964844 9.816406 L 8.957031 9.808594 L 8.945312 9.804688 L 8.9375 9.800781 L 8.925781 9.800781 L 8.878906 9.898438 L 8.867188 9.914062 L 8.859375 9.925781 L 8.847656 9.933594 L 8.839844 9.9375 L 8.828125 9.945312 L 8.816406 9.945312 L 8.808594 9.9375 L 8.792969 9.933594 L 8.789062 9.925781 L 8.78125 9.917969 L 8.777344 9.910156 L 8.773438 9.898438 L 8.765625 9.863281 L 8.738281 9.890625 L 8.714844 9.929688 L 8.699219 9.949219 L 8.671875 9.976562 L 8.660156 9.984375 L 8.652344 9.988281 L 8.636719 9.992188 L 8.628906 9.992188 L 8.617188 9.996094 L 8.605469 9.992188 L 8.597656 9.988281 L 8.570312 9.957031 L 8.542969 9.921875 L 8.519531 9.957031 L 8.496094 9.984375 L 8.464844 10.015625 L 8.441406 10.027344 L 8.410156 10.027344 L 8.402344 10.019531 L 8.394531 10.015625 L 8.386719 10.003906 C 8.378906 9.984375 8.375 9.96875 8.367188 9.953125 L 8.367188 9.941406 L 8.355469 9.929688 L 8.351562 9.929688 L 8.289062 10.027344 L 8.28125 10.039062 L 8.265625 10.042969 L 8.230469 10.054688 L 8.207031 10.054688 L 8.191406 10.046875 L 8.1875 10.046875 L 8.179688 10.039062 L 8.179688 10.027344 L 8.1875 9.925781 L 8.179688 9.925781 L 8.160156 9.9375 C 8.144531 9.953125 8.128906 9.972656 8.113281 9.988281 L 8.09375 10.015625 L 8.066406 10.035156 L 8.042969 10.054688 L 8.03125 10.0625 L 8.003906 10.066406 L 7.992188 10.0625 L 7.988281 10.0625 L 7.980469 10.046875 L 7.980469 10.042969 L 7.984375 10.011719 L 7.988281 9.964844 L 7.984375 9.9375 L 7.976562 9.921875 L 7.960938 9.945312 L 7.9375 9.972656 C 7.921875 9.992188 7.902344 10.015625 7.882812 10.035156 C 7.871094 10.039062 7.859375 10.046875 7.847656 10.054688 L 7.824219 10.066406 L 7.820312 10.0625 L 7.8125 10.0625 L 7.804688 10.054688 L 7.800781 10.046875 L 7.800781 10.03125 L 7.796875 10.019531 L 7.800781 9.933594 C 7.757812 9.964844 7.714844 9.992188 7.671875 10.015625 L 7.640625 10.03125 C 7.621094 10.035156 7.605469 10.042969 7.589844 10.046875 L 7.570312 10.046875 L 7.558594 10.042969 L 7.542969 10.039062 L 7.550781 10.019531 L 7.5625 9.988281 L 7.570312 9.976562 L 7.582031 9.960938 L 7.589844 9.949219 L 7.613281 9.925781 L 7.667969 9.886719 L 7.699219 9.875 L 7.734375 9.863281 L 7.765625 9.855469 L 7.84375 9.839844 L 7.882812 9.835938 C 8 9.828125 8.113281 9.828125 8.230469 9.828125 L 8.355469 9.820312 L 8.394531 9.816406 L 8.46875 9.804688 L 8.503906 9.792969 L 8.535156 9.78125 L 8.566406 9.765625 C 8.582031 9.753906 8.597656 9.742188 8.613281 9.730469 L 8.636719 9.703125 L 8.613281 9.660156 L 8.628906 9.65625 L 8.648438 9.652344 L 8.667969 9.644531 L 8.683594 9.632812 L 8.691406 9.628906 L 8.695312 9.621094 L 8.703125 9.609375 L 8.707031 9.605469 L 8.707031 9.578125 L 8.703125 9.570312 L 8.742188 9.5625 L 8.828125 9.554688 L 8.875 9.554688 C 8.9375 9.558594 9 9.5625 9.0625 9.566406 C 9.160156 9.578125 9.257812 9.589844 9.351562 9.597656 L 9.4375 9.601562 L 9.4375 9.648438 L 9.433594 9.660156 L 9.429688 9.675781 L 9.421875 9.6875 L 9.417969 9.695312 C 9.410156 9.703125 9.398438 9.714844 9.390625 9.722656 L 9.371094 9.734375 L 9.347656 9.746094 L 9.328125 9.75 L 9.300781 9.753906 L 9.253906 9.75 L 9.226562 9.742188 L 9.179688 9.71875 L 9.164062 9.703125 L 9.144531 9.6875 L 9.144531 9.726562 C 9.140625 9.75 9.136719 9.777344 9.132812 9.800781 L 9.121094 9.835938 L 9.113281 9.839844 L 9.109375 9.847656 L 9.101562 9.851562 M 7.261719 9.636719 L 7.3125 9.660156 C 7.324219 9.652344 7.335938 9.640625 7.347656 9.632812 L 7.367188 9.625 L 7.382812 9.613281 L 7.453125 9.585938 L 7.511719 9.558594 L 7.542969 9.546875 L 7.59375 9.519531 L 7.613281 9.503906 C 7.664062 9.472656 7.71875 9.4375 7.769531 9.40625 L 7.816406 9.371094 L 7.847656 9.34375 C 7.882812 9.3125 7.917969 9.28125 7.949219 9.25 L 7.980469 9.234375 C 8 9.222656 8.019531 9.214844 8.039062 9.207031 L 8.078125 9.191406 C 8.152344 9.171875 8.234375 9.152344 8.3125 9.140625 C 8.390625 9.132812 8.472656 9.121094 8.554688 9.113281 L 8.660156 9.09375 C 8.6875 9.085938 8.714844 9.078125 8.742188 9.074219 L 8.769531 9.039062 L 8.8125 8.992188 L 8.84375 8.960938 L 8.878906 8.933594 L 8.917969 8.902344 L 8.960938 8.875 L 9.03125 8.832031 C 9.082031 8.808594 9.128906 8.78125 9.179688 8.757812 C 9.265625 8.714844 9.351562 8.671875 9.4375 8.628906 L 9.480469 8.601562 L 9.492188 8.566406 L 9.507812 8.53125 L 9.527344 8.5 L 9.578125 8.425781 C 9.605469 8.402344 9.628906 8.375 9.652344 8.347656 C 9.679688 8.320312 9.707031 8.296875 9.738281 8.269531 L 9.78125 8.234375 L 9.804688 8.214844 L 9.828125 8.199219 C 9.84375 8.191406 9.859375 8.183594 9.878906 8.171875 L 9.902344 8.160156 L 9.929688 8.152344 L 9.980469 8.140625 L 10.035156 8.132812 L 10.0625 8.136719 L 10.085938 8.140625 L 10.085938 8.167969 L 10.078125 8.195312 L 10.058594 8.253906 L 10.039062 8.28125 L 10.019531 8.3125 L 9.996094 8.34375 L 9.964844 8.375 L 9.988281 8.375 L 10.007812 8.371094 L 10.027344 8.363281 L 10.039062 8.359375 L 10.070312 8.347656 L 10.113281 8.34375 L 10.117188 8.359375 L 10.117188 8.375 L 10.109375 8.40625 L 10.101562 8.417969 L 10.09375 8.433594 L 10.085938 8.445312 L 10.074219 8.457031 C 10.042969 8.484375 10.011719 8.515625 9.976562 8.546875 L 10.003906 8.546875 C 10.023438 8.554688 10.042969 8.558594 10.066406 8.566406 L 10.085938 8.570312 L 10.058594 8.589844 C 10.039062 8.605469 10.015625 8.621094 9.996094 8.632812 L 9.921875 8.671875 L 9.886719 8.695312 L 9.847656 8.722656 L 9.816406 8.75 L 9.832031 8.75 L 9.851562 8.761719 L 9.859375 8.761719 L 9.871094 8.769531 L 9.882812 8.769531 L 9.839844 8.792969 C 9.808594 8.808594 9.78125 8.820312 9.753906 8.835938 L 9.71875 8.855469 L 9.710938 8.863281 L 9.707031 8.871094 L 9.703125 8.875 L 9.703125 8.886719 L 9.710938 8.890625 L 9.726562 8.90625 L 9.71875 8.921875 L 9.703125 8.9375 L 9.679688 8.949219 L 9.652344 8.960938 L 9.601562 8.976562 L 9.566406 8.992188 L 9.613281 9.039062 L 9.597656 9.054688 L 9.582031 9.066406 L 9.550781 9.082031 L 9.519531 9.085938 L 9.476562 9.085938 L 9.480469 9.105469 L 9.488281 9.125 L 9.496094 9.171875 C 9.46875 9.195312 9.4375 9.214844 9.410156 9.234375 L 9.355469 9.269531 L 9.296875 9.304688 L 9.226562 9.335938 C 9.191406 9.351562 9.152344 9.367188 9.109375 9.378906 L 9.023438 9.398438 L 8.972656 9.402344 C 9.027344 9.40625 9.078125 9.40625 9.132812 9.40625 L 9.261719 9.390625 L 9.320312 9.378906 L 9.371094 9.367188 C 9.402344 9.355469 9.4375 9.34375 9.46875 9.332031 L 9.53125 9.300781 L 9.59375 9.265625 L 9.652344 9.230469 L 9.714844 9.191406 L 9.679688 9.175781 L 9.640625 9.164062 L 9.625 9.15625 C 9.613281 9.148438 9.597656 9.144531 9.585938 9.136719 L 9.566406 9.125 L 9.582031 9.113281 L 9.605469 9.105469 L 9.628906 9.09375 C 9.65625 9.089844 9.683594 9.082031 9.710938 9.078125 C 9.746094 9.074219 9.78125 9.066406 9.820312 9.0625 L 9.863281 9.058594 L 9.898438 9.050781 L 9.910156 9.042969 L 9.914062 9.039062 L 9.914062 9.035156 L 9.910156 9.03125 L 9.894531 9.023438 L 9.867188 9.019531 L 9.773438 9.007812 L 9.742188 9 L 9.726562 8.992188 L 9.949219 8.941406 L 9.988281 8.929688 C 10.007812 8.925781 10.023438 8.917969 10.039062 8.910156 L 10.0625 8.898438 L 10.070312 8.886719 L 10.066406 8.878906 L 10.042969 8.875 L 9.980469 8.875 C 9.957031 8.871094 9.933594 8.871094 9.910156 8.871094 L 9.878906 8.863281 L 9.859375 8.859375 L 9.894531 8.847656 C 9.941406 8.832031 9.992188 8.816406 10.039062 8.804688 C 10.066406 8.796875 10.097656 8.785156 10.125 8.777344 L 10.167969 8.757812 L 10.1875 8.746094 L 10.207031 8.738281 L 10.214844 8.730469 L 10.21875 8.71875 L 10.226562 8.714844 L 10.230469 8.707031 L 10.226562 8.699219 L 10.21875 8.695312 L 10.214844 8.691406 L 10.148438 8.691406 L 10.121094 8.695312 L 10.078125 8.695312 L 10.066406 8.691406 L 10.050781 8.683594 C 10.132812 8.628906 10.214844 8.574219 10.300781 8.519531 L 10.367188 8.472656 C 10.386719 8.460938 10.402344 8.445312 10.417969 8.429688 L 10.441406 8.40625 L 10.472656 8.359375 L 10.484375 8.332031 L 10.488281 8.304688 L 10.488281 8.277344 L 10.457031 8.277344 L 10.421875 8.292969 C 10.390625 8.3125 10.359375 8.332031 10.324219 8.347656 L 10.308594 8.359375 L 10.285156 8.371094 L 10.265625 8.375 L 10.246094 8.382812 L 10.207031 8.382812 L 10.191406 8.375 L 10.246094 8.335938 C 10.289062 8.296875 10.335938 8.257812 10.378906 8.222656 C 10.425781 8.175781 10.472656 8.128906 10.519531 8.078125 L 10.585938 8.003906 C 10.605469 7.980469 10.625 7.953125 10.644531 7.929688 C 10.660156 7.90625 10.679688 7.882812 10.695312 7.859375 L 10.699219 7.851562 L 10.699219 7.832031 L 10.695312 7.828125 L 10.695312 7.820312 L 10.6875 7.816406 L 10.679688 7.808594 L 10.65625 7.796875 L 10.636719 7.796875 L 10.628906 7.800781 L 10.617188 7.800781 L 10.609375 7.808594 L 10.597656 7.816406 C 10.554688 7.863281 10.507812 7.910156 10.460938 7.960938 L 10.40625 8.011719 C 10.371094 8.042969 10.332031 8.074219 10.296875 8.105469 C 10.277344 8.117188 10.261719 8.128906 10.242188 8.140625 L 10.191406 8.164062 L 10.207031 8.152344 C 10.222656 8.136719 10.242188 8.121094 10.257812 8.105469 C 10.316406 8.035156 10.371094 7.964844 10.425781 7.894531 L 10.53125 7.746094 L 10.558594 7.695312 L 10.589844 7.652344 L 10.609375 7.609375 L 10.628906 7.570312 L 10.640625 7.539062 L 10.644531 7.527344 L 10.644531 7.507812 L 10.640625 7.5 L 10.632812 7.488281 L 10.628906 7.484375 L 10.605469 7.472656 L 10.589844 7.46875 L 10.558594 7.46875 L 10.550781 7.472656 L 10.542969 7.472656 L 10.535156 7.480469 L 10.527344 7.484375 L 10.507812 7.5 C 10.488281 7.527344 10.46875 7.550781 10.449219 7.578125 C 10.402344 7.648438 10.355469 7.71875 10.304688 7.789062 L 10.246094 7.855469 L 10.21875 7.886719 L 10.183594 7.914062 L 10.226562 7.839844 L 10.289062 7.703125 L 10.332031 7.605469 L 10.351562 7.554688 L 10.382812 7.453125 C 10.390625 7.417969 10.398438 7.382812 10.402344 7.351562 C 10.40625 7.320312 10.410156 7.289062 10.410156 7.257812 L 10.40625 7.234375 L 10.40625 7.214844 L 10.402344 7.191406 L 10.394531 7.164062 L 10.390625 7.15625 L 10.378906 7.148438 L 10.363281 7.140625 L 10.347656 7.136719 L 10.316406 7.136719 L 10.3125 7.140625 L 10.308594 7.140625 L 10.304688 7.148438 C 10.261719 7.277344 10.230469 7.410156 10.195312 7.539062 C 10.183594 7.578125 10.167969 7.613281 10.15625 7.652344 L 10.121094 7.714844 L 10.097656 7.746094 L 10.113281 7.679688 C 10.121094 7.640625 10.125 7.605469 10.132812 7.566406 L 10.140625 7.472656 L 10.144531 7.433594 C 10.140625 7.414062 10.140625 7.394531 10.136719 7.371094 L 10.128906 7.332031 L 10.117188 7.316406 L 10.113281 7.3125 L 10.097656 7.308594 L 10.09375 7.304688 L 10.085938 7.304688 L 10.078125 7.308594 L 10.058594 7.3125 L 10.042969 7.324219 C 10.027344 7.394531 10.011719 7.464844 9.992188 7.535156 C 9.964844 7.621094 9.933594 7.707031 9.894531 7.792969 C 9.871094 7.84375 9.84375 7.894531 9.816406 7.945312 L 9.765625 8.03125 L 9.710938 8.113281 C 9.675781 8.164062 9.636719 8.214844 9.597656 8.265625 C 9.558594 8.308594 9.519531 8.351562 9.480469 8.394531 C 9.441406 8.433594 9.398438 8.472656 9.355469 8.511719 C 9.3125 8.550781 9.265625 8.585938 9.222656 8.621094 C 9.164062 8.660156 9.109375 8.699219 9.050781 8.734375 L 8.949219 8.792969 L 8.789062 8.867188 L 8.625 8.925781 L 8.488281 8.96875 L 8.347656 9 L 8.277344 9.011719 L 8.128906 9.03125 L 8.058594 9.035156 L 8.050781 9.035156 L 8.027344 9.046875 L 8.015625 9.058594 C 7.996094 9.074219 7.976562 9.089844 7.960938 9.105469 L 7.925781 9.140625 L 7.792969 9.289062 L 7.742188 9.339844 L 7.683594 9.386719 L 7.636719 9.417969 L 7.585938 9.441406 C 7.507812 9.472656 7.429688 9.5 7.351562 9.53125 L 7.332031 9.542969 L 7.3125 9.550781 L 7.300781 9.5625 L 7.273438 9.585938 L 7.265625 9.597656 L 7.261719 9.609375 L 7.261719 9.636719 "/>
<path style=" stroke:none;fill-rule:nonzero;fill:rgb(100%,80%,30.196078%);fill-opacity:1;" d="M 8.101562 9.738281 L 8.140625 9.746094 L 8.15625 9.75 L 8.160156 9.753906 L 8.160156 9.757812 L 8.152344 9.757812 L 8.117188 9.765625 L 8.085938 9.765625 L 7.992188 9.757812 L 7.746094 9.753906 C 7.683594 9.753906 7.621094 9.757812 7.554688 9.757812 C 7.5 9.761719 7.441406 9.765625 7.386719 9.773438 L 7.34375 9.777344 L 7.304688 9.789062 C 7.292969 9.792969 7.285156 9.792969 7.277344 9.796875 L 7.265625 9.800781 L 7.253906 9.808594 L 7.257812 9.785156 L 7.269531 9.761719 L 7.238281 9.773438 L 7.210938 9.785156 L 7.199219 9.792969 L 7.191406 9.800781 L 7.183594 9.8125 L 7.179688 9.824219 L 7.175781 9.808594 L 7.167969 9.792969 C 7.167969 9.785156 7.167969 9.773438 7.164062 9.765625 C 7.167969 9.753906 7.167969 9.742188 7.171875 9.726562 L 7.179688 9.714844 L 7.183594 9.707031 L 7.191406 9.695312 L 7.210938 9.679688 L 7.234375 9.660156 L 7.265625 9.644531 C 7.277344 9.65625 7.292969 9.660156 7.3125 9.667969 C 7.324219 9.667969 7.34375 9.667969 7.359375 9.660156 C 7.386719 9.683594 7.453125 9.679688 7.460938 9.640625 C 7.464844 9.625 7.464844 9.609375 7.460938 9.59375 L 7.488281 9.589844 L 7.519531 9.585938 L 7.589844 9.566406 L 7.628906 9.5625 L 7.660156 9.550781 L 7.695312 9.546875 L 7.722656 9.546875 L 7.710938 9.554688 L 7.652344 9.601562 L 7.628906 9.617188 L 7.65625 9.625 L 7.683594 9.628906 L 7.628906 9.691406 L 7.613281 9.707031 L 7.632812 9.714844 L 7.671875 9.722656 L 7.710938 9.722656 L 7.753906 9.714844 L 7.769531 9.707031 L 7.808594 9.722656 C 7.816406 9.726562 7.832031 9.730469 7.84375 9.730469 C 7.871094 9.734375 7.898438 9.738281 7.929688 9.742188 L 8.101562 9.742188 M 7.890625 9.042969 L 7.871094 9.085938 L 7.847656 9.136719 C 7.835938 9.160156 7.824219 9.183594 7.8125 9.203125 L 7.800781 9.214844 L 7.777344 9.191406 L 7.746094 9.171875 L 7.714844 9.15625 L 7.679688 9.140625 L 7.605469 9.125 L 7.570312 9.117188 C 7.53125 9.113281 7.492188 9.109375 7.449219 9.105469 C 7.398438 9.105469 7.34375 9.101562 7.292969 9.097656 L 7.21875 9.089844 L 7.140625 9.074219 L 7.097656 9.058594 L 7.0625 9.042969 L 7.039062 9.023438 L 6.984375 8.984375 C 6.910156 8.914062 6.832031 8.839844 6.753906 8.769531 L 6.710938 8.738281 L 6.6875 8.730469 L 6.667969 8.722656 L 6.628906 8.714844 C 6.605469 8.707031 6.582031 8.699219 6.558594 8.691406 C 6.539062 8.679688 6.515625 8.671875 6.496094 8.660156 C 6.457031 8.636719 6.421875 8.613281 6.386719 8.585938 L 6.363281 8.566406 L 6.316406 8.519531 L 6.273438 8.472656 C 6.203125 8.382812 6.132812 8.292969 6.0625 8.203125 C 6.027344 8.167969 5.996094 8.132812 5.960938 8.097656 L 5.929688 8.070312 L 5.902344 8.046875 L 5.835938 7.996094 L 5.828125 8 L 5.8125 8.015625 C 5.808594 8.027344 5.804688 8.039062 5.800781 8.046875 L 5.800781 8.058594 L 5.753906 8.035156 L 5.738281 8.03125 L 5.710938 8.03125 L 5.691406 8.035156 L 5.675781 8.042969 C 5.691406 8.058594 5.703125 8.074219 5.714844 8.089844 L 5.734375 8.121094 L 5.769531 8.195312 L 5.785156 8.226562 L 5.789062 8.246094 L 5.796875 8.277344 L 5.796875 8.289062 L 5.671875 8.289062 L 5.691406 8.316406 C 5.703125 8.335938 5.71875 8.355469 5.734375 8.371094 L 5.808594 8.449219 L 5.835938 8.46875 L 5.859375 8.484375 C 5.839844 8.488281 5.820312 8.488281 5.800781 8.488281 L 5.738281 8.496094 L 5.757812 8.515625 C 5.777344 8.527344 5.796875 8.539062 5.8125 8.554688 L 5.84375 8.574219 L 5.871094 8.59375 L 5.902344 8.609375 L 5.929688 8.617188 L 5.953125 8.625 L 5.976562 8.628906 L 5.980469 8.632812 L 5.988281 8.636719 L 5.988281 8.648438 L 5.980469 8.667969 L 5.980469 8.679688 L 5.976562 8.6875 L 5.976562 8.695312 L 5.980469 8.707031 L 5.980469 8.714844 L 5.988281 8.71875 L 5.992188 8.726562 L 6.015625 8.734375 L 6.035156 8.742188 L 6.046875 8.746094 L 6.058594 8.753906 L 6.058594 8.761719 L 6.039062 8.777344 L 6.019531 8.796875 L 6.019531 8.816406 L 6.023438 8.839844 L 6.101562 8.867188 L 6.121094 8.871094 L 6.140625 8.878906 L 6.164062 8.894531 L 6.089844 8.953125 L 6.109375 8.972656 L 6.136719 8.984375 L 6.167969 9 C 6.191406 9.007812 6.214844 9.015625 6.238281 9.023438 L 6.300781 9.039062 L 6.328125 9.039062 L 6.300781 9.054688 L 6.269531 9.078125 L 6.234375 9.09375 L 6.210938 9.113281 L 6.234375 9.128906 C 6.304688 9.164062 6.375 9.199219 6.445312 9.226562 C 6.574219 9.28125 6.703125 9.324219 6.832031 9.363281 C 6.863281 9.371094 6.890625 9.378906 6.921875 9.386719 L 6.957031 9.394531 L 6.882812 9.386719 C 6.835938 9.382812 6.792969 9.375 6.746094 9.367188 L 6.683594 9.351562 L 6.554688 9.316406 L 6.496094 9.296875 C 6.339844 9.234375 6.183594 9.164062 6.023438 9.105469 L 6.035156 9.097656 L 6.070312 9.085938 L 6.089844 9.082031 C 6.117188 9.074219 6.144531 9.0625 6.171875 9.054688 C 6.117188 9.046875 6.0625 9.035156 6.007812 9.023438 C 5.980469 9.015625 5.953125 9.007812 5.925781 9 L 5.90625 8.992188 L 5.882812 8.976562 L 5.875 8.96875 L 5.878906 8.964844 L 5.886719 8.964844 L 5.890625 8.957031 L 5.910156 8.953125 L 5.988281 8.929688 L 6.035156 8.914062 C 5.96875 8.898438 5.902344 8.890625 5.835938 8.878906 L 5.804688 8.871094 L 5.777344 8.863281 L 5.769531 8.855469 L 5.753906 8.847656 L 5.75 8.839844 L 5.757812 8.832031 L 5.777344 8.828125 C 5.796875 8.824219 5.820312 8.820312 5.839844 8.816406 L 5.878906 8.8125 C 5.898438 8.808594 5.917969 8.800781 5.9375 8.792969 L 5.949219 8.789062 L 5.957031 8.78125 L 5.921875 8.765625 L 5.875 8.757812 L 5.769531 8.742188 L 5.742188 8.738281 L 5.71875 8.730469 L 5.667969 8.714844 L 5.644531 8.703125 L 5.605469 8.671875 L 5.59375 8.652344 L 5.597656 8.648438 L 5.636719 8.648438 L 5.722656 8.65625 L 5.773438 8.660156 L 5.839844 8.660156 L 5.871094 8.652344 L 5.878906 8.648438 C 5.835938 8.628906 5.792969 8.613281 5.75 8.59375 C 5.722656 8.578125 5.695312 8.566406 5.667969 8.550781 L 5.578125 8.503906 L 5.539062 8.480469 C 5.511719 8.460938 5.488281 8.445312 5.464844 8.425781 L 5.429688 8.398438 L 5.417969 8.382812 L 5.402344 8.367188 L 5.394531 8.355469 L 5.382812 8.339844 L 5.375 8.324219 L 5.371094 8.308594 L 5.367188 8.28125 L 5.398438 8.28125 L 5.4375 8.296875 L 5.472656 8.320312 L 5.515625 8.339844 L 5.53125 8.351562 L 5.554688 8.363281 L 5.574219 8.375 L 5.589844 8.378906 L 5.613281 8.386719 L 5.652344 8.386719 L 5.667969 8.378906 L 5.613281 8.339844 C 5.570312 8.300781 5.527344 8.261719 5.480469 8.226562 C 5.410156 8.15625 5.339844 8.085938 5.273438 8.007812 L 5.246094 7.96875 L 5.214844 7.933594 C 5.199219 7.910156 5.183594 7.886719 5.164062 7.863281 L 5.160156 7.851562 L 5.160156 7.835938 L 5.164062 7.832031 L 5.164062 7.824219 L 5.171875 7.820312 L 5.179688 7.8125 L 5.195312 7.804688 L 5.234375 7.804688 L 5.246094 7.808594 L 5.253906 7.8125 C 5.304688 7.863281 5.351562 7.914062 5.398438 7.964844 C 5.453125 8.015625 5.507812 8.0625 5.566406 8.109375 L 5.617188 8.144531 L 5.644531 8.15625 L 5.667969 8.167969 L 5.652344 8.15625 L 5.605469 8.109375 C 5.546875 8.039062 5.488281 7.96875 5.433594 7.898438 C 5.410156 7.867188 5.386719 7.832031 5.363281 7.796875 C 5.34375 7.765625 5.320312 7.734375 5.296875 7.699219 C 5.28125 7.671875 5.265625 7.640625 5.25 7.613281 C 5.238281 7.589844 5.230469 7.566406 5.21875 7.542969 L 5.214844 7.53125 L 5.214844 7.511719 L 5.21875 7.503906 L 5.226562 7.492188 L 5.234375 7.488281 L 5.238281 7.484375 L 5.269531 7.472656 L 5.300781 7.472656 L 5.3125 7.476562 L 5.316406 7.476562 L 5.328125 7.484375 L 5.351562 7.503906 L 5.410156 7.582031 C 5.457031 7.652344 5.507812 7.722656 5.558594 7.792969 L 5.613281 7.859375 L 5.640625 7.890625 L 5.675781 7.917969 C 5.636719 7.847656 5.601562 7.777344 5.570312 7.707031 C 5.554688 7.675781 5.542969 7.640625 5.527344 7.609375 L 5.511719 7.558594 C 5.5 7.523438 5.488281 7.488281 5.476562 7.457031 L 5.464844 7.40625 L 5.457031 7.355469 L 5.453125 7.304688 L 5.453125 7.238281 L 5.457031 7.214844 L 5.457031 7.195312 L 5.464844 7.175781 L 5.46875 7.167969 L 5.46875 7.160156 L 5.480469 7.148438 L 5.496094 7.140625 L 5.511719 7.136719 L 5.527344 7.136719 L 5.542969 7.140625 L 5.550781 7.140625 L 5.558594 7.148438 L 5.558594 7.15625 C 5.597656 7.285156 5.628906 7.414062 5.664062 7.542969 C 5.679688 7.582031 5.691406 7.617188 5.707031 7.652344 L 5.722656 7.6875 L 5.761719 7.75 L 5.746094 7.683594 C 5.742188 7.644531 5.734375 7.605469 5.730469 7.570312 C 5.722656 7.527344 5.722656 7.480469 5.71875 7.4375 L 5.722656 7.378906 L 5.726562 7.355469 L 5.734375 7.335938 L 5.742188 7.320312 L 5.746094 7.316406 L 5.761719 7.308594 L 5.78125 7.308594 L 5.800781 7.316406 L 5.820312 7.328125 L 5.851562 7.46875 C 5.863281 7.515625 5.875 7.558594 5.890625 7.601562 C 5.914062 7.667969 5.9375 7.730469 5.964844 7.796875 L 5.996094 7.863281 L 6.042969 7.949219 L 6.09375 8.035156 L 6.148438 8.117188 L 6.207031 8.199219 L 6.261719 8.269531 C 6.300781 8.3125 6.339844 8.355469 6.378906 8.398438 C 6.421875 8.4375 6.464844 8.476562 6.507812 8.515625 L 6.574219 8.570312 C 6.632812 8.621094 6.695312 8.664062 6.761719 8.707031 C 6.8125 8.738281 6.863281 8.765625 6.914062 8.792969 L 7.070312 8.871094 C 7.152344 8.902344 7.230469 8.929688 7.3125 8.957031 C 7.394531 8.976562 7.476562 8.996094 7.558594 9.011719 C 7.667969 9.027344 7.777344 9.039062 7.890625 9.042969 "/>
<path style=" stroke:none;fill-rule:nonzero;fill:rgb(100%,80%,30.196078%);fill-opacity:1;" d="M 1.441406 11.882812 C 1.441406 11.882812 1.339844 11.964844 1.308594 11.925781 C 1.253906 11.859375 1.472656 11.527344 1.472656 11.40625 C 1.472656 11.214844 1.34375 11.164062 1.1875 11.136719 C 1.078125 11.117188 0.90625 11.144531 0.90625 11.144531 C 0.941406 11.1875 0.960938 11.199219 1.015625 11.203125 C 0.953125 11.234375 0.890625 11.304688 0.890625 11.410156 C 0.890625 11.578125 0.960938 11.644531 0.960938 11.832031 C 0.960938 11.9375 0.875 12.066406 0.875 12.066406 C 1.027344 12.054688 1.101562 11.914062 1.058594 11.800781 C 1.082031 11.800781 1.105469 11.804688 1.121094 11.820312 C 1.132812 11.792969 1.117188 11.753906 1.09375 11.726562 C 1.113281 11.714844 1.125 11.722656 1.15625 11.726562 C 1.152344 11.695312 1.132812 11.660156 1.085938 11.628906 C 1.222656 11.664062 1.304688 11.570312 1.304688 11.472656 C 1.304688 11.398438 1.253906 11.34375 1.203125 11.34375 C 1.183594 11.34375 1.160156 11.351562 1.148438 11.363281 C 1.136719 11.339844 1.140625 11.3125 1.152344 11.292969 C 1.113281 11.304688 1.089844 11.324219 1.109375 11.371094 C 1.078125 11.375 1.054688 11.382812 1.039062 11.402344 C 1.058594 11.421875 1.082031 11.433594 1.109375 11.433594 C 1.085938 11.476562 1.109375 11.5 1.144531 11.519531 C 1.144531 11.519531 1.121094 11.433594 1.179688 11.433594 C 1.203125 11.433594 1.226562 11.441406 1.226562 11.476562 C 1.226562 11.507812 1.199219 11.554688 1.132812 11.550781 C 1.070312 11.546875 1.015625 11.507812 1.015625 11.402344 C 1.015625 11.308594 1.09375 11.261719 1.191406 11.257812 C 1.285156 11.253906 1.351562 11.304688 1.351562 11.398438 C 1.351562 11.523438 1.171875 11.808594 1.171875 11.917969 C 1.171875 12 1.246094 12.046875 1.320312 12.046875 C 1.414062 12.046875 1.496094 11.953125 1.496094 11.953125 Z M 1.417969 9.632812 C 1.417969 9.425781 1.605469 9.320312 1.753906 9.320312 C 1.949219 9.320312 2.054688 9.4375 2.054688 9.589844 C 2.054688 9.679688 2.039062 9.734375 2 9.816406 L 1.546875 10.757812 C 1.53125 10.792969 1.523438 10.828125 1.523438 10.882812 C 1.523438 10.96875 1.605469 11.035156 1.691406 11.039062 C 1.769531 11.042969 1.855469 10.964844 1.855469 10.878906 C 1.855469 10.777344 1.804688 10.730469 1.746094 10.730469 C 1.679688 10.730469 1.652344 10.757812 1.652344 10.808594 C 1.652344 10.839844 1.667969 10.855469 1.691406 10.855469 C 1.75 10.855469 1.734375 10.777344 1.734375 10.777344 C 1.761719 10.78125 1.785156 10.8125 1.773438 10.847656 C 1.792969 10.855469 1.8125 10.863281 1.828125 10.882812 C 1.8125 10.898438 1.796875 10.910156 1.773438 10.914062 C 1.785156 10.957031 1.769531 10.980469 1.730469 10.988281 C 1.738281 10.972656 1.738281 10.957031 1.734375 10.941406 C 1.671875 10.960938 1.578125 10.933594 1.578125 10.824219 C 1.578125 10.71875 1.652344 10.628906 1.789062 10.648438 C 1.757812 10.636719 1.742188 10.601562 1.738281 10.566406 C 1.761719 10.578125 1.789062 10.578125 1.789062 10.578125 C 1.773438 10.550781 1.75 10.523438 1.753906 10.46875 C 1.777344 10.480469 1.800781 10.5 1.835938 10.488281 C 1.78125 10.386719 1.847656 10.246094 2.007812 10.214844 C 1.949219 10.28125 1.921875 10.359375 1.921875 10.433594 C 1.921875 10.671875 1.988281 10.714844 1.988281 10.882812 C 1.988281 10.953125 1.953125 11.027344 1.878906 11.078125 L 1.878906 11.074219 C 1.925781 11.089844 1.957031 11.113281 1.972656 11.144531 C 1.867188 11.171875 1.710938 11.171875 1.625 11.140625 C 1.527344 11.128906 1.460938 11.054688 1.441406 11.015625 C 1.421875 10.980469 1.382812 10.84375 1.441406 10.71875 C 1.503906 10.585938 1.808594 9.945312 1.902344 9.742188 C 1.921875 9.699219 1.933594 9.65625 1.933594 9.605469 C 1.933594 9.484375 1.820312 9.4375 1.757812 9.4375 C 1.679688 9.4375 1.601562 9.5 1.601562 9.570312 C 1.601562 9.617188 1.628906 9.644531 1.664062 9.644531 C 1.75 9.644531 1.746094 9.570312 1.726562 9.523438 C 1.78125 9.550781 1.8125 9.59375 1.804688 9.636719 C 1.835938 9.640625 1.863281 9.65625 1.890625 9.6875 C 1.871094 9.714844 1.84375 9.734375 1.804688 9.734375 C 1.820312 9.804688 1.773438 9.835938 1.726562 9.851562 C 1.742188 9.800781 1.75 9.738281 1.664062 9.738281 C 1.597656 9.738281 1.546875 9.726562 1.519531 9.6875 C 1.515625 9.742188 1.511719 9.964844 1.511719 9.964844 C 1.507812 10.046875 1.621094 10.042969 1.695312 10.019531 C 1.667969 10.117188 1.609375 10.167969 1.480469 10.152344 C 1.511719 10.167969 1.546875 10.199219 1.546875 10.253906 C 1.546875 10.332031 1.480469 10.417969 1.441406 10.445312 Z M 1.417969 9.632812 "/>
<path style=" stroke:none;fill-rule:nonzero;fill:rgb(100%,80%,30.196078%);fill-opacity:1;" d="M 1.460938 9.632812 C 1.460938 9.425781 1.273438 9.320312 1.128906 9.320312 C 0.929688 9.320312 0.824219 9.4375 0.824219 9.589844 C 0.824219 9.679688 0.839844 9.734375 0.882812 9.816406 L 1.335938 10.757812 C 1.351562 10.792969 1.355469 10.828125 1.355469 10.882812 C 1.355469 10.96875 1.273438 11.035156 1.1875 11.039062 C 1.109375 11.042969 1.023438 10.964844 1.023438 10.878906 C 1.023438 10.777344 1.078125 10.730469 1.132812 10.730469 C 1.199219 10.730469 1.226562 10.757812 1.226562 10.808594 C 1.226562 10.839844 1.210938 10.855469 1.1875 10.855469 C 1.128906 10.855469 1.148438 10.777344 1.148438 10.777344 C 1.117188 10.78125 1.09375 10.8125 1.109375 10.847656 C 1.085938 10.855469 1.066406 10.863281 1.050781 10.882812 C 1.066406 10.898438 1.085938 10.910156 1.109375 10.914062 C 1.09375 10.957031 1.113281 10.980469 1.152344 10.988281 C 1.144531 10.972656 1.144531 10.957031 1.144531 10.941406 C 1.207031 10.957031 1.304688 10.929688 1.304688 10.824219 C 1.304688 10.71875 1.230469 10.628906 1.089844 10.648438 C 1.125 10.632812 1.140625 10.601562 1.144531 10.566406 C 1.117188 10.578125 1.089844 10.578125 1.089844 10.578125 C 1.105469 10.550781 1.128906 10.523438 1.128906 10.46875 C 1.101562 10.480469 1.078125 10.5 1.046875 10.488281 C 1.097656 10.386719 1.035156 10.246094 0.871094 10.214844 C 0.933594 10.28125 0.960938 10.355469 0.960938 10.433594 C 0.960938 10.671875 0.894531 10.714844 0.894531 10.878906 C 0.894531 10.949219 0.929688 11.027344 1 11.078125 L 1 11.074219 C 0.953125 11.089844 0.921875 11.113281 0.90625 11.144531 C 1.015625 11.171875 1.171875 11.171875 1.253906 11.140625 C 1.351562 11.128906 1.421875 11.054688 1.441406 11.015625 C 1.460938 10.980469 1.5 10.84375 1.441406 10.71875 C 1.375 10.585938 1.074219 9.945312 0.980469 9.742188 C 0.960938 9.699219 0.945312 9.652344 0.945312 9.605469 C 0.945312 9.480469 1.058594 9.4375 1.125 9.4375 C 1.203125 9.4375 1.28125 9.496094 1.28125 9.570312 C 1.28125 9.617188 1.253906 9.644531 1.21875 9.644531 C 1.132812 9.644531 1.136719 9.570312 1.152344 9.523438 C 1.101562 9.550781 1.066406 9.589844 1.078125 9.636719 C 1.046875 9.640625 1.015625 9.65625 0.992188 9.6875 C 1.011719 9.714844 1.039062 9.734375 1.078125 9.734375 C 1.058594 9.804688 1.105469 9.835938 1.152344 9.851562 C 1.140625 9.800781 1.128906 9.738281 1.21875 9.738281 C 1.28125 9.738281 1.332031 9.726562 1.363281 9.6875 L 1.371094 9.964844 C 1.375 10.046875 1.257812 10.042969 1.1875 10.019531 C 1.214844 10.113281 1.269531 10.167969 1.402344 10.152344 C 1.371094 10.167969 1.335938 10.195312 1.335938 10.253906 C 1.335938 10.332031 1.398438 10.417969 1.441406 10.445312 Z M 1.441406 11.882812 C 1.441406 11.882812 1.539062 11.964844 1.574219 11.925781 C 1.625 11.859375 1.40625 11.527344 1.40625 11.40625 C 1.40625 11.214844 1.535156 11.164062 1.695312 11.136719 C 1.800781 11.117188 1.972656 11.144531 1.972656 11.144531 C 1.941406 11.1875 1.921875 11.199219 1.867188 11.203125 C 1.925781 11.234375 1.988281 11.304688 1.988281 11.410156 C 1.988281 11.578125 1.921875 11.644531 1.921875 11.832031 C 1.921875 11.9375 2.003906 12.066406 2.003906 12.066406 C 1.855469 12.054688 1.78125 11.914062 1.824219 11.800781 C 1.800781 11.800781 1.777344 11.804688 1.757812 11.820312 C 1.746094 11.792969 1.765625 11.753906 1.789062 11.726562 C 1.769531 11.714844 1.753906 11.722656 1.726562 11.726562 C 1.730469 11.695312 1.746094 11.660156 1.792969 11.628906 C 1.660156 11.664062 1.578125 11.570312 1.578125 11.472656 C 1.578125 11.398438 1.628906 11.34375 1.679688 11.34375 C 1.695312 11.34375 1.722656 11.351562 1.734375 11.363281 C 1.746094 11.339844 1.738281 11.3125 1.730469 11.292969 C 1.765625 11.304688 1.789062 11.324219 1.773438 11.371094 C 1.800781 11.375 1.824219 11.382812 1.839844 11.402344 C 1.824219 11.421875 1.800781 11.433594 1.773438 11.433594 C 1.792969 11.476562 1.769531 11.5 1.738281 11.519531 C 1.738281 11.519531 1.757812 11.433594 1.703125 11.433594 C 1.679688 11.433594 1.65625 11.441406 1.65625 11.476562 C 1.65625 11.507812 1.683594 11.554688 1.746094 11.550781 C 1.8125 11.546875 1.863281 11.507812 1.863281 11.402344 C 1.863281 11.308594 1.789062 11.261719 1.6875 11.257812 C 1.597656 11.253906 1.527344 11.304688 1.527344 11.398438 C 1.527344 11.523438 1.707031 11.808594 1.707031 11.917969 C 1.707031 12 1.632812 12.046875 1.558594 12.046875 C 1.464844 12.046875 1.386719 11.953125 1.386719 11.953125 Z M 1.417969 5.992188 C 1.417969 5.78125 1.605469 5.675781 1.753906 5.675781 C 1.949219 5.675781 2.054688 5.792969 2.054688 5.949219 C 2.054688 6.035156 2.039062 6.089844 2 6.175781 L 1.546875 7.117188 C 1.53125 7.148438 1.523438 7.1875 1.523438 7.242188 C 1.523438 7.324219 1.605469 7.394531 1.691406 7.394531 C 1.769531 7.398438 1.855469 7.324219 1.855469 7.238281 C 1.855469 7.132812 1.804688 7.089844 1.746094 7.089844 C 1.679688 7.089844 1.652344 7.117188 1.652344 7.164062 C 1.652344 7.195312 1.667969 7.210938 1.691406 7.210938 C 1.75 7.210938 1.734375 7.132812 1.734375 7.132812 C 1.761719 7.140625 1.785156 7.167969 1.773438 7.207031 C 1.792969 7.210938 1.8125 7.222656 1.828125 7.238281 C 1.8125 7.253906 1.796875 7.265625 1.773438 7.269531 C 1.785156 7.316406 1.769531 7.335938 1.730469 7.347656 C 1.738281 7.328125 1.738281 7.3125 1.734375 7.296875 C 1.671875 7.316406 1.578125 7.289062 1.578125 7.179688 C 1.578125 7.074219 1.652344 6.984375 1.789062 7.007812 C 1.757812 6.992188 1.742188 6.960938 1.738281 6.921875 C 1.761719 6.933594 1.789062 6.933594 1.789062 6.933594 C 1.773438 6.90625 1.75 6.882812 1.753906 6.824219 C 1.777344 6.835938 1.800781 6.859375 1.835938 6.84375 C 1.78125 6.742188 1.847656 6.601562 2.007812 6.570312 C 1.949219 6.640625 1.921875 6.714844 1.921875 6.789062 C 1.921875 7.03125 1.988281 7.070312 1.988281 7.238281 C 1.988281 7.308594 1.953125 7.382812 1.878906 7.4375 L 1.878906 7.433594 C 1.925781 7.445312 1.957031 7.46875 1.972656 7.5 C 1.867188 7.53125 1.707031 7.53125 1.625 7.496094 C 1.527344 7.484375 1.460938 7.410156 1.441406 7.375 C 1.421875 7.335938 1.382812 7.199219 1.441406 7.078125 C 1.503906 6.941406 1.808594 6.300781 1.902344 6.101562 C 1.921875 6.058594 1.933594 6.011719 1.933594 5.960938 C 1.933594 5.839844 1.820312 5.796875 1.757812 5.796875 C 1.679688 5.796875 1.601562 5.855469 1.601562 5.925781 C 1.601562 5.972656 1.625 6 1.660156 6 C 1.75 6 1.742188 5.925781 1.726562 5.882812 C 1.78125 5.90625 1.8125 5.949219 1.804688 5.996094 C 1.832031 6 1.863281 6.011719 1.890625 6.042969 C 1.867188 6.070312 1.84375 6.089844 1.804688 6.089844 C 1.820312 6.164062 1.773438 6.191406 1.726562 6.207031 C 1.742188 6.15625 1.75 6.097656 1.660156 6.097656 C 1.597656 6.097656 1.546875 6.085938 1.515625 6.042969 C 1.515625 6.101562 1.507812 6.320312 1.507812 6.320312 C 1.507812 6.402344 1.621094 6.402344 1.695312 6.378906 C 1.667969 6.472656 1.609375 6.523438 1.480469 6.511719 C 1.511719 6.523438 1.546875 6.554688 1.546875 6.613281 C 1.546875 6.691406 1.480469 6.777344 1.441406 6.800781 Z M 1.417969 5.992188 "/>
<path style=" stroke:none;fill-rule:nonzero;fill:rgb(100%,80%,30.196078%);fill-opacity:1;" d="M 1.460938 5.992188 C 1.460938 5.78125 1.273438 5.675781 1.128906 5.675781 C 0.929688 5.675781 0.824219 5.792969 0.824219 5.949219 C 0.824219 6.035156 0.839844 6.089844 0.882812 6.175781 L 1.335938 7.117188 C 1.351562 7.148438 1.355469 7.1875 1.355469 7.242188 C 1.355469 7.324219 1.273438 7.394531 1.1875 7.394531 C 1.109375 7.398438 1.023438 7.324219 1.023438 7.238281 C 1.023438 7.132812 1.078125 7.089844 1.132812 7.089844 C 1.199219 7.089844 1.226562 7.117188 1.226562 7.164062 C 1.226562 7.195312 1.210938 7.210938 1.1875 7.210938 C 1.128906 7.210938 1.148438 7.132812 1.148438 7.132812 C 1.117188 7.140625 1.09375 7.167969 1.109375 7.207031 C 1.085938 7.210938 1.066406 7.222656 1.050781 7.238281 C 1.066406 7.253906 1.085938 7.265625 1.109375 7.269531 C 1.09375 7.316406 1.113281 7.335938 1.152344 7.347656 C 1.144531 7.328125 1.144531 7.3125 1.144531 7.296875 C 1.207031 7.316406 1.304688 7.289062 1.304688 7.179688 C 1.304688 7.074219 1.230469 6.984375 1.089844 7.007812 C 1.125 6.992188 1.140625 6.960938 1.144531 6.921875 C 1.117188 6.933594 1.089844 6.933594 1.089844 6.933594 C 1.105469 6.90625 1.128906 6.882812 1.128906 6.824219 C 1.101562 6.835938 1.078125 6.859375 1.046875 6.84375 C 1.097656 6.742188 1.035156 6.601562 0.871094 6.570312 C 0.933594 6.640625 0.960938 6.714844 0.960938 6.789062 C 0.960938 7.03125 0.894531 7.070312 0.894531 7.238281 C 0.894531 7.308594 0.929688 7.382812 1 7.4375 L 1 7.433594 C 0.953125 7.445312 0.925781 7.46875 0.90625 7.5 C 1.015625 7.53125 1.171875 7.53125 1.253906 7.496094 C 1.351562 7.484375 1.421875 7.410156 1.441406 7.375 C 1.460938 7.335938 1.5 7.199219 1.441406 7.078125 C 1.375 6.941406 1.074219 6.300781 0.980469 6.101562 C 0.960938 6.058594 0.949219 6.011719 0.949219 5.964844 C 0.949219 5.839844 1.058594 5.796875 1.125 5.796875 C 1.203125 5.796875 1.28125 5.855469 1.28125 5.925781 C 1.28125 5.972656 1.253906 6.003906 1.21875 6.003906 C 1.132812 6.003906 1.136719 5.929688 1.152344 5.882812 C 1.101562 5.90625 1.070312 5.949219 1.078125 5.996094 C 1.046875 6 1.019531 6.011719 0.992188 6.042969 C 1.011719 6.070312 1.039062 6.089844 1.078125 6.089844 C 1.058594 6.164062 1.109375 6.191406 1.152344 6.210938 C 1.140625 6.15625 1.128906 6.097656 1.21875 6.097656 C 1.285156 6.097656 1.335938 6.085938 1.363281 6.042969 L 1.371094 6.320312 C 1.375 6.402344 1.257812 6.402344 1.1875 6.375 C 1.214844 6.472656 1.269531 6.523438 1.402344 6.511719 C 1.371094 6.523438 1.335938 6.554688 1.335938 6.613281 C 1.335938 6.691406 1.398438 6.777344 1.441406 6.800781 Z M 1.460938 5.992188 "/>
<path style=" stroke:none;fill-rule:nonzero;fill:rgb(100%,80%,30.196078%);fill-opacity:1;" d="M 1.460938 5.367188 C 1.460938 5.574219 1.273438 5.679688 1.128906 5.679688 C 0.929688 5.679688 0.824219 5.5625 0.824219 5.40625 C 0.824219 5.320312 0.839844 5.265625 0.882812 5.179688 L 1.335938 4.242188 C 1.351562 4.207031 1.355469 4.171875 1.355469 4.117188 C 1.355469 4.03125 1.273438 3.960938 1.1875 3.960938 C 1.109375 3.957031 1.023438 4.035156 1.023438 4.117188 C 1.023438 4.222656 1.078125 4.269531 1.132812 4.269531 C 1.199219 4.269531 1.226562 4.242188 1.226562 4.191406 C 1.226562 4.160156 1.210938 4.144531 1.1875 4.144531 C 1.128906 4.144531 1.148438 4.222656 1.148438 4.222656 C 1.117188 4.21875 1.09375 4.1875 1.109375 4.152344 C 1.085938 4.148438 1.066406 4.136719 1.050781 4.117188 C 1.066406 4.101562 1.085938 4.089844 1.109375 4.085938 C 1.09375 4.042969 1.113281 4.019531 1.152344 4.011719 C 1.144531 4.027344 1.144531 4.042969 1.144531 4.058594 C 1.207031 4.042969 1.304688 4.070312 1.304688 4.175781 C 1.304688 4.28125 1.230469 4.371094 1.089844 4.351562 C 1.125 4.367188 1.140625 4.398438 1.144531 4.433594 C 1.117188 4.425781 1.089844 4.421875 1.089844 4.421875 C 1.105469 4.453125 1.128906 4.476562 1.128906 4.53125 C 1.101562 4.519531 1.078125 4.5 1.046875 4.511719 C 1.097656 4.613281 1.035156 4.753906 0.871094 4.785156 C 0.933594 4.71875 0.960938 4.644531 0.960938 4.566406 C 0.960938 4.328125 0.894531 4.285156 0.894531 4.121094 C 0.894531 4.050781 0.929688 3.972656 1 3.921875 L 1 3.925781 C 0.953125 3.910156 0.925781 3.886719 0.90625 3.855469 C 1.015625 3.828125 1.171875 3.828125 1.253906 3.859375 C 1.351562 3.871094 1.421875 3.945312 1.441406 3.984375 C 1.460938 4.019531 1.5 4.15625 1.441406 4.28125 C 1.375 4.414062 1.074219 5.054688 0.980469 5.257812 C 0.960938 5.300781 0.949219 5.34375 0.949219 5.394531 C 0.949219 5.519531 1.058594 5.5625 1.125 5.5625 C 1.203125 5.5625 1.28125 5.503906 1.28125 5.429688 C 1.28125 5.382812 1.253906 5.355469 1.21875 5.355469 C 1.132812 5.355469 1.136719 5.429688 1.152344 5.476562 C 1.101562 5.449219 1.070312 5.40625 1.078125 5.363281 C 1.046875 5.359375 1.019531 5.34375 0.992188 5.3125 C 1.011719 5.285156 1.039062 5.265625 1.078125 5.265625 C 1.058594 5.195312 1.109375 5.164062 1.152344 5.148438 C 1.140625 5.199219 1.128906 5.257812 1.21875 5.257812 C 1.285156 5.257812 1.335938 5.269531 1.363281 5.3125 L 1.371094 5.035156 C 1.375 4.953125 1.257812 4.953125 1.1875 4.980469 C 1.214844 4.882812 1.269531 4.832031 1.402344 4.84375 C 1.371094 4.832031 1.335938 4.800781 1.335938 4.742188 C 1.335938 4.664062 1.398438 4.578125 1.441406 4.554688 Z M 1.460938 9.007812 C 1.460938 9.21875 1.273438 9.324219 1.128906 9.324219 C 0.929688 9.324219 0.824219 9.207031 0.824219 9.050781 C 0.824219 8.964844 0.839844 8.910156 0.882812 8.824219 L 1.335938 7.882812 C 1.351562 7.851562 1.355469 7.8125 1.355469 7.757812 C 1.355469 7.675781 1.273438 7.605469 1.1875 7.605469 C 1.109375 7.601562 1.023438 7.675781 1.023438 7.761719 C 1.023438 7.867188 1.078125 7.910156 1.132812 7.910156 C 1.199219 7.910156 1.226562 7.882812 1.226562 7.835938 C 1.226562 7.804688 1.210938 7.789062 1.1875 7.789062 C 1.128906 7.789062 1.148438 7.867188 1.148438 7.867188 C 1.117188 7.859375 1.09375 7.832031 1.109375 7.792969 C 1.085938 7.789062 1.066406 7.777344 1.050781 7.761719 C 1.066406 7.746094 1.085938 7.734375 1.109375 7.730469 C 1.09375 7.683594 1.113281 7.664062 1.152344 7.652344 C 1.144531 7.671875 1.144531 7.6875 1.144531 7.703125 C 1.207031 7.683594 1.304688 7.710938 1.304688 7.820312 C 1.304688 7.925781 1.230469 8.015625 1.089844 7.992188 C 1.125 8.007812 1.140625 8.039062 1.144531 8.078125 C 1.117188 8.066406 1.089844 8.066406 1.089844 8.066406 C 1.105469 8.09375 1.128906 8.121094 1.128906 8.175781 C 1.101562 8.164062 1.078125 8.140625 1.046875 8.15625 C 1.097656 8.257812 1.035156 8.398438 0.871094 8.429688 C 0.933594 8.359375 0.960938 8.285156 0.960938 8.210938 C 0.960938 7.972656 0.894531 7.929688 0.894531 7.761719 C 0.894531 7.691406 0.929688 7.617188 1 7.566406 C 0.953125 7.554688 0.925781 7.53125 0.90625 7.5 C 1.015625 7.46875 1.171875 7.46875 1.253906 7.503906 C 1.351562 7.515625 1.421875 7.589844 1.441406 7.625 C 1.460938 7.664062 1.5 7.800781 1.441406 7.921875 C 1.375 8.058594 1.074219 8.699219 0.980469 8.902344 C 0.960938 8.941406 0.949219 8.988281 0.949219 9.039062 C 0.949219 9.160156 1.058594 9.203125 1.125 9.203125 C 1.203125 9.203125 1.28125 9.144531 1.28125 9.070312 C 1.28125 9.027344 1.253906 9 1.21875 9 C 1.132812 9 1.136719 9.070312 1.152344 9.117188 C 1.101562 9.09375 1.070312 9.050781 1.078125 9.003906 C 1.046875 9 1.019531 8.988281 0.992188 8.957031 C 1.011719 8.929688 1.039062 8.910156 1.078125 8.910156 C 1.058594 8.835938 1.109375 8.808594 1.152344 8.792969 C 1.140625 8.84375 1.128906 8.902344 1.21875 8.902344 C 1.285156 8.902344 1.335938 8.914062 1.363281 8.957031 L 1.371094 8.679688 C 1.375 8.597656 1.257812 8.597656 1.1875 8.625 C 1.214844 8.527344 1.269531 8.476562 1.402344 8.488281 C 1.371094 8.476562 1.335938 8.445312 1.335938 8.386719 C 1.335938 8.308594 1.398438 8.222656 1.441406 8.199219 Z M 1.460938 9.007812 "/>
<path style=" stroke:none;fill-rule:nonzero;fill:rgb(100%,80%,30.196078%);fill-opacity:1;" d="M 1.417969 9.007812 C 1.417969 9.21875 1.605469 9.324219 1.753906 9.324219 C 1.949219 9.324219 2.054688 9.207031 2.054688 9.050781 C 2.054688 8.964844 2.039062 8.910156 2 8.824219 L 1.546875 7.882812 C 1.53125 7.851562 1.523438 7.8125 1.523438 7.757812 C 1.523438 7.675781 1.605469 7.605469 1.691406 7.605469 C 1.769531 7.601562 1.855469 7.675781 1.855469 7.761719 C 1.855469 7.867188 1.804688 7.910156 1.746094 7.910156 C 1.679688 7.910156 1.652344 7.882812 1.652344 7.835938 C 1.652344 7.804688 1.667969 7.789062 1.691406 7.789062 C 1.75 7.789062 1.734375 7.867188 1.734375 7.867188 C 1.761719 7.859375 1.785156 7.832031 1.773438 7.792969 C 1.792969 7.789062 1.8125 7.777344 1.828125 7.761719 C 1.8125 7.746094 1.796875 7.734375 1.773438 7.730469 C 1.785156 7.683594 1.769531 7.664062 1.730469 7.652344 C 1.738281 7.671875 1.738281 7.6875 1.734375 7.703125 C 1.671875 7.683594 1.578125 7.710938 1.578125 7.820312 C 1.578125 7.925781 1.652344 8.015625 1.789062 7.992188 C 1.757812 8.007812 1.742188 8.039062 1.738281 8.078125 C 1.761719 8.066406 1.789062 8.066406 1.789062 8.066406 C 1.773438 8.09375 1.75 8.121094 1.753906 8.175781 C 1.777344 8.164062 1.800781 8.140625 1.835938 8.15625 C 1.78125 8.257812 1.847656 8.398438 2.007812 8.429688 C 1.949219 8.359375 1.921875 8.285156 1.921875 8.210938 C 1.921875 7.972656 1.988281 7.929688 1.988281 7.761719 C 1.988281 7.691406 1.953125 7.617188 1.878906 7.566406 C 1.925781 7.554688 1.957031 7.53125 1.972656 7.5 C 1.867188 7.46875 1.710938 7.46875 1.625 7.503906 C 1.527344 7.515625 1.460938 7.589844 1.441406 7.625 C 1.421875 7.664062 1.382812 7.800781 1.441406 7.921875 C 1.503906 8.058594 1.808594 8.699219 1.902344 8.898438 C 1.921875 8.941406 1.933594 8.988281 1.933594 9.035156 C 1.933594 9.160156 1.820312 9.203125 1.757812 9.203125 C 1.679688 9.203125 1.601562 9.144531 1.601562 9.070312 C 1.601562 9.027344 1.628906 8.996094 1.664062 8.996094 C 1.75 8.996094 1.746094 9.070312 1.726562 9.117188 C 1.78125 9.09375 1.8125 9.050781 1.804688 9.003906 C 1.835938 9 1.863281 8.988281 1.890625 8.957031 C 1.871094 8.929688 1.84375 8.910156 1.804688 8.90625 C 1.820312 8.835938 1.773438 8.808594 1.726562 8.789062 C 1.742188 8.84375 1.75 8.902344 1.664062 8.902344 C 1.597656 8.902344 1.546875 8.914062 1.519531 8.957031 C 1.515625 8.902344 1.511719 8.679688 1.511719 8.679688 C 1.507812 8.597656 1.621094 8.597656 1.695312 8.621094 C 1.667969 8.527344 1.609375 8.476562 1.480469 8.488281 C 1.511719 8.476562 1.546875 8.445312 1.546875 8.386719 C 1.546875 8.308594 1.480469 8.222656 1.441406 8.199219 Z M 1.441406 3.117188 C 1.441406 3.117188 1.539062 3.035156 1.574219 3.074219 C 1.625 3.140625 1.40625 3.472656 1.40625 3.59375 C 1.40625 3.785156 1.535156 3.835938 1.695312 3.863281 C 1.800781 3.882812 1.972656 3.855469 1.972656 3.855469 C 1.941406 3.8125 1.921875 3.800781 1.863281 3.796875 C 1.925781 3.765625 1.988281 3.695312 1.988281 3.589844 C 1.988281 3.421875 1.921875 3.355469 1.921875 3.167969 C 1.921875 3.0625 2.003906 2.933594 2.003906 2.933594 C 1.855469 2.949219 1.78125 3.085938 1.824219 3.199219 C 1.796875 3.203125 1.777344 3.195312 1.757812 3.179688 C 1.746094 3.207031 1.765625 3.246094 1.789062 3.277344 C 1.769531 3.285156 1.753906 3.277344 1.726562 3.273438 C 1.730469 3.304688 1.746094 3.339844 1.792969 3.371094 C 1.660156 3.335938 1.578125 3.429688 1.578125 3.527344 C 1.578125 3.601562 1.628906 3.65625 1.679688 3.65625 C 1.695312 3.65625 1.71875 3.648438 1.734375 3.636719 C 1.742188 3.660156 1.738281 3.6875 1.730469 3.707031 C 1.765625 3.695312 1.789062 3.675781 1.773438 3.628906 C 1.800781 3.625 1.824219 3.617188 1.839844 3.597656 C 1.824219 3.578125 1.800781 3.566406 1.773438 3.566406 C 1.792969 3.523438 1.769531 3.5 1.734375 3.480469 C 1.734375 3.480469 1.757812 3.566406 1.703125 3.566406 C 1.675781 3.566406 1.65625 3.558594 1.65625 3.523438 C 1.65625 3.492188 1.683594 3.445312 1.746094 3.449219 C 1.8125 3.453125 1.863281 3.492188 1.863281 3.597656 C 1.863281 3.691406 1.785156 3.738281 1.6875 3.742188 C 1.597656 3.742188 1.527344 3.695312 1.527344 3.601562 C 1.527344 3.476562 1.707031 3.191406 1.707031 3.082031 C 1.707031 3 1.632812 2.953125 1.558594 2.953125 C 1.464844 2.953125 1.386719 3.046875 1.386719 3.046875 Z M 1.441406 3.117188 "/>
<path style=" stroke:none;fill-rule:nonzero;fill:rgb(100%,80%,30.196078%);fill-opacity:1;" d="M 1.441406 3.117188 C 1.441406 3.117188 1.339844 3.035156 1.308594 3.074219 C 1.253906 3.140625 1.472656 3.476562 1.472656 3.59375 C 1.472656 3.785156 1.34375 3.835938 1.1875 3.863281 C 1.078125 3.882812 0.90625 3.855469 0.90625 3.855469 C 0.941406 3.8125 0.960938 3.800781 1.015625 3.796875 C 0.953125 3.765625 0.890625 3.695312 0.890625 3.589844 C 0.890625 3.421875 0.960938 3.355469 0.960938 3.167969 C 0.960938 3.0625 0.875 2.933594 0.875 2.933594 C 1.027344 2.949219 1.101562 3.085938 1.058594 3.199219 C 1.082031 3.199219 1.101562 3.195312 1.121094 3.179688 C 1.132812 3.207031 1.117188 3.246094 1.09375 3.277344 C 1.109375 3.285156 1.125 3.277344 1.15625 3.273438 C 1.152344 3.304688 1.132812 3.339844 1.085938 3.371094 C 1.222656 3.335938 1.304688 3.429688 1.304688 3.527344 C 1.304688 3.601562 1.253906 3.65625 1.199219 3.65625 C 1.183594 3.65625 1.160156 3.648438 1.144531 3.636719 C 1.136719 3.660156 1.140625 3.6875 1.152344 3.707031 C 1.113281 3.695312 1.089844 3.675781 1.109375 3.628906 C 1.078125 3.625 1.054688 3.617188 1.039062 3.597656 C 1.058594 3.578125 1.082031 3.566406 1.109375 3.566406 C 1.085938 3.523438 1.109375 3.5 1.144531 3.480469 C 1.144531 3.480469 1.121094 3.566406 1.179688 3.566406 C 1.203125 3.566406 1.226562 3.558594 1.226562 3.523438 C 1.226562 3.492188 1.199219 3.445312 1.132812 3.449219 C 1.070312 3.453125 1.015625 3.492188 1.015625 3.597656 C 1.015625 3.691406 1.09375 3.738281 1.191406 3.742188 C 1.285156 3.742188 1.351562 3.695312 1.351562 3.601562 C 1.351562 3.476562 1.171875 3.191406 1.171875 3.082031 C 1.171875 3 1.246094 2.953125 1.320312 2.953125 C 1.414062 2.953125 1.496094 3.046875 1.496094 3.046875 Z M 1.417969 5.367188 C 1.417969 5.574219 1.605469 5.679688 1.753906 5.679688 C 1.949219 5.679688 2.054688 5.5625 2.054688 5.40625 C 2.054688 5.320312 2.039062 5.265625 2 5.179688 L 1.546875 4.242188 C 1.53125 4.207031 1.527344 4.171875 1.527344 4.117188 C 1.527344 4.03125 1.609375 3.964844 1.691406 3.960938 C 1.769531 3.960938 1.855469 4.035156 1.855469 4.121094 C 1.855469 4.222656 1.804688 4.269531 1.746094 4.269531 C 1.679688 4.269531 1.652344 4.242188 1.652344 4.191406 C 1.652344 4.160156 1.667969 4.144531 1.691406 4.144531 C 1.75 4.144531 1.734375 4.222656 1.734375 4.222656 C 1.761719 4.21875 1.785156 4.1875 1.773438 4.152344 C 1.792969 4.148438 1.8125 4.136719 1.828125 4.117188 C 1.8125 4.101562 1.796875 4.089844 1.773438 4.085938 C 1.785156 4.042969 1.769531 4.019531 1.730469 4.011719 C 1.738281 4.027344 1.738281 4.042969 1.734375 4.058594 C 1.671875 4.042969 1.578125 4.070312 1.578125 4.175781 C 1.578125 4.28125 1.652344 4.371094 1.789062 4.351562 C 1.757812 4.367188 1.738281 4.398438 1.738281 4.433594 C 1.761719 4.425781 1.789062 4.421875 1.789062 4.421875 C 1.773438 4.453125 1.75 4.476562 1.75 4.53125 C 1.777344 4.519531 1.800781 4.5 1.835938 4.511719 C 1.78125 4.613281 1.847656 4.753906 2.007812 4.785156 C 1.949219 4.71875 1.917969 4.644531 1.917969 4.566406 C 1.917969 4.328125 1.988281 4.285156 1.988281 4.121094 C 1.988281 4.050781 1.949219 3.972656 1.878906 3.921875 L 1.878906 3.925781 C 1.925781 3.910156 1.957031 3.886719 1.972656 3.855469 C 1.867188 3.828125 1.707031 3.828125 1.625 3.859375 C 1.527344 3.871094 1.460938 3.945312 1.441406 3.984375 C 1.421875 4.019531 1.382812 4.15625 1.441406 4.28125 C 1.503906 4.414062 1.808594 5.054688 1.902344 5.257812 C 1.921875 5.300781 1.933594 5.34375 1.933594 5.394531 C 1.933594 5.519531 1.820312 5.5625 1.757812 5.5625 C 1.679688 5.5625 1.601562 5.503906 1.601562 5.429688 C 1.601562 5.382812 1.625 5.355469 1.660156 5.355469 C 1.75 5.355469 1.742188 5.429688 1.726562 5.476562 C 1.78125 5.449219 1.8125 5.40625 1.804688 5.363281 C 1.832031 5.359375 1.863281 5.34375 1.890625 5.3125 C 1.867188 5.285156 1.84375 5.265625 1.804688 5.265625 C 1.820312 5.195312 1.773438 5.164062 1.726562 5.148438 C 1.742188 5.199219 1.75 5.257812 1.660156 5.257812 C 1.597656 5.257812 1.546875 5.269531 1.515625 5.3125 C 1.515625 5.257812 1.507812 5.035156 1.507812 5.035156 C 1.507812 4.953125 1.621094 4.953125 1.695312 4.980469 C 1.667969 4.882812 1.609375 4.832031 1.480469 4.84375 C 1.511719 4.832031 1.546875 4.800781 1.546875 4.746094 C 1.546875 4.667969 1.480469 4.578125 1.441406 4.554688 Z M 1.417969 5.367188 "/>
</g>
</svg>
