<?xml version="1.0" encoding="UTF-8"?>
<svg xmlns="http://www.w3.org/2000/svg" xmlns:xlink="http://www.w3.org/1999/xlink" width="15pt" height="15pt" viewBox="0 0 15 15" version="1.1">
<g id="surface1">
<path style=" stroke:none;fill-rule:nonzero;fill:rgb(23.137255%,53.333333%,76.470588%);fill-opacity:1;" d="M 15 13.332031 C 15 14.253906 14.253906 15 13.332031 15 L 1.667969 15 C 0.746094 15 0 14.253906 0 13.332031 L 0 1.667969 C 0 0.746094 0.746094 0 1.667969 0 L 13.332031 0 C 14.253906 0 15 0.746094 15 1.667969 Z M 15 13.332031 "/>
<path style=" stroke:none;fill-rule:nonzero;fill:rgb(100%,100%,100%);fill-opacity:1;" d="M 9.773438 11.671875 C 9.140625 12.03125 8.378906 12.238281 7.5 12.238281 C 4.878906 12.238281 3.058594 10.160156 3.058594 7.484375 C 3.058594 4.796875 4.867188 2.730469 7.5 2.730469 C 10.097656 2.730469 11.945312 4.863281 11.945312 7.484375 C 11.945312 8.621094 11.648438 9.65625 11.078125 10.46875 L 11.816406 11.101562 C 12.0625 11.320312 12.269531 11.527344 12.269531 11.890625 C 12.269531 12.34375 11.816406 12.703125 11.378906 12.703125 C 11.09375 12.703125 10.859375 12.585938 10.511719 12.289062 Z M 9.621094 9.136719 C 9.839844 8.648438 9.929688 8.078125 9.929688 7.484375 C 9.929688 5.945312 9.117188 4.511719 7.5 4.511719 C 5.886719 4.511719 5.070312 5.921875 5.070312 7.484375 C 5.070312 9.058594 5.859375 10.457031 7.5 10.457031 C 7.796875 10.457031 8.070312 10.417969 8.328125 10.363281 L 7.863281 9.914062 C 7.71875 9.785156 7.617188 9.578125 7.617188 9.394531 C 7.617188 8.890625 7.964844 8.464844 8.496094 8.464844 C 8.675781 8.464844 8.832031 8.53125 8.988281 8.632812 Z M 9.621094 9.136719 "/>
</g>
</svg>
