<?xml version="1.0" encoding="UTF-8"?>
<svg xmlns="http://www.w3.org/2000/svg" xmlns:xlink="http://www.w3.org/1999/xlink" width="15pt" height="15pt" viewBox="0 0 15 15" version="1.1">
<g id="surface1">
<path style=" stroke:none;fill-rule:nonzero;fill:rgb(21.568627%,49.411765%,24.705882%);fill-opacity:1;" d="M 0 11.25 C 0 12.171875 0.746094 12.917969 1.667969 12.917969 L 13.332031 12.917969 C 14.253906 12.917969 15 12.171875 15 11.25 L 15 10.832031 L 0 10.832031 Z M 0 11.25 "/>
<path style=" stroke:none;fill-rule:nonzero;fill:rgb(93.333333%,93.333333%,93.333333%);fill-opacity:1;" d="M 0 9.582031 L 15 9.582031 L 15 10.832031 L 0 10.832031 Z M 0 9.582031 "/>
<path style=" stroke:none;fill-rule:nonzero;fill:rgb(21.568627%,49.411765%,24.705882%);fill-opacity:1;" d="M 13.332031 2.082031 L 1.667969 2.082031 C 0.746094 2.082031 0 2.828125 0 3.75 L 0 4.167969 L 15 4.167969 L 15 3.75 C 15 2.828125 14.253906 2.082031 13.332031 2.082031 Z M 13.332031 2.082031 "/>
<path style=" stroke:none;fill-rule:nonzero;fill:rgb(93.333333%,93.333333%,93.333333%);fill-opacity:1;" d="M 0 4.167969 L 15 4.167969 L 15 5.417969 L 0 5.417969 Z M 0 4.167969 "/>
<path style=" stroke:none;fill-rule:nonzero;fill:rgb(70.588235%,3.921569%,17.647059%);fill-opacity:1;" d="M 0 9.582031 L 15 9.582031 L 15 5.417969 L 0 5.417969 Z M 7.015625 7.039062 L 7.5 5.539062 L 7.984375 7.039062 L 9.558594 7.039062 L 8.285156 7.964844 L 8.773438 9.460938 L 7.5 8.535156 L 6.226562 9.460938 L 6.714844 7.964844 L 5.4375 7.039062 Z M 7.015625 7.039062 "/>
<path style=" stroke:none;fill-rule:nonzero;fill:rgb(92.54902%,78.431373%,11.372549%);fill-opacity:1;" d="M 6.226562 9.460938 L 7.5 8.535156 L 8.773438 9.460938 L 8.285156 7.960938 L 9.558594 7.039062 L 7.984375 7.039062 L 7.5 5.539062 L 7.015625 7.039062 L 5.441406 7.039062 L 6.714844 7.960938 Z M 6.226562 9.460938 "/>
</g>
</svg>
