<?xml version="1.0" encoding="UTF-8"?>
<svg xmlns="http://www.w3.org/2000/svg" xmlns:xlink="http://www.w3.org/1999/xlink" width="15pt" height="15pt" viewBox="0 0 15 15" version="1.1">
<g id="surface1">
<path style=" stroke:none;fill-rule:nonzero;fill:rgb(75.686275%,15.294118%,17.647059%);fill-opacity:1;" d="M 13.332031 2.082031 L 1.667969 2.082031 C 0.746094 2.082031 0 2.828125 0 3.75 L 0 11.25 C 0 12.171875 0.746094 12.917969 1.667969 12.917969 L 13.332031 12.917969 C 14.253906 12.917969 15 12.171875 15 11.25 L 15 3.75 C 15 2.828125 14.253906 2.082031 13.332031 2.082031 Z M 13.332031 2.082031 "/>
<path style=" stroke:none;fill-rule:nonzero;fill:rgb(0%,38.431373%,20%);fill-opacity:1;" d="M 6.269531 9.234375 L 6.738281 7.789062 L 5.507812 6.894531 L 7.03125 6.894531 L 7.5 5.449219 L 7.96875 6.894531 L 9.492188 6.894531 L 8.261719 7.789062 L 8.730469 9.234375 L 7.5 8.339844 Z M 7.761719 8.152344 L 8.144531 8.429688 L 8 7.980469 Z M 7 7.980469 L 6.855469 8.429688 L 7.238281 8.152344 Z M 7.101562 7.671875 L 7.5 7.960938 L 7.898438 7.671875 L 7.746094 7.203125 L 7.253906 7.203125 Z M 6.457031 7.203125 L 6.839844 7.480469 L 6.929688 7.203125 Z M 8.070312 7.203125 L 8.160156 7.480469 L 8.542969 7.203125 Z M 7.644531 6.894531 L 7.5 6.445312 L 7.355469 6.894531 Z M 7.644531 6.894531 "/>
</g>
</svg>
