<?xml version="1.0" encoding="UTF-8"?>
<svg xmlns="http://www.w3.org/2000/svg" xmlns:xlink="http://www.w3.org/1999/xlink" width="15pt" height="15pt" viewBox="0 0 15 15" version="1.1">
<g id="surface1">
<path style=" stroke:none;fill-rule:nonzero;fill:rgb(0%,16.862745%,49.803922%);fill-opacity:1;" d="M 15 11.25 C 15 12.171875 14.253906 12.917969 13.332031 12.917969 L 1.667969 12.917969 C 0.746094 12.917969 0 12.171875 0 11.25 L 0 3.75 C 0 2.828125 0.746094 2.082031 1.667969 2.082031 L 13.332031 2.082031 C 14.253906 2.082031 15 2.828125 15 3.75 Z M 15 11.25 "/>
<path style=" stroke:none;fill-rule:nonzero;fill:rgb(100%,77.647059%,11.764706%);fill-opacity:1;" d="M 0 7.082031 L 15 7.082031 L 15 7.917969 L 0 7.917969 Z M 0 7.082031 "/>
<path style=" stroke:none;fill-rule:nonzero;fill:rgb(100%,100%,100%);fill-opacity:1;" d="M 4.15625 8.117188 L 4.363281 8.933594 L 4.949219 8.328125 L 4.71875 9.140625 L 5.53125 8.910156 L 4.921875 9.496094 L 5.742188 9.699219 L 4.921875 9.90625 L 5.53125 10.492188 L 4.71875 10.261719 L 4.949219 11.074219 L 4.363281 10.464844 L 4.15625 11.285156 L 3.953125 10.464844 L 3.367188 11.074219 L 3.597656 10.261719 L 2.785156 10.492188 L 3.390625 9.90625 L 2.574219 9.699219 L 3.390625 9.496094 L 2.785156 8.910156 L 3.597656 9.140625 L 3.367188 8.328125 L 3.953125 8.933594 Z M 4.15625 8.117188 "/>
</g>
</svg>
