<?xml version="1.0" encoding="UTF-8"?>
<svg xmlns="http://www.w3.org/2000/svg" xmlns:xlink="http://www.w3.org/1999/xlink" width="15pt" height="15pt" viewBox="0 0 15 15" version="1.1">
<g id="surface1">
<path style=" stroke:none;fill-rule:nonzero;fill:rgb(87.058824%,21.960784%,18.823529%);fill-opacity:1;" d="M 13.332031 2.082031 L 2.707031 2.082031 L 7.917969 5.625 L 15 5.625 L 15 3.75 C 15 2.828125 14.253906 2.082031 13.332031 2.082031 Z M 13.332031 2.082031 "/>
<path style=" stroke:none;fill-rule:nonzero;fill:rgb(0%,13.72549%,58.431373%);fill-opacity:1;" d="M 2.707031 12.917969 L 13.332031 12.917969 C 14.253906 12.917969 15 12.171875 15 11.25 L 15 9.375 L 7.917969 9.375 Z M 2.707031 12.917969 "/>
<path style=" stroke:none;fill-rule:nonzero;fill:rgb(7.843137%,7.843137%,7.843137%);fill-opacity:1;" d="M 0 4.582031 L 0 10.417969 L 4.375 7.5 Z M 0 4.582031 "/>
<path style=" stroke:none;fill-rule:nonzero;fill:rgb(100%,71.372549%,6.666667%);fill-opacity:1;" d="M 0 3.75 L 0 4.582031 L 4.375 7.5 L 0 10.417969 L 0 11.25 L 5.625 7.5 Z M 0 3.75 "/>
<path style=" stroke:none;fill-rule:nonzero;fill:rgb(0%,47.843137%,30.196078%);fill-opacity:1;" d="M 1.476562 2.09375 C 0.644531 2.191406 0 2.894531 0 3.75 L 5.625 7.5 L 0 11.25 C 0 12.105469 0.644531 12.808594 1.476562 12.90625 L 7.707031 8.542969 L 15 8.542969 L 15 6.457031 L 7.707031 6.457031 Z M 1.476562 2.09375 "/>
<path style=" stroke:none;fill-rule:nonzero;fill:rgb(93.333333%,93.333333%,93.333333%);fill-opacity:1;" d="M 2.707031 2.082031 L 1.667969 2.082031 C 1.601562 2.082031 1.539062 2.089844 1.476562 2.09375 L 7.707031 6.457031 L 15 6.457031 L 15 5.625 L 7.917969 5.625 Z M 1.476562 12.90625 C 1.539062 12.910156 1.601562 12.917969 1.667969 12.917969 L 2.707031 12.917969 L 7.917969 9.375 L 15 9.375 L 15 8.542969 L 7.707031 8.542969 Z M 1.476562 12.90625 "/>
</g>
</svg>
