<?xml version="1.0" encoding="UTF-8"?>
<svg xmlns="http://www.w3.org/2000/svg" xmlns:xlink="http://www.w3.org/1999/xlink" width="15pt" height="15pt" viewBox="0 0 15 15" version="1.1">
<g id="surface1">
<path style=" stroke:none;fill-rule:nonzero;fill:rgb(69.803922%,13.72549%,20.392157%);fill-opacity:1;" d="M 14.769531 2.917969 C 14.480469 2.421875 13.949219 2.082031 13.332031 2.082031 L 7.5 2.082031 L 7.5 2.917969 Z M 0 10.417969 L 15 10.417969 L 15 11.25 L 0 11.25 Z M 7.5 7.082031 L 15 7.082031 L 15 7.917969 L 7.5 7.917969 Z M 7.5 5.417969 L 15 5.417969 L 15 6.25 L 7.5 6.25 Z M 0 8.75 L 15 8.75 L 15 9.582031 L 0 9.582031 Z M 1.667969 12.917969 L 13.332031 12.917969 C 13.949219 12.917969 14.480469 12.578125 14.769531 12.082031 L 0.230469 12.082031 C 0.519531 12.578125 1.050781 12.917969 1.667969 12.917969 Z M 7.5 3.75 L 15 3.75 L 15 4.582031 L 7.5 4.582031 Z M 7.5 3.75 "/>
<path style=" stroke:none;fill-rule:nonzero;fill:rgb(93.333333%,93.333333%,93.333333%);fill-opacity:1;" d="M 0.0273438 11.53125 C 0.0351562 11.570312 0.0429688 11.609375 0.0546875 11.648438 C 0.0625 11.691406 0.078125 11.730469 0.0898438 11.773438 C 0.128906 11.878906 0.171875 11.984375 0.230469 12.082031 L 14.769531 12.082031 C 14.824219 11.984375 14.871094 11.878906 14.90625 11.773438 C 14.921875 11.730469 14.9375 11.691406 14.945312 11.648438 C 14.957031 11.609375 14.964844 11.570312 14.972656 11.53125 C 14.988281 11.441406 15 11.347656 15 11.25 L 0 11.25 C 0 11.347656 0.0117188 11.441406 0.0273438 11.53125 Z M 0 9.582031 L 15 9.582031 L 15 10.417969 L 0 10.417969 Z M 0 7.917969 L 0 8.75 L 15 8.75 L 15 7.917969 Z M 7.5 6.25 L 15 6.25 L 15 7.082031 L 7.5 7.082031 Z M 7.5 4.582031 L 15 4.582031 L 15 5.417969 L 7.5 5.417969 Z M 0 3.75 C 0 3.652344 0.0117188 3.558594 0.0273438 3.46875 C 0.0117188 3.558594 0 3.652344 0 3.75 Z M 0.230469 2.917969 Z M 0.0546875 3.351562 C 0.0625 3.308594 0.078125 3.269531 0.0898438 3.226562 C 0.078125 3.269531 0.0625 3.308594 0.0546875 3.351562 Z M 7.5 3.75 L 15 3.75 C 15 3.652344 14.988281 3.558594 14.972656 3.464844 C 14.964844 3.429688 14.957031 3.390625 14.945312 3.351562 C 14.933594 3.308594 14.921875 3.269531 14.90625 3.226562 C 14.871094 3.121094 14.824219 3.015625 14.769531 2.917969 L 7.5 2.917969 Z M 7.5 3.75 "/>
<path style=" stroke:none;fill-rule:nonzero;fill:rgb(23.529412%,23.137255%,43.137255%);fill-opacity:1;" d="M 7.5 2.082031 L 1.667969 2.082031 C 0.746094 2.082031 0 2.828125 0 3.75 L 0 7.917969 L 7.5 7.917969 Z M 7.5 2.082031 "/>
<path style=" stroke:none;fill-rule:nonzero;fill:rgb(100%,100%,100%);fill-opacity:1;" d="M 0.832031 3.21875 L 1.089844 3.40625 L 0.992188 3.707031 L 1.25 3.523438 L 1.507812 3.707031 L 1.410156 3.40625 L 1.667969 3.21875 L 1.347656 3.21875 L 1.25 2.917969 L 1.152344 3.21875 Z M 1.667969 4.050781 L 1.925781 4.238281 L 1.828125 4.542969 L 2.082031 4.355469 L 2.339844 4.542969 L 2.242188 4.238281 L 2.5 4.050781 L 2.183594 4.050781 L 2.082031 3.75 L 1.984375 4.050781 Z M 3.332031 4.050781 L 3.589844 4.238281 L 3.492188 4.542969 L 3.75 4.355469 L 4.007812 4.542969 L 3.910156 4.238281 L 4.167969 4.050781 L 3.847656 4.050781 L 3.75 3.75 L 3.652344 4.050781 Z M 5 4.050781 L 5.257812 4.238281 L 5.160156 4.542969 L 5.417969 4.355469 L 5.675781 4.542969 L 5.574219 4.238281 L 5.832031 4.050781 L 5.515625 4.050781 L 5.417969 3.75 L 5.320312 4.050781 Z M 1.667969 5.71875 L 1.925781 5.90625 L 1.828125 6.207031 L 2.082031 6.023438 L 2.339844 6.207031 L 2.242188 5.90625 L 2.5 5.71875 L 2.183594 5.71875 L 2.082031 5.417969 L 1.984375 5.71875 Z M 3.332031 5.71875 L 3.589844 5.90625 L 3.492188 6.207031 L 3.75 6.023438 L 4.007812 6.207031 L 3.910156 5.90625 L 4.167969 5.71875 L 3.847656 5.71875 L 3.75 5.417969 L 3.652344 5.71875 Z M 5 5.71875 L 5.257812 5.90625 L 5.160156 6.207031 L 5.417969 6.023438 L 5.675781 6.207031 L 5.574219 5.90625 L 5.832031 5.71875 L 5.515625 5.71875 L 5.417969 5.417969 L 5.320312 5.71875 Z M 2.5 3.21875 L 2.757812 3.40625 L 2.660156 3.707031 L 2.917969 3.523438 L 3.175781 3.707031 L 3.074219 3.40625 L 3.332031 3.21875 L 3.015625 3.21875 L 2.917969 2.917969 L 2.820312 3.21875 Z M 4.167969 3.21875 L 4.425781 3.40625 L 4.328125 3.707031 L 4.582031 3.523438 L 4.839844 3.707031 L 4.742188 3.40625 L 5 3.21875 L 4.683594 3.21875 L 4.582031 2.917969 L 4.484375 3.21875 Z M 5.832031 3.21875 L 6.089844 3.40625 L 5.992188 3.707031 L 6.25 3.523438 L 6.507812 3.707031 L 6.410156 3.40625 L 6.667969 3.21875 L 6.347656 3.21875 L 6.25 2.917969 L 6.152344 3.21875 Z M 0.832031 4.886719 L 1.089844 5.074219 L 0.992188 5.375 L 1.25 5.1875 L 1.507812 5.375 L 1.410156 5.074219 L 1.667969 4.886719 L 1.347656 4.886719 L 1.25 4.582031 L 1.152344 4.886719 Z M 2.660156 5.375 L 2.917969 5.1875 L 3.175781 5.375 L 3.074219 5.074219 L 3.332031 4.886719 L 3.015625 4.886719 L 2.917969 4.582031 L 2.820312 4.886719 L 2.5 4.886719 L 2.757812 5.074219 Z M 4.167969 4.886719 L 4.425781 5.074219 L 4.328125 5.375 L 4.582031 5.1875 L 4.839844 5.375 L 4.742188 5.074219 L 5 4.886719 L 4.683594 4.886719 L 4.582031 4.582031 L 4.484375 4.886719 Z M 5.832031 4.886719 L 6.089844 5.074219 L 5.992188 5.375 L 6.25 5.1875 L 6.507812 5.375 L 6.410156 5.074219 L 6.667969 4.886719 L 6.347656 4.886719 L 6.25 4.582031 L 6.152344 4.886719 Z M 0.832031 6.550781 L 1.089844 6.738281 L 0.992188 7.042969 L 1.25 6.855469 L 1.507812 7.042969 L 1.410156 6.738281 L 1.667969 6.550781 L 1.347656 6.550781 L 1.25 6.25 L 1.152344 6.550781 Z M 2.660156 7.042969 L 2.917969 6.855469 L 3.175781 7.042969 L 3.074219 6.738281 L 3.332031 6.550781 L 3.015625 6.550781 L 2.917969 6.25 L 2.820312 6.550781 L 2.5 6.550781 L 2.757812 6.738281 Z M 4.167969 6.550781 L 4.425781 6.738281 L 4.328125 7.042969 L 4.582031 6.855469 L 4.839844 7.042969 L 4.742188 6.738281 L 5 6.550781 L 4.683594 6.550781 L 4.582031 6.25 L 4.484375 6.550781 Z M 5.832031 6.550781 L 6.089844 6.738281 L 5.992188 7.042969 L 6.25 6.855469 L 6.507812 7.042969 L 6.410156 6.738281 L 6.667969 6.550781 L 6.347656 6.550781 L 6.25 6.25 L 6.152344 6.550781 Z M 5.832031 6.550781 "/>
</g>
</svg>
