<?xml version="1.0" encoding="UTF-8"?>
<svg xmlns="http://www.w3.org/2000/svg" xmlns:xlink="http://www.w3.org/1999/xlink" width="15pt" height="15pt" viewBox="0 0 15 15" version="1.1">
<g id="surface1">
<path style=" stroke:none;fill-rule:nonzero;fill:rgb(55.294118%,10.588235%,23.921569%);fill-opacity:1;" d="M 13.332031 2.082031 L 4.582031 2.082031 L 4.582031 12.917969 L 13.332031 12.917969 C 14.253906 12.917969 15 12.171875 15 11.25 L 15 3.75 C 15 2.828125 14.253906 2.082031 13.332031 2.082031 Z M 13.332031 2.082031 "/>
<path style=" stroke:none;fill-rule:nonzero;fill:rgb(93.333333%,93.333333%,93.333333%);fill-opacity:1;" d="M 4.582031 11.714844 L 6.789062 11.109375 L 4.582031 10.507812 L 6.789062 9.90625 L 4.582031 9.304688 L 6.789062 8.703125 L 4.582031 8.101562 L 6.789062 7.5 L 4.582031 6.898438 L 6.789062 6.296875 L 4.582031 5.695312 L 6.789062 5.09375 L 4.582031 4.492188 L 6.789062 3.890625 L 4.582031 3.285156 L 6.789062 2.683594 L 4.582031 2.082031 L 1.667969 2.082031 C 0.746094 2.082031 0 2.828125 0 3.75 L 0 11.25 C 0 12.171875 0.746094 12.917969 1.667969 12.917969 L 4.582031 12.917969 L 6.789062 12.316406 Z M 4.582031 11.714844 "/>
</g>
</svg>
