<?xml version="1.0" encoding="UTF-8"?>
<svg xmlns="http://www.w3.org/2000/svg" xmlns:xlink="http://www.w3.org/1999/xlink" width="15pt" height="15pt" viewBox="0 0 15 15" version="1.1">
<g id="surface1">
<path style=" stroke:none;fill-rule:nonzero;fill:rgb(93.333333%,93.333333%,93.333333%);fill-opacity:1;" d="M 4.230469 5 L 0.765625 2.347656 C 0.691406 2.394531 0.621094 2.449219 0.554688 2.507812 C 0.214844 2.8125 0 3.257812 0 3.75 L 0 11.25 C 0 11.742188 0.214844 12.1875 0.554688 12.492188 C 0.621094 12.550781 0.691406 12.601562 0.765625 12.652344 L 7.5 7.5 Z M 4.230469 5 "/>
<path style=" stroke:none;fill-rule:nonzero;fill:rgb(87.058824%,12.54902%,5.882353%);fill-opacity:1;" d="M 2.785156 4.832031 L 3.527344 6.335938 L 5.1875 6.578125 L 3.984375 7.75 L 4.269531 9.40625 L 2.785156 8.625 L 1.296875 9.40625 L 1.582031 7.75 L 0.378906 6.578125 L 2.039062 6.335938 Z M 2.785156 4.832031 "/>
<path style=" stroke:none;fill-rule:nonzero;fill:rgb(100%,82.352941%,0%);fill-opacity:1;" d="M 3.125 6.441406 C 2.742188 6.128906 2.585938 5.902344 2.308594 5.46875 C 2.03125 5.035156 1.667969 5.085938 1.511719 5.46875 C 1.265625 5.519531 1.199219 5.78125 1.199219 5.78125 C 1.597656 5.660156 1.859375 5.921875 1.890625 6.476562 C 1.925781 7.03125 1.789062 7.1875 1.546875 7.671875 C 1.300781 8.160156 1.578125 8.28125 1.578125 8.28125 L 1.738281 9.125 L 4.222656 9.125 L 4.566406 7.640625 L 4.773438 7.640625 C 4.773438 7.640625 3.507812 6.753906 3.125 6.441406 Z M 3.125 6.441406 "/>
<path style=" stroke:none;fill-rule:nonzero;fill:rgb(100%,67.45098%,20%);fill-opacity:1;" d="M 2.421875 6.886719 L 2.277344 6.984375 C 2.277344 6.984375 2.539062 7.558594 2.917969 7.640625 C 3.292969 7.722656 4.515625 7.855469 4.515625 7.855469 L 4.566406 7.640625 C 4.566406 7.640625 3.300781 7.488281 2.984375 7.433594 C 2.667969 7.382812 2.421875 6.886719 2.421875 6.886719 Z M 2.109375 8.292969 C 2.109375 8.292969 2.644531 8.25 2.917969 8.292969 C 3.171875 8.335938 4.246094 8.394531 4.390625 8.402344 L 4.4375 8.199219 C 4.289062 8.175781 3.15625 7.996094 2.839844 7.976562 C 2.5 7.957031 2.160156 8.121094 2.109375 8.292969 Z M 2.382812 8.699219 L 2.449219 9.125 L 4.222656 9.125 L 4.296875 8.796875 C 3.433594 8.628906 2.382812 8.699219 2.382812 8.699219 Z M 2.382812 8.699219 "/>
<path style=" stroke:none;fill-rule:nonzero;fill:rgb(94.509804%,35.294118%,16.078431%);fill-opacity:1;" d="M 4.238281 9.144531 L 1.722656 9.144531 L 1.71875 9.128906 L 1.5625 8.296875 C 1.535156 8.28125 1.476562 8.238281 1.445312 8.152344 C 1.398438 8.027344 1.425781 7.863281 1.527344 7.664062 C 1.5625 7.589844 1.597656 7.523438 1.628906 7.464844 C 1.804688 7.128906 1.902344 6.941406 1.871094 6.476562 C 1.851562 6.164062 1.761719 5.945312 1.609375 5.839844 C 1.5 5.765625 1.363281 5.753906 1.203125 5.800781 L 1.167969 5.8125 L 1.179688 5.777344 C 1.179688 5.765625 1.25 5.507812 1.496094 5.449219 C 1.574219 5.269531 1.703125 5.15625 1.847656 5.140625 C 2.019531 5.128906 2.1875 5.238281 2.328125 5.457031 C 2.59375 5.875 2.753906 6.109375 3.136719 6.425781 C 3.515625 6.734375 4.773438 7.613281 4.785156 7.621094 L 4.839844 7.660156 L 4.582031 7.660156 Z M 1.757812 9.105469 L 4.207031 9.105469 L 4.550781 7.617188 L 4.707031 7.617188 C 4.460938 7.445312 3.445312 6.730469 3.113281 6.457031 C 2.722656 6.136719 2.5625 5.902344 2.292969 5.480469 C 2.160156 5.277344 2.003906 5.171875 1.851562 5.183594 C 1.71875 5.195312 1.601562 5.304688 1.53125 5.476562 L 1.527344 5.488281 L 1.515625 5.488281 C 1.339844 5.527344 1.257812 5.679688 1.230469 5.75 C 1.386719 5.710938 1.523438 5.730469 1.632812 5.808594 C 1.796875 5.917969 1.894531 6.152344 1.914062 6.472656 C 1.941406 6.953125 1.84375 7.140625 1.667969 7.484375 C 1.636719 7.542969 1.601562 7.609375 1.5625 7.683594 C 1.472656 7.867188 1.445312 8.023438 1.484375 8.136719 C 1.519531 8.230469 1.585938 8.261719 1.589844 8.261719 L 1.597656 8.265625 L 1.601562 8.277344 Z M 1.757812 9.105469 "/>
<path style=" stroke:none;fill-rule:nonzero;fill:rgb(19.215686%,57.254902%,3.529412%);fill-opacity:1;" d="M 14.945312 3.332031 C 14.761719 2.613281 14.109375 2.082031 13.332031 2.082031 L 1.667969 2.082031 C 1.335938 2.082031 1.023438 2.179688 0.765625 2.347656 L 2.050781 3.332031 Z M 14.945312 11.667969 C 14.761719 12.386719 14.109375 12.917969 13.332031 12.917969 L 1.667969 12.917969 C 1.335938 12.917969 1.023438 12.820312 0.765625 12.652344 L 2.050781 11.667969 Z M 14.945312 11.667969 "/>
<path style=" stroke:none;fill-rule:nonzero;fill:rgb(100%,82.352941%,0%);fill-opacity:1;" d="M 2.050781 3.332031 L 7.5 7.5 L 2.050781 11.667969 L 14.945312 11.667969 C 14.980469 11.53125 15 11.394531 15 11.25 L 15 3.75 C 15 3.605469 14.980469 3.464844 14.945312 3.332031 C 14.945312 3.332031 2.050781 3.332031 2.050781 3.332031 Z M 2.050781 3.332031 "/>
<path style=" stroke:none;fill-rule:nonzero;fill:rgb(87.058824%,12.54902%,5.882353%);fill-opacity:1;" d="M 4.230469 5 L 6.410156 6.667969 L 15 6.667969 L 15 5 Z M 4.230469 10 L 15 10 L 15 8.332031 L 6.410156 8.332031 Z M 4.230469 10 "/>
<path style=" stroke:none;fill-rule:nonzero;fill:rgb(7.843137%,7.843137%,7.843137%);fill-opacity:1;" d="M 6.410156 6.667969 L 0.765625 2.347656 C 0.691406 2.394531 0.621094 2.449219 0.554688 2.507812 L 7.082031 7.5 L 0.554688 12.492188 C 0.621094 12.550781 0.691406 12.601562 0.765625 12.652344 L 6.410156 8.332031 L 15 8.332031 L 15 6.667969 Z M 6.410156 6.667969 "/>
</g>
</svg>
