<?xml version="1.0" encoding="UTF-8"?>
<svg xmlns="http://www.w3.org/2000/svg" xmlns:xlink="http://www.w3.org/1999/xlink" width="15pt" height="15pt" viewBox="0 0 15 15" version="1.1">
<g id="surface1">
<path style=" stroke:none;fill-rule:nonzero;fill:rgb(76.862745%,15.294118%,18.431373%);fill-opacity:1;" d="M 15 11.25 C 15 12.171875 14.253906 12.917969 13.332031 12.917969 L 1.667969 12.917969 C 0.746094 12.917969 0 12.171875 0 11.25 L 0 3.75 C 0 2.828125 0.746094 2.082031 1.667969 2.082031 L 13.332031 2.082031 C 14.253906 2.082031 15 2.828125 15 3.75 Z M 15 11.25 "/>
<path style=" stroke:none;fill-rule:nonzero;fill:rgb(0%,31.764706%,59.215686%);fill-opacity:1;" d="M 5 2.082031 L 10 2.082031 L 10 12.917969 L 5 12.917969 Z M 5 2.082031 "/>
<path style=" stroke:none;fill-rule:nonzero;fill:rgb(97.647059%,81.176471%,0.392157%);fill-opacity:1;" d="M 0.535156 6.84375 L 1.191406 6.84375 L 1.191406 12.082031 L 0.535156 12.082031 Z M 1.535156 7.828125 L 3.464844 7.828125 L 3.464844 8.15625 L 1.535156 8.15625 Z M 3.808594 6.84375 L 4.464844 6.84375 L 4.464844 12.082031 L 3.808594 12.082031 Z M 1.535156 10.773438 L 3.464844 10.773438 L 3.464844 11.101562 L 1.535156 11.101562 Z M 1.570312 6.84375 L 3.429688 6.84375 L 2.5 7.496094 Z M 1.535156 11.511719 L 3.464844 11.511719 L 2.5 12.1875 Z M 3.15625 4.878906 C 3.15625 5.242188 2.859375 5.535156 2.5 5.535156 C 2.140625 5.535156 1.84375 5.242188 1.84375 4.878906 C 1.84375 4.519531 2.140625 4.226562 2.5 4.226562 C 2.859375 4.226562 3.15625 4.519531 3.15625 4.878906 Z M 2.828125 3.652344 C 2.828125 3.96875 2.679688 4.0625 2.5 4.0625 C 2.320312 4.0625 2.171875 3.96875 2.171875 3.652344 C 2.171875 3.335938 2.398438 2.917969 2.5 2.917969 C 2.601562 2.917969 2.828125 3.335938 2.828125 3.652344 Z M 2.828125 3.652344 "/>
<path style=" stroke:none;fill-rule:nonzero;fill:rgb(97.647059%,81.176471%,0.392157%);fill-opacity:1;" d="M 2.5 6 C 1.957031 6 1.484375 5.753906 1.214844 5.386719 C 1.328125 5.996094 1.859375 6.457031 2.5 6.457031 C 3.140625 6.457031 3.671875 5.996094 3.785156 5.386719 C 3.515625 5.753906 3.042969 6 2.5 6 Z M 3.570312 9.464844 C 3.570312 9.007812 3.285156 8.621094 2.882812 8.46875 C 3.007812 8.574219 3.125 8.65625 3.125 8.910156 C 3.125 9.316406 2.882812 9.535156 2.5 9.535156 L 2.5 9.539062 C 2.234375 9.546875 2.015625 9.765625 2.015625 10.035156 C 2.015625 10.304688 2.234375 10.519531 2.5 10.53125 L 2.5 10.535156 C 2.503906 10.535156 2.507812 10.535156 2.511719 10.535156 C 2.515625 10.535156 2.515625 10.535156 2.515625 10.535156 C 2.523438 10.535156 2.527344 10.53125 2.535156 10.53125 C 3.109375 10.511719 3.570312 10.042969 3.570312 9.464844 Z M 2.34375 10.035156 C 2.34375 9.941406 2.421875 9.863281 2.515625 9.863281 C 2.613281 9.863281 2.691406 9.941406 2.691406 10.035156 C 2.691406 10.128906 2.613281 10.207031 2.515625 10.207031 C 2.421875 10.207031 2.34375 10.128906 2.34375 10.035156 Z M 2.34375 10.035156 "/>
<path style=" stroke:none;fill-rule:nonzero;fill:rgb(97.647059%,81.176471%,0.392157%);fill-opacity:1;" d="M 2.5 8.398438 L 2.5 8.394531 L 2.488281 8.394531 C 2.484375 8.394531 2.480469 8.398438 2.472656 8.398438 C 1.894531 8.410156 1.429688 8.878906 1.429688 9.464844 C 1.429688 9.921875 1.714844 10.308594 2.117188 10.460938 C 1.992188 10.351562 1.882812 10.273438 1.882812 10.042969 C 1.882812 9.636719 2.101562 9.410156 2.480469 9.410156 L 2.480469 9.402344 C 2.484375 9.402344 2.484375 9.402344 2.488281 9.402344 C 2.765625 9.402344 2.992188 9.175781 2.992188 8.898438 C 2.992188 8.625 2.773438 8.402344 2.5 8.398438 Z M 2.488281 9.070312 C 2.390625 9.070312 2.3125 8.992188 2.3125 8.898438 C 2.3125 8.800781 2.390625 8.722656 2.488281 8.722656 C 2.582031 8.722656 2.660156 8.800781 2.660156 8.898438 C 2.660156 8.992188 2.582031 9.070312 2.488281 9.070312 Z M 2.488281 9.070312 "/>
</g>
</svg>
