<?xml version="1.0" encoding="UTF-8"?>
<svg xmlns="http://www.w3.org/2000/svg" xmlns:xlink="http://www.w3.org/1999/xlink" width="15pt" height="15pt" viewBox="0 0 15 15" version="1.1">
<g id="surface1">
<path style=" stroke:none;fill-rule:nonzero;fill:rgb(0%,31.764706%,72.941176%);fill-opacity:1;" d="M 13.980469 2.214844 C 13.78125 2.128906 13.5625 2.082031 13.332031 2.082031 L 1.667969 2.082031 C 0.746094 2.082031 0 2.828125 0 3.75 L 0 11.25 C 0 11.585938 0.0976562 11.898438 0.269531 12.160156 Z M 13.980469 2.214844 "/>
<path style=" stroke:none;fill-rule:nonzero;fill:rgb(12.941176%,35.686275%,20%);fill-opacity:1;" d="M 1.019531 12.785156 L 1.023438 12.789062 C 1.222656 12.871094 1.4375 12.917969 1.667969 12.917969 L 13.332031 12.917969 C 14.253906 12.917969 15 12.171875 15 11.25 L 15 3.75 C 15 3.414062 14.902344 3.101562 14.730469 2.839844 Z M 1.019531 12.785156 "/>
<path style=" stroke:none;fill-rule:nonzero;fill:rgb(98.823529%,81.960784%,8.627451%);fill-opacity:1;" d="M 0.269531 12.160156 C 0.453125 12.4375 0.710938 12.65625 1.019531 12.785156 L 14.730469 2.839844 C 14.546875 2.5625 14.289062 2.34375 13.980469 2.214844 Z M 0.269531 12.160156 "/>
<path style=" stroke:none;fill-rule:nonzero;fill:rgb(100%,100%,100%);fill-opacity:1;" d="M 2.945312 5.007812 L 2.949219 5.011719 L 2.746094 5.632812 L 3.285156 5.242188 L 3.824219 5.632812 L 3.625 5.011719 L 3.628906 5.007812 L 3.625 4.996094 L 4.148438 4.617188 L 3.496094 4.617188 L 3.285156 3.976562 L 3.078125 4.617188 L 2.425781 4.617188 L 2.949219 4.996094 Z M 2.945312 5.007812 "/>
<path style=" stroke:none;fill-rule:nonzero;fill:rgb(100%,100%,100%);fill-opacity:1;" d="M 3.628906 5.007812 L 4.167969 4.617188 L 4.148438 4.617188 L 3.625 4.996094 Z M 2.945312 5.007812 L 2.949219 4.996094 L 2.425781 4.617188 L 2.40625 4.617188 Z M 2.746094 5.632812 L 2.742188 5.652344 L 3.285156 5.257812 L 3.832031 5.652344 L 3.824219 5.632812 L 3.285156 5.242188 Z M 1.113281 3.441406 L 1.121094 3.441406 L 0.917969 4.0625 L 1.457031 3.671875 L 1.996094 4.0625 L 1.792969 3.441406 L 1.796875 3.441406 L 1.792969 3.425781 L 2.316406 3.046875 L 1.664062 3.046875 L 1.457031 2.40625 L 1.246094 3.046875 L 0.59375 3.046875 L 1.121094 3.425781 Z M 1.113281 3.441406 "/>
<path style=" stroke:none;fill-rule:nonzero;fill:rgb(100%,100%,100%);fill-opacity:1;" d="M 0.917969 4.0625 L 0.910156 4.082031 L 1.457031 3.6875 L 2 4.082031 L 1.996094 4.0625 L 1.457031 3.671875 Z M 1.113281 3.441406 L 1.121094 3.425781 L 0.59375 3.046875 L 0.574219 3.046875 Z M 1.796875 3.441406 L 2.339844 3.046875 L 2.316406 3.046875 L 1.792969 3.425781 Z M 4.777344 6.578125 L 4.78125 6.582031 L 4.578125 7.203125 L 5.117188 6.808594 L 5.65625 7.203125 L 5.453125 6.582031 L 5.457031 6.578125 L 5.453125 6.566406 L 5.976562 6.183594 L 5.324219 6.183594 L 5.117188 5.542969 L 4.910156 6.183594 L 4.253906 6.183594 L 4.78125 6.566406 Z M 4.777344 6.578125 "/>
<path style=" stroke:none;fill-rule:nonzero;fill:rgb(100%,100%,100%);fill-opacity:1;" d="M 5.457031 6.578125 L 6 6.183594 L 5.976562 6.183594 L 5.453125 6.566406 Z M 4.777344 6.578125 L 4.78125 6.566406 L 4.253906 6.183594 L 4.234375 6.183594 Z M 4.578125 7.203125 L 4.570312 7.222656 L 5.117188 6.824219 L 5.660156 7.222656 L 5.65625 7.203125 L 5.117188 6.808594 Z M 1.113281 6.578125 L 1.121094 6.582031 L 0.917969 7.203125 L 1.457031 6.808594 L 1.996094 7.203125 L 1.792969 6.582031 L 1.796875 6.578125 L 1.792969 6.566406 L 2.316406 6.183594 L 1.664062 6.183594 L 1.457031 5.542969 L 1.246094 6.183594 L 0.59375 6.183594 L 1.121094 6.566406 Z M 1.113281 6.578125 "/>
<path style=" stroke:none;fill-rule:nonzero;fill:rgb(100%,100%,100%);fill-opacity:1;" d="M 1.796875 6.578125 L 2.339844 6.183594 L 2.316406 6.183594 L 1.792969 6.566406 Z M 0.917969 7.203125 L 0.910156 7.222656 L 1.457031 6.824219 L 2 7.222656 L 1.996094 7.203125 L 1.457031 6.808594 Z M 1.113281 6.578125 L 1.121094 6.566406 L 0.59375 6.183594 L 0.574219 6.183594 Z M 4.777344 3.441406 L 4.78125 3.441406 L 4.578125 4.0625 L 5.117188 3.671875 L 5.65625 4.0625 L 5.453125 3.441406 L 5.457031 3.441406 L 5.453125 3.425781 L 5.976562 3.046875 L 5.324219 3.046875 L 5.117188 2.40625 L 4.910156 3.046875 L 4.253906 3.046875 L 4.78125 3.425781 Z M 4.777344 3.441406 "/>
<path style=" stroke:none;fill-rule:nonzero;fill:rgb(100%,100%,100%);fill-opacity:1;" d="M 4.777344 3.441406 L 4.78125 3.425781 L 4.253906 3.046875 L 4.234375 3.046875 Z M 5.457031 3.441406 L 6 3.046875 L 5.976562 3.046875 L 5.453125 3.425781 Z M 4.578125 4.0625 L 4.570312 4.082031 L 5.117188 3.6875 L 5.660156 4.082031 L 5.65625 4.0625 L 5.117188 3.671875 Z M 4.578125 4.0625 "/>
</g>
</svg>
