<?xml version="1.0" encoding="UTF-8"?>
<svg xmlns="http://www.w3.org/2000/svg" xmlns:xlink="http://www.w3.org/1999/xlink" width="15pt" height="15pt" viewBox="0 0 15 15" version="1.1">
<g id="surface1">
<path style=" stroke:none;fill-rule:nonzero;fill:rgb(23.137255%,53.333333%,76.470588%);fill-opacity:1;" d="M 15 13.332031 C 15 14.253906 14.253906 15 13.332031 15 L 1.667969 15 C 0.746094 15 0 14.253906 0 13.332031 L 0 1.667969 C 0 0.746094 0.746094 0 1.667969 0 L 13.332031 0 C 14.253906 0 15 0.746094 15 1.667969 Z M 15 13.332031 "/>
<path style=" stroke:none;fill-rule:nonzero;fill:rgb(100%,100%,100%);fill-opacity:1;" d="M 3.714844 4.214844 C 3.652344 4.046875 3.625 3.917969 3.625 3.738281 C 3.625 3.195312 4.101562 2.808594 4.621094 2.808594 C 5.058594 2.808594 5.332031 3.089844 5.496094 3.441406 L 7.5 8.816406 L 9.503906 3.441406 C 9.671875 3.089844 9.941406 2.808594 10.382812 2.808594 C 10.898438 2.808594 11.375 3.195312 11.375 3.738281 C 11.375 3.917969 11.351562 4.046875 11.285156 4.214844 L 8.457031 11.410156 C 8.289062 11.824219 8.070312 12.160156 7.5 12.160156 C 6.933594 12.160156 6.710938 11.824219 6.542969 11.410156 Z M 3.714844 4.214844 "/>
</g>
</svg>
