<?xml version="1.0" encoding="UTF-8"?>
<svg xmlns="http://www.w3.org/2000/svg" xmlns:xlink="http://www.w3.org/1999/xlink" width="15pt" height="15pt" viewBox="0 0 15 15" version="1.1">
<g id="surface1">
<path style=" stroke:none;fill-rule:nonzero;fill:rgb(11.764706%,70.980392%,22.745098%);fill-opacity:1;" d="M 1.667969 2.082031 C 0.746094 2.082031 0 2.828125 0 3.75 L 0 10.261719 L 11.023438 2.082031 Z M 1.667969 2.082031 "/>
<path style=" stroke:none;fill-rule:nonzero;fill:rgb(0%,63.921569%,86.666667%);fill-opacity:1;" d="M 13.332031 12.917969 C 14.253906 12.917969 15 12.171875 15 11.25 L 15 4.722656 L 3.949219 12.917969 Z M 13.332031 12.917969 "/>
<path style=" stroke:none;fill-rule:nonzero;fill:rgb(7.843137%,7.843137%,7.843137%);fill-opacity:1;" d="M 13.332031 2.082031 L 12.277344 2.082031 L 0 11.097656 L 0 11.25 C 0 12.171875 0.746094 12.917969 1.667969 12.917969 L 2.695312 12.917969 L 15 3.882812 L 15 3.75 C 15 2.828125 14.253906 2.082031 13.332031 2.082031 Z M 13.332031 2.082031 "/>
<path style=" stroke:none;fill-rule:nonzero;fill:rgb(98.431373%,81.568627%,20.784314%);fill-opacity:1;" d="M 11.023438 2.082031 L 0 10.261719 L 0 11.097656 L 12.277344 2.082031 Z M 3.949219 12.917969 L 15 4.722656 L 15 3.882812 L 2.695312 12.917969 Z M 3.949219 12.917969 "/>
</g>
</svg>
