<?xml version="1.0" encoding="UTF-8"?>
<svg xmlns="http://www.w3.org/2000/svg" xmlns:xlink="http://www.w3.org/1999/xlink" width="15pt" height="15pt" viewBox="0 0 15 15" version="1.1">
<g id="surface1">
<path style=" stroke:none;fill-rule:nonzero;fill:rgb(23.137255%,53.333333%,76.470588%);fill-opacity:1;" d="M 15 13.332031 C 15 14.253906 14.253906 15 13.332031 15 L 1.667969 15 C 0.746094 15 0 14.253906 0 13.332031 L 0 1.667969 C 0 0.746094 0.746094 0 1.667969 0 L 13.332031 0 C 14.253906 0 15 0.746094 15 1.667969 Z M 15 13.332031 "/>
<path style=" stroke:none;fill-rule:nonzero;fill:rgb(100%,100%,100%);fill-opacity:1;" d="M 3.058594 7.484375 C 3.058594 4.796875 4.867188 2.730469 7.5 2.730469 C 10.097656 2.730469 11.945312 4.863281 11.945312 7.484375 C 11.945312 10.160156 10.148438 12.238281 7.5 12.238281 C 4.878906 12.238281 3.058594 10.160156 3.058594 7.484375 Z M 9.929688 7.484375 C 9.929688 5.921875 9.117188 4.511719 7.5 4.511719 C 5.886719 4.511719 5.070312 5.921875 5.070312 7.484375 C 5.070312 9.058594 5.859375 10.457031 7.5 10.457031 C 9.140625 10.457031 9.929688 9.058594 9.929688 7.484375 Z M 9.929688 7.484375 "/>
</g>
</svg>
