<?xml version="1.0" encoding="UTF-8"?>
<svg xmlns="http://www.w3.org/2000/svg" xmlns:xlink="http://www.w3.org/1999/xlink" width="15pt" height="15pt" viewBox="0 0 15 15" version="1.1">
<g id="surface1">
<path style=" stroke:none;fill-rule:nonzero;fill:rgb(7.843137%,7.843137%,7.843137%);fill-opacity:1;" d="M 13.332031 2.082031 L 1.667969 2.082031 C 0.746094 2.082031 0 2.828125 0 3.75 L 0 5 L 15 5 L 15 3.75 C 15 2.828125 14.253906 2.082031 13.332031 2.082031 Z M 13.332031 2.082031 "/>
<path style=" stroke:none;fill-rule:nonzero;fill:rgb(2.745098%,53.72549%,18.823529%);fill-opacity:1;" d="M 0 11.25 C 0 12.171875 0.746094 12.917969 1.667969 12.917969 L 13.332031 12.917969 C 14.253906 12.917969 15 12.171875 15 11.25 L 15 10 L 0 10 Z M 0 11.25 "/>
<path style=" stroke:none;fill-rule:nonzero;fill:rgb(85.490196%,7.058824%,10.196078%);fill-opacity:1;" d="M 0 5 L 15 5 L 15 10 L 0 10 Z M 0 5 "/>
<path style=" stroke:none;fill-rule:nonzero;fill:rgb(93.333333%,93.333333%,93.333333%);fill-opacity:1;" d="M 0 5 L 15 5 L 15 5.832031 L 0 5.832031 Z M 0 9.167969 L 15 9.167969 L 15 10 L 0 10 Z M 0 9.167969 "/>
<path style=" stroke:none;fill-rule:nonzero;fill:rgb(5.882353%,27.843137%,68.627451%);fill-opacity:1;" d="M 0.5625 2.5 C 0.21875 2.808594 0 3.253906 0 3.859375 L 0 11.359375 C 0 11.746094 0.21875 12.191406 0.5625 12.5 L 7.292969 7.5 Z M 0.5625 2.5 "/>
<path style=" stroke:none;fill-rule:nonzero;fill:rgb(98.823529%,86.666667%,3.529412%);fill-opacity:1;" d="M 3.4375 7.464844 L 4.175781 6.445312 L 2.980469 6.835938 L 2.238281 5.816406 L 2.238281 7.078125 L 1.042969 7.464844 L 2.238281 7.855469 L 2.238281 9.113281 L 2.980469 8.09375 L 4.175781 8.484375 Z M 3.4375 7.464844 "/>
</g>
</svg>
