<?xml version="1.0" encoding="UTF-8"?>
<svg xmlns="http://www.w3.org/2000/svg" xmlns:xlink="http://www.w3.org/1999/xlink" width="15pt" height="15pt" viewBox="0 0 15 15" version="1.1">
<g id="surface1">
<path style=" stroke:none;fill-rule:nonzero;fill:rgb(90.588235%,0%,7.45098%);fill-opacity:1;" d="M 13.332031 2.082031 L 1.667969 2.082031 C 0.746094 2.082031 0 2.828125 0 3.75 L 0 11.25 C 0 12.171875 0.746094 12.917969 1.667969 12.917969 L 13.332031 12.917969 C 14.253906 12.917969 15 12.171875 15 11.25 L 15 3.75 C 15 2.828125 14.253906 2.082031 13.332031 2.082031 Z M 13.332031 2.082031 "/>
<path style=" stroke:none;fill-rule:nonzero;fill:rgb(100%,100%,100%);fill-opacity:1;" d="M 10.207031 7.5 C 10.207031 8.996094 8.996094 10.207031 7.5 10.207031 C 6.003906 10.207031 4.792969 8.996094 4.792969 7.5 C 4.792969 6.003906 6.003906 4.792969 7.5 4.792969 C 8.996094 4.792969 10.207031 6.003906 10.207031 7.5 Z M 10.207031 7.5 "/>
<path style=" stroke:none;fill-rule:nonzero;fill:rgb(90.588235%,0%,7.45098%);fill-opacity:1;" d="M 6.417969 7.5 C 6.417969 6.601562 7.144531 5.875 8.042969 5.875 C 8.464844 5.875 8.851562 6.039062 9.140625 6.304688 C 8.773438 5.796875 8.175781 5.46875 7.5 5.46875 C 6.378906 5.46875 5.46875 6.378906 5.46875 7.5 C 5.46875 8.621094 6.378906 9.53125 7.5 9.53125 C 8.175781 9.53125 8.773438 9.203125 9.140625 8.695312 C 8.851562 8.960938 8.464844 9.125 8.042969 9.125 C 7.144531 9.125 6.417969 8.398438 6.417969 7.5 Z M 6.417969 7.5 "/>
<path style=" stroke:none;fill-rule:nonzero;fill:rgb(90.588235%,0%,7.45098%);fill-opacity:1;" d="M 8.183594 7.058594 L 7.664062 6.339844 L 7.664062 7.226562 L 6.824219 7.5 L 7.664062 7.773438 L 7.664062 8.660156 L 8.183594 7.941406 L 9.027344 8.214844 L 8.507812 7.5 L 9.027344 6.785156 Z M 8.183594 7.058594 "/>
</g>
</svg>
