<?xml version="1.0" encoding="UTF-8"?>
<svg xmlns="http://www.w3.org/2000/svg" xmlns:xlink="http://www.w3.org/1999/xlink" width="15pt" height="15pt" viewBox="0 0 15 15" version="1.1">
<g id="surface1">
<path style=" stroke:none;fill-rule:nonzero;fill:rgb(100%,71.764706%,0%);fill-opacity:1;" d="M 15 11.25 C 15 12.171875 14.253906 12.917969 13.332031 12.917969 L 1.667969 12.917969 C 0.746094 12.917969 0 12.171875 0 11.25 L 0 3.75 C 0 2.828125 0.746094 2.082031 1.667969 2.082031 L 13.332031 2.082031 C 14.253906 2.082031 15 2.828125 15 3.75 Z M 15 11.25 "/>
<path style=" stroke:none;fill-rule:nonzero;fill:rgb(55.294118%,12.941176%,16.078431%);fill-opacity:1;" d="M 13.332031 2.5 L 4.167969 2.5 L 4.167969 12.5 L 13.332031 12.5 C 14.023438 12.5 14.582031 11.9375 14.582031 11.25 L 14.582031 3.75 C 14.582031 3.0625 14.023438 2.5 13.332031 2.5 Z M 13.332031 2.5 "/>
<path style=" stroke:none;fill-rule:nonzero;fill:rgb(0%,33.72549%,25.490196%);fill-opacity:1;" d="M 1.667969 2.5 C 0.976562 2.5 0.417969 3.0625 0.417969 3.75 L 0.417969 11.25 C 0.417969 11.9375 0.976562 12.5 1.667969 12.5 L 2.082031 12.5 L 2.082031 2.5 Z M 1.667969 2.5 "/>
<path style=" stroke:none;fill-rule:nonzero;fill:rgb(100%,35.686275%,0%);fill-opacity:1;" d="M 2.082031 2.5 L 3.75 2.5 L 3.75 12.5 L 2.082031 12.5 Z M 2.082031 2.5 "/>
<path style=" stroke:none;fill-rule:nonzero;fill:rgb(100%,71.764706%,0%);fill-opacity:1;" d="M 5.5 4.191406 C 5.5 4.191406 5.472656 3.792969 5.484375 3.457031 C 5.492188 3.238281 5.371094 2.96875 5.136719 3.007812 C 4.902344 3.046875 4.640625 3 4.640625 3 C 4.640625 3 4.691406 3.152344 4.640625 3.292969 C 4.589844 3.4375 4.589844 3.734375 4.941406 3.777344 C 5.292969 3.816406 5.433594 3.996094 5.5 4.191406 Z M 13.285156 4.191406 C 13.285156 4.191406 13.3125 3.792969 13.300781 3.457031 C 13.289062 3.238281 13.414062 2.96875 13.648438 3.007812 C 13.882812 3.046875 14.144531 3 14.144531 3 C 14.144531 3 14.09375 3.152344 14.144531 3.292969 C 14.195312 3.4375 14.195312 3.734375 13.84375 3.777344 C 13.492188 3.816406 13.347656 3.996094 13.285156 4.191406 Z M 5.5 10.808594 C 5.5 10.808594 5.472656 11.207031 5.484375 11.542969 C 5.492188 11.765625 5.371094 12.03125 5.136719 11.992188 C 4.902344 11.953125 4.640625 12 4.640625 12 C 4.640625 12 4.691406 11.847656 4.640625 11.707031 C 4.589844 11.5625 4.589844 11.261719 4.941406 11.222656 C 5.292969 11.183594 5.433594 11.003906 5.5 10.808594 Z M 13.285156 10.808594 C 13.285156 10.808594 13.3125 11.207031 13.300781 11.542969 C 13.289062 11.765625 13.414062 12.03125 13.648438 11.992188 C 13.882812 11.953125 14.144531 12 14.144531 12 C 14.144531 12 14.09375 11.847656 14.144531 11.707031 C 14.195312 11.5625 14.195312 11.261719 13.84375 11.222656 C 13.492188 11.183594 13.347656 11.003906 13.285156 10.808594 Z M 7.667969 5.574219 C 7.667969 5.574219 7.917969 5.558594 8.164062 5.496094 C 8.410156 5.429688 8.332031 5.195312 8.332031 5.195312 C 8.332031 5.195312 8.554688 5.078125 8.683594 5.195312 C 8.816406 5.3125 8.972656 5.300781 8.894531 5.144531 C 9.128906 5.027344 9.230469 5.285156 9.230469 5.285156 C 9.230469 5.285156 9.347656 5.214844 9.375 5.113281 C 9.582031 5.089844 9.621094 5.300781 9.753906 5.273438 C 9.882812 5.246094 9.972656 5.109375 9.972656 5.109375 C 9.972656 5.109375 10 5.480469 9.777344 5.574219 C 9.960938 5.808594 9.910156 6.261719 9.910156 6.378906 L 9.777344 6.300781 C 9.777344 6.300781 9.855469 6.667969 9.894531 6.71875 C 9.933594 6.769531 9.765625 6.71875 9.765625 6.71875 C 9.765625 6.71875 9.855469 6.964844 9.921875 7.003906 C 9.988281 7.042969 11.210938 6.925781 11.5625 6.925781 C 11.914062 6.925781 12.394531 6.875 12.394531 6.5625 C 12.394531 6.25 11.992188 6.277344 11.535156 6.339844 C 11.082031 6.40625 10.78125 6.394531 10.597656 6.277344 C 10.417969 6.160156 10.207031 6.128906 10.226562 6.421875 C 9.949219 6.292969 10.148438 6.015625 10.148438 6.015625 C 10.148438 6.015625 9.832031 5.667969 10.03125 5.320312 C 10.234375 4.972656 11.015625 4.871094 11.5625 5.171875 C 12.109375 5.476562 12.328125 5.730469 12.550781 5.773438 C 12.542969 5.609375 12.820312 5.488281 12.855469 5.789062 C 12.890625 6.09375 12.507812 6.035156 12.34375 5.9375 C 12.179688 5.84375 11.882812 5.554688 11.882812 5.554688 C 11.882812 5.554688 11.875 5.730469 11.988281 5.84375 C 11.675781 5.808594 11.605469 5.574219 11.605469 5.574219 C 11.605469 5.574219 11.589844 5.824219 11.300781 5.832031 C 11.511719 5.589844 11.441406 5.390625 11.15625 5.285156 C 11.320312 5.539062 11.164062 5.753906 10.921875 5.789062 C 11.085938 5.554688 10.945312 5.285156 10.644531 5.234375 C 10.6875 5.425781 10.539062 5.476562 10.539062 5.476562 C 10.539062 5.476562 10.46875 5.304688 10.332031 5.398438 C 10.191406 5.496094 10.15625 5.703125 10.339844 5.832031 C 10.453125 5.609375 10.675781 5.625 10.753906 5.71875 C 10.519531 5.746094 10.53125 5.964844 10.617188 6.078125 C 10.703125 5.929688 10.789062 5.886719 10.875 6.042969 C 10.964844 6.199219 11.222656 6.1875 11.691406 6.121094 C 12.160156 6.050781 12.59375 6.101562 12.664062 6.519531 C 12.726562 6.875 12.371094 7.046875 12.371094 7.046875 C 12.371094 7.046875 12.828125 7.394531 12.535156 8.152344 C 12.238281 8.90625 12.359375 9.21875 12.472656 9.296875 C 12.585938 9.375 12.761719 9.382812 12.527344 9.59375 C 12.292969 9.800781 12.351562 9.949219 12.449219 10.070312 C 12.542969 10.191406 12.515625 10.3125 12.238281 10.15625 C 12.117188 10.277344 11.996094 10.242188 11.925781 10.140625 C 11.855469 10.234375 11.726562 10.261719 11.640625 10.15625 C 11.554688 10.226562 11.441406 10.226562 11.5 10.078125 C 11.5625 9.929688 11.855469 9.871094 11.945312 9.84375 C 12.03125 9.816406 12.023438 9.660156 11.996094 9.488281 C 11.96875 9.316406 11.820312 9.132812 11.507812 8.96875 C 11.371094 9.070312 11.386719 9.191406 11.441406 9.253906 C 11.492188 9.316406 11.65625 9.332031 11.664062 9.382812 C 11.675781 9.433594 11.578125 9.546875 11.476562 9.628906 C 11.371094 9.707031 11.386719 9.84375 11.421875 9.914062 C 11.457031 9.984375 11.5 10.152344 11.386719 10.234375 C 11.273438 10.3125 11.164062 10.128906 11.164062 10.128906 C 11.164062 10.128906 11.09375 10.347656 10.894531 10.140625 C 10.78125 10.277344 10.667969 10.226562 10.617188 10.148438 C 10.503906 10.261719 10.328125 10.253906 10.417969 10.097656 C 10.503906 9.941406 10.605469 9.941406 10.730469 9.929688 C 10.851562 9.921875 11.015625 9.898438 10.996094 9.652344 C 10.980469 9.410156 10.933594 9.164062 10.765625 9.011719 C 10.503906 8.777344 10.546875 8.5 10.546875 8.5 C 10.546875 8.5 10.113281 8.457031 9.773438 8.691406 C 9.4375 8.925781 9.175781 8.925781 9.175781 8.925781 C 9.175781 8.925781 8.984375 9.132812 8.964844 9.261719 C 8.949219 9.394531 9.027344 9.4375 9.132812 9.472656 C 9.234375 9.503906 9.3125 9.496094 9.15625 9.636719 C 9 9.777344 8.871094 9.765625 8.871094 9.765625 C 8.871094 9.765625 8.863281 9.914062 8.878906 10 C 8.898438 10.085938 8.84375 10.238281 8.757812 10.253906 C 8.671875 10.269531 8.542969 10.15625 8.542969 10.15625 C 8.542969 10.15625 8.375 10.328125 8.246094 10.148438 C 8.097656 10.285156 7.96875 10.234375 7.917969 10.148438 C 7.828125 10.285156 7.691406 10.226562 7.777344 10.070312 C 7.863281 9.914062 7.984375 9.894531 8.195312 9.902344 C 8.402344 9.914062 8.574219 9.746094 8.496094 9.53125 C 8.421875 9.3125 8.351562 9.019531 8.351562 9.019531 C 8.351562 9.019531 8.183594 9 7.941406 8.863281 C 7.640625 9.226562 7.535156 9.097656 7.449219 9.027344 C 7.359375 8.957031 7.152344 8.765625 7.152344 8.765625 C 7.152344 8.765625 7.039062 8.757812 7.058594 8.863281 C 6.933594 8.855469 6.980469 8.664062 6.980469 8.566406 C 6.980469 8.472656 6.945312 8.359375 6.875 8.359375 C 6.804688 8.359375 6.699219 8.375 6.699219 8.375 C 6.699219 8.375 6.699219 8.410156 6.804688 8.445312 C 6.910156 8.480469 6.902344 8.550781 6.796875 8.558594 C 6.691406 8.566406 6.621094 8.59375 6.699219 8.652344 C 6.777344 8.714844 6.789062 8.75 6.726562 8.808594 C 6.664062 8.871094 6.675781 9.035156 6.777344 9.097656 C 6.847656 8.933594 6.976562 9.027344 6.953125 9.140625 C 6.925781 9.253906 6.734375 9.234375 6.734375 9.234375 L 6.867188 9.382812 L 6.667969 9.425781 C 6.667969 9.425781 6.65625 9.546875 6.578125 9.574219 C 6.5 9.601562 6.484375 9.390625 6.484375 9.390625 L 6.300781 9.382812 L 6.421875 9.234375 C 6.421875 9.234375 6.25 9.175781 6.242188 9.070312 C 6.230469 8.964844 6.371094 9.019531 6.398438 9.070312 C 6.535156 9.007812 6.492188 8.871094 6.441406 8.820312 C 6.386719 8.765625 6.421875 8.722656 6.472656 8.664062 C 6.527344 8.601562 6.519531 8.566406 6.441406 8.585938 C 6.363281 8.601562 6.230469 8.445312 6.363281 8.445312 C 6.492188 8.445312 6.519531 8.4375 6.5 8.339844 C 6.34375 8.324219 6.441406 8.203125 6.441406 8.203125 C 6.441406 8.203125 6.316406 8.113281 6.40625 8.054688 C 6.328125 7.984375 6.308594 7.871094 6.394531 7.855469 C 6.34375 7.8125 6.414062 7.734375 6.414062 7.734375 C 6.414062 7.734375 6.164062 7.691406 6.164062 7.5 C 6.164062 7.308594 6.378906 7.34375 6.378906 7.34375 C 6.378906 7.34375 6.355469 6.734375 6.414062 5.886719 C 6.476562 5.035156 6.832031 4.738281 7.046875 4.652344 C 6.824219 5.128906 6.847656 5.9375 6.847656 6.433594 C 6.847656 6.925781 6.839844 7.316406 6.839844 7.316406 C 6.839844 7.316406 7.082031 7.335938 7.066406 7.5 C 7.046875 7.664062 6.9375 7.699219 6.9375 7.699219 L 7.5 8.265625 C 7.5 8.265625 7.472656 7.683594 7.664062 7.453125 C 7.855469 7.222656 8.152344 7.003906 8.238281 6.9375 C 8.324219 6.867188 8.183594 6.683594 8.117188 6.882812 C 8.019531 6.871094 7.933594 6.710938 7.933594 6.710938 C 7.933594 6.710938 7.941406 6.769531 7.882812 6.8125 C 7.820312 6.859375 7.839844 6.667969 7.804688 6.683594 C 7.769531 6.703125 7.671875 6.753906 7.550781 6.789062 C 7.5625 6.71875 7.613281 6.632812 7.613281 6.632812 C 7.613281 6.632812 7.457031 6.648438 7.316406 6.667969 C 7.316406 6.546875 7.394531 6.34375 7.464844 6.328125 C 7.292969 6.242188 7.335938 6.078125 7.414062 6.101562 C 7.492188 6.128906 7.855469 6.34375 8.265625 6.371094 C 8.132812 6.222656 8.03125 6.035156 8.03125 6.035156 L 7.984375 6.179688 L 7.828125 6.035156 L 7.8125 6.179688 C 7.8125 6.179688 7.429688 5.902344 7.359375 5.675781 C 7.292969 5.453125 7.371094 5.285156 7.5 5.304688 C 7.75 5.339844 7.667969 5.574219 7.667969 5.574219 Z M 7.667969 5.574219 "/>
</g>
</svg>
