<?xml version="1.0" encoding="UTF-8"?>
<svg xmlns="http://www.w3.org/2000/svg" xmlns:xlink="http://www.w3.org/1999/xlink" width="15pt" height="15pt" viewBox="0 0 15 15" version="1.1">
<g id="surface1">
<path style=" stroke:none;fill-rule:nonzero;fill:rgb(5.882353%,27.843137%,68.627451%);fill-opacity:1;" d="M 15 11.25 C 15 12.171875 14.253906 12.917969 13.332031 12.917969 L 1.667969 12.917969 C 0.746094 12.917969 0 12.171875 0 11.25 L 0 3.75 C 0 2.828125 0.746094 2.082031 1.667969 2.082031 L 13.332031 2.082031 C 14.253906 2.082031 15 2.828125 15 3.75 Z M 15 11.25 "/>
<path style=" stroke:none;fill-rule:nonzero;fill:rgb(93.333333%,93.333333%,93.333333%);fill-opacity:1;" d="M 0 5.417969 L 15 5.417969 L 15 9.582031 L 0 9.582031 Z M 0 5.417969 "/>
<path style=" stroke:none;fill-rule:nonzero;fill:rgb(12.156863%,37.647059%,10.196078%);fill-opacity:1;" d="M 7.277344 8.875 C 7.378906 8.554688 7.023438 8.496094 7.023438 8.496094 C 7.023438 8.496094 7.046875 8.679688 6.832031 8.683594 C 6.90625 8.828125 6.839844 8.945312 6.75 8.953125 C 6.898438 9.089844 7.210938 9.074219 7.277344 8.875 Z M 6.746094 8.679688 C 6.945312 8.441406 6.65625 8.265625 6.65625 8.265625 C 6.65625 8.265625 6.613281 8.433594 6.425781 8.367188 C 6.441406 8.515625 6.34375 8.59375 6.261719 8.570312 C 6.347656 8.738281 6.621094 8.835938 6.746094 8.679688 Z M 6.375 8.347656 C 6.609375 8.222656 6.4375 7.992188 6.4375 7.992188 C 6.4375 7.992188 6.351562 8.109375 6.222656 7.996094 C 6.1875 8.117188 6.085938 8.148438 6.027344 8.101562 C 6.039062 8.265625 6.222656 8.429688 6.375 8.347656 Z M 6.230469 7.929688 C 6.476562 7.878906 6.382812 7.621094 6.382812 7.621094 C 6.382812 7.621094 6.273438 7.707031 6.191406 7.570312 C 6.121094 7.667969 6.019531 7.667969 5.984375 7.613281 C 5.949219 7.761719 6.074219 7.960938 6.230469 7.929688 Z M 6.171875 7.570312 C 6.398438 7.566406 6.359375 7.324219 6.359375 7.324219 C 6.359375 7.324219 6.25 7.378906 6.199219 7.242188 C 6.121094 7.320312 6.03125 7.300781 6.007812 7.246094 C 5.953125 7.371094 6.027344 7.570312 6.171875 7.570312 Z M 6.226562 7.226562 C 6.402344 7.285156 6.429688 7.058594 6.429688 7.058594 C 6.429688 7.058594 6.328125 7.078125 6.324219 6.941406 C 6.246094 6.988281 6.179688 6.949219 6.175781 6.894531 C 6.101562 6.988281 6.113281 7.1875 6.226562 7.226562 Z M 6.359375 6.941406 C 6.449219 6.992188 6.546875 6.820312 6.546875 6.820312 C 6.546875 6.820312 6.472656 6.792969 6.492188 6.667969 C 6.421875 6.699219 6.375 6.679688 6.382812 6.625 C 6.308594 6.703125 6.277344 6.890625 6.359375 6.941406 Z M 7.660156 8.875 C 7.558594 8.554688 7.914062 8.496094 7.914062 8.496094 C 7.914062 8.496094 7.886719 8.679688 8.101562 8.683594 C 8.03125 8.828125 8.09375 8.945312 8.1875 8.953125 C 8.035156 9.089844 7.722656 9.074219 7.660156 8.875 Z M 8.1875 8.679688 C 7.992188 8.441406 8.28125 8.265625 8.28125 8.265625 C 8.28125 8.265625 8.320312 8.433594 8.507812 8.367188 C 8.496094 8.515625 8.589844 8.59375 8.671875 8.570312 C 8.589844 8.738281 8.3125 8.835938 8.1875 8.679688 Z M 8.5625 8.347656 C 8.328125 8.222656 8.5 7.992188 8.5 7.992188 C 8.5 7.992188 8.585938 8.109375 8.710938 7.996094 C 8.75 8.117188 8.851562 8.148438 8.90625 8.101562 C 8.898438 8.265625 8.710938 8.429688 8.5625 8.347656 Z M 8.707031 7.929688 C 8.457031 7.878906 8.550781 7.621094 8.550781 7.621094 C 8.550781 7.621094 8.660156 7.707031 8.746094 7.570312 C 8.8125 7.667969 8.914062 7.667969 8.953125 7.613281 C 8.988281 7.761719 8.863281 7.960938 8.707031 7.929688 Z M 8.765625 7.570312 C 8.535156 7.566406 8.574219 7.324219 8.574219 7.324219 C 8.574219 7.324219 8.6875 7.378906 8.738281 7.242188 C 8.8125 7.320312 8.902344 7.300781 8.925781 7.246094 C 8.984375 7.371094 8.90625 7.570312 8.765625 7.570312 Z M 8.710938 7.226562 C 8.53125 7.285156 8.503906 7.058594 8.503906 7.058594 C 8.503906 7.058594 8.605469 7.078125 8.613281 6.941406 C 8.691406 6.988281 8.753906 6.949219 8.761719 6.894531 C 8.835938 6.988281 8.824219 7.1875 8.710938 7.226562 Z M 8.574219 6.941406 C 8.484375 6.992188 8.386719 6.820312 8.386719 6.820312 C 8.386719 6.820312 8.464844 6.792969 8.445312 6.667969 C 8.511719 6.699219 8.558594 6.679688 8.550781 6.625 C 8.625 6.703125 8.65625 6.890625 8.574219 6.941406 Z M 8.574219 6.941406 "/>
<path style=" stroke:none;fill-rule:nonzero;fill:rgb(2.352941%,12.54902%,62.352941%);fill-opacity:1;" d="M 7.628906 8.875 C 7.628906 8.96875 7.554688 9.042969 7.460938 9.042969 C 7.367188 9.042969 7.292969 8.96875 7.292969 8.875 C 7.292969 8.785156 7.367188 8.707031 7.460938 8.707031 C 7.554688 8.707031 7.628906 8.785156 7.628906 8.875 Z M 7.628906 8.875 "/>
<path style=" stroke:none;fill-rule:nonzero;fill:rgb(2.352941%,12.54902%,62.352941%);fill-opacity:1;" d="M 7.425781 7.40625 L 6.652344 6.574219 C 6.652344 6.574219 6.519531 7.53125 6.898438 7.785156 C 7.277344 8.039062 7.425781 7.40625 7.425781 7.40625 Z M 7.425781 7.40625 "/>
<path style=" stroke:none;fill-rule:nonzero;fill:rgb(100%,100%,100%);fill-opacity:1;" d="M 7.023438 6.972656 L 6.851562 6.789062 C 6.851562 6.789062 6.761719 7.53125 7.140625 7.785156 C 6.957031 7.414062 7.023438 6.972656 7.023438 6.972656 Z M 7.023438 6.972656 "/>
<path style=" stroke:none;fill-rule:nonzero;fill:rgb(2.352941%,12.54902%,62.352941%);fill-opacity:1;" d="M 7.425781 7.75 L 6.363281 7.148438 C 6.363281 7.148438 6.3125 7.765625 6.496094 8.066406 C 6.683594 8.367188 7.367188 8.386719 7.460938 8.09375 C 7.554688 7.800781 7.425781 7.75 7.425781 7.75 Z M 7.425781 7.75 "/>
<path style=" stroke:none;fill-rule:nonzero;fill:rgb(100%,100%,100%);fill-opacity:1;" d="M 6.746094 7.367188 L 6.546875 7.253906 C 6.546875 7.253906 6.429688 8.496094 7.371094 8.210938 C 6.75 8.183594 6.746094 7.367188 6.746094 7.367188 Z M 6.746094 7.367188 "/>
<path style=" stroke:none;fill-rule:nonzero;fill:rgb(2.352941%,12.54902%,62.352941%);fill-opacity:1;" d="M 7.496094 7.40625 L 8.269531 6.574219 C 8.269531 6.574219 8.398438 7.53125 8.023438 7.785156 C 7.644531 8.039062 7.496094 7.40625 7.496094 7.40625 Z M 7.496094 7.40625 "/>
<path style=" stroke:none;fill-rule:nonzero;fill:rgb(100%,100%,100%);fill-opacity:1;" d="M 7.898438 6.972656 L 8.070312 6.789062 C 8.070312 6.789062 8.160156 7.53125 7.78125 7.785156 C 7.964844 7.414062 7.898438 6.972656 7.898438 6.972656 Z M 7.898438 6.972656 "/>
<path style=" stroke:none;fill-rule:nonzero;fill:rgb(2.352941%,12.54902%,62.352941%);fill-opacity:1;" d="M 7.496094 7.75 L 8.558594 7.148438 C 8.558594 7.148438 8.609375 7.765625 8.421875 8.066406 C 8.238281 8.367188 7.554688 8.386719 7.460938 8.09375 C 7.367188 7.800781 7.496094 7.75 7.496094 7.75 Z M 7.496094 7.75 "/>
<path style=" stroke:none;fill-rule:nonzero;fill:rgb(100%,100%,100%);fill-opacity:1;" d="M 8.171875 7.367188 L 8.371094 7.253906 C 8.371094 7.253906 8.492188 8.496094 7.546875 8.210938 C 8.171875 8.183594 8.171875 7.367188 8.171875 7.367188 Z M 8.171875 7.367188 "/>
<path style=" stroke:none;fill-rule:nonzero;fill:rgb(100%,80%,0.392157%);fill-opacity:1;" d="M 7.425781 6.375 L 6.394531 8.152344 L 8.457031 8.152344 Z M 7.425781 6.375 "/>
<path style=" stroke:none;fill-rule:nonzero;fill:rgb(100%,100%,100%);fill-opacity:1;" d="M 6.539062 8.066406 L 7.425781 6.539062 L 8.3125 8.066406 Z M 6.539062 8.066406 "/>
<path style=" stroke:none;fill-rule:nonzero;fill:rgb(0.392157%,49.411765%,57.647059%);fill-opacity:1;" d="M 6.792969 7.628906 L 6.539062 8.066406 L 8.3125 8.066406 L 8.058594 7.628906 Z M 6.792969 7.628906 "/>
<path style=" stroke:none;fill-rule:nonzero;fill:rgb(100%,80%,0.392157%);fill-opacity:1;" d="M 6.710938 7.847656 C 6.710938 7.847656 6.996094 7.441406 7.105469 7.441406 C 7.21875 7.441406 7.269531 7.566406 7.269531 7.566406 C 7.269531 7.566406 7.3125 7.5 7.371094 7.5 C 7.433594 7.5 7.460938 7.570312 7.460938 7.570312 C 7.460938 7.570312 7.503906 7.5 7.53125 7.515625 C 7.554688 7.527344 7.640625 7.628906 7.640625 7.628906 C 7.640625 7.628906 7.667969 7.585938 7.726562 7.570312 C 7.785156 7.550781 7.824219 7.628906 7.824219 7.628906 C 7.824219 7.628906 7.878906 7.507812 7.894531 7.570312 C 7.90625 7.628906 8.121094 7.847656 8.121094 7.847656 Z M 6.710938 7.847656 "/>
<path style=" stroke:none;fill-rule:nonzero;fill:rgb(90.196078%,0%,0%);fill-opacity:1;" d="M 7.53125 7.183594 C 7.53125 7.226562 7.496094 7.261719 7.453125 7.261719 C 7.40625 7.261719 7.371094 7.226562 7.371094 7.183594 C 7.371094 7.136719 7.40625 7.101562 7.453125 7.101562 C 7.496094 7.101562 7.53125 7.136719 7.53125 7.183594 Z M 7.53125 7.183594 "/>
<path style=" stroke:none;fill-rule:nonzero;fill:rgb(100%,80%,0.392157%);fill-opacity:1;" d="M 5.835938 6.765625 C 5.726562 6.976562 5.660156 7.207031 5.644531 7.453125 L 5.851562 7.460938 C 5.867188 7.242188 5.925781 7.039062 6.023438 6.855469 Z M 7.816406 5.992188 C 8.078125 6.046875 8.316406 6.171875 8.515625 6.335938 L 8.660156 6.1875 C 8.429688 5.996094 8.160156 5.851562 7.859375 5.789062 Z M 8.832031 6.671875 C 9.011719 6.933594 9.117188 7.253906 9.117188 7.597656 C 9.117188 7.660156 9.105469 7.71875 9.097656 7.78125 L 9.304688 7.816406 C 9.3125 7.746094 9.328125 7.671875 9.328125 7.597656 C 9.328125 7.210938 9.207031 6.851562 9.003906 6.558594 Z M 6.757812 9.066406 C 6.265625 8.824219 5.917969 8.34375 5.855469 7.777344 L 5.648438 7.796875 C 5.71875 8.441406 6.117188 8.984375 6.671875 9.257812 Z M 6.203125 6.578125 C 6.503906 6.203125 6.960938 5.957031 7.476562 5.957031 C 7.488281 5.957031 7.5 5.960938 7.507812 5.960938 L 7.523438 5.753906 C 7.507812 5.753906 7.492188 5.75 7.476562 5.75 C 6.890625 5.75 6.371094 6.027344 6.03125 6.457031 Z M 9.035156 8.085938 C 8.898438 8.523438 8.585938 8.882812 8.175781 9.078125 L 8.257812 9.269531 C 8.722656 9.050781 9.078125 8.648438 9.234375 8.152344 Z M 9.035156 8.085938 "/>
</g>
</svg>
