<?xml version="1.0" encoding="UTF-8"?>
<svg xmlns="http://www.w3.org/2000/svg" xmlns:xlink="http://www.w3.org/1999/xlink" width="15pt" height="15pt" viewBox="0 0 15 15" version="1.1">
<g id="surface1">
<path style=" stroke:none;fill-rule:nonzero;fill:rgb(93.333333%,93.333333%,93.333333%);fill-opacity:1;" d="M 0 5.417969 L 15 5.417969 L 15 9.582031 L 0 9.582031 Z M 0 5.417969 "/>
<path style=" stroke:none;fill-rule:nonzero;fill:rgb(87.843137%,32.156863%,2.352941%);fill-opacity:1;" d="M 13.332031 2.082031 L 1.667969 2.082031 C 0.746094 2.082031 0 2.828125 0 3.75 L 0 5.417969 L 15 5.417969 L 15 3.75 C 15 2.828125 14.253906 2.082031 13.332031 2.082031 Z M 13.332031 2.082031 "/>
<path style=" stroke:none;fill-rule:nonzero;fill:rgb(87.843137%,32.156863%,2.352941%);fill-opacity:1;" d="M 9.167969 7.5 C 9.167969 8.421875 8.421875 9.167969 7.5 9.167969 C 6.578125 9.167969 5.832031 8.421875 5.832031 7.5 C 5.832031 6.578125 6.578125 5.832031 7.5 5.832031 C 8.421875 5.832031 9.167969 6.578125 9.167969 7.5 Z M 9.167969 7.5 "/>
<path style=" stroke:none;fill-rule:nonzero;fill:rgb(5.098039%,69.019608%,16.862745%);fill-opacity:1;" d="M 13.332031 12.917969 L 1.667969 12.917969 C 0.746094 12.917969 0 12.171875 0 11.25 L 0 9.582031 L 15 9.582031 L 15 11.25 C 15 12.171875 14.253906 12.917969 13.332031 12.917969 Z M 13.332031 12.917969 "/>
</g>
</svg>
