<?xml version="1.0" encoding="UTF-8"?>
<svg xmlns="http://www.w3.org/2000/svg" xmlns:xlink="http://www.w3.org/1999/xlink" width="15pt" height="15pt" viewBox="0 0 15 15" version="1.1">
<g id="surface1">
<path style=" stroke:none;fill-rule:nonzero;fill:rgb(91.764706%,4.313725%,9.803922%);fill-opacity:1;" d="M 13.332031 2.082031 L 1.667969 2.082031 C 1.246094 2.082031 0.863281 2.238281 0.570312 2.496094 L 2.882812 4.167969 L 15 4.167969 L 15 3.75 C 15 2.828125 14.253906 2.082031 13.332031 2.082031 Z M 13.332031 2.082031 "/>
<path style=" stroke:none;fill-rule:nonzero;fill:rgb(93.333333%,93.333333%,93.333333%);fill-opacity:1;" d="M 5.769531 6.25 L 15 6.25 L 15 4.167969 L 2.882812 4.167969 Z M 5.769531 6.25 "/>
<path style=" stroke:none;fill-rule:nonzero;fill:rgb(91.764706%,4.313725%,9.803922%);fill-opacity:1;" d="M 7.5 7.5 L 5.769531 8.75 L 15 8.75 L 15 6.25 L 5.769531 6.25 Z M 7.5 7.5 "/>
<path style=" stroke:none;fill-rule:nonzero;fill:rgb(93.333333%,93.333333%,93.333333%);fill-opacity:1;" d="M 2.882812 10.832031 L 15 10.832031 L 15 8.75 L 5.769531 8.75 Z M 2.882812 10.832031 "/>
<path style=" stroke:none;fill-rule:nonzero;fill:rgb(91.764706%,4.313725%,9.803922%);fill-opacity:1;" d="M 0.570312 12.503906 C 0.863281 12.761719 1.246094 12.917969 1.667969 12.917969 L 13.332031 12.917969 C 14.253906 12.917969 15 12.171875 15 11.25 L 15 10.832031 L 2.882812 10.832031 Z M 0.570312 12.503906 "/>
<path style=" stroke:none;fill-rule:nonzero;fill:rgb(5.882353%,33.333333%,92.54902%);fill-opacity:1;" d="M 5.769531 8.75 L 7.5 7.5 L 5.769531 6.25 L 2.882812 4.167969 L 0.570312 2.496094 C 0.222656 2.800781 0 3.25 0 3.75 L 0 11.25 C 0 11.75 0.222656 12.199219 0.570312 12.503906 L 2.882812 10.832031 Z M 5.769531 8.75 "/>
<path style=" stroke:none;fill-rule:nonzero;fill:rgb(100%,100%,100%);fill-opacity:1;" d="M 3.410156 7.847656 L 4.375 7.152344 L 3.183594 7.152344 L 2.8125 6.015625 L 2.441406 7.152344 L 1.25 7.152344 L 2.214844 7.851562 L 1.84375 8.984375 L 2.8125 8.28125 L 3.78125 8.984375 Z M 3.410156 7.847656 "/>
</g>
</svg>
