<?xml version="1.0" encoding="UTF-8"?>
<svg xmlns="http://www.w3.org/2000/svg" xmlns:xlink="http://www.w3.org/1999/xlink" width="15pt" height="15pt" viewBox="0 0 15 15" version="1.1">
<g id="surface1">
<path style=" stroke:none;fill-rule:nonzero;fill:rgb(23.137255%,53.333333%,76.470588%);fill-opacity:1;" d="M 15 13.332031 C 15 14.253906 14.253906 15 13.332031 15 L 1.667969 15 C 0.746094 15 0 14.253906 0 13.332031 L 0 1.667969 C 0 0.746094 0.746094 0 1.667969 0 L 13.332031 0 C 14.253906 0 15 0.746094 15 1.667969 Z M 15 13.332031 "/>
<path style=" stroke:none;fill-rule:nonzero;fill:rgb(100%,100%,100%);fill-opacity:1;" d="M 3.332031 3.816406 C 3.332031 3.167969 3.820312 2.808594 4.375 2.808594 C 4.929688 2.808594 5.417969 3.167969 5.417969 3.816406 L 5.417969 8.324219 C 5.417969 9.511719 6.273438 10.375 7.5 10.375 C 8.675781 10.375 9.582031 9.460938 9.582031 8.324219 L 9.582031 3.816406 C 9.582031 3.167969 10.070312 2.808594 10.625 2.808594 C 11.179688 2.808594 11.652344 3.167969 11.652344 3.816406 L 11.652344 8.425781 C 11.652344 10.597656 9.632812 12.238281 7.5 12.238281 C 5.34375 12.238281 3.332031 10.625 3.332031 8.425781 Z M 3.332031 3.816406 "/>
</g>
</svg>
