<?xml version="1.0" encoding="UTF-8"?>
<svg xmlns="http://www.w3.org/2000/svg" xmlns:xlink="http://www.w3.org/1999/xlink" width="15pt" height="15pt" viewBox="0 0 15 15" version="1.1">
<g id="surface1">
<path style=" stroke:none;fill-rule:nonzero;fill:rgb(20%,40%,100%);fill-opacity:1;" d="M 13.332031 2.082031 L 1.667969 2.082031 C 0.746094 2.082031 0 2.828125 0 3.75 L 0 11.25 C 0 12.171875 0.746094 12.917969 1.667969 12.917969 L 13.332031 12.917969 C 14.253906 12.917969 15 12.171875 15 11.25 L 15 3.75 C 15 2.828125 14.253906 2.082031 13.332031 2.082031 Z M 13.332031 2.082031 "/>
<path style=" stroke:none;fill-rule:nonzero;fill:rgb(100%,0%,0%);fill-opacity:1;" d="M 7.5 7.5 L 0.570312 12.503906 C 0.863281 12.761719 1.246094 12.917969 1.667969 12.917969 L 13.332031 12.917969 C 13.753906 12.917969 14.136719 12.761719 14.429688 12.503906 Z M 7.5 7.5 "/>
<path style=" stroke:none;fill-rule:nonzero;fill:rgb(100%,100%,0%);fill-opacity:1;" d="M 7.5 7.507812 L 15 8.128906 L 15 6.886719 Z M 0 6.886719 L 0 8.128906 L 7.5 7.507812 Z M 1.003906 2.222656 C 0.636719 2.378906 0.339844 2.664062 0.167969 3.019531 L 7.5 7.5 Z M 14.832031 3.019531 C 14.65625 2.664062 14.359375 2.378906 13.996094 2.222656 L 7.5 7.5 Z M 8.125 2.082031 L 6.875 2.082031 L 7.5 7.5 Z M 8.125 2.082031 "/>
</g>
</svg>
