<?xml version="1.0" encoding="UTF-8"?>
<svg xmlns="http://www.w3.org/2000/svg" xmlns:xlink="http://www.w3.org/1999/xlink" width="15pt" height="15pt" viewBox="0 0 15 15" version="1.1">
<g id="surface1">
<path style=" stroke:none;fill-rule:nonzero;fill:rgb(0%,21.960784%,65.882353%);fill-opacity:1;" d="M 0 11.25 C 0 12.171875 0.746094 12.917969 1.667969 12.917969 L 13.332031 12.917969 C 14.253906 12.917969 15 12.171875 15 11.25 L 15 9.582031 L 0 9.582031 Z M 0 11.25 "/>
<path style=" stroke:none;fill-rule:nonzero;fill:rgb(93.333333%,93.333333%,93.333333%);fill-opacity:1;" d="M 0 5.417969 L 15 5.417969 L 15 9.582031 L 0 9.582031 Z M 0 5.417969 "/>
<path style=" stroke:none;fill-rule:nonzero;fill:rgb(83.529412%,16.862745%,11.764706%);fill-opacity:1;" d="M 13.332031 2.082031 L 1.667969 2.082031 C 0.746094 2.082031 0 2.828125 0 3.75 L 0 5.417969 L 15 5.417969 L 15 3.75 C 15 2.828125 14.253906 2.082031 13.332031 2.082031 Z M 13.332031 2.082031 "/>
<path style=" stroke:none;fill-rule:nonzero;fill:rgb(0%,0%,0%);fill-opacity:1;" d="M 9.167969 7.5 C 9.167969 8.421875 8.421875 9.167969 7.5 9.167969 C 6.578125 9.167969 5.832031 8.421875 5.832031 7.5 C 5.832031 6.578125 6.578125 5.832031 7.5 5.832031 C 8.421875 5.832031 9.167969 6.578125 9.167969 7.5 Z M 9.167969 7.5 "/>
<path style=" stroke:none;fill-rule:nonzero;fill:rgb(93.333333%,93.333333%,93.333333%);fill-opacity:1;" d="M 9.0625 7.5 C 9.0625 8.363281 8.363281 9.0625 7.5 9.0625 C 6.636719 9.0625 5.9375 8.363281 5.9375 7.5 C 5.9375 6.636719 6.636719 5.9375 7.5 5.9375 C 8.363281 5.9375 9.0625 6.636719 9.0625 7.5 Z M 9.0625 7.5 "/>
<path style=" stroke:none;fill-rule:nonzero;fill:rgb(0%,0%,0%);fill-opacity:1;" d="M 8.855469 7.5 C 8.855469 8.246094 8.246094 8.855469 7.5 8.855469 C 6.753906 8.855469 6.144531 8.246094 6.144531 7.5 C 6.144531 6.753906 6.753906 6.144531 7.5 6.144531 C 8.246094 6.144531 8.855469 6.753906 8.855469 7.5 Z M 8.855469 7.5 "/>
<path style=" stroke:none;fill-rule:nonzero;fill:rgb(93.333333%,93.333333%,93.333333%);fill-opacity:1;" d="M 8.800781 7.5 C 8.800781 8.21875 8.21875 8.800781 7.5 8.800781 C 6.78125 8.800781 6.199219 8.21875 6.199219 7.5 C 6.199219 6.78125 6.78125 6.199219 7.5 6.199219 C 8.21875 6.199219 8.800781 6.78125 8.800781 7.5 Z M 8.800781 7.5 "/>
<path style=" stroke:none;fill-rule:nonzero;fill:rgb(60%,66.666667%,70.980392%);fill-opacity:1;" d="M 8.804688 7.492188 C 8.804688 6.769531 8.222656 6.1875 7.5 6.1875 C 6.777344 6.1875 6.195312 6.769531 6.195312 7.492188 C 6.195312 7.730469 6.257812 7.953125 6.371094 8.148438 L 7.5 7.527344 L 8.628906 8.148438 C 8.742188 7.953125 8.804688 7.730469 8.804688 7.492188 Z M 8.804688 7.492188 "/>
<path style=" stroke:none;fill-rule:nonzero;fill:rgb(0%,0%,0%);fill-opacity:1;" d="M 8.542969 7.5 C 8.542969 8.074219 8.074219 8.542969 7.5 8.542969 C 6.925781 8.542969 6.457031 8.074219 6.457031 7.5 C 6.457031 6.925781 6.925781 6.457031 7.5 6.457031 C 8.074219 6.457031 8.542969 6.925781 8.542969 7.5 Z M 8.542969 7.5 "/>
<path style=" stroke:none;fill-rule:nonzero;fill:rgb(93.333333%,93.333333%,93.333333%);fill-opacity:1;" d="M 8.5 7.5 C 8.5 8.050781 8.050781 8.5 7.5 8.5 C 6.949219 8.5 6.5 8.050781 6.5 7.5 C 6.5 6.949219 6.949219 6.5 7.5 6.5 C 8.050781 6.5 8.5 6.949219 8.5 7.5 Z M 8.5 7.5 "/>
<path style=" stroke:none;fill-rule:nonzero;fill:rgb(100%,67.45098%,20%);fill-opacity:1;" d="M 7.5 7.160156 L 7.578125 7.394531 L 7.824219 7.394531 L 7.625 7.539062 L 7.699219 7.777344 L 7.5 7.628906 L 7.300781 7.777344 L 7.375 7.539062 L 7.175781 7.394531 L 7.421875 7.394531 Z M 7.5 7.160156 "/>
<path style=" stroke:none;fill-rule:nonzero;fill:rgb(0%,44.313725%,15.294118%);fill-opacity:1;" d="M 7.707031 6.882812 C 7.707031 6.882812 7.832031 6.851562 7.90625 6.84375 C 7.980469 6.839844 8.042969 7.007812 8.132812 7.035156 C 8.222656 7.066406 8.222656 7.152344 8.257812 7.257812 C 8.292969 7.359375 8.273438 7.382812 8.273438 7.5 C 8.273438 7.617188 8.339844 7.675781 8.324219 7.761719 C 8.308594 7.851562 8.234375 7.871094 8.191406 7.933594 C 8.148438 7.992188 8.183594 8.0625 8.140625 8.109375 C 8.097656 8.152344 7.949219 8.144531 7.898438 8.1875 C 7.847656 8.234375 7.75 8.296875 7.683594 8.261719 C 7.621094 8.226562 7.480469 8.210938 7.480469 8.210938 C 7.480469 8.210938 7.515625 8.078125 7.621094 8.035156 C 7.722656 7.992188 7.765625 7.996094 7.859375 7.96875 C 7.957031 7.9375 7.949219 7.894531 8.015625 7.835938 C 8.082031 7.777344 8.089844 7.695312 8.125 7.636719 C 8.164062 7.578125 8.167969 7.535156 8.15625 7.453125 C 8.140625 7.375 8.109375 7.285156 8.082031 7.210938 C 8.050781 7.140625 7.984375 7.050781 7.941406 7 C 7.898438 6.949219 7.707031 6.882812 7.707031 6.882812 Z M 7.707031 6.882812 "/>
<path style=" stroke:none;fill-rule:nonzero;fill:rgb(0%,44.313725%,15.294118%);fill-opacity:1;" d="M 7.253906 6.925781 C 7.253906 6.925781 7.324219 6.765625 7.253906 6.757812 C 6.957031 6.71875 6.898438 6.984375 6.8125 7.015625 C 6.722656 7.042969 6.707031 7.191406 6.671875 7.292969 C 6.636719 7.394531 6.652344 7.417969 6.652344 7.535156 C 6.652344 7.652344 6.652344 7.675781 6.667969 7.761719 C 6.683594 7.851562 6.703125 7.917969 6.746094 7.976562 C 6.789062 8.035156 6.808594 8.0625 6.851562 8.105469 C 6.894531 8.152344 6.980469 8.195312 7.03125 8.238281 C 7.082031 8.28125 7.238281 8.296875 7.304688 8.261719 C 7.371094 8.222656 7.488281 8.210938 7.488281 8.210938 C 7.488281 8.210938 7.4375 8.121094 7.335938 8.078125 C 7.234375 8.035156 7.226562 7.996094 7.128906 7.96875 C 7.035156 7.9375 7.042969 7.894531 6.976562 7.835938 C 6.910156 7.777344 6.902344 7.695312 6.867188 7.636719 C 6.828125 7.578125 6.847656 7.5625 6.863281 7.484375 C 6.878906 7.402344 6.90625 7.335938 6.9375 7.261719 C 6.964844 7.191406 7.039062 7.09375 7.082031 7.042969 C 7.128906 6.992188 7.253906 6.925781 7.253906 6.925781 Z M 7.253906 6.925781 "/>
<path style=" stroke:none;fill-rule:nonzero;fill:rgb(0%,44.313725%,15.294118%);fill-opacity:1;" d="M 7.257812 8.277344 L 7.355469 8.34375 L 7.480469 8.253906 L 7.597656 8.335938 L 7.75 8.277344 L 7.597656 8.386719 L 7.488281 8.296875 L 7.371094 8.378906 L 7.253906 8.3125 Z M 7.257812 8.277344 "/>
</g>
</svg>
