<?xml version="1.0" encoding="UTF-8"?>
<svg xmlns="http://www.w3.org/2000/svg" xmlns:xlink="http://www.w3.org/1999/xlink" width="15pt" height="15pt" viewBox="0 0 15 15" version="1.1">
<g id="surface1">
<path style=" stroke:none;fill-rule:nonzero;fill:rgb(0%,27.45098%,0%);fill-opacity:1;" d="M 13.332031 2.082031 L 3.75 2.082031 L 3.75 12.917969 L 13.332031 12.917969 C 14.253906 12.917969 15 12.171875 15 11.25 L 15 3.75 C 15 2.828125 14.253906 2.082031 13.332031 2.082031 Z M 9.375 10.613281 C 7.648438 10.613281 6.25 9.214844 6.25 7.488281 C 6.25 5.9375 7.378906 4.65625 8.859375 4.410156 C 7.933594 4.839844 7.292969 5.777344 7.292969 6.863281 C 7.292969 8.359375 8.503906 9.570312 10 9.570312 C 11.089844 9.570312 12.023438 8.929688 12.453125 8.003906 C 12.207031 9.484375 10.925781 10.613281 9.375 10.613281 Z M 11.503906 6.269531 L 11 7.113281 L 10.910156 6.132812 L 9.953125 5.914062 L 10.859375 5.527344 L 10.773438 4.550781 L 11.417969 5.292969 L 12.320312 4.90625 L 11.816406 5.75 L 12.460938 6.492188 Z M 11.503906 6.269531 "/>
<path style=" stroke:none;fill-rule:nonzero;fill:rgb(93.333333%,93.333333%,93.333333%);fill-opacity:1;" d="M 1.667969 2.082031 C 0.746094 2.082031 0 2.828125 0 3.75 L 0 11.25 C 0 12.171875 0.746094 12.917969 1.667969 12.917969 L 3.75 12.917969 L 3.75 2.082031 Z M 1.667969 2.082031 "/>
<path style=" stroke:none;fill-rule:nonzero;fill:rgb(100%,100%,100%);fill-opacity:1;" d="M 12.320312 4.90625 L 11.417969 5.292969 L 10.773438 4.550781 L 10.859375 5.527344 L 9.953125 5.914062 L 10.910156 6.132812 L 11 7.113281 L 11.503906 6.269531 L 12.460938 6.492188 L 11.816406 5.75 Z M 12.320312 4.90625 "/>
<path style=" stroke:none;fill-rule:nonzero;fill:rgb(100%,100%,100%);fill-opacity:1;" d="M 10 9.570312 C 8.503906 9.570312 7.292969 8.359375 7.292969 6.863281 C 7.292969 5.777344 7.933594 4.839844 8.859375 4.410156 C 7.378906 4.65625 6.25 5.9375 6.25 7.488281 C 6.25 9.214844 7.648438 10.613281 9.375 10.613281 C 10.925781 10.613281 12.207031 9.484375 12.453125 8.003906 C 12.023438 8.929688 11.089844 9.570312 10 9.570312 Z M 10 9.570312 "/>
</g>
</svg>
