<?xml version="1.0" encoding="UTF-8"?>
<svg xmlns="http://www.w3.org/2000/svg" xmlns:xlink="http://www.w3.org/1999/xlink" width="15pt" height="15pt" viewBox="0 0 15 15" version="1.1">
<g id="surface1">
<path style=" stroke:none;fill-rule:nonzero;fill:rgb(99.215686%,87.45098%,0%);fill-opacity:1;" d="M 7.917969 12.917969 L 3.75 12.917969 C 2.828125 12.917969 2.082031 12.171875 2.082031 11.25 L 2.082031 3.75 C 2.082031 2.828125 2.828125 2.082031 3.75 2.082031 L 7.917969 2.082031 Z M 7.917969 12.917969 "/>
<path style=" stroke:none;fill-rule:nonzero;fill:rgb(93.333333%,93.333333%,93.333333%);fill-opacity:1;" d="M 12.917969 11.25 C 12.917969 12.171875 12.171875 12.917969 11.25 12.917969 L 7.5 12.917969 L 7.5 2.082031 L 11.25 2.082031 C 12.171875 2.082031 12.917969 2.828125 12.917969 3.75 Z M 12.917969 11.25 "/>
<path style=" stroke:none;fill-rule:nonzero;fill:rgb(63.137255%,63.137255%,63.137255%);fill-opacity:1;" d="M 12.007812 5.929688 L 12.144531 5.675781 L 11.863281 5.804688 Z M 12.007812 5.929688 "/>
<path style=" stroke:none;fill-rule:nonzero;fill:rgb(63.137255%,63.137255%,63.137255%);fill-opacity:1;" d="M 12.019531 5.699219 C 12.019531 5.757812 12.066406 5.804688 12.121094 5.804688 C 12.179688 5.804688 12.226562 5.757812 12.226562 5.699219 C 12.226562 5.644531 12.179688 5.597656 12.121094 5.597656 C 12.066406 5.597656 12.019531 5.644531 12.019531 5.699219 Z M 11.777344 5.761719 C 11.730469 5.808594 11.753906 5.910156 11.832031 5.988281 C 11.910156 6.070312 12.015625 6.09375 12.0625 6.042969 C 12.109375 5.996094 12.085938 5.894531 12.007812 5.816406 C 11.929688 5.738281 11.828125 5.710938 11.777344 5.761719 Z M 11.777344 5.761719 "/>
<path style=" stroke:none;fill-rule:nonzero;fill:rgb(79.607843%,61.176471%,16.862745%);fill-opacity:1;" d="M 9.402344 8.152344 C 9.558594 8.300781 9.691406 8.105469 9.945312 7.882812 C 10.175781 7.679688 11.691406 6.269531 11.851562 6.128906 C 12.015625 5.984375 11.863281 5.769531 11.675781 5.945312 C 11.484375 6.121094 9.675781 7.636719 9.539062 7.761719 C 9.402344 7.882812 9.226562 7.984375 9.402344 8.152344 Z M 9.402344 8.152344 "/>
<path style=" stroke:none;fill-rule:nonzero;fill:rgb(79.607843%,61.176471%,16.862745%);fill-opacity:1;" d="M 11.8125 6.066406 L 11.992188 6.269531 L 11.902344 6.347656 L 11.992188 6.425781 L 12.085938 6.347656 L 12.214844 6.492188 L 12.214844 6.632812 L 11.960938 6.847656 L 11.8125 6.75 L 11.8125 6.632812 L 11.6875 6.632812 L 11.6875 6.746094 L 11.753906 6.75 L 11.8125 6.816406 L 11.816406 6.964844 L 11.59375 7.148438 L 11.132812 6.710938 Z M 8.191406 8.609375 C 8.191406 8.953125 8.46875 9.230469 8.8125 9.230469 C 9.15625 9.230469 9.433594 8.953125 9.433594 8.609375 C 9.433594 8.265625 9.15625 7.988281 8.8125 7.988281 C 8.46875 7.988281 8.191406 8.265625 8.191406 8.609375 Z M 8.589844 8.609375 C 8.476562 8.609375 8.386719 8.515625 8.386719 8.40625 C 8.386719 8.292969 8.480469 8.203125 8.589844 8.203125 C 8.703125 8.203125 8.796875 8.292969 8.796875 8.40625 L 8.792969 8.410156 C 8.800781 8.410156 8.804688 8.40625 8.8125 8.40625 C 8.8125 8.292969 8.902344 8.203125 9.015625 8.203125 C 9.128906 8.203125 9.21875 8.292969 9.21875 8.40625 C 9.21875 8.519531 9.128906 8.609375 9.019531 8.609375 C 9.128906 8.609375 9.21875 8.703125 9.21875 8.8125 C 9.21875 8.925781 9.128906 9.015625 9.015625 9.015625 C 8.902344 9.015625 8.8125 8.925781 8.8125 8.8125 C 8.804688 8.8125 8.800781 8.808594 8.792969 8.808594 L 8.796875 8.8125 C 8.796875 8.925781 8.703125 9.015625 8.589844 9.015625 C 8.480469 9.015625 8.386719 8.925781 8.386719 8.8125 C 8.390625 8.703125 8.476562 8.609375 8.589844 8.609375 Z M 8.589844 8.609375 "/>
<path style=" stroke:none;fill-rule:nonzero;fill:rgb(63.137255%,63.137255%,63.137255%);fill-opacity:1;" d="M 9.21875 8.019531 C 9.167969 8.066406 9.195312 8.171875 9.273438 8.25 C 9.351562 8.328125 9.453125 8.351562 9.5 8.304688 C 9.550781 8.253906 9.523438 8.152344 9.445312 8.074219 C 9.367188 7.996094 9.265625 7.972656 9.21875 8.019531 Z M 8.21875 8.097656 C 8.21875 8.15625 8.265625 8.203125 8.328125 8.203125 C 8.386719 8.203125 8.433594 8.15625 8.433594 8.097656 C 8.433594 8.039062 8.386719 7.992188 8.328125 7.992188 C 8.265625 7.992188 8.21875 8.039062 8.21875 8.097656 Z M 9.144531 9.125 C 9.144531 9.183594 9.195312 9.230469 9.253906 9.230469 C 9.3125 9.230469 9.359375 9.183594 9.359375 9.125 C 9.359375 9.0625 9.3125 9.015625 9.253906 9.015625 C 9.195312 9.015625 9.144531 9.0625 9.144531 9.125 Z M 8.191406 9.089844 C 8.191406 9.148438 8.238281 9.195312 8.296875 9.195312 C 8.355469 9.195312 8.40625 9.148438 8.40625 9.089844 C 8.40625 9.03125 8.355469 8.980469 8.296875 8.980469 C 8.238281 8.984375 8.191406 9.03125 8.191406 9.089844 Z M 8.191406 9.089844 "/>
<path style=" stroke:none;fill-rule:nonzero;fill:rgb(70.588235%,70.588235%,70.980392%);fill-opacity:1;" d="M 11.152344 7.117188 C 11.210938 7.078125 11.257812 7.027344 11.285156 6.964844 C 11.410156 6.691406 11.253906 6.253906 11.160156 6.085938 C 11.046875 5.878906 11.117188 5.746094 11.171875 5.679688 C 11.15625 5.671875 11.136719 5.667969 11.117188 5.667969 C 11.070312 5.667969 11.027344 5.691406 10.988281 5.734375 C 10.867188 5.863281 10.921875 6.039062 11.09375 6.429688 C 11.21875 6.726562 11.269531 6.9375 11.152344 7.117188 Z M 11.152344 7.117188 "/>
<path style=" stroke:none;fill-rule:nonzero;fill:rgb(70.588235%,70.588235%,70.980392%);fill-opacity:1;" d="M 10.921875 5.851562 C 10.980469 5.765625 11.074219 5.714844 11.183594 5.714844 C 11.277344 5.714844 11.371094 5.75 11.449219 5.808594 L 11.566406 5.632812 C 11.515625 5.589844 11.390625 5.503906 11.25 5.503906 C 11.210938 5.503906 11.175781 5.507812 11.140625 5.519531 C 10.980469 5.578125 10.929688 5.726562 10.921875 5.851562 Z M 10.921875 5.851562 "/>
<path style=" stroke:none;fill-rule:nonzero;fill:rgb(79.607843%,61.176471%,16.862745%);fill-opacity:1;" d="M 8.410156 5.929688 L 8.273438 5.675781 L 8.554688 5.804688 Z M 8.410156 5.929688 "/>
<path style=" stroke:none;fill-rule:nonzero;fill:rgb(79.607843%,61.176471%,16.862745%);fill-opacity:1;" d="M 8.398438 5.699219 C 8.398438 5.757812 8.351562 5.804688 8.292969 5.804688 C 8.238281 5.804688 8.191406 5.757812 8.191406 5.699219 C 8.191406 5.644531 8.238281 5.597656 8.292969 5.597656 C 8.351562 5.597656 8.398438 5.644531 8.398438 5.699219 Z M 8.636719 5.761719 C 8.683594 5.808594 8.660156 5.910156 8.582031 5.988281 C 8.503906 6.070312 8.402344 6.09375 8.355469 6.042969 C 8.304688 5.996094 8.328125 5.894531 8.410156 5.816406 C 8.484375 5.738281 8.589844 5.710938 8.636719 5.761719 Z M 8.636719 5.761719 "/>
<path style=" stroke:none;fill-rule:nonzero;fill:rgb(63.137255%,63.137255%,63.137255%);fill-opacity:1;" d="M 11.015625 8.152344 C 10.859375 8.300781 10.722656 8.105469 10.472656 7.882812 C 10.242188 7.679688 8.726562 6.269531 8.566406 6.128906 C 8.402344 5.984375 8.554688 5.769531 8.742188 5.945312 C 8.929688 6.121094 10.742188 7.636719 10.878906 7.761719 C 11.015625 7.882812 11.191406 7.984375 11.015625 8.152344 Z M 11.015625 8.152344 "/>
<path style=" stroke:none;fill-rule:nonzero;fill:rgb(63.137255%,63.137255%,63.137255%);fill-opacity:1;" d="M 8.605469 6.066406 L 8.421875 6.269531 L 8.515625 6.347656 L 8.421875 6.425781 L 8.332031 6.347656 L 8.203125 6.492188 L 8.203125 6.632812 L 8.457031 6.847656 L 8.605469 6.75 L 8.605469 6.632812 L 8.730469 6.632812 L 8.730469 6.746094 L 8.664062 6.75 L 8.605469 6.816406 L 8.597656 6.964844 L 8.824219 7.148438 L 9.285156 6.710938 Z M 11.605469 7.988281 C 11.261719 7.988281 10.984375 8.265625 10.984375 8.609375 C 10.984375 8.953125 11.261719 9.230469 11.605469 9.230469 C 11.945312 9.230469 12.226562 8.953125 12.226562 8.609375 C 12.226562 8.265625 11.945312 7.988281 11.605469 7.988281 Z M 12.027344 8.8125 C 12.027344 8.925781 11.9375 9.015625 11.824219 9.015625 C 11.710938 9.015625 11.621094 8.925781 11.621094 8.8125 L 11.621094 8.808594 C 11.617188 8.808594 11.609375 8.8125 11.605469 8.8125 C 11.605469 8.925781 11.511719 9.015625 11.402344 9.015625 C 11.289062 9.015625 11.199219 8.925781 11.199219 8.8125 C 11.199219 8.699219 11.289062 8.609375 11.398438 8.609375 C 11.285156 8.609375 11.199219 8.515625 11.199219 8.40625 C 11.199219 8.292969 11.289062 8.203125 11.402344 8.203125 C 11.511719 8.203125 11.605469 8.292969 11.605469 8.40625 C 11.609375 8.40625 11.617188 8.410156 11.621094 8.410156 L 11.621094 8.40625 C 11.621094 8.292969 11.710938 8.203125 11.824219 8.203125 C 11.9375 8.203125 12.027344 8.292969 12.027344 8.40625 C 12.027344 8.519531 11.9375 8.609375 11.828125 8.609375 C 11.9375 8.609375 12.027344 8.703125 12.027344 8.8125 Z M 12.027344 8.8125 "/>
<path style=" stroke:none;fill-rule:nonzero;fill:rgb(79.607843%,61.176471%,16.862745%);fill-opacity:1;" d="M 11.199219 8.019531 C 11.246094 8.066406 11.222656 8.171875 11.144531 8.25 C 11.066406 8.328125 10.964844 8.351562 10.914062 8.304688 C 10.867188 8.253906 10.890625 8.152344 10.96875 8.074219 C 11.046875 7.996094 11.152344 7.972656 11.199219 8.019531 Z M 12.195312 8.097656 C 12.195312 8.15625 12.148438 8.203125 12.089844 8.203125 C 12.03125 8.203125 11.984375 8.15625 11.984375 8.097656 C 11.984375 8.039062 12.03125 7.992188 12.089844 7.992188 C 12.148438 7.992188 12.195312 8.039062 12.195312 8.097656 Z M 11.269531 9.125 C 11.269531 9.183594 11.222656 9.230469 11.164062 9.230469 C 11.105469 9.230469 11.058594 9.183594 11.058594 9.125 C 11.058594 9.0625 11.105469 9.015625 11.164062 9.015625 C 11.222656 9.015625 11.269531 9.0625 11.269531 9.125 Z M 12.226562 9.089844 C 12.226562 9.148438 12.175781 9.195312 12.117188 9.195312 C 12.058594 9.195312 12.011719 9.148438 12.011719 9.089844 C 12.011719 9.03125 12.058594 8.980469 12.117188 8.980469 C 12.175781 8.984375 12.226562 9.03125 12.226562 9.089844 Z M 12.226562 9.089844 "/>
<path style=" stroke:none;fill-rule:nonzero;fill:rgb(0%,0%,0%);fill-opacity:1;" d="M 10.800781 5.714844 C 10.800781 6.328125 10.53125 6.3125 10.203125 6.3125 C 9.875 6.3125 9.609375 6.328125 9.609375 5.714844 C 9.609375 5.105469 9.875 4.445312 10.203125 4.445312 C 10.53125 4.445312 10.800781 5.105469 10.800781 5.714844 Z M 10.800781 5.714844 "/>
<path style=" stroke:none;fill-rule:nonzero;fill:rgb(100%,100%,100%);fill-opacity:1;" d="M 10.179688 6.269531 C 10 6.269531 9.878906 6.265625 9.792969 6.199219 C 9.695312 6.121094 9.652344 5.96875 9.652344 5.714844 C 9.652344 5.09375 9.925781 4.484375 10.203125 4.484375 C 10.484375 4.484375 10.757812 5.09375 10.757812 5.714844 C 10.757812 6.269531 10.535156 6.269531 10.253906 6.269531 Z M 10.179688 6.269531 "/>
<path style=" stroke:none;fill-rule:nonzero;fill:rgb(79.607843%,61.176471%,16.862745%);fill-opacity:1;" d="M 10.515625 5.851562 C 10.308594 5.789062 10.339844 5.589844 10.203125 5.589844 C 10.066406 5.589844 10.101562 5.789062 9.894531 5.851562 C 9.683594 5.910156 9.582031 5.816406 9.582031 5.816406 L 9.679688 6.214844 C 9.679688 6.214844 9.855469 6.066406 10.203125 6.066406 C 10.554688 6.066406 10.730469 6.214844 10.730469 6.214844 L 10.824219 5.816406 C 10.824219 5.816406 10.722656 5.910156 10.515625 5.851562 Z M 10.515625 5.851562 "/>
<path style=" stroke:none;fill-rule:nonzero;fill:rgb(79.607843%,61.176471%,16.862745%);fill-opacity:1;" d="M 10.550781 5.324219 C 10.316406 5.257812 10.355469 5.046875 10.203125 5.046875 C 10.054688 5.046875 10.089844 5.257812 9.859375 5.324219 C 9.628906 5.386719 9.515625 5.285156 9.515625 5.285156 L 9.621094 5.707031 C 9.621094 5.707031 9.816406 5.550781 10.203125 5.550781 C 10.59375 5.550781 10.785156 5.707031 10.785156 5.707031 L 10.894531 5.285156 C 10.894531 5.285156 10.78125 5.386719 10.550781 5.324219 Z M 10.550781 5.324219 "/>
<path style=" stroke:none;fill-rule:nonzero;fill:rgb(79.607843%,61.176471%,16.862745%);fill-opacity:1;" d="M 10.496094 4.769531 C 10.300781 4.714844 10.332031 4.539062 10.203125 4.539062 C 10.078125 4.539062 10.109375 4.714844 9.914062 4.769531 C 9.71875 4.824219 9.625 4.738281 9.625 4.738281 L 9.714844 5.09375 C 9.714844 5.09375 9.878906 4.992188 10.203125 4.992188 C 10.53125 4.992188 10.695312 5.09375 10.695312 5.09375 L 10.785156 4.738281 C 10.785156 4.738281 10.6875 4.824219 10.496094 4.769531 Z M 10.128906 4.375 C 10.128906 4.4375 10.164062 4.484375 10.203125 4.484375 C 10.246094 4.484375 10.277344 4.4375 10.277344 4.375 C 10.277344 4.3125 10.246094 4.261719 10.203125 4.261719 C 10.164062 4.261719 10.128906 4.3125 10.128906 4.375 Z M 10.128906 4.375 "/>
<path style=" stroke:none;fill-rule:nonzero;fill:rgb(79.607843%,61.176471%,16.862745%);fill-opacity:1;" d="M 10.015625 4.253906 C 10.015625 4.296875 10.101562 4.328125 10.203125 4.328125 C 10.308594 4.328125 10.390625 4.296875 10.390625 4.253906 C 10.390625 4.210938 10.308594 4.175781 10.203125 4.175781 C 10.101562 4.175781 10.015625 4.210938 10.015625 4.253906 Z M 10.015625 4.253906 "/>
<path style=" stroke:none;fill-rule:nonzero;fill:rgb(79.607843%,61.176471%,16.862745%);fill-opacity:1;" d="M 10.128906 4.140625 C 10.128906 4.183594 10.164062 4.21875 10.203125 4.21875 C 10.246094 4.21875 10.277344 4.183594 10.277344 4.140625 C 10.277344 4.097656 10.246094 4.0625 10.203125 4.0625 C 10.164062 4.0625 10.128906 4.097656 10.128906 4.140625 Z M 10.128906 4.140625 "/>
<path style=" stroke:none;fill-rule:nonzero;fill:rgb(70.588235%,70.588235%,70.980392%);fill-opacity:1;" d="M 9.253906 7.117188 C 9.195312 7.078125 9.152344 7.027344 9.121094 6.964844 C 9 6.691406 9.152344 6.253906 9.246094 6.085938 C 9.363281 5.878906 9.292969 5.746094 9.238281 5.679688 C 9.253906 5.671875 9.269531 5.667969 9.292969 5.667969 C 9.335938 5.667969 9.378906 5.691406 9.421875 5.734375 C 9.542969 5.863281 9.484375 6.039062 9.316406 6.429688 C 9.1875 6.726562 9.140625 6.9375 9.253906 7.117188 Z M 9.253906 7.117188 "/>
<path style=" stroke:none;fill-rule:nonzero;fill:rgb(70.588235%,70.588235%,70.980392%);fill-opacity:1;" d="M 9.488281 5.851562 C 9.425781 5.765625 9.335938 5.714844 9.222656 5.714844 C 9.132812 5.714844 9.039062 5.75 8.960938 5.808594 L 8.84375 5.632812 C 8.894531 5.589844 9.019531 5.503906 9.160156 5.503906 C 9.195312 5.503906 9.234375 5.507812 9.265625 5.519531 C 9.425781 5.578125 9.480469 5.726562 9.488281 5.851562 Z M 9.488281 5.851562 "/>
<path style=" stroke:none;fill-rule:nonzero;fill:rgb(92.54902%,10.980392%,14.117647%);fill-opacity:1;" d="M 10.203125 7.082031 C 10.289062 7.148438 10.308594 7.394531 10.308594 7.6875 L 10.308594 9.972656 C 10.308594 9.972656 10.433594 10.007812 10.394531 10.34375 C 10.382812 10.441406 10.195312 10.421875 10.160156 10.34375 C 10.128906 10.265625 10.144531 10.015625 10.203125 9.980469 L 10.203125 7.707031 C 10.203125 7.371094 10.148438 7.238281 10.128906 7.175781 C 10.113281 7.109375 10.164062 7.050781 10.203125 7.082031 Z M 10.203125 7.082031 "/>
<path style=" stroke:none;fill-rule:nonzero;fill:rgb(92.54902%,10.980392%,14.117647%);fill-opacity:1;" d="M 10.988281 8.667969 C 10.90625 8.609375 10.792969 8.464844 10.695312 8.328125 C 10.566406 8.144531 10.53125 8.019531 10.402344 7.863281 C 10.273438 7.707031 9.933594 7.386719 9.855469 7.394531 C 9.824219 7.402344 9.789062 7.472656 9.820312 7.5 C 9.851562 7.527344 9.945312 7.628906 10.160156 7.792969 C 10.375 7.957031 10.410156 8.136719 10.589844 8.398438 C 10.753906 8.640625 10.894531 8.804688 11.023438 8.824219 C 11.007812 8.773438 10.996094 8.722656 10.988281 8.667969 Z M 10.988281 8.667969 "/>
<path style=" stroke:none;fill-rule:nonzero;fill:rgb(92.54902%,10.980392%,14.117647%);fill-opacity:1;" d="M 10.566406 7.3125 C 10.492188 7.386719 10.253906 7.617188 10.125 7.765625 C 9.996094 7.917969 9.835938 8.273438 9.691406 8.4375 C 9.601562 8.542969 9.5 8.628906 9.425781 8.6875 C 9.417969 8.742188 9.40625 8.796875 9.382812 8.847656 C 9.488281 8.8125 9.636719 8.71875 9.820312 8.449219 C 10.074219 8.078125 10.199219 7.804688 10.324219 7.703125 C 10.445312 7.597656 10.496094 7.566406 10.566406 7.496094 C 10.636719 7.421875 10.644531 7.238281 10.566406 7.3125 Z M 10.566406 7.3125 "/>
<path style=" stroke:none;fill-rule:nonzero;fill:rgb(92.54902%,10.980392%,14.117647%);fill-opacity:1;" d="M 10.050781 7.617188 L 10.050781 10.027344 C 9.914062 10.136719 9.953125 10.320312 9.980469 10.410156 C 10.003906 10.5 10.230469 10.5 10.265625 10.457031 C 10.300781 10.410156 10.308594 10.105469 10.179688 10 L 10.179688 7.765625 C 10.179688 7.707031 10.050781 7.527344 10.050781 7.617188 Z M 10.050781 7.617188 "/>
<path style=" stroke:none;fill-rule:nonzero;fill:rgb(92.54902%,10.980392%,14.117647%);fill-opacity:1;" d="M 9.207031 8.742188 C 9.082031 8.828125 8.976562 8.976562 9.253906 9.089844 C 9.53125 9.199219 9.894531 9.347656 10.203125 9.347656 C 10.511719 9.347656 11.089844 9.140625 11.222656 9.046875 C 11.359375 8.953125 11.417969 8.839844 11.203125 8.777344 C 11.089844 8.742188 11.070312 8.828125 11.128906 8.847656 C 11.191406 8.867188 11.257812 8.929688 11.109375 8.980469 C 10.960938 9.035156 10.621094 9.195312 10.179688 9.195312 C 9.738281 9.195312 9.320312 9.007812 9.253906 8.980469 C 9.183594 8.957031 9.164062 8.878906 9.214844 8.847656 C 9.261719 8.816406 9.261719 8.703125 9.207031 8.742188 Z M 9.207031 8.742188 "/>
<path style=" stroke:none;fill-rule:nonzero;fill:rgb(79.607843%,61.176471%,16.862745%);fill-opacity:1;" d="M 10.355469 9.898438 C 10.355469 9.949219 10.316406 9.988281 10.269531 9.988281 C 10.21875 9.988281 10.179688 9.949219 10.179688 9.898438 C 10.179688 9.851562 10.21875 9.8125 10.269531 9.8125 C 10.316406 9.8125 10.355469 9.851562 10.355469 9.898438 Z M 10.355469 9.898438 "/>
<path style=" stroke:none;fill-rule:nonzero;fill:rgb(79.607843%,61.176471%,16.862745%);fill-opacity:1;" d="M 10.207031 9.957031 C 10.207031 10.007812 10.167969 10.046875 10.121094 10.046875 C 10.070312 10.046875 10.03125 10.007812 10.03125 9.957031 C 10.03125 9.910156 10.070312 9.871094 10.121094 9.871094 C 10.167969 9.871094 10.207031 9.910156 10.207031 9.957031 Z M 10.207031 9.957031 "/>
</g>
</svg>
