<?xml version="1.0" encoding="UTF-8"?>
<svg xmlns="http://www.w3.org/2000/svg" xmlns:xlink="http://www.w3.org/1999/xlink" width="15pt" height="15pt" viewBox="0 0 15 15" version="1.1">
<g id="surface1">
<path style=" stroke:none;fill-rule:nonzero;fill:rgb(100%,80%,30.196078%);fill-opacity:1;" d="M 15 11.25 C 15 12.171875 14.253906 12.917969 13.332031 12.917969 L 1.667969 12.917969 C 0.746094 12.917969 0 12.171875 0 11.25 L 0 3.75 C 0 2.828125 0.746094 2.082031 1.667969 2.082031 L 13.332031 2.082031 C 14.253906 2.082031 15 2.828125 15 3.75 Z M 15 11.25 "/>
<path style=" stroke:none;fill-rule:nonzero;fill:rgb(86.666667%,18.039216%,26.666667%);fill-opacity:1;" d="M 14.582031 11.25 C 14.582031 11.941406 14.023438 12.5 13.332031 12.5 L 1.667969 12.5 C 0.976562 12.5 0.417969 11.941406 0.417969 11.25 L 0.417969 3.75 C 0.417969 3.058594 0.976562 2.5 1.667969 2.5 L 13.332031 2.5 C 14.023438 2.5 14.582031 3.058594 14.582031 3.75 Z M 14.582031 11.25 "/>
<path style=" stroke:none;fill-rule:nonzero;fill:rgb(100%,80%,30.196078%);fill-opacity:1;" d="M 9.535156 7.25 C 9.785156 6.246094 8.972656 5.359375 8.972656 5.359375 L 8.757812 6.398438 L 8.316406 6.980469 L 8.5 7.304688 L 8.316406 7.40625 L 7.886719 6.804688 L 8.046875 6.445312 L 8.601562 6.15625 L 7.988281 5.953125 L 7.613281 6.386719 L 7.5 6.867188 L 7.359375 6.386719 L 6.953125 5.953125 L 6.375 6.085938 L 6.859375 6.40625 L 7.054688 6.804688 L 6.65625 7.421875 L 6.441406 7.304688 L 6.621094 6.980469 L 6.183594 6.398438 L 5.96875 5.359375 C 5.96875 5.359375 5.152344 6.246094 5.40625 7.25 C 5.65625 8.253906 6.738281 8.394531 6.738281 8.394531 L 6.050781 8.859375 L 5.648438 8.890625 L 5.578125 9.335938 L 5.945312 9.503906 L 6.265625 9.152344 L 7.0625 8.859375 L 6.609375 9.523438 L 7.5 10 L 8.363281 9.523438 L 7.917969 8.894531 L 7.917969 8.871094 L 8.683594 9.152344 L 9 9.503906 L 9.363281 9.335938 L 9.292969 8.894531 L 8.890625 8.859375 L 8.203125 8.394531 C 8.203125 8.394531 9.285156 8.253906 9.535156 7.25 Z M 9.535156 7.25 "/>
<path style=" stroke:none;fill-rule:nonzero;fill:rgb(36.078431%,56.862745%,23.137255%);fill-opacity:1;" d="M 7.5 8.125 L 7.5 8.664062 C 7.5 8.664062 7.425781 8.550781 7.1875 8.484375 C 6.875 8.390625 6.824219 8.125 6.824219 8.125 Z M 7.5 8.125 L 7.5 8.664062 C 7.5 8.664062 7.578125 8.550781 7.8125 8.484375 C 8.125 8.390625 8.179688 8.125 8.179688 8.125 Z M 7.5 8.125 "/>
<path style=" stroke:none;fill-rule:nonzero;fill:rgb(13.333333%,40%,60%);fill-opacity:1;" d="M 6.972656 7 C 6.972656 7 7.277344 7.121094 7.5 7.011719 L 7.5 8.074219 L 6.824219 8.074219 C 6.824219 8.074219 6.796875 7.84375 6.886719 7.546875 C 6.945312 7.359375 6.835938 7.207031 6.835938 7.207031 Z M 8.027344 7 C 8.027344 7 7.722656 7.121094 7.5 7.011719 L 7.5 8.074219 L 8.179688 8.074219 C 8.179688 8.074219 8.203125 7.84375 8.113281 7.546875 C 8.054688 7.359375 8.164062 7.207031 8.164062 7.207031 Z M 9.617188 8.820312 C 9.617188 9.003906 9.46875 9.152344 9.285156 9.152344 C 9.101562 9.152344 8.953125 9.003906 8.953125 8.820312 C 8.953125 8.636719 9.101562 8.488281 9.285156 8.488281 C 9.46875 8.488281 9.617188 8.636719 9.617188 8.820312 Z M 9.617188 8.820312 "/>
<path style=" stroke:none;fill-rule:nonzero;fill:rgb(100%,80%,30.196078%);fill-opacity:1;" d="M 7.929688 5.84375 C 7.929688 5.933594 7.746094 6.007812 7.523438 6.007812 C 7.296875 6.007812 7.117188 5.933594 7.117188 5.84375 C 7.117188 5.75 7.296875 5.675781 7.523438 5.675781 C 7.746094 5.675781 7.929688 5.75 7.929688 5.84375 Z M 7.929688 5.84375 "/>
<path style=" stroke:none;fill-rule:nonzero;fill:rgb(100%,80%,30.196078%);fill-opacity:1;" d="M 7.511719 5.105469 C 7.160156 5.105469 6.875 5.269531 6.875 5.472656 C 6.875 5.675781 7.160156 5.839844 7.511719 5.839844 C 7.867188 5.839844 8.152344 5.675781 8.152344 5.472656 C 8.152344 5.269531 7.867188 5.105469 7.511719 5.105469 Z M 7.0625 5.625 C 6.984375 5.59375 6.984375 5.5 7 5.4375 C 7.011719 5.371094 7.121094 5.304688 7.121094 5.304688 C 7.121094 5.304688 7.046875 5.464844 7.109375 5.53125 C 7.175781 5.597656 7.140625 5.660156 7.0625 5.625 Z M 7.332031 5.621094 C 7.304688 5.613281 7.300781 5.582031 7.285156 5.527344 C 7.265625 5.476562 7.246094 5.4375 7.257812 5.371094 C 7.273438 5.304688 7.433594 5.25 7.433594 5.25 C 7.433594 5.25 7.390625 5.382812 7.402344 5.449219 C 7.414062 5.515625 7.464844 5.582031 7.464844 5.582031 C 7.464844 5.582031 7.359375 5.628906 7.332031 5.621094 Z M 7.734375 5.527344 C 7.71875 5.582031 7.714844 5.613281 7.6875 5.621094 C 7.65625 5.628906 7.550781 5.582031 7.550781 5.582031 C 7.550781 5.582031 7.605469 5.515625 7.617188 5.449219 C 7.628906 5.382812 7.585938 5.253906 7.585938 5.253906 C 7.585938 5.253906 7.746094 5.304688 7.761719 5.371094 C 7.773438 5.4375 7.753906 5.476562 7.734375 5.527344 Z M 7.957031 5.625 C 7.878906 5.660156 7.84375 5.597656 7.910156 5.53125 C 7.972656 5.464844 7.898438 5.304688 7.898438 5.304688 C 7.898438 5.304688 8.007812 5.371094 8.019531 5.4375 C 8.035156 5.5 8.035156 5.59375 7.957031 5.625 Z M 9.613281 8.859375 C 9.601562 8.902344 9.558594 8.929688 9.511719 8.917969 L 9.050781 8.800781 C 9.007812 8.789062 8.980469 8.742188 8.992188 8.695312 C 9.003906 8.652344 9.046875 8.625 9.09375 8.636719 L 9.554688 8.753906 C 9.597656 8.765625 9.628906 8.8125 9.613281 8.859375 Z M 9.613281 8.859375 "/>
<path style=" stroke:none;fill-rule:nonzero;fill:rgb(100%,80%,30.196078%);fill-opacity:1;" d="M 9.371094 8.804688 C 9.363281 8.84375 9.324219 8.867188 9.28125 8.859375 C 9.242188 8.847656 9.21875 8.808594 9.226562 8.765625 L 9.332031 8.296875 C 9.339844 8.253906 9.382812 8.230469 9.421875 8.242188 C 9.464844 8.253906 9.484375 8.292969 9.476562 8.332031 Z M 6.179688 9.949219 C 6.15625 9.957031 6.113281 9.90625 6.082031 9.832031 L 5.273438 7.773438 C 5.242188 7.699219 5.242188 7.632812 5.265625 7.621094 L 5.308594 7.605469 C 5.332031 7.597656 5.4375 7.625 5.464844 7.695312 L 6.277344 9.753906 C 6.304688 9.828125 6.246094 9.921875 6.222656 9.933594 Z M 7.160156 7.601562 L 7.839844 7.601562 L 7.839844 8.074219 L 7.160156 8.074219 Z M 7.160156 7.601562 "/>
</g>
</svg>
