<?xml version="1.0" encoding="UTF-8"?>
<svg xmlns="http://www.w3.org/2000/svg" xmlns:xlink="http://www.w3.org/1999/xlink" width="15pt" height="15pt" viewBox="0 0 15 15" version="1.1">
<g id="surface1">
<path style=" stroke:none;fill-rule:nonzero;fill:rgb(98.823529%,88.235294%,0%);fill-opacity:1;" d="M 15 11.25 C 15 12.171875 14.253906 12.917969 13.332031 12.917969 L 1.667969 12.917969 C 0.746094 12.917969 0 12.171875 0 11.25 L 0 3.75 C 0 2.828125 0.746094 2.082031 1.667969 2.082031 L 13.332031 2.082031 C 14.253906 2.082031 15 2.828125 15 3.75 Z M 15 11.25 "/>
<path style=" stroke:none;fill-rule:nonzero;fill:rgb(7.843137%,7.843137%,7.843137%);fill-opacity:1;" d="M 0 5.417969 L 15 5.417969 L 15 9.582031 L 0 9.582031 Z M 0 5.417969 "/>
<path style=" stroke:none;fill-rule:nonzero;fill:rgb(0%,44.313725%,40.784314%);fill-opacity:1;" d="M 13.332031 2.082031 L 1.667969 2.082031 C 0.746094 2.082031 0 2.828125 0 3.75 L 0 5.417969 L 15 5.417969 L 15 3.75 C 15 2.828125 14.253906 2.082031 13.332031 2.082031 Z M 13.332031 2.082031 "/>
<path style=" stroke:none;fill-rule:nonzero;fill:rgb(93.333333%,93.333333%,93.333333%);fill-opacity:1;" d="M 0 5.417969 L 15 5.417969 L 15 5.832031 L 0 5.832031 Z M 0 9.167969 L 15 9.167969 L 15 9.582031 L 0 9.582031 Z M 0 9.167969 "/>
<path style=" stroke:none;fill-rule:nonzero;fill:rgb(86.666667%,18.039216%,26.666667%);fill-opacity:1;" d="M 0.546875 12.476562 L 7.097656 7.527344 L 0.554688 2.515625 C 0.214844 2.820312 0 3.257812 0 3.75 L 0 11.25 C 0 11.738281 0.214844 12.171875 0.546875 12.476562 Z M 0.546875 12.476562 "/>
<path style=" stroke:none;fill-rule:nonzero;fill:rgb(98.823529%,88.235294%,0%);fill-opacity:1;" d="M 3.949219 9.609375 L 2.585938 8.609375 L 1.226562 9.609375 L 1.753906 8.003906 L 0.382812 7.019531 L 2.074219 7.023438 L 2.585938 5.417969 L 3.101562 7.027344 L 4.789062 7.019531 L 3.421875 8.007812 Z M 3.949219 9.609375 "/>
<path style=" stroke:none;fill-rule:nonzero;fill:rgb(7.843137%,7.843137%,7.843137%);fill-opacity:1;" d="M 1.402344 8.625 L 2.386719 8.625 C 2.464844 8.714844 2.640625 8.75 2.808594 8.625 C 3.117188 8.457031 3.710938 8.625 3.710938 8.625 L 3.828125 8.5 L 3.542969 7.5625 L 3.441406 7.453125 C 3.441406 7.453125 3.21875 7.320312 2.804688 7.367188 C 2.386719 7.410156 2.238281 7.351562 2.238281 7.351562 C 2.238281 7.351562 1.871094 7.394531 1.769531 7.445312 C 1.757812 7.457031 1.652344 7.5625 1.652344 7.5625 Z M 1.402344 8.625 "/>
<path style=" stroke:none;fill-rule:nonzero;fill:rgb(100%,100%,100%);fill-opacity:1;" d="M 1.402344 8.488281 L 2.386719 8.488281 C 2.464844 8.578125 2.640625 8.613281 2.808594 8.488281 C 3.117188 8.320312 3.710938 8.488281 3.710938 8.488281 L 3.828125 8.367188 L 3.542969 7.429688 L 3.441406 7.316406 C 3.441406 7.316406 3.21875 7.1875 2.804688 7.230469 C 2.386719 7.273438 2.238281 7.214844 2.238281 7.214844 C 2.238281 7.214844 1.871094 7.257812 1.769531 7.308594 C 1.757812 7.320312 1.652344 7.425781 1.652344 7.425781 Z M 1.402344 8.488281 "/>
<path style=" stroke:none;fill-rule:nonzero;fill:rgb(7.843137%,7.843137%,7.843137%);fill-opacity:1;" d="M 0.921875 7.089844 L 1.449219 6.316406 L 1.769531 6.367188 L 1.957031 6.175781 L 2.597656 6.964844 L 3.113281 6.597656 L 3.429688 6.335938 L 3.617188 6.449219 L 4.289062 6.019531 L 3.683594 6.585938 L 3.179688 6.941406 L 2.78125 7.125 L 4.132812 8.714844 L 3.953125 8.839844 L 2.667969 7.277344 L 2.25 7.613281 L 2.796875 7.789062 L 2.78125 8.050781 L 2.007812 7.839844 L 2.042969 8.386719 L 1.867188 8.460938 L 1.707031 8.148438 L 1.027344 8.945312 L 0.78125 8.527344 L 1.554688 7.878906 L 1.570312 7.648438 L 1.992188 7.265625 L 2.113281 7.246094 L 2.464844 7.105469 L 1.9375 6.546875 L 1.234375 7.523438 L 0.933594 7.164062 "/>
</g>
</svg>
