<?xml version="1.0" encoding="UTF-8"?>
<svg xmlns="http://www.w3.org/2000/svg" xmlns:xlink="http://www.w3.org/1999/xlink" width="15pt" height="15pt" viewBox="0 0 15 15" version="1.1">
<g id="surface1">
<path style=" stroke:none;fill-rule:nonzero;fill:rgb(92.941176%,16.078431%,22.352941%);fill-opacity:1;" d="M 13.332031 2.082031 L 7.5 2.082031 L 7.5 7.082031 L 0 7.082031 L 0 11.25 C 0 12.171875 0.746094 12.917969 1.667969 12.917969 L 13.332031 12.917969 C 14.253906 12.917969 15 12.171875 15 11.25 L 15 3.75 C 15 2.828125 14.253906 2.082031 13.332031 2.082031 Z M 13.332031 2.082031 "/>
<path style=" stroke:none;fill-rule:nonzero;fill:rgb(93.333333%,93.333333%,93.333333%);fill-opacity:1;" d="M 0 6.667969 L 7.917969 6.667969 L 7.917969 7.5 L 0 7.5 Z M 0 6.667969 "/>
<path style=" stroke:none;fill-rule:nonzero;fill:rgb(0%,13.72549%,58.431373%);fill-opacity:1;" d="M 2.5 7.082031 L 0 7.082031 L 0 3.75 C 0 2.828125 0.746094 2.082031 1.667969 2.082031 L 2.5 2.082031 Z M 2.5 7.082031 "/>
<path style=" stroke:none;fill-rule:nonzero;fill:rgb(93.333333%,93.333333%,93.333333%);fill-opacity:1;" d="M 2.5 2.082031 L 5 2.082031 L 5 7.082031 L 2.5 7.082031 Z M 7.082031 2.082031 L 7.917969 2.082031 L 7.917969 7.5 L 7.082031 7.5 Z M 7.082031 2.082031 "/>
<path style=" stroke:none;fill-rule:nonzero;fill:rgb(92.941176%,16.078431%,22.352941%);fill-opacity:1;" d="M 5 2.082031 L 7.5 2.082031 L 7.5 7.082031 L 5 7.082031 Z M 5 2.082031 "/>
<path style=" stroke:none;fill-rule:nonzero;fill:rgb(100%,100%,100%);fill-opacity:1;" d="M 10.160156 9.300781 L 12.757812 9.300781 L 11.457031 8 Z M 12.757812 5.832031 L 10.160156 5.832031 L 11.457031 7.132812 Z M 13.191406 8.867188 L 13.191406 6.265625 L 11.890625 7.566406 Z M 9.726562 6.265625 L 9.726562 8.867188 L 11.023438 7.566406 Z M 9.726562 6.265625 "/>
</g>
</svg>
