<?xml version="1.0" encoding="UTF-8"?>
<svg xmlns="http://www.w3.org/2000/svg" xmlns:xlink="http://www.w3.org/1999/xlink" width="15pt" height="15pt" viewBox="0 0 15 15" version="1.1">
<g id="surface1">
<path style=" stroke:none;fill-rule:nonzero;fill:rgb(1.176471%,18.039216%,63.137255%);fill-opacity:1;" d="M 15 11.25 C 15 12.171875 14.253906 12.917969 13.332031 12.917969 L 1.667969 12.917969 C 0.746094 12.917969 0 12.171875 0 11.25 L 0 3.75 C 0 2.828125 0.746094 2.082031 1.667969 2.082031 L 13.332031 2.082031 C 14.253906 2.082031 15 2.828125 15 3.75 Z M 15 11.25 "/>
<path style=" stroke:none;fill-rule:nonzero;fill:rgb(87.843137%,11.764706%,14.117647%);fill-opacity:1;" d="M 0 4.40625 L 15 4.40625 L 15 10.59375 L 0 10.59375 Z M 0 4.40625 "/>
<path style=" stroke:none;fill-rule:nonzero;fill:rgb(100%,100%,100%);fill-opacity:1;" d="M 11.257812 9.539062 L 11.257812 9.164062 L 11.03125 9.164062 L 11.03125 8.789062 L 10.828125 8.789062 L 10.828125 8.546875 L 10.730469 8.546875 L 10.730469 8.355469 L 10.550781 8.355469 L 10.449219 8.214844 L 10.449219 7.546875 L 10.5625 7.4375 L 10.5625 6.816406 L 10.46875 6.902344 L 10.46875 6.703125 L 10.394531 6.703125 L 10.394531 6.796875 L 10.246094 6.796875 L 10.246094 6.496094 L 10.066406 6.65625 L 10.121094 6.453125 L 10.019531 5.988281 L 9.960938 5.988281 C 9.960938 5.988281 9.914062 5.792969 9.820312 5.792969 C 9.820312 5.792969 9.859375 5.667969 9.785156 5.667969 C 9.707031 5.667969 9.726562 5.761719 9.726562 5.761719 C 9.726562 5.761719 9.59375 5.820312 9.59375 5.960938 L 9.519531 5.953125 L 9.40625 6.496094 L 9.488281 6.65625 L 9.304688 6.496094 L 9.304688 6.910156 L 8.308594 6.910156 L 8.308594 6.535156 L 8.25 6.589844 L 8.25 6.722656 L 8.121094 6.722656 L 8.121094 6.589844 L 8.214844 6.503906 L 8.214844 6.328125 L 8.140625 6.40625 L 8.027344 6.25 L 8.027344 6.121094 L 7.960938 6.183594 L 7.941406 6.074219 L 8.035156 5.921875 L 8.019531 5.800781 L 7.914062 5.933594 L 7.914062 5.820312 L 7.960938 5.714844 L 7.746094 5.171875 L 7.691406 5.019531 L 7.613281 5.011719 L 7.613281 4.933594 C 7.613281 4.933594 7.558594 4.804688 7.480469 4.804688 C 7.40625 4.804688 7.351562 4.933594 7.351562 4.933594 L 7.351562 5.011719 L 7.269531 5.019531 L 7.21875 5.171875 L 7.003906 5.714844 L 7.050781 5.820312 L 7.050781 5.933594 L 6.941406 5.800781 L 6.925781 5.921875 L 7.023438 6.074219 L 7.003906 6.183594 L 6.9375 6.121094 L 6.9375 6.25 L 6.824219 6.40625 L 6.75 6.328125 L 6.75 6.503906 L 6.84375 6.589844 L 6.84375 6.722656 L 6.710938 6.722656 L 6.710938 6.589844 L 6.65625 6.535156 L 6.65625 6.910156 L 5.660156 6.910156 L 5.660156 6.496094 L 5.476562 6.65625 L 5.554688 6.496094 L 5.441406 5.953125 L 5.367188 5.960938 C 5.367188 5.820312 5.234375 5.761719 5.234375 5.761719 C 5.234375 5.761719 5.253906 5.667969 5.179688 5.667969 C 5.101562 5.667969 5.140625 5.792969 5.140625 5.792969 C 5.046875 5.792969 5 5.988281 5 5.988281 L 4.945312 5.988281 L 4.839844 6.453125 L 4.898438 6.65625 L 4.71875 6.496094 L 4.71875 6.796875 L 4.566406 6.796875 L 4.566406 6.703125 L 4.492188 6.703125 L 4.492188 6.898438 L 4.398438 6.816406 L 4.398438 7.433594 L 4.511719 7.546875 L 4.511719 8.214844 L 4.410156 8.355469 L 4.265625 8.355469 L 4.265625 8.542969 L 4.136719 8.542969 L 4.136719 8.789062 L 3.949219 8.789062 L 3.949219 9.164062 L 3.742188 9.164062 L 3.742188 9.539062 L 3.535156 9.539062 L 3.515625 9.953125 L 11.445312 9.953125 L 11.464844 9.539062 Z M 11.257812 9.539062 "/>
<path style=" stroke:none;fill-rule:nonzero;fill:rgb(85.882353%,49.803922%,52.54902%);fill-opacity:1;" d="M 4.832031 7.445312 L 4.832031 8.167969 L 4.492188 8.167969 L 4.410156 8.324219 L 4.832031 8.324219 L 4.832031 9.953125 L 4.972656 9.953125 L 4.972656 7.445312 Z M 10.554688 8.324219 L 10.480469 8.167969 L 10.171875 8.167969 L 10.171875 7.445312 L 10.03125 7.445312 L 10.03125 9.953125 L 10.171875 9.953125 L 10.171875 8.324219 Z M 7.128906 7.445312 L 7.128906 8.167969 L 5.589844 8.167969 L 5.589844 7.441406 L 5.453125 7.441406 L 5.453125 9.949219 L 5.589844 9.949219 L 5.589844 8.324219 L 7.128906 8.324219 L 7.128906 9.953125 L 7.273438 9.953125 L 7.273438 7.445312 Z M 9.378906 7.445312 L 9.378906 8.167969 L 7.878906 8.167969 L 7.878906 7.445312 L 7.734375 7.445312 L 7.734375 9.953125 L 7.878906 9.953125 L 7.878906 8.324219 L 9.378906 8.324219 L 9.378906 9.953125 L 9.558594 9.953125 L 9.558594 7.445312 Z M 9.378906 7.445312 "/>
</g>
</svg>
