<?xml version="1.0" encoding="UTF-8"?>
<svg xmlns="http://www.w3.org/2000/svg" xmlns:xlink="http://www.w3.org/1999/xlink" width="15pt" height="15pt" viewBox="0 0 15 15" version="1.1">
<g id="surface1">
<path style=" stroke:none;fill-rule:nonzero;fill:rgb(0%,58.431373%,26.27451%);fill-opacity:1;" d="M 15 11.25 C 15 12.171875 14.253906 12.917969 13.332031 12.917969 L 1.667969 12.917969 C 0.746094 12.917969 0 12.171875 0 11.25 L 0 3.75 C 0 2.828125 0.746094 2.082031 1.667969 2.082031 L 13.332031 2.082031 C 14.253906 2.082031 15 2.828125 15 3.75 Z M 15 11.25 "/>
<path style=" stroke:none;fill-rule:nonzero;fill:rgb(92.941176%,25.490196%,20.784314%);fill-opacity:1;" d="M 0 5.417969 L 15 5.417969 L 15 9.582031 L 0 9.582031 Z M 0 5.417969 "/>
<path style=" stroke:none;fill-rule:nonzero;fill:rgb(0%,20.784314%,67.843137%);fill-opacity:1;" d="M 13.332031 2.082031 L 1.667969 2.082031 C 0.746094 2.082031 0 2.828125 0 3.75 L 0 5.417969 L 15 5.417969 L 15 3.75 C 15 2.828125 14.253906 2.082031 13.332031 2.082031 Z M 13.332031 2.082031 "/>
<path style=" stroke:none;fill-rule:nonzero;fill:rgb(7.843137%,7.843137%,7.843137%);fill-opacity:1;" d="M 6.316406 3.6875 C 4.210938 3.191406 2.101562 4.496094 1.605469 6.601562 C 1.105469 8.707031 2.410156 10.816406 4.515625 11.3125 C 6.621094 11.8125 8.730469 10.507812 9.230469 8.402344 C 9.726562 6.296875 8.421875 4.183594 6.316406 3.6875 Z M 6.316406 3.6875 "/>
<path style=" stroke:none;fill-rule:nonzero;fill:rgb(98.039216%,90.196078%,0%);fill-opacity:1;" d="M 9.167969 7.5 C 9.167969 9.570312 7.488281 11.25 5.417969 11.25 C 3.34375 11.25 1.667969 9.570312 1.667969 7.5 C 1.667969 5.429688 3.34375 3.75 5.417969 3.75 C 7.488281 3.75 9.167969 5.429688 9.167969 7.5 Z M 9.167969 7.5 "/>
<path style=" stroke:none;fill-rule:nonzero;fill:rgb(7.843137%,7.843137%,7.843137%);fill-opacity:1;" d="M 5.363281 3.753906 L 5.496094 3.753906 L 5.496094 11.246094 L 5.363281 11.246094 Z M 5.363281 3.753906 "/>
<path style=" stroke:none;fill-rule:nonzero;fill:rgb(7.843137%,7.843137%,7.843137%);fill-opacity:1;" d="M 5.9375 6.132812 C 5.9375 6.414062 5.710938 6.640625 5.429688 6.640625 C 5.148438 6.640625 4.921875 6.414062 4.921875 6.132812 C 4.921875 5.851562 5.148438 5.625 5.429688 5.625 C 5.710938 5.625 5.9375 5.851562 5.9375 6.132812 Z M 5.847656 9.277344 C 5.847656 9.605469 5.660156 9.871094 5.429688 9.871094 C 5.199219 9.871094 5.011719 9.605469 5.011719 9.277344 C 5.011719 8.949219 5.199219 8.683594 5.429688 8.683594 C 5.660156 8.683594 5.847656 8.949219 5.847656 9.277344 Z M 5.9375 7.617188 C 5.9375 7.785156 5.710938 7.921875 5.429688 7.921875 C 5.148438 7.921875 4.921875 7.785156 4.921875 7.617188 C 4.921875 7.449219 5.148438 7.3125 5.429688 7.3125 C 5.710938 7.3125 5.9375 7.449219 5.9375 7.617188 Z M 4.871094 5.417969 C 4.871094 5.417969 4.816406 5.050781 4.921875 4.894531 C 5.027344 4.738281 5.300781 4.597656 5.519531 4.542969 C 5.742188 4.492188 6.042969 4.167969 6.042969 4.167969 C 6.042969 4.167969 6.003906 4.648438 5.636719 4.949219 C 5.273438 5.246094 4.871094 5.417969 4.871094 5.417969 Z M 4.550781 6.15625 C 4.550781 6.15625 4.753906 6.285156 4.804688 6.480469 C 4.855469 6.675781 5 6.886719 5.417969 6.886719 L 5.417969 7.121094 C 5.417969 7.121094 5.066406 7.144531 4.871094 7.066406 C 4.675781 6.988281 4.621094 6.625 4.621094 6.496094 C 4.621094 6.363281 4.550781 6.15625 4.550781 6.15625 Z M 6.296875 6.15625 C 6.296875 6.15625 6.09375 6.285156 6.042969 6.480469 C 5.988281 6.675781 5.847656 6.886719 5.429688 6.886719 L 5.429688 7.121094 C 5.429688 7.121094 5.78125 7.144531 5.976562 7.066406 C 6.171875 6.988281 6.222656 6.625 6.222656 6.496094 C 6.222656 6.363281 6.296875 6.15625 6.296875 6.15625 Z M 6.296875 6.15625 "/>
<path style=" stroke:none;fill-rule:nonzero;fill:rgb(7.843137%,7.843137%,7.843137%);fill-opacity:1;" d="M 6.222656 8.828125 C 6.222656 8.699219 6.164062 8.332031 5.96875 8.253906 C 5.773438 8.175781 5.417969 8.148438 5.417969 8.148438 C 5.417969 8.148438 5.066406 8.175781 4.871094 8.253906 C 4.675781 8.332031 4.621094 8.699219 4.621094 8.828125 C 4.621094 8.957031 4.550781 9.582031 4.550781 9.582031 C 4.550781 9.582031 4.824219 9.125 4.875 8.929688 C 4.929688 8.734375 5.144531 8.492188 5.417969 8.492188 C 5.695312 8.492188 5.917969 8.726562 5.96875 8.921875 C 6.023438 9.117188 6.292969 9.582031 6.292969 9.582031 C 6.292969 9.582031 6.222656 8.957031 6.222656 8.828125 Z M 5.417969 10 L 5.417969 11.25 C 5.417969 11.25 5.050781 11.289062 4.53125 11.152344 C 4.011719 11.015625 3.914062 10.964844 3.914062 10.964844 C 3.914062 10.964844 4.441406 10.433594 4.675781 10.234375 C 4.949219 10 5.417969 10 5.417969 10 Z M 5.417969 10 L 5.417969 11.25 C 5.417969 11.25 5.78125 11.289062 6.300781 11.152344 C 6.824219 11.015625 6.921875 10.964844 6.921875 10.964844 C 6.921875 10.964844 6.390625 10.433594 6.160156 10.234375 C 5.886719 10 5.417969 10 5.417969 10 Z M 5.417969 10 "/>
</g>
</svg>
