<?xml version="1.0" encoding="UTF-8"?>
<svg xmlns="http://www.w3.org/2000/svg" xmlns:xlink="http://www.w3.org/1999/xlink" width="15pt" height="15pt" viewBox="0 0 15 15" version="1.1">
<g id="surface1">
<path style=" stroke:none;fill-rule:nonzero;fill:rgb(0%,57.254902%,78.431373%);fill-opacity:1;" d="M 13.332031 2.082031 L 4.0625 2.082031 L 4.0625 12.917969 L 13.332031 12.917969 C 14.253906 12.917969 15 12.171875 15 11.25 L 15 3.75 C 15 2.828125 14.253906 2.082031 13.332031 2.082031 Z M 13.332031 2.082031 "/>
<path style=" stroke:none;fill-rule:nonzero;fill:rgb(100%,80%,30.196078%);fill-opacity:1;" d="M 14.0625 5.714844 C 13.566406 5.546875 13.007812 5.519531 13.007812 5.519531 L 12.644531 6.238281 C 12.644531 6.238281 13.722656 6.261719 13.722656 6.328125 C 13.722656 6.371094 13.476562 6.78125 13.324219 7.03125 C 13.246094 7.003906 13.148438 6.992188 13.035156 6.992188 C 12.566406 6.992188 12.382812 7.097656 12.1875 7.382812 C 11.992188 7.671875 12.1875 7.785156 12.1875 7.785156 C 12.1875 7.785156 11.945312 8.324219 11.042969 8.621094 L 11.339844 7.59375 C 11.675781 7.539062 11.964844 7.710938 11.964844 7.710938 C 11.964844 7.710938 11.746094 7.058594 12.019531 6.082031 C 12.292969 5.105469 13.308594 4.375 13.308594 4.375 L 12.171875 4.710938 L 12.460938 3.710938 C 12.460938 3.710938 12.605469 3.398438 12.460938 3.308594 C 12.367188 3.25 12.320312 3.375 12.296875 3.472656 C 12.195312 3.445312 12.023438 3.417969 11.835938 3.503906 C 11.546875 3.632812 10.886719 3.445312 10.886719 3.445312 C 10.886719 3.445312 11.144531 3.738281 11.339844 3.789062 C 11.132812 3.894531 10.730469 3.855469 10.730469 3.855469 C 10.730469 3.855469 11.222656 4.140625 11.554688 4.035156 C 11.777344 3.96875 12.019531 3.960938 12.160156 3.964844 L 11.917969 4.785156 L 10.882812 5.089844 C 10.882812 5.089844 10.414062 5.46875 10.257812 6.574219 C 10.101562 7.683594 10.664062 8.503906 10.664062 8.503906 C 10.664062 8.503906 10.605469 7.96875 11.050781 7.703125 L 10.757812 8.699219 C 10.632812 8.730469 10.503906 8.753906 10.355469 8.773438 C 10.351562 8.765625 9.816406 7.5625 9.90625 6.550781 C 10 5.535156 10.882812 4.496094 10.882812 4.496094 L 9.726562 4.917969 L 10.132812 3.503906 C 10.132812 3.503906 10.390625 3.332031 10.167969 3.230469 C 9.949219 3.125 9.992188 3.457031 9.992188 3.457031 C 9.886719 3.4375 9.742188 3.433594 9.585938 3.503906 C 9.300781 3.632812 8.636719 3.445312 8.636719 3.445312 C 8.636719 3.445312 8.898438 3.738281 9.09375 3.789062 C 8.882812 3.894531 8.480469 3.855469 8.480469 3.855469 C 8.480469 3.855469 8.976562 4.140625 9.308594 4.035156 C 9.519531 3.96875 9.714844 3.960938 9.824219 3.960938 L 9.476562 5.007812 L 8.425781 5.390625 C 8.425781 5.390625 8.242188 5.652344 7.863281 6.40625 C 7.488281 7.160156 8.019531 8.242188 8.019531 8.242188 C 8.019531 8.242188 8.179688 8.003906 8.511719 7.933594 L 8.308594 8.546875 C 7.472656 8.164062 7.292969 7.5 7.292969 7.5 C 7.292969 7.5 7.433594 7.472656 7.433594 7.316406 C 7.433594 7.167969 7.371094 7.089844 6.9375 7.085938 L 7.042969 6.710938 C 7.230469 6.820312 7.371094 6.992188 7.371094 6.992188 C 7.371094 6.992188 7.1875 6.316406 7.566406 5.636719 C 7.941406 4.960938 8.828125 4.375 8.867188 4.375 C 8.886719 4.375 8.21875 4.566406 7.59375 4.742188 L 7.855469 3.808594 C 7.855469 3.808594 8.046875 3.527344 7.839844 3.464844 C 7.628906 3.398438 7.664062 3.757812 7.664062 3.757812 C 7.566406 3.746094 7.441406 3.75 7.308594 3.808594 C 7.023438 3.941406 6.359375 3.753906 6.359375 3.753906 C 6.359375 3.753906 6.617188 4.042969 6.8125 4.097656 C 6.605469 4.199219 6.203125 4.160156 6.203125 4.160156 C 6.203125 4.160156 6.695312 4.449219 7.027344 4.34375 C 7.222656 4.285156 7.398438 4.269531 7.515625 4.269531 L 7.359375 4.808594 L 6.535156 5.039062 C 6.535156 5.039062 6.367188 5.300781 6.171875 5.925781 C 5.976562 6.550781 6.316406 7.058594 6.316406 7.058594 C 6.316406 7.058594 6.417969 6.617188 6.746094 6.617188 C 6.777344 6.617188 6.804688 6.621094 6.835938 6.628906 L 6.703125 7.089844 C 6.390625 7.113281 6.339844 7.199219 6.339844 7.332031 C 6.339844 7.488281 6.511719 7.5 6.511719 7.5 C 6.511719 7.5 6.472656 7.773438 6.574219 8.113281 C 6.679688 8.449219 6.445312 8.386719 6.054688 8.191406 C 6.027344 8.179688 6.003906 8.171875 5.976562 8.160156 L 5.980469 8.160156 L 5 7.722656 C 5 7.722656 4.792969 7.421875 4.6875 7.628906 C 4.582031 7.839844 4.921875 7.886719 4.921875 7.886719 L 5.484375 8.167969 C 5.375 8.226562 5.320312 8.316406 5.378906 8.410156 C 5.507812 8.621094 5.792969 8.410156 6.378906 8.984375 C 6.578125 9.175781 7.007812 9.640625 7.640625 10.042969 C 7.753906 10.113281 13.171875 9.878906 13.132812 9.78125 C 13.039062 9.539062 12.832031 9.109375 12.550781 8.996094 C 13.175781 8.4375 13.214844 7.785156 13.214844 7.785156 C 13.214844 7.785156 13.386719 7.785156 13.527344 7.5 C 13.601562 7.355469 13.59375 7.230469 13.511719 7.136719 C 13.710938 6.75 14.199219 5.804688 14.324219 5.585938 C 14.480469 5.3125 14.324219 5.183594 14.0625 5.714844 Z M 9.6875 8.816406 C 9.273438 8.816406 8.929688 8.757812 8.644531 8.671875 L 8.859375 7.933594 C 8.898438 7.941406 8.9375 7.941406 8.984375 7.957031 C 9.648438 8.136719 10.351562 8.769531 10.359375 8.773438 C 10.15625 8.800781 9.933594 8.816406 9.6875 8.816406 Z M 9.6875 8.816406 "/>
<path style=" stroke:none;fill-rule:nonzero;fill:rgb(0%,0%,0%);fill-opacity:1;" d="M 14.453125 9.597656 C 14.128906 9.363281 13.828125 9.441406 13.761719 9.667969 C 13.699219 9.894531 13.398438 9.792969 13.074219 9.558594 C 12.746094 9.324219 12.527344 9.363281 12.460938 9.621094 C 12.394531 9.882812 12.03125 9.855469 11.691406 9.609375 C 11.355469 9.363281 11.015625 9.542969 10.886719 9.730469 C 10.753906 9.914062 10.652344 9.933594 10.234375 9.675781 C 9.816406 9.414062 9.519531 9.570312 9.402344 9.792969 C 9.285156 10.011719 9.113281 9.960938 8.761719 9.71875 C 8.410156 9.480469 8.085938 9.570312 7.917969 9.71875 C 7.746094 9.871094 7.511719 9.921875 7.199219 9.71875 C 6.886719 9.519531 6.640625 9.53125 6.484375 9.691406 C 6.328125 9.851562 6.144531 10.089844 5.652344 9.707031 C 5.15625 9.324219 4.894531 9.648438 4.648438 9.816406 C 4.402344 9.988281 4.167969 9.558594 4.167969 9.558594 L 4.167969 9.832031 C 4.167969 9.832031 4.402344 10.261719 4.648438 10.089844 C 4.894531 9.921875 5.15625 9.597656 5.652344 9.980469 C 6.144531 10.363281 6.328125 10.128906 6.484375 9.964844 C 6.640625 9.804688 6.886719 9.792969 7.199219 9.996094 C 7.511719 10.195312 7.746094 10.144531 7.917969 9.996094 C 8.085938 9.84375 8.410156 9.753906 8.761719 9.996094 C 9.113281 10.234375 9.285156 10.285156 9.402344 10.066406 C 9.519531 9.84375 9.8125 9.6875 10.234375 9.949219 C 10.652344 10.207031 10.753906 10.191406 10.886719 10.003906 C 11.015625 9.816406 11.355469 9.636719 11.691406 9.882812 C 12.03125 10.128906 12.394531 10.15625 12.460938 9.894531 C 12.527344 9.636719 12.746094 9.597656 13.074219 9.832031 C 13.398438 10.066406 13.699219 10.167969 13.761719 9.941406 C 13.828125 9.714844 14.128906 9.636719 14.453125 9.871094 C 14.777344 10.105469 15 10 15 10 L 15 9.726562 C 15 9.726562 14.777344 9.832031 14.453125 9.597656 Z M 14.453125 9.597656 "/>
<path style=" stroke:none;fill-rule:nonzero;fill:rgb(73.333333%,86.666667%,96.078431%);fill-opacity:1;" d="M 14.453125 9.871094 C 14.128906 9.636719 13.828125 9.714844 13.761719 9.941406 C 13.699219 10.167969 13.398438 10.066406 13.074219 9.832031 C 12.746094 9.597656 12.527344 9.636719 12.460938 9.894531 C 12.394531 10.15625 12.03125 10.128906 11.691406 9.882812 C 11.355469 9.636719 11.015625 9.816406 10.886719 10.003906 C 10.753906 10.191406 10.652344 10.207031 10.234375 9.949219 C 9.816406 9.6875 9.519531 9.84375 9.402344 10.066406 C 9.285156 10.285156 9.113281 10.234375 8.761719 9.996094 C 8.410156 9.753906 8.085938 9.84375 7.917969 9.996094 C 7.746094 10.144531 7.511719 10.195312 7.199219 9.996094 C 6.886719 9.792969 6.640625 9.804688 6.484375 9.964844 C 6.328125 10.128906 6.144531 10.363281 5.652344 9.980469 C 5.15625 9.597656 4.894531 9.921875 4.648438 10.089844 C 4.402344 10.261719 4.167969 9.832031 4.167969 9.832031 L 4.167969 10.089844 C 4.167969 10.089844 4.402344 10.519531 4.648438 10.351562 C 4.894531 10.183594 5.15625 9.859375 5.652344 10.242188 C 6.144531 10.625 6.328125 10.386719 6.484375 10.226562 C 6.640625 10.066406 6.886719 10.054688 7.199219 10.253906 C 7.511719 10.457031 7.746094 10.40625 7.917969 10.253906 C 8.085938 10.105469 8.410156 10.015625 8.761719 10.253906 C 9.113281 10.496094 9.285156 10.546875 9.402344 10.324219 C 9.519531 10.105469 9.8125 9.949219 10.234375 10.207031 C 10.652344 10.46875 10.753906 10.449219 10.886719 10.265625 C 11.015625 10.078125 11.355469 9.894531 11.691406 10.144531 C 12.03125 10.390625 12.394531 10.417969 12.460938 10.15625 C 12.527344 9.894531 12.746094 9.855469 13.074219 10.089844 C 13.398438 10.324219 13.699219 10.429688 13.761719 10.203125 C 13.828125 9.972656 14.128906 9.894531 14.453125 10.128906 C 14.777344 10.363281 15 10.261719 15 10.261719 L 15 10 C 15 10 14.777344 10.105469 14.453125 9.871094 Z M 5.066406 10.820312 C 5.285156 10.570312 5.625 10.597656 5.886719 10.820312 C 6.144531 11.042969 6.261719 10.875 6.511719 10.730469 C 6.757812 10.585938 7.109375 10.578125 7.1875 10.785156 C 7.265625 10.988281 6.863281 10.707031 6.613281 10.925781 C 6.367188 11.144531 5.964844 11.210938 5.675781 10.925781 C 5.386719 10.644531 4.871094 11.042969 5.066406 10.820312 Z M 7.96875 10.871094 C 8.207031 10.953125 8.527344 10.976562 8.816406 10.792969 C 9.101562 10.613281 9.308594 10.695312 9.621094 10.949219 C 9.933594 11.199219 10.167969 11.113281 10.457031 10.949219 C 10.742188 10.78125 10.976562 10.574219 11.378906 10.753906 C 11.785156 10.9375 11.980469 10.957031 12.136719 10.894531 C 12.292969 10.832031 12.136719 11.105469 11.746094 11.042969 C 11.355469 10.976562 11.082031 10.730469 10.730469 10.964844 C 10.378906 11.195312 9.921875 11.417969 9.558594 11.105469 C 9.191406 10.792969 8.996094 10.835938 8.777344 10.972656 C 8.554688 11.105469 8.308594 11.121094 8.175781 11.054688 C 8.046875 10.988281 7.777344 10.804688 7.96875 10.871094 Z M 12.980469 10.871094 C 13.132812 10.960938 13.292969 10.984375 13.449219 10.871094 C 13.605469 10.753906 13.761719 10.847656 13.957031 10.957031 C 14.152344 11.066406 14.191406 11.191406 13.957031 11.117188 C 13.722656 11.042969 13.632812 10.875 13.449219 10.976562 C 13.269531 11.082031 13.074219 11.109375 12.980469 10.976562 C 12.890625 10.847656 12.867188 10.800781 12.980469 10.871094 Z M 6.277344 11.484375 C 6.488281 11.371094 6.835938 11.210938 7.082031 11.484375 C 7.332031 11.757812 7.449219 11.613281 7.644531 11.484375 C 7.839844 11.355469 8.007812 11.199219 8.308594 11.394531 C 8.605469 11.589844 8.75 11.535156 8.867188 11.46875 C 8.984375 11.40625 9.089844 11.445312 8.867188 11.574219 C 8.644531 11.707031 8.425781 11.691406 8.253906 11.5625 C 8.085938 11.433594 7.941406 11.367188 7.722656 11.589844 C 7.5 11.808594 7.214844 11.875 7.003906 11.667969 C 6.796875 11.457031 6.730469 11.441406 6.523438 11.546875 C 6.316406 11.652344 6.0625 11.597656 6.277344 11.484375 Z M 10.261719 11.546875 C 10.523438 11.410156 10.871094 11.171875 11.160156 11.445312 C 11.445312 11.71875 11.613281 11.589844 11.847656 11.433594 C 12.082031 11.277344 12.304688 11.050781 12.644531 11.320312 C 12.980469 11.589844 13.203125 11.5625 13.371094 11.484375 C 13.542969 11.40625 13.464844 11.554688 13.253906 11.605469 C 13.046875 11.652344 12.761719 11.652344 12.566406 11.484375 C 12.371094 11.316406 12.1875 11.324219 11.980469 11.546875 C 11.769531 11.769531 11.25 11.832031 11.054688 11.632812 C 10.859375 11.433594 10.613281 11.550781 10.429688 11.628906 C 10.246094 11.707031 10 11.6875 10.261719 11.546875 Z M 4.792969 11.753906 C 4.945312 11.609375 5.15625 11.667969 5.417969 11.925781 C 5.675781 12.1875 5.792969 12.136719 6.027344 12.003906 C 6.261719 11.875 6.574219 11.847656 6.707031 11.992188 C 6.835938 12.136719 6.785156 12.179688 6.628906 12.113281 C 6.472656 12.042969 6.320312 12.003906 6.109375 12.1875 C 5.898438 12.371094 5.519531 12.410156 5.339844 12.1875 C 5.15625 11.964844 5.050781 11.835938 4.910156 11.886719 C 4.765625 11.941406 4.582031 11.945312 4.792969 11.753906 Z M 8.398438 12.007812 C 8.550781 11.84375 8.855469 11.710938 9.152344 12.007812 C 9.453125 12.304688 9.503906 12.265625 9.738281 12.109375 C 9.972656 11.953125 10.246094 11.773438 10.535156 12.039062 C 10.820312 12.304688 10.9375 12.253906 11.183594 12.109375 C 11.433594 11.964844 11.652344 11.839844 11.925781 12.039062 C 12.199219 12.238281 12.40625 12.292969 12.640625 12.148438 C 12.875 12.003906 12.929688 12.070312 12.707031 12.253906 C 12.523438 12.402344 12.195312 12.460938 11.964844 12.238281 C 11.679688 11.960938 11.496094 12.042969 11.261719 12.214844 C 11.027344 12.382812 10.664062 12.421875 10.453125 12.199219 C 10.246094 11.980469 10.101562 12.042969 9.90625 12.199219 C 9.710938 12.355469 9.375 12.515625 9.140625 12.1875 C 8.902344 11.859375 8.671875 12.003906 8.554688 12.070312 C 8.4375 12.136719 8.175781 12.246094 8.398438 12.007812 Z M 8.398438 12.007812 "/>
<path style=" stroke:none;fill-rule:nonzero;fill:rgb(79.215686%,0%,0%);fill-opacity:1;" d="M 0 9.167969 L 0 11.25 C 0 12.171875 0.746094 12.917969 1.667969 12.917969 L 4.167969 12.917969 L 4.167969 9.167969 Z M 0 9.167969 "/>
<path style=" stroke:none;fill-rule:nonzero;fill:rgb(100%,80%,30.196078%);fill-opacity:1;" d="M 3.390625 10.265625 C 3.222656 10.332031 3.066406 10.3125 2.859375 10.074219 C 2.816406 10.027344 2.769531 9.996094 2.722656 9.972656 C 2.824219 9.996094 2.953125 10.042969 3.058594 10.050781 C 3.273438 10.070312 3.488281 9.914062 3.488281 9.914062 C 3.488281 9.914062 3.390625 9.835938 3.132812 9.765625 C 2.917969 9.707031 2.5625 9.75 2.4375 9.917969 C 2.335938 9.925781 2.238281 9.945312 2.160156 9.953125 C 2.027344 9.972656 1.867188 9.910156 1.867188 9.910156 C 1.867188 9.910156 1.84375 9.589844 1.476562 9.589844 C 1.160156 9.589844 1.152344 9.882812 1.152344 9.882812 C 1.152344 9.882812 0.988281 9.960938 0.988281 9.730469 C 0.988281 9.503906 0.808594 9.515625 0.648438 9.515625 C 0.488281 9.515625 0.449219 9.503906 0.449219 9.714844 C 0.449219 9.921875 0.566406 9.882812 0.636719 9.949219 C 0.636719 9.949219 0.710938 10.3125 1.140625 10.261719 C 1.160156 10.296875 1.164062 10.382812 1.164062 10.382812 C 1.164062 10.382812 1.085938 10.40625 0.964844 10.378906 C 0.777344 10.335938 0.644531 10.3125 0.644531 10.566406 C 0.644531 10.820312 0.910156 10.75 1.289062 10.75 C 1.667969 10.75 1.6875 10.515625 1.6875 10.515625 C 1.6875 10.515625 1.863281 10.464844 2.070312 10.476562 C 2.019531 10.519531 2.046875 10.632812 2.097656 10.683594 C 2.195312 10.792969 2.382812 10.75 2.527344 10.75 C 2.667969 10.75 2.734375 10.636719 2.703125 10.488281 C 2.839844 10.585938 3.214844 10.402344 3.171875 10.488281 C 3.125 10.574219 3.234375 10.78125 3.523438 10.664062 C 3.808594 10.546875 3.5625 10.203125 3.390625 10.265625 Z M 3.390625 10.265625 "/>
<path style=" stroke:none;fill-rule:nonzero;fill:rgb(0%,0%,0%);fill-opacity:1;" d="M 1.523438 10.105469 C 1.523438 10.035156 1.46875 9.980469 1.402344 9.980469 C 1.335938 9.980469 1.28125 10.035156 1.28125 10.105469 C 1.28125 10.171875 1.335938 10.226562 1.402344 10.226562 C 1.46875 10.226562 1.523438 10.171875 1.523438 10.105469 Z M 1.523438 10.105469 "/>
<path style=" stroke:none;fill-rule:nonzero;fill:rgb(0%,0%,0%);fill-opacity:1;" d="M 1.402344 9.871094 C 1.402344 9.902344 1.359375 9.929688 1.308594 9.929688 C 1.257812 9.929688 1.21875 9.902344 1.21875 9.871094 C 1.21875 9.84375 1.257812 9.816406 1.308594 9.816406 C 1.363281 9.816406 1.402344 9.84375 1.402344 9.871094 Z M 1.402344 9.871094 "/>
<path style=" stroke:none;fill-rule:nonzero;fill:rgb(0%,0%,0%);fill-opacity:1;" d="M 1.617188 9.871094 C 1.617188 9.84375 1.574219 9.816406 1.523438 9.816406 C 1.472656 9.816406 1.429688 9.84375 1.429688 9.871094 C 1.429688 9.902344 1.472656 9.929688 1.523438 9.929688 C 1.574219 9.929688 1.617188 9.902344 1.617188 9.871094 Z M 1.617188 9.871094 "/>
<path style=" stroke:none;fill-rule:nonzero;fill:rgb(100%,80%,30.196078%);fill-opacity:1;" d="M 3.390625 11.730469 C 3.222656 11.796875 3.066406 11.777344 2.859375 11.539062 C 2.816406 11.492188 2.769531 11.460938 2.722656 11.433594 C 2.824219 11.460938 2.953125 11.507812 3.058594 11.515625 C 3.273438 11.535156 3.488281 11.378906 3.488281 11.378906 C 3.488281 11.378906 3.390625 11.300781 3.132812 11.230469 C 2.917969 11.171875 2.5625 11.214844 2.4375 11.382812 C 2.335938 11.390625 2.238281 11.410156 2.160156 11.417969 C 2.027344 11.4375 1.867188 11.375 1.867188 11.375 C 1.867188 11.375 1.84375 11.054688 1.476562 11.054688 C 1.160156 11.054688 1.152344 11.347656 1.152344 11.347656 C 1.152344 11.347656 0.988281 11.425781 0.988281 11.195312 C 0.988281 10.96875 0.808594 10.980469 0.648438 10.980469 C 0.488281 10.980469 0.449219 10.96875 0.449219 11.179688 C 0.449219 11.386719 0.566406 11.347656 0.636719 11.414062 C 0.636719 11.414062 0.710938 11.777344 1.140625 11.726562 C 1.160156 11.761719 1.164062 11.847656 1.164062 11.847656 C 1.164062 11.847656 1.085938 11.871094 0.964844 11.84375 C 0.777344 11.800781 0.644531 11.777344 0.644531 12.03125 C 0.644531 12.285156 0.910156 12.214844 1.289062 12.214844 C 1.667969 12.214844 1.6875 11.980469 1.6875 11.980469 C 1.6875 11.980469 1.863281 11.925781 2.070312 11.941406 C 2.019531 11.984375 2.046875 12.097656 2.097656 12.148438 C 2.195312 12.257812 2.382812 12.214844 2.527344 12.214844 C 2.667969 12.214844 2.734375 12.101562 2.703125 11.953125 C 2.839844 12.050781 3.214844 11.867188 3.171875 11.953125 C 3.125 12.039062 3.234375 12.246094 3.523438 12.128906 C 3.808594 12.011719 3.5625 11.667969 3.390625 11.730469 Z M 3.390625 11.730469 "/>
<path style=" stroke:none;fill-rule:nonzero;fill:rgb(0%,0%,0%);fill-opacity:1;" d="M 1.523438 11.570312 C 1.523438 11.636719 1.46875 11.691406 1.402344 11.691406 C 1.335938 11.691406 1.28125 11.636719 1.28125 11.570312 C 1.28125 11.5 1.335938 11.445312 1.402344 11.445312 C 1.46875 11.445312 1.523438 11.5 1.523438 11.570312 Z M 1.402344 11.339844 C 1.402344 11.367188 1.359375 11.394531 1.308594 11.394531 C 1.257812 11.394531 1.21875 11.367188 1.21875 11.339844 C 1.21875 11.308594 1.257812 11.28125 1.308594 11.28125 C 1.363281 11.28125 1.402344 11.308594 1.402344 11.339844 Z M 1.617188 11.339844 C 1.617188 11.367188 1.574219 11.394531 1.523438 11.394531 C 1.472656 11.394531 1.429688 11.367188 1.429688 11.339844 C 1.429688 11.308594 1.472656 11.28125 1.523438 11.28125 C 1.574219 11.28125 1.617188 11.308594 1.617188 11.339844 Z M 1.617188 11.339844 "/>
<path style=" stroke:none;fill-rule:nonzero;fill:rgb(93.333333%,93.333333%,93.333333%);fill-opacity:1;" d="M 0 5.832031 L 4.167969 5.832031 L 4.167969 9.167969 L 0 9.167969 Z M 0 5.832031 "/>
<path style=" stroke:none;fill-rule:nonzero;fill:rgb(16.078431%,18.431373%,20%);fill-opacity:1;" d="M 0.867188 7.214844 L 0.75 7.039062 C 0.746094 6.894531 0.722656 6.785156 0.695312 6.785156 C 0.667969 6.785156 0.648438 6.894531 0.644531 7.039062 L 0.527344 7.214844 C 0.5 7.253906 0.523438 7.289062 0.574219 7.289062 L 0.65625 7.289062 C 0.664062 7.351562 0.679688 7.394531 0.695312 7.394531 C 0.714844 7.394531 0.726562 7.351562 0.738281 7.289062 L 0.816406 7.289062 C 0.871094 7.289062 0.890625 7.257812 0.867188 7.214844 Z M 0.753906 6.605469 C 0.753906 6.703125 0.726562 6.691406 0.695312 6.691406 C 0.667969 6.691406 0.640625 6.703125 0.640625 6.605469 C 0.640625 6.503906 0.667969 6.425781 0.695312 6.425781 C 0.726562 6.425781 0.753906 6.503906 0.753906 6.605469 Z M 0.832031 6.804688 C 0.734375 6.804688 0.742188 6.777344 0.742188 6.75 C 0.742188 6.71875 0.734375 6.691406 0.832031 6.691406 C 0.929688 6.691406 1.011719 6.71875 1.011719 6.75 C 1.011719 6.78125 0.929688 6.804688 0.832031 6.804688 Z M 0.5625 6.804688 C 0.660156 6.804688 0.648438 6.777344 0.648438 6.75 C 0.648438 6.71875 0.660156 6.691406 0.5625 6.691406 C 0.460938 6.691406 0.382812 6.71875 0.382812 6.75 C 0.382812 6.78125 0.460938 6.804688 0.5625 6.804688 Z M 2.175781 7.214844 L 2.058594 7.039062 C 2.054688 6.894531 2.035156 6.785156 2.007812 6.785156 C 1.980469 6.785156 1.957031 6.894531 1.953125 7.039062 L 1.835938 7.214844 C 1.8125 7.253906 1.832031 7.289062 1.886719 7.289062 L 1.964844 7.289062 C 1.976562 7.351562 1.988281 7.394531 2.007812 7.394531 C 2.023438 7.394531 2.039062 7.351562 2.046875 7.289062 L 2.128906 7.289062 C 2.179688 7.289062 2.203125 7.257812 2.175781 7.214844 Z M 2.0625 6.605469 C 2.0625 6.703125 2.035156 6.691406 2.007812 6.691406 C 1.976562 6.691406 1.953125 6.703125 1.953125 6.605469 C 1.953125 6.503906 1.976562 6.425781 2.007812 6.425781 C 2.039062 6.425781 2.0625 6.503906 2.0625 6.605469 Z M 2.144531 6.804688 C 2.042969 6.804688 2.054688 6.777344 2.054688 6.75 C 2.054688 6.71875 2.042969 6.691406 2.144531 6.691406 C 2.242188 6.691406 2.320312 6.71875 2.320312 6.75 C 2.320312 6.78125 2.242188 6.804688 2.144531 6.804688 Z M 1.871094 6.804688 C 1.96875 6.804688 1.960938 6.777344 1.960938 6.75 C 1.960938 6.71875 1.96875 6.691406 1.871094 6.691406 C 1.773438 6.691406 1.691406 6.71875 1.691406 6.75 C 1.691406 6.78125 1.773438 6.804688 1.871094 6.804688 Z M 3.515625 7.214844 L 3.402344 7.039062 C 3.398438 6.894531 3.375 6.785156 3.347656 6.785156 C 3.320312 6.785156 3.296875 6.894531 3.292969 7.039062 L 3.179688 7.214844 C 3.152344 7.253906 3.171875 7.289062 3.226562 7.289062 L 3.304688 7.289062 C 3.316406 7.351562 3.332031 7.394531 3.347656 7.394531 C 3.363281 7.394531 3.378906 7.351562 3.386719 7.289062 L 3.46875 7.289062 C 3.523438 7.289062 3.542969 7.257812 3.515625 7.214844 Z M 3.402344 6.605469 C 3.402344 6.703125 3.378906 6.691406 3.347656 6.691406 C 3.316406 6.691406 3.292969 6.703125 3.292969 6.605469 C 3.292969 6.503906 3.316406 6.425781 3.347656 6.425781 C 3.378906 6.425781 3.402344 6.503906 3.402344 6.605469 Z M 3.484375 6.804688 C 3.386719 6.804688 3.394531 6.777344 3.394531 6.75 C 3.394531 6.71875 3.386719 6.691406 3.484375 6.691406 C 3.582031 6.691406 3.660156 6.71875 3.660156 6.75 C 3.664062 6.78125 3.582031 6.804688 3.484375 6.804688 Z M 3.210938 6.804688 C 3.3125 6.804688 3.300781 6.777344 3.300781 6.75 C 3.300781 6.71875 3.3125 6.691406 3.210938 6.691406 C 3.113281 6.691406 3.035156 6.71875 3.035156 6.75 C 3.035156 6.78125 3.113281 6.804688 3.210938 6.804688 Z M 2.492188 6.125 C 2.46875 6.164062 2.488281 6.195312 2.542969 6.195312 L 2.621094 6.195312 C 2.632812 6.261719 2.644531 6.304688 2.664062 6.304688 C 2.679688 6.304688 2.695312 6.261719 2.703125 6.195312 L 2.785156 6.195312 C 2.835938 6.195312 2.859375 6.164062 2.832031 6.125 L 2.714844 5.949219 C 2.714844 5.90625 2.710938 5.867188 2.707031 5.832031 L 2.617188 5.832031 C 2.613281 5.867188 2.609375 5.90625 2.609375 5.949219 Z M 1.183594 6.125 C 1.160156 6.164062 1.179688 6.195312 1.234375 6.195312 L 1.3125 6.195312 C 1.324219 6.261719 1.335938 6.304688 1.355469 6.304688 C 1.371094 6.304688 1.386719 6.261719 1.394531 6.195312 L 1.476562 6.195312 C 1.527344 6.195312 1.550781 6.164062 1.523438 6.125 L 1.40625 5.949219 C 1.40625 5.90625 1.402344 5.867188 1.398438 5.832031 L 1.308594 5.832031 C 1.304688 5.867188 1.300781 5.90625 1.300781 5.949219 Z M 0.148438 7.679688 C 0.148438 7.777344 0.121094 7.765625 0.0898438 7.765625 C 0.0625 7.765625 0.0351562 7.777344 0.0351562 7.679688 C 0.0351562 7.578125 0.0625 7.5 0.0898438 7.5 C 0.121094 7.5 0.148438 7.578125 0.148438 7.679688 Z M 0.226562 7.878906 C 0.128906 7.878906 0.136719 7.851562 0.136719 7.824219 C 0.136719 7.792969 0.128906 7.765625 0.226562 7.765625 C 0.324219 7.765625 0.40625 7.792969 0.40625 7.824219 C 0.40625 7.855469 0.324219 7.878906 0.226562 7.878906 Z M 0.0898438 6.304688 C 0.109375 6.304688 0.121094 6.261719 0.132812 6.195312 L 0.210938 6.195312 C 0.265625 6.195312 0.285156 6.164062 0.261719 6.125 L 0.144531 5.949219 C 0.144531 5.90625 0.140625 5.867188 0.136719 5.832031 L 0.046875 5.832031 C 0.0429688 5.867188 0.0390625 5.90625 0.0390625 5.949219 L 0 6.007812 L 0 6.195312 L 0.0507812 6.195312 C 0.0585938 6.261719 0.0742188 6.304688 0.0898438 6.304688 Z M 0.0898438 8.46875 C 0.109375 8.46875 0.121094 8.425781 0.132812 8.363281 L 0.210938 8.363281 C 0.265625 8.363281 0.285156 8.328125 0.261719 8.289062 L 0.144531 8.113281 C 0.140625 7.96875 0.117188 7.859375 0.0898438 7.859375 C 0.0625 7.859375 0.0429688 7.96875 0.0390625 8.113281 L 0 8.171875 L 0 8.363281 L 0.0507812 8.363281 C 0.0585938 8.425781 0.0742188 8.46875 0.0898438 8.46875 Z M 0.0429688 7.824219 C 0.0429688 7.796875 0.046875 7.777344 0 7.769531 L 0 7.875 C 0.046875 7.867188 0.0429688 7.847656 0.0429688 7.824219 Z M 1.53125 8.289062 L 1.414062 8.117188 C 1.410156 7.96875 1.386719 7.859375 1.359375 7.859375 C 1.332031 7.859375 1.3125 7.96875 1.308594 8.117188 L 1.191406 8.289062 C 1.164062 8.332031 1.1875 8.363281 1.238281 8.363281 L 1.320312 8.363281 C 1.328125 8.425781 1.34375 8.46875 1.359375 8.46875 C 1.378906 8.46875 1.390625 8.425781 1.402344 8.363281 L 1.480469 8.363281 C 1.535156 8.363281 1.554688 8.328125 1.53125 8.289062 Z M 1.417969 7.679688 C 1.417969 7.777344 1.390625 7.765625 1.359375 7.765625 C 1.332031 7.765625 1.304688 7.777344 1.304688 7.679688 C 1.304688 7.578125 1.332031 7.5 1.359375 7.5 C 1.390625 7.5 1.417969 7.578125 1.417969 7.679688 Z M 1.496094 7.878906 C 1.398438 7.878906 1.40625 7.851562 1.40625 7.824219 C 1.40625 7.792969 1.398438 7.765625 1.496094 7.765625 C 1.59375 7.765625 1.675781 7.792969 1.675781 7.824219 C 1.675781 7.855469 1.59375 7.878906 1.496094 7.878906 Z M 1.226562 7.878906 C 1.324219 7.878906 1.3125 7.851562 1.3125 7.824219 C 1.3125 7.792969 1.324219 7.765625 1.226562 7.765625 C 1.125 7.765625 1.046875 7.792969 1.046875 7.824219 C 1.046875 7.855469 1.125 7.878906 1.226562 7.878906 Z M 2.84375 8.289062 L 2.730469 8.117188 C 2.726562 7.96875 2.703125 7.859375 2.675781 7.859375 C 2.648438 7.859375 2.625 7.96875 2.621094 8.117188 L 2.507812 8.289062 C 2.480469 8.332031 2.5 8.363281 2.554688 8.363281 L 2.632812 8.363281 C 2.644531 8.425781 2.660156 8.46875 2.675781 8.46875 C 2.691406 8.46875 2.707031 8.425781 2.714844 8.363281 L 2.796875 8.363281 C 2.851562 8.363281 2.871094 8.328125 2.84375 8.289062 Z M 2.730469 7.679688 C 2.730469 7.777344 2.707031 7.765625 2.675781 7.765625 C 2.644531 7.765625 2.621094 7.777344 2.621094 7.679688 C 2.621094 7.578125 2.644531 7.5 2.675781 7.5 C 2.707031 7.5 2.730469 7.578125 2.730469 7.679688 Z M 2.8125 7.878906 C 2.714844 7.878906 2.722656 7.851562 2.722656 7.824219 C 2.722656 7.792969 2.714844 7.765625 2.8125 7.765625 C 2.910156 7.765625 2.992188 7.792969 2.992188 7.824219 C 2.992188 7.855469 2.910156 7.878906 2.8125 7.878906 Z M 2.539062 7.878906 C 2.640625 7.878906 2.628906 7.851562 2.628906 7.824219 C 2.628906 7.792969 2.640625 7.765625 2.539062 7.765625 C 2.441406 7.765625 2.363281 7.792969 2.363281 7.824219 C 2.363281 7.855469 2.441406 7.878906 2.539062 7.878906 Z M 4.082031 7.679688 C 4.082031 7.777344 4.054688 7.765625 4.027344 7.765625 C 3.996094 7.765625 3.972656 7.777344 3.972656 7.679688 C 3.972656 7.578125 3.996094 7.5 4.027344 7.5 C 4.058594 7.5 4.082031 7.578125 4.082031 7.679688 Z M 3.835938 6.125 C 3.808594 6.164062 3.832031 6.195312 3.882812 6.195312 L 3.964844 6.195312 C 3.972656 6.261719 3.988281 6.304688 4.003906 6.304688 C 4.019531 6.304688 4.035156 6.261719 4.046875 6.195312 L 4.125 6.195312 C 4.144531 6.195312 4.15625 6.1875 4.167969 6.179688 L 4.167969 6.113281 L 4.058594 5.949219 C 4.054688 5.90625 4.054688 5.867188 4.050781 5.832031 L 3.960938 5.832031 C 3.953125 5.867188 3.953125 5.90625 3.949219 5.949219 Z M 4.027344 7.859375 C 4 7.859375 3.976562 7.96875 3.972656 8.113281 L 3.855469 8.289062 C 3.832031 8.328125 3.851562 8.363281 3.90625 8.363281 L 3.984375 8.363281 C 3.996094 8.425781 4.007812 8.46875 4.027344 8.46875 C 4.042969 8.46875 4.058594 8.425781 4.066406 8.363281 L 4.148438 8.363281 C 4.15625 8.363281 4.160156 8.355469 4.167969 8.355469 L 4.167969 8.246094 L 4.078125 8.117188 C 4.074219 7.96875 4.054688 7.859375 4.027344 7.859375 Z M 4.074219 7.824219 C 4.074219 7.851562 4.0625 7.878906 4.160156 7.878906 L 4.167969 7.878906 L 4.167969 7.769531 L 4.160156 7.765625 C 4.0625 7.769531 4.074219 7.792969 4.074219 7.824219 Z M 3.890625 7.878906 C 3.988281 7.878906 3.980469 7.851562 3.980469 7.824219 C 3.980469 7.792969 3.988281 7.765625 3.890625 7.765625 C 3.792969 7.765625 3.710938 7.792969 3.710938 7.824219 C 3.710938 7.855469 3.792969 7.878906 3.890625 7.878906 Z M 3.304688 9.167969 L 3.40625 9.167969 C 3.398438 9.054688 3.378906 8.972656 3.355469 8.972656 C 3.332031 8.972656 3.3125 9.054688 3.304688 9.167969 Z M 3.410156 8.792969 C 3.410156 8.890625 3.386719 8.882812 3.355469 8.882812 C 3.324219 8.882812 3.300781 8.890625 3.300781 8.792969 C 3.300781 8.691406 3.324219 8.613281 3.355469 8.613281 C 3.386719 8.613281 3.410156 8.691406 3.410156 8.792969 Z M 3.492188 8.992188 C 3.390625 8.992188 3.402344 8.964844 3.402344 8.9375 C 3.402344 8.90625 3.390625 8.878906 3.492188 8.878906 C 3.589844 8.878906 3.667969 8.90625 3.667969 8.9375 C 3.671875 8.96875 3.589844 8.992188 3.492188 8.992188 Z M 3.21875 8.992188 C 3.316406 8.992188 3.308594 8.964844 3.308594 8.9375 C 3.308594 8.90625 3.316406 8.878906 3.21875 8.878906 C 3.121094 8.878906 3.042969 8.90625 3.042969 8.9375 C 3.042969 8.96875 3.121094 8.992188 3.21875 8.992188 Z M 2.078125 8.792969 C 2.078125 8.890625 2.050781 8.882812 2.019531 8.882812 C 1.992188 8.882812 1.964844 8.890625 1.964844 8.792969 C 1.964844 8.691406 1.992188 8.613281 2.019531 8.613281 C 2.050781 8.613281 2.078125 8.691406 2.078125 8.792969 Z M 2.15625 8.992188 C 2.058594 8.992188 2.066406 8.964844 2.066406 8.9375 C 2.066406 8.90625 2.058594 8.878906 2.15625 8.878906 C 2.253906 8.878906 2.335938 8.90625 2.335938 8.9375 C 2.335938 8.96875 2.253906 8.992188 2.15625 8.992188 Z M 1.886719 8.992188 C 1.984375 8.992188 1.972656 8.964844 1.972656 8.9375 C 1.972656 8.90625 1.984375 8.878906 1.886719 8.878906 C 1.785156 8.878906 1.707031 8.90625 1.707031 8.9375 C 1.707031 8.96875 1.785156 8.992188 1.886719 8.992188 Z M 1.972656 9.167969 L 2.070312 9.167969 C 2.0625 9.054688 2.042969 8.972656 2.019531 8.972656 C 1.996094 8.972656 1.980469 9.054688 1.972656 9.167969 Z M 0.632812 9.167969 L 0.730469 9.167969 C 0.722656 9.054688 0.703125 8.972656 0.679688 8.972656 C 0.660156 8.972656 0.640625 9.054688 0.632812 9.167969 Z M 0.738281 8.792969 C 0.738281 8.890625 0.710938 8.882812 0.679688 8.882812 C 0.652344 8.882812 0.625 8.890625 0.625 8.792969 C 0.625 8.691406 0.652344 8.613281 0.679688 8.613281 C 0.710938 8.613281 0.738281 8.691406 0.738281 8.792969 Z M 0.816406 8.992188 C 0.71875 8.992188 0.726562 8.964844 0.726562 8.9375 C 0.726562 8.90625 0.71875 8.878906 0.816406 8.878906 C 0.914062 8.878906 0.996094 8.90625 0.996094 8.9375 C 0.996094 8.96875 0.914062 8.992188 0.816406 8.992188 Z M 0.546875 8.992188 C 0.644531 8.992188 0.632812 8.964844 0.632812 8.9375 C 0.632812 8.90625 0.644531 8.878906 0.546875 8.878906 C 0.445312 8.878906 0.367188 8.90625 0.367188 8.9375 C 0.367188 8.96875 0.445312 8.992188 0.546875 8.992188 Z M 0.546875 8.992188 "/>
<path style=" stroke:none;fill-rule:nonzero;fill:rgb(86.27451%,14.117647%,12.156863%);fill-opacity:1;" d="M 0 5.832031 L 0 3.75 C 0 2.828125 0.746094 2.082031 1.667969 2.082031 L 2.082031 2.5 L 2.5 2.082031 L 4.167969 2.082031 L 4.167969 5.832031 L 2.5 5.832031 L 2.082031 5.417969 L 1.667969 5.832031 Z M 0 5.832031 "/>
<path style=" stroke:none;fill-rule:nonzero;fill:rgb(0%,58.431373%,26.27451%);fill-opacity:1;" d="M 4.167969 2.703125 L 4.167969 2.082031 L 3.929688 2.082031 L 2.5 3.371094 L 2.082031 3.742188 L 1.667969 3.371094 L 0.636719 2.441406 L 0.632812 2.441406 C 0.472656 2.570312 0.332031 2.730469 0.226562 2.910156 L 0.230469 2.910156 L 1.152344 3.742188 L 1.664062 4.164062 L 1.152344 4.582031 L 0 5.621094 L 0 5.832031 L 0.691406 5.832031 L 1.667969 4.953125 L 2.082031 4.582031 L 2.5 4.953125 L 3.476562 5.832031 L 4.167969 5.832031 L 4.167969 5.621094 L 3.015625 4.582031 L 2.5 4.164062 L 3.015625 3.742188 Z M 4.167969 2.703125 "/>
<path style=" stroke:none;fill-rule:nonzero;fill:rgb(93.333333%,93.333333%,93.333333%);fill-opacity:1;" d="M 2.5 3.742188 L 2.5 2.082031 L 1.667969 2.082031 L 1.667969 3.742188 L 0 3.742188 L 0 4.582031 L 1.667969 4.582031 L 1.667969 5.832031 L 2.5 5.832031 L 2.5 4.582031 L 4.167969 4.582031 L 4.167969 3.742188 Z M 2.5 3.742188 "/>
</g>
</svg>
