<?xml version="1.0" encoding="UTF-8"?>
<svg xmlns="http://www.w3.org/2000/svg" xmlns:xlink="http://www.w3.org/1999/xlink" width="15pt" height="15pt" viewBox="0 0 15 15" version="1.1">
<g id="surface1">
<path style=" stroke:none;fill-rule:nonzero;fill:rgb(0%,14.117647%,49.019608%);fill-opacity:1;" d="M 13.332031 2.082031 L 1.667969 2.082031 C 1.582031 2.082031 1.496094 2.089844 1.414062 2.101562 L 1.414062 2.832031 L 0.277344 2.832031 C 0.101562 3.09375 0 3.410156 0 3.75 L 0 11.25 C 0 12.171875 0.746094 12.917969 1.667969 12.917969 L 13.332031 12.917969 C 14.253906 12.917969 15 12.171875 15 11.25 L 15 3.75 C 15 2.828125 14.253906 2.082031 13.332031 2.082031 Z M 13.332031 2.082031 "/>
<path style=" stroke:none;fill-rule:nonzero;fill:rgb(33.333333%,67.45098%,93.333333%);fill-opacity:1;" d="M 13.734375 5.207031 L 9.59375 5.207031 L 9.59375 8.339844 L 11.664062 9.175781 L 13.734375 8.339844 Z M 13.734375 5.207031 "/>
<path style=" stroke:none;fill-rule:nonzero;fill:rgb(62.352941%,11.372549%,13.333333%);fill-opacity:1;" d="M 9.59375 8.339844 C 9.597656 8.375 9.597656 8.410156 9.597656 8.445312 C 9.660156 8.957031 9.871094 9.332031 10.214844 9.640625 C 10.8125 10.171875 11.664062 10.289062 11.664062 10.417969 C 11.664062 10.289062 12.515625 10.171875 13.113281 9.640625 C 13.457031 9.332031 13.671875 8.953125 13.726562 8.445312 C 13.730469 8.410156 13.730469 8.375 13.734375 8.339844 Z M 9.59375 8.339844 "/>
<path style=" stroke:none;fill-rule:nonzero;fill:rgb(0%,0%,0%);fill-opacity:1;" d="M 11.808594 6.148438 L 12.597656 6.148438 L 12.597656 5.886719 L 11.808594 5.886719 L 11.808594 5.535156 L 11.53125 5.535156 L 11.53125 5.886719 L 10.730469 5.886719 L 10.730469 6.148438 L 11.53125 6.148438 L 11.53125 9.460938 L 11.808594 9.460938 Z M 11.808594 6.148438 "/>
<path style=" stroke:none;fill-rule:nonzero;fill:rgb(46.666667%,69.803922%,32.54902%);fill-opacity:1;" d="M 11.808594 6.535156 C 11.855469 6.496094 11.882812 6.472656 11.910156 6.476562 C 11.941406 6.480469 11.980469 6.476562 12.007812 6.46875 C 12.039062 6.460938 12.183594 6.441406 12.246094 6.460938 C 12.265625 6.464844 12.292969 6.476562 12.332031 6.511719 C 12.375 6.546875 12.4375 6.605469 12.414062 6.777344 C 12.394531 6.945312 12.402344 7.015625 12.394531 7.113281 C 12.378906 7.277344 12.339844 7.417969 12.273438 7.40625 C 12.363281 7.5625 12.371094 7.699219 12.429688 7.808594 C 12.488281 7.914062 12.527344 8.136719 12.503906 8.375 C 12.480469 8.617188 12.417969 9.152344 12.605469 9.515625 C 12.574219 9.535156 12.5 9.515625 12.429688 9.441406 C 12.363281 9.367188 12.332031 9.371094 12.277344 9.414062 C 12.105469 9.542969 11.945312 9.703125 11.707031 9.542969 C 11.65625 9.507812 11.636719 9.464844 11.675781 9.355469 C 11.777344 9.078125 11.824219 8.703125 11.808594 8.523438 Z M 11.808594 6.535156 "/>
<path style=" stroke:none;fill-rule:nonzero;fill:rgb(98.039216%,66.666667%,20.392157%);fill-opacity:1;" d="M 10.84375 8.582031 C 10.988281 8.730469 11.4375 9.207031 11.496094 9.261719 C 11.554688 9.316406 11.582031 9.3125 11.605469 9.257812 C 11.769531 8.863281 11.726562 8.363281 11.324219 7.871094 C 11.257812 8.113281 11.089844 8.269531 10.824219 8.328125 C 10.691406 8.355469 10.667969 8.441406 10.691406 8.476562 C 10.726562 8.410156 10.808594 8.40625 10.847656 8.484375 C 10.878906 8.542969 10.835938 8.621094 10.769531 8.640625 C 10.703125 8.660156 10.601562 8.660156 10.5625 8.589844 C 10.523438 8.519531 10.488281 8.355469 10.675781 8.277344 C 10.863281 8.195312 11.0625 8.109375 11.101562 7.941406 C 11.140625 7.777344 11.191406 7.695312 11.304688 7.683594 C 11.929688 8.257812 12.007812 8.902344 11.75 9.476562 C 11.6875 9.617188 11.585938 9.652344 11.519531 9.570312 C 11.453125 9.484375 10.976562 8.921875 10.734375 8.648438 C 10.789062 8.644531 10.828125 8.613281 10.84375 8.582031 Z M 10.84375 8.582031 "/>
<path style=" stroke:none;fill-rule:nonzero;fill:rgb(96.470588%,86.666667%,80.392157%);fill-opacity:1;" d="M 11.972656 6.367188 C 11.984375 6.40625 11.992188 6.457031 11.972656 6.5 C 11.949219 6.546875 11.945312 6.601562 11.980469 6.664062 C 12.035156 6.589844 12.109375 6.605469 12.15625 6.558594 C 12.203125 6.515625 12.210938 6.472656 12.246094 6.460938 C 12.210938 6.433594 12.160156 6.402344 12.167969 6.316406 C 12.179688 6.230469 12.300781 6.160156 12.191406 6.027344 C 12.121094 5.945312 12.019531 5.96875 11.976562 6 C 11.957031 6.015625 11.9375 6.039062 11.929688 6.050781 C 11.925781 6.066406 11.933594 6.101562 11.917969 6.121094 C 11.90625 6.132812 11.890625 6.148438 11.875 6.160156 C 11.867188 6.164062 11.859375 6.175781 11.871094 6.1875 C 11.875 6.195312 11.882812 6.195312 11.890625 6.199219 C 11.886719 6.207031 11.878906 6.21875 11.875 6.226562 C 11.871094 6.234375 11.871094 6.238281 11.878906 6.246094 C 11.871094 6.273438 11.886719 6.277344 11.875 6.296875 C 11.867188 6.3125 11.851562 6.332031 11.886719 6.355469 C 11.898438 6.359375 11.945312 6.371094 11.972656 6.367188 Z M 11.53125 6.816406 C 11.46875 6.832031 11.371094 6.804688 11.292969 6.816406 C 11.257812 6.820312 11.230469 6.800781 11.234375 6.769531 C 11.238281 6.734375 11.246094 6.683594 11.238281 6.632812 C 11.226562 6.558594 11.261719 6.457031 11.3125 6.34375 C 11.363281 6.234375 11.386719 6.167969 11.386719 6.117188 C 11.386719 6.082031 11.390625 6.042969 11.421875 6.023438 C 11.445312 6.007812 11.449219 5.992188 11.457031 5.980469 C 11.476562 5.953125 11.496094 5.945312 11.496094 5.960938 C 11.5 5.972656 11.496094 5.980469 11.488281 5.996094 C 11.507812 5.976562 11.539062 5.957031 11.550781 5.953125 C 11.558594 5.945312 11.597656 5.917969 11.597656 5.945312 C 11.613281 5.9375 11.625 5.9375 11.628906 5.945312 C 11.632812 5.957031 11.628906 5.960938 11.625 5.964844 C 11.632812 5.964844 11.648438 5.984375 11.625 6 C 11.636719 5.996094 11.648438 6.015625 11.628906 6.035156 C 11.605469 6.054688 11.582031 6.066406 11.574219 6.082031 C 11.566406 6.097656 11.511719 6.136719 11.492188 6.144531 C 11.46875 6.15625 11.46875 6.167969 11.46875 6.199219 C 11.46875 6.546875 11.425781 6.519531 11.425781 6.601562 C 11.425781 6.625 11.421875 6.644531 11.445312 6.636719 C 11.46875 6.632812 11.5 6.621094 11.535156 6.621094 L 11.535156 6.816406 Z M 11.546875 7.566406 C 11.648438 7.515625 11.765625 7.496094 11.828125 7.480469 C 11.886719 7.464844 11.984375 7.417969 12.03125 7.390625 C 12.078125 7.367188 12.117188 7.332031 12.144531 7.324219 C 12.171875 7.316406 12.203125 7.296875 12.21875 7.261719 C 12.308594 7.09375 12.355469 6.953125 12.355469 6.835938 C 12.355469 6.753906 12.332031 6.667969 12.257812 6.730469 C 12.1875 6.789062 12.109375 6.90625 12.085938 6.988281 C 12.054688 7.113281 12.027344 7.140625 12.019531 7.167969 C 12.015625 7.191406 11.988281 7.191406 11.957031 7.199219 C 11.824219 7.226562 11.792969 7.25 11.695312 7.324219 C 11.59375 7.398438 11.484375 7.460938 11.414062 7.503906 C 11.339844 7.542969 11.328125 7.546875 11.3125 7.582031 C 11.296875 7.613281 11.28125 7.636719 11.269531 7.652344 C 11.253906 7.667969 11.25 7.683594 11.253906 7.703125 C 11.257812 7.71875 11.25 7.785156 11.246094 7.808594 C 11.246094 7.832031 11.253906 7.835938 11.261719 7.835938 C 11.269531 7.839844 11.28125 7.832031 11.289062 7.808594 C 11.28125 7.835938 11.320312 7.824219 11.324219 7.804688 C 11.320312 7.832031 11.359375 7.816406 11.363281 7.789062 C 11.363281 7.808594 11.394531 7.796875 11.394531 7.785156 C 11.402344 7.761719 11.410156 7.738281 11.417969 7.722656 C 11.429688 7.695312 11.445312 7.660156 11.46875 7.640625 C 11.5 7.621094 11.484375 7.597656 11.546875 7.566406 Z M 12.277344 9.414062 C 12.285156 9.441406 12.296875 9.46875 12.300781 9.484375 C 12.308594 9.5 12.296875 9.507812 12.292969 9.515625 C 12.269531 9.566406 12.246094 9.644531 12.242188 9.6875 C 12.238281 9.710938 12.222656 9.738281 12.214844 9.75 C 12.203125 9.765625 12.207031 9.78125 12.226562 9.796875 C 12.238281 9.800781 12.269531 9.792969 12.273438 9.777344 C 12.285156 9.789062 12.304688 9.785156 12.3125 9.765625 C 12.324219 9.777344 12.339844 9.769531 12.351562 9.753906 C 12.363281 9.761719 12.375 9.746094 12.382812 9.738281 C 12.398438 9.746094 12.414062 9.734375 12.414062 9.703125 C 12.414062 9.699219 12.417969 9.6875 12.421875 9.679688 C 12.425781 9.671875 12.429688 9.660156 12.429688 9.644531 C 12.429688 9.632812 12.4375 9.609375 12.449219 9.589844 C 12.457031 9.574219 12.476562 9.542969 12.46875 9.515625 C 12.460938 9.484375 12.449219 9.488281 12.441406 9.449219 C 12.414062 9.421875 12.378906 9.386719 12.347656 9.386719 C 12.308594 9.382812 12.289062 9.40625 12.277344 9.414062 Z M 11.636719 9.609375 C 11.667969 9.640625 11.738281 9.640625 11.789062 9.589844 C 11.769531 9.578125 11.730469 9.5625 11.710938 9.546875 C 11.6875 9.574219 11.660156 9.601562 11.636719 9.609375 Z M 11.636719 9.609375 "/>
<path style=" stroke:none;fill-rule:nonzero;fill:rgb(58.431373%,36.078431%,5.882353%);fill-opacity:1;" d="M 11.957031 6.019531 C 11.96875 5.941406 12.023438 5.941406 12.058594 5.949219 C 12.074219 5.953125 12.109375 5.957031 12.144531 5.949219 C 12.210938 5.929688 12.261719 5.953125 12.253906 6.019531 C 12.273438 6.03125 12.292969 6.0625 12.289062 6.089844 C 12.285156 6.117188 12.292969 6.128906 12.316406 6.132812 C 12.339844 6.136719 12.394531 6.164062 12.359375 6.207031 C 12.394531 6.230469 12.417969 6.28125 12.402344 6.316406 C 12.382812 6.351562 12.328125 6.355469 12.308594 6.324219 C 12.28125 6.335938 12.242188 6.339844 12.214844 6.3125 C 12.199219 6.332031 12.15625 6.328125 12.148438 6.3125 C 12.140625 6.292969 12.128906 6.285156 12.109375 6.277344 C 12.09375 6.273438 12.089844 6.222656 12.117188 6.21875 C 12.113281 6.203125 12.117188 6.1875 12.125 6.179688 C 12.128906 6.171875 12.125 6.15625 12.109375 6.144531 C 12.09375 6.132812 12.078125 6.085938 12.09375 6.058594 C 12.066406 6.066406 12.007812 6.042969 11.996094 6.023438 C 11.984375 6.003906 11.96875 6.003906 11.957031 6.019531 Z M 11.957031 6.019531 "/>
<path style=" stroke:none;fill-rule:nonzero;fill:rgb(0%,0%,0%);fill-opacity:1;" d="M 12.347656 6.347656 C 12.332031 6.347656 12.316406 6.339844 12.304688 6.328125 C 12.28125 6.339844 12.242188 6.339844 12.214844 6.316406 C 12.207031 6.328125 12.191406 6.328125 12.179688 6.328125 L 12.171875 6.328125 C 12.160156 6.328125 12.148438 6.320312 12.144531 6.3125 C 12.136719 6.296875 12.128906 6.289062 12.109375 6.28125 C 12.097656 6.277344 12.09375 6.261719 12.09375 6.25 C 12.097656 6.234375 12.101562 6.222656 12.117188 6.214844 C 12.113281 6.203125 12.113281 6.183594 12.121094 6.175781 C 12.125 6.171875 12.121094 6.160156 12.105469 6.148438 C 12.089844 6.132812 12.078125 6.089844 12.089844 6.0625 L 12.082031 6.0625 C 12.050781 6.0625 12.003906 6.042969 11.992188 6.027344 C 11.988281 6.015625 11.980469 6.011719 11.976562 6.011719 L 11.972656 6.011719 C 11.96875 6.011719 11.964844 6.015625 11.957031 6.023438 L 11.953125 6.019531 C 11.957031 5.988281 11.96875 5.96875 11.988281 5.957031 C 12.003906 5.941406 12.03125 5.941406 12.0625 5.949219 C 12.074219 5.949219 12.113281 5.953125 12.144531 5.945312 C 12.183594 5.933594 12.21875 5.9375 12.238281 5.957031 C 12.253906 5.96875 12.261719 5.992188 12.257812 6.015625 C 12.277344 6.03125 12.296875 6.0625 12.292969 6.089844 C 12.289062 6.117188 12.296875 6.125 12.316406 6.128906 C 12.335938 6.128906 12.363281 6.144531 12.371094 6.167969 C 12.375 6.175781 12.378906 6.191406 12.363281 6.207031 C 12.398438 6.230469 12.421875 6.28125 12.40625 6.316406 C 12.394531 6.335938 12.375 6.347656 12.355469 6.347656 Z M 12.308594 6.320312 L 12.308594 6.324219 C 12.316406 6.335938 12.335938 6.34375 12.351562 6.34375 C 12.371094 6.339844 12.390625 6.332031 12.398438 6.316406 C 12.414062 6.28125 12.390625 6.230469 12.355469 6.210938 L 12.355469 6.207031 C 12.367188 6.195312 12.371094 6.179688 12.363281 6.167969 C 12.355469 6.152344 12.332031 6.136719 12.316406 6.136719 C 12.285156 6.132812 12.28125 6.117188 12.285156 6.089844 C 12.289062 6.066406 12.273438 6.035156 12.253906 6.019531 C 12.253906 5.992188 12.25 5.972656 12.234375 5.960938 C 12.214844 5.945312 12.183594 5.941406 12.144531 5.953125 C 12.109375 5.960938 12.074219 5.957031 12.058594 5.953125 C 12.027344 5.945312 12.007812 5.949219 11.988281 5.960938 C 11.976562 5.972656 11.964844 5.988281 11.960938 6.011719 C 11.964844 6.007812 11.96875 6.007812 11.972656 6.007812 C 11.984375 6.007812 11.992188 6.011719 11.996094 6.023438 C 12.007812 6.035156 12.054688 6.058594 12.082031 6.058594 C 12.085938 6.058594 12.089844 6.058594 12.09375 6.054688 L 12.101562 6.054688 L 12.097656 6.0625 C 12.082031 6.085938 12.09375 6.128906 12.109375 6.144531 C 12.117188 6.148438 12.125 6.15625 12.125 6.164062 C 12.128906 6.171875 12.128906 6.175781 12.125 6.183594 C 12.121094 6.1875 12.117188 6.203125 12.121094 6.21875 L 12.121094 6.222656 C 12.105469 6.226562 12.101562 6.238281 12.101562 6.25 C 12.097656 6.265625 12.105469 6.277344 12.109375 6.277344 C 12.128906 6.285156 12.140625 6.296875 12.148438 6.3125 C 12.152344 6.316406 12.160156 6.324219 12.171875 6.324219 C 12.183594 6.324219 12.203125 6.324219 12.214844 6.3125 L 12.214844 6.308594 L 12.21875 6.3125 C 12.242188 6.335938 12.277344 6.335938 12.304688 6.324219 Z M 11.972656 6.371094 L 11.972656 6.363281 C 11.992188 6.363281 12.007812 6.355469 12.019531 6.347656 C 12.03125 6.339844 12.042969 6.332031 12.058594 6.332031 L 12.0625 6.332031 L 12.0625 6.339844 C 12.046875 6.339844 12.035156 6.34375 12.023438 6.351562 C 12.007812 6.359375 11.996094 6.367188 11.972656 6.371094 Z M 11.910156 7.210938 L 11.90625 7.207031 C 11.976562 7.140625 11.953125 7 11.933594 6.898438 L 11.929688 6.890625 C 11.914062 6.804688 11.929688 6.726562 11.976562 6.664062 L 11.980469 6.667969 C 11.9375 6.726562 11.921875 6.804688 11.9375 6.890625 L 11.9375 6.898438 C 11.957031 7 11.984375 7.144531 11.910156 7.210938 Z M 12.023438 7.453125 C 11.996094 7.453125 11.972656 7.445312 11.953125 7.4375 L 11.953125 7.429688 C 12 7.453125 12.066406 7.449219 12.105469 7.421875 C 12.144531 7.390625 12.21875 7.390625 12.273438 7.402344 L 12.273438 7.410156 C 12.222656 7.398438 12.148438 7.398438 12.109375 7.425781 C 12.085938 7.441406 12.054688 7.453125 12.023438 7.453125 Z M 12.023438 7.453125 "/>
<path style=" stroke:none;fill-rule:nonzero;fill:rgb(0%,14.117647%,49.019608%);fill-opacity:1;" d="M 7.917969 7.5 L 7.917969 2.082031 L 1.667969 2.082031 C 1.535156 2.082031 1.414062 2.101562 1.414062 2.101562 L 1.414062 2.832031 L 0.277344 2.832031 C 0.277344 2.832031 0.257812 2.855469 0.222656 2.917969 C 0.0820312 3.160156 0 3.445312 0 3.75 L 0 7.5 Z M 7.917969 7.5 "/>
<path style=" stroke:none;fill-rule:nonzero;fill:rgb(93.333333%,93.333333%,93.333333%);fill-opacity:1;" d="M 7.917969 2.082031 L 6.945312 2.082031 L 5 3.445312 L 5 2.082031 L 2.917969 2.082031 L 2.917969 3.152344 L 1.414062 2.101562 C 1.160156 2.140625 0.917969 2.238281 0.71875 2.378906 L 2.675781 3.75 L 1.953125 3.75 L 0.402344 2.664062 C 0.355469 2.714844 0.316406 2.773438 0.277344 2.832031 L 1.589844 3.75 L 0 3.75 L 0 5.832031 L 1.617188 5.832031 L 0 6.984375 L 0 7.5 L 1.386719 7.5 L 2.917969 6.429688 L 2.917969 7.5 L 5 7.5 L 5 6.136719 L 6.945312 7.5 L 7.917969 7.5 L 7.917969 6.65625 L 6.742188 5.832031 L 7.917969 5.832031 L 7.917969 3.75 L 6.746094 3.75 L 7.917969 2.929688 Z M 7.917969 2.082031 "/>
<path style=" stroke:none;fill-rule:nonzero;fill:rgb(81.176471%,10.588235%,16.862745%);fill-opacity:1;" d="M 4.582031 2.082031 L 3.332031 2.082031 L 3.332031 4.167969 L 0 4.167969 L 0 5.417969 L 3.332031 5.417969 L 3.332031 7.5 L 4.582031 7.5 L 4.582031 5.417969 L 7.917969 5.417969 L 7.917969 4.167969 L 4.582031 4.167969 Z M 4.582031 2.082031 "/>
<path style=" stroke:none;fill-rule:nonzero;fill:rgb(81.176471%,10.588235%,16.862745%);fill-opacity:1;" d="M 7.917969 2.082031 L 7.308594 2.082031 L 5 3.699219 L 5 3.75 L 5.65625 3.75 L 7.917969 2.164062 Z M 0.71875 2.378906 C 0.601562 2.460938 0.496094 2.554688 0.402344 2.664062 L 1.953125 3.75 L 2.675781 3.75 Z M 2.683594 5.832031 L 0.304688 7.5 L 1.027344 7.5 L 2.917969 6.175781 L 2.917969 5.832031 Z M 7.917969 7.417969 L 7.917969 6.910156 L 6.378906 5.832031 L 5.652344 5.832031 Z M 7.917969 7.417969 "/>
</g>
</svg>
