<?xml version="1.0" encoding="UTF-8"?>
<svg xmlns="http://www.w3.org/2000/svg" xmlns:xlink="http://www.w3.org/1999/xlink" width="15pt" height="15pt" viewBox="0 0 15 15" version="1.1">
<g id="surface1">
<path style=" stroke:none;fill-rule:nonzero;fill:rgb(35.686275%,59.215686%,69.411765%);fill-opacity:1;" d="M 13.332031 2.082031 L 1.667969 2.082031 C 1.582031 2.082031 1.496094 2.089844 1.414062 2.101562 L 1.414062 2.832031 L 0.277344 2.832031 C 0.101562 3.09375 0 3.410156 0 3.75 L 0 11.25 C 0 12.171875 0.746094 12.917969 1.667969 12.917969 L 13.332031 12.917969 C 14.253906 12.917969 15 12.171875 15 11.25 L 15 3.75 C 15 2.828125 14.253906 2.082031 13.332031 2.082031 Z M 13.332031 2.082031 "/>
<path style=" stroke:none;fill-rule:nonzero;fill:rgb(100%,80.784314%,0%);fill-opacity:1;" d="M 5.664062 11.570312 L 5.464844 10.945312 L 5.261719 11.570312 L 4.601562 11.570312 L 5.132812 11.957031 L 4.933594 12.582031 L 5.464844 12.195312 L 5.996094 12.582031 L 5.792969 11.957031 L 6.324219 11.570312 Z M 8.367188 11.085938 L 8.570312 10.460938 L 8.039062 10.847656 L 7.507812 10.460938 L 7.710938 11.085938 L 7.179688 11.472656 L 7.835938 11.472656 L 8.039062 12.097656 L 8.242188 11.472656 L 8.898438 11.472656 Z M 8.570312 8.257812 L 8.039062 8.644531 L 7.507812 8.257812 L 7.710938 8.882812 L 7.179688 9.269531 L 7.835938 9.269531 L 8.039062 9.894531 L 8.242188 9.269531 L 8.898438 9.269531 L 8.367188 8.882812 Z M 10.433594 10.527344 L 10.636719 9.90625 L 10.105469 10.289062 L 9.574219 9.90625 L 9.777344 10.527344 L 9.246094 10.914062 L 9.902344 10.914062 L 10.105469 11.539062 L 10.308594 10.914062 L 10.964844 10.914062 Z M 9.902344 6.125 L 10.105469 6.746094 L 10.308594 6.125 L 10.964844 6.125 L 10.433594 5.738281 L 10.636719 5.113281 L 10.105469 5.5 L 9.574219 5.113281 L 9.777344 5.738281 L 9.246094 6.125 Z M 11.796875 8.847656 L 11.59375 8.222656 L 11.390625 8.847656 L 10.734375 8.847656 L 11.265625 9.234375 L 11.0625 9.859375 L 11.59375 9.472656 L 12.125 9.859375 L 11.921875 9.234375 L 12.453125 8.847656 Z M 11.816406 5.46875 L 12.019531 6.09375 L 12.222656 5.46875 L 12.878906 5.46875 L 12.347656 5.082031 L 12.550781 4.457031 L 12.019531 4.84375 L 11.488281 4.457031 L 11.691406 5.082031 L 11.15625 5.46875 Z M 13.71875 7.609375 L 13.515625 6.984375 L 13.3125 7.609375 L 12.65625 7.609375 L 13.1875 7.996094 L 12.984375 8.621094 L 13.515625 8.234375 L 14.046875 8.621094 L 13.84375 7.996094 L 14.375 7.609375 Z M 13.1875 3.769531 L 12.984375 4.394531 L 13.515625 4.007812 L 14.046875 4.394531 L 13.84375 3.769531 L 14.375 3.382812 L 13.71875 3.382812 L 13.515625 2.757812 L 13.3125 3.382812 L 12.65625 3.382812 Z M 13.1875 3.769531 "/>
<path style=" stroke:none;fill-rule:nonzero;fill:rgb(0%,14.117647%,49.019608%);fill-opacity:1;" d="M 7.917969 7.5 L 7.917969 2.082031 L 1.667969 2.082031 C 1.535156 2.082031 1.414062 2.101562 1.414062 2.101562 L 1.414062 2.832031 L 0.277344 2.832031 C 0.277344 2.832031 0.257812 2.855469 0.222656 2.917969 C 0.0820312 3.160156 0 3.445312 0 3.75 L 0 7.5 Z M 7.917969 7.5 "/>
<path style=" stroke:none;fill-rule:nonzero;fill:rgb(93.333333%,93.333333%,93.333333%);fill-opacity:1;" d="M 7.917969 2.082031 L 6.945312 2.082031 L 5 3.445312 L 5 2.082031 L 2.917969 2.082031 L 2.917969 3.152344 L 1.414062 2.101562 C 1.160156 2.140625 0.917969 2.238281 0.71875 2.378906 L 2.675781 3.75 L 1.953125 3.75 L 0.402344 2.664062 C 0.355469 2.714844 0.316406 2.773438 0.277344 2.832031 L 1.589844 3.75 L 0 3.75 L 0 5.832031 L 1.617188 5.832031 L 0 6.984375 L 0 7.5 L 1.386719 7.5 L 2.917969 6.429688 L 2.917969 7.5 L 5 7.5 L 5 6.136719 L 6.945312 7.5 L 7.917969 7.5 L 7.917969 6.65625 L 6.742188 5.832031 L 7.917969 5.832031 L 7.917969 3.75 L 6.746094 3.75 L 7.917969 2.929688 Z M 7.917969 2.082031 "/>
<path style=" stroke:none;fill-rule:nonzero;fill:rgb(81.176471%,10.588235%,16.862745%);fill-opacity:1;" d="M 4.582031 3.738281 L 4.582031 2.082031 L 3.332031 2.082031 L 3.332031 4.167969 L 0 4.167969 L 0 5.417969 L 3.332031 5.417969 L 3.332031 7.5 L 4.582031 7.5 L 4.582031 5.417969 L 7.917969 5.417969 L 7.917969 4.167969 L 4.582031 4.167969 Z M 4.582031 3.738281 "/>
<path style=" stroke:none;fill-rule:nonzero;fill:rgb(81.176471%,10.588235%,16.862745%);fill-opacity:1;" d="M 7.917969 2.082031 L 7.308594 2.082031 L 5 3.699219 L 5 3.75 L 5.65625 3.75 L 7.917969 2.164062 Z M 0.71875 2.378906 C 0.601562 2.460938 0.496094 2.554688 0.402344 2.664062 L 1.953125 3.75 L 2.675781 3.75 Z M 2.683594 5.832031 L 0.304688 7.5 L 1.027344 7.5 L 2.917969 6.175781 L 2.917969 5.832031 Z M 7.917969 7.417969 L 7.917969 6.910156 L 6.378906 5.832031 L 5.652344 5.832031 Z M 7.917969 7.417969 "/>
<path style=" stroke:none;fill-rule:nonzero;fill:rgb(0%,14.117647%,49.019608%);fill-opacity:1;" d="M 7.917969 7.5 L 7.917969 2.082031 L 1.667969 2.082031 C 1.535156 2.082031 1.414062 2.101562 1.414062 2.101562 L 1.414062 2.832031 L 0.277344 2.832031 C 0.277344 2.832031 0.257812 2.855469 0.222656 2.917969 C 0.0820312 3.160156 0 3.445312 0 3.75 L 0 7.5 Z M 7.917969 7.5 "/>
<path style=" stroke:none;fill-rule:nonzero;fill:rgb(93.333333%,93.333333%,93.333333%);fill-opacity:1;" d="M 7.917969 2.082031 L 6.945312 2.082031 L 5 3.445312 L 5 2.082031 L 2.917969 2.082031 L 2.917969 3.152344 L 1.414062 2.101562 C 1.160156 2.140625 0.917969 2.238281 0.71875 2.378906 L 2.675781 3.75 L 1.953125 3.75 L 0.402344 2.664062 C 0.355469 2.714844 0.316406 2.773438 0.277344 2.832031 L 1.589844 3.75 L 0 3.75 L 0 5.832031 L 1.617188 5.832031 L 0 6.984375 L 0 7.5 L 1.386719 7.5 L 2.917969 6.429688 L 2.917969 7.5 L 5 7.5 L 5 6.136719 L 6.945312 7.5 L 7.917969 7.5 L 7.917969 6.65625 L 6.742188 5.832031 L 7.917969 5.832031 L 7.917969 3.75 L 6.746094 3.75 L 7.917969 2.929688 Z M 7.917969 2.082031 "/>
<path style=" stroke:none;fill-rule:nonzero;fill:rgb(81.176471%,10.588235%,16.862745%);fill-opacity:1;" d="M 4.582031 2.082031 L 3.332031 2.082031 L 3.332031 4.167969 L 0 4.167969 L 0 5.417969 L 3.332031 5.417969 L 3.332031 7.5 L 4.582031 7.5 L 4.582031 5.417969 L 7.917969 5.417969 L 7.917969 4.167969 L 4.582031 4.167969 Z M 4.582031 2.082031 "/>
<path style=" stroke:none;fill-rule:nonzero;fill:rgb(81.176471%,10.588235%,16.862745%);fill-opacity:1;" d="M 7.917969 2.082031 L 7.308594 2.082031 L 5 3.699219 L 5 3.75 L 5.65625 3.75 L 7.917969 2.164062 Z M 0.71875 2.378906 C 0.601562 2.460938 0.496094 2.554688 0.402344 2.664062 L 1.953125 3.75 L 2.675781 3.75 Z M 2.683594 5.832031 L 0.304688 7.5 L 1.027344 7.5 L 2.917969 6.175781 L 2.917969 5.832031 Z M 7.917969 7.417969 L 7.917969 6.910156 L 6.378906 5.832031 L 5.652344 5.832031 Z M 7.917969 7.417969 "/>
</g>
</svg>
