<?xml version="1.0" encoding="UTF-8"?>
<svg xmlns="http://www.w3.org/2000/svg" xmlns:xlink="http://www.w3.org/1999/xlink" width="15pt" height="15pt" viewBox="0 0 15 15" version="1.1">
<g id="surface1">
<path style=" stroke:none;fill-rule:nonzero;fill:rgb(23.137255%,53.333333%,76.470588%);fill-opacity:1;" d="M 15 13.332031 C 15 14.253906 14.253906 15 13.332031 15 L 1.667969 15 C 0.746094 15 0 14.253906 0 13.332031 L 0 1.667969 C 0 0.746094 0.746094 0 1.667969 0 L 13.332031 0 C 14.253906 0 15 0.746094 15 1.667969 Z M 15 13.332031 "/>
<path style=" stroke:none;fill-rule:nonzero;fill:rgb(100%,100%,100%);fill-opacity:1;" d="M 6.375 7.160156 L 4.285156 4.320312 C 4.15625 4.152344 4.078125 3.957031 4.078125 3.75 C 4.078125 3.183594 4.503906 2.808594 5.058594 2.808594 C 5.382812 2.808594 5.71875 3.027344 5.898438 3.285156 L 7.5 5.558594 L 9.101562 3.285156 C 9.285156 3.027344 9.621094 2.808594 9.941406 2.808594 C 10.5 2.808594 10.925781 3.183594 10.925781 3.75 C 10.925781 3.957031 10.847656 4.152344 10.71875 4.320312 L 8.625 7.160156 L 11.183594 10.597656 C 11.285156 10.738281 11.402344 10.984375 11.402344 11.257812 C 11.402344 11.800781 10.988281 12.160156 10.421875 12.160156 C 10.070312 12.160156 9.8125 12.003906 9.621094 11.734375 L 7.5 8.789062 L 5.382812 11.734375 C 5.1875 12.003906 4.929688 12.160156 4.582031 12.160156 C 4.011719 12.160156 3.601562 11.800781 3.601562 11.257812 C 3.601562 10.984375 3.714844 10.738281 3.820312 10.597656 Z M 6.375 7.160156 "/>
</g>
</svg>
