<?xml version="1.0" encoding="UTF-8"?>
<svg xmlns="http://www.w3.org/2000/svg" xmlns:xlink="http://www.w3.org/1999/xlink" width="15pt" height="15pt" viewBox="0 0 15 15" version="1.1">
<g id="surface1">
<path style=" stroke:none;fill-rule:nonzero;fill:rgb(0%,47.058824%,36.862745%);fill-opacity:1;" d="M 15 11.25 C 15 12.171875 14.253906 12.917969 13.332031 12.917969 L 1.667969 12.917969 C 0.746094 12.917969 0 12.171875 0 11.25 L 0 3.75 C 0 2.828125 0.746094 2.082031 1.667969 2.082031 L 13.332031 2.082031 C 14.253906 2.082031 15 2.828125 15 3.75 Z M 15 11.25 "/>
<path style=" stroke:none;fill-rule:evenodd;fill:rgb(98.431373%,81.960784%,8.627451%);fill-opacity:1;" d="M 7.488281 3.570312 C 7.566406 3.714844 7.605469 3.890625 7.660156 4.058594 L 8.191406 4.058594 C 8.054688 4.164062 7.90625 4.261719 7.769531 4.367188 C 7.808594 4.539062 7.871094 4.683594 7.917969 4.847656 C 7.890625 4.859375 7.851562 4.820312 7.820312 4.796875 C 7.726562 4.730469 7.605469 4.636719 7.511719 4.566406 C 7.355469 4.644531 7.214844 4.789062 7.082031 4.859375 C 7.121094 4.691406 7.1875 4.546875 7.230469 4.378906 C 7.101562 4.261719 6.957031 4.164062 6.8125 4.066406 C 6.964844 4.046875 7.160156 4.066406 7.332031 4.058594 C 7.390625 3.902344 7.445312 3.742188 7.488281 3.570312 Z M 5.222656 4.988281 C 5.324219 4.925781 5.417969 4.855469 5.511719 4.789062 C 5.46875 4.683594 5.449219 4.558594 5.402344 4.457031 C 5.496094 4.488281 5.59375 4.601562 5.691406 4.660156 C 5.796875 4.597656 5.886719 4.527344 5.980469 4.457031 C 5.972656 4.554688 5.90625 4.675781 5.882812 4.789062 C 5.957031 4.878906 6.066406 4.9375 6.160156 5.007812 C 6.0625 5.03125 5.914062 5.015625 5.8125 5.007812 C 5.761719 5.109375 5.722656 5.226562 5.691406 5.347656 C 5.640625 5.25 5.613281 5.128906 5.582031 5.007812 L 5.3125 5.007812 C 5.304688 4.980469 5.230469 5.015625 5.222656 4.988281 Z M 9.6875 5.007812 L 9.425781 5.007812 C 9.382812 5.113281 9.359375 5.238281 9.316406 5.347656 C 9.273438 5.238281 9.238281 5.121094 9.195312 5.007812 C 9.085938 5.019531 8.964844 5.019531 8.839844 5.019531 C 8.925781 4.9375 9.03125 4.878906 9.117188 4.796875 C 9.089844 4.675781 9.042969 4.574219 9.007812 4.457031 C 9.109375 4.519531 9.203125 4.589844 9.296875 4.660156 C 9.410156 4.601562 9.488281 4.511719 9.597656 4.449219 C 9.554688 4.550781 9.535156 4.679688 9.488281 4.777344 C 9.570312 4.859375 9.675781 4.921875 9.777344 4.988281 C 9.769531 5.015625 9.695312 4.980469 9.6875 5.007812 Z M 4.695312 5.617188 C 4.742188 5.710938 4.742188 5.851562 4.773438 5.964844 C 4.898438 5.972656 5.011719 5.996094 5.132812 6.007812 C 5.03125 6.066406 4.933594 6.125 4.824219 6.175781 C 4.832031 6.300781 4.863281 6.402344 4.882812 6.515625 C 4.855469 6.523438 4.796875 6.464844 4.753906 6.425781 C 4.707031 6.382812 4.664062 6.328125 4.625 6.296875 C 4.511719 6.347656 4.417969 6.414062 4.304688 6.464844 C 4.355469 6.363281 4.394531 6.25 4.453125 6.15625 C 4.382812 6.054688 4.289062 5.984375 4.195312 5.90625 C 4.300781 5.886719 4.433594 5.925781 4.542969 5.9375 C 4.601562 5.835938 4.648438 5.730469 4.695312 5.617188 Z M 10.445312 5.9375 C 10.566406 5.921875 10.679688 5.902344 10.804688 5.894531 C 10.71875 5.980469 10.625 6.054688 10.546875 6.144531 C 10.597656 6.246094 10.640625 6.359375 10.695312 6.457031 C 10.601562 6.433594 10.484375 6.347656 10.386719 6.296875 C 10.289062 6.359375 10.203125 6.484375 10.117188 6.527344 C 10.132812 6.410156 10.167969 6.308594 10.175781 6.1875 C 10.078125 6.125 9.976562 6.066406 9.867188 6.015625 C 9.96875 5.984375 10.097656 5.984375 10.214844 5.96875 C 10.261719 5.867188 10.261719 5.726562 10.296875 5.617188 C 10.351562 5.71875 10.398438 5.828125 10.445312 5.9375 Z M 10.445312 5.9375 "/>
<path style=" stroke:none;fill-rule:evenodd;fill:rgb(100%,100%,100%);fill-opacity:1;" d="M 8.929688 9.671875 C 8.277344 9.636719 7.867188 9.367188 7.488281 9.0625 C 7.136719 9.386719 6.710938 9.632812 6.074219 9.671875 L 4.195312 9.671875 C 4.195312 9.679688 4.195312 9.691406 4.203125 9.691406 C 4.246094 9.757812 4.292969 9.824219 4.34375 9.878906 C 4.929688 9.921875 5.621094 9.902344 6.210938 9.890625 C 6.777344 9.855469 7.152344 9.632812 7.5 9.382812 C 7.84375 9.632812 8.222656 9.855469 8.789062 9.890625 C 9.386719 9.902344 10.082031 9.921875 10.65625 9.878906 C 10.707031 9.820312 10.753906 9.757812 10.796875 9.691406 C 10.796875 9.691406 10.804688 9.6875 10.804688 9.691406 C 10.734375 9.644531 10.507812 9.671875 10.386719 9.671875 Z M 10.425781 10.148438 C 10.441406 10.152344 10.460938 10.109375 10.425781 10.121094 C 8.472656 10.132812 6.46875 10.09375 4.554688 10.140625 C 4.5625 10.140625 4.566406 10.148438 4.574219 10.148438 C 4.597656 10.179688 4.632812 10.230469 4.671875 10.238281 C 4.753906 10.261719 4.894531 10.238281 5.023438 10.238281 L 10.34375 10.238281 C 10.367188 10.203125 10.40625 10.1875 10.425781 10.148438 Z M 10.066406 10.5 C 10.078125 10.5 10.078125 10.492188 10.085938 10.488281 C 10.085938 10.476562 10.097656 10.476562 10.097656 10.460938 C 8.433594 10.492188 6.691406 10.414062 5.035156 10.460938 C 5.003906 10.460938 4.921875 10.433594 4.914062 10.488281 C 4.921875 10.488281 4.925781 10.496094 4.933594 10.5 C 4.996094 10.546875 5.054688 10.59375 5.113281 10.640625 C 6.683594 10.65625 8.320312 10.65625 9.886719 10.640625 C 9.945312 10.59375 10.003906 10.546875 10.066406 10.5 Z M 9.609375 10.828125 C 9.632812 10.808594 9.628906 10.816406 9.609375 10.808594 C 9.46875 10.777344 9.253906 10.808594 9.078125 10.808594 L 5.601562 10.808594 C 5.539062 10.808594 5.351562 10.796875 5.394531 10.828125 C 5.511719 10.902344 5.632812 10.96875 5.761719 11.027344 C 6.898438 11.046875 8.101562 11.046875 9.238281 11.027344 C 9.367188 10.96875 9.488281 10.902344 9.609375 10.828125 Z M 8.949219 11.160156 L 8.96875 11.160156 C 8.96875 11.140625 8.964844 11.140625 8.949219 11.140625 C 8.730469 11.105469 8.464844 11.140625 8.21875 11.140625 C 7.484375 11.140625 6.710938 11.121094 6.03125 11.160156 L 6.050781 11.160156 C 6.410156 11.292969 6.796875 11.398438 7.269531 11.417969 C 7.3125 11.441406 7.394531 11.421875 7.449219 11.429688 L 7.550781 11.429688 C 7.605469 11.421875 7.691406 11.441406 7.730469 11.417969 C 8.199219 11.398438 8.589844 11.292969 8.949219 11.160156 Z M 8.949219 11.160156 "/>
<path style=" stroke:none;fill-rule:evenodd;fill:rgb(100%,100%,100%);fill-opacity:1;" d="M 6.632812 6.933594 C 6.652344 7.410156 6.777344 7.777344 6.980469 8.074219 C 6.820312 7.71875 6.679688 7.324219 6.722656 6.816406 C 6.777344 6.148438 7.117188 5.621094 7.511719 5.308594 C 7.878906 5.640625 8.21875 6.148438 8.277344 6.804688 C 8.332031 7.355469 8.164062 7.789062 7.96875 8.144531 C 8.1875 7.863281 8.351562 7.445312 8.371094 6.933594 C 8.386719 6.917969 8.386719 6.832031 8.371094 6.816406 C 8.355469 6.464844 8.277344 6.179688 8.160156 5.9375 C 8.222656 5.808594 8.324219 5.722656 8.359375 5.566406 C 8.515625 5.816406 8.621094 6.125 8.648438 6.503906 L 8.648438 6.816406 C 8.621094 7.285156 8.460938 7.625 8.269531 7.933594 C 8.261719 7.933594 8.238281 7.964844 8.257812 7.964844 C 8.28125 7.925781 8.316406 7.910156 8.339844 7.875 C 8.769531 7.507812 9.277344 7.214844 10.046875 7.183594 L 10.226562 7.183594 C 10.246094 7.214844 10.179688 7.253906 10.148438 7.296875 C 10.113281 7.339844 10.089844 7.398438 10.058594 7.433594 C 9.222656 7.453125 8.675781 7.757812 8.238281 8.171875 C 8.566406 7.945312 9.019531 7.691406 9.546875 7.644531 C 10.054688 7.597656 10.492188 7.675781 10.867188 7.835938 C 10.757812 8.121094 10.609375 8.363281 10.417969 8.5625 C 10.371094 8.601562 10.324219 8.644531 10.285156 8.691406 C 9.941406 9.003906 9.523438 9.242188 8.910156 9.28125 L 8.667969 9.28125 C 8.667969 9.292969 8.679688 9.289062 8.6875 9.292969 C 8.730469 9.316406 8.800781 9.3125 8.867188 9.3125 C 8.914062 9.328125 9.03125 9.328125 9.078125 9.3125 C 9.746094 9.285156 10.167969 9.007812 10.546875 8.691406 C 10.597656 8.730469 10.835938 8.71875 10.785156 8.773438 C 10.730469 8.816406 10.683594 8.867188 10.636719 8.921875 C 10.285156 9.230469 9.855469 9.464844 9.226562 9.5 L 9.019531 9.5 C 8.386719 9.464844 7.953125 9.226562 7.601562 8.914062 C 7.566406 8.875 7.542969 8.832031 7.492188 8.8125 C 7.464844 8.851562 7.425781 8.875 7.402344 8.914062 C 7.046875 9.226562 6.613281 9.464844 5.984375 9.5 L 5.773438 9.5 C 5.140625 9.464844 4.707031 9.230469 4.355469 8.914062 C 4.3125 8.863281 4.265625 8.816406 4.214844 8.773438 C 4.222656 8.757812 4.175781 8.746094 4.207031 8.742188 C 4.292969 8.734375 4.375 8.71875 4.445312 8.691406 C 4.835938 9 5.246094 9.289062 5.921875 9.3125 C 5.96875 9.328125 6.085938 9.328125 6.132812 9.3125 C 6.199219 9.3125 6.273438 9.316406 6.3125 9.292969 L 6.332031 9.292969 C 6.273438 9.269531 6.171875 9.289062 6.09375 9.28125 C 5.476562 9.242188 5.058594 9.003906 4.714844 8.691406 C 4.675781 8.644531 4.632812 8.601562 4.585938 8.5625 C 4.394531 8.363281 4.242188 8.121094 4.136719 7.835938 C 4.507812 7.675781 4.941406 7.601562 5.445312 7.644531 C 5.96875 7.6875 6.421875 7.9375 6.742188 8.164062 C 6.761719 8.1875 6.789062 8.203125 6.8125 8.222656 C 6.808594 8.191406 6.78125 8.179688 6.761719 8.164062 C 6.316406 7.765625 5.785156 7.449219 4.953125 7.433594 C 4.890625 7.359375 4.8125 7.246094 4.765625 7.1875 L 4.953125 7.1875 C 5.710938 7.21875 6.222656 7.496094 6.640625 7.863281 C 6.683594 7.90625 6.714844 7.957031 6.773438 7.984375 C 6.78125 7.941406 6.753906 7.992188 6.753906 7.964844 C 6.742188 7.941406 6.730469 7.921875 6.710938 7.90625 C 6.53125 7.601562 6.378906 7.273438 6.351562 6.816406 L 6.351562 6.507812 C 6.378906 6.125 6.492188 5.832031 6.632812 5.566406 C 6.683594 5.703125 6.765625 5.816406 6.84375 5.925781 C 6.742188 6.148438 6.667969 6.390625 6.640625 6.6875 C 6.621094 6.699219 6.640625 6.757812 6.632812 6.785156 L 6.632812 6.816406 C 6.613281 6.832031 6.613281 6.917969 6.632812 6.933594 Z M 6.980469 8.074219 C 6.988281 8.109375 7.007812 8.132812 7.03125 8.152344 C 7.023438 8.117188 7.003906 8.09375 6.980469 8.074219 Z M 6.980469 8.074219 "/>
</g>
</svg>
