<?xml version="1.0" encoding="UTF-8"?>
<svg xmlns="http://www.w3.org/2000/svg" xmlns:xlink="http://www.w3.org/1999/xlink" width="15pt" height="15pt" viewBox="0 0 15 15" version="1.1">
<g id="surface1">
<path style=" stroke:none;fill-rule:nonzero;fill:rgb(85.098039%,0%,0.392157%);fill-opacity:1;" d="M 15 11.25 L 15 10.832031 L 0 10.832031 L 0 11.25 C 0 12.171875 0.746094 12.917969 1.667969 12.917969 L 13.332031 12.917969 C 14.253906 12.917969 15 12.171875 15 11.25 Z M 15 11.25 "/>
<path style=" stroke:none;fill-rule:nonzero;fill:rgb(98.823529%,86.27451%,0.784314%);fill-opacity:1;" d="M 0 9.167969 L 15 9.167969 L 15 10.832031 L 0 10.832031 Z M 0 9.167969 "/>
<path style=" stroke:none;fill-rule:nonzero;fill:rgb(7.843137%,7.843137%,7.843137%);fill-opacity:1;" d="M 0 7.5 L 15 7.5 L 15 9.167969 L 0 9.167969 Z M 0 7.5 "/>
<path style=" stroke:none;fill-rule:nonzero;fill:rgb(85.098039%,0%,0.392157%);fill-opacity:1;" d="M 0 5.832031 L 15 5.832031 L 15 7.5 L 0 7.5 Z M 0 5.832031 "/>
<path style=" stroke:none;fill-rule:nonzero;fill:rgb(98.823529%,86.27451%,0.784314%);fill-opacity:1;" d="M 0 4.167969 L 15 4.167969 L 15 5.832031 L 0 5.832031 Z M 0 4.167969 "/>
<path style=" stroke:none;fill-rule:nonzero;fill:rgb(7.843137%,7.843137%,7.843137%);fill-opacity:1;" d="M 0 3.75 L 0 4.167969 L 15 4.167969 L 15 3.75 C 15 2.828125 14.253906 2.082031 13.332031 2.082031 L 1.667969 2.082031 C 0.746094 2.082031 0 2.828125 0 3.75 Z M 0 3.75 "/>
<path style=" stroke:none;fill-rule:nonzero;fill:rgb(100%,100%,100%);fill-opacity:1;" d="M 9.167969 7.5 C 9.167969 8.421875 8.421875 9.167969 7.5 9.167969 C 6.578125 9.167969 5.832031 8.421875 5.832031 7.5 C 5.832031 6.578125 6.578125 5.832031 7.5 5.832031 C 8.421875 5.832031 9.167969 6.578125 9.167969 7.5 Z M 9.167969 7.5 "/>
<path style=" stroke:none;fill-rule:nonzero;fill:rgb(85.098039%,0%,0%);fill-opacity:1;" d="M 7.226562 6.261719 L 7.117188 5.96875 C 7.117188 5.96875 7.355469 5.886719 7.589844 5.96875 C 7.769531 6.035156 7.785156 6.261719 7.785156 6.261719 L 7.507812 6.347656 Z M 7.226562 6.261719 "/>
<path style=" stroke:none;fill-rule:nonzero;fill:rgb(98.823529%,86.27451%,0.784314%);fill-opacity:1;" d="M 7.332031 6.21875 L 7.332031 5.933594 C 7.332031 5.933594 7.378906 5.914062 7.507812 5.933594 C 7.636719 5.949219 7.695312 6.042969 7.695312 6.042969 L 7.511719 6.261719 Z M 7.332031 6.21875 "/>
<path style=" stroke:none;fill-rule:nonzero;fill:rgb(7.843137%,7.843137%,7.843137%);fill-opacity:1;" d="M 7.394531 7.039062 C 7.359375 6.980469 7.394531 6.625 7.492188 6.597656 C 7.59375 6.570312 7.785156 6.257812 7.492188 6.15625 C 7.203125 6.050781 7.140625 6.355469 7.140625 6.355469 C 7.140625 6.355469 6.855469 6.4375 6.890625 6.511719 C 6.925781 6.582031 7.167969 6.484375 7.21875 6.546875 C 7.273438 6.605469 7.195312 6.691406 6.984375 6.9375 C 6.777344 7.179688 6.917969 7.507812 7.011719 7.59375 C 7.105469 7.679688 7.21875 7.742188 7.308594 7.820312 C 7.394531 7.898438 7.492188 7.941406 7.492188 7.941406 L 7.492188 8.195312 C 7.492188 8.195312 7.203125 8.222656 7.0625 8.203125 C 6.925781 8.1875 6.828125 8.28125 6.792969 8.394531 C 6.757812 8.507812 6.847656 8.566406 6.847656 8.480469 C 6.847656 8.394531 6.882812 8.445312 6.890625 8.515625 C 6.898438 8.585938 6.960938 8.558594 6.960938 8.472656 C 6.960938 8.386719 6.992188 8.421875 7.003906 8.464844 C 7.011719 8.507812 7.070312 8.445312 7.082031 8.394531 C 7.089844 8.34375 7.167969 8.316406 7.238281 8.300781 C 7.308594 8.28125 7.492188 8.316406 7.492188 8.316406 L 7.492188 8.777344 C 7.492188 8.777344 7.105469 8.800781 7.070312 8.855469 C 7.039062 8.90625 7.304688 8.898438 7.304688 8.898438 C 7.304688 8.898438 7.226562 9.046875 7.261719 9.054688 C 7.296875 9.0625 7.539062 8.90625 7.636719 8.890625 C 7.730469 8.871094 7.878906 8.933594 7.898438 8.890625 C 7.914062 8.847656 7.664062 8.785156 7.636719 8.742188 C 7.609375 8.699219 7.558594 8.300781 7.558594 8.300781 C 7.558594 8.300781 7.671875 8.289062 7.808594 8.296875 C 7.949219 8.308594 7.914062 8.1875 7.828125 8.066406 C 7.742188 7.941406 7.820312 7.910156 7.964844 7.933594 C 8.113281 7.960938 8.226562 7.933594 8.226562 7.699219 C 8.226562 7.464844 7.429688 7.101562 7.394531 7.039062 Z M 7.699219 8.167969 L 7.601562 8.167969 L 7.636719 7.996094 C 7.636719 7.996094 7.757812 8.167969 7.699219 8.167969 Z M 7.699219 8.167969 "/>
<path style=" stroke:none;fill-rule:nonzero;fill:rgb(85.098039%,0%,0%);fill-opacity:1;" d="M 7.28125 6.589844 C 7.292969 6.484375 7.125 6.492188 7.117188 6.589844 C 7.105469 6.683594 7.265625 6.734375 7.28125 6.589844 Z M 7.28125 6.589844 "/>
<path style=" stroke:none;fill-rule:nonzero;fill:rgb(61.176471%,65.098039%,61.176471%);fill-opacity:1;" d="M 7.394531 7.101562 C 7.445312 7.085938 7.980469 7.332031 8.125 7.394531 C 8.269531 7.460938 8.25 7.707031 8.226562 7.859375 C 8.203125 8.007812 8.117188 8.054688 8.117188 8.054688 C 8.117188 8.054688 8.023438 7.8125 7.726562 7.695312 C 7.328125 7.539062 7.214844 7.167969 7.394531 7.101562 Z M 7.394531 7.101562 "/>
<path style=" stroke:none;fill-rule:nonzero;fill:rgb(85.098039%,0%,0%);fill-opacity:1;" d="M 8 7.390625 C 8.175781 7.433594 8.546875 7.519531 8.582031 7.898438 C 8.613281 8.273438 8.226562 8.496094 8.226562 8.496094 L 8.292969 8.378906 L 8.175781 8.417969 L 8.226562 8.332031 L 8.046875 8.371094 C 8.046875 8.371094 8.347656 8.132812 8.242188 7.917969 C 8.25 8.097656 8.132812 8.144531 8.132812 8.144531 C 8.132812 8.144531 8.234375 7.894531 7.785156 7.625 L 7.902344 7.59375 L 7.785156 7.5 L 8.035156 7.59375 L 7.917969 7.449219 L 8.152344 7.539062 Z M 8 7.390625 "/>
<path style=" stroke:none;fill-rule:nonzero;fill:rgb(61.176471%,65.098039%,61.176471%);fill-opacity:1;" d="M 7.332031 6.390625 C 7.332031 6.414062 7.3125 6.433594 7.289062 6.433594 C 7.265625 6.433594 7.246094 6.414062 7.246094 6.390625 C 7.246094 6.367188 7.265625 6.347656 7.289062 6.347656 C 7.3125 6.347656 7.332031 6.367188 7.332031 6.390625 Z M 7.332031 6.390625 "/>
</g>
</svg>
