<?xml version="1.0" encoding="UTF-8"?>
<svg xmlns="http://www.w3.org/2000/svg" xmlns:xlink="http://www.w3.org/1999/xlink" width="15pt" height="15pt" viewBox="0 0 15 15" version="1.1">
<g id="surface1">
<path style=" stroke:none;fill-rule:nonzero;fill:rgb(23.137255%,53.333333%,76.470588%);fill-opacity:1;" d="M 15 13.332031 C 15 14.253906 14.253906 15 13.332031 15 L 1.667969 15 C 0.746094 15 0 14.253906 0 13.332031 L 0 1.667969 C 0 0.746094 0.746094 0 1.667969 0 L 13.332031 0 C 14.253906 0 15 0.746094 15 1.667969 Z M 15 13.332031 "/>
<path style=" stroke:none;fill-rule:nonzero;fill:rgb(100%,100%,100%);fill-opacity:1;" d="M 1.789062 4.097656 C 1.753906 3.929688 1.738281 3.839844 1.738281 3.660156 C 1.738281 3.246094 2.089844 2.808594 2.65625 2.808594 C 3.277344 2.808594 3.574219 3.167969 3.691406 3.738281 L 4.789062 9.226562 L 4.8125 9.226562 L 6.492188 3.570312 C 6.636719 3.105469 7.023438 2.808594 7.5 2.808594 C 7.980469 2.808594 8.367188 3.105469 8.507812 3.570312 L 10.1875 9.226562 L 10.214844 9.226562 L 11.3125 3.738281 C 11.429688 3.167969 11.726562 2.808594 12.347656 2.808594 C 12.914062 2.808594 13.261719 3.246094 13.261719 3.660156 C 13.261719 3.839844 13.25 3.929688 13.210938 4.097656 L 11.570312 11.152344 C 11.441406 11.695312 11.015625 12.160156 10.292969 12.160156 C 9.660156 12.160156 9.167969 11.746094 9.011719 11.21875 L 7.515625 6.230469 L 7.488281 6.230469 L 5.988281 11.21875 C 5.835938 11.746094 5.34375 12.160156 4.710938 12.160156 C 3.988281 12.160156 3.5625 11.695312 3.433594 11.152344 Z M 1.789062 4.097656 "/>
</g>
</svg>
