<?xml version="1.0" encoding="UTF-8"?>
<svg xmlns="http://www.w3.org/2000/svg" xmlns:xlink="http://www.w3.org/1999/xlink" width="15pt" height="15pt" viewBox="0 0 15 15" version="1.1">
<g id="surface1">
<path style=" stroke:none;fill-rule:nonzero;fill:rgb(93.333333%,93.333333%,93.333333%);fill-opacity:1;" d="M 0 5.417969 L 15 5.417969 L 15 9.582031 L 0 9.582031 Z M 0 5.417969 "/>
<path style=" stroke:none;fill-rule:nonzero;fill:rgb(80.784314%,6.666667%,14.901961%);fill-opacity:1;" d="M 13.332031 2.082031 L 1.667969 2.082031 C 0.746094 2.082031 0 2.828125 0 3.75 L 0 5.417969 L 15 5.417969 L 15 3.75 C 15 2.828125 14.253906 2.082031 13.332031 2.082031 Z M 13.332031 2.082031 "/>
<path style=" stroke:none;fill-rule:nonzero;fill:rgb(7.843137%,7.843137%,7.843137%);fill-opacity:1;" d="M 13.332031 12.917969 L 1.667969 12.917969 C 0.746094 12.917969 0 12.171875 0 11.25 L 0 9.582031 L 15 9.582031 L 15 11.25 C 15 12.171875 14.253906 12.917969 13.332031 12.917969 Z M 13.332031 12.917969 "/>
<path style=" stroke:none;fill-rule:nonzero;fill:rgb(0%,47.843137%,23.921569%);fill-opacity:1;" d="M 3.824219 7.636719 L 3.558594 8.449219 L 4.25 7.949219 L 4.941406 8.449219 L 4.675781 7.636719 L 5.367188 7.136719 L 4.511719 7.136719 L 4.25 6.328125 L 3.988281 7.136719 L 3.132812 7.136719 Z M 10.324219 7.636719 L 10.058594 8.449219 L 10.75 7.949219 L 11.441406 8.449219 L 11.175781 7.636719 L 11.867188 7.136719 L 11.011719 7.136719 L 10.75 6.328125 L 10.488281 7.136719 L 9.632812 7.136719 Z M 10.324219 7.636719 "/>
</g>
</svg>
