<?xml version="1.0" encoding="UTF-8"?>
<svg xmlns="http://www.w3.org/2000/svg" xmlns:xlink="http://www.w3.org/1999/xlink" width="15pt" height="15pt" viewBox="0 0 15 15" version="1.1">
<g id="surface1">
<path style=" stroke:none;fill-rule:nonzero;fill:rgb(93.333333%,93.333333%,93.333333%);fill-opacity:1;" d="M 15 11.25 C 15 12.171875 14.253906 12.917969 13.332031 12.917969 L 1.667969 12.917969 C 0.746094 12.917969 0 12.171875 0 11.25 L 0 3.75 C 0 2.828125 0.746094 2.082031 1.667969 2.082031 L 13.332031 2.082031 C 14.253906 2.082031 15 2.828125 15 3.75 Z M 15 11.25 "/>
<path style=" stroke:none;fill-rule:nonzero;fill:rgb(80.784314%,6.666667%,14.901961%);fill-opacity:1;" d="M 13.332031 2.082031 L 1.667969 2.082031 C 0.746094 2.082031 0 2.828125 0 3.75 L 0 7.5 L 14.96875 7.5 L 15 3.75 C 15 2.828125 14.253906 2.082031 13.332031 2.082031 Z M 13.332031 2.082031 "/>
<path style=" stroke:none;fill-rule:nonzero;fill:rgb(100%,67.45098%,20%);fill-opacity:1;" d="M 8.699219 7.390625 C 8.816406 7.234375 8.976562 7.234375 9.167969 7.335938 C 9.140625 7.078125 8.835938 6.917969 8.699219 6.898438 C 8.753906 6.710938 8.933594 6.617188 9.148438 6.644531 C 9.039062 6.414062 8.671875 6.40625 8.535156 6.433594 C 8.523438 6.238281 8.660156 6.085938 8.871094 6.039062 C 8.691406 5.859375 8.34375 5.980469 8.222656 6.054688 C 8.148438 5.875 8.226562 5.683594 8.40625 5.566406 C 8.175781 5.460938 7.890625 5.695312 7.804688 5.808594 C 7.671875 5.664062 7.683594 5.457031 7.8125 5.285156 C 7.5625 5.265625 7.371094 5.585938 7.328125 5.71875 C 7.152344 5.632812 7.09375 5.4375 7.15625 5.226562 C 6.914062 5.296875 6.84375 5.664062 6.847656 5.804688 C 6.65625 5.785156 6.535156 5.621094 6.523438 5.402344 C 6.320312 5.550781 6.378906 5.921875 6.429688 6.050781 C 6.238281 6.097656 6.070312 5.984375 5.984375 5.785156 C 5.847656 5.996094 6.023438 6.324219 6.117188 6.429688 C 5.953125 6.539062 5.757812 6.492188 5.609375 6.332031 C 5.550781 6.582031 5.828125 6.824219 5.949219 6.894531 C 5.835938 7.050781 5.765625 7.164062 5.574219 7.066406 C 5.597656 7.320312 5.8125 7.363281 5.949219 7.386719 Z M 8.699219 7.390625 "/>
<path style=" stroke:none;fill-rule:nonzero;fill:rgb(100%,94.509804%,0%);fill-opacity:1;" d="M 8.300781 7.140625 L 9.246094 6.800781 L 8.242188 6.804688 L 9.015625 6.152344 L 8.074219 6.507812 L 8.578125 5.625 L 7.8125 6.285156 L 7.992188 5.28125 L 7.496094 6.167969 L 7.328125 5.164062 L 7.15625 6.167969 L 6.660156 5.28125 L 6.839844 6.285156 L 6.074219 5.625 L 6.578125 6.507812 L 5.640625 6.152344 L 6.410156 6.804688 L 5.40625 6.800781 L 6.351562 7.140625 Z M 8.300781 7.140625 "/>
<path style=" stroke:none;fill-rule:nonzero;fill:rgb(100%,94.509804%,0%);fill-opacity:1;" d="M 7.328125 8.132812 C 7.863281 8.132812 8.300781 7.691406 8.300781 7.144531 C 8.300781 6.597656 7.863281 6.152344 7.328125 6.152344 C 6.789062 6.152344 6.351562 6.597656 6.351562 7.144531 C 6.351562 7.691406 6.789062 8.132812 7.328125 8.132812 Z M 7.328125 8.132812 "/>
<path style=" stroke:none;fill-rule:nonzero;fill:rgb(94.509804%,35.294118%,16.078431%);fill-opacity:1;" d="M 7.328125 8.144531 C 6.78125 8.144531 6.339844 7.695312 6.339844 7.144531 C 6.339844 6.589844 6.78125 6.140625 7.328125 6.140625 C 7.871094 6.140625 8.3125 6.589844 8.3125 7.144531 C 8.3125 7.695312 7.871094 8.144531 7.328125 8.144531 Z M 7.328125 6.164062 C 6.796875 6.164062 6.363281 6.605469 6.363281 7.144531 C 6.363281 7.683594 6.796875 8.121094 7.328125 8.121094 C 7.855469 8.121094 8.289062 7.683594 8.289062 7.144531 C 8.289062 6.605469 7.855469 6.164062 7.328125 6.164062 Z M 7.328125 6.164062 "/>
<path style=" stroke:none;fill-rule:nonzero;fill:rgb(100%,67.45098%,20%);fill-opacity:1;" d="M 7.265625 3.960938 C 7.1875 3.855469 7.089844 3.742188 6.972656 3.691406 C 6.855469 3.636719 6.648438 3.605469 6.421875 3.664062 C 6.167969 3.730469 5.867188 3.832031 5.628906 3.761719 C 5.582031 3.75 5.550781 3.796875 5.640625 3.847656 C 5.734375 3.902344 5.964844 3.914062 6.195312 3.882812 C 6.355469 3.863281 6.570312 3.871094 6.65625 3.902344 C 6.753906 3.941406 6.9375 4.078125 7.015625 4.21875 Z M 7.777344 4.535156 C 7.847656 4.507812 8.007812 4.492188 8.074219 4.503906 C 8.160156 4.519531 8.277344 4.476562 8.316406 4.457031 C 8.386719 4.425781 8.308594 4.375 8.039062 4.390625 C 7.859375 4.398438 7.789062 4.476562 7.777344 4.535156 Z M 7.777344 4.535156 "/>
<path style=" stroke:none;fill-rule:nonzero;fill:rgb(98.823529%,81.960784%,8.627451%);fill-opacity:1;" d="M 8.789062 3.539062 C 8.226562 3.511719 8.085938 3.628906 7.8125 3.648438 C 7.5625 3.671875 7.40625 3.746094 7.277344 3.894531 C 7.164062 4.027344 7.050781 4.144531 6.988281 4.1875 C 6.984375 4.191406 6.976562 4.199219 6.972656 4.203125 C 6.878906 4.195312 6.785156 4.160156 6.734375 4.109375 C 6.644531 4.023438 6.527344 4.011719 6.441406 4.101562 C 6.425781 4.117188 6.40625 4.144531 6.351562 4.144531 C 6.257812 4.144531 6.113281 4.144531 6.109375 4.300781 C 6.160156 4.238281 6.191406 4.230469 6.351562 4.230469 C 6.375 4.230469 6.402344 4.242188 6.429688 4.28125 C 6.464844 4.34375 6.542969 4.390625 6.621094 4.390625 C 6.703125 4.394531 6.734375 4.449219 6.789062 4.503906 C 6.941406 4.667969 7.28125 4.777344 7.601562 4.65625 C 7.765625 4.59375 7.917969 4.378906 8.199219 4.386719 C 8.464844 4.390625 8.605469 4.308594 8.375 4.246094 C 8.144531 4.1875 7.96875 4.210938 7.8125 4.242188 C 7.757812 4.25 7.703125 4.242188 7.644531 4.230469 C 7.664062 4.222656 7.683594 4.210938 7.6875 4.191406 C 7.726562 4.203125 7.789062 4.179688 7.804688 4.136719 C 7.84375 4.152344 7.902344 4.128906 7.917969 4.089844 C 7.972656 4.109375 8.027344 4.097656 8.050781 4.046875 C 8.085938 4.070312 8.148438 4.046875 8.160156 3.996094 C 8.195312 4.019531 8.25 4.015625 8.261719 3.964844 C 8.308594 3.996094 8.363281 3.96875 8.359375 3.917969 C 8.378906 3.925781 8.425781 3.917969 8.429688 3.882812 C 8.511719 3.886719 8.621094 3.882812 8.621094 3.820312 C 8.691406 3.824219 8.792969 3.792969 8.789062 3.714844 C 8.839844 3.710938 8.902344 3.671875 8.917969 3.617188 C 8.933594 3.570312 8.878906 3.542969 8.789062 3.539062 Z M 8.789062 3.539062 "/>
<path style=" stroke:none;fill-rule:nonzero;fill:rgb(93.333333%,93.333333%,93.333333%);fill-opacity:1;" d="M 6.25 7.5 L 8.332031 7.5 L 8.332031 8.332031 L 6.25 8.332031 Z M 6.25 7.5 "/>
<path style=" stroke:none;fill-rule:nonzero;fill:rgb(0%,14.117647%,49.019608%);fill-opacity:1;" d="M 14.96875 11.554688 C 14.808594 11.644531 14.628906 11.6875 14.316406 11.6875 C 13.5625 11.6875 13.5625 11.277344 12.804688 11.277344 C 12.046875 11.277344 12.046875 11.691406 11.265625 11.691406 C 10.53125 11.691406 10.53125 11.277344 9.761719 11.277344 C 9.015625 11.277344 9.015625 11.691406 8.257812 11.691406 C 7.5 11.691406 7.5 11.277344 6.742188 11.277344 C 5.984375 11.277344 5.984375 11.691406 5.226562 11.691406 C 4.46875 11.691406 4.46875 11.277344 3.714844 11.277344 C 2.957031 11.277344 2.957031 11.691406 2.199219 11.691406 C 1.441406 11.691406 1.441406 11.277344 0.683594 11.277344 C 0.363281 11.277344 0.183594 11.351562 0.0195312 11.433594 C 0.113281 12.265625 0.808594 12.917969 1.667969 12.917969 L 13.332031 12.917969 C 14.148438 12.917969 14.824219 12.328125 14.96875 11.554688 Z M 15 10.578125 L 15 9.765625 C 14.832031 9.859375 14.648438 9.921875 14.316406 9.921875 C 13.5625 9.921875 13.5625 9.503906 12.804688 9.503906 C 12.046875 9.503906 12.046875 9.917969 11.265625 9.917969 C 10.53125 9.917969 10.53125 9.503906 9.761719 9.503906 C 9.015625 9.503906 9.015625 9.917969 8.257812 9.917969 C 7.5 9.917969 7.5 9.503906 6.742188 9.503906 C 5.984375 9.503906 5.984375 9.917969 5.226562 9.917969 C 4.46875 9.917969 4.46875 9.503906 3.710938 9.503906 C 2.953125 9.503906 2.953125 9.917969 2.199219 9.917969 C 1.441406 9.917969 1.441406 9.503906 0.683594 9.503906 C 0.351562 9.503906 0.167969 9.582031 0 9.671875 L 0 10.503906 C 0.167969 10.414062 0.351562 10.335938 0.683594 10.335938 C 1.441406 10.335938 1.441406 10.753906 2.199219 10.753906 C 2.953125 10.753906 2.953125 10.335938 3.710938 10.335938 C 4.46875 10.335938 4.46875 10.753906 5.226562 10.753906 C 5.984375 10.753906 5.984375 10.335938 6.742188 10.335938 C 7.5 10.335938 7.5 10.753906 8.257812 10.753906 C 9.015625 10.753906 9.015625 10.335938 9.769531 10.335938 C 10.53125 10.335938 10.53125 10.753906 11.285156 10.753906 C 12.046875 10.753906 12.046875 10.335938 12.804688 10.335938 C 13.792969 10.335938 13.769531 10.75 14.320312 10.75 C 14.648438 10.75 14.832031 10.664062 15 10.578125 Z M 15 8.800781 L 15 7.992188 C 14.832031 8.085938 14.648438 8.144531 14.316406 8.144531 C 13.5625 8.144531 13.5625 7.726562 12.804688 7.726562 C 12.046875 7.726562 12.046875 8.144531 11.265625 8.144531 C 10.53125 8.144531 10.53125 7.726562 9.761719 7.726562 C 9.015625 7.726562 9.015625 8.144531 8.257812 8.144531 C 7.5 8.144531 7.5 7.726562 6.742188 7.726562 C 5.984375 7.726562 5.984375 8.144531 5.226562 8.144531 C 4.46875 8.144531 4.46875 7.726562 3.710938 7.726562 C 2.953125 7.726562 2.953125 8.144531 2.199219 8.144531 C 1.441406 8.144531 1.441406 7.726562 0.683594 7.726562 C 0.351562 7.726562 0.167969 7.808594 0 7.898438 L 0 8.730469 C 0.167969 8.640625 0.351562 8.5625 0.683594 8.5625 C 1.441406 8.5625 1.441406 8.976562 2.199219 8.976562 C 2.953125 8.976562 2.953125 8.5625 3.710938 8.5625 C 4.46875 8.5625 4.46875 8.976562 5.226562 8.976562 C 5.984375 8.976562 5.984375 8.5625 6.742188 8.5625 C 7.5 8.5625 7.5 8.976562 8.257812 8.976562 C 9.015625 8.976562 9.015625 8.5625 9.769531 8.5625 C 10.53125 8.5625 10.53125 8.976562 11.285156 8.976562 C 12.046875 8.976562 12.046875 8.5625 12.804688 8.5625 C 13.5625 8.5625 13.5625 8.964844 14.320312 8.964844 C 14.648438 8.964844 14.832031 8.890625 15 8.800781 Z M 15 8.800781 "/>
<path style=" stroke:none;fill-rule:nonzero;fill:rgb(93.333333%,93.333333%,93.333333%);fill-opacity:1;" d="M 15 7.96875 L 15 7.144531 C 14.832031 7.238281 14.648438 7.324219 14.316406 7.324219 C 13.5625 7.324219 13.5625 6.878906 12.804688 6.878906 C 12.046875 6.878906 12.046875 7.296875 11.265625 7.296875 C 10.53125 7.296875 10.53125 6.878906 9.761719 6.878906 C 9.015625 6.878906 9.015625 7.296875 8.257812 7.296875 C 7.5 7.296875 7.5 6.878906 6.742188 6.878906 C 5.984375 6.878906 5.984375 7.296875 5.226562 7.296875 C 4.46875 7.296875 4.46875 6.878906 3.710938 6.878906 C 2.953125 6.878906 2.953125 7.296875 2.199219 7.296875 C 1.441406 7.296875 1.441406 6.878906 0.683594 6.878906 C 0.351562 6.878906 0.167969 6.960938 0 7.046875 L 0 7.882812 C 0.167969 7.792969 0.351562 7.714844 0.683594 7.714844 C 1.441406 7.714844 1.441406 8.128906 2.199219 8.128906 C 2.953125 8.128906 2.953125 7.714844 3.710938 7.714844 C 4.46875 7.714844 4.46875 8.128906 5.226562 8.128906 C 5.984375 8.128906 5.984375 7.714844 6.742188 7.714844 C 7.5 7.714844 7.5 8.128906 8.257812 8.128906 C 9.015625 8.128906 9.015625 7.714844 9.769531 7.714844 C 10.53125 7.714844 10.53125 8.128906 11.285156 8.128906 C 12.046875 8.128906 12.046875 7.714844 12.804688 7.714844 C 13.5625 7.714844 13.5625 8.125 14.320312 8.125 C 14.648438 8.125 14.832031 8.054688 15 7.96875 Z M 15 7.96875 "/>
</g>
</svg>
