<?xml version="1.0" encoding="UTF-8"?>
<svg xmlns="http://www.w3.org/2000/svg" xmlns:xlink="http://www.w3.org/1999/xlink" width="15pt" height="15pt" viewBox="0 0 15 15" version="1.1">
<g id="surface1">
<path style=" stroke:none;fill-rule:nonzero;fill:rgb(13.333333%,25.098039%,54.509804%);fill-opacity:1;" d="M 11.582031 7.917969 L 3.332031 2.082031 L 3.332031 12.917969 L 11.582031 12.917969 L 6.632812 7.917969 Z M 11.582031 7.917969 "/>
<path style=" stroke:none;fill-rule:nonzero;fill:rgb(86.666667%,18.431373%,27.058824%);fill-opacity:1;" d="M 10.417969 7.5 L 3.75 3 L 3.75 12.5 L 10.417969 12.5 L 5.65625 7.5 Z M 10.417969 7.5 "/>
<path style=" stroke:none;fill-rule:nonzero;fill:rgb(100%,100%,100%);fill-opacity:1;" d="M 5.953125 10.015625 L 6.199219 9.675781 L 5.78125 9.71875 L 5.824219 9.300781 L 5.484375 9.546875 L 5.3125 9.164062 L 5.136719 9.546875 L 4.796875 9.300781 L 4.839844 9.71875 L 4.421875 9.675781 L 4.667969 10.015625 L 4.285156 10.191406 L 4.667969 10.363281 L 4.421875 10.703125 L 4.839844 10.660156 L 4.796875 11.078125 L 5.136719 10.832031 L 5.3125 11.214844 L 5.484375 10.832031 L 5.824219 11.078125 L 5.78125 10.660156 L 6.199219 10.703125 L 5.953125 10.363281 L 6.335938 10.191406 Z M 5.308594 7.039062 L 5.320312 7.039062 C 5.929688 7.039062 6.425781 6.570312 6.480469 5.96875 C 6.332031 6.242188 6.097656 6.453125 5.8125 6.570312 L 5.742188 6.46875 L 5.996094 6.355469 L 5.742188 6.238281 L 5.902344 6.011719 L 5.625 6.039062 L 5.652344 5.761719 L 5.425781 5.925781 L 5.3125 5.667969 L 5.195312 5.925781 L 4.96875 5.761719 L 4.996094 6.039062 L 4.71875 6.011719 L 4.882812 6.238281 L 4.625 6.355469 L 4.882812 6.46875 L 4.8125 6.566406 C 4.53125 6.449219 4.300781 6.238281 4.160156 5.96875 C 4.210938 6.566406 4.703125 7.035156 5.308594 7.039062 Z M 5.308594 7.039062 "/>
</g>
</svg>
