<?xml version="1.0" encoding="UTF-8"?>
<svg xmlns="http://www.w3.org/2000/svg" xmlns:xlink="http://www.w3.org/1999/xlink" width="15pt" height="15pt" viewBox="0 0 15 15" version="1.1">
<g id="surface1">
<path style=" stroke:none;fill-rule:nonzero;fill:rgb(93.333333%,93.333333%,93.333333%);fill-opacity:1;" d="M 15 11.25 C 15 12.171875 14.253906 12.917969 13.332031 12.917969 L 1.667969 12.917969 C 0.746094 12.917969 0 12.171875 0 11.25 L 0 3.75 C 0 2.828125 0.746094 2.082031 1.667969 2.082031 L 13.332031 2.082031 C 14.253906 2.082031 15 2.828125 15 3.75 Z M 15 11.25 "/>
<path style=" stroke:none;fill-rule:nonzero;fill:rgb(83.137255%,18.039216%,6.666667%);fill-opacity:1;" d="M 3.65625 3.386719 L 3.886719 3.386719 L 4.230469 4.398438 L 4.574219 3.386719 L 4.804688 3.386719 L 4.804688 4.582031 L 4.648438 4.582031 L 4.648438 3.878906 C 4.648438 3.851562 4.648438 3.8125 4.652344 3.757812 C 4.652344 3.699219 4.652344 3.640625 4.652344 3.574219 L 4.3125 4.582031 L 4.152344 4.582031 L 3.804688 3.574219 L 3.804688 3.613281 C 3.804688 3.640625 3.808594 3.683594 3.808594 3.746094 C 3.808594 3.804688 3.8125 3.847656 3.8125 3.878906 L 3.8125 4.582031 L 3.65625 4.582031 Z M 5.5625 3.386719 L 5.746094 3.386719 L 6.179688 4.582031 L 6.003906 4.582031 L 5.878906 4.226562 L 5.410156 4.226562 L 5.28125 4.582031 L 5.113281 4.582031 Z M 5.832031 4.09375 L 5.648438 3.566406 L 5.457031 4.09375 Z M 6.113281 3.386719 L 6.300781 3.386719 L 6.644531 3.960938 L 6.988281 3.386719 L 7.179688 3.386719 L 6.726562 4.101562 L 6.726562 4.582031 L 6.5625 4.582031 L 6.5625 4.101562 Z M 8.300781 3.558594 C 8.378906 3.664062 8.417969 3.800781 8.417969 3.964844 C 8.417969 4.144531 8.375 4.292969 8.285156 4.410156 C 8.175781 4.546875 8.027344 4.617188 7.828125 4.617188 C 7.644531 4.617188 7.5 4.558594 7.394531 4.4375 C 7.300781 4.320312 7.253906 4.171875 7.253906 3.992188 C 7.253906 3.828125 7.292969 3.691406 7.375 3.578125 C 7.476562 3.429688 7.628906 3.355469 7.832031 3.355469 C 8.042969 3.355469 8.199219 3.421875 8.300781 3.558594 Z M 8.15625 4.320312 C 8.222656 4.21875 8.253906 4.101562 8.253906 3.96875 C 8.253906 3.828125 8.214844 3.714844 8.140625 3.628906 C 8.070312 3.542969 7.96875 3.5 7.839844 3.5 C 7.71875 3.5 7.617188 3.542969 7.539062 3.628906 C 7.460938 3.710938 7.421875 3.835938 7.421875 4.003906 C 7.421875 4.136719 7.453125 4.246094 7.519531 4.339844 C 7.589844 4.429688 7.695312 4.472656 7.847656 4.472656 C 7.992188 4.472656 8.09375 4.421875 8.15625 4.320312 Z M 9.480469 3.386719 L 9.480469 3.53125 L 9.078125 3.53125 L 9.078125 4.582031 L 8.914062 4.582031 L 8.914062 3.53125 L 8.511719 3.53125 L 8.511719 3.386719 Z M 10.566406 3.386719 L 10.566406 3.53125 L 10.164062 3.53125 L 10.164062 4.582031 L 10 4.582031 L 10 3.53125 L 9.597656 3.53125 L 9.597656 3.386719 Z M 10.828125 3.386719 L 11.699219 3.386719 L 11.699219 3.535156 L 10.988281 3.535156 L 10.988281 3.898438 L 11.644531 3.898438 L 11.644531 4.035156 L 10.988281 4.035156 L 10.988281 4.441406 L 11.710938 4.441406 L 11.710938 4.582031 L 10.828125 4.582031 Z M 10.828125 3.386719 "/>
<path style=" stroke:none;fill-rule:nonzero;fill:rgb(13.72549%,12.156863%,12.54902%);fill-opacity:1;" d="M 7.5 10.378906 C 7.472656 10.378906 7.449219 10.355469 7.449219 10.328125 C 7.449219 10.3125 7.441406 9.960938 7.082031 9.960938 L 6.25 9.960938 C 5.789062 9.960938 5.480469 9.605469 5.480469 9.078125 L 5.480469 5.558594 C 5.480469 5.527344 5.503906 5.503906 5.53125 5.503906 L 9.457031 5.503906 C 9.488281 5.503906 9.511719 5.527344 9.511719 5.558594 L 9.511719 9.078125 C 9.511719 9.605469 9.207031 9.960938 8.75 9.960938 L 7.917969 9.960938 C 7.558594 9.960938 7.550781 10.3125 7.550781 10.328125 C 7.550781 10.355469 7.527344 10.378906 7.5 10.378906 Z M 7.5 10.378906 "/>
<path style=" stroke:none;fill-rule:nonzero;fill:rgb(93.333333%,93.333333%,93.333333%);fill-opacity:1;" d="M 5.585938 5.609375 L 5.585938 9.078125 C 5.585938 9.464844 5.789062 9.859375 6.25 9.859375 L 7.082031 9.859375 C 7.3125 9.859375 7.4375 9.976562 7.5 10.105469 C 7.5625 9.976562 7.6875 9.859375 7.917969 9.859375 L 8.75 9.859375 C 9.148438 9.859375 9.40625 9.550781 9.40625 9.078125 L 9.40625 5.609375 Z M 5.585938 5.609375 "/>
<path style=" stroke:none;fill-rule:nonzero;fill:rgb(13.333333%,40%,60%);fill-opacity:1;" d="M 8.542969 6.886719 C 8.542969 7.109375 8.355469 7.292969 8.125 7.292969 C 7.894531 7.292969 7.707031 7.109375 7.707031 6.886719 C 7.707031 6.660156 7.894531 6.480469 8.125 6.480469 C 8.355469 6.480469 8.542969 6.660156 8.542969 6.886719 Z M 8.542969 6.886719 "/>
<path style=" stroke:none;fill-rule:nonzero;fill:rgb(13.333333%,40%,60%);fill-opacity:1;" d="M 8.542969 7.511719 C 8.542969 7.734375 8.355469 7.917969 8.125 7.917969 C 7.894531 7.917969 7.707031 7.734375 7.707031 7.511719 C 7.707031 7.285156 7.894531 7.105469 8.125 7.105469 C 8.355469 7.105469 8.542969 7.285156 8.542969 7.511719 Z M 8.542969 7.511719 "/>
<path style=" stroke:none;fill-rule:nonzero;fill:rgb(13.333333%,40%,60%);fill-opacity:1;" d="M 7.917969 6.886719 C 7.917969 7.109375 7.730469 7.292969 7.5 7.292969 C 7.269531 7.292969 7.082031 7.109375 7.082031 6.886719 C 7.082031 6.660156 7.269531 6.480469 7.5 6.480469 C 7.730469 6.480469 7.917969 6.660156 7.917969 6.886719 Z M 7.917969 6.886719 "/>
<path style=" stroke:none;fill-rule:nonzero;fill:rgb(13.333333%,40%,60%);fill-opacity:1;" d="M 7.917969 7.511719 C 7.917969 7.734375 7.730469 7.917969 7.5 7.917969 C 7.269531 7.917969 7.082031 7.734375 7.082031 7.511719 C 7.082031 7.285156 7.269531 7.105469 7.5 7.105469 C 7.730469 7.105469 7.917969 7.285156 7.917969 7.511719 Z M 7.917969 7.511719 "/>
<path style=" stroke:none;fill-rule:nonzero;fill:rgb(13.333333%,40%,60%);fill-opacity:1;" d="M 7.292969 6.886719 C 7.292969 7.109375 7.105469 7.292969 6.875 7.292969 C 6.644531 7.292969 6.457031 7.109375 6.457031 6.886719 C 6.457031 6.660156 6.644531 6.480469 6.875 6.480469 C 7.105469 6.480469 7.292969 6.660156 7.292969 6.886719 Z M 7.292969 6.886719 "/>
<path style=" stroke:none;fill-rule:nonzero;fill:rgb(13.333333%,40%,60%);fill-opacity:1;" d="M 7.292969 7.511719 C 7.292969 7.734375 7.105469 7.917969 6.875 7.917969 C 6.644531 7.917969 6.457031 7.734375 6.457031 7.511719 C 6.457031 7.285156 6.644531 7.105469 6.875 7.105469 C 7.105469 7.105469 7.292969 7.285156 7.292969 7.511719 Z M 7.292969 7.511719 "/>
<path style=" stroke:none;fill-rule:nonzero;fill:rgb(9.019608%,9.019608%,58.823529%);fill-opacity:1;" d="M 9.167969 6.886719 C 9.167969 6.757812 9.101562 6.648438 9.003906 6.574219 C 9.101562 6.5 9.167969 6.390625 9.167969 6.261719 C 9.167969 6.035156 8.980469 5.855469 8.75 5.855469 C 8.628906 5.855469 8.519531 5.90625 8.445312 5.988281 C 8.367188 5.898438 8.253906 5.832031 8.125 5.832031 C 7.996094 5.832031 7.886719 5.890625 7.8125 5.980469 C 7.734375 5.890625 7.625 5.832031 7.5 5.832031 C 7.375 5.832031 7.265625 5.894531 7.1875 5.980469 C 7.109375 5.894531 7 5.832031 6.875 5.832031 C 6.75 5.832031 6.640625 5.894531 6.5625 5.980469 C 6.484375 5.894531 6.375 5.832031 6.25 5.832031 C 6.019531 5.832031 5.832031 6.019531 5.832031 6.25 C 5.832031 6.375 5.894531 6.484375 5.980469 6.5625 C 5.894531 6.640625 5.832031 6.75 5.832031 6.875 C 5.832031 7 5.894531 7.109375 5.980469 7.1875 C 5.894531 7.265625 5.832031 7.375 5.832031 7.5 C 5.832031 7.730469 6.019531 8.019531 6.25 8.019531 L 8.75 8.019531 C 8.980469 8.019531 9.167969 7.785156 9.167969 7.5625 C 9.167969 7.433594 9.101562 7.296875 9.003906 7.222656 C 9.101562 7.148438 9.167969 7.015625 9.167969 6.886719 Z M 9.167969 6.886719 "/>
<path style=" stroke:none;fill-rule:nonzero;fill:rgb(83.137255%,18.039216%,6.666667%);fill-opacity:1;" d="M 9.167969 7.925781 C 9.167969 7.847656 9.140625 7.769531 9.101562 7.707031 L 5.898438 7.707031 C 5.859375 7.773438 5.832031 7.847656 5.832031 7.925781 C 5.832031 8.054688 5.894531 8.164062 5.988281 8.238281 C 5.894531 8.3125 5.832031 8.425781 5.832031 8.550781 C 5.832031 8.679688 5.894531 8.789062 5.988281 8.863281 C 5.894531 8.9375 5.832031 9.050781 5.832031 9.175781 C 5.832031 9.402344 6.019531 9.582031 6.25 9.582031 C 6.375 9.582031 6.484375 9.527344 6.5625 9.441406 C 6.640625 9.527344 6.75 9.582031 6.875 9.582031 C 7 9.582031 7.109375 9.527344 7.1875 9.441406 C 7.265625 9.527344 7.375 9.582031 7.5 9.582031 C 7.625 9.582031 7.734375 9.527344 7.8125 9.441406 C 7.890625 9.527344 8 9.582031 8.125 9.582031 C 8.25 9.582031 8.359375 9.527344 8.4375 9.441406 C 8.515625 9.527344 8.625 9.582031 8.75 9.582031 C 8.980469 9.582031 9.167969 9.402344 9.167969 9.175781 C 9.167969 9.050781 9.105469 8.9375 9.011719 8.863281 C 9.105469 8.789062 9.167969 8.679688 9.167969 8.550781 C 9.167969 8.425781 9.105469 8.3125 9.011719 8.238281 C 9.105469 8.164062 9.167969 8.054688 9.167969 7.925781 Z M 9.167969 7.925781 "/>
<path style=" stroke:none;fill-rule:nonzero;fill:rgb(93.333333%,93.333333%,93.333333%);fill-opacity:1;" d="M 7.5 7.082031 C 7.113281 7.082031 6.789062 6.816406 6.695312 6.457031 C 6.679688 6.527344 6.667969 6.59375 6.667969 6.667969 C 6.667969 7.125 7.039062 7.5 7.5 7.5 C 7.960938 7.5 8.332031 7.125 8.332031 6.667969 C 8.332031 6.59375 8.320312 6.527344 8.304688 6.457031 C 8.210938 6.816406 7.886719 7.082031 7.5 7.082031 Z M 7.5 7.082031 "/>
<path style=" stroke:none;fill-rule:nonzero;fill:rgb(100%,67.45098%,20%);fill-opacity:1;" d="M 7.027344 8.59375 C 6.988281 8.570312 6.945312 8.554688 6.910156 8.542969 C 6.945312 8.53125 6.988281 8.511719 7.027344 8.488281 C 7.148438 8.421875 7.226562 8.332031 7.203125 8.292969 C 7.179688 8.25 7.066406 8.277344 6.945312 8.34375 C 6.902344 8.367188 6.871094 8.394531 6.839844 8.421875 C 6.847656 8.382812 6.855469 8.339844 6.855469 8.292969 C 6.855469 8.152344 6.816406 8.042969 6.769531 8.042969 C 6.722656 8.042969 6.6875 8.152344 6.6875 8.292969 C 6.6875 8.339844 6.691406 8.382812 6.703125 8.421875 C 6.671875 8.394531 6.636719 8.367188 6.597656 8.34375 C 6.476562 8.277344 6.359375 8.25 6.335938 8.292969 C 6.316406 8.332031 6.390625 8.417969 6.511719 8.488281 C 6.554688 8.511719 6.59375 8.53125 6.632812 8.542969 C 6.59375 8.554688 6.554688 8.570312 6.511719 8.59375 C 6.390625 8.664062 6.3125 8.753906 6.335938 8.792969 C 6.359375 8.832031 6.476562 8.808594 6.597656 8.738281 C 6.636719 8.714844 6.671875 8.6875 6.703125 8.660156 C 6.691406 8.699219 6.6875 8.742188 6.6875 8.792969 C 6.6875 8.929688 6.722656 9.042969 6.769531 9.042969 C 6.816406 9.042969 6.855469 8.929688 6.855469 8.792969 C 6.855469 8.742188 6.847656 8.699219 6.839844 8.664062 C 6.871094 8.6875 6.902344 8.714844 6.945312 8.738281 C 7.066406 8.808594 7.179688 8.832031 7.203125 8.792969 C 7.226562 8.75 7.148438 8.664062 7.027344 8.59375 Z M 8.488281 8.59375 C 8.445312 8.570312 8.40625 8.554688 8.367188 8.542969 C 8.40625 8.53125 8.445312 8.511719 8.488281 8.488281 C 8.605469 8.421875 8.683594 8.332031 8.660156 8.292969 C 8.640625 8.25 8.523438 8.277344 8.402344 8.34375 C 8.363281 8.367188 8.328125 8.394531 8.296875 8.421875 C 8.308594 8.382812 8.3125 8.339844 8.3125 8.292969 C 8.3125 8.152344 8.273438 8.042969 8.230469 8.042969 C 8.183594 8.042969 8.144531 8.152344 8.144531 8.292969 C 8.144531 8.339844 8.152344 8.382812 8.160156 8.421875 C 8.128906 8.394531 8.097656 8.367188 8.054688 8.34375 C 7.933594 8.277344 7.820312 8.25 7.796875 8.292969 C 7.773438 8.332031 7.851562 8.417969 7.972656 8.488281 C 8.011719 8.511719 8.054688 8.53125 8.089844 8.542969 C 8.054688 8.554688 8.011719 8.570312 7.972656 8.59375 C 7.851562 8.664062 7.773438 8.753906 7.796875 8.792969 C 7.820312 8.832031 7.933594 8.808594 8.054688 8.738281 C 8.097656 8.714844 8.128906 8.6875 8.160156 8.660156 C 8.152344 8.699219 8.144531 8.742188 8.144531 8.792969 C 8.144531 8.929688 8.183594 9.042969 8.230469 9.042969 C 8.273438 9.042969 8.3125 8.929688 8.3125 8.792969 C 8.3125 8.742188 8.308594 8.699219 8.296875 8.664062 C 8.328125 8.6875 8.363281 8.714844 8.402344 8.738281 C 8.523438 8.808594 8.640625 8.832031 8.660156 8.792969 C 8.683594 8.75 8.605469 8.664062 8.488281 8.59375 Z M 8.488281 8.59375 "/>
<path style=" stroke:none;fill-rule:nonzero;fill:rgb(80%,83.921569%,86.666667%);fill-opacity:1;" d="M 3.824219 11.941406 C 3.824219 11.941406 4.824219 11.398438 5.144531 11.328125 C 5.464844 11.253906 5.832031 11.246094 5.6875 11.464844 C 5.539062 11.683594 5.714844 11.949219 5.484375 11.921875 C 5.253906 11.894531 4.734375 12.132812 4.539062 12.214844 C 4.347656 12.296875 4.0625 12.445312 4.0625 12.445312 Z M 3.824219 11.941406 "/>
<path style=" stroke:none;fill-rule:nonzero;fill:rgb(40%,45.882353%,49.803922%);fill-opacity:1;" d="M 5.832031 11.601562 C 5.777344 11.464844 5.703125 11.328125 5.703125 11.328125 C 5.703125 11.328125 5.667969 11.410156 5.542969 11.46875 C 5.433594 11.515625 5.328125 11.605469 5.355469 11.667969 C 5.394531 11.75 5.832031 11.601562 5.832031 11.601562 Z M 5.832031 11.601562 "/>
<path style=" stroke:none;fill-rule:nonzero;fill:rgb(80%,83.921569%,86.666667%);fill-opacity:1;" d="M 11.3125 11.941406 C 11.3125 11.941406 10.316406 11.398438 9.992188 11.328125 C 9.671875 11.253906 9.308594 11.246094 9.453125 11.464844 C 9.601562 11.683594 9.425781 11.949219 9.65625 11.921875 C 9.882812 11.894531 10.40625 12.132812 10.597656 12.214844 C 10.792969 12.296875 11.078125 12.445312 11.078125 12.445312 Z M 11.3125 11.941406 "/>
<path style=" stroke:none;fill-rule:nonzero;fill:rgb(40%,45.882353%,49.803922%);fill-opacity:1;" d="M 9.308594 11.601562 C 9.363281 11.464844 9.433594 11.328125 9.433594 11.328125 C 9.433594 11.328125 9.46875 11.410156 9.597656 11.46875 C 9.703125 11.515625 9.8125 11.605469 9.785156 11.667969 C 9.742188 11.75 9.308594 11.601562 9.308594 11.601562 Z M 9.308594 11.601562 "/>
<path style=" stroke:none;fill-rule:nonzero;fill:rgb(80%,83.921569%,86.666667%);fill-opacity:1;" d="M 9.152344 11.390625 C 8.902344 11.308594 8.226562 11.261719 8.003906 11.261719 L 7.132812 11.261719 C 6.914062 11.261719 6.238281 11.308594 5.988281 11.390625 C 5.742188 11.472656 5.527344 11.671875 5.355469 11.667969 C 5.367188 11.71875 5.382812 11.785156 5.449219 11.988281 C 5.511719 12.1875 5.6875 12.179688 5.886719 12.078125 C 6.089844 11.976562 6.382812 11.914062 6.660156 11.914062 L 8.480469 11.914062 C 8.757812 11.914062 9.050781 11.976562 9.253906 12.078125 C 9.453125 12.179688 9.628906 12.1875 9.691406 11.988281 C 9.757812 11.785156 9.769531 11.71875 9.785156 11.667969 C 9.613281 11.671875 9.398438 11.472656 9.152344 11.390625 Z M 9.152344 11.390625 "/>
<path style=" stroke:none;fill-rule:nonzero;fill:rgb(60%,66.666667%,70.980392%);fill-opacity:1;" d="M 6.492188 11.457031 L 7.214844 11.457031 L 7.214844 11.800781 L 6.492188 11.800781 Z M 7.574219 11.457031 L 8.804688 11.457031 L 8.804688 11.800781 L 7.574219 11.800781 Z M 7.574219 11.457031 "/>
<path style=" stroke:none;fill-rule:nonzero;fill:rgb(80%,83.921569%,86.666667%);fill-opacity:1;" d="M 2.691406 5.363281 L 3.105469 5.46875 L 3.453125 5.191406 C 3.453125 5.191406 3.871094 5.035156 4.09375 5.15625 C 4.320312 5.277344 4.128906 5.261719 3.921875 5.3125 C 3.714844 5.363281 3.667969 5.570312 3.722656 5.652344 C 3.800781 5.769531 4.039062 5.777344 4.007812 5.597656 C 3.996094 5.519531 4.339844 5.695312 4.304688 5.886719 L 4.269531 6.078125 C 4.269531 6.078125 4.25 6.511719 4.53125 6.597656 C 4.808594 6.683594 4.777344 6.945312 4.515625 6.925781 C 4.257812 6.910156 3.816406 6.578125 3.816406 6.578125 C 3.816406 6.578125 3.59375 6.734375 3.539062 6.632812 C 3.539062 6.632812 3 6.511719 3.070312 6.023438 C 3.070312 6.023438 2.902344 6.5625 3.242188 6.746094 C 3.726562 7.007812 3.789062 6.828125 4.199219 7.152344 C 4.6875 7.539062 5.066406 8.253906 4.945312 9.246094 C 4.824219 10.234375 4.546875 10.898438 3.4375 10.898438 C 2.785156 10.898438 2.433594 10.414062 2.433594 9.933594 C 2.433594 9.457031 2.863281 9.167969 3.136719 9.167969 C 3.460938 9.167969 3.566406 9.480469 3.527344 9.558594 C 3.394531 9.820312 3.269531 9.636719 3.371094 9.519531 C 3.433594 9.441406 3.304688 9.316406 3.148438 9.324219 C 2.835938 9.335938 2.667969 9.640625 2.667969 9.933594 C 2.667969 10.230469 3 10.675781 3.417969 10.675781 C 3.835938 10.675781 4.304688 10.296875 4.304688 9.703125 C 4.304688 9.113281 4.058594 8.734375 3.660156 8.402344 L 3.460938 8.789062 C 3.460938 8.789062 2.699219 8.679688 2.265625 8.230469 C 1.828125 7.777344 1.871094 7.203125 1.953125 7.265625 C 2.132812 7.410156 2.566406 7.429688 2.566406 7.429688 C 2.566406 7.429688 2.394531 7.066406 2.273438 6.996094 C 2.152344 6.925781 1.902344 6.554688 2.09375 6.121094 C 2.285156 5.6875 2.566406 5.554688 2.636719 5.695312 C 2.707031 5.832031 2.890625 5.738281 2.835938 5.597656 C 2.785156 5.460938 2.691406 5.363281 2.691406 5.363281 Z M 2.691406 5.363281 "/>
<path style=" stroke:none;fill-rule:nonzero;fill:rgb(60%,66.666667%,70.980392%);fill-opacity:1;" d="M 2.472656 7.253906 C 2.71875 7.589844 3.003906 8.035156 3.421875 8.253906 C 3.839844 8.476562 4.320312 9.050781 4.320312 9.621094 C 4.320312 10.195312 3.933594 10.675781 3.417969 10.675781 C 2.902344 10.675781 2.65625 10.195312 2.65625 9.882812 C 2.65625 9.570312 2.929688 9.402344 2.929688 9.402344 C 2.929688 9.402344 2.628906 9.464844 2.5625 9.855469 C 2.503906 10.203125 2.835938 10.769531 3.382812 10.769531 C 4.191406 10.769531 4.492188 10.222656 4.492188 9.621094 C 4.492188 9.023438 3.96875 8.371094 3.617188 8.019531 C 3.265625 7.667969 2.785156 7.265625 2.5625 7.03125 C 2.34375 6.796875 2.472656 7.253906 2.472656 7.253906 Z M 2.472656 7.253906 "/>
<path style=" stroke:none;fill-rule:nonzero;fill:rgb(80%,83.921569%,86.666667%);fill-opacity:1;" d="M 12.28125 5.363281 L 11.871094 5.46875 L 11.523438 5.191406 C 11.523438 5.191406 11.105469 5.035156 10.882812 5.15625 C 10.65625 5.277344 10.847656 5.261719 11.054688 5.3125 C 11.261719 5.363281 11.308594 5.570312 11.253906 5.652344 C 11.175781 5.769531 10.9375 5.777344 10.96875 5.597656 C 10.980469 5.519531 10.636719 5.695312 10.671875 5.886719 L 10.707031 6.078125 C 10.707031 6.078125 10.722656 6.511719 10.445312 6.597656 C 10.167969 6.683594 10.199219 6.945312 10.460938 6.925781 C 10.71875 6.910156 11.160156 6.578125 11.160156 6.578125 C 11.160156 6.578125 11.382812 6.734375 11.4375 6.632812 C 11.4375 6.632812 11.972656 6.511719 11.90625 6.023438 C 11.90625 6.023438 12.074219 6.5625 11.734375 6.746094 C 11.246094 7.007812 11.1875 6.828125 10.777344 7.152344 C 10.289062 7.539062 9.910156 8.253906 10.03125 9.246094 C 10.152344 10.234375 10.429688 10.898438 11.539062 10.898438 C 12.191406 10.898438 12.542969 10.414062 12.542969 9.933594 C 12.542969 9.457031 12.113281 9.167969 11.839844 9.167969 C 11.515625 9.167969 11.410156 9.480469 11.449219 9.558594 C 11.578125 9.820312 11.703125 9.640625 11.605469 9.519531 C 11.539062 9.441406 11.671875 9.316406 11.828125 9.324219 C 12.140625 9.335938 12.308594 9.640625 12.308594 9.933594 C 12.308594 10.230469 11.972656 10.675781 11.558594 10.675781 C 11.140625 10.675781 10.671875 10.296875 10.671875 9.707031 C 10.671875 9.113281 10.914062 8.734375 11.3125 8.402344 L 11.511719 8.789062 C 11.511719 8.789062 12.277344 8.679688 12.710938 8.230469 C 13.144531 7.777344 13.101562 7.203125 13.023438 7.265625 C 12.839844 7.410156 12.40625 7.429688 12.40625 7.429688 C 12.40625 7.429688 12.582031 7.066406 12.703125 6.996094 C 12.824219 6.925781 13.070312 6.554688 12.878906 6.121094 C 12.691406 5.6875 12.40625 5.554688 12.339844 5.695312 C 12.269531 5.832031 12.085938 5.738281 12.140625 5.597656 C 12.191406 5.460938 12.28125 5.363281 12.28125 5.363281 Z M 12.28125 5.363281 "/>
<path style=" stroke:none;fill-rule:nonzero;fill:rgb(60%,66.666667%,70.980392%);fill-opacity:1;" d="M 12.503906 7.253906 C 12.257812 7.589844 11.96875 8.035156 11.554688 8.253906 C 11.136719 8.476562 10.65625 9.050781 10.65625 9.621094 C 10.65625 10.195312 11.042969 10.675781 11.558594 10.675781 C 12.074219 10.675781 12.320312 10.195312 12.320312 9.882812 C 12.320312 9.570312 12.046875 9.402344 12.046875 9.402344 C 12.046875 9.402344 12.347656 9.464844 12.414062 9.855469 C 12.472656 10.203125 12.140625 10.769531 11.59375 10.769531 C 10.785156 10.769531 10.484375 10.222656 10.484375 9.621094 C 10.484375 9.023438 11.007812 8.371094 11.359375 8.019531 C 11.710938 7.667969 12.191406 7.265625 12.414062 7.03125 C 12.632812 6.796875 12.503906 7.253906 12.503906 7.253906 Z M 12.503906 7.253906 "/>
</g>
</svg>
