<?xml version="1.0" encoding="UTF-8"?>
<svg xmlns="http://www.w3.org/2000/svg" xmlns:xlink="http://www.w3.org/1999/xlink" width="15pt" height="15pt" viewBox="0 0 15 15" version="1.1">
<g id="surface1">
<path style=" stroke:none;fill-rule:nonzero;fill:rgb(0%,13.72549%,58.431373%);fill-opacity:1;" d="M 13.332031 2.082031 L 7.5 2.082031 L 7.5 7.082031 L 0 7.082031 L 0 11.25 C 0 12.171875 0.746094 12.917969 1.667969 12.917969 L 13.332031 12.917969 C 14.253906 12.917969 15 12.171875 15 11.25 L 15 3.75 C 15 2.828125 14.253906 2.082031 13.332031 2.082031 Z M 13.332031 2.082031 "/>
<path style=" stroke:none;fill-rule:nonzero;fill:rgb(93.333333%,93.333333%,93.333333%);fill-opacity:1;" d="M 0 6.667969 L 7.917969 6.667969 L 7.917969 7.5 L 0 7.5 Z M 0 6.667969 "/>
<path style=" stroke:none;fill-rule:nonzero;fill:rgb(0%,13.72549%,58.431373%);fill-opacity:1;" d="M 2.5 7.082031 L 0 7.082031 L 0 3.75 C 0 2.828125 0.746094 2.082031 1.667969 2.082031 L 2.5 2.082031 Z M 2.5 7.082031 "/>
<path style=" stroke:none;fill-rule:nonzero;fill:rgb(93.333333%,93.333333%,93.333333%);fill-opacity:1;" d="M 2.5 2.082031 L 5 2.082031 L 5 7.082031 L 2.5 7.082031 Z M 7.082031 2.082031 L 7.917969 2.082031 L 7.917969 7.5 L 7.082031 7.5 Z M 7.082031 2.082031 "/>
<path style=" stroke:none;fill-rule:nonzero;fill:rgb(92.941176%,16.078431%,22.352941%);fill-opacity:1;" d="M 5 2.082031 L 7.5 2.082031 L 7.5 7.082031 L 5 7.082031 Z M 5 2.082031 "/>
<path style=" stroke:none;fill-rule:nonzero;fill:rgb(100%,100%,100%);fill-opacity:1;" d="M 12.484375 8.371094 L 11.777344 9.46875 L 11.777344 7.484375 L 12.722656 7.484375 L 13.070312 7.082031 L 9.835938 7.082031 L 10.1875 7.484375 L 11.132812 7.484375 L 11.132812 9.46875 L 10.421875 8.371094 L 9.390625 9.984375 L 9.90625 9.984375 L 10.421875 9.136719 L 11.453125 10.949219 L 12.484375 9.136719 L 13 9.984375 L 13.515625 9.984375 Z M 12.484375 8.371094 "/>
<path style=" stroke:none;fill-rule:nonzero;fill:rgb(100%,100%,100%);fill-opacity:1;" d="M 11.25 7.917969 L 12.554688 7.917969 L 12.269531 8.3125 L 11.25 8.3125 Z M 9.90625 9.59375 L 10.9375 9.59375 L 10.9375 9.851562 L 9.90625 9.851562 Z M 11.96875 9.59375 L 13 9.59375 L 13 9.851562 L 11.96875 9.851562 Z M 11.453125 11.335938 L 11.578125 11.765625 L 12.007812 11.765625 L 11.667969 12.039062 L 11.792969 12.460938 L 11.453125 12.203125 L 11.113281 12.453125 L 11.238281 12.039062 L 10.898438 11.765625 L 11.316406 11.765625 Z M 9.230469 7.5 L 9.355469 7.925781 L 9.785156 7.925781 L 9.445312 8.191406 L 9.570312 8.609375 L 9.230469 8.347656 L 8.890625 8.597656 L 9.015625 8.191406 L 8.675781 7.925781 L 9.09375 7.925781 Z M 13.675781 7.5 L 13.800781 7.925781 L 14.234375 7.925781 L 13.894531 8.191406 L 14.015625 8.609375 L 13.675781 8.347656 L 13.339844 8.597656 L 13.460938 8.191406 L 13.121094 7.925781 L 13.542969 7.925781 Z M 10.234375 10.480469 L 10.359375 10.90625 L 10.789062 10.90625 L 10.449219 11.175781 L 10.574219 11.59375 L 10.234375 11.332031 L 9.894531 11.582031 L 10.019531 11.171875 L 9.679688 10.90625 L 10.097656 10.90625 Z M 12.675781 10.480469 L 12.800781 10.90625 L 13.230469 10.90625 L 12.890625 11.175781 L 13.015625 11.59375 L 12.675781 11.332031 L 12.335938 11.582031 L 12.457031 11.171875 L 12.121094 10.90625 L 12.539062 10.90625 Z M 12.675781 10.480469 "/>
</g>
</svg>
