<?xml version="1.0" encoding="UTF-8"?>
<svg xmlns="http://www.w3.org/2000/svg" xmlns:xlink="http://www.w3.org/1999/xlink" width="15pt" height="15pt" viewBox="0 0 15 15" version="1.1">
<g id="surface1">
<path style=" stroke:none;fill-rule:nonzero;fill:rgb(14.117647%,29.019608%,64.705882%);fill-opacity:1;" d="M 15 11.25 C 15 12.171875 14.253906 12.917969 13.332031 12.917969 L 1.667969 12.917969 C 0.746094 12.917969 0 12.171875 0 11.25 L 0 3.75 C 0 2.828125 0.746094 2.082031 1.667969 2.082031 L 13.332031 2.082031 C 14.253906 2.082031 15 2.828125 15 3.75 Z M 15 11.25 "/>
<path style=" stroke:none;fill-rule:nonzero;fill:rgb(81.568627%,65.098039%,31.372549%);fill-opacity:1;" d="M 7.089844 5.707031 L 7.175781 5.703125 C 7.226562 5.757812 7.28125 5.808594 7.332031 5.863281 C 7.332031 5.902344 7.347656 5.933594 7.390625 5.945312 C 7.351562 5.953125 7.316406 5.957031 7.277344 5.960938 C 7.261719 5.980469 7.246094 5.996094 7.222656 6.007812 C 7.226562 6.070312 7.28125 6.101562 7.320312 6.144531 C 7.359375 6.148438 7.402344 6.144531 7.433594 6.175781 L 7.519531 6.179688 L 7.519531 6.289062 C 7.554688 6.285156 7.597656 6.292969 7.609375 6.246094 C 7.671875 6.246094 7.734375 6.246094 7.796875 6.25 C 7.8125 6.28125 7.851562 6.285156 7.882812 6.300781 L 7.898438 6.378906 C 7.929688 6.335938 7.960938 6.285156 8.015625 6.28125 C 8.035156 6.308594 8.054688 6.332031 8.074219 6.355469 C 8.105469 6.359375 8.140625 6.363281 8.152344 6.398438 L 8.210938 6.398438 C 8.210938 6.46875 8.207031 6.539062 8.214844 6.609375 L 8.25 6.628906 C 8.25 6.683594 8.25 6.742188 8.25 6.796875 C 8.285156 6.828125 8.34375 6.851562 8.375 6.800781 L 8.425781 6.800781 C 8.445312 6.832031 8.472656 6.859375 8.503906 6.878906 C 8.503906 6.933594 8.503906 6.988281 8.503906 7.042969 C 8.578125 7.070312 8.53125 7.167969 8.542969 7.226562 C 8.582031 7.253906 8.609375 7.285156 8.628906 7.328125 C 8.636719 7.308594 8.648438 7.289062 8.660156 7.269531 L 8.785156 7.273438 C 8.804688 7.296875 8.820312 7.316406 8.84375 7.339844 L 8.875 7.375 C 8.90625 7.382812 8.933594 7.394531 8.957031 7.414062 L 9.03125 7.417969 C 9.050781 7.460938 9.101562 7.457031 9.140625 7.464844 L 9.085938 7.503906 C 9.085938 7.597656 9.09375 7.6875 9.082031 7.777344 L 9.050781 7.796875 C 9.046875 7.84375 9.039062 7.890625 9.007812 7.925781 L 9.085938 7.925781 L 9.089844 7.96875 L 9.125 7.96875 C 9.125 7.957031 9.128906 7.9375 9.128906 7.925781 L 9.195312 7.925781 L 9.199219 7.96875 C 9.238281 7.972656 9.296875 7.953125 9.316406 8 C 9.421875 8 9.523438 8 9.625 8 L 9.628906 8.054688 C 9.648438 8.070312 9.660156 8.089844 9.675781 8.109375 C 9.710938 8.109375 9.746094 8.109375 9.78125 8.109375 L 9.777344 8.171875 C 9.808594 8.199219 9.84375 8.222656 9.890625 8.222656 L 9.890625 8.148438 L 9.957031 8.148438 L 9.964844 8.105469 C 10.011719 8.109375 10.074219 8.09375 10.085938 8.160156 L 10.125 8.101562 C 10.160156 8.109375 10.1875 8.132812 10.214844 8.152344 L 10.214844 8.207031 C 10.269531 8.21875 10.246094 8.277344 10.253906 8.320312 L 10.183594 8.375 C 10.183594 8.433594 10.183594 8.492188 10.179688 8.546875 L 10.113281 8.550781 L 10.113281 8.746094 C 10.070312 8.78125 10.035156 8.816406 10 8.851562 L 10 8.972656 C 9.972656 8.992188 9.949219 9.015625 9.921875 9.039062 L 9.921875 9.089844 C 9.894531 9.113281 9.859375 9.132812 9.824219 9.136719 C 9.804688 9.160156 9.785156 9.179688 9.769531 9.203125 C 9.757812 9.207031 9.734375 9.214844 9.722656 9.214844 L 9.78125 9.25 C 9.78125 9.332031 9.78125 9.410156 9.78125 9.488281 C 9.734375 9.53125 9.671875 9.527344 9.613281 9.527344 L 9.550781 9.601562 C 9.507812 9.601562 9.476562 9.628906 9.449219 9.660156 C 9.449219 9.699219 9.449219 9.738281 9.453125 9.773438 C 9.519531 9.808594 9.542969 9.90625 9.628906 9.902344 C 9.628906 9.96875 9.640625 10.039062 9.582031 10.082031 C 9.554688 10.078125 9.527344 10.078125 9.5 10.078125 C 9.460938 10.140625 9.371094 10.097656 9.308594 10.109375 L 9.308594 10.039062 L 9.25 10.039062 C 9.230469 10.0625 9.210938 10.082031 9.191406 10.105469 C 9.15625 10.109375 9.128906 10.128906 9.101562 10.148438 C 9.058594 10.152344 9.019531 10.148438 8.976562 10.148438 L 8.972656 10.191406 L 8.878906 10.191406 C 8.855469 10.214844 8.832031 10.246094 8.832031 10.285156 L 8.765625 10.339844 C 8.769531 10.382812 8.769531 10.433594 8.722656 10.453125 C 8.730469 10.503906 8.695312 10.59375 8.765625 10.605469 L 8.765625 10.660156 C 8.667969 10.664062 8.570312 10.664062 8.472656 10.664062 L 8.472656 10.566406 C 8.402344 10.546875 8.445312 10.457031 8.433594 10.402344 L 8.390625 10.402344 L 8.390625 10.335938 C 8.359375 10.332031 8.324219 10.335938 8.3125 10.300781 L 8.253906 10.300781 L 8.25 10.222656 L 8.070312 10.222656 C 8.070312 10.234375 8.070312 10.265625 8.066406 10.277344 C 8.050781 10.296875 8.035156 10.3125 8.019531 10.332031 L 7.929688 10.332031 C 7.914062 10.355469 7.898438 10.378906 7.882812 10.402344 C 7.839844 10.402344 7.792969 10.402344 7.75 10.402344 C 7.734375 10.421875 7.71875 10.441406 7.699219 10.457031 L 7.699219 10.511719 C 7.664062 10.515625 7.628906 10.515625 7.617188 10.554688 L 7.53125 10.554688 C 7.511719 10.578125 7.496094 10.601562 7.476562 10.625 L 7.316406 10.625 C 7.292969 10.6875 7.21875 10.65625 7.167969 10.664062 C 7.144531 10.695312 7.117188 10.722656 7.085938 10.742188 C 7.085938 10.777344 7.085938 10.808594 7.085938 10.84375 L 7.042969 10.847656 L 7.042969 10.945312 C 7.019531 10.964844 6.996094 10.984375 6.972656 11.003906 C 6.972656 11.09375 6.972656 11.179688 6.972656 11.269531 L 7.042969 11.328125 L 7.042969 11.5625 C 7.027344 11.578125 7.011719 11.59375 6.996094 11.609375 L 6.933594 11.609375 L 6.933594 11.671875 L 6.886719 11.71875 C 6.820312 11.71875 6.753906 11.71875 6.691406 11.71875 C 6.660156 11.757812 6.628906 11.792969 6.597656 11.832031 L 6.46875 11.832031 C 6.464844 11.796875 6.457031 11.761719 6.433594 11.738281 C 6.429688 11.648438 6.433594 11.5625 6.433594 11.476562 C 6.46875 11.441406 6.503906 11.40625 6.539062 11.371094 L 6.539062 11.257812 L 6.503906 11.238281 C 6.496094 11.121094 6.503906 11.003906 6.503906 10.886719 L 6.4375 10.886719 C 6.433594 10.847656 6.4375 10.800781 6.390625 10.796875 C 6.390625 10.707031 6.390625 10.621094 6.390625 10.53125 L 6.324219 10.476562 C 6.320312 10.441406 6.320312 10.402344 6.28125 10.390625 L 6.277344 10.3125 C 6.234375 10.292969 6.242188 10.21875 6.289062 10.207031 C 6.25 10.171875 6.210938 10.132812 6.171875 10.09375 L 6.171875 10.046875 C 6.125 10.035156 6.082031 10.015625 6.039062 10.003906 C 6.027344 9.972656 5.996094 9.96875 5.964844 9.96875 L 5.9375 9.933594 C 5.910156 9.933594 5.882812 9.921875 5.867188 9.902344 L 5.8125 9.898438 C 5.796875 9.832031 5.765625 9.765625 5.773438 9.691406 C 5.757812 9.675781 5.738281 9.660156 5.722656 9.640625 C 5.632812 9.636719 5.542969 9.640625 5.453125 9.640625 C 5.433594 9.640625 5.414062 9.632812 5.398438 9.617188 C 5.375 9.59375 5.355469 9.574219 5.335938 9.558594 C 5.332031 9.496094 5.335938 9.4375 5.332031 9.378906 C 5.316406 9.335938 5.289062 9.300781 5.265625 9.265625 L 5.265625 9.210938 L 5.222656 9.203125 L 5.222656 9.148438 C 5.179688 9.121094 5.199219 9.066406 5.191406 9.027344 L 5.085938 9.023438 L 5.085938 8.96875 L 5.03125 8.917969 L 4.972656 8.914062 L 4.972656 8.855469 C 4.9375 8.835938 4.929688 8.800781 4.929688 8.765625 L 5.003906 8.761719 C 5.003906 8.695312 5.003906 8.628906 5 8.5625 C 4.980469 8.523438 4.960938 8.476562 4.925781 8.445312 L 4.890625 8.402344 L 4.839844 8.398438 L 4.792969 8.351562 L 4.792969 8.269531 C 4.738281 8.257812 4.757812 8.199219 4.75 8.15625 C 4.683594 8.113281 4.742188 8.035156 4.761719 7.980469 C 4.773438 7.964844 4.789062 7.949219 4.800781 7.9375 C 4.828125 7.910156 4.847656 7.882812 4.867188 7.855469 L 4.964844 7.855469 L 5.019531 7.929688 L 5.085938 7.925781 L 5.085938 8 C 5.203125 8 5.324219 7.996094 5.441406 8 C 5.445312 7.964844 5.441406 7.921875 5.484375 7.914062 C 5.484375 7.847656 5.484375 7.777344 5.488281 7.710938 C 5.527344 7.707031 5.578125 7.714844 5.609375 7.679688 L 5.664062 7.675781 L 5.664062 7.5625 C 5.722656 7.5625 5.78125 7.566406 5.839844 7.5625 L 5.859375 7.519531 C 5.898438 7.515625 5.921875 7.539062 5.929688 7.574219 C 5.953125 7.546875 5.972656 7.523438 5.996094 7.5 C 6.03125 7.492188 6.066406 7.476562 6.089844 7.445312 C 6.128906 7.414062 6.175781 7.398438 6.21875 7.375 L 6.175781 7.332031 C 6.175781 7.28125 6.140625 7.246094 6.101562 7.21875 C 6.097656 7.167969 6.097656 7.117188 6.101562 7.066406 C 6.128906 7.039062 6.160156 7.011719 6.1875 6.980469 L 6.265625 6.980469 C 6.3125 6.917969 6.371094 6.867188 6.429688 6.816406 L 6.429688 6.757812 C 6.445312 6.761719 6.476562 6.761719 6.492188 6.761719 C 6.496094 6.796875 6.527344 6.800781 6.558594 6.800781 C 6.574219 6.78125 6.589844 6.765625 6.609375 6.746094 L 6.613281 6.703125 C 6.667969 6.664062 6.628906 6.578125 6.644531 6.523438 C 6.671875 6.496094 6.710938 6.472656 6.722656 6.433594 C 6.710938 6.394531 6.671875 6.371094 6.644531 6.34375 C 6.664062 6.253906 6.578125 6.210938 6.53125 6.148438 L 6.46875 6.140625 C 6.460938 6.113281 6.464844 6.074219 6.433594 6.054688 C 6.433594 6.011719 6.433594 5.96875 6.433594 5.921875 C 6.523438 5.921875 6.617188 5.929688 6.710938 5.917969 L 6.730469 5.886719 C 6.769531 5.863281 6.8125 5.84375 6.847656 5.816406 C 6.886719 5.8125 6.925781 5.8125 6.964844 5.8125 C 6.980469 5.789062 7 5.765625 7.019531 5.742188 L 7.082031 5.746094 C 7.085938 5.738281 7.085938 5.71875 7.089844 5.707031 Z M 7.089844 5.707031 "/>
<path style=" stroke:none;fill-rule:nonzero;fill:rgb(92.941176%,92.941176%,92.941176%);fill-opacity:1;" d="M 11.675781 3.839844 L 11.515625 4.332031 L 11.003906 4.324219 L 11.421875 4.628906 L 11.261719 5.113281 L 11.679688 4.808594 L 12.089844 5.113281 L 11.929688 4.621094 L 12.34375 4.324219 L 11.828125 4.324219 Z M 10.003906 3.386719 L 9.84375 3.878906 L 9.335938 3.875 L 9.753906 4.179688 L 9.589844 4.660156 L 10.007812 4.359375 L 10.417969 4.660156 L 10.257812 4.171875 L 10.675781 3.875 L 10.15625 3.875 Z M 8.335938 3.167969 L 8.175781 3.660156 L 7.664062 3.65625 L 8.082031 3.960938 L 7.921875 4.441406 L 8.339844 4.136719 L 8.75 4.441406 L 8.589844 3.949219 L 9.003906 3.65625 L 8.488281 3.65625 Z M 3.324219 3.839844 L 3.484375 4.332031 L 3.996094 4.324219 L 3.574219 4.628906 L 3.738281 5.113281 L 3.320312 4.808594 L 2.910156 5.113281 L 3.070312 4.621094 L 2.65625 4.324219 L 3.171875 4.324219 Z M 4.996094 3.386719 L 5.15625 3.878906 L 5.664062 3.875 L 5.246094 4.179688 L 5.410156 4.660156 L 4.992188 4.359375 L 4.582031 4.660156 L 4.742188 4.171875 L 4.324219 3.875 L 4.84375 3.875 Z M 6.664062 3.167969 L 6.824219 3.660156 L 7.335938 3.65625 L 6.917969 3.960938 L 7.078125 4.441406 L 6.660156 4.136719 L 6.25 4.441406 L 6.410156 3.949219 L 5.996094 3.65625 L 6.511719 3.65625 Z M 6.664062 3.167969 "/>
</g>
</svg>
