<?xml version="1.0" encoding="UTF-8"?>
<svg xmlns="http://www.w3.org/2000/svg" xmlns:xlink="http://www.w3.org/1999/xlink" width="15pt" height="15pt" viewBox="0 0 15 15" version="1.1">
<g id="surface1">
<path style=" stroke:none;fill-rule:nonzero;fill:rgb(0%,14.117647%,49.019608%);fill-opacity:1;" d="M 13.332031 2.082031 L 1.667969 2.082031 C 1.582031 2.082031 1.496094 2.089844 1.414062 2.101562 L 1.414062 2.832031 L 0.277344 2.832031 C 0.101562 3.09375 0 3.410156 0 3.75 L 0 11.25 C 0 12.171875 0.746094 12.917969 1.667969 12.917969 L 13.332031 12.917969 C 14.253906 12.917969 15 12.171875 15 11.25 L 15 3.75 C 15 2.828125 14.253906 2.082031 13.332031 2.082031 Z M 13.332031 2.082031 "/>
<path style=" stroke:none;fill-rule:nonzero;fill:rgb(86.666667%,18.039216%,26.666667%);fill-opacity:1;" d="M 12.691406 8.398438 C 12.691406 8.601562 12.460938 8.765625 12.171875 8.765625 C 11.882812 8.765625 11.648438 8.601562 11.648438 8.398438 C 11.648438 8.191406 11.882812 8.027344 12.171875 8.027344 C 12.460938 8.027344 12.691406 8.191406 12.691406 8.398438 Z M 12.691406 8.398438 "/>
<path style=" stroke:none;fill-rule:nonzero;fill:rgb(0%,60.392157%,40.392157%);fill-opacity:1;" d="M 10.308594 7.820312 C 10.308594 7.996094 10.839844 8.203125 11.261719 7.683594 C 11.6875 7.167969 11.5625 7.871094 11.390625 7.980469 C 11.214844 8.089844 11.027344 8.355469 10.652344 8.3125 C 10.277344 8.273438 10.183594 8.125 10.09375 7.90625 C 10.007812 7.691406 10.308594 7.820312 10.308594 7.820312 Z M 10.308594 7.820312 "/>
<path style=" stroke:none;fill-rule:nonzero;fill:rgb(100%,94.509804%,0%);fill-opacity:1;" d="M 10.386719 6.71875 C 10.429688 6.824219 10.378906 6.945312 10.273438 6.988281 L 9.886719 7.148438 C 9.777344 7.191406 9.65625 7.140625 9.613281 7.03125 C 9.570312 6.925781 9.621094 6.804688 9.726562 6.761719 L 10.113281 6.601562 C 10.21875 6.558594 10.34375 6.609375 10.386719 6.71875 Z M 13.707031 7.890625 C 13.644531 7.988281 13.53125 8.027344 13.457031 7.976562 L 12.910156 7.621094 C 12.835938 7.574219 12.824219 7.457031 12.886719 7.359375 C 12.949219 7.261719 13.0625 7.222656 13.140625 7.273438 L 13.683594 7.628906 C 13.757812 7.675781 13.769531 7.792969 13.707031 7.890625 Z M 13.707031 7.890625 "/>
<path style=" stroke:none;fill-rule:nonzero;fill:rgb(100%,94.509804%,0%);fill-opacity:1;" d="M 13.777344 7.761719 C 13.808594 7.875 13.746094 7.988281 13.632812 8.019531 C 13.523438 8.050781 13.40625 7.984375 13.378906 7.875 L 13.152344 7.070312 C 13.121094 6.960938 13.1875 6.847656 13.296875 6.816406 C 13.410156 6.785156 13.523438 6.847656 13.554688 6.960938 Z M 13.777344 7.761719 "/>
<path style=" stroke:none;fill-rule:nonzero;fill:rgb(100%,94.509804%,0%);fill-opacity:1;" d="M 13.949219 7.855469 C 13.949219 7.96875 13.855469 8.0625 13.742188 8.0625 C 13.625 8.0625 13.53125 7.96875 13.53125 7.855469 C 13.53125 7.738281 13.625 7.648438 13.742188 7.648438 C 13.855469 7.648438 13.949219 7.738281 13.949219 7.855469 Z M 13.949219 7.855469 "/>
<path style=" stroke:none;fill-rule:nonzero;fill:rgb(0%,60.392157%,40.392157%);fill-opacity:1;" d="M 10.417969 7.761719 C 10.417969 7.847656 10.324219 7.917969 10.207031 7.917969 C 10.09375 7.917969 10 7.847656 10 7.761719 L 10 6.824219 C 10 6.734375 10.09375 6.667969 10.207031 6.667969 C 10.324219 6.667969 10.417969 6.734375 10.417969 6.824219 Z M 10.417969 7.761719 "/>
<path style=" stroke:none;fill-rule:nonzero;fill:rgb(0%,60.392157%,40.392157%);fill-opacity:1;" d="M 10.714844 7.328125 C 10.785156 7.421875 10.785156 7.535156 10.71875 7.585938 L 10.222656 7.957031 C 10.15625 8.007812 10.042969 7.976562 9.976562 7.882812 C 9.90625 7.789062 9.90625 7.675781 9.972656 7.625 L 10.46875 7.253906 C 10.535156 7.203125 10.648438 7.234375 10.714844 7.328125 Z M 10.714844 7.328125 "/>
<path style=" stroke:none;fill-rule:nonzero;fill:rgb(0%,60.392157%,40.392157%);fill-opacity:1;" d="M 10.222656 7.757812 C 10.222656 7.871094 10.125 7.960938 10 7.960938 C 9.875 7.960938 9.777344 7.871094 9.777344 7.757812 C 9.777344 7.644531 9.875 7.550781 10 7.550781 C 10.125 7.550781 10.222656 7.644531 10.222656 7.757812 Z M 14.101562 7.082031 C 14.058594 7.191406 13.828125 7.195312 13.59375 7.097656 C 13.355469 6.996094 13.203125 6.828125 13.246094 6.71875 C 13.292969 6.613281 13.523438 6.605469 13.757812 6.707031 C 13.996094 6.808594 14.148438 6.976562 14.101562 7.082031 Z M 14.101562 7.082031 "/>
<path style=" stroke:none;fill-rule:nonzero;fill:rgb(83.137255%,83.529412%,83.921569%);fill-opacity:1;" d="M 11.585938 7.191406 C 11.34375 7.347656 11.019531 7.636719 11.019531 7.636719 L 11.199219 7.660156 C 11.199219 7.660156 11.421875 7.890625 11.460938 8.109375 C 11.496094 8.328125 11.410156 8.179688 11.390625 8.351562 C 11.375 8.519531 11.46875 8.632812 11.46875 8.632812 C 11.46875 8.632812 11.730469 8.546875 11.902344 8.414062 C 12.074219 8.28125 12.1875 8.085938 12.285156 8.183594 C 12.382812 8.285156 12.371094 8.332031 12.371094 8.332031 L 12.5 8.332031 C 12.5 8.332031 12.289062 8.128906 12.292969 8.007812 C 12.296875 7.890625 12.109375 7.304688 12.109375 7.304688 Z M 11.300781 6.664062 C 11.300781 6.664062 11.5 6.515625 11.480469 6.53125 C 11.457031 6.550781 11.703125 6.636719 11.851562 6.574219 C 12 6.515625 12.289062 6.222656 12.359375 6.265625 C 12.433594 6.308594 12 6.5625 12.179688 6.601562 C 12.359375 6.640625 12.417969 6.488281 12.527344 6.433594 C 12.640625 6.378906 12.816406 6.371094 12.644531 6.484375 C 12.476562 6.59375 12.246094 7.078125 12.246094 7.078125 L 11.566406 7.023438 L 11.390625 6.890625 Z M 11.300781 6.664062 "/>
<path style=" stroke:none;fill-rule:nonzero;fill:rgb(0%,60.392157%,40.392157%);fill-opacity:1;" d="M 12.460938 7.167969 C 12.460938 7.265625 12.210938 7.339844 11.902344 7.339844 C 11.589844 7.339844 11.339844 7.265625 11.339844 7.167969 C 11.339844 7.070312 11.589844 6.996094 11.902344 6.996094 C 12.210938 6.992188 12.460938 7.070312 12.460938 7.167969 Z M 10.609375 9.226562 C 10.582031 9.320312 10.375 9.332031 10.144531 9.261719 C 9.914062 9.1875 9.753906 9.058594 9.78125 8.964844 C 9.8125 8.875 10.019531 8.859375 10.25 8.929688 C 10.476562 9.003906 10.640625 9.136719 10.609375 9.226562 Z M 13.78125 9.902344 C 13.765625 9.972656 13.558594 9.996094 13.316406 9.953125 C 13.074219 9.914062 12.890625 9.820312 12.902344 9.75 C 12.914062 9.679688 13.121094 9.65625 13.363281 9.699219 C 13.605469 9.742188 13.792969 9.832031 13.78125 9.902344 Z M 13.78125 9.902344 "/>
<path style=" stroke:none;fill-rule:nonzero;fill:rgb(0%,60.392157%,40.392157%);fill-opacity:1;" d="M 13.367188 9.9375 C 13.300781 10.253906 13.191406 10.496094 13.121094 10.480469 C 13.050781 10.46875 13.046875 10.199219 13.113281 9.886719 C 13.175781 9.570312 13.289062 9.328125 13.359375 9.339844 C 13.429688 9.355469 13.433594 9.625 13.367188 9.9375 Z M 12.320312 7.222656 C 12.433594 7.523438 12.757812 8.109375 13.066406 8.113281 C 13.375 8.121094 13.414062 7.984375 13.414062 7.984375 C 13.414062 7.984375 13.425781 8.21875 13.144531 8.261719 C 12.867188 8.308594 12.707031 8.167969 12.757812 8.214844 C 12.808594 8.265625 12.921875 8.371094 13.183594 8.441406 C 13.445312 8.507812 13.890625 8.589844 13.875 8.839844 C 13.863281 9.089844 13.6875 9.183594 13.707031 9.074219 C 13.722656 8.964844 13.527344 8.765625 13.183594 8.6875 C 12.839844 8.609375 12.449219 8.421875 12.277344 7.863281 C 12.109375 7.304688 12.246094 7.8125 12.246094 7.8125 C 12.246094 7.8125 11.910156 7.914062 11.910156 7.746094 C 11.914062 7.578125 12.171875 7.667969 12.121094 7.453125 C 12.066406 7.238281 11.9375 7.09375 12.066406 7.136719 C 12.191406 7.183594 12.320312 7.222656 12.320312 7.222656 Z M 11.472656 7.984375 C 11.300781 8.246094 10.8125 8.613281 10.652344 8.785156 C 10.496094 8.957031 10.378906 9.28125 10.347656 9.496094 C 10.3125 9.710938 10.375 10.042969 10.496094 9.671875 C 10.617188 9.296875 10.828125 9.152344 11.042969 8.914062 C 11.257812 8.671875 11.40625 8.511719 11.484375 8.351562 C 11.5625 8.191406 11.472656 7.984375 11.472656 7.984375 Z M 11.472656 7.984375 "/>
<path style=" stroke:none;fill-rule:nonzero;fill:rgb(100%,94.509804%,0%);fill-opacity:1;" d="M 12.480469 8.160156 C 12.535156 8.335938 12.527344 8.492188 12.46875 8.511719 C 12.410156 8.527344 12.320312 8.402344 12.265625 8.226562 C 12.214844 8.050781 12.21875 7.894531 12.277344 7.878906 C 12.339844 7.859375 12.429688 7.988281 12.480469 8.160156 Z M 11.007812 8.160156 C 11.007812 8.210938 10.878906 8.253906 10.71875 8.253906 C 10.5625 8.253906 10.433594 8.210938 10.433594 8.160156 C 10.433594 8.105469 10.5625 8.0625 10.71875 8.0625 C 10.878906 8.0625 11.007812 8.105469 11.007812 8.160156 Z M 10.546875 9.886719 C 10.609375 10.207031 10.601562 10.480469 10.527344 10.496094 C 10.457031 10.507812 10.347656 10.257812 10.285156 9.9375 C 10.222656 9.617188 10.230469 9.34375 10.304688 9.328125 C 10.378906 9.316406 10.488281 9.566406 10.546875 9.886719 Z M 10.546875 9.886719 "/>
<path style=" stroke:none;fill-rule:nonzero;fill:rgb(100%,94.509804%,0%);fill-opacity:1;" d="M 10.757812 9.828125 C 10.757812 9.890625 10.574219 9.945312 10.347656 9.945312 C 10.121094 9.945312 9.9375 9.890625 9.9375 9.828125 C 9.9375 9.761719 10.121094 9.710938 10.347656 9.710938 C 10.574219 9.710938 10.757812 9.761719 10.757812 9.828125 Z M 10.851562 10.742188 C 10.929688 10.898438 10.953125 11.050781 10.898438 11.078125 C 10.847656 11.101562 10.738281 10.996094 10.660156 10.835938 C 10.582031 10.675781 10.558594 10.527344 10.613281 10.5 C 10.667969 10.472656 10.773438 10.582031 10.851562 10.742188 Z M 13.117188 10.84375 C 13 11.007812 12.84375 11.097656 12.769531 11.046875 C 12.691406 10.992188 12.722656 10.8125 12.839844 10.648438 C 12.953125 10.484375 13.109375 10.390625 13.1875 10.445312 C 13.261719 10.5 13.230469 10.675781 13.117188 10.84375 Z M 14.066406 8.925781 C 14.117188 9.011719 13.960938 9.203125 13.714844 9.351562 C 13.46875 9.503906 13.226562 9.554688 13.175781 9.472656 C 13.121094 9.386719 13.28125 9.195312 13.527344 9.046875 C 13.773438 8.894531 14.011719 8.839844 14.066406 8.925781 Z M 9.851562 8.839844 C 9.96875 8.5625 10.332031 8.414062 10.570312 8.351562 C 10.8125 8.289062 10.867188 8.21875 11.058594 8.0625 C 11.253906 7.910156 11.207031 7.808594 11.300781 7.878906 C 11.398438 7.945312 11.476562 7.976562 11.382812 8.109375 C 11.292969 8.238281 10.976562 8.511719 10.769531 8.589844 C 10.5625 8.667969 10.15625 8.839844 10.128906 8.886719 C 10.105469 8.933594 9.8125 8.929688 9.851562 8.839844 Z M 9.851562 8.839844 "/>
<path style=" stroke:none;fill-rule:nonzero;fill:rgb(30.196078%,56.078431%,80%);fill-opacity:1;" d="M 10.785156 8.414062 L 12.773438 8.414062 L 12.773438 9.925781 C 12.773438 10.570312 11.777344 11.242188 11.777344 11.242188 C 11.777344 11.242188 10.78125 10.582031 10.78125 9.894531 Z M 10.785156 8.414062 "/>
<path style=" stroke:none;fill-rule:nonzero;fill:rgb(0%,60.392157%,40.392157%);fill-opacity:1;" d="M 12.648438 10.339844 L 11.789062 8.640625 L 10.867188 10.238281 C 11.097656 10.785156 11.777344 11.242188 11.777344 11.242188 C 11.777344 11.242188 12.382812 10.828125 12.648438 10.339844 Z M 12.648438 10.339844 "/>
<path style=" stroke:none;fill-rule:nonzero;fill:rgb(100%,94.509804%,0%);fill-opacity:1;" d="M 10.863281 10.128906 L 10.929688 10.289062 L 11.789062 8.730469 L 12.625 10.277344 L 12.691406 10.105469 L 11.808594 8.414062 Z M 12.726562 8.574219 C 12.863281 8.800781 13.117188 8.734375 13.226562 9.121094 C 13.335938 9.507812 13.277344 9.925781 13.164062 9.59375 C 13.050781 9.261719 13.015625 9.078125 12.691406 8.992188 C 12.371094 8.90625 12.726562 8.574219 12.726562 8.574219 Z M 10.652344 10.570312 L 10.570312 11.054688 L 11.007812 10.832031 Z M 12.957031 10.648438 L 12.546875 10.839844 L 13 11.109375 Z M 12.957031 10.648438 "/>
<path style=" stroke:none;fill-rule:nonzero;fill:rgb(100%,94.509804%,0%);fill-opacity:1;" d="M 12.1875 9.921875 C 12.1875 9.964844 12.152344 10 12.109375 10 L 11.503906 10 C 11.460938 10 11.425781 9.964844 11.425781 9.921875 C 11.425781 9.878906 11.460938 9.84375 11.503906 9.84375 L 12.109375 9.84375 C 12.152344 9.84375 12.1875 9.878906 12.1875 9.921875 Z M 12.1875 9.921875 "/>
<path style=" stroke:none;fill-rule:nonzero;fill:rgb(100%,94.509804%,0%);fill-opacity:1;" d="M 11.84375 10.722656 C 11.84375 10.785156 11.828125 10.832031 11.808594 10.832031 L 11.746094 10.832031 C 11.726562 10.832031 11.710938 10.785156 11.710938 10.722656 L 11.710938 9.691406 C 11.710938 9.632812 11.726562 9.582031 11.746094 9.582031 L 11.808594 9.582031 C 11.828125 9.582031 11.84375 9.632812 11.84375 9.691406 Z M 11.84375 10.722656 "/>
<path style=" stroke:none;fill-rule:nonzero;fill:rgb(100%,94.509804%,0%);fill-opacity:1;" d="M 11.269531 10.347656 L 11.515625 10.601562 L 11.472656 10.652344 L 11.746094 10.832031 L 12.121094 10.652344 L 12.042969 10.601562 L 12.3125 10.398438 L 12.273438 10.742188 L 12.175781 10.714844 L 11.78125 11.046875 L 11.367188 10.695312 L 11.289062 10.703125 Z M 11.269531 10.347656 "/>
<path style=" stroke:none;fill-rule:nonzero;fill:rgb(0%,14.117647%,49.019608%);fill-opacity:1;" d="M 7.917969 7.5 L 7.917969 2.082031 L 1.667969 2.082031 C 1.535156 2.082031 1.414062 2.101562 1.414062 2.101562 L 1.414062 2.832031 L 0.277344 2.832031 C 0.277344 2.832031 0.257812 2.855469 0.222656 2.917969 C 0.0820312 3.160156 0 3.445312 0 3.75 L 0 7.5 Z M 7.917969 7.5 "/>
<path style=" stroke:none;fill-rule:nonzero;fill:rgb(93.333333%,93.333333%,93.333333%);fill-opacity:1;" d="M 7.917969 2.082031 L 6.945312 2.082031 L 5 3.445312 L 5 2.082031 L 2.917969 2.082031 L 2.917969 3.152344 L 1.414062 2.101562 C 1.160156 2.140625 0.917969 2.238281 0.71875 2.378906 L 2.675781 3.75 L 1.953125 3.75 L 0.402344 2.664062 C 0.355469 2.714844 0.316406 2.773438 0.277344 2.832031 L 1.589844 3.75 L 0 3.75 L 0 5.832031 L 1.617188 5.832031 L 0 6.984375 L 0 7.5 L 1.386719 7.5 L 2.917969 6.429688 L 2.917969 7.5 L 5 7.5 L 5 6.136719 L 6.945312 7.5 L 7.917969 7.5 L 7.917969 6.65625 L 6.742188 5.832031 L 7.917969 5.832031 L 7.917969 3.75 L 6.746094 3.75 L 7.917969 2.929688 Z M 7.917969 2.082031 "/>
<path style=" stroke:none;fill-rule:nonzero;fill:rgb(81.176471%,10.588235%,16.862745%);fill-opacity:1;" d="M 4.582031 2.082031 L 3.332031 2.082031 L 3.332031 4.167969 L 0 4.167969 L 0 5.417969 L 3.332031 5.417969 L 3.332031 7.5 L 4.582031 7.5 L 4.582031 5.417969 L 7.917969 5.417969 L 7.917969 4.167969 L 4.582031 4.167969 Z M 4.582031 2.082031 "/>
<path style=" stroke:none;fill-rule:nonzero;fill:rgb(81.176471%,10.588235%,16.862745%);fill-opacity:1;" d="M 7.917969 2.082031 L 7.308594 2.082031 L 5 3.699219 L 5 3.75 L 5.65625 3.75 L 7.917969 2.164062 Z M 0.71875 2.378906 C 0.601562 2.460938 0.496094 2.554688 0.402344 2.664062 L 1.953125 3.75 L 2.675781 3.75 Z M 2.683594 5.832031 L 0.304688 7.5 L 1.027344 7.5 L 2.917969 6.175781 L 2.917969 5.832031 Z M 7.917969 7.417969 L 7.917969 6.910156 L 6.378906 5.832031 L 5.652344 5.832031 Z M 7.917969 7.417969 "/>
</g>
</svg>
