<?xml version="1.0" encoding="UTF-8"?>
<svg xmlns="http://www.w3.org/2000/svg" xmlns:xlink="http://www.w3.org/1999/xlink" width="15pt" height="15pt" viewBox="0 0 15 15" version="1.1">
<g id="surface1">
<path style=" stroke:none;fill-rule:nonzero;fill:rgb(23.137255%,53.333333%,76.470588%);fill-opacity:1;" d="M 15 13.332031 C 15 14.253906 14.253906 15 13.332031 15 L 1.667969 15 C 0.746094 15 0 14.253906 0 13.332031 L 0 1.667969 C 0 0.746094 0.746094 0 1.667969 0 L 13.332031 0 C 14.253906 0 15 0.746094 15 1.667969 Z M 15 13.332031 "/>
<path style=" stroke:none;fill-rule:nonzero;fill:rgb(100%,100%,100%);fill-opacity:1;" d="M 10.050781 4.023438 C 10.050781 4.527344 9.714844 4.976562 9.1875 4.976562 C 8.65625 4.976562 8.242188 4.589844 7.46875 4.589844 C 6.914062 4.589844 6.410156 4.886719 6.410156 5.429688 C 6.410156 6.761719 10.722656 5.90625 10.722656 9.242188 C 10.722656 11.089844 9.199219 12.238281 7.417969 12.238281 C 6.421875 12.238281 4.277344 12.003906 4.277344 10.789062 C 4.277344 10.285156 4.613281 9.875 5.144531 9.875 C 5.75 9.875 6.472656 10.378906 7.3125 10.378906 C 8.167969 10.378906 8.632812 9.898438 8.632812 9.265625 C 8.632812 7.742188 4.316406 8.660156 4.316406 5.660156 C 4.316406 3.851562 5.800781 2.730469 7.519531 2.730469 C 8.242188 2.730469 10.050781 3 10.050781 4.023438 Z M 10.050781 4.023438 "/>
</g>
</svg>
