<?xml version="1.0" encoding="UTF-8"?>
<svg xmlns="http://www.w3.org/2000/svg" xmlns:xlink="http://www.w3.org/1999/xlink" width="15pt" height="15pt" viewBox="0 0 15 15" version="1.1">
<g id="surface1">
<path style=" stroke:none;fill-rule:nonzero;fill:rgb(80.784314%,6.666667%,14.901961%);fill-opacity:1;" d="M 15 11.25 C 15 12.171875 14.253906 12.917969 13.332031 12.917969 L 1.667969 12.917969 C 0.746094 12.917969 0 12.171875 0 11.25 L 0 3.75 C 0 2.828125 0.746094 2.082031 1.667969 2.082031 L 13.332031 2.082031 C 14.253906 2.082031 15 2.828125 15 3.75 Z M 15 11.25 "/>
<path style=" stroke:none;fill-rule:nonzero;fill:rgb(93.333333%,93.333333%,93.333333%);fill-opacity:1;" d="M 0 5 L 15 5 L 15 10 L 0 10 Z M 0 5 "/>
<path style=" stroke:none;fill-rule:nonzero;fill:rgb(3.137255%,24.313725%,61.568627%);fill-opacity:1;" d="M 6.234375 8.234375 C 6.179688 8.089844 6.164062 7.960938 6.164062 7.960938 C 6.164062 7.960938 6.132812 7.917969 6.03125 7.960938 C 5.933594 8.007812 5.828125 8.09375 5.675781 8.125 C 5.605469 8.140625 5.546875 8.105469 5.5 8.0625 C 5.519531 8.125 5.542969 8.179688 5.566406 8.234375 Z M 7.722656 8.234375 C 7.679688 8.152344 7.628906 8.085938 7.5 8.085938 C 7.375 8.085938 7.316406 8.160156 7.277344 8.234375 Z M 9.433594 8.234375 C 9.460938 8.171875 9.484375 8.109375 9.503906 8.042969 C 9.367188 8.183594 9.152344 8.128906 9.089844 8.046875 C 9.015625 7.957031 8.855469 7.941406 8.855469 7.941406 C 8.855469 7.941406 8.835938 8.074219 8.792969 8.230469 C 8.792969 8.230469 8.789062 8.234375 8.789062 8.234375 Z M 9.285156 8.546875 C 9.320312 8.492188 9.351562 8.4375 9.382812 8.378906 C 9.339844 8.355469 9.292969 8.339844 9.230469 8.335938 C 9.089844 8.332031 9.074219 8.4375 8.875 8.4375 C 8.777344 8.4375 8.726562 8.414062 8.699219 8.382812 C 8.652344 8.441406 8.585938 8.5 8.515625 8.546875 Z M 7.046875 8.546875 L 7.910156 8.546875 C 7.890625 8.53125 7.875 8.511719 7.859375 8.492188 L 7.859375 8.496094 C 7.859375 8.496094 7.683594 8.328125 7.5 8.328125 C 7.265625 8.328125 7.105469 8.496094 7.105469 8.496094 L 7.109375 8.488281 C 7.089844 8.507812 7.070312 8.527344 7.046875 8.546875 Z M 6.449219 8.546875 C 6.390625 8.5 6.339844 8.441406 6.300781 8.378906 C 6.242188 8.421875 6.171875 8.457031 6.101562 8.449219 C 5.925781 8.4375 5.8125 8.25 5.710938 8.300781 C 5.675781 8.320312 5.640625 8.335938 5.609375 8.351562 C 5.640625 8.417969 5.675781 8.484375 5.714844 8.546875 Z M 5.992188 8.917969 L 9.007812 8.917969 C 9.058594 8.867188 9.105469 8.808594 9.152344 8.75 C 9.082031 8.691406 8.972656 8.621094 8.855469 8.621094 C 8.652344 8.621094 8.566406 8.800781 8.386719 8.800781 C 8.210938 8.800781 8.191406 8.640625 7.96875 8.640625 C 7.746094 8.640625 7.648438 8.828125 7.476562 8.828125 C 7.304688 8.828125 7.179688 8.640625 7.019531 8.640625 C 6.855469 8.640625 6.730469 8.828125 6.554688 8.828125 C 6.378906 8.828125 6.28125 8.621094 6.125 8.621094 C 6.027344 8.621094 5.910156 8.683594 5.835938 8.730469 C 5.882812 8.796875 5.9375 8.859375 5.992188 8.917969 Z M 8.640625 9.226562 C 8.6875 9.191406 8.738281 9.164062 8.785156 9.128906 C 8.679688 9.078125 8.503906 9.003906 8.386719 9.003906 C 8.210938 9.003906 8.164062 9.101562 7.96875 9.101562 C 7.773438 9.101562 7.6875 8.992188 7.492188 8.992188 C 7.296875 8.992188 7.230469 9.132812 7.046875 9.132812 C 6.863281 9.132812 6.785156 8.976562 6.554688 8.976562 C 6.421875 8.976562 6.265625 9.035156 6.15625 9.078125 C 6.21875 9.132812 6.289062 9.179688 6.355469 9.226562 Z M 7.976562 9.335938 C 7.753906 9.335938 7.648438 9.523438 7.5 9.523438 C 7.351562 9.523438 7.21875 9.328125 7.046875 9.328125 C 6.945312 9.328125 6.824219 9.386719 6.738281 9.433594 C 6.972656 9.527344 7.230469 9.582031 7.5 9.582031 C 7.773438 9.582031 8.027344 9.527344 8.261719 9.429688 C 8.1875 9.382812 8.085938 9.335938 7.976562 9.335938 Z M 7.976562 9.335938 "/>
<path style=" stroke:none;fill-rule:nonzero;fill:rgb(100%,61.568627%,6.666667%);fill-opacity:1;" d="M 6.15625 6.949219 L 5.574219 6.710938 C 5.511719 6.859375 5.472656 7.015625 5.449219 7.179688 L 6.15625 7.230469 Z M 6.582031 7.125 L 6.582031 7.261719 L 6.976562 7.289062 L 6.976562 7.285156 Z M 8.792969 7.226562 L 9.550781 7.171875 C 9.523438 7.003906 9.484375 6.835938 9.417969 6.683594 L 8.792969 6.941406 Z M 8.386719 7.105469 L 8.03125 7.25 L 8.035156 7.28125 L 8.386719 7.257812 Z M 9.039062 6.105469 L 8.792969 6.320312 L 8.792969 6.675781 L 9.269531 6.425781 C 9.203125 6.3125 9.128906 6.203125 9.039062 6.105469 Z M 8.386719 6.675781 L 8.023438 6.992188 L 8.027344 7.074219 L 8.386719 6.886719 Z M 6.972656 7.050781 L 6.582031 6.710938 L 6.582031 6.949219 L 6.972656 7.15625 Z M 6.15625 6.339844 L 5.929688 6.144531 C 5.839844 6.246094 5.765625 6.359375 5.695312 6.480469 L 6.15625 6.722656 Z M 8.386719 6.335938 C 8.386719 6.273438 8.472656 6.234375 8.566406 6.226562 L 8.851562 5.929688 C 8.75 5.839844 8.640625 5.761719 8.523438 5.695312 L 8.011719 6.582031 C 8.011719 6.652344 8.015625 6.722656 8.019531 6.796875 L 8.386719 6.410156 Z M 6.582031 6.257812 L 6.582031 6.449219 L 6.964844 6.867188 L 6.960938 6.660156 L 6.421875 5.726562 C 6.3125 5.792969 6.214844 5.867188 6.121094 5.945312 L 6.34375 6.191406 C 6.457031 6.175781 6.582031 6.191406 6.582031 6.257812 Z M 8.007812 6.195312 L 8.296875 5.585938 C 8.1875 5.539062 8.074219 5.496094 7.953125 5.46875 L 7.839844 5.9375 C 7.839844 5.9375 8.082031 5.945312 8.03125 5.953125 C 8.015625 5.957031 8.011719 6.054688 8.007812 6.195312 Z M 6.929688 5.507812 C 6.839844 5.53125 6.757812 5.570312 6.675781 5.605469 L 6.949219 6.214844 Z M 6.15625 7.453125 L 5.421875 7.433594 C 5.421875 7.457031 5.417969 7.476562 5.417969 7.5 C 5.417969 7.582031 5.429688 7.660156 5.441406 7.742188 L 6.15625 7.742188 Z M 8.792969 7.742188 L 9.558594 7.742188 C 9.570312 7.660156 9.582031 7.582031 9.582031 7.5 C 9.582031 7.476562 9.578125 7.457031 9.578125 7.433594 L 8.792969 7.460938 Z M 8.792969 7.742188 "/>
<path style=" stroke:none;fill-rule:nonzero;fill:rgb(80.784314%,6.666667%,14.901961%);fill-opacity:1;" d="M 6.269531 6.375 L 6.269531 7.863281 C 6.269531 8.066406 6.378906 8.546875 6.699219 8.546875 C 7.136719 8.546875 7.277344 8.007812 7.277344 8.007812 C 7.277344 8.007812 6.960938 8.285156 6.738281 8.195312 C 6.515625 8.109375 6.5 7.976562 6.5 7.683594 L 6.5 6.410156 C 6.5 6.296875 6.269531 6.269531 6.269531 6.375 Z M 8.710938 6.375 L 8.710938 7.863281 C 8.710938 8.066406 8.597656 8.546875 8.28125 8.546875 C 7.84375 8.546875 7.703125 8.007812 7.703125 8.007812 C 7.703125 8.007812 8.015625 8.285156 8.238281 8.195312 C 8.464844 8.109375 8.476562 7.976562 8.476562 7.683594 L 8.476562 6.410156 C 8.480469 6.296875 8.710938 6.269531 8.710938 6.375 Z M 7.839844 7.207031 L 7.089844 6.976562 L 7.089844 5.78125 C 7.089844 5.429688 7.359375 5.257812 7.839844 5.421875 C 7.421875 5.460938 7.289062 5.8125 7.839844 6.074219 Z M 7.839844 7.207031 "/>
<path style=" stroke:none;fill-rule:nonzero;fill:rgb(38.823529%,3.137255%,6.27451%);fill-opacity:1;" d="M 8.332031 7.796875 C 8.332031 7.828125 8.308594 7.851562 8.277344 7.851562 L 6.671875 7.851562 C 6.640625 7.851562 6.613281 7.828125 6.613281 7.796875 C 6.613281 7.765625 6.640625 7.742188 6.671875 7.742188 L 8.277344 7.742188 C 8.308594 7.742188 8.332031 7.765625 8.332031 7.796875 Z M 7.089844 8.089844 L 6.71875 8.089844 L 6.878906 7.878906 L 7.25 7.878906 Z M 7.863281 8.089844 L 8.234375 8.089844 L 8.074219 7.878906 L 7.703125 7.878906 Z M 6.941406 7.625 L 6.847656 7.523438 L 6.941406 7.421875 C 6.957031 7.402344 6.949219 7.378906 6.925781 7.367188 C 6.902344 7.355469 6.867188 7.359375 6.851562 7.378906 L 6.808594 7.421875 L 6.808594 7.363281 C 6.808594 7.347656 6.796875 7.335938 6.785156 7.335938 C 6.769531 7.335938 6.757812 7.347656 6.757812 7.363281 L 6.757812 7.421875 L 6.714844 7.378906 C 6.699219 7.359375 6.664062 7.355469 6.640625 7.367188 C 6.617188 7.378906 6.609375 7.402344 6.625 7.421875 L 6.71875 7.523438 L 6.625 7.625 C 6.609375 7.640625 6.617188 7.667969 6.640625 7.679688 C 6.664062 7.691406 6.699219 7.683594 6.714844 7.667969 L 6.785156 7.59375 L 6.851562 7.667969 C 6.867188 7.683594 6.902344 7.691406 6.925781 7.679688 C 6.949219 7.667969 6.957031 7.640625 6.941406 7.625 Z M 7.285156 7.625 L 7.191406 7.523438 L 7.285156 7.421875 C 7.300781 7.402344 7.296875 7.378906 7.269531 7.367188 C 7.246094 7.355469 7.214844 7.359375 7.195312 7.378906 L 7.15625 7.421875 L 7.15625 7.363281 C 7.15625 7.347656 7.144531 7.335938 7.128906 7.335938 C 7.113281 7.335938 7.101562 7.347656 7.101562 7.363281 L 7.101562 7.421875 L 7.058594 7.378906 C 7.042969 7.359375 7.011719 7.355469 6.984375 7.367188 C 6.960938 7.378906 6.953125 7.402344 6.972656 7.421875 L 7.0625 7.523438 L 6.972656 7.625 C 6.953125 7.640625 6.960938 7.667969 6.984375 7.679688 C 7.011719 7.691406 7.042969 7.683594 7.058594 7.667969 L 7.128906 7.59375 L 7.195312 7.667969 C 7.214844 7.683594 7.246094 7.691406 7.269531 7.679688 C 7.296875 7.667969 7.300781 7.640625 7.285156 7.625 Z M 7.632812 7.625 L 7.539062 7.523438 L 7.628906 7.421875 C 7.648438 7.402344 7.640625 7.378906 7.617188 7.367188 C 7.59375 7.355469 7.558594 7.359375 7.542969 7.378906 L 7.5 7.425781 L 7.5 7.363281 C 7.5 7.347656 7.488281 7.335938 7.472656 7.335938 C 7.460938 7.335938 7.449219 7.347656 7.449219 7.363281 L 7.449219 7.425781 L 7.40625 7.378906 C 7.390625 7.359375 7.355469 7.355469 7.332031 7.367188 C 7.308594 7.378906 7.300781 7.402344 7.316406 7.421875 L 7.410156 7.523438 L 7.316406 7.625 C 7.300781 7.640625 7.308594 7.667969 7.332031 7.679688 C 7.355469 7.691406 7.386719 7.6875 7.40625 7.667969 L 7.472656 7.59375 L 7.542969 7.667969 C 7.558594 7.6875 7.59375 7.691406 7.617188 7.679688 C 7.640625 7.667969 7.648438 7.640625 7.632812 7.625 Z M 7.976562 7.625 L 7.882812 7.523438 L 7.976562 7.421875 C 7.992188 7.402344 7.988281 7.378906 7.964844 7.367188 C 7.9375 7.355469 7.90625 7.359375 7.886719 7.378906 L 7.847656 7.421875 L 7.847656 7.363281 C 7.847656 7.347656 7.835938 7.335938 7.820312 7.335938 C 7.804688 7.335938 7.792969 7.347656 7.792969 7.363281 L 7.792969 7.421875 L 7.753906 7.378906 C 7.734375 7.359375 7.703125 7.355469 7.675781 7.367188 C 7.652344 7.378906 7.648438 7.402344 7.664062 7.421875 L 7.753906 7.523438 L 7.664062 7.625 C 7.644531 7.640625 7.652344 7.667969 7.675781 7.679688 C 7.703125 7.691406 7.734375 7.683594 7.75 7.667969 L 7.820312 7.59375 L 7.886719 7.667969 C 7.90625 7.683594 7.9375 7.691406 7.964844 7.679688 C 7.988281 7.667969 7.996094 7.640625 7.976562 7.625 Z M 8.324219 7.625 L 8.230469 7.523438 L 8.320312 7.421875 C 8.339844 7.402344 8.332031 7.378906 8.308594 7.367188 C 8.285156 7.355469 8.25 7.359375 8.234375 7.378906 L 8.191406 7.421875 L 8.191406 7.363281 C 8.191406 7.347656 8.179688 7.335938 8.164062 7.335938 C 8.152344 7.335938 8.140625 7.347656 8.140625 7.363281 L 8.140625 7.421875 L 8.097656 7.378906 C 8.082031 7.359375 8.046875 7.355469 8.023438 7.367188 C 7.996094 7.378906 7.992188 7.402344 8.007812 7.421875 L 8.101562 7.523438 L 8.007812 7.625 C 7.992188 7.640625 7.996094 7.667969 8.023438 7.679688 C 8.046875 7.691406 8.078125 7.683594 8.097656 7.667969 L 8.164062 7.59375 L 8.234375 7.667969 C 8.25 7.683594 8.285156 7.691406 8.308594 7.679688 C 8.332031 7.667969 8.339844 7.640625 8.324219 7.625 Z M 8.324219 7.625 "/>
</g>
</svg>
