<?xml version="1.0" encoding="UTF-8"?>
<svg xmlns="http://www.w3.org/2000/svg" xmlns:xlink="http://www.w3.org/1999/xlink" width="15pt" height="15pt" viewBox="0 0 15 15" version="1.1">
<g id="surface1">
<path style=" stroke:none;fill-rule:nonzero;fill:rgb(93.333333%,12.54902%,14.117647%);fill-opacity:1;" d="M 15 11.25 L 15 9.582031 L 0 9.582031 L 0 11.25 C 0 12.171875 0.746094 12.917969 1.667969 12.917969 L 13.332031 12.917969 C 14.253906 12.917969 15 12.171875 15 11.25 Z M 15 11.25 "/>
<path style=" stroke:none;fill-rule:nonzero;fill:rgb(93.333333%,93.333333%,93.333333%);fill-opacity:1;" d="M 15 9.582031 L 0 9.582031 L 0 3.75 C 0 2.828125 0.746094 2.082031 1.667969 2.082031 L 13.332031 2.082031 C 14.253906 2.082031 15 2.828125 15 3.75 Z M 15 9.582031 "/>
<path style=" stroke:none;fill-rule:nonzero;fill:rgb(3.921569%,30.588235%,63.529412%);fill-opacity:1;" d="M 0 5.417969 L 15 5.417969 L 15 9.582031 L 0 9.582031 Z M 0 5.417969 "/>
<path style=" stroke:none;fill-rule:nonzero;fill:rgb(100%,100%,100%);fill-opacity:1;" d="M 4.933594 10.453125 C 4.460938 10.183594 3.417969 9.503906 3.035156 8.585938 C 2.648438 7.65625 2.734375 6.324219 2.832031 4.78125 L 2.859375 4.390625 L 7.84375 4.390625 L 7.867188 4.78125 C 7.96875 6.324219 8.054688 7.65625 7.667969 8.582031 C 7.285156 9.503906 6.242188 10.183594 5.769531 10.453125 L 5.351562 10.691406 Z M 4.933594 10.453125 "/>
<path style=" stroke:none;fill-rule:nonzero;fill:rgb(93.333333%,12.54902%,14.117647%);fill-opacity:1;" d="M 7.453125 4.808594 L 3.25 4.808594 C 3.148438 6.355469 3.074219 7.59375 3.417969 8.425781 C 3.84375 9.449219 5.300781 10.183594 5.347656 10.207031 L 5.351562 10.207031 C 5.402344 10.183594 6.855469 9.449219 7.28125 8.425781 C 7.628906 7.59375 7.550781 6.351562 7.453125 4.808594 Z M 7.453125 4.808594 "/>
<path style=" stroke:none;fill-rule:nonzero;fill:rgb(100%,100%,100%);fill-opacity:1;" d="M 6.609375 6.710938 C 6.609375 6.710938 6.027344 6.765625 5.515625 6.78125 C 5.511719 6.667969 5.507812 6.570312 5.507812 6.496094 C 5.507812 6.417969 5.511719 6.332031 5.515625 6.246094 C 5.921875 6.269531 6.199219 6.347656 6.199219 6.347656 C 6.304688 6.347656 6.386719 6.265625 6.386719 6.160156 L 6.386719 5.910156 C 6.386719 5.804688 6.304688 5.722656 6.199219 5.722656 C 6.199219 5.722656 5.890625 5.773438 5.546875 5.796875 C 5.578125 5.472656 5.613281 5.199219 5.613281 5.199219 C 5.613281 5.097656 5.527344 5.011719 5.425781 5.011719 L 5.171875 5.011719 C 5.070312 5.011719 4.988281 5.097656 4.988281 5.199219 C 4.988281 5.199219 5.027344 5.476562 5.058594 5.800781 C 4.703125 5.78125 4.398438 5.722656 4.398438 5.722656 C 4.296875 5.722656 4.210938 5.804688 4.210938 5.910156 L 4.210938 6.160156 C 4.210938 6.265625 4.296875 6.347656 4.398438 6.347656 C 4.398438 6.347656 4.664062 6.261719 5.09375 6.242188 C 5.101562 6.335938 5.105469 6.429688 5.105469 6.511719 C 5.105469 6.578125 5.101562 6.671875 5.097656 6.78125 C 4.582031 6.765625 3.976562 6.710938 3.976562 6.710938 C 3.871094 6.710938 3.789062 6.796875 3.789062 6.898438 L 3.789062 7.152344 C 3.789062 7.253906 3.871094 7.335938 3.976562 7.335938 C 3.976562 7.335938 4.527344 7.292969 5.074219 7.285156 C 5.039062 7.921875 4.988281 8.667969 4.988281 8.667969 C 4.988281 8.769531 5.070312 8.855469 5.171875 8.855469 L 5.425781 8.855469 C 5.527344 8.855469 5.613281 8.769531 5.613281 8.667969 C 5.613281 8.667969 5.566406 7.929688 5.535156 7.285156 C 6.066406 7.296875 6.609375 7.335938 6.609375 7.335938 C 6.714844 7.335938 6.796875 7.253906 6.796875 7.152344 L 6.796875 6.898438 C 6.796875 6.796875 6.714844 6.710938 6.609375 6.710938 Z M 6.609375 6.710938 "/>
<path style=" stroke:none;fill-rule:nonzero;fill:rgb(3.921569%,30.588235%,63.529412%);fill-opacity:1;" d="M 7.117188 8.734375 C 6.90625 8.28125 6.324219 8.15625 6.046875 8.707031 C 5.863281 8.042969 5.347656 8.042969 5.347656 8.042969 C 5.347656 8.042969 4.828125 8.042969 4.644531 8.707031 C 4.371094 8.160156 3.796875 8.28125 3.578125 8.726562 C 4.128906 9.589844 5.304688 10.183594 5.347656 10.207031 L 5.351562 10.207031 C 5.394531 10.183594 6.566406 9.59375 7.117188 8.734375 Z M 7.117188 8.734375 "/>
</g>
</svg>
