<?xml version="1.0" encoding="UTF-8"?>
<svg xmlns="http://www.w3.org/2000/svg" xmlns:xlink="http://www.w3.org/1999/xlink" width="15pt" height="15pt" viewBox="0 0 15 15" version="1.1">
<g id="surface1">
<path style=" stroke:none;fill-rule:nonzero;fill:rgb(86.666667%,18.039216%,26.666667%);fill-opacity:1;" d="M 15 11.25 C 15 12.171875 14.253906 12.917969 13.332031 12.917969 L 1.667969 12.917969 C 0.746094 12.917969 0 12.171875 0 11.25 L 0 3.75 C 0 2.828125 0.746094 2.082031 1.667969 2.082031 L 13.332031 2.082031 C 14.253906 2.082031 15 2.828125 15 3.75 Z M 15 11.25 "/>
<path style=" stroke:none;fill-rule:nonzero;fill:rgb(93.333333%,93.333333%,93.333333%);fill-opacity:1;" d="M 0.230469 12.082031 L 14.769531 12.082031 C 14.910156 11.835938 15 11.554688 15 11.25 L 0 11.25 C 0 11.554688 0.0898438 11.835938 0.230469 12.082031 Z M 0 9.582031 L 15 9.582031 L 15 10.417969 L 0 10.417969 Z M 0 7.917969 L 15 7.917969 L 15 8.75 L 0 8.75 Z M 0 6.25 L 15 6.25 L 15 7.082031 L 0 7.082031 Z M 0 4.582031 L 15 4.582031 L 15 5.417969 L 0 5.417969 Z M 0.230469 2.917969 C 0.0898438 3.164062 0 3.445312 0 3.75 L 15 3.75 C 15 3.445312 14.910156 3.164062 14.769531 2.917969 Z M 0.230469 2.917969 "/>
<path style=" stroke:none;fill-rule:nonzero;fill:rgb(0.392157%,0%,40%);fill-opacity:1;" d="M 7.5 2.082031 L 1.667969 2.082031 C 0.746094 2.082031 0 2.828125 0 3.75 L 0 7.917969 L 7.5 7.917969 Z M 7.5 2.082031 "/>
<path style=" stroke:none;fill-rule:nonzero;fill:rgb(100%,80%,30.196078%);fill-opacity:1;" d="M 3.972656 7.179688 C 2.769531 7.179688 1.792969 6.203125 1.792969 5 C 1.792969 3.796875 2.769531 2.820312 3.972656 2.820312 C 4.269531 2.820312 4.554688 2.878906 4.8125 2.988281 C 4.398438 2.683594 3.886719 2.5 3.332031 2.5 C 1.953125 2.5 0.832031 3.621094 0.832031 5 C 0.832031 6.378906 1.953125 7.5 3.332031 7.5 C 3.886719 7.5 4.398438 7.316406 4.8125 7.011719 C 4.554688 7.121094 4.269531 7.179688 3.972656 7.179688 Z M 3.972656 7.179688 "/>
<path style=" stroke:none;fill-rule:nonzero;fill:rgb(100%,80%,30.196078%);fill-opacity:1;" d="M 5.382812 3.679688 L 5.523438 4.355469 L 5.941406 3.804688 L 5.773438 4.472656 L 6.386719 4.160156 L 5.945312 4.691406 L 6.636719 4.675781 L 6.007812 4.964844 L 6.636719 5.25 L 5.945312 5.234375 L 6.386719 5.765625 L 5.773438 5.453125 L 5.941406 6.121094 L 5.523438 5.570312 L 5.382812 6.246094 L 5.246094 5.570312 L 4.828125 6.121094 L 4.996094 5.453125 L 4.378906 5.765625 L 4.820312 5.234375 L 4.132812 5.25 L 4.757812 4.964844 L 4.132812 4.675781 L 4.820312 4.691406 L 4.378906 4.160156 L 4.996094 4.472656 L 4.828125 3.804688 L 5.246094 4.355469 Z M 5.382812 3.679688 "/>
</g>
</svg>
