<?xml version="1.0" encoding="UTF-8"?>
<svg xmlns="http://www.w3.org/2000/svg" xmlns:xlink="http://www.w3.org/1999/xlink" width="15pt" height="15pt" viewBox="0 0 15 15" version="1.1">
<g id="surface1">
<path style=" stroke:none;fill-rule:nonzero;fill:rgb(0%,14.117647%,49.019608%);fill-opacity:1;" d="M 13.332031 2.082031 L 1.667969 2.082031 C 1.582031 2.082031 1.496094 2.089844 1.414062 2.101562 L 1.414062 2.832031 L 0.277344 2.832031 C 0.101562 3.09375 0 3.410156 0 3.75 L 0 11.25 C 0 12.171875 0.746094 12.917969 1.667969 12.917969 L 13.332031 12.917969 C 14.253906 12.917969 15 12.171875 15 11.25 L 15 3.75 C 15 2.828125 14.253906 2.082031 13.332031 2.082031 Z M 13.332031 2.082031 "/>
<path style=" stroke:none;fill-rule:nonzero;fill:rgb(75.294118%,90.196078%,91.372549%);fill-opacity:1;" d="M 11.101562 5.460938 C 11.042969 5.292969 10.65625 5.148438 10.488281 5.214844 C 10.683594 4.851562 11.007812 4.738281 11.171875 4.570312 C 11.335938 4.402344 11.339844 4.25 11.339844 4.25 C 11.339844 4.25 11.492188 4.503906 11.640625 4.738281 C 11.789062 4.972656 11.992188 5.105469 11.992188 5.105469 C 11.992188 5.105469 11.464844 5.261719 11.101562 5.460938 Z M 11.101562 5.460938 "/>
<path style=" stroke:none;fill-rule:nonzero;fill:rgb(68.235294%,45.882353%,12.941176%);fill-opacity:1;" d="M 11.175781 5.425781 C 11.175781 5.445312 11.160156 5.460938 11.140625 5.460938 C 11.121094 5.460938 11.105469 5.445312 11.105469 5.425781 L 11.105469 4.398438 C 11.105469 4.378906 11.121094 4.363281 11.140625 4.363281 C 11.160156 4.363281 11.175781 4.378906 11.175781 4.398438 Z M 11.175781 5.425781 "/>
<path style=" stroke:none;fill-rule:nonzero;fill:rgb(78.039216%,91.372549%,92.156863%);fill-opacity:1;" d="M 11.421875 5.625 C 11.140625 5.625 10.695312 5.613281 10.65625 5.535156 C 10.617188 5.457031 10.605469 5.253906 10.605469 5.253906 C 10.605469 5.253906 10.9375 5.417969 11.386719 5.417969 C 11.835938 5.417969 12.121094 5.253906 12.121094 5.253906 C 12.121094 5.253906 12.125 5.527344 11.992188 5.578125 C 11.898438 5.617188 11.742188 5.625 11.421875 5.625 Z M 11.421875 5.625 "/>
<path style=" stroke:none;fill-rule:nonzero;fill:rgb(62.352941%,76.078431%,100%);fill-opacity:1;" d="M 9.421875 6.796875 C 9.367188 6.925781 9.363281 7.097656 9.460938 7.167969 C 9.558594 7.238281 9.714844 7.097656 9.714844 7.097656 C 9.714844 7.097656 9.433594 7.070312 9.421875 6.796875 Z M 9.421875 6.796875 "/>
<path style=" stroke:none;fill-rule:nonzero;fill:rgb(0%,63.921569%,83.921569%);fill-opacity:1;" d="M 10.058594 7.019531 C 9.933594 6.90625 9.675781 6.992188 9.675781 6.992188 C 9.675781 6.992188 9.707031 6.84375 9.785156 6.796875 C 9.570312 6.777344 9.457031 6.835938 9.382812 7.019531 C 9.296875 6.921875 9.421875 6.679688 9.421875 6.679688 C 9.421875 6.679688 9.699219 6.511719 9.96875 6.679688 C 10.1875 6.375 10.222656 5.847656 9.957031 5.890625 C 10.027344 5.714844 10.53125 5.828125 10.433594 6.128906 C 10.339844 6.433594 10.183594 6.550781 10.183594 6.550781 C 10.183594 6.550781 10.445312 6.304688 10.621094 6.414062 C 10.800781 6.523438 10.878906 7.039062 10.488281 6.871094 C 10.097656 6.699219 10.027344 6.804688 10.019531 6.871094 C 10.011719 6.933594 10.058594 7.019531 10.058594 7.019531 Z M 10.058594 7.019531 "/>
<path style=" stroke:none;fill-rule:nonzero;fill:rgb(62.352941%,76.078431%,100%);fill-opacity:1;" d="M 10.964844 6.925781 C 10.796875 7.417969 10.46875 7.417969 10.46875 7.417969 C 10.46875 7.417969 10.488281 7.25 10.554688 7.171875 C 10.273438 7.277344 9.882812 7.109375 9.96875 6.679688 C 10.03125 6.953125 10.304688 7.042969 10.558594 6.921875 C 10.8125 6.796875 10.988281 6.851562 10.964844 6.925781 Z M 10.964844 6.925781 "/>
<path style=" stroke:none;fill-rule:nonzero;fill:rgb(0%,63.921569%,83.921569%);fill-opacity:1;" d="M 9.132812 6.203125 C 9.085938 6.128906 9.199219 5.988281 9.351562 6.042969 C 9.25 6.152344 9.296875 6.261719 9.351562 6.339844 C 9.40625 6.417969 9.1875 6.289062 9.132812 6.203125 Z M 9.132812 6.203125 "/>
<path style=" stroke:none;fill-rule:nonzero;fill:rgb(62.352941%,76.078431%,100%);fill-opacity:1;" d="M 10.167969 5.867188 C 10.046875 5.828125 9.957031 5.890625 9.957031 5.890625 C 9.957031 5.890625 9.890625 5.742188 9.6875 5.800781 C 9.484375 5.859375 9.363281 5.785156 9.363281 5.785156 C 9.363281 5.785156 9.425781 5.996094 9.734375 6 C 9.542969 6.242188 9.226562 6.289062 9.132812 6.203125 C 9.1875 6.320312 9.367188 6.464844 9.433594 6.472656 C 9.5 6.476562 9.839844 6.277344 9.914062 6.042969 C 9.929688 6 9.96875 6.046875 9.914062 6.128906 C 9.863281 6.210938 9.816406 6.300781 9.851562 6.445312 C 9.898438 6.367188 10 6.359375 10.050781 6.238281 C 10.105469 6.113281 10.058594 5.984375 10.167969 5.945312 C 10.28125 5.90625 10.167969 5.867188 10.167969 5.867188 Z M 10.167969 5.867188 "/>
<path style=" stroke:none;fill-rule:nonzero;fill:rgb(55.294118%,65.882353%,76.470588%);fill-opacity:1;" d="M 11.753906 7.699219 C 11.550781 7.699219 11.535156 7.351562 11.535156 7.351562 C 11.535156 7.351562 11.476562 7.378906 11.300781 7.527344 C 11.128906 7.671875 10.867188 7.703125 10.867188 7.703125 C 10.867188 7.703125 10.667969 7.484375 10.902344 7.222656 C 10.894531 6.960938 10.597656 6.691406 10.597656 6.691406 L 10.355469 6.640625 C 10.355469 6.640625 10.9375 6.078125 11.363281 6.042969 C 11.789062 6.007812 11.8125 6.199219 11.78125 6.589844 C 11.746094 6.976562 11.867188 7.222656 11.867188 7.222656 C 11.867188 7.222656 12.230469 7.699219 11.753906 7.699219 Z M 11.753906 7.699219 "/>
<path style=" stroke:none;fill-rule:nonzero;fill:rgb(80%,8.235294%,18.823529%);fill-opacity:1;" d="M 10.683594 6.472656 C 10.636719 6.523438 10.640625 6.542969 10.769531 6.535156 C 10.898438 6.53125 10.964844 6.539062 10.964844 6.539062 C 10.964844 6.539062 10.695312 6.679688 10.527344 6.601562 C 10.554688 6.515625 10.683594 6.472656 10.683594 6.472656 Z M 11.628906 7.3125 C 11.628906 7.3125 11.804688 7.199219 11.867188 7.390625 C 11.933594 7.578125 11.859375 7.597656 11.773438 7.605469 C 11.6875 7.609375 11.628906 7.3125 11.628906 7.3125 Z M 11.628906 7.3125 "/>
<path style=" stroke:none;fill-rule:nonzero;fill:rgb(62.352941%,76.078431%,100%);fill-opacity:1;" d="M 12.234375 6.765625 C 12.175781 6.890625 12.175781 7.167969 12.460938 7.273438 C 12.511719 7.0625 12.472656 6.941406 12.234375 6.765625 Z M 12.851562 6.902344 C 12.917969 6.835938 12.871094 6.582031 12.675781 6.679688 C 12.480469 6.777344 12.390625 6.75 12.34375 6.71875 C 12.375 6.660156 12.511719 6.613281 12.511719 6.613281 C 12.511719 6.613281 12.261719 6.632812 12.203125 6.425781 C 12.351562 6.464844 12.421875 6.425781 12.421875 6.425781 C 12.421875 6.425781 12.339844 6.367188 12.34375 6.320312 C 12.453125 6.28125 12.609375 6.40625 12.609375 6.40625 C 12.609375 6.40625 12.554688 6.316406 12.542969 6.101562 C 12.53125 5.886719 12.707031 5.8125 12.839844 5.914062 C 12.714844 6.0625 12.859375 6.347656 12.917969 6.59375 C 13.15625 6.417969 13.449219 6.457031 13.464844 6.730469 C 13.476562 7.003906 13.390625 6.941406 13.390625 6.941406 C 13.390625 6.941406 13.496094 6.679688 13.117188 6.71875 C 13.28125 6.796875 13.203125 6.871094 13.203125 6.871094 C 13.203125 6.871094 13.027344 6.824219 12.851562 6.902344 Z M 12.851562 6.902344 "/>
<path style=" stroke:none;fill-rule:nonzero;fill:rgb(0%,63.921569%,83.921569%);fill-opacity:1;" d="M 12 6.199219 C 11.828125 6.179688 11.894531 6.386719 11.648438 6.472656 C 11.707031 6.496094 11.824219 6.472656 11.824219 6.472656 C 11.824219 6.472656 11.707031 6.6875 11.824219 6.90625 C 11.925781 6.824219 11.960938 6.679688 11.960938 6.679688 C 11.960938 6.679688 11.960938 6.929688 12.089844 7.046875 C 12.203125 6.902344 12.148438 6.71875 12.148438 6.71875 C 12.148438 6.71875 12.226562 6.941406 12.480469 7.046875 C 12.734375 7.15625 12.902344 6.921875 12.921875 6.796875 C 12.941406 6.671875 12.882812 6.636719 12.882812 6.636719 C 12.882812 6.636719 12.671875 6.835938 12.480469 6.71875 C 12.566406 6.640625 12.527344 6.597656 12.34375 6.582031 C 12.15625 6.570312 12.109375 6.308594 12.089844 6.277344 C 12.070312 6.242188 12 6.199219 12 6.199219 Z M 12.5625 5.972656 C 12.636719 5.78125 12.882812 5.75 12.976562 5.808594 C 13.144531 5.714844 13.324219 5.898438 13.464844 5.839844 C 13.40625 5.976562 13.230469 6.042969 13.136719 6 C 13.25 6.160156 13.542969 6.265625 13.652344 6.167969 C 13.761719 6.074219 13.6875 6.292969 13.464844 6.367188 C 13.242188 6.4375 13.085938 6.167969 13.085938 6.167969 C 13.085938 6.167969 13.132812 6.335938 13.085938 6.40625 C 12.917969 6.347656 12.828125 6.171875 12.832031 6.042969 C 12.839844 5.914062 12.734375 5.820312 12.5625 5.972656 Z M 12.5625 5.972656 "/>
<path style=" stroke:none;fill-rule:nonzero;fill:rgb(62.352941%,76.078431%,100%);fill-opacity:1;" d="M 13.464844 6.367188 C 13.640625 6.328125 13.769531 6.183594 13.777344 6.128906 C 13.78125 6.074219 13.6875 5.90625 13.464844 6 C 13.660156 6.074219 13.621094 6.3125 13.464844 6.367188 Z M 13.464844 6.367188 "/>
<path style=" stroke:none;fill-rule:nonzero;fill:rgb(0%,63.921569%,83.921569%);fill-opacity:1;" d="M 13.425781 6.601562 C 13.5625 6.785156 13.523438 6.980469 13.496094 7.019531 C 13.46875 7.058594 13.269531 7.128906 13.191406 6.992188 C 13.359375 6.980469 13.519531 6.832031 13.425781 6.601562 Z M 13.425781 6.601562 "/>
<path style=" stroke:none;fill-rule:nonzero;fill:rgb(85.098039%,63.921569%,13.72549%);fill-opacity:1;" d="M 11.429688 6.21875 C 11.128906 6.21875 10.683594 6.367188 10.683594 6.367188 C 10.683594 6.367188 10.667969 6.1875 10.574219 6.042969 C 10.476562 5.894531 10.433594 5.6875 10.433594 5.6875 C 10.433594 5.6875 10.675781 5.730469 10.703125 5.875 C 10.730469 6.023438 10.695312 6.15625 10.695312 6.15625 L 10.988281 6.078125 C 10.988281 6.078125 10.910156 5.949219 10.84375 6.042969 C 10.773438 6.132812 10.695312 5.789062 10.796875 5.738281 C 10.902344 5.6875 11.175781 5.625 11.175781 5.625 C 11.175781 5.625 11.199219 5.875 11.214844 5.9375 C 11.234375 6 11.078125 6 11.078125 6 L 11.101562 6.042969 L 11.363281 6.042969 C 11.363281 6.042969 11.277344 5.945312 11.277344 5.789062 C 11.277344 5.621094 11.457031 5.460938 11.457031 5.460938 C 11.457031 5.460938 11.621094 5.679688 11.621094 5.808594 C 11.621094 5.9375 11.523438 6.042969 11.523438 6.042969 L 11.753906 6.085938 C 11.753906 6.085938 11.839844 5.910156 11.753906 5.953125 C 11.667969 6 11.667969 5.902344 11.703125 5.789062 C 11.734375 5.675781 11.710938 5.574219 11.710938 5.574219 L 12.066406 5.738281 C 12.066406 5.738281 12.089844 5.777344 12.066406 5.914062 C 12.039062 6.050781 11.882812 6.039062 11.882812 6.039062 L 11.882812 6.121094 L 12.117188 6.179688 C 12.117188 6.179688 12.046875 6.019531 12.117188 5.914062 C 12.1875 5.808594 12.421875 5.738281 12.421875 5.738281 C 12.421875 5.738281 12.230469 6.082031 12.117188 6.367188 C 11.972656 6.296875 11.726562 6.21875 11.429688 6.21875 Z M 11.429688 6.21875 "/>
<path style=" stroke:none;fill-rule:nonzero;fill:rgb(100%,100%,100%);fill-opacity:1;" d="M 11.433594 7.5 L 10.324219 7.5 L 10.324219 8.839844 C 10.324219 9.984375 11.09375 10.167969 11.425781 10.257812 L 11.425781 10.261719 L 11.429688 10.257812 L 11.433594 10.261719 L 11.433594 10.257812 C 11.765625 10.167969 12.535156 9.984375 12.535156 8.839844 L 12.535156 7.5 Z M 11.433594 7.5 "/>
<path style=" stroke:none;fill-rule:nonzero;fill:rgb(9.019608%,60.392157%,97.647059%);fill-opacity:1;" d="M 11.425781 7.5 L 10.324219 7.5 L 10.324219 8.808594 L 12.535156 8.808594 L 12.535156 7.5 Z M 11.425781 7.5 "/>
<path style=" stroke:none;fill-rule:nonzero;fill:rgb(9.019608%,60.392157%,97.647059%);fill-opacity:1;" d="M 11.429688 9.578125 C 11.429688 9.578125 11.347656 9.167969 10.988281 8.808594 L 11.824219 8.808594 C 11.824219 8.808594 11.503906 9.132812 11.429688 9.578125 Z M 11.429688 9.578125 "/>
<path style=" stroke:none;fill-rule:nonzero;fill:rgb(100%,100%,100%);fill-opacity:1;" d="M 11.429688 8.039062 C 11.429688 8.039062 11.347656 8.449219 10.988281 8.808594 L 11.824219 8.808594 C 11.824219 8.808594 11.503906 8.484375 11.429688 8.039062 Z M 11.328125 8.039062 C 11.304688 8.113281 11.160156 8.25 11.054688 8.28125 C 10.949219 8.3125 10.789062 8.4375 10.769531 8.496094 C 10.75 8.429688 10.820312 8.332031 10.820312 8.332031 C 10.820312 8.332031 10.703125 8.347656 10.691406 8.496094 C 10.675781 8.644531 10.433594 8.652344 10.433594 8.652344 C 10.433594 8.652344 10.480469 8.445312 10.605469 8.320312 C 10.730469 8.195312 10.804688 8.269531 10.882812 8.222656 C 10.957031 8.175781 10.851562 8.074219 10.9375 7.957031 C 11.023438 7.839844 11.25 7.871094 11.328125 7.78125 C 11.355469 7.851562 11.132812 7.980469 11.101562 7.996094 C 11.066406 8.007812 11.054688 8.085938 11.09375 8.078125 C 11.132812 8.074219 11.269531 8.054688 11.328125 8.039062 Z M 11.527344 8.039062 C 11.550781 8.113281 11.695312 8.25 11.800781 8.28125 C 11.90625 8.3125 12.066406 8.4375 12.085938 8.496094 C 12.109375 8.429688 12.035156 8.332031 12.035156 8.332031 C 12.035156 8.332031 12.152344 8.347656 12.164062 8.496094 C 12.179688 8.644531 12.421875 8.652344 12.421875 8.652344 C 12.421875 8.652344 12.375 8.445312 12.25 8.320312 C 12.125 8.195312 12.050781 8.269531 11.972656 8.222656 C 11.898438 8.175781 12.003906 8.074219 11.917969 7.957031 C 11.832031 7.839844 11.605469 7.871094 11.527344 7.78125 C 11.5 7.851562 11.722656 7.980469 11.753906 7.996094 C 11.789062 8.007812 11.800781 8.085938 11.761719 8.078125 C 11.722656 8.074219 11.585938 8.054688 11.527344 8.039062 Z M 11.527344 8.039062 "/>
<path style=" stroke:none;fill-rule:nonzero;fill:rgb(9.019608%,60.392157%,97.647059%);fill-opacity:1;" d="M 11.328125 9.570312 C 11.304688 9.5 11.160156 9.363281 11.054688 9.328125 C 10.949219 9.296875 10.789062 9.171875 10.769531 9.113281 C 10.75 9.179688 10.820312 9.277344 10.820312 9.277344 C 10.820312 9.277344 10.703125 9.265625 10.691406 9.113281 C 10.675781 8.964844 10.433594 8.957031 10.433594 8.957031 C 10.433594 8.957031 10.480469 9.167969 10.605469 9.289062 C 10.730469 9.414062 10.804688 9.34375 10.882812 9.386719 C 10.957031 9.433594 10.851562 9.539062 10.9375 9.65625 C 11.023438 9.773438 11.25 9.738281 11.328125 9.832031 C 11.355469 9.757812 11.132812 9.628906 11.101562 9.617188 C 11.066406 9.601562 11.054688 9.523438 11.09375 9.53125 C 11.132812 9.539062 11.269531 9.558594 11.328125 9.570312 Z M 11.527344 9.570312 C 11.550781 9.5 11.695312 9.363281 11.800781 9.328125 C 11.90625 9.296875 12.066406 9.171875 12.085938 9.113281 C 12.109375 9.179688 12.035156 9.277344 12.035156 9.277344 C 12.035156 9.277344 12.152344 9.265625 12.164062 9.113281 C 12.179688 8.964844 12.421875 8.957031 12.421875 8.957031 C 12.421875 8.957031 12.375 9.167969 12.25 9.289062 C 12.125 9.414062 12.050781 9.34375 11.972656 9.386719 C 11.898438 9.433594 12.003906 9.539062 11.917969 9.65625 C 11.832031 9.773438 11.605469 9.738281 11.527344 9.832031 C 11.5 9.757812 11.722656 9.628906 11.753906 9.617188 C 11.789062 9.601562 11.800781 9.523438 11.761719 9.53125 C 11.722656 9.539062 11.585938 9.558594 11.527344 9.570312 Z M 11.527344 9.570312 "/>
<path style=" stroke:none;fill-rule:nonzero;fill:rgb(0%,0%,0%);fill-opacity:1;" d="M 10.691406 6.679688 C 10.878906 6.757812 11.042969 6.652344 11.210938 6.515625 C 11.378906 6.378906 11.5625 6.453125 11.617188 6.472656 C 11.667969 6.492188 11.554688 6.488281 11.363281 6.601562 C 11.171875 6.710938 11.082031 6.746094 11.074219 6.871094 C 11.066406 6.992188 11.015625 6.921875 10.988281 6.871094 C 10.964844 6.816406 10.957031 6.960938 10.988281 7.101562 C 11.023438 7.246094 10.964844 7.417969 10.964844 7.417969 C 10.964844 7.417969 10.917969 6.96875 10.691406 6.679688 Z M 10.691406 6.679688 "/>
<path style=" stroke:none;fill-rule:nonzero;fill:rgb(84.705882%,67.058824%,42.745098%);fill-opacity:1;" d="M 8.847656 7.746094 C 8.847656 7.746094 8.878906 7.648438 9.011719 7.578125 C 9.140625 7.507812 9.050781 7.449219 8.964844 7.453125 C 8.878906 7.460938 8.816406 7.46875 8.722656 7.703125 C 8.632812 7.9375 8.289062 8.953125 8.847656 9.5 C 8.683594 9.421875 8.535156 9.101562 8.535156 9.101562 C 8.535156 9.101562 8.554688 9.316406 8.664062 9.53125 C 8.332031 9.011719 8.371094 8.457031 8.425781 8.039062 C 8.476562 7.625 8.601562 7.355469 8.789062 7.34375 C 8.945312 7.109375 9.230469 7.230469 9.445312 7.417969 C 9.660156 7.605469 9.765625 7.78125 9.765625 7.78125 C 9.765625 7.78125 9.792969 7.433594 9.957031 7.46875 C 10.117188 7.5 10.351562 7.617188 10.382812 7.703125 C 10.417969 7.785156 10.183594 7.722656 10.136719 7.667969 C 10.089844 7.617188 10.003906 7.558594 9.957031 7.609375 C 9.910156 7.664062 9.875 7.898438 9.875 7.898438 C 9.875 7.898438 9.992188 7.683594 10.0625 7.703125 C 10.128906 7.722656 10.445312 8 10.433594 8.097656 C 10.421875 8.195312 10.339844 8.046875 10.253906 7.980469 C 10.167969 7.917969 10.101562 7.800781 10.0625 7.820312 C 10.019531 7.839844 9.871094 8.183594 9.855469 8.214844 C 9.84375 8.25 9.890625 8.242188 9.957031 8.152344 C 10.019531 8.066406 10.089844 7.96875 10.128906 7.96875 C 10.167969 7.96875 10.4375 8.339844 10.433594 8.425781 C 10.429688 8.507812 10.390625 8.585938 10.355469 8.605469 C 10.324219 8.625 10.371094 8.507812 10.292969 8.371094 C 10.214844 8.234375 10.144531 8.09375 10.109375 8.113281 C 10.078125 8.132812 9.929688 8.367188 9.902344 8.425781 C 9.875 8.484375 10.070312 8.289062 10.144531 8.320312 C 10.214844 8.351562 10.320312 8.722656 10.324219 8.839844 C 10.324219 8.957031 10.253906 9.035156 10.21875 9.070312 C 10.183594 9.101562 10.195312 8.953125 10.21875 8.878906 C 10.242188 8.808594 10.1875 8.71875 10.167969 8.605469 C 10.148438 8.496094 10.128906 8.390625 10.109375 8.425781 C 10.089844 8.457031 9.792969 8.71875 9.765625 8.738281 C 9.738281 8.757812 9.859375 8.738281 9.957031 8.683594 C 10.050781 8.632812 10.105469 8.640625 10.117188 8.738281 C 10.128906 8.835938 10.148438 9.140625 10 9.226562 C 9.851562 9.308594 10.011719 9.121094 10.03125 9.03125 C 10.050781 8.9375 10.039062 8.742188 10 8.761719 C 9.960938 8.78125 9.6875 8.984375 9.601562 9.015625 C 9.519531 9.046875 9.5625 9.269531 9.648438 9.394531 C 9.734375 9.515625 9.917969 9.640625 9.957031 9.53125 C 9.992188 9.417969 10.136719 9.300781 10.21875 9.359375 C 10.300781 9.421875 10.261719 9.53125 10.261719 9.53125 C 10.261719 9.53125 10.367188 9.53125 10.355469 9.648438 C 10.34375 9.765625 10.195312 9.882812 9.832031 9.828125 C 9.464844 9.777344 9.011719 9.632812 9.035156 8.996094 C 8.898438 8.4375 9.003906 8.195312 9.023438 8.039062 C 9.042969 7.882812 9.101562 7.652344 9.082031 7.636719 C 9.0625 7.617188 8.914062 7.664062 8.847656 7.746094 Z M 14.027344 7.746094 C 14.027344 7.746094 13.996094 7.648438 13.867188 7.578125 C 13.734375 7.507812 13.828125 7.449219 13.910156 7.453125 C 13.996094 7.460938 14.0625 7.46875 14.152344 7.703125 C 14.242188 7.9375 14.589844 8.953125 14.027344 9.5 C 14.191406 9.421875 14.339844 9.101562 14.339844 9.101562 C 14.339844 9.101562 14.320312 9.316406 14.210938 9.53125 C 14.542969 9.011719 14.503906 8.457031 14.453125 8.039062 C 14.398438 7.625 14.277344 7.355469 14.085938 7.34375 C 13.929688 7.109375 13.644531 7.230469 13.429688 7.417969 C 13.214844 7.605469 13.109375 7.78125 13.109375 7.78125 C 13.109375 7.78125 13.082031 7.433594 12.921875 7.46875 C 12.757812 7.5 12.523438 7.617188 12.492188 7.703125 C 12.460938 7.785156 12.695312 7.722656 12.738281 7.667969 C 12.785156 7.617188 12.875 7.558594 12.921875 7.609375 C 12.96875 7.664062 13 7.898438 13 7.898438 C 13 7.898438 12.886719 7.683594 12.816406 7.703125 C 12.746094 7.722656 12.433594 8 12.441406 8.097656 C 12.453125 8.195312 12.539062 8.046875 12.625 7.980469 C 12.707031 7.917969 12.773438 7.800781 12.816406 7.820312 C 12.859375 7.839844 13.007812 8.183594 13.019531 8.214844 C 13.035156 8.25 12.984375 8.242188 12.921875 8.152344 C 12.859375 8.066406 12.785156 7.96875 12.746094 7.96875 C 12.707031 7.96875 12.4375 8.339844 12.441406 8.425781 C 12.449219 8.507812 12.488281 8.585938 12.519531 8.605469 C 12.554688 8.625 12.507812 8.507812 12.585938 8.371094 C 12.660156 8.234375 12.734375 8.09375 12.765625 8.113281 C 12.800781 8.132812 12.949219 8.367188 12.976562 8.425781 C 13 8.484375 12.804688 8.289062 12.734375 8.320312 C 12.664062 8.351562 12.558594 8.722656 12.554688 8.839844 C 12.550781 8.957031 12.621094 9.035156 12.660156 9.070312 C 12.695312 9.101562 12.679688 8.953125 12.660156 8.878906 C 12.636719 8.808594 12.6875 8.71875 12.707031 8.605469 C 12.726562 8.496094 12.746094 8.390625 12.765625 8.425781 C 12.785156 8.457031 13.085938 8.71875 13.113281 8.738281 C 13.136719 8.757812 13.019531 8.738281 12.921875 8.683594 C 12.824219 8.632812 12.773438 8.640625 12.761719 8.738281 C 12.746094 8.835938 12.726562 9.140625 12.878906 9.226562 C 13.027344 9.308594 12.863281 9.121094 12.84375 9.03125 C 12.824219 8.9375 12.839844 8.742188 12.878906 8.761719 C 12.917969 8.78125 13.191406 8.984375 13.273438 9.015625 C 13.359375 9.046875 13.3125 9.269531 13.230469 9.394531 C 13.144531 9.515625 12.960938 9.640625 12.921875 9.53125 C 12.882812 9.417969 12.738281 9.300781 12.660156 9.359375 C 12.578125 9.421875 12.617188 9.53125 12.617188 9.53125 C 12.617188 9.53125 12.511719 9.53125 12.519531 9.648438 C 12.53125 9.765625 12.683594 9.882812 13.046875 9.828125 C 13.410156 9.777344 13.867188 9.632812 13.839844 8.996094 C 13.976562 8.4375 13.875 8.195312 13.855469 8.039062 C 13.835938 7.882812 13.777344 7.652344 13.796875 7.636719 C 13.8125 7.617188 13.964844 7.664062 14.027344 7.746094 Z M 14.027344 7.746094 "/>
<path style=" stroke:none;fill-rule:nonzero;fill:rgb(80%,8.235294%,18.823529%);fill-opacity:1;" d="M 9.914062 10.332031 C 9.96875 10.144531 10.421875 9.972656 10.566406 10 C 10.710938 10.027344 10.96875 10.128906 10.820312 10.261719 C 10.671875 10.390625 10.351562 10.5 10.136719 10.546875 C 9.921875 10.59375 9.875 10.46875 9.914062 10.332031 Z M 12.949219 10.332031 C 12.894531 10.144531 12.441406 9.972656 12.296875 10 C 12.15625 10.027344 11.894531 10.128906 12.046875 10.261719 C 12.195312 10.390625 12.515625 10.5 12.730469 10.546875 C 12.941406 10.59375 12.988281 10.46875 12.949219 10.332031 Z M 12.949219 10.332031 "/>
<path style=" stroke:none;fill-rule:nonzero;fill:rgb(98.431373%,98.039216%,90.588235%);fill-opacity:1;" d="M 13.085938 10.085938 C 13.085938 10.085938 12.882812 9.863281 12.6875 9.996094 C 12.492188 10.128906 11.925781 10.597656 11.429688 10.597656 C 10.929688 10.597656 10.363281 10.128906 10.167969 9.996094 C 9.972656 9.863281 9.773438 10.085938 9.773438 10.085938 C 9.773438 10.085938 9.871094 10.128906 9.851562 10.226562 C 9.832031 10.324219 9.851562 10.496094 9.957031 10.53125 C 9.832031 10.226562 10.261719 10.378906 10.433594 10.558594 C 10.609375 10.734375 11.066406 10.949219 11.429688 10.949219 C 11.789062 10.949219 12.25 10.734375 12.421875 10.558594 C 12.597656 10.378906 13.023438 10.226562 12.902344 10.53125 C 13.007812 10.496094 13.027344 10.324219 13.007812 10.226562 C 12.988281 10.128906 13.085938 10.085938 13.085938 10.085938 Z M 13.085938 10.085938 "/>
<path style=" stroke:none;fill-rule:nonzero;fill:rgb(98.431373%,98.039216%,90.588235%);fill-opacity:1;" d="M 10.527344 10 C 10.757812 9.949219 11.054688 10.203125 11.105469 10.261719 C 11.160156 10.320312 11.082031 10.5 10.988281 10.429688 C 10.898438 10.359375 10.839844 10.34375 10.730469 10.324219 C 10.617188 10.308594 10.476562 10.160156 10.632812 10.105469 C 10.566406 10.183594 10.632812 10.289062 10.734375 10.222656 C 10.839844 10.15625 10.753906 10.042969 10.527344 10 Z M 12.371094 10 C 12.140625 9.949219 11.84375 10.203125 11.789062 10.261719 C 11.738281 10.320312 11.816406 10.5 11.90625 10.429688 C 12 10.359375 12.058594 10.34375 12.167969 10.324219 C 12.277344 10.308594 12.421875 10.160156 12.265625 10.105469 C 12.332031 10.183594 12.265625 10.289062 12.160156 10.222656 C 12.058594 10.15625 12.140625 10.042969 12.371094 10 Z M 12.371094 10 "/>
<path style=" stroke:none;fill-rule:nonzero;fill:rgb(0%,14.117647%,49.019608%);fill-opacity:1;" d="M 7.917969 7.5 L 7.917969 2.082031 L 1.667969 2.082031 C 1.535156 2.082031 1.414062 2.101562 1.414062 2.101562 L 1.414062 2.832031 L 0.277344 2.832031 C 0.277344 2.832031 0.257812 2.855469 0.222656 2.917969 C 0.0820312 3.160156 0 3.445312 0 3.75 L 0 7.5 Z M 7.917969 7.5 "/>
<path style=" stroke:none;fill-rule:nonzero;fill:rgb(93.333333%,93.333333%,93.333333%);fill-opacity:1;" d="M 7.917969 2.082031 L 6.945312 2.082031 L 5 3.445312 L 5 2.082031 L 2.917969 2.082031 L 2.917969 3.152344 L 1.414062 2.101562 C 1.160156 2.140625 0.917969 2.238281 0.71875 2.378906 L 2.675781 3.75 L 1.953125 3.75 L 0.402344 2.664062 C 0.355469 2.714844 0.316406 2.773438 0.277344 2.832031 L 1.589844 3.75 L 0 3.75 L 0 5.832031 L 1.617188 5.832031 L 0 6.984375 L 0 7.5 L 1.386719 7.5 L 2.917969 6.429688 L 2.917969 7.5 L 5 7.5 L 5 6.136719 L 6.945312 7.5 L 7.917969 7.5 L 7.917969 6.65625 L 6.742188 5.832031 L 7.917969 5.832031 L 7.917969 3.75 L 6.746094 3.75 L 7.917969 2.929688 Z M 7.917969 2.082031 "/>
<path style=" stroke:none;fill-rule:nonzero;fill:rgb(81.176471%,10.588235%,16.862745%);fill-opacity:1;" d="M 4.582031 2.082031 L 3.332031 2.082031 L 3.332031 4.167969 L 0 4.167969 L 0 5.417969 L 3.332031 5.417969 L 3.332031 7.5 L 4.582031 7.5 L 4.582031 5.417969 L 7.917969 5.417969 L 7.917969 4.167969 L 4.582031 4.167969 Z M 4.582031 2.082031 "/>
<path style=" stroke:none;fill-rule:nonzero;fill:rgb(81.176471%,10.588235%,16.862745%);fill-opacity:1;" d="M 7.917969 2.082031 L 7.308594 2.082031 L 5 3.699219 L 5 3.75 L 5.65625 3.75 L 7.917969 2.164062 Z M 0.71875 2.378906 C 0.601562 2.460938 0.496094 2.554688 0.402344 2.664062 L 1.953125 3.75 L 2.675781 3.75 Z M 2.683594 5.832031 L 0.304688 7.5 L 1.027344 7.5 L 2.917969 6.175781 L 2.917969 5.832031 Z M 7.917969 7.417969 L 7.917969 6.910156 L 6.378906 5.832031 L 5.652344 5.832031 Z M 7.917969 7.417969 "/>
</g>
</svg>
