<?xml version="1.0" encoding="UTF-8"?>
<svg xmlns="http://www.w3.org/2000/svg" xmlns:xlink="http://www.w3.org/1999/xlink" width="15pt" height="15pt" viewBox="0 0 15 15" version="1.1">
<g id="surface1">
<path style=" stroke:none;fill-rule:nonzero;fill:rgb(36.862745%,71.372549%,89.411765%);fill-opacity:1;" d="M 0 7.5 L 0 11.25 C 0 12.171875 0.746094 12.917969 1.667969 12.917969 L 13.332031 12.917969 C 14.253906 12.917969 15 12.171875 15 11.25 L 15 7.5 Z M 0 7.5 "/>
<path style=" stroke:none;fill-rule:nonzero;fill:rgb(93.333333%,93.333333%,93.333333%);fill-opacity:1;" d="M 13.332031 2.101562 L 1.667969 2.101562 C 0.746094 2.101562 0 2.847656 0 3.765625 L 0 7.5 L 15 7.5 L 15 3.765625 C 15 2.847656 14.253906 2.101562 13.332031 2.101562 Z M 13.332031 2.101562 "/>
<path style=" stroke:none;fill-rule:nonzero;fill:rgb(95.686275%,56.470588%,4.705882%);fill-opacity:1;" d="M 7.5 5.941406 C 6.484375 5.941406 6.394531 5.53125 7.5 5.53125 C 8.605469 5.53125 8.515625 5.941406 7.5 5.941406 Z M 7.5 5.941406 "/>
<path style=" stroke:none;fill-rule:nonzero;fill:rgb(100%,67.45098%,20%);fill-opacity:1;" d="M 8.28125 5.824219 C 8.027344 5.824219 7.824219 5.980469 7.644531 6.078125 C 7.589844 6.011719 7.5 6.019531 7.5 6.019531 C 7.5 6.019531 7.410156 6.011719 7.355469 6.078125 C 7.175781 5.980469 6.972656 5.824219 6.71875 5.824219 C 6.464844 5.824219 5.867188 6.070312 5.867188 7.328125 C 5.867188 8.980469 7.5 9.507812 7.5 9.507812 C 7.5 9.507812 9.132812 8.980469 9.132812 7.328125 C 9.132812 6.070312 8.535156 5.824219 8.28125 5.824219 Z M 6.328125 5.269531 C 6.492188 5.304688 6.703125 5.601562 6.703125 5.734375 C 6.855469 5.570312 7.5 5.558594 7.5 5.558594 C 7.5 5.558594 8.144531 5.570312 8.296875 5.734375 C 8.296875 5.601562 8.507812 5.304688 8.671875 5.269531 C 8.640625 5.207031 8.546875 5.226562 8.546875 5.226562 C 8.546875 5.226562 8.75 4.878906 8.671875 4.71875 C 8.59375 4.554688 8.289062 4.5625 8.039062 4.535156 C 7.792969 4.507812 7.746094 4.398438 7.746094 4.398438 L 7.8125 4.320312 C 7.8125 4.320312 7.6875 4.292969 7.714844 4.210938 C 7.742188 4.125 7.636719 4.128906 7.636719 4.128906 C 7.636719 4.128906 7.714844 4.050781 7.683594 3.980469 C 7.648438 3.910156 7.578125 3.890625 7.578125 3.890625 C 7.578125 3.890625 7.53125 3.785156 7.578125 3.753906 C 7.621094 3.722656 7.726562 3.84375 7.726562 3.722656 C 7.726562 3.597656 7.609375 3.703125 7.578125 3.65625 C 7.546875 3.609375 7.636719 3.492188 7.5 3.492188 C 7.363281 3.492188 7.453125 3.609375 7.421875 3.65625 C 7.390625 3.703125 7.273438 3.597656 7.273438 3.722656 C 7.273438 3.84375 7.375 3.722656 7.421875 3.753906 C 7.46875 3.785156 7.421875 3.890625 7.421875 3.890625 C 7.421875 3.890625 7.351562 3.910156 7.316406 3.980469 C 7.285156 4.054688 7.363281 4.132812 7.363281 4.132812 C 7.363281 4.132812 7.257812 4.125 7.285156 4.210938 C 7.308594 4.292969 7.1875 4.320312 7.1875 4.320312 L 7.253906 4.398438 C 7.253906 4.398438 7.207031 4.511719 6.960938 4.535156 C 6.710938 4.5625 6.40625 4.554688 6.328125 4.71875 C 6.25 4.882812 6.453125 5.226562 6.453125 5.226562 C 6.453125 5.226562 6.359375 5.207031 6.328125 5.269531 Z M 8.046875 4.679688 C 8.269531 4.71875 8.625 4.796875 8.203125 5.074219 C 8.210938 4.976562 8.15625 4.898438 8.15625 4.898438 C 8.15625 4.898438 8.054688 4.914062 7.96875 4.992188 C 7.933594 4.863281 7.871094 4.820312 7.871094 4.820312 C 7.871094 4.820312 7.746094 4.859375 7.707031 4.957031 C 7.691406 4.917969 7.671875 4.878906 7.648438 4.851562 C 7.683594 4.789062 7.707031 4.699219 7.707031 4.605469 C 7.707031 4.585938 7.703125 4.566406 7.703125 4.546875 C 7.808594 4.613281 7.941406 4.660156 8.046875 4.679688 Z M 6.953125 4.679688 C 7.058594 4.660156 7.191406 4.613281 7.296875 4.546875 C 7.292969 4.566406 7.289062 4.585938 7.289062 4.605469 C 7.289062 4.703125 7.3125 4.789062 7.351562 4.851562 C 7.328125 4.882812 7.308594 4.917969 7.292969 4.957031 C 7.253906 4.859375 7.128906 4.820312 7.128906 4.820312 C 7.128906 4.820312 7.066406 4.863281 7.03125 4.992188 C 6.945312 4.914062 6.84375 4.898438 6.84375 4.898438 C 6.84375 4.898438 6.789062 4.976562 6.796875 5.074219 C 6.375 4.796875 6.730469 4.71875 6.953125 4.679688 Z M 6.953125 4.679688 "/>
<path style=" stroke:none;fill-rule:nonzero;fill:rgb(62.745098%,81.176471%,92.156863%);fill-opacity:1;" d="M 8.703125 7.492188 C 8.703125 6.519531 8.421875 6.410156 8.421875 6.410156 C 8.421875 6.410156 8.289062 6.574219 8.09375 6.507812 C 7.902344 6.441406 7.628906 6.226562 7.628906 6.226562 C 7.628906 6.226562 7.582031 6.289062 7.492188 6.292969 C 7.40625 6.289062 7.355469 6.226562 7.355469 6.226562 C 7.355469 6.226562 7.082031 6.441406 6.890625 6.507812 C 6.699219 6.574219 6.5625 6.410156 6.5625 6.410156 C 6.5625 6.410156 6.28125 6.519531 6.28125 7.492188 C 6.28125 8.410156 7.371094 9.273438 7.488281 9.363281 L 7.488281 9.371094 L 7.492188 9.367188 L 7.5 9.371094 L 7.5 9.363281 C 7.617188 9.273438 8.703125 8.410156 8.703125 7.492188 Z M 8.703125 7.492188 "/>
<path style=" stroke:none;fill-rule:nonzero;fill:rgb(80%,83.921569%,86.666667%);fill-opacity:1;" d="M 7.214844 8.414062 C 7.277344 8.226562 7.316406 8.101562 7.316406 7.992188 L 7.316406 7.515625 C 7.316406 7.515625 7.214844 7.464844 7.214844 7.40625 L 7.214844 7.230469 L 7.316406 7.191406 L 7.316406 7.308594 L 7.421875 7.269531 L 7.421875 7.164062 L 7.5 7.164062 L 7.5 7.277344 L 7.589844 7.296875 L 7.589844 7.199219 L 7.707031 7.230469 L 7.707031 7.394531 C 7.707031 7.394531 7.617188 7.492188 7.617188 7.515625 L 7.617188 7.992188 C 7.617188 8.039062 7.753906 8.414062 7.753906 8.414062 Z M 7.484375 7.074219 C 7.484375 7.074219 7.453125 6.949219 7.382812 6.847656 C 7.3125 6.742188 7.335938 6.546875 7.492188 6.546875 C 7.785156 6.546875 7.589844 6.8125 7.589844 6.8125 C 7.589844 6.8125 7.527344 6.675781 7.5 6.714844 C 7.472656 6.753906 7.566406 6.90625 7.527344 6.988281 C 7.484375 7.074219 7.484375 7.074219 7.484375 7.074219 Z M 6.828125 7.191406 C 6.828125 7.191406 6.796875 7.066406 6.726562 6.964844 C 6.652344 6.859375 6.675781 6.664062 6.835938 6.664062 C 7.128906 6.664062 6.933594 6.929688 6.933594 6.929688 C 6.933594 6.929688 6.867188 6.792969 6.84375 6.832031 C 6.816406 6.871094 6.910156 7.023438 6.867188 7.105469 Z M 8.128906 7.191406 C 8.128906 7.191406 8.101562 7.066406 8.03125 6.964844 C 7.957031 6.859375 7.980469 6.664062 8.140625 6.664062 C 8.433594 6.664062 8.238281 6.929688 8.238281 6.929688 C 8.238281 6.929688 8.171875 6.792969 8.148438 6.832031 C 8.121094 6.871094 8.214844 7.023438 8.171875 7.105469 Z M 6.605469 8.386719 C 6.640625 8.273438 6.660156 8.1875 6.660156 8.109375 L 6.660156 7.632812 C 6.660156 7.632812 6.554688 7.582031 6.554688 7.523438 L 6.554688 7.347656 L 6.660156 7.308594 L 6.660156 7.425781 L 6.765625 7.386719 L 6.765625 7.28125 L 6.84375 7.28125 L 6.84375 7.394531 L 6.933594 7.414062 L 6.933594 7.316406 L 7.050781 7.347656 L 7.050781 7.511719 C 7.050781 7.511719 6.960938 7.609375 6.960938 7.632812 L 6.960938 8.109375 C 6.960938 8.15625 7.097656 8.53125 7.097656 8.53125 C 7.097656 8.53125 6.589844 8.429688 6.605469 8.386719 Z M 7.859375 8.53125 C 7.925781 8.34375 7.964844 8.21875 7.964844 8.109375 L 7.964844 7.632812 C 7.964844 7.632812 7.859375 7.582031 7.859375 7.523438 L 7.859375 7.347656 L 7.964844 7.308594 L 7.964844 7.425781 L 8.070312 7.386719 L 8.070312 7.28125 L 8.148438 7.28125 L 8.148438 7.394531 L 8.238281 7.414062 L 8.238281 7.316406 L 8.355469 7.347656 L 8.355469 7.511719 C 8.355469 7.511719 8.265625 7.609375 8.265625 7.632812 L 8.265625 8.109375 C 8.265625 8.136719 8.320312 8.300781 8.359375 8.414062 C 8.382812 8.480469 7.859375 8.53125 7.859375 8.53125 Z M 7.859375 8.53125 "/>
<path style=" stroke:none;fill-rule:nonzero;fill:rgb(60%,66.666667%,70.980392%);fill-opacity:1;" d="M 6.828125 7.28125 L 6.765625 7.28125 L 6.765625 7.386719 L 6.660156 7.425781 L 6.660156 7.308594 L 6.554688 7.347656 L 6.554688 7.523438 C 6.554688 7.582031 6.660156 7.636719 6.660156 7.636719 L 6.660156 8.109375 C 6.660156 8.1875 6.640625 8.273438 6.605469 8.386719 C 6.597656 8.40625 6.707031 8.441406 6.828125 8.472656 Z M 7.480469 7.164062 L 7.417969 7.164062 L 7.417969 7.269531 L 7.3125 7.308594 L 7.3125 7.191406 L 7.210938 7.230469 L 7.210938 7.40625 C 7.210938 7.464844 7.3125 7.515625 7.3125 7.515625 L 7.3125 7.992188 C 7.3125 8.070312 7.292969 8.15625 7.257812 8.269531 C 7.25 8.289062 7.363281 8.324219 7.480469 8.355469 Z M 8.148438 7.300781 L 8.066406 7.28125 L 8.066406 7.386719 L 7.960938 7.425781 L 7.960938 7.308594 L 7.855469 7.347656 L 7.855469 7.523438 C 7.855469 7.582031 7.960938 7.632812 7.960938 7.632812 L 7.960938 8.109375 C 7.960938 8.1875 7.941406 8.273438 7.90625 8.386719 C 7.898438 8.40625 8.007812 8.441406 8.148438 8.492188 Z M 8.148438 7.300781 "/>
<path style=" stroke:none;fill-rule:nonzero;fill:rgb(54.509804%,69.803922%,45.098039%);fill-opacity:1;" d="M 7.910156 8.347656 C 7.910156 8.347656 7.773438 8.171875 7.5 8.171875 C 7.226562 8.171875 7.109375 8.355469 7.109375 8.355469 C 7.109375 8.355469 6.867188 8.257812 6.589844 8.390625 C 6.917969 8.914062 7.410156 9.304688 7.488281 9.363281 L 7.488281 9.371094 L 7.492188 9.367188 L 7.5 9.371094 L 7.5 9.363281 C 7.574219 9.304688 8.070312 8.910156 8.402344 8.386719 C 8.101562 8.261719 7.910156 8.347656 7.910156 8.347656 Z M 7.910156 8.347656 "/>
<path style=" stroke:none;fill-rule:nonzero;fill:rgb(39.607843%,55.294118%,36.078431%);fill-opacity:1;" d="M 7.855469 10.226562 C 7.671875 9.925781 7.507812 9.582031 7.058594 9.371094 C 6.609375 9.164062 6.535156 9.105469 6.40625 8.890625 C 6.277344 8.675781 6.023438 8.53125 6.023438 8.53125 C 6.023438 8.53125 6.027344 8.332031 5.945312 8.199219 C 5.859375 8.070312 5.867188 7.90625 5.867188 7.90625 C 5.867188 7.90625 5.761719 7.964844 5.789062 7.761719 C 5.8125 7.558594 5.683594 7.421875 5.683594 7.421875 C 5.683594 7.421875 5.847656 7.203125 5.710938 6.929688 C 5.867188 6.660156 5.792969 6.351562 5.792969 6.351562 C 5.792969 6.351562 5.929688 6.097656 5.792969 5.824219 C 5.359375 6.007812 5.332031 6.585938 5.332031 6.585938 L 5.085938 6.226562 C 5.085938 6.226562 4.875 6.363281 4.929688 6.621094 C 4.980469 6.871094 4.96875 6.929688 4.96875 6.929688 L 4.734375 6.730469 C 4.734375 6.730469 4.5625 7.011719 4.796875 7.230469 C 5.03125 7.453125 5.070312 7.519531 5.070312 7.519531 C 5.070312 7.519531 4.953125 7.453125 4.953125 7.558594 C 4.953125 7.660156 4.980469 7.707031 4.980469 7.707031 L 4.671875 7.453125 C 4.671875 7.453125 4.582031 7.796875 4.796875 7.992188 C 5.011719 8.1875 5.140625 8.261719 5.140625 8.261719 C 5.140625 8.261719 4.734375 8.144531 4.738281 8.171875 C 4.746094 8.203125 4.824219 8.417969 5.03125 8.535156 C 5.238281 8.652344 5.394531 8.695312 5.394531 8.695312 L 4.972656 8.773438 C 4.972656 8.773438 5.078125 9.074219 5.324219 9.074219 C 5.570312 9.074219 5.804688 8.996094 5.804688 8.996094 C 5.804688 8.996094 5.628906 9.140625 5.578125 9.25 C 5.527344 9.359375 5.375 9.375 5.375 9.375 C 5.375 9.375 5.511719 9.515625 5.765625 9.472656 C 6.019531 9.425781 6.054688 9.082031 6.367188 9.191406 C 6.679688 9.300781 7.238281 9.503906 7.421875 9.785156 C 7.601562 10.0625 7.667969 10.128906 7.707031 10.226562 C 7.746094 10.324219 7.910156 10.3125 7.855469 10.226562 Z M 7.855469 10.226562 "/>
<path style=" stroke:none;fill-rule:nonzero;fill:rgb(39.607843%,55.294118%,36.078431%);fill-opacity:1;" d="M 7.09375 10.226562 C 7.277344 9.925781 7.445312 9.582031 7.894531 9.371094 C 8.34375 9.164062 8.414062 9.105469 8.542969 8.890625 C 8.675781 8.675781 8.929688 8.53125 8.929688 8.53125 C 8.929688 8.53125 8.921875 8.332031 9.007812 8.199219 C 9.089844 8.070312 9.085938 7.90625 9.085938 7.90625 C 9.085938 7.90625 9.1875 7.964844 9.164062 7.761719 C 9.136719 7.558594 9.265625 7.421875 9.265625 7.421875 C 9.265625 7.421875 9.105469 7.203125 9.242188 6.929688 C 9.085938 6.660156 9.15625 6.351562 9.15625 6.351562 C 9.15625 6.351562 9.019531 6.097656 9.15625 5.824219 C 9.59375 6.007812 9.621094 6.585938 9.621094 6.585938 L 9.867188 6.226562 C 9.867188 6.226562 10.074219 6.363281 10.023438 6.621094 C 9.972656 6.871094 9.984375 6.929688 9.984375 6.929688 L 10.21875 6.730469 C 10.21875 6.730469 10.386719 7.011719 10.152344 7.230469 C 9.917969 7.453125 9.878906 7.519531 9.878906 7.519531 C 9.878906 7.519531 9.996094 7.453125 9.996094 7.558594 C 9.996094 7.660156 9.972656 7.707031 9.972656 7.707031 L 10.277344 7.453125 C 10.277344 7.453125 10.367188 7.796875 10.152344 7.992188 C 9.9375 8.1875 9.808594 8.261719 9.808594 8.261719 C 9.808594 8.261719 10.21875 8.144531 10.210938 8.171875 C 10.203125 8.203125 10.128906 8.417969 9.917969 8.535156 C 9.710938 8.652344 9.554688 8.695312 9.554688 8.695312 L 9.976562 8.773438 C 9.976562 8.773438 9.875 9.074219 9.625 9.074219 C 9.378906 9.074219 9.144531 8.996094 9.144531 8.996094 C 9.144531 8.996094 9.320312 9.140625 9.371094 9.25 C 9.425781 9.359375 9.574219 9.375 9.574219 9.375 C 9.574219 9.375 9.4375 9.515625 9.183594 9.472656 C 8.929688 9.425781 8.894531 9.082031 8.582031 9.191406 C 8.269531 9.300781 7.710938 9.503906 7.527344 9.785156 C 7.347656 10.0625 7.28125 10.128906 7.242188 10.226562 C 7.203125 10.324219 7.039062 10.3125 7.09375 10.226562 Z M 7.09375 10.226562 "/>
<path style=" stroke:none;fill-rule:nonzero;fill:rgb(88.235294%,90.980392%,92.941176%);fill-opacity:1;" d="M 6.511719 9.644531 C 6.203125 9.679688 6.125 9.878906 5.695312 9.691406 C 5.675781 9.789062 5.832031 9.9375 5.832031 9.9375 C 5.832031 9.9375 5.597656 9.945312 5.488281 9.90625 C 5.546875 10.148438 5.820312 10.238281 6.046875 10.21875 C 6.277344 10.199219 6.417969 10.03125 6.683594 10.089844 C 6.945312 10.148438 7.136719 10.230469 7.085938 9.757812 C 6.90625 9.566406 6.511719 9.644531 6.511719 9.644531 Z M 8.488281 9.644531 C 8.796875 9.679688 8.875 9.878906 9.304688 9.691406 C 9.324219 9.789062 9.167969 9.9375 9.167969 9.9375 C 9.167969 9.9375 9.402344 9.945312 9.511719 9.90625 C 9.453125 10.148438 9.179688 10.238281 8.953125 10.21875 C 8.722656 10.199219 8.582031 10.03125 8.316406 10.089844 C 8.054688 10.148438 7.863281 10.230469 7.914062 9.757812 C 8.09375 9.566406 8.488281 9.644531 8.488281 9.644531 Z M 8.488281 9.644531 "/>
<path style=" stroke:none;fill-rule:nonzero;fill:rgb(96.078431%,97.254902%,98.039216%);fill-opacity:1;" d="M 8.507812 9.339844 C 8.332031 9.261719 7.949219 9.457031 7.5 9.457031 C 7.050781 9.457031 6.667969 9.261719 6.492188 9.339844 C 6.316406 9.417969 6.347656 9.445312 6.359375 9.507812 C 6.375 9.574219 6.394531 9.75 6.40625 9.847656 C 6.417969 9.945312 6.523438 10.011719 6.648438 9.925781 C 6.769531 9.839844 6.925781 9.800781 7.140625 9.867188 C 7.355469 9.933594 7.488281 9.929688 7.488281 9.929688 C 7.488281 9.929688 7.644531 9.933594 7.859375 9.867188 C 8.074219 9.800781 8.230469 9.839844 8.351562 9.925781 C 8.476562 10.011719 8.582031 9.945312 8.59375 9.847656 C 8.605469 9.75 8.625 9.574219 8.640625 9.507812 C 8.652344 9.445312 8.683594 9.417969 8.507812 9.339844 Z M 8.507812 9.339844 "/>
<path style=" stroke:none;fill-rule:nonzero;fill:rgb(60%,66.666667%,70.980392%);fill-opacity:1;" d="M 8.265625 9.507812 C 8.265625 9.550781 8.1875 9.710938 7.453125 9.710938 C 6.71875 9.710938 6.664062 9.546875 6.664062 9.507812 C 6.664062 9.46875 6.785156 9.597656 7.515625 9.597656 C 8.25 9.597656 8.265625 9.46875 8.265625 9.507812 Z M 8.265625 9.507812 "/>
</g>
</svg>
