<?xml version="1.0" encoding="UTF-8"?>
<svg xmlns="http://www.w3.org/2000/svg" xmlns:xlink="http://www.w3.org/1999/xlink" width="15pt" height="15pt" viewBox="0 0 15 15" version="1.1">
<g id="surface1">
<path style=" stroke:none;fill-rule:nonzero;fill:rgb(100%,88.235294%,31.372549%);fill-opacity:1;" d="M 13.332031 2.082031 L 1.667969 2.082031 C 1.582031 2.082031 1.496094 2.089844 1.414062 2.101562 L 1.414062 2.832031 L 0.277344 2.832031 C 0.101562 3.09375 0 3.410156 0 3.75 L 0 11.25 C 0 12.171875 0.746094 12.917969 1.667969 12.917969 L 13.332031 12.917969 C 14.253906 12.917969 15 12.171875 15 11.25 L 15 3.75 C 15 2.828125 14.253906 2.082031 13.332031 2.082031 Z M 13.332031 2.082031 "/>
<path style=" stroke:none;fill-rule:nonzero;fill:rgb(0%,14.117647%,49.019608%);fill-opacity:1;" d="M 7.917969 7.5 L 7.917969 2.082031 L 1.667969 2.082031 C 1.535156 2.082031 1.414062 2.101562 1.414062 2.101562 L 1.414062 2.832031 L 0.277344 2.832031 C 0.277344 2.832031 0.257812 2.855469 0.222656 2.917969 C 0.0820312 3.160156 0 3.445312 0 3.75 L 0 7.5 Z M 7.917969 7.5 "/>
<path style=" stroke:none;fill-rule:nonzero;fill:rgb(93.333333%,93.333333%,93.333333%);fill-opacity:1;" d="M 7.917969 2.082031 L 6.945312 2.082031 L 5 3.445312 L 5 2.082031 L 2.917969 2.082031 L 2.917969 3.152344 L 1.414062 2.101562 C 1.160156 2.140625 0.917969 2.238281 0.71875 2.378906 L 2.675781 3.75 L 1.953125 3.75 L 0.402344 2.664062 C 0.355469 2.714844 0.316406 2.773438 0.277344 2.832031 L 1.589844 3.75 L 0 3.75 L 0 5.832031 L 1.617188 5.832031 L 0 6.984375 L 0 7.5 L 1.386719 7.5 L 2.917969 6.429688 L 2.917969 7.5 L 5 7.5 L 5 6.136719 L 6.945312 7.5 L 7.917969 7.5 L 7.917969 6.65625 L 6.742188 5.832031 L 7.917969 5.832031 L 7.917969 3.75 L 6.746094 3.75 L 7.917969 2.929688 Z M 7.917969 2.082031 "/>
<path style=" stroke:none;fill-rule:nonzero;fill:rgb(81.176471%,10.588235%,16.862745%);fill-opacity:1;" d="M 4.582031 2.082031 L 3.332031 2.082031 L 3.332031 4.167969 L 0 4.167969 L 0 5.417969 L 3.332031 5.417969 L 3.332031 7.5 L 4.582031 7.5 L 4.582031 5.417969 L 7.917969 5.417969 L 7.917969 4.167969 L 4.582031 4.167969 Z M 4.582031 2.082031 "/>
<path style=" stroke:none;fill-rule:nonzero;fill:rgb(81.176471%,10.588235%,16.862745%);fill-opacity:1;" d="M 7.917969 2.082031 L 7.308594 2.082031 L 5 3.699219 L 5 3.75 L 5.65625 3.75 L 7.917969 2.164062 Z M 0.71875 2.378906 C 0.601562 2.460938 0.496094 2.554688 0.402344 2.664062 L 1.953125 3.75 L 2.675781 3.75 Z M 2.683594 5.832031 L 0.304688 7.5 L 1.027344 7.5 L 2.917969 6.175781 L 2.917969 5.832031 Z M 7.917969 7.417969 L 7.917969 6.910156 L 6.378906 5.832031 L 5.652344 5.832031 Z M 7.917969 7.417969 "/>
<path style=" stroke:none;fill-rule:nonzero;fill:rgb(0%,29.019608%,46.666667%);fill-opacity:1;" d="M 5 4.792969 C 5 5.367188 4.535156 5.832031 3.957031 5.832031 C 3.382812 5.832031 2.917969 5.367188 2.917969 4.792969 C 2.917969 4.214844 3.382812 3.75 3.957031 3.75 C 4.535156 3.75 5 4.214844 5 4.792969 Z M 5 4.792969 "/>
<path style=" stroke:none;fill-rule:nonzero;fill:rgb(100%,88.235294%,31.372549%);fill-opacity:1;" d="M 3.957031 3.734375 L 4.207031 4.402344 L 4.96875 4.417969 L 4.363281 4.929688 L 4.582031 5.65625 L 3.957031 5.222656 L 3.335938 5.65625 L 3.554688 4.929688 L 2.949219 4.417969 L 3.707031 4.402344 Z M 1.59375 4.367188 L 1.695312 4.664062 L 2.007812 4.671875 L 1.757812 4.859375 L 1.847656 5.15625 L 1.59375 4.980469 L 1.335938 5.15625 L 1.429688 4.859375 L 1.179688 4.671875 L 1.492188 4.664062 Z M 6.324219 4.367188 L 6.425781 4.664062 L 6.738281 4.671875 L 6.488281 4.859375 L 6.578125 5.15625 L 6.324219 4.980469 L 6.066406 5.15625 L 6.15625 4.859375 L 5.910156 4.671875 L 6.222656 4.664062 Z M 3.957031 2.425781 L 4.0625 2.71875 L 4.371094 2.726562 L 4.125 2.914062 L 4.214844 3.214844 L 3.957031 3.035156 L 3.703125 3.214844 L 3.792969 2.914062 L 3.542969 2.726562 L 3.855469 2.71875 Z M 3.957031 6.371094 L 4.0625 6.664062 L 4.371094 6.671875 L 4.125 6.859375 L 4.214844 7.15625 L 3.957031 6.980469 L 3.703125 7.15625 L 3.792969 6.859375 L 3.542969 6.671875 L 3.855469 6.664062 Z M 3.957031 6.371094 "/>
</g>
</svg>
