<?xml version="1.0" encoding="UTF-8"?>
<svg xmlns="http://www.w3.org/2000/svg" xmlns:xlink="http://www.w3.org/1999/xlink" width="15pt" height="15pt" viewBox="0 0 15 15" version="1.1">
<g id="surface1">
<path style=" stroke:none;fill-rule:nonzero;fill:rgb(23.137255%,53.333333%,76.470588%);fill-opacity:1;" d="M 15 13.332031 C 15 14.253906 14.253906 15 13.332031 15 L 1.667969 15 C 0.746094 15 0 14.253906 0 13.332031 L 0 1.667969 C 0 0.746094 0.746094 0 1.667969 0 L 13.332031 0 C 14.253906 0 15 0.746094 15 1.667969 Z M 15 13.332031 "/>
<path style=" stroke:none;fill-rule:nonzero;fill:rgb(100%,100%,100%);fill-opacity:1;" d="M 5.328125 3.816406 C 5.328125 3.167969 5.742188 2.808594 6.296875 2.808594 C 6.855469 2.808594 7.265625 3.167969 7.265625 3.816406 L 7.265625 10.300781 L 9.566406 10.300781 C 10.226562 10.300781 10.511719 10.792969 10.496094 11.230469 C 10.472656 11.65625 10.136719 12.082031 9.566406 12.082031 L 6.335938 12.082031 C 5.703125 12.082031 5.328125 11.671875 5.328125 11.023438 Z M 5.328125 3.816406 "/>
</g>
</svg>
