<?xml version="1.0" encoding="UTF-8"?>
<svg xmlns="http://www.w3.org/2000/svg" xmlns:xlink="http://www.w3.org/1999/xlink" width="15pt" height="15pt" viewBox="0 0 15 15" version="1.1">
<g id="surface1">
<path style=" stroke:none;fill-rule:nonzero;fill:rgb(24.313725%,36.862745%,72.54902%);fill-opacity:1;" d="M 15 11.25 C 15 12.171875 14.253906 12.917969 13.332031 12.917969 L 1.667969 12.917969 C 0.746094 12.917969 0 12.171875 0 11.25 L 0 3.75 C 0 2.828125 0.746094 2.082031 1.667969 2.082031 L 13.332031 2.082031 C 14.253906 2.082031 15 2.828125 15 3.75 Z M 15 11.25 "/>
<path style=" stroke:none;fill-rule:nonzero;fill:rgb(100%,85.098039%,0%);fill-opacity:1;" d="M 0 4.167969 L 15 4.167969 L 15 10.832031 L 0 10.832031 Z M 0 4.167969 "/>
<path style=" stroke:none;fill-rule:nonzero;fill:rgb(69.411765%,5.098039%,5.098039%);fill-opacity:1;" d="M 0 4.582031 L 15 4.582031 L 15 10.417969 L 0 10.417969 Z M 0 4.582031 "/>
<path style=" stroke:none;fill-rule:nonzero;fill:rgb(100%,100%,100%);fill-opacity:1;" d="M 11.464844 6.992188 L 12.113281 7.238281 L 12.753906 6.992188 L 12.113281 6.78125 Z M 11.464844 6.992188 "/>
<path style=" stroke:none;fill-rule:nonzero;fill:rgb(100%,85.098039%,0%);fill-opacity:1;" d="M 11.886719 7 C 11.886719 7.066406 11.835938 7.117188 11.769531 7.117188 L 2.410156 7.117188 C 2.34375 7.117188 2.292969 7.066406 2.292969 7 C 2.292969 6.933594 2.34375 6.882812 2.410156 6.882812 L 11.769531 6.882812 C 11.835938 6.882812 11.886719 6.933594 11.886719 7 Z M 11.886719 7 "/>
<path style=" stroke:none;fill-rule:nonzero;fill:rgb(100%,100%,100%);fill-opacity:1;" d="M 11.878906 6.574219 L 12.53125 6.820312 L 13.167969 6.574219 L 12.53125 6.367188 Z M 11.878906 6.574219 "/>
<path style=" stroke:none;fill-rule:nonzero;fill:rgb(100%,85.098039%,0%);fill-opacity:1;" d="M 12.304688 6.582031 C 12.304688 6.648438 12.253906 6.699219 12.1875 6.699219 L 2.824219 6.699219 C 2.761719 6.699219 2.707031 6.648438 2.707031 6.582031 C 2.707031 6.519531 2.761719 6.464844 2.824219 6.464844 L 12.1875 6.464844 C 12.253906 6.464844 12.304688 6.519531 12.304688 6.582031 Z M 14.054688 7.496094 C 14.054688 7.59375 13.972656 7.671875 13.878906 7.671875 L 1.3125 7.671875 C 1.214844 7.671875 1.136719 7.59375 1.136719 7.496094 C 1.136719 7.398438 1.214844 7.320312 1.3125 7.320312 L 13.875 7.320312 C 13.972656 7.320312 14.054688 7.398438 14.054688 7.496094 Z M 14.054688 7.496094 "/>
<path style=" stroke:none;fill-rule:nonzero;fill:rgb(100%,100%,100%);fill-opacity:1;" d="M 11.34375 7.511719 C 11.34375 7.511719 9.65625 9.800781 7.570312 9.800781 C 5.484375 9.800781 3.792969 7.511719 3.792969 7.511719 C 3.792969 7.511719 5.484375 5.226562 7.570312 5.226562 C 9.65625 5.226562 11.34375 7.511719 11.34375 7.511719 Z M 11.34375 7.511719 "/>
<path style=" stroke:none;fill-rule:nonzero;fill:rgb(0%,0%,0%);fill-opacity:1;" d="M 7.90625 9.3125 C 7.726562 9.226562 7.414062 9.125 7.421875 9.046875 C 7.429688 8.964844 7.664062 8.941406 7.882812 8.914062 C 8.097656 8.890625 8.089844 8.785156 8.027344 8.734375 C 7.96875 8.679688 7.714844 8.609375 7.570312 8.523438 C 7.421875 8.4375 7.558594 8.359375 7.691406 8.253906 C 7.824219 8.152344 7.828125 8.03125 7.828125 7.941406 C 7.828125 7.855469 7.933594 7.671875 8.109375 7.558594 C 8.28125 7.449219 8.117188 7.429688 7.976562 7.359375 C 7.839844 7.292969 7.847656 7.058594 7.875 6.882812 C 7.898438 6.710938 7.890625 6.613281 7.828125 6.605469 C 7.769531 6.597656 7.734375 6.542969 7.699219 6.496094 C 7.664062 6.449219 7.699219 6.363281 7.570312 6.34375 C 7.441406 6.328125 7.449219 6.285156 7.414062 6.207031 C 7.378906 6.128906 7.265625 6.007812 7.214844 5.859375 C 7.171875 5.734375 7.277344 5.5 7.558594 5.226562 C 5.480469 5.234375 3.792969 7.511719 3.792969 7.511719 C 3.792969 7.511719 5.484375 9.800781 7.570312 9.800781 C 7.835938 9.800781 8.097656 9.761719 8.347656 9.695312 C 8.289062 9.453125 8.054688 9.382812 7.90625 9.3125 Z M 7.90625 9.3125 "/>
<path style=" stroke:none;fill-rule:nonzero;fill:rgb(100%,100%,100%);fill-opacity:1;" d="M 5.199219 6.683594 L 5.382812 6.683594 L 5.382812 7.300781 L 5.199219 7.300781 Z M 5.199219 7.707031 L 5.382812 7.707031 L 5.382812 8.324219 L 5.199219 8.324219 Z M 5.554688 6.683594 L 5.738281 6.683594 L 5.738281 7.300781 L 5.554688 7.300781 Z M 5.554688 7.707031 L 5.738281 7.707031 L 5.738281 8.324219 L 5.554688 8.324219 Z M 5.910156 6.683594 L 6.09375 6.683594 L 6.09375 7.300781 L 5.910156 7.300781 Z M 5.910156 7.707031 L 6.09375 7.707031 L 6.09375 8.324219 L 5.910156 8.324219 Z M 6.265625 6.683594 L 6.449219 6.683594 L 6.449219 7.300781 L 6.265625 7.300781 Z M 6.265625 7.707031 L 6.449219 7.707031 L 6.449219 8.324219 L 6.265625 8.324219 Z M 6.625 6.683594 L 6.804688 6.683594 L 6.804688 7.300781 L 6.625 7.300781 Z M 6.625 7.707031 L 6.804688 7.707031 L 6.804688 8.324219 L 6.625 8.324219 Z M 6.980469 6.683594 L 7.160156 6.683594 L 7.160156 7.300781 L 6.980469 7.300781 Z M 6.980469 7.707031 L 7.160156 7.707031 L 7.160156 8.324219 L 6.980469 8.324219 Z M 6.980469 7.707031 "/>
<path style=" stroke:none;fill-rule:nonzero;fill:rgb(0%,0%,0%);fill-opacity:1;" d="M 8.011719 6.683594 L 8.195312 6.683594 L 8.195312 7.300781 L 8.011719 7.300781 Z M 8.011719 7.707031 L 8.195312 7.707031 L 8.195312 8.324219 L 8.011719 8.324219 Z M 8.367188 6.683594 L 8.550781 6.683594 L 8.550781 7.300781 L 8.367188 7.300781 Z M 8.367188 7.707031 L 8.550781 7.707031 L 8.550781 8.324219 L 8.367188 8.324219 Z M 8.722656 6.683594 L 8.90625 6.683594 L 8.90625 7.300781 L 8.722656 7.300781 Z M 8.722656 7.707031 L 8.90625 7.707031 L 8.90625 8.324219 L 8.722656 8.324219 Z M 9.078125 6.683594 L 9.261719 6.683594 L 9.261719 7.300781 L 9.078125 7.300781 Z M 9.078125 7.707031 L 9.261719 7.707031 L 9.261719 8.324219 L 9.078125 8.324219 Z M 9.4375 6.683594 L 9.617188 6.683594 L 9.617188 7.300781 L 9.4375 7.300781 Z M 9.4375 7.707031 L 9.617188 7.707031 L 9.617188 8.324219 L 9.4375 8.324219 Z M 9.792969 6.683594 L 9.972656 6.683594 L 9.972656 7.300781 L 9.792969 7.300781 Z M 9.792969 7.707031 L 9.972656 7.707031 L 9.972656 8.324219 L 9.792969 8.324219 Z M 9.792969 7.707031 "/>
<path style=" stroke:none;fill-rule:nonzero;fill:rgb(23.921569%,36.470588%,65.490196%);fill-opacity:1;" d="M 6.316406 5.664062 C 6.148438 5.773438 5.808594 6.113281 5.789062 6.359375 C 5.859375 6.296875 5.945312 6.28125 5.945312 6.28125 C 5.945312 6.28125 5.847656 6.417969 5.859375 6.589844 C 5.917969 6.523438 5.976562 6.496094 5.976562 6.496094 C 5.976562 6.496094 6.011719 6.652344 6.140625 6.816406 C 6.203125 6.777344 6.222656 6.710938 6.222656 6.710938 C 6.222656 6.710938 6.261719 6.847656 6.398438 6.953125 C 6.449219 6.941406 6.449219 6.882812 6.449219 6.882812 C 6.449219 6.882812 6.53125 7.050781 6.863281 7.121094 C 6.804688 7.011719 6.992188 6.859375 6.921875 6.683594 C 6.980469 6.71875 7.039062 6.804688 7.039062 6.804688 C 7.039062 6.804688 7.097656 6.71875 6.980469 6.5625 C 7.050781 6.628906 7.089844 6.683594 7.089844 6.683594 C 7.089844 6.683594 7.136719 6.414062 6.980469 6.242188 C 7.078125 6.28125 7.160156 6.328125 7.160156 6.328125 C 7.160156 6.328125 7.144531 6 6.902344 5.851562 C 6.589844 5.664062 6.316406 5.800781 6.316406 5.664062 Z M 1.730469 7.460938 C 1.730469 7.460938 1.882812 7.597656 1.671875 7.617188 C 1.464844 7.636719 1.296875 7.882812 1.300781 8.132812 L 1.414062 8.078125 C 1.414062 8.078125 1.378906 8.25 1.433594 8.359375 C 1.476562 8.25 1.542969 8.253906 1.542969 8.253906 C 1.542969 8.253906 1.554688 8.417969 1.582031 8.542969 C 1.632812 8.476562 1.628906 8.40625 1.628906 8.40625 C 1.628906 8.40625 1.707031 8.429688 1.746094 8.542969 C 1.785156 8.652344 1.804688 8.738281 1.894531 8.789062 C 1.933594 8.769531 1.953125 8.71875 1.953125 8.71875 C 1.953125 8.71875 2.03125 8.78125 2.15625 8.835938 C 2.128906 8.660156 2.296875 8.679688 2.371094 8.554688 C 2.394531 8.585938 2.402344 8.652344 2.402344 8.652344 C 2.402344 8.652344 2.453125 8.554688 2.453125 8.457031 C 2.453125 8.359375 2.511719 8.28125 2.511719 8.28125 C 2.511719 8.28125 2.519531 8.328125 2.511719 8.398438 C 2.570312 8.367188 2.585938 7.996094 2.558594 7.878906 C 2.597656 7.910156 2.628906 7.980469 2.628906 7.980469 C 2.628906 7.980469 2.675781 7.792969 2.628906 7.671875 C 2.585938 7.550781 2.453125 7.453125 2.292969 7.511719 C 2.128906 7.570312 1.886719 7.414062 1.886719 7.414062 C 1.886719 7.414062 1.925781 7.511719 1.875 7.546875 C 1.824219 7.578125 1.867188 7.492188 1.730469 7.460938 Z M 13.144531 7.394531 C 13.144531 7.394531 13.015625 7.441406 12.804688 7.636719 C 12.597656 7.832031 12.53125 8.164062 12.53125 8.164062 C 12.53125 8.164062 12.648438 8.066406 12.695312 8.054688 C 12.585938 8.308594 12.800781 8.425781 12.765625 8.625 C 12.851562 8.613281 12.929688 8.464844 12.929688 8.464844 C 12.929688 8.464844 13.085938 8.742188 13.308594 8.898438 C 13.359375 8.75 13.507812 8.625 13.507812 8.625 L 13.542969 8.710938 L 13.632812 8.484375 L 13.699219 8.59375 C 13.699219 8.59375 13.757812 8.464844 13.699219 8.324219 C 13.707031 8.351562 13.796875 8.417969 13.796875 8.417969 L 13.796875 8.105469 C 13.796875 8.105469 13.847656 8.203125 13.886719 8.230469 C 13.886719 8.09375 13.808594 7.996094 13.839844 7.9375 L 13.886719 8.015625 C 13.886719 8.015625 13.925781 7.800781 13.699219 7.628906 C 13.46875 7.460938 13.257812 7.472656 13.210938 7.496094 C 13.164062 7.519531 13.144531 7.394531 13.144531 7.394531 Z M 13.144531 7.394531 "/>
<path style=" stroke:none;fill-rule:nonzero;fill:rgb(65.490196%,0%,0%);fill-opacity:1;" d="M 6.191406 6.074219 C 6.3125 6.039062 6.269531 6.425781 6.125 6.582031 C 6.203125 6.316406 6.042969 6.121094 6.191406 6.074219 Z M 6.472656 5.964844 C 6.503906 5.863281 6.710938 6.125 6.980469 6.140625 C 6.746094 6.179688 6.4375 6.085938 6.472656 5.964844 Z M 6.394531 6.367188 C 6.464844 6.335938 6.484375 6.726562 6.394531 6.835938 C 6.40625 6.640625 6.296875 6.414062 6.394531 6.367188 Z M 6.652344 6.269531 C 6.5625 6.292969 6.828125 6.511719 6.980469 6.496094 C 6.839844 6.472656 6.796875 6.230469 6.652344 6.269531 Z M 6.601562 6.683594 C 6.507812 6.683594 6.601562 6.933594 6.769531 6.992188 C 6.710938 6.902344 6.753906 6.683594 6.601562 6.683594 Z M 1.765625 7.753906 C 1.851562 7.753906 1.738281 8.046875 1.554688 8.164062 C 1.652344 8.019531 1.640625 7.753906 1.765625 7.753906 Z M 2.042969 7.707031 C 1.972656 7.761719 2.167969 8 2.390625 8.015625 C 2.246094 7.917969 2.128906 7.644531 2.042969 7.707031 Z M 1.835938 8.085938 C 1.886719 8.078125 1.898438 8.359375 1.75 8.429688 C 1.828125 8.25 1.757812 8.097656 1.835938 8.085938 Z M 2.082031 8.085938 C 2.167969 8.03125 2.210938 8.253906 2.335938 8.324219 C 2.128906 8.273438 2 8.136719 2.082031 8.085938 Z M 1.976562 8.292969 C 2.0625 8.257812 2.109375 8.570312 1.976562 8.660156 C 2.023438 8.457031 1.902344 8.328125 1.976562 8.292969 Z M 12.980469 8.015625 C 13.070312 8.015625 12.910156 8.28125 12.773438 8.351562 C 12.902344 8.15625 12.882812 8.019531 12.980469 8.015625 Z M 13.308594 7.878906 C 13.242188 7.921875 13.429688 8.054688 13.523438 8.054688 C 13.410156 8.019531 13.390625 7.820312 13.308594 7.878906 Z M 13.074219 8.324219 C 13.140625 8.273438 13.171875 8.445312 13.074219 8.566406 C 13.132812 8.441406 12.980469 8.394531 13.074219 8.324219 Z M 13.351562 8.148438 C 13.28125 8.175781 13.417969 8.378906 13.523438 8.390625 C 13.410156 8.320312 13.457031 8.105469 13.351562 8.148438 Z M 13.253906 8.351562 C 13.3125 8.308594 13.433594 8.601562 13.292969 8.75 C 13.359375 8.53125 13.144531 8.4375 13.253906 8.351562 Z M 13.253906 8.351562 "/>
</g>
</svg>
