<?xml version="1.0" encoding="UTF-8"?>
<svg xmlns="http://www.w3.org/2000/svg" xmlns:xlink="http://www.w3.org/1999/xlink" width="15pt" height="15pt" viewBox="0 0 15 15" version="1.1">
<g id="surface1">
<path style=" stroke:none;fill-rule:nonzero;fill:rgb(23.137255%,53.333333%,76.470588%);fill-opacity:1;" d="M 15 13.332031 C 15 14.253906 14.253906 15 13.332031 15 L 1.667969 15 C 0.746094 15 0 14.253906 0 13.332031 L 0 1.667969 C 0 0.746094 0.746094 0 1.667969 0 L 13.332031 0 C 14.253906 0 15 0.746094 15 1.667969 Z M 15 13.332031 "/>
<path style=" stroke:none;fill-rule:nonzero;fill:rgb(100%,100%,100%);fill-opacity:1;" d="M 4.136719 3.761719 C 4.136719 3.234375 4.523438 2.808594 5.105469 2.808594 C 5.660156 2.808594 6.074219 3.167969 6.074219 3.761719 L 6.074219 6.554688 L 9.25 3.167969 C 9.394531 3.015625 9.636719 2.808594 10 2.808594 C 10.492188 2.808594 10.957031 3.183594 10.957031 3.738281 C 10.957031 4.074219 10.75 4.34375 10.324219 4.769531 L 7.882812 7.171875 L 10.867188 10.285156 C 11.175781 10.597656 11.410156 10.882812 11.410156 11.269531 C 11.410156 11.875 10.929688 12.160156 10.402344 12.160156 C 10.027344 12.160156 9.78125 11.941406 9.417969 11.554688 L 6.074219 7.9375 L 6.074219 11.230469 C 6.074219 11.734375 5.683594 12.160156 5.105469 12.160156 C 4.546875 12.160156 4.136719 11.796875 4.136719 11.230469 Z M 4.136719 3.761719 "/>
</g>
</svg>
