<?xml version="1.0" encoding="UTF-8"?>
<svg xmlns="http://www.w3.org/2000/svg" xmlns:xlink="http://www.w3.org/1999/xlink" width="15pt" height="15pt" viewBox="0 0 15 15" version="1.1">
<g id="surface1">
<path style=" stroke:none;fill-rule:nonzero;fill:rgb(23.137255%,53.333333%,76.470588%);fill-opacity:1;" d="M 15 13.332031 C 15 14.253906 14.253906 15 13.332031 15 L 1.667969 15 C 0.746094 15 0 14.253906 0 13.332031 L 0 1.667969 C 0 0.746094 0.746094 0 1.667969 0 L 13.332031 0 C 14.253906 0 15 0.746094 15 1.667969 Z M 15 13.332031 "/>
<path style=" stroke:none;fill-rule:nonzero;fill:rgb(100%,100%,100%);fill-opacity:1;" d="M 3.578125 3.816406 C 3.578125 3.167969 3.992188 2.808594 4.546875 2.808594 C 4.792969 2.808594 5.195312 3 5.363281 3.234375 L 9.457031 8.699219 L 9.484375 8.699219 L 9.484375 3.816406 C 9.484375 3.167969 9.898438 2.808594 10.453125 2.808594 C 11.007812 2.808594 11.421875 3.167969 11.421875 3.816406 L 11.421875 11.152344 C 11.421875 11.800781 11.007812 12.160156 10.453125 12.160156 C 10.207031 12.160156 9.820312 11.964844 9.640625 11.734375 L 5.542969 6.335938 L 5.515625 6.335938 L 5.515625 11.152344 C 5.515625 11.800781 5.105469 12.160156 4.546875 12.160156 C 3.992188 12.160156 3.578125 11.800781 3.578125 11.152344 Z M 3.578125 3.816406 "/>
</g>
</svg>
