<?xml version="1.0" encoding="UTF-8"?>
<svg xmlns="http://www.w3.org/2000/svg" xmlns:xlink="http://www.w3.org/1999/xlink" width="15pt" height="15pt" viewBox="0 0 15 15" version="1.1">
<g id="surface1">
<path style=" stroke:none;fill-rule:nonzero;fill:rgb(0%,14.117647%,49.019608%);fill-opacity:1;" d="M 13.332031 2.082031 L 1.667969 2.082031 C 1.582031 2.082031 1.496094 2.089844 1.414062 2.101562 L 1.414062 2.832031 L 0.277344 2.832031 C 0.101562 3.09375 0 3.410156 0 3.75 L 0 11.25 C 0 12.171875 0.746094 12.917969 1.667969 12.917969 L 13.332031 12.917969 C 14.253906 12.917969 15 12.171875 15 11.25 L 15 3.75 C 15 2.828125 14.253906 2.082031 13.332031 2.082031 Z M 13.332031 2.082031 "/>
<path style=" stroke:none;fill-rule:nonzero;fill:rgb(93.333333%,93.333333%,93.333333%);fill-opacity:1;" d="M 11.445312 9.796875 C 9.527344 9.046875 9.601562 7.308594 9.679688 5.46875 L 9.683594 5.363281 L 9.769531 5.304688 C 9.929688 5.195312 10.6875 4.988281 11.523438 4.988281 C 12.355469 4.988281 13.117188 5.195312 13.273438 5.304688 L 13.359375 5.363281 L 13.363281 5.46875 C 13.441406 7.308594 13.515625 9.046875 11.597656 9.796875 L 11.523438 9.828125 Z M 11.445312 9.796875 "/>
<path style=" stroke:none;fill-rule:nonzero;fill:rgb(100%,100%,0%);fill-opacity:1;" d="M 13.15625 5.476562 C 13.039062 5.398438 12.328125 5.195312 11.519531 5.195312 C 10.714844 5.195312 10 5.398438 9.886719 5.476562 C 9.808594 7.34375 9.769531 8.917969 11.519531 9.601562 C 13.273438 8.917969 13.234375 7.34375 13.15625 5.476562 Z M 13.15625 5.476562 "/>
<path style=" stroke:none;fill-rule:nonzero;fill:rgb(56.078431%,77.254902%,100%);fill-opacity:1;" d="M 9.863281 6.667969 C 9.882812 7.996094 10.160156 9.070312 11.519531 9.601562 C 12.882812 9.070312 13.160156 7.996094 13.179688 6.667969 Z M 9.863281 6.667969 "/>
<path style=" stroke:none;fill-rule:nonzero;fill:rgb(21.176471%,42.352941%,78.823529%);fill-opacity:1;" d="M 11.519531 9.601562 C 12.238281 9.324219 12.65625 8.890625 12.890625 8.351562 L 10.152344 8.351562 C 10.386719 8.890625 10.804688 9.324219 11.519531 9.601562 Z M 11.519531 9.601562 "/>
<path style=" stroke:none;fill-rule:nonzero;fill:rgb(0%,84.705882%,37.647059%);fill-opacity:1;" d="M 11.503906 8.664062 C 11.464844 8.664062 11.433594 8.695312 11.433594 8.738281 C 11.433594 8.777344 11.464844 8.8125 11.503906 8.8125 L 12.621094 8.8125 C 12.65625 8.761719 12.691406 8.714844 12.722656 8.664062 Z M 11.371094 9.042969 C 11.371094 9.082031 11.40625 9.113281 11.445312 9.113281 L 12.339844 9.113281 C 12.390625 9.066406 12.441406 9.019531 12.488281 8.96875 L 11.445312 8.96875 C 11.40625 8.96875 11.371094 9 11.371094 9.042969 Z M 11.179688 9.34375 C 11.179688 9.386719 11.214844 9.417969 11.253906 9.417969 L 11.90625 9.417969 C 11.988281 9.371094 12.066406 9.324219 12.140625 9.273438 L 11.253906 9.273438 C 11.214844 9.273438 11.179688 9.304688 11.179688 9.34375 Z M 11.179688 9.34375 "/>
<path style=" stroke:none;fill-rule:nonzero;fill:rgb(36.470588%,19.215686%,0%);fill-opacity:1;" d="M 10.234375 7.453125 C 10.304688 7.265625 10.460938 7 10.519531 6.992188 C 10.582031 6.984375 11.25 8.289062 11.195312 8.351562 C 11.144531 8.410156 10.398438 8.449219 10.25 8.425781 C 10.105469 8.398438 10.234375 7.453125 10.234375 7.453125 Z M 10.234375 7.453125 "/>
<path style=" stroke:none;fill-rule:nonzero;fill:rgb(81.176471%,38.431373%,0%);fill-opacity:1;" d="M 11.015625 8.566406 C 10.964844 8.402344 10.140625 6.867188 10.085938 6.867188 C 10.050781 6.867188 9.953125 7.007812 9.882812 7.132812 C 9.929688 7.765625 10.066406 8.328125 10.394531 8.777344 C 10.671875 8.753906 11.050781 8.683594 11.015625 8.566406 Z M 11.015625 8.566406 "/>
<path style=" stroke:none;fill-rule:nonzero;fill:rgb(100%,100%,0%);fill-opacity:1;" d="M 11.292969 6.78125 L 11.347656 6.78125 L 11.347656 8.359375 L 11.292969 8.359375 Z M 11.847656 6.734375 L 11.902344 6.734375 L 11.902344 8.359375 L 11.847656 8.359375 Z M 12.359375 6.78125 L 12.414062 6.78125 L 12.414062 8.359375 L 12.359375 8.359375 Z M 12.359375 6.78125 "/>
<path style=" stroke:none;fill-rule:nonzero;fill:rgb(0%,0%,0%);fill-opacity:1;" d="M 10.546875 7.957031 C 10.628906 7.980469 10.980469 8.175781 11.195312 8.238281 C 11.457031 8.316406 11.839844 8.308594 11.945312 8.308594 C 12.046875 8.308594 12.246094 8.003906 12.335938 8.003906 L 12.855469 8.003906 C 12.933594 8.003906 12.90625 8.523438 12.707031 8.523438 L 11.300781 8.523438 C 11.171875 8.523438 10.730469 8.117188 10.644531 8.074219 C 10.554688 8.03125 10.472656 7.9375 10.546875 7.957031 Z M 10.546875 7.957031 "/>
<path style=" stroke:none;fill-rule:nonzero;fill:rgb(93.333333%,93.333333%,93.333333%);fill-opacity:1;" d="M 11.519531 6.949219 C 11.519531 6.996094 11.484375 7.03125 11.4375 7.03125 L 11.152344 7.03125 C 11.105469 7.03125 11.066406 6.996094 11.066406 6.949219 C 11.066406 6.902344 11.105469 6.867188 11.152344 6.867188 L 11.4375 6.867188 C 11.484375 6.867188 11.519531 6.902344 11.519531 6.949219 Z M 12.074219 6.867188 C 12.074219 6.910156 12.035156 6.949219 11.992188 6.949219 L 11.703125 6.949219 C 11.65625 6.949219 11.621094 6.910156 11.621094 6.867188 C 11.621094 6.820312 11.65625 6.785156 11.703125 6.785156 L 11.992188 6.785156 C 12.035156 6.785156 12.074219 6.820312 12.074219 6.867188 Z M 12.640625 7.03125 C 12.640625 7.078125 12.601562 7.113281 12.558594 7.113281 L 12.269531 7.113281 C 12.222656 7.113281 12.1875 7.078125 12.1875 7.03125 C 12.1875 6.984375 12.222656 6.949219 12.269531 6.949219 L 12.558594 6.949219 C 12.601562 6.949219 12.640625 6.984375 12.640625 7.03125 Z M 12.640625 7.488281 C 12.640625 7.53125 12.601562 7.570312 12.558594 7.570312 L 12.269531 7.570312 C 12.222656 7.570312 12.1875 7.53125 12.1875 7.488281 C 12.1875 7.441406 12.222656 7.40625 12.269531 7.40625 L 12.558594 7.40625 C 12.601562 7.40625 12.640625 7.441406 12.640625 7.488281 Z M 12.640625 7.789062 C 12.640625 7.835938 12.601562 7.871094 12.558594 7.871094 L 12.269531 7.871094 C 12.222656 7.871094 12.1875 7.835938 12.1875 7.789062 C 12.1875 7.742188 12.222656 7.707031 12.269531 7.707031 L 12.558594 7.707031 C 12.601562 7.707031 12.640625 7.742188 12.640625 7.789062 Z M 12.074219 7.171875 C 12.074219 7.214844 12.035156 7.253906 11.992188 7.253906 L 11.703125 7.253906 C 11.65625 7.253906 11.621094 7.214844 11.621094 7.171875 C 11.621094 7.125 11.65625 7.085938 11.703125 7.085938 L 11.992188 7.085938 C 12.035156 7.085938 12.074219 7.125 12.074219 7.171875 Z M 12.074219 7.488281 C 12.074219 7.53125 12.035156 7.570312 11.992188 7.570312 L 11.703125 7.570312 C 11.65625 7.570312 11.621094 7.53125 11.621094 7.488281 C 11.621094 7.441406 11.65625 7.40625 11.703125 7.40625 L 11.992188 7.40625 C 12.035156 7.40625 12.074219 7.441406 12.074219 7.488281 Z M 12.074219 7.789062 C 12.074219 7.835938 12.035156 7.871094 11.992188 7.871094 L 11.703125 7.871094 C 11.65625 7.871094 11.621094 7.835938 11.621094 7.789062 C 11.621094 7.742188 11.65625 7.707031 11.703125 7.707031 L 11.992188 7.707031 C 12.035156 7.707031 12.074219 7.742188 12.074219 7.789062 Z M 11.519531 7.253906 C 11.519531 7.296875 11.484375 7.335938 11.4375 7.335938 L 11.152344 7.335938 C 11.105469 7.335938 11.066406 7.296875 11.066406 7.253906 C 11.066406 7.207031 11.105469 7.171875 11.152344 7.171875 L 11.4375 7.171875 C 11.484375 7.171875 11.519531 7.207031 11.519531 7.253906 Z M 11.519531 7.570312 C 11.519531 7.613281 11.484375 7.652344 11.4375 7.652344 L 11.152344 7.652344 C 11.105469 7.652344 11.066406 7.613281 11.066406 7.570312 C 11.066406 7.523438 11.105469 7.488281 11.152344 7.488281 L 11.4375 7.488281 C 11.484375 7.488281 11.519531 7.523438 11.519531 7.570312 Z M 11.519531 7.871094 C 11.519531 7.917969 11.484375 7.953125 11.4375 7.953125 L 11.152344 7.953125 C 11.105469 7.953125 11.066406 7.917969 11.066406 7.871094 C 11.066406 7.828125 11.105469 7.789062 11.152344 7.789062 L 11.4375 7.789062 C 11.484375 7.789062 11.519531 7.828125 11.519531 7.871094 Z M 11.519531 7.871094 "/>
<path style=" stroke:none;fill-rule:nonzero;fill:rgb(67.45098%,37.254902%,10.196078%);fill-opacity:1;" d="M 10.777344 5.515625 C 10.789062 5.449219 10.964844 5.503906 11.03125 5.441406 C 11.101562 5.382812 11.289062 5.234375 11.441406 5.425781 C 11.527344 5.53125 11.507812 5.605469 11.601562 5.691406 C 11.699219 5.777344 12.203125 6 12.371094 5.945312 C 12.359375 6.050781 12.214844 6.101562 12.214844 6.101562 C 12.214844 6.101562 12.351562 6.207031 12.371094 6.328125 C 12.386719 6.449219 12.160156 6.140625 11.839844 6.222656 C 11.710938 6.257812 11.570312 6.390625 11.308594 6.328125 C 11.046875 6.265625 11.039062 5.871094 11.035156 5.707031 C 11.03125 5.648438 10.773438 5.5625 10.777344 5.515625 Z M 10.777344 5.515625 "/>
<path style=" stroke:none;fill-rule:nonzero;fill:rgb(93.333333%,93.333333%,93.333333%);fill-opacity:1;" d="M 10.910156 5.480469 C 10.921875 5.425781 11.058594 5.484375 11.121094 5.4375 C 11.179688 5.394531 11.34375 5.285156 11.457031 5.453125 C 11.519531 5.542969 11.496094 5.601562 11.566406 5.679688 C 11.640625 5.757812 12.035156 5.96875 12.175781 5.9375 C 12.160156 6.023438 12.035156 6.054688 12.035156 6.054688 C 12.035156 6.054688 12.144531 6.148438 12.148438 6.25 C 12.15625 6.347656 11.992188 6.082031 11.726562 6.128906 C 11.617188 6.148438 11.492188 6.246094 11.285156 6.175781 C 11.078125 6.109375 11.097656 5.789062 11.105469 5.652344 C 11.105469 5.605469 10.898438 5.519531 10.910156 5.480469 Z M 10.910156 5.480469 "/>
<path style=" stroke:none;fill-rule:nonzero;fill:rgb(0%,0%,0%);fill-opacity:1;" d="M 11.40625 6.523438 C 11.40625 6.542969 11.390625 6.554688 11.375 6.554688 C 11.359375 6.554688 11.34375 6.542969 11.34375 6.523438 L 11.34375 6.328125 C 11.34375 6.3125 11.359375 6.296875 11.375 6.296875 C 11.390625 6.296875 11.40625 6.3125 11.40625 6.328125 Z M 11.636719 6.523438 C 11.636719 6.542969 11.625 6.554688 11.605469 6.554688 C 11.589844 6.554688 11.574219 6.542969 11.574219 6.523438 L 11.574219 6.328125 C 11.574219 6.3125 11.589844 6.296875 11.605469 6.296875 C 11.625 6.296875 11.636719 6.3125 11.636719 6.328125 Z M 11.363281 5.527344 C 11.363281 5.558594 11.335938 5.585938 11.304688 5.585938 C 11.269531 5.585938 11.246094 5.558594 11.246094 5.527344 C 11.246094 5.496094 11.269531 5.46875 11.304688 5.46875 C 11.335938 5.46875 11.363281 5.496094 11.363281 5.527344 Z M 11.363281 5.527344 "/>
<path style=" stroke:none;fill-rule:nonzero;fill:rgb(0%,14.117647%,49.019608%);fill-opacity:1;" d="M 7.917969 7.5 L 7.917969 2.082031 L 1.667969 2.082031 C 1.535156 2.082031 1.414062 2.101562 1.414062 2.101562 L 1.414062 2.832031 L 0.277344 2.832031 C 0.277344 2.832031 0.257812 2.855469 0.222656 2.917969 C 0.0820312 3.160156 0 3.445312 0 3.75 L 0 7.5 Z M 7.917969 7.5 "/>
<path style=" stroke:none;fill-rule:nonzero;fill:rgb(93.333333%,93.333333%,93.333333%);fill-opacity:1;" d="M 7.917969 2.082031 L 6.945312 2.082031 L 5 3.445312 L 5 2.082031 L 2.917969 2.082031 L 2.917969 3.152344 L 1.414062 2.101562 C 1.160156 2.140625 0.917969 2.238281 0.71875 2.378906 L 2.675781 3.75 L 1.953125 3.75 L 0.402344 2.664062 C 0.355469 2.714844 0.316406 2.773438 0.277344 2.832031 L 1.589844 3.75 L 0 3.75 L 0 5.832031 L 1.617188 5.832031 L 0 6.984375 L 0 7.5 L 1.386719 7.5 L 2.917969 6.429688 L 2.917969 7.5 L 5 7.5 L 5 6.136719 L 6.945312 7.5 L 7.917969 7.5 L 7.917969 6.65625 L 6.742188 5.832031 L 7.917969 5.832031 L 7.917969 3.75 L 6.746094 3.75 L 7.917969 2.929688 Z M 7.917969 2.082031 "/>
<path style=" stroke:none;fill-rule:nonzero;fill:rgb(81.176471%,10.588235%,16.862745%);fill-opacity:1;" d="M 4.582031 2.082031 L 3.332031 2.082031 L 3.332031 4.167969 L 0 4.167969 L 0 5.417969 L 3.332031 5.417969 L 3.332031 7.5 L 4.582031 7.5 L 4.582031 5.417969 L 7.917969 5.417969 L 7.917969 4.167969 L 4.582031 4.167969 Z M 4.582031 2.082031 "/>
<path style=" stroke:none;fill-rule:nonzero;fill:rgb(81.176471%,10.588235%,16.862745%);fill-opacity:1;" d="M 7.917969 2.082031 L 7.308594 2.082031 L 5 3.699219 L 5 3.75 L 5.65625 3.75 L 7.917969 2.164062 Z M 0.71875 2.378906 C 0.601562 2.460938 0.496094 2.554688 0.402344 2.664062 L 1.953125 3.75 L 2.675781 3.75 Z M 2.683594 5.832031 L 0.304688 7.5 L 1.027344 7.5 L 2.917969 6.175781 L 2.917969 5.832031 Z M 7.917969 7.417969 L 7.917969 6.910156 L 6.378906 5.832031 L 5.652344 5.832031 Z M 7.917969 7.417969 "/>
</g>
</svg>
