<?xml version="1.0" encoding="UTF-8"?>
<svg xmlns="http://www.w3.org/2000/svg" xmlns:xlink="http://www.w3.org/1999/xlink" width="15pt" height="15pt" viewBox="0 0 15 15" version="1.1">
<g id="surface1">
<path style=" stroke:none;fill-rule:nonzero;fill:rgb(0%,40%,0%);fill-opacity:1;" d="M 15 11.25 C 15 12.171875 14.253906 12.917969 13.332031 12.917969 L 1.667969 12.917969 C 0.746094 12.917969 0 12.171875 0 11.25 L 0 3.75 C 0 2.828125 0.746094 2.082031 1.667969 2.082031 L 13.332031 2.082031 C 14.253906 2.082031 15 2.828125 15 3.75 Z M 15 11.25 "/>
<path style=" stroke:none;fill-rule:nonzero;fill:rgb(73.333333%,8.627451%,0%);fill-opacity:1;" d="M 0 5.417969 L 15 5.417969 L 15 9.582031 L 0 9.582031 Z M 0 5.417969 "/>
<path style=" stroke:none;fill-rule:nonzero;fill:rgb(7.843137%,7.843137%,7.843137%);fill-opacity:1;" d="M 13.332031 2.082031 L 1.667969 2.082031 C 0.746094 2.082031 0 2.828125 0 3.75 L 0 5.417969 L 15 5.417969 L 15 3.75 C 15 2.828125 14.253906 2.082031 13.332031 2.082031 Z M 13.332031 2.082031 "/>
<path style=" stroke:none;fill-rule:nonzero;fill:rgb(93.333333%,93.333333%,93.333333%);fill-opacity:1;" d="M 0 5.417969 L 15 5.417969 L 15 5.832031 L 0 5.832031 Z M 0 9.167969 L 15 9.167969 L 15 9.582031 L 0 9.582031 Z M 0 9.167969 "/>
<path style=" stroke:none;fill-rule:nonzero;fill:rgb(7.843137%,7.843137%,7.843137%);fill-opacity:1;" d="M 9.605469 3.917969 C 9.578125 3.902344 9.527344 3.957031 9.273438 4.238281 C 9.183594 4.335938 9.074219 4.460938 8.949219 4.59375 C 8.695312 4.867188 8.429688 5.203125 8.621094 5.402344 L 5.59375 10.488281 C 5.589844 10.496094 5.585938 10.507812 5.597656 10.527344 C 5.613281 10.558594 5.679688 10.597656 5.71875 10.597656 C 5.738281 10.597656 5.746094 10.589844 5.753906 10.582031 L 8.78125 5.492188 C 9.042969 5.554688 9.207031 5.167969 9.324219 4.820312 C 9.382812 4.644531 9.4375 4.488281 9.484375 4.363281 C 9.609375 4.003906 9.632812 3.933594 9.605469 3.917969 Z M 9.605469 3.917969 "/>
<path style=" stroke:none;fill-rule:nonzero;fill:rgb(100%,100%,100%);fill-opacity:1;" d="M 9.292969 4.253906 C 9.203125 4.351562 9.089844 4.476562 8.964844 4.613281 C 8.597656 5.007812 8.496094 5.25 8.644531 5.390625 L 8.652344 5.398438 L 5.617188 10.503906 C 5.613281 10.503906 5.617188 10.511719 5.617188 10.511719 C 5.632812 10.539062 5.6875 10.574219 5.71875 10.574219 C 5.722656 10.574219 5.730469 10.574219 5.730469 10.570312 L 8.765625 5.472656 L 8.769531 5.464844 L 8.777344 5.464844 C 8.96875 5.519531 9.128906 5.316406 9.300781 4.8125 C 9.359375 4.636719 9.414062 4.480469 9.460938 4.351562 C 9.53125 4.15625 9.589844 3.980469 9.589844 3.941406 C 9.554688 3.960938 9.433594 4.097656 9.292969 4.253906 Z M 9.292969 4.253906 "/>
<path style=" stroke:none;fill-rule:nonzero;fill:rgb(7.843137%,7.843137%,7.843137%);fill-opacity:1;" d="M 6.378906 5.402344 C 6.570312 5.203125 6.304688 4.867188 6.050781 4.59375 C 5.925781 4.460938 5.816406 4.335938 5.726562 4.238281 C 5.472656 3.957031 5.421875 3.902344 5.394531 3.917969 C 5.367188 3.933594 5.390625 4.003906 5.515625 4.359375 C 5.5625 4.488281 5.617188 4.644531 5.675781 4.820312 C 5.792969 5.167969 5.957031 5.554688 6.21875 5.492188 L 9.246094 10.582031 C 9.25 10.589844 9.261719 10.597656 9.28125 10.597656 C 9.320312 10.597656 9.382812 10.558594 9.402344 10.523438 C 9.414062 10.507812 9.410156 10.496094 9.40625 10.488281 Z M 6.378906 5.402344 "/>
<path style=" stroke:none;fill-rule:nonzero;fill:rgb(100%,100%,100%);fill-opacity:1;" d="M 6.355469 5.390625 C 6.503906 5.25 6.402344 5.007812 6.035156 4.613281 C 5.910156 4.476562 5.796875 4.351562 5.707031 4.253906 C 5.566406 4.097656 5.441406 3.960938 5.410156 3.941406 C 5.410156 3.984375 5.46875 4.15625 5.539062 4.351562 C 5.585938 4.480469 5.640625 4.636719 5.699219 4.8125 C 5.867188 5.320312 6.03125 5.519531 6.222656 5.464844 L 6.230469 5.464844 L 6.234375 5.472656 L 9.269531 10.570312 C 9.269531 10.574219 9.277344 10.574219 9.28125 10.574219 C 9.3125 10.574219 9.367188 10.539062 9.382812 10.515625 C 9.382812 10.511719 9.386719 10.503906 9.382812 10.503906 L 6.347656 5.398438 Z M 6.355469 5.390625 "/>
<path style=" stroke:none;fill-rule:nonzero;fill:rgb(7.843137%,7.843137%,7.843137%);fill-opacity:1;" d="M 7.507812 4.359375 L 7.5 4.351562 L 7.492188 4.359375 C 6.453125 5.136719 5.949219 6.160156 5.949219 7.492188 C 5.949219 8.820312 6.453125 9.847656 7.492188 10.628906 L 7.5 10.632812 L 7.507812 10.628906 C 8.546875 9.847656 9.050781 8.824219 9.050781 7.492188 C 9.050781 6.160156 8.546875 5.136719 7.507812 4.359375 Z M 7.507812 4.359375 "/>
<path style=" stroke:none;fill-rule:nonzero;fill:rgb(73.333333%,8.627451%,0%);fill-opacity:1;" d="M 8.699219 5.859375 C 8.449219 5.289062 8.054688 4.800781 7.5 4.382812 C 6.945312 4.800781 6.550781 5.289062 6.300781 5.855469 C 6.519531 6.347656 6.625 6.882812 6.625 7.496094 C 6.625 8.105469 6.519531 8.640625 6.300781 9.132812 C 6.554688 9.695312 6.949219 10.1875 7.5 10.601562 C 8.050781 10.183594 8.445312 9.695312 8.699219 9.128906 C 8.480469 8.636719 8.375 8.105469 8.375 7.496094 C 8.375 6.886719 8.480469 6.351562 8.699219 5.859375 Z M 8.699219 5.859375 "/>
<path style=" stroke:none;fill-rule:nonzero;fill:rgb(100%,100%,100%);fill-opacity:1;" d="M 7.5 7.886719 C 7.628906 7.886719 7.730469 7.710938 7.730469 7.492188 C 7.730469 7.273438 7.628906 7.097656 7.5 7.097656 C 7.371094 7.097656 7.269531 7.273438 7.269531 7.492188 C 7.269531 7.710938 7.371094 7.886719 7.5 7.886719 Z M 7.402344 6.847656 C 7.195312 6.539062 7.09375 6.148438 7.09375 5.671875 C 7.09375 5.191406 7.195312 4.800781 7.402344 4.496094 Z M 7.597656 6.847656 C 7.804688 6.539062 7.90625 6.148438 7.90625 5.671875 C 7.90625 5.191406 7.804688 4.800781 7.597656 4.496094 Z M 7.402344 8.136719 C 7.195312 8.445312 7.09375 8.835938 7.09375 9.3125 C 7.09375 9.789062 7.195312 10.179688 7.402344 10.488281 Z M 7.597656 8.136719 C 7.804688 8.445312 7.90625 8.835938 7.90625 9.3125 C 7.90625 9.789062 7.804688 10.179688 7.597656 10.488281 Z M 7.597656 8.136719 "/>
</g>
</svg>
