<?xml version="1.0" encoding="UTF-8"?>
<svg xmlns="http://www.w3.org/2000/svg" xmlns:xlink="http://www.w3.org/1999/xlink" width="15pt" height="15pt" viewBox="0 0 15 15" version="1.1">
<g id="surface1">
<path style=" stroke:none;fill-rule:nonzero;fill:rgb(82.352941%,6.27451%,20.392157%);fill-opacity:1;" d="M 13.332031 2.082031 L 1.667969 2.082031 C 0.746094 2.082031 0 2.828125 0 3.75 L 0 7.5 L 15 7.5 L 15 3.75 C 15 2.828125 14.253906 2.082031 13.332031 2.082031 Z M 13.332031 2.082031 "/>
<path style=" stroke:none;fill-rule:nonzero;fill:rgb(0%,58.431373%,26.27451%);fill-opacity:1;" d="M 1.667969 12.917969 L 13.332031 12.917969 C 14.253906 12.917969 15 12.171875 15 11.25 L 15 7.5 L 0 7.5 L 0 11.25 C 0 12.171875 0.746094 12.917969 1.667969 12.917969 Z M 1.667969 12.917969 "/>
<path style=" stroke:none;fill-rule:nonzero;fill:rgb(7.843137%,7.843137%,7.843137%);fill-opacity:1;" d="M 7.082031 6.25 L 0.722656 2.378906 C 0.523438 2.511719 0.359375 2.691406 0.234375 2.898438 C 0.0859375 3.148438 0 3.4375 0 3.75 L 0 11.25 C 0 11.5625 0.0859375 11.851562 0.234375 12.101562 C 0.359375 12.3125 0.53125 12.492188 0.734375 12.628906 L 7.082031 8.75 L 15 8.75 L 15 6.25 Z M 7.082031 6.25 "/>
<path style=" stroke:none;fill-rule:nonzero;fill:rgb(99.215686%,80.784314%,7.058824%);fill-opacity:1;" d="M 0.234375 2.898438 C 0.0859375 3.148438 0 3.4375 0 3.75 L 6.25 7.5 L 0 11.25 C 0 11.5625 0.0859375 11.851562 0.234375 12.101562 L 7.082031 7.917969 L 15 7.917969 L 15 7.082031 L 7.082031 7.082031 Z M 0.234375 2.898438 "/>
<path style=" stroke:none;fill-rule:nonzero;fill:rgb(99.215686%,80.784314%,7.058824%);fill-opacity:1;" d="M 1.824219 9.003906 C 1.824219 9.003906 3.175781 8.792969 3.175781 7.457031 C 3.175781 6.632812 2.464844 6.179688 1.910156 6.179688 C 1.355469 6.179688 0.765625 6.597656 0.765625 7.328125 C 0.765625 8.054688 1.441406 8.28125 1.769531 8.28125 C 2.101562 8.28125 2.605469 8.019531 2.535156 7.449219 C 2.339844 8.246094 1.527344 8.222656 1.214844 7.742188 C 0.867188 7.214844 1.40625 6.457031 2.101562 6.667969 C 2.757812 6.863281 2.792969 7.535156 2.570312 7.953125 C 2.292969 8.472656 1.832031 8.445312 1.832031 8.445312 Z M 1.824219 9.003906 "/>
<path style=" stroke:none;fill-rule:nonzero;fill:rgb(99.215686%,80.784314%,7.058824%);fill-opacity:1;" d="M 2.238281 7.507812 C 2.164062 7.40625 2.070312 7.316406 1.976562 7.238281 C 2.179688 7.027344 2.355469 6.964844 2.300781 6.9375 C 2.261719 6.914062 2.070312 7 1.867188 7.152344 C 1.660156 7 1.46875 6.914062 1.433594 6.9375 C 1.378906 6.96875 1.554688 7.027344 1.757812 7.238281 C 1.664062 7.316406 1.570312 7.40625 1.492188 7.507812 C 1.410156 7.617188 1.421875 7.804688 1.421875 7.804688 C 1.421875 7.804688 1.535156 7.757812 1.632812 7.664062 C 1.710938 7.589844 1.777344 7.480469 1.867188 7.363281 C 1.957031 7.480469 2.023438 7.589844 2.101562 7.664062 C 2.199219 7.757812 2.308594 7.804688 2.308594 7.804688 C 2.308594 7.804688 2.324219 7.617188 2.238281 7.507812 Z M 2.238281 7.507812 "/>
</g>
</svg>
