<?xml version="1.0" encoding="UTF-8"?>
<svg xmlns="http://www.w3.org/2000/svg" xmlns:xlink="http://www.w3.org/1999/xlink" width="15pt" height="15pt" viewBox="0 0 15 15" version="1.1">
<g id="surface1">
<path style=" stroke:none;fill-rule:nonzero;fill:rgb(93.333333%,93.333333%,93.333333%);fill-opacity:1;" d="M 15 11.25 C 15 12.171875 14.253906 12.917969 13.332031 12.917969 L 1.667969 12.917969 C 0.746094 12.917969 0 12.171875 0 11.25 L 0 3.75 C 0 2.828125 0.746094 2.082031 1.667969 2.082031 L 13.332031 2.082031 C 14.253906 2.082031 15 2.828125 15 3.75 Z M 15 11.25 "/>
<path style=" stroke:none;fill-rule:nonzero;fill:rgb(21.568627%,58.431373%,26.27451%);fill-opacity:1;" d="M 5.417969 10.339844 C 5.417969 10.339844 5.339844 10.390625 5.261719 10.375 C 5.183594 10.355469 5.070312 10.378906 5.070312 10.378906 L 4.398438 9.21875 C 4.398438 9.21875 4.035156 9.558594 3.707031 9.261719 C 3.878906 9.316406 4.089844 8.96875 4.339844 9.113281 C 4.105469 8.898438 3.65625 9.28125 3.429688 8.75 C 3.742188 8.941406 3.921875 8.636719 4.210938 8.828125 C 3.933594 8.515625 3.523438 8.855469 3.359375 8.433594 C 3.609375 8.523438 3.820312 8.25 4.046875 8.433594 C 3.855469 8.046875 3.273438 8.585938 3.160156 7.933594 C 3.410156 8.066406 3.6875 7.898438 3.84375 8.03125 C 3.550781 7.464844 3.28125 8.117188 3.03125 7.292969 C 3.203125 7.535156 3.445312 7.300781 3.699219 7.683594 C 3.515625 6.988281 3.019531 7.570312 2.863281 6.753906 C 3.175781 6.648438 3.308594 7.109375 3.558594 7.207031 C 3.402344 6.667969 3.074219 6.824219 3.273438 6.1875 C 3.722656 6.414062 3.523438 6.796875 3.671875 7.238281 C 3.785156 7.082031 3.636719 6.882812 3.714844 6.746094 C 3.792969 6.605469 3.835938 6.535156 3.8125 6.46875 C 4.21875 6.9375 3.722656 7.335938 3.765625 7.5 C 3.8125 7.664062 3.878906 7.726562 3.878906 7.726562 C 3.878906 7.726562 3.835938 7.472656 3.921875 7.328125 C 4.011719 7.179688 4.148438 7.128906 4.140625 6.996094 C 4.234375 7.109375 4.203125 7.371094 4.089844 7.5 C 3.976562 7.628906 3.957031 7.953125 4.027344 8.0625 C 4 7.710938 4.316406 7.734375 4.261719 7.378906 C 4.4375 7.414062 4.496094 7.8125 4.304688 7.960938 C 4.113281 8.109375 4.261719 8.515625 4.261719 8.515625 C 4.261719 8.515625 4.269531 8.253906 4.375 8.132812 C 4.480469 8.011719 4.539062 7.882812 4.515625 7.761719 C 4.652344 7.875 4.671875 8.195312 4.574219 8.351562 C 4.480469 8.507812 4.332031 8.59375 4.480469 8.847656 C 4.460938 8.386719 4.773438 8.472656 4.765625 8.175781 C 4.949219 8.316406 4.84375 8.613281 4.742188 8.707031 C 4.636719 8.800781 4.652344 9.019531 4.652344 9.019531 C 4.652344 9.019531 4.765625 8.863281 4.851562 8.800781 C 4.941406 8.742188 5 8.566406 5 8.566406 C 5 8.566406 5.109375 9.109375 4.765625 9.132812 C 4.757812 9.382812 5.242188 10.128906 5.417969 10.339844 Z M 5.417969 10.339844 "/>
<path style=" stroke:none;fill-rule:nonzero;fill:rgb(0%,50.588235%,78.039216%);fill-opacity:1;" d="M 11.394531 7.96875 L 11.574219 8.058594 L 10.59375 9.222656 L 11.507812 7.484375 L 11.644531 7.671875 L 11.902344 6.519531 L 11.148438 7.375 L 11.34375 7.417969 L 10.660156 8.707031 L 10.875 7.796875 L 11.050781 7.953125 L 11.050781 6.769531 L 10.503906 7.769531 L 10.703125 7.769531 L 10.316406 9.347656 L 10.113281 9.730469 L 9.882812 9.820312 L 9.785156 9.984375 L 9.722656 9.992188 L 8.957031 10.808594 L 9.339844 10.8125 L 9.417969 11.1875 L 9.746094 10.800781 L 9.625 11.179688 L 9.972656 11.015625 L 10.207031 11.320312 L 10.476562 10.242188 L 10.355469 10.011719 L 10.351562 10 L 10.417969 9.710938 L 11.71875 8.15625 L 11.808594 8.371094 L 12.324219 7.3125 Z M 1.519531 6.277344 L 0.71875 6.277344 C 0.71875 6.277344 0.894531 6.308594 0.972656 6.492188 C 1.050781 6.675781 1.539062 8.109375 1.578125 8.28125 C 1.640625 8.542969 1.449219 8.59375 1.449219 8.59375 L 2.238281 8.59375 C 2.238281 8.59375 2.015625 8.554688 2.082031 8.28125 C 2.152344 8.011719 2.613281 6.667969 2.664062 6.5 C 2.71875 6.335938 2.863281 6.277344 2.863281 6.277344 L 2.074219 6.277344 C 2.074219 6.277344 2.34375 6.335938 2.265625 6.554688 C 2.1875 6.769531 1.839844 7.933594 1.839844 7.933594 C 1.839844 7.933594 1.449219 6.769531 1.378906 6.554688 C 1.3125 6.335938 1.519531 6.277344 1.519531 6.277344 Z M 14.101562 6.277344 L 13.371094 6.277344 C 13.371094 6.277344 13.515625 6.375 13.515625 6.5625 C 13.515625 6.753906 13.507812 8.203125 13.507812 8.339844 C 13.507812 8.523438 13.34375 8.59375 13.34375 8.59375 L 14.132812 8.59375 C 14.132812 8.59375 13.921875 8.484375 13.921875 8.328125 L 13.921875 6.519531 C 13.917969 6.355469 14.101562 6.277344 14.101562 6.277344 Z M 14.101562 6.277344 "/>
<path style=" stroke:none;fill-rule:nonzero;fill:rgb(95.686275%,77.647059%,23.921569%);fill-opacity:1;" d="M 13.75 3.53125 C 13.546875 3.558594 12.886719 3.914062 11.679688 4.148438 C 11.609375 4.097656 11.480469 4.125 11.269531 4.21875 C 11.0625 4.3125 10.0625 4.59375 9.785156 4.695312 C 9.507812 4.800781 9.363281 5.015625 9.394531 5.199219 C 9.457031 5.53125 9.699219 5.582031 9.613281 5.675781 C 9.527344 5.773438 9.265625 5.546875 9.09375 5.652344 C 9.003906 5.703125 8.503906 5.582031 8.488281 5.53125 C 8.445312 5.339844 8.253906 5.171875 8.253906 5.171875 C 8.253906 5.171875 8.402344 5.148438 8.4375 5.085938 C 8.195312 4.949219 8.039062 4.679688 8.039062 4.679688 C 8.039062 4.679688 8.195312 4.75 8.246094 4.679688 C 8.046875 4.496094 8.066406 4.078125 7.96875 3.898438 C 7.875 3.714844 7.761719 3.578125 7.527344 3.566406 C 7.296875 3.558594 7.207031 3.578125 7.066406 3.757812 C 6.960938 3.75 6.941406 3.871094 6.941406 3.871094 C 6.941406 3.871094 6.847656 3.878906 6.703125 3.90625 C 6.554688 3.933594 6.460938 4.113281 6.519531 4.28125 C 6.554688 4.183594 6.746094 4.167969 6.902344 4.148438 C 7.058594 4.132812 7.171875 4.324219 7.109375 4.382812 C 7.050781 4.445312 7.03125 4.523438 6.996094 4.671875 C 6.960938 4.816406 6.707031 4.886719 6.707031 4.886719 C 6.707031 4.886719 6.78125 4.964844 6.894531 4.957031 C 6.832031 5.050781 6.648438 5.183594 6.519531 5.199219 C 6.597656 5.296875 6.71875 5.277344 6.71875 5.277344 C 6.71875 5.277344 6.648438 5.46875 6.519531 5.582031 C 6.519531 5.582031 6.035156 5.707031 5.945312 5.652344 C 5.773438 5.546875 5.511719 5.773438 5.425781 5.675781 C 5.339844 5.582031 5.582031 5.53125 5.644531 5.199219 C 5.675781 5.015625 5.53125 4.800781 5.253906 4.695312 C 4.972656 4.59375 3.976562 4.316406 3.769531 4.21875 C 3.558594 4.125 3.429688 4.097656 3.359375 4.148438 C 2.152344 3.914062 1.492188 3.558594 1.289062 3.53125 C 1.085938 3.507812 1.023438 3.84375 1.328125 3.984375 C 1.242188 4.078125 1.292969 4.339844 1.554688 4.359375 C 1.449219 4.46875 1.578125 4.703125 2.046875 4.808594 C 1.988281 4.929688 2.117188 5.214844 2.683594 5.3125 C 2.621094 5.484375 2.8125 5.667969 3.238281 5.71875 C 3.160156 5.839844 3.308594 6.03125 3.714844 6.074219 C 3.585938 6.277344 3.933594 6.414062 4.375 6.40625 C 4.226562 6.492188 4.289062 6.734375 4.496094 6.777344 C 4.425781 6.917969 4.617188 7.152344 4.84375 7.117188 C 4.859375 7.230469 5.015625 7.316406 5.164062 7.214844 C 5.164062 7.359375 5.484375 7.527344 5.582031 7.335938 C 5.65625 7.40625 5.863281 7.453125 6.003906 7.3125 C 6.011719 7.347656 6.019531 7.378906 6.027344 7.414062 C 5.96875 7.585938 5.84375 7.769531 5.640625 7.925781 C 5.425781 8.089844 5.3125 8.359375 5.320312 8.53125 C 5.328125 8.707031 5.261719 8.835938 5.15625 8.878906 L 5.25 8.914062 C 5.25 8.914062 5.09375 9.121094 5.007812 9.140625 C 4.921875 9.15625 4.503906 9.105469 4.425781 9.183594 C 4.347656 9.261719 4.191406 9.574219 4.296875 9.632812 C 4.402344 9.695312 4.445312 9.800781 4.503906 9.859375 C 4.566406 9.921875 4.894531 9.824219 4.964844 9.765625 C 5.035156 9.703125 5.027344 9.402344 5.085938 9.367188 C 5.148438 9.332031 5.71875 9.070312 5.71875 9.070312 L 5.730469 9.199219 C 5.730469 9.199219 5.824219 9.089844 5.902344 9.054688 C 5.980469 9.019531 6 8.855469 6.042969 8.777344 C 6.082031 8.703125 6.367188 8.449219 6.75 8.371094 C 6.796875 8.398438 6.71875 8.453125 6.71875 8.453125 C 6.566406 8.421875 6.5 8.621094 6.511719 8.695312 C 6.34375 8.714844 5.964844 9.242188 5.902344 9.425781 C 5.84375 9.609375 5.894531 9.6875 5.972656 9.679688 C 5.964844 9.808594 6.066406 9.917969 6.179688 9.878906 C 6.191406 10.015625 6.265625 10.101562 6.363281 10.09375 C 6.378906 10.242188 6.46875 10.328125 6.570312 10.304688 C 6.589844 10.449219 6.703125 10.527344 6.847656 10.484375 C 6.859375 10.683594 7.003906 10.875 7.214844 10.660156 C 7.25 11.058594 7.742188 11.1875 7.796875 10.683594 C 7.976562 10.851562 8.210938 10.761719 8.210938 10.484375 C 8.316406 10.5625 8.464844 10.460938 8.472656 10.304688 C 8.578125 10.347656 8.664062 10.242188 8.664062 10.070312 C 8.777344 10.128906 8.855469 10.003906 8.847656 9.871094 C 8.96875 9.914062 9.082031 9.792969 9.054688 9.652344 C 9.167969 9.695312 9.246094 9.515625 9.105469 9.296875 C 8.890625 8.949219 8.550781 8.695312 8.550781 8.695312 C 8.550781 8.695312 8.605469 8.492188 8.324219 8.449219 C 8.289062 8.445312 8.246094 8.394531 8.289062 8.371094 C 8.667969 8.453125 8.949219 8.703125 8.992188 8.773438 C 9.035156 8.851562 9.050781 9.019531 9.128906 9.054688 C 9.207031 9.085938 9.304688 9.199219 9.304688 9.199219 L 9.3125 9.070312 C 9.3125 9.070312 9.882812 9.332031 9.945312 9.367188 C 10.003906 9.398438 9.996094 9.703125 10.066406 9.765625 C 10.136719 9.824219 10.464844 9.921875 10.527344 9.859375 C 10.585938 9.800781 10.628906 9.695312 10.734375 9.632812 C 10.839844 9.574219 10.683594 9.261719 10.605469 9.183594 C 10.527344 9.105469 10.109375 9.15625 10.023438 9.140625 C 9.9375 9.121094 9.78125 8.914062 9.78125 8.914062 L 9.875 8.878906 C 9.769531 8.835938 9.703125 8.707031 9.710938 8.53125 C 9.71875 8.359375 9.605469 8.089844 9.390625 7.925781 C 9.191406 7.773438 9.066406 7.59375 9.007812 7.421875 C 9.015625 7.386719 9.027344 7.347656 9.035156 7.3125 C 9.175781 7.453125 9.382812 7.40625 9.457031 7.332031 C 9.554688 7.523438 9.875 7.359375 9.875 7.210938 C 10.023438 7.316406 10.179688 7.230469 10.195312 7.117188 C 10.421875 7.152344 10.613281 6.917969 10.542969 6.777344 C 10.75 6.734375 10.8125 6.492188 10.664062 6.40625 C 11.105469 6.414062 11.453125 6.273438 11.324219 6.074219 C 11.730469 6.03125 11.878906 5.839844 11.800781 5.71875 C 12.226562 5.667969 12.417969 5.484375 12.355469 5.3125 C 12.921875 5.214844 13.050781 4.929688 12.992188 4.808594 C 13.460938 4.703125 13.589844 4.46875 13.484375 4.355469 C 13.746094 4.339844 13.796875 4.078125 13.710938 3.984375 C 14.015625 3.84375 13.953125 3.507812 13.75 3.53125 Z M 13.75 3.53125 "/>
<path style=" stroke:none;fill-rule:nonzero;fill:rgb(100%,100%,100%);fill-opacity:1;" d="M 5.753906 6.457031 C 5.757812 6.878906 5.855469 7.242188 6.003906 7.5625 C 6.089844 7.746094 6.191406 7.914062 6.304688 8.066406 L 6.558594 8.363281 C 6.648438 8.460938 6.742188 8.546875 6.835938 8.628906 L 7.089844 8.828125 C 7.195312 8.910156 7.300781 8.976562 7.390625 9.035156 C 7.4375 9.0625 7.480469 9.089844 7.519531 9.113281 C 7.558594 9.089844 7.601562 9.0625 7.644531 9.035156 C 7.730469 8.980469 7.824219 8.917969 7.925781 8.847656 L 8.175781 8.648438 C 8.277344 8.5625 8.382812 8.46875 8.480469 8.363281 L 8.734375 8.0625 C 8.847656 7.910156 8.949219 7.742188 9.035156 7.558594 C 9.183594 7.242188 9.28125 6.878906 9.285156 6.457031 Z M 5.753906 6.457031 "/>
<path style=" stroke:none;fill-rule:nonzero;fill:rgb(65.490196%,0%,20%);fill-opacity:1;" d="M 6.003906 6.457031 L 6.003906 7.5625 C 6.089844 7.746094 6.191406 7.914062 6.304688 8.066406 L 6.304688 6.457031 L 6.558594 6.457031 L 6.558594 8.363281 C 6.648438 8.460938 6.742188 8.546875 6.835938 8.628906 L 6.835938 6.457031 L 7.089844 6.457031 L 7.089844 8.828125 C 7.195312 8.910156 7.300781 8.976562 7.390625 9.035156 L 7.390625 6.457031 L 7.644531 6.457031 L 7.644531 9.035156 C 7.730469 8.980469 7.824219 8.917969 7.921875 8.847656 L 7.921875 6.457031 L 8.175781 6.457031 L 8.175781 8.648438 C 8.277344 8.5625 8.378906 8.464844 8.480469 8.363281 L 8.480469 6.457031 L 8.734375 6.457031 L 8.734375 8.0625 C 8.847656 7.910156 8.949219 7.742188 9.035156 7.558594 L 9.035156 6.457031 Z M 6.003906 6.457031 "/>
<path style=" stroke:none;fill-rule:nonzero;fill:rgb(9.019608%,14.901961%,40.784314%);fill-opacity:1;" d="M 7.519531 5.21875 C 7.519531 5.21875 7.085938 5.445312 6.609375 5.445312 C 6.136719 5.445312 5.75 5.226562 5.75 5.226562 L 5.75 6.433594 C 5.75 6.472656 5.753906 6.511719 5.757812 6.554688 L 9.28125 6.554688 C 9.285156 6.511719 9.289062 6.472656 9.289062 6.433594 L 9.289062 5.226562 C 9.289062 5.226562 8.902344 5.445312 8.429688 5.445312 C 7.953125 5.445312 7.519531 5.21875 7.519531 5.21875 Z M 7.519531 5.21875 "/>
</g>
</svg>
