<?xml version="1.0" encoding="UTF-8"?>
<svg xmlns="http://www.w3.org/2000/svg" xmlns:xlink="http://www.w3.org/1999/xlink" width="15pt" height="15pt" viewBox="0 0 15 15" version="1.1">
<g id="surface1">
<path style=" stroke:none;fill-rule:nonzero;fill:rgb(7.058824%,67.843137%,16.862745%);fill-opacity:1;" d="M 13.332031 2.082031 L 1.667969 2.082031 C 0.746094 2.082031 0 2.828125 0 3.75 L 0 11.25 C 0 12.171875 0.746094 12.917969 1.667969 12.917969 L 13.332031 12.917969 C 14.253906 12.917969 15 12.171875 15 11.25 L 15 3.75 C 15 2.828125 14.253906 2.082031 13.332031 2.082031 Z M 13.332031 2.082031 "/>
<path style=" stroke:none;fill-rule:nonzero;fill:rgb(100%,80.784314%,0%);fill-opacity:1;" d="M 3.40625 5.625 L 15 5.625 L 15 9.375 L 3.40625 9.375 Z M 3.40625 5.625 "/>
<path style=" stroke:none;fill-rule:nonzero;fill:rgb(82.352941%,6.27451%,20.392157%);fill-opacity:1;" d="M 0.480469 2.582031 C 0.183594 2.882812 0 3.292969 0 3.75 L 0 11.25 C 0 11.707031 0.183594 12.117188 0.476562 12.417969 L 5.207031 7.5 Z M 0.480469 2.582031 "/>
<path style=" stroke:none;fill-rule:nonzero;fill:rgb(0%,0%,0%);fill-opacity:1;" d="M 7.5 8.484375 L 8.179688 7.992188 L 8.855469 8.484375 L 8.597656 7.6875 L 9.273438 7.195312 L 8.4375 7.195312 L 8.179688 6.398438 L 7.921875 7.195312 L 7.082031 7.195312 L 7.761719 7.6875 Z M 11.460938 8.484375 L 12.136719 7.992188 L 12.8125 8.484375 L 12.554688 7.6875 L 13.230469 7.195312 L 12.394531 7.195312 L 12.136719 6.398438 L 11.878906 7.195312 L 11.042969 7.195312 L 11.71875 7.6875 Z M 11.460938 8.484375 "/>
</g>
</svg>
