<?xml version="1.0" encoding="UTF-8"?>
<svg xmlns="http://www.w3.org/2000/svg" xmlns:xlink="http://www.w3.org/1999/xlink" width="15pt" height="15pt" viewBox="0 0 15 15" version="1.1">
<g id="surface1">
<path style=" stroke:none;fill-rule:nonzero;fill:rgb(0%,47.45098%,20.392157%);fill-opacity:1;" d="M 1.667969 2.082031 C 0.746094 2.082031 0 2.828125 0 3.75 L 0 11.25 C 0 12.171875 0.746094 12.917969 1.667969 12.917969 L 5 12.917969 L 5 2.082031 Z M 13.332031 2.082031 L 10 2.082031 L 10 12.917969 L 13.332031 12.917969 C 14.253906 12.917969 15 12.171875 15 11.25 L 15 3.75 C 15 2.828125 14.253906 2.082031 13.332031 2.082031 Z M 13.332031 2.082031 "/>
<path style=" stroke:none;fill-rule:nonzero;fill:rgb(93.333333%,93.333333%,93.333333%);fill-opacity:1;" d="M 5 2.082031 L 10 2.082031 L 10 12.917969 L 5 12.917969 Z M 5 2.082031 "/>
<path style=" stroke:none;fill-rule:nonzero;fill:rgb(0%,47.45098%,20.392157%);fill-opacity:1;" d="M 8.339844 9.023438 C 8.558594 9.007812 8.898438 9.101562 9.152344 9.078125 C 9.402344 9.054688 9.363281 9.039062 9.277344 8.972656 C 9.195312 8.90625 9.125 8.957031 9.082031 8.996094 C 9.039062 9.039062 8.964844 9.039062 9 8.996094 C 9.035156 8.953125 9.003906 8.933594 8.921875 8.9375 C 8.839844 8.945312 8.777344 8.972656 8.722656 8.988281 C 8.671875 9 8.609375 8.964844 8.652344 8.945312 C 8.695312 8.921875 8.691406 8.90625 8.65625 8.902344 C 8.621094 8.902344 8.617188 8.878906 8.710938 8.863281 C 8.808594 8.851562 8.871094 8.875 8.925781 8.894531 C 8.980469 8.914062 9.042969 8.898438 9.082031 8.871094 C 9.121094 8.839844 9.144531 8.808594 9.195312 8.8125 C 9.242188 8.816406 9.269531 8.789062 9.207031 8.746094 C 9.144531 8.703125 9.054688 8.703125 9 8.726562 C 8.945312 8.753906 8.921875 8.734375 8.902344 8.710938 C 8.882812 8.683594 8.804688 8.6875 8.726562 8.722656 C 8.652344 8.757812 8.597656 8.800781 8.554688 8.738281 C 8.53125 8.707031 8.375 8.746094 8.277344 8.773438 C 8.179688 8.800781 8.164062 8.773438 8.242188 8.734375 C 8.347656 8.6875 8.414062 8.722656 8.570312 8.660156 C 8.675781 8.621094 8.828125 8.6875 9.074219 8.546875 C 9.132812 8.511719 9.191406 8.476562 9.027344 8.472656 C 8.945312 8.46875 8.902344 8.476562 8.875 8.515625 C 8.847656 8.550781 8.8125 8.542969 8.816406 8.515625 C 8.820312 8.484375 8.742188 8.464844 8.675781 8.507812 C 8.609375 8.550781 8.5625 8.585938 8.53125 8.597656 C 8.5 8.605469 8.492188 8.597656 8.5 8.574219 C 8.507812 8.550781 8.484375 8.550781 8.457031 8.570312 C 8.425781 8.589844 8.378906 8.613281 8.347656 8.609375 C 8.316406 8.609375 8.28125 8.582031 8.371094 8.535156 C 8.457031 8.492188 8.542969 8.433594 8.675781 8.445312 C 8.851562 8.460938 8.890625 8.386719 8.976562 8.390625 C 9.0625 8.390625 9.109375 8.328125 8.992188 8.324219 C 8.878906 8.324219 8.84375 8.351562 8.820312 8.367188 C 8.792969 8.386719 8.742188 8.398438 8.75 8.359375 C 8.757812 8.324219 8.738281 8.324219 8.699219 8.339844 C 8.65625 8.359375 8.554688 8.371094 8.507812 8.359375 C 8.457031 8.34375 8.414062 8.316406 8.527344 8.3125 C 8.644531 8.308594 8.722656 8.253906 8.820312 8.277344 C 8.910156 8.300781 8.957031 8.253906 8.988281 8.257812 C 9.023438 8.261719 9.0625 8.234375 9.003906 8.1875 C 8.945312 8.140625 8.796875 8.136719 8.746094 8.144531 C 8.695312 8.15625 8.667969 8.144531 8.679688 8.125 C 8.6875 8.105469 8.675781 8.097656 8.628906 8.097656 C 8.585938 8.101562 8.464844 8.128906 8.410156 8.152344 C 8.34375 8.183594 8.292969 8.136719 8.347656 8.097656 C 8.382812 8.074219 8.484375 8.046875 8.535156 8.050781 C 8.589844 8.058594 8.613281 8.066406 8.597656 8.027344 C 8.59375 8.011719 8.589844 7.988281 8.648438 8.003906 C 8.707031 8.019531 8.824219 8.019531 8.890625 7.984375 C 8.953125 7.945312 8.90625 7.902344 8.800781 7.90625 C 8.695312 7.910156 8.46875 7.941406 8.378906 8 C 8.285156 8.058594 8.273438 7.996094 8.308594 7.976562 C 8.347656 7.957031 8.351562 7.941406 8.332031 7.929688 C 8.3125 7.917969 8.3125 7.90625 8.371094 7.886719 C 8.472656 7.847656 8.585938 7.859375 8.714844 7.796875 C 8.8125 7.753906 8.914062 7.703125 8.945312 7.625 C 8.976562 7.546875 8.929688 7.574219 8.871094 7.597656 C 8.816406 7.621094 8.78125 7.636719 8.78125 7.675781 C 8.78125 7.714844 8.734375 7.714844 8.734375 7.667969 C 8.738281 7.621094 8.710938 7.597656 8.632812 7.628906 C 8.558594 7.660156 8.363281 7.730469 8.296875 7.722656 C 8.226562 7.714844 8.199219 7.671875 8.269531 7.667969 C 8.339844 7.664062 8.4375 7.636719 8.496094 7.617188 C 8.550781 7.597656 8.585938 7.566406 8.542969 7.542969 C 8.5 7.519531 8.53125 7.492188 8.578125 7.492188 C 8.628906 7.492188 8.683594 7.449219 8.746094 7.457031 C 8.808594 7.464844 8.878906 7.445312 8.796875 7.398438 C 8.765625 7.378906 8.734375 7.351562 8.777344 7.328125 C 8.816406 7.304688 8.792969 7.242188 8.726562 7.234375 C 8.660156 7.226562 8.601562 7.242188 8.566406 7.253906 C 8.535156 7.265625 8.503906 7.261719 8.496094 7.234375 C 8.488281 7.203125 8.378906 7.207031 8.332031 7.21875 C 8.285156 7.230469 8.199219 7.222656 8.261719 7.191406 C 8.328125 7.160156 8.46875 7.140625 8.535156 7.140625 C 8.605469 7.140625 8.675781 7.125 8.714844 7.109375 C 8.75 7.097656 8.757812 7.023438 8.675781 7.023438 C 8.59375 7.023438 8.484375 7.027344 8.503906 6.996094 C 8.527344 6.964844 8.453125 6.945312 8.375 6.960938 C 8.296875 6.980469 8.1875 6.996094 8.25 6.953125 C 8.3125 6.910156 8.441406 6.863281 8.5 6.867188 C 8.558594 6.871094 8.601562 6.859375 8.5625 6.8125 C 8.523438 6.761719 8.546875 6.746094 8.589844 6.738281 C 8.628906 6.734375 8.636719 6.683594 8.578125 6.675781 C 8.523438 6.664062 8.375 6.628906 8.308594 6.667969 C 8.210938 6.722656 8.136719 6.71875 8.167969 6.6875 C 8.199219 6.65625 8.175781 6.65625 8.125 6.671875 C 8.011719 6.703125 7.769531 6.773438 7.699219 6.769531 C 7.664062 6.765625 7.625 6.773438 7.625 6.730469 C 7.628906 6.691406 7.652344 6.691406 7.753906 6.675781 C 7.953125 6.644531 8.171875 6.582031 8.265625 6.589844 C 8.359375 6.601562 8.402344 6.589844 8.375 6.550781 C 8.347656 6.507812 8.273438 6.539062 8.308594 6.488281 C 8.339844 6.4375 8.28125 6.441406 8.238281 6.441406 C 8.195312 6.4375 8.152344 6.421875 8.125 6.398438 C 8.089844 6.363281 7.972656 6.382812 7.914062 6.40625 C 7.855469 6.429688 7.722656 6.460938 7.671875 6.457031 C 7.609375 6.453125 7.605469 6.453125 7.601562 6.40625 C 7.601562 6.382812 7.609375 6.375 7.636719 6.363281 C 7.703125 6.335938 7.96875 6.328125 8.050781 6.34375 C 8.210938 6.375 8.21875 6.3125 8.183594 6.285156 C 8.140625 6.246094 8 6.261719 7.910156 6.277344 C 7.824219 6.292969 7.730469 6.3125 7.707031 6.289062 C 7.679688 6.269531 7.707031 6.25 7.769531 6.238281 C 7.84375 6.222656 8.015625 6.234375 8.042969 6.21875 C 8.070312 6.207031 8.097656 6.167969 8.039062 6.152344 C 7.980469 6.136719 7.839844 6.152344 7.773438 6.175781 C 7.707031 6.199219 7.632812 6.191406 7.617188 6.167969 C 7.601562 6.144531 7.609375 6.089844 7.71875 6.097656 C 7.828125 6.105469 8.027344 6.101562 8.0625 6.097656 C 8.101562 6.089844 8.105469 6.066406 8.085938 6.042969 C 8.066406 6.015625 8.042969 5.992188 8.066406 5.972656 C 8.085938 5.953125 8.078125 5.9375 8.066406 5.921875 C 8.054688 5.90625 8.066406 5.894531 8.078125 5.882812 C 8.089844 5.875 8.105469 5.851562 8.0625 5.859375 C 7.996094 5.871094 7.886719 5.835938 7.832031 5.855469 C 7.777344 5.878906 7.648438 5.890625 7.609375 5.886719 C 7.589844 5.882812 7.582031 5.847656 7.613281 5.84375 C 7.675781 5.835938 7.792969 5.816406 7.835938 5.796875 C 7.878906 5.773438 7.925781 5.753906 7.980469 5.757812 C 8.035156 5.757812 8.074219 5.738281 8.019531 5.710938 C 7.964844 5.6875 7.875 5.691406 7.824219 5.71875 C 7.773438 5.742188 7.683594 5.789062 7.632812 5.78125 C 7.582031 5.773438 7.578125 5.746094 7.597656 5.683594 C 7.605469 5.652344 7.671875 5.648438 7.71875 5.65625 C 7.761719 5.664062 7.898438 5.628906 7.949219 5.640625 C 8 5.652344 8.046875 5.632812 7.988281 5.589844 C 7.929688 5.546875 7.878906 5.5625 7.824219 5.585938 C 7.765625 5.609375 7.640625 5.640625 7.605469 5.609375 C 7.574219 5.578125 7.566406 5.496094 7.628906 5.527344 C 7.699219 5.558594 7.871094 5.5 7.917969 5.523438 C 7.964844 5.546875 7.988281 5.503906 7.945312 5.480469 C 7.898438 5.460938 7.765625 5.480469 7.71875 5.492188 C 7.640625 5.507812 7.609375 5.511719 7.609375 5.46875 C 7.609375 5.4375 7.699219 5.445312 7.722656 5.449219 C 7.785156 5.46875 7.878906 5.390625 7.9375 5.402344 C 7.992188 5.417969 7.984375 5.386719 7.953125 5.363281 C 7.921875 5.339844 7.808594 5.351562 7.769531 5.378906 C 7.730469 5.402344 7.664062 5.417969 7.636719 5.417969 C 7.613281 5.417969 7.601562 5.410156 7.601562 5.363281 C 7.601562 5.316406 7.625 5.304688 7.660156 5.289062 C 7.714844 5.261719 7.722656 5.21875 7.679688 5.230469 C 7.617188 5.246094 7.59375 5.265625 7.59375 5.179688 C 7.59375 5.140625 7.597656 5.101562 7.652344 5.09375 C 7.703125 5.082031 7.714844 5.046875 7.695312 5.035156 C 7.679688 5.027344 7.660156 5.050781 7.632812 5.058594 C 7.605469 5.070312 7.589844 5.078125 7.585938 5.007812 C 7.585938 4.96875 7.609375 4.953125 7.632812 4.953125 C 7.660156 4.953125 7.683594 4.933594 7.695312 4.917969 C 7.707031 4.902344 7.695312 4.882812 7.65625 4.898438 C 7.621094 4.914062 7.585938 4.917969 7.585938 4.875 C 7.582031 4.785156 7.570312 4.570312 7.570312 4.523438 C 7.566406 4.472656 7.53125 4.460938 7.53125 4.515625 C 7.53125 4.574219 7.527344 4.777344 7.519531 4.875 C 7.515625 4.910156 7.496094 4.910156 7.46875 4.894531 C 7.4375 4.878906 7.355469 4.890625 7.414062 4.914062 C 7.46875 4.941406 7.507812 4.949219 7.511719 4.996094 C 7.511719 5.039062 7.488281 5.046875 7.4375 5.023438 C 7.390625 5 7.328125 5.007812 7.417969 5.0625 C 7.503906 5.117188 7.511719 5.121094 7.507812 5.175781 C 7.503906 5.234375 7.476562 5.226562 7.417969 5.203125 C 7.351562 5.171875 7.292969 5.195312 7.375 5.234375 C 7.453125 5.269531 7.507812 5.320312 7.503906 5.371094 C 7.5 5.421875 7.460938 5.445312 7.402344 5.371094 C 7.34375 5.296875 7.246094 5.261719 7.175781 5.269531 C 7.105469 5.277344 7.140625 5.3125 7.222656 5.34375 C 7.308594 5.375 7.441406 5.4375 7.472656 5.472656 C 7.503906 5.507812 7.484375 5.535156 7.410156 5.503906 C 7.335938 5.472656 7.171875 5.410156 7.117188 5.429688 C 7.0625 5.449219 7.042969 5.480469 7.132812 5.484375 C 7.222656 5.484375 7.382812 5.511719 7.449219 5.539062 C 7.53125 5.570312 7.542969 5.632812 7.464844 5.609375 C 7.382812 5.589844 7.160156 5.542969 7.097656 5.582031 C 7.03125 5.621094 7.011719 5.664062 7.121094 5.644531 C 7.234375 5.628906 7.371094 5.628906 7.433594 5.652344 C 7.46875 5.667969 7.496094 5.671875 7.496094 5.71875 C 7.492188 5.769531 7.453125 5.769531 7.386719 5.738281 C 7.316406 5.710938 7.113281 5.65625 7.050781 5.707031 C 6.988281 5.757812 7.003906 5.769531 7.089844 5.753906 C 7.179688 5.738281 7.3125 5.753906 7.378906 5.765625 C 7.511719 5.789062 7.5 5.8125 7.414062 5.8125 C 7.328125 5.8125 7.078125 5.824219 7.015625 5.800781 C 6.957031 5.78125 6.871094 5.765625 6.835938 5.78125 C 6.800781 5.792969 6.828125 5.808594 6.855469 5.808594 C 6.886719 5.808594 6.910156 5.832031 6.886719 5.851562 C 6.867188 5.871094 6.855469 5.90625 6.9375 5.894531 C 7.015625 5.878906 7.128906 5.878906 7.191406 5.902344 C 7.25 5.925781 7.339844 5.949219 7.414062 5.957031 C 7.496094 5.96875 7.496094 5.96875 7.496094 6.03125 C 7.492188 6.074219 7.402344 6.046875 7.3125 5.988281 C 7.222656 5.933594 7.054688 5.902344 6.972656 5.957031 C 6.894531 6.007812 6.941406 6.019531 7.015625 6.007812 C 7.089844 5.992188 7.292969 6.03125 7.371094 6.054688 C 7.445312 6.082031 7.492188 6.0625 7.488281 6.132812 C 7.484375 6.175781 7.441406 6.15625 7.378906 6.128906 C 7.179688 6.050781 6.9375 6.042969 6.859375 6.050781 C 6.804688 6.058594 6.796875 6.0625 6.8125 6.078125 C 6.828125 6.089844 6.816406 6.113281 6.785156 6.121094 C 6.75 6.128906 6.707031 6.144531 6.683594 6.160156 C 6.664062 6.179688 6.664062 6.195312 6.726562 6.191406 C 6.789062 6.183594 6.847656 6.195312 6.8125 6.21875 C 6.777344 6.242188 6.734375 6.273438 6.804688 6.28125 C 6.984375 6.296875 7.25 6.410156 7.339844 6.460938 C 7.433594 6.511719 7.457031 6.515625 7.453125 6.5625 C 7.453125 6.609375 7.402344 6.605469 7.351562 6.574219 C 7.183594 6.488281 7.019531 6.507812 6.933594 6.449219 C 6.847656 6.386719 6.722656 6.320312 6.644531 6.375 C 6.5625 6.425781 6.578125 6.457031 6.648438 6.449219 C 6.71875 6.4375 6.796875 6.449219 6.769531 6.488281 C 6.742188 6.523438 6.722656 6.546875 6.835938 6.566406 C 7 6.585938 7.265625 6.691406 7.351562 6.726562 C 7.441406 6.765625 7.476562 6.789062 7.402344 6.800781 C 7.328125 6.8125 7.324219 6.757812 7.207031 6.753906 C 7.132812 6.753906 7.039062 6.710938 6.988281 6.671875 C 6.9375 6.632812 6.902344 6.613281 6.816406 6.621094 C 6.730469 6.628906 6.609375 6.644531 6.5625 6.671875 C 6.519531 6.695312 6.5 6.734375 6.574219 6.734375 C 6.648438 6.738281 6.683594 6.785156 6.628906 6.804688 C 6.570312 6.824219 6.511719 6.835938 6.492188 6.859375 C 6.46875 6.882812 6.5 6.902344 6.574219 6.902344 C 6.652344 6.902344 6.773438 6.925781 6.878906 6.976562 C 6.984375 7.03125 7.289062 7.183594 7.371094 7.1875 C 7.453125 7.195312 7.460938 7.207031 7.457031 7.25 C 7.457031 7.292969 7.425781 7.28125 7.359375 7.261719 C 7.289062 7.242188 7.097656 7.183594 7.035156 7.128906 C 6.972656 7.074219 6.90625 7.023438 6.851562 7.019531 C 6.792969 7.019531 6.808594 7.035156 6.828125 7.058594 C 6.847656 7.078125 6.847656 7.132812 6.808594 7.097656 C 6.75 7.039062 6.703125 6.980469 6.625 6.976562 C 6.542969 6.976562 6.464844 6.976562 6.425781 7 C 6.382812 7.023438 6.386719 7.054688 6.464844 7.066406 C 6.558594 7.078125 6.65625 7.109375 6.699219 7.136719 C 6.746094 7.160156 6.726562 7.1875 6.683594 7.1875 C 6.640625 7.183594 6.652344 7.207031 6.699219 7.234375 C 6.746094 7.265625 6.773438 7.300781 6.738281 7.3125 C 6.6875 7.324219 6.597656 7.222656 6.554688 7.226562 C 6.527344 7.230469 6.550781 7.25 6.574219 7.265625 C 6.597656 7.285156 6.597656 7.335938 6.558594 7.304688 C 6.503906 7.265625 6.433594 7.210938 6.351562 7.242188 C 6.269531 7.269531 6.226562 7.304688 6.296875 7.335938 C 6.367188 7.367188 6.417969 7.394531 6.382812 7.433594 C 6.367188 7.457031 6.355469 7.484375 6.453125 7.492188 C 6.515625 7.496094 6.582031 7.519531 6.613281 7.554688 C 6.640625 7.585938 6.601562 7.597656 6.566406 7.582031 C 6.53125 7.566406 6.445312 7.558594 6.40625 7.597656 C 6.367188 7.632812 6.40625 7.660156 6.488281 7.667969 C 6.714844 7.695312 6.957031 7.769531 7.089844 7.78125 C 7.226562 7.792969 7.335938 7.824219 7.394531 7.847656 C 7.46875 7.875 7.429688 7.960938 7.375 7.933594 C 7.296875 7.890625 7.242188 7.867188 7.210938 7.863281 C 7.179688 7.855469 7.179688 7.867188 7.1875 7.894531 C 7.191406 7.921875 7.160156 7.9375 7.125 7.90625 C 7.09375 7.875 6.992188 7.8125 6.933594 7.804688 C 6.871094 7.792969 6.878906 7.804688 6.890625 7.824219 C 6.898438 7.84375 6.894531 7.878906 6.855469 7.839844 C 6.816406 7.800781 6.691406 7.742188 6.617188 7.746094 C 6.566406 7.75 6.578125 7.765625 6.589844 7.785156 C 6.597656 7.804688 6.574219 7.847656 6.542969 7.808594 C 6.511719 7.765625 6.449219 7.707031 6.375 7.753906 C 6.34375 7.769531 6.3125 7.796875 6.265625 7.804688 C 6.21875 7.8125 6.230469 7.839844 6.292969 7.855469 C 6.457031 7.890625 6.519531 7.84375 6.628906 7.886719 C 6.710938 7.917969 6.78125 7.929688 6.8125 7.933594 C 6.84375 7.933594 6.867188 7.953125 6.832031 7.964844 C 6.796875 7.976562 6.800781 8.003906 6.839844 8.039062 C 6.878906 8.070312 6.847656 8.125 6.8125 8.085938 C 6.75 8.011719 6.660156 8.035156 6.628906 8 C 6.597656 7.964844 6.582031 7.96875 6.582031 7.996094 C 6.582031 8.027344 6.566406 8.035156 6.535156 8.007812 C 6.425781 7.921875 6.289062 7.941406 6.230469 7.980469 C 6.171875 8.019531 6.183594 8.035156 6.289062 8.050781 C 6.589844 8.097656 6.957031 8.160156 7.277344 8.292969 C 7.449219 8.367188 7.4375 8.382812 7.429688 8.402344 C 7.421875 8.425781 7.390625 8.429688 7.320312 8.382812 C 7.242188 8.332031 7.03125 8.300781 6.941406 8.242188 C 6.847656 8.183594 6.820312 8.214844 6.84375 8.25 C 6.871094 8.285156 6.863281 8.324219 6.808594 8.277344 C 6.753906 8.230469 6.644531 8.167969 6.585938 8.167969 C 6.523438 8.167969 6.566406 8.195312 6.601562 8.214844 C 6.632812 8.234375 6.636719 8.300781 6.585938 8.265625 C 6.53125 8.234375 6.367188 8.144531 6.242188 8.175781 C 6.117188 8.207031 6.136719 8.226562 6.203125 8.265625 C 6.265625 8.308594 6.324219 8.335938 6.460938 8.332031 C 6.597656 8.328125 6.730469 8.355469 6.789062 8.394531 C 6.851562 8.433594 6.796875 8.445312 6.753906 8.421875 C 6.710938 8.394531 6.601562 8.378906 6.554688 8.382812 C 6.511719 8.390625 6.53125 8.410156 6.550781 8.433594 C 6.566406 8.453125 6.546875 8.519531 6.511719 8.476562 C 6.472656 8.4375 6.371094 8.390625 6.3125 8.375 C 6.175781 8.34375 6.117188 8.40625 6.175781 8.425781 C 6.210938 8.4375 6.230469 8.457031 6.207031 8.484375 C 6.1875 8.515625 6.175781 8.546875 6.246094 8.535156 C 6.417969 8.507812 6.730469 8.515625 6.902344 8.570312 C 7.050781 8.617188 7.015625 8.648438 6.976562 8.644531 C 6.941406 8.640625 6.898438 8.621094 6.917969 8.660156 C 6.9375 8.695312 6.9375 8.730469 6.886719 8.695312 C 6.785156 8.625 6.640625 8.597656 6.578125 8.597656 C 6.539062 8.601562 6.558594 8.621094 6.570312 8.640625 C 6.585938 8.660156 6.566406 8.695312 6.527344 8.664062 C 6.488281 8.632812 6.417969 8.589844 6.371094 8.589844 C 6.324219 8.589844 6.324219 8.605469 6.347656 8.625 C 6.367188 8.648438 6.363281 8.683594 6.320312 8.652344 C 6.253906 8.605469 6.148438 8.554688 6.074219 8.5625 C 6 8.566406 6.03125 8.605469 6.101562 8.632812 C 6.230469 8.6875 6.367188 8.71875 6.464844 8.730469 C 6.5625 8.738281 6.644531 8.765625 6.6875 8.765625 C 6.726562 8.769531 6.742188 8.792969 6.6875 8.796875 C 6.613281 8.808594 6.496094 8.753906 6.433594 8.78125 C 6.402344 8.796875 6.441406 8.816406 6.449219 8.828125 C 6.457031 8.847656 6.453125 8.898438 6.414062 8.867188 C 6.300781 8.773438 6.226562 8.785156 6.183594 8.753906 C 6.144531 8.726562 6.101562 8.742188 6.128906 8.777344 C 6.15625 8.8125 6.097656 8.800781 6.054688 8.773438 C 6.011719 8.746094 5.9375 8.730469 5.890625 8.742188 C 5.84375 8.757812 5.820312 8.773438 5.917969 8.824219 C 6.015625 8.878906 6.09375 8.914062 6.191406 8.933594 C 6.289062 8.953125 6.300781 9.011719 6.246094 9.003906 C 6.195312 8.996094 6.183594 9.027344 6.222656 9.054688 C 6.238281 9.066406 6.25 9.101562 6.246094 9.125 C 6.242188 9.144531 6.210938 9.140625 6.167969 9.09375 C 6.066406 8.980469 5.839844 8.972656 5.726562 9.003906 C 5.613281 9.039062 5.660156 9.09375 5.742188 9.167969 C 5.824219 9.246094 5.898438 9.328125 6.109375 9.300781 C 6.320312 9.277344 6.691406 9.195312 6.863281 9.242188 C 7.035156 9.285156 7.015625 9.363281 6.964844 9.371094 C 6.871094 9.386719 6.871094 9.296875 6.777344 9.289062 C 6.679688 9.285156 6.648438 9.332031 6.617188 9.367188 C 6.585938 9.402344 6.5625 9.429688 6.464844 9.382812 C 6.339844 9.324219 6.242188 9.410156 6.1875 9.398438 C 6.238281 9.425781 6.324219 9.492188 6.300781 9.515625 C 6.277344 9.542969 6.242188 9.492188 6.164062 9.464844 C 6.089844 9.433594 5.972656 9.429688 5.886719 9.480469 C 5.804688 9.53125 5.890625 9.582031 5.984375 9.605469 C 6.078125 9.628906 6.285156 9.628906 6.453125 9.582031 C 6.621094 9.539062 6.828125 9.503906 6.90625 9.503906 C 6.960938 9.5 6.988281 9.53125 6.949219 9.570312 C 7.007812 9.585938 7.074219 9.570312 7.113281 9.546875 C 7.207031 9.484375 7.195312 9.546875 7.171875 9.582031 C 7.234375 9.585938 7.339844 9.511719 7.382812 9.539062 C 7.398438 9.796875 7.378906 10.316406 7.378906 10.496094 C 7.378906 10.527344 7.402344 10.523438 7.558594 10.523438 C 7.75 10.523438 7.757812 10.535156 7.753906 10.445312 C 7.746094 10.355469 7.691406 9.824219 7.710938 9.632812 C 7.726562 9.4375 7.78125 9.453125 7.847656 9.464844 C 7.917969 9.480469 8.082031 9.53125 8.160156 9.527344 C 8.109375 9.472656 8.101562 9.4375 8.152344 9.449219 C 8.199219 9.460938 8.261719 9.441406 8.304688 9.402344 C 8.269531 9.402344 8.242188 9.351562 8.308594 9.339844 C 8.375 9.328125 8.394531 9.363281 8.511719 9.402344 C 8.625 9.4375 9.050781 9.523438 9.296875 9.367188 C 9.367188 9.320312 9.308594 9.300781 9.222656 9.300781 C 9.132812 9.300781 9.089844 9.320312 9.046875 9.339844 C 9.003906 9.355469 8.964844 9.367188 8.972656 9.335938 C 8.980469 9.300781 8.90625 9.289062 8.835938 9.320312 C 8.769531 9.351562 8.710938 9.363281 8.726562 9.328125 C 8.742188 9.289062 8.714844 9.28125 8.625 9.289062 C 8.546875 9.292969 8.308594 9.265625 8.320312 9.226562 C 8.324219 9.203125 8.371094 9.195312 8.449219 9.210938 C 8.636719 9.25 9.050781 9.261719 9.175781 9.253906 C 9.382812 9.238281 9.320312 9.175781 9.242188 9.15625 C 9.164062 9.132812 9.078125 9.148438 9.058594 9.171875 C 9.035156 9.199219 8.96875 9.214844 8.984375 9.175781 C 9.007812 9.121094 8.894531 9.109375 8.796875 9.160156 C 8.730469 9.199219 8.714844 9.179688 8.738281 9.152344 C 8.765625 9.121094 8.722656 9.101562 8.648438 9.105469 C 8.535156 9.113281 8.339844 9.117188 8.261719 9.085938 C 8.175781 9.046875 8.195312 9.035156 8.339844 9.023438 Z M 7.660156 6.058594 C 7.636719 6.066406 7.609375 6.078125 7.609375 6.046875 C 7.609375 6.015625 7.640625 6.03125 7.660156 6.03125 C 7.683594 6.035156 7.710938 6.046875 7.660156 6.058594 Z M 7.660156 5.925781 C 7.683594 5.933594 7.730469 5.9375 7.757812 5.929688 C 7.789062 5.925781 7.824219 5.945312 7.777344 5.960938 C 7.691406 5.984375 7.605469 6 7.605469 5.949219 C 7.605469 5.914062 7.640625 5.917969 7.660156 5.925781 Z M 7.417969 5.898438 C 7.371094 5.878906 7.386719 5.859375 7.410156 5.851562 C 7.429688 5.84375 7.480469 5.84375 7.476562 5.894531 C 7.476562 5.925781 7.4375 5.910156 7.417969 5.898438 Z M 6.644531 9.105469 C 6.621094 9.066406 6.652344 9.089844 6.703125 9.105469 C 6.730469 9.113281 6.761719 9.132812 6.757812 9.15625 C 6.753906 9.199219 6.667969 9.140625 6.644531 9.105469 Z M 7.21875 8.527344 C 7.265625 8.558594 7.417969 8.558594 7.417969 8.621094 C 7.417969 8.648438 7.386719 8.632812 7.347656 8.632812 C 7.3125 8.632812 7.230469 8.597656 7.179688 8.554688 C 7.128906 8.507812 7.167969 8.496094 7.21875 8.527344 Z M 7.410156 9.144531 C 7.402344 9.199219 7.304688 9.160156 7.234375 9.121094 C 7.164062 9.082031 7.242188 9.0625 7.273438 9.070312 C 7.304688 9.082031 7.332031 9.082031 7.371094 9.070312 C 7.410156 9.0625 7.417969 9.070312 7.410156 9.144531 Z M 7.363281 8.980469 C 7.3125 8.980469 7.199219 8.9375 7.105469 8.894531 C 7.007812 8.855469 7.09375 8.832031 7.152344 8.855469 C 7.210938 8.878906 7.304688 8.882812 7.367188 8.882812 C 7.433594 8.882812 7.441406 8.980469 7.363281 8.980469 Z M 7.28125 7.667969 C 7.199219 7.65625 7.125 7.59375 6.898438 7.542969 C 6.804688 7.523438 6.828125 7.511719 6.894531 7.511719 C 6.957031 7.511719 7.148438 7.597656 7.351562 7.628906 C 7.394531 7.632812 7.449219 7.644531 7.449219 7.707031 C 7.445312 7.769531 7.359375 7.679688 7.28125 7.667969 Z M 7.363281 7.4375 C 7.3125 7.398438 7.140625 7.34375 7.078125 7.332031 C 7.011719 7.316406 6.976562 7.296875 7.039062 7.289062 C 7.097656 7.277344 7.183594 7.296875 7.257812 7.335938 C 7.300781 7.359375 7.371094 7.390625 7.402344 7.390625 C 7.429688 7.390625 7.453125 7.382812 7.453125 7.445312 C 7.453125 7.515625 7.414062 7.472656 7.363281 7.4375 Z M 7.070312 6.183594 C 7.152344 6.214844 7.320312 6.203125 7.425781 6.269531 C 7.472656 6.296875 7.410156 6.300781 7.34375 6.277344 C 7.277344 6.25 7.199219 6.265625 7.066406 6.21875 C 6.957031 6.183594 7.003906 6.160156 7.070312 6.183594 Z M 7.285156 6.664062 C 7.1875 6.628906 7.148438 6.597656 7.15625 6.582031 C 7.164062 6.566406 7.253906 6.589844 7.316406 6.613281 C 7.429688 6.648438 7.453125 6.652344 7.449219 6.703125 C 7.445312 6.742188 7.382812 6.699219 7.285156 6.664062 Z M 7.054688 6.78125 C 7.152344 6.78125 7.273438 6.839844 7.359375 6.878906 C 7.417969 6.90625 7.449219 6.917969 7.449219 6.953125 C 7.445312 6.984375 7.410156 6.972656 7.382812 6.953125 C 7.355469 6.933594 7.152344 6.871094 7.058594 6.832031 C 6.960938 6.792969 6.953125 6.78125 7.054688 6.78125 Z M 7.460938 7.105469 C 7.457031 7.128906 7.433594 7.113281 7.410156 7.113281 C 7.371094 7.113281 7.265625 7.035156 7.125 7.011719 C 7.058594 7 6.976562 6.941406 6.902344 6.917969 C 6.824219 6.894531 6.882812 6.859375 6.925781 6.882812 C 6.953125 6.898438 6.988281 6.90625 7.0625 6.921875 C 7.136719 6.933594 7.300781 6.996094 7.355469 7.03125 C 7.378906 7.050781 7.464844 7.042969 7.460938 7.105469 Z M 7.472656 6.421875 C 7.46875 6.46875 7.449219 6.472656 7.421875 6.445312 C 7.390625 6.421875 7.328125 6.402344 7.257812 6.382812 C 7.191406 6.363281 7.214844 6.320312 7.269531 6.34375 C 7.320312 6.371094 7.394531 6.382812 7.453125 6.375 C 7.484375 6.371094 7.472656 6.398438 7.472656 6.421875 Z M 7.597656 6.570312 C 7.601562 6.503906 7.609375 6.5 7.648438 6.507812 C 7.695312 6.519531 7.839844 6.511719 7.894531 6.507812 C 7.953125 6.503906 8 6.523438 7.902344 6.542969 C 7.804688 6.5625 7.734375 6.582031 7.691406 6.597656 C 7.652344 6.613281 7.597656 6.632812 7.597656 6.570312 Z M 8.164062 7.90625 C 8.121094 7.949219 7.910156 7.988281 7.785156 8.046875 C 7.679688 8.09375 7.660156 8.078125 7.660156 8.015625 C 7.660156 7.941406 7.734375 7.984375 7.769531 7.960938 C 7.808594 7.933594 8.03125 7.910156 8.101562 7.875 C 8.167969 7.835938 8.203125 7.863281 8.164062 7.90625 Z M 7.988281 8.253906 C 7.921875 8.261719 7.859375 8.296875 7.75 8.335938 C 7.640625 8.371094 7.660156 8.3125 7.703125 8.285156 C 7.746094 8.257812 7.894531 8.222656 7.976562 8.21875 C 8.058594 8.214844 8.058594 8.246094 7.988281 8.253906 Z M 7.945312 7.816406 C 7.921875 7.839844 7.863281 7.863281 7.78125 7.882812 C 7.699219 7.902344 7.660156 7.898438 7.660156 7.851562 C 7.660156 7.804688 7.683594 7.816406 7.746094 7.824219 C 7.804688 7.828125 7.917969 7.832031 7.945312 7.816406 Z M 7.75 7.5625 C 7.71875 7.582031 7.652344 7.59375 7.652344 7.5625 C 7.652344 7.53125 7.652344 7.535156 7.667969 7.535156 C 7.753906 7.527344 7.824219 7.480469 7.871094 7.476562 C 7.9375 7.46875 7.976562 7.464844 7.9375 7.496094 C 7.898438 7.523438 7.78125 7.542969 7.75 7.5625 Z M 7.691406 6.914062 C 7.722656 6.914062 7.816406 6.898438 7.863281 6.878906 C 7.90625 6.863281 7.910156 6.875 7.878906 6.894531 C 7.855469 6.910156 7.765625 6.941406 7.722656 6.953125 C 7.667969 6.972656 7.636719 6.980469 7.636719 6.941406 C 7.632812 6.910156 7.640625 6.914062 7.691406 6.914062 Z M 7.699219 7.171875 C 7.761719 7.175781 7.878906 7.171875 7.914062 7.148438 C 7.953125 7.125 8.003906 7.128906 8.027344 7.128906 C 8.046875 7.132812 8.039062 7.148438 8.003906 7.171875 C 7.964844 7.195312 7.835938 7.195312 7.792969 7.222656 C 7.75 7.25 7.6875 7.253906 7.660156 7.257812 C 7.632812 7.257812 7.628906 7.257812 7.628906 7.226562 C 7.628906 7.175781 7.636719 7.167969 7.699219 7.171875 Z M 7.632812 7.386719 C 7.632812 7.355469 7.636719 7.347656 7.667969 7.347656 C 7.746094 7.347656 7.882812 7.285156 7.933594 7.28125 C 7.988281 7.28125 8.015625 7.308594 7.949219 7.320312 C 7.886719 7.328125 7.75 7.363281 7.71875 7.378906 C 7.691406 7.398438 7.632812 7.421875 7.632812 7.386719 Z M 7.742188 7.660156 C 7.820312 7.671875 7.828125 7.699219 7.722656 7.71875 C 7.671875 7.726562 7.65625 7.730469 7.652344 7.683594 C 7.648438 7.65625 7.660156 7.648438 7.742188 7.660156 Z M 7.703125 8.160156 C 7.746094 8.164062 7.832031 8.144531 7.859375 8.136719 C 7.914062 8.121094 7.910156 8.144531 7.875 8.160156 C 7.839844 8.179688 7.753906 8.214844 7.691406 8.207031 C 7.625 8.203125 7.648438 8.160156 7.703125 8.160156 Z M 7.835938 9.15625 C 7.796875 9.148438 7.773438 9.144531 7.734375 9.152344 C 7.699219 9.160156 7.671875 9.128906 7.671875 9.089844 C 7.710938 9.117188 7.800781 9.074219 7.882812 9.117188 C 7.917969 9.136719 7.871094 9.167969 7.835938 9.15625 Z M 7.871094 8.933594 C 7.832031 8.933594 7.765625 8.980469 7.710938 8.96875 C 7.652344 8.957031 7.660156 8.902344 7.714844 8.917969 C 7.761719 8.925781 7.796875 8.90625 7.859375 8.894531 C 7.921875 8.878906 7.914062 8.933594 7.871094 8.933594 Z M 7.703125 8.71875 C 7.734375 8.71875 7.761719 8.71875 7.796875 8.707031 C 7.832031 8.695312 7.828125 8.71875 7.800781 8.734375 C 7.777344 8.746094 7.738281 8.773438 7.703125 8.761719 C 7.664062 8.75 7.671875 8.71875 7.703125 8.71875 Z M 7.726562 8.472656 C 7.617188 8.523438 7.652344 8.449219 7.703125 8.425781 C 7.734375 8.410156 7.886719 8.359375 7.976562 8.328125 C 8.0625 8.292969 8.128906 8.292969 8.195312 8.285156 C 8.257812 8.277344 8.257812 8.285156 8.214844 8.339844 C 8.167969 8.394531 8.117188 8.378906 8.042969 8.375 C 7.96875 8.371094 7.839844 8.425781 7.726562 8.472656 Z M 8.121094 8.5625 C 8.050781 8.566406 8.046875 8.539062 8.089844 8.527344 C 8.117188 8.519531 8.167969 8.511719 8.1875 8.527344 C 8.207031 8.539062 8.191406 8.558594 8.121094 8.5625 Z M 8.121094 8.5625 "/>
<path style=" stroke:none;fill-rule:nonzero;fill:rgb(93.333333%,93.333333%,93.333333%);fill-opacity:1;" d="M 7.449219 6.574219 C 7.449219 6.644531 7.394531 6.703125 7.324219 6.703125 L 7.058594 6.703125 C 6.988281 6.703125 6.933594 6.644531 6.933594 6.574219 C 6.933594 6.503906 6.988281 6.449219 7.058594 6.449219 L 7.324219 6.449219 C 7.394531 6.449219 7.449219 6.503906 7.449219 6.574219 Z M 8.089844 8.34375 C 8.089844 8.445312 8.007812 8.527344 7.90625 8.527344 L 7.886719 8.527344 C 7.785156 8.527344 7.703125 8.445312 7.703125 8.34375 C 7.703125 8.242188 7.785156 8.160156 7.886719 8.160156 L 7.90625 8.160156 C 8.007812 8.160156 8.089844 8.242188 8.089844 8.34375 Z M 7.835938 9.089844 C 7.835938 9.128906 7.804688 9.15625 7.769531 9.15625 C 7.730469 9.15625 7.703125 9.128906 7.703125 9.089844 L 7.703125 8.828125 C 7.703125 8.792969 7.730469 8.761719 7.769531 8.761719 C 7.804688 8.761719 7.835938 8.792969 7.835938 8.828125 Z M 7.410156 9.019531 C 7.410156 9.089844 7.351562 9.144531 7.285156 9.144531 L 7.226562 9.144531 C 7.160156 9.144531 7.105469 9.089844 7.105469 9.019531 C 7.105469 8.949219 7.160156 8.894531 7.226562 8.894531 L 7.285156 8.894531 C 7.351562 8.894531 7.410156 8.949219 7.410156 9.019531 Z M 7.453125 7.214844 C 7.453125 7.3125 7.398438 7.394531 7.328125 7.394531 C 7.257812 7.394531 7.199219 7.3125 7.199219 7.214844 L 7.199219 7.015625 C 7.199219 6.914062 7.257812 6.832031 7.328125 6.832031 C 7.398438 6.832031 7.453125 6.914062 7.453125 7.015625 Z M 7.753906 6.601562 C 7.753906 6.640625 7.71875 6.675781 7.675781 6.675781 C 7.636719 6.675781 7.601562 6.640625 7.601562 6.601562 L 7.601562 6.484375 C 7.601562 6.441406 7.636719 6.410156 7.675781 6.410156 C 7.71875 6.410156 7.753906 6.441406 7.753906 6.484375 Z M 8.832031 9.160156 C 8.832031 9.238281 8.777344 9.300781 8.710938 9.300781 L 8.460938 9.300781 C 8.394531 9.300781 8.339844 9.238281 8.339844 9.160156 C 8.339844 9.085938 8.394531 9.023438 8.460938 9.023438 L 8.710938 9.023438 C 8.777344 9.023438 8.832031 9.085938 8.832031 9.160156 Z M 6.902344 9.382812 C 6.902344 9.449219 6.847656 9.503906 6.78125 9.503906 L 6.484375 9.503906 C 6.421875 9.503906 6.367188 9.449219 6.367188 9.382812 C 6.367188 9.316406 6.421875 9.261719 6.484375 9.261719 L 6.78125 9.261719 C 6.847656 9.261719 6.902344 9.316406 6.902344 9.382812 Z M 6.902344 9.382812 "/>
</g>
</svg>
