<?xml version="1.0" encoding="UTF-8"?>
<svg xmlns="http://www.w3.org/2000/svg" xmlns:xlink="http://www.w3.org/1999/xlink" width="15pt" height="15pt" viewBox="0 0 15 15" version="1.1">
<g id="surface1">
<path style=" stroke:none;fill-rule:nonzero;fill:rgb(13.333333%,40%,60%);fill-opacity:1;" d="M 15 13.332031 C 15 14.253906 14.253906 15 13.332031 15 L 1.667969 15 C 0.746094 15 0 14.253906 0 13.332031 L 0 1.667969 C 0 0.746094 0.746094 0 1.667969 0 L 13.332031 0 C 14.253906 0 15 0.746094 15 1.667969 Z M 15 13.332031 "/>
<path style=" stroke:none;fill-rule:nonzero;fill:rgb(100%,100%,100%);fill-opacity:1;" d="M 4.699219 3.050781 C 4.699219 2.78125 4.878906 2.625 5.171875 2.625 C 5.453125 2.625 5.664062 2.78125 5.664062 3.050781 L 5.664062 4.839844 L 9.34375 4.839844 L 9.34375 3.050781 C 9.34375 2.78125 9.511719 2.625 9.804688 2.625 C 10.085938 2.625 10.300781 2.78125 10.300781 3.050781 L 10.300781 4.839844 L 12.019531 4.839844 C 12.324219 4.839844 12.449219 5.03125 12.449219 5.277344 C 12.449219 5.527344 12.324219 5.726562 12.03125 5.726562 L 10.300781 5.726562 L 10.300781 6.933594 C 10.300781 8.292969 10.019531 9.359375 9.480469 10.148438 C 8.78125 11.160156 7.53125 11.890625 6.148438 12.128906 C 6.09375 12.140625 6.046875 12.140625 6.003906 12.140625 C 5.753906 12.140625 5.609375 12.015625 5.566406 11.789062 C 5.554688 11.746094 5.554688 11.710938 5.554688 11.667969 C 5.554688 11.441406 5.699219 11.296875 5.957031 11.25 C 7.058594 11.058594 8.140625 10.394531 8.679688 9.609375 C 9.128906 8.957031 9.34375 8.066406 9.34375 6.738281 L 9.34375 5.726562 L 5.664062 5.726562 L 5.664062 8.496094 C 5.664062 8.777344 5.453125 8.921875 5.171875 8.921875 C 4.878906 8.921875 4.699219 8.777344 4.699219 8.496094 L 4.699219 5.726562 L 2.964844 5.726562 C 2.671875 5.726562 2.550781 5.527344 2.550781 5.277344 C 2.550781 5.03125 2.671875 4.851562 2.976562 4.851562 L 4.699219 4.851562 Z M 4.699219 3.050781 "/>
</g>
</svg>
