<?xml version="1.0" encoding="UTF-8"?>
<svg xmlns="http://www.w3.org/2000/svg" xmlns:xlink="http://www.w3.org/1999/xlink" width="15pt" height="15pt" viewBox="0 0 15 15" version="1.1">
<g id="surface1">
<path style=" stroke:none;fill-rule:nonzero;fill:rgb(23.137255%,53.333333%,76.470588%);fill-opacity:1;" d="M 15 13.332031 C 15 14.253906 14.253906 15 13.332031 15 L 1.667969 15 C 0.746094 15 0 14.253906 0 13.332031 L 0 1.667969 C 0 0.746094 0.746094 0 1.667969 0 L 13.332031 0 C 14.253906 0 15 0.746094 15 1.667969 Z M 15 13.332031 "/>
<path style=" stroke:none;fill-rule:nonzero;fill:rgb(100%,100%,100%);fill-opacity:1;" d="M 6.140625 4.617188 C 6.84375 4.617188 7.183594 5.003906 7.183594 5.734375 L 7.183594 9.722656 C 7.183594 10.457031 6.84375 10.832031 6.140625 10.832031 L 0.941406 10.832031 C 0.722656 10.832031 0.59375 10.679688 0.59375 10.441406 C 0.59375 10.191406 0.703125 10.054688 0.949219 10.054688 L 5.910156 10.054688 C 6.269531 10.054688 6.359375 9.953125 6.359375 9.625 L 6.359375 5.820312 C 6.359375 5.488281 6.269531 5.398438 5.910156 5.398438 L 1.097656 5.398438 C 0.859375 5.398438 0.75 5.261719 0.75 5.023438 C 0.75 4.773438 0.859375 4.617188 1.105469 4.617188 Z M 13.152344 4.617188 C 13.859375 4.617188 14.199219 5.003906 14.199219 5.734375 L 14.199219 9.722656 C 14.199219 10.457031 13.859375 10.832031 13.152344 10.832031 L 7.953125 10.832031 C 7.734375 10.832031 7.605469 10.679688 7.605469 10.441406 C 7.605469 10.191406 7.714844 10.054688 7.964844 10.054688 L 12.921875 10.054688 C 13.28125 10.054688 13.371094 9.953125 13.371094 9.625 L 13.371094 5.820312 C 13.371094 5.488281 13.28125 5.398438 12.921875 5.398438 L 8.109375 5.398438 C 7.871094 5.398438 7.761719 5.261719 7.761719 5.023438 C 7.761719 4.773438 7.871094 4.617188 8.121094 4.617188 Z M 13.152344 4.617188 "/>
</g>
</svg>
