<?xml version="1.0" encoding="UTF-8"?>
<svg xmlns="http://www.w3.org/2000/svg" xmlns:xlink="http://www.w3.org/1999/xlink" width="15pt" height="15pt" viewBox="0 0 15 15" version="1.1">
<g id="surface1">
<path style=" stroke:none;fill-rule:nonzero;fill:rgb(95.686275%,56.470588%,4.705882%);fill-opacity:1;" d="M 15 13.332031 C 15 14.253906 14.253906 15 13.332031 15 L 1.667969 15 C 0.746094 15 0 14.253906 0 13.332031 L 0 1.667969 C 0 0.746094 0.746094 0 1.667969 0 L 13.332031 0 C 14.253906 0 15 0.746094 15 1.667969 Z M 15 13.332031 "/>
<path style=" stroke:none;fill-rule:nonzero;fill:rgb(100%,100%,100%);fill-opacity:1;" d="M 4.128906 5.644531 C 4.128906 5.351562 4.164062 5.035156 4.21875 4.734375 C 3.9375 5.058594 3.632812 5.351562 3.316406 5.632812 C 3.222656 5.695312 3.125 5.742188 3.027344 5.742188 C 2.917969 5.742188 2.808594 5.6875 2.722656 5.589844 C 2.667969 5.511719 2.636719 5.425781 2.636719 5.351562 C 2.636719 5.21875 2.699219 5.089844 2.839844 5.003906 C 3.621094 4.40625 4.273438 3.574219 4.738281 2.632812 C 4.8125 2.511719 4.921875 2.457031 5.0625 2.457031 C 5.128906 2.457031 5.203125 2.46875 5.277344 2.5 C 5.429688 2.554688 5.515625 2.675781 5.515625 2.804688 C 5.515625 2.871094 5.496094 2.945312 5.453125 3.011719 C 5.300781 3.261719 5.128906 3.507812 4.933594 3.746094 C 5.332031 3.726562 5.710938 3.714844 6.101562 3.714844 L 11.757812 3.714844 C 11.953125 3.714844 12.050781 3.867188 12.050781 4.09375 C 12.050781 4.300781 11.953125 4.453125 11.757812 4.453125 L 10.859375 4.453125 L 10.859375 6.292969 L 12.148438 6.292969 C 12.34375 6.292969 12.449219 6.445312 12.449219 6.671875 C 12.449219 6.890625 12.34375 7.050781 12.148438 7.050781 L 10.859375 7.050781 L 10.859375 8.9375 L 11.875 8.9375 C 12.070312 8.9375 12.167969 9.089844 12.167969 9.304688 C 12.167969 9.511719 12.070312 9.683594 11.875 9.683594 L 3.078125 9.683594 C 2.886719 9.683594 2.789062 9.523438 2.789062 9.304688 C 2.789062 9.097656 2.886719 8.9375 3.078125 8.9375 L 4.128906 8.9375 L 4.128906 7.050781 L 2.832031 7.050781 C 2.648438 7.050781 2.539062 6.890625 2.539062 6.671875 C 2.539062 6.457031 2.648438 6.292969 2.832031 6.292969 L 4.128906 6.292969 Z M 4.640625 10.484375 C 4.640625 10.527344 4.628906 10.574219 4.609375 10.625 C 4.359375 11.246094 3.980469 11.871094 3.558594 12.347656 C 3.449219 12.457031 3.328125 12.511719 3.199219 12.511719 C 3.089844 12.511719 2.992188 12.480469 2.894531 12.402344 C 2.796875 12.328125 2.746094 12.230469 2.746094 12.109375 C 2.746094 12.023438 2.777344 11.925781 2.863281 11.839844 C 3.242188 11.460938 3.578125 10.941406 3.828125 10.335938 C 3.882812 10.195312 4 10.117188 4.152344 10.117188 C 4.207031 10.117188 4.273438 10.128906 4.335938 10.148438 C 4.53125 10.203125 4.640625 10.335938 4.640625 10.484375 Z M 6.125 6.292969 L 6.125 4.453125 L 4.890625 4.453125 L 4.890625 6.292969 Z M 6.125 8.9375 L 6.125 7.050781 L 4.890625 7.050781 L 4.890625 8.9375 Z M 6.125 10.160156 C 6.296875 10.160156 6.425781 10.257812 6.460938 10.410156 C 6.589844 10.953125 6.664062 11.582031 6.710938 12.132812 L 6.710938 12.164062 C 6.710938 12.359375 6.546875 12.492188 6.320312 12.511719 L 6.265625 12.511719 C 6.058594 12.511719 5.898438 12.394531 5.886719 12.207031 C 5.863281 11.699219 5.800781 11.082031 5.691406 10.53125 L 5.691406 10.476562 C 5.691406 10.324219 5.820312 10.203125 6.015625 10.171875 C 6.046875 10.160156 6.089844 10.160156 6.125 10.160156 Z M 8.105469 6.292969 L 8.105469 4.453125 L 6.859375 4.453125 L 6.859375 6.292969 Z M 8.105469 8.9375 L 8.105469 7.050781 L 6.859375 7.050781 L 6.859375 8.9375 Z M 8.367188 10.140625 C 8.539062 10.140625 8.660156 10.214844 8.714844 10.367188 C 8.917969 10.910156 9.09375 11.484375 9.199219 12.003906 C 9.210938 12.035156 9.210938 12.078125 9.210938 12.109375 C 9.210938 12.285156 9.082031 12.414062 8.875 12.457031 C 8.820312 12.46875 8.777344 12.480469 8.722656 12.480469 C 8.550781 12.480469 8.410156 12.382812 8.386719 12.207031 C 8.3125 11.699219 8.140625 11.09375 7.964844 10.574219 C 7.953125 10.539062 7.945312 10.496094 7.945312 10.464844 C 7.945312 10.3125 8.050781 10.195312 8.226562 10.160156 C 8.28125 10.148438 8.324219 10.140625 8.367188 10.140625 Z M 10.109375 6.292969 L 10.109375 4.453125 L 8.832031 4.453125 L 8.832031 6.292969 Z M 10.109375 8.9375 L 10.109375 7.050781 L 8.832031 7.050781 L 8.832031 8.9375 Z M 10.738281 10.105469 C 10.871094 10.105469 10.976562 10.160156 11.054688 10.238281 C 11.496094 10.789062 11.84375 11.308594 12.125 11.859375 C 12.160156 11.925781 12.167969 11.992188 12.167969 12.046875 C 12.167969 12.195312 12.082031 12.328125 11.929688 12.402344 C 11.867188 12.433594 11.789062 12.457031 11.726562 12.457031 C 11.585938 12.457031 11.453125 12.390625 11.378906 12.273438 C 11.109375 11.71875 10.792969 11.179688 10.382812 10.660156 C 10.347656 10.605469 10.328125 10.539062 10.328125 10.472656 C 10.328125 10.367188 10.382812 10.257812 10.511719 10.171875 C 10.585938 10.128906 10.664062 10.105469 10.738281 10.105469 Z M 10.738281 10.105469 "/>
</g>
</svg>
