<?xml version="1.0" encoding="UTF-8"?>
<svg xmlns="http://www.w3.org/2000/svg" xmlns:xlink="http://www.w3.org/1999/xlink" width="15pt" height="15pt" viewBox="0 0 15 15" version="1.1">
<g id="surface1">
<path style=" stroke:none;fill-rule:nonzero;fill:rgb(46.666667%,69.803922%,33.333333%);fill-opacity:1;" d="M 15 13.332031 C 15 14.253906 14.253906 15 13.332031 15 L 1.667969 15 C 0.746094 15 0 14.253906 0 13.332031 L 0 1.667969 C 0 0.746094 0.746094 0 1.667969 0 L 13.332031 0 C 14.253906 0 15 0.746094 15 1.667969 Z M 15 13.332031 "/>
<path style=" stroke:none;fill-rule:nonzero;fill:rgb(100%,100%,100%);fill-opacity:1;" d="M 5.875 4.636719 C 6.082031 4.636719 6.191406 4.785156 6.191406 5.003906 C 6.191406 5.230469 6.082031 5.394531 5.875 5.394531 L 4.910156 5.394531 L 4.910156 7.539062 C 5.226562 7.429688 5.527344 7.320312 5.777344 7.214844 C 5.84375 7.191406 5.886719 7.179688 5.941406 7.179688 C 6.070312 7.179688 6.15625 7.257812 6.210938 7.417969 C 6.242188 7.484375 6.253906 7.550781 6.253906 7.605469 C 6.253906 7.722656 6.191406 7.820312 6.039062 7.886719 C 5.714844 8.035156 5.324219 8.199219 4.910156 8.339844 L 4.910156 11.460938 C 4.910156 12.242188 4.609375 12.480469 3.828125 12.480469 C 3.449219 12.480469 3.1875 12.457031 2.949219 12.390625 C 2.765625 12.347656 2.667969 12.207031 2.667969 12.011719 C 2.667969 11.980469 2.667969 11.949219 2.679688 11.90625 C 2.710938 11.71875 2.832031 11.601562 3.003906 11.601562 C 3.035156 11.601562 3.082031 11.601562 3.113281 11.613281 C 3.285156 11.65625 3.535156 11.6875 3.6875 11.6875 C 4.035156 11.6875 4.109375 11.621094 4.109375 11.308594 L 4.109375 8.609375 C 3.707031 8.730469 3.328125 8.839844 2.992188 8.925781 C 2.949219 8.9375 2.917969 8.9375 2.886719 8.9375 C 2.699219 8.9375 2.570312 8.828125 2.527344 8.613281 C 2.515625 8.558594 2.503906 8.515625 2.503906 8.460938 C 2.503906 8.285156 2.601562 8.179688 2.777344 8.15625 C 3.175781 8.058594 3.644531 7.941406 4.109375 7.800781 L 4.109375 5.394531 L 2.863281 5.394531 C 2.667969 5.394531 2.558594 5.230469 2.558594 5.015625 C 2.558594 4.789062 2.667969 4.636719 2.863281 4.636719 L 4.109375 4.636719 L 4.109375 2.804688 C 4.109375 2.585938 4.25 2.480469 4.5 2.480469 C 4.757812 2.480469 4.910156 2.589844 4.910156 2.804688 L 4.910156 4.636719 Z M 10.945312 7.429688 C 11.53125 7.429688 11.824219 7.679688 11.824219 8.285156 L 11.824219 11.480469 C 11.824219 12.078125 11.53125 12.339844 10.945312 12.339844 L 7.488281 12.339844 C 6.914062 12.339844 6.613281 12.078125 6.613281 11.480469 L 6.613281 8.285156 C 6.613281 7.679688 6.914062 7.429688 7.488281 7.429688 Z M 7.445312 5.339844 C 7.445312 5.742188 7.621094 5.804688 9.441406 5.804688 C 10.976562 5.804688 11.226562 5.707031 11.367188 5.480469 C 11.445312 5.359375 11.507812 5.121094 11.542969 4.820312 C 11.5625 4.625 11.683594 4.527344 11.886719 4.527344 L 11.953125 4.527344 C 12.179688 4.546875 12.320312 4.679688 12.320312 4.863281 L 12.320312 4.90625 C 12.277344 5.394531 12.179688 5.792969 11.953125 6.078125 C 11.683594 6.421875 11.3125 6.5625 9.429688 6.5625 C 7.011719 6.5625 6.632812 6.445312 6.632812 5.535156 L 6.632812 2.859375 C 6.632812 2.664062 6.785156 2.554688 7.035156 2.554688 C 7.273438 2.554688 7.445312 2.664062 7.445312 2.859375 L 7.445312 3.929688 C 8.765625 3.757812 10.296875 3.367188 11.28125 2.945312 C 11.355469 2.914062 11.421875 2.902344 11.488281 2.902344 C 11.636719 2.902344 11.757812 3 11.824219 3.160156 C 11.855469 3.238281 11.867188 3.304688 11.867188 3.355469 C 11.867188 3.507812 11.78125 3.617188 11.617188 3.683594 C 10.425781 4.148438 8.886719 4.496094 7.445312 4.644531 Z M 11.019531 8.417969 C 11.019531 8.199219 10.914062 8.144531 10.707031 8.144531 L 7.714844 8.144531 C 7.511719 8.144531 7.414062 8.199219 7.414062 8.417969 L 7.414062 9.476562 L 11.019531 9.476562 Z M 7.414062 10.171875 L 7.414062 11.332031 C 7.414062 11.546875 7.511719 11.601562 7.714844 11.601562 L 10.707031 11.601562 C 10.914062 11.601562 11.019531 11.546875 11.019531 11.332031 L 11.019531 10.171875 Z M 7.414062 10.171875 "/>
</g>
</svg>
