<?xml version="1.0" encoding="UTF-8"?>
<svg xmlns="http://www.w3.org/2000/svg" xmlns:xlink="http://www.w3.org/1999/xlink" width="15pt" height="15pt" viewBox="0 0 15 15" version="1.1">
<g id="surface1">
<path style=" stroke:none;fill-rule:nonzero;fill:rgb(86.666667%,18.039216%,26.666667%);fill-opacity:1;" d="M 15 13.332031 C 15 14.253906 14.253906 15 13.332031 15 L 1.667969 15 C 0.746094 15 0 14.253906 0 13.332031 L 0 1.667969 C 0 0.746094 0.746094 0 1.667969 0 L 13.332031 0 C 14.253906 0 15 0.746094 15 1.667969 Z M 15 13.332031 "/>
<path style=" stroke:none;fill-rule:nonzero;fill:rgb(100%,100%,100%);fill-opacity:1;" d="M 2.960938 4.265625 C 2.765625 4.265625 2.65625 4.121094 2.65625 3.90625 C 2.65625 3.679688 2.765625 3.558594 2.960938 3.558594 L 4.800781 3.558594 L 4.800781 2.800781 C 4.800781 2.605469 4.953125 2.496094 5.183594 2.496094 C 5.410156 2.496094 5.539062 2.605469 5.539062 2.800781 L 5.539062 3.558594 L 6.828125 3.558594 C 7.023438 3.558594 7.132812 3.679688 7.132812 3.894531 C 7.132812 4.121094 7.023438 4.265625 6.828125 4.265625 L 5.765625 4.265625 C 6.101562 4.742188 6.546875 5.140625 6.96875 5.410156 C 7.089844 5.488281 7.140625 5.597656 7.140625 5.703125 C 7.140625 5.78125 7.109375 5.855469 7.066406 5.933594 C 6.992188 6.019531 6.894531 6.0625 6.785156 6.0625 C 6.710938 6.0625 6.621094 6.03125 6.535156 5.976562 C 6.144531 5.671875 5.636719 5.085938 5.421875 4.621094 C 5.484375 4.945312 5.539062 5.359375 5.539062 5.652344 L 5.539062 6.59375 C 5.539062 6.777344 5.410156 6.886719 5.183594 6.886719 C 4.953125 6.886719 4.800781 6.777344 4.800781 6.59375 L 4.800781 5.652344 C 4.800781 5.367188 4.847656 4.933594 4.921875 4.644531 C 4.554688 5.410156 3.742188 6.214844 3.070312 6.679688 C 2.992188 6.734375 2.90625 6.765625 2.820312 6.765625 C 2.710938 6.765625 2.601562 6.710938 2.527344 6.613281 C 2.460938 6.539062 2.441406 6.453125 2.441406 6.375 C 2.441406 6.257812 2.496094 6.136719 2.601562 6.074219 C 3.328125 5.628906 4.035156 5 4.519531 4.265625 Z M 2.9375 9.5625 C 2.753906 9.5625 2.65625 9.398438 2.65625 9.191406 C 2.65625 8.988281 2.753906 8.824219 2.9375 8.824219 L 12.007812 8.824219 C 12.191406 8.824219 12.289062 8.988281 12.289062 9.191406 C 12.289062 9.398438 12.191406 9.5625 12.007812 9.5625 L 7.945312 9.5625 L 7.945312 11.523438 C 7.945312 12.238281 7.597656 12.488281 6.664062 12.488281 C 6.265625 12.488281 5.917969 12.441406 5.648438 12.378906 C 5.464844 12.335938 5.34375 12.195312 5.34375 12.019531 C 5.34375 11.976562 5.34375 11.945312 5.367188 11.902344 C 5.421875 11.707031 5.5625 11.609375 5.710938 11.609375 C 5.734375 11.609375 5.765625 11.609375 5.800781 11.621094 C 6.046875 11.683594 6.308594 11.726562 6.578125 11.726562 C 7 11.726562 7.089844 11.652344 7.089844 11.371094 L 7.089844 9.5625 Z M 5.605469 10.320312 C 5.605469 10.394531 5.570312 10.492188 5.484375 10.589844 C 5.019531 11.144531 4.238281 11.816406 3.535156 12.226562 C 3.460938 12.269531 3.382812 12.292969 3.296875 12.292969 C 3.15625 12.292969 3.015625 12.226562 2.929688 12.085938 C 2.886719 12.011719 2.863281 11.945312 2.863281 11.871094 C 2.863281 11.738281 2.9375 11.621094 3.070312 11.542969 C 3.699219 11.1875 4.433594 10.601562 4.847656 10.125 C 4.933594 10.015625 5.039062 9.960938 5.171875 9.960938 C 5.246094 9.960938 5.324219 9.984375 5.410156 10.027344 C 5.527344 10.09375 5.605469 10.199219 5.605469 10.320312 Z M 4.109375 8 C 3.925781 8 3.839844 7.828125 3.839844 7.632812 C 3.839844 7.449219 3.925781 7.265625 4.109375 7.265625 L 10.824219 7.265625 C 11.011719 7.265625 11.097656 7.449219 11.097656 7.632812 C 11.097656 7.828125 11.011719 8 10.824219 8 Z M 7.792969 4.265625 C 7.609375 4.265625 7.5 4.125 7.5 3.90625 C 7.5 3.679688 7.609375 3.558594 7.792969 3.558594 L 9.308594 3.558594 L 9.308594 2.8125 C 9.308594 2.617188 9.460938 2.519531 9.6875 2.519531 C 9.914062 2.519531 10.046875 2.617188 10.046875 2.8125 L 10.046875 3.558594 L 11.984375 3.558594 C 12.179688 3.558594 12.289062 3.679688 12.289062 3.894531 C 12.289062 4.125 12.179688 4.265625 11.984375 4.265625 L 10.316406 4.265625 C 10.859375 4.988281 11.648438 5.5625 12.375 5.964844 C 12.496094 6.03125 12.558594 6.160156 12.558594 6.289062 C 12.558594 6.367188 12.535156 6.453125 12.496094 6.515625 C 12.417969 6.660156 12.289062 6.710938 12.167969 6.710938 C 12.09375 6.710938 12.015625 6.691406 11.941406 6.648438 C 11.152344 6.160156 10.4375 5.511719 9.925781 4.644531 C 9.992188 4.957031 10.046875 5.359375 10.046875 5.671875 L 10.046875 6.605469 C 10.046875 6.789062 9.90625 6.898438 9.6875 6.898438 C 9.460938 6.898438 9.308594 6.789062 9.308594 6.605469 L 9.308594 5.628906 C 9.308594 5.316406 9.363281 4.957031 9.417969 4.652344 C 9.027344 5.414062 8.410156 6.050781 7.75 6.484375 C 7.671875 6.539062 7.585938 6.570312 7.511719 6.570312 C 7.414062 6.570312 7.316406 6.527344 7.238281 6.421875 C 7.195312 6.355469 7.175781 6.277344 7.175781 6.214844 C 7.175781 6.09375 7.238281 5.988281 7.335938 5.921875 C 8.019531 5.53125 8.605469 4.9375 9.039062 4.265625 Z M 9.785156 9.972656 C 9.914062 9.972656 10.035156 10.027344 10.121094 10.101562 C 10.566406 10.582031 11.304688 11.15625 11.898438 11.445312 C 12.0625 11.523438 12.160156 11.652344 12.160156 11.804688 C 12.160156 11.878906 12.136719 11.957031 12.082031 12.03125 C 11.996094 12.171875 11.867188 12.25 11.714844 12.25 C 11.648438 12.25 11.574219 12.226562 11.496094 12.195312 C 10.792969 11.835938 9.980469 11.175781 9.449219 10.570312 C 9.394531 10.503906 9.363281 10.417969 9.363281 10.332031 C 9.363281 10.222656 9.417969 10.101562 9.546875 10.039062 C 9.625 9.996094 9.710938 9.972656 9.785156 9.972656 Z M 9.785156 9.972656 "/>
</g>
</svg>
