<?xml version="1.0" encoding="UTF-8"?>
<svg xmlns="http://www.w3.org/2000/svg" xmlns:xlink="http://www.w3.org/1999/xlink" width="15pt" height="15pt" viewBox="0 0 15 15" version="1.1">
<g id="surface1">
<path style=" stroke:none;fill-rule:nonzero;fill:rgb(86.666667%,18.039216%,26.666667%);fill-opacity:1;" d="M 15 13.332031 C 15 14.253906 14.253906 15 13.332031 15 L 1.667969 15 C 0.746094 15 0 14.253906 0 13.332031 L 0 1.667969 C 0 0.746094 0.746094 0 1.667969 0 L 13.332031 0 C 14.253906 0 15 0.746094 15 1.667969 Z M 15 13.332031 "/>
<path style=" stroke:none;fill-rule:nonzero;fill:rgb(100%,100%,100%);fill-opacity:1;" d="M 4.550781 6.492188 C 4.636719 6.570312 4.691406 6.6875 4.691406 6.808594 C 4.691406 6.894531 4.660156 6.980469 4.59375 7.066406 C 4.507812 7.175781 4.378906 7.230469 4.257812 7.230469 C 4.148438 7.230469 4.050781 7.195312 3.976562 7.121094 C 3.554688 6.730469 3 6.320312 2.535156 6.039062 C 2.4375 5.984375 2.382812 5.875 2.382812 5.746094 C 2.382812 5.660156 2.417969 5.570312 2.46875 5.484375 C 2.558594 5.378906 2.675781 5.324219 2.804688 5.324219 C 2.882812 5.324219 2.957031 5.34375 3.023438 5.378906 C 3.542969 5.667969 4.085938 6.09375 4.550781 6.492188 Z M 4.714844 9.050781 C 4.714844 9.105469 4.703125 9.148438 4.691406 9.203125 C 4.378906 10.15625 3.902344 11.257812 3.347656 12.160156 C 3.261719 12.300781 3.128906 12.363281 2.980469 12.363281 C 2.902344 12.363281 2.816406 12.34375 2.730469 12.300781 C 2.601562 12.222656 2.511719 12.09375 2.511719 11.953125 C 2.511719 11.878906 2.535156 11.789062 2.589844 11.714844 C 3.097656 10.890625 3.597656 9.875 3.890625 8.921875 C 3.941406 8.734375 4.085938 8.648438 4.257812 8.648438 C 4.300781 8.648438 4.355469 8.660156 4.398438 8.671875 C 4.605469 8.734375 4.714844 8.886719 4.714844 9.050781 Z M 4.996094 4.121094 C 4.996094 4.21875 4.960938 4.316406 4.898438 4.390625 C 4.808594 4.488281 4.691406 4.53125 4.582031 4.53125 C 4.464844 4.53125 4.34375 4.488281 4.257812 4.402344 C 3.890625 4.042969 3.457031 3.6875 3 3.382812 C 2.902344 3.320312 2.847656 3.199219 2.847656 3.082031 C 2.847656 2.992188 2.882812 2.894531 2.945312 2.820312 C 3.035156 2.710938 3.152344 2.648438 3.28125 2.648438 C 3.359375 2.648438 3.445312 2.667969 3.519531 2.722656 C 3.964844 3.003906 4.441406 3.382812 4.855469 3.785156 C 4.953125 3.882812 4.996094 4 4.996094 4.121094 Z M 5.234375 6.179688 C 5.039062 6.179688 4.929688 6.046875 4.929688 5.820312 C 4.929688 5.605469 5.039062 5.464844 5.234375 5.464844 L 6.816406 5.464844 L 6.816406 4.28125 L 5.578125 4.28125 C 5.386719 4.28125 5.277344 4.140625 5.277344 3.914062 C 5.277344 3.699219 5.386719 3.566406 5.578125 3.566406 L 6.816406 3.566406 L 6.816406 2.777344 C 6.816406 2.59375 6.957031 2.484375 7.183594 2.484375 C 7.421875 2.484375 7.574219 2.59375 7.574219 2.777344 L 7.574219 3.566406 L 9.695312 3.566406 L 9.695312 2.777344 C 9.695312 2.59375 9.847656 2.496094 10.078125 2.496094 C 10.3125 2.496094 10.453125 2.59375 10.453125 2.777344 L 10.453125 3.566406 L 11.894531 3.566406 C 12.089844 3.566406 12.199219 3.699219 12.199219 3.914062 C 12.199219 4.140625 12.089844 4.28125 11.894531 4.28125 L 10.453125 4.28125 L 10.453125 5.464844 L 12.253906 5.464844 C 12.449219 5.464844 12.558594 5.59375 12.558594 5.820312 C 12.558594 6.039062 12.449219 6.179688 12.253906 6.179688 L 8.980469 6.179688 L 8.980469 7.101562 L 11.160156 7.101562 C 11.796875 7.101562 12.078125 7.382812 12.078125 7.957031 L 12.078125 11.410156 C 12.078125 12.128906 11.753906 12.410156 10.976562 12.410156 C 10.648438 12.410156 10.3125 12.386719 10.011719 12.332031 C 9.847656 12.300781 9.71875 12.160156 9.71875 11.964844 C 9.71875 11.933594 9.71875 11.898438 9.730469 11.867188 C 9.773438 11.652344 9.925781 11.554688 10.066406 11.554688 C 10.085938 11.554688 10.109375 11.554688 10.128906 11.5625 C 10.402344 11.628906 10.671875 11.652344 10.878906 11.652344 C 11.234375 11.652344 11.320312 11.5625 11.320312 11.25 L 11.320312 8.066406 C 11.320312 7.847656 11.214844 7.792969 10.984375 7.792969 L 8.980469 7.792969 L 8.980469 10.449219 L 9.503906 10.449219 C 9.699219 10.449219 9.785156 10.382812 9.785156 10.175781 L 9.785156 8.691406 C 9.785156 8.507812 9.933594 8.402344 10.140625 8.402344 C 10.324219 8.402344 10.519531 8.507812 10.519531 8.691406 L 10.519531 10.351562 C 10.519531 10.914062 10.28125 11.132812 9.730469 11.132812 L 7.53125 11.132812 C 6.976562 11.132812 6.738281 10.914062 6.738281 10.351562 L 6.738281 8.691406 C 6.738281 8.507812 6.921875 8.402344 7.109375 8.402344 C 7.3125 8.402344 7.476562 8.507812 7.476562 8.691406 L 7.476562 10.175781 C 7.476562 10.382812 7.5625 10.449219 7.757812 10.449219 L 8.222656 10.449219 L 8.222656 7.792969 L 6.371094 7.792969 C 6.152344 7.792969 6.046875 7.847656 6.046875 8.066406 L 6.046875 12.234375 C 6.046875 12.464844 5.882812 12.570312 5.632812 12.570312 C 5.40625 12.570312 5.246094 12.464844 5.246094 12.234375 L 5.246094 7.957031 C 5.246094 7.382812 5.527344 7.101562 6.164062 7.101562 L 8.222656 7.101562 L 8.222656 6.179688 Z M 9.695312 4.28125 L 7.574219 4.28125 L 7.574219 5.464844 L 9.695312 5.464844 Z M 9.695312 4.28125 "/>
</g>
</svg>
