<?xml version="1.0" encoding="UTF-8"?>
<svg xmlns="http://www.w3.org/2000/svg" xmlns:xlink="http://www.w3.org/1999/xlink" width="15pt" height="15pt" viewBox="0 0 15 15" version="1.1">
<g id="surface1">
<path style=" stroke:none;fill-rule:nonzero;fill:rgb(95.686275%,56.470588%,4.705882%);fill-opacity:1;" d="M 15 13.332031 C 15 14.253906 14.253906 15 13.332031 15 L 1.667969 15 C 0.746094 15 0 14.253906 0 13.332031 L 0 1.667969 C 0 0.746094 0.746094 0 1.667969 0 L 13.332031 0 C 14.253906 0 15 0.746094 15 1.667969 Z M 15 13.332031 "/>
<path style=" stroke:none;fill-rule:nonzero;fill:rgb(100%,100%,100%);fill-opacity:1;" d="M 4.6875 8.15625 C 4.6875 7.917969 4.695312 7.503906 4.773438 7.203125 C 4.261719 7.753906 3.710938 8.253906 3.160156 8.644531 C 3.050781 8.71875 2.941406 8.761719 2.84375 8.761719 C 2.726562 8.761719 2.617188 8.707031 2.53125 8.578125 C 2.476562 8.503906 2.441406 8.414062 2.441406 8.328125 C 2.441406 8.210938 2.496094 8.101562 2.636719 8.003906 C 3.929688 7.171875 5.023438 5.914062 5.738281 4.589844 L 2.941406 4.589844 C 2.746094 4.589844 2.636719 4.40625 2.636719 4.191406 C 2.636719 3.964844 2.746094 3.800781 2.941406 3.800781 L 6.128906 3.800781 C 6.277344 3.441406 6.410156 3.074219 6.496094 2.71875 C 6.550781 2.523438 6.667969 2.433594 6.863281 2.433594 C 6.90625 2.433594 6.949219 2.433594 6.996094 2.445312 C 7.222656 2.488281 7.308594 2.621094 7.308594 2.761719 C 7.308594 2.804688 7.296875 2.847656 7.285156 2.890625 C 7.199219 3.195312 7.089844 3.496094 6.972656 3.800781 L 12.171875 3.800781 C 12.378906 3.800781 12.488281 3.964844 12.488281 4.191406 C 12.488281 4.40625 12.378906 4.589844 12.171875 4.589844 L 6.605469 4.589844 C 6.375 5.015625 6.136719 5.425781 5.867188 5.828125 C 6.074219 5.773438 6.472656 5.75 6.777344 5.75 L 10.144531 5.75 C 10.808594 5.75 11.109375 6.023438 11.109375 6.660156 L 11.109375 11.394531 C 11.109375 12.152344 10.71875 12.433594 9.800781 12.433594 C 9.355469 12.433594 8.945312 12.390625 8.628906 12.316406 C 8.445312 12.273438 8.328125 12.144531 8.328125 11.949219 C 8.328125 11.914062 8.328125 11.871094 8.335938 11.828125 C 8.378906 11.644531 8.511719 11.523438 8.671875 11.523438 C 8.707031 11.523438 8.738281 11.523438 8.78125 11.546875 C 9.03125 11.613281 9.386719 11.675781 9.679688 11.675781 C 10.191406 11.675781 10.296875 11.589844 10.296875 11.222656 L 10.296875 10.105469 L 5.519531 10.105469 L 5.519531 12.21875 C 5.519531 12.414062 5.347656 12.542969 5.109375 12.542969 C 4.859375 12.542969 4.6875 12.414062 4.6875 12.21875 Z M 10.296875 6.78125 C 10.296875 6.5625 10.191406 6.488281 9.972656 6.488281 L 5.84375 6.488281 C 5.628906 6.488281 5.519531 6.5625 5.519531 6.78125 L 5.519531 7.558594 L 10.296875 7.558594 Z M 5.519531 9.371094 L 10.296875 9.371094 L 10.296875 8.296875 L 5.519531 8.296875 Z M 5.519531 9.371094 "/>
</g>
</svg>
