<?xml version="1.0" encoding="UTF-8"?>
<svg xmlns="http://www.w3.org/2000/svg" xmlns:xlink="http://www.w3.org/1999/xlink" width="15pt" height="15pt" viewBox="0 0 15 15" version="1.1">
<g id="surface1">
<path style=" stroke:none;fill-rule:nonzero;fill:rgb(95.686275%,56.470588%,4.705882%);fill-opacity:1;" d="M 15 13.332031 C 15 14.253906 14.253906 15 13.332031 15 L 1.667969 15 C 0.746094 15 0 14.253906 0 13.332031 L 0 1.667969 C 0 0.746094 0.746094 0 1.667969 0 L 13.332031 0 C 14.253906 0 15 0.746094 15 1.667969 Z M 15 13.332031 "/>
<path style=" stroke:none;fill-rule:nonzero;fill:rgb(100%,100%,100%);fill-opacity:1;" d="M 11.207031 4.027344 C 11.84375 4.027344 12.136719 4.277344 12.136719 4.863281 L 12.136719 6.347656 C 12.136719 6.554688 11.984375 6.671875 11.726562 6.671875 C 11.488281 6.671875 11.3125 6.554688 11.3125 6.347656 L 11.3125 5.035156 C 11.3125 4.796875 11.207031 4.742188 10.96875 4.742188 L 3.988281 4.742188 C 3.773438 4.742188 3.664062 4.796875 3.664062 5.035156 L 3.664062 6.347656 C 3.664062 6.554688 3.503906 6.671875 3.253906 6.671875 C 3.003906 6.671875 2.839844 6.554688 2.839844 6.347656 L 2.839844 4.863281 C 2.839844 4.277344 3.125 4.027344 3.773438 4.027344 L 4.867188 4.027344 C 4.683594 3.714844 4.433594 3.347656 4.28125 3.140625 C 4.238281 3.074219 4.21875 3.019531 4.21875 2.96875 C 4.21875 2.847656 4.316406 2.730469 4.457031 2.675781 C 4.53125 2.640625 4.609375 2.621094 4.671875 2.621094 C 4.800781 2.621094 4.910156 2.675781 4.996094 2.792969 C 5.226562 3.117188 5.527344 3.617188 5.734375 4.027344 L 7.25 4.027344 C 7.109375 3.703125 6.902344 3.304688 6.71875 3 C 6.6875 2.945312 6.675781 2.890625 6.675781 2.847656 C 6.675781 2.71875 6.761719 2.597656 6.925781 2.554688 C 6.992188 2.535156 7.054688 2.523438 7.109375 2.523438 C 7.25 2.523438 7.359375 2.578125 7.445312 2.71875 C 7.652344 3.042969 7.890625 3.5625 8.085938 4.027344 L 9.265625 4.027344 C 9.558594 3.605469 9.816406 3.171875 9.980469 2.816406 C 10.066406 2.640625 10.1875 2.578125 10.339844 2.578125 C 10.402344 2.578125 10.46875 2.589844 10.535156 2.609375 C 10.71875 2.664062 10.804688 2.773438 10.804688 2.902344 C 10.804688 2.96875 10.78125 3.03125 10.75 3.097656 C 10.609375 3.378906 10.402344 3.703125 10.175781 4.027344 Z M 10.578125 9.238281 C 11.183594 9.238281 11.488281 9.488281 11.488281 10.085938 L 11.488281 11.484375 C 11.488281 12.078125 11.183594 12.328125 10.578125 12.328125 L 4.402344 12.328125 C 3.796875 12.328125 3.492188 12.078125 3.492188 11.484375 L 3.492188 10.085938 C 3.492188 9.488281 3.796875 9.238281 4.402344 9.238281 L 6.339844 9.238281 C 6.515625 8.9375 6.667969 8.601562 6.808594 8.277344 L 5.300781 8.277344 C 4.628906 8.277344 4.371094 8.058594 4.371094 7.472656 L 4.371094 6.367188 C 4.371094 5.773438 4.628906 5.566406 5.300781 5.566406 L 9.667969 5.566406 C 10.339844 5.566406 10.597656 5.773438 10.597656 6.367188 L 10.597656 7.472656 C 10.597656 8.058594 10.339844 8.277344 9.667969 8.277344 L 7.664062 8.277344 C 7.53125 8.613281 7.382812 8.9375 7.1875 9.238281 Z M 10.328125 11.589844 C 10.566406 11.589844 10.664062 11.535156 10.664062 11.320312 L 10.664062 10.226562 C 10.664062 10.007812 10.566406 9.953125 10.328125 9.953125 L 4.652344 9.953125 C 4.414062 9.953125 4.316406 10.007812 4.316406 10.226562 L 4.316406 11.320312 C 4.316406 11.535156 4.414062 11.589844 4.652344 11.589844 Z M 9.484375 7.605469 C 9.699219 7.605469 9.796875 7.550781 9.796875 7.332031 L 9.796875 6.519531 C 9.796875 6.316406 9.699219 6.261719 9.484375 6.261719 L 5.484375 6.261719 C 5.257812 6.261719 5.171875 6.316406 5.171875 6.519531 L 5.171875 7.332031 C 5.171875 7.550781 5.257812 7.605469 5.484375 7.605469 Z M 9.484375 7.605469 "/>
</g>
</svg>
