<?xml version="1.0" encoding="UTF-8"?>
<svg xmlns="http://www.w3.org/2000/svg" xmlns:xlink="http://www.w3.org/1999/xlink" width="15pt" height="15pt" viewBox="0 0 15 15" version="1.1">
<g id="surface1">
<path style=" stroke:none;fill-rule:nonzero;fill:rgb(13.333333%,40%,60%);fill-opacity:1;" d="M 15 13.332031 C 15 14.253906 14.253906 15 13.332031 15 L 1.667969 15 C 0.746094 15 0 14.253906 0 13.332031 L 0 1.667969 C 0 0.746094 0.746094 0 1.667969 0 L 13.332031 0 C 14.253906 0 15 0.746094 15 1.667969 Z M 15 13.332031 "/>
<path style=" stroke:none;fill-rule:nonzero;fill:rgb(100%,100%,100%);fill-opacity:1;" d="M 3.945312 9.46875 C 3.75 9.46875 3.628906 9.328125 3.628906 9.097656 C 3.628906 8.859375 3.75 8.707031 3.945312 8.707031 L 11.074219 8.707031 C 11.265625 8.707031 11.386719 8.859375 11.386719 9.089844 C 11.386719 9.316406 11.265625 9.46875 11.074219 9.46875 L 7.875 9.46875 L 7.875 11.503906 L 12.027344 11.503906 C 12.230469 11.503906 12.339844 11.65625 12.339844 11.882812 C 12.339844 12.109375 12.230469 12.273438 12.027344 12.273438 L 2.980469 12.273438 C 2.785156 12.273438 2.664062 12.109375 2.664062 11.882812 C 2.664062 11.644531 2.785156 11.503906 2.980469 11.503906 L 7.019531 11.503906 L 7.019531 9.46875 Z M 11.203125 3.855469 C 11.839844 3.855469 12.15625 4.136719 12.15625 4.753906 L 12.15625 5.425781 C 12.15625 5.632812 12.003906 5.730469 11.753906 5.730469 C 11.503906 5.730469 11.34375 5.632812 11.34375 5.425781 L 11.34375 4.925781 C 11.34375 4.6875 11.214844 4.613281 10.996094 4.613281 L 8.796875 4.613281 L 8.796875 6.488281 C 8.796875 6.835938 8.851562 6.878906 9.890625 6.878906 C 10.757812 6.878906 10.867188 6.8125 10.996094 6.683594 C 11.074219 6.605469 11.09375 6.421875 11.105469 6.195312 C 11.128906 6.023438 11.246094 5.945312 11.429688 5.945312 C 11.460938 5.945312 11.496094 5.945312 11.539062 5.957031 C 11.789062 5.976562 11.917969 6.109375 11.917969 6.304688 L 11.917969 6.359375 C 11.886719 6.738281 11.796875 7.082031 11.65625 7.234375 C 11.460938 7.453125 11.179688 7.601562 10.042969 7.613281 L 9.816406 7.613281 C 9.15625 7.613281 8.6875 7.570312 8.398438 7.460938 C 8.105469 7.355469 7.984375 7.148438 7.984375 6.769531 L 7.984375 4.613281 L 6.71875 4.613281 C 6.628906 6.5 5.546875 7.570312 3.414062 8.125 C 3.359375 8.144531 3.316406 8.144531 3.273438 8.144531 C 3.089844 8.144531 2.957031 8.035156 2.914062 7.839844 C 2.902344 7.796875 2.894531 7.746094 2.894531 7.699219 C 2.894531 7.527344 3.011719 7.410156 3.207031 7.363281 C 5.003906 6.921875 5.839844 6.066406 5.914062 4.613281 L 4.03125 4.613281 C 3.804688 4.613281 3.683594 4.6875 3.683594 4.925781 L 3.683594 5.835938 C 3.683594 6.054688 3.511719 6.164062 3.261719 6.164062 C 3.011719 6.164062 2.859375 6.054688 2.859375 5.835938 L 2.859375 4.753906 C 2.859375 4.136719 3.175781 3.855469 3.8125 3.855469 L 7.03125 3.855469 L 7.03125 2.902344 C 7.03125 2.695312 7.183594 2.597656 7.441406 2.597656 C 7.703125 2.597656 7.855469 2.695312 7.855469 2.902344 L 7.855469 3.855469 Z M 11.203125 3.855469 "/>
</g>
</svg>
