<?xml version="1.0" encoding="UTF-8"?>
<svg xmlns="http://www.w3.org/2000/svg" xmlns:xlink="http://www.w3.org/1999/xlink" width="15pt" height="15pt" viewBox="0 0 15 15" version="1.1">
<g id="surface1">
<path style=" stroke:none;fill-rule:nonzero;fill:rgb(95.686275%,56.470588%,4.705882%);fill-opacity:1;" d="M 15 13.332031 C 15 14.253906 14.253906 15 13.332031 15 L 1.667969 15 C 0.746094 15 0 14.253906 0 13.332031 L 0 1.667969 C 0 0.746094 0.746094 0 1.667969 0 L 13.332031 0 C 14.253906 0 15 0.746094 15 1.667969 Z M 15 13.332031 "/>
<path style=" stroke:none;fill-rule:nonzero;fill:rgb(100%,100%,100%);fill-opacity:1;" d="M 4.988281 8.9375 C 4.792969 10.300781 4.378906 11.386719 3.601562 12.285156 C 3.503906 12.390625 3.371094 12.445312 3.242188 12.445312 C 3.132812 12.445312 3.027344 12.414062 2.929688 12.339844 C 2.808594 12.25 2.753906 12.121094 2.753906 12.003906 C 2.753906 11.90625 2.796875 11.796875 2.875 11.710938 C 4.066406 10.410156 4.304688 8.699219 4.304688 5.652344 L 4.304688 3.886719 C 4.304688 3.226562 4.628906 2.957031 5.28125 2.957031 L 10.15625 2.957031 C 10.792969 2.957031 11.117188 3.226562 11.117188 3.886719 L 11.117188 11.339844 C 11.117188 12.046875 10.828125 12.359375 9.722656 12.359375 C 9.296875 12.359375 8.886719 12.316406 8.539062 12.242188 C 8.335938 12.199219 8.203125 12.066406 8.203125 11.851562 C 8.203125 11.820312 8.203125 11.773438 8.214844 11.730469 C 8.269531 11.503906 8.410156 11.40625 8.5625 11.40625 C 8.59375 11.40625 8.625 11.40625 8.660156 11.417969 C 8.941406 11.492188 9.277344 11.535156 9.613281 11.535156 C 10.175781 11.535156 10.273438 11.449219 10.273438 11.105469 L 10.273438 8.9375 Z M 5.160156 6.292969 C 5.148438 6.898438 5.148438 7.515625 5.085938 8.125 L 10.273438 8.125 L 10.273438 6.292969 Z M 10.273438 4.050781 C 10.273438 3.832031 10.164062 3.769531 9.9375 3.769531 L 5.507812 3.769531 C 5.289062 3.769531 5.160156 3.832031 5.160156 4.050781 L 5.160156 5.480469 L 10.273438 5.480469 Z M 10.273438 4.050781 "/>
</g>
</svg>
