<?xml version="1.0" encoding="UTF-8"?>
<svg xmlns="http://www.w3.org/2000/svg" xmlns:xlink="http://www.w3.org/1999/xlink" width="15pt" height="15pt" viewBox="0 0 15 15" version="1.1">
<g id="surface1">
<path style=" stroke:none;fill-rule:nonzero;fill:rgb(86.666667%,18.039216%,26.666667%);fill-opacity:1;" d="M 7.5 0 C 3.359375 0 0 3.359375 0 7.5 C 0 11.640625 3.359375 15 7.5 15 C 11.640625 15 15 11.640625 15 7.5 C 15 3.359375 11.640625 0 7.5 0 Z M 7.5 14.167969 C 3.816406 14.167969 0.832031 11.183594 0.832031 7.5 C 0.832031 3.816406 3.816406 0.832031 7.5 0.832031 C 11.183594 0.832031 14.167969 3.816406 14.167969 7.5 C 14.167969 11.183594 11.183594 14.167969 7.5 14.167969 Z M 7.5 14.167969 "/>
<path style=" stroke:none;fill-rule:nonzero;fill:rgb(86.666667%,18.039216%,26.666667%);fill-opacity:1;" d="M 4.042969 8.972656 C 4.042969 8.53125 4.078125 8.0625 4.164062 7.554688 C 3.890625 7.890625 3.601562 8.183594 3.296875 8.410156 C 3.230469 8.464844 3.167969 8.488281 3.078125 8.488281 C 2.972656 8.488281 2.851562 8.433594 2.753906 8.324219 C 2.699219 8.238281 2.679688 8.152344 2.679688 8.066406 C 2.679688 7.945312 2.722656 7.835938 2.820312 7.761719 C 3.75 7.035156 4.457031 6.136719 4.988281 5.171875 C 5.0625 5.042969 5.171875 4.976562 5.289062 4.976562 C 5.367188 4.976562 5.441406 5 5.507812 5.042969 C 5.660156 5.117188 5.722656 5.226562 5.722656 5.355469 C 5.722656 5.421875 5.703125 5.484375 5.667969 5.550781 C 5.464844 5.917969 5.171875 6.363281 4.867188 6.753906 L 4.867188 12.257812 C 4.867188 12.464844 4.703125 12.570312 4.457031 12.570312 C 4.21875 12.570312 4.042969 12.464844 4.042969 12.257812 Z M 5.710938 2.886719 C 5.710938 2.949219 5.691406 3.027344 5.648438 3.089844 C 5.136719 3.914062 4.335938 4.757812 3.523438 5.367188 C 3.4375 5.441406 3.339844 5.472656 3.253906 5.472656 C 3.144531 5.472656 3.046875 5.421875 2.949219 5.300781 C 2.886719 5.226562 2.851562 5.140625 2.851562 5.050781 C 2.851562 4.933594 2.917969 4.824219 3.027344 4.738281 C 3.796875 4.207031 4.488281 3.449219 4.941406 2.679688 C 5.03125 2.570312 5.148438 2.515625 5.269531 2.515625 C 5.355469 2.515625 5.429688 2.539062 5.507812 2.582031 C 5.636719 2.65625 5.710938 2.765625 5.710938 2.886719 Z M 11.183594 8.660156 L 12.363281 8.660156 C 12.558594 8.660156 12.65625 8.789062 12.65625 9.007812 C 12.65625 9.210938 12.558594 9.351562 12.363281 9.351562 L 11.183594 9.351562 L 11.183594 11.421875 C 11.183594 12.171875 10.792969 12.417969 9.980469 12.417969 C 9.589844 12.417969 9.222656 12.398438 8.941406 12.332031 C 8.789062 12.300781 8.660156 12.160156 8.660156 11.964844 C 8.660156 11.933594 8.660156 11.898438 8.671875 11.867188 C 8.714844 11.652344 8.863281 11.542969 9.003906 11.542969 C 9.027344 11.542969 9.039062 11.542969 9.058594 11.554688 C 9.339844 11.628906 9.679688 11.652344 9.882812 11.652344 C 10.296875 11.652344 10.390625 11.574219 10.390625 11.226562 L 10.390625 9.351562 L 5.710938 9.351562 C 5.515625 9.351562 5.421875 9.222656 5.421875 9.015625 C 5.421875 8.789062 5.515625 8.660156 5.710938 8.660156 L 10.390625 8.660156 L 10.390625 7.824219 L 5.863281 7.824219 C 5.667969 7.824219 5.570312 7.675781 5.570312 7.480469 C 5.570312 7.273438 5.667969 7.132812 5.863281 7.132812 L 12.289062 7.132812 C 12.472656 7.132812 12.570312 7.273438 12.570312 7.480469 C 12.570312 7.675781 12.472656 7.824219 12.289062 7.824219 L 11.183594 7.824219 Z M 11.019531 2.832031 C 11.636719 2.832031 11.910156 3.070312 11.910156 3.644531 L 11.910156 5.636719 C 11.910156 6.210938 11.636719 6.449219 11.019531 6.449219 L 7.378906 6.449219 C 6.753906 6.449219 6.480469 6.210938 6.480469 5.636719 L 6.480469 3.644531 C 6.480469 3.070312 6.753906 2.832031 7.378906 2.832031 Z M 7.304688 9.601562 C 7.414062 9.601562 7.523438 9.644531 7.585938 9.710938 C 7.964844 10.078125 8.335938 10.492188 8.605469 10.859375 C 8.648438 10.925781 8.671875 11 8.671875 11.078125 C 8.671875 11.195312 8.617188 11.316406 8.496094 11.414062 C 8.398438 11.5 8.292969 11.53125 8.195312 11.53125 C 8.085938 11.53125 7.976562 11.488281 7.921875 11.402344 C 7.652344 11.011719 7.273438 10.546875 6.957031 10.21875 C 6.894531 10.15625 6.859375 10.070312 6.859375 9.992188 C 6.859375 9.882812 6.914062 9.785156 7.011719 9.699219 C 7.097656 9.636719 7.207031 9.601562 7.304688 9.601562 Z M 11.152344 4.304688 L 11.152344 3.730469 C 11.152344 3.535156 11.054688 3.480469 10.859375 3.480469 L 7.53125 3.480469 C 7.335938 3.480469 7.238281 3.535156 7.238281 3.730469 L 7.238281 4.304688 Z M 7.238281 5.539062 C 7.238281 5.746094 7.335938 5.800781 7.53125 5.800781 L 10.859375 5.800781 C 11.054688 5.800781 11.152344 5.746094 11.152344 5.539062 L 11.152344 4.945312 L 7.238281 4.945312 Z M 7.238281 5.539062 "/>
</g>
</svg>
