<?xml version="1.0" encoding="UTF-8"?>
<svg xmlns="http://www.w3.org/2000/svg" xmlns:xlink="http://www.w3.org/1999/xlink" width="15pt" height="15pt" viewBox="0 0 15 15" version="1.1">
<g id="surface1">
<path style=" stroke:none;fill-rule:nonzero;fill:rgb(16.078431%,18.431373%,20%);fill-opacity:1;" d="M 5 15 L 5 6.667969 C 5 6.667969 4.511719 7.105469 4.019531 7.46875 C 3.890625 7.566406 3.195312 7.800781 3.054688 7.902344 C 2.320312 8.453125 1.992188 9.503906 1.890625 9.640625 C 1.703125 9.898438 0 15 0 15 Z M 5 15 "/>
<path style=" stroke:none;fill-rule:nonzero;fill:rgb(29.411765%,32.941176%,36.470588%);fill-opacity:1;" d="M 13.332031 15 L 11.042969 7.605469 L 7.5 5.246094 L 4.808594 6.167969 C 4.640625 6.492188 4.167969 7.605469 4.167969 7.605469 L 3.644531 9.167969 L 0 15 Z M 13.332031 15 "/>
<path style=" stroke:none;fill-rule:nonzero;fill:rgb(16.078431%,18.431373%,20%);fill-opacity:1;" d="M 7.554688 10.71875 C 7.496094 10.503906 7.546875 10.316406 7.484375 10.105469 C 7.421875 9.894531 7.246094 9.667969 7.195312 9.488281 C 7.082031 9.113281 7.003906 8.828125 7.007812 8.75 C 7.019531 8.554688 7.378906 8.582031 7.46875 8.945312 C 7.589844 9.457031 7.753906 9.609375 7.753906 9.609375 C 7.753906 9.609375 7.789062 8.199219 7.492188 7.914062 C 7.550781 7.816406 7.609375 7.714844 7.664062 7.605469 C 7.925781 7.066406 7.933594 6.726562 7.933594 6.726562 C 7.933594 6.726562 6.882812 8.003906 6.589844 8.75 C 6.300781 9.496094 7.007812 12.082031 7.007812 12.082031 L 5.339844 15 L 7.203125 15 C 7.203125 15 7.003906 14.386719 7.007812 14.179688 C 7.011719 13.972656 7.800781 12.644531 7.839844 12.082031 C 7.859375 11.855469 7.722656 11.308594 7.554688 10.71875 Z M 14.113281 10.730469 C 13.898438 10.484375 13.347656 10.136719 12.8125 9.832031 C 12.8125 9.832031 11.839844 7.5 11.300781 6.804688 C 10.765625 6.109375 9.773438 5.554688 9.773438 5.554688 L 8.671875 6.171875 C 8.671875 6.171875 9.382812 6.773438 9.773438 7.449219 C 10.167969 8.121094 10.0625 8.914062 10.085938 9.074219 C 10.113281 9.269531 10.109375 9.480469 10.328125 9.808594 C 10.765625 10.457031 11.046875 10.449219 11.238281 10.757812 C 11.257812 10.816406 11.28125 10.878906 11.300781 10.9375 C 11.359375 11.097656 11.585938 11.210938 11.632812 11.363281 C 11.703125 11.601562 11.996094 12.3125 11.914062 12.648438 C 11.871094 12.832031 11.824219 13.285156 11.789062 13.488281 C 11.644531 14.339844 12.105469 15 12.105469 15 L 15 15 C 15 15 14.582031 11.261719 14.113281 10.730469 Z M 14.113281 10.730469 "/>
<path style=" stroke:none;fill-rule:nonzero;fill:rgb(100%,67.45098%,20%);fill-opacity:1;" d="M 10.875 9.273438 C 10.550781 8.960938 10.378906 8.484375 10.363281 7.902344 C 10.433594 7.207031 8.417969 5.847656 8.417969 5.847656 L 7.621094 5.980469 C 7.621094 5.980469 9.335938 6.683594 9.582031 7.835938 C 9.707031 8.410156 9.539062 9.199219 9.496094 9.550781 C 9.441406 10.015625 9.773438 10.285156 9.859375 10.730469 C 9.90625 10.957031 9.863281 11.433594 9.804688 11.929688 C 9.773438 12.179688 9.65625 12.417969 9.628906 12.648438 C 9.546875 13.242188 9.578125 13.675781 9.722656 13.402344 C 9.898438 13.070312 9.996094 12.601562 10.25 11.898438 C 10.371094 11.5625 10.378906 11.171875 10.347656 10.730469 C 10.335938 10.535156 10.394531 10.308594 10.375 10.09375 C 10.351562 9.875 10.25 9.671875 10.234375 9.425781 C 10.230469 9.359375 10.246094 9.121094 10.273438 8.824219 C 10.304688 8.828125 10.335938 8.847656 10.363281 8.898438 C 10.753906 9.546875 10.683594 10.15625 10.894531 9.972656 C 11.066406 9.824219 11.101562 9.496094 10.875 9.273438 Z M 10.875 9.273438 "/>
<path style=" stroke:none;fill-rule:nonzero;fill:rgb(16.078431%,18.431373%,20%);fill-opacity:1;" d="M 3.652344 10.414062 C 3.652344 10.414062 1.804688 11.703125 1.320312 12.308594 C 0.832031 12.917969 0 15 0 15 L 1.875 15 C 1.875 15 1.890625 14.210938 1.808594 13.878906 C 1.726562 13.550781 1.941406 12.855469 2.1875 12.683594 C 2.777344 12.265625 3.179688 11.71875 3.238281 11.785156 C 3.453125 12.039062 3.453125 12.289062 3.453125 12.289062 C 3.453125 12.289062 3.664062 11.714844 3.671875 11.230469 C 3.679688 10.746094 3.652344 10.414062 3.652344 10.414062 Z M 3.652344 10.414062 "/>
<path style=" stroke:none;fill-rule:nonzero;fill:rgb(100%,67.45098%,20%);fill-opacity:1;" d="M 7.5 5.246094 C 7.5 5.246094 5.898438 4.792969 4.808594 5.769531 C 4.3125 6.214844 4.367188 6.625 4.167969 7.605469 C 3.964844 8.585938 3.390625 8.890625 3.308594 9.28125 C 3.140625 10.042969 2.535156 10.625 2.300781 10.988281 C 2.164062 11.203125 1.984375 11.546875 1.867188 11.742188 C 1.625 12.148438 1.445312 12.492188 1.421875 12.671875 C 1.371094 13.109375 2.1875 12.171875 2.1875 12.171875 L 3.554688 10.488281 C 3.511719 11.449219 3.167969 12.464844 3.542969 12.371094 C 3.855469 12.292969 4.109375 11.894531 3.964844 11.472656 C 3.777344 10.914062 3.824219 10.4375 3.925781 10.03125 C 3.945312 9.996094 4.863281 8.363281 5.085938 7.066406 C 5.3125 5.753906 7.328125 5.410156 7.328125 5.410156 L 8.265625 5.769531 L 8.4375 5.324219 Z M 7.5 5.246094 "/>
<path style=" stroke:none;fill-rule:nonzero;fill:rgb(91.372549%,37.254902%,15.686275%);fill-opacity:1;" d="M 11.648438 7.082031 C 11.09375 6.355469 10.277344 5.546875 9.882812 5.421875 C 9.539062 5.3125 9.703125 5.761719 9.703125 5.761719 C 9.703125 5.761719 10.886719 6.277344 11.484375 8.566406 C 11.769531 9.660156 12.636719 10.113281 12.878906 10.792969 C 13.683594 13.074219 14.613281 13.488281 14.105469 12.773438 C 13.59375 12.058594 12.199219 7.8125 11.648438 7.082031 Z M 7.492188 7.722656 C 7.445312 7.652344 7.40625 7.59375 7.371094 7.539062 C 7.894531 6.746094 8.515625 5.859375 8.515625 5.859375 C 8.515625 5.859375 7.300781 5.738281 7.265625 5.871094 C 6.902344 7.214844 6.570312 7.636719 6.300781 8.488281 C 5.519531 10.972656 6.808594 12.601562 7.007812 12.082031 C 7.171875 11.667969 6.921875 10.523438 6.726562 9.84375 C 6.535156 9.167969 6.617188 9.011719 6.65625 8.734375 C 6.671875 8.636719 6.90625 8.253906 7.199219 7.796875 C 7.238281 7.828125 7.273438 7.867188 7.300781 7.917969 C 7.488281 8.25 7.574219 8.859375 7.617188 9.273438 C 7.664062 9.746094 8.089844 9.960938 8.324219 9.792969 C 8.558594 9.625 8.246094 8.785156 7.734375 8.242188 C 7.613281 8.113281 7.570312 7.84375 7.492188 7.722656 Z M 7.492188 7.722656 "/>
<path style=" stroke:none;fill-rule:nonzero;fill:rgb(91.372549%,37.254902%,15.686275%);fill-opacity:1;" d="M 9.988281 5.46875 C 9.988281 5.46875 10.234375 5.949219 9.304688 5.941406 C 9.0625 5.941406 8.945312 6.15625 8.628906 6.183594 C 8.363281 6.203125 8 6.082031 7.699219 6.082031 C 7.398438 6.082031 7.054688 6.285156 6.789062 6.261719 C 6.46875 6.234375 6.097656 5.914062 5.859375 5.863281 C 5.417969 5.765625 5.113281 5.742188 5.113281 5.59375 C 5.113281 5.445312 5.617188 5.265625 6.058594 5.167969 C 6.296875 5.117188 6.5 5.289062 6.816406 5.261719 C 7.082031 5.238281 7.355469 5.21875 7.65625 5.21875 C 7.957031 5.21875 8.246094 5.039062 8.511719 5.0625 C 8.828125 5.089844 9.09375 5.242188 9.335938 5.285156 C 9.621094 5.335938 9.789062 5.386719 9.882812 5.421875 C 9.960938 5.449219 9.988281 5.46875 9.988281 5.46875 Z M 9.988281 5.46875 "/>
<path style=" stroke:none;fill-rule:nonzero;fill:rgb(100%,67.45098%,20%);fill-opacity:1;" d="M 10.636719 2.878906 C 10.636719 2.878906 9.199219 2.308594 7.820312 2.308594 C 6.441406 2.308594 4.738281 3.09375 4.738281 3.09375 C 6.09375 4.246094 6.039062 5.46875 6.039062 5.46875 L 9.242188 5.46875 C 9.242188 5.46875 9.726562 3.78125 10.636719 2.878906 Z M 10.636719 2.878906 "/>
<path style=" stroke:none;fill-rule:nonzero;fill:rgb(100%,67.45098%,20%);fill-opacity:1;" d="M 9.242188 5.46875 C 9.242188 5.46875 9.21875 5.554688 9.074219 5.597656 C 9.039062 5.609375 8.949219 5.578125 8.886719 5.597656 C 8.816406 5.621094 8.683594 5.683594 8.621094 5.691406 C 8.550781 5.699219 8.390625 5.652344 8.3125 5.65625 C 8.171875 5.667969 8.097656 5.722656 7.929688 5.730469 C 7.816406 5.734375 7.761719 5.6875 7.640625 5.6875 C 7.597656 5.6875 7.5 5.648438 7.421875 5.652344 C 7.296875 5.65625 7.179688 5.707031 7.109375 5.703125 C 6.921875 5.699219 6.882812 5.613281 6.726562 5.597656 C 6.574219 5.585938 6.464844 5.65625 6.355469 5.636719 C 6.144531 5.601562 6.039062 5.46875 6.039062 5.46875 C 6.039062 5.347656 6.757812 5.25 7.640625 5.25 C 8.527344 5.25 9.242188 5.46875 9.242188 5.46875 Z M 9.242188 5.46875 "/>
<path style=" stroke:none;fill-rule:nonzero;fill:rgb(91.372549%,37.254902%,15.686275%);fill-opacity:1;" d="M 7.144531 5.699219 C 7.144531 5.699219 7.113281 5.460938 7.019531 5.132812 C 6.761719 4.253906 6.769531 3.621094 6.769531 3.621094 L 6.1875 3.898438 C 6.1875 3.898438 6.492188 4.480469 6.734375 5.601562 C 6.734375 5.601562 6.816406 5.605469 6.910156 5.65625 C 7.007812 5.707031 7.144531 5.699219 7.144531 5.699219 Z M 7.851562 5.726562 C 7.851562 5.632812 7.855469 5.429688 7.882812 5.222656 C 7.910156 5.015625 8.015625 4.523438 8.054688 4.28125 C 8.125 3.863281 8.105469 3.574219 8.195312 3.410156 L 7.265625 3.445312 C 7.265625 3.445312 7.460938 3.835938 7.507812 4.296875 C 7.546875 4.65625 7.507812 5.230469 7.589844 5.683594 C 7.589844 5.683594 7.617188 5.691406 7.652344 5.691406 C 7.671875 5.695312 7.710938 5.695312 7.730469 5.699219 C 7.796875 5.710938 7.851562 5.726562 7.851562 5.726562 Z M 8.773438 5.644531 C 8.773438 5.644531 8.964844 5.039062 9.03125 4.625 C 9.136719 3.953125 9.746094 2.964844 9.910156 2.800781 L 8.730469 2.761719 C 8.730469 2.761719 8.757812 3.640625 8.707031 4.214844 C 8.667969 4.648438 8.457031 5.042969 8.488281 5.675781 C 8.488281 5.675781 8.546875 5.695312 8.621094 5.691406 C 8.683594 5.683594 8.773438 5.644531 8.773438 5.644531 Z M 8.773438 5.644531 "/>
<path style=" stroke:none;fill-rule:nonzero;fill:rgb(80%,83.921569%,86.666667%);fill-opacity:1;" d="M 12.65625 0.847656 C 12.636719 0.847656 12.621094 0.855469 12.601562 0.855469 C 12.519531 0.667969 12.335938 0.539062 12.121094 0.539062 C 12.023438 0.539062 11.9375 0.574219 11.859375 0.621094 C 11.671875 0.320312 11.339844 0.117188 10.960938 0.117188 C 10.621094 0.117188 10.324219 0.28125 10.128906 0.527344 C 9.925781 0.386719 9.675781 0.304688 9.410156 0.304688 C 8.929688 0.304688 8.515625 0.574219 8.296875 0.964844 C 8.183594 0.710938 7.929688 0.53125 7.636719 0.53125 C 7.40625 0.53125 7.203125 0.640625 7.074219 0.808594 C 6.910156 0.339844 6.46875 0 5.945312 0 C 5.519531 0 5.152344 0.21875 4.9375 0.550781 C 4.878906 0.542969 4.820312 0.53125 4.757812 0.53125 C 4.425781 0.53125 4.125 0.671875 3.90625 0.890625 C 3.878906 0.890625 3.851562 0.882812 3.820312 0.882812 C 3.808594 0.882812 3.792969 0.886719 3.78125 0.886719 C 3.652344 0.722656 3.453125 0.613281 3.230469 0.613281 C 3.011719 0.613281 2.816406 0.714844 2.6875 0.875 C 2.617188 0.851562 2.542969 0.839844 2.464844 0.839844 C 2.023438 0.839844 1.667969 1.195312 1.667969 1.640625 C 1.667969 2.082031 2.023438 2.441406 2.46875 2.441406 C 2.488281 2.441406 2.511719 2.433594 2.535156 2.433594 C 2.625 2.546875 2.757812 2.621094 2.914062 2.621094 C 2.933594 2.621094 2.949219 2.613281 2.964844 2.613281 C 3.164062 2.871094 3.472656 3.039062 3.820312 3.039062 C 3.902344 3.039062 3.976562 3.03125 4.050781 3.015625 C 4.195312 3.128906 4.367188 3.214844 4.558594 3.253906 C 4.824219 3.722656 5.324219 4.039062 5.898438 4.039062 C 6.445312 4.039062 6.925781 3.757812 7.203125 3.332031 C 7.433594 3.613281 7.777344 3.796875 8.171875 3.796875 C 8.75 3.796875 9.234375 3.402344 9.378906 2.867188 C 9.386719 2.867188 9.398438 2.871094 9.410156 2.871094 C 9.5625 2.871094 9.707031 2.839844 9.84375 2.789062 C 10.058594 2.957031 10.324219 3.0625 10.617188 3.0625 C 11.0625 3.0625 11.449219 2.832031 11.675781 2.488281 C 11.757812 2.546875 11.851562 2.589844 11.957031 2.589844 C 12.160156 2.589844 12.332031 2.46875 12.40625 2.296875 C 12.484375 2.324219 12.570312 2.339844 12.65625 2.339844 C 13.066406 2.339844 13.402344 2.007812 13.402344 1.597656 C 13.402344 1.183594 13.066406 0.847656 12.65625 0.847656 Z M 12.65625 0.847656 "/>
<path style=" stroke:none;fill-rule:nonzero;fill:rgb(66.666667%,72.156863%,76.078431%);fill-opacity:1;" d="M 6.78125 1.960938 C 6.78125 2.425781 6.402344 2.804688 5.9375 2.804688 C 5.472656 2.804688 5.09375 2.425781 5.09375 1.960938 C 5.09375 1.492188 5.472656 1.117188 5.9375 1.117188 C 6.402344 1.117188 6.78125 1.492188 6.78125 1.960938 Z M 6.78125 1.960938 "/>
<path style=" stroke:none;fill-rule:nonzero;fill:rgb(66.666667%,72.156863%,76.078431%);fill-opacity:1;" d="M 5.730469 1.890625 C 5.730469 2.351562 5.355469 2.722656 4.894531 2.722656 C 4.433594 2.722656 4.0625 2.351562 4.0625 1.890625 C 4.0625 1.429688 4.433594 1.058594 4.894531 1.058594 C 5.355469 1.058594 5.730469 1.429688 5.730469 1.890625 Z M 5.730469 1.890625 "/>
<path style=" stroke:none;fill-rule:nonzero;fill:rgb(66.666667%,72.156863%,76.078431%);fill-opacity:1;" d="M 4.539062 1.929688 C 4.539062 2.183594 4.332031 2.390625 4.078125 2.390625 C 3.820312 2.390625 3.613281 2.183594 3.613281 1.929688 C 3.613281 1.671875 3.820312 1.464844 4.078125 1.464844 C 4.332031 1.464844 4.539062 1.671875 4.539062 1.929688 Z M 4.539062 1.929688 "/>
<path style=" stroke:none;fill-rule:nonzero;fill:rgb(66.666667%,72.156863%,76.078431%);fill-opacity:1;" d="M 10.320312 1.527344 C 10.320312 1.785156 10.113281 1.992188 9.859375 1.992188 C 9.601562 1.992188 9.394531 1.785156 9.394531 1.527344 C 9.394531 1.273438 9.601562 1.066406 9.859375 1.066406 C 10.113281 1.066406 10.320312 1.273438 10.320312 1.527344 Z M 10.320312 1.527344 "/>
<path style=" stroke:none;fill-rule:nonzero;fill:rgb(66.666667%,72.156863%,76.078431%);fill-opacity:1;" d="M 11.542969 1.371094 C 11.542969 1.714844 11.265625 1.992188 10.921875 1.992188 C 10.574219 1.992188 10.296875 1.714844 10.296875 1.371094 C 10.296875 1.027344 10.574219 0.746094 10.921875 0.746094 C 11.265625 0.746094 11.542969 1.027344 11.542969 1.371094 Z M 11.542969 1.371094 "/>
<path style=" stroke:none;fill-rule:nonzero;fill:rgb(66.666667%,72.156863%,76.078431%);fill-opacity:1;" d="M 7.335938 1.777344 C 7.335938 2.152344 7.03125 2.457031 6.65625 2.457031 C 6.28125 2.457031 5.976562 2.152344 5.976562 1.777344 C 5.976562 1.402344 6.28125 1.097656 6.65625 1.097656 C 7.03125 1.097656 7.335938 1.402344 7.335938 1.777344 Z M 7.335938 1.777344 "/>
<path style=" stroke:none;fill-rule:nonzero;fill:rgb(66.666667%,72.156863%,76.078431%);fill-opacity:1;" d="M 11.390625 1.734375 C 11.390625 2.144531 11.058594 2.476562 10.648438 2.476562 C 10.238281 2.476562 9.90625 2.144531 9.90625 1.734375 C 9.90625 1.324219 10.238281 0.992188 10.648438 0.992188 C 11.058594 0.992188 11.390625 1.324219 11.390625 1.734375 Z M 11.390625 1.734375 "/>
<path style=" stroke:none;fill-rule:nonzero;fill:rgb(66.666667%,72.156863%,76.078431%);fill-opacity:1;" d="M 7.898438 2.015625 C 7.898438 2.371094 7.609375 2.65625 7.257812 2.65625 C 6.90625 2.65625 6.621094 2.371094 6.621094 2.015625 C 6.621094 1.664062 6.90625 1.378906 7.257812 1.378906 C 7.609375 1.378906 7.898438 1.664062 7.898438 2.015625 Z M 7.898438 2.015625 "/>
<path style=" stroke:none;fill-rule:nonzero;fill:rgb(66.666667%,72.156863%,76.078431%);fill-opacity:1;" d="M 6.625 1.472656 C 6.625 1.863281 6.308594 2.179688 5.917969 2.179688 C 5.527344 2.179688 5.210938 1.863281 5.210938 1.472656 C 5.210938 1.078125 5.527344 0.761719 5.917969 0.761719 C 6.308594 0.761719 6.625 1.078125 6.625 1.472656 Z M 6.625 1.472656 "/>
<path style=" stroke:none;fill-rule:nonzero;fill:rgb(66.666667%,72.156863%,76.078431%);fill-opacity:1;" d="M 7.09375 2.199219 C 7.09375 2.855469 6.558594 3.390625 5.902344 3.390625 C 5.242188 3.390625 4.710938 2.855469 4.710938 2.199219 C 4.710938 1.539062 5.242188 1.003906 5.902344 1.003906 C 6.558594 1.003906 7.09375 1.539062 7.09375 2.199219 Z M 7.09375 2.199219 "/>
</g>
</svg>
