<?xml version="1.0" encoding="UTF-8"?>
<svg xmlns="http://www.w3.org/2000/svg" xmlns:xlink="http://www.w3.org/1999/xlink" width="15pt" height="15pt" viewBox="0 0 15 15" version="1.1">
<g id="surface1">
<path style=" stroke:none;fill-rule:nonzero;fill:rgb(40%,45.882353%,49.803922%);fill-opacity:1;" d="M 14.582031 14.582031 C 15 14.167969 14.582031 13.75 14.582031 13.75 L 3.75 2.917969 C 3.75 2.917969 3.132812 2.28125 3.75 1.667969 C 4.367188 1.050781 5 1.667969 5 1.667969 C 5 1.667969 5.417969 2.082031 5.832031 1.667969 C 6.25 1.25 5.832031 0.832031 5.832031 0.832031 C 5.832031 0.832031 4.367188 -0.617188 2.917969 0.832031 C 1.457031 2.292969 2.917969 3.75 2.917969 3.75 L 13.75 14.582031 C 13.75 14.582031 14.167969 15 14.582031 14.582031 Z M 14.582031 14.582031 "/>
<path style=" stroke:none;fill-rule:nonzero;fill:rgb(57.254902%,40%,80%);fill-opacity:1;" d="M 3.070312 7.542969 L 3.75 7.316406 L 3.75 6.667969 C 3.75 6.285156 4.011719 5.949219 4.382812 5.859375 L 5.5625 5.5625 L 5.859375 4.382812 C 5.949219 4.011719 6.285156 3.75 6.667969 3.75 L 7.316406 3.75 L 7.542969 3.070312 C 7.648438 2.75 7.9375 2.527344 8.273438 2.503906 C 8.292969 2.5 8.3125 2.5 8.332031 2.5 C 8.648438 2.5 8.9375 2.675781 9.078125 2.960938 L 14.167969 13.332031 L 13.332031 14.167969 L 2.960938 9.078125 C 2.660156 8.929688 2.476562 8.609375 2.503906 8.273438 C 2.527344 7.9375 2.75 7.648438 3.070312 7.542969 Z M 3.070312 7.542969 "/>
<path style=" stroke:none;fill-rule:nonzero;fill:rgb(45.490196%,30.588235%,66.666667%);fill-opacity:1;" d="M 13.75 13.75 L 5.5625 5.5625 L 5.859375 4.382812 C 5.949219 4.011719 6.285156 3.75 6.667969 3.75 L 7.316406 3.75 L 7.335938 3.6875 L 14 13.5 Z M 13.332031 14.167969 L 2.960938 9.078125 C 2.660156 8.929688 2.476562 8.609375 2.503906 8.273438 C 2.527344 7.9375 2.75 7.648438 3.070312 7.542969 L 3.75 7.316406 L 3.75 7.242188 L 13.503906 13.996094 Z M 13.332031 14.167969 "/>
</g>
</svg>
