<?xml version="1.0" encoding="UTF-8"?>
<svg xmlns="http://www.w3.org/2000/svg" xmlns:xlink="http://www.w3.org/1999/xlink" width="15pt" height="15pt" viewBox="0 0 15 15" version="1.1">
<g id="surface1">
<path style=" stroke:none;fill-rule:nonzero;fill:rgb(53.333333%,78.823529%,97.647059%);fill-opacity:1;" d="M 15 7.5 C 15 11.640625 11.640625 15 7.5 15 C 3.359375 15 0 11.640625 0 7.5 C 0 3.359375 3.359375 0 7.5 0 C 11.640625 0 15 3.359375 15 7.5 Z M 15 7.5 "/>
<path style=" stroke:none;fill-rule:nonzero;fill:rgb(36.078431%,56.862745%,23.137255%);fill-opacity:1;" d="M 10.714844 0.730469 C 10.289062 0.96875 9.933594 1.367188 9.453125 1.222656 C 8.671875 0.988281 7.628906 0.46875 6.953125 1.121094 C 6.277344 1.769531 6.121094 2.371094 6.953125 2.34375 C 7.785156 2.316406 8.359375 1.328125 8.777344 1.746094 C 9.191406 2.160156 9.089844 2.5 8.097656 2.628906 C 7.109375 2.761719 6.042969 2.917969 5.46875 2.917969 C 4.894531 2.917969 4.765625 3.253906 5.15625 3.621094 C 5.546875 3.984375 4.921875 4.011719 4.269531 4.375 C 3.621094 4.738281 4.425781 4.894531 4.972656 5.207031 C 5.519531 5.519531 5.9375 5.128906 6.171875 4.609375 C 6.40625 4.089844 7.414062 3.464844 7.835938 3.542969 C 8.253906 3.621094 8.253906 3.828125 8.175781 4.191406 C 8.097656 4.558594 8.488281 4.453125 8.515625 4.035156 C 8.542969 3.621094 9.011719 3.308594 9.375 3.28125 C 9.738281 3.253906 10.050781 3.777344 9.636719 4.035156 C 9.21875 4.296875 8.800781 4.503906 9.324219 4.636719 C 9.84375 4.765625 10.207031 5.441406 9.609375 5.730469 C 9.011719 6.015625 7.96875 6.199219 7.5 5.964844 C 7.03125 5.730469 5.964844 5.390625 5.675781 5.574219 C 5.390625 5.753906 5.234375 5.941406 4.894531 6.070312 C 4.558594 6.199219 3.175781 6.824219 3.152344 7.628906 C 3.125 8.4375 3.097656 9.347656 3.644531 9.375 C 4.191406 9.402344 5.519531 9.035156 5.9375 8.699219 C 6.355469 8.359375 6.925781 8.4375 7.109375 8.828125 C 7.292969 9.21875 7.160156 9.453125 6.980469 10.078125 C 6.796875 10.703125 7.097656 11.015625 7.390625 11.5625 C 7.683594 12.109375 7.917969 12.421875 7.917969 12.8125 C 7.917969 13.203125 8.332031 13.59375 8.957031 12.941406 C 9.582031 12.289062 10.15625 11.015625 10.417969 10.546875 C 10.675781 10.078125 10.886719 9.035156 11.199219 8.828125 C 11.511719 8.621094 12.003906 8.125 11.640625 8.203125 C 11.277344 8.28125 10.546875 8.175781 10.363281 7.65625 C 10.183594 7.136719 9.402344 6.144531 9.765625 6.042969 C 10.128906 5.9375 10.546875 6.621094 10.703125 6.941406 C 10.859375 7.265625 11.066406 7.65625 11.378906 7.761719 C 11.691406 7.863281 12.371094 7.0625 12.578125 6.941406 C 12.785156 6.824219 12.628906 6.328125 12.214844 6.378906 C 11.796875 6.433594 11.25 6.378906 11.25 6.121094 C 11.25 5.859375 11.769531 5.519531 12.1875 5.597656 C 12.605469 5.675781 12.917969 5.808594 13.175781 6.121094 C 13.4375 6.433594 13.957031 7.003906 14.167969 7.371094 C 14.375 7.734375 14.53125 7.785156 14.636719 7.136719 C 14.703125 6.703125 14.796875 6.464844 14.882812 6.210938 C 14.460938 3.78125 12.871094 1.757812 10.714844 0.730469 Z M 10.714844 0.730469 "/>
</g>
</svg>
