<?xml version="1.0" encoding="UTF-8"?>
<svg xmlns="http://www.w3.org/2000/svg" xmlns:xlink="http://www.w3.org/1999/xlink" width="15pt" height="15pt" viewBox="0 0 15 15" version="1.1">
<g id="surface1">
<path style=" stroke:none;fill-rule:nonzero;fill:rgb(13.333333%,40%,60%);fill-opacity:1;" d="M 13.332031 0 L 1.667969 0 C 0.746094 0 0 0.746094 0 1.667969 L 0 10.832031 L 15 10.832031 L 15 1.667969 C 15 0.746094 14.253906 0 13.332031 0 Z M 13.332031 0 "/>
<path style=" stroke:none;fill-rule:nonzero;fill:rgb(24.705882%,28.235294%,29.803922%);fill-opacity:1;" d="M 4.167969 15 L 4.167969 2.917969 L 5.832031 1.25 L 6.667969 1.25 L 8.332031 2.917969 L 8.332031 15 Z M 13.75 4.582031 C 13.75 4.167969 13.332031 4.167969 13.332031 4.167969 L 10.417969 4.167969 C 10.417969 4.167969 10 4.167969 10 4.582031 L 10 15 L 13.75 15 Z M 13.75 4.582031 "/>
<path style=" stroke:none;fill-rule:nonzero;fill:rgb(16.078431%,18.431373%,20%);fill-opacity:1;" d="M 11.667969 7.917969 C 11.667969 7.5 11.25 7.5 11.25 7.5 L 7.917969 7.5 C 7.5 7.5 7.5 7.917969 7.5 7.917969 L 7.5 15 L 11.667969 15 Z M 4.582031 8.75 L 2.5 8.75 L 2.5 5.832031 C 2.5 5.832031 2.5 5.417969 2.082031 5.417969 L 0 5.417969 L 0 13.332031 C 0 14.253906 0.746094 15 1.667969 15 L 5 15 L 5 9.167969 C 5 9.167969 5 8.75 4.582031 8.75 Z M 13.332031 10.417969 C 12.917969 10.417969 12.917969 10.832031 12.917969 10.832031 L 12.917969 15 L 13.332031 15 C 14.253906 15 15 14.253906 15 13.332031 L 15 10.417969 Z M 13.332031 10.417969 "/>
<path style=" stroke:none;fill-rule:nonzero;fill:rgb(100%,80%,30.196078%);fill-opacity:1;" d="M 3.332031 12.917969 L 4.167969 12.917969 L 4.167969 13.75 L 3.332031 13.75 Z M 3.332031 9.582031 L 4.167969 9.582031 L 4.167969 10.417969 L 3.332031 10.417969 Z M 2.5 11.25 L 3.332031 11.25 L 3.332031 12.082031 L 2.5 12.082031 Z M 6.667969 3.75 L 7.5 3.75 L 7.5 4.582031 L 6.667969 4.582031 Z M 6.667969 5.417969 L 7.5 5.417969 L 7.5 6.25 L 6.667969 6.25 Z M 5.832031 7.082031 L 6.667969 7.082031 L 6.667969 7.917969 L 5.832031 7.917969 Z M 10 8.332031 L 10.832031 8.332031 L 10.832031 9.167969 L 10 9.167969 Z M 9.167969 10 L 10 10 L 10 10.832031 L 9.167969 10.832031 Z M 8.332031 12.5 L 9.167969 12.5 L 9.167969 13.332031 L 8.332031 13.332031 Z M 12.082031 5 L 12.917969 5 L 12.917969 5.832031 L 12.082031 5.832031 Z M 12.082031 6.667969 L 12.917969 6.667969 L 12.917969 7.5 L 12.082031 7.5 Z M 12.082031 6.667969 "/>
<path style=" stroke:none;fill-rule:nonzero;fill:rgb(100%,100%,100%);fill-opacity:1;" d="M 4.582031 1.042969 C 4.582031 1.15625 4.488281 1.25 4.375 1.25 C 4.261719 1.25 4.167969 1.15625 4.167969 1.042969 C 4.167969 0.925781 4.261719 0.832031 4.375 0.832031 C 4.488281 0.832031 4.582031 0.925781 4.582031 1.042969 Z M 4.582031 1.042969 "/>
<path style=" stroke:none;fill-rule:nonzero;fill:rgb(100%,100%,100%);fill-opacity:1;" d="M 3.332031 4.792969 C 3.332031 4.90625 3.238281 5 3.125 5 C 3.011719 5 2.917969 4.90625 2.917969 4.792969 C 2.917969 4.675781 3.011719 4.582031 3.125 4.582031 C 3.238281 4.582031 3.332031 4.675781 3.332031 4.792969 Z M 3.332031 4.792969 "/>
<path style=" stroke:none;fill-rule:nonzero;fill:rgb(100%,100%,100%);fill-opacity:1;" d="M 9.582031 2.082031 C 9.582031 2.3125 9.398438 2.5 9.167969 2.5 C 8.9375 2.5 8.75 2.3125 8.75 2.082031 C 8.75 1.851562 8.9375 1.667969 9.167969 1.667969 C 9.398438 1.667969 9.582031 1.851562 9.582031 2.082031 Z M 9.582031 2.082031 "/>
<path style=" stroke:none;fill-rule:nonzero;fill:rgb(100%,100%,100%);fill-opacity:1;" d="M 11.25 2.292969 C 11.25 2.40625 11.15625 2.5 11.042969 2.5 C 10.925781 2.5 10.832031 2.40625 10.832031 2.292969 C 10.832031 2.175781 10.925781 2.082031 11.042969 2.082031 C 11.15625 2.082031 11.25 2.175781 11.25 2.292969 Z M 11.25 2.292969 "/>
<path style=" stroke:none;fill-rule:nonzero;fill:rgb(100%,100%,100%);fill-opacity:1;" d="M 13.332031 1.25 C 13.332031 1.480469 13.148438 1.667969 12.917969 1.667969 C 12.6875 1.667969 12.5 1.480469 12.5 1.25 C 12.5 1.019531 12.6875 0.832031 12.917969 0.832031 C 13.148438 0.832031 13.332031 1.019531 13.332031 1.25 Z M 13.332031 1.25 "/>
<path style=" stroke:none;fill-rule:nonzero;fill:rgb(100%,100%,100%);fill-opacity:1;" d="M 13.332031 3.125 C 13.332031 3.238281 13.238281 3.332031 13.125 3.332031 C 13.011719 3.332031 12.917969 3.238281 12.917969 3.125 C 12.917969 3.011719 13.011719 2.917969 13.125 2.917969 C 13.238281 2.917969 13.332031 3.011719 13.332031 3.125 Z M 13.332031 3.125 "/>
<path style=" stroke:none;fill-rule:nonzero;fill:rgb(100%,100%,100%);fill-opacity:1;" d="M 2.707031 2.917969 C 2.132812 2.917969 1.667969 2.449219 1.667969 1.875 C 1.667969 1.402344 1.980469 1.011719 2.410156 0.882812 C 2.304688 0.851562 2.195312 0.832031 2.082031 0.832031 C 1.394531 0.832031 0.832031 1.394531 0.832031 2.082031 C 0.832031 2.773438 1.394531 3.332031 2.082031 3.332031 C 2.484375 3.332031 2.835938 3.140625 3.0625 2.851562 C 2.953125 2.890625 2.832031 2.917969 2.707031 2.917969 Z M 2.707031 2.917969 "/>
</g>
</svg>
