<?xml version="1.0" encoding="UTF-8"?>
<svg xmlns="http://www.w3.org/2000/svg" xmlns:xlink="http://www.w3.org/1999/xlink" width="15pt" height="15pt" viewBox="0 0 15 15" version="1.1">
<g id="surface1">
<path style=" stroke:none;fill-rule:nonzero;fill:rgb(33.333333%,67.45098%,93.333333%);fill-opacity:1;" d="M 14.910156 10.214844 C 14.855469 10.035156 14.734375 9.882812 14.566406 9.792969 C 14.234375 9.609375 13.785156 9.746094 13.601562 10.078125 C 12.851562 11.449219 11.613281 12.449219 10.113281 12.890625 C 8.628906 13.332031 7.015625 13.15625 5.65625 12.414062 C 4.589844 11.835938 3.816406 10.875 3.472656 9.710938 C 3.164062 8.664062 3.265625 7.621094 3.703125 6.78125 C 3.550781 7.449219 3.570312 8.148438 3.769531 8.824219 C 4.078125 9.871094 4.773438 10.730469 5.730469 11.25 C 6.867188 11.871094 8.222656 12.019531 9.46875 11.652344 C 10.730469 11.28125 11.769531 10.441406 12.398438 9.289062 C 13.160156 7.890625 13.332031 6.277344 12.882812 4.746094 C 12.433594 3.21875 11.414062 1.957031 10.015625 1.195312 C 8.328125 0.273438 6.320312 0.0585938 4.472656 0.601562 C 2.609375 1.152344 1.070312 2.394531 0.136719 4.101562 C -0.0507812 4.445312 0.078125 4.878906 0.421875 5.066406 C 0.757812 5.25 1.207031 5.117188 1.386719 4.78125 C 2.136719 3.410156 3.375 2.410156 4.875 1.96875 C 6.359375 1.53125 7.976562 1.703125 9.335938 2.445312 C 10.398438 3.023438 11.175781 3.984375 11.515625 5.148438 C 11.824219 6.199219 11.722656 7.242188 11.285156 8.082031 C 11.4375 7.410156 11.417969 6.710938 11.21875 6.035156 C 10.910156 4.992188 10.214844 4.128906 9.261719 3.609375 C 8.121094 2.988281 6.765625 2.839844 5.519531 3.207031 C 4.257812 3.578125 3.21875 4.417969 2.589844 5.570312 C 1.828125 6.96875 1.65625 8.582031 2.105469 10.109375 C 2.558594 11.640625 3.574219 12.902344 4.972656 13.664062 C 6.042969 14.25 7.246094 14.558594 8.449219 14.558594 C 9.144531 14.558594 9.839844 14.457031 10.515625 14.257812 C 12.378906 13.707031 13.921875 12.464844 14.851562 10.757812 C 14.941406 10.589844 14.964844 10.398438 14.910156 10.214844 Z M 6.992188 5.835938 C 7.148438 5.789062 7.308594 5.765625 7.46875 5.765625 C 8.210938 5.765625 8.875 6.261719 9.085938 6.972656 C 9.347656 7.863281 8.835938 8.804688 7.945312 9.066406 C 7.789062 9.109375 7.628906 9.132812 7.46875 9.132812 C 6.726562 9.132812 6.0625 8.636719 5.851562 7.925781 C 5.589844 7.035156 6.101562 6.097656 6.992188 5.835938 Z M 6.992188 5.835938 "/>
</g>
</svg>
