<?xml version="1.0" encoding="UTF-8"?>
<svg xmlns="http://www.w3.org/2000/svg" xmlns:xlink="http://www.w3.org/1999/xlink" width="15pt" height="15pt" viewBox="0 0 15 15" version="1.1">
<g id="surface1">
<path style=" stroke:none;fill-rule:nonzero;fill:rgb(53.333333%,78.823529%,97.647059%);fill-opacity:1;" d="M 15 7.5 C 15 11.640625 11.640625 15 7.5 15 C 3.359375 15 0 11.640625 0 7.5 C 0 3.359375 3.359375 0 7.5 0 C 11.640625 0 15 3.359375 15 7.5 Z M 15 7.5 "/>
<path style=" stroke:none;fill-rule:nonzero;fill:rgb(36.078431%,56.862745%,23.137255%);fill-opacity:1;" d="M 1.171875 10.574219 C 1.144531 10.15625 1.144531 10.078125 1.144531 9.582031 C 1.144531 9.089844 1.378906 9.167969 1.613281 8.933594 C 1.847656 8.699219 1.796875 8.671875 2.1875 8.414062 C 2.578125 8.160156 2.371094 7.863281 2.34375 7.707031 C 2.316406 7.550781 2.082031 7.683594 1.691406 7.734375 C 1.300781 7.785156 1.433594 7.605469 1.199219 7.5 C 0.964844 7.394531 0.859375 7.238281 0.703125 6.769531 C 0.546875 6.300781 0.519531 6.171875 0.574219 5.78125 C 0.625 5.390625 0.808594 5.753906 0.832031 6.171875 C 0.859375 6.589844 1.222656 6.433594 1.222656 6.691406 C 1.222656 6.953125 1.746094 7.238281 1.875 7.316406 C 2.003906 7.394531 2.371094 6.925781 2.5 6.796875 C 2.628906 6.667969 2.785156 6.484375 2.839844 6.378906 C 2.890625 6.277344 3.542969 6.199219 3.671875 6.199219 C 3.800781 6.199219 4.113281 6.589844 4.113281 6.769531 C 4.113281 6.953125 4.269531 7.449219 4.402344 7.734375 C 4.53125 8.019531 4.816406 8.070312 5.078125 8.28125 C 5.339844 8.488281 5.46875 8.304688 5.46875 8.304688 C 5.46875 8.304688 5.363281 7.863281 5.363281 7.5 C 5.363281 7.132812 5.675781 6.820312 5.675781 6.820312 C 5.675781 6.820312 6.171875 7.1875 6.199219 7.289062 C 6.222656 7.394531 6.613281 7.757812 6.640625 7.941406 C 6.667969 8.125 6.875 8.359375 7.257812 8.410156 C 7.640625 8.460938 7.371094 7.96875 7.5 7.628906 C 7.628906 7.289062 7.8125 7.238281 8.046875 7.1875 C 8.28125 7.132812 8.464844 6.925781 8.621094 6.71875 C 8.777344 6.507812 9.0625 6.222656 9.035156 5.988281 C 9.011719 5.753906 8.933594 5.597656 8.828125 5.3125 C 8.722656 5.023438 9.140625 4.921875 9.324219 4.582031 C 9.503906 4.242188 9.324219 4.582031 9.738281 4.476562 C 10.15625 4.375 9.972656 4.375 10.050781 4.21875 C 10.128906 4.0625 10.183594 3.90625 10.105469 3.617188 C 10.027344 3.332031 9.738281 3.617188 9.453125 3.617188 C 9.167969 3.617188 9.558594 3.230469 9.582031 2.917969 C 9.609375 2.605469 9.972656 2.683594 10.234375 2.65625 C 10.496094 2.628906 10.574219 2.996094 10.652344 3.074219 C 10.730469 3.152344 11.535156 2.550781 11.746094 2.265625 C 11.953125 1.980469 11.5625 2.058594 11.667969 1.9375 C 11.769531 1.816406 11.042969 1.792969 10.753906 1.746094 C 10.46875 1.699219 9.738281 1.667969 9.453125 1.488281 C 9.167969 1.3125 8.074219 1.445312 7.785156 1.589844 C 7.5 1.730469 7.316406 1.578125 7.1875 1.378906 C 7.058594 1.183594 6.511719 1.28125 6.355469 1.171875 C 6.199219 1.0625 6.042969 1.355469 5.832031 1.433594 C 5.625 1.511719 5.546875 1.535156 5.285156 1.378906 C 5.027344 1.222656 5.363281 1.042969 5 0.910156 C 4.753906 0.824219 4.464844 0.875 4.007812 0.867188 C 1.625 2.121094 0 4.621094 0 7.5 C 0 8.925781 0.40625 10.253906 1.09375 11.386719 C 1.222656 11.171875 1.191406 10.878906 1.171875 10.574219 Z M 7.214844 10.078125 C 7.394531 10.105469 7.917969 10.078125 7.5 9.738281 C 7.082031 9.402344 6.847656 9.660156 6.902344 9.269531 C 6.953125 8.878906 6.640625 8.878906 6.640625 8.878906 C 6.640625 9.167969 6.433594 9.480469 6.640625 9.765625 C 6.847656 10.050781 7.03125 10.050781 7.214844 10.078125 Z M 7.214844 10.078125 "/>
<path style=" stroke:none;fill-rule:nonzero;fill:rgb(36.078431%,56.862745%,23.137255%);fill-opacity:1;" d="M 9.871094 5.730469 C 9.453125 5.390625 9.765625 5.496094 9.816406 5.105469 C 9.871094 4.714844 9.558594 4.714844 9.558594 4.714844 C 9.558594 5 9.347656 5.3125 9.558594 5.597656 C 9.765625 5.886719 9.140625 6.121094 9.324219 6.144531 C 9.503906 6.171875 10.285156 6.066406 9.871094 5.730469 Z M 8.253906 9.792969 C 8.511719 10.078125 8.410156 9.792969 8.75 9.660156 C 9.089844 9.53125 8.464844 9.246094 8.253906 9.089844 C 8.046875 8.933594 7.839844 8.925781 7.65625 9.269531 C 7.449219 9.660156 7.996094 9.503906 8.253906 9.792969 Z M 11.300781 10.3125 C 11.171875 10.15625 10.886719 10.078125 10.574219 10.085938 C 10.261719 10.09375 10.285156 9.738281 9.972656 9.765625 C 9.660156 9.792969 9.4375 9.554688 9.296875 9.484375 C 8.988281 9.324219 9.191406 9.6875 9.296875 10.085938 C 9.402344 10.484375 9.792969 10.183594 10.15625 10.390625 C 10.519531 10.597656 10.546875 10.3125 10.886719 10.414062 C 11.222656 10.519531 11.355469 10.753906 11.679688 10.726562 C 12.003906 10.703125 11.433594 10.46875 11.300781 10.3125 Z M 10.625 11.457031 C 10.496094 11.199219 10.113281 10.964844 9.957031 10.832031 C 9.800781 10.699219 9.558594 10.65625 9.347656 10.730469 C 9.140625 10.808594 9.011719 10.730469 8.90625 10.523438 C 8.800781 10.320312 8.621094 10.390625 8.464844 10.417969 C 8.308594 10.441406 7.683594 10.703125 7.316406 10.886719 C 6.953125 11.066406 6.789062 11.226562 6.546875 11.457031 C 6.175781 11.824219 6.378906 11.589844 6.546875 11.824219 C 6.714844 12.058594 6.363281 12.785156 6.339844 13.203125 C 6.3125 13.621094 7.003906 13.074219 7.265625 13.019531 C 7.527344 12.96875 7.449219 12.8125 7.660156 12.65625 C 7.867188 12.5 8.003906 12.464844 8.230469 12.671875 C 8.460938 12.878906 8.757812 13.074219 8.757812 13.308594 C 8.757812 13.539062 9.582031 13.933594 9.894531 13.777344 C 10.207031 13.621094 10.390625 13.308594 10.675781 13.046875 C 10.964844 12.785156 10.859375 12.292969 10.9375 11.980469 C 11.015625 11.667969 10.753906 11.71875 10.625 11.457031 Z M 10.625 11.457031 "/>
</g>
</svg>
