<?xml version="1.0" encoding="UTF-8"?>
<svg xmlns="http://www.w3.org/2000/svg" xmlns:xlink="http://www.w3.org/1999/xlink" width="15pt" height="15pt" viewBox="0 0 15 15" version="1.1">
<g id="surface1">
<path style=" stroke:none;fill-rule:nonzero;fill:rgb(100%,80%,30.196078%);fill-opacity:1;" d="M 13.332031 0 L 1.667969 0 C 0.746094 0 0 0.746094 0 1.667969 L 0 12.917969 L 15 12.917969 L 15 1.667969 C 15 0.746094 14.253906 0 13.332031 0 Z M 13.332031 0 "/>
<path style=" stroke:none;fill-rule:nonzero;fill:rgb(95.686275%,56.470588%,4.705882%);fill-opacity:1;" d="M 13.378906 7.808594 C 14.042969 7.617188 14.042969 7.328125 13.382812 7.140625 L 13.148438 7.078125 L 12.917969 7.007812 L 12.917969 7.011719 L 11.691406 6.640625 L 12.660156 5.832031 L 12.652344 5.832031 L 12.859375 5.699219 L 13.066406 5.550781 C 13.605469 5.125 13.484375 4.847656 12.804688 4.925781 L 12.539062 4.960938 L 12.277344 5 L 12.273438 5 L 11.035156 5.140625 L 11.769531 3.816406 L 11.898438 3.582031 C 12.234375 2.984375 12.015625 2.765625 11.417969 3.097656 L 11.183594 3.214844 L 10.953125 3.332031 L 9.859375 3.953125 L 10 2.726562 L 10.035156 2.460938 L 10.066406 2.195312 C 10.144531 1.515625 9.859375 1.398438 9.433594 1.9375 L 9.269531 2.144531 L 8.328125 3.332031 L 7.988281 2.132812 L 7.988281 2.128906 L 7.84375 1.617188 C 7.652344 0.957031 7.347656 0.957031 7.15625 1.617188 L 7.085938 1.875 L 7.011719 2.128906 L 6.671875 3.332031 L 5.894531 2.351562 L 5.730469 2.144531 L 5.566406 1.933594 C 5.140625 1.398438 4.855469 1.515625 4.933594 2.199219 L 4.964844 2.460938 L 4.996094 2.726562 L 5.140625 3.964844 L 3.816406 3.230469 L 3.582031 3.101562 C 2.984375 2.765625 2.765625 2.984375 3.097656 3.582031 L 3.230469 3.816406 L 3.964844 5.140625 L 2.726562 4.996094 L 2.722656 4.996094 L 2.460938 4.964844 L 2.195312 4.933594 C 1.515625 4.855469 1.398438 5.136719 1.933594 5.566406 L 2.144531 5.730469 L 2.351562 5.894531 L 3.332031 6.671875 L 2.128906 7.011719 L 1.875 7.085938 L 1.621094 7.15625 C 0.957031 7.347656 0.957031 7.652344 1.621094 7.84375 L 2.128906 7.988281 L 2.132812 7.988281 L 3.332031 8.328125 L 2.144531 9.269531 L 1.9375 9.433594 C 1.398438 9.859375 1.515625 10.144531 2.195312 10.066406 L 2.460938 10.035156 L 2.722656 10 L 2.726562 10 L 3.953125 9.859375 L 3.332031 10.953125 L 3.214844 11.183594 L 3.09375 11.417969 C 2.761719 12.015625 2.980469 12.234375 3.582031 11.898438 L 3.8125 11.769531 L 5.140625 11.035156 L 5 12.273438 L 5 12.277344 L 4.964844 12.539062 L 4.933594 12.804688 C 4.855469 13.484375 5.140625 13.601562 5.566406 13.066406 L 5.730469 12.855469 L 5.894531 12.648438 L 6.671875 11.667969 L 7.011719 12.871094 L 7.085938 13.125 L 7.15625 13.382812 C 7.347656 14.042969 7.617188 14.042969 7.808594 13.378906 L 7.917969 12.871094 L 8.292969 11.667969 L 9.085938 12.648438 L 9.261719 12.855469 L 9.429688 13.066406 C 9.855469 13.601562 10.144531 13.484375 10.0625 12.804688 L 10.03125 12.539062 L 10 12.277344 L 10 12.273438 L 9.859375 11.046875 L 10.953125 11.667969 L 11.183594 11.785156 L 11.417969 11.90625 C 12.015625 12.242188 12.234375 12.019531 11.902344 11.421875 L 11.667969 10.953125 L 11.046875 9.859375 L 12.273438 10 L 12.277344 10 L 12.539062 10.035156 L 12.804688 10.066406 C 13.484375 10.144531 13.601562 9.859375 13.066406 9.433594 L 12.855469 9.269531 L 12.648438 9.105469 L 11.667969 8.292969 L 12.871094 7.917969 Z M 13.378906 7.808594 "/>
<path style=" stroke:none;fill-rule:nonzero;fill:rgb(100%,90.980392%,71.372549%);fill-opacity:1;" d="M 11.511719 7.5 C 11.511719 9.714844 9.714844 11.511719 7.5 11.511719 C 5.285156 11.511719 3.488281 9.714844 3.488281 7.5 C 3.488281 5.285156 5.285156 3.488281 7.5 3.488281 C 9.714844 3.488281 11.511719 5.285156 11.511719 7.5 Z M 11.511719 7.5 "/>
<path style=" stroke:none;fill-rule:nonzero;fill:rgb(36.078431%,56.862745%,23.137255%);fill-opacity:1;" d="M 15 13.332031 L 15 11.359375 C 13.796875 9.769531 11.589844 7.082031 10.417969 7.082031 C 9.300781 7.082031 7.253906 9.507812 6.019531 11.113281 L 6.019531 15 L 13.332031 15 C 14.253906 15 15 14.253906 15 13.332031 Z M 15 13.332031 "/>
<path style=" stroke:none;fill-rule:nonzero;fill:rgb(24.313725%,44.705882%,11.372549%);fill-opacity:1;" d="M 3.75 9.582031 C 2.8125 9.582031 1.21875 11.296875 0 12.792969 L 0 13.332031 C 0 14.253906 0.746094 15 1.667969 15 L 9.167969 15 C 9.167969 15 7.585938 12.714844 6.019531 11.113281 C 5.175781 10.25 4.335938 9.582031 3.75 9.582031 Z M 3.75 9.582031 "/>
</g>
</svg>
