<?xml version="1.0" encoding="UTF-8"?>
<svg xmlns="http://www.w3.org/2000/svg" xmlns:xlink="http://www.w3.org/1999/xlink" width="15pt" height="15pt" viewBox="0 0 15 15" version="1.1">
<g id="surface1">
<path style=" stroke:none;fill-rule:nonzero;fill:rgb(53.333333%,78.823529%,97.647059%);fill-opacity:1;" d="M 15 7.5 C 15 11.640625 11.640625 15 7.5 15 C 3.359375 15 0 11.640625 0 7.5 C 0 3.359375 3.359375 0 7.5 0 C 11.640625 0 15 3.359375 15 7.5 Z M 15 7.5 "/>
<path style=" stroke:none;fill-rule:nonzero;fill:rgb(36.078431%,56.862745%,23.137255%);fill-opacity:1;" d="M 12.554688 9.894531 C 12.128906 9.734375 12.207031 9.792969 11.945312 9.234375 C 11.683594 8.679688 11.523438 8.503906 10.9375 8.4375 C 10.347656 8.371094 10.371094 8.417969 10.207031 8.125 C 10.046875 7.832031 9.382812 8.203125 8.957031 8.367188 C 8.53125 8.53125 8.636719 8.886719 8.507812 8.855469 C 8.375 8.820312 8.046875 8.738281 7.71875 8.476562 C 7.390625 8.214844 7.960938 8.011719 8.125 7.847656 C 8.289062 7.683594 7.816406 7.773438 7.652344 7.675781 C 7.488281 7.578125 7.195312 7.871094 6.933594 7.609375 C 6.671875 7.347656 6.835938 6.953125 6.804688 6.628906 C 6.773438 6.300781 7.230469 6.234375 7.523438 6.171875 C 7.816406 6.105469 8.046875 6.171875 8.046875 6.5625 C 8.046875 6.953125 8.40625 7.085938 8.308594 6.628906 C 8.207031 6.171875 8.40625 6.039062 8.535156 5.8125 C 8.667969 5.582031 8.894531 5.253906 9.1875 4.765625 C 9.484375 4.277344 9.679688 4.503906 10.039062 4.539062 C 10.398438 4.574219 10.496094 4.503906 10.757812 4.535156 C 11.015625 4.570312 10.757812 4.210938 10.855469 3.851562 C 10.953125 3.492188 11.3125 3.558594 11.671875 3.65625 C 12.03125 3.753906 11.3125 3.199219 11.183594 2.902344 C 11.050781 2.609375 10.691406 2.902344 10.464844 2.414062 C 10.234375 1.921875 9.910156 1.605469 9.617188 1.5625 C 9.324219 1.519531 9.710938 2.183594 9.484375 2.542969 C 9.253906 2.902344 8.902344 2.847656 8.542969 2.847656 C 8.183594 2.847656 7.847656 2.542969 8.109375 2.085938 C 8.371094 1.628906 8.871094 1.675781 9.132812 1.285156 C 9.394531 0.894531 8.203125 0.929688 7.777344 0.796875 C 7.351562 0.667969 6.84375 0.667969 6.417969 0.996094 C 5.992188 1.320312 5.085938 1.425781 4.722656 1.554688 C 4.367188 1.683594 4.300781 1.339844 4.234375 1.078125 C 4.207031 0.960938 4.074219 0.921875 3.886719 0.925781 C 2.960938 1.4375 2.160156 2.140625 1.527344 2.976562 C 1.625 3.3125 2.105469 2.898438 2.199219 2.804688 C 2.296875 2.707031 2.785156 2.839844 2.851562 3.199219 C 2.914062 3.558594 2.882812 3.949219 2.753906 4.277344 C 2.621094 4.601562 3.078125 5.058594 3.339844 5.515625 C 3.601562 5.976562 3.894531 5.976562 4.027344 5.976562 C 4.15625 5.976562 4.910156 6.269531 4.875 6.628906 C 4.84375 6.988281 5.5625 7.3125 5.855469 7.542969 C 6.152344 7.773438 6.335938 7.996094 6.71875 8.0625 C 7.101562 8.128906 7.546875 8.753906 7.742188 8.820312 C 7.894531 8.871094 8.148438 9.109375 8.300781 9.183594 C 8.097656 9.441406 7.707031 9.964844 7.707031 10.207031 C 7.707031 10.535156 8.136719 11.050781 8.296875 11.179688 C 8.460938 11.3125 8.929688 11.410156 9.027344 11.734375 C 9.125 12.0625 8.960938 13.164062 8.667969 13.457031 C 8.371094 13.75 8.265625 14.445312 8.265625 14.445312 C 8.265625 14.445312 8.367188 14.671875 8.714844 14.445312 C 9.097656 14.195312 9.742188 13.488281 10 13.332031 C 10.488281 13.039062 10.964844 12.679688 11.421875 12.257812 C 11.882812 11.832031 11.714844 11.535156 11.945312 11.109375 C 12.171875 10.6875 12.46875 10.707031 12.859375 10.347656 C 13.253906 9.988281 12.980469 10.058594 12.554688 9.894531 Z M 12.554688 9.894531 "/>
</g>
</svg>
