<?xml version="1.0" encoding="UTF-8"?>
<svg xmlns="http://www.w3.org/2000/svg" xmlns:xlink="http://www.w3.org/1999/xlink" width="15pt" height="15pt" viewBox="0 0 15 15" version="1.1">
<g id="surface1">
<path style=" stroke:none;fill-rule:nonzero;fill:rgb(33.333333%,21.568627%,53.333333%);fill-opacity:1;" d="M 15 13.332031 C 15 14.253906 14.253906 15 13.332031 15 L 1.667969 15 C 0.746094 15 0 14.253906 0 13.332031 L 0 1.667969 C 0 0.746094 0.746094 0 1.667969 0 L 13.332031 0 C 14.253906 0 15 0.746094 15 1.667969 Z M 15 13.332031 "/>
<path style=" stroke:none;fill-rule:nonzero;fill:rgb(45.490196%,30.588235%,66.666667%);fill-opacity:1;" d="M 13.332031 0 L 8.019531 0 C 6.066406 0.691406 8.351562 3.746094 6.558594 3.527344 C 3.578125 3.164062 3.359375 6.066406 2.082031 5.597656 C 1.585938 5.417969 0.726562 4.5625 0 5.1875 L 0 13.332031 C 0 14.253906 0.746094 15 1.667969 15 L 2.34375 15 C 2.957031 14.46875 2.730469 12.65625 3.054688 12.1875 C 4.234375 10.484375 4.59375 9.070312 6.347656 9.191406 C 9.316406 9.402344 9.871094 7.171875 10.808594 6.199219 C 11.746094 5.226562 13.332031 6.839844 15 6.109375 L 15 1.667969 C 15 0.746094 14.253906 0 13.332031 0 "/>
<path style=" stroke:none;fill-rule:nonzero;fill:rgb(16.078431%,18.431373%,20%);fill-opacity:1;" d="M 15 13.332031 L 15 12.097656 C 14.679688 11.746094 14.203125 11.355469 13.921875 11.390625 C 13.390625 11.457031 13.074219 11.875 12.707031 12.160156 C 12.34375 12.449219 11.46875 12.273438 10.765625 11.804688 C 10.0625 11.335938 9.097656 11.761719 8.628906 12 C 7.847656 12.394531 7.585938 11.214844 6.804688 10.695312 C 6.023438 10.171875 4.84375 11.875 4.375 12.1875 C 3.90625 12.5 3.347656 11.695312 3.011719 11.460938 C 2.671875 11.226562 2.222656 11.257812 1.597656 11.804688 C 1.0625 12.273438 0.847656 12.179688 0 12.449219 L 0 13.332031 C 0 14.253906 0.746094 15 1.667969 15 L 13.332031 15 C 14.253906 15 15 14.253906 15 13.332031 "/>
<path style=" stroke:none;fill-rule:nonzero;fill:rgb(66.666667%,55.294118%,84.705882%);fill-opacity:1;" d="M 3.054688 6.527344 C 3.054688 6.796875 2.839844 7.015625 2.570312 7.015625 C 2.300781 7.015625 2.082031 6.796875 2.082031 6.527344 C 2.082031 6.257812 2.300781 6.042969 2.570312 6.042969 C 2.839844 6.042969 3.054688 6.257812 3.054688 6.527344 M 6.640625 4.597656 C 6.640625 4.847656 6.4375 5.050781 6.183594 5.050781 C 5.933594 5.050781 5.730469 4.847656 5.730469 4.597656 C 5.730469 4.34375 5.933594 4.140625 6.183594 4.140625 C 6.4375 4.140625 6.640625 4.34375 6.640625 4.597656 M 9.714844 2.214844 C 9.714844 2.515625 9.46875 2.761719 9.167969 2.761719 C 8.863281 2.761719 8.621094 2.515625 8.621094 2.214844 C 8.621094 1.910156 8.863281 1.667969 9.167969 1.667969 C 9.46875 1.667969 9.714844 1.910156 9.714844 2.214844 M 10.496094 3.632812 C 10.496094 3.8125 10.347656 3.957031 10.167969 3.957031 C 9.988281 3.957031 9.84375 3.8125 9.84375 3.632812 C 9.84375 3.453125 9.988281 3.308594 10.167969 3.308594 C 10.347656 3.308594 10.496094 3.453125 10.496094 3.632812 M 8.230469 8.230469 C 8.230469 8.460938 8.042969 8.644531 7.8125 8.644531 C 7.582031 8.644531 7.394531 8.460938 7.394531 8.230469 C 7.394531 8 7.582031 7.8125 7.8125 7.8125 C 8.042969 7.8125 8.230469 8 8.230469 8.230469 M 13.308594 8.507812 C 13.308594 8.726562 13.132812 8.898438 12.917969 8.898438 C 12.699219 8.898438 12.527344 8.726562 12.527344 8.507812 C 12.527344 8.292969 12.703125 8.117188 12.917969 8.117188 C 13.132812 8.117188 13.308594 8.292969 13.308594 8.507812 M 13.621094 4.542969 C 13.621094 4.808594 13.402344 5.027344 13.136719 5.027344 C 12.871094 5.027344 12.65625 4.808594 12.65625 4.542969 C 12.65625 4.277344 12.871094 4.0625 13.136719 4.0625 C 13.402344 4.0625 13.621094 4.277344 13.621094 4.542969 "/>
<path style=" stroke:none;fill-rule:nonzero;fill:rgb(79.607843%,71.764706%,91.764706%);fill-opacity:1;" d="M 9.285156 9.886719 C 9.285156 10.039062 9.160156 10.160156 9.011719 10.160156 C 8.859375 10.160156 8.738281 10.039062 8.738281 9.886719 C 8.738281 9.734375 8.859375 9.613281 9.011719 9.613281 C 9.160156 9.613281 9.285156 9.734375 9.285156 9.886719 M 5.234375 1.066406 C 5.234375 1.253906 5.082031 1.40625 4.894531 1.40625 C 4.707031 1.40625 4.558594 1.253906 4.558594 1.066406 C 4.558594 0.878906 4.707031 0.730469 4.894531 0.730469 C 5.082031 0.730469 5.234375 0.878906 5.234375 1.066406 M 2.335938 2.472656 C 2.335938 2.628906 2.210938 2.753906 2.054688 2.753906 C 1.902344 2.753906 1.777344 2.628906 1.777344 2.472656 C 1.777344 2.320312 1.902344 2.195312 2.054688 2.195312 C 2.210938 2.195312 2.335938 2.320312 2.335938 2.472656 M 11.964844 10.835938 C 11.964844 11.023438 11.816406 11.175781 11.628906 11.175781 C 11.441406 11.175781 11.289062 11.023438 11.289062 10.835938 C 11.289062 10.648438 11.441406 10.5 11.628906 10.5 C 11.816406 10.5 11.964844 10.648438 11.964844 10.835938 M 2.863281 10.625 C 2.863281 10.839844 2.6875 11.011719 2.472656 11.011719 C 2.257812 11.011719 2.082031 10.839844 2.082031 10.625 C 2.082031 10.410156 2.257812 10.234375 2.472656 10.234375 C 2.6875 10.234375 2.863281 10.410156 2.863281 10.625 M 4.582031 7.824219 C 4.582031 8.164062 4.308594 8.4375 3.972656 8.4375 C 3.632812 8.4375 3.359375 8.164062 3.359375 7.824219 C 3.359375 7.488281 3.632812 7.214844 3.972656 7.214844 C 4.308594 7.214844 4.582031 7.488281 4.582031 7.824219 M 8.480469 6.167969 C 8.480469 6.550781 8.167969 6.863281 7.78125 6.863281 C 7.394531 6.863281 7.082031 6.550781 7.082031 6.167969 C 7.082031 5.78125 7.394531 5.46875 7.78125 5.46875 C 8.167969 5.46875 8.480469 5.78125 8.480469 6.167969 M 11.953125 1.863281 C 11.953125 2.027344 11.820312 2.160156 11.652344 2.160156 C 11.488281 2.160156 11.355469 2.027344 11.355469 1.863281 C 11.355469 1.695312 11.488281 1.5625 11.652344 1.5625 C 11.820312 1.5625 11.953125 1.695312 11.953125 1.863281 M 14.296875 1.25 C 14.296875 1.480469 14.109375 1.667969 13.878906 1.667969 C 13.648438 1.667969 13.464844 1.480469 13.464844 1.25 C 13.464844 1.019531 13.648438 0.832031 13.878906 0.832031 C 14.109375 0.832031 14.296875 1.019531 14.296875 1.25 "/>
<path style=" stroke:none;fill-rule:nonzero;fill:rgb(96.078431%,97.254902%,98.039216%);fill-opacity:1;" d="M 4.722656 3.152344 C 4.722656 3.355469 4.554688 3.523438 4.347656 3.523438 C 4.140625 3.523438 3.976562 3.355469 3.976562 3.152344 C 3.976562 2.945312 4.144531 2.777344 4.347656 2.777344 C 4.554688 2.777344 4.722656 2.945312 4.722656 3.152344 M 14.296875 6.523438 C 14.296875 6.703125 14.152344 6.847656 13.972656 6.847656 C 13.792969 6.847656 13.644531 6.703125 13.644531 6.523438 C 13.644531 6.34375 13.792969 6.199219 13.972656 6.199219 C 14.152344 6.199219 14.296875 6.34375 14.296875 6.523438 M 10.703125 5.636719 C 10.703125 5.796875 10.574219 5.925781 10.417969 5.925781 C 10.257812 5.925781 10.128906 5.796875 10.128906 5.636719 C 10.128906 5.480469 10.257812 5.351562 10.417969 5.351562 C 10.574219 5.351562 10.703125 5.480469 10.703125 5.636719 M 5.222656 6.132812 C 5.222656 6.269531 5.109375 6.378906 4.972656 6.378906 C 4.835938 6.378906 4.726562 6.269531 4.726562 6.132812 C 4.726562 5.996094 4.835938 5.886719 4.972656 5.886719 C 5.109375 5.886719 5.222656 5.996094 5.222656 6.132812 M 9.480469 4.683594 C 9.480469 4.949219 9.261719 5.164062 8.996094 5.164062 C 8.730469 5.164062 8.515625 4.949219 8.515625 4.683594 C 8.515625 4.417969 8.730469 4.203125 8.996094 4.203125 C 9.261719 4.203125 9.480469 4.417969 9.480469 4.683594 M 12.03125 3.398438 C 12.03125 3.621094 11.851562 3.800781 11.628906 3.800781 C 11.40625 3.800781 11.222656 3.621094 11.222656 3.398438 C 11.222656 3.175781 11.40625 2.996094 11.628906 2.996094 C 11.851562 2.996094 12.03125 3.175781 12.03125 3.398438 M 6.765625 7.535156 C 6.765625 7.84375 6.515625 8.09375 6.207031 8.09375 C 5.898438 8.09375 5.652344 7.84375 5.652344 7.535156 C 5.652344 7.226562 5.898438 6.980469 6.207031 6.980469 C 6.515625 6.980469 6.765625 7.226562 6.765625 7.535156 M 1.097656 10.054688 C 1.097656 10.253906 0.933594 10.421875 0.730469 10.421875 C 0.527344 10.421875 0.363281 10.257812 0.363281 10.054688 C 0.363281 9.851562 0.527344 9.6875 0.730469 9.6875 C 0.933594 9.6875 1.097656 9.851562 1.097656 10.054688 M 2.5 8.78125 C 2.5 8.933594 2.378906 9.054688 2.230469 9.054688 C 2.082031 9.054688 1.960938 8.933594 1.960938 8.78125 C 1.960938 8.632812 2.082031 8.511719 2.230469 8.511719 C 2.378906 8.511719 2.5 8.632812 2.5 8.78125 M 13.398438 2.394531 C 13.398438 2.582031 13.246094 2.734375 13.058594 2.734375 C 12.871094 2.734375 12.722656 2.582031 12.722656 2.394531 C 12.722656 2.207031 12.871094 2.058594 13.058594 2.058594 C 13.246094 2.058594 13.398438 2.207031 13.398438 2.394531 "/>
</g>
</svg>
