<?xml version="1.0" encoding="UTF-8"?>
<svg xmlns="http://www.w3.org/2000/svg" xmlns:xlink="http://www.w3.org/1999/xlink" width="15pt" height="15pt" viewBox="0 0 15 15" version="1.1">
<g id="surface1">
<path style=" stroke:none;fill-rule:nonzero;fill:rgb(13.333333%,40%,60%);fill-opacity:1;" d="M 13.914062 9.867188 C 10.765625 11.898438 5.558594 9.683594 6.257812 6.507812 C 6.875 3.722656 10.183594 4.523438 10.9375 4.898438 C 11.6875 5.273438 11.234375 3.277344 9.488281 2.679688 C 7.125 1.867188 4.230469 2.039062 3.316406 6.117188 C 2.691406 8.902344 3.917969 12.808594 8.617188 12.859375 C 13.316406 12.914062 13.914062 9.867188 13.914062 9.867188 Z M 13.914062 9.867188 "/>
<path style=" stroke:none;fill-rule:nonzero;fill:rgb(33.333333%,67.45098%,93.333333%);fill-opacity:1;" d="M 14.996094 10.496094 C 14.996094 9.601562 13.847656 9.523438 13.328125 10.03125 C 12.082031 11.246094 10.246094 11.703125 7.789062 11.222656 C 3.515625 10.390625 3.480469 5.382812 6.398438 3.957031 C 7.976562 3.183594 9.851562 4.097656 10.566406 4.644531 C 11.183594 5.121094 12.371094 5.753906 12.308594 4.957031 C 12.175781 3.265625 8.859375 -0.359375 4.414062 1.933594 C -0.03125 4.226562 0 9.398438 0 10.335938 L 0 13.355469 C 0 14.277344 0.753906 15 1.675781 15 L 13.34375 15 C 14.261719 15 15 14.277344 15 13.355469 C 15 13.355469 15 10.5 14.996094 10.496094 Z M 14.996094 10.496094 "/>
</g>
</svg>
