<?xml version="1.0" encoding="UTF-8"?>
<svg xmlns="http://www.w3.org/2000/svg" xmlns:xlink="http://www.w3.org/1999/xlink" width="15pt" height="15pt" viewBox="0 0 15 15" version="1.1">
<g id="surface1">
<path style=" stroke:none;fill-rule:nonzero;fill:rgb(100%,80%,30.196078%);fill-opacity:1;" d="M 13.332031 0 L 1.667969 0 C 0.746094 0 0 0.746094 0 1.667969 L 0 13.332031 L 15 13.332031 L 15 1.667969 C 15 0.746094 14.253906 0 13.332031 0 Z M 13.332031 0 "/>
<path style=" stroke:none;fill-rule:nonzero;fill:rgb(95.686275%,56.470588%,4.705882%);fill-opacity:1;" d="M 13.378906 6.972656 C 14.042969 6.785156 14.042969 6.496094 13.382812 6.308594 L 13.148438 6.242188 L 12.917969 6.175781 L 11.691406 5.804688 L 12.660156 5 L 12.652344 5 L 12.859375 4.867188 L 13.066406 4.714844 C 13.605469 4.289062 13.484375 4.015625 12.804688 4.09375 L 12.539062 4.128906 L 12.277344 4.167969 L 12.273438 4.167969 L 11.035156 4.308594 L 11.769531 2.984375 L 11.898438 2.75 C 12.234375 2.152344 12.015625 1.933594 11.417969 2.265625 L 11.183594 2.382812 L 10.953125 2.5 L 9.859375 3.121094 L 10 1.890625 L 10.035156 1.628906 L 10.066406 1.363281 C 10.144531 0.679688 9.859375 0.5625 9.433594 1.101562 L 9.269531 1.308594 L 8.328125 2.5 L 7.988281 1.296875 L 7.84375 0.785156 C 7.652344 0.125 7.347656 0.125 7.15625 0.785156 L 7.085938 1.039062 L 7.011719 1.296875 L 6.671875 2.5 L 5.894531 1.519531 L 5.730469 1.3125 L 5.566406 1.101562 C 5.140625 0.566406 4.855469 0.683594 4.933594 1.363281 L 4.964844 1.628906 L 4.996094 1.890625 L 5.140625 3.132812 L 3.816406 2.394531 L 3.582031 2.265625 C 2.984375 1.933594 2.765625 2.148438 3.097656 2.75 L 3.230469 2.980469 L 3.964844 4.304688 L 2.726562 4.160156 L 2.722656 4.160156 L 2.460938 4.128906 L 2.195312 4.101562 C 1.515625 4.019531 1.398438 4.304688 1.933594 4.730469 L 2.144531 4.898438 L 2.351562 5.0625 L 3.332031 5.835938 L 2.128906 6.179688 L 1.875 6.253906 L 1.621094 6.324219 C 0.957031 6.511719 0.957031 6.820312 1.621094 7.007812 L 2.128906 7.152344 L 2.132812 7.15625 L 3.332031 7.496094 L 2.144531 8.4375 L 1.9375 8.601562 C 1.398438 9.027344 1.515625 9.3125 2.195312 9.234375 L 2.460938 9.199219 L 2.722656 9.167969 L 2.726562 9.167969 L 3.953125 9.023438 L 3.332031 10.121094 L 3.214844 10.351562 L 3.09375 10.585938 C 2.761719 11.183594 2.980469 11.402344 3.582031 11.066406 L 3.8125 10.9375 L 5.140625 10.199219 L 5 11.441406 L 4.964844 11.707031 L 4.933594 11.96875 C 4.855469 12.652344 5.140625 12.769531 5.566406 12.230469 L 5.894531 11.816406 L 6.671875 10.835938 L 7.011719 12.035156 L 7.011719 12.039062 L 7.085938 12.292969 L 7.15625 12.546875 C 7.347656 13.207031 7.617188 13.207031 7.808594 12.546875 L 7.917969 12.039062 L 7.917969 12.035156 L 8.292969 10.835938 L 9.085938 11.816406 L 9.261719 12.023438 L 9.429688 12.230469 C 9.855469 12.769531 10.144531 12.652344 10.0625 11.972656 L 10 11.441406 L 9.859375 10.214844 L 10.953125 10.832031 L 11.183594 10.949219 L 11.417969 11.074219 C 12.015625 11.40625 12.234375 11.1875 11.902344 10.585938 L 11.785156 10.351562 L 11.667969 10.121094 L 11.046875 9.023438 L 12.273438 9.167969 L 12.277344 9.167969 L 12.539062 9.199219 L 12.804688 9.230469 C 13.484375 9.308594 13.601562 9.027344 13.066406 8.601562 L 12.855469 8.4375 L 12.648438 8.273438 L 11.667969 7.460938 L 12.871094 7.082031 Z M 13.378906 6.972656 "/>
<path style=" stroke:none;fill-rule:nonzero;fill:rgb(100%,90.980392%,71.372549%);fill-opacity:1;" d="M 11.511719 6.667969 C 11.511719 8.882812 9.714844 10.679688 7.5 10.679688 C 5.285156 10.679688 3.488281 8.882812 3.488281 6.667969 C 3.488281 4.449219 5.285156 2.652344 7.5 2.652344 C 9.714844 2.652344 11.511719 4.449219 11.511719 6.667969 Z M 11.511719 6.667969 "/>
<path style=" stroke:none;fill-rule:nonzero;fill:rgb(28.235294%,32.54902%,34.901961%);fill-opacity:1;" d="M 4.167969 15 L 4.167969 6.25 L 5.832031 4.582031 L 6.667969 4.582031 L 8.332031 6.25 L 8.332031 15 Z M 13.75 7.917969 C 13.75 7.5 13.332031 7.5 13.332031 7.5 L 10.417969 7.5 C 10.417969 7.5 10 7.5 10 7.917969 L 10 15 L 13.75 15 Z M 13.75 7.917969 "/>
<path style=" stroke:none;fill-rule:nonzero;fill:rgb(16.078431%,18.431373%,20%);fill-opacity:1;" d="M 11.667969 10.417969 C 11.667969 10 11.25 10 11.25 10 L 7.917969 10 C 7.5 10 7.5 10.417969 7.5 10.417969 L 7.5 15 L 11.667969 15 Z M 4.582031 11.25 L 2.5 11.25 L 2.5 9.167969 C 2.5 9.167969 2.5 8.75 2.082031 8.75 L 0 8.75 L 0 13.332031 C 0 14.253906 0.746094 15 1.667969 15 L 5 15 L 5 11.667969 C 5 11.667969 5 11.25 4.582031 11.25 Z M 13.332031 12.917969 C 12.917969 12.917969 12.917969 13.332031 12.917969 13.332031 L 12.917969 15 L 13.332031 15 C 14.253906 15 15 14.253906 15 13.332031 L 15 12.917969 Z M 13.332031 12.917969 "/>
<path style=" stroke:none;fill-rule:nonzero;fill:rgb(100%,80%,30.196078%);fill-opacity:1;" d="M 3.332031 12.082031 L 4.167969 12.082031 L 4.167969 12.917969 L 3.332031 12.917969 Z M 2.5 13.75 L 3.332031 13.75 L 3.332031 14.582031 L 2.5 14.582031 Z M 6.667969 7.082031 L 7.5 7.082031 L 7.5 7.917969 L 6.667969 7.917969 Z M 6.667969 8.75 L 7.5 8.75 L 7.5 9.582031 L 6.667969 9.582031 Z M 5.832031 10.417969 L 6.667969 10.417969 L 6.667969 11.25 L 5.832031 11.25 Z M 10 10.832031 L 10.832031 10.832031 L 10.832031 11.667969 L 10 11.667969 Z M 9.167969 12.5 L 10 12.5 L 10 13.332031 L 9.167969 13.332031 Z M 12.082031 8.332031 L 12.917969 8.332031 L 12.917969 9.167969 L 12.082031 9.167969 Z M 12.082031 10 L 12.917969 10 L 12.917969 10.832031 L 12.082031 10.832031 Z M 12.082031 10 "/>
</g>
</svg>
