<?xml version="1.0" encoding="UTF-8"?>
<svg xmlns="http://www.w3.org/2000/svg" xmlns:xlink="http://www.w3.org/1999/xlink" width="15pt" height="15pt" viewBox="0 0 15 15" version="1.1">
<g id="surface1">
<path style=" stroke:none;fill-rule:nonzero;fill:rgb(100%,85.098039%,51.372549%);fill-opacity:1;" d="M 15 7.5 C 15 11.640625 11.640625 15 7.5 15 C 3.359375 15 0 11.640625 0 7.5 C 0 3.359375 3.359375 0 7.5 0 C 11.640625 0 15 3.359375 15 7.5 Z M 15 7.5 "/>
<path style=" stroke:none;fill-rule:nonzero;fill:rgb(40%,45.882353%,49.803922%);fill-opacity:1;" d="M 15 7.5 C 15 11.640625 11.640625 15 7.5 15 C 7.378906 15 7.257812 14.988281 7.136719 14.980469 C 4.683594 13.914062 2.917969 10.972656 2.917969 7.5 C 2.917969 4.027344 4.683594 1.085938 7.136719 0.0195312 C 7.257812 0.0117188 7.378906 0 7.5 0 C 11.640625 0 15 3.359375 15 7.5 Z M 15 7.5 "/>
<path style=" stroke:none;fill-rule:nonzero;fill:rgb(35.686275%,40.784314%,46.27451%);fill-opacity:1;" d="M 12.082031 3.542969 C 12.082031 4.347656 11.429688 5 10.625 5 C 9.820312 5 9.167969 4.347656 9.167969 3.542969 C 9.167969 2.734375 9.820312 2.082031 10.625 2.082031 C 11.429688 2.082031 12.082031 2.734375 12.082031 3.542969 Z M 12.082031 3.542969 "/>
<path style=" stroke:none;fill-rule:nonzero;fill:rgb(35.686275%,40.784314%,46.27451%);fill-opacity:1;" d="M 7.917969 6.667969 C 7.917969 7.355469 7.355469 7.917969 6.667969 7.917969 C 5.976562 7.917969 5.417969 7.355469 5.417969 6.667969 C 5.417969 5.976562 5.976562 5.417969 6.667969 5.417969 C 7.355469 5.417969 7.917969 5.976562 7.917969 6.667969 Z M 7.917969 6.667969 "/>
<path style=" stroke:none;fill-rule:nonzero;fill:rgb(35.686275%,40.784314%,46.27451%);fill-opacity:1;" d="M 7.5 11.457031 C 7.5 12.265625 6.847656 12.917969 6.042969 12.917969 C 5.234375 12.917969 4.582031 12.265625 4.582031 11.457031 C 4.582031 10.652344 5.234375 10 6.042969 10 C 6.847656 10 7.5 10.652344 7.5 11.457031 Z M 7.5 11.457031 "/>
<path style=" stroke:none;fill-rule:nonzero;fill:rgb(35.686275%,40.784314%,46.27451%);fill-opacity:1;" d="M 7.082031 2.5 C 7.082031 2.960938 6.710938 3.332031 6.25 3.332031 C 5.789062 3.332031 5.417969 2.960938 5.417969 2.5 C 5.417969 2.039062 5.789062 1.667969 6.25 1.667969 C 6.710938 1.667969 7.082031 2.039062 7.082031 2.5 Z M 7.082031 2.5 "/>
<path style=" stroke:none;fill-rule:nonzero;fill:rgb(35.686275%,40.784314%,46.27451%);fill-opacity:1;" d="M 14.167969 7.5 C 14.167969 7.730469 13.980469 7.917969 13.75 7.917969 C 13.519531 7.917969 13.332031 7.730469 13.332031 7.5 C 13.332031 7.269531 13.519531 7.082031 13.75 7.082031 C 13.980469 7.082031 14.167969 7.269531 14.167969 7.5 Z M 14.167969 7.5 "/>
<path style=" stroke:none;fill-rule:nonzero;fill:rgb(100%,80%,30.196078%);fill-opacity:1;" d="M 2.917969 3.75 C 2.917969 3.980469 2.730469 4.167969 2.5 4.167969 C 2.269531 4.167969 2.082031 3.980469 2.082031 3.75 C 2.082031 3.519531 2.269531 3.332031 2.5 3.332031 C 2.730469 3.332031 2.917969 3.519531 2.917969 3.75 Z M 2.917969 3.75 "/>
<path style=" stroke:none;fill-rule:nonzero;fill:rgb(35.686275%,40.784314%,46.27451%);fill-opacity:1;" d="M 9.167969 12.917969 C 9.167969 13.148438 8.980469 13.332031 8.75 13.332031 C 8.519531 13.332031 8.332031 13.148438 8.332031 12.917969 C 8.332031 12.6875 8.519531 12.5 8.75 12.5 C 8.980469 12.5 9.167969 12.6875 9.167969 12.917969 Z M 9.167969 12.917969 "/>
<path style=" stroke:none;fill-rule:nonzero;fill:rgb(100%,80%,30.196078%);fill-opacity:1;" d="M 2.5 7.917969 C 2.5 8.375 2.125 8.75 1.667969 8.75 C 1.207031 8.75 0.832031 8.375 0.832031 7.917969 C 0.832031 7.457031 1.207031 7.082031 1.667969 7.082031 C 2.125 7.082031 2.5 7.457031 2.5 7.917969 Z M 2.5 7.917969 "/>
<path style=" stroke:none;fill-rule:nonzero;fill:rgb(35.686275%,40.784314%,46.27451%);fill-opacity:1;" d="M 11.667969 9.582031 C 11.667969 10.042969 11.292969 10.417969 10.832031 10.417969 C 10.375 10.417969 10 10.042969 10 9.582031 C 10 9.125 10.375 8.75 10.832031 8.75 C 11.292969 8.75 11.667969 9.125 11.667969 9.582031 Z M 11.667969 9.582031 "/>
</g>
</svg>
