<?xml version="1.0" encoding="UTF-8"?>
<svg xmlns="http://www.w3.org/2000/svg" xmlns:xlink="http://www.w3.org/1999/xlink" width="15pt" height="15pt" viewBox="0 0 15 15" version="1.1">
<g id="surface1">
<path style=" stroke:none;fill-rule:nonzero;fill:rgb(100%,85.098039%,51.372549%);fill-opacity:1;" d="M 10.417969 5.417969 C 10.417969 3.339844 9.609375 1.457031 8.304688 0.0429688 C 12.066406 0.445312 15 3.628906 15 7.5 C 15 11.640625 11.640625 15 7.5 15 C 5.707031 15 4.0625 14.367188 2.773438 13.320312 C 5.757812 13.21875 8.316406 11.464844 9.585938 8.953125 C 9.84375 8.4375 8.421875 8.449219 8.351562 7.5 C 8.285156 6.613281 10.417969 6.359375 10.417969 5.417969 "/>
<path style=" stroke:none;fill-rule:nonzero;fill:rgb(100%,80%,30.196078%);fill-opacity:1;" d="M 12.082031 11.875 C 12.082031 12.679688 11.429688 13.332031 10.625 13.332031 C 9.820312 13.332031 9.167969 12.679688 9.167969 11.875 C 9.167969 11.070312 9.820312 10.417969 10.625 10.417969 C 11.429688 10.417969 12.082031 11.070312 12.082031 11.875 Z M 12.082031 11.875 "/>
<path style=" stroke:none;fill-rule:nonzero;fill:rgb(100%,80%,30.196078%);fill-opacity:1;" d="M 11.667969 2.917969 C 11.667969 3.148438 11.480469 3.332031 11.25 3.332031 C 11.019531 3.332031 10.832031 3.148438 10.832031 2.917969 C 10.832031 2.6875 11.019531 2.5 11.25 2.5 C 11.480469 2.5 11.667969 2.6875 11.667969 2.917969 Z M 11.667969 2.917969 "/>
<path style=" stroke:none;fill-rule:nonzero;fill:rgb(100%,80%,30.196078%);fill-opacity:1;" d="M 7.917969 13.332031 C 7.917969 13.5625 7.730469 13.75 7.5 13.75 C 7.269531 13.75 7.082031 13.5625 7.082031 13.332031 C 7.082031 13.101562 7.269531 12.917969 7.5 12.917969 C 7.730469 12.917969 7.917969 13.101562 7.917969 13.332031 Z M 7.917969 13.332031 "/>
<path style=" stroke:none;fill-rule:nonzero;fill:rgb(100%,80%,30.196078%);fill-opacity:1;" d="M 14.582031 8.332031 C 14.582031 8.792969 14.210938 9.167969 13.75 9.167969 C 13.289062 9.167969 12.917969 8.792969 12.917969 8.332031 C 12.917969 7.875 13.289062 7.5 13.75 7.5 C 14.210938 7.5 14.582031 7.875 14.582031 8.332031 Z M 14.582031 8.332031 "/>
<path style=" stroke:none;fill-rule:nonzero;fill:rgb(16.078431%,18.431373%,20%);fill-opacity:1;" d="M 8.25 10.84375 C 8.570312 10.5 8.867188 10.132812 9.125 9.738281 C 11.394531 10.25 12.308594 9.625 12.171875 10.074219 C 12.03125 10.550781 10.175781 11.328125 8.25 10.84375 M 10.832031 6.042969 C 10.832031 6.617188 11.300781 7.082031 11.875 7.082031 C 12.449219 7.082031 12.917969 6.617188 12.917969 6.042969 C 12.917969 5.464844 12.449219 5 11.875 5 C 11.300781 5 10.832031 5.464844 10.832031 6.042969 "/>
</g>
</svg>
