<?xml version="1.0" encoding="UTF-8"?>
<svg xmlns="http://www.w3.org/2000/svg" xmlns:xlink="http://www.w3.org/1999/xlink" width="15pt" height="15pt" viewBox="0 0 15 15" version="1.1">
<g id="surface1">
<path style=" stroke:none;fill-rule:nonzero;fill:rgb(40%,45.882353%,49.803922%);fill-opacity:1;" d="M 15 7.5 C 15 11.640625 11.640625 15 7.5 15 C 3.359375 15 0 11.640625 0 7.5 C 0 3.359375 3.359375 0 7.5 0 C 11.640625 0 15 3.359375 15 7.5 "/>
<path style=" stroke:none;fill-rule:nonzero;fill:rgb(35.686275%,40.784314%,46.27451%);fill-opacity:1;" d="M 5.417969 3.125 C 5.417969 3.929688 4.765625 4.582031 3.957031 4.582031 C 3.152344 4.582031 2.5 3.929688 2.5 3.125 C 2.5 2.320312 3.152344 1.667969 3.957031 1.667969 C 4.765625 1.667969 5.417969 2.320312 5.417969 3.125 Z M 5.417969 3.125 "/>
<path style=" stroke:none;fill-rule:nonzero;fill:rgb(35.686275%,40.784314%,46.27451%);fill-opacity:1;" d="M 11.667969 11.875 C 11.667969 12.679688 11.015625 13.332031 10.207031 13.332031 C 9.402344 13.332031 8.75 12.679688 8.75 11.875 C 8.75 11.070312 9.402344 10.417969 10.207031 10.417969 C 11.015625 10.417969 11.667969 11.070312 11.667969 11.875 Z M 11.667969 11.875 "/>
<path style=" stroke:none;fill-rule:nonzero;fill:rgb(35.686275%,40.784314%,46.27451%);fill-opacity:1;" d="M 10 2.082031 C 10 2.542969 9.625 2.917969 9.167969 2.917969 C 8.707031 2.917969 8.332031 2.542969 8.332031 2.082031 C 8.332031 1.625 8.707031 1.25 9.167969 1.25 C 9.625 1.25 10 1.625 10 2.082031 Z M 10 2.082031 "/>
<path style=" stroke:none;fill-rule:nonzero;fill:rgb(35.686275%,40.784314%,46.27451%);fill-opacity:1;" d="M 1.667969 7.5 C 1.667969 7.730469 1.480469 7.917969 1.25 7.917969 C 1.019531 7.917969 0.832031 7.730469 0.832031 7.5 C 0.832031 7.269531 1.019531 7.082031 1.25 7.082031 C 1.480469 7.082031 1.667969 7.269531 1.667969 7.5 Z M 1.667969 7.5 "/>
<path style=" stroke:none;fill-rule:nonzero;fill:rgb(35.686275%,40.784314%,46.27451%);fill-opacity:1;" d="M 12.917969 3.75 C 12.917969 3.980469 12.730469 4.167969 12.5 4.167969 C 12.269531 4.167969 12.082031 3.980469 12.082031 3.75 C 12.082031 3.519531 12.269531 3.332031 12.5 3.332031 C 12.730469 3.332031 12.917969 3.519531 12.917969 3.75 Z M 12.917969 3.75 "/>
<path style=" stroke:none;fill-rule:nonzero;fill:rgb(35.686275%,40.784314%,46.27451%);fill-opacity:1;" d="M 7.082031 12.917969 C 7.082031 13.148438 6.898438 13.332031 6.667969 13.332031 C 6.4375 13.332031 6.25 13.148438 6.25 12.917969 C 6.25 12.6875 6.4375 12.5 6.667969 12.5 C 6.898438 12.5 7.082031 12.6875 7.082031 12.917969 Z M 7.082031 12.917969 "/>
<path style=" stroke:none;fill-rule:nonzero;fill:rgb(35.686275%,40.784314%,46.27451%);fill-opacity:1;" d="M 14.167969 7.917969 C 14.167969 8.375 13.792969 8.75 13.332031 8.75 C 12.875 8.75 12.5 8.375 12.5 7.917969 C 12.5 7.457031 12.875 7.082031 13.332031 7.082031 C 13.792969 7.082031 14.167969 7.457031 14.167969 7.917969 Z M 14.167969 7.917969 "/>
<path style=" stroke:none;fill-rule:nonzero;fill:rgb(35.686275%,40.784314%,46.27451%);fill-opacity:1;" d="M 3.332031 10.832031 C 3.332031 11.292969 2.960938 11.667969 2.5 11.667969 C 2.039062 11.667969 1.667969 11.292969 1.667969 10.832031 C 1.667969 10.375 2.039062 10 2.5 10 C 2.960938 10 3.332031 10.375 3.332031 10.832031 Z M 3.332031 10.832031 "/>
<path style=" stroke:none;fill-rule:nonzero;fill:rgb(16.078431%,18.431373%,20%);fill-opacity:1;" d="M 7.5 10.375 C 4.582031 10.375 3.75 9.285156 3.75 9.800781 C 3.75 10.316406 5.417969 11.667969 7.5 11.667969 C 9.582031 11.667969 11.25 10.316406 11.25 9.800781 C 11.25 9.285156 10.417969 10.375 7.5 10.375 M 11.25 6.25 C 11.25 6.941406 10.691406 7.5 10 7.5 C 9.308594 7.5 8.75 6.941406 8.75 6.25 C 8.75 5.558594 9.308594 5 10 5 C 10.691406 5 11.25 5.558594 11.25 6.25 M 6.25 6.25 C 6.25 6.941406 5.691406 7.5 5 7.5 C 4.308594 7.5 3.75 6.941406 3.75 6.25 C 3.75 5.558594 4.308594 5 5 5 C 5.691406 5 6.25 5.558594 6.25 6.25 "/>
</g>
</svg>
