<?xml version="1.0" encoding="UTF-8"?>
<svg xmlns="http://www.w3.org/2000/svg" xmlns:xlink="http://www.w3.org/1999/xlink" width="15pt" height="15pt" viewBox="0 0 15 15" version="1.1">
<g id="surface1">
<path style=" stroke:none;fill-rule:nonzero;fill:rgb(95.686275%,56.470588%,4.705882%);fill-opacity:1;" d="M 7.5 14.917969 C 7.335938 14.917969 7.191406 14.824219 7.117188 14.679688 L 6.367188 13.199219 L 5.105469 14.28125 C 5.027344 14.347656 4.925781 14.386719 4.828125 14.386719 C 4.769531 14.386719 4.714844 14.375 4.660156 14.351562 C 4.511719 14.289062 4.410156 14.148438 4.398438 13.988281 L 4.269531 12.332031 L 2.691406 12.847656 C 2.648438 12.863281 2.605469 12.871094 2.558594 12.871094 C 2.445312 12.871094 2.335938 12.828125 2.253906 12.746094 C 2.140625 12.628906 2.101562 12.460938 2.152344 12.304688 L 2.667969 10.726562 L 1.011719 10.601562 C 0.851562 10.589844 0.710938 10.488281 0.648438 10.339844 C 0.585938 10.1875 0.613281 10.015625 0.71875 9.894531 L 1.800781 8.632812 L 0.320312 7.882812 C 0.175781 7.808594 0.0820312 7.660156 0.0820312 7.5 C 0.0820312 7.339844 0.175781 7.191406 0.320312 7.117188 L 1.800781 6.367188 L 0.71875 5.105469 C 0.613281 4.984375 0.585938 4.8125 0.648438 4.660156 C 0.710938 4.511719 0.851562 4.410156 1.011719 4.398438 L 2.667969 4.269531 L 2.152344 2.691406 C 2.101562 2.539062 2.140625 2.371094 2.253906 2.253906 C 2.335938 2.171875 2.445312 2.128906 2.558594 2.128906 C 2.605469 2.128906 2.648438 2.136719 2.691406 2.152344 L 4.269531 2.667969 L 4.398438 1.011719 C 4.410156 0.851562 4.511719 0.710938 4.660156 0.648438 C 4.714844 0.625 4.769531 0.617188 4.828125 0.617188 C 4.925781 0.617188 5.027344 0.652344 5.105469 0.71875 L 6.367188 1.800781 L 7.117188 0.320312 C 7.191406 0.175781 7.335938 0.0820312 7.5 0.0820312 C 7.660156 0.0820312 7.808594 0.175781 7.882812 0.320312 L 8.632812 1.800781 L 9.894531 0.71875 C 9.972656 0.652344 10.074219 0.617188 10.171875 0.617188 C 10.230469 0.617188 10.285156 0.625 10.339844 0.648438 C 10.488281 0.710938 10.589844 0.851562 10.601562 1.011719 L 10.730469 2.667969 L 12.304688 2.152344 C 12.351562 2.136719 12.394531 2.128906 12.441406 2.128906 C 12.550781 2.128906 12.664062 2.171875 12.742188 2.253906 C 12.859375 2.371094 12.898438 2.539062 12.847656 2.691406 L 12.332031 4.269531 L 13.988281 4.398438 C 14.148438 4.410156 14.289062 4.511719 14.351562 4.660156 C 14.414062 4.8125 14.386719 4.984375 14.28125 5.105469 L 13.199219 6.367188 L 14.679688 7.117188 C 14.824219 7.191406 14.917969 7.339844 14.917969 7.5 C 14.917969 7.660156 14.824219 7.808594 14.679688 7.882812 L 13.199219 8.632812 L 14.28125 9.894531 C 14.386719 10.015625 14.414062 10.1875 14.351562 10.339844 C 14.289062 10.488281 14.148438 10.589844 13.988281 10.601562 L 12.332031 10.726562 L 12.847656 12.304688 C 12.898438 12.460938 12.859375 12.628906 12.746094 12.746094 C 12.664062 12.828125 12.550781 12.871094 12.441406 12.871094 C 12.394531 12.871094 12.351562 12.863281 12.308594 12.847656 L 10.730469 12.332031 L 10.601562 13.988281 C 10.589844 14.148438 10.488281 14.289062 10.339844 14.351562 C 10.285156 14.375 10.230469 14.386719 10.175781 14.386719 C 10.074219 14.386719 9.972656 14.347656 9.894531 14.28125 L 8.632812 13.199219 L 7.882812 14.679688 C 7.808594 14.824219 7.660156 14.917969 7.5 14.917969 Z M 7.5 14.917969 "/>
<path style=" stroke:none;fill-rule:nonzero;fill:rgb(100%,80%,30.196078%);fill-opacity:1;" d="M 12.917969 7.5 C 12.917969 10.492188 10.492188 12.917969 7.5 12.917969 C 4.507812 12.917969 2.082031 10.492188 2.082031 7.5 C 2.082031 4.507812 4.507812 2.082031 7.5 2.082031 C 10.492188 2.082031 12.917969 4.507812 12.917969 7.5 "/>
<path style=" stroke:none;fill-rule:nonzero;fill:rgb(95.686275%,56.470588%,4.705882%);fill-opacity:1;" d="M 7.5 9.78125 C 4.90625 9.78125 4.167969 8.808594 4.167969 9.269531 C 4.167969 9.726562 5.648438 10.925781 7.5 10.925781 C 9.351562 10.925781 10.832031 9.726562 10.832031 9.269531 C 10.832031 8.808594 10.09375 9.78125 7.5 9.78125 M 10.832031 6.109375 C 10.832031 6.726562 10.335938 7.222656 9.722656 7.222656 C 9.109375 7.222656 8.609375 6.726562 8.609375 6.109375 C 8.609375 5.496094 9.109375 5 9.722656 5 C 10.335938 5 10.832031 5.496094 10.832031 6.109375 M 6.390625 6.109375 C 6.390625 6.726562 5.890625 7.222656 5.277344 7.222656 C 4.664062 7.222656 4.167969 6.726562 4.167969 6.109375 C 4.167969 5.496094 4.664062 5 5.277344 5 C 5.890625 5 6.390625 5.496094 6.390625 6.109375 "/>
</g>
</svg>
