<?xml version="1.0" encoding="UTF-8"?>
<svg xmlns="http://www.w3.org/2000/svg" xmlns:xlink="http://www.w3.org/1999/xlink" width="15pt" height="15pt" viewBox="0 0 15 15" version="1.1">
<g id="surface1">
<path style=" stroke:none;fill-rule:nonzero;fill:rgb(100%,85.098039%,51.372549%);fill-opacity:1;" d="M 15 7.5 C 15 11.640625 11.640625 15 7.5 15 C 3.359375 15 0 11.640625 0 7.5 C 0 3.359375 3.359375 0 7.5 0 C 11.640625 0 15 3.359375 15 7.5 Z M 15 7.5 "/>
<path style=" stroke:none;fill-rule:nonzero;fill:rgb(100%,80%,30.196078%);fill-opacity:1;" d="M 5.832031 3.542969 C 5.832031 4.347656 5.179688 5 4.375 5 C 3.570312 5 2.917969 4.347656 2.917969 3.542969 C 2.917969 2.734375 3.570312 2.082031 4.375 2.082031 C 5.179688 2.082031 5.832031 2.734375 5.832031 3.542969 Z M 5.832031 3.542969 "/>
<path style=" stroke:none;fill-rule:nonzero;fill:rgb(100%,80%,30.196078%);fill-opacity:1;" d="M 9.582031 7.082031 C 9.582031 7.773438 9.023438 8.332031 8.332031 8.332031 C 7.644531 8.332031 7.082031 7.773438 7.082031 7.082031 C 7.082031 6.394531 7.644531 5.832031 8.332031 5.832031 C 9.023438 5.832031 9.582031 6.394531 9.582031 7.082031 Z M 9.582031 7.082031 "/>
<path style=" stroke:none;fill-rule:nonzero;fill:rgb(100%,80%,30.196078%);fill-opacity:1;" d="M 11.667969 11.875 C 11.667969 12.679688 11.015625 13.332031 10.207031 13.332031 C 9.402344 13.332031 8.75 12.679688 8.75 11.875 C 8.75 11.070312 9.402344 10.417969 10.207031 10.417969 C 11.015625 10.417969 11.667969 11.070312 11.667969 11.875 Z M 11.667969 11.875 "/>
<path style=" stroke:none;fill-rule:nonzero;fill:rgb(100%,80%,30.196078%);fill-opacity:1;" d="M 10 2.082031 C 10 2.542969 9.625 2.917969 9.167969 2.917969 C 8.707031 2.917969 8.332031 2.542969 8.332031 2.082031 C 8.332031 1.625 8.707031 1.25 9.167969 1.25 C 9.625 1.25 10 1.625 10 2.082031 Z M 10 2.082031 "/>
<path style=" stroke:none;fill-rule:nonzero;fill:rgb(100%,80%,30.196078%);fill-opacity:1;" d="M 1.667969 7.5 C 1.667969 7.730469 1.480469 7.917969 1.25 7.917969 C 1.019531 7.917969 0.832031 7.730469 0.832031 7.5 C 0.832031 7.269531 1.019531 7.082031 1.25 7.082031 C 1.480469 7.082031 1.667969 7.269531 1.667969 7.5 Z M 1.667969 7.5 "/>
<path style=" stroke:none;fill-rule:nonzero;fill:rgb(100%,80%,30.196078%);fill-opacity:1;" d="M 12.917969 3.75 C 12.917969 3.980469 12.730469 4.167969 12.5 4.167969 C 12.269531 4.167969 12.082031 3.980469 12.082031 3.75 C 12.082031 3.519531 12.269531 3.332031 12.5 3.332031 C 12.730469 3.332031 12.917969 3.519531 12.917969 3.75 Z M 12.917969 3.75 "/>
<path style=" stroke:none;fill-rule:nonzero;fill:rgb(100%,80%,30.196078%);fill-opacity:1;" d="M 6.667969 12.917969 C 6.667969 13.148438 6.480469 13.332031 6.25 13.332031 C 6.019531 13.332031 5.832031 13.148438 5.832031 12.917969 C 5.832031 12.6875 6.019531 12.5 6.25 12.5 C 6.480469 12.5 6.667969 12.6875 6.667969 12.917969 Z M 6.667969 12.917969 "/>
<path style=" stroke:none;fill-rule:nonzero;fill:rgb(100%,80%,30.196078%);fill-opacity:1;" d="M 14.167969 7.917969 C 14.167969 8.375 13.792969 8.75 13.332031 8.75 C 12.875 8.75 12.5 8.375 12.5 7.917969 C 12.5 7.457031 12.875 7.082031 13.332031 7.082031 C 13.792969 7.082031 14.167969 7.457031 14.167969 7.917969 Z M 14.167969 7.917969 "/>
<path style=" stroke:none;fill-rule:nonzero;fill:rgb(100%,80%,30.196078%);fill-opacity:1;" d="M 5 9.582031 C 5 10.042969 4.625 10.417969 4.167969 10.417969 C 3.707031 10.417969 3.332031 10.042969 3.332031 9.582031 C 3.332031 9.125 3.707031 8.75 4.167969 8.75 C 4.625 8.75 5 9.125 5 9.582031 Z M 5 9.582031 "/>
</g>
</svg>
