<?xml version="1.0" encoding="UTF-8"?>
<svg xmlns="http://www.w3.org/2000/svg" xmlns:xlink="http://www.w3.org/1999/xlink" width="15pt" height="15pt" viewBox="0 0 15 15" version="1.1">
<g id="surface1">
<path style=" stroke:none;fill-rule:nonzero;fill:rgb(100%,85.098039%,51.372549%);fill-opacity:1;" d="M 7.5 0 L 7.5 15 C 3.359375 15 0 11.640625 0 7.5 C 0 3.359375 3.359375 0 7.5 0 Z M 7.5 0 "/>
<path style=" stroke:none;fill-rule:nonzero;fill:rgb(40%,45.882353%,49.803922%);fill-opacity:1;" d="M 15 7.5 C 15 11.640625 11.640625 15 7.5 15 L 7.5 0 C 11.640625 0 15 3.359375 15 7.5 Z M 15 7.5 "/>
<path style=" stroke:none;fill-rule:nonzero;fill:rgb(100%,80%,30.196078%);fill-opacity:1;" d="M 5.832031 3.542969 C 5.832031 4.347656 5.179688 5 4.375 5 C 3.570312 5 2.917969 4.347656 2.917969 3.542969 C 2.917969 2.734375 3.570312 2.082031 4.375 2.082031 C 5.179688 2.082031 5.832031 2.734375 5.832031 3.542969 Z M 5.832031 3.542969 "/>
<path style=" stroke:none;fill-rule:nonzero;fill:rgb(35.686275%,40.784314%,46.27451%);fill-opacity:1;" d="M 11.25 6.667969 C 11.25 7.355469 10.691406 7.917969 10 7.917969 C 9.308594 7.917969 8.75 7.355469 8.75 6.667969 C 8.75 5.976562 9.308594 5.417969 10 5.417969 C 10.691406 5.417969 11.25 5.976562 11.25 6.667969 Z M 11.25 6.667969 "/>
<path style=" stroke:none;fill-rule:nonzero;fill:rgb(35.686275%,40.784314%,46.27451%);fill-opacity:1;" d="M 10.832031 11.457031 C 10.832031 12.265625 10.179688 12.917969 9.375 12.917969 C 8.570312 12.917969 7.917969 12.265625 7.917969 11.457031 C 7.917969 10.652344 8.570312 10 9.375 10 C 10.179688 10 10.832031 10.652344 10.832031 11.457031 Z M 10.832031 11.457031 "/>
<path style=" stroke:none;fill-rule:nonzero;fill:rgb(35.686275%,40.784314%,46.27451%);fill-opacity:1;" d="M 9.582031 2.5 C 9.582031 2.960938 9.210938 3.332031 8.75 3.332031 C 8.289062 3.332031 7.917969 2.960938 7.917969 2.5 C 7.917969 2.039062 8.289062 1.667969 8.75 1.667969 C 9.210938 1.667969 9.582031 2.039062 9.582031 2.5 Z M 9.582031 2.5 "/>
<path style=" stroke:none;fill-rule:nonzero;fill:rgb(100%,80%,30.196078%);fill-opacity:1;" d="M 1.667969 7.5 C 1.667969 7.730469 1.480469 7.917969 1.25 7.917969 C 1.019531 7.917969 0.832031 7.730469 0.832031 7.5 C 0.832031 7.269531 1.019531 7.082031 1.25 7.082031 C 1.480469 7.082031 1.667969 7.269531 1.667969 7.5 Z M 1.667969 7.5 "/>
<path style=" stroke:none;fill-rule:nonzero;fill:rgb(35.686275%,40.784314%,46.27451%);fill-opacity:1;" d="M 12.917969 3.75 C 12.917969 3.980469 12.730469 4.167969 12.5 4.167969 C 12.269531 4.167969 12.082031 3.980469 12.082031 3.75 C 12.082031 3.519531 12.269531 3.332031 12.5 3.332031 C 12.730469 3.332031 12.917969 3.519531 12.917969 3.75 Z M 12.917969 3.75 "/>
<path style=" stroke:none;fill-rule:nonzero;fill:rgb(100%,80%,30.196078%);fill-opacity:1;" d="M 6.667969 12.917969 C 6.667969 13.148438 6.480469 13.332031 6.25 13.332031 C 6.019531 13.332031 5.832031 13.148438 5.832031 12.917969 C 5.832031 12.6875 6.019531 12.5 6.25 12.5 C 6.480469 12.5 6.667969 12.6875 6.667969 12.917969 Z M 6.667969 12.917969 "/>
<path style=" stroke:none;fill-rule:nonzero;fill:rgb(35.686275%,40.784314%,46.27451%);fill-opacity:1;" d="M 14.167969 7.917969 C 14.167969 8.375 13.792969 8.75 13.332031 8.75 C 12.875 8.75 12.5 8.375 12.5 7.917969 C 12.5 7.457031 12.875 7.082031 13.332031 7.082031 C 13.792969 7.082031 14.167969 7.457031 14.167969 7.917969 Z M 14.167969 7.917969 "/>
<path style=" stroke:none;fill-rule:nonzero;fill:rgb(100%,80%,30.196078%);fill-opacity:1;" d="M 5 9.582031 C 5 10.042969 4.625 10.417969 4.167969 10.417969 C 3.707031 10.417969 3.332031 10.042969 3.332031 9.582031 C 3.332031 9.125 3.707031 8.75 4.167969 8.75 C 4.625 8.75 5 9.125 5 9.582031 Z M 5 9.582031 "/>
</g>
</svg>
