<?xml version="1.0" encoding="UTF-8"?>
<svg xmlns="http://www.w3.org/2000/svg" xmlns:xlink="http://www.w3.org/1999/xlink" width="15pt" height="15pt" viewBox="0 0 15 15" version="1.1">
<g id="surface1">
<path style=" stroke:none;fill-rule:nonzero;fill:rgb(100%,90.980392%,71.372549%);fill-opacity:1;" d="M 5 2.917969 C 2.238281 2.917969 0 5.902344 0 9.582031 L 2.5 9.582031 L 2.5 12.082031 L 9.632812 12.082031 C 9.867188 11.3125 10 10.46875 10 9.582031 C 10 5.902344 7.761719 2.917969 5 2.917969 Z M 5 2.917969 "/>
<path style=" stroke:none;fill-rule:nonzero;fill:rgb(100%,90.980392%,71.372549%);fill-opacity:1;" d="M 12.082031 8.75 L 14.125 8.75 C 13.816406 5.460938 11.714844 2.917969 9.167969 2.917969 C 6.40625 2.917969 4.167969 5.902344 4.167969 9.582031 C 4.167969 10.46875 4.296875 11.3125 4.535156 12.082031 L 12.082031 12.082031 Z M 12.082031 8.75 "/>
<path style=" stroke:none;fill-rule:nonzero;fill:rgb(100%,67.45098%,20%);fill-opacity:1;" d="M 15 9.582031 C 15 5.902344 12.761719 2.917969 10 2.917969 C 7.238281 2.917969 5 5.902344 5 9.582031 C 5 10.46875 5.132812 11.3125 5.367188 12.082031 L 12.5 12.082031 C 13.878906 12.082031 15 10.964844 15 9.582031 Z M 15 9.582031 "/>
<path style=" stroke:none;fill-rule:nonzero;fill:rgb(100%,67.45098%,20%);fill-opacity:1;" d="M 2.5 9.582031 L 6.667969 9.582031 L 6.667969 12.082031 L 2.5 12.082031 Z M 2.5 9.582031 "/>
<path style=" stroke:none;fill-rule:nonzero;fill:rgb(100%,90.980392%,71.372549%);fill-opacity:1;" d="M 0 9.582031 C 0 8.203125 1.121094 7.082031 2.5 7.082031 C 3.878906 7.082031 5 8.203125 5 9.582031 C 5 10.964844 3.878906 12.082031 2.5 12.082031 C 1.121094 12.082031 0 10.964844 0 9.582031 Z M 0 9.582031 "/>
<path style=" stroke:none;fill-rule:nonzero;fill:rgb(100%,67.45098%,20%);fill-opacity:1;" d="M 5.832031 2.917969 C 3.074219 2.917969 0.832031 5.902344 0.832031 9.582031 C 0.832031 10.503906 1.578125 11.25 2.5 11.25 C 3.421875 11.25 4.167969 10.503906 4.167969 9.582031 C 4.167969 6.683594 5.558594 4.21875 7.5 3.304688 C 6.976562 3.058594 6.417969 2.917969 5.832031 2.917969 Z M 5.832031 2.917969 "/>
<path style=" stroke:none;fill-rule:nonzero;fill:rgb(85.098039%,61.960784%,50.980392%);fill-opacity:1;" d="M 2.082031 9.582031 C 2.082031 9.8125 1.898438 10 1.667969 10 C 1.4375 10 1.25 9.8125 1.25 9.582031 C 1.25 9.351562 1.4375 9.167969 1.667969 9.167969 C 1.898438 9.167969 2.082031 9.351562 2.082031 9.582031 Z M 2.082031 9.582031 "/>
<path style=" stroke:none;fill-rule:nonzero;fill:rgb(75.686275%,41.176471%,30.980392%);fill-opacity:1;" d="M 4.15625 9.6875 C 4.105469 9.390625 3.851562 9.167969 3.542969 9.167969 C 3.464844 9.167969 3.394531 9.183594 3.328125 9.207031 C 3.328125 9.191406 3.332031 9.179688 3.332031 9.167969 C 3.332031 8.707031 2.960938 8.332031 2.5 8.332031 C 2.039062 8.332031 1.667969 8.707031 1.667969 9.167969 C 1.667969 9.386719 1.753906 9.582031 1.890625 9.730469 C 1.753906 9.847656 1.667969 10.015625 1.667969 10.207031 C 1.667969 10.492188 1.855469 10.726562 2.113281 10.804688 C 2.183594 11.035156 2.382812 11.203125 2.628906 11.238281 C 3.453125 11.171875 4.105469 10.515625 4.15625 9.6875 Z M 4.15625 9.6875 "/>
<path style=" stroke:none;fill-rule:nonzero;fill:rgb(85.098039%,61.960784%,50.980392%);fill-opacity:1;" d="M 3.957031 8.75 C 3.613281 8.75 3.332031 9.03125 3.332031 9.375 C 3.332031 9.71875 3.613281 10 3.957031 10 C 4.011719 10 4.0625 9.992188 4.113281 9.976562 C 4.144531 9.851562 4.167969 9.71875 4.167969 9.582031 C 4.167969 9.316406 4.183594 9.058594 4.203125 8.800781 C 4.128906 8.769531 4.046875 8.75 3.957031 8.75 Z M 3.957031 8.75 "/>
<path style=" stroke:none;fill-rule:nonzero;fill:rgb(100%,80%,30.196078%);fill-opacity:1;" d="M 3.332031 8.332031 C 3.332031 8.101562 3.054688 7.917969 2.707031 7.917969 C 2.363281 7.917969 2.082031 8.101562 2.082031 8.332031 C 2.082031 8.5625 2.363281 8.75 2.707031 8.75 C 3.054688 8.75 3.332031 8.5625 3.332031 8.332031 Z M 3.332031 8.332031 "/>
<path style=" stroke:none;fill-rule:nonzero;fill:rgb(100%,80%,30.196078%);fill-opacity:1;" d="M 3.332031 8.75 C 3.332031 8.980469 3.148438 9.167969 2.917969 9.167969 C 2.6875 9.167969 2.5 8.980469 2.5 8.75 C 2.5 8.519531 2.6875 8.332031 2.917969 8.332031 C 3.148438 8.332031 3.332031 8.519531 3.332031 8.75 Z M 3.332031 8.75 "/>
<path style=" stroke:none;fill-rule:nonzero;fill:rgb(75.686275%,41.176471%,30.980392%);fill-opacity:1;" d="M 4.167969 8.75 C 4.167969 8.980469 3.980469 9.167969 3.75 9.167969 C 3.519531 9.167969 3.332031 8.980469 3.332031 8.75 C 3.332031 8.519531 3.519531 8.332031 3.75 8.332031 C 3.980469 8.332031 4.167969 8.519531 4.167969 8.75 Z M 4.167969 8.75 "/>
<path style=" stroke:none;fill-rule:nonzero;fill:rgb(85.098039%,61.960784%,50.980392%);fill-opacity:1;" d="M 2.5 9.167969 C 2.5 9.398438 2.3125 9.582031 2.082031 9.582031 C 1.851562 9.582031 1.667969 9.398438 1.667969 9.167969 C 1.667969 8.9375 1.851562 8.75 2.082031 8.75 C 2.3125 8.75 2.5 8.9375 2.5 9.167969 Z M 2.5 9.167969 "/>
<path style=" stroke:none;fill-rule:nonzero;fill:rgb(85.098039%,61.960784%,50.980392%);fill-opacity:1;" d="M 3.332031 9.167969 C 3.332031 9.398438 3.148438 9.582031 2.917969 9.582031 C 2.6875 9.582031 2.5 9.398438 2.5 9.167969 C 2.5 8.9375 2.6875 8.75 2.917969 8.75 C 3.148438 8.75 3.332031 8.9375 3.332031 9.167969 Z M 3.332031 9.167969 "/>
<path style=" stroke:none;fill-rule:nonzero;fill:rgb(100%,85.098039%,51.372549%);fill-opacity:1;" d="M 3.75 8.332031 C 3.75 8.5625 3.5625 8.75 3.332031 8.75 C 3.101562 8.75 2.917969 8.5625 2.917969 8.332031 C 2.917969 8.101562 3.101562 7.917969 3.332031 7.917969 C 3.5625 7.917969 3.75 8.101562 3.75 8.332031 Z M 3.75 8.332031 "/>
<path style=" stroke:none;fill-rule:nonzero;fill:rgb(100%,90.980392%,71.372549%);fill-opacity:1;" d="M 3.332031 7.5 C 3.332031 7.730469 3.148438 7.917969 2.917969 7.917969 C 2.6875 7.917969 2.5 7.730469 2.5 7.5 C 2.5 7.269531 2.6875 7.082031 2.917969 7.082031 C 3.148438 7.082031 3.332031 7.269531 3.332031 7.5 Z M 3.332031 7.5 "/>
<path style=" stroke:none;fill-rule:nonzero;fill:rgb(100%,90.980392%,71.372549%);fill-opacity:1;" d="M 2.917969 8.332031 C 2.917969 8.5625 2.730469 8.75 2.5 8.75 C 2.269531 8.75 2.082031 8.5625 2.082031 8.332031 C 2.082031 8.101562 2.269531 7.917969 2.5 7.917969 C 2.730469 7.917969 2.917969 8.101562 2.917969 8.332031 Z M 2.917969 8.332031 "/>
<path style=" stroke:none;fill-rule:nonzero;fill:rgb(100%,85.098039%,51.372549%);fill-opacity:1;" d="M 4.167969 7.5 C 4.167969 7.730469 3.980469 7.917969 3.75 7.917969 C 3.519531 7.917969 3.332031 7.730469 3.332031 7.5 C 3.332031 7.269531 3.519531 7.082031 3.75 7.082031 C 3.980469 7.082031 4.167969 7.269531 4.167969 7.5 Z M 4.167969 7.5 "/>
<path style=" stroke:none;fill-rule:nonzero;fill:rgb(100%,85.098039%,51.372549%);fill-opacity:1;" d="M 4.167969 8.332031 C 4.167969 8.5625 3.980469 8.75 3.75 8.75 C 3.519531 8.75 3.332031 8.5625 3.332031 8.332031 C 3.332031 8.101562 3.519531 7.917969 3.75 7.917969 C 3.980469 7.917969 4.167969 8.101562 4.167969 8.332031 Z M 4.167969 8.332031 "/>
<path style=" stroke:none;fill-rule:nonzero;fill:rgb(100%,85.098039%,51.372549%);fill-opacity:1;" d="M 4.167969 7.917969 C 4.167969 8.148438 3.980469 8.332031 3.75 8.332031 C 3.519531 8.332031 3.332031 8.148438 3.332031 7.917969 C 3.332031 7.6875 3.519531 7.5 3.75 7.5 C 3.980469 7.5 4.167969 7.6875 4.167969 7.917969 Z M 4.167969 7.917969 "/>
<path style=" stroke:none;fill-rule:nonzero;fill:rgb(100%,90.980392%,71.372549%);fill-opacity:1;" d="M 4.167969 7.917969 C 4.167969 8.148438 3.980469 8.332031 3.75 8.332031 C 3.519531 8.332031 3.332031 8.148438 3.332031 7.917969 C 3.332031 7.6875 3.519531 7.5 3.75 7.5 C 3.980469 7.5 4.167969 7.6875 4.167969 7.917969 Z M 4.167969 7.917969 "/>
<path style=" stroke:none;fill-rule:nonzero;fill:rgb(46.666667%,69.803922%,33.333333%);fill-opacity:1;" d="M 4.40625 5.1875 C 4.292969 5.074219 4.132812 5 3.957031 5 C 3.652344 5 3.398438 5.222656 3.34375 5.515625 C 3.253906 5.457031 3.144531 5.417969 3.019531 5.417969 C 2.734375 5.417969 2.5 5.601562 2.5 5.832031 C 2.5 5.914062 2.535156 5.984375 2.582031 6.046875 C 2.53125 6.105469 2.5 6.175781 2.5 6.25 C 2.269531 6.25 2.082031 6.4375 2.082031 6.667969 C 2.082031 6.75 2.113281 6.824219 2.15625 6.890625 C 2.113281 6.949219 2.082031 7.011719 2.082031 7.082031 C 2.082031 7.3125 2.363281 7.5 2.707031 7.5 C 2.886719 7.5 3.046875 7.449219 3.160156 7.367188 C 3.269531 7.449219 3.398438 7.5 3.542969 7.5 C 3.625 7.5 3.703125 7.484375 3.773438 7.453125 C 3.84375 7.703125 4.0625 7.886719 4.328125 7.910156 C 4.535156 6.847656 4.933594 5.894531 5.46875 5.109375 C 5.335938 5.039062 5.175781 5 5 5 C 4.765625 5 4.554688 5.074219 4.40625 5.1875 Z M 4.40625 5.1875 "/>
<path style=" stroke:none;fill-rule:nonzero;fill:rgb(65.098039%,82.745098%,53.333333%);fill-opacity:1;" d="M 3.75 6.25 C 3.75 6.480469 3.5625 6.667969 3.332031 6.667969 C 3.101562 6.667969 2.917969 6.480469 2.917969 6.25 C 2.917969 6.019531 3.101562 5.832031 3.332031 5.832031 C 3.5625 5.832031 3.75 6.019531 3.75 6.25 Z M 3.75 6.25 "/>
<path style=" stroke:none;fill-rule:nonzero;fill:rgb(65.098039%,82.745098%,53.333333%);fill-opacity:1;" d="M 4.167969 5.625 C 4.167969 5.738281 4.074219 5.832031 3.957031 5.832031 C 3.84375 5.832031 3.75 5.742188 3.75 5.625 C 3.75 5.511719 3.84375 5.417969 3.957031 5.417969 C 4.074219 5.417969 4.167969 5.511719 4.167969 5.625 Z M 4.167969 5.625 "/>
<path style=" stroke:none;fill-rule:nonzero;fill:rgb(65.098039%,82.745098%,53.333333%);fill-opacity:1;" d="M 2.917969 6.875 C 2.917969 6.988281 2.824219 7.082031 2.707031 7.082031 C 2.59375 7.082031 2.5 6.988281 2.5 6.875 C 2.5 6.761719 2.59375 6.667969 2.707031 6.667969 C 2.824219 6.667969 2.917969 6.761719 2.917969 6.875 Z M 2.917969 6.875 "/>
<path style=" stroke:none;fill-rule:nonzero;fill:rgb(65.098039%,82.745098%,53.333333%);fill-opacity:1;" d="M 4.167969 6.875 C 4.167969 6.988281 4.074219 7.082031 3.957031 7.082031 C 3.84375 7.082031 3.75 6.992188 3.75 6.875 C 3.75 6.757812 3.84375 6.667969 3.957031 6.667969 C 4.074219 6.667969 4.167969 6.761719 4.167969 6.875 Z M 4.167969 6.875 "/>
<path style=" stroke:none;fill-rule:nonzero;fill:rgb(65.098039%,82.745098%,53.333333%);fill-opacity:1;" d="M 4.582031 6.25 C 4.582031 6.480469 4.398438 6.667969 4.167969 6.667969 C 3.9375 6.667969 3.75 6.480469 3.75 6.25 C 3.75 6.019531 3.9375 5.832031 4.167969 5.832031 C 4.398438 5.832031 4.582031 6.019531 4.582031 6.25 Z M 4.582031 6.25 "/>
<path style=" stroke:none;fill-rule:nonzero;fill:rgb(86.666667%,18.039216%,26.666667%);fill-opacity:1;" d="M 4.167969 5 C 4.167969 5.230469 3.980469 5.417969 3.75 5.417969 C 3.519531 5.417969 3.332031 5.230469 3.332031 5 C 3.332031 4.769531 3.519531 4.582031 3.75 4.582031 C 3.980469 4.582031 4.167969 4.769531 4.167969 5 Z M 4.167969 5 "/>
<path style=" stroke:none;fill-rule:nonzero;fill:rgb(100%,85.098039%,51.372549%);fill-opacity:1;" d="M 5 5 C 5 5.230469 4.8125 5.417969 4.582031 5.417969 C 4.351562 5.417969 4.167969 5.230469 4.167969 5 C 4.167969 4.769531 4.351562 4.582031 4.582031 4.582031 C 4.8125 4.582031 5 4.769531 5 5 Z M 5 5 "/>
<path style=" stroke:none;fill-rule:nonzero;fill:rgb(100%,85.098039%,51.372549%);fill-opacity:1;" d="M 5.417969 4.167969 C 5.417969 4.398438 5.230469 4.582031 5 4.582031 C 4.769531 4.582031 4.582031 4.398438 4.582031 4.167969 C 4.582031 3.9375 4.769531 3.75 5 3.75 C 5.230469 3.75 5.417969 3.9375 5.417969 4.167969 Z M 5.417969 4.167969 "/>
<path style=" stroke:none;fill-rule:nonzero;fill:rgb(100%,85.098039%,51.372549%);fill-opacity:1;" d="M 4.167969 5.832031 C 4.167969 6.0625 3.980469 6.25 3.75 6.25 C 3.519531 6.25 3.332031 6.0625 3.332031 5.832031 C 3.332031 5.601562 3.519531 5.417969 3.75 5.417969 C 3.980469 5.417969 4.167969 5.601562 4.167969 5.832031 Z M 4.167969 5.832031 "/>
<path style=" stroke:none;fill-rule:nonzero;fill:rgb(65.098039%,82.745098%,53.333333%);fill-opacity:1;" d="M 6.25 3.75 C 6.019531 3.75 5.832031 3.9375 5.832031 4.167969 C 5.832031 4.179688 5.839844 4.191406 5.839844 4.207031 C 5.773438 4.183594 5.703125 4.167969 5.625 4.167969 C 5.28125 4.167969 5 4.445312 5 4.792969 C 5 5.027344 5.128906 5.226562 5.320312 5.332031 C 5.671875 4.769531 6.09375 4.285156 6.566406 3.902344 C 6.488281 3.8125 6.378906 3.75 6.25 3.75 Z M 6.25 3.75 "/>
<path style=" stroke:none;fill-rule:nonzero;fill:rgb(86.666667%,18.039216%,26.666667%);fill-opacity:1;" d="M 5.417969 4.582031 C 5.417969 4.8125 5.230469 5 5 5 C 4.769531 5 4.582031 4.8125 4.582031 4.582031 C 4.582031 4.351562 4.769531 4.167969 5 4.167969 C 5.230469 4.167969 5.417969 4.351562 5.417969 4.582031 Z M 5.417969 4.582031 "/>
<path style=" stroke:none;fill-rule:nonzero;fill:rgb(86.666667%,18.039216%,26.666667%);fill-opacity:1;" d="M 5.898438 3.339844 C 5.671875 3.300781 5.457031 3.457031 5.421875 3.683594 C 5.386719 3.910156 5.539062 4.125 5.765625 4.160156 C 5.992188 4.199219 6.207031 4.042969 6.246094 3.816406 C 6.28125 3.589844 6.128906 3.375 5.898438 3.339844 Z M 5.898438 3.339844 "/>
<path style=" stroke:none;fill-rule:nonzero;fill:rgb(95.686275%,56.470588%,4.705882%);fill-opacity:1;" d="M 7.5 10.417969 C 7.5 10.648438 7.3125 10.832031 7.082031 10.832031 C 6.851562 10.832031 6.667969 10.648438 6.667969 10.417969 C 6.667969 10.1875 6.851562 10 7.082031 10 C 7.3125 10 7.5 10.1875 7.5 10.417969 Z M 7.5 10.417969 "/>
<path style=" stroke:none;fill-rule:nonzero;fill:rgb(95.686275%,56.470588%,4.705882%);fill-opacity:1;" d="M 5.832031 11.667969 C 5.832031 11.898438 5.648438 12.082031 5.417969 12.082031 C 5.1875 12.082031 5 11.898438 5 11.667969 C 5 11.4375 5.1875 11.25 5.417969 11.25 C 5.648438 11.25 5.832031 11.4375 5.832031 11.667969 Z M 5.832031 11.667969 "/>
<path style=" stroke:none;fill-rule:nonzero;fill:rgb(95.686275%,56.470588%,4.705882%);fill-opacity:1;" d="M 8.332031 11.667969 C 8.332031 11.898438 8.148438 12.082031 7.917969 12.082031 C 7.6875 12.082031 7.5 11.898438 7.5 11.667969 C 7.5 11.4375 7.6875 11.25 7.917969 11.25 C 8.148438 11.25 8.332031 11.4375 8.332031 11.667969 Z M 8.332031 11.667969 "/>
<path style=" stroke:none;fill-rule:nonzero;fill:rgb(95.686275%,56.470588%,4.705882%);fill-opacity:1;" d="M 9.582031 11.25 C 9.582031 11.480469 9.398438 11.667969 9.167969 11.667969 C 8.9375 11.667969 8.75 11.480469 8.75 11.25 C 8.75 11.019531 8.9375 10.832031 9.167969 10.832031 C 9.398438 10.832031 9.582031 11.019531 9.582031 11.25 Z M 9.582031 11.25 "/>
<path style=" stroke:none;fill-rule:nonzero;fill:rgb(95.686275%,56.470588%,4.705882%);fill-opacity:1;" d="M 11.25 11.25 C 11.25 11.480469 11.0625 11.667969 10.832031 11.667969 C 10.601562 11.667969 10.417969 11.480469 10.417969 11.25 C 10.417969 11.019531 10.601562 10.832031 10.832031 10.832031 C 11.0625 10.832031 11.25 11.019531 11.25 11.25 Z M 11.25 11.25 "/>
<path style=" stroke:none;fill-rule:nonzero;fill:rgb(95.686275%,56.470588%,4.705882%);fill-opacity:1;" d="M 12.5 11.667969 C 12.5 11.898438 12.3125 12.082031 12.082031 12.082031 C 11.851562 12.082031 11.667969 11.898438 11.667969 11.667969 C 11.667969 11.4375 11.851562 11.25 12.082031 11.25 C 12.3125 11.25 12.5 11.4375 12.5 11.667969 Z M 12.5 11.667969 "/>
<path style=" stroke:none;fill-rule:nonzero;fill:rgb(95.686275%,56.470588%,4.705882%);fill-opacity:1;" d="M 13.332031 10.832031 C 13.332031 11.0625 13.148438 11.25 12.917969 11.25 C 12.6875 11.25 12.5 11.0625 12.5 10.832031 C 12.5 10.601562 12.6875 10.417969 12.917969 10.417969 C 13.148438 10.417969 13.332031 10.601562 13.332031 10.832031 Z M 13.332031 10.832031 "/>
<path style=" stroke:none;fill-rule:nonzero;fill:rgb(95.686275%,56.470588%,4.705882%);fill-opacity:1;" d="M 9.167969 9.167969 C 9.167969 9.398438 8.980469 9.582031 8.75 9.582031 C 8.519531 9.582031 8.332031 9.398438 8.332031 9.167969 C 8.332031 8.9375 8.519531 8.75 8.75 8.75 C 8.980469 8.75 9.167969 8.9375 9.167969 9.167969 Z M 9.167969 9.167969 "/>
<path style=" stroke:none;fill-rule:nonzero;fill:rgb(95.686275%,56.470588%,4.705882%);fill-opacity:1;" d="M 6.667969 9.167969 C 6.667969 9.398438 6.480469 9.582031 6.25 9.582031 C 6.019531 9.582031 5.832031 9.398438 5.832031 9.167969 C 5.832031 8.9375 6.019531 8.75 6.25 8.75 C 6.480469 8.75 6.667969 8.9375 6.667969 9.167969 Z M 6.667969 9.167969 "/>
<path style=" stroke:none;fill-rule:nonzero;fill:rgb(95.686275%,56.470588%,4.705882%);fill-opacity:1;" d="M 14.582031 10 C 14.582031 10.230469 14.398438 10.417969 14.167969 10.417969 C 13.9375 10.417969 13.75 10.230469 13.75 10 C 13.75 9.769531 13.9375 9.582031 14.167969 9.582031 C 14.398438 9.582031 14.582031 9.769531 14.582031 10 Z M 14.582031 10 "/>
<path style=" stroke:none;fill-rule:nonzero;fill:rgb(95.686275%,56.470588%,4.705882%);fill-opacity:1;" d="M 7.5 7.5 C 7.5 7.730469 7.3125 7.917969 7.082031 7.917969 C 6.851562 7.917969 6.667969 7.730469 6.667969 7.5 C 6.667969 7.269531 6.851562 7.082031 7.082031 7.082031 C 7.3125 7.082031 7.5 7.269531 7.5 7.5 Z M 7.5 7.5 "/>
<path style=" stroke:none;fill-rule:nonzero;fill:rgb(95.686275%,56.470588%,4.705882%);fill-opacity:1;" d="M 9.582031 6.667969 C 9.582031 6.898438 9.398438 7.082031 9.167969 7.082031 C 8.9375 7.082031 8.75 6.898438 8.75 6.667969 C 8.75 6.4375 8.9375 6.25 9.167969 6.25 C 9.398438 6.25 9.582031 6.4375 9.582031 6.667969 Z M 9.582031 6.667969 "/>
<path style=" stroke:none;fill-rule:nonzero;fill:rgb(95.686275%,56.470588%,4.705882%);fill-opacity:1;" d="M 8.332031 5 C 8.332031 5.230469 8.148438 5.417969 7.917969 5.417969 C 7.6875 5.417969 7.5 5.230469 7.5 5 C 7.5 4.769531 7.6875 4.582031 7.917969 4.582031 C 8.148438 4.582031 8.332031 4.769531 8.332031 5 Z M 8.332031 5 "/>
<path style=" stroke:none;fill-rule:nonzero;fill:rgb(95.686275%,56.470588%,4.705882%);fill-opacity:1;" d="M 11.667969 5.417969 C 11.667969 5.648438 11.480469 5.832031 11.25 5.832031 C 11.019531 5.832031 10.832031 5.648438 10.832031 5.417969 C 10.832031 5.1875 11.019531 5 11.25 5 C 11.480469 5 11.667969 5.1875 11.667969 5.417969 Z M 11.667969 5.417969 "/>
<path style=" stroke:none;fill-rule:nonzero;fill:rgb(95.686275%,56.470588%,4.705882%);fill-opacity:1;" d="M 10.417969 4.167969 C 10.417969 4.398438 10.230469 4.582031 10 4.582031 C 9.769531 4.582031 9.582031 4.398438 9.582031 4.167969 C 9.582031 3.9375 9.769531 3.75 10 3.75 C 10.230469 3.75 10.417969 3.9375 10.417969 4.167969 Z M 10.417969 4.167969 "/>
<path style=" stroke:none;fill-rule:nonzero;fill:rgb(95.686275%,56.470588%,4.705882%);fill-opacity:1;" d="M 13.332031 7.917969 C 13.332031 8.148438 13.148438 8.332031 12.917969 8.332031 C 12.6875 8.332031 12.5 8.148438 12.5 7.917969 C 12.5 7.6875 12.6875 7.5 12.917969 7.5 C 13.148438 7.5 13.332031 7.6875 13.332031 7.917969 Z M 13.332031 7.917969 "/>
<path style=" stroke:none;fill-rule:nonzero;fill:rgb(95.686275%,56.470588%,4.705882%);fill-opacity:1;" d="M 11.25 7.917969 C 11.25 8.148438 11.0625 8.332031 10.832031 8.332031 C 10.601562 8.332031 10.417969 8.148438 10.417969 7.917969 C 10.417969 7.6875 10.601562 7.5 10.832031 7.5 C 11.0625 7.5 11.25 7.6875 11.25 7.917969 Z M 11.25 7.917969 "/>
<path style=" stroke:none;fill-rule:nonzero;fill:rgb(95.686275%,56.470588%,4.705882%);fill-opacity:1;" d="M 10.417969 9.582031 C 10.417969 9.8125 10.230469 10 10 10 C 9.769531 10 9.582031 9.8125 9.582031 9.582031 C 9.582031 9.351562 9.769531 9.167969 10 9.167969 C 10.230469 9.167969 10.417969 9.351562 10.417969 9.582031 Z M 10.417969 9.582031 "/>
<path style=" stroke:none;fill-rule:nonzero;fill:rgb(95.686275%,56.470588%,4.705882%);fill-opacity:1;" d="M 12.5 9.167969 C 12.5 9.398438 12.3125 9.582031 12.082031 9.582031 C 11.851562 9.582031 11.667969 9.398438 11.667969 9.167969 C 11.667969 8.9375 11.851562 8.75 12.082031 8.75 C 12.3125 8.75 12.5 8.9375 12.5 9.167969 Z M 12.5 9.167969 "/>
</g>
</svg>
