<?xml version="1.0" encoding="UTF-8"?>
<svg xmlns="http://www.w3.org/2000/svg" xmlns:xlink="http://www.w3.org/1999/xlink" width="15pt" height="15pt" viewBox="0 0 15 15" version="1.1">
<g id="surface1">
<path style=" stroke:none;fill-rule:nonzero;fill:rgb(13.333333%,40%,60%);fill-opacity:1;" d="M 15 13.332031 C 15 14.253906 14.253906 15 13.332031 15 L 1.667969 15 C 0.746094 15 0 14.253906 0 13.332031 L 0 1.667969 C 0 0.746094 0.746094 0 1.667969 0 L 13.332031 0 C 14.253906 0 15 0.746094 15 1.667969 Z M 15 13.332031 "/>
<path style=" stroke:none;fill-rule:nonzero;fill:rgb(95.686275%,56.470588%,4.705882%);fill-opacity:1;" d="M 4.582031 3.75 C 4.582031 3.75 7.621094 1.851562 13.332031 1.679688 C 13.605469 1.671875 14.167969 1.667969 14.167969 2.082031 C 11.667969 5.832031 10.417969 11.667969 10.417969 11.667969 Z M 4.582031 3.75 "/>
<path style=" stroke:none;fill-rule:nonzero;fill:rgb(100%,67.45098%,20%);fill-opacity:1;" d="M 5 6.667969 C 5 6.667969 10 2.082031 13.332031 1.679688 C 13.601562 1.648438 14.167969 1.667969 14.167969 2.082031 C 11.25 3.75 9.167969 10 9.167969 10 Z M 5 6.667969 "/>
<path style=" stroke:none;fill-rule:nonzero;fill:rgb(100%,85.098039%,51.372549%);fill-opacity:1;" d="M 6.316406 5.183594 C 6.660156 5.484375 7.308594 5.667969 7.761719 5.585938 L 9.800781 5.226562 C 10.25 5.148438 10.472656 5.425781 10.289062 5.847656 L 9.46875 7.746094 C 9.289062 8.167969 9.316406 8.84375 9.53125 9.25 L 10.503906 11.074219 C 10.722656 11.480469 10.523438 11.777344 10.066406 11.734375 L 8.003906 11.539062 C 7.550781 11.5 6.914062 11.734375 6.597656 12.0625 L 5.160156 13.554688 C 4.84375 13.882812 4.5 13.789062 4.398438 13.339844 L 3.945312 11.320312 C 3.84375 10.875 3.425781 10.34375 3.011719 10.144531 L 1.152344 9.238281 C 0.738281 9.035156 0.726562 8.679688 1.121094 8.445312 L 2.902344 7.390625 C 3.292969 7.15625 3.667969 6.59375 3.734375 6.140625 L 4.019531 4.089844 C 4.082031 3.636719 4.417969 3.511719 4.761719 3.816406 Z M 6.316406 5.183594 "/>
</g>
</svg>
