<?xml version="1.0" encoding="UTF-8"?>
<svg xmlns="http://www.w3.org/2000/svg" xmlns:xlink="http://www.w3.org/1999/xlink" width="15pt" height="15pt" viewBox="0 0 15 15" version="1.1">
<g id="surface1">
<path style=" stroke:none;fill-rule:nonzero;fill:rgb(100%,67.45098%,20%);fill-opacity:1;" d="M 5.417969 2.5 C 5.417969 2.5 5.417969 1.667969 6.25 1.667969 C 7.082031 1.667969 7.082031 2.5 7.082031 2.5 L 7.082031 3.332031 C 7.082031 3.332031 7.082031 4.167969 6.25 4.167969 C 5.417969 4.167969 5.417969 3.332031 5.417969 3.332031 Z M 1.667969 7.082031 C 1.667969 7.082031 2.5 7.082031 2.5 7.917969 C 2.5 8.75 1.667969 8.75 1.667969 8.75 L 0.832031 8.75 C 0.832031 8.75 0 8.75 0 7.917969 C 0 7.082031 0.832031 7.082031 0.832031 7.082031 Z M 3.28125 4.183594 C 3.28125 4.183594 3.871094 4.773438 3.28125 5.363281 C 2.691406 5.953125 2.101562 5.363281 2.101562 5.363281 L 1.511719 4.773438 C 1.511719 4.773438 0.921875 4.183594 1.511719 3.59375 C 2.101562 3.003906 2.691406 3.59375 2.691406 3.59375 Z M 10.398438 5.363281 C 10.398438 5.363281 9.808594 5.953125 9.21875 5.363281 C 8.632812 4.773438 9.21875 4.183594 9.21875 4.183594 L 9.808594 3.59375 C 9.808594 3.59375 10.398438 3.007812 10.988281 3.59375 C 11.578125 4.183594 10.988281 4.773438 10.988281 4.773438 Z M 10.398438 5.363281 "/>
<path style=" stroke:none;fill-rule:nonzero;fill:rgb(100%,67.45098%,20%);fill-opacity:1;" d="M 9.582031 7.917969 C 9.582031 9.757812 8.089844 11.25 6.25 11.25 C 4.410156 11.25 2.917969 9.757812 2.917969 7.917969 C 2.917969 6.074219 4.410156 4.582031 6.25 4.582031 C 8.089844 4.582031 9.582031 6.074219 9.582031 7.917969 Z M 9.582031 7.917969 "/>
<path style=" stroke:none;fill-rule:nonzero;fill:rgb(88.235294%,90.980392%,92.941176%);fill-opacity:1;" d="M 11.757812 7 C 11.425781 7 11.101562 7.050781 10.800781 7.140625 C 10.441406 6.136719 9.464844 5.417969 8.316406 5.417969 C 7.082031 5.417969 6.050781 6.246094 5.765625 7.363281 C 5.460938 7.140625 5.082031 7 4.671875 7 C 3.664062 7 2.847656 7.796875 2.847656 8.78125 C 2.847656 9.019531 2.898438 9.246094 2.984375 9.457031 C 2.8125 9.410156 2.632812 9.375 2.441406 9.375 C 1.324219 9.375 0.417969 10.261719 0.417969 11.355469 C 0.417969 12.449219 1.324219 13.332031 2.441406 13.332031 L 11.757812 13.332031 C 13.550781 13.332031 15 11.914062 15 10.167969 C 15 8.417969 13.550781 7 11.757812 7 Z M 11.757812 7 "/>
</g>
</svg>
