<?xml version="1.0" encoding="UTF-8"?>
<svg xmlns="http://www.w3.org/2000/svg" xmlns:xlink="http://www.w3.org/1999/xlink" width="15pt" height="15pt" viewBox="0 0 15 15" version="1.1">
<g id="surface1">
<path style=" stroke:none;fill-rule:nonzero;fill:rgb(100%,67.45098%,20%);fill-opacity:1;" d="M 5.417969 0.832031 C 5.417969 0.832031 5.417969 0 6.25 0 C 7.082031 0 7.082031 0.832031 7.082031 0.832031 L 7.082031 1.667969 C 7.082031 1.667969 7.082031 2.5 6.25 2.5 C 5.417969 2.5 5.417969 1.667969 5.417969 1.667969 Z M 1.667969 5.417969 C 1.667969 5.417969 2.5 5.417969 2.5 6.25 C 2.5 7.082031 1.667969 7.082031 1.667969 7.082031 L 0.832031 7.082031 C 0.832031 7.082031 0 7.082031 0 6.25 C 0 5.417969 0.832031 5.417969 0.832031 5.417969 Z M 3.28125 2.519531 C 3.28125 2.519531 3.871094 3.105469 3.28125 3.695312 C 2.691406 4.285156 2.101562 3.695312 2.101562 3.695312 L 1.511719 3.109375 C 1.511719 3.109375 0.921875 2.519531 1.511719 1.929688 C 2.101562 1.339844 2.691406 1.929688 2.691406 1.929688 Z M 10.398438 3.695312 C 10.398438 3.695312 9.808594 4.285156 9.21875 3.695312 C 8.632812 3.105469 9.21875 2.519531 9.21875 2.519531 L 9.808594 1.929688 C 9.808594 1.929688 10.398438 1.339844 10.988281 1.929688 C 11.578125 2.519531 10.988281 3.105469 10.988281 3.105469 Z M 10.398438 3.695312 "/>
<path style=" stroke:none;fill-rule:nonzero;fill:rgb(100%,67.45098%,20%);fill-opacity:1;" d="M 9.582031 6.25 C 9.582031 8.089844 8.089844 9.582031 6.25 9.582031 C 4.410156 9.582031 2.917969 8.089844 2.917969 6.25 C 2.917969 4.410156 4.410156 2.917969 6.25 2.917969 C 8.089844 2.917969 9.582031 4.410156 9.582031 6.25 Z M 9.582031 6.25 "/>
<path style=" stroke:none;fill-rule:nonzero;fill:rgb(88.235294%,90.980392%,92.941176%);fill-opacity:1;" d="M 11.757812 5.332031 C 11.425781 5.332031 11.101562 5.382812 10.800781 5.476562 C 10.441406 4.472656 9.464844 3.75 8.316406 3.75 C 7.082031 3.75 6.050781 4.578125 5.765625 5.699219 C 5.460938 5.472656 5.082031 5.332031 4.671875 5.332031 C 3.664062 5.332031 2.847656 6.128906 2.847656 7.113281 C 2.847656 7.351562 2.898438 7.582031 2.984375 7.789062 C 2.8125 7.742188 2.632812 7.707031 2.441406 7.707031 C 1.324219 7.707031 0.417969 8.59375 0.417969 9.6875 C 0.417969 10.78125 1.324219 11.667969 2.441406 11.667969 L 11.757812 11.667969 C 13.550781 11.667969 15 10.25 15 8.5 C 15 6.75 13.550781 5.332031 11.757812 5.332031 Z M 11.757812 5.332031 "/>
<path style=" stroke:none;fill-rule:nonzero;fill:rgb(36.470588%,67.843137%,92.54902%);fill-opacity:1;" d="M 5 14.152344 L 4.953125 12.726562 L 3.757812 13.4375 C 3.492188 13.582031 3.316406 13.863281 3.324219 14.1875 C 3.339844 14.644531 3.726562 15.007812 4.191406 15 C 4.652344 14.992188 5.015625 14.609375 5 14.152344 Z M 2.089844 13.507812 L 2.042969 12.082031 L 0.847656 12.796875 C 0.582031 12.9375 0.40625 13.222656 0.417969 13.542969 C 0.433594 14.003906 0.820312 14.367188 1.28125 14.359375 C 1.746094 14.347656 2.105469 13.96875 2.089844 13.507812 Z M 7.925781 13.734375 L 7.878906 12.308594 L 6.683594 13.019531 C 6.417969 13.164062 6.238281 13.445312 6.25 13.769531 C 6.265625 14.230469 6.652344 14.59375 7.117188 14.582031 C 7.578125 14.574219 7.941406 14.191406 7.925781 13.734375 Z M 10.414062 14.152344 L 10.367188 12.726562 L 9.171875 13.4375 C 8.90625 13.582031 8.730469 13.863281 8.742188 14.1875 C 8.757812 14.644531 9.144531 15.007812 9.605469 15 C 10.070312 14.992188 10.429688 14.609375 10.414062 14.152344 Z M 12.925781 13.507812 L 12.878906 12.082031 L 11.683594 12.796875 C 11.414062 12.9375 11.238281 13.222656 11.25 13.542969 C 11.265625 14.003906 11.652344 14.367188 12.117188 14.359375 C 12.578125 14.347656 12.941406 13.96875 12.925781 13.507812 Z M 12.925781 13.507812 "/>
</g>
</svg>
