<?xml version="1.0" encoding="UTF-8"?>
<svg xmlns="http://www.w3.org/2000/svg" xmlns:xlink="http://www.w3.org/1999/xlink" width="15pt" height="15pt" viewBox="0 0 15 15" version="1.1">
<g id="surface1">
<path style=" stroke:none;fill-rule:nonzero;fill:rgb(73.333333%,86.666667%,96.078431%);fill-opacity:1;" d="M 13.773438 8.4375 C 13.773438 9.179688 13.175781 9.78125 12.441406 9.78125 C 11.703125 9.78125 11.109375 9.179688 11.109375 8.4375 C 11.109375 7.695312 11.703125 7.09375 12.441406 7.09375 C 13.175781 7.09375 13.773438 7.695312 13.773438 8.4375 Z M 13.773438 8.4375 "/>
<path style=" stroke:none;fill-rule:nonzero;fill:rgb(73.333333%,86.666667%,96.078431%);fill-opacity:1;" d="M 14.929688 9.402344 C 14.929688 10.042969 14.410156 10.5625 13.773438 10.5625 C 13.132812 10.5625 12.613281 10.042969 12.613281 9.402344 C 12.613281 8.761719 13.132812 8.242188 13.773438 8.242188 C 14.410156 8.242188 14.929688 8.761719 14.929688 9.402344 Z M 14.929688 9.402344 "/>
<path style=" stroke:none;fill-rule:nonzero;fill:rgb(73.333333%,86.666667%,96.078431%);fill-opacity:1;" d="M 14.414062 11.28125 C 14.414062 12.015625 13.820312 12.609375 13.085938 12.609375 C 12.351562 12.609375 11.757812 12.015625 11.757812 11.28125 C 11.757812 10.546875 12.351562 9.953125 13.085938 9.953125 C 13.820312 9.953125 14.414062 10.546875 14.414062 11.28125 Z M 14.414062 11.28125 "/>
<path style=" stroke:none;fill-rule:nonzero;fill:rgb(73.333333%,86.666667%,96.078431%);fill-opacity:1;" d="M 12.613281 11.371094 C 12.613281 11.734375 12.199219 12.035156 11.6875 12.035156 C 11.171875 12.035156 10.757812 11.734375 10.757812 11.371094 C 10.757812 11.003906 11.171875 10.707031 11.6875 10.707031 C 12.199219 10.707031 12.613281 11.003906 12.613281 11.371094 Z M 12.09375 8.964844 C 12.09375 8.964844 10.855469 9.359375 9.679688 9.171875 C 10.714844 9.953125 12.53125 9.589844 12.53125 9.589844 Z M 12.09375 8.964844 "/>
<path style=" stroke:none;fill-rule:nonzero;fill:rgb(73.333333%,86.666667%,96.078431%);fill-opacity:1;" d="M 12.175781 9.722656 C 12.140625 9.730469 10.925781 9.953125 9.242188 9.785156 C 9.753906 10.292969 11.945312 10.347656 12.34375 10.214844 C 12.738281 10.078125 12.175781 9.722656 12.175781 9.722656 Z M 12.460938 11.390625 C 12.460938 11.390625 11.453125 10.921875 9.679688 10.5625 C 10.886719 10.214844 12.75 10.644531 12.941406 10.921875 C 13.132812 11.199219 12.460938 11.390625 12.460938 11.390625 Z M 12.460938 11.390625 "/>
<path style=" stroke:none;fill-rule:nonzero;fill:rgb(73.333333%,86.666667%,96.078431%);fill-opacity:1;" d="M 13.527344 10.121094 C 13.527344 11.070312 13.109375 11.839844 12.597656 11.839844 C 12.082031 11.839844 11.664062 11.070312 11.664062 10.121094 C 11.664062 9.171875 12.082031 8.402344 12.597656 8.402344 C 13.109375 8.402344 13.527344 9.171875 13.527344 10.121094 Z M 13.527344 10.121094 "/>
<path style=" stroke:none;fill-rule:nonzero;fill:rgb(80%,83.921569%,86.666667%);fill-opacity:1;" d="M 0.792969 3.386719 C 0.792969 3.386719 1.960938 4.222656 3.027344 3.464844 C 4.785156 2.214844 6.671875 2.144531 7.667969 2.675781 C 8.789062 3.273438 9.570312 4.726562 8.964844 5.820312 C 8.214844 7.167969 8.734375 7.515625 9.214844 7.742188 C 9.707031 7.976562 9.070312 8.515625 8.792969 8.582031 C 8.515625 8.648438 8.917969 9.207031 9.226562 9.207031 C 9.128906 9.59375 8.957031 9.769531 8.789062 9.847656 C 9.042969 9.996094 9.148438 10.472656 8.988281 10.503906 C 8.652344 10.578125 8.367188 10.722656 8.253906 10.988281 C 7.550781 12.578125 6.804688 10.359375 4.925781 11.515625 C 2.882812 12.769531 0.816406 10.503906 1.882812 8.851562 C 0.503906 8.578125 0.171875 7.109375 1.128906 6.328125 C 0.0625 5.753906 -0.195312 3.984375 0.792969 3.386719 Z M 0.792969 3.386719 "/>
<path style=" stroke:none;fill-rule:nonzero;fill:rgb(60%,66.666667%,70.980392%);fill-opacity:1;" d="M 0.683594 6.9375 C 0.683594 6.9375 0.0585938 8.480469 1.882812 8.851562 C 3.351562 9.148438 4.234375 8.054688 4.234375 8.054688 C 4.234375 8.054688 3.070312 8.816406 1.839844 8.324219 C 0.609375 7.828125 0.683594 6.9375 0.683594 6.9375 Z M 0.792969 3.386719 C 0.792969 3.386719 0.015625 3.75 0.0859375 4.84375 C 0.15625 5.9375 0.988281 6.632812 1.980469 6.25 C 0.433594 6.058594 -0.207031 4.359375 0.792969 3.386719 Z M 0.792969 3.386719 "/>
<path style=" stroke:none;fill-rule:nonzero;fill:rgb(60%,66.666667%,70.980392%);fill-opacity:1;" d="M 1.882812 8.851562 C 1.882812 8.851562 1.113281 9.742188 1.882812 10.992188 C 2.65625 12.238281 3.980469 11.917969 4.3125 11.792969 C 2.171875 12.113281 1.5 9.613281 2.40625 8.902344 C 3.316406 8.195312 1.882812 8.851562 1.882812 8.851562 Z M 9.226562 9.207031 C 9.226562 9.207031 9.03125 9.570312 8.527344 9.597656 C 8.304688 9.609375 8.558594 9.875 8.789062 9.847656 C 8.96875 9.828125 9.113281 9.664062 9.226562 9.207031 Z M 9.023438 10.484375 C 9.09375 10.425781 8.800781 10.257812 8.554688 10.355469 C 8.308594 10.457031 8.230469 11.1875 7.953125 11.449219 C 8.40625 10.984375 8.285156 10.785156 8.652344 10.640625 C 8.847656 10.5625 8.953125 10.542969 9.023438 10.484375 Z M 9.394531 7.984375 C 9.394531 7.984375 9.394531 8.421875 8.722656 8.625 C 8.046875 8.828125 8.328125 8.414062 8.683594 8.386719 C 9.296875 8.335938 9.394531 7.984375 9.394531 7.984375 Z M 8.402344 7.273438 C 8.402344 7.273438 8.441406 6.972656 8.347656 6.746094 C 8.277344 6.578125 8.332031 6.984375 7.953125 7.171875 C 7.542969 7.375 7.089844 7.394531 7.089844 7.394531 C 7.089844 7.394531 7.910156 7.746094 8.402344 7.273438 Z M 9.175781 5.011719 C 9.175781 5.011719 9.308594 6.496094 7.644531 6.5625 C 5.976562 6.628906 4.53125 5.011719 4.53125 5.011719 C 4.53125 5.011719 6.082031 6.367188 7.65625 6.25 C 9.230469 6.132812 9.175781 5.011719 9.175781 5.011719 Z M 9.175781 5.011719 "/>
<path style=" stroke:none;fill-rule:nonzero;fill:rgb(60%,66.666667%,70.980392%);fill-opacity:1;" d="M 6.996094 6.355469 C 6.996094 6.355469 6.40625 7.378906 4.703125 7.394531 C 3.003906 7.414062 2.847656 5.921875 2.847656 5.921875 C 2.847656 5.921875 3.246094 7.339844 5.035156 7.121094 C 6.25 6.972656 6.578125 6.234375 6.578125 6.234375 Z M 6.996094 6.355469 "/>
</g>
</svg>
