<?xml version="1.0" encoding="UTF-8"?>
<svg xmlns="http://www.w3.org/2000/svg" xmlns:xlink="http://www.w3.org/1999/xlink" width="15pt" height="15pt" viewBox="0 0 15 15" version="1.1">
<g id="surface1">
<path style=" stroke:none;fill-rule:nonzero;fill:rgb(100%,80%,30.196078%);fill-opacity:1;" d="M 10.960938 5.621094 L 10.886719 5.546875 L 7.0625 1.742188 C 8.234375 3.109375 7.960938 4.984375 6.386719 6.039062 C 4.859375 7.0625 2.640625 6.945312 1.226562 5.824219 L 3.402344 8.042969 L 4.429688 9.070312 C 4.9375 9.578125 5.734375 9.800781 6.316406 9.785156 C 6.757812 9.773438 7.082031 9.625 7.070312 9.363281 C 7.066406 9.210938 7.152344 9.089844 7.292969 8.996094 C 7.742188 8.6875 8.792969 8.652344 9.417969 8.777344 C 9.625 8.816406 9.816406 8.808594 10 8.769531 C 10.554688 8.652344 10.996094 8.207031 11.265625 7.6875 C 11.535156 7.160156 11.625 6.5625 11.476562 6.152344 L 11.472656 6.136719 Z M 10.960938 5.621094 "/>
<path style=" stroke:none;fill-rule:nonzero;fill:rgb(100%,67.45098%,20%);fill-opacity:1;" d="M 7.921875 7.28125 C 7.761719 7.117188 7.457031 7.078125 7.242188 7.1875 C 7.03125 7.300781 6.988281 7.519531 7.152344 7.683594 C 7.3125 7.847656 7.617188 7.886719 7.832031 7.773438 C 8.042969 7.664062 8.085938 7.441406 7.921875 7.28125 Z M 7.921875 7.28125 "/>
<path style=" stroke:none;fill-rule:nonzero;fill:rgb(85.098039%,61.960784%,50.980392%);fill-opacity:1;" d="M 10.191406 6.785156 C 10.027344 6.621094 9.816406 6.671875 9.714844 6.894531 C 9.613281 7.117188 9.660156 7.429688 9.824219 7.589844 C 9.984375 7.753906 10.199219 7.703125 10.300781 7.480469 C 10.402344 7.257812 10.351562 6.945312 10.191406 6.785156 Z M 10.191406 6.785156 "/>
<path style=" stroke:none;fill-rule:nonzero;fill:rgb(100%,67.45098%,20%);fill-opacity:1;" d="M 9.125 4.960938 C 9.015625 5.175781 8.792969 5.214844 8.628906 5.054688 C 8.46875 4.890625 8.425781 4.585938 8.539062 4.375 C 8.652344 4.160156 8.871094 4.121094 9.035156 4.28125 C 9.195312 4.445312 9.238281 4.75 9.125 4.960938 Z M 9.125 4.960938 "/>
<path style=" stroke:none;fill-rule:nonzero;fill:rgb(85.098039%,61.960784%,50.980392%);fill-opacity:1;" d="M 5.3125 8.777344 C 5.066406 8.859375 4.738281 8.792969 4.578125 8.628906 C 4.414062 8.46875 4.480469 8.269531 4.722656 8.191406 C 4.96875 8.109375 5.296875 8.175781 5.457031 8.335938 C 5.621094 8.5 5.554688 8.695312 5.3125 8.777344 Z M 5.3125 8.777344 "/>
<path style=" stroke:none;fill-rule:nonzero;fill:rgb(74.117647%,74.117647%,74.117647%);fill-opacity:1;" d="M 10 8.769531 C 9.820312 8.808594 9.625 8.816406 9.421875 8.777344 C 8.792969 8.652344 7.746094 8.691406 7.292969 8.996094 L 12.71875 14.421875 C 13.753906 14.070312 14.355469 13.15625 14.367188 13.136719 Z M 14.109375 8.785156 L 14.117188 8.777344 L 12.648438 7.308594 C 12.230469 6.429688 12.972656 5.878906 12.679688 5.585938 C 12.394531 5.304688 11.546875 5.597656 10.960938 5.621094 L 11.472656 6.136719 C 11.628906 6.546875 11.539062 7.15625 11.265625 7.6875 L 14.984375 11.40625 C 15.09375 10.058594 14.414062 9.128906 14.109375 8.785156 Z M 14.109375 8.785156 "/>
<path style=" stroke:none;fill-rule:nonzero;fill:rgb(50.196078%,50.980392%,52.156863%);fill-opacity:1;" d="M 6.316406 9.785156 C 5.734375 9.800781 4.9375 9.578125 4.429688 9.070312 L 3.695312 8.335938 C 3.625 8.558594 3.695312 8.921875 3.84375 9.070312 C 4.136719 9.363281 3.550781 10.539062 4.722656 11.125 C 5.511719 11.519531 6.484375 11.125 7.070312 11.710938 C 7.070312 11.710938 8.9375 13.589844 9.125 13.765625 C 9.3125 13.941406 10.097656 14.542969 11.167969 14.632812 Z M 6.316406 9.785156 "/>
<path style=" stroke:none;fill-rule:nonzero;fill:rgb(65.098039%,65.098039%,65.098039%);fill-opacity:1;" d="M 7.292969 8.996094 C 7.152344 9.089844 7.066406 9.210938 7.070312 9.363281 C 7.082031 9.625 6.757812 9.773438 6.320312 9.785156 L 11.167969 14.632812 C 12.070312 14.703125 12.6875 14.433594 12.71875 14.421875 Z M 7.292969 8.996094 "/>
<path style=" stroke:none;fill-rule:nonzero;fill:rgb(84.705882%,84.705882%,84.705882%);fill-opacity:1;" d="M 11.265625 7.6875 C 11 8.207031 10.558594 8.652344 10 8.769531 L 14.367188 13.136719 C 14.929688 12.347656 14.980469 11.449219 14.984375 11.40625 Z M 11.265625 7.6875 "/>
<path style=" stroke:none;fill-rule:nonzero;fill:rgb(100%,67.45098%,20%);fill-opacity:1;" d="M 1.316406 3.085938 C 1.34375 2.960938 1.398438 2.835938 1.496094 2.738281 C 1.765625 2.46875 2.109375 2.203125 2.570312 2.191406 C 2.867188 2.1875 3.210938 2.230469 3.613281 2.472656 L 6.558594 2.5 C 6.457031 2.328125 6.332031 2.167969 6.179688 2.015625 C 5.125 0.960938 3.246094 0.792969 1.984375 1.636719 C 1.390625 2.035156 1.039062 2.585938 0.945312 3.171875 C 1.050781 3.085938 1.191406 3.054688 1.316406 3.085938 Z M 6.5625 2.507812 L 6.558594 2.5 L 6.554688 2.5 Z M 1.234375 4.101562 C 1.222656 4.09375 1.210938 4.089844 1.203125 4.082031 C 1.148438 4.027344 1.117188 3.957031 1.101562 3.886719 C 1.042969 3.875 0.992188 3.847656 0.941406 3.808594 C 0.910156 3.601562 0.910156 3.390625 0.941406 3.183594 C 0.871094 3.632812 0.953125 4.097656 1.191406 4.523438 C 1.15625 4.382812 1.167969 4.234375 1.234375 4.101562 Z M 1.234375 4.101562 "/>
<path style=" stroke:none;fill-rule:nonzero;fill:rgb(75.686275%,41.176471%,30.980392%);fill-opacity:1;" d="M 0.945312 3.171875 L 0.941406 3.183594 Z M 0.945312 3.171875 "/>
<path style=" stroke:none;fill-rule:nonzero;fill:rgb(100%,90.980392%,71.372549%);fill-opacity:1;" d="M 7.0625 1.742188 C 7.003906 1.675781 6.945312 1.609375 6.882812 1.542969 C 5.503906 0.167969 3.039062 -0.0703125 1.398438 1.046875 C -0.199219 2.136719 -0.433594 4.21875 0.902344 5.542969 C 1.003906 5.644531 1.113281 5.738281 1.226562 5.824219 C 2.640625 6.941406 4.859375 7.058594 6.386719 6.039062 C 7.960938 4.984375 8.234375 3.109375 7.0625 1.742188 Z M 6.558594 2.5 L 6.5625 2.507812 C 7.15625 3.503906 6.878906 4.730469 5.800781 5.449219 C 4.539062 6.296875 2.660156 6.125 1.605469 5.070312 C 1.433594 4.902344 1.300781 4.714844 1.191406 4.523438 C 0.953125 4.097656 0.871094 3.632812 0.941406 3.183594 L 0.941406 3.171875 L 0.945312 3.171875 C 1.039062 2.585938 1.390625 2.035156 1.984375 1.636719 C 3.25 0.792969 5.125 0.960938 6.179688 2.015625 C 6.332031 2.167969 6.457031 2.332031 6.558594 2.5 "/>
<path style=" stroke:none;fill-rule:nonzero;fill:rgb(75.686275%,41.176471%,30.980392%);fill-opacity:1;" d="M 5.800781 5.449219 C 6.878906 4.730469 7.15625 3.503906 6.5625 2.507812 L 6.554688 2.5 L 6.558594 2.5 L 3.613281 2.472656 C 3.207031 2.230469 2.867188 2.1875 2.570312 2.191406 C 2.109375 2.203125 1.765625 2.46875 1.496094 2.738281 C 1.398438 2.835938 1.34375 2.960938 1.316406 3.085938 C 1.191406 3.054688 1.050781 3.085938 0.945312 3.171875 L 0.941406 3.183594 C 0.910156 3.390625 0.910156 3.601562 0.941406 3.808594 C 0.992188 3.847656 1.042969 3.875 1.101562 3.886719 C 1.117188 3.957031 1.148438 4.027344 1.203125 4.082031 C 1.210938 4.089844 1.222656 4.09375 1.234375 4.101562 C 1.167969 4.234375 1.15625 4.382812 1.191406 4.523438 C 1.300781 4.714844 1.433594 4.902344 1.605469 5.070312 C 2.660156 6.125 4.539062 6.296875 5.800781 5.449219 Z M 5.800781 5.449219 "/>
<path style=" stroke:none;fill-rule:nonzero;fill:rgb(95.686275%,56.470588%,4.705882%);fill-opacity:1;" d="M 3.613281 2.5625 L 6.644531 2.675781 C 6.59375 2.558594 6.527344 2.445312 6.441406 2.328125 C 5.359375 1.527344 3.714844 1.457031 2.570312 2.222656 L 2.570312 2.238281 C 2.867188 2.230469 3.207031 2.320312 3.613281 2.5625 Z M 3.613281 2.5625 "/>
<path style=" stroke:none;fill-rule:nonzero;fill:rgb(85.098039%,61.960784%,50.980392%);fill-opacity:1;" d="M 2.792969 3.496094 C 2.792969 3.722656 2.605469 3.910156 2.375 3.910156 C 2.148438 3.910156 1.960938 3.722656 1.960938 3.496094 C 1.960938 3.265625 2.148438 3.078125 2.375 3.078125 C 2.605469 3.078125 2.792969 3.265625 2.792969 3.496094 Z M 2.792969 3.496094 "/>
<path style=" stroke:none;fill-rule:nonzero;fill:rgb(85.098039%,61.960784%,50.980392%);fill-opacity:1;" d="M 3.585938 4.375 C 3.585938 4.71875 3.308594 4.996094 2.964844 4.996094 C 2.621094 4.996094 2.339844 4.71875 2.339844 4.375 C 2.339844 4.03125 2.621094 3.753906 2.964844 3.753906 C 3.308594 3.753906 3.585938 4.03125 3.585938 4.375 Z M 3.585938 4.375 "/>
<path style=" stroke:none;fill-rule:nonzero;fill:rgb(85.098039%,61.960784%,50.980392%);fill-opacity:1;" d="M 4.550781 4.667969 C 4.550781 4.898438 4.367188 5.082031 4.136719 5.082031 C 3.90625 5.082031 3.722656 4.898438 3.722656 4.667969 C 3.722656 4.4375 3.90625 4.253906 4.136719 4.253906 C 4.367188 4.253906 4.550781 4.4375 4.550781 4.667969 Z M 4.550781 4.667969 "/>
<path style=" stroke:none;fill-rule:nonzero;fill:rgb(85.098039%,61.960784%,50.980392%);fill-opacity:1;" d="M 1.996094 3.199219 C 1.996094 3.316406 1.902344 3.410156 1.789062 3.410156 C 1.675781 3.410156 1.582031 3.316406 1.582031 3.199219 C 1.582031 3.085938 1.675781 2.992188 1.789062 2.992188 C 1.902344 2.992188 1.996094 3.085938 1.996094 3.199219 Z M 1.996094 3.199219 "/>
<path style=" stroke:none;fill-rule:nonzero;fill:rgb(85.098039%,61.960784%,50.980392%);fill-opacity:1;" d="M 3.671875 5.546875 C 3.671875 5.777344 3.484375 5.964844 3.257812 5.964844 C 3.027344 5.964844 2.839844 5.777344 2.839844 5.546875 C 2.839844 5.320312 3.027344 5.132812 3.257812 5.132812 C 3.484375 5.132812 3.671875 5.320312 3.671875 5.546875 Z M 3.671875 5.546875 "/>
<path style=" stroke:none;fill-rule:nonzero;fill:rgb(100%,85.098039%,51.372549%);fill-opacity:1;" d="M 3.292969 2.320312 C 3.292969 2.664062 3.015625 2.941406 2.671875 2.941406 C 2.328125 2.941406 2.046875 2.664062 2.046875 2.320312 C 2.046875 1.976562 2.328125 1.699219 2.671875 1.699219 C 3.015625 1.699219 3.292969 1.976562 3.292969 2.320312 Z M 3.292969 2.320312 "/>
<path style=" stroke:none;fill-rule:nonzero;fill:rgb(85.098039%,61.960784%,50.980392%);fill-opacity:1;" d="M 4.429688 5.546875 C 4.269531 5.386719 4.007812 5.386719 3.84375 5.546875 C 3.726562 5.664062 3.699219 5.832031 3.75 5.980469 C 4.011719 5.996094 4.273438 5.980469 4.535156 5.9375 C 4.566406 5.804688 4.535156 5.65625 4.429688 5.546875 Z M 4.429688 5.546875 "/>
<path style=" stroke:none;fill-rule:nonzero;fill:rgb(46.666667%,69.803922%,33.333333%);fill-opacity:1;" d="M 6.777344 3.199219 C 6.617188 3.039062 6.355469 3.039062 6.191406 3.199219 C 6.136719 3.253906 6.105469 3.320312 6.085938 3.386719 C 6.015625 3.40625 5.953125 3.441406 5.898438 3.496094 C 6.058594 3.332031 6.058594 3.070312 5.898438 2.90625 C 6.058594 2.746094 6.0625 2.484375 5.902344 2.324219 L 5.894531 2.316406 C 5.734375 2.15625 5.472656 2.160156 5.3125 2.320312 C 5.257812 2.265625 5.1875 2.234375 5.121094 2.21875 C 5.101562 2.148438 5.070312 2.082031 5.015625 2.027344 C 4.921875 1.929688 4.789062 1.890625 4.664062 1.910156 C 4.636719 1.738281 4.5625 1.570312 4.429688 1.4375 C 4.105469 1.117188 3.582031 1.117188 3.257812 1.441406 C 2.933594 1.765625 2.933594 2.289062 3.257812 2.613281 C 3.476562 2.835938 3.792969 2.902344 4.074219 2.820312 C 4.089844 2.851562 4.109375 2.878906 4.136719 2.90625 C 3.976562 3.070312 3.976562 3.332031 4.136719 3.496094 C 4.230469 3.589844 4.359375 3.625 4.480469 3.609375 C 4.507812 3.6875 4.550781 3.761719 4.613281 3.824219 C 4.777344 3.988281 5.019531 4.03125 5.222656 3.953125 C 5.246094 4 5.273438 4.042969 5.3125 4.082031 C 5.148438 4.242188 5.148438 4.507812 5.3125 4.667969 C 5.472656 4.832031 5.734375 4.832031 5.898438 4.667969 C 5.929688 4.699219 5.964844 4.722656 6 4.742188 L 6.015625 4.75 C 6.167969 4.820312 6.355469 4.796875 6.484375 4.667969 C 6.648438 4.507812 6.648438 4.242188 6.484375 4.082031 C 6.523438 4.042969 6.550781 3.996094 6.574219 3.949219 C 6.574219 3.933594 6.570312 3.914062 6.570312 3.898438 C 6.648438 3.882812 6.71875 3.847656 6.777344 3.789062 C 6.941406 3.625 6.941406 3.363281 6.777344 3.199219 Z M 6.777344 3.199219 "/>
<path style=" stroke:none;fill-rule:nonzero;fill:rgb(65.098039%,82.745098%,53.333333%);fill-opacity:1;" d="M 6.398438 3.496094 C 6.398438 3.609375 6.304688 3.703125 6.191406 3.703125 C 6.078125 3.703125 5.984375 3.609375 5.984375 3.496094 C 5.984375 3.378906 6.078125 3.285156 6.191406 3.285156 C 6.304688 3.285156 6.398438 3.378906 6.398438 3.496094 Z M 6.398438 3.496094 "/>
<path style=" stroke:none;fill-rule:nonzero;fill:rgb(100%,85.098039%,51.372549%);fill-opacity:1;" d="M 5.726562 5.253906 C 5.726562 5.484375 5.539062 5.671875 5.3125 5.671875 C 5.082031 5.671875 4.894531 5.484375 4.894531 5.253906 C 4.894531 5.027344 5.082031 4.839844 5.3125 4.839844 C 5.539062 4.839844 5.726562 5.027344 5.726562 5.253906 Z M 5.726562 5.253906 "/>
<path style=" stroke:none;fill-rule:nonzero;fill:rgb(100%,85.098039%,51.372549%);fill-opacity:1;" d="M 5.164062 3.933594 C 4.960938 3.730469 4.652344 3.699219 4.414062 3.835938 C 4.386719 3.765625 4.34375 3.699219 4.285156 3.640625 C 4.226562 3.582031 4.160156 3.539062 4.089844 3.507812 C 4.226562 3.269531 4.195312 2.964844 3.992188 2.761719 C 3.746094 2.515625 3.355469 2.515625 3.109375 2.761719 C 2.867188 3.003906 2.867188 3.398438 3.109375 3.640625 C 3.167969 3.699219 3.234375 3.742188 3.304688 3.773438 C 3.167969 4.011719 3.199219 4.316406 3.402344 4.519531 C 3.605469 4.722656 3.914062 4.753906 4.152344 4.617188 C 4.183594 4.691406 4.226562 4.757812 4.285156 4.816406 C 4.527344 5.058594 4.921875 5.058594 5.164062 4.816406 C 5.40625 4.570312 5.40625 4.175781 5.164062 3.933594 Z M 5.164062 3.933594 "/>
<path style=" stroke:none;fill-rule:nonzero;fill:rgb(100%,90.980392%,71.372549%);fill-opacity:1;" d="M 4.875 4.300781 C 4.875 4.585938 4.644531 4.820312 4.359375 4.820312 C 4.070312 4.820312 3.839844 4.585938 3.839844 4.300781 C 3.839844 4.015625 4.070312 3.78125 4.359375 3.78125 C 4.644531 3.78125 4.875 4.015625 4.875 4.300781 Z M 4.875 4.300781 "/>
<path style=" stroke:none;fill-rule:nonzero;fill:rgb(100%,90.980392%,71.372549%);fill-opacity:1;" d="M 4.082031 3.421875 C 4.082031 3.59375 3.941406 3.730469 3.769531 3.730469 C 3.597656 3.730469 3.460938 3.59375 3.460938 3.421875 C 3.460938 3.25 3.597656 3.109375 3.769531 3.109375 C 3.941406 3.109375 4.082031 3.25 4.082031 3.421875 Z M 4.082031 3.421875 "/>
<path style=" stroke:none;fill-rule:nonzero;fill:rgb(100%,90.980392%,71.372549%);fill-opacity:1;" d="M 3.496094 2.832031 C 3.496094 3.003906 3.355469 3.144531 3.183594 3.144531 C 3.011719 3.144531 2.871094 3.003906 2.871094 2.832031 C 2.871094 2.660156 3.011719 2.523438 3.183594 2.523438 C 3.355469 2.523438 3.496094 2.660156 3.496094 2.832031 Z M 3.496094 2.832031 "/>
<path style=" stroke:none;fill-rule:nonzero;fill:rgb(65.098039%,82.745098%,53.333333%);fill-opacity:1;" d="M 3.757812 2.027344 C 3.757812 2.140625 3.664062 2.234375 3.550781 2.234375 C 3.4375 2.234375 3.34375 2.140625 3.34375 2.027344 C 3.34375 1.910156 3.4375 1.820312 3.550781 1.820312 C 3.664062 1.820312 3.757812 1.910156 3.757812 2.027344 Z M 3.757812 2.027344 "/>
<path style=" stroke:none;fill-rule:nonzero;fill:rgb(46.666667%,69.803922%,33.333333%);fill-opacity:1;" d="M 6.605469 2.613281 C 6.605469 2.84375 6.421875 3.027344 6.191406 3.027344 C 5.960938 3.027344 5.777344 2.84375 5.777344 2.613281 C 5.777344 2.382812 5.960938 2.199219 6.191406 2.199219 C 6.421875 2.199219 6.605469 2.382812 6.605469 2.613281 Z M 6.605469 2.613281 "/>
<path style=" stroke:none;fill-rule:nonzero;fill:rgb(65.098039%,82.745098%,53.333333%);fill-opacity:1;" d="M 6.3125 3.496094 C 6.3125 3.722656 6.128906 3.910156 5.898438 3.910156 C 5.667969 3.910156 5.484375 3.722656 5.484375 3.496094 C 5.484375 3.265625 5.667969 3.078125 5.898438 3.078125 C 6.128906 3.078125 6.3125 3.265625 6.3125 3.496094 Z M 6.3125 3.496094 "/>
<path style=" stroke:none;fill-rule:nonzero;fill:rgb(65.098039%,82.745098%,53.333333%);fill-opacity:1;" d="M 5.457031 2.46875 C 5.367188 2.375 5.253906 2.320312 5.136719 2.296875 C 5.132812 2.199219 5.09375 2.101562 5.019531 2.027344 C 4.855469 1.863281 4.59375 1.863281 4.429688 2.027344 C 4.269531 1.863281 4.007812 1.863281 3.84375 2.027344 C 3.683594 2.1875 3.683594 2.453125 3.84375 2.613281 C 4.003906 2.777344 4.269531 2.777344 4.429688 2.613281 C 4.441406 2.621094 4.449219 2.628906 4.460938 2.636719 C 4.347656 2.871094 4.386719 3.15625 4.578125 3.347656 C 4.820312 3.589844 5.214844 3.589844 5.457031 3.347656 C 5.703125 3.105469 5.703125 2.710938 5.457031 2.46875 Z M 5.457031 2.46875 "/>
<path style=" stroke:none;fill-rule:nonzero;fill:rgb(86.666667%,18.039216%,26.666667%);fill-opacity:1;" d="M 4.667969 1.660156 C 4.667969 1.832031 4.53125 1.972656 4.359375 1.972656 C 4.1875 1.972656 4.046875 1.832031 4.046875 1.660156 C 4.046875 1.488281 4.1875 1.347656 4.359375 1.347656 C 4.53125 1.347656 4.667969 1.488281 4.667969 1.660156 Z M 4.667969 1.660156 "/>
<path style=" stroke:none;fill-rule:nonzero;fill:rgb(86.666667%,18.039216%,26.666667%);fill-opacity:1;" d="M 6.429688 2.832031 C 6.429688 3.003906 6.289062 3.144531 6.117188 3.144531 C 5.945312 3.144531 5.808594 3.003906 5.808594 2.832031 C 5.808594 2.660156 5.945312 2.523438 6.117188 2.523438 C 6.289062 2.523438 6.429688 2.660156 6.429688 2.832031 Z M 6.429688 2.832031 "/>
<path style=" stroke:none;fill-rule:nonzero;fill:rgb(86.666667%,18.039216%,26.666667%);fill-opacity:1;" d="M 6.3125 4.082031 C 6.3125 4.308594 6.128906 4.496094 5.898438 4.496094 C 5.667969 4.496094 5.484375 4.308594 5.484375 4.082031 C 5.484375 3.851562 5.667969 3.667969 5.898438 3.667969 C 6.128906 3.667969 6.3125 3.851562 6.3125 4.082031 Z M 6.3125 4.082031 "/>
<path style=" stroke:none;fill-rule:nonzero;fill:rgb(46.666667%,69.803922%,33.333333%);fill-opacity:1;" d="M 5.605469 1.441406 C 5.441406 1.277344 5.179688 1.277344 5.015625 1.441406 C 4.855469 1.601562 4.855469 1.863281 5.015625 2.027344 C 4.855469 2.1875 4.855469 2.453125 5.015625 2.613281 C 5.179688 2.777344 5.441406 2.777344 5.605469 2.613281 C 5.765625 2.453125 5.765625 2.1875 5.605469 2.027344 C 5.765625 1.863281 5.765625 1.601562 5.605469 1.441406 Z M 5.605469 1.441406 "/>
<path style=" stroke:none;fill-rule:nonzero;fill:rgb(86.666667%,18.039216%,26.666667%);fill-opacity:1;" d="M 5.433594 2.613281 C 5.433594 2.84375 5.246094 3.027344 5.015625 3.027344 C 4.789062 3.027344 4.601562 2.84375 4.601562 2.613281 C 4.601562 2.382812 4.789062 2.199219 5.015625 2.199219 C 5.246094 2.199219 5.433594 2.382812 5.433594 2.613281 Z M 5.433594 2.613281 "/>
<path style=" stroke:none;fill-rule:nonzero;fill:rgb(86.666667%,18.039216%,26.666667%);fill-opacity:1;" d="M 5.8125 1.734375 C 5.8125 1.847656 5.71875 1.941406 5.605469 1.941406 C 5.488281 1.941406 5.398438 1.847656 5.398438 1.734375 C 5.398438 1.617188 5.488281 1.527344 5.605469 1.527344 C 5.71875 1.527344 5.8125 1.617188 5.8125 1.734375 Z M 5.8125 1.734375 "/>
</g>
</svg>
