<?xml version="1.0" encoding="UTF-8"?>
<svg xmlns="http://www.w3.org/2000/svg" xmlns:xlink="http://www.w3.org/1999/xlink" width="15pt" height="15pt" viewBox="0 0 15 15" version="1.1">
<g id="surface1">
<path style=" stroke:none;fill-rule:nonzero;fill:rgb(53.333333%,60%,65.098039%);fill-opacity:1;" d="M 5.050781 13.609375 C 5.050781 13.609375 6.546875 11.199219 6.164062 8.992188 C 5.867188 7.28125 4.753906 6.9375 3.644531 5.417969 C 2.34375 3.628906 2.210938 2.308594 2.605469 1.667969 C 3.074219 0.902344 4.828125 0 8.75 0 C 11.265625 0 12.414062 0.675781 12.796875 1.421875 C 13.265625 2.34375 12.984375 5.417969 11.875 7.535156 C 10.046875 11.019531 8.019531 13.351562 6.144531 14.167969 C 4.664062 14.8125 5.050781 13.609375 5.050781 13.609375 Z M 5.050781 13.609375 "/>
<path style=" stroke:none;fill-rule:nonzero;fill:rgb(40%,45.882353%,49.803922%);fill-opacity:1;" d="M 7.140625 3.332031 C 9.175781 3.222656 10.777344 2.675781 11.128906 1.972656 C 11.25 1.730469 11.234375 1.464844 11.085938 1.25 C 10.695312 0.671875 9.324219 0.546875 7.015625 0.808594 C 6.3125 0.886719 5.40625 1.019531 5.433594 1.25 C 5.460938 1.480469 6.441406 1.378906 7.089844 1.335938 C 7.378906 1.3125 7.648438 1.300781 7.898438 1.289062 C 9.476562 1.234375 10.304688 1.398438 10.332031 1.667969 C 10.359375 1.96875 9 2.398438 7.097656 2.5 C 3.363281 2.703125 2.679688 2.078125 2.5625 1.882812 C 2.546875 1.859375 2.535156 1.832031 2.53125 1.808594 C 2.417969 2.070312 2.378906 2.414062 2.4375 2.832031 C 3.09375 3.191406 4.183594 3.375 5.742188 3.375 C 6.171875 3.375 6.640625 3.359375 7.140625 3.332031 Z M 9.21875 6.121094 C 9.441406 6.058594 10.222656 5.746094 10.175781 5.519531 C 10.117188 5.242188 9.066406 5.535156 8.839844 5.578125 C 5.167969 6.285156 3.714844 5.296875 3.269531 4.859375 C 3.382812 5.039062 3.507812 5.226562 3.644531 5.417969 C 3.921875 5.796875 4.199219 6.101562 4.464844 6.375 C 4.976562 6.507812 5.601562 6.597656 6.367188 6.597656 C 7.167969 6.597656 8.019531 6.457031 9.21875 6.121094 Z M 9.21875 6.121094 "/>
<path style=" stroke:none;fill-rule:nonzero;fill:rgb(40%,45.882353%,49.803922%);fill-opacity:1;" d="M 12.65625 2.179688 C 12.257812 2.804688 11.199219 3.820312 6.699219 4.25 C 6.445312 4.277344 5.558594 4.316406 5.578125 4.570312 C 5.609375 4.960938 6.734375 4.851562 6.746094 4.851562 C 9.972656 4.65625 11.988281 4.125 13.007812 3.070312 C 13.027344 2.460938 12.980469 1.941406 12.867188 1.601562 C 12.847656 1.765625 12.789062 1.964844 12.65625 2.179688 Z M 6.164062 8.992188 C 6.183594 9.105469 6.195312 9.21875 6.203125 9.332031 C 6.605469 9.472656 7.136719 9.570312 7.847656 9.570312 C 8.179688 9.570312 8.550781 9.546875 8.964844 9.503906 C 9.304688 9.464844 9.804688 9.273438 9.777344 9.042969 C 9.753906 8.816406 9.113281 8.898438 8.878906 8.898438 C 6.917969 8.925781 6.203125 8.503906 5.945312 8.234375 C 6.039062 8.457031 6.113281 8.703125 6.164062 8.992188 Z M 8.601562 7.117188 C 8.371094 7.136719 7.695312 7.175781 7.675781 7.421875 C 7.648438 7.792969 8.613281 7.746094 8.621094 7.746094 C 10.3125 7.679688 11.472656 7.210938 12.25 6.714844 C 12.433594 6.242188 12.582031 5.746094 12.703125 5.25 C 12.355469 5.738281 11.277344 6.882812 8.601562 7.117188 Z M 7.863281 12.148438 C 7.851562 11.984375 7.65625 11.960938 7.15625 11.921875 C 6.652344 11.882812 6.441406 11.667969 6.257812 11.472656 C 6.152344 11.355469 6.09375 11.21875 6.0625 11.089844 C 5.980469 11.453125 5.875 11.792969 5.761719 12.101562 C 6.089844 12.378906 6.523438 12.511719 7.109375 12.539062 C 7.328125 12.550781 7.890625 12.484375 7.863281 12.148438 Z M 10.804688 9.40625 C 10.394531 9.785156 9.53125 10.324219 7.871094 10.441406 C 7.644531 10.460938 7.109375 10.480469 7.097656 10.710938 C 7.085938 10.941406 7.585938 11.082031 7.816406 11.09375 C 7.957031 11.101562 8.089844 11.105469 8.222656 11.105469 C 8.839844 11.105469 9.355469 11.019531 9.792969 10.894531 C 10.132812 10.4375 10.472656 9.941406 10.804688 9.40625 Z M 10.804688 9.40625 "/>
<path style=" stroke:none;fill-rule:nonzero;fill:rgb(47.058824%,53.333333%,58.431373%);fill-opacity:1;" d="M 5.070312 0.796875 C 7.671875 0.0273438 10.988281 0.171875 12.378906 0.921875 C 12.390625 0.925781 12.398438 0.929688 12.410156 0.933594 C 11.820312 0.40625 10.695312 0 8.75 0 C 4.828125 0 3.074219 0.902344 2.605469 1.667969 C 2.578125 1.710938 2.554688 1.757812 2.53125 1.808594 C 2.535156 1.832031 2.546875 1.859375 2.5625 1.882812 C 2.679688 2.078125 3.363281 2.703125 7.097656 2.5 C 9 2.398438 10.359375 1.96875 10.328125 1.667969 C 10.304688 1.398438 9.476562 1.234375 7.898438 1.289062 C 9.769531 1.289062 9.738281 1.765625 8.734375 1.910156 C 4.335938 2.539062 2.898438 1.441406 5.070312 0.796875 Z M 5.070312 0.796875 "/>
<path style=" stroke:none;fill-rule:nonzero;fill:rgb(80%,83.921569%,86.666667%);fill-opacity:1;" d="M 11.933594 15 C 11.9375 14.964844 11.945312 14.933594 11.945312 14.894531 C 11.945312 14.488281 11.671875 14.148438 11.300781 14.035156 C 11.214844 13.222656 10.53125 12.585938 9.695312 12.585938 C 9.109375 12.585938 8.601562 12.898438 8.316406 13.363281 C 8.128906 13.246094 7.910156 13.175781 7.671875 13.175781 C 7.214844 13.175781 6.820312 13.433594 6.613281 13.8125 C 6.394531 13.582031 6.089844 13.4375 5.746094 13.4375 C 5.625 13.4375 5.511719 13.460938 5.402344 13.492188 C 5.261719 13.386719 5.097656 13.3125 4.917969 13.285156 C 4.667969 12.644531 4.050781 12.1875 3.324219 12.1875 C 2.496094 12.1875 1.808594 12.773438 1.648438 13.554688 C 1.605469 13.550781 1.5625 13.542969 1.519531 13.542969 C 0.949219 13.542969 0.484375 14.003906 0.484375 14.574219 C 0.484375 14.726562 0.519531 14.871094 0.582031 15 Z M 11.933594 15 "/>
</g>
</svg>
