<?xml version="1.0" encoding="UTF-8"?>
<svg xmlns="http://www.w3.org/2000/svg" xmlns:xlink="http://www.w3.org/1999/xlink" width="15pt" height="15pt" viewBox="0 0 15 15" version="1.1">
<g id="surface1">
<path style=" stroke:none;fill-rule:nonzero;fill:rgb(96.078431%,97.254902%,98.039216%);fill-opacity:1;" d="M 13.332031 0 L 1.667969 0 C 0.746094 0 0 0.746094 0 1.667969 L 0 4.167969 L 15 4.167969 L 15 1.667969 C 15 0.746094 14.253906 0 13.332031 0 Z M 13.332031 0 "/>
<path style=" stroke:none;fill-rule:nonzero;fill:rgb(88.235294%,90.980392%,92.941176%);fill-opacity:1;" d="M 15 6.820312 L 15 3.855469 C 14.734375 3.691406 14.421875 3.59375 14.089844 3.59375 C 13.535156 3.59375 13.050781 3.855469 12.730469 4.253906 C 12.394531 3.945312 11.953125 3.75 11.457031 3.75 C 11.15625 3.75 10.878906 3.828125 10.625 3.953125 C 10.316406 3.339844 9.691406 2.917969 8.957031 2.917969 C 8.707031 2.917969 8.464844 2.96875 8.246094 3.058594 C 8.046875 2.492188 7.511719 2.082031 6.875 2.082031 C 6.371094 2.082031 5.929688 2.339844 5.667969 2.726562 C 5.402344 2.585938 5.109375 2.5 4.792969 2.5 C 4.109375 2.5 3.515625 2.871094 3.1875 3.414062 C 2.886719 2.636719 2.136719 2.082031 1.25 2.082031 C 0.777344 2.082031 0.347656 2.246094 0 2.507812 L 0 5.824219 C 0.347656 6.089844 10.207031 7.5 10.207031 7.5 C 10.207031 7.5 14.734375 6.984375 15 6.820312 Z M 15 6.820312 "/>
<path style=" stroke:none;fill-rule:nonzero;fill:rgb(80%,83.921569%,86.666667%);fill-opacity:1;" d="M 15 6.15625 C 14.648438 5.707031 14.109375 5.417969 13.5 5.417969 C 12.667969 5.417969 11.964844 5.949219 11.699219 6.691406 C 11.621094 6.675781 11.539062 6.667969 11.457031 6.667969 C 11.117188 6.667969 10.804688 6.789062 10.558594 6.984375 C 10.28125 6.785156 9.949219 6.667969 9.582031 6.667969 C 9.4375 6.667969 9.296875 6.691406 9.160156 6.726562 C 9.160156 6.707031 9.167969 6.6875 9.167969 6.667969 C 9.167969 5.746094 8.421875 5 7.5 5 C 6.992188 5 6.546875 5.230469 6.238281 5.585938 C 5.988281 5.476562 5.710938 5.417969 5.417969 5.417969 C 5.339844 5.417969 5.269531 5.429688 5.199219 5.4375 C 4.761719 4.378906 3.71875 3.628906 2.5 3.628906 C 1.4375 3.628906 0.507812 4.199219 0 5.046875 L 0 10.691406 L 13.5 10.085938 C 13.5 10.085938 14.648438 9.527344 15 8.851562 Z M 15 6.15625 "/>
<path style=" stroke:none;fill-rule:nonzero;fill:rgb(88.235294%,90.980392%,92.941176%);fill-opacity:1;" d="M 15 12.707031 L 15 8.507812 C 14.746094 8.398438 14.464844 8.332031 14.167969 8.332031 C 13.28125 8.332031 12.53125 8.886719 12.226562 9.664062 C 11.902344 9.121094 11.308594 8.75 10.625 8.75 C 10.308594 8.75 10.011719 8.835938 9.75 8.976562 C 9.488281 8.589844 9.042969 8.332031 8.542969 8.332031 C 7.90625 8.332031 7.371094 8.742188 7.171875 9.308594 C 6.953125 9.21875 6.710938 9.167969 6.457031 9.167969 C 5.726562 9.167969 5.097656 9.589844 4.789062 10.203125 C 4.539062 10.078125 4.257812 10 3.957031 10 C 3.464844 10 3.019531 10.195312 2.6875 10.503906 C 2.367188 10.105469 1.878906 9.84375 1.328125 9.84375 C 0.792969 9.84375 0.320312 10.089844 0 10.46875 L 0 12.707031 Z M 15 12.707031 "/>
<path style=" stroke:none;fill-rule:nonzero;fill:rgb(96.078431%,97.254902%,98.039216%);fill-opacity:1;" d="M 10.417969 10.417969 C 10.074219 10.417969 9.757812 10.519531 9.492188 10.695312 C 9.214844 9.929688 8.453125 9.417969 7.605469 9.503906 C 6.820312 9.585938 6.207031 10.152344 6.03125 10.878906 C 5.953125 10.875 5.878906 10.871094 5.800781 10.878906 C 5.480469 10.910156 5.199219 11.054688 4.980469 11.265625 C 4.703125 11.105469 4.378906 11.023438 4.03125 11.058594 C 3.894531 11.074219 3.765625 11.109375 3.640625 11.15625 C 3.640625 11.136719 3.640625 11.117188 3.640625 11.097656 C 3.550781 10.230469 2.777344 9.597656 1.910156 9.6875 C 1.433594 9.734375 1.03125 9.996094 0.777344 10.363281 C 0.535156 10.285156 0.269531 10.253906 0 10.28125 L 0 13.332031 C 0 13.65625 0.0976562 13.953125 0.253906 14.207031 C 0.296875 14.207031 12.082031 13.003906 12.082031 12.082031 C 12.082031 11.164062 11.335938 10.417969 10.417969 10.417969 Z M 10.417969 10.417969 "/>
<path style=" stroke:none;fill-rule:nonzero;fill:rgb(80%,83.921569%,86.666667%);fill-opacity:1;" d="M 13.332031 15 C 14.253906 15 15 14.253906 15 13.332031 L 15 10.164062 C 14.621094 9.984375 14.199219 9.878906 13.75 9.878906 C 12.53125 9.878906 11.488281 10.628906 11.050781 11.6875 C 10.980469 11.679688 10.910156 11.667969 10.832031 11.667969 C 10.539062 11.667969 10.261719 11.726562 10.011719 11.835938 C 9.703125 11.480469 9.257812 11.25 8.75 11.25 C 7.828125 11.25 7.082031 11.996094 7.082031 12.917969 C 7.082031 12.9375 7.089844 12.957031 7.089844 12.976562 C 6.953125 12.941406 6.8125 12.917969 6.667969 12.917969 C 6.300781 12.917969 5.96875 13.035156 5.691406 13.234375 C 5.445312 13.039062 5.132812 12.917969 4.792969 12.917969 C 4.710938 12.917969 4.628906 12.925781 4.550781 12.941406 C 4.285156 12.199219 3.585938 11.667969 2.75 11.667969 C 1.921875 11.667969 1.222656 12.195312 0.957031 12.929688 C 0.914062 12.925781 0.875 12.917969 0.832031 12.917969 C 0.527344 12.917969 0.246094 13.003906 0 13.148438 L 0 13.332031 C 0 14.253906 0.746094 15 1.667969 15 Z M 13.332031 15 "/>
</g>
</svg>
