<?xml version="1.0" encoding="UTF-8"?>
<svg xmlns="http://www.w3.org/2000/svg" xmlns:xlink="http://www.w3.org/1999/xlink" width="15pt" height="15pt" viewBox="0 0 15 15" version="1.1">
<g id="surface1">
<path style=" stroke:none;fill-rule:nonzero;fill:rgb(88.235294%,90.980392%,92.941176%);fill-opacity:1;" d="M 11.667969 1.667969 C 11.324219 1.667969 10.992188 1.71875 10.679688 1.816406 C 10.308594 0.757812 9.308594 0 8.125 0 C 6.855469 0 5.796875 0.875 5.5 2.050781 C 5.1875 1.8125 4.800781 1.667969 4.375 1.667969 C 3.339844 1.667969 2.5 2.507812 2.5 3.542969 C 2.5 3.792969 2.550781 4.03125 2.640625 4.25 C 2.460938 4.203125 2.277344 4.167969 2.082031 4.167969 C 0.933594 4.167969 0 5.097656 0 6.25 C 0 7.402344 0.933594 8.332031 2.082031 8.332031 L 11.667969 8.332031 C 13.507812 8.332031 15 6.839844 15 5 C 15 3.160156 13.507812 1.667969 11.667969 1.667969 Z M 11.667969 1.667969 "/>
<path style=" stroke:none;fill-rule:nonzero;fill:rgb(36.470588%,67.843137%,92.54902%);fill-opacity:1;" d="M 5 10.402344 L 4.953125 8.976562 L 3.757812 9.6875 C 3.492188 9.832031 3.3125 10.113281 3.324219 10.4375 C 3.339844 10.894531 3.726562 11.257812 4.191406 11.25 C 4.652344 11.242188 5.015625 10.859375 5 10.402344 Z M 4.175781 13.507812 L 4.128906 12.082031 L 2.933594 12.796875 C 2.667969 12.9375 2.488281 13.222656 2.5 13.542969 C 2.515625 14.003906 2.902344 14.367188 3.367188 14.359375 C 3.828125 14.347656 4.191406 13.96875 4.175781 13.507812 Z M 2.089844 11.652344 L 2.042969 10.226562 L 0.847656 10.9375 C 0.582031 11.082031 0.40625 11.363281 0.417969 11.6875 C 0.433594 12.144531 0.820312 12.507812 1.28125 12.5 C 1.746094 12.492188 2.105469 12.109375 2.089844 11.652344 Z M 9.589844 10.402344 L 9.542969 8.976562 L 8.347656 9.6875 C 8.082031 9.832031 7.90625 10.113281 7.917969 10.4375 C 7.933594 10.894531 8.320312 11.257812 8.78125 11.25 C 9.246094 11.242188 9.605469 10.859375 9.589844 10.402344 Z M 7.082031 12.066406 L 7.035156 10.640625 L 5.839844 11.351562 C 5.574219 11.496094 5.398438 11.78125 5.410156 12.101562 C 5.425781 12.5625 5.8125 12.925781 6.273438 12.917969 C 6.734375 12.90625 7.097656 12.527344 7.082031 12.066406 Z M 9.175781 13.925781 L 9.128906 12.5 L 7.933594 13.210938 C 7.664062 13.355469 7.488281 13.636719 7.5 13.960938 C 7.515625 14.421875 7.902344 14.785156 8.367188 14.773438 C 8.828125 14.765625 9.191406 14.382812 9.175781 13.925781 Z M 12.082031 11.652344 L 12.035156 10.226562 L 10.839844 10.9375 C 10.574219 11.082031 10.398438 11.363281 10.410156 11.6875 C 10.425781 12.144531 10.8125 12.507812 11.273438 12.5 C 11.734375 12.492188 12.097656 12.109375 12.082031 11.652344 Z M 12.082031 11.652344 "/>
</g>
</svg>
