<?xml version="1.0" encoding="UTF-8"?>
<svg xmlns="http://www.w3.org/2000/svg" xmlns:xlink="http://www.w3.org/1999/xlink" width="15pt" height="15pt" viewBox="0 0 15 15" version="1.1">
<g id="surface1">
<path style=" stroke:none;fill-rule:nonzero;fill:rgb(95.686275%,56.470588%,4.705882%);fill-opacity:1;" d="M 5.796875 15 C 5.761719 15 5.722656 14.988281 5.691406 14.964844 C 5.625 14.910156 5.605469 14.820312 5.644531 14.746094 L 7.082031 12.082031 L 4.96875 12.082031 C 4.894531 12.082031 4.785156 12.070312 4.734375 11.960938 C 4.6875 11.859375 4.710938 11.761719 4.753906 11.667969 L 6.25 7.917969 C 6.28125 7.890625 9.125 8.082031 9.167969 8.082031 C 9.203125 8.082031 9.242188 8.09375 9.273438 8.117188 C 9.339844 8.167969 9.359375 8.257812 9.320312 8.332031 L 7.730469 10.832031 L 9.828125 10.832031 C 9.898438 10.832031 9.964844 10.878906 9.988281 10.945312 C 10.015625 11.015625 9.996094 11.089844 9.941406 11.140625 L 5.914062 14.957031 C 5.878906 14.984375 5.839844 15 5.796875 15 Z M 5.796875 15 "/>
<path style=" stroke:none;fill-rule:nonzero;fill:rgb(88.235294%,90.980392%,92.941176%);fill-opacity:1;" d="M 11.667969 1.667969 C 11.324219 1.667969 10.992188 1.71875 10.679688 1.816406 C 10.308594 0.757812 9.308594 0 8.125 0 C 6.855469 0 5.796875 0.875 5.5 2.050781 C 5.1875 1.8125 4.800781 1.667969 4.375 1.667969 C 3.339844 1.667969 2.5 2.507812 2.5 3.542969 C 2.5 3.792969 2.550781 4.03125 2.640625 4.25 C 2.460938 4.203125 2.277344 4.167969 2.082031 4.167969 C 0.933594 4.167969 0 5.097656 0 6.25 C 0 7.402344 0.933594 8.332031 2.082031 8.332031 L 11.667969 8.332031 C 13.507812 8.332031 15 6.839844 15 5 C 15 3.160156 13.507812 1.667969 11.667969 1.667969 Z M 11.667969 1.667969 "/>
</g>
</svg>
