<?xml version="1.0" encoding="UTF-8"?>
<svg xmlns="http://www.w3.org/2000/svg" xmlns:xlink="http://www.w3.org/1999/xlink" width="15pt" height="15pt" viewBox="0 0 15 15" version="1.1">
<g id="surface1">
<path style=" stroke:none;fill-rule:nonzero;fill:rgb(46.666667%,69.803922%,33.333333%);fill-opacity:1;" d="M 14.480469 9.167969 C 13.070312 9.167969 9.519531 10.644531 7.917969 12.148438 L 7.917969 7.082031 C 7.917969 6.851562 7.730469 6.667969 7.5 6.667969 C 7.269531 6.667969 7.082031 6.851562 7.082031 7.082031 L 7.082031 12.226562 C 5.519531 10.695312 1.871094 9.167969 0.4375 9.167969 C 0.0507812 9.167969 4.964844 14.996094 7.082031 14.417969 L 7.082031 14.582031 C 7.082031 14.8125 7.269531 15 7.5 15 C 7.730469 15 7.917969 14.8125 7.917969 14.582031 L 7.917969 14.433594 C 10.078125 14.847656 14.863281 9.167969 14.480469 9.167969 Z M 14.480469 9.167969 "/>
<path style=" stroke:none;fill-rule:nonzero;fill:rgb(91.764706%,34.901961%,43.137255%);fill-opacity:1;" d="M 10.417969 5.589844 C 10.417969 8.238281 9.707031 9.582031 7.5 9.582031 C 5.292969 9.582031 4.582031 8.238281 4.582031 5.589844 C 4.582031 2.945312 6.667969 0 7.5 0 C 8.332031 0 10.417969 2.945312 10.417969 5.589844 Z M 10.417969 5.589844 "/>
<path style=" stroke:none;fill-rule:nonzero;fill:rgb(95.686275%,67.058824%,72.941176%);fill-opacity:1;" d="M 9.496094 0.832031 C 9.296875 0.832031 7.785156 6.78125 7.496094 8.867188 C 7.1875 6.78125 5.617188 0.832031 5.417969 0.832031 C 5 0.832031 2.917969 4.582031 2.917969 6.25 C 2.917969 7.917969 5.292969 9.582031 7.5 9.582031 C 9.707031 9.582031 11.996094 7.917969 11.996094 6.25 C 11.996094 4.582031 9.914062 0.832031 9.496094 0.832031 Z M 9.496094 0.832031 "/>
</g>
</svg>
