<?xml version="1.0" encoding="UTF-8"?>
<svg xmlns="http://www.w3.org/2000/svg" xmlns:xlink="http://www.w3.org/1999/xlink" width="15pt" height="15pt" viewBox="0 0 15 15" version="1.1">
<g id="surface1">
<path style=" stroke:none;fill-rule:nonzero;fill:rgb(46.666667%,69.803922%,33.333333%);fill-opacity:1;" d="M 9.546875 6 C 9.09375 6.296875 8.691406 6.648438 8.347656 7.007812 C 8.292969 5.238281 7.867188 2.953125 5.523438 1.832031 C 5.0625 -0.691406 -0.347656 0.589844 0.136719 0.835938 C 1.101562 1.324219 1.613281 2.5625 2.234375 3.21875 C 3.339844 4.378906 4.570312 4.453125 5.179688 3.542969 C 6.625 4.480469 6.71875 6.261719 6.675781 8.164062 C 6.671875 8.375 6.667969 8.570312 6.667969 8.75 L 6.667969 14.582031 C 6.667969 15.042969 8.332031 15.042969 8.332031 14.582031 L 8.332031 9.796875 C 8.558594 9.398438 9.21875 8.335938 10.179688 7.589844 C 10.839844 8.171875 11.90625 7.984375 12.871094 6.96875 C 13.492188 6.3125 13.828125 5.074219 14.792969 4.585938 C 15.300781 4.328125 9.457031 2.921875 9.546875 6 Z M 9.546875 6 "/>
</g>
</svg>
