<?xml version="1.0" encoding="UTF-8"?>
<svg xmlns="http://www.w3.org/2000/svg" xmlns:xlink="http://www.w3.org/1999/xlink" width="15pt" height="15pt" viewBox="0 0 15 15" version="1.1">
<g id="surface1">
<path style=" stroke:none;fill-rule:nonzero;fill:rgb(100%,80%,30.196078%);fill-opacity:1;" d="M 8.910156 0.257812 C 8.140625 0.257812 7.148438 1.027344 6.320312 2.269531 C 5.351562 3.71875 5.875 4.765625 6.292969 5.601562 C 6.359375 5.734375 6.484375 5.820312 6.628906 5.832031 C 6.640625 5.832031 6.652344 5.832031 6.667969 5.832031 C 6.796875 5.832031 6.921875 5.773438 7 5.667969 C 7.996094 4.335938 9.589844 2.25 9.878906 1.960938 C 9.957031 1.882812 10 1.777344 10 1.667969 C 10 0.628906 9.4375 0.257812 8.910156 0.257812 Z M 9.902344 4.007812 C 9.398438 4.007812 8.828125 4.476562 8 5.582031 C 7.117188 6.761719 6.976562 7.796875 7.542969 8.9375 C 7.605469 9.0625 7.730469 9.148438 7.867188 9.164062 C 7.882812 9.164062 7.902344 9.167969 7.917969 9.167969 C 8.039062 9.167969 8.15625 9.113281 8.238281 9.015625 C 8.953125 8.15625 10.390625 6.445312 10.710938 6.128906 C 10.789062 6.050781 10.832031 5.945312 10.832031 5.832031 C 10.832031 5.382812 10.832031 4.007812 9.902344 4.007812 Z M 9.902344 4.007812 "/>
<path style=" stroke:none;fill-rule:nonzero;fill:rgb(46.666667%,69.803922%,33.333333%);fill-opacity:1;" d="M 12.449219 4.796875 C 12.335938 4.597656 12.082031 4.527344 11.882812 4.636719 C 8.894531 6.296875 6.136719 10.535156 5.0625 12.808594 C 5.410156 8.5625 7.382812 4.457031 10.710938 1.128906 C 10.875 0.964844 10.875 0.703125 10.710938 0.539062 C 10.546875 0.375 10.285156 0.375 10.121094 0.539062 C 6.804688 3.855469 4.777344 7.921875 4.285156 12.15625 C 4.003906 9.78125 3.878906 6.359375 4.964844 3.917969 C 5.058594 3.707031 4.960938 3.460938 4.753906 3.371094 C 4.542969 3.273438 4.296875 3.371094 4.203125 3.582031 C 3.648438 4.824219 3.390625 6.289062 3.300781 7.75 C 2.933594 6.964844 2.5 6.25 1.863281 6.25 L 1.84375 6.25 C 1.464844 6.25 1.140625 6.445312 0.878906 6.96875 C 0.773438 7.175781 0.859375 7.351562 1.0625 7.457031 C 1.269531 7.558594 1.519531 7.476562 1.621094 7.269531 C 1.753906 7.011719 1.839844 6.949219 1.839844 6.941406 C 2.105469 7.023438 2.566406 8.0625 2.742188 8.457031 C 2.820312 8.640625 2.894531 8.808594 2.960938 8.9375 C 3.023438 9.058594 3.136719 9.136719 3.261719 9.15625 C 3.273438 11.222656 3.554688 13.128906 3.746094 14.195312 L 3.757812 14.242188 C 3.792969 14.441406 3.96875 14.582031 4.167969 14.582031 C 4.191406 14.582031 4.214844 14.582031 4.242188 14.578125 C 4.292969 14.566406 4.335938 14.546875 4.378906 14.523438 C 4.441406 14.558594 4.507812 14.582031 4.582031 14.582031 C 4.660156 14.582031 4.726562 14.558594 4.789062 14.523438 C 4.847656 14.558594 4.914062 14.582031 4.988281 14.582031 L 5 14.582031 C 5.222656 14.582031 5.40625 14.398438 5.417969 14.175781 C 5.441406 13.742188 6.457031 11.667969 7.976562 9.574219 C 8.019531 9.566406 8.0625 9.558594 8.101562 9.539062 C 8.203125 9.488281 8.320312 9.425781 8.441406 9.359375 C 8.828125 9.144531 9.480469 8.785156 9.734375 8.933594 C 9.796875 8.972656 10 9.15625 10 10 C 10 10.230469 10.1875 10.417969 10.417969 10.417969 C 10.648438 10.417969 10.832031 10.230469 10.832031 10 C 10.832031 9.066406 10.613281 8.484375 10.15625 8.214844 C 9.832031 8.023438 9.460938 8.039062 9.097656 8.144531 C 10.066406 7.011719 11.15625 5.992188 12.285156 5.363281 C 12.488281 5.253906 12.558594 5 12.449219 4.796875 Z M 12.449219 4.796875 "/>
</g>
</svg>
