<?xml version="1.0" encoding="UTF-8"?>
<svg xmlns="http://www.w3.org/2000/svg" xmlns:xlink="http://www.w3.org/1999/xlink" width="15pt" height="15pt" viewBox="0 0 15 15" version="1.1">
<g id="surface1">
<path style=" stroke:none;fill-rule:nonzero;fill:rgb(75.686275%,41.176471%,30.980392%);fill-opacity:1;" d="M 9.15625 8.511719 C 9.136719 8.175781 9.101562 7.851562 9.054688 7.542969 C 9 7.171875 8.929688 6.820312 8.851562 6.496094 C 8.78125 6.191406 8.703125 5.910156 8.625 5.652344 C 8.503906 5.265625 8.378906 4.929688 8.269531 4.652344 C 8.050781 4.113281 7.875 3.800781 7.875 3.800781 L 6.371094 3.996094 C 6.371094 3.996094 6.542969 4.359375 6.734375 5.070312 C 6.808594 5.359375 6.886719 5.703125 6.957031 6.109375 C 6.992188 6.3125 7.027344 6.53125 7.058594 6.765625 C 7.097656 7.089844 7.132812 7.445312 7.15625 7.828125 C 7.171875 8.042969 7.183594 8.265625 7.1875 8.5 C 7.191406 8.585938 7.195312 8.667969 7.195312 8.753906 C 7.199219 9.027344 7.179688 9.308594 7.148438 9.585938 C 7.117188 9.835938 7.070312 10.082031 7.015625 10.328125 C 6.941406 10.683594 6.84375 11.03125 6.738281 11.359375 C 6.652344 11.628906 6.558594 11.886719 6.464844 12.128906 C 6.320312 12.5 6.175781 12.832031 6.054688 13.109375 C 5.84375 13.578125 5.691406 13.886719 5.691406 13.953125 C 5.691406 14.15625 5.835938 14.539062 6.855469 14.792969 C 8.449219 15.191406 8.605469 14.535156 8.605469 14.535156 C 8.605469 14.535156 8.703125 14.226562 8.824219 13.621094 C 8.882812 13.320312 8.941406 12.953125 9 12.503906 C 9.035156 12.238281 9.066406 11.945312 9.09375 11.625 C 9.121094 11.289062 9.144531 10.929688 9.160156 10.539062 C 9.171875 10.242188 9.179688 9.925781 9.183594 9.597656 C 9.183594 9.496094 9.1875 9.394531 9.1875 9.289062 C 9.1875 9.023438 9.175781 8.765625 9.15625 8.511719 Z M 9.15625 8.511719 "/>
<path style=" stroke:none;fill-rule:nonzero;fill:rgb(85.098039%,61.960784%,50.980392%);fill-opacity:1;" d="M 7.628906 12.527344 C 7.042969 12.425781 6.671875 12.257812 6.464844 12.128906 C 6.320312 12.5 6.179688 12.832031 6.054688 13.113281 C 6.433594 13.320312 6.917969 13.484375 7.445312 13.574219 C 7.75 13.628906 8.050781 13.65625 8.332031 13.65625 C 8.503906 13.65625 8.667969 13.640625 8.824219 13.621094 C 8.882812 13.324219 8.945312 12.953125 9 12.507812 C 8.816406 12.570312 8.355469 12.65625 7.628906 12.527344 Z M 8.070312 10.582031 C 7.613281 10.535156 7.261719 10.4375 7.015625 10.332031 C 6.941406 10.683594 6.84375 11.03125 6.738281 11.363281 C 7.097656 11.496094 7.523438 11.59375 7.964844 11.640625 C 8.144531 11.65625 8.320312 11.664062 8.496094 11.664062 C 8.703125 11.664062 8.902344 11.648438 9.09375 11.625 C 9.121094 11.292969 9.144531 10.929688 9.160156 10.539062 C 8.898438 10.59375 8.53125 10.625 8.070312 10.582031 Z M 8.199219 9.691406 C 8.539062 9.691406 8.878906 9.65625 9.183594 9.597656 C 9.183594 9.496094 9.1875 9.394531 9.1875 9.289062 C 9.1875 9.023438 9.175781 8.765625 9.15625 8.511719 C 8.9375 8.566406 8.621094 8.625 8.175781 8.628906 C 7.726562 8.628906 7.40625 8.566406 7.1875 8.5 C 7.191406 8.585938 7.195312 8.667969 7.195312 8.757812 C 7.199219 9.03125 7.179688 9.308594 7.148438 9.585938 C 7.464844 9.652344 7.816406 9.691406 8.171875 9.691406 Z M 8.09375 7.785156 C 8.4375 7.734375 8.757812 7.648438 9.054688 7.542969 C 9 7.171875 8.929688 6.820312 8.851562 6.496094 C 8.644531 6.578125 8.351562 6.675781 7.941406 6.734375 C 7.5625 6.789062 7.273438 6.785156 7.054688 6.765625 C 7.097656 7.089844 7.132812 7.445312 7.15625 7.828125 C 7.21875 7.828125 7.277344 7.839844 7.34375 7.839844 C 7.589844 7.839844 7.84375 7.820312 8.09375 7.785156 Z M 8.625 5.652344 C 8.503906 5.265625 8.378906 4.929688 8.269531 4.652344 C 8.085938 4.746094 7.851562 4.84375 7.546875 4.929688 C 7.214844 5.019531 6.945312 5.058594 6.730469 5.070312 C 6.808594 5.359375 6.886719 5.703125 6.957031 6.109375 C 7.242188 6.082031 7.535156 6.035156 7.828125 5.953125 C 8.113281 5.875 8.375 5.769531 8.625 5.652344 Z M 8.625 5.652344 "/>
<path style=" stroke:none;fill-rule:nonzero;fill:rgb(24.313725%,44.705882%,11.372549%);fill-opacity:1;" d="M 13.585938 1.792969 C 13.570312 1.769531 11.722656 -0.703125 9.324219 0.382812 C 8.246094 0.867188 7.554688 1.660156 7.300781 2.6875 C 6.832031 2.035156 6.121094 1.617188 5.179688 1.449219 C 2.597656 0.988281 1.042969 3.855469 1.027344 3.882812 C 1.007812 3.925781 1.015625 3.980469 1.050781 4.011719 C 1.089844 4.042969 1.144531 4.042969 1.183594 4.015625 C 1.195312 4.007812 2.367188 3.1875 4.324219 3.535156 C 6.324219 3.890625 7.726562 4.242188 7.742188 4.242188 C 7.75 4.246094 7.757812 4.246094 7.765625 4.246094 C 7.796875 4.246094 7.824219 4.234375 7.84375 4.214844 C 7.859375 4.199219 9.1875 2.773438 10.40625 2.21875 C 12.214844 1.402344 13.449219 1.945312 13.460938 1.949219 C 13.503906 1.96875 13.554688 1.957031 13.585938 1.921875 C 13.613281 1.882812 13.617188 1.832031 13.585938 1.792969 Z M 13.585938 1.792969 "/>
<path style=" stroke:none;fill-rule:nonzero;fill:rgb(36.078431%,56.862745%,23.137255%);fill-opacity:1;" d="M 11.617188 3.179688 C 9.78125 2.210938 8.347656 2.683594 7.453125 3.269531 C 6.378906 3.066406 4.398438 3.078125 2.71875 5.230469 C 0.640625 7.894531 2.460938 11.207031 2.480469 11.242188 C 2.507812 11.289062 2.558594 11.320312 2.617188 11.320312 C 2.621094 11.320312 2.628906 11.320312 2.636719 11.320312 C 2.699219 11.3125 2.75 11.265625 2.765625 11.207031 C 2.773438 11.183594 3.402344 8.90625 4.996094 6.988281 C 5.859375 5.949219 6.890625 4.988281 7.625 4.347656 C 8.359375 4.472656 9.425781 4.742188 10.476562 5.328125 C 12.542969 6.484375 13.492188 8.441406 13.5 8.460938 C 13.527344 8.519531 13.589844 8.554688 13.660156 8.546875 C 13.722656 8.539062 13.777344 8.492188 13.792969 8.429688 C 13.800781 8.390625 14.613281 4.761719 11.617188 3.179688 Z M 11.617188 3.179688 "/>
</g>
</svg>
