<?xml version="1.0" encoding="UTF-8"?>
<svg xmlns="http://www.w3.org/2000/svg" xmlns:xlink="http://www.w3.org/1999/xlink" width="15pt" height="15pt" viewBox="0 0 15 15" version="1.1">
<g id="surface1">
<path style=" stroke:none;fill-rule:nonzero;fill:rgb(46.666667%,69.803922%,33.333333%);fill-opacity:1;" d="M 8.714844 9.375 C 7.589844 9.238281 7.09375 8.605469 6.101562 7.339844 C 7.367188 6.347656 8 5.851562 9.128906 5.992188 C 10.257812 6.128906 11.316406 6.832031 11.742188 8.027344 C 11.042969 9.085938 9.84375 9.511719 8.714844 9.375 Z M 6.234375 13.046875 C 5.171875 12.96875 4.675781 12.402344 3.691406 11.261719 C 4.832031 10.277344 5.402344 9.785156 6.464844 9.859375 C 7.527344 9.9375 8.550781 10.546875 9.003906 11.644531 C 8.394531 12.671875 7.296875 13.125 6.234375 13.046875 Z M 3.640625 6.503906 C 4.199219 7.183594 4.136719 7.800781 4.015625 9.039062 C 2.777344 8.917969 2.160156 8.855469 1.601562 8.175781 C 1.042969 7.496094 0.824219 6.539062 1.226562 5.640625 C 2.183594 5.421875 3.082031 5.824219 3.640625 6.503906 Z M 12.4375 4.234375 C 11.425781 4.660156 10.707031 4.363281 9.265625 3.777344 C 9.855469 2.339844 10.148438 1.617188 11.164062 1.191406 C 12.175781 0.765625 13.402344 0.847656 14.335938 1.648438 C 14.253906 2.875 13.453125 3.808594 12.4375 4.234375 Z M 7.125 2.753906 C 7.492188 3.949219 7.074219 4.730469 6.242188 6.289062 C 4.683594 5.457031 3.902344 5.042969 3.539062 3.847656 C 3.171875 2.648438 3.40625 1.273438 4.421875 0.308594 C 5.796875 0.542969 6.761719 1.554688 7.125 2.753906 Z M 7.125 2.753906 "/>
<path style=" stroke:none;fill-rule:nonzero;fill:rgb(65.098039%,82.745098%,53.333333%);fill-opacity:1;" d="M 3.539062 3.847656 C 3.898438 5.023438 4.664062 5.449219 6.179688 6.253906 C 6.148438 5.203125 5.039062 1.722656 4.402344 0.332031 C 3.40625 1.292969 3.175781 2.660156 3.539062 3.847656 Z M 1.207031 5.691406 C 0.835938 6.574219 1.054688 7.507812 1.601562 8.175781 C 2.160156 8.859375 2.777344 8.917969 4.015625 9.039062 C 3.597656 8.234375 1.96875 6.378906 1.207031 5.691406 Z M 1.207031 5.691406 "/>
<path style=" stroke:none;fill-rule:nonzero;fill:rgb(36.078431%,56.862745%,23.137255%);fill-opacity:1;" d="M 9.128906 5.992188 C 8.0625 5.859375 7.429688 6.304688 6.292969 7.191406 C 7.019531 7.234375 9.953125 7.5 11.734375 8.039062 C 11.738281 8.035156 11.742188 8.03125 11.742188 8.027344 C 11.316406 6.832031 10.257812 6.128906 9.128906 5.992188 Z M 9.003906 11.644531 C 8.546875 10.542969 7.527344 9.9375 6.464844 9.859375 C 5.421875 9.785156 4.851562 10.261719 3.753906 11.207031 C 4.910156 11.078125 7.050781 10.84375 9.003906 11.644531 Z M 9.003906 11.644531 "/>
<path style=" stroke:none;fill-rule:nonzero;fill:rgb(65.098039%,82.745098%,53.333333%);fill-opacity:1;" d="M 9.34375 3.808594 C 10.726562 4.375 11.441406 4.652344 12.4375 4.234375 C 13.445312 3.808594 14.242188 2.882812 14.332031 1.667969 C 12.695312 1.984375 10 3.394531 9.34375 3.808594 Z M 9.34375 3.808594 "/>
<path style=" stroke:none;fill-rule:nonzero;fill:rgb(62.745098%,38.431373%,32.54902%);fill-opacity:1;" d="M 1.980469 14.609375 C 1.734375 14.570312 1.410156 14.261719 1.449219 14.019531 C 1.675781 12.535156 2.640625 8.949219 9.074219 3.703125 C 9.265625 3.546875 9.480469 3.429688 9.640625 3.617188 C 9.804688 3.800781 9.621094 4.011719 9.433594 4.171875 C 3.898438 8.996094 2.96875 12.8125 2.757812 14.199219 C 2.71875 14.445312 2.222656 14.644531 1.980469 14.609375 Z M 1.980469 14.609375 "/>
</g>
</svg>
