<?xml version="1.0" encoding="UTF-8"?>
<svg xmlns="http://www.w3.org/2000/svg" xmlns:xlink="http://www.w3.org/1999/xlink" width="15pt" height="15pt" viewBox="0 0 15 15" version="1.1">
<g id="surface1">
<path style=" stroke:none;fill-rule:nonzero;fill:rgb(36.078431%,56.862745%,23.137255%);fill-opacity:1;" d="M 6.40625 0.425781 C 5.710938 1.121094 3.632812 3.890625 4.671875 6.316406 C 5.710938 8.746094 7.132812 7.25 7.792969 5.277344 C 8.136719 4.238281 8.136719 2.851562 7.445312 0.773438 C 7.097656 -0.265625 6.40625 0.425781 6.40625 0.425781 Z M 14.449219 8.46875 C 13.753906 9.160156 10.984375 11.242188 8.554688 10.203125 C 6.128906 9.160156 7.621094 7.738281 9.597656 7.082031 C 10.636719 6.734375 12.023438 6.734375 14.101562 7.429688 C 15.140625 7.777344 14.449219 8.46875 14.449219 8.46875 Z M 14.449219 8.46875 "/>
<path style=" stroke:none;fill-rule:nonzero;fill:rgb(95.686275%,56.470588%,4.705882%);fill-opacity:1;" d="M 13.464844 2.632812 C 13.464844 2.632812 13.402344 1.914062 13.140625 1.691406 C 12.957031 1.464844 12.296875 1.464844 12.296875 1.464844 C 11.605469 1.464844 3.632812 2.503906 2.246094 9.4375 C 1.996094 10.675781 4.171875 12.871094 5.429688 12.621094 C 12.359375 11.234375 13.464844 3.324219 13.464844 2.632812 Z M 13.464844 2.632812 "/>
<path style=" stroke:none;fill-rule:nonzero;fill:rgb(96.862745%,72.156863%,17.647059%);fill-opacity:1;" d="M 10.320312 3.671875 L 9.648438 3 C 9.460938 2.8125 9.160156 2.8125 8.972656 3 C 8.785156 3.1875 8.785156 3.488281 8.972656 3.671875 L 9.648438 4.347656 C 9.832031 4.535156 10.132812 4.535156 10.320312 4.347656 C 10.507812 4.160156 10.507812 3.859375 10.320312 3.671875 Z M 6.277344 4.347656 C 6.460938 4.535156 6.765625 4.535156 6.949219 4.347656 C 7.136719 4.160156 7.136719 3.859375 6.949219 3.671875 L 6.628906 3.351562 C 6.355469 3.519531 6.085938 3.699219 5.820312 3.894531 Z M 7.289062 3.335938 C 7.472656 3.523438 7.773438 3.523438 7.960938 3.335938 C 8.148438 3.152344 8.148438 2.847656 7.960938 2.664062 L 7.949219 2.652344 C 7.65625 2.789062 7.355469 2.9375 7.054688 3.105469 Z M 5.265625 5.359375 C 5.453125 5.542969 5.753906 5.542969 5.941406 5.359375 C 6.125 5.171875 6.125 4.871094 5.941406 4.683594 L 5.441406 4.1875 C 5.195312 4.382812 4.960938 4.597656 4.730469 4.824219 Z M 9.984375 1.988281 C 9.796875 2.175781 9.796875 2.476562 9.984375 2.664062 L 10.65625 3.335938 C 10.84375 3.523438 11.144531 3.523438 11.332031 3.335938 C 11.515625 3.152344 11.515625 2.847656 11.332031 2.664062 L 10.65625 1.988281 C 10.472656 1.804688 10.167969 1.804688 9.984375 1.988281 Z M 10.988281 1.65625 C 10.988281 1.660156 10.988281 1.664062 10.992188 1.667969 L 11.667969 2.339844 C 11.851562 2.527344 12.15625 2.527344 12.339844 2.339844 C 12.527344 2.15625 12.527344 1.851562 12.339844 1.667969 L 12.148438 1.472656 C 11.921875 1.492188 11.515625 1.546875 10.988281 1.65625 Z M 9.308594 5.359375 C 9.496094 5.171875 9.496094 4.871094 9.308594 4.683594 L 8.636719 4.011719 C 8.449219 3.824219 8.148438 3.824219 7.960938 4.011719 C 7.777344 4.195312 7.777344 4.5 7.960938 4.683594 L 8.636719 5.359375 C 8.820312 5.542969 9.125 5.542969 9.308594 5.359375 Z M 8.296875 6.371094 C 8.484375 6.183594 8.484375 5.882812 8.296875 5.695312 L 7.625 5.023438 C 7.4375 4.835938 7.136719 4.835938 6.949219 5.023438 C 6.765625 5.207031 6.765625 5.507812 6.949219 5.695312 L 7.625 6.371094 C 7.808594 6.554688 8.113281 6.554688 8.296875 6.371094 Z M 6.277344 8.390625 C 6.464844 8.203125 6.460938 7.902344 6.277344 7.71875 L 5.601562 7.042969 C 5.417969 6.859375 5.117188 6.855469 4.929688 7.042969 C 4.742188 7.230469 4.742188 7.53125 4.929688 7.71875 L 5.601562 8.390625 C 5.789062 8.578125 6.089844 8.578125 6.277344 8.390625 Z M 5.941406 6.03125 C 5.753906 6.21875 5.753906 6.519531 5.941406 6.707031 L 6.613281 7.378906 C 6.800781 7.566406 7.101562 7.566406 7.289062 7.378906 C 7.472656 7.195312 7.472656 6.890625 7.289062 6.707031 L 6.613281 6.03125 C 6.425781 5.847656 6.125 5.847656 5.941406 6.03125 Z M 5.941406 6.03125 "/>
<path style=" stroke:none;fill-rule:nonzero;fill:rgb(46.666667%,69.803922%,33.333333%);fill-opacity:1;" d="M 11.609375 9.824219 C 8.640625 8.832031 5.320312 10.09375 3.519531 11.3125 C 4.738281 9.511719 6 6.191406 5.011719 3.222656 C 4.621094 2.054688 2.675781 0.886719 1.507812 2.054688 C 1.121094 2.445312 0.730469 2.832031 1.507812 2.832031 C 2.285156 2.832031 3.453125 4 3.066406 5.167969 C 2.71875 6.210938 0.195312 8.808594 1.335938 11.574219 C 1.222656 11.621094 1.117188 11.6875 1.023438 11.78125 L 0.726562 12.078125 C 0.34375 12.460938 0.34375 13.082031 0.726562 13.464844 L 1.027344 13.765625 C 1.410156 14.148438 2.027344 14.148438 2.410156 13.765625 L 2.710938 13.464844 C 2.761719 13.414062 2.804688 13.359375 2.839844 13.300781 C 5.757812 14.898438 8.570312 12.132812 9.667969 11.765625 C 10.832031 11.378906 12 12.546875 12 13.324219 C 12 14.101562 12.390625 13.710938 12.777344 13.324219 C 13.945312 12.15625 12.777344 10.210938 11.609375 9.824219 Z M 11.609375 9.824219 "/>
</g>
</svg>
