<?xml version="1.0" encoding="UTF-8"?>
<svg xmlns="http://www.w3.org/2000/svg" xmlns:xlink="http://www.w3.org/1999/xlink" width="15pt" height="15pt" viewBox="0 0 15 15" version="1.1">
<g id="surface1">
<path style=" stroke:none;fill-rule:nonzero;fill:rgb(40%,12.941176%,7.45098%);fill-opacity:1;" d="M 9.167969 13.75 C 9.167969 14.671875 8.421875 15 7.5 15 C 6.578125 15 5.832031 14.671875 5.832031 13.75 L 6.25 10 C 6.25 9.078125 6.578125 9.167969 7.5 9.167969 C 8.421875 9.167969 8.75 9.078125 8.75 10 Z M 9.167969 13.75 "/>
<path style=" stroke:none;fill-rule:nonzero;fill:rgb(36.078431%,56.862745%,23.137255%);fill-opacity:1;" d="M 13.085938 11.375 C 10.183594 8.886719 9.007812 5.328125 7.5 5.328125 C 5.992188 5.328125 4.816406 8.886719 1.914062 11.375 C 0.695312 12.417969 1.277344 13.023438 2.949219 12.902344 C 4.4375 12.792969 5.832031 12.457031 7.5 12.457031 C 9.167969 12.457031 10.5625 12.792969 12.050781 12.902344 C 13.722656 13.023438 14.304688 12.417969 13.085938 11.375 Z M 13.085938 11.375 "/>
<path style=" stroke:none;fill-rule:nonzero;fill:rgb(24.313725%,44.705882%,11.372549%);fill-opacity:1;" d="M 12.144531 10.390625 C 9.914062 8.34375 8.660156 5.417969 7.5 5.417969 C 6.339844 5.417969 5.085938 8.34375 2.855469 10.390625 C 1.085938 12.011719 5.179688 12.378906 7.5 10.390625 C 9.820312 12.378906 13.914062 12.011719 12.144531 10.390625 Z M 12.144531 10.390625 "/>
<path style=" stroke:none;fill-rule:nonzero;fill:rgb(36.078431%,56.862745%,23.137255%);fill-opacity:1;" d="M 12.144531 8.734375 C 9.914062 6.824219 8.660156 4.089844 7.5 4.089844 C 6.339844 4.089844 5.085938 6.824219 2.855469 8.734375 C 1.085938 10.25 5.179688 10.589844 7.5 8.734375 C 9.820312 10.589844 13.914062 10.25 12.144531 8.734375 Z M 12.144531 8.734375 "/>
<path style=" stroke:none;fill-rule:nonzero;fill:rgb(24.313725%,44.705882%,11.372549%);fill-opacity:1;" d="M 11.125 7.375 C 9.382812 5.886719 8.40625 3.75 7.5 3.75 C 6.59375 3.75 5.617188 5.886719 3.875 7.375 C 2.492188 8.5625 5.6875 8.828125 7.5 7.375 C 9.3125 8.828125 12.507812 8.5625 11.125 7.375 Z M 11.125 7.375 "/>
<path style=" stroke:none;fill-rule:nonzero;fill:rgb(36.078431%,56.862745%,23.137255%);fill-opacity:1;" d="M 11.125 6.136719 C 9.382812 4.644531 8.40625 2.507812 7.5 2.507812 C 6.59375 2.507812 5.617188 4.644531 3.875 6.136719 C 2.492188 7.320312 5.6875 7.585938 7.5 6.136719 C 9.3125 7.585938 12.507812 7.320312 11.125 6.136719 Z M 11.125 6.136719 "/>
<path style=" stroke:none;fill-rule:nonzero;fill:rgb(24.313725%,44.705882%,11.372549%);fill-opacity:1;" d="M 10.425781 5.035156 C 9.019531 3.832031 8.230469 2.105469 7.5 2.105469 C 6.769531 2.105469 5.980469 3.832031 4.574219 5.035156 C 3.457031 5.988281 6.039062 6.203125 7.5 5.035156 C 8.960938 6.203125 11.542969 5.988281 10.425781 5.035156 Z M 10.425781 5.035156 "/>
<path style=" stroke:none;fill-rule:nonzero;fill:rgb(36.078431%,56.862745%,23.137255%);fill-opacity:1;" d="M 10.425781 4.097656 C 9.019531 2.894531 8.230469 1.171875 7.5 1.171875 C 6.769531 1.171875 5.980469 2.894531 4.574219 4.097656 C 3.457031 5.054688 6.039062 5.269531 7.5 4.097656 C 8.960938 5.269531 11.542969 5.054688 10.425781 4.097656 Z M 10.425781 4.097656 "/>
<path style=" stroke:none;fill-rule:nonzero;fill:rgb(24.313725%,44.705882%,11.372549%);fill-opacity:1;" d="M 9.726562 2.726562 C 8.65625 1.808594 8.058594 0.496094 7.5 0.496094 C 6.945312 0.496094 6.34375 1.808594 5.273438 2.726562 C 4.425781 3.453125 6.386719 3.617188 7.5 2.726562 C 8.613281 3.617188 10.574219 3.453125 9.726562 2.726562 Z M 9.726562 2.726562 "/>
<path style=" stroke:none;fill-rule:nonzero;fill:rgb(36.078431%,56.862745%,23.137255%);fill-opacity:1;" d="M 9.726562 2.226562 C 8.65625 1.3125 8.058594 0 7.5 0 C 6.945312 0 6.34375 1.3125 5.273438 2.226562 C 4.425781 2.953125 6.386719 3.117188 7.5 2.226562 C 8.613281 3.117188 10.574219 2.953125 9.726562 2.226562 Z M 9.726562 2.226562 "/>
</g>
</svg>
