<?xml version="1.0" encoding="UTF-8"?>
<svg xmlns="http://www.w3.org/2000/svg" xmlns:xlink="http://www.w3.org/1999/xlink" width="15pt" height="15pt" viewBox="0 0 15 15" version="1.1">
<g id="surface1">
<path style=" stroke:none;fill-rule:nonzero;fill:rgb(75.686275%,41.176471%,30.980392%);fill-opacity:1;" d="M 15 10.417969 C 15 12.082031 11.640625 15 7.5 15 C 3.359375 15 0 12.082031 0 10.417969 C 0 2.5 7.082031 0 7.5 0 C 7.917969 0 15 2.5 15 10.417969 Z M 15 10.417969 "/>
<path style=" stroke:none;fill-rule:nonzero;fill:rgb(66.27451%,32.156863%,20%);fill-opacity:1;" d="M 1.25 12.242188 C 1.230469 12.242188 1.207031 12.242188 1.1875 12.238281 C 0.960938 12.203125 0.804688 11.992188 0.839844 11.765625 C 0.894531 11.390625 2.265625 2.613281 7.3125 0.046875 C 7.515625 -0.0585938 7.765625 0.0234375 7.871094 0.226562 C 7.976562 0.433594 7.894531 0.683594 7.6875 0.789062 C 3.027344 3.160156 1.675781 11.800781 1.660156 11.890625 C 1.628906 12.09375 1.453125 12.242188 1.25 12.242188 Z M 1.25 12.242188 "/>
<path style=" stroke:none;fill-rule:nonzero;fill:rgb(66.27451%,32.156863%,20%);fill-opacity:1;" d="M 13.75 12.242188 C 13.546875 12.242188 13.371094 12.097656 13.339844 11.890625 C 13.324219 11.800781 11.972656 3.160156 7.3125 0.789062 C 7.105469 0.683594 7.023438 0.433594 7.128906 0.226562 C 7.234375 0.0234375 7.484375 -0.0585938 7.6875 0.046875 C 12.734375 2.613281 14.105469 11.390625 14.160156 11.765625 C 14.195312 11.992188 14.039062 12.203125 13.8125 12.238281 C 13.792969 12.242188 13.769531 12.242188 13.75 12.242188 Z M 13.75 12.242188 "/>
<path style=" stroke:none;fill-rule:nonzero;fill:rgb(66.27451%,32.156863%,20%);fill-opacity:1;" d="M 5 13.75 L 4.976562 13.75 C 4.75 13.738281 4.570312 13.539062 4.585938 13.3125 C 4.605469 12.894531 5.148438 3.085938 7.15625 0.179688 C 7.289062 -0.0117188 7.546875 -0.0585938 7.738281 0.0742188 C 7.925781 0.203125 7.972656 0.464844 7.84375 0.652344 C 5.96875 3.367188 5.421875 13.257812 5.417969 13.355469 C 5.402344 13.578125 5.21875 13.75 5 13.75 Z M 5 13.75 "/>
<path style=" stroke:none;fill-rule:nonzero;fill:rgb(66.27451%,32.156863%,20%);fill-opacity:1;" d="M 10 13.75 C 9.78125 13.75 9.597656 13.578125 9.582031 13.355469 C 9.578125 13.257812 9.03125 3.367188 7.15625 0.652344 C 7.027344 0.464844 7.074219 0.203125 7.261719 0.0742188 C 7.453125 -0.0585938 7.710938 -0.0078125 7.84375 0.179688 C 9.851562 3.085938 10.394531 12.894531 10.417969 13.3125 C 10.429688 13.539062 10.25 13.738281 10.023438 13.75 Z M 10 13.75 "/>
<path style=" stroke:none;fill-rule:nonzero;fill:rgb(40%,12.941176%,7.45098%);fill-opacity:1;" d="M 15 10.417969 C 15 12.082031 11.640625 15 7.5 15 C 3.359375 15 0 12.082031 0 10.417969 C 1.25 12.082031 4.167969 13.332031 7.5 13.332031 C 10.832031 13.332031 13.75 12.082031 15 10.417969 Z M 15 10.417969 "/>
</g>
</svg>
