<?xml version="1.0" encoding="UTF-8"?>
<svg xmlns="http://www.w3.org/2000/svg" xmlns:xlink="http://www.w3.org/1999/xlink" width="15pt" height="15pt" viewBox="0 0 15 15" version="1.1">
<g id="surface1">
<path style=" stroke:none;fill-rule:nonzero;fill:rgb(46.666667%,69.803922%,33.333333%);fill-opacity:1;" d="M 8.167969 13.46875 C 10.878906 16.179688 15.355469 10.273438 14.71875 10.273438 C 11.523438 10.273438 5.457031 10.757812 8.167969 13.46875 Z M 8.167969 13.46875 "/>
<path style=" stroke:none;fill-rule:nonzero;fill:rgb(46.666667%,69.803922%,33.333333%);fill-opacity:1;" d="M 6.519531 13.90625 C 4.003906 16.417969 -0.0273438 10.941406 0.5625 10.941406 C 2.152344 10.941406 4.46875 10.796875 5.890625 11.304688 C 7.125 11.742188 7.6875 12.738281 6.519531 13.90625 Z M 6.519531 13.90625 "/>
<path style=" stroke:none;fill-rule:nonzero;fill:rgb(95.686275%,67.058824%,72.941176%);fill-opacity:1;" d="M 14.421875 6.5625 C 14.402344 6.1875 14.347656 5.488281 13.839844 4.804688 C 13.355469 4.15625 12.253906 3.398438 11.535156 3.726562 C 11.75 3.027344 11.421875 2.007812 11.039062 1.4375 C 10.546875 0.714844 9.261719 -0.164062 7.644531 0.175781 C 6.914062 0.332031 5.902344 1.027344 5.714844 1.789062 C 5.222656 1.175781 3.953125 1.089844 3.207031 1.277344 C 2.363281 1.492188 1.894531 2.019531 1.648438 2.304688 L 1.652344 2.300781 L 1.625 2.328125 C 1.382812 2.617188 0.9375 3.160156 0.855469 4.027344 C 0.777344 4.921875 1.167969 6.457031 2.117188 6.542969 C 2.179688 6.550781 2.253906 6.558594 2.332031 6.566406 C 1.386719 6.605469 0.84375 8.089844 0.835938 8.984375 C 0.824219 9.859375 1.21875 10.441406 1.433594 10.75 C 1.4375 10.753906 1.441406 10.757812 1.445312 10.765625 C 1.449219 10.769531 1.453125 10.773438 1.457031 10.777344 C 1.671875 11.085938 2.089844 11.652344 2.921875 11.933594 C 3.734375 12.214844 5.234375 12.207031 5.65625 11.421875 C 5.542969 12.355469 6.917969 13.121094 7.808594 13.269531 C 8.691406 13.417969 9.355469 13.121094 9.707031 12.957031 L 9.703125 12.957031 C 9.710938 12.953125 9.714844 12.949219 9.722656 12.949219 L 9.738281 12.941406 C 10.085938 12.773438 10.738281 12.449219 11.179688 11.671875 C 11.484375 11.140625 11.710938 10.253906 11.578125 9.582031 L 11.65625 9.636719 C 12.417969 10.148438 13.585938 9.171875 14.035156 8.414062 C 14.46875 7.679688 14.421875 6.570312 14.421875 6.5625 Z M 14.421875 6.5625 "/>
<path style=" stroke:none;fill-rule:nonzero;fill:rgb(91.764706%,34.901961%,43.137255%);fill-opacity:1;" d="M 11.476562 5.640625 C 10.730469 5.226562 9.445312 5.460938 8.644531 5.769531 C 8.535156 5.574219 8.386719 5.40625 8.207031 5.273438 C 8.789062 4.601562 9.675781 3.359375 8.820312 2.621094 C 7.90625 1.835938 7.261719 3.519531 7.328125 4.957031 C 7.300781 4.957031 7.273438 4.949219 7.246094 4.949219 C 6.820312 4.949219 6.4375 5.117188 6.148438 5.382812 C 5.566406 4.433594 4.507812 3.617188 3.933594 4.386719 C 3.316406 5.222656 4.414062 5.703125 5.695312 6.136719 C 5.65625 6.273438 5.628906 6.414062 5.628906 6.566406 C 5.628906 6.753906 5.667969 6.933594 5.730469 7.101562 C 4.671875 7.410156 3.132812 8.234375 3.976562 9.148438 C 4.859375 10.105469 5.839844 8.632812 6.308594 7.878906 C 6.574219 8.066406 6.898438 8.179688 7.246094 8.179688 C 7.339844 8.179688 7.429688 8.167969 7.519531 8.152344 C 7.472656 10.152344 8.121094 11.097656 9.203125 10.609375 C 10.15625 10.171875 9.144531 8.398438 8.460938 7.621094 C 8.589844 7.472656 8.695312 7.296875 8.761719 7.105469 C 11.683594 8.164062 12.339844 6.125 11.476562 5.640625 Z M 11.476562 5.640625 "/>
<path style=" stroke:none;fill-rule:nonzero;fill:rgb(74.509804%,9.803922%,19.215686%);fill-opacity:1;" d="M 7.378906 7.273438 C 7.09375 7.273438 7.097656 7.039062 7.03125 6.753906 C 6.808594 5.824219 6.039062 4.125 5.113281 2.9375 C 4.902344 2.664062 4.953125 2.269531 5.222656 2.058594 C 5.496094 1.847656 5.890625 1.894531 6.101562 2.167969 C 7.117188 3.476562 7.460938 5.253906 7.761719 6.511719 C 7.839844 6.847656 7.859375 7.175781 7.523438 7.257812 C 7.472656 7.269531 7.425781 7.273438 7.378906 7.273438 Z M 7.378906 7.273438 "/>
<path style=" stroke:none;fill-rule:nonzero;fill:rgb(100%,80%,30.196078%);fill-opacity:1;" d="M 6.625 2.21875 C 6.835938 2.503906 6.660156 2.984375 6.238281 3.292969 L 6.039062 3.4375 C 5.617188 3.746094 5.105469 3.765625 4.898438 3.480469 L 3.738281 1.890625 C 3.53125 1.605469 3.707031 1.125 4.128906 0.816406 L 4.328125 0.671875 C 4.75 0.363281 5.261719 0.34375 5.46875 0.628906 Z M 6.625 2.21875 "/>
</g>
</svg>
