<?xml version="1.0" encoding="UTF-8"?>
<svg xmlns="http://www.w3.org/2000/svg" xmlns:xlink="http://www.w3.org/1999/xlink" width="15pt" height="15pt" viewBox="0 0 15 15" version="1.1">
<g id="surface1">
<path style=" stroke:none;fill-rule:nonzero;fill:rgb(24.313725%,44.705882%,11.372549%);fill-opacity:1;" d="M 8.050781 10.566406 C 8.003906 10.566406 7.960938 10.566406 7.917969 10.566406 L 7.917969 10.394531 C 9.917969 10.195312 11.476562 8.617188 11.476562 7.351562 C 11.476562 6 11.476562 7.964844 7.496094 7.964844 C 3.511719 7.964844 3.511719 6 3.511719 7.351562 C 3.511719 8.621094 5.078125 10.203125 7.082031 10.398438 L 7.082031 10.566406 C 7.039062 10.566406 6.996094 10.566406 6.949219 10.566406 C 5.886719 10.566406 4.199219 9.710938 4.199219 10.015625 C 4.199219 10.285156 5.941406 11.691406 7.082031 12.015625 L 7.082031 14.582031 C 7.082031 14.8125 7.269531 15 7.5 15 C 7.730469 15 7.917969 14.8125 7.917969 14.582031 L 7.917969 12.015625 C 9.058594 11.691406 10.800781 10.285156 10.800781 10.015625 C 10.800781 9.710938 9.113281 10.566406 8.050781 10.566406 Z M 8.050781 10.566406 "/>
<path style=" stroke:none;fill-rule:nonzero;fill:rgb(62.745098%,1.568627%,11.764706%);fill-opacity:1;" d="M 11.054688 3.0625 C 9.433594 1.226562 11.679688 0.613281 9.972656 0.613281 C 9.675781 0.613281 9.171875 0.796875 8.601562 1.109375 C 8.3125 0.453125 7.925781 0 7.5 0 C 6.644531 0 5.949219 1.808594 5.886719 3.445312 C 5.425781 4.089844 5.113281 4.792969 5.113281 5.515625 C 5.113281 8.054688 6.191406 9.191406 7.8125 9.191406 C 11.054688 9.191406 13.496094 5.839844 11.054688 3.0625 Z M 11.054688 3.0625 "/>
<path style=" stroke:none;fill-rule:nonzero;fill:rgb(74.509804%,9.803922%,19.215686%);fill-opacity:1;" d="M 9.886719 5.515625 C 9.886719 8.054688 8.808594 9.191406 7.1875 9.191406 C 3.945312 9.191406 1.503906 5.835938 3.945312 3.0625 C 5.566406 1.226562 3.320312 0.613281 5.027344 0.613281 C 6.105469 0.613281 9.886719 2.976562 9.886719 5.515625 Z M 9.886719 5.515625 "/>
</g>
</svg>
