<?xml version="1.0" encoding="UTF-8"?>
<svg xmlns="http://www.w3.org/2000/svg" xmlns:xlink="http://www.w3.org/1999/xlink" width="15pt" height="15pt" viewBox="0 0 15 15" version="1.1">
<g id="surface1">
<path style=" stroke:none;fill-rule:nonzero;fill:rgb(24.313725%,44.705882%,11.372549%);fill-opacity:1;" d="M 11.667969 11.25 C 8.332031 11.25 8.332031 13.75 8.332031 13.75 L 8.332031 9.167969 L 6.667969 9.167969 L 6.667969 13.75 C 6.667969 13.75 6.667969 11.25 3.332031 11.25 C 1.667969 11.25 0.417969 10.417969 0.417969 10.417969 C 0.417969 10.417969 0.417969 14.167969 4.167969 14.167969 L 6.667969 14.167969 C 6.667969 14.167969 6.667969 15 7.5 15 C 8.332031 15 8.332031 14.167969 8.332031 14.167969 L 10.832031 14.167969 C 14.582031 14.167969 14.582031 10.417969 14.582031 10.417969 C 14.582031 10.417969 13.332031 11.25 11.667969 11.25 Z M 11.667969 11.25 "/>
<path style=" stroke:none;fill-rule:nonzero;fill:rgb(100%,67.45098%,20%);fill-opacity:1;" d="M 8.800781 11.527344 C 8.664062 11.527344 8.53125 11.484375 8.414062 11.40625 L 7.449219 10.75 L 6.480469 11.40625 C 6.363281 11.484375 6.230469 11.527344 6.09375 11.527344 C 6.035156 11.527344 5.972656 11.519531 5.914062 11.503906 C 5.722656 11.449219 5.558594 11.316406 5.472656 11.136719 L 4.960938 10.085938 L 3.796875 10.171875 C 3.78125 10.171875 3.765625 10.171875 3.746094 10.171875 C 3.566406 10.171875 3.390625 10.097656 3.261719 9.96875 C 3.117188 9.828125 3.046875 9.632812 3.058594 9.433594 L 3.144531 8.265625 L 2.09375 7.757812 C 1.910156 7.667969 1.777344 7.507812 1.726562 7.3125 C 1.675781 7.121094 1.710938 6.914062 1.820312 6.75 L 2.476562 5.78125 L 1.820312 4.8125 C 1.710938 4.648438 1.675781 4.441406 1.726562 4.246094 C 1.777344 4.054688 1.910156 3.894531 2.09375 3.804688 L 3.144531 3.296875 L 3.058594 2.128906 C 3.046875 1.929688 3.117188 1.734375 3.261719 1.59375 C 3.390625 1.464844 3.566406 1.390625 3.746094 1.390625 C 3.765625 1.390625 3.78125 1.390625 3.796875 1.390625 L 4.960938 1.476562 L 5.472656 0.425781 C 5.558594 0.246094 5.722656 0.113281 5.914062 0.0585938 C 5.972656 0.0429688 6.035156 0.0351562 6.09375 0.0351562 C 6.230469 0.0351562 6.363281 0.078125 6.480469 0.15625 L 7.449219 0.808594 L 8.414062 0.15625 C 8.53125 0.078125 8.664062 0.0351562 8.800781 0.0351562 C 8.863281 0.0351562 8.921875 0.0429688 8.980469 0.0585938 C 9.175781 0.113281 9.335938 0.246094 9.421875 0.425781 L 9.933594 1.476562 L 11.101562 1.390625 C 11.117188 1.390625 11.132812 1.390625 11.148438 1.390625 C 11.332031 1.390625 11.503906 1.464844 11.636719 1.59375 C 11.777344 1.734375 11.851562 1.929688 11.835938 2.128906 L 11.75 3.296875 L 12.804688 3.804688 C 12.984375 3.894531 13.117188 4.054688 13.167969 4.246094 C 13.21875 4.441406 13.1875 4.648438 13.074219 4.8125 L 12.417969 5.78125 L 13.074219 6.75 C 13.1875 6.914062 13.21875 7.121094 13.167969 7.3125 C 13.117188 7.507812 12.984375 7.667969 12.804688 7.757812 L 11.75 8.265625 L 11.835938 9.433594 C 11.851562 9.632812 11.777344 9.828125 11.636719 9.96875 C 11.507812 10.097656 11.332031 10.171875 11.148438 10.171875 C 11.132812 10.171875 11.117188 10.171875 11.101562 10.171875 L 9.933594 10.085938 L 9.421875 11.136719 C 9.335938 11.316406 9.171875 11.449219 8.980469 11.503906 C 8.921875 11.519531 8.863281 11.527344 8.800781 11.527344 Z M 8.800781 11.527344 "/>
<path style=" stroke:none;fill-rule:nonzero;fill:rgb(45.098039%,15.294118%,0%);fill-opacity:1;" d="M 10.417969 5.832031 C 10.417969 7.445312 9.109375 8.75 7.5 8.75 C 5.890625 8.75 4.582031 7.445312 4.582031 5.832031 C 4.582031 4.222656 5.890625 2.917969 7.5 2.917969 C 9.109375 2.917969 10.417969 4.222656 10.417969 5.832031 Z M 10.417969 5.832031 "/>
</g>
</svg>
