<?xml version="1.0" encoding="UTF-8"?>
<svg xmlns="http://www.w3.org/2000/svg" xmlns:xlink="http://www.w3.org/1999/xlink" width="15pt" height="15pt" viewBox="0 0 15 15" version="1.1">
<g id="surface1">
<path style=" stroke:none;fill-rule:nonzero;fill:rgb(46.666667%,69.803922%,33.333333%);fill-opacity:1;" d="M 4.167969 5 C 4.105469 5 4.039062 4.984375 3.980469 4.957031 C 2.15625 4.042969 0.863281 1.820312 0.4375 0.546875 C 0.363281 0.328125 0.484375 0.09375 0.703125 0.0195312 C 0.921875 -0.0507812 1.15625 0.0664062 1.230469 0.285156 C 1.59375 1.382812 2.765625 3.417969 4.351562 4.210938 C 4.558594 4.3125 4.640625 4.5625 4.539062 4.769531 C 4.464844 4.914062 4.320312 5 4.167969 5 Z M 4.167969 5 "/>
<path style=" stroke:none;fill-rule:nonzero;fill:rgb(33.333333%,21.568627%,53.333333%);fill-opacity:1;" d="M 10.832031 12.082031 C 10.832031 13.695312 9.527344 15 7.917969 15 C 6.304688 15 5 13.695312 5 12.082031 C 5 10.472656 6.304688 9.167969 7.917969 9.167969 C 9.527344 9.167969 10.832031 10.472656 10.832031 12.082031 Z M 10.832031 12.082031 "/>
<path style=" stroke:none;fill-rule:nonzero;fill:rgb(57.254902%,40%,80%);fill-opacity:1;" d="M 7.082031 6.25 C 7.082031 7.859375 5.777344 9.167969 4.167969 9.167969 C 2.554688 9.167969 1.25 7.859375 1.25 6.25 C 1.25 4.640625 2.554688 3.332031 4.167969 3.332031 C 5.777344 3.332031 7.082031 4.640625 7.082031 6.25 Z M 7.082031 6.25 "/>
<path style=" stroke:none;fill-rule:nonzero;fill:rgb(66.666667%,55.294118%,84.705882%);fill-opacity:1;" d="M 10.832031 5 C 10.832031 6.609375 9.527344 7.917969 7.917969 7.917969 C 6.304688 7.917969 5 6.609375 5 5 C 5 3.390625 6.304688 2.082031 7.917969 2.082031 C 9.527344 2.082031 10.832031 3.390625 10.832031 5 Z M 10.832031 5 "/>
<path style=" stroke:none;fill-rule:nonzero;fill:rgb(45.490196%,30.588235%,66.666667%);fill-opacity:1;" d="M 14.167969 7.5 C 14.167969 9.109375 12.859375 10.417969 11.25 10.417969 C 9.640625 10.417969 8.332031 9.109375 8.332031 7.5 C 8.332031 5.890625 9.640625 4.582031 11.25 4.582031 C 12.859375 4.582031 14.167969 5.890625 14.167969 7.5 Z M 14.167969 7.5 "/>
<path style=" stroke:none;fill-rule:nonzero;fill:rgb(45.490196%,30.588235%,66.666667%);fill-opacity:1;" d="M 6.667969 10.832031 C 6.667969 12.445312 5.359375 13.75 3.75 13.75 C 2.140625 13.75 0.832031 12.445312 0.832031 10.832031 C 0.832031 9.222656 2.140625 7.917969 3.75 7.917969 C 5.359375 7.917969 6.667969 9.222656 6.667969 10.832031 Z M 6.667969 10.832031 "/>
<path style=" stroke:none;fill-rule:nonzero;fill:rgb(57.254902%,40%,80%);fill-opacity:1;" d="M 10.417969 8.75 C 10.417969 10.359375 9.109375 11.667969 7.5 11.667969 C 5.890625 11.667969 4.582031 10.359375 4.582031 8.75 C 4.582031 7.140625 5.890625 5.832031 7.5 5.832031 C 9.109375 5.832031 10.417969 7.140625 10.417969 8.75 Z M 10.417969 8.75 "/>
<path style=" stroke:none;fill-rule:nonzero;fill:rgb(57.254902%,40%,80%);fill-opacity:1;" d="M 15 12.082031 C 15 13.695312 13.695312 15 12.082031 15 C 10.472656 15 9.167969 13.695312 9.167969 12.082031 C 9.167969 10.472656 10.472656 9.167969 12.082031 9.167969 C 13.695312 9.167969 15 10.472656 15 12.082031 Z M 15 12.082031 "/>
</g>
</svg>
