<?xml version="1.0" encoding="UTF-8"?>
<svg xmlns="http://www.w3.org/2000/svg" xmlns:xlink="http://www.w3.org/1999/xlink" width="15pt" height="15pt" viewBox="0 0 15 15" version="1.1">
<g id="surface1">
<path style=" stroke:none;fill-rule:nonzero;fill:rgb(60%,66.666667%,70.980392%);fill-opacity:1;" d="M 11.25 13.75 C 11.25 14.671875 10.503906 15 9.582031 15 L 5.417969 15 C 4.496094 15 3.75 14.671875 3.75 13.75 C 3.75 12.828125 5 10.832031 5 8.332031 C 5 5.832031 10 5.832031 10 8.332031 C 10 10.832031 11.25 12.828125 11.25 13.75 Z M 11.25 13.75 "/>
<path style=" stroke:none;fill-rule:nonzero;fill:rgb(86.666667%,18.039216%,26.666667%);fill-opacity:1;" d="M 14.445312 4.660156 C 14.042969 3.679688 13.441406 2.804688 12.691406 2.085938 L 12.6875 2.085938 C 11.34375 0.792969 9.515625 0 7.5 0 C 5.683594 0 4.015625 0.640625 2.71875 1.714844 C 1.804688 2.46875 1.078125 3.433594 0.601562 4.542969 C 0.214844 5.449219 0 6.445312 0 7.5 C 0 8.421875 0.746094 9.167969 1.667969 9.167969 L 13.332031 9.167969 C 14.253906 9.167969 15 8.421875 15 7.5 C 15 6.492188 14.800781 5.535156 14.445312 4.660156 Z M 14.445312 4.660156 "/>
<path style=" stroke:none;fill-rule:nonzero;fill:rgb(95.686275%,67.058824%,72.941176%);fill-opacity:1;" d="M 3.210938 6.910156 C 4.660156 6.910156 5.832031 5.734375 5.832031 4.289062 C 5.832031 2.839844 4.660156 1.667969 3.210938 1.667969 C 3.042969 1.667969 2.878906 1.683594 2.71875 1.714844 C 1.804688 2.46875 1.078125 3.433594 0.601562 4.542969 C 0.730469 5.871094 1.847656 6.910156 3.210938 6.910156 Z M 3.210938 6.910156 "/>
<path style=" stroke:none;fill-rule:nonzero;fill:rgb(95.686275%,67.058824%,72.941176%);fill-opacity:1;" d="M 3.210938 1.769531 C 4.597656 1.769531 5.730469 2.898438 5.730469 4.289062 C 5.730469 5.675781 4.597656 6.804688 3.210938 6.804688 C 1.917969 6.804688 0.847656 5.839844 0.710938 4.558594 C 1.167969 3.5 1.875 2.550781 2.765625 1.8125 C 2.914062 1.785156 3.066406 1.769531 3.210938 1.769531 M 3.210938 1.667969 C 3.042969 1.667969 2.878906 1.683594 2.71875 1.714844 C 1.804688 2.46875 1.078125 3.433594 0.601562 4.542969 C 0.730469 5.871094 1.851562 6.910156 3.210938 6.910156 C 4.660156 6.910156 5.832031 5.734375 5.832031 4.289062 C 5.832031 2.839844 4.660156 1.667969 3.210938 1.667969 Z M 10.832031 3.957031 C 10.832031 4.992188 11.671875 5.832031 12.707031 5.832031 C 13.496094 5.832031 14.164062 5.347656 14.445312 4.660156 C 14.042969 3.679688 13.441406 2.804688 12.691406 2.085938 C 11.664062 2.09375 10.832031 2.929688 10.832031 3.957031 Z M 10.832031 3.957031 "/>
<path style=" stroke:none;fill-rule:nonzero;fill:rgb(95.686275%,67.058824%,72.941176%);fill-opacity:1;" d="M 10.832031 6.667969 C 10.832031 7.703125 9.992188 8.542969 8.957031 8.542969 C 7.921875 8.542969 7.082031 7.703125 7.082031 6.667969 C 7.082031 5.632812 7.921875 4.792969 8.957031 4.792969 C 9.992188 4.792969 10.832031 5.632812 10.832031 6.667969 Z M 10.832031 6.667969 "/>
<path style=" stroke:none;fill-rule:nonzero;fill:rgb(95.686275%,67.058824%,72.941176%);fill-opacity:1;" d="M 9.582031 2.082031 C 9.582031 2.773438 9.023438 3.332031 8.332031 3.332031 C 7.644531 3.332031 7.082031 2.773438 7.082031 2.082031 C 7.082031 1.394531 7.644531 0.832031 8.332031 0.832031 C 9.023438 0.832031 9.582031 1.394531 9.582031 2.082031 Z M 9.582031 2.082031 "/>
</g>
</svg>
