<?xml version="1.0" encoding="UTF-8"?>
<svg xmlns="http://www.w3.org/2000/svg" xmlns:xlink="http://www.w3.org/1999/xlink" width="15pt" height="15pt" viewBox="0 0 15 15" version="1.1">
<g id="surface1">
<path style=" stroke:none;fill-rule:nonzero;fill:rgb(46.666667%,69.803922%,33.333333%);fill-opacity:1;" d="M 13.5625 7.855469 C 12.691406 7.085938 10.777344 6.496094 9.320312 6.253906 C 10.777344 6.015625 12.691406 5.425781 13.5625 4.65625 C 14.402344 3.914062 14.796875 3.425781 14.453125 2.6875 C 14.21875 2.179688 13.265625 2.132812 12.71875 1.648438 C 12.171875 1.167969 12.117188 0.328125 11.542969 0.117188 C 10.703125 -0.183594 10.152344 0.167969 9.3125 0.90625 C 8.441406 1.675781 7.773438 3.363281 7.5 4.648438 C 7.226562 3.363281 6.558594 1.675781 5.6875 0.90625 C 4.847656 0.164062 4.296875 -0.183594 3.457031 0.117188 C 2.878906 0.328125 2.828125 1.167969 2.28125 1.648438 C 1.734375 2.132812 0.78125 2.179688 0.546875 2.6875 C 0.203125 3.429688 0.597656 3.914062 1.4375 4.65625 C 2.308594 5.425781 4.222656 6.015625 5.679688 6.253906 C 4.222656 6.496094 2.308594 7.085938 1.4375 7.855469 C 0.597656 8.59375 0.203125 9.082031 0.546875 9.820312 C 0.78125 10.328125 1.734375 10.378906 2.28125 10.859375 C 2.828125 11.34375 2.882812 12.183594 3.460938 12.390625 C 4.296875 12.695312 4.847656 12.34375 5.6875 11.605469 C 6.375 10.996094 6.9375 9.816406 7.277344 8.714844 C 7.167969 10.605469 7.496094 13.128906 8.882812 14.65625 C 9.441406 15.277344 9.882812 14.886719 10.058594 14.734375 C 10.230469 14.582031 10.726562 14.148438 10.136719 13.558594 C 8.503906 11.941406 7.941406 10.261719 7.789062 8.917969 C 8.132812 9.960938 8.667969 11.035156 9.3125 11.605469 C 10.152344 12.34375 10.703125 12.695312 11.542969 12.390625 C 12.121094 12.183594 12.171875 11.339844 12.71875 10.859375 C 13.265625 10.378906 14.21875 10.328125 14.453125 9.820312 C 14.796875 9.082031 14.402344 8.59375 13.5625 7.855469 Z M 13.5625 7.855469 "/>
</g>
</svg>
