<?xml version="1.0" encoding="UTF-8"?>
<svg xmlns="http://www.w3.org/2000/svg" xmlns:xlink="http://www.w3.org/1999/xlink" width="15pt" height="15pt" viewBox="0 0 15 15" version="1.1">
<g id="surface1">
<path style=" stroke:none;fill-rule:nonzero;fill:rgb(95.686275%,56.470588%,4.705882%);fill-opacity:1;" d="M 1.25 8.125 C 1.25 4.328125 4.328125 1.25 8.125 1.25 C 11.921875 1.25 15 4.328125 15 8.125 C 15 11.921875 11.921875 15 8.125 15 C 4.328125 15 1.25 11.921875 1.25 8.125 Z M 1.25 8.125 "/>
<path style=" stroke:none;fill-rule:nonzero;fill:rgb(40%,12.941176%,7.45098%);fill-opacity:1;" d="M 4.753906 3.160156 C 4.644531 3.050781 4.421875 3.078125 4.191406 3.210938 C 2.816406 2.070312 0.585938 1.6875 0.484375 1.671875 C 0.257812 1.636719 0.0429688 1.789062 0.00390625 2.015625 C -0.03125 2.242188 0.121094 2.457031 0.347656 2.492188 C 0.371094 2.496094 2.402344 2.847656 3.605469 3.808594 C 3.492188 4.027344 3.472656 4.234375 3.578125 4.339844 C 3.738281 4.5 4.136719 4.371094 4.460938 4.042969 C 4.785156 3.71875 4.917969 3.324219 4.753906 3.160156 Z M 4.753906 3.160156 "/>
<path style=" stroke:none;fill-rule:nonzero;fill:rgb(36.078431%,56.862745%,23.137255%);fill-opacity:1;" d="M 8.75 0.417969 C 8.75 0.417969 7.457031 2.214844 5.824219 2.613281 C 4.582031 2.917969 2.933594 2.945312 2.769531 2.5625 C 2.605469 2.179688 3.425781 0.921875 4.839844 0.316406 C 6.253906 -0.289062 8.75 0.417969 8.75 0.417969 Z M 8.75 0.417969 "/>
</g>
</svg>
