<?xml version="1.0" encoding="UTF-8"?>
<svg xmlns="http://www.w3.org/2000/svg" xmlns:xlink="http://www.w3.org/1999/xlink" width="15pt" height="15pt" viewBox="0 0 15 15" version="1.1">
<g id="surface1">
<path style=" stroke:none;fill-rule:nonzero;fill:rgb(36.078431%,56.862745%,23.137255%);fill-opacity:1;" d="M 7.601562 4.015625 C 7.484375 2.636719 8.503906 2.046875 8.503906 2.046875 C 7.171875 2.09375 6.464844 3.222656 6.464844 3.222656 C 6.152344 2.683594 6.859375 1.554688 7.371094 1.257812 C 6.035156 1.304688 5.839844 2.140625 5.839844 2.140625 C 5.214844 1.058594 5.410156 0.222656 5.410156 0.222656 C 4.945312 0.492188 4.675781 1.101562 4.519531 1.683594 L 3.554688 0.574219 C 3.457031 1.007812 3.617188 1.894531 3.792969 2.640625 C 2.519531 1.894531 1.332031 2.578125 1.332031 2.578125 C 2.976562 3.070312 3.601562 4.15625 3.601562 4.15625 C 3.601562 4.15625 1.957031 3.660156 1.25 4.789062 C 2.332031 4.753906 3.125 5 3.691406 5.304688 C 3.207031 5.421875 2.378906 5.203125 1.875 5.875 C 1.875 5.875 3.207031 5.828125 3.480469 6.3125 C 2.574219 6.570312 1.992188 7.253906 1.992188 7.253906 C 3.832031 6.910156 5.792969 7.949219 5.792969 7.949219 L 8.339844 6.476562 C 7.914062 4.554688 9.441406 3.671875 9.441406 3.671875 C 8.308594 2.882812 7.601562 4.015625 7.601562 4.015625 Z M 7.601562 4.015625 "/>
<path style=" stroke:none;fill-rule:nonzero;fill:rgb(100%,67.45098%,20%);fill-opacity:1;" d="M 12.316406 9.535156 C 13.351562 11.328125 12.824219 13.574219 11.132812 14.550781 C 9.445312 15.527344 7.234375 14.859375 6.199219 13.066406 L 5.535156 11.917969 C 4.5 10.125 5.03125 7.878906 6.71875 6.902344 C 8.410156 5.925781 10.617188 6.589844 11.65625 8.386719 Z M 12.316406 9.535156 "/>
<path style=" stroke:none;fill-rule:nonzero;fill:rgb(100%,80%,30.196078%);fill-opacity:1;" d="M 12.734375 10.566406 C 12.648438 10.214844 12.507812 9.867188 12.316406 9.535156 L 12.238281 9.398438 L 11.425781 9.054688 L 11.6875 8.441406 L 11.65625 8.386719 C 10.8125 6.925781 9.1875 6.214844 7.703125 6.527344 L 7.363281 7.328125 L 6.578125 6.996094 C 5.210938 7.878906 4.671875 9.628906 5.21875 11.214844 L 5.636719 11.394531 L 5.46875 11.785156 C 5.492188 11.832031 5.511719 11.875 5.539062 11.917969 L 6.199219 13.066406 C 6.484375 13.558594 6.863281 13.964844 7.289062 14.277344 L 7.386719 14.054688 L 8.199219 14.398438 L 8.0625 14.714844 C 8.339844 14.832031 8.628906 14.910156 8.921875 14.953125 L 9.011719 14.742188 L 9.597656 14.992188 C 10.074219 14.972656 10.546875 14.851562 10.988281 14.625 L 10.984375 14.621094 L 11.328125 13.808594 L 11.824219 14.019531 C 12.039062 13.800781 12.226562 13.558594 12.378906 13.292969 L 11.671875 12.996094 L 12.019531 12.183594 L 12.714844 12.476562 C 12.792969 12.183594 12.839844 11.882812 12.84375 11.574219 L 12.363281 11.371094 L 12.707031 10.554688 Z M 10.144531 7.550781 L 10.957031 7.894531 L 10.613281 8.707031 L 9.800781 8.363281 Z M 10.269531 9.523438 L 9.921875 10.335938 L 9.109375 9.988281 L 9.457031 9.175781 Z M 8.519531 6.859375 L 9.332031 7.207031 L 8.988281 8.019531 L 8.175781 7.671875 Z M 7.828125 8.484375 L 8.640625 8.832031 L 8.296875 9.644531 L 7.484375 9.300781 Z M 6.203125 7.796875 L 7.015625 8.140625 L 6.671875 8.953125 L 5.859375 8.609375 Z M 5.167969 10.234375 L 5.515625 9.421875 L 6.328125 9.765625 L 5.980469 10.582031 Z M 6.917969 12.894531 L 6.105469 12.550781 L 6.449219 11.738281 L 7.261719 12.082031 Z M 6.792969 10.925781 L 7.140625 10.113281 L 7.953125 10.457031 L 7.605469 11.269531 Z M 8.542969 13.585938 L 7.730469 13.242188 L 8.074219 12.429688 L 8.886719 12.773438 Z M 8.421875 11.613281 L 8.765625 10.800781 L 9.578125 11.148438 L 9.234375 11.960938 Z M 10.167969 14.277344 L 9.355469 13.933594 L 9.699219 13.117188 L 10.515625 13.464844 Z M 10.859375 12.648438 L 10.046875 12.304688 L 10.390625 11.492188 L 11.203125 11.835938 Z M 11.550781 11.023438 L 10.734375 10.679688 L 11.082031 9.867188 L 11.894531 10.210938 Z M 11.550781 11.023438 "/>
</g>
</svg>
