<?xml version="1.0" encoding="UTF-8"?>
<svg xmlns="http://www.w3.org/2000/svg" xmlns:xlink="http://www.w3.org/1999/xlink" width="15pt" height="15pt" viewBox="0 0 15 15" version="1.1">
<g id="surface1">
<path style=" stroke:none;fill-rule:nonzero;fill:rgb(86.666667%,18.039216%,26.666667%);fill-opacity:1;" d="M 15 8.714844 C 15 8.429688 13.792969 8.507812 13.699219 8.296875 C 13.601562 8.089844 15.035156 6.390625 14.828125 6.007812 C 14.617188 5.625 12.707031 6.492188 12.585938 6.300781 C 12.464844 6.109375 12.707031 4.84375 12.5 4.6875 C 12.292969 4.53125 10.3125 6.734375 10.035156 6.476562 C 9.757812 6.214844 10.675781 2.101562 10.488281 2.019531 C 10.296875 1.9375 9.0625 2.585938 8.90625 2.550781 C 8.75 2.515625 7.785156 0 7.5 0 C 7.214844 0 6.25 2.515625 6.09375 2.550781 C 5.9375 2.585938 4.703125 1.933594 4.511719 2.019531 C 4.324219 2.101562 5.242188 6.214844 4.964844 6.476562 C 4.6875 6.734375 2.707031 4.53125 2.5 4.6875 C 2.292969 4.84375 2.535156 6.109375 2.414062 6.300781 C 2.292969 6.492188 0.382812 5.625 0.171875 6.007812 C -0.0351562 6.390625 1.398438 8.089844 1.300781 8.296875 C 1.207031 8.507812 0 8.429688 0 8.714844 C 0 9.003906 3.515625 10.898438 3.75 11.121094 C 3.984375 11.34375 2.535156 12.289062 2.742188 12.464844 C 2.984375 12.671875 4.34375 12.121094 7.082031 12.066406 L 7.082031 14.582031 C 7.082031 14.8125 7.269531 15 7.5 15 C 7.730469 15 7.917969 14.8125 7.917969 14.582031 L 7.917969 12.066406 C 10.65625 12.121094 12.015625 12.671875 12.257812 12.464844 C 12.464844 12.285156 11.015625 11.34375 11.25 11.121094 C 11.484375 10.898438 15 9 15 8.714844 Z M 15 8.714844 "/>
</g>
</svg>
