<?xml version="1.0" encoding="UTF-8"?>
<svg xmlns="http://www.w3.org/2000/svg" xmlns:xlink="http://www.w3.org/1999/xlink" width="15pt" height="15pt" viewBox="0 0 15 15" version="1.1">
<g id="surface1">
<path style=" stroke:none;fill-rule:nonzero;fill:rgb(100%,90.980392%,71.372549%);fill-opacity:1;" d="M 11.667969 0.832031 C 12.785156 0.273438 13.75 2.5 12.917969 6.25 C 12.457031 8.324219 10.832031 10 9.167969 11.25 C 7.5 12.5 4.582031 10.832031 6.25 9.167969 C 7.917969 7.5 9.582031 6.25 10.417969 3.75 C 10.960938 2.121094 10.832031 1.25 11.667969 0.832031 Z M 11.667969 0.832031 "/>
<path style=" stroke:none;fill-rule:nonzero;fill:rgb(100%,85.098039%,51.372549%);fill-opacity:1;" d="M 12.917969 3.332031 C 12.917969 4.582031 12.5 7.082031 11.25 8.75 C 10 10.417969 8.332031 10.832031 9.582031 9.167969 C 10.832031 7.5 11.667969 6.25 12.082031 4.582031 C 12.5 2.917969 12.917969 1.667969 12.917969 3.332031 Z M 12.917969 3.332031 "/>
<path style=" stroke:none;fill-rule:nonzero;fill:rgb(100%,80%,30.196078%);fill-opacity:1;" d="M 9.167969 8.332031 C 9.042969 8.578125 9.652344 6.734375 7.917969 5.832031 C 7.089844 5.402344 3.75 6.25 6.25 6.25 C 7.5 6.25 7.917969 7.082031 7.082031 7.917969 C 6.960938 8.039062 6.878906 8.167969 6.824219 8.296875 C 6.652344 8.441406 6.460938 8.59375 6.25 8.75 C 5.308594 9.457031 3.816406 10.511719 2.082031 11.667969 C 0.832031 12.5 0.417969 12.917969 0.417969 13.332031 C 0.417969 14.582031 4.167969 14.582031 6.25 13.75 C 8.332031 12.917969 10.417969 10.832031 10.417969 10.832031 L 12.082031 9.167969 C 10.832031 7.5 9.167969 8.332031 9.167969 8.332031 Z M 9.167969 8.332031 "/>
<path style=" stroke:none;fill-rule:nonzero;fill:rgb(100%,90.980392%,71.372549%);fill-opacity:1;" d="M 9.167969 8.332031 C 9.167969 8.332031 9.914062 6.363281 7.917969 5.417969 C 6.234375 4.617188 4.582031 5 3.332031 5.832031 C 2.082031 6.667969 2.5 7.5 2.082031 7.917969 C 1.667969 8.332031 2.5 8.75 3.332031 7.917969 C 4.167969 7.082031 6.796875 5.878906 7.917969 6.25 C 9.167969 6.667969 8.75 7.5 9.167969 8.332031 Z M 9.167969 8.332031 "/>
<path style=" stroke:none;fill-rule:nonzero;fill:rgb(65.098039%,82.745098%,53.333333%);fill-opacity:1;" d="M 10.832031 14.582031 L 9.167969 14.582031 C 8.332031 14.582031 7.917969 15 7.5 15 C 7.082031 15 6.667969 14.167969 7.5 14.167969 C 8.332031 14.167969 9.167969 14.167969 9.582031 13.75 C 10 13.332031 11.667969 14.582031 10.832031 14.582031 Z M 10.832031 14.582031 "/>
<path style=" stroke:none;fill-rule:nonzero;fill:rgb(24.313725%,44.705882%,11.372549%);fill-opacity:1;" d="M 7.917969 14.582031 C 7.917969 14.8125 7.730469 15 7.5 15 C 7.269531 15 7.082031 14.8125 7.082031 14.582031 C 7.082031 14.351562 7.269531 14.167969 7.5 14.167969 C 7.730469 14.167969 7.917969 14.351562 7.917969 14.582031 Z M 7.917969 14.582031 "/>
<path style=" stroke:none;fill-rule:nonzero;fill:rgb(100%,80%,30.196078%);fill-opacity:1;" d="M 13.421875 11.667969 C 13.421875 11.667969 11.667969 14.582031 10.832031 14.582031 L 9.167969 14.582031 C 8.332031 14.582031 9.167969 14.167969 9.582031 13.75 C 10 13.332031 11.667969 13.75 11.667969 11.25 C 11.667969 10 13.421875 11.667969 13.421875 11.667969 Z M 13.421875 11.667969 "/>
<path style=" stroke:none;fill-rule:nonzero;fill:rgb(100%,90.980392%,71.372549%);fill-opacity:1;" d="M 10.832031 7.917969 C 12.082031 7.917969 14.167969 9.167969 13.75 11.667969 C 13.332031 14.167969 11.667969 14.582031 10.832031 14.582031 L 10 14.582031 C 9.167969 14.582031 9.582031 14.167969 10 13.75 C 10.417969 13.332031 11.667969 13.75 11.667969 11.25 C 11.667969 10 10 8.332031 9.167969 8.332031 C 9.167969 8.332031 10 7.917969 10.832031 7.917969 Z M 10.832031 7.917969 "/>
<path style=" stroke:none;fill-rule:nonzero;fill:rgb(100%,85.098039%,51.372549%);fill-opacity:1;" d="M 7.082031 8.75 C 8.332031 8.75 9.167969 9.167969 8.332031 10 C 7.675781 10.660156 5.832031 12.082031 4.167969 12.5 C 2.5 12.917969 0.832031 12.917969 2.082031 12.082031 C 3.332031 11.25 6.152344 8.75 7.082031 8.75 Z M 7.082031 8.75 "/>
<path style=" stroke:none;fill-rule:nonzero;fill:rgb(75.686275%,41.176471%,30.980392%);fill-opacity:1;" d="M 0.832031 12.917969 C 1.25 12.917969 1.25 12.917969 1.25 13.195312 C 1.25 13.472656 1.25 13.75 0.832031 13.75 C 0.417969 13.75 0.417969 13.195312 0.417969 13.195312 C 0.417969 13.195312 0.417969 12.917969 0.832031 12.917969 Z M 0.832031 12.917969 "/>
</g>
</svg>
