<?xml version="1.0" encoding="UTF-8"?>
<svg xmlns="http://www.w3.org/2000/svg" xmlns:xlink="http://www.w3.org/1999/xlink" width="15pt" height="15pt" viewBox="0 0 15 15" version="1.1">
<g id="surface1">
<path style=" stroke:none;fill-rule:nonzero;fill:rgb(36.078431%,56.862745%,23.137255%);fill-opacity:1;" d="M 1.03125 2.738281 C 0.636719 3.625 0.417969 4.597656 0.417969 5.625 C 0.417969 9.652344 3.773438 12.917969 7.917969 12.917969 C 11.144531 12.917969 13.886719 10.929688 14.945312 8.148438 Z M 1.03125 2.738281 "/>
<path style=" stroke:none;fill-rule:nonzero;fill:rgb(100%,90.980392%,71.372549%);fill-opacity:1;" d="M 1.804688 3.039062 C 1.449219 3.832031 1.25 4.707031 1.25 5.625 C 1.25 9.203125 4.234375 12.105469 7.917969 12.105469 C 10.792969 12.105469 13.238281 10.332031 14.171875 7.847656 Z M 1.804688 3.039062 "/>
<path style=" stroke:none;fill-rule:nonzero;fill:rgb(86.666667%,18.039216%,26.666667%);fill-opacity:1;" d="M 2.578125 3.339844 C 2.261719 4.039062 2.082031 4.8125 2.082031 5.625 C 2.082031 8.757812 4.695312 11.296875 7.917969 11.296875 C 10.441406 11.296875 12.585938 9.734375 13.398438 7.546875 Z M 2.578125 3.339844 "/>
<path style=" stroke:none;fill-rule:nonzero;fill:rgb(0%,0%,0%);fill-opacity:1;" d="M 4.132812 5.949219 C 4.003906 6.140625 3.824219 6.242188 3.726562 6.179688 C 3.632812 6.117188 3.65625 5.910156 3.785156 5.71875 C 3.914062 5.527344 4.09375 5.421875 4.191406 5.488281 C 4.285156 5.550781 4.257812 5.757812 4.132812 5.949219 Z M 6.632812 6.367188 C 6.503906 6.558594 6.324219 6.660156 6.226562 6.597656 C 6.132812 6.53125 6.15625 6.328125 6.285156 6.132812 C 6.414062 5.941406 6.59375 5.839844 6.691406 5.902344 C 6.785156 5.96875 6.757812 6.171875 6.632812 6.367188 Z M 8.75 8.316406 C 8.769531 8.542969 8.695312 8.738281 8.578125 8.75 C 8.464844 8.757812 8.355469 8.582031 8.335938 8.351562 C 8.3125 8.121094 8.390625 7.929688 8.503906 7.917969 C 8.617188 7.90625 8.726562 8.085938 8.75 8.316406 Z M 5 7.480469 C 5.019531 7.710938 4.945312 7.90625 4.828125 7.914062 C 4.714844 7.925781 4.605469 7.75 4.585938 7.519531 C 4.5625 7.289062 4.640625 7.09375 4.753906 7.085938 C 4.871094 7.074219 4.976562 7.25 5 7.480469 Z M 6.625 9.707031 C 6.484375 9.890625 6.300781 9.984375 6.207031 9.914062 C 6.117188 9.847656 6.152344 9.640625 6.292969 9.457031 C 6.433594 9.273438 6.617188 9.183594 6.710938 9.25 C 6.800781 9.320312 6.765625 9.523438 6.625 9.707031 Z M 9.972656 9.898438 C 10.085938 10.097656 10.097656 10.304688 9.996094 10.363281 C 9.898438 10.417969 9.722656 10.304688 9.609375 10.101562 C 9.496094 9.902344 9.484375 9.695312 9.585938 9.636719 C 9.6875 9.582031 9.859375 9.695312 9.972656 9.898438 Z M 7.050781 7.804688 C 7.175781 7.996094 7.199219 8.203125 7.105469 8.265625 C 7.007812 8.328125 6.828125 8.222656 6.703125 8.03125 C 6.574219 7.839844 6.550781 7.632812 6.648438 7.570312 C 6.742188 7.503906 6.921875 7.609375 7.050781 7.804688 Z M 10.792969 8.457031 C 10.652344 8.640625 10.464844 8.734375 10.375 8.664062 C 10.28125 8.597656 10.320312 8.390625 10.460938 8.207031 C 10.597656 8.023438 10.785156 7.933594 10.875 8 C 10.96875 8.070312 10.929688 8.273438 10.792969 8.457031 Z M 10.792969 8.457031 "/>
</g>
</svg>
