<?xml version="1.0" encoding="UTF-8"?>
<svg xmlns="http://www.w3.org/2000/svg" xmlns:xlink="http://www.w3.org/1999/xlink" width="15pt" height="15pt" viewBox="0 0 15 15" version="1.1">
<g id="surface1">
<path style=" stroke:none;fill-rule:nonzero;fill:rgb(86.666667%,18.039216%,26.666667%);fill-opacity:1;" d="M 10 2.917969 C 8.75 2.917969 8.75 3.332031 7.5 3.332031 C 6.25 3.332031 6.25 2.917969 5 2.917969 C 3.332031 2.917969 1.25 3.75 1.25 6.667969 C 1.25 11.25 3.75 15 5.417969 15 C 6.667969 15 6.667969 14.582031 7.5 14.582031 C 8.332031 14.582031 8.332031 15 9.582031 15 C 11.25 15 13.75 11.25 13.75 6.667969 C 13.75 3.75 11.667969 2.917969 10 2.917969 Z M 10 2.917969 "/>
<path style=" stroke:none;fill-rule:nonzero;fill:rgb(46.666667%,69.803922%,33.333333%);fill-opacity:1;" d="M 7.917969 2.917969 C 7.917969 2.917969 9.167969 1.25 11.25 1.25 C 12.917969 1.25 13.75 2.082031 13.75 2.082031 C 13.75 2.082031 12.082031 3.332031 10.832031 3.332031 C 9.582031 3.332031 7.917969 2.917969 7.917969 2.917969 Z M 7.917969 2.917969 "/>
<path style=" stroke:none;fill-rule:nonzero;fill:rgb(40%,12.941176%,7.45098%);fill-opacity:1;" d="M 7.5 4.167969 C 7.269531 4.167969 7.082031 3.980469 7.082031 3.75 C 7.082031 2.316406 7.582031 0.992188 8.457031 0.121094 C 8.617188 -0.0390625 8.882812 -0.0390625 9.042969 0.121094 C 9.207031 0.285156 9.207031 0.546875 9.042969 0.710938 C 8.328125 1.429688 7.917969 2.535156 7.917969 3.75 C 7.917969 3.980469 7.730469 4.167969 7.5 4.167969 Z M 7.5 4.167969 "/>
</g>
</svg>
