<?xml version="1.0" encoding="UTF-8"?>
<svg xmlns="http://www.w3.org/2000/svg" xmlns:xlink="http://www.w3.org/1999/xlink" width="15pt" height="15pt" viewBox="0 0 15 15" version="1.1">
<g id="surface1">
<path style=" stroke:none;fill-rule:nonzero;fill:rgb(65.098039%,82.745098%,53.333333%);fill-opacity:1;" d="M 13.300781 4.574219 C 15.140625 7.765625 14.128906 11.796875 11.042969 13.578125 C 7.953125 15.363281 4.164062 14.585938 2.324219 11.394531 C 0.242188 7.785156 1.285156 3.816406 4.375 2.03125 C 7.464844 0.25 11.84375 2.050781 13.300781 4.574219 Z M 13.300781 4.574219 "/>
<path style=" stroke:none;fill-rule:nonzero;fill:rgb(46.666667%,69.803922%,33.333333%);fill-opacity:1;" d="M 10 2.5 C 11.25 2.917969 12.5 4.167969 13.332031 5.417969 C 13.683594 5.9375 13.636719 5.382812 13.210938 4.4375 C 11.675781 1.988281 7.40625 0.28125 4.375 2.03125 C 3.121094 2.753906 2.210938 3.84375 1.703125 5.117188 C 2.003906 4.78125 2.300781 4.582031 2.5 4.582031 C 2.917969 4.582031 1.710938 5.949219 2.917969 9.167969 C 4.167969 12.5 4.167969 10.832031 4.167969 10.832031 C 4.167969 10.832031 3.332031 7.082031 3.75 5.832031 C 4.167969 4.582031 4.582031 3.75 5 4.167969 C 5.417969 4.582031 7.082031 7.917969 7.917969 10 C 8.859375 12.351562 8.75 9.582031 7.5 6.667969 C 6.316406 3.90625 6.25 3.332031 6.667969 3.332031 C 7.082031 3.332031 8.109375 3.941406 9.582031 5.417969 C 10.417969 6.25 10.832031 7.5 11.25 7.917969 C 11.667969 8.332031 11.667969 7.5 11.25 6.25 C 10.957031 5.367188 10 3.75 8.75 2.917969 C 7.710938 2.222656 8.75 2.082031 10 2.5 Z M 10 2.5 "/>
<path style=" stroke:none;fill-rule:nonzero;fill:rgb(36.078431%,56.862745%,23.137255%);fill-opacity:1;" d="M 4.972656 2.648438 C 4.773438 2.765625 4.519531 2.695312 4.402344 2.496094 C 3.941406 1.699219 3.878906 0.703125 3.875 0.660156 C 3.863281 0.433594 4.035156 0.234375 4.265625 0.222656 C 4.496094 0.207031 4.691406 0.382812 4.707031 0.609375 C 4.707031 0.621094 4.765625 1.457031 5.125 2.078125 C 5.238281 2.277344 5.171875 2.535156 4.972656 2.648438 Z M 4.972656 2.648438 "/>
<path style=" stroke:none;fill-rule:nonzero;fill:rgb(46.666667%,69.803922%,33.333333%);fill-opacity:1;" d="M 4.984375 12.722656 C 4.582031 12.5 4.265625 11.898438 3.980469 11.378906 C 3.695312 10.859375 4.09375 10.847656 4.347656 11.3125 C 4.632812 11.832031 4.851562 11.984375 5.136719 12.503906 C 5.417969 13.023438 5.214844 12.851562 4.984375 12.722656 Z M 8.960938 12.878906 C 8.597656 12.019531 8.621094 11.605469 8.257812 10.746094 C 7.894531 9.890625 7.945312 9.058594 8.308594 9.914062 C 8.671875 10.773438 9.039062 11.628906 9.011719 12.046875 C 8.984375 12.460938 8.960938 12.878906 8.960938 12.878906 Z M 11.25 7.917969 C 11.667969 9.167969 11.25 8.75 11.667969 10 C 12.082031 11.25 12.082031 12.082031 12.082031 10 C 12.082031 8.683594 11.667969 7.5 11.25 7.082031 C 10.589844 6.425781 11.25 7.917969 11.25 7.917969 Z M 11.25 7.917969 "/>
</g>
</svg>
