<?xml version="1.0" encoding="UTF-8"?>
<svg xmlns="http://www.w3.org/2000/svg" xmlns:xlink="http://www.w3.org/1999/xlink" width="15pt" height="15pt" viewBox="0 0 15 15" version="1.1">
<g id="surface1">
<path style=" stroke:none;fill-rule:nonzero;fill:rgb(36.078431%,56.862745%,23.137255%);fill-opacity:1;" d="M 4.753906 1.390625 C 7.453125 0.859375 8.273438 1.917969 9.609375 1.425781 C 10.941406 0.933594 9.648438 2.601562 9.296875 2.886719 C 8.949219 3.175781 5.90625 4.890625 4.585938 4.261719 C 3.265625 3.632812 3.261719 1.683594 4.753906 1.390625 Z M 4.753906 1.390625 "/>
<path style=" stroke:none;fill-rule:nonzero;fill:rgb(46.666667%,69.803922%,33.333333%);fill-opacity:1;" d="M 6.25 6.667969 C 6.125 6.667969 6 6.609375 5.917969 6.5 C 5.628906 6.117188 5.371094 5.683594 5.097656 5.226562 C 4.152344 3.644531 3.082031 1.851562 0.328125 1.238281 C 0.101562 1.191406 -0.0390625 0.96875 0.0117188 0.742188 C 0.0585938 0.519531 0.28125 0.378906 0.507812 0.425781 C 3.613281 1.117188 4.832031 3.160156 5.8125 4.800781 C 6.074219 5.238281 6.324219 5.652344 6.582031 6 C 6.722656 6.183594 6.683594 6.445312 6.5 6.582031 C 6.425781 6.640625 6.335938 6.667969 6.25 6.667969 Z M 6.25 6.667969 "/>
<path style=" stroke:none;fill-rule:nonzero;fill:rgb(100%,80%,30.196078%);fill-opacity:1;" d="M 14.292969 13.140625 C 14.292969 13.132812 14.289062 13.128906 14.289062 13.121094 C 15.445312 10.898438 15.394531 6.824219 12.894531 4.328125 C 10.480469 1.910156 7.195312 1.902344 5.078125 2.632812 C 4.417969 2.886719 3.859375 2.660156 3.488281 3.035156 C 3.121094 3.402344 3.339844 4.167969 3.191406 4.625 C 1.871094 6.792969 1.769531 10.050781 4.308594 12.589844 C 6.378906 14.660156 8.660156 15.441406 12.632812 14.613281 C 12.636719 14.613281 12.636719 14.613281 12.636719 14.613281 C 13.117188 14.519531 13.867188 14.828125 14.125 14.574219 C 14.574219 14.121094 14.253906 13.589844 14.292969 13.140625 Z M 14.292969 13.140625 "/>
<path style=" stroke:none;fill-rule:nonzero;fill:rgb(46.666667%,69.803922%,33.333333%);fill-opacity:1;" d="M 3.421875 2.742188 C 3.421875 2.742188 1.640625 2.496094 0.5625 4.660156 C -0.515625 6.820312 0.804688 8.460938 0.683594 9.929688 C 0.5625 11.402344 1.335938 10.457031 1.777344 9.746094 C 2.214844 9.035156 3.539062 7.707031 3.832031 5.882812 C 4.128906 4.058594 3.804688 3.191406 3.421875 2.742188 Z M 3.421875 2.742188 "/>
</g>
</svg>
