<?xml version="1.0" encoding="UTF-8"?>
<svg xmlns="http://www.w3.org/2000/svg" xmlns:xlink="http://www.w3.org/1999/xlink" width="15pt" height="15pt" viewBox="0 0 15 15" version="1.1">
<g id="surface1">
<path style=" stroke:none;fill-rule:nonzero;fill:rgb(46.666667%,69.803922%,33.333333%);fill-opacity:1;" d="M 10.832031 10 C 10.75 10 10.667969 9.976562 10.59375 9.925781 C 7.867188 8.015625 5.527344 4.773438 4.179688 2.660156 C 4.886719 7.046875 4.59375 9.515625 4.578125 9.636719 C 4.550781 9.863281 4.347656 10.023438 4.117188 9.996094 C 3.886719 9.96875 3.726562 9.761719 3.753906 9.53125 C 3.757812 9.5 4.144531 6.183594 2.925781 0.503906 C 2.882812 0.300781 2.996094 0.0976562 3.191406 0.0273438 C 3.382812 -0.046875 3.601562 0.0351562 3.699219 0.21875 C 3.734375 0.28125 7.035156 6.417969 11.070312 9.242188 C 11.261719 9.375 11.304688 9.632812 11.175781 9.820312 C 11.09375 9.9375 10.964844 10 10.832031 10 Z M 10.832031 10 "/>
<path style=" stroke:none;fill-rule:nonzero;fill:rgb(36.078431%,56.862745%,23.137255%);fill-opacity:1;" d="M 11.0625 3.675781 C 9.613281 4.074219 8.957031 4.734375 6.582031 3.953125 C 4.617188 3.304688 3.652344 2.199219 3.9375 1.324219 C 4.226562 0.449219 5.265625 0.0078125 7.230469 0.65625 C 9.210938 1.308594 8.949219 2.101562 11.0625 3.675781 Z M 11.0625 3.675781 "/>
<path style=" stroke:none;fill-rule:nonzero;fill:rgb(74.509804%,9.803922%,19.215686%);fill-opacity:1;" d="M 14.167969 11.667969 C 14.167969 13.507812 12.675781 15 10.832031 15 C 8.992188 15 7.5 13.507812 7.5 11.667969 C 7.5 9.824219 8.992188 8.332031 10.832031 8.332031 C 12.675781 8.332031 14.167969 9.824219 14.167969 11.667969 Z M 14.167969 11.667969 "/>
<path style=" stroke:none;fill-rule:nonzero;fill:rgb(74.509804%,9.803922%,19.215686%);fill-opacity:1;" d="M 7.917969 11.667969 C 7.917969 13.507812 6.425781 15 4.582031 15 C 2.742188 15 1.25 13.507812 1.25 11.667969 C 1.25 9.824219 2.742188 8.332031 4.582031 8.332031 C 6.425781 8.332031 7.917969 9.824219 7.917969 11.667969 Z M 7.917969 11.667969 "/>
</g>
</svg>
