<?xml version="1.0" encoding="UTF-8"?>
<svg xmlns="http://www.w3.org/2000/svg" xmlns:xlink="http://www.w3.org/1999/xlink" width="15pt" height="15pt" viewBox="0 0 15 15" version="1.1">
<g id="surface1">
<path style=" stroke:none;fill-rule:nonzero;fill:rgb(85.098039%,61.960784%,50.980392%);fill-opacity:1;" d="M 7.5 8.503906 C 3.59375 8.503906 0.429688 8.410156 0.429688 11.183594 C 0.429688 13.953125 3.59375 14.582031 7.5 14.582031 C 11.40625 14.582031 14.570312 13.953125 14.570312 11.183594 C 14.570312 8.410156 11.40625 8.503906 7.5 8.503906 Z M 7.5 8.503906 "/>
<path style=" stroke:none;fill-rule:nonzero;fill:rgb(40%,12.941176%,7.45098%);fill-opacity:1;" d="M 14.363281 8.714844 C 14.363281 8.714844 10.9375 8.304688 7.5 8.289062 C 4.0625 8.304688 0.636719 8.714844 0.636719 8.714844 C 0.296875 11.414062 3.109375 12.523438 7.5 12.523438 C 11.890625 12.523438 14.703125 11.414062 14.363281 8.714844 Z M 14.363281 8.714844 "/>
<path style=" stroke:none;fill-rule:nonzero;fill:rgb(100%,80%,30.196078%);fill-opacity:1;" d="M 14.121094 7.636719 L 0.847656 7.90625 C 0.386719 7.90625 0.00390625 8.835938 0.492188 9.078125 C 4.117188 10.207031 7.035156 11.347656 7.035156 11.347656 C 7.4375 11.570312 7.570312 11.570312 7.972656 11.347656 C 7.972656 11.347656 12 9.738281 14.585938 9.058594 C 14.953125 8.964844 14.578125 7.636719 14.121094 7.636719 Z M 14.121094 7.636719 "/>
<path style=" stroke:none;fill-rule:nonzero;fill:rgb(46.666667%,69.803922%,33.333333%);fill-opacity:1;" d="M 14.46875 7.671875 C 13.675781 6.941406 13.722656 7.332031 13.117188 7.160156 C 12.886719 7.09375 11.238281 4.964844 7.480469 4.964844 L 7.472656 4.964844 C 3.714844 4.964844 2.0625 7.09375 1.832031 7.160156 C 1.226562 7.332031 1.273438 6.941406 0.480469 7.671875 C 0.117188 8.007812 0.0195312 8.179688 0.402344 8.265625 C 0.980469 8.398438 0.929688 8.746094 1.339844 8.871094 C 1.84375 9.015625 2.046875 8.746094 2.855469 8.859375 C 3.542969 8.953125 3.589844 9.84375 4.285156 9.84375 C 4.980469 9.84375 4.980469 9.511719 5.675781 9.511719 C 6.367188 9.511719 6.78125 10.40625 7.472656 10.40625 C 8.167969 10.40625 8.578125 9.511719 9.273438 9.511719 C 9.96875 9.511719 9.96875 9.84375 10.664062 9.84375 C 11.359375 9.84375 11.40625 8.953125 12.09375 8.859375 C 12.902344 8.746094 13.105469 9.015625 13.609375 8.871094 C 14.019531 8.746094 13.96875 8.398438 14.546875 8.265625 C 14.929688 8.179688 14.832031 8.007812 14.46875 7.671875 Z M 14.46875 7.671875 "/>
<path style=" stroke:none;fill-rule:nonzero;fill:rgb(86.666667%,18.039216%,26.666667%);fill-opacity:1;" d="M 14.199219 6.882812 C 14.199219 8.125 11.199219 8.714844 7.5 8.714844 C 3.800781 8.714844 0.800781 8.125 0.800781 6.882812 C 0.800781 4.632812 1.203125 4.632812 7.5 4.632812 C 13.796875 4.632812 14.199219 4.632812 14.199219 6.882812 Z M 14.199219 6.882812 "/>
<path style=" stroke:none;fill-rule:nonzero;fill:rgb(85.098039%,61.960784%,50.980392%);fill-opacity:1;" d="M 7.5 0.21875 C 3.59375 0.21875 0.429688 2.046875 0.429688 4.820312 C 0.429688 7.371094 3.59375 7.476562 7.5 7.476562 C 11.40625 7.476562 14.570312 7.371094 14.570312 4.820312 C 14.570312 2.046875 11.40625 0.21875 7.5 0.21875 Z M 7.5 0.21875 "/>
<path style=" stroke:none;fill-rule:nonzero;fill:rgb(100%,90.980392%,71.372549%);fill-opacity:1;" d="M 4.492188 1.539062 C 4.285156 1.40625 4.011719 1.46875 3.878906 1.675781 C 3.746094 1.882812 3.804688 2.160156 4.011719 2.289062 C 4.222656 2.421875 4.746094 2.523438 4.878906 2.316406 C 5.011719 2.109375 4.699219 1.671875 4.492188 1.539062 Z M 8.550781 1.109375 C 8.316406 1.183594 7.902344 1.527344 7.980469 1.761719 C 8.054688 1.996094 8.589844 2.03125 8.824219 1.957031 C 9.058594 1.878906 9.1875 1.628906 9.109375 1.394531 C 9.035156 1.160156 8.78125 1.03125 8.550781 1.109375 Z M 13.09375 4.039062 C 12.90625 3.882812 12.433594 4.132812 12.277344 4.320312 C 12.117188 4.511719 12.140625 4.792969 12.328125 4.949219 C 12.519531 5.109375 12.800781 5.082031 12.957031 4.894531 C 13.117188 4.707031 13.285156 4.199219 13.09375 4.039062 Z M 11.578125 1.957031 C 11.371094 1.824219 11.09375 1.882812 10.960938 2.09375 C 10.828125 2.300781 10.890625 2.574219 11.097656 2.707031 C 11.304688 2.839844 11.828125 2.941406 11.960938 2.730469 C 12.09375 2.523438 11.785156 2.089844 11.578125 1.957031 Z M 5.328125 4.871094 C 5.121094 4.742188 4.84375 4.800781 4.710938 5.007812 C 4.578125 5.214844 4.640625 5.492188 4.847656 5.625 C 5.054688 5.757812 5.578125 5.855469 5.710938 5.648438 C 5.84375 5.441406 5.535156 5.003906 5.328125 4.871094 Z M 6.597656 2.871094 C 6.457031 3.070312 6.335938 3.59375 6.539062 3.734375 C 6.742188 3.875 7.1875 3.578125 7.328125 3.375 C 7.46875 3.171875 7.417969 2.894531 7.214844 2.753906 C 7.011719 2.617188 6.734375 2.667969 6.597656 2.871094 Z M 9.910156 4.871094 C 9.703125 4.742188 9.425781 4.800781 9.292969 5.007812 C 9.160156 5.214844 9.222656 5.492188 9.429688 5.625 C 9.636719 5.757812 10.164062 5.855469 10.296875 5.648438 C 10.429688 5.441406 10.117188 5.003906 9.910156 4.871094 Z M 2.0625 3.253906 C 1.898438 3.4375 1.714844 3.941406 1.898438 4.105469 C 2.082031 4.269531 2.5625 4.03125 2.726562 3.847656 C 2.890625 3.664062 2.875 3.382812 2.691406 3.21875 C 2.507812 3.054688 2.226562 3.070312 2.0625 3.253906 Z M 2.0625 3.253906 "/>
</g>
</svg>
