<?xml version="1.0" encoding="UTF-8"?>
<svg xmlns="http://www.w3.org/2000/svg" xmlns:xlink="http://www.w3.org/1999/xlink" width="15pt" height="15pt" viewBox="0 0 15 15" version="1.1">
<g id="surface1">
<path style=" stroke:none;fill-rule:nonzero;fill:rgb(57.647059%,58.431373%,59.607843%);fill-opacity:1;" d="M 15 10 C 15 7.699219 11.640625 5.832031 7.5 5.832031 C 3.359375 5.832031 0 7.699219 0 10 C 0 12.300781 3.359375 14.167969 7.5 14.167969 C 11.640625 14.167969 15 12.300781 15 10 Z M 15 10 "/>
<path style=" stroke:none;fill-rule:nonzero;fill:rgb(94.509804%,94.901961%,94.901961%);fill-opacity:1;" d="M 15 9.167969 C 15 6.867188 11.640625 5 7.5 5 C 3.359375 5 0 6.867188 0 9.167969 C 0 11.46875 3.359375 13.332031 7.5 13.332031 C 11.640625 13.332031 15 11.46875 15 9.167969 Z M 15 9.167969 "/>
<path style=" stroke:none;fill-rule:nonzero;fill:rgb(100%,80%,30.196078%);fill-opacity:1;" d="M 13.667969 9.003906 C 13.667969 7.253906 10.90625 5.832031 7.5 5.832031 C 4.09375 5.832031 1.332031 7.253906 1.332031 9.003906 C 1.332031 10.757812 4.09375 12.175781 7.5 12.175781 C 10.90625 12.175781 13.667969 10.757812 13.667969 9.003906 Z M 13.667969 9.003906 "/>
<path style=" stroke:none;fill-rule:nonzero;fill:rgb(100%,90.980392%,71.372549%);fill-opacity:1;" d="M 4.582031 11.25 C 4.351562 11.25 4.167969 11.0625 4.167969 10.832031 C 4.167969 10.601562 4.351562 10.417969 4.582031 10.417969 C 5.375 10.417969 5.867188 9.964844 5.90625 9.652344 C 5.945312 9.34375 5.503906 9.203125 5.316406 9.152344 C 4.9375 9.058594 4.65625 9.167969 4.332031 9.292969 C 3.886719 9.464844 3.277344 9.703125 2.621094 9.042969 C 2.335938 8.757812 2.261719 8.375 2.417969 7.996094 C 2.722656 7.261719 3.851562 6.667969 4.582031 6.667969 C 4.8125 6.667969 5 6.851562 5 7.082031 C 5 7.3125 4.8125 7.5 4.582031 7.5 C 4.117188 7.5 3.335938 7.957031 3.1875 8.316406 C 3.15625 8.390625 3.167969 8.414062 3.210938 8.457031 C 3.472656 8.71875 3.597656 8.683594 4.03125 8.515625 C 4.390625 8.378906 4.882812 8.1875 5.515625 8.347656 C 6.511719 8.59375 6.796875 9.234375 6.734375 9.753906 C 6.640625 10.488281 5.8125 11.25 4.582031 11.25 Z M 7.082031 11.667969 C 6.851562 11.667969 6.667969 11.480469 6.667969 11.25 C 6.667969 11.019531 6.851562 10.832031 7.082031 10.832031 C 9.457031 10.832031 11.179688 10.3125 12.207031 9.289062 C 12.367188 9.125 12.632812 9.125 12.792969 9.289062 C 12.957031 9.453125 12.957031 9.714844 12.792969 9.878906 C 11.609375 11.066406 9.6875 11.667969 7.082031 11.667969 Z M 7.082031 11.667969 "/>
<path style=" stroke:none;fill-rule:nonzero;fill:rgb(100%,90.980392%,71.372549%);fill-opacity:1;" d="M 8.894531 10.066406 C 8.671875 10.066406 8.449219 10.042969 8.234375 9.988281 C 8.007812 9.929688 7.316406 9.757812 7.296875 9.203125 C 7.28125 8.785156 7.570312 8.296875 9.769531 7.554688 C 9.53125 7.359375 8.953125 7.082031 8.332031 7.082031 C 7.285156 7.082031 6.75 7.171875 6.542969 7.378906 C 6.382812 7.539062 6.117188 7.539062 5.957031 7.378906 C 5.792969 7.214844 5.792969 6.953125 5.957031 6.789062 C 6.351562 6.390625 6.976562 6.25 8.332031 6.25 C 9.332031 6.25 10.582031 6.804688 10.699219 7.523438 C 10.742188 7.796875 10.617188 8.148438 10.132812 8.3125 C 9.054688 8.671875 8.5 8.957031 8.257812 9.128906 C 8.304688 9.144531 8.363281 9.160156 8.433594 9.179688 C 9.78125 9.515625 11.484375 8.191406 11.671875 7.855469 C 11.703125 7.652344 11.875 7.5 12.082031 7.5 C 12.3125 7.5 12.5 7.6875 12.5 7.917969 C 12.5 8.210938 12.234375 8.566406 11.714844 8.972656 C 10.988281 9.539062 9.925781 10.066406 8.894531 10.066406 Z M 8.894531 10.066406 "/>
<path style=" stroke:none;fill-rule:nonzero;fill:rgb(86.666667%,18.039216%,26.666667%);fill-opacity:1;" d="M 11.25 8.542969 C 11.25 9.578125 10.40625 10.832031 8.332031 10.832031 C 6.261719 10.832031 6.667969 10 3.332031 8.75 C 1.925781 8.222656 5.429688 6.667969 7.5 6.667969 C 9.570312 6.667969 11.25 7.507812 11.25 8.542969 Z M 11.25 8.542969 "/>
<path style=" stroke:none;fill-rule:nonzero;fill:rgb(91.764706%,34.901961%,43.137255%);fill-opacity:1;" d="M 6.667969 10 C 6.558594 10 6.453125 9.960938 6.371094 9.878906 C 6.210938 9.714844 6.210938 9.453125 6.371094 9.289062 C 6.488281 9.160156 6.417969 9.089844 6.371094 9.042969 C 6.140625 8.8125 5.441406 8.789062 4.769531 9.121094 C 4.5625 9.226562 4.3125 9.140625 4.210938 8.9375 C 4.109375 8.730469 4.191406 8.480469 4.398438 8.378906 C 5.21875 7.964844 6.367188 7.859375 6.960938 8.457031 C 7.484375 8.976562 7.246094 9.59375 6.960938 9.878906 C 6.878906 9.960938 6.773438 10 6.667969 10 Z M 8.332031 8.332031 C 7.328125 8.332031 6.796875 7.804688 6.371094 7.378906 C 6.210938 7.214844 6.210938 6.953125 6.371094 6.789062 C 6.535156 6.625 6.796875 6.625 6.960938 6.789062 C 7.359375 7.1875 7.671875 7.5 8.332031 7.5 C 8.65625 7.5 9.410156 7.5 9.707031 7.207031 C 9.867188 7.042969 10.132812 7.042969 10.292969 7.207031 C 10.457031 7.367188 10.457031 7.632812 10.292969 7.792969 C 9.753906 8.332031 8.796875 8.332031 8.332031 8.332031 Z M 8.332031 10 C 8.101562 10 7.917969 9.8125 7.917969 9.582031 C 7.917969 9.351562 8.101562 9.167969 8.332031 9.167969 C 9.101562 9.167969 10.226562 8.765625 10.539062 8.457031 C 10.703125 8.292969 10.964844 8.292969 11.128906 8.457031 C 11.289062 8.617188 11.289062 8.882812 11.128906 9.042969 C 10.589844 9.582031 9.183594 10 8.332031 10 Z M 8.332031 10 "/>
<path style=" stroke:none;fill-rule:nonzero;fill:rgb(100%,67.45098%,20%);fill-opacity:1;" d="M 7.082031 8.332031 C 6.929688 8.332031 6.785156 8.25 6.710938 8.101562 C 6.292969 7.269531 5.429688 5.539062 5.003906 2.136719 C 4.972656 1.90625 5.136719 1.699219 5.363281 1.671875 C 5.589844 1.640625 5.800781 1.804688 5.828125 2.03125 C 6.238281 5.292969 7.058594 6.941406 7.457031 7.730469 C 7.558594 7.9375 7.476562 8.1875 7.269531 8.289062 C 7.210938 8.320312 7.144531 8.332031 7.082031 8.332031 Z M 7.082031 8.332031 "/>
<path style=" stroke:none;fill-rule:nonzero;fill:rgb(60%,66.666667%,70.980392%);fill-opacity:1;" d="M 14.636719 4.601562 L 8.285156 2.722656 C 6.890625 0.511719 5.132812 0.867188 4.167969 0.832031 C 4.0625 0.828125 3.824219 0.925781 3.820312 1.09375 C 3.8125 1.257812 4.246094 1.234375 4.3125 1.238281 C 5.023438 1.261719 5.957031 1.308594 6.867188 2.273438 C 5.761719 1.886719 4.058594 1.640625 3.75 1.667969 C 3.558594 1.683594 3.542969 1.824219 3.765625 1.925781 C 3.953125 2.011719 5.671875 2.613281 6.617188 2.902344 C 6.027344 3.105469 5.25 3.199219 3.9375 2.542969 C 3.730469 2.441406 3.4375 2.292969 3.332031 2.5 C 3.230469 2.707031 3.542969 2.8125 3.75 2.917969 C 4.648438 3.367188 5.179688 3.886719 5.757812 3.886719 C 6.449219 3.886719 6.949219 3.679688 7.339844 3.515625 C 7.476562 3.457031 7.605469 3.402344 7.714844 3.371094 C 7.722656 3.375 7.726562 3.378906 7.734375 3.382812 L 13.902344 6.132812 C 14.105469 6.242188 14.558594 5.800781 14.667969 5.601562 C 14.777344 5.398438 14.785156 4.695312 14.636719 4.601562 Z M 14.636719 4.601562 "/>
<path style=" stroke:none;fill-rule:nonzero;fill:rgb(100%,67.45098%,20%);fill-opacity:1;" d="M 5.417969 7.917969 C 5.308594 7.917969 5.203125 7.875 5.121094 7.792969 C 4.574219 7.246094 3.269531 4.101562 5.089844 1.824219 C 5.234375 1.644531 5.496094 1.613281 5.675781 1.757812 C 5.855469 1.902344 5.886719 2.164062 5.742188 2.34375 C 4.222656 4.242188 5.417969 6.910156 5.710938 7.203125 C 5.875 7.367188 5.875 7.632812 5.710938 7.792969 C 5.628906 7.875 5.523438 7.917969 5.417969 7.917969 Z M 5.417969 7.917969 "/>
</g>
</svg>
