<?xml version="1.0" encoding="UTF-8"?>
<svg xmlns="http://www.w3.org/2000/svg" xmlns:xlink="http://www.w3.org/1999/xlink" width="15pt" height="15pt" viewBox="0 0 15 15" version="1.1">
<g id="surface1">
<path style=" stroke:none;fill-rule:nonzero;fill:rgb(86.666667%,18.039216%,26.666667%);fill-opacity:1;" d="M 7.5 15 C 1.265625 15 0.417969 8.75 0.417969 7.082031 L 14.582031 7.082031 C 14.582031 7.917969 13.765625 15 7.5 15 Z M 7.5 15 "/>
<path style=" stroke:none;fill-rule:nonzero;fill:rgb(62.745098%,1.568627%,11.764706%);fill-opacity:1;" d="M 14.582031 7.105469 C 14.582031 4.933594 11.410156 3.171875 7.5 3.171875 C 3.589844 3.171875 0.417969 4.933594 0.417969 7.105469 C 0.417969 9.28125 3.589844 11.042969 7.5 11.042969 C 11.410156 11.042969 14.582031 9.28125 14.582031 7.105469 Z M 14.582031 7.105469 "/>
<path style=" stroke:none;fill-rule:nonzero;fill:rgb(90.196078%,91.372549%,91.764706%);fill-opacity:1;" d="M 7.5 10.417969 C 5 10.417969 0.832031 9.167969 0.832031 7.082031 C 0.832031 4.582031 3.386719 1.667969 7.5 1.667969 C 11.613281 1.667969 14.167969 5 14.167969 7.082031 C 14.167969 9.167969 10.417969 10.417969 7.5 10.417969 Z M 7.5 10.417969 "/>
<path style=" stroke:none;fill-rule:nonzero;fill:rgb(80%,83.921569%,86.666667%);fill-opacity:1;" d="M 6.421875 8.289062 C 6.59375 8.4375 6.617188 8.703125 6.464844 8.875 C 6.316406 9.050781 6.054688 9.070312 5.878906 8.921875 L 5.246094 8.378906 C 5.070312 8.230469 5.050781 7.964844 5.199219 7.789062 C 5.351562 7.617188 5.613281 7.597656 5.789062 7.746094 Z M 3.035156 7.660156 C 2.90625 7.851562 2.648438 7.90625 2.457031 7.777344 C 2.265625 7.652344 2.210938 7.394531 2.339844 7.199219 L 2.796875 6.503906 C 2.925781 6.3125 3.183594 6.261719 3.375 6.386719 C 3.566406 6.515625 3.621094 6.773438 3.496094 6.964844 Z M 12.617188 7.660156 C 12.492188 7.851562 12.230469 7.90625 12.039062 7.777344 C 11.847656 7.652344 11.796875 7.394531 11.921875 7.199219 L 12.382812 6.503906 C 12.507812 6.3125 12.769531 6.261719 12.960938 6.386719 C 13.152344 6.515625 13.203125 6.773438 13.078125 6.964844 Z M 10.074219 6.15625 C 10.121094 6.382812 9.976562 6.601562 9.75 6.648438 C 9.523438 6.695312 9.304688 6.550781 9.257812 6.324219 L 9.09375 5.507812 C 9.046875 5.28125 9.191406 5.0625 9.417969 5.015625 C 9.640625 4.96875 9.863281 5.117188 9.910156 5.339844 Z M 6.933594 4.507812 C 6.789062 4.449219 6.71875 4.285156 6.777344 4.140625 C 6.835938 4 7 3.929688 7.144531 3.988281 L 7.664062 4.199219 C 7.808594 4.257812 7.878906 4.421875 7.820312 4.566406 C 7.761719 4.710938 7.597656 4.777344 7.453125 4.71875 Z M 3.058594 5.160156 C 2.933594 5.25 2.757812 5.21875 2.667969 5.089844 C 2.582031 4.960938 2.613281 4.785156 2.742188 4.699219 L 3.207031 4.378906 C 3.332031 4.292969 3.507812 4.324219 3.597656 4.453125 C 3.683594 4.582031 3.652344 4.757812 3.523438 4.84375 Z M 8.722656 8.722656 C 8.496094 8.707031 8.320312 8.507812 8.335938 8.277344 C 8.351562 8.050781 8.546875 7.875 8.777344 7.890625 L 9.609375 7.945312 C 9.839844 7.960938 10.011719 8.15625 10 8.386719 C 9.984375 8.617188 9.785156 8.792969 9.554688 8.777344 Z M 4.875 6.0625 C 4.660156 5.972656 4.558594 5.730469 4.644531 5.519531 C 4.730469 5.304688 4.976562 5.203125 5.1875 5.289062 L 5.960938 5.605469 C 6.171875 5.691406 6.277344 5.933594 6.1875 6.148438 C 6.101562 6.359375 5.859375 6.460938 5.644531 6.375 Z M 11.515625 4.925781 C 11.371094 4.867188 11.304688 4.703125 11.363281 4.558594 C 11.421875 4.414062 11.585938 4.347656 11.730469 4.40625 L 12.25 4.617188 C 12.394531 4.675781 12.460938 4.839844 12.402344 4.984375 C 12.34375 5.125 12.179688 5.195312 12.035156 5.136719 Z M 11.515625 4.925781 "/>
</g>
</svg>
