<?xml version="1.0" encoding="UTF-8"?>
<svg xmlns="http://www.w3.org/2000/svg" xmlns:xlink="http://www.w3.org/1999/xlink" width="15pt" height="15pt" viewBox="0 0 15 15" version="1.1">
<g id="surface1">
<path style=" stroke:none;fill-rule:nonzero;fill:rgb(75.686275%,41.176471%,30.980392%);fill-opacity:1;" d="M 14.582031 7.5 C 14.582031 11.410156 11.410156 14.582031 7.5 14.582031 C 3.589844 14.582031 0.417969 11.410156 0.417969 7.5 C 0.417969 3.589844 3.589844 0.417969 7.5 0.417969 C 11.410156 0.417969 14.582031 3.589844 14.582031 7.5 Z M 14.582031 7.5 "/>
<path style=" stroke:none;fill-rule:nonzero;fill:rgb(88.627451%,57.647059%,52.54902%);fill-opacity:1;" d="M 11.359375 11.515625 C 11.164062 11.648438 10.902344 11.601562 10.773438 11.40625 C 10.640625 11.214844 10.6875 10.953125 10.878906 10.820312 L 11.578125 10.34375 C 11.769531 10.214844 12.03125 10.261719 12.160156 10.453125 C 12.292969 10.648438 12.246094 10.910156 12.050781 11.039062 Z M 12.375 8.5625 C 12.160156 8.476562 12.058594 8.230469 12.144531 8.019531 C 12.230469 7.804688 12.476562 7.703125 12.6875 7.789062 L 13.460938 8.105469 C 13.671875 8.191406 13.773438 8.433594 13.6875 8.648438 C 13.601562 8.859375 13.359375 8.964844 13.144531 8.875 Z M 10.5 6.371094 C 10.285156 6.285156 10.179688 6.039062 10.269531 5.820312 C 10.355469 5.605469 10.601562 5.503906 10.816406 5.589844 L 11.597656 5.910156 C 11.8125 5.996094 11.917969 6.242188 11.828125 6.457031 C 11.742188 6.671875 11.496094 6.777344 11.28125 6.6875 Z M 1.75 9.289062 C 1.535156 9.199219 1.429688 8.953125 1.519531 8.738281 C 1.605469 8.523438 1.851562 8.417969 2.066406 8.507812 L 2.847656 8.824219 C 3.066406 8.914062 3.167969 9.160156 3.082031 9.375 C 2.992188 9.589844 2.746094 9.695312 2.53125 9.605469 Z M 3.234375 6.726562 C 3.039062 6.859375 2.777344 6.808594 2.648438 6.617188 C 2.515625 6.425781 2.5625 6.160156 2.753906 6.03125 L 3.453125 5.554688 C 3.644531 5.421875 3.90625 5.472656 4.035156 5.664062 C 4.167969 5.855469 4.121094 6.117188 3.925781 6.25 Z M 6.996094 8.285156 C 6.675781 8.152344 6.519531 7.789062 6.652344 7.46875 C 6.78125 7.148438 7.144531 6.996094 7.464844 7.125 L 8.625 7.597656 C 8.941406 7.726562 9.097656 8.09375 8.964844 8.410156 C 8.835938 8.730469 8.472656 8.886719 8.152344 8.753906 Z M 4.417969 10.804688 C 4.636719 10.722656 4.878906 10.832031 4.960938 11.050781 C 5.042969 11.265625 4.933594 11.511719 4.714844 11.59375 L 3.929688 11.894531 C 3.710938 11.976562 3.46875 11.867188 3.386719 11.648438 C 3.300781 11.429688 3.410156 11.1875 3.628906 11.105469 Z M 4.417969 10.804688 "/>
<path style=" stroke:none;fill-rule:nonzero;fill:rgb(16.078431%,18.431373%,20%);fill-opacity:1;" d="M 10 7.917969 L 5 7.917969 C 4.539062 7.917969 4.167969 8.289062 4.167969 8.75 L 4.167969 13.75 C 5.160156 14.28125 6.292969 14.582031 7.5 14.582031 C 8.707031 14.582031 9.839844 14.28125 10.832031 13.75 L 10.832031 8.75 C 10.832031 8.289062 10.460938 7.917969 10 7.917969 Z M 10 7.917969 "/>
</g>
</svg>
