<?xml version="1.0" encoding="UTF-8"?>
<svg xmlns="http://www.w3.org/2000/svg" xmlns:xlink="http://www.w3.org/1999/xlink" width="15pt" height="15pt" viewBox="0 0 15 15" version="1.1">
<g id="surface1">
<path style=" stroke:none;fill-rule:nonzero;fill:rgb(36.078431%,56.862745%,23.137255%);fill-opacity:1;" d="M 0.441406 2.136719 C 0.441406 2.136719 2.472656 0.0507812 4.609375 0.0507812 C 7.160156 0.0507812 7.917969 2.109375 7.917969 2.109375 C 7.917969 2.109375 8.175781 0.441406 10 0.441406 C 11.824219 0.441406 12.890625 1.746094 12.890625 1.746094 C 12.890625 1.746094 11.40625 2.628906 10.964844 2.8125 C 9.796875 3.292969 6.222656 4.296875 4.558594 3.878906 C 2.890625 3.464844 0.441406 2.136719 0.441406 2.136719 Z M 0.441406 2.136719 "/>
<path style=" stroke:none;fill-rule:nonzero;fill:rgb(100%,53.333333%,42.352941%);fill-opacity:1;" d="M 7.5 2.5 C 7.5 2.5 7.933594 2.125 10 2.125 C 12.726562 2.125 15 4.132812 15 7.511719 C 15 12.316406 8.765625 14.964844 8.765625 14.964844 C 8.765625 14.964844 0.417969 14.515625 0.417969 7.492188 C 0.417969 3.339844 3.230469 2.082031 5 2.082031 C 7.066406 2.082031 7.5 2.5 7.5 2.5 Z M 7.5 2.5 "/>
<path style=" stroke:none;fill-rule:nonzero;fill:rgb(46.666667%,69.803922%,33.333333%);fill-opacity:1;" d="M 0.441406 2.136719 C 0.441406 2.136719 2.472656 0.0507812 4.609375 0.0507812 C 7.160156 0.0507812 7.917969 2.109375 7.917969 2.109375 C 7.917969 2.109375 6.222656 4.296875 4.558594 3.878906 C 2.890625 3.464844 0.441406 2.136719 0.441406 2.136719 Z M 0.441406 2.136719 "/>
<path style=" stroke:none;fill-rule:nonzero;fill:rgb(86.666667%,18.039216%,26.666667%);fill-opacity:1;" d="M 9.582031 12.5 C 9.503906 12.5 9.421875 12.476562 9.351562 12.429688 C 9.160156 12.300781 9.109375 12.042969 9.238281 11.851562 C 9.242188 11.84375 10 10.640625 10 7.917969 C 10 5.230469 8.09375 3.675781 8.074219 3.660156 C 7.894531 3.515625 7.863281 3.253906 8.007812 3.074219 C 8.152344 2.894531 8.414062 2.863281 8.59375 3.007812 C 8.683594 3.082031 10.832031 4.835938 10.832031 7.917969 C 10.832031 10.925781 9.96875 12.257812 9.929688 12.316406 C 9.851562 12.433594 9.71875 12.5 9.582031 12.5 Z M 9.582031 12.5 "/>
</g>
</svg>
