<?xml version="1.0" encoding="UTF-8"?>
<svg xmlns="http://www.w3.org/2000/svg" xmlns:xlink="http://www.w3.org/1999/xlink" width="15pt" height="15pt" viewBox="0 0 15 15" version="1.1">
<g id="surface1">
<path style=" stroke:none;fill-rule:nonzero;fill:rgb(80%,83.921569%,86.666667%);fill-opacity:1;" d="M 7.5 15 C 1.265625 15 0.417969 9.167969 0.417969 7.5 L 14.582031 7.5 C 14.582031 8.332031 13.765625 15 7.5 15 Z M 7.5 15 "/>
<path style=" stroke:none;fill-rule:nonzero;fill:rgb(60%,66.666667%,70.980392%);fill-opacity:1;" d="M 14.582031 7.105469 C 14.582031 9.28125 11.410156 11.042969 7.5 11.042969 C 3.589844 11.042969 0.417969 9.28125 0.417969 7.105469 C 0.417969 4.933594 3.589844 3.589844 7.5 3.589844 C 11.410156 3.589844 14.582031 4.933594 14.582031 7.105469 Z M 14.582031 7.105469 "/>
<path style=" stroke:none;fill-rule:nonzero;fill:rgb(91.764706%,34.901961%,43.137255%);fill-opacity:1;" d="M 8.125 13.75 L 7.082031 13.75 C 6.96875 13.75 6.875 13.65625 6.875 13.542969 C 6.875 13.425781 6.96875 13.332031 7.082031 13.332031 L 7.917969 13.332031 L 7.917969 12.082031 L 6.25 12.082031 L 6.25 12.5 L 7.5 12.5 C 7.613281 12.5 7.707031 12.59375 7.707031 12.707031 C 7.707031 12.824219 7.613281 12.917969 7.5 12.917969 L 6.042969 12.917969 C 5.925781 12.917969 5.832031 12.824219 5.832031 12.707031 L 5.832031 11.875 C 5.832031 11.761719 5.925781 11.667969 6.042969 11.667969 L 8.125 11.667969 C 8.238281 11.667969 8.332031 11.761719 8.332031 11.875 L 8.332031 13.542969 C 8.332031 13.65625 8.238281 13.75 8.125 13.75 Z M 10.417969 13.332031 C 10.335938 13.332031 10.253906 13.285156 10.222656 13.203125 C 10.179688 13.09375 10.230469 12.972656 10.339844 12.933594 L 11.246094 12.570312 L 11.21875 11.632812 L 9.582031 12.039062 L 9.582031 12.433594 C 9.890625 12.347656 10.398438 12.203125 10.773438 12.09375 C 10.882812 12.058594 11 12.121094 11.03125 12.234375 C 11.066406 12.34375 11.003906 12.460938 10.890625 12.492188 C 10.316406 12.660156 9.429688 12.910156 9.429688 12.910156 C 9.367188 12.925781 9.300781 12.914062 9.25 12.875 C 9.195312 12.835938 9.167969 12.773438 9.167969 12.707031 L 9.167969 11.875 C 9.167969 11.78125 9.230469 11.695312 9.324219 11.671875 L 11.371094 11.164062 C 11.429688 11.148438 11.496094 11.164062 11.546875 11.203125 C 11.59375 11.238281 11.625 11.296875 11.628906 11.359375 L 11.667969 12.703125 C 11.667969 12.789062 11.617188 12.871094 11.535156 12.902344 L 10.492188 13.316406 C 10.46875 13.328125 10.441406 13.332031 10.417969 13.332031 Z M 12.320312 12.203125 C 12.277344 12.203125 12.238281 12.191406 12.203125 12.171875 C 12.136719 12.132812 12.082031 12.042969 12.082031 11.964844 L 12.082031 10.898438 C 12.082031 10.820312 12.125 10.75 12.195312 10.714844 C 12.441406 10.585938 12.726562 10.414062 12.960938 10.273438 C 13.121094 10.175781 13.257812 10.09375 13.339844 10.050781 C 13.402344 10.019531 13.476562 10.019531 13.539062 10.050781 C 13.597656 10.085938 13.640625 10.148438 13.644531 10.21875 C 13.660156 10.402344 13.597656 10.863281 13.585938 10.953125 C 13.578125 11.015625 13.539062 11.074219 13.484375 11.105469 L 12.980469 11.394531 C 12.882812 11.449219 12.753906 11.414062 12.695312 11.316406 C 12.640625 11.214844 12.675781 11.089844 12.773438 11.03125 L 13.183594 10.796875 C 13.191406 10.738281 13.199219 10.671875 13.207031 10.609375 L 13.171875 10.628906 C 12.96875 10.753906 12.722656 10.898438 12.5 11.023438 L 12.5 11.699219 C 12.570312 11.660156 12.667969 11.605469 12.800781 11.523438 L 12.941406 11.679688 L 13.023438 11.875 C 12.625 12.121094 12.441406 12.203125 12.320312 12.203125 Z M 4.949219 13.449219 C 4.925781 13.449219 4.90625 13.445312 4.882812 13.441406 L 3.542969 13.011719 C 3.433594 12.976562 3.375 12.859375 3.410156 12.75 C 3.441406 12.640625 3.5625 12.582031 3.671875 12.613281 L 4.746094 12.960938 L 4.773438 11.976562 L 3.585938 11.628906 L 3.574219 11.933594 L 4.234375 12.160156 C 4.34375 12.195312 4.402344 12.3125 4.363281 12.421875 C 4.328125 12.53125 4.210938 12.589844 4.101562 12.554688 L 3.292969 12.28125 C 3.207031 12.25 3.148438 12.167969 3.152344 12.074219 L 3.175781 11.347656 C 3.179688 11.28125 3.210938 11.222656 3.261719 11.183594 C 3.316406 11.148438 3.382812 11.136719 3.445312 11.152344 L 5.046875 11.621094 C 5.136719 11.648438 5.199219 11.734375 5.195312 11.828125 L 5.15625 13.246094 C 5.152344 13.3125 5.121094 13.375 5.066406 13.410156 C 5.03125 13.4375 4.992188 13.449219 4.949219 13.449219 Z M 2.433594 12.292969 C 2.398438 12.292969 2.359375 12.28125 2.324219 12.261719 L 1.753906 11.910156 C 1.65625 11.847656 1.625 11.722656 1.683594 11.621094 C 1.746094 11.523438 1.871094 11.492188 1.972656 11.554688 L 2.222656 11.710938 L 2.222656 11.035156 L 1.667969 10.722656 L 1.667969 10.898438 L 1.976562 11.085938 C 2.074219 11.144531 2.105469 11.273438 2.046875 11.371094 C 1.988281 11.46875 1.859375 11.5 1.761719 11.441406 L 1.351562 11.195312 C 1.289062 11.15625 1.25 11.089844 1.25 11.015625 L 1.25 10.363281 C 1.25 10.289062 1.289062 10.222656 1.351562 10.183594 C 1.417969 10.148438 1.496094 10.148438 1.5625 10.183594 L 2.53125 10.730469 C 2.597656 10.765625 2.636719 10.835938 2.636719 10.910156 L 2.644531 12.082031 C 2.644531 12.15625 2.601562 12.226562 2.539062 12.265625 C 2.503906 12.28125 2.46875 12.292969 2.433594 12.292969 Z M 2.433594 12.292969 "/>
<path style=" stroke:none;fill-rule:nonzero;fill:rgb(100%,67.45098%,20%);fill-opacity:1;" d="M 13.75 7.5 C 13.75 5.890625 10.953125 4.582031 7.5 4.582031 C 4.046875 4.582031 1.25 5.890625 1.25 7.5 C 1.25 9.109375 4.046875 10.417969 7.5 10.417969 C 10.953125 10.417969 13.75 9.109375 13.75 7.5 Z M 13.75 7.5 "/>
<path style=" stroke:none;fill-rule:nonzero;fill:rgb(100%,85.098039%,51.372549%);fill-opacity:1;" d="M 9.167969 10 C 8.675781 10 8.28125 9.917969 8 9.757812 C 7.679688 9.574219 7.496094 9.28125 7.496094 8.953125 C 7.496094 8.179688 8.472656 7.5 9.582031 7.5 C 9.8125 7.5 10 7.6875 10 7.917969 C 10 8.148438 9.8125 8.332031 9.582031 8.332031 C 8.804688 8.332031 8.328125 8.761719 8.328125 8.953125 C 8.328125 8.984375 8.394531 9.023438 8.414062 9.03125 C 8.5 9.082031 8.714844 9.167969 9.167969 9.167969 C 10.167969 9.167969 11.25 8.53125 11.25 7.5 C 11.25 7.199219 10.859375 7.007812 10.691406 6.9375 C 9.847656 6.59375 8.484375 6.695312 7.796875 7.398438 C 7.195312 8.007812 6.21875 8.214844 5.175781 7.941406 C 4.535156 7.773438 3.792969 7.382812 3.632812 6.789062 C 3.550781 6.488281 3.636719 6.191406 3.871094 5.953125 C 4.828125 5 6.613281 5 7.917969 5 C 8.148438 5 8.332031 5.1875 8.332031 5.417969 C 8.332031 5.648438 8.148438 5.832031 7.917969 5.832031 C 6.757812 5.832031 5.171875 5.832031 4.460938 6.542969 C 4.441406 6.566406 4.433594 6.578125 4.433594 6.578125 C 4.445312 6.644531 4.671875 6.898438 5.1875 7.074219 C 5.84375 7.300781 6.71875 7.308594 7.203125 6.816406 C 8.167969 5.832031 9.894531 5.714844 11.007812 6.167969 C 11.691406 6.445312 12.082031 6.933594 12.082031 7.5 C 12.082031 9.042969 10.570312 10 9.167969 10 Z M 6.25 10 C 3.082031 10 2.082031 7.726562 2.082031 7.082031 C 2.082031 6.851562 2.269531 6.667969 2.5 6.667969 C 2.730469 6.667969 2.914062 6.851562 2.917969 7.082031 C 2.933594 7.359375 3.625 9.167969 6.25 9.167969 C 6.480469 9.167969 6.667969 9.351562 6.667969 9.582031 C 6.667969 9.8125 6.480469 10 6.25 10 Z M 6.25 10 "/>
<path style=" stroke:none;fill-rule:nonzero;fill:rgb(66.666667%,41.176471%,35.686275%);fill-opacity:1;" d="M 14.621094 1.273438 L 5.035156 1.640625 C 4.808594 1.660156 4.605469 1.492188 4.585938 1.261719 C 4.5625 1.035156 4.734375 0.832031 4.960938 0.8125 L 14.511719 0.0273438 C 14.738281 0.0078125 14.941406 0.175781 14.960938 0.40625 C 14.984375 0.632812 14.851562 1.25 14.621094 1.273438 Z M 14.582031 3.332031 L 5 2.917969 C 4.769531 2.917969 4.582031 2.730469 4.582031 2.5 C 4.582031 2.269531 4.769531 2.082031 5 2.082031 L 14.582031 2.082031 C 14.8125 2.082031 15 2.269531 15 2.5 C 15 2.730469 14.8125 3.332031 14.582031 3.332031 Z M 14.582031 3.332031 "/>
<path style=" stroke:none;fill-rule:nonzero;fill:rgb(100%,85.098039%,51.372549%);fill-opacity:1;" d="M 5.832031 6.25 C 5.601562 6.25 5.417969 6.0625 5.417969 5.832031 L 5.417969 0.832031 C 5.417969 0.601562 5.601562 0.417969 5.832031 0.417969 C 6.0625 0.417969 6.25 0.601562 6.25 0.832031 L 6.25 5.832031 C 6.25 6.0625 6.0625 6.25 5.832031 6.25 Z M 7.5 7.082031 C 7.269531 7.082031 7.082031 6.898438 7.082031 6.667969 L 7.082031 0.417969 C 7.082031 0.1875 7.269531 0 7.5 0 C 7.730469 0 7.917969 0.1875 7.917969 0.417969 L 7.917969 6.667969 C 7.917969 6.898438 7.730469 7.082031 7.5 7.082031 Z M 7.5 7.082031 "/>
</g>
</svg>
