<?xml version="1.0" encoding="UTF-8"?>
<svg xmlns="http://www.w3.org/2000/svg" xmlns:xlink="http://www.w3.org/1999/xlink" width="15pt" height="15pt" viewBox="0 0 15 15" version="1.1">
<g id="surface1">
<path style=" stroke:none;fill-rule:nonzero;fill:rgb(100%,85.098039%,51.372549%);fill-opacity:1;" d="M 5.839844 4.320312 L 3.40625 1.886719 C 3.757812 1.460938 3.742188 0.832031 3.34375 0.433594 C 2.921875 0.015625 2.238281 0.015625 1.816406 0.433594 C 1.558594 0.695312 1.460938 1.050781 1.519531 1.386719 C 1.183594 1.328125 0.828125 1.425781 0.566406 1.683594 C 0.148438 2.105469 0.148438 2.789062 0.566406 3.210938 C 0.964844 3.609375 1.59375 3.625 2.019531 3.273438 L 4.453125 5.707031 Z M 10.804688 9.285156 L 13.242188 11.722656 C 13.664062 11.367188 14.292969 11.386719 14.691406 11.785156 C 15.113281 12.203125 15.113281 12.886719 14.691406 13.308594 C 14.433594 13.566406 14.074219 13.664062 13.742188 13.609375 C 13.800781 13.941406 13.699219 14.300781 13.441406 14.558594 C 13.019531 14.980469 12.339844 14.980469 11.917969 14.558594 C 11.519531 14.160156 11.5 13.53125 11.855469 13.109375 L 9.417969 10.671875 Z M 10.804688 9.285156 "/>
<path style=" stroke:none;fill-rule:nonzero;fill:rgb(75.686275%,41.176471%,30.980392%);fill-opacity:1;" d="M 12.507812 6.617188 C 11.828125 5.9375 10.796875 5.972656 9.910156 5.089844 C 9.027344 4.207031 9.066406 3.171875 8.382812 2.492188 C 6.917969 1.027344 5.460938 1.878906 3.671875 3.671875 C 1.878906 5.460938 1.027344 6.917969 2.492188 8.382812 C 3.171875 9.0625 4.207031 9.027344 5.089844 9.910156 C 5.972656 10.792969 5.9375 11.828125 6.617188 12.507812 C 8.082031 13.972656 9.539062 13.121094 11.332031 11.328125 C 13.121094 9.539062 13.972656 8.082031 12.507812 6.617188 Z M 12.507812 6.617188 "/>
<path style=" stroke:none;fill-rule:nonzero;fill:rgb(40%,12.941176%,7.45098%);fill-opacity:1;" d="M 5.832031 9.582031 C 5.789062 9.582031 5.746094 9.578125 5.703125 9.5625 C 5.484375 9.488281 5.367188 9.253906 5.4375 9.035156 C 5.902344 7.648438 7.648438 5.898438 9.035156 5.4375 C 9.253906 5.363281 9.488281 5.484375 9.5625 5.703125 C 9.636719 5.917969 9.515625 6.15625 9.296875 6.226562 C 8.179688 6.601562 6.601562 8.179688 6.230469 9.296875 C 6.171875 9.472656 6.007812 9.582031 5.832031 9.582031 Z M 5.832031 9.582031 "/>
</g>
</svg>
