<?xml version="1.0" encoding="UTF-8"?>
<svg xmlns="http://www.w3.org/2000/svg" xmlns:xlink="http://www.w3.org/1999/xlink" width="15pt" height="15pt" viewBox="0 0 15 15" version="1.1">
<g id="surface1">
<path style=" stroke:none;fill-rule:nonzero;fill:rgb(85.098039%,61.960784%,50.980392%);fill-opacity:1;" d="M 15 5.625 C 15 3.726562 13.152344 2.179688 10.832031 2.09375 L 10.832031 2.082031 L 4.167969 2.082031 L 4.167969 2.09375 C 1.847656 2.179688 0 3.726562 0 5.625 C 0 6.402344 0.3125 7.113281 0.832031 7.699219 L 0.832031 12.917969 C 0.832031 13.835938 1.578125 14.582031 2.5 14.582031 L 12.5 14.582031 C 13.421875 14.582031 14.167969 13.835938 14.167969 12.917969 L 14.167969 7.699219 C 14.6875 7.113281 15 6.402344 15 5.625 Z M 15 5.625 "/>
<path style=" stroke:none;fill-rule:nonzero;fill:rgb(80%,57.254902%,47.843137%);fill-opacity:1;" d="M 7.917969 7.699219 L 14.167969 7.699219 L 14.167969 8.324219 L 7.917969 8.324219 Z M 7.917969 7.699219 "/>
<path style=" stroke:none;fill-rule:nonzero;fill:rgb(100%,90.980392%,71.372549%);fill-opacity:1;" d="M 8.75 5.625 C 8.75 4.183594 7.277344 3.003906 5.417969 2.921875 C 5.347656 2.917969 4.445312 2.917969 4.375 2.917969 C 2.417969 2.917969 0.832031 4.128906 0.832031 5.625 C 0.832031 6.289062 1.148438 6.898438 1.667969 7.367188 L 1.667969 12.5 C 1.667969 13.191406 2.226562 13.75 2.917969 13.75 L 6.667969 13.75 C 7.355469 13.75 7.917969 13.191406 7.917969 12.5 L 7.917969 7.367188 C 8.433594 6.894531 8.75 6.289062 8.75 5.625 Z M 8.75 5.625 "/>
</g>
</svg>
