<?xml version="1.0" encoding="UTF-8"?>
<svg xmlns="http://www.w3.org/2000/svg" xmlns:xlink="http://www.w3.org/1999/xlink" width="15pt" height="15pt" viewBox="0 0 15 15" version="1.1">
<g id="surface1">
<path style=" stroke:none;fill-rule:nonzero;fill:rgb(100%,85.098039%,51.372549%);fill-opacity:1;" d="M 5.839844 4.320312 L 3.40625 1.886719 C 3.757812 1.460938 3.742188 0.832031 3.34375 0.433594 C 2.921875 0.015625 2.238281 0.015625 1.816406 0.433594 C 1.558594 0.695312 1.460938 1.050781 1.519531 1.386719 C 1.183594 1.328125 0.828125 1.425781 0.566406 1.683594 C 0.148438 2.105469 0.148438 2.789062 0.566406 3.210938 C 0.964844 3.609375 1.59375 3.625 2.019531 3.273438 L 4.453125 5.707031 Z M 5.839844 4.320312 "/>
<path style=" stroke:none;fill-rule:nonzero;fill:rgb(75.686275%,41.176471%,30.980392%);fill-opacity:1;" d="M 13.730469 13.597656 C 14.425781 12.90625 16.179688 9.925781 13.75 7.5 C 12.058594 5.808594 10.695312 5.90625 8.160156 5.277344 C 7.121094 4.929688 5.765625 3.679688 5.417969 3.332031 C 5.070312 3.679688 5.191406 4.945312 5.191406 4.945312 C 5.191406 4.945312 3.679688 5.070312 3.332031 5.417969 C 3.679688 5.765625 5.292969 7.285156 5.574219 8.003906 C 6.332031 10.410156 6.246094 11.632812 7.9375 13.324219 C 10.710938 16.097656 13.039062 14.292969 13.730469 13.597656 Z M 13.730469 13.597656 "/>
</g>
</svg>
