<?xml version="1.0" encoding="UTF-8"?>
<svg xmlns="http://www.w3.org/2000/svg" xmlns:xlink="http://www.w3.org/1999/xlink" width="15pt" height="15pt" viewBox="0 0 15 15" version="1.1">
<g id="surface1">
<path style=" stroke:none;fill-rule:nonzero;fill:rgb(65.098039%,82.745098%,53.333333%);fill-opacity:1;" d="M 3.199219 3.789062 C 3.863281 2.476562 6.40625 2.992188 8.183594 4.695312 C 9.308594 5.773438 11.539062 5.320312 12.972656 6.695312 C 14.429688 8.09375 14.332031 10.597656 11.703125 13.265625 C 9.582031 15.417969 6.667969 15.417969 4.929688 13.910156 C 3.101562 12.320312 3.898438 10.324219 3.09375 8.25 C 2.285156 6.175781 1.292969 3.90625 3.199219 3.789062 Z M 3.199219 3.789062 "/>
<path style=" stroke:none;fill-rule:nonzero;fill:rgb(40%,12.941176%,7.45098%);fill-opacity:1;" d="M 3.40625 3.972656 C 3.226562 4.160156 2.941406 4.175781 2.769531 4.011719 C 1.433594 2.726562 1.140625 0.867188 1.128906 0.769531 C 1.097656 0.527344 1.273438 0.289062 1.519531 0.238281 C 1.765625 0.1875 1.988281 0.347656 2.019531 0.589844 C 2.023438 0.609375 2.292969 2.253906 3.421875 3.335938 C 3.59375 3.5 3.585938 3.785156 3.40625 3.972656 Z M 3.40625 3.972656 "/>
</g>
</svg>
