<?xml version="1.0" encoding="UTF-8"?>
<svg xmlns="http://www.w3.org/2000/svg" xmlns:xlink="http://www.w3.org/1999/xlink" width="15pt" height="15pt" viewBox="0 0 15 15" version="1.1">
<g id="surface1">
<path style=" stroke:none;fill-rule:nonzero;fill:rgb(74.509804%,9.803922%,19.215686%);fill-opacity:1;" d="M 7.5 0.832031 C 4.046875 0.832031 1.25 2.703125 1.25 6.042969 C 1.25 6.066406 1.273438 6.359375 1.300781 6.671875 C 1.414062 6.664062 7.5 11.667969 7.5 11.667969 C 7.5 11.667969 13.585938 6.664062 13.695312 6.671875 C 13.71875 6.464844 13.75 6.074219 13.75 6.042969 C 13.75 2.703125 10.953125 0.832031 7.5 0.832031 Z M 7.5 0.832031 "/>
<path style=" stroke:none;fill-rule:nonzero;fill:rgb(95.686275%,56.470588%,4.705882%);fill-opacity:1;" d="M 12.570312 4.796875 C 12.429688 4.78125 12.296875 4.8125 12.1875 4.878906 C 12.183594 4.695312 12.160156 4.539062 12.101562 4.417969 L 12.257812 3.945312 C 12.367188 3.621094 12.191406 3.265625 11.863281 3.15625 C 11.71875 3.105469 11.566406 3.117188 11.433594 3.171875 C 11.355469 2.871094 11.066406 2.667969 10.75 2.714844 C 10.699219 2.71875 10.648438 2.734375 10.605469 2.753906 C 10.539062 2.519531 10.339844 2.332031 10.085938 2.296875 C 9.738281 2.25 9.425781 2.488281 9.378906 2.832031 L 9.25 3.792969 C 9.125 3.628906 8.925781 3.523438 8.707031 3.542969 C 8.4375 3.5625 8.222656 3.746094 8.152344 3.992188 L 8.121094 3.6875 C 8.085938 3.34375 7.777344 3.09375 7.4375 3.128906 C 7.097656 3.160156 6.847656 3.460938 6.878906 3.800781 L 6.871094 3.804688 C 6.890625 3.585938 6.792969 3.371094 6.621094 3.246094 L 6.445312 2.378906 C 6.378906 2.039062 6.050781 1.816406 5.710938 1.886719 C 5.371094 1.953125 5.152344 2.285156 5.21875 2.621094 L 5.519531 4.117188 L 5.359375 4.785156 L 4.753906 3.121094 C 4.636719 2.796875 4.277344 2.628906 3.953125 2.746094 C 3.628906 2.863281 3.460938 3.222656 3.578125 3.546875 L 4.039062 4.816406 C 3.898438 4.914062 3.792969 5.070312 3.773438 5.257812 L 3.667969 6.132812 L 3.535156 5.3125 C 3.476562 4.972656 3.152344 4.742188 2.8125 4.800781 C 2.472656 4.855469 2.242188 5.179688 2.300781 5.519531 L 2.945312 9.394531 L 12.65625 9.394531 C 12.675781 9.34375 13.121094 5.484375 13.121094 5.484375 C 13.160156 5.140625 12.910156 4.832031 12.570312 4.796875 Z M 12.570312 4.796875 "/>
<path style=" stroke:none;fill-rule:nonzero;fill:rgb(100%,80%,30.196078%);fill-opacity:1;" d="M 11.453125 3.25 C 11.449219 3.222656 11.441406 3.199219 11.433594 3.171875 C 11.355469 2.871094 11.066406 2.667969 10.75 2.714844 C 10.699219 2.722656 10.648438 2.734375 10.605469 2.753906 C 10.34375 2.855469 10.175781 3.125 10.214844 3.417969 L 11.027344 9.394531 L 12.289062 9.394531 Z M 9.375 4.121094 C 9.363281 4 9.320312 3.886719 9.25 3.792969 C 9.125 3.628906 8.925781 3.527344 8.707031 3.542969 C 8.4375 3.5625 8.222656 3.746094 8.152344 3.992188 C 8.132812 4.058594 8.121094 4.132812 8.125 4.210938 L 8.492188 9.339844 L 8.496094 9.394531 L 9.75 9.394531 L 9.75 9.382812 Z M 4.464844 4.707031 C 4.308594 4.691406 4.160156 4.734375 4.039062 4.816406 C 3.898438 4.914062 3.792969 5.070312 3.773438 5.257812 L 3.289062 9.394531 L 4.546875 9.394531 L 5.011719 5.402344 C 5.054688 5.058594 4.808594 4.75 4.464844 4.707031 Z M 6.445312 2.378906 C 6.378906 2.039062 6.050781 1.820312 5.710938 1.886719 C 5.371094 1.953125 5.152344 2.285156 5.21875 2.621094 L 6.574219 9.394531 L 7.847656 9.394531 Z M 6.445312 2.378906 "/>
<path style=" stroke:none;fill-rule:nonzero;fill:rgb(86.666667%,18.039216%,26.666667%);fill-opacity:1;" d="M 12.082031 7.082031 C 12.082031 8.234375 10.261719 9.167969 7.5 9.167969 C 4.738281 9.167969 2.917969 8.234375 2.917969 7.082031 C 2.917969 6.625 2.125 6.667969 1.667969 6.667969 C 1.535156 6.667969 1.414062 6.664062 1.300781 6.671875 C 1.328125 6.933594 2.082031 12.917969 2.082031 12.917969 C 2.082031 13.835938 2.828125 14.582031 3.75 14.582031 L 11.25 14.582031 C 12.171875 14.582031 12.917969 13.835938 12.917969 12.917969 C 12.917969 12.917969 13.691406 6.722656 13.695312 6.671875 C 13.585938 6.664062 13.464844 6.667969 13.332031 6.667969 C 12.875 6.667969 12.082031 6.625 12.082031 7.082031 Z M 12.082031 7.082031 "/>
<path style=" stroke:none;fill-rule:nonzero;fill:rgb(74.509804%,9.803922%,19.215686%);fill-opacity:1;" d="M 9.167969 11.667969 C 9.167969 12.585938 8.421875 13.332031 7.5 13.332031 C 6.578125 13.332031 5.832031 12.585938 5.832031 11.667969 C 5.832031 10.746094 6.578125 10 7.5 10 C 8.421875 10 9.167969 10.746094 9.167969 11.667969 Z M 9.167969 11.667969 "/>
</g>
</svg>
