<?xml version="1.0" encoding="UTF-8"?>
<svg xmlns="http://www.w3.org/2000/svg" xmlns:xlink="http://www.w3.org/1999/xlink" width="15pt" height="15pt" viewBox="0 0 15 15" version="1.1">
<g id="surface1">
<path style=" stroke:none;fill-rule:nonzero;fill:rgb(33.333333%,67.45098%,93.333333%);fill-opacity:1;" d="M 6.988281 9.167969 L 1.585938 9.167969 C 1.585938 9.167969 2.523438 12.144531 3.996094 13.578125 C 5 14.550781 6.6875 14.628906 7.285156 14.628906 C 8.488281 14.628906 10.015625 14.546875 11.019531 13.570312 C 12.769531 11.871094 13.589844 9.167969 13.589844 9.167969 Z M 6.988281 9.167969 "/>
<path style=" stroke:none;fill-rule:nonzero;fill:rgb(23.137255%,53.333333%,76.470588%);fill-opacity:1;" d="M 12.953125 10.742188 C 13.214844 10.199219 13.390625 9.738281 13.492188 9.457031 C 13.433594 9.355469 13.351562 9.257812 13.246094 9.167969 L 1.929688 9.167969 C 1.824219 9.257812 1.738281 9.355469 1.683594 9.457031 C 1.78125 9.734375 1.957031 10.195312 2.1875 10.722656 C 3.058594 11.351562 4.863281 11.855469 7.585938 11.855469 C 10.28125 11.855469 12.074219 11.359375 12.953125 10.742188 Z M 12.953125 10.742188 "/>
<path style=" stroke:none;fill-rule:nonzero;fill:rgb(33.333333%,67.45098%,93.333333%);fill-opacity:1;" d="M 0.832031 7.082031 L 0.832031 8.9375 C 0.832031 9.90625 3.855469 10.6875 7.5 10.6875 C 11.144531 10.6875 14.167969 9.90625 14.167969 8.9375 L 14.167969 7.082031 Z M 0.832031 7.082031 "/>
<path style=" stroke:none;fill-rule:nonzero;fill:rgb(97.647059%,82.352941%,86.27451%);fill-opacity:1;" d="M 1.605469 8.035156 C 1.984375 8.171875 4.394531 9.027344 7.441406 9.027344 C 10.867188 9.027344 13.378906 8.28125 13.953125 7.871094 C 14.527344 7.457031 14.507812 3.871094 11.890625 2.492188 C 9.652344 1.3125 9.589844 0.152344 7.460938 0.152344 C 4.269531 0.152344 -1.375 6.9375 1.605469 8.035156 Z M 1.605469 8.035156 "/>
<path style=" stroke:none;fill-rule:nonzero;fill:rgb(97.647059%,50.196078%,59.215686%);fill-opacity:1;" d="M 4.9375 4.902344 C 6.148438 6.527344 8.886719 5.636719 10.058594 4.496094 C 11.011719 3.570312 12.214844 3.816406 13.582031 4.171875 C 13.207031 3.511719 12.664062 2.902344 11.886719 2.492188 C 9.652344 1.3125 9.589844 0.15625 7.457031 0.15625 C 5.769531 0.15625 3.402344 2.050781 1.980469 4 C 2.769531 3.742188 3.980469 3.625 4.9375 4.902344 Z M 4.9375 4.902344 "/>
<path style=" stroke:none;fill-rule:nonzero;fill:rgb(91.764706%,34.901961%,43.137255%);fill-opacity:1;" d="M 5.417969 2.917969 C 5.417969 3.148438 5.230469 3.332031 5 3.332031 C 4.769531 3.332031 4.582031 3.148438 4.582031 2.917969 C 4.582031 2.6875 4.769531 2.5 5 2.5 C 5.230469 2.5 5.417969 2.6875 5.417969 2.917969 Z M 5.417969 2.917969 "/>
<path style=" stroke:none;fill-rule:nonzero;fill:rgb(91.764706%,34.901961%,43.137255%);fill-opacity:1;" d="M 7.917969 4.167969 C 7.917969 4.398438 7.730469 4.582031 7.5 4.582031 C 7.269531 4.582031 7.082031 4.398438 7.082031 4.167969 C 7.082031 3.9375 7.269531 3.75 7.5 3.75 C 7.730469 3.75 7.917969 3.9375 7.917969 4.167969 Z M 7.917969 4.167969 "/>
<path style=" stroke:none;fill-rule:nonzero;fill:rgb(91.764706%,34.901961%,43.137255%);fill-opacity:1;" d="M 9.582031 2.082031 C 9.582031 2.3125 9.398438 2.5 9.167969 2.5 C 8.9375 2.5 8.75 2.3125 8.75 2.082031 C 8.75 1.851562 8.9375 1.667969 9.167969 1.667969 C 9.398438 1.667969 9.582031 1.851562 9.582031 2.082031 Z M 9.582031 2.082031 "/>
</g>
</svg>
