<?xml version="1.0" encoding="UTF-8"?>
<svg xmlns="http://www.w3.org/2000/svg" xmlns:xlink="http://www.w3.org/1999/xlink" width="15pt" height="15pt" viewBox="0 0 15 15" version="1.1">
<g id="surface1">
<path style=" stroke:none;fill-rule:nonzero;fill:rgb(88.235294%,90.980392%,92.941176%);fill-opacity:1;" d="M 9.265625 14.859375 C 9.089844 14.859375 8.917969 14.808594 8.773438 14.707031 L 7.539062 13.871094 L 6.304688 14.707031 C 6.160156 14.808594 5.988281 14.859375 5.8125 14.859375 C 5.734375 14.859375 5.660156 14.847656 5.585938 14.828125 C 5.339844 14.765625 5.132812 14.59375 5.023438 14.367188 L 4.304688 13.367188 L 2.886719 13.132812 C 2.867188 13.132812 2.84375 13.132812 2.824219 13.132812 C 2.589844 13.132812 2.367188 13.042969 2.203125 12.875 C 2.023438 12.695312 1.929688 12.445312 1.945312 12.191406 L 2.054688 10.707031 L 0.714844 10.054688 C 0.484375 9.945312 0.3125 9.738281 0.25 9.492188 C 0.183594 9.246094 0.226562 8.984375 0.371094 8.773438 L 0.847656 7.550781 L 0.371094 6.304688 C 0.226562 6.09375 0.183594 5.832031 0.25 5.585938 C 0.316406 5.339844 0.484375 5.132812 0.714844 5.023438 L 2.054688 4.371094 L 1.945312 2.886719 C 1.929688 2.632812 2.023438 2.382812 2.203125 2.203125 C 2.367188 2.039062 2.589844 1.945312 2.824219 1.945312 C 2.84375 1.945312 2.867188 1.945312 2.886719 1.945312 L 4.253906 1.734375 L 5.023438 0.714844 C 5.132812 0.484375 5.339844 0.316406 5.585938 0.25 C 5.660156 0.230469 5.738281 0.21875 5.8125 0.21875 C 5.988281 0.21875 6.160156 0.269531 6.308594 0.371094 L 7.539062 1.207031 L 8.773438 0.371094 C 8.917969 0.269531 9.089844 0.21875 9.265625 0.21875 C 9.339844 0.21875 9.417969 0.230469 9.492188 0.25 C 9.738281 0.316406 9.945312 0.484375 10.058594 0.714844 L 10.832031 1.683594 L 12.191406 1.945312 C 12.210938 1.945312 12.234375 1.945312 12.253906 1.945312 C 12.488281 1.945312 12.710938 2.039062 12.875 2.203125 C 13.054688 2.382812 13.148438 2.632812 13.132812 2.886719 L 13.023438 4.371094 L 14.367188 5.023438 C 14.59375 5.132812 14.765625 5.339844 14.828125 5.585938 C 14.894531 5.832031 14.851562 6.09375 14.707031 6.304688 L 14.324219 7.519531 L 14.707031 8.773438 C 14.851562 8.984375 14.894531 9.246094 14.828125 9.492188 C 14.765625 9.738281 14.59375 9.945312 14.367188 10.058594 L 13.023438 10.707031 L 13.132812 12.191406 C 13.148438 12.445312 13.054688 12.695312 12.875 12.878906 C 12.710938 13.042969 12.488281 13.132812 12.253906 13.132812 C 12.234375 13.132812 12.210938 13.132812 12.191406 13.132812 L 10.851562 13.351562 L 10.054688 14.367188 C 9.945312 14.59375 9.738281 14.765625 9.492188 14.828125 C 9.417969 14.851562 9.339844 14.859375 9.265625 14.859375 Z M 9.265625 14.859375 "/>
<path style=" stroke:none;fill-rule:nonzero;fill:rgb(82.745098%,44.705882%,72.156863%);fill-opacity:1;" d="M 7.707031 11.960938 C 6.164062 11.980469 4.304688 10.765625 4.460938 8.472656 C 4.515625 7.660156 4.839844 6.898438 5.4375 6.34375 C 6.496094 5.359375 8.160156 5.417969 9.148438 6.476562 C 9.558594 6.921875 9.773438 7.496094 9.75 8.097656 C 9.726562 8.703125 9.472656 9.261719 9.03125 9.671875 C 8.648438 10.027344 8.152344 10.214844 7.628906 10.195312 C 7.105469 10.175781 6.621094 9.953125 6.265625 9.570312 C 5.941406 9.21875 5.824219 8.71875 5.960938 8.230469 C 6.097656 7.738281 6.46875 7.359375 6.953125 7.222656 C 7.171875 7.160156 7.417969 7.121094 7.484375 7.34375 C 7.546875 7.566406 7.324219 7.660156 7.03125 7.863281 C 6.683594 8.109375 6.492188 8.558594 6.878906 9.003906 C 7.074219 9.230469 7.359375 9.347656 7.660156 9.359375 C 7.957031 9.371094 8.246094 9.265625 8.464844 9.0625 C 8.742188 8.800781 8.902344 8.449219 8.917969 8.066406 C 8.929688 7.6875 8.796875 7.324219 8.535156 7.042969 C 7.863281 6.320312 6.726562 6.28125 6.003906 6.953125 C 5.570312 7.359375 5.316406 7.910156 5.292969 8.503906 C 5.273438 9.097656 5.484375 9.667969 5.890625 10.101562 C 6.390625 10.640625 7.070312 10.953125 7.804688 10.980469 C 8.542969 11.007812 9.242188 10.746094 9.78125 10.246094 C 10.441406 9.628906 10.824219 8.792969 10.859375 7.890625 C 10.890625 6.988281 10.570312 6.125 9.957031 5.464844 C 8.402344 3.796875 6.371094 3.402344 4.269531 4.667969 C 3.953125 4.863281 3.6875 5.144531 3.507812 5 C 3.421875 4.929688 3.375 4.800781 3.542969 4.644531 C 5.550781 2.777344 8.703125 2.890625 10.566406 4.898438 C 11.332031 5.722656 11.78125 6.800781 11.691406 7.921875 C 11.40625 11.421875 8.957031 12.03125 7.707031 11.960938 Z M 7.707031 11.960938 "/>
</g>
</svg>
