<?xml version="1.0" encoding="UTF-8"?>
<svg xmlns="http://www.w3.org/2000/svg" xmlns:xlink="http://www.w3.org/1999/xlink" width="15pt" height="15pt" viewBox="0 0 15 15" version="1.1">
<g id="surface1">
<path style=" stroke:none;fill-rule:nonzero;fill:rgb(33.333333%,67.45098%,93.333333%);fill-opacity:1;" d="M 8.332031 11.925781 C 8.332031 11.925781 12.777344 10.792969 13.898438 6.550781 C 14.0625 5.925781 13.265625 5.417969 12.285156 5.417969 L 2.5 5.417969 C 2.011719 5.417969 0.941406 5.621094 1.21875 6.621094 C 2.378906 10.792969 6.667969 11.925781 6.667969 11.925781 L 6.667969 12.414062 C 6.667969 12.414062 4.734375 13.433594 4.339844 13.671875 C 3.910156 13.914062 4.226562 14.304688 4.398438 14.375 C 4.683594 14.484375 5.394531 14.851562 7.363281 14.851562 C 9.382812 14.851562 10.488281 14.457031 10.730469 14.375 C 10.824219 14.34375 11.230469 13.96875 10.648438 13.625 C 9.613281 13.011719 8.332031 12.414062 8.332031 12.414062 Z M 8.332031 11.925781 "/>
<path style=" stroke:none;fill-rule:nonzero;fill:rgb(23.137255%,53.333333%,76.470588%);fill-opacity:1;" d="M 13.871094 6.351562 C 13.871094 7.058594 11.023438 7.628906 7.507812 7.628906 C 3.996094 7.628906 1.148438 7.058594 1.148438 6.351562 C 1.148438 5.648438 3.996094 5.078125 7.507812 5.078125 C 11.023438 5.078125 13.871094 5.648438 13.871094 6.351562 Z M 13.871094 6.351562 "/>
<path style=" stroke:none;fill-rule:nonzero;fill:rgb(95.686275%,67.058824%,72.941176%);fill-opacity:1;" d="M 10.824219 2.878906 C 10.824219 3.550781 9.519531 4.855469 7.5625 4.855469 C 5.761719 4.855469 4.300781 3.984375 4.300781 2.878906 C 4.300781 1.078125 5.761719 0.0507812 7.5625 0.0507812 C 9.367188 0.0507812 10.824219 1.078125 10.824219 2.878906 Z M 10.824219 2.878906 "/>
<path style=" stroke:none;fill-rule:nonzero;fill:rgb(100%,90.980392%,71.372549%);fill-opacity:1;" d="M 13.871094 5.921875 C 13.871094 6.597656 12.566406 7.683594 10.609375 7.683594 C 8.804688 7.683594 7.34375 8.265625 7.34375 5.921875 C 7.34375 4.121094 8.804688 2.660156 10.609375 2.660156 C 12.410156 2.660156 13.871094 4.121094 13.871094 5.921875 Z M 13.871094 5.921875 "/>
<path style=" stroke:none;fill-rule:nonzero;fill:rgb(54.117647%,29.411765%,21.960784%);fill-opacity:1;" d="M 7.78125 5.921875 C 7.78125 8.082031 6.476562 7.71875 4.515625 7.71875 C 2.714844 7.71875 1.253906 7.03125 1.253906 5.921875 C 1.253906 4.121094 2.714844 2.660156 4.515625 2.660156 C 6.320312 2.660156 7.78125 4.121094 7.78125 5.921875 Z M 7.78125 5.921875 "/>
<path style=" stroke:none;fill-rule:nonzero;fill:rgb(23.137255%,53.333333%,76.470588%);fill-opacity:1;" d="M 12.847656 8.789062 C 13.191406 8.308594 13.492188 7.753906 13.714844 7.125 C 8.097656 9.097656 2.855469 7.699219 1.433594 7.265625 C 1.636719 7.800781 1.894531 8.277344 2.183594 8.703125 C 6.910156 10.058594 11.164062 9.203125 12.847656 8.789062 Z M 12.847656 8.789062 "/>
<path style=" stroke:none;fill-rule:nonzero;fill:rgb(33.333333%,67.45098%,93.333333%);fill-opacity:1;" d="M 1.183594 6.324219 C 1.765625 6.574219 7.636719 8.425781 13.890625 6.359375 C 13.890625 6.632812 13.71875 7.390625 13.617188 7.683594 C 13.453125 8.15625 7.199219 9.695312 1.582031 7.792969 C 1.417969 7.71875 0.929688 6.214844 1.183594 6.324219 Z M 1.183594 6.324219 "/>
</g>
</svg>
