<?xml version="1.0" encoding="UTF-8"?>
<svg xmlns="http://www.w3.org/2000/svg" xmlns:xlink="http://www.w3.org/1999/xlink" width="15pt" height="15pt" viewBox="0 0 15 15" version="1.1">
<g id="surface1">
<path style=" stroke:none;fill-rule:nonzero;fill:rgb(85.098039%,61.960784%,50.980392%);fill-opacity:1;" d="M 14.117188 14.679688 C 13.988281 14.679688 13.855469 14.628906 13.757812 14.527344 L 0.972656 1.742188 C 0.769531 1.542969 0.769531 1.21875 0.972656 1.019531 C 1.171875 0.820312 1.496094 0.820312 1.695312 1.019531 L 14.480469 13.804688 C 14.679688 14.003906 14.679688 14.328125 14.480469 14.527344 C 14.378906 14.628906 14.25 14.679688 14.117188 14.679688 Z M 14.117188 14.679688 "/>
<path style=" stroke:none;fill-rule:nonzero;fill:rgb(40%,45.882353%,49.803922%);fill-opacity:1;" d="M 2.804688 1.269531 C 1.699219 1.046875 1.027344 1.753906 1.3125 2.847656 L 2.082031 5.785156 C 2.367188 6.875 3.25 7.117188 4.046875 6.320312 L 6.589844 3.777344 C 7.386719 2.980469 7.136719 2.144531 6.03125 1.921875 Z M 2.804688 1.269531 "/>
<path style=" stroke:none;fill-rule:nonzero;fill:rgb(85.098039%,61.960784%,50.980392%);fill-opacity:1;" d="M 9.421875 6.652344 C 9.421875 8.210938 8.160156 9.46875 6.605469 9.46875 C 5.050781 9.46875 3.789062 8.210938 3.789062 6.652344 C 3.789062 5.097656 5.046875 3.835938 6.605469 3.835938 C 8.160156 3.835938 9.421875 5.097656 9.421875 6.652344 Z M 9.421875 6.652344 "/>
<path style=" stroke:none;fill-rule:nonzero;fill:rgb(80%,83.921569%,86.666667%);fill-opacity:1;" d="M 9.1875 12.792969 C 8.789062 13.195312 8.140625 13.195312 7.738281 12.792969 L 6.289062 11.34375 C 5.890625 10.945312 5.890625 10.296875 6.289062 9.898438 L 9.914062 6.273438 C 10.3125 5.875 10.960938 5.875 11.363281 6.273438 L 12.8125 7.722656 C 13.210938 8.125 13.210938 8.773438 12.8125 9.171875 Z M 9.1875 12.792969 "/>
<path style=" stroke:none;fill-rule:nonzero;fill:rgb(85.098039%,61.960784%,50.980392%);fill-opacity:1;" d="M 14.117188 14.679688 C 13.988281 14.679688 13.855469 14.628906 13.757812 14.527344 L 9.957031 10.730469 C 9.757812 10.53125 9.757812 10.203125 9.957031 10.003906 C 10.15625 9.804688 10.480469 9.804688 10.679688 10.003906 L 14.480469 13.804688 C 14.679688 14.003906 14.679688 14.328125 14.480469 14.527344 C 14.378906 14.628906 14.25 14.679688 14.117188 14.679688 Z M 14.117188 14.679688 "/>
</g>
</svg>
