<?xml version="1.0" encoding="UTF-8"?>
<svg xmlns="http://www.w3.org/2000/svg" xmlns:xlink="http://www.w3.org/1999/xlink" width="15pt" height="15pt" viewBox="0 0 15 15" version="1.1">
<g id="surface1">
<path style=" stroke:none;fill-rule:nonzero;fill:rgb(95.686275%,56.470588%,4.705882%);fill-opacity:1;" d="M 12.917969 9.167969 C 11.667969 13.75 10.824219 15 7.5 15 C 4.167969 15 3.332031 13.75 2.082031 9.167969 C 1.234375 6.058594 2.917969 3.332031 7.5 3.332031 C 12.082031 3.332031 13.765625 6.058594 12.917969 9.167969 Z M 12.917969 9.167969 "/>
<path style=" stroke:none;fill-rule:nonzero;fill:rgb(74.509804%,9.803922%,19.215686%);fill-opacity:1;" d="M 12.082031 4.582031 C 12.917969 6.25 10.832031 7.917969 7.5 7.917969 C 4.167969 7.917969 2.082031 6.25 2.917969 4.582031 C 3.535156 3.347656 4.738281 2.082031 7.5 2.082031 C 10.261719 2.082031 11.464844 3.347656 12.082031 4.582031 Z M 12.082031 4.582031 "/>
<path style=" stroke:none;fill-rule:nonzero;fill:rgb(100%,67.45098%,20%);fill-opacity:1;" d="M 12.5 4.582031 C 12.5 3.203125 10.261719 2.082031 7.5 2.082031 C 4.738281 2.082031 2.5 3.203125 2.5 4.582031 C 2.5 5.964844 4.738281 7.082031 7.5 7.082031 C 10.261719 7.082031 12.5 5.964844 12.5 4.582031 Z M 12.5 4.582031 "/>
<path style=" stroke:none;fill-rule:nonzero;fill:rgb(100%,90.980392%,71.372549%);fill-opacity:1;" d="M 11.25 4.167969 C 11.667969 4.582031 12.082031 5 12.082031 5.417969 C 12.082031 5.832031 11.667969 6.667969 11.25 6.25 C 11.25 6.25 12.476562 6.730469 12.082031 7.917969 C 11.667969 9.167969 10.417969 8.75 10.417969 7.917969 C 10.417969 7.082031 9.769531 6.523438 9.582031 7.082031 C 9.167969 8.332031 8.332031 8.332031 7.917969 7.917969 C 7.5 7.5 7.5 7.082031 7.5 7.082031 C 7.5 7.082031 6.25 7.082031 6.667969 6.25 C 7.082031 5.417969 6.667969 5.417969 6.667969 5.417969 C 6.667969 5.417969 6.667969 5 7.082031 5 C 7.5 5 10 4.582031 10.417969 4.167969 C 10.832031 3.75 11.25 4.167969 11.25 4.167969 Z M 11.25 4.167969 "/>
<path style=" stroke:none;fill-rule:nonzero;fill:rgb(40%,12.941176%,7.45098%);fill-opacity:1;" d="M 11.667969 3.867188 C 11.667969 4.953125 9.800781 5.832031 7.5 5.832031 C 5.199219 5.832031 3.332031 4.953125 3.332031 3.867188 C 3.332031 2.777344 5.199219 2.082031 7.5 2.082031 C 9.800781 2.082031 11.667969 2.777344 11.667969 3.867188 Z M 11.667969 3.867188 "/>
<path style=" stroke:none;fill-rule:nonzero;fill:rgb(95.686275%,56.470588%,4.705882%);fill-opacity:1;" d="M 7.5 5.832031 C 9.394531 5.832031 10.992188 5.234375 11.496094 4.417969 C 11.417969 4.335938 11.332031 4.25 11.25 4.167969 C 11.25 4.167969 10.417969 3.332031 10 3.75 C 9.582031 4.167969 7.5 4.167969 7.082031 4.167969 C 6.667969 4.167969 6.25 4.582031 6.25 4.582031 C 6.25 4.582031 6.910156 5.421875 6.832031 5.804688 C 7.050781 5.824219 7.273438 5.832031 7.5 5.832031 Z M 7.5 5.832031 "/>
<path style=" stroke:none;fill-rule:nonzero;fill:rgb(100%,80%,30.196078%);fill-opacity:1;" d="M 10.832031 3.542969 C 10.832031 4.347656 9.339844 5 7.5 5 C 5.660156 5 4.167969 4.347656 4.167969 3.542969 C 4.167969 2.734375 5.660156 1.25 7.5 1.25 C 9.339844 1.25 10.832031 2.734375 10.832031 3.542969 Z M 10.832031 3.542969 "/>
<path style=" stroke:none;fill-rule:nonzero;fill:rgb(95.686275%,56.470588%,4.705882%);fill-opacity:1;" d="M 8.332031 1.042969 C 8.332031 0.695312 7.960938 0.417969 7.5 0.417969 C 7.039062 0.417969 6.667969 0.695312 6.667969 1.042969 C 6.667969 1.386719 7.039062 1.667969 7.5 1.667969 C 7.960938 1.667969 8.332031 1.386719 8.332031 1.042969 Z M 8.332031 1.042969 "/>
<path style=" stroke:none;fill-rule:nonzero;fill:rgb(100%,80%,30.196078%);fill-opacity:1;" d="M 2.367188 10.171875 C 2.671875 11.195312 2.960938 12.019531 3.285156 12.675781 C 4.582031 13.75 6.667969 13.75 7.5 13.75 C 8.332031 13.75 10.417969 13.75 11.710938 12.675781 C 12.035156 12.019531 12.328125 11.195312 12.628906 10.171875 C 11.503906 10.820312 9.628906 11.25 7.5 11.25 C 5.371094 11.25 3.496094 10.820312 2.367188 10.171875 Z M 2.367188 10.171875 "/>
</g>
</svg>
