<?xml version="1.0" encoding="UTF-8"?>
<svg xmlns="http://www.w3.org/2000/svg" xmlns:xlink="http://www.w3.org/1999/xlink" width="15pt" height="15pt" viewBox="0 0 15 15" version="1.1">
<g id="surface1">
<path style=" stroke:none;fill-rule:nonzero;fill:rgb(86.666667%,18.039216%,26.666667%);fill-opacity:1;" d="M 5.539062 1.472656 C 5.320312 -0.222656 3.195312 -0.316406 2.9375 0.589844 L 2.546875 2.273438 L 0.863281 2.660156 C -0.0429688 2.921875 0.0546875 5.042969 1.75 5.265625 L 3.023438 5.429688 C 4.71875 5.652344 5.929688 4.445312 5.707031 2.746094 Z M 13.453125 9.386719 C 15.152344 9.609375 15.246094 11.734375 14.339844 11.992188 L 12.65625 12.378906 L 12.265625 14.0625 C 12.007812 14.96875 9.886719 14.875 9.664062 13.179688 L 9.496094 11.90625 C 9.277344 10.207031 10.484375 9 12.183594 9.222656 Z M 13.453125 9.386719 "/>
<path style=" stroke:none;fill-rule:nonzero;fill:rgb(74.509804%,9.803922%,19.215686%);fill-opacity:1;" d="M 12.703125 9.289062 L 12.183594 9.222656 C 10.484375 9 9.277344 10.207031 9.496094 11.90625 L 9.535156 12.183594 C 10.210938 12.070312 10.972656 11.667969 11.625 11.015625 C 12.160156 10.480469 12.527344 9.867188 12.703125 9.289062 Z M 2.878906 5.410156 L 3.023438 5.429688 C 4.71875 5.652344 5.929688 4.445312 5.707031 2.746094 L 5.65625 2.367188 C 5.109375 2.554688 4.535156 2.910156 4.027344 3.417969 C 3.40625 4.039062 3.011719 4.761719 2.878906 5.410156 Z M 2.878906 5.410156 "/>
<path style=" stroke:none;fill-rule:nonzero;fill:rgb(86.666667%,18.039216%,26.666667%);fill-opacity:1;" d="M 12.261719 7.21875 C 12.261719 9.667969 10.277344 11.65625 7.824219 11.65625 C 5.375 11.65625 3.386719 9.667969 3.386719 7.21875 C 3.386719 4.765625 5.375 2.78125 7.824219 2.78125 C 10.277344 2.78125 12.261719 4.765625 12.261719 7.21875 Z M 12.261719 7.21875 "/>
<path style=" stroke:none;fill-rule:nonzero;fill:rgb(96.078431%,97.254902%,98.039216%);fill-opacity:1;" d="M 7.8125 7.082031 C 7.976562 8.308594 7.550781 9.890625 6.730469 10.871094 C 7.082031 10.976562 7.449219 11.03125 7.824219 11.03125 C 8.128906 11.03125 8.425781 10.992188 8.714844 10.921875 C 8.949219 9.84375 8.824219 8.453125 7.8125 7.082031 Z M 7.8125 7.082031 C 9.230469 7.347656 10.410156 8.453125 10.636719 9.785156 C 11.191406 9.179688 11.53125 8.429688 11.613281 7.621094 C 10.839844 6.835938 9.574219 6.285156 7.8125 7.082031 Z M 7.8125 7.082031 C 8.25 6.136719 9.691406 5.277344 11.078125 5.234375 C 10.921875 4.980469 10.738281 4.738281 10.519531 4.519531 C 10.199219 4.203125 9.835938 3.957031 9.449219 3.773438 C 8.460938 4.289062 7.59375 5.292969 7.8125 7.082031 Z M 7.8125 7.082031 "/>
<path style=" stroke:none;fill-rule:nonzero;fill:rgb(96.078431%,97.254902%,98.039216%);fill-opacity:1;" d="M 7.828125 7.101562 C 6.660156 6.484375 5.921875 5 6.238281 3.753906 C 5.835938 3.9375 5.457031 4.191406 5.128906 4.519531 C 4.894531 4.753906 4.699219 5.015625 4.539062 5.289062 C 5.078125 6.105469 6.105469 6.886719 7.828125 7.101562 Z M 7.796875 7.101562 C 6.722656 7.75 5.199219 8.097656 4.0625 7.800781 C 4.160156 8.445312 4.421875 9.066406 4.847656 9.597656 C 5.835938 9.300781 6.957031 8.554688 7.796875 7.101562 Z M 7.796875 7.101562 "/>
</g>
</svg>
