<?xml version="1.0" encoding="UTF-8"?>
<svg xmlns="http://www.w3.org/2000/svg" xmlns:xlink="http://www.w3.org/1999/xlink" width="15pt" height="15pt" viewBox="0 0 15 15" version="1.1">
<g id="surface1">
<path style=" stroke:none;fill-rule:nonzero;fill:rgb(100%,67.45098%,20%);fill-opacity:1;" d="M 12.671875 3.867188 C 11.726562 2.558594 9.945312 0.976562 6.8125 0.851562 L 6.65625 0.847656 L 6.605469 0.992188 C 6.578125 1.066406 6.476562 1.210938 6.382812 1.347656 C 6.097656 1.753906 5.710938 2.3125 5.878906 2.8125 C 5.96875 3.09375 6.214844 3.300781 6.613281 3.433594 C 7.402344 3.703125 9.042969 5.042969 9.363281 6.664062 C 9.453125 7.109375 9.429688 7.542969 9.304688 7.957031 C 8.625 6.691406 7.402344 5.898438 5.902344 5.898438 C 3.480469 5.898438 1.933594 7.894531 1.933594 10.34375 C 1.933594 12.460938 3.480469 14.789062 5.902344 14.789062 C 5.917969 14.789062 5.929688 14.789062 5.941406 14.789062 L 5.976562 14.792969 C 6.230469 14.808594 6.648438 14.839844 7.15625 14.839844 C 9.691406 14.839844 12.921875 14.117188 13.90625 10.683594 C 14.554688 8.425781 14.082031 5.816406 12.671875 3.867188 Z M 12.671875 3.867188 "/>
<path style=" stroke:none;fill-rule:nonzero;fill:rgb(95.686275%,56.470588%,4.705882%);fill-opacity:1;" d="M 7.878906 12.832031 C 7.808594 13.097656 9.089844 13.445312 10.21875 12.222656 C 11.488281 10.847656 11.566406 7.378906 8.636719 5.015625 C 8.609375 5.007812 8.582031 5.003906 8.554688 4.996094 C 8.933594 5.484375 9.242188 6.054688 9.363281 6.664062 C 9.449219 7.097656 9.425781 7.511719 9.3125 7.914062 C 10.117188 9.460938 10.523438 12.050781 7.878906 12.832031 Z M 12.863281 10.105469 C 13.179688 10.070312 13.652344 9.914062 14.109375 9.714844 C 14.152344 9.414062 14.179688 9.109375 14.1875 8.804688 C 13.808594 9.152344 13.378906 9.441406 13.023438 9.605469 C 12.441406 9.867188 12.203125 10.1875 12.863281 10.105469 Z M 12.492188 6.667969 C 11.566406 7.511719 12.535156 7.222656 13.074219 6.878906 C 13.390625 6.675781 13.625 6.382812 13.777344 6.054688 C 13.597656 5.511719 13.363281 4.980469 13.074219 4.484375 C 13.121094 5.347656 13.03125 6.171875 12.492188 6.667969 Z M 12.492188 6.667969 "/>
<path style=" stroke:none;fill-rule:nonzero;fill:rgb(100%,51.372549%,60.784314%);fill-opacity:1;" d="M 8.707031 1.410156 C 8.6875 1.230469 8.558594 1.082031 8.378906 1.039062 C 7.714844 0.886719 3.058594 0.179688 2.066406 0.179688 L 1.984375 0.183594 C 1.394531 0.210938 0.941406 0.511719 0.832031 0.953125 C 0.78125 1.160156 0.746094 1.691406 1.507812 2.136719 C 1.738281 2.269531 1.878906 2.410156 1.882812 2.515625 C 1.886719 2.613281 1.773438 2.8125 1.441406 3.046875 C 1.109375 3.285156 0.972656 3.648438 1.085938 4 C 1.222656 4.429688 1.699219 4.71875 2.265625 4.71875 C 2.574219 4.71875 2.894531 4.640625 3.21875 4.476562 C 4.046875 4.0625 5.167969 3.792969 6.070312 3.792969 C 6.511719 3.792969 6.890625 3.855469 7.1875 3.980469 C 7.339844 4.039062 7.488281 4.074219 7.628906 4.074219 C 7.886719 4.074219 8.445312 3.988281 8.292969 3.773438 C 7.191406 2.195312 8.734375 1.695312 8.707031 1.410156 Z M 8.707031 1.410156 "/>
<path style=" stroke:none;fill-rule:nonzero;fill:rgb(91.764706%,34.901961%,43.137255%);fill-opacity:1;" d="M 1.054688 1.769531 C 1.160156 1.890625 1.304688 2.015625 1.507812 2.136719 C 1.738281 2.269531 1.878906 2.410156 1.882812 2.515625 C 1.886719 2.613281 1.773438 2.8125 1.441406 3.046875 C 1.1875 3.226562 1.050781 3.484375 1.050781 3.75 C 5.507812 2.164062 2.339844 2.832031 1.054688 1.769531 Z M 1.054688 1.769531 "/>
</g>
</svg>
