<?xml version="1.0" encoding="UTF-8"?>
<svg xmlns="http://www.w3.org/2000/svg" xmlns:xlink="http://www.w3.org/1999/xlink" width="15pt" height="15pt" viewBox="0 0 15 15" version="1.1">
<g id="surface1">
<path style=" stroke:none;fill-rule:nonzero;fill:rgb(100%,80%,30.196078%);fill-opacity:1;" d="M 7.160156 9.582031 L 4.089844 9.582031 C 4.089844 9.582031 4.65625 12.292969 5.070312 13.648438 C 5.484375 15.003906 6.988281 15 7.328125 15 C 8.011719 15 9.171875 15.003906 9.589844 13.648438 C 10.003906 12.292969 10.910156 9.582031 10.910156 9.582031 Z M 7.160156 9.582031 "/>
<path style=" stroke:none;fill-rule:nonzero;fill:rgb(100%,67.45098%,20%);fill-opacity:1;" d="M 7.5 11.667969 C 8.941406 11.667969 9.929688 11.355469 10.457031 10.949219 C 10.601562 10.507812 10.730469 10.125 10.8125 9.878906 C 10.75 9.773438 10.65625 9.675781 10.53125 9.582031 L 4.46875 9.582031 C 4.324219 9.6875 4.222656 9.800781 4.164062 9.921875 C 4.207031 10.136719 4.273438 10.429688 4.347656 10.773438 C 4.804688 11.261719 5.855469 11.667969 7.5 11.667969 Z M 7.5 11.667969 "/>
<path style=" stroke:none;fill-rule:nonzero;fill:rgb(100%,80%,30.196078%);fill-opacity:1;" d="M 3.75 8.332031 L 3.75 9.582031 C 3.75 10.273438 5.429688 10.832031 7.5 10.832031 C 9.570312 10.832031 11.25 10.273438 11.25 9.582031 L 11.25 8.332031 Z M 3.75 8.332031 "/>
<path style=" stroke:none;fill-rule:nonzero;fill:rgb(95.686275%,56.470588%,4.705882%);fill-opacity:1;" d="M 10.910156 8.542969 C 10.910156 9.117188 9.382812 9.582031 7.5 9.582031 C 5.617188 9.582031 4.089844 9.117188 4.089844 8.542969 C 4.089844 7.964844 5.617188 7.5 7.5 7.5 C 9.382812 7.5 10.910156 7.964844 10.910156 8.542969 Z M 10.910156 8.542969 "/>
<path style=" stroke:none;fill-rule:nonzero;fill:rgb(100%,90.980392%,71.372549%);fill-opacity:1;" d="M 11.210938 5.796875 C 11.300781 5.402344 11.277344 4.984375 11.101562 4.570312 C 10.933594 4.164062 10.640625 3.851562 10.285156 3.636719 C 10.367188 3.339844 10.351562 3.023438 10.210938 2.707031 C 10.003906 2.230469 9.550781 1.914062 9.039062 1.828125 C 9.101562 1.683594 9.128906 1.511719 9.054688 1.289062 C 8.808594 0.546875 7.816406 1.046875 7.078125 0.0585938 C 6.460938 0.425781 6.335938 0.976562 6.363281 1.4375 C 5.800781 1.539062 5.476562 1.660156 5.476562 1.660156 C 5.140625 1.796875 4.902344 2.128906 4.902344 2.511719 C 4.902344 2.71875 4.972656 2.902344 5.082031 3.058594 L 4.882812 3.132812 C 4.308594 3.347656 3.902344 3.867188 3.902344 4.476562 C 3.902344 4.738281 3.980469 4.976562 4.109375 5.1875 C 3.40625 5.5 2.917969 6.183594 2.917969 6.980469 C 2.917969 8.019531 3.746094 8.863281 4.796875 8.945312 C 5.90625 9.289062 8.125 9.195312 9.828125 8.90625 C 10.816406 8.738281 11.824219 8.148438 11.824219 7.144531 C 11.824219 6.605469 11.582031 6.128906 11.210938 5.796875 Z M 11.210938 5.796875 "/>
<path style=" stroke:none;fill-rule:nonzero;fill:rgb(100%,85.098039%,51.372549%);fill-opacity:1;" d="M 6.144531 7.589844 C 5.210938 7.851562 3.8125 7.921875 3.066406 7.71875 C 3.367188 8.445312 4.097656 8.960938 4.957031 8.960938 C 7.515625 8.960938 10.128906 7.214844 10.128906 7.214844 C 10.949219 6.707031 11.367188 5.898438 11.234375 5.054688 C 10.382812 6.257812 7.121094 7.3125 6.144531 7.589844 Z M 5.472656 5.929688 C 7.449219 5.929688 9.460938 4.652344 9.460938 4.652344 C 10.121094 4.261719 10.449219 3.636719 10.304688 2.988281 C 7.792969 4.621094 5.484375 5.097656 4.089844 5.152344 C 4.351562 5.613281 4.871094 5.929688 5.472656 5.929688 Z M 4.929688 2.730469 C 5.027344 3.132812 5.390625 3.433594 5.820312 3.433594 C 6.09375 3.433594 6.367188 3.386719 6.628906 3.316406 C 6.785156 3.269531 6.945312 3.214844 7.101562 3.160156 C 7.710938 2.925781 8.152344 2.621094 8.152344 2.621094 C 8.59375 2.339844 9.046875 1.839844 9.046875 1.839844 C 9.046875 1.839844 9.199219 1.496094 8.941406 1.292969 C 8.214844 2.019531 5.894531 2.742188 4.929688 2.730469 Z M 4.929688 2.730469 "/>
</g>
</svg>
