<?xml version="1.0" encoding="UTF-8"?>
<svg xmlns="http://www.w3.org/2000/svg" xmlns:xlink="http://www.w3.org/1999/xlink" width="15pt" height="15pt" viewBox="0 0 15 15" version="1.1">
<g id="surface1">
<path style=" stroke:none;fill-rule:nonzero;fill:rgb(57.647059%,58.431373%,59.607843%);fill-opacity:1;" d="M 15 9.582031 C 15 7.28125 11.640625 5.417969 7.5 5.417969 C 3.359375 5.417969 0 7.28125 0 9.582031 C 0 11.882812 3.359375 13.75 7.5 13.75 C 11.640625 13.75 15 11.882812 15 9.582031 Z M 15 9.582031 "/>
<path style=" stroke:none;fill-rule:nonzero;fill:rgb(94.509804%,94.901961%,94.901961%);fill-opacity:1;" d="M 15 8.75 C 15 6.449219 11.640625 4.582031 7.5 4.582031 C 3.359375 4.582031 0 6.449219 0 8.75 C 0 11.050781 3.359375 12.917969 7.5 12.917969 C 11.640625 12.917969 15 11.050781 15 8.75 Z M 15 8.75 "/>
<path style=" stroke:none;fill-rule:nonzero;fill:rgb(75.686275%,41.176471%,30.980392%);fill-opacity:1;" d="M 12.917969 8.332031 C 12.917969 9.996094 10.492188 11.34375 7.5 11.34375 C 4.507812 11.34375 2.082031 9.996094 2.082031 8.332031 C 2.082031 6.671875 4.507812 5.324219 7.5 5.324219 C 10.492188 5.324219 12.917969 6.671875 12.917969 8.332031 Z M 12.917969 8.332031 "/>
<path style=" stroke:none;fill-rule:nonzero;fill:rgb(54.117647%,29.411765%,21.960784%);fill-opacity:1;" d="M 12.082031 8.332031 C 12.082031 7.054688 10.03125 6.019531 7.5 6.019531 C 4.96875 6.019531 2.917969 7.054688 2.917969 8.332031 C 2.917969 9.613281 4.96875 10.648438 7.5 10.648438 C 10.03125 10.648438 12.082031 9.613281 12.082031 8.332031 Z M 12.082031 8.332031 "/>
<path style=" stroke:none;fill-rule:nonzero;fill:rgb(100%,80%,30.196078%);fill-opacity:1;" d="M 7.5 2.917969 C 8.910156 2.917969 9.46875 3.75 9.96875 3.75 C 10.671875 3.75 11.023438 4.582031 11.730469 7.5 C 12.019531 8.703125 9.96875 10 7.5 10 C 5.035156 10 2.980469 8.703125 3.273438 7.5 C 3.976562 4.582031 4.328125 3.75 5.035156 3.75 C 5.53125 3.75 6.089844 2.917969 7.5 2.917969 Z M 7.5 2.917969 "/>
<path style=" stroke:none;fill-rule:nonzero;fill:rgb(40%,12.941176%,7.45098%);fill-opacity:1;" d="M 10.671875 4.582031 C 10.671875 5.503906 9.25 6.25 7.5 6.25 C 5.75 6.25 4.328125 5.503906 4.328125 4.582031 C 4.328125 3.664062 5.75 2.917969 7.5 2.917969 C 9.25 2.917969 10.671875 3.664062 10.671875 4.582031 Z M 10.671875 4.582031 "/>
</g>
</svg>
