<?xml version="1.0" encoding="UTF-8"?>
<svg xmlns="http://www.w3.org/2000/svg" xmlns:xlink="http://www.w3.org/1999/xlink" width="15pt" height="15pt" viewBox="0 0 15 15" version="1.1">
<g id="surface1">
<path style=" stroke:none;fill-rule:nonzero;fill:rgb(72.54902%,0%,32.54902%);fill-opacity:1;" d="M 3.933594 6.082031 C 4.125 5.507812 7.019531 2.945312 9.46875 1.824219 C 10.105469 1.53125 12.21875 0.640625 12.949219 0.460938 C 14.449219 0.0859375 15.070312 0.0390625 14.859375 1.5625 C 14.566406 3.71875 12.9375 6.8125 11.234375 9.792969 C 10.117188 11.546875 9.46875 12.46875 6.914062 11.191406 C 4.359375 9.914062 3.082031 8.636719 3.933594 6.082031 Z M 3.933594 6.082031 "/>
<path style=" stroke:none;fill-rule:nonzero;fill:rgb(100%,80%,30.196078%);fill-opacity:1;" d="M 9.371094 6.148438 C 10.960938 7.71875 11.246094 10.007812 10.007812 11.265625 C 8.765625 12.519531 6.472656 12.265625 4.882812 10.695312 C 3.292969 9.125 3.007812 6.835938 4.25 5.582031 C 5.488281 4.324219 7.78125 4.582031 9.371094 6.148438 Z M 9.371094 6.148438 "/>
<path style=" stroke:none;fill-rule:nonzero;fill:rgb(55.686275%,0%,25.882353%);fill-opacity:1;" d="M 11.234375 2.65625 C 11.707031 2.894531 12.359375 4.160156 12.359375 4.535156 C 12.359375 4.910156 11.984375 4.160156 11.234375 3.40625 C 10.480469 2.65625 10.480469 2.28125 11.234375 2.65625 Z M 11.308594 6.003906 C 11.5625 6.242188 11.730469 7.164062 11.65625 7.402344 C 11.585938 7.636719 11.492188 7.09375 11.164062 6.476562 C 10.835938 5.859375 10.90625 5.621094 11.308594 6.003906 Z M 11.308594 6.003906 "/>
<path style=" stroke:none;fill-rule:nonzero;fill:rgb(72.54902%,0%,32.54902%);fill-opacity:1;" d="M 8.75 13.332031 C 8.75 14.253906 6.882812 15 4.582031 15 C 2.28125 15 0.417969 14.167969 0.417969 13.332031 C 0.417969 13.179688 0.332031 12.25 0.453125 12.101562 C 0.976562 11.445312 2.710938 11.667969 4.582031 11.667969 C 6.628906 11.667969 8.390625 11.304688 8.742188 12.082031 C 8.785156 12.179688 8.75 13.230469 8.75 13.332031 Z M 8.75 13.332031 "/>
<path style=" stroke:none;fill-rule:nonzero;fill:rgb(100%,83.921569%,44.313725%);fill-opacity:1;" d="M 8.75 12.082031 C 8.75 11.164062 6.882812 10.417969 4.582031 10.417969 C 2.28125 10.417969 0.417969 11.164062 0.417969 12.082031 C 0.417969 13.003906 2.28125 13.75 4.582031 13.75 C 6.882812 13.75 8.75 13.003906 8.75 12.082031 Z M 8.75 12.082031 "/>
</g>
</svg>
