<?xml version="1.0" encoding="UTF-8"?>
<svg xmlns="http://www.w3.org/2000/svg" xmlns:xlink="http://www.w3.org/1999/xlink" width="15pt" height="15pt" viewBox="0 0 15 15" version="1.1">
<g id="surface1">
<path style=" stroke:none;fill-rule:nonzero;fill:rgb(75.686275%,41.176471%,30.980392%);fill-opacity:1;" d="M 10.972656 13.957031 C 10.324219 14.605469 9.269531 14.605469 8.617188 13.957031 L 0.664062 6 C 0.0117188 5.351562 0.0117188 4.882812 0.664062 4.234375 L 4.199219 0.699219 C 4.847656 0.046875 5.316406 0.046875 5.964844 0.699219 L 13.921875 8.652344 C 14.570312 9.304688 14.570312 10.359375 13.921875 11.011719 Z M 10.972656 13.957031 "/>
<path style=" stroke:none;fill-rule:nonzero;fill:rgb(54.117647%,29.411765%,21.960784%);fill-opacity:1;" d="M 6.910156 6.355469 L 4.875 4.320312 L 7.230469 1.964844 L 6.640625 1.375 L 4.285156 3.730469 L 2.726562 2.171875 L 2.136719 2.761719 L 3.695312 4.320312 L 1.339844 6.675781 L 1.925781 7.265625 L 4.285156 4.910156 L 6.320312 6.945312 Z M 6.910156 6.355469 "/>
<path style=" stroke:none;fill-rule:nonzero;fill:rgb(86.666667%,18.039216%,26.666667%);fill-opacity:1;" d="M 10.972656 14.546875 C 10.324219 15.195312 9.269531 15.195312 8.617188 14.546875 L 4.492188 10.421875 L 10.386719 4.527344 L 14.511719 8.652344 C 15.160156 9.304688 15.160156 10.359375 14.511719 11.011719 Z M 10.972656 14.546875 "/>
<path style=" stroke:none;fill-rule:nonzero;fill:rgb(74.509804%,9.803922%,19.215686%);fill-opacity:1;" d="M 5.34375 11.273438 L 7.289062 13.21875 L 10.605469 4.75 L 10.386719 4.527344 L 9.757812 4.140625 Z M 5.34375 11.273438 "/>
<path style=" stroke:none;fill-rule:nonzero;fill:rgb(80%,83.921569%,86.666667%);fill-opacity:1;" d="M 9.5 3.644531 L 10.386719 4.527344 C 10.089844 5.414062 6.851562 11.011719 6.261719 12.1875 C 6.261719 12.1875 5.964844 13.074219 5.230469 12.335938 L 3.019531 10.125 C 2.734375 9.84375 2.734375 9.234375 3.019531 8.949219 L 8.324219 3.644531 C 8.910156 3.054688 9.5 3.644531 9.5 3.644531 Z M 9.5 3.644531 "/>
</g>
</svg>
