<?xml version="1.0" encoding="UTF-8"?>
<svg xmlns="http://www.w3.org/2000/svg" xmlns:xlink="http://www.w3.org/1999/xlink" width="15pt" height="15pt" viewBox="0 0 15 15" version="1.1">
<g id="surface1">
<path style=" stroke:none;fill-rule:nonzero;fill:rgb(85.098039%,61.960784%,50.980392%);fill-opacity:1;" d="M 14.113281 14.679688 C 13.984375 14.679688 13.851562 14.628906 13.753906 14.527344 L 0.984375 1.761719 C 0.785156 1.5625 0.785156 1.238281 0.984375 1.039062 C 1.183594 0.839844 1.507812 0.839844 1.710938 1.039062 L 14.476562 13.804688 C 14.675781 14.003906 14.675781 14.328125 14.476562 14.527344 C 14.375 14.628906 14.246094 14.679688 14.113281 14.679688 Z M 14.113281 14.679688 "/>
<path style=" stroke:none;fill-rule:nonzero;fill:rgb(98.823529%,69.411765%,89.019608%);fill-opacity:1;" d="M 6.355469 3.59375 C 6.355469 5.148438 5.097656 6.40625 3.542969 6.40625 C 1.988281 6.40625 0.730469 5.148438 0.730469 3.59375 C 0.730469 2.039062 1.988281 0.78125 3.542969 0.78125 C 5.097656 0.78125 6.355469 2.039062 6.355469 3.59375 Z M 6.355469 3.59375 "/>
<path style=" stroke:none;fill-rule:nonzero;fill:rgb(100%,85.098039%,51.372549%);fill-opacity:1;" d="M 7.257812 3.925781 C 5.746094 3.570312 4.230469 4.507812 3.875 6.019531 C 3.515625 7.53125 4.453125 9.046875 5.964844 9.402344 C 7.476562 9.757812 8.992188 8.824219 9.351562 7.3125 C 9.707031 5.800781 8.769531 4.285156 7.257812 3.925781 Z M 7.257812 3.925781 "/>
<path style=" stroke:none;fill-rule:nonzero;fill:rgb(65.098039%,82.745098%,53.333333%);fill-opacity:1;" d="M 12.496094 9.734375 C 12.496094 11.285156 11.234375 12.546875 9.679688 12.546875 C 8.128906 12.546875 6.867188 11.285156 6.867188 9.734375 C 6.867188 8.179688 8.128906 6.917969 9.679688 6.917969 C 11.234375 6.917969 12.496094 8.179688 12.496094 9.734375 Z M 12.496094 9.734375 "/>
<path style=" stroke:none;fill-rule:nonzero;fill:rgb(85.098039%,61.960784%,50.980392%);fill-opacity:1;" d="M 14.113281 14.679688 C 13.984375 14.679688 13.851562 14.628906 13.753906 14.527344 L 10.621094 11.394531 C 10.417969 11.195312 10.417969 10.871094 10.621094 10.671875 C 10.820312 10.472656 11.144531 10.472656 11.34375 10.671875 L 14.476562 13.804688 C 14.675781 14.003906 14.675781 14.328125 14.476562 14.527344 C 14.375 14.628906 14.246094 14.679688 14.113281 14.679688 Z M 14.113281 14.679688 "/>
</g>
</svg>
