<?xml version="1.0" encoding="UTF-8"?>
<svg xmlns="http://www.w3.org/2000/svg" xmlns:xlink="http://www.w3.org/1999/xlink" width="15pt" height="15pt" viewBox="0 0 15 15" version="1.1">
<defs>
<filter id="alpha" filterUnits="objectBoundingBox" x="0%" y="0%" width="100%" height="100%">
  <feColorMatrix type="matrix" in="SourceGraphic" values="0 0 0 0 1 0 0 0 0 1 0 0 0 0 1 0 0 0 1 0"/>
</filter>
<mask id="mask0">
  <g filter="url(#alpha)">
<rect x="0" y="0" width="15" height="15" style="fill:rgb(0%,0%,0%);fill-opacity:0.6;stroke:none;"/>
  </g>
</mask>
<clipPath id="clip1">
  <rect x="0" y="0" width="15" height="15"/>
</clipPath>
<g id="surface5" clip-path="url(#clip1)">
<path style=" stroke:none;fill-rule:nonzero;fill:rgb(60%,66.666667%,70.980392%);fill-opacity:1;" d="M 2.148438 7.082031 L 2.191406 7.917969 L 12.808594 7.917969 L 12.851562 7.082031 Z M 2.148438 7.082031 "/>
</g>
</defs>
<g id="surface1">
<path style=" stroke:none;fill-rule:nonzero;fill:rgb(88.235294%,90.980392%,92.941176%);fill-opacity:1;" d="M 13.042969 4.582031 L 1.945312 4.582031 C 1.253906 4.582031 0.695312 5.144531 0.695312 5.832031 C 0.695312 6.523438 1.253906 7.082031 1.945312 7.082031 C 2.019531 7.082031 2.09375 7.074219 2.164062 7.0625 L 2.160156 7.082031 L 2.425781 12.917969 C 2.464844 13.835938 3.25 14.582031 4.167969 14.582031 L 10.832031 14.582031 C 11.75 14.582031 12.535156 13.835938 12.574219 12.917969 L 12.839844 7.082031 L 12.835938 7.0625 C 12.902344 7.074219 12.972656 7.082031 13.042969 7.082031 C 13.734375 7.082031 14.292969 6.523438 14.292969 5.832031 C 14.292969 5.144531 13.730469 4.582031 13.042969 4.582031 Z M 13.042969 4.582031 "/>
<path style=" stroke:none;fill-rule:nonzero;fill:rgb(85.490196%,18.431373%,27.843137%);fill-opacity:1;" d="M 11.945312 7.082031 L 11.945312 14.160156 C 12.304688 13.855469 12.546875 13.414062 12.566406 12.917969 L 12.851562 7.082031 Z M 9.445312 7.082031 L 10.695312 7.082031 L 10.695312 14.582031 L 9.445312 14.582031 Z M 6.945312 14.582031 L 6.945312 7.082031 L 8.195312 7.082031 L 8.195312 14.582031 Z M 4.445312 7.082031 L 5.695312 7.082031 L 5.695312 14.582031 L 4.445312 14.582031 Z M 2.148438 7.082031 L 2.433594 12.917969 C 2.457031 13.476562 2.757812 13.972656 3.195312 14.273438 L 3.195312 7.082031 Z M 2.148438 7.082031 "/>
<use xlink:href="#surface5" mask="url(#mask0)"/>
<path style=" stroke:none;fill-rule:nonzero;fill:rgb(100%,85.098039%,51.372549%);fill-opacity:1;" d="M 12.886719 4.613281 C 12.90625 4.535156 12.917969 4.457031 12.917969 4.375 C 12.917969 4.09375 12.804688 3.839844 12.625 3.652344 C 12.800781 3.542969 12.917969 3.347656 12.917969 3.125 C 12.917969 2.78125 12.636719 2.5 12.292969 2.5 C 12.210938 2.5 12.132812 2.515625 12.058594 2.546875 C 12 2.332031 11.835938 2.164062 11.621094 2.109375 C 11.648438 2.035156 11.667969 1.957031 11.667969 1.875 C 11.667969 1.53125 11.386719 1.25 11.042969 1.25 C 10.960938 1.25 10.886719 1.265625 10.816406 1.292969 C 10.738281 0.796875 10.308594 0.417969 9.792969 0.417969 C 9.214844 0.417969 8.75 0.882812 8.75 1.457031 C 8.75 1.535156 8.761719 1.613281 8.777344 1.683594 C 8.507812 1.730469 8.28125 1.878906 8.125 2.089844 C 7.933594 1.835938 7.632812 1.667969 7.292969 1.667969 C 6.714844 1.667969 6.25 2.132812 6.25 2.707031 L 6.25 2.714844 C 6.125 2.617188 5.976562 2.546875 5.8125 2.519531 C 5.726562 2.035156 5.300781 1.667969 4.792969 1.667969 C 4.28125 1.667969 3.855469 2.035156 3.769531 2.523438 C 3.695312 2.511719 3.621094 2.5 3.542969 2.5 C 2.734375 2.5 2.082031 3.152344 2.082031 3.957031 C 2.082031 4.183594 2.140625 4.398438 2.230469 4.589844 C 1.914062 4.621094 1.667969 4.882812 1.667969 5.207031 C 1.667969 5.554688 1.945312 5.832031 2.292969 5.832031 L 12.707031 5.832031 C 13.054688 5.832031 13.332031 5.554688 13.332031 5.207031 C 13.332031 4.925781 13.144531 4.691406 12.886719 4.613281 Z M 12.886719 4.613281 "/>
<path style=" stroke:none;fill-rule:nonzero;fill:rgb(100%,67.45098%,20%);fill-opacity:1;" d="M 12.082031 3.332031 C 12.082031 3.5625 11.898438 3.75 11.667969 3.75 C 11.4375 3.75 11.25 3.5625 11.25 3.332031 C 11.25 3.101562 11.4375 2.917969 11.667969 2.917969 C 11.898438 2.917969 12.082031 3.101562 12.082031 3.332031 Z M 12.082031 3.332031 "/>
<path style=" stroke:none;fill-rule:nonzero;fill:rgb(100%,67.45098%,20%);fill-opacity:1;" d="M 10.832031 2.292969 C 10.832031 2.636719 10.554688 2.917969 10.207031 2.917969 C 9.863281 2.917969 9.582031 2.636719 9.582031 2.292969 C 9.582031 1.945312 9.863281 1.667969 10.207031 1.667969 C 10.554688 1.667969 10.832031 1.945312 10.832031 2.292969 Z M 10.832031 2.292969 "/>
<path style=" stroke:none;fill-rule:nonzero;fill:rgb(100%,67.45098%,20%);fill-opacity:1;" d="M 5.417969 2.917969 C 5.417969 3.148438 5.230469 3.332031 5 3.332031 C 4.769531 3.332031 4.582031 3.148438 4.582031 2.917969 C 4.582031 2.6875 4.769531 2.5 5 2.5 C 5.230469 2.5 5.417969 2.6875 5.417969 2.917969 Z M 5.417969 2.917969 "/>
<path style=" stroke:none;fill-rule:nonzero;fill:rgb(100%,67.45098%,20%);fill-opacity:1;" d="M 12.917969 5.207031 C 12.917969 4.863281 12.636719 4.582031 12.292969 4.582031 C 12.015625 4.582031 11.785156 4.761719 11.703125 5.007812 C 11.691406 5.007812 11.679688 5 11.667969 5 C 11.4375 5 11.25 5.1875 11.25 5.417969 L 12.878906 5.417969 C 12.902344 5.351562 12.917969 5.28125 12.917969 5.207031 Z M 3.957031 5 C 4.039062 5 4.117188 5.015625 4.191406 5.046875 C 4.261719 4.78125 4.503906 4.582031 4.792969 4.582031 C 5.136719 4.582031 5.417969 4.863281 5.417969 5.207031 C 5.417969 5.28125 5.402344 5.351562 5.378906 5.417969 L 7.121094 5.417969 C 7.097656 5.351562 7.082031 5.28125 7.082031 5.207031 C 7.082031 4.863281 7.363281 4.582031 7.707031 4.582031 C 7.808594 4.582031 7.898438 4.609375 7.984375 4.648438 C 7.941406 4.566406 7.917969 4.472656 7.917969 4.375 C 7.917969 4.03125 8.195312 3.75 8.542969 3.75 C 8.886719 3.75 9.167969 4.03125 9.167969 4.375 C 9.167969 4.457031 9.148438 4.535156 9.121094 4.609375 C 9.386719 4.679688 9.582031 4.917969 9.582031 5.207031 C 9.582031 5.28125 9.566406 5.351562 9.546875 5.417969 L 10.78125 5.417969 L 10.546875 5.207031 C 10.722656 5.054688 10.832031 4.832031 10.832031 4.582031 C 10.832031 4.125 10.460938 3.75 10 3.75 C 9.84375 3.75 9.695312 3.796875 9.570312 3.871094 C 9.578125 3.832031 9.582031 3.792969 9.582031 3.75 C 9.582031 3.289062 9.210938 2.917969 8.75 2.917969 C 8.414062 2.917969 8.125 3.117188 7.992188 3.40625 C 7.90625 3.359375 7.8125 3.332031 7.707031 3.332031 C 7.363281 3.332031 7.082031 3.613281 7.082031 3.957031 C 7.082031 4.039062 7.101562 4.117188 7.128906 4.191406 C 6.863281 4.261719 6.667969 4.503906 6.667969 4.792969 C 6.667969 4.875 6.683594 4.953125 6.710938 5.023438 C 6.617188 5.050781 6.53125 5.097656 6.457031 5.164062 C 6.347656 5.0625 6.203125 5 6.042969 5 C 5.941406 5 5.851562 5.023438 5.765625 5.066406 C 5.808594 4.984375 5.832031 4.890625 5.832031 4.792969 C 5.832031 4.445312 5.554688 4.167969 5.207031 4.167969 C 5.125 4.167969 5.046875 4.183594 4.976562 4.210938 C 4.902344 3.945312 4.664062 3.75 4.375 3.75 C 4.03125 3.75 3.75 4.03125 3.75 4.375 C 3.75 4.457031 3.765625 4.535156 3.796875 4.609375 C 3.699219 4.632812 3.613281 4.679688 3.542969 4.746094 C 3.429688 4.644531 3.285156 4.582031 3.125 4.582031 C 2.78125 4.582031 2.5 4.863281 2.5 5.207031 C 2.5 5.28125 2.515625 5.351562 2.539062 5.417969 L 3.371094 5.417969 C 3.457031 5.175781 3.6875 5 3.957031 5 Z M 3.957031 5 "/>
<path style=" stroke:none;fill-rule:nonzero;fill:rgb(100%,100%,100%);fill-opacity:1;" d="M 1.667969 5.417969 L 1.667969 5.832031 C 1.667969 6.0625 1.851562 6.25 2.082031 6.25 L 12.917969 6.25 C 13.148438 6.25 13.332031 6.0625 13.332031 5.832031 L 13.332031 5.417969 Z M 1.667969 5.417969 "/>
</g>
</svg>
