<?xml version="1.0" encoding="UTF-8"?>
<svg xmlns="http://www.w3.org/2000/svg" xmlns:xlink="http://www.w3.org/1999/xlink" width="15pt" height="15pt" viewBox="0 0 15 15" version="1.1">
<g id="surface1">
<path style=" stroke:none;fill-rule:nonzero;fill:rgb(16.078431%,18.431373%,20%);fill-opacity:1;" d="M 14.265625 11.636719 C 13.972656 11.34375 12.660156 10.527344 11.375 9.820312 C 12.082031 8.808594 12.5 7.578125 12.5 6.25 C 12.5 2.796875 9.703125 0 6.25 0 C 2.796875 0 0 2.796875 0 6.25 C 0 9.703125 2.796875 12.5 6.25 12.5 C 7.566406 12.5 8.785156 12.089844 9.792969 11.394531 C 10.503906 12.679688 11.320312 13.996094 11.613281 14.289062 C 12.203125 14.878906 12.917969 15 13.332031 15 C 13.824219 15 15.023438 13.800781 15 13.332031 C 14.980469 12.917969 14.855469 12.226562 14.265625 11.636719 Z M 14.265625 11.636719 "/>
<path style=" stroke:none;fill-rule:nonzero;fill:rgb(40%,45.882353%,49.803922%);fill-opacity:1;" d="M 11.25 6.25 C 11.25 9.011719 9.011719 11.25 6.25 11.25 C 3.488281 11.25 1.25 9.011719 1.25 6.25 C 1.25 3.488281 3.488281 1.25 6.25 1.25 C 9.011719 1.25 11.25 3.488281 11.25 6.25 Z M 11.25 6.25 "/>
<path style=" stroke:none;fill-rule:nonzero;fill:rgb(96.078431%,97.254902%,98.039216%);fill-opacity:1;" d="M 6.667969 10.417969 C 8.691406 9.777344 8.332031 8.332031 8.332031 6.667969 C 8.332031 5 10 3.871094 8.472656 2.605469 C 7.566406 1.851562 5.660156 1.597656 4.773438 1.925781 C 3.960938 2.230469 2.917969 2.847656 2.917969 4.097656 C 2.917969 5.347656 2.890625 5.316406 2.203125 6.441406 C 1.109375 8.230469 3.800781 11.320312 6.667969 10.417969 Z M 6.667969 10.417969 "/>
<path style=" stroke:none;fill-rule:nonzero;fill:rgb(100%,67.45098%,20%);fill-opacity:1;" d="M 7.082031 7.5 C 7.082031 8.421875 6.335938 9.167969 5.417969 9.167969 C 4.496094 9.167969 3.75 8.421875 3.75 7.5 C 3.75 6.578125 4.496094 5.832031 5.417969 5.832031 C 6.335938 5.832031 7.082031 6.578125 7.082031 7.5 Z M 7.082031 7.5 "/>
</g>
</svg>
