<?xml version="1.0" encoding="UTF-8"?>
<svg xmlns="http://www.w3.org/2000/svg" xmlns:xlink="http://www.w3.org/1999/xlink" width="15pt" height="15pt" viewBox="0 0 15 15" version="1.1">
<g id="surface1">
<path style=" stroke:none;fill-rule:nonzero;fill:rgb(53.333333%,60%,65.098039%);fill-opacity:1;" d="M 7.917969 8.441406 C 7.917969 8.441406 12.101562 7.515625 12.101562 1.769531 C 12.101562 1.152344 11.613281 0.832031 10.675781 0.832031 L 3.804688 0.832031 C 3.335938 0.832031 2.417969 0.722656 2.417969 1.71875 C 2.417969 7.429688 6.667969 8.441406 6.667969 8.441406 L 6.667969 12.65625 C 6.667969 12.65625 4.757812 13.632812 4.375 13.859375 C 3.964844 14.09375 4.238281 14.46875 4.402344 14.53125 C 4.675781 14.640625 5.339844 14.992188 7.226562 14.992188 C 9.160156 14.992188 9.8125 14.609375 10.046875 14.53125 C 10.136719 14.503906 10.605469 14.144531 10.050781 13.816406 C 9.058594 13.226562 7.917969 12.65625 7.917969 12.65625 Z M 7.917969 8.441406 "/>
<path style=" stroke:none;fill-rule:nonzero;fill:rgb(80%,83.921569%,86.666667%);fill-opacity:1;" d="M 12.082031 1.433594 C 12.082031 2.109375 10.605469 2.65625 7.242188 2.65625 C 3.875 2.65625 2.398438 2.109375 2.398438 1.433594 C 2.398438 0.757812 3.875 0.210938 7.242188 0.210938 C 10.605469 0.210938 12.082031 0.757812 12.082031 1.433594 Z M 12.082031 1.433594 "/>
<path style=" stroke:none;fill-rule:nonzero;fill:rgb(80%,83.921569%,86.666667%);fill-opacity:1;" d="M 3.109375 1.492188 C 3.957031 5.453125 5.382812 6.824219 6.730469 7.257812 C 7.195312 7.40625 7.578125 7.4375 7.898438 7.308594 C 9.359375 6.734375 11.042969 4.949219 11.300781 1.648438 C 11.371094 0.800781 3.109375 1.492188 3.109375 1.492188 Z M 3.109375 1.492188 "/>
<path style=" stroke:none;fill-rule:nonzero;fill:rgb(62.745098%,1.568627%,11.764706%);fill-opacity:1;" d="M 3.75 3.957031 C 3.75 5.417969 5.140625 7.5 7.222656 7.5 C 9.304688 7.5 10.832031 5.226562 10.832031 3.976562 C 8.332031 3.976562 3.75 3.957031 3.75 3.957031 Z M 3.75 3.957031 "/>
<path style=" stroke:none;fill-rule:nonzero;fill:rgb(86.666667%,18.039216%,26.666667%);fill-opacity:1;" d="M 10.832031 3.957031 C 10.832031 3.613281 9.246094 3.332031 7.292969 3.332031 C 5.335938 3.332031 3.75 3.613281 3.75 3.957031 C 3.75 4.304688 5.335938 4.582031 7.292969 4.582031 C 9.246094 4.582031 10.832031 4.304688 10.832031 3.957031 Z M 10.832031 3.957031 "/>
<path style=" stroke:none;fill-rule:nonzero;fill:rgb(100%,100%,100%);fill-opacity:1;" d="M 7.152344 2.773438 C 5.058594 2.773438 3.492188 2.3125 3.070312 2.113281 C 2.859375 2.015625 2.773438 1.765625 2.871094 1.558594 C 2.964844 1.351562 3.214844 1.261719 3.421875 1.359375 C 3.941406 1.601562 7.363281 2.566406 11.171875 1.304688 C 11.390625 1.234375 11.625 1.351562 11.699219 1.570312 C 11.769531 1.789062 11.652344 2.023438 11.433594 2.097656 C 9.902344 2.601562 8.429688 2.773438 7.152344 2.773438 Z M 7.152344 2.773438 "/>
</g>
</svg>
