<?xml version="1.0" encoding="UTF-8"?>
<svg xmlns="http://www.w3.org/2000/svg" xmlns:xlink="http://www.w3.org/1999/xlink" width="15pt" height="15pt" viewBox="0 0 15 15" version="1.1">
<g id="surface1">
<path style=" stroke:none;fill-rule:nonzero;fill:rgb(53.333333%,60%,65.098039%);fill-opacity:1;" d="M 7.917969 11.355469 C 7.917969 11.355469 11.25 11.265625 11.9375 9.660156 C 12.382812 8.617188 11.683594 5.675781 11.683594 3.855469 C 11.683594 3.238281 11.199219 2.917969 10.261719 2.917969 L 4.21875 2.917969 C 3.75 2.917969 2.832031 2.808594 2.832031 3.800781 C 2.832031 5.585938 2.097656 8.527344 2.570312 9.558594 C 3.351562 11.265625 6.667969 11.355469 6.667969 11.355469 L 6.667969 12.65625 C 6.667969 12.65625 4.757812 13.632812 4.375 13.859375 C 3.964844 14.09375 4.238281 14.46875 4.402344 14.53125 C 4.675781 14.640625 5.339844 14.992188 7.226562 14.992188 C 9.160156 14.992188 9.8125 14.609375 10.046875 14.53125 C 10.136719 14.503906 10.605469 14.144531 10.050781 13.816406 C 9.058594 13.226562 7.917969 12.65625 7.917969 12.65625 Z M 7.917969 11.355469 "/>
<path style=" stroke:none;fill-rule:nonzero;fill:rgb(80%,83.921569%,86.666667%);fill-opacity:1;" d="M 11.667969 3.515625 C 11.667969 4.191406 10.605469 4.742188 7.242188 4.742188 C 3.875 4.742188 2.8125 4.191406 2.8125 3.515625 C 2.8125 2.839844 3.875 2.292969 7.242188 2.292969 C 10.605469 2.292969 11.667969 2.84375 11.667969 3.515625 Z M 11.667969 3.515625 "/>
<path style=" stroke:none;fill-rule:nonzero;fill:rgb(80%,83.921569%,86.666667%);fill-opacity:1;" d="M 3.523438 3.578125 C 4.375 7.535156 2.515625 9.234375 4.390625 9.894531 C 6.65625 10.691406 7.953125 10.558594 10 9.894531 C 11.875 9.289062 10.625 7.03125 10.886719 3.734375 C 10.953125 2.882812 3.523438 3.578125 3.523438 3.578125 Z M 3.523438 3.578125 "/>
<path style=" stroke:none;fill-rule:nonzero;fill:rgb(95.686275%,56.470588%,4.705882%);fill-opacity:1;" d="M 3.765625 6.078125 C 3.734375 6.527344 3.3125 8.628906 3.507812 9.113281 C 3.714844 9.636719 4.234375 10.46875 7.222656 10.46875 C 9.410156 10.46875 10.796875 9.808594 11.023438 8.976562 C 11.222656 8.25 10.921875 6.648438 10.886719 6.058594 "/>
<path style=" stroke:none;fill-rule:nonzero;fill:rgb(100%,80%,30.196078%);fill-opacity:1;" d="M 10.832031 6.042969 C 10.832031 5.695312 9.246094 5.417969 7.292969 5.417969 C 5.335938 5.417969 3.75 5.695312 3.75 6.042969 C 3.75 6.386719 5.335938 6.667969 7.292969 6.667969 C 9.246094 6.667969 10.832031 6.386719 10.832031 6.042969 Z M 10.832031 6.042969 "/>
<path style=" stroke:none;fill-rule:nonzero;fill:rgb(75.686275%,41.176471%,30.980392%);fill-opacity:1;" d="M 10.308594 2.042969 C 10.308594 2.042969 7.84375 7.839844 7.714844 8.105469 C 7.558594 8.429688 7.964844 8.886719 8.328125 8.304688 C 8.6875 7.726562 11.136719 2.597656 11.136719 2.597656 Z M 10.308594 2.042969 "/>
<path style=" stroke:none;fill-rule:nonzero;fill:rgb(100%,100%,100%);fill-opacity:1;" d="M 7.210938 4.863281 C 5.425781 4.863281 4.015625 4.445312 3.484375 4.195312 C 3.277344 4.097656 3.1875 3.851562 3.285156 3.640625 C 3.382812 3.433594 3.632812 3.34375 3.839844 3.441406 C 3.871094 3.457031 7.050781 4.808594 10.738281 3.394531 C 10.949219 3.3125 11.191406 3.421875 11.273438 3.636719 C 11.355469 3.851562 11.25 4.089844 11.035156 4.175781 C 9.691406 4.6875 8.371094 4.863281 7.210938 4.863281 Z M 7.210938 4.863281 "/>
<path style=" stroke:none;fill-rule:nonzero;fill:rgb(100%,67.45098%,20%);fill-opacity:1;" d="M 8.625 5.996094 L 8.347656 6.636719 C 8.640625 6.628906 8.953125 6.601562 9.21875 6.566406 L 9.414062 6.160156 C 9.160156 6.164062 8.902344 6.113281 8.625 5.996094 Z M 8.625 5.996094 "/>
<path style=" stroke:none;fill-rule:nonzero;fill:rgb(80%,43.529412%,0%);fill-opacity:1;" d="M 7.714844 8.105469 C 7.558594 8.429688 7.964844 8.886719 8.328125 8.304688 C 8.445312 8.113281 8.796875 7.417969 9.210938 6.578125 C 8.964844 6.605469 8.644531 6.628906 8.34375 6.644531 C 8.007812 7.429688 7.753906 8.023438 7.714844 8.105469 Z M 7.714844 8.105469 "/>
<path style=" stroke:none;fill-rule:nonzero;fill:rgb(46.666667%,69.803922%,33.333333%);fill-opacity:1;" d="M 14.332031 4.011719 C 13.90625 3.351562 12.082031 0.804688 12.003906 0.695312 C 11.925781 0.585938 11.800781 0.519531 11.667969 0.519531 C 11.058594 0.519531 9.683594 0.515625 8.652344 0.507812 C 8.035156 0.507812 7.542969 0.503906 7.414062 0.503906 C 7.144531 0.503906 6.921875 0.679688 6.863281 0.945312 C 6.722656 1.5625 7.5 2.734375 10.148438 4.003906 C 11.90625 4.847656 12.925781 5.023438 13.472656 5.023438 C 14.085938 5.023438 14.320312 4.792969 14.410156 4.601562 C 14.5 4.40625 14.46875 4.1875 14.332031 4.011719 Z M 14.332031 4.011719 "/>
<path style=" stroke:none;fill-rule:nonzero;fill:rgb(36.078431%,56.862745%,23.137255%);fill-opacity:1;" d="M 10.890625 4.339844 C 12.199219 4.890625 13.007812 5.023438 13.46875 5.023438 L 13.472656 5.023438 C 14.085938 5.023438 14.320312 4.792969 14.410156 4.601562 C 14.5 4.40625 14.46875 4.1875 14.332031 4.011719 C 14.058594 3.589844 13.214844 2.394531 12.621094 1.558594 C 12.960938 2.632812 13.085938 4.253906 10.890625 4.339844 Z M 10.890625 4.339844 "/>
<path style=" stroke:none;fill-rule:nonzero;fill:rgb(24.313725%,44.705882%,11.372549%);fill-opacity:1;" d="M 12.449219 0.703125 C 12.449219 1.089844 12.132812 1.40625 11.746094 1.40625 C 11.355469 1.40625 11.042969 1.089844 11.042969 0.703125 C 11.042969 0.316406 11.355469 0 11.746094 0 C 12.132812 0 12.449219 0.316406 12.449219 0.703125 Z M 12.449219 0.703125 "/>
</g>
</svg>
