<?xml version="1.0" encoding="UTF-8"?>
<svg xmlns="http://www.w3.org/2000/svg" xmlns:xlink="http://www.w3.org/1999/xlink" width="15pt" height="15pt" viewBox="0 0 15 15" version="1.1">
<g id="surface1">
<path style=" stroke:none;fill-rule:nonzero;fill:rgb(16.078431%,18.431373%,20%);fill-opacity:1;" d="M 12.917969 0 L 2.082031 0 C 1.164062 0 0.417969 0.746094 0.417969 1.667969 L 0.417969 13.332031 C 0.417969 14.253906 1.164062 15 2.082031 15 L 12.917969 15 C 13.835938 15 14.582031 14.253906 14.582031 13.332031 L 14.582031 1.667969 C 14.582031 0.746094 13.835938 0 12.917969 0 Z M 12.917969 0 "/>
<path style=" stroke:none;fill-rule:nonzero;fill:rgb(16.078431%,18.431373%,20%);fill-opacity:1;" d="M 5.832031 4.582031 C 5.832031 5.503906 5.085938 6.25 4.167969 6.25 L 3.75 6.25 C 2.828125 6.25 2.082031 5.503906 2.082031 4.582031 L 2.082031 3.75 C 2.082031 2.828125 2.828125 2.082031 3.75 2.082031 L 4.167969 2.082031 C 5.085938 2.082031 5.832031 2.828125 5.832031 3.75 Z M 5.832031 4.582031 "/>
<path style=" stroke:none;fill-rule:nonzero;fill:rgb(74.509804%,9.803922%,19.215686%);fill-opacity:1;" d="M 9.167969 11.25 C 9.167969 11.710938 8.792969 12.082031 8.332031 12.082031 L 2.082031 12.082031 C 1.625 12.082031 1.25 11.710938 1.25 11.25 L 1.25 7.917969 C 1.25 7.457031 1.625 7.082031 2.082031 7.082031 L 8.332031 7.082031 C 8.792969 7.082031 9.167969 7.457031 9.167969 7.917969 Z M 13.75 7.917969 C 13.75 7.457031 13.375 7.082031 12.917969 7.082031 L 10.832031 7.082031 C 10.375 7.082031 10 7.457031 10 7.917969 L 10 11.25 C 10 11.710938 10.375 12.082031 10.832031 12.082031 L 12.917969 12.082031 C 13.375 12.082031 13.75 11.710938 13.75 11.25 Z M 6.667969 1.667969 C 6.667969 1.207031 7.039062 0.832031 7.5 0.832031 L 12.917969 0.832031 C 13.375 0.832031 13.75 1.207031 13.75 1.667969 L 13.75 5.417969 C 13.75 5.875 13.375 6.25 12.917969 6.25 L 7.5 6.25 C 7.039062 6.25 6.667969 5.875 6.667969 5.417969 Z M 5.832031 5.417969 C 5.832031 5.875 5.460938 6.25 5 6.25 L 2.082031 6.25 C 1.625 6.25 1.25 5.875 1.25 5.417969 L 1.25 1.667969 C 1.25 1.207031 1.625 0.832031 2.082031 0.832031 L 5 0.832031 C 5.460938 0.832031 5.832031 1.207031 5.832031 1.667969 Z M 5.832031 5.417969 "/>
<path style=" stroke:none;fill-rule:nonzero;fill:rgb(86.666667%,18.039216%,26.666667%);fill-opacity:1;" d="M 5.832031 5.417969 C 5.832031 5.875 5.460938 6.25 5 6.25 L 2.082031 6.25 C 1.625 6.25 1.25 5.875 1.25 5.417969 L 1.25 2.917969 C 1.25 2.457031 1.625 2.082031 2.082031 2.082031 L 5 2.082031 C 5.460938 2.082031 5.832031 2.457031 5.832031 2.917969 Z M 13.75 5.417969 C 13.75 5.875 13.375 6.25 12.917969 6.25 L 7.5 6.25 C 7.039062 6.25 6.667969 5.875 6.667969 5.417969 L 6.667969 2.917969 C 6.667969 2.457031 7.039062 2.082031 7.5 2.082031 L 12.917969 2.082031 C 13.375 2.082031 13.75 2.457031 13.75 2.917969 Z M 13.75 5.417969 "/>
<path style=" stroke:none;fill-rule:nonzero;fill:rgb(88.235294%,90.980392%,92.941176%);fill-opacity:1;" d="M 9.167969 11.25 C 9.167969 11.710938 8.792969 12.082031 8.332031 12.082031 L 2.082031 12.082031 C 1.625 12.082031 1.25 11.710938 1.25 11.25 L 1.25 9.167969 C 1.25 8.707031 1.625 8.332031 2.082031 8.332031 L 8.332031 8.332031 C 8.792969 8.332031 9.167969 8.707031 9.167969 9.167969 Z M 9.167969 11.25 "/>
<path style=" stroke:none;fill-rule:nonzero;fill:rgb(86.666667%,18.039216%,26.666667%);fill-opacity:1;" d="M 13.75 11.25 C 13.75 11.710938 13.375 12.082031 12.917969 12.082031 L 10.832031 12.082031 C 10.375 12.082031 10 11.710938 10 11.25 L 10 9.167969 C 10 8.707031 10.375 8.332031 10.832031 8.332031 L 12.917969 8.332031 C 13.375 8.332031 13.75 8.707031 13.75 9.167969 Z M 13.75 11.25 "/>
<path style=" stroke:none;fill-rule:nonzero;fill:rgb(100%,67.45098%,20%);fill-opacity:1;" d="M 11.257812 3.851562 C 11.804688 4.464844 12.050781 5.140625 11.808594 5.359375 L 11.367188 5.75 C 11.121094 5.96875 10.480469 5.644531 9.933594 5.027344 L 8.445312 3.355469 C 7.898438 2.738281 7.648438 2.066406 7.894531 1.847656 L 8.335938 1.457031 C 8.578125 1.238281 9.21875 1.5625 9.769531 2.175781 Z M 11.257812 3.851562 "/>
<path style=" stroke:none;fill-rule:nonzero;fill:rgb(100%,85.098039%,51.372549%);fill-opacity:1;" d="M 9.285156 4.613281 C 9.035156 5.257812 8.667969 5.710938 8.464844 5.632812 L 8.101562 5.492188 C 7.898438 5.414062 7.9375 4.828125 8.1875 4.1875 L 8.863281 2.449219 C 9.113281 1.808594 9.480469 1.351562 9.679688 1.429688 L 10.046875 1.570312 C 10.246094 1.648438 10.210938 2.234375 9.960938 2.875 Z M 9.285156 4.613281 "/>
<path style=" stroke:none;fill-rule:nonzero;fill:rgb(100%,85.098039%,51.372549%);fill-opacity:1;" d="M 9.628906 4.808594 C 8.980469 5.03125 8.394531 5.042969 8.324219 4.839844 L 8.199219 4.46875 C 8.128906 4.261719 8.597656 3.914062 9.25 3.691406 L 11.015625 3.089844 C 11.667969 2.867188 12.25 2.851562 12.320312 3.058594 L 12.449219 3.429688 C 12.519531 3.632812 12.046875 3.980469 11.398438 4.203125 Z M 9.628906 4.808594 "/>
<path style=" stroke:none;fill-rule:nonzero;fill:rgb(36.078431%,56.862745%,23.137255%);fill-opacity:1;" d="M 2.683594 3.28125 C 2.839844 1.570312 4.730469 2.878906 5.65625 3.71875 C 5.097656 4.335938 2.496094 5.355469 2.683594 3.28125 Z M 2.683594 3.28125 "/>
<path style=" stroke:none;fill-rule:nonzero;fill:rgb(36.078431%,56.862745%,23.137255%);fill-opacity:1;" d="M 2.742188 3.242188 C 4.300781 2.519531 4.117188 4.8125 3.855469 6.035156 C 3.042969 5.863281 0.855469 4.121094 2.742188 3.242188 Z M 2.742188 3.242188 "/>
<path style=" stroke:none;fill-rule:nonzero;fill:rgb(46.666667%,69.803922%,33.333333%);fill-opacity:1;" d="M 2.082031 3.332031 C 1.582031 2.667969 2.5 1.25 4.582031 1.25 C 5 1.667969 3.332031 5 2.082031 3.332031 Z M 2.082031 3.332031 "/>
<path style=" stroke:none;fill-rule:nonzero;fill:rgb(69.803922%,76.078431%,80%);fill-opacity:1;" d="M 2.5 11.25 C 2.394531 11.25 2.285156 11.210938 2.207031 11.128906 C 2.042969 10.964844 2.042969 10.703125 2.207031 10.539062 L 2.621094 10.121094 C 2.785156 9.960938 3.046875 9.960938 3.210938 10.121094 C 3.375 10.285156 3.375 10.546875 3.210938 10.710938 L 2.792969 11.128906 C 2.714844 11.210938 2.605469 11.25 2.5 11.25 Z M 7.671875 11.457031 C 7.566406 11.457031 7.460938 11.417969 7.378906 11.335938 L 6.960938 10.917969 C 6.800781 10.757812 6.800781 10.492188 6.960938 10.328125 C 7.125 10.167969 7.390625 10.167969 7.550781 10.328125 L 7.96875 10.746094 C 8.132812 10.910156 8.132812 11.171875 7.96875 11.335938 C 7.886719 11.417969 7.78125 11.457031 7.671875 11.457031 Z M 5.105469 9.671875 C 4.996094 9.671875 4.890625 9.628906 4.808594 9.546875 L 4.617188 9.359375 C 4.457031 9.195312 4.453125 8.929688 4.617188 8.769531 C 4.78125 8.605469 5.042969 8.605469 5.207031 8.765625 L 5.398438 8.957031 C 5.5625 9.121094 5.5625 9.382812 5.398438 9.546875 C 5.316406 9.628906 5.210938 9.671875 5.105469 9.671875 Z M 5.105469 9.671875 "/>
<path style=" stroke:none;fill-rule:nonzero;fill:rgb(69.803922%,38.823529%,1.568627%);fill-opacity:1;" d="M 13.394531 9.753906 C 13.691406 10.109375 13.640625 10.632812 13.289062 10.929688 L 12.328125 11.730469 C 11.972656 12.023438 11.449219 11.976562 11.15625 11.621094 L 10.355469 10.660156 C 10.058594 10.308594 10.109375 9.78125 10.460938 9.488281 L 11.421875 8.6875 C 11.773438 8.394531 12.300781 8.441406 12.59375 8.792969 Z M 13.394531 9.753906 "/>
<path style=" stroke:none;fill-rule:nonzero;fill:rgb(95.686275%,56.470588%,4.705882%);fill-opacity:1;" d="M 13.394531 8.921875 C 13.691406 9.273438 13.640625 9.800781 13.289062 10.09375 L 12.328125 10.894531 C 11.972656 11.191406 11.449219 11.140625 11.15625 10.789062 L 10.355469 9.828125 C 10.058594 9.472656 10.109375 8.949219 10.460938 8.65625 L 11.421875 7.855469 C 11.773438 7.558594 12.300781 7.609375 12.59375 7.960938 Z M 13.394531 8.921875 "/>
<path style=" stroke:none;fill-rule:nonzero;fill:rgb(80%,83.921569%,86.666667%);fill-opacity:1;" d="M 5.417969 10.832031 C 5.417969 11.0625 5.230469 11.25 5 11.25 C 4.769531 11.25 4.582031 11.0625 4.582031 10.832031 C 4.582031 10.601562 4.769531 10.417969 5 10.417969 C 5.230469 10.417969 5.417969 10.601562 5.417969 10.832031 Z M 5.417969 10.832031 "/>
<path style=" stroke:none;fill-rule:nonzero;fill:rgb(80%,83.921569%,86.666667%);fill-opacity:1;" d="M 8.75 9.167969 C 8.75 9.398438 8.5625 9.582031 8.332031 9.582031 C 8.101562 9.582031 7.917969 9.398438 7.917969 9.167969 C 7.917969 8.9375 8.101562 8.75 8.332031 8.75 C 8.5625 8.75 8.75 8.9375 8.75 9.167969 Z M 8.75 9.167969 "/>
</g>
</svg>
