<?xml version="1.0" encoding="UTF-8"?>
<svg xmlns="http://www.w3.org/2000/svg" xmlns:xlink="http://www.w3.org/1999/xlink" width="15pt" height="15pt" viewBox="0 0 15 15" version="1.1">
<g id="surface1">
<path style=" stroke:none;fill-rule:nonzero;fill:rgb(100%,67.45098%,20%);fill-opacity:1;" d="M 12.917969 2.382812 L 10.417969 2.382812 L 10.417969 4.050781 L 12.082031 4.050781 C 12.082031 4.050781 12.917969 4.050781 12.917969 4.882812 L 12.917969 9.882812 C 12.917969 10.714844 12.082031 10.714844 12.082031 10.714844 L 10.417969 10.714844 L 10.417969 12.382812 L 12.917969 12.382812 C 13.835938 12.382812 14.582031 11.636719 14.582031 10.714844 L 14.582031 4.050781 C 14.582031 3.128906 13.835938 2.382812 12.917969 2.382812 Z M 12.917969 2.382812 "/>
<path style=" stroke:none;fill-rule:nonzero;fill:rgb(100%,80%,30.196078%);fill-opacity:1;" d="M 11.25 2.5 L 1.25 2.5 L 1.25 13.332031 C 1.25 14.253906 1.996094 15 2.917969 15 L 9.582031 15 C 10.503906 15 11.25 14.253906 11.25 13.332031 Z M 11.25 2.5 "/>
<path style=" stroke:none;fill-rule:nonzero;fill:rgb(95.686275%,56.470588%,4.705882%);fill-opacity:1;" d="M 3.542969 13.332031 C 3.3125 13.332031 3.125 13.148438 3.125 12.917969 L 3.125 6.25 C 3.125 6.019531 3.3125 5.832031 3.542969 5.832031 C 3.773438 5.832031 3.957031 6.019531 3.957031 6.25 L 3.957031 12.917969 C 3.957031 13.148438 3.773438 13.332031 3.542969 13.332031 Z M 6.25 13.332031 C 6.019531 13.332031 5.832031 13.148438 5.832031 12.917969 L 5.832031 6.25 C 5.832031 6.019531 6.019531 5.832031 6.25 5.832031 C 6.480469 5.832031 6.667969 6.019531 6.667969 6.25 L 6.667969 12.917969 C 6.667969 13.148438 6.480469 13.332031 6.25 13.332031 Z M 8.957031 13.332031 C 8.726562 13.332031 8.542969 13.148438 8.542969 12.917969 L 8.542969 6.25 C 8.542969 6.019531 8.726562 5.832031 8.957031 5.832031 C 9.1875 5.832031 9.375 6.019531 9.375 6.25 L 9.375 12.917969 C 9.375 13.148438 9.1875 13.332031 8.957031 13.332031 Z M 8.957031 13.332031 "/>
<path style=" stroke:none;fill-rule:nonzero;fill:rgb(100%,67.45098%,20%);fill-opacity:1;" d="M 1.25 2.082031 L 1.25 5.183594 C 1.496094 5.328125 1.777344 5.417969 2.082031 5.417969 C 2.78125 5.417969 3.375 4.988281 3.625 4.378906 C 3.769531 4.503906 3.960938 4.582031 4.167969 4.582031 C 4.449219 4.582031 4.695312 4.441406 4.847656 4.226562 C 5.144531 4.691406 5.660156 5 6.25 5 C 6.792969 5 7.269531 4.738281 7.574219 4.335938 C 7.726562 4.722656 8.101562 5 8.542969 5 C 8.9375 5 9.277344 4.777344 9.453125 4.453125 L 9.515625 4.300781 C 9.722656 4.414062 9.957031 4.484375 10.207031 4.484375 C 10.617188 4.484375 10.984375 4.316406 11.25 4.046875 L 11.25 2.082031 Z M 1.25 2.082031 "/>
<path style=" stroke:none;fill-rule:nonzero;fill:rgb(93.333333%,93.333333%,93.333333%);fill-opacity:1;" d="M 10 0 L 1.667969 0 C 0.976562 0 0.417969 0.558594 0.417969 1.25 L 0.417969 2.917969 C 0.417969 3.835938 1.164062 4.582031 2.082031 4.582031 C 2.78125 4.582031 3.375 4.152344 3.625 3.546875 C 3.769531 3.671875 3.960938 3.75 4.167969 3.75 C 4.449219 3.75 4.695312 3.609375 4.847656 3.394531 C 5.144531 3.859375 5.660156 4.167969 6.25 4.167969 C 6.792969 4.167969 7.269531 3.902344 7.574219 3.503906 C 7.726562 3.890625 8.101562 4.167969 8.542969 4.167969 C 8.9375 4.167969 9.277344 3.945312 9.453125 3.621094 C 9.621094 3.699219 9.804688 3.75 10 3.75 C 10.691406 3.75 11.25 3.191406 11.25 2.5 L 11.25 1.25 C 11.25 0.558594 10.691406 0 10 0 Z M 10 0 "/>
</g>
</svg>
