<?xml version="1.0" encoding="UTF-8"?>
<svg xmlns="http://www.w3.org/2000/svg" xmlns:xlink="http://www.w3.org/1999/xlink" width="15pt" height="15pt" viewBox="0 0 15 15" version="1.1">
<g id="surface1">
<path style=" stroke:none;fill-rule:nonzero;fill:rgb(88.235294%,90.980392%,92.941176%);fill-opacity:1;" d="M 15 7.5 C 15 11.640625 11.640625 15 7.5 15 C 3.359375 15 0 11.640625 0 7.5 C 0 3.359375 3.359375 0 7.5 0 C 11.640625 0 15 3.359375 15 7.5 Z M 15 7.5 "/>
<path style=" stroke:none;fill-rule:nonzero;fill:rgb(80%,83.921569%,86.666667%);fill-opacity:1;" d="M 12.5 7.5 C 12.5 10.261719 10.261719 12.5 7.5 12.5 C 4.738281 12.5 2.5 10.261719 2.5 7.5 C 2.5 4.738281 4.738281 2.5 7.5 2.5 C 10.261719 2.5 12.5 4.738281 12.5 7.5 Z M 12.5 7.5 "/>
<path style=" stroke:none;fill-rule:nonzero;fill:rgb(88.235294%,90.980392%,92.941176%);fill-opacity:1;" d="M 12.082031 7.5 C 12.082031 10.03125 10.03125 12.082031 7.5 12.082031 C 4.96875 12.082031 2.917969 10.03125 2.917969 7.5 C 2.917969 4.96875 4.96875 2.917969 7.5 2.917969 C 10.03125 2.917969 12.082031 4.96875 12.082031 7.5 Z M 12.082031 7.5 "/>
<path style=" stroke:none;fill-rule:nonzero;fill:rgb(60%,66.666667%,70.980392%);fill-opacity:1;" d="M 0.832031 0.417969 C 0.832031 0.648438 0.648438 0.832031 0.417969 0.832031 C 0.1875 0.832031 0 0.648438 0 0.417969 C 0 0.1875 0.1875 0 0.417969 0 C 0.648438 0 0.832031 0.1875 0.832031 0.417969 Z M 0.832031 0.417969 "/>
<path style=" stroke:none;fill-rule:nonzero;fill:rgb(60%,66.666667%,70.980392%);fill-opacity:1;" d="M 0 0.417969 L 0.832031 0.417969 L 0.832031 3.332031 L 0 3.332031 Z M 0 0.417969 "/>
<path style=" stroke:none;fill-rule:nonzero;fill:rgb(60%,66.666667%,70.980392%);fill-opacity:1;" d="M 2.5 0.417969 C 2.5 0.648438 2.3125 0.832031 2.082031 0.832031 C 1.851562 0.832031 1.667969 0.648438 1.667969 0.417969 C 1.667969 0.1875 1.851562 0 2.082031 0 C 2.3125 0 2.5 0.1875 2.5 0.417969 Z M 2.5 0.417969 "/>
<path style=" stroke:none;fill-rule:nonzero;fill:rgb(60%,66.666667%,70.980392%);fill-opacity:1;" d="M 1.667969 0.417969 L 2.5 0.417969 L 2.5 3.332031 L 1.667969 3.332031 Z M 1.667969 0.417969 "/>
<path style=" stroke:none;fill-rule:nonzero;fill:rgb(60%,66.666667%,70.980392%);fill-opacity:1;" d="M 4.167969 0.417969 C 4.167969 0.648438 3.980469 0.832031 3.75 0.832031 C 3.519531 0.832031 3.332031 0.648438 3.332031 0.417969 C 3.332031 0.1875 3.519531 0 3.75 0 C 3.980469 0 4.167969 0.1875 4.167969 0.417969 Z M 4.167969 0.417969 "/>
<path style=" stroke:none;fill-rule:nonzero;fill:rgb(60%,66.666667%,70.980392%);fill-opacity:1;" d="M 3.332031 0.417969 L 4.167969 0.417969 L 4.167969 3.332031 L 3.332031 3.332031 Z M 1.25 5.832031 L 2.917969 5.832031 L 2.917969 14.167969 L 1.25 14.167969 Z M 1.25 5.832031 "/>
<path style=" stroke:none;fill-rule:nonzero;fill:rgb(60%,66.666667%,70.980392%);fill-opacity:1;" d="M 2.917969 14.167969 C 2.917969 14.625 2.542969 15 2.082031 15 C 1.625 15 1.25 14.625 1.25 14.167969 C 1.25 13.707031 1.625 13.332031 2.082031 13.332031 C 2.542969 13.332031 2.917969 13.707031 2.917969 14.167969 Z M 2.917969 14.167969 "/>
<path style=" stroke:none;fill-rule:nonzero;fill:rgb(60%,66.666667%,70.980392%);fill-opacity:1;" d="M 3.332031 3.332031 C 3.332031 3.5625 3.148438 3.75 2.917969 3.75 C 2.6875 3.75 2.5 3.5625 2.5 3.332031 L 1.667969 3.332031 C 1.667969 3.5625 1.480469 3.75 1.25 3.75 C 1.019531 3.75 0.832031 3.5625 0.832031 3.332031 L 0 3.332031 C 0 4.945312 0.417969 6.25 2.082031 6.25 C 3.75 6.25 4.167969 4.945312 4.167969 3.332031 Z M 3.332031 3.332031 "/>
<path style=" stroke:none;fill-rule:nonzero;fill:rgb(60%,66.666667%,70.980392%);fill-opacity:1;" d="M 0.832031 3.332031 C 0.832031 3.5625 0.648438 3.75 0.417969 3.75 C 0.1875 3.75 0 3.5625 0 3.332031 C 0 3.101562 0.1875 2.917969 0.417969 2.917969 C 0.648438 2.917969 0.832031 3.101562 0.832031 3.332031 Z M 0.832031 3.332031 "/>
<path style=" stroke:none;fill-rule:nonzero;fill:rgb(60%,66.666667%,70.980392%);fill-opacity:1;" d="M 2.5 3.332031 C 2.5 3.5625 2.3125 3.75 2.082031 3.75 C 1.851562 3.75 1.667969 3.5625 1.667969 3.332031 C 1.667969 3.101562 1.851562 2.917969 2.082031 2.917969 C 2.3125 2.917969 2.5 3.101562 2.5 3.332031 Z M 2.5 3.332031 "/>
<path style=" stroke:none;fill-rule:nonzero;fill:rgb(60%,66.666667%,70.980392%);fill-opacity:1;" d="M 4.167969 3.332031 C 4.167969 3.5625 3.980469 3.75 3.75 3.75 C 3.519531 3.75 3.332031 3.5625 3.332031 3.332031 C 3.332031 3.101562 3.519531 2.917969 3.75 2.917969 C 3.980469 2.917969 4.167969 3.101562 4.167969 3.332031 Z M 4.167969 3.332031 "/>
<path style=" stroke:none;fill-rule:nonzero;fill:rgb(60%,66.666667%,70.980392%);fill-opacity:1;" d="M 12.5 5.832031 L 14.167969 5.832031 L 14.167969 14.167969 L 12.5 14.167969 Z M 12.5 5.832031 "/>
<path style=" stroke:none;fill-rule:nonzero;fill:rgb(60%,66.666667%,70.980392%);fill-opacity:1;" d="M 14.167969 14.167969 C 14.167969 14.625 13.792969 15 13.332031 15 C 12.875 15 12.5 14.625 12.5 14.167969 C 12.5 13.707031 12.875 13.332031 13.332031 13.332031 C 13.792969 13.332031 14.167969 13.707031 14.167969 14.167969 Z M 14.167969 14.167969 "/>
<path style=" stroke:none;fill-rule:nonzero;fill:rgb(60%,66.666667%,70.980392%);fill-opacity:1;" d="M 13.332031 0 C 13.75 0 14.167969 0.417969 14.167969 1.25 L 14.167969 7.917969 C 14.167969 7.917969 11.25 8.75 11.25 4.582031 C 11.25 2.082031 12.5 0 13.332031 0 Z M 13.332031 0 "/>
</g>
</svg>
