<?xml version="1.0" encoding="UTF-8"?>
<svg xmlns="http://www.w3.org/2000/svg" xmlns:xlink="http://www.w3.org/1999/xlink" width="15pt" height="15pt" viewBox="0 0 15 15" version="1.1">
<g id="surface1">
<path style=" stroke:none;fill-rule:nonzero;fill:rgb(100%,67.45098%,20%);fill-opacity:1;" d="M 13.75 3.007812 C 13.75 2.421875 14.046875 2.714844 14.34375 2.421875 C 14.933594 1.832031 15.230469 0.945312 14.640625 0.359375 C 14.050781 -0.230469 13.167969 0.0664062 12.578125 0.65625 C 12.285156 0.949219 12.578125 1.25 11.992188 1.25 L 9.632812 1.25 L 9.929688 1.539062 C 9.929688 1.539062 11.402344 3.601562 11.695312 3.304688 C 11.402344 3.601562 13.460938 5.074219 13.460938 5.074219 L 13.75 5.367188 Z M 13.75 3.007812 "/>
<path style=" stroke:none;fill-rule:nonzero;fill:rgb(80%,83.921569%,86.666667%);fill-opacity:1;" d="M 12.875 6.25 L 8.75 2.125 C 8.457031 2.421875 6.980469 2.125 6.394531 2.714844 L 6.097656 3.007812 L 5.214844 3.894531 L 0.671875 8.433594 C 0.0234375 9.085938 0.0234375 10.140625 0.671875 10.792969 L 4.207031 14.328125 C 4.859375 14.976562 5.914062 14.976562 6.566406 14.328125 L 11.992188 8.902344 L 12.285156 8.605469 C 12.875 8.015625 12.578125 6.542969 12.875 6.25 Z M 12.875 6.25 "/>
<path style=" stroke:none;fill-rule:nonzero;fill:rgb(33.333333%,67.45098%,93.333333%);fill-opacity:1;" d="M 13.609375 6.101562 C 13.203125 6.507812 12.839844 6.804688 12.433594 6.398438 L 8.601562 2.566406 C 8.195312 2.160156 8.492188 1.796875 8.898438 1.386719 C 9.304688 0.980469 9.964844 0.980469 10.371094 1.386719 L 13.609375 4.628906 C 14.019531 5.035156 14.019531 5.695312 13.609375 6.101562 Z M 13.609375 6.101562 "/>
<path style=" stroke:none;fill-rule:nonzero;fill:rgb(60%,66.666667%,70.980392%);fill-opacity:1;" d="M 5.417969 13.332031 C 5.308594 13.332031 5.203125 13.292969 5.121094 13.210938 C 4.960938 13.046875 4.960938 12.785156 5.121094 12.621094 L 10.121094 7.621094 C 10.285156 7.460938 10.546875 7.460938 10.710938 7.621094 C 10.875 7.785156 10.875 8.046875 10.710938 8.210938 L 5.710938 13.210938 C 5.628906 13.292969 5.523438 13.332031 5.417969 13.332031 Z M 3.75 11.667969 C 3.644531 11.667969 3.535156 11.625 3.457031 11.542969 C 3.292969 11.382812 3.292969 11.117188 3.457031 10.957031 L 8.457031 5.957031 C 8.617188 5.792969 8.882812 5.792969 9.042969 5.957031 C 9.207031 6.117188 9.207031 6.382812 9.042969 6.542969 L 4.042969 11.546875 C 3.964844 11.625 3.855469 11.667969 3.75 11.667969 Z M 2.082031 10 C 1.976562 10 1.871094 9.960938 1.789062 9.878906 C 1.625 9.714844 1.625 9.453125 1.789062 9.289062 L 6.789062 4.289062 C 6.953125 4.125 7.214844 4.125 7.378906 4.289062 C 7.539062 4.453125 7.539062 4.714844 7.378906 4.878906 L 2.378906 9.878906 C 2.296875 9.960938 2.191406 10 2.082031 10 Z M 2.082031 10 "/>
</g>
</svg>
