<?xml version="1.0" encoding="UTF-8"?>
<svg xmlns="http://www.w3.org/2000/svg" xmlns:xlink="http://www.w3.org/1999/xlink" width="15pt" height="15pt" viewBox="0 0 15 15" version="1.1">
<g id="surface1">
<path style=" stroke:none;fill-rule:nonzero;fill:rgb(60%,66.666667%,70.980392%);fill-opacity:1;" d="M 7.917969 0.625 C 7.917969 0.28125 7.636719 0 7.292969 0 C 6.945312 0 6.667969 0.28125 6.667969 0.625 L 6.667969 4.582031 C 6.667969 4.8125 6.480469 5 6.25 5 C 6.019531 5 5.832031 4.8125 5.832031 4.582031 L 5.832031 0.625 C 5.832031 0.28125 5.554688 0 5.207031 0 C 4.863281 0 4.582031 0.28125 4.582031 0.625 L 4.582031 4.582031 C 4.582031 4.8125 4.398438 5 4.167969 5 C 3.9375 5 3.75 4.8125 3.75 4.582031 L 3.75 0.625 C 3.75 0.28125 3.46875 0 3.125 0 C 2.78125 0 2.5 0.28125 2.5 0.625 L 2.5 4.375 C 2.5 4.429688 2.507812 4.480469 2.519531 4.527344 C 2.507812 4.613281 2.5 4.703125 2.5 4.792969 C 2.5 5.757812 3.230469 7.273438 4.167969 7.476562 L 4.167969 13.957031 C 4.167969 14.535156 4.632812 15 5.207031 15 C 5.785156 15 6.25 14.535156 6.25 13.957031 L 6.25 7.476562 C 7.1875 7.273438 7.917969 5.757812 7.917969 4.792969 C 7.917969 4.703125 7.90625 4.613281 7.894531 4.527344 C 7.90625 4.480469 7.917969 4.429688 7.917969 4.375 Z M 11.457031 0 C 11.414062 0 11.375 0.0078125 11.332031 0.0117188 C 11.304688 0.0078125 11.277344 0 11.25 0 C 10.328125 0 9.167969 2.28125 9.167969 4.582031 C 9.167969 6.523438 9.699219 8.148438 10.417969 8.613281 L 10.417969 13.957031 C 10.417969 14.535156 10.882812 15 11.457031 15 C 12.035156 15 12.5 14.535156 12.5 13.957031 L 12.5 1.042969 C 12.5 0.464844 12.035156 0 11.457031 0 Z M 11.457031 0 "/>
</g>
</svg>
