<?xml version="1.0" encoding="UTF-8"?>
<svg xmlns="http://www.w3.org/2000/svg" xmlns:xlink="http://www.w3.org/1999/xlink" width="15pt" height="15pt" viewBox="0 0 15 15" version="1.1">
<g id="surface1">
<path style=" stroke:none;fill-rule:nonzero;fill:rgb(16.078431%,18.431373%,20%);fill-opacity:1;" d="M 15 10.832031 C 15 8.53125 11.640625 6.667969 7.5 6.667969 C 3.359375 6.667969 0 8.53125 0 10.832031 C 0 13.132812 3.359375 15 7.5 15 C 11.640625 15 15 13.132812 15 10.832031 Z M 15 10.832031 "/>
<path style=" stroke:none;fill-rule:nonzero;fill:rgb(40%,45.882353%,49.803922%);fill-opacity:1;" d="M 15 10 C 15 7.699219 11.640625 5.832031 7.5 5.832031 C 3.359375 5.832031 0 7.699219 0 10 C 0 12.300781 3.359375 14.167969 7.5 14.167969 C 11.640625 14.167969 15 12.300781 15 10 Z M 15 10 "/>
<path style=" stroke:none;fill-rule:nonzero;fill:rgb(88.235294%,90.980392%,92.941176%);fill-opacity:1;" d="M 7.5 12.917969 C 1.265625 12.917969 0.417969 6.667969 0.417969 5 L 14.582031 5 C 14.582031 5.832031 13.765625 12.917969 7.5 12.917969 Z M 7.5 12.917969 "/>
<path style=" stroke:none;fill-rule:nonzero;fill:rgb(46.666667%,69.803922%,33.333333%);fill-opacity:1;" d="M 14.582031 5.023438 C 14.582031 7.195312 11.410156 8.957031 7.5 8.957031 C 3.589844 8.957031 0.417969 7.195312 0.417969 5.023438 C 0.417969 2.851562 3.589844 1.503906 7.5 1.503906 C 11.410156 1.503906 14.582031 2.851562 14.582031 5.023438 Z M 14.582031 5.023438 "/>
<path style=" stroke:none;fill-rule:nonzero;fill:rgb(65.098039%,82.745098%,53.333333%);fill-opacity:1;" d="M 13.75 5.417969 C 13.75 3.804688 10.953125 2.5 7.5 2.5 C 4.046875 2.5 1.25 3.804688 1.25 5.417969 C 1.25 7.027344 4.046875 8.332031 7.5 8.332031 C 10.953125 8.332031 13.75 7.027344 13.75 5.417969 Z M 13.75 5.417969 "/>
<path style=" stroke:none;fill-rule:nonzero;fill:rgb(36.078431%,56.862745%,23.137255%);fill-opacity:1;" d="M 8.75 7.082031 C 8.644531 7.082031 8.535156 7.042969 8.457031 6.960938 C 7.480469 5.988281 7.464844 4.925781 8.402344 3.519531 C 8.710938 3.058594 8.777344 2.582031 8.601562 2.113281 C 8.410156 1.597656 8.003906 1.28125 7.882812 1.246094 C 7.652344 1.246094 7.480469 1.0625 7.480469 0.832031 C 7.480469 0.601562 7.6875 0.417969 7.917969 0.417969 C 8.332031 0.417969 8.914062 0.898438 9.242188 1.511719 C 9.671875 2.316406 9.621094 3.191406 9.097656 3.980469 C 8.28125 5.207031 8.457031 5.785156 9.042969 6.371094 C 9.207031 6.535156 9.207031 6.796875 9.042969 6.960938 C 8.964844 7.042969 8.855469 7.082031 8.75 7.082031 Z M 6.25 6.25 C 6.144531 6.25 6.035156 6.210938 5.957031 6.128906 C 4.980469 5.152344 4.964844 4.09375 5.902344 2.683594 C 6.207031 2.230469 6.277344 1.816406 6.109375 1.457031 C 5.925781 1.058594 5.511719 0.84375 5.40625 0.832031 C 5.175781 0.832031 4.996094 0.648438 4.996094 0.417969 C 4.996094 0.1875 5.1875 0 5.417969 0 C 5.832031 0 6.492188 0.40625 6.816406 1.007812 C 7.015625 1.382812 7.253906 2.160156 6.597656 3.148438 C 5.78125 4.371094 5.957031 4.953125 6.542969 5.539062 C 6.707031 5.699219 6.707031 5.964844 6.542969 6.128906 C 6.464844 6.210938 6.355469 6.25 6.25 6.25 Z M 6.25 6.25 "/>
</g>
</svg>
