<?xml version="1.0" encoding="UTF-8"?>
<svg xmlns="http://www.w3.org/2000/svg" xmlns:xlink="http://www.w3.org/1999/xlink" width="15pt" height="15pt" viewBox="0 0 15 15" version="1.1">
<g id="surface1">
<path style=" stroke:none;fill-rule:nonzero;fill:rgb(33.333333%,67.45098%,93.333333%);fill-opacity:1;" d="M 13.75 8.75 C 13.515625 7.585938 12.871094 5.851562 12.207031 4.578125 C 12.957031 4.058594 13.605469 3.027344 13.605469 1.042969 C 13.332031 0.832031 13.070312 0.832031 12.5 0.832031 C 11.929688 0.832031 10.929688 0.417969 10.929688 0.417969 L 10.355469 0.417969 C 10.355469 0.417969 9.453125 0.832031 9.167969 0.832031 C 8.878906 0.832031 7.898438 0.816406 7.703125 1.011719 C 7.703125 2.972656 8.375 4.015625 9.09375 4.550781 C 8.4375 5.832031 7.792969 7.585938 7.5 8.75 C 7.082031 10.417969 7.484375 12.636719 7.5 12.707031 C 7.628906 13.367188 8.4375 14.167969 10.625 14.167969 C 12.8125 14.167969 13.550781 13.332031 13.75 12.707031 C 13.773438 12.636719 14.167969 10.832031 13.75 8.75 Z M 13.75 8.75 "/>
<path style=" stroke:none;fill-rule:nonzero;fill:rgb(23.137255%,53.333333%,76.470588%);fill-opacity:1;" d="M 13.59375 0.957031 C 13.59375 0.546875 12.273438 0.210938 10.644531 0.210938 C 9.011719 0.210938 7.691406 0.546875 7.691406 0.957031 C 7.691406 1.367188 9.011719 1.703125 10.644531 1.703125 C 12.273438 1.703125 13.59375 1.367188 13.59375 0.957031 Z M 13.59375 0.957031 "/>
<path style=" stroke:none;fill-rule:nonzero;fill:rgb(53.333333%,78.823529%,97.647059%);fill-opacity:1;" d="M 10.597656 1.933594 C 9.28125 1.933594 8.296875 1.644531 8.03125 1.519531 C 7.824219 1.421875 7.734375 1.171875 7.832031 0.964844 C 7.929688 0.753906 8.175781 0.664062 8.386719 0.765625 C 8.691406 0.90625 10.714844 1.476562 12.988281 0.722656 C 13.207031 0.652344 13.441406 0.769531 13.515625 0.988281 C 13.585938 1.207031 13.46875 1.445312 13.25 1.515625 C 12.300781 1.828125 11.386719 1.933594 10.597656 1.933594 Z M 10.597656 1.933594 "/>
<path style=" stroke:none;fill-rule:nonzero;fill:rgb(80%,83.921569%,86.666667%);fill-opacity:1;" d="M 8.1875 10.160156 C 8.1875 9.703125 7.828125 9.582031 7.128906 9.582031 L 2.015625 9.582031 C 1.664062 9.582031 0.980469 9.382812 0.980469 10.125 C 0.980469 14.375 3.5625 15.085938 4.46875 15.085938 C 5.722656 15.085938 8.1875 14.4375 8.1875 10.160156 Z M 8.1875 10.160156 "/>
<path style=" stroke:none;fill-rule:nonzero;fill:rgb(53.333333%,60%,65.098039%);fill-opacity:1;" d="M 8.175781 9.871094 C 8.175781 10.375 7.074219 10.78125 4.570312 10.78125 C 2.066406 10.78125 0.96875 10.375 0.96875 9.871094 C 0.96875 9.367188 2.066406 8.960938 4.570312 8.960938 C 7.074219 8.960938 8.175781 9.367188 8.175781 9.871094 Z M 8.175781 9.871094 "/>
<path style=" stroke:none;fill-rule:nonzero;fill:rgb(100%,100%,100%);fill-opacity:1;" d="M 4.511719 10.972656 C 2.929688 10.972656 1.742188 10.625 1.421875 10.472656 C 1.214844 10.375 1.125 10.128906 1.222656 9.917969 C 1.320312 9.710938 1.566406 9.621094 1.777344 9.71875 C 2.152344 9.894531 4.664062 10.601562 7.464844 9.675781 C 7.683594 9.601562 7.917969 9.722656 7.988281 9.941406 C 8.0625 10.160156 7.945312 10.394531 7.726562 10.464844 C 6.578125 10.84375 5.46875 10.972656 4.511719 10.972656 Z M 4.511719 10.972656 "/>
<path style=" stroke:none;fill-rule:nonzero;fill:rgb(53.333333%,78.823529%,97.647059%);fill-opacity:1;" d="M 11.945312 6.832031 C 11.945312 7.230469 11.613281 7.550781 11.207031 7.550781 C 10.796875 7.550781 10.46875 7.230469 10.46875 6.832031 C 10.46875 6.433594 10.800781 6.109375 11.207031 6.109375 C 11.613281 6.109375 11.945312 6.433594 11.945312 6.832031 Z M 11.945312 6.832031 "/>
<path style=" stroke:none;fill-rule:nonzero;fill:rgb(53.333333%,78.823529%,97.647059%);fill-opacity:1;" d="M 12.777344 7.664062 C 12.777344 8.0625 12.449219 8.386719 12.039062 8.386719 C 11.632812 8.386719 11.300781 8.0625 11.300781 7.664062 C 11.300781 7.265625 11.632812 6.945312 12.039062 6.945312 C 12.449219 6.945312 12.777344 7.265625 12.777344 7.664062 Z M 12.777344 7.664062 "/>
<path style=" stroke:none;fill-rule:nonzero;fill:rgb(53.333333%,78.823529%,97.647059%);fill-opacity:1;" d="M 11.945312 8.082031 C 11.945312 8.480469 11.613281 8.800781 11.207031 8.800781 C 10.796875 8.800781 10.46875 8.480469 10.46875 8.082031 C 10.46875 7.683594 10.800781 7.359375 11.207031 7.359375 C 11.613281 7.359375 11.945312 7.683594 11.945312 8.082031 Z M 9.199219 10.8125 C 9.472656 10.921875 9.601562 11.238281 9.492188 11.519531 C 9.378906 11.800781 9.066406 11.9375 8.792969 11.828125 C 8.519531 11.722656 8.386719 11.40625 8.5 11.125 C 8.609375 10.84375 8.921875 10.703125 9.199219 10.8125 Z M 9.199219 10.8125 "/>
<path style=" stroke:none;fill-rule:nonzero;fill:rgb(53.333333%,78.823529%,97.647059%);fill-opacity:1;" d="M 10 10.46875 C 10.273438 10.578125 10.40625 10.894531 10.292969 11.175781 C 10.183594 11.453125 9.871094 11.59375 9.59375 11.484375 C 9.320312 11.375 9.1875 11.058594 9.300781 10.777344 C 9.414062 10.496094 9.726562 10.359375 10 10.46875 Z M 10 10.46875 "/>
<path style=" stroke:none;fill-rule:nonzero;fill:rgb(53.333333%,78.823529%,97.647059%);fill-opacity:1;" d="M 10.058594 11.15625 C 10.332031 11.265625 10.464844 11.582031 10.351562 11.863281 C 10.242188 12.144531 9.929688 12.28125 9.652344 12.171875 C 9.378906 12.0625 9.246094 11.746094 9.359375 11.46875 C 9.472656 11.1875 9.785156 11.046875 10.058594 11.15625 Z M 10.058594 11.15625 "/>
<path style=" stroke:none;fill-rule:nonzero;fill:rgb(73.333333%,86.666667%,96.078431%);fill-opacity:1;" d="M 11.980469 7.550781 C 11.980469 7.8125 11.769531 8.019531 11.511719 8.019531 C 11.25 8.019531 11.042969 7.8125 11.042969 7.550781 C 11.042969 7.292969 11.25 7.082031 11.511719 7.082031 C 11.769531 7.082031 11.980469 7.292969 11.980469 7.550781 Z M 11.980469 7.550781 "/>
<path style=" stroke:none;fill-rule:nonzero;fill:rgb(73.333333%,86.666667%,96.078431%);fill-opacity:1;" d="M 9.914062 11.285156 C 9.914062 11.46875 9.765625 11.613281 9.582031 11.613281 C 9.402344 11.613281 9.253906 11.46875 9.253906 11.285156 C 9.253906 11.101562 9.402344 10.953125 9.582031 10.953125 C 9.765625 10.953125 9.914062 11.101562 9.914062 11.285156 Z M 9.914062 11.285156 "/>
</g>
</svg>
