<?xml version="1.0" encoding="UTF-8"?>
<svg xmlns="http://www.w3.org/2000/svg" xmlns:xlink="http://www.w3.org/1999/xlink" width="15pt" height="15pt" viewBox="0 0 15 15" version="1.1">
<g id="surface1">
<path style=" stroke:none;fill-rule:nonzero;fill:rgb(86.666667%,18.039216%,26.666667%);fill-opacity:1;" d="M 8.035156 2.664062 C 8.035156 2.832031 7.046875 2.832031 7.046875 2.664062 C 7.046875 2.289062 0.832031 -1.460938 0.832031 1.539062 L 0.832031 7.164062 C 0.832031 8.199219 2.28125 7.972656 3.832031 7.3125 C 3.234375 8.78125 1.957031 11.347656 0.894531 13.121094 C 0.796875 13.277344 0.820312 13.480469 0.945312 13.617188 C 1.070312 13.753906 1.269531 13.789062 1.4375 13.707031 L 3.628906 12.609375 C 3.8125 12.914062 4.015625 13.390625 4.199219 13.820312 C 4.339844 14.144531 4.484375 14.480469 4.628906 14.769531 C 4.6875 14.890625 4.800781 14.972656 4.933594 14.996094 C 4.957031 15 4.976562 15 5 15 C 5.109375 15 5.214844 14.957031 5.292969 14.878906 C 5.886719 14.285156 6.722656 11.378906 7.292969 9.003906 C 7.859375 11.378906 8.695312 14.285156 9.289062 14.878906 C 9.367188 14.957031 9.472656 15 9.582031 15 C 9.605469 15 9.628906 15 9.648438 14.996094 C 9.78125 14.972656 9.894531 14.890625 9.957031 14.769531 C 10.101562 14.480469 10.242188 14.144531 10.382812 13.820312 C 10.566406 13.390625 10.773438 12.914062 10.957031 12.609375 L 13.148438 13.707031 C 13.3125 13.789062 13.511719 13.753906 13.640625 13.617188 C 13.765625 13.480469 13.785156 13.277344 13.691406 13.121094 C 12.550781 11.21875 11.164062 8.414062 10.636719 7.019531 C 12.355469 7.890625 14.167969 8.339844 14.167969 7.164062 L 14.167969 1.539062 C 14.167969 -1.460938 8.035156 2.289062 8.035156 2.664062 Z M 8.035156 2.664062 "/>
<path style=" stroke:none;fill-rule:nonzero;fill:rgb(62.745098%,1.568627%,11.764706%);fill-opacity:1;" d="M 0.878906 7.445312 C 1.371094 8.777344 5.660156 6.699219 7.074219 5.289062 C 7.203125 5.160156 7.300781 5.035156 7.386719 4.917969 C 3.035156 5.023438 1.328125 6.527344 0.878906 7.445312 Z M 7.75 4.917969 C 7.835938 5.035156 7.9375 5.15625 8.066406 5.289062 C 9.566406 6.789062 14.167969 9.039062 14.167969 7.164062 L 14.167969 7.074219 C 13.46875 6.160156 11.652344 4.984375 7.75 4.917969 Z M 7.75 4.917969 "/>
<path style=" stroke:none;fill-rule:nonzero;fill:rgb(91.764706%,34.901961%,43.137255%);fill-opacity:1;" d="M 9.167969 4.75 C 9.167969 5.578125 8.496094 6.25 7.667969 6.25 L 6.917969 6.25 C 6.089844 6.25 5.417969 5.578125 5.417969 4.75 L 5.417969 3.167969 C 5.417969 2.339844 6.089844 1.667969 6.917969 1.667969 L 7.667969 1.667969 C 8.496094 1.667969 9.167969 2.339844 9.167969 3.167969 Z M 9.167969 4.75 "/>
</g>
</svg>
