<?xml version="1.0" encoding="UTF-8"?>
<svg xmlns="http://www.w3.org/2000/svg" xmlns:xlink="http://www.w3.org/1999/xlink" width="15pt" height="15pt" viewBox="0 0 15 15" version="1.1">
<g id="surface1">
<path style=" stroke:none;fill-rule:nonzero;fill:rgb(53.333333%,60%,65.098039%);fill-opacity:1;" d="M 15 10.832031 C 15 8.53125 11.640625 6.667969 7.5 6.667969 C 3.359375 6.667969 0 8.53125 0 10.832031 C 0 13.132812 3.359375 15 7.5 15 C 11.640625 15 15 13.132812 15 10.832031 Z M 15 10.832031 "/>
<path style=" stroke:none;fill-rule:nonzero;fill:rgb(80%,83.921569%,86.666667%);fill-opacity:1;" d="M 15 10.105469 C 15 7.804688 11.640625 5.9375 7.5 5.9375 C 3.359375 5.9375 0 7.804688 0 10.105469 C 0 12.40625 3.359375 14.269531 7.5 14.269531 C 11.640625 14.269531 15 12.40625 15 10.105469 Z M 15 10.105469 "/>
<path style=" stroke:none;fill-rule:nonzero;fill:rgb(86.666667%,18.039216%,26.666667%);fill-opacity:1;" d="M 13.613281 9.867188 C 13.613281 11.644531 10.878906 13.082031 7.5 13.082031 C 4.121094 13.082031 1.386719 11.644531 1.386719 9.867188 C 1.386719 8.09375 4.121094 6.65625 7.5 6.65625 C 10.875 6.65625 13.613281 8.09375 13.613281 9.867188 Z M 13.613281 9.867188 "/>
<path style=" stroke:none;fill-rule:nonzero;fill:rgb(95.686275%,67.058824%,72.941176%);fill-opacity:1;" d="M 13.429688 9.394531 C 13.429688 13.5 1.570312 13.5 1.570312 9.394531 L 1.570312 5.742188 L 13.429688 5.742188 Z M 13.429688 9.394531 "/>
<path style=" stroke:none;fill-rule:nonzero;fill:rgb(86.666667%,18.039216%,26.666667%);fill-opacity:1;" d="M 7.492188 7.570312 C 3.75 7.570312 1.570312 5.847656 1.570312 5.847656 C 1.570312 5.847656 1.5625 6.234375 1.5625 6.550781 C 1.5625 6.550781 1.574219 8.589844 2.632812 8.589844 C 3.660156 8.589844 3.585938 9.570312 4.230469 9.671875 C 4.875 9.769531 4.945312 9.277344 5.742188 9.277344 C 6.539062 9.277344 6.679688 10.15625 7.492188 10.15625 C 8.445312 10.15625 8.527344 9.277344 9.320312 9.277344 C 10.117188 9.277344 10.210938 9.789062 10.734375 9.648438 C 11.359375 9.476562 11.070312 8.589844 12.351562 8.589844 C 13.410156 8.589844 13.4375 6.652344 13.4375 6.652344 C 13.4375 6.335938 13.429688 5.847656 13.429688 5.847656 C 13.429688 5.847656 11.238281 7.570312 7.492188 7.570312 Z M 7.492188 7.570312 "/>
<path style=" stroke:none;fill-rule:nonzero;fill:rgb(91.764706%,34.901961%,43.137255%);fill-opacity:1;" d="M 13.613281 5.308594 C 13.613281 7.082031 10.878906 8.519531 7.5 8.519531 C 4.121094 8.519531 1.386719 7.082031 1.386719 5.308594 C 1.386719 3.53125 4.121094 2.09375 7.5 2.09375 C 10.875 2.09375 13.613281 3.53125 13.613281 5.308594 Z M 13.613281 5.308594 "/>
<path style=" stroke:none;fill-rule:nonzero;fill:rgb(100%,97.254902%,90.980392%);fill-opacity:1;" d="M 10.691406 5.742188 C 10.441406 5.742188 10.238281 5.539062 10.238281 5.285156 L 10.238281 2.09375 C 10.238281 1.839844 10.441406 1.636719 10.691406 1.636719 C 10.945312 1.636719 11.148438 1.839844 11.148438 2.09375 L 11.148438 5.285156 C 11.148438 5.539062 10.945312 5.742188 10.691406 5.742188 Z M 10.691406 5.742188 "/>
<path style=" stroke:none;fill-rule:nonzero;fill:rgb(98.039216%,66.666667%,20.784314%);fill-opacity:1;" d="M 10.691406 2.777344 C 10.210938 2.777344 9.828125 2.554688 9.675781 2.183594 C 9.542969 1.863281 9.476562 1.164062 10.53125 0.109375 C 10.621094 0.0195312 10.765625 0.0195312 10.855469 0.109375 C 11.910156 1.164062 11.84375 1.863281 11.710938 2.183594 C 11.558594 2.554688 11.175781 2.777344 10.691406 2.777344 Z M 10.691406 2.777344 "/>
<path style=" stroke:none;fill-rule:nonzero;fill:rgb(100%,97.254902%,90.980392%);fill-opacity:1;" d="M 7.5 7.113281 C 7.246094 7.113281 7.042969 6.90625 7.042969 6.65625 L 7.042969 3.460938 C 7.042969 3.210938 7.246094 3.007812 7.5 3.007812 C 7.753906 3.007812 7.957031 3.210938 7.957031 3.460938 L 7.957031 6.65625 C 7.957031 6.90625 7.753906 7.113281 7.5 7.113281 Z M 7.5 7.113281 "/>
<path style=" stroke:none;fill-rule:nonzero;fill:rgb(98.039216%,66.666667%,20.784314%);fill-opacity:1;" d="M 7.5 4.148438 C 7.015625 4.148438 6.636719 3.925781 6.480469 3.554688 C 6.347656 3.230469 6.28125 2.53125 7.339844 1.476562 C 7.429688 1.386719 7.570312 1.386719 7.660156 1.476562 C 8.71875 2.535156 8.652344 3.230469 8.519531 3.554688 C 8.363281 3.925781 7.984375 4.148438 7.5 4.148438 Z M 7.5 4.148438 "/>
<path style=" stroke:none;fill-rule:nonzero;fill:rgb(100%,97.254902%,90.980392%);fill-opacity:1;" d="M 4.308594 5.742188 C 4.054688 5.742188 3.851562 5.539062 3.851562 5.285156 L 3.851562 2.09375 C 3.851562 1.839844 4.054688 1.636719 4.308594 1.636719 C 4.558594 1.636719 4.761719 1.839844 4.761719 2.09375 L 4.761719 5.285156 C 4.761719 5.539062 4.558594 5.742188 4.308594 5.742188 Z M 4.308594 5.742188 "/>
<path style=" stroke:none;fill-rule:nonzero;fill:rgb(98.039216%,66.666667%,20.784314%);fill-opacity:1;" d="M 4.308594 2.777344 C 3.824219 2.777344 3.441406 2.554688 3.289062 2.183594 C 3.152344 1.863281 3.089844 1.164062 4.144531 0.109375 C 4.234375 0.0195312 4.378906 0.0195312 4.46875 0.109375 C 5.523438 1.164062 5.457031 1.863281 5.324219 2.183594 C 5.171875 2.554688 4.789062 2.777344 4.308594 2.777344 Z M 4.308594 2.777344 "/>
</g>
</svg>
