<?xml version="1.0" encoding="UTF-8"?>
<svg xmlns="http://www.w3.org/2000/svg" xmlns:xlink="http://www.w3.org/1999/xlink" width="15pt" height="15pt" viewBox="0 0 15 15" version="1.1">
<g id="surface1">
<path style=" stroke:none;fill-rule:nonzero;fill:rgb(46.666667%,69.803922%,33.333333%);fill-opacity:1;" d="M 13.332031 12.71875 C 13.332031 13.75 12.488281 14.582031 11.457031 14.582031 C 10.429688 14.582031 9.582031 13.75 9.582031 12.71875 L 9.582031 7.746094 C 9.582031 6.714844 10.429688 5.417969 11.457031 5.417969 C 12.488281 5.417969 13.332031 6.714844 13.332031 7.746094 Z M 13.332031 12.71875 "/>
<path style=" stroke:none;fill-rule:nonzero;fill:rgb(100%,90.980392%,71.372549%);fill-opacity:1;" d="M 8.941406 2.328125 C 8.941406 3.246094 8.382812 3.988281 7.695312 3.988281 C 7.007812 3.988281 6.453125 3.246094 6.453125 2.328125 C 6.453125 1.414062 7.007812 0.671875 7.695312 0.671875 C 8.382812 0.671875 8.941406 1.414062 8.941406 2.328125 Z M 8.941406 2.328125 "/>
<path style=" stroke:none;fill-rule:nonzero;fill:rgb(46.666667%,69.803922%,33.333333%);fill-opacity:1;" d="M 9.582031 12.71875 C 9.582031 13.75 8.738281 14.582031 7.707031 14.582031 C 6.679688 14.582031 5.832031 13.75 5.832031 12.71875 L 5.832031 2.328125 C 5.832031 1.300781 6.679688 0 7.707031 0 C 8.738281 0 9.582031 1.300781 9.582031 2.328125 Z M 9.582031 12.71875 "/>
<path style=" stroke:none;fill-rule:nonzero;fill:rgb(100%,90.980392%,71.372549%);fill-opacity:1;" d="M 8.941406 2.328125 C 8.941406 3.246094 8.382812 3.988281 7.695312 3.988281 C 7.007812 3.988281 6.453125 3.246094 6.453125 2.328125 C 6.453125 1.414062 7.007812 0.671875 7.695312 0.671875 C 8.382812 0.671875 8.941406 1.414062 8.941406 2.328125 Z M 12.691406 7.746094 C 12.691406 8.660156 12.132812 9.402344 11.445312 9.402344 C 10.757812 9.402344 10.203125 8.660156 10.203125 7.746094 C 10.203125 6.828125 10.757812 6.085938 11.445312 6.085938 C 12.132812 6.085938 12.691406 6.828125 12.691406 7.746094 Z M 12.691406 7.746094 "/>
<path style=" stroke:none;fill-rule:nonzero;fill:rgb(46.666667%,69.803922%,33.333333%);fill-opacity:1;" d="M 5.832031 12.71875 C 5.832031 13.75 4.988281 14.582031 3.957031 14.582031 C 2.929688 14.582031 2.082031 13.75 2.082031 12.71875 L 2.082031 4.828125 C 2.082031 3.800781 2.929688 2.5 3.957031 2.5 C 4.988281 2.5 5.832031 3.800781 5.832031 4.828125 Z M 5.832031 12.71875 "/>
<path style=" stroke:none;fill-rule:nonzero;fill:rgb(100%,90.980392%,71.372549%);fill-opacity:1;" d="M 5.191406 4.828125 C 5.191406 5.746094 4.632812 6.488281 3.945312 6.488281 C 3.257812 6.488281 2.703125 5.746094 2.703125 4.828125 C 2.703125 3.914062 3.257812 3.171875 3.945312 3.171875 C 4.632812 3.171875 5.191406 3.914062 5.191406 4.828125 Z M 5.191406 4.828125 "/>
<path style=" stroke:none;fill-rule:nonzero;fill:rgb(36.078431%,56.862745%,23.137255%);fill-opacity:1;" d="M 10 9.167969 C 10 9.398438 9.8125 9.582031 9.582031 9.582031 L 5.832031 9.582031 C 5.601562 9.582031 5.417969 9.398438 5.417969 9.167969 C 5.417969 8.9375 5.601562 8.75 5.832031 8.75 L 9.582031 8.75 C 9.8125 8.75 10 8.9375 10 9.167969 Z M 10 5.832031 C 10 6.0625 9.8125 6.25 9.582031 6.25 L 5.832031 6.25 C 5.601562 6.25 5.417969 6.0625 5.417969 5.832031 C 5.417969 5.601562 5.601562 5.417969 5.832031 5.417969 L 9.582031 5.417969 C 9.8125 5.417969 10 5.601562 10 5.832031 Z M 6.25 7.5 C 6.25 7.730469 6.0625 7.917969 5.832031 7.917969 L 2.082031 7.917969 C 1.851562 7.917969 1.667969 7.730469 1.667969 7.5 C 1.667969 7.269531 1.851562 7.082031 2.082031 7.082031 L 5.832031 7.082031 C 6.0625 7.082031 6.25 7.269531 6.25 7.5 Z M 6.25 7.5 "/>
<path style=" stroke:none;fill-rule:nonzero;fill:rgb(85.098039%,61.960784%,50.980392%);fill-opacity:1;" d="M 14.582031 13.542969 C 14.582031 14.117188 14.117188 14.582031 13.542969 14.582031 L 1.875 14.582031 C 1.300781 14.582031 0.832031 14.117188 0.832031 13.542969 C 0.832031 12.964844 1.300781 12.5 1.875 12.5 L 13.542969 12.5 C 14.117188 12.5 14.582031 12.964844 14.582031 13.542969 Z M 14.582031 13.542969 "/>
<path style=" stroke:none;fill-rule:nonzero;fill:rgb(36.078431%,56.862745%,23.137255%);fill-opacity:1;" d="M 12.917969 11.25 C 12.917969 11.25 12.40625 11.015625 11.554688 10.761719 C 11.285156 11.355469 11.011719 11.921875 10.902344 12.1875 C 10.6875 12.714844 10.433594 12.550781 10.515625 12.117188 C 10.558594 11.894531 10.710938 11.027344 10.824219 10.5625 C 9.996094 10.359375 8.96875 10.183594 7.839844 10.148438 C 7.777344 10.867188 7.671875 11.488281 7.640625 11.875 C 7.585938 12.464844 7.015625 12.429688 6.960938 11.894531 C 6.933594 11.601562 6.894531 10.773438 6.851562 10.15625 C 6.007812 10.191406 5.125 10.320312 4.230469 10.578125 C 4.269531 11 4.359375 11.78125 4.390625 12.050781 C 4.46875 12.660156 4.160156 12.5 4.046875 12.171875 C 3.972656 11.960938 3.703125 11.246094 3.515625 10.8125 C 3.175781 10.9375 2.839844 11.082031 2.5 11.25 C 1.667969 11.667969 0.832031 12.5 0.832031 12.917969 L 0.832031 13.332031 L 14.582031 13.332031 L 14.582031 12.917969 C 14.582031 12.5 13.75 11.667969 12.917969 11.25 Z M 12.917969 11.25 "/>
</g>
</svg>
