<?xml version="1.0" encoding="UTF-8"?>
<svg xmlns="http://www.w3.org/2000/svg" xmlns:xlink="http://www.w3.org/1999/xlink" width="15pt" height="15pt" viewBox="0 0 15 15" version="1.1">
<g id="surface1">
<path style=" stroke:none;fill-rule:nonzero;fill:rgb(98.823529%,67.058824%,25.098039%);fill-opacity:1;" d="M 11.667969 15 C 11.480469 15 11.308594 14.875 11.261719 14.683594 C 11.246094 14.628906 10.875 13.253906 9.480469 12.902344 C 7.523438 12.414062 7.5 9.699219 7.5 9.582031 C 7.5 9.351562 7.6875 9.167969 7.914062 9.167969 C 8.148438 9.179688 8.332031 9.351562 8.332031 9.582031 C 8.332031 9.605469 8.355469 11.761719 9.683594 12.097656 C 11.570312 12.566406 12.050781 14.402344 12.070312 14.484375 C 12.125 14.707031 11.992188 14.933594 11.765625 14.988281 C 11.734375 14.996094 11.699219 15 11.667969 15 Z M 11.667969 15 "/>
<path style=" stroke:none;fill-rule:nonzero;fill:rgb(73.333333%,10.196078%,20.392157%);fill-opacity:1;" d="M 7.5 10.417969 C 7.042969 10.417969 6.835938 10.082031 7.039062 9.671875 L 7.542969 8.660156 C 7.75 8.253906 8.085938 8.253906 8.289062 8.660156 L 8.792969 9.671875 C 9 10.082031 8.792969 10.417969 8.332031 10.417969 Z M 7.5 10.417969 "/>
<path style=" stroke:none;fill-rule:nonzero;fill:rgb(73.333333%,10.196078%,20.392157%);fill-opacity:1;" d="M 11.667969 3.75 C 11.667969 6.25 8.75 8.75 7.917969 8.75 C 7.082031 8.75 4.167969 6.25 4.167969 3.75 C 4.167969 1.332031 6.074219 0 7.917969 0 C 9.757812 0 11.667969 1.332031 11.667969 3.75 Z M 11.667969 3.75 "/>
<path style=" stroke:none;fill-rule:nonzero;fill:rgb(98.823529%,67.058824%,25.098039%);fill-opacity:1;" d="M 8.332031 9.167969 L 7.5 9.167969 C 7.269531 9.167969 7.082031 8.980469 7.082031 8.75 C 7.082031 8.519531 7.269531 8.332031 7.5 8.332031 L 8.332031 8.332031 C 8.5625 8.332031 8.75 8.519531 8.75 8.75 C 8.75 8.980469 8.5625 9.167969 8.332031 9.167969 Z M 8.332031 9.167969 "/>
</g>
</svg>
