<?xml version="1.0" encoding="UTF-8"?>
<svg xmlns="http://www.w3.org/2000/svg" xmlns:xlink="http://www.w3.org/1999/xlink" width="15pt" height="15pt" viewBox="0 0 15 15" version="1.1">
<g id="surface1">
<path style=" stroke:none;fill-rule:nonzero;fill:rgb(83.529412%,67.058824%,53.333333%);fill-opacity:1;" d="M 2.082031 8.75 C 2.082031 9.671875 1.617188 10.417969 1.042969 10.417969 C 0.464844 10.417969 0 9.671875 0 8.75 C 0 7.828125 0.464844 7.082031 1.042969 7.082031 C 1.617188 7.082031 2.082031 7.828125 2.082031 8.75 Z M 2.082031 8.75 "/>
<path style=" stroke:none;fill-rule:nonzero;fill:rgb(83.529412%,67.058824%,53.333333%);fill-opacity:1;" d="M 1.25 7.734375 C 1.25 4.183594 3.488281 1.300781 6.25 1.300781 C 9.011719 1.300781 11.25 4.183594 11.25 7.734375 C 11.25 11.285156 9.011719 14.167969 6.25 14.167969 C 3.488281 14.167969 1.25 11.285156 1.25 7.734375 Z M 1.25 7.734375 "/>
<path style=" stroke:none;fill-rule:nonzero;fill:rgb(86.666667%,18.039216%,26.666667%);fill-opacity:1;" d="M 8.332031 0 C 8.230469 0 8.132812 0.00390625 8.035156 0.00390625 C 7.996094 0.00390625 7.957031 0 7.917969 0 C 3.75 0 0.832031 1.910156 0.832031 3.75 C 0.832031 5.589844 3.488281 5.417969 6.25 5.417969 C 8.101562 5.417969 9.4375 5.417969 10.402344 5.378906 L 12.917969 11.667969 L 13.75 11.667969 C 13.75 11.667969 13.894531 10.394531 14.167969 8.75 C 14.582031 6.25 14.390625 0 8.332031 0 Z M 8.332031 0 "/>
<path style=" stroke:none;fill-rule:nonzero;fill:rgb(83.529412%,67.058824%,53.333333%);fill-opacity:1;" d="M 12.5 8.75 C 12.5 9.671875 12.035156 10.417969 11.457031 10.417969 C 10.882812 10.417969 10.417969 9.671875 10.417969 8.75 C 10.417969 7.828125 10.882812 7.082031 11.457031 7.082031 C 12.035156 7.082031 12.5 7.828125 12.5 8.75 Z M 12.5 8.75 "/>
<path style=" stroke:none;fill-rule:nonzero;fill:rgb(40%,12.941176%,7.45098%);fill-opacity:1;" d="M 4.167969 8.75 C 3.9375 8.75 3.75 8.5625 3.75 8.332031 L 3.75 7.5 C 3.75 7.269531 3.9375 7.082031 4.167969 7.082031 C 4.398438 7.082031 4.582031 7.269531 4.582031 7.5 L 4.582031 8.332031 C 4.582031 8.5625 4.398438 8.75 4.167969 8.75 Z M 8.332031 8.75 C 8.101562 8.75 7.917969 8.5625 7.917969 8.332031 L 7.917969 7.5 C 7.917969 7.269531 8.101562 7.082031 8.332031 7.082031 C 8.5625 7.082031 8.75 7.269531 8.75 7.5 L 8.75 8.332031 C 8.75 8.5625 8.5625 8.75 8.332031 8.75 Z M 8.332031 8.75 "/>
<path style=" stroke:none;fill-rule:nonzero;fill:rgb(71.764706%,45.882353%,36.862745%);fill-opacity:1;" d="M 6.667969 10.832031 L 5.832031 10.832031 C 5.601562 10.832031 5.417969 10.648438 5.417969 10.417969 C 5.417969 10.1875 5.601562 10 5.832031 10 L 6.667969 10 C 6.898438 10 7.082031 10.1875 7.082031 10.417969 C 7.082031 10.648438 6.898438 10.832031 6.667969 10.832031 Z M 6.667969 10.832031 "/>
<path style=" stroke:none;fill-rule:nonzero;fill:rgb(90.196078%,90.588235%,90.980392%);fill-opacity:1;" d="M 11.25 10.417969 C 11.25 9.582031 10.292969 10.121094 10 10.417969 C 9.582031 10.832031 8.75 11.667969 7.917969 11.25 C 6.738281 10.660156 6.25 10.832031 6.25 10.832031 C 6.25 10.832031 5.761719 10.660156 4.582031 11.25 C 3.75 11.667969 2.917969 10.832031 2.5 10.417969 C 2.207031 10.121094 1.25 9.582031 1.25 10.417969 C 1.25 11.25 1.667969 11.25 1.667969 11.25 C 1.25 12.082031 2.082031 12.5 2.082031 12.5 C 2.082031 13.75 3.332031 13.75 3.332031 13.75 C 3.332031 15 5 14.582031 5 14.582031 C 5.417969 15 6.25 15 6.25 15 C 6.25 15 7.082031 15 7.5 14.582031 C 7.5 14.582031 9.167969 15 9.167969 13.75 C 9.167969 13.75 10.417969 13.75 10.417969 12.5 C 10.417969 12.5 11.25 12.082031 10.832031 11.25 C 10.832031 11.25 11.25 11.25 11.25 10.417969 Z M 11.25 10.417969 "/>
<path style=" stroke:none;fill-rule:nonzero;fill:rgb(83.529412%,67.058824%,53.333333%);fill-opacity:1;" d="M 6.25 11.667969 C 9.167969 11.667969 7.917969 12.5 6.25 12.5 C 4.582031 12.5 3.332031 11.667969 6.25 11.667969 Z M 6.25 11.667969 "/>
<path style=" stroke:none;fill-rule:nonzero;fill:rgb(81.960784%,82.745098%,83.137255%);fill-opacity:1;" d="M 2.082031 5.832031 C 2.082031 4.914062 1.710938 4.167969 1.25 4.167969 C 0.789062 4.167969 0.417969 4.914062 0.417969 5.832031 C 0.417969 6.753906 0.789062 7.5 1.25 7.5 C 1.710938 7.5 2.082031 6.753906 2.082031 5.832031 Z M 2.082031 5.832031 "/>
<path style=" stroke:none;fill-rule:nonzero;fill:rgb(81.960784%,82.745098%,83.137255%);fill-opacity:1;" d="M 11.667969 5.832031 C 11.667969 4.914062 11.292969 4.167969 10.832031 4.167969 C 10.375 4.167969 10 4.914062 10 5.832031 C 10 6.753906 10.375 7.5 10.832031 7.5 C 11.292969 7.5 11.667969 6.753906 11.667969 5.832031 Z M 11.667969 5.832031 "/>
<path style=" stroke:none;fill-rule:nonzero;fill:rgb(94.509804%,94.901961%,94.901961%);fill-opacity:1;" d="M 15 12.082031 C 15 13.003906 14.253906 13.75 13.332031 13.75 C 12.414062 13.75 11.667969 13.003906 11.667969 12.082031 C 11.667969 11.164062 12.414062 10.417969 13.332031 10.417969 C 14.253906 10.417969 15 11.164062 15 12.082031 Z M 15 12.082031 "/>
<path style=" stroke:none;fill-rule:nonzero;fill:rgb(94.509804%,94.901961%,94.901961%);fill-opacity:1;" d="M 12.082031 5 C 12.082031 5.460938 11.710938 5.832031 11.25 5.832031 L 0.832031 5.832031 C 0.375 5.832031 0 5.460938 0 5 L 0 4.582031 C 0 4.125 0.375 3.75 0.832031 3.75 L 11.25 3.75 C 11.710938 3.75 12.082031 4.125 12.082031 4.582031 Z M 12.082031 5 "/>
</g>
</svg>
