<?xml version="1.0" encoding="UTF-8"?>
<svg xmlns="http://www.w3.org/2000/svg" xmlns:xlink="http://www.w3.org/1999/xlink" width="15pt" height="15pt" viewBox="0 0 15 15" version="1.1">
<g id="surface1">
<path style=" stroke:none;fill-rule:nonzero;fill:rgb(13.333333%,40%,60%);fill-opacity:1;" d="M 15 1.667969 C 15 0.746094 14.253906 0 13.332031 0 L 1.667969 0 C 0.746094 0 0 0.746094 0 1.667969 L 0 13.332031 C 0 14.253906 0.746094 15 1.667969 15 L 13.332031 15 C 14.253906 15 15 14.253906 15 13.332031 Z M 15 1.667969 "/>
<path style=" stroke:none;fill-rule:nonzero;fill:rgb(100%,80%,30.196078%);fill-opacity:1;" d="M 7.5 8.332031 C 7.324219 8.332031 7.164062 8.445312 7.105469 8.617188 L 5.855469 12.367188 C 5.78125 12.585938 5.898438 12.824219 6.117188 12.894531 C 6.335938 12.96875 6.574219 12.851562 6.644531 12.632812 L 7.894531 8.882812 C 7.96875 8.664062 7.851562 8.429688 7.632812 8.355469 C 7.589844 8.339844 7.542969 8.332031 7.5 8.332031 Z M 7.5 8.332031 "/>
<path style=" stroke:none;fill-rule:nonzero;fill:rgb(100%,80%,30.196078%);fill-opacity:1;" d="M 7.5 8.332031 C 7.464844 8.332031 7.425781 8.339844 7.390625 8.347656 C 7.167969 8.410156 7.039062 8.636719 7.097656 8.859375 L 8.441406 13.800781 C 8.503906 14.023438 8.730469 14.152344 8.953125 14.09375 C 9.175781 14.03125 9.308594 13.804688 9.246094 13.582031 L 7.902344 8.640625 C 7.851562 8.453125 7.683594 8.332031 7.5 8.332031 Z M 7.5 8.332031 "/>
<path style=" stroke:none;fill-rule:nonzero;fill:rgb(100%,80%,30.196078%);fill-opacity:1;" d="M 7.5 8.332031 C 7.410156 8.332031 7.316406 8.363281 7.242188 8.421875 L 1.71875 12.796875 C 1.539062 12.941406 1.507812 13.203125 1.652344 13.382812 C 1.796875 13.5625 2.058594 13.59375 2.238281 13.453125 L 7.757812 9.078125 C 7.9375 8.933594 7.96875 8.671875 7.828125 8.492188 C 7.746094 8.386719 7.621094 8.332031 7.5 8.332031 Z M 7.5 8.332031 "/>
<path style=" stroke:none;fill-rule:nonzero;fill:rgb(100%,80%,30.196078%);fill-opacity:1;" d="M 7.5 8.332031 C 7.484375 8.332031 7.46875 8.335938 7.453125 8.335938 L 2.3125 8.925781 C 2.085938 8.953125 1.921875 9.160156 1.949219 9.386719 C 1.972656 9.617188 2.183594 9.78125 2.410156 9.753906 L 7.546875 9.164062 C 7.777344 9.136719 7.941406 8.929688 7.914062 8.703125 C 7.890625 8.488281 7.710938 8.332031 7.5 8.332031 Z M 7.5 8.332031 "/>
<path style=" stroke:none;fill-rule:nonzero;fill:rgb(100%,80%,30.196078%);fill-opacity:1;" d="M 1.457031 5.453125 C 1.304688 5.453125 1.152344 5.539062 1.082031 5.6875 C 0.984375 5.894531 1.070312 6.144531 1.277344 6.242188 L 7.320312 9.125 C 7.527344 9.226562 7.777344 9.136719 7.875 8.929688 C 7.976562 8.722656 7.886719 8.472656 7.679688 8.375 L 1.636719 5.492188 C 1.578125 5.464844 1.519531 5.453125 1.457031 5.453125 Z M 1.457031 5.453125 "/>
<path style=" stroke:none;fill-rule:nonzero;fill:rgb(100%,80%,30.196078%);fill-opacity:1;" d="M 3.054688 2.015625 C 2.972656 2.015625 2.890625 2.039062 2.816406 2.089844 C 2.628906 2.222656 2.582031 2.480469 2.714844 2.671875 L 7.160156 8.988281 C 7.292969 9.179688 7.550781 9.222656 7.738281 9.089844 C 7.929688 8.957031 7.972656 8.699219 7.839844 8.511719 L 3.394531 2.191406 C 3.316406 2.074219 3.1875 2.015625 3.054688 2.015625 Z M 3.054688 2.015625 "/>
<path style=" stroke:none;fill-rule:nonzero;fill:rgb(100%,80%,30.196078%);fill-opacity:1;" d="M 7.5 8.332031 C 7.386719 8.332031 7.269531 8.378906 7.1875 8.472656 C 7.035156 8.644531 7.050781 8.910156 7.222656 9.0625 L 12.101562 13.386719 C 12.273438 13.535156 12.535156 13.523438 12.691406 13.347656 C 12.84375 13.175781 12.828125 12.914062 12.652344 12.761719 L 7.777344 8.4375 C 7.695312 8.367188 7.597656 8.332031 7.5 8.332031 Z M 7.5 8.332031 "/>
<path style=" stroke:none;fill-rule:nonzero;fill:rgb(100%,80%,30.196078%);fill-opacity:1;" d="M 7.5 8.332031 C 7.324219 8.332031 7.164062 8.445312 7.105469 8.621094 C 7.03125 8.835938 7.152344 9.074219 7.371094 9.144531 L 12.507812 10.847656 C 12.726562 10.921875 12.960938 10.800781 13.035156 10.582031 C 13.105469 10.363281 12.988281 10.128906 12.769531 10.054688 L 7.632812 8.355469 C 7.585938 8.339844 7.542969 8.332031 7.5 8.332031 Z M 7.5 8.332031 "/>
<path style=" stroke:none;fill-rule:nonzero;fill:rgb(100%,80%,30.196078%);fill-opacity:1;" d="M 13.265625 7.707031 C 13.25 7.707031 13.234375 7.710938 13.21875 7.710938 L 7.453125 8.335938 C 7.226562 8.359375 7.0625 8.566406 7.085938 8.796875 C 7.109375 9.023438 7.320312 9.1875 7.546875 9.164062 L 13.308594 8.539062 C 13.539062 8.515625 13.703125 8.308594 13.679688 8.078125 C 13.65625 7.867188 13.472656 7.707031 13.265625 7.707031 Z M 13.265625 7.707031 "/>
<path style=" stroke:none;fill-rule:nonzero;fill:rgb(100%,80%,30.196078%);fill-opacity:1;" d="M 7.5 9.167969 C 7.371094 9.167969 7.246094 9.105469 7.164062 8.996094 C 7.027344 8.808594 7.070312 8.550781 7.253906 8.414062 L 10.96875 5.707031 C 11.15625 5.570312 11.417969 5.609375 11.550781 5.796875 C 11.6875 5.984375 11.648438 6.242188 11.460938 6.378906 L 7.746094 9.085938 C 7.671875 9.140625 7.585938 9.167969 7.5 9.167969 Z M 7.5 9.167969 "/>
<path style=" stroke:none;fill-rule:nonzero;fill:rgb(100%,80%,30.196078%);fill-opacity:1;" d="M 7.5 9.167969 C 7.425781 9.167969 7.351562 9.148438 7.285156 9.105469 C 7.089844 8.988281 7.023438 8.730469 7.144531 8.535156 L 10.40625 3.117188 C 10.527344 2.921875 10.78125 2.855469 10.980469 2.976562 C 11.175781 3.09375 11.238281 3.351562 11.121094 3.546875 L 7.855469 8.964844 C 7.777344 9.09375 7.640625 9.167969 7.5 9.167969 Z M 7.5 9.167969 "/>
<path style=" stroke:none;fill-rule:nonzero;fill:rgb(33.333333%,67.45098%,93.333333%);fill-opacity:1;" d="M 8.332031 0 L 6.667969 0 L 6.667969 7.917969 C 6.667969 8.375 7.039062 8.75 7.5 8.75 C 7.960938 8.75 8.332031 8.375 8.332031 7.917969 Z M 8.332031 0 "/>
<path style=" stroke:none;fill-rule:nonzero;fill:rgb(96.078431%,97.254902%,98.039216%);fill-opacity:1;" d="M 8.75 8.75 C 8.75 9.441406 8.191406 10 7.5 10 C 6.808594 10 6.25 9.441406 6.25 8.75 C 6.25 8.058594 6.808594 7.5 7.5 7.5 C 8.191406 7.5 8.75 8.058594 8.75 8.75 Z M 8.75 8.75 "/>
<path style=" stroke:none;fill-rule:nonzero;fill:rgb(96.078431%,97.254902%,98.039216%);fill-opacity:1;" d="M 2.902344 13.207031 C 2.902344 12.664062 2.460938 12.222656 1.917969 12.222656 C 1.375 12.222656 0.933594 12.664062 0.933594 13.207031 C 0.933594 13.75 1.375 14.1875 1.917969 14.1875 C 2.460938 14.1875 2.902344 13.75 2.902344 13.207031 Z M 2.902344 13.207031 "/>
<path style=" stroke:none;fill-rule:nonzero;fill:rgb(96.078431%,97.254902%,98.039216%);fill-opacity:1;" d="M 13.609375 13.074219 C 13.609375 13.753906 13.058594 14.304688 12.378906 14.304688 C 11.699219 14.304688 11.144531 13.753906 11.144531 13.074219 C 11.144531 12.390625 11.699219 11.839844 12.378906 11.839844 C 13.058594 11.839844 13.609375 12.390625 13.609375 13.074219 Z M 13.609375 13.074219 "/>
<path style=" stroke:none;fill-rule:nonzero;fill:rgb(96.078431%,97.254902%,98.039216%);fill-opacity:1;" d="M 9.515625 13.691406 C 9.515625 13.320312 9.214844 13.019531 8.84375 13.019531 C 8.476562 13.019531 8.175781 13.320312 8.175781 13.691406 C 8.175781 14.058594 8.476562 14.359375 8.84375 14.359375 C 9.214844 14.359375 9.515625 14.058594 9.515625 13.691406 Z M 9.515625 13.691406 "/>
<path style=" stroke:none;fill-rule:nonzero;fill:rgb(96.078431%,97.254902%,98.039216%);fill-opacity:1;" d="M 2.011719 5.796875 C 2.011719 6.203125 1.683594 6.527344 1.28125 6.527344 C 0.878906 6.527344 0.554688 6.203125 0.554688 5.796875 C 0.554688 5.394531 0.878906 5.070312 1.28125 5.070312 C 1.683594 5.070312 2.011719 5.394531 2.011719 5.796875 Z M 2.011719 5.796875 "/>
<path style=" stroke:none;fill-rule:nonzero;fill:rgb(96.078431%,97.254902%,98.039216%);fill-opacity:1;" d="M 4.0625 2.152344 C 4.0625 1.5 3.535156 0.972656 2.882812 0.972656 C 2.230469 0.972656 1.703125 1.5 1.703125 2.152344 C 1.703125 2.804688 2.230469 3.332031 2.882812 3.332031 C 3.535156 3.332031 4.0625 2.804688 4.0625 2.152344 Z M 14.304688 8.089844 C 14.304688 7.582031 13.894531 7.171875 13.386719 7.171875 C 12.878906 7.171875 12.464844 7.582031 12.464844 8.089844 C 12.464844 8.597656 12.878906 9.011719 13.386719 9.011719 C 13.894531 9.011719 14.304688 8.597656 14.304688 8.089844 Z M 14.304688 8.089844 "/>
<path style=" stroke:none;fill-rule:nonzero;fill:rgb(96.078431%,97.254902%,98.039216%);fill-opacity:1;" d="M 11.527344 3.332031 C 11.527344 3.734375 11.203125 4.0625 10.796875 4.0625 C 10.394531 4.0625 10.070312 3.734375 10.070312 3.332031 C 10.070312 2.929688 10.394531 2.605469 10.796875 2.605469 C 11.203125 2.605469 11.527344 2.929688 11.527344 3.332031 Z M 11.527344 3.332031 "/>
</g>
</svg>
