<?xml version="1.0" encoding="UTF-8"?>
<svg xmlns="http://www.w3.org/2000/svg" xmlns:xlink="http://www.w3.org/1999/xlink" width="15pt" height="15pt" viewBox="0 0 15 15" version="1.1">
<g id="surface1">
<path style=" stroke:none;fill-rule:nonzero;fill:rgb(40%,12.941176%,7.45098%);fill-opacity:1;" d="M 9.203125 13.679688 C 9.203125 14.511719 8.527344 14.808594 7.695312 14.808594 C 6.863281 14.808594 6.191406 14.511719 6.191406 13.679688 L 6.566406 10.289062 C 6.566406 9.457031 6.863281 9.535156 7.695312 9.535156 C 8.527344 9.535156 8.828125 9.457031 8.828125 10.289062 Z M 9.203125 13.679688 "/>
<path style=" stroke:none;fill-rule:nonzero;fill:rgb(36.078431%,56.862745%,23.137255%);fill-opacity:1;" d="M 12.746094 11.53125 C 10.125 9.285156 9.0625 6.066406 7.695312 6.066406 C 6.332031 6.066406 5.269531 9.285156 2.648438 11.53125 C 1.546875 12.476562 2.070312 13.023438 3.582031 12.910156 C 4.929688 12.816406 6.1875 12.507812 7.695312 12.507812 C 9.207031 12.507812 10.464844 12.816406 11.8125 12.910156 C 13.324219 13.023438 13.847656 12.476562 12.746094 11.53125 Z M 12.746094 11.53125 "/>
<path style=" stroke:none;fill-rule:nonzero;fill:rgb(24.313725%,44.705882%,11.372549%);fill-opacity:1;" d="M 11.894531 10.640625 C 9.878906 8.792969 8.746094 6.144531 7.695312 6.144531 C 6.648438 6.144531 5.515625 8.792969 3.5 10.640625 C 1.898438 12.109375 5.597656 12.4375 7.695312 10.640625 C 9.792969 12.4375 13.496094 12.109375 11.894531 10.640625 Z M 11.894531 10.640625 "/>
<path style=" stroke:none;fill-rule:nonzero;fill:rgb(36.078431%,56.862745%,23.137255%);fill-opacity:1;" d="M 11.894531 9.144531 C 9.878906 7.417969 8.746094 4.945312 7.695312 4.945312 C 6.648438 4.945312 5.515625 7.417969 3.5 9.144531 C 1.898438 10.515625 5.597656 10.824219 7.695312 9.144531 C 9.792969 10.824219 13.496094 10.515625 11.894531 9.144531 Z M 11.894531 9.144531 "/>
<path style=" stroke:none;fill-rule:nonzero;fill:rgb(24.313725%,44.705882%,11.372549%);fill-opacity:1;" d="M 10.972656 7.917969 C 9.402344 6.570312 8.515625 4.640625 7.695312 4.640625 C 6.878906 4.640625 5.992188 6.570312 4.421875 7.917969 C 3.171875 8.988281 6.058594 9.230469 7.695312 7.917969 C 9.335938 9.230469 12.222656 8.988281 10.972656 7.917969 Z M 10.972656 7.917969 "/>
<path style=" stroke:none;fill-rule:nonzero;fill:rgb(36.078431%,56.862745%,23.137255%);fill-opacity:1;" d="M 10.972656 6.796875 C 9.402344 5.449219 8.515625 3.519531 7.695312 3.519531 C 6.878906 3.519531 5.992188 5.449219 4.421875 6.796875 C 3.171875 7.867188 6.058594 8.109375 7.695312 6.796875 C 9.335938 8.109375 12.222656 7.867188 10.972656 6.796875 Z M 10.972656 6.796875 "/>
<path style=" stroke:none;fill-rule:nonzero;fill:rgb(24.313725%,44.705882%,11.372549%);fill-opacity:1;" d="M 10.339844 5.800781 C 9.070312 4.710938 8.359375 3.15625 7.695312 3.15625 C 7.035156 3.15625 6.320312 4.710938 5.050781 5.800781 C 4.042969 6.664062 6.375 6.859375 7.695312 5.800781 C 9.019531 6.859375 11.351562 6.664062 10.339844 5.800781 Z M 10.339844 5.800781 "/>
<path style=" stroke:none;fill-rule:nonzero;fill:rgb(36.078431%,56.862745%,23.137255%);fill-opacity:1;" d="M 10.339844 4.957031 C 9.070312 3.867188 8.359375 2.308594 7.695312 2.308594 C 7.035156 2.308594 6.320312 3.867188 5.050781 4.957031 C 4.042969 5.820312 6.375 6.015625 7.695312 4.957031 C 9.019531 6.015625 11.351562 5.820312 10.339844 4.957031 Z M 10.339844 4.957031 "/>
<path style=" stroke:none;fill-rule:nonzero;fill:rgb(24.313725%,44.705882%,11.372549%);fill-opacity:1;" d="M 9.707031 3.714844 C 8.742188 2.886719 8.199219 1.699219 7.695312 1.699219 C 7.195312 1.699219 6.652344 2.886719 5.683594 3.714844 C 4.917969 4.371094 6.691406 4.519531 7.695312 3.714844 C 8.703125 4.519531 10.476562 4.371094 9.707031 3.714844 Z M 9.707031 3.714844 "/>
<path style=" stroke:none;fill-rule:nonzero;fill:rgb(36.078431%,56.862745%,23.137255%);fill-opacity:1;" d="M 9.707031 3.261719 C 8.742188 2.433594 8.199219 1.25 7.695312 1.25 C 7.195312 1.25 6.652344 2.433594 5.683594 3.261719 C 4.917969 3.921875 6.691406 4.070312 7.695312 3.261719 C 8.703125 4.066406 10.476562 3.921875 9.707031 3.261719 Z M 9.707031 3.261719 "/>
<path style=" stroke:none;fill-rule:nonzero;fill:rgb(100%,80%,30.196078%);fill-opacity:1;" d="M 7.5 5.015625 C 7.5 5.363281 7.21875 5.640625 6.875 5.640625 C 6.53125 5.640625 6.25 5.363281 6.25 5.015625 C 6.25 4.671875 6.53125 4.390625 6.875 4.390625 C 7.21875 4.390625 7.5 4.671875 7.5 5.015625 Z M 7.5 5.015625 "/>
<path style=" stroke:none;fill-rule:nonzero;fill:rgb(100%,80%,30.196078%);fill-opacity:1;" d="M 9.167969 10.417969 C 9.167969 10.875 8.792969 11.25 8.332031 11.25 C 7.875 11.25 7.5 10.875 7.5 10.417969 C 7.5 9.957031 7.875 9.582031 8.332031 9.582031 C 8.792969 9.582031 9.167969 9.957031 9.167969 10.417969 Z M 9.167969 10.417969 "/>
<path style=" stroke:none;fill-rule:nonzero;fill:rgb(86.666667%,18.039216%,26.666667%);fill-opacity:1;" d="M 10.417969 6.457031 C 10.417969 7.035156 9.949219 7.5 9.375 7.5 C 8.800781 7.5 8.332031 7.035156 8.332031 6.457031 C 8.332031 5.882812 8.800781 5.417969 9.375 5.417969 C 9.949219 5.417969 10.417969 5.882812 10.417969 6.457031 Z M 10.417969 6.457031 "/>
<path style=" stroke:none;fill-rule:nonzero;fill:rgb(86.666667%,18.039216%,26.666667%);fill-opacity:1;" d="M 5 10.832031 C 5 11.292969 4.625 11.667969 4.167969 11.667969 C 3.707031 11.667969 3.332031 11.292969 3.332031 10.832031 C 3.332031 10.375 3.707031 10 4.167969 10 C 4.625 10 5 10.375 5 10.832031 Z M 5 10.832031 "/>
<path style=" stroke:none;fill-rule:nonzero;fill:rgb(65.098039%,82.745098%,53.333333%);fill-opacity:1;" d="M 6.667969 7.917969 C 6.667969 8.375 6.292969 8.75 5.832031 8.75 C 5.375 8.75 5 8.375 5 7.917969 C 5 7.457031 5.375 7.082031 5.832031 7.082031 C 6.292969 7.082031 6.667969 7.457031 6.667969 7.917969 Z M 6.667969 7.917969 "/>
<path style=" stroke:none;fill-rule:nonzero;fill:rgb(65.098039%,82.745098%,53.333333%);fill-opacity:1;" d="M 11.667969 9.582031 C 11.667969 10.042969 11.292969 10.417969 10.832031 10.417969 C 10.375 10.417969 10 10.042969 10 9.582031 C 10 9.125 10.375 8.75 10.832031 8.75 C 11.292969 8.75 11.667969 9.125 11.667969 9.582031 Z M 11.667969 9.582031 "/>
<path style=" stroke:none;fill-rule:nonzero;fill:rgb(100%,67.45098%,20%);fill-opacity:1;" d="M 8.074219 0.699219 C 8.132812 0.8125 8.289062 0.929688 8.414062 0.953125 L 8.988281 1.066406 C 9.117188 1.089844 9.148438 1.1875 9.054688 1.277344 L 8.644531 1.695312 C 8.554688 1.789062 8.496094 1.972656 8.511719 2.097656 L 8.582031 2.679688 C 8.597656 2.808594 8.515625 2.867188 8.398438 2.808594 L 7.875 2.546875 C 7.757812 2.492188 7.566406 2.488281 7.449219 2.542969 L 6.917969 2.789062 C 6.800781 2.84375 6.722656 2.785156 6.738281 2.65625 L 6.824219 2.078125 C 6.84375 1.949219 6.789062 1.765625 6.699219 1.671875 L 6.300781 1.246094 C 6.210938 1.148438 6.242188 1.054688 6.371094 1.03125 L 6.949219 0.933594 C 7.078125 0.914062 7.234375 0.804688 7.296875 0.691406 L 7.578125 0.179688 C 7.640625 0.0664062 7.742188 0.0664062 7.804688 0.179688 Z M 8.074219 0.699219 "/>
</g>
</svg>
