<?xml version="1.0" encoding="UTF-8"?>
<svg xmlns="http://www.w3.org/2000/svg" xmlns:xlink="http://www.w3.org/1999/xlink" width="15pt" height="15pt" viewBox="0 0 15 15" version="1.1">
<g id="surface1">
<path style=" stroke:none;fill-rule:nonzero;fill:rgb(95.686275%,56.470588%,4.705882%);fill-opacity:1;" d="M 13.609375 3.550781 C 12.234375 2.140625 9.757812 1.980469 7.5 1.980469 C 5.242188 1.980469 2.765625 2.140625 1.390625 3.550781 C 0.242188 4.726562 0 6.5625 0 8.246094 C 0 10.4375 0.824219 12.960938 2.648438 14.179688 C 3.902344 15.019531 5.8125 14.945312 7.5 14.945312 C 9.1875 14.945312 11.097656 15.019531 12.351562 14.179688 C 14.175781 12.957031 15 10.4375 15 8.246094 C 15 6.5625 14.757812 4.726562 13.609375 3.550781 Z M 13.609375 3.550781 "/>
<path style=" stroke:none;fill-rule:nonzero;fill:rgb(24.705882%,44.313725%,13.72549%);fill-opacity:1;" d="M 8.660156 2.269531 C 8.6875 2.441406 8.566406 2.585938 8.390625 2.585938 L 6.535156 2.585938 C 6.359375 2.585938 6.238281 2.441406 6.265625 2.269531 L 6.578125 0.40625 C 6.605469 0.230469 6.773438 0.0859375 6.953125 0.0859375 L 7.972656 0.0859375 C 8.152344 0.0859375 8.320312 0.230469 8.347656 0.40625 Z M 8.660156 2.269531 "/>
<path style=" stroke:none;fill-rule:nonzero;fill:rgb(39.215686%,12.941176%,8.627451%);fill-opacity:1;" d="M 8.605469 8.816406 L 7.941406 7.734375 C 7.820312 7.507812 7.660156 7.394531 7.5 7.394531 C 7.339844 7.394531 7.179688 7.507812 7.058594 7.734375 L 6.394531 8.816406 C 6.148438 9.273438 6.757812 9.53125 7.5 9.53125 C 8.242188 9.53125 8.851562 9.269531 8.605469 8.816406 Z M 12.566406 10.144531 C 12.546875 10.113281 12.515625 10.097656 12.476562 10.097656 L 12.128906 10.097656 C 12.097656 10.097656 12.070312 10.109375 12.050781 10.128906 L 11.121094 11.101562 L 10 10.195312 C 9.976562 10.179688 9.949219 10.171875 9.921875 10.175781 C 9.894531 10.175781 9.867188 10.191406 9.851562 10.214844 L 8.847656 11.488281 L 7.574219 10.128906 C 7.570312 10.121094 7.5625 10.121094 7.554688 10.117188 C 7.550781 10.113281 7.546875 10.105469 7.539062 10.101562 C 7.535156 10.101562 7.53125 10.101562 7.53125 10.101562 C 7.519531 10.097656 7.511719 10.101562 7.5 10.101562 C 7.488281 10.101562 7.480469 10.097656 7.46875 10.101562 C 7.46875 10.101562 7.464844 10.101562 7.460938 10.101562 C 7.453125 10.105469 7.449219 10.113281 7.445312 10.117188 C 7.4375 10.121094 7.429688 10.121094 7.421875 10.128906 L 6.152344 11.488281 L 5.148438 10.214844 C 5.128906 10.191406 5.105469 10.175781 5.078125 10.175781 C 5.050781 10.171875 5.023438 10.179688 5 10.195312 L 3.875 11.101562 L 2.949219 10.128906 C 2.929688 10.109375 2.902344 10.097656 2.871094 10.097656 L 2.523438 10.097656 C 2.484375 10.097656 2.453125 10.113281 2.433594 10.144531 C 2.414062 10.175781 2.414062 10.214844 2.429688 10.25 L 3.578125 12.421875 C 3.589844 12.449219 3.617188 12.46875 3.644531 12.476562 C 3.675781 12.484375 3.707031 12.476562 3.730469 12.460938 L 4.578125 11.851562 L 5.828125 13.367188 C 5.847656 13.386719 5.875 13.402344 5.902344 13.402344 L 5.910156 13.402344 C 5.933594 13.402344 5.960938 13.394531 5.980469 13.378906 L 7.5 12.015625 L 9.019531 13.375 C 9.039062 13.394531 9.066406 13.402344 9.089844 13.402344 L 9.097656 13.402344 C 9.125 13.402344 9.152344 13.386719 9.171875 13.363281 L 10.421875 11.851562 L 11.269531 12.457031 C 11.296875 12.476562 11.324219 12.484375 11.355469 12.476562 C 11.382812 12.46875 11.410156 12.449219 11.421875 12.421875 L 12.570312 10.25 C 12.585938 10.214844 12.585938 10.175781 12.566406 10.144531 Z M 11.65625 6.425781 C 11.710938 7.3125 11.328125 8.011719 10.320312 8.074219 C 9.3125 8.132812 8.851562 7.484375 8.796875 6.597656 C 8.742188 5.714844 9.308594 4.464844 10.101562 4.417969 C 10.890625 4.371094 11.601562 5.539062 11.65625 6.425781 Z M 3.34375 6.425781 C 3.289062 7.3125 3.671875 8.011719 4.679688 8.074219 C 5.6875 8.132812 6.148438 7.484375 6.203125 6.597656 C 6.257812 5.714844 5.691406 4.464844 4.898438 4.417969 C 4.109375 4.371094 3.398438 5.539062 3.34375 6.425781 Z M 3.34375 6.425781 "/>
</g>
</svg>
