<?xml version="1.0" encoding="UTF-8"?>
<svg xmlns="http://www.w3.org/2000/svg" xmlns:xlink="http://www.w3.org/1999/xlink" width="15pt" height="15pt" viewBox="0 0 15 15" version="1.1">
<g id="surface1">
<path style=" stroke:none;fill-rule:nonzero;fill:rgb(80%,83.921569%,86.666667%);fill-opacity:1;" d="M 1.25 1.25 L 2.082031 1.25 L 2.082031 15 L 1.25 15 Z M 1.25 1.25 "/>
<path style=" stroke:none;fill-rule:nonzero;fill:rgb(95.686275%,56.470588%,4.705882%);fill-opacity:1;" d="M 2.917969 1.25 C 2.917969 1.941406 2.355469 2.5 1.667969 2.5 C 0.976562 2.5 0.417969 1.941406 0.417969 1.25 C 0.417969 0.558594 0.976562 0 1.667969 0 C 2.355469 0 2.917969 0.558594 2.917969 1.25 Z M 2.917969 1.25 "/>
<path style=" stroke:none;fill-rule:nonzero;fill:rgb(40%,45.882353%,49.803922%);fill-opacity:1;" d="M 3.75 11.667969 L 1.667969 11.667969 C 1.4375 11.667969 1.25 11.480469 1.25 11.25 C 1.25 11.019531 1.4375 10.832031 1.667969 10.832031 L 3.75 10.832031 C 3.980469 10.832031 4.167969 11.019531 4.167969 11.25 C 4.167969 11.480469 3.980469 11.667969 3.75 11.667969 Z M 3.75 11.667969 "/>
<path style=" stroke:none;fill-rule:nonzero;fill:rgb(86.666667%,18.039216%,26.666667%);fill-opacity:1;" d="M 12.917969 11.25 C 12.917969 10.328125 15.503906 8.75 14.582031 8.75 L 11.0625 8.75 C 10.5625 8.140625 9.148438 7.5 8.125 7.5 C 7.101562 7.5 6.777344 8.140625 6.695312 8.75 L 4.167969 8.75 C 3.246094 8.75 2.917969 9.496094 2.917969 10.417969 L 2.917969 12.082031 C 2.917969 13.003906 3.246094 13.75 4.167969 13.75 L 14.582031 13.75 C 15.503906 13.75 12.917969 12.171875 12.917969 11.25 Z M 12.917969 11.25 "/>
<path style=" stroke:none;fill-rule:nonzero;fill:rgb(100%,100%,100%);fill-opacity:1;" d="M 6.25 10.417969 C 6.25 11.105469 5.691406 11.667969 5 11.667969 C 4.308594 11.667969 3.75 11.105469 3.75 10.417969 C 3.75 9.726562 4.308594 9.167969 5 9.167969 C 5.691406 9.167969 6.25 9.726562 6.25 10.417969 Z M 6.25 10.417969 "/>
<path style=" stroke:none;fill-rule:nonzero;fill:rgb(0%,0%,0%);fill-opacity:1;" d="M 5.417969 10.207031 C 5.417969 10.554688 5.136719 10.832031 4.792969 10.832031 C 4.445312 10.832031 4.167969 10.554688 4.167969 10.207031 C 4.167969 9.863281 4.445312 9.582031 4.792969 9.582031 C 5.136719 9.582031 5.417969 9.863281 5.417969 10.207031 Z M 5.417969 10.207031 "/>
<path style=" stroke:none;fill-rule:nonzero;fill:rgb(95.686275%,67.058824%,72.941176%);fill-opacity:1;" d="M 14.582031 8.75 L 6.652344 8.75 C 7.511719 9.703125 8.625 11.445312 6.636719 13.75 L 14.582031 13.75 C 15.503906 13.75 12.917969 12.171875 12.917969 11.25 C 12.917969 10.328125 15.503906 8.75 14.582031 8.75 Z M 14.582031 8.75 "/>
<path style=" stroke:none;fill-rule:nonzero;fill:rgb(40%,45.882353%,49.803922%);fill-opacity:1;" d="M 3.75 5 L 1.667969 5 C 1.4375 5 1.25 4.8125 1.25 4.582031 C 1.25 4.351562 1.4375 4.167969 1.667969 4.167969 L 3.75 4.167969 C 3.980469 4.167969 4.167969 4.351562 4.167969 4.582031 C 4.167969 4.8125 3.980469 5 3.75 5 Z M 3.75 5 "/>
<path style=" stroke:none;fill-rule:nonzero;fill:rgb(33.333333%,67.45098%,93.333333%);fill-opacity:1;" d="M 12.917969 4.582031 C 12.917969 3.664062 15.503906 2.082031 14.582031 2.082031 L 11.0625 2.082031 C 10.5625 1.472656 9.148438 0.832031 8.125 0.832031 C 7.101562 0.832031 6.777344 1.472656 6.695312 2.082031 L 4.167969 2.082031 C 3.246094 2.082031 2.917969 2.828125 2.917969 3.75 L 2.917969 5.417969 C 2.917969 6.335938 3.246094 7.082031 4.167969 7.082031 L 14.582031 7.082031 C 15.503906 7.082031 12.917969 5.503906 12.917969 4.582031 Z M 12.917969 4.582031 "/>
<path style=" stroke:none;fill-rule:nonzero;fill:rgb(100%,100%,100%);fill-opacity:1;" d="M 6.25 3.75 C 6.25 4.441406 5.691406 5 5 5 C 4.308594 5 3.75 4.441406 3.75 3.75 C 3.75 3.058594 4.308594 2.5 5 2.5 C 5.691406 2.5 6.25 3.058594 6.25 3.75 Z M 6.25 3.75 "/>
<path style=" stroke:none;fill-rule:nonzero;fill:rgb(0%,0%,0%);fill-opacity:1;" d="M 5.417969 3.542969 C 5.417969 3.886719 5.136719 4.167969 4.792969 4.167969 C 4.445312 4.167969 4.167969 3.886719 4.167969 3.542969 C 4.167969 3.195312 4.445312 2.917969 4.792969 2.917969 C 5.136719 2.917969 5.417969 3.195312 5.417969 3.542969 Z M 5.417969 3.542969 "/>
<path style=" stroke:none;fill-rule:nonzero;fill:rgb(73.333333%,86.666667%,96.078431%);fill-opacity:1;" d="M 14.582031 2.082031 L 6.652344 2.082031 C 7.511719 3.035156 8.625 4.777344 6.636719 7.082031 L 14.582031 7.082031 C 15.503906 7.082031 12.917969 5.503906 12.917969 4.582031 C 12.917969 3.664062 15.503906 2.082031 14.582031 2.082031 Z M 14.582031 2.082031 "/>
</g>
</svg>
