<?xml version="1.0" encoding="UTF-8"?>
<svg xmlns="http://www.w3.org/2000/svg" xmlns:xlink="http://www.w3.org/1999/xlink" width="15pt" height="15pt" viewBox="0 0 15 15" version="1.1">
<g id="surface1">
<path style=" stroke:none;fill-rule:nonzero;fill:rgb(90.980392%,91.764706%,92.156863%);fill-opacity:1;" d="M 14.054688 7.578125 C 13.847656 8.402344 13.480469 8.625 12.65625 8.421875 L 7.800781 7.21875 L 9.1875 1.613281 L 14.042969 2.816406 C 14.871094 3.023438 15.09375 3.390625 14.886719 4.214844 Z M 14.054688 7.578125 "/>
<path style=" stroke:none;fill-rule:nonzero;fill:rgb(40%,45.882353%,49.803922%);fill-opacity:1;" d="M 5.875 14.328125 C 5.84375 14.328125 5.8125 14.324219 5.78125 14.316406 C 5.578125 14.265625 5.449219 14.054688 5.5 13.847656 L 8.671875 0.964844 C 8.722656 0.761719 8.929688 0.632812 9.136719 0.683594 C 9.34375 0.734375 9.46875 0.945312 9.417969 1.152344 L 6.25 14.035156 C 6.207031 14.207031 6.046875 14.328125 5.875 14.328125 Z M 5.875 14.328125 "/>
<path style=" stroke:none;fill-rule:nonzero;fill:rgb(74.509804%,9.803922%,19.215686%);fill-opacity:1;" d="M 12.601562 5.433594 C 12.425781 6.15625 11.695312 6.597656 10.972656 6.417969 C 10.25 6.238281 9.808594 5.507812 9.988281 4.785156 C 10.167969 4.0625 10.898438 3.625 11.621094 3.800781 C 12.339844 3.980469 12.78125 4.710938 12.601562 5.433594 Z M 12.601562 5.433594 "/>
<path style=" stroke:none;fill-rule:nonzero;fill:rgb(90.980392%,91.764706%,92.156863%);fill-opacity:1;" d="M 0.945312 7.578125 C 1.152344 8.402344 1.519531 8.625 2.34375 8.421875 L 7.199219 7.21875 L 5.8125 1.613281 L 0.957031 2.816406 C 0.128906 3.023438 -0.09375 3.390625 0.113281 4.214844 Z M 0.945312 7.578125 "/>
<path style=" stroke:none;fill-rule:nonzero;fill:rgb(40%,45.882353%,49.803922%);fill-opacity:1;" d="M 9.125 14.328125 C 8.953125 14.328125 8.796875 14.207031 8.75 14.035156 L 5.582031 1.152344 C 5.53125 0.945312 5.65625 0.734375 5.863281 0.683594 C 6.070312 0.632812 6.277344 0.761719 6.328125 0.964844 L 9.5 13.847656 C 9.550781 14.054688 9.421875 14.265625 9.21875 14.316406 C 9.1875 14.324219 9.15625 14.328125 9.125 14.328125 Z M 9.125 14.328125 "/>
<path style=" stroke:none;fill-rule:nonzero;fill:rgb(74.509804%,9.803922%,19.215686%);fill-opacity:1;" d="M 2.398438 5.433594 C 2.574219 6.15625 3.304688 6.597656 4.027344 6.417969 C 4.75 6.238281 5.191406 5.507812 5.011719 4.785156 C 4.832031 4.0625 4.101562 3.625 3.378906 3.800781 C 2.660156 3.980469 2.21875 4.710938 2.398438 5.433594 Z M 2.398438 5.433594 "/>
</g>
</svg>
