<?xml version="1.0" encoding="UTF-8"?>
<svg xmlns="http://www.w3.org/2000/svg" xmlns:xlink="http://www.w3.org/1999/xlink" width="15pt" height="15pt" viewBox="0 0 15 15" version="1.1">
<g id="surface1">
<path style=" stroke:none;fill-rule:nonzero;fill:rgb(94.901961%,39.607843%,13.333333%);fill-opacity:1;" d="M 12.917969 7.917969 L 9.582031 7.917969 C 8.894531 7.917969 7.917969 9.410156 7.917969 10.832031 L 7.917969 13.332031 C 7.917969 14.019531 8.480469 14.582031 9.167969 14.582031 L 13.332031 14.582031 C 14.019531 14.582031 14.582031 14.019531 14.582031 13.332031 L 14.582031 10.832031 C 14.582031 9.410156 13.605469 7.917969 12.917969 7.917969 Z M 12.917969 7.917969 "/>
<path style=" stroke:none;fill-rule:nonzero;fill:rgb(81.960784%,29.019608%,8.235294%);fill-opacity:1;" d="M 14.507812 13.75 C 12.589844 13.730469 11.667969 12.996094 11.667969 12.082031 L 11.667969 10.417969 C 13 10 12.917969 9.167969 12.917969 8.332031 L 9.582031 8.332031 C 9.582031 9.167969 9.5 10 10.832031 10.417969 L 10.832031 12.082031 C 10.832031 12.996094 9.910156 13.730469 7.992188 13.75 C 8.164062 14.234375 8.625 14.582031 9.167969 14.582031 L 13.332031 14.582031 C 13.875 14.582031 14.335938 14.234375 14.507812 13.75 Z M 14.507812 13.75 "/>
<path style=" stroke:none;fill-rule:nonzero;fill:rgb(100%,71.372549%,60%);fill-opacity:1;" d="M 9.582031 12.5 C 9.582031 12.730469 9.398438 12.917969 9.167969 12.917969 C 8.9375 12.917969 8.75 12.730469 8.75 12.5 C 8.75 12.269531 8.9375 12.082031 9.167969 12.082031 C 9.398438 12.082031 9.582031 12.269531 9.582031 12.5 Z M 9.582031 12.5 "/>
<path style=" stroke:none;fill-rule:nonzero;fill:rgb(100%,71.372549%,60%);fill-opacity:1;" d="M 13.75 12.5 C 13.75 12.730469 13.5625 12.917969 13.332031 12.917969 C 13.101562 12.917969 12.917969 12.730469 12.917969 12.5 C 12.917969 12.269531 13.101562 12.082031 13.332031 12.082031 C 13.5625 12.082031 13.75 12.269531 13.75 12.5 Z M 13.75 12.5 "/>
<path style=" stroke:none;fill-rule:nonzero;fill:rgb(100%,80%,30.196078%);fill-opacity:1;" d="M 11.25 9.167969 C 9.363281 9.167969 8.75 10.417969 8.75 10.417969 L 11.25 12.082031 L 13.75 10.417969 C 13.75 10.417969 13.136719 9.167969 11.25 9.167969 Z M 11.25 9.167969 "/>
<path style=" stroke:none;fill-rule:nonzero;fill:rgb(16.078431%,18.431373%,20%);fill-opacity:1;" d="M 14.582031 5 L 14.582031 7.5 C 14.582031 8.75 12.207031 7.5 11.457031 7.5 C 10.636719 7.5 7.917969 8.75 7.917969 7.5 L 7.917969 5 C 7.917969 3.160156 9.410156 1.667969 11.25 1.667969 C 13.089844 1.667969 14.582031 3.160156 14.582031 5 Z M 14.582031 5 "/>
<path style=" stroke:none;fill-rule:nonzero;fill:rgb(96.078431%,97.254902%,98.039216%);fill-opacity:1;" d="M 13.75 5.832031 C 13.75 7.082031 13.582031 8.75 11.25 8.75 C 8.917969 8.75 8.75 7.5 8.75 5.832031 C 10.011719 5.832031 11.25 5 11.25 5 C 11.25 5 12.511719 5.832031 13.75 5.832031 Z M 13.75 5.832031 "/>
<path style=" stroke:none;fill-rule:nonzero;fill:rgb(16.078431%,18.431373%,20%);fill-opacity:1;" d="M 13.167969 6.816406 C 12.789062 6.757812 12.144531 6.621094 11.785156 6.949219 C 11.636719 7.058594 11.746094 7.367188 12.023438 7.234375 C 12.300781 7.101562 12.933594 7.066406 13.1875 7.050781 C 13.4375 7.039062 13.441406 6.859375 13.167969 6.816406 Z M 9.347656 6.816406 C 9.726562 6.757812 10.371094 6.621094 10.730469 6.949219 C 10.878906 7.058594 10.773438 7.367188 10.492188 7.234375 C 10.214844 7.101562 9.582031 7.066406 9.332031 7.050781 C 9.078125 7.039062 9.074219 6.859375 9.347656 6.816406 Z M 9.347656 6.816406 "/>
<path style=" stroke:none;fill-rule:nonzero;fill:rgb(62.745098%,1.568627%,11.764706%);fill-opacity:1;" d="M 11.882812 8.039062 C 11.882812 7.917969 11.601562 7.820312 11.257812 7.820312 C 10.914062 7.820312 10.632812 7.917969 10.632812 8.039062 C 10.632812 8.164062 10.914062 8.261719 11.257812 8.261719 C 11.601562 8.261719 11.882812 8.164062 11.882812 8.039062 Z M 11.882812 8.039062 "/>
<path style=" stroke:none;fill-rule:nonzero;fill:rgb(94.901961%,39.607843%,13.333333%);fill-opacity:1;" d="M 13.339844 2.609375 C 13.339844 2.089844 12.410156 1.667969 11.257812 1.667969 C 10.109375 1.667969 9.175781 2.089844 9.175781 2.609375 C 9.175781 2.863281 10.375 3.09375 11.257812 3.261719 C 12.140625 3.09375 13.339844 2.863281 13.339844 2.609375 Z M 13.339844 2.609375 "/>
<path style=" stroke:none;fill-rule:nonzero;fill:rgb(81.960784%,29.019608%,8.235294%);fill-opacity:1;" d="M 9.8125 1.304688 C 9.8125 1.289062 9.816406 1.269531 9.816406 1.25 C 9.816406 0.890625 9.527344 0.597656 9.167969 0.597656 C 8.808594 0.597656 8.515625 0.890625 8.515625 1.25 C 8.515625 1.609375 8.808594 1.902344 9.167969 1.902344 C 9.1875 1.902344 9.203125 1.898438 9.222656 1.894531 L 9.707031 2.378906 C 9.785156 2.460938 9.894531 2.5 10 2.5 C 10.105469 2.5 10.214844 2.460938 10.292969 2.378906 C 10.457031 2.214844 10.457031 1.953125 10.292969 1.789062 Z M 11.25 0.183594 C 10.890625 0.183594 10.597656 0.472656 10.597656 0.832031 C 10.597656 1.035156 10.691406 1.210938 10.832031 1.328125 L 10.832031 2.082031 C 10.832031 2.3125 11.019531 2.5 11.25 2.5 C 11.480469 2.5 11.667969 2.3125 11.667969 2.082031 L 11.667969 1.328125 C 11.808594 1.210938 11.902344 1.035156 11.902344 0.832031 C 11.902344 0.472656 11.609375 0.183594 11.25 0.183594 Z M 13.332031 0.597656 C 12.972656 0.597656 12.683594 0.890625 12.683594 1.25 C 12.683594 1.269531 12.6875 1.289062 12.6875 1.304688 L 12.207031 1.789062 C 12.042969 1.953125 12.042969 2.214844 12.207031 2.378906 C 12.285156 2.460938 12.394531 2.5 12.5 2.5 C 12.605469 2.5 12.714844 2.460938 12.792969 2.378906 L 13.277344 1.894531 C 13.296875 1.898438 13.3125 1.902344 13.332031 1.902344 C 13.691406 1.902344 13.984375 1.609375 13.984375 1.25 C 13.984375 0.890625 13.691406 0.597656 13.332031 0.597656 Z M 13.332031 0.597656 "/>
<path style=" stroke:none;fill-rule:nonzero;fill:rgb(15.294118%,66.666667%,88.235294%);fill-opacity:1;" d="M 5.417969 7.917969 L 2.082031 7.917969 C 1.394531 7.917969 0.417969 9.410156 0.417969 10.832031 L 0.417969 13.332031 C 0.417969 14.019531 0.980469 14.582031 1.667969 14.582031 L 5.832031 14.582031 C 6.519531 14.582031 7.082031 14.019531 7.082031 13.332031 L 7.082031 10.832031 C 7.082031 9.410156 6.105469 7.917969 5.417969 7.917969 Z M 5.417969 7.917969 "/>
<path style=" stroke:none;fill-rule:nonzero;fill:rgb(0%,34.117647%,57.254902%);fill-opacity:1;" d="M 7.007812 13.75 C 5.089844 13.730469 4.167969 12.996094 4.167969 12.082031 L 4.167969 10.417969 C 5.5 10 5.417969 9.167969 5.417969 8.332031 L 2.082031 8.332031 C 2.082031 9.167969 2 10 3.332031 10.417969 L 3.332031 12.082031 C 3.332031 12.996094 2.410156 13.730469 0.492188 13.75 C 0.664062 14.234375 1.125 14.582031 1.667969 14.582031 L 5.832031 14.582031 C 6.375 14.582031 6.835938 14.234375 7.007812 13.75 Z M 7.007812 13.75 "/>
<path style=" stroke:none;fill-rule:nonzero;fill:rgb(73.333333%,86.666667%,96.078431%);fill-opacity:1;" d="M 2.082031 11.25 C 2.082031 11.480469 1.898438 11.667969 1.667969 11.667969 C 1.4375 11.667969 1.25 11.480469 1.25 11.25 C 1.25 11.019531 1.4375 10.832031 1.667969 10.832031 C 1.898438 10.832031 2.082031 11.019531 2.082031 11.25 Z M 2.082031 11.25 "/>
<path style=" stroke:none;fill-rule:nonzero;fill:rgb(73.333333%,86.666667%,96.078431%);fill-opacity:1;" d="M 6.25 12.5 C 6.25 12.730469 6.0625 12.917969 5.832031 12.917969 C 5.601562 12.917969 5.417969 12.730469 5.417969 12.5 C 5.417969 12.269531 5.601562 12.082031 5.832031 12.082031 C 6.0625 12.082031 6.25 12.269531 6.25 12.5 Z M 6.25 12.5 "/>
<path style=" stroke:none;fill-rule:nonzero;fill:rgb(100%,80%,30.196078%);fill-opacity:1;" d="M 4.242188 9.117188 L 3.75 9.113281 L 3.257812 9.117188 C 3.058594 9.117188 2.871094 9.25 2.902344 9.523438 L 3.382812 13.75 C 3.425781 13.964844 3.546875 14.089844 3.75 14.089844 C 3.953125 14.089844 4.074219 13.964844 4.117188 13.75 L 4.597656 9.523438 C 4.628906 9.25 4.445312 9.117188 4.242188 9.117188 Z M 4.242188 9.117188 "/>
<path style=" stroke:none;fill-rule:nonzero;fill:rgb(16.078431%,18.431373%,20%);fill-opacity:1;" d="M 7.082031 5.417969 L 7.082031 6.667969 C 7.082031 7.917969 4.496094 7.917969 3.75 7.917969 C 2.925781 7.917969 0.417969 7.917969 0.417969 6.667969 L 0.417969 5.417969 C 0.417969 3.574219 1.910156 2.917969 3.75 2.917969 C 5.589844 2.917969 7.082031 3.574219 7.082031 5.417969 Z M 7.082031 5.417969 "/>
<path style=" stroke:none;fill-rule:nonzero;fill:rgb(96.078431%,97.254902%,98.039216%);fill-opacity:1;" d="M 1.25 5.453125 L 1.25 5.832031 C 1.25 7.5 1.417969 8.75 3.75 8.75 C 6.082031 8.75 6.25 7.082031 6.25 5.832031 L 6.25 5.453125 C 5.742188 5.675781 4.8125 5.828125 3.75 5.828125 C 2.6875 5.828125 1.757812 5.675781 1.25 5.453125 Z M 1.25 5.453125 "/>
<path style=" stroke:none;fill-rule:nonzero;fill:rgb(16.078431%,18.431373%,20%);fill-opacity:1;" d="M 5.667969 6.816406 C 5.289062 6.757812 4.644531 6.621094 4.285156 6.949219 C 4.136719 7.058594 4.246094 7.367188 4.523438 7.234375 C 4.800781 7.101562 5.433594 7.066406 5.6875 7.050781 C 5.9375 7.039062 5.941406 6.859375 5.667969 6.816406 Z M 1.847656 6.816406 C 2.226562 6.757812 2.871094 6.621094 3.230469 6.949219 C 3.378906 7.058594 3.273438 7.367188 2.992188 7.234375 C 2.714844 7.101562 2.082031 7.066406 1.832031 7.050781 C 1.578125 7.039062 1.574219 6.859375 1.847656 6.816406 Z M 1.847656 6.816406 "/>
<path style=" stroke:none;fill-rule:nonzero;fill:rgb(62.745098%,1.568627%,11.764706%);fill-opacity:1;" d="M 4.382812 8.039062 C 4.382812 7.917969 4.101562 7.820312 3.757812 7.820312 C 3.414062 7.820312 3.132812 7.917969 3.132812 8.039062 C 3.132812 8.164062 3.414062 8.261719 3.757812 8.261719 C 4.101562 8.261719 4.382812 8.164062 4.382812 8.039062 Z M 4.382812 8.039062 "/>
<path style=" stroke:none;fill-rule:nonzero;fill:rgb(14.901961%,66.666667%,88.235294%);fill-opacity:1;" d="M 5.050781 3.28125 C 5.050781 4.722656 2.449219 4.722656 2.449219 3.28125 C 2.449219 1.839844 3.03125 0.417969 3.75 0.417969 C 4.46875 0.417969 5.050781 1.839844 5.050781 3.28125 Z M 5.050781 3.28125 "/>
</g>
</svg>
