<?xml version="1.0" encoding="UTF-8"?>
<svg xmlns="http://www.w3.org/2000/svg" xmlns:xlink="http://www.w3.org/1999/xlink" width="15pt" height="15pt" viewBox="0 0 15 15" version="1.1">
<g id="surface1">
<path style=" stroke:none;fill-rule:nonzero;fill:rgb(86.666667%,18.039216%,26.666667%);fill-opacity:1;" d="M 4.84375 3.121094 C 4.796875 3.167969 4.761719 3.222656 4.734375 3.285156 L 4.730469 3.28125 L 0.0546875 13.808594 L 0.0585938 13.8125 C -0.0273438 13.980469 0.117188 14.324219 0.414062 14.621094 C 0.714844 14.917969 1.054688 15.0625 1.222656 14.976562 L 1.226562 14.980469 L 11.753906 10.304688 L 11.75 10.300781 C 11.8125 10.273438 11.867188 10.238281 11.914062 10.191406 C 12.566406 9.539062 11.511719 7.429688 9.558594 5.476562 C 7.605469 3.523438 5.496094 2.46875 4.84375 3.121094 Z M 4.84375 3.121094 "/>
<path style=" stroke:none;fill-rule:nonzero;fill:rgb(91.764706%,34.901961%,43.137255%);fill-opacity:1;" d="M 5.417969 5 L 0.171875 13.542969 L 0.0546875 13.808594 L 0.0585938 13.8125 C -0.0273438 13.980469 0.117188 14.324219 0.414062 14.621094 C 0.511719 14.71875 0.613281 14.789062 0.710938 14.851562 L 7.082031 7.082031 Z M 5.417969 5 "/>
<path style=" stroke:none;fill-rule:nonzero;fill:rgb(62.745098%,1.568627%,11.764706%);fill-opacity:1;" d="M 9.589844 5.445312 C 11.535156 7.390625 12.613281 9.464844 12 10.078125 C 11.386719 10.691406 9.3125 9.613281 7.363281 7.667969 C 5.417969 5.722656 4.339844 3.644531 4.953125 3.03125 C 5.566406 2.417969 7.640625 3.496094 9.589844 5.445312 Z M 9.589844 5.445312 "/>
<path style=" stroke:none;fill-rule:nonzero;fill:rgb(66.666667%,55.294118%,84.705882%);fill-opacity:1;" d="M 7.746094 5.671875 C 7.664062 5.738281 7.554688 5.773438 7.441406 5.761719 C 7.078125 5.722656 6.773438 5.59375 6.5625 5.394531 C 6.335938 5.1875 6.222656 4.902344 6.253906 4.621094 C 6.308594 4.125 6.808594 3.667969 7.65625 3.757812 C 7.988281 3.796875 8.132812 3.6875 8.140625 3.636719 C 8.144531 3.585938 8.023438 3.453125 7.691406 3.417969 C 7.332031 3.378906 7.027344 3.25 6.8125 3.050781 C 6.589844 2.84375 6.476562 2.558594 6.507812 2.277344 C 6.5625 1.78125 7.058594 1.324219 7.910156 1.417969 C 8.148438 1.441406 8.277344 1.390625 8.332031 1.359375 C 8.375 1.335938 8.390625 1.308594 8.390625 1.292969 C 8.398438 1.246094 8.277344 1.109375 7.945312 1.074219 C 7.71875 1.046875 7.550781 0.84375 7.578125 0.613281 C 7.601562 0.386719 7.804688 0.21875 8.035156 0.246094 C 8.882812 0.335938 9.273438 0.886719 9.222656 1.382812 C 9.167969 1.882812 8.667969 2.335938 7.820312 2.246094 C 7.578125 2.21875 7.453125 2.269531 7.398438 2.300781 C 7.355469 2.328125 7.339844 2.351562 7.335938 2.367188 C 7.332031 2.417969 7.453125 2.550781 7.78125 2.589844 C 8.632812 2.679688 9.019531 3.230469 8.96875 3.726562 C 8.914062 4.222656 8.414062 4.679688 7.566406 4.589844 C 7.324219 4.5625 7.199219 4.613281 7.144531 4.644531 C 7.101562 4.671875 7.085938 4.695312 7.082031 4.710938 C 7.078125 4.761719 7.199219 4.894531 7.527344 4.933594 C 7.757812 4.957031 7.921875 5.160156 7.898438 5.390625 C 7.886719 5.503906 7.828125 5.605469 7.746094 5.671875 Z M 7.746094 5.671875 "/>
<path style=" stroke:none;fill-rule:nonzero;fill:rgb(46.666667%,69.803922%,33.333333%);fill-opacity:1;" d="M 12.777344 9.523438 C 13.597656 9.292969 14.164062 9.660156 14.300781 10.140625 C 14.433594 10.621094 14.140625 11.230469 13.320312 11.460938 C 13 11.550781 12.902344 11.703125 12.917969 11.753906 C 12.929688 11.800781 13.09375 11.882812 13.414062 11.792969 C 14.234375 11.5625 14.800781 11.925781 14.9375 12.410156 C 15.074219 12.890625 14.78125 13.496094 13.957031 13.730469 C 13.636719 13.820312 13.539062 13.972656 13.554688 14.023438 C 13.566406 14.070312 13.730469 14.152344 14.050781 14.0625 C 14.273438 14 14.503906 14.128906 14.566406 14.347656 C 14.625 14.570312 14.496094 14.800781 14.277344 14.863281 C 13.453125 15.09375 12.886719 14.730469 12.75 14.246094 C 12.617188 13.765625 12.910156 13.160156 13.730469 12.925781 C 14.054688 12.835938 14.148438 12.683594 14.136719 12.632812 C 14.121094 12.585938 13.960938 12.503906 13.640625 12.59375 C 12.816406 12.824219 12.25 12.460938 12.113281 11.976562 C 11.980469 11.496094 12.273438 10.890625 13.09375 10.65625 C 13.414062 10.566406 13.511719 10.414062 13.496094 10.363281 C 13.484375 10.316406 13.320312 10.234375 13 10.324219 C 12.777344 10.386719 12.550781 10.257812 12.488281 10.035156 C 12.425781 9.816406 12.554688 9.585938 12.777344 9.523438 Z M 12.777344 9.523438 "/>
<path style=" stroke:none;fill-rule:nonzero;fill:rgb(66.666667%,55.294118%,84.705882%);fill-opacity:1;" d="M 9.582031 8.398438 C 9.460938 8.398438 9.339844 8.347656 9.257812 8.242188 C 9.113281 8.0625 9.144531 7.800781 9.324219 7.65625 C 9.414062 7.585938 11.582031 5.882812 14.640625 6.320312 C 14.871094 6.355469 15.027344 6.566406 14.996094 6.792969 C 14.964844 7.019531 14.753906 7.179688 14.523438 7.144531 C 11.820312 6.761719 9.863281 8.292969 9.84375 8.308594 C 9.765625 8.371094 9.675781 8.398438 9.582031 8.398438 Z M 9.582031 8.398438 "/>
<path style=" stroke:none;fill-rule:nonzero;fill:rgb(46.666667%,69.803922%,33.333333%);fill-opacity:1;" d="M 2.398438 6.667969 C 2.359375 6.667969 2.316406 6.660156 2.277344 6.648438 C 2.058594 6.582031 1.933594 6.351562 2 6.128906 C 2.46875 4.558594 2.898438 2.050781 2.371094 1.394531 C 2.3125 1.320312 2.226562 1.25 2.023438 1.265625 C 1.628906 1.292969 1.667969 2.117188 1.667969 2.125 C 1.6875 2.355469 1.511719 2.554688 1.285156 2.574219 C 1.050781 2.585938 0.855469 2.417969 0.835938 2.1875 C 0.792969 1.613281 0.972656 0.507812 1.960938 0.433594 C 2.398438 0.398438 2.765625 0.550781 3.023438 0.875 C 4.011719 2.101562 3.007812 5.667969 2.796875 6.371094 C 2.742188 6.550781 2.578125 6.667969 2.398438 6.667969 Z M 2.398438 6.667969 "/>
<path style=" stroke:none;fill-rule:nonzero;fill:rgb(36.078431%,56.862745%,23.137255%);fill-opacity:1;" d="M 11.25 3.957031 C 11.25 4.304688 10.96875 4.582031 10.625 4.582031 C 10.28125 4.582031 10 4.304688 10 3.957031 C 10 3.613281 10.28125 3.332031 10.625 3.332031 C 10.96875 3.332031 11.25 3.613281 11.25 3.957031 Z M 11.25 3.957031 "/>
<path style=" stroke:none;fill-rule:nonzero;fill:rgb(57.254902%,40%,80%);fill-opacity:1;" d="M 1.667969 7.5 C 1.667969 7.960938 1.292969 8.332031 0.832031 8.332031 C 0.375 8.332031 0 7.960938 0 7.5 C 0 7.039062 0.375 6.667969 0.832031 6.667969 C 1.292969 6.667969 1.667969 7.039062 1.667969 7.5 Z M 1.667969 7.5 "/>
<path style=" stroke:none;fill-rule:nonzero;fill:rgb(36.078431%,56.862745%,23.137255%);fill-opacity:1;" d="M 14.167969 8.125 C 14.167969 8.46875 13.886719 8.75 13.542969 8.75 C 13.195312 8.75 12.917969 8.46875 12.917969 8.125 C 12.917969 7.78125 13.195312 7.5 13.542969 7.5 C 13.886719 7.5 14.167969 7.78125 14.167969 8.125 Z M 14.167969 8.125 "/>
<path style=" stroke:none;fill-rule:nonzero;fill:rgb(36.078431%,56.862745%,23.137255%);fill-opacity:1;" d="M 10.417969 13.125 C 10.417969 13.46875 10.136719 13.75 9.792969 13.75 C 9.445312 13.75 9.167969 13.46875 9.167969 13.125 C 9.167969 12.78125 9.445312 12.5 9.792969 12.5 C 10.136719 12.5 10.417969 12.78125 10.417969 13.125 Z M 10.417969 13.125 "/>
<path style=" stroke:none;fill-rule:nonzero;fill:rgb(100%,80%,30.196078%);fill-opacity:1;" d="M 12.5 1.667969 C 12.5 2.125 12.125 2.5 11.667969 2.5 C 11.207031 2.5 10.832031 2.125 10.832031 1.667969 C 10.832031 1.207031 11.207031 0.832031 11.667969 0.832031 C 12.125 0.832031 12.5 1.207031 12.5 1.667969 Z M 12.5 1.667969 "/>
<path style=" stroke:none;fill-rule:nonzero;fill:rgb(100%,80%,30.196078%);fill-opacity:1;" d="M 14.167969 3.542969 C 14.167969 3.886719 13.886719 4.167969 13.542969 4.167969 C 13.195312 4.167969 12.917969 3.886719 12.917969 3.542969 C 12.917969 3.195312 13.195312 2.917969 13.542969 2.917969 C 13.886719 2.917969 14.167969 3.195312 14.167969 3.542969 Z M 14.167969 3.542969 "/>
<path style=" stroke:none;fill-rule:nonzero;fill:rgb(100%,80%,30.196078%);fill-opacity:1;" d="M 12.917969 5.207031 C 12.917969 5.554688 12.636719 5.832031 12.292969 5.832031 C 11.945312 5.832031 11.667969 5.554688 11.667969 5.207031 C 11.667969 4.863281 11.945312 4.582031 12.292969 4.582031 C 12.636719 4.582031 12.917969 4.863281 12.917969 5.207031 Z M 12.917969 5.207031 "/>
<path style=" stroke:none;fill-rule:nonzero;fill:rgb(100%,80%,30.196078%);fill-opacity:1;" d="M 3.75 9.792969 C 3.75 10.136719 3.46875 10.417969 3.125 10.417969 C 2.78125 10.417969 2.5 10.136719 2.5 9.792969 C 2.5 9.445312 2.78125 9.167969 3.125 9.167969 C 3.46875 9.167969 3.75 9.445312 3.75 9.792969 Z M 3.75 9.792969 "/>
</g>
</svg>
