<?xml version="1.0" encoding="UTF-8"?>
<svg xmlns="http://www.w3.org/2000/svg" xmlns:xlink="http://www.w3.org/1999/xlink" width="15pt" height="15pt" viewBox="0 0 15 15" version="1.1">
<g id="surface1">
<path style=" stroke:none;fill-rule:nonzero;fill:rgb(99.215686%,84.705882%,53.333333%);fill-opacity:1;" d="M 13.75 12.917969 C 13.75 13.832031 13 14.582031 12.082031 14.582031 L 2.917969 14.582031 C 2 14.582031 1.25 13.832031 1.25 12.917969 L 1.25 5.832031 C 1.25 4.917969 2 4.167969 2.917969 4.167969 L 12.082031 4.167969 C 13 4.167969 13.75 4.917969 13.75 5.832031 Z M 13.75 12.917969 "/>
<path style=" stroke:none;fill-rule:nonzero;fill:rgb(99.215686%,84.705882%,53.333333%);fill-opacity:1;" d="M 15 4.582031 C 15 5.5 14.25 6.25 13.332031 6.25 L 1.667969 6.25 C 0.75 6.25 0 5.5 0 4.582031 C 0 3.667969 0.75 2.917969 1.667969 2.917969 L 13.332031 2.917969 C 14.25 2.917969 15 3.667969 15 4.582031 Z M 15 4.582031 "/>
<path style=" stroke:none;fill-rule:nonzero;fill:rgb(98.823529%,67.058824%,25.098039%);fill-opacity:1;" d="M 1.25 6.25 L 13.75 6.25 L 13.75 7.082031 L 1.25 7.082031 Z M 1.25 6.25 "/>
<path style=" stroke:none;fill-rule:nonzero;fill:rgb(85.490196%,18.431373%,27.843137%);fill-opacity:1;" d="M 7.917969 1.25 L 7.082031 1.25 C 6.394531 1.25 5.832031 1.808594 5.832031 2.5 L 5.832031 14.582031 L 9.167969 14.582031 L 9.167969 2.5 C 9.167969 1.808594 8.605469 1.25 7.917969 1.25 Z M 7.917969 1.25 "/>
<path style=" stroke:none;fill-rule:nonzero;fill:rgb(85.490196%,18.431373%,27.843137%);fill-opacity:1;" d="M 6.667969 2.917969 C 7.125 2.917969 7.191406 2.703125 6.816406 2.4375 L 4.015625 0.476562 C 3.640625 0.214844 3.148438 0.324219 2.921875 0.722656 L 2.078125 2.191406 C 1.851562 2.589844 2.042969 2.917969 2.5 2.917969 Z M 8.332031 2.917969 C 7.875 2.917969 7.808594 2.703125 8.183594 2.4375 L 10.984375 0.476562 C 11.359375 0.214844 11.851562 0.324219 12.082031 0.722656 L 12.921875 2.191406 C 13.148438 2.589844 12.957031 2.917969 12.5 2.917969 Z M 8.332031 2.917969 "/>
</g>
</svg>
