<?xml version="1.0" encoding="UTF-8"?>
<svg xmlns="http://www.w3.org/2000/svg" xmlns:xlink="http://www.w3.org/1999/xlink" width="15pt" height="15pt" viewBox="0 0 15 15" version="1.1">
<g id="surface1">
<path style=" stroke:none;fill-rule:nonzero;fill:rgb(13.333333%,40%,60%);fill-opacity:1;" d="M 15 13.332031 C 15 14.253906 14.253906 15 13.332031 15 L 1.667969 15 C 0.746094 15 0 14.253906 0 13.332031 L 0 1.667969 C 0 0.746094 0.746094 0 1.667969 0 L 13.332031 0 C 14.253906 0 15 0.746094 15 1.667969 Z M 15 13.332031 "/>
<path style=" stroke:none;fill-rule:nonzero;fill:rgb(33.333333%,67.45098%,93.333333%);fill-opacity:1;" d="M 7.5 0.9375 L 9.0625 2.5 L 11.25 2.5 L 11.25 4.6875 L 12.8125 6.25 L 11.25 7.8125 L 11.25 10 L 9.0625 10 L 7.5 11.5625 L 5.9375 10 L 3.75 10 L 3.75 7.8125 L 2.1875 6.25 L 3.75 4.6875 L 3.75 2.5 L 5.9375 2.5 Z M 7.5 0.9375 "/>
<path style=" stroke:none;fill-rule:nonzero;fill:rgb(100%,85.098039%,51.372549%);fill-opacity:1;" d="M 6.25 6.25 Z M 7.5 1.914062 L 8.429688 4.027344 L 10.453125 3.4375 L 9.863281 5.457031 L 12.5625 6.386719 L 9.863281 7.320312 L 10.453125 9.339844 L 8.429688 8.75 L 7.5 13.8125 L 6.570312 8.75 L 4.546875 9.339844 L 5.136719 7.320312 L 2.433594 6.386719 L 5.136719 5.457031 L 4.546875 3.4375 L 6.570312 4.027344 Z M 7.5 1.914062 "/>
<path style=" stroke:none;fill-rule:nonzero;fill:rgb(96.078431%,97.254902%,98.039216%);fill-opacity:1;" d="M 8.75 6.25 C 8.75 6.941406 8.191406 7.5 7.5 7.5 C 6.808594 7.5 6.25 6.941406 6.25 6.25 C 6.25 5.558594 6.808594 5 7.5 5 C 8.191406 5 8.75 5.558594 8.75 6.25 Z M 8.75 6.25 "/>
<path style=" stroke:none;fill-rule:nonzero;fill:rgb(100%,80%,30.196078%);fill-opacity:1;" d="M 4.167969 5.417969 C 4.085938 5.417969 4.007812 5.394531 3.933594 5.347656 L 1.433594 3.679688 C 1.246094 3.550781 1.191406 3.292969 1.320312 3.101562 C 1.449219 2.910156 1.707031 2.859375 1.898438 2.988281 L 4.398438 4.652344 C 4.589844 4.78125 4.640625 5.039062 4.511719 5.230469 C 4.433594 5.351562 4.300781 5.417969 4.167969 5.417969 Z M 10.832031 5.417969 C 10.699219 5.417969 10.566406 5.351562 10.488281 5.230469 C 10.359375 5.039062 10.410156 4.78125 10.601562 4.652344 L 13.101562 2.988281 C 13.292969 2.859375 13.550781 2.910156 13.679688 3.101562 C 13.808594 3.292969 13.757812 3.550781 13.566406 3.679688 L 11.066406 5.347656 C 10.992188 5.394531 10.914062 5.417969 10.832031 5.417969 Z M 1.667969 10 C 1.53125 10 1.402344 9.933594 1.320312 9.816406 C 1.191406 9.621094 1.246094 9.363281 1.433594 9.238281 L 3.933594 7.570312 C 4.125 7.441406 4.386719 7.492188 4.511719 7.683594 C 4.640625 7.878906 4.589844 8.136719 4.398438 8.261719 L 1.898438 9.929688 C 1.828125 9.976562 1.746094 10 1.667969 10 Z M 13.75 10 C 13.679688 10 13.609375 9.984375 13.542969 9.945312 L 10.625 8.277344 C 10.425781 8.164062 10.359375 7.910156 10.472656 7.710938 C 10.585938 7.511719 10.839844 7.441406 11.039062 7.554688 L 13.957031 9.222656 C 14.15625 9.335938 14.226562 9.589844 14.113281 9.789062 C 14.035156 9.925781 13.894531 10 13.75 10 Z M 4.167969 14.167969 C 4.109375 14.167969 4.054688 14.15625 3.996094 14.128906 C 3.789062 14.035156 3.691406 13.789062 3.785156 13.582031 L 5.453125 9.832031 C 5.546875 9.621094 5.792969 9.527344 6.003906 9.621094 C 6.214844 9.714844 6.308594 9.960938 6.214844 10.167969 L 4.546875 13.917969 C 4.476562 14.074219 4.324219 14.167969 4.167969 14.167969 Z M 10.832031 14.167969 C 10.671875 14.167969 10.523438 14.074219 10.453125 13.917969 L 8.785156 10.167969 C 8.691406 9.957031 8.785156 9.710938 8.996094 9.621094 C 9.207031 9.527344 9.453125 9.621094 9.546875 9.832031 L 11.214844 13.582031 C 11.308594 13.792969 11.214844 14.039062 11.003906 14.128906 C 10.949219 14.15625 10.890625 14.167969 10.832031 14.167969 Z M 6.25 3.332031 C 6.097656 3.332031 5.949219 3.25 5.878906 3.101562 L 5.042969 1.4375 C 4.941406 1.230469 5.023438 0.980469 5.230469 0.878906 C 5.4375 0.773438 5.6875 0.859375 5.789062 1.0625 L 6.621094 2.730469 C 6.726562 2.9375 6.640625 3.1875 6.4375 3.289062 C 6.375 3.320312 6.3125 3.332031 6.25 3.332031 Z M 8.75 3.332031 C 8.6875 3.332031 8.625 3.320312 8.5625 3.289062 C 8.359375 3.1875 8.273438 2.9375 8.378906 2.730469 L 9.210938 1.0625 C 9.3125 0.859375 9.5625 0.773438 9.769531 0.878906 C 9.976562 0.980469 10.058594 1.230469 9.957031 1.4375 L 9.121094 3.101562 C 9.050781 3.25 8.902344 3.332031 8.75 3.332031 Z M 8.75 3.332031 "/>
</g>
</svg>
