<?xml version="1.0" encoding="UTF-8"?>
<svg xmlns="http://www.w3.org/2000/svg" xmlns:xlink="http://www.w3.org/1999/xlink" width="15pt" height="15pt" viewBox="0 0 15 15" version="1.1">
<g id="surface1">
<path style=" stroke:none;fill-rule:nonzero;fill:rgb(0%,0%,0%);fill-opacity:1;" d="M 8.507812 6.226562 C 8.089844 5.464844 7.929688 4.652344 7.804688 4 C 7.769531 3.824219 8.460938 3.085938 8.511719 3.308594 C 8.550781 3.476562 8.585938 3.65625 8.621094 3.84375 C 8.746094 4.46875 8.882812 5.179688 9.238281 5.824219 C 9.347656 6.023438 8.582031 6.363281 8.507812 6.226562 Z M 8.507812 6.226562 "/>
<path style=" stroke:none;fill-rule:nonzero;fill:rgb(74.509804%,9.803922%,19.215686%);fill-opacity:1;" d="M 7.691406 7.195312 C 8.054688 6.976562 9.933594 6.074219 10.472656 5.828125 C 10.691406 6.527344 11.683594 12.269531 14.320312 12.136719 C 14.933594 12.167969 14.363281 12.765625 13.871094 12.824219 C 13.375 12.882812 12.660156 12.75 12.367188 12.617188 C 12.457031 12.925781 12.480469 13.859375 12.46875 14.179688 C 12.457031 14.570312 12 14.421875 11.566406 14.164062 C 8.972656 12.605469 7.691406 7.195312 7.691406 7.195312 Z M 7.691406 7.195312 "/>
<path style=" stroke:none;fill-rule:nonzero;fill:rgb(62.745098%,1.568627%,11.764706%);fill-opacity:1;" d="M 10.472656 5.828125 C 9.933594 6.074219 8.054688 6.976562 7.691406 7.195312 C 7.691406 7.195312 7.75 7.457031 7.875 7.878906 C 8.492188 7.597656 9.941406 6.945312 10.667969 6.617188 C 10.578125 6.238281 10.511719 5.953125 10.472656 5.828125 Z M 10.472656 5.828125 "/>
<path style=" stroke:none;fill-rule:nonzero;fill:rgb(100%,67.45098%,20%);fill-opacity:1;" d="M 7.589844 7.269531 C 8.0625 7.082031 10.167969 6.117188 10.589844 5.914062 C 11.011719 5.710938 10.882812 4.9375 10.386719 5.113281 C 9.890625 5.289062 7.863281 6.265625 7.382812 6.46875 C 6.902344 6.671875 7.222656 7.414062 7.589844 7.269531 Z M 7.589844 7.269531 "/>
<path style=" stroke:none;fill-rule:nonzero;fill:rgb(65.098039%,82.745098%,53.333333%);fill-opacity:1;" d="M 2.582031 5.851562 C 1.792969 5.175781 4.347656 3.765625 5.832031 3.292969 C 5.726562 3.742188 3.71875 6.824219 2.582031 5.851562 Z M 10.640625 1.828125 C 11.042969 0.871094 13.167969 2.875 14.066406 4.140625 C 13.613281 4.175781 10.0625 3.210938 10.640625 1.828125 Z M 10.640625 1.828125 "/>
<path style=" stroke:none;fill-rule:nonzero;fill:rgb(36.078431%,56.862745%,23.137255%);fill-opacity:1;" d="M 1.285156 14.84375 C 0.9375 14.84375 0.660156 14.5625 0.660156 14.21875 C 0.660156 14.140625 0.65625 14.035156 0.65625 13.914062 C 0.621094 12.175781 0.628906 7.023438 4.167969 1.078125 C 4.34375 0.78125 4.605469 0.554688 4.902344 0.730469 C 5.199219 0.90625 5.039062 1.300781 4.859375 1.597656 C 1.507812 7.238281 1.871094 12.238281 1.90625 13.886719 C 1.90625 14.019531 1.910156 14.132812 1.910156 14.21875 C 1.910156 14.5625 1.628906 14.84375 1.285156 14.84375 Z M 1.285156 14.84375 "/>
<path style=" stroke:none;fill-rule:nonzero;fill:rgb(24.313725%,44.705882%,11.372549%);fill-opacity:1;" d="M 0.867188 13.765625 C 0.539062 13.765625 0.265625 13.511719 0.246094 13.179688 C 0.222656 12.835938 0.484375 12.539062 0.832031 12.519531 L 1.699219 12.464844 C 2.042969 12.441406 2.339844 12.707031 2.359375 13.050781 C 2.378906 13.398438 2.117188 13.691406 1.773438 13.714844 L 0.90625 13.765625 C 0.894531 13.765625 0.878906 13.765625 0.867188 13.765625 Z M 0.867188 13.765625 "/>
<path style=" stroke:none;fill-rule:nonzero;fill:rgb(36.078431%,56.862745%,23.137255%);fill-opacity:1;" d="M 3.210938 14.828125 C 3.171875 14.828125 3.132812 14.824219 3.09375 14.816406 C 2.753906 14.75 2.53125 14.421875 2.597656 14.082031 C 2.613281 14.007812 2.628906 13.894531 2.652344 13.75 C 4.070312 4.878906 8.285156 1.972656 11.734375 0.902344 C 12.070312 0.800781 12.613281 0.753906 12.714844 1.082031 C 12.816406 1.410156 12.464844 1.617188 12.136719 1.71875 C 9.023438 2.683594 5.203125 5.710938 3.886719 13.949219 C 3.863281 14.109375 3.839844 14.234375 3.824219 14.320312 C 3.765625 14.621094 3.503906 14.828125 3.210938 14.828125 Z M 3.210938 14.828125 "/>
<path style=" stroke:none;fill-rule:nonzero;fill:rgb(24.313725%,44.705882%,11.372549%);fill-opacity:1;" d="M 4.132812 3.59375 C 4.046875 3.59375 3.964844 3.578125 3.882812 3.542969 L 3 3.160156 C 2.683594 3.023438 2.535156 2.65625 2.671875 2.339844 C 2.808594 2.023438 3.175781 1.875 3.496094 2.011719 L 4.378906 2.394531 C 4.695312 2.53125 4.84375 2.898438 4.707031 3.214844 C 4.605469 3.453125 4.375 3.59375 4.132812 3.59375 Z M 2.273438 8.714844 C 2.222656 8.714844 2.171875 8.707031 2.117188 8.695312 L 1.179688 8.453125 C 0.847656 8.367188 0.644531 8.023438 0.730469 7.691406 C 0.816406 7.355469 1.160156 7.15625 1.492188 7.242188 L 2.429688 7.484375 C 2.765625 7.570312 2.964844 7.910156 2.878906 8.246094 C 2.804688 8.527344 2.550781 8.714844 2.273438 8.714844 Z M 9.445312 3.644531 C 9.246094 3.644531 9.046875 3.550781 8.925781 3.371094 L 8.386719 2.570312 C 8.195312 2.285156 8.269531 1.898438 8.558594 1.703125 C 8.84375 1.511719 9.230469 1.585938 9.425781 1.871094 L 9.964844 2.671875 C 10.15625 2.957031 10.078125 3.347656 9.792969 3.539062 C 9.6875 3.609375 9.566406 3.644531 9.445312 3.644531 Z M 6.109375 7.621094 C 6.011719 7.621094 5.914062 7.597656 5.820312 7.550781 L 4.761719 6.996094 C 4.457031 6.835938 4.339844 6.457031 4.5 6.152344 C 4.660156 5.84375 5.035156 5.726562 5.34375 5.886719 L 6.402344 6.441406 C 6.707031 6.605469 6.824219 6.980469 6.664062 7.285156 C 6.554688 7.5 6.335938 7.621094 6.109375 7.621094 Z M 4.132812 12.484375 C 4.078125 12.484375 4.027344 12.476562 3.972656 12.460938 L 3.050781 12.21875 C 2.71875 12.128906 2.519531 11.789062 2.609375 11.453125 C 2.695312 11.121094 3.039062 10.921875 3.371094 11.011719 L 4.292969 11.253906 C 4.625 11.339844 4.824219 11.683594 4.734375 12.015625 C 4.660156 12.296875 4.410156 12.484375 4.132812 12.484375 Z M 4.132812 12.484375 "/>
<path style=" stroke:none;fill-rule:nonzero;fill:rgb(65.098039%,82.745098%,53.333333%);fill-opacity:1;" d="M 2.066406 6.335938 C 1.128906 6.78125 0.886719 3.871094 1.058594 2.328125 C 1.421875 2.605469 3.421875 5.695312 2.066406 6.335938 Z M 2.066406 6.335938 "/>
</g>
</svg>
