<?xml version="1.0" encoding="UTF-8"?>
<svg xmlns="http://www.w3.org/2000/svg" xmlns:xlink="http://www.w3.org/1999/xlink" width="15pt" height="15pt" viewBox="0 0 15 15" version="1.1">
<g id="surface1">
<path style=" stroke:none;fill-rule:nonzero;fill:rgb(16.078431%,18.431373%,20%);fill-opacity:1;" d="M 10.832031 3.75 C 9.335938 3.75 8.222656 3.0625 7.503906 1.707031 C 6.828125 3.046875 5.832031 3.75 4.582031 3.75 C 4.351562 3.75 4.167969 3.5625 4.167969 3.332031 C 4.167969 3.101562 4.351562 2.917969 4.582031 2.917969 C 5.71875 2.917969 6.570312 2.101562 7.105469 0.492188 C 7.160156 0.324219 7.320312 0.207031 7.5 0.207031 C 7.679688 0.207031 7.839844 0.324219 7.894531 0.492188 C 8.445312 2.144531 9.378906 2.917969 10.832031 2.917969 C 11.0625 2.917969 11.25 3.101562 11.25 3.332031 C 11.25 3.5625 11.0625 3.75 10.832031 3.75 Z M 10.832031 3.75 "/>
<path style=" stroke:none;fill-rule:nonzero;fill:rgb(100%,67.45098%,20%);fill-opacity:1;" d="M 6.128906 4.023438 C 7.53125 5.425781 6.335938 6.503906 4.933594 7.90625 C 3.53125 9.308594 2.453125 10.503906 1.050781 9.101562 C -0.351562 7.699219 -0.351562 5.425781 1.050781 4.023438 C 2.453125 2.621094 4.726562 2.621094 6.128906 4.023438 Z M 6.128906 4.023438 "/>
<path style=" stroke:none;fill-rule:nonzero;fill:rgb(74.509804%,9.803922%,19.215686%);fill-opacity:1;" d="M 6.476562 4.570312 C 7.136719 5.230469 6.578125 6.859375 5.234375 8.203125 C 3.886719 9.550781 2.261719 10.105469 1.601562 9.445312 C 0.941406 8.785156 1.496094 7.160156 2.84375 5.8125 C 4.191406 4.46875 5.816406 3.910156 6.476562 4.570312 Z M 6.476562 4.570312 "/>
<path style=" stroke:none;fill-rule:nonzero;fill:rgb(100%,67.45098%,20%);fill-opacity:1;" d="M 8.871094 4.023438 C 7.46875 5.425781 8.664062 6.503906 10.066406 7.90625 C 11.46875 9.308594 12.546875 10.503906 13.949219 9.101562 C 15.351562 7.699219 15.351562 5.425781 13.949219 4.023438 C 12.546875 2.621094 10.273438 2.621094 8.871094 4.023438 Z M 8.871094 4.023438 "/>
<path style=" stroke:none;fill-rule:nonzero;fill:rgb(74.509804%,9.803922%,19.215686%);fill-opacity:1;" d="M 8.523438 4.570312 C 7.863281 5.230469 8.421875 6.859375 9.765625 8.203125 C 11.113281 9.550781 12.738281 10.105469 13.398438 9.445312 C 14.058594 8.785156 13.503906 7.160156 12.15625 5.8125 C 10.808594 4.46875 9.183594 3.910156 8.523438 4.570312 Z M 8.523438 4.570312 "/>
<path style=" stroke:none;fill-rule:nonzero;fill:rgb(66.666667%,55.294118%,84.705882%);fill-opacity:1;" d="M 9.335938 7.59375 C 9.421875 7.527344 9.527344 7.492188 9.644531 7.503906 C 10.003906 7.542969 10.308594 7.667969 10.523438 7.867188 C 10.746094 8.078125 10.859375 8.359375 10.828125 8.640625 C 10.773438 9.136719 10.277344 9.59375 9.425781 9.503906 C 9.097656 9.46875 8.949219 9.574219 8.945312 9.625 C 8.9375 9.675781 9.058594 9.808594 9.390625 9.84375 C 9.75 9.882812 10.054688 10.011719 10.269531 10.210938 C 10.496094 10.417969 10.605469 10.703125 10.574219 10.984375 C 10.519531 11.480469 10.023438 11.9375 9.175781 11.847656 C 8.933594 11.820312 8.804688 11.871094 8.753906 11.902344 C 8.710938 11.929688 8.691406 11.953125 8.691406 11.96875 C 8.6875 12.015625 8.804688 12.152344 9.136719 12.1875 C 9.367188 12.214844 9.53125 12.417969 9.507812 12.648438 C 9.480469 12.875 9.277344 13.042969 9.046875 13.015625 C 8.199219 12.925781 7.808594 12.375 7.863281 11.878906 C 7.914062 11.382812 8.414062 10.925781 9.261719 11.015625 C 9.503906 11.042969 9.628906 10.992188 9.683594 10.960938 C 9.726562 10.9375 9.746094 10.910156 9.746094 10.894531 C 9.75 10.847656 9.632812 10.710938 9.300781 10.675781 C 8.453125 10.582031 8.0625 10.03125 8.113281 9.535156 C 8.167969 9.039062 8.667969 8.582031 9.515625 8.675781 C 9.757812 8.699219 9.882812 8.652344 9.9375 8.617188 C 9.980469 8.59375 9.996094 8.566406 10 8.554688 C 10.003906 8.503906 9.882812 8.367188 9.554688 8.332031 C 9.324219 8.308594 9.160156 8.101562 9.183594 7.871094 C 9.195312 7.757812 9.253906 7.660156 9.335938 7.59375 Z M 9.335938 7.59375 "/>
<path style=" stroke:none;fill-rule:nonzero;fill:rgb(46.666667%,69.803922%,33.333333%);fill-opacity:1;" d="M 6.359375 14.929688 C 5.539062 15.160156 4.972656 14.792969 4.835938 14.3125 C 4.703125 13.832031 4.996094 13.222656 5.816406 12.992188 C 6.136719 12.902344 6.234375 12.75 6.21875 12.699219 C 6.207031 12.652344 6.042969 12.570312 5.722656 12.660156 C 4.902344 12.890625 4.335938 12.523438 4.199219 12.042969 C 4.0625 11.5625 4.355469 10.953125 5.179688 10.722656 C 5.5 10.632812 5.597656 10.480469 5.582031 10.429688 C 5.566406 10.382812 5.40625 10.300781 5.085938 10.390625 C 4.863281 10.453125 4.632812 10.324219 4.570312 10.101562 C 4.507812 9.882812 4.636719 9.652344 4.859375 9.589844 C 5.679688 9.359375 6.25 9.722656 6.382812 10.207031 C 6.519531 10.6875 6.226562 11.292969 5.40625 11.527344 C 5.082031 11.617188 4.988281 11.769531 5 11.816406 C 5.015625 11.867188 5.175781 11.949219 5.496094 11.859375 C 6.320312 11.625 6.886719 11.992188 7.023438 12.472656 C 7.15625 12.953125 6.863281 13.5625 6.042969 13.796875 C 5.722656 13.882812 5.625 14.039062 5.640625 14.085938 C 5.652344 14.136719 5.816406 14.21875 6.136719 14.128906 C 6.359375 14.066406 6.585938 14.195312 6.648438 14.414062 C 6.710938 14.636719 6.582031 14.867188 6.359375 14.929688 Z M 6.359375 14.929688 "/>
<path style=" stroke:none;fill-rule:nonzero;fill:rgb(36.078431%,56.862745%,23.137255%);fill-opacity:1;" d="M 1.667969 11.457031 C 1.667969 11.804688 1.386719 12.082031 1.042969 12.082031 C 0.695312 12.082031 0.417969 11.804688 0.417969 11.457031 C 0.417969 11.113281 0.695312 10.832031 1.042969 10.832031 C 1.386719 10.832031 1.667969 11.113281 1.667969 11.457031 Z M 1.667969 11.457031 "/>
<path style=" stroke:none;fill-rule:nonzero;fill:rgb(57.254902%,40%,80%);fill-opacity:1;" d="M 3.75 12.917969 C 3.75 13.375 3.375 13.75 2.917969 13.75 C 2.457031 13.75 2.082031 13.375 2.082031 12.917969 C 2.082031 12.457031 2.457031 12.082031 2.917969 12.082031 C 3.375 12.082031 3.75 12.457031 3.75 12.917969 Z M 3.75 12.917969 "/>
<path style=" stroke:none;fill-rule:nonzero;fill:rgb(57.254902%,40%,80%);fill-opacity:1;" d="M 13.332031 11.25 C 13.332031 11.710938 12.960938 12.082031 12.5 12.082031 C 12.039062 12.082031 11.667969 11.710938 11.667969 11.25 C 11.667969 10.789062 12.039062 10.417969 12.5 10.417969 C 12.960938 10.417969 13.332031 10.789062 13.332031 11.25 Z M 13.332031 11.25 "/>
<path style=" stroke:none;fill-rule:nonzero;fill:rgb(36.078431%,56.862745%,23.137255%);fill-opacity:1;" d="M 11.25 13.125 C 11.25 13.46875 10.96875 13.75 10.625 13.75 C 10.28125 13.75 10 13.46875 10 13.125 C 10 12.78125 10.28125 12.5 10.625 12.5 C 10.96875 12.5 11.25 12.78125 11.25 13.125 Z M 11.25 13.125 "/>
<path style=" stroke:none;fill-rule:nonzero;fill:rgb(36.078431%,56.862745%,23.137255%);fill-opacity:1;" d="M 7.917969 8.125 C 7.917969 8.46875 7.636719 8.75 7.292969 8.75 C 6.945312 8.75 6.667969 8.46875 6.667969 8.125 C 6.667969 7.78125 6.945312 7.5 7.292969 7.5 C 7.636719 7.5 7.917969 7.78125 7.917969 8.125 Z M 7.917969 8.125 "/>
<path style=" stroke:none;fill-rule:nonzero;fill:rgb(100%,80%,30.196078%);fill-opacity:1;" d="M 3.75 9.582031 C 3.75 10.042969 3.375 10.417969 2.917969 10.417969 C 2.457031 10.417969 2.082031 10.042969 2.082031 9.582031 C 2.082031 9.125 2.457031 8.75 2.917969 8.75 C 3.375 8.75 3.75 9.125 3.75 9.582031 Z M 3.75 9.582031 "/>
<path style=" stroke:none;fill-rule:nonzero;fill:rgb(100%,80%,30.196078%);fill-opacity:1;" d="M 12.082031 6.875 C 12.082031 7.21875 11.804688 7.5 11.457031 7.5 C 11.113281 7.5 10.832031 7.21875 10.832031 6.875 C 10.832031 6.53125 11.113281 6.25 11.457031 6.25 C 11.804688 6.25 12.082031 6.53125 12.082031 6.875 Z M 12.082031 6.875 "/>
<path style=" stroke:none;fill-rule:nonzero;fill:rgb(100%,80%,30.196078%);fill-opacity:1;" d="M 5.832031 6.042969 C 5.832031 6.386719 5.554688 6.667969 5.207031 6.667969 C 4.863281 6.667969 4.582031 6.386719 4.582031 6.042969 C 4.582031 5.695312 4.863281 5.417969 5.207031 5.417969 C 5.554688 5.417969 5.832031 5.695312 5.832031 6.042969 Z M 5.832031 6.042969 "/>
</g>
</svg>
