<?xml version="1.0" encoding="UTF-8"?>
<svg xmlns="http://www.w3.org/2000/svg" xmlns:xlink="http://www.w3.org/1999/xlink" width="15pt" height="15pt" viewBox="0 0 15 15" version="1.1">
<g id="surface1">
<path style=" stroke:none;fill-rule:nonzero;fill:rgb(80%,83.921569%,86.666667%);fill-opacity:1;" d="M 13.75 13.332031 C 13.75 14.253906 13.003906 15 12.082031 15 L 2.917969 15 C 1.996094 15 1.25 14.253906 1.25 13.332031 L 1.25 1.667969 C 1.25 0.746094 1.996094 0 2.917969 0 L 12.082031 0 C 13.003906 0 13.75 0.746094 13.75 1.667969 Z M 13.75 13.332031 "/>
<path style=" stroke:none;fill-rule:nonzero;fill:rgb(16.078431%,18.431373%,20%);fill-opacity:1;" d="M 7.917969 12.917969 C 7.917969 13.148438 7.730469 13.332031 7.5 13.332031 C 7.269531 13.332031 7.082031 13.148438 7.082031 12.917969 L 7.082031 2.082031 C 7.082031 1.851562 7.269531 1.667969 7.5 1.667969 C 7.730469 1.667969 7.917969 1.851562 7.917969 2.082031 Z M 7.917969 12.917969 "/>
<path style=" stroke:none;fill-rule:nonzero;fill:rgb(60%,66.666667%,70.980392%);fill-opacity:1;" d="M 6.25 2.5 C 6.25 2.730469 6.0625 2.917969 5.832031 2.917969 L 4.167969 2.917969 C 3.9375 2.917969 3.75 2.730469 3.75 2.5 C 3.75 2.269531 3.9375 2.082031 4.167969 2.082031 L 5.832031 2.082031 C 6.0625 2.082031 6.25 2.269531 6.25 2.5 Z M 6.25 7.5 C 6.25 7.730469 6.0625 7.917969 5.832031 7.917969 L 4.167969 7.917969 C 3.9375 7.917969 3.75 7.730469 3.75 7.5 C 3.75 7.269531 3.9375 7.082031 4.167969 7.082031 L 5.832031 7.082031 C 6.0625 7.082031 6.25 7.269531 6.25 7.5 Z M 6.25 12.5 C 6.25 12.730469 6.0625 12.917969 5.832031 12.917969 L 4.167969 12.917969 C 3.9375 12.917969 3.75 12.730469 3.75 12.5 C 3.75 12.269531 3.9375 12.082031 4.167969 12.082031 L 5.832031 12.082031 C 6.0625 12.082031 6.25 12.269531 6.25 12.5 Z M 11.25 2.5 C 11.25 2.730469 11.0625 2.917969 10.832031 2.917969 L 9.167969 2.917969 C 8.9375 2.917969 8.75 2.730469 8.75 2.5 C 8.75 2.269531 8.9375 2.082031 9.167969 2.082031 L 10.832031 2.082031 C 11.0625 2.082031 11.25 2.269531 11.25 2.5 Z M 11.25 7.5 C 11.25 7.730469 11.0625 7.917969 10.832031 7.917969 L 9.167969 7.917969 C 8.9375 7.917969 8.75 7.730469 8.75 7.5 C 8.75 7.269531 8.9375 7.082031 9.167969 7.082031 L 10.832031 7.082031 C 11.0625 7.082031 11.25 7.269531 11.25 7.5 Z M 11.25 12.5 C 11.25 12.730469 11.0625 12.917969 10.832031 12.917969 L 9.167969 12.917969 C 8.9375 12.917969 8.75 12.730469 8.75 12.5 C 8.75 12.269531 8.9375 12.082031 9.167969 12.082031 L 10.832031 12.082031 C 11.0625 12.082031 11.25 12.269531 11.25 12.5 Z M 6.25 10.042969 C 6.25 10.25 6.082031 10.417969 5.878906 10.417969 L 4.957031 10.417969 C 4.75 10.417969 4.582031 10.25 4.582031 10.042969 L 4.582031 9.957031 C 4.582031 9.75 4.75 9.582031 4.957031 9.582031 L 5.878906 9.582031 C 6.082031 9.582031 6.25 9.75 6.25 9.957031 Z M 10.417969 10.042969 C 10.417969 10.25 10.25 10.417969 10.042969 10.417969 L 9.121094 10.417969 C 8.917969 10.417969 8.75 10.25 8.75 10.042969 L 8.75 9.957031 C 8.75 9.75 8.917969 9.582031 9.121094 9.582031 L 10.046875 9.582031 C 10.25 9.582031 10.417969 9.75 10.417969 9.957031 Z M 10.417969 10.042969 "/>
<path style=" stroke:none;fill-rule:nonzero;fill:rgb(13.333333%,40%,60%);fill-opacity:1;" d="M 10.417969 5.417969 C 10.417969 5.875 10.042969 6.25 9.582031 6.25 L 5.417969 6.25 C 4.957031 6.25 4.582031 5.875 4.582031 5.417969 L 4.582031 4.582031 C 4.582031 4.125 4.957031 3.75 5.417969 3.75 L 9.582031 3.75 C 10.042969 3.75 10.417969 4.125 10.417969 4.582031 Z M 10.417969 5.417969 "/>
</g>
</svg>
