<?xml version="1.0" encoding="UTF-8"?>
<svg xmlns="http://www.w3.org/2000/svg" xmlns:xlink="http://www.w3.org/1999/xlink" width="15pt" height="15pt" viewBox="0 0 15 15" version="1.1">
<g id="surface1">
<path style=" stroke:none;fill-rule:nonzero;fill:rgb(75.686275%,41.176471%,30.980392%);fill-opacity:1;" d="M 4.976562 11.25 C -0.433594 3.28125 3.136719 1.148438 3.796875 0.832031 C 3.859375 0.804688 3.898438 0.789062 3.898438 0.789062 C 4.074219 0.703125 4.164062 0.507812 4.121094 0.320312 C 4.074219 0.132812 3.90625 0 3.710938 0 L 2.019531 0 C 0.4375 0 -1.785156 4.582031 2.441406 11.667969 C 2.503906 11.773438 4.554688 11.667969 4.554688 11.667969 C 4.789062 11.667969 5.105469 11.441406 4.976562 11.25 Z M 13.011719 0 L 11.34375 0 C 11.152344 0 10.984375 0.132812 10.941406 0.320312 C 10.894531 0.507812 10.984375 0.703125 11.15625 0.789062 C 11.160156 0.789062 11.199219 0.804688 11.257812 0.832031 C 11.910156 1.148438 15.429688 3.28125 10.09375 11.25 C 9.96875 11.441406 10.28125 11.667969 10.511719 11.667969 C 10.511719 11.667969 12.535156 11.773438 12.597656 11.667969 C 16.761719 4.582031 14.570312 0 13.011719 0 Z M 13.011719 0 "/>
<path style=" stroke:none;fill-rule:nonzero;fill:rgb(40%,12.941176%,7.45098%);fill-opacity:1;" d="M 2.871094 12.015625 L 2.871094 12.019531 C 2.84375 11.898438 5.105469 11.441406 4.976562 11.25 C -0.433594 3.28125 3.136719 1.148438 3.796875 0.832031 L 2.019531 0.832031 C 0.4375 0.832031 -1.363281 5.417969 2.871094 12.015625 Z M 13.011719 0.832031 L 11.257812 0.832031 C 11.910156 1.148438 15.429688 3.28125 10.09375 11.25 C 9.96875 11.441406 12.171875 12.015625 12.171875 12.015625 C 16.347656 5.417969 14.570312 0.832031 13.011719 0.832031 Z M 13.011719 0.832031 "/>
<path style=" stroke:none;fill-rule:nonzero;fill:rgb(75.686275%,41.176471%,30.980392%);fill-opacity:1;" d="M 4.132812 3.332031 C 3.898438 3.332031 3.707031 3.148438 3.707031 2.917969 C 3.707031 1.535156 2.863281 0.832031 2.019531 0.832031 C 1.824219 0.832031 1.984375 0.507812 2.03125 0.320312 C 2.078125 0.132812 2.246094 0 2.441406 0 L 4.554688 0 C 6.132812 0 6.613281 2.558594 6.660156 2.847656 C 6.683594 2.96875 6.648438 3.09375 6.566406 3.1875 C 6.484375 3.28125 6.367188 3.332031 6.246094 3.332031 Z M 10.929688 3.332031 C 11.160156 3.332031 11.347656 3.148438 11.347656 2.917969 C 11.347656 1.535156 12.179688 0.832031 13.011719 0.832031 C 13.207031 0.832031 13.046875 0.507812 13 0.320312 C 12.957031 0.132812 12.789062 0 12.597656 0 L 10.511719 0 C 8.957031 0 8.484375 2.558594 8.433594 2.847656 C 8.414062 2.96875 8.449219 3.09375 8.527344 3.1875 C 8.609375 3.28125 8.722656 3.332031 8.847656 3.332031 Z M 10.929688 3.332031 "/>
<path style=" stroke:none;fill-rule:nonzero;fill:rgb(74.509804%,9.803922%,19.215686%);fill-opacity:1;" d="M 2.5 13.332031 C 2.5 13.332031 2.5 15 4.167969 15 L 10.832031 15 C 10.832031 15 12.5 15 12.5 13.332031 L 12.5 4.167969 C 12.5 4.167969 12.5 2.5 10.832031 2.5 L 4.167969 2.5 C 2.5 2.5 2.5 4.167969 2.5 4.167969 Z M 2.5 13.332031 "/>
<path style=" stroke:none;fill-rule:nonzero;fill:rgb(62.745098%,1.568627%,11.764706%);fill-opacity:1;" d="M 10 11.667969 L 5 11.667969 C 4.082031 11.667969 3.75 10.917969 3.75 10.417969 L 3.75 4.582031 C 3.75 4.351562 3.9375 4.167969 4.167969 4.167969 C 4.398438 4.167969 4.582031 4.351562 4.582031 4.582031 L 4.582031 10.417969 C 4.589844 10.605469 4.664062 10.832031 5 10.832031 L 10 10.832031 C 10.1875 10.828125 10.417969 10.753906 10.417969 10.417969 L 10.417969 4.582031 C 10.417969 4.351562 10.601562 4.167969 10.832031 4.167969 C 11.0625 4.167969 11.25 4.351562 11.25 4.582031 L 11.25 10.417969 C 11.25 11.332031 10.503906 11.667969 10 11.667969 Z M 10 11.667969 "/>
<path style=" stroke:none;fill-rule:nonzero;fill:rgb(100%,100%,100%);fill-opacity:1;" d="M 6.667969 10.417969 C 6.667969 10.417969 6.667969 10 7.082031 10 L 7.917969 10 C 7.917969 10 8.332031 10 8.332031 10.417969 L 8.332031 12.5 C 8.332031 12.5 8.332031 12.917969 7.917969 12.917969 L 7.082031 12.917969 C 7.082031 12.917969 6.667969 12.917969 6.667969 12.5 Z M 6.667969 10.417969 "/>
</g>
</svg>
