<?xml version="1.0" encoding="UTF-8"?>
<svg xmlns="http://www.w3.org/2000/svg" xmlns:xlink="http://www.w3.org/1999/xlink" width="15pt" height="15pt" viewBox="0 0 15 15" version="1.1">
<g id="surface1">
<path style=" stroke:none;fill-rule:nonzero;fill:rgb(33.333333%,67.45098%,93.333333%);fill-opacity:1;" d="M 10.417969 0 L 4.582031 0 C 4.125 0 3.75 0.375 3.75 0.832031 L 3.75 5.417969 C 3.75 5.417969 3.75 5.832031 4.167969 6.25 L 6.84375 8.332031 L 8.15625 8.332031 L 10.832031 6.25 C 11.25 5.832031 11.25 5.417969 11.25 5.417969 L 11.25 0.832031 C 11.25 0.375 10.875 0 10.417969 0 Z M 10.417969 0 "/>
<path style=" stroke:none;fill-rule:nonzero;fill:rgb(88.235294%,90.980392%,92.941176%);fill-opacity:1;" d="M 5 0 L 5 6.898438 L 6.84375 8.332031 L 8.15625 8.332031 L 10 6.898438 L 10 0 Z M 5 0 "/>
<path style=" stroke:none;fill-rule:nonzero;fill:rgb(86.666667%,18.039216%,26.666667%);fill-opacity:1;" d="M 5.832031 0 L 5.832031 7.546875 L 6.84375 8.332031 L 8.15625 8.332031 L 9.167969 7.546875 L 9.167969 0 Z M 5.832031 0 "/>
<path style=" stroke:none;fill-rule:nonzero;fill:rgb(100%,67.45098%,20%);fill-opacity:1;" d="M 9.125 8.757812 C 9.152344 8.691406 9.167969 8.617188 9.167969 8.542969 C 9.167969 8.195312 8.886719 7.917969 8.542969 7.917969 L 6.457031 7.917969 C 6.113281 7.917969 5.832031 8.195312 5.832031 8.542969 C 5.832031 8.617188 5.847656 8.691406 5.875 8.757812 C 4.855469 9.328125 4.167969 10.417969 4.167969 11.667969 C 4.167969 13.507812 5.660156 15 7.5 15 C 9.339844 15 10.832031 13.507812 10.832031 11.667969 C 10.832031 10.417969 10.144531 9.328125 9.125 8.757812 Z M 9.125 8.757812 "/>
<path style=" stroke:none;fill-rule:nonzero;fill:rgb(100%,85.098039%,51.372549%);fill-opacity:1;" d="M 10 11.667969 C 10 13.046875 8.878906 14.167969 7.5 14.167969 C 6.121094 14.167969 5 13.046875 5 11.667969 C 5 10.285156 6.121094 9.167969 7.5 9.167969 C 8.878906 9.167969 10 10.285156 10 11.667969 Z M 10 11.667969 "/>
<path style=" stroke:none;fill-rule:nonzero;fill:rgb(100%,67.45098%,20%);fill-opacity:1;" d="M 8.636719 13.484375 C 8.589844 13.484375 8.539062 13.46875 8.496094 13.4375 L 7.5 12.722656 L 6.503906 13.4375 C 6.417969 13.5 6.304688 13.5 6.21875 13.4375 C 6.136719 13.375 6.097656 13.265625 6.132812 13.167969 L 6.503906 11.96875 L 5.515625 11.273438 C 5.429688 11.210938 5.394531 11.101562 5.429688 11.003906 C 5.460938 10.902344 5.554688 10.835938 5.65625 10.835938 L 6.878906 10.832031 L 7.269531 9.664062 C 7.304688 9.5625 7.394531 9.496094 7.5 9.496094 C 7.605469 9.496094 7.695312 9.5625 7.730469 9.664062 L 8.113281 10.832031 L 9.34375 10.835938 C 9.445312 10.835938 9.539062 10.902344 9.570312 11.003906 C 9.601562 11.101562 9.570312 11.210938 9.484375 11.273438 L 8.496094 11.96875 L 8.867188 13.167969 C 8.898438 13.265625 8.863281 13.375 8.78125 13.4375 C 8.738281 13.46875 8.6875 13.484375 8.636719 13.484375 Z M 8.636719 13.484375 "/>
</g>
</svg>
