<?xml version="1.0" encoding="UTF-8"?>
<svg xmlns="http://www.w3.org/2000/svg" xmlns:xlink="http://www.w3.org/1999/xlink" width="15pt" height="15pt" viewBox="0 0 15 15" version="1.1">
<g id="surface1">
<path style=" stroke:none;fill-rule:nonzero;fill:rgb(73.333333%,86.666667%,96.078431%);fill-opacity:1;" d="M 12.082031 4.582031 L 14.582031 4.582031 L 14.582031 10.417969 L 12.082031 10.417969 Z M 0.417969 4.582031 L 2.917969 4.582031 L 2.917969 10.417969 L 0.417969 10.417969 Z M 3.75 4.582031 L 11.25 4.582031 L 11.25 10.417969 L 3.75 10.417969 Z M 3.75 4.582031 "/>
<path style=" stroke:none;fill-rule:nonzero;fill:rgb(13.72549%,12.156863%,12.54902%);fill-opacity:1;" d="M 14.582031 4.582031 L 14.582031 2.5 L 0.417969 2.5 L 0.417969 4.582031 L 2.917969 4.582031 L 2.917969 10.417969 L 0.417969 10.417969 L 0.417969 12.5 L 14.582031 12.5 L 14.582031 10.417969 L 12.082031 10.417969 L 12.082031 4.582031 Z M 11.25 10.417969 L 3.75 10.417969 L 3.75 4.582031 L 11.25 4.582031 Z M 11.25 10.417969 "/>
<path style=" stroke:none;fill-rule:nonzero;fill:rgb(96.078431%,97.254902%,98.039216%);fill-opacity:1;" d="M 12.917969 2.917969 L 13.75 2.917969 L 13.75 4.167969 L 12.917969 4.167969 Z M 11.25 2.917969 L 12.082031 2.917969 L 12.082031 4.167969 L 11.25 4.167969 Z M 9.582031 2.917969 L 10.417969 2.917969 L 10.417969 4.167969 L 9.582031 4.167969 Z M 7.917969 2.917969 L 8.75 2.917969 L 8.75 4.167969 L 7.917969 4.167969 Z M 6.25 2.917969 L 7.082031 2.917969 L 7.082031 4.167969 L 6.25 4.167969 Z M 4.582031 2.917969 L 5.417969 2.917969 L 5.417969 4.167969 L 4.582031 4.167969 Z M 2.917969 2.917969 L 3.75 2.917969 L 3.75 4.167969 L 2.917969 4.167969 Z M 1.25 2.917969 L 2.082031 2.917969 L 2.082031 4.167969 L 1.25 4.167969 Z M 12.917969 10.832031 L 13.75 10.832031 L 13.75 12.082031 L 12.917969 12.082031 Z M 11.25 10.832031 L 12.082031 10.832031 L 12.082031 12.082031 L 11.25 12.082031 Z M 9.582031 10.832031 L 10.417969 10.832031 L 10.417969 12.082031 L 9.582031 12.082031 Z M 7.917969 10.832031 L 8.75 10.832031 L 8.75 12.082031 L 7.917969 12.082031 Z M 6.25 10.832031 L 7.082031 10.832031 L 7.082031 12.082031 L 6.25 12.082031 Z M 4.582031 10.832031 L 5.417969 10.832031 L 5.417969 12.082031 L 4.582031 12.082031 Z M 2.917969 10.832031 L 3.75 10.832031 L 3.75 12.082031 L 2.917969 12.082031 Z M 1.25 10.832031 L 2.082031 10.832031 L 2.082031 12.082031 L 1.25 12.082031 Z M 1.25 10.832031 "/>
<path style=" stroke:none;fill-rule:nonzero;fill:rgb(53.333333%,78.823529%,97.647059%);fill-opacity:1;" d="M 12.082031 10.417969 L 12.082031 4.582031 L 12.5 4.582031 L 12.5 10.417969 Z M 3.75 10.417969 L 3.75 4.582031 L 4.167969 4.582031 L 4.167969 10.417969 Z M 3.75 10.417969 "/>
</g>
</svg>
