<?xml version="1.0" encoding="UTF-8"?>
<svg xmlns="http://www.w3.org/2000/svg" xmlns:xlink="http://www.w3.org/1999/xlink" width="15pt" height="15pt" viewBox="0 0 15 15" version="1.1">
<g id="surface1">
<path style=" stroke:none;fill-rule:nonzero;fill:rgb(100%,67.45098%,20%);fill-opacity:1;" d="M 5.496094 3.59375 C 5.496094 3.59375 6.144531 2.917969 7.5 2.917969 C 8.855469 2.917969 9.566406 3.621094 9.566406 3.621094 L 9.640625 3.679688 C 9.640625 3.679688 10.4375 2.179688 9.859375 0.902344 C 9.414062 0.609375 8.609375 0.207031 7.5 0.207031 C 6.4375 0.207031 5.644531 0.582031 5.191406 0.871094 C 4.5625 2.148438 5.402344 3.644531 5.402344 3.644531 Z M 5.496094 3.59375 "/>
<path style=" stroke:none;fill-rule:nonzero;fill:rgb(100%,80%,30.196078%);fill-opacity:1;" d="M 10.285156 1.238281 L 10.25 1.203125 C 10.234375 1.191406 10.097656 1.0625 9.859375 0.902344 C 9.882812 1.027344 9.921875 1.207031 9.949219 1.417969 C 10.023438 2.035156 9.984375 2.765625 9.566406 3.621094 C 9.464844 3.828125 9.347656 4.035156 9.203125 4.253906 C 8.949219 4.628906 8.3125 5.4375 7.546875 6.382812 C 7.023438 7.027344 6.441406 7.734375 5.875 8.414062 C 4.507812 10.0625 3.25 11.550781 3.226562 11.582031 C 3.175781 11.640625 3.164062 11.726562 3.191406 11.796875 L 4.441406 14.714844 C 4.472656 14.78125 4.539062 14.832031 4.613281 14.839844 C 4.621094 14.839844 4.628906 14.839844 4.636719 14.839844 C 4.703125 14.839844 4.765625 14.808594 4.804688 14.75 C 4.828125 14.71875 6.183594 12.773438 7.542969 10.816406 L 9.214844 8.410156 C 9.824219 7.53125 10.261719 6.902344 10.304688 6.835938 C 10.9375 5.894531 11.652344 4.929688 11.652344 3.902344 C 11.652344 2.871094 11.179688 1.949219 10.285156 1.238281 Z M 10.285156 1.238281 "/>
<path style=" stroke:none;fill-rule:nonzero;fill:rgb(100%,67.45098%,20%);fill-opacity:1;" d="M 5.523438 8.839844 L 7.175781 11.34375 L 9.445312 8.078125 L 7.785156 6.082031 C 7.707031 6.183594 5.640625 8.699219 5.523438 8.839844 Z M 5.523438 8.839844 "/>
<path style=" stroke:none;fill-rule:nonzero;fill:rgb(100%,80%,30.196078%);fill-opacity:1;" d="M 4.769531 1.203125 L 4.804688 1.171875 C 4.820312 1.15625 4.960938 1.027344 5.199219 0.871094 C 5.175781 0.992188 5.132812 1.171875 5.109375 1.382812 C 5.035156 2 5.074219 2.730469 5.492188 3.585938 C 5.589844 3.792969 5.707031 4 5.855469 4.21875 C 6.105469 4.597656 6.742188 5.402344 7.511719 6.347656 C 8.03125 6.992188 8.617188 7.699219 9.179688 8.378906 C 10.546875 10.027344 11.804688 11.515625 11.828125 11.546875 C 11.878906 11.605469 11.890625 11.691406 11.863281 11.761719 L 10.613281 14.679688 C 10.582031 14.75 10.515625 14.796875 10.441406 14.804688 C 10.433594 14.804688 10.425781 14.804688 10.421875 14.804688 C 10.351562 14.804688 10.289062 14.773438 10.25 14.714844 C 10.226562 14.6875 8.871094 12.738281 7.511719 10.78125 L 5.839844 8.375 C 5.230469 7.496094 4.792969 6.867188 4.75 6.800781 C 4.117188 5.859375 3.402344 4.894531 3.402344 3.867188 C 3.402344 2.835938 3.875 1.914062 4.769531 1.203125 Z M 4.769531 1.203125 "/>
</g>
</svg>
