<?xml version="1.0" encoding="UTF-8"?>
<svg xmlns="http://www.w3.org/2000/svg" xmlns:xlink="http://www.w3.org/1999/xlink" width="15pt" height="15pt" viewBox="0 0 15 15" version="1.1">
<g id="surface1">
<path style=" stroke:none;fill-rule:nonzero;fill:rgb(13.333333%,40%,60%);fill-opacity:1;" d="M 15 13.332031 C 15 14.253906 14.253906 15 13.332031 15 L 1.667969 15 C 0.746094 15 0 14.253906 0 13.332031 L 0 1.667969 C 0 0.746094 0.746094 0 1.667969 0 L 13.332031 0 C 14.253906 0 15 0.746094 15 1.667969 Z M 15 13.332031 "/>
<path style=" stroke:none;fill-rule:nonzero;fill:rgb(100%,80%,30.196078%);fill-opacity:1;" d="M 5.996094 1.089844 C 5.222656 1.089844 4.230469 1.863281 3.402344 3.101562 C 2.4375 4.554688 2.957031 5.597656 3.378906 6.4375 C 3.386719 6.457031 3.398438 6.472656 3.410156 6.488281 C 4.582031 5.417969 6.25 3.332031 6.914062 1.675781 C 6.707031 1.261719 6.34375 1.089844 5.996094 1.089844 Z M 7.902344 6.175781 C 7.855469 5.597656 7.679688 4.839844 6.984375 4.839844 C 6.480469 4.839844 5.914062 5.3125 5.082031 6.417969 C 4.226562 7.558594 4.074219 8.566406 4.582031 9.667969 C 6.25 8.75 7.5 7.082031 7.902344 6.175781 Z M 7.902344 6.175781 "/>
<path style=" stroke:none;fill-rule:nonzero;fill:rgb(46.666667%,69.803922%,33.333333%);fill-opacity:1;" d="M 9.53125 5.632812 C 9.417969 5.429688 9.164062 5.359375 8.964844 5.472656 C 8.605469 5.671875 8.25 5.910156 7.902344 6.175781 C 6.6875 7.097656 5.550781 8.367188 4.582031 9.667969 C 3.507812 11.113281 2.644531 12.589844 2.144531 13.640625 C 2.496094 9.394531 4.464844 5.289062 7.792969 1.960938 C 7.957031 1.796875 7.957031 1.535156 7.792969 1.371094 C 7.632812 1.210938 7.367188 1.210938 7.207031 1.371094 C 7.105469 1.472656 7.011719 1.574219 6.914062 1.675781 C 5.488281 3.15625 4.3125 4.777344 3.410156 6.488281 C 2.324219 8.550781 1.628906 10.746094 1.371094 12.988281 C 1.089844 10.617188 0.964844 7.191406 2.046875 4.753906 C 2.140625 4.542969 2.046875 4.296875 1.835938 4.203125 C 1.625 4.109375 1.378906 4.203125 1.285156 4.414062 C 0.734375 5.65625 0.476562 7.121094 0.386719 8.585938 C 0.265625 8.328125 0.136719 8.085938 0 7.867188 L 0 9.675781 C 0.015625 9.707031 0.03125 9.742188 0.0429688 9.769531 C 0.105469 9.894531 0.222656 9.96875 0.347656 9.992188 C 0.355469 11.886719 0.59375 13.640625 0.78125 14.742188 C 1.039062 14.902344 1.339844 15 1.667969 15 L 2.5 15 C 2.535156 14.554688 3.546875 12.492188 5.058594 10.40625 C 5.101562 10.402344 5.144531 10.394531 5.1875 10.371094 C 5.289062 10.320312 5.402344 10.257812 5.523438 10.191406 C 5.910156 9.976562 6.5625 9.617188 6.816406 9.765625 C 6.878906 9.804688 7.082031 9.992188 7.082031 10.832031 C 7.082031 11.0625 7.269531 11.25 7.5 11.25 C 7.730469 11.25 7.917969 11.0625 7.917969 10.832031 C 7.917969 9.902344 7.695312 9.316406 7.242188 9.050781 C 6.914062 8.859375 6.546875 8.875 6.183594 8.976562 C 7.148438 7.847656 8.238281 6.824219 9.367188 6.199219 C 9.570312 6.085938 9.644531 5.832031 9.53125 5.632812 Z M 9.53125 5.632812 "/>
<path style=" stroke:none;fill-rule:nonzero;fill:rgb(100%,85.098039%,51.372549%);fill-opacity:1;" d="M 14.167969 3.125 C 14.167969 4.390625 13.140625 5.417969 11.875 5.417969 C 10.609375 5.417969 9.582031 4.390625 9.582031 3.125 C 9.582031 1.859375 10.609375 0.832031 11.875 0.832031 C 13.140625 0.832031 14.167969 1.859375 14.167969 3.125 Z M 14.167969 3.125 "/>
<path style=" stroke:none;fill-rule:nonzero;fill:rgb(88.235294%,90.980392%,92.941176%);fill-opacity:1;" d="M 12.292969 11.667969 L 12.285156 11.667969 C 12.417969 11.492188 12.5 11.277344 12.5 11.042969 C 12.5 10.464844 12.035156 10 11.457031 10 L 11.453125 10 C 11.585938 9.824219 11.667969 9.609375 11.667969 9.375 C 11.667969 8.800781 11.199219 8.332031 10.625 8.332031 C 10.050781 8.332031 9.582031 8.800781 9.582031 9.375 C 9.582031 9.609375 9.664062 9.824219 9.796875 10 L 9.792969 10 C 9.214844 10 8.75 10.464844 8.75 11.042969 C 8.75 11.277344 8.832031 11.492188 8.964844 11.667969 L 8.957031 11.667969 C 8.382812 11.667969 7.917969 12.132812 7.917969 12.707031 C 7.917969 12.945312 7.996094 13.160156 8.128906 13.332031 L 9.785156 13.332031 L 9.792969 13.328125 L 9.796875 13.332031 L 11.453125 13.332031 L 11.457031 13.328125 L 11.464844 13.332031 L 13.121094 13.332031 C 13.253906 13.160156 13.332031 12.945312 13.332031 12.707031 C 13.332031 12.132812 12.867188 11.667969 12.292969 11.667969 Z M 9.792969 12.089844 L 9.785156 12.082031 L 9.796875 12.082031 Z M 10.625 11.667969 L 10.621094 11.667969 L 10.625 11.660156 L 10.628906 11.667969 Z M 10.625 10.421875 L 10.621094 10.414062 L 10.625 10.417969 L 10.628906 10.414062 Z M 11.457031 12.089844 L 11.453125 12.082031 L 11.464844 12.082031 Z M 11.457031 12.089844 "/>
<path style=" stroke:none;fill-rule:nonzero;fill:rgb(75.686275%,41.176471%,30.980392%);fill-opacity:1;" d="M 7.5 13.332031 L 7.5 15 L 13.332031 15 C 13.476562 15 13.617188 14.976562 13.75 14.941406 L 13.75 13.332031 Z M 7.5 13.332031 "/>
</g>
</svg>
