<?xml version="1.0" encoding="UTF-8"?>
<svg xmlns="http://www.w3.org/2000/svg" xmlns:xlink="http://www.w3.org/1999/xlink" width="15pt" height="15pt" viewBox="0 0 15 15" version="1.1">
<g id="surface1">
<path style=" stroke:none;fill-rule:nonzero;fill:rgb(16.078431%,18.431373%,20%);fill-opacity:1;" d="M 2.5 6.25 L 12.5 6.25 L 12.5 7.082031 L 2.5 7.082031 Z M 8.75 12.5 C 8.75 13.421875 8.421875 14.167969 7.5 14.167969 C 6.578125 14.167969 6.25 13.421875 6.25 12.5 C 6.25 11.578125 6.578125 11.667969 7.5 11.667969 C 8.421875 11.667969 8.75 11.578125 8.75 12.5 Z M 8.75 12.5 "/>
<path style=" stroke:none;fill-rule:nonzero;fill:rgb(40%,45.882353%,49.803922%);fill-opacity:1;" d="M 7.5 12.917969 C 4.738281 12.917969 3.332031 13.476562 3.332031 14.167969 L 3.332031 15 L 11.667969 15 L 11.667969 14.167969 C 11.667969 13.476562 10.261719 12.917969 7.5 12.917969 Z M 7.5 12.917969 "/>
<path style=" stroke:none;fill-rule:nonzero;fill:rgb(60%,66.666667%,70.980392%);fill-opacity:1;" d="M 7.5 0 C 5.429688 0 3.75 1.679688 3.75 3.75 L 3.75 6.667969 L 11.25 6.667969 L 11.25 3.75 C 11.25 1.679688 9.570312 0 7.5 0 Z M 7.5 0 "/>
<path style=" stroke:none;fill-rule:nonzero;fill:rgb(16.078431%,18.431373%,20%);fill-opacity:1;" d="M 7.082031 1.042969 C 7.082031 1.386719 6.804688 1.667969 6.457031 1.667969 C 6.113281 1.667969 5.832031 1.386719 5.832031 1.042969 C 5.832031 0.695312 6.113281 0.417969 6.457031 0.417969 C 6.804688 0.417969 7.082031 0.695312 7.082031 1.042969 Z M 7.082031 1.042969 "/>
<path style=" stroke:none;fill-rule:nonzero;fill:rgb(16.078431%,18.431373%,20%);fill-opacity:1;" d="M 9.167969 1.042969 C 9.167969 1.386719 8.886719 1.667969 8.542969 1.667969 C 8.195312 1.667969 7.917969 1.386719 7.917969 1.042969 C 7.917969 0.695312 8.195312 0.417969 8.542969 0.417969 C 8.886719 0.417969 9.167969 0.695312 9.167969 1.042969 Z M 9.167969 1.042969 "/>
<path style=" stroke:none;fill-rule:nonzero;fill:rgb(16.078431%,18.431373%,20%);fill-opacity:1;" d="M 7.917969 2.707031 C 7.917969 3.054688 7.636719 3.332031 7.292969 3.332031 C 6.945312 3.332031 6.667969 3.054688 6.667969 2.707031 C 6.667969 2.363281 6.945312 2.082031 7.292969 2.082031 C 7.636719 2.082031 7.917969 2.363281 7.917969 2.707031 Z M 7.917969 2.707031 "/>
<path style=" stroke:none;fill-rule:nonzero;fill:rgb(16.078431%,18.431373%,20%);fill-opacity:1;" d="M 10 2.707031 C 10 3.054688 9.71875 3.332031 9.375 3.332031 C 9.03125 3.332031 8.75 3.054688 8.75 2.707031 C 8.75 2.363281 9.03125 2.082031 9.375 2.082031 C 9.71875 2.082031 10 2.363281 10 2.707031 Z M 10 2.707031 "/>
<path style=" stroke:none;fill-rule:nonzero;fill:rgb(16.078431%,18.431373%,20%);fill-opacity:1;" d="M 5.832031 2.707031 C 5.832031 3.054688 5.554688 3.332031 5.207031 3.332031 C 4.863281 3.332031 4.582031 3.054688 4.582031 2.707031 C 4.582031 2.363281 4.863281 2.082031 5.207031 2.082031 C 5.554688 2.082031 5.832031 2.363281 5.832031 2.707031 Z M 5.832031 2.707031 "/>
<path style=" stroke:none;fill-rule:nonzero;fill:rgb(16.078431%,18.431373%,20%);fill-opacity:1;" d="M 7.082031 4.375 C 7.082031 4.71875 6.804688 5 6.457031 5 C 6.113281 5 5.832031 4.71875 5.832031 4.375 C 5.832031 4.03125 6.113281 3.75 6.457031 3.75 C 6.804688 3.75 7.082031 4.03125 7.082031 4.375 Z M 7.082031 4.375 "/>
<path style=" stroke:none;fill-rule:nonzero;fill:rgb(16.078431%,18.431373%,20%);fill-opacity:1;" d="M 5 4.375 C 5 4.71875 4.71875 5 4.375 5 C 4.03125 5 3.75 4.71875 3.75 4.375 C 3.75 4.03125 4.03125 3.75 4.375 3.75 C 4.71875 3.75 5 4.03125 5 4.375 Z M 5 4.375 "/>
<path style=" stroke:none;fill-rule:nonzero;fill:rgb(16.078431%,18.431373%,20%);fill-opacity:1;" d="M 9.167969 4.375 C 9.167969 4.71875 8.886719 5 8.542969 5 C 8.195312 5 7.917969 4.71875 7.917969 4.375 C 7.917969 4.03125 8.195312 3.75 8.542969 3.75 C 8.886719 3.75 9.167969 4.03125 9.167969 4.375 Z M 9.167969 4.375 "/>
<path style=" stroke:none;fill-rule:nonzero;fill:rgb(16.078431%,18.431373%,20%);fill-opacity:1;" d="M 11.25 4.375 C 11.25 4.71875 10.96875 5 10.625 5 C 10.28125 5 10 4.71875 10 4.375 C 10 4.03125 10.28125 3.75 10.625 3.75 C 10.96875 3.75 11.25 4.03125 11.25 4.375 Z M 11.25 4.375 "/>
<path style=" stroke:none;fill-rule:nonzero;fill:rgb(16.078431%,18.431373%,20%);fill-opacity:1;" d="M 7.917969 6.042969 C 7.917969 6.386719 7.636719 6.667969 7.292969 6.667969 C 6.945312 6.667969 6.667969 6.386719 6.667969 6.042969 C 6.667969 5.695312 6.945312 5.417969 7.292969 5.417969 C 7.636719 5.417969 7.917969 5.695312 7.917969 6.042969 Z M 7.917969 6.042969 "/>
<path style=" stroke:none;fill-rule:nonzero;fill:rgb(16.078431%,18.431373%,20%);fill-opacity:1;" d="M 10 6.042969 C 10 6.386719 9.71875 6.667969 9.375 6.667969 C 9.03125 6.667969 8.75 6.386719 8.75 6.042969 C 8.75 5.695312 9.03125 5.417969 9.375 5.417969 C 9.71875 5.417969 10 5.695312 10 6.042969 Z M 10 6.042969 "/>
<path style=" stroke:none;fill-rule:nonzero;fill:rgb(16.078431%,18.431373%,20%);fill-opacity:1;" d="M 5.832031 6.042969 C 5.832031 6.386719 5.554688 6.667969 5.207031 6.667969 C 4.863281 6.667969 4.582031 6.386719 4.582031 6.042969 C 4.582031 5.695312 4.863281 5.417969 5.207031 5.417969 C 5.554688 5.417969 5.832031 5.695312 5.832031 6.042969 Z M 5.832031 6.042969 "/>
<path style=" stroke:none;fill-rule:nonzero;fill:rgb(40%,45.882353%,49.803922%);fill-opacity:1;" d="M 3.75 6.277344 L 3.75 7.082031 C 3.75 9.15625 5.429688 10.832031 7.5 10.832031 C 9.570312 10.832031 11.25 9.15625 11.25 7.082031 L 11.25 6.277344 Z M 3.75 6.277344 "/>
<path style=" stroke:none;fill-rule:nonzero;fill:rgb(40%,45.882353%,49.803922%);fill-opacity:1;" d="M 12.5 5.832031 C 12.269531 5.832031 12.082031 6.019531 12.082031 6.25 L 12.082031 7.082031 C 12.082031 9.613281 10.03125 11.667969 7.5 11.667969 C 4.96875 11.667969 2.917969 9.613281 2.917969 7.082031 L 2.917969 6.25 C 2.917969 6.019531 2.730469 5.832031 2.5 5.832031 C 2.269531 5.832031 2.082031 6.019531 2.082031 6.25 L 2.082031 7.082031 C 2.082031 10.074219 4.507812 12.5 7.5 12.5 C 10.492188 12.5 12.917969 10.074219 12.917969 7.082031 L 12.917969 6.25 C 12.917969 6.019531 12.730469 5.832031 12.5 5.832031 Z M 12.5 5.832031 "/>
</g>
</svg>
