<?xml version="1.0" encoding="UTF-8"?>
<svg xmlns="http://www.w3.org/2000/svg" xmlns:xlink="http://www.w3.org/1999/xlink" width="15pt" height="15pt" viewBox="0 0 15 15" version="1.1">
<g id="surface1">
<path style=" stroke:none;fill-rule:nonzero;fill:rgb(80%,83.921569%,86.666667%);fill-opacity:1;" d="M 15 13.332031 C 15 14.253906 14.253906 15 13.332031 15 L 1.667969 15 C 0.746094 15 0 14.253906 0 13.332031 L 0 1.667969 C 0 0.746094 0.746094 0 1.667969 0 L 13.332031 0 C 14.253906 0 15 0.746094 15 1.667969 Z M 15 13.332031 "/>
<path style=" stroke:none;fill-rule:nonzero;fill:rgb(40.392157%,45.882353%,49.803922%);fill-opacity:1;" d="M 11.535156 8.582031 C 11.535156 8.742188 11.40625 8.871094 11.25 8.871094 C 11.09375 8.871094 10.964844 8.742188 10.964844 8.582031 C 10.964844 8.425781 11.09375 8.296875 11.25 8.296875 C 11.40625 8.296875 11.535156 8.425781 11.535156 8.582031 Z M 11.535156 8.582031 "/>
<path style=" stroke:none;fill-rule:nonzero;fill:rgb(40.392157%,45.882353%,49.803922%);fill-opacity:1;" d="M 12.871094 8.964844 C 12.871094 9.121094 12.742188 9.25 12.582031 9.25 C 12.425781 9.25 12.296875 9.121094 12.296875 8.964844 C 12.296875 8.808594 12.425781 8.679688 12.582031 8.679688 C 12.742188 8.679688 12.871094 8.808594 12.871094 8.964844 Z M 12.871094 8.964844 "/>
<path style=" stroke:none;fill-rule:nonzero;fill:rgb(40.392157%,45.882353%,49.803922%);fill-opacity:1;" d="M 10.203125 8.964844 C 10.203125 9.121094 10.074219 9.25 9.917969 9.25 C 9.757812 9.25 9.628906 9.121094 9.628906 8.964844 C 9.628906 8.808594 9.757812 8.679688 9.917969 8.679688 C 10.074219 8.679688 10.203125 8.808594 10.203125 8.964844 Z M 10.203125 8.964844 "/>
<path style=" stroke:none;fill-rule:nonzero;fill:rgb(40.392157%,45.882353%,49.803922%);fill-opacity:1;" d="M 9.25 9.917969 C 9.25 10.074219 9.121094 10.203125 8.964844 10.203125 C 8.804688 10.203125 8.679688 10.074219 8.679688 9.917969 C 8.679688 9.757812 8.804688 9.628906 8.964844 9.628906 C 9.121094 9.628906 9.25 9.757812 9.25 9.917969 Z M 9.25 9.917969 "/>
<path style=" stroke:none;fill-rule:nonzero;fill:rgb(40.392157%,45.882353%,49.803922%);fill-opacity:1;" d="M 8.871094 11.25 C 8.871094 11.40625 8.742188 11.535156 8.582031 11.535156 C 8.425781 11.535156 8.296875 11.40625 8.296875 11.25 C 8.296875 11.09375 8.425781 10.964844 8.582031 10.964844 C 8.742188 10.964844 8.871094 11.09375 8.871094 11.25 Z M 8.871094 11.25 "/>
<path style=" stroke:none;fill-rule:nonzero;fill:rgb(40.392157%,45.882353%,49.803922%);fill-opacity:1;" d="M 13.820312 9.917969 C 13.820312 10.074219 13.695312 10.203125 13.535156 10.203125 C 13.378906 10.203125 13.25 10.074219 13.25 9.917969 C 13.25 9.757812 13.378906 9.628906 13.535156 9.628906 C 13.695312 9.628906 13.820312 9.757812 13.820312 9.917969 Z M 13.820312 9.917969 "/>
<path style=" stroke:none;fill-rule:nonzero;fill:rgb(85.490196%,18.431373%,27.843137%);fill-opacity:1;" d="M 14.203125 11.25 C 14.203125 11.40625 14.074219 11.535156 13.917969 11.535156 C 13.757812 11.535156 13.632812 11.40625 13.632812 11.25 C 13.632812 11.09375 13.757812 10.964844 13.917969 10.964844 C 14.074219 10.964844 14.203125 11.09375 14.203125 11.25 Z M 14.203125 11.25 "/>
<path style=" stroke:none;fill-rule:nonzero;fill:rgb(0%,0%,0%);fill-opacity:1;" d="M 13.285156 11.25 C 13.285156 12.375 12.375 13.285156 11.25 13.285156 C 10.125 13.285156 9.214844 12.375 9.214844 11.25 C 9.214844 10.125 10.125 9.214844 11.25 9.214844 C 12.375 9.214844 13.285156 10.125 13.285156 11.25 Z M 13.285156 11.25 "/>
<path style=" stroke:none;fill-rule:nonzero;fill:rgb(16.078431%,18.431373%,20%);fill-opacity:1;" d="M 12.914062 11.25 C 12.914062 12.167969 12.167969 12.914062 11.25 12.914062 C 10.332031 12.914062 9.585938 12.167969 9.585938 11.25 C 9.585938 10.332031 10.332031 9.585938 11.25 9.585938 C 12.167969 9.585938 12.914062 10.332031 12.914062 11.25 Z M 12.914062 11.25 "/>
<path style=" stroke:none;fill-rule:nonzero;fill:rgb(88.235294%,90.980392%,92.941176%);fill-opacity:1;" d="M 11.742188 10.050781 L 11.035156 11.226562 C 10.980469 11.320312 11.007812 11.4375 11.101562 11.496094 C 11.195312 11.550781 11.316406 11.519531 11.371094 11.429688 L 12.078125 10.25 C 12.132812 10.160156 12.105469 10.039062 12.011719 9.980469 C 11.917969 9.925781 11.796875 9.957031 11.742188 10.050781 Z M 11.742188 10.050781 "/>
<path style=" stroke:none;fill-rule:nonzero;fill:rgb(40.392157%,45.882353%,49.803922%);fill-opacity:1;" d="M 4.035156 8.582031 C 4.035156 8.742188 3.90625 8.871094 3.75 8.871094 C 3.59375 8.871094 3.464844 8.742188 3.464844 8.582031 C 3.464844 8.425781 3.59375 8.296875 3.75 8.296875 C 3.90625 8.296875 4.035156 8.425781 4.035156 8.582031 Z M 4.035156 8.582031 "/>
<path style=" stroke:none;fill-rule:nonzero;fill:rgb(40.392157%,45.882353%,49.803922%);fill-opacity:1;" d="M 5.371094 8.964844 C 5.371094 9.121094 5.242188 9.25 5.082031 9.25 C 4.925781 9.25 4.796875 9.121094 4.796875 8.964844 C 4.796875 8.808594 4.925781 8.679688 5.082031 8.679688 C 5.242188 8.679688 5.371094 8.808594 5.371094 8.964844 Z M 5.371094 8.964844 "/>
<path style=" stroke:none;fill-rule:nonzero;fill:rgb(40.392157%,45.882353%,49.803922%);fill-opacity:1;" d="M 2.703125 8.964844 C 2.703125 9.121094 2.574219 9.25 2.417969 9.25 C 2.257812 9.25 2.128906 9.121094 2.128906 8.964844 C 2.128906 8.808594 2.257812 8.679688 2.417969 8.679688 C 2.574219 8.679688 2.703125 8.808594 2.703125 8.964844 Z M 2.703125 8.964844 "/>
<path style=" stroke:none;fill-rule:nonzero;fill:rgb(40.392157%,45.882353%,49.803922%);fill-opacity:1;" d="M 1.75 9.917969 C 1.75 10.074219 1.621094 10.203125 1.464844 10.203125 C 1.304688 10.203125 1.179688 10.074219 1.179688 9.917969 C 1.179688 9.757812 1.304688 9.628906 1.464844 9.628906 C 1.621094 9.628906 1.75 9.757812 1.75 9.917969 Z M 1.75 9.917969 "/>
<path style=" stroke:none;fill-rule:nonzero;fill:rgb(40.392157%,45.882353%,49.803922%);fill-opacity:1;" d="M 1.371094 11.25 C 1.371094 11.40625 1.242188 11.535156 1.082031 11.535156 C 0.925781 11.535156 0.796875 11.40625 0.796875 11.25 C 0.796875 11.09375 0.925781 10.964844 1.082031 10.964844 C 1.242188 10.964844 1.371094 11.09375 1.371094 11.25 Z M 1.371094 11.25 "/>
<path style=" stroke:none;fill-rule:nonzero;fill:rgb(40.392157%,45.882353%,49.803922%);fill-opacity:1;" d="M 6.320312 9.917969 C 6.320312 10.074219 6.195312 10.203125 6.035156 10.203125 C 5.878906 10.203125 5.75 10.074219 5.75 9.917969 C 5.75 9.757812 5.878906 9.628906 6.035156 9.628906 C 6.195312 9.628906 6.320312 9.757812 6.320312 9.917969 Z M 6.320312 9.917969 "/>
<path style=" stroke:none;fill-rule:nonzero;fill:rgb(85.490196%,18.431373%,27.843137%);fill-opacity:1;" d="M 6.703125 11.25 C 6.703125 11.40625 6.574219 11.535156 6.417969 11.535156 C 6.257812 11.535156 6.132812 11.40625 6.132812 11.25 C 6.132812 11.09375 6.257812 10.964844 6.417969 10.964844 C 6.574219 10.964844 6.703125 11.09375 6.703125 11.25 Z M 6.703125 11.25 "/>
<path style=" stroke:none;fill-rule:nonzero;fill:rgb(0%,0%,0%);fill-opacity:1;" d="M 5.785156 11.25 C 5.785156 12.375 4.875 13.285156 3.75 13.285156 C 2.625 13.285156 1.714844 12.375 1.714844 11.25 C 1.714844 10.125 2.625 9.214844 3.75 9.214844 C 4.875 9.214844 5.785156 10.125 5.785156 11.25 Z M 5.785156 11.25 "/>
<path style=" stroke:none;fill-rule:nonzero;fill:rgb(16.078431%,18.431373%,20%);fill-opacity:1;" d="M 5.414062 11.25 C 5.414062 12.167969 4.667969 12.914062 3.75 12.914062 C 2.832031 12.914062 2.085938 12.167969 2.085938 11.25 C 2.085938 10.332031 2.832031 9.585938 3.75 9.585938 C 4.667969 9.585938 5.414062 10.332031 5.414062 11.25 Z M 5.414062 11.25 "/>
<path style=" stroke:none;fill-rule:nonzero;fill:rgb(88.235294%,90.980392%,92.941176%);fill-opacity:1;" d="M 2.542969 10.777344 L 3.730469 11.464844 C 3.824219 11.519531 3.945312 11.488281 3.996094 11.394531 C 4.050781 11.300781 4.019531 11.179688 3.925781 11.125 L 2.738281 10.4375 C 2.644531 10.382812 2.523438 10.417969 2.46875 10.511719 C 2.414062 10.605469 2.449219 10.722656 2.542969 10.777344 Z M 2.542969 10.777344 "/>
<path style=" stroke:none;fill-rule:nonzero;fill:rgb(40.392157%,45.882353%,49.803922%);fill-opacity:1;" d="M 11.535156 1.5 C 11.535156 1.65625 11.40625 1.785156 11.25 1.785156 C 11.09375 1.785156 10.964844 1.65625 10.964844 1.5 C 10.964844 1.34375 11.09375 1.214844 11.25 1.214844 C 11.40625 1.214844 11.535156 1.34375 11.535156 1.5 Z M 11.535156 1.5 "/>
<path style=" stroke:none;fill-rule:nonzero;fill:rgb(40.392157%,45.882353%,49.803922%);fill-opacity:1;" d="M 12.871094 1.882812 C 12.871094 2.039062 12.742188 2.167969 12.582031 2.167969 C 12.425781 2.167969 12.296875 2.039062 12.296875 1.882812 C 12.296875 1.722656 12.425781 1.59375 12.582031 1.59375 C 12.742188 1.59375 12.871094 1.722656 12.871094 1.882812 Z M 12.871094 1.882812 "/>
<path style=" stroke:none;fill-rule:nonzero;fill:rgb(40.392157%,45.882353%,49.803922%);fill-opacity:1;" d="M 10.203125 1.882812 C 10.203125 2.039062 10.074219 2.167969 9.917969 2.167969 C 9.757812 2.167969 9.628906 2.039062 9.628906 1.882812 C 9.628906 1.722656 9.757812 1.59375 9.917969 1.59375 C 10.074219 1.59375 10.203125 1.722656 10.203125 1.882812 Z M 10.203125 1.882812 "/>
<path style=" stroke:none;fill-rule:nonzero;fill:rgb(40.392157%,45.882353%,49.803922%);fill-opacity:1;" d="M 9.25 2.832031 C 9.25 2.992188 9.121094 3.121094 8.964844 3.121094 C 8.804688 3.121094 8.679688 2.992188 8.679688 2.832031 C 8.679688 2.675781 8.804688 2.546875 8.964844 2.546875 C 9.121094 2.546875 9.25 2.675781 9.25 2.832031 Z M 9.25 2.832031 "/>
<path style=" stroke:none;fill-rule:nonzero;fill:rgb(40.392157%,45.882353%,49.803922%);fill-opacity:1;" d="M 8.871094 4.167969 C 8.871094 4.324219 8.742188 4.453125 8.582031 4.453125 C 8.425781 4.453125 8.296875 4.324219 8.296875 4.167969 C 8.296875 4.007812 8.425781 3.878906 8.582031 3.878906 C 8.742188 3.878906 8.871094 4.007812 8.871094 4.167969 Z M 8.871094 4.167969 "/>
<path style=" stroke:none;fill-rule:nonzero;fill:rgb(40.392157%,45.882353%,49.803922%);fill-opacity:1;" d="M 13.820312 2.832031 C 13.820312 2.992188 13.695312 3.121094 13.535156 3.121094 C 13.378906 3.121094 13.25 2.992188 13.25 2.832031 C 13.25 2.675781 13.378906 2.546875 13.535156 2.546875 C 13.695312 2.546875 13.820312 2.675781 13.820312 2.832031 Z M 13.820312 2.832031 "/>
<path style=" stroke:none;fill-rule:nonzero;fill:rgb(85.490196%,18.431373%,27.843137%);fill-opacity:1;" d="M 14.203125 4.167969 C 14.203125 4.324219 14.074219 4.453125 13.917969 4.453125 C 13.757812 4.453125 13.632812 4.324219 13.632812 4.167969 C 13.632812 4.007812 13.757812 3.878906 13.917969 3.878906 C 14.074219 3.878906 14.203125 4.007812 14.203125 4.167969 Z M 14.203125 4.167969 "/>
<path style=" stroke:none;fill-rule:nonzero;fill:rgb(0%,0%,0%);fill-opacity:1;" d="M 13.285156 4.167969 C 13.285156 5.289062 12.375 6.199219 11.25 6.199219 C 10.125 6.199219 9.214844 5.289062 9.214844 4.167969 C 9.214844 3.042969 10.125 2.132812 11.25 2.132812 C 12.375 2.132812 13.285156 3.042969 13.285156 4.167969 Z M 13.285156 4.167969 "/>
<path style=" stroke:none;fill-rule:nonzero;fill:rgb(16.078431%,18.431373%,20%);fill-opacity:1;" d="M 12.914062 4.167969 C 12.914062 5.085938 12.167969 5.832031 11.25 5.832031 C 10.332031 5.832031 9.585938 5.085938 9.585938 4.167969 C 9.585938 3.246094 10.332031 2.503906 11.25 2.503906 C 12.167969 2.503906 12.914062 3.246094 12.914062 4.167969 Z M 12.914062 4.167969 "/>
<path style=" stroke:none;fill-rule:nonzero;fill:rgb(88.235294%,90.980392%,92.941176%);fill-opacity:1;" d="M 10.421875 3.167969 L 11.128906 4.34375 C 11.183594 4.4375 11.304688 4.46875 11.398438 4.410156 C 11.492188 4.355469 11.519531 4.234375 11.464844 4.140625 L 10.757812 2.964844 C 10.703125 2.871094 10.582031 2.84375 10.488281 2.898438 C 10.394531 2.953125 10.367188 3.074219 10.421875 3.167969 Z M 10.421875 3.167969 "/>
<path style=" stroke:none;fill-rule:nonzero;fill:rgb(40.392157%,45.882353%,49.803922%);fill-opacity:1;" d="M 4.035156 1.5 C 4.035156 1.65625 3.90625 1.785156 3.75 1.785156 C 3.59375 1.785156 3.464844 1.65625 3.464844 1.5 C 3.464844 1.34375 3.59375 1.214844 3.75 1.214844 C 3.90625 1.214844 4.035156 1.34375 4.035156 1.5 Z M 4.035156 1.5 "/>
<path style=" stroke:none;fill-rule:nonzero;fill:rgb(40.392157%,45.882353%,49.803922%);fill-opacity:1;" d="M 5.371094 1.882812 C 5.371094 2.039062 5.242188 2.167969 5.082031 2.167969 C 4.925781 2.167969 4.796875 2.039062 4.796875 1.882812 C 4.796875 1.722656 4.925781 1.59375 5.082031 1.59375 C 5.242188 1.59375 5.371094 1.722656 5.371094 1.882812 Z M 5.371094 1.882812 "/>
<path style=" stroke:none;fill-rule:nonzero;fill:rgb(40.392157%,45.882353%,49.803922%);fill-opacity:1;" d="M 2.703125 1.882812 C 2.703125 2.039062 2.574219 2.167969 2.417969 2.167969 C 2.257812 2.167969 2.128906 2.039062 2.128906 1.882812 C 2.128906 1.722656 2.257812 1.59375 2.417969 1.59375 C 2.574219 1.59375 2.703125 1.722656 2.703125 1.882812 Z M 2.703125 1.882812 "/>
<path style=" stroke:none;fill-rule:nonzero;fill:rgb(40.392157%,45.882353%,49.803922%);fill-opacity:1;" d="M 1.75 2.832031 C 1.75 2.992188 1.621094 3.121094 1.464844 3.121094 C 1.304688 3.121094 1.179688 2.992188 1.179688 2.832031 C 1.179688 2.675781 1.304688 2.546875 1.464844 2.546875 C 1.621094 2.546875 1.75 2.675781 1.75 2.832031 Z M 1.75 2.832031 "/>
<path style=" stroke:none;fill-rule:nonzero;fill:rgb(40.392157%,45.882353%,49.803922%);fill-opacity:1;" d="M 1.371094 4.167969 C 1.371094 4.324219 1.242188 4.453125 1.082031 4.453125 C 0.925781 4.453125 0.796875 4.324219 0.796875 4.167969 C 0.796875 4.007812 0.925781 3.878906 1.082031 3.878906 C 1.242188 3.878906 1.371094 4.007812 1.371094 4.167969 Z M 1.371094 4.167969 "/>
<path style=" stroke:none;fill-rule:nonzero;fill:rgb(40.392157%,45.882353%,49.803922%);fill-opacity:1;" d="M 6.320312 2.832031 C 6.320312 2.992188 6.195312 3.121094 6.035156 3.121094 C 5.878906 3.121094 5.75 2.992188 5.75 2.832031 C 5.75 2.675781 5.878906 2.546875 6.035156 2.546875 C 6.195312 2.546875 6.320312 2.675781 6.320312 2.832031 Z M 6.320312 2.832031 "/>
<path style=" stroke:none;fill-rule:nonzero;fill:rgb(85.490196%,18.431373%,27.843137%);fill-opacity:1;" d="M 6.703125 4.167969 C 6.703125 4.324219 6.574219 4.453125 6.417969 4.453125 C 6.257812 4.453125 6.132812 4.324219 6.132812 4.167969 C 6.132812 4.007812 6.257812 3.878906 6.417969 3.878906 C 6.574219 3.878906 6.703125 4.007812 6.703125 4.167969 Z M 6.703125 4.167969 "/>
<path style=" stroke:none;fill-rule:nonzero;fill:rgb(0%,0%,0%);fill-opacity:1;" d="M 5.785156 4.167969 C 5.785156 5.289062 4.875 6.199219 3.75 6.199219 C 2.625 6.199219 1.714844 5.289062 1.714844 4.167969 C 1.714844 3.042969 2.625 2.132812 3.75 2.132812 C 4.875 2.132812 5.785156 3.042969 5.785156 4.167969 Z M 5.785156 4.167969 "/>
<path style=" stroke:none;fill-rule:nonzero;fill:rgb(16.078431%,18.431373%,20%);fill-opacity:1;" d="M 5.414062 4.167969 C 5.414062 5.085938 4.667969 5.832031 3.75 5.832031 C 2.832031 5.832031 2.085938 5.085938 2.085938 4.167969 C 2.085938 3.246094 2.832031 2.503906 3.75 2.503906 C 4.667969 2.503906 5.414062 3.246094 5.414062 4.167969 Z M 5.414062 4.167969 "/>
<path style=" stroke:none;fill-rule:nonzero;fill:rgb(88.235294%,90.980392%,92.941176%);fill-opacity:1;" d="M 4.761719 3.355469 L 3.574219 4.042969 C 3.480469 4.097656 3.449219 4.214844 3.503906 4.308594 C 3.558594 4.402344 3.675781 4.433594 3.769531 4.382812 L 4.960938 3.695312 C 5.054688 3.640625 5.085938 3.519531 5.03125 3.425781 C 4.976562 3.332031 4.855469 3.300781 4.761719 3.355469 Z M 4.761719 3.355469 "/>
</g>
</svg>
