<?xml version="1.0" encoding="UTF-8"?>
<svg xmlns="http://www.w3.org/2000/svg" xmlns:xlink="http://www.w3.org/1999/xlink" width="15pt" height="15pt" viewBox="0 0 15 15" version="1.1">
<g id="surface1">
<path style=" stroke:none;fill-rule:nonzero;fill:rgb(91.764706%,34.901961%,43.137255%);fill-opacity:1;" d="M 11.144531 3.335938 C 11.714844 3.90625 12.546875 4.046875 13.25 3.765625 L 14.753906 5.269531 C 15.0625 5.578125 15.0625 6.078125 14.753906 6.386719 L 6.382812 14.753906 C 6.074219 15.058594 5.574219 15.058594 5.265625 14.753906 L 3.761719 13.246094 C 4.042969 12.546875 3.902344 11.714844 3.332031 11.144531 C 2.765625 10.574219 1.933594 10.433594 1.230469 10.714844 L 0.246094 9.730469 C -0.0625 9.421875 -0.0625 8.921875 0.246094 8.613281 L 8.617188 0.25 C 8.921875 -0.0585938 9.421875 -0.0585938 9.730469 0.25 L 10.714844 1.234375 C 10.433594 1.933594 10.578125 2.765625 11.144531 3.335938 Z M 11.144531 3.335938 "/>
<path style=" stroke:none;fill-rule:nonzero;fill:rgb(74.509804%,9.803922%,19.215686%);fill-opacity:1;" d="M 2.257812 7.71875 L 1.363281 8.613281 C 1.054688 8.921875 1.054688 9.421875 1.363281 9.730469 L 1.585938 9.957031 C 2.378906 9.746094 3.253906 9.949219 3.871094 10.566406 C 4.492188 11.1875 4.691406 12.0625 4.484375 12.851562 L 5.265625 13.636719 C 5.574219 13.945312 6.074219 13.945312 6.382812 13.636719 L 7.296875 12.722656 Z M 7.890625 12.128906 L 12.125 7.898438 L 7.085938 2.894531 L 2.855469 7.121094 Z M 8.722656 6.296875 C 9.65625 7.226562 9.863281 8.527344 9.1875 9.210938 C 8.511719 9.890625 7.203125 9.6875 6.269531 8.761719 C 5.339844 7.832031 5.128906 6.527344 5.808594 5.847656 C 6.484375 5.167969 7.789062 5.371094 8.722656 6.296875 Z M 13.636719 5.269531 L 12.855469 4.488281 C 12.066406 4.695312 11.1875 4.496094 10.570312 3.875 C 9.949219 3.257812 9.746094 2.378906 9.957031 1.589844 L 9.730469 1.363281 C 9.421875 1.058594 8.921875 1.058594 8.617188 1.363281 L 7.683594 2.296875 L 12.722656 7.300781 L 13.636719 6.386719 C 13.945312 6.078125 13.945312 5.578125 13.636719 5.269531 Z M 13.636719 5.269531 "/>
</g>
</svg>
