<?xml version="1.0" encoding="UTF-8"?>
<svg xmlns="http://www.w3.org/2000/svg" xmlns:xlink="http://www.w3.org/1999/xlink" width="15pt" height="15pt" viewBox="0 0 15 15" version="1.1">
<g id="surface1">
<path style=" stroke:none;fill-rule:nonzero;fill:rgb(80%,83.921569%,86.666667%);fill-opacity:1;" d="M 14.488281 4.503906 L 13.347656 3.367188 L 10.496094 0.515625 C 9.863281 -0.117188 8.84375 -0.117188 8.230469 0.496094 L 5.769531 2.960938 C 5.800781 3.085938 5.832031 3.203125 5.832031 3.332031 C 5.832031 3.792969 5.460938 4.167969 5 4.167969 C 4.871094 4.167969 4.75 4.136719 4.644531 4.082031 L 0.515625 8.214844 C -0.117188 8.84375 -0.117188 9.863281 0.515625 10.496094 L 3.367188 13.347656 L 4.503906 14.488281 C 5.136719 15.117188 6.15625 15.117188 6.789062 14.488281 L 10.917969 10.359375 C 10.863281 10.25 10.832031 10.128906 10.832031 10 C 10.832031 9.539062 11.207031 9.167969 11.667969 9.167969 C 11.796875 9.167969 11.914062 9.199219 12.023438 9.25 L 14.484375 6.785156 C 15.117188 6.15625 15.117188 5.136719 14.488281 4.503906 Z M 6.667969 5.832031 C 6.207031 5.832031 5.832031 5.460938 5.832031 5 C 5.832031 4.539062 6.207031 4.167969 6.667969 4.167969 C 7.125 4.167969 7.5 4.539062 7.5 5 C 7.5 5.460938 7.125 5.832031 6.667969 5.832031 Z M 8.332031 7.5 C 7.875 7.5 7.5 7.125 7.5 6.667969 C 7.5 6.207031 7.875 5.832031 8.332031 5.832031 C 8.792969 5.832031 9.167969 6.207031 9.167969 6.667969 C 9.167969 7.125 8.792969 7.5 8.332031 7.5 Z M 10 9.167969 C 9.539062 9.167969 9.167969 8.792969 9.167969 8.332031 C 9.167969 7.875 9.539062 7.5 10 7.5 C 10.460938 7.5 10.832031 7.875 10.832031 8.332031 C 10.832031 8.792969 10.460938 9.167969 10 9.167969 Z M 10 9.167969 "/>
<path style=" stroke:none;fill-rule:nonzero;fill:rgb(60%,66.666667%,70.980392%);fill-opacity:1;" d="M 4.582031 12.5 C 4.476562 12.5 4.371094 12.460938 4.289062 12.378906 C 4.125 12.214844 4.125 11.953125 4.289062 11.789062 L 5.957031 10.121094 C 6.117188 9.960938 6.382812 9.960938 6.542969 10.121094 C 6.707031 10.285156 6.707031 10.546875 6.542969 10.710938 L 4.878906 12.378906 C 4.796875 12.460938 4.691406 12.5 4.582031 12.5 Z M 3.332031 11.25 C 3.226562 11.25 3.121094 11.210938 3.039062 11.128906 C 2.875 10.964844 2.875 10.703125 3.039062 10.539062 L 5.957031 7.621094 C 6.117188 7.460938 6.382812 7.460938 6.542969 7.621094 C 6.707031 7.785156 6.707031 8.046875 6.542969 8.210938 L 3.628906 11.128906 C 3.546875 11.210938 3.441406 11.25 3.332031 11.25 Z M 2.082031 10 C 1.976562 10 1.871094 9.960938 1.789062 9.878906 C 1.625 9.714844 1.625 9.453125 1.789062 9.289062 L 4.707031 6.371094 C 4.867188 6.210938 5.132812 6.210938 5.292969 6.371094 C 5.457031 6.535156 5.457031 6.796875 5.292969 6.960938 L 2.378906 9.878906 C 2.296875 9.960938 2.191406 10 2.082031 10 Z M 8.5 2.828125 C 8.398438 2.605469 8.402344 2.335938 8.582031 2.15625 C 8.769531 1.96875 9.023438 1.960938 9.253906 2.070312 L 11.871094 3.300781 C 11.949219 3.335938 12.003906 3.378906 12.027344 3.402344 C 12.167969 3.539062 12.148438 3.75 12.019531 3.878906 C 11.871094 4.027344 11.71875 4.023438 11.578125 3.953125 L 11.140625 3.726562 L 10.15625 4.710938 L 10.378906 5.144531 C 10.453125 5.289062 10.457031 5.441406 10.3125 5.585938 C 10.171875 5.726562 9.945312 5.742188 9.804688 5.601562 C 9.746094 5.542969 9.722656 5.484375 9.710938 5.457031 Z M 9.820312 4.070312 L 10.492188 3.398438 L 9.136719 2.703125 L 9.132812 2.710938 Z M 9.820312 4.070312 "/>
</g>
</svg>
