<?xml version="1.0" encoding="UTF-8"?>
<svg xmlns="http://www.w3.org/2000/svg" xmlns:xlink="http://www.w3.org/1999/xlink" width="15pt" height="15pt" viewBox="0 0 15 15" version="1.1">
<g id="surface1">
<path style=" stroke:none;fill-rule:nonzero;fill:rgb(19.215686%,21.568627%,23.921569%);fill-opacity:1;" d="M 0.886719 6.191406 L 0.886719 6.1875 C 0.886719 6.1875 0.03125 11.363281 0.03125 12.109375 C 0.03125 12.867188 0.589844 13.484375 1.28125 13.484375 C 1.566406 13.484375 1.824219 13.378906 2.03125 13.203125 L 6.269531 9.476562 Z M 14.089844 6.191406 L 14.09375 6.1875 C 14.09375 6.1875 14.949219 11.363281 14.949219 12.109375 C 14.949219 12.867188 14.386719 13.484375 13.699219 13.484375 C 13.414062 13.484375 13.15625 13.378906 12.945312 13.203125 L 8.710938 9.476562 Z M 14.089844 6.191406 "/>
<path style=" stroke:none;fill-rule:nonzero;fill:rgb(7.843137%,9.019608%,10.196078%);fill-opacity:1;" d="M 14.363281 6.480469 C 14.363281 8.4375 12.777344 10.019531 10.824219 10.019531 C 8.867188 10.019531 7.28125 8.4375 7.28125 6.480469 C 7.28125 4.523438 8.867188 2.9375 10.824219 2.9375 C 12.777344 2.9375 14.363281 4.523438 14.363281 6.480469 Z M 14.363281 6.480469 "/>
<path style=" stroke:none;fill-rule:nonzero;fill:rgb(7.843137%,9.019608%,10.196078%);fill-opacity:1;" d="M 7.699219 6.480469 C 7.699219 8.4375 6.113281 10.019531 4.15625 10.019531 C 2.199219 10.019531 0.613281 8.4375 0.613281 6.480469 C 0.613281 4.523438 2.199219 2.9375 4.15625 2.9375 C 6.113281 2.9375 7.699219 4.523438 7.699219 6.480469 Z M 7.699219 6.480469 "/>
<path style=" stroke:none;fill-rule:nonzero;fill:rgb(7.843137%,9.019608%,10.196078%);fill-opacity:1;" d="M 4.15625 2.9375 L 10.824219 2.9375 L 10.824219 9.96875 L 4.15625 9.96875 Z M 4.15625 2.9375 "/>
<path style=" stroke:none;fill-rule:nonzero;fill:rgb(7.843137%,9.019608%,10.196078%);fill-opacity:1;" d="M 7.53125 9.707031 C 7.53125 10.859375 6.597656 11.792969 5.449219 11.792969 C 4.296875 11.792969 3.363281 10.859375 3.363281 9.707031 C 3.363281 8.558594 4.296875 7.625 5.449219 7.625 C 6.597656 7.625 7.53125 8.558594 7.53125 9.707031 Z M 7.53125 9.707031 "/>
<path style=" stroke:none;fill-rule:nonzero;fill:rgb(7.843137%,9.019608%,10.196078%);fill-opacity:1;" d="M 11.613281 9.707031 C 11.613281 10.859375 10.683594 11.792969 9.53125 11.792969 C 8.378906 11.792969 7.449219 10.859375 7.449219 9.707031 C 7.449219 8.558594 8.378906 7.625 9.53125 7.625 C 10.683594 7.625 11.613281 8.558594 11.613281 9.707031 Z M 11.613281 9.707031 "/>
<path style=" stroke:none;fill-rule:nonzero;fill:rgb(40.392157%,45.882353%,49.803922%);fill-opacity:1;" d="M 10.78125 9.707031 C 10.78125 10.398438 10.222656 10.957031 9.53125 10.957031 C 8.839844 10.957031 8.28125 10.398438 8.28125 9.707031 C 8.28125 9.019531 8.839844 8.457031 9.53125 8.457031 C 10.222656 8.457031 10.78125 9.019531 10.78125 9.707031 Z M 10.78125 9.707031 "/>
<path style=" stroke:none;fill-rule:nonzero;fill:rgb(40.392157%,45.882353%,49.803922%);fill-opacity:1;" d="M 6.699219 9.707031 C 6.699219 10.398438 6.136719 10.957031 5.449219 10.957031 C 4.757812 10.957031 4.199219 10.398438 4.199219 9.707031 C 4.199219 9.019531 4.757812 8.457031 5.449219 8.457031 C 6.136719 8.457031 6.699219 9.019531 6.699219 9.707031 Z M 6.699219 9.707031 "/>
<path style=" stroke:none;fill-rule:nonzero;fill:rgb(100%,80%,30.196078%);fill-opacity:1;" d="M 11.390625 4.640625 C 11.390625 5.007812 11.089844 5.308594 10.722656 5.308594 C 10.355469 5.308594 10.054688 5.007812 10.054688 4.640625 C 10.054688 4.269531 10.355469 3.972656 10.722656 3.972656 C 11.089844 3.972656 11.390625 4.269531 11.390625 4.640625 Z M 11.390625 4.640625 "/>
<path style=" stroke:none;fill-rule:nonzero;fill:rgb(46.666667%,69.803922%,33.333333%);fill-opacity:1;" d="M 11.390625 7.335938 C 11.390625 7.707031 11.089844 8.003906 10.722656 8.003906 C 10.355469 8.003906 10.054688 7.707031 10.054688 7.335938 C 10.054688 6.96875 10.355469 6.667969 10.722656 6.667969 C 11.089844 6.667969 11.390625 6.96875 11.390625 7.335938 Z M 11.390625 7.335938 "/>
<path style=" stroke:none;fill-rule:nonzero;fill:rgb(31.372549%,64.705882%,90.196078%);fill-opacity:1;" d="M 10.042969 5.988281 C 10.042969 6.355469 9.742188 6.65625 9.375 6.65625 C 9.003906 6.65625 8.707031 6.355469 8.707031 5.988281 C 8.707031 5.617188 9.003906 5.320312 9.375 5.320312 C 9.742188 5.320312 10.042969 5.617188 10.042969 5.988281 Z M 10.042969 5.988281 "/>
<path style=" stroke:none;fill-rule:nonzero;fill:rgb(86.666667%,18.039216%,26.666667%);fill-opacity:1;" d="M 12.738281 5.988281 C 12.738281 6.355469 12.441406 6.65625 12.070312 6.65625 C 11.703125 6.65625 11.402344 6.355469 11.402344 5.988281 C 11.402344 5.617188 11.703125 5.320312 12.070312 5.320312 C 12.441406 5.320312 12.738281 5.617188 12.738281 5.988281 Z M 12.738281 5.988281 "/>
<path style=" stroke:none;fill-rule:nonzero;fill:rgb(53.333333%,60%,65.098039%);fill-opacity:1;" d="M 4.644531 5.214844 L 4.644531 4.3125 C 4.644531 4.195312 4.550781 4.101562 4.433594 4.101562 L 3.785156 4.101562 C 3.667969 4.101562 3.574219 4.195312 3.574219 4.3125 L 3.574219 5.214844 L 4.109375 5.75 Z M 3.574219 6.726562 L 3.574219 7.628906 C 3.574219 7.746094 3.667969 7.839844 3.785156 7.839844 L 4.433594 7.839844 C 4.550781 7.839844 4.644531 7.746094 4.644531 7.628906 L 4.644531 6.726562 L 4.109375 6.191406 Z M 5.769531 5.433594 L 4.867188 5.433594 L 4.332031 5.96875 L 4.867188 6.503906 L 5.769531 6.503906 C 5.886719 6.503906 5.980469 6.410156 5.980469 6.296875 L 5.980469 5.644531 C 5.980469 5.53125 5.886719 5.433594 5.769531 5.433594 Z M 3.355469 5.433594 L 2.449219 5.433594 C 2.332031 5.433594 2.238281 5.53125 2.238281 5.644531 L 2.238281 6.292969 C 2.238281 6.410156 2.332031 6.503906 2.449219 6.503906 L 3.351562 6.503906 L 3.890625 5.96875 Z M 3.355469 5.433594 "/>
</g>
</svg>
