<?xml version="1.0" encoding="UTF-8"?>
<svg xmlns="http://www.w3.org/2000/svg" xmlns:xlink="http://www.w3.org/1999/xlink" width="15pt" height="15pt" viewBox="0 0 15 15" version="1.1">
<g id="surface1">
<path style=" stroke:none;fill-rule:nonzero;fill:rgb(88.235294%,90.980392%,92.941176%);fill-opacity:1;" d="M 13.589844 6.933594 L 13.589844 6.519531 L 11.886719 6.519531 L 11.886719 3.472656 L 11.46875 3.472656 L 11.46875 6.519531 L 10.175781 6.519531 L 10.175781 6.933594 L 11.46875 6.933594 L 11.46875 8.601562 L 7.730469 8.601562 L 7.730469 6.683594 L 7.3125 6.683594 L 7.3125 8.601562 L 5.332031 8.601562 L 5.332031 9.019531 L 7.3125 9.019531 L 7.3125 10.683594 L 3.589844 10.683594 L 3.589844 9.347656 L 3.171875 9.347656 L 3.171875 10.683594 L 0.917969 10.683594 L 0.917969 11.101562 L 3.171875 11.101562 L 3.171875 12.769531 L 0.917969 12.769531 L 0.917969 13.183594 L 3.171875 13.183594 L 3.171875 15 L 3.589844 15 L 3.589844 13.183594 L 7.3125 13.183594 L 7.3125 15 L 7.730469 15 L 7.730469 13.183594 L 11.46875 13.183594 L 11.46875 15 L 11.886719 15 L 11.886719 13.183594 L 13.589844 13.183594 L 13.589844 12.769531 L 11.886719 12.769531 L 11.886719 11.101562 L 13.589844 11.101562 L 13.589844 10.683594 L 11.886719 10.683594 L 11.886719 9.019531 L 13.589844 9.019531 L 13.589844 8.601562 L 11.886719 8.601562 L 11.886719 6.933594 Z M 3.589844 12.769531 L 3.589844 11.101562 L 7.3125 11.101562 L 7.3125 12.769531 Z M 11.46875 12.769531 L 7.730469 12.769531 L 7.730469 11.101562 L 11.46875 11.101562 Z M 11.46875 10.683594 L 7.730469 10.683594 L 7.730469 9.019531 L 11.46875 9.019531 Z M 11.46875 10.683594 "/>
<path style=" stroke:none;fill-rule:nonzero;fill:rgb(80%,83.921569%,86.666667%);fill-opacity:1;" d="M 12.9375 2.746094 L 14.605469 2.746094 L 14.605469 15 L 12.9375 15 Z M 12.9375 2.746094 "/>
<path style=" stroke:none;fill-rule:nonzero;fill:rgb(53.333333%,60%,65.098039%);fill-opacity:1;" d="M 14.1875 2.746094 L 14.605469 2.746094 L 14.605469 15 L 14.1875 15 Z M 14.1875 2.746094 "/>
<path style=" stroke:none;fill-rule:nonzero;fill:rgb(80%,83.921569%,86.666667%);fill-opacity:1;" d="M 10.4375 4.253906 L 8.769531 5.261719 L 8.769531 15 L 10.4375 15 Z M 4.605469 8.714844 L 6.269531 8.714844 L 6.269531 15 L 4.605469 15 Z M 0.4375 10.710938 L 2.105469 10.710938 L 2.105469 15 L 0.4375 15 Z M 0.4375 10.710938 "/>
<path style=" stroke:none;fill-rule:nonzero;fill:rgb(53.333333%,60%,65.098039%);fill-opacity:1;" d="M 1.6875 10.710938 L 2.105469 10.710938 L 2.105469 15 L 1.6875 15 Z M 5.855469 8.714844 L 6.269531 8.714844 L 6.269531 15 L 5.855469 15 Z M 10.019531 4.253906 L 10.4375 4.253906 L 10.4375 15 L 10.019531 15 Z M 10.019531 4.253906 "/>
<path style=" stroke:none;fill-rule:nonzero;fill:rgb(80%,83.921569%,86.666667%);fill-opacity:1;" d="M 7.835938 6.824219 C 5.394531 8.886719 2.703125 11.15625 0 12.097656 L 0 12.855469 C 3.078125 11.746094 6.007812 9.246094 8.484375 7.136719 C 10.480469 5.433594 12.363281 3.828125 13.386719 3.828125 C 13.996094 3.828125 14.53125 4.042969 15 4.386719 L 15 3.640625 C 14.539062 3.371094 14.003906 3.203125 13.386719 3.203125 C 12.121094 3.203125 10.039062 4.960938 7.835938 6.824219 Z M 7.835938 6.824219 "/>
<path style=" stroke:none;fill-rule:nonzero;fill:rgb(86.666667%,18.039216%,26.666667%);fill-opacity:1;" d="M 13.386719 1.953125 C 11.660156 1.953125 9.515625 3.769531 7.027344 5.871094 C 4.800781 7.75 2.355469 9.816406 0 10.765625 L 0 12.097656 C 2.703125 11.15625 5.394531 8.886719 7.835938 6.824219 C 10.039062 4.960938 12.121094 3.203125 13.386719 3.203125 C 14.003906 3.203125 14.539062 3.371094 15 3.640625 L 15 2.242188 C 14.519531 2.058594 13.984375 1.953125 13.386719 1.953125 Z M 13.386719 1.953125 "/>
<path style=" stroke:none;fill-rule:nonzero;fill:rgb(10.980392%,38.823529%,60%);fill-opacity:1;" d="M 4.546875 6.007812 L 4.394531 6.128906 C 4.335938 6.175781 4.25 6.167969 4.203125 6.109375 L 3.820312 5.621094 C 3.773438 5.5625 3.785156 5.476562 3.84375 5.429688 L 3.996094 5.308594 C 4.054688 5.265625 4.140625 5.273438 4.1875 5.332031 L 4.570312 5.816406 C 4.617188 5.878906 4.605469 5.960938 4.546875 6.007812 Z M 5.980469 4.914062 L 5.824219 5.035156 C 5.765625 5.078125 5.679688 5.070312 5.632812 5.011719 L 5.253906 4.527344 C 5.207031 4.464844 5.214844 4.378906 5.273438 4.335938 L 5.429688 4.214844 C 5.488281 4.167969 5.574219 4.175781 5.621094 4.234375 L 6 4.722656 C 6.046875 4.78125 6.039062 4.867188 5.980469 4.914062 Z M 8.695312 2.742188 L 8.542969 2.863281 C 8.484375 2.910156 8.398438 2.898438 8.351562 2.839844 L 7.96875 2.355469 C 7.921875 2.296875 7.933594 2.210938 7.992188 2.164062 L 8.144531 2.042969 C 8.203125 1.996094 8.289062 2.007812 8.335938 2.066406 L 8.71875 2.550781 C 8.765625 2.609375 8.753906 2.695312 8.695312 2.742188 Z M 10.140625 1.632812 L 9.988281 1.753906 C 9.929688 1.800781 9.84375 1.789062 9.796875 1.730469 L 9.414062 1.246094 C 9.367188 1.1875 9.378906 1.101562 9.4375 1.054688 L 9.589844 0.933594 C 9.648438 0.886719 9.734375 0.898438 9.78125 0.957031 L 10.164062 1.441406 C 10.210938 1.5 10.203125 1.585938 10.140625 1.632812 Z M 6.585938 5.664062 C 6.496094 5.664062 6.40625 5.625 6.34375 5.550781 C 6.234375 5.417969 6.253906 5.21875 6.390625 5.109375 L 6.976562 4.628906 C 7.109375 4.523438 7.308594 4.539062 7.417969 4.675781 C 7.527344 4.808594 7.503906 5.003906 7.371094 5.113281 L 6.785156 5.59375 C 6.726562 5.640625 6.65625 5.664062 6.585938 5.664062 Z M 6.585938 5.664062 "/>
<path style=" stroke:none;fill-rule:nonzero;fill:rgb(100%,90.980392%,71.372549%);fill-opacity:1;" d="M 3.421875 6.058594 L 2.316406 5.328125 C 2.269531 5.296875 2.203125 5.3125 2.171875 5.359375 C 2.140625 5.40625 2.152344 5.472656 2.199219 5.503906 L 3.304688 6.234375 C 3.324219 6.246094 3.34375 6.25 3.363281 6.25 C 3.394531 6.25 3.429688 6.234375 3.449219 6.203125 C 3.480469 6.15625 3.46875 6.089844 3.421875 6.058594 Z M 4.851562 4.945312 L 3.738281 4.148438 C 3.691406 4.113281 3.625 4.125 3.59375 4.171875 C 3.558594 4.21875 3.570312 4.285156 3.617188 4.316406 L 4.730469 5.113281 C 4.746094 5.125 4.769531 5.132812 4.789062 5.132812 C 4.820312 5.132812 4.855469 5.117188 4.875 5.089844 C 4.90625 5.042969 4.898438 4.976562 4.851562 4.945312 Z M 7.589844 2.769531 L 6.445312 2.15625 C 6.394531 2.128906 6.332031 2.148438 6.300781 2.199219 C 6.277344 2.25 6.292969 2.3125 6.34375 2.339844 L 7.492188 2.953125 C 7.503906 2.960938 7.523438 2.964844 7.539062 2.964844 C 7.578125 2.964844 7.613281 2.945312 7.632812 2.910156 C 7.660156 2.859375 7.640625 2.796875 7.589844 2.769531 Z M 8.957031 1.609375 L 7.859375 1.050781 C 7.804688 1.023438 7.746094 1.042969 7.71875 1.09375 C 7.691406 1.144531 7.710938 1.207031 7.761719 1.234375 L 8.859375 1.796875 C 8.875 1.804688 8.890625 1.808594 8.90625 1.808594 C 8.945312 1.808594 8.980469 1.785156 9 1.75 C 9.027344 1.699219 9.007812 1.636719 8.957031 1.609375 Z M 8.957031 1.609375 "/>
<path style=" stroke:none;fill-rule:nonzero;fill:rgb(74.509804%,9.803922%,19.215686%);fill-opacity:1;" d="M 4.3125 6.277344 C 4.652344 6.714844 4.59375 7 4.375 7.171875 C 4.160156 7.339844 3.867188 7.332031 3.523438 6.898438 C 3.183594 6.464844 3.082031 5.972656 3.300781 5.800781 C 3.515625 5.628906 3.96875 5.84375 4.3125 6.277344 Z M 4.3125 6.277344 "/>
<path style=" stroke:none;fill-rule:nonzero;fill:rgb(36.078431%,56.862745%,23.137255%);fill-opacity:1;" d="M 5.726562 5.167969 C 6.070312 5.601562 6.007812 5.886719 5.792969 6.058594 C 5.574219 6.230469 5.28125 6.21875 4.941406 5.785156 C 4.597656 5.351562 4.496094 4.859375 4.714844 4.6875 C 4.933594 4.519531 5.386719 4.730469 5.726562 5.167969 Z M 5.726562 5.167969 "/>
<path style=" stroke:none;fill-rule:nonzero;fill:rgb(23.137255%,58.039216%,85.098039%);fill-opacity:1;" d="M 5.667969 4.863281 L 3.210938 6.792969 C 2.578125 7.289062 2.960938 8.460938 3.074219 8.605469 C 3.195312 8.761719 3.417969 8.789062 3.574219 8.667969 L 6.679688 6.222656 C 6.988281 5.980469 7.042969 5.535156 6.800781 5.226562 L 6.632812 5.007812 C 6.390625 4.699219 5.957031 4.632812 5.667969 4.863281 Z M 5.667969 4.863281 "/>
<path style=" stroke:none;fill-rule:nonzero;fill:rgb(98.039216%,45.490196%,24.313725%);fill-opacity:1;" d="M 8.40625 2.960938 C 8.75 3.398438 8.6875 3.683594 8.472656 3.855469 C 8.253906 4.023438 7.960938 4.015625 7.621094 3.578125 C 7.277344 3.144531 7.179688 2.652344 7.394531 2.484375 C 7.613281 2.3125 8.066406 2.527344 8.40625 2.960938 Z M 8.40625 2.960938 "/>
<path style=" stroke:none;fill-rule:nonzero;fill:rgb(45.490196%,30.588235%,66.666667%);fill-opacity:1;" d="M 9.84375 1.828125 C 10.1875 2.261719 10.125 2.550781 9.910156 2.71875 C 9.691406 2.890625 9.398438 2.882812 9.058594 2.445312 C 8.714844 2.011719 8.617188 1.519531 8.832031 1.347656 C 9.050781 1.179688 9.503906 1.394531 9.84375 1.828125 Z M 9.84375 1.828125 "/>
<path style=" stroke:none;fill-rule:nonzero;fill:rgb(23.137255%,58.039216%,85.098039%);fill-opacity:1;" d="M 9.761719 1.546875 L 7.308594 3.472656 C 6.671875 3.972656 7.054688 5.144531 7.167969 5.289062 C 7.289062 5.445312 7.515625 5.472656 7.667969 5.347656 L 10.777344 2.90625 C 11.085938 2.664062 11.140625 2.21875 10.898438 1.910156 L 10.726562 1.691406 C 10.484375 1.382812 10.050781 1.316406 9.761719 1.546875 Z M 9.761719 1.546875 "/>
<path style=" stroke:none;fill-rule:nonzero;fill:rgb(88.235294%,90.980392%,92.941176%);fill-opacity:1;" d="M 3.789062 8.683594 C 3.726562 8.683594 3.667969 8.65625 3.625 8.601562 C 3.554688 8.511719 3.570312 8.378906 3.660156 8.308594 L 6.601562 6.011719 C 6.691406 5.941406 6.824219 5.957031 6.894531 6.046875 C 6.964844 6.136719 6.949219 6.269531 6.859375 6.339844 L 3.917969 8.636719 C 3.878906 8.667969 3.835938 8.683594 3.789062 8.683594 Z M 7.867188 5.386719 C 7.804688 5.386719 7.746094 5.359375 7.703125 5.308594 C 7.632812 5.21875 7.648438 5.085938 7.738281 5.015625 L 10.679688 2.71875 C 10.769531 2.648438 10.902344 2.664062 10.972656 2.753906 C 11.042969 2.84375 11.027344 2.976562 10.9375 3.046875 L 7.996094 5.34375 C 7.957031 5.375 7.914062 5.386719 7.867188 5.386719 Z M 7.867188 5.386719 "/>
<path style=" stroke:none;fill-rule:nonzero;fill:rgb(100%,86.27451%,36.470588%);fill-opacity:1;" d="M 8.871094 0.808594 C 9.03125 0.992188 9.027344 1.257812 8.863281 1.394531 C 8.699219 1.535156 8.355469 1.476562 8.199219 1.289062 C 8.160156 1.242188 8.125 1.195312 8.101562 1.15625 C 7.9375 0.902344 8.148438 0.839844 8.289062 0.71875 C 8.453125 0.582031 8.714844 0.621094 8.871094 0.808594 Z M 8.871094 0.808594 "/>
<path style=" stroke:none;fill-rule:nonzero;fill:rgb(100%,67.45098%,20%);fill-opacity:1;" d="M 8.742188 0.570312 C 8.742188 0.570312 8.621094 0.472656 8.773438 0.320312 C 8.898438 0.191406 9.058594 0.308594 9.203125 0.28125 C 9.308594 0.257812 9.394531 0.1875 9.417969 0.0976562 C 9.417969 0.0976562 9.421875 0.265625 9.363281 0.378906 C 9.285156 0.527344 9.113281 0.617188 9.015625 0.640625 C 8.855469 0.675781 8.742188 0.570312 8.742188 0.570312 Z M 8.742188 0.570312 "/>
<path style=" stroke:none;fill-rule:nonzero;fill:rgb(100%,67.45098%,20%);fill-opacity:1;" d="M 8.023438 0.785156 C 8.046875 0.664062 8.238281 0.476562 8.433594 0.433594 C 8.652344 0.386719 8.816406 0.5 8.921875 0.675781 C 9.015625 0.835938 8.984375 1.074219 8.984375 1.074219 C 8.984375 1.074219 8.777344 0.992188 8.796875 0.972656 C 8.832031 0.933594 8.753906 0.792969 8.691406 0.789062 C 8.628906 0.785156 8.625 0.847656 8.644531 0.886719 L 8.722656 1.042969 C 8.722656 1.042969 8.628906 0.914062 8.558594 0.910156 C 8.449219 0.898438 8.199219 1.230469 8.101562 1.15625 C 8.039062 1.109375 7.992188 0.941406 8.023438 0.785156 Z M 8.023438 0.785156 "/>
<path style=" stroke:none;fill-rule:nonzero;fill:rgb(100%,86.27451%,36.470588%);fill-opacity:1;" d="M 3.285156 5.316406 C 3.460938 5.488281 3.480469 5.75 3.332031 5.902344 C 3.179688 6.054688 2.835938 6.03125 2.660156 5.859375 C 2.613281 5.816406 2.578125 5.765625 2.550781 5.730469 C 2.363281 5.496094 2.566406 5.414062 2.699219 5.28125 C 2.847656 5.128906 3.113281 5.144531 3.285156 5.316406 Z M 3.285156 5.316406 "/>
<path style=" stroke:none;fill-rule:nonzero;fill:rgb(100%,67.45098%,20%);fill-opacity:1;" d="M 3.136719 5.089844 C 3.136719 5.089844 3.007812 5.003906 3.144531 4.839844 C 3.257812 4.703125 3.429688 4.804688 3.566406 4.761719 C 3.671875 4.730469 3.75 4.652344 3.769531 4.558594 C 3.769531 4.558594 3.785156 4.726562 3.738281 4.84375 C 3.675781 5 3.511719 5.105469 3.414062 5.136719 C 3.257812 5.183594 3.136719 5.089844 3.136719 5.089844 Z M 3.136719 5.089844 "/>
<path style=" stroke:none;fill-rule:nonzero;fill:rgb(100%,67.45098%,20%);fill-opacity:1;" d="M 2.4375 5.371094 C 2.453125 5.246094 2.625 5.042969 2.816406 4.984375 C 3.03125 4.914062 3.203125 5.015625 3.324219 5.179688 C 3.433594 5.332031 3.421875 5.570312 3.421875 5.570312 C 3.421875 5.570312 3.207031 5.507812 3.222656 5.488281 C 3.257812 5.445312 3.164062 5.3125 3.105469 5.316406 C 3.042969 5.316406 3.042969 5.378906 3.066406 5.417969 C 3.089844 5.457031 3.160156 5.566406 3.160156 5.566406 C 3.160156 5.566406 3.050781 5.445312 2.984375 5.445312 C 2.875 5.445312 2.652344 5.796875 2.550781 5.730469 C 2.484375 5.691406 2.421875 5.527344 2.4375 5.371094 Z M 2.4375 5.371094 "/>
<path style=" stroke:none;fill-rule:nonzero;fill:rgb(100%,86.27451%,36.470588%);fill-opacity:1;" d="M 7.425781 1.957031 C 7.582031 2.144531 7.578125 2.40625 7.414062 2.546875 C 7.253906 2.683594 6.910156 2.628906 6.75 2.441406 C 6.710938 2.394531 6.679688 2.34375 6.652344 2.304688 C 6.488281 2.050781 6.699219 1.988281 6.839844 1.871094 C 7.003906 1.730469 7.265625 1.769531 7.425781 1.957031 Z M 7.425781 1.957031 "/>
<path style=" stroke:none;fill-rule:nonzero;fill:rgb(100%,67.45098%,20%);fill-opacity:1;" d="M 6.574219 1.9375 C 6.597656 1.8125 6.789062 1.628906 6.984375 1.585938 C 7.207031 1.535156 7.367188 1.652344 7.472656 1.824219 C 7.566406 1.984375 7.539062 2.222656 7.539062 2.222656 C 7.539062 2.222656 7.328125 2.140625 7.347656 2.121094 C 7.382812 2.085938 7.304688 1.945312 7.246094 1.941406 C 7.183594 1.9375 7.175781 1.996094 7.195312 2.039062 C 7.21875 2.078125 7.222656 2.105469 7.203125 2.128906 C 7.183594 2.152344 7.066406 2.050781 7.003906 2.042969 C 6.890625 2.03125 6.75 2.378906 6.652344 2.304688 C 6.59375 2.257812 6.546875 2.089844 6.574219 1.9375 Z M 6.574219 1.9375 "/>
<path style=" stroke:none;fill-rule:nonzero;fill:rgb(100%,86.27451%,36.470588%);fill-opacity:1;" d="M 4.753906 4.191406 C 4.914062 4.375 4.910156 4.640625 4.746094 4.78125 C 4.582031 4.917969 4.242188 4.859375 4.082031 4.675781 C 4.042969 4.628906 4.011719 4.578125 3.984375 4.539062 C 3.820312 4.285156 4.03125 4.222656 4.171875 4.101562 C 4.335938 3.964844 4.597656 4.003906 4.753906 4.191406 Z M 4.753906 4.191406 "/>
<path style=" stroke:none;fill-rule:nonzero;fill:rgb(100%,67.45098%,20%);fill-opacity:1;" d="M 3.90625 4.171875 C 3.929688 4.046875 4.121094 3.859375 4.316406 3.816406 C 4.535156 3.769531 4.699219 3.882812 4.804688 4.058594 C 4.898438 4.21875 4.867188 4.457031 4.867188 4.457031 C 4.867188 4.457031 4.660156 4.375 4.679688 4.355469 C 4.714844 4.316406 4.636719 4.179688 4.574219 4.171875 C 4.511719 4.167969 4.507812 4.230469 4.527344 4.273438 C 4.546875 4.3125 4.554688 4.339844 4.535156 4.363281 C 4.515625 4.386719 4.398438 4.285156 4.332031 4.277344 C 4.222656 4.265625 4.082031 4.613281 3.984375 4.539062 C 3.921875 4.492188 3.875 4.324219 3.90625 4.171875 Z M 3.90625 4.171875 "/>
<path style=" stroke:none;fill-rule:nonzero;fill:rgb(100%,90.980392%,71.372549%);fill-opacity:1;" d="M 9.070312 1.519531 L 7.917969 0.523438 C 7.871094 0.484375 7.808594 0.492188 7.769531 0.535156 C 7.730469 0.578125 7.738281 0.640625 7.78125 0.679688 L 8.933594 1.679688 C 8.953125 1.695312 8.976562 1.703125 9 1.703125 C 9.03125 1.703125 9.058594 1.691406 9.078125 1.667969 C 9.117188 1.625 9.113281 1.558594 9.070312 1.519531 Z M 7.621094 2.609375 L 6.550781 1.746094 C 6.507812 1.710938 6.441406 1.71875 6.40625 1.761719 C 6.367188 1.808594 6.375 1.875 6.421875 1.910156 L 7.492188 2.773438 C 7.511719 2.789062 7.535156 2.796875 7.558594 2.796875 C 7.589844 2.796875 7.617188 2.78125 7.636719 2.757812 C 7.675781 2.710938 7.667969 2.644531 7.621094 2.609375 Z M 3.527344 5.964844 L 2.371094 4.933594 C 2.332031 4.898438 2.265625 4.902344 2.226562 4.941406 C 2.1875 4.984375 2.191406 5.050781 2.234375 5.089844 L 3.386719 6.121094 C 3.40625 6.136719 3.433594 6.148438 3.457031 6.148438 C 3.484375 6.148438 3.515625 6.136719 3.535156 6.113281 C 3.574219 6.070312 3.570312 6.003906 3.527344 5.964844 Z M 4.957031 4.847656 L 3.855469 3.816406 C 3.8125 3.777344 3.746094 3.777344 3.707031 3.820312 C 3.667969 3.863281 3.667969 3.925781 3.710938 3.964844 L 4.8125 5 C 4.832031 5.019531 4.859375 5.027344 4.882812 5.027344 C 4.910156 5.027344 4.941406 5.019531 4.960938 4.996094 C 5 4.953125 4.996094 4.886719 4.957031 4.847656 Z M 4.957031 4.847656 "/>
</g>
</svg>
