<?xml version="1.0" encoding="UTF-8"?>
<svg xmlns="http://www.w3.org/2000/svg" xmlns:xlink="http://www.w3.org/1999/xlink" width="15pt" height="15pt" viewBox="0 0 15 15" version="1.1">
<g id="surface1">
<path style=" stroke:none;fill-rule:nonzero;fill:rgb(86.666667%,18.039216%,26.666667%);fill-opacity:1;" d="M 13.75 13.75 C 13.75 14.210938 13.375 14.582031 12.917969 14.582031 L 2.082031 14.582031 C 1.625 14.582031 1.25 14.210938 1.25 13.75 L 1.667969 8.75 L 13.332031 8.75 Z M 13.75 13.75 "/>
<path style=" stroke:none;fill-rule:nonzero;fill:rgb(91.764706%,34.901961%,43.137255%);fill-opacity:1;" d="M 5.417969 14.582031 C 5.085938 13.800781 4.6875 13.210938 3.992188 12.640625 C 4.722656 12.03125 5.886719 10.347656 6.179688 9.183594 C 6.476562 8.019531 7.328125 12.570312 7.03125 13.609375 C 6.734375 14.652344 5.417969 14.582031 5.417969 14.582031 Z M 9.710938 14.582031 C 10.039062 13.800781 10.4375 13.210938 11.132812 12.640625 C 10.402344 12.03125 9.242188 10.347656 8.945312 9.183594 C 8.652344 8.019531 7.800781 12.570312 8.09375 13.609375 C 8.390625 14.652344 9.710938 14.582031 9.710938 14.582031 Z M 9.710938 14.582031 "/>
<path style=" stroke:none;fill-rule:nonzero;fill:rgb(74.509804%,9.803922%,19.215686%);fill-opacity:1;" d="M 1.554688 10.109375 C 1.742188 10.300781 2.003906 10.417969 2.292969 10.417969 C 2.867188 10.417969 3.332031 9.949219 3.332031 9.375 C 3.332031 9.140625 3.253906 8.925781 3.121094 8.75 L 1.667969 8.75 Z M 13.445312 10.109375 L 13.332031 8.75 L 11.878906 8.75 C 11.746094 8.925781 11.667969 9.140625 11.667969 9.375 C 11.667969 9.949219 12.132812 10.417969 12.707031 10.417969 C 12.996094 10.417969 13.257812 10.300781 13.445312 10.109375 Z M 13.445312 10.109375 "/>
<path style=" stroke:none;fill-rule:nonzero;fill:rgb(74.509804%,9.803922%,19.215686%);fill-opacity:1;" d="M 6.667969 9.582031 C 6.667969 10.042969 6.292969 10.417969 5.832031 10.417969 C 5.375 10.417969 5 10.042969 5 9.582031 C 5 9.125 5.375 8.75 5.832031 8.75 C 6.292969 8.75 6.667969 9.125 6.667969 9.582031 Z M 6.667969 9.582031 "/>
<path style=" stroke:none;fill-rule:nonzero;fill:rgb(74.509804%,9.803922%,19.215686%);fill-opacity:1;" d="M 10 9.582031 C 10 10.042969 9.625 10.417969 9.167969 10.417969 C 8.707031 10.417969 8.332031 10.042969 8.332031 9.582031 C 8.332031 9.125 8.707031 8.75 9.167969 8.75 C 9.625 8.75 10 9.125 10 9.582031 Z M 10 9.582031 "/>
<path style=" stroke:none;fill-rule:nonzero;fill:rgb(74.509804%,9.803922%,19.215686%);fill-opacity:1;" d="M 5 9.582031 C 5 10.042969 4.625 10.417969 4.167969 10.417969 C 3.707031 10.417969 3.332031 10.042969 3.332031 9.582031 C 3.332031 9.125 3.707031 8.75 4.167969 8.75 C 4.625 8.75 5 9.125 5 9.582031 Z M 5 9.582031 "/>
<path style=" stroke:none;fill-rule:nonzero;fill:rgb(74.509804%,9.803922%,19.215686%);fill-opacity:1;" d="M 11.667969 9.582031 C 11.667969 10.042969 11.292969 10.417969 10.832031 10.417969 C 10.375 10.417969 10 10.042969 10 9.582031 C 10 9.125 10.375 8.75 10.832031 8.75 C 11.292969 8.75 11.667969 9.125 11.667969 9.582031 Z M 11.667969 9.582031 "/>
<path style=" stroke:none;fill-rule:nonzero;fill:rgb(0%,0%,0%);fill-opacity:1;" d="M 9.582031 14.582031 L 5.417969 14.582031 C 5.417969 14.582031 6.25 12.082031 6.25 9.167969 L 8.75 9.167969 C 8.75 12.082031 9.582031 14.582031 9.582031 14.582031 Z M 7.082031 0.832031 L 7.917969 0.832031 L 7.917969 3.75 L 7.082031 3.75 Z M 7.082031 0.832031 "/>
<path style=" stroke:none;fill-rule:nonzero;fill:rgb(33.333333%,67.45098%,93.333333%);fill-opacity:1;" d="M 7.847656 0.0859375 C 7.359375 0.015625 7.082031 0.132812 7.082031 0.589844 L 7.082031 1.007812 C 7.082031 1.464844 7.445312 1.738281 7.882812 1.613281 L 10.03125 1.238281 C 10.746094 1.09375 10.675781 0.574219 10.066406 0.453125 Z M 7.847656 0.0859375 "/>
<path style=" stroke:none;fill-rule:nonzero;fill:rgb(80%,83.921569%,86.666667%);fill-opacity:1;" d="M 7.5 2.5 L 7.464844 2.550781 C 4.558594 7.074219 1.25 6.257812 1.25 7.917969 L 1.25 8.957031 C 1.25 9.535156 1.714844 10 2.292969 10 C 2.796875 10 3.214844 9.640625 3.3125 9.167969 L 5 9.167969 C 5 9.625 5.375 10 5.832031 10 C 6.292969 10 6.667969 9.625 6.667969 9.167969 L 8.332031 9.167969 C 8.332031 9.625 8.707031 10 9.167969 10 C 9.625 10 10 9.625 10 9.167969 L 11.6875 9.167969 C 11.785156 9.640625 12.203125 10 12.707031 10 C 13.285156 10 13.75 9.535156 13.75 8.957031 L 13.75 7.917969 C 13.75 6.25 10.417969 7.082031 7.5 2.5 Z M 7.5 2.5 "/>
<path style=" stroke:none;fill-rule:nonzero;fill:rgb(96.078431%,97.254902%,98.039216%);fill-opacity:1;" d="M 7.476562 2.53125 L 7.464844 2.550781 C 7.136719 4.839844 4.503906 6.71875 3.332031 7.5 L 3.332031 9.167969 C 3.332031 9.625 3.707031 10 4.167969 10 C 4.625 10 5 9.625 5 9.167969 L 5 7.5 C 5.410156 7.089844 7.421875 4.671875 7.492188 2.613281 C 7.488281 2.585938 7.480469 2.558594 7.476562 2.53125 Z M 7.511719 2.699219 C 7.636719 4.738281 9.597656 7.097656 10 7.5 L 10 9.167969 C 10 9.625 10.375 10 10.832031 10 C 11.292969 10 11.667969 9.625 11.667969 9.167969 L 11.667969 7.5 C 10.519531 6.734375 7.9375 4.921875 7.511719 2.699219 Z M 7.511719 2.699219 "/>
<path style=" stroke:none;fill-rule:nonzero;fill:rgb(96.078431%,97.254902%,98.039216%);fill-opacity:1;" d="M 7.492188 2.613281 C 7.46875 3.476562 7.335938 6.832031 6.667969 7.5 L 6.667969 9.167969 C 6.667969 9.625 7.039062 10 7.5 10 C 7.960938 10 8.332031 9.625 8.332031 9.167969 L 8.332031 7.5 C 7.683594 6.847656 7.539062 3.648438 7.507812 2.683594 C 7.503906 2.660156 7.496094 2.636719 7.492188 2.613281 Z M 7.492188 2.613281 "/>
</g>
</svg>
