<?xml version="1.0" encoding="UTF-8"?>
<svg xmlns="http://www.w3.org/2000/svg" xmlns:xlink="http://www.w3.org/1999/xlink" width="15pt" height="15pt" viewBox="0 0 15 15" version="1.1">
<g id="surface1">
<path style=" stroke:none;fill-rule:nonzero;fill:rgb(19.215686%,21.568627%,23.921569%);fill-opacity:1;" d="M 12.582031 11.410156 L 13.332031 1.589844 C 13.332031 1.535156 13.328125 1.480469 13.324219 1.433594 C 13.324219 1.421875 13.332031 1.402344 13.332031 1.390625 C 13.332031 0.636719 10.722656 0.0273438 7.5 0.0273438 C 4.277344 0.0273438 1.667969 0.636719 1.667969 1.390625 C 1.667969 1.402344 1.671875 1.417969 1.675781 1.429688 C 1.671875 1.476562 1.667969 1.527344 1.667969 1.582031 L 2.417969 11.410156 C 0.957031 11.789062 0 12.324219 0 12.917969 C 0 14.066406 3.589844 15 7.5 15 C 11.410156 15 15 14.066406 15 12.917969 C 15 12.324219 14.042969 11.789062 12.582031 11.410156 Z M 12.582031 11.410156 "/>
<path style=" stroke:none;fill-rule:nonzero;fill:rgb(40%,45.882353%,49.803922%);fill-opacity:1;" d="M 7.308594 2.746094 C 5.269531 2.746094 3.722656 2.375 2.785156 2.0625 C 2.566406 1.988281 2.449219 1.753906 2.519531 1.535156 C 2.59375 1.316406 2.828125 1.199219 3.046875 1.269531 C 4.253906 1.671875 7.53125 2.476562 11.972656 1.265625 C 12.195312 1.207031 12.425781 1.335938 12.484375 1.558594 C 12.546875 1.777344 12.414062 2.007812 12.191406 2.070312 C 10.355469 2.570312 8.714844 2.746094 7.308594 2.746094 Z M 7.308594 2.746094 "/>
<path style=" stroke:none;fill-rule:nonzero;fill:rgb(45.490196%,30.588235%,66.666667%);fill-opacity:1;" d="M 12.582031 11.410156 L 12.769531 8.980469 C 9.558594 9.878906 5.441406 9.902344 2.21875 8.824219 L 2.382812 10.96875 C 2.414062 11.09375 2.429688 11.238281 2.429688 11.414062 C 2.429688 12.144531 2.96875 12.59375 3.585938 12.832031 C 5.441406 13.542969 9.402344 13.515625 11.421875 12.890625 C 12.03125 12.703125 12.578125 12.171875 12.578125 11.5625 C 12.578125 11.511719 12.585938 11.460938 12.589844 11.414062 Z M 12.582031 11.410156 "/>
</g>
</svg>
