<?xml version="1.0" encoding="UTF-8"?>
<svg xmlns="http://www.w3.org/2000/svg" xmlns:xlink="http://www.w3.org/1999/xlink" width="15pt" height="15pt" viewBox="0 0 15 15" version="1.1">
<g id="surface1">
<path style=" stroke:none;fill-rule:nonzero;fill:rgb(80%,83.921569%,86.666667%);fill-opacity:1;" d="M 12.835938 6.394531 L 8 6.394531 L 11.417969 2.976562 L 11.125 2.679688 L 7.707031 6.101562 L 7.707031 1.265625 L 7.289062 1.265625 L 7.289062 6.101562 L 3.871094 2.679688 L 3.574219 2.976562 L 6.996094 6.394531 L 2.160156 6.394531 L 2.160156 6.8125 L 6.996094 6.8125 L 3.574219 10.230469 L 3.871094 10.523438 L 7.289062 7.105469 L 7.289062 11.941406 L 7.707031 11.941406 L 7.707031 7.105469 L 11.125 10.523438 L 11.417969 10.230469 L 8 6.8125 L 12.835938 6.8125 Z M 12.835938 6.394531 "/>
<path style=" stroke:none;fill-rule:nonzero;fill:rgb(66.666667%,72.156863%,76.078431%);fill-opacity:1;" d="M 7.496094 0.582031 C 4.171875 0.582031 1.476562 3.277344 1.476562 6.601562 C 1.476562 9.929688 4.171875 12.625 7.496094 12.625 C 10.824219 12.625 13.519531 9.929688 13.519531 6.601562 C 13.519531 3.277344 10.824219 0.582031 7.496094 0.582031 Z M 7.496094 11.699219 C 4.683594 11.699219 2.402344 9.417969 2.402344 6.601562 C 2.402344 3.789062 4.683594 1.507812 7.496094 1.507812 C 10.3125 1.507812 12.59375 3.789062 12.59375 6.601562 C 12.59375 9.417969 10.3125 11.699219 7.496094 11.699219 Z M 7.496094 11.699219 "/>
<path style=" stroke:none;fill-rule:nonzero;fill:rgb(66.666667%,72.156863%,76.078431%);fill-opacity:1;" d="M 7.496094 9.738281 C 5.769531 9.738281 4.359375 8.332031 4.359375 6.601562 C 4.359375 4.875 5.769531 3.46875 7.496094 3.46875 C 9.226562 3.46875 10.632812 4.875 10.632812 6.601562 C 10.632812 8.332031 9.226562 9.738281 7.496094 9.738281 Z M 7.496094 4.09375 C 6.113281 4.09375 4.984375 5.21875 4.984375 6.601562 C 4.984375 7.988281 6.113281 9.113281 7.496094 9.113281 C 8.882812 9.113281 10.007812 7.988281 10.007812 6.601562 C 10.007812 5.21875 8.882812 4.09375 7.496094 4.09375 Z M 7.496094 4.09375 "/>
<path style=" stroke:none;fill-rule:nonzero;fill:rgb(53.333333%,60%,65.098039%);fill-opacity:1;" d="M 11.367188 14.34375 L 7.875 6.703125 C 7.867188 6.683594 7.851562 6.671875 7.839844 6.652344 C 7.824219 6.628906 7.8125 6.605469 7.789062 6.582031 C 7.769531 6.5625 7.742188 6.546875 7.71875 6.53125 C 7.703125 6.519531 7.6875 6.503906 7.671875 6.496094 C 7.664062 6.496094 7.660156 6.496094 7.65625 6.492188 C 7.628906 6.480469 7.601562 6.480469 7.570312 6.472656 C 7.546875 6.46875 7.519531 6.460938 7.496094 6.460938 C 7.472656 6.460938 7.453125 6.46875 7.429688 6.472656 C 7.398438 6.476562 7.367188 6.480469 7.335938 6.492188 C 7.332031 6.496094 7.328125 6.496094 7.324219 6.496094 C 7.304688 6.503906 7.292969 6.519531 7.277344 6.53125 C 7.25 6.546875 7.226562 6.5625 7.203125 6.582031 C 7.183594 6.605469 7.167969 6.628906 7.152344 6.652344 C 7.140625 6.671875 7.125 6.683594 7.117188 6.703125 L 3.628906 14.34375 C 3.535156 14.554688 3.625 14.800781 3.835938 14.898438 C 3.890625 14.921875 3.949219 14.933594 4.007812 14.933594 C 4.164062 14.933594 4.316406 14.84375 4.386719 14.691406 L 7.496094 7.878906 L 10.609375 14.691406 C 10.675781 14.84375 10.828125 14.933594 10.988281 14.933594 C 11.046875 14.933594 11.101562 14.921875 11.160156 14.898438 C 11.371094 14.800781 11.460938 14.554688 11.367188 14.34375 Z M 11.367188 14.34375 "/>
<path style=" stroke:none;fill-rule:nonzero;fill:rgb(33.333333%,21.568627%,53.333333%);fill-opacity:1;" d="M 5.375 15 L 2.949219 15 C 2.71875 15 2.53125 14.8125 2.53125 14.582031 C 2.53125 14.351562 2.71875 14.167969 2.949219 14.167969 L 5.375 14.167969 C 5.605469 14.167969 5.792969 14.351562 5.792969 14.582031 C 5.792969 14.8125 5.605469 15 5.375 15 Z M 12.042969 15 L 9.617188 15 C 9.386719 15 9.199219 14.8125 9.199219 14.582031 C 9.199219 14.351562 9.386719 14.167969 9.617188 14.167969 L 12.042969 14.167969 C 12.273438 14.167969 12.457031 14.351562 12.457031 14.582031 C 12.457031 14.8125 12.273438 15 12.042969 15 Z M 12.042969 15 "/>
<path style=" stroke:none;fill-rule:nonzero;fill:rgb(45.490196%,30.588235%,66.666667%);fill-opacity:1;" d="M 8.867188 12.425781 C 8.867188 13.0625 8.351562 13.582031 7.710938 13.582031 L 7.246094 13.582031 C 6.609375 13.582031 6.089844 13.0625 6.089844 12.425781 C 6.089844 11.785156 6.609375 11.265625 7.246094 11.265625 L 7.710938 11.265625 C 8.347656 11.265625 8.867188 11.785156 8.867188 12.425781 Z M 8.867188 12.425781 "/>
<path style=" stroke:none;fill-rule:nonzero;fill:rgb(79.607843%,71.764706%,91.764706%);fill-opacity:1;" d="M 8.84375 12.191406 C 8.738281 11.664062 8.269531 11.265625 7.710938 11.265625 L 7.246094 11.265625 C 6.6875 11.265625 6.21875 11.664062 6.113281 12.191406 Z M 8.84375 12.191406 "/>
<path style=" stroke:none;fill-rule:nonzero;fill:rgb(36.078431%,56.862745%,23.137255%);fill-opacity:1;" d="M 4.589844 11.054688 C 4.589844 11.691406 4.070312 12.210938 3.433594 12.210938 L 2.96875 12.210938 C 2.328125 12.210938 1.8125 11.691406 1.8125 11.054688 C 1.8125 10.414062 2.328125 9.894531 2.96875 9.894531 L 3.433594 9.894531 C 4.070312 9.894531 4.589844 10.414062 4.589844 11.054688 Z M 4.589844 11.054688 "/>
<path style=" stroke:none;fill-rule:nonzero;fill:rgb(77.647059%,89.803922%,70.196078%);fill-opacity:1;" d="M 4.566406 10.820312 C 4.460938 10.292969 3.992188 9.894531 3.433594 9.894531 L 2.96875 9.894531 C 2.410156 9.894531 1.941406 10.292969 1.835938 10.820312 Z M 4.566406 10.820312 "/>
<path style=" stroke:none;fill-rule:nonzero;fill:rgb(23.137255%,58.039216%,85.098039%);fill-opacity:1;" d="M 14.574219 7.347656 C 14.574219 7.988281 14.054688 8.503906 13.414062 8.503906 L 12.953125 8.503906 C 12.3125 8.503906 11.792969 7.988281 11.792969 7.347656 C 11.792969 6.707031 12.3125 6.1875 12.953125 6.1875 L 13.414062 6.1875 C 14.054688 6.1875 14.574219 6.707031 14.574219 7.347656 Z M 14.574219 7.347656 "/>
<path style=" stroke:none;fill-rule:nonzero;fill:rgb(73.333333%,86.666667%,96.078431%);fill-opacity:1;" d="M 14.550781 7.117188 C 14.441406 6.585938 13.976562 6.1875 13.414062 6.1875 L 12.953125 6.1875 C 12.390625 6.1875 11.925781 6.585938 11.816406 7.117188 Z M 14.550781 7.117188 "/>
<path style=" stroke:none;fill-rule:nonzero;fill:rgb(36.078431%,56.862745%,23.137255%);fill-opacity:1;" d="M 13.183594 3.285156 C 13.183594 3.925781 12.667969 4.445312 12.027344 4.445312 L 11.5625 4.445312 C 10.925781 4.445312 10.40625 3.925781 10.40625 3.285156 C 10.40625 2.648438 10.925781 2.128906 11.5625 2.128906 L 12.027344 2.128906 C 12.667969 2.128906 13.183594 2.648438 13.183594 3.285156 Z M 13.183594 3.285156 "/>
<path style=" stroke:none;fill-rule:nonzero;fill:rgb(77.647059%,89.803922%,70.196078%);fill-opacity:1;" d="M 13.160156 3.054688 C 13.054688 2.527344 12.585938 2.128906 12.027344 2.128906 L 11.5625 2.128906 C 11.003906 2.128906 10.535156 2.527344 10.429688 3.054688 Z M 13.160156 3.054688 "/>
<path style=" stroke:none;fill-rule:nonzero;fill:rgb(74.509804%,9.803922%,19.215686%);fill-opacity:1;" d="M 13.183594 11.054688 C 13.183594 11.691406 12.667969 12.210938 12.027344 12.210938 L 11.5625 12.210938 C 10.925781 12.210938 10.40625 11.691406 10.40625 11.054688 C 10.40625 10.414062 10.925781 9.894531 11.5625 9.894531 L 12.027344 9.894531 C 12.667969 9.894531 13.183594 10.414062 13.183594 11.054688 Z M 13.183594 11.054688 "/>
<path style=" stroke:none;fill-rule:nonzero;fill:rgb(95.686275%,67.058824%,72.941176%);fill-opacity:1;" d="M 13.160156 10.820312 C 13.054688 10.292969 12.585938 9.894531 12.027344 9.894531 L 11.5625 9.894531 C 11.003906 9.894531 10.535156 10.292969 10.429688 10.820312 Z M 13.160156 10.820312 "/>
<path style=" stroke:none;fill-rule:nonzero;fill:rgb(74.509804%,9.803922%,19.215686%);fill-opacity:1;" d="M 4.589844 3.285156 C 4.589844 3.925781 4.070312 4.445312 3.433594 4.445312 L 2.96875 4.445312 C 2.328125 4.445312 1.8125 3.925781 1.8125 3.285156 C 1.8125 2.648438 2.328125 2.128906 2.96875 2.128906 L 3.433594 2.128906 C 4.070312 2.128906 4.589844 2.648438 4.589844 3.285156 Z M 4.589844 3.285156 "/>
<path style=" stroke:none;fill-rule:nonzero;fill:rgb(95.686275%,67.058824%,72.941176%);fill-opacity:1;" d="M 4.566406 3.054688 C 4.460938 2.527344 3.992188 2.128906 3.433594 2.128906 L 2.96875 2.128906 C 2.410156 2.128906 1.941406 2.527344 1.835938 3.054688 Z M 4.566406 3.054688 "/>
<path style=" stroke:none;fill-rule:nonzero;fill:rgb(45.490196%,30.588235%,66.666667%);fill-opacity:1;" d="M 8.867188 1.199219 C 8.867188 1.839844 8.351562 2.355469 7.710938 2.355469 L 7.246094 2.355469 C 6.609375 2.355469 6.089844 1.839844 6.089844 1.199219 C 6.089844 0.558594 6.609375 0.0390625 7.246094 0.0390625 L 7.710938 0.0390625 C 8.347656 0.0390625 8.867188 0.558594 8.867188 1.199219 Z M 8.867188 1.199219 "/>
<path style=" stroke:none;fill-rule:nonzero;fill:rgb(79.607843%,71.764706%,91.764706%);fill-opacity:1;" d="M 8.84375 0.964844 C 8.738281 0.4375 8.269531 0.0390625 7.710938 0.0390625 L 7.246094 0.0390625 C 6.6875 0.0390625 6.21875 0.4375 6.113281 0.964844 Z M 8.84375 0.964844 "/>
<path style=" stroke:none;fill-rule:nonzero;fill:rgb(23.137255%,58.039216%,85.098039%);fill-opacity:1;" d="M 3.199219 7.347656 C 3.199219 7.988281 2.683594 8.503906 2.042969 8.503906 L 1.578125 8.503906 C 0.941406 8.503906 0.421875 7.988281 0.421875 7.347656 C 0.421875 6.707031 0.941406 6.1875 1.578125 6.1875 L 2.042969 6.1875 C 2.683594 6.1875 3.199219 6.707031 3.199219 7.347656 Z M 3.199219 7.347656 "/>
<path style=" stroke:none;fill-rule:nonzero;fill:rgb(73.333333%,86.666667%,96.078431%);fill-opacity:1;" d="M 3.175781 7.117188 C 3.070312 6.585938 2.601562 6.1875 2.042969 6.1875 L 1.578125 6.1875 C 1.019531 6.1875 0.550781 6.585938 0.445312 7.117188 Z M 3.175781 7.117188 "/>
<path style=" stroke:none;fill-rule:nonzero;fill:rgb(33.333333%,21.568627%,53.333333%);fill-opacity:1;" d="M 6.230469 6.601562 C 6.230469 5.902344 6.796875 5.335938 7.496094 5.335938 C 8.195312 5.335938 8.765625 5.902344 8.765625 6.601562 C 8.765625 7.300781 8.195312 7.871094 7.496094 7.871094 C 6.796875 7.871094 6.230469 7.304688 6.230469 6.601562 Z M 6.230469 6.601562 "/>
</g>
</svg>
