<?xml version="1.0" encoding="UTF-8"?>
<svg xmlns="http://www.w3.org/2000/svg" xmlns:xlink="http://www.w3.org/1999/xlink" width="15pt" height="15pt" viewBox="0 0 15 15" version="1.1">
<g id="surface1">
<path style=" stroke:none;fill-rule:nonzero;fill:rgb(80%,83.921569%,86.666667%);fill-opacity:1;" d="M 3.332031 6.667969 C 3.101562 6.667969 2.917969 6.480469 2.917969 6.25 L 2.917969 1.667969 C 2.917969 1.4375 3.101562 1.25 3.332031 1.25 C 3.5625 1.25 3.75 1.4375 3.75 1.667969 L 3.75 6.25 C 3.75 6.480469 3.5625 6.667969 3.332031 6.667969 Z M 3.332031 6.667969 "/>
<path style=" stroke:none;fill-rule:nonzero;fill:rgb(23.137255%,53.333333%,76.470588%);fill-opacity:1;" d="M 0.832031 13.75 C 0.832031 12.816406 2.5 11.25 3.75 11.25 L 3.75 13.332031 C 3.332031 13.332031 2.082031 13.75 1.667969 14.167969 C 1.25 14.582031 0.832031 14.167969 0.832031 13.75 Z M 6.667969 13.75 C 6.667969 12.816406 5 11.25 3.75 11.25 L 3.75 13.332031 C 4.167969 13.332031 5.417969 13.75 5.832031 14.167969 C 6.25 14.582031 6.667969 14.167969 6.667969 13.75 Z M 6.667969 13.75 "/>
<path style=" stroke:none;fill-rule:nonzero;fill:rgb(23.137255%,53.333333%,76.470588%);fill-opacity:1;" d="M 6.25 5.832031 C 7.082031 5.832031 7.917969 6.25 7.917969 6.667969 C 7.917969 7.917969 6.597656 11.476562 4.515625 11.890625 C 2.429688 12.308594 6.25 5.832031 6.25 5.832031 Z M 1.25 8.332031 C 0.832031 8.75 0.417969 9.582031 0.417969 10.417969 C 0.417969 11.25 1.5625 9.566406 2.082031 10 C 2.800781 10.597656 1.25 8.332031 1.25 8.332031 Z M 1.25 8.332031 "/>
<path style=" stroke:none;fill-rule:nonzero;fill:rgb(0%,0%,0%);fill-opacity:1;" d="M 2.328125 5.105469 C 2.953125 5.3125 3.402344 5.15625 3.855469 4.792969 C 4.304688 4.425781 4.375 5.851562 3.75 6.320312 C 3.125 6.789062 2.03125 7.882812 2.046875 6.910156 C 2.066406 5.9375 2.328125 5.105469 2.328125 5.105469 Z M 2.328125 5.105469 "/>
<path style=" stroke:none;fill-rule:nonzero;fill:rgb(33.333333%,67.45098%,93.333333%);fill-opacity:1;" d="M 3.757812 4.582031 C 3.519531 4.847656 2.984375 5.554688 2.726562 6.421875 C 2.359375 6.632812 2.378906 5.921875 2.429688 5.695312 C 2.523438 5.289062 2.640625 5.285156 2.574219 5.058594 C 2.488281 4.832031 2.246094 4.910156 2.109375 4.996094 C 1.394531 5.402344 0.832031 6.167969 0.832031 7.5 C 0.832031 9.800781 2.917969 12.917969 3.75 12.917969 C 4.582031 12.917969 6.667969 9.800781 6.667969 7.5 C 6.667969 5.203125 5.007812 4.585938 3.757812 4.582031 Z M 3.757812 4.582031 "/>
<path style=" stroke:none;fill-rule:nonzero;fill:rgb(0%,0%,0%);fill-opacity:1;" d="M 5.417969 6.457031 C 5.417969 6.804688 5.136719 7.082031 4.792969 7.082031 C 4.445312 7.082031 4.167969 6.804688 4.167969 6.457031 C 4.167969 6.113281 4.445312 5.832031 4.792969 5.832031 C 5.136719 5.832031 5.417969 6.113281 5.417969 6.457031 Z M 5.417969 6.457031 "/>
<path style=" stroke:none;fill-rule:nonzero;fill:rgb(13.333333%,40%,60%);fill-opacity:1;" d="M 3.730469 9.511719 C 3.105469 9.511719 2.550781 9.285156 2.0625 9.03125 C 1.859375 8.925781 1.78125 8.675781 1.886719 8.46875 C 1.996094 8.265625 2.246094 8.1875 2.449219 8.292969 C 3.238281 8.703125 3.945312 8.871094 4.839844 8.339844 C 5.039062 8.222656 5.292969 8.289062 5.410156 8.484375 C 5.527344 8.683594 5.460938 8.9375 5.265625 9.054688 C 4.707031 9.386719 4.199219 9.511719 3.730469 9.511719 Z M 3.730469 9.511719 "/>
<path style=" stroke:none;fill-rule:nonzero;fill:rgb(40%,12.941176%,7.45098%);fill-opacity:1;" d="M 12.429688 14.6875 C 12.226562 14.585938 11.996094 14.289062 12.128906 13.980469 C 12.683594 12.667969 13.910156 6.9375 12.796875 3.664062 C 12.585938 3.050781 11.914062 2.140625 11.09375 1.636719 C 8.453125 0.015625 4.507812 0.90625 3.957031 1.179688 C 3.753906 1.285156 3.105469 1.492188 3.003906 1.285156 C 2.902344 1.078125 3.25 0.867188 3.453125 0.765625 C 4.1875 0.398438 8.148438 -0.851562 11.648438 1.09375 C 12.273438 1.441406 13.144531 2.082031 13.609375 3.304688 C 14.964844 6.871094 14.046875 13.058594 13.28125 14.480469 C 13.039062 14.929688 12.492188 14.71875 12.429688 14.6875 Z M 12.429688 14.6875 "/>
<path style=" stroke:none;fill-rule:nonzero;fill:rgb(60%,66.666667%,70.980392%);fill-opacity:1;" d="M 13.332031 10.417969 C 13.332031 11.335938 12.585938 12.082031 11.667969 12.082031 C 10.746094 12.082031 10 11.335938 10 10.417969 C 10 9.496094 10.746094 8.75 11.667969 8.75 C 12.585938 8.75 13.332031 9.496094 13.332031 10.417969 Z M 13.332031 10.417969 "/>
<path style=" stroke:none;fill-rule:nonzero;fill:rgb(40%,45.882353%,49.803922%);fill-opacity:1;" d="M 12.5 10.417969 C 12.5 10.875 12.125 11.25 11.667969 11.25 C 11.207031 11.25 10.832031 10.875 10.832031 10.417969 C 10.832031 9.957031 11.207031 9.582031 11.667969 9.582031 C 12.125 9.582031 12.5 9.957031 12.5 10.417969 Z M 12.5 10.417969 "/>
</g>
</svg>
