<?xml version="1.0" encoding="UTF-8"?>
<svg xmlns="http://www.w3.org/2000/svg" xmlns:xlink="http://www.w3.org/1999/xlink" width="15pt" height="15pt" viewBox="0 0 15 15" version="1.1">
<g id="surface1">
<path style=" stroke:none;fill-rule:nonzero;fill:rgb(80%,83.921569%,86.666667%);fill-opacity:1;" d="M 15 7.5 C 15 11.640625 11.640625 15 7.5 15 C 3.359375 15 0 11.640625 0 7.5 C 0 3.359375 3.359375 0 7.5 0 C 11.640625 0 15 3.359375 15 7.5 Z M 15 7.5 "/>
<path style=" stroke:none;fill-rule:nonzero;fill:rgb(23.137255%,53.333333%,76.470588%);fill-opacity:1;" d="M 13.332031 7.5 C 13.332031 10.722656 10.722656 13.332031 7.5 13.332031 C 4.277344 13.332031 1.667969 10.722656 1.667969 7.5 C 1.667969 4.277344 4.277344 1.667969 7.5 1.667969 C 10.722656 1.667969 13.332031 4.277344 13.332031 7.5 Z M 13.332031 7.5 "/>
<path style=" stroke:none;fill-rule:nonzero;fill:rgb(86.666667%,18.039216%,26.666667%);fill-opacity:1;" d="M 11.667969 7.5 C 11.667969 9.800781 9.800781 11.667969 7.5 11.667969 C 5.199219 11.667969 3.332031 9.800781 3.332031 7.5 C 3.332031 5.199219 5.199219 3.332031 7.5 3.332031 C 9.800781 3.332031 11.667969 5.199219 11.667969 7.5 Z M 11.667969 7.5 "/>
<path style=" stroke:none;fill-rule:nonzero;fill:rgb(100%,67.45098%,20%);fill-opacity:1;" d="M 10 7.5 C 10 8.878906 8.878906 10 7.5 10 C 6.121094 10 5 8.878906 5 7.5 C 5 6.121094 6.121094 5 7.5 5 C 8.878906 5 10 6.121094 10 7.5 Z M 10 7.5 "/>
<path style=" stroke:none;fill-rule:nonzero;fill:rgb(0%,0%,0%);fill-opacity:1;" d="M 14.527344 12.167969 C 14.351562 12.292969 14.003906 12.414062 13.722656 12.414062 C 12.902344 12.414062 11.78125 12.113281 11.082031 11.417969 L 9.851562 9.804688 C 9.738281 9.691406 9.703125 9.566406 9.761719 9.417969 C 9.824219 9.265625 9.460938 9.167969 9.621094 9.167969 L 11.726562 9.167969 C 12.507812 9.167969 13.523438 9.691406 14.195312 10.425781 L 14.351562 10.570312 C 14.671875 10.921875 14.84375 11.25 14.84375 11.566406 C 14.84375 11.824219 14.730469 12.015625 14.527344 12.167969 Z M 14.527344 12.167969 "/>
<path style=" stroke:none;fill-rule:nonzero;fill:rgb(0%,0%,0%);fill-opacity:1;" d="M 11.792969 14.667969 C 11.472656 14.667969 11.113281 14.496094 10.757812 14.167969 L 10.554688 14.007812 C 9.804688 13.324219 9.167969 12.289062 9.167969 11.496094 L 9.167969 9.34375 C 9.167969 9.179688 9.375 9.558594 9.527344 9.496094 C 9.679688 9.433594 9.910156 9.46875 10.023438 9.585938 L 11.34375 10.886719 C 12.050781 11.597656 12.621094 12.8125 12.621094 13.644531 C 12.621094 13.933594 12.558594 14.167969 12.429688 14.34375 C 12.28125 14.554688 12.058594 14.667969 11.792969 14.667969 Z M 11.792969 14.667969 "/>
<path style=" stroke:none;fill-rule:nonzero;fill:rgb(75.686275%,41.176471%,30.980392%);fill-opacity:1;" d="M 13.058594 13.316406 C 12.953125 13.316406 12.859375 13.265625 12.777344 13.1875 L 6.941406 7.351562 C 6.78125 7.191406 6.78125 6.925781 6.941406 6.761719 C 7.105469 6.601562 7.367188 6.601562 7.53125 6.761719 L 13.363281 12.597656 C 13.527344 12.757812 13.523438 13.027344 13.359375 13.191406 C 13.277344 13.273438 13.167969 13.316406 13.058594 13.316406 Z M 13.058594 13.316406 "/>
</g>
</svg>
