<?xml version="1.0" encoding="UTF-8"?>
<svg xmlns="http://www.w3.org/2000/svg" xmlns:xlink="http://www.w3.org/1999/xlink" width="15pt" height="15pt" viewBox="0 0 15 15" version="1.1">
<g id="surface1">
<path style=" stroke:none;fill-rule:nonzero;fill:rgb(24.705882%,44.313725%,13.72549%);fill-opacity:1;" d="M 14.933594 13.332031 C 14.933594 14.25 14.183594 15 13.269531 15 L 2.433594 15 C 1.519531 15 0.769531 14.25 0.769531 13.332031 L 0.769531 7.917969 C 0.769531 7 1.519531 6.25 2.433594 6.25 L 13.269531 6.25 C 14.183594 6.25 14.933594 7 14.933594 7.917969 Z M 14.933594 13.332031 "/>
<path style=" stroke:none;fill-rule:nonzero;fill:rgb(24.705882%,44.313725%,13.72549%);fill-opacity:1;" d="M 0.769531 6.25 L 14.933594 6.25 L 14.933594 8.75 L 0.769531 8.75 Z M 0.769531 6.25 "/>
<path style=" stroke:none;fill-rule:nonzero;fill:rgb(80%,83.921569%,86.666667%);fill-opacity:1;" d="M 0.769531 6.25 L 14.933594 6.25 L 14.933594 9.167969 L 0.769531 9.167969 Z M 0.769531 6.25 "/>
<path style=" stroke:none;fill-rule:nonzero;fill:rgb(16.078431%,18.431373%,20%);fill-opacity:1;" d="M 0.769531 6.25 L 2.433594 6.25 L 0.769531 9.167969 Z M 5.351562 6.25 L 3.683594 9.167969 L 6.601562 9.167969 L 8.269531 6.25 Z M 11.183594 6.25 L 9.519531 9.167969 L 12.433594 9.167969 L 14.101562 6.25 Z M 11.183594 6.25 "/>
<path style=" stroke:none;fill-rule:nonzero;fill:rgb(80%,83.921569%,86.666667%);fill-opacity:1;" d="M 0.0664062 3.417969 L 13.8125 0 L 14.515625 2.828125 L 0.769531 6.25 Z M 0.0664062 3.417969 "/>
<path style=" stroke:none;fill-rule:nonzero;fill:rgb(16.078431%,18.431373%,20%);fill-opacity:1;" d="M 0.0664062 3.417969 L 2.386719 5.847656 L 0.769531 6.25 Z M 8.046875 4.441406 L 5.726562 2.011719 L 2.894531 2.714844 L 5.214844 5.144531 Z M 13.707031 3.03125 L 11.386719 0.601562 L 8.554688 1.308594 L 10.878906 3.734375 Z M 13.707031 3.03125 "/>
</g>
</svg>
