<?xml version="1.0" encoding="UTF-8"?>
<svg xmlns="http://www.w3.org/2000/svg" xmlns:xlink="http://www.w3.org/1999/xlink" width="15pt" height="15pt" viewBox="0 0 15 15" version="1.1">
<g id="surface1">
<path style=" stroke:none;fill-rule:nonzero;fill:rgb(53.333333%,60%,65.098039%);fill-opacity:1;" d="M 15 4.964844 C 15 6.550781 13.714844 7.835938 12.128906 7.835938 C 10.546875 7.835938 9.261719 6.550781 9.261719 4.964844 C 9.261719 3.382812 10.546875 2.097656 12.128906 2.097656 C 13.714844 2.097656 15 3.382812 15 4.964844 Z M 15 4.964844 "/>
<path style=" stroke:none;fill-rule:nonzero;fill:rgb(19.215686%,21.568627%,23.921569%);fill-opacity:1;" d="M 13.671875 7.738281 C 13.53125 7.875 13.304688 7.875 13.164062 7.738281 L 9.359375 3.933594 C 9.222656 3.792969 9.222656 3.566406 9.359375 3.425781 L 9.867188 2.917969 C 10.007812 2.777344 10.234375 2.777344 10.375 2.917969 L 14.179688 6.722656 C 14.316406 6.863281 14.316406 7.089844 14.179688 7.230469 Z M 11.140625 7.792969 L 9.339844 5.992188 C 9.015625 5.664062 8.507812 5.683594 8.207031 6.03125 L 4.390625 10.4375 C 3.882812 11.023438 3.78125 11.835938 4.09375 12.410156 L 2.046875 14.457031 L 2.636719 15.042969 L 4.667969 13.011719 C 5.242188 13.359375 6.089844 13.265625 6.691406 12.742188 L 11.097656 8.925781 C 11.445312 8.625 11.464844 8.117188 11.140625 7.792969 Z M 11.140625 7.792969 "/>
<path style=" stroke:none;fill-rule:nonzero;fill:rgb(33.333333%,67.45098%,93.333333%);fill-opacity:1;" d="M 1.667969 2.5 L 1.667969 5.882812 C 1.535156 5.851562 1.398438 5.832031 1.25 5.832031 C 0.558594 5.832031 0 6.207031 0 6.667969 C 0 7.125 0.558594 7.5 1.25 7.5 C 1.941406 7.5 2.5 7.125 2.5 6.667969 L 2.5 4.121094 L 4.582031 5.046875 L 4.582031 7.132812 C 4.453125 7.101562 4.3125 7.082031 4.167969 7.082031 C 3.476562 7.082031 2.917969 7.457031 2.917969 7.917969 C 2.917969 8.375 3.476562 8.75 4.167969 8.75 C 4.855469 8.75 5.417969 8.375 5.417969 7.917969 L 5.417969 4.167969 Z M 7.5 0.417969 L 7.5 3.800781 C 7.367188 3.769531 7.230469 3.75 7.082031 3.75 C 6.394531 3.75 5.832031 4.121094 5.832031 4.582031 C 5.832031 5.042969 6.394531 5.417969 7.082031 5.417969 C 7.773438 5.417969 8.332031 5.042969 8.332031 4.582031 L 8.332031 0.417969 Z M 7.5 0.417969 "/>
</g>
</svg>
