<?xml version="1.0" encoding="UTF-8"?>
<svg xmlns="http://www.w3.org/2000/svg" xmlns:xlink="http://www.w3.org/1999/xlink" width="15pt" height="15pt" viewBox="0 0 15 15" version="1.1">
<g id="surface1">
<path style=" stroke:none;fill-rule:nonzero;fill:rgb(86.666667%,18.039216%,26.666667%);fill-opacity:1;" d="M 10.148438 6.808594 C 10.148438 6.808594 11.085938 5.15625 12.152344 5.070312 C 13.214844 4.984375 13.789062 5.460938 13.878906 6.5 C 13.996094 7.890625 13.511719 8.085938 13.863281 9.636719 C 13.863281 9.636719 12.386719 8.632812 12.855469 7.109375 C 13.34375 5.523438 10.851562 5.820312 11.257812 7.238281 Z M 10.148438 6.808594 "/>
<path style=" stroke:none;fill-rule:nonzero;fill:rgb(100%,80%,30.196078%);fill-opacity:1;" d="M 5.960938 8.488281 C 5.730469 8.488281 5.546875 8.675781 5.546875 8.90625 L 5.546875 14.558594 C 5.546875 14.789062 5.730469 14.972656 5.960938 14.972656 C 6.191406 14.972656 6.378906 14.789062 6.378906 14.558594 L 6.378906 8.90625 C 6.378906 8.675781 6.191406 8.488281 5.960938 8.488281 Z M 5.960938 8.488281 "/>
<path style=" stroke:none;fill-rule:nonzero;fill:rgb(95.686275%,56.470588%,4.705882%);fill-opacity:1;" d="M 6.378906 10.738281 L 5.546875 11.171875 L 5.546875 12.113281 L 6.378906 11.679688 Z M 5.546875 14.09375 L 6.378906 13.65625 L 6.378906 12.714844 L 5.546875 13.152344 Z M 5.546875 14.09375 "/>
<path style=" stroke:none;fill-rule:nonzero;fill:rgb(53.333333%,60%,65.098039%);fill-opacity:1;" d="M 1.628906 9.140625 C 1.136719 9.089844 0.832031 9.816406 0.832031 9.816406 C 0.878906 10.152344 1.015625 10.753906 1.078125 10.972656 C 1.214844 11.449219 1.964844 12.261719 2.4375 12.125 C 2.914062 11.988281 2.777344 11.515625 2.640625 11.039062 C 2.503906 10.5625 1.628906 11.296875 1.894531 10.222656 C 1.957031 9.972656 2.253906 9.910156 2.511719 9.933594 C 3.496094 10.03125 3.710938 9.84375 4.089844 9.382812 C 4.535156 8.84375 2.121094 9.1875 1.628906 9.140625 Z M 12.105469 11.929688 C 12.105469 12.921875 12.601562 13.414062 13.589844 13.414062 C 14.578125 13.414062 14.082031 13.414062 13.589844 12.425781 C 13.09375 11.4375 12.105469 10.941406 12.105469 10.941406 Z M 12.105469 11.929688 "/>
<path style=" stroke:none;fill-rule:nonzero;fill:rgb(80%,83.921569%,86.666667%);fill-opacity:1;" d="M 14.578125 12.921875 C 14.082031 12.425781 13.589844 12.921875 13.589844 11.929688 C 13.589844 10.941406 13.09375 10.449219 12.601562 10.449219 C 12.105469 10.449219 12.105469 8.46875 12.105469 7.976562 C 12.105469 7.480469 11.117188 5.503906 9.632812 5.503906 C 8.152344 5.503906 7.160156 6 6.171875 6 C 5.183594 6 4.691406 6 4.195312 4.019531 C 3.816406 2.503906 2.21875 2.042969 0.734375 2.539062 C 0.734375 2.539062 -0.339844 2.121094 0.152344 2.617188 C 0.648438 3.113281 0.078125 3.03125 0.078125 4.019531 C 0.078125 4.136719 0.105469 4.234375 0.152344 4.324219 C 0.148438 4.785156 0.144531 5.632812 0.152344 5.832031 C 0.167969 6.109375 0.277344 6.203125 0.625 6.335938 C 1.09375 6.519531 1.367188 6.203125 1.398438 6.042969 C 1.457031 5.710938 1.40625 5.351562 1.40625 5.351562 C 1.40625 5.351562 1.890625 5.15625 2.195312 4.878906 C 2.238281 4.914062 2.457031 5.355469 2.21875 6 C 2.046875 6.460938 1.722656 6.988281 2.710938 8.472656 C 2.710938 8.472656 1.230469 8.472656 0.734375 8.964844 C 0.242188 9.460938 0.121094 10.449219 0.128906 10.941406 C 0.144531 11.628906 0.734375 12.425781 1.230469 12.425781 C 1.722656 12.425781 1.722656 11.933594 1.722656 11.4375 C 1.722656 10.941406 0.734375 11.4375 1.230469 10.449219 C 1.722656 9.460938 1.722656 9.953125 2.21875 9.953125 C 2.714844 9.953125 3.703125 9.460938 4.195312 9.460938 C 4.691406 9.460938 5.679688 9.953125 6.667969 9.953125 C 7.65625 9.953125 8.644531 8.964844 9.632812 9.953125 C 10.621094 10.941406 12.105469 10.941406 12.601562 11.4375 C 13.09375 11.933594 13.09375 12.425781 13.09375 12.921875 C 13.09375 13.414062 14.082031 13.910156 14.578125 13.910156 C 15.074219 13.910156 15.074219 13.414062 14.578125 12.921875 Z M 14.578125 12.921875 "/>
<path style=" stroke:none;fill-rule:nonzero;fill:rgb(23.137255%,58.039216%,85.098039%);fill-opacity:1;" d="M 4.464844 4.902344 C 4.882812 5.996094 5.359375 6 6.171875 6 C 7.007812 6 7.84375 5.652344 8.972656 5.539062 C 9.03125 5.691406 9.085938 5.84375 9.140625 6 C 9.632812 7.480469 9.140625 8.46875 6.667969 8.46875 C 5.300781 8.46875 4.195312 7.363281 4.195312 6 C 4.195312 5.601562 4.296875 5.234375 4.464844 4.902344 Z M 4.464844 4.902344 "/>
<path style=" stroke:none;fill-rule:nonzero;fill:rgb(95.686275%,56.470588%,4.705882%);fill-opacity:1;" d="M 2.34375 8.210938 C 2.4375 8.222656 2.535156 8.203125 2.625 8.160156 C 2.695312 8.121094 4.371094 7.25 5.09375 5.695312 C 5.207031 5.445312 4.605469 4.976562 4.488281 5.015625 C 4.363281 5.058594 4.257812 5.148438 4.195312 5.277344 C 3.621094 6.519531 2.1875 7.273438 2.175781 7.277344 C 1.933594 7.40625 1.835938 7.703125 1.960938 7.945312 C 2.039062 8.097656 2.1875 8.191406 2.34375 8.210938 Z M 2.34375 8.210938 "/>
<path style=" stroke:none;fill-rule:nonzero;fill:rgb(10.980392%,38.823529%,60%);fill-opacity:1;" d="M 6.570312 6.351562 C 6.570312 6.085938 6.296875 5.867188 5.960938 5.867188 C 5.628906 5.867188 5.355469 6.085938 5.355469 6.351562 C 5.355469 6.621094 5.628906 6.835938 5.960938 6.835938 C 6.296875 6.835938 6.570312 6.621094 6.570312 6.351562 Z M 6.570312 6.351562 "/>
<path style=" stroke:none;fill-rule:nonzero;fill:rgb(100%,80%,30.196078%);fill-opacity:1;" d="M 5.960938 0.105469 C 5.730469 0.105469 5.546875 0.289062 5.546875 0.519531 L 5.546875 6.175781 C 5.550781 6.402344 5.734375 6.589844 5.960938 6.589844 C 6.191406 6.589844 6.378906 6.402344 6.378906 6.171875 L 6.378906 0.519531 C 6.378906 0.289062 6.191406 0.105469 5.960938 0.105469 Z M 5.960938 0.105469 "/>
<path style=" stroke:none;fill-rule:nonzero;fill:rgb(95.686275%,56.470588%,4.705882%);fill-opacity:1;" d="M 6.378906 0.839844 L 5.546875 1.277344 L 5.546875 2.21875 L 6.378906 1.78125 Z M 6.378906 2.820312 L 5.546875 3.257812 L 5.546875 4.199219 L 6.378906 3.761719 Z M 5.546875 6.171875 L 5.550781 6.175781 L 6.378906 5.742188 L 6.378906 4.800781 L 5.546875 5.234375 Z M 5.546875 6.171875 "/>
<path style=" stroke:none;fill-rule:nonzero;fill:rgb(10.980392%,38.823529%,60%);fill-opacity:1;" d="M 1.363281 5.523438 C 1.328125 5.523438 1.289062 5.511719 1.253906 5.492188 C 0.78125 5.203125 0.28125 5.191406 0.273438 5.191406 C 0.160156 5.191406 0.0664062 5.097656 0.0664062 4.980469 C 0.0703125 4.867188 0.160156 4.777344 0.277344 4.777344 C 0.300781 4.78125 0.746094 4.777344 1.253906 5.019531 C 1.375 4.667969 1.574219 3.90625 1.449219 2.96875 C 1.433594 2.855469 1.515625 2.75 1.628906 2.734375 C 1.742188 2.71875 1.847656 2.796875 1.863281 2.914062 C 2.050781 4.332031 1.574219 5.359375 1.554688 5.402344 C 1.527344 5.457031 1.480469 5.496094 1.421875 5.515625 C 1.402344 5.519531 1.382812 5.523438 1.363281 5.523438 Z M 1.363281 5.523438 "/>
<path style=" stroke:none;fill-rule:nonzero;fill:rgb(16.078431%,18.431373%,20%);fill-opacity:1;" d="M 0.898438 3.5 C 0.816406 3.445312 0.691406 3.488281 0.621094 3.59375 C 0.550781 3.703125 0.558594 3.832031 0.640625 3.886719 C 0.722656 3.941406 0.847656 3.898438 0.917969 3.789062 C 0.988281 3.683594 0.976562 3.554688 0.898438 3.5 Z M 0.898438 3.5 "/>
<path style=" stroke:none;fill-rule:nonzero;fill:rgb(86.666667%,18.039216%,26.666667%);fill-opacity:1;" d="M 5.183594 5.503906 C 4.195312 4.515625 4.765625 3.3125 3.777344 2.324219 C 2.996094 1.542969 1.722656 1.550781 0.734375 2.539062 C 0.734375 2.539062 1.203125 2.992188 2.433594 3.113281 C 3.03125 3.171875 3.539062 3.816406 3.824219 4.269531 C 4.746094 6.066406 5.933594 6.253906 5.183594 5.503906 Z M 5.183594 5.503906 "/>
</g>
</svg>
