<?xml version="1.0" encoding="UTF-8"?>
<svg xmlns="http://www.w3.org/2000/svg" xmlns:xlink="http://www.w3.org/1999/xlink" width="15pt" height="15pt" viewBox="0 0 15 15" version="1.1">
<g id="surface1">
<path style=" stroke:none;fill-rule:nonzero;fill:rgb(13.333333%,40%,60%);fill-opacity:1;" d="M 2.632812 0.429688 C 3.257812 1.054688 8.125 4.046875 12.375 0.429688 L 12.375 5 L 2.632812 5 Z M 2.632812 0.429688 "/>
<path style=" stroke:none;fill-rule:nonzero;fill:rgb(33.333333%,67.45098%,93.333333%);fill-opacity:1;" d="M 14.550781 2.476562 C 14.550781 1.421875 13.535156 0.613281 12.769531 0.230469 C 12.453125 0.0742188 12.015625 0.394531 11.980469 0.59375 C 11.585938 2.839844 9.117188 4.796875 7.5 4.796875 C 5.902344 4.796875 3.484375 2.894531 3.042969 0.6875 C 2.996094 0.457031 2.550781 0.0742188 2.230469 0.234375 C 1.464844 0.617188 0.460938 1.421875 0.460938 2.476562 C 1.761719 4.398438 2.054688 5.136719 2.054688 7.128906 C 2.054688 9.117188 1.484375 13.007812 0.988281 14.003906 C 1.484375 14.503906 4.414062 15 7.5 15 C 10.585938 15 13.519531 14.503906 14.015625 14.003906 C 13.519531 13.007812 12.957031 9.117188 12.957031 7.125 C 12.957031 5.136719 13.25 4.398438 14.550781 2.476562 Z M 14.550781 2.476562 "/>
<path style=" stroke:none;fill-rule:nonzero;fill:rgb(100%,85.098039%,51.372549%);fill-opacity:1;" d="M 1.746094 10.671875 C 1.566406 11.925781 1.328125 13.101562 1.097656 13.742188 L 12.972656 6.394531 C 13.046875 5.007812 13.378906 4.234375 14.359375 2.761719 Z M 1.746094 10.671875 "/>
</g>
</svg>
