<?xml version="1.0" encoding="UTF-8"?>
<svg xmlns="http://www.w3.org/2000/svg" xmlns:xlink="http://www.w3.org/1999/xlink" width="15pt" height="15pt" viewBox="0 0 15 15" version="1.1">
<g id="surface1">
<path style=" stroke:none;fill-rule:nonzero;fill:rgb(88.235294%,90.980392%,92.941176%);fill-opacity:1;" d="M 15 6.269531 L 15 13.332031 C 15 13.332031 15 15 13.332031 15 L 1.667969 15 C 0 15 0 13.332031 0 13.332031 L 0 12.5 C 0 12.5 6.648438 9.636719 15 6.269531 Z M 15 6.269531 "/>
<path style=" stroke:none;fill-rule:nonzero;fill:rgb(33.333333%,67.45098%,93.333333%);fill-opacity:1;" d="M 5.296875 10.917969 C 5.238281 10.917969 5.179688 10.902344 5.128906 10.875 C 5.03125 10.828125 4.964844 10.738281 4.941406 10.632812 C 4.851562 10.226562 4.792969 9.902344 4.792969 9.652344 C 4.792969 9.558594 4.828125 9.46875 4.894531 9.402344 C 5.570312 8.6875 6.429688 7.953125 7 7.484375 C 6.457031 6.570312 5.183594 4.472656 4.902344 4.015625 C 4.800781 3.855469 4.84375 3.644531 5 3.53125 C 5.421875 3.230469 7.847656 1.605469 7.949219 1.535156 C 8.105469 1.429688 8.3125 1.464844 8.433594 1.609375 C 8.699219 1.9375 9.410156 3.117188 10.164062 4.363281 C 10.523438 4.957031 10.878906 5.539062 11.15625 5.988281 C 11.175781 6.019531 11.191406 6.050781 11.199219 6.085938 C 11.203125 6.105469 11.628906 7.722656 11.628906 8.105469 C 11.628906 8.257812 11.535156 8.394531 11.390625 8.445312 C 10.832031 8.652344 5.488281 10.867188 5.433594 10.890625 C 5.390625 10.910156 5.34375 10.917969 5.296875 10.917969 Z M 5.296875 10.917969 "/>
<path style=" stroke:none;fill-rule:nonzero;fill:rgb(13.333333%,40%,60%);fill-opacity:1;" d="M 4.894531 11.402344 C 4.753906 11.402344 4.621094 11.320312 4.5625 11.183594 C 4.484375 11 4.570312 10.785156 4.753906 10.707031 L 7.757812 9.441406 C 7.941406 9.363281 8.15625 9.449219 8.230469 9.632812 C 8.308594 9.816406 8.222656 10.03125 8.039062 10.109375 L 5.035156 11.375 C 4.992188 11.394531 4.941406 11.402344 4.894531 11.402344 Z M 9.929688 9.285156 C 9.792969 9.285156 9.660156 9.203125 9.597656 9.066406 C 9.519531 8.882812 9.601562 8.671875 9.785156 8.589844 L 11.78125 7.722656 C 11.964844 7.644531 12.179688 7.726562 12.257812 7.910156 C 12.339844 8.09375 12.253906 8.308594 12.070312 8.386719 L 10.074219 9.257812 C 10.027344 9.277344 9.980469 9.285156 9.929688 9.285156 Z M 9.929688 9.285156 "/>
<path style=" stroke:none;fill-rule:nonzero;fill:rgb(74.509804%,9.803922%,19.215686%);fill-opacity:1;" d="M 2.332031 13.191406 C 2.246094 13.191406 2.160156 13.183594 2.078125 13.171875 C 1.550781 13.097656 1.136719 12.785156 0.878906 12.269531 C 0.773438 12.0625 0.859375 11.8125 1.0625 11.710938 C 1.269531 11.609375 1.519531 11.691406 1.621094 11.898438 C 1.886719 12.425781 2.398438 12.5 3.148438 12.128906 C 3.660156 11.871094 6.335938 10.75 9.171875 9.566406 C 11.003906 8.800781 12.835938 8.035156 14.003906 7.535156 C 14.210938 7.441406 14.460938 7.539062 14.550781 7.753906 C 14.640625 7.964844 14.542969 8.207031 14.332031 8.300781 C 13.164062 8.800781 11.328125 9.566406 9.496094 10.335938 C 6.796875 11.460938 4.007812 12.628906 3.519531 12.871094 C 3.097656 13.085938 2.699219 13.191406 2.332031 13.191406 Z M 2.332031 13.191406 "/>
<path style=" stroke:none;fill-rule:nonzero;fill:rgb(23.137255%,53.333333%,76.470588%);fill-opacity:1;" d="M 11.199219 6.089844 C 11.191406 6.054688 11.175781 6.019531 11.160156 5.988281 C 10.878906 5.542969 10.527344 4.957031 10.164062 4.363281 C 9.414062 3.125 8.707031 1.953125 8.4375 1.617188 C 8.433594 1.660156 8.433594 1.703125 8.433594 1.742188 C 8.410156 2.207031 8.382812 2.847656 7.183594 3.699219 C 6.820312 3.9375 6.898438 4.3125 7.617188 5.800781 C 7.992188 6.578125 8.445312 7.433594 8.652344 7.78125 C 8.730469 7.910156 8.867188 7.988281 9.011719 7.988281 C 9.050781 7.988281 9.09375 7.980469 9.136719 7.96875 C 9.691406 7.792969 10.453125 7.496094 11.125 7.230469 L 11.449219 7.101562 C 11.332031 6.59375 11.203125 6.097656 11.199219 6.089844 Z M 11.199219 6.089844 "/>
<path style=" stroke:none;fill-rule:nonzero;fill:rgb(13.333333%,40%,60%);fill-opacity:1;" d="M 6.953125 6.054688 C 6.835938 6.054688 6.71875 5.996094 6.652344 5.890625 C 6.542969 5.722656 6.589844 5.496094 6.757812 5.390625 L 7.796875 4.710938 C 7.964844 4.601562 8.1875 4.648438 8.296875 4.816406 C 8.40625 4.984375 8.359375 5.207031 8.191406 5.316406 L 7.152344 5.996094 C 7.089844 6.035156 7.023438 6.054688 6.953125 6.054688 Z M 7.78125 7.335938 C 7.609375 7.335938 7.453125 7.207031 7.425781 7.03125 C 7.394531 6.832031 7.527344 6.648438 7.726562 6.617188 L 8.964844 6.421875 C 9.160156 6.390625 9.34375 6.523438 9.378906 6.722656 C 9.40625 6.917969 9.273438 7.101562 9.074219 7.136719 L 7.839844 7.332031 C 7.820312 7.335938 7.800781 7.335938 7.78125 7.335938 Z M 8.140625 9.199219 C 8.085938 9.199219 8.027344 9.183594 7.972656 9.15625 L 7.25 8.769531 C 7.074219 8.675781 7.007812 8.457031 7.101562 8.28125 C 7.195312 8.105469 7.414062 8.039062 7.589844 8.132812 L 8.3125 8.515625 C 8.488281 8.613281 8.554688 8.832031 8.460938 9.007812 C 8.394531 9.128906 8.273438 9.199219 8.140625 9.199219 Z M 8.140625 9.199219 "/>
<path style=" stroke:none;fill-rule:nonzero;fill:rgb(73.333333%,86.666667%,96.078431%);fill-opacity:1;" d="M 9.808594 2.304688 C 9.683594 2.304688 9.558594 2.238281 9.492188 2.121094 C 9.394531 1.949219 9.457031 1.726562 9.632812 1.628906 L 11.976562 0.308594 C 12.148438 0.210938 12.371094 0.273438 12.46875 0.449219 C 12.566406 0.621094 12.503906 0.84375 12.332031 0.941406 L 9.988281 2.257812 C 9.929688 2.292969 9.871094 2.304688 9.808594 2.304688 Z M 10.851562 3.851562 C 10.722656 3.851562 10.601562 3.785156 10.535156 3.667969 C 10.4375 3.492188 10.5 3.273438 10.671875 3.175781 L 12.0625 2.394531 C 12.234375 2.296875 12.457031 2.355469 12.554688 2.53125 C 12.652344 2.707031 12.589844 2.925781 12.417969 3.023438 L 11.027344 3.804688 C 10.972656 3.835938 10.910156 3.851562 10.851562 3.851562 Z M 11.683594 5.519531 C 11.554688 5.519531 11.433594 5.449219 11.367188 5.328125 C 11.269531 5.15625 11.335938 4.933594 11.511719 4.839844 L 12.429688 4.335938 C 12.605469 4.238281 12.824219 4.304688 12.921875 4.480469 C 13.019531 4.65625 12.953125 4.875 12.777344 4.96875 L 11.859375 5.472656 C 11.804688 5.503906 11.742188 5.519531 11.683594 5.519531 Z M 11.683594 5.519531 "/>
</g>
</svg>
