<?xml version="1.0" encoding="UTF-8"?>
<svg xmlns="http://www.w3.org/2000/svg" xmlns:xlink="http://www.w3.org/1999/xlink" width="15pt" height="15pt" viewBox="0 0 15 15" version="1.1">
<g id="surface1">
<path style=" stroke:none;fill-rule:nonzero;fill:rgb(86.666667%,18.039216%,26.666667%);fill-opacity:1;" d="M 13.332031 11.667969 L 1.667969 11.667969 L 1.667969 1.667969 C 1.667969 0.746094 2.414062 0 3.332031 0 L 11.667969 0 C 12.585938 0 13.332031 0.746094 13.332031 1.667969 Z M 13.332031 11.667969 "/>
<path style=" stroke:none;fill-rule:nonzero;fill:rgb(0%,0%,0%);fill-opacity:1;" d="M 3.332031 15 L 11.667969 15 C 12.585938 15 13.332031 14.253906 13.332031 13.332031 L 13.332031 11.667969 C 11.617188 10.523438 4.527344 8.234375 1.667969 11.667969 L 1.667969 13.332031 C 1.667969 14.253906 2.414062 15 3.332031 15 Z M 3.332031 15 "/>
<path style=" stroke:none;fill-rule:nonzero;fill:rgb(100%,100%,100%);fill-opacity:1;" d="M 9.523438 5.207031 C 9.523438 6.949219 8.109375 8.363281 6.363281 8.363281 C 4.621094 8.363281 3.207031 6.949219 3.207031 5.207031 C 3.207031 3.460938 4.621094 2.046875 6.363281 2.046875 C 8.109375 2.046875 9.523438 3.460938 9.523438 5.207031 Z M 9.523438 5.207031 "/>
</g>
</svg>
