<?xml version="1.0" encoding="UTF-8"?>
<svg xmlns="http://www.w3.org/2000/svg" xmlns:xlink="http://www.w3.org/1999/xlink" width="15pt" height="15pt" viewBox="0 0 15 15" version="1.1">
<g id="surface1">
<path style=" stroke:none;fill-rule:nonzero;fill:rgb(36.470588%,67.843137%,92.54902%);fill-opacity:1;" d="M 5.910156 0.0703125 L 3.257812 0.613281 C 3.070312 0.652344 2.917969 0.839844 2.917969 1.03125 L 2.917969 7.636719 C 2.660156 7.550781 2.378906 7.5 2.082031 7.5 C 0.933594 7.5 0 8.226562 0 9.121094 C 0 10.015625 0.933594 10.742188 2.082031 10.742188 C 3.214844 10.742188 4.128906 10.039062 4.160156 9.167969 L 4.167969 9.167969 L 4.167969 2.699219 L 5.910156 2.34375 C 6.097656 2.304688 6.25 2.117188 6.25 1.925781 L 6.25 0.347656 C 6.25 0.15625 6.097656 0.03125 5.910156 0.0703125 Z M 14.660156 1.738281 L 12.007812 2.277344 C 11.820312 2.316406 11.667969 2.503906 11.667969 2.695312 L 11.667969 9.304688 C 11.410156 9.214844 11.128906 9.167969 10.832031 9.167969 C 9.683594 9.167969 8.75 9.890625 8.75 10.785156 C 8.75 11.683594 9.683594 12.40625 10.832031 12.40625 C 11.964844 12.40625 12.878906 11.707031 12.910156 10.832031 L 12.917969 10.832031 L 12.917969 4.367188 L 14.660156 4.007812 C 14.847656 3.972656 15 3.78125 15 3.589844 L 15 2.015625 C 15 1.824219 14.847656 1.699219 14.660156 1.738281 Z M 14.660156 1.738281 "/>
<path style=" stroke:none;fill-rule:nonzero;fill:rgb(36.470588%,67.843137%,92.54902%);fill-opacity:1;" d="M 9.660156 4.234375 L 7.007812 4.777344 C 6.820312 4.816406 6.667969 5.003906 6.667969 5.195312 L 6.667969 11.804688 C 6.410156 11.714844 6.128906 11.667969 5.832031 11.667969 C 4.683594 11.667969 3.75 12.390625 3.75 13.285156 C 3.75 14.183594 4.683594 14.90625 5.832031 14.90625 C 6.964844 14.90625 7.878906 14.207031 7.910156 13.332031 L 7.917969 13.332031 L 7.917969 6.867188 L 9.660156 6.507812 C 9.847656 6.472656 10 6.28125 10 6.089844 L 10 4.515625 C 10 4.324219 9.847656 4.199219 9.660156 4.234375 Z M 9.660156 4.234375 "/>
</g>
</svg>
