<?xml version="1.0" encoding="UTF-8"?>
<svg xmlns="http://www.w3.org/2000/svg" xmlns:xlink="http://www.w3.org/1999/xlink" width="15pt" height="15pt" viewBox="0 0 15 15" version="1.1">
<g id="surface1">
<path style=" stroke:none;fill-rule:nonzero;fill:rgb(98.823529%,67.058824%,25.098039%);fill-opacity:1;" d="M 2.34375 13.769531 L 1.226562 12.65625 L 9.722656 4.160156 C 11.117188 2.769531 10.28125 0.820312 10.558594 0.539062 C 10.835938 0.261719 11.117188 0.539062 11.117188 0.539062 L 14.460938 3.882812 C 14.738281 4.160156 14.460938 4.441406 14.460938 4.441406 C 14.179688 4.71875 12.050781 4.0625 10.835938 5.277344 Z M 2.34375 13.769531 "/>
<path style=" stroke:none;fill-rule:nonzero;fill:rgb(80%,83.921569%,86.666667%);fill-opacity:1;" d="M 2.273438 14.121094 C 2.660156 13.734375 2.660156 13.109375 2.273438 12.726562 C 1.890625 12.339844 1.265625 12.339844 0.878906 12.726562 L 0.914062 12.761719 C 0.761719 12.621094 0.523438 12.625 0.375 12.773438 C 0.222656 12.925781 0.222656 13.175781 0.375 13.328125 L 1.671875 14.625 C 1.824219 14.777344 2.074219 14.777344 2.226562 14.625 C 2.375 14.476562 2.378906 14.242188 2.242188 14.085938 Z M 2.273438 14.121094 "/>
<path style=" stroke:none;fill-rule:nonzero;fill:rgb(98.823529%,67.058824%,25.098039%);fill-opacity:1;" d="M 5.546875 14.046875 C 4.914062 14.046875 4.320312 13.800781 3.875 13.351562 C 3.429688 12.90625 3.183594 12.3125 3.183594 11.683594 C 3.183594 11.050781 3.429688 10.457031 3.875 10.011719 L 8.332031 5.554688 C 8.777344 5.109375 9.371094 4.863281 10.003906 4.863281 C 10.632812 4.863281 11.226562 5.109375 11.675781 5.554688 C 12.59375 6.476562 12.59375 7.976562 11.675781 8.898438 L 7.21875 13.351562 C 6.769531 13.800781 6.175781 14.046875 5.546875 14.046875 Z M 10.003906 6.4375 C 9.792969 6.4375 9.59375 6.519531 9.445312 6.667969 L 4.988281 11.125 C 4.839844 11.273438 4.757812 11.472656 4.757812 11.683594 C 4.757812 11.894531 4.839844 12.089844 4.988281 12.238281 C 5.136719 12.386719 5.335938 12.46875 5.546875 12.46875 C 5.757812 12.46875 5.953125 12.386719 6.101562 12.238281 L 10.558594 7.78125 C 10.867188 7.476562 10.867188 6.976562 10.558594 6.667969 C 10.410156 6.519531 10.214844 6.4375 10.003906 6.4375 Z M 10.003906 6.4375 "/>
<path style=" stroke:none;fill-rule:nonzero;fill:rgb(98.823529%,67.058824%,25.098039%);fill-opacity:1;" d="M 10.558594 10.011719 C 10.867188 10.316406 11.367188 10.316406 11.675781 10.011719 C 11.980469 9.703125 11.980469 9.203125 11.675781 8.898438 L 8.332031 5.554688 C 8.023438 5.246094 7.527344 5.246094 7.21875 5.554688 C 6.910156 5.863281 6.910156 6.359375 7.21875 6.667969 Z M 8.886719 11.683594 C 9.195312 11.988281 9.695312 11.988281 10.003906 11.683594 C 10.308594 11.375 10.308594 10.875 10.003906 10.566406 L 6.660156 7.226562 C 6.351562 6.917969 5.855469 6.917969 5.546875 7.226562 C 5.238281 7.53125 5.238281 8.03125 5.546875 8.339844 Z M 7.21875 13.351562 C 7.523438 13.660156 8.023438 13.660156 8.332031 13.351562 C 8.640625 13.046875 8.640625 12.546875 8.332031 12.238281 L 4.988281 8.898438 C 4.679688 8.589844 4.183594 8.589844 3.875 8.898438 C 3.566406 9.203125 3.566406 9.703125 3.875 10.011719 Z M 7.21875 13.351562 "/>
<path style=" stroke:none;fill-rule:nonzero;fill:rgb(80%,83.921569%,86.666667%);fill-opacity:1;" d="M 6.101562 5.554688 C 6.257812 5.707031 6.507812 5.707031 6.660156 5.554688 L 7.21875 4.996094 C 7.371094 4.84375 7.371094 4.59375 7.21875 4.441406 C 7.0625 4.285156 6.8125 4.285156 6.660156 4.441406 L 6.101562 4.996094 C 5.949219 5.152344 5.949219 5.398438 6.101562 5.554688 Z M 4.433594 7.226562 C 4.585938 7.378906 4.835938 7.378906 4.988281 7.226562 L 5.546875 6.667969 C 5.699219 6.515625 5.699219 6.265625 5.546875 6.109375 C 5.390625 5.957031 5.144531 5.957031 4.988281 6.109375 L 4.433594 6.667969 C 4.277344 6.824219 4.277344 7.070312 4.433594 7.226562 Z M 2.761719 8.898438 C 2.914062 9.050781 3.164062 9.050781 3.316406 8.898438 L 3.875 8.339844 C 4.027344 8.1875 4.027344 7.9375 3.875 7.78125 C 3.722656 7.628906 3.472656 7.628906 3.316406 7.78125 L 2.761719 8.339844 C 2.605469 8.492188 2.605469 8.742188 2.761719 8.898438 Z M 2.761719 8.898438 "/>
</g>
</svg>
