<?xml version="1.0" encoding="UTF-8"?>
<svg xmlns="http://www.w3.org/2000/svg" xmlns:xlink="http://www.w3.org/1999/xlink" width="15pt" height="15pt" viewBox="0 0 15 15" version="1.1">
<g id="surface1">
<path style=" stroke:none;fill-rule:nonzero;fill:rgb(94.509804%,56.078431%,14.901961%);fill-opacity:1;" d="M 9.964844 5.035156 C 9.257812 4.332031 8.464844 3.957031 7.671875 3.957031 C 6.996094 3.957031 6.34375 4.234375 5.839844 4.742188 C 5.207031 5.375 5.121094 5.738281 5.0625 5.976562 C 5.03125 6.101562 5.015625 6.152344 4.957031 6.214844 C 4.910156 6.257812 4.890625 6.320312 4.898438 6.382812 C 4.902344 6.445312 4.9375 6.503906 4.992188 6.539062 C 4.996094 6.542969 5.125 6.628906 5.144531 6.808594 C 5.160156 6.972656 5.089844 7.257812 4.660156 7.6875 C 4.398438 7.949219 4.140625 8.082031 3.890625 8.082031 C 3.480469 8.082031 3.203125 7.722656 3.199219 7.71875 C 3.15625 7.65625 3.078125 7.625 3 7.636719 C 2.921875 7.648438 2.859375 7.703125 2.835938 7.777344 C 2.742188 8.050781 2.730469 8.054688 2.613281 8.070312 C 2.367188 8.105469 1.957031 8.167969 1.101562 9.019531 C 0.40625 9.714844 0.160156 10.589844 0.390625 11.539062 C 0.554688 12.210938 0.976562 12.9375 1.519531 13.480469 C 2.105469 14.066406 3.105469 14.691406 4.144531 14.691406 C 4.835938 14.691406 5.453125 14.425781 5.980469 13.898438 C 6.832031 13.042969 6.894531 12.632812 6.929688 12.386719 C 6.945312 12.269531 6.949219 12.257812 7.222656 12.164062 C 7.296875 12.140625 7.351562 12.074219 7.363281 12 C 7.375 11.921875 7.34375 11.84375 7.28125 11.800781 C 7.277344 11.796875 6.945312 11.542969 6.917969 11.164062 C 6.898438 10.898438 7.03125 10.621094 7.3125 10.339844 C 7.714844 9.9375 7.988281 9.855469 8.148438 9.855469 C 8.359375 9.855469 8.457031 10.003906 8.460938 10.007812 C 8.496094 10.0625 8.550781 10.097656 8.613281 10.105469 C 8.671875 10.109375 8.742188 10.089844 8.785156 10.042969 C 8.847656 9.980469 8.898438 9.96875 9.023438 9.9375 C 9.261719 9.878906 9.625 9.792969 10.257812 9.160156 C 11.210938 8.207031 11.488281 6.5625 9.964844 5.035156 Z M 9.964844 5.035156 "/>
<path style=" stroke:none;fill-rule:nonzero;fill:rgb(16.078431%,18.431373%,20%);fill-opacity:1;" d="M 14.167969 1.25 L 7.917969 8.332031 L 6.667969 7.082031 L 13.75 0.832031 Z M 14.167969 1.25 "/>
<path style=" stroke:none;fill-rule:nonzero;fill:rgb(39.215686%,12.941176%,8.627451%);fill-opacity:1;" d="M 5.417969 11.25 C 5.308594 11.25 5.203125 11.210938 5.121094 11.128906 L 3.871094 9.878906 C 3.710938 9.714844 3.710938 9.453125 3.871094 9.289062 C 4.035156 9.125 4.296875 9.125 4.460938 9.289062 L 5.710938 10.539062 C 5.875 10.703125 5.875 10.964844 5.710938 11.128906 C 5.628906 11.210938 5.523438 11.25 5.417969 11.25 Z M 5.417969 11.25 "/>
<path style=" stroke:none;fill-rule:nonzero;fill:rgb(80%,83.921569%,86.666667%);fill-opacity:1;" d="M 1.929688 12.472656 L 12 2.417969 L 12.222656 2.640625 L 2.148438 12.695312 Z M 2.289062 12.835938 L 12.363281 2.78125 L 12.582031 3.003906 L 2.511719 13.054688 Z M 2.289062 12.835938 "/>
<path style=" stroke:none;fill-rule:nonzero;fill:rgb(94.509804%,56.078431%,14.901961%);fill-opacity:1;" d="M 14.460938 1.117188 C 14.640625 1.300781 14.640625 1.601562 14.460938 1.78125 L 13.132812 3.109375 C 12.949219 3.292969 12.652344 3.292969 12.46875 3.109375 L 11.890625 2.53125 C 11.707031 2.347656 11.707031 2.050781 11.890625 1.867188 L 13.21875 0.539062 C 13.398438 0.355469 13.699219 0.355469 13.882812 0.539062 Z M 14.460938 1.117188 "/>
<path style=" stroke:none;fill-rule:nonzero;fill:rgb(16.078431%,18.431373%,20%);fill-opacity:1;" d="M 0.832031 13.332031 L 2.5 11.25 C 2.5 11.25 2.917969 11.25 3.332031 11.667969 C 3.75 12.082031 3.75 12.5 3.75 12.5 L 1.667969 14.167969 Z M 0.832031 13.332031 "/>
<path style=" stroke:none;fill-rule:nonzero;fill:rgb(39.215686%,12.941176%,8.627451%);fill-opacity:1;" d="M 14.167969 3.332031 C 14.167969 3.5625 13.980469 3.75 13.75 3.75 C 13.519531 3.75 13.332031 3.5625 13.332031 3.332031 C 13.332031 3.101562 13.519531 2.917969 13.75 2.917969 C 13.980469 2.917969 14.167969 3.101562 14.167969 3.332031 Z M 14.167969 3.332031 "/>
<path style=" stroke:none;fill-rule:nonzero;fill:rgb(39.215686%,12.941176%,8.627451%);fill-opacity:1;" d="M 15 2.5 C 15 2.730469 14.8125 2.917969 14.582031 2.917969 C 14.351562 2.917969 14.167969 2.730469 14.167969 2.5 C 14.167969 2.269531 14.351562 2.082031 14.582031 2.082031 C 14.8125 2.082031 15 2.269531 15 2.5 Z M 15 2.5 "/>
<path style=" stroke:none;fill-rule:nonzero;fill:rgb(39.215686%,12.941176%,8.627451%);fill-opacity:1;" d="M 12.082031 1.25 C 12.082031 1.480469 11.898438 1.667969 11.667969 1.667969 C 11.4375 1.667969 11.25 1.480469 11.25 1.25 C 11.25 1.019531 11.4375 0.832031 11.667969 0.832031 C 11.898438 0.832031 12.082031 1.019531 12.082031 1.25 Z M 12.082031 1.25 "/>
<path style=" stroke:none;fill-rule:nonzero;fill:rgb(39.215686%,12.941176%,8.627451%);fill-opacity:1;" d="M 12.917969 0.417969 C 12.917969 0.648438 12.730469 0.832031 12.5 0.832031 C 12.269531 0.832031 12.082031 0.648438 12.082031 0.417969 C 12.082031 0.1875 12.269531 0 12.5 0 C 12.730469 0 12.917969 0.1875 12.917969 0.417969 Z M 12.917969 0.417969 "/>
</g>
</svg>
