<?xml version="1.0" encoding="UTF-8"?>
<svg xmlns="http://www.w3.org/2000/svg" xmlns:xlink="http://www.w3.org/1999/xlink" width="15pt" height="15pt" viewBox="0 0 15 15" version="1.1">
<g id="surface1">
<path style=" stroke:none;fill-rule:nonzero;fill:rgb(53.333333%,60%,65.098039%);fill-opacity:1;" d="M 15 2.082031 L 15 1.25 L 0 1.25 L 0 13.75 L 15 13.75 L 15 12.917969 L 2.5 12.917969 L 2.5 10.832031 L 15 10.832031 L 15 10 L 2.5 10 L 2.5 7.917969 L 15 7.917969 L 15 7.082031 L 2.5 7.082031 L 2.5 5 L 15 5 L 15 4.167969 L 2.5 4.167969 L 2.5 2.082031 Z M 15 2.082031 "/>
<path style=" stroke:none;fill-rule:nonzero;fill:rgb(19.215686%,21.568627%,23.921569%);fill-opacity:1;" d="M 11.59375 8.566406 C 11.5 8.296875 11.367188 8.054688 11.199219 7.847656 C 11.027344 7.636719 10.8125 7.464844 10.5625 7.335938 C 10.308594 7.207031 10.039062 7.144531 9.738281 7.144531 C 9.703125 7.144531 9.652344 7.148438 9.585938 7.15625 L 9.363281 6.074219 C 9.617188 5.824219 9.84375 5.535156 10.035156 5.210938 C 10.246094 4.855469 10.40625 4.472656 10.511719 4.066406 C 10.625 3.660156 10.679688 3.257812 10.679688 2.839844 C 10.679688 1.964844 10.453125 1.199219 10 0.558594 C 9.9375 0.476562 9.882812 0.417969 9.839844 0.378906 C 9.675781 0.230469 9.511719 0.207031 9.128906 0.492188 C 8.933594 0.636719 8.761719 0.847656 8.621094 1.117188 C 8.472656 1.386719 8.367188 1.6875 8.292969 2.035156 C 8.214844 2.378906 8.175781 2.753906 8.171875 3.152344 C 8.1875 3.714844 8.269531 4.277344 8.410156 4.824219 C 8.089844 5.148438 7.832031 5.421875 7.628906 5.636719 C 7.410156 5.875 7.195312 6.148438 6.984375 6.449219 C 6.78125 6.742188 6.605469 7.070312 6.472656 7.414062 C 6.339844 7.753906 6.265625 8.121094 6.25 8.523438 C 6.253906 8.929688 6.332031 9.332031 6.484375 9.714844 C 6.636719 10.089844 6.851562 10.433594 7.128906 10.734375 C 7.40625 11.035156 7.730469 11.273438 8.097656 11.441406 C 8.609375 11.679688 9.199219 11.753906 9.773438 11.65625 C 9.796875 11.773438 9.832031 11.917969 9.875 12.082031 C 9.9375 12.351562 9.988281 12.570312 10.019531 12.730469 C 10.050781 12.894531 10.066406 13.050781 10.066406 13.199219 C 10.066406 13.421875 10.039062 13.597656 9.984375 13.738281 C 9.960938 13.824219 9.90625 13.910156 9.816406 14 C 9.71875 14.09375 9.605469 14.164062 9.464844 14.21875 C 9.269531 14.296875 9.082031 14.316406 8.929688 14.296875 C 9.011719 14.253906 9.085938 14.195312 9.152344 14.128906 C 9.332031 13.941406 9.425781 13.714844 9.425781 13.453125 C 9.425781 13.265625 9.378906 13.085938 9.289062 12.917969 C 9.199219 12.761719 9.078125 12.632812 8.917969 12.53125 C 8.761719 12.4375 8.59375 12.386719 8.40625 12.386719 C 8.191406 12.402344 8.007812 12.46875 7.863281 12.585938 C 7.714844 12.695312 7.59375 12.84375 7.507812 13.023438 C 7.429688 13.191406 7.378906 13.375 7.367188 13.589844 C 7.382812 14.023438 7.566406 14.375 7.910156 14.632812 C 8.238281 14.875 8.621094 15 9.054688 15 C 9.363281 15 9.652344 14.933594 9.910156 14.796875 C 10.171875 14.660156 10.386719 14.464844 10.546875 14.214844 C 10.699219 13.960938 10.777344 13.675781 10.777344 13.359375 C 10.777344 13.152344 10.761719 12.960938 10.722656 12.769531 C 10.6875 12.578125 10.636719 12.320312 10.566406 11.992188 C 10.511719 11.765625 10.472656 11.578125 10.445312 11.429688 C 10.847656 11.25 11.15625 10.992188 11.371094 10.65625 C 11.613281 10.28125 11.734375 9.863281 11.734375 9.40625 C 11.734375 9.128906 11.6875 8.847656 11.59375 8.566406 Z M 10.292969 10.726562 L 9.859375 8.578125 C 9.964844 8.601562 10.066406 8.640625 10.160156 8.695312 C 10.324219 8.789062 10.453125 8.914062 10.554688 9.085938 C 10.65625 9.246094 10.71875 9.433594 10.746094 9.628906 C 10.746094 10.148438 10.597656 10.507812 10.292969 10.726562 Z M 9.8125 2.957031 C 9.734375 3.179688 9.632812 3.398438 9.5 3.617188 C 9.375 3.832031 9.238281 4.019531 9.101562 4.183594 C 9.058594 4.234375 9.019531 4.277344 8.980469 4.316406 C 8.949219 4.167969 8.929688 4.003906 8.921875 3.832031 C 8.925781 3.546875 8.96875 3.261719 9.046875 2.964844 C 9.117188 2.6875 9.21875 2.4375 9.335938 2.230469 C 9.464844 2.035156 9.59375 1.9375 9.730469 1.9375 C 9.777344 1.9375 9.8125 1.949219 9.839844 1.972656 C 9.867188 2.003906 9.886719 2.0625 9.902344 2.164062 C 9.914062 2.21875 9.921875 2.289062 9.921875 2.371094 C 9.921875 2.554688 9.882812 2.753906 9.8125 2.957031 Z M 7.75 7.742188 C 8.023438 7.347656 8.355469 6.976562 8.765625 6.609375 L 8.90625 7.332031 C 8.605469 7.484375 8.355469 7.707031 8.15625 8.003906 C 7.925781 8.347656 7.800781 8.722656 7.792969 9.136719 C 7.796875 9.515625 7.921875 9.859375 8.152344 10.15625 C 8.390625 10.453125 8.691406 10.648438 9.058594 10.742188 L 9.109375 10.753906 L 9.160156 10.742188 C 9.382812 10.6875 9.40625 10.546875 9.40625 10.484375 C 9.40625 10.34375 9.3125 10.226562 9.164062 10.1875 C 9.011719 10.117188 8.898438 10.011719 8.824219 9.871094 C 8.738281 9.71875 8.695312 9.574219 8.695312 9.457031 C 8.695312 9.257812 8.765625 9.078125 8.910156 8.914062 C 9 8.8125 9.089844 8.734375 9.183594 8.675781 L 9.636719 10.96875 C 9.476562 11.003906 9.332031 11.023438 9.203125 11.035156 C 8.625 11.015625 8.152344 10.824219 7.796875 10.472656 C 7.617188 10.285156 7.488281 10.09375 7.398438 9.878906 C 7.308594 9.664062 7.261719 9.4375 7.257812 9.21875 C 7.269531 8.6875 7.433594 8.191406 7.75 7.742188 Z M 7.75 7.742188 "/>
</g>
</svg>
