<?xml version="1.0" encoding="UTF-8"?>
<svg xmlns="http://www.w3.org/2000/svg" xmlns:xlink="http://www.w3.org/1999/xlink" width="15pt" height="15pt" viewBox="0 0 15 15" version="1.1">
<g id="surface1">
<path style=" stroke:none;fill-rule:nonzero;fill:rgb(19.215686%,21.568627%,23.921569%);fill-opacity:1;" d="M 15 7.5 C 15 11.640625 11.640625 15 7.5 15 C 3.359375 15 0 11.640625 0 7.5 C 0 3.359375 3.359375 0 7.5 0 C 11.640625 0 15 3.359375 15 7.5 Z M 15 7.5 "/>
<path style=" stroke:none;fill-rule:nonzero;fill:rgb(88.235294%,90.980392%,92.941176%);fill-opacity:1;" d="M 11.25 7.5 C 11.25 9.570312 9.570312 11.25 7.5 11.25 C 5.429688 11.25 3.75 9.570312 3.75 7.5 C 3.75 5.429688 5.429688 3.75 7.5 3.75 C 9.570312 3.75 11.25 5.429688 11.25 7.5 Z M 11.25 7.5 "/>
<path style=" stroke:none;fill-rule:nonzero;fill:rgb(19.215686%,21.568627%,23.921569%);fill-opacity:1;" d="M 5.710938 8.417969 C 5.710938 7.832031 6.03125 7.398438 6.492188 7.152344 C 6.148438 6.902344 5.9375 6.566406 5.9375 6.101562 C 5.9375 5.246094 6.648438 4.695312 7.519531 4.695312 C 8.367188 4.695312 9.109375 5.238281 9.109375 6.101562 C 9.109375 6.511719 8.902344 6.921875 8.542969 7.152344 C 9.042969 7.398438 9.328125 7.855469 9.328125 8.417969 C 9.328125 9.4375 8.5 10.089844 7.519531 10.089844 C 6.507812 10.089844 5.710938 9.398438 5.710938 8.417969 Z M 6.851562 8.34375 C 6.851562 8.71875 7.070312 9.078125 7.519531 9.078125 C 7.9375 9.078125 8.183594 8.71875 8.183594 8.34375 C 8.183594 7.882812 7.921875 7.613281 7.519531 7.613281 C 7.09375 7.613281 6.851562 7.933594 6.851562 8.34375 Z M 6.992188 6.222656 C 6.992188 6.550781 7.183594 6.777344 7.519531 6.777344 C 7.855469 6.777344 8.054688 6.550781 8.054688 6.222656 C 8.054688 5.90625 7.863281 5.664062 7.519531 5.664062 C 7.175781 5.664062 6.992188 5.90625 6.992188 6.222656 Z M 6.992188 6.222656 "/>
</g>
</svg>
