<?xml version="1.0" encoding="UTF-8"?>
<svg xmlns="http://www.w3.org/2000/svg" xmlns:xlink="http://www.w3.org/1999/xlink" width="15pt" height="15pt" viewBox="0 0 15 15" version="1.1">
<g id="surface1">
<path style=" stroke:none;fill-rule:nonzero;fill:rgb(36.470588%,67.843137%,92.54902%);fill-opacity:1;" d="M 14.253906 0.0859375 L 4.914062 1.164062 C 4.503906 1.210938 4.167969 1.589844 4.167969 2 L 4.167969 9.828125 C 3.789062 9.671875 3.363281 9.582031 2.917969 9.582031 C 1.304688 9.582031 0 10.703125 0 12.082031 C 0 13.464844 1.304688 14.582031 2.917969 14.582031 C 4.527344 14.582031 5.832031 13.464844 5.832031 12.082031 L 5.832031 4.390625 L 13.332031 3.527344 L 13.332031 8.996094 C 12.953125 8.839844 12.53125 8.75 12.082031 8.75 C 10.472656 8.75 9.167969 9.867188 9.167969 11.25 C 9.167969 12.628906 10.472656 13.75 12.082031 13.75 C 13.695312 13.75 15 12.628906 15 11.25 L 15 0.75 C 15 0.339844 14.664062 0.0390625 14.253906 0.0859375 Z M 14.253906 0.0859375 "/>
</g>
</svg>
