<?xml version="1.0" encoding="UTF-8"?>
<svg xmlns="http://www.w3.org/2000/svg" xmlns:xlink="http://www.w3.org/1999/xlink" width="15pt" height="15pt" viewBox="0 0 15 15" version="1.1">
<g id="surface1">
<path style=" stroke:none;fill-rule:nonzero;fill:rgb(19.215686%,21.568627%,23.921569%);fill-opacity:1;" d="M 0.832031 15 C 0.832031 15 0 15 0 14.167969 L 0 0.832031 C 0 0.832031 0 0 0.832031 0 L 14.179688 0 C 15 0 15 0.832031 15 0.832031 L 15 14.167969 C 15 14.167969 15 15 14.167969 15 Z M 0.832031 15 "/>
<path style=" stroke:none;fill-rule:nonzero;fill:rgb(88.235294%,90.980392%,92.941176%);fill-opacity:1;" d="M 7.917969 13.75 C 7.917969 13.75 7.917969 14.167969 8.332031 14.167969 L 10.417969 14.167969 C 10.832031 14.167969 10.832031 13.75 10.832031 13.75 L 10.832031 2.082031 L 7.917969 2.082031 Z M 11.667969 2.082031 L 11.667969 13.75 C 11.667969 13.75 11.667969 14.167969 12.082031 14.167969 L 13.75 14.167969 C 14.167969 14.167969 14.167969 13.75 14.167969 13.75 L 14.167969 2.082031 Z M 4.167969 13.75 C 4.167969 13.75 4.167969 14.167969 4.582031 14.167969 L 6.667969 14.167969 C 7.082031 14.167969 7.082031 13.75 7.082031 13.75 L 7.082031 2.082031 L 4.167969 2.082031 Z M 0.832031 13.75 C 0.832031 13.75 0.832031 14.167969 1.25 14.167969 L 2.917969 14.167969 C 3.332031 14.167969 3.332031 13.75 3.332031 13.75 L 3.332031 2.082031 L 0.832031 2.082031 Z M 0.832031 13.75 "/>
<path style=" stroke:none;fill-rule:nonzero;fill:rgb(19.215686%,21.568627%,23.921569%);fill-opacity:1;" d="M 12.5 9.582031 C 12.5 9.582031 12.5 10 12.082031 10 L 10.417969 10 C 10 10 10 9.582031 10 9.582031 L 10 1.25 L 12.5 1.25 Z M 8.75 9.582031 C 8.75 9.582031 8.75 10 8.332031 10 L 6.667969 10 C 6.25 10 6.25 9.582031 6.25 9.582031 L 6.25 1.25 L 8.75 1.25 Z M 5 9.582031 C 5 9.582031 5 10 4.582031 10 L 2.917969 10 C 2.5 10 2.5 9.582031 2.5 9.582031 L 2.5 1.25 L 5 1.25 Z M 5 9.582031 "/>
</g>
</svg>
