<?xml version="1.0" encoding="UTF-8"?>
<svg xmlns="http://www.w3.org/2000/svg" xmlns:xlink="http://www.w3.org/1999/xlink" width="15pt" height="15pt" viewBox="0 0 15 15" version="1.1">
<g id="surface1">
<path style=" stroke:none;fill-rule:nonzero;fill:rgb(46.666667%,69.803922%,33.333333%);fill-opacity:1;" d="M 15 7.5 C 15 11.640625 11.640625 15 7.5 15 C 3.359375 15 0 11.640625 0 7.5 C 0 3.359375 3.359375 0 7.5 0 C 11.640625 0 15 3.359375 15 7.5 Z M 15 7.5 "/>
<path style=" stroke:none;fill-rule:nonzero;fill:rgb(65.098039%,82.745098%,53.333333%);fill-opacity:1;" d="M 10.832031 7.5 C 10.832031 10.019531 11.996094 11.757812 13.25 12.3125 C 14.339844 11.007812 15 9.332031 15 7.5 C 15 5.667969 14.339844 3.992188 13.25 2.6875 C 11.996094 3.242188 10.832031 4.980469 10.832031 7.5 Z M 10.832031 7.5 "/>
<path style=" stroke:none;fill-rule:nonzero;fill:rgb(100%,100%,100%);fill-opacity:1;" d="M 11.25 7.5 C 11.25 4.980469 11.996094 3.242188 13.25 2.6875 C 13.066406 2.46875 12.863281 2.261719 12.65625 2.0625 C 11.417969 2.753906 10.417969 4.40625 10.417969 7.5 C 10.417969 10.59375 11.417969 12.246094 12.65625 12.9375 C 12.863281 12.738281 13.066406 12.53125 13.25 12.3125 C 11.996094 11.757812 11.25 10.019531 11.25 7.5 Z M 11.25 7.5 "/>
<path style=" stroke:none;fill-rule:nonzero;fill:rgb(65.098039%,82.745098%,53.333333%);fill-opacity:1;" d="M 4.167969 7.5 C 4.167969 4.980469 3.003906 3.242188 1.75 2.6875 C 0.660156 3.992188 0 5.667969 0 7.5 C 0 9.332031 0.660156 11.007812 1.75 12.3125 C 3.003906 11.757812 4.167969 10.019531 4.167969 7.5 Z M 4.167969 7.5 "/>
<path style=" stroke:none;fill-rule:nonzero;fill:rgb(100%,100%,100%);fill-opacity:1;" d="M 1.75 2.6875 C 3.003906 3.242188 3.75 4.980469 3.75 7.5 C 3.75 10.019531 3.003906 11.757812 1.75 12.3125 C 1.933594 12.53125 2.136719 12.738281 2.34375 12.9375 C 3.582031 12.246094 4.582031 10.59375 4.582031 7.5 C 4.582031 4.40625 3.582031 2.753906 2.34375 2.0625 C 2.136719 2.261719 1.933594 2.46875 1.75 2.6875 Z M 1.75 2.6875 "/>
</g>
</svg>
