<?xml version="1.0" encoding="UTF-8"?>
<svg xmlns="http://www.w3.org/2000/svg" xmlns:xlink="http://www.w3.org/1999/xlink" width="15pt" height="15pt" viewBox="0 0 15 15" version="1.1">
<g id="surface1">
<path style=" stroke:none;fill-rule:nonzero;fill:rgb(80%,83.921569%,86.666667%);fill-opacity:1;" d="M 9.167969 4.167969 C 9.167969 3.75 9.582031 2.917969 9.582031 2.082031 C 9.582031 1.25 9.582031 0.832031 9.167969 0.417969 C 8.75 0 8.332031 0 8.332031 0 C 8.332031 0 7.917969 0 7.5 0.417969 C 7.082031 0.832031 7.082031 1.25 7.082031 2.082031 C 7.082031 2.917969 7.5 3.75 7.5 4.167969 C 7.5 5.417969 5.832031 6.25 5.832031 7.953125 C 5.832031 9.339844 6.667969 12.082031 7.082031 12.917969 L 9.582031 12.917969 C 10 12.082031 10.832031 9.339844 10.832031 7.953125 C 10.832031 6.25 9.167969 5.417969 9.167969 4.167969 Z M 9.167969 4.167969 "/>
<path style=" stroke:none;fill-rule:nonzero;fill:rgb(74.509804%,9.803922%,19.215686%);fill-opacity:1;" d="M 7.5 4.167969 L 9.167969 4.167969 C 9.167969 3.96875 9.261719 3.675781 9.359375 3.332031 L 7.308594 3.332031 C 7.40625 3.675781 7.5 3.96875 7.5 4.167969 Z M 9.960938 5.832031 C 9.753906 5.550781 9.550781 5.277344 9.402344 5 L 7.261719 5 C 7.113281 5.277344 6.914062 5.550781 6.707031 5.832031 Z M 9.960938 5.832031 "/>
<path style=" stroke:none;fill-rule:nonzero;fill:rgb(80%,83.921569%,86.666667%);fill-opacity:1;" d="M 13.332031 5.417969 C 13.332031 5 13.75 4.167969 13.75 3.332031 C 13.75 2.5 13.75 2.082031 13.332031 1.667969 C 12.917969 1.25 12.5 1.25 12.5 1.25 C 12.5 1.25 12.082031 1.25 11.667969 1.667969 C 11.25 2.082031 11.25 2.5 11.25 3.332031 C 11.25 4.167969 11.667969 5 11.667969 5.417969 C 11.667969 6.667969 10 7.5 10 9.203125 C 10 10.589844 10.832031 13.332031 11.25 14.167969 L 13.75 14.167969 C 14.167969 13.332031 15 10.589844 15 9.203125 C 15 7.5 13.332031 6.667969 13.332031 5.417969 Z M 13.332031 5.417969 "/>
<path style=" stroke:none;fill-rule:nonzero;fill:rgb(74.509804%,9.803922%,19.215686%);fill-opacity:1;" d="M 11.667969 5.417969 L 13.332031 5.417969 C 13.332031 5.21875 13.429688 4.925781 13.527344 4.582031 L 11.472656 4.582031 C 11.570312 4.925781 11.667969 5.21875 11.667969 5.417969 Z M 14.125 7.082031 C 13.921875 6.800781 13.71875 6.527344 13.570312 6.25 L 11.429688 6.25 C 11.28125 6.527344 11.078125 6.800781 10.875 7.082031 Z M 14.125 7.082031 "/>
<path style=" stroke:none;fill-rule:nonzero;fill:rgb(19.215686%,21.568627%,23.921569%);fill-opacity:1;" d="M 10.46875 9.765625 C 10.46875 12.65625 8.125 15 5.234375 15 C 2.34375 15 0 12.65625 0 9.765625 C 0 6.875 2.34375 4.53125 5.234375 4.53125 C 8.125 4.53125 10.46875 6.875 10.46875 9.765625 Z M 10.46875 9.765625 "/>
<path style=" stroke:none;fill-rule:nonzero;fill:rgb(0%,0%,0%);fill-opacity:1;" d="M 6.347656 7.828125 C 6.347656 8.363281 5.914062 8.792969 5.382812 8.792969 C 4.847656 8.792969 4.417969 8.363281 4.417969 7.828125 C 4.417969 7.296875 4.847656 6.863281 5.382812 6.863281 C 5.914062 6.863281 6.347656 7.296875 6.347656 7.828125 Z M 6.347656 7.828125 "/>
<path style=" stroke:none;fill-rule:nonzero;fill:rgb(0%,0%,0%);fill-opacity:1;" d="M 3.675781 8.722656 C 3.675781 9.257812 3.242188 9.6875 2.710938 9.6875 C 2.175781 9.6875 1.746094 9.257812 1.746094 8.722656 C 1.746094 8.191406 2.175781 7.757812 2.710938 7.757812 C 3.242188 7.757812 3.675781 8.191406 3.675781 8.722656 Z M 3.675781 8.722656 "/>
<path style=" stroke:none;fill-rule:nonzero;fill:rgb(0%,0%,0%);fill-opacity:1;" d="M 5.726562 11.6875 C 5.726562 12.222656 5.296875 12.652344 4.761719 12.652344 C 4.230469 12.652344 3.796875 12.222656 3.796875 11.6875 C 3.796875 11.15625 4.230469 10.722656 4.761719 10.722656 C 5.296875 10.722656 5.726562 11.15625 5.726562 11.6875 Z M 5.726562 11.6875 "/>
</g>
</svg>
