<?xml version="1.0" encoding="UTF-8"?>
<svg xmlns="http://www.w3.org/2000/svg" xmlns:xlink="http://www.w3.org/1999/xlink" width="15pt" height="15pt" viewBox="0 0 15 15" version="1.1">
<g id="surface1">
<path style=" stroke:none;fill-rule:nonzero;fill:rgb(19.215686%,21.568627%,23.921569%);fill-opacity:1;" d="M 15 11.25 C 15 12.171875 14.253906 12.917969 13.332031 12.917969 L 1.667969 12.917969 C 0.746094 12.917969 0 12.171875 0 11.25 L 0 3.75 C 0 2.828125 0.746094 2.082031 1.667969 2.082031 L 13.332031 2.082031 C 14.253906 2.082031 15 2.828125 15 3.75 Z M 15 11.25 "/>
<path style=" stroke:none;fill-rule:nonzero;fill:rgb(80%,83.921569%,86.666667%);fill-opacity:1;" d="M 4.582031 10 C 4.582031 10.921875 4.253906 11.25 3.332031 11.25 L 1.667969 11.25 C 0.746094 11.25 0.417969 10.921875 0.417969 10 L 0.417969 5 C 0.417969 4.078125 0.746094 3.75 1.667969 3.75 L 3.332031 3.75 C 4.253906 3.75 4.582031 4.078125 4.582031 5 Z M 9.582031 10 C 9.582031 10.921875 9.253906 11.25 8.332031 11.25 L 6.667969 11.25 C 5.746094 11.25 5.417969 10.921875 5.417969 10 L 5.417969 5 C 5.417969 4.078125 5.746094 3.75 6.667969 3.75 L 8.332031 3.75 C 9.253906 3.75 9.582031 4.078125 9.582031 5 Z M 14.582031 10 C 14.582031 10.921875 14.253906 11.25 13.332031 11.25 L 11.667969 11.25 C 10.746094 11.25 10.417969 10.921875 10.417969 10 L 10.417969 5 C 10.417969 4.078125 10.746094 3.75 11.667969 3.75 L 13.332031 3.75 C 14.253906 3.75 14.582031 4.078125 14.582031 5 Z M 14.582031 10 "/>
<path style=" stroke:none;fill-rule:nonzero;fill:rgb(88.235294%,90.980392%,92.941176%);fill-opacity:1;" d="M 0.417969 5.417969 L 4.582031 5.417969 L 4.582031 9.582031 L 0.417969 9.582031 Z M 5.417969 5.417969 L 9.582031 5.417969 L 9.582031 9.582031 L 5.417969 9.582031 Z M 10.417969 5.417969 L 14.582031 5.417969 L 14.582031 9.582031 L 10.417969 9.582031 Z M 10.417969 5.417969 "/>
<path style=" stroke:none;fill-rule:nonzero;fill:rgb(74.509804%,9.803922%,19.215686%);fill-opacity:1;" d="M 12.832031 6.535156 L 11.65625 6.535156 C 11.410156 6.535156 11.320312 6.375 11.320312 6.21875 C 11.320312 6.058594 11.40625 5.902344 11.65625 5.902344 L 13.316406 5.902344 C 13.550781 5.902344 13.648438 6.113281 13.648438 6.234375 C 13.648438 6.324219 13.597656 6.421875 13.542969 6.535156 L 12.40625 8.847656 C 12.277344 9.101562 12.226562 9.195312 12.019531 9.195312 C 11.769531 9.195312 11.640625 9 11.640625 8.867188 C 11.640625 8.8125 11.652344 8.773438 11.683594 8.707031 Z M 7.832031 6.535156 L 6.65625 6.535156 C 6.410156 6.535156 6.320312 6.375 6.320312 6.21875 C 6.320312 6.058594 6.40625 5.902344 6.65625 5.902344 L 8.316406 5.902344 C 8.550781 5.902344 8.648438 6.113281 8.648438 6.234375 C 8.648438 6.324219 8.597656 6.421875 8.542969 6.535156 L 7.40625 8.847656 C 7.277344 9.101562 7.226562 9.195312 7.019531 9.195312 C 6.769531 9.195312 6.640625 9 6.640625 8.867188 C 6.640625 8.8125 6.652344 8.773438 6.683594 8.707031 Z M 2.832031 6.535156 L 1.65625 6.535156 C 1.410156 6.535156 1.320312 6.375 1.320312 6.21875 C 1.320312 6.058594 1.40625 5.902344 1.65625 5.902344 L 3.316406 5.902344 C 3.550781 5.902344 3.648438 6.113281 3.648438 6.234375 C 3.648438 6.324219 3.597656 6.421875 3.542969 6.535156 L 2.40625 8.847656 C 2.277344 9.101562 2.226562 9.195312 2.019531 9.195312 C 1.769531 9.195312 1.640625 9 1.640625 8.867188 C 1.640625 8.8125 1.652344 8.773438 1.683594 8.707031 Z M 2.832031 6.535156 "/>
<path style=" stroke:none;fill-rule:nonzero;fill:rgb(57.254902%,40%,80%);fill-opacity:1;" d="M 1.277344 3.75 C 1.257812 3.816406 1.25 3.886719 1.25 3.957031 C 1.25 4.535156 1.808594 5 2.5 5 C 3.191406 5 3.75 4.535156 3.75 3.957031 C 3.75 3.886719 3.742188 3.816406 3.722656 3.75 Z M 6.277344 3.75 C 6.257812 3.816406 6.25 3.886719 6.25 3.957031 C 6.25 4.535156 6.808594 5 7.5 5 C 8.191406 5 8.75 4.535156 8.75 3.957031 C 8.75 3.886719 8.742188 3.816406 8.726562 3.75 Z M 11.273438 3.75 C 11.257812 3.816406 11.25 3.886719 11.25 3.957031 C 11.25 4.535156 11.808594 5 12.5 5 C 13.191406 5 13.75 4.535156 13.75 3.957031 C 13.75 3.886719 13.742188 3.816406 13.722656 3.75 Z M 11.273438 3.75 "/>
<path style=" stroke:none;fill-rule:nonzero;fill:rgb(95.686275%,56.470588%,4.705882%);fill-opacity:1;" d="M 3.671875 11.25 C 3.71875 11.183594 3.75 11.113281 3.75 11.042969 C 3.75 10.695312 3.191406 10.417969 2.5 10.417969 C 1.808594 10.417969 1.25 10.695312 1.25 11.042969 C 1.25 11.113281 1.28125 11.183594 1.328125 11.25 Z M 8.671875 11.25 C 8.71875 11.183594 8.75 11.113281 8.75 11.042969 C 8.75 10.695312 8.191406 10.417969 7.5 10.417969 C 6.808594 10.417969 6.25 10.695312 6.25 11.042969 C 6.25 11.113281 6.28125 11.183594 6.328125 11.25 Z M 13.671875 11.25 C 13.71875 11.183594 13.75 11.113281 13.75 11.042969 C 13.75 10.695312 13.191406 10.417969 12.5 10.417969 C 11.808594 10.417969 11.25 10.695312 11.25 11.042969 C 11.25 11.113281 11.28125 11.183594 11.328125 11.25 Z M 13.671875 11.25 "/>
</g>
</svg>
