<?xml version="1.0" encoding="UTF-8"?>
<svg xmlns="http://www.w3.org/2000/svg" xmlns:xlink="http://www.w3.org/1999/xlink" width="15pt" height="15pt" viewBox="0 0 15 15" version="1.1">
<g id="surface1">
<path style=" stroke:none;fill-rule:nonzero;fill:rgb(48.627451%,32.54902%,24.313725%);fill-opacity:1;" d="M 6.625 14.53125 L 6.054688 14.53125 C 6.054688 14.53125 5.527344 13.136719 5.609375 12.140625 L 6.773438 12.371094 C 6.996094 13.023438 6.625 14.53125 6.625 14.53125 Z M 8.351562 14.53125 L 8.917969 14.53125 C 8.917969 14.53125 9.449219 13.136719 9.367188 12.140625 L 8.199219 12.371094 C 7.980469 13.023438 8.351562 14.53125 8.351562 14.53125 Z M 8.351562 14.53125 "/>
<path style=" stroke:none;fill-rule:nonzero;fill:rgb(98.039216%,45.490196%,24.313725%);fill-opacity:1;" d="M 5.746094 14.644531 C 5.789062 14.542969 5.878906 14.355469 5.890625 14.246094 C 5.898438 14.140625 5.902344 14.101562 5.988281 14.070312 C 6.132812 14.019531 6.585938 14.035156 6.664062 14.0625 C 6.742188 14.09375 6.742188 14.171875 6.753906 14.238281 C 6.765625 14.308594 6.800781 14.417969 6.847656 14.507812 C 6.898438 14.597656 7.019531 14.796875 6.957031 14.9375 C 6.933594 14.996094 6.789062 14.996094 6.332031 14.996094 C 5.871094 14.996094 5.738281 14.984375 5.707031 14.945312 C 5.675781 14.90625 5.703125 14.746094 5.746094 14.644531 Z M 9.226562 14.644531 C 9.1875 14.542969 9.097656 14.355469 9.085938 14.246094 C 9.078125 14.140625 9.070312 14.101562 8.984375 14.070312 C 8.839844 14.019531 8.386719 14.035156 8.308594 14.0625 C 8.230469 14.09375 8.230469 14.171875 8.21875 14.238281 C 8.207031 14.308594 8.171875 14.417969 8.125 14.507812 C 8.078125 14.597656 7.953125 14.796875 8.015625 14.9375 C 8.042969 14.996094 8.183594 14.996094 8.644531 14.996094 C 9.105469 14.996094 9.234375 14.984375 9.265625 14.945312 C 9.296875 14.90625 9.269531 14.746094 9.226562 14.644531 Z M 9.226562 14.644531 "/>
<path style=" stroke:none;fill-rule:nonzero;fill:rgb(48.627451%,32.54902%,24.313725%);fill-opacity:1;" d="M 3.601562 1.726562 C 3.605469 1.78125 3.964844 2.367188 4.152344 2.824219 C 4.34375 3.285156 4.449219 3.742188 4.546875 3.84375 C 4.746094 4.054688 5.421875 4.628906 5.847656 5.238281 C 6.273438 5.847656 6.148438 6.28125 5.871094 6.457031 C 5.503906 6.6875 5.121094 6.539062 4.855469 6.128906 C 4.667969 5.832031 4.042969 4.789062 3.714844 4.210938 C 3.589844 3.984375 3.382812 3.582031 3.207031 3.136719 C 3.042969 2.722656 3.023438 2.234375 3 2.175781 C 2.925781 1.996094 2.53125 1.765625 2.515625 1.589844 C 2.515625 1.589844 3.585938 1.546875 3.601562 1.726562 Z M 11.398438 1.726562 C 11.394531 1.78125 11.035156 2.367188 10.847656 2.824219 C 10.65625 3.285156 10.550781 3.742188 10.453125 3.84375 C 10.253906 4.054688 9.578125 4.628906 9.152344 5.238281 C 8.726562 5.847656 8.851562 6.28125 9.128906 6.457031 C 9.496094 6.6875 9.878906 6.539062 10.144531 6.128906 C 10.332031 5.832031 10.957031 4.789062 11.285156 4.210938 C 11.410156 3.984375 11.617188 3.582031 11.792969 3.136719 C 11.957031 2.722656 11.976562 2.234375 12 2.175781 C 12.074219 1.996094 12.46875 1.769531 12.484375 1.589844 C 12.484375 1.589844 11.414062 1.546875 11.398438 1.726562 Z M 11.398438 1.726562 "/>
<path style=" stroke:none;fill-rule:nonzero;fill:rgb(60%,66.666667%,70.980392%);fill-opacity:1;" d="M 15 1.457031 C 15 1.574219 14.90625 1.667969 14.792969 1.667969 L 0.207031 1.667969 C 0.09375 1.667969 0 1.574219 0 1.457031 C 0 1.34375 0.09375 1.25 0.207031 1.25 L 14.792969 1.25 C 14.90625 1.25 15 1.34375 15 1.457031 Z M 15 1.457031 "/>
<path style=" stroke:none;fill-rule:nonzero;fill:rgb(16.078431%,18.431373%,20%);fill-opacity:1;" d="M 14.167969 0 C 13.9375 0 13.75 0.1875 13.75 0.417969 C 13.75 0.1875 13.5625 0 13.332031 0 C 13.101562 0 12.917969 0.1875 12.917969 0.417969 L 12.917969 2.5 C 12.917969 2.730469 13.101562 2.917969 13.332031 2.917969 C 13.5625 2.917969 13.75 2.730469 13.75 2.5 C 13.75 2.730469 13.9375 2.917969 14.167969 2.917969 C 14.398438 2.917969 14.582031 2.730469 14.582031 2.5 L 14.582031 0.417969 C 14.582031 0.1875 14.398438 0 14.167969 0 Z M 1.667969 0 C 1.4375 0 1.25 0.1875 1.25 0.417969 C 1.25 0.1875 1.0625 0 0.832031 0 C 0.601562 0 0.417969 0.1875 0.417969 0.417969 L 0.417969 2.5 C 0.417969 2.730469 0.601562 2.917969 0.832031 2.917969 C 1.0625 2.917969 1.25 2.730469 1.25 2.5 C 1.25 2.730469 1.4375 2.917969 1.667969 2.917969 C 1.898438 2.917969 2.082031 2.730469 2.082031 2.5 L 2.082031 0.417969 C 2.082031 0.1875 1.898438 0 1.667969 0 Z M 1.667969 0 "/>
<path style=" stroke:none;fill-rule:nonzero;fill:rgb(98.039216%,45.490196%,24.313725%);fill-opacity:1;" d="M 9.238281 5.121094 C 8.929688 5.292969 8.703125 5.644531 8.617188 5.792969 C 8.339844 5.839844 8.136719 5.917969 8.136719 5.917969 L 6.863281 5.917969 C 6.863281 5.917969 6.660156 5.839844 6.382812 5.792969 C 6.296875 5.644531 6.070312 5.292969 5.761719 5.121094 C 5.761719 5.121094 4.878906 5.507812 4.617188 5.753906 C 4.703125 5.976562 4.820312 6.1875 4.914062 6.34375 C 5.082031 6.796875 5.542969 7.394531 5.59375 7.5 C 5.753906 7.824219 5.902344 9.375 5.902344 9.375 L 7.5 10 L 9.097656 9.375 C 9.097656 9.375 9.246094 7.824219 9.40625 7.5 C 9.457031 7.394531 9.917969 6.796875 10.085938 6.34375 C 10.175781 6.1875 10.296875 5.976562 10.382812 5.753906 C 10.121094 5.507812 9.238281 5.121094 9.238281 5.121094 Z M 9.238281 5.121094 "/>
<path style=" stroke:none;fill-rule:nonzero;fill:rgb(48.627451%,32.54902%,24.313725%);fill-opacity:1;" d="M 11.289062 1.816406 C 11.152344 1.753906 11.089844 1.640625 11.132812 1.519531 L 11.132812 1.515625 C 11.175781 1.394531 11.253906 1.371094 11.441406 1.371094 C 11.441406 1.371094 12.074219 1.40625 12.457031 1.667969 C 12.457031 1.667969 12.265625 1.796875 12.164062 1.902344 L 12.164062 1.90625 C 12.089844 2.132812 11.375 1.859375 11.289062 1.816406 Z M 11.289062 1.816406 "/>
<path style=" stroke:none;fill-rule:nonzero;fill:rgb(48.627451%,32.54902%,24.313725%);fill-opacity:1;" d="M 11.601562 1.445312 C 11.542969 1.433594 11.507812 1.375 11.523438 1.316406 L 11.558594 1.167969 C 11.574219 1.109375 11.632812 1.074219 11.6875 1.089844 C 11.746094 1.101562 11.78125 1.160156 11.765625 1.21875 L 11.730469 1.367188 C 11.714844 1.425781 11.660156 1.460938 11.601562 1.445312 Z M 11.414062 1.082031 C 11.347656 1.058594 11.273438 1.097656 11.25 1.164062 L 11.132812 1.515625 C 11.109375 1.582031 11.203125 1.484375 11.273438 1.507812 C 11.339844 1.53125 11.414062 1.496094 11.4375 1.425781 L 11.496094 1.25 C 11.519531 1.179688 11.484375 1.105469 11.414062 1.082031 Z M 11.414062 1.082031 "/>
<path style=" stroke:none;fill-rule:nonzero;fill:rgb(48.627451%,32.54902%,24.313725%);fill-opacity:1;" d="M 11.828125 1.417969 C 11.769531 1.402344 11.734375 1.34375 11.75 1.285156 L 11.78125 1.148438 C 11.796875 1.089844 11.855469 1.054688 11.910156 1.070312 C 11.96875 1.082031 12.003906 1.140625 11.988281 1.199219 L 11.957031 1.339844 C 11.941406 1.394531 11.882812 1.429688 11.828125 1.417969 Z M 11.828125 1.417969 "/>
<path style=" stroke:none;fill-rule:nonzero;fill:rgb(48.627451%,32.54902%,24.313725%);fill-opacity:1;" d="M 12.042969 1.425781 C 11.984375 1.414062 11.949219 1.355469 11.964844 1.296875 L 11.992188 1.183594 C 12.003906 1.125 12.0625 1.089844 12.121094 1.105469 C 12.179688 1.117188 12.214844 1.175781 12.199219 1.234375 L 12.171875 1.347656 C 12.15625 1.40625 12.097656 1.441406 12.042969 1.425781 Z M 12.042969 1.425781 "/>
<path style=" stroke:none;fill-rule:nonzero;fill:rgb(48.627451%,32.54902%,24.313725%);fill-opacity:1;" d="M 12.257812 1.4375 C 12.199219 1.421875 12.164062 1.363281 12.179688 1.308594 L 12.195312 1.238281 C 12.210938 1.183594 12.269531 1.148438 12.324219 1.160156 C 12.382812 1.175781 12.417969 1.234375 12.402344 1.289062 L 12.386719 1.359375 C 12.371094 1.414062 12.316406 1.449219 12.257812 1.4375 Z M 12.257812 1.4375 "/>
<path style=" stroke:none;fill-rule:nonzero;fill:rgb(48.627451%,32.54902%,24.313725%);fill-opacity:1;" d="M 3.710938 1.816406 C 3.847656 1.753906 3.910156 1.640625 3.867188 1.519531 L 3.867188 1.515625 C 3.824219 1.394531 3.746094 1.371094 3.558594 1.371094 C 3.558594 1.371094 2.925781 1.40625 2.542969 1.667969 C 2.542969 1.667969 2.730469 1.800781 2.835938 1.90625 C 2.875 2.027344 3.402344 1.964844 3.710938 1.816406 Z M 3.710938 1.816406 "/>
<path style=" stroke:none;fill-rule:nonzero;fill:rgb(48.627451%,32.54902%,24.313725%);fill-opacity:1;" d="M 3.398438 1.445312 C 3.457031 1.433594 3.492188 1.375 3.476562 1.316406 L 3.441406 1.167969 C 3.425781 1.109375 3.367188 1.074219 3.3125 1.089844 C 3.253906 1.105469 3.21875 1.160156 3.234375 1.21875 L 3.269531 1.367188 C 3.285156 1.425781 3.339844 1.460938 3.398438 1.445312 Z M 3.585938 1.082031 C 3.652344 1.058594 3.726562 1.097656 3.75 1.164062 L 3.867188 1.515625 C 3.890625 1.582031 3.796875 1.484375 3.726562 1.507812 C 3.660156 1.53125 3.585938 1.496094 3.5625 1.425781 L 3.503906 1.25 C 3.480469 1.179688 3.515625 1.105469 3.585938 1.082031 Z M 3.585938 1.082031 "/>
<path style=" stroke:none;fill-rule:nonzero;fill:rgb(48.627451%,32.54902%,24.313725%);fill-opacity:1;" d="M 3.171875 1.417969 C 3.230469 1.402344 3.265625 1.34375 3.25 1.285156 L 3.21875 1.148438 C 3.203125 1.089844 3.144531 1.054688 3.089844 1.070312 C 3.03125 1.082031 2.996094 1.140625 3.011719 1.199219 L 3.042969 1.339844 C 3.058594 1.394531 3.117188 1.429688 3.171875 1.417969 Z M 3.171875 1.417969 "/>
<path style=" stroke:none;fill-rule:nonzero;fill:rgb(48.627451%,32.54902%,24.313725%);fill-opacity:1;" d="M 2.957031 1.425781 C 3.015625 1.414062 3.050781 1.355469 3.035156 1.296875 L 3.007812 1.183594 C 2.996094 1.125 2.9375 1.089844 2.878906 1.105469 C 2.824219 1.117188 2.789062 1.175781 2.800781 1.234375 L 2.828125 1.347656 C 2.84375 1.40625 2.902344 1.441406 2.957031 1.425781 Z M 2.957031 1.425781 "/>
<path style=" stroke:none;fill-rule:nonzero;fill:rgb(48.627451%,32.54902%,24.313725%);fill-opacity:1;" d="M 2.742188 1.4375 C 2.800781 1.421875 2.835938 1.363281 2.820312 1.308594 L 2.804688 1.238281 C 2.789062 1.183594 2.730469 1.148438 2.675781 1.160156 C 2.617188 1.175781 2.582031 1.234375 2.597656 1.289062 L 2.613281 1.359375 C 2.628906 1.414062 2.683594 1.449219 2.742188 1.4375 Z M 2.742188 1.4375 "/>
<path style=" stroke:none;fill-rule:nonzero;fill:rgb(86.666667%,33.333333%,12.156863%);fill-opacity:1;" d="M 9.101562 10.207031 L 7.5 9.582031 L 5.898438 10.207031 C 5.898438 10.207031 5.558594 11.007812 5.5 12.371094 L 6.773438 12.371094 C 7.140625 11.960938 7.273438 10.867188 7.273438 10.867188 L 7.726562 10.867188 C 7.726562 10.867188 7.859375 11.960938 8.226562 12.371094 L 9.5 12.371094 C 9.441406 11.007812 9.101562 10.207031 9.101562 10.207031 Z M 9.101562 10.207031 "/>
<path style=" stroke:none;fill-rule:nonzero;fill:rgb(75.686275%,41.176471%,30.980392%);fill-opacity:1;" d="M 5.890625 9.375 L 9.109375 9.375 L 9.109375 10.207031 L 5.890625 10.207031 Z M 5.890625 9.375 "/>
<path style=" stroke:none;fill-rule:nonzero;fill:rgb(7.843137%,9.019608%,10.196078%);fill-opacity:1;" d="M 7.917969 9.332031 L 8.1875 9.332031 L 8.1875 10.253906 L 7.917969 10.253906 Z M 7.917969 9.332031 "/>
<path style=" stroke:none;fill-rule:nonzero;fill:rgb(7.843137%,9.019608%,10.196078%);fill-opacity:1;" d="M 7.777344 9.773438 C 7.777344 9.8125 7.746094 9.84375 7.707031 9.84375 C 7.667969 9.84375 7.640625 9.8125 7.640625 9.773438 C 7.640625 9.734375 7.667969 9.703125 7.707031 9.703125 C 7.746094 9.703125 7.777344 9.734375 7.777344 9.773438 Z M 7.777344 9.773438 "/>
<path style=" stroke:none;fill-rule:nonzero;fill:rgb(7.843137%,9.019608%,10.196078%);fill-opacity:1;" d="M 7.507812 9.773438 C 7.507812 9.8125 7.476562 9.84375 7.4375 9.84375 C 7.402344 9.84375 7.371094 9.8125 7.371094 9.773438 C 7.371094 9.734375 7.402344 9.703125 7.4375 9.703125 C 7.476562 9.703125 7.507812 9.734375 7.507812 9.773438 Z M 7.507812 9.773438 "/>
<path style=" stroke:none;fill-rule:nonzero;fill:rgb(7.843137%,9.019608%,10.196078%);fill-opacity:1;" d="M 7.238281 9.773438 C 7.238281 9.8125 7.207031 9.84375 7.171875 9.84375 C 7.132812 9.84375 7.101562 9.8125 7.101562 9.773438 C 7.101562 9.734375 7.132812 9.703125 7.171875 9.703125 C 7.207031 9.703125 7.238281 9.734375 7.238281 9.773438 Z M 7.238281 9.773438 "/>
<path style=" stroke:none;fill-rule:nonzero;fill:rgb(7.843137%,9.019608%,10.196078%);fill-opacity:1;" d="M 6.96875 9.773438 C 6.96875 9.8125 6.9375 9.84375 6.902344 9.84375 C 6.863281 9.84375 6.832031 9.8125 6.832031 9.773438 C 6.832031 9.734375 6.863281 9.703125 6.902344 9.703125 C 6.9375 9.703125 6.96875 9.734375 6.96875 9.773438 Z M 6.96875 9.773438 "/>
<path style=" stroke:none;fill-rule:nonzero;fill:rgb(7.843137%,9.019608%,10.196078%);fill-opacity:1;" d="M 6.703125 9.773438 C 6.703125 9.8125 6.671875 9.84375 6.632812 9.84375 C 6.59375 9.84375 6.5625 9.8125 6.5625 9.773438 C 6.5625 9.734375 6.59375 9.703125 6.632812 9.703125 C 6.671875 9.703125 6.703125 9.734375 6.703125 9.773438 Z M 6.703125 9.773438 "/>
<path style=" stroke:none;fill-rule:nonzero;fill:rgb(7.843137%,9.019608%,10.196078%);fill-opacity:1;" d="M 6.433594 9.773438 C 6.433594 9.8125 6.402344 9.84375 6.363281 9.84375 C 6.324219 9.84375 6.292969 9.8125 6.292969 9.773438 C 6.292969 9.734375 6.324219 9.703125 6.363281 9.703125 C 6.402344 9.703125 6.433594 9.734375 6.433594 9.773438 Z M 6.433594 9.773438 "/>
<path style=" stroke:none;fill-rule:nonzero;fill:rgb(7.843137%,9.019608%,10.196078%);fill-opacity:1;" d="M 6.164062 9.773438 C 6.164062 9.8125 6.132812 9.84375 6.09375 9.84375 C 6.054688 9.84375 6.023438 9.8125 6.023438 9.773438 C 6.023438 9.734375 6.054688 9.703125 6.09375 9.703125 C 6.132812 9.703125 6.164062 9.734375 6.164062 9.773438 Z M 6.164062 9.773438 "/>
<path style=" stroke:none;fill-rule:nonzero;fill:rgb(7.843137%,9.019608%,10.196078%);fill-opacity:1;" d="M 7.238281 9.773438 C 7.238281 9.8125 7.207031 9.84375 7.171875 9.84375 C 7.132812 9.84375 7.101562 9.8125 7.101562 9.773438 C 7.101562 9.734375 7.132812 9.703125 7.171875 9.703125 C 7.207031 9.703125 7.238281 9.734375 7.238281 9.773438 Z M 7.238281 9.773438 "/>
<path style=" stroke:none;fill-rule:nonzero;fill:rgb(39.607843%,46.666667%,52.54902%);fill-opacity:1;" d="M 6.957031 9.773438 C 6.957031 9.808594 6.929688 9.835938 6.898438 9.835938 C 6.863281 9.835938 6.835938 9.808594 6.835938 9.773438 C 6.835938 9.738281 6.863281 9.710938 6.898438 9.710938 C 6.929688 9.710938 6.957031 9.738281 6.957031 9.773438 Z M 6.957031 9.773438 "/>
<path style=" stroke:none;fill-rule:nonzero;fill:rgb(39.607843%,46.666667%,52.54902%);fill-opacity:1;" d="M 6.800781 9.710938 L 6.898438 9.710938 L 6.898438 9.835938 L 6.800781 9.835938 Z M 6.800781 9.710938 "/>
<path style=" stroke:none;fill-rule:nonzero;fill:rgb(39.607843%,46.666667%,52.54902%);fill-opacity:1;" d="M 6.96875 10.351562 L 6.65625 10.351562 L 6.65625 9.230469 L 6.96875 9.230469 L 6.96875 9.375 L 6.800781 9.375 L 6.800781 10.207031 L 6.96875 10.207031 Z M 6.96875 10.351562 "/>
<path style=" stroke:none;fill-rule:nonzero;fill:rgb(4.313725%,0.784314%,0%);fill-opacity:1;" d="M 8.164062 1.601562 C 7.820312 1.488281 7.015625 1.519531 6.8125 1.78125 C 6.289062 1.792969 5.671875 2.265625 5.59375 2.890625 C 5.511719 3.507812 5.691406 3.796875 5.753906 4.261719 C 5.824219 4.789062 6.121094 4.957031 6.359375 5.027344 C 6.699219 5.476562 7.0625 5.457031 7.667969 5.457031 C 8.859375 5.457031 9.421875 4.664062 9.472656 3.3125 C 9.503906 2.496094 9.023438 1.878906 8.164062 1.601562 Z M 8.164062 1.601562 "/>
<path style=" stroke:none;fill-rule:nonzero;fill:rgb(48.627451%,32.54902%,24.313725%);fill-opacity:1;" d="M 6.992188 5.121094 L 6.992188 6.136719 C 6.992188 6.417969 7.21875 6.648438 7.5 6.648438 C 7.78125 6.648438 8.007812 6.417969 8.007812 6.136719 L 8.007812 5.121094 Z M 6.992188 5.121094 "/>
<path style=" stroke:none;fill-rule:nonzero;fill:rgb(48.627451%,32.54902%,24.313725%);fill-opacity:1;" d="M 8.84375 3.371094 C 8.726562 3.210938 8.578125 3.082031 8.257812 3.039062 C 8.378906 3.09375 8.496094 3.285156 8.507812 3.390625 C 8.523438 3.496094 8.539062 3.582031 8.445312 3.476562 C 8.058594 3.054688 7.640625 3.21875 7.230469 2.960938 C 6.941406 2.78125 6.851562 2.578125 6.851562 2.578125 C 6.851562 2.578125 6.816406 2.847656 6.378906 3.121094 C 6.25 3.199219 6.097656 3.375 6.015625 3.632812 C 5.953125 3.820312 5.972656 3.984375 5.972656 4.269531 C 5.972656 5.101562 6.65625 5.796875 7.5 5.796875 C 8.34375 5.796875 9.027344 5.09375 9.027344 4.269531 C 9.027344 3.753906 8.972656 3.554688 8.84375 3.371094 Z M 8.84375 3.371094 "/>
<path style=" stroke:none;fill-rule:nonzero;fill:rgb(23.921569%,18.039216%,14.117647%);fill-opacity:1;" d="M 8.179688 5.121094 L 6.820312 5.121094 C 6.820312 5.121094 6.992188 5.457031 7.5 5.457031 C 8.007812 5.457031 8.179688 5.121094 8.179688 5.121094 Z M 7.667969 4.695312 L 7.328125 4.695312 C 7.28125 4.695312 7.246094 4.65625 7.246094 4.609375 C 7.246094 4.5625 7.28125 4.523438 7.328125 4.523438 L 7.667969 4.523438 C 7.714844 4.523438 7.753906 4.5625 7.753906 4.609375 C 7.753906 4.65625 7.714844 4.695312 7.667969 4.695312 Z M 7.667969 4.695312 "/>
<path style=" stroke:none;fill-rule:nonzero;fill:rgb(0%,0%,0%);fill-opacity:1;" d="M 6.820312 4.101562 C 6.726562 4.101562 6.652344 4.023438 6.652344 3.929688 L 6.652344 3.761719 C 6.652344 3.667969 6.726562 3.589844 6.820312 3.589844 C 6.914062 3.589844 6.992188 3.667969 6.992188 3.761719 L 6.992188 3.929688 C 6.992188 4.023438 6.914062 4.101562 6.820312 4.101562 Z M 8.179688 4.101562 C 8.085938 4.101562 8.007812 4.023438 8.007812 3.929688 L 8.007812 3.761719 C 8.007812 3.667969 8.085938 3.589844 8.179688 3.589844 C 8.273438 3.589844 8.347656 3.667969 8.347656 3.761719 L 8.347656 3.929688 C 8.347656 4.023438 8.273438 4.101562 8.179688 4.101562 Z M 8.179688 4.101562 "/>
</g>
</svg>
