<?xml version="1.0" encoding="UTF-8"?>
<svg xmlns="http://www.w3.org/2000/svg" xmlns:xlink="http://www.w3.org/1999/xlink" width="15pt" height="15pt" viewBox="0 0 15 15" version="1.1">
<g id="surface1">
<path style=" stroke:none;fill-rule:nonzero;fill:rgb(10.980392%,38.823529%,60%);fill-opacity:1;" d="M 10.179688 5.265625 C 10.398438 5.203125 10.773438 5.164062 11.066406 5.179688 C 11.339844 5.195312 11.683594 5.425781 11.742188 5.613281 C 11.804688 5.800781 11.78125 6.058594 11.632812 6.105469 C 11.480469 6.148438 11.253906 6 10.96875 6.054688 C 10.683594 6.105469 10.710938 6.238281 10.714844 6.359375 C 10.726562 6.757812 10.5 6.71875 10.464844 6.664062 C 10.378906 6.546875 10.230469 6.382812 10.058594 6.226562 C 9.886719 6.066406 10.042969 5.304688 10.179688 5.265625 Z M 10.179688 5.265625 "/>
<path style=" stroke:none;fill-rule:nonzero;fill:rgb(88.235294%,90.980392%,92.941176%);fill-opacity:1;" d="M 15 6.667969 L 15 13.332031 C 15 13.332031 15 15 13.332031 15 L 1.667969 15 C 0 15 0 13.332031 0 13.332031 L 0 12.5 C 0 12.5 7.082031 8.332031 15 6.667969 Z M 15 6.667969 "/>
<path style=" stroke:none;fill-rule:nonzero;fill:rgb(91.764706%,34.901961%,43.137255%);fill-opacity:1;" d="M 13.671875 8.742188 C 13.867188 9.160156 13.683594 9.652344 13.265625 9.847656 L 3.425781 14.378906 C 3.007812 14.570312 2.511719 14.390625 2.320312 13.972656 L 1.972656 13.214844 C 1.777344 12.796875 1.960938 12.300781 2.378906 12.109375 L 12.21875 7.578125 C 12.636719 7.382812 13.132812 7.566406 13.324219 7.984375 Z M 13.671875 8.742188 "/>
<path style=" stroke:none;fill-rule:nonzero;fill:rgb(10.980392%,38.823529%,60%);fill-opacity:1;" d="M 5.625 10.597656 C 5.289062 10.976562 5.378906 11.277344 5.390625 11.417969 C 5.402344 11.5625 6.355469 12.410156 6.511719 12.460938 C 7.015625 12.621094 7.679688 12.238281 7.679688 11.964844 C 7.679688 11.769531 7.589844 11.574219 7.371094 11.289062 C 7.148438 11.003906 7.003906 10.574219 6.914062 10.429688 C 6.824219 10.285156 5.832031 10.363281 5.625 10.597656 Z M 9.078125 9.128906 C 8.808594 9.542969 8.933594 9.832031 8.964844 9.972656 C 8.996094 10.109375 10.023438 10.824219 10.183594 10.855469 C 10.6875 10.949219 11.277344 10.480469 11.238281 10.210938 C 11.210938 10.015625 11.238281 9.933594 10.984375 9.679688 C 10.734375 9.425781 10.226562 9.085938 10.117188 8.957031 C 10.011719 8.824219 9.246094 8.867188 9.078125 9.128906 Z M 9.078125 9.128906 "/>
<path style=" stroke:none;fill-rule:nonzero;fill:rgb(40.392157%,45.882353%,49.803922%);fill-opacity:1;" d="M 10.304688 9.035156 C 10.207031 8.609375 9.84375 7.585938 9.695312 7.191406 C 9.632812 7.027344 9.441406 6.8125 9.230469 6.726562 L 7.144531 5.894531 C 6.808594 5.757812 4.636719 6.703125 4.871094 7.097656 C 4.871094 7.097656 4.878906 7.890625 5.957031 8.902344 C 5.738281 9.515625 5.601562 10.671875 5.601562 10.671875 C 5.546875 11.121094 7.238281 11.085938 7.292969 10.714844 C 7.347656 10.347656 7.425781 9.664062 7.683594 9.035156 C 7.730469 8.921875 7.75 8.636719 7.683594 8.421875 C 7.613281 8.203125 7.179688 7.703125 7.179688 7.703125 C 7.179688 7.703125 7.808594 8.078125 8.277344 8.140625 C 8.332031 8.566406 8.789062 9.101562 8.882812 9.578125 C 8.976562 10.03125 10.457031 9.71875 10.304688 9.035156 Z M 10.304688 9.035156 "/>
<path style=" stroke:none;fill-rule:nonzero;fill:rgb(73.333333%,86.666667%,96.078431%);fill-opacity:1;" d="M 10.171875 5 C 9.992188 4.96875 9.375 4.753906 9.210938 4.617188 C 9.046875 4.480469 8.546875 3.941406 8.335938 3.664062 C 8.183594 3.464844 7.921875 3.332031 7.671875 3.332031 C 7.671875 3.332031 5.417969 3.339844 5 3.339844 C 3.996094 3.339844 2.863281 4.375 2.671875 4.710938 C 2.4375 5.121094 2.109375 6.46875 2.460938 7.707031 C 2.5 7.847656 3.933594 7.5 3.878906 7.238281 C 3.757812 6.667969 3.742188 5.953125 3.824219 5.761719 C 3.910156 5.574219 4.101562 5.429688 4.375 5.304688 L 4.375 7.5 C 4.375 7.566406 4.410156 7.632812 4.464844 7.671875 C 4.5 7.695312 4.542969 7.707031 4.582031 7.707031 C 4.609375 7.707031 4.632812 7.703125 4.65625 7.695312 L 7.988281 6.445312 C 8.070312 6.414062 8.125 6.335938 8.125 6.25 L 8.125 5.8125 C 8.371094 6.011719 8.789062 6.269531 8.886719 6.316406 C 8.984375 6.363281 9.585938 6.65625 10.015625 6.65625 C 10.246094 6.65625 10.625 5.078125 10.171875 5 Z M 10.171875 5 "/>
<path style=" stroke:none;fill-rule:nonzero;fill:rgb(10.980392%,38.823529%,60%);fill-opacity:1;" d="M 13.113281 1.601562 L 12.699219 0.351562 C 12.667969 0.265625 12.589844 0.207031 12.5 0.207031 C 12.445312 0.207031 11.160156 0.222656 9.457031 1.5 C 7.847656 2.707031 7.476562 2.707031 6.667969 2.707031 L 5.417969 2.707031 C 5.359375 2.707031 5.308594 2.730469 5.269531 2.769531 C 5.050781 2.988281 4.992188 3.296875 5.113281 3.59375 C 5.269531 3.972656 5.761719 4.375 6.667969 4.375 C 7.265625 4.375 8.136719 3.894531 9.148438 3.335938 C 10.390625 2.652344 11.796875 1.875 12.917969 1.875 C 12.984375 1.875 13.046875 1.84375 13.085938 1.789062 C 13.125 1.734375 13.136719 1.664062 13.113281 1.601562 Z M 13.113281 1.601562 "/>
<path style=" stroke:none;fill-rule:nonzero;fill:rgb(48.627451%,32.54902%,24.313725%);fill-opacity:1;" d="M 7.671875 1.667969 C 7.671875 2.585938 6.921875 3.332031 6.003906 3.332031 C 5.082031 3.332031 4.335938 2.585938 4.335938 1.667969 C 4.335938 0.746094 5.082031 0.417969 6.003906 0.417969 C 6.921875 0.417969 7.671875 0.746094 7.671875 1.667969 Z M 7.671875 1.667969 "/>
<path style=" stroke:none;fill-rule:nonzero;fill:rgb(60.392157%,66.666667%,70.588235%);fill-opacity:1;" d="M 5 1.667969 C 5.832031 1.667969 6.667969 1.25 6.667969 1.667969 C 6.667969 2.082031 6.667969 2.917969 7.5 2.917969 C 8.332031 2.917969 8.75 0 6.25 0 C 3.75 0 3.75 1.667969 5 1.667969 Z M 5 1.667969 "/>
<path style=" stroke:none;fill-rule:nonzero;fill:rgb(40.392157%,45.882353%,49.803922%);fill-opacity:1;" d="M 5.625 1.875 C 5.625 2.335938 5.25 2.707031 4.792969 2.707031 C 4.332031 2.707031 3.957031 2.335938 3.957031 1.875 C 3.957031 1.414062 4.332031 1.042969 4.792969 1.042969 C 5.25 1.042969 5.625 1.414062 5.625 1.875 Z M 5.625 1.875 "/>
<path style=" stroke:none;fill-rule:nonzero;fill:rgb(74.117647%,86.666667%,95.686275%);fill-opacity:1;" d="M 5.207031 1.875 C 5.207031 2.105469 5.023438 2.292969 4.792969 2.292969 C 4.5625 2.292969 4.375 2.105469 4.375 1.875 C 4.375 1.644531 4.5625 1.457031 4.792969 1.457031 C 5.023438 1.457031 5.207031 1.644531 5.207031 1.875 Z M 5.207031 1.875 "/>
<path style=" stroke:none;fill-rule:nonzero;fill:rgb(40.392157%,45.882353%,49.803922%);fill-opacity:1;" d="M 6.875 1.875 C 6.875 2.335938 6.5 2.707031 6.042969 2.707031 C 5.582031 2.707031 5.207031 2.335938 5.207031 1.875 C 5.207031 1.414062 5.582031 1.042969 6.042969 1.042969 C 6.5 1.042969 6.875 1.414062 6.875 1.875 Z M 6.875 1.875 "/>
<path style=" stroke:none;fill-rule:nonzero;fill:rgb(74.117647%,86.666667%,95.686275%);fill-opacity:1;" d="M 6.457031 1.875 C 6.457031 2.105469 6.273438 2.292969 6.042969 2.292969 C 5.8125 2.292969 5.625 2.105469 5.625 1.875 C 5.625 1.644531 5.8125 1.457031 6.042969 1.457031 C 6.273438 1.457031 6.457031 1.644531 6.457031 1.875 Z M 6.457031 1.875 "/>
<path style=" stroke:none;fill-rule:nonzero;fill:rgb(10.980392%,38.823529%,60%);fill-opacity:1;" d="M 2.695312 7.417969 C 2.3125 7.746094 2.351562 8.09375 2.488281 8.332031 C 2.625 8.574219 2.726562 8.640625 2.984375 8.609375 C 3.230469 8.582031 3.53125 8.296875 3.703125 8.109375 C 3.941406 7.847656 3.769531 7.46875 3.769531 7.46875 C 3.769531 7.46875 3.917969 7.429688 4.035156 7.351562 C 4.183594 7.257812 4.203125 6.878906 4.0625 6.941406 C 3.628906 7.125 3.125 7.046875 2.695312 7.417969 Z M 2.695312 7.417969 "/>
<path style=" stroke:none;fill-rule:nonzero;fill:rgb(33.333333%,67.45098%,93.333333%);fill-opacity:1;" d="M 6.257812 11.660156 C 6.140625 11.566406 6.308594 11.308594 6.707031 11.144531 C 7.078125 10.992188 7.234375 11.167969 7.230469 11.214844 C 7.226562 11.257812 7.054688 11.113281 6.765625 11.292969 C 6.480469 11.46875 6.386719 11.761719 6.257812 11.660156 Z M 6.488281 11.957031 C 6.371094 11.863281 6.539062 11.605469 6.9375 11.441406 C 7.308594 11.289062 7.464844 11.46875 7.460938 11.515625 C 7.457031 11.558594 7.285156 11.414062 6.996094 11.589844 C 6.710938 11.765625 6.613281 12.058594 6.488281 11.957031 Z M 9.8125 10.128906 C 9.691406 10.046875 9.828125 9.777344 10.210938 9.574219 C 10.5625 9.386719 10.738281 9.546875 10.738281 9.59375 C 10.738281 9.636719 10.554688 9.507812 10.285156 9.714844 C 10.015625 9.917969 9.949219 10.21875 9.8125 10.128906 Z M 10.074219 10.402344 C 9.949219 10.324219 10.089844 10.050781 10.46875 9.847656 C 10.824219 9.660156 10.996094 9.820312 10.996094 9.867188 C 11 9.910156 10.8125 9.785156 10.542969 9.988281 C 10.277344 10.191406 10.210938 10.492188 10.074219 10.402344 Z M 10.074219 10.402344 "/>
</g>
</svg>
