<?xml version="1.0" encoding="UTF-8"?>
<svg xmlns="http://www.w3.org/2000/svg" xmlns:xlink="http://www.w3.org/1999/xlink" width="15pt" height="15pt" viewBox="0 0 15 15" version="1.1">
<g id="surface1">
<path style=" stroke:none;fill-rule:nonzero;fill:rgb(83.137255%,67.058824%,53.333333%);fill-opacity:1;" d="M 6.285156 10.355469 L 5.566406 8.859375 C 5.386719 8.957031 4.625 9.382812 4.171875 9.792969 C 3.90625 10.03125 3.941406 10.210938 4.019531 10.601562 L 4.027344 10.636719 C 4.105469 11.035156 4.945312 13.699219 5.058594 14.046875 L 5.617188 13.910156 C 5.621094 13.722656 5.640625 12.757812 5.542969 12.144531 C 5.511719 11.953125 5.484375 11.71875 5.453125 11.511719 C 5.425781 11.285156 5.398438 11.089844 5.378906 10.992188 C 5.351562 10.851562 5.394531 10.769531 5.519531 10.710938 C 5.878906 10.535156 6.179688 10.402344 6.285156 10.355469 Z M 9.921875 11.113281 C 9.691406 11.085938 9.496094 11.0625 9.394531 11.054688 C 9.253906 11.046875 9.1875 10.984375 9.160156 10.847656 C 9.078125 10.457031 9.027344 10.132812 9.011719 10.019531 L 7.378906 10.335938 C 7.429688 10.535156 7.648438 11.378906 7.929688 11.921875 C 8.09375 12.238281 8.277344 12.25 8.675781 12.273438 L 8.714844 12.273438 C 9.121094 12.296875 11.910156 12.15625 12.273438 12.136719 L 12.28125 11.558594 C 12.101562 11.507812 11.171875 11.246094 10.554688 11.1875 C 10.359375 11.167969 10.125 11.140625 9.921875 11.113281 Z M 9.921875 11.113281 "/>
<path style=" stroke:none;fill-rule:nonzero;fill:rgb(53.333333%,60%,65.098039%);fill-opacity:1;" d="M 11.585938 12.367188 L 11.511719 12.230469 C 11.503906 12.207031 11.511719 12.183594 11.535156 12.175781 C 11.605469 12.152344 11.75 12.085938 11.800781 12.058594 C 11.757812 12.160156 11.707031 12.320312 11.652344 12.367188 C 11.628906 12.386719 11.597656 12.394531 11.585938 12.367188 Z M 11.585938 12.367188 "/>
<path style=" stroke:none;fill-rule:nonzero;fill:rgb(10.980392%,38.823529%,60%);fill-opacity:1;" d="M 12.664062 11.308594 C 12.609375 11.261719 12.476562 11.238281 12.390625 11.230469 C 12.335938 11.226562 12.183594 11.21875 12.058594 11.226562 C 12.003906 11.230469 11.9375 11.238281 11.910156 11.246094 C 11.828125 11.269531 11.792969 11.304688 11.773438 11.328125 C 11.75 11.355469 11.746094 11.386719 11.753906 11.402344 C 11.773438 11.464844 11.878906 11.578125 11.925781 11.683594 C 11.941406 11.71875 11.949219 11.75 11.945312 11.785156 C 11.933594 11.898438 11.789062 12.066406 11.679688 12.191406 C 11.613281 12.265625 11.558594 12.324219 11.558594 12.347656 C 11.554688 12.371094 11.5625 12.390625 11.574219 12.410156 L 11.574219 12.414062 C 11.601562 12.46875 11.667969 12.523438 11.714844 12.675781 C 11.742188 12.773438 11.878906 13.214844 11.878906 13.214844 C 11.910156 13.324219 11.953125 13.351562 11.972656 13.414062 C 12.007812 13.535156 12.078125 13.871094 12.109375 13.972656 C 12.144531 14.078125 12.222656 14.125 12.285156 14.132812 C 12.34375 14.140625 12.378906 14.128906 12.378906 14.128906 C 12.378906 14.128906 12.523438 14.0625 12.621094 13.523438 C 12.6875 13.132812 12.628906 13.074219 12.574219 12.488281 C 12.523438 11.902344 12.664062 11.308594 12.664062 11.308594 Z M 12.664062 11.308594 "/>
<path style=" stroke:none;fill-rule:nonzero;fill:rgb(23.137255%,58.039216%,85.098039%);fill-opacity:1;" d="M 12.546875 12.175781 C 12.449219 12.136719 12.222656 11.988281 12.160156 11.832031 C 12.105469 11.6875 12.066406 11.300781 12.058594 11.226562 C 12.179688 11.214844 12.363281 11.222656 12.421875 11.230469 C 12.5 11.238281 12.589844 11.246094 12.644531 11.289062 L 12.664062 11.308594 C 12.664062 11.308594 12.570312 11.921875 12.546875 12.175781 Z M 12.546875 12.175781 "/>
<path style=" stroke:none;fill-rule:nonzero;fill:rgb(80%,83.921569%,86.666667%);fill-opacity:1;" d="M 11.6875 12.613281 C 11.65625 12.613281 11.628906 12.59375 11.613281 12.566406 C 11.59375 12.527344 11.613281 12.476562 11.652344 12.457031 L 11.792969 12.390625 C 11.835938 12.371094 11.882812 12.390625 11.902344 12.429688 C 11.921875 12.46875 11.90625 12.519531 11.863281 12.535156 L 11.722656 12.605469 C 11.710938 12.609375 11.699219 12.613281 11.6875 12.613281 Z M 11.777344 12.871094 C 11.742188 12.871094 11.710938 12.851562 11.699219 12.816406 C 11.6875 12.773438 11.710938 12.730469 11.753906 12.714844 L 11.910156 12.664062 C 11.953125 12.652344 12 12.675781 12.011719 12.71875 C 12.027344 12.757812 12.003906 12.804688 11.960938 12.820312 L 11.800781 12.871094 C 11.792969 12.871094 11.785156 12.871094 11.777344 12.871094 Z M 11.855469 13.136719 C 11.816406 13.136719 11.78125 13.113281 11.773438 13.074219 C 11.765625 13.03125 11.792969 12.988281 11.839844 12.976562 L 11.988281 12.949219 C 12.03125 12.9375 12.074219 12.96875 12.082031 13.011719 C 12.089844 13.054688 12.0625 13.097656 12.019531 13.105469 L 11.871094 13.136719 Z M 13.011719 11.417969 C 13.007812 11.40625 13 11.359375 12.96875 11.304688 C 12.957031 11.285156 12.933594 11.28125 12.910156 11.277344 C 12.878906 11.273438 12.660156 11.242188 12.65625 11.285156 C 12.65625 11.285156 12.65625 11.351562 12.625 11.398438 C 12.59375 11.445312 12.570312 11.554688 12.5625 11.640625 C 12.554688 11.722656 12.519531 12.035156 12.527344 12.253906 C 12.535156 12.472656 12.605469 12.871094 12.605469 13.003906 C 12.609375 13.136719 12.605469 13.34375 12.578125 13.496094 C 12.550781 13.648438 12.519531 13.785156 12.496094 13.867188 C 12.46875 13.976562 12.425781 14.066406 12.378906 14.125 C 12.378906 14.125 12.554688 14.113281 12.6875 13.859375 C 12.792969 13.65625 12.851562 13.460938 12.875 13.269531 C 12.875 13.253906 12.921875 12.746094 12.941406 12.496094 C 12.957031 12.308594 12.984375 12.011719 12.984375 12.011719 C 13.019531 11.664062 13.027344 11.484375 13.011719 11.417969 Z M 13.011719 11.417969 "/>
<path style=" stroke:none;fill-rule:nonzero;fill:rgb(53.333333%,60%,65.098039%);fill-opacity:1;" d="M 4.671875 13.453125 L 4.785156 13.34375 C 4.800781 13.328125 4.828125 13.332031 4.84375 13.351562 C 4.886719 13.414062 4.988281 13.535156 5.027344 13.578125 C 4.917969 13.5625 4.75 13.554688 4.691406 13.515625 C 4.667969 13.5 4.648438 13.46875 4.671875 13.453125 Z M 4.671875 13.453125 "/>
<path style=" stroke:none;fill-rule:nonzero;fill:rgb(10.980392%,38.823529%,60%);fill-opacity:1;" d="M 5.980469 14.210938 C 6.011719 14.140625 5.996094 14.007812 5.984375 13.925781 C 5.972656 13.867188 5.9375 13.722656 5.898438 13.605469 C 5.878906 13.550781 5.855469 13.488281 5.839844 13.464844 C 5.796875 13.394531 5.75 13.367188 5.722656 13.355469 C 5.6875 13.339844 5.660156 13.347656 5.644531 13.355469 C 5.589844 13.394531 5.511719 13.523438 5.421875 13.597656 C 5.390625 13.621094 5.363281 13.636719 5.332031 13.644531 C 5.214844 13.664062 5.015625 13.566406 4.867188 13.492188 C 4.777344 13.449219 4.707031 13.414062 4.683594 13.417969 C 4.660156 13.421875 4.640625 13.433594 4.625 13.453125 C 4.578125 13.496094 4.542969 13.574219 4.410156 13.65625 C 4.324219 13.710938 3.933594 13.957031 3.933594 13.957031 C 3.835938 14.019531 3.820312 14.070312 3.765625 14.101562 C 3.65625 14.171875 3.355469 14.324219 3.261719 14.386719 C 3.171875 14.445312 3.148438 14.535156 3.15625 14.59375 C 3.164062 14.65625 3.1875 14.6875 3.1875 14.6875 C 3.1875 14.6875 3.289062 14.808594 3.832031 14.757812 C 4.226562 14.71875 4.269531 14.644531 4.820312 14.4375 C 5.371094 14.234375 5.980469 14.210938 5.980469 14.210938 Z M 5.980469 14.210938 "/>
<path style=" stroke:none;fill-rule:nonzero;fill:rgb(23.137255%,58.039216%,85.098039%);fill-opacity:1;" d="M 5.109375 14.324219 C 5.125 14.222656 5.207031 13.964844 5.34375 13.863281 C 5.464844 13.769531 5.828125 13.628906 5.898438 13.601562 C 5.9375 13.714844 5.980469 13.894531 5.992188 13.953125 C 6.003906 14.03125 6.023438 14.121094 5.992188 14.183594 L 5.980469 14.210938 C 5.980469 14.210938 5.363281 14.28125 5.109375 14.324219 Z M 5.109375 14.324219 "/>
<path style=" stroke:none;fill-rule:nonzero;fill:rgb(80%,83.921569%,86.666667%);fill-opacity:1;" d="M 4.644531 13.792969 C 4.621094 13.792969 4.597656 13.785156 4.582031 13.765625 L 4.480469 13.644531 C 4.449219 13.613281 4.453125 13.558594 4.488281 13.53125 C 4.519531 13.503906 4.574219 13.503906 4.601562 13.539062 L 4.703125 13.660156 C 4.734375 13.691406 4.730469 13.746094 4.695312 13.773438 C 4.679688 13.785156 4.660156 13.792969 4.644531 13.792969 Z M 4.402344 13.96875 C 4.378906 13.96875 4.351562 13.957031 4.335938 13.933594 L 4.246094 13.792969 C 4.222656 13.757812 4.230469 13.707031 4.269531 13.683594 C 4.304688 13.65625 4.355469 13.667969 4.378906 13.707031 L 4.472656 13.84375 C 4.496094 13.882812 4.484375 13.933594 4.449219 13.957031 C 4.433594 13.964844 4.417969 13.96875 4.402344 13.96875 Z M 4.148438 14.109375 C 4.117188 14.109375 4.089844 14.09375 4.074219 14.066406 L 4.003906 13.929688 C 3.984375 13.890625 4 13.84375 4.042969 13.824219 C 4.082031 13.800781 4.128906 13.816406 4.148438 13.859375 L 4.21875 13.992188 C 4.238281 14.03125 4.222656 14.082031 4.183594 14.101562 C 4.171875 14.109375 4.160156 14.109375 4.148438 14.109375 Z M 5.96875 14.570312 C 5.976562 14.566406 6.019531 14.546875 6.066406 14.5 C 6.078125 14.484375 6.078125 14.460938 6.074219 14.4375 C 6.070312 14.40625 6.042969 14.1875 6 14.195312 C 6 14.195312 5.933594 14.210938 5.882812 14.195312 C 5.832031 14.175781 5.714844 14.183594 5.632812 14.199219 C 5.550781 14.214844 5.242188 14.261719 5.03125 14.328125 C 4.820312 14.394531 4.457031 14.566406 4.328125 14.605469 C 4.203125 14.644531 4.003906 14.695312 3.847656 14.710938 C 3.695312 14.722656 3.554688 14.730469 3.46875 14.730469 C 3.355469 14.730469 3.261719 14.714844 3.1875 14.6875 C 3.1875 14.6875 3.246094 14.851562 3.527344 14.910156 C 3.753906 14.957031 3.957031 14.960938 4.144531 14.933594 C 4.160156 14.929688 4.660156 14.839844 4.910156 14.792969 C 5.09375 14.757812 5.386719 14.703125 5.386719 14.703125 C 5.734375 14.644531 5.90625 14.605469 5.96875 14.570312 Z M 5.96875 14.570312 "/>
<path style=" stroke:none;fill-rule:nonzero;fill:rgb(10.980392%,38.823529%,60%);fill-opacity:1;" d="M 5.273438 8.851562 C 5.585938 8.6875 6.621094 8.164062 7.332031 8.101562 C 7.398438 8.09375 7.457031 8.136719 7.480469 8.199219 L 8.035156 9.710938 C 8.0625 9.789062 8.023438 9.875 7.945312 9.902344 C 7.617188 10.003906 6.800781 10.28125 6.183594 10.617188 C 6.121094 10.652344 6.039062 10.632812 6 10.574219 C 5.808594 10.296875 5.316406 9.539062 5.199219 9.003906 C 5.183594 8.941406 5.214844 8.882812 5.273438 8.851562 Z M 5.273438 8.851562 "/>
<path style=" stroke:none;fill-rule:nonzero;fill:rgb(20.784314%,48.235294%,66.666667%);fill-opacity:1;" d="M 7.296875 10.621094 C 7.214844 10.277344 6.96875 9.140625 7.089844 8.4375 C 7.097656 8.371094 7.15625 8.324219 7.21875 8.320312 L 8.824219 8.164062 C 8.910156 8.15625 8.980469 8.214844 8.984375 8.300781 C 9.003906 8.640625 9.066406 9.5 9.234375 10.179688 C 9.253906 10.253906 9.214844 10.324219 9.144531 10.351562 C 8.828125 10.464844 7.972656 10.753906 7.425781 10.730469 C 7.363281 10.730469 7.3125 10.683594 7.296875 10.621094 Z M 7.296875 10.621094 "/>
<path style=" stroke:none;fill-rule:nonzero;fill:rgb(83.137255%,67.058824%,53.333333%);fill-opacity:1;" d="M 6.257812 4.425781 C 6.222656 4.679688 6.277344 5.066406 6.867188 5.167969 C 7.457031 5.269531 8.039062 5.191406 8.289062 5.125 C 8.539062 5.054688 8.527344 5.492188 8.597656 5.902344 C 8.675781 6.316406 8.726562 6.640625 8.703125 6.726562 C 8.671875 6.871094 8.367188 7.148438 8.488281 7.398438 C 8.609375 7.648438 8.804688 7.890625 9.042969 7.796875 C 9.285156 7.707031 9.480469 7.601562 9.546875 7.464844 C 9.609375 7.332031 9.328125 6.925781 9.316406 6.808594 C 9.304688 6.695312 9.410156 5.191406 9.394531 5.019531 C 9.378906 4.8125 9.363281 4.523438 9.023438 4.40625 C 8.683594 4.289062 7.316406 4.023438 6.976562 3.957031 C 6.582031 3.878906 6.304688 4.085938 6.257812 4.425781 Z M 6.257812 4.425781 "/>
<path style=" stroke:none;fill-rule:nonzero;fill:rgb(83.137255%,67.058824%,53.333333%);fill-opacity:1;" d="M 6.757812 2.601562 C 6.875 2.433594 6.964844 2.242188 7.003906 2.007812 C 7.136719 1.164062 6.628906 0.382812 5.863281 0.257812 C 5.097656 0.136719 4.074219 0.734375 4.128906 1.585938 C 4.179688 2.429688 4.691406 3.664062 5.394531 3.429688 C 5.578125 3.367188 5.765625 3.296875 5.941406 3.21875 C 6.019531 3.304688 6.085938 3.648438 6.0625 3.945312 C 6.007812 4.699219 7.046875 4.742188 7.101562 3.988281 C 7.144531 3.390625 6.761719 3.023438 6.757812 2.601562 Z M 6.757812 2.601562 "/>
<path style=" stroke:none;fill-rule:nonzero;fill:rgb(58.823529%,23.137255%,13.333333%);fill-opacity:1;" d="M 4.433594 0.503906 C 5.445312 -0.167969 6.140625 -0.078125 6.730469 0.367188 C 7.316406 0.808594 7.367188 1.679688 7.21875 2.234375 C 7.074219 2.792969 6.914062 2.765625 6.914062 2.765625 C 6.914062 2.765625 6.152344 2.960938 6.078125 2.253906 C 6.054688 2.027344 6.300781 1.902344 6.019531 1.578125 C 5.839844 1.371094 5.453125 1.488281 5.460938 1.792969 C 5.46875 2.097656 5.308594 2.046875 5.308594 2.046875 L 4.828125 1.25 C 4.828125 1.25 4.433594 1.238281 4.222656 1.605469 C 4.089844 1.839844 3.546875 1.085938 4.433594 0.503906 Z M 4.433594 0.503906 "/>
<path style=" stroke:none;fill-rule:nonzero;fill:rgb(25.882353%,53.72549%,75.686275%);fill-opacity:1;" d="M 8.109375 4.191406 C 7.785156 3.503906 7.28125 3.15625 6.699219 3.375 C 4.871094 4.054688 5.714844 5.742188 6.371094 8.480469 C 6.371094 8.480469 7.667969 8.667969 9.003906 8.628906 C 9.003906 8.628906 8.878906 5.839844 8.109375 4.191406 Z M 8.109375 4.191406 "/>
<path style=" stroke:none;fill-rule:nonzero;fill:rgb(83.137255%,67.058824%,53.333333%);fill-opacity:1;" d="M 7.058594 4.277344 C 6.816406 4.132812 6.402344 4.027344 6.054688 4.574219 C 5.703125 5.125 5.53125 5.738281 5.496094 6.019531 C 5.460938 6.300781 5.027344 6.101562 4.582031 6 C 4.136719 5.898438 3.570312 5.726562 3.492188 5.671875 C 3.363281 5.574219 3.410156 5.308594 3.105469 5.324219 C 2.804688 5.339844 2.65625 5.304688 2.644531 5.582031 C 2.632812 5.859375 2.628906 6.140625 2.738281 6.261719 C 2.84375 6.382812 3.207031 6.277344 3.367188 6.335938 C 3.488281 6.375 4.953125 7.117188 5.128906 7.175781 C 5.347656 7.246094 5.640625 7.351562 5.902344 7.058594 C 6.164062 6.769531 7.011719 5.511719 7.222656 5.199219 C 7.464844 4.835938 7.378906 4.46875 7.058594 4.277344 Z M 7.058594 4.277344 "/>
</g>
</svg>
