<?xml version="1.0" encoding="UTF-8"?>
<svg xmlns="http://www.w3.org/2000/svg" xmlns:xlink="http://www.w3.org/1999/xlink" width="15pt" height="15pt" viewBox="0 0 15 15" version="1.1">
<g id="surface1">
<path style=" stroke:none;fill-rule:nonzero;fill:rgb(100%,67.45098%,20%);fill-opacity:1;" d="M 2.132812 2.082031 L 4.632812 2.082031 C 5.09375 2.082031 5.417969 2.039062 5.417969 2.5 L 5.417969 1.667969 C 5.417969 1.207031 5.09375 0.832031 4.632812 0.832031 L 1.300781 0.832031 C 0.46875 0.832031 -0.191406 1.71875 0.0507812 2.917969 C 0.0507812 2.917969 0.796875 6.824219 0.851562 7.066406 C 0.988281 7.707031 1.734375 8.332031 2.535156 8.332031 L 5.433594 8.332031 C 5.894531 8.332031 5.417969 7.542969 5.417969 7.082031 L 5.417969 6.25 C 5.417969 6.710938 5.09375 7.082031 4.632812 7.082031 L 2.96875 7.082031 C 2.507812 7.082031 2.203125 6.648438 2.132812 6.25 C 2.066406 5.851562 1.472656 3.195312 1.472656 3.195312 C 1.335938 2.394531 1.675781 2.082031 2.132812 2.082031 Z M 12.890625 2.082031 L 10.390625 2.082031 C 9.929688 2.082031 9.167969 2.039062 9.167969 2.5 L 9.167969 1.667969 C 9.167969 1.207031 9.929688 0.832031 10.390625 0.832031 L 13.722656 0.832031 C 14.554688 0.832031 15.214844 1.71875 14.972656 2.917969 C 14.972656 2.917969 14.292969 6.839844 14.234375 7.082031 C 14.085938 7.707031 13.382812 8.332031 12.566406 8.332031 L 9.589844 8.332031 C 9.128906 8.332031 9.167969 7.542969 9.167969 7.082031 L 9.167969 6.25 C 9.167969 6.710938 9.929688 7.082031 10.390625 7.082031 L 12.054688 7.082031 C 12.515625 7.082031 12.820312 6.648438 12.890625 6.25 C 12.957031 5.851562 13.550781 3.195312 13.550781 3.195312 C 13.6875 2.394531 13.351562 2.082031 12.890625 2.082031 Z M 8.679688 9.167969 C 8.679688 6.265625 7.550781 9.167969 7.550781 9.167969 C 7.550781 9.167969 6.300781 6.265625 6.300781 9.167969 C 6.300781 12.066406 4.929688 13.332031 4.929688 13.332031 L 10.050781 13.332031 C 10.050781 13.332031 8.679688 12.066406 8.679688 9.167969 Z M 8.679688 9.167969 "/>
<path style=" stroke:none;fill-rule:nonzero;fill:rgb(100%,80%,30.196078%);fill-opacity:1;" d="M 12.132812 2.742188 C 12.132812 5.5625 9.3125 10.320312 7.550781 10.320312 C 5.789062 10.320312 2.96875 5.5625 2.96875 2.742188 C 2.96875 0.574219 3.382812 0.109375 4.21875 0.109375 C 4.789062 0.109375 6.726562 0.0976562 7.550781 0.0976562 L 10.46875 0.0976562 C 11.683594 0.09375 12.132812 0.378906 12.132812 2.742188 Z M 12.132812 2.742188 "/>
<path style=" stroke:none;fill-rule:nonzero;fill:rgb(75.686275%,41.176471%,30.980392%);fill-opacity:1;" d="M 11.25 13.75 C 11.25 14.210938 11.34375 14.582031 10.882812 14.582031 L 4.21875 14.582031 C 3.757812 14.582031 3.75 14.210938 3.75 13.75 L 3.75 13.332031 C 3.75 12.875 4.234375 12.5 4.667969 12.5 L 10.46875 12.5 C 10.902344 12.5 11.25 12.875 11.25 13.332031 Z M 11.25 13.75 "/>
<path style=" stroke:none;fill-rule:nonzero;fill:rgb(75.686275%,41.176471%,30.980392%);fill-opacity:1;" d="M 12.082031 14.425781 C 12.082031 14.742188 12.152344 15 11.5625 15 L 3.539062 15 C 3.003906 15 2.917969 14.742188 2.917969 14.425781 L 2.917969 14.324219 C 2.917969 14.007812 3.222656 13.75 3.539062 13.75 L 11.5625 13.75 C 11.878906 13.75 12.082031 14.007812 12.082031 14.324219 Z M 12.082031 14.425781 "/>
</g>
</svg>
