<?xml version="1.0" encoding="UTF-8"?>
<svg xmlns="http://www.w3.org/2000/svg" xmlns:xlink="http://www.w3.org/1999/xlink" width="15pt" height="15pt" viewBox="0 0 15 15" version="1.1">
<g id="surface1">
<path style=" stroke:none;fill-rule:nonzero;fill:rgb(16.078431%,18.431373%,20%);fill-opacity:1;" d="M 7.71875 1.585938 C 7.414062 1.585938 7.128906 1.660156 6.871094 1.785156 C 6.800781 1.773438 6.730469 1.765625 6.65625 1.765625 C 5.972656 1.765625 5.417969 2.320312 5.417969 3.003906 L 5.417969 5.128906 L 5.421875 5.128906 C 5.453125 6.273438 6.390625 7.191406 7.542969 7.191406 C 8.695312 7.191406 9.632812 6.273438 9.664062 5.128906 L 9.667969 5.128906 L 9.667969 3.535156 C 9.667969 2.460938 8.796875 1.585938 7.71875 1.585938 Z M 7.71875 1.585938 "/>
<path style=" stroke:none;fill-rule:nonzero;fill:rgb(96.862745%,87.058824%,80.784314%);fill-opacity:1;" d="M 6.4375 14.53125 L 6.011719 14.53125 C 6.011719 14.53125 5.433594 13.136719 5.519531 12.140625 L 6.574219 12.371094 C 6.808594 13.023438 6.4375 14.53125 6.4375 14.53125 Z M 8.472656 14.53125 L 8.898438 14.53125 C 8.898438 14.53125 9.472656 13.136719 9.386719 12.140625 L 8.332031 12.371094 C 8.101562 13.023438 8.472656 14.53125 8.472656 14.53125 Z M 8.472656 14.53125 "/>
<path style=" stroke:none;fill-rule:nonzero;fill:rgb(86.666667%,18.039216%,26.666667%);fill-opacity:1;" d="M 5.605469 14.644531 C 5.648438 14.542969 5.738281 14.355469 5.746094 14.246094 C 5.753906 14.140625 5.761719 14.101562 5.84375 14.070312 C 5.988281 14.019531 6.441406 14.035156 6.515625 14.0625 C 6.59375 14.09375 6.597656 14.171875 6.605469 14.238281 C 6.617188 14.308594 6.652344 14.417969 6.699219 14.507812 C 6.746094 14.597656 6.871094 14.796875 6.808594 14.9375 C 6.785156 14.996094 6.640625 14.996094 6.183594 14.996094 C 5.730469 14.996094 5.597656 14.984375 5.566406 14.945312 C 5.535156 14.90625 5.5625 14.746094 5.605469 14.644531 Z M 9.304688 14.644531 C 9.261719 14.542969 9.171875 14.355469 9.160156 14.246094 C 9.152344 14.140625 9.148438 14.101562 9.0625 14.070312 C 8.917969 14.019531 8.46875 14.035156 8.390625 14.0625 C 8.3125 14.09375 8.3125 14.171875 8.300781 14.238281 C 8.289062 14.308594 8.253906 14.417969 8.207031 14.507812 C 8.160156 14.597656 8.039062 14.796875 8.097656 14.9375 C 8.125 14.996094 8.265625 14.996094 8.722656 14.996094 C 9.179688 14.996094 9.308594 14.984375 9.339844 14.945312 C 9.371094 14.90625 9.34375 14.746094 9.304688 14.644531 Z M 9.304688 14.644531 "/>
<path style=" stroke:none;fill-rule:nonzero;fill:rgb(96.862745%,87.058824%,80.784314%);fill-opacity:1;" d="M 3.460938 1.730469 C 3.46875 1.785156 3.800781 2.367188 3.988281 2.824219 C 4.179688 3.285156 4.300781 3.761719 4.398438 3.867188 C 4.597656 4.074219 5.203125 4.480469 5.613281 5.089844 C 6.023438 5.699219 4.789062 6.164062 4.523438 5.753906 C 4.335938 5.457031 3.980469 4.765625 3.652344 4.1875 C 3.523438 3.960938 3.277344 3.582031 3.097656 3.136719 C 2.929688 2.722656 2.832031 2.234375 2.804688 2.175781 C 2.730469 1.996094 2.4375 1.765625 2.425781 1.589844 C 2.425781 1.589844 3.449219 1.554688 3.460938 1.730469 Z M 11.445312 1.730469 C 11.441406 1.785156 11.105469 2.367188 10.917969 2.824219 C 10.730469 3.285156 10.605469 3.761719 10.507812 3.867188 C 10.308594 4.074219 9.707031 4.480469 9.296875 5.089844 C 8.882812 5.699219 10.117188 6.164062 10.382812 5.753906 C 10.570312 5.457031 10.929688 4.765625 11.257812 4.1875 C 11.382812 3.960938 11.628906 3.582031 11.808594 3.136719 C 11.980469 2.722656 12.078125 2.234375 12.101562 2.175781 C 12.175781 1.996094 12.46875 1.765625 12.484375 1.589844 C 12.484375 1.589844 11.460938 1.554688 11.445312 1.730469 Z M 11.445312 1.730469 "/>
<path style=" stroke:none;fill-rule:nonzero;fill:rgb(60%,66.666667%,70.980392%);fill-opacity:1;" d="M 15 1.457031 C 15 1.574219 14.90625 1.667969 14.792969 1.667969 L 0.207031 1.667969 C 0.09375 1.667969 0 1.574219 0 1.457031 C 0 1.34375 0.09375 1.25 0.207031 1.25 L 14.792969 1.25 C 14.90625 1.25 15 1.34375 15 1.457031 Z M 15 1.457031 "/>
<path style=" stroke:none;fill-rule:nonzero;fill:rgb(16.078431%,18.431373%,20%);fill-opacity:1;" d="M 14.167969 0 C 13.9375 0 13.75 0.1875 13.75 0.417969 C 13.75 0.1875 13.5625 0 13.332031 0 C 13.101562 0 12.917969 0.1875 12.917969 0.417969 L 12.917969 2.5 C 12.917969 2.730469 13.101562 2.917969 13.332031 2.917969 C 13.5625 2.917969 13.75 2.730469 13.75 2.5 C 13.75 2.730469 13.9375 2.917969 14.167969 2.917969 C 14.398438 2.917969 14.582031 2.730469 14.582031 2.5 L 14.582031 0.417969 C 14.582031 0.1875 14.398438 0 14.167969 0 Z M 1.667969 0 C 1.4375 0 1.25 0.1875 1.25 0.417969 C 1.25 0.1875 1.0625 0 0.832031 0 C 0.601562 0 0.417969 0.1875 0.417969 0.417969 L 0.417969 2.5 C 0.417969 2.730469 0.601562 2.917969 0.832031 2.917969 C 1.0625 2.917969 1.25 2.730469 1.25 2.5 C 1.25 2.730469 1.4375 2.917969 1.667969 2.917969 C 1.898438 2.917969 2.082031 2.730469 2.082031 2.5 L 2.082031 0.417969 C 2.082031 0.1875 1.898438 0 1.667969 0 Z M 1.667969 0 "/>
<path style=" stroke:none;fill-rule:nonzero;fill:rgb(86.666667%,18.039216%,26.666667%);fill-opacity:1;" d="M 10.382812 5.753906 C 10.121094 5.507812 9.292969 5.089844 9.292969 5.089844 C 9 5.257812 8.777344 5.585938 8.683594 5.746094 L 8.101562 5.910156 L 6.898438 5.910156 L 6.21875 5.742188 C 6.125 5.578125 5.90625 5.257812 5.613281 5.089844 C 5.613281 5.089844 4.785156 5.507812 4.523438 5.753906 C 4.691406 6.183594 5.167969 6.765625 5.167969 6.765625 L 5.171875 6.765625 C 5.335938 7.105469 5.527344 7.332031 5.5625 7.410156 C 5.726562 7.734375 5.832031 9.375 5.832031 9.375 L 7.5 10 L 9.074219 9.375 C 9.074219 9.375 9.183594 7.734375 9.34375 7.410156 C 9.378906 7.332031 9.570312 7.105469 9.734375 6.765625 L 9.738281 6.765625 C 9.738281 6.765625 10.214844 6.183594 10.382812 5.753906 Z M 10.382812 5.753906 "/>
<path style=" stroke:none;fill-rule:nonzero;fill:rgb(96.862745%,87.058824%,80.784314%);fill-opacity:1;" d="M 6.863281 4.753906 L 6.863281 6.03125 C 6.863281 6.382812 7.148438 6.667969 7.5 6.667969 C 7.851562 6.667969 8.136719 6.382812 8.136719 6.03125 L 8.136719 4.753906 Z M 6.863281 4.753906 "/>
<path style=" stroke:none;fill-rule:nonzero;fill:rgb(16.078431%,18.431373%,20%);fill-opacity:1;" d="M 7.65625 1.398438 C 7.285156 1.398438 6.941406 1.515625 6.660156 1.714844 C 6.085938 1.746094 5.625 2.21875 5.625 2.804688 C 5.625 3.285156 5.625 3.890625 6.261719 4.117188 C 6.574219 4.550781 7.082031 4.835938 7.65625 4.835938 C 8.605469 4.835938 9.375 4.066406 9.375 3.117188 C 9.375 2.167969 8.605469 1.398438 7.65625 1.398438 Z M 7.65625 1.398438 "/>
<path style=" stroke:none;fill-rule:nonzero;fill:rgb(96.862745%,87.058824%,80.784314%);fill-opacity:1;" d="M 9.0625 2.335938 L 5.9375 2.335938 L 5.9375 4.210938 C 5.9375 5.074219 6.636719 5.773438 7.5 5.773438 C 8.363281 5.773438 9.0625 5.074219 9.0625 4.210938 Z M 9.0625 2.335938 "/>
<path style=" stroke:none;fill-rule:nonzero;fill:rgb(16.078431%,18.431373%,20%);fill-opacity:1;" d="M 7.5 1.667969 L 5.863281 2.304688 L 5.863281 3.613281 C 6.628906 3.613281 6.796875 2.824219 6.835938 2.472656 C 6.847656 2.824219 7.101562 3.613281 9.132812 3.613281 L 9.132812 2.304688 Z M 7.5 1.667969 "/>
<path style=" stroke:none;fill-rule:nonzero;fill:rgb(75.686275%,41.176471%,30.980392%);fill-opacity:1;" d="M 8.125 5.148438 L 6.875 5.148438 C 6.875 5.148438 6.875 5.460938 7.5 5.460938 C 8.125 5.460938 8.125 5.148438 8.125 5.148438 Z M 8.125 5.148438 "/>
<path style=" stroke:none;fill-rule:nonzero;fill:rgb(40%,12.941176%,7.45098%);fill-opacity:1;" d="M 6.875 4.054688 C 6.875 4.140625 6.804688 4.210938 6.71875 4.210938 C 6.632812 4.210938 6.5625 4.140625 6.5625 4.054688 C 6.5625 3.96875 6.632812 3.898438 6.71875 3.898438 C 6.804688 3.898438 6.875 3.96875 6.875 4.054688 Z M 6.875 4.054688 "/>
<path style=" stroke:none;fill-rule:nonzero;fill:rgb(40%,12.941176%,7.45098%);fill-opacity:1;" d="M 8.4375 4.054688 C 8.4375 4.140625 8.367188 4.210938 8.28125 4.210938 C 8.195312 4.210938 8.125 4.140625 8.125 4.054688 C 8.125 3.96875 8.195312 3.898438 8.28125 3.898438 C 8.367188 3.898438 8.4375 3.96875 8.4375 4.054688 Z M 8.4375 4.054688 "/>
<path style=" stroke:none;fill-rule:nonzero;fill:rgb(75.686275%,41.176471%,30.980392%);fill-opacity:1;" d="M 7.1875 4.523438 L 7.8125 4.523438 C 7.8125 4.523438 7.8125 4.835938 7.5 4.835938 C 7.1875 4.835938 7.1875 4.523438 7.1875 4.523438 Z M 7.1875 4.523438 "/>
<path style=" stroke:none;fill-rule:nonzero;fill:rgb(96.862745%,87.058824%,80.784314%);fill-opacity:1;" d="M 11.289062 1.816406 C 11.152344 1.753906 11.089844 1.640625 11.132812 1.519531 L 11.132812 1.515625 C 11.175781 1.394531 11.253906 1.371094 11.441406 1.371094 C 11.441406 1.371094 12.074219 1.40625 12.457031 1.667969 C 12.457031 1.667969 12.375 1.796875 12.269531 1.902344 L 12.269531 1.90625 C 12.226562 2.027344 11.597656 1.964844 11.289062 1.816406 Z M 11.289062 1.816406 "/>
<path style=" stroke:none;fill-rule:nonzero;fill:rgb(96.862745%,87.058824%,80.784314%);fill-opacity:1;" d="M 11.601562 1.445312 C 11.542969 1.433594 11.507812 1.375 11.523438 1.316406 L 11.558594 1.167969 C 11.574219 1.109375 11.632812 1.074219 11.6875 1.089844 C 11.746094 1.101562 11.78125 1.160156 11.765625 1.21875 L 11.730469 1.367188 C 11.714844 1.425781 11.660156 1.460938 11.601562 1.445312 Z M 11.414062 1.082031 C 11.347656 1.058594 11.273438 1.097656 11.25 1.164062 L 11.132812 1.515625 C 11.109375 1.582031 11.203125 1.484375 11.273438 1.507812 C 11.339844 1.53125 11.414062 1.496094 11.4375 1.425781 L 11.496094 1.25 C 11.519531 1.179688 11.484375 1.105469 11.414062 1.082031 Z M 11.414062 1.082031 "/>
<path style=" stroke:none;fill-rule:nonzero;fill:rgb(96.862745%,87.058824%,80.784314%);fill-opacity:1;" d="M 11.828125 1.417969 C 11.769531 1.402344 11.734375 1.34375 11.75 1.285156 L 11.78125 1.148438 C 11.796875 1.089844 11.855469 1.054688 11.910156 1.070312 C 11.96875 1.082031 12.003906 1.140625 11.988281 1.199219 L 11.957031 1.339844 C 11.941406 1.394531 11.882812 1.429688 11.828125 1.417969 Z M 11.828125 1.417969 "/>
<path style=" stroke:none;fill-rule:nonzero;fill:rgb(96.862745%,87.058824%,80.784314%);fill-opacity:1;" d="M 12.042969 1.425781 C 11.984375 1.414062 11.949219 1.355469 11.964844 1.296875 L 11.992188 1.183594 C 12.003906 1.125 12.0625 1.089844 12.121094 1.105469 C 12.179688 1.117188 12.214844 1.175781 12.199219 1.234375 L 12.171875 1.347656 C 12.15625 1.40625 12.097656 1.441406 12.042969 1.425781 Z M 12.042969 1.425781 "/>
<path style=" stroke:none;fill-rule:nonzero;fill:rgb(96.862745%,87.058824%,80.784314%);fill-opacity:1;" d="M 12.257812 1.4375 C 12.199219 1.421875 12.164062 1.363281 12.179688 1.308594 L 12.195312 1.238281 C 12.210938 1.183594 12.269531 1.148438 12.324219 1.160156 C 12.382812 1.175781 12.417969 1.234375 12.402344 1.289062 L 12.386719 1.359375 C 12.371094 1.414062 12.316406 1.449219 12.257812 1.4375 Z M 12.257812 1.4375 "/>
<path style=" stroke:none;fill-rule:nonzero;fill:rgb(96.862745%,87.058824%,80.784314%);fill-opacity:1;" d="M 3.617188 1.816406 C 3.753906 1.753906 3.816406 1.640625 3.773438 1.519531 L 3.773438 1.515625 C 3.730469 1.394531 3.652344 1.371094 3.464844 1.371094 C 3.464844 1.371094 2.832031 1.40625 2.449219 1.667969 C 2.449219 1.667969 2.535156 1.796875 2.636719 1.902344 L 2.636719 1.90625 C 2.679688 2.027344 3.3125 1.964844 3.617188 1.816406 Z M 3.617188 1.816406 "/>
<path style=" stroke:none;fill-rule:nonzero;fill:rgb(96.862745%,87.058824%,80.784314%);fill-opacity:1;" d="M 3.308594 1.445312 C 3.363281 1.433594 3.398438 1.375 3.386719 1.316406 L 3.347656 1.167969 C 3.335938 1.109375 3.277344 1.074219 3.21875 1.089844 C 3.164062 1.105469 3.128906 1.160156 3.140625 1.21875 L 3.175781 1.367188 C 3.191406 1.425781 3.25 1.460938 3.308594 1.445312 Z M 3.492188 1.082031 C 3.558594 1.058594 3.632812 1.097656 3.65625 1.164062 L 3.773438 1.515625 C 3.796875 1.582031 3.703125 1.484375 3.636719 1.507812 C 3.566406 1.53125 3.492188 1.496094 3.46875 1.425781 L 3.410156 1.25 C 3.386719 1.179688 3.421875 1.105469 3.492188 1.082031 Z M 3.492188 1.082031 "/>
<path style=" stroke:none;fill-rule:nonzero;fill:rgb(96.862745%,87.058824%,80.784314%);fill-opacity:1;" d="M 3.082031 1.417969 C 3.136719 1.402344 3.171875 1.34375 3.160156 1.285156 L 3.125 1.148438 C 3.113281 1.089844 3.054688 1.054688 2.996094 1.070312 C 2.9375 1.082031 2.902344 1.140625 2.917969 1.199219 L 2.953125 1.339844 C 2.964844 1.394531 3.023438 1.429688 3.082031 1.417969 Z M 3.082031 1.417969 "/>
<path style=" stroke:none;fill-rule:nonzero;fill:rgb(96.862745%,87.058824%,80.784314%);fill-opacity:1;" d="M 2.867188 1.425781 C 2.921875 1.414062 2.957031 1.355469 2.945312 1.296875 L 2.917969 1.183594 C 2.902344 1.125 2.84375 1.089844 2.789062 1.105469 C 2.730469 1.117188 2.695312 1.175781 2.710938 1.234375 L 2.738281 1.347656 C 2.75 1.40625 2.808594 1.441406 2.867188 1.425781 Z M 2.867188 1.425781 "/>
<path style=" stroke:none;fill-rule:nonzero;fill:rgb(96.862745%,87.058824%,80.784314%);fill-opacity:1;" d="M 2.648438 1.4375 C 2.707031 1.421875 2.742188 1.363281 2.726562 1.308594 L 2.710938 1.238281 C 2.699219 1.183594 2.640625 1.148438 2.582031 1.160156 C 2.527344 1.175781 2.492188 1.234375 2.503906 1.289062 L 2.519531 1.359375 C 2.535156 1.414062 2.59375 1.449219 2.648438 1.4375 Z M 2.648438 1.4375 "/>
<path style=" stroke:none;fill-rule:nonzero;fill:rgb(86.666667%,18.039216%,26.666667%);fill-opacity:1;" d="M 9.074219 10.207031 L 7.5 9.582031 L 5.832031 10.207031 C 5.832031 10.207031 5.441406 10.945312 5.441406 12.371094 L 6.574219 12.371094 C 6.957031 11.960938 7.09375 10.867188 7.09375 10.867188 L 7.8125 10.867188 C 7.8125 10.867188 7.953125 11.960938 8.332031 12.371094 L 9.464844 12.371094 C 9.464844 10.945312 9.074219 10.207031 9.074219 10.207031 Z M 9.074219 10.207031 "/>
<path style=" stroke:none;fill-rule:nonzero;fill:rgb(75.686275%,41.176471%,30.980392%);fill-opacity:1;" d="M 5.832031 9.375 L 9.074219 9.375 L 9.074219 10.207031 L 5.832031 10.207031 Z M 5.832031 9.375 "/>
<path style=" stroke:none;fill-rule:nonzero;fill:rgb(7.843137%,9.019608%,10.196078%);fill-opacity:1;" d="M 7.917969 9.332031 L 8.1875 9.332031 L 8.1875 10.253906 L 7.917969 10.253906 Z M 7.917969 9.332031 "/>
<path style=" stroke:none;fill-rule:nonzero;fill:rgb(7.843137%,9.019608%,10.196078%);fill-opacity:1;" d="M 7.777344 9.773438 C 7.777344 9.8125 7.746094 9.84375 7.707031 9.84375 C 7.667969 9.84375 7.640625 9.8125 7.640625 9.773438 C 7.640625 9.734375 7.667969 9.703125 7.707031 9.703125 C 7.746094 9.703125 7.777344 9.734375 7.777344 9.773438 Z M 7.777344 9.773438 "/>
<path style=" stroke:none;fill-rule:nonzero;fill:rgb(7.843137%,9.019608%,10.196078%);fill-opacity:1;" d="M 7.507812 9.773438 C 7.507812 9.8125 7.476562 9.84375 7.4375 9.84375 C 7.402344 9.84375 7.371094 9.8125 7.371094 9.773438 C 7.371094 9.734375 7.402344 9.703125 7.4375 9.703125 C 7.476562 9.703125 7.507812 9.734375 7.507812 9.773438 Z M 7.507812 9.773438 "/>
<path style=" stroke:none;fill-rule:nonzero;fill:rgb(7.843137%,9.019608%,10.196078%);fill-opacity:1;" d="M 7.238281 9.773438 C 7.238281 9.8125 7.207031 9.84375 7.171875 9.84375 C 7.132812 9.84375 7.101562 9.8125 7.101562 9.773438 C 7.101562 9.734375 7.132812 9.703125 7.171875 9.703125 C 7.207031 9.703125 7.238281 9.734375 7.238281 9.773438 Z M 7.238281 9.773438 "/>
<path style=" stroke:none;fill-rule:nonzero;fill:rgb(7.843137%,9.019608%,10.196078%);fill-opacity:1;" d="M 6.96875 9.773438 C 6.96875 9.8125 6.9375 9.84375 6.902344 9.84375 C 6.863281 9.84375 6.832031 9.8125 6.832031 9.773438 C 6.832031 9.734375 6.863281 9.703125 6.902344 9.703125 C 6.9375 9.703125 6.96875 9.734375 6.96875 9.773438 Z M 6.96875 9.773438 "/>
<path style=" stroke:none;fill-rule:nonzero;fill:rgb(7.843137%,9.019608%,10.196078%);fill-opacity:1;" d="M 6.703125 9.773438 C 6.703125 9.8125 6.671875 9.84375 6.632812 9.84375 C 6.59375 9.84375 6.5625 9.8125 6.5625 9.773438 C 6.5625 9.734375 6.59375 9.703125 6.632812 9.703125 C 6.671875 9.703125 6.703125 9.734375 6.703125 9.773438 Z M 6.703125 9.773438 "/>
<path style=" stroke:none;fill-rule:nonzero;fill:rgb(7.843137%,9.019608%,10.196078%);fill-opacity:1;" d="M 6.433594 9.773438 C 6.433594 9.8125 6.402344 9.84375 6.363281 9.84375 C 6.324219 9.84375 6.292969 9.8125 6.292969 9.773438 C 6.292969 9.734375 6.324219 9.703125 6.363281 9.703125 C 6.402344 9.703125 6.433594 9.734375 6.433594 9.773438 Z M 6.433594 9.773438 "/>
<path style=" stroke:none;fill-rule:nonzero;fill:rgb(7.843137%,9.019608%,10.196078%);fill-opacity:1;" d="M 6.164062 9.773438 C 6.164062 9.8125 6.132812 9.84375 6.09375 9.84375 C 6.054688 9.84375 6.023438 9.8125 6.023438 9.773438 C 6.023438 9.734375 6.054688 9.703125 6.09375 9.703125 C 6.132812 9.703125 6.164062 9.734375 6.164062 9.773438 Z M 6.164062 9.773438 "/>
<path style=" stroke:none;fill-rule:nonzero;fill:rgb(7.843137%,9.019608%,10.196078%);fill-opacity:1;" d="M 7.238281 9.773438 C 7.238281 9.8125 7.207031 9.84375 7.171875 9.84375 C 7.132812 9.84375 7.101562 9.8125 7.101562 9.773438 C 7.101562 9.734375 7.132812 9.703125 7.171875 9.703125 C 7.207031 9.703125 7.238281 9.734375 7.238281 9.773438 Z M 7.238281 9.773438 "/>
<path style=" stroke:none;fill-rule:nonzero;fill:rgb(39.607843%,46.666667%,52.54902%);fill-opacity:1;" d="M 6.859375 9.773438 C 6.859375 9.808594 6.832031 9.835938 6.800781 9.835938 C 6.765625 9.835938 6.738281 9.808594 6.738281 9.773438 C 6.738281 9.738281 6.765625 9.710938 6.800781 9.710938 C 6.832031 9.710938 6.859375 9.738281 6.859375 9.773438 Z M 6.859375 9.773438 "/>
<path style=" stroke:none;fill-rule:nonzero;fill:rgb(39.607843%,46.666667%,52.54902%);fill-opacity:1;" d="M 6.957031 9.773438 C 6.957031 9.808594 6.929688 9.835938 6.898438 9.835938 C 6.863281 9.835938 6.835938 9.808594 6.835938 9.773438 C 6.835938 9.738281 6.863281 9.710938 6.898438 9.710938 C 6.929688 9.710938 6.957031 9.738281 6.957031 9.773438 Z M 6.957031 9.773438 "/>
<path style=" stroke:none;fill-rule:nonzero;fill:rgb(39.607843%,46.666667%,52.54902%);fill-opacity:1;" d="M 6.800781 9.710938 L 6.898438 9.710938 L 6.898438 9.835938 L 6.800781 9.835938 Z M 6.800781 9.710938 "/>
<path style=" stroke:none;fill-rule:nonzero;fill:rgb(39.607843%,46.666667%,52.54902%);fill-opacity:1;" d="M 6.96875 10.351562 L 6.65625 10.351562 L 6.65625 9.226562 L 6.96875 9.226562 L 6.96875 9.375 L 6.800781 9.375 L 6.800781 10.207031 L 6.96875 10.207031 Z M 6.96875 10.351562 "/>
</g>
</svg>
