<?xml version="1.0" encoding="UTF-8"?>
<svg xmlns="http://www.w3.org/2000/svg" xmlns:xlink="http://www.w3.org/1999/xlink" width="15pt" height="15pt" viewBox="0 0 15 15" version="1.1">
<g id="surface1">
<path style=" stroke:none;fill-rule:nonzero;fill:rgb(25.882353%,53.72549%,75.686275%);fill-opacity:1;" d="M 15 2.082031 L 15 13.332031 C 15 13.332031 15 15 13.332031 15 L 1.667969 15 C 0 15 0 13.332031 0 13.332031 L 0 11.25 C 0 11.25 10.417969 10.417969 15 2.082031 Z M 15 2.082031 "/>
<path style=" stroke:none;fill-rule:nonzero;fill:rgb(10.980392%,38.823529%,60%);fill-opacity:1;" d="M 13.269531 9.683594 C 13.269531 9.683594 14.335938 9.003906 14.210938 8.730469 C 14.082031 8.457031 9.300781 9.144531 6.90625 9.960938 C 3.3125 11.191406 1.429688 13.097656 1.6875 13.640625 C 1.945312 14.183594 4.855469 14.453125 8.449219 13.226562 C 10.84375 12.410156 14.851562 10.089844 14.722656 9.820312 C 14.59375 9.546875 13.269531 9.683594 13.269531 9.683594 Z M 13.269531 9.683594 "/>
<path style=" stroke:none;fill-rule:nonzero;fill:rgb(65.098039%,82.745098%,53.333333%);fill-opacity:1;" d="M 13.113281 9.476562 C 13.113281 9.476562 14.21875 8.804688 14.09375 8.523438 C 13.964844 8.242188 9.074219 8.847656 6.613281 9.636719 C 2.921875 10.820312 0.964844 12.730469 1.214844 13.292969 C 1.46875 13.851562 4.433594 14.183594 8.125 13 C 10.589844 12.210938 14.722656 9.925781 14.597656 9.644531 C 14.472656 9.363281 13.113281 9.476562 13.113281 9.476562 Z M 13.113281 9.476562 "/>
<path style=" stroke:none;fill-rule:nonzero;fill:rgb(96.078431%,97.254902%,98.039216%);fill-opacity:1;" d="M 13.113281 9.476562 C 13.113281 9.476562 14.160156 8.839844 14.097656 8.546875 L 1.566406 12.492188 C 1.265625 12.839844 1.140625 13.125 1.214844 13.292969 C 1.28125 13.4375 1.53125 13.566406 1.921875 13.65625 L 14.589844 9.671875 C 14.589844 9.664062 14.601562 9.652344 14.597656 9.644531 C 14.472656 9.363281 13.113281 9.476562 13.113281 9.476562 Z M 13.113281 9.476562 "/>
<path style=" stroke:none;fill-rule:nonzero;fill:rgb(83.137255%,67.058824%,53.333333%);fill-opacity:1;" d="M 1.160156 6.273438 C 1.015625 6.34375 0.554688 6.457031 0.332031 6.597656 C 0.152344 6.714844 -0.0195312 6.707031 0.0273438 6.855469 C 0.0703125 6.980469 0.242188 6.945312 0.539062 6.910156 C 0.839844 6.875 1.34375 6.789062 1.507812 6.671875 Z M 10.6875 4.9375 C 10.847656 4.976562 11.320312 5 11.566406 5.097656 C 11.761719 5.175781 12.03125 5.132812 12.011719 5.285156 C 11.992188 5.417969 11.71875 5.417969 11.417969 5.441406 C 11.117188 5.464844 10.605469 5.476562 10.421875 5.394531 Z M 6.125 0.414062 C 5.460938 0.152344 4.425781 0.492188 4.304688 1.265625 C 4.1875 2.035156 4.40625 3.246094 5.082031 3.171875 C 5.789062 3.09375 6.519531 2.941406 6.804688 2.210938 C 7.09375 1.480469 6.789062 0.675781 6.125 0.414062 Z M 6.125 0.414062 "/>
<path style=" stroke:none;fill-rule:nonzero;fill:rgb(83.137255%,67.058824%,53.333333%);fill-opacity:1;" d="M 6.617188 2.398438 C 7.582031 1.265625 5.257812 1.375 5.257812 1.375 C 4.816406 1.390625 5.121094 2.125 4.910156 2.523438 C 4.769531 2.800781 5.367188 2.949219 5.367188 2.949219 C 5.367188 2.949219 5.644531 2.945312 5.65625 3.277344 L 5.65625 3.28125 C 5.660156 3.367188 5.652344 3.464844 5.613281 3.601562 C 5.414062 4.269531 6.3125 4.675781 6.507812 4.007812 C 6.585938 3.746094 6.554688 3.511719 6.515625 3.296875 L 6.511719 3.277344 C 6.453125 2.960938 6.378906 2.679688 6.617188 2.398438 Z M 6.617188 2.398438 "/>
<path style=" stroke:none;fill-rule:nonzero;fill:rgb(58.823529%,23.137255%,13.333333%);fill-opacity:1;" d="M 6.882812 0.683594 C 6.441406 0.164062 5.832031 -0.046875 4.792969 0.355469 C 3.882812 0.707031 4.222656 1.488281 4.386719 1.304688 C 4.648438 1.015625 5 1.101562 5 1.101562 L 5.277344 1.914062 C 5.277344 1.914062 5.40625 1.992188 5.460938 1.714844 C 5.515625 1.441406 5.886719 1.414062 6.007812 1.632812 C 6.195312 1.976562 5.949219 2.042969 5.925781 2.25 C 5.855469 2.902344 6.578125 2.875 6.578125 2.875 C 6.578125 2.875 6.71875 2.929688 6.957031 2.457031 C 7.195312 1.988281 7.320312 1.195312 6.882812 0.683594 Z M 6.882812 0.683594 "/>
<path style=" stroke:none;fill-rule:nonzero;fill:rgb(83.137255%,67.058824%,53.333333%);fill-opacity:1;" d="M 6.777344 11.847656 C 6.617188 11.804688 6.496094 11.667969 6.4375 11.519531 C 6.414062 11.457031 6.335938 11.148438 6.335938 11.148438 L 5.386719 11.265625 C 5.402344 11.355469 5.433594 11.480469 5.460938 11.660156 C 5.484375 11.792969 5.425781 11.972656 5.46875 12.054688 C 5.507812 12.140625 5.808594 12.363281 6.007812 12.40625 C 6.523438 12.511719 7.046875 12.261719 7.109375 12.191406 C 7.203125 12.085938 6.933594 11.886719 6.777344 11.847656 Z M 9.90625 10.503906 C 9.765625 10.476562 9.652344 10.363281 9.59375 10.238281 C 9.570312 10.1875 9.503906 9.96875 9.503906 9.96875 L 8.664062 10.082031 C 8.6875 10.160156 8.71875 10.265625 8.753906 10.417969 C 8.78125 10.535156 8.742188 10.691406 8.78125 10.761719 C 8.824219 10.832031 9.097656 11.011719 9.273438 11.035156 C 9.726562 11.097656 10.164062 10.847656 10.214844 10.78125 C 10.289062 10.683594 10.042969 10.53125 9.90625 10.503906 Z M 9.90625 10.503906 "/>
<path style=" stroke:none;fill-rule:nonzero;fill:rgb(16.078431%,18.431373%,20%);fill-opacity:1;" d="M 10.699219 4.921875 C 10.597656 4.90625 9.5 4.617188 9.21875 4.484375 C 8.839844 4.132812 8.183594 3.753906 8 3.632812 C 7.820312 3.511719 7.652344 3.367188 7.238281 3.332031 L 6.558594 3.332031 L 6.242188 3.652344 L 5.648438 3.332031 L 4.921875 3.402344 C 4.003906 3.542969 3.253906 4.664062 2.925781 5.132812 C 2.773438 5.25 2.640625 5.386719 2.550781 5.4375 C 2.390625 5.53125 1.378906 6.066406 1.160156 6.273438 L 1.511719 6.71875 C 1.640625 6.601562 2.238281 6.472656 2.65625 6.285156 C 2.820312 6.210938 3.261719 6.160156 3.480469 5.945312 L 3.488281 5.953125 C 4.070312 5.546875 4.457031 5.109375 4.621094 4.871094 L 5.085938 7.082031 C 5.085938 7.082031 5.085938 7.78125 5.109375 7.890625 C 5.148438 8.046875 5.257812 8.496094 5.257812 8.675781 C 5.257812 8.675781 5.003906 9.234375 5.132812 9.710938 C 5.300781 10.347656 5.386719 11.15625 5.402344 11.382812 C 5.992188 11.382812 6.335938 11.148438 6.335938 11.148438 C 6.335938 11.148438 6.222656 10.882812 6.269531 10.492188 C 6.296875 10.253906 6.511719 9.824219 6.511719 9.46875 C 6.511719 9.117188 6.472656 8.902344 6.523438 8.753906 C 6.574219 8.609375 6.773438 8.148438 6.804688 7.898438 C 6.8125 7.832031 6.808594 7.742188 6.796875 7.648438 C 7.019531 7.769531 7.417969 7.980469 7.664062 8.046875 C 8.019531 8.144531 8.285156 8.292969 8.378906 8.375 C 8.472656 8.457031 8.535156 8.515625 8.535156 8.515625 C 8.535156 8.515625 8.453125 8.746094 8.476562 9.148438 C 8.5 9.511719 8.660156 9.839844 8.703125 10.273438 C 9.074219 10.21875 9.523438 10.035156 9.523438 10.035156 C 9.523438 10.035156 9.484375 9.507812 9.488281 9.265625 C 9.5 8.972656 9.660156 8.351562 9.601562 8.089844 C 9.503906 7.683594 8.976562 7.238281 8.484375 6.863281 C 7.996094 6.488281 7.496094 6.261719 7.496094 6.261719 C 7.648438 5.234375 7.492188 4.6875 7.492188 4.6875 C 7.492188 4.6875 8.246094 5.023438 8.984375 5.246094 C 9.222656 5.367188 9.929688 5.480469 10.644531 5.457031 C 10.828125 5.449219 10.835938 4.941406 10.699219 4.921875 Z M 10.699219 4.921875 "/>
<path style=" stroke:none;fill-rule:nonzero;fill:rgb(40.392157%,45.882353%,49.803922%);fill-opacity:1;" d="M 3.027344 5.496094 C 3.359375 5.027344 4.273438 3.679688 5.292969 3.589844 C 5.292969 3.589844 5.757812 4.199219 6.359375 4.105469 C 6.964844 4.011719 6.976562 3.554688 6.976562 3.554688 L 7.699219 3.617188 C 7.902344 3.636719 8.046875 3.679688 8.164062 3.734375 C 8.097656 3.691406 8.039062 3.65625 8 3.632812 C 7.820312 3.511719 7.652344 3.367188 7.238281 3.332031 L 6.558594 3.332031 L 6.242188 3.652344 L 5.648438 3.332031 L 4.921875 3.402344 C 4.003906 3.542969 3.253906 4.664062 2.925781 5.132812 C 2.773438 5.25 2.640625 5.386719 2.550781 5.4375 C 2.390625 5.53125 1.378906 6.066406 1.160156 6.273438 L 1.28125 6.425781 C 1.792969 6.09375 2.878906 5.617188 3.027344 5.496094 Z M 9.675781 4.769531 C 9.863281 4.859375 10.414062 5.015625 10.789062 5.117188 C 10.78125 5.015625 10.753906 4.929688 10.699219 4.921875 C 10.613281 4.910156 9.65625 4.636719 9.234375 4.492188 C 9.324219 4.558594 9.519531 4.683594 9.675781 4.769531 Z M 8.785156 9.472656 C 8.757812 9.074219 8.792969 8.789062 8.753906 8.703125 C 8.714844 8.621094 8.539062 8.515625 8.539062 8.515625 C 8.539062 8.515625 8.453125 8.746094 8.480469 9.148438 C 8.5 9.511719 8.660156 9.839844 8.703125 10.273438 C 8.832031 10.253906 8.96875 10.21875 9.09375 10.183594 C 8.839844 10.074219 8.800781 9.726562 8.785156 9.472656 Z M 8.785156 9.472656 "/>
<path style=" stroke:none;fill-rule:nonzero;fill:rgb(40.392157%,45.882353%,49.803922%);fill-opacity:1;" d="M 5.472656 10.0625 C 5.347656 9.582031 5.546875 8.851562 5.546875 8.851562 C 5.546875 8.667969 5.449219 8.285156 5.414062 8.128906 C 5.386719 8.019531 5.371094 7.113281 5.382812 6.996094 C 6.992188 6.945312 7.496094 6.261719 7.496094 6.261719 C 7.496094 6.261719 6.574219 6.808594 5.320312 6.640625 C 5.175781 6.339844 4.890625 4.667969 4.890625 4.667969 C 4.800781 4.65625 4.683594 4.761719 4.621094 4.871094 L 5.085938 7.082031 C 5.085938 7.082031 5.085938 7.78125 5.109375 7.890625 C 5.148438 8.046875 5.257812 8.496094 5.257812 8.675781 C 5.257812 8.675781 5.003906 9.234375 5.132812 9.710938 C 5.300781 10.347656 5.386719 11.15625 5.402344 11.382812 C 5.566406 11.382812 5.707031 11.363281 5.828125 11.339844 C 5.542969 11.082031 5.59375 10.515625 5.472656 10.0625 Z M 5.472656 10.0625 "/>
</g>
</svg>
