<?xml version="1.0" encoding="UTF-8"?>
<svg xmlns="http://www.w3.org/2000/svg" xmlns:xlink="http://www.w3.org/1999/xlink" width="15pt" height="15pt" viewBox="0 0 15 15" version="1.1">
<g id="surface1">
<path style=" stroke:none;fill-rule:nonzero;fill:rgb(80%,60.784314%,47.843137%);fill-opacity:1;" d="M 9.722656 13.15625 C 9.554688 12.863281 8.863281 11.6875 8.773438 11.402344 C 8.6875 11.117188 8.503906 8.9375 8.597656 7.863281 C 8.597656 7.863281 6.859375 6.734375 7.011719 7.980469 C 7.167969 9.242188 7.53125 11.636719 7.601562 11.867188 C 7.671875 12.097656 8.679688 13.300781 8.992188 13.699219 C 9.167969 13.917969 9.867188 13.410156 9.722656 13.15625 Z M 9.722656 13.15625 "/>
<path style=" stroke:none;fill-rule:nonzero;fill:rgb(74.509804%,9.803922%,19.215686%);fill-opacity:1;" d="M 8.644531 7.863281 L 6.78125 7.980469 C 6.878906 8.664062 6.511719 9.914062 7.410156 10.515625 C 7.410156 10.515625 8.582031 10.269531 9.257812 10.496094 C 9.597656 10.609375 8.582031 8.488281 8.644531 7.863281 Z M 8.644531 7.863281 "/>
<path style=" stroke:none;fill-rule:nonzero;fill:rgb(83.529412%,67.058824%,53.333333%);fill-opacity:1;" d="M 8.230469 7.539062 C 8.011719 6.34375 6.054688 7.734375 6.054688 7.734375 C 6.054688 7.734375 5.316406 11.339844 5.316406 11.683594 C 5.316406 12.03125 5.699219 13.570312 5.804688 14.125 C 5.839844 14.308594 6.898438 14.378906 6.855469 13.976562 C 6.824219 13.726562 6.640625 12.105469 6.667969 11.914062 C 6.699219 11.722656 6.859375 10.710938 7.132812 10.070312 C 7.328125 9.613281 8.519531 9.132812 8.230469 7.539062 Z M 8.230469 7.539062 "/>
<path style=" stroke:none;fill-rule:nonzero;fill:rgb(86.666667%,18.039216%,26.666667%);fill-opacity:1;" d="M 5.808594 7.734375 L 5.066406 10.183594 C 6.101562 10.578125 7.382812 10.570312 7.410156 10.515625 C 7.441406 10.4375 7.191406 10.265625 7.230469 10.195312 C 7.472656 9.734375 8.996094 9.132812 8.636719 7.539062 C 8.367188 6.34375 5.808594 7.734375 5.808594 7.734375 Z M 5.808594 7.734375 "/>
<path style=" stroke:none;fill-rule:nonzero;fill:rgb(40%,45.882353%,49.803922%);fill-opacity:1;" d="M 5.511719 1.449219 C 5.449219 1.566406 5.242188 1.574219 5.054688 1.472656 L 3.96875 0.878906 C 3.78125 0.777344 3.980469 0.335938 4.167969 0.441406 L 5.289062 1.050781 C 5.476562 1.15625 5.511719 1.449219 5.511719 1.449219 Z M 5.511719 1.449219 "/>
<path style=" stroke:none;fill-rule:nonzero;fill:rgb(80%,83.921569%,86.666667%);fill-opacity:1;" d="M 6.878906 14.058594 C 6.605469 13.699219 4.914062 14.167969 4.332031 14.457031 C 3.941406 14.652344 4.058594 15 4.058594 15 L 6.988281 15 C 6.988281 15 7.152344 14.421875 6.878906 14.058594 Z M 6.878906 14.058594 "/>
<path style=" stroke:none;fill-rule:nonzero;fill:rgb(80%,60.784314%,47.843137%);fill-opacity:1;" d="M 8.480469 3.722656 C 7.585938 3.253906 6.390625 2.578125 5.453125 1.339844 C 5.355469 1.210938 4.566406 1.734375 4.632812 1.824219 C 5.515625 3.046875 6.480469 4.113281 9.246094 4.90625 C 9.273438 4.914062 8.851562 3.914062 8.480469 3.722656 Z M 8.480469 3.722656 "/>
<path style=" stroke:none;fill-rule:nonzero;fill:rgb(83.529412%,67.058824%,53.333333%);fill-opacity:1;" d="M 10.582031 2.171875 C 10.582031 2.996094 9.914062 3.664062 9.089844 3.664062 C 8.265625 3.664062 7.597656 2.996094 7.597656 2.171875 C 7.597656 1.351562 8.265625 0.683594 9.089844 0.683594 C 9.914062 0.683594 10.582031 1.347656 10.582031 2.171875 "/>
<path style=" stroke:none;fill-rule:nonzero;fill:rgb(86.666667%,18.039216%,26.666667%);fill-opacity:1;" d="M 8.3125 2.171875 C 7.597656 1.640625 7.234375 0.570312 7.5 0.289062 C 7.996094 -0.242188 9.035156 0.242188 9.300781 0.695312 C 9.570312 1.152344 8.527344 2.335938 8.3125 2.171875 Z M 8.3125 2.171875 "/>
<path style=" stroke:none;fill-rule:nonzero;fill:rgb(57.254902%,40%,80%);fill-opacity:1;" d="M 5.808594 7.734375 C 5.808594 7.734375 5.523438 4.910156 6.800781 3.921875 C 7.753906 3.183594 9.359375 3.734375 9.785156 4.589844 C 10.210938 5.441406 8.6875 5.90625 8.6875 8.039062 C 8.6875 8.464844 5.808594 8.570312 5.808594 7.734375 Z M 5.808594 7.734375 "/>
<path style=" stroke:none;fill-rule:nonzero;fill:rgb(83.529412%,67.058824%,53.333333%);fill-opacity:1;" d="M 8.414062 2.421875 C 8.222656 2.867188 8.085938 3.246094 8.003906 3.582031 C 8.242188 3.695312 8.445312 4.128906 8.714844 4.222656 C 9.152344 4.382812 9.203125 4.109375 9.210938 4.058594 C 9.320312 3.519531 9.589844 3 9.765625 2.722656 C 9.976562 2.386719 8.664062 1.855469 8.414062 2.421875 Z M 8.414062 2.421875 "/>
<path style=" stroke:none;fill-rule:nonzero;fill:rgb(91.764706%,34.901961%,43.137255%);fill-opacity:1;" d="M 7.902344 1.273438 C 7.902344 1.753906 8.597656 3.144531 9.972656 3.140625 C 10.691406 3.136719 10.820312 2.34375 10.816406 1.816406 C 10.8125 1.367188 10.328125 0.582031 9.648438 0.386719 C 8.96875 0.191406 7.902344 0.667969 7.902344 1.273438 Z M 7.902344 1.273438 "/>
<path style=" stroke:none;fill-rule:nonzero;fill:rgb(80%,83.921569%,86.666667%);fill-opacity:1;" d="M 9.542969 13.105469 C 10.167969 13 10.078125 13.683594 10.0625 13.929688 C 10.023438 14.511719 9.910156 15 9.496094 15 L 8.113281 15 C 8.113281 15 8.035156 14.367188 8.78125 14.222656 C 8.925781 14.191406 8.652344 13.257812 9.542969 13.105469 Z M 9.542969 13.105469 "/>
<path style=" stroke:none;fill-rule:nonzero;fill:rgb(83.529412%,67.058824%,53.333333%);fill-opacity:1;" d="M 7.464844 4.03125 C 6.632812 4.03125 6.035156 3.824219 5.679688 3.414062 C 5.378906 3.066406 5.273438 2.585938 5.347656 1.984375 C 5.59375 1.878906 5.765625 1.640625 5.765625 1.359375 C 5.765625 0.980469 5.449219 0.671875 5.054688 0.671875 C 4.664062 0.671875 4.347656 0.980469 4.347656 1.359375 C 4.347656 1.441406 4.363281 1.515625 4.390625 1.589844 C 4.386719 1.597656 4.382812 1.601562 4.382812 1.609375 C 4.019531 4.578125 6.089844 4.867188 6.769531 4.964844 C 6.8125 4.972656 7.507812 4.03125 7.464844 4.03125 Z M 7.464844 4.03125 "/>
<path style=" stroke:none;fill-rule:nonzero;fill:rgb(58.823529%,23.137255%,13.333333%);fill-opacity:1;" d="M 9.792969 3.292969 C 9.792969 3.292969 9.710938 2.847656 10.335938 2.792969 C 10.851562 2.75 10.988281 3.316406 11.359375 3.515625 C 11.640625 3.667969 11.964844 3.671875 12.1875 3.519531 C 12.1875 3.519531 11.878906 3.894531 11.53125 4.035156 C 11.082031 4.222656 10.527344 4.101562 10.261719 3.960938 C 9.851562 3.742188 9.792969 3.292969 9.792969 3.292969 Z M 9.792969 3.292969 "/>
<path style=" stroke:none;fill-rule:nonzero;fill:rgb(40%,45.882353%,49.803922%);fill-opacity:1;" d="M 12.335938 4.964844 C 12.332031 4.964844 12.328125 4.960938 12.320312 4.960938 C 12.300781 4.945312 12.285156 4.929688 12.261719 4.914062 L 5.75 1.3125 C 5.566406 1.207031 5.457031 1.699219 5.644531 1.800781 L 11.847656 5.234375 C 11.664062 5.546875 11.546875 6.015625 11.5 6.210938 C 11.421875 6.542969 11.976562 6.878906 12.335938 6.878906 C 12.699219 6.878906 12.765625 5.183594 12.335938 4.964844 Z M 12.335938 4.964844 "/>
<path style=" stroke:none;fill-rule:nonzero;fill:rgb(57.254902%,40%,80%);fill-opacity:1;" d="M 6.019531 3.492188 C 5.859375 4.027344 5.351562 4.628906 5.351562 4.628906 C 6.085938 5.285156 6.953125 5.34375 6.953125 5.34375 C 6.953125 5.34375 7.710938 4.492188 7.851562 3.976562 C 7.203125 4.15625 6.019531 3.492188 6.019531 3.492188 Z M 6.019531 3.492188 "/>
</g>
</svg>
