<?xml version="1.0" encoding="UTF-8"?>
<svg xmlns="http://www.w3.org/2000/svg" xmlns:xlink="http://www.w3.org/1999/xlink" width="15pt" height="15pt" viewBox="0 0 15 15" version="1.1">
<g id="surface1">
<path style=" stroke:none;fill-rule:nonzero;fill:rgb(16.470588%,40.392157%,59.215686%);fill-opacity:1;" d="M 8.730469 7.863281 C 8.621094 8.9375 8.730469 11.117188 8.832031 11.402344 C 8.933594 11.691406 9.75 12.863281 9.945312 13.15625 C 10.113281 13.410156 9.097656 14.152344 8.890625 13.933594 C 8.523438 13.539062 7.527344 12.097656 7.449219 11.867188 C 7.367188 11.636719 7.046875 9.242188 6.863281 7.980469 Z M 8.730469 7.863281 "/>
<path style=" stroke:none;fill-rule:nonzero;fill:rgb(40%,45.882353%,49.803922%);fill-opacity:1;" d="M 5.046875 1.472656 L 3.960938 0.878906 C 3.773438 0.777344 3.972656 0.335938 4.160156 0.441406 L 5.28125 1.050781 Z M 5.046875 1.472656 "/>
<path style=" stroke:none;fill-rule:nonzero;fill:rgb(80%,83.921569%,86.666667%);fill-opacity:1;" d="M 6.871094 14.058594 C 6.597656 13.699219 4.90625 14.167969 4.324219 14.457031 C 3.933594 14.652344 4.046875 15 4.046875 15 L 6.980469 15 C 6.980469 15 7.144531 14.421875 6.871094 14.058594 Z M 6.871094 14.058594 "/>
<path style=" stroke:none;fill-rule:nonzero;fill:rgb(93.333333%,76.078431%,67.843137%);fill-opacity:1;" d="M 8.480469 3.722656 C 7.585938 3.253906 6.390625 2.578125 5.453125 1.339844 C 5.355469 1.210938 4.566406 1.734375 4.632812 1.824219 C 5.515625 3.046875 6.480469 4.113281 9.246094 4.90625 C 9.273438 4.914062 8.851562 3.914062 8.480469 3.722656 Z M 8.480469 3.722656 "/>
<path style=" stroke:none;fill-rule:nonzero;fill:rgb(25.882353%,53.72549%,75.686275%);fill-opacity:1;" d="M 9.441406 12.683594 C 9.492188 12.667969 9.546875 12.65625 9.597656 12.640625 C 9.519531 12.523438 9.4375 12.402344 9.351562 12.277344 C 9.304688 12.289062 9.253906 12.308594 9.207031 12.324219 C 9.078125 12.125 8.960938 11.941406 8.875 11.800781 C 8.921875 11.785156 8.972656 11.773438 9.023438 11.761719 C 8.929688 11.605469 8.855469 11.476562 8.832031 11.402344 C 8.828125 11.398438 8.828125 11.390625 8.824219 11.382812 C 8.777344 11.398438 8.730469 11.40625 8.6875 11.421875 C 8.644531 11.273438 8.597656 11.054688 8.554688 10.796875 C 8.617188 10.78125 8.679688 10.765625 8.746094 10.753906 C 8.734375 10.625 8.726562 10.488281 8.71875 10.335938 C 8.640625 10.347656 8.566406 10.363281 8.492188 10.382812 C 8.464844 10.160156 8.441406 9.925781 8.425781 9.695312 C 8.511719 9.675781 8.601562 9.664062 8.691406 9.65625 C 8.6875 9.515625 8.6875 9.375 8.683594 9.238281 C 8.59375 9.246094 8.5 9.253906 8.414062 9.269531 C 8.414062 9.191406 8.417969 9.078125 8.421875 8.984375 C 8.691406 8.632812 8.863281 8.175781 8.71875 7.539062 L 5.433594 7.578125 C 5.433594 7.578125 4.972656 11.339844 4.972656 11.683594 C 4.972656 12.03125 5.1875 13.570312 5.316406 14.125 C 5.359375 14.308594 6.945312 14.378906 6.890625 13.976562 C 6.851562 13.726562 6.621094 12.105469 6.660156 11.914062 C 6.695312 11.734375 6.871094 10.832031 7.175781 10.191406 L 7.203125 10.378906 C 7.226562 10.355469 7.25 10.332031 7.269531 10.308594 C 7.292969 10.519531 7.324219 10.726562 7.355469 10.917969 C 7.332031 10.933594 7.3125 10.949219 7.289062 10.96875 C 7.320312 11.160156 7.347656 11.332031 7.371094 11.472656 C 7.394531 11.445312 7.421875 11.421875 7.449219 11.394531 C 7.5 11.613281 7.648438 11.949219 7.679688 12 C 7.640625 12.03125 7.609375 12.066406 7.574219 12.101562 C 7.636719 12.203125 7.71875 12.328125 7.808594 12.464844 C 7.839844 12.429688 7.871094 12.394531 7.90625 12.359375 C 8.011719 12.523438 8.128906 12.707031 8.253906 12.898438 C 8.222656 12.925781 8.195312 12.957031 8.167969 12.988281 C 8.25 13.105469 8.335938 13.222656 8.417969 13.332031 C 8.441406 13.308594 8.464844 13.28125 8.492188 13.253906 C 8.667969 13.527344 8.835938 13.78125 8.960938 13.96875 C 9.058594 13.988281 9.214844 13.933594 9.378906 13.839844 C 9.246094 13.644531 9.035156 13.324219 8.8125 12.984375 C 8.886719 12.933594 8.96875 12.886719 9.050781 12.84375 C 9.242188 13.140625 9.441406 13.441406 9.605469 13.6875 C 9.730469 13.589844 9.839844 13.480469 9.902344 13.382812 C 9.761719 13.167969 9.601562 12.925781 9.441406 12.683594 Z M 7.734375 10.65625 C 7.707031 10.449219 7.679688 10.222656 7.660156 9.996094 C 7.773438 9.921875 7.890625 9.859375 8.019531 9.8125 C 8.035156 10.042969 8.058594 10.277344 8.085938 10.5 C 7.964844 10.546875 7.847656 10.597656 7.734375 10.65625 Z M 7.8125 11.101562 C 7.917969 11.035156 8.03125 10.972656 8.152344 10.921875 C 8.195312 11.183594 8.25 11.410156 8.300781 11.578125 C 8.199219 11.628906 8.101562 11.683594 8.011719 11.742188 C 7.992188 11.714844 7.867188 11.382812 7.8125 11.101562 Z M 8.582031 12.636719 C 8.457031 12.441406 8.335938 12.257812 8.230469 12.097656 C 8.308594 12.046875 8.394531 12 8.480469 11.957031 C 8.566406 12.09375 8.683594 12.28125 8.820312 12.492188 C 8.738281 12.535156 8.660156 12.585938 8.582031 12.636719 Z M 8.582031 12.636719 "/>
<path style=" stroke:none;fill-rule:nonzero;fill:rgb(53.333333%,78.823529%,97.647059%);fill-opacity:1;" d="M 8 9.414062 C 8.164062 9.273438 8.332031 9.117188 8.464844 8.925781 C 7.089844 9.179688 5.992188 8.902344 5.300781 8.664062 L 5.25 9.085938 C 5.773438 9.261719 6.496094 9.449219 7.378906 9.449219 C 7.578125 9.449219 7.785156 9.433594 8 9.414062 Z M 6.914062 10.878906 C 6.957031 10.738281 7.007812 10.597656 7.0625 10.457031 C 6.265625 10.484375 5.605469 10.34375 5.121094 10.207031 C 5.101562 10.351562 5.085938 10.492188 5.074219 10.625 C 5.539062 10.753906 6.148438 10.878906 6.871094 10.878906 Z M 6.660156 12.121094 C 6.652344 12.023438 6.652344 11.949219 6.65625 11.914062 C 6.664062 11.878906 6.679688 11.800781 6.699219 11.707031 C 6.003906 11.730469 5.421875 11.628906 4.980469 11.523438 C 4.976562 11.597656 4.972656 11.65625 4.972656 11.683594 C 4.972656 11.742188 4.976562 11.839844 4.988281 11.953125 C 5.390625 12.046875 5.898438 12.128906 6.492188 12.128906 C 6.546875 12.128906 6.605469 12.125 6.660156 12.121094 Z M 5.09375 12.816406 C 5.113281 12.960938 5.136719 13.105469 5.15625 13.246094 C 5.417969 13.28125 5.71875 13.308594 6.058594 13.308594 C 6.285156 13.308594 6.53125 13.292969 6.789062 13.261719 C 6.773438 13.128906 6.753906 12.988281 6.734375 12.847656 C 6.082031 12.921875 5.523438 12.878906 5.09375 12.816406 Z M 5.09375 12.816406 "/>
<path style=" stroke:none;fill-rule:nonzero;fill:rgb(33.333333%,67.45098%,93.333333%);fill-opacity:1;" d="M 5.917969 7.804688 C 5.894531 7.917969 5.25 11.382812 5.230469 11.585938 C 5.226562 11.660156 5.222656 11.726562 5.222656 11.765625 C 5.226562 11.824219 5.484375 13.96875 5.519531 14.222656 C 5.632812 14.246094 5.785156 14.261719 5.945312 14.269531 C 5.914062 14.03125 5.644531 11.8125 5.640625 11.742188 C 5.640625 11.71875 5.640625 11.691406 5.640625 11.65625 C 5.652344 11.492188 6.261719 8.195312 6.324219 7.890625 Z M 5.917969 7.804688 "/>
<path style=" stroke:none;fill-rule:nonzero;fill:rgb(33.333333%,67.45098%,93.333333%);fill-opacity:1;" d="M 6.953125 7.6875 C 6.953125 7.695312 6.898438 8.289062 6.824219 8.65625 C 6.804688 8.761719 6.773438 8.878906 6.742188 8.996094 C 6.707031 9.128906 6.667969 9.261719 6.625 9.402344 C 6.519531 9.742188 6.402344 10.097656 6.285156 10.433594 C 6.234375 10.585938 5.929688 11.515625 5.914062 11.683594 C 5.914062 11.714844 5.910156 11.742188 5.914062 11.765625 C 5.917969 11.839844 6.179688 14.019531 6.210938 14.265625 C 6.363281 14.261719 6.507812 14.242188 6.625 14.210938 C 6.59375 13.972656 6.332031 11.820312 6.328125 11.742188 C 6.328125 11.734375 6.332031 11.71875 6.332031 11.707031 C 6.34375 11.578125 6.703125 10.496094 6.714844 10.460938 C 6.832031 10.125 6.949219 9.773438 7.050781 9.4375 C 7.09375 9.292969 7.128906 9.15625 7.164062 9.023438 C 7.1875 8.925781 7.214844 8.828125 7.234375 8.738281 C 7.3125 8.347656 7.367188 7.753906 7.367188 7.726562 Z M 8.082031 7.9375 C 8.082031 8.199219 7.972656 8.734375 7.871094 9.003906 C 7.855469 9.054688 7.523438 9.691406 7.460938 9.828125 C 7.613281 9.707031 7.808594 9.574219 8.003906 9.410156 C 8.085938 9.339844 8.167969 9.265625 8.25 9.183594 C 8.277344 9.113281 8.300781 9.035156 8.328125 8.949219 C 8.425781 8.601562 8.5 8.160156 8.5 7.9375 Z M 8.082031 7.9375 "/>
<path style=" stroke:none;fill-rule:nonzero;fill:rgb(96.862745%,87.058824%,80.784314%);fill-opacity:1;" d="M 10.574219 2.171875 C 10.574219 2.996094 9.90625 3.664062 9.082031 3.664062 C 8.257812 3.664062 7.589844 2.996094 7.589844 2.171875 C 7.589844 1.351562 8.257812 0.683594 9.082031 0.683594 C 9.90625 0.683594 10.574219 1.347656 10.574219 2.171875 "/>
<path style=" stroke:none;fill-rule:nonzero;fill:rgb(25.882353%,53.72549%,75.686275%);fill-opacity:1;" d="M 8.304688 2.171875 C 7.589844 1.640625 7.226562 0.570312 7.492188 0.289062 C 7.988281 -0.242188 9.027344 0.242188 9.292969 0.695312 C 9.5625 1.152344 8.519531 2.335938 8.304688 2.171875 Z M 8.304688 2.171875 "/>
<path style=" stroke:none;fill-rule:nonzero;fill:rgb(46.666667%,69.803922%,33.333333%);fill-opacity:1;" d="M 5.433594 7.578125 C 5.433594 7.578125 5.515625 4.910156 6.792969 3.921875 C 7.746094 3.183594 9.351562 3.734375 9.777344 4.589844 C 10.203125 5.441406 8.773438 5.90625 8.773438 8.039062 C 8.773438 8.464844 5.433594 8.414062 5.433594 7.578125 Z M 5.433594 7.578125 "/>
<path style=" stroke:none;fill-rule:nonzero;fill:rgb(96.862745%,87.058824%,80.784314%);fill-opacity:1;" d="M 8.40625 2.421875 C 8.214844 2.867188 8.078125 3.246094 7.996094 3.582031 C 8.234375 3.695312 8.4375 4.128906 8.703125 4.222656 C 9.144531 4.382812 9.195312 4.109375 9.203125 4.058594 C 9.3125 3.519531 9.582031 3 9.757812 2.722656 C 9.96875 2.386719 8.65625 1.855469 8.40625 2.421875 Z M 8.40625 2.421875 "/>
<path style=" stroke:none;fill-rule:nonzero;fill:rgb(31.372549%,64.705882%,90.196078%);fill-opacity:1;" d="M 7.890625 1.273438 C 7.890625 1.753906 8.589844 3.144531 9.964844 3.140625 C 10.683594 3.136719 10.8125 2.34375 10.808594 1.816406 C 10.804688 1.367188 10.320312 0.582031 9.640625 0.386719 C 8.960938 0.191406 7.890625 0.667969 7.890625 1.273438 Z M 7.890625 1.273438 "/>
<path style=" stroke:none;fill-rule:nonzero;fill:rgb(80%,83.921569%,86.666667%);fill-opacity:1;" d="M 9.535156 13.105469 C 10.160156 13 10.070312 13.683594 10.054688 13.929688 C 10.015625 14.511719 9.902344 15 9.488281 15 L 8.105469 15 C 8.105469 15 8.027344 14.367188 8.773438 14.222656 C 8.917969 14.191406 8.640625 13.257812 9.535156 13.105469 Z M 9.535156 13.105469 "/>
<path style=" stroke:none;fill-rule:nonzero;fill:rgb(96.862745%,87.058824%,80.784314%);fill-opacity:1;" d="M 5.679688 3.414062 C 5.378906 3.066406 5.273438 2.585938 5.347656 1.984375 C 5.59375 1.878906 5.765625 1.640625 5.765625 1.359375 C 5.765625 0.980469 5.449219 0.671875 5.054688 0.671875 C 4.664062 0.671875 4.347656 0.980469 4.347656 1.359375 C 4.347656 1.445312 4.363281 1.527344 4.394531 1.601562 C 4.390625 1.605469 4.382812 1.605469 4.382812 1.609375 C 4.019531 4.578125 6.089844 4.867188 6.769531 4.964844 C 6.8125 4.972656 7.507812 4.03125 7.464844 4.03125 C 6.632812 4.03125 6.035156 3.824219 5.679688 3.414062 Z M 5.679688 3.414062 "/>
<path style=" stroke:none;fill-rule:nonzero;fill:rgb(46.666667%,69.803922%,33.333333%);fill-opacity:1;" d="M 6.019531 3.492188 C 5.859375 4.027344 5.351562 4.628906 5.351562 4.628906 C 6.085938 5.285156 6.953125 5.34375 6.953125 5.34375 C 6.953125 5.34375 7.710938 4.492188 7.851562 3.976562 C 7.203125 4.15625 6.019531 3.492188 6.019531 3.492188 Z M 6.019531 3.492188 "/>
<path style=" stroke:none;fill-rule:nonzero;fill:rgb(40%,45.882353%,49.803922%);fill-opacity:1;" d="M 12.328125 4.964844 C 12.324219 4.964844 12.320312 4.960938 12.3125 4.960938 C 12.292969 4.945312 12.277344 4.929688 12.253906 4.914062 L 5.742188 1.3125 C 5.558594 1.207031 5.449219 1.699219 5.636719 1.800781 L 11.839844 5.234375 C 11.65625 5.546875 11.539062 6.015625 11.492188 6.210938 C 11.414062 6.542969 11.96875 6.878906 12.328125 6.878906 C 12.691406 6.878906 12.757812 5.183594 12.328125 4.964844 Z M 12.328125 4.964844 "/>
</g>
</svg>
