<?xml version="1.0" encoding="UTF-8"?>
<svg xmlns="http://www.w3.org/2000/svg" xmlns:xlink="http://www.w3.org/1999/xlink" width="15pt" height="15pt" viewBox="0 0 15 15" version="1.1">
<g id="surface1">
<path style=" stroke:none;fill-rule:nonzero;fill:rgb(60%,66.666667%,70.980392%);fill-opacity:1;" d="M 2.707031 10 C 1.441406 10 0.417969 11.027344 0.417969 12.292969 C 0.417969 13.558594 1.441406 14.582031 2.707031 14.582031 C 3.972656 14.582031 5 13.558594 5 12.292969 C 5 11.027344 3.972656 10 2.707031 10 Z M 2.707031 13.75 C 1.902344 13.75 1.25 13.097656 1.25 12.292969 C 1.25 11.484375 1.902344 10.832031 2.707031 10.832031 C 3.515625 10.832031 4.167969 11.484375 4.167969 12.292969 C 4.167969 13.097656 3.515625 13.75 2.707031 13.75 Z M 12.292969 10 C 11.027344 10 10 11.027344 10 12.292969 C 10 13.558594 11.027344 14.582031 12.292969 14.582031 C 13.558594 14.582031 14.582031 13.558594 14.582031 12.292969 C 14.582031 11.027344 13.558594 10 12.292969 10 Z M 12.292969 13.75 C 11.484375 13.75 10.832031 13.097656 10.832031 12.292969 C 10.832031 11.484375 11.484375 10.832031 12.292969 10.832031 C 13.097656 10.832031 13.75 11.484375 13.75 12.292969 C 13.75 13.097656 13.097656 13.75 12.292969 13.75 Z M 12.292969 13.75 "/>
<path style=" stroke:none;fill-rule:nonzero;fill:rgb(16.078431%,18.431373%,20%);fill-opacity:1;" d="M 2.707031 9.546875 C 1.210938 9.546875 0 10.761719 0 12.253906 C 0 13.75 1.210938 14.964844 2.707031 14.964844 C 4.203125 14.964844 5.417969 13.75 5.417969 12.253906 C 5.417969 10.761719 4.203125 9.546875 2.707031 9.546875 Z M 2.707031 14.128906 C 1.671875 14.128906 0.832031 13.292969 0.832031 12.253906 C 0.832031 11.21875 1.671875 10.378906 2.707031 10.378906 C 3.742188 10.378906 4.582031 11.21875 4.582031 12.253906 C 4.582031 13.292969 3.742188 14.128906 2.707031 14.128906 Z M 12.292969 9.546875 C 10.796875 9.546875 9.582031 10.761719 9.582031 12.253906 C 9.582031 13.75 10.796875 14.964844 12.292969 14.964844 C 13.789062 14.964844 15 13.75 15 12.253906 C 15 10.761719 13.789062 9.546875 12.292969 9.546875 Z M 12.292969 14.128906 C 11.257812 14.128906 10.417969 13.292969 10.417969 12.253906 C 10.417969 11.21875 11.257812 10.378906 12.292969 10.378906 C 13.328125 10.378906 14.167969 11.21875 14.167969 12.253906 C 14.167969 13.292969 13.328125 14.128906 12.292969 14.128906 Z M 12.292969 14.128906 "/>
<path style=" stroke:none;fill-rule:nonzero;fill:rgb(46.666667%,69.803922%,33.333333%);fill-opacity:1;" d="M 2.917969 11.269531 C 2.082031 12.9375 3.332031 12.347656 3.75 11.515625 C 4.128906 10.761719 5.183594 10.503906 5.691406 11.359375 C 5.296875 10.089844 4.109375 9.167969 2.707031 9.167969 C 2.136719 9.167969 1.601562 9.324219 1.140625 9.589844 C 2.320312 9.660156 3.375 10.355469 2.917969 11.269531 Z M 2.917969 11.269531 "/>
<path style=" stroke:none;fill-rule:nonzero;fill:rgb(60%,66.666667%,70.980392%);fill-opacity:1;" d="M 12.5 12.082031 C 12.5 12.3125 12.3125 12.5 12.082031 12.5 L 8.332031 12.5 C 8.101562 12.5 7.917969 12.3125 7.917969 12.082031 C 7.917969 11.851562 8.101562 11.667969 8.332031 11.667969 L 12.082031 11.667969 C 12.3125 11.667969 12.5 11.851562 12.5 12.082031 Z M 12.5 12.082031 "/>
<path style=" stroke:none;fill-rule:nonzero;fill:rgb(60%,66.666667%,70.980392%);fill-opacity:1;" d="M 12.46875 12.628906 C 12.289062 12.769531 12.027344 12.742188 11.882812 12.558594 L 9.546875 9.625 C 9.40625 9.445312 9.4375 9.183594 9.617188 9.039062 C 9.796875 8.894531 10.058594 8.925781 10.199219 9.105469 L 12.535156 12.042969 C 12.679688 12.222656 12.648438 12.484375 12.46875 12.628906 Z M 12.46875 12.628906 "/>
<path style=" stroke:none;fill-rule:nonzero;fill:rgb(80%,83.921569%,86.666667%);fill-opacity:1;" d="M 5.191406 8.484375 C 5.386719 8.609375 5.445312 8.867188 5.320312 9.0625 L 3.300781 12.222656 C 3.175781 12.414062 2.917969 12.472656 2.722656 12.347656 C 2.53125 12.222656 2.472656 11.964844 2.597656 11.773438 L 4.617188 8.613281 C 4.742188 8.417969 5 8.363281 5.191406 8.484375 Z M 5.191406 8.484375 "/>
<path style=" stroke:none;fill-rule:nonzero;fill:rgb(46.666667%,69.803922%,33.333333%);fill-opacity:1;" d="M 4.386719 7.238281 C 4.050781 7.480469 2.5 7.917969 3.75 8.75 C 5 9.582031 5.871094 10.46875 5.871094 11.25 C 5.871094 12.359375 5.597656 12.917969 6.25 12.917969 L 9.167969 12.917969 C 9.167969 12.917969 8.75 11.25 10 10 C 11.25 8.75 12.082031 9.167969 13.332031 8.75 C 14.125 8.484375 15 7.917969 15 7.5 C 15 7.082031 15 6.667969 14.167969 7.082031 C 13.332031 7.5 13.75 7.730469 12.917969 7.3125 C 12.082031 6.894531 11.601562 7.5 11.183594 7.5 C 10.765625 7.5 8.011719 8.199219 7.589844 7.480469 C 7.359375 7.082031 6.847656 6.667969 6.089844 6.667969 C 5.539062 6.667969 4.792969 6.945312 4.386719 7.238281 Z M 4.386719 7.238281 "/>
<path style=" stroke:none;fill-rule:nonzero;fill:rgb(40%,45.882353%,49.803922%);fill-opacity:1;" d="M 8.75 12.082031 C 8.75 12.542969 8.378906 12.917969 7.917969 12.917969 C 7.457031 12.917969 7.082031 12.542969 7.082031 12.082031 C 7.082031 11.625 7.457031 11.25 7.917969 11.25 C 8.378906 11.25 8.75 11.625 8.75 12.082031 Z M 8.75 12.082031 "/>
<path style=" stroke:none;fill-rule:nonzero;fill:rgb(80%,83.921569%,86.666667%);fill-opacity:1;" d="M 10.75 11.65625 L 14.617188 10.101562 L 15.082031 11.261719 L 11.214844 12.816406 Z M 10.75 11.65625 "/>
<path style=" stroke:none;fill-rule:nonzero;fill:rgb(100%,100%,100%);fill-opacity:1;" d="M 10.90625 12.042969 L 14.769531 10.488281 L 14.925781 10.875 L 11.0625 12.429688 Z M 10.90625 12.042969 "/>
<path style=" stroke:none;fill-rule:nonzero;fill:rgb(40%,45.882353%,49.803922%);fill-opacity:1;" d="M 11.0625 12.429688 L 14.925781 10.875 L 15.082031 11.261719 L 11.214844 12.816406 Z M 11.0625 12.429688 "/>
<path style=" stroke:none;fill-rule:nonzero;fill:rgb(16.078431%,18.431373%,20%);fill-opacity:1;" d="M 7.917969 7.558594 C 8.484375 7.71875 10.269531 7.554688 10.75 7.515625 C 11.234375 7.480469 11.414062 7.703125 10.75 8.035156 C 10 8.414062 8.410156 9.355469 7.917969 9.546875 C 7.5 9.710938 6.042969 9.042969 5.867188 8.839844 C 5.695312 8.636719 7.429688 7.417969 7.917969 7.558594 Z M 14.167969 7.082031 C 13.519531 7.101562 12.917969 7.082031 12.5 7.082031 C 12.082031 7.082031 12.015625 7.542969 13.144531 7.542969 C 14.273438 7.542969 14.167969 7.082031 14.167969 7.082031 Z M 14.167969 7.082031 "/>
<path style=" stroke:none;fill-rule:nonzero;fill:rgb(46.666667%,69.803922%,33.333333%);fill-opacity:1;" d="M 1.558594 7.066406 C 1.558594 6.457031 3.414062 4.925781 3.214844 5.199219 C 2.734375 5.855469 3.007812 6.648438 3.832031 6.648438 C 4.65625 6.648438 4.960938 9.367188 3.75 8.75 C 2.539062 8.132812 1.558594 7.367188 1.558594 7.066406 Z M 1.558594 7.066406 "/>
<path style=" stroke:none;fill-rule:nonzero;fill:rgb(80%,83.921569%,86.666667%);fill-opacity:1;" d="M 3.585938 4.402344 C 3.878906 4.65625 3.730469 5.109375 3.152344 5.855469 C 2.570312 6.601562 1.65625 6.90625 2.167969 6.082031 C 2.675781 5.257812 3.585938 4.402344 3.585938 4.402344 Z M 3.585938 4.402344 "/>
<path style=" stroke:none;fill-rule:nonzero;fill:rgb(40%,45.882353%,49.803922%);fill-opacity:1;" d="M 4.386719 7.238281 C 4.308594 7.433594 4.082031 7.53125 3.882812 7.453125 L 3.828125 7.429688 C 3.628906 7.351562 3.535156 7.125 3.613281 6.925781 L 3.945312 6.097656 C 4.027344 5.898438 4.25 5.800781 4.449219 5.882812 L 4.503906 5.902344 C 4.703125 5.984375 4.800781 6.207031 4.71875 6.40625 Z M 4.386719 7.238281 "/>
<path style=" stroke:none;fill-rule:nonzero;fill:rgb(16.078431%,18.431373%,20%);fill-opacity:1;" d="M 5.378906 5.828125 C 5.417969 5.9375 5.363281 6.058594 5.253906 6.097656 L 4.472656 6.378906 C 4.363281 6.417969 4.242188 6.363281 4.203125 6.253906 C 4.164062 6.144531 4.222656 6.027344 4.328125 5.988281 L 5.113281 5.703125 C 5.222656 5.664062 5.339844 5.722656 5.378906 5.828125 Z M 5.378906 5.828125 "/>
</g>
</svg>
