<?xml version="1.0" encoding="UTF-8"?>
<svg xmlns="http://www.w3.org/2000/svg" xmlns:xlink="http://www.w3.org/1999/xlink" width="15pt" height="15pt" viewBox="0 0 15 15" version="1.1">
<g id="surface1">
<path style=" stroke:none;fill-rule:nonzero;fill:rgb(25.882353%,53.72549%,75.686275%);fill-opacity:1;" d="M 15 2.082031 L 15 13.332031 C 15 13.332031 15 15 13.332031 15 L 1.667969 15 C 0 15 0 13.332031 0 13.332031 L 0 11.25 C 0 11.25 10.417969 10.417969 15 2.082031 Z M 15 2.082031 "/>
<path style=" stroke:none;fill-rule:nonzero;fill:rgb(10.980392%,38.823529%,60%);fill-opacity:1;" d="M 13.269531 9.683594 C 13.269531 9.683594 14.335938 9.003906 14.210938 8.730469 C 14.082031 8.457031 9.300781 9.144531 6.90625 9.960938 C 3.3125 11.191406 1.429688 13.097656 1.6875 13.640625 C 1.945312 14.183594 4.855469 14.453125 8.449219 13.226562 C 10.84375 12.410156 14.851562 10.089844 14.722656 9.820312 C 14.59375 9.546875 13.269531 9.683594 13.269531 9.683594 Z M 13.269531 9.683594 "/>
<path style=" stroke:none;fill-rule:nonzero;fill:rgb(65.098039%,82.745098%,53.333333%);fill-opacity:1;" d="M 13.113281 9.476562 C 13.113281 9.476562 14.21875 8.804688 14.09375 8.523438 C 13.964844 8.242188 9.074219 8.847656 6.613281 9.636719 C 2.921875 10.820312 0.964844 12.730469 1.214844 13.292969 C 1.46875 13.851562 4.433594 14.183594 8.125 13 C 10.589844 12.210938 14.722656 9.925781 14.597656 9.644531 C 14.472656 9.363281 13.113281 9.476562 13.113281 9.476562 Z M 13.113281 9.476562 "/>
<path style=" stroke:none;fill-rule:nonzero;fill:rgb(96.078431%,97.254902%,98.039216%);fill-opacity:1;" d="M 13.113281 9.476562 C 13.113281 9.476562 14.160156 8.839844 14.097656 8.546875 L 1.566406 12.492188 C 1.265625 12.839844 1.140625 13.125 1.214844 13.292969 C 1.28125 13.4375 1.53125 13.566406 1.921875 13.65625 L 14.589844 9.671875 C 14.589844 9.664062 14.601562 9.652344 14.597656 9.644531 C 14.472656 9.363281 13.113281 9.476562 13.113281 9.476562 Z M 13.113281 9.476562 "/>
<path style=" stroke:none;fill-rule:nonzero;fill:rgb(96.862745%,87.058824%,80.784314%);fill-opacity:1;" d="M 11.566406 5.097656 C 11.320312 5 11.003906 4.980469 10.6875 4.9375 C 10.1875 4.863281 9.5 4.617188 9.21875 4.484375 C 8.875 4.277344 8.144531 3.792969 7.960938 3.671875 C 7.78125 3.550781 7.539062 3.386719 7.238281 3.332031 L 7.175781 3.332031 C 7.335938 3.558594 7.429688 3.816406 7.484375 4.515625 C 7.484375 4.515625 8.871094 5.210938 8.984375 5.246094 C 9.453125 5.402344 10.308594 5.398438 10.792969 5.460938 C 11.046875 5.492188 11.21875 5.453125 11.417969 5.441406 C 11.71875 5.421875 11.992188 5.417969 12.011719 5.285156 C 12.03125 5.132812 11.761719 5.175781 11.566406 5.097656 Z M 6.125 0.414062 C 5.460938 0.152344 4.425781 0.492188 4.304688 1.265625 C 4.1875 2.035156 4.40625 3.246094 5.082031 3.171875 C 5.789062 3.09375 6.519531 2.941406 6.804688 2.210938 C 7.09375 1.480469 6.789062 0.675781 6.125 0.414062 Z M 6.125 0.414062 "/>
<path style=" stroke:none;fill-rule:nonzero;fill:rgb(96.862745%,87.058824%,80.784314%);fill-opacity:1;" d="M 6.617188 2.398438 C 7.582031 1.265625 5.257812 1.375 5.257812 1.375 C 4.816406 1.390625 5.121094 2.125 4.910156 2.523438 C 4.769531 2.800781 5.367188 2.949219 5.367188 2.949219 C 5.367188 2.949219 5.644531 2.945312 5.65625 3.277344 L 5.65625 3.28125 C 5.660156 3.367188 5.652344 3.464844 5.613281 3.601562 C 5.414062 4.269531 6.3125 4.675781 6.507812 4.007812 C 6.585938 3.746094 6.554688 3.511719 6.515625 3.296875 L 6.511719 3.277344 C 6.453125 2.960938 6.378906 2.679688 6.617188 2.398438 Z M 4.582031 3.5 C 3.890625 3.914062 3.179688 4.769531 2.925781 5.132812 C 2.773438 5.25 2.640625 5.386719 2.550781 5.4375 C 2.390625 5.53125 1.652344 6.035156 1.160156 6.273438 C 1.015625 6.34375 0.554688 6.457031 0.332031 6.597656 C 0.152344 6.714844 -0.0195312 6.707031 0.0273438 6.855469 C 0.0703125 6.980469 0.242188 6.945312 0.539062 6.910156 C 0.839844 6.875 1.34375 6.789062 1.507812 6.671875 C 1.84375 6.453125 2.902344 6.191406 3.425781 5.828125 C 3.515625 5.761719 4.417969 4.925781 4.582031 4.683594 C 4.808594 4.054688 4.699219 3.621094 4.582031 3.5 Z M 4.582031 3.5 "/>
<path style=" stroke:none;fill-rule:nonzero;fill:rgb(16.078431%,18.431373%,20%);fill-opacity:1;" d="M 6.882812 0.683594 C 6.441406 0.164062 5.832031 -0.046875 4.792969 0.355469 C 3.882812 0.707031 4.175781 1.429688 4.386719 1.304688 C 5.164062 0.851562 5.59375 1.519531 5.925781 2.25 C 6.144531 2.730469 6.578125 2.875 6.578125 2.875 C 6.578125 2.875 6.71875 2.929688 6.957031 2.457031 C 7.195312 1.988281 7.320312 1.195312 6.882812 0.683594 Z M 6.882812 0.683594 "/>
<path style=" stroke:none;fill-rule:nonzero;fill:rgb(96.862745%,87.058824%,80.784314%);fill-opacity:1;" d="M 6.777344 11.847656 C 6.617188 11.804688 6.496094 11.667969 6.4375 11.519531 C 6.414062 11.457031 6.285156 11.101562 6.285156 11.101562 L 5.527344 11.101562 C 5.546875 11.191406 5.515625 11.390625 5.472656 11.601562 C 5.449219 11.734375 5.425781 11.972656 5.46875 12.058594 C 5.511719 12.140625 5.808594 12.363281 6.011719 12.40625 C 6.527344 12.511719 7.046875 12.265625 7.113281 12.191406 C 7.203125 12.085938 6.933594 11.886719 6.777344 11.847656 Z M 9.90625 10.503906 C 9.765625 10.476562 9.652344 10.363281 9.59375 10.238281 C 9.570312 10.1875 9.503906 9.96875 9.503906 9.96875 L 8.832031 10.058594 C 8.851562 10.136719 8.820312 10.234375 8.828125 10.390625 C 8.835938 10.53125 8.804688 10.703125 8.847656 10.773438 C 8.886719 10.84375 9.097656 11.011719 9.273438 11.035156 C 9.726562 11.097656 10.164062 10.851562 10.21875 10.785156 C 10.289062 10.683594 10.042969 10.53125 9.90625 10.503906 Z M 9.90625 10.503906 "/>
<path style=" stroke:none;fill-rule:nonzero;fill:rgb(16.078431%,18.431373%,20%);fill-opacity:1;" d="M 6.746094 0.925781 C 7.109375 0.378906 7.902344 0.324219 8.261719 0.730469 C 8.621094 1.132812 8.753906 1.667969 9.234375 1.667969 C 9.386719 1.667969 9.464844 1.808594 9.144531 1.953125 C 8.828125 2.097656 7.527344 2.382812 7.03125 1.457031 C 6.808594 1.183594 6.746094 0.925781 6.746094 0.925781 Z M 9.492188 9.265625 C 9.5 8.972656 9.660156 8.351562 9.601562 8.089844 C 9.503906 7.683594 8.976562 7.238281 8.484375 6.863281 C 7.996094 6.488281 7.496094 6.261719 7.496094 6.261719 C 7.371094 5.472656 7.597656 5.054688 7.59375 4.714844 C 7.589844 4.429688 7.414062 3.609375 7.175781 3.332031 L 6.523438 3.332031 C 6.523438 3.332031 6.625 3.753906 6.253906 3.796875 C 5.878906 3.839844 5.648438 3.332031 5.648438 3.332031 L 4.921875 3.402344 C 4.804688 3.421875 4.691406 3.453125 4.582031 3.5 C 4.738281 3.765625 4.679688 4.453125 4.582031 4.683594 C 4.925781 5.179688 5.222656 5.9375 5.058594 6.875 C 4.917969 7.710938 5.257812 8.496094 5.257812 8.675781 C 5.257812 8.675781 5.046875 9.40625 5.175781 9.882812 C 5.34375 10.519531 5.496094 11.085938 5.511719 11.308594 C 6.101562 11.308594 6.335938 11.148438 6.335938 11.148438 C 6.335938 11.148438 6.222656 10.882812 6.269531 10.492188 C 6.296875 10.253906 6.414062 9.882812 6.414062 9.53125 C 6.414062 9.175781 6.40625 8.921875 6.457031 8.777344 C 6.511719 8.628906 6.675781 8.121094 6.796875 7.648438 C 7.019531 7.769531 7.417969 7.980469 7.664062 8.046875 C 8.019531 8.144531 8.285156 8.292969 8.378906 8.375 C 8.472656 8.457031 8.535156 8.515625 8.535156 8.515625 C 8.535156 8.515625 8.507812 8.777344 8.53125 9.175781 C 8.554688 9.539062 8.753906 9.820312 8.796875 10.257812 C 9.171875 10.203125 9.523438 10.035156 9.523438 10.035156 C 9.523438 10.035156 9.484375 9.507812 9.492188 9.265625 Z M 9.492188 9.265625 "/>
<path style=" stroke:none;fill-rule:nonzero;fill:rgb(40.392157%,45.882353%,49.803922%);fill-opacity:1;" d="M 5.15625 3.582031 L 5.53125 3.546875 C 5.53125 3.546875 6.035156 4.117188 6.40625 4.074219 C 6.777344 4.035156 6.757812 3.511719 6.757812 3.511719 L 7.285156 3.511719 C 7.25 3.441406 7.214844 3.378906 7.175781 3.332031 L 6.523438 3.332031 C 6.523438 3.332031 6.625 3.753906 6.253906 3.796875 C 5.878906 3.839844 5.648438 3.332031 5.648438 3.332031 L 4.921875 3.402344 C 4.804688 3.421875 4.691406 3.453125 4.582031 3.5 C 4.613281 3.554688 4.636719 3.628906 4.652344 3.714844 C 4.796875 3.664062 5.058594 3.597656 5.15625 3.582031 Z M 8.765625 9.351562 C 8.742188 8.953125 8.773438 8.695312 8.773438 8.695312 C 8.773438 8.695312 8.707031 8.636719 8.613281 8.554688 C 8.585938 8.53125 8.539062 8.496094 8.480469 8.464844 L 8.535156 8.515625 C 8.535156 8.515625 8.507812 8.777344 8.53125 9.175781 C 8.554688 9.539062 8.753906 9.820312 8.796875 10.257812 C 8.863281 10.246094 8.929688 10.234375 8.992188 10.21875 C 8.917969 9.902344 8.785156 9.652344 8.765625 9.351562 Z M 5.410156 10.0625 C 5.28125 9.582031 5.492188 8.855469 5.492188 8.855469 C 5.492188 8.671875 5.160156 7.691406 5.304688 6.859375 C 6.96875 6.847656 7.496094 6.261719 7.496094 6.261719 C 7.496094 6.261719 6.363281 6.789062 5.328125 6.484375 C 5.296875 5.738281 5 4.960938 4.617188 4.578125 C 4.605469 4.617188 4.59375 4.65625 4.582031 4.683594 C 4.925781 5.179688 5.222656 5.9375 5.058594 6.875 C 4.917969 7.707031 5.257812 8.496094 5.257812 8.675781 C 5.257812 8.675781 5.046875 9.40625 5.175781 9.882812 C 5.34375 10.519531 5.496094 11.085938 5.511719 11.308594 C 5.585938 11.308594 5.652344 11.308594 5.71875 11.304688 C 5.664062 11.023438 5.542969 10.566406 5.410156 10.0625 Z M 5.410156 10.0625 "/>
</g>
</svg>
