<?xml version="1.0" encoding="UTF-8"?>
<svg xmlns="http://www.w3.org/2000/svg" xmlns:xlink="http://www.w3.org/1999/xlink" width="15pt" height="15pt" viewBox="0 0 15 15" version="1.1">
<g id="surface1">
<path style=" stroke:none;fill-rule:nonzero;fill:rgb(95.294118%,82.352941%,63.529412%);fill-opacity:1;" d="M 5.617188 8.992188 C 5.375 9.125 4.679688 9.523438 4.25 9.910156 C 4.003906 10.132812 4.035156 10.296875 4.113281 10.6875 L 4.121094 10.722656 C 4.199219 11.113281 4.996094 13.65625 5.15625 14.15625 L 5.640625 14.035156 C 5.648438 13.773438 5.660156 12.867188 5.566406 12.28125 C 5.535156 12.085938 5.503906 11.847656 5.476562 11.636719 C 5.445312 11.414062 5.417969 11.203125 5.398438 11.105469 C 5.367188 10.941406 5.421875 10.835938 5.570312 10.761719 C 5.890625 10.605469 6.167969 10.480469 6.304688 10.421875 Z M 10.066406 11.246094 C 9.84375 11.21875 9.632812 11.191406 9.53125 11.183594 C 9.363281 11.175781 9.273438 11.097656 9.242188 10.933594 C 9.171875 10.582031 9.121094 10.28125 9.097656 10.136719 L 7.539062 10.441406 C 7.609375 10.710938 7.820312 11.484375 8.085938 11.996094 C 8.238281 12.292969 8.40625 12.300781 8.804688 12.324219 L 8.839844 12.328125 C 9.238281 12.351562 11.902344 12.214844 12.421875 12.191406 L 12.425781 11.6875 C 12.179688 11.617188 11.304688 11.375 10.714844 11.320312 C 10.515625 11.300781 10.277344 11.269531 10.066406 11.246094 Z M 10.066406 11.246094 "/>
<path style=" stroke:none;fill-rule:nonzero;fill:rgb(53.333333%,60%,65.098039%);fill-opacity:1;" d="M 11.710938 12.402344 L 11.644531 12.277344 C 11.632812 12.257812 11.644531 12.234375 11.664062 12.226562 C 11.734375 12.203125 11.867188 12.140625 11.914062 12.117188 C 11.875 12.210938 11.828125 12.359375 11.773438 12.402344 C 11.753906 12.421875 11.722656 12.429688 11.710938 12.402344 Z M 11.710938 12.402344 "/>
<path style=" stroke:none;fill-rule:nonzero;fill:rgb(74.509804%,9.803922%,19.215686%);fill-opacity:1;" d="M 12.722656 11.414062 C 12.667969 11.371094 12.542969 11.351562 12.464844 11.34375 C 12.410156 11.335938 12.273438 11.332031 12.15625 11.339844 C 12.101562 11.34375 12.042969 11.347656 12.015625 11.355469 C 11.941406 11.378906 11.90625 11.410156 11.886719 11.433594 C 11.867188 11.460938 11.863281 11.488281 11.867188 11.503906 C 11.890625 11.5625 11.988281 11.667969 12.027344 11.765625 C 12.042969 11.796875 12.050781 11.828125 12.046875 11.859375 C 12.039062 11.964844 11.902344 12.121094 11.796875 12.238281 C 11.738281 12.308594 11.6875 12.363281 11.6875 12.382812 C 11.683594 12.40625 11.691406 12.425781 11.699219 12.445312 C 11.726562 12.496094 11.789062 12.550781 11.832031 12.691406 C 11.859375 12.78125 11.984375 13.191406 11.984375 13.191406 C 12.015625 13.296875 12.054688 13.324219 12.074219 13.378906 C 12.109375 13.496094 12.171875 13.804688 12.203125 13.902344 C 12.234375 14 12.308594 14.042969 12.363281 14.050781 C 12.421875 14.058594 12.453125 14.046875 12.453125 14.046875 C 12.453125 14.046875 12.589844 13.984375 12.675781 13.484375 C 12.742188 13.121094 12.683594 13.0625 12.636719 12.515625 C 12.589844 11.972656 12.722656 11.414062 12.722656 11.414062 Z M 12.722656 11.414062 "/>
<path style=" stroke:none;fill-rule:nonzero;fill:rgb(86.666667%,18.039216%,26.666667%);fill-opacity:1;" d="M 12.609375 12.226562 C 12.515625 12.1875 12.308594 12.050781 12.25 11.902344 C 12.199219 11.769531 12.160156 11.410156 12.15625 11.339844 C 12.265625 11.328125 12.4375 11.335938 12.496094 11.34375 C 12.566406 11.347656 12.652344 11.355469 12.703125 11.398438 L 12.722656 11.414062 C 12.722656 11.414062 12.632812 11.988281 12.609375 12.226562 Z M 12.609375 12.226562 "/>
<path style=" stroke:none;fill-rule:nonzero;fill:rgb(80%,83.921569%,86.666667%);fill-opacity:1;" d="M 11.808594 12.640625 C 11.777344 12.640625 11.746094 12.621094 11.730469 12.59375 C 11.710938 12.550781 11.730469 12.5 11.769531 12.480469 L 11.902344 12.417969 C 11.949219 12.398438 11.996094 12.417969 12.015625 12.457031 C 12.035156 12.5 12.015625 12.550781 11.976562 12.570312 L 11.84375 12.632812 C 11.832031 12.636719 11.820312 12.640625 11.808594 12.640625 Z M 11.890625 12.882812 C 11.855469 12.882812 11.824219 12.859375 11.8125 12.824219 C 11.796875 12.78125 11.824219 12.734375 11.867188 12.722656 L 12.015625 12.675781 C 12.054688 12.660156 12.105469 12.683594 12.121094 12.726562 C 12.132812 12.773438 12.109375 12.820312 12.066406 12.832031 L 11.917969 12.878906 C 11.910156 12.882812 11.902344 12.882812 11.890625 12.882812 Z M 11.964844 13.132812 C 11.925781 13.132812 11.890625 13.105469 11.882812 13.066406 C 11.875 13.019531 11.902344 12.976562 11.945312 12.964844 L 12.085938 12.9375 C 12.132812 12.929688 12.175781 12.957031 12.183594 13.003906 C 12.191406 13.046875 12.164062 13.09375 12.117188 13.101562 L 11.980469 13.128906 C 11.972656 13.128906 11.96875 13.132812 11.964844 13.132812 Z M 13.042969 11.519531 C 13.039062 11.507812 13.03125 11.464844 13.003906 11.414062 C 12.992188 11.394531 12.972656 11.390625 12.949219 11.386719 C 12.921875 11.382812 12.714844 11.355469 12.710938 11.394531 C 12.710938 11.394531 12.710938 11.457031 12.683594 11.5 C 12.652344 11.542969 12.632812 11.648438 12.625 11.722656 C 12.617188 11.800781 12.585938 12.09375 12.589844 12.300781 C 12.597656 12.503906 12.664062 12.875 12.664062 13 C 12.667969 13.121094 12.664062 13.316406 12.640625 13.457031 C 12.613281 13.601562 12.585938 13.726562 12.5625 13.804688 C 12.535156 13.90625 12.496094 13.988281 12.453125 14.046875 C 12.453125 14.046875 12.617188 14.035156 12.742188 13.796875 C 12.839844 13.605469 12.894531 13.425781 12.914062 13.246094 C 12.917969 13.234375 12.957031 12.761719 12.980469 12.523438 C 12.992188 12.351562 13.019531 12.074219 13.019531 12.074219 C 13.050781 11.746094 13.058594 11.582031 13.042969 11.519531 Z M 13.042969 11.519531 "/>
<path style=" stroke:none;fill-rule:nonzero;fill:rgb(53.333333%,60%,65.098039%);fill-opacity:1;" d="M 4.765625 13.546875 L 4.867188 13.445312 C 4.886719 13.433594 4.910156 13.433594 4.925781 13.453125 C 4.964844 13.511719 5.0625 13.621094 5.097656 13.660156 C 5 13.648438 4.84375 13.644531 4.785156 13.609375 C 4.761719 13.59375 4.746094 13.566406 4.765625 13.546875 Z M 4.765625 13.546875 "/>
<path style=" stroke:none;fill-rule:nonzero;fill:rgb(74.509804%,9.803922%,19.215686%);fill-opacity:1;" d="M 6 14.234375 C 6.027344 14.171875 6.011719 14.046875 5.996094 13.96875 C 5.988281 13.914062 5.953125 13.78125 5.910156 13.671875 C 5.894531 13.621094 5.871094 13.5625 5.855469 13.542969 C 5.8125 13.476562 5.773438 13.453125 5.746094 13.441406 C 5.714844 13.425781 5.683594 13.433594 5.671875 13.441406 C 5.621094 13.480469 5.550781 13.601562 5.46875 13.671875 C 5.441406 13.695312 5.414062 13.710938 5.382812 13.714844 C 5.277344 13.738281 5.089844 13.648438 4.949219 13.585938 C 4.863281 13.546875 4.796875 13.511719 4.777344 13.515625 C 4.753906 13.523438 4.738281 13.535156 4.722656 13.546875 L 4.722656 13.550781 C 4.679688 13.589844 4.648438 13.664062 4.523438 13.746094 C 4.445312 13.796875 4.085938 14.035156 4.085938 14.035156 C 3.996094 14.09375 3.980469 14.140625 3.933594 14.171875 C 3.832031 14.238281 3.550781 14.386719 3.46875 14.445312 C 3.382812 14.5 3.363281 14.585938 3.371094 14.640625 C 3.378906 14.699219 3.402344 14.726562 3.402344 14.726562 C 3.402344 14.726562 3.496094 14.839844 4.003906 14.78125 C 4.371094 14.738281 4.410156 14.667969 4.917969 14.46875 C 5.429688 14.265625 6 14.234375 6 14.234375 Z M 6 14.234375 "/>
<path style=" stroke:none;fill-rule:nonzero;fill:rgb(86.666667%,18.039216%,26.666667%);fill-opacity:1;" d="M 5.191406 14.355469 C 5.199219 14.257812 5.273438 14.019531 5.398438 13.921875 C 5.511719 13.832031 5.847656 13.695312 5.910156 13.671875 C 5.953125 13.773438 5.996094 13.941406 6.003906 13.996094 C 6.019531 14.066406 6.039062 14.152344 6.011719 14.210938 L 6 14.234375 C 6 14.234375 5.425781 14.3125 5.191406 14.355469 Z M 5.191406 14.355469 "/>
<path style=" stroke:none;fill-rule:nonzero;fill:rgb(80%,83.921569%,86.666667%);fill-opacity:1;" d="M 4.742188 13.875 C 4.722656 13.875 4.699219 13.867188 4.683594 13.847656 L 4.582031 13.738281 C 4.554688 13.703125 4.554688 13.652344 4.589844 13.621094 C 4.625 13.589844 4.675781 13.59375 4.707031 13.628906 L 4.804688 13.738281 C 4.835938 13.769531 4.832031 13.824219 4.800781 13.855469 C 4.78125 13.867188 4.765625 13.875 4.742188 13.875 Z M 4.523438 14.042969 C 4.496094 14.042969 4.46875 14.03125 4.453125 14.007812 L 4.367188 13.878906 C 4.339844 13.839844 4.351562 13.789062 4.390625 13.765625 C 4.425781 13.738281 4.480469 13.746094 4.503906 13.785156 L 4.59375 13.914062 C 4.617188 13.953125 4.609375 14.003906 4.570312 14.03125 C 4.554688 14.039062 4.539062 14.042969 4.523438 14.042969 Z M 4.285156 14.179688 C 4.257812 14.179688 4.226562 14.164062 4.210938 14.136719 L 4.144531 14.011719 C 4.125 13.96875 4.140625 13.921875 4.179688 13.898438 C 4.21875 13.875 4.269531 13.890625 4.292969 13.933594 L 4.359375 14.058594 C 4.382812 14.097656 4.367188 14.148438 4.324219 14.171875 C 4.3125 14.175781 4.300781 14.179688 4.285156 14.179688 Z M 5.992188 14.570312 C 6.003906 14.566406 6.042969 14.546875 6.082031 14.503906 C 6.097656 14.492188 6.097656 14.46875 6.09375 14.445312 C 6.085938 14.417969 6.058594 14.210938 6.015625 14.21875 C 6.015625 14.21875 5.957031 14.238281 5.910156 14.222656 C 5.859375 14.203125 5.753906 14.214844 5.675781 14.230469 C 5.601562 14.246094 5.3125 14.296875 5.117188 14.359375 C 4.921875 14.425781 4.585938 14.59375 4.464844 14.632812 C 4.347656 14.667969 4.164062 14.722656 4.019531 14.734375 C 3.875 14.75 3.746094 14.761719 3.664062 14.761719 C 3.558594 14.765625 3.46875 14.75 3.402344 14.726562 C 3.402344 14.726562 3.460938 14.878906 3.722656 14.929688 C 3.933594 14.96875 4.125 14.972656 4.300781 14.941406 C 4.3125 14.9375 4.777344 14.84375 5.011719 14.796875 C 5.183594 14.761719 5.453125 14.707031 5.453125 14.707031 C 5.777344 14.644531 5.9375 14.605469 5.992188 14.570312 Z M 5.992188 14.570312 "/>
<path style=" stroke:none;fill-rule:nonzero;fill:rgb(62.745098%,1.568627%,11.764706%);fill-opacity:1;" d="M 5.453125 8.945312 C 5.757812 8.785156 6.773438 8.28125 7.46875 8.210938 C 7.53125 8.203125 8.105469 9.835938 8.027344 9.863281 C 7.710938 9.964844 6.910156 10.234375 6.304688 10.558594 C 6.242188 10.589844 6.164062 10.574219 6.125 10.519531 C 5.945312 10.265625 5.480469 9.578125 5.375 9.089844 C 5.363281 9.03125 5.394531 8.972656 5.453125 8.945312 Z M 5.453125 8.945312 "/>
<path style=" stroke:none;fill-rule:nonzero;fill:rgb(74.509804%,9.803922%,19.215686%);fill-opacity:1;" d="M 7.449219 10.566406 C 7.371094 10.238281 7.121094 9.148438 7.207031 8.464844 C 7.214844 8.402344 8.746094 8.179688 8.746094 8.179688 C 8.816406 8.171875 8.996094 9.464844 9.164062 10.117188 C 9.179688 10.1875 9.148438 10.257812 9.085938 10.285156 C 8.808594 10.398438 8.058594 10.6875 7.570312 10.671875 C 7.511719 10.671875 7.464844 10.628906 7.449219 10.566406 Z M 7.449219 10.566406 "/>
<path style=" stroke:none;fill-rule:nonzero;fill:rgb(95.294118%,82.352941%,63.529412%);fill-opacity:1;" d="M 6.167969 4.683594 C 6.121094 4.953125 6.273438 5.28125 6.890625 5.410156 C 7.507812 5.539062 7.957031 5.523438 8.277344 5.5 C 8.546875 5.480469 8.511719 5.898438 8.574219 6.335938 C 8.632812 6.773438 8.671875 7.34375 8.648438 7.429688 C 8.605469 7.582031 8.347656 7.628906 8.464844 7.898438 C 8.582031 8.167969 8.601562 8.3125 8.859375 8.226562 C 9.113281 8.144531 9.367188 8.050781 9.441406 7.910156 C 9.511719 7.773438 9.261719 7.46875 9.257812 7.300781 C 9.253906 7.179688 9.378906 5.648438 9.371094 5.46875 C 9.363281 5.246094 9.355469 4.945312 9.003906 4.808594 C 8.648438 4.671875 7.292969 4.320312 6.929688 4.25 C 6.550781 4.175781 6.230469 4.332031 6.167969 4.683594 Z M 6.167969 4.683594 "/>
<path style=" stroke:none;fill-rule:nonzero;fill:rgb(95.294118%,82.352941%,63.529412%);fill-opacity:1;" d="M 6.871094 2.753906 C 7.003906 2.589844 7.101562 2.390625 7.148438 2.148438 C 7.320312 1.28125 6.816406 0.453125 6.027344 0.296875 C 5.238281 0.140625 4.160156 0.726562 4.183594 1.609375 C 4.207031 2.488281 4.695312 3.78125 5.433594 3.5625 C 5.625 3.507812 5.820312 3.441406 6.003906 3.367188 C 6.082031 3.460938 6.140625 3.816406 6.109375 4.121094 C 6.023438 4.902344 7.097656 4.984375 7.183594 4.203125 C 7.246094 3.585938 6.863281 3.191406 6.871094 2.753906 Z M 6.871094 2.753906 "/>
<path style=" stroke:none;fill-rule:nonzero;fill:rgb(100%,89.803922%,11.764706%);fill-opacity:1;" d="M 9.125 1.140625 C 8.578125 1.132812 8.085938 0.570312 7.523438 0.929688 C 7.414062 1 7.335938 1.070312 7.273438 1.140625 C 7.175781 0.84375 7.007812 0.570312 6.730469 0.390625 C 6.460938 0.214844 6.128906 0.0820312 5.816406 0.117188 C 3.910156 0.332031 4.011719 1.714844 4.160156 1.84375 C 4.304688 1.972656 4.699219 1.605469 4.992188 1.5625 C 5.128906 1.542969 5.425781 1.542969 5.582031 1.765625 C 5.710938 1.949219 5.753906 2.320312 5.753906 2.320312 C 5.753906 2.320312 5.761719 1.898438 5.773438 1.75 C 5.785156 1.613281 5.921875 1.453125 6.105469 1.660156 C 6.265625 1.835938 6.183594 2.1875 6.074219 2.222656 C 5.988281 2.253906 6.125 2.464844 6.34375 2.625 C 6.738281 2.917969 7.042969 2.804688 7.085938 2.785156 C 7.132812 2.769531 7.28125 2.738281 7.355469 2.230469 C 7.367188 2.160156 7.375 2.085938 7.378906 2.007812 C 7.535156 2.140625 7.792969 2.304688 8.140625 2.304688 C 8.527344 2.308594 9.234375 2.109375 9.636719 1.628906 C 9.945312 1.257812 10.074219 0.648438 10.074219 0.648438 C 9.910156 0.957031 9.539062 1.144531 9.125 1.140625 Z M 9.125 1.140625 "/>
<path style=" stroke:none;fill-rule:nonzero;fill:rgb(86.666667%,18.039216%,26.666667%);fill-opacity:1;" d="M 8.175781 4.558594 C 7.875 3.847656 7.433594 3.476562 6.832031 3.675781 C 6.296875 3.855469 6.03125 4.15625 5.871094 4.492188 C 5.796875 4.65625 5.496094 5.300781 5.679688 5.714844 C 6.03125 6.53125 6.613281 8.160156 6.714844 8.65625 C 6.714844 8.65625 6.847656 8.792969 7.714844 8.683594 C 8.476562 8.589844 8.855469 8.515625 8.855469 8.515625 C 8.738281 7.433594 8.667969 5.703125 8.175781 4.558594 Z M 8.175781 4.558594 "/>
<path style=" stroke:none;fill-rule:nonzero;fill:rgb(95.294118%,82.352941%,63.529412%);fill-opacity:1;" d="M 7.167969 4.609375 C 6.925781 4.457031 6.542969 4.472656 6.164062 5.019531 C 5.789062 5.566406 5.621094 6.011719 5.511719 6.332031 C 5.421875 6.605469 5.03125 6.398438 4.582031 6.28125 C 4.128906 6.164062 3.558594 5.96875 3.480469 5.90625 C 3.351562 5.804688 3.410156 5.535156 3.101562 5.539062 C 2.792969 5.542969 2.640625 5.503906 2.621094 5.785156 C 2.597656 6.070312 2.585938 6.355469 2.691406 6.480469 C 2.796875 6.609375 3.195312 6.488281 3.359375 6.550781 C 3.480469 6.597656 4.921875 7.347656 5.101562 7.414062 C 5.316406 7.492188 5.613281 7.609375 5.890625 7.324219 C 6.171875 7.035156 7.066406 5.855469 7.28125 5.53125 C 7.507812 5.191406 7.484375 4.816406 7.167969 4.609375 Z M 7.167969 4.609375 "/>
</g>
</svg>
