<?xml version="1.0" encoding="UTF-8"?>
<svg xmlns="http://www.w3.org/2000/svg" xmlns:xlink="http://www.w3.org/1999/xlink" width="15pt" height="15pt" viewBox="0 0 15 15" version="1.1">
<g id="surface1">
<path style=" stroke:none;fill-rule:nonzero;fill:rgb(16.078431%,18.431373%,20%);fill-opacity:1;" d="M 11.96875 5.355469 C 11.96875 5.355469 13.554688 6.039062 14.273438 5.539062 C 14.988281 5.042969 15.152344 4.386719 14.753906 3.566406 C 14.359375 2.75 13.246094 2.429688 13.207031 1.363281 C 13.207031 1.363281 13.085938 3.089844 13.839844 3.65625 C 14.90625 4.460938 13.652344 5.410156 12.371094 5.25 C 11.089844 5.09375 11.96875 5.355469 11.96875 5.355469 Z M 11.96875 5.355469 "/>
<path style=" stroke:none;fill-rule:nonzero;fill:rgb(54.117647%,29.411765%,21.960784%);fill-opacity:1;" d="M 9.949219 8.074219 C 9.949219 8.074219 9.6875 9.132812 10.027344 10.167969 C 10.085938 10.3125 10.046875 10.402344 9.9375 10.453125 C 9.832031 10.503906 8.148438 11.09375 7.96875 11.1875 C 7.804688 11.277344 7.492188 11.929688 7.464844 12.378906 C 7.816406 12.46875 8.140625 12.421875 8.140625 12.421875 C 8.140625 12.421875 8.152344 11.625 8.230469 11.570312 C 8.304688 11.519531 10.597656 11.132812 10.753906 10.832031 C 10.910156 10.53125 11.425781 9.214844 11.09375 8.628906 C 11 8.464844 10.828125 8.148438 10.828125 8.148438 Z M 9.949219 8.074219 "/>
<path style=" stroke:none;fill-rule:nonzero;fill:rgb(16.078431%,18.431373%,20%);fill-opacity:1;" d="M 7.464844 12.378906 C 7.464844 12.378906 7.207031 13.207031 7.46875 13.269531 C 7.722656 13.328125 8.175781 13.109375 8.199219 13 C 8.234375 12.855469 8.289062 12.507812 8.242188 12.429688 C 8.191406 12.351562 7.464844 12.378906 7.464844 12.378906 Z M 7.464844 12.378906 "/>
<path style=" stroke:none;fill-rule:nonzero;fill:rgb(54.117647%,29.411765%,21.960784%);fill-opacity:1;" d="M 4.921875 9.113281 L 4.609375 8.046875 C 4.609375 8.046875 3.457031 8.925781 2.96875 9.542969 C 2.824219 9.726562 2.199219 10.878906 2.25 11.382812 C 2.273438 11.585938 2.449219 12.460938 2.449219 12.460938 L 3.136719 12.265625 C 3.136719 12.265625 2.589844 11.476562 2.710938 11.199219 C 3.304688 9.839844 4.921875 9.113281 4.921875 9.113281 Z M 4.921875 9.113281 "/>
<path style=" stroke:none;fill-rule:nonzero;fill:rgb(16.078431%,18.431373%,20%);fill-opacity:1;" d="M 3.199219 12.261719 C 3.128906 12.203125 2.449219 12.460938 2.449219 12.460938 C 2.449219 12.460938 2.472656 13.328125 2.738281 13.300781 C 2.996094 13.277344 3.355469 12.921875 3.34375 12.8125 C 3.328125 12.667969 3.269531 12.316406 3.199219 12.261719 Z M 3.199219 12.261719 "/>
<path style=" stroke:none;fill-rule:nonzero;fill:rgb(75.686275%,41.176471%,30.980392%);fill-opacity:1;" d="M 11.328125 4.660156 C 9.894531 4.726562 8.324219 4.84375 7.371094 4.84375 C 5.847656 4.84375 5.195312 4.25 4.636719 3.75 C 3.683594 2.902344 3.402344 1.992188 2.5 2.292969 C 2.5 2.292969 2.238281 2.121094 1.980469 1.96875 L 1.871094 1.90625 C 1.765625 1.84375 1.667969 1.789062 1.597656 1.761719 C 1.53125 1.730469 1.492188 1.722656 1.503906 1.753906 C 1.511719 1.777344 1.542969 1.816406 1.601562 1.875 C 1.796875 2.070312 1.882812 2.269531 1.90625 2.457031 C 1.066406 2.957031 1.03125 3.40625 0.707031 3.9375 C 0.503906 4.273438 0.140625 4.792969 0.0585938 4.984375 C -0.113281 5.378906 0.484375 5.839844 0.769531 5.570312 C 1.140625 5.21875 1.171875 5.101562 1.617188 4.84375 C 2.027344 4.835938 2.4375 4.671875 2.578125 4.417969 C 2.578125 4.417969 2.96875 5.285156 3.386719 5.910156 C 3.800781 6.535156 4.425781 7.214844 4.425781 7.214844 C 4.371094 7.726562 4.476562 8.121094 4.65625 8.429688 C 4.496094 8.746094 4.269531 9.183594 4.066406 9.574219 C 3.792969 10.09375 3.453125 10.917969 3.5625 11.082031 C 3.785156 11.414062 4.695312 12.300781 5.285156 12.460938 C 5.714844 12.578125 6.175781 12.644531 6.175781 12.644531 L 6.097656 11.988281 C 6.097656 11.988281 5.539062 12.078125 5.316406 11.953125 C 4.722656 11.621094 4.203125 11.015625 4.1875 10.894531 C 4.160156 10.691406 5.789062 9.699219 6.328125 9.375 C 7.273438 9.417969 8.839844 9.222656 9.921875 8.667969 C 10.324219 9.441406 11.164062 9.714844 11.164062 9.714844 C 11.164062 9.714844 11.441406 10.632812 11.738281 11.433594 C 11.3125 11.65625 9.875 12.789062 9.664062 13.039062 C 9.472656 13.261719 9.308594 14.074219 9.308594 14.074219 C 9.648438 14.230469 9.960938 14.152344 9.960938 14.152344 C 9.960938 14.152344 9.976562 13.503906 10.121094 13.289062 C 10.265625 13.078125 12.082031 12.222656 12.605469 11.847656 C 12.808594 11.703125 12.773438 11.472656 12.714844 11.203125 C 12.578125 10.589844 12.308594 9.210938 12.308594 9.210938 C 14.453125 7.96875 15 4.496094 11.328125 4.660156 Z M 11.328125 4.660156 "/>
<path style=" stroke:none;fill-rule:nonzero;fill:rgb(16.078431%,18.431373%,20%);fill-opacity:1;" d="M 9.308594 14.074219 C 9.308594 14.074219 9.050781 14.90625 9.308594 14.964844 C 9.5625 15.027344 10.015625 14.804688 10.042969 14.699219 C 10.074219 14.554688 10.132812 14.207031 10.082031 14.128906 C 10.03125 14.050781 9.308594 14.074219 9.308594 14.074219 Z M 6.109375 11.871094 C 6.039062 11.929688 6.175781 12.644531 6.175781 12.644531 C 6.175781 12.644531 7.035156 12.769531 7.054688 12.503906 C 7.074219 12.242188 6.785156 11.828125 6.675781 11.820312 C 6.53125 11.808594 6.179688 11.808594 6.109375 11.871094 Z M 6.109375 11.871094 "/>
<path style=" stroke:none;fill-rule:nonzero;fill:rgb(100%,67.45098%,20%);fill-opacity:1;" d="M 10.460938 4.699219 C 9.085938 4.757812 6.667969 4.910156 6.125 4.667969 C 6.152344 5.46875 5.84375 6.171875 6.25 7.527344 C 6.441406 7.570312 9.636719 7.628906 10.808594 7.148438 C 10.527344 5.957031 10.644531 5.484375 10.460938 4.699219 Z M 10.460938 4.699219 "/>
<path style=" stroke:none;fill-rule:nonzero;fill:rgb(38.431373%,19.215686%,12.54902%);fill-opacity:1;" d="M 6.621094 4.765625 C 6.621094 4.765625 6.304688 6.242188 7.625 6.277344 C 8.945312 6.316406 8.789062 5.34375 8.894531 5.234375 C 9 5.128906 10.027344 5.070312 10.027344 4.792969 C 10.027344 4.695312 9.496094 4.738281 9.246094 4.75 C 9.117188 4.753906 7.75 4.835938 6.621094 4.765625 Z M 6.621094 4.765625 "/>
<path style=" stroke:none;fill-rule:nonzero;fill:rgb(36.078431%,56.862745%,23.137255%);fill-opacity:1;" d="M 2.539062 2.378906 C 2.253906 2.574219 1.84375 2.496094 1.84375 2.496094 C 1.597656 2.601562 1.207031 2.976562 1.039062 3.304688 C 0.871094 3.628906 0.402344 4.414062 0.402344 4.414062 C 0.402344 4.414062 0.859375 4.773438 1.121094 5.207031 C 1.121094 5.207031 1.339844 4.988281 1.617188 4.84375 C 2.425781 4.816406 2.578125 4.417969 2.578125 4.417969 C 2.578125 4.417969 2.589844 3.171875 2.539062 2.378906 Z M 1.800781 3.527344 C 1.695312 3.527344 1.609375 3.441406 1.609375 3.335938 C 1.609375 3.230469 1.695312 3.144531 1.800781 3.144531 C 1.90625 3.144531 1.992188 3.230469 1.992188 3.335938 C 1.992188 3.441406 1.90625 3.527344 1.800781 3.527344 Z M 1.800781 3.527344 "/>
<path style=" stroke:none;fill-rule:nonzero;fill:rgb(16.078431%,18.431373%,20%);fill-opacity:1;" d="M 1.917969 3.351562 C 1.917969 3.433594 1.851562 3.5 1.769531 3.5 C 1.691406 3.5 1.625 3.433594 1.625 3.351562 C 1.625 3.273438 1.691406 3.207031 1.769531 3.207031 C 1.851562 3.207031 1.917969 3.273438 1.917969 3.351562 Z M 1.917969 3.351562 "/>
<path style=" stroke:none;fill-rule:nonzero;fill:rgb(96.078431%,97.254902%,98.039216%);fill-opacity:1;" d="M 1.800781 2.957031 C 1.589844 2.957031 1.421875 3.128906 1.421875 3.335938 C 1.421875 3.546875 1.589844 3.714844 1.800781 3.714844 C 2.007812 3.714844 2.179688 3.546875 2.179688 3.335938 C 2.179688 3.128906 2.007812 2.957031 1.800781 2.957031 Z M 1.800781 3.527344 C 1.695312 3.527344 1.609375 3.441406 1.609375 3.335938 C 1.609375 3.230469 1.695312 3.144531 1.800781 3.144531 C 1.90625 3.144531 1.992188 3.230469 1.992188 3.335938 C 1.992188 3.441406 1.90625 3.527344 1.800781 3.527344 Z M 1.058594 5.273438 L 0.320312 4.542969 L 0.425781 4.378906 L 1.191406 5.136719 Z M 2.542969 2.375 L 2.730469 2.371094 L 2.769531 4.410156 L 2.582031 4.414062 Z M 2.542969 2.375 "/>
<path style=" stroke:none;fill-rule:nonzero;fill:rgb(16.078431%,18.431373%,20%);fill-opacity:1;" d="M 5.273438 3.777344 C 6.011719 4.382812 6.585938 3.914062 6.585938 3.914062 C 6.042969 3.800781 5.726562 3.550781 5.457031 3.261719 C 5.804688 3.207031 5.992188 2.984375 5.992188 2.984375 C 5.550781 2.980469 5.230469 2.859375 4.957031 2.695312 C 4.722656 2.4375 4.441406 2.191406 4.015625 2.015625 C 3.894531 1.960938 3.765625 1.925781 3.632812 1.898438 C 3.597656 1.890625 3.558594 1.871094 3.527344 1.867188 C 3.148438 1.820312 2.757812 1.890625 2.386719 2.121094 C 2.25 2.203125 2.296875 2.386719 2.433594 2.378906 C 3.160156 2.34375 3.628906 2.621094 3.878906 3.058594 C 4.785156 4.632812 6.105469 4.675781 6.105469 4.675781 C 6.105469 4.675781 5.570312 4.386719 5.273438 3.777344 Z M 7.402344 9.332031 L 7.25 6.179688 L 7.679688 6.277344 L 7.867188 9.277344 C 7.710938 9.308594 7.402344 9.332031 7.402344 9.332031 Z M 7.402344 9.332031 "/>
<path style=" stroke:none;fill-rule:nonzero;fill:rgb(38.431373%,19.215686%,12.54902%);fill-opacity:1;" d="M 0.980469 5.3125 C 0.902344 5.3125 0.824219 5.265625 0.789062 5.1875 C 0.742188 5.085938 0.789062 4.960938 0.894531 4.914062 C 3.453125 3.773438 5.570312 3.773438 5.679688 3.769531 C 5.792969 3.769531 5.886719 3.863281 5.886719 3.980469 C 5.886719 4.09375 5.792969 4.1875 5.675781 4.1875 C 5.632812 4.1875 3.53125 4.195312 1.066406 5.292969 C 1.039062 5.308594 1.007812 5.3125 0.980469 5.3125 Z M 0.980469 5.3125 "/>
<path style=" stroke:none;fill-rule:nonzero;fill:rgb(100%,86.27451%,36.470588%);fill-opacity:1;" d="M 7.863281 2.296875 C 7.683594 1.6875 6.507812 1.785156 6.582031 1.21875 L 6.53125 1.320312 C 6.519531 1.234375 6.5 1.148438 6.460938 1.0625 C 6.273438 0.644531 5.828125 0.441406 5.464844 0.605469 C 5.148438 0.75 4.738281 0.753906 4.90625 1.289062 C 4.929688 1.371094 4.960938 1.476562 5.007812 1.582031 C 5.195312 1.996094 5.777344 2.273438 6.140625 2.109375 C 6.164062 2.101562 6.179688 2.089844 6.199219 2.078125 C 6.285156 2.128906 6.550781 2.289062 6.976562 2.578125 C 7.480469 2.921875 8.046875 2.910156 7.863281 2.296875 Z M 7.863281 2.296875 "/>
<path style=" stroke:none;fill-rule:nonzero;fill:rgb(100%,67.45098%,20%);fill-opacity:1;" d="M 4.953125 0.589844 C 5.058594 0.382812 5.496094 0.148438 5.867188 0.171875 C 6.285156 0.195312 6.519531 0.488281 6.613281 0.851562 C 6.664062 1.03125 6.632812 1.230469 6.597656 1.378906 C 6.597656 1.378906 6.195312 1.34375 6.238281 1.316406 C 6.320312 1.269531 6.253906 0.976562 6.148438 0.941406 C 6.039062 0.898438 6 1.007812 6.015625 1.089844 C 6.027344 1.175781 6.027344 1.226562 5.980469 1.257812 C 5.933594 1.289062 5.777344 1.046875 5.660156 1 C 5.472656 0.925781 5.039062 1.472656 4.90625 1.289062 C 4.820312 1.171875 4.820312 0.847656 4.953125 0.589844 Z M 4.953125 0.589844 "/>
<path style=" stroke:none;fill-rule:nonzero;fill:rgb(57.254902%,40%,80%);fill-opacity:1;" d="M 5.484375 1.1875 C 5.484375 1.1875 6.144531 0.871094 6.3125 0.824219 C 6.480469 0.777344 6.5625 0.753906 6.59375 0.71875 C 6.621094 0.683594 6.550781 0.625 6.519531 0.589844 C 6.488281 0.550781 6.335938 0.183594 5.988281 0.0703125 C 5.695312 -0.0234375 5.484375 0.0234375 5.328125 0.0898438 C 5.167969 0.152344 4.835938 0.300781 4.757812 0.855469 C 4.71875 1.167969 4.773438 1.332031 4.773438 1.332031 C 4.773438 1.332031 4.574219 1.390625 4.554688 1.394531 C 4.535156 1.398438 4.539062 1.445312 4.628906 1.46875 C 4.722656 1.492188 5.167969 1.441406 5.3125 1.371094 C 5.460938 1.304688 5.445312 1.21875 5.484375 1.1875 Z M 5.484375 1.1875 "/>
<path style=" stroke:none;fill-rule:nonzero;fill:rgb(0%,0%,0%);fill-opacity:1;" d="M 8.679688 5.90625 C 8.601562 5.683594 8.574219 5.605469 8.449219 5.269531 C 8.40625 5.160156 8.355469 5.027344 8.292969 4.855469 L 7.488281 5.167969 C 7.5625 5.328125 7.617188 5.453125 7.664062 5.5625 C 7.816406 5.90625 7.863281 6.109375 7.910156 6.34375 L 7.578125 6.464844 C 7.417969 6.535156 7.242188 6.601562 7.222656 6.851562 C 7.207031 7.046875 7.363281 7.03125 7.484375 7.015625 C 7.664062 6.992188 8.773438 6.804688 8.828125 6.6875 C 8.878906 6.578125 8.769531 6.167969 8.679688 5.90625 Z M 8.679688 5.90625 "/>
<path style=" stroke:none;fill-rule:nonzero;fill:rgb(80%,83.921569%,86.666667%);fill-opacity:1;" d="M 7.488281 5.167969 C 7.488281 5.167969 7.40625 4.957031 7.324219 4.679688 C 7.167969 4.144531 7.089844 3.714844 8.761719 3.289062 C 8.75 3.273438 8.738281 3.25 8.71875 3.226562 C 8.167969 2.453125 6.949219 1.6875 7.265625 1.636719 C 8.863281 1.386719 9.351562 1.632812 10.050781 2.617188 C 10.394531 3.101562 10.441406 3.28125 10.378906 3.527344 C 10.132812 4.5 8.230469 4.058594 8.292969 4.855469 Z M 7.488281 5.167969 "/>
<path style=" stroke:none;fill-rule:nonzero;fill:rgb(36.078431%,56.862745%,23.137255%);fill-opacity:1;" d="M 7.265625 2.953125 C 7.90625 3.390625 8.242188 2.886719 8.761719 3.289062 L 10.125 2.738281 C 9.59375 1.710938 8.09375 0.84375 6.851562 1.480469 C 6.5625 1.628906 6.359375 1.90625 6.417969 2.230469 C 6.539062 2.878906 7.003906 2.773438 7.265625 2.953125 Z M 7.265625 2.953125 "/>
<path style=" stroke:none;fill-rule:nonzero;fill:rgb(65.098039%,82.745098%,53.333333%);fill-opacity:1;" d="M 7.472656 2.148438 C 7.460938 2.113281 7.425781 2.027344 7.398438 2 C 7.273438 1.824219 7.046875 1.746094 6.839844 1.828125 C 6.597656 1.929688 6.480469 2.207031 6.578125 2.449219 C 6.964844 3.453125 7.054688 3.554688 7.011719 3.632812 C 6.996094 3.644531 6.863281 3.75 6.042969 3.667969 L 5.832031 3.75 L 5.832031 4.167969 L 5.960938 4.5 C 6.761719 4.578125 7.359375 4.546875 7.671875 4.136719 C 8.039062 3.660156 7.851562 3.128906 7.472656 2.148438 Z M 7.472656 2.148438 "/>
<path style=" stroke:none;fill-rule:nonzero;fill:rgb(100%,86.27451%,36.470588%);fill-opacity:1;" d="M 6.042969 3.667969 C 5.253906 3.171875 5.195312 3.773438 5.171875 4.003906 C 5.148438 4.230469 5.132812 4.417969 5.960938 4.5 Z M 6.042969 3.667969 "/>
<path style=" stroke:none;fill-rule:nonzero;fill:rgb(66.666667%,72.156863%,76.078431%);fill-opacity:1;" d="M 7.613281 6.449219 L 7.800781 6.382812 C 7.597656 5.875 7.371094 5.957031 7.355469 5.964844 C 7.269531 5.996094 6.96875 6.402344 7.222656 7.011719 C 7.238281 7.050781 7.273438 7.074219 7.3125 7.078125 C 7.328125 7.078125 7.34375 7.074219 7.359375 7.066406 C 7.410156 7.046875 7.4375 6.984375 7.414062 6.933594 C 7.257812 6.558594 7.355469 6.246094 7.425781 6.214844 C 7.5 6.183594 7.597656 6.339844 7.613281 6.449219 Z M 7.613281 6.449219 "/>
</g>
</svg>
