<?xml version="1.0" encoding="UTF-8"?>
<svg xmlns="http://www.w3.org/2000/svg" xmlns:xlink="http://www.w3.org/1999/xlink" width="15pt" height="15pt" viewBox="0 0 15 15" version="1.1">
<g id="surface1">
<path style=" stroke:none;fill-rule:nonzero;fill:rgb(40%,45.882353%,49.803922%);fill-opacity:1;" d="M 11.769531 3.546875 C 11.769531 3.488281 11.722656 3.4375 11.660156 3.4375 L 11.464844 3.4375 C 11.402344 3.4375 11.355469 3.488281 11.355469 3.546875 L 11.355469 8.328125 C 11.355469 8.390625 11.402344 8.4375 11.464844 8.4375 L 11.660156 8.4375 C 11.722656 8.4375 11.769531 8.390625 11.769531 8.328125 Z M 11.769531 3.546875 "/>
<path style=" stroke:none;fill-rule:nonzero;fill:rgb(94.509804%,56.470588%,12.54902%);fill-opacity:1;" d="M 12.1875 8.230469 C 12.1875 8.574219 11.90625 8.855469 11.5625 8.855469 C 11.21875 8.855469 10.9375 8.574219 10.9375 8.230469 C 10.9375 7.882812 11.21875 7.605469 11.5625 7.605469 C 11.90625 7.605469 12.1875 7.882812 12.1875 8.230469 Z M 12.1875 8.230469 "/>
<path style=" stroke:none;fill-rule:nonzero;fill:rgb(94.509804%,56.470588%,12.54902%);fill-opacity:1;" d="M 11.980469 9.269531 C 11.980469 9.5 11.792969 9.6875 11.5625 9.6875 C 11.332031 9.6875 11.144531 9.5 11.144531 9.269531 C 11.144531 9.039062 11.332031 8.855469 11.5625 8.855469 C 11.792969 8.855469 11.980469 9.039062 11.980469 9.269531 Z M 11.980469 9.269531 "/>
<path style=" stroke:none;fill-rule:nonzero;fill:rgb(74.117647%,12.54902%,19.607843%);fill-opacity:1;" d="M 13.855469 3.4375 L 12.132812 3.4375 L 4.144531 0.121094 C 4.136719 0.117188 4.128906 0.117188 4.125 0.117188 C 4.105469 0.109375 4.085938 0.105469 4.0625 0.105469 C 4.035156 0.105469 4.007812 0.109375 3.984375 0.121094 C 3.964844 0.128906 3.949219 0.140625 3.933594 0.152344 C 3.925781 0.15625 3.921875 0.160156 3.917969 0.164062 C 3.898438 0.183594 3.878906 0.207031 3.871094 0.234375 C 3.867188 0.238281 3.871094 0.242188 3.867188 0.246094 L 1.558594 3.5 C 1.558594 3.5 1.558594 3.503906 1.558594 3.503906 C 1.4375 3.578125 1.355469 3.703125 1.355469 3.855469 L 1.355469 4.6875 C 1.355469 4.917969 1.539062 5.105469 1.769531 5.105469 L 2.394531 5.105469 L 0.847656 14.167969 L 0.105469 14.167969 L 0.105469 15 L 8.003906 15 L 8.003906 14.167969 L 7.277344 14.167969 L 5.730469 5.105469 L 13.855469 5.105469 C 14.085938 5.105469 14.269531 4.917969 14.269531 4.6875 L 14.269531 3.855469 C 14.269531 3.625 14.085938 3.4375 13.855469 3.4375 Z M 4.785156 5.105469 L 4.0625 5.683594 L 3.339844 5.105469 Z M 4.0625 8.875 L 5.589844 9.875 L 4.0625 10.710938 L 2.535156 9.875 Z M 2.546875 9.171875 L 2.742188 8.011719 L 3.519531 8.519531 Z M 4.605469 8.519531 L 5.382812 8.011719 L 5.582031 9.171875 Z M 4.0625 8.160156 L 2.882812 7.375 L 4.0625 6.40625 L 5.242188 7.375 Z M 2.996094 6.539062 L 3.144531 5.652344 L 3.617188 6.039062 Z M 4.507812 6.039062 L 4.980469 5.652344 L 5.132812 6.542969 Z M 2.113281 3.4375 L 3.855469 0.984375 L 3.855469 2.605469 L 3.019531 2.605469 C 2.789062 2.605469 2.605469 2.789062 2.605469 3.019531 L 2.605469 3.4375 Z M 2.335938 10.410156 L 3.472656 11.03125 L 2.101562 11.78125 Z M 6.433594 14.167969 L 1.695312 14.167969 L 1.980469 12.488281 L 4.0625 11.355469 L 6.148438 12.492188 Z M 5.792969 10.410156 L 6.027344 11.78125 L 4.652344 11.03125 Z M 5.519531 3.4375 L 5.519531 3.019531 C 5.519531 2.789062 5.335938 2.605469 5.105469 2.605469 L 4.269531 2.605469 L 4.269531 0.625 L 11.046875 3.4375 Z M 6.355469 4.6875 L 5.871094 4.6875 L 5.871094 3.855469 L 6.355469 3.855469 Z M 7.605469 4.6875 L 6.769531 4.6875 L 6.769531 3.855469 L 7.605469 3.855469 Z M 8.855469 4.6875 L 8.019531 4.6875 L 8.019531 3.855469 L 8.855469 3.855469 Z M 10.105469 4.6875 L 9.269531 4.6875 L 9.269531 3.855469 L 10.105469 3.855469 Z M 11.355469 4.6875 L 10.519531 4.6875 L 10.519531 3.855469 L 11.355469 3.855469 Z M 12.605469 4.6875 L 11.769531 4.6875 L 11.769531 3.855469 L 12.605469 3.855469 Z M 13.855469 4.480469 C 13.855469 4.59375 13.761719 4.6875 13.644531 4.6875 L 13.019531 4.6875 L 13.019531 3.855469 L 13.644531 3.855469 C 13.761719 3.855469 13.855469 3.949219 13.855469 4.0625 Z M 13.855469 4.480469 "/>
<path style=" stroke:none;fill-rule:nonzero;fill:rgb(29.411765%,32.941176%,36.470588%);fill-opacity:1;" d="M 5.105469 3.019531 L 4.269531 3.019531 C 4.039062 3.019531 3.855469 3.207031 3.855469 3.4375 L 3.855469 4.269531 C 3.855469 4.5 4.039062 4.6875 4.269531 4.6875 L 5.519531 4.6875 L 5.519531 3.019531 Z M 5.105469 3.019531 "/>
<path style=" stroke:none;fill-rule:nonzero;fill:rgb(80.392157%,84.313725%,87.45098%);fill-opacity:1;" d="M 4.6875 3.019531 L 5.519531 3.019531 L 5.519531 4.6875 L 4.6875 4.6875 Z M 4.6875 3.019531 "/>
<path style=" stroke:none;fill-rule:nonzero;fill:rgb(40%,45.882353%,49.803922%);fill-opacity:1;" d="M 14.519531 10 L 14.519531 9.582031 L 8.605469 9.582031 L 8.605469 10 L 8.957031 10 L 8.957031 11.027344 L 8.605469 11.027344 L 8.605469 11.445312 L 14.519531 11.445312 L 14.519531 11.027344 L 14.167969 11.027344 L 14.167969 10 Z M 14.519531 10 "/>
</g>
</svg>
