<?xml version="1.0" encoding="UTF-8"?>
<svg xmlns="http://www.w3.org/2000/svg" xmlns:xlink="http://www.w3.org/1999/xlink" width="15pt" height="15pt" viewBox="0 0 15 15" version="1.1">
<g id="surface1">
<path style=" stroke:none;fill-rule:nonzero;fill:rgb(47.058824%,69.411765%,34.901961%);fill-opacity:1;" d="M 7.5 10.492188 C 1.433594 10.492188 0 12.433594 0 13.332031 C 0 14.230469 0.746094 15 1.667969 15 L 13.332031 15 C 14.253906 15 15 14.230469 15 13.332031 C 15 12.4375 13.566406 10.492188 7.5 10.492188 Z M 7.5 10.492188 "/>
<path style=" stroke:none;fill-rule:nonzero;fill:rgb(40%,12.941176%,7.45098%);fill-opacity:1;" d="M 12 11.730469 C 12 12.367188 11.484375 12.597656 10.847656 12.597656 C 10.207031 12.597656 9.691406 12.367188 9.691406 11.730469 L 9.980469 9.128906 C 9.980469 8.492188 10.207031 8.550781 10.847656 8.550781 C 11.484375 8.550781 11.714844 8.492188 11.714844 9.128906 Z M 12 11.730469 "/>
<path style=" stroke:none;fill-rule:nonzero;fill:rgb(36.078431%,56.862745%,23.137255%);fill-opacity:1;" d="M 14.527344 8.214844 C 12.617188 6.492188 11.839844 4.027344 10.847656 4.027344 C 9.851562 4.027344 9.078125 6.492188 7.164062 8.214844 C 6.359375 8.941406 6.742188 9.359375 7.84375 9.273438 C 8.828125 9.199219 9.746094 8.964844 10.847656 8.964844 C 11.945312 8.964844 12.867188 9.199219 13.847656 9.273438 C 14.949219 9.359375 15.332031 8.9375 14.527344 8.214844 Z M 14.527344 8.214844 "/>
<path style=" stroke:none;fill-rule:nonzero;fill:rgb(24.313725%,44.705882%,11.372549%);fill-opacity:1;" d="M 13.90625 7.53125 C 12.4375 6.117188 11.613281 4.085938 10.847656 4.085938 C 10.082031 4.085938 9.253906 6.117188 7.785156 7.53125 C 6.617188 8.660156 9.316406 8.910156 10.847656 7.53125 C 12.375 8.910156 15.074219 8.660156 13.90625 7.53125 Z M 13.90625 7.53125 "/>
<path style=" stroke:none;fill-rule:nonzero;fill:rgb(36.078431%,56.862745%,23.137255%);fill-opacity:1;" d="M 13.90625 6.382812 C 12.4375 5.058594 11.613281 3.164062 10.847656 3.164062 C 10.082031 3.164062 9.253906 5.058594 7.785156 6.382812 C 6.617188 7.4375 9.316406 7.671875 10.847656 6.382812 C 12.375 7.671875 15.074219 7.4375 13.90625 6.382812 Z M 13.90625 6.382812 "/>
<path style=" stroke:none;fill-rule:nonzero;fill:rgb(24.313725%,44.705882%,11.372549%);fill-opacity:1;" d="M 13.234375 5.445312 C 12.089844 4.410156 11.445312 2.929688 10.847656 2.929688 C 10.25 2.929688 9.605469 4.410156 8.457031 5.445312 C 7.546875 6.265625 9.652344 6.449219 10.847656 5.445312 C 12.039062 6.449219 14.148438 6.265625 13.234375 5.445312 Z M 13.234375 5.445312 "/>
<path style=" stroke:none;fill-rule:nonzero;fill:rgb(36.078431%,56.862745%,23.137255%);fill-opacity:1;" d="M 13.234375 4.582031 C 12.089844 3.550781 11.445312 2.070312 10.847656 2.070312 C 10.25 2.070312 9.605469 3.550781 8.457031 4.582031 C 7.546875 5.40625 9.652344 5.589844 10.847656 4.582031 C 12.039062 5.589844 14.148438 5.40625 13.234375 4.582031 Z M 13.234375 4.582031 "/>
<path style=" stroke:none;fill-rule:nonzero;fill:rgb(24.313725%,44.705882%,11.372549%);fill-opacity:1;" d="M 12.773438 3.820312 C 11.847656 2.984375 11.328125 1.792969 10.847656 1.792969 C 10.363281 1.792969 9.84375 2.984375 8.917969 3.820312 C 8.183594 4.484375 9.882812 4.632812 10.847656 3.820312 C 11.808594 4.632812 13.511719 4.484375 12.773438 3.820312 Z M 12.773438 3.820312 "/>
<path style=" stroke:none;fill-rule:nonzero;fill:rgb(36.078431%,56.862745%,23.137255%);fill-opacity:1;" d="M 12.773438 3.171875 C 11.847656 2.339844 11.328125 1.144531 10.847656 1.144531 C 10.363281 1.144531 9.84375 2.339844 8.917969 3.171875 C 8.183594 3.835938 9.882812 3.984375 10.847656 3.171875 C 11.808594 3.984375 13.511719 3.835938 12.773438 3.171875 Z M 12.773438 3.171875 "/>
<path style=" stroke:none;fill-rule:nonzero;fill:rgb(24.313725%,44.705882%,11.372549%);fill-opacity:1;" d="M 12.3125 2.21875 C 11.609375 1.585938 11.214844 0.675781 10.847656 0.675781 C 10.480469 0.675781 10.082031 1.585938 9.378906 2.21875 C 8.820312 2.722656 10.113281 2.835938 10.847656 2.21875 C 11.578125 2.835938 12.875 2.722656 12.3125 2.21875 Z M 12.3125 2.21875 "/>
<path style=" stroke:none;fill-rule:nonzero;fill:rgb(36.078431%,56.862745%,23.137255%);fill-opacity:1;" d="M 12.3125 1.789062 C 11.609375 1.152344 11.214844 0.242188 10.847656 0.242188 C 10.480469 0.242188 10.082031 1.152344 9.378906 1.789062 C 8.820312 2.292969 10.113281 2.40625 10.847656 1.789062 C 11.578125 2.40625 12.875 2.292969 12.3125 1.789062 Z M 12.3125 1.789062 "/>
<path style=" stroke:none;fill-rule:nonzero;fill:rgb(95.686275%,56.470588%,4.705882%);fill-opacity:1;" d="M 6.292969 13.75 C 6.117188 13.75 5.957031 13.640625 5.898438 13.472656 L 3.808594 7.625 C 3.765625 7.496094 3.785156 7.363281 3.863281 7.253906 C 3.941406 7.140625 4.066406 7.082031 4.203125 7.082031 L 9.105469 7.082031 C 9.269531 7.082031 9.421875 7.175781 9.488281 7.328125 L 11.992188 13.171875 C 12.050781 13.300781 12.035156 13.445312 11.957031 13.5625 C 11.878906 13.683594 11.75 13.75 11.609375 13.75 Z M 6.292969 13.75 "/>
<path style=" stroke:none;fill-rule:nonzero;fill:rgb(100%,80%,30.196078%);fill-opacity:1;" d="M 1.699219 13.75 C 1.558594 13.75 1.425781 13.679688 1.347656 13.5625 C 1.273438 13.445312 1.257812 13.296875 1.3125 13.167969 L 3.820312 7.316406 C 3.886719 7.164062 4.039062 7.0625 4.207031 7.0625 C 4.371094 7.0625 4.523438 7.164062 4.589844 7.316406 L 7.097656 13.167969 C 7.152344 13.296875 7.140625 13.445312 7.0625 13.5625 C 6.984375 13.679688 6.851562 13.75 6.714844 13.75 Z M 1.699219 13.75 "/>
<path style=" stroke:none;fill-rule:nonzero;fill:rgb(16.078431%,18.431373%,20%);fill-opacity:1;" d="M 4.203125 8.097656 L 3.367188 13.75 L 5.039062 13.75 Z M 4.203125 8.097656 "/>
<path style=" stroke:none;fill-rule:nonzero;fill:rgb(100%,67.45098%,20%);fill-opacity:1;" d="M 5.886719 13.285156 L 6.074219 13.75 L 5.039062 13.75 Z M 2.523438 13.285156 L 2.335938 13.75 L 3.367188 13.75 Z M 2.523438 13.285156 "/>
<path style=" stroke:none;fill-rule:nonzero;fill:rgb(100%,90.980392%,71.372549%);fill-opacity:1;" d="M 5.039062 13.75 C 5.039062 13.75 5.796875 13.554688 6.171875 13.214844 L 4.203125 8.097656 Z M 3.367188 13.75 C 3.367188 13.75 2.609375 13.554688 2.238281 13.214844 L 4.203125 8.097656 Z M 3.367188 13.75 "/>
<path style=" stroke:none;fill-rule:nonzero;fill:rgb(88.235294%,90.980392%,92.941176%);fill-opacity:1;" d="M 5.675781 2.34375 C 5.667969 2.34375 5.664062 2.347656 5.65625 2.347656 C 5.667969 2.277344 5.675781 2.207031 5.675781 2.136719 C 5.675781 1.558594 5.210938 1.09375 4.636719 1.09375 C 4.265625 1.09375 3.941406 1.289062 3.757812 1.582031 C 3.640625 1.535156 3.515625 1.511719 3.386719 1.511719 C 2.855469 1.511719 2.421875 1.910156 2.355469 2.421875 C 2.238281 2.375 2.113281 2.34375 1.980469 2.34375 C 1.402344 2.34375 0.9375 2.808594 0.9375 3.386719 C 0.9375 3.960938 1.402344 4.425781 1.980469 4.425781 L 5.675781 4.425781 C 6.253906 4.425781 6.71875 3.960938 6.71875 3.386719 C 6.71875 2.808594 6.253906 2.34375 5.675781 2.34375 Z M 5.675781 2.34375 "/>
</g>
</svg>
