<?xml version="1.0" encoding="UTF-8"?>
<svg xmlns="http://www.w3.org/2000/svg" xmlns:xlink="http://www.w3.org/1999/xlink" width="15pt" height="15pt" viewBox="0 0 15 15" version="1.1">
<g id="surface1">
<path style=" stroke:none;fill-rule:nonzero;fill:rgb(23.137255%,53.333333%,76.470588%);fill-opacity:1;" d="M 15 12.726562 C 15 11.492188 11.640625 10.492188 7.5 10.492188 C 3.359375 10.492188 0 11.492188 0 12.726562 C 0 13.957031 3.359375 14.957031 7.5 14.957031 C 11.640625 14.957031 15 13.957031 15 12.726562 Z M 15 12.726562 "/>
<path style=" stroke:none;fill-rule:nonzero;fill:rgb(53.333333%,78.823529%,97.647059%);fill-opacity:1;" d="M 14.089844 11.890625 C 14.089844 12.5625 13.046875 12.96875 8.054688 12.96875 C 3.503906 12.96875 2.382812 12.5625 2.382812 11.890625 C 2.382812 11.21875 4.75 10.671875 8.054688 10.671875 C 11.359375 10.671875 14.089844 11.21875 14.089844 11.890625 Z M 14.089844 11.890625 "/>
<path style=" stroke:none;fill-rule:nonzero;fill:rgb(95.686275%,56.470588%,4.705882%);fill-opacity:1;" d="M 2.917969 11.769531 C 2.917969 11.355469 3.332031 9.6875 7.5 9.6875 C 12.5 9.6875 13.75 11.355469 13.75 11.769531 C 13.75 12.1875 13.75 12.605469 7.917969 12.605469 C 2.917969 12.605469 2.917969 12.1875 2.917969 11.769531 Z M 2.917969 11.769531 "/>
<path style=" stroke:none;fill-rule:nonzero;fill:rgb(100%,80%,30.196078%);fill-opacity:1;" d="M 5 2.605469 C 5 3.753906 4.066406 4.6875 2.917969 4.6875 C 1.765625 4.6875 0.832031 3.753906 0.832031 2.605469 C 0.832031 1.453125 1.765625 0.519531 2.917969 0.519531 C 4.066406 0.519531 5 1.453125 5 2.605469 Z M 5 2.605469 "/>
<path style=" stroke:none;fill-rule:nonzero;fill:rgb(100%,67.45098%,20%);fill-opacity:1;" d="M 4.582031 2.605469 C 4.582031 3.523438 3.835938 4.269531 2.917969 4.269531 C 1.996094 4.269531 1.25 3.523438 1.25 2.605469 C 1.25 1.683594 1.996094 0.9375 2.917969 0.9375 C 3.835938 0.9375 4.582031 1.683594 4.582031 2.605469 Z M 4.582031 2.605469 "/>
<path style=" stroke:none;fill-rule:nonzero;fill:rgb(75.686275%,41.176471%,30.980392%);fill-opacity:1;" d="M 11.230469 6.027344 C 11.210938 5.789062 11.1875 5.558594 11.15625 5.335938 C 11.117188 5.070312 11.066406 4.820312 11.011719 4.585938 C 10.960938 4.371094 10.902344 4.171875 10.847656 3.984375 C 10.761719 3.707031 10.671875 3.46875 10.59375 3.269531 C 10.4375 2.882812 10.3125 2.664062 10.3125 2.664062 L 9.234375 2.800781 C 9.234375 2.800781 9.359375 3.058594 9.496094 3.566406 C 9.550781 3.773438 9.605469 4.023438 9.65625 4.3125 C 9.679688 4.457031 9.703125 4.613281 9.726562 4.78125 C 9.757812 5.011719 9.78125 5.265625 9.796875 5.539062 C 9.808594 5.695312 9.816406 5.855469 9.820312 6.023438 C 9.824219 6.082031 9.824219 6.140625 9.828125 6.203125 C 9.828125 6.398438 9.816406 6.597656 9.792969 6.796875 C 9.769531 6.976562 9.738281 7.152344 9.699219 7.328125 C 9.644531 7.582031 9.574219 7.832031 9.5 8.066406 C 9.4375 8.257812 9.371094 8.441406 9.304688 8.617188 C 9.203125 8.882812 9.097656 9.121094 9.007812 9.320312 C 8.859375 9.652344 8.75 9.871094 8.75 9.917969 C 8.75 10.066406 8.855469 10.339844 9.582031 10.519531 C 10.722656 10.804688 10.832031 10.335938 10.832031 10.335938 C 10.832031 10.335938 10.90625 10.117188 10.988281 9.683594 C 11.03125 9.46875 11.074219 9.203125 11.117188 8.886719 C 11.140625 8.695312 11.164062 8.484375 11.183594 8.253906 C 11.203125 8.015625 11.21875 7.757812 11.230469 7.476562 C 11.238281 7.265625 11.246094 7.039062 11.246094 6.804688 C 11.25 6.730469 11.25 6.660156 11.25 6.585938 C 11.25 6.394531 11.242188 6.210938 11.230469 6.027344 Z M 11.230469 6.027344 "/>
<path style=" stroke:none;fill-rule:nonzero;fill:rgb(85.098039%,61.960784%,50.980392%);fill-opacity:1;" d="M 10.136719 8.902344 C 9.71875 8.828125 9.449219 8.707031 9.304688 8.613281 C 9.203125 8.878906 9.097656 9.117188 9.007812 9.316406 C 9.28125 9.464844 9.628906 9.585938 10.003906 9.648438 C 10.222656 9.6875 10.4375 9.707031 10.640625 9.707031 C 10.761719 9.707031 10.878906 9.695312 10.988281 9.683594 C 11.03125 9.46875 11.074219 9.203125 11.117188 8.882812 C 10.984375 8.933594 10.65625 8.992188 10.136719 8.902344 Z M 10.449219 7.507812 C 10.125 7.476562 9.875 7.40625 9.699219 7.328125 C 9.644531 7.582031 9.574219 7.828125 9.5 8.066406 C 9.757812 8.164062 10.058594 8.234375 10.375 8.265625 C 10.503906 8.277344 10.632812 8.285156 10.753906 8.285156 C 10.90625 8.285156 11.046875 8.273438 11.183594 8.253906 C 11.203125 8.015625 11.21875 7.757812 11.230469 7.476562 C 11.042969 7.519531 10.78125 7.542969 10.449219 7.507812 Z M 10.542969 6.875 C 10.789062 6.875 11.027344 6.847656 11.246094 6.804688 C 11.25 6.730469 11.25 6.660156 11.25 6.585938 C 11.25 6.394531 11.242188 6.210938 11.230469 6.027344 C 11.070312 6.070312 10.847656 6.109375 10.527344 6.113281 C 10.203125 6.113281 9.976562 6.066406 9.820312 6.023438 C 9.820312 6.082031 9.824219 6.140625 9.824219 6.203125 C 9.828125 6.398438 9.816406 6.597656 9.789062 6.796875 C 10.019531 6.84375 10.269531 6.871094 10.523438 6.875 Z M 10.46875 5.507812 C 10.714844 5.472656 10.941406 5.410156 11.15625 5.335938 C 11.117188 5.070312 11.066406 4.820312 11.011719 4.585938 C 10.863281 4.648438 10.652344 4.714844 10.359375 4.757812 C 10.089844 4.796875 9.882812 4.792969 9.726562 4.78125 C 9.757812 5.011719 9.78125 5.265625 9.796875 5.539062 C 9.84375 5.542969 9.886719 5.546875 9.933594 5.546875 C 10.105469 5.546875 10.289062 5.535156 10.46875 5.507812 Z M 10.847656 3.984375 C 10.761719 3.707031 10.671875 3.46875 10.59375 3.269531 C 10.460938 3.335938 10.292969 3.40625 10.074219 3.46875 C 9.839844 3.53125 9.648438 3.558594 9.496094 3.566406 C 9.550781 3.773438 9.605469 4.023438 9.65625 4.3125 C 9.859375 4.292969 10.066406 4.257812 10.277344 4.199219 C 10.480469 4.144531 10.667969 4.066406 10.847656 3.984375 Z M 10.847656 3.984375 "/>
<path style=" stroke:none;fill-rule:nonzero;fill:rgb(24.313725%,44.705882%,11.372549%);fill-opacity:1;" d="M 14.394531 1.226562 C 14.382812 1.207031 13.0625 -0.558594 11.347656 0.214844 C 10.578125 0.566406 10.082031 1.132812 9.902344 1.867188 C 9.566406 1.398438 9.058594 1.101562 8.382812 0.980469 C 6.542969 0.652344 5.429688 2.699219 5.417969 2.71875 C 5.402344 2.75 5.410156 2.785156 5.433594 2.808594 C 5.460938 2.832031 5.496094 2.832031 5.527344 2.8125 C 5.535156 2.808594 6.375 2.21875 7.773438 2.46875 C 9.203125 2.722656 10.207031 2.972656 10.21875 2.976562 C 10.222656 2.976562 10.230469 2.976562 10.234375 2.976562 C 10.253906 2.976562 10.273438 2.96875 10.289062 2.953125 C 10.296875 2.945312 11.25 1.921875 12.121094 1.527344 C 13.414062 0.941406 14.296875 1.332031 14.304688 1.335938 C 14.335938 1.347656 14.371094 1.339844 14.390625 1.316406 C 14.414062 1.289062 14.414062 1.253906 14.394531 1.226562 Z M 14.394531 1.226562 "/>
<path style=" stroke:none;fill-rule:nonzero;fill:rgb(36.078431%,56.862745%,23.137255%);fill-opacity:1;" d="M 12.96875 2.25 C 11.664062 1.5625 10.648438 1.902344 10.019531 2.324219 C 9.265625 2.175781 7.851562 2.175781 6.65625 3.707031 C 5.1875 5.589844 6.476562 7.9375 6.488281 7.960938 C 6.5 7.984375 6.527344 8 6.550781 8 L 6.5625 8 C 6.589844 7.996094 6.613281 7.972656 6.621094 7.945312 C 6.625 7.929688 7.078125 6.292969 8.222656 4.914062 C 8.847656 4.164062 9.59375 3.46875 10.121094 3.011719 C 10.648438 3.097656 11.425781 3.292969 12.191406 3.71875 C 13.679688 4.550781 14.363281 5.960938 14.371094 5.976562 C 14.382812 6.003906 14.410156 6.023438 14.441406 6.015625 C 14.472656 6.011719 14.5 5.992188 14.507812 5.960938 C 14.511719 5.933594 15.085938 3.367188 12.96875 2.25 Z M 12.96875 2.25 "/>
</g>
</svg>
