<?xml version="1.0" encoding="UTF-8"?>
<svg xmlns="http://www.w3.org/2000/svg" xmlns:xlink="http://www.w3.org/1999/xlink" width="15pt" height="15pt" viewBox="0 0 15 15" version="1.1">
<g id="surface1">
<path style=" stroke:none;fill-rule:nonzero;fill:rgb(86.666667%,18.039216%,26.666667%);fill-opacity:1;" d="M 9.628906 2.488281 C 7.339844 0.199219 3.492188 -0.21875 1.378906 1.898438 C -0.738281 4.015625 -0.320312 7.859375 1.96875 10.148438 C 3.449219 11.628906 5.210938 11.949219 6.84375 11.421875 L 6.839844 11.429688 L 6.894531 11.40625 C 7.003906 11.371094 7.113281 11.332031 7.222656 11.289062 C 7.511719 11.1875 7.945312 11.054688 8.445312 10.953125 C 9.21875 10.792969 9.921875 11.621094 10.511719 12.210938 C 11.101562 12.800781 12.277344 14.566406 12.574219 14.863281 C 12.867188 15.15625 13.164062 14.863281 13.457031 14.566406 L 13.753906 14.273438 L 14.046875 13.980469 C 14.339844 13.683594 14.636719 13.390625 14.339844 13.09375 C 14.046875 12.800781 12.277344 11.621094 11.691406 11.03125 C 11.101562 10.441406 10.273438 9.738281 10.429688 8.96875 C 10.515625 8.566406 10.613281 8.210938 10.703125 7.933594 C 11.527344 6.175781 11.34375 4.203125 9.628906 2.488281 Z M 9.628906 2.488281 "/>
<path style=" stroke:none;fill-rule:nonzero;fill:rgb(85.098039%,61.960784%,50.980392%);fill-opacity:1;" d="M 6.484375 11.523438 C 6.605469 11.492188 6.726562 11.460938 6.84375 11.421875 L 6.839844 11.429688 L 6.894531 11.40625 C 7.003906 11.371094 7.113281 11.332031 7.222656 11.289062 C 7.511719 11.1875 7.945312 11.054688 8.445312 10.953125 C 9.21875 10.792969 9.921875 11.621094 10.511719 12.210938 C 11.101562 12.800781 12.277344 14.566406 12.574219 14.863281 C 12.867188 15.15625 13.164062 14.863281 13.457031 14.566406 L 13.753906 14.273438 L 14.046875 13.980469 C 14.339844 13.683594 14.636719 13.390625 14.339844 13.09375 C 14.046875 12.800781 12.277344 11.621094 11.691406 11.03125 C 11.101562 10.441406 10.273438 9.738281 10.429688 8.96875 C 10.515625 8.566406 10.613281 8.210938 10.703125 7.933594 C 10.851562 7.617188 10.96875 7.292969 11.046875 6.960938 Z M 6.484375 11.523438 "/>
<path style=" stroke:none;fill-rule:nonzero;fill:rgb(100%,80%,30.196078%);fill-opacity:1;" d="M 8.449219 9.558594 L 9.039062 8.96875 L 14.046875 13.980469 L 13.457031 14.566406 Z M 8.449219 9.558594 "/>
<path style=" stroke:none;fill-rule:nonzero;fill:rgb(80%,83.921569%,86.666667%);fill-opacity:1;" d="M 14.582031 2.707031 C 14.582031 3.515625 13.929688 4.167969 13.125 4.167969 C 12.320312 4.167969 11.667969 3.515625 11.667969 2.707031 C 11.667969 1.902344 12.320312 1.25 13.125 1.25 C 13.929688 1.25 14.582031 1.902344 14.582031 2.707031 Z M 14.582031 2.707031 "/>
</g>
</svg>
