<?xml version="1.0" encoding="UTF-8"?>
<svg xmlns="http://www.w3.org/2000/svg" xmlns:xlink="http://www.w3.org/1999/xlink" width="15pt" height="15pt" viewBox="0 0 15 15" version="1.1">
<g id="surface1">
<path style=" stroke:none;fill-rule:nonzero;fill:rgb(40%,12.941176%,7.45098%);fill-opacity:1;" d="M 3.871094 3.320312 L 4.101562 3.164062 L 4.101562 3 C 4.101562 2.886719 4.007812 2.792969 3.894531 2.792969 L 3.058594 2.792969 C 2.945312 2.792969 2.851562 2.886719 2.851562 3 L 2.851562 3.777344 L 3.113281 3.957031 L 2.851562 4.136719 L 2.851562 5.917969 L 4.101562 5.917969 L 4.101562 3.476562 Z M 3.871094 3.320312 "/>
<path style=" stroke:none;fill-rule:nonzero;fill:rgb(85.098039%,61.960784%,50.980392%);fill-opacity:1;" d="M 12.917969 8.75 L 12.917969 6.667969 L 10.429688 4.179688 L 9.425781 4.808594 L 9.496094 3.246094 L 7.5 1.25 L 2.082031 6.667969 L 2.082031 9.582031 L 2.917969 9.582031 L 2.917969 10 L 2.082031 10 L 2.082031 13.75 L 12.917969 13.75 L 12.917969 11.457031 L 12.5 11.457031 L 12.5 11.042969 L 12.917969 11.042969 L 12.917969 9.167969 L 12.082031 9.167969 L 12.082031 8.75 Z M 12.917969 8.75 "/>
<path style=" stroke:none;fill-rule:nonzero;fill:rgb(75.686275%,41.176471%,30.980392%);fill-opacity:1;" d="M 4.167969 10.832031 L 5.832031 10.832031 L 5.832031 13.332031 L 4.167969 13.332031 Z M 4.167969 7.082031 L 5.832031 7.082031 L 5.832031 8.75 L 4.167969 8.75 Z M 9.375 10.832031 L 11.042969 10.832031 L 11.042969 12.5 L 9.375 12.5 Z M 9.375 10.832031 "/>
<path style=" stroke:none;fill-rule:nonzero;fill:rgb(73.72549%,74.509804%,75.294118%);fill-opacity:1;" d="M 13.957031 13.957031 C 13.957031 14.304688 13.679688 14.582031 13.332031 14.582031 L 1.667969 14.582031 C 1.320312 14.582031 1.042969 14.304688 1.042969 13.957031 C 1.042969 13.613281 1.320312 13.332031 1.667969 13.332031 L 13.332031 13.332031 C 13.679688 13.332031 13.957031 13.613281 13.957031 13.957031 Z M 13.957031 13.957031 "/>
<path style=" stroke:none;fill-rule:nonzero;fill:rgb(16.078431%,18.431373%,20%);fill-opacity:1;" d="M 13.210938 6.371094 L 10.792969 3.953125 L 10.070312 4.40625 L 12.621094 6.960938 C 12.703125 7.042969 12.808594 7.082031 12.917969 7.082031 C 13.023438 7.082031 13.128906 7.042969 13.210938 6.960938 C 13.375 6.796875 13.375 6.535156 13.210938 6.371094 Z M 9.523438 2.683594 L 7.792969 0.953125 C 7.632812 0.792969 7.367188 0.792969 7.207031 0.953125 L 1.789062 6.371094 C 1.625 6.535156 1.625 6.796875 1.789062 6.960938 C 1.953125 7.125 2.214844 7.125 2.378906 6.960938 L 7.5 1.839844 L 9.472656 3.8125 Z M 9.523438 2.683594 "/>
<path style=" stroke:none;fill-rule:nonzero;fill:rgb(40%,12.941176%,7.45098%);fill-opacity:1;" d="M 10.175781 4.339844 L 9.425781 4.808594 L 9.480469 3.644531 L 8.65625 2.820312 L 7.976562 5.910156 L 9.515625 6.632812 L 8.367188 9.828125 L 11.25 7.082031 L 10.832031 5 Z M 3.75 7.882812 L 6.074219 7.164062 L 6.253906 7.742188 L 3.925781 8.460938 Z M 3.617188 12.402344 L 6.011719 11.171875 L 6.289062 11.710938 L 3.890625 12.941406 Z M 11.320312 12.289062 L 8.996094 11.570312 L 9.171875 10.992188 L 11.5 11.710938 Z M 11.320312 12.289062 "/>
<path style=" stroke:none;fill-rule:nonzero;fill:rgb(40%,12.941176%,7.45098%);fill-opacity:1;" d="M 6.136719 12.9375 L 3.640625 11.808594 L 3.890625 11.257812 L 6.386719 12.382812 Z M 6.136719 12.9375 "/>
</g>
</svg>
