<?xml version="1.0" encoding="UTF-8"?>
<svg xmlns="http://www.w3.org/2000/svg" xmlns:xlink="http://www.w3.org/1999/xlink" width="15pt" height="15pt" viewBox="0 0 15 15" version="1.1">
<g id="surface1">
<path style=" stroke:none;fill-rule:nonzero;fill:rgb(16.078431%,18.431373%,20%);fill-opacity:1;" d="M 2.917969 4.582031 L 12.082031 4.582031 L 12.082031 12.082031 L 2.917969 12.082031 Z M 2.917969 4.582031 "/>
<path style=" stroke:none;fill-rule:nonzero;fill:rgb(80%,83.921569%,86.666667%);fill-opacity:1;" d="M 3.332031 12.082031 C 3.332031 12.542969 3.085938 12.917969 2.777344 12.917969 L 2.222656 12.917969 C 1.914062 12.917969 1.667969 12.542969 1.667969 12.082031 L 1.667969 4.582031 C 1.667969 4.125 1.914062 3.75 2.222656 3.75 L 2.777344 3.75 C 3.085938 3.75 3.332031 4.125 3.332031 4.582031 Z M 13.332031 12.082031 C 13.332031 12.542969 13.085938 12.917969 12.777344 12.917969 L 12.222656 12.917969 C 11.914062 12.917969 11.667969 12.542969 11.667969 12.082031 L 11.667969 4.582031 C 11.667969 4.125 11.914062 3.75 12.222656 3.75 L 12.777344 3.75 C 13.085938 3.75 13.332031 4.125 13.332031 4.582031 Z M 6.667969 12.082031 C 6.667969 12.542969 6.417969 12.917969 6.109375 12.917969 L 5.554688 12.917969 C 5.25 12.917969 5 12.542969 5 12.082031 L 5 4.582031 C 5 4.125 5.25 3.75 5.554688 3.75 L 6.109375 3.75 C 6.417969 3.75 6.667969 4.125 6.667969 4.582031 Z M 10 12.082031 C 10 12.542969 9.75 12.917969 9.445312 12.917969 L 8.890625 12.917969 C 8.582031 12.917969 8.332031 12.542969 8.332031 12.082031 L 8.332031 4.582031 C 8.332031 4.125 8.582031 3.75 8.890625 3.75 L 9.445312 3.75 C 9.75 3.75 10 4.125 10 4.582031 Z M 10 12.082031 "/>
<path style=" stroke:none;fill-rule:nonzero;fill:rgb(60.392157%,66.666667%,70.588235%);fill-opacity:1;" d="M 13.75 12.5 C 13.75 12.960938 13.375 13.332031 12.917969 13.332031 L 2.082031 13.332031 C 1.625 13.332031 1.25 12.960938 1.25 12.5 C 1.25 12.039062 1.625 11.667969 2.082031 11.667969 L 12.917969 11.667969 C 13.375 11.667969 13.75 12.039062 13.75 12.5 Z M 13.75 12.5 "/>
<path style=" stroke:none;fill-rule:nonzero;fill:rgb(80%,83.921569%,86.666667%);fill-opacity:1;" d="M 14.582031 13.332031 C 14.582031 13.792969 14.210938 14.167969 13.75 14.167969 L 1.25 14.167969 C 0.789062 14.167969 0.417969 13.792969 0.417969 13.332031 C 0.417969 12.875 0.789062 12.5 1.25 12.5 L 13.75 12.5 C 14.210938 12.5 14.582031 12.875 14.582031 13.332031 Z M 14.582031 13.332031 "/>
<path style=" stroke:none;fill-rule:nonzero;fill:rgb(88.235294%,90.980392%,92.941176%);fill-opacity:1;" d="M 15 13.957031 C 15 14.304688 14.71875 14.582031 14.375 14.582031 L 0.625 14.582031 C 0.28125 14.582031 0 14.304688 0 13.957031 C 0 13.613281 0.28125 13.332031 0.625 13.332031 L 14.375 13.332031 C 14.71875 13.332031 15 13.613281 15 13.957031 Z M 15 13.957031 "/>
<path style=" stroke:none;fill-rule:nonzero;fill:rgb(60.392157%,66.666667%,70.588235%);fill-opacity:1;" d="M 13.75 4.167969 C 13.75 3.707031 13.351562 3.332031 12.859375 3.332031 L 2.082031 3.332031 C 1.59375 3.332031 1.25 3.707031 1.25 4.167969 C 1.25 4.480469 1.410156 4.75 1.667969 4.890625 L 1.667969 5.417969 L 3.332031 5.417969 L 3.332031 5 L 5 5 L 5 5.417969 L 6.667969 5.417969 L 6.667969 5 L 8.332031 5 L 8.332031 5.417969 L 10 5.417969 L 10 5 L 11.667969 5 L 11.667969 5.417969 L 13.332031 5.417969 L 13.332031 4.871094 C 13.582031 4.722656 13.75 4.464844 13.75 4.167969 Z M 13.75 4.167969 "/>
<path style=" stroke:none;fill-rule:nonzero;fill:rgb(80%,83.921569%,86.666667%);fill-opacity:1;" d="M 0.832031 3.519531 C 0.832031 3.089844 1.253906 2.917969 1.253906 2.917969 L 7.464844 0 L 13.734375 2.917969 C 13.734375 2.917969 14.167969 3.011719 14.167969 3.519531 L 14.167969 3.75 L 0.832031 3.75 Z M 0.832031 3.519531 "/>
<path style=" stroke:none;fill-rule:nonzero;fill:rgb(60.392157%,66.666667%,70.588235%);fill-opacity:1;" d="M 7.5 1.058594 C 7.5 1.058594 3.199219 3.085938 2.769531 3.269531 C 2.339844 3.449219 2.484375 3.75 2.769531 3.75 L 12.207031 3.75 C 12.648438 3.75 12.546875 3.410156 12.195312 3.230469 C 11.84375 3.046875 7.5 1.058594 7.5 1.058594 Z M 7.5 1.058594 "/>
<path style=" stroke:none;fill-rule:nonzero;fill:rgb(80%,83.921569%,86.666667%);fill-opacity:1;" d="M 14.167969 3.75 C 14.167969 3.980469 13.980469 4.167969 13.75 4.167969 L 1.25 4.167969 C 1.019531 4.167969 0.832031 3.980469 0.832031 3.75 C 0.832031 3.519531 1.019531 3.332031 1.25 3.332031 L 13.75 3.335938 C 13.980469 3.335938 14.167969 3.519531 14.167969 3.75 Z M 14.167969 3.75 "/>
</g>
</svg>
