<?xml version="1.0" encoding="UTF-8"?>
<svg xmlns="http://www.w3.org/2000/svg" xmlns:xlink="http://www.w3.org/1999/xlink" width="15pt" height="15pt" viewBox="0 0 15 15" version="1.1">
<g id="surface1">
<path style=" stroke:none;fill-rule:nonzero;fill:rgb(16.078431%,18.431373%,20%);fill-opacity:1;" d="M 0.640625 10.402344 C 0.46875 10.402344 0.328125 10.539062 0.328125 10.714844 C 0.328125 10.886719 0.46875 11.027344 0.640625 11.027344 L 8.140625 11.027344 L 8.140625 10.402344 Z M 14.671875 7.085938 L 9.460938 7.085938 L 9.460938 7.710938 L 14.671875 7.710938 C 14.84375 7.710938 14.984375 7.570312 14.984375 7.398438 C 14.984375 7.226562 14.84375 7.085938 14.671875 7.085938 Z M 14.671875 7.085938 "/>
<path style=" stroke:none;fill-rule:nonzero;fill:rgb(100%,80%,30.196078%);fill-opacity:1;" d="M 9.671875 4.011719 L 12.066406 1.617188 L 14.457031 4.011719 L 14.457031 7.085938 L 9.671875 7.085938 Z M 9.671875 4.011719 "/>
<path style=" stroke:none;fill-rule:nonzero;fill:rgb(16.078431%,18.431373%,20%);fill-opacity:1;" d="M 14.457031 4.351562 C 14.371094 4.351562 14.285156 4.320312 14.21875 4.253906 L 12.066406 2.101562 L 9.914062 4.253906 C 9.78125 4.386719 9.566406 4.386719 9.433594 4.253906 C 9.296875 4.117188 9.296875 3.902344 9.433594 3.769531 L 11.824219 1.375 C 11.957031 1.242188 12.175781 1.242188 12.308594 1.375 L 14.699219 3.769531 C 14.832031 3.902344 14.832031 4.117188 14.699219 4.253906 C 14.632812 4.316406 14.546875 4.351562 14.457031 4.351562 Z M 14.457031 4.351562 "/>
<path style=" stroke:none;fill-rule:nonzero;fill:rgb(40%,12.941176%,7.45098%);fill-opacity:1;" d="M 11.382812 4.695312 L 12.75 4.695312 L 12.75 7.085938 L 11.382812 7.085938 Z M 11.382812 4.695312 "/>
<path style=" stroke:none;fill-rule:nonzero;fill:rgb(23.137255%,53.333333%,76.470588%);fill-opacity:1;" d="M 10.355469 4.695312 L 11.039062 4.695312 L 11.039062 5.378906 L 10.355469 5.378906 Z M 13.089844 4.695312 L 13.773438 4.695312 L 13.773438 5.378906 L 13.089844 5.378906 Z M 13.089844 5.71875 L 13.773438 5.71875 L 13.773438 6.402344 L 13.089844 6.402344 Z M 13.089844 5.71875 "/>
<path style=" stroke:none;fill-rule:nonzero;fill:rgb(100%,80%,30.196078%);fill-opacity:1;" d="M 4.390625 2.191406 L 0.933594 5.648438 L 0.933594 10.402344 L 7.847656 10.402344 L 7.847656 5.648438 Z M 4.390625 2.191406 "/>
<path style=" stroke:none;fill-rule:nonzero;fill:rgb(16.078431%,18.431373%,20%);fill-opacity:1;" d="M 8.277344 6.511719 C 8.167969 6.511719 8.058594 6.46875 7.972656 6.386719 L 4.390625 2.800781 L 0.808594 6.386719 C 0.636719 6.554688 0.363281 6.554688 0.195312 6.386719 C 0.0273438 6.214844 0.0273438 5.941406 0.195312 5.773438 L 4.085938 1.886719 C 4.253906 1.71875 4.527344 1.71875 4.695312 1.886719 L 8.585938 5.773438 C 8.753906 5.941406 8.753906 6.214844 8.585938 6.386719 C 8.5 6.46875 8.390625 6.511719 8.277344 6.511719 Z M 8.277344 6.511719 "/>
<path style=" stroke:none;fill-rule:nonzero;fill:rgb(40%,12.941176%,7.45098%);fill-opacity:1;" d="M 3.527344 6.511719 L 5.253906 6.511719 L 5.253906 10.402344 L 3.527344 10.402344 Z M 3.527344 6.511719 "/>
<path style=" stroke:none;fill-rule:nonzero;fill:rgb(23.137255%,53.333333%,76.470588%);fill-opacity:1;" d="M 1.796875 6.511719 L 3.09375 6.511719 L 3.09375 7.808594 L 1.796875 7.808594 Z M 1.796875 8.242188 L 3.09375 8.242188 L 3.09375 9.535156 L 1.796875 9.535156 Z M 1.796875 8.242188 "/>
<path style=" stroke:none;fill-rule:nonzero;fill:rgb(100%,90.980392%,71.372549%);fill-opacity:1;" d="M 8.949219 3.515625 L 4.5625 7.914062 L 4.5625 13.964844 L 13.332031 13.964844 L 13.332031 7.914062 Z M 8.949219 3.515625 "/>
<path style=" stroke:none;fill-rule:nonzero;fill:rgb(40%,45.882353%,49.803922%);fill-opacity:1;" d="M 13.75 13.753906 L 4.167969 13.753906 C 3.9375 13.753906 3.75 13.941406 3.75 14.171875 C 3.75 14.402344 3.9375 14.589844 4.167969 14.589844 L 13.75 14.589844 C 13.980469 14.589844 14.167969 14.402344 14.167969 14.171875 C 14.167969 13.941406 13.980469 13.753906 13.75 13.753906 Z M 13.75 13.753906 "/>
<path style=" stroke:none;fill-rule:nonzero;fill:rgb(100%,80%,30.196078%);fill-opacity:1;" d="M 8.75 7.917969 L 9.167969 7.917969 L 9.167969 13.75 L 8.75 13.75 Z M 8.75 7.917969 "/>
<path style=" stroke:none;fill-rule:nonzero;fill:rgb(75.686275%,41.176471%,30.980392%);fill-opacity:1;" d="M 5.832031 11.25 L 7.5 11.25 L 7.5 13.75 L 5.832031 13.75 Z M 5.832031 11.25 "/>
<path style=" stroke:none;fill-rule:nonzero;fill:rgb(33.333333%,67.45098%,93.333333%);fill-opacity:1;" d="M 5.832031 8.332031 L 7.5 8.332031 L 7.5 10 L 5.832031 10 Z M 10.417969 8.332031 L 12.082031 8.332031 L 12.082031 10 L 10.417969 10 Z M 10.417969 11.25 L 12.082031 11.25 L 12.082031 12.917969 L 10.417969 12.917969 Z M 10.417969 11.25 "/>
<path style=" stroke:none;fill-rule:nonzero;fill:rgb(40%,45.882353%,49.803922%);fill-opacity:1;" d="M 8.75 8.167969 C 8.644531 8.167969 8.535156 8.128906 8.457031 8.046875 C 8.292969 7.882812 8.292969 7.621094 8.457031 7.457031 L 11.164062 4.75 L 11.753906 5.335938 L 9.042969 8.046875 C 8.964844 8.128906 8.855469 8.167969 8.75 8.167969 Z M 8.75 8.167969 "/>
<path style=" stroke:none;fill-rule:nonzero;fill:rgb(40%,45.882353%,49.803922%);fill-opacity:1;" d="M 13.703125 8.167969 C 13.589844 8.167969 13.480469 8.125 13.394531 8.042969 L 8.949219 3.59375 L 4.5 8.042969 C 4.332031 8.210938 4.058594 8.210938 3.890625 8.042969 C 3.722656 7.871094 3.722656 7.597656 3.890625 7.429688 L 8.644531 2.675781 C 8.8125 2.507812 9.085938 2.507812 9.253906 2.675781 L 14.007812 7.429688 C 14.175781 7.597656 14.175781 7.871094 14.007812 8.042969 C 13.921875 8.125 13.8125 8.167969 13.703125 8.167969 Z M 13.703125 8.167969 "/>
</g>
</svg>
