<?xml version="1.0" encoding="UTF-8"?>
<svg xmlns="http://www.w3.org/2000/svg" xmlns:xlink="http://www.w3.org/1999/xlink" width="15pt" height="15pt" viewBox="0 0 15 15" version="1.1">
<g id="surface1">
<path style=" stroke:none;fill-rule:nonzero;fill:rgb(95.686275%,56.470588%,4.705882%);fill-opacity:1;" d="M 15 1.25 C 14.582031 1.789062 13.738281 2.835938 13.171875 3.613281 C 11.582031 5.789062 10.1875 6.300781 8.867188 6.792969 C 7.546875 7.285156 4.53125 7.222656 3.082031 7.148438 C 1.636719 7.074219 0.695312 6.90625 0.410156 7.320312 C -0.46875 8.59375 0.152344 10.023438 1.417969 10.21875 C 2.410156 10.371094 5.394531 10.082031 6.792969 9.960938 C 8.191406 9.835938 9.722656 9.417969 10.246094 9.214844 C 10.769531 9.015625 11.195312 8.851562 11.328125 8.53125 C 11.460938 8.214844 12.109375 7.359375 12.902344 6.066406 C 13.351562 5.339844 14.582031 3.980469 15 3.332031 Z M 15 1.25 "/>
<path style=" stroke:none;fill-rule:nonzero;fill:rgb(19.215686%,21.568627%,23.921569%);fill-opacity:1;" d="M 2.917969 10.246094 C 4.167969 10.199219 5.855469 10.042969 6.796875 9.960938 C 7.75 9.875 8.753906 9.65625 9.46875 9.460938 L 9.292969 6.632812 C 9.148438 6.6875 9.007812 6.742188 8.867188 6.792969 C 7.546875 7.285156 4.53125 7.222656 3.085938 7.148438 C 3.027344 7.144531 2.917969 7.140625 2.917969 7.136719 Z M 7.082031 11.667969 L 7.082031 13.332031 C 7.082031 13.792969 8.390625 14.167969 10 14.167969 C 11.609375 14.167969 12.917969 13.792969 12.917969 13.332031 L 12.917969 11.667969 Z M 7.082031 11.667969 "/>
<path style=" stroke:none;fill-rule:nonzero;fill:rgb(40%,45.882353%,49.803922%);fill-opacity:1;" d="M 12.914062 11.667969 C 12.914062 11.207031 11.609375 10.832031 10 10.832031 C 8.386719 10.832031 7.082031 11.207031 7.082031 11.667969 C 7.082031 12.125 8.386719 12.5 10 12.5 C 11.609375 12.5 12.914062 12.125 12.914062 11.667969 Z M 12.914062 11.667969 "/>
</g>
</svg>
