<?xml version="1.0" encoding="UTF-8"?>
<svg xmlns="http://www.w3.org/2000/svg" xmlns:xlink="http://www.w3.org/1999/xlink" width="15pt" height="15pt" viewBox="0 0 15 15" version="1.1">
<g id="surface1">
<path style=" stroke:none;fill-rule:nonzero;fill:rgb(53.333333%,78.823529%,97.647059%);fill-opacity:1;" d="M 15 10.417969 L 15 1.667969 C 15 1.667969 15 0 13.332031 0 L 1.667969 0 C 1.667969 0 0 0 0 1.667969 L 0 10.382812 Z M 15 10.417969 "/>
<path style=" stroke:none;fill-rule:nonzero;fill:rgb(16.078431%,18.431373%,20%);fill-opacity:1;" d="M 11.25 4.167969 L 9.167969 4.167969 L 7.082031 10 L 15 10 L 15 2.082031 C 14.582031 2.082031 12.742188 2.257812 12.082031 2.917969 C 11.667969 3.332031 11.667969 3.75 11.25 4.167969 Z M 11.25 4.167969 "/>
<path style=" stroke:none;fill-rule:nonzero;fill:rgb(40%,45.882353%,49.803922%);fill-opacity:1;" d="M 10 4.582031 C 10.417969 4.167969 11.039062 4.375 11.25 4.167969 C 11.460938 3.953125 11.566406 3.742188 11.671875 3.53125 C 10.117188 3.480469 8.828125 3.550781 8.332031 3.75 C 6.25 4.582031 6.667969 8.332031 3.75 10.417969 C 3.75 10.417969 5.832031 11.25 7.5 9.582031 C 8.59375 8.492188 8.835938 5.746094 10 4.582031 Z M 10 4.582031 "/>
<path style=" stroke:none;fill-rule:nonzero;fill:rgb(36.078431%,56.862745%,23.137255%);fill-opacity:1;" d="M 1.667969 15 L 13.332031 15 C 15 15 15 13.332031 15 13.332031 L 15 9.582031 L 0 9.582031 L 0 13.332031 C 0 15 1.667969 15 1.667969 15 Z M 1.667969 15 "/>
<path style=" stroke:none;fill-rule:nonzero;fill:rgb(33.333333%,67.45098%,93.333333%);fill-opacity:1;" d="M 11.667969 9.582031 C 11.667969 10 7.5 10 7.5 10.832031 C 7.5 11.667969 9.167969 11.667969 9.167969 12.082031 C 9.167969 12.5 3.367188 13.332031 3.332031 15 L 10.417969 15 C 10.417969 14.167969 12.5 13.75 12.5 12.5 C 12.5 11.25 9.582031 11.25 9.582031 10.832031 C 9.582031 10.417969 12.5 10 12.5 9.582031 Z M 11.667969 9.582031 "/>
<path style=" stroke:none;fill-rule:nonzero;fill:rgb(13.333333%,40%,60%);fill-opacity:1;" d="M 11.667969 9.582031 L 11.667969 7.5 C 11.667969 4.582031 12.5 4.167969 12.5 4.167969 L 12.917969 4.167969 C 12.917969 4.167969 12.5 4.582031 12.5 7.082031 L 12.5 9.582031 Z M 11.667969 9.582031 "/>
<path style=" stroke:none;fill-rule:nonzero;fill:rgb(40%,12.941176%,7.45098%);fill-opacity:1;" d="M 4.804688 11.875 C 4.804688 12.335938 4.433594 12.5 3.972656 12.5 C 3.511719 12.5 3.140625 12.335938 3.140625 11.875 L 3.347656 10.003906 C 3.347656 9.546875 3.511719 9.589844 3.972656 9.589844 C 4.433594 9.589844 4.597656 9.546875 4.597656 10.003906 Z M 4.804688 11.875 "/>
<path style=" stroke:none;fill-rule:nonzero;fill:rgb(24.313725%,44.705882%,11.372549%);fill-opacity:1;" d="M 6.757812 10.691406 C 6.652344 10.601562 6.554688 10.507812 6.457031 10.414062 C 6.425781 10.347656 6.375 10.277344 6.289062 10.199219 C 6.214844 10.132812 6.144531 10.058594 6.074219 9.988281 C 6.496094 9.929688 6.679688 9.707031 6.289062 9.375 C 6.160156 9.265625 6.039062 9.148438 5.925781 9.03125 C 5.976562 8.949219 5.941406 8.835938 5.78125 8.695312 C 5.726562 8.652344 5.675781 8.605469 5.625 8.558594 C 5.949219 8.507812 6.082031 8.335938 5.78125 8.078125 C 5.691406 8 5.601562 7.917969 5.519531 7.832031 C 5.597656 7.761719 5.585938 7.660156 5.433594 7.527344 C 5.398438 7.5 5.371094 7.46875 5.339844 7.441406 C 5.574219 7.394531 5.664062 7.261719 5.433594 7.0625 C 5.285156 6.9375 5.15625 6.796875 5.03125 6.660156 C 5.191406 6.621094 5.246094 6.527344 5.097656 6.390625 C 5.207031 6.339844 5.226562 6.25 5.082031 6.128906 C 4.550781 5.671875 4.25 5.015625 3.972656 5.015625 C 3.695312 5.015625 3.394531 5.671875 2.863281 6.128906 C 2.71875 6.253906 2.738281 6.34375 2.847656 6.390625 C 2.699219 6.527344 2.753906 6.621094 2.914062 6.660156 C 2.792969 6.796875 2.660156 6.9375 2.515625 7.0625 C 2.28125 7.261719 2.371094 7.394531 2.605469 7.441406 C 2.574219 7.46875 2.546875 7.5 2.515625 7.527344 C 2.359375 7.660156 2.351562 7.761719 2.429688 7.832031 C 2.34375 7.917969 2.257812 8 2.164062 8.078125 C 1.863281 8.335938 1.996094 8.507812 2.320312 8.558594 C 2.269531 8.605469 2.21875 8.652344 2.164062 8.695312 C 2.003906 8.835938 1.96875 8.949219 2.019531 9.03125 C 1.90625 9.148438 1.785156 9.265625 1.65625 9.375 C 1.265625 9.707031 1.449219 9.929688 1.875 9.988281 C 1.804688 10.058594 1.730469 10.132812 1.65625 10.199219 C 1.570312 10.277344 1.523438 10.347656 1.488281 10.414062 C 1.390625 10.507812 1.292969 10.601562 1.1875 10.691406 C 0.578125 11.210938 0.867188 11.515625 1.703125 11.453125 C 2.445312 11.398438 3.140625 11.230469 3.972656 11.230469 C 4.804688 11.230469 5.5 11.398438 6.246094 11.453125 C 7.078125 11.515625 7.367188 11.210938 6.757812 10.691406 Z M 6.757812 10.691406 "/>
<path style=" stroke:none;fill-rule:nonzero;fill:rgb(96.078431%,97.254902%,98.039216%);fill-opacity:1;" d="M 4.714844 1.53125 C 4.601562 1.53125 4.488281 1.550781 4.386719 1.582031 C 4.261719 1.230469 3.929688 0.976562 3.535156 0.976562 C 3.113281 0.976562 2.761719 1.269531 2.664062 1.660156 C 2.558594 1.582031 2.429688 1.53125 2.289062 1.53125 C 1.945312 1.53125 1.664062 1.8125 1.664062 2.15625 C 1.664062 2.242188 1.683594 2.320312 1.710938 2.394531 C 1.652344 2.375 1.589844 2.363281 1.527344 2.363281 C 1.144531 2.363281 0.832031 2.675781 0.832031 3.058594 C 0.832031 3.441406 1.144531 3.75 1.527344 3.75 L 4.714844 3.75 C 5.324219 3.75 5.824219 3.253906 5.824219 2.640625 C 5.824219 2.027344 5.324219 1.53125 4.714844 1.53125 Z M 4.714844 1.53125 "/>
</g>
</svg>
