<?xml version="1.0" encoding="UTF-8"?>
<svg xmlns="http://www.w3.org/2000/svg" xmlns:xlink="http://www.w3.org/1999/xlink" width="15pt" height="15pt" viewBox="0 0 15 15" version="1.1">
<g id="surface1">
<path style=" stroke:none;fill-rule:nonzero;fill:rgb(23.137255%,53.333333%,76.470588%);fill-opacity:1;" d="M 15 12.726562 C 15 11.492188 11.640625 10.492188 7.5 10.492188 C 3.359375 10.492188 0 11.492188 0 12.726562 C 0 13.957031 3.359375 14.957031 7.5 14.957031 C 11.640625 14.957031 15 13.957031 15 12.726562 Z M 15 12.726562 "/>
<path style=" stroke:none;fill-rule:nonzero;fill:rgb(53.333333%,78.823529%,97.647059%);fill-opacity:1;" d="M 14.089844 11.890625 C 14.089844 12.5625 13.046875 12.96875 8.054688 12.96875 C 3.503906 12.96875 2.382812 12.5625 2.382812 11.890625 C 2.382812 11.21875 4.75 10.671875 8.054688 10.671875 C 11.359375 10.671875 14.089844 11.21875 14.089844 11.890625 Z M 14.089844 11.890625 "/>
<path style=" stroke:none;fill-rule:nonzero;fill:rgb(95.686275%,56.470588%,4.705882%);fill-opacity:1;" d="M 2.917969 11.769531 C 2.917969 11.355469 3.332031 9.6875 7.5 9.6875 C 12.5 9.6875 13.75 11.355469 13.75 11.769531 C 13.75 12.1875 13.75 12.605469 7.917969 12.605469 C 2.917969 12.605469 2.917969 12.1875 2.917969 11.769531 Z M 2.917969 11.769531 "/>
<path style=" stroke:none;fill-rule:nonzero;fill:rgb(40%,45.882353%,49.803922%);fill-opacity:1;" d="M 8.589844 11.527344 C 8.527344 11.816406 8.242188 12 7.957031 11.9375 C 7.667969 11.875 7.484375 11.589844 7.546875 11.300781 L 9.664062 0.472656 C 9.726562 0.183594 10.011719 0.00390625 10.300781 0.0664062 C 10.589844 0.128906 10.773438 0.410156 10.707031 0.699219 Z M 8.589844 11.527344 "/>
<path style=" stroke:none;fill-rule:nonzero;fill:rgb(86.666667%,18.039216%,26.666667%);fill-opacity:1;" d="M 10.148438 0.761719 C 6.972656 0.0703125 3.957031 1.542969 3.414062 4.042969 C 3.414062 4.042969 3.265625 4.742188 3.613281 4.816406 C 3.960938 4.890625 4.808594 4.347656 4.808594 4.347656 L 13.523438 6.238281 C 13.523438 6.238281 14.066406 7.085938 14.414062 7.160156 C 14.765625 7.238281 14.914062 6.539062 14.914062 6.539062 C 15.457031 4.039062 13.324219 1.449219 10.148438 0.761719 Z M 10.148438 0.761719 "/>
<path style=" stroke:none;fill-rule:nonzero;fill:rgb(100%,90.980392%,71.372549%);fill-opacity:1;" d="M 10.148438 0.761719 C 7.742188 0.238281 5.351562 1.84375 4.808594 4.347656 C 4.808594 4.347656 4.660156 5.042969 5.355469 5.195312 C 6.054688 5.347656 7.25 4.875 7.25 4.875 L 11.082031 5.707031 C 11.082031 5.707031 11.976562 6.632812 12.671875 6.78125 C 13.371094 6.933594 13.523438 6.238281 13.523438 6.238281 C 14.066406 3.734375 12.554688 1.285156 10.148438 0.761719 Z M 10.148438 0.761719 "/>
<path style=" stroke:none;fill-rule:nonzero;fill:rgb(86.666667%,18.039216%,26.666667%);fill-opacity:1;" d="M 10.148438 0.761719 C 8.898438 0.488281 7.792969 2.375 7.25 4.875 C 7.25 4.875 8.144531 5.800781 8.839844 5.949219 L 9.1875 6.027344 C 9.886719 6.175781 11.082031 5.707031 11.082031 5.707031 C 11.625 3.207031 11.402344 1.03125 10.148438 0.761719 Z M 10.148438 0.761719 "/>
<path style=" stroke:none;fill-rule:nonzero;fill:rgb(100%,67.45098%,20%);fill-opacity:1;" d="M 6.601562 11.644531 C 6.796875 11.46875 7.332031 11.507812 7.644531 11.394531 C 7.957031 11.277344 8.152344 11.132812 8.410156 11.238281 C 8.671875 11.34375 8.75 11.5 8.996094 11.519531 C 9.246094 11.542969 9.425781 11.6875 9.324219 11.800781 C 9.21875 11.917969 8.398438 11.960938 7.851562 11.960938 C 7.304688 11.960938 6.359375 11.863281 6.601562 11.644531 Z M 6.601562 11.644531 "/>
</g>
</svg>
