<?xml version="1.0" encoding="UTF-8"?>
<svg xmlns="http://www.w3.org/2000/svg" xmlns:xlink="http://www.w3.org/1999/xlink" width="15pt" height="15pt" viewBox="0 0 15 15" version="1.1">
<g id="surface1">
<path style=" stroke:none;fill-rule:nonzero;fill:rgb(75.686275%,41.176471%,30.980392%);fill-opacity:1;" d="M 1.667969 8.75 C 2.671875 8.75 2.5 9.582031 2.5 10 C 2.5 10.417969 2.5 11.25 3.332031 11.25 C 4.167969 11.25 4.777344 10.222656 6.25 8.75 L 15 0 L 15 2.917969 C 15 2.917969 9.375 8.957031 7.5 10.832031 C 5.625 12.707031 4.582031 13.75 3.332031 13.75 C 1.871094 13.75 0.417969 12.664062 0.417969 10.832031 C 0.417969 9.167969 1.25 8.75 1.667969 8.75 Z M 1.667969 8.75 "/>
<path style=" stroke:none;fill-rule:nonzero;fill:rgb(86.666667%,18.039216%,26.666667%);fill-opacity:1;" d="M 13.75 12.292969 C 13.75 13.789062 12.539062 15 11.042969 15 C 9.546875 15 8.332031 13.789062 8.332031 12.292969 C 8.332031 10.796875 9.546875 9.582031 11.042969 9.582031 C 12.539062 9.582031 13.75 10.796875 13.75 12.292969 Z M 13.75 12.292969 "/>
<path style=" stroke:none;fill-rule:nonzero;fill:rgb(100%,67.45098%,20%);fill-opacity:1;" d="M 10.421875 7.796875 C 12.605469 5.488281 15 2.917969 15 2.917969 L 15 0 L 10.421875 4.578125 Z M 9.167969 9.117188 L 9.582031 8.679688 L 9.582031 5.417969 L 9.167969 5.832031 Z M 9.167969 9.117188 "/>
</g>
</svg>
