<?xml version="1.0" encoding="UTF-8"?>
<svg xmlns="http://www.w3.org/2000/svg" xmlns:xlink="http://www.w3.org/1999/xlink" width="15pt" height="15pt" viewBox="0 0 15 15" version="1.1">
<g id="surface1">
<path style=" stroke:none;fill-rule:nonzero;fill:rgb(81.960784%,82.745098%,83.137255%);fill-opacity:1;" d="M 2.082031 9.582031 L 12.917969 9.582031 L 12.917969 12.5 L 2.082031 12.5 Z M 2.082031 9.582031 "/>
<path style=" stroke:none;fill-rule:nonzero;fill:rgb(85.098039%,61.960784%,50.980392%);fill-opacity:1;" d="M 0 15 L 15 15 L 13.332031 12.082031 L 1.667969 12.082031 Z M 0 15 "/>
<path style=" stroke:none;fill-rule:nonzero;fill:rgb(40%,45.882353%,49.803922%);fill-opacity:1;" d="M 12.5 8.332031 L 2.5 8.332031 L 0.417969 10 L 14.582031 10 Z M 12.5 8.332031 "/>
<path style=" stroke:none;fill-rule:nonzero;fill:rgb(81.960784%,82.745098%,83.137255%);fill-opacity:1;" d="M 7.5 4.117188 L 4.066406 5.832031 L 10.933594 5.832031 Z M 7.5 4.117188 "/>
<path style=" stroke:none;fill-rule:nonzero;fill:rgb(40%,45.882353%,49.803922%);fill-opacity:1;" d="M 12.5 5.832031 L 12.082031 3.75 L 2.917969 3.75 L 2.5 5.832031 L 0.832031 7.082031 L 14.167969 7.082031 Z M 7.5 4.117188 L 10.933594 5.832031 L 4.066406 5.832031 Z M 7.5 4.117188 "/>
<path style=" stroke:none;fill-rule:nonzero;fill:rgb(81.960784%,82.745098%,83.137255%);fill-opacity:1;" d="M 2.5 7.082031 L 12.5 7.082031 L 12.5 8.332031 L 2.5 8.332031 Z M 10 3.75 L 10 2.082031 L 5 2.082031 L 5 3.75 L 4.167969 3.75 L 4.167969 4.582031 L 10.832031 4.582031 L 10.832031 3.75 Z M 10 3.75 "/>
<path style=" stroke:none;fill-rule:nonzero;fill:rgb(40%,45.882353%,49.803922%);fill-opacity:1;" d="M 5 0.832031 L 10 0.832031 L 10 1.667969 L 10.832031 2.5 L 4.167969 2.5 L 5 1.667969 Z M 5 0.832031 "/>
<path style=" stroke:none;fill-rule:nonzero;fill:rgb(60%,66.666667%,70.980392%);fill-opacity:1;" d="M 9.582031 0 L 9.582031 0.417969 L 5.417969 0.417969 L 5.417969 0 L 5 0 L 5 0.832031 L 10 0.832031 L 10 0 Z M 9.582031 0 "/>
<path style=" stroke:none;fill-rule:nonzero;fill:rgb(40%,45.882353%,49.803922%);fill-opacity:1;" d="M 12.5 6.152344 L 10.371094 5.089844 L 7.871094 3.839844 L 7.5 3.652344 L 7.128906 3.839844 L 4.628906 5.089844 L 2.5 6.152344 L 2.5 6.667969 L 12.5 6.667969 Z M 5 5.832031 L 7.5 4.582031 L 10 5.832031 Z M 5 5.832031 "/>
<path style=" stroke:none;fill-rule:nonzero;fill:rgb(42.745098%,43.137255%,44.313725%);fill-opacity:1;" d="M 2.082031 11.25 L 12.917969 11.25 L 12.917969 12.082031 L 2.082031 12.082031 Z M 2.082031 11.25 "/>
</g>
</svg>
