<?xml version="1.0" encoding="UTF-8"?>
<svg xmlns="http://www.w3.org/2000/svg" xmlns:xlink="http://www.w3.org/1999/xlink" width="15pt" height="15pt" viewBox="0 0 15 15" version="1.1">
<g id="surface1">
<path style=" stroke:none;fill-rule:nonzero;fill:rgb(66.666667%,72.156863%,76.078431%);fill-opacity:1;" d="M 7.082031 14.167969 C 7.082031 14.625 7.457031 15 7.917969 15 L 13.75 15 C 14.210938 15 14.582031 14.625 14.582031 14.167969 L 14.582031 7.5 C 14.582031 7.039062 14.210938 6.667969 13.75 6.667969 L 7.917969 6.667969 C 7.457031 6.667969 7.082031 7.039062 7.082031 7.5 Z M 7.082031 14.167969 "/>
<path style=" stroke:none;fill-rule:nonzero;fill:rgb(16.078431%,18.431373%,20%);fill-opacity:1;" d="M 13.75 6.667969 L 9.582031 6.667969 L 9.582031 7.5 L 14.582031 7.5 C 14.582031 7.039062 14.210938 6.667969 13.75 6.667969 Z M 13.75 6.667969 "/>
<path style=" stroke:none;fill-rule:nonzero;fill:rgb(23.137255%,53.333333%,76.470588%);fill-opacity:1;" d="M 1.25 12.5 L 13.75 12.5 L 13.75 14.167969 L 1.25 14.167969 Z M 1.25 12.5 "/>
<path style=" stroke:none;fill-rule:nonzero;fill:rgb(80%,83.921569%,86.666667%);fill-opacity:1;" d="M 1.25 6.667969 C 0.789062 6.667969 0.417969 7.039062 0.417969 7.5 L 0.417969 14.167969 C 0.417969 14.625 0.789062 15 1.25 15 L 9.582031 15 L 9.582031 6.667969 Z M 1.25 6.667969 "/>
<path style=" stroke:none;fill-rule:nonzero;fill:rgb(40%,45.882353%,49.803922%);fill-opacity:1;" d="M 1.25 6.667969 C 0.789062 6.667969 0.417969 7.039062 0.417969 7.5 L 9.582031 7.5 L 9.582031 6.667969 Z M 1.25 6.667969 "/>
<path style=" stroke:none;fill-rule:nonzero;fill:rgb(33.333333%,67.45098%,93.333333%);fill-opacity:1;" d="M 1.25 8.332031 L 2.917969 8.332031 L 2.917969 10 L 1.25 10 Z M 7.082031 8.332031 L 8.75 8.332031 L 8.75 10 L 7.082031 10 Z M 4.167969 8.332031 L 5.832031 8.332031 L 5.832031 10 L 4.167969 10 Z M 4.167969 8.332031 "/>
<path style=" stroke:none;fill-rule:nonzero;fill:rgb(23.137255%,53.333333%,76.470588%);fill-opacity:1;" d="M 12.082031 8.332031 L 13.75 8.332031 L 13.75 10 L 12.082031 10 Z M 9.582031 8.332031 L 11.25 8.332031 L 11.25 10 L 9.582031 10 Z M 9.582031 8.332031 "/>
<path style=" stroke:none;fill-rule:nonzero;fill:rgb(33.333333%,67.45098%,93.333333%);fill-opacity:1;" d="M 1.25 12.5 L 8.75 12.5 L 8.75 15 L 1.25 15 Z M 1.25 12.5 "/>
<path style=" stroke:none;fill-rule:nonzero;fill:rgb(23.137255%,53.333333%,76.470588%);fill-opacity:1;" d="M 2.917969 12.5 L 7.082031 12.5 L 7.082031 15 L 2.917969 15 Z M 2.917969 12.5 "/>
<path style=" stroke:none;fill-rule:nonzero;fill:rgb(86.666667%,18.039216%,26.666667%);fill-opacity:1;" d="M 0.417969 10.832031 L 9.582031 10.832031 L 9.582031 12.5 L 0.417969 12.5 Z M 0.417969 10.832031 "/>
<path style=" stroke:none;fill-rule:nonzero;fill:rgb(95.686275%,67.058824%,72.941176%);fill-opacity:1;" d="M 2.917969 11.25 L 7.082031 11.25 L 7.082031 12.082031 L 2.917969 12.082031 Z M 2.917969 11.25 "/>
<path style=" stroke:none;fill-rule:nonzero;fill:rgb(100%,100%,100%);fill-opacity:1;" d="M 3.75 11.25 L 6.25 11.25 L 6.25 12.082031 L 3.75 12.082031 Z M 3.75 11.25 "/>
<path style=" stroke:none;fill-rule:nonzero;fill:rgb(62.745098%,1.568627%,11.764706%);fill-opacity:1;" d="M 9.582031 10.832031 L 14.582031 10.832031 L 14.582031 12.5 L 9.582031 12.5 Z M 9.582031 10.832031 "/>
<path style=" stroke:none;fill-rule:nonzero;fill:rgb(16.078431%,18.431373%,20%);fill-opacity:1;" d="M 2.082031 5.832031 L 2.917969 5.832031 L 2.917969 6.667969 L 2.082031 6.667969 Z M 7.082031 5.832031 L 7.917969 5.832031 L 7.917969 6.667969 L 7.082031 6.667969 Z M 7.082031 5.832031 "/>
<path style=" stroke:none;fill-rule:nonzero;fill:rgb(86.666667%,18.039216%,26.666667%);fill-opacity:1;" d="M 8.75 5 C 8.75 5.460938 8.375 5.832031 7.917969 5.832031 L 2.082031 5.832031 C 1.625 5.832031 1.25 5.460938 1.25 5 L 1.25 0.832031 C 1.25 0.375 1.625 0 2.082031 0 L 7.917969 0 C 8.375 0 8.75 0.375 8.75 0.832031 Z M 8.75 5 "/>
<path style=" stroke:none;fill-rule:nonzero;fill:rgb(100%,100%,100%);fill-opacity:1;" d="M 4.402344 4.230469 C 4.65625 4.230469 4.855469 4.347656 4.855469 4.613281 C 4.855469 4.882812 4.65625 5 4.433594 5 L 2.484375 5 C 2.230469 5 2.03125 4.882812 2.03125 4.613281 C 2.03125 4.492188 2.105469 4.386719 2.164062 4.316406 C 2.648438 3.738281 3.175781 3.214844 3.617188 2.570312 C 3.722656 2.421875 3.824219 2.238281 3.824219 2.027344 C 3.824219 1.789062 3.640625 1.578125 3.402344 1.578125 C 2.730469 1.578125 3.050781 2.523438 2.492188 2.523438 C 2.210938 2.523438 2.066406 2.328125 2.066406 2.097656 C 2.066406 1.363281 2.71875 0.773438 3.4375 0.773438 C 4.15625 0.773438 4.734375 1.246094 4.734375 1.988281 C 4.734375 2.800781 3.828125 3.605469 3.332031 4.230469 Z M 5.386719 4.082031 C 5.097656 4.082031 4.976562 3.890625 4.976562 3.738281 C 4.976562 3.609375 5.023438 3.539062 5.058594 3.484375 L 6.367188 1.113281 C 6.492188 0.878906 6.65625 0.773438 6.960938 0.773438 C 7.300781 0.773438 7.632812 0.992188 7.632812 1.519531 L 7.632812 3.3125 L 7.730469 3.3125 C 7.957031 3.3125 8.140625 3.464844 8.140625 3.699219 C 8.140625 3.933594 7.957031 4.082031 7.730469 4.082031 L 7.632812 4.082031 L 7.632812 4.578125 C 7.632812 4.890625 7.507812 5.035156 7.210938 5.035156 C 6.914062 5.035156 6.792969 4.890625 6.792969 4.578125 L 6.792969 4.082031 Z M 6.792969 1.683594 L 6.78125 1.683594 L 5.992188 3.3125 L 6.792969 3.3125 Z M 6.792969 1.683594 "/>
</g>
</svg>
