<?xml version="1.0" encoding="UTF-8"?>
<svg xmlns="http://www.w3.org/2000/svg" xmlns:xlink="http://www.w3.org/1999/xlink" width="15pt" height="15pt" viewBox="0 0 15 15" version="1.1">
<g id="surface1">
<path style=" stroke:none;fill-rule:nonzero;fill:rgb(62.745098%,1.568627%,11.764706%);fill-opacity:1;" d="M 3.894531 6.125 L 3.058594 6.125 C 2.945312 6.125 2.851562 6.03125 2.851562 5.917969 L 2.851562 3 C 2.851562 2.886719 2.945312 2.792969 3.058594 2.792969 L 3.894531 2.792969 C 4.007812 2.792969 4.101562 2.886719 4.101562 3 L 4.101562 5.917969 C 4.101562 6.03125 4.007812 6.125 3.894531 6.125 Z M 3.894531 6.125 "/>
<path style=" stroke:none;fill-rule:nonzero;fill:rgb(100%,90.980392%,71.372549%);fill-opacity:1;" d="M 2.082031 6.667969 L 7.5 1.25 L 12.917969 6.667969 L 12.917969 13.75 L 2.082031 13.75 Z M 2.082031 6.667969 "/>
<path style=" stroke:none;fill-rule:nonzero;fill:rgb(100%,80%,30.196078%);fill-opacity:1;" d="M 7.5 6.667969 L 7.917969 6.667969 L 7.917969 13.332031 L 7.5 13.332031 Z M 7.5 6.667969 "/>
<path style=" stroke:none;fill-rule:nonzero;fill:rgb(40%,45.882353%,49.803922%);fill-opacity:1;" d="M 12.917969 7.082031 C 12.808594 7.082031 12.703125 7.042969 12.621094 6.960938 L 7.5 1.839844 L 2.378906 6.960938 C 2.214844 7.125 1.953125 7.125 1.789062 6.960938 C 1.625 6.796875 1.625 6.535156 1.789062 6.371094 L 7.207031 0.957031 C 7.367188 0.792969 7.632812 0.792969 7.792969 0.957031 L 13.210938 6.371094 C 13.375 6.535156 13.375 6.796875 13.210938 6.960938 C 13.128906 7.042969 13.023438 7.082031 12.917969 7.082031 Z M 12.917969 7.082031 "/>
<path style=" stroke:none;fill-rule:nonzero;fill:rgb(40%,45.882353%,49.803922%);fill-opacity:1;" d="M 7.5 7.082031 C 7.394531 7.082031 7.285156 7.042969 7.207031 6.960938 C 7.042969 6.796875 7.042969 6.535156 7.207031 6.371094 L 9.914062 3.664062 C 10.078125 3.5 10.339844 3.5 10.503906 3.664062 C 10.664062 3.828125 10.664062 4.089844 10.503906 4.253906 L 7.792969 6.960938 C 7.714844 7.042969 7.605469 7.082031 7.5 7.082031 Z M 7.5 7.082031 "/>
<path style=" stroke:none;fill-rule:nonzero;fill:rgb(75.686275%,41.176471%,30.980392%);fill-opacity:1;" d="M 4.167969 10.832031 L 5.832031 10.832031 L 5.832031 13.332031 L 4.167969 13.332031 Z M 4.167969 10.832031 "/>
<path style=" stroke:none;fill-rule:nonzero;fill:rgb(33.333333%,67.45098%,93.333333%);fill-opacity:1;" d="M 4.167969 7.082031 L 5.832031 7.082031 L 5.832031 8.75 L 4.167969 8.75 Z M 9.375 7.082031 L 11.042969 7.082031 L 11.042969 8.75 L 9.375 8.75 Z M 9.375 10.832031 L 11.042969 10.832031 L 11.042969 12.5 L 9.375 12.5 Z M 9.375 10.832031 "/>
<path style=" stroke:none;fill-rule:nonzero;fill:rgb(36.078431%,56.862745%,23.137255%);fill-opacity:1;" d="M 13.957031 13.957031 C 13.957031 14.304688 13.679688 14.582031 13.332031 14.582031 L 1.667969 14.582031 C 1.320312 14.582031 1.042969 14.304688 1.042969 13.957031 C 1.042969 13.613281 1.320312 13.332031 1.667969 13.332031 L 13.332031 13.332031 C 13.679688 13.332031 13.957031 13.613281 13.957031 13.957031 Z M 13.957031 13.957031 "/>
</g>
</svg>
