<?xml version="1.0" encoding="UTF-8"?>
<svg xmlns="http://www.w3.org/2000/svg" xmlns:xlink="http://www.w3.org/1999/xlink" width="15pt" height="15pt" viewBox="0 0 15 15" version="1.1">
<g id="surface1">
<path style=" stroke:none;fill-rule:nonzero;fill:rgb(36.078431%,56.862745%,23.137255%);fill-opacity:1;" d="M 15 13.957031 C 15 14.304688 14.71875 14.582031 14.375 14.582031 L 0.625 14.582031 C 0.28125 14.582031 0 14.304688 0 13.957031 C 0 13.613281 0.28125 13.332031 0.625 13.332031 L 14.375 13.332031 C 14.71875 13.332031 15 13.613281 15 13.957031 Z M 15 13.957031 "/>
<path style=" stroke:none;fill-rule:nonzero;fill:rgb(62.745098%,1.568627%,11.764706%);fill-opacity:1;" d="M 5.144531 6.125 L 4.308594 6.125 C 4.195312 6.125 4.101562 6.03125 4.101562 5.917969 L 4.101562 3 C 4.101562 2.886719 4.195312 2.792969 4.308594 2.792969 L 5.144531 2.792969 C 5.257812 2.792969 5.351562 2.886719 5.351562 3 L 5.351562 5.917969 C 5.351562 6.03125 5.257812 6.125 5.144531 6.125 Z M 5.144531 6.125 "/>
<path style=" stroke:none;fill-rule:nonzero;fill:rgb(100%,80%,30.196078%);fill-opacity:1;" d="M 2.476562 13.332031 C 2.417969 11.394531 2.265625 10 2.082031 10 C 1.902344 10 1.75 11.394531 1.691406 13.332031 Z M 2.476562 13.332031 "/>
<path style=" stroke:none;fill-rule:nonzero;fill:rgb(46.666667%,69.803922%,33.333333%);fill-opacity:1;" d="M 4.167969 7.804688 C 4.167969 10.128906 3.234375 10.832031 2.082031 10.832031 C 0.933594 10.832031 0 10.128906 0 7.804688 C 0 5.480469 1.667969 2.082031 2.082031 2.082031 C 2.5 2.082031 4.167969 5.480469 4.167969 7.804688 Z M 4.167969 7.804688 "/>
<path style=" stroke:none;fill-rule:nonzero;fill:rgb(100%,90.980392%,71.372549%);fill-opacity:1;" d="M 3.332031 6.667969 L 8.75 1.25 L 14.167969 6.667969 L 14.167969 13.332031 L 3.332031 13.332031 Z M 3.332031 6.667969 "/>
<path style=" stroke:none;fill-rule:nonzero;fill:rgb(100%,80%,30.196078%);fill-opacity:1;" d="M 8.75 6.667969 L 9.167969 6.667969 L 9.167969 13.332031 L 8.75 13.332031 Z M 8.75 6.667969 "/>
<path style=" stroke:none;fill-rule:nonzero;fill:rgb(40%,45.882353%,49.803922%);fill-opacity:1;" d="M 14.167969 7.082031 C 14.058594 7.082031 13.953125 7.042969 13.871094 6.960938 L 8.75 1.839844 L 3.628906 6.960938 C 3.464844 7.125 3.203125 7.125 3.039062 6.960938 C 2.875 6.796875 2.875 6.535156 3.039062 6.371094 L 8.457031 0.957031 C 8.617188 0.792969 8.882812 0.792969 9.042969 0.957031 L 14.460938 6.371094 C 14.625 6.535156 14.625 6.796875 14.460938 6.960938 C 14.378906 7.042969 14.273438 7.082031 14.167969 7.082031 Z M 14.167969 7.082031 "/>
<path style=" stroke:none;fill-rule:nonzero;fill:rgb(40%,45.882353%,49.803922%);fill-opacity:1;" d="M 8.75 7.082031 C 8.644531 7.082031 8.535156 7.042969 8.457031 6.960938 C 8.292969 6.796875 8.292969 6.535156 8.457031 6.371094 L 11.164062 3.664062 C 11.328125 3.5 11.589844 3.5 11.753906 3.664062 C 11.914062 3.828125 11.914062 4.089844 11.753906 4.253906 L 9.042969 6.960938 C 8.964844 7.042969 8.855469 7.082031 8.75 7.082031 Z M 8.75 7.082031 "/>
<path style=" stroke:none;fill-rule:nonzero;fill:rgb(75.686275%,41.176471%,30.980392%);fill-opacity:1;" d="M 5.417969 10.832031 L 7.082031 10.832031 L 7.082031 13.332031 L 5.417969 13.332031 Z M 5.417969 10.832031 "/>
<path style=" stroke:none;fill-rule:nonzero;fill:rgb(33.333333%,67.45098%,93.333333%);fill-opacity:1;" d="M 5.417969 7.082031 L 7.082031 7.082031 L 7.082031 8.75 L 5.417969 8.75 Z M 10.625 7.082031 L 12.292969 7.082031 L 12.292969 8.75 L 10.625 8.75 Z M 10.625 10.832031 L 12.292969 10.832031 L 12.292969 12.5 L 10.625 12.5 Z M 10.625 10.832031 "/>
<path style=" stroke:none;fill-rule:nonzero;fill:rgb(46.666667%,69.803922%,33.333333%);fill-opacity:1;" d="M 4.425781 12.496094 C 4.425781 13.167969 4.070312 13.371094 3.628906 13.371094 C 3.1875 13.371094 2.828125 13.167969 2.828125 12.496094 C 2.828125 11.824219 3.46875 10.839844 3.628906 10.839844 C 3.789062 10.839844 4.425781 11.824219 4.425781 12.496094 Z M 14.949219 12.496094 C 14.949219 13.167969 14.589844 13.371094 14.148438 13.371094 C 13.707031 13.371094 13.351562 13.167969 13.351562 12.496094 C 13.351562 11.824219 13.988281 10.839844 14.148438 10.839844 C 14.308594 10.839844 14.949219 11.824219 14.949219 12.496094 Z M 14.949219 12.496094 "/>
</g>
</svg>
