<?xml version="1.0" encoding="UTF-8"?>
<svg xmlns="http://www.w3.org/2000/svg" xmlns:xlink="http://www.w3.org/1999/xlink" width="15pt" height="15pt" viewBox="0 0 15 15" version="1.1">
<g id="surface1">
<path style=" stroke:none;fill-rule:nonzero;fill:rgb(100%,80%,30.196078%);fill-opacity:1;" d="M 15 14.167969 C 15 14.625 14.625 15 14.167969 15 L 0.832031 15 C 0.375 15 0 14.625 0 14.167969 L 0 6.25 C 0 5.789062 0.375 5.417969 0.832031 5.417969 L 14.167969 5.417969 C 14.625 5.417969 15 5.789062 15 6.25 Z M 15 14.167969 "/>
<path style=" stroke:none;fill-rule:nonzero;fill:rgb(42.745098%,43.137255%,44.313725%);fill-opacity:1;" d="M 14.167969 5.417969 L 0.832031 5.417969 C 0.375 5.417969 0 5.789062 0 6.25 L 15 6.25 C 15 5.789062 14.625 5.417969 14.167969 5.417969 Z M 14.167969 5.417969 "/>
<path style=" stroke:none;fill-rule:nonzero;fill:rgb(23.137255%,53.333333%,76.470588%);fill-opacity:1;" d="M 0.832031 10 L 14.167969 10 L 14.167969 11.667969 L 0.832031 11.667969 Z M 0.832031 7.5 L 14.167969 7.5 L 14.167969 9.167969 L 0.832031 9.167969 Z M 0.832031 12.5 L 14.167969 12.5 L 14.167969 14.167969 L 0.832031 14.167969 Z M 0.832031 12.5 "/>
<path style=" stroke:none;fill-rule:nonzero;fill:rgb(100%,80%,30.196078%);fill-opacity:1;" d="M 11.667969 7.082031 L 12.5 7.082031 L 12.5 14.582031 L 11.667969 14.582031 Z M 11.667969 7.082031 "/>
<path style=" stroke:none;fill-rule:nonzero;fill:rgb(100%,90.980392%,71.372549%);fill-opacity:1;" d="M 9.167969 0 L 2.5 0 C 2.039062 0 1.667969 0.375 1.667969 0.832031 L 1.667969 15 L 10 15 L 10 0.832031 C 10 0.375 9.625 0 9.167969 0 Z M 9.167969 0 "/>
<path style=" stroke:none;fill-rule:nonzero;fill:rgb(50.196078%,50.980392%,52.156863%);fill-opacity:1;" d="M 9.167969 0 L 2.5 0 C 2.039062 0 1.667969 0.375 1.667969 0.832031 L 10 0.832031 C 10 0.375 9.625 0 9.167969 0 Z M 9.167969 0 "/>
<path style=" stroke:none;fill-rule:nonzero;fill:rgb(33.333333%,67.45098%,93.333333%);fill-opacity:1;" d="M 2.5 7.5 L 9.167969 7.5 L 9.167969 9.167969 L 2.5 9.167969 Z M 2.5 10 L 9.167969 10 L 9.167969 11.667969 L 2.5 11.667969 Z M 2.5 12.5 L 9.167969 12.5 L 9.167969 14.167969 L 2.5 14.167969 Z M 2.5 12.5 "/>
<path style=" stroke:none;fill-rule:nonzero;fill:rgb(100%,90.980392%,71.372549%);fill-opacity:1;" d="M 4.167969 2.917969 L 5 2.917969 L 5 15 L 4.167969 15 Z M 6.667969 2.917969 L 7.5 2.917969 L 7.5 15 L 6.667969 15 Z M 6.667969 2.917969 "/>
<path style=" stroke:none;fill-rule:nonzero;fill:rgb(13.333333%,40%,60%);fill-opacity:1;" d="M 5 12.5 L 6.667969 12.5 L 6.667969 15 L 5 15 Z M 5 12.5 "/>
<path style=" stroke:none;fill-rule:nonzero;fill:rgb(65.490196%,66.27451%,67.45098%);fill-opacity:1;" d="M 8.332031 3.75 C 8.332031 5.128906 7.214844 6.25 5.832031 6.25 C 4.453125 6.25 3.332031 5.128906 3.332031 3.75 C 3.332031 2.371094 4.453125 1.25 5.832031 1.25 C 7.214844 1.25 8.332031 2.371094 8.332031 3.75 Z M 8.332031 3.75 "/>
<path style=" stroke:none;fill-rule:nonzero;fill:rgb(90.196078%,90.588235%,90.980392%);fill-opacity:1;" d="M 7.5 3.75 C 7.5 4.671875 6.753906 5.417969 5.832031 5.417969 C 4.914062 5.417969 4.167969 4.671875 4.167969 3.75 C 4.167969 2.828125 4.914062 2.082031 5.832031 2.082031 C 6.753906 2.082031 7.5 2.828125 7.5 3.75 Z M 7.5 3.75 "/>
<path style=" stroke:none;fill-rule:nonzero;fill:rgb(62.745098%,1.568627%,11.764706%);fill-opacity:1;" d="M 7.082031 4.167969 L 5.832031 4.167969 C 5.601562 4.167969 5.417969 3.980469 5.417969 3.75 L 5.417969 1.667969 C 5.417969 1.4375 5.601562 1.25 5.832031 1.25 C 6.0625 1.25 6.25 1.4375 6.25 1.667969 L 6.25 3.332031 L 7.082031 3.332031 C 7.3125 3.332031 7.5 3.519531 7.5 3.75 C 7.5 3.980469 7.3125 4.167969 7.082031 4.167969 Z M 7.082031 4.167969 "/>
</g>
</svg>
