<?xml version="1.0" encoding="UTF-8"?>
<svg xmlns="http://www.w3.org/2000/svg" xmlns:xlink="http://www.w3.org/1999/xlink" width="15pt" height="15pt" viewBox="0 0 15 15" version="1.1">
<g id="surface1">
<path style=" stroke:none;fill-rule:nonzero;fill:rgb(85.490196%,78.431373%,69.411765%);fill-opacity:1;" d="M 14.167969 5.417969 C 14.167969 5.875 13.792969 6.25 13.332031 6.25 L 10.832031 6.25 C 10.375 6.25 10 5.875 10 5.417969 L 10 4.582031 C 10 4.125 10.375 3.75 10.832031 3.75 L 13.332031 3.75 C 13.792969 3.75 14.167969 4.125 14.167969 4.582031 Z M 5 5.417969 C 5 5.875 4.625 6.25 4.167969 6.25 L 1.667969 6.25 C 1.207031 6.25 0.832031 5.875 0.832031 5.417969 L 0.832031 4.582031 C 0.832031 4.125 1.207031 3.75 1.667969 3.75 L 4.167969 3.75 C 4.625 3.75 5 4.125 5 4.582031 Z M 5 5.417969 "/>
<path style=" stroke:none;fill-rule:nonzero;fill:rgb(94.509804%,86.27451%,75.686275%);fill-opacity:1;" d="M 15 14.167969 C 15 14.625 14.625 15 14.167969 15 L 0.832031 15 C 0.375 15 0 14.625 0 14.167969 L 0 5.417969 C 0 4.957031 0.375 4.582031 0.832031 4.582031 L 14.167969 4.582031 C 14.625 4.582031 15 4.957031 15 5.417969 Z M 15 14.167969 "/>
<path style=" stroke:none;fill-rule:nonzero;fill:rgb(85.490196%,78.431373%,69.411765%);fill-opacity:1;" d="M 9.167969 3.75 L 9.167969 2.917969 C 9.167969 2.609375 9 2.34375 8.75 2.199219 L 8.75 2.082031 C 8.75 1.625 8.375 1.25 7.917969 1.25 L 7.082031 1.25 C 6.625 1.25 6.25 1.625 6.25 2.082031 L 6.25 2.199219 C 6.003906 2.34375 5.832031 2.609375 5.832031 2.917969 L 5.832031 3.75 L 5.417969 3.75 L 5.417969 15 L 9.582031 15 L 9.582031 3.75 Z M 9.167969 3.75 "/>
<path style=" stroke:none;fill-rule:nonzero;fill:rgb(33.333333%,67.45098%,93.333333%);fill-opacity:1;" d="M 5.832031 2.917969 L 6.667969 2.917969 L 6.667969 3.75 L 5.832031 3.75 Z M 8.332031 2.917969 L 9.167969 2.917969 L 9.167969 3.75 L 8.332031 3.75 Z M 7.082031 2.917969 L 7.917969 2.917969 L 7.917969 3.75 L 7.082031 3.75 Z M 7.082031 2.917969 "/>
<path style=" stroke:none;fill-rule:nonzero;fill:rgb(23.137255%,53.333333%,76.470588%);fill-opacity:1;" d="M 6.25 6.25 L 7.082031 6.25 L 7.082031 12.082031 L 6.25 12.082031 Z M 7.917969 6.25 L 8.75 6.25 L 8.75 12.082031 L 7.917969 12.082031 Z M 7.917969 6.25 "/>
<path style=" stroke:none;fill-rule:nonzero;fill:rgb(33.333333%,67.45098%,93.333333%);fill-opacity:1;" d="M 10 7.082031 L 10.832031 7.082031 L 10.832031 12.082031 L 10 12.082031 Z M 11.667969 7.082031 L 12.5 7.082031 L 12.5 12.082031 L 11.667969 12.082031 Z M 13.332031 7.082031 L 14.167969 7.082031 L 14.167969 12.082031 L 13.332031 12.082031 Z M 0.832031 7.082031 L 1.667969 7.082031 L 1.667969 12.082031 L 0.832031 12.082031 Z M 2.5 7.082031 L 3.332031 7.082031 L 3.332031 12.082031 L 2.5 12.082031 Z M 4.167969 7.082031 L 5 7.082031 L 5 12.082031 L 4.167969 12.082031 Z M 0.832031 12.5 L 1.667969 12.5 L 1.667969 13.332031 L 0.832031 13.332031 Z M 2.5 12.5 L 3.332031 12.5 L 3.332031 13.332031 L 2.5 13.332031 Z M 4.167969 12.5 L 5 12.5 L 5 13.332031 L 4.167969 13.332031 Z M 4.167969 12.5 "/>
<path style=" stroke:none;fill-rule:nonzero;fill:rgb(23.137255%,53.333333%,76.470588%);fill-opacity:1;" d="M 6.25 12.5 L 7.082031 12.5 L 7.082031 13.332031 L 6.25 13.332031 Z M 7.917969 12.5 L 8.75 12.5 L 8.75 13.332031 L 7.917969 13.332031 Z M 7.917969 12.5 "/>
<path style=" stroke:none;fill-rule:nonzero;fill:rgb(33.333333%,67.45098%,93.333333%);fill-opacity:1;" d="M 10 12.5 L 10.832031 12.5 L 10.832031 13.332031 L 10 13.332031 Z M 11.667969 12.5 L 12.5 12.5 L 12.5 13.332031 L 11.667969 13.332031 Z M 13.332031 12.5 L 14.167969 12.5 L 14.167969 13.332031 L 13.332031 13.332031 Z M 13.332031 12.5 "/>
<path style=" stroke:none;fill-rule:nonzero;fill:rgb(40%,45.882353%,49.803922%);fill-opacity:1;" d="M 0.832031 13.75 L 1.667969 13.75 L 1.667969 15 L 0.832031 15 Z M 2.5 13.75 L 3.332031 13.75 L 3.332031 15 L 2.5 15 Z M 4.167969 13.75 L 5 13.75 L 5 15 L 4.167969 15 Z M 6.25 13.75 L 7.082031 13.75 L 7.082031 15 L 6.25 15 Z M 7.917969 13.75 L 8.75 13.75 L 8.75 15 L 7.917969 15 Z M 10 13.75 L 10.832031 13.75 L 10.832031 15 L 10 15 Z M 11.667969 13.75 L 12.5 13.75 L 12.5 15 L 11.667969 15 Z M 13.332031 13.75 L 14.167969 13.75 L 14.167969 15 L 13.332031 15 Z M 13.332031 13.75 "/>
</g>
</svg>
