<?xml version="1.0" encoding="UTF-8"?>
<svg xmlns="http://www.w3.org/2000/svg" xmlns:xlink="http://www.w3.org/1999/xlink" width="15pt" height="15pt" viewBox="0 0 15 15" version="1.1">
<g id="surface1">
<path style=" stroke:none;fill-rule:nonzero;fill:rgb(100%,80%,30.196078%);fill-opacity:1;" d="M 5.832031 14.167969 C 5.832031 14.625 6.207031 15 6.667969 15 L 14.167969 15 C 14.625 15 15 14.625 15 14.167969 L 15 5.832031 C 15 5.375 14.625 5 14.167969 5 L 6.667969 5 C 6.207031 5 5.832031 5.375 5.832031 5.832031 Z M 5.832031 14.167969 "/>
<path style=" stroke:none;fill-rule:nonzero;fill:rgb(73.72549%,74.509804%,75.294118%);fill-opacity:1;" d="M 14.167969 5 L 8.332031 5 L 8.332031 5.832031 L 15 5.832031 C 15 5.375 14.625 5 14.167969 5 Z M 14.167969 5 "/>
<path style=" stroke:none;fill-rule:nonzero;fill:rgb(33.333333%,67.45098%,93.333333%);fill-opacity:1;" d="M 8.332031 6.667969 L 14.167969 6.667969 L 14.167969 15 L 8.332031 15 Z M 8.332031 6.667969 "/>
<path style=" stroke:none;fill-rule:nonzero;fill:rgb(100%,90.980392%,71.372549%);fill-opacity:1;" d="M 7.5 0 L 0.832031 0 C 0.375 0 0 0.375 0 0.832031 L 0 14.167969 C 0 14.625 0.375 15 0.832031 15 L 8.332031 15 L 8.332031 0.832031 C 8.332031 0.375 7.960938 0 7.5 0 Z M 7.5 0 "/>
<path style=" stroke:none;fill-rule:nonzero;fill:rgb(73.72549%,74.509804%,75.294118%);fill-opacity:1;" d="M 7.5 0 L 0.832031 0 C 0.375 0 0 0.375 0 0.832031 L 8.332031 0.832031 C 8.332031 0.375 7.960938 0 7.5 0 Z M 7.5 0 "/>
<path style=" stroke:none;fill-rule:nonzero;fill:rgb(33.333333%,67.45098%,93.333333%);fill-opacity:1;" d="M 0.832031 9.167969 L 7.5 9.167969 L 7.5 10.832031 L 0.832031 10.832031 Z M 0.832031 6.667969 L 7.5 6.667969 L 7.5 8.332031 L 0.832031 8.332031 Z M 0.832031 4.167969 L 7.5 4.167969 L 7.5 5.832031 L 0.832031 5.832031 Z M 0.832031 1.667969 L 7.5 1.667969 L 7.5 3.332031 L 0.832031 3.332031 Z M 0.832031 11.667969 L 7.5 11.667969 L 7.5 15 L 0.832031 15 Z M 0.832031 11.667969 "/>
<path style=" stroke:none;fill-rule:nonzero;fill:rgb(23.137255%,53.333333%,76.470588%);fill-opacity:1;" d="M 2.5 13.332031 L 5.832031 13.332031 L 5.832031 15 L 2.5 15 Z M 9.582031 13.332031 L 12.917969 13.332031 L 12.917969 15 L 9.582031 15 Z M 9.582031 13.332031 "/>
<path style=" stroke:none;fill-rule:nonzero;fill:rgb(100%,80%,30.196078%);fill-opacity:1;" d="M 8.332031 10.832031 L 14.582031 10.832031 L 14.582031 11.667969 L 8.332031 11.667969 Z M 8.332031 8.332031 L 14.582031 8.332031 L 14.582031 9.167969 L 8.332031 9.167969 Z M 8.332031 8.332031 "/>
<path style=" stroke:none;fill-rule:nonzero;fill:rgb(86.666667%,18.039216%,26.666667%);fill-opacity:1;" d="M 15 2.917969 C 15 3.375 14.625 3.75 14.167969 3.75 L 10 3.75 C 9.539062 3.75 9.167969 3.375 9.167969 2.917969 L 9.167969 2.082031 C 9.167969 1.625 9.539062 1.25 10 1.25 L 14.167969 1.25 C 14.625 1.25 15 1.625 15 2.082031 Z M 15 2.917969 "/>
<path style=" stroke:none;fill-rule:nonzero;fill:rgb(34.509804%,34.901961%,35.686275%);fill-opacity:1;" d="M 10.832031 3.75 L 11.667969 3.75 L 11.667969 5 L 10.832031 5 Z M 12.5 3.75 L 13.332031 3.75 L 13.332031 5 L 12.5 5 Z M 12.5 3.75 "/>
<path style=" stroke:none;fill-rule:nonzero;fill:rgb(95.686275%,67.058824%,72.941176%);fill-opacity:1;" d="M 10 2.082031 L 10.832031 2.082031 L 10.832031 2.917969 L 10 2.917969 Z M 10 2.082031 "/>
<path style=" stroke:none;fill-rule:nonzero;fill:rgb(100%,100%,100%);fill-opacity:1;" d="M 10.832031 2.082031 L 11.667969 2.082031 L 11.667969 2.917969 L 10.832031 2.917969 Z M 10.832031 2.082031 "/>
<path style=" stroke:none;fill-rule:nonzero;fill:rgb(95.686275%,67.058824%,72.941176%);fill-opacity:1;" d="M 11.667969 2.082031 L 12.5 2.082031 L 12.5 2.917969 L 11.667969 2.917969 Z M 11.667969 2.082031 "/>
<path style=" stroke:none;fill-rule:nonzero;fill:rgb(100%,100%,100%);fill-opacity:1;" d="M 12.5 2.082031 L 13.332031 2.082031 L 13.332031 2.917969 L 12.5 2.917969 Z M 12.5 2.082031 "/>
<path style=" stroke:none;fill-rule:nonzero;fill:rgb(95.686275%,67.058824%,72.941176%);fill-opacity:1;" d="M 13.332031 2.082031 L 14.167969 2.082031 L 14.167969 2.917969 L 13.332031 2.917969 Z M 13.332031 2.082031 "/>
</g>
</svg>
