<?xml version="1.0" encoding="UTF-8"?>
<svg xmlns="http://www.w3.org/2000/svg" xmlns:xlink="http://www.w3.org/1999/xlink" width="15pt" height="15pt" viewBox="0 0 15 15" version="1.1">
<g id="surface1">
<path style=" stroke:none;fill-rule:nonzero;fill:rgb(75.686275%,41.176471%,30.980392%);fill-opacity:1;" d="M 8.75 6.25 C 8.75 7.171875 8.003906 7.917969 7.082031 7.917969 L 1.667969 7.917969 C 0.746094 7.917969 0 7.171875 0 6.25 L 0 5 C 0 4.078125 0.746094 3.332031 1.667969 3.332031 L 7.082031 3.332031 C 8.003906 3.332031 8.75 4.078125 8.75 5 Z M 8.75 6.25 "/>
<path style=" stroke:none;fill-rule:nonzero;fill:rgb(75.686275%,41.176471%,30.980392%);fill-opacity:1;" d="M 15 2.5 C 15 3.421875 14.253906 4.167969 13.332031 4.167969 L 8.332031 4.167969 C 7.414062 4.167969 6.667969 3.421875 6.667969 2.5 L 6.667969 2.082031 C 6.667969 1.164062 7.414062 0.417969 8.332031 0.417969 L 13.332031 0.417969 C 14.253906 0.417969 15 1.164062 15 2.082031 Z M 15 2.5 "/>
<path style=" stroke:none;fill-rule:nonzero;fill:rgb(100%,80%,30.196078%);fill-opacity:1;" d="M 0 5 L 0 14.167969 C 0 14.625 0.375 15 0.832031 15 L 13.75 15 L 13.75 5 Z M 0 5 "/>
<path style=" stroke:none;fill-rule:nonzero;fill:rgb(33.333333%,67.45098%,93.333333%);fill-opacity:1;" d="M 0.832031 13.332031 L 5.832031 13.332031 L 5.832031 15 L 0.832031 15 Z M 0.832031 10.832031 L 7.5 10.832031 L 7.5 12.5 L 0.832031 12.5 Z M 0.832031 10.832031 "/>
<path style=" stroke:none;fill-rule:nonzero;fill:rgb(100%,90.980392%,71.372549%);fill-opacity:1;" d="M 6.667969 2.082031 L 6.667969 15 L 14.167969 15 C 14.625 15 15 14.625 15 14.167969 L 15 2.082031 Z M 6.667969 2.082031 "/>
<path style=" stroke:none;fill-rule:nonzero;fill:rgb(33.333333%,67.45098%,93.333333%);fill-opacity:1;" d="M 7.5 8.332031 L 14.167969 8.332031 L 14.167969 10 L 7.5 10 Z M 7.5 5.832031 L 14.167969 5.832031 L 14.167969 7.5 L 7.5 7.5 Z M 7.5 3.332031 L 14.167969 3.332031 L 14.167969 5 L 7.5 5 Z M 7.5 10.832031 L 14.167969 10.832031 L 14.167969 12.5 L 7.5 12.5 Z M 7.5 10.832031 "/>
<path style=" stroke:none;fill-rule:nonzero;fill:rgb(100%,90.980392%,71.372549%);fill-opacity:1;" d="M 9.167969 2.917969 L 10 2.917969 L 10 12.917969 L 9.167969 12.917969 Z M 11.667969 2.917969 L 12.5 2.917969 L 12.5 12.917969 L 11.667969 12.917969 Z M 11.667969 2.917969 "/>
<path style=" stroke:none;fill-rule:nonzero;fill:rgb(23.137255%,53.333333%,76.470588%);fill-opacity:1;" d="M 9.167969 13.332031 L 12.5 13.332031 L 12.5 15 L 9.167969 15 Z M 4.167969 5.832031 L 4.167969 7.5 L 2.5 7.5 L 2.5 5.832031 L 1.667969 5.832031 L 1.667969 10 L 2.5 10 L 2.5 8.332031 L 4.167969 8.332031 L 4.167969 10 L 5 10 L 5 5.832031 Z M 4.167969 5.832031 "/>
<path style=" stroke:none;fill-rule:nonzero;fill:rgb(100%,80%,30.196078%);fill-opacity:1;" d="M 2.917969 10.417969 L 3.75 10.417969 L 3.75 12.917969 L 2.917969 12.917969 Z M 5.832031 10.417969 L 6.667969 10.417969 L 6.667969 12.917969 L 5.832031 12.917969 Z M 5.832031 10.417969 "/>
</g>
</svg>
