<?xml version="1.0" encoding="UTF-8"?>
<svg xmlns="http://www.w3.org/2000/svg" xmlns:xlink="http://www.w3.org/1999/xlink" width="15pt" height="15pt" viewBox="0 0 15 15" version="1.1">
<g id="surface1">
<path style=" stroke:none;fill-rule:nonzero;fill:rgb(92.941176%,73.333333%,62.352941%);fill-opacity:1;" d="M 4.582031 4.167969 L 10.417969 4.167969 L 10.417969 10.417969 L 4.582031 10.417969 Z M 4.582031 4.167969 "/>
<path style=" stroke:none;fill-rule:nonzero;fill:rgb(74.509804%,9.803922%,19.215686%);fill-opacity:1;" d="M 0.417969 7.5 L 0.417969 14.167969 C 0.417969 14.625 0.789062 15 1.25 15 L 13.75 15 C 14.210938 15 14.582031 14.625 14.582031 14.167969 L 14.582031 7.5 Z M 0.417969 7.5 "/>
<path style=" stroke:none;fill-rule:nonzero;fill:rgb(100%,90.980392%,71.372549%);fill-opacity:1;" d="M 0.417969 5.832031 L 14.582031 5.832031 L 14.582031 7.082031 L 0.417969 7.082031 Z M 0.417969 5.832031 "/>
<path style=" stroke:none;fill-rule:nonzero;fill:rgb(75.686275%,41.176471%,30.980392%);fill-opacity:1;" d="M 0.417969 6.667969 L 14.582031 6.667969 L 14.582031 7.5 L 0.417969 7.5 Z M 0.417969 6.667969 "/>
<path style=" stroke:none;fill-rule:nonzero;fill:rgb(80%,83.921569%,86.666667%);fill-opacity:1;" d="M 7.5 11.25 C 6.808594 11.25 6.25 11.808594 6.25 12.5 L 6.25 15 L 8.75 15 L 8.75 12.5 C 8.75 11.808594 8.191406 11.25 7.5 11.25 Z M 7.5 11.25 "/>
<path style=" stroke:none;fill-rule:nonzero;fill:rgb(66.666667%,72.156863%,76.078431%);fill-opacity:1;" d="M 11.667969 11.25 C 10.976562 11.25 10.417969 11.808594 10.417969 12.5 L 10.417969 14.167969 L 12.917969 14.167969 L 12.917969 12.5 C 12.917969 11.808594 12.355469 11.25 11.667969 11.25 Z M 3.332031 11.25 C 2.644531 11.25 2.082031 11.808594 2.082031 12.5 L 2.082031 14.167969 L 4.582031 14.167969 L 4.582031 12.5 C 4.582031 11.808594 4.023438 11.25 3.332031 11.25 Z M 3.332031 11.25 "/>
<path style=" stroke:none;fill-rule:nonzero;fill:rgb(85.098039%,61.960784%,50.980392%);fill-opacity:1;" d="M 9.167969 1.667969 C 9.167969 2.585938 8.421875 3.332031 7.5 3.332031 C 6.578125 3.332031 5.832031 2.585938 5.832031 1.667969 C 5.832031 0.746094 6.578125 0 7.5 0 C 8.421875 0 9.167969 0.746094 9.167969 1.667969 Z M 9.167969 1.667969 "/>
<path style=" stroke:none;fill-rule:nonzero;fill:rgb(92.941176%,73.333333%,62.352941%);fill-opacity:1;" d="M 5.832031 1.667969 L 9.167969 1.667969 L 9.167969 3.332031 L 5.832031 3.332031 Z M 5.832031 1.667969 "/>
<path style=" stroke:none;fill-rule:nonzero;fill:rgb(85.098039%,61.960784%,50.980392%);fill-opacity:1;" d="M 13.75 5 L 1.25 5 C 0.789062 5 0.417969 5.375 0.417969 5.832031 L 14.582031 5.832031 C 14.582031 5.375 14.210938 5 13.75 5 Z M 9.582031 3.332031 L 5.417969 3.332031 C 4.957031 3.332031 4.582031 3.707031 4.582031 4.167969 L 10.417969 4.167969 C 10.417969 3.707031 10.042969 3.332031 9.582031 3.332031 Z M 9.582031 3.332031 "/>
<path style=" stroke:none;fill-rule:nonzero;fill:rgb(100%,67.45098%,20%);fill-opacity:1;" d="M 9.027344 8.851562 C 8.941406 8.933594 9.023438 9.019531 9.023438 9.019531 L 8.65625 9.390625 L 8.03125 10.011719 L 8 10.046875 C 7.636719 10.40625 7.054688 10.40625 6.695312 10.046875 C 6.335938 9.6875 6.335938 9.101562 6.695312 8.742188 C 7.054688 8.382812 7.636719 8.382812 8 8.742188 C 8.207031 8.953125 8.292969 9.238281 8.257812 9.511719 L 8.628906 9.140625 C 8.582031 8.894531 8.464844 8.660156 8.273438 8.46875 C 7.761719 7.960938 6.933594 7.960938 6.421875 8.46875 C 5.910156 8.980469 5.910156 9.808594 6.421875 10.320312 C 6.933594 10.832031 7.761719 10.832031 8.273438 10.320312 C 8.285156 10.308594 8.292969 10.296875 8.304688 10.285156 L 8.308594 10.285156 L 9.300781 9.292969 C 9.300781 9.292969 9.378906 9.371094 9.464844 9.285156 C 9.546875 9.203125 9.460938 9.117188 9.460938 9.117188 L 9.203125 8.855469 C 9.199219 8.855469 9.113281 8.765625 9.027344 8.851562 Z M 5.925781 9.824219 C 5.867188 9.628906 5.851562 9.425781 5.875 9.226562 L 5.839844 9.191406 C 5.496094 8.847656 5.703125 8.367188 5.632812 8.296875 C 5.5625 8.230469 5.496094 8.296875 5.496094 8.296875 C 5.496094 8.296875 4.757812 9.035156 4.671875 9.121094 C 4.605469 9.191406 4.671875 9.257812 4.671875 9.257812 C 4.742188 9.328125 5.246094 9.144531 5.542969 9.441406 Z M 5.925781 9.824219 "/>
</g>
</svg>
