<?xml version="1.0" encoding="UTF-8"?>
<svg xmlns="http://www.w3.org/2000/svg" xmlns:xlink="http://www.w3.org/1999/xlink" width="15pt" height="15pt" viewBox="0 0 15 15" version="1.1">
<g id="surface1">
<path style=" stroke:none;fill-rule:nonzero;fill:rgb(74.509804%,9.803922%,19.215686%);fill-opacity:1;" d="M 4.296875 3.75 L 2.371094 3.75 L 2.308594 4.582031 L 4.359375 4.582031 Z M 4.167969 2.082031 L 2.5 2.082031 L 2.4375 2.917969 L 4.230469 2.917969 Z M 4.421875 5.417969 L 2.242188 5.417969 L 2.179688 6.25 L 4.488281 6.25 Z M 2.082031 7.5 L 4.582031 7.5 L 4.550781 7.082031 L 2.117188 7.082031 Z M 8.589844 5.417969 L 6.410156 5.417969 L 6.347656 6.25 L 8.652344 6.25 Z M 6.25 7.5 L 8.75 7.5 L 8.71875 7.082031 L 6.28125 7.082031 Z M 8.460938 3.75 L 6.539062 3.75 L 6.472656 4.582031 L 8.527344 4.582031 Z M 8.332031 2.082031 L 6.667969 2.082031 L 6.601562 2.917969 L 8.398438 2.917969 Z M 12.628906 3.75 L 10.703125 3.75 L 10.640625 4.582031 L 12.691406 4.582031 Z M 10.449219 7.082031 L 10.417969 7.5 L 12.917969 7.5 L 12.882812 7.082031 Z M 12.757812 5.417969 L 10.578125 5.417969 L 10.511719 6.25 L 12.820312 6.25 Z M 12.5 2.082031 L 10.832031 2.082031 L 10.769531 2.917969 L 12.5625 2.917969 Z M 12.5 2.082031 "/>
<path style=" stroke:none;fill-rule:nonzero;fill:rgb(90.196078%,90.588235%,90.980392%);fill-opacity:1;" d="M 4.359375 4.582031 L 2.308594 4.582031 L 2.242188 5.417969 L 4.421875 5.417969 Z M 4.230469 2.917969 L 2.4375 2.917969 L 2.371094 3.75 L 4.296875 3.75 Z M 2.179688 6.25 L 2.117188 7.082031 L 4.550781 7.082031 L 4.488281 6.25 Z M 8.527344 4.582031 L 6.472656 4.582031 L 6.410156 5.417969 L 8.589844 5.417969 Z M 8.398438 2.917969 L 6.601562 2.917969 L 6.539062 3.75 L 8.460938 3.75 Z M 6.347656 6.25 L 6.28125 7.082031 L 8.71875 7.082031 L 8.652344 6.25 Z M 12.691406 4.582031 L 10.640625 4.582031 L 10.578125 5.417969 L 12.757812 5.417969 Z M 12.820312 6.25 L 10.511719 6.25 L 10.449219 7.082031 L 12.882812 7.082031 Z M 12.5625 2.917969 L 10.769531 2.917969 L 10.703125 3.75 L 12.628906 3.75 Z M 12.5625 2.917969 "/>
<path style=" stroke:none;fill-rule:nonzero;fill:rgb(62.745098%,1.568627%,11.764706%);fill-opacity:1;" d="M 14.582031 14.167969 C 14.582031 14.625 14.210938 15 13.75 15 L 1.25 15 C 0.789062 15 0.417969 14.625 0.417969 14.167969 L 0.417969 8.332031 C 0.417969 7.875 0.789062 7.5 1.25 7.5 L 13.75 7.5 C 14.210938 7.5 14.582031 7.875 14.582031 8.332031 Z M 14.582031 14.167969 "/>
<path style=" stroke:none;fill-rule:nonzero;fill:rgb(75.686275%,41.176471%,30.980392%);fill-opacity:1;" d="M 0.417969 8.332031 L 14.582031 8.332031 L 14.582031 9.167969 L 0.417969 9.167969 Z M 0.417969 8.332031 "/>
<path style=" stroke:none;fill-rule:nonzero;fill:rgb(66.666667%,72.156863%,76.078431%);fill-opacity:1;" d="M 2.5 10 L 4.167969 10 L 4.167969 11.667969 L 2.5 11.667969 Z M 6.667969 10 L 8.332031 10 L 8.332031 11.667969 L 6.667969 11.667969 Z M 10.832031 10 L 12.5 10 L 12.5 11.667969 L 10.832031 11.667969 Z M 2.5 12.5 L 4.167969 12.5 L 4.167969 14.167969 L 2.5 14.167969 Z M 6.667969 12.5 L 8.332031 12.5 L 8.332031 14.167969 L 6.667969 14.167969 Z M 10.832031 12.5 L 12.5 12.5 L 12.5 14.167969 L 10.832031 14.167969 Z M 10.832031 12.5 "/>
<path style=" stroke:none;fill-rule:nonzero;fill:rgb(81.960784%,82.745098%,83.137255%);fill-opacity:1;" d="M 3.75 0 C 3.289062 0 2.917969 0.375 2.917969 0.832031 C 2.917969 1.023438 2.984375 1.195312 3.089844 1.335938 C 2.988281 1.414062 2.917969 1.527344 2.917969 1.667969 C 2.917969 1.898438 3.101562 2.082031 3.332031 2.082031 C 3.5625 2.082031 3.75 1.898438 3.75 1.667969 C 4.210938 1.667969 4.582031 1.292969 4.582031 0.832031 C 4.582031 0.375 4.210938 0 3.75 0 Z M 7.917969 0 C 7.457031 0 7.082031 0.375 7.082031 0.832031 C 7.082031 1.023438 7.148438 1.195312 7.257812 1.335938 C 7.152344 1.414062 7.082031 1.527344 7.082031 1.667969 C 7.082031 1.898438 7.269531 2.082031 7.5 2.082031 C 7.730469 2.082031 7.917969 1.898438 7.917969 1.667969 C 8.375 1.667969 8.75 1.292969 8.75 0.832031 C 8.75 0.375 8.375 0 7.917969 0 Z M 12.082031 0 C 11.625 0 11.25 0.375 11.25 0.832031 C 11.25 1.023438 11.316406 1.195312 11.421875 1.335938 C 11.320312 1.414062 11.25 1.527344 11.25 1.667969 C 11.25 1.898438 11.4375 2.082031 11.667969 2.082031 C 11.898438 2.082031 12.082031 1.898438 12.082031 1.667969 C 12.542969 1.667969 12.917969 1.292969 12.917969 0.832031 C 12.917969 0.375 12.542969 0 12.082031 0 Z M 12.082031 0 "/>
</g>
</svg>
