<?xml version="1.0" encoding="UTF-8"?>
<svg xmlns="http://www.w3.org/2000/svg" xmlns:xlink="http://www.w3.org/1999/xlink" width="15pt" height="15pt" viewBox="0 0 15 15" version="1.1">
<g id="surface1">
<path style=" stroke:none;fill-rule:nonzero;fill:rgb(66.666667%,72.156863%,76.078431%);fill-opacity:1;" d="M 0 7.5 L 0 14.167969 C 0 14.625 0.375 15 0.832031 15 L 14.167969 15 C 14.625 15 15 14.625 15 14.167969 L 15 7.5 Z M 0 7.5 "/>
<path style=" stroke:none;fill-rule:nonzero;fill:rgb(40%,45.882353%,49.803922%);fill-opacity:1;" d="M 0 7.5 L 7.5 4.851562 L 15 7.5 Z M 0 7.5 "/>
<path style=" stroke:none;fill-rule:nonzero;fill:rgb(33.333333%,67.45098%,93.333333%);fill-opacity:1;" d="M 0.832031 8.332031 L 14.167969 8.332031 L 14.167969 10 L 0.832031 10 Z M 0.832031 10.832031 L 14.167969 10.832031 L 14.167969 12.5 L 0.832031 12.5 Z M 0.832031 10.832031 "/>
<path style=" stroke:none;fill-rule:nonzero;fill:rgb(66.666667%,72.156863%,76.078431%);fill-opacity:1;" d="M 2.5 7.917969 L 12.5 7.917969 L 12.5 14.582031 L 2.5 14.582031 Z M 2.5 7.917969 "/>
<path style=" stroke:none;fill-rule:nonzero;fill:rgb(80%,83.921569%,86.666667%);fill-opacity:1;" d="M 3.332031 2.082031 L 11.667969 2.082031 L 11.667969 15 L 3.332031 15 Z M 3.332031 2.082031 "/>
<path style=" stroke:none;fill-rule:nonzero;fill:rgb(33.333333%,67.45098%,93.333333%);fill-opacity:1;" d="M 4.167969 8.332031 L 10.832031 8.332031 L 10.832031 10 L 4.167969 10 Z M 4.167969 10.832031 L 10.832031 10.832031 L 10.832031 12.5 L 4.167969 12.5 Z M 4.167969 10.832031 "/>
<path style=" stroke:none;fill-rule:nonzero;fill:rgb(80%,83.921569%,86.666667%);fill-opacity:1;" d="M 5.832031 5.417969 L 6.667969 5.417969 L 6.667969 12.917969 L 5.832031 12.917969 Z M 8.332031 5.417969 L 9.167969 5.417969 L 9.167969 12.917969 L 8.332031 12.917969 Z M 8.332031 5.417969 "/>
<path style=" stroke:none;fill-rule:nonzero;fill:rgb(23.137255%,53.333333%,76.470588%);fill-opacity:1;" d="M 6.667969 13.332031 L 8.332031 13.332031 L 8.332031 15 L 6.667969 15 Z M 6.667969 13.332031 "/>
<path style=" stroke:none;fill-rule:nonzero;fill:rgb(86.666667%,18.039216%,26.666667%);fill-opacity:1;" d="M 5.417969 2.917969 L 9.582031 2.917969 L 9.582031 3.75 L 5.417969 3.75 Z M 5.417969 4.582031 L 5.417969 5.417969 L 7.082031 5.417969 L 7.082031 7.082031 L 7.917969 7.082031 L 7.917969 5.417969 L 9.582031 5.417969 L 9.582031 4.582031 Z M 5.417969 4.582031 "/>
<path style=" stroke:none;fill-rule:nonzero;fill:rgb(40%,45.882353%,49.803922%);fill-opacity:1;" d="M 3.332031 2.082031 L 7.5 0 L 11.667969 2.082031 Z M 3.332031 2.082031 "/>
</g>
</svg>
