<?xml version="1.0" encoding="UTF-8"?>
<svg xmlns="http://www.w3.org/2000/svg" xmlns:xlink="http://www.w3.org/1999/xlink" width="15pt" height="15pt" viewBox="0 0 15 15" version="1.1">
<g id="surface1">
<path style=" stroke:none;fill-rule:nonzero;fill:rgb(53.333333%,60%,65.098039%);fill-opacity:1;" d="M 2.082031 15 C 1.625 15 1.25 14.625 1.25 14.167969 L 1.25 1.25 C 1.25 0.789062 1.625 0.417969 2.082031 0.417969 C 2.542969 0.417969 2.917969 0.789062 2.917969 1.25 L 2.917969 14.167969 C 2.917969 14.625 2.542969 15 2.082031 15 Z M 2.082031 15 "/>
<path style=" stroke:none;fill-rule:nonzero;fill:rgb(66.666667%,72.156863%,76.078431%);fill-opacity:1;" d="M 2.082031 0.417969 C 1.621094 0.417969 1.25 0.789062 1.25 1.25 L 1.25 14.167969 C 1.25 14.28125 1.34375 14.375 1.457031 14.375 C 1.574219 14.375 1.667969 14.28125 1.667969 14.167969 L 1.667969 1.839844 C 1.667969 1.515625 1.929688 1.25 2.253906 1.25 L 2.917969 1.25 C 2.917969 0.789062 2.542969 0.417969 2.082031 0.417969 Z M 2.082031 0.417969 "/>
<path style=" stroke:none;fill-rule:nonzero;fill:rgb(53.333333%,60%,65.098039%);fill-opacity:1;" d="M 2.082031 15 C 1.625 15 1.25 14.625 1.25 14.167969 L 1.25 1.25 C 1.25 0.789062 1.625 0.417969 2.082031 0.417969 C 2.542969 0.417969 2.917969 0.789062 2.917969 1.25 L 2.917969 14.167969 C 2.917969 14.625 2.542969 15 2.082031 15 Z M 2.082031 15 "/>
<path style=" stroke:none;fill-rule:nonzero;fill:rgb(66.666667%,72.156863%,76.078431%);fill-opacity:1;" d="M 2.082031 0.417969 C 1.621094 0.417969 1.25 0.789062 1.25 1.25 L 1.25 14.167969 C 1.25 14.28125 1.34375 14.375 1.457031 14.375 C 1.574219 14.375 1.667969 14.28125 1.667969 14.167969 L 1.667969 1.839844 C 1.667969 1.515625 1.929688 1.25 2.253906 1.25 L 2.917969 1.25 C 2.917969 0.789062 2.542969 0.417969 2.082031 0.417969 Z M 2.082031 0.417969 "/>
<path style=" stroke:none;fill-rule:nonzero;fill:rgb(19.215686%,21.568627%,23.921569%);fill-opacity:1;" d="M 13.507812 1.289062 C 12.777344 0.953125 12 0.792969 11.132812 0.792969 C 10.082031 0.792969 9.039062 1.03125 8.03125 1.261719 C 7.027344 1.488281 6.074219 1.707031 5.117188 1.707031 C 4.371094 1.707031 3.710938 1.570312 3.089844 1.289062 C 2.960938 1.230469 2.8125 1.238281 2.691406 1.316406 C 2.570312 1.394531 2.5 1.523438 2.5 1.667969 L 2.5 9.582031 C 2.5 9.746094 2.59375 9.894531 2.742188 9.960938 C 3.472656 10.296875 4.25 10.457031 5.117188 10.457031 C 6.167969 10.457031 7.210938 10.21875 8.21875 9.988281 C 9.222656 9.761719 10.175781 9.542969 11.132812 9.542969 C 11.878906 9.542969 12.542969 9.679688 13.160156 9.964844 C 13.289062 10.019531 13.4375 10.011719 13.558594 9.933594 C 13.679688 9.855469 13.75 9.726562 13.75 9.582031 L 13.75 1.667969 C 13.75 1.503906 13.65625 1.355469 13.507812 1.289062 Z M 13.507812 1.289062 "/>
</g>
</svg>
