<?xml version="1.0" encoding="UTF-8"?>
<svg xmlns="http://www.w3.org/2000/svg" xmlns:xlink="http://www.w3.org/1999/xlink" width="15pt" height="15pt" viewBox="0 0 15 15" version="1.1">
<g id="surface1">
<path style=" stroke:none;fill-rule:nonzero;fill:rgb(80%,83.921569%,86.666667%);fill-opacity:1;" d="M 1.667969 7.082031 L 13.332031 7.082031 L 13.332031 15 L 1.667969 15 Z M 1.667969 7.082031 "/>
<path style=" stroke:none;fill-rule:nonzero;fill:rgb(13.333333%,40%,60%);fill-opacity:1;" d="M 2.5 5.417969 L 12.082031 5.417969 L 12.082031 7.5 L 2.5 7.5 Z M 2.5 5.417969 "/>
<path style=" stroke:none;fill-rule:nonzero;fill:rgb(66.666667%,72.156863%,76.078431%);fill-opacity:1;" d="M 0.417969 5 L 0.417969 14.167969 C 0.417969 14.625 0.789062 15 1.25 15 L 2.917969 15 L 2.917969 5 Z M 12.082031 5 L 12.082031 15 L 13.75 15 C 14.210938 15 14.582031 14.625 14.582031 14.167969 L 14.582031 5 Z M 12.082031 5 "/>
<path style=" stroke:none;fill-rule:nonzero;fill:rgb(94.901961%,97.647059%,100%);fill-opacity:1;" d="M 5.832031 9.167969 L 9.167969 9.167969 L 9.167969 13.75 L 5.832031 13.75 Z M 5.832031 9.167969 "/>
<path style=" stroke:none;fill-rule:nonzero;fill:rgb(13.333333%,40%,60%);fill-opacity:1;" d="M 9.167969 7.917969 C 9.042969 7.917969 8.933594 8.078125 8.859375 8.332031 L 6.140625 8.332031 C 6.066406 8.078125 5.957031 7.917969 5.832031 7.917969 C 5.601562 7.917969 5.417969 8.476562 5.417969 9.167969 C 5.417969 9.855469 5.601562 10.417969 5.832031 10.417969 C 6.0625 10.417969 6.25 9.855469 6.25 9.167969 L 8.75 9.167969 C 8.75 9.855469 8.9375 10.417969 9.167969 10.417969 C 9.398438 10.417969 9.582031 9.855469 9.582031 9.167969 C 9.582031 8.476562 9.398438 7.917969 9.167969 7.917969 Z M 9.167969 7.917969 "/>
<path style=" stroke:none;fill-rule:nonzero;fill:rgb(40%,45.882353%,49.803922%);fill-opacity:1;" d="M 1.25 7.082031 L 2.082031 7.082031 L 2.082031 7.917969 L 1.25 7.917969 Z M 3.75 8.332031 L 4.582031 8.332031 L 4.582031 9.167969 L 3.75 9.167969 Z M 10.417969 8.332031 L 11.25 8.332031 L 11.25 9.167969 L 10.417969 9.167969 Z M 3.75 10 L 4.582031 10 L 4.582031 10.832031 L 3.75 10.832031 Z M 10.417969 10 L 11.25 10 L 11.25 10.832031 L 10.417969 10.832031 Z M 1.25 8.75 L 2.082031 8.75 L 2.082031 9.582031 L 1.25 9.582031 Z M 12.917969 7.082031 L 13.75 7.082031 L 13.75 7.917969 L 12.917969 7.917969 Z M 12.917969 8.75 L 13.75 8.75 L 13.75 9.582031 L 12.917969 9.582031 Z M 12.917969 8.75 "/>
<path style=" stroke:none;fill-rule:nonzero;fill:rgb(94.901961%,97.647059%,100%);fill-opacity:1;" d="M 5.417969 9.167969 L 9.582031 9.167969 L 9.582031 10.832031 L 5.417969 10.832031 Z M 5.417969 9.167969 "/>
<path style=" stroke:none;fill-rule:nonzero;fill:rgb(40%,45.882353%,49.803922%);fill-opacity:1;" d="M 7.5 10.832031 C 7.039062 10.832031 6.667969 11.207031 6.667969 11.667969 L 6.667969 13.75 L 8.332031 13.75 L 8.332031 11.667969 C 8.332031 11.207031 7.960938 10.832031 7.5 10.832031 Z M 7.5 10.832031 "/>
<path style=" stroke:none;fill-rule:nonzero;fill:rgb(53.333333%,60%,65.098039%);fill-opacity:1;" d="M 5 13.75 L 10 13.75 L 10 15 L 5 15 Z M 5 13.75 "/>
<path style=" stroke:none;fill-rule:nonzero;fill:rgb(13.333333%,40%,60%);fill-opacity:1;" d="M 0.417969 5 L 2.917969 5 C 2.917969 5 2.082031 1.667969 1.667969 1.667969 C 1.25 1.667969 0.417969 5 0.417969 5 Z M 12.082031 5 L 14.582031 5 C 14.582031 5 13.75 1.667969 13.332031 1.667969 C 12.917969 1.667969 12.082031 5 12.082031 5 Z M 12.082031 5 "/>
<path style=" stroke:none;fill-rule:nonzero;fill:rgb(80%,83.921569%,86.666667%);fill-opacity:1;" d="M 3.332031 5.832031 C 3.332031 6.0625 3.148438 6.25 2.917969 6.25 L 0.417969 6.25 C 0.1875 6.25 0 6.0625 0 5.832031 C 0 5.601562 0.1875 5.417969 0.417969 5.417969 L 2.917969 5.417969 C 3.148438 5.417969 3.332031 5.601562 3.332031 5.832031 Z M 15 5.832031 C 15 6.0625 14.8125 6.25 14.582031 6.25 L 12.082031 6.25 C 11.851562 6.25 11.667969 6.0625 11.667969 5.832031 C 11.667969 5.601562 11.851562 5.417969 12.082031 5.417969 L 14.582031 5.417969 C 14.8125 5.417969 15 5.601562 15 5.832031 Z M 15 5.832031 "/>
</g>
</svg>
