<?xml version="1.0" encoding="UTF-8"?>
<svg xmlns="http://www.w3.org/2000/svg" xmlns:xlink="http://www.w3.org/1999/xlink" width="15pt" height="15pt" viewBox="0 0 15 15" version="1.1">
<g id="surface1">
<path style=" stroke:none;fill-rule:nonzero;fill:rgb(91.372549%,37.254902%,15.686275%);fill-opacity:1;" d="M 2.65625 1.398438 C 2.722656 1.144531 2.992188 0.9375 3.253906 0.9375 L 11.746094 0.9375 C 12.007812 0.9375 12.277344 1.144531 12.34375 1.398438 L 14.460938 9.363281 C 14.527344 9.613281 14.410156 9.949219 14.203125 10.105469 L 7.882812 14.820312 C 7.671875 14.976562 7.328125 14.976562 7.117188 14.820312 L 0.796875 10.105469 C 0.589844 9.949219 0.472656 9.613281 0.539062 9.359375 Z M 2.65625 1.398438 "/>
<path style=" stroke:none;fill-rule:nonzero;fill:rgb(100%,67.45098%,20%);fill-opacity:1;" d="M 13.71875 8.296875 C 15.683594 7.644531 13.949219 2.179688 11.984375 2.832031 C 11.234375 3.082031 10.46875 3.546875 9.808594 4.09375 C 10.109375 3.28125 10.308594 2.394531 10.308594 1.585938 C 10.308594 -0.527344 4.691406 -0.527344 4.691406 1.585938 C 4.691406 2.394531 4.890625 3.28125 5.191406 4.09375 C 4.527344 3.546875 3.765625 3.082031 3.015625 2.832031 C 1.050781 2.179688 -0.683594 7.644531 1.277344 8.296875 C 2.03125 8.546875 2.914062 8.632812 3.765625 8.589844 C 3.050781 9.0625 2.386719 9.664062 1.921875 10.320312 C 0.707031 12.027344 5.25 15.40625 6.460938 13.695312 C 6.925781 13.042969 7.277344 12.207031 7.5 11.367188 C 7.722656 12.207031 8.074219 13.042969 8.535156 13.695312 C 9.75 15.40625 14.292969 12.027344 13.078125 10.320312 C 12.613281 9.664062 11.945312 9.066406 11.234375 8.589844 C 12.085938 8.632812 12.96875 8.546875 13.71875 8.296875 Z M 13.71875 8.296875 "/>
<path style=" stroke:none;fill-rule:nonzero;fill:rgb(95.686275%,56.470588%,4.705882%);fill-opacity:1;" d="M 10.941406 10.738281 C 12.445312 11.230469 13.753906 7.046875 12.253906 6.554688 C 11.675781 6.367188 11 6.304688 10.351562 6.339844 C 10.894531 5.972656 11.402344 5.515625 11.753906 5.011719 C 12.679688 3.703125 9.195312 1.136719 8.273438 2.445312 C 7.917969 2.945312 7.652344 3.585938 7.484375 4.230469 C 7.3125 3.585938 7.042969 2.949219 6.683594 2.453125 C 5.753906 1.148438 2.289062 3.746094 3.222656 5.046875 C 3.578125 5.546875 4.089844 6.003906 4.636719 6.363281 C 3.988281 6.332031 3.3125 6.398438 2.738281 6.59375 C 1.238281 7.097656 2.582031 11.269531 4.082031 10.765625 C 4.65625 10.570312 5.238281 10.214844 5.742188 9.792969 C 5.511719 10.417969 5.367188 11.09375 5.367188 11.714844 C 5.375 13.328125 9.667969 13.308594 9.660156 11.695312 C 9.660156 11.078125 9.507812 10.402344 9.273438 9.777344 C 9.78125 10.195312 10.367188 10.546875 10.941406 10.738281 Z M 10.941406 10.738281 "/>
<path style=" stroke:none;fill-rule:nonzero;fill:rgb(100%,80%,30.196078%);fill-opacity:1;" d="M 10.246094 7.722656 C 11.109375 7.4375 10.34375 5.023438 9.480469 5.3125 C 9.148438 5.421875 8.808594 5.628906 8.519531 5.871094 C 8.652344 5.511719 8.738281 5.117188 8.738281 4.761719 C 8.738281 3.828125 6.261719 3.828125 6.261719 4.761719 C 6.261719 5.117188 6.347656 5.511719 6.480469 5.871094 C 6.1875 5.628906 5.851562 5.421875 5.519531 5.3125 C 4.65625 5.023438 3.890625 7.4375 4.753906 7.722656 C 5.085938 7.835938 5.476562 7.871094 5.851562 7.851562 C 5.539062 8.0625 5.242188 8.328125 5.039062 8.617188 C 4.503906 9.371094 6.507812 10.859375 7.042969 10.105469 C 7.246094 9.816406 7.402344 9.449219 7.5 9.078125 C 7.597656 9.449219 7.753906 9.816406 7.957031 10.105469 C 8.492188 10.859375 10.496094 9.371094 9.960938 8.617188 C 9.753906 8.328125 9.460938 8.0625 9.148438 7.851562 C 9.523438 7.871094 9.914062 7.832031 10.246094 7.722656 Z M 10.246094 7.722656 "/>
<path style=" stroke:none;fill-rule:nonzero;fill:rgb(93.333333%,93.333333%,93.333333%);fill-opacity:1;" d="M 8.234375 7.925781 C 7.828125 8.332031 7.171875 8.332031 6.761719 7.925781 C 6.355469 7.515625 6.355469 6.859375 6.761719 6.449219 C 7.171875 6.042969 7.828125 6.042969 8.234375 6.449219 C 8.644531 6.859375 8.644531 7.515625 8.234375 7.925781 Z M 8.234375 7.925781 "/>
</g>
</svg>
