<?xml version="1.0" encoding="UTF-8"?>
<svg xmlns="http://www.w3.org/2000/svg" xmlns:xlink="http://www.w3.org/1999/xlink" width="15pt" height="15pt" viewBox="0 0 15 15" version="1.1">
<g id="surface1">
<path style=" stroke:none;fill-rule:nonzero;fill:rgb(19.215686%,21.568627%,23.921569%);fill-opacity:1;" d="M 13.332031 2.082031 L 1.667969 2.082031 C 0.746094 2.082031 0 2.828125 0 3.75 L 0 11.25 C 0 12.171875 0.746094 12.917969 1.667969 12.917969 L 13.332031 12.917969 C 14.253906 12.917969 15 12.171875 15 11.25 L 15 3.75 C 15 2.828125 14.253906 2.082031 13.332031 2.082031 Z M 13.332031 2.082031 "/>
<path style=" stroke:none;fill-rule:nonzero;fill:rgb(19.215686%,21.568627%,23.921569%);fill-opacity:1;" d="M 7.082031 5.207031 C 7.082031 5.554688 6.804688 5.832031 6.457031 5.832031 C 6.113281 5.832031 5.832031 5.554688 5.832031 5.207031 C 5.832031 4.863281 6.113281 4.582031 6.457031 4.582031 C 6.804688 4.582031 7.082031 4.863281 7.082031 5.207031 Z M 7.082031 5.207031 "/>
<path style=" stroke:none;fill-rule:nonzero;fill:rgb(19.215686%,21.568627%,23.921569%);fill-opacity:1;" d="M 9.167969 5.207031 C 9.167969 5.554688 8.886719 5.832031 8.542969 5.832031 C 8.195312 5.832031 7.917969 5.554688 7.917969 5.207031 C 7.917969 4.863281 8.195312 4.582031 8.542969 4.582031 C 8.886719 4.582031 9.167969 4.863281 9.167969 5.207031 Z M 9.167969 5.207031 "/>
<path style=" stroke:none;fill-rule:nonzero;fill:rgb(16.078431%,18.431373%,20%);fill-opacity:1;" d="M 7.917969 6.457031 C 7.917969 6.34375 7.730469 6.25 7.5 6.25 C 7.269531 6.25 7.082031 6.34375 7.082031 6.457031 C 7.082031 6.574219 7.269531 6.667969 7.5 6.667969 C 7.730469 6.667969 7.917969 6.574219 7.917969 6.457031 Z M 7.917969 6.457031 "/>
<path style=" stroke:none;fill-rule:nonzero;fill:rgb(90.196078%,90.588235%,90.980392%);fill-opacity:1;" d="M 12.09375 10.367188 C 11.875 10.289062 11.636719 10.402344 11.558594 10.617188 L 8.71875 9.582031 L 11.558594 8.550781 C 11.636719 8.765625 11.875 8.878906 12.089844 8.800781 C 12.308594 8.71875 12.417969 8.480469 12.339844 8.265625 C 12.261719 8.050781 12.023438 7.9375 11.808594 8.015625 C 12.023438 7.9375 12.136719 7.699219 12.054688 7.480469 C 11.976562 7.265625 11.738281 7.152344 11.523438 7.234375 C 11.304688 7.3125 11.195312 7.550781 11.273438 7.765625 L 7.5 9.140625 L 3.726562 7.765625 C 3.804688 7.550781 3.695312 7.3125 3.476562 7.234375 C 3.261719 7.152344 3.023438 7.265625 2.945312 7.480469 C 2.863281 7.699219 2.976562 7.9375 3.191406 8.015625 C 2.976562 7.9375 2.738281 8.046875 2.660156 8.265625 C 2.582031 8.480469 2.691406 8.71875 2.910156 8.800781 C 3.125 8.878906 3.363281 8.765625 3.441406 8.550781 L 6.28125 9.582031 L 3.441406 10.617188 C 3.363281 10.398438 3.125 10.289062 2.910156 10.367188 C 2.691406 10.445312 2.582031 10.683594 2.660156 10.902344 C 2.738281 11.117188 2.976562 11.230469 3.191406 11.152344 C 2.976562 11.230469 2.867188 11.46875 2.945312 11.683594 C 3.023438 11.902344 3.261719 12.011719 3.476562 11.933594 C 3.695312 11.855469 3.804688 11.617188 3.726562 11.398438 L 7.5 10.027344 L 11.273438 11.398438 C 11.195312 11.617188 11.304688 11.855469 11.523438 11.933594 C 11.738281 12.011719 11.976562 11.902344 12.054688 11.683594 C 12.132812 11.46875 12.023438 11.230469 11.808594 11.152344 C 12.023438 11.230469 12.261719 11.117188 12.339844 10.902344 C 12.417969 10.683594 12.308594 10.445312 12.09375 10.367188 Z M 12.09375 10.367188 "/>
<path style=" stroke:none;fill-rule:nonzero;fill:rgb(90.196078%,90.588235%,90.980392%);fill-opacity:1;" d="M 7.5 2.917969 C 5.832031 2.917969 5 4.265625 5 5.417969 C 5 5.996094 5.34375 6.417969 5.832031 6.6875 L 5.832031 7.5 C 5.832031 7.730469 6.019531 7.917969 6.25 7.917969 C 6.480469 7.917969 6.667969 7.730469 6.667969 7.5 L 6.667969 6.992188 C 6.804688 7.023438 6.945312 7.046875 7.082031 7.0625 L 7.082031 7.5 C 7.082031 7.730469 7.269531 7.917969 7.5 7.917969 C 7.730469 7.917969 7.917969 7.730469 7.917969 7.5 L 7.917969 7.0625 C 8.054688 7.046875 8.195312 7.023438 8.332031 6.992188 L 8.332031 7.5 C 8.332031 7.730469 8.519531 7.917969 8.75 7.917969 C 8.980469 7.917969 9.167969 7.730469 9.167969 7.5 L 9.167969 6.6875 C 9.65625 6.417969 10 5.996094 10 5.417969 C 10 4.265625 9.167969 2.917969 7.5 2.917969 Z M 6.457031 5.832031 C 6.113281 5.832031 5.832031 5.832031 5.832031 5.207031 C 5.832031 4.863281 6.113281 4.582031 6.457031 4.582031 C 7.082031 4.582031 7.082031 4.863281 7.082031 5.207031 C 7.082031 5.554688 6.804688 5.832031 6.457031 5.832031 Z M 7.5 6.667969 C 7.269531 6.667969 7.082031 6.574219 7.082031 6.457031 C 7.082031 6.34375 7.269531 6.25 7.5 6.25 C 7.730469 6.25 7.917969 6.34375 7.917969 6.457031 C 7.917969 6.574219 7.730469 6.667969 7.5 6.667969 Z M 8.542969 5.832031 C 8.195312 5.832031 7.917969 5.554688 7.917969 5.207031 C 7.917969 4.863281 7.917969 4.582031 8.542969 4.582031 C 8.886719 4.582031 9.167969 4.863281 9.167969 5.207031 C 9.167969 5.832031 8.886719 5.832031 8.542969 5.832031 Z M 8.542969 5.832031 "/>
</g>
</svg>
