<?xml version="1.0" encoding="UTF-8"?>
<svg xmlns="http://www.w3.org/2000/svg" xmlns:xlink="http://www.w3.org/1999/xlink" width="15pt" height="15pt" viewBox="0 0 15 15" version="1.1">
<g id="surface1">
<path style=" stroke:none;fill-rule:nonzero;fill:rgb(75.686275%,41.176471%,30.980392%);fill-opacity:1;" d="M 11.601562 4.957031 C 11.6875 4.804688 11.765625 4.640625 11.828125 4.464844 C 12.332031 3.136719 12.023438 1.789062 11.140625 1.453125 C 10.476562 1.203125 9.679688 1.589844 9.109375 2.355469 C 8.945312 1.878906 8.882812 1.433594 9.070312 1.25 L 5.644531 1.25 C 5.832031 1.433594 5.769531 1.878906 5.605469 2.355469 C 5.035156 1.589844 4.238281 1.203125 3.578125 1.453125 C 2.691406 1.789062 2.382812 3.136719 2.886719 4.464844 C 2.953125 4.640625 3.027344 4.804688 3.113281 4.957031 C 2.621094 5.445312 2.214844 6.15625 2.214844 7.277344 C 2.214844 9.847656 5.644531 12.855469 6.070312 13.710938 C 6.019531 13.730469 8.695312 13.730469 8.644531 13.710938 C 9.070312 12.855469 12.5 9.847656 12.5 7.277344 C 12.5 6.15625 12.09375 5.445312 11.601562 4.957031 Z M 4.785156 3.839844 C 4.628906 4 4.230469 4.160156 3.796875 4.429688 C 3.75 4.347656 3.707031 4.261719 3.671875 4.167969 C 3.414062 3.492188 3.574219 2.804688 4.023438 2.632812 C 4.410156 2.484375 4.890625 2.769531 5.179688 3.28125 C 5.039062 3.527344 4.898438 3.726562 4.785156 3.839844 Z M 11.042969 4.167969 C 11.007812 4.261719 10.964844 4.347656 10.917969 4.429688 C 10.484375 4.160156 10.089844 4 9.929688 3.839844 C 9.816406 3.726562 9.675781 3.527344 9.535156 3.28125 C 9.828125 2.769531 10.304688 2.484375 10.691406 2.632812 C 11.140625 2.804688 11.300781 3.492188 11.042969 4.167969 Z M 11.042969 4.167969 "/>
<path style=" stroke:none;fill-rule:nonzero;fill:rgb(15.294118%,16.862745%,16.862745%);fill-opacity:1;" d="M 7.726562 13.226562 L 6.929688 13.226562 C 6.070312 13.226562 4.785156 13.632812 4.785156 14.488281 C 4.785156 14.917969 6.429688 14.964844 7.320312 14.964844 L 7.335938 14.964844 C 8.226562 14.964844 9.871094 14.917969 9.871094 14.488281 C 9.871094 13.632812 8.585938 13.226562 7.726562 13.226562 Z M 12.5 7.277344 C 12.5 6.1875 12.117188 5.484375 11.640625 5 L 3.074219 5 C 2.601562 5.484375 2.214844 6.1875 2.214844 7.277344 C 2.214844 7.894531 2.414062 8.535156 2.722656 9.167969 L 11.992188 9.167969 C 12.300781 8.535156 12.5 7.894531 12.5 7.277344 Z M 9.871094 0.570312 C 9.871094 0.152344 8.285156 0.0898438 7.382812 0.0859375 L 7.332031 0.0859375 C 6.433594 0.0898438 4.84375 0.152344 4.84375 0.570312 C 4.84375 1.410156 6.425781 1.796875 7.296875 1.816406 L 7.417969 1.816406 C 8.289062 1.796875 9.871094 1.410156 9.871094 0.570312 Z M 9.871094 0.570312 "/>
<path style=" stroke:none;fill-rule:nonzero;fill:rgb(75.686275%,41.176471%,30.980392%);fill-opacity:1;" d="M 5.429688 8.332031 L 4.359375 8.332031 C 4.238281 8.332031 4.144531 8.242188 4.144531 8.125 C 4.144531 8.007812 4.238281 7.917969 4.359375 7.917969 L 5.417969 7.917969 L 5.417969 6.25 L 3.75 6.25 L 3.75 6.667969 L 4.785156 6.667969 C 4.90625 6.667969 5 6.757812 5 6.875 C 5 6.992188 4.90625 7.082031 4.785156 7.082031 L 3.777344 7.082031 C 3.550781 7.082031 3.332031 7.023438 3.332031 6.761719 L 3.332031 6.214844 C 3.332031 5.910156 3.585938 5.832031 3.703125 5.832031 L 5.429688 5.832031 C 5.71875 5.832031 5.832031 6.03125 5.832031 6.214844 L 5.832031 7.929688 C 5.832031 8.1875 5.640625 8.332031 5.429688 8.332031 Z M 11.261719 8.332031 L 10.191406 8.332031 C 10.074219 8.332031 9.976562 8.242188 9.976562 8.125 C 9.976562 8.007812 10.074219 7.917969 10.191406 7.917969 L 11.25 7.917969 L 11.25 6.25 L 9.582031 6.25 L 9.582031 6.667969 L 10.621094 6.667969 C 10.738281 6.667969 10.835938 6.757812 10.835938 6.875 C 10.835938 6.992188 10.738281 7.082031 10.621094 7.082031 L 9.609375 7.082031 C 9.382812 7.082031 9.167969 7.023438 9.167969 6.761719 L 9.167969 6.214844 C 9.167969 5.910156 9.417969 5.832031 9.535156 5.832031 L 11.261719 5.832031 C 11.554688 5.832031 11.667969 6.03125 11.667969 6.214844 L 11.667969 7.929688 C 11.667969 8.1875 11.476562 8.332031 11.261719 8.332031 Z M 8.347656 8.332031 L 7.273438 8.332031 C 7.15625 8.332031 7.058594 8.242188 7.058594 8.125 C 7.058594 8.007812 7.15625 7.917969 7.273438 7.917969 L 8.332031 7.917969 L 8.332031 6.25 L 6.667969 6.25 L 6.667969 6.667969 L 7.703125 6.667969 C 7.820312 6.667969 7.917969 6.757812 7.917969 6.875 C 7.917969 6.992188 7.820312 7.082031 7.703125 7.082031 L 6.691406 7.082031 C 6.46875 7.082031 6.25 7.023438 6.25 6.761719 L 6.25 6.214844 C 6.25 5.910156 6.5 5.832031 6.621094 5.832031 L 8.347656 5.832031 C 8.636719 5.832031 8.75 6.03125 8.75 6.214844 L 8.75 7.929688 C 8.75 8.1875 8.558594 8.332031 8.347656 8.332031 Z M 8.347656 8.332031 "/>
</g>
</svg>
