<?xml version="1.0" encoding="UTF-8"?>
<svg xmlns="http://www.w3.org/2000/svg" xmlns:xlink="http://www.w3.org/1999/xlink" width="15pt" height="15pt" viewBox="0 0 15 15" version="1.1">
<g id="surface1">
<path style=" stroke:none;fill-rule:nonzero;fill:rgb(75.686275%,41.176471%,30.980392%);fill-opacity:1;" d="M 8.867188 1.785156 C 5.117188 1.785156 4.492188 2.410156 3.449219 3.449219 C 2.40625 4.492188 1.78125 5.117188 1.78125 8.867188 C 1.78125 13.527344 0.949219 14.699219 1.367188 14.699219 C 1.78125 14.699219 2.617188 13.867188 2.617188 13.035156 C 2.617188 12.199219 1.78125 7.617188 4.699219 4.699219 C 7.617188 1.785156 12.199219 2.617188 13.03125 2.617188 C 13.867188 2.617188 14.699219 1.785156 14.699219 1.367188 C 14.699219 0.949219 13.523438 1.785156 8.867188 1.785156 Z M 8.867188 1.785156 "/>
<path style=" stroke:none;fill-rule:nonzero;fill:rgb(85.098039%,61.960784%,50.980392%);fill-opacity:1;" d="M 12.292969 12.40625 C 12.292969 12.523438 12.199219 12.617188 12.082031 12.617188 L 1.574219 12.617188 C 1.460938 12.617188 1.367188 12.523438 1.367188 12.40625 C 1.367188 12.292969 1.460938 12.199219 1.574219 12.199219 L 12.082031 12.199219 C 12.199219 12.199219 12.292969 12.292969 12.292969 12.40625 Z M 12.40625 12.292969 C 12.292969 12.292969 12.199219 12.199219 12.199219 12.082031 L 12.199219 1.574219 C 12.199219 1.460938 12.292969 1.367188 12.40625 1.367188 C 12.523438 1.367188 12.617188 1.460938 12.617188 1.574219 L 12.617188 12.082031 C 12.617188 12.199219 12.523438 12.292969 12.40625 12.292969 Z M 12.40625 12.292969 "/>
<path style=" stroke:none;fill-rule:nonzero;fill:rgb(60%,66.666667%,70.980392%);fill-opacity:1;" d="M 0 0 L 1.164062 3.550781 L 2.054688 2.066406 L 3.519531 1.191406 Z M 0 0 "/>
<path style=" stroke:none;fill-rule:nonzero;fill:rgb(86.666667%,18.039216%,26.666667%);fill-opacity:1;" d="M 10.871094 11.414062 C 11.019531 12.203125 10.871094 12.898438 10.53125 12.964844 C 10.191406 13.027344 9.792969 12.441406 9.640625 11.648438 C 9.492188 10.859375 9.640625 10.164062 9.980469 10.097656 C 10.320312 10.035156 10.71875 10.621094 10.871094 11.414062 Z M 10.871094 11.414062 "/>
<path style=" stroke:none;fill-rule:nonzero;fill:rgb(95.686275%,56.470588%,4.705882%);fill-opacity:1;" d="M 11.070312 11.859375 C 11.222656 12.652344 11.070312 13.347656 10.730469 13.410156 C 10.394531 13.476562 9.996094 12.886719 9.84375 12.097656 C 9.691406 11.304688 9.84375 10.609375 10.179688 10.546875 C 10.519531 10.480469 10.917969 11.070312 11.070312 11.859375 Z M 11.070312 11.859375 "/>
<path style=" stroke:none;fill-rule:nonzero;fill:rgb(62.745098%,1.568627%,11.764706%);fill-opacity:1;" d="M 11.648438 12.4375 C 11.800781 13.230469 11.648438 13.925781 11.3125 13.988281 C 10.972656 14.054688 10.574219 13.464844 10.421875 12.675781 C 10.269531 11.882812 10.421875 11.191406 10.761719 11.125 C 11.097656 11.058594 11.496094 11.648438 11.648438 12.4375 Z M 11.648438 12.4375 "/>
<path style=" stroke:none;fill-rule:nonzero;fill:rgb(86.666667%,18.039216%,26.666667%);fill-opacity:1;" d="M 12.238281 13.027344 C 12.390625 13.820312 12.238281 14.515625 11.898438 14.578125 C 11.5625 14.644531 11.164062 14.054688 11.011719 13.265625 C 10.859375 12.472656 11.011719 11.78125 11.347656 11.714844 C 11.6875 11.648438 12.085938 12.238281 12.238281 13.027344 Z M 11.414062 10.871094 C 12.203125 11.019531 12.898438 10.871094 12.964844 10.53125 C 13.027344 10.191406 12.441406 9.792969 11.648438 9.640625 C 10.859375 9.492188 10.164062 9.640625 10.097656 9.980469 C 10.035156 10.320312 10.621094 10.71875 11.414062 10.871094 Z M 11.414062 10.871094 "/>
<path style=" stroke:none;fill-rule:nonzero;fill:rgb(95.686275%,56.470588%,4.705882%);fill-opacity:1;" d="M 11.859375 11.070312 C 12.652344 11.222656 13.347656 11.070312 13.410156 10.730469 C 13.476562 10.394531 12.886719 9.996094 12.097656 9.84375 C 11.304688 9.691406 10.609375 9.84375 10.546875 10.179688 C 10.480469 10.519531 11.070312 10.917969 11.859375 11.070312 Z M 11.859375 11.070312 "/>
<path style=" stroke:none;fill-rule:nonzero;fill:rgb(62.745098%,1.568627%,11.764706%);fill-opacity:1;" d="M 12.4375 11.648438 C 13.230469 11.800781 13.925781 11.648438 13.988281 11.3125 C 14.054688 10.972656 13.464844 10.574219 12.675781 10.421875 C 11.882812 10.269531 11.191406 10.421875 11.125 10.761719 C 11.058594 11.097656 11.648438 11.496094 12.4375 11.648438 Z M 12.4375 11.648438 "/>
<path style=" stroke:none;fill-rule:nonzero;fill:rgb(86.666667%,18.039216%,26.666667%);fill-opacity:1;" d="M 13.027344 12.238281 C 13.820312 12.390625 14.515625 12.238281 14.578125 11.898438 C 14.644531 11.5625 14.054688 11.164062 13.265625 11.011719 C 12.472656 10.859375 11.78125 11.011719 11.714844 11.347656 C 11.648438 11.6875 12.238281 12.085938 13.027344 12.238281 Z M 13.027344 12.238281 "/>
<path style=" stroke:none;fill-rule:nonzero;fill:rgb(80%,83.921569%,86.666667%);fill-opacity:1;" d="M 12.660156 12.082031 C 12.820312 12.242188 12.820312 12.5 12.660156 12.660156 C 12.5 12.820312 12.242188 12.820312 12.082031 12.660156 L 1.722656 2.300781 C 1.5625 2.140625 1.5625 1.882812 1.722656 1.722656 C 1.882812 1.5625 2.140625 1.5625 2.300781 1.722656 Z M 12.660156 12.082031 "/>
</g>
</svg>
