<?xml version="1.0" encoding="UTF-8"?>
<svg xmlns="http://www.w3.org/2000/svg" xmlns:xlink="http://www.w3.org/1999/xlink" width="15pt" height="15pt" viewBox="0 0 15 15" version="1.1">
<g id="surface1">
<path style=" stroke:none;fill-rule:nonzero;fill:rgb(33.333333%,67.45098%,93.333333%);fill-opacity:1;" d="M 12.660156 12.082031 C 12.820312 12.242188 12.820312 12.5 12.660156 12.660156 C 12.5 12.820312 12.242188 12.820312 12.082031 12.660156 L 6.457031 7.035156 C 6.300781 6.875 6.300781 6.617188 6.457031 6.457031 C 6.617188 6.300781 6.875 6.300781 7.035156 6.457031 Z M 12.660156 12.082031 "/>
<path style=" stroke:none;fill-rule:nonzero;fill:rgb(16.078431%,18.431373%,20%);fill-opacity:1;" d="M 14.816406 13.933594 C 15.0625 14.175781 15.0625 14.574219 14.816406 14.816406 C 14.574219 15.0625 14.175781 15.0625 13.933594 14.816406 L 11.578125 12.460938 C 11.332031 12.214844 11.332031 11.820312 11.578125 11.578125 C 11.820312 11.332031 12.214844 11.332031 12.460938 11.578125 Z M 14.816406 13.933594 "/>
<path style=" stroke:none;fill-rule:nonzero;fill:rgb(60%,66.666667%,70.980392%);fill-opacity:1;" d="M 1.019531 2.167969 L 1.3125 1.871094 L 6.324219 6.878906 L 6.03125 7.171875 Z M 1.609375 0.988281 L 1.90625 0.691406 L 7.207031 5.996094 L 6.914062 6.289062 Z M 1.609375 0.988281 "/>
<path style=" stroke:none;fill-rule:nonzero;fill:rgb(60%,66.666667%,70.980392%);fill-opacity:1;" d="M 0.429688 3.933594 L 3.964844 0.398438 L 4.261719 0.691406 L 0.726562 4.226562 Z M 0.726562 5.40625 L 5.144531 0.988281 L 5.441406 1.28125 L 1.019531 5.703125 Z M 1.609375 6.289062 L 6.324219 1.578125 L 6.617188 1.871094 L 1.90625 6.585938 Z M 2.789062 6.878906 L 6.914062 2.753906 L 7.207031 3.050781 L 3.082031 7.175781 Z M 3.964844 7.46875 L 7.503906 3.933594 L 7.796875 4.226562 L 4.261719 7.765625 Z M 3.964844 7.46875 "/>
<path style=" stroke:none;fill-rule:nonzero;fill:rgb(60%,66.666667%,70.980392%);fill-opacity:1;" d="M 0.429688 3.34375 L 0.726562 3.050781 L 5.144531 7.46875 L 4.851562 7.765625 Z M 3.082031 0.691406 L 3.378906 0.398438 L 7.796875 4.816406 L 7.503906 5.113281 Z M 3.082031 0.691406 "/>
<path style=" stroke:none;fill-rule:nonzero;fill:rgb(33.333333%,67.45098%,93.333333%);fill-opacity:1;" d="M 1.027344 1.027344 C -0.417969 2.476562 -0.269531 4.964844 1.355469 6.59375 C 2.984375 8.222656 5.472656 8.367188 6.921875 6.921875 C 8.367188 5.472656 8.222656 2.984375 6.59375 1.355469 C 4.964844 -0.269531 2.476562 -0.417969 1.027344 1.027344 Z M 6.378906 6.378906 C 5.242188 7.519531 3.242188 7.367188 1.910156 6.035156 C 0.582031 4.707031 0.429688 2.707031 1.570312 1.570312 C 2.707031 0.429688 4.707031 0.582031 6.035156 1.914062 C 7.367188 3.242188 7.519531 5.242188 6.378906 6.378906 Z M 6.378906 6.378906 "/>
<path style=" stroke:none;fill-rule:nonzero;fill:rgb(13.333333%,40%,60%);fill-opacity:1;" d="M 7.207031 5.996094 C 7.371094 6.160156 7.371094 6.421875 7.207031 6.585938 L 6.617188 7.175781 C 6.457031 7.335938 6.191406 7.339844 6.027344 7.175781 C 5.867188 7.011719 5.867188 6.75 6.027344 6.585938 L 6.617188 5.996094 C 6.78125 5.832031 7.042969 5.832031 7.207031 5.996094 Z M 7.207031 5.996094 "/>
<path style=" stroke:none;fill-rule:nonzero;fill:rgb(13.333333%,40%,60%);fill-opacity:1;" d="M 7.503906 6.878906 C 7.664062 7.042969 7.664062 7.308594 7.503906 7.46875 C 7.339844 7.632812 7.074219 7.632812 6.914062 7.46875 L 6.617188 7.175781 C 6.457031 7.011719 6.457031 6.75 6.617188 6.585938 C 6.78125 6.421875 7.042969 6.421875 7.207031 6.585938 Z M 7.503906 6.878906 "/>
<path style=" stroke:none;fill-rule:nonzero;fill:rgb(13.333333%,40%,60%);fill-opacity:1;" d="M 12.316406 11.433594 C 12.5625 11.675781 12.265625 11.777344 12.023438 12.023438 C 11.777344 12.265625 11.675781 12.5625 11.433594 12.316406 C 11.1875 12.074219 11.1875 11.675781 11.433594 11.433594 C 11.675781 11.1875 12.074219 11.1875 12.316406 11.433594 Z M 12.316406 11.433594 "/>
<path style=" stroke:none;fill-rule:nonzero;fill:rgb(74.509804%,9.803922%,19.215686%);fill-opacity:1;" d="M 9.085938 1.324219 C 8.761719 1.652344 8.761719 2.179688 9.085938 2.503906 L 9.382812 2.796875 L 10.265625 1.914062 L 10.5625 1.621094 L 10.265625 1.324219 C 9.941406 1 9.414062 1 9.085938 1.324219 Z M 9.085938 1.324219 "/>
<path style=" stroke:none;fill-rule:nonzero;fill:rgb(60%,66.666667%,70.980392%);fill-opacity:1;" d="M 9.382812 2.796875 L 10.5625 1.621094 L 10.855469 1.914062 L 9.679688 3.09375 Z M 9.382812 2.796875 "/>
<path style=" stroke:none;fill-rule:nonzero;fill:rgb(88.235294%,90.980392%,92.941176%);fill-opacity:1;" d="M 9.675781 3.09375 L 10.855469 1.914062 C 11.46875 2.117188 14.660156 4.027344 14.546875 4.136719 C 14.234375 4.453125 13.75 4.222656 13.75 4.222656 C 13.75 4.222656 14.101562 4.558594 13.800781 4.859375 C 13.496094 5.160156 13.164062 4.808594 13.164062 4.808594 C 13.164062 4.808594 13.566406 5.121094 13.222656 5.460938 C 12.878906 5.804688 12.574219 5.398438 12.574219 5.398438 C 12.574219 5.398438 12.878906 5.808594 12.613281 6.070312 C 12.351562 6.335938 11.984375 5.988281 11.984375 5.988281 C 11.984375 5.988281 12.15625 6.40625 11.839844 6.722656 C 11.691406 6.871094 9.921875 3.667969 9.675781 3.09375 Z M 9.675781 3.09375 "/>
<path style=" stroke:none;fill-rule:nonzero;fill:rgb(80%,83.921569%,86.666667%);fill-opacity:1;" d="M 11.003906 3.257812 C 11.246094 2.976562 13.269531 4.8125 12.914062 5.167969 C 12.558594 5.523438 10.714844 3.601562 11.003906 3.257812 Z M 11.714844 6.363281 C 12 6.179688 10.4375 3.941406 10.242188 4.101562 C 10.230469 4.113281 10.222656 4.132812 10.222656 4.152344 C 10.589844 4.832031 11.058594 5.652344 11.398438 6.183594 C 11.539062 6.324219 11.65625 6.402344 11.714844 6.363281 Z M 11.828125 2.515625 C 11.667969 2.707031 13.90625 4.273438 14.089844 3.988281 C 14.140625 3.914062 14.019531 3.761719 13.816406 3.585938 C 13.3125 3.257812 12.628906 2.847656 12.03125 2.511719 C 11.933594 2.484375 11.859375 2.484375 11.828125 2.515625 Z M 10.585938 3.707031 C 10.761719 3.527344 12.519531 5.621094 12.25 5.828125 C 11.984375 6.039062 10.371094 3.921875 10.585938 3.707031 Z M 11.433594 2.855469 C 11.257812 3.035156 13.347656 4.789062 13.554688 4.523438 C 13.765625 4.257812 11.652344 2.640625 11.433594 2.855469 Z M 11.433594 2.855469 "/>
</g>
</svg>
