<?xml version="1.0" encoding="UTF-8"?>
<svg xmlns="http://www.w3.org/2000/svg" xmlns:xlink="http://www.w3.org/1999/xlink" width="15pt" height="15pt" viewBox="0 0 15 15" version="1.1">
<g id="surface1">
<path style=" stroke:none;fill-rule:nonzero;fill:rgb(53.333333%,0%,50.980392%);fill-opacity:1;" d="M 0 11.25 C 0 12.171875 0.746094 12.917969 1.667969 12.917969 L 13.332031 12.917969 C 14.253906 12.917969 15 12.171875 15 11.25 L 15 11.042969 L 0 11.042969 Z M 0 11.25 "/>
<path style=" stroke:none;fill-rule:nonzero;fill:rgb(20.784314%,34.509804%,62.745098%);fill-opacity:1;" d="M 0 9.195312 L 15 9.195312 L 15 11.113281 L 0 11.113281 Z M 0 9.195312 "/>
<path style=" stroke:none;fill-rule:nonzero;fill:rgb(7.45098%,56.078431%,24.313725%);fill-opacity:1;" d="M 0 7.429688 L 15 7.429688 L 15 9.304688 L 0 9.304688 Z M 0 7.429688 "/>
<path style=" stroke:none;fill-rule:nonzero;fill:rgb(98.039216%,82.352941%,12.54902%);fill-opacity:1;" d="M 0 5.625 L 15 5.625 L 15 7.5 L 0 7.5 Z M 0 5.625 "/>
<path style=" stroke:none;fill-rule:nonzero;fill:rgb(100%,31.372549%,0%);fill-opacity:1;" d="M 0 3.820312 L 15 3.820312 L 15 5.695312 L 0 5.695312 Z M 0 3.820312 "/>
<path style=" stroke:none;fill-rule:nonzero;fill:rgb(100%,0%,5.490196%);fill-opacity:1;" d="M 13.332031 2.082031 L 1.667969 2.082031 C 0.746094 2.082031 0 2.828125 0 3.75 L 0 3.886719 L 15 3.886719 L 15 3.75 C 15 2.828125 14.253906 2.082031 13.332031 2.082031 Z M 13.332031 2.082031 "/>
</g>
</svg>
