<?xml version="1.0" encoding="UTF-8"?>
<svg xmlns="http://www.w3.org/2000/svg" xmlns:xlink="http://www.w3.org/1999/xlink" width="15pt" height="15pt" viewBox="0 0 15 15" version="1.1">
<g id="surface1">
<path style=" stroke:none;fill-rule:nonzero;fill:rgb(35.686275%,80.784314%,98.039216%);fill-opacity:1;" d="M 0 11.25 C 0 12.171875 0.746094 12.917969 1.667969 12.917969 L 13.332031 12.917969 C 14.253906 12.917969 15 12.171875 15 11.25 L 15 10.707031 L 0 10.707031 Z M 0 11.25 "/>
<path style=" stroke:none;fill-rule:nonzero;fill:rgb(96.078431%,66.27451%,72.156863%);fill-opacity:1;" d="M 0.0117188 8.542969 L 0 10.75 L 15 10.75 L 15 8.542969 Z M 0.0117188 8.542969 "/>
<path style=" stroke:none;fill-rule:nonzero;fill:rgb(93.333333%,93.333333%,93.333333%);fill-opacity:1;" d="M 0 6.375 L 15 6.375 L 15 8.582031 L 0 8.582031 Z M 0 6.375 "/>
<path style=" stroke:none;fill-rule:nonzero;fill:rgb(96.078431%,66.27451%,72.156863%);fill-opacity:1;" d="M 0.0117188 4.207031 L 0 6.417969 L 15 6.417969 L 15 4.207031 Z M 0.0117188 4.207031 "/>
<path style=" stroke:none;fill-rule:nonzero;fill:rgb(35.686275%,80.784314%,98.039216%);fill-opacity:1;" d="M 15 3.75 C 15 2.828125 14.253906 2.082031 13.332031 2.082031 L 1.667969 2.082031 C 0.746094 2.082031 0 2.828125 0 3.75 L 0 4.25 L 15 4.25 Z M 15 3.75 "/>
</g>
</svg>
