<?xml version="1.0" encoding="UTF-8"?>
<svg xmlns="http://www.w3.org/2000/svg" xmlns:xlink="http://www.w3.org/1999/xlink" width="15pt" height="15pt" viewBox="0 0 15 15" version="1.1">
<g id="surface1">
<path style=" stroke:none;fill-rule:nonzero;fill:rgb(16.078431%,18.431373%,20%);fill-opacity:1;" d="M 11.96875 5.355469 C 11.96875 5.355469 13.554688 6.039062 14.273438 5.539062 C 14.988281 5.042969 15.152344 4.386719 14.753906 3.566406 C 14.359375 2.75 13.246094 2.429688 13.207031 1.363281 C 13.207031 1.363281 13.085938 3.089844 13.839844 3.65625 C 14.90625 4.460938 13.652344 5.410156 12.371094 5.25 C 11.089844 5.09375 11.96875 5.355469 11.96875 5.355469 Z M 11.96875 5.355469 "/>
<path style=" stroke:none;fill-rule:nonzero;fill:rgb(54.117647%,29.411765%,21.960784%);fill-opacity:1;" d="M 9.949219 8.074219 C 9.949219 8.074219 9.6875 9.132812 10.027344 10.167969 C 10.085938 10.3125 10.046875 10.402344 9.9375 10.453125 C 9.832031 10.503906 8.148438 11.09375 7.96875 11.1875 C 7.804688 11.277344 7.492188 11.929688 7.464844 12.378906 C 7.816406 12.46875 8.140625 12.421875 8.140625 12.421875 C 8.140625 12.421875 8.152344 11.625 8.230469 11.570312 C 8.304688 11.519531 10.597656 11.132812 10.753906 10.832031 C 10.910156 10.53125 11.425781 9.214844 11.09375 8.628906 C 11 8.464844 10.828125 8.148438 10.828125 8.148438 Z M 9.949219 8.074219 "/>
<path style=" stroke:none;fill-rule:nonzero;fill:rgb(16.078431%,18.431373%,20%);fill-opacity:1;" d="M 7.464844 12.378906 C 7.464844 12.378906 7.207031 13.207031 7.46875 13.269531 C 7.722656 13.328125 8.175781 13.109375 8.199219 13 C 8.234375 12.855469 8.289062 12.507812 8.242188 12.429688 C 8.191406 12.351562 7.464844 12.378906 7.464844 12.378906 Z M 7.464844 12.378906 "/>
<path style=" stroke:none;fill-rule:nonzero;fill:rgb(54.117647%,29.411765%,21.960784%);fill-opacity:1;" d="M 4.921875 9.113281 L 4.609375 8.046875 C 4.609375 8.046875 3.457031 8.925781 2.96875 9.542969 C 2.824219 9.726562 2.199219 10.878906 2.25 11.382812 C 2.273438 11.585938 2.449219 12.460938 2.449219 12.460938 L 3.136719 12.265625 C 3.136719 12.265625 2.589844 11.476562 2.710938 11.199219 C 3.304688 9.839844 4.921875 9.113281 4.921875 9.113281 Z M 4.921875 9.113281 "/>
<path style=" stroke:none;fill-rule:nonzero;fill:rgb(16.078431%,18.431373%,20%);fill-opacity:1;" d="M 3.199219 12.261719 C 3.128906 12.203125 2.449219 12.460938 2.449219 12.460938 C 2.449219 12.460938 2.472656 13.328125 2.738281 13.300781 C 2.996094 13.277344 3.355469 12.921875 3.34375 12.8125 C 3.328125 12.667969 3.269531 12.316406 3.199219 12.261719 Z M 3.199219 12.261719 "/>
<path style=" stroke:none;fill-rule:nonzero;fill:rgb(75.686275%,41.176471%,30.980392%);fill-opacity:1;" d="M 11.328125 4.660156 C 9.894531 4.726562 8.324219 4.84375 7.371094 4.84375 C 5.847656 4.84375 5.195312 4.25 4.636719 3.75 C 3.683594 2.902344 3.402344 1.992188 2.5 2.292969 C 2.5 2.292969 2.238281 2.121094 1.980469 1.96875 L 1.871094 1.90625 C 1.765625 1.84375 1.667969 1.789062 1.597656 1.761719 C 1.53125 1.730469 1.492188 1.722656 1.503906 1.753906 C 1.511719 1.777344 1.542969 1.816406 1.601562 1.875 C 1.796875 2.070312 1.882812 2.269531 1.90625 2.457031 C 1.066406 2.957031 1.03125 3.40625 0.707031 3.9375 C 0.503906 4.273438 0.140625 4.792969 0.0585938 4.984375 C -0.113281 5.378906 0.484375 5.839844 0.769531 5.570312 C 1.140625 5.21875 1.171875 5.101562 1.617188 4.84375 C 2.027344 4.835938 2.4375 4.671875 2.578125 4.417969 C 2.578125 4.417969 2.96875 5.285156 3.386719 5.910156 C 3.800781 6.535156 4.425781 7.214844 4.425781 7.214844 C 4.371094 7.726562 4.476562 8.121094 4.65625 8.429688 C 4.496094 8.746094 4.269531 9.183594 4.066406 9.574219 C 3.792969 10.09375 3.453125 10.917969 3.5625 11.082031 C 3.785156 11.414062 4.695312 12.300781 5.285156 12.460938 C 5.714844 12.578125 6.175781 12.644531 6.175781 12.644531 L 6.097656 11.988281 C 6.097656 11.988281 5.539062 12.078125 5.316406 11.953125 C 4.722656 11.621094 4.203125 11.015625 4.1875 10.894531 C 4.160156 10.691406 5.789062 9.699219 6.328125 9.375 C 7.273438 9.417969 8.839844 9.222656 9.921875 8.667969 C 10.324219 9.441406 11.164062 9.714844 11.164062 9.714844 C 11.164062 9.714844 11.441406 10.632812 11.738281 11.433594 C 11.3125 11.65625 9.875 12.789062 9.664062 13.039062 C 9.472656 13.261719 9.308594 14.074219 9.308594 14.074219 C 9.648438 14.230469 9.960938 14.152344 9.960938 14.152344 C 9.960938 14.152344 9.976562 13.503906 10.121094 13.289062 C 10.265625 13.078125 12.082031 12.222656 12.605469 11.847656 C 12.808594 11.703125 12.773438 11.472656 12.714844 11.203125 C 12.578125 10.589844 12.308594 9.210938 12.308594 9.210938 C 14.453125 7.96875 15 4.496094 11.328125 4.660156 Z M 11.328125 4.660156 "/>
<path style=" stroke:none;fill-rule:nonzero;fill:rgb(16.078431%,18.431373%,20%);fill-opacity:1;" d="M 9.308594 14.074219 C 9.308594 14.074219 9.050781 14.90625 9.308594 14.964844 C 9.5625 15.027344 10.015625 14.804688 10.042969 14.699219 C 10.074219 14.554688 10.132812 14.207031 10.082031 14.128906 C 10.03125 14.050781 9.308594 14.074219 9.308594 14.074219 Z M 6.109375 11.871094 C 6.039062 11.929688 6.175781 12.644531 6.175781 12.644531 C 6.175781 12.644531 7.035156 12.769531 7.054688 12.503906 C 7.074219 12.242188 6.785156 11.828125 6.675781 11.820312 C 6.53125 11.808594 6.179688 11.808594 6.109375 11.871094 Z M 6.109375 11.871094 "/>
<path style=" stroke:none;fill-rule:nonzero;fill:rgb(16.078431%,18.431373%,20%);fill-opacity:1;" d="M 1.917969 3.351562 C 1.917969 3.433594 1.851562 3.5 1.769531 3.5 C 1.691406 3.5 1.625 3.433594 1.625 3.351562 C 1.625 3.273438 1.691406 3.207031 1.769531 3.207031 C 1.851562 3.207031 1.917969 3.273438 1.917969 3.351562 Z M 1.917969 3.351562 "/>
<path style=" stroke:none;fill-rule:nonzero;fill:rgb(16.078431%,18.431373%,20%);fill-opacity:1;" d="M 5.273438 3.777344 C 6.011719 4.382812 6.585938 3.914062 6.585938 3.914062 C 6.042969 3.800781 5.726562 3.550781 5.457031 3.261719 C 5.804688 3.207031 5.992188 2.984375 5.992188 2.984375 C 5.550781 2.980469 5.230469 2.859375 4.957031 2.695312 C 4.722656 2.4375 4.441406 2.191406 4.015625 2.015625 C 3.894531 1.960938 3.765625 1.925781 3.632812 1.898438 C 3.597656 1.890625 3.558594 1.871094 3.527344 1.867188 C 3.148438 1.820312 2.757812 1.890625 2.386719 2.121094 C 2.25 2.203125 2.296875 2.386719 2.433594 2.378906 C 3.160156 2.34375 3.628906 2.621094 3.878906 3.058594 C 4.785156 4.632812 6.105469 4.675781 6.105469 4.675781 C 6.105469 4.675781 5.570312 4.386719 5.273438 3.777344 Z M 5.273438 3.777344 "/>
</g>
</svg>
