<?xml version="1.0" encoding="UTF-8"?>
<svg xmlns="http://www.w3.org/2000/svg" xmlns:xlink="http://www.w3.org/1999/xlink" width="15pt" height="15pt" viewBox="0 0 15 15" version="1.1">
<g id="surface1">
<path style=" stroke:none;fill-rule:nonzero;fill:rgb(24.313725%,44.705882%,11.372549%);fill-opacity:1;" d="M 7.917969 13.332031 C 7.917969 13.75 7.199219 14.582031 6.527344 14.582031 C 5.855469 14.582031 5.832031 14.023438 5.832031 13.332031 C 5.832031 12.644531 6.378906 12.082031 7.046875 12.082031 C 7.71875 12.082031 7.917969 12.644531 7.917969 13.332031 Z M 12.5 13.332031 C 12.5 13.75 11.78125 14.582031 11.109375 14.582031 C 10.441406 14.582031 10.417969 14.023438 10.417969 13.332031 C 10.417969 12.644531 10.960938 12.082031 11.632812 12.082031 C 12.304688 12.082031 12.5 12.644531 12.5 13.332031 Z M 12.5 13.332031 "/>
<path style=" stroke:none;fill-rule:nonzero;fill:rgb(36.078431%,56.862745%,23.137255%);fill-opacity:1;" d="M 15 10.417969 C 15 7.917969 13.679688 6.59375 12.5 5.417969 C 12.082031 5 11.917969 5.550781 12.082031 5.832031 C 12.296875 6.191406 13.332031 9.167969 11.25 9.167969 L 10.417969 9.167969 C 8.332031 9.167969 7.84375 8.679688 6.667969 7.5 C 4.792969 5.625 3.75 7.5 2.917969 7.5 C 0.417969 7.5 0 6.746094 0 8.332031 C 0 9.582031 1.25 10 2.5 10 C 3.75 10 3.75 10.417969 4.582031 11.667969 C 5.03125 12.335938 5.765625 13.003906 6.675781 13.398438 C 6.773438 13.863281 7.832031 15 8.472656 15 C 9.144531 15 9.167969 14.441406 9.167969 13.75 L 11.25 13.75 C 11.265625 13.75 11.277344 13.746094 11.292969 13.746094 C 11.414062 13.746094 11.535156 13.75 11.667969 13.75 C 11.667969 14.167969 12.382812 15 13.054688 15 C 13.726562 15 13.75 14.441406 13.75 13.75 C 13.75 13.625 13.726562 13.503906 13.691406 13.390625 C 14.421875 12.996094 15 12.171875 15 10.417969 Z M 15 10.417969 "/>
<path style=" stroke:none;fill-rule:nonzero;fill:rgb(16.078431%,18.431373%,20%);fill-opacity:1;" d="M 4.167969 7.550781 C 4.167969 7.894531 4.445312 8.175781 4.792969 8.175781 C 5.136719 8.175781 5.417969 7.894531 5.417969 7.550781 C 5.417969 7.207031 5.136719 7.550781 4.792969 7.550781 C 4.445312 7.550781 4.167969 7.207031 4.167969 7.550781 Z M 4.167969 7.550781 "/>
<path style=" stroke:none;fill-rule:nonzero;fill:rgb(46.666667%,69.803922%,33.333333%);fill-opacity:1;" d="M 12.082031 10 C 12.082031 9.769531 11.804688 9.582031 11.457031 9.582031 C 11.113281 9.582031 10.832031 9.769531 10.832031 10 C 10.832031 10.230469 11.113281 10.417969 11.457031 10.417969 C 11.804688 10.417969 12.082031 10.230469 12.082031 10 Z M 12.082031 10 "/>
<path style=" stroke:none;fill-rule:nonzero;fill:rgb(46.666667%,69.803922%,33.333333%);fill-opacity:1;" d="M 10.417969 10 C 10.417969 9.769531 10.136719 9.582031 9.792969 9.582031 C 9.445312 9.582031 9.167969 9.769531 9.167969 10 C 9.167969 10.230469 9.445312 10.417969 9.792969 10.417969 C 10.136719 10.417969 10.417969 10.230469 10.417969 10 Z M 10.417969 10 "/>
<path style=" stroke:none;fill-rule:nonzero;fill:rgb(46.666667%,69.803922%,33.333333%);fill-opacity:1;" d="M 8.75 10 C 8.75 9.769531 8.46875 9.582031 8.125 9.582031 C 7.78125 9.582031 7.5 9.769531 7.5 10 C 7.5 10.230469 7.78125 10.417969 8.125 10.417969 C 8.46875 10.417969 8.75 10.230469 8.75 10 Z M 8.75 10 "/>
<path style=" stroke:none;fill-rule:nonzero;fill:rgb(46.666667%,69.803922%,33.333333%);fill-opacity:1;" d="M 9.582031 10.832031 C 9.582031 10.601562 9.304688 10.417969 8.957031 10.417969 C 8.613281 10.417969 8.332031 10.601562 8.332031 10.832031 C 8.332031 11.0625 8.613281 11.25 8.957031 11.25 C 9.304688 11.25 9.582031 11.0625 9.582031 10.832031 Z M 9.582031 10.832031 "/>
<path style=" stroke:none;fill-rule:nonzero;fill:rgb(46.666667%,69.803922%,33.333333%);fill-opacity:1;" d="M 11.25 10.832031 C 11.25 10.601562 10.96875 10.417969 10.625 10.417969 C 10.28125 10.417969 10 10.601562 10 10.832031 C 10 11.0625 10.28125 11.25 10.625 11.25 C 10.96875 11.25 11.25 11.0625 11.25 10.832031 Z M 11.25 10.832031 "/>
<path style=" stroke:none;fill-rule:nonzero;fill:rgb(100%,100%,100%);fill-opacity:1;" d="M 2.5 9.167969 C 2.339844 9.167969 2.082031 8.75 2.082031 8.75 L 2.917969 8.75 C 2.917969 8.75 2.660156 9.167969 2.5 9.167969 Z M 1.667969 9.363281 C 1.503906 9.363281 1.25 8.75 1.25 8.75 L 2.082031 8.75 C 2.082031 8.75 1.828125 9.363281 1.667969 9.363281 Z M 0.832031 9.582031 C 0.671875 9.582031 0.417969 8.75 0.417969 8.75 L 1.25 8.75 C 1.25 8.75 0.996094 9.582031 0.832031 9.582031 Z M 0.832031 9.582031 "/>
</g>
</svg>
