<?xml version="1.0" encoding="UTF-8"?>
<svg xmlns="http://www.w3.org/2000/svg" xmlns:xlink="http://www.w3.org/1999/xlink" width="15pt" height="15pt" viewBox="0 0 15 15" version="1.1">
<g id="surface1">
<path style=" stroke:none;fill-rule:nonzero;fill:rgb(24.313725%,44.705882%,11.372549%);fill-opacity:1;" d="M 5.179688 12.429688 C 5.441406 9.636719 3.339844 9.289062 2.507812 9.894531 C 2.050781 10.230469 1.941406 10.863281 2.308594 10.53125 C 2.949219 9.941406 3.175781 10.375 2.691406 10.6875 C 2.203125 11 2.117188 11.578125 2.65625 11.179688 C 3.191406 10.78125 3.339844 11.042969 2.925781 11.554688 C 2.671875 11.863281 2.941406 12.152344 3.410156 11.527344 C 3.800781 11.007812 4.742188 10.988281 4.519531 12.773438 C 4.425781 13.503906 5.125 13.027344 5.179688 12.429688 Z M 8.488281 3.671875 C 8.246094 2.214844 8.019531 1.484375 6.5625 1.242188 C 5.105469 0.996094 3.890625 1.96875 3.890625 1.96875 C 3.890625 1.96875 4.132812 0.511719 4.859375 0.0273438 C 5.148438 -0.164062 5.347656 0.753906 5.589844 0.753906 C 5.832031 0.753906 6.078125 0.0273438 6.804688 0.0273438 C 7.046875 0.0273438 7.046875 0.753906 7.292969 0.753906 C 7.535156 0.753906 8.226562 0.515625 8.265625 0.753906 C 8.316406 1.09375 8.195312 1.476562 8.386719 1.632812 C 8.578125 1.789062 9.03125 1.570312 9.175781 1.835938 C 9.324219 2.101562 8.921875 2.484375 8.957031 2.65625 C 8.992188 2.828125 9.257812 2.898438 9.175781 3.230469 C 9.097656 3.558594 8.90625 3.578125 8.890625 3.820312 C 8.871094 4.0625 9.257812 4.269531 9.175781 4.523438 C 9.097656 4.773438 8.90625 4.808594 8.820312 5.128906 C 8.734375 5.453125 9.046875 5.402344 8.957031 5.730469 C 8.871094 6.058594 8.558594 6.140625 8.453125 6.464844 C 8.351562 6.789062 8.734375 6.859375 8.542969 7.171875 C 8.351562 7.484375 8.003906 7.535156 7.984375 7.726562 C 7.96875 7.917969 8.074219 8.066406 8.003906 8.375 C 7.933594 8.679688 7.535156 8.523438 7.5 8.765625 C 7.464844 9.011719 7.585938 9.132812 7.585938 9.425781 C 7.585938 9.722656 7.292969 9.773438 7.328125 10.070312 C 7.363281 10.363281 7.640625 10.140625 7.8125 10.484375 C 7.988281 10.832031 7.710938 11.144531 7.898438 11.355469 C 8.089844 11.5625 8.351562 11.074219 8.613281 11.25 C 8.871094 11.421875 8.894531 11.769531 9.179688 11.824219 C 9.460938 11.875 9.550781 11.285156 9.757812 11.300781 C 9.964844 11.320312 10.433594 11.597656 10.675781 11.476562 C 10.921875 11.355469 10.902344 10.867188 11.09375 10.660156 C 11.285156 10.449219 11.527344 10.640625 11.703125 10.417969 C 11.875 10.191406 11.640625 9.925781 11.675781 9.597656 C 11.710938 9.265625 12.03125 9.078125 12.015625 8.820312 C 11.996094 8.558594 11.734375 8.558594 11.632812 8.28125 C 11.527344 8.003906 11.824219 7.761719 11.71875 7.5 C 11.613281 7.238281 11.164062 7.152344 11.179688 6.890625 C 11.199219 6.632812 11.371094 6.335938 11.285156 6.042969 C 11.199219 5.746094 10.832031 5.554688 10.851562 5.328125 C 10.867188 5.105469 11.058594 4.808594 11.09375 4.644531 C 11.128906 4.480469 10.78125 4.304688 10.816406 4.027344 C 10.851562 3.75 11.078125 3.769531 11.164062 3.519531 C 11.25 3.265625 10.851562 3.144531 11.058594 2.820312 C 11.265625 2.5 11.371094 2.710938 11.546875 2.535156 C 11.71875 2.359375 11.546875 1.980469 11.71875 1.890625 C 11.890625 1.804688 12.238281 1.875 12.414062 1.753906 C 12.585938 1.632812 12.585938 1.457031 12.777344 1.390625 C 12.96875 1.320312 13.210938 1.613281 13.367188 1.613281 C 13.523438 1.613281 13.800781 1.320312 14.011719 1.390625 C 14.21875 1.457031 14.671875 1.945312 14.390625 2.09375 C 14.113281 2.242188 11.996094 2.34375 11.980469 3.316406 C 11.960938 4.289062 13.144531 8.699219 12.796875 9.808594 C 12.449219 10.921875 11.007812 13.28125 9.359375 12.832031 C 7.707031 12.378906 5.746094 11.371094 6.214844 9.828125 C 6.683594 8.28125 8.195312 5.121094 8.488281 3.671875 Z M 8.488281 3.671875 "/>
<path style=" stroke:none;fill-rule:nonzero;fill:rgb(46.666667%,69.803922%,33.333333%);fill-opacity:1;" d="M 8.75 3.289062 C 8.75 4.949219 7.757812 6.683594 6.320312 6.441406 C 4.101562 6.070312 3.984375 5.363281 3.644531 5.796875 C 2.429688 7.359375 1.710938 5.597656 1.433594 5.304688 C 1.363281 5.230469 0 4.828125 0 4.058594 C 0 3.5625 0.730469 3.050781 1.214844 3.546875 C 1.933594 3.527344 4.617188 0.980469 6.320312 0.980469 C 8.019531 0.980469 8.75 2.265625 8.75 3.289062 Z M 8.75 3.289062 "/>
<path style=" stroke:none;fill-rule:nonzero;fill:rgb(16.078431%,18.431373%,20%);fill-opacity:1;" d="M 6.078125 2.941406 C 6.078125 3.210938 5.859375 3.429688 5.589844 3.429688 C 5.320312 3.429688 5.105469 3.210938 5.105469 2.941406 C 5.105469 2.675781 5.320312 2.457031 5.589844 2.457031 C 5.859375 2.457031 6.078125 2.675781 6.078125 2.941406 Z M 6.078125 2.941406 "/>
<path style=" stroke:none;fill-rule:nonzero;fill:rgb(24.313725%,44.705882%,11.372549%);fill-opacity:1;" d="M 1.214844 4.28125 C 1.214844 4.480469 1.050781 4.402344 0.851562 4.402344 C 0.648438 4.402344 0.484375 4.480469 0.484375 4.28125 C 0.484375 4.078125 0.648438 3.914062 0.851562 3.914062 C 1.050781 3.914062 1.214844 4.078125 1.214844 4.28125 Z M 1.214844 4.28125 "/>
<path style=" stroke:none;fill-rule:nonzero;fill:rgb(100%,100%,100%);fill-opacity:1;" d="M 4.617188 4.644531 C 4.617188 4.910156 4.453125 4.886719 4.253906 4.886719 C 4.050781 4.886719 3.890625 4.910156 3.890625 4.644531 C 3.890625 4.375 4.050781 3.671875 4.253906 3.671875 C 4.453125 3.671875 4.617188 4.375 4.617188 4.644531 Z M 3.644531 4.886719 C 3.644531 5.15625 3.484375 5.128906 3.28125 5.128906 C 3.078125 5.128906 2.917969 5.15625 2.917969 4.886719 C 2.917969 4.617188 3.078125 3.914062 3.28125 3.914062 C 3.484375 3.914062 3.644531 4.617188 3.644531 4.886719 Z M 3.644531 4.886719 "/>
<path style=" stroke:none;fill-rule:nonzero;fill:rgb(24.313725%,44.705882%,11.372549%);fill-opacity:1;" d="M 4.582031 4.648438 C 3.292969 4.832031 1.996094 5.15625 1.433594 5.304688 C 1.503906 5.378906 1.601562 5.546875 1.730469 5.730469 C 2.34375 5.570312 3.503906 5.292969 4.652344 5.128906 C 4.785156 5.109375 4.878906 4.984375 4.859375 4.851562 C 4.839844 4.71875 4.714844 4.628906 4.582031 4.648438 Z M 4.582031 4.648438 "/>
<path style=" stroke:none;fill-rule:nonzero;fill:rgb(46.666667%,69.803922%,33.333333%);fill-opacity:1;" d="M 8.726562 3.722656 C 8.726562 5.546875 8.011719 7.140625 7.5 8.378906 C 6.945312 9.714844 7.082031 12.128906 9.167969 12.128906 C 11.25 12.128906 11.878906 10.796875 12.082031 10.042969 C 12.648438 7.953125 11.25 6.710938 11.25 4.628906 C 11.25 0.878906 14.582031 1.710938 14.582031 2.128906 C 14.582031 2.542969 11.695312 2.699219 13.332031 5.878906 C 14.972656 9.054688 15 15 9.167969 15 C 3.332031 15 3.332031 11.292969 4.167969 9.628906 C 4.757812 8.449219 5.832031 6.667969 4.375 5.859375 C 3.425781 5.332031 8.726562 3.722656 8.726562 3.722656 Z M 8.726562 3.722656 "/>
<path style=" stroke:none;fill-rule:nonzero;fill:rgb(24.313725%,44.705882%,11.372549%);fill-opacity:1;" d="M 4.722656 3.238281 C 4.617188 3.238281 4.507812 3.195312 4.429688 3.117188 C 4.265625 2.953125 4.265625 2.691406 4.429688 2.527344 C 4.464844 2.492188 5.296875 1.675781 6.667969 1.675781 C 6.898438 1.675781 7.085938 1.863281 7.085938 2.09375 C 7.085938 2.320312 6.898438 2.507812 6.667969 2.507812 C 5.652344 2.507812 5.023438 3.109375 5.015625 3.117188 C 4.9375 3.195312 4.828125 3.238281 4.722656 3.238281 Z M 4.722656 3.238281 "/>
<path style=" stroke:none;fill-rule:nonzero;fill:rgb(36.078431%,56.862745%,23.137255%);fill-opacity:1;" d="M 4.460938 10.554688 C 4.722656 7.761719 2.203125 7.414062 1.371094 8.019531 C 0.914062 8.355469 0.808594 8.988281 1.171875 8.65625 C 1.8125 8.066406 2.039062 8.5 1.554688 8.8125 C 1.066406 9.125 0.980469 9.703125 1.519531 9.304688 C 2.058594 8.90625 2.203125 9.167969 1.789062 9.679688 C 1.535156 9.988281 1.804688 10.277344 2.273438 9.652344 C 2.664062 9.132812 4.023438 9.113281 3.800781 10.898438 C 3.707031 11.628906 4.40625 11.152344 4.460938 10.554688 Z M 4.460938 10.554688 "/>
</g>
</svg>
