<?xml version="1.0" encoding="UTF-8"?>
<svg xmlns="http://www.w3.org/2000/svg" xmlns:xlink="http://www.w3.org/1999/xlink" width="15pt" height="15pt" viewBox="0 0 15 15" version="1.1">
<g id="surface1">
<path style=" stroke:none;fill-rule:nonzero;fill:rgb(80%,83.921569%,86.666667%);fill-opacity:1;" d="M 14.167969 6.25 C 14.167969 5.417969 13.28125 4.289062 12.5 4.582031 C 9.167969 5.832031 4.582031 3.75 4.582031 3.75 C 3.664062 3.75 1.726562 7.605469 2.5 7.917969 C 2.617188 7.964844 2.726562 8.011719 2.832031 8.058594 C 1.9375 8.371094 1.785156 9.085938 2.5 9.167969 C 6.25 9.582031 5.375 15 5.832031 15 C 6.394531 15 6.953125 13.910156 7.257812 12.917969 L 11.34375 12.917969 C 11.460938 13.898438 11.703125 15 12.082031 15 C 12.445312 15 13.171875 13.523438 13.664062 11.191406 C 13.96875 10.097656 14.167969 8.46875 14.167969 6.25 Z M 14.167969 6.25 "/>
<path style=" stroke:none;fill-rule:nonzero;fill:rgb(19.215686%,21.568627%,23.921569%);fill-opacity:1;" d="M 4.167969 9.167969 C 3.332031 9.167969 2.105469 9.203125 1.261719 9.203125 C 0.417969 9.203125 -0.257812 7.753906 0.289062 7.210938 C 0.832031 6.667969 2.5 6.25 2.082031 4.582031 C 1.859375 3.679688 3.75 3.332031 4.582031 3.75 C 6.589844 4.753906 6.667969 7.917969 3.75 7.917969 C 3.75 7.917969 5 9.167969 4.167969 9.167969 Z M 12.5 4.582031 C 11.421875 4.988281 10.214844 5.042969 9.074219 4.933594 C 8.613281 5.511719 8.332031 6.261719 8.332031 7.082031 C 8.332031 8.925781 9.730469 10.417969 11.457031 10.417969 C 12.535156 10.417969 13.484375 9.835938 14.046875 8.949219 C 14.125 8.167969 14.167969 7.277344 14.167969 6.25 C 14.167969 5.417969 13.28125 4.289062 12.5 4.582031 Z M 12.5 4.582031 "/>
<path style=" stroke:none;fill-rule:nonzero;fill:rgb(19.215686%,21.568627%,23.921569%);fill-opacity:1;" d="M 8.75 10.207031 C 8.75 11.015625 8.097656 11.667969 7.292969 11.667969 C 6.484375 11.667969 5.832031 11.015625 5.832031 10.207031 C 5.832031 9.402344 6.484375 8.75 7.292969 8.75 C 8.097656 8.75 8.75 9.402344 8.75 10.207031 Z M 8.75 10.207031 "/>
<path style=" stroke:none;fill-rule:nonzero;fill:rgb(19.215686%,21.568627%,23.921569%);fill-opacity:1;" d="M 13.332031 11.667969 C 13.332031 12.125 12.960938 12.5 12.5 12.5 C 12.039062 12.5 11.667969 12.125 11.667969 11.667969 C 11.667969 11.207031 12.039062 10.832031 12.5 10.832031 C 12.960938 10.832031 13.332031 11.207031 13.332031 11.667969 Z M 13.332031 11.667969 "/>
<path style=" stroke:none;fill-rule:nonzero;fill:rgb(80%,83.921569%,86.666667%);fill-opacity:1;" d="M 4.582031 3.75 C 4.582031 3.980469 4.304688 4.167969 3.957031 4.167969 C 3.613281 4.167969 2.082031 3.148438 2.082031 2.917969 C 2.082031 2.6875 3.011719 2.789062 3.332031 2.917969 C 4.375 3.332031 4.582031 3.519531 4.582031 3.75 Z M 4.582031 3.75 "/>
<path style=" stroke:none;fill-rule:nonzero;fill:rgb(80%,83.921569%,86.666667%);fill-opacity:1;" d="M 3.75 5.417969 C 3.75 5.648438 3.5625 5.832031 3.332031 5.832031 C 3.101562 5.832031 2.917969 5.648438 2.917969 5.417969 C 2.917969 5.1875 3.101562 5 3.332031 5 C 3.5625 5 3.75 5.1875 3.75 5.417969 Z M 3.75 5.417969 "/>
<path style=" stroke:none;fill-rule:nonzero;fill:rgb(19.215686%,21.568627%,23.921569%);fill-opacity:1;" d="M 14.582031 10 C 14.351562 10 14.167969 9.8125 14.167969 9.582031 L 14.167969 7.5 C 14.167969 6.898438 13.933594 6.667969 13.332031 6.667969 C 13.101562 6.667969 12.917969 6.480469 12.917969 6.25 C 12.917969 6.019531 13.101562 5.832031 13.332031 5.832031 C 14.390625 5.832031 15 6.441406 15 7.5 L 15 9.582031 C 15 9.8125 14.8125 10 14.582031 10 Z M 14.582031 10 "/>
</g>
</svg>
