<?xml version="1.0" encoding="UTF-8"?>
<svg xmlns="http://www.w3.org/2000/svg" xmlns:xlink="http://www.w3.org/1999/xlink" width="15pt" height="15pt" viewBox="0 0 15 15" version="1.1">
<g id="surface1">
<path style=" stroke:none;fill-rule:nonzero;fill:rgb(60%,66.666667%,70.980392%);fill-opacity:1;" d="M 3.75 4.582031 C 3.75 2.859375 2.917969 0 3.332031 0 C 3.75 0 6.25 1.667969 5.417969 4.582031 C 4.941406 6.242188 5.042969 6.25 4.582031 6.25 C 4.125 6.25 3.75 6.308594 3.75 4.582031 Z M 3.75 4.582031 "/>
<path style=" stroke:none;fill-rule:nonzero;fill:rgb(95.686275%,67.058824%,72.941176%);fill-opacity:1;" d="M 3.980469 4.875 C 3.980469 3.453125 3.4375 1.097656 3.710938 1.097656 C 3.980469 1.097656 5.601562 2.472656 5.058594 4.875 C 4.753906 6.246094 4.816406 6.25 4.519531 6.25 C 4.222656 6.25 3.980469 6.296875 3.980469 4.875 Z M 3.980469 4.875 "/>
<path style=" stroke:none;fill-rule:nonzero;fill:rgb(60%,66.666667%,70.980392%);fill-opacity:1;" d="M 1.996094 5.15625 C 1.550781 3.488281 0.015625 0.941406 0.417969 0.832031 C 0.820312 0.726562 3.664062 1.695312 3.605469 4.730469 C 3.574219 6.453125 3.671875 6.433594 3.226562 6.554688 C 2.785156 6.671875 2.4375 6.824219 1.996094 5.15625 Z M 1.996094 5.15625 "/>
<path style=" stroke:none;fill-rule:nonzero;fill:rgb(95.686275%,67.058824%,72.941176%);fill-opacity:1;" d="M 2.292969 5.378906 C 1.925781 4.007812 0.800781 1.867188 1.0625 1.800781 C 1.324219 1.730469 3.242188 2.640625 3.335938 5.105469 C 3.390625 6.503906 3.453125 6.492188 3.167969 6.570312 C 2.878906 6.644531 2.65625 6.753906 2.292969 5.378906 Z M 2.292969 5.378906 "/>
<path style=" stroke:none;fill-rule:nonzero;fill:rgb(80%,83.921569%,86.666667%);fill-opacity:1;" d="M 15 11.875 C 15 12.679688 14.347656 13.332031 13.542969 13.332031 C 12.734375 13.332031 12.082031 12.679688 12.082031 11.875 C 12.082031 11.070312 12.734375 10.417969 13.542969 10.417969 C 14.347656 10.417969 15 11.070312 15 11.875 Z M 15 11.875 "/>
<path style=" stroke:none;fill-rule:nonzero;fill:rgb(60%,66.666667%,70.980392%);fill-opacity:1;" d="M 12.804688 13.222656 C 13.429688 12.648438 13.75 11.757812 13.75 10.417969 C 13.75 7.425781 10.910156 5.832031 7.917969 5.832031 C 7.058594 5.832031 6.320312 5.898438 5.699219 6.058594 C 5.246094 5.585938 4.507812 5.417969 3.5 5.417969 C 1.722656 5.417969 0 7.113281 0 8.890625 C 0 10.609375 1.617188 10.820312 3.332031 10.832031 C 4.582031 12.917969 3.75 15 4.582031 15 C 5.246094 15 5.378906 14.078125 5.410156 13.175781 C 5.855469 13.453125 6.347656 13.671875 6.878906 13.835938 C 6.515625 14.050781 6.25 14.28125 6.25 14.375 C 6.25 14.949219 7.082031 15 8.332031 15 C 10.632812 15 13.75 15 12.917969 13.332031 C 12.894531 13.289062 12.855469 13.253906 12.804688 13.222656 Z M 12.804688 13.222656 "/>
<path style=" stroke:none;fill-rule:nonzero;fill:rgb(16.078431%,18.431373%,20%);fill-opacity:1;" d="M 2.917969 7.5 C 2.917969 7.730469 2.730469 7.917969 2.5 7.917969 C 2.269531 7.917969 2.082031 7.730469 2.082031 7.5 C 2.082031 7.269531 2.269531 7.082031 2.5 7.082031 C 2.730469 7.082031 2.917969 7.269531 2.917969 7.5 Z M 2.917969 7.5 "/>
<path style=" stroke:none;fill-rule:nonzero;fill:rgb(95.686275%,67.058824%,72.941176%);fill-opacity:1;" d="M 0.832031 8.75 C 0.832031 9.210938 0.625 9.582031 0.417969 9.582031 C 0.207031 9.582031 0 9.210938 0 8.75 C 0 8.289062 0.1875 8.332031 0.417969 8.332031 C 0.648438 8.332031 0.832031 8.289062 0.832031 8.75 Z M 0.832031 8.75 "/>
</g>
</svg>
