<?xml version="1.0" encoding="UTF-8"?>
<svg xmlns="http://www.w3.org/2000/svg" xmlns:xlink="http://www.w3.org/1999/xlink" width="15pt" height="15pt" viewBox="0 0 15 15" version="1.1">
<g id="surface1">
<path style=" stroke:none;fill-rule:nonzero;fill:rgb(86.666667%,18.039216%,26.666667%);fill-opacity:1;" d="M 4.933594 3.179688 C 4.632812 3.179688 3.976562 4.117188 3.445312 3.609375 C 3.265625 3.433594 4.203125 3.078125 4.167969 2.769531 C 4.136719 2.515625 2.984375 2.136719 3.386719 1.894531 C 3.789062 1.652344 4.394531 2.246094 4.847656 2.253906 C 5.839844 2.277344 6.605469 1.898438 6.613281 1.894531 C 6.839844 1.78125 7.113281 1.871094 7.226562 2.101562 C 7.335938 2.328125 7.246094 2.605469 7.023438 2.71875 C 6.96875 2.746094 6.09375 3.179688 4.933594 3.179688 Z M 4.933594 3.179688 "/>
<path style=" stroke:none;fill-rule:nonzero;fill:rgb(46.666667%,69.803922%,33.333333%);fill-opacity:1;" d="M 11.589844 15 C 9.9375 15 8.183594 13.785156 8.183594 11.539062 C 8.183594 10.964844 7.8125 10.847656 7.5 10.847656 C 7.1875 10.847656 6.816406 10.964844 6.816406 11.539062 C 6.816406 13.785156 5.0625 15 3.410156 15 C 1.757812 15 0 13.847656 0 11.539062 C 0 6 5.910156 5.234375 5.910156 6 C 5.910156 6.765625 2.726562 5.539062 2.726562 11.078125 C 2.726562 12 3.097656 12.230469 3.410156 12.230469 C 3.71875 12.230469 4.089844 12.109375 4.089844 11.539062 C 4.089844 9.289062 5.847656 8.078125 7.5 8.078125 C 9.152344 8.078125 10.910156 9.289062 10.910156 11.539062 C 10.910156 12.109375 11.28125 12.230469 11.589844 12.230469 C 11.902344 12.230469 12.273438 12.109375 12.273438 11.539062 L 12.273438 4.617188 C 12.273438 3.007812 10.847656 2.769531 10 2.769531 C 10 2.769531 8.636719 3.230469 7.273438 3.230469 C 5.910156 3.230469 5.457031 2.148438 5.457031 1.382812 C 5.453125 0.621094 7.273438 0 10 0 C 12.726562 0 15 1.855469 15 4.617188 L 15 11.539062 C 15 13.785156 13.242188 15 11.589844 15 Z M 11.589844 15 "/>
<path style=" stroke:none;fill-rule:nonzero;fill:rgb(16.078431%,18.431373%,20%);fill-opacity:1;" d="M 8.332031 1.25 C 8.332031 1.480469 8.148438 1.667969 7.917969 1.667969 C 7.6875 1.667969 7.5 1.480469 7.5 1.25 C 7.5 1.019531 7.6875 0.832031 7.917969 0.832031 C 8.148438 0.832031 8.332031 1.019531 8.332031 1.25 Z M 8.332031 1.25 "/>
</g>
</svg>
