<?xml version="1.0" encoding="UTF-8"?>
<svg xmlns="http://www.w3.org/2000/svg" xmlns:xlink="http://www.w3.org/1999/xlink" width="15pt" height="15pt" viewBox="0 0 15 15" version="1.1">
<g id="surface1">
<path style=" stroke:none;fill-rule:nonzero;fill:rgb(16.078431%,18.431373%,20%);fill-opacity:1;" d="M 10.417969 14.582031 C 9.269531 14.582031 9.582031 12.082031 9.582031 12.082031 C 9.582031 11.625 10.6875 11.25 11.144531 11.25 C 11.605469 11.25 12.5 11.207031 12.5 11.667969 C 12.5 11.667969 11.5625 14.582031 10.417969 14.582031 Z M 10.417969 14.582031 "/>
<path style=" stroke:none;fill-rule:nonzero;fill:rgb(40%,45.882353%,49.803922%);fill-opacity:1;" d="M 11.667969 15 C 10.519531 15 10.832031 12.5 10.832031 12.5 C 10.832031 12.039062 11.9375 11.667969 12.394531 11.667969 C 12.855469 11.667969 13.75 11.625 13.75 12.082031 C 13.75 12.082031 12.8125 15 11.667969 15 Z M 11.667969 15 "/>
<path style=" stroke:none;fill-rule:nonzero;fill:rgb(16.078431%,18.431373%,20%);fill-opacity:1;" d="M 5.832031 14.582031 C 4.6875 14.582031 4.167969 12.082031 4.167969 12.082031 C 4.167969 11.625 5.269531 11.25 5.730469 11.25 C 6.1875 11.25 7.082031 11.207031 7.082031 11.667969 C 7.082031 11.667969 6.980469 14.582031 5.832031 14.582031 Z M 5.832031 14.582031 "/>
<path style=" stroke:none;fill-rule:nonzero;fill:rgb(40%,45.882353%,49.803922%);fill-opacity:1;" d="M 7.082031 15 C 5.9375 15 5.417969 12.5 5.417969 12.5 C 5.417969 12.039062 6.519531 11.667969 6.980469 11.667969 C 7.4375 11.667969 8.332031 11.625 8.332031 12.082031 C 8.332031 12.082031 8.230469 15 7.082031 15 Z M 7.082031 15 "/>
<path style=" stroke:none;fill-rule:nonzero;fill:rgb(88.235294%,90.980392%,92.941176%);fill-opacity:1;" d="M 14.894531 8.910156 C 14.894531 12.152344 13.023438 13.664062 8.847656 13.664062 C 4.671875 13.664062 3.230469 12.152344 3.230469 8.910156 C 3.230469 5.667969 4.671875 4.15625 8.847656 4.15625 C 13.023438 4.15625 14.894531 5.667969 14.894531 8.910156 Z M 14.894531 8.910156 "/>
<path style=" stroke:none;fill-rule:nonzero;fill:rgb(60%,66.666667%,70.980392%);fill-opacity:1;" d="M 7.082031 7.359375 C 7.082031 11.25 5.144531 12.082031 3.351562 12.082031 C 1.558594 12.082031 0.417969 9.316406 0.417969 7.359375 C 0.417969 5.40625 1.558594 5 3.351562 5 C 5.144531 5 7.082031 5.40625 7.082031 7.359375 Z M 7.082031 7.359375 "/>
<path style=" stroke:none;fill-rule:nonzero;fill:rgb(16.078431%,18.431373%,20%);fill-opacity:1;" d="M 2.5 8.542969 C 2.5 8.886719 2.21875 9.167969 1.875 9.167969 C 1.53125 9.167969 1.25 8.886719 1.25 8.542969 C 1.25 8.195312 1.53125 7.917969 1.875 7.917969 C 2.21875 7.917969 2.5 8.195312 2.5 8.542969 Z M 2.5 8.542969 "/>
<path style=" stroke:none;fill-rule:nonzero;fill:rgb(88.235294%,90.980392%,92.941176%);fill-opacity:1;" d="M 6.5625 5.3125 C 5.832031 6.667969 5.675781 6.398438 3.59375 7.230469 C 2.308594 7.746094 0 7.605469 0 5.625 C 0 4.820312 1.535156 4.582031 2.917969 4.582031 C 4.296875 4.582031 7.253906 4.027344 6.5625 5.3125 Z M 6.5625 5.3125 "/>
<path style=" stroke:none;fill-rule:nonzero;fill:rgb(100%,80%,30.196078%);fill-opacity:1;" d="M 6.667969 5.707031 C 8.0625 6.71875 8.929688 8.265625 8.21875 10.328125 C 7.648438 11.980469 5.378906 11.625 4.210938 10.796875 C 3.046875 9.96875 3.109375 8.800781 3.488281 8.175781 C 3.867188 7.550781 5.222656 7.664062 6 8.214844 C 6.390625 8.492188 6.121094 8.867188 5.699219 8.660156 C 4.746094 8.195312 4.433594 9.261719 5.179688 9.863281 C 5.707031 10.285156 6.542969 10.296875 6.703125 9.441406 C 6.984375 7.929688 5.242188 6.828125 3.59375 7.230469 C 4.582031 6.667969 5.484375 4.851562 6.667969 5.707031 Z M 6.667969 5.707031 "/>
</g>
</svg>
