<?xml version="1.0" encoding="UTF-8"?>
<svg xmlns="http://www.w3.org/2000/svg" xmlns:xlink="http://www.w3.org/1999/xlink" width="15pt" height="15pt" viewBox="0 0 15 15" version="1.1">
<g id="surface1">
<path style=" stroke:none;fill-rule:nonzero;fill:rgb(19.215686%,21.568627%,23.921569%);fill-opacity:1;" d="M 14.128906 5.988281 C 13.996094 5.25 13.324219 4.582031 12.5 4.582031 L 4.582031 4.582031 C 4.484375 4.582031 4.367188 4.640625 4.238281 4.734375 C 4.027344 4.640625 3.804688 4.582031 3.570312 4.582031 C 3.152344 4.582031 1.597656 4.738281 1.25 5.417969 L 0.289062 7.210938 C 0.0078125 8.027344 0.417969 9.203125 1.261719 9.203125 C 1.5 9.203125 1.902344 9.199219 2.371094 9.195312 C 3.058594 9.316406 3.871094 9.824219 4.636719 10.382812 C 5.519531 12.21875 5.851562 15 6.25 15 C 6.652344 15 7.304688 13.164062 7.464844 12.082031 L 11.265625 12.082031 C 11.328125 13.117188 11.585938 15 12.082031 15 C 12.507812 15 13.433594 12.964844 13.894531 9.902344 C 14.027344 9.222656 14.117188 8.359375 14.152344 7.269531 C 14.160156 7.339844 14.167969 7.414062 14.167969 7.5 L 14.167969 12.5 C 14.167969 12.730469 14.351562 12.917969 14.582031 12.917969 C 14.8125 12.917969 15 12.730469 15 12.5 L 15 7.5 C 15 6.746094 14.6875 6.226562 14.128906 5.988281 Z M 14.128906 5.988281 "/>
<path style=" stroke:none;fill-rule:nonzero;fill:rgb(100%,100%,100%);fill-opacity:1;" d="M 2.917969 6.667969 C 2.917969 6.898438 2.730469 7.082031 2.5 7.082031 C 2.269531 7.082031 2.082031 6.898438 2.082031 6.667969 C 2.082031 6.4375 2.269531 6.25 2.5 6.25 C 2.730469 6.25 2.917969 6.4375 2.917969 6.667969 Z M 2.917969 6.667969 "/>
<path style=" stroke:none;fill-rule:nonzero;fill:rgb(60%,66.666667%,70.980392%);fill-opacity:1;" d="M 4.167969 6.25 C 5.417969 6.25 6.960938 5.574219 6.960938 3.90625 C 6.960938 3.074219 6.316406 2.199219 5.105469 2.171875 C 3.386719 2.132812 2.65625 3.332031 2.917969 3.488281 C 3.136719 3.621094 3.75 2.707031 4.792969 2.917969 C 5.566406 3.070312 5.648438 3.570312 5.484375 3.890625 C 5.296875 4.261719 4.582031 4.582031 3.75 4.582031 C 2.917969 4.582031 3.332031 6.25 4.167969 6.25 Z M 4.167969 6.25 "/>
</g>
</svg>
