<?xml version="1.0" encoding="UTF-8"?>
<svg xmlns="http://www.w3.org/2000/svg" xmlns:xlink="http://www.w3.org/1999/xlink" width="15pt" height="15pt" viewBox="0 0 15 15" version="1.1">
<g id="surface1">
<path style=" stroke:none;fill-rule:nonzero;fill:rgb(100%,80%,30.196078%);fill-opacity:1;" d="M 13.691406 6.867188 C 13.582031 6.796875 13.464844 6.730469 13.332031 6.667969 C 12.5 6.25 11.25 6.667969 9.582031 6.667969 C 8.75 6.667969 7.542969 5.417969 5.417969 5.417969 C 5.082031 5.417969 4.476562 5.679688 3.609375 5.789062 C 3.589844 5.347656 3.351562 5 3.054688 5 C 2.75 5 2.5 5.371094 2.5 5.832031 C 2.5 5.855469 2.503906 5.875 2.503906 5.894531 C 1.328125 6.214844 0 7.746094 0 8.488281 C 0 9.324219 0.832031 10 0.832031 10 C 0.832031 10 1.25 10 2.082031 9.167969 C 2.742188 8.507812 4.167969 8.75 4.167969 8.75 L 4.582031 13.75 C 4.582031 13.75 4.167969 14.167969 3.75 14.167969 C 3.332031 14.167969 3.332031 15 3.332031 15 L 5.832031 15 L 6.25 11.25 L 7.5 11.25 C 8.332031 11.25 10.417969 10.832031 10.417969 10.832031 C 11.25 12.082031 12.082031 12.5 12.082031 12.5 L 12.082031 13.75 L 11.25 14.167969 C 10.417969 14.582031 10.832031 15 10.832031 15 L 13.332031 15 C 13.332031 15 13.75 11.667969 14.167969 9.582031 L 14.167969 11.667969 C 14.167969 11.898438 14.351562 12.082031 14.582031 12.082031 C 14.8125 12.082031 15 11.898438 15 11.667969 L 15 8.75 C 15 7.640625 14.433594 7.113281 13.691406 6.867188 Z M 13.691406 6.867188 "/>
<path style=" stroke:none;fill-rule:nonzero;fill:rgb(16.078431%,18.431373%,20%);fill-opacity:1;" d="M 2.082031 7.082031 C 2.082031 7.3125 1.898438 7.5 1.667969 7.5 C 1.4375 7.5 1.25 7.3125 1.25 7.082031 C 1.25 6.851562 1.4375 6.667969 1.667969 6.667969 C 1.898438 6.667969 2.082031 6.851562 2.082031 7.082031 Z M 2.082031 7.082031 "/>
<path style=" stroke:none;fill-rule:nonzero;fill:rgb(16.078431%,18.431373%,20%);fill-opacity:1;" d="M 0 8.332031 C 0 8.332031 0 9.167969 0.417969 9.167969 C 0.417969 8.332031 0.832031 8.332031 0.832031 8.332031 C 0.832031 8.332031 0.417969 7.917969 0 8.332031 Z M 0 8.332031 "/>
<path style=" stroke:none;fill-rule:nonzero;fill:rgb(95.686275%,56.470588%,4.705882%);fill-opacity:1;" d="M 5.207031 6.875 C 5.207031 7.335938 4.835938 7.707031 4.375 7.707031 C 3.914062 7.707031 3.542969 7.335938 3.542969 6.875 C 3.542969 6.414062 3.914062 6.042969 4.375 6.042969 C 4.835938 6.042969 5.207031 6.414062 5.207031 6.875 Z M 5.207031 6.875 "/>
<path style=" stroke:none;fill-rule:nonzero;fill:rgb(95.686275%,56.470588%,4.705882%);fill-opacity:1;" d="M 8.125 6.875 C 8.125 7.335938 7.75 7.707031 7.292969 7.707031 C 6.832031 7.707031 6.457031 7.335938 6.457031 6.875 C 6.457031 6.414062 6.832031 6.042969 7.292969 6.042969 C 7.75 6.042969 8.125 6.414062 8.125 6.875 Z M 8.125 6.875 "/>
<path style=" stroke:none;fill-rule:nonzero;fill:rgb(95.686275%,56.470588%,4.705882%);fill-opacity:1;" d="M 6.875 8.957031 C 6.875 9.417969 6.5 9.792969 6.042969 9.792969 C 5.582031 9.792969 5.207031 9.417969 5.207031 8.957031 C 5.207031 8.5 5.582031 8.125 6.042969 8.125 C 6.5 8.125 6.875 8.5 6.875 8.957031 Z M 6.875 8.957031 "/>
<path style=" stroke:none;fill-rule:nonzero;fill:rgb(95.686275%,56.470588%,4.705882%);fill-opacity:1;" d="M 9.792969 9.792969 C 9.792969 10.25 9.417969 10.625 8.957031 10.625 C 8.5 10.625 8.125 10.25 8.125 9.792969 C 8.125 9.332031 8.5 8.957031 8.957031 8.957031 C 9.417969 8.957031 9.792969 9.332031 9.792969 9.792969 Z M 9.792969 9.792969 "/>
<path style=" stroke:none;fill-rule:nonzero;fill:rgb(95.686275%,56.470588%,4.705882%);fill-opacity:1;" d="M 11.042969 7.707031 C 11.042969 8.167969 10.667969 8.542969 10.207031 8.542969 C 9.75 8.542969 9.375 8.167969 9.375 7.707031 C 9.375 7.25 9.75 6.875 10.207031 6.875 C 10.667969 6.875 11.042969 7.25 11.042969 7.707031 Z M 11.042969 7.707031 "/>
<path style=" stroke:none;fill-rule:nonzero;fill:rgb(95.686275%,56.470588%,4.705882%);fill-opacity:1;" d="M 12.707031 9.792969 C 12.707031 10.25 12.335938 10.625 11.875 10.625 C 11.414062 10.625 11.042969 10.25 11.042969 9.792969 C 11.042969 9.332031 11.414062 8.957031 11.875 8.957031 C 12.335938 8.957031 12.707031 9.332031 12.707031 9.792969 Z M 12.707031 9.792969 "/>
<path style=" stroke:none;fill-rule:nonzero;fill:rgb(95.686275%,56.470588%,4.705882%);fill-opacity:1;" d="M 13.957031 7.707031 C 13.957031 8.167969 13.585938 8.542969 13.125 8.542969 C 12.664062 8.542969 12.292969 8.167969 12.292969 7.707031 C 12.292969 7.25 12.664062 6.875 13.125 6.875 C 13.585938 6.875 13.957031 7.25 13.957031 7.707031 Z M 13.957031 7.707031 "/>
<path style=" stroke:none;fill-rule:nonzero;fill:rgb(100%,67.45098%,20%);fill-opacity:1;" d="M 4.792969 6.875 C 4.792969 7.105469 4.605469 7.292969 4.375 7.292969 C 4.144531 7.292969 3.957031 7.105469 3.957031 6.875 C 3.957031 6.644531 4.144531 6.457031 4.375 6.457031 C 4.605469 6.457031 4.792969 6.644531 4.792969 6.875 Z M 4.792969 6.875 "/>
<path style=" stroke:none;fill-rule:nonzero;fill:rgb(100%,67.45098%,20%);fill-opacity:1;" d="M 7.707031 6.875 C 7.707031 7.105469 7.523438 7.292969 7.292969 7.292969 C 7.0625 7.292969 6.875 7.105469 6.875 6.875 C 6.875 6.644531 7.0625 6.457031 7.292969 6.457031 C 7.523438 6.457031 7.707031 6.644531 7.707031 6.875 Z M 7.707031 6.875 "/>
<path style=" stroke:none;fill-rule:nonzero;fill:rgb(100%,67.45098%,20%);fill-opacity:1;" d="M 6.457031 8.957031 C 6.457031 9.1875 6.273438 9.375 6.042969 9.375 C 5.8125 9.375 5.625 9.1875 5.625 8.957031 C 5.625 8.726562 5.8125 8.542969 6.042969 8.542969 C 6.273438 8.542969 6.457031 8.726562 6.457031 8.957031 Z M 6.457031 8.957031 "/>
<path style=" stroke:none;fill-rule:nonzero;fill:rgb(100%,67.45098%,20%);fill-opacity:1;" d="M 9.375 9.792969 C 9.375 10.023438 9.1875 10.207031 8.957031 10.207031 C 8.726562 10.207031 8.542969 10.023438 8.542969 9.792969 C 8.542969 9.5625 8.726562 9.375 8.957031 9.375 C 9.1875 9.375 9.375 9.5625 9.375 9.792969 Z M 9.375 9.792969 "/>
<path style=" stroke:none;fill-rule:nonzero;fill:rgb(100%,67.45098%,20%);fill-opacity:1;" d="M 10.625 7.707031 C 10.625 7.9375 10.4375 8.125 10.207031 8.125 C 9.976562 8.125 9.792969 7.9375 9.792969 7.707031 C 9.792969 7.476562 9.976562 7.292969 10.207031 7.292969 C 10.4375 7.292969 10.625 7.476562 10.625 7.707031 Z M 10.625 7.707031 "/>
<path style=" stroke:none;fill-rule:nonzero;fill:rgb(100%,67.45098%,20%);fill-opacity:1;" d="M 12.292969 9.792969 C 12.292969 10.023438 12.105469 10.207031 11.875 10.207031 C 11.644531 10.207031 11.457031 10.023438 11.457031 9.792969 C 11.457031 9.5625 11.644531 9.375 11.875 9.375 C 12.105469 9.375 12.292969 9.5625 12.292969 9.792969 Z M 12.292969 9.792969 "/>
<path style=" stroke:none;fill-rule:nonzero;fill:rgb(100%,67.45098%,20%);fill-opacity:1;" d="M 13.542969 7.707031 C 13.542969 7.9375 13.355469 8.125 13.125 8.125 C 12.894531 8.125 12.707031 7.9375 12.707031 7.707031 C 12.707031 7.476562 12.894531 7.292969 13.125 7.292969 C 13.355469 7.292969 13.542969 7.476562 13.542969 7.707031 Z M 13.542969 7.707031 "/>
</g>
</svg>
