<?xml version="1.0" encoding="UTF-8"?>
<svg xmlns="http://www.w3.org/2000/svg" xmlns:xlink="http://www.w3.org/1999/xlink" width="15pt" height="15pt" viewBox="0 0 15 15" version="1.1">
<g id="surface1">
<path style=" stroke:none;fill-rule:nonzero;fill:rgb(75.686275%,41.176471%,30.980392%);fill-opacity:1;" d="M 14.128906 5.988281 C 13.996094 5.25 13.324219 4.582031 12.5 4.582031 L 3.75 4.582031 C 3.332031 4.582031 1.53125 4.597656 1.25 5.417969 L 0.289062 8.042969 C 0.0078125 8.863281 0.417969 10.035156 1.261719 10.035156 C 1.742188 10.035156 2.34375 10.023438 2.925781 10.015625 C 4.171875 11.6875 5.375 15 5.832031 15 C 6.1875 15 6.488281 13.578125 6.609375 12.5 L 11.296875 12.5 C 11.394531 13.554688 11.648438 15 12.082031 15 C 12.480469 15 13.324219 13.207031 13.808594 10.453125 C 13.984375 9.660156 14.109375 8.609375 14.148438 7.265625 C 14.160156 7.335938 14.167969 7.414062 14.167969 7.5 L 14.167969 11.25 C 14.167969 11.480469 14.351562 11.667969 14.582031 11.667969 C 14.8125 11.667969 15 11.480469 15 11.25 L 15 7.5 C 15 6.746094 14.6875 6.226562 14.128906 5.988281 Z M 14.128906 5.988281 "/>
<path style=" stroke:none;fill-rule:nonzero;fill:rgb(80%,83.921569%,86.666667%);fill-opacity:1;" d="M 4.167969 5 C 3.332031 5.832031 2.171875 4.582031 1.25 4.582031 C 0.328125 4.582031 0 4.402344 0 4.179688 C 0 3.957031 0.746094 3.777344 1.667969 3.777344 C 2.585938 3.777344 5 4.167969 4.167969 5 Z M 4.167969 5 "/>
<path style=" stroke:none;fill-rule:nonzero;fill:rgb(16.078431%,18.431373%,20%);fill-opacity:1;" d="M 2.917969 6.667969 C 2.917969 6.898438 2.730469 7.082031 2.5 7.082031 C 2.269531 7.082031 2.082031 6.898438 2.082031 6.667969 C 2.082031 6.4375 2.269531 6.25 2.5 6.25 C 2.730469 6.25 2.917969 6.4375 2.917969 6.667969 Z M 2.917969 6.667969 "/>
</g>
</svg>
