<?xml version="1.0" encoding="UTF-8"?>
<svg xmlns="http://www.w3.org/2000/svg" xmlns:xlink="http://www.w3.org/1999/xlink" width="15pt" height="15pt" viewBox="0 0 15 15" version="1.1">
<g id="surface1">
<path style=" stroke:none;fill-rule:nonzero;fill:rgb(91.764706%,34.901961%,43.137255%);fill-opacity:1;" d="M 12.5 15 L 2.5 15 C 2.269531 15 2.082031 14.8125 2.082031 14.582031 C 2.082031 14.351562 2.269531 14.167969 2.5 14.167969 L 12.5 14.167969 C 13.558594 14.167969 14.167969 13.597656 14.167969 12.605469 C 14.167969 11.964844 13.480469 11.25 12.5 11.25 L 9.582031 11.25 C 9.351562 11.25 9.167969 11.0625 9.167969 10.832031 C 9.167969 10.601562 9.351562 10.417969 9.582031 10.417969 L 12.5 10.417969 C 13.996094 10.417969 15 11.546875 15 12.605469 C 15 14.058594 14.019531 15 12.5 15 Z M 12.5 15 "/>
<path style=" stroke:none;fill-rule:nonzero;fill:rgb(40%,45.882353%,49.803922%);fill-opacity:1;" d="M 5 10.207031 C 5 8.941406 6.5 7.734375 5.417969 7.082031 C 3.996094 6.230469 2.550781 8.871094 1.667969 9.167969 C 0.417969 9.582031 0 10.585938 0 11.25 C 0 12.015625 0.828125 11.96875 2.082031 12.082031 C 2.878906 12.15625 4.414062 12.136719 5.832031 12.5 C 7.058594 12.816406 5 11.472656 5 10.207031 Z M 5 10.207031 "/>
<path style=" stroke:none;fill-rule:nonzero;fill:rgb(40%,45.882353%,49.803922%);fill-opacity:1;" d="M 13.75 9.792969 C 13.75 6.25 12.1875 4.582031 10 4.582031 C 5.832031 4.582031 4.167969 7.5 4.167969 10.417969 C 4.167969 12.601562 6.980469 12.917969 9.167969 12.917969 C 11.351562 12.917969 13.75 11.976562 13.75 9.792969 Z M 13.75 9.792969 "/>
<path style=" stroke:none;fill-rule:nonzero;fill:rgb(40%,45.882353%,49.803922%);fill-opacity:1;" d="M 4.074219 7.433594 C 4.074219 6.355469 3.085938 6.09375 3.582031 5.339844 C 3.875 4.890625 4.660156 5.074219 4.851562 5.097656 C 4.835938 5.652344 5.519531 5.878906 5.707031 5.535156 C 5.863281 5.6875 6.003906 5.878906 6.109375 6.101562 C 6.488281 6.902344 5.917969 7.972656 5.292969 8.265625 C 4.671875 8.5625 4.074219 8.324219 4.074219 7.433594 Z M 4.074219 7.433594 "/>
<path style=" stroke:none;fill-rule:nonzero;fill:rgb(90.196078%,66.666667%,66.666667%);fill-opacity:1;" d="M 5.679688 6.726562 C 5.714844 7.257812 5.480469 7.835938 5.097656 7.941406 C 4.71875 8.042969 4.566406 7.636719 4.429688 7.121094 C 4.289062 6.609375 4.03125 6.003906 4.414062 5.902344 C 4.796875 5.796875 5.636719 6.03125 5.679688 6.726562 Z M 5.679688 6.726562 "/>
<path style=" stroke:none;fill-rule:nonzero;fill:rgb(16.078431%,18.431373%,20%);fill-opacity:1;" d="M 3.75 9.582031 C 3.75 9.8125 3.5625 10 3.332031 10 C 3.101562 10 2.917969 9.8125 2.917969 9.582031 C 2.917969 9.351562 3.101562 9.167969 3.332031 9.167969 C 3.5625 9.167969 3.75 9.351562 3.75 9.582031 Z M 3.75 9.582031 "/>
<path style=" stroke:none;fill-rule:nonzero;fill:rgb(40%,45.882353%,49.803922%);fill-opacity:1;" d="M 4.414062 7.628906 C 3.890625 6.914062 3.234375 6.804688 2.542969 6.804688 C 2.238281 6.804688 2.257812 7.003906 2.5 7.03125 C 2.949219 7.078125 3.316406 7.199219 3.367188 7.308594 C 3.398438 7.382812 3.074219 7.292969 2.769531 7.292969 C 2.28125 7.292969 2.335938 7.414062 2.699219 7.507812 C 3.480469 7.707031 3.464844 8.015625 3.90625 8.003906 C 4.347656 7.988281 4.414062 7.628906 4.414062 7.628906 Z M 11.015625 4.71875 C 10.328125 4.460938 9.375 3.785156 8.4375 3.890625 C 8.125 3.921875 8.246094 4.105469 8.4375 4.148438 C 8.691406 4.207031 9.035156 4.441406 9.160156 4.539062 C 9.277344 4.628906 8.195312 4.304688 7.464844 4.582031 C 7.101562 4.722656 7.25 4.816406 7.476562 4.792969 C 7.816406 4.753906 8.148438 4.863281 8.578125 5.125 C 9.007812 5.382812 11.464844 4.886719 11.015625 4.71875 Z M 11.015625 4.71875 "/>
</g>
</svg>
