<?xml version="1.0" encoding="UTF-8"?>
<svg xmlns="http://www.w3.org/2000/svg" xmlns:xlink="http://www.w3.org/1999/xlink" width="15pt" height="15pt" viewBox="0 0 15 15" version="1.1">
<g id="surface1">
<path style=" stroke:none;fill-rule:nonzero;fill:rgb(94.509804%,56.078431%,14.901961%);fill-opacity:1;" d="M 4.367188 9.347656 C 4.367188 9.347656 4.660156 10.300781 4.226562 12.679688 C 4.148438 13.105469 4.035156 13.542969 3.976562 13.902344 C 3.242188 13.902344 3.203125 14.734375 3.359375 14.734375 L 4.234375 14.734375 C 4.789062 14.734375 5.46875 13.347656 5.839844 11.417969 C 6.207031 9.488281 4.367188 9.347656 4.367188 9.347656 Z M 9.800781 10.890625 C 9.800781 10.890625 10.746094 11.402344 10.710938 12.59375 C 10.699219 13.0625 10.609375 13.464844 10.5625 13.851562 C 9.800781 13.851562 9.796875 14.679688 10.019531 14.679688 L 10.792969 14.679688 C 11.179688 14.679688 12.042969 13.363281 12.203125 11.644531 C 12.359375 9.929688 9.800781 10.890625 9.800781 10.890625 Z M 9.800781 10.890625 "/>
<path style=" stroke:none;fill-rule:nonzero;fill:rgb(100%,80%,30.588235%);fill-opacity:1;" d="M 15 3.519531 C 15 1.46875 13.273438 0.417969 11.25 0.417969 C 11.019531 0.417969 10.832031 0.601562 10.832031 0.832031 C 10.832031 1.0625 11.019531 1.25 11.25 1.25 C 12 1.25 14.046875 1.640625 14.046875 3.519531 C 14.046875 4.71875 13.394531 5.796875 12.476562 6.011719 C 12.410156 5.980469 12.335938 5.96875 12.265625 5.933594 C 9.25 4.300781 6.660156 6.308594 5.921875 5.8125 C 5.191406 5.320312 5.695312 4.453125 4.746094 3.625 C 4.609375 2.859375 4.296875 1.761719 3.996094 1.761719 C 3.769531 1.761719 3.46875 2.523438 3.273438 3.285156 C 3.027344 2.710938 2.703125 2.136719 2.496094 2.136719 C 2.230469 2.136719 1.964844 3.082031 1.832031 3.902344 C 1.132812 4.378906 0.621094 5.070312 0.621094 5.886719 C 0.621094 7.011719 2.308594 7.285156 2.871094 7.308594 C 3.433594 7.328125 4.132812 8.792969 4.367188 9.421875 C 4.882812 11.242188 5.222656 13.046875 5.492188 14.082031 C 4.804688 14.082031 4.738281 14.960938 4.929688 14.960938 C 5.226562 14.960938 5.742188 14.957031 5.855469 14.960938 C 6.429688 14.964844 6.699219 13 6.699219 11.273438 C 6.699219 11.183594 6.695312 11.011719 6.695312 11.011719 C 6.695312 11.011719 7.5 11.222656 9.210938 10.925781 C 10.230469 10.75 11.308594 11.277344 11.605469 12.242188 C 11.824219 12.953125 12.1875 13.621094 12.382812 14.109375 C 11.722656 14.109375 11.738281 14.960938 11.933594 14.960938 C 12.261719 14.960938 12.683594 14.964844 12.839844 14.960938 C 13.453125 14.9375 13.109375 11.804688 13.269531 10.753906 C 13.433594 9.703125 13.796875 8.429688 13.175781 7.085938 C 14.523438 6.347656 15 4.792969 15 3.519531 Z M 15 3.519531 "/>
<path style=" stroke:none;fill-rule:nonzero;fill:rgb(16.078431%,18.431373%,20%);fill-opacity:1;" d="M 2.871094 4.902344 C 2.871094 5.109375 2.703125 5.277344 2.496094 5.277344 C 2.289062 5.277344 2.121094 5.109375 2.121094 4.902344 C 2.121094 4.695312 2.289062 4.527344 2.496094 4.527344 C 2.703125 4.527344 2.871094 4.695312 2.871094 4.902344 Z M 2.871094 4.902344 "/>
<path style=" stroke:none;fill-rule:nonzero;fill:rgb(90.588235%,35.294118%,43.921569%);fill-opacity:1;" d="M 1.242188 5.359375 C 0.960938 5.535156 0.960938 6.097656 0.820312 6.097656 C 0.679688 6.097656 0.398438 5.765625 0.398438 5.359375 C 0.398438 4.949219 1.589844 5.140625 1.242188 5.359375 Z M 1.242188 5.359375 "/>
<path style=" stroke:none;fill-rule:nonzero;fill:rgb(99.607843%,90.588235%,72.156863%);fill-opacity:1;" d="M 2.742188 5.976562 C 2.722656 5.988281 2.703125 5.992188 2.683594 5.988281 C 2.675781 5.984375 2.035156 5.886719 1.621094 6.046875 C 1.566406 6.070312 1.480469 6.039062 1.449219 5.96875 C 1.417969 5.898438 1.457031 5.816406 1.511719 5.796875 C 2.113281 5.558594 2.703125 5.699219 2.734375 5.703125 C 2.792969 5.714844 2.816406 5.785156 2.8125 5.859375 C 2.8125 5.90625 2.769531 5.957031 2.742188 5.976562 Z M 2.542969 6.949219 C 2.523438 6.953125 2.503906 6.949219 2.484375 6.9375 C 2.480469 6.933594 1.929688 6.59375 1.484375 6.582031 C 1.425781 6.582031 1.359375 6.519531 1.359375 6.441406 C 1.359375 6.363281 1.425781 6.300781 1.484375 6.300781 C 2.128906 6.3125 2.621094 6.671875 2.644531 6.691406 C 2.695312 6.726562 2.691406 6.796875 2.65625 6.867188 C 2.636719 6.914062 2.578125 6.945312 2.542969 6.949219 Z M 2.542969 6.949219 "/>
<path style=" stroke:none;fill-rule:nonzero;fill:rgb(94.509804%,56.078431%,14.901961%);fill-opacity:1;" d="M 3.273438 3.285156 C 3.273438 3.285156 3.425781 3.265625 3.628906 3.296875 C 3.722656 3.105469 3.875 2.929688 3.875 2.929688 C 3.875 2.929688 3.992188 3.207031 4.035156 3.417969 C 4.046875 3.46875 4.125 3.46875 4.167969 3.496094 C 4.167969 3.496094 4.183594 2.054688 3.808594 1.898438 C 3.808594 1.898438 3.496094 2.367188 3.273438 3.285156 Z M 1.832031 3.898438 C 1.832031 3.898438 1.992188 3.789062 2.199219 3.660156 C 2.292969 3.402344 2.4375 3.105469 2.4375 3.105469 C 2.4375 3.105469 2.566406 3.355469 2.582031 3.441406 C 2.667969 3.394531 2.667969 3.398438 2.75 3.363281 C 2.75 3.363281 2.703125 2.410156 2.292969 2.3125 C 2.292969 2.3125 1.984375 2.882812 1.832031 3.898438 Z M 1.832031 3.898438 "/>
<path style=" stroke:none;fill-rule:nonzero;fill:rgb(100%,86.666667%,60%);fill-opacity:1;" d="M 7.6875 9.851562 C 6.582031 10.089844 6.695312 11.011719 6.695312 11.011719 C 6.695312 11.011719 7.5 11.222656 9.210938 10.925781 C 9.65625 10.847656 10.109375 10.910156 10.507812 11.082031 C 9.835938 9.8125 8.707031 9.632812 7.6875 9.851562 Z M 7.6875 9.851562 "/>
<path style=" stroke:none;fill-rule:nonzero;fill:rgb(94.509804%,56.078431%,14.901961%);fill-opacity:1;" d="M 6.121094 5.878906 C 6.316406 6.160156 7.117188 6.867188 7.261719 6.777344 C 7.402344 6.695312 7.507812 5.921875 7.40625 5.652344 C 6.851562 5.800781 6.410156 5.925781 6.121094 5.878906 Z M 9.046875 7 C 9.304688 7.058594 9.671875 5.757812 9.632812 5.28125 C 9.03125 5.289062 8.476562 5.386719 7.980469 5.503906 C 8.121094 5.953125 8.796875 6.941406 9.046875 7 Z M 10.140625 5.296875 C 10.15625 5.597656 10.550781 6.382812 10.675781 6.4375 C 10.804688 6.496094 11.378906 5.890625 11.453125 5.578125 C 11 5.421875 10.5625 5.332031 10.140625 5.296875 Z M 10.140625 5.296875 "/>
</g>
</svg>
