<?xml version="1.0" encoding="UTF-8"?>
<svg xmlns="http://www.w3.org/2000/svg" xmlns:xlink="http://www.w3.org/1999/xlink" width="15pt" height="15pt" viewBox="0 0 15 15" version="1.1">
<g id="surface1">
<path style=" stroke:none;fill-rule:nonzero;fill:rgb(33.333333%,21.568627%,53.333333%);fill-opacity:1;" d="M 4.167969 5 C 5.417969 7.082031 4.167969 9.453125 2.917969 9.039062 C 1.667969 8.621094 1.25 9.871094 2.5 10.289062 C 3.75 10.703125 6.445312 10.09375 7.917969 8.621094 C 8.332031 8.203125 8.75 8.203125 8.75 8.203125 Z M 4.167969 5 "/>
<path style=" stroke:none;fill-rule:nonzero;fill:rgb(33.333333%,21.568627%,53.333333%);fill-opacity:1;" d="M 10.832031 5 C 9.582031 7.082031 10.832031 9.453125 12.082031 9.039062 C 13.332031 8.621094 13.75 9.871094 12.5 10.289062 C 11.25 10.703125 8.554688 10.09375 7.082031 8.621094 C 6.667969 8.203125 6.25 8.203125 6.25 8.203125 Z M 10.832031 5 "/>
<path style=" stroke:none;fill-rule:nonzero;fill:rgb(45.490196%,30.588235%,66.666667%);fill-opacity:1;" d="M 12.578125 6.667969 C 11.328125 8.75 12.578125 11.121094 13.828125 10.703125 C 15.078125 10.289062 15.496094 11.539062 14.246094 11.953125 C 12.996094 12.371094 10.300781 11.761719 8.828125 10.289062 C 8.410156 9.871094 7.996094 9.871094 7.996094 9.871094 Z M 2.421875 6.667969 C 3.671875 8.75 2.421875 11.121094 1.171875 10.703125 C -0.078125 10.289062 -0.496094 11.539062 0.753906 11.953125 C 2.003906 12.371094 4.699219 11.761719 6.171875 10.289062 C 6.589844 9.871094 7.003906 9.871094 7.003906 9.871094 Z M 2.421875 6.667969 "/>
<path style=" stroke:none;fill-rule:nonzero;fill:rgb(57.254902%,40%,80%);fill-opacity:1;" d="M 13.828125 13.074219 C 12.691406 13.453125 11.152344 10.730469 11.824219 8.664062 C 12.507812 7.3125 12.917969 5.808594 12.917969 4.582031 C 12.917969 1.589844 10.492188 0 7.5 0 C 4.507812 0 2.082031 1.589844 2.082031 4.582031 C 2.082031 5.808594 2.492188 7.3125 3.175781 8.664062 C 3.847656 10.730469 2.308594 13.453125 1.171875 13.074219 C -0.078125 12.65625 -0.496094 14.324219 0.753906 14.738281 C 2.003906 15.15625 4.21875 14.476562 5.753906 13.074219 C 6.667969 12.238281 7.5 12.238281 7.5 12.238281 C 7.5 12.238281 8.332031 12.238281 9.246094 13.074219 C 10.78125 14.476562 12.996094 15.15625 14.246094 14.738281 C 15.496094 14.324219 15.078125 12.65625 13.828125 13.074219 Z M 13.828125 13.074219 "/>
<path style=" stroke:none;fill-rule:nonzero;fill:rgb(16.078431%,18.431373%,20%);fill-opacity:1;" d="M 6.667969 8.75 C 6.667969 9.210938 6.292969 9.582031 5.832031 9.582031 C 5.375 9.582031 5 9.210938 5 8.75 C 5 8.289062 5.375 7.917969 5.832031 7.917969 C 6.292969 7.917969 6.667969 8.289062 6.667969 8.75 Z M 6.667969 8.75 "/>
<path style=" stroke:none;fill-rule:nonzero;fill:rgb(16.078431%,18.431373%,20%);fill-opacity:1;" d="M 10 8.75 C 10 9.210938 9.625 9.582031 9.167969 9.582031 C 8.707031 9.582031 8.332031 9.210938 8.332031 8.75 C 8.332031 8.289062 8.707031 7.917969 9.167969 7.917969 C 9.625 7.917969 10 8.289062 10 8.75 Z M 10 8.75 "/>
</g>
</svg>
