<?xml version="1.0" encoding="UTF-8"?>
<svg xmlns="http://www.w3.org/2000/svg" xmlns:xlink="http://www.w3.org/1999/xlink" width="15pt" height="15pt" viewBox="0 0 15 15" version="1.1">
<g id="surface1">
<path style=" stroke:none;fill-rule:nonzero;fill:rgb(23.137255%,53.333333%,76.470588%);fill-opacity:1;" d="M 13.398438 10 C 13.398438 9.582031 14.03125 7.410156 14.667969 6.777344 C 15.300781 6.140625 14.667969 5.457031 14.03125 5.457031 C 12.613281 5.457031 10.222656 8.332031 10.222656 10 C 10.222656 12.082031 12.613281 14.34375 14.03125 14.34375 C 14.667969 14.34375 15.300781 13.757812 14.667969 13.125 C 14.03125 12.488281 13.398438 10.832031 13.398438 10 Z M 13.398438 10 "/>
<path style=" stroke:none;fill-rule:nonzero;fill:rgb(23.137255%,53.333333%,76.470588%);fill-opacity:1;" d="M 3.757812 5.992188 C 3.757812 4.722656 4.382812 3.453125 5.015625 3.453125 C 6.921875 3.453125 10.566406 5.464844 11.203125 8.636719 C 11.835938 11.8125 3.757812 5.992188 3.757812 5.992188 Z M 5.78125 13.609375 C 6.414062 14.242188 7.683594 14.878906 8.953125 14.878906 C 10.222656 14.878906 7.660156 13.132812 8.320312 12.339844 C 9.230469 11.25 5.78125 13.609375 5.78125 13.609375 Z M 5.78125 13.609375 "/>
<path style=" stroke:none;fill-rule:nonzero;fill:rgb(0%,0%,0%);fill-opacity:1;" d="M 0.863281 11.96875 C 1.179688 11.015625 0.941406 10.328125 0.386719 9.644531 C -0.167969 8.953125 2 8.847656 2.714844 9.800781 C 3.425781 10.753906 5.09375 12.417969 3.613281 12.394531 C 2.132812 12.367188 0.863281 11.96875 0.863281 11.96875 Z M 0.863281 11.96875 "/>
<path style=" stroke:none;fill-rule:nonzero;fill:rgb(33.333333%,67.45098%,93.333333%);fill-opacity:1;" d="M 0.0703125 9.785156 C 0.46875 10.152344 3.078125 11.582031 3.054688 11.925781 C 3.03125 12.273438 2.105469 11.890625 1.761719 11.8125 C 1.144531 11.667969 0.96875 11.5625 0.796875 11.589844 C 0.445312 11.726562 0.566406 12.09375 0.695312 12.300781 C 1.320312 13.390625 3.730469 14.246094 5.761719 14.246094 C 9.265625 14.246094 12.761719 11.070312 12.761719 9.800781 C 12.761719 8.53125 8.871094 5.359375 5.363281 5.359375 C 1.867188 5.359375 0.0742188 7.882812 0.0703125 9.785156 Z M 0.0703125 9.785156 "/>
<path style=" stroke:none;fill-rule:nonzero;fill:rgb(0%,0%,0%);fill-opacity:1;" d="M 2.917969 7.082031 C 3.375 7.082031 3.75 7.457031 3.75 7.917969 C 3.75 8.378906 3.375 8.75 2.917969 8.75 C 2.457031 8.75 2.082031 8.375 2.082031 7.917969 C 2.082031 7.457031 2.457031 7.082031 2.917969 7.082031 Z M 2.917969 7.082031 "/>
<path style=" stroke:none;fill-rule:nonzero;fill:rgb(13.333333%,40%,60%);fill-opacity:1;" d="M 6.285156 12.492188 C 6.21875 12.492188 6.152344 12.476562 6.089844 12.445312 C 5.886719 12.339844 5.808594 12.085938 5.914062 11.882812 C 6.574219 10.617188 6.839844 9.480469 5.980469 8.03125 C 5.859375 7.832031 5.925781 7.578125 6.125 7.460938 C 6.320312 7.339844 6.578125 7.40625 6.695312 7.605469 C 7.816406 9.496094 7.304688 11.023438 6.652344 12.269531 C 6.578125 12.410156 6.433594 12.492188 6.285156 12.492188 Z M 6.285156 12.492188 "/>
</g>
</svg>
