<?xml version="1.0" encoding="UTF-8"?>
<svg xmlns="http://www.w3.org/2000/svg" xmlns:xlink="http://www.w3.org/1999/xlink" width="15pt" height="15pt" viewBox="0 0 15 15" version="1.1">
<g id="surface1">
<path style=" stroke:none;fill-rule:nonzero;fill:rgb(100%,67.45098%,20%);fill-opacity:1;" d="M 3.101562 3.125 C 2.683594 1.460938 4.636719 0.625 6.433594 1.460938 C 6.8125 1.636719 6.828125 2.007812 6.433594 1.875 C 5.183594 1.460938 3.933594 2.292969 4.765625 3.542969 C 5.230469 4.234375 3.417969 4.40625 3.101562 3.125 Z M 3.101562 3.125 "/>
<path style=" stroke:none;fill-rule:nonzero;fill:rgb(100%,80%,30.196078%);fill-opacity:1;" d="M 2.558594 2.410156 C 2.140625 0.742188 4.09375 -0.0898438 5.890625 0.742188 C 6.269531 0.917969 6.285156 1.292969 5.890625 1.160156 C 4.640625 0.742188 3.390625 1.578125 4.222656 2.828125 C 4.6875 3.519531 2.875 3.6875 2.558594 2.410156 Z M 2.558594 2.410156 "/>
<path style=" stroke:none;fill-rule:nonzero;fill:rgb(88.235294%,90.980392%,92.941176%);fill-opacity:1;" d="M 2.082031 6.160156 C 2.082031 7.828125 1.25 8.171875 1.25 7.828125 C 1.25 6.992188 0.832031 7.828125 0.832031 7.410156 L 0.832031 6.160156 C 0.832031 5.46875 1.113281 4.910156 1.457031 4.910156 C 1.804688 4.910156 2.082031 5.46875 2.082031 6.160156 Z M 2.082031 6.160156 "/>
<path style=" stroke:none;fill-rule:nonzero;fill:rgb(80%,83.921569%,86.666667%);fill-opacity:1;" d="M 14.648438 4.371094 C 14.367188 3.6875 13.6875 3.242188 12.917969 3.242188 C 12.6875 3.242188 12.5 3.429688 12.5 3.660156 C 12.5 3.890625 12.6875 4.078125 12.917969 4.078125 C 13.347656 4.078125 13.726562 4.316406 13.878906 4.691406 C 14.023438 5.035156 13.949219 5.421875 13.691406 5.792969 C 13.28125 5.164062 12.605469 4.703125 11.667969 4.703125 C 10.671875 4.703125 8.632812 5 7.15625 5.238281 C 7.132812 5.199219 7.113281 5.160156 7.082031 5.117188 C 6.25 3.867188 5.417969 1.71875 4.167969 1.71875 C 2.5 1.71875 0 3.796875 0 5.535156 C 0 6.59375 2.390625 6.753906 3.121094 6.78125 C 3.410156 7.375 3.707031 8.003906 4.050781 8.585938 C 4.078125 8.671875 4.113281 8.761719 4.167969 8.871094 C 5.417969 11.371094 5.464844 14.910156 6.042969 14.910156 C 6.617188 14.910156 7.082031 12.886719 7.082031 11.160156 C 7.082031 11.097656 7.082031 11.035156 7.082031 10.972656 C 8.382812 11.246094 9.832031 11.109375 11.113281 10.71875 C 11.714844 12.824219 11.851562 14.910156 12.292969 14.910156 C 12.851562 14.910156 13.304688 11.238281 13.332031 9.445312 C 13.882812 8.84375 14.167969 8.128906 14.167969 7.410156 C 14.167969 7.160156 14.128906 6.898438 14.0625 6.640625 C 14.734375 5.957031 14.957031 5.109375 14.648438 4.371094 Z M 14.648438 4.371094 "/>
<path style=" stroke:none;fill-rule:nonzero;fill:rgb(16.078431%,18.431373%,20%);fill-opacity:1;" d="M 3.332031 3.867188 C 3.332031 4.097656 3.148438 4.285156 2.917969 4.285156 C 2.6875 4.285156 2.5 4.097656 2.5 3.867188 C 2.5 3.636719 2.6875 3.453125 2.917969 3.453125 C 3.148438 3.453125 3.332031 3.636719 3.332031 3.867188 Z M 3.332031 3.867188 "/>
</g>
</svg>
