<?xml version="1.0" encoding="UTF-8"?>
<svg xmlns="http://www.w3.org/2000/svg" xmlns:xlink="http://www.w3.org/1999/xlink" width="15pt" height="15pt" viewBox="0 0 15 15" version="1.1">
<g id="surface1">
<path style=" stroke:none;fill-rule:nonzero;fill:rgb(85.098039%,61.960784%,50.980392%);fill-opacity:1;" d="M 12.929688 5.988281 C 14.390625 5.71875 14.425781 3.367188 12.910156 3.382812 C 11.722656 3.398438 11.84375 4.546875 11.683594 4.320312 C 11.371094 3.882812 11.269531 2.75 12.457031 2.28125 C 13.484375 1.878906 14.894531 2.699219 14.984375 4.195312 C 15.042969 5.15625 14.445312 6.925781 12.296875 6.632812 C 9.285156 6.21875 11.46875 6.257812 12.929688 5.988281 Z M 12.929688 5.988281 "/>
<path style=" stroke:none;fill-rule:nonzero;fill:rgb(75.686275%,41.176471%,30.980392%);fill-opacity:1;" d="M 4.300781 9.140625 C 4.300781 9.140625 4.722656 10.121094 4.582031 12.574219 C 4.558594 13.015625 4.496094 13.464844 4.480469 13.832031 C 3.726562 13.832031 3.792969 14.691406 3.953125 14.691406 L 5.160156 14.691406 C 5.445312 14.691406 5.949219 13.261719 6.082031 11.273438 C 6.214844 9.285156 4.300781 9.140625 4.300781 9.140625 Z M 9.253906 9 C 9.253906 9 9.496094 10.472656 10.777344 11.671875 C 10.882812 12.160156 11.097656 13.4375 11.171875 13.839844 C 10.382812 13.839844 10.636719 14.691406 10.867188 14.691406 L 11.96875 14.691406 C 12.367188 14.691406 12.425781 13.257812 12.054688 11.484375 C 11.6875 9.714844 9.253906 9 9.253906 9 Z M 9.253906 9 "/>
<path style=" stroke:none;fill-rule:nonzero;fill:rgb(85.098039%,61.960784%,50.980392%);fill-opacity:1;" d="M 13.417969 6.523438 C 12.894531 4.960938 10.410156 5.011719 7.585938 5.371094 C 6.3125 5.53125 6.070312 3.515625 6.070312 3.167969 C 6.070312 1.65625 4.71875 0.894531 3.363281 1.40625 C 3.039062 1.527344 2.777344 1.960938 2.632812 2.1875 C 1.808594 3.453125 0.691406 2.191406 0.582031 3.363281 C 0.453125 4.777344 1.300781 5.25 2.6875 5.371094 C 3.476562 5.4375 4.128906 5.828125 4.300781 7.472656 C 4.363281 8.085938 4.175781 9.824219 5.296875 10.421875 C 5.621094 11.652344 6.058594 13.175781 6.234375 13.953125 C 5.292969 14.148438 5.671875 14.859375 5.671875 14.859375 C 5.671875 14.859375 6.988281 14.839844 7.273438 14.839844 C 7.609375 14.839844 7.351562 12.351562 6.882812 10.765625 C 8.867188 10.78125 10.144531 10.207031 10.546875 10.03125 C 10.976562 11.261719 12.277344 11.542969 12.570312 12.066406 C 12.75 12.394531 13.351562 13.476562 13.402344 13.941406 C 12.734375 14.15625 12.949219 14.664062 13.023438 14.824219 C 13.476562 14.808594 14.367188 14.808594 14.484375 14.808594 C 14.945312 14.808594 14.007812 11.929688 13.613281 11.175781 C 13.164062 10.3125 13.941406 8.085938 13.417969 6.523438 Z M 13.417969 6.523438 "/>
<path style=" stroke:none;fill-rule:nonzero;fill:rgb(95.686275%,78.039216%,70.980392%);fill-opacity:1;" d="M 6.777344 10.191406 C 6.796875 10.347656 6.835938 10.566406 6.882812 10.765625 C 8.867188 10.78125 10.144531 10.207031 10.550781 10.03125 C 10.460938 9.703125 10.453125 9.5 10.476562 9.390625 C 9.0625 9.621094 8.582031 10.308594 6.777344 10.191406 Z M 2.6875 5.371094 C 3.476562 5.4375 3.699219 5.816406 3.871094 7.460938 C 3.933594 8.074219 4.175781 9.824219 5.296875 10.421875 C 4.996094 9.257812 4.480469 5.257812 2.6875 5.371094 Z M 2.6875 5.371094 "/>
<path style=" stroke:none;fill-rule:nonzero;fill:rgb(95.686275%,78.039216%,70.980392%);fill-opacity:1;" d="M 1.3125 2.777344 C 0.148438 2.777344 0.519531 2.996094 0.480469 3.480469 C 0.441406 3.96875 0.449219 4.722656 0.804688 5.121094 C 1.273438 5.644531 2.410156 5.648438 2.976562 5.234375 C 3.542969 4.824219 2.800781 2.777344 1.3125 2.777344 Z M 1.3125 2.777344 "/>
<path style=" stroke:none;fill-rule:nonzero;fill:rgb(15.294118%,16.862745%,16.862745%);fill-opacity:1;" d="M 1.042969 3.46875 C 0.996094 3.785156 0.835938 3.964844 0.675781 3.941406 C 0.359375 3.890625 0.0976562 3.488281 0.0976562 3.167969 C 0.0976562 2.847656 0.355469 2.765625 0.675781 2.78125 C 1.109375 2.800781 1.09375 3.109375 1.042969 3.46875 Z M 1.042969 3.46875 "/>
<path style=" stroke:none;fill-rule:nonzero;fill:rgb(40%,12.941176%,7.45098%);fill-opacity:1;" d="M 6.320312 3.761719 C 6.464844 4.808594 5.835938 4.96875 5.328125 4.96875 C 4.816406 4.96875 4.054688 4.449219 4.183594 3.398438 C 4.238281 2.9375 4.414062 2.484375 4.519531 2.074219 C 4.660156 1.53125 5.019531 1.351562 5.308594 1.503906 C 6 1.871094 6.226562 3.085938 6.320312 3.761719 Z M 6.320312 3.761719 "/>
<path style=" stroke:none;fill-rule:nonzero;fill:rgb(16.078431%,18.431373%,20%);fill-opacity:1;" d="M 3.75 2.78125 C 3.75 2.996094 3.574219 3.167969 3.363281 3.167969 C 3.148438 3.167969 2.976562 2.996094 2.976562 2.78125 C 2.976562 2.566406 3.148438 2.394531 3.363281 2.394531 C 3.574219 2.394531 3.75 2.566406 3.75 2.78125 Z M 3.75 2.78125 "/>
<path style=" stroke:none;fill-rule:nonzero;fill:rgb(75.686275%,41.176471%,30.980392%);fill-opacity:1;" d="M 7.929688 5.328125 C 7.960938 5.96875 8.308594 6.652344 9.070312 6.855469 C 9.863281 7.066406 10.785156 6.90625 11.015625 5.824219 C 11.054688 5.644531 11.070312 5.3125 11.046875 5.191406 C 10.148438 5.117188 9.074219 5.191406 7.929688 5.328125 Z M 7.929688 5.328125 "/>
<path style=" stroke:none;fill-rule:nonzero;fill:rgb(85.098039%,61.960784%,50.980392%);fill-opacity:1;" d="M 1.476562 4.375 C 1.476562 4.488281 1.382812 4.578125 1.273438 4.578125 C 1.160156 4.578125 1.070312 4.488281 1.070312 4.375 C 1.070312 4.265625 1.160156 4.171875 1.273438 4.171875 C 1.382812 4.171875 1.476562 4.265625 1.476562 4.375 Z M 1.476562 4.375 "/>
<path style=" stroke:none;fill-rule:nonzero;fill:rgb(85.098039%,61.960784%,50.980392%);fill-opacity:1;" d="M 1.652344 4.085938 C 1.652344 4.148438 1.601562 4.195312 1.539062 4.195312 C 1.476562 4.195312 1.425781 4.148438 1.425781 4.085938 C 1.425781 4.023438 1.476562 3.972656 1.539062 3.972656 C 1.601562 3.972656 1.652344 4.023438 1.652344 4.085938 Z M 1.652344 4.085938 "/>
<path style=" stroke:none;fill-rule:nonzero;fill:rgb(85.098039%,61.960784%,50.980392%);fill-opacity:1;" d="M 1.820312 4.375 C 1.820312 4.4375 1.769531 4.488281 1.707031 4.488281 C 1.644531 4.488281 1.597656 4.4375 1.597656 4.375 C 1.597656 4.3125 1.644531 4.265625 1.707031 4.265625 C 1.769531 4.265625 1.820312 4.3125 1.820312 4.375 Z M 1.820312 4.375 "/>
</g>
</svg>
