<?xml version="1.0" encoding="UTF-8"?>
<svg xmlns="http://www.w3.org/2000/svg" xmlns:xlink="http://www.w3.org/1999/xlink" width="15pt" height="15pt" viewBox="0 0 15 15" version="1.1">
<g id="surface1">
<path style=" stroke:none;fill-rule:nonzero;fill:rgb(88.235294%,90.980392%,92.941176%);fill-opacity:1;" d="M 8.394531 13.421875 C 8.394531 13.914062 7.992188 14.316406 7.5 14.316406 C 7.007812 14.316406 6.605469 13.914062 6.605469 13.421875 C 6.605469 12.929688 7.007812 12.53125 7.5 12.53125 C 7.992188 12.53125 8.394531 12.929688 8.394531 13.421875 Z M 8.394531 13.421875 "/>
<path style=" stroke:none;fill-rule:nonzero;fill:rgb(88.235294%,90.980392%,92.941176%);fill-opacity:1;" d="M 11.519531 6.519531 C 11.519531 4.296875 9.71875 2.5 7.5 2.5 C 5.28125 2.5 3.480469 4.296875 3.480469 6.519531 C 3.480469 8.75 3.035156 13.421875 3.035156 13.421875 C 3.035156 13.914062 3.433594 14.316406 3.929688 14.316406 C 4.421875 14.316406 4.820312 13.914062 4.820312 13.421875 C 4.820312 13.914062 5.222656 14.316406 5.714844 14.316406 C 6.207031 14.316406 6.605469 13.914062 6.605469 13.421875 L 8.394531 13.421875 C 8.394531 13.914062 8.792969 14.316406 9.285156 14.316406 C 9.777344 14.316406 10.179688 13.914062 10.179688 13.421875 C 10.179688 13.914062 10.578125 14.316406 11.070312 14.316406 C 11.566406 14.316406 11.964844 13.914062 11.964844 13.421875 C 11.964844 13.421875 11.519531 8.75 11.519531 6.519531 Z M 11.519531 6.519531 "/>
<path style=" stroke:none;fill-rule:nonzero;fill:rgb(86.666667%,18.039216%,26.666667%);fill-opacity:1;" d="M 8.332031 1.25 C 8.332031 2.171875 7.730469 3.75 7.5 3.75 C 7.269531 3.75 6.667969 2.171875 6.667969 1.25 C 6.667969 0.328125 7.269531 0 7.5 0 C 7.730469 0 8.332031 0.328125 8.332031 1.25 Z M 6.515625 13.75 C 6.515625 12.660156 7.226562 10.417969 7.5 10.417969 C 7.773438 10.417969 8.484375 12.660156 8.484375 13.75 C 8.484375 14.839844 7.773438 15 7.5 15 C 7.226562 15 6.515625 14.839844 6.515625 13.75 Z M 6.515625 13.75 "/>
<path style=" stroke:none;fill-rule:nonzero;fill:rgb(95.686275%,56.470588%,4.705882%);fill-opacity:1;" d="M 10.417969 9.375 C 10.417969 8.339844 9.109375 7.5 7.5 7.5 C 5.890625 7.5 4.582031 8.339844 4.582031 9.375 C 4.582031 10.410156 5.890625 11.25 7.5 11.25 C 9.109375 11.25 10.417969 10.410156 10.417969 9.375 Z M 10.417969 9.375 "/>
<path style=" stroke:none;fill-rule:nonzero;fill:rgb(100%,67.45098%,20%);fill-opacity:1;" d="M 10.417969 9.375 C 10.417969 10 4.582031 10 4.582031 9.375 C 4.582031 8.75 6.578125 7.5 7.5 7.5 C 8.421875 7.5 10.417969 8.75 10.417969 9.375 Z M 10.417969 9.375 "/>
<path style=" stroke:none;fill-rule:nonzero;fill:rgb(16.078431%,18.431373%,20%);fill-opacity:1;" d="M 5.417969 7.707031 C 5.417969 8.054688 5.136719 8.332031 4.792969 8.332031 C 4.445312 8.332031 4.167969 8.054688 4.167969 7.707031 C 4.167969 7.363281 4.445312 7.082031 4.792969 7.082031 C 5.136719 7.082031 5.417969 7.363281 5.417969 7.707031 Z M 5.417969 7.707031 "/>
<path style=" stroke:none;fill-rule:nonzero;fill:rgb(16.078431%,18.431373%,20%);fill-opacity:1;" d="M 10.832031 7.707031 C 10.832031 8.054688 10.554688 8.332031 10.207031 8.332031 C 9.863281 8.332031 9.582031 8.054688 9.582031 7.707031 C 9.582031 7.363281 9.863281 7.082031 10.207031 7.082031 C 10.554688 7.082031 10.832031 7.363281 10.832031 7.707031 Z M 10.832031 7.707031 "/>
</g>
</svg>
