<?xml version="1.0" encoding="UTF-8"?>
<svg xmlns="http://www.w3.org/2000/svg" xmlns:xlink="http://www.w3.org/1999/xlink" width="15pt" height="15pt" viewBox="0 0 15 15" version="1.1">
<g id="surface1">
<path style=" stroke:none;fill-rule:nonzero;fill:rgb(100%,67.45098%,20%);fill-opacity:1;" d="M 4.992188 1.484375 C 6.886719 1.375 8.253906 2.148438 8.363281 4.328125 C 8.453125 6.074219 6.203125 7.15625 5.011719 7.195312 C 3.984375 7.226562 4.445312 6.421875 5.265625 6.222656 C 5.921875 6.0625 6.984375 5.214844 6.765625 4.371094 C 6.515625 3.40625 4.96875 3.253906 4.121094 4.492188 C 3.785156 4.980469 2.640625 4.859375 2.414062 4.3125 C 2.015625 3.351562 2.917969 1.605469 4.992188 1.484375 Z M 4.992188 1.484375 "/>
<path style=" stroke:none;fill-rule:nonzero;fill:rgb(88.235294%,90.980392%,92.941176%);fill-opacity:1;" d="M 14.894531 8.910156 C 14.894531 5.667969 13.023438 4.15625 8.847656 4.15625 C 8.394531 4.15625 7.976562 4.179688 7.589844 4.214844 C 7.023438 3.203125 5.570312 3.035156 4.167969 3.035156 C 2.375 3.035156 0 5.597656 0 7.550781 C 0 9.472656 1.503906 9.578125 3.253906 9.582031 C 3.351562 10.933594 3.765625 11.9375 4.609375 12.609375 C 4.722656 13.085938 5.246094 15 6.25 15 C 6.8125 15 7.125 14.292969 7.296875 13.578125 C 7.765625 13.632812 8.277344 13.664062 8.847656 13.664062 C 9.570312 13.664062 10.214844 13.613281 10.804688 13.523438 C 10.839844 14.214844 11.023438 15 11.667969 15 C 12.632812 15 13.445312 12.933594 13.679688 12.28125 C 14.5 11.503906 14.894531 10.390625 14.894531 8.910156 Z M 14.894531 8.910156 "/>
<path style=" stroke:none;fill-rule:nonzero;fill:rgb(16.078431%,18.431373%,20%);fill-opacity:1;" d="M 2.5 6.578125 C 2.5 6.921875 2.21875 7.203125 1.875 7.203125 C 1.53125 7.203125 1.25 6.921875 1.25 6.578125 C 1.25 6.230469 1.53125 5.953125 1.875 5.953125 C 2.21875 5.953125 2.5 6.230469 2.5 6.578125 Z M 2.5 6.578125 "/>
<path style=" stroke:none;fill-rule:nonzero;fill:rgb(100%,80%,30.196078%);fill-opacity:1;" d="M 7.316406 1.808594 C 9.113281 2.414062 9.710938 3.535156 9 5.597656 C 8.429688 7.253906 5.9375 7.417969 4.816406 7.003906 C 3.855469 6.652344 4.582031 6.078125 5.417969 6.199219 C 6.085938 6.292969 7.386719 5.90625 7.5 5.042969 C 7.628906 4.054688 6.25 3.332031 5 4.167969 C 4.507812 4.492188 2.59375 4.347656 2.707031 3.765625 C 2.972656 2.421875 5.347656 1.144531 7.316406 1.808594 Z M 7.316406 1.808594 "/>
</g>
</svg>
