<?xml version="1.0" encoding="UTF-8"?>
<svg xmlns="http://www.w3.org/2000/svg" xmlns:xlink="http://www.w3.org/1999/xlink" width="15pt" height="15pt" viewBox="0 0 15 15" version="1.1">
<g id="surface1">
<path style=" stroke:none;fill-rule:nonzero;fill:rgb(80%,83.921569%,86.666667%);fill-opacity:1;" d="M 12.105469 2.929688 C 12.074219 2.902344 12.046875 2.878906 12.015625 2.851562 C 11.566406 2.398438 10.976562 2.199219 10.347656 2.28125 L 8.757812 2.480469 C 8.597656 1.230469 7.820312 0.628906 6.945312 0.738281 L 5.179688 0.960938 C 5.03125 0.320312 4.589844 0.015625 4.09375 0.078125 L 2.097656 0.328125 C 1.546875 0.398438 1.15625 1.015625 1.226562 1.707031 L 1.476562 4.210938 C 1.539062 4.835938 2.070312 5.289062 2.480469 5.332031 L 2.691406 7.453125 C 2.800781 8.519531 3.738281 9.273438 4.410156 9.277344 L 4.617188 11.332031 C 4.683594 12.007812 5.003906 12.59375 5.414062 13.023438 C 5.511719 13.164062 5.609375 13.296875 5.722656 13.410156 C 7.566406 15.25 10.796875 15.519531 12.640625 13.675781 C 14.484375 11.832031 13.945312 4.773438 12.105469 2.929688 Z M 12.105469 2.929688 "/>
<path style=" stroke:none;fill-rule:nonzero;fill:rgb(40%,45.882353%,49.803922%);fill-opacity:1;" d="M 12.753906 6 C 13.085938 6.984375 13.398438 10.820312 12.117188 12.472656 C 10.832031 14.128906 8.765625 11.894531 9.902344 9.890625 C 11.039062 7.882812 12.417969 5 12.753906 6 Z M 12.753906 6 "/>
<path style=" stroke:none;fill-rule:nonzero;fill:rgb(60%,66.666667%,70.980392%);fill-opacity:1;" d="M 8.757812 2.480469 C 8.761719 2.511719 8.769531 2.535156 8.773438 2.566406 C 8.90625 3.878906 5.570312 9.148438 4.519531 9.28125 C 4.484375 9.289062 4.445312 9.28125 4.40625 9.28125 L 4.574219 10.933594 C 6.113281 10.128906 9.746094 4.386719 10.027344 2.320312 Z M 5.179688 0.960938 C 5.195312 1.039062 5.210938 1.117188 5.21875 1.203125 C 5.300781 2.011719 3.25 5.253906 2.601562 5.335938 C 2.5625 5.339844 2.523438 5.335938 2.480469 5.332031 L 2.625 6.792969 C 3.785156 5.917969 5.996094 2.421875 6.414062 0.804688 Z M 5.179688 0.960938 "/>
</g>
</svg>
