<?xml version="1.0" encoding="UTF-8"?>
<svg xmlns="http://www.w3.org/2000/svg" xmlns:xlink="http://www.w3.org/1999/xlink" width="15pt" height="15pt" viewBox="0 0 15 15" version="1.1">
<g id="surface1">
<path style=" stroke:none;fill-rule:nonzero;fill:rgb(66.666667%,55.294118%,84.705882%);fill-opacity:1;" d="M 3.089844 1.667969 C 3.507812 1.25 3.195312 0 2.492188 0 C 1.785156 0 1.839844 0.832031 2.257812 0.832031 C 2.671875 0.832031 2.671875 1.667969 2.671875 2.082031 C 2.671875 2.5 3.089844 1.667969 3.089844 1.667969 Z M 1.347656 2.382812 C 1.761719 1.964844 1.449219 0.714844 0.746094 0.714844 C 0.0429688 0.714844 0.0976562 1.550781 0.511719 1.550781 C 0.929688 1.550781 0.929688 2.382812 0.929688 2.800781 C 0.929688 3.214844 1.347656 2.382812 1.347656 2.382812 Z M 1.347656 2.382812 "/>
<path style=" stroke:none;fill-rule:nonzero;fill:rgb(45.490196%,30.588235%,66.666667%);fill-opacity:1;" d="M 12.335938 13.691406 C 12.414062 14.027344 12.847656 14.640625 13.183594 14.5625 C 13.519531 14.480469 13.632812 13.738281 13.554688 13.402344 C 13.472656 13.066406 13.136719 12.859375 12.800781 12.9375 C 12.464844 13.019531 12.257812 13.355469 12.335938 13.691406 Z M 10.070312 13.960938 C 10.074219 14.304688 10.355469 15 10.699219 15 C 11.046875 15 11.324219 14.300781 11.320312 13.957031 C 11.320312 13.609375 11.039062 13.332031 10.695312 13.332031 C 10.351562 13.335938 10.070312 13.613281 10.070312 13.960938 Z M 7.875 12.941406 C 7.738281 13.257812 7.722656 14.007812 8.039062 14.144531 C 8.359375 14.28125 8.890625 13.75 9.027344 13.433594 C 9.160156 13.117188 9.015625 12.75 8.695312 12.613281 C 8.378906 12.476562 8.011719 12.625 7.875 12.941406 Z M 5.78125 8.339844 C 5.441406 8.414062 4.816406 8.828125 4.886719 9.167969 C 4.960938 9.503906 5.699219 9.636719 6.035156 9.566406 C 6.375 9.492188 6.589844 9.160156 6.519531 8.824219 C 6.449219 8.488281 6.117188 8.269531 5.78125 8.339844 Z M 4.929688 6.257812 C 4.59375 6.328125 3.96875 6.746094 4.039062 7.085938 C 4.113281 7.421875 4.851562 7.550781 5.1875 7.480469 C 5.527344 7.410156 5.742188 7.078125 5.671875 6.742188 C 5.601562 6.402344 5.269531 6.1875 4.929688 6.257812 Z M 4.929688 6.257812 "/>
<path style=" stroke:none;fill-rule:nonzero;fill:rgb(57.254902%,40%,80%);fill-opacity:1;" d="M 11.351562 14.167969 C 12.53125 14.167969 13.402344 13.800781 13.546875 13.738281 C 14.492188 13.316406 14.917969 12.210938 14.496094 11.265625 C 14.082031 10.328125 12.992188 9.898438 12.050781 10.300781 C 11.996094 10.320312 11.304688 10.570312 10.65625 10.269531 C 9.886719 9.910156 9.410156 8.890625 9.144531 8.097656 C 9.085938 7.921875 8.984375 7.570312 8.859375 7.132812 C 8.082031 4.4375 7.679688 3.683594 7.199219 3.042969 C 5.65625 0.980469 3.203125 0.835938 2 1.078125 C 0.984375 1.28125 0.324219 2.269531 0.527344 3.285156 C 0.730469 4.300781 1.71875 4.960938 2.734375 4.753906 C 2.804688 4.746094 3.652344 4.628906 4.160156 5.242188 C 4.429688 5.777344 5.027344 7.378906 5.257812 8.171875 C 5.402344 8.671875 5.519531 9.078125 5.589844 9.285156 C 6.328125 11.5 7.53125 12.988281 9.171875 13.714844 C 9.945312 14.054688 10.695312 14.167969 11.351562 14.167969 Z M 11.351562 14.167969 "/>
<path style=" stroke:none;fill-rule:nonzero;fill:rgb(100%,100%,100%);fill-opacity:1;" d="M 3.199219 2.082031 C 3.199219 2.3125 3.015625 2.5 2.785156 2.5 C 2.554688 2.5 2.367188 2.3125 2.367188 2.082031 C 2.367188 1.851562 2.554688 1.667969 2.785156 1.667969 C 3.015625 1.667969 3.199219 1.851562 3.199219 2.082031 Z M 3.199219 2.082031 "/>
<path style=" stroke:none;fill-rule:nonzero;fill:rgb(45.490196%,30.588235%,66.666667%);fill-opacity:1;" d="M 12.882812 13.734375 C 12.847656 13.734375 12.808594 13.730469 12.773438 13.71875 C 12.550781 13.660156 12.421875 13.429688 12.484375 13.207031 C 12.796875 12.074219 12.160156 11.316406 12.15625 11.308594 C 12.003906 11.132812 12.027344 10.871094 12.199219 10.71875 C 12.375 10.570312 12.636719 10.589844 12.789062 10.765625 C 12.824219 10.808594 13.71875 11.871094 13.285156 13.429688 C 13.234375 13.613281 13.066406 13.734375 12.882812 13.734375 Z M 9.886719 13.5 C 9.78125 13.5 9.679688 13.464844 9.601562 13.386719 C 9.433594 13.230469 9.421875 12.964844 9.582031 12.796875 C 10.199219 12.136719 10.1875 11.050781 10.183594 11.039062 C 10.179688 10.808594 10.359375 10.617188 10.589844 10.613281 C 10.816406 10.609375 11.011719 10.785156 11.019531 11.015625 C 11.019531 11.074219 11.050781 12.449219 10.1875 13.367188 C 10.105469 13.457031 9.996094 13.5 9.886719 13.5 Z M 6.324219 9.878906 C 6.125 9.878906 5.949219 9.734375 5.914062 9.527344 C 5.878906 9.300781 6.03125 9.085938 6.257812 9.050781 C 7.539062 8.835938 8.246094 8.058594 8.253906 8.050781 C 8.40625 7.878906 8.671875 7.863281 8.839844 8.015625 C 9.011719 8.167969 9.03125 8.429688 8.878906 8.601562 C 8.84375 8.644531 7.980469 9.609375 6.394531 9.871094 C 6.371094 9.875 6.347656 9.878906 6.324219 9.878906 Z M 7.542969 11.902344 C 7.367188 11.902344 7.203125 11.789062 7.144531 11.609375 C 7.078125 11.390625 7.199219 11.15625 7.417969 11.085938 C 8.539062 10.730469 9.035156 9.90625 9.039062 9.898438 C 9.15625 9.699219 9.410156 9.632812 9.609375 9.75 C 9.808594 9.867188 9.875 10.121094 9.757812 10.320312 C 9.730469 10.367188 9.09375 11.429688 7.667969 11.878906 C 7.625 11.894531 7.585938 11.902344 7.542969 11.902344 Z M 5.617188 7.453125 C 5.410156 7.453125 5.230469 7.300781 5.207031 7.089844 C 5.175781 6.863281 5.339844 6.652344 5.566406 6.625 C 6.6875 6.484375 7.507812 5.804688 7.515625 5.796875 C 7.691406 5.648438 7.953125 5.671875 8.101562 5.847656 C 8.25 6.019531 8.230469 6.285156 8.054688 6.433594 C 8.011719 6.464844 7.046875 7.277344 5.671875 7.453125 C 5.652344 7.453125 5.636719 7.453125 5.617188 7.453125 Z M 4.859375 5.46875 C 4.683594 5.46875 4.519531 5.355469 4.460938 5.175781 C 4.394531 4.957031 4.515625 4.722656 4.734375 4.652344 C 6.039062 4.246094 6.507812 3.53125 6.527344 3.503906 C 6.648438 3.308594 6.90625 3.25 7.097656 3.371094 C 7.292969 3.496094 7.351562 3.746094 7.234375 3.941406 C 7.207031 3.980469 6.605469 4.941406 4.984375 5.449219 C 4.941406 5.460938 4.902344 5.46875 4.859375 5.46875 Z M 4.859375 5.46875 "/>
</g>
</svg>
