<?xml version="1.0" encoding="UTF-8"?>
<svg xmlns="http://www.w3.org/2000/svg" xmlns:xlink="http://www.w3.org/1999/xlink" width="15pt" height="15pt" viewBox="0 0 15 15" version="1.1">
<g id="surface1">
<path style=" stroke:none;fill-rule:nonzero;fill:rgb(74.901961%,41.176471%,32.156863%);fill-opacity:1;" d="M 12.082031 0.417969 C 10.359375 0.417969 9.582031 1.878906 9.582031 2.917969 C 9.582031 3.988281 10.597656 5 11.667969 5 C 12.464844 5 13.113281 4.464844 13.234375 3.703125 C 13.332031 3.109375 13.054688 2.382812 12.214844 2.105469 C 11.996094 2.03125 11.761719 2.148438 11.6875 2.367188 C 11.617188 2.585938 11.734375 2.820312 11.953125 2.894531 C 12.441406 3.058594 12.4375 3.421875 12.414062 3.570312 C 12.367188 3.855469 12.113281 4.167969 11.667969 4.167969 C 11.058594 4.167969 10.417969 3.523438 10.417969 2.917969 C 10.417969 2.371094 10.824219 1.25 12.082031 1.25 C 13.289062 1.25 14.167969 2.300781 14.167969 3.75 L 14.167969 10 C 14.167969 11.488281 13.601562 12.367188 12.382812 12.726562 C 12.425781 12.304688 12.460938 11.800781 12.480469 11.203125 C 12.734375 9.886719 12.523438 8.234375 11.742188 6.667969 C 10.964844 5.113281 9.273438 4.191406 7.566406 4.292969 C 7.46875 2.160156 6.300781 0.417969 3.917969 0.417969 C 1.433594 0.417969 1.324219 3.332031 0.0742188 5.167969 C -0.488281 5.992188 2.335938 8.105469 3.917969 8.105469 L 3.9375 8.105469 C 4.082031 8.117188 4.269531 8.101562 4.503906 8.050781 C 4.742188 8.007812 4.984375 7.941406 5.222656 7.847656 C 6.359375 7.5 7.042969 7.476562 7.4375 7.664062 C 7.140625 9.066406 5.84375 10.257812 5 11.667969 C 3.75 13.75 5.417969 15 6.25 15 C 7.5 15 7.5 13.75 7.082031 13.75 C 6.25 13.75 5.988281 12.457031 6.25 11.667969 C 6.523438 10.84375 7.335938 10.199219 7.863281 9.144531 C 7.753906 9.84375 7.5 10.644531 7.5 11.25 C 7.5 13.152344 7.988281 13.75 10 13.75 C 10.078125 13.75 10.148438 13.734375 10.226562 13.726562 C 10.152344 13.742188 10.078125 13.75 10 13.75 C 8.042969 13.75 7.707031 14.125 7.707031 14.582031 C 7.707031 14.921875 7.917969 15 8.332031 15 L 11.25 15 C 11.519531 15 11.96875 15 12.25 13.617188 C 14.074219 13.230469 15 12.019531 15 10 L 15 3.75 C 15 1.847656 13.746094 0.417969 12.082031 0.417969 Z M 12.082031 0.417969 "/>
<path style=" stroke:none;fill-rule:nonzero;fill:rgb(84.313725%,61.960784%,51.764706%);fill-opacity:1;" d="M 4.65625 3.25 C 4.65625 2.375 3.949219 1.667969 3.074219 1.667969 C 2.199219 1.667969 1.492188 2.375 1.492188 3.25 C 1.492188 3.363281 1.503906 3.476562 1.527344 3.582031 C 1.097656 3.742188 0.695312 4.058594 0.421875 4.582031 C 0.316406 4.785156 0.199219 4.980469 0.0742188 5.167969 C -0.222656 5.601562 0.421875 6.394531 1.324219 7.046875 C 2.140625 7.632812 3.824219 7.261719 3.824219 5 C 3.824219 4.878906 3.808594 4.765625 3.785156 4.65625 C 4.300781 4.398438 4.65625 3.867188 4.65625 3.25 Z M 5.757812 2.707031 C 5.757812 3.515625 5.652344 4.167969 6.457031 4.167969 C 7.265625 4.167969 7.917969 3.515625 7.917969 2.707031 C 7.917969 1.902344 7.265625 1.25 6.457031 1.25 C 5.652344 1.25 5.757812 1.902344 5.757812 2.707031 Z M 5.757812 2.707031 "/>
<path style=" stroke:none;fill-rule:nonzero;fill:rgb(16.078431%,18.431373%,20%);fill-opacity:1;" d="M 3.097656 3.488281 C 3.097656 3.863281 2.894531 4.167969 2.644531 4.167969 C 2.394531 4.167969 2.191406 3.863281 2.191406 3.488281 C 2.191406 3.113281 2.394531 2.808594 2.644531 2.808594 C 2.894531 2.808594 3.097656 3.113281 3.097656 3.488281 Z M 3.097656 3.488281 "/>
<path style=" stroke:none;fill-rule:nonzero;fill:rgb(39.215686%,12.941176%,8.627451%);fill-opacity:1;" d="M 1.667969 5 C 1.667969 5.230469 0.761719 5.832031 0.382812 5.832031 C 0 5.832031 0 5.648438 0 5.417969 L 0.382812 5.417969 C 0.832031 5.417969 1.667969 4.769531 1.667969 5 Z M 1.667969 5 "/>
</g>
</svg>
