<?xml version="1.0" encoding="UTF-8"?>
<svg xmlns="http://www.w3.org/2000/svg" xmlns:xlink="http://www.w3.org/1999/xlink" width="15pt" height="15pt" viewBox="0 0 15 15" version="1.1">
<g id="surface1">
<path style=" stroke:none;fill-rule:nonzero;fill:rgb(19.215686%,21.568627%,23.921569%);fill-opacity:1;" d="M 11.589844 9.777344 C 11.714844 9.296875 11.785156 8.8125 11.785156 8.332031 C 11.785156 6.597656 10.898438 5.507812 9.59375 4.984375 C 9.765625 4.566406 9.871094 4.105469 9.871094 3.652344 C 9.871094 2.992188 9.664062 2.609375 9.320312 2.390625 C 9.777344 2.1875 10.371094 1.765625 10.582031 1.550781 C 10.910156 1.226562 10.976562 0.765625 10.730469 0.519531 C 10.488281 0.277344 10.027344 0.339844 9.699219 0.667969 C 9.445312 0.921875 8.886719 1.722656 8.773438 2.175781 C 8.40625 2.09375 7.96875 2.082031 7.5 2.082031 C 7.03125 2.082031 6.59375 2.09375 6.226562 2.175781 C 6.113281 1.722656 5.554688 0.921875 5.300781 0.667969 C 4.976562 0.339844 4.515625 0.273438 4.269531 0.519531 C 4.027344 0.765625 4.089844 1.226562 4.417969 1.550781 C 4.628906 1.765625 5.222656 2.1875 5.679688 2.390625 C 5.335938 2.609375 5.128906 2.992188 5.128906 3.652344 C 5.128906 4.109375 5.234375 4.566406 5.40625 4.984375 C 4.101562 5.507812 3.214844 6.597656 3.214844 8.332031 C 3.214844 8.8125 3.285156 9.296875 3.410156 9.777344 L 3.410156 9.785156 L 3.414062 9.785156 C 3.917969 11.710938 5.347656 13.472656 7.085938 13.71875 L 7.082031 13.75 C 7.082031 14.441406 7.269531 15 7.5 15 C 7.730469 15 7.917969 14.441406 7.917969 13.75 C 7.917969 13.738281 7.914062 13.730469 7.914062 13.71875 C 9.652344 13.472656 11.082031 11.710938 11.585938 9.785156 L 11.589844 9.785156 Z M 11.589844 9.777344 "/>
<path style=" stroke:none;fill-rule:nonzero;fill:rgb(100%,80%,30.196078%);fill-opacity:1;" d="M 6.09375 7.917969 L 8.90625 7.917969 C 8.296875 7.324219 7.816406 6.714844 7.613281 6.25 L 7.386719 6.25 C 7.183594 6.714844 6.703125 7.324219 6.09375 7.917969 Z M 3.851562 9.582031 C 3.703125 9.660156 3.554688 9.730469 3.410156 9.785156 C 3.542969 10.292969 3.742188 10.789062 3.992188 11.25 L 11.007812 11.25 C 11.257812 10.789062 11.457031 10.292969 11.589844 9.785156 C 11.445312 9.730469 11.296875 9.660156 11.148438 9.582031 Z M 5.347656 12.917969 C 5.980469 13.429688 6.714844 13.75 7.5 13.75 C 8.285156 13.75 9.019531 13.429688 9.652344 12.917969 Z M 5.347656 12.917969 "/>
<path style=" stroke:none;fill-rule:nonzero;fill:rgb(80%,83.921569%,86.666667%);fill-opacity:1;" d="M 7.5 5.628906 C 7.5 6.730469 4.226562 9.203125 2.5 9.203125 C 0.773438 9.203125 0 8.1875 0 7.082031 C 0 5.980469 0.773438 5.210938 2.5 5.210938 C 4.226562 5.210938 7.5 4.523438 7.5 5.628906 Z M 7.5 5.628906 C 7.5 6.730469 10.773438 9.203125 12.5 9.203125 C 14.226562 9.203125 15 8.1875 15 7.082031 C 15 5.980469 14.226562 5.210938 12.5 5.210938 C 10.773438 5.210938 7.5 4.523438 7.5 5.628906 Z M 7.5 5.628906 "/>
<path style=" stroke:none;fill-rule:nonzero;fill:rgb(60%,66.666667%,70.980392%);fill-opacity:1;" d="M 0.832031 7.917969 C 0.601562 7.917969 0.417969 7.730469 0.417969 7.5 C 0.417969 7.269531 0.601562 7.082031 0.832031 7.082031 C 0.851562 7.082031 2.894531 7.054688 6.496094 5.453125 C 6.707031 5.359375 6.953125 5.453125 7.046875 5.664062 C 7.140625 5.875 7.046875 6.121094 6.835938 6.214844 C 3.046875 7.898438 0.921875 7.917969 0.832031 7.917969 Z M 14.167969 7.917969 C 14.078125 7.917969 11.953125 7.898438 8.164062 6.214844 C 7.953125 6.121094 7.859375 5.875 7.953125 5.664062 C 8.046875 5.453125 8.292969 5.359375 8.503906 5.453125 C 12.105469 7.054688 14.148438 7.082031 14.167969 7.082031 C 14.398438 7.085938 14.582031 7.273438 14.582031 7.5 C 14.582031 7.730469 14.394531 7.917969 14.167969 7.917969 Z M 14.167969 7.917969 "/>
</g>
</svg>
