<?xml version="1.0" encoding="UTF-8"?>
<svg xmlns="http://www.w3.org/2000/svg" xmlns:xlink="http://www.w3.org/1999/xlink" width="15pt" height="15pt" viewBox="0 0 15 15" version="1.1">
<g id="surface1">
<path style=" stroke:none;fill-rule:nonzero;fill:rgb(19.215686%,21.568627%,23.921569%);fill-opacity:1;" d="M 3.125 10.214844 C 3.019531 10.214844 2.910156 10.175781 2.832031 10.09375 C 2.667969 9.929688 2.667969 9.667969 2.832031 9.503906 L 9.503906 2.832031 C 9.667969 2.667969 9.929688 2.667969 10.09375 2.832031 C 10.257812 2.992188 10.257812 3.257812 10.09375 3.417969 L 3.417969 10.09375 C 3.339844 10.175781 3.230469 10.214844 3.125 10.214844 Z M 6.574219 5.324219 C 6.484375 5.324219 6.394531 5.292969 6.316406 5.234375 C 6.136719 5.089844 6.105469 4.828125 6.25 4.648438 C 6.296875 4.589844 7.320312 3.25 6.652344 1.492188 C 6.570312 1.277344 6.679688 1.039062 6.894531 0.957031 C 7.109375 0.875 7.351562 0.984375 7.433594 1.199219 C 8.273438 3.410156 6.957031 5.097656 6.902344 5.167969 C 6.820312 5.269531 6.699219 5.324219 6.574219 5.324219 Z M 8.195312 6.945312 C 8.105469 6.945312 8.011719 6.914062 7.9375 6.851562 C 7.757812 6.707031 7.726562 6.449219 7.871094 6.269531 C 7.929688 6.195312 9.300781 4.519531 11.753906 5.132812 C 11.980469 5.1875 12.113281 5.414062 12.058594 5.636719 C 12.003906 5.859375 11.777344 5.996094 11.554688 5.941406 C 9.628906 5.460938 8.566406 6.734375 8.519531 6.789062 C 8.4375 6.890625 8.316406 6.945312 8.195312 6.945312 Z M 2.6875 7.714844 C 2.234375 7.714844 1.730469 7.636719 1.199219 7.433594 C 0.980469 7.351562 0.875 7.109375 0.957031 6.894531 C 1.035156 6.679688 1.277344 6.574219 1.492188 6.652344 C 3.25 7.324219 4.59375 6.292969 4.648438 6.25 C 4.828125 6.109375 5.089844 6.136719 5.234375 6.316406 C 5.375 6.5 5.347656 6.757812 5.167969 6.902344 C 5.113281 6.945312 4.128906 7.714844 2.6875 7.714844 Z M 3.339844 4.351562 C 2.578125 4.351562 1.269531 4.152344 0.199219 2.964844 C 0.0429688 2.792969 0.0585938 2.53125 0.226562 2.375 C 0.398438 2.222656 0.664062 2.234375 0.816406 2.40625 C 2.078125 3.800781 3.738281 3.496094 3.8125 3.484375 C 4.035156 3.441406 4.253906 3.585938 4.300781 3.8125 C 4.34375 4.035156 4.199219 4.253906 3.972656 4.300781 C 3.945312 4.304688 3.707031 4.351562 3.339844 4.351562 Z M 3.339844 4.351562 "/>
<path style=" stroke:none;fill-rule:nonzero;fill:rgb(19.215686%,21.568627%,23.921569%);fill-opacity:1;" d="M 3.890625 4.308594 C 3.863281 4.308594 3.835938 4.304688 3.808594 4.300781 C 3.582031 4.253906 3.4375 4.035156 3.484375 3.8125 C 3.496094 3.738281 3.800781 2.078125 2.40625 0.816406 C 2.234375 0.664062 2.222656 0.398438 2.375 0.230469 C 2.527344 0.0585938 2.792969 0.0429688 2.964844 0.199219 C 4.71875 1.785156 4.316406 3.886719 4.300781 3.972656 C 4.261719 4.171875 4.085938 4.308594 3.890625 4.308594 Z M 5.535156 12.070312 C 5.351562 12.070312 5.179688 11.945312 5.132812 11.753906 C 4.519531 9.300781 6.199219 7.929688 6.269531 7.871094 C 6.449219 7.726562 6.710938 7.757812 6.855469 7.9375 C 6.996094 8.117188 6.96875 8.378906 6.789062 8.519531 C 6.730469 8.570312 5.460938 9.632812 5.941406 11.554688 C 5.996094 11.777344 5.863281 12.003906 5.636719 12.058594 C 5.605469 12.066406 5.570312 12.070312 5.535156 12.070312 Z M 5.535156 12.070312 "/>
<path style=" stroke:none;fill-rule:nonzero;fill:rgb(19.215686%,21.568627%,23.921569%);fill-opacity:1;" d="M 12.433594 7.984375 C 11.203125 6.753906 9.894531 6.5 8.71875 7.125 C 8.65625 6.34375 8.234375 5.453125 7.671875 4.890625 C 7.050781 4.269531 6.417969 4.199219 5.835938 4.453125 C 6.277344 3.425781 6.085938 2.191406 5.492188 1.597656 C 4.722656 0.828125 3.578125 1.425781 2.5 2.5 C 1.425781 3.578125 0.828125 4.722656 1.597656 5.492188 C 2.191406 6.085938 3.425781 6.273438 4.453125 5.835938 C 4.199219 6.417969 4.269531 7.050781 4.890625 7.671875 C 5.453125 8.234375 6.34375 8.65625 7.125 8.71875 C 6.5 9.894531 6.753906 11.203125 7.984375 12.433594 C 9.546875 13.996094 13.070312 14.738281 13.90625 13.90625 C 14.738281 13.070312 13.996094 9.546875 12.433594 7.984375 Z M 12.433594 7.984375 "/>
</g>
</svg>
