<?xml version="1.0" encoding="UTF-8"?>
<svg xmlns="http://www.w3.org/2000/svg" xmlns:xlink="http://www.w3.org/1999/xlink" width="15pt" height="15pt" viewBox="0 0 15 15" version="1.1">
<g id="surface1">
<path style=" stroke:none;fill-rule:nonzero;fill:rgb(85.098039%,61.960784%,50.980392%);fill-opacity:1;" d="M 11.6875 13.777344 C 13.289062 14.566406 14.296875 12.804688 13.675781 11.796875 C 13.171875 10.980469 12.136719 11.152344 12.320312 10.941406 C 12.609375 10.613281 13.429688 10.46875 14.21875 10.980469 C 14.992188 11.484375 15.207031 13.113281 14.429688 13.925781 C 13.769531 14.621094 11.914062 15.003906 10.882812 13.792969 C 8.917969 11.476562 10.355469 13.117188 11.6875 13.777344 Z M 11.6875 13.777344 "/>
<path style=" stroke:none;fill-rule:nonzero;fill:rgb(75.686275%,41.176471%,30.980392%);fill-opacity:1;" d="M 5.085938 9 C 5.085938 9 5.609375 10.339844 6.890625 11.542969 C 5.570312 12.675781 6.3125 13.578125 7 13.839844 C 6.3125 14.058594 6.46875 14.691406 6.695312 14.691406 L 7.800781 14.691406 C 8.195312 14.691406 8.253906 13.257812 7.886719 11.484375 C 7.515625 9.714844 5.085938 9 5.085938 9 Z M 5.085938 9 "/>
<path style=" stroke:none;fill-rule:nonzero;fill:rgb(75.686275%,41.176471%,30.980392%);fill-opacity:1;" d="M 4.015625 9.058594 C 4.015625 9.058594 4.179688 10.332031 4.128906 11.804688 C 4.101562 12.707031 3.972656 13.441406 3.875 13.832031 C 3.121094 13.832031 3.1875 14.691406 3.347656 14.691406 L 4.558594 14.691406 C 4.839844 14.691406 5.34375 13.261719 5.476562 11.273438 C 5.609375 9.285156 4.015625 9.058594 4.015625 9.058594 Z M 4.015625 9.058594 "/>
<path style=" stroke:none;fill-rule:nonzero;fill:rgb(85.098039%,61.960784%,50.980392%);fill-opacity:1;" d="M 10.601562 9.082031 C 9.601562 7.773438 8.550781 6.832031 7.117188 5.679688 C 6.117188 4.875 6.070312 3.515625 6.070312 3.167969 C 6.070312 1.65625 4.71875 0.894531 3.363281 1.40625 C 3.039062 1.527344 2.777344 1.960938 2.632812 2.1875 C 1.808594 3.453125 0.691406 2.191406 0.582031 3.363281 C 0.453125 4.777344 1.300781 5.25 2.6875 5.371094 C 3.476562 5.4375 3.699219 5.816406 3.871094 7.460938 C 3.933594 8.074219 3.6875 9.046875 4.457031 9.886719 C 4.78125 11.121094 4.667969 12.835938 4.417969 13.953125 C 3.480469 14.152344 3.859375 14.859375 3.859375 14.859375 C 3.859375 14.859375 5.050781 14.84375 5.335938 14.84375 C 5.675781 14.84375 6.230469 12.492188 6.109375 11.0625 C 6.5 11.542969 6.738281 11.796875 7.183594 12.007812 C 6.71875 12.425781 6.734375 13.054688 6.964844 13.433594 C 7.160156 13.75 7.515625 13.796875 7.859375 13.941406 C 7.191406 14.160156 7.40625 14.664062 7.480469 14.824219 C 7.933594 14.808594 10.78125 14.808594 10.894531 14.808594 C 11.359375 14.808594 12.140625 13.765625 12.101562 12.519531 C 12.070312 11.421875 11.445312 10.179688 10.601562 9.082031 Z M 10.601562 9.082031 "/>
<path style=" stroke:none;fill-rule:nonzero;fill:rgb(95.686275%,78.039216%,70.980392%);fill-opacity:1;" d="M 7.546875 11.753906 C 7.488281 11.710938 7.390625 11.65625 7.253906 11.59375 C 6.84375 11.40625 6.390625 10.960938 6.09375 10.6875 C 6.101562 10.832031 6.105469 10.980469 6.109375 11.0625 C 6.5 11.542969 6.738281 11.796875 7.183594 12.007812 C 7.242188 11.929688 7.375 11.839844 7.546875 11.753906 Z M 7.546875 11.753906 "/>
<path style=" stroke:none;fill-rule:nonzero;fill:rgb(75.686275%,41.176471%,30.980392%);fill-opacity:1;" d="M 6.84375 12.113281 C 7.230469 11.523438 8.503906 11.3125 9.378906 11.414062 C 9.378906 11.414062 7.105469 11.449219 6.851562 12.523438 C 6.699219 13.179688 6.496094 12.644531 6.84375 12.113281 Z M 6.84375 12.113281 "/>
<path style=" stroke:none;fill-rule:nonzero;fill:rgb(75.686275%,41.176471%,30.980392%);fill-opacity:1;" d="M 6.882812 13.570312 C 7.085938 13.804688 7.386719 14.128906 7.769531 13.972656 C 8.222656 13.785156 8.703125 13.875 9.320312 13.871094 C 9.320312 13.871094 9.304688 13.765625 8.949219 13.773438 C 8.078125 13.796875 7.039062 13.816406 6.828125 13.113281 C 6.632812 12.464844 6.464844 13.09375 6.882812 13.570312 Z M 6.882812 13.570312 "/>
<path style=" stroke:none;fill-rule:nonzero;fill:rgb(95.686275%,78.039216%,70.980392%);fill-opacity:1;" d="M 4.445312 9.871094 C 4 7.859375 4.492188 5.710938 2.929688 5.40625 C 3.523438 5.539062 3.714844 6 3.871094 7.460938 C 3.933594 8.070312 3.691406 9.03125 4.445312 9.871094 Z M 4.445312 9.871094 "/>
<path style=" stroke:none;fill-rule:nonzero;fill:rgb(15.294118%,16.862745%,16.862745%);fill-opacity:1;" d="M 1.042969 3.46875 C 0.996094 3.785156 0.835938 3.964844 0.675781 3.941406 C 0.359375 3.890625 0.0976562 3.488281 0.0976562 3.167969 C 0.0976562 2.847656 0.355469 2.765625 0.675781 2.78125 C 1.109375 2.800781 1.09375 3.109375 1.042969 3.46875 Z M 1.042969 3.46875 "/>
<path style=" stroke:none;fill-rule:nonzero;fill:rgb(40%,12.941176%,7.45098%);fill-opacity:1;" d="M 6.320312 3.957031 C 6.464844 5.003906 5.835938 5.164062 5.328125 5.164062 C 4.816406 5.164062 4.054688 4.644531 4.183594 3.59375 C 4.238281 3.132812 4.414062 2.679688 4.519531 2.269531 C 4.660156 1.726562 5.019531 1.546875 5.308594 1.699219 C 6 2.0625 6.226562 3.28125 6.320312 3.957031 Z M 6.320312 3.957031 "/>
<path style=" stroke:none;fill-rule:nonzero;fill:rgb(16.078431%,18.431373%,20%);fill-opacity:1;" d="M 3.75 2.78125 C 3.75 2.996094 3.574219 3.167969 3.363281 3.167969 C 3.148438 3.167969 2.976562 2.996094 2.976562 2.78125 C 2.976562 2.566406 3.148438 2.394531 3.363281 2.394531 C 3.574219 2.394531 3.75 2.566406 3.75 2.78125 Z M 3.75 2.78125 "/>
<path style=" stroke:none;fill-rule:nonzero;fill:rgb(75.686275%,41.176471%,30.980392%);fill-opacity:1;" d="M 1.476562 4.375 C 1.476562 4.488281 1.382812 4.578125 1.273438 4.578125 C 1.160156 4.578125 1.070312 4.488281 1.070312 4.375 C 1.070312 4.265625 1.160156 4.171875 1.273438 4.171875 C 1.382812 4.171875 1.476562 4.265625 1.476562 4.375 Z M 1.476562 4.375 "/>
<path style=" stroke:none;fill-rule:nonzero;fill:rgb(75.686275%,41.176471%,30.980392%);fill-opacity:1;" d="M 1.652344 4.085938 C 1.652344 4.148438 1.601562 4.195312 1.539062 4.195312 C 1.476562 4.195312 1.425781 4.148438 1.425781 4.085938 C 1.425781 4.023438 1.476562 3.972656 1.539062 3.972656 C 1.601562 3.972656 1.652344 4.023438 1.652344 4.085938 Z M 1.652344 4.085938 "/>
<path style=" stroke:none;fill-rule:nonzero;fill:rgb(75.686275%,41.176471%,30.980392%);fill-opacity:1;" d="M 1.820312 4.375 C 1.820312 4.4375 1.769531 4.488281 1.707031 4.488281 C 1.644531 4.488281 1.597656 4.4375 1.597656 4.375 C 1.597656 4.3125 1.644531 4.265625 1.707031 4.265625 C 1.769531 4.265625 1.820312 4.3125 1.820312 4.375 Z M 1.820312 4.375 "/>
<path style=" stroke:none;fill-rule:nonzero;fill:rgb(62.745098%,1.568627%,11.764706%);fill-opacity:1;" d="M 7.03125 5.453125 C 6.839844 5.453125 6.71875 5.445312 6.699219 5.445312 C 6.582031 5.4375 6.496094 5.339844 6.503906 5.222656 C 6.511719 5.109375 6.601562 5.023438 6.726562 5.03125 C 6.75 5.03125 9.21875 5.179688 11.097656 3.917969 C 12.945312 2.675781 13.113281 0.40625 13.113281 0.386719 C 13.121094 0.269531 13.222656 0.183594 13.335938 0.191406 C 13.449219 0.199219 13.539062 0.296875 13.53125 0.410156 C 13.523438 0.511719 13.351562 2.902344 11.328125 4.265625 C 9.730469 5.335938 7.796875 5.453125 7.03125 5.453125 Z M 7.03125 5.453125 "/>
<path style=" stroke:none;fill-rule:nonzero;fill:rgb(16.078431%,18.431373%,20%);fill-opacity:1;" d="M 3.578125 5.867188 C 4.042969 5.808594 5.449219 5.785156 6.503906 4.992188 C 6.738281 4.820312 7.058594 5.375 6.890625 5.476562 C 5.554688 6.320312 3.988281 6.425781 3.636719 6.425781 C 3.441406 6.425781 3.332031 5.894531 3.578125 5.867188 Z M 3.839844 7.367188 C 4.191406 7.46875 4.921875 7.484375 5.253906 7.464844 C 5.585938 7.445312 7.820312 7.164062 7.820312 7.164062 L 7.898438 7.765625 C 7.898438 7.765625 5.542969 8.109375 5.167969 8.15625 C 4.796875 8.207031 3.878906 8.492188 3.878906 8.492188 C 3.878906 8.492188 3.769531 8.234375 3.746094 7.953125 C 3.71875 7.671875 3.839844 7.367188 3.839844 7.367188 Z M 8.394531 9.449219 L 8.96875 9.847656 C 8.96875 9.847656 7.90625 11.460938 6.9375 11.96875 L 6.417969 11.453125 C 6.417969 11.453125 6.960938 11.089844 7.433594 10.578125 C 7.929688 10.035156 8.394531 9.449219 8.394531 9.449219 Z M 8.394531 9.449219 "/>
<path style=" stroke:none;fill-rule:nonzero;fill:rgb(62.745098%,1.568627%,11.764706%);fill-opacity:1;" d="M 8.113281 6.175781 C 8.730469 6.765625 9.839844 7.9375 10.59375 8.90625 C 10.753906 9.117188 10.265625 9.527344 10.03125 9.800781 C 9.800781 10.070312 9.015625 10.894531 8.539062 10.402344 C 8.054688 9.898438 7.183594 9.082031 6.542969 8.441406 C 6.09375 7.992188 6.125 7.339844 6.503906 7.046875 C 6.75 6.859375 7.046875 6.484375 7.027344 6.019531 C 7.019531 5.828125 7.089844 5.617188 7.261719 5.613281 C 7.449219 5.609375 7.753906 5.835938 8.113281 6.175781 Z M 8.113281 6.175781 "/>
<path style=" stroke:none;fill-rule:nonzero;fill:rgb(95.686275%,67.058824%,72.941176%);fill-opacity:1;" d="M 6.710938 6.847656 C 7.59375 7.671875 9.03125 9.144531 9.789062 10.054688 C 9.890625 9.957031 9.976562 9.863281 10.03125 9.800781 C 10.09375 9.726562 10.175781 9.644531 10.257812 9.558594 C 9.316406 8.320312 7.816406 6.917969 7.011719 6.230469 C 6.972656 6.476562 6.851562 6.6875 6.710938 6.847656 Z M 6.710938 6.847656 "/>
<path style=" stroke:none;fill-rule:nonzero;fill:rgb(96.078431%,97.254902%,98.039216%);fill-opacity:1;" d="M 6.953125 6.457031 C 6.921875 6.535156 6.882812 6.609375 6.839844 6.675781 C 7.828125 7.542969 9.253906 9.011719 9.984375 9.851562 L 10.03125 9.800781 C 10.066406 9.757812 10.105469 9.714844 10.148438 9.671875 C 9.261719 8.59375 7.597656 7.015625 6.953125 6.457031 Z M 6.953125 6.457031 "/>
</g>
</svg>
