<?xml version="1.0" encoding="UTF-8"?>
<svg xmlns="http://www.w3.org/2000/svg" xmlns:xlink="http://www.w3.org/1999/xlink" width="15pt" height="15pt" viewBox="0 0 15 15" version="1.1">
<g id="surface1">
<path style=" stroke:none;fill-rule:nonzero;fill:rgb(75.686275%,41.176471%,30.980392%);fill-opacity:1;" d="M 13.898438 5.523438 C 14.496094 4.078125 14.757812 0.714844 14.425781 0.519531 C 14.132812 0.347656 12.074219 0.972656 10.949219 1.855469 C 9.953125 1.210938 8.785156 0.832031 7.5 0.832031 C 6.214844 0.832031 5.046875 1.210938 4.050781 1.855469 C 2.925781 0.972656 0.867188 0.347656 0.574219 0.519531 C 0.242188 0.714844 0.503906 4.082031 1.101562 5.523438 C 0.664062 6.589844 0.417969 7.757812 0.417969 8.949219 C 0.417969 13.113281 0.832031 15 7.5 15 C 14.167969 15 14.582031 13.113281 14.582031 8.949219 C 14.582031 7.757812 14.335938 6.589844 13.898438 5.523438 Z M 13.898438 5.523438 "/>
<path style=" stroke:none;fill-rule:nonzero;fill:rgb(40%,12.941176%,7.45098%);fill-opacity:1;" d="M 13.699219 5.066406 C 14.085938 3.710938 14.148438 1.855469 13.917969 1.714844 C 13.746094 1.617188 12.757812 1.980469 11.832031 2.539062 C 12.601562 3.230469 13.234375 4.09375 13.699219 5.066406 Z M 3.167969 2.539062 C 2.242188 1.980469 1.253906 1.617188 1.082031 1.714844 C 0.851562 1.855469 0.914062 3.710938 1.300781 5.066406 C 1.765625 4.09375 2.398438 3.230469 3.167969 2.539062 Z M 3.167969 2.539062 "/>
<path style=" stroke:none;fill-rule:nonzero;fill:rgb(88.235294%,90.980392%,92.941176%);fill-opacity:1;" d="M 3.1875 12.082031 C 3.1875 12.082031 1.671875 10.832031 1.253906 7.292969 C 1.15625 6.464844 1.960938 6.46875 2.085938 7.292969 C 2.503906 10 4.734375 11.667969 5.832031 12.5 C 6.773438 13.210938 3.1875 12.082031 3.1875 12.082031 Z M 11.8125 12.082031 C 11.8125 12.082031 13.328125 10.832031 13.746094 7.292969 C 13.84375 6.464844 13.039062 6.46875 12.914062 7.292969 C 12.496094 10 10.265625 11.667969 9.167969 12.5 C 8.226562 13.210938 11.8125 12.082031 11.8125 12.082031 Z M 11.8125 12.082031 "/>
<path style=" stroke:none;fill-rule:nonzero;fill:rgb(0%,0%,0%);fill-opacity:1;" d="M 12.082031 12.082031 C 12.082031 12.542969 10.492188 13.332031 7.5 13.332031 C 4.507812 13.332031 2.917969 12.542969 2.917969 12.082031 C 2.917969 11.625 4.507812 12.5 7.5 12.5 C 10.492188 12.5 12.082031 11.625 12.082031 12.082031 Z M 12.082031 12.082031 "/>
<path style=" stroke:none;fill-rule:nonzero;fill:rgb(40%,12.941176%,7.45098%);fill-opacity:1;" d="M 11.667969 9.636719 C 11.667969 11.503906 10.375 13.542969 7.5 13.542969 C 4.625 13.542969 3.332031 11.503906 3.332031 9.636719 C 3.332031 7.765625 4.625 7.292969 7.5 7.292969 C 10.375 7.292969 11.667969 7.765625 11.667969 9.636719 Z M 11.667969 9.636719 "/>
<path style=" stroke:none;fill-rule:nonzero;fill:rgb(75.686275%,41.176471%,30.980392%);fill-opacity:1;" d="M 6.25 10.25 C 6.25 11.023438 6.109375 11.25 5.625 11.25 C 5.140625 11.25 5 11.023438 5 10.25 C 5 9.476562 5.140625 9.25 5.625 9.25 C 6.109375 9.25 6.25 9.476562 6.25 10.25 Z M 10 10.25 C 10 11.023438 9.859375 11.25 9.375 11.25 C 8.890625 11.25 8.75 11.023438 8.75 10.25 C 8.75 9.476562 8.890625 9.25 9.375 9.25 C 9.859375 9.25 10 9.476562 10 10.25 Z M 10 10.25 "/>
<path style=" stroke:none;fill-rule:nonzero;fill:rgb(16.078431%,18.431373%,20%);fill-opacity:1;" d="M 5.417969 6.25 C 5.417969 6.710938 5.042969 7.085938 4.582031 7.085938 C 4.125 7.085938 3.75 6.710938 3.75 6.25 C 3.75 5.789062 4.125 5.417969 4.582031 5.417969 C 5.042969 5.417969 5.417969 5.789062 5.417969 6.25 Z M 11.25 6.25 C 11.25 6.710938 10.875 7.085938 10.417969 7.085938 C 9.957031 7.085938 9.582031 6.710938 9.582031 6.25 C 9.582031 5.789062 9.957031 5.417969 10.417969 5.417969 C 10.875 5.417969 11.25 5.789062 11.25 6.25 Z M 11.25 6.25 "/>
</g>
</svg>
