<?xml version="1.0" encoding="UTF-8"?>
<svg xmlns="http://www.w3.org/2000/svg" xmlns:xlink="http://www.w3.org/1999/xlink" width="15pt" height="15pt" viewBox="0 0 15 15" version="1.1">
<g id="surface1">
<path style=" stroke:none;fill-rule:nonzero;fill:rgb(19.215686%,21.568627%,23.921569%);fill-opacity:1;" d="M 14.582031 8.75 L 0.417969 8.75 C 0.1875 8.75 0 8.5625 0 8.332031 C 0 8.101562 0.1875 7.917969 0.417969 7.917969 L 14.582031 7.917969 C 14.8125 7.917969 15 8.101562 15 8.332031 C 15 8.5625 14.8125 8.75 14.582031 8.75 Z M 5.34375 7.917969 L 5.3125 7.914062 C 5.277344 7.914062 1.476562 7.617188 0.839844 4.484375 C 0.796875 4.257812 0.941406 4.039062 1.167969 3.992188 C 1.394531 3.945312 1.613281 4.09375 1.660156 4.320312 C 2.167969 6.839844 5.339844 7.082031 5.371094 7.085938 C 5.601562 7.101562 5.773438 7.300781 5.757812 7.527344 C 5.742188 7.75 5.558594 7.917969 5.34375 7.917969 Z M 1.25 12.917969 C 1.191406 12.917969 1.128906 12.902344 1.074219 12.878906 C 0.867188 12.78125 0.777344 12.53125 0.871094 12.324219 C 2.191406 9.503906 5.472656 9.105469 5.609375 9.089844 C 5.839844 9.066406 6.046875 9.230469 6.070312 9.457031 C 6.097656 9.6875 5.933594 9.894531 5.703125 9.917969 C 5.675781 9.921875 2.746094 10.285156 1.628906 12.675781 C 1.558594 12.828125 1.40625 12.917969 1.25 12.917969 Z M 9.480469 7.917969 C 9.261719 7.917969 9.078125 7.746094 9.066406 7.527344 C 9.050781 7.296875 9.222656 7.097656 9.453125 7.085938 C 9.488281 7.082031 12.835938 6.828125 13.339844 4.320312 C 13.386719 4.09375 13.605469 3.945312 13.832031 3.992188 C 14.058594 4.039062 14.203125 4.257812 14.160156 4.484375 C 13.523438 7.621094 9.671875 7.90625 9.507812 7.914062 Z M 13.75 12.917969 C 13.59375 12.917969 13.441406 12.828125 13.371094 12.675781 C 12.25 10.277344 9.152344 9.921875 9.125 9.917969 C 8.894531 9.894531 8.726562 9.691406 8.753906 9.460938 C 8.777344 9.234375 8.984375 9.066406 9.210938 9.089844 C 9.355469 9.105469 12.808594 9.5 14.128906 12.324219 C 14.226562 12.53125 14.136719 12.78125 13.925781 12.878906 C 13.871094 12.902344 13.808594 12.917969 13.75 12.917969 Z M 13.75 12.917969 "/>
<path style=" stroke:none;fill-rule:nonzero;fill:rgb(19.215686%,21.568627%,23.921569%);fill-opacity:1;" d="M 10.410156 3.234375 C 10.382812 2.140625 9.878906 1.480469 9.121094 1.136719 C 9.152344 1.042969 9.167969 0.941406 9.167969 0.832031 C 9.167969 0.371094 8.886719 0 8.542969 0 C 8.195312 0 7.917969 0.371094 7.917969 0.832031 C 7.917969 0.839844 7.917969 0.84375 7.917969 0.851562 C 7.78125 0.839844 7.640625 0.832031 7.5 0.832031 C 7.359375 0.832031 7.21875 0.839844 7.082031 0.851562 C 7.082031 0.84375 7.082031 0.839844 7.082031 0.832031 C 7.082031 0.371094 6.804688 0 6.457031 0 C 6.113281 0 5.832031 0.371094 5.832031 0.832031 C 5.832031 0.941406 5.851562 1.042969 5.878906 1.136719 C 5.121094 1.480469 4.617188 2.140625 4.589844 3.234375 C 3.324219 3.980469 2.5 5.277344 2.5 7.082031 C 2.5 10.066406 4.738281 14.132812 7.5 14.132812 C 10.261719 14.132812 12.5 10.066406 12.5 7.082031 C 12.5 5.277344 11.675781 3.980469 10.410156 3.234375 Z M 10.410156 3.234375 "/>
<path style=" stroke:none;fill-rule:nonzero;fill:rgb(86.666667%,18.039216%,26.666667%);fill-opacity:1;" d="M 6.667969 14.566406 C 3.984375 14.316406 1.875 11.691406 1.875 8.492188 C 1.875 5.289062 3.984375 4 6.667969 3.75 C 6.804688 3.738281 7.082031 3.730469 7.082031 4.707031 L 7.082031 14.097656 C 7.082031 14.585938 6.804688 14.578125 6.667969 14.566406 Z M 8.332031 14.566406 C 11.015625 14.316406 13.125 11.691406 13.125 8.492188 C 13.125 5.289062 11.015625 4 8.332031 3.75 C 8.195312 3.738281 7.917969 3.730469 7.917969 4.707031 L 7.917969 14.097656 C 7.917969 14.585938 8.195312 14.578125 8.332031 14.566406 Z M 8.332031 14.566406 "/>
<path style=" stroke:none;fill-rule:nonzero;fill:rgb(19.215686%,21.568627%,23.921569%);fill-opacity:1;" d="M 6.25 6.25 C 6.25 6.710938 5.875 7.082031 5.417969 7.082031 C 4.957031 7.082031 4.582031 6.710938 4.582031 6.25 C 4.582031 5.789062 4.957031 5.417969 5.417969 5.417969 C 5.875 5.417969 6.25 5.789062 6.25 6.25 Z M 6.25 6.25 "/>
<path style=" stroke:none;fill-rule:nonzero;fill:rgb(19.215686%,21.568627%,23.921569%);fill-opacity:1;" d="M 5.417969 9.167969 C 5.417969 9.855469 4.855469 10.417969 4.167969 10.417969 C 3.476562 10.417969 2.917969 9.855469 2.917969 9.167969 C 2.917969 8.476562 3.476562 7.917969 4.167969 7.917969 C 4.855469 7.917969 5.417969 8.476562 5.417969 9.167969 Z M 5.417969 9.167969 "/>
<path style=" stroke:none;fill-rule:nonzero;fill:rgb(19.215686%,21.568627%,23.921569%);fill-opacity:1;" d="M 6.25 12.082031 C 6.25 12.542969 5.875 12.917969 5.417969 12.917969 C 4.957031 12.917969 4.582031 12.542969 4.582031 12.082031 C 4.582031 11.625 4.957031 11.25 5.417969 11.25 C 5.875 11.25 6.25 11.625 6.25 12.082031 Z M 6.25 12.082031 "/>
<path style=" stroke:none;fill-rule:nonzero;fill:rgb(19.215686%,21.568627%,23.921569%);fill-opacity:1;" d="M 11.25 6.042969 C 11.25 6.617188 10.785156 7.082031 10.207031 7.082031 C 9.632812 7.082031 9.167969 6.617188 9.167969 6.042969 C 9.167969 5.464844 9.632812 5 10.207031 5 C 10.785156 5 11.25 5.464844 11.25 6.042969 Z M 11.25 6.042969 "/>
<path style=" stroke:none;fill-rule:nonzero;fill:rgb(19.215686%,21.568627%,23.921569%);fill-opacity:1;" d="M 10 8.542969 C 10 8.886719 9.71875 9.167969 9.375 9.167969 C 9.03125 9.167969 8.75 8.886719 8.75 8.542969 C 8.75 8.195312 9.03125 7.917969 9.375 7.917969 C 9.71875 7.917969 10 8.195312 10 8.542969 Z M 10 8.542969 "/>
<path style=" stroke:none;fill-rule:nonzero;fill:rgb(19.215686%,21.568627%,23.921569%);fill-opacity:1;" d="M 12.5 9.582031 C 12.5 10.042969 12.125 10.417969 11.667969 10.417969 C 11.207031 10.417969 10.832031 10.042969 10.832031 9.582031 C 10.832031 9.125 11.207031 8.75 11.667969 8.75 C 12.125 8.75 12.5 9.125 12.5 9.582031 Z M 12.5 9.582031 "/>
<path style=" stroke:none;fill-rule:nonzero;fill:rgb(19.215686%,21.568627%,23.921569%);fill-opacity:1;" d="M 11.25 12.082031 C 11.25 12.773438 10.691406 13.332031 10 13.332031 C 9.308594 13.332031 8.75 12.773438 8.75 12.082031 C 8.75 11.394531 9.308594 10.832031 10 10.832031 C 10.691406 10.832031 11.25 11.394531 11.25 12.082031 Z M 11.25 12.082031 "/>
</g>
</svg>
