<?xml version="1.0" encoding="UTF-8"?>
<svg xmlns="http://www.w3.org/2000/svg" xmlns:xlink="http://www.w3.org/1999/xlink" width="15pt" height="15pt" viewBox="0 0 15 15" version="1.1">
<g id="surface1">
<path style=" stroke:none;fill-rule:nonzero;fill:rgb(80%,83.921569%,86.666667%);fill-opacity:1;" d="M 12.171875 7.320312 C 13.039062 6.769531 14.007812 5.707031 14.007812 3.707031 C 14.007812 3.476562 13.820312 3.289062 13.589844 3.289062 C 13.359375 3.289062 13.171875 3.476562 13.171875 3.707031 C 13.171875 5.300781 12.449219 6.148438 11.78125 6.59375 C 11.121094 6.050781 9.742188 6.058594 8.421875 6.058594 C 6.601562 6.058594 5.128906 6.746094 5.128906 8.171875 C 5.128906 9.597656 6.601562 10 8.421875 10 C 9.3125 10 10.234375 9.730469 10.941406 9.292969 C 11.402344 10.792969 12.648438 13.578125 13.171875 13.578125 C 13.820312 13.578125 12.179688 8.292969 12.179688 7.464844 C 12.179688 7.414062 12.175781 7.363281 12.171875 7.320312 Z M 12.171875 7.320312 "/>
<path style=" stroke:none;fill-rule:nonzero;fill:rgb(80%,83.921569%,86.666667%);fill-opacity:1;" d="M 5.597656 13.578125 C 4.949219 13.578125 4.371094 9.316406 4.371094 8.492188 C 4.371094 7.667969 4.898438 6.996094 5.546875 6.996094 C 6.195312 6.996094 6.722656 7.667969 6.722656 8.492188 C 6.722656 9.316406 6.25 13.578125 5.597656 13.578125 Z M 5.597656 13.578125 "/>
<path style=" stroke:none;fill-rule:nonzero;fill:rgb(60%,66.666667%,70.980392%);fill-opacity:1;" d="M 9.828125 7.9375 C 9.828125 10.011719 8.742188 11.695312 6.667969 11.695312 C 4.589844 11.695312 2.496094 10.003906 2.308594 7.9375 C 2.082031 5.417969 3.523438 4.582031 5.597656 4.582031 C 7.675781 4.582031 9.828125 5.859375 9.828125 7.9375 Z M 7.011719 14.046875 C 7.011719 14.824219 6.378906 14.988281 5.601562 14.988281 C 4.820312 14.988281 4.191406 14.824219 4.191406 14.046875 C 4.191406 13.269531 4.820312 12.636719 5.601562 12.636719 C 6.378906 12.636719 7.011719 13.269531 7.011719 14.046875 Z M 14.582031 14.046875 C 14.582031 14.824219 13.953125 14.988281 13.171875 14.988281 C 12.394531 14.988281 11.761719 14.824219 11.761719 14.046875 C 11.761719 13.269531 12.394531 12.636719 13.171875 12.636719 C 13.953125 12.636719 14.582031 13.269531 14.582031 14.046875 Z M 15 3.707031 C 15 4.484375 14.367188 5.117188 13.589844 5.117188 C 12.8125 5.117188 12.179688 4.484375 12.179688 3.707031 C 12.179688 2.929688 12.8125 2.296875 13.589844 2.296875 C 14.367188 2.296875 15 2.929688 15 3.707031 Z M 15 3.707031 "/>
<path style=" stroke:none;fill-rule:nonzero;fill:rgb(80%,83.921569%,86.666667%);fill-opacity:1;" d="M 6.070312 3.792969 C 6.070312 4.570312 4.910156 5.203125 3.484375 5.203125 C 2.058594 5.203125 0.429688 3.324219 0.429688 2.851562 C 0.429688 2.382812 2.058594 2.382812 3.484375 2.382812 C 4.914062 2.382812 6.070312 3.015625 6.070312 3.792969 Z M 6.070312 3.792969 "/>
<path style=" stroke:none;fill-rule:nonzero;fill:rgb(40%,45.882353%,49.803922%);fill-opacity:1;" d="M 7.015625 1.054688 C 6.996094 0.570312 6.773438 0.0351562 5.128906 0.0351562 C 3.960938 0.0351562 2.308594 1.394531 2.308594 1.914062 C 2.308594 2.433594 3.257812 2.851562 4.425781 2.851562 C 4.558594 2.851562 4.695312 2.839844 4.835938 2.820312 C 4.714844 3.316406 4.660156 3.890625 4.660156 4.5 C 4.660156 6.445312 5.242188 7.082031 6.539062 7.082031 C 7.835938 7.082031 8.417969 6.445312 8.417969 4.5 C 8.421875 2.808594 7.980469 1.398438 7.015625 1.054688 Z M 7.015625 1.054688 "/>
<path style=" stroke:none;fill-rule:nonzero;fill:rgb(16.078431%,18.431373%,20%);fill-opacity:1;" d="M 0.941406 2.554688 C 0.941406 2.8125 0.730469 3.023438 0.46875 3.023438 C 0.210938 3.023438 0 2.8125 0 2.554688 C 0 2.292969 0.210938 2.082031 0.46875 2.082031 C 0.730469 2.082031 0.941406 2.292969 0.941406 2.554688 Z M 0.941406 2.554688 "/>
</g>
</svg>
