<?xml version="1.0" encoding="UTF-8"?>
<svg xmlns="http://www.w3.org/2000/svg" xmlns:xlink="http://www.w3.org/1999/xlink" width="15pt" height="15pt" viewBox="0 0 15 15" version="1.1">
<g id="surface1">
<path style=" stroke:none;fill-rule:nonzero;fill:rgb(60%,66.666667%,70.980392%);fill-opacity:1;" d="M 1.144531 8.054688 L 2.082031 6.667969 L 3.332031 7.917969 L 5 7.082031 L 6.25 8.332031 L 7.917969 5.832031 L 9.582031 7.082031 L 10.832031 6.667969 L 11.667969 7.917969 L 12.917969 6.667969 L 13.75 8.332031 L 12.917969 11.25 L 8.332031 13.332031 L 3.75 12.5 L 1.25 10 Z M 1.144531 8.054688 "/>
<path style=" stroke:none;fill-rule:nonzero;fill:rgb(100%,80%,30.196078%);fill-opacity:1;" d="M 12.480469 6.128906 C 12.492188 6.011719 12.5 5.890625 12.5 5.769531 C 12.5 3.292969 10.699219 1.242188 8.335938 0.84375 C 8.832031 0.734375 9.179688 0.632812 8.75 0.417969 C 8.285156 0.183594 7.820312 0.46875 7.5 0.769531 C 7.179688 0.46875 6.714844 0.183594 6.25 0.417969 C 5.820312 0.632812 6.167969 0.734375 6.664062 0.84375 C 4.300781 1.242188 2.5 3.292969 2.5 5.769531 C 2.5 5.890625 2.507812 6.011719 2.519531 6.128906 C 2.316406 8.878906 -0.109375 12.917969 7.5 12.917969 C 15.109375 12.917969 12.683594 8.878906 12.480469 6.128906 Z M 12.480469 6.128906 "/>
<path style=" stroke:none;fill-rule:nonzero;fill:rgb(95.686275%,56.470588%,4.705882%);fill-opacity:1;" d="M 8.75 5.832031 C 8.75 6.523438 8.191406 6.667969 7.5 6.667969 C 6.808594 6.667969 6.25 6.523438 6.25 5.832031 C 6.25 5.144531 6.808594 4.582031 7.5 4.582031 C 8.191406 4.582031 8.75 5.144531 8.75 5.832031 Z M 8.75 5.832031 "/>
<path style=" stroke:none;fill-rule:nonzero;fill:rgb(40%,12.941176%,7.45098%);fill-opacity:1;" d="M 5.417969 4.792969 C 5.417969 5.136719 5.136719 5.417969 4.792969 5.417969 C 4.445312 5.417969 4.167969 5.136719 4.167969 4.792969 C 4.167969 4.445312 4.445312 4.167969 4.792969 4.167969 C 5.136719 4.167969 5.417969 4.445312 5.417969 4.792969 Z M 5.417969 4.792969 "/>
<path style=" stroke:none;fill-rule:nonzero;fill:rgb(40%,12.941176%,7.45098%);fill-opacity:1;" d="M 10.832031 4.792969 C 10.832031 5.136719 10.554688 5.417969 10.207031 5.417969 C 9.863281 5.417969 9.582031 5.136719 9.582031 4.792969 C 9.582031 4.445312 9.863281 4.167969 10.207031 4.167969 C 10.554688 4.167969 10.832031 4.445312 10.832031 4.792969 Z M 10.832031 4.792969 "/>
<path style=" stroke:none;fill-rule:nonzero;fill:rgb(88.235294%,90.980392%,92.941176%);fill-opacity:1;" d="M 12.917969 10.417969 L 11.667969 10 L 10 12.5 L 8.75 10.417969 L 7.917969 11.25 L 6.25 10.417969 L 5 12.082031 L 3.75 9.582031 L 2.5 10.417969 L 1.128906 7.179688 C 0.9375 7.742188 0.832031 8.339844 0.832031 8.957031 C 0.832031 12.296875 3.816406 15 7.5 15 C 11.183594 15 14.167969 12.296875 14.167969 8.957031 C 14.167969 8.441406 14.085938 7.941406 13.953125 7.460938 Z M 12.917969 10.417969 "/>
</g>
</svg>
