<?xml version="1.0" encoding="UTF-8"?>
<svg xmlns="http://www.w3.org/2000/svg" xmlns:xlink="http://www.w3.org/1999/xlink" width="15pt" height="15pt" viewBox="0 0 15 15" version="1.1">
<g id="surface1">
<path style=" stroke:none;fill-rule:nonzero;fill:rgb(100%,80%,30.196078%);fill-opacity:1;" d="M 5.417969 2.5 C 5.417969 3.878906 4.296875 5 2.917969 5 C 1.535156 5 0.417969 3.878906 0.417969 2.5 C 0.417969 1.121094 1.535156 0 2.917969 0 C 4.296875 0 5.417969 1.121094 5.417969 2.5 Z M 5.417969 2.5 "/>
<path style=" stroke:none;fill-rule:nonzero;fill:rgb(100%,80%,30.196078%);fill-opacity:1;" d="M 10 12.5 C 10 13.878906 8.878906 15 7.5 15 C 6.121094 15 5 13.878906 5 12.5 C 5 11.121094 6.121094 10 7.5 10 C 8.878906 10 10 11.121094 10 12.5 Z M 10 12.5 "/>
<path style=" stroke:none;fill-rule:nonzero;fill:rgb(86.666667%,18.039216%,26.666667%);fill-opacity:1;" d="M 9.167969 12.5 C 9.167969 13.421875 8.421875 14.167969 7.5 14.167969 C 6.578125 14.167969 5.832031 13.421875 5.832031 12.5 C 5.832031 11.578125 6.578125 10.832031 7.5 10.832031 C 8.421875 10.832031 9.167969 11.578125 9.167969 12.5 Z M 9.167969 12.5 "/>
<path style=" stroke:none;fill-rule:nonzero;fill:rgb(100%,80%,30.196078%);fill-opacity:1;" d="M 14.582031 2.5 C 14.582031 3.878906 13.464844 5 12.082031 5 C 10.703125 5 9.582031 3.878906 9.582031 2.5 C 9.582031 1.121094 10.703125 0 12.082031 0 C 13.464844 0 14.582031 1.121094 14.582031 2.5 Z M 14.582031 2.5 "/>
<path style=" stroke:none;fill-rule:nonzero;fill:rgb(90.196078%,66.666667%,66.666667%);fill-opacity:1;" d="M 4.582031 2.5 C 4.582031 3.421875 3.835938 4.167969 2.917969 4.167969 C 1.996094 4.167969 1.25 3.421875 1.25 2.5 C 1.25 1.578125 1.996094 0.832031 2.917969 0.832031 C 3.835938 0.832031 4.582031 1.578125 4.582031 2.5 Z M 4.582031 2.5 "/>
<path style=" stroke:none;fill-rule:nonzero;fill:rgb(90.196078%,66.666667%,66.666667%);fill-opacity:1;" d="M 13.75 2.5 C 13.75 3.421875 13.003906 4.167969 12.082031 4.167969 C 11.164062 4.167969 10.417969 3.421875 10.417969 2.5 C 10.417969 1.578125 11.164062 0.832031 12.082031 0.832031 C 13.003906 0.832031 13.75 1.578125 13.75 2.5 Z M 13.75 2.5 "/>
<path style=" stroke:none;fill-rule:nonzero;fill:rgb(100%,80%,30.196078%);fill-opacity:1;" d="M 14.167969 9.167969 C 14.167969 12.082031 12.117188 12.082031 12.117188 12.082031 L 2.882812 12.082031 C 2.882812 12.082031 0.832031 12.082031 0.832031 9.167969 C 0.832031 9.167969 1.347656 0 7.5 0 C 13.652344 0 14.167969 9.167969 14.167969 9.167969 Z M 14.167969 9.167969 "/>
<path style=" stroke:none;fill-rule:nonzero;fill:rgb(15.294118%,16.862745%,16.862745%);fill-opacity:1;" d="M 4.582031 7.082031 C 4.582031 7.082031 4.582031 6.25 5.417969 6.25 C 6.25 6.25 6.25 7.082031 6.25 7.082031 L 6.25 7.917969 C 6.25 7.917969 6.25 8.75 5.417969 8.75 C 4.582031 8.75 4.582031 7.917969 4.582031 7.917969 Z M 8.75 7.082031 C 8.75 7.082031 8.75 6.25 9.582031 6.25 C 10.417969 6.25 10.417969 7.082031 10.417969 7.082031 L 10.417969 7.917969 C 10.417969 7.917969 10.417969 8.75 9.582031 8.75 C 8.75 8.75 8.75 7.917969 8.75 7.917969 Z M 8.75 7.082031 "/>
<path style=" stroke:none;fill-rule:nonzero;fill:rgb(100%,100%,100%);fill-opacity:1;" d="M 9.867188 9.582031 C 8.863281 9.582031 7.992188 9.980469 7.5 10.574219 C 7.007812 9.980469 6.132812 9.582031 5.132812 9.582031 C 0.832031 9.582031 0.851562 9.757812 0.832031 10.910156 C 0.796875 13.246094 3.597656 13.785156 5.132812 13.75 C 6.132812 13.726562 7.007812 13.339844 7.5 12.75 C 7.992188 13.339844 8.863281 13.726562 9.867188 13.75 C 11.402344 13.785156 14.203125 13.246094 14.167969 10.910156 C 14.148438 9.757812 14.167969 9.582031 9.867188 9.582031 Z M 9.867188 9.582031 "/>
<path style=" stroke:none;fill-rule:nonzero;fill:rgb(15.294118%,16.862745%,16.862745%);fill-opacity:1;" d="M 14.023438 10.515625 C 14.109375 10.632812 14.164062 10.761719 14.167969 10.910156 C 14.179688 11.703125 13.855469 12.285156 13.367188 12.710938 L 11.25 12.917969 Z M 6.25 10.417969 C 5.832031 10.832031 7.082031 12.082031 7.5 12.082031 C 7.917969 12.082031 9.167969 10.832031 8.75 10.417969 C 8.332031 10 6.667969 10 6.25 10.417969 Z M 4.167969 1.25 C 5.277344 2.082031 7.5 2.917969 7.5 2.917969 C 7.5 2.917969 9.722656 2.082031 10.832031 1.25 L 7.5 1.667969 Z M 7.5 0.832031 C 7.5 0.832031 8.1875 0.574219 8.988281 0.203125 C 8.535156 0.0742188 8.039062 0 7.5 0 C 6.960938 0 6.464844 0.0742188 6.011719 0.203125 C 6.8125 0.574219 7.5 0.832031 7.5 0.832031 Z M 4.582031 3.75 C 5.832031 4.582031 7.5 5.417969 7.5 5.417969 C 7.5 5.417969 9.167969 4.582031 10.417969 3.75 L 7.5 4.167969 Z M 13.183594 4.703125 L 11.25 6.25 L 13.753906 6.5625 C 13.613281 5.980469 13.429688 5.34375 13.183594 4.703125 Z M 13.980469 7.683594 L 11.667969 10 L 14.097656 10 C 14.140625 9.753906 14.167969 9.480469 14.167969 9.167969 C 14.167969 9.167969 14.132812 8.570312 13.980469 7.683594 Z M 1.019531 7.683594 C 0.867188 8.570312 0.832031 9.167969 0.832031 9.167969 C 0.832031 9.476562 0.859375 9.753906 0.902344 10 L 3.332031 10 Z M 0.972656 10.515625 C 0.890625 10.632812 0.835938 10.761719 0.832031 10.910156 C 0.820312 11.703125 1.144531 12.285156 1.632812 12.710938 L 3.75 12.917969 Z M 3.75 6.25 L 1.816406 4.703125 C 1.570312 5.34375 1.386719 5.980469 1.246094 6.5625 Z M 3.75 6.25 "/>
</g>
</svg>
