<?xml version="1.0" encoding="UTF-8"?>
<svg xmlns="http://www.w3.org/2000/svg" xmlns:xlink="http://www.w3.org/1999/xlink" width="15pt" height="15pt" viewBox="0 0 15 15" version="1.1">
<g id="surface1">
<path style=" stroke:none;fill-rule:nonzero;fill:rgb(95.686275%,56.470588%,4.705882%);fill-opacity:1;" d="M 3.546875 6.636719 C 3.546875 7.328125 4.371094 7.472656 3.332031 7.472656 C 2.296875 7.472656 0.832031 7.054688 0.832031 6.636719 C 0.832031 6.222656 1.46875 5.386719 2.503906 5.386719 C 3.539062 5.386719 3.546875 5.945312 3.546875 6.636719 Z M 3.546875 6.636719 "/>
<path style=" stroke:none;fill-rule:nonzero;fill:rgb(100%,67.45098%,20%);fill-opacity:1;" d="M 11.617188 13.761719 C 11.574219 13.6875 11.511719 13.636719 11.441406 13.597656 C 10.777344 12.886719 11.25 12.054688 11.25 12.054688 C 11.25 11.824219 11.667969 11.222656 11.25 11.222656 L 10.832031 11.636719 C 10.417969 12.054688 10.417969 13.304688 10.417969 13.304688 L 9.582031 13.304688 C 9.351562 13.304688 9.167969 13.492188 9.167969 13.722656 C 9.167969 13.953125 9.351562 14.136719 9.582031 14.136719 L 10.042969 14.136719 L 9.953125 14.1875 C 9.75 14.296875 9.675781 14.550781 9.785156 14.753906 C 9.894531 14.953125 10.144531 15.03125 10.347656 14.921875 L 11.449219 14.324219 C 11.652344 14.214844 11.726562 13.964844 11.617188 13.761719 Z M 8.699219 13.761719 C 8.660156 13.6875 8.597656 13.636719 8.527344 13.597656 C 7.859375 12.886719 8.332031 12.054688 8.332031 12.054688 C 8.332031 11.824219 8.75 11.222656 8.332031 11.222656 L 7.917969 11.636719 C 7.5 12.054688 7.5 13.304688 7.5 13.304688 L 6.667969 13.304688 C 6.4375 13.304688 6.25 13.492188 6.25 13.722656 C 6.25 13.953125 6.4375 14.136719 6.667969 14.136719 L 7.128906 14.136719 L 7.035156 14.1875 C 6.832031 14.296875 6.757812 14.550781 6.867188 14.753906 C 6.976562 14.953125 7.230469 15.03125 7.433594 14.921875 L 8.53125 14.324219 C 8.734375 14.214844 8.808594 13.964844 8.699219 13.761719 Z M 8.699219 13.761719 "/>
<path style=" stroke:none;fill-rule:nonzero;fill:rgb(100%,80%,30.196078%);fill-opacity:1;" d="M 14.671875 7.210938 C 14.113281 7.210938 11.378906 9.132812 9.859375 4.972656 C 9.859375 4.964844 9.855469 4.960938 9.851562 4.953125 C 9.453125 3.515625 8.265625 2.40625 6.78125 2.125 L 6.765625 2.109375 C 7.660156 1.535156 7.917969 1.960938 7.917969 1.636719 C 7.917969 1.144531 7.046875 1.09375 6.25 1.640625 C 5.453125 1.09375 4.582031 1.144531 4.582031 1.636719 C 4.582031 1.953125 4.828125 1.550781 5.675781 2.074219 C 3.660156 2.257812 2.082031 3.949219 2.082031 6.011719 C 2.082031 7.878906 3.375 9.4375 5.113281 9.855469 C 5.53125 11.59375 7.09375 12.886719 8.957031 12.886719 C 10.605469 12.886719 11.847656 12.1875 12.703125 11.222656 C 12.933594 10.960938 12.75 11.472656 13.054688 11.320312 C 14.820312 10.429688 15.207031 7.210938 14.671875 7.210938 Z M 14.671875 7.210938 "/>
<path style=" stroke:none;fill-rule:nonzero;fill:rgb(40%,12.941176%,7.45098%);fill-opacity:1;" d="M 5.832031 5.597656 C 5.832031 5.941406 5.554688 6.222656 5.207031 6.222656 C 4.863281 6.222656 4.582031 5.941406 4.582031 5.597656 C 4.582031 5.25 4.863281 4.972656 5.207031 4.972656 C 5.554688 4.972656 5.832031 5.25 5.832031 5.597656 Z M 5.832031 5.597656 "/>
<path style=" stroke:none;fill-rule:nonzero;fill:rgb(100%,67.45098%,20%);fill-opacity:1;" d="M 9.085938 6.636719 C 9.085938 6.636719 8.253906 10.804688 13.253906 10.804688 C 13.671875 10.804688 13.253906 11.636719 11.585938 11.636719 C 9.921875 11.636719 7.421875 9.554688 8.671875 7.054688 C 8.933594 6.527344 9.085938 6.636719 9.085938 6.636719 Z M 9.085938 6.636719 "/>
</g>
</svg>
