<?xml version="1.0" encoding="UTF-8"?>
<svg xmlns="http://www.w3.org/2000/svg" xmlns:xlink="http://www.w3.org/1999/xlink" width="15pt" height="15pt" viewBox="0 0 15 15" version="1.1">
<g id="surface1">
<path style=" stroke:none;fill-rule:nonzero;fill:rgb(60%,66.666667%,70.980392%);fill-opacity:1;" d="M 1.667969 3.332031 C 1.667969 3.332031 0 4.167969 0 7.917969 C 0 7.917969 2.5 7.5 2.917969 6.667969 C 2.917969 6.667969 3.75 1.5625 1.667969 3.332031 Z M 13.332031 3.351562 C 13.332031 3.351562 14.996094 4.183594 14.996094 7.933594 C 14.996094 7.933594 12.496094 7.519531 12.082031 6.683594 C 12.082031 6.683594 11.246094 1.582031 13.332031 3.351562 Z M 13.332031 3.351562 "/>
<path style=" stroke:none;fill-rule:nonzero;fill:rgb(100%,90.980392%,71.372549%);fill-opacity:1;" d="M 0.417969 0.417969 C -0.00390625 0.828125 0.832031 3.75 2.5 4.167969 C 4.167969 4.582031 4.167969 2.082031 3.75 2.082031 C 2.082031 2.082031 1.265625 -0.417969 0.417969 0.417969 Z M 14.707031 0.417969 C 15.128906 0.828125 14.289062 3.75 12.625 4.167969 C 10.957031 4.582031 10.957031 2.082031 11.375 2.082031 C 13.039062 2.082031 13.855469 -0.417969 14.707031 0.417969 Z M 14.707031 0.417969 "/>
<path style=" stroke:none;fill-rule:nonzero;fill:rgb(80%,83.921569%,86.666667%);fill-opacity:1;" d="M 9.15625 12.917969 L 5.84375 12.917969 C 3.535156 12.917969 1.667969 11.046875 1.667969 8.738281 L 1.667969 5.011719 C 1.667969 2.703125 3.535156 0.832031 5.84375 0.832031 L 9.15625 0.832031 C 11.464844 0.832031 13.332031 2.703125 13.332031 5.011719 L 13.332031 8.738281 C 13.332031 11.046875 11.464844 12.917969 9.15625 12.917969 Z M 9.15625 12.917969 "/>
<path style=" stroke:none;fill-rule:nonzero;fill:rgb(90.196078%,66.666667%,66.666667%);fill-opacity:1;" d="M 14.582031 11.667969 C 14.582031 13.96875 12.71875 15 10.417969 15 L 4.582031 15 C 2.28125 15 0.417969 13.96875 0.417969 11.667969 C 0.417969 9.367188 2.28125 7.5 4.582031 7.5 L 10.417969 7.5 C 12.71875 7.5 14.582031 9.367188 14.582031 11.667969 Z M 14.582031 11.667969 "/>
<path style=" stroke:none;fill-rule:nonzero;fill:rgb(75.686275%,41.176471%,30.980392%);fill-opacity:1;" d="M 4.582031 10.832031 C 4.582031 10.144531 4.304688 9.582031 3.957031 9.582031 C 3.613281 9.582031 3.332031 10.144531 3.332031 10.832031 C 3.332031 11.523438 3.613281 12.082031 3.957031 12.082031 C 4.304688 12.082031 4.582031 11.523438 4.582031 10.832031 Z M 4.582031 10.832031 "/>
<path style=" stroke:none;fill-rule:nonzero;fill:rgb(75.686275%,41.176471%,30.980392%);fill-opacity:1;" d="M 11.667969 10.832031 C 11.667969 10.144531 11.386719 9.582031 11.042969 9.582031 C 10.695312 9.582031 10.417969 10.144531 10.417969 10.832031 C 10.417969 11.523438 10.695312 12.082031 11.042969 12.082031 C 11.386719 12.082031 11.667969 11.523438 11.667969 10.832031 Z M 11.667969 10.832031 "/>
<path style=" stroke:none;fill-rule:nonzero;fill:rgb(15.294118%,16.862745%,16.862745%);fill-opacity:1;" d="M 4.582031 5 C 4.582031 5 4.582031 4.167969 5.417969 4.167969 C 6.25 4.167969 6.25 5 6.25 5 L 6.25 5.832031 C 6.25 5.832031 6.25 6.667969 5.417969 6.667969 C 4.582031 6.667969 4.582031 5.832031 4.582031 5.832031 Z M 8.75 5 C 8.75 5 8.75 4.167969 9.582031 4.167969 C 10.417969 4.167969 10.417969 5 10.417969 5 L 10.417969 5.832031 C 10.417969 5.832031 10.417969 6.667969 9.582031 6.667969 C 8.75 6.667969 8.75 5.832031 8.75 5.832031 Z M 8.75 5 "/>
</g>
</svg>
