<?xml version="1.0" encoding="UTF-8"?>
<svg xmlns="http://www.w3.org/2000/svg" xmlns:xlink="http://www.w3.org/1999/xlink" width="15pt" height="15pt" viewBox="0 0 15 15" version="1.1">
<g id="surface1">
<path style=" stroke:none;fill-rule:nonzero;fill:rgb(75.686275%,41.176471%,30.980392%);fill-opacity:1;" d="M 13.164062 6.253906 C 12.433594 4.742188 10.691406 2.480469 9.191406 2.480469 C 7.496094 2.480469 5.765625 5.503906 4.996094 6.804688 C 4.921875 6.929688 4.863281 7.046875 4.804688 7.160156 C 3.398438 6.667969 4.582031 4.398438 4.582031 2.800781 C 4.582031 2.402344 4.523438 2.121094 4.398438 1.917969 C 4.601562 1.667969 4.640625 1.359375 4.476562 1.210938 C 4.304688 1.058594 3.980469 1.144531 3.75 1.402344 C 3.714844 1.4375 3.695312 1.480469 3.671875 1.519531 C 3.496094 1.492188 3.296875 1.476562 3.058594 1.476562 C 2.824219 1.476562 1.84375 1.585938 1.296875 1.804688 C -0.00390625 2.324219 0.414062 3.75 0.832031 3.75 L 2.496094 3.75 C 2.914062 3.75 2.8125 4.710938 2.496094 5.71875 C 2.152344 6.824219 1.898438 7.863281 2.082031 8.472656 C 2.417969 9.589844 3.628906 9.96875 4.648438 10.078125 C 5.089844 11.1875 5.28125 12.769531 5.261719 13.398438 C 5.238281 14.230469 6.070312 14.253906 6.09375 13.421875 C 6.109375 12.917969 6.054688 11.890625 6.15625 11.011719 C 6.429688 12.195312 6.542969 13.554688 6.53125 14.0625 C 6.503906 14.894531 7.339844 14.917969 7.363281 14.085938 C 7.382812 13.417969 7.285156 11.433594 7.59375 10.34375 C 7.808594 10.351562 8.03125 10.355469 8.269531 10.359375 C 9.007812 10.394531 9.824219 10.394531 10.5625 10.351562 C 11 11.015625 11.394531 11.597656 11.390625 11.78125 C 11.378906 12.199219 10.925781 13.4375 10.914062 13.851562 C 10.902344 14.269531 11.304688 14.699219 11.746094 13.878906 C 12.015625 13.375 12.296875 12.453125 12.386719 11.617188 C 12.457031 11.769531 12.5 11.890625 12.496094 11.96875 C 12.484375 12.386719 12.09375 13.609375 12.082031 14.023438 C 12.070312 14.441406 12.472656 14.867188 12.914062 14.046875 C 13.355469 13.226562 13.746094 12.007812 13.355469 11.160156 C 13.023438 10.445312 13.535156 9.425781 13.699219 7.863281 C 14.148438 8.558594 14.164062 9.261719 14.164062 9.304688 C 14.164062 9.535156 14.351562 9.722656 14.582031 9.722656 C 14.8125 9.722656 14.996094 9.535156 14.996094 9.304688 C 14.996094 9.214844 14.96875 7.285156 13.164062 6.253906 Z M 13.164062 6.253906 "/>
<path style=" stroke:none;fill-rule:nonzero;fill:rgb(16.078431%,18.431373%,20%);fill-opacity:1;" d="M 3.449219 2.320312 C 3.441406 2.550781 3.25 2.730469 3.019531 2.726562 C 2.792969 2.71875 2.609375 2.527344 2.617188 2.296875 C 2.625 2.066406 2.816406 1.886719 3.046875 1.890625 C 3.277344 1.898438 3.457031 2.089844 3.449219 2.320312 Z M 3.449219 2.320312 "/>
</g>
</svg>
