<?xml version="1.0" encoding="UTF-8"?>
<svg xmlns="http://www.w3.org/2000/svg" xmlns:xlink="http://www.w3.org/1999/xlink" width="15pt" height="15pt" viewBox="0 0 15 15" version="1.1">
<g id="surface1">
<path style=" stroke:none;fill-rule:nonzero;fill:rgb(100%,67.45098%,20%);fill-opacity:1;" d="M 11.695312 13.066406 C 10.765625 13.066406 8.167969 13.390625 7.5 13.828125 C 6.832031 13.390625 4.234375 13.066406 3.304688 13.066406 C 2.234375 13.066406 2.820312 13.496094 2.820312 14.03125 C 2.820312 14.566406 2.234375 15 3.304688 15 C 4.234375 15 6.832031 14.671875 7.5 14.238281 C 8.167969 14.671875 10.765625 15 11.695312 15 C 12.765625 15 12.179688 14.566406 12.179688 14.03125 C 12.179688 13.496094 12.765625 13.066406 11.695312 13.066406 Z M 11.695312 13.066406 "/>
<path style=" stroke:none;fill-rule:nonzero;fill:rgb(16.078431%,18.431373%,20%);fill-opacity:1;" d="M 13.222656 6.609375 C 12.699219 5.570312 11.90625 4.53125 11.160156 3.808594 C 10.140625 1.546875 8.648438 0 7.5 0 C 6.351562 0 4.859375 1.546875 3.839844 3.808594 C 3.09375 4.53125 2.300781 5.570312 1.777344 6.609375 C 0.761719 8.644531 0.480469 11.371094 0.914062 11.589844 C 1.277344 11.769531 1.882812 10.941406 2.667969 9.46875 C 2.777344 14 5.601562 14.03125 7.5 14.03125 C 9.398438 14.03125 12.222656 14.003906 12.332031 9.472656 C 13.117188 10.941406 13.722656 11.769531 14.085938 11.589844 C 14.519531 11.371094 14.238281 8.640625 13.222656 6.609375 Z M 13.222656 6.609375 "/>
<path style=" stroke:none;fill-rule:nonzero;fill:rgb(96.078431%,97.254902%,98.039216%);fill-opacity:1;" d="M 9.03125 2.894531 C 8.675781 3.144531 8.125 3.386719 7.5 3.386719 C 6.875 3.386719 6.324219 3.144531 5.96875 2.894531 C 4.59375 3.785156 3.628906 5.835938 3.628906 8.226562 C 3.628906 11.433594 5.363281 14.03125 7.5 14.03125 C 9.636719 14.03125 11.371094 11.433594 11.371094 8.226562 C 11.371094 5.835938 10.40625 3.785156 9.03125 2.894531 Z M 9.03125 2.894531 "/>
<path style=" stroke:none;fill-rule:nonzero;fill:rgb(100%,67.45098%,20%);fill-opacity:1;" d="M 11.855469 2.5 L 9.433594 2.5 C 7.832031 2.5 7.5 2.175781 7.5 1.773438 C 7.5 1.371094 7.347656 1.046875 8.953125 1.046875 C 11.371094 1.046875 12.339844 2.5 11.855469 2.5 Z M 11.855469 2.5 "/>
<path style=" stroke:none;fill-rule:nonzero;fill:rgb(96.078431%,97.254902%,98.039216%);fill-opacity:1;" d="M 7.015625 1.453125 C 7.015625 1.71875 6.800781 1.933594 6.53125 1.933594 C 6.265625 1.933594 6.046875 1.71875 6.046875 1.453125 C 6.046875 1.183594 6.265625 0.96875 6.53125 0.96875 C 6.800781 0.96875 7.015625 1.183594 7.015625 1.453125 Z M 7.015625 1.453125 "/>
</g>
</svg>
