<?xml version="1.0" encoding="UTF-8"?>
<svg xmlns="http://www.w3.org/2000/svg" xmlns:xlink="http://www.w3.org/1999/xlink" width="15pt" height="15pt" viewBox="0 0 15 15" version="1.1">
<g id="surface1">
<path style=" stroke:none;fill-rule:nonzero;fill:rgb(46.666667%,69.803922%,33.333333%);fill-opacity:1;" d="M 4.101562 8.300781 C 4.101562 12.402344 6.839844 12.332031 6.25 12.5 C 3.332031 13.332031 2.582031 9.324219 2.308594 9.324219 C 1.316406 9.324219 0 9.148438 0 8.300781 C 0 7.453125 1.023438 6.25 2.5625 6.25 C 3.554688 6.25 4.101562 7.453125 4.101562 8.300781 Z M 15 11.933594 C 15 12.390625 13.535156 11.625 12.917969 11.933594 C 12.082031 12.347656 12.082031 11.558594 12.082031 11.097656 C 12.082031 10.640625 12.644531 10.683594 13.332031 10.683594 C 14.023438 10.683594 15 11.472656 15 11.933594 Z M 15 11.933594 "/>
<path style=" stroke:none;fill-rule:nonzero;fill:rgb(46.666667%,69.803922%,33.333333%);fill-opacity:1;" d="M 6.964844 13.808594 C 6.964844 14.960938 6.433594 15 5.773438 15 C 5.117188 15 4.582031 14.960938 4.582031 13.808594 C 4.582031 13.605469 4.617188 13.378906 4.679688 13.148438 C 4.96875 12.070312 5.828125 10.832031 6.371094 10.832031 C 7.027344 10.832031 6.964844 12.660156 6.964844 13.808594 Z M 10.535156 13.808594 C 10.535156 14.960938 11.066406 15 11.726562 15 C 12.382812 15 12.917969 14.960938 12.917969 13.808594 C 12.917969 13.605469 12.882812 13.378906 12.820312 13.148438 C 12.53125 12.070312 11.671875 10.832031 11.128906 10.832031 C 10.472656 10.832031 10.535156 12.660156 10.535156 13.808594 Z M 10.535156 13.808594 "/>
<path style=" stroke:none;fill-rule:nonzero;fill:rgb(24.313725%,44.705882%,11.372549%);fill-opacity:1;" d="M 13.332031 11.25 C 13.332031 12.917969 11.1875 12.917969 8.542969 12.917969 C 5.894531 12.917969 3.75 12.917969 3.75 11.25 C 3.75 8.488281 5.894531 6.25 8.542969 6.25 C 11.1875 6.25 13.332031 8.488281 13.332031 11.25 Z M 13.332031 11.25 "/>
<path style=" stroke:none;fill-rule:nonzero;fill:rgb(16.078431%,18.431373%,20%);fill-opacity:1;" d="M 2.5 7.5 C 2.5 7.730469 2.3125 7.917969 2.082031 7.917969 C 1.851562 7.917969 1.667969 7.730469 1.667969 7.5 C 1.667969 7.269531 1.851562 7.082031 2.082031 7.082031 C 2.3125 7.082031 2.5 7.269531 2.5 7.5 Z M 2.5 7.5 "/>
<path style=" stroke:none;fill-rule:nonzero;fill:rgb(36.078431%,56.862745%,23.137255%);fill-opacity:1;" d="M 9.859375 10.457031 C 9.859375 11.953125 9.269531 12.082031 8.542969 12.082031 C 7.8125 12.082031 7.222656 11.953125 7.222656 10.457031 C 7.222656 8.960938 7.8125 7.082031 8.542969 7.082031 C 9.269531 7.082031 9.859375 8.960938 9.859375 10.457031 Z M 12.5 10 C 12.863281 11.449219 12.171875 11.667969 11.445312 11.667969 C 10.714844 11.667969 10.390625 11.953125 10.390625 10.457031 C 10.390625 8.960938 9.925781 7.75 10.652344 7.75 C 11.382812 7.75 12.082031 8.332031 12.5 10 Z M 6.695312 10.457031 C 6.695312 11.953125 6.367188 11.667969 5.640625 11.667969 C 4.910156 11.667969 4.21875 11.449219 4.582031 10 C 5 8.332031 5.9375 7.75 6.667969 7.75 C 7.394531 7.75 6.695312 8.960938 6.695312 10.457031 Z M 6.695312 10.457031 "/>
</g>
</svg>
