<?xml version="1.0" encoding="UTF-8"?>
<svg xmlns="http://www.w3.org/2000/svg" xmlns:xlink="http://www.w3.org/1999/xlink" width="15pt" height="15pt" viewBox="0 0 15 15" version="1.1">
<g id="surface1">
<path style=" stroke:none;fill-rule:nonzero;fill:rgb(60%,66.666667%,70.980392%);fill-opacity:1;" d="M 7.082031 3.957031 C 7.082031 5.914062 5.496094 7.5 3.542969 7.5 C 1.585938 7.5 0 5.914062 0 3.957031 C 0 2.003906 1.585938 0.417969 3.542969 0.417969 C 5.496094 0.417969 7.082031 2.003906 7.082031 3.957031 Z M 7.082031 3.957031 "/>
<path style=" stroke:none;fill-rule:nonzero;fill:rgb(60%,66.666667%,70.980392%);fill-opacity:1;" d="M 15 3.957031 C 15 5.914062 13.414062 7.5 11.457031 7.5 C 9.503906 7.5 7.917969 5.914062 7.917969 3.957031 C 7.917969 2.003906 9.503906 0.417969 11.457031 0.417969 C 13.414062 0.417969 15 2.003906 15 3.957031 Z M 15 3.957031 "/>
<path style=" stroke:none;fill-rule:nonzero;fill:rgb(95.686275%,67.058824%,72.941176%);fill-opacity:1;" d="M 5.753906 4.179688 C 5.753906 5.523438 4.664062 6.613281 3.320312 6.613281 C 1.976562 6.613281 0.886719 5.523438 0.886719 4.179688 C 0.886719 2.835938 1.976562 1.746094 3.320312 1.746094 C 4.664062 1.746094 5.753906 2.835938 5.753906 4.179688 Z M 14.113281 4.179688 C 14.113281 5.523438 13.023438 6.613281 11.679688 6.613281 C 10.335938 6.613281 9.246094 5.523438 9.246094 4.179688 C 9.246094 2.835938 10.335938 1.746094 11.679688 1.746094 C 13.023438 1.746094 14.113281 2.835938 14.113281 4.179688 Z M 14.113281 4.179688 "/>
<path style=" stroke:none;fill-rule:nonzero;fill:rgb(60%,66.666667%,70.980392%);fill-opacity:1;" d="M 12.5 7.5 C 12.5 10.492188 9.167969 13.75 7.5 13.75 C 5.832031 13.75 2.5 10.492188 2.5 7.5 C 2.5 4.507812 5.417969 3.75 7.5 3.75 C 9.582031 3.75 12.5 4.507812 12.5 7.5 Z M 12.5 7.5 "/>
<path style=" stroke:none;fill-rule:nonzero;fill:rgb(95.686275%,67.058824%,72.941176%);fill-opacity:1;" d="M 8.710938 12.351562 C 8.710938 13.023438 7.871094 13.75 7.5 13.75 C 7.128906 13.75 6.289062 13.023438 6.289062 12.351562 C 6.289062 11.683594 7.035156 11.539062 7.5 11.539062 C 7.964844 11.539062 8.710938 11.683594 8.710938 12.351562 Z M 8.710938 12.351562 "/>
<path style=" stroke:none;fill-rule:nonzero;fill:rgb(40%,45.882353%,49.803922%);fill-opacity:1;" d="M 14.582031 13.398438 C 14.511719 13.398438 14.4375 13.378906 14.367188 13.339844 C 12.441406 12.183594 9.667969 12.558594 9.640625 12.5625 C 9.410156 12.59375 9.203125 12.4375 9.171875 12.207031 C 9.136719 11.980469 9.296875 11.769531 9.523438 11.738281 C 9.648438 11.71875 12.613281 11.316406 14.796875 12.625 C 14.996094 12.746094 15.058594 13 14.941406 13.199219 C 14.863281 13.328125 14.722656 13.398438 14.582031 13.398438 Z M 14.582031 13.398438 "/>
<path style=" stroke:none;fill-rule:nonzero;fill:rgb(40%,45.882353%,49.803922%);fill-opacity:1;" d="M 13.332031 14.648438 C 13.207031 14.648438 13.082031 14.59375 13 14.484375 C 11.863281 12.96875 9.539062 12.566406 9.515625 12.5625 C 9.289062 12.523438 9.132812 12.308594 9.171875 12.082031 C 9.210938 11.855469 9.425781 11.699219 9.652344 11.738281 C 9.761719 11.757812 12.332031 12.203125 13.667969 13.984375 C 13.804688 14.167969 13.765625 14.429688 13.582031 14.566406 C 13.507812 14.621094 13.421875 14.648438 13.332031 14.648438 Z M 0.417969 13.398438 C 0.277344 13.398438 0.136719 13.328125 0.0585938 13.199219 C -0.0585938 13 0.00390625 12.746094 0.203125 12.625 C 2.386719 11.316406 5.351562 11.71875 5.476562 11.738281 C 5.703125 11.769531 5.863281 11.980469 5.828125 12.207031 C 5.796875 12.4375 5.585938 12.597656 5.359375 12.5625 C 5.332031 12.558594 2.558594 12.183594 0.632812 13.339844 C 0.5625 13.378906 0.488281 13.398438 0.417969 13.398438 Z M 0.417969 13.398438 "/>
<path style=" stroke:none;fill-rule:nonzero;fill:rgb(40%,45.882353%,49.803922%);fill-opacity:1;" d="M 1.667969 14.648438 C 1.578125 14.648438 1.492188 14.621094 1.417969 14.566406 C 1.234375 14.429688 1.195312 14.167969 1.332031 13.984375 C 2.667969 12.203125 5.238281 11.757812 5.347656 11.738281 C 5.578125 11.699219 5.789062 11.855469 5.828125 12.082031 C 5.863281 12.308594 5.710938 12.523438 5.484375 12.5625 C 5.460938 12.566406 3.132812 12.972656 2 14.484375 C 1.917969 14.59375 1.792969 14.648438 1.667969 14.648438 Z M 1.667969 14.648438 "/>
<path style=" stroke:none;fill-rule:nonzero;fill:rgb(15.294118%,16.862745%,16.862745%);fill-opacity:1;" d="M 5 8.75 C 5 8.75 5 7.917969 5.832031 7.917969 C 6.667969 7.917969 6.667969 8.75 6.667969 8.75 L 6.667969 9.582031 C 6.667969 9.582031 6.667969 10.417969 5.832031 10.417969 C 5 10.417969 5 9.582031 5 9.582031 Z M 8.332031 8.75 C 8.332031 8.75 8.332031 7.917969 9.167969 7.917969 C 10 7.917969 10 8.75 10 8.75 L 10 9.582031 C 10 9.582031 10 10.417969 9.167969 10.417969 C 8.332031 10.417969 8.332031 9.582031 8.332031 9.582031 Z M 8.332031 8.75 "/>
</g>
</svg>
