<?xml version="1.0" encoding="UTF-8"?>
<svg xmlns="http://www.w3.org/2000/svg" xmlns:xlink="http://www.w3.org/1999/xlink" width="15pt" height="15pt" viewBox="0 0 15 15" version="1.1">
<g id="surface1">
<path style=" stroke:none;fill-rule:nonzero;fill:rgb(60%,66.666667%,70.980392%);fill-opacity:1;" d="M 15 5.640625 C 15 3.695312 13.695312 2.917969 12.082031 2.917969 C 11.40625 2.917969 10.714844 3.0625 10.136719 3.34375 C 9.382812 2.832031 8.503906 2.527344 7.5 2.527344 C 6.496094 2.527344 5.617188 2.832031 4.863281 3.34375 C 4.285156 3.0625 3.59375 2.917969 2.917969 2.917969 C 1.304688 2.917969 0 3.695312 0 5.640625 C 0 7.242188 0.886719 8.3125 2.097656 8.640625 C 2.082031 8.863281 2.070312 9.089844 2.070312 9.3125 C 2.070312 11.699219 3.953125 12.511719 5.644531 12.78125 C 6.105469 13.121094 6.761719 13.332031 7.5 13.332031 C 8.238281 13.332031 8.894531 13.121094 9.355469 12.78125 C 11.046875 12.511719 12.929688 11.699219 12.929688 9.3125 C 12.929688 9.089844 12.917969 8.863281 12.902344 8.640625 C 14.113281 8.3125 15 7.242188 15 5.640625 Z M 15 5.640625 "/>
<path style=" stroke:none;fill-rule:nonzero;fill:rgb(40%,45.882353%,49.803922%);fill-opacity:1;" d="M 3.980469 4.105469 C 3.847656 4.09375 3.714844 4.082031 3.582031 4.082031 C 2.292969 4.082031 1.25 4.707031 1.25 6.261719 C 1.25 7.160156 1.597656 7.847656 2.140625 8.269531 C 2.339844 6.6875 2.976562 5.179688 3.980469 4.105469 Z M 11.417969 4.082031 C 11.285156 4.082031 11.152344 4.09375 11.019531 4.105469 C 12.023438 5.179688 12.660156 6.6875 12.859375 8.269531 C 13.402344 7.847656 13.75 7.160156 13.75 6.261719 C 13.75 4.707031 12.707031 4.082031 11.417969 4.082031 Z M 11.417969 4.082031 "/>
<path style=" stroke:none;fill-rule:nonzero;fill:rgb(16.078431%,18.431373%,20%);fill-opacity:1;" d="M 9.054688 10.335938 C 9.054688 11.730469 8.332031 12.082031 7.5 12.082031 C 6.667969 12.082031 5.945312 11.730469 5.945312 10.335938 C 5.945312 8.941406 6.667969 7.8125 7.5 7.8125 C 8.332031 7.8125 9.054688 8.941406 9.054688 10.335938 Z M 9.054688 10.335938 "/>
<path style=" stroke:none;fill-rule:nonzero;fill:rgb(16.078431%,18.431373%,20%);fill-opacity:1;" d="M 5.832031 8.28125 C 5.832031 8.625 5.554688 8.90625 5.207031 8.90625 C 4.863281 8.90625 4.582031 8.625 4.582031 8.28125 C 4.582031 7.9375 4.863281 7.65625 5.207031 7.65625 C 5.554688 7.65625 5.832031 7.9375 5.832031 8.28125 Z M 5.832031 8.28125 "/>
<path style=" stroke:none;fill-rule:nonzero;fill:rgb(16.078431%,18.431373%,20%);fill-opacity:1;" d="M 10.417969 8.28125 C 10.417969 8.625 10.136719 8.90625 9.792969 8.90625 C 9.445312 8.90625 9.167969 8.625 9.167969 8.28125 C 9.167969 7.9375 9.445312 7.65625 9.792969 7.65625 C 10.136719 7.65625 10.417969 7.9375 10.417969 8.28125 Z M 10.417969 8.28125 "/>
</g>
</svg>
