<?xml version="1.0" encoding="UTF-8"?>
<svg xmlns="http://www.w3.org/2000/svg" xmlns:xlink="http://www.w3.org/1999/xlink" width="15pt" height="15pt" viewBox="0 0 15 15" version="1.1">
<g id="surface1">
<path style=" stroke:none;fill-rule:nonzero;fill:rgb(75.686275%,41.176471%,30.980392%);fill-opacity:1;" d="M 9.703125 9.699219 C 9.703125 9.699219 10.273438 10.378906 10.839844 13.882812 C 10.898438 14.253906 10.921875 14.625 10.929688 15 L 15 15 L 15 3.101562 C 13.171875 1.65625 10.667969 1.359375 7.632812 2.371094 C 7.632812 2.371094 5.378906 1.121094 5.074219 0.8125 C 4.773438 0.511719 4.300781 0.164062 4.558594 0.957031 C 4.710938 1.421875 4.875 1.949219 5.539062 2.984375 C 4.109375 3.832031 3.660156 4.933594 1.976562 8.542969 C 0.6875 11.300781 0.0351562 12.195312 0.390625 13.25 C 0.859375 14.640625 2.605469 15.578125 4.074219 14.507812 C 4.875 13.925781 5.011719 12.878906 6.667969 11.914062 C 8.191406 11.886719 9.703125 11.246094 9.703125 9.699219 Z M 9.703125 9.699219 "/>
<path style=" stroke:none;fill-rule:nonzero;fill:rgb(16.078431%,18.431373%,20%);fill-opacity:1;" d="M 15 2.503906 C 11.527344 0.125 5.980469 0.613281 6.628906 2.578125 C 10.628906 1.804688 13.238281 3.222656 15 5.566406 Z M 15 2.503906 "/>
<path style=" stroke:none;fill-rule:nonzero;fill:rgb(16.078431%,18.431373%,20%);fill-opacity:1;" d="M 8.191406 2.402344 C 6.992188 2.5 5.210938 3.066406 4.320312 4.054688 C 4.320312 4.054688 4.265625 1.910156 5.804688 1.714844 C 8.378906 1.390625 8.226562 1.867188 8.226562 1.867188 Z M 8.191406 2.402344 "/>
<path style=" stroke:none;fill-rule:nonzero;fill:rgb(75.686275%,41.176471%,30.980392%);fill-opacity:1;" d="M 6.816406 0.441406 C 7.046875 0.921875 8.484375 1.1875 8.921875 2.953125 C 9.359375 4.71875 7.617188 4.183594 7.105469 3.308594 C 6.539062 2.335938 6.34375 1.574219 6.328125 0.941406 C 6.320312 0.609375 6.34375 -0.53125 6.816406 0.441406 Z M 6.816406 0.441406 "/>
<path style=" stroke:none;fill-rule:nonzero;fill:rgb(40%,12.941176%,7.45098%);fill-opacity:1;" d="M 6.914062 1.183594 C 7.375 1.585938 7.933594 2.210938 8.019531 2.832031 C 8.101562 3.449219 7.550781 3.242188 7.296875 2.675781 C 7.039062 2.109375 6.980469 1.515625 6.824219 1.328125 C 6.664062 1.140625 6.914062 1.183594 6.914062 1.183594 Z M 6.914062 1.183594 "/>
<path style=" stroke:none;fill-rule:nonzero;fill:rgb(16.078431%,18.431373%,20%);fill-opacity:1;" d="M 7.058594 6.46875 C 7.058594 6.753906 6.828125 6.988281 6.539062 6.988281 C 6.253906 6.988281 6.019531 6.753906 6.019531 6.46875 C 6.019531 6.183594 6.253906 5.949219 6.539062 5.949219 C 6.828125 5.949219 7.058594 6.183594 7.058594 6.46875 Z M 7.058594 6.46875 "/>
<path style=" stroke:none;fill-rule:nonzero;fill:rgb(40%,12.941176%,7.45098%);fill-opacity:1;" d="M 1.757812 12.464844 C 1.757812 12.832031 1.539062 13.128906 1.265625 13.128906 C 0.992188 13.128906 0.769531 12.832031 0.769531 12.464844 C 0.769531 12.097656 0.992188 11.800781 1.265625 11.800781 C 1.539062 11.800781 1.757812 12.097656 1.757812 12.464844 Z M 1.757812 12.464844 "/>
<path style=" stroke:none;fill-rule:nonzero;fill:rgb(85.098039%,61.960784%,50.980392%);fill-opacity:1;" d="M 4.3125 4.136719 C 4.300781 4.128906 4.28125 4.128906 4.269531 4.125 C 3.625 4.972656 3.050781 6.25 1.980469 8.542969 C 1.414062 9.753906 0.972656 10.605469 0.683594 11.265625 C 1.359375 11.363281 2.050781 10.667969 2.324219 9.90625 C 2.605469 9.128906 3.664062 7.550781 4.378906 6.664062 C 5.09375 5.777344 5.027344 4.519531 4.3125 4.136719 Z M 4.3125 4.136719 "/>
</g>
</svg>
