<?xml version="1.0" encoding="UTF-8"?>
<svg xmlns="http://www.w3.org/2000/svg" xmlns:xlink="http://www.w3.org/1999/xlink" width="15pt" height="15pt" viewBox="0 0 15 15" version="1.1">
<g id="surface1">
<path style=" stroke:none;fill-rule:nonzero;fill:rgb(23.137255%,53.333333%,76.470588%);fill-opacity:1;" d="M 13.332031 5 C 14.21875 4.117188 15.417969 10.964844 12.082031 13.75 C 10.933594 14.710938 9.582031 14.988281 8.75 14.988281 C 7.761719 14.988281 4.570312 15 3.332031 15 C 0.339844 15 0 12.949219 0 10.417969 C 0 7.886719 0.339844 5.832031 3.332031 5.832031 C 5.832031 5.832031 7.5 6.667969 8.75 7.5 C 10.824219 8.878906 11.246094 9.105469 12.082031 8.332031 C 13.421875 7.097656 12.5 5.832031 13.332031 5 Z M 13.332031 5 "/>
<path style=" stroke:none;fill-rule:nonzero;fill:rgb(33.333333%,67.45098%,93.333333%);fill-opacity:1;" d="M 14.167969 9.582031 C 13.972656 11.136719 13.316406 12.71875 12.082031 13.75 C 10.933594 14.710938 9.582031 14.988281 8.75 14.988281 C 7.761719 14.988281 4.570312 15 3.332031 15 C 1.652344 15 0.808594 14.351562 0.390625 13.335938 C 0.0664062 12.542969 1.667969 13.75 6.25 13.75 C 12.082031 13.75 13.332031 11.667969 14.167969 9.582031 Z M 14.167969 9.582031 "/>
<path style=" stroke:none;fill-rule:nonzero;fill:rgb(23.137255%,53.333333%,76.470588%);fill-opacity:1;" d="M 13.332031 5.832031 C 15.050781 5.832031 15 3.75 15 2.917969 C 15 2.082031 14.167969 3.332031 12.917969 3.75 C 11.667969 4.167969 10 2.917969 10.417969 3.75 C 10.832031 4.582031 11.667969 5.832031 13.332031 5.832031 Z M 13.332031 5.832031 "/>
<path style=" stroke:none;fill-rule:nonzero;fill:rgb(33.333333%,67.45098%,93.333333%);fill-opacity:1;" d="M 4.167969 2.917969 C 4.167969 3.835938 3.792969 5.417969 3.332031 5.417969 C 2.875 5.417969 2.5 3.835938 2.5 2.917969 C 2.5 1.996094 2.875 2.082031 3.332031 2.082031 C 3.792969 2.082031 4.167969 1.996094 4.167969 2.917969 Z M 4.167969 2.917969 "/>
<path style=" stroke:none;fill-rule:nonzero;fill:rgb(33.333333%,67.45098%,93.333333%);fill-opacity:1;" d="M 3.332031 2.082031 C 3.332031 0.832031 0.832031 1.25 0.832031 2.082031 C 0.832031 2.917969 2.082031 2.5 2.5 3.332031 C 2.917969 4.167969 3.332031 2.082031 3.332031 2.082031 Z M 3.332031 2.082031 C 3.332031 0.832031 5.832031 1.25 5.832031 2.082031 C 5.832031 2.917969 4.582031 2.5 4.167969 3.332031 C 3.75 4.167969 3.332031 2.082031 3.332031 2.082031 Z M 3.332031 2.082031 "/>
<path style=" stroke:none;fill-rule:nonzero;fill:rgb(16.078431%,18.431373%,20%);fill-opacity:1;" d="M 3.332031 10.625 C 3.332031 10.96875 3.054688 11.25 2.707031 11.25 C 2.363281 11.25 2.082031 10.96875 2.082031 10.625 C 2.082031 10.28125 2.363281 10 2.707031 10 C 3.054688 10 3.332031 10.28125 3.332031 10.625 Z M 3.332031 10.625 "/>
</g>
</svg>
