<?xml version="1.0" encoding="UTF-8"?>
<svg xmlns="http://www.w3.org/2000/svg" xmlns:xlink="http://www.w3.org/1999/xlink" width="15pt" height="15pt" viewBox="0 0 15 15" version="1.1">
<g id="surface1">
<path style=" stroke:none;fill-rule:nonzero;fill:rgb(100%,80%,30.196078%);fill-opacity:1;" d="M 13.476562 5.832031 C 13.476562 5.832031 14.914062 2.160156 14.167969 0.832031 C 13.914062 0.386719 10.832031 1.667969 9.699219 3.101562 C 9.699219 3.101562 8.621094 2.742188 7.5 2.742188 C 6.378906 2.742188 5.300781 3.101562 5.300781 3.101562 C 4.167969 1.667969 1.085938 0.386719 0.832031 0.832031 C 0.0859375 2.160156 1.523438 5.832031 1.523438 5.832031 C 1.148438 6.550781 1.007812 7.644531 0.875 8.816406 C 0.726562 10.101562 1.019531 11.128906 1.148438 11.351562 C 1.292969 11.609375 2.03125 12.4375 3.015625 13.148438 C 4.511719 14.222656 6.753906 14.582031 7.5 14.582031 C 8.246094 14.582031 10.488281 14.222656 11.984375 13.148438 C 12.96875 12.4375 13.707031 11.609375 13.851562 11.351562 C 13.980469 11.128906 14.273438 10.101562 14.125 8.816406 C 13.992188 7.644531 13.851562 6.550781 13.476562 5.832031 Z M 13.476562 5.832031 "/>
<path style=" stroke:none;fill-rule:nonzero;fill:rgb(94.509804%,56.078431%,14.901961%);fill-opacity:1;" d="M 0.984375 1.238281 C 1.066406 0.988281 3.210938 2.144531 3.699219 3.488281 C 3.699219 3.488281 2.113281 4.582031 1.8125 5.417969 C 1.8125 5.417969 0.566406 2.488281 0.984375 1.238281 Z M 0.984375 1.238281 "/>
<path style=" stroke:none;fill-rule:nonzero;fill:rgb(100%,80%,30.196078%);fill-opacity:1;" d="M 2.492188 3.027344 C 2.492188 2.4375 4.765625 4.164062 4.347656 4.582031 C 3.933594 4.996094 3.824219 4.878906 3.410156 5.296875 C 2.992188 5.714844 2.492188 3.441406 2.492188 3.027344 Z M 2.492188 3.027344 "/>
<path style=" stroke:none;fill-rule:nonzero;fill:rgb(94.509804%,56.078431%,14.901961%);fill-opacity:1;" d="M 14.015625 1.238281 C 13.933594 0.988281 11.789062 2.144531 11.300781 3.488281 C 11.300781 3.488281 12.886719 4.582031 13.1875 5.417969 C 13.1875 5.417969 14.433594 2.488281 14.015625 1.238281 Z M 14.015625 1.238281 "/>
<path style=" stroke:none;fill-rule:nonzero;fill:rgb(100%,80%,30.196078%);fill-opacity:1;" d="M 12.507812 3.027344 C 12.507812 2.4375 10.234375 4.164062 10.652344 4.582031 C 11.066406 4.996094 11.175781 4.878906 11.589844 5.296875 C 12.007812 5.714844 12.507812 3.441406 12.507812 3.027344 Z M 12.507812 3.027344 "/>
<path style=" stroke:none;fill-rule:nonzero;fill:rgb(16.078431%,18.431373%,20%);fill-opacity:1;" d="M 5.832031 8.332031 C 5.832031 8.792969 5.460938 9.167969 5 9.167969 C 4.539062 9.167969 4.167969 8.792969 4.167969 8.332031 C 4.167969 7.875 4.539062 7.5 5 7.5 C 5.460938 7.5 5.832031 7.875 5.832031 8.332031 Z M 10.832031 8.332031 C 10.832031 8.792969 10.460938 9.167969 10 9.167969 C 9.539062 9.167969 9.167969 8.792969 9.167969 8.332031 C 9.167969 7.875 9.539062 7.5 10 7.5 C 10.460938 7.5 10.832031 7.875 10.832031 8.332031 Z M 10.832031 8.332031 "/>
<path style=" stroke:none;fill-rule:nonzero;fill:rgb(99.607843%,90.588235%,72.156863%);fill-opacity:1;" d="M 0.917969 12.691406 C 0.855469 12.691406 0.792969 12.664062 0.753906 12.613281 C 0.683594 12.519531 0.699219 12.390625 0.789062 12.320312 C 0.855469 12.265625 2.464844 11.019531 5.222656 11.234375 C 5.339844 11.242188 5.425781 11.34375 5.417969 11.457031 C 5.40625 11.570312 5.308594 11.664062 5.191406 11.648438 C 2.59375 11.453125 1.0625 12.632812 1.046875 12.648438 C 1.007812 12.675781 0.960938 12.691406 0.917969 12.691406 Z M 4.613281 10.746094 C 4.589844 10.746094 4.570312 10.746094 4.550781 10.738281 C 2.554688 10.113281 0.910156 10.59375 0.894531 10.597656 C 0.78125 10.632812 0.667969 10.570312 0.632812 10.460938 C 0.601562 10.347656 0.664062 10.234375 0.773438 10.199219 C 0.84375 10.179688 2.558594 9.679688 4.671875 10.339844 C 4.785156 10.375 4.84375 10.492188 4.808594 10.601562 C 4.78125 10.691406 4.699219 10.746094 4.613281 10.746094 Z M 14.082031 12.691406 C 14.144531 12.691406 14.207031 12.664062 14.246094 12.613281 C 14.316406 12.519531 14.300781 12.390625 14.210938 12.320312 C 14.144531 12.265625 12.535156 11.019531 9.777344 11.234375 C 9.660156 11.242188 9.574219 11.34375 9.582031 11.457031 C 9.59375 11.570312 9.691406 11.664062 9.808594 11.648438 C 12.40625 11.453125 13.9375 12.632812 13.953125 12.648438 C 13.992188 12.675781 14.039062 12.691406 14.082031 12.691406 Z M 10.386719 10.746094 C 10.410156 10.746094 10.429688 10.746094 10.449219 10.738281 C 12.445312 10.113281 14.089844 10.59375 14.105469 10.597656 C 14.21875 10.632812 14.332031 10.570312 14.367188 10.460938 C 14.398438 10.347656 14.335938 10.234375 14.226562 10.199219 C 14.15625 10.179688 12.441406 9.679688 10.328125 10.339844 C 10.214844 10.375 10.15625 10.492188 10.191406 10.601562 C 10.21875 10.691406 10.300781 10.746094 10.386719 10.746094 Z M 10.386719 10.746094 "/>
<path style=" stroke:none;fill-rule:nonzero;fill:rgb(40.392157%,45.882353%,49.803922%);fill-opacity:1;" d="M 10.308594 12.875 C 10.265625 12.765625 10.148438 12.710938 10.039062 12.75 C 9.808594 12.835938 9.589844 12.882812 9.390625 12.882812 C 8.910156 12.882812 8.738281 12.753906 8.542969 12.605469 C 8.355469 12.464844 8.144531 12.308594 7.714844 12.273438 L 7.714844 11.296875 C 7.714844 11.183594 7.621094 11.089844 7.503906 11.089844 C 7.390625 11.089844 7.296875 11.183594 7.296875 11.296875 L 7.296875 12.285156 C 6.957031 12.335938 6.734375 12.46875 6.539062 12.597656 C 6.304688 12.75 6.097656 12.882812 5.671875 12.882812 C 5.472656 12.882812 5.253906 12.839844 5.023438 12.75 C 4.914062 12.710938 4.792969 12.765625 4.753906 12.875 C 4.714844 12.980469 4.769531 13.101562 4.875 13.140625 C 5.152344 13.246094 5.421875 13.296875 5.671875 13.296875 C 6.222656 13.296875 6.511719 13.109375 6.765625 12.945312 C 6.984375 12.804688 7.175781 12.683594 7.535156 12.679688 C 7.949219 12.683594 8.101562 12.796875 8.292969 12.941406 C 8.515625 13.109375 8.769531 13.296875 9.390625 13.296875 C 9.640625 13.296875 9.90625 13.246094 10.183594 13.140625 C 10.292969 13.101562 10.347656 12.980469 10.308594 12.875 Z M 10.308594 12.875 "/>
<path style=" stroke:none;fill-rule:nonzero;fill:rgb(90.588235%,35.294118%,43.921569%);fill-opacity:1;" d="M 8.082031 10.335938 L 6.917969 10.335938 C 6.648438 10.335938 6.433594 10.554688 6.433594 10.820312 C 6.433594 11.085938 6.648438 11.304688 6.917969 11.304688 L 7.015625 11.304688 L 7.015625 11.449219 C 7.015625 11.714844 7.234375 11.933594 7.5 11.933594 C 7.765625 11.933594 7.984375 11.714844 7.984375 11.449219 L 7.984375 11.304688 L 8.082031 11.304688 C 8.347656 11.304688 8.566406 11.085938 8.566406 10.820312 C 8.566406 10.554688 8.347656 10.335938 8.082031 10.335938 Z M 8.082031 10.335938 "/>
<path style=" stroke:none;fill-rule:nonzero;fill:rgb(94.509804%,56.078431%,14.901961%);fill-opacity:1;" d="M 7.507812 7.148438 C 7.394531 7.148438 7.300781 7.054688 7.300781 6.9375 L 7.300781 3.488281 C 7.300781 3.371094 7.394531 3.277344 7.507812 3.277344 C 7.625 3.277344 7.71875 3.371094 7.71875 3.488281 L 7.71875 6.9375 C 7.71875 7.054688 7.625 7.148438 7.507812 7.148438 Z M 8.75 6.488281 C 8.636719 6.488281 8.542969 6.394531 8.542969 6.28125 C 8.542969 5.078125 9.054688 4.109375 9.078125 4.066406 C 9.132812 3.964844 9.257812 3.929688 9.359375 3.984375 C 9.460938 4.039062 9.5 4.164062 9.445312 4.265625 C 9.4375 4.273438 8.957031 5.1875 8.957031 6.28125 C 8.957031 6.394531 8.863281 6.488281 8.75 6.488281 Z M 6.25 6.488281 C 6.136719 6.488281 6.042969 6.394531 6.042969 6.28125 C 6.042969 5.1875 5.558594 4.273438 5.554688 4.265625 C 5.5 4.164062 5.539062 4.039062 5.640625 3.984375 C 5.742188 3.929688 5.867188 3.96875 5.921875 4.066406 C 5.945312 4.109375 6.457031 5.078125 6.457031 6.28125 C 6.457031 6.394531 6.363281 6.488281 6.25 6.488281 Z M 6.25 6.488281 "/>
</g>
</svg>
