<?xml version="1.0" encoding="UTF-8"?>
<svg xmlns="http://www.w3.org/2000/svg" xmlns:xlink="http://www.w3.org/1999/xlink" width="15pt" height="15pt" viewBox="0 0 15 15" version="1.1">
<g id="surface1">
<path style=" stroke:none;fill-rule:nonzero;fill:rgb(40%,12.941176%,7.45098%);fill-opacity:1;" d="M 6.960938 6.714844 C 6.960938 8.582031 5.898438 7.5625 4.582031 7.5625 C 3.269531 7.5625 2.207031 8.582031 2.207031 6.714844 C 2.207031 5.496094 3.269531 4.167969 4.582031 4.167969 C 5.894531 4.167969 6.960938 5.496094 6.960938 6.714844 Z M 2.113281 3.347656 C 2.277344 3.90625 2.117188 4.441406 1.753906 4.550781 C 1.390625 4.65625 0.964844 4.292969 0.800781 3.734375 C 0.640625 3.179688 0.800781 2.640625 1.160156 2.535156 C 1.523438 2.425781 1.949219 2.792969 2.113281 3.347656 Z M 8.363281 3.742188 C 8.195312 4.296875 7.761719 4.65625 7.402344 4.546875 C 7.039062 4.433594 6.882812 3.894531 7.050781 3.339844 C 7.222656 2.785156 7.652344 2.425781 8.015625 2.535156 C 8.378906 2.648438 8.535156 3.1875 8.363281 3.742188 Z M 4.152344 1.71875 C 4.304688 2.507812 4.0625 3.21875 3.609375 3.308594 C 3.15625 3.394531 2.667969 2.824219 2.515625 2.03125 C 2.363281 1.242188 2.605469 0.53125 3.058594 0.441406 C 3.507812 0.355469 4 0.925781 4.152344 1.71875 Z M 6.648438 2.042969 C 6.488281 2.832031 5.992188 3.394531 5.542969 3.304688 C 5.089844 3.210938 4.855469 2.496094 5.015625 1.707031 C 5.179688 0.917969 5.675781 0.355469 6.125 0.445312 C 6.578125 0.539062 6.8125 1.253906 6.648438 2.042969 Z M 12.792969 13.378906 C 12.792969 15.25 11.730469 14.230469 10.417969 14.230469 C 9.105469 14.230469 8.039062 15.25 8.039062 13.378906 C 8.039062 12.160156 9.105469 10.832031 10.417969 10.832031 C 11.730469 10.832031 12.792969 12.160156 12.792969 13.378906 Z M 7.949219 10.015625 C 8.113281 10.570312 7.949219 11.109375 7.589844 11.214844 C 7.226562 11.324219 6.800781 10.957031 6.636719 10.402344 C 6.472656 9.84375 6.632812 9.308594 6.996094 9.199219 C 7.359375 9.09375 7.785156 9.457031 7.949219 10.015625 Z M 14.199219 10.410156 C 14.027344 10.964844 13.597656 11.324219 13.234375 11.214844 C 12.871094 11.101562 12.714844 10.5625 12.886719 10.007812 C 13.054688 9.453125 13.484375 9.09375 13.847656 9.203125 C 14.210938 9.3125 14.367188 9.855469 14.199219 10.410156 Z M 9.984375 8.382812 C 10.136719 9.175781 9.894531 9.886719 9.441406 9.972656 C 8.992188 10.058594 8.5 9.488281 8.347656 8.699219 C 8.195312 7.90625 8.4375 7.195312 8.890625 7.109375 C 9.34375 7.023438 9.832031 7.59375 9.984375 8.382812 Z M 12.484375 8.707031 C 12.320312 9.496094 11.824219 10.0625 11.375 9.96875 C 10.925781 9.878906 10.6875 9.164062 10.851562 8.375 C 11.011719 7.585938 11.507812 7.019531 11.957031 7.113281 C 12.410156 7.203125 12.644531 7.917969 12.484375 8.707031 Z M 12.484375 8.707031 "/>
</g>
</svg>
