<?xml version="1.0" encoding="UTF-8"?>
<svg xmlns="http://www.w3.org/2000/svg" xmlns:xlink="http://www.w3.org/1999/xlink" width="15pt" height="15pt" viewBox="0 0 15 15" version="1.1">
<g id="surface1">
<path style=" stroke:none;fill-rule:nonzero;fill:rgb(90.196078%,66.666667%,66.666667%);fill-opacity:1;" d="M 14.582031 7.5 C 14.582031 10.03125 12.53125 12.082031 10 12.082031 L 5 12.082031 C 2.46875 12.082031 0.417969 10.03125 0.417969 7.5 C 0.417969 4.96875 2.46875 2.917969 5 2.917969 L 10 2.917969 C 12.53125 2.917969 14.582031 4.96875 14.582031 7.5 Z M 14.582031 7.5 "/>
<path style=" stroke:none;fill-rule:nonzero;fill:rgb(40%,12.941176%,7.45098%);fill-opacity:1;" d="M 5.832031 7.5 C 5.832031 6.121094 5.085938 5 4.167969 5 C 3.246094 5 2.5 6.121094 2.5 7.5 C 2.5 8.878906 3.246094 10 4.167969 10 C 5.085938 10 5.832031 8.878906 5.832031 7.5 Z M 5.832031 7.5 "/>
<path style=" stroke:none;fill-rule:nonzero;fill:rgb(40%,12.941176%,7.45098%);fill-opacity:1;" d="M 12.5 7.5 C 12.5 6.121094 11.753906 5 10.832031 5 C 9.914062 5 9.167969 6.121094 9.167969 7.5 C 9.167969 8.878906 9.914062 10 10.832031 10 C 11.753906 10 12.5 8.878906 12.5 7.5 Z M 12.5 7.5 "/>
</g>
</svg>
