<?xml version="1.0" encoding="UTF-8"?>
<svg xmlns="http://www.w3.org/2000/svg" xmlns:xlink="http://www.w3.org/1999/xlink" width="15pt" height="15pt" viewBox="0 0 15 15" version="1.1">
<g id="surface1">
<path style=" stroke:none;fill-rule:nonzero;fill:rgb(60%,66.666667%,70.980392%);fill-opacity:1;" d="M 14.082031 0.00390625 C 13.886719 -0.0703125 10.75 1.65625 9.929688 3.808594 C 9.441406 5.078125 9.226562 6.332031 9.242188 7.1875 C 8.628906 6.859375 8.023438 6.667969 7.5 6.667969 C 6.976562 6.667969 6.371094 6.859375 5.757812 7.1875 C 5.773438 6.332031 5.558594 5.078125 5.070312 3.808594 C 4.25 1.65625 1.113281 -0.0703125 0.917969 0.00390625 C 0.726562 0.0742188 2.695312 6.6875 3.84375 8.683594 C 2.835938 9.753906 2.082031 11.109375 2.082031 12.429688 C 2.082031 13.777344 2.765625 14.570312 3.75 14.902344 C 4.804688 15.261719 5.832031 14.511719 7.5 14.511719 C 9.167969 14.511719 10.195312 15.261719 11.25 14.902344 C 12.234375 14.570312 12.917969 13.777344 12.917969 12.429688 C 12.917969 11.109375 12.164062 9.753906 11.15625 8.683594 C 12.304688 6.6875 14.273438 0.0742188 14.082031 0.00390625 Z M 14.082031 0.00390625 "/>
<path style=" stroke:none;fill-rule:nonzero;fill:rgb(95.686275%,67.058824%,72.941176%);fill-opacity:1;" d="M 5.289062 7.46875 C 5.214844 6.824219 5.003906 5.988281 4.679688 5.140625 C 4.042969 3.46875 2.3125 2.121094 2.160156 2.179688 C 2.027344 2.230469 3.253906 6.40625 4.152344 8.371094 C 4.515625 8.027344 4.898438 7.722656 5.289062 7.46875 Z M 10.847656 8.371094 C 11.746094 6.40625 12.972656 2.230469 12.839844 2.179688 C 12.6875 2.121094 10.957031 3.46875 10.316406 5.140625 C 9.996094 5.988281 9.785156 6.824219 9.710938 7.46875 C 10.101562 7.722656 10.484375 8.027344 10.847656 8.371094 Z M 10.847656 8.371094 "/>
<path style=" stroke:none;fill-rule:nonzero;fill:rgb(80%,83.921569%,86.666667%);fill-opacity:1;" d="M 10.417969 12.5 C 10.417969 13.652344 9.140625 14.582031 7.570312 14.582031 C 5.996094 14.582031 4.722656 13.652344 4.722656 12.5 C 4.722656 11.347656 5.996094 10.417969 7.570312 10.417969 C 9.140625 10.417969 10.417969 11.347656 10.417969 12.5 Z M 10.417969 12.5 "/>
<path style=" stroke:none;fill-rule:nonzero;fill:rgb(100%,100%,100%);fill-opacity:1;" d="M 8.75 12.742188 C 8.75 13.890625 8.652344 13.992188 7.5 13.992188 C 6.347656 13.992188 6.25 13.890625 6.25 12.742188 C 6.25 12.324219 8.75 12.324219 8.75 12.742188 Z M 8.75 12.742188 "/>
<path style=" stroke:none;fill-rule:nonzero;fill:rgb(16.078431%,18.431373%,20%);fill-opacity:1;" d="M 5.832031 10.136719 C 5.832031 10.480469 5.554688 10.761719 5.207031 10.761719 C 4.863281 10.761719 4.582031 10.480469 4.582031 10.136719 C 4.582031 9.792969 4.863281 9.511719 5.207031 9.511719 C 5.554688 9.511719 5.832031 9.792969 5.832031 10.136719 Z M 5.832031 10.136719 "/>
<path style=" stroke:none;fill-rule:nonzero;fill:rgb(16.078431%,18.431373%,20%);fill-opacity:1;" d="M 10.417969 10.136719 C 10.417969 10.480469 10.136719 10.761719 9.792969 10.761719 C 9.445312 10.761719 9.167969 10.480469 9.167969 10.136719 C 9.167969 9.792969 9.445312 9.511719 9.792969 9.511719 C 10.136719 9.511719 10.417969 9.792969 10.417969 10.136719 Z M 10.417969 10.136719 "/>
<path style=" stroke:none;fill-rule:nonzero;fill:rgb(95.686275%,67.058824%,72.941176%);fill-opacity:1;" d="M 8.75 10.761719 C 8.75 11.453125 7.917969 12.011719 7.5 12.011719 C 7.082031 12.011719 6.25 11.453125 6.25 10.761719 C 6.25 10.070312 8.75 10.070312 8.75 10.761719 Z M 8.75 10.761719 "/>
</g>
</svg>
