<?xml version="1.0" encoding="UTF-8"?>
<svg xmlns="http://www.w3.org/2000/svg" xmlns:xlink="http://www.w3.org/1999/xlink" width="15pt" height="15pt" viewBox="0 0 15 15" version="1.1">
<g id="surface1">
<path style=" stroke:none;fill-rule:nonzero;fill:rgb(86.666667%,18.039216%,26.666667%);fill-opacity:1;" d="M 6.25 11.25 L 6.25 13.75 C 6.25 13.75 6.25 15 7.5 15 C 8.75 15 8.75 13.75 8.75 13.75 L 8.75 11.25 Z M 6.25 11.25 "/>
<path style=" stroke:none;fill-rule:nonzero;fill:rgb(74.509804%,9.803922%,19.215686%);fill-opacity:1;" d="M 6.25 13.75 L 6.25 13.765625 C 6.683594 13.75 7.089844 13.652344 7.347656 13.230469 C 7.417969 13.113281 7.582031 13.113281 7.652344 13.230469 C 7.910156 13.652344 8.316406 13.75 8.75 13.765625 L 8.75 11.25 L 6.25 11.25 Z M 6.25 13.75 "/>
<path style=" stroke:none;fill-rule:nonzero;fill:rgb(85.098039%,61.960784%,50.980392%);fill-opacity:1;" d="M 13.3125 9.007812 C 13.3125 11.621094 11.230469 11.621094 11.230469 11.621094 L 3.730469 11.621094 C 3.730469 11.621094 1.648438 11.621094 1.648438 9.007812 C 1.648438 6.207031 3.730469 1.25 7.480469 1.25 C 11.230469 1.25 13.3125 6.621094 13.3125 9.007812 Z M 13.3125 9.007812 "/>
<path style=" stroke:none;fill-rule:nonzero;fill:rgb(95.686275%,78.039216%,70.980392%);fill-opacity:1;" d="M 7.5 8.332031 C 4.582031 8.332031 3.332031 9.804688 3.332031 10.996094 C 3.332031 12.261719 4.359375 13.289062 5.625 13.289062 C 6.292969 13.289062 6.890625 13.011719 7.3125 12.136719 C 7.390625 11.976562 7.609375 11.976562 7.6875 12.136719 C 8.105469 13.011719 8.707031 13.289062 9.375 13.289062 C 10.640625 13.289062 11.667969 12.261719 11.667969 10.996094 C 11.667969 9.804688 10.417969 8.332031 7.5 8.332031 Z M 7.5 8.332031 "/>
<path style=" stroke:none;fill-rule:nonzero;fill:rgb(16.078431%,18.431373%,20%);fill-opacity:1;" d="M 6.25 9.539062 C 5.832031 9.957031 7.082031 11.207031 7.5 11.207031 C 7.917969 11.207031 9.167969 9.957031 8.75 9.539062 C 8.332031 9.121094 6.667969 9.121094 6.25 9.539062 Z M 5.417969 7.917969 C 4.957031 7.917969 4.582031 7.542969 4.582031 7.082031 L 4.582031 6.25 C 4.582031 5.792969 4.957031 5.417969 5.417969 5.417969 C 5.875 5.417969 6.25 5.792969 6.25 6.25 L 6.25 7.082031 C 6.25 7.542969 5.875 7.917969 5.417969 7.917969 Z M 9.582031 7.917969 C 9.125 7.917969 8.75 7.542969 8.75 7.082031 L 8.75 6.25 C 8.75 5.792969 9.125 5.417969 9.582031 5.417969 C 10.042969 5.417969 10.417969 5.792969 10.417969 6.25 L 10.417969 7.082031 C 10.417969 7.542969 10.042969 7.917969 9.582031 7.917969 Z M 9.582031 7.917969 "/>
<path style=" stroke:none;fill-rule:nonzero;fill:rgb(40%,12.941176%,7.45098%);fill-opacity:1;" d="M 6.25 1.503906 C 5.808594 0.917969 4.867188 0.367188 1.179688 1.75 C -0.546875 2.398438 0.296875 7.417969 1.640625 7.742188 C 2.101562 7.742188 3.484375 7.742188 3.484375 4.054688 C 3.484375 3.964844 3.484375 3.878906 3.480469 3.796875 C 4.3125 2.625 5.207031 2.023438 6.25 1.503906 Z M 13.820312 1.75 C 10.132812 0.367188 9.191406 0.917969 8.75 1.503906 C 9.792969 2.023438 10.6875 2.625 11.519531 3.796875 C 11.515625 3.878906 11.515625 3.964844 11.515625 4.054688 C 11.515625 7.746094 12.898438 7.746094 13.359375 7.746094 C 14.703125 7.417969 15.546875 2.398438 13.820312 1.75 Z M 13.820312 1.75 "/>
<path style=" stroke:none;fill-rule:nonzero;fill:rgb(85.098039%,61.960784%,50.980392%);fill-opacity:1;" d="M 10 10.625 C 10 10.738281 9.90625 10.832031 9.792969 10.832031 C 9.675781 10.832031 9.582031 10.738281 9.582031 10.625 C 9.582031 10.511719 9.675781 10.417969 9.792969 10.417969 C 9.90625 10.417969 10 10.511719 10 10.625 Z M 10 10.625 "/>
<path style=" stroke:none;fill-rule:nonzero;fill:rgb(85.098039%,61.960784%,50.980392%);fill-opacity:1;" d="M 5 10.625 C 5 10.738281 4.90625 10.832031 4.792969 10.832031 C 4.675781 10.832031 4.582031 10.738281 4.582031 10.625 C 4.582031 10.511719 4.675781 10.417969 4.792969 10.417969 C 4.90625 10.417969 5 10.511719 5 10.625 Z M 5 10.625 "/>
<path style=" stroke:none;fill-rule:nonzero;fill:rgb(85.098039%,61.960784%,50.980392%);fill-opacity:1;" d="M 10.832031 11.457031 C 10.832031 11.574219 10.738281 11.667969 10.625 11.667969 C 10.511719 11.667969 10.417969 11.574219 10.417969 11.457031 C 10.417969 11.34375 10.511719 11.25 10.625 11.25 C 10.738281 11.25 10.832031 11.34375 10.832031 11.457031 Z M 10.832031 11.457031 "/>
<path style=" stroke:none;fill-rule:nonzero;fill:rgb(85.098039%,61.960784%,50.980392%);fill-opacity:1;" d="M 4.582031 11.457031 C 4.582031 11.574219 4.488281 11.667969 4.375 11.667969 C 4.261719 11.667969 4.167969 11.574219 4.167969 11.457031 C 4.167969 11.34375 4.261719 11.25 4.375 11.25 C 4.488281 11.25 4.582031 11.34375 4.582031 11.457031 Z M 4.582031 11.457031 "/>
<path style=" stroke:none;fill-rule:nonzero;fill:rgb(85.098039%,61.960784%,50.980392%);fill-opacity:1;" d="M 10 11.667969 C 10 11.898438 9.8125 12.082031 9.582031 12.082031 C 9.351562 12.082031 9.167969 11.898438 9.167969 11.667969 C 9.167969 11.4375 9.351562 11.25 9.582031 11.25 C 9.8125 11.25 10 11.4375 10 11.667969 Z M 10 11.667969 "/>
<path style=" stroke:none;fill-rule:nonzero;fill:rgb(85.098039%,61.960784%,50.980392%);fill-opacity:1;" d="M 5.832031 11.667969 C 5.832031 11.898438 5.648438 12.082031 5.417969 12.082031 C 5.1875 12.082031 5 11.898438 5 11.667969 C 5 11.4375 5.1875 11.25 5.417969 11.25 C 5.648438 11.25 5.832031 11.4375 5.832031 11.667969 Z M 5.832031 11.667969 "/>
<path style=" stroke:none;fill-rule:nonzero;fill:rgb(21.960784%,5.882353%,3.529412%);fill-opacity:1;" d="M 4.117188 3.011719 C 4.011719 2.734375 3.855469 2.429688 3.628906 2.207031 C 3.464844 2.042969 3.203125 2.042969 3.039062 2.207031 C 2.875 2.367188 2.875 2.632812 3.039062 2.792969 C 3.277344 3.03125 3.484375 3.601562 3.484375 3.773438 C 3.542969 3.605469 3.832031 3.292969 4.117188 3.011719 Z M 10.875 3.011719 C 10.984375 2.734375 11.140625 2.429688 11.363281 2.207031 C 11.527344 2.042969 11.792969 2.042969 11.953125 2.207031 C 12.117188 2.367188 12.117188 2.632812 11.953125 2.792969 C 11.714844 3.03125 11.511719 3.601562 11.507812 3.773438 C 11.449219 3.605469 11.160156 3.292969 10.875 3.011719 Z M 10.875 3.011719 "/>
</g>
</svg>
