<?xml version="1.0" encoding="UTF-8"?>
<svg xmlns="http://www.w3.org/2000/svg" xmlns:xlink="http://www.w3.org/1999/xlink" width="15pt" height="15pt" viewBox="0 0 15 15" version="1.1">
<g id="surface1">
<path style=" stroke:none;fill-rule:nonzero;fill:rgb(75.686275%,41.176471%,30.980392%);fill-opacity:1;" d="M 5.417969 2.5 C 5.417969 3.878906 4.296875 5 2.917969 5 C 1.535156 5 0.417969 3.878906 0.417969 2.5 C 0.417969 1.121094 1.535156 0 2.917969 0 C 4.296875 0 5.417969 1.121094 5.417969 2.5 Z M 5.417969 2.5 "/>
<path style=" stroke:none;fill-rule:nonzero;fill:rgb(75.686275%,41.176471%,30.980392%);fill-opacity:1;" d="M 14.582031 2.5 C 14.582031 3.878906 13.464844 5 12.082031 5 C 10.703125 5 9.582031 3.878906 9.582031 2.5 C 9.582031 1.121094 10.703125 0 12.082031 0 C 13.464844 0 14.582031 1.121094 14.582031 2.5 Z M 14.582031 2.5 "/>
<path style=" stroke:none;fill-rule:nonzero;fill:rgb(90.196078%,66.666667%,66.666667%);fill-opacity:1;" d="M 4.582031 2.5 C 4.582031 3.421875 3.835938 4.167969 2.917969 4.167969 C 1.996094 4.167969 1.25 3.421875 1.25 2.5 C 1.25 1.578125 1.996094 0.832031 2.917969 0.832031 C 3.835938 0.832031 4.582031 1.578125 4.582031 2.5 Z M 4.582031 2.5 "/>
<path style=" stroke:none;fill-rule:nonzero;fill:rgb(90.196078%,66.666667%,66.666667%);fill-opacity:1;" d="M 13.75 2.5 C 13.75 3.421875 13.003906 4.167969 12.082031 4.167969 C 11.164062 4.167969 10.417969 3.421875 10.417969 2.5 C 10.417969 1.578125 11.164062 0.832031 12.082031 0.832031 C 13.003906 0.832031 13.75 1.578125 13.75 2.5 Z M 13.75 2.5 "/>
<path style=" stroke:none;fill-rule:nonzero;fill:rgb(75.686275%,41.176471%,30.980392%);fill-opacity:1;" d="M 14.582031 9.167969 C 14.582031 9.167969 14.039062 0 7.5 0 C 0.960938 0 0.417969 9.167969 0.417969 9.167969 C 0.417969 11.613281 2.292969 13.46875 5.507812 14.003906 C 5.964844 14.609375 6.683594 15 7.5 15 C 8.316406 15 9.035156 14.609375 9.492188 14.003906 C 12.707031 13.46875 14.582031 11.613281 14.582031 9.167969 Z M 14.582031 9.167969 "/>
<path style=" stroke:none;fill-rule:nonzero;fill:rgb(86.666667%,18.039216%,26.666667%);fill-opacity:1;" d="M 9.167969 12.5 C 9.167969 13.421875 8.421875 14.167969 7.5 14.167969 C 6.578125 14.167969 5.832031 13.421875 5.832031 12.5 C 5.832031 11.578125 6.578125 10.832031 7.5 10.832031 C 8.421875 10.832031 9.167969 11.578125 9.167969 12.5 Z M 9.167969 12.5 "/>
<path style=" stroke:none;fill-rule:nonzero;fill:rgb(85.098039%,61.960784%,50.980392%);fill-opacity:1;" d="M 7.5 8.332031 C 7.5 8.332031 2.917969 9.871094 2.917969 11.25 C 2.917969 12.628906 4.035156 13.75 5.417969 13.75 C 6.285156 13.75 7.050781 13.304688 7.5 12.632812 C 7.949219 13.304688 8.714844 13.75 9.582031 13.75 C 10.964844 13.75 12.082031 12.628906 12.082031 11.25 C 12.082031 9.871094 7.5 8.332031 7.5 8.332031 Z M 7.5 8.332031 "/>
<path style=" stroke:none;fill-rule:nonzero;fill:rgb(15.294118%,16.862745%,16.862745%);fill-opacity:1;" d="M 4.582031 7.082031 C 4.582031 7.082031 4.582031 6.25 5.417969 6.25 C 6.25 6.25 6.25 7.082031 6.25 7.082031 L 6.25 7.917969 C 6.25 7.917969 6.25 8.75 5.417969 8.75 C 4.582031 8.75 4.582031 7.917969 4.582031 7.917969 Z M 8.75 7.082031 C 8.75 7.082031 8.75 6.25 9.582031 6.25 C 10.417969 6.25 10.417969 7.082031 10.417969 7.082031 L 10.417969 7.917969 C 10.417969 7.917969 10.417969 8.75 9.582031 8.75 C 8.75 8.75 8.75 7.917969 8.75 7.917969 Z M 5.46875 10.417969 C 4.792969 10.832031 6.824219 12.082031 7.5 12.082031 C 8.175781 12.082031 10.207031 10.832031 9.53125 10.417969 C 8.855469 10 6.144531 10 5.46875 10.417969 Z M 5.46875 10.417969 "/>
</g>
</svg>
