<?xml version="1.0" encoding="UTF-8"?>
<svg xmlns="http://www.w3.org/2000/svg" xmlns:xlink="http://www.w3.org/1999/xlink" width="15pt" height="15pt" viewBox="0 0 15 15" version="1.1">
<g id="surface1">
<path style=" stroke:none;fill-rule:nonzero;fill:rgb(77.647059%,89.803922%,70.196078%);fill-opacity:1;" d="M 15 9.167969 C 15 12.273438 11.640625 14.167969 7.5 14.167969 C 3.359375 14.167969 0 12.273438 0 9.167969 C 0 6.058594 3.359375 2.917969 7.5 2.917969 C 11.640625 2.917969 15 6.058594 15 9.167969 Z M 15 9.167969 "/>
<path style=" stroke:none;fill-rule:nonzero;fill:rgb(46.666667%,69.803922%,33.333333%);fill-opacity:1;" d="M 13.230469 5.28125 C 13.800781 4.824219 14.167969 4.121094 14.167969 3.332031 C 14.167969 1.953125 13.046875 0.832031 11.667969 0.832031 C 10.472656 0.832031 9.480469 1.667969 9.230469 2.785156 C 8.691406 2.585938 8.109375 2.46875 7.5 2.46875 C 6.890625 2.46875 6.308594 2.585938 5.769531 2.785156 C 5.519531 1.667969 4.527344 0.832031 3.332031 0.832031 C 1.953125 0.832031 0.832031 1.953125 0.832031 3.332031 C 0.832031 4.121094 1.199219 4.824219 1.769531 5.28125 C 0.667969 6.398438 0 7.785156 0 9.167969 C 0 12.273438 3.359375 9.582031 7.5 9.582031 C 11.640625 9.582031 15 12.273438 15 9.167969 C 15 7.785156 14.332031 6.398438 13.230469 5.28125 Z M 13.230469 5.28125 "/>
<path style=" stroke:none;fill-rule:nonzero;fill:rgb(100%,100%,100%);fill-opacity:1;" d="M 4.582031 3.125 C 4.582031 3.929688 3.929688 4.582031 3.125 4.582031 C 2.320312 4.582031 1.667969 3.929688 1.667969 3.125 C 1.667969 2.320312 2.320312 1.667969 3.125 1.667969 C 3.929688 1.667969 4.582031 2.320312 4.582031 3.125 Z M 4.582031 3.125 "/>
<path style=" stroke:none;fill-rule:nonzero;fill:rgb(16.078431%,18.431373%,20%);fill-opacity:1;" d="M 3.75 3.125 C 3.75 3.46875 3.46875 3.75 3.125 3.75 C 2.78125 3.75 2.5 3.46875 2.5 3.125 C 2.5 2.78125 2.78125 2.5 3.125 2.5 C 3.46875 2.5 3.75 2.78125 3.75 3.125 Z M 3.75 3.125 "/>
<path style=" stroke:none;fill-rule:nonzero;fill:rgb(100%,100%,100%);fill-opacity:1;" d="M 13.332031 3.125 C 13.332031 3.929688 12.679688 4.582031 11.875 4.582031 C 11.070312 4.582031 10.417969 3.929688 10.417969 3.125 C 10.417969 2.320312 11.070312 1.667969 11.875 1.667969 C 12.679688 1.667969 13.332031 2.320312 13.332031 3.125 Z M 13.332031 3.125 "/>
<path style=" stroke:none;fill-rule:nonzero;fill:rgb(16.078431%,18.431373%,20%);fill-opacity:1;" d="M 12.5 3.125 C 12.5 3.46875 12.21875 3.75 11.875 3.75 C 11.53125 3.75 11.25 3.46875 11.25 3.125 C 11.25 2.78125 11.53125 2.5 11.875 2.5 C 12.21875 2.5 12.5 2.78125 12.5 3.125 Z M 12.5 3.125 "/>
<path style=" stroke:none;fill-rule:nonzero;fill:rgb(36.078431%,56.862745%,23.137255%);fill-opacity:1;" d="M 6.25 8.332031 C 6.25 8.5625 6.0625 8.75 5.832031 8.75 C 5.601562 8.75 5.417969 8.5625 5.417969 8.332031 C 5.417969 8.101562 5.601562 7.917969 5.832031 7.917969 C 6.0625 7.917969 6.25 8.101562 6.25 8.332031 Z M 6.25 8.332031 "/>
<path style=" stroke:none;fill-rule:nonzero;fill:rgb(36.078431%,56.862745%,23.137255%);fill-opacity:1;" d="M 9.582031 8.332031 C 9.582031 8.5625 9.398438 8.75 9.167969 8.75 C 8.9375 8.75 8.75 8.5625 8.75 8.332031 C 8.75 8.101562 8.9375 7.917969 9.167969 7.917969 C 9.398438 7.917969 9.582031 8.101562 9.582031 8.332031 Z M 9.582031 8.332031 "/>
</g>
</svg>
