<?xml version="1.0" encoding="UTF-8"?>
<svg xmlns="http://www.w3.org/2000/svg" xmlns:xlink="http://www.w3.org/1999/xlink" width="15pt" height="15pt" viewBox="0 0 15 15" version="1.1">
<g id="surface1">
<path style=" stroke:none;fill-rule:nonzero;fill:rgb(95.686275%,67.058824%,72.941176%);fill-opacity:1;" d="M 14.246094 5.554688 C 14.410156 5.398438 14.550781 5.222656 14.671875 5.019531 C 15.375 3.832031 14.785156 0.730469 14.425781 0.519531 C 14.136719 0.347656 12.121094 0.957031 10.988281 1.824219 C 9.949219 1.203125 8.761719 0.832031 7.5 0.832031 C 6.242188 0.832031 5.058594 1.199219 4.019531 1.820312 C 2.886719 0.957031 0.882812 0.347656 0.59375 0.519531 C 0.234375 0.730469 -0.355469 3.832031 0.347656 5.019531 C 0.460938 5.214844 0.601562 5.390625 0.757812 5.539062 C 0.277344 6.605469 0 7.765625 0 8.949219 C 0 13.113281 3.339844 14.167969 7.5 14.167969 C 11.660156 14.167969 15 13.113281 15 8.949219 C 15 7.769531 14.726562 6.613281 14.246094 5.554688 Z M 14.246094 5.554688 "/>
<path style=" stroke:none;fill-rule:nonzero;fill:rgb(91.764706%,34.901961%,43.137255%);fill-opacity:1;" d="M 3.082031 2.484375 C 2.179688 1.957031 1.25 1.617188 1.082031 1.714844 C 0.84375 1.855469 0.632812 3.800781 0.9375 5.160156 C 1.464844 4.125 2.203125 3.210938 3.082031 2.484375 Z M 14.0625 5.160156 C 14.371094 3.796875 14.15625 1.855469 13.917969 1.714844 C 13.75 1.617188 12.820312 1.957031 11.917969 2.484375 C 12.796875 3.210938 13.535156 4.125 14.0625 5.160156 Z M 11.667969 9.636719 C 11.667969 11.503906 10.375 13.542969 7.5 13.542969 C 4.625 13.542969 3.332031 11.503906 3.332031 9.636719 C 3.332031 7.765625 4.625 7.292969 7.5 7.292969 C 10.375 7.292969 11.667969 7.765625 11.667969 9.636719 Z M 11.667969 9.636719 "/>
<path style=" stroke:none;fill-rule:nonzero;fill:rgb(40%,12.941176%,7.45098%);fill-opacity:1;" d="M 6.25 10.25 C 6.25 11.023438 6.109375 11.25 5.625 11.25 C 5.140625 11.25 5 11.023438 5 10.25 C 5 9.476562 5.140625 9.25 5.625 9.25 C 6.109375 9.25 6.25 9.476562 6.25 10.25 Z M 10 10.25 C 10 11.023438 9.859375 11.25 9.375 11.25 C 8.890625 11.25 8.75 11.023438 8.75 10.25 C 8.75 9.476562 8.890625 9.25 9.375 9.25 C 9.859375 9.25 10 9.476562 10 10.25 Z M 10 10.25 "/>
<path style=" stroke:none;fill-rule:nonzero;fill:rgb(16.078431%,18.431373%,20%);fill-opacity:1;" d="M 3.75 7.082031 C 3.75 7.542969 3.375 7.917969 2.917969 7.917969 C 2.457031 7.917969 2.082031 7.542969 2.082031 7.082031 C 2.082031 6.625 2.457031 6.25 2.917969 6.25 C 3.375 6.25 3.75 6.625 3.75 7.082031 Z M 3.75 7.082031 "/>
<path style=" stroke:none;fill-rule:nonzero;fill:rgb(16.078431%,18.431373%,20%);fill-opacity:1;" d="M 12.917969 7.082031 C 12.917969 7.542969 12.542969 7.917969 12.082031 7.917969 C 11.625 7.917969 11.25 7.542969 11.25 7.082031 C 11.25 6.625 11.625 6.25 12.082031 6.25 C 12.542969 6.25 12.917969 6.625 12.917969 7.082031 Z M 12.917969 7.082031 "/>
</g>
</svg>
