<?xml version="1.0" encoding="UTF-8"?>
<svg xmlns="http://www.w3.org/2000/svg" xmlns:xlink="http://www.w3.org/1999/xlink" width="15pt" height="15pt" viewBox="0 0 15 15" version="1.1">
<g id="surface1">
<path style=" stroke:none;fill-rule:nonzero;fill:rgb(84.313725%,61.960784%,51.764706%);fill-opacity:1;" d="M 3.640625 6.859375 C 3.316406 5.648438 2.363281 4.851562 1.515625 5.078125 C 0.667969 5.304688 0.242188 6.472656 0.566406 7.683594 C 0.890625 8.898438 1.84375 9.695312 2.691406 9.46875 C 3.539062 9.242188 3.964844 8.074219 3.640625 6.859375 Z M 3.640625 6.859375 "/>
<path style=" stroke:none;fill-rule:nonzero;fill:rgb(84.313725%,61.960784%,51.764706%);fill-opacity:1;" d="M 13.527344 5.078125 C 12.675781 4.851562 11.726562 5.648438 11.402344 6.859375 C 11.074219 8.074219 11.5 9.242188 12.347656 9.46875 C 13.199219 9.695312 14.148438 8.898438 14.472656 7.683594 C 14.800781 6.472656 14.375 5.304688 13.527344 5.078125 Z M 13.527344 5.078125 "/>
<path style=" stroke:none;fill-rule:nonzero;fill:rgb(74.901961%,41.176471%,32.156863%);fill-opacity:1;" d="M 7.925781 15 L 7.074219 15 C 4.277344 15 1.5625 12.851562 1.5625 9.847656 C 1.5625 8.132812 2.199219 7.273438 2.199219 7.273438 C 2.199219 7.273438 1.988281 6.414062 1.988281 5.554688 C 1.988281 2.980469 4.699219 0.832031 7.5 0.832031 C 10.300781 0.832031 13.011719 3.410156 13.011719 5.554688 C 13.011719 6.414062 12.800781 7.273438 12.800781 7.273438 C 12.800781 7.273438 13.4375 8.132812 13.4375 9.847656 C 13.4375 12.851562 10.722656 15 7.925781 15 Z M 7.925781 15 "/>
<path style=" stroke:none;fill-rule:nonzero;fill:rgb(84.313725%,61.960784%,51.764706%);fill-opacity:1;" d="M 12.5 6.683594 C 12.5 5.0625 11.175781 3.75 9.546875 3.75 C 8.75 3.75 8.03125 4.0625 7.5 4.570312 C 6.96875 4.0625 6.25 3.75 5.453125 3.75 C 3.824219 3.75 2.5 5.0625 2.5 6.683594 C 2.5 7.667969 2.988281 8.535156 3.734375 9.066406 C 3.527344 9.582031 3.410156 10.152344 3.410156 10.746094 C 3.410156 13.113281 5.242188 14.582031 7.5 14.582031 C 9.757812 14.582031 11.589844 13.113281 11.589844 10.746094 C 11.589844 10.152344 11.472656 9.582031 11.265625 9.066406 C 12.011719 8.535156 12.5 7.667969 12.5 6.683594 Z M 12.5 6.683594 "/>
<path style=" stroke:none;fill-rule:nonzero;fill:rgb(16.078431%,18.431373%,20%);fill-opacity:1;" d="M 6.355469 7.082031 C 6.355469 6.335938 5.933594 5.730469 5.417969 5.730469 C 4.898438 5.730469 4.480469 6.335938 4.480469 7.082031 C 4.480469 7.832031 4.898438 8.4375 5.417969 8.4375 C 5.933594 8.4375 6.355469 7.832031 6.355469 7.082031 Z M 6.355469 7.082031 "/>
<path style=" stroke:none;fill-rule:nonzero;fill:rgb(16.078431%,18.431373%,20%);fill-opacity:1;" d="M 10.519531 7.082031 C 10.519531 6.335938 10.101562 5.730469 9.582031 5.730469 C 9.066406 5.730469 8.644531 6.335938 8.644531 7.082031 C 8.644531 7.832031 9.066406 8.4375 9.582031 8.4375 C 10.101562 8.4375 10.519531 7.832031 10.519531 7.082031 Z M 10.519531 7.082031 "/>
<path style=" stroke:none;fill-rule:nonzero;fill:rgb(39.215686%,12.941176%,8.627451%);fill-opacity:1;" d="M 7.5 13.636719 C 8.683594 13.636719 9.6875 13.007812 10.066406 12.132812 C 10.222656 11.769531 9.957031 11.363281 9.5625 11.363281 L 5.4375 11.363281 C 5.042969 11.363281 4.777344 11.769531 4.933594 12.132812 C 5.3125 13.007812 6.316406 13.636719 7.5 13.636719 Z M 7.5 13.636719 "/>
<path style=" stroke:none;fill-rule:nonzero;fill:rgb(39.215686%,12.941176%,8.627451%);fill-opacity:1;" d="M 7.1875 9.582031 C 7.1875 9.8125 7 10 6.769531 10 C 6.539062 10 6.355469 9.8125 6.355469 9.582031 C 6.355469 9.351562 6.539062 9.167969 6.769531 9.167969 C 7 9.167969 7.1875 9.351562 7.1875 9.582031 Z M 7.1875 9.582031 "/>
<path style=" stroke:none;fill-rule:nonzero;fill:rgb(39.215686%,12.941176%,8.627451%);fill-opacity:1;" d="M 8.644531 9.582031 C 8.644531 9.8125 8.460938 10 8.230469 10 C 8 10 7.8125 9.8125 7.8125 9.582031 C 7.8125 9.351562 8 9.167969 8.230469 9.167969 C 8.460938 9.167969 8.644531 9.351562 8.644531 9.582031 Z M 8.644531 9.582031 "/>
<path style=" stroke:none;fill-rule:nonzero;fill:rgb(74.901961%,41.176471%,32.156863%);fill-opacity:1;" d="M 9.441406 0.0742188 C 9.441406 0.0742188 7.167969 -0.382812 6.261719 0.980469 C 5.351562 2.347656 8.078125 1.4375 8.078125 1.4375 C 8.078125 1.4375 8.53125 0.0742188 9.441406 0.0742188 Z M 9.441406 0.0742188 "/>
</g>
</svg>
