<?xml version="1.0" encoding="UTF-8"?>
<svg xmlns="http://www.w3.org/2000/svg" xmlns:xlink="http://www.w3.org/1999/xlink" width="15pt" height="15pt" viewBox="0 0 15 15" version="1.1">
<g id="surface1">
<path style=" stroke:none;fill-rule:nonzero;fill:rgb(100%,80%,30.196078%);fill-opacity:1;" d="M 7.082031 3.957031 C 7.082031 5.914062 5.496094 7.5 3.542969 7.5 C 1.585938 7.5 0 5.914062 0 3.957031 C 0 2.003906 1.585938 0.417969 3.542969 0.417969 C 5.496094 0.417969 7.082031 2.003906 7.082031 3.957031 Z M 7.082031 3.957031 "/>
<path style=" stroke:none;fill-rule:nonzero;fill:rgb(100%,80%,30.196078%);fill-opacity:1;" d="M 15 3.957031 C 15 5.914062 13.414062 7.5 11.457031 7.5 C 9.503906 7.5 7.917969 5.914062 7.917969 3.957031 C 7.917969 2.003906 9.503906 0.417969 11.457031 0.417969 C 13.414062 0.417969 15 2.003906 15 3.957031 Z M 15 3.957031 "/>
<path style=" stroke:none;fill-rule:nonzero;fill:rgb(91.764706%,34.901961%,43.137255%);fill-opacity:1;" d="M 5.796875 2.4375 C 5.269531 1.765625 4.453125 1.328125 3.527344 1.328125 C 1.941406 1.328125 0.652344 2.617188 0.652344 4.207031 C 0.652344 5.359375 1.332031 6.355469 2.316406 6.8125 C 2.613281 5.0625 3.976562 3.199219 5.796875 2.4375 Z M 11.472656 1.328125 C 10.546875 1.328125 9.730469 1.765625 9.203125 2.441406 C 11.023438 3.199219 12.386719 5.066406 12.683594 6.8125 C 13.667969 6.355469 14.347656 5.363281 14.347656 4.207031 C 14.347656 2.617188 13.058594 1.328125 11.472656 1.328125 Z M 11.472656 1.328125 "/>
<path style=" stroke:none;fill-rule:nonzero;fill:rgb(100%,90.980392%,71.372549%);fill-opacity:1;" d="M 14.167969 9.414062 C 13.332031 5.226562 9.445312 6.707031 7.5 6.707031 C 5.554688 6.707031 1.667969 5.226562 0.832031 9.414062 C 0.292969 12.125 2.414062 13.53125 4.597656 14.160156 C 5.285156 14.671875 6.328125 15 7.5 15 C 8.671875 15 9.714844 14.671875 10.402344 14.15625 C 12.585938 13.53125 14.707031 12.125 14.167969 9.414062 Z M 14.167969 9.414062 "/>
<path style=" stroke:none;fill-rule:nonzero;fill:rgb(100%,80%,30.196078%);fill-opacity:1;" d="M 12.75 7.5 C 12.75 12.082031 10.398438 10 7.5 10 C 4.601562 10 2.25 12.082031 2.25 7.5 C 2.25 5.082031 4.601562 2.082031 7.5 2.082031 C 10.398438 2.082031 12.75 5.082031 12.75 7.5 Z M 12.75 7.5 "/>
<path style=" stroke:none;fill-rule:nonzero;fill:rgb(91.764706%,34.901961%,43.137255%);fill-opacity:1;" d="M 8.710938 11.648438 C 8.710938 12.316406 7.871094 13.046875 7.5 13.046875 C 7.128906 13.046875 6.289062 12.316406 6.289062 11.648438 C 6.289062 10.980469 7.035156 10.832031 7.5 10.832031 C 7.964844 10.832031 8.710938 10.980469 8.710938 11.648438 Z M 8.710938 11.648438 "/>
<path style=" stroke:none;fill-rule:nonzero;fill:rgb(75.686275%,41.176471%,30.980392%);fill-opacity:1;" d="M 14.796875 12.625 C 12.613281 11.316406 9.648438 11.71875 9.523438 11.738281 C 9.519531 11.738281 9.515625 11.742188 9.507812 11.742188 C 9.476562 11.75 9.445312 11.761719 9.414062 11.777344 C 9.394531 11.785156 9.375 11.792969 9.359375 11.800781 C 9.332031 11.820312 9.3125 11.839844 9.292969 11.863281 C 9.277344 11.878906 9.257812 11.894531 9.242188 11.914062 C 9.230469 11.933594 9.21875 11.960938 9.210938 11.984375 C 9.199219 12.011719 9.183594 12.035156 9.179688 12.0625 C 9.179688 12.070312 9.171875 12.074219 9.171875 12.082031 C 9.167969 12.105469 9.175781 12.125 9.175781 12.148438 C 9.175781 12.167969 9.167969 12.1875 9.171875 12.210938 C 9.171875 12.214844 9.175781 12.21875 9.175781 12.226562 C 9.183594 12.253906 9.195312 12.28125 9.207031 12.308594 C 9.214844 12.332031 9.222656 12.355469 9.238281 12.378906 C 9.25 12.398438 9.265625 12.410156 9.28125 12.425781 C 9.300781 12.453125 9.324219 12.472656 9.351562 12.492188 C 9.367188 12.503906 9.386719 12.511719 9.402344 12.519531 C 9.433594 12.535156 9.464844 12.546875 9.496094 12.554688 C 9.503906 12.554688 9.507812 12.558594 9.515625 12.5625 C 9.539062 12.566406 11.863281 12.96875 13 14.484375 C 13.082031 14.59375 13.207031 14.652344 13.332031 14.652344 C 13.421875 14.652344 13.507812 14.625 13.582031 14.566406 C 13.765625 14.429688 13.804688 14.167969 13.667969 13.984375 C 13.203125 13.367188 12.59375 12.914062 11.988281 12.582031 C 12.773438 12.679688 13.632812 12.898438 14.371094 13.339844 C 14.4375 13.382812 14.511719 13.402344 14.582031 13.402344 C 14.726562 13.402344 14.863281 13.328125 14.941406 13.199219 C 15.058594 13 14.996094 12.746094 14.796875 12.625 Z M 5.761719 12.378906 C 5.777344 12.355469 5.785156 12.332031 5.792969 12.308594 C 5.804688 12.28125 5.816406 12.253906 5.824219 12.226562 C 5.824219 12.21875 5.828125 12.214844 5.828125 12.207031 C 5.832031 12.1875 5.824219 12.164062 5.824219 12.144531 C 5.824219 12.125 5.832031 12.101562 5.828125 12.082031 C 5.828125 12.074219 5.820312 12.070312 5.820312 12.0625 C 5.816406 12.035156 5.800781 12.007812 5.789062 11.984375 C 5.78125 11.960938 5.769531 11.933594 5.757812 11.914062 C 5.742188 11.894531 5.726562 11.878906 5.707031 11.863281 C 5.6875 11.839844 5.667969 11.820312 5.640625 11.800781 C 5.625 11.792969 5.605469 11.785156 5.585938 11.777344 C 5.554688 11.761719 5.527344 11.75 5.492188 11.742188 C 5.484375 11.742188 5.480469 11.738281 5.476562 11.738281 C 5.351562 11.71875 2.386719 11.316406 0.203125 12.625 C 0.00390625 12.746094 -0.0585938 13 0.0585938 13.199219 C 0.136719 13.328125 0.277344 13.398438 0.417969 13.398438 C 0.488281 13.398438 0.5625 13.378906 0.632812 13.339844 C 1.367188 12.898438 2.226562 12.679688 3.011719 12.578125 C 2.40625 12.914062 1.796875 13.367188 1.332031 13.984375 C 1.195312 14.167969 1.234375 14.429688 1.417969 14.566406 C 1.492188 14.621094 1.578125 14.648438 1.667969 14.648438 C 1.792969 14.648438 1.917969 14.59375 2 14.484375 C 3.132812 12.972656 5.464844 12.566406 5.484375 12.5625 C 5.492188 12.558594 5.496094 12.554688 5.503906 12.554688 C 5.535156 12.546875 5.5625 12.535156 5.59375 12.519531 C 5.613281 12.511719 5.632812 12.503906 5.652344 12.492188 C 5.675781 12.472656 5.695312 12.453125 5.714844 12.429688 C 5.730469 12.414062 5.75 12.398438 5.761719 12.378906 Z M 5.761719 12.378906 "/>
<path style=" stroke:none;fill-rule:nonzero;fill:rgb(15.294118%,16.862745%,16.862745%);fill-opacity:1;" d="M 4.167969 8.332031 C 4.167969 8.332031 4.167969 7.5 5 7.5 C 5.832031 7.5 5.832031 8.332031 5.832031 8.332031 L 5.832031 9.167969 C 5.832031 9.167969 5.832031 10 5 10 C 4.167969 10 4.167969 9.167969 4.167969 9.167969 Z M 9.167969 8.332031 C 9.167969 8.332031 9.167969 7.5 10 7.5 C 10.832031 7.5 10.832031 8.332031 10.832031 8.332031 L 10.832031 9.167969 C 10.832031 9.167969 10.832031 10 10 10 C 9.167969 10 9.167969 9.167969 9.167969 9.167969 Z M 9.167969 8.332031 "/>
</g>
</svg>
