<?xml version="1.0" encoding="UTF-8"?>
<svg xmlns="http://www.w3.org/2000/svg" xmlns:xlink="http://www.w3.org/1999/xlink" width="15pt" height="15pt" viewBox="0 0 15 15" version="1.1">
<g id="surface1">
<path style=" stroke:none;fill-rule:nonzero;fill:rgb(83.529412%,67.058824%,53.333333%);fill-opacity:1;" d="M 1.667969 6.609375 C 1.667969 6.609375 1.628906 7.59375 2.410156 7.890625 C 3.105469 8.152344 3.375 7.632812 3.375 7.632812 C 3.375 7.632812 3.347656 8.429688 4.179688 8.726562 C 4.964844 9.007812 5.328125 8.328125 5.328125 8.328125 C 5.328125 8.328125 5.453125 9.109375 6.28125 9.339844 C 6.976562 9.53125 7.496094 8.855469 7.496094 8.855469 L 7.484375 13.941406 C 7.484375 14.34375 7.707031 15.015625 8.542969 15.019531 C 9.375 15.023438 9.566406 14.328125 9.566406 13.949219 L 9.585938 7.074219 L 9.589844 5.40625 C 9.589844 4.988281 10.007812 4.992188 10.003906 5.40625 L 10.003906 6.519531 C 10 8.097656 10.84375 9.078125 11.140625 9.351562 C 11.4375 9.621094 11.835938 9.761719 12.316406 9.660156 C 13.132812 9.488281 12.953125 8.859375 12.726562 8.328125 C 12.171875 7.042969 11.792969 5.214844 11.679688 4.351562 C 11.355469 1.910156 9.269531 0.0234375 6.738281 0.015625 C 3.976562 0.0078125 1.679688 2.210938 1.671875 4.96875 Z M 1.667969 6.609375 "/>
</g>
</svg>
