<?xml version="1.0" encoding="UTF-8"?>
<svg xmlns="http://www.w3.org/2000/svg" xmlns:xlink="http://www.w3.org/1999/xlink" width="15pt" height="15pt" viewBox="0 0 15 15" version="1.1">
<g id="surface1">
<path style=" stroke:none;fill-rule:nonzero;fill:rgb(19.215686%,21.568627%,23.921569%);fill-opacity:1;" d="M 13.652344 13.898438 C 12.511719 12.53125 12.027344 11.164062 11.820312 10.253906 C 11.796875 10.136719 11.71875 10.035156 11.609375 9.980469 C 11.503906 9.921875 11.378906 9.914062 11.265625 9.960938 L 8.300781 11.105469 C 8.175781 11.152344 8.082031 11.261719 8.046875 11.390625 C 8.015625 11.523438 8.039062 11.667969 8.136719 11.765625 C 10.621094 14.257812 13.308594 14.582031 13.332031 14.582031 C 13.480469 14.582031 13.621094 14.503906 13.695312 14.375 C 13.78125 14.222656 13.765625 14.035156 13.652344 13.898438 Z M 13.652344 13.898438 "/>
<path style=" stroke:none;fill-rule:nonzero;fill:rgb(19.215686%,21.568627%,23.921569%);fill-opacity:1;" d="M 15 6.667969 C 15 3.445312 11.640625 0.832031 7.5 0.832031 C 3.359375 0.832031 0 3.445312 0 6.667969 C 0 9.886719 3.359375 12.5 7.5 12.5 C 11.640625 12.5 15 9.886719 15 6.667969 Z M 15 6.667969 "/>
<path style=" stroke:none;fill-rule:nonzero;fill:rgb(19.215686%,21.568627%,23.921569%);fill-opacity:1;" d="M 9.582031 6.667969 C 9.582031 7.816406 8.652344 8.75 7.5 8.75 C 6.347656 8.75 5.417969 7.816406 5.417969 6.667969 C 5.417969 5.515625 6.347656 4.582031 7.5 4.582031 C 8.652344 4.582031 9.582031 5.515625 9.582031 6.667969 Z M 9.582031 6.667969 "/>
<path style=" stroke:none;fill-rule:nonzero;fill:rgb(100%,100%,100%);fill-opacity:1;" d="M 7.5 2.917969 C 5.433594 2.917969 3.75 4.597656 3.75 6.667969 C 3.75 8.734375 5.433594 10.417969 7.5 10.417969 C 9.566406 10.417969 11.25 8.734375 11.25 6.667969 C 11.25 4.597656 9.566406 2.917969 7.5 2.917969 Z M 7.5 8.75 C 6.347656 8.75 5.417969 7.816406 5.417969 6.667969 C 5.417969 5.515625 6.347656 4.582031 7.5 4.582031 C 8.652344 4.582031 9.582031 5.515625 9.582031 6.667969 C 9.582031 7.816406 8.652344 8.75 7.5 8.75 Z M 7.5 8.75 "/>
</g>
</svg>
