<?xml version="1.0" encoding="UTF-8"?>
<svg xmlns="http://www.w3.org/2000/svg" xmlns:xlink="http://www.w3.org/1999/xlink" width="15pt" height="15pt" viewBox="0 0 15 15" version="1.1">
<g id="surface1">
<path style=" stroke:none;fill-rule:nonzero;fill:rgb(56.470588%,37.647059%,24.313725%);fill-opacity:1;" d="M 13.460938 10.144531 C 13.167969 9.722656 13.332031 9.117188 13.257812 8.445312 C 13.183594 7.347656 12.714844 6.285156 11.800781 5.4375 L 8.691406 2.542969 C 8.691406 2.542969 8.078125 1.972656 7.507812 2.585938 C 6.9375 3.199219 7.550781 3.769531 7.550781 3.769531 L 8.863281 4.992188 L 10.003906 6.050781 C 10.003906 6.050781 9.71875 6.359375 8.457031 5.1875 L 4.199219 1.226562 C 4.199219 1.226562 3.585938 0.65625 3.015625 1.269531 C 2.445312 1.882812 3.058594 2.453125 3.058594 2.453125 L 7.082031 6.199219 C 7.074219 6.191406 6.777344 6.484375 6.773438 6.480469 L 2.464844 2.472656 C 2.464844 2.472656 1.851562 1.902344 1.28125 2.515625 C 0.710938 3.128906 1.324219 3.699219 1.324219 3.699219 L 5.632812 7.707031 C 5.636719 7.714844 5.359375 8.027344 5.371094 8.035156 L 1.652344 4.578125 C 1.652344 4.578125 1.039062 4.007812 0.46875 4.621094 C -0.101562 5.234375 0.511719 5.804688 0.511719 5.804688 L 4.464844 9.480469 C 4.5 9.511719 4.253906 9.855469 4.300781 9.898438 L 1.453125 7.25 C 1.453125 7.25 0.839844 6.679688 0.269531 7.292969 C -0.300781 7.90625 0.3125 8.476562 0.3125 8.476562 L 4.957031 12.796875 C 5.730469 13.515625 6.527344 13.882812 7.488281 14.015625 C 7.683594 14.042969 7.933594 14.042969 8.035156 14.054688 C 8.359375 14.097656 8.644531 14.210938 9.023438 14.445312 C 9.515625 14.746094 10.25 14.871094 10.671875 14.417969 L 12.109375 12.878906 L 13.4375 11.457031 C 13.859375 11.007812 13.785156 10.617188 13.460938 10.144531 Z M 13.460938 10.144531 "/>
<path style=" stroke:none;fill-rule:nonzero;fill:rgb(98.039216%,45.490196%,24.313725%);fill-opacity:1;" d="M 0.816406 14.59375 C 0.707031 14.59375 0.601562 14.554688 0.519531 14.472656 C 0.359375 14.308594 0.359375 14.046875 0.519531 13.882812 L 2 12.402344 C 2.164062 12.242188 2.425781 12.242188 2.589844 12.402344 C 2.753906 12.566406 2.753906 12.832031 2.589844 12.992188 L 1.109375 14.472656 C 1.027344 14.554688 0.921875 14.59375 0.816406 14.59375 Z M 3.625 14.976562 C 3.582031 14.976562 3.535156 14.972656 3.488281 14.953125 C 3.269531 14.878906 3.15625 14.640625 3.234375 14.425781 L 3.636719 13.269531 C 3.714844 13.050781 3.949219 12.9375 4.167969 13.011719 C 4.386719 13.089844 4.5 13.328125 4.421875 13.542969 L 4.019531 14.699219 C 3.957031 14.871094 3.796875 14.976562 3.625 14.976562 Z M 0.429688 11.785156 C 0.257812 11.785156 0.0976562 11.675781 0.0390625 11.503906 C -0.0390625 11.289062 0.0742188 11.050781 0.292969 10.972656 L 1.332031 10.605469 C 1.550781 10.53125 1.785156 10.644531 1.863281 10.859375 C 1.941406 11.078125 1.828125 11.316406 1.609375 11.394531 L 0.570312 11.761719 C 0.523438 11.777344 0.476562 11.785156 0.429688 11.785156 Z M 12.707031 2.714844 C 12.597656 2.714844 12.492188 2.671875 12.410156 2.59375 C 12.25 2.429688 12.25 2.164062 12.410156 2.003906 L 13.890625 0.523438 C 14.054688 0.359375 14.316406 0.359375 14.480469 0.523438 C 14.644531 0.6875 14.644531 0.949219 14.480469 1.113281 L 13 2.59375 C 12.917969 2.671875 12.8125 2.714844 12.707031 2.714844 Z M 10.972656 2.007812 C 10.925781 2.007812 10.878906 2 10.832031 1.984375 C 10.617188 1.90625 10.503906 1.671875 10.578125 1.453125 L 10.980469 0.296875 C 11.058594 0.078125 11.296875 -0.0351562 11.511719 0.0429688 C 11.730469 0.117188 11.84375 0.355469 11.769531 0.570312 L 11.363281 1.726562 C 11.304688 1.898438 11.144531 2.007812 10.972656 2.007812 Z M 13.53125 4.414062 C 13.359375 4.414062 13.199219 4.304688 13.136719 4.136719 C 13.0625 3.917969 13.175781 3.679688 13.390625 3.601562 L 14.429688 3.234375 C 14.648438 3.160156 14.886719 3.273438 14.964844 3.492188 C 15.039062 3.707031 14.925781 3.945312 14.707031 4.023438 L 13.667969 4.390625 C 13.625 4.40625 13.578125 4.414062 13.53125 4.414062 Z M 13.53125 4.414062 "/>
<path style=" stroke:none;fill-rule:nonzero;fill:rgb(68.627451%,49.411765%,34.117647%);fill-opacity:1;" d="M 14.746094 9.925781 C 14.46875 9.496094 14.652344 8.894531 14.601562 8.21875 C 14.566406 7.121094 14.132812 6.042969 13.246094 5.164062 L 10.234375 2.167969 C 10.234375 2.167969 9.640625 1.578125 9.050781 2.171875 C 8.460938 2.765625 9.054688 3.355469 9.054688 3.355469 L 10.328125 4.625 L 11.429688 5.71875 C 11.429688 5.71875 11.132812 6.015625 9.914062 4.800781 C 8.691406 3.589844 5.789062 0.699219 5.789062 0.699219 C 5.789062 0.699219 5.195312 0.109375 4.605469 0.703125 C 4.015625 1.296875 4.609375 1.886719 4.609375 1.886719 L 8.507812 5.765625 C 8.5 5.757812 8.191406 6.042969 8.1875 6.039062 L 4.015625 1.890625 C 4.015625 1.890625 3.421875 1.296875 2.832031 1.890625 C 2.242188 2.484375 2.835938 3.078125 2.835938 3.078125 L 7.007812 7.226562 C 7.011719 7.230469 6.722656 7.535156 6.730469 7.542969 L 3.132812 3.964844 C 3.132812 3.964844 2.539062 3.375 1.949219 3.96875 C 1.359375 4.5625 1.953125 5.152344 1.953125 5.152344 L 5.777344 8.957031 C 5.8125 8.992188 5.554688 9.328125 5.601562 9.371094 L 2.84375 6.628906 C 2.84375 6.628906 2.25 6.039062 1.660156 6.632812 C 1.066406 7.226562 1.660156 7.816406 1.660156 7.816406 L 6.15625 12.289062 C 6.910156 13.035156 7.691406 13.429688 8.648438 13.59375 C 8.839844 13.628906 9.089844 13.636719 9.191406 13.652344 C 9.515625 13.703125 9.796875 13.828125 10.167969 14.074219 C 10.648438 14.390625 11.378906 14.539062 11.8125 14.105469 L 14.679688 11.238281 C 15.117188 10.800781 15.054688 10.410156 14.746094 9.925781 Z M 14.746094 9.925781 "/>
</g>
</svg>
