<?xml version="1.0" encoding="UTF-8"?>
<svg xmlns="http://www.w3.org/2000/svg" xmlns:xlink="http://www.w3.org/1999/xlink" width="15pt" height="15pt" viewBox="0 0 15 15" version="1.1">
<g id="surface1">
<path style=" stroke:none;fill-rule:nonzero;fill:rgb(48.627451%,32.54902%,24.313725%);fill-opacity:1;" d="M 13.726562 4.683594 C 13.707031 4.429688 13.609375 4.191406 13.445312 4 L 13.296875 3.144531 C 13.140625 2.308594 12.367188 1.730469 11.519531 1.824219 L 1.773438 3.378906 C 0.992188 3.464844 0.378906 4.097656 0.324219 4.882812 L 1.054688 9.527344 C 1.183594 10.433594 1.953125 11.105469 2.863281 11.117188 C 3.148438 11.121094 3.378906 11.125 3.472656 11.128906 L 7.425781 11.320312 C 7.273438 11.523438 7.082031 11.769531 7.082031 12.035156 L 7.082031 12.058594 C 7.082031 12.71875 7.820312 13.332031 8.480469 13.332031 L 11.515625 13.332031 C 11.832031 13.332031 12.132812 13.167969 12.359375 12.941406 L 14.203125 11.078125 C 14.445312 10.835938 14.570312 10.488281 14.546875 10.144531 Z M 13.726562 4.683594 "/>
<path style=" stroke:none;fill-rule:nonzero;fill:rgb(34.509804%,20.784314%,16.078431%);fill-opacity:1;" d="M 3.421875 11.09375 C 3.226562 11.09375 3.050781 10.953125 3.015625 10.75 L 2.15625 6.027344 C 2.113281 5.804688 2.265625 5.585938 2.492188 5.542969 C 2.71875 5.503906 2.933594 5.652344 2.976562 5.878906 L 3.835938 10.601562 C 3.875 10.828125 3.726562 11.042969 3.5 11.085938 C 3.472656 11.089844 3.449219 11.09375 3.421875 11.09375 Z M 6 11.09375 C 5.785156 11.09375 5.601562 10.925781 5.585938 10.707031 L 5.15625 5.128906 C 5.136719 4.898438 5.308594 4.699219 5.539062 4.679688 C 5.765625 4.660156 5.96875 4.835938 5.984375 5.0625 L 6.414062 10.644531 C 6.433594 10.875 6.261719 11.074219 6.03125 11.089844 C 6.019531 11.09375 6.007812 11.09375 6 11.09375 Z M 9.003906 11.554688 C 8.789062 11.554688 8.6875 11.554688 8.605469 11.109375 L 8.585938 11.109375 C 8.589844 11.085938 8.589844 11.066406 8.59375 11.042969 C 8.523438 10.597656 8.464844 9.765625 8.359375 8.203125 C 8.261719 6.75 8.160156 5.054688 8.160156 4.667969 C 8.160156 4.4375 8.34375 4.25 8.574219 4.25 C 8.804688 4.25 8.992188 4.4375 8.992188 4.667969 C 8.992188 5.304688 9.324219 10.21875 9.402344 10.976562 C 9.414062 11.019531 9.421875 11.0625 9.421875 11.105469 C 9.421875 11.214844 9.375 11.339844 9.296875 11.414062 C 9.21875 11.492188 9.113281 11.554688 9.003906 11.554688 Z M 9.003906 11.554688 "/>
<path style=" stroke:none;fill-rule:nonzero;fill:rgb(34.509804%,20.784314%,16.078431%);fill-opacity:1;" d="M 10.492188 11.953125 L 7.714844 11.953125 C 7.488281 11.953125 7.300781 11.765625 7.300781 11.535156 C 7.300781 11.304688 7.488281 11.117188 7.714844 11.117188 L 10.492188 11.117188 C 11.097656 11.117188 11.59375 10.625 11.59375 10.015625 L 11.59375 4.667969 C 11.59375 4.4375 11.777344 4.25 12.007812 4.25 C 12.238281 4.25 12.425781 4.4375 12.425781 4.667969 L 12.425781 10.015625 C 12.425781 11.082031 11.558594 11.953125 10.492188 11.953125 Z M 10.492188 11.953125 "/>
</g>
</svg>
