<?xml version="1.0" encoding="UTF-8"?>
<svg xmlns="http://www.w3.org/2000/svg" xmlns:xlink="http://www.w3.org/1999/xlink" width="15pt" height="15pt" viewBox="0 0 15 15" version="1.1">
<g id="surface1">
<path style=" stroke:none;fill-rule:nonzero;fill:rgb(40%,12.941176%,7.45098%);fill-opacity:1;" d="M 15 3.125 C 15 5 11.640625 7.917969 7.5 7.917969 C 3.359375 7.917969 0 5 0 3.125 C 0 2.5 1.25 3.75 7.5 3.75 C 13.75 3.75 15 2.5 15 3.125 Z M 15 3.125 "/>
<path style=" stroke:none;fill-rule:nonzero;fill:rgb(91.764706%,34.901961%,43.137255%);fill-opacity:1;" d="M 7.5 4.582031 C 5 4.582031 2.917969 4.167969 2.917969 4.167969 L 2.917969 9.167969 C 2.917969 11.699219 4.96875 13.75 7.5 13.75 C 10.03125 13.75 12.082031 11.699219 12.082031 9.167969 L 12.082031 4.167969 C 12.082031 4.167969 10 4.582031 7.5 4.582031 Z M 7.5 4.582031 "/>
<path style=" stroke:none;fill-rule:nonzero;fill:rgb(86.666667%,18.039216%,26.666667%);fill-opacity:1;" d="M 7.917969 12.082031 C 7.917969 12.3125 7.730469 12.5 7.5 12.5 C 7.269531 12.5 7.082031 12.3125 7.082031 12.082031 L 7.082031 5.417969 C 7.082031 5.1875 7.269531 5 7.5 5 C 7.730469 5 7.917969 5.1875 7.917969 5.417969 Z M 7.917969 12.082031 "/>
</g>
</svg>
