<?xml version="1.0" encoding="UTF-8"?>
<svg xmlns="http://www.w3.org/2000/svg" xmlns:xlink="http://www.w3.org/1999/xlink" width="15pt" height="15pt" viewBox="0 0 15 15" version="1.1">
<g id="surface1">
<path style=" stroke:none;fill-rule:nonzero;fill:rgb(60%,66.666667%,70.980392%);fill-opacity:1;" d="M 14.609375 7.5 C 14.609375 8.875 11.421875 12.082031 7.496094 12.082031 C 3.570312 12.082031 0.386719 9.269531 0.386719 7.5 C 0.386719 6.121094 3.570312 2.917969 7.496094 2.917969 C 11.421875 2.917969 14.609375 6.121094 14.609375 7.5 Z M 14.609375 7.5 "/>
<path style=" stroke:none;fill-rule:nonzero;fill:rgb(96.078431%,97.254902%,98.039216%);fill-opacity:1;" d="M 14.089844 7.5 C 14.089844 8.710938 11.136719 11.527344 7.496094 11.527344 C 3.855469 11.527344 0.902344 9.054688 0.902344 7.5 C 0.902344 6.285156 3.855469 3.472656 7.496094 3.472656 C 11.136719 3.472656 14.089844 6.285156 14.089844 7.5 Z M 14.089844 7.5 "/>
<path style=" stroke:none;fill-rule:nonzero;fill:rgb(33.333333%,67.45098%,93.333333%);fill-opacity:1;" d="M 11.023438 7.5 C 11.023438 9.445312 9.445312 11.023438 7.5 11.023438 C 5.554688 11.023438 3.976562 9.445312 3.976562 7.5 C 3.976562 5.554688 5.554688 3.976562 7.5 3.976562 C 9.445312 3.976562 11.023438 5.554688 11.023438 7.5 Z M 11.023438 7.5 "/>
<path style=" stroke:none;fill-rule:nonzero;fill:rgb(16.078431%,18.431373%,20%);fill-opacity:1;" d="M 9.460938 7.5 C 9.460938 8.582031 8.582031 9.460938 7.5 9.460938 C 6.417969 9.460938 5.539062 8.582031 5.539062 7.5 C 5.539062 6.417969 6.417969 5.539062 7.5 5.539062 C 8.582031 5.539062 9.460938 6.417969 9.460938 7.5 Z M 9.460938 7.5 "/>
<path style=" stroke:none;fill-rule:nonzero;fill:rgb(96.078431%,97.254902%,98.039216%);fill-opacity:1;" d="M 9.582031 6.25 C 9.582031 6.710938 9.210938 7.082031 8.75 7.082031 C 8.289062 7.082031 7.917969 6.710938 7.917969 6.25 C 7.917969 5.789062 8.289062 5.417969 8.75 5.417969 C 9.210938 5.417969 9.582031 5.789062 9.582031 6.25 Z M 9.582031 6.25 "/>
</g>
</svg>
