<?xml version="1.0" encoding="UTF-8"?>
<svg xmlns="http://www.w3.org/2000/svg" xmlns:xlink="http://www.w3.org/1999/xlink" width="15pt" height="15pt" viewBox="0 0 15 15" version="1.1">
<g id="surface1">
<path style=" stroke:none;fill-rule:nonzero;fill:rgb(87.843137%,66.666667%,58.039216%);fill-opacity:1;" d="M 2.027344 3.8125 C 2.417969 3.539062 3.007812 3.589844 3.359375 3.878906 L 2.957031 3.292969 C 2.632812 2.832031 2.746094 2.332031 3.210938 2.003906 C 3.675781 1.683594 4.988281 2.550781 4.988281 2.550781 C 4.660156 2.085938 4.722656 1.492188 5.1875 1.164062 C 5.65625 0.835938 6.300781 0.949219 6.628906 1.417969 L 10.96875 7.550781 L 10.417969 12.917969 L 5.796875 11.234375 L 1.769531 5.261719 C 1.441406 4.789062 1.554688 4.140625 2.027344 3.8125 Z M 2.027344 3.8125 "/>
<path style=" stroke:none;fill-rule:nonzero;fill:rgb(96.862745%,87.058824%,80.784314%);fill-opacity:1;" d="M 1.121094 7.222656 C 1.121094 7.222656 0.652344 6.535156 1.339844 6.066406 C 2.027344 5.59375 2.496094 6.28125 2.496094 6.28125 L 4.683594 9.472656 C 4.761719 9.34375 4.84375 9.222656 4.933594 9.097656 L 1.898438 4.671875 C 1.898438 4.671875 1.425781 3.984375 2.113281 3.511719 C 2.800781 3.042969 3.273438 3.726562 3.273438 3.726562 L 6.128906 7.894531 C 6.234375 7.808594 6.34375 7.71875 6.457031 7.632812 L 3.144531 2.804688 C 3.144531 2.804688 2.675781 2.117188 3.363281 1.648438 C 4.046875 1.175781 4.519531 1.863281 4.519531 1.863281 L 7.832031 6.691406 C 7.953125 6.617188 8.074219 6.550781 8.195312 6.484375 L 5.097656 1.96875 C 5.097656 1.96875 4.628906 1.285156 5.316406 0.8125 C 6.003906 0.339844 6.472656 1.027344 6.472656 1.027344 L 9.746094 5.800781 L 10.242188 6.527344 C 8.183594 7.941406 7.984375 10.601562 9.164062 12.320312 C 9.398438 12.664062 9.742188 12.425781 9.742188 12.425781 C 8.328125 10.363281 8.761719 8.046875 10.824219 6.632812 L 10.214844 3.589844 C 10.214844 3.589844 9.988281 2.789062 10.789062 2.5625 C 11.589844 2.335938 11.816406 3.136719 11.816406 3.136719 L 12.519531 5.222656 C 12.796875 6.046875 13.09375 6.871094 13.488281 7.652344 C 14.59375 9.851562 13.933594 12.585938 11.84375 14.019531 C 9.566406 15.578125 6.453125 15 4.894531 12.722656 Z M 1.121094 7.222656 "/>
<path style=" stroke:none;fill-rule:nonzero;fill:rgb(36.470588%,67.843137%,92.54902%);fill-opacity:1;" d="M 5 13.351562 C 3.332031 13.351562 1.648438 11.667969 1.648438 10 C 1.648438 9.769531 1.480469 9.582031 1.25 9.582031 C 1.019531 9.582031 0.816406 9.769531 0.816406 10 C 0.816406 12.5 2.5 14.183594 5 14.183594 C 5.230469 14.183594 5.417969 13.980469 5.417969 13.75 C 5.417969 13.519531 5.230469 13.351562 5 13.351562 Z M 5 13.351562 "/>
<path style=" stroke:none;fill-rule:nonzero;fill:rgb(36.470588%,67.843137%,92.54902%);fill-opacity:1;" d="M 2.917969 14.167969 C 1.667969 14.167969 0.832031 13.332031 0.832031 12.082031 C 0.832031 11.851562 0.648438 11.667969 0.417969 11.667969 C 0.1875 11.667969 0 11.851562 0 12.082031 C 0 13.75 1.25 15 2.917969 15 C 3.148438 15 3.332031 14.8125 3.332031 14.582031 C 3.332031 14.351562 3.148438 14.167969 2.917969 14.167969 Z M 10 0.832031 C 9.769531 0.832031 9.582031 1.019531 9.582031 1.25 C 9.582031 1.480469 9.769531 1.667969 10 1.667969 C 11.667969 1.667969 13.332031 3.160156 13.332031 5 C 13.332031 5.230469 13.519531 5.417969 13.75 5.417969 C 13.980469 5.417969 14.167969 5.230469 14.167969 5 C 14.167969 2.703125 12.5 0.832031 10 0.832031 Z M 10 0.832031 "/>
<path style=" stroke:none;fill-rule:nonzero;fill:rgb(36.470588%,67.843137%,92.54902%);fill-opacity:1;" d="M 12.082031 0.015625 C 11.851562 0.015625 11.667969 0.1875 11.667969 0.417969 C 11.667969 0.648438 11.851562 0.851562 12.082031 0.851562 C 13.332031 0.851562 14.148438 1.777344 14.148438 2.917969 C 14.148438 3.148438 14.351562 3.332031 14.582031 3.332031 C 14.8125 3.332031 14.984375 3.148438 14.984375 2.917969 C 14.984375 1.316406 13.75 0.015625 12.082031 0.015625 Z M 12.082031 0.015625 "/>
</g>
</svg>
