<?xml version="1.0" encoding="UTF-8"?>
<svg xmlns="http://www.w3.org/2000/svg" xmlns:xlink="http://www.w3.org/1999/xlink" width="15pt" height="15pt" viewBox="0 0 15 15" version="1.1">
<g id="surface1">
<path style=" stroke:none;fill-rule:nonzero;fill:rgb(100%,86.27451%,36.470588%);fill-opacity:1;" d="M 13.75 12.292969 C 13.75 11.257812 12.445312 9.582031 10.832031 9.582031 L 10.808594 9.585938 C 10.601562 5.730469 9.050781 0 7.5 0 C 5.976562 0 4.453125 5.703125 4.203125 9.585938 C 4.191406 9.585938 4.179688 9.582031 4.167969 9.582031 C 2.554688 9.582031 1.25 11.257812 1.25 12.292969 C 1.25 13.261719 3.441406 13.691406 5.085938 14.429688 C 5.613281 14.886719 6.390625 15 7.5 15 C 8.4375 15 9.140625 14.890625 9.65625 14.550781 C 11.320312 13.738281 13.75 13.3125 13.75 12.292969 Z M 13.75 12.292969 "/>
<path style=" stroke:none;fill-rule:nonzero;fill:rgb(93.72549%,58.823529%,27.058824%);fill-opacity:1;" d="M 10.832031 12.5 C 11.058594 12.457031 11.710938 11.492188 11.710938 10.800781 C 11.710938 9.941406 11.480469 9.691406 11.199219 9.617188 C 11.078125 9.597656 10.957031 9.582031 10.832031 9.582031 C 10.832031 10 10.890625 10.417969 10.890625 10.949219 C 10.890625 12.082031 10.605469 12.539062 10.832031 12.5 Z M 3.246094 10.800781 C 3.246094 11.492188 3.894531 12.460938 4.121094 12.5 C 4.347656 12.539062 4.066406 12.082031 4.066406 10.949219 C 4.066406 10.417969 4.121094 10 4.121094 9.585938 C 3.976562 9.589844 3.835938 9.605469 3.695312 9.636719 C 3.441406 9.730469 3.246094 10.003906 3.246094 10.800781 Z M 3.246094 10.800781 "/>
<path style=" stroke:none;fill-rule:nonzero;fill:rgb(40%,12.941176%,7.45098%);fill-opacity:1;" d="M 3.753906 13.074219 C 3.101562 12.882812 2.484375 12.984375 2.195312 13.285156 C 2.945312 13.65625 4.019531 13.96875 4.953125 14.371094 C 5.09375 13.886719 4.554688 13.308594 3.753906 13.074219 Z M 11.246094 13.074219 C 10.445312 13.308594 9.90625 13.886719 10.046875 14.371094 C 10.980469 13.972656 12.054688 13.65625 12.804688 13.285156 C 12.515625 12.984375 11.898438 12.882812 11.246094 13.074219 Z M 11.246094 13.074219 "/>
</g>
</svg>
