<?xml version="1.0" encoding="UTF-8"?>
<svg xmlns="http://www.w3.org/2000/svg" xmlns:xlink="http://www.w3.org/1999/xlink" width="15pt" height="15pt" viewBox="0 0 15 15" version="1.1">
<g id="surface1">
<path style=" stroke:none;fill-rule:nonzero;fill:rgb(96.862745%,87.058824%,80.784314%);fill-opacity:1;" d="M 12.5 8.394531 C 12.5 8.394531 12.539062 7.410156 11.753906 7.117188 C 11.058594 6.855469 10.792969 7.375 10.792969 7.375 C 10.792969 7.375 10.816406 6.578125 9.984375 6.28125 C 9.199219 6.003906 8.835938 6.683594 8.835938 6.683594 C 8.835938 6.683594 8.710938 5.902344 7.882812 5.675781 C 7.1875 5.484375 6.667969 6.160156 6.667969 6.160156 L 6.667969 1.074219 C 6.667969 0.675781 6.441406 0 5.609375 0 C 4.773438 0 4.582031 0.691406 4.582031 1.074219 L 4.582031 9.613281 C 4.582031 10.03125 4.167969 10.03125 4.167969 9.613281 L 4.167969 8.503906 C 4.167969 6.925781 3.316406 5.945312 3.019531 5.675781 C 2.722656 5.402344 2.328125 5.265625 1.847656 5.367188 C 1.03125 5.542969 1.207031 6.167969 1.441406 6.699219 C 1.996094 7.984375 2.378906 9.808594 2.496094 10.675781 C 2.824219 13.117188 4.914062 14.996094 7.445312 15 C 10.207031 15 12.496094 12.792969 12.5 10.03125 Z M 12.5 8.394531 "/>
</g>
</svg>
