<?xml version="1.0" encoding="UTF-8"?>
<svg xmlns="http://www.w3.org/2000/svg" xmlns:xlink="http://www.w3.org/1999/xlink" width="15pt" height="15pt" viewBox="0 0 15 15" version="1.1">
<g id="surface1">
<path style=" stroke:none;fill-rule:nonzero;fill:rgb(100%,86.27451%,36.470588%);fill-opacity:1;" d="M 1.667969 6.621094 C 1.667969 6.621094 1.628906 7.605469 2.414062 7.902344 C 3.109375 8.160156 3.375 7.640625 3.375 7.640625 C 3.375 7.640625 3.351562 8.4375 4.183594 8.734375 C 4.96875 9.011719 5.328125 8.335938 5.328125 8.335938 C 5.328125 8.335938 5.457031 9.113281 6.285156 9.34375 C 6.980469 9.535156 7.5 8.855469 7.5 8.855469 L 7.5 13.941406 C 7.5 14.34375 7.726562 15.015625 8.558594 15.015625 C 9.394531 15.015625 9.582031 14.324219 9.582031 13.941406 L 9.582031 5.402344 C 9.582031 4.984375 10 4.984375 10 5.402344 L 10 6.511719 C 10 8.089844 10.847656 9.070312 11.144531 9.339844 C 11.441406 9.613281 11.839844 9.75 12.320312 9.648438 C 13.136719 9.472656 12.957031 8.847656 12.726562 8.316406 C 12.171875 7.03125 11.789062 5.207031 11.671875 4.339844 C 11.34375 1.902344 9.25 0.0195312 6.71875 0.015625 C 3.960938 0.015625 1.667969 2.222656 1.667969 4.984375 Z M 1.667969 6.621094 "/>
</g>
</svg>
