<?xml version="1.0" encoding="UTF-8"?>
<svg xmlns="http://www.w3.org/2000/svg" xmlns:xlink="http://www.w3.org/1999/xlink" width="15pt" height="15pt" viewBox="0 0 15 15" version="1.1">
<g id="surface1">
<path style=" stroke:none;fill-rule:nonzero;fill:rgb(100%,85.882353%,36.862745%);fill-opacity:1;" d="M 14.566406 7.535156 C 14.566406 7.746094 14.515625 7.941406 14.429688 8.121094 C 13.871094 9.921875 11.257812 9.789062 7.535156 9.878906 C 6.914062 9.894531 7.269531 10.628906 7.488281 12.242188 C 7.628906 13.289062 6.953125 14.898438 5.816406 14.898438 C 3.941406 14.898438 5.746094 13.421875 4.089844 9.765625 C 3.203125 7.8125 1.222656 8.90625 1.222656 6.945312 L 1.222656 2.476562 C 1.222656 1.714844 1.300781 0.980469 2.375 0.859375 C 3.414062 0.742188 3.179688 0 4.683594 0 L 12.199219 0 C 12.964844 0 13.589844 0.625 13.589844 1.390625 C 13.589844 1.707031 13.476562 1.996094 13.296875 2.230469 C 13.722656 2.46875 14.015625 2.917969 14.015625 3.4375 C 14.015625 3.753906 13.90625 4.042969 13.726562 4.277344 C 14.152344 4.515625 14.445312 4.964844 14.445312 5.484375 C 14.445312 5.863281 14.289062 6.207031 14.042969 6.460938 C 14.359375 6.714844 14.566406 7.097656 14.566406 7.535156 Z M 14.566406 7.535156 "/>
<path style=" stroke:none;fill-rule:nonzero;fill:rgb(93.333333%,58.431373%,27.843137%);fill-opacity:1;" d="M 9.589844 6.144531 L 13.175781 6.144531 C 13.664062 6.144531 14.121094 6.40625 14.371094 6.828125 C 14.472656 7 14.417969 7.222656 14.242188 7.328125 C 14.070312 7.429688 13.847656 7.371094 13.742188 7.199219 C 13.625 7 13.40625 6.875 13.175781 6.875 L 9.503906 6.875 C 9.140625 6.875 8.847656 7.171875 8.847656 7.535156 C 8.847656 7.898438 9.140625 8.195312 9.503906 8.195312 L 11.957031 8.195312 C 12.160156 8.195312 12.324219 8.359375 12.324219 8.558594 C 12.324219 8.761719 12.160156 8.921875 11.957031 8.921875 L 9.503906 8.921875 C 8.738281 8.921875 8.117188 8.300781 8.117188 7.535156 C 8.117188 7.109375 8.3125 6.730469 8.617188 6.476562 C 8.363281 6.222656 8.203125 5.871094 8.203125 5.484375 C 8.203125 5.058594 8.402344 4.679688 8.707031 4.425781 C 8.453125 4.171875 8.296875 3.824219 8.296875 3.4375 C 8.296875 2.972656 8.527344 2.558594 8.882812 2.308594 C 8.664062 2.0625 8.527344 1.742188 8.527344 1.390625 C 8.527344 0.625 9.148438 0 9.914062 0 L 12.199219 0 C 12.6875 0 13.144531 0.261719 13.394531 0.679688 C 13.5 0.851562 13.441406 1.078125 13.269531 1.179688 C 13.09375 1.28125 12.871094 1.226562 12.769531 1.054688 C 12.648438 0.851562 12.433594 0.730469 12.199219 0.730469 L 9.914062 0.730469 C 9.550781 0.730469 9.257812 1.027344 9.257812 1.390625 C 9.257812 1.753906 9.550781 2.046875 9.914062 2.046875 L 12.625 2.046875 C 13.113281 2.046875 13.574219 2.308594 13.820312 2.730469 C 13.925781 2.902344 13.867188 3.125 13.695312 3.230469 C 13.519531 3.332031 13.296875 3.273438 13.195312 3.101562 C 13.074219 2.898438 12.863281 2.777344 12.625 2.777344 L 9.683594 2.777344 C 9.320312 2.777344 9.023438 3.074219 9.023438 3.4375 C 9.023438 3.800781 9.320312 4.097656 9.683594 4.097656 L 13.054688 4.097656 C 13.542969 4.097656 14 4.359375 14.25 4.777344 C 14.351562 4.949219 14.296875 5.175781 14.121094 5.277344 C 13.949219 5.378906 13.726562 5.324219 13.621094 5.148438 C 13.503906 4.949219 13.289062 4.828125 13.054688 4.828125 L 9.589844 4.828125 C 9.226562 4.828125 8.933594 5.121094 8.933594 5.484375 C 8.933594 5.851562 9.226562 6.144531 9.589844 6.144531 Z M 9.589844 6.144531 "/>
</g>
</svg>
