<?xml version="1.0" encoding="UTF-8"?>
<svg xmlns="http://www.w3.org/2000/svg" xmlns:xlink="http://www.w3.org/1999/xlink" width="15pt" height="15pt" viewBox="0 0 15 15" version="1.1">
<g id="surface1">
<path style=" stroke:none;fill-rule:nonzero;fill:rgb(95.294118%,82.352941%,63.529412%);fill-opacity:1;" d="M 8.394531 12.917969 C 8.394531 12.917969 7.378906 12.847656 7.117188 12.171875 C 6.847656 11.480469 7.375 11.207031 7.375 11.207031 C 7.375 11.207031 6.578125 11.234375 6.28125 10.398438 C 6.003906 9.613281 6.679688 9.253906 6.679688 9.253906 C 6.679688 9.253906 5.902344 9.125 5.675781 8.296875 C 5.484375 7.601562 6.160156 7.082031 6.160156 7.082031 L 1.074219 7.082031 C 0.671875 7.082031 0 6.859375 0 6.023438 C 0 5.191406 0.691406 5 1.074219 5 L 9.613281 5 C 10.03125 5 10.03125 4.582031 9.613281 4.582031 L 8.503906 4.582031 C 6.925781 4.582031 5.945312 3.734375 5.675781 3.4375 C 5.402344 3.140625 5.265625 2.742188 5.367188 2.261719 C 5.542969 1.445312 6.167969 1.625 6.699219 1.855469 C 7.984375 2.414062 9.808594 2.796875 10.675781 2.910156 C 13.117188 3.242188 14.996094 5.332031 15 7.863281 C 15 10.625 12.792969 12.914062 10.03125 12.917969 Z M 8.394531 12.917969 "/>
</g>
</svg>
