<?xml version="1.0" encoding="UTF-8"?>
<svg xmlns="http://www.w3.org/2000/svg" xmlns:xlink="http://www.w3.org/1999/xlink" width="15pt" height="15pt" viewBox="0 0 15 15" version="1.1">
<g id="surface1">
<path style=" stroke:none;fill-rule:nonzero;fill:rgb(96.078431%,97.254902%,98.039216%);fill-opacity:1;" d="M 6.992188 7.5 C 6.992188 4.445312 5.507812 1.964844 3.679688 1.964844 C 1.847656 1.964844 0.363281 4.445312 0.363281 7.5 C 0.363281 10.554688 1.847656 13.035156 3.679688 13.035156 C 5.507812 13.035156 6.992188 10.554688 6.992188 7.5 Z M 6.992188 7.5 "/>
<path style=" stroke:none;fill-rule:nonzero;fill:rgb(88.235294%,90.980392%,92.941176%);fill-opacity:1;" d="M 3.679688 13.347656 C 1.644531 13.347656 0.0507812 10.777344 0.0507812 7.5 C 0.0507812 4.222656 1.644531 1.652344 3.679688 1.652344 C 5.710938 1.652344 7.304688 4.222656 7.304688 7.5 C 7.304688 10.777344 5.710938 13.347656 3.679688 13.347656 Z M 3.679688 2.277344 C 2.023438 2.277344 0.675781 4.621094 0.675781 7.5 C 0.675781 10.378906 2.023438 12.722656 3.679688 12.722656 C 5.332031 12.722656 6.679688 10.378906 6.679688 7.5 C 6.679688 4.621094 5.332031 2.277344 3.679688 2.277344 Z M 3.679688 2.277344 "/>
<path style=" stroke:none;fill-rule:nonzero;fill:rgb(53.333333%,60%,65.098039%);fill-opacity:1;" d="M 4.8125 7.5 C 4.8125 8.640625 3.890625 9.566406 2.746094 9.566406 C 1.605469 9.566406 0.679688 8.640625 0.679688 7.5 C 0.679688 6.359375 1.605469 5.433594 2.746094 5.433594 C 3.890625 5.433594 4.8125 6.359375 4.8125 7.5 Z M 4.8125 7.5 "/>
<path style=" stroke:none;fill-rule:nonzero;fill:rgb(16.078431%,18.431373%,20%);fill-opacity:1;" d="M 4.234375 7.5 C 4.234375 8.320312 3.566406 8.984375 2.746094 8.984375 C 1.925781 8.984375 1.261719 8.320312 1.261719 7.5 C 1.261719 6.679688 1.925781 6.015625 2.746094 6.015625 C 3.566406 6.015625 4.234375 6.679688 4.234375 7.5 Z M 4.234375 7.5 "/>
<path style=" stroke:none;fill-rule:nonzero;fill:rgb(96.078431%,97.254902%,98.039216%);fill-opacity:1;" d="M 3.890625 6.433594 C 3.890625 6.761719 3.625 7.027344 3.296875 7.027344 C 2.96875 7.027344 2.703125 6.761719 2.703125 6.433594 C 2.703125 6.105469 2.96875 5.839844 3.296875 5.839844 C 3.625 5.839844 3.890625 6.105469 3.890625 6.433594 Z M 3.890625 6.433594 "/>
<path style=" stroke:none;fill-rule:nonzero;fill:rgb(96.078431%,97.254902%,98.039216%);fill-opacity:1;" d="M 14.660156 7.5 C 14.660156 4.445312 13.175781 1.964844 11.347656 1.964844 C 9.515625 1.964844 8.035156 4.445312 8.035156 7.5 C 8.035156 10.554688 9.515625 13.035156 11.347656 13.035156 C 13.175781 13.035156 14.660156 10.554688 14.660156 7.5 Z M 14.660156 7.5 "/>
<path style=" stroke:none;fill-rule:nonzero;fill:rgb(88.235294%,90.980392%,92.941176%);fill-opacity:1;" d="M 11.347656 13.347656 C 9.3125 13.347656 7.722656 10.777344 7.722656 7.5 C 7.722656 4.222656 9.3125 1.652344 11.347656 1.652344 C 13.378906 1.652344 14.972656 4.222656 14.972656 7.5 C 14.972656 10.777344 13.378906 13.347656 11.347656 13.347656 Z M 11.347656 2.277344 C 9.691406 2.277344 8.347656 4.621094 8.347656 7.5 C 8.347656 10.378906 9.691406 12.722656 11.347656 12.722656 C 13.003906 12.722656 14.347656 10.378906 14.347656 7.5 C 14.347656 4.621094 13.003906 2.277344 11.347656 2.277344 Z M 11.347656 2.277344 "/>
<path style=" stroke:none;fill-rule:nonzero;fill:rgb(53.333333%,60%,65.098039%);fill-opacity:1;" d="M 12.484375 7.5 C 12.484375 8.640625 11.558594 9.566406 10.417969 9.566406 C 9.273438 9.566406 8.351562 8.640625 8.351562 7.5 C 8.351562 6.359375 9.273438 5.433594 10.417969 5.433594 C 11.558594 5.433594 12.484375 6.359375 12.484375 7.5 Z M 12.484375 7.5 "/>
<path style=" stroke:none;fill-rule:nonzero;fill:rgb(16.078431%,18.431373%,20%);fill-opacity:1;" d="M 11.902344 7.5 C 11.902344 8.320312 11.238281 8.984375 10.417969 8.984375 C 9.597656 8.984375 8.929688 8.320312 8.929688 7.5 C 8.929688 6.679688 9.597656 6.015625 10.417969 6.015625 C 11.238281 6.015625 11.902344 6.679688 11.902344 7.5 Z M 11.902344 7.5 "/>
<path style=" stroke:none;fill-rule:nonzero;fill:rgb(96.078431%,97.254902%,98.039216%);fill-opacity:1;" d="M 11.558594 6.433594 C 11.558594 6.761719 11.292969 7.027344 10.964844 7.027344 C 10.636719 7.027344 10.371094 6.761719 10.371094 6.433594 C 10.371094 6.105469 10.636719 5.839844 10.964844 5.839844 C 11.292969 5.839844 11.558594 6.105469 11.558594 6.433594 Z M 11.558594 6.433594 "/>
</g>
</svg>
