<?xml version="1.0" encoding="UTF-8"?>
<svg xmlns="http://www.w3.org/2000/svg" xmlns:xlink="http://www.w3.org/1999/xlink" width="15pt" height="15pt" viewBox="0 0 15 15" version="1.1">
<g id="surface1">
<path style=" stroke:none;fill-rule:nonzero;fill:rgb(96.862745%,87.058824%,80.784314%);fill-opacity:1;" d="M 12.917969 5.832031 C 12.5 8.332031 10.832031 9.167969 10.417969 11.25 C 9.746094 14.597656 7.804688 15 5.832031 15 C 2.605469 15 4.226562 11.847656 2.917969 7.917969 C 1.667969 4.167969 1.785156 1.292969 5.832031 0.417969 C 9.6875 -0.417969 13.597656 1.746094 12.917969 5.832031 Z M 12.917969 5.832031 "/>
<path style=" stroke:none;fill-rule:nonzero;fill:rgb(87.843137%,66.666667%,58.039216%);fill-opacity:1;" d="M 10 9.167969 C 9.921875 9.167969 9.839844 9.144531 9.769531 9.097656 C 9.578125 8.96875 9.527344 8.710938 9.652344 8.519531 C 9.859375 8.210938 10.058594 7.960938 10.25 7.71875 C 10.828125 6.980469 11.25 6.449219 11.25 5 C 11.25 4.078125 10.925781 3.34375 10.28125 2.8125 C 9.367188 2.0625 7.855469 1.777344 6.328125 2.074219 C 5.554688 2.226562 5 2.582031 4.632812 3.160156 C 3.773438 4.515625 4.289062 6.59375 4.292969 6.617188 C 4.351562 6.839844 4.214844 7.066406 3.992188 7.121094 C 3.769531 7.179688 3.542969 7.042969 3.484375 6.820312 C 3.460938 6.722656 2.878906 4.371094 3.929688 2.714844 C 4.417969 1.941406 5.171875 1.453125 6.171875 1.257812 C 7.933594 0.914062 9.710938 1.261719 10.8125 2.171875 C 11.644531 2.855469 12.082031 3.835938 12.082031 5 C 12.082031 6.738281 11.507812 7.464844 10.902344 8.234375 C 10.71875 8.464844 10.53125 8.703125 10.347656 8.980469 C 10.265625 9.101562 10.132812 9.167969 10 9.167969 Z M 10 9.167969 "/>
<path style=" stroke:none;fill-rule:nonzero;fill:rgb(87.843137%,66.666667%,58.039216%);fill-opacity:1;" d="M 4.828125 11.214844 C 4.675781 11.214844 4.527344 11.132812 4.453125 10.984375 C 4.222656 10.527344 4.300781 10.152344 4.40625 9.921875 C 4.632812 9.421875 5.203125 9.117188 5.625 9.007812 C 6.457031 8.726562 6.863281 7.613281 6.640625 6.847656 C 6.402344 6.027344 5.535156 5.734375 4.265625 6.046875 C 4.046875 6.101562 3.816406 5.964844 3.761719 5.742188 C 3.707031 5.519531 3.84375 5.292969 4.066406 5.238281 C 6.113281 4.734375 7.152344 5.621094 7.441406 6.617188 C 7.773438 7.765625 7.207031 9.355469 5.859375 9.804688 C 5.617188 9.871094 5.261719 10.050781 5.164062 10.265625 C 5.136719 10.328125 5.109375 10.433594 5.199219 10.613281 C 5.300781 10.816406 5.21875 11.070312 5.011719 11.171875 C 4.953125 11.203125 4.890625 11.214844 4.828125 11.214844 Z M 4.828125 11.214844 "/>
</g>
</svg>
