<?xml version="1.0" encoding="UTF-8"?>
<svg xmlns="http://www.w3.org/2000/svg" xmlns:xlink="http://www.w3.org/1999/xlink" width="15pt" height="15pt" viewBox="0 0 15 15" version="1.1">
<g id="surface1">
<path style=" stroke:none;fill-rule:nonzero;fill:rgb(100%,67.45098%,20%);fill-opacity:1;" d="M 11.667969 9.167969 C 11.4375 9.167969 11.25 8.980469 11.25 8.75 L 11.25 6.25 C 11.25 3.722656 9.566406 1.667969 7.5 1.667969 C 5.433594 1.667969 3.75 3.722656 3.75 6.25 L 3.75 8.75 C 3.75 8.980469 3.5625 9.167969 3.332031 9.167969 C 3.101562 9.167969 2.917969 8.980469 2.917969 8.75 L 2.917969 6.25 C 2.917969 3.261719 4.972656 0.832031 7.5 0.832031 C 10.027344 0.832031 12.082031 3.261719 12.082031 6.25 L 12.082031 8.75 C 12.082031 8.980469 11.898438 9.167969 11.667969 9.167969 Z M 11.667969 9.167969 "/>
<path style=" stroke:none;fill-rule:nonzero;fill:rgb(57.254902%,40%,80%);fill-opacity:1;" d="M 13.910156 5.40625 C 13.800781 4.496094 12.964844 3.75 12.046875 3.75 L 2.953125 3.75 C 2.035156 3.75 1.199219 4.496094 1.089844 5.40625 L 0.195312 12.929688 C 0.0898438 13.839844 0.75 14.582031 1.667969 14.582031 L 13.332031 14.582031 C 14.25 14.582031 14.910156 13.839844 14.804688 12.929688 Z M 13.910156 5.40625 "/>
<path style=" stroke:none;fill-rule:nonzero;fill:rgb(100%,85.098039%,51.372549%);fill-opacity:1;" d="M 11.667969 8.332031 C 11.4375 8.332031 11.25 8.148438 11.25 7.917969 L 11.25 5.417969 C 11.25 2.890625 9.566406 0.832031 7.5 0.832031 C 5.433594 0.832031 3.75 2.890625 3.75 5.417969 L 3.75 7.917969 C 3.75 8.148438 3.5625 8.332031 3.332031 8.332031 C 3.101562 8.332031 2.917969 8.148438 2.917969 7.917969 L 2.917969 5.417969 C 2.917969 2.429688 4.972656 0 7.5 0 C 10.027344 0 12.082031 2.429688 12.082031 5.417969 L 12.082031 7.917969 C 12.082031 8.148438 11.898438 8.332031 11.667969 8.332031 Z M 11.667969 8.332031 "/>
</g>
</svg>
