<?xml version="1.0" encoding="UTF-8"?>
<svg xmlns="http://www.w3.org/2000/svg" xmlns:xlink="http://www.w3.org/1999/xlink" width="15pt" height="15pt" viewBox="0 0 15 15" version="1.1">
<g id="surface1">
<path style=" stroke:none;fill-rule:nonzero;fill:rgb(95.686275%,56.470588%,4.705882%);fill-opacity:1;" d="M 5.90625 7.113281 L 2.8125 3.164062 L 1.261719 7.113281 Z M 5.90625 7.113281 "/>
<path style=" stroke:none;fill-rule:nonzero;fill:rgb(95.686275%,56.470588%,4.705882%);fill-opacity:1;" d="M 7.472656 2.304688 L 4.738281 7.46875 L 10.207031 7.46875 Z M 7.472656 2.304688 "/>
<path style=" stroke:none;fill-rule:nonzero;fill:rgb(95.686275%,56.470588%,4.705882%);fill-opacity:1;" d="M 9.09375 7.113281 L 12.1875 3.164062 L 13.738281 7.113281 Z M 9.09375 7.113281 "/>
<path style=" stroke:none;fill-rule:nonzero;fill:rgb(100%,80%,30.196078%);fill-opacity:1;" d="M 11.945312 6.328125 L 9.953125 1.46875 L 7.503906 6.328125 L 7.5 6.332031 L 7.496094 6.328125 L 5.046875 1.46875 L 3.054688 6.328125 C 1.75 4.515625 0.535156 3.351562 0.535156 3.351562 C 0.535156 3.351562 1.25 8.644531 1.25 13.75 L 13.75 13.75 C 13.75 8.644531 14.464844 3.351562 14.464844 3.351562 C 14.464844 3.351562 13.25 4.515625 11.945312 6.328125 Z M 11.945312 6.328125 "/>
<path style=" stroke:none;fill-rule:nonzero;fill:rgb(36.078431%,56.862745%,23.137255%);fill-opacity:1;" d="M 9.019531 9.167969 C 9.019531 10.015625 8.332031 10.703125 7.480469 10.703125 C 6.632812 10.703125 5.945312 10.015625 5.945312 9.167969 C 5.945312 8.316406 6.632812 7.628906 7.480469 7.628906 C 8.332031 7.628906 9.019531 8.316406 9.019531 9.167969 Z M 9.019531 9.167969 "/>
<path style=" stroke:none;fill-rule:nonzero;fill:rgb(59.607843%,10.980392%,92.156863%);fill-opacity:1;" d="M 12.03125 9.167969 C 12.03125 9.722656 11.582031 10.171875 11.027344 10.171875 C 10.472656 10.171875 10.019531 9.722656 10.019531 9.167969 C 10.019531 8.613281 10.472656 8.160156 11.027344 8.160156 C 11.582031 8.160156 12.03125 8.613281 12.03125 9.167969 Z M 12.03125 9.167969 "/>
<path style=" stroke:none;fill-rule:nonzero;fill:rgb(86.666667%,18.039216%,26.666667%);fill-opacity:1;" d="M 14.515625 9.167969 C 14.515625 9.625 14.144531 9.996094 13.6875 9.996094 C 13.230469 9.996094 12.859375 9.625 12.859375 9.167969 C 12.859375 8.710938 13.230469 8.339844 13.6875 8.339844 C 14.144531 8.339844 14.515625 8.710938 14.515625 9.167969 Z M 14.515625 9.167969 "/>
<path style=" stroke:none;fill-rule:nonzero;fill:rgb(59.607843%,10.980392%,92.156863%);fill-opacity:1;" d="M 4.941406 9.167969 C 4.941406 9.722656 4.492188 10.171875 3.9375 10.171875 C 3.382812 10.171875 2.933594 9.722656 2.933594 9.167969 C 2.933594 8.613281 3.382812 8.160156 3.9375 8.160156 C 4.492188 8.160156 4.941406 8.613281 4.941406 9.167969 Z M 4.941406 9.167969 "/>
<path style=" stroke:none;fill-rule:nonzero;fill:rgb(86.666667%,18.039216%,26.666667%);fill-opacity:1;" d="M 2.101562 9.167969 C 2.101562 9.625 1.734375 9.996094 1.277344 9.996094 C 0.820312 9.996094 0.449219 9.625 0.449219 9.167969 C 0.449219 8.710938 0.820312 8.339844 1.277344 8.339844 C 1.734375 8.339844 2.101562 8.710938 2.101562 9.167969 Z M 2.101562 9.167969 "/>
<path style=" stroke:none;fill-rule:nonzero;fill:rgb(100%,67.45098%,20%);fill-opacity:1;" d="M 13.75 14.167969 L 1.25 14.167969 C 1.019531 14.167969 0.832031 13.980469 0.832031 13.75 C 0.832031 13.519531 1.019531 13.332031 1.25 13.332031 L 13.75 13.332031 C 13.980469 13.332031 14.167969 13.519531 14.167969 13.75 C 14.167969 13.980469 13.980469 14.167969 13.75 14.167969 Z M 13.75 12.714844 L 1.25 12.714844 C 1.019531 12.714844 0.832031 12.527344 0.832031 12.296875 C 0.832031 12.066406 1.019531 11.878906 1.25 11.878906 L 13.75 11.878906 C 13.980469 11.878906 14.167969 12.066406 14.167969 12.296875 C 14.167969 12.527344 13.980469 12.714844 13.75 12.714844 Z M 13.75 12.714844 "/>
<path style=" stroke:none;fill-rule:nonzero;fill:rgb(100%,80%,30.196078%);fill-opacity:1;" d="M 1.1875 3.351562 C 1.1875 3.675781 0.925781 3.9375 0.601562 3.9375 C 0.277344 3.9375 0.015625 3.675781 0.015625 3.351562 C 0.015625 3.027344 0.277344 2.765625 0.601562 2.765625 C 0.925781 2.765625 1.1875 3.027344 1.1875 3.351562 Z M 1.1875 3.351562 "/>
<path style=" stroke:none;fill-rule:nonzero;fill:rgb(95.686275%,56.470588%,4.705882%);fill-opacity:1;" d="M 3.308594 3.164062 C 3.308594 3.4375 3.085938 3.660156 2.8125 3.660156 C 2.539062 3.660156 2.316406 3.4375 2.316406 3.164062 C 2.316406 2.890625 2.539062 2.667969 2.8125 2.667969 C 3.085938 2.667969 3.308594 2.890625 3.308594 3.164062 Z M 3.308594 3.164062 "/>
<path style=" stroke:none;fill-rule:nonzero;fill:rgb(100%,80%,30.196078%);fill-opacity:1;" d="M 5.789062 1.46875 C 5.789062 1.878906 5.457031 2.210938 5.046875 2.210938 C 4.636719 2.210938 4.304688 1.878906 4.304688 1.46875 C 4.304688 1.058594 4.636719 0.722656 5.046875 0.722656 C 5.457031 0.722656 5.789062 1.058594 5.789062 1.46875 Z M 5.789062 1.46875 "/>
<path style=" stroke:none;fill-rule:nonzero;fill:rgb(100%,80%,30.196078%);fill-opacity:1;" d="M 14.984375 3.351562 C 14.984375 3.675781 14.722656 3.9375 14.398438 3.9375 C 14.074219 3.9375 13.8125 3.675781 13.8125 3.351562 C 13.8125 3.027344 14.074219 2.765625 14.398438 2.765625 C 14.722656 2.765625 14.984375 3.027344 14.984375 3.351562 Z M 14.984375 3.351562 "/>
<path style=" stroke:none;fill-rule:nonzero;fill:rgb(95.686275%,56.470588%,4.705882%);fill-opacity:1;" d="M 12.683594 3.164062 C 12.683594 3.4375 12.460938 3.660156 12.1875 3.660156 C 11.914062 3.660156 11.691406 3.4375 11.691406 3.164062 C 11.691406 2.890625 11.914062 2.667969 12.1875 2.667969 C 12.460938 2.667969 12.683594 2.890625 12.683594 3.164062 Z M 12.683594 3.164062 "/>
<path style=" stroke:none;fill-rule:nonzero;fill:rgb(100%,80%,30.196078%);fill-opacity:1;" d="M 10.695312 1.46875 C 10.695312 1.878906 10.363281 2.210938 9.953125 2.210938 C 9.542969 2.210938 9.210938 1.878906 9.210938 1.46875 C 9.210938 1.058594 9.542969 0.722656 9.953125 0.722656 C 10.363281 0.722656 10.695312 1.058594 10.695312 1.46875 Z M 10.695312 1.46875 "/>
<path style=" stroke:none;fill-rule:nonzero;fill:rgb(95.686275%,56.470588%,4.705882%);fill-opacity:1;" d="M 8.21875 2.304688 C 8.21875 2.714844 7.882812 3.050781 7.472656 3.050781 C 7.0625 3.050781 6.730469 2.714844 6.730469 2.304688 C 6.730469 1.894531 7.0625 1.5625 7.472656 1.5625 C 7.882812 1.5625 8.21875 1.894531 8.21875 2.304688 Z M 8.21875 2.304688 "/>
</g>
</svg>
