<?xml version="1.0" encoding="UTF-8"?>
<svg xmlns="http://www.w3.org/2000/svg" xmlns:xlink="http://www.w3.org/1999/xlink" width="15pt" height="15pt" viewBox="0 0 15 15" version="1.1">
<g id="surface1">
<path style=" stroke:none;fill-rule:nonzero;fill:rgb(23.137255%,53.333333%,76.470588%);fill-opacity:1;" d="M 4.582031 0.832031 C 3.332031 0.832031 0 1.667969 0 2.5 C 0 3.332031 0.417969 5.417969 0.832031 6.25 C 1.25 7.082031 4.167969 6.25 4.582031 5.832031 C 5 5.417969 5.417969 0.832031 4.582031 0.832031 Z M 4.582031 0.832031 "/>
<path style=" stroke:none;fill-rule:nonzero;fill:rgb(33.333333%,67.45098%,93.333333%);fill-opacity:1;" d="M 0.417969 1.964844 C 0.148438 2.121094 0 2.320312 0 2.5 C 0 3.332031 0.417969 5.417969 0.832031 6.25 C 0.949219 6.484375 1.265625 6.574219 1.667969 6.605469 C 1.25 5.417969 0.832031 3.75 0.417969 1.964844 Z M 0.417969 1.964844 "/>
<path style=" stroke:none;fill-rule:nonzero;fill:rgb(23.137255%,53.333333%,76.470588%);fill-opacity:1;" d="M 10.417969 0.832031 C 11.667969 0.832031 15 1.667969 15 2.5 C 15 3.332031 14.582031 5.417969 14.167969 6.25 C 13.75 7.082031 10.832031 6.25 10.417969 5.832031 C 10 5.417969 9.582031 0.832031 10.417969 0.832031 Z M 10.417969 0.832031 "/>
<path style=" stroke:none;fill-rule:nonzero;fill:rgb(33.333333%,67.45098%,93.333333%);fill-opacity:1;" d="M 14.582031 1.964844 C 14.851562 2.121094 15 2.320312 15 2.5 C 15 3.332031 14.582031 5.417969 14.167969 6.25 C 14.050781 6.484375 13.734375 6.574219 13.332031 6.605469 C 13.75 5.417969 14.167969 3.75 14.582031 1.964844 Z M 14.582031 1.964844 "/>
<path style=" stroke:none;fill-rule:nonzero;fill:rgb(23.137255%,53.333333%,76.470588%);fill-opacity:1;" d="M 10.417969 0.832031 L 9.972656 0.832031 C 9.796875 1.539062 8.757812 2.082031 7.5 2.082031 C 6.242188 2.082031 5.203125 1.539062 5.027344 0.832031 L 4.582031 0.832031 C 3.664062 0.832031 2.5 1.578125 2.5 2.5 C 2.5 2.5 2.5 10.832031 2.082031 12.5 C 1.667969 14.167969 2.828125 14.167969 3.75 14.167969 L 11.25 14.167969 C 12.171875 14.167969 13.332031 14.167969 12.917969 12.5 C 12.5 10.832031 12.5 2.5 12.5 2.5 C 12.5 1.578125 11.335938 0.832031 10.417969 0.832031 Z M 10.417969 0.832031 "/>
<path style=" stroke:none;fill-rule:nonzero;fill:rgb(33.333333%,67.45098%,93.333333%);fill-opacity:1;" d="M 7.5 2.917969 C 9.109375 2.917969 10.417969 1.984375 10.417969 0.832031 L 9.972656 0.832031 C 9.796875 1.539062 8.757812 2.082031 7.5 2.082031 C 6.242188 2.082031 5.203125 1.539062 5.027344 0.832031 L 4.582031 0.832031 C 4.582031 1.984375 5.890625 2.917969 7.5 2.917969 Z M 7.5 2.917969 "/>
</g>
</svg>
