<?xml version="1.0" encoding="UTF-8"?>
<svg xmlns="http://www.w3.org/2000/svg" xmlns:xlink="http://www.w3.org/1999/xlink" width="15pt" height="15pt" viewBox="0 0 15 15" version="1.1">
<g id="surface1">
<path style=" stroke:none;fill-rule:nonzero;fill:rgb(57.647059%,58.431373%,59.607843%);fill-opacity:1;" d="M 7.566406 0.777344 C 7.570312 1.191406 7.230469 1.535156 6.808594 1.53125 C 6.390625 1.527344 6.066406 1.183594 6.082031 0.765625 C 6.097656 0.359375 6.4375 0.0390625 6.839844 0.0429688 C 7.238281 0.046875 7.566406 0.371094 7.566406 0.777344 Z M 7.566406 0.777344 "/>
<path style=" stroke:none;fill-rule:nonzero;fill:rgb(81.960784%,82.745098%,83.137255%);fill-opacity:1;" d="M 14.097656 6.046875 C 15.261719 12.796875 15.359375 13.375 8.132812 13.328125 L 6.734375 13.320312 C 0.445312 13.277344 -0.488281 13.25 0.777344 5.964844 C 1.316406 2.855469 3.976562 1.269531 6.925781 1.289062 L 7.957031 1.296875 C 10.902344 1.3125 13.5625 2.933594 14.097656 6.046875 Z M 14.097656 6.046875 "/>
<path style=" stroke:none;fill-rule:nonzero;fill:rgb(81.960784%,82.745098%,83.137255%);fill-opacity:1;" d="M 8.460938 0.78125 C 8.472656 1.199219 8.140625 1.539062 7.722656 1.535156 C 7.300781 1.535156 6.96875 1.1875 6.972656 0.773438 C 6.980469 0.367188 7.308594 0.046875 7.710938 0.046875 C 8.113281 0.0507812 8.449219 0.375 8.460938 0.78125 Z M 8.460938 0.78125 "/>
<path style=" stroke:none;fill-rule:nonzero;fill:rgb(91.764706%,34.901961%,43.137255%);fill-opacity:1;" d="M 14.316406 7.175781 C 15.566406 14.417969 15.667969 15.035156 8.160156 14.988281 L 6.707031 14.976562 C 0.167969 14.9375 -0.800781 14.910156 0.558594 7.085938 C 1.132812 3.777344 3.878906 2.097656 6.910156 2.117188 L 7.972656 2.125 C 11.003906 2.144531 13.746094 3.859375 14.316406 7.175781 Z M 14.316406 7.175781 "/>
<path style=" stroke:none;fill-rule:nonzero;fill:rgb(86.666667%,18.039216%,26.666667%);fill-opacity:1;" d="M 6.726562 2.492188 C 6.726562 2.492188 3.925781 5.707031 4.648438 6.511719 C 5.402344 7.351562 6.726562 2.492188 6.726562 2.492188 Z M 7.667969 2.496094 C 7.667969 2.496094 10.417969 5.75 9.683594 6.542969 C 8.917969 7.375 7.667969 2.496094 7.667969 2.496094 Z M 7.667969 2.496094 "/>
</g>
</svg>
