<?xml version="1.0" encoding="UTF-8"?>
<svg xmlns="http://www.w3.org/2000/svg" xmlns:xlink="http://www.w3.org/1999/xlink" width="15pt" height="15pt" viewBox="0 0 15 15" version="1.1">
<g id="surface1">
<path style=" stroke:none;fill-rule:nonzero;fill:rgb(53.333333%,60%,65.098039%);fill-opacity:1;" d="M 10.066406 4.234375 L 9.785156 3.386719 C 9.730469 3.261719 9.582031 3.210938 9.460938 3.273438 C 9.078125 3.476562 8.234375 3.824219 7.925781 3.929688 C 8.515625 4.140625 9.382812 4.554688 9.804688 4.511719 C 9.964844 4.496094 10.132812 4.382812 10.066406 4.234375 Z M 14.320312 14.476562 C 14.15625 14.570312 11.609375 15.179688 6.5625 10.765625 C 5.035156 9.425781 0.5 5.367188 0.558594 5.226562 C 0.558594 5.226562 0.421875 5.378906 0.308594 5.535156 C 0.226562 5.648438 0.175781 5.765625 0.195312 5.886719 C 0.324219 6.707031 1.492188 7.480469 3.09375 8.714844 L 3.324219 8.890625 L 3.472656 9.003906 C 3.71875 9.195312 4.441406 9.761719 5.277344 10.421875 C 6.425781 11.328125 8.730469 13.128906 8.796875 13.175781 C 9.679688 13.832031 10.726562 14.351562 11.992188 14.707031 C 13.589844 15.15625 14.320312 14.476562 14.320312 14.476562 Z M 14.320312 14.476562 "/>
<path style=" stroke:none;fill-rule:nonzero;fill:rgb(74.509804%,9.803922%,19.215686%);fill-opacity:1;" d="M 14.320312 14.476562 C 14.320312 14.476562 14.519531 14.382812 14.726562 14.09375 C 14.929688 13.800781 15.054688 13.289062 14.746094 12.738281 C 14.433594 12.1875 13.304688 10.605469 12.933594 9.960938 C 12.753906 9.644531 12.808594 9.355469 12.464844 8.777344 C 12.464844 8.777344 11.148438 6.476562 10.855469 5.976562 C 10.230469 4.90625 10.503906 4.351562 10.089844 4.03125 C 9.8125 3.820312 7.046875 4.101562 6.203125 3.453125 C 5.621094 3.003906 5.613281 1.609375 5.367188 1.152344 C 5.175781 0.785156 4.527344 0.953125 4.082031 1.195312 C 3.636719 1.441406 2.425781 2.777344 2.132812 3.15625 C 1.84375 3.535156 1.46875 3.953125 1.433594 4.375 L 1.402344 4.800781 C 1.402344 4.800781 8.011719 11.113281 9.890625 12.386719 C 13.097656 14.558594 14.320312 14.476562 14.320312 14.476562 Z M 14.320312 14.476562 "/>
<path style=" stroke:none;fill-rule:nonzero;fill:rgb(62.745098%,1.568627%,11.764706%);fill-opacity:1;" d="M 10.308594 4.359375 C 10.265625 4.230469 10.203125 4.121094 10.089844 4.03125 C 9.8125 3.820312 7.046875 4.101562 6.203125 3.453125 C 5.621094 3.003906 5.613281 1.609375 5.367188 1.152344 C 5.292969 1.007812 5.148438 0.949219 4.972656 0.941406 C 5.257812 1.523438 5.230469 3.265625 5.933594 3.804688 C 6.785156 4.460938 9.277344 4.277344 10.308594 4.359375 Z M 10.308594 4.359375 "/>
<path style=" stroke:none;fill-rule:nonzero;fill:rgb(86.666667%,18.039216%,26.666667%);fill-opacity:1;" d="M 5.527344 7.445312 C 5.738281 6.832031 5.960938 5.398438 5.558594 4.546875 C 5.179688 3.746094 3.707031 2.066406 3.429688 1.746094 C 2.910156 2.207031 2.222656 3.011719 2.011719 3.28125 C 1.738281 3.640625 1.40625 4.042969 1.390625 4.449219 C 1.382812 4.597656 1.425781 4.664062 1.425781 4.664062 C 1.425781 4.664062 5.519531 7.472656 5.527344 7.445312 Z M 5.527344 7.445312 "/>
<path style=" stroke:none;fill-rule:nonzero;fill:rgb(80%,83.921569%,86.666667%);fill-opacity:1;" d="M 9.628906 5.941406 C 9.488281 5.941406 9.355469 5.855469 9.304688 5.71875 C 9.234375 5.539062 9.320312 5.335938 9.5 5.265625 L 10.261719 4.96875 C 10.4375 4.898438 10.644531 4.984375 10.714844 5.164062 C 10.785156 5.34375 10.695312 5.546875 10.515625 5.617188 L 9.753906 5.914062 C 9.714844 5.933594 9.671875 5.941406 9.628906 5.941406 Z M 10.1875 7.214844 C 10.066406 7.214844 9.949219 7.152344 9.886719 7.039062 C 9.789062 6.875 9.847656 6.660156 10.015625 6.5625 L 10.761719 6.132812 C 10.929688 6.039062 11.144531 6.097656 11.238281 6.261719 C 11.335938 6.429688 11.277344 6.644531 11.109375 6.738281 L 10.363281 7.167969 C 10.308594 7.203125 10.25 7.214844 10.1875 7.214844 Z M 10.949219 8.363281 C 10.839844 8.363281 10.734375 8.3125 10.667969 8.222656 C 10.550781 8.066406 10.585938 7.847656 10.738281 7.734375 L 11.371094 7.261719 C 11.523438 7.148438 11.742188 7.179688 11.859375 7.335938 C 11.972656 7.488281 11.941406 7.707031 11.785156 7.824219 L 11.15625 8.292969 C 11.09375 8.339844 11.019531 8.363281 10.949219 8.363281 Z M 11.757812 9.433594 C 11.65625 9.433594 11.558594 9.390625 11.488281 9.304688 C 11.367188 9.15625 11.386719 8.9375 11.535156 8.8125 L 12.019531 8.417969 C 12.167969 8.296875 12.386719 8.316406 12.511719 8.46875 C 12.632812 8.617188 12.609375 8.835938 12.460938 8.960938 L 11.980469 9.355469 C 11.914062 9.40625 11.835938 9.433594 11.757812 9.433594 Z M 1.332031 4.484375 C 1.332031 4.484375 1.613281 4.738281 1.925781 4.785156 C 2.238281 4.832031 2.792969 5.183594 3.175781 5.472656 C 3.554688 5.765625 5.007812 6.847656 5.898438 7.742188 C 6.785156 8.640625 8.1875 10.484375 8.730469 11.019531 C 9.273438 11.554688 10.152344 12.347656 10.902344 12.832031 C 11.652344 13.3125 12.34375 13.71875 12.785156 13.949219 C 13.355469 14.246094 13.882812 14.425781 14.320312 14.476562 C 14.167969 14.566406 13.359375 14.871094 11.949219 14.390625 C 10.605469 13.929688 9.730469 13.433594 9.003906 12.894531 C 8.28125 12.355469 4.335938 9.226562 3.6875 8.726562 C 3.042969 8.230469 1.109375 6.757812 0.804688 6.316406 C 0.371094 5.691406 0.390625 5.417969 0.476562 5.308594 C 0.679688 5.039062 1.113281 4.316406 1.332031 4.484375 Z M 1.332031 4.484375 "/>
<path style=" stroke:none;fill-rule:nonzero;fill:rgb(86.666667%,18.039216%,26.666667%);fill-opacity:1;" d="M 14.746094 12.738281 C 14.433594 12.1875 13.304688 10.605469 12.933594 9.960938 C 12.859375 9.832031 12.828125 9.710938 12.789062 9.570312 C 12.75 9.585938 12.710938 9.59375 12.675781 9.617188 C 12.195312 9.945312 12.199219 10.945312 12.914062 11.988281 C 13.488281 12.824219 14.410156 13.464844 14.929688 13.476562 C 14.9375 13.253906 14.890625 13 14.746094 12.738281 Z M 14.746094 12.738281 "/>
</g>
</svg>
