<?xml version="1.0" encoding="UTF-8"?>
<svg xmlns="http://www.w3.org/2000/svg" xmlns:xlink="http://www.w3.org/1999/xlink" width="15pt" height="15pt" viewBox="0 0 15 15" version="1.1">
<g id="surface1">
<path style=" stroke:none;fill-rule:nonzero;fill:rgb(19.215686%,21.568627%,23.921569%);fill-opacity:1;" d="M 14.871094 4.972656 C 14.65625 4.753906 12.023438 4.515625 9.34375 4.816406 C 8.808594 4.878906 8.773438 5.03125 7.5 5.078125 C 6.222656 5.03125 6.191406 4.878906 5.65625 4.816406 C 2.976562 4.515625 0.339844 4.753906 0.128906 4.972656 C 0.0234375 5.078125 0.0234375 5.835938 0.128906 5.945312 C 0.234375 6.054688 0.558594 6.199219 0.714844 6.707031 C 0.8125 7.035156 0.921875 9.148438 1.664062 9.78125 C 2.402344 10.40625 4.773438 10.289062 5.550781 9.890625 C 6.605469 9.347656 6.753906 7.480469 6.921875 6.707031 C 7.007812 6.316406 7.40625 6.285156 7.5 6.285156 C 7.589844 6.285156 7.992188 6.316406 8.074219 6.707031 C 8.242188 7.480469 8.390625 9.347656 9.449219 9.890625 C 10.222656 10.289062 12.597656 10.40625 13.332031 9.78125 C 14.078125 9.148438 14.183594 7.035156 14.285156 6.707031 C 14.4375 6.199219 14.761719 6.054688 14.867188 5.945312 C 14.972656 5.835938 14.972656 5.078125 14.871094 4.972656 Z M 14.871094 4.972656 "/>
<path style=" stroke:none;fill-rule:nonzero;fill:rgb(33.333333%,67.45098%,93.333333%);fill-opacity:1;" d="M 6.101562 6.542969 C 6.0625 7.0625 5.882812 8.609375 5.371094 9.074219 C 4.796875 9.59375 2.765625 9.730469 2.125 9.09375 C 1.785156 8.761719 1.472656 7.421875 1.496094 6.253906 C 1.511719 5.554688 2.445312 5.414062 3.773438 5.414062 C 5.085938 5.414062 6.175781 5.609375 6.101562 6.542969 Z M 8.894531 6.542969 C 8.9375 7.0625 9.113281 8.609375 9.628906 9.074219 C 10.203125 9.59375 12.234375 9.730469 12.875 9.09375 C 13.210938 8.761719 13.527344 7.421875 13.5 6.253906 C 13.484375 5.554688 12.554688 5.414062 11.222656 5.414062 C 9.914062 5.414062 8.824219 5.609375 8.894531 6.542969 Z M 8.894531 6.542969 "/>
</g>
</svg>
