<?xml version="1.0" encoding="UTF-8"?>
<svg xmlns="http://www.w3.org/2000/svg" xmlns:xlink="http://www.w3.org/1999/xlink" width="15pt" height="15pt" viewBox="0 0 15 15" version="1.1">
<g id="surface1">
<path style=" stroke:none;fill-rule:nonzero;fill:rgb(23.137255%,53.333333%,76.470588%);fill-opacity:1;" d="M 8.410156 0 L 4.167969 0 L 4.167969 1.902344 L 1.589844 14.035156 L 4.808594 15 L 7.480469 5.339844 Z M 8.410156 0 "/>
<path style=" stroke:none;fill-rule:nonzero;fill:rgb(23.137255%,53.333333%,76.470588%);fill-opacity:1;" d="M 6.589844 0 L 10.832031 0 L 10.832031 1.902344 L 13.410156 14.035156 L 10.1875 15 L 7.519531 5.339844 Z M 6.589844 0 "/>
<path style=" stroke:none;fill-rule:nonzero;fill:rgb(13.333333%,40%,60%);fill-opacity:1;" d="M 4.167969 0.832031 L 10.832031 0.832031 L 10.832031 1.667969 L 4.167969 1.667969 Z M 7.917969 5 L 7.082031 5 L 5.417969 4.167969 L 9.582031 4.167969 Z M 7.917969 5 "/>
<path style=" stroke:none;fill-rule:nonzero;fill:rgb(13.333333%,40%,60%);fill-opacity:1;" d="M 5 0 L 5.832031 0 L 5.832031 1.25 L 5 1.25 Z M 9.167969 0 L 10 0 L 10 1.25 L 9.167969 1.25 Z M 6.667969 1.667969 L 7.5 1.667969 L 7.5 4.582031 L 6.667969 4.582031 Z M 6.667969 1.667969 "/>
</g>
</svg>
