<?xml version="1.0" encoding="UTF-8"?>
<svg xmlns="http://www.w3.org/2000/svg" xmlns:xlink="http://www.w3.org/1999/xlink" width="15pt" height="15pt" viewBox="0 0 15 15" version="1.1">
<g id="surface1">
<path style=" stroke:none;fill-rule:nonzero;fill:rgb(53.333333%,78.823529%,97.647059%);fill-opacity:1;" d="M 15 13.332031 C 15 14.253906 14.253906 15 13.332031 15 L 1.667969 15 C 0.746094 15 0 14.253906 0 13.332031 L 0 1.667969 C 0 0.746094 0.746094 0 1.667969 0 L 13.332031 0 C 14.253906 0 15 0.746094 15 1.667969 Z M 15 13.332031 "/>
<path style=" stroke:none;fill-rule:nonzero;fill:rgb(86.666667%,18.039216%,26.666667%);fill-opacity:1;" d="M 8.058594 14.773438 C 7.75 15.074219 7.25 15.074219 6.941406 14.773438 L 4.179688 12.050781 C 3.871094 11.75 3.789062 11.207031 3.996094 10.84375 L 7.121094 3.15625 C 7.328125 2.792969 7.671875 2.792969 7.878906 3.15625 L 11.003906 10.84375 C 11.210938 11.207031 11.128906 11.75 10.820312 12.050781 Z M 8.058594 14.773438 "/>
<path style=" stroke:none;fill-rule:nonzero;fill:rgb(62.745098%,1.568627%,11.764706%);fill-opacity:1;" d="M 7.5 6.113281 C 7.894531 6.113281 8.335938 5.714844 8.707031 5.199219 L 7.878906 3.15625 C 7.667969 2.792969 7.328125 2.792969 7.121094 3.15625 L 6.292969 5.199219 C 6.664062 5.714844 7.105469 6.113281 7.5 6.113281 Z M 7.5 6.113281 "/>
<path style=" stroke:none;fill-rule:nonzero;fill:rgb(86.666667%,18.039216%,26.666667%);fill-opacity:1;" d="M 9.582031 2.40625 C 9.582031 3.226562 8.421875 5.371094 7.5 5.371094 C 6.578125 5.371094 5.417969 3.226562 5.417969 2.40625 C 5.417969 1.664062 6.578125 1.25 7.5 1.25 C 8.421875 1.25 9.582031 1.664062 9.582031 2.40625 Z M 9.582031 2.40625 "/>
<path style=" stroke:none;fill-rule:nonzero;fill:rgb(29.803922%,62.745098%,82.745098%);fill-opacity:1;" d="M 0 1.667969 L 0 2.605469 C 0.863281 3.761719 2.824219 5.835938 3.332031 5.835938 C 4.253906 5.835938 7.917969 1.335938 7.917969 0.417969 C 7.917969 0 7.5 0 7.082031 0 L 1.667969 0 C 0.746094 0 0 0.746094 0 1.667969 Z M 0 1.667969 "/>
<path style=" stroke:none;fill-rule:nonzero;fill:rgb(29.803922%,62.745098%,82.745098%);fill-opacity:1;" d="M 7.082031 0.417969 C 7.082031 1.335938 10.746094 5.835938 11.667969 5.835938 C 12.175781 5.835938 14.136719 3.761719 15 2.605469 L 15 1.667969 C 15 0.746094 14.253906 0 13.332031 0 L 7.917969 0 C 7.5 0 7.082031 0 7.082031 0.417969 Z M 7.082031 0.417969 "/>
<path style=" stroke:none;fill-rule:nonzero;fill:rgb(13.333333%,40%,60%);fill-opacity:1;" d="M 1.667969 0 C 1.554688 0 1.449219 0.0117188 1.34375 0.03125 C 1.835938 0.722656 4.402344 1.25 7.5 1.25 C 10.597656 1.25 13.164062 0.722656 13.65625 0.03125 C 13.550781 0.0117188 13.445312 0 13.332031 0 Z M 1.667969 0 "/>
</g>
</svg>
