<?xml version="1.0" encoding="UTF-8"?>
<svg xmlns="http://www.w3.org/2000/svg" xmlns:xlink="http://www.w3.org/1999/xlink" width="15pt" height="15pt" viewBox="0 0 15 15" version="1.1">
<g id="surface1">
<path style=" stroke:none;fill-rule:nonzero;fill:rgb(71.764706%,54.509804%,37.647059%);fill-opacity:1;" d="M 6.367188 8.441406 L 5.589844 6.914062 L 4 3.535156 C 3.882812 3.28125 3.523438 3.195312 3.199219 3.347656 L 3.171875 3.359375 C 2.890625 3.492188 2.726562 3.761719 2.773438 3.996094 C 2.773438 3.996094 2.242188 3.519531 1.929688 3.664062 L 1.902344 3.675781 C 1.589844 3.820312 1.433594 4.148438 1.554688 4.410156 L 1.777344 4.90625 C 1.652344 4.636719 1.28125 4.542969 0.953125 4.699219 L 0.925781 4.710938 C 0.59375 4.867188 0.425781 5.207031 0.550781 5.476562 L 2.691406 10.957031 L 5.519531 11.042969 Z M 14.105469 4.710938 L 14.078125 4.699219 C 13.746094 4.542969 13.378906 4.636719 13.253906 4.90625 L 13.472656 4.410156 C 13.59375 4.148438 13.441406 3.820312 13.128906 3.675781 L 13.101562 3.664062 C 12.789062 3.519531 12.441406 3.613281 12.320312 3.871094 L 12.257812 3.996094 C 12.304688 3.761719 12.140625 3.492188 11.859375 3.359375 L 11.832031 3.347656 C 11.507812 3.199219 11.148438 3.28125 11.03125 3.535156 L 9.410156 6.917969 L 8.785156 8.316406 L 9.894531 11.160156 L 12.582031 9.546875 L 14.476562 5.476562 C 14.605469 5.210938 14.4375 4.867188 14.105469 4.710938 Z M 14.105469 4.710938 "/>
<path style=" stroke:none;fill-rule:nonzero;fill:rgb(83.529412%,67.058824%,53.333333%);fill-opacity:1;" d="M 14.921875 6.53125 C 14.921875 6.53125 15.191406 6.09375 14.730469 5.878906 C 14.269531 5.667969 14.113281 6.15625 14.113281 6.15625 L 13.117188 8.296875 C 13.058594 8.230469 12.824219 8.082031 12.757812 8.015625 L 14.136719 5.042969 C 14.136719 5.042969 14.410156 4.609375 13.949219 4.394531 C 13.488281 4.179688 13.332031 4.667969 13.332031 4.667969 L 12.03125 7.464844 C 11.957031 7.421875 11.769531 7.328125 11.691406 7.289062 L 13.199219 4.046875 C 13.199219 4.046875 13.472656 3.613281 13.011719 3.398438 C 12.550781 3.183594 12.394531 3.671875 12.394531 3.671875 L 10.886719 6.914062 C 10.804688 6.878906 10.554688 6.773438 10.472656 6.746094 L 11.882812 3.714844 C 11.882812 3.714844 12.152344 3.28125 11.691406 3.066406 C 11.230469 2.851562 11.074219 3.339844 11.074219 3.339844 L 9.585938 6.542969 L 9.464844 6.800781 L 9.414062 6.914062 C 10.796875 7.558594 11.28125 9.253906 10.746094 10.410156 C 10.640625 10.640625 10.253906 10.535156 10.253906 10.535156 C 10.898438 9.148438 10.40625 7.796875 9.019531 7.15625 L 9.082031 5.261719 C 9.082031 5.261719 9.136719 4.753906 8.632812 4.699219 C 8.125 4.644531 8.070312 5.148438 8.070312 5.148438 L 7.855469 6.476562 C 7.773438 7 7.675781 7.527344 7.519531 8.035156 C 7.074219 9.472656 7.75 11.050781 9.152344 11.703125 C 10.679688 12.414062 12.496094 11.75 13.207031 10.222656 L 13.3125 9.992188 Z M 14.921875 6.53125 "/>
<path style=" stroke:none;fill-rule:nonzero;fill:rgb(83.529412%,67.058824%,53.333333%);fill-opacity:1;" d="M 0.078125 6.53125 C 0.078125 6.53125 -0.191406 6.09375 0.269531 5.878906 C 0.730469 5.667969 0.886719 6.15625 0.886719 6.15625 L 1.882812 8.296875 C 1.941406 8.230469 2.175781 8.082031 2.242188 8.015625 L 0.863281 5.042969 C 0.863281 5.042969 0.589844 4.609375 1.050781 4.394531 C 1.511719 4.179688 1.667969 4.667969 1.667969 4.667969 L 2.96875 7.464844 C 3.042969 7.421875 3.230469 7.328125 3.308594 7.289062 L 1.800781 4.046875 C 1.800781 4.046875 1.527344 3.613281 1.988281 3.398438 C 2.453125 3.183594 2.609375 3.671875 2.609375 3.671875 L 4.117188 6.914062 C 4.195312 6.878906 4.449219 6.773438 4.527344 6.746094 L 3.117188 3.714844 C 3.117188 3.714844 2.847656 3.28125 3.308594 3.066406 C 3.769531 2.851562 3.925781 3.339844 3.925781 3.339844 L 5.414062 6.542969 L 5.535156 6.800781 L 5.589844 6.914062 C 4.203125 7.558594 3.71875 9.253906 4.253906 10.410156 C 4.363281 10.640625 4.746094 10.535156 4.746094 10.535156 C 4.101562 9.148438 4.597656 7.796875 5.980469 7.15625 L 5.921875 5.261719 C 5.921875 5.261719 5.863281 4.753906 6.371094 4.699219 C 6.875 4.644531 6.933594 5.148438 6.933594 5.148438 L 7.144531 6.476562 C 7.226562 7 7.324219 7.527344 7.480469 8.035156 C 7.925781 9.472656 7.25 11.050781 5.847656 11.703125 C 4.320312 12.414062 2.503906 11.75 1.792969 10.222656 L 1.6875 9.992188 Z M 0.078125 6.53125 "/>
</g>
</svg>
