<?xml version="1.0" encoding="UTF-8"?>
<svg xmlns="http://www.w3.org/2000/svg" xmlns:xlink="http://www.w3.org/1999/xlink" width="15pt" height="15pt" viewBox="0 0 15 15" version="1.1">
<g id="surface1">
<path style=" stroke:none;fill-rule:nonzero;fill:rgb(16.470588%,40.392157%,59.215686%);fill-opacity:1;" d="M 13.332031 15 L 13.332031 14.582031 C 13.332031 12.917969 11.796875 11.667969 10.417969 11.667969 L 4.582031 11.667969 C 3.203125 11.667969 1.667969 12.917969 1.667969 14.582031 L 1.667969 15 Z M 13.332031 15 "/>
<path style=" stroke:none;fill-rule:nonzero;fill:rgb(16.470588%,40.392157%,59.215686%);fill-opacity:1;" d="M 12.5 3.125 C 12.5 1.398438 10.261719 0 7.5 0 C 4.738281 0 2.5 1.398438 2.5 3.125 C 2.5 4.851562 4.738281 6.25 7.5 6.25 C 10.261719 6.25 12.5 4.851562 12.5 3.125 Z M 12.5 3.125 "/>
<path style=" stroke:none;fill-rule:nonzero;fill:rgb(96.862745%,87.058824%,80.784314%);fill-opacity:1;" d="M 5.683594 11.707031 C 5.683594 11.707031 6.871094 12.527344 7.5 12.527344 C 8.128906 12.527344 9.316406 11.707031 9.316406 11.707031 L 9.316406 10.121094 L 5.683594 10.121094 Z M 5.683594 11.707031 "/>
<path style=" stroke:none;fill-rule:nonzero;fill:rgb(93.333333%,76.078431%,67.843137%);fill-opacity:1;" d="M 5.679688 10.710938 C 6.1875 11.28125 6.816406 11.4375 7.5 11.4375 C 8.179688 11.4375 8.808594 11.28125 9.316406 10.710938 L 9.316406 9.253906 L 5.679688 9.253906 Z M 5.679688 10.710938 "/>
<path style=" stroke:none;fill-rule:nonzero;fill:rgb(16.078431%,18.431373%,20%);fill-opacity:1;" d="M 3.75 3.542969 C 3.597656 3.835938 3.296875 4.152344 3.253906 4.496094 C 3.078125 5.933594 3.472656 6.597656 3.613281 7.679688 C 3.769531 8.902344 4.429688 9.296875 4.957031 9.460938 C 5.710938 10.503906 6.515625 10.460938 7.867188 10.460938 C 10.503906 10.460938 11.652344 8.589844 11.765625 5.453125 C 11.789062 4.734375 11.609375 4.109375 11.324219 3.542969 Z M 3.75 3.542969 "/>
<path style=" stroke:none;fill-rule:nonzero;fill:rgb(96.862745%,87.058824%,80.784314%);fill-opacity:1;" d="M 10.484375 5.613281 C 10.226562 5.242188 9.902344 4.945312 9.183594 4.839844 C 9.453125 4.96875 9.710938 5.414062 9.746094 5.660156 C 9.777344 5.90625 9.8125 6.105469 9.597656 5.859375 C 8.746094 4.875 7.820312 5.261719 6.898438 4.660156 C 6.257812 4.238281 6.0625 3.773438 6.0625 3.773438 C 6.0625 3.773438 5.984375 4.394531 5.011719 5.027344 C 4.726562 5.210938 4.390625 5.621094 4.203125 6.222656 C 4.070312 6.65625 4.113281 7.042969 4.113281 7.703125 C 4.113281 9.628906 5.628906 11.25 7.503906 11.25 C 9.375 11.25 10.894531 9.613281 10.894531 7.703125 C 10.894531 6.503906 10.773438 6.035156 10.484375 5.613281 Z M 10.484375 5.613281 "/>
<path style=" stroke:none;fill-rule:nonzero;fill:rgb(75.686275%,41.176471%,30.980392%);fill-opacity:1;" d="M 7.5 10.195312 C 6.351562 10.195312 6 9.902344 5.941406 9.839844 C 5.835938 9.734375 5.835938 9.5625 5.941406 9.453125 C 6.042969 9.351562 6.210938 9.347656 6.316406 9.445312 C 6.339844 9.460938 6.617188 9.648438 7.5 9.648438 C 8.417969 9.648438 8.683594 9.445312 8.683594 9.445312 C 8.789062 9.339844 8.957031 9.34375 9.066406 9.449219 C 9.171875 9.558594 9.164062 9.734375 9.058594 9.839844 C 9 9.902344 8.648438 10.195312 7.5 10.195312 M 7.875 8.6875 L 7.121094 8.6875 C 7.019531 8.6875 6.933594 8.597656 6.933594 8.488281 C 6.933594 8.378906 7.019531 8.292969 7.121094 8.292969 L 7.875 8.292969 C 7.980469 8.292969 8.066406 8.378906 8.066406 8.488281 C 8.066406 8.597656 7.980469 8.6875 7.875 8.6875 Z M 7.875 8.6875 "/>
<path style=" stroke:none;fill-rule:nonzero;fill:rgb(40%,12.941176%,7.45098%);fill-opacity:1;" d="M 5.992188 7.308594 C 5.785156 7.308594 5.617188 7.128906 5.617188 6.914062 L 5.617188 6.519531 C 5.617188 6.300781 5.785156 6.125 5.992188 6.125 C 6.199219 6.125 6.371094 6.300781 6.371094 6.519531 L 6.371094 6.914062 C 6.371094 7.128906 6.199219 7.308594 5.992188 7.308594 Z M 9.007812 7.308594 C 8.800781 7.308594 8.628906 7.128906 8.628906 6.914062 L 8.628906 6.519531 C 8.628906 6.300781 8.800781 6.125 9.007812 6.125 C 9.214844 6.125 9.382812 6.300781 9.382812 6.519531 L 9.382812 6.914062 C 9.382812 7.128906 9.214844 7.308594 9.007812 7.308594 Z M 9.007812 7.308594 "/>
<path style=" stroke:none;fill-rule:nonzero;fill:rgb(16.470588%,40.392157%,59.215686%);fill-opacity:1;" d="M 3.542969 3.332031 L 3.542969 3.75 C 3.542969 4.210938 5.3125 4.582031 7.5 4.582031 C 9.6875 4.582031 11.457031 4.210938 11.457031 3.75 L 11.457031 3.332031 Z M 3.542969 3.332031 "/>
<path style=" stroke:none;fill-rule:nonzero;fill:rgb(25.882353%,53.72549%,75.686275%);fill-opacity:1;" d="M 11.25 3.332031 L 11.25 2.5 C 11.25 2.5 9.6875 1.5625 7.5 1.5625 C 5.3125 1.5625 3.75 2.5 3.75 2.5 L 3.75 3.332031 Z M 11.25 3.332031 "/>
<path style=" stroke:none;fill-rule:nonzero;fill:rgb(99.215686%,79.607843%,34.509804%);fill-opacity:1;" d="M 11.457031 3.332031 L 3.542969 3.332031 C 3.425781 3.332031 3.332031 3.425781 3.332031 3.542969 C 3.332031 3.65625 3.425781 3.75 3.542969 3.75 L 11.457031 3.75 C 11.574219 3.75 11.667969 3.65625 11.667969 3.542969 C 11.667969 3.425781 11.574219 3.332031 11.457031 3.332031 Z M 11.457031 3.332031 "/>
<path style=" stroke:none;fill-rule:nonzero;fill:rgb(9.803922%,23.921569%,34.901961%);fill-opacity:1;" d="M 8.3125 13.449219 C 8.679688 13.707031 9.066406 13.96875 9.207031 14.023438 C 9.214844 14.027344 9.210938 13.976562 9.210938 13.976562 C 8.394531 13.019531 7.507812 12.503906 7.507812 12.503906 L 7.515625 12.5 L 7.496094 12.5 L 7.5 12.503906 C 7.5 12.503906 6.628906 13.015625 5.820312 13.953125 C 5.824219 13.996094 5.835938 14.019531 5.851562 14.011719 C 5.976562 13.945312 6.339844 13.691406 6.695312 13.441406 C 6.714844 13.488281 6.730469 13.527344 6.742188 13.554688 C 6.808594 13.671875 6.964844 13.933594 6.964844 13.933594 C 6.964844 13.933594 6.648438 14.167969 6.53125 15 L 8.476562 15 C 8.359375 14.335938 8.046875 13.933594 8.046875 13.933594 C 8.046875 13.933594 8.203125 13.671875 8.269531 13.554688 C 8.28125 13.53125 8.296875 13.492188 8.3125 13.449219 Z M 8.3125 13.449219 "/>
<path style=" stroke:none;fill-rule:nonzero;fill:rgb(25.882353%,53.72549%,75.686275%);fill-opacity:1;" d="M 7.5 12.503906 C 7.5 12.503906 7.496094 12.5 7.496094 12.5 C 7.445312 12.464844 5.769531 11.328125 5.539062 11.09375 C 5.425781 10.980469 5.132812 11.472656 5.140625 11.597656 C 5.15625 12.046875 5.714844 14.070312 5.796875 13.976562 L 5.820312 13.953125 C 6.628906 13.011719 7.5 12.503906 7.5 12.503906 Z M 7.507812 12.503906 C 7.507812 12.503906 8.394531 13.019531 9.210938 13.976562 C 9.210938 13.976562 9.214844 13.972656 9.21875 13.972656 C 9.316406 13.984375 9.851562 12.039062 9.871094 11.597656 C 9.875 11.472656 9.582031 10.980469 9.472656 11.09375 C 9.238281 11.324219 7.570312 12.460938 7.515625 12.5 Z M 7.507812 12.503906 "/>
<path style=" stroke:none;fill-rule:nonzero;fill:rgb(11.764706%,29.411765%,43.137255%);fill-opacity:1;" d="M 7.507812 12.785156 C 7.273438 12.800781 6.902344 13.179688 6.941406 13.339844 C 7.117188 14.082031 7.265625 13.886719 7.519531 13.886719 C 7.746094 13.886719 7.90625 14.070312 8.097656 13.308594 C 8.148438 13.109375 7.667969 12.777344 7.507812 12.785156 Z M 7.515625 14.097656 C 6.902344 14.097656 6.675781 15 6.675781 15 L 8.351562 15 C 8.351562 15 8.132812 14.097656 7.515625 14.097656 Z M 7.515625 14.097656 "/>
<path style=" stroke:none;fill-rule:nonzero;fill:rgb(99.215686%,79.607843%,34.509804%);fill-opacity:1;" d="M 8.4375 0.625 C 8.339844 0.625 8.257812 0.671875 8.199219 0.742188 C 8.082031 0.773438 7.921875 0.777344 7.71875 0.714844 C 7.660156 0.660156 7.585938 0.625 7.5 0.625 C 7.417969 0.625 7.339844 0.660156 7.285156 0.714844 C 7.078125 0.777344 6.917969 0.773438 6.800781 0.742188 C 6.746094 0.671875 6.660156 0.625 6.5625 0.625 C 6.390625 0.625 6.25 0.765625 6.25 0.9375 C 6.25 1.109375 6.390625 1.25 6.5625 1.25 C 6.5625 2.5 7.1875 2.8125 7.5 2.8125 C 7.8125 2.8125 8.4375 2.5 8.4375 1.25 C 8.609375 1.25 8.75 1.109375 8.75 0.9375 C 8.75 0.765625 8.609375 0.625 8.4375 0.625 Z M 8.4375 0.625 "/>
<path style=" stroke:none;fill-rule:nonzero;fill:rgb(25.882353%,53.72549%,75.686275%);fill-opacity:1;" d="M 4.796875 12.246094 L 2.40625 12.976562 C 2.296875 13.007812 2.179688 12.949219 2.144531 12.839844 L 2.023438 12.4375 C 1.988281 12.328125 2.050781 12.214844 2.160156 12.179688 L 4.550781 11.449219 C 4.660156 11.414062 4.777344 11.476562 4.8125 11.585938 L 4.933594 11.984375 C 4.96875 12.09375 4.90625 12.210938 4.796875 12.246094 "/>
<path style=" stroke:none;fill-rule:nonzero;fill:rgb(100%,100%,100%);fill-opacity:1;" d="M 4.636719 11.921875 C 4.636719 12.054688 4.527344 12.164062 4.394531 12.164062 C 4.261719 12.164062 4.15625 12.054688 4.15625 11.921875 C 4.15625 11.789062 4.261719 11.683594 4.394531 11.683594 C 4.527344 11.683594 4.636719 11.789062 4.636719 11.921875 Z M 4.636719 11.921875 "/>
<path style=" stroke:none;fill-rule:nonzero;fill:rgb(25.882353%,53.72549%,75.686275%);fill-opacity:1;" d="M 10.210938 12.246094 L 12.601562 12.976562 C 12.710938 13.007812 12.828125 12.949219 12.859375 12.839844 L 12.984375 12.4375 C 13.015625 12.328125 12.953125 12.214844 12.84375 12.179688 L 10.453125 11.449219 C 10.34375 11.414062 10.226562 11.476562 10.191406 11.585938 L 10.070312 11.984375 C 10.039062 12.09375 10.097656 12.210938 10.210938 12.246094 "/>
<path style=" stroke:none;fill-rule:nonzero;fill:rgb(100%,100%,100%);fill-opacity:1;" d="M 10.769531 11.910156 C 10.769531 12.042969 10.660156 12.152344 10.527344 12.152344 C 10.394531 12.152344 10.289062 12.042969 10.289062 11.910156 C 10.289062 11.78125 10.394531 11.671875 10.527344 11.671875 C 10.660156 11.671875 10.769531 11.78125 10.769531 11.910156 Z M 10.769531 11.910156 "/>
</g>
</svg>
