<?xml version="1.0" encoding="UTF-8"?>
<svg xmlns="http://www.w3.org/2000/svg" xmlns:xlink="http://www.w3.org/1999/xlink" width="15pt" height="15pt" viewBox="0 0 15 15" version="1.1">
<g id="surface1">
<path style=" stroke:none;fill-rule:nonzero;fill:rgb(80%,83.921569%,86.666667%);fill-opacity:1;" d="M 15 15 L 15 14.167969 C 15 12.785156 13.878906 11.667969 12.5 11.667969 L 5.832031 11.667969 C 4.453125 11.667969 3.332031 12.785156 3.332031 14.167969 L 3.332031 15 Z M 15 15 "/>
<path style=" stroke:none;fill-rule:nonzero;fill:rgb(83.529412%,67.058824%,53.333333%);fill-opacity:1;" d="M 7.351562 11.683594 C 7.351562 12.867188 10.984375 12.917969 10.984375 11.683594 L 10.984375 10.121094 L 7.351562 10.121094 Z M 7.351562 11.683594 "/>
<path style=" stroke:none;fill-rule:nonzero;fill:rgb(80%,60.784314%,47.843137%);fill-opacity:1;" d="M 7.347656 10.820312 C 7.851562 11.394531 8.480469 11.550781 9.164062 11.550781 C 9.847656 11.550781 10.476562 11.394531 10.984375 10.820312 L 10.984375 9.367188 L 7.347656 9.367188 Z M 7.347656 10.820312 "/>
<path style=" stroke:none;fill-rule:nonzero;fill:rgb(83.529412%,67.058824%,53.333333%);fill-opacity:1;" d="M 6.433594 6.640625 C 6.433594 7.242188 6.128906 7.734375 5.753906 7.734375 C 5.375 7.734375 5.070312 7.242188 5.070312 6.640625 C 5.070312 6.035156 5.375 5.546875 5.753906 5.546875 C 6.128906 5.546875 6.433594 6.035156 6.433594 6.640625 M 13.265625 6.640625 C 13.265625 7.242188 12.957031 7.734375 12.582031 7.734375 C 12.203125 7.734375 11.898438 7.242188 11.898438 6.640625 C 11.898438 6.035156 12.203125 5.546875 12.582031 5.546875 C 12.957031 5.546875 13.265625 6.035156 13.265625 6.640625 "/>
<path style=" stroke:none;fill-rule:nonzero;fill:rgb(83.529412%,67.058824%,53.333333%);fill-opacity:1;" d="M 5.617188 7.066406 C 5.617188 4.738281 7.207031 2.847656 9.167969 2.847656 C 11.128906 2.847656 12.71875 4.738281 12.71875 7.066406 C 12.71875 9.394531 11.128906 11.285156 9.167969 11.285156 C 7.207031 11.285156 5.617188 9.394531 5.617188 7.066406 "/>
<path style=" stroke:none;fill-rule:nonzero;fill:rgb(75.686275%,41.176471%,30.980392%);fill-opacity:1;" d="M 9.167969 9.917969 C 8.019531 9.917969 7.667969 9.625 7.609375 9.5625 C 7.5 9.457031 7.5 9.285156 7.609375 9.179688 C 7.710938 9.074219 7.878906 9.070312 7.984375 9.167969 C 8.003906 9.183594 8.285156 9.371094 9.167969 9.371094 C 10.082031 9.371094 10.347656 9.167969 10.351562 9.167969 C 10.457031 9.0625 10.625 9.066406 10.730469 9.171875 C 10.839844 9.28125 10.832031 9.457031 10.726562 9.5625 C 10.667969 9.625 10.3125 9.917969 9.167969 9.917969 "/>
<path style=" stroke:none;fill-rule:nonzero;fill:rgb(58.823529%,23.137255%,13.333333%);fill-opacity:1;" d="M 9.167969 1.449219 C 11.519531 1.449219 12.992188 3.1875 12.992188 4.632812 C 12.992188 6.082031 12.695312 6.660156 12.402344 6.082031 L 11.8125 4.921875 C 11.8125 4.921875 10.050781 4.921875 9.460938 4.34375 C 9.460938 4.34375 10.34375 6.082031 8.578125 4.34375 C 8.578125 4.34375 8.871094 5.503906 7.109375 4.054688 C 7.109375 4.054688 6.226562 4.632812 5.929688 6.082031 C 5.847656 6.484375 5.34375 6.082031 5.34375 4.632812 C 5.34375 3.1875 6.519531 1.449219 9.167969 1.449219 "/>
<path style=" stroke:none;fill-rule:nonzero;fill:rgb(40%,12.941176%,7.45098%);fill-opacity:1;" d="M 7.5 7.082031 C 7.269531 7.082031 7.082031 6.894531 7.082031 6.667969 L 7.082031 6.25 C 7.082031 6.019531 7.269531 5.832031 7.5 5.832031 C 7.730469 5.832031 7.917969 6.019531 7.917969 6.25 L 7.917969 6.667969 C 7.917969 6.894531 7.730469 7.082031 7.5 7.082031 M 10.832031 7.082031 C 10.605469 7.082031 10.417969 6.894531 10.417969 6.667969 L 10.417969 6.25 C 10.417969 6.019531 10.605469 5.832031 10.832031 5.832031 C 11.0625 5.832031 11.25 6.019531 11.25 6.25 L 11.25 6.667969 C 11.25 6.894531 11.0625 7.082031 10.832031 7.082031 "/>
<path style=" stroke:none;fill-rule:nonzero;fill:rgb(75.686275%,41.176471%,30.980392%);fill-opacity:1;" d="M 9.480469 8.230469 L 8.855469 8.230469 C 8.683594 8.230469 8.542969 8.089844 8.542969 7.917969 C 8.542969 7.746094 8.683594 7.605469 8.855469 7.605469 L 9.480469 7.605469 C 9.652344 7.605469 9.792969 7.746094 9.792969 7.917969 C 9.792969 8.089844 9.652344 8.230469 9.480469 8.230469 "/>
<path style=" stroke:none;fill-rule:nonzero;fill:rgb(13.333333%,40%,60%);fill-opacity:1;" d="M 5.417969 11.667969 L 6.667969 11.667969 L 6.667969 15 L 5.417969 15 Z M 11.667969 11.667969 L 12.917969 11.667969 L 12.917969 15 L 11.667969 15 Z M 11.667969 11.667969 "/>
<path style=" stroke:none;fill-rule:nonzero;fill:rgb(13.333333%,40%,60%);fill-opacity:1;" d="M 12.5 12.917969 L 5.832031 12.917969 L 5.46875 15 L 12.917969 15 Z M 12.5 12.917969 "/>
<path style=" stroke:none;fill-rule:nonzero;fill:rgb(23.137255%,53.333333%,76.470588%);fill-opacity:1;" d="M 12.941406 3.957031 C 12.941406 4.507812 11.234375 3.957031 9.191406 3.957031 C 7.144531 3.957031 5.441406 4.507812 5.441406 3.957031 C 5.441406 2.480469 5.855469 0.417969 9.191406 0.417969 C 12.105469 0.417969 12.941406 2.480469 12.941406 3.957031 Z M 12.941406 3.957031 "/>
<path style=" stroke:none;fill-rule:nonzero;fill:rgb(13.333333%,40%,60%);fill-opacity:1;" d="M 5.464844 3.957031 C 5.464844 3.957031 5.253906 5.207031 6.089844 5.207031 C 6.503906 5.207031 7.128906 4.375 9.214844 4.375 C 11.296875 4.375 11.921875 5.207031 12.339844 5.207031 C 13.171875 5.207031 12.964844 3.957031 12.964844 3.957031 C 12.964844 3.957031 12.339844 4.167969 9.214844 4.167969 C 6.089844 4.167969 5.464844 3.957031 5.464844 3.957031 Z M 5.464844 3.957031 "/>
<path style=" stroke:none;fill-rule:nonzero;fill:rgb(33.333333%,67.45098%,93.333333%);fill-opacity:1;" d="M 5.441406 3.75 C 5.441406 3.75 5.230469 5 6.066406 5 C 6.480469 5 7.105469 4.167969 9.191406 4.167969 C 11.273438 4.167969 11.898438 5 12.316406 5 C 13.148438 5 12.941406 3.75 12.941406 3.75 C 12.941406 3.75 12.316406 3.957031 9.191406 3.957031 C 6.066406 3.957031 5.441406 3.75 5.441406 3.75 Z M 5.441406 3.75 "/>
<path style=" stroke:none;fill-rule:nonzero;fill:rgb(13.333333%,40%,60%);fill-opacity:1;" d="M 8.566406 0.625 C 8.566406 0.625 8.566406 0 9.191406 0 C 9.816406 0 9.816406 0.625 9.816406 0.625 Z M 8.566406 0.625 "/>
<path style=" stroke:none;fill-rule:nonzero;fill:rgb(96.078431%,97.254902%,98.039216%);fill-opacity:1;" d="M 12.5 14.0625 C 12.5 13.773438 12.082031 13.542969 11.5625 13.542969 C 11.042969 13.542969 10.625 13.773438 10.625 14.0625 C 10.625 14.351562 11.042969 14.582031 11.5625 14.582031 C 12.082031 14.582031 12.5 14.351562 12.5 14.0625 Z M 12.5 14.0625 "/>
<path style=" stroke:none;fill-rule:nonzero;fill:rgb(40%,45.882353%,49.803922%);fill-opacity:1;" d="M 2.914062 8.117188 L 2.917969 9.953125 C 2.917969 10.183594 2.5 10.371094 1.980469 10.371094 C 1.464844 10.375 1.042969 10.1875 1.042969 9.957031 L 1.039062 8.121094 C 0.421875 8.457031 0 9.105469 0 9.855469 C 0.00390625 10.949219 0.890625 11.835938 1.984375 11.832031 C 3.078125 11.828125 3.960938 10.941406 3.957031 9.847656 C 3.957031 9.097656 3.53125 8.449219 2.914062 8.117188 Z M 2.914062 8.117188 "/>
<path style=" stroke:none;fill-rule:nonzero;fill:rgb(40%,45.882353%,49.803922%);fill-opacity:1;" d="M 1.355469 11.414062 L 2.605469 11.414062 L 2.605469 15 L 1.355469 15 Z M 1.355469 11.414062 "/>
</g>
</svg>
