<?xml version="1.0" encoding="UTF-8"?>
<svg xmlns="http://www.w3.org/2000/svg" xmlns:xlink="http://www.w3.org/1999/xlink" width="15pt" height="15pt" viewBox="0 0 15 15" version="1.1">
<g id="surface1">
<path style=" stroke:none;fill-rule:nonzero;fill:rgb(83.529412%,67.058824%,53.333333%);fill-opacity:1;" d="M 13.332031 8.332031 C 13.332031 7.414062 12.867188 6.667969 12.292969 6.667969 C 12.285156 6.667969 12.28125 6.667969 12.277344 6.667969 C 11.648438 4.042969 9.746094 2.136719 7.5 2.136719 C 5.253906 2.136719 3.351562 4.042969 2.722656 6.667969 C 2.71875 6.667969 2.714844 6.667969 2.707031 6.667969 C 2.132812 6.667969 1.667969 7.414062 1.667969 8.332031 C 1.667969 9.210938 2.09375 9.921875 2.628906 9.988281 C 3.140625 12.757812 5.125 14.582031 7.5 14.582031 C 9.875 14.582031 11.859375 12.757812 12.367188 9.988281 C 12.90625 9.921875 13.332031 9.210938 13.332031 8.332031 Z M 13.332031 8.332031 "/>
<path style=" stroke:none;fill-rule:nonzero;fill:rgb(40%,12.941176%,7.45098%);fill-opacity:1;" d="M 5.417969 8.75 C 5.1875 8.75 5 8.5625 5 8.332031 L 5 7.5 C 5 7.269531 5.1875 7.082031 5.417969 7.082031 C 5.648438 7.082031 5.832031 7.269531 5.832031 7.5 L 5.832031 8.332031 C 5.832031 8.5625 5.648438 8.75 5.417969 8.75 Z M 9.582031 8.75 C 9.351562 8.75 9.167969 8.5625 9.167969 8.332031 L 9.167969 7.5 C 9.167969 7.269531 9.351562 7.082031 9.582031 7.082031 C 9.8125 7.082031 10 7.269531 10 7.5 L 10 8.332031 C 10 8.5625 9.8125 8.75 9.582031 8.75 Z M 9.582031 8.75 "/>
<path style=" stroke:none;fill-rule:nonzero;fill:rgb(75.686275%,41.176471%,30.980392%);fill-opacity:1;" d="M 7.5 12.917969 C 5.75 12.917969 5.210938 12.46875 5.121094 12.378906 C 4.960938 12.214844 4.960938 11.953125 5.121094 11.789062 C 5.28125 11.628906 5.53125 11.625 5.695312 11.773438 C 5.730469 11.796875 6.152344 12.082031 7.5 12.082031 C 8.898438 12.082031 9.300781 11.777344 9.308594 11.773438 C 9.46875 11.609375 9.722656 11.617188 9.886719 11.78125 C 10.050781 11.945312 10.039062 12.214844 9.878906 12.378906 C 9.789062 12.46875 9.25 12.917969 7.5 12.917969 Z M 7.917969 10.832031 L 7.082031 10.832031 C 6.851562 10.832031 6.667969 10.648438 6.667969 10.417969 C 6.667969 10.1875 6.851562 10 7.082031 10 L 7.917969 10 C 8.148438 10 8.332031 10.1875 8.332031 10.417969 C 8.332031 10.648438 8.148438 10.832031 7.917969 10.832031 Z M 7.917969 10.832031 "/>
<path style=" stroke:none;fill-rule:nonzero;fill:rgb(58.823529%,23.137255%,13.333333%);fill-opacity:1;" d="M 13.75 5.269531 C 13.75 4.898438 13.554688 4.578125 13.261719 4.390625 C 13.304688 4.277344 13.332031 4.152344 13.332031 4.019531 C 13.332031 3.488281 12.933594 3.054688 12.417969 2.992188 C 12.46875 2.859375 12.5 2.714844 12.5 2.5625 C 12.5 1.871094 11.941406 1.3125 11.25 1.3125 C 11.085938 1.3125 10.929688 1.347656 10.785156 1.402344 C 10.640625 0.871094 10.160156 0.480469 9.582031 0.480469 C 9.222656 0.480469 8.898438 0.636719 8.667969 0.882812 C 8.492188 0.40625 8.039062 0.0625 7.5 0.0625 C 6.960938 0.0625 6.507812 0.40625 6.332031 0.882812 C 6.101562 0.636719 5.777344 0.480469 5.417969 0.480469 C 4.839844 0.480469 4.359375 0.871094 4.214844 1.402344 C 4.070312 1.347656 3.914062 1.3125 3.75 1.3125 C 3.058594 1.3125 2.5 1.871094 2.5 2.5625 C 2.5 2.714844 2.53125 2.859375 2.582031 2.992188 C 2.066406 3.054688 1.667969 3.488281 1.667969 4.019531 C 1.667969 4.152344 1.695312 4.277344 1.738281 4.390625 C 1.445312 4.578125 1.25 4.898438 1.25 5.269531 C 1.25 5.636719 1.441406 5.957031 1.726562 6.144531 C 1.6875 6.261719 1.667969 6.386719 1.667969 6.519531 C 1.667969 7.097656 2.039062 7.5625 2.5 7.5625 C 2.636719 7.5625 2.761719 7.519531 2.875 7.445312 C 3.0625 8.046875 3.332031 8.386719 3.332031 7.5625 C 3.332031 6.902344 3.339844 6.5 3.648438 5.863281 C 4.144531 6.03125 4.863281 5.929688 5.539062 5.539062 C 5.65625 5.46875 5.765625 5.394531 5.871094 5.320312 C 6.027344 5.886719 6.695312 6.3125 7.5 6.3125 C 8.039062 6.3125 8.515625 6.117188 8.820312 5.816406 C 9.019531 6.34375 9.652344 6.730469 10.417969 6.730469 C 10.863281 6.730469 11.269531 6.59375 11.570312 6.378906 C 11.679688 6.757812 11.683594 7.097656 11.683594 7.5625 C 11.683594 8.539062 11.964844 8.128906 12.148438 7.460938 C 12.253906 7.523438 12.375 7.5625 12.5 7.5625 C 12.960938 7.5625 13.332031 7.097656 13.332031 6.519531 C 13.332031 6.386719 13.3125 6.261719 13.273438 6.144531 C 13.558594 5.957031 13.75 5.636719 13.75 5.269531 Z M 13.75 5.269531 "/>
</g>
</svg>
