<?xml version="1.0" encoding="UTF-8"?>
<svg xmlns="http://www.w3.org/2000/svg" xmlns:xlink="http://www.w3.org/1999/xlink" width="15pt" height="15pt" viewBox="0 0 15 15" version="1.1">
<g id="surface1">
<path style=" stroke:none;fill-rule:nonzero;fill:rgb(37.647059%,20.784314%,16.470588%);fill-opacity:1;" d="M 9.144531 2.113281 C 10.855469 2.113281 13.703125 2.96875 13.703125 6.671875 C 13.703125 10.378906 13.703125 11.234375 12.847656 11.234375 C 11.992188 11.234375 10.855469 10.378906 9.144531 10.378906 C 7.433594 10.378906 6.316406 11.234375 5.4375 11.234375 C 4.484375 11.234375 4.582031 7.8125 4.582031 6.671875 C 4.582031 2.96875 7.433594 2.113281 9.144531 2.113281 "/>
<path style=" stroke:none;fill-rule:nonzero;fill:rgb(57.254902%,40%,80%);fill-opacity:1;" d="M 11.667969 11.25 L 10.691406 11.25 L 10.691406 9.921875 L 7.636719 9.921875 L 7.636719 11.25 L 6.667969 11.25 C 5.285156 11.25 3.75 12.160156 3.75 13.542969 L 3.75 15 L 14.582031 15 L 14.582031 13.542969 C 14.582031 12.160156 13.046875 11.25 11.667969 11.25 Z M 11.667969 11.25 "/>
<path style=" stroke:none;fill-rule:nonzero;fill:rgb(60.784314%,41.568627%,28.627451%);fill-opacity:1;" d="M 7.632812 10.492188 C 8.058594 10.972656 8.589844 11.101562 9.164062 11.101562 C 9.738281 11.101562 10.265625 10.972656 10.691406 10.492188 L 10.691406 9.269531 L 7.632812 9.269531 Z M 7.632812 10.492188 "/>
<path style=" stroke:none;fill-rule:nonzero;fill:rgb(68.627451%,49.411765%,34.117647%);fill-opacity:1;" d="M 5.722656 6.546875 C 5.722656 4.117188 7.253906 2.148438 9.144531 2.148438 C 11.03125 2.148438 12.566406 4.117188 12.566406 6.546875 C 12.566406 8.980469 11.03125 10.835938 9.144531 10.835938 C 7.253906 10.835938 5.722656 8.980469 5.722656 6.546875 "/>
<path style=" stroke:none;fill-rule:nonzero;fill:rgb(87.45098%,12.156863%,19.607843%);fill-opacity:1;" d="M 9.144531 9.808594 C 8.472656 9.808594 8.125 9.480469 8.085938 9.441406 C 7.976562 9.328125 7.976562 9.148438 8.085938 9.039062 C 8.199219 8.925781 8.375 8.925781 8.488281 9.035156 C 8.5 9.046875 8.71875 9.238281 9.144531 9.238281 C 9.578125 9.238281 9.792969 9.042969 9.800781 9.035156 C 9.914062 8.929688 10.09375 8.929688 10.203125 9.042969 C 10.308594 9.15625 10.308594 9.332031 10.199219 9.441406 C 10.164062 9.480469 9.8125 9.808594 9.144531 9.808594 "/>
<path style=" stroke:none;fill-rule:nonzero;fill:rgb(37.647059%,20.784314%,16.470588%);fill-opacity:1;" d="M 4.886719 7.917969 C 4.875 7.5 4.867188 7.824219 4.867188 7.722656 C 4.867188 6.296875 5.722656 7.929688 5.722656 6.914062 C 5.722656 5.898438 6.292969 5.796875 6.863281 5.226562 C 7.148438 4.941406 7.71875 4.382812 7.71875 4.382812 C 7.71875 4.382812 9.144531 5.242188 10.285156 5.242188 C 11.421875 5.242188 12.566406 5.816406 12.566406 6.957031 C 12.566406 8.097656 13.421875 6.296875 13.421875 7.722656 C 13.421875 7.824219 13.410156 7.5 13.402344 7.917969 L 13.703125 7.917969 C 13.707031 7.082031 13.707031 7.113281 13.707031 6.582031 C 13.707031 2.875 10.855469 1.496094 9.144531 1.496094 C 7.433594 1.496094 4.582031 2.851562 4.582031 6.558594 C 4.582031 6.890625 4.574219 7.082031 4.585938 7.917969 Z M 4.886719 7.917969 "/>
<path style=" stroke:none;fill-rule:nonzero;fill:rgb(37.647059%,20.784314%,16.470588%);fill-opacity:1;" d="M 7.753906 7.453125 C 7.558594 7.453125 7.402344 7.292969 7.402344 7.101562 L 7.402344 6.746094 C 7.402344 6.554688 7.558594 6.394531 7.753906 6.394531 C 7.945312 6.394531 8.105469 6.554688 8.105469 6.746094 L 8.105469 7.101562 C 8.105469 7.292969 7.945312 7.453125 7.753906 7.453125 M 10.570312 7.453125 C 10.378906 7.453125 10.21875 7.292969 10.21875 7.101562 L 10.21875 6.746094 C 10.21875 6.554688 10.378906 6.394531 10.570312 6.394531 C 10.765625 6.394531 10.925781 6.554688 10.925781 6.746094 L 10.925781 7.101562 C 10.925781 7.292969 10.765625 7.453125 10.570312 7.453125 "/>
<path style=" stroke:none;fill-rule:nonzero;fill:rgb(56.862745%,35.294118%,20.392157%);fill-opacity:1;" d="M 9.515625 8.542969 L 8.8125 8.542969 C 8.714844 8.542969 8.632812 8.460938 8.632812 8.367188 L 8.632812 8.300781 C 8.632812 8.203125 8.714844 8.125 8.8125 8.125 L 9.515625 8.125 C 9.613281 8.125 9.691406 8.203125 9.691406 8.300781 L 9.691406 8.367188 C 9.691406 8.460938 9.613281 8.542969 9.515625 8.542969 "/>
<path style=" stroke:none;fill-rule:nonzero;fill:rgb(40%,45.882353%,49.803922%);fill-opacity:1;" d="M 13.757812 2.660156 C 13.613281 1.808594 12.25 1.039062 10.3125 0.949219 C 10.457031 0.859375 10.589844 0.78125 10.695312 0.75 C 10.996094 0.65625 10.605469 0.367188 10.316406 0.367188 C 10.316406 0.367188 9.859375 0.578125 9.511719 0.957031 C 6.695312 1.101562 4.511719 2.644531 4.582031 3.042969 C 4.65625 3.460938 4.917969 3.066406 4.9375 3.425781 C 4.953125 3.78125 5.289062 3.808594 5.289062 3.808594 C 5.289062 3.808594 6.519531 3.617188 8.816406 3.808594 C 11.113281 3.996094 12.457031 4.039062 13.050781 4.1875 C 13.640625 4.339844 13.402344 3.808594 13.402344 3.808594 C 13.402344 3.808594 13.921875 3.660156 13.757812 2.660156 Z M 13.757812 2.660156 "/>
<path style=" stroke:none;fill-rule:nonzero;fill:rgb(85.098039%,61.960784%,50.980392%);fill-opacity:1;" d="M 11.445312 15 C 11.328125 13.390625 9.742188 11.6875 7.429688 10.882812 C 4.636719 9.914062 1.851562 10.628906 1.210938 12.476562 C 0.933594 13.285156 1.105469 14.171875 1.625 15 Z M 11.445312 15 "/>
<path style=" stroke:none;fill-rule:nonzero;fill:rgb(36.078431%,56.862745%,23.137255%);fill-opacity:1;" d="M 8.242188 13.074219 C 8.117188 13.433594 8.394531 13.859375 8.859375 14.019531 C 9.324219 14.179688 9.804688 14.019531 9.925781 13.660156 C 10.050781 13.300781 9.777344 12.878906 9.3125 12.71875 C 8.84375 12.554688 8.367188 12.714844 8.242188 13.074219 "/>
<path style=" stroke:none;fill-rule:nonzero;fill:rgb(13.333333%,40%,60%);fill-opacity:1;" d="M 2.25 13.75 C 2.125 14.109375 2.402344 14.53125 2.867188 14.695312 C 3.332031 14.855469 3.8125 14.695312 3.9375 14.335938 C 4.0625 13.976562 3.785156 13.554688 3.320312 13.390625 C 2.855469 13.230469 2.375 13.390625 2.25 13.75 "/>
<path style=" stroke:none;fill-rule:nonzero;fill:rgb(86.666667%,18.039216%,26.666667%);fill-opacity:1;" d="M 3.019531 11.675781 C 2.894531 12.035156 3.171875 12.457031 3.636719 12.617188 C 4.101562 12.78125 4.582031 12.621094 4.707031 12.261719 C 4.832031 11.902344 4.554688 11.476562 4.089844 11.316406 C 3.625 11.15625 3.144531 11.316406 3.019531 11.675781 "/>
<path style=" stroke:none;fill-rule:nonzero;fill:rgb(100%,80%,30.196078%);fill-opacity:1;" d="M 5.949219 11.667969 C 5.835938 12.03125 6.125 12.445312 6.59375 12.59375 C 7.066406 12.738281 7.539062 12.5625 7.652344 12.199219 C 7.765625 11.835938 7.476562 11.421875 7.003906 11.277344 C 6.535156 11.128906 6.0625 11.304688 5.949219 11.667969 "/>
<path style=" stroke:none;fill-rule:nonzero;fill:rgb(68.627451%,49.411765%,34.117647%);fill-opacity:1;" d="M 0.417969 12.5 C 0.449219 11.996094 0.996094 11.171875 1.667969 11.25 C 2.359375 11.328125 1.71875 12.554688 1.667969 12.917969 C 1.613281 13.28125 1.726562 14.140625 1.25 14.167969 C 0.605469 14.203125 0.359375 13.410156 0.417969 12.5 "/>
</g>
</svg>
