<?xml version="1.0" encoding="UTF-8"?>
<svg xmlns="http://www.w3.org/2000/svg" xmlns:xlink="http://www.w3.org/1999/xlink" width="15pt" height="15pt" viewBox="0 0 15 15" version="1.1">
<g id="surface1">
<path style=" stroke:none;fill-rule:nonzero;fill:rgb(16.078431%,18.431373%,20%);fill-opacity:1;" d="M 12.917969 15 L 12.917969 13.542969 C 12.917969 12.160156 11.382812 11.25 10 11.25 L 5 11.25 C 3.621094 11.25 2.082031 12.160156 2.082031 13.542969 L 2.082031 15 Z M 12.917969 15 "/>
<path style=" stroke:none;fill-rule:nonzero;fill:rgb(40%,45.882353%,49.803922%);fill-opacity:1;" d="M 3.375 13.890625 C 3.480469 13.890625 3.542969 15 3.542969 15 L 3.144531 15 C 3.144531 15 3.222656 13.890625 3.375 13.890625 M 4.625 13.890625 C 4.730469 13.890625 4.792969 15 4.792969 15 L 4.394531 15 C 4.394531 15 4.472656 13.890625 4.625 13.890625 M 10.394531 13.890625 C 10.289062 13.890625 10.226562 15 10.226562 15 L 10.625 15 C 10.625 15 10.542969 13.890625 10.394531 13.890625 M 11.644531 13.890625 C 11.539062 13.890625 11.476562 15 11.476562 15 L 11.875 15 C 11.875 15 11.792969 13.890625 11.644531 13.890625 "/>
<path style=" stroke:none;fill-rule:nonzero;fill:rgb(57.254902%,40%,80%);fill-opacity:1;" d="M 7.5 14.339844 C 9.199219 13.527344 9.839844 11.25 9.839844 11.25 L 5.160156 11.25 C 5.160156 11.25 5.800781 13.527344 7.5 14.339844 Z M 7.5 14.339844 "/>
<path style=" stroke:none;fill-rule:nonzero;fill:rgb(45.490196%,30.588235%,66.666667%);fill-opacity:1;" d="M 5.417969 11.25 L 9.53125 11.25 C 9.53125 11.25 9.007812 12.707031 7.472656 12.707031 C 5.941406 12.707031 5.417969 11.25 5.417969 11.25 "/>
<path style=" stroke:none;fill-rule:nonzero;fill:rgb(37.647059%,20.784314%,16.470588%);fill-opacity:1;" d="M 7.476562 2.113281 C 9.1875 2.113281 12.039062 2.96875 12.039062 6.671875 C 12.039062 10.378906 12.039062 11.234375 11.183594 11.234375 C 10.328125 11.234375 9.1875 10.378906 7.476562 10.378906 C 5.765625 10.378906 4.648438 11.234375 3.769531 11.234375 C 2.816406 11.234375 2.914062 7.8125 2.914062 6.671875 C 2.914062 2.96875 5.765625 2.113281 7.476562 2.113281 "/>
<path style=" stroke:none;fill-rule:nonzero;fill:rgb(68.627451%,49.411765%,34.117647%);fill-opacity:1;" d="M 5.96875 11.257812 C 5.96875 11.875 6.875 12.082031 7.5 12.082031 C 8.125 12.082031 9.023438 11.875 9.023438 11.257812 L 9.023438 9.921875 L 5.96875 9.921875 Z M 5.96875 11.257812 "/>
<path style=" stroke:none;fill-rule:nonzero;fill:rgb(60.784314%,41.568627%,28.627451%);fill-opacity:1;" d="M 5.96875 10.492188 C 6.394531 10.972656 6.921875 11.101562 7.496094 11.101562 C 8.070312 11.101562 8.597656 10.972656 9.023438 10.492188 L 9.023438 9.269531 L 5.96875 9.269531 Z M 5.96875 10.492188 "/>
<path style=" stroke:none;fill-rule:nonzero;fill:rgb(68.627451%,49.411765%,34.117647%);fill-opacity:1;" d="M 4.054688 6.546875 C 4.054688 4.117188 5.585938 2.148438 7.476562 2.148438 C 9.367188 2.148438 10.898438 4.117188 10.898438 6.546875 C 10.898438 8.980469 9.367188 10.835938 7.476562 10.835938 C 5.585938 10.835938 4.054688 8.980469 4.054688 6.546875 "/>
<path style=" stroke:none;fill-rule:nonzero;fill:rgb(87.45098%,12.156863%,19.607843%);fill-opacity:1;" d="M 7.476562 9.808594 C 6.808594 9.808594 6.457031 9.480469 6.421875 9.441406 C 6.308594 9.328125 6.308594 9.148438 6.421875 9.039062 C 6.53125 8.925781 6.707031 8.925781 6.820312 9.035156 C 6.835938 9.046875 7.050781 9.238281 7.476562 9.238281 C 7.910156 9.238281 8.125 9.042969 8.132812 9.035156 C 8.246094 8.929688 8.425781 8.929688 8.535156 9.042969 C 8.644531 9.15625 8.644531 9.332031 8.535156 9.441406 C 8.496094 9.480469 8.144531 9.808594 7.476562 9.808594 "/>
<path style=" stroke:none;fill-rule:nonzero;fill:rgb(37.647059%,20.784314%,16.470588%);fill-opacity:1;" d="M 6.085938 7.453125 C 5.894531 7.453125 5.734375 7.292969 5.734375 7.101562 L 5.734375 6.746094 C 5.734375 6.554688 5.894531 6.394531 6.085938 6.394531 C 6.28125 6.394531 6.441406 6.554688 6.441406 6.746094 L 6.441406 7.101562 C 6.441406 7.292969 6.28125 7.453125 6.085938 7.453125 M 8.90625 7.453125 C 8.710938 7.453125 8.554688 7.292969 8.554688 7.101562 L 8.554688 6.746094 C 8.554688 6.554688 8.710938 6.394531 8.90625 6.394531 C 9.097656 6.394531 9.257812 6.554688 9.257812 6.746094 L 9.257812 7.101562 C 9.257812 7.292969 9.097656 7.453125 8.90625 7.453125 "/>
<path style=" stroke:none;fill-rule:nonzero;fill:rgb(56.862745%,35.294118%,20.392157%);fill-opacity:1;" d="M 7.847656 8.542969 L 7.144531 8.542969 C 7.046875 8.542969 6.96875 8.460938 6.96875 8.367188 L 6.96875 8.300781 C 6.96875 8.203125 7.046875 8.125 7.144531 8.125 L 7.847656 8.125 C 7.945312 8.125 8.023438 8.203125 8.023438 8.300781 L 8.023438 8.367188 C 8.023438 8.460938 7.945312 8.542969 7.847656 8.542969 "/>
<path style=" stroke:none;fill-rule:nonzero;fill:rgb(37.647059%,20.784314%,16.470588%);fill-opacity:1;" d="M 3.21875 7.917969 C 3.210938 7.5 3.199219 7.824219 3.199219 7.722656 C 3.199219 6.296875 4.054688 7.929688 4.054688 6.914062 C 4.054688 5.898438 4.625 5.796875 5.195312 5.226562 C 5.480469 4.941406 6.050781 4.382812 6.050781 4.382812 C 6.050781 4.382812 7.476562 5.242188 8.617188 5.242188 C 9.757812 5.242188 10.898438 5.816406 10.898438 6.957031 C 10.898438 8.097656 11.753906 6.296875 11.753906 7.722656 C 11.753906 7.824219 11.742188 7.5 11.738281 7.917969 L 12.035156 7.917969 C 12.039062 7.082031 12.039062 7.113281 12.039062 6.582031 C 12.039062 2.875 9.1875 1.496094 7.476562 1.496094 C 5.765625 1.496094 2.914062 2.851562 2.914062 6.558594 C 2.914062 6.890625 2.90625 7.082031 2.917969 7.917969 Z M 3.21875 7.917969 "/>
<path style=" stroke:none;fill-rule:nonzero;fill:rgb(68.627451%,49.411765%,34.117647%);fill-opacity:1;" d="M 4.769531 6.640625 C 4.769531 7.242188 4.460938 7.734375 4.085938 7.734375 C 3.707031 7.734375 3.402344 7.242188 3.402344 6.640625 C 3.402344 6.035156 3.707031 5.546875 4.085938 5.546875 C 4.460938 5.546875 4.769531 6.035156 4.769531 6.640625 M 11.597656 6.640625 C 11.597656 7.242188 11.292969 7.734375 10.914062 7.734375 C 10.535156 7.734375 10.230469 7.242188 10.230469 6.640625 C 10.230469 6.035156 10.535156 5.546875 10.914062 5.546875 C 11.292969 5.546875 11.597656 6.035156 11.597656 6.640625 "/>
<path style=" stroke:none;fill-rule:nonzero;fill:rgb(16.078431%,18.431373%,20%);fill-opacity:1;" d="M 13.375 1.464844 L 7.542969 0.214844 C 7.515625 0.207031 7.484375 0.207031 7.457031 0.214844 L 1.621094 1.464844 C 1.53125 1.484375 1.460938 1.5625 1.457031 1.660156 C 1.457031 1.753906 1.515625 1.839844 1.609375 1.867188 L 3.667969 2.457031 C 3.589844 2.703125 3.542969 2.988281 3.542969 3.332031 C 3.542969 4.289062 4.910156 4.792969 7.5 4.792969 C 10.089844 4.792969 11.457031 4.289062 11.457031 3.332031 C 11.457031 2.988281 11.410156 2.703125 11.332031 2.457031 L 13.390625 1.867188 C 13.484375 1.839844 13.546875 1.753906 13.542969 1.660156 C 13.539062 1.5625 13.46875 1.484375 13.375 1.464844 Z M 13.375 1.464844 "/>
<path style=" stroke:none;fill-rule:nonzero;fill:rgb(40%,45.882353%,49.803922%);fill-opacity:1;" d="M 13.535156 1.609375 C 13.5 1.5 13.386719 1.4375 13.277344 1.464844 L 7.5 3.117188 L 1.722656 1.464844 C 1.613281 1.4375 1.496094 1.5 1.464844 1.609375 C 1.433594 1.71875 1.5 1.835938 1.609375 1.867188 L 7.441406 3.535156 C 7.460938 3.539062 7.480469 3.542969 7.5 3.542969 C 7.519531 3.542969 7.539062 3.539062 7.558594 3.535156 L 13.390625 1.867188 C 13.5 1.835938 13.566406 1.71875 13.535156 1.609375 Z M 13.535156 1.609375 "/>
<path style=" stroke:none;fill-rule:nonzero;fill:rgb(100%,80%,30.196078%);fill-opacity:1;" d="M 7.484375 1.460938 L 2.484375 1.875 C 2.472656 1.875 2.292969 1.898438 2.292969 2.082031 L 2.292969 4.621094 C 2.167969 4.699219 2.082031 4.929688 2.082031 5.625 C 2.082031 6.660156 2.269531 7.5 2.5 7.5 C 2.730469 7.5 2.917969 6.660156 2.917969 5.625 C 2.917969 4.929688 2.832031 4.699219 2.707031 4.621094 L 2.707031 2.273438 L 7.515625 1.875 C 7.632812 1.863281 7.71875 1.765625 7.707031 1.648438 C 7.699219 1.535156 7.597656 1.449219 7.484375 1.460938 Z M 7.484375 1.460938 "/>
</g>
</svg>
