<?xml version="1.0" encoding="UTF-8"?>
<svg xmlns="http://www.w3.org/2000/svg" xmlns:xlink="http://www.w3.org/1999/xlink" width="15pt" height="15pt" viewBox="0 0 15 15" version="1.1">
<g id="surface1">
<path style=" stroke:none;fill-rule:nonzero;fill:rgb(88.235294%,90.980392%,92.941176%);fill-opacity:1;" d="M 12.917969 15 L 12.917969 13.542969 C 12.917969 12.160156 11.382812 11.25 10 11.25 L 5 11.25 C 3.621094 11.25 2.082031 12.160156 2.082031 13.542969 L 2.082031 15 Z M 12.917969 15 "/>
<path style=" stroke:none;fill-rule:nonzero;fill:rgb(16.078431%,18.431373%,20%);fill-opacity:1;" d="M 12.5 3.125 C 12.5 4.851562 10.261719 6.25 7.5 6.25 C 4.738281 6.25 2.5 4.851562 2.5 3.125 C 2.5 1.398438 4.738281 0 7.5 0 C 10.261719 0 12.5 1.398438 12.5 3.125 "/>
<path style=" stroke:none;fill-rule:nonzero;fill:rgb(100%,67.45098%,20%);fill-opacity:1;" d="M 7.476562 2.113281 C 9.1875 2.113281 12.039062 2.96875 12.039062 6.671875 C 12.039062 10.378906 12.039062 11.234375 11.183594 11.234375 C 10.328125 11.234375 9.1875 10.378906 7.476562 10.378906 C 5.765625 10.378906 4.648438 11.234375 3.769531 11.234375 C 2.816406 11.234375 2.914062 7.8125 2.914062 6.671875 C 2.914062 2.96875 5.765625 2.113281 7.476562 2.113281 "/>
<path style=" stroke:none;fill-rule:nonzero;fill:rgb(100%,86.27451%,36.470588%);fill-opacity:1;" d="M 5.96875 11.257812 C 6.582031 11.703125 7.203125 12.082031 7.5 12.082031 C 7.796875 12.082031 8.414062 11.703125 9.023438 11.257812 L 9.023438 9.921875 L 5.96875 9.921875 Z M 5.96875 11.257812 "/>
<path style=" stroke:none;fill-rule:nonzero;fill:rgb(97.647059%,79.215686%,33.333333%);fill-opacity:1;" d="M 5.96875 10.492188 C 6.394531 10.972656 6.921875 11.101562 7.496094 11.101562 C 8.070312 11.101562 8.597656 10.972656 9.023438 10.492188 L 9.023438 9.269531 L 5.96875 9.269531 Z M 5.96875 10.492188 "/>
<path style=" stroke:none;fill-rule:nonzero;fill:rgb(100%,86.27451%,36.470588%);fill-opacity:1;" d="M 4.054688 6.546875 C 4.054688 4.117188 5.585938 2.148438 7.476562 2.148438 C 9.367188 2.148438 10.898438 4.117188 10.898438 6.546875 C 10.898438 8.980469 9.367188 10.835938 7.476562 10.835938 C 5.585938 10.835938 4.054688 8.980469 4.054688 6.546875 "/>
<path style=" stroke:none;fill-rule:nonzero;fill:rgb(87.45098%,12.156863%,19.607843%);fill-opacity:1;" d="M 7.476562 9.808594 C 6.808594 9.808594 6.457031 9.480469 6.421875 9.441406 C 6.308594 9.328125 6.308594 9.148438 6.421875 9.039062 C 6.53125 8.925781 6.707031 8.925781 6.820312 9.035156 C 6.835938 9.046875 7.050781 9.238281 7.476562 9.238281 C 7.910156 9.238281 8.125 9.042969 8.132812 9.035156 C 8.246094 8.929688 8.425781 8.929688 8.535156 9.042969 C 8.644531 9.15625 8.644531 9.332031 8.535156 9.441406 C 8.496094 9.480469 8.144531 9.808594 7.476562 9.808594 "/>
<path style=" stroke:none;fill-rule:nonzero;fill:rgb(100%,67.45098%,20%);fill-opacity:1;" d="M 3.21875 7.917969 C 3.210938 7.5 3.199219 7.824219 3.199219 7.722656 C 3.199219 6.296875 4.054688 7.929688 4.054688 6.914062 C 4.054688 5.898438 4.625 5.796875 5.195312 5.226562 C 5.480469 4.941406 6.050781 4.382812 6.050781 4.382812 C 6.050781 4.382812 7.476562 5.242188 8.617188 5.242188 C 9.757812 5.242188 10.898438 5.816406 10.898438 6.957031 C 10.898438 8.097656 11.753906 6.296875 11.753906 7.722656 C 11.753906 7.824219 11.742188 7.5 11.738281 7.917969 L 12.035156 7.917969 C 12.039062 7.082031 12.039062 7.113281 12.039062 6.582031 C 12.039062 2.875 9.1875 1.496094 7.476562 1.496094 C 5.765625 1.496094 2.914062 2.851562 2.914062 6.558594 C 2.914062 6.890625 2.90625 7.082031 2.917969 7.917969 Z M 3.21875 7.917969 "/>
<path style=" stroke:none;fill-rule:nonzero;fill:rgb(40%,12.941176%,7.45098%);fill-opacity:1;" d="M 6.085938 7.453125 C 5.894531 7.453125 5.734375 7.292969 5.734375 7.101562 L 5.734375 6.746094 C 5.734375 6.554688 5.894531 6.394531 6.085938 6.394531 C 6.28125 6.394531 6.4375 6.554688 6.4375 6.746094 L 6.4375 7.101562 C 6.441406 7.292969 6.28125 7.453125 6.085938 7.453125 M 8.90625 7.453125 C 8.710938 7.453125 8.554688 7.292969 8.554688 7.101562 L 8.554688 6.746094 C 8.554688 6.554688 8.710938 6.394531 8.90625 6.394531 C 9.097656 6.394531 9.257812 6.554688 9.257812 6.746094 L 9.257812 7.101562 C 9.257812 7.292969 9.097656 7.453125 8.90625 7.453125 "/>
<path style=" stroke:none;fill-rule:nonzero;fill:rgb(75.686275%,41.176471%,30.980392%);fill-opacity:1;" d="M 7.847656 8.542969 L 7.144531 8.542969 C 7.046875 8.542969 6.96875 8.460938 6.96875 8.367188 L 6.96875 8.300781 C 6.96875 8.203125 7.046875 8.125 7.144531 8.125 L 7.847656 8.125 C 7.945312 8.125 8.023438 8.203125 8.023438 8.300781 L 8.023438 8.367188 C 8.023438 8.460938 7.945312 8.542969 7.847656 8.542969 "/>
<path style=" stroke:none;fill-rule:nonzero;fill:rgb(16.078431%,18.431373%,20%);fill-opacity:1;" d="M 3.542969 3.75 C 3.542969 3.289062 5.3125 2.917969 7.5 2.917969 C 9.6875 2.917969 11.457031 3.289062 11.457031 3.75 C 11.457031 4.210938 9.6875 4.582031 7.5 4.582031 C 5.3125 4.582031 3.542969 4.210938 3.542969 3.75 "/>
<path style=" stroke:none;fill-rule:nonzero;fill:rgb(40%,45.882353%,49.803922%);fill-opacity:1;" d="M 11.457031 3.332031 L 3.542969 3.332031 L 3.542969 1.898438 C 3.542969 1.898438 5.191406 0.417969 7.5 0.417969 C 9.808594 0.417969 11.457031 1.898438 11.457031 1.898438 Z M 11.457031 3.332031 "/>
<path style=" stroke:none;fill-rule:nonzero;fill:rgb(100%,67.45098%,20%);fill-opacity:1;" d="M 6.25 2.082031 C 6.25 0.921875 6.808594 1.667969 7.5 1.667969 C 8.191406 1.667969 8.75 0.921875 8.75 2.082031 C 8.75 2.773438 8.191406 2.917969 7.5 2.917969 C 6.808594 2.917969 6.25 2.773438 6.25 2.082031 "/>
<path style=" stroke:none;fill-rule:nonzero;fill:rgb(99.215686%,79.607843%,34.509804%);fill-opacity:1;" d="M 6.667969 2.082031 C 6.667969 1.621094 7.039062 1.25 7.5 1.25 C 7.960938 1.25 8.332031 1.621094 8.332031 2.082031 C 8.332031 2.542969 7.960938 2.917969 7.5 2.917969 C 7.039062 2.917969 6.667969 2.542969 6.667969 2.082031 M 11.457031 3.75 L 3.542969 3.75 C 3.425781 3.75 3.332031 3.65625 3.332031 3.542969 C 3.332031 3.425781 3.425781 3.332031 3.542969 3.332031 L 11.457031 3.332031 C 11.574219 3.332031 11.667969 3.425781 11.667969 3.542969 C 11.667969 3.65625 11.574219 3.75 11.457031 3.75 "/>
<path style=" stroke:none;fill-rule:nonzero;fill:rgb(16.078431%,18.431373%,20%);fill-opacity:1;" d="M 4.824219 12.105469 L 2.355469 12.496094 C 2.242188 12.515625 2.132812 12.4375 2.117188 12.324219 L 2.050781 11.914062 C 2.035156 11.800781 2.109375 11.691406 2.222656 11.675781 L 4.695312 11.285156 C 4.808594 11.265625 4.914062 11.34375 4.933594 11.457031 L 4.996094 11.867188 C 5.015625 11.980469 4.9375 12.089844 4.824219 12.105469 "/>
<path style=" stroke:none;fill-rule:nonzero;fill:rgb(99.215686%,79.607843%,34.509804%);fill-opacity:1;" d="M 2.429688 11.640625 L 2.84375 11.578125 L 2.972656 12.398438 L 2.5625 12.464844 Z M 3.253906 11.511719 L 3.664062 11.445312 L 3.792969 12.269531 L 3.382812 12.335938 Z M 4.078125 11.378906 L 4.488281 11.316406 L 4.617188 12.140625 L 4.207031 12.203125 Z M 4.078125 11.378906 "/>
<path style=" stroke:none;fill-rule:nonzero;fill:rgb(16.078431%,18.431373%,20%);fill-opacity:1;" d="M 12.644531 12.496094 L 10.175781 12.105469 C 10.0625 12.089844 9.984375 11.980469 10.003906 11.867188 L 10.066406 11.457031 C 10.085938 11.34375 10.191406 11.265625 10.304688 11.285156 L 12.777344 11.675781 C 12.886719 11.691406 12.964844 11.800781 12.949219 11.914062 L 12.882812 12.324219 C 12.867188 12.4375 12.757812 12.515625 12.644531 12.496094 "/>
<path style=" stroke:none;fill-rule:nonzero;fill:rgb(99.215686%,79.607843%,34.509804%);fill-opacity:1;" d="M 10.382812 12.140625 L 10.511719 11.316406 L 10.921875 11.382812 L 10.792969 12.203125 Z M 11.203125 12.269531 L 11.335938 11.445312 L 11.746094 11.511719 L 11.617188 12.335938 Z M 12.027344 12.402344 L 12.15625 11.578125 L 12.570312 11.640625 L 12.441406 12.464844 Z M 12.027344 12.402344 "/>
<path style=" stroke:none;fill-rule:nonzero;fill:rgb(60%,66.666667%,70.980392%);fill-opacity:1;" d="M 7.5 12.867188 C 7.5 12.867188 8.910156 13.90625 9.207031 14.023438 C 9.269531 14.050781 9.054688 12.5 9.054688 12.5 L 5.949219 12.5 C 5.949219 12.5 5.730469 14.074219 5.851562 14.011719 C 6.117188 13.867188 7.5 12.867188 7.5 12.867188 "/>
<path style=" stroke:none;fill-rule:nonzero;fill:rgb(16.078431%,18.431373%,20%);fill-opacity:1;" d="M 8.046875 13.933594 C 8.046875 13.933594 8.203125 13.671875 8.269531 13.554688 C 8.34375 13.417969 8.457031 12.902344 8.457031 12.902344 L 7.546875 12.5 C 7.546875 12.496094 7.476562 12.503906 7.476562 12.503906 L 7.402344 12.519531 L 7.328125 12.546875 C 7.238281 12.574219 7.371094 12.550781 7.371094 12.550781 L 6.546875 12.902344 C 6.546875 12.902344 6.667969 13.417969 6.742188 13.554688 C 6.808594 13.671875 6.960938 13.933594 6.960938 13.933594 C 6.960938 13.933594 6.648438 14.167969 6.53125 15 L 8.476562 15 C 8.359375 14.335938 8.046875 13.933594 8.046875 13.933594 "/>
<path style=" stroke:none;fill-rule:nonzero;fill:rgb(96.078431%,97.254902%,98.039216%);fill-opacity:1;" d="M 5.539062 11.09375 C 5.773438 11.328125 7.5 12.503906 7.5 12.503906 C 7.5 12.503906 6.613281 13.019531 5.796875 13.976562 C 5.714844 14.070312 5.15625 12.046875 5.140625 11.597656 C 5.132812 11.472656 5.425781 10.980469 5.539062 11.09375 M 9.472656 11.09375 C 9.234375 11.328125 7.507812 12.503906 7.507812 12.503906 C 7.507812 12.503906 8.394531 13.019531 9.210938 13.976562 C 9.292969 14.070312 9.851562 12.046875 9.871094 11.597656 C 9.875 11.472656 9.582031 10.980469 9.472656 11.09375 "/>
<path style=" stroke:none;fill-rule:nonzero;fill:rgb(19.607843%,22.745098%,24.705882%);fill-opacity:1;" d="M 7.507812 12.785156 C 7.667969 12.777344 8.148438 13.109375 8.097656 13.308594 C 7.90625 14.070312 7.746094 13.886719 7.519531 13.886719 C 7.265625 13.886719 7.117188 14.085938 6.941406 13.339844 C 6.902344 13.179688 7.273438 12.800781 7.507812 12.785156 M 8.351562 15 L 6.675781 15 C 6.675781 15 6.902344 14.097656 7.515625 14.097656 C 8.132812 14.097656 8.351562 15 8.351562 15 "/>
</g>
</svg>
