<?xml version="1.0" encoding="UTF-8"?>
<svg xmlns="http://www.w3.org/2000/svg" xmlns:xlink="http://www.w3.org/1999/xlink" width="15pt" height="15pt" viewBox="0 0 15 15" version="1.1">
<g id="surface1">
<path style=" stroke:none;fill-rule:nonzero;fill:rgb(100%,86.27451%,36.470588%);fill-opacity:1;" d="M 3.566406 14.203125 C 3.621094 14.53125 2.695312 14.808594 2.578125 14.753906 C 2.453125 14.699219 2.988281 14.417969 2.980469 14.246094 C 2.9375 13.359375 2.605469 13.425781 2.640625 12.503906 C 2.304688 11.511719 2.335938 10.5625 2.320312 10.300781 C 2.28125 9.6875 3.902344 10.558594 3.851562 10.933594 C 3.769531 11.550781 3.578125 11.898438 3.566406 12.390625 C 3.742188 13.175781 3.441406 13.433594 3.566406 14.203125 Z M 6.5625 13.839844 C 6.710938 14.136719 6.867188 14.660156 6.738281 14.644531 C 6.597656 14.625 6.15625 14.433594 6.015625 14.050781 C 5.707031 13.21875 5.195312 13.445312 4.964844 12.550781 C 4.527344 11.894531 4.050781 10.933594 3.960938 10.683594 C 3.75 10.105469 5.375 9.960938 5.46875 10.324219 C 5.675781 11.121094 5.679688 11.722656 5.8125 12.199219 C 6.207031 12.898438 6.21875 13.140625 6.5625 13.839844 Z M 6.5625 13.839844 "/>
<path style=" stroke:none;fill-rule:nonzero;fill:rgb(100%,86.27451%,36.470588%);fill-opacity:1;" d="M 2.34375 10.894531 C 2.273438 10.953125 2.105469 10.984375 2.0625 10.96875 C 1.964844 10.941406 1.753906 10.777344 1.636719 10.625 C 1.421875 10.34375 0.550781 10.019531 0.34375 9.433594 C 0.308594 9.335938 0.316406 9.214844 0.390625 9.074219 C 0.4375 8.988281 1.019531 8.089844 1.546875 7.550781 C 1.6875 7.410156 2.066406 7.375 2.246094 7.507812 C 2.421875 7.644531 2.863281 7.75 2.757812 7.941406 C 2.421875 8.566406 1.324219 8.917969 1.042969 9.273438 C 1.449219 9.625 1.398438 9.835938 1.957031 10.199219 C 2.019531 10.160156 2.144531 10.132812 2.179688 10.140625 C 2.214844 10.152344 2.289062 10.207031 2.273438 10.308594 C 2.285156 10.316406 2.367188 10.390625 2.386719 10.425781 C 2.4375 10.527344 2.429688 10.816406 2.34375 10.894531 Z M 5.683594 10.921875 C 5.757812 10.976562 5.929688 10.988281 5.96875 10.972656 C 6.0625 10.9375 6.261719 10.757812 6.367188 10.59375 C 6.554688 10.292969 7.394531 9.902344 7.554688 9.296875 C 7.582031 9.195312 7.566406 9.078125 7.476562 8.945312 C 7.421875 8.863281 6.769531 8.015625 6.199219 7.523438 C 6.046875 7.394531 5.664062 7.390625 5.5 7.539062 C 5.332031 7.6875 4.902344 7.796875 5.019531 7.980469 C 5.410156 8.574219 6.53125 8.867188 6.84375 9.199219 C 6.46875 9.582031 6.539062 9.789062 6.011719 10.195312 C 5.941406 10.164062 5.816406 10.144531 5.78125 10.160156 C 5.75 10.171875 5.679688 10.230469 5.703125 10.332031 C 5.695312 10.339844 5.617188 10.421875 5.601562 10.457031 C 5.558594 10.566406 5.589844 10.851562 5.683594 10.921875 Z M 5.683594 10.921875 "/>
<path style=" stroke:none;fill-rule:nonzero;fill:rgb(16.078431%,18.431373%,20%);fill-opacity:1;" d="M 6.464844 7.652344 C 6.066406 7.046875 5.34375 6.9375 4.882812 6.9375 L 2.9375 6.9375 C 2.480469 6.9375 1.757812 7.046875 1.359375 7.652344 L 2.246094 8.605469 L 2.308594 10.273438 C 2.308594 10.273438 2.316406 11.597656 2.472656 12.027344 C 2.710938 12.042969 3.289062 12.109375 3.640625 12.160156 C 3.65625 12.160156 3.722656 11.710938 3.851562 11.28125 C 3.949219 11.285156 4.097656 11.273438 4.1875 11.253906 C 4.355469 11.542969 4.632812 12.097656 4.644531 12.089844 C 4.984375 11.980469 5.496094 11.8125 5.738281 11.703125 C 5.703125 11.210938 5.578125 10.390625 5.578125 10.390625 L 5.578125 8.605469 Z M 6.464844 7.652344 "/>
<path style=" stroke:none;fill-rule:nonzero;fill:rgb(100%,86.27451%,36.470588%);fill-opacity:1;" d="M 5.023438 7.226562 C 5.023438 7.046875 4.976562 6.9375 4.746094 6.9375 L 4.746094 5.6875 L 3.078125 5.6875 L 3.078125 6.9375 C 2.847656 6.9375 2.796875 7.046875 2.796875 7.226562 C 2.796875 7.324219 2.796875 8.167969 3.910156 8.171875 C 5.023438 8.167969 5.023438 7.324219 5.023438 7.226562 Z M 5.023438 7.226562 "/>
<path style=" stroke:none;fill-rule:nonzero;fill:rgb(97.647059%,79.215686%,33.333333%);fill-opacity:1;" d="M 3.074219 6.765625 C 3.328125 7.054688 3.566406 7.125 3.90625 7.125 C 4.25 7.125 4.488281 7.054688 4.742188 6.765625 L 4.742188 6.429688 L 3.074219 6.429688 Z M 3.074219 6.765625 "/>
<path style=" stroke:none;fill-rule:nonzero;fill:rgb(100%,67.45098%,20%);fill-opacity:1;" d="M 4.121094 1.105469 C 3.625 1.105469 3.167969 1.261719 2.792969 1.527344 C 2.027344 1.570312 1.410156 2.199219 1.410156 2.980469 C 1.410156 3.621094 1.414062 4.433594 2.261719 4.734375 C 2.675781 5.3125 3.351562 5.6875 4.121094 5.6875 C 5.386719 5.6875 6.410156 4.660156 6.410156 3.398438 C 6.410156 2.132812 5.386719 1.105469 4.121094 1.105469 Z M 4.121094 1.105469 "/>
<path style=" stroke:none;fill-rule:nonzero;fill:rgb(100%,86.27451%,36.470588%);fill-opacity:1;" d="M 5.996094 2.355469 L 1.828125 2.355469 L 1.828125 4.855469 C 1.828125 6.007812 2.761719 6.9375 3.910156 6.9375 C 5.0625 6.9375 5.996094 6.007812 5.996094 4.855469 Z M 5.996094 2.355469 "/>
<path style=" stroke:none;fill-rule:nonzero;fill:rgb(100%,67.45098%,20%);fill-opacity:1;" d="M 1.839844 2.148438 L 1.632812 2.980469 L 1.828125 4.023438 C 2.800781 4.023438 3.015625 3.015625 3.0625 2.566406 C 3.078125 3.015625 3.402344 4.023438 5.996094 4.023438 L 6.214844 2.980469 L 6.007812 2.148438 Z M 1.839844 2.148438 "/>
<path style=" stroke:none;fill-rule:nonzero;fill:rgb(75.686275%,41.176471%,30.980392%);fill-opacity:1;" d="M 4.746094 6.105469 L 3.078125 6.105469 C 3.078125 6.105469 3.078125 6.523438 3.910156 6.523438 C 4.746094 6.523438 4.746094 6.105469 4.746094 6.105469 Z M 4.746094 6.105469 "/>
<path style=" stroke:none;fill-rule:nonzero;fill:rgb(40%,12.941176%,7.45098%);fill-opacity:1;" d="M 3.078125 4.648438 C 3.078125 4.761719 2.984375 4.855469 2.871094 4.855469 C 2.753906 4.855469 2.660156 4.761719 2.660156 4.648438 C 2.660156 4.53125 2.753906 4.4375 2.871094 4.4375 C 2.984375 4.4375 3.078125 4.53125 3.078125 4.648438 Z M 3.078125 4.648438 "/>
<path style=" stroke:none;fill-rule:nonzero;fill:rgb(40%,12.941176%,7.45098%);fill-opacity:1;" d="M 5.160156 4.648438 C 5.160156 4.761719 5.070312 4.855469 4.953125 4.855469 C 4.839844 4.855469 4.746094 4.761719 4.746094 4.648438 C 4.746094 4.53125 4.839844 4.4375 4.953125 4.4375 C 5.070312 4.4375 5.160156 4.53125 5.160156 4.648438 Z M 5.160156 4.648438 "/>
<path style=" stroke:none;fill-rule:nonzero;fill:rgb(75.686275%,41.176471%,30.980392%);fill-opacity:1;" d="M 3.496094 5.273438 L 4.328125 5.273438 C 4.328125 5.273438 4.328125 5.6875 3.910156 5.6875 C 3.496094 5.6875 3.496094 5.273438 3.496094 5.273438 Z M 3.496094 5.273438 "/>
<path style=" stroke:none;fill-rule:nonzero;fill:rgb(16.078431%,18.431373%,20%);fill-opacity:1;" d="M 1.699219 0.324219 C 2.792969 0.234375 3.261719 1.523438 2.949219 2.09375 C 2.128906 2.09375 1.308594 1.339844 1.699219 0.324219 Z M 5.859375 0.347656 C 4.765625 0.257812 4.296875 1.546875 4.609375 2.121094 C 5.429688 2.121094 6.25 1.367188 5.859375 0.347656 Z M 5.859375 0.347656 "/>
<path style=" stroke:none;fill-rule:nonzero;fill:rgb(16.078431%,18.431373%,20%);fill-opacity:1;" d="M 2.792969 1.625 C 3.546875 1.027344 4.601562 1.183594 4.941406 1.691406 C 4.953125 1.820312 4.785156 2.183594 4.652344 2.121094 C 4.316406 1.964844 3.742188 1.730469 2.960938 2.09375 C 2.921875 2.066406 2.777344 1.636719 2.792969 1.625 Z M 5.980469 14.039062 C 5.820312 14.234375 6.195312 14.820312 6.476562 14.941406 C 6.710938 15.039062 7.121094 15.003906 7.246094 14.753906 C 7.320312 14.597656 6.8125 13.988281 6.652344 13.949219 C 6.488281 13.914062 6.898438 14.148438 6.503906 14.183594 C 6.21875 14.210938 5.980469 14.039062 5.980469 14.039062 Z M 3.566406 14.203125 C 3.777344 14.382812 3.839844 14.816406 3.121094 14.953125 C 2.59375 15.054688 2.195312 14.988281 2.144531 14.792969 C 2.082031 14.546875 2.765625 14.261719 2.9375 14.222656 C 3.109375 14.1875 2.738281 14.457031 3.035156 14.445312 C 3.332031 14.433594 3.566406 14.203125 3.566406 14.203125 Z M 3.566406 14.203125 "/>
<path style=" stroke:none;fill-rule:nonzero;fill:rgb(100%,86.27451%,36.470588%);fill-opacity:1;" d="M 10.6875 14.203125 C 10.742188 14.53125 9.816406 14.808594 9.695312 14.753906 C 9.570312 14.699219 10.109375 14.417969 10.097656 14.246094 C 10.054688 13.359375 9.722656 13.425781 9.757812 12.503906 C 9.425781 11.511719 9.453125 10.5625 9.4375 10.300781 C 9.402344 9.6875 11.023438 10.558594 10.972656 10.933594 C 10.886719 11.550781 10.695312 11.898438 10.683594 12.390625 C 10.859375 13.175781 10.558594 13.433594 10.6875 14.203125 Z M 13.679688 13.839844 C 13.828125 14.136719 13.984375 14.660156 13.855469 14.644531 C 13.714844 14.625 13.273438 14.433594 13.132812 14.050781 C 12.824219 13.21875 12.3125 13.445312 12.082031 12.550781 C 11.644531 11.894531 11.167969 10.933594 11.078125 10.683594 C 10.867188 10.105469 12.492188 9.960938 12.585938 10.324219 C 12.792969 11.121094 12.796875 11.722656 12.929688 12.199219 C 13.328125 12.898438 13.335938 13.140625 13.679688 13.839844 Z M 13.679688 13.839844 "/>
<path style=" stroke:none;fill-rule:nonzero;fill:rgb(100%,86.27451%,36.470588%);fill-opacity:1;" d="M 9.460938 10.894531 C 9.390625 10.953125 9.222656 10.984375 9.179688 10.96875 C 9.085938 10.941406 8.871094 10.777344 8.753906 10.625 C 8.539062 10.34375 7.671875 10.019531 7.460938 9.433594 C 7.425781 9.335938 7.433594 9.214844 7.511719 9.074219 C 7.558594 8.988281 8.136719 8.089844 8.664062 7.550781 C 8.804688 7.410156 9.183594 7.375 9.363281 7.507812 C 9.539062 7.644531 9.980469 7.75 9.875 7.941406 C 9.539062 8.566406 8.441406 8.917969 8.160156 9.273438 C 8.566406 9.625 8.515625 9.835938 9.074219 10.199219 C 9.140625 10.160156 9.265625 10.132812 9.296875 10.140625 C 9.332031 10.152344 9.40625 10.207031 9.390625 10.308594 C 9.402344 10.316406 9.484375 10.390625 9.503906 10.425781 C 9.554688 10.527344 9.546875 10.816406 9.460938 10.894531 Z M 12.800781 10.921875 C 12.875 10.976562 13.046875 10.988281 13.085938 10.972656 C 13.179688 10.9375 13.378906 10.757812 13.484375 10.59375 C 13.671875 10.292969 14.511719 9.902344 14.671875 9.296875 C 14.699219 9.195312 14.683594 9.078125 14.59375 8.945312 C 14.539062 8.863281 13.886719 8.015625 13.316406 7.523438 C 13.164062 7.394531 12.78125 7.390625 12.617188 7.539062 C 12.449219 7.6875 12.019531 7.796875 12.140625 7.980469 C 12.527344 8.574219 13.652344 8.867188 13.960938 9.199219 C 13.585938 9.582031 13.65625 9.789062 13.128906 10.195312 C 13.058594 10.164062 12.933594 10.144531 12.902344 10.160156 C 12.867188 10.171875 12.796875 10.230469 12.820312 10.332031 C 12.8125 10.339844 12.734375 10.421875 12.71875 10.457031 C 12.675781 10.566406 12.707031 10.851562 12.800781 10.921875 Z M 12.800781 10.921875 "/>
<path style=" stroke:none;fill-rule:nonzero;fill:rgb(16.078431%,18.431373%,20%);fill-opacity:1;" d="M 13.582031 7.652344 C 13.183594 7.046875 12.460938 6.9375 12.003906 6.9375 L 10.054688 6.9375 C 9.597656 6.9375 8.875 7.046875 8.476562 7.652344 L 9.363281 8.605469 L 9.425781 10.273438 C 9.425781 10.273438 9.4375 11.597656 9.589844 12.027344 C 9.828125 12.042969 10.40625 12.109375 10.757812 12.160156 C 10.773438 12.160156 10.839844 11.710938 10.96875 11.28125 C 11.066406 11.285156 11.214844 11.273438 11.304688 11.253906 C 11.472656 11.542969 11.75 12.097656 11.761719 12.089844 C 12.101562 11.980469 12.613281 11.8125 12.855469 11.703125 C 12.820312 11.210938 12.695312 10.390625 12.695312 10.390625 L 12.695312 8.605469 Z M 13.582031 7.652344 "/>
<path style=" stroke:none;fill-rule:nonzero;fill:rgb(100%,86.27451%,36.470588%);fill-opacity:1;" d="M 12.140625 7.226562 C 12.140625 7.046875 12.09375 6.9375 11.863281 6.9375 L 11.863281 5.6875 L 10.195312 5.6875 L 10.195312 6.9375 C 9.964844 6.9375 9.917969 7.046875 9.917969 7.226562 C 9.917969 7.324219 9.917969 8.167969 11.027344 8.171875 L 11.03125 8.171875 C 12.140625 8.167969 12.140625 7.324219 12.140625 7.226562 Z M 12.140625 7.226562 "/>
<path style=" stroke:none;fill-rule:nonzero;fill:rgb(97.647059%,79.215686%,33.333333%);fill-opacity:1;" d="M 10.191406 6.765625 C 10.445312 7.054688 10.683594 7.125 11.023438 7.125 C 11.367188 7.125 11.605469 7.054688 11.859375 6.765625 L 11.859375 6.429688 L 10.191406 6.429688 Z M 10.191406 6.765625 "/>
<path style=" stroke:none;fill-rule:nonzero;fill:rgb(100%,67.45098%,20%);fill-opacity:1;" d="M 11.238281 1.105469 C 10.742188 1.105469 10.285156 1.261719 9.914062 1.527344 C 9.144531 1.570312 8.53125 2.199219 8.53125 2.980469 C 8.53125 3.621094 8.53125 4.433594 9.378906 4.734375 C 9.792969 5.3125 10.472656 5.6875 11.238281 5.6875 C 12.503906 5.6875 13.53125 4.660156 13.53125 3.398438 C 13.53125 2.132812 12.503906 1.105469 11.238281 1.105469 Z M 11.238281 1.105469 "/>
<path style=" stroke:none;fill-rule:nonzero;fill:rgb(100%,86.27451%,36.470588%);fill-opacity:1;" d="M 13.113281 2.355469 L 8.945312 2.355469 L 8.945312 4.855469 C 8.945312 6.007812 9.878906 6.9375 11.03125 6.9375 C 12.179688 6.9375 13.113281 6.007812 13.113281 4.855469 Z M 13.113281 2.355469 "/>
<path style=" stroke:none;fill-rule:nonzero;fill:rgb(100%,67.45098%,20%);fill-opacity:1;" d="M 8.957031 2.148438 L 8.75 2.980469 L 8.945312 4.023438 C 9.917969 4.023438 10.132812 3.015625 10.183594 2.566406 C 10.199219 3.015625 10.519531 4.023438 13.113281 4.023438 L 13.332031 2.980469 L 13.125 2.148438 Z M 8.957031 2.148438 "/>
<path style=" stroke:none;fill-rule:nonzero;fill:rgb(75.686275%,41.176471%,30.980392%);fill-opacity:1;" d="M 11.863281 6.105469 L 10.195312 6.105469 C 10.195312 6.105469 10.195312 6.523438 11.03125 6.523438 C 11.863281 6.523438 11.863281 6.105469 11.863281 6.105469 Z M 11.863281 6.105469 "/>
<path style=" stroke:none;fill-rule:nonzero;fill:rgb(40%,12.941176%,7.45098%);fill-opacity:1;" d="M 10.195312 4.648438 C 10.195312 4.761719 10.101562 4.855469 9.988281 4.855469 C 9.871094 4.855469 9.78125 4.761719 9.78125 4.648438 C 9.78125 4.53125 9.871094 4.4375 9.988281 4.4375 C 10.101562 4.4375 10.195312 4.53125 10.195312 4.648438 Z M 10.195312 4.648438 "/>
<path style=" stroke:none;fill-rule:nonzero;fill:rgb(40%,12.941176%,7.45098%);fill-opacity:1;" d="M 12.28125 4.648438 C 12.28125 4.761719 12.1875 4.855469 12.070312 4.855469 C 11.957031 4.855469 11.863281 4.761719 11.863281 4.648438 C 11.863281 4.53125 11.957031 4.4375 12.070312 4.4375 C 12.1875 4.4375 12.28125 4.53125 12.28125 4.648438 Z M 12.28125 4.648438 "/>
<path style=" stroke:none;fill-rule:nonzero;fill:rgb(75.686275%,41.176471%,30.980392%);fill-opacity:1;" d="M 10.613281 5.273438 L 11.445312 5.273438 C 11.445312 5.273438 11.445312 5.6875 11.03125 5.6875 C 10.613281 5.6875 10.613281 5.273438 10.613281 5.273438 Z M 10.613281 5.273438 "/>
<path style=" stroke:none;fill-rule:nonzero;fill:rgb(16.078431%,18.431373%,20%);fill-opacity:1;" d="M 8.816406 0.324219 C 9.910156 0.234375 10.378906 1.523438 10.066406 2.09375 C 9.246094 2.09375 8.425781 1.339844 8.816406 0.324219 Z M 12.976562 0.347656 C 11.882812 0.257812 11.414062 1.546875 11.726562 2.121094 C 12.546875 2.121094 13.367188 1.367188 12.976562 0.347656 Z M 12.976562 0.347656 "/>
<path style=" stroke:none;fill-rule:nonzero;fill:rgb(16.078431%,18.431373%,20%);fill-opacity:1;" d="M 9.910156 1.625 C 10.664062 1.027344 11.71875 1.183594 12.058594 1.691406 C 12.070312 1.820312 11.902344 2.183594 11.769531 2.121094 C 11.433594 1.964844 10.859375 1.730469 10.078125 2.09375 C 10.039062 2.066406 9.894531 1.636719 9.910156 1.625 Z M 13.097656 14.039062 C 12.9375 14.234375 13.3125 14.820312 13.59375 14.941406 C 13.828125 15.039062 14.238281 15.003906 14.363281 14.753906 C 14.441406 14.597656 13.929688 13.988281 13.769531 13.949219 C 13.605469 13.914062 14.015625 14.148438 13.621094 14.183594 C 13.335938 14.210938 13.097656 14.039062 13.097656 14.039062 Z M 10.6875 14.203125 C 10.898438 14.382812 10.957031 14.816406 10.242188 14.953125 C 9.710938 15.054688 9.3125 14.988281 9.261719 14.792969 C 9.199219 14.546875 9.882812 14.261719 10.054688 14.222656 C 10.226562 14.1875 9.855469 14.457031 10.152344 14.445312 C 10.453125 14.433594 10.6875 14.203125 10.6875 14.203125 Z M 10.6875 14.203125 "/>
</g>
</svg>
