<?xml version="1.0" encoding="UTF-8"?>
<svg xmlns="http://www.w3.org/2000/svg" xmlns:xlink="http://www.w3.org/1999/xlink" width="15pt" height="15pt" viewBox="0 0 15 15" version="1.1">
<g id="surface1">
<path style=" stroke:none;fill-rule:nonzero;fill:rgb(16.078431%,18.431373%,20%);fill-opacity:1;" d="M 14.769531 13.382812 C 14.769531 13.382812 14.3125 14.167969 13.570312 14.167969 L 8.058594 14.167969 C 6.546875 14.167969 6.230469 12.425781 4.890625 9.746094 C 3.550781 7.070312 2.015625 8.476562 2.015625 8.476562 L 1.507812 14.582031 L 0.972656 14.582031 C 0.972656 14.582031 0.714844 9.355469 0.453125 8.5 C -0.152344 6.5625 0.191406 5.09375 0.191406 5.09375 L 3.53125 5.320312 L 7.742188 11.789062 Z M 14.769531 13.382812 "/>
<path style=" stroke:none;fill-rule:nonzero;fill:rgb(86.666667%,18.039216%,26.666667%);fill-opacity:1;" d="M 12.6875 11.039062 C 12.214844 10.910156 11.90625 10.78125 11.90625 10.78125 C 11.691406 11.003906 11.394531 11.039062 11.125 11.039062 C 9.53125 11.039062 8.707031 10.390625 7.742188 8.175781 C 5.660156 3.394531 2.230469 1.410156 1.234375 1.410156 C 0.171875 1.410156 -0.417969 6.355469 0.191406 6.355469 C 2.109375 6.355469 3.699219 6.742188 4.824219 7.917969 C 6.507812 9.671875 7.121094 13.382812 8.207031 13.382812 L 14.769531 13.382812 C 14.769531 13.382812 15.03125 11.691406 12.6875 11.039062 Z M 12.6875 11.039062 "/>
</g>
</svg>
