<?xml version="1.0" encoding="UTF-8"?>
<svg xmlns="http://www.w3.org/2000/svg" xmlns:xlink="http://www.w3.org/1999/xlink" width="15pt" height="15pt" viewBox="0 0 15 15" version="1.1">
<g id="surface1">
<path style=" stroke:none;fill-rule:nonzero;fill:rgb(16.078431%,18.431373%,20%);fill-opacity:1;" d="M 11.613281 10.832031 L 6.613281 10.832031 C 5.234375 10.832031 3.644531 11.746094 3.644531 13.125 L 3.644531 15 L 14.480469 15 L 14.480469 13.125 C 14.480469 11.746094 12.996094 10.832031 11.613281 10.832031 Z M 11.613281 10.832031 "/>
<path style=" stroke:none;fill-rule:nonzero;fill:rgb(96.470588%,86.666667%,80.392157%);fill-opacity:1;" d="M 9.0625 10.796875 L 6.484375 11.050781 L 9.0625 14.402344 L 11.242188 11.050781 Z M 9.0625 10.796875 "/>
<path style=" stroke:none;fill-rule:nonzero;fill:rgb(65.882353%,55.294118%,75.686275%);fill-opacity:1;" d="M 9.0625 15 L 12.8125 15 C 14.480469 13.542969 14.929688 12.292969 14.929688 12.292969 C 14.929688 12.292969 13.542969 10.832031 10.859375 10.355469 C 10.859375 10.867188 11.269531 11.660156 11.269531 11.660156 L 9.0625 14.402344 Z M 9.0625 15 "/>
<path style=" stroke:none;fill-rule:nonzero;fill:rgb(65.882353%,55.294118%,75.686275%);fill-opacity:1;" d="M 9.0625 15 L 5.3125 15 C 3.644531 13.542969 3.195312 12.292969 3.195312 12.292969 C 3.195312 12.292969 4.582031 10.832031 7.265625 10.355469 C 7.265625 10.867188 6.851562 11.660156 6.851562 11.660156 L 9.0625 14.402344 Z M 9.0625 15 "/>
<path style=" stroke:none;fill-rule:nonzero;fill:rgb(45.098039%,33.333333%,63.529412%);fill-opacity:1;" d="M 13.75 11.417969 C 13.75 11.417969 12.9375 10.867188 12.019531 10.558594 C 10.746094 10.136719 11.027344 11.316406 11.027344 11.316406 C 11.027344 11.316406 9.4375 13.832031 9.0625 14.402344 C 9.0625 14.402344 11.785156 12.140625 13.75 11.417969 Z M 4.375 11.417969 C 4.375 11.417969 5.1875 10.867188 6.105469 10.558594 C 7.378906 10.136719 7.09375 11.316406 7.09375 11.316406 C 7.09375 11.316406 8.6875 13.832031 9.0625 14.402344 C 9.0625 14.402344 6.339844 12.140625 4.375 11.417969 Z M 4.375 11.417969 "/>
<path style=" stroke:none;fill-rule:nonzero;fill:rgb(32.156863%,18.039216%,55.294118%);fill-opacity:1;" d="M 9.0625 14.402344 C 9.0625 14.402344 12.117188 11.285156 14.113281 10.921875 C 12.414062 9.496094 9.894531 9.652344 9.894531 9.652344 C 9.894531 10.164062 10.515625 10.429688 10.515625 11.0625 C 10.515625 12.097656 9.4375 13.648438 9.0625 14.214844 Z M 9.0625 14.402344 "/>
<path style=" stroke:none;fill-rule:nonzero;fill:rgb(32.156863%,18.039216%,55.294118%);fill-opacity:1;" d="M 9.0625 14.402344 C 9.0625 14.402344 6.007812 11.285156 4.007812 10.921875 C 5.710938 9.496094 8.226562 9.652344 8.226562 9.652344 C 8.226562 10.164062 7.609375 10.429688 7.609375 11.0625 C 7.609375 12.097656 8.6875 13.648438 9.0625 14.214844 Z M 9.0625 14.402344 "/>
<path style=" stroke:none;fill-rule:nonzero;fill:rgb(96.470588%,86.666667%,80.392157%);fill-opacity:1;" d="M 7.605469 11.050781 C 8.214844 11.492188 8.765625 11.457031 9.0625 11.457031 C 9.359375 11.457031 9.976562 11.492188 10.515625 11.0625 L 10.519531 9.335938 L 7.605469 9.335938 Z M 7.605469 11.050781 "/>
<path style=" stroke:none;fill-rule:nonzero;fill:rgb(92.54902%,75.294118%,67.45098%);fill-opacity:1;" d="M 7.605469 10.066406 C 8.011719 10.523438 8.515625 10.648438 9.0625 10.648438 C 9.609375 10.648438 10.113281 10.523438 10.519531 10.066406 L 10.519531 8.898438 L 7.605469 8.898438 Z M 7.605469 10.066406 "/>
<path style=" stroke:none;fill-rule:nonzero;fill:rgb(95.686275%,67.058824%,72.941176%);fill-opacity:1;" d="M 12.867188 9.0625 C 12.792969 9.214844 12.644531 9.371094 12.558594 9.449219 C 13.378906 9.628906 13.957031 9.84375 13.957031 9.84375 C 13.957031 9.84375 13.757812 9.566406 13.667969 9.0625 C 13.636719 8.886719 13.507812 8.71875 13.476562 8.488281 C 13.445312 8.21875 13.410156 7.910156 13.390625 7.570312 C 13.371094 7.171875 13.339844 6.816406 13.355469 6.335938 C 13.476562 2.632812 10.75 1.65625 9.039062 1.65625 C 7.332031 1.65625 4.359375 2.515625 4.476562 6.21875 C 4.492188 6.699219 4.484375 7.136719 4.464844 7.535156 C 4.445312 7.875 4.417969 8.183594 4.382812 8.453125 C 4.355469 8.683594 4.324219 8.886719 4.296875 9.0625 C 4.207031 9.566406 4.121094 9.84375 4.121094 9.84375 C 4.121094 9.84375 7 8.765625 9.039062 9.445312 C 9.972656 9.132812 11.074219 9.191406 12 9.34375 C 12.144531 9.304688 12.597656 9.175781 12.867188 9.0625 Z M 12.867188 9.0625 "/>
<path style=" stroke:none;fill-rule:nonzero;fill:rgb(96.470588%,86.666667%,80.392157%);fill-opacity:1;" d="M 9.039062 1.691406 C 7.148438 1.691406 5.617188 3.664062 5.617188 6.09375 C 5.617188 6.660156 5.703125 7.191406 5.855469 7.679688 C 5.875 7.746094 5.898438 7.808594 5.917969 7.875 C 6.019531 8.148438 6.140625 8.410156 6.28125 8.648438 C 6.367188 8.792969 6.457031 8.933594 6.558594 9.066406 C 7.183594 9.878906 8.0625 10.378906 9.039062 10.378906 C 10.929688 10.378906 12.460938 8.523438 12.460938 6.09375 C 12.460938 3.664062 10.929688 1.691406 9.039062 1.691406 Z M 9.039062 1.691406 "/>
<path style=" stroke:none;fill-rule:nonzero;fill:rgb(86.666667%,18.039216%,26.666667%);fill-opacity:1;" d="M 8.234375 5.890625 L 9.3125 4.351562 L 7.492188 3.613281 L 5.855469 7.679688 C 5.875 7.746094 5.894531 7.808594 5.917969 7.875 L 6.730469 7.539062 L 6.28125 8.648438 C 6.367188 8.792969 6.457031 8.933594 6.558594 9.066406 L 9.402344 5.632812 Z M 8.234375 5.890625 "/>
<path style=" stroke:none;fill-rule:nonzero;fill:rgb(87.058824%,12.54902%,19.607843%);fill-opacity:1;" d="M 9.039062 9.355469 C 8.371094 9.355469 8.019531 9.023438 7.984375 8.984375 C 7.871094 8.875 7.871094 8.695312 7.984375 8.582031 C 8.09375 8.472656 8.269531 8.472656 8.382812 8.582031 C 8.398438 8.59375 8.613281 8.785156 9.039062 8.785156 C 9.472656 8.785156 9.6875 8.589844 9.695312 8.578125 C 9.808594 8.472656 9.988281 8.476562 10.097656 8.589844 C 10.207031 8.699219 10.207031 8.875 10.097656 8.984375 C 10.058594 9.023438 9.707031 9.355469 9.039062 9.355469 "/>
<path style=" stroke:none;fill-rule:nonzero;fill:rgb(75.686275%,41.176471%,30.980392%);fill-opacity:1;" d="M 9.410156 8.085938 L 8.707031 8.085938 C 8.609375 8.085938 8.53125 8.007812 8.53125 7.910156 L 8.53125 7.847656 C 8.53125 7.75 8.609375 7.671875 8.707031 7.671875 L 9.410156 7.671875 C 9.507812 7.671875 9.585938 7.75 9.585938 7.847656 L 9.585938 7.910156 C 9.585938 8.007812 9.507812 8.085938 9.410156 8.085938 "/>
<path style=" stroke:none;fill-rule:nonzero;fill:rgb(40%,13.333333%,7.45098%);fill-opacity:1;" d="M 10.46875 7 C 10.273438 7 10.117188 6.839844 10.117188 6.644531 L 10.117188 6.292969 C 10.117188 6.097656 10.273438 5.941406 10.46875 5.941406 C 10.660156 5.941406 10.820312 6.097656 10.820312 6.292969 L 10.820312 6.644531 C 10.820312 6.839844 10.660156 7 10.46875 7 M 7.648438 7 C 7.457031 7 7.296875 6.839844 7.296875 6.644531 L 7.296875 6.292969 C 7.296875 6.097656 7.457031 5.941406 7.648438 5.941406 C 7.84375 5.941406 8.003906 6.097656 8.003906 6.292969 L 8.003906 6.644531 C 8.003906 6.839844 7.84375 7 7.648438 7 "/>
<path style=" stroke:none;fill-rule:nonzero;fill:rgb(95.686275%,67.058824%,72.941176%);fill-opacity:1;" d="M 13.617188 7.09375 C 13.617188 6.628906 13.617188 6.5625 13.617188 6.128906 C 13.617188 5.195312 13.4375 4.410156 13.140625 3.757812 C 13.300781 3.789062 13.492188 3.816406 13.660156 3.796875 C 13.335938 3.566406 12.863281 3.136719 12.679688 2.96875 C 11.695312 1.605469 10.144531 1.042969 9.058594 1.042969 C 7.492188 1.042969 4.980469 2.183594 4.5625 5.214844 L 4.554688 5.167969 C 4.554688 5.167969 4.207031 6.015625 3.945312 6.464844 C 4.144531 6.398438 4.351562 6.257812 4.496094 6.148438 C 4.496094 6.453125 4.488281 6.667969 4.5 7.460938 L 4.800781 7.460938 C 4.789062 7.046875 4.78125 7.367188 4.78125 7.269531 C 4.78125 5.84375 5.636719 7.472656 5.636719 6.457031 C 5.636719 5.441406 6.207031 5.339844 6.777344 4.769531 C 6.914062 4.632812 7.117188 4.429688 7.292969 4.257812 C 7.875 4.523438 8.65625 4.722656 9.683594 4.769531 C 9.78125 4.800781 10.453125 5.011719 10.980469 5.5625 C 10.964844 5.207031 10.820312 4.96875 10.730469 4.847656 C 11.542969 5.011719 12.042969 5.566406 12.148438 6.5 L 12.152344 6.53125 C 12.148438 6.6875 12.105469 7.273438 11.773438 7.824219 C 12.058594 7.730469 12.230469 7.566406 12.320312 7.457031 C 12.824219 9.445312 13.957031 9.84375 13.957031 9.84375 C 13.726562 8.839844 13.644531 7.832031 13.617188 7.09375 Z M 13.617188 7.09375 "/>
<path style=" stroke:none;fill-rule:nonzero;fill:rgb(96.470588%,86.666667%,80.392157%);fill-opacity:1;" d="M 6.332031 6.183594 C 6.332031 6.789062 6.023438 7.277344 5.648438 7.277344 C 5.269531 7.277344 4.964844 6.789062 4.964844 6.183594 C 4.964844 5.582031 5.269531 5.09375 5.648438 5.09375 C 6.023438 5.09375 6.332031 5.582031 6.332031 6.183594 "/>
<path style=" stroke:none;fill-rule:nonzero;fill:rgb(25.882353%,25.490196%,26.27451%);fill-opacity:1;" d="M 4.378906 8.453125 C 3.675781 8.453125 3.101562 9.027344 3.101562 9.734375 C 3.101562 9.933594 3.152344 10.121094 3.234375 10.289062 L 3.136719 10.191406 C 2.992188 10.046875 2.765625 10.054688 2.628906 10.210938 L 0.34375 12.800781 C 0.117188 13.0625 0.0117188 13.488281 0.347656 13.824219 C 0.6875 14.160156 1.101562 14.0625 1.371094 13.828125 L 1.742188 13.488281 L 1.742188 15 L 2.484375 15 L 2.484375 12.808594 L 3.921875 11.5 C 4.074219 11.363281 4.085938 11.140625 3.941406 10.996094 L 3.828125 10.882812 C 3.996094 10.964844 4.179688 11.011719 4.378906 11.011719 C 5.085938 11.011719 5.660156 10.441406 5.660156 9.734375 C 5.660156 9.027344 5.085938 8.453125 4.378906 8.453125 Z M 4.378906 8.453125 "/>
<path style=" stroke:none;fill-rule:nonzero;fill:rgb(34.901961%,34.901961%,36.078431%);fill-opacity:1;" d="M 5.066406 10.96875 C 5.003906 11.03125 4.902344 11.03125 4.839844 10.96875 L 3.144531 9.273438 C 3.082031 9.210938 3.082031 9.109375 3.144531 9.046875 L 3.371094 8.820312 C 3.433594 8.757812 3.535156 8.757812 3.597656 8.820312 L 5.292969 10.515625 C 5.355469 10.578125 5.355469 10.679688 5.292969 10.742188 Z M 5.066406 10.96875 "/>
</g>
</svg>
