<?xml version="1.0" encoding="UTF-8"?>
<svg xmlns="http://www.w3.org/2000/svg" xmlns:xlink="http://www.w3.org/1999/xlink" width="15pt" height="15pt" viewBox="0 0 15 15" version="1.1">
<g id="surface1">
<path style=" stroke:none;fill-rule:nonzero;fill:rgb(100%,86.27451%,36.470588%);fill-opacity:1;" d="M 3.75 9.167969 L 3.75 7.5 L 5.832031 7.5 L 5.832031 9.167969 L 6.667969 9.167969 L 6.667969 11.667969 L 2.917969 11.667969 L 2.917969 9.167969 Z M 3.75 9.167969 "/>
<path style=" stroke:none;fill-rule:nonzero;fill:rgb(23.137255%,57.647059%,85.098039%);fill-opacity:1;" d="M 9.132812 15 L 9.144531 10.40625 C 9.144531 9.582031 8.726562 9.167969 7.894531 9.167969 L 5.808594 9.167969 L 4.78125 10.742188 L 3.726562 9.167969 L 1.226562 9.167969 C 0.484375 9.167969 0.417969 9.664062 0.417969 10.40625 L 0.417969 15 Z M 9.132812 15 "/>
<path style=" stroke:none;fill-rule:nonzero;fill:rgb(10.588235%,38.823529%,60%);fill-opacity:1;" d="M 7.058594 10.832031 L 7.058594 15 L 7.488281 15 L 7.488281 10.832031 Z M 2.070312 10.832031 L 2.070312 15 L 2.5 15 L 2.5 10.832031 Z M 2.070312 10.832031 "/>
<path style=" stroke:none;fill-rule:nonzero;fill:rgb(100%,86.27451%,36.470588%);fill-opacity:1;" d="M 7.917969 5.832031 L 7.917969 2.082031 L 1.667969 1.667969 L 1.667969 5.832031 L 1.675781 5.832031 C 1.78125 7.453125 3.132812 8.738281 4.792969 8.738281 C 6.347656 8.738281 7.644531 7.605469 7.882812 6.125 C 7.898438 6.027344 7.910156 5.933594 7.917969 5.832031 Z M 7.917969 5.832031 "/>
<path style=" stroke:none;fill-rule:nonzero;fill:rgb(100%,67.45098%,20%);fill-opacity:1;" d="M 7.882812 6.125 C 8.421875 5.484375 8.75 4.65625 8.75 3.75 C 8.75 1.710938 7.097656 0.0585938 5.058594 0.0585938 C 4.503906 0.0585938 3.980469 0.183594 3.511719 0.402344 C 3.554688 0.398438 3.667969 0.394531 3.726562 0.394531 C 2.09375 0.40625 0.773438 1.734375 0.773438 3.367188 C 0.773438 4.199219 1.117188 4.945312 1.667969 5.484375 L 1.667969 4.167969 C 4.195312 4.167969 5.703125 3.09375 6.457031 2.25 C 6.65625 2.875 7.089844 3.820312 7.917969 4.089844 L 7.917969 5.832031 C 7.910156 5.933594 7.898438 6.027344 7.882812 6.125 Z M 7.882812 6.125 "/>
<path style=" stroke:none;fill-rule:nonzero;fill:rgb(74.901961%,41.176471%,32.156863%);fill-opacity:1;" d="M 6.109375 7.382812 L 3.425781 7.382812 C 3.425781 7.382812 3.761719 8.054688 4.769531 8.054688 C 5.777344 8.054688 6.109375 7.382812 6.109375 7.382812 Z M 4.976562 6.457031 L 4.558594 6.457031 C 4.445312 6.457031 4.351562 6.363281 4.351562 6.25 C 4.351562 6.136719 4.445312 6.042969 4.558594 6.042969 L 4.976562 6.042969 C 5.089844 6.042969 5.183594 6.136719 5.183594 6.25 C 5.183594 6.363281 5.09375 6.457031 4.976562 6.457031 Z M 4.976562 6.457031 "/>
<path style=" stroke:none;fill-rule:nonzero;fill:rgb(40%,12.941176%,7.45098%);fill-opacity:1;" d="M 3.332031 5.417969 C 3.101562 5.417969 2.917969 5.230469 2.917969 5 L 2.917969 4.582031 C 2.917969 4.351562 3.101562 4.167969 3.332031 4.167969 C 3.5625 4.167969 3.75 4.351562 3.75 4.582031 L 3.75 5 C 3.75 5.230469 3.5625 5.417969 3.332031 5.417969 Z M 6.25 5.417969 C 6.019531 5.417969 5.832031 5.230469 5.832031 5 L 5.832031 4.582031 C 5.832031 4.351562 6.019531 4.167969 6.25 4.167969 C 6.480469 4.167969 6.667969 4.351562 6.667969 4.582031 L 6.667969 5 C 6.667969 5.230469 6.480469 5.417969 6.25 5.417969 Z M 6.25 5.417969 "/>
<path style=" stroke:none;fill-rule:nonzero;fill:rgb(100%,86.27451%,36.470588%);fill-opacity:1;" d="M 13.746094 10.851562 L 13.746094 10.832031 L 13.75 10.832031 L 13.75 8.332031 L 12.269531 8.332031 C 11.84375 8.09375 11.355469 7.957031 10.832031 7.957031 C 10.308594 7.957031 9.820312 8.09375 9.394531 8.332031 L 7.917969 8.332031 L 7.917969 10.851562 C 7.917969 12.25 8.914062 13.417969 10.238281 13.6875 C 10.429688 13.730469 10.628906 13.75 10.832031 13.75 C 11.035156 13.75 11.238281 13.726562 11.429688 13.6875 C 12.753906 13.414062 13.746094 12.25 13.746094 10.851562 Z M 13.746094 10.851562 "/>
<path style=" stroke:none;fill-rule:nonzero;fill:rgb(95.686275%,56.470588%,4.705882%);fill-opacity:1;" d="M 11.429688 13.6875 C 11.320312 13.902344 11.25 14.070312 11.25 14.167969 C 13.191406 14.167969 15 12.917969 15 12.917969 C 14.53125 11.378906 14.304688 9.527344 14.304688 9.527344 C 14.304688 7.714844 12.839844 6.25 11.03125 6.25 C 10.511719 6.25 10.023438 6.375 9.585938 6.589844 C 8.199219 6.617188 7.082031 7.75 7.082031 9.144531 C 7.082031 9.488281 7.152344 9.816406 7.277344 10.117188 C 7.171875 10.789062 6.972656 11.917969 6.667969 12.917969 C 6.667969 12.917969 8.476562 14.167969 10.417969 14.167969 C 10.417969 14.070312 10.347656 13.902344 10.238281 13.6875 C 8.914062 13.414062 7.917969 12.25 7.917969 10.851562 L 7.917969 9.566406 C 9.941406 9.492188 11.105469 8.8125 11.75 8.179688 C 12.195312 8.703125 12.902344 9.363281 13.75 9.535156 L 13.75 10.832031 L 13.746094 10.832031 L 13.746094 10.851562 C 13.746094 12.25 12.753906 13.414062 11.429688 13.6875 Z M 11.429688 13.6875 "/>
<path style=" stroke:none;fill-rule:nonzero;fill:rgb(100%,86.27451%,36.470588%);fill-opacity:1;" d="M 11.667969 14.582031 L 11.667969 12.917969 L 10 12.917969 L 10 14.582031 L 9.582031 14.582031 L 9.582031 15 L 12.082031 15 L 12.082031 14.582031 Z M 11.667969 14.582031 "/>
<path style=" stroke:none;fill-rule:nonzero;fill:rgb(91.764706%,34.901961%,43.137255%);fill-opacity:1;" d="M 10.832031 15 L 14.507812 15 C 14.292969 14.332031 13.609375 13.75 12.917969 13.75 L 11.667969 13.75 Z M 10.832031 15 "/>
<path style=" stroke:none;fill-rule:nonzero;fill:rgb(91.764706%,34.901961%,43.137255%);fill-opacity:1;" d="M 9.167969 13.75 C 8.128906 13.75 7.386719 14.328125 7.160156 15 L 10.832031 15 L 10 13.75 Z M 9.167969 13.75 "/>
<path style=" stroke:none;fill-rule:nonzero;fill:rgb(74.901961%,41.176471%,32.156863%);fill-opacity:1;" d="M 12.082031 12.5 L 9.582031 12.5 C 9.582031 12.5 9.828125 13.332031 10.832031 13.332031 C 11.839844 13.332031 12.082031 12.5 12.082031 12.5 Z M 10.832031 12.292969 C 10.777344 12.292969 10.726562 12.269531 10.6875 12.230469 C 10.644531 12.191406 10.625 12.136719 10.625 12.082031 C 10.625 12.027344 10.644531 11.976562 10.6875 11.933594 C 10.757812 11.863281 10.902344 11.859375 10.984375 11.9375 C 11.019531 11.976562 11.042969 12.027344 11.042969 12.082031 C 11.042969 12.136719 11.019531 12.191406 10.980469 12.230469 C 10.941406 12.269531 10.886719 12.292969 10.832031 12.292969 Z M 10.832031 12.292969 "/>
<path style=" stroke:none;fill-rule:nonzero;fill:rgb(40%,12.941176%,7.45098%);fill-opacity:1;" d="M 9.582031 11.667969 C 9.351562 11.667969 9.167969 11.480469 9.167969 11.25 L 9.167969 10.832031 C 9.167969 10.601562 9.351562 10.417969 9.582031 10.417969 C 9.8125 10.417969 10 10.601562 10 10.832031 L 10 11.25 C 10 11.480469 9.8125 11.667969 9.582031 11.667969 Z M 12.082031 11.667969 C 11.851562 11.667969 11.667969 11.480469 11.667969 11.25 L 11.667969 10.832031 C 11.667969 10.601562 11.851562 10.417969 12.082031 10.417969 C 12.3125 10.417969 12.5 10.601562 12.5 10.832031 L 12.5 11.25 C 12.5 11.480469 12.3125 11.667969 12.082031 11.667969 Z M 12.082031 11.667969 "/>
</g>
</svg>
