<?xml version="1.0" encoding="UTF-8"?>
<svg xmlns="http://www.w3.org/2000/svg" xmlns:xlink="http://www.w3.org/1999/xlink" width="15pt" height="15pt" viewBox="0 0 15 15" version="1.1">
<g id="surface1">
<path style=" stroke:none;fill-rule:nonzero;fill:rgb(48.627451%,32.54902%,24.313725%);fill-opacity:1;" d="M 2.5 8.332031 C 2.5 9.253906 2.035156 10 1.457031 10 C 0.882812 10 0.417969 9.253906 0.417969 8.332031 C 0.417969 7.414062 0.882812 6.667969 1.457031 6.667969 C 2.035156 6.667969 2.5 7.414062 2.5 8.332031 Z M 14.582031 8.332031 C 14.582031 9.253906 14.117188 10 13.542969 10 C 12.964844 10 12.5 9.253906 12.5 8.332031 C 12.5 7.414062 12.964844 6.667969 13.542969 6.667969 C 14.117188 6.667969 14.582031 7.414062 14.582031 8.332031 Z M 14.582031 8.332031 "/>
<path style=" stroke:none;fill-rule:nonzero;fill:rgb(48.627451%,32.54902%,24.313725%);fill-opacity:1;" d="M 1.667969 8.566406 C 1.667969 5.015625 4.277344 2.136719 7.5 2.136719 C 10.722656 2.136719 13.332031 5.015625 13.332031 8.566406 C 13.332031 12.121094 10.722656 14.582031 7.5 14.582031 C 4.277344 14.582031 1.667969 12.121094 1.667969 8.566406 Z M 1.667969 8.566406 "/>
<path style=" stroke:none;fill-rule:nonzero;fill:rgb(0%,0%,0%);fill-opacity:1;" d="M 5 9.167969 C 4.769531 9.167969 4.582031 8.980469 4.582031 8.75 L 4.582031 7.917969 C 4.582031 7.6875 4.769531 7.5 5 7.5 C 5.230469 7.5 5.417969 7.6875 5.417969 7.917969 L 5.417969 8.75 C 5.417969 8.980469 5.230469 9.167969 5 9.167969 Z M 10 9.167969 C 9.769531 9.167969 9.582031 8.980469 9.582031 8.75 L 9.582031 7.917969 C 9.582031 7.6875 9.769531 7.5 10 7.5 C 10.230469 7.5 10.417969 7.6875 10.417969 7.917969 L 10.417969 8.75 C 10.417969 8.980469 10.230469 9.167969 10 9.167969 Z M 10 9.167969 "/>
<path style=" stroke:none;fill-rule:nonzero;fill:rgb(23.921569%,18.039216%,14.117647%);fill-opacity:1;" d="M 7.5 12.5 C 5.753906 12.5 4.851562 12.058594 4.8125 12.039062 C 4.609375 11.9375 4.523438 11.6875 4.628906 11.480469 C 4.730469 11.277344 4.980469 11.191406 5.183594 11.292969 C 5.207031 11.304688 5.988281 11.667969 7.5 11.667969 C 9.027344 11.667969 9.808594 11.296875 9.816406 11.292969 C 10.023438 11.191406 10.273438 11.277344 10.371094 11.484375 C 10.472656 11.6875 10.390625 11.9375 10.1875 12.039062 C 10.148438 12.058594 9.246094 12.5 7.5 12.5 Z M 7.917969 10.417969 L 7.082031 10.417969 C 6.851562 10.417969 6.667969 10.230469 6.667969 10 C 6.667969 9.769531 6.851562 9.582031 7.082031 9.582031 L 7.917969 9.582031 C 8.148438 9.582031 8.332031 9.769531 8.332031 10 C 8.332031 10.230469 8.148438 10.417969 7.917969 10.417969 Z M 7.917969 10.417969 "/>
<path style=" stroke:none;fill-rule:nonzero;fill:rgb(4.313725%,0.784314%,0%);fill-opacity:1;" d="M 7.5 0.148438 C 3.652344 0.148438 1.25 2.839844 1.25 5.082031 C 1.25 7.328125 1.730469 8.222656 2.210938 7.328125 L 3.171875 5.53125 C 3.171875 5.53125 4.753906 5.480469 5.714844 4.582031 C 5.714844 4.582031 5.269531 6.25 8.460938 4.632812 C 8.460938 4.632812 8.394531 6.25 10.625 4.582031 C 10.625 4.582031 12.308594 5.082031 12.789062 7.328125 C 12.921875 7.949219 13.75 7.328125 13.75 5.082031 C 13.75 2.839844 11.828125 0.148438 7.5 0.148438 Z M 7.5 0.148438 "/>
</g>
</svg>
