<?xml version="1.0" encoding="UTF-8"?>
<svg xmlns="http://www.w3.org/2000/svg" xmlns:xlink="http://www.w3.org/1999/xlink" width="15pt" height="15pt" viewBox="0 0 15 15" version="1.1">
<g id="surface1">
<path style=" stroke:none;fill-rule:nonzero;fill:rgb(16.078431%,18.431373%,20%);fill-opacity:1;" d="M 4.582031 0 C 4.058594 0 3.570312 0.164062 3.164062 0.441406 C 3.082031 0.429688 3.003906 0.417969 2.917969 0.417969 C 1.996094 0.417969 1.25 1.164062 1.25 2.082031 L 1.25 4.582031 C 1.25 6.195312 2.554688 7.5 4.167969 7.5 C 5.777344 7.5 7.082031 6.195312 7.082031 4.582031 L 7.082031 2.5 C 7.082031 1.121094 5.964844 0 4.582031 0 Z M 4.582031 0 "/>
<path style=" stroke:none;fill-rule:nonzero;fill:rgb(96.862745%,87.058824%,80.784314%);fill-opacity:1;" d="M 4.671875 14.296875 C 4.652344 14.578125 5.441406 14.691406 5.558594 14.625 C 5.683594 14.554688 5.269531 14.367188 5.265625 14.21875 C 5.257812 13.46875 5.488281 13.53125 5.394531 12.761719 C 5.582031 12.085938 5.675781 11.683594 5.675781 11.457031 C 5.675781 10.9375 4.296875 11.140625 4.296875 11.457031 C 4.296875 11.601562 4.449219 12.160156 4.46875 12.761719 C 4.339844 13.453125 4.738281 13.4375 4.671875 14.296875 Z M 3.652344 14.296875 C 3.671875 14.578125 2.882812 14.691406 2.765625 14.625 C 2.640625 14.554688 3.054688 14.367188 3.058594 14.21875 C 3.066406 13.46875 2.835938 13.53125 2.929688 12.761719 C 2.742188 12.085938 2.648438 11.683594 2.648438 11.457031 C 2.648438 10.9375 4.027344 11.140625 4.027344 11.457031 C 4.027344 11.601562 3.875 12.160156 3.855469 12.761719 C 3.984375 13.453125 3.585938 13.4375 3.652344 14.296875 Z M 3.652344 14.296875 "/>
<path style=" stroke:none;fill-rule:nonzero;fill:rgb(93.333333%,76.078431%,67.843137%);fill-opacity:1;" d="M 5.675781 11.457031 C 5.675781 10.9375 4.296875 11.140625 4.296875 11.457031 C 4.296875 11.519531 4.324219 11.667969 4.359375 11.859375 L 5.621094 11.859375 C 5.65625 11.6875 5.675781 11.554688 5.675781 11.457031 Z M 4.027344 11.457031 C 4.027344 11.140625 2.648438 10.9375 2.648438 11.457031 C 2.648438 11.554688 2.667969 11.6875 2.703125 11.859375 L 3.964844 11.859375 C 4 11.667969 4.027344 11.519531 4.027344 11.457031 Z M 4.027344 11.457031 "/>
<path style=" stroke:none;fill-rule:nonzero;fill:rgb(96.862745%,87.058824%,80.784314%);fill-opacity:1;" d="M 1.359375 11.234375 C 1.25 11.285156 1.148438 11.191406 1.097656 11.140625 C 0.964844 10.984375 0.855469 10.621094 0.980469 10.21875 C 1.109375 9.8125 1.230469 9.226562 1.480469 8.550781 C 1.515625 8.460938 1.691406 6.984375 1.816406 6.699219 C 1.898438 6.515625 2.351562 6.324219 2.570312 6.363281 C 2.792969 6.398438 2.671875 6.632812 2.613281 6.832031 C 2.613281 6.832031 2.234375 8.480469 2.191406 8.625 C 2.058594 9.074219 1.515625 9.839844 1.539062 10.390625 C 1.550781 10.675781 1.566406 10.910156 1.398438 10.90625 C 1.378906 11.058594 1.398438 11.214844 1.359375 11.234375 Z M 7.601562 11.148438 C 7.714844 11.1875 7.804688 11.082031 7.84375 11.023438 C 7.960938 10.855469 8.019531 10.480469 7.847656 10.097656 C 7.671875 9.710938 7.472656 9.140625 7.140625 8.503906 C 7.097656 8.417969 6.738281 6.972656 6.578125 6.707031 C 6.472656 6.539062 6.003906 6.40625 5.789062 6.46875 C 5.574219 6.535156 5.71875 6.75 5.804688 6.941406 C 5.804688 6.941406 6.386719 8.527344 6.445312 8.664062 C 6.632812 9.09375 7.269531 9.785156 7.316406 10.335938 C 7.339844 10.621094 7.355469 10.855469 7.519531 10.832031 C 7.558594 10.980469 7.558594 11.136719 7.601562 11.148438 Z M 7.601562 11.148438 "/>
<path style=" stroke:none;fill-rule:nonzero;fill:rgb(16.078431%,18.431373%,20%);fill-opacity:1;" d="M 5.808594 15 C 5.9375 15 5.964844 14.824219 5.847656 14.738281 C 5.691406 14.621094 5.480469 14.167969 5.195312 14.167969 L 4.679688 14.167969 C 4.582031 14.167969 4.472656 14.671875 4.507812 14.785156 C 4.550781 14.925781 4.6875 15 4.847656 15 Z M 2.511719 15 C 2.386719 15 2.359375 14.824219 2.476562 14.738281 C 2.632812 14.621094 2.84375 14.167969 3.125 14.167969 L 3.644531 14.167969 C 3.742188 14.167969 3.847656 14.671875 3.816406 14.785156 C 3.773438 14.925781 3.636719 15 3.476562 15 Z M 2.511719 15 "/>
<path style=" stroke:none;fill-rule:nonzero;fill:rgb(90.588235%,35.294118%,43.921569%);fill-opacity:1;" d="M 5.980469 7.40625 L 6.667969 6.667969 C 6.066406 5.921875 5 5.832031 5 5.832031 L 3.332031 5.832031 C 3.332031 5.832031 2.265625 5.921875 1.667969 6.667969 L 2.351562 7.40625 C 2.351562 7.40625 2.605469 8.621094 2.605469 8.75 C 2.605469 8.878906 2.082031 10.730469 2.082031 11.667969 L 6.25 11.667969 C 6.25 10.730469 5.730469 8.878906 5.730469 8.75 C 5.730469 8.621094 5.980469 7.40625 5.980469 7.40625 Z M 5.980469 7.40625 "/>
<path style=" stroke:none;fill-rule:nonzero;fill:rgb(85.490196%,18.431373%,27.843137%);fill-opacity:1;" d="M 5.730469 8.75 C 5.730469 8.707031 5.757812 8.535156 5.796875 8.332031 L 2.535156 8.332031 C 2.574219 8.535156 2.605469 8.707031 2.605469 8.75 C 2.605469 8.785156 2.554688 8.960938 2.511719 9.167969 L 5.820312 9.167969 C 5.777344 8.933594 5.730469 8.785156 5.730469 8.75 Z M 5.730469 8.75 "/>
<path style=" stroke:none;fill-rule:nonzero;fill:rgb(96.862745%,87.058824%,80.784314%);fill-opacity:1;" d="M 3.332031 4.582031 L 3.332031 6.25 C 3.332031 6.710938 3.707031 7.082031 4.167969 7.082031 C 4.625 7.082031 5 6.710938 5 6.25 L 5 4.582031 Z M 3.332031 4.582031 "/>
<path style=" stroke:none;fill-rule:nonzero;fill:rgb(93.333333%,76.078431%,67.843137%);fill-opacity:1;" d="M 3.332031 5.648438 C 3.585938 5.9375 3.824219 6.007812 4.164062 6.007812 C 4.507812 6.007812 4.746094 5.9375 5 5.648438 L 5 5.3125 L 3.332031 5.3125 Z M 3.332031 5.648438 "/>
<path style=" stroke:none;fill-rule:nonzero;fill:rgb(96.862745%,87.058824%,80.784314%);fill-opacity:1;" d="M 6.25 1.25 L 2.082031 1.25 L 2.082031 3.75 C 2.082031 4.902344 3.015625 5.832031 4.167969 5.832031 C 5.316406 5.832031 6.25 4.902344 6.25 3.75 Z M 6.25 1.25 "/>
<path style=" stroke:none;fill-rule:nonzero;fill:rgb(16.078431%,18.431373%,20%);fill-opacity:1;" d="M 6.25 0.832031 L 2.082031 0.832031 L 1.667969 2.917969 C 3.332031 2.917969 3.332031 1.25 3.332031 1.25 C 3.332031 1.25 3.332031 2.917969 6.667969 2.917969 Z M 6.25 0.832031 "/>
<path style=" stroke:none;fill-rule:nonzero;fill:rgb(87.45098%,12.156863%,19.607843%);fill-opacity:1;" d="M 5 5 L 3.332031 5 C 3.332031 5 3.332031 5.417969 4.167969 5.417969 C 5 5.417969 5 5 5 5 Z M 5 5 "/>
<path style=" stroke:none;fill-rule:nonzero;fill:rgb(40%,12.941176%,7.45098%);fill-opacity:1;" d="M 3.332031 3.542969 C 3.332031 3.65625 3.238281 3.75 3.125 3.75 C 3.011719 3.75 2.917969 3.65625 2.917969 3.542969 C 2.917969 3.425781 3.011719 3.332031 3.125 3.332031 C 3.238281 3.332031 3.332031 3.425781 3.332031 3.542969 Z M 3.332031 3.542969 "/>
<path style=" stroke:none;fill-rule:nonzero;fill:rgb(40%,12.941176%,7.45098%);fill-opacity:1;" d="M 5.417969 3.542969 C 5.417969 3.65625 5.324219 3.75 5.207031 3.75 C 5.09375 3.75 5 3.65625 5 3.542969 C 5 3.425781 5.09375 3.332031 5.207031 3.332031 C 5.324219 3.332031 5.417969 3.425781 5.417969 3.542969 Z M 5.417969 3.542969 "/>
<path style=" stroke:none;fill-rule:nonzero;fill:rgb(75.686275%,41.176471%,30.980392%);fill-opacity:1;" d="M 3.75 4.167969 L 4.582031 4.167969 C 4.582031 4.167969 4.582031 4.582031 4.167969 4.582031 C 3.75 4.582031 3.75 4.167969 3.75 4.167969 Z M 3.75 4.167969 "/>
<path style=" stroke:none;fill-rule:nonzero;fill:rgb(37.647059%,20.784314%,16.470588%);fill-opacity:1;" d="M 11.042969 0 C 10.546875 0 10.089844 0.15625 9.714844 0.425781 C 8.945312 0.464844 8.332031 1.09375 8.332031 1.875 C 8.332031 2.515625 8.335938 3.328125 9.183594 3.628906 C 9.597656 4.207031 10.273438 4.582031 11.042969 4.582031 C 12.308594 4.582031 13.332031 3.558594 13.332031 2.292969 C 13.332031 1.027344 12.308594 0 11.042969 0 Z M 11.042969 0 "/>
<path style=" stroke:none;fill-rule:nonzero;fill:rgb(68.627451%,49.411765%,34.117647%);fill-opacity:1;" d="M 7.546875 11.148438 C 7.4375 11.1875 7.347656 11.082031 7.304688 11.023438 C 7.1875 10.855469 7.128906 10.480469 7.304688 10.097656 C 7.480469 9.710938 7.59375 9.234375 8.007812 8.503906 C 8.054688 8.417969 8.214844 7.359375 8.523438 6.691406 C 8.609375 6.507812 9.148438 6.40625 9.363281 6.46875 C 9.574219 6.535156 9.359375 6.878906 9.347656 6.941406 C 9.203125 7.628906 8.800781 8.640625 8.742188 8.777344 C 8.410156 9.53125 7.921875 9.773438 7.878906 10.320312 C 7.855469 10.609375 7.792969 10.855469 7.628906 10.832031 C 7.589844 10.980469 7.589844 11.136719 7.546875 11.148438 Z M 13.628906 11.234375 C 13.738281 11.289062 13.839844 11.195312 13.886719 11.140625 C 14.027344 10.992188 14.132812 10.625 14.011719 10.222656 C 13.886719 9.816406 13.835938 9.328125 13.523438 8.550781 C 13.484375 8.460938 13.46875 7.390625 13.246094 6.683594 C 13.1875 6.496094 12.667969 6.320312 12.445312 6.355469 C 12.226562 6.390625 12.394531 6.761719 12.398438 6.828125 C 12.453125 7.527344 12.714844 8.582031 12.757812 8.726562 C 12.988281 9.515625 13.4375 9.820312 13.410156 10.371094 C 13.394531 10.65625 13.425781 10.910156 13.589844 10.910156 C 13.609375 11.0625 13.589844 11.214844 13.628906 11.234375 Z M 13.628906 11.234375 "/>
<path style=" stroke:none;fill-rule:nonzero;fill:rgb(66.666667%,72.156863%,76.078431%);fill-opacity:1;" d="M 12.316406 12.292969 C 12.523438 11.152344 12.492188 9.582031 12.492188 9.582031 L 9.171875 9.582031 C 9.171875 9.582031 9.140625 11.152344 9.347656 12.292969 C 9.375 12.433594 9.425781 13.683594 9.304688 14.582031 C 9.277344 14.78125 10.503906 14.972656 10.488281 14.53125 C 10.457031 13.710938 10.597656 13.066406 10.625 12.65625 C 10.640625 12.429688 10.730469 11.875 10.769531 11.320312 C 10.773438 11.3125 10.890625 11.3125 10.894531 11.320312 C 10.933594 11.875 11.023438 12.429688 11.039062 12.65625 C 11.066406 13.066406 11.207031 13.710938 11.175781 14.53125 C 11.15625 14.972656 12.386719 14.78125 12.359375 14.582031 C 12.238281 13.683594 12.289062 12.433594 12.316406 12.292969 Z M 12.316406 12.292969 "/>
<path style=" stroke:none;fill-rule:nonzero;fill:rgb(16.078431%,18.431373%,20%);fill-opacity:1;" d="M 12.726562 15 C 12.933594 14.832031 12.707031 14.515625 12.132812 14.414062 C 11.648438 14.332031 11.214844 14.402344 11.148438 14.5625 C 11.058594 14.765625 11.128906 15 11.128906 15 Z M 8.925781 15 C 8.71875 14.832031 8.941406 14.515625 9.519531 14.414062 C 10.003906 14.332031 10.433594 14.402344 10.503906 14.5625 C 10.589844 14.765625 10.523438 15 10.523438 15 Z M 8.925781 15 "/>
<path style=" stroke:none;fill-rule:nonzero;fill:rgb(25.882353%,53.72549%,75.686275%);fill-opacity:1;" d="M 12.832031 6.152344 C 12.324219 5.832031 11.667969 5.832031 11.667969 5.832031 L 10 5.832031 C 10 5.832031 9.34375 5.832031 8.835938 6.152344 C 8.335938 6.464844 8.144531 7.402344 8.144531 7.402344 L 9.0625 7.6875 L 9.109375 10 L 12.558594 10 L 12.605469 7.6875 L 13.523438 7.402344 C 13.523438 7.402344 13.332031 6.464844 12.832031 6.152344 Z M 12.832031 6.152344 "/>
<path style=" stroke:none;fill-rule:nonzero;fill:rgb(68.627451%,49.411765%,34.117647%);fill-opacity:1;" d="M 10 4.183594 L 10 5.851562 C 10 6.136719 10.375 6.394531 10.832031 6.394531 C 11.292969 6.394531 11.667969 6.117188 11.667969 5.851562 L 11.667969 4.183594 Z M 10 4.183594 "/>
<path style=" stroke:none;fill-rule:nonzero;fill:rgb(60.784314%,41.568627%,28.627451%);fill-opacity:1;" d="M 10 5.652344 C 10.253906 5.9375 10.492188 6.007812 10.832031 6.007812 C 11.171875 6.007812 11.414062 5.9375 11.667969 5.652344 L 11.667969 5.3125 L 10 5.3125 Z M 10 5.652344 "/>
<path style=" stroke:none;fill-rule:nonzero;fill:rgb(68.627451%,49.411765%,34.117647%);fill-opacity:1;" d="M 12.917969 1.25 L 8.75 1.25 L 8.75 3.75 C 8.75 4.902344 9.683594 5.832031 10.832031 5.832031 C 11.984375 5.832031 12.917969 4.902344 12.917969 3.75 Z M 12.917969 1.25 "/>
<path style=" stroke:none;fill-rule:nonzero;fill:rgb(37.647059%,20.784314%,16.470588%);fill-opacity:1;" d="M 8.75 1.042969 L 8.542969 2.082031 L 8.75 2.917969 C 9.722656 2.917969 9.9375 1.910156 9.984375 1.464844 C 10 1.910156 10.324219 2.917969 12.917969 2.917969 L 13.125 2.082031 L 12.917969 1.042969 Z M 8.75 1.042969 "/>
<path style=" stroke:none;fill-rule:nonzero;fill:rgb(56.862745%,35.294118%,20.392157%);fill-opacity:1;" d="M 11.667969 5 L 10 5 C 10 5 10 5.417969 10.832031 5.417969 C 11.667969 5.417969 11.667969 5 11.667969 5 Z M 11.667969 5 "/>
<path style=" stroke:none;fill-rule:nonzero;fill:rgb(40%,12.941176%,7.45098%);fill-opacity:1;" d="M 10 3.542969 C 10 3.65625 9.90625 3.75 9.792969 3.75 C 9.675781 3.75 9.582031 3.65625 9.582031 3.542969 C 9.582031 3.425781 9.675781 3.332031 9.792969 3.332031 C 9.90625 3.332031 10 3.425781 10 3.542969 Z M 10 3.542969 "/>
<path style=" stroke:none;fill-rule:nonzero;fill:rgb(40%,12.941176%,7.45098%);fill-opacity:1;" d="M 12.082031 3.542969 C 12.082031 3.65625 11.988281 3.75 11.875 3.75 C 11.761719 3.75 11.667969 3.65625 11.667969 3.542969 C 11.667969 3.425781 11.761719 3.332031 11.875 3.332031 C 11.988281 3.332031 12.082031 3.425781 12.082031 3.542969 Z M 12.082031 3.542969 "/>
<path style=" stroke:none;fill-rule:nonzero;fill:rgb(56.862745%,35.294118%,20.392157%);fill-opacity:1;" d="M 10.417969 4.167969 L 11.25 4.167969 C 11.25 4.167969 11.25 4.582031 10.832031 4.582031 C 10.417969 4.582031 10.417969 4.167969 10.417969 4.167969 Z M 10.417969 4.167969 "/>
</g>
</svg>
