<?xml version="1.0" encoding="UTF-8"?>
<svg xmlns="http://www.w3.org/2000/svg" xmlns:xlink="http://www.w3.org/1999/xlink" width="15pt" height="15pt" viewBox="0 0 15 15" version="1.1">
<g id="surface1">
<path style=" stroke:none;fill-rule:nonzero;fill:rgb(16.078431%,18.431373%,20%);fill-opacity:1;" d="M 3.324219 12.496094 C 3.324219 12.496094 3.367188 12.445312 3.398438 12.320312 C 3.429688 12.195312 3.425781 11.945312 3.417969 11.910156 C 3.410156 11.871094 3.394531 11.84375 3.351562 11.84375 C 3.316406 11.84375 3.035156 11.902344 2.875 11.867188 C 2.574219 11.800781 2.5 11.5 2.5 11.5 C 2.5 11.5 2.3125 11.550781 2.164062 11.59375 C 2.011719 11.636719 1.832031 11.710938 1.703125 11.75 C 1.59375 11.78125 1.476562 11.78125 1.359375 11.765625 C 1.242188 11.75 1.152344 11.722656 1.125 11.71875 C 1.097656 11.710938 0.875 11.625 0.808594 11.847656 L 0.792969 11.914062 C 0.792969 11.914062 1.15625 12.183594 1.714844 12.328125 C 2.273438 12.472656 2.402344 12.332031 2.761719 12.425781 C 3.121094 12.519531 3.324219 12.496094 3.324219 12.496094 Z M 3.324219 12.496094 "/>
<path style=" stroke:none;fill-rule:nonzero;fill:rgb(16.078431%,18.431373%,20%);fill-opacity:1;" d="M 2.511719 12.667969 C 2.496094 12.640625 2.484375 12.566406 2.46875 12.550781 C 2.449219 12.535156 2.222656 12.527344 2.117188 12.523438 C 2.011719 12.519531 1.832031 12.515625 1.628906 12.464844 C 1.425781 12.410156 1.179688 12.285156 1.03125 12.203125 C 0.878906 12.121094 0.765625 12.03125 0.742188 12.007812 C 0.71875 11.980469 0.730469 11.976562 0.734375 11.964844 C 0.742188 11.949219 0.777344 11.886719 0.777344 11.886719 C 0.777344 11.886719 0.867188 11.964844 1.03125 12.054688 C 1.195312 12.144531 1.359375 12.222656 1.660156 12.300781 C 1.960938 12.378906 2.164062 12.382812 2.332031 12.378906 C 2.539062 12.378906 2.835938 12.394531 3.039062 12.449219 C 3.195312 12.488281 3.316406 12.472656 3.363281 12.472656 C 3.375 12.472656 3.378906 12.480469 3.378906 12.492188 L 3.308594 12.757812 C 3.304688 12.777344 3.277344 12.8125 3.230469 12.808594 C 3.183594 12.808594 2.53125 12.695312 2.511719 12.667969 Z M 2.511719 12.667969 "/>
<path style=" stroke:none;fill-rule:nonzero;fill:rgb(25.882353%,53.72549%,75.686275%);fill-opacity:1;" d="M 9.917969 7.164062 C 9.996094 7.757812 9.859375 8.390625 9.410156 8.546875 C 8.976562 8.699219 8.136719 8.597656 8.136719 8.597656 C 8.136719 8.597656 7.859375 8.792969 7.957031 9.109375 C 8.011719 9.289062 8.089844 9.378906 8.066406 9.398438 C 8.046875 9.414062 7.863281 9.40625 7.78125 9.410156 C 7.5625 9.417969 7.316406 9.363281 6.902344 9.285156 C 6.488281 9.207031 6.304688 9.21875 5.851562 9.132812 C 5.351562 9.042969 4.996094 8.859375 4.816406 8.40625 C 4.660156 8.019531 4.851562 7.515625 5.40625 7.253906 C 5.855469 7.042969 7.191406 7.179688 7.695312 7.183594 C 8.199219 7.191406 9.847656 6.648438 9.917969 7.164062 Z M 9.917969 7.164062 "/>
<path style=" stroke:none;fill-rule:nonzero;fill:rgb(25.882353%,53.72549%,75.686275%);fill-opacity:1;" d="M 2.820312 11.953125 C 2.546875 11.917969 2.359375 11.789062 2.191406 11.578125 C 2.820312 10.730469 3.5 8.410156 3.5 8.410156 C 3.722656 7.660156 4.066406 7.140625 4.746094 7.109375 C 5.710938 7.0625 7.148438 7.121094 7.148438 7.121094 C 8.105469 7.175781 7.457031 7.425781 7.753906 7.777344 C 8.050781 8.128906 7.289062 8.648438 6.664062 8.664062 C 5.578125 8.683594 5.039062 8.617188 4.402344 9.214844 C 4.15625 10.199219 3.691406 10.984375 3.457031 11.976562 C 3.253906 12.027344 3.09375 11.988281 2.820312 11.953125 Z M 2.820312 11.953125 "/>
<path style=" stroke:none;fill-rule:nonzero;fill:rgb(95.294118%,82.352941%,63.529412%);fill-opacity:1;" d="M 9.101562 0.367188 C 8.515625 0.0820312 7.550781 0.316406 7.386719 1.015625 C 7.226562 1.707031 7.34375 2.820312 7.964844 2.800781 C 8.613281 2.777344 9.285156 2.6875 9.597656 2.046875 C 9.910156 1.402344 9.6875 0.648438 9.101562 0.367188 Z M 9.101562 0.367188 "/>
<path style=" stroke:none;fill-rule:nonzero;fill:rgb(95.294118%,82.352941%,63.529412%);fill-opacity:1;" d="M 9.414062 2.203125 C 10.367188 1.238281 8.246094 1.179688 8.246094 1.179688 C 7.84375 1.164062 8.070312 1.851562 7.851562 2.199219 C 7.703125 2.441406 8.238281 2.617188 8.238281 2.617188 C 8.238281 2.617188 8.488281 2.632812 8.480469 2.9375 L 8.480469 2.941406 C 8.476562 3.015625 8.460938 3.109375 8.414062 3.226562 C 8.191406 3.820312 8.976562 4.253906 9.203125 3.660156 C 9.289062 3.425781 9.28125 3.210938 9.257812 3.011719 L 9.257812 2.996094 C 9.222656 2.703125 9.175781 2.441406 9.414062 2.203125 Z M 9.414062 2.203125 "/>
<path style=" stroke:none;fill-rule:nonzero;fill:rgb(100%,89.803922%,11.764706%);fill-opacity:1;" d="M 9.773438 0.660156 C 9.40625 0.160156 8.867188 -0.078125 7.894531 0.21875 C 7.042969 0.476562 7.257812 1.152344 7.460938 1.054688 C 8.015625 0.785156 8.347656 1.078125 8.582031 1.527344 C 8.679688 1.324219 9.035156 1.21875 9.082031 1.535156 C 9.132812 1.890625 8.796875 2.015625 8.835938 2.113281 C 8.847656 2.148438 8.820312 2.085938 8.835938 2.113281 C 9.015625 2.496094 9.34375 2.632812 9.34375 2.632812 C 9.34375 2.632812 9.464844 2.695312 9.714844 2.28125 C 9.96875 1.867188 10.136719 1.160156 9.773438 0.660156 Z M 9.773438 0.660156 "/>
<path style=" stroke:none;fill-rule:nonzero;fill:rgb(100%,89.803922%,11.764706%);fill-opacity:1;" d="M 9.554688 1.117188 C 10.375 1.25 10.039062 2.183594 10.121094 2.617188 C 10.222656 3.152344 10.71875 3.183594 10.71875 3.183594 C 10.71875 3.183594 10.527344 2.90625 10.574219 2.511719 C 10.640625 1.964844 11.148438 1.523438 10.742188 1.007812 C 10.222656 0.347656 9.046875 1.035156 9.554688 1.117188 Z M 9.554688 1.117188 "/>
<path style=" stroke:none;fill-rule:nonzero;fill:rgb(57.254902%,40.784314%,79.215686%);fill-opacity:1;" d="M 10.148438 7.027344 C 10.152344 7.578125 10.125 7.765625 10.148438 8.003906 C 10.164062 8.136719 9.628906 7.996094 9.335938 7.933594 C 8.550781 7.757812 7.84375 7.421875 7.84375 7.421875 C 7.917969 6.90625 8.203125 6.144531 7.582031 5.414062 C 7.394531 5.191406 7.425781 4.640625 7.738281 4.148438 C 8.082031 3.597656 8.464844 3.089844 8.957031 3.039062 C 9.292969 3 9.621094 3.175781 9.851562 3.539062 C 10.769531 4.300781 10.167969 4.28125 10.175781 4.839844 C 10.183594 5.6875 10.140625 6.476562 10.148438 7.027344 Z M 10.148438 7.027344 "/>
<path style=" stroke:none;fill-rule:nonzero;fill:rgb(86.666667%,18.039216%,26.666667%);fill-opacity:1;" d="M 5.609375 11.289062 L 10.121094 11.683594 C 10.234375 11.695312 10.335938 11.609375 10.347656 11.496094 C 10.355469 11.378906 10.269531 11.277344 10.15625 11.269531 L 5.648438 10.871094 C 5.53125 10.863281 5.429688 10.949219 5.421875 11.0625 C 5.410156 11.175781 5.496094 11.277344 5.609375 11.289062 Z M 5.609375 11.289062 "/>
<path style=" stroke:none;fill-rule:nonzero;fill:rgb(86.666667%,18.039216%,26.666667%);fill-opacity:1;" d="M 10.121094 11.683594 C 10.003906 11.671875 9.921875 11.570312 9.929688 11.457031 L 10.113281 9.382812 C 10.121094 9.269531 10.222656 9.183594 10.339844 9.191406 C 10.453125 9.203125 10.535156 9.304688 10.527344 9.417969 L 10.347656 11.496094 C 10.335938 11.609375 10.234375 11.695312 10.121094 11.683594 Z M 5.644531 8.527344 C 5.53125 8.515625 5.429688 8.601562 5.421875 8.714844 L 4.996094 13.546875 C 4.988281 13.660156 5.074219 13.761719 5.1875 13.773438 C 5.300781 13.78125 5.402344 13.699219 5.414062 13.582031 L 5.835938 8.75 C 5.84375 8.636719 5.761719 8.535156 5.644531 8.527344 Z M 5.644531 8.527344 "/>
<path style=" stroke:none;fill-rule:nonzero;fill:rgb(16.078431%,18.431373%,20%);fill-opacity:1;" d="M 9.800781 8.578125 C 10.398438 8.496094 10.984375 8.519531 10.777344 8.808594 C 10.574219 9.09375 10.121094 9.601562 9.355469 9.519531 C 8.585938 9.433594 9.433594 8.632812 9.800781 8.578125 Z M 9.800781 8.578125 "/>
<path style=" stroke:none;fill-rule:nonzero;fill:rgb(16.078431%,18.431373%,20%);fill-opacity:1;" d="M 9.355469 9.519531 L 5.203125 9.15625 C 4.789062 9.117188 4.789062 9.117188 4.824219 8.703125 C 4.84375 8.476562 5.046875 8.304688 5.277344 8.324219 L 9.425781 8.6875 C 9.65625 8.707031 9.824219 8.910156 9.804688 9.140625 C 9.769531 9.554688 9.769531 9.554688 9.355469 9.519531 Z M 9.355469 9.519531 "/>
<path style=" stroke:none;fill-rule:nonzero;fill:rgb(86.666667%,18.039216%,26.666667%);fill-opacity:1;" d="M 9.566406 9.640625 L 5.003906 9.242188 C 4.886719 9.230469 4.804688 9.128906 4.8125 9.015625 C 4.824219 8.902344 4.925781 8.816406 5.039062 8.824219 L 9.605469 9.222656 C 9.71875 9.234375 9.804688 9.335938 9.792969 9.449219 C 9.785156 9.566406 9.683594 9.648438 9.566406 9.640625 Z M 9.566406 9.640625 "/>
<path style=" stroke:none;fill-rule:nonzero;fill:rgb(16.078431%,18.431373%,20%);fill-opacity:1;" d="M 11.367188 3.9375 L 11.003906 8.089844 C 10.964844 8.503906 10.964844 8.503906 10.550781 8.46875 C 10.324219 8.449219 10.152344 8.246094 10.171875 8.015625 L 10.535156 3.867188 C 10.554688 3.636719 10.757812 3.46875 10.988281 3.488281 C 11.402344 3.523438 11.402344 3.523438 11.367188 3.9375 Z M 11.367188 3.9375 "/>
<path style=" stroke:none;fill-rule:nonzero;fill:rgb(86.666667%,18.039216%,26.666667%);fill-opacity:1;" d="M 11.546875 3.75 L 11.148438 8.3125 C 11.136719 8.429688 11.035156 8.511719 10.921875 8.503906 C 10.808594 8.492188 10.722656 8.390625 10.734375 8.277344 L 11.132812 3.710938 C 11.140625 3.597656 11.242188 3.511719 11.359375 3.523438 C 11.472656 3.53125 11.558594 3.632812 11.546875 3.75 Z M 11.546875 3.75 "/>
<path style=" stroke:none;fill-rule:nonzero;fill:rgb(16.078431%,18.431373%,20%);fill-opacity:1;" d="M 10.257812 7.714844 L 7.113281 7.441406 C 6.796875 7.414062 6.796875 7.414062 6.824219 7.101562 C 6.839844 6.933594 6.992188 6.804688 7.164062 6.820312 L 10.3125 7.09375 C 10.484375 7.109375 10.613281 7.261719 10.601562 7.433594 C 10.574219 7.742188 10.574219 7.742188 10.257812 7.714844 Z M 10.257812 7.714844 "/>
<path style=" stroke:none;fill-rule:nonzero;fill:rgb(86.666667%,18.039216%,26.666667%);fill-opacity:1;" d="M 9.398438 9.207031 C 9.816406 9.242188 10.640625 9.316406 10.75 8.070312 C 10.859375 6.824219 11.277344 6.863281 11.167969 8.105469 C 11.058594 9.351562 10.371094 9.710938 9.359375 9.621094 C 8.53125 9.550781 8.566406 9.132812 9.398438 9.207031 Z M 5.042969 8.824219 C 5.875 8.894531 6.039062 9.332031 5.210938 9.257812 C 4.84375 9.226562 4.808594 9.382812 4.726562 9.703125 C 4.648438 10.003906 4.535156 10.453125 4.367188 11.085938 C 4.246094 11.546875 3.859375 11.378906 3.960938 10.976562 C 4.132812 10.296875 4.292969 9.707031 4.398438 9.328125 C 4.507812 8.945312 4.609375 8.789062 5.042969 8.824219 Z M 5.042969 8.824219 "/>
<path style=" stroke:none;fill-rule:nonzero;fill:rgb(40%,45.882353%,49.803922%);fill-opacity:1;" d="M 10.832031 11.457031 C 10.832031 11.804688 10.554688 12.082031 10.207031 12.082031 C 9.863281 12.082031 9.582031 11.804688 9.582031 11.457031 C 9.582031 11.113281 9.863281 10.832031 10.207031 10.832031 C 10.554688 10.832031 10.832031 11.113281 10.832031 11.457031 Z M 10.832031 11.457031 "/>
<path style=" stroke:none;fill-rule:nonzero;fill:rgb(40%,45.882353%,49.803922%);fill-opacity:1;" d="M 13.019531 12.839844 L 10.492188 11.382812 L 11.953125 8.855469 L 11.589844 8.648438 L 10.132812 11.171875 L 7.605469 9.714844 L 7.398438 10.078125 L 9.921875 11.535156 L 8.464844 14.058594 L 8.828125 14.269531 L 10.285156 11.742188 L 12.808594 13.203125 Z M 13.019531 12.839844 "/>
<path style=" stroke:none;fill-rule:nonzero;fill:rgb(40%,45.882353%,49.803922%);fill-opacity:1;" d="M 11.21875 14.421875 L 10.464844 11.605469 L 13.28125 10.851562 L 13.171875 10.449219 L 10.355469 11.203125 L 9.601562 8.386719 L 9.199219 8.492188 L 9.953125 11.3125 L 7.136719 12.066406 L 7.242188 12.46875 L 10.0625 11.714844 L 10.816406 14.53125 Z M 11.21875 14.421875 "/>
<path style=" stroke:none;fill-rule:nonzero;fill:rgb(16.078431%,18.431373%,20%);fill-opacity:1;" d="M 10.207031 7.917969 C 8.253906 7.917969 6.667969 9.503906 6.667969 11.457031 C 6.667969 13.414062 8.253906 15 10.207031 15 C 12.164062 15 13.75 13.414062 13.75 11.457031 C 13.75 9.503906 12.164062 7.917969 10.207031 7.917969 Z M 10.207031 14.167969 C 8.710938 14.167969 7.5 12.953125 7.5 11.457031 C 7.5 9.960938 8.710938 8.75 10.207031 8.75 C 11.703125 8.75 12.917969 9.960938 12.917969 11.457031 C 12.917969 12.953125 11.703125 14.167969 10.207031 14.167969 Z M 10.207031 14.167969 "/>
<path style=" stroke:none;fill-rule:nonzero;fill:rgb(40%,45.882353%,49.803922%);fill-opacity:1;" d="M 10.207031 8.332031 C 8.484375 8.332031 7.082031 9.734375 7.082031 11.457031 C 7.082031 13.183594 8.484375 14.582031 10.207031 14.582031 C 11.933594 14.582031 13.332031 13.183594 13.332031 11.457031 C 13.332031 9.734375 11.933594 8.332031 10.207031 8.332031 Z M 10.207031 14.167969 C 8.710938 14.167969 7.5 12.953125 7.5 11.457031 C 7.5 9.960938 8.710938 8.75 10.207031 8.75 C 11.703125 8.75 12.917969 9.960938 12.917969 11.457031 C 12.917969 12.953125 11.703125 14.167969 10.207031 14.167969 Z M 6.394531 13.984375 L 5.492188 13.464844 L 6.015625 12.5625 L 5.652344 12.355469 L 5.132812 13.257812 L 4.230469 12.734375 L 4.023438 13.097656 L 4.921875 13.617188 L 4.402344 14.519531 L 4.765625 14.726562 L 5.285156 13.828125 L 6.1875 14.347656 Z M 6.394531 13.984375 "/>
<path style=" stroke:none;fill-rule:nonzero;fill:rgb(16.078431%,18.431373%,20%);fill-opacity:1;" d="M 5.207031 12.082031 C 4.402344 12.082031 3.75 12.734375 3.75 13.542969 C 3.75 14.347656 4.402344 15 5.207031 15 C 6.015625 15 6.667969 14.347656 6.667969 13.542969 C 6.667969 12.734375 6.015625 12.082031 5.207031 12.082031 Z M 5.207031 14.582031 C 4.632812 14.582031 4.167969 14.117188 4.167969 13.542969 C 4.167969 12.964844 4.632812 12.5 5.207031 12.5 C 5.785156 12.5 6.25 12.964844 6.25 13.542969 C 6.25 14.117188 5.785156 14.582031 5.207031 14.582031 Z M 5.207031 14.582031 "/>
<path style=" stroke:none;fill-rule:nonzero;fill:rgb(86.666667%,18.039216%,26.666667%);fill-opacity:1;" d="M 4.285156 10.566406 C 4.175781 10.539062 4.0625 10.605469 4.03125 10.714844 L 3.382812 13.128906 C 3.355469 13.242188 3.421875 13.355469 3.53125 13.386719 C 3.644531 13.414062 3.757812 13.347656 3.785156 13.238281 L 4.433594 10.824219 C 4.464844 10.710938 4.398438 10.597656 4.285156 10.566406 Z M 4.285156 10.566406 "/>
<path style=" stroke:none;fill-rule:nonzero;fill:rgb(40%,45.882353%,49.803922%);fill-opacity:1;" d="M 3.53125 13.386719 L 1.921875 12.953125 C 1.8125 12.925781 1.746094 12.808594 1.773438 12.699219 C 1.804688 12.589844 1.917969 12.523438 2.027344 12.550781 L 3.640625 12.984375 C 3.75 13.011719 3.816406 13.128906 3.785156 13.238281 C 3.757812 13.347656 3.640625 13.414062 3.53125 13.386719 Z M 3.53125 13.386719 "/>
<path style=" stroke:none;fill-rule:nonzero;fill:rgb(86.666667%,18.039216%,26.666667%);fill-opacity:1;" d="M 12.542969 4.152344 L 11.3125 3.9375 C 11.199219 3.917969 11.125 3.808594 11.144531 3.695312 C 11.164062 3.582031 11.269531 3.507812 11.382812 3.527344 L 12.613281 3.742188 C 12.726562 3.761719 12.804688 3.871094 12.785156 3.984375 C 12.765625 4.097656 12.65625 4.171875 12.542969 4.152344 Z M 12.542969 4.152344 "/>
<path style=" stroke:none;fill-rule:nonzero;fill:rgb(16.078431%,18.431373%,20%);fill-opacity:1;" d="M 12.953125 4.226562 L 11.863281 4.03125 C 11.75 4.011719 11.753906 3.917969 11.773438 3.804688 C 11.796875 3.691406 11.824219 3.601562 11.9375 3.621094 L 13.027344 3.816406 C 13.136719 3.835938 13.214844 3.945312 13.195312 4.058594 C 13.175781 4.171875 13.066406 4.246094 12.953125 4.226562 Z M 12.953125 4.226562 "/>
<path style=" stroke:none;fill-rule:nonzero;fill:rgb(95.294118%,82.352941%,63.529412%);fill-opacity:1;" d="M 9.441406 4.542969 C 9.902344 4.96875 10.757812 5.550781 10.742188 5.660156 C 10.671875 6.269531 10.910156 6.992188 10.828125 7.371094 C 10.765625 7.644531 10.492188 7.835938 10.515625 7.984375 C 10.792969 7.992188 10.6875 8.46875 10.796875 8.6875 C 10.917969 8.917969 11.289062 8.664062 11.34375 8.308594 C 11.386719 8.046875 11.316406 7.847656 11.296875 7.578125 C 11.269531 7.195312 11.800781 6.066406 11.460938 5.304688 C 11.34375 5.046875 10.972656 4.535156 10.121094 3.742188 C 9.867188 3.925781 9.441406 4.542969 9.441406 4.542969 Z M 9.441406 4.542969 "/>
</g>
</svg>
