<?xml version="1.0" encoding="UTF-8"?>
<svg xmlns="http://www.w3.org/2000/svg" xmlns:xlink="http://www.w3.org/1999/xlink" width="15pt" height="15pt" viewBox="0 0 15 15" version="1.1">
<g id="surface1">
<path style=" stroke:none;fill-rule:nonzero;fill:rgb(40%,12.941176%,7.45098%);fill-opacity:1;" d="M 10.738281 1.960938 C 11.296875 1.960938 13.585938 2.515625 13.585938 5.191406 C 13.585938 7.863281 10.976562 11.746094 9.992188 11.839844 C 8.917969 11.945312 8.238281 11.265625 8.238281 10.171875 C 8.238281 9.078125 9.941406 8.367188 9.160156 6.71875 C 8.378906 5.070312 8.1875 1.960938 10.738281 1.960938 Z M 13.691406 2.890625 C 13.511719 3.195312 13.554688 3.558594 13.792969 3.695312 C 14.027344 3.835938 14.363281 3.699219 14.542969 3.394531 C 14.722656 3.085938 14.679688 2.726562 14.441406 2.589844 C 14.207031 2.449219 13.871094 2.585938 13.691406 2.890625 Z M 12.480469 1.699219 C 12.433594 2.050781 12.625 2.367188 12.910156 2.40625 C 13.191406 2.445312 13.464844 2.195312 13.511719 1.84375 C 13.5625 1.492188 13.371094 1.175781 13.085938 1.132812 C 12.800781 1.09375 12.53125 1.347656 12.480469 1.699219 Z M 11.140625 1.128906 C 11.140625 1.511719 11.386719 1.824219 11.695312 1.824219 C 12 1.824219 12.25 1.511719 12.25 1.128906 C 12.25 0.746094 12 0.433594 11.695312 0.433594 C 11.386719 0.433594 11.140625 0.746094 11.140625 1.128906 Z M 9.558594 0.84375 C 9.558594 1.269531 9.824219 1.613281 10.148438 1.613281 C 10.476562 1.613281 10.738281 1.269531 10.738281 0.84375 C 10.738281 0.414062 10.476562 0.0703125 10.148438 0.0703125 C 9.824219 0.0703125 9.558594 0.414062 9.558594 0.84375 Z M 7.347656 1.742188 C 7.503906 2.347656 8.015625 2.742188 8.492188 2.621094 C 8.964844 2.496094 9.21875 1.90625 9.0625 1.296875 C 8.90625 0.691406 8.394531 0.296875 7.921875 0.417969 C 7.445312 0.539062 7.191406 1.132812 7.347656 1.742188 Z M 4.132812 4.878906 C 3.578125 4.878906 1.285156 5.433594 1.285156 8.109375 C 1.285156 10.78125 3.894531 14.660156 4.878906 14.757812 C 5.953125 14.859375 6.632812 14.183594 6.632812 13.089844 C 6.632812 11.996094 4.929688 11.285156 5.710938 9.636719 C 6.492188 7.984375 6.683594 4.878906 4.132812 4.878906 Z M 1.183594 5.808594 C 1.363281 6.113281 1.316406 6.472656 1.082031 6.613281 C 0.84375 6.75 0.507812 6.617188 0.328125 6.308594 C 0.148438 6.003906 0.195312 5.644531 0.429688 5.503906 C 0.664062 5.367188 1.003906 5.503906 1.183594 5.808594 Z M 2.390625 4.617188 C 2.441406 4.96875 2.25 5.285156 1.964844 5.324219 C 1.679688 5.363281 1.40625 5.109375 1.359375 4.757812 C 1.308594 4.410156 1.5 4.089844 1.785156 4.050781 C 2.070312 4.011719 2.34375 4.265625 2.390625 4.617188 Z M 3.734375 4.046875 C 3.734375 4.429688 3.484375 4.738281 3.175781 4.738281 C 2.871094 4.738281 2.621094 4.429688 2.621094 4.046875 C 2.621094 3.660156 2.871094 3.351562 3.175781 3.351562 C 3.484375 3.351562 3.734375 3.660156 3.734375 4.046875 Z M 5.3125 3.757812 C 5.3125 4.183594 5.046875 4.53125 4.722656 4.53125 C 4.394531 4.53125 4.132812 4.183594 4.132812 3.757812 C 4.132812 3.332031 4.394531 2.984375 4.722656 2.984375 C 5.046875 2.984375 5.3125 3.332031 5.3125 3.757812 Z M 7.523438 4.65625 C 7.367188 5.265625 6.855469 5.660156 6.382812 5.535156 C 5.910156 5.414062 5.652344 4.820312 5.808594 4.214844 C 5.964844 3.605469 6.476562 3.210938 6.953125 3.335938 C 7.425781 3.457031 7.679688 4.050781 7.523438 4.65625 Z M 7.523438 4.65625 "/>
</g>
</svg>
