<?xml version="1.0" encoding="UTF-8"?>
<svg xmlns="http://www.w3.org/2000/svg" xmlns:xlink="http://www.w3.org/1999/xlink" width="15pt" height="15pt" viewBox="0 0 15 15" version="1.1">
<g id="surface1">
<path style=" stroke:none;fill-rule:nonzero;fill:rgb(23.137255%,53.333333%,76.470588%);fill-opacity:1;" d="M 13.332031 15 L 13.332031 13.332031 C 13.332031 11.953125 12.214844 10.832031 10.832031 10.832031 L 4.167969 10.832031 C 2.785156 10.832031 1.667969 11.953125 1.667969 13.332031 L 1.667969 15 Z M 13.332031 15 "/>
<path style=" stroke:none;fill-rule:nonzero;fill:rgb(83.529412%,67.058824%,53.333333%);fill-opacity:1;" d="M 5.832031 10.832031 L 7.5 12.917969 L 9.167969 10.832031 L 9.167969 9.167969 L 5.832031 9.167969 Z M 5.832031 10.832031 "/>
<path style=" stroke:none;fill-rule:nonzero;fill:rgb(80%,60.784314%,47.843137%);fill-opacity:1;" d="M 5.832031 10 C 6.339844 10.574219 6.816406 10.714844 7.5 10.714844 C 8.179688 10.714844 8.660156 10.570312 9.167969 10 L 9.167969 8.332031 L 5.832031 8.332031 Z M 5.832031 10 "/>
<path style=" stroke:none;fill-rule:nonzero;fill:rgb(83.529412%,67.058824%,53.333333%);fill-opacity:1;" d="M 4.769531 5.808594 C 4.769531 6.410156 4.460938 6.898438 4.085938 6.898438 C 3.707031 6.898438 3.402344 6.410156 3.402344 5.808594 C 3.402344 5.203125 3.707031 4.714844 4.085938 4.714844 C 4.460938 4.714844 4.769531 5.203125 4.769531 5.808594 M 11.597656 5.808594 C 11.597656 6.410156 11.292969 6.898438 10.914062 6.898438 C 10.535156 6.898438 10.230469 6.410156 10.230469 5.808594 C 10.230469 5.203125 10.535156 4.714844 10.914062 4.714844 C 11.292969 4.714844 11.597656 5.203125 11.597656 5.808594 "/>
<path style=" stroke:none;fill-rule:nonzero;fill:rgb(83.529412%,67.058824%,53.333333%);fill-opacity:1;" d="M 3.949219 6.234375 C 3.949219 3.90625 5.539062 2.015625 7.5 2.015625 C 9.460938 2.015625 11.050781 3.90625 11.050781 6.234375 C 11.050781 8.5625 9.460938 10.449219 7.5 10.449219 C 5.539062 10.449219 3.949219 8.5625 3.949219 6.234375 "/>
<path style=" stroke:none;fill-rule:nonzero;fill:rgb(75.686275%,41.176471%,30.980392%);fill-opacity:1;" d="M 7.5 9.085938 C 6.351562 9.085938 6 8.789062 5.941406 8.730469 C 5.835938 8.625 5.835938 8.453125 5.941406 8.34375 C 6.042969 8.242188 6.210938 8.238281 6.316406 8.335938 C 6.339844 8.351562 6.617188 8.539062 7.5 8.539062 C 8.417969 8.539062 8.683594 8.335938 8.683594 8.332031 C 8.789062 8.226562 8.957031 8.234375 9.066406 8.339844 C 9.171875 8.445312 9.164062 8.625 9.058594 8.730469 C 9 8.789062 8.648438 9.085938 7.5 9.085938 "/>
<path style=" stroke:none;fill-rule:nonzero;fill:rgb(58.823529%,23.137255%,13.333333%);fill-opacity:1;" d="M 7.5 0.617188 C 9.851562 0.617188 11.324219 2.351562 11.324219 3.800781 C 11.324219 5.246094 11.03125 5.828125 10.734375 5.246094 L 10.148438 4.089844 C 10.148438 4.089844 8.382812 4.089844 7.792969 3.511719 C 7.792969 3.511719 8.675781 5.246094 6.910156 3.511719 C 6.910156 3.511719 7.207031 4.667969 5.441406 3.222656 C 5.441406 3.222656 4.558594 3.800781 4.265625 5.246094 C 4.183594 5.648438 3.675781 5.246094 3.675781 3.800781 C 3.675781 2.351562 4.851562 0.617188 7.5 0.617188 "/>
<path style=" stroke:none;fill-rule:nonzero;fill:rgb(40%,12.941176%,7.45098%);fill-opacity:1;" d="M 5.832031 6.25 C 5.605469 6.25 5.417969 6.0625 5.417969 5.832031 L 5.417969 5.417969 C 5.417969 5.1875 5.605469 5 5.832031 5 C 6.0625 5 6.25 5.1875 6.25 5.417969 L 6.25 5.832031 C 6.25 6.0625 6.0625 6.25 5.832031 6.25 M 9.167969 6.25 C 8.9375 6.25 8.75 6.0625 8.75 5.832031 L 8.75 5.417969 C 8.75 5.1875 8.9375 5 9.167969 5 C 9.394531 5 9.582031 5.1875 9.582031 5.417969 L 9.582031 5.832031 C 9.582031 6.0625 9.394531 6.25 9.167969 6.25 "/>
<path style=" stroke:none;fill-rule:nonzero;fill:rgb(75.686275%,41.176471%,30.980392%);fill-opacity:1;" d="M 7.8125 7.394531 L 7.1875 7.394531 C 7.015625 7.394531 6.875 7.253906 6.875 7.082031 C 6.875 6.910156 7.015625 6.769531 7.1875 6.769531 L 7.8125 6.769531 C 7.984375 6.769531 8.125 6.910156 8.125 7.082031 C 8.125 7.253906 7.984375 7.394531 7.8125 7.394531 "/>
<path style=" stroke:none;fill-rule:nonzero;fill:rgb(16.078431%,18.431373%,20%);fill-opacity:1;" d="M 4.167969 13.542969 L 3.332031 13.542969 C 3.332031 11.835938 4.117188 10 5.832031 10 L 5.832031 10.832031 C 4.515625 10.832031 4.167969 12.605469 4.167969 13.542969 Z M 11.25 11.875 L 10.417969 11.875 C 10.417969 11.703125 10.199219 10.832031 9.167969 10.832031 L 9.167969 10 C 10.640625 10 11.25 11.222656 11.25 11.875 Z M 11.25 11.875 "/>
<path style=" stroke:none;fill-rule:nonzero;fill:rgb(80%,83.921569%,86.666667%);fill-opacity:1;" d="M 5 13.542969 C 5 14.230469 4.441406 14.792969 3.75 14.792969 C 3.058594 14.792969 2.5 14.230469 2.5 13.542969 C 2.5 12.851562 3.058594 12.292969 3.75 12.292969 C 4.441406 12.292969 5 12.851562 5 13.542969 Z M 5 13.542969 "/>
<path style=" stroke:none;fill-rule:nonzero;fill:rgb(96.078431%,97.254902%,98.039216%);fill-opacity:1;" d="M 4.582031 13.542969 C 4.582031 14 4.210938 14.375 3.75 14.375 C 3.289062 14.375 2.917969 14 2.917969 13.542969 C 2.917969 13.082031 3.289062 12.707031 3.75 12.707031 C 4.210938 12.707031 4.582031 13.082031 4.582031 13.542969 Z M 4.582031 13.542969 "/>
<path style=" stroke:none;fill-rule:nonzero;fill:rgb(16.078431%,18.431373%,20%);fill-opacity:1;" d="M 12.5 14.167969 L 11.667969 14.167969 C 11.667969 13.820312 11.621094 12.082031 10.730469 12.082031 C 9.835938 12.082031 9.792969 13.820312 9.792969 14.167969 L 8.957031 14.167969 C 8.957031 12.339844 9.621094 11.25 10.730469 11.25 C 11.839844 11.25 12.5 12.339844 12.5 14.167969 Z M 12.5 14.167969 "/>
<path style=" stroke:none;fill-rule:nonzero;fill:rgb(80%,83.921569%,86.666667%);fill-opacity:1;" d="M 9.792969 14.167969 C 9.792969 14.398438 9.605469 14.582031 9.375 14.582031 C 9.144531 14.582031 8.957031 14.398438 8.957031 14.167969 C 8.957031 13.9375 9.144531 13.75 9.375 13.75 C 9.605469 13.75 9.792969 13.9375 9.792969 14.167969 Z M 9.792969 14.167969 "/>
<path style=" stroke:none;fill-rule:nonzero;fill:rgb(80%,83.921569%,86.666667%);fill-opacity:1;" d="M 12.5 14.167969 C 12.5 14.398438 12.3125 14.582031 12.082031 14.582031 C 11.851562 14.582031 11.667969 14.398438 11.667969 14.167969 C 11.667969 13.9375 11.851562 13.75 12.082031 13.75 C 12.3125 13.75 12.5 13.9375 12.5 14.167969 Z M 12.5 14.167969 "/>
</g>
</svg>
