<?xml version="1.0" encoding="UTF-8"?>
<svg xmlns="http://www.w3.org/2000/svg" xmlns:xlink="http://www.w3.org/1999/xlink" width="15pt" height="15pt" viewBox="0 0 15 15" version="1.1">
<g id="surface1">
<path style=" stroke:none;fill-rule:nonzero;fill:rgb(40%,12.941176%,7.45098%);fill-opacity:1;" d="M 14.390625 13.953125 C 14.390625 13.953125 14.882812 14.042969 14.882812 14.476562 C 14.882812 14.910156 14.449219 15 14.015625 15 L 6.632812 15 C 5.761719 15 4.167969 13.332031 3.332031 13.332031 L 3.085938 15 L 0.417969 15 L 0.417969 13.777344 C 0.417969 12.910156 0.0507812 12.824219 0.0507812 12.4375 C 0.0507812 11.570312 0.328125 10.609375 0.328125 10.609375 L 7.082031 13.75 Z M 14.390625 13.953125 "/>
<path style=" stroke:none;fill-rule:nonzero;fill:rgb(75.686275%,41.176471%,30.980392%);fill-opacity:1;" d="M 10.605469 11.296875 C 9.644531 10.855469 7.996094 9.007812 7.917969 8.917969 C 5.894531 5.472656 7.917969 0.417969 7.917969 0.417969 C 7.917969 0.417969 7.117188 0 5 0 C 4.71875 0 4.441406 0.0078125 4.167969 0.0195312 L 3.75 0.417969 L 3.332031 0.0742188 C 1.921875 0.195312 0.832031 0.417969 0.832031 0.417969 C 0.832031 0.417969 1.25 6.667969 1.25 7.5 C 1.25 8.332031 0.949219 8.917969 0.949219 8.917969 C 0.949219 8.917969 0.351562 9.929688 0.242188 10.398438 C 0.125 10.925781 0.335938 11.28125 0.695312 11.367188 C 1.960938 11.671875 3.332031 12.082031 6.515625 13.609375 C 6.515625 13.609375 7.347656 14.167969 8.332031 14.167969 L 14.390625 14.167969 C 14.390625 14.167969 14.882812 14.058594 14.882812 13.15625 C 14.882812 12.703125 11.589844 11.746094 10.605469 11.296875 Z M 10.605469 11.296875 "/>
<path style=" stroke:none;fill-rule:nonzero;fill:rgb(85.098039%,61.960784%,50.980392%);fill-opacity:1;" d="M 4.167969 8.332031 L 4.167969 0.0195312 C 3.878906 0.0351562 3.601562 0.0546875 3.332031 0.0742188 L 3.332031 8.332031 Z M 4.167969 8.332031 "/>
</g>
</svg>
