<?xml version="1.0" encoding="UTF-8"?>
<svg xmlns="http://www.w3.org/2000/svg" xmlns:xlink="http://www.w3.org/1999/xlink" width="15pt" height="15pt" viewBox="0 0 15 15" version="1.1">
<g id="surface1">
<path style=" stroke:none;fill-rule:nonzero;fill:rgb(57.254902%,40%,80%);fill-opacity:1;" d="M 14.582031 15 L 14.582031 12.082031 C 14.582031 10.703125 13.046875 9.792969 11.667969 9.792969 L 6.667969 9.792969 C 5.285156 9.792969 3.75 10.703125 3.75 12.082031 L 3.75 15 Z M 14.582031 15 "/>
<path style=" stroke:none;fill-rule:nonzero;fill:rgb(37.647059%,20.784314%,16.470588%);fill-opacity:1;" d="M 9.144531 0.652344 C 10.855469 0.652344 13.703125 1.507812 13.703125 5.214844 C 13.703125 8.921875 13.703125 9.777344 12.847656 9.777344 C 11.992188 9.777344 10.855469 8.921875 9.144531 8.921875 C 7.433594 8.921875 6.316406 9.777344 5.4375 9.777344 C 4.484375 9.777344 4.582031 6.355469 4.582031 5.214844 C 4.582031 1.507812 7.433594 0.652344 9.144531 0.652344 "/>
<path style=" stroke:none;fill-rule:nonzero;fill:rgb(68.627451%,49.411765%,34.117647%);fill-opacity:1;" d="M 7.636719 9.800781 C 7.636719 10.417969 8.542969 10.625 9.167969 10.625 C 9.792969 10.625 10.691406 10.417969 10.691406 9.800781 L 10.691406 8.464844 L 7.636719 8.464844 Z M 7.636719 9.800781 "/>
<path style=" stroke:none;fill-rule:nonzero;fill:rgb(60.784314%,41.568627%,28.627451%);fill-opacity:1;" d="M 7.632812 9.03125 C 8.058594 9.515625 8.589844 9.644531 9.164062 9.644531 C 9.738281 9.644531 10.265625 9.515625 10.691406 9.03125 L 10.691406 7.808594 L 7.632812 7.808594 Z M 7.632812 9.03125 "/>
<path style=" stroke:none;fill-rule:nonzero;fill:rgb(68.627451%,49.411765%,34.117647%);fill-opacity:1;" d="M 5.722656 5.089844 C 5.722656 2.660156 7.253906 0.6875 9.144531 0.6875 C 11.03125 0.6875 12.566406 2.660156 12.566406 5.089844 C 12.566406 7.519531 11.03125 9.375 9.144531 9.375 C 7.253906 9.375 5.722656 7.519531 5.722656 5.089844 "/>
<path style=" stroke:none;fill-rule:nonzero;fill:rgb(87.45098%,12.156863%,19.607843%);fill-opacity:1;" d="M 9.144531 8.351562 C 8.472656 8.351562 8.125 8.019531 8.085938 7.984375 C 7.976562 7.871094 7.976562 7.691406 8.085938 7.578125 C 8.199219 7.46875 8.375 7.46875 8.488281 7.578125 C 8.5 7.589844 8.71875 7.78125 9.144531 7.78125 C 9.578125 7.78125 9.792969 7.585938 9.800781 7.578125 C 9.914062 7.46875 10.09375 7.472656 10.203125 7.585938 C 10.308594 7.695312 10.308594 7.871094 10.199219 7.984375 C 10.164062 8.019531 9.8125 8.351562 9.144531 8.351562 "/>
<path style=" stroke:none;fill-rule:nonzero;fill:rgb(37.647059%,20.784314%,16.470588%);fill-opacity:1;" d="M 4.886719 6.457031 C 4.875 6.042969 4.867188 6.363281 4.867188 6.265625 C 4.867188 4.839844 5.722656 6.46875 5.722656 5.453125 C 5.722656 4.4375 6.292969 4.335938 6.863281 3.765625 C 7.148438 3.480469 7.71875 2.921875 7.71875 2.921875 C 7.71875 2.921875 9.144531 3.785156 10.285156 3.785156 C 11.421875 3.785156 12.566406 4.355469 12.566406 5.496094 C 12.566406 6.636719 13.421875 4.835938 13.421875 6.261719 C 13.421875 6.363281 13.410156 6.042969 13.402344 6.457031 L 13.703125 6.457031 C 13.707031 5.625 13.707031 5.65625 13.707031 5.125 C 13.707031 1.417969 10.855469 0.0390625 9.144531 0.0390625 C 7.433594 0.0390625 4.582031 1.394531 4.582031 5.101562 C 4.582031 5.433594 4.574219 5.625 4.585938 6.457031 Z M 4.886719 6.457031 "/>
<path style=" stroke:none;fill-rule:nonzero;fill:rgb(37.647059%,20.784314%,16.470588%);fill-opacity:1;" d="M 7.753906 5.996094 C 7.558594 5.996094 7.402344 5.835938 7.402344 5.640625 L 7.402344 5.289062 C 7.402344 5.097656 7.558594 4.9375 7.753906 4.9375 C 7.945312 4.9375 8.105469 5.097656 8.105469 5.289062 L 8.105469 5.640625 C 8.105469 5.835938 7.945312 5.996094 7.753906 5.996094 M 10.570312 5.996094 C 10.378906 5.996094 10.21875 5.835938 10.21875 5.640625 L 10.21875 5.289062 C 10.21875 5.097656 10.378906 4.9375 10.570312 4.9375 C 10.765625 4.9375 10.925781 5.097656 10.925781 5.289062 L 10.925781 5.640625 C 10.925781 5.835938 10.765625 5.996094 10.570312 5.996094 "/>
<path style=" stroke:none;fill-rule:nonzero;fill:rgb(56.862745%,35.294118%,20.392157%);fill-opacity:1;" d="M 9.515625 7.082031 L 8.8125 7.082031 C 8.714844 7.082031 8.632812 7.003906 8.632812 6.90625 L 8.632812 6.84375 C 8.632812 6.746094 8.714844 6.667969 8.8125 6.667969 L 9.515625 6.667969 C 9.613281 6.667969 9.691406 6.746094 9.691406 6.84375 L 9.691406 6.90625 C 9.691406 7.003906 9.613281 7.082031 9.515625 7.082031 "/>
<path style=" stroke:none;fill-rule:nonzero;fill:rgb(68.627451%,49.411765%,34.117647%);fill-opacity:1;" d="M 6.433594 5.597656 C 6.433594 6.203125 6.128906 6.691406 5.753906 6.691406 C 5.375 6.691406 5.070312 6.203125 5.070312 5.597656 C 5.070312 4.996094 5.375 4.503906 5.753906 4.503906 C 6.128906 4.503906 6.433594 4.996094 6.433594 5.597656 M 13.265625 5.597656 C 13.265625 6.203125 12.957031 6.691406 12.582031 6.691406 C 12.203125 6.691406 11.898438 6.203125 11.898438 5.597656 C 11.898438 4.996094 12.203125 4.503906 12.582031 4.503906 C 12.957031 4.503906 13.265625 4.996094 13.265625 5.597656 "/>
<path style=" stroke:none;fill-rule:nonzero;fill:rgb(88.235294%,90.980392%,92.941176%);fill-opacity:1;" d="M 13.75 14.582031 C 13.75 14.8125 13.5625 15 13.332031 15 L 9.167969 15 C 8.9375 15 8.75 14.8125 8.75 14.582031 C 8.75 14.351562 8.9375 14.167969 9.167969 14.167969 L 13.332031 14.167969 C 13.5625 14.167969 13.75 14.351562 13.75 14.582031 Z M 13.75 14.582031 "/>
<path style=" stroke:none;fill-rule:nonzero;fill:rgb(88.235294%,90.980392%,92.941176%);fill-opacity:1;" d="M 8.433594 9.167969 L 1.566406 9.167969 C 0.929688 9.167969 0.117188 9.488281 0.535156 10.636719 L 1.8125 14.167969 C 1.8125 14.167969 1.980469 15 2.917969 15 L 11.25 15 L 9.582031 10.316406 C 9.402344 9.765625 9.070312 9.167969 8.433594 9.167969 Z M 8.433594 9.167969 "/>
<path style=" stroke:none;fill-rule:nonzero;fill:rgb(60%,66.666667%,70.980392%);fill-opacity:1;" d="M 8.015625 9.167969 L 1.148438 9.167969 C 0.515625 9.167969 -0.300781 9.488281 0.117188 10.636719 L 1.398438 14.167969 C 1.398438 14.167969 1.5625 15 2.5 15 L 10.832031 15 L 9.167969 10.316406 C 8.984375 9.765625 8.652344 9.167969 8.015625 9.167969 Z M 8.015625 9.167969 "/>
<path style=" stroke:none;fill-rule:nonzero;fill:rgb(88.235294%,90.980392%,92.941176%);fill-opacity:1;" d="M 5.839844 12.203125 C 6.058594 12.855469 5.882812 13.503906 5.445312 13.652344 C 5.007812 13.796875 4.476562 13.382812 4.261719 12.730469 C 4.042969 12.074219 4.21875 11.425781 4.65625 11.277344 C 5.09375 11.132812 5.625 11.546875 5.839844 12.203125 Z M 7.917969 10.3125 L 1.25 10.3125 C 1.078125 10.3125 0.9375 10.171875 0.9375 10 C 0.9375 9.828125 1.078125 9.6875 1.25 9.6875 L 7.917969 9.6875 C 8.089844 9.6875 8.230469 9.828125 8.230469 10 C 8.230469 10.171875 8.089844 10.3125 7.917969 10.3125 Z M 7.917969 10.3125 "/>
</g>
</svg>
