<?xml version="1.0" encoding="UTF-8"?>
<svg xmlns="http://www.w3.org/2000/svg" xmlns:xlink="http://www.w3.org/1999/xlink" width="15pt" height="15pt" viewBox="0 0 15 15" version="1.1">
<g id="surface1">
<path style=" stroke:none;fill-rule:nonzero;fill:rgb(48.627451%,32.941176%,24.313725%);fill-opacity:1;" d="M 12.292969 6.25 C 11.835938 3.046875 9.746094 1.613281 7.5 1.613281 C 5.253906 1.613281 3.164062 3.046875 2.707031 6.25 C 2.132812 6.25 1.667969 6.996094 1.667969 7.917969 C 1.667969 8.792969 2.09375 9.507812 2.628906 9.570312 L 2.707031 9.570312 C 3.320312 12.226562 5.234375 14.167969 7.5 14.167969 C 9.765625 14.167969 11.679688 12.226562 12.292969 9.570312 L 12.371094 9.570312 C 12.90625 9.507812 13.332031 8.792969 13.332031 7.917969 C 13.332031 6.996094 12.867188 6.25 12.292969 6.25 Z M 12.292969 6.25 "/>
<path style=" stroke:none;fill-rule:nonzero;fill:rgb(87.45098%,12.156863%,19.607843%);fill-opacity:1;" d="M 7.5 12.5 C 6.523438 12.5 6.011719 12.015625 5.957031 11.960938 C 5.792969 11.796875 5.792969 11.535156 5.957031 11.371094 C 6.117188 11.210938 6.378906 11.210938 6.539062 11.367188 C 6.5625 11.386719 6.875 11.667969 7.5 11.667969 C 8.132812 11.667969 8.445312 11.378906 8.460938 11.367188 C 8.625 11.210938 8.886719 11.214844 9.046875 11.378906 C 9.203125 11.542969 9.207031 11.800781 9.042969 11.960938 C 8.988281 12.015625 8.476562 12.5 7.5 12.5 Z M 7.5 12.5 "/>
<path style=" stroke:none;fill-rule:nonzero;fill:rgb(23.921569%,18.039216%,14.117647%);fill-opacity:1;" d="M 7.917969 10.417969 L 7.082031 10.417969 C 6.851562 10.417969 6.667969 10.230469 6.667969 10 C 6.667969 9.769531 6.851562 9.582031 7.082031 9.582031 L 7.917969 9.582031 C 8.148438 9.582031 8.332031 9.769531 8.332031 10 C 8.332031 10.230469 8.148438 10.417969 7.917969 10.417969 Z M 7.917969 10.417969 "/>
<path style=" stroke:none;fill-rule:nonzero;fill:rgb(0%,0%,0%);fill-opacity:1;" d="M 5.417969 9.167969 C 5.1875 9.167969 5 8.980469 5 8.75 L 5 7.917969 C 5 7.6875 5.1875 7.5 5.417969 7.5 C 5.648438 7.5 5.832031 7.6875 5.832031 7.917969 L 5.832031 8.75 C 5.832031 8.980469 5.648438 9.167969 5.417969 9.167969 Z M 9.582031 9.167969 C 9.351562 9.167969 9.167969 8.980469 9.167969 8.75 L 9.167969 7.917969 C 9.167969 7.6875 9.351562 7.5 9.582031 7.5 C 9.8125 7.5 10 7.6875 10 7.917969 L 10 8.75 C 10 8.980469 9.8125 9.167969 9.582031 9.167969 Z M 9.582031 9.167969 "/>
</g>
</svg>
