<?xml version="1.0" encoding="UTF-8"?>
<svg xmlns="http://www.w3.org/2000/svg" xmlns:xlink="http://www.w3.org/1999/xlink" width="15pt" height="15pt" viewBox="0 0 15 15" version="1.1">
<defs>
<filter id="alpha" filterUnits="objectBoundingBox" x="0%" y="0%" width="100%" height="100%">
  <feColorMatrix type="matrix" in="SourceGraphic" values="0 0 0 0 1 0 0 0 0 1 0 0 0 0 1 0 0 0 1 0"/>
</filter>
<mask id="mask0">
  <g filter="url(#alpha)">
<rect x="0" y="0" width="15" height="15" style="fill:rgb(0%,0%,0%);fill-opacity:0.4;stroke:none;"/>
  </g>
</mask>
<clipPath id="clip1">
  <rect x="0" y="0" width="15" height="15"/>
</clipPath>
<g id="surface5" clip-path="url(#clip1)">
<path style=" stroke:none;fill-rule:nonzero;fill:rgb(100%,100%,100%);fill-opacity:1;" d="M 6.148438 4.480469 L 12.1875 4.480469 L 12.1875 6.667969 L 6.148438 6.667969 Z M 6.148438 4.480469 "/>
</g>
</defs>
<g id="surface1">
<path style=" stroke:none;fill-rule:nonzero;fill:rgb(80%,83.921569%,86.666667%);fill-opacity:1;" d="M 15 15 L 15 13.332031 C 15 11.953125 13.878906 10.832031 12.5 10.832031 L 5.832031 10.832031 C 4.453125 10.832031 3.332031 11.953125 3.332031 13.332031 L 3.332031 15 Z M 15 15 "/>
<path style=" stroke:none;fill-rule:nonzero;fill:rgb(48.627451%,32.54902%,24.313725%);fill-opacity:1;" d="M 7.5 11.25 L 9.167969 12.917969 L 10.832031 11.25 L 10.832031 9.167969 L 7.5 9.167969 Z M 7.5 11.25 "/>
<path style=" stroke:none;fill-rule:nonzero;fill:rgb(40%,25.490196%,19.215686%);fill-opacity:1;" d="M 7.5 10 C 8.007812 10.574219 8.480469 10.714844 9.164062 10.714844 C 9.847656 10.714844 10.328125 10.570312 10.832031 10 L 10.832031 8.332031 L 7.5 8.332031 Z M 7.5 10 "/>
<path style=" stroke:none;fill-rule:nonzero;fill:rgb(48.627451%,32.54902%,24.313725%);fill-opacity:1;" d="M 6.433594 5.808594 C 6.433594 6.410156 6.128906 6.898438 5.753906 6.898438 C 5.375 6.898438 5.070312 6.410156 5.070312 5.808594 C 5.070312 5.203125 5.375 4.714844 5.753906 4.714844 C 6.128906 4.714844 6.433594 5.203125 6.433594 5.808594 M 13.265625 5.808594 C 13.265625 6.410156 12.957031 6.898438 12.582031 6.898438 C 12.203125 6.898438 11.898438 6.410156 11.898438 5.808594 C 11.898438 5.203125 12.203125 4.714844 12.582031 4.714844 C 12.957031 4.714844 13.265625 5.203125 13.265625 5.808594 "/>
<path style=" stroke:none;fill-rule:nonzero;fill:rgb(48.627451%,32.54902%,24.313725%);fill-opacity:1;" d="M 5.617188 6.234375 C 5.617188 3.90625 7.207031 2.015625 9.167969 2.015625 C 11.128906 2.015625 12.71875 3.90625 12.71875 6.234375 C 12.71875 8.5625 11.128906 10.449219 9.167969 10.449219 C 7.207031 10.449219 5.617188 8.5625 5.617188 6.234375 "/>
<path style=" stroke:none;fill-rule:nonzero;fill:rgb(23.921569%,18.039216%,14.117647%);fill-opacity:1;" d="M 9.167969 9.085938 C 8.019531 9.085938 7.667969 8.789062 7.609375 8.730469 C 7.5 8.625 7.5 8.453125 7.609375 8.34375 C 7.710938 8.242188 7.878906 8.238281 7.984375 8.335938 C 8.003906 8.351562 8.285156 8.539062 9.167969 8.539062 C 10.082031 8.539062 10.347656 8.335938 10.351562 8.332031 C 10.457031 8.226562 10.625 8.234375 10.730469 8.339844 C 10.839844 8.445312 10.832031 8.625 10.726562 8.730469 C 10.667969 8.789062 10.3125 9.085938 9.167969 9.085938 "/>
<path style=" stroke:none;fill-rule:nonzero;fill:rgb(4.313725%,0.784314%,0%);fill-opacity:1;" d="M 9.167969 0.617188 C 11.519531 0.617188 12.992188 2.351562 12.992188 3.800781 C 12.992188 5.246094 12.695312 5.828125 12.402344 5.246094 L 11.8125 4.089844 C 11.8125 4.089844 10.050781 4.089844 9.460938 3.511719 C 9.460938 3.511719 10.34375 5.246094 8.578125 3.511719 C 8.578125 3.511719 8.871094 4.667969 7.109375 3.222656 C 7.109375 3.222656 6.226562 3.800781 5.929688 5.246094 C 5.847656 5.648438 5.34375 5.246094 5.34375 3.800781 C 5.34375 2.351562 6.519531 0.617188 9.167969 0.617188 "/>
<path style=" stroke:none;fill-rule:nonzero;fill:rgb(0%,0%,0%);fill-opacity:1;" d="M 7.5 6.25 C 7.269531 6.25 7.082031 6.0625 7.082031 5.832031 L 7.082031 5.417969 C 7.082031 5.1875 7.269531 5 7.5 5 C 7.730469 5 7.917969 5.1875 7.917969 5.417969 L 7.917969 5.832031 C 7.917969 6.0625 7.730469 6.25 7.5 6.25 M 10.832031 6.25 C 10.605469 6.25 10.417969 6.0625 10.417969 5.832031 L 10.417969 5.417969 C 10.417969 5.1875 10.605469 5 10.832031 5 C 11.0625 5 11.25 5.1875 11.25 5.417969 L 11.25 5.832031 C 11.25 6.0625 11.0625 6.25 10.832031 6.25 "/>
<path style=" stroke:none;fill-rule:nonzero;fill:rgb(23.921569%,18.039216%,14.117647%);fill-opacity:1;" d="M 9.480469 7.394531 L 8.855469 7.394531 C 8.683594 7.394531 8.542969 7.253906 8.542969 7.082031 C 8.542969 6.910156 8.683594 6.769531 8.855469 6.769531 L 9.480469 6.769531 C 9.652344 6.769531 9.792969 6.910156 9.792969 7.082031 C 9.792969 7.253906 9.652344 7.394531 9.480469 7.394531 "/>
<path style=" stroke:none;fill-rule:nonzero;fill:rgb(40%,45.882353%,49.803922%);fill-opacity:1;" d="M 7.941406 15 L 7.5 11.160156 C 7.5 11.160156 8.085938 11.84375 9.167969 11.84375 C 10.246094 11.84375 10.925781 11.160156 10.925781 11.160156 L 10.414062 15 Z M 7.941406 15 "/>
<path style=" stroke:none;fill-rule:nonzero;fill:rgb(96.078431%,97.254902%,98.039216%);fill-opacity:1;" d="M 7.535156 10.519531 C 7.769531 10.757812 8.75 15 8.75 15 L 7.433594 15 L 6.726562 13.933594 L 7.433594 12.75 L 6.59375 12.488281 L 6.699219 10.839844 C 6.699219 10.839844 7.421875 10.40625 7.535156 10.519531 M 10.800781 10.519531 C 10.5625 10.757812 9.582031 15 9.582031 15 L 10.898438 15 L 11.609375 13.933594 L 10.898438 12.75 L 11.738281 12.488281 L 11.632812 10.839844 C 11.632812 10.839844 10.914062 10.40625 10.800781 10.519531 "/>
<use xlink:href="#surface5" mask="url(#mask0)"/>
<path style=" stroke:none;fill-rule:nonzero;fill:rgb(96.078431%,97.254902%,98.039216%);fill-opacity:1;" d="M 12.082031 4.167969 L 6.25 4.167969 C 5.832031 4.167969 5.832031 4.582031 5.832031 4.582031 L 5.832031 6.25 C 5.832031 6.859375 6.804688 7.082031 7.5 7.082031 C 8.195312 7.082031 8.582031 6.667969 9.167969 6.667969 C 9.75 6.667969 10.140625 7.082031 10.832031 7.082031 C 11.527344 7.082031 12.5 6.859375 12.5 6.25 L 12.5 4.582031 C 12.5 4.167969 12.082031 4.167969 12.082031 4.167969 Z M 12.082031 5.832031 C 12.082031 6.386719 11.726562 6.667969 10.832031 6.667969 C 10.191406 6.667969 9.664062 6.25 9.167969 6.25 C 8.667969 6.25 8.140625 6.667969 7.5 6.667969 C 6.605469 6.667969 6.25 6.386719 6.25 5.832031 L 6.25 4.582031 L 12.082031 4.582031 Z M 12.082031 5.832031 "/>
<path style=" stroke:none;fill-rule:nonzero;fill:rgb(57.254902%,40%,80%);fill-opacity:1;" d="M 3.332031 4.582031 C 3.332031 4.8125 3.148438 5 2.917969 5 C 2.6875 5 2.5 4.8125 2.5 4.582031 C 2.5 4.351562 2.6875 4.167969 2.917969 4.167969 C 3.148438 4.167969 3.332031 4.351562 3.332031 4.582031 Z M 3.332031 4.582031 "/>
<path style=" stroke:none;fill-rule:nonzero;fill:rgb(57.254902%,40%,80%);fill-opacity:1;" d="M 4.167969 6.667969 C 4.167969 6.898438 3.980469 7.082031 3.75 7.082031 C 3.519531 7.082031 3.332031 6.898438 3.332031 6.667969 C 3.332031 6.4375 3.519531 6.25 3.75 6.25 C 3.980469 6.25 4.167969 6.4375 4.167969 6.667969 Z M 4.167969 6.667969 "/>
<path style=" stroke:none;fill-rule:nonzero;fill:rgb(57.254902%,40%,80%);fill-opacity:1;" d="M 2.917969 6.042969 C 2.917969 6.386719 2.636719 6.667969 2.292969 6.667969 C 1.945312 6.667969 1.667969 6.386719 1.667969 6.042969 C 1.667969 5.695312 1.945312 5.417969 2.292969 5.417969 C 2.636719 5.417969 2.917969 5.695312 2.917969 6.042969 Z M 2.917969 6.042969 "/>
<path style=" stroke:none;fill-rule:nonzero;fill:rgb(65.882353%,73.72549%,80%);fill-opacity:1;" d="M 4.167969 7.5 L 2.082031 7.5 C 2.082031 7.5 1.25 7.5 1.25 8.332031 C 1.25 9.167969 2.082031 9.167969 2.082031 9.167969 L 2.082031 11.25 L 0.417969 13.332031 C 0.046875 13.792969 0 14.09375 0 14.167969 C 0 15 0.832031 15 0.832031 15 L 5.417969 15 C 5.417969 15 6.25 15 6.25 14.167969 C 6.25 14.109375 6.3125 13.933594 5.832031 13.332031 L 4.167969 11.25 L 4.167969 9.167969 C 4.167969 9.167969 5 9.167969 5 8.332031 C 5 7.5 4.167969 7.5 4.167969 7.5 Z M 4.167969 7.5 "/>
<path style=" stroke:none;fill-rule:nonzero;fill:rgb(88.235294%,90.980392%,92.941176%);fill-opacity:1;" d="M 3.75 11.394531 L 3.75 8.75 L 4.167969 8.75 C 4.355469 8.746094 4.582031 8.667969 4.582031 8.332031 C 4.582031 8 4.355469 7.921875 4.164062 7.917969 L 2.082031 7.917969 C 1.894531 7.921875 1.667969 7.996094 1.667969 8.332031 C 1.667969 8.667969 1.894531 8.746094 2.089844 8.75 L 2.496094 8.761719 L 2.5 11.394531 L 1.710938 12.382812 L 3.125 13.839844 L 4.539062 12.382812 Z M 3.75 11.394531 "/>
<path style=" stroke:none;fill-rule:nonzero;fill:rgb(57.254902%,40%,80%);fill-opacity:1;" d="M 0.417969 14.179688 C 0.417969 14.503906 0.644531 14.578125 0.839844 14.582031 L 5.417969 14.582031 C 5.605469 14.578125 5.832031 14.503906 5.832031 14.167969 L 5.832031 14.148438 L 5.835938 14.117188 C 5.835938 14.113281 5.8125 13.976562 5.507812 13.59375 L 4.539062 12.382812 L 1.710938 12.382812 L 0.742188 13.59375 C 0.441406 13.96875 0.417969 14.179688 0.417969 14.179688 Z M 0.417969 14.179688 "/>
</g>
</svg>
