<?xml version="1.0" encoding="UTF-8"?>
<svg xmlns="http://www.w3.org/2000/svg" xmlns:xlink="http://www.w3.org/1999/xlink" width="15pt" height="15pt" viewBox="0 0 15 15" version="1.1">
<g id="surface1">
<path style=" stroke:none;fill-rule:nonzero;fill:rgb(85.098039%,61.960784%,50.980392%);fill-opacity:1;" d="M 1.667969 8.332031 C 0.417969 8.332031 0.167969 8.976562 0 9.582031 C 0 10 0 10 0.417969 10 C 0.714844 10 4.511719 10.589844 4.511719 10.589844 L 9.820312 12.714844 L 12.082031 12.917969 C 12.082031 12.917969 13.683594 13.359375 14.519531 12.527344 C 14.933594 12.109375 15.847656 11.1875 13.019531 10.609375 C 12.082031 10.417969 11.574219 10.566406 10.484375 10.292969 C 9.394531 10.019531 9.617188 10.484375 8.75 10 C 7.882812 9.515625 7.109375 9.03125 3.917969 8.5 C 2.917969 8.332031 2.082031 8.332031 1.667969 8.332031 Z M 1.667969 8.332031 "/>
<path style=" stroke:none;fill-rule:nonzero;fill:rgb(75.686275%,41.176471%,30.980392%);fill-opacity:1;" d="M 14.582031 13.75 L 11.25 13.75 C 8.902344 13.75 4.835938 11.238281 4.167969 11.25 C 3.878906 11.253906 3.75 11.289062 3.75 12.917969 C 3.75 13.75 3.332031 13.75 3.332031 13.75 L 0.417969 13.75 C -0.0273438 13.640625 0 12.917969 0 12.917969 C 0.0195312 12.5 0 9.582031 0 9.582031 C 0 9.582031 1.703125 9.167969 4.140625 9.871094 C 6.582031 10.570312 10 12.082031 10 12.082031 L 14.988281 12.082031 C 14.988281 12.5 15.078125 13.742188 14.582031 13.75 Z M 14.582031 13.75 "/>
<path style=" stroke:none;fill-rule:nonzero;fill:rgb(74.509804%,9.803922%,19.215686%);fill-opacity:1;" d="M 8.003906 11.945312 C 8.109375 11.390625 8.957031 7.597656 9.097656 7.082031 C 9.234375 6.566406 12.414062 7.101562 12.378906 7.917969 C 12.257812 8.59375 11.601562 12.386719 11.597656 12.535156 C 11.613281 13.160156 7.898438 12.5 8.003906 11.945312 Z M 8.003906 11.945312 "/>
</g>
</svg>
