<?xml version="1.0" encoding="UTF-8"?>
<svg xmlns="http://www.w3.org/2000/svg" xmlns:xlink="http://www.w3.org/1999/xlink" width="15pt" height="15pt" viewBox="0 0 15 15" version="1.1">
<g id="surface1">
<path style=" stroke:none;fill-rule:nonzero;fill:rgb(85.098039%,61.960784%,50.980392%);fill-opacity:1;" d="M 12.5 10.832031 C 12.5 11.753906 11.753906 12.5 10.832031 12.5 L 1.667969 12.5 C 0.746094 12.5 0 11.753906 0 10.832031 L 0 1.667969 C 0 0.746094 0.746094 0 1.667969 0 L 10.832031 0 C 11.753906 0 12.5 0.746094 12.5 1.667969 Z M 12.5 10.832031 "/>
<path style=" stroke:none;fill-rule:nonzero;fill:rgb(36.078431%,56.862745%,23.137255%);fill-opacity:1;" d="M 11.667969 10.832031 C 11.667969 11.292969 11.292969 11.667969 10.832031 11.667969 L 1.667969 11.667969 C 1.207031 11.667969 0.832031 11.292969 0.832031 10.832031 L 0.832031 1.667969 C 0.832031 1.207031 1.207031 0.832031 1.667969 0.832031 L 10.832031 0.832031 C 11.292969 0.832031 11.667969 1.207031 11.667969 1.667969 Z M 11.667969 10.832031 "/>
<path style=" stroke:none;fill-rule:nonzero;fill:rgb(100%,100%,100%);fill-opacity:1;" d="M 3.132812 3.707031 C 3.097656 3.746094 3.054688 3.808594 3.054688 3.878906 C 3.054688 4.03125 3.167969 4.097656 3.316406 4.097656 L 4.425781 4.097656 C 4.554688 4.097656 4.667969 4.03125 4.667969 3.878906 C 4.667969 3.722656 4.554688 3.65625 4.40625 3.65625 L 3.796875 3.65625 C 4.082031 3.300781 4.597656 2.839844 4.597656 2.378906 C 4.597656 1.957031 4.265625 1.683594 3.859375 1.683594 C 3.449219 1.683594 3.074219 2.023438 3.074219 2.441406 C 3.074219 2.570312 3.15625 2.683594 3.316406 2.683594 C 3.636719 2.683594 3.453125 2.144531 3.835938 2.144531 C 3.972656 2.144531 4.078125 2.265625 4.078125 2.402344 C 4.078125 2.523438 4.019531 2.625 3.960938 2.710938 C 3.707031 3.078125 3.40625 3.378906 3.132812 3.707031 Z M 2.585938 5.972656 L 2.105469 5.972656 L 2.105469 5.488281 C 2.105469 5.367188 2.027344 5.289062 1.902344 5.289062 C 1.78125 5.289062 1.703125 5.367188 1.703125 5.488281 L 1.703125 5.972656 L 1.222656 5.972656 C 1.097656 5.972656 1.019531 6.050781 1.019531 6.171875 C 1.019531 6.289062 1.097656 6.371094 1.222656 6.371094 L 1.703125 6.371094 L 1.703125 6.855469 C 1.703125 6.972656 1.78125 7.054688 1.902344 7.054688 C 2.027344 7.054688 2.105469 6.972656 2.105469 6.855469 L 2.105469 6.371094 L 2.585938 6.371094 C 2.710938 6.371094 2.785156 6.289062 2.785156 6.171875 C 2.785156 6.050781 2.710938 5.972656 2.585938 5.972656 Z M 4.40625 6.574219 L 3.796875 6.574219 C 4.082031 6.21875 4.597656 5.757812 4.597656 5.296875 C 4.597656 4.871094 4.265625 4.601562 3.855469 4.601562 C 3.449219 4.601562 3.074219 4.9375 3.074219 5.359375 C 3.074219 5.488281 3.15625 5.601562 3.316406 5.601562 C 3.636719 5.601562 3.453125 5.0625 3.835938 5.0625 C 3.972656 5.0625 4.078125 5.183594 4.078125 5.316406 C 4.078125 5.4375 4.019531 5.542969 3.960938 5.628906 C 3.707031 5.996094 3.40625 6.292969 3.128906 6.625 C 3.097656 6.664062 3.054688 6.722656 3.054688 6.792969 C 3.054688 6.949219 3.167969 7.015625 3.3125 7.015625 L 4.425781 7.015625 C 4.554688 7.015625 4.667969 6.949219 4.667969 6.792969 C 4.667969 6.640625 4.554688 6.574219 4.40625 6.574219 Z M 4.757812 7.902344 L 1.285156 7.902344 C 1.167969 7.902344 1.078125 7.8125 1.078125 7.695312 C 1.078125 7.582031 1.167969 7.488281 1.285156 7.488281 L 4.757812 7.488281 C 4.871094 7.488281 4.964844 7.582031 4.964844 7.695312 C 4.964844 7.8125 4.871094 7.902344 4.757812 7.902344 Z M 4.757812 7.902344 "/>
<path style=" stroke:none;fill-rule:nonzero;fill:rgb(57.254902%,40%,80%);fill-opacity:1;" d="M 14.582031 15 L 14.582031 13.542969 C 14.582031 12.160156 13.046875 11.25 11.667969 11.25 L 6.667969 11.25 C 5.285156 11.25 3.75 12.160156 3.75 13.542969 L 3.75 15 Z M 14.582031 15 "/>
<path style=" stroke:none;fill-rule:nonzero;fill:rgb(37.647059%,20.784314%,16.470588%);fill-opacity:1;" d="M 9.144531 2.113281 C 10.855469 2.113281 13.703125 2.96875 13.703125 6.671875 C 13.703125 10.378906 13.703125 11.234375 12.847656 11.234375 C 11.992188 11.234375 10.855469 10.378906 9.144531 10.378906 C 7.433594 10.378906 6.316406 11.234375 5.4375 11.234375 C 4.484375 11.234375 4.582031 7.8125 4.582031 6.671875 C 4.582031 2.96875 7.433594 2.113281 9.144531 2.113281 "/>
<path style=" stroke:none;fill-rule:nonzero;fill:rgb(16.078431%,18.431373%,20%);fill-opacity:1;" d="M 7.082031 11.25 L 11.199219 11.25 C 11.199219 11.25 10.675781 12.707031 9.140625 12.707031 C 7.605469 12.707031 7.082031 11.25 7.082031 11.25 "/>
<path style=" stroke:none;fill-rule:nonzero;fill:rgb(68.627451%,49.411765%,34.117647%);fill-opacity:1;" d="M 7.636719 11.257812 C 7.636719 11.875 8.542969 12.292969 9.167969 12.292969 C 9.792969 12.292969 10.691406 11.875 10.691406 11.257812 L 10.691406 9.921875 L 7.636719 9.921875 Z M 7.636719 11.257812 "/>
<path style=" stroke:none;fill-rule:nonzero;fill:rgb(60.784314%,41.568627%,28.627451%);fill-opacity:1;" d="M 7.632812 10.492188 C 8.058594 10.972656 8.589844 11.101562 9.164062 11.101562 C 9.738281 11.101562 10.265625 10.972656 10.691406 10.492188 L 10.691406 9.269531 L 7.632812 9.269531 Z M 7.632812 10.492188 "/>
<path style=" stroke:none;fill-rule:nonzero;fill:rgb(68.627451%,49.411765%,34.117647%);fill-opacity:1;" d="M 5.722656 6.546875 C 5.722656 4.117188 7.253906 2.148438 9.144531 2.148438 C 11.03125 2.148438 12.566406 4.117188 12.566406 6.546875 C 12.566406 8.980469 11.03125 10.835938 9.144531 10.835938 C 7.253906 10.835938 5.722656 8.980469 5.722656 6.546875 "/>
<path style=" stroke:none;fill-rule:nonzero;fill:rgb(87.45098%,12.156863%,19.607843%);fill-opacity:1;" d="M 9.144531 9.808594 C 8.472656 9.808594 8.125 9.480469 8.085938 9.441406 C 7.976562 9.328125 7.976562 9.148438 8.085938 9.039062 C 8.199219 8.925781 8.375 8.925781 8.488281 9.035156 C 8.5 9.046875 8.71875 9.238281 9.144531 9.238281 C 9.578125 9.238281 9.792969 9.042969 9.800781 9.035156 C 9.914062 8.929688 10.09375 8.929688 10.203125 9.042969 C 10.308594 9.15625 10.308594 9.332031 10.199219 9.441406 C 10.164062 9.480469 9.8125 9.808594 9.144531 9.808594 "/>
<path style=" stroke:none;fill-rule:nonzero;fill:rgb(37.647059%,20.784314%,16.470588%);fill-opacity:1;" d="M 4.886719 7.917969 C 4.875 7.5 4.867188 7.824219 4.867188 7.722656 C 4.867188 6.296875 5.722656 7.929688 5.722656 6.914062 C 5.722656 5.898438 6.292969 5.796875 6.863281 5.226562 C 7.148438 4.941406 7.71875 4.382812 7.71875 4.382812 C 7.71875 4.382812 9.144531 5.242188 10.285156 5.242188 C 11.421875 5.242188 12.566406 5.816406 12.566406 6.957031 C 12.566406 8.097656 13.421875 6.296875 13.421875 7.722656 C 13.421875 7.824219 13.410156 7.5 13.402344 7.917969 L 13.703125 7.917969 C 13.707031 7.082031 13.707031 7.113281 13.707031 6.582031 C 13.707031 2.875 10.855469 1.496094 9.144531 1.496094 C 7.433594 1.496094 4.582031 2.851562 4.582031 6.558594 C 4.582031 6.890625 4.574219 7.082031 4.585938 7.917969 Z M 4.886719 7.917969 "/>
<path style=" stroke:none;fill-rule:nonzero;fill:rgb(37.647059%,20.784314%,16.470588%);fill-opacity:1;" d="M 7.753906 7.453125 C 7.558594 7.453125 7.402344 7.292969 7.402344 7.101562 L 7.402344 6.746094 C 7.402344 6.554688 7.558594 6.394531 7.753906 6.394531 C 7.945312 6.394531 8.105469 6.554688 8.105469 6.746094 L 8.105469 7.101562 C 8.105469 7.292969 7.945312 7.453125 7.753906 7.453125 M 10.570312 7.453125 C 10.378906 7.453125 10.21875 7.292969 10.21875 7.101562 L 10.21875 6.746094 C 10.21875 6.554688 10.378906 6.394531 10.570312 6.394531 C 10.765625 6.394531 10.925781 6.554688 10.925781 6.746094 L 10.925781 7.101562 C 10.925781 7.292969 10.765625 7.453125 10.570312 7.453125 "/>
<path style=" stroke:none;fill-rule:nonzero;fill:rgb(56.862745%,35.294118%,20.392157%);fill-opacity:1;" d="M 9.515625 8.542969 L 8.8125 8.542969 C 8.714844 8.542969 8.632812 8.460938 8.632812 8.367188 L 8.632812 8.300781 C 8.632812 8.203125 8.714844 8.125 8.8125 8.125 L 9.515625 8.125 C 9.613281 8.125 9.691406 8.203125 9.691406 8.300781 L 9.691406 8.367188 C 9.691406 8.460938 9.613281 8.542969 9.515625 8.542969 "/>
<path style=" stroke:none;fill-rule:nonzero;fill:rgb(68.627451%,49.411765%,34.117647%);fill-opacity:1;" d="M 6.433594 6.640625 C 6.433594 7.242188 6.128906 7.734375 5.753906 7.734375 C 5.375 7.734375 5.070312 7.242188 5.070312 6.640625 C 5.070312 6.035156 5.375 5.546875 5.753906 5.546875 C 6.128906 5.546875 6.433594 6.035156 6.433594 6.640625 M 13.265625 6.640625 C 13.265625 7.242188 12.957031 7.734375 12.582031 7.734375 C 12.203125 7.734375 11.898438 7.242188 11.898438 6.640625 C 11.898438 6.035156 12.203125 5.546875 12.582031 5.546875 C 12.957031 5.546875 13.265625 6.035156 13.265625 6.640625 "/>
<path style=" stroke:none;fill-rule:nonzero;fill:rgb(45.490196%,30.588235%,66.666667%);fill-opacity:1;" d="M 9.167969 12.59375 C 9.167969 12.59375 10.574219 13.632812 10.871094 13.75 C 10.9375 13.777344 10.71875 12.226562 10.71875 12.226562 L 7.613281 12.226562 C 7.613281 12.226562 7.394531 13.800781 7.515625 13.738281 C 7.785156 13.59375 9.167969 12.59375 9.167969 12.59375 "/>
<path style=" stroke:none;fill-rule:nonzero;fill:rgb(79.607843%,71.764706%,91.764706%);fill-opacity:1;" d="M 7.203125 10.796875 C 7.441406 11.035156 9.167969 12.207031 9.167969 12.207031 C 9.167969 12.207031 8.28125 12.726562 7.464844 13.679688 C 7.382812 13.777344 6.820312 11.753906 6.804688 11.300781 C 6.800781 11.175781 7.089844 10.6875 7.203125 10.796875 M 11.136719 10.796875 C 10.902344 11.035156 9.175781 12.207031 9.175781 12.207031 C 9.175781 12.207031 10.0625 12.726562 10.878906 13.679688 C 10.957031 13.777344 11.519531 11.753906 11.535156 11.300781 C 11.542969 11.175781 11.25 10.6875 11.136719 10.796875 "/>
<path style=" stroke:none;fill-rule:nonzero;fill:rgb(45.490196%,30.588235%,66.666667%);fill-opacity:1;" d="M 8.75 12.5 L 9.582031 12.5 L 9.582031 15 L 8.75 15 Z M 8.75 12.5 "/>
<path style=" stroke:none;fill-rule:nonzero;fill:rgb(79.607843%,71.764706%,91.764706%);fill-opacity:1;" d="M 9.582031 14.375 C 9.582031 14.605469 9.398438 14.792969 9.167969 14.792969 C 8.9375 14.792969 8.75 14.605469 8.75 14.375 C 8.75 14.144531 8.9375 13.957031 9.167969 13.957031 C 9.398438 13.957031 9.582031 14.144531 9.582031 14.375 Z M 9.582031 14.375 "/>
<path style=" stroke:none;fill-rule:nonzero;fill:rgb(79.607843%,71.764706%,91.764706%);fill-opacity:1;" d="M 9.582031 13.125 C 9.582031 13.355469 9.398438 13.542969 9.167969 13.542969 C 8.9375 13.542969 8.75 13.355469 8.75 13.125 C 8.75 12.894531 8.9375 12.707031 9.167969 12.707031 C 9.398438 12.707031 9.582031 12.894531 9.582031 13.125 Z M 9.582031 13.125 "/>
</g>
</svg>
