<?xml version="1.0" encoding="UTF-8"?>
<svg xmlns="http://www.w3.org/2000/svg" xmlns:xlink="http://www.w3.org/1999/xlink" width="15pt" height="15pt" viewBox="0 0 15 15" version="1.1">
<g id="surface1">
<path style=" stroke:none;fill-rule:nonzero;fill:rgb(85.098039%,61.960784%,50.980392%);fill-opacity:1;" d="M 12.5 10.832031 C 12.5 11.753906 11.753906 12.5 10.832031 12.5 L 1.667969 12.5 C 0.746094 12.5 0 11.753906 0 10.832031 L 0 1.667969 C 0 0.746094 0.746094 0 1.667969 0 L 10.832031 0 C 11.753906 0 12.5 0.746094 12.5 1.667969 Z M 12.5 10.832031 "/>
<path style=" stroke:none;fill-rule:nonzero;fill:rgb(36.078431%,56.862745%,23.137255%);fill-opacity:1;" d="M 11.667969 10.832031 C 11.667969 11.292969 11.292969 11.667969 10.832031 11.667969 L 1.667969 11.667969 C 1.207031 11.667969 0.832031 11.292969 0.832031 10.832031 L 0.832031 1.667969 C 0.832031 1.207031 1.207031 0.832031 1.667969 0.832031 L 10.832031 0.832031 C 11.292969 0.832031 11.667969 1.207031 11.667969 1.667969 Z M 11.667969 10.832031 "/>
<path style=" stroke:none;fill-rule:nonzero;fill:rgb(100%,100%,100%);fill-opacity:1;" d="M 3.132812 3.707031 C 3.097656 3.746094 3.054688 3.808594 3.054688 3.878906 C 3.054688 4.03125 3.167969 4.097656 3.316406 4.097656 L 4.425781 4.097656 C 4.554688 4.097656 4.667969 4.03125 4.667969 3.878906 C 4.667969 3.722656 4.554688 3.65625 4.40625 3.65625 L 3.796875 3.65625 C 4.082031 3.300781 4.597656 2.839844 4.597656 2.378906 C 4.597656 1.957031 4.265625 1.683594 3.859375 1.683594 C 3.449219 1.683594 3.074219 2.023438 3.074219 2.441406 C 3.074219 2.570312 3.15625 2.683594 3.316406 2.683594 C 3.636719 2.683594 3.453125 2.144531 3.835938 2.144531 C 3.972656 2.144531 4.078125 2.265625 4.078125 2.402344 C 4.078125 2.523438 4.019531 2.625 3.960938 2.710938 C 3.707031 3.078125 3.40625 3.378906 3.132812 3.707031 Z M 2.585938 5.972656 L 2.105469 5.972656 L 2.105469 5.488281 C 2.105469 5.367188 2.027344 5.289062 1.902344 5.289062 C 1.78125 5.289062 1.703125 5.367188 1.703125 5.488281 L 1.703125 5.972656 L 1.222656 5.972656 C 1.097656 5.972656 1.019531 6.050781 1.019531 6.171875 C 1.019531 6.289062 1.097656 6.371094 1.222656 6.371094 L 1.703125 6.371094 L 1.703125 6.855469 C 1.703125 6.972656 1.78125 7.054688 1.902344 7.054688 C 2.027344 7.054688 2.105469 6.972656 2.105469 6.855469 L 2.105469 6.371094 L 2.585938 6.371094 C 2.710938 6.371094 2.785156 6.289062 2.785156 6.171875 C 2.785156 6.050781 2.710938 5.972656 2.585938 5.972656 Z M 4.40625 6.574219 L 3.796875 6.574219 C 4.082031 6.21875 4.597656 5.757812 4.597656 5.296875 C 4.597656 4.871094 4.265625 4.601562 3.855469 4.601562 C 3.449219 4.601562 3.074219 4.9375 3.074219 5.359375 C 3.074219 5.488281 3.15625 5.601562 3.316406 5.601562 C 3.636719 5.601562 3.453125 5.0625 3.835938 5.0625 C 3.972656 5.0625 4.078125 5.183594 4.078125 5.316406 C 4.078125 5.4375 4.019531 5.542969 3.960938 5.628906 C 3.707031 5.996094 3.40625 6.292969 3.128906 6.625 C 3.097656 6.664062 3.054688 6.722656 3.054688 6.792969 C 3.054688 6.949219 3.167969 7.015625 3.3125 7.015625 L 4.425781 7.015625 C 4.554688 7.015625 4.667969 6.949219 4.667969 6.792969 C 4.667969 6.640625 4.554688 6.574219 4.40625 6.574219 Z M 4.757812 7.902344 L 1.285156 7.902344 C 1.167969 7.902344 1.078125 7.8125 1.078125 7.695312 C 1.078125 7.582031 1.167969 7.488281 1.285156 7.488281 L 4.757812 7.488281 C 4.871094 7.488281 4.964844 7.582031 4.964844 7.695312 C 4.964844 7.8125 4.871094 7.902344 4.757812 7.902344 Z M 4.757812 7.902344 "/>
<path style=" stroke:none;fill-rule:nonzero;fill:rgb(88.235294%,90.980392%,92.941176%);fill-opacity:1;" d="M 15 15 L 15 14.167969 C 15 12.785156 13.878906 11.667969 12.5 11.667969 L 5.832031 11.667969 C 4.453125 11.667969 3.332031 12.785156 3.332031 14.167969 L 3.332031 15 Z M 15 15 "/>
<path style=" stroke:none;fill-rule:nonzero;fill:rgb(100%,86.27451%,36.470588%);fill-opacity:1;" d="M 7.351562 11.707031 C 8.078125 12.238281 8.535156 12.355469 9.167969 12.355469 C 9.796875 12.355469 10.257812 12.238281 10.984375 11.707031 L 10.984375 10.121094 L 7.347656 10.121094 L 7.347656 11.707031 Z M 7.351562 11.707031 "/>
<path style=" stroke:none;fill-rule:nonzero;fill:rgb(97.647059%,79.215686%,33.333333%);fill-opacity:1;" d="M 7.347656 10.820312 C 7.851562 11.394531 8.480469 11.550781 9.164062 11.550781 C 9.847656 11.550781 10.476562 11.394531 10.984375 10.820312 L 10.984375 9.367188 L 7.347656 9.367188 Z M 7.347656 10.820312 "/>
<path style=" stroke:none;fill-rule:nonzero;fill:rgb(100%,86.27451%,36.470588%);fill-opacity:1;" d="M 6.433594 6.640625 C 6.433594 7.242188 6.128906 7.734375 5.753906 7.734375 C 5.375 7.734375 5.070312 7.242188 5.070312 6.640625 C 5.070312 6.035156 5.375 5.546875 5.753906 5.546875 C 6.128906 5.546875 6.433594 6.035156 6.433594 6.640625 M 13.265625 6.640625 C 13.265625 7.242188 12.957031 7.734375 12.582031 7.734375 C 12.203125 7.734375 11.898438 7.242188 11.898438 6.640625 C 11.898438 6.035156 12.203125 5.546875 12.582031 5.546875 C 12.957031 5.546875 13.265625 6.035156 13.265625 6.640625 "/>
<path style=" stroke:none;fill-rule:nonzero;fill:rgb(100%,86.27451%,36.470588%);fill-opacity:1;" d="M 5.617188 7.066406 C 5.617188 4.738281 7.207031 2.847656 9.167969 2.847656 C 11.128906 2.847656 12.71875 4.738281 12.71875 7.066406 C 12.71875 9.394531 11.128906 11.285156 9.167969 11.285156 C 7.207031 11.285156 5.617188 9.394531 5.617188 7.066406 "/>
<path style=" stroke:none;fill-rule:nonzero;fill:rgb(100%,67.45098%,20%);fill-opacity:1;" d="M 11.050781 8.894531 L 10.523438 8.78125 C 10.355469 8.742188 10.035156 8.75 9.882812 8.75 L 8.347656 8.75 C 8.195312 8.75 7.875 8.742188 7.707031 8.78125 L 7.179688 8.894531 C 7.035156 8.9375 6.949219 9.058594 6.992188 9.203125 C 7.027344 9.320312 7.136719 9.386719 7.253906 9.386719 C 7.277344 9.386719 7.304688 9.375 7.328125 9.367188 L 7.859375 9.214844 C 7.796875 9.292969 7.78125 9.398438 7.828125 9.496094 C 7.878906 9.589844 7.972656 9.644531 8.074219 9.644531 C 8.117188 9.644531 8.15625 9.636719 8.195312 9.617188 L 8.628906 9.398438 C 8.636719 9.488281 8.683594 9.574219 8.773438 9.617188 C 8.8125 9.636719 8.851562 9.644531 8.894531 9.644531 C 8.996094 9.644531 9.089844 9.589844 9.136719 9.492188 L 9.167969 9.4375 L 9.144531 9.492188 C 9.191406 9.589844 9.238281 9.644531 9.339844 9.644531 C 9.378906 9.644531 9.421875 9.636719 9.460938 9.617188 C 9.546875 9.574219 9.59375 9.488281 9.605469 9.398438 L 10.035156 9.617188 C 10.074219 9.636719 10.117188 9.644531 10.15625 9.644531 C 10.257812 9.644531 10.355469 9.589844 10.402344 9.496094 C 10.449219 9.398438 10.433594 9.292969 10.375 9.214844 L 10.902344 9.367188 C 10.925781 9.375 10.953125 9.386719 10.976562 9.386719 C 11.097656 9.386719 11.203125 9.324219 11.238281 9.203125 C 11.28125 9.058594 11.195312 8.9375 11.050781 8.894531 Z M 9.167969 1.449219 C 11.519531 1.449219 12.992188 3.1875 12.992188 4.632812 C 12.992188 6.082031 12.695312 6.660156 12.402344 6.082031 L 11.8125 4.921875 C 11.8125 4.921875 10.050781 4.921875 9.460938 4.34375 C 9.460938 4.34375 10.34375 6.082031 8.578125 4.34375 C 8.578125 4.34375 8.871094 5.503906 7.109375 4.054688 C 7.109375 4.054688 6.226562 4.632812 5.929688 6.082031 C 5.847656 6.484375 5.34375 6.082031 5.34375 4.632812 C 5.34375 3.1875 6.519531 1.449219 9.167969 1.449219 "/>
<path style=" stroke:none;fill-rule:nonzero;fill:rgb(40%,12.941176%,7.45098%);fill-opacity:1;" d="M 7.5 7.082031 C 7.269531 7.082031 7.082031 6.894531 7.082031 6.667969 L 7.082031 6.25 C 7.082031 6.019531 7.269531 5.832031 7.5 5.832031 C 7.730469 5.832031 7.917969 6.019531 7.917969 6.25 L 7.917969 6.667969 C 7.917969 6.894531 7.730469 7.082031 7.5 7.082031 M 10.832031 7.082031 C 10.605469 7.082031 10.417969 6.894531 10.417969 6.667969 L 10.417969 6.25 C 10.417969 6.019531 10.605469 5.832031 10.832031 5.832031 C 11.0625 5.832031 11.25 6.019531 11.25 6.25 L 11.25 6.667969 C 11.25 6.894531 11.0625 7.082031 10.832031 7.082031 "/>
<path style=" stroke:none;fill-rule:nonzero;fill:rgb(75.686275%,41.176471%,30.980392%);fill-opacity:1;" d="M 9.480469 8.230469 L 8.855469 8.230469 C 8.683594 8.230469 8.542969 8.089844 8.542969 7.917969 C 8.542969 7.746094 8.683594 7.605469 8.855469 7.605469 L 9.480469 7.605469 C 9.652344 7.605469 9.792969 7.746094 9.792969 7.917969 C 9.792969 8.089844 9.652344 8.230469 9.480469 8.230469 "/>
<path style=" stroke:none;fill-rule:nonzero;fill:rgb(60%,66.666667%,70.980392%);fill-opacity:1;" d="M 9.140625 12.867188 C 9.140625 12.867188 10.550781 13.90625 10.847656 14.023438 C 10.914062 14.050781 10.695312 12.5 10.695312 12.5 L 7.589844 12.5 C 7.589844 12.5 7.371094 14.078125 7.492188 14.011719 C 7.757812 13.871094 9.140625 12.867188 9.140625 12.867188 "/>
<path style=" stroke:none;fill-rule:nonzero;fill:rgb(74.509804%,9.803922%,19.215686%);fill-opacity:1;" d="M 9.6875 13.933594 C 9.6875 13.933594 9.84375 13.671875 9.910156 13.554688 C 9.984375 13.417969 10.097656 12.902344 10.097656 12.902344 L 9.1875 12.5 C 9.1875 12.5 9.121094 12.503906 9.121094 12.503906 L 9.042969 12.519531 L 8.972656 12.546875 C 8.878906 12.578125 9.011719 12.550781 9.011719 12.554688 L 8.1875 12.902344 C 8.1875 12.902344 8.308594 13.417969 8.382812 13.554688 C 8.449219 13.671875 8.605469 13.933594 8.605469 13.933594 C 8.605469 13.933594 8.289062 14.167969 8.171875 15.003906 L 10.117188 15.003906 C 10 14.335938 9.6875 13.933594 9.6875 13.933594 "/>
<path style=" stroke:none;fill-rule:nonzero;fill:rgb(96.078431%,97.254902%,98.039216%);fill-opacity:1;" d="M 7.179688 11.09375 C 7.414062 11.332031 9.140625 12.503906 9.140625 12.503906 C 9.140625 12.503906 8.253906 13.023438 7.4375 13.976562 C 7.359375 14.074219 6.796875 12.050781 6.777344 11.597656 C 6.773438 11.472656 7.066406 10.980469 7.179688 11.09375 M 11.113281 11.09375 C 10.875 11.332031 9.152344 12.503906 9.152344 12.503906 C 9.152344 12.503906 10.035156 13.023438 10.851562 13.976562 C 10.933594 14.074219 11.496094 12.050781 11.511719 11.597656 C 11.515625 11.472656 11.226562 10.980469 11.113281 11.09375 "/>
<path style=" stroke:none;fill-rule:nonzero;fill:rgb(86.666667%,18.039216%,26.666667%);fill-opacity:1;" d="M 9.148438 12.789062 C 9.308594 12.777344 9.789062 13.109375 9.742188 13.308594 C 9.546875 14.070312 9.386719 13.886719 9.160156 13.886719 C 8.90625 13.886719 8.757812 14.085938 8.582031 13.339844 C 8.542969 13.179688 8.914062 12.800781 9.148438 12.789062 M 9.996094 15 L 8.316406 15 C 8.316406 15 8.542969 14.097656 9.160156 14.097656 C 9.773438 14.097656 9.996094 15 9.996094 15 "/>
</g>
</svg>
