<?xml version="1.0" encoding="UTF-8"?>
<svg xmlns="http://www.w3.org/2000/svg" xmlns:xlink="http://www.w3.org/1999/xlink" width="15pt" height="15pt" viewBox="0 0 15 15" version="1.1">
<g id="surface1">
<path style=" stroke:none;fill-rule:nonzero;fill:rgb(80%,83.921569%,86.666667%);fill-opacity:1;" d="M 5.0625 8.089844 L 5.398438 8.339844 L 1.660156 13.351562 L 1.328125 13.101562 Z M 5.0625 8.089844 "/>
<path style=" stroke:none;fill-rule:nonzero;fill:rgb(86.666667%,18.039216%,26.666667%);fill-opacity:1;" d="M 1.328125 13.101562 L 0.457031 14.269531 C 0.386719 14.363281 0.40625 14.492188 0.496094 14.5625 C 0.589844 14.632812 0.722656 14.613281 0.789062 14.519531 L 1.660156 13.351562 Z M 1.328125 13.101562 "/>
<path style=" stroke:none;fill-rule:nonzero;fill:rgb(16.078431%,18.431373%,20%);fill-opacity:1;" d="M 4.734375 8.882812 C 4.640625 8.816406 4.621094 8.683594 4.691406 8.589844 L 5.4375 7.589844 C 5.503906 7.496094 5.636719 7.476562 5.730469 7.546875 C 5.820312 7.613281 5.839844 7.746094 5.773438 7.839844 L 5.023438 8.839844 C 4.957031 8.933594 4.824219 8.953125 4.734375 8.882812 Z M 4.734375 8.882812 "/>
<path style=" stroke:none;fill-rule:nonzero;fill:rgb(16.078431%,18.431373%,20%);fill-opacity:1;" d="M 4.898438 9.007812 L 4.566406 8.757812 C 4.472656 8.691406 4.453125 8.558594 4.523438 8.464844 C 4.589844 8.375 4.722656 8.355469 4.816406 8.425781 L 5.148438 8.671875 C 5.242188 8.742188 5.261719 8.871094 5.191406 8.964844 C 5.125 9.058594 4.992188 9.078125 4.898438 9.007812 Z M 4.898438 9.007812 "/>
<path style=" stroke:none;fill-rule:nonzero;fill:rgb(60%,66.666667%,70.980392%);fill-opacity:1;" d="M 0.25 14.894531 C 0.15625 14.828125 0.136719 14.695312 0.207031 14.605469 C 0.273438 14.511719 0.40625 14.492188 0.5 14.5625 C 0.589844 14.628906 0.609375 14.761719 0.539062 14.855469 C 0.472656 14.945312 0.339844 14.964844 0.25 14.894531 Z M 0.25 14.894531 "/>
<path style=" stroke:none;fill-rule:nonzero;fill:rgb(16.078431%,18.431373%,20%);fill-opacity:1;" d="M 8.53125 14.605469 C 8.53125 14.605469 8.558594 14.546875 8.558594 14.421875 C 8.558594 14.292969 8.492188 14.058594 8.472656 14.023438 C 8.457031 13.992188 8.4375 13.964844 8.394531 13.976562 C 8.359375 13.988281 8.109375 14.113281 7.945312 14.121094 C 7.648438 14.132812 7.503906 13.863281 7.503906 13.863281 C 7.503906 13.863281 7.335938 13.957031 7.203125 14.035156 C 7.070312 14.113281 6.917969 14.226562 6.804688 14.296875 C 6.707031 14.355469 6.597656 14.382812 6.484375 14.398438 C 6.371094 14.410156 6.277344 14.40625 6.25 14.410156 C 6.222656 14.410156 5.988281 14.382812 5.980469 14.613281 L 5.984375 14.679688 C 5.984375 14.679688 6.394531 14.84375 6.960938 14.84375 C 7.527344 14.84375 7.613281 14.679688 7.976562 14.679688 C 8.34375 14.679688 8.53125 14.605469 8.53125 14.605469 Z M 8.53125 14.605469 "/>
<path style=" stroke:none;fill-rule:nonzero;fill:rgb(16.078431%,18.431373%,20%);fill-opacity:1;" d="M 7.800781 14.96875 C 7.777344 14.949219 7.75 14.878906 7.730469 14.867188 C 7.710938 14.859375 7.492188 14.90625 7.390625 14.929688 C 7.289062 14.953125 7.117188 14.992188 6.910156 14.992188 C 6.707031 14.992188 6.441406 14.933594 6.277344 14.890625 C 6.113281 14.851562 5.988281 14.796875 5.957031 14.777344 C 5.929688 14.761719 5.9375 14.753906 5.9375 14.738281 C 5.941406 14.722656 5.960938 14.652344 5.960938 14.652344 C 5.960938 14.652344 6.066406 14.710938 6.242188 14.753906 C 6.421875 14.796875 6.597656 14.828125 6.902344 14.828125 C 7.207031 14.828125 7.398438 14.785156 7.558594 14.742188 C 7.757812 14.6875 8.042969 14.628906 8.25 14.628906 C 8.40625 14.628906 8.519531 14.582031 8.5625 14.570312 C 8.570312 14.570312 8.582031 14.578125 8.582031 14.585938 L 8.582031 14.859375 C 8.582031 14.875 8.566406 14.914062 8.519531 14.925781 C 8.472656 14.933594 7.828125 14.992188 7.800781 14.96875 Z M 12.894531 12.878906 C 12.894531 12.878906 12.863281 12.820312 12.765625 12.738281 C 12.667969 12.65625 12.441406 12.546875 12.40625 12.539062 C 12.367188 12.53125 12.335938 12.53125 12.316406 12.574219 C 12.300781 12.605469 12.234375 12.882812 12.132812 13.011719 C 11.941406 13.253906 11.636719 13.1875 11.636719 13.1875 C 11.636719 13.1875 11.601562 13.378906 11.574219 13.53125 C 11.546875 13.6875 11.535156 13.882812 11.511719 14.015625 C 11.496094 14.128906 11.441406 14.234375 11.378906 14.332031 C 11.3125 14.429688 11.25 14.496094 11.234375 14.519531 C 11.214844 14.542969 11.042969 14.703125 11.214844 14.863281 L 11.265625 14.90625 C 11.265625 14.90625 11.667969 14.695312 12.039062 14.257812 C 12.414062 13.820312 12.34375 13.640625 12.585938 13.359375 C 12.828125 13.074219 12.894531 12.878906 12.894531 12.878906 Z M 12.894531 12.878906 "/>
<path style=" stroke:none;fill-rule:nonzero;fill:rgb(16.078431%,18.431373%,20%);fill-opacity:1;" d="M 12.695312 13.6875 C 12.660156 13.691406 12.589844 13.664062 12.566406 13.675781 C 12.546875 13.683594 12.4375 13.882812 12.390625 13.976562 C 12.34375 14.070312 12.257812 14.234375 12.125 14.394531 C 11.988281 14.550781 11.765625 14.71875 11.628906 14.816406 C 11.488281 14.917969 11.359375 14.980469 11.328125 14.992188 C 11.292969 15 11.292969 14.988281 11.285156 14.980469 C 11.273438 14.96875 11.234375 14.90625 11.234375 14.90625 C 11.234375 14.90625 11.34375 14.863281 11.496094 14.753906 C 11.648438 14.644531 11.789062 14.527344 11.992188 14.292969 C 12.191406 14.054688 12.285156 13.875 12.355469 13.722656 C 12.445312 13.535156 12.589844 13.277344 12.726562 13.117188 C 12.832031 12.992188 12.867188 12.875 12.886719 12.835938 C 12.890625 12.824219 12.902344 12.824219 12.910156 12.832031 L 13.121094 13.007812 C 13.136719 13.019531 13.15625 13.058594 13.132812 13.101562 C 13.109375 13.144531 12.726562 13.683594 12.695312 13.6875 Z M 12.695312 13.6875 "/>
<path style=" stroke:none;fill-rule:nonzero;fill:rgb(48.627451%,32.54902%,24.313725%);fill-opacity:1;" d="M 8.976562 0.578125 C 8.3125 0.316406 7.277344 0.652344 7.15625 1.429688 C 7.035156 2.199219 7.257812 3.40625 7.933594 3.332031 C 8.640625 3.257812 9.371094 3.101562 9.65625 2.371094 C 9.945312 1.640625 9.640625 0.839844 8.976562 0.578125 Z M 8.976562 0.578125 "/>
<path style=" stroke:none;fill-rule:nonzero;fill:rgb(48.627451%,32.54902%,24.313725%);fill-opacity:1;" d="M 9.46875 2.558594 C 10.433594 1.425781 8.109375 1.535156 8.109375 1.535156 C 7.667969 1.550781 7.96875 2.285156 7.761719 2.6875 C 7.621094 2.964844 8.21875 3.109375 8.21875 3.109375 C 8.21875 3.109375 8.492188 3.105469 8.507812 3.4375 L 8.507812 3.441406 C 8.511719 3.527344 8.503906 3.628906 8.464844 3.761719 C 8.265625 4.429688 9.160156 4.839844 9.359375 4.171875 C 9.4375 3.90625 9.40625 3.671875 9.367188 3.457031 L 9.363281 3.4375 C 9.304688 3.121094 9.230469 2.839844 9.46875 2.558594 Z M 9.46875 2.558594 "/>
<path style=" stroke:none;fill-rule:nonzero;fill:rgb(4.313725%,0.784314%,0%);fill-opacity:1;" d="M 9.734375 0.84375 C 9.292969 0.328125 8.683594 0.113281 7.640625 0.515625 C 6.734375 0.867188 7.027344 1.589844 7.238281 1.464844 C 7.820312 1.125 8.210938 1.414062 8.507812 1.890625 C 8.59375 1.65625 8.972656 1.515625 9.050781 1.855469 C 9.136719 2.238281 8.78125 2.40625 8.828125 2.511719 C 8.84375 2.546875 8.8125 2.480469 8.828125 2.511719 C 9.058594 2.910156 9.429688 3.035156 9.429688 3.035156 C 9.429688 3.035156 9.566406 3.089844 9.808594 2.621094 C 10.046875 2.148438 10.171875 1.359375 9.734375 0.84375 Z M 9.734375 0.84375 "/>
<path style=" stroke:none;fill-rule:nonzero;fill:rgb(4.313725%,0.784314%,0%);fill-opacity:1;" d="M 9.496094 1.386719 C 10.394531 1.582031 10.027344 2.988281 10.113281 3.503906 C 10.222656 4.140625 10.847656 4.164062 10.847656 4.164062 C 10.847656 4.164062 10.746094 3.722656 10.800781 3.257812 C 10.875 2.613281 11.296875 2.09375 10.851562 1.46875 C 10.289062 0.664062 8.933594 1.265625 9.496094 1.386719 Z M 9.496094 1.386719 "/>
<path style=" stroke:none;fill-rule:nonzero;fill:rgb(16.470588%,40.392157%,59.215686%);fill-opacity:1;" d="M 7.75 14.25 C 7.222656 14.296875 6.976562 14.152344 7.03125 14.078125 C 7.101562 13.984375 7.085938 13.914062 7.085938 13.855469 C 7.097656 12.835938 6.890625 11.359375 6.890625 11.359375 C 6.890625 11.214844 6.890625 11.019531 7.019531 10.707031 C 7.34375 9.921875 8.664062 7.503906 8.664062 7.503906 C 8.894531 7.105469 9.402344 6.964844 9.800781 7.191406 C 10.203125 7.421875 10.269531 7.777344 10.113281 8.332031 C 9.816406 9.375 8.878906 10.664062 8.484375 11.445312 C 8.578125 12.328125 8.414062 13.050781 8.5 13.886719 C 8.515625 14.007812 8.277344 14.207031 7.75 14.25 Z M 7.75 14.25 "/>
<path style=" stroke:none;fill-rule:nonzero;fill:rgb(25.882353%,53.72549%,75.686275%);fill-opacity:1;" d="M 12.222656 13.304688 C 12.070312 13.535156 11.816406 13.695312 11.554688 13.652344 C 11.027344 12.851562 9.492188 11.4375 9.492188 11.4375 C 9.390625 11.332031 9.257812 11.191406 9.132812 10.878906 C 8.820312 10.089844 8.09375 7.429688 8.09375 7.429688 C 7.980469 6.984375 8.25 6.527344 8.695312 6.417969 C 9.140625 6.304688 9.4375 6.511719 9.707031 7.019531 C 10.21875 7.976562 10.441406 9.558594 10.699219 10.390625 C 11.480469 11.042969 11.695312 11.890625 12.480469 12.535156 C 12.453125 12.894531 12.375 13.074219 12.222656 13.304688 Z M 12.222656 13.304688 "/>
<path style=" stroke:none;fill-rule:nonzero;fill:rgb(57.254902%,40.784314%,79.215686%);fill-opacity:1;" d="M 10.640625 8.332031 C 10.640625 8.332031 10.640625 8.75 9.808594 8.75 L 7.765625 8.75 C 7.59375 7.917969 7.996094 7.160156 7.722656 6.042969 C 7.371094 4.601562 8.726562 3.175781 9.3125 3.367188 C 10.082031 3.613281 10.4375 4.46875 10.535156 5.808594 C 10.636719 7.148438 10.640625 8.332031 10.640625 8.332031 Z M 10.640625 8.332031 "/>
<path style=" stroke:none;fill-rule:nonzero;fill:rgb(48.627451%,32.54902%,24.313725%);fill-opacity:1;" d="M 8.390625 4.851562 C 8.066406 5.339844 7.433594 6.433594 7.339844 6.476562 C 6.835938 6.699219 6.277344 6.984375 5.902344 7.019531 C 5.632812 7.050781 5.378906 7.304688 5.273438 7.40625 C 5.140625 7.53125 4.960938 7.824219 5.011719 7.976562 C 5.042969 8.070312 5.246094 8.179688 5.320312 8.082031 C 5.457031 7.890625 5.726562 7.859375 5.941406 7.710938 C 6.375 7.417969 7.308594 7.398438 7.839844 7.003906 C 8.0625 6.839844 8.5 6.53125 9.136719 5.453125 C 8.890625 5.277344 8.390625 4.851562 8.390625 4.851562 Z M 8.390625 4.851562 "/>
<path style=" stroke:none;fill-rule:nonzero;fill:rgb(16.078431%,18.431373%,20%);fill-opacity:1;" d="M 5.921875 7.089844 C 6.121094 7.152344 6.273438 7.351562 6.152344 7.554688 C 6.03125 7.757812 6.320312 7.632812 6.367188 7.535156 C 6.460938 7.339844 6.292969 7.054688 6.097656 6.988281 C 5.902344 6.921875 5.785156 7.046875 5.921875 7.089844 Z M 5.921875 7.089844 "/>
</g>
</svg>
