<?xml version="1.0" encoding="UTF-8"?>
<svg xmlns="http://www.w3.org/2000/svg" xmlns:xlink="http://www.w3.org/1999/xlink" width="15pt" height="15pt" viewBox="0 0 15 15" version="1.1">
<g id="surface1">
<path style=" stroke:none;fill-rule:nonzero;fill:rgb(80.784314%,61.960784%,36.470588%);fill-opacity:1;" d="M 13.332031 15 L 13.332031 14.167969 C 13.332031 12.785156 12.214844 11.667969 10.832031 11.667969 L 4.167969 11.667969 C 2.785156 11.667969 1.667969 12.785156 1.667969 14.167969 L 1.667969 15 Z M 13.332031 15 "/>
<path style=" stroke:none;fill-rule:nonzero;fill:rgb(100%,95.294118%,37.254902%);fill-opacity:1;" d="M 1.703125 13.75 C 1.679688 13.886719 1.667969 14.023438 1.667969 14.167969 L 1.667969 15 L 13.332031 15 L 13.332031 14.167969 C 13.332031 14.023438 13.320312 13.886719 13.296875 13.75 Z M 1.703125 13.75 "/>
<path style=" stroke:none;fill-rule:nonzero;fill:rgb(80%,83.921569%,86.666667%);fill-opacity:1;" d="M 1.667969 14.167969 L 13.332031 14.167969 L 13.332031 14.582031 L 1.667969 14.582031 Z M 1.667969 14.167969 "/>
<path style=" stroke:none;fill-rule:nonzero;fill:rgb(62.745098%,1.568627%,11.764706%);fill-opacity:1;" d="M 13.332031 5.691406 C 13.332031 7.1875 10.722656 8.398438 7.5 8.398438 C 4.277344 8.398438 1.667969 7.1875 1.667969 5.691406 C 1.667969 4.195312 4.277344 4.648438 7.5 4.648438 C 10.722656 4.648438 13.332031 4.195312 13.332031 5.691406 Z M 13.332031 5.691406 "/>
<path style=" stroke:none;fill-rule:nonzero;fill:rgb(16.078431%,18.431373%,20%);fill-opacity:1;" d="M 5.832031 11.25 L 9.167969 11.25 C 9.167969 11.25 8.742188 14.167969 7.5 14.167969 C 6.257812 14.167969 5.832031 11.25 5.832031 11.25 Z M 5.832031 11.25 "/>
<path style=" stroke:none;fill-rule:nonzero;fill:rgb(68.627451%,49.411765%,34.117647%);fill-opacity:1;" d="M 5.683594 11.707031 C 6.410156 12.238281 6.871094 12.527344 7.5 12.527344 C 8.128906 12.527344 8.589844 12.234375 9.316406 11.707031 L 9.316406 10.121094 L 5.683594 10.121094 Z M 5.683594 11.707031 "/>
<path style=" stroke:none;fill-rule:nonzero;fill:rgb(60.784314%,41.568627%,28.627451%);fill-opacity:1;" d="M 5.679688 10.820312 C 6.1875 11.394531 6.816406 11.550781 7.5 11.550781 C 8.179688 11.550781 8.808594 11.394531 9.316406 10.820312 L 9.316406 9.367188 L 5.679688 9.367188 Z M 5.679688 10.820312 "/>
<path style=" stroke:none;fill-rule:nonzero;fill:rgb(68.627451%,49.411765%,34.117647%);fill-opacity:1;" d="M 4.769531 6.640625 C 4.769531 7.242188 4.460938 7.730469 4.085938 7.730469 C 3.707031 7.730469 3.402344 7.242188 3.402344 6.640625 C 3.402344 6.035156 3.707031 5.546875 4.085938 5.546875 C 4.464844 5.546875 4.769531 6.035156 4.769531 6.640625 Z M 11.597656 6.640625 C 11.597656 7.242188 11.292969 7.730469 10.914062 7.730469 C 10.535156 7.730469 10.230469 7.242188 10.230469 6.640625 C 10.230469 6.035156 10.535156 5.546875 10.914062 5.546875 C 11.292969 5.546875 11.597656 6.035156 11.597656 6.640625 Z M 11.597656 6.640625 "/>
<path style=" stroke:none;fill-rule:nonzero;fill:rgb(68.627451%,49.411765%,34.117647%);fill-opacity:1;" d="M 3.949219 7.066406 C 3.949219 4.738281 5.539062 2.847656 7.5 2.847656 C 9.460938 2.847656 11.050781 4.738281 11.050781 7.066406 C 11.050781 9.394531 9.460938 11.285156 7.5 11.285156 C 5.539062 11.285156 3.949219 9.394531 3.949219 7.066406 Z M 3.949219 7.066406 "/>
<path style=" stroke:none;fill-rule:nonzero;fill:rgb(56.862745%,35.294118%,20.392157%);fill-opacity:1;" d="M 7.5 9.917969 C 6.351562 9.917969 6 9.625 5.941406 9.5625 C 5.835938 9.457031 5.835938 9.285156 5.941406 9.179688 C 6.042969 9.074219 6.210938 9.070312 6.316406 9.167969 C 6.339844 9.183594 6.617188 9.371094 7.5 9.371094 C 8.417969 9.371094 8.683594 9.167969 8.683594 9.167969 C 8.789062 9.058594 8.957031 9.066406 9.066406 9.171875 C 9.171875 9.277344 9.164062 9.457031 9.058594 9.5625 C 9 9.625 8.648438 9.917969 7.5 9.917969 Z M 7.5 9.917969 "/>
<path style=" stroke:none;fill-rule:nonzero;fill:rgb(37.647059%,20.784314%,16.470588%);fill-opacity:1;" d="M 7.5 1.449219 C 9.851562 1.449219 11.324219 3.1875 11.324219 4.632812 C 11.324219 6.082031 11.03125 6.660156 10.734375 6.082031 L 10.148438 4.921875 C 10.148438 4.921875 8.382812 4.921875 7.792969 4.34375 C 7.792969 4.34375 8.675781 6.082031 6.910156 4.34375 C 6.910156 4.34375 7.207031 5.5 5.441406 4.054688 C 5.441406 4.054688 4.558594 4.632812 4.265625 6.082031 C 4.183594 6.480469 3.675781 6.082031 3.675781 4.632812 C 3.675781 3.1875 4.851562 1.449219 7.5 1.449219 Z M 7.5 1.449219 "/>
<path style=" stroke:none;fill-rule:nonzero;fill:rgb(37.647059%,20.784314%,16.470588%);fill-opacity:1;" d="M 5.832031 7.082031 C 5.605469 7.082031 5.417969 6.894531 5.417969 6.667969 L 5.417969 6.25 C 5.417969 6.019531 5.605469 5.832031 5.832031 5.832031 C 6.0625 5.832031 6.25 6.019531 6.25 6.25 L 6.25 6.667969 C 6.25 6.894531 6.0625 7.082031 5.832031 7.082031 Z M 9.167969 7.082031 C 8.9375 7.082031 8.75 6.894531 8.75 6.667969 L 8.75 6.25 C 8.75 6.019531 8.9375 5.832031 9.167969 5.832031 C 9.394531 5.832031 9.582031 6.019531 9.582031 6.25 L 9.582031 6.667969 C 9.582031 6.894531 9.394531 7.082031 9.167969 7.082031 Z M 9.167969 7.082031 "/>
<path style=" stroke:none;fill-rule:nonzero;fill:rgb(56.862745%,35.294118%,20.392157%);fill-opacity:1;" d="M 7.8125 8.230469 L 7.1875 8.230469 C 7.015625 8.230469 6.875 8.089844 6.875 7.917969 C 6.875 7.746094 7.015625 7.605469 7.1875 7.605469 L 7.8125 7.605469 C 7.984375 7.605469 8.125 7.746094 8.125 7.917969 C 8.125 8.089844 7.984375 8.230469 7.8125 8.230469 Z M 7.8125 8.230469 "/>
<path style=" stroke:none;fill-rule:nonzero;fill:rgb(16.078431%,18.431373%,20%);fill-opacity:1;" d="M 11.25 15 L 11.25 11.25 C 11.25 11.019531 11.0625 10.832031 10.832031 10.832031 L 10.417969 10.832031 C 10.1875 10.832031 10 11.019531 10 11.25 L 10 15 Z M 5 15 L 5 11.25 C 5 11.019531 4.8125 10.832031 4.582031 10.832031 L 4.167969 10.832031 C 3.9375 10.832031 3.75 11.019531 3.75 11.25 L 3.75 15 Z M 5 15 "/>
<path style=" stroke:none;fill-rule:nonzero;fill:rgb(87.45098%,12.156863%,19.607843%);fill-opacity:1;" d="M 12.023438 4.523438 C 11.664062 4.453125 11.566406 2.84375 10.738281 1.664062 C 9.957031 0.554688 8.460938 0 7.5 0 C 6.539062 0 5.042969 0.554688 4.261719 1.664062 C 3.429688 2.84375 3.335938 4.453125 2.976562 4.523438 C 1.59375 4.800781 1.660156 5.519531 1.667969 5.683594 C 1.71875 5.488281 1.851562 5.027344 3.292969 5 C 4.710938 4.972656 6.035156 5.335938 7.5 5.335938 C 8.964844 5.335938 10.285156 4.972656 11.703125 5 C 13.148438 5.023438 13.277344 5.488281 13.332031 5.683594 C 13.339844 5.519531 13.402344 4.800781 12.023438 4.523438 Z M 12.023438 4.523438 "/>
<path style=" stroke:none;fill-rule:nonzero;fill:rgb(91.764706%,34.901961%,43.137255%);fill-opacity:1;" d="M 7.5 0 C 6.628906 0 5.417969 1.496094 5.417969 2.105469 L 5.417969 3.75 C 5.417969 3.75 5.460938 4.167969 5.800781 4.167969 L 9.199219 4.167969 C 9.539062 4.167969 9.582031 3.75 9.582031 3.75 L 9.582031 2.105469 C 9.582031 1.496094 8.371094 0 7.5 0 Z M 7.5 0 "/>
<path style=" stroke:none;fill-rule:nonzero;fill:rgb(80.784314%,61.960784%,36.470588%);fill-opacity:1;" d="M 9.953125 10.417969 C 9.78125 10.257812 8.921875 10.566406 8.691406 10.832031 C 8.464844 11.097656 8.425781 11.558594 8.273438 12.082031 C 8.140625 12.53125 7.617188 13.734375 7.46875 14.074219 C 7.320312 13.734375 6.800781 12.53125 6.667969 12.082031 C 6.511719 11.558594 6.476562 11.097656 6.25 10.832031 C 6.023438 10.566406 5.167969 10.257812 5 10.417969 C 4.832031 10.574219 5.007812 11.027344 5 11.25 C 4.992188 11.472656 5 15 5 15 L 10 15 C 10 15 10.007812 11.472656 10 11.25 C 9.992188 11.027344 10.121094 10.574219 9.953125 10.417969 Z M 9.953125 10.417969 "/>
</g>
</svg>
