<?xml version="1.0" encoding="UTF-8"?>
<svg xmlns="http://www.w3.org/2000/svg" xmlns:xlink="http://www.w3.org/1999/xlink" width="15pt" height="15pt" viewBox="0 0 15 15" version="1.1">
<g id="surface1">
<path style=" stroke:none;fill-rule:nonzero;fill:rgb(96.862745%,87.058824%,80.784314%);fill-opacity:1;" d="M 3.332031 7.917969 C 3.332031 8.835938 2.867188 9.582031 2.292969 9.582031 C 1.714844 9.582031 1.25 8.835938 1.25 7.917969 C 1.25 6.996094 1.714844 6.25 2.292969 6.25 C 2.867188 6.25 3.332031 6.996094 3.332031 7.917969 Z M 13.75 7.917969 C 13.75 8.835938 13.285156 9.582031 12.707031 9.582031 C 12.132812 9.582031 11.667969 8.835938 11.667969 7.917969 C 11.667969 6.996094 12.132812 6.25 12.707031 6.25 C 13.285156 6.25 13.75 6.996094 13.75 7.917969 Z M 13.75 7.917969 "/>
<path style=" stroke:none;fill-rule:nonzero;fill:rgb(96.862745%,87.058824%,80.784314%);fill-opacity:1;" d="M 2.082031 8.566406 C 2.082031 5.015625 4.507812 2.136719 7.5 2.136719 C 10.492188 2.136719 12.917969 5.015625 12.917969 8.566406 C 12.917969 12.121094 10.492188 15 7.5 15 C 4.507812 15 2.082031 12.121094 2.082031 8.566406 Z M 2.082031 8.566406 "/>
<path style=" stroke:none;fill-rule:nonzero;fill:rgb(40%,12.941176%,7.45098%);fill-opacity:1;" d="M 5.417969 8.332031 C 5.1875 8.332031 5 8.148438 5 7.917969 L 5 7.082031 C 5 6.851562 5.1875 6.667969 5.417969 6.667969 C 5.648438 6.667969 5.832031 6.851562 5.832031 7.082031 L 5.832031 7.917969 C 5.832031 8.148438 5.648438 8.332031 5.417969 8.332031 Z M 9.582031 8.332031 C 9.351562 8.332031 9.167969 8.148438 9.167969 7.917969 L 9.167969 7.082031 C 9.167969 6.851562 9.351562 6.667969 9.582031 6.667969 C 9.8125 6.667969 10 6.851562 10 7.082031 L 10 7.917969 C 10 8.148438 9.8125 8.332031 9.582031 8.332031 Z M 9.582031 8.332031 "/>
<path style=" stroke:none;fill-rule:nonzero;fill:rgb(75.686275%,41.176471%,30.980392%);fill-opacity:1;" d="M 7.917969 10 L 7.082031 10 C 6.851562 10 6.667969 9.8125 6.667969 9.582031 C 6.667969 9.351562 6.851562 9.167969 7.082031 9.167969 L 7.917969 9.167969 C 8.148438 9.167969 8.332031 9.351562 8.332031 9.582031 C 8.332031 9.8125 8.148438 10 7.917969 10 Z M 7.917969 10 "/>
<path style=" stroke:none;fill-rule:nonzero;fill:rgb(16.078431%,18.431373%,20%);fill-opacity:1;" d="M 10.53125 11.265625 L 9.160156 10.875 C 9.160156 10.859375 9.167969 10.847656 9.167969 10.832031 C 9.167969 10.601562 8.980469 10.417969 8.75 10.417969 L 6.25 10.417969 C 6.019531 10.417969 5.832031 10.601562 5.832031 10.832031 C 5.832031 10.847656 5.839844 10.859375 5.839844 10.875 L 4.46875 11.265625 C 4.246094 11.328125 4.121094 11.558594 4.183594 11.78125 C 4.234375 11.964844 4.402344 12.082031 4.582031 12.082031 C 4.621094 12.082031 4.660156 12.078125 4.699219 12.066406 L 5.503906 11.835938 C 5.414062 11.960938 5.386719 12.125 5.460938 12.269531 C 5.535156 12.414062 5.679688 12.5 5.832031 12.5 C 5.894531 12.5 5.960938 12.484375 6.019531 12.457031 L 6.675781 12.128906 C 6.691406 12.265625 6.765625 12.390625 6.898438 12.457031 C 6.957031 12.484375 7.019531 12.5 7.082031 12.5 C 7.234375 12.5 7.382812 12.414062 7.457031 12.269531 L 7.5 12.183594 L 7.542969 12.269531 C 7.617188 12.414062 7.765625 12.5 7.917969 12.5 C 7.980469 12.5 8.042969 12.484375 8.101562 12.457031 C 8.234375 12.390625 8.308594 12.265625 8.324219 12.128906 L 8.980469 12.457031 C 9.039062 12.484375 9.105469 12.5 9.167969 12.5 C 9.320312 12.5 9.464844 12.414062 9.539062 12.269531 C 9.613281 12.125 9.589844 11.960938 9.496094 11.835938 L 10.300781 12.066406 C 10.339844 12.078125 10.378906 12.082031 10.417969 12.082031 C 10.597656 12.082031 10.765625 11.964844 10.816406 11.78125 C 10.878906 11.558594 10.753906 11.328125 10.53125 11.265625 Z M 7.5 0 C 11.089844 0 13.332031 2.648438 13.332031 4.855469 C 13.332031 7.0625 12.882812 7.945312 12.4375 7.0625 L 11.539062 5.296875 C 11.539062 5.296875 8.847656 5.296875 7.949219 4.414062 C 7.949219 4.414062 9.296875 7.0625 6.601562 4.414062 C 6.601562 4.414062 7.050781 6.179688 4.359375 3.972656 C 4.359375 3.972656 3.011719 4.855469 2.5625 7.0625 C 2.441406 7.675781 1.667969 7.0625 1.667969 4.855469 C 1.667969 2.648438 3.460938 0 7.5 0 Z M 7.5 0 "/>
</g>
</svg>
