<?xml version="1.0" encoding="UTF-8"?>
<svg xmlns="http://www.w3.org/2000/svg" xmlns:xlink="http://www.w3.org/1999/xlink" width="15pt" height="15pt" viewBox="0 0 15 15" version="1.1">
<defs>
<filter id="alpha" filterUnits="objectBoundingBox" x="0%" y="0%" width="100%" height="100%">
  <feColorMatrix type="matrix" in="SourceGraphic" values="0 0 0 0 1 0 0 0 0 1 0 0 0 0 1 0 0 0 1 0"/>
</filter>
<mask id="mask0">
  <g filter="url(#alpha)">
<rect x="0" y="0" width="15" height="15" style="fill:rgb(0%,0%,0%);fill-opacity:0.4;stroke:none;"/>
  </g>
</mask>
<clipPath id="clip1">
  <rect x="0" y="0" width="15" height="15"/>
</clipPath>
<g id="surface5" clip-path="url(#clip1)">
<path style=" stroke:none;fill-rule:nonzero;fill:rgb(100%,100%,100%);fill-opacity:1;" d="M 6.148438 5.3125 L 12.1875 5.3125 L 12.1875 7.5 L 6.148438 7.5 Z M 6.148438 5.3125 "/>
</g>
</defs>
<g id="surface1">
<path style=" stroke:none;fill-rule:nonzero;fill:rgb(80%,83.921569%,86.666667%);fill-opacity:1;" d="M 14.558594 15 L 14.558594 13.128906 C 14.558594 11.75 13.023438 10.839844 11.640625 10.839844 L 6.640625 10.839844 C 5.261719 10.839844 3.726562 11.75 3.726562 13.128906 L 3.726562 15 Z M 14.558594 15 "/>
<path style=" stroke:none;fill-rule:nonzero;fill:rgb(100%,67.45098%,20%);fill-opacity:1;" d="M 9.121094 1.699219 C 10.828125 1.699219 13.679688 2.554688 13.679688 6.261719 C 13.679688 9.96875 13.679688 10.824219 12.824219 10.824219 C 11.96875 10.824219 10.828125 9.96875 9.121094 9.96875 C 7.410156 9.96875 6.292969 10.824219 5.414062 10.824219 C 4.460938 10.824219 4.558594 7.402344 4.558594 6.261719 C 4.558594 2.554688 7.410156 1.699219 9.121094 1.699219 "/>
<path style=" stroke:none;fill-rule:nonzero;fill:rgb(100%,86.27451%,36.470588%);fill-opacity:1;" d="M 7.613281 11.871094 C 8.222656 12.3125 10.058594 12.3125 10.667969 11.871094 L 10.667969 9.511719 L 7.613281 9.511719 Z M 7.613281 11.871094 "/>
<path style=" stroke:none;fill-rule:nonzero;fill:rgb(97.647059%,79.215686%,33.333333%);fill-opacity:1;" d="M 7.609375 10.078125 C 8.035156 10.5625 8.5625 10.691406 9.136719 10.691406 C 9.714844 10.691406 10.242188 10.5625 10.667969 10.078125 L 10.667969 8.855469 L 7.609375 8.855469 Z M 7.609375 10.078125 "/>
<path style=" stroke:none;fill-rule:nonzero;fill:rgb(100%,86.27451%,36.470588%);fill-opacity:1;" d="M 5.699219 6.136719 C 5.699219 3.707031 7.230469 1.734375 9.121094 1.734375 C 11.007812 1.734375 12.539062 3.707031 12.539062 6.136719 C 12.539062 8.566406 11.007812 10.421875 9.121094 10.421875 C 7.230469 10.421875 5.699219 8.566406 5.699219 6.136719 "/>
<path style=" stroke:none;fill-rule:nonzero;fill:rgb(87.45098%,12.156863%,19.607843%);fill-opacity:1;" d="M 9.121094 9.398438 C 8.449219 9.398438 8.101562 9.066406 8.0625 9.027344 C 7.949219 8.917969 7.949219 8.738281 8.0625 8.625 C 8.171875 8.515625 8.351562 8.515625 8.464844 8.621094 C 8.476562 8.636719 8.691406 8.828125 9.121094 8.828125 C 9.550781 8.828125 9.765625 8.628906 9.777344 8.621094 C 9.890625 8.515625 10.070312 8.519531 10.175781 8.632812 C 10.285156 8.742188 10.285156 8.917969 10.175781 9.027344 C 10.136719 9.066406 9.789062 9.398438 9.121094 9.398438 "/>
<path style=" stroke:none;fill-rule:nonzero;fill:rgb(100%,67.45098%,20%);fill-opacity:1;" d="M 4.859375 7.503906 C 4.851562 7.089844 4.84375 7.410156 4.84375 7.3125 C 4.84375 5.886719 5.699219 7.515625 5.699219 6.5 C 5.699219 5.484375 6.269531 5.382812 6.839844 4.8125 C 7.125 4.527344 7.695312 3.96875 7.695312 3.96875 C 7.695312 3.96875 9.121094 4.832031 10.257812 4.832031 C 11.398438 4.832031 12.539062 5.402344 12.539062 6.542969 C 12.539062 7.683594 13.394531 5.882812 13.394531 7.308594 C 13.394531 7.410156 13.386719 7.089844 13.378906 7.503906 L 13.679688 7.503906 C 13.679688 6.671875 13.679688 6.703125 13.679688 6.171875 C 13.679688 2.464844 10.832031 1.085938 9.121094 1.085938 C 7.410156 1.085938 4.558594 2.441406 4.558594 6.148438 C 4.558594 6.476562 4.550781 6.671875 4.5625 7.503906 Z M 4.859375 7.503906 "/>
<path style=" stroke:none;fill-rule:nonzero;fill:rgb(100%,86.27451%,36.470588%);fill-opacity:1;" d="M 6.410156 6.226562 C 6.410156 6.832031 6.105469 7.320312 5.726562 7.320312 C 5.351562 7.320312 5.046875 6.832031 5.046875 6.226562 C 5.046875 5.625 5.351562 5.136719 5.726562 5.136719 C 6.105469 5.136719 6.410156 5.625 6.410156 6.226562 M 13.238281 6.226562 C 13.238281 6.832031 12.933594 7.320312 12.554688 7.320312 C 12.179688 7.320312 11.875 6.832031 11.875 6.226562 C 11.875 5.625 12.179688 5.136719 12.554688 5.136719 C 12.933594 5.136719 13.238281 5.625 13.238281 6.226562 "/>
<path style=" stroke:none;fill-rule:nonzero;fill:rgb(40%,12.941176%,7.45098%);fill-opacity:1;" d="M 7.730469 7.039062 C 7.535156 7.039062 7.375 6.882812 7.375 6.6875 L 7.375 6.335938 C 7.375 6.140625 7.535156 5.984375 7.730469 5.984375 C 7.921875 5.984375 8.082031 6.140625 8.082031 6.335938 L 8.082031 6.6875 C 8.082031 6.882812 7.921875 7.039062 7.730469 7.039062 M 10.546875 7.039062 C 10.355469 7.039062 10.195312 6.882812 10.195312 6.6875 L 10.195312 6.335938 C 10.195312 6.140625 10.355469 5.984375 10.546875 5.984375 C 10.742188 5.984375 10.902344 6.140625 10.902344 6.335938 L 10.902344 6.6875 C 10.898438 6.882812 10.742188 7.039062 10.546875 7.039062 "/>
<path style=" stroke:none;fill-rule:nonzero;fill:rgb(75.686275%,41.176471%,30.980392%);fill-opacity:1;" d="M 9.492188 8.128906 L 8.785156 8.128906 C 8.6875 8.128906 8.609375 8.050781 8.609375 7.953125 L 8.609375 7.890625 C 8.609375 7.792969 8.6875 7.714844 8.785156 7.714844 L 9.492188 7.714844 C 9.585938 7.714844 9.667969 7.792969 9.667969 7.890625 L 9.667969 7.953125 C 9.667969 8.050781 9.589844 8.128906 9.492188 8.128906 "/>
<path style=" stroke:none;fill-rule:nonzero;fill:rgb(40%,45.882353%,49.803922%);fill-opacity:1;" d="M 7.917969 15 L 7.476562 11.160156 C 7.476562 11.160156 8.0625 11.84375 9.140625 11.84375 C 10.222656 11.84375 10.898438 11.160156 10.898438 11.160156 L 10.390625 15 Z M 7.917969 15 "/>
<path style=" stroke:none;fill-rule:nonzero;fill:rgb(96.078431%,97.254902%,98.039216%);fill-opacity:1;" d="M 7.476562 10.519531 C 7.710938 10.757812 8.691406 15 8.691406 15 L 7.375 15 L 6.667969 13.933594 L 7.375 12.75 L 6.535156 12.488281 L 6.640625 10.839844 C 6.640625 10.839844 7.363281 10.40625 7.476562 10.519531 M 10.804688 10.519531 C 10.570312 10.757812 9.589844 15 9.589844 15 L 10.90625 15 L 11.613281 13.933594 L 10.90625 12.75 L 11.746094 12.488281 L 11.640625 10.839844 C 11.640625 10.839844 10.917969 10.40625 10.804688 10.519531 "/>
<use xlink:href="#surface5" mask="url(#mask0)"/>
<path style=" stroke:none;fill-rule:nonzero;fill:rgb(96.078431%,97.254902%,98.039216%);fill-opacity:1;" d="M 12.082031 5 L 6.25 5 C 5.832031 5 5.832031 5.417969 5.832031 5.417969 L 5.832031 7.082031 C 5.832031 7.691406 6.804688 7.917969 7.5 7.917969 C 8.195312 7.917969 8.582031 7.5 9.167969 7.5 C 9.75 7.5 10.140625 7.917969 10.832031 7.917969 C 11.527344 7.917969 12.5 7.691406 12.5 7.082031 L 12.5 5.417969 C 12.5 5 12.082031 5 12.082031 5 Z M 12.082031 6.667969 C 12.082031 7.21875 11.726562 7.5 10.832031 7.5 C 10.191406 7.5 9.664062 7.082031 9.167969 7.082031 C 8.667969 7.082031 8.140625 7.5 7.5 7.5 C 6.605469 7.5 6.25 7.21875 6.25 6.667969 L 6.25 5.417969 L 12.082031 5.417969 Z M 12.082031 6.667969 "/>
<path style=" stroke:none;fill-rule:nonzero;fill:rgb(57.254902%,40%,80%);fill-opacity:1;" d="M 3.332031 4.582031 C 3.332031 4.8125 3.148438 5 2.917969 5 C 2.6875 5 2.5 4.8125 2.5 4.582031 C 2.5 4.351562 2.6875 4.167969 2.917969 4.167969 C 3.148438 4.167969 3.332031 4.351562 3.332031 4.582031 Z M 3.332031 4.582031 "/>
<path style=" stroke:none;fill-rule:nonzero;fill:rgb(57.254902%,40%,80%);fill-opacity:1;" d="M 4.167969 6.667969 C 4.167969 6.898438 3.980469 7.082031 3.75 7.082031 C 3.519531 7.082031 3.332031 6.898438 3.332031 6.667969 C 3.332031 6.4375 3.519531 6.25 3.75 6.25 C 3.980469 6.25 4.167969 6.4375 4.167969 6.667969 Z M 4.167969 6.667969 "/>
<path style=" stroke:none;fill-rule:nonzero;fill:rgb(57.254902%,40%,80%);fill-opacity:1;" d="M 2.917969 6.042969 C 2.917969 6.386719 2.636719 6.667969 2.292969 6.667969 C 1.945312 6.667969 1.667969 6.386719 1.667969 6.042969 C 1.667969 5.695312 1.945312 5.417969 2.292969 5.417969 C 2.636719 5.417969 2.917969 5.695312 2.917969 6.042969 Z M 2.917969 6.042969 "/>
<path style=" stroke:none;fill-rule:nonzero;fill:rgb(65.882353%,73.72549%,80%);fill-opacity:1;" d="M 4.167969 7.5 L 2.082031 7.5 C 2.082031 7.5 1.25 7.5 1.25 8.332031 C 1.25 9.167969 2.082031 9.167969 2.082031 9.167969 L 2.082031 11.25 L 0.417969 13.332031 C 0.046875 13.792969 0 14.09375 0 14.167969 C 0 15 0.832031 15 0.832031 15 L 5.417969 15 C 5.417969 15 6.25 15 6.25 14.167969 C 6.25 14.109375 6.3125 13.933594 5.832031 13.332031 L 4.167969 11.25 L 4.167969 9.167969 C 4.167969 9.167969 5 9.167969 5 8.332031 C 5 7.5 4.167969 7.5 4.167969 7.5 Z M 4.167969 7.5 "/>
<path style=" stroke:none;fill-rule:nonzero;fill:rgb(88.235294%,90.980392%,92.941176%);fill-opacity:1;" d="M 3.75 11.394531 L 3.75 8.75 L 4.167969 8.75 C 4.355469 8.746094 4.582031 8.667969 4.582031 8.332031 C 4.582031 8 4.355469 7.921875 4.164062 7.917969 L 2.082031 7.917969 C 1.894531 7.921875 1.667969 7.996094 1.667969 8.332031 C 1.667969 8.667969 1.894531 8.746094 2.089844 8.75 L 2.496094 8.761719 L 2.5 11.394531 L 1.710938 12.382812 L 3.125 13.839844 L 4.539062 12.382812 Z M 3.75 11.394531 "/>
<path style=" stroke:none;fill-rule:nonzero;fill:rgb(57.254902%,40%,80%);fill-opacity:1;" d="M 0.417969 14.179688 C 0.417969 14.503906 0.644531 14.578125 0.839844 14.582031 L 5.417969 14.582031 C 5.605469 14.578125 5.832031 14.503906 5.832031 14.167969 L 5.832031 14.148438 L 5.835938 14.117188 C 5.835938 14.113281 5.8125 13.976562 5.507812 13.59375 L 4.539062 12.382812 L 1.710938 12.382812 L 0.742188 13.59375 C 0.441406 13.96875 0.417969 14.179688 0.417969 14.179688 Z M 0.417969 14.179688 "/>
</g>
</svg>
