<?xml version="1.0" encoding="UTF-8"?>
<svg xmlns="http://www.w3.org/2000/svg" xmlns:xlink="http://www.w3.org/1999/xlink" width="15pt" height="15pt" viewBox="0 0 15 15" version="1.1">
<g id="surface1">
<path style=" stroke:none;fill-rule:nonzero;fill:rgb(33.333333%,67.45098%,93.333333%);fill-opacity:1;" d="M 12.082031 8.636719 L 12.082031 7.820312 C 12.5 7.390625 13.296875 6.613281 13.496094 5.621094 C 13.554688 5.65625 13.519531 5.675781 13.585938 5.675781 C 13.902344 5.675781 14.109375 5.265625 14.109375 4.761719 C 14.109375 4.261719 13.835938 3.859375 13.527344 3.847656 C 13.585938 3.632812 13.613281 3.34375 13.613281 2.976562 C 13.613281 1.746094 12.550781 0.265625 10.175781 0.265625 C 8.0625 0.265625 6.738281 1.746094 6.738281 2.976562 C 6.738281 3.332031 6.761719 3.628906 6.800781 3.855469 C 6.507812 3.898438 6.28125 4.285156 6.28125 4.761719 C 6.28125 5.265625 6.535156 5.675781 6.851562 5.675781 C 6.917969 5.675781 6.824219 5.65625 6.882812 5.621094 C 7.082031 6.613281 7.917969 7.390625 8.332031 7.820312 L 8.332031 8.589844 C 6.667969 8.792969 5.417969 9.683594 5.417969 10.574219 L 5.417969 10.910156 C 5.417969 11.25 5.757812 11.25 6.097656 11.25 L 13.902344 11.25 C 14.242188 11.25 14.582031 11.25 14.582031 10.910156 L 14.582031 10.574219 C 14.582031 9.742188 13.332031 8.910156 12.082031 8.636719 Z M 12.082031 8.636719 "/>
<path style=" stroke:none;fill-rule:nonzero;fill:rgb(13.333333%,40%,60%);fill-opacity:1;" d="M 7.082031 11.96875 L 7.082031 11.152344 C 7.5 10.722656 8.296875 9.949219 8.496094 8.957031 C 8.554688 8.988281 8.519531 9.007812 8.585938 9.007812 C 8.902344 9.007812 9.109375 8.601562 9.109375 8.09375 C 9.109375 7.597656 8.835938 7.195312 8.527344 7.179688 C 8.585938 6.964844 8.613281 6.679688 8.613281 6.308594 C 8.613281 5.078125 7.550781 3.597656 5.175781 3.597656 C 3.0625 3.597656 1.738281 5.078125 1.738281 6.308594 C 1.738281 6.667969 1.761719 6.960938 1.800781 7.1875 C 1.507812 7.230469 1.28125 7.617188 1.28125 8.09375 C 1.28125 8.597656 1.535156 9.007812 1.851562 9.007812 C 1.917969 9.007812 1.824219 8.988281 1.882812 8.953125 C 2.082031 9.949219 2.917969 10.722656 3.332031 11.152344 L 3.332031 11.921875 C 1.667969 12.128906 0.417969 13.015625 0.417969 13.90625 L 0.417969 14.246094 C 0.417969 14.582031 0.757812 14.582031 1.097656 14.582031 L 8.902344 14.582031 C 9.242188 14.582031 9.582031 14.582031 9.582031 14.246094 L 9.582031 13.90625 C 9.582031 13.074219 8.332031 12.242188 7.082031 11.96875 Z M 7.082031 11.96875 "/>
</g>
</svg>
