<?xml version="1.0" encoding="UTF-8"?>
<svg xmlns="http://www.w3.org/2000/svg" xmlns:xlink="http://www.w3.org/1999/xlink" width="15pt" height="15pt" viewBox="0 0 15 15" version="1.1">
<g id="surface1">
<path style=" stroke:none;fill-rule:nonzero;fill:rgb(88.235294%,90.980392%,92.941176%);fill-opacity:1;" d="M 14.582031 15 L 14.582031 13.542969 C 14.582031 12.503906 13.71875 11.734375 12.703125 11.414062 C 12.535156 11.359375 5.574219 11.433594 5.574219 11.433594 C 4.582031 11.761719 3.75 12.523438 3.75 13.542969 L 3.75 15 Z M 14.582031 15 "/>
<path style=" stroke:none;fill-rule:nonzero;fill:rgb(91.764706%,34.901961%,43.137255%);fill-opacity:1;" d="M 12.417969 11.304688 C 12.417969 11.871094 10.960938 12.316406 9.167969 12.316406 C 7.371094 12.316406 5.917969 11.875 5.917969 11.308594 C 5.917969 11.28125 5.328125 11.292969 5.328125 11.292969 L 5.332031 11.714844 C 5.378906 12.71875 7.078125 13.128906 9.167969 13.128906 C 11.25 13.128906 12.941406 12.707031 13 11.707031 L 13.007812 11.300781 C 13.003906 11.300781 12.417969 11.277344 12.417969 11.304688 Z M 12.417969 11.304688 "/>
<path style=" stroke:none;fill-rule:nonzero;fill:rgb(74.509804%,9.803922%,19.215686%);fill-opacity:1;" d="M 9.167969 9.847656 C 7.046875 9.847656 5.328125 10.488281 5.328125 11.277344 C 5.328125 12.070312 7.046875 12.710938 9.167969 12.710938 C 11.285156 12.710938 13.003906 12.070312 13.003906 11.277344 C 13.003906 10.488281 11.285156 9.847656 9.167969 9.847656 "/>
<path style=" stroke:none;fill-rule:nonzero;fill:rgb(16.078431%,18.431373%,20%);fill-opacity:1;" d="M 9.167969 12.304688 C 7.371094 12.304688 5.917969 11.84375 5.917969 11.277344 C 5.917969 10.710938 7.371094 10.253906 9.167969 10.253906 C 10.960938 10.253906 12.417969 10.710938 12.417969 11.277344 C 12.417969 11.847656 10.960938 12.304688 9.167969 12.304688 "/>
<path style=" stroke:none;fill-rule:nonzero;fill:rgb(58.823529%,23.137255%,13.333333%);fill-opacity:1;" d="M 9.144531 2.113281 C 10.855469 2.113281 13.703125 2.96875 13.703125 6.671875 C 13.703125 10.378906 13.703125 11.234375 12.847656 11.234375 C 11.992188 11.234375 11.121094 10.378906 9.144531 10.378906 C 7.433594 10.378906 6.316406 11.234375 5.4375 11.234375 C 4.484375 11.234375 4.582031 7.8125 4.582031 6.671875 C 4.582031 2.96875 7.433594 2.113281 9.144531 2.113281 "/>
<path style=" stroke:none;fill-rule:nonzero;fill:rgb(83.529412%,67.058824%,53.333333%);fill-opacity:1;" d="M 7.636719 11.257812 C 8.246094 11.703125 8.871094 11.761719 9.167969 11.761719 C 9.460938 11.761719 10.082031 11.703125 10.691406 11.257812 L 10.691406 9.921875 L 7.636719 9.921875 Z M 7.636719 11.257812 "/>
<path style=" stroke:none;fill-rule:nonzero;fill:rgb(80%,60.784314%,47.843137%);fill-opacity:1;" d="M 7.632812 10.492188 C 8.058594 10.972656 8.589844 11.101562 9.164062 11.101562 C 9.738281 11.101562 10.265625 10.972656 10.691406 10.492188 L 10.691406 9.269531 L 7.632812 9.269531 Z M 7.632812 10.492188 "/>
<path style=" stroke:none;fill-rule:nonzero;fill:rgb(83.529412%,67.058824%,53.333333%);fill-opacity:1;" d="M 5.722656 6.546875 C 5.722656 4.117188 7.253906 2.148438 9.144531 2.148438 C 11.03125 2.148438 12.566406 4.117188 12.566406 6.546875 C 12.566406 8.980469 11.03125 10.835938 9.144531 10.835938 C 7.253906 10.835938 5.722656 8.980469 5.722656 6.546875 "/>
<path style=" stroke:none;fill-rule:nonzero;fill:rgb(87.45098%,12.156863%,19.607843%);fill-opacity:1;" d="M 9.144531 9.808594 C 8.472656 9.808594 8.125 9.480469 8.085938 9.441406 C 7.976562 9.328125 7.976562 9.148438 8.085938 9.039062 C 8.199219 8.925781 8.375 8.925781 8.488281 9.035156 C 8.5 9.046875 8.71875 9.238281 9.144531 9.238281 C 9.578125 9.238281 9.792969 9.042969 9.800781 9.035156 C 9.914062 8.929688 10.09375 8.929688 10.203125 9.042969 C 10.308594 9.15625 10.308594 9.332031 10.199219 9.441406 C 10.164062 9.480469 9.8125 9.808594 9.144531 9.808594 "/>
<path style=" stroke:none;fill-rule:nonzero;fill:rgb(58.823529%,23.137255%,13.333333%);fill-opacity:1;" d="M 4.886719 7.917969 C 4.875 7.5 4.867188 7.824219 4.867188 7.722656 C 4.867188 6.296875 5.722656 7.929688 5.722656 6.914062 C 5.722656 5.898438 6.292969 5.796875 6.863281 5.226562 C 7.148438 4.941406 7.71875 4.382812 7.71875 4.382812 C 7.71875 4.382812 9.144531 5.242188 10.285156 5.242188 C 11.421875 5.242188 12.566406 5.816406 12.566406 6.957031 C 12.566406 8.097656 13.421875 6.296875 13.421875 7.722656 C 13.421875 7.824219 13.410156 7.5 13.402344 7.917969 L 13.703125 7.917969 C 13.707031 7.082031 13.707031 7.113281 13.707031 6.582031 C 13.707031 2.875 10.855469 1.496094 9.144531 1.496094 C 7.433594 1.496094 4.582031 2.851562 4.582031 6.558594 C 4.582031 6.890625 4.574219 7.082031 4.585938 7.917969 Z M 4.886719 7.917969 "/>
<path style=" stroke:none;fill-rule:nonzero;fill:rgb(40%,12.941176%,7.45098%);fill-opacity:1;" d="M 7.753906 7.453125 C 7.558594 7.453125 7.402344 7.292969 7.402344 7.101562 L 7.402344 6.746094 C 7.402344 6.554688 7.558594 6.394531 7.753906 6.394531 C 7.945312 6.394531 8.105469 6.554688 8.105469 6.746094 L 8.105469 7.101562 C 8.105469 7.292969 7.945312 7.453125 7.753906 7.453125 M 10.570312 7.453125 C 10.378906 7.453125 10.21875 7.292969 10.21875 7.101562 L 10.21875 6.746094 C 10.21875 6.554688 10.378906 6.394531 10.570312 6.394531 C 10.765625 6.394531 10.925781 6.554688 10.925781 6.746094 L 10.925781 7.101562 C 10.925781 7.292969 10.765625 7.453125 10.570312 7.453125 "/>
<path style=" stroke:none;fill-rule:nonzero;fill:rgb(75.686275%,41.176471%,30.980392%);fill-opacity:1;" d="M 9.515625 8.542969 L 8.8125 8.542969 C 8.714844 8.542969 8.632812 8.460938 8.632812 8.367188 L 8.632812 8.300781 C 8.632812 8.203125 8.714844 8.125 8.8125 8.125 L 9.515625 8.125 C 9.613281 8.125 9.691406 8.203125 9.691406 8.300781 L 9.691406 8.367188 C 9.691406 8.460938 9.613281 8.542969 9.515625 8.542969 "/>
<path style=" stroke:none;fill-rule:nonzero;fill:rgb(33.333333%,67.45098%,93.333333%);fill-opacity:1;" d="M 13.332031 13.75 L 14.582031 13.75 L 14.582031 15 L 13.332031 15 Z M 13.332031 13.75 "/>
<path style=" stroke:none;fill-rule:nonzero;fill:rgb(100%,80%,30.196078%);fill-opacity:1;" d="M 13.75 14.167969 L 14.582031 14.167969 L 14.582031 15 L 13.75 15 Z M 13.75 14.167969 "/>
<path style=" stroke:none;fill-rule:nonzero;fill:rgb(88.235294%,90.980392%,92.941176%);fill-opacity:1;" d="M 10 15 C 9.503906 12.855469 7.480469 11.25 5.0625 11.25 C 2.640625 11.25 0.621094 12.855469 0.121094 15 Z M 10 15 "/>
<path style=" stroke:none;fill-rule:nonzero;fill:rgb(16.078431%,18.431373%,20%);fill-opacity:1;" d="M 9.445312 15 C 8.957031 13.140625 7.183594 11.757812 5.0625 11.757812 C 2.941406 11.757812 1.164062 13.140625 0.675781 15 Z M 9.445312 15 "/>
<path style=" stroke:none;fill-rule:nonzero;fill:rgb(100%,67.45098%,20%);fill-opacity:1;" d="M 9.015625 15 C 8.539062 13.359375 6.949219 12.152344 5.0625 12.152344 C 3.171875 12.152344 1.585938 13.359375 1.105469 15 Z M 9.015625 15 "/>
<path style=" stroke:none;fill-rule:nonzero;fill:rgb(100%,86.27451%,36.470588%);fill-opacity:1;" d="M 7.582031 14.605469 L 7.625 14.578125 C 7.945312 14.382812 8.011719 13.9375 7.75 13.667969 C 7.554688 13.46875 7.335938 13.289062 7.097656 13.140625 C 6.863281 12.996094 6.613281 12.882812 6.351562 12.796875 C 6.007812 12.683594 5.640625 12.890625 5.574219 13.25 C 5.527344 13.527344 5.667969 13.8125 5.933594 13.90625 C 6.292969 14.039062 6.609375 14.253906 6.863281 14.523438 C 7.046875 14.71875 7.351562 14.742188 7.582031 14.605469 "/>
<path style=" stroke:none;fill-rule:nonzero;fill:rgb(57.254902%,40%,80%);fill-opacity:1;" d="M 2.644531 5.941406 L 2 5.703125 L 1.75 4.789062 C 1.71875 4.667969 1.609375 4.582031 1.484375 4.582031 C 1.359375 4.582031 1.246094 4.667969 1.214844 4.789062 L 0.964844 5.703125 L 0.320312 5.941406 C 0.214844 5.984375 0.140625 6.085938 0.140625 6.203125 C 0.140625 6.320312 0.214844 6.421875 0.320312 6.464844 L 0.960938 6.699219 L 1.214844 7.707031 C 1.246094 7.828125 1.355469 7.917969 1.484375 7.917969 C 1.609375 7.917969 1.722656 7.828125 1.753906 7.707031 L 2.003906 6.699219 L 2.644531 6.464844 C 2.753906 6.421875 2.824219 6.320312 2.824219 6.203125 C 2.824219 6.085938 2.753906 5.984375 2.644531 5.941406 "/>
<path style=" stroke:none;fill-rule:nonzero;fill:rgb(36.470588%,67.843137%,92.54902%);fill-opacity:1;" d="M 4.699219 1.929688 L 3.613281 1.527344 L 3.210938 0.441406 C 3.144531 0.261719 2.972656 0.140625 2.777344 0.140625 C 2.585938 0.140625 2.414062 0.261719 2.347656 0.441406 L 1.945312 1.527344 L 0.859375 1.929688 C 0.675781 1.996094 0.558594 2.167969 0.558594 2.363281 C 0.558594 2.554688 0.675781 2.726562 0.859375 2.792969 L 1.945312 3.195312 L 2.347656 4.285156 C 2.414062 4.464844 2.585938 4.582031 2.777344 4.582031 C 2.972656 4.582031 3.144531 4.464844 3.210938 4.285156 L 3.613281 3.195312 L 4.699219 2.792969 C 4.878906 2.726562 5 2.554688 5 2.363281 C 5 2.167969 4.878906 1.996094 4.699219 1.929688 "/>
</g>
</svg>
