<?xml version="1.0" encoding="UTF-8"?>
<svg xmlns="http://www.w3.org/2000/svg" xmlns:xlink="http://www.w3.org/1999/xlink" width="15pt" height="15pt" viewBox="0 0 15 15" version="1.1">
<g id="surface1">
<path style=" stroke:none;fill-rule:nonzero;fill:rgb(80%,83.921569%,86.666667%);fill-opacity:1;" d="M 12.917969 11.488281 C 12.515625 11.335938 12.085938 11.25 11.667969 11.25 L 6.667969 11.25 C 6.25 11.25 5.816406 11.335938 5.417969 11.488281 C 4.496094 11.847656 3.75 12.578125 3.75 13.542969 L 3.75 15 L 14.582031 15 L 14.582031 13.542969 C 14.582031 12.578125 13.835938 11.847656 12.917969 11.488281 Z M 12.917969 11.488281 "/>
<path style=" stroke:none;fill-rule:nonzero;fill:rgb(13.333333%,40%,60%);fill-opacity:1;" d="M 11.667969 11.25 L 11.667969 12.917969 L 6.667969 12.917969 L 6.667969 11.25 C 6.25 11.25 5.816406 11.335938 5.417969 11.488281 L 5.417969 15 L 12.917969 15 L 12.917969 11.488281 C 12.515625 11.335938 12.085938 11.25 11.667969 11.25 Z M 11.667969 11.25 "/>
<path style=" stroke:none;fill-rule:nonzero;fill:rgb(96.078431%,97.254902%,98.039216%);fill-opacity:1;" d="M 12.5 14.0625 C 12.5 13.773438 12.082031 13.542969 11.5625 13.542969 C 11.042969 13.542969 10.625 13.773438 10.625 14.0625 C 10.625 14.351562 11.042969 14.582031 11.5625 14.582031 C 12.082031 14.582031 12.5 14.351562 12.5 14.0625 Z M 12.5 14.0625 "/>
<path style=" stroke:none;fill-rule:nonzero;fill:rgb(37.647059%,20.784314%,16.470588%);fill-opacity:1;" d="M 9.144531 2.117188 C 7.433594 2.117188 4.582031 2.972656 4.582031 6.679688 C 4.582031 7.820312 4.484375 11.238281 5.4375 11.238281 C 6.316406 11.238281 7.433594 10.382812 9.144531 10.382812 C 10.855469 10.382812 11.996094 11.238281 12.851562 11.238281 C 13.707031 11.238281 13.707031 10.382812 13.707031 6.679688 C 13.703125 2.972656 10.855469 2.117188 9.144531 2.117188 Z M 9.144531 2.117188 "/>
<path style=" stroke:none;fill-rule:nonzero;fill:rgb(68.627451%,49.411765%,34.117647%);fill-opacity:1;" d="M 7.636719 11.257812 C 7.917969 12.082031 8.871094 12.707031 9.167969 12.707031 C 9.460938 12.707031 10.417969 12.082031 10.691406 11.257812 L 10.691406 9.921875 L 7.636719 9.921875 Z M 7.636719 11.257812 "/>
<path style=" stroke:none;fill-rule:nonzero;fill:rgb(60.784314%,41.568627%,28.627451%);fill-opacity:1;" d="M 7.632812 10.492188 C 8.058594 10.972656 8.589844 11.101562 9.164062 11.101562 C 9.738281 11.101562 10.265625 10.972656 10.691406 10.492188 L 10.691406 9.269531 L 7.632812 9.269531 Z M 7.632812 10.492188 "/>
<path style=" stroke:none;fill-rule:nonzero;fill:rgb(68.627451%,49.411765%,34.117647%);fill-opacity:1;" d="M 5.722656 6.550781 C 5.722656 4.117188 7.253906 2.148438 9.144531 2.148438 C 11.03125 2.148438 12.5625 4.117188 12.5625 6.550781 C 12.5625 8.980469 11.03125 10.835938 9.144531 10.835938 C 7.253906 10.835938 5.722656 8.980469 5.722656 6.550781 "/>
<path style=" stroke:none;fill-rule:nonzero;fill:rgb(87.45098%,12.156863%,19.607843%);fill-opacity:1;" d="M 9.144531 9.808594 C 8.472656 9.808594 8.125 9.480469 8.085938 9.441406 C 7.976562 9.328125 7.976562 9.148438 8.085938 9.039062 C 8.199219 8.925781 8.375 8.925781 8.488281 9.035156 C 8.5 9.046875 8.714844 9.238281 9.144531 9.238281 C 9.578125 9.238281 9.792969 9.042969 9.800781 9.035156 C 9.914062 8.929688 10.09375 8.929688 10.203125 9.042969 C 10.308594 9.15625 10.308594 9.332031 10.199219 9.441406 C 10.164062 9.480469 9.8125 9.808594 9.144531 9.808594 "/>
<path style=" stroke:none;fill-rule:nonzero;fill:rgb(37.647059%,20.784314%,16.470588%);fill-opacity:1;" d="M 4.886719 7.921875 C 4.875 7.503906 4.867188 7.828125 4.867188 7.726562 C 4.867188 6.300781 5.722656 7.933594 5.722656 6.917969 C 5.722656 5.902344 6.292969 5.800781 6.863281 5.230469 C 7.148438 4.945312 7.71875 4.386719 7.71875 4.386719 C 7.71875 4.386719 9.144531 5.246094 10.285156 5.246094 C 11.421875 5.246094 12.566406 5.820312 12.566406 6.960938 C 12.566406 8.101562 13.421875 6.300781 13.421875 7.726562 C 13.421875 7.828125 13.410156 7.503906 13.402344 7.921875 L 13.703125 7.921875 C 13.707031 7.089844 13.707031 7.121094 13.707031 6.585938 C 13.707031 2.882812 10.855469 2.5 9.144531 2.5 C 7.433594 2.5 4.582031 2.859375 4.582031 6.566406 C 4.582031 6.894531 4.574219 7.089844 4.585938 7.921875 Z M 4.886719 7.921875 "/>
<path style=" stroke:none;fill-rule:nonzero;fill:rgb(68.627451%,49.411765%,34.117647%);fill-opacity:1;" d="M 6.433594 6.640625 C 6.433594 7.242188 6.128906 7.734375 5.753906 7.734375 C 5.375 7.734375 5.070312 7.242188 5.070312 6.640625 C 5.070312 6.035156 5.375 5.546875 5.753906 5.546875 C 6.128906 5.546875 6.433594 6.035156 6.433594 6.640625 M 13.265625 6.640625 C 13.265625 7.242188 12.957031 7.734375 12.582031 7.734375 C 12.203125 7.734375 11.898438 7.242188 11.898438 6.640625 C 11.898438 6.035156 12.203125 5.546875 12.582031 5.546875 C 12.957031 5.546875 13.265625 6.035156 13.265625 6.640625 "/>
<path style=" stroke:none;fill-rule:nonzero;fill:rgb(37.647059%,20.784314%,16.470588%);fill-opacity:1;" d="M 7.753906 7.453125 C 7.558594 7.453125 7.402344 7.292969 7.402344 7.101562 L 7.402344 6.746094 C 7.402344 6.554688 7.558594 6.394531 7.753906 6.394531 C 7.949219 6.394531 8.105469 6.554688 8.105469 6.746094 L 8.105469 7.101562 C 8.105469 7.292969 7.949219 7.453125 7.753906 7.453125 M 10.570312 7.453125 C 10.378906 7.453125 10.21875 7.292969 10.21875 7.101562 L 10.21875 6.746094 C 10.21875 6.554688 10.378906 6.394531 10.570312 6.394531 C 10.765625 6.394531 10.925781 6.554688 10.925781 6.746094 L 10.925781 7.101562 C 10.925781 7.292969 10.765625 7.453125 10.570312 7.453125 "/>
<path style=" stroke:none;fill-rule:nonzero;fill:rgb(56.862745%,35.294118%,20.392157%);fill-opacity:1;" d="M 9.515625 8.542969 L 8.8125 8.542969 C 8.714844 8.542969 8.632812 8.460938 8.632812 8.367188 L 8.632812 8.300781 C 8.632812 8.203125 8.714844 8.125 8.8125 8.125 L 9.515625 8.125 C 9.613281 8.125 9.691406 8.203125 9.691406 8.300781 L 9.691406 8.367188 C 9.691406 8.460938 9.613281 8.542969 9.515625 8.542969 "/>
<path style=" stroke:none;fill-rule:nonzero;fill:rgb(23.137255%,53.333333%,76.470588%);fill-opacity:1;" d="M 12.917969 3.957031 C 12.917969 4.507812 5.417969 4.507812 5.417969 3.957031 C 5.417969 2.480469 5.832031 0.417969 9.167969 0.417969 C 12.082031 0.417969 12.917969 2.480469 12.917969 3.957031 Z M 12.917969 3.957031 "/>
<path style=" stroke:none;fill-rule:nonzero;fill:rgb(13.333333%,40%,60%);fill-opacity:1;" d="M 5.441406 3.957031 C 5.441406 3.957031 5.230469 5.207031 6.066406 5.207031 C 6.480469 5.207031 7.105469 4.375 9.191406 4.375 C 11.273438 4.375 11.898438 5.207031 12.316406 5.207031 C 13.148438 5.207031 12.941406 3.957031 12.941406 3.957031 C 12.941406 3.957031 12.316406 4.167969 9.191406 4.167969 C 6.066406 4.167969 5.441406 3.957031 5.441406 3.957031 Z M 5.441406 3.957031 "/>
<path style=" stroke:none;fill-rule:nonzero;fill:rgb(33.333333%,67.45098%,93.333333%);fill-opacity:1;" d="M 5.417969 3.75 C 5.417969 3.75 5.207031 5 6.042969 5 C 6.457031 5 7.082031 4.167969 9.167969 4.167969 C 11.25 4.167969 11.875 5 12.292969 5 C 13.125 5 12.917969 3.75 12.917969 3.75 C 12.917969 3.75 12.292969 3.957031 9.167969 3.957031 C 6.042969 3.957031 5.417969 3.75 5.417969 3.75 Z M 5.417969 3.75 "/>
<path style=" stroke:none;fill-rule:nonzero;fill:rgb(13.333333%,40%,60%);fill-opacity:1;" d="M 8.542969 0.625 C 8.542969 0.625 8.542969 0 9.167969 0 C 9.792969 0 9.792969 0.625 9.792969 0.625 Z M 8.542969 0.625 "/>
<path style=" stroke:none;fill-rule:nonzero;fill:rgb(40%,45.882353%,49.803922%);fill-opacity:1;" d="M 3.957031 9.847656 C 3.957031 9.097656 3.53125 8.449219 2.914062 8.117188 L 2.917969 9.953125 C 2.917969 10.183594 2.5 10.371094 1.980469 10.375 C 1.464844 10.375 1.042969 10.1875 1.042969 9.957031 L 1.039062 8.121094 C 0.421875 8.457031 0 9.105469 0 9.855469 C 0.00390625 10.726562 0.570312 11.457031 1.355469 11.722656 L 1.355469 15 L 2.605469 15 L 2.605469 11.722656 C 3.390625 11.457031 3.960938 10.722656 3.957031 9.847656 Z M 3.957031 9.847656 "/>
</g>
</svg>
