<?xml version="1.0" encoding="UTF-8"?>
<svg xmlns="http://www.w3.org/2000/svg" xmlns:xlink="http://www.w3.org/1999/xlink" width="15pt" height="15pt" viewBox="0 0 15 15" version="1.1">
<g id="surface1">
<path style=" stroke:none;fill-rule:nonzero;fill:rgb(96.862745%,87.058824%,80.784314%);fill-opacity:1;" d="M 10.835938 0.421875 C 10.332031 0.0585938 9.382812 0.125 9.117188 0.753906 C 8.847656 1.378906 8.777344 2.449219 9.363281 2.53125 C 9.980469 2.617188 10.628906 2.644531 11.027344 2.085938 C 11.429688 1.53125 11.34375 0.785156 10.835938 0.421875 Z M 10.835938 0.421875 "/>
<path style=" stroke:none;fill-rule:nonzero;fill:rgb(96.862745%,87.058824%,80.784314%);fill-opacity:1;" d="M 10.828125 2.207031 C 11.890625 1.453125 9.898438 1.046875 9.898438 1.046875 C 9.519531 0.96875 9.621094 1.652344 9.359375 1.949219 C 9.179688 2.152344 9.652344 2.40625 9.652344 2.40625 C 9.652344 2.40625 9.886719 2.460938 9.828125 2.746094 C 9.8125 2.820312 9.785156 2.902344 9.722656 3.007812 C 9.410156 3.53125 10.082031 4.070312 10.390625 3.546875 C 10.515625 3.339844 10.539062 3.136719 10.550781 2.945312 L 10.550781 2.929688 C 10.570312 2.644531 10.566406 2.390625 10.828125 2.207031 Z M 10.828125 2.207031 "/>
<path style=" stroke:none;fill-rule:nonzero;fill:rgb(16.078431%,18.431373%,20%);fill-opacity:1;" d="M 11.421875 0.8125 C 11.15625 0.28125 10.679688 -0.0898438 9.722656 0.0859375 C 9.332031 0.15625 9.1875 0.0585938 9.121094 0.117188 C 8.796875 0.390625 9.027344 0.847656 9.175781 0.804688 C 9.640625 0.671875 9.988281 0.832031 10.035156 1.027344 C 10.085938 1.222656 9.921875 1.503906 10 1.527344 C 10.203125 1.582031 10.21875 1.375 10.328125 1.28125 C 10.507812 1.125 10.683594 1.285156 10.671875 1.503906 C 10.667969 1.679688 10.558594 1.953125 10.277344 1.933594 C 10.359375 2.386719 10.691406 2.601562 10.691406 2.601562 C 10.691406 2.601562 10.800781 2.679688 11.101562 2.328125 C 11.40625 1.980469 11.683594 1.339844 11.421875 0.8125 Z M 3.425781 11.910156 C 3.425781 11.910156 3.46875 11.859375 3.511719 11.738281 C 3.554688 11.617188 3.574219 11.371094 3.566406 11.332031 C 3.5625 11.292969 3.550781 11.261719 3.507812 11.257812 C 3.472656 11.257812 3.1875 11.292969 3.03125 11.242188 C 2.738281 11.152344 2.691406 10.84375 2.691406 10.84375 C 2.691406 10.84375 2.5 10.878906 2.347656 10.90625 C 2.191406 10.9375 2.003906 10.996094 1.875 11.023438 C 1.761719 11.046875 1.644531 11.035156 1.53125 11.007812 C 1.414062 10.984375 1.328125 10.949219 1.300781 10.941406 C 1.273438 10.933594 1.0625 10.828125 0.976562 11.046875 L 0.953125 11.109375 C 0.953125 11.109375 1.292969 11.410156 1.835938 11.601562 C 2.378906 11.796875 2.519531 11.664062 2.867188 11.789062 C 3.21875 11.914062 3.425781 11.910156 3.425781 11.910156 Z M 3.425781 11.910156 "/>
<path style=" stroke:none;fill-rule:nonzero;fill:rgb(16.078431%,18.431373%,20%);fill-opacity:1;" d="M 2.601562 12.007812 C 2.585938 11.980469 2.582031 11.902344 2.566406 11.886719 C 2.550781 11.871094 2.328125 11.839844 2.222656 11.828125 C 2.117188 11.820312 1.933594 11.796875 1.738281 11.726562 C 1.542969 11.660156 1.308594 11.511719 1.164062 11.414062 C 1.023438 11.320312 0.917969 11.222656 0.894531 11.195312 C 0.875 11.167969 0.886719 11.164062 0.890625 11.152344 C 0.898438 11.140625 0.941406 11.078125 0.941406 11.078125 C 0.941406 11.078125 1.023438 11.167969 1.179688 11.269531 C 1.332031 11.371094 1.492188 11.464844 1.785156 11.566406 C 2.078125 11.671875 2.277344 11.695312 2.445312 11.707031 C 2.652344 11.722656 2.949219 11.765625 3.144531 11.835938 C 3.296875 11.890625 3.421875 11.882812 3.464844 11.886719 C 3.476562 11.886719 3.484375 11.898438 3.480469 11.910156 L 3.386719 12.167969 C 3.378906 12.183594 3.351562 12.21875 3.304688 12.210938 C 3.257812 12.207031 2.617188 12.039062 2.601562 12.007812 Z M 2.601562 12.007812 "/>
<path style=" stroke:none;fill-rule:nonzero;fill:rgb(25.882353%,53.72549%,75.686275%);fill-opacity:1;" d="M 10.457031 7.171875 C 10.484375 7.765625 10.292969 8.386719 9.828125 8.503906 C 9.386719 8.617188 8.558594 8.441406 8.558594 8.441406 C 8.558594 8.441406 8.265625 8.613281 8.335938 8.9375 C 8.375 9.121094 8.441406 9.214844 8.417969 9.234375 C 8.398438 9.25 8.214844 9.226562 8.132812 9.222656 C 7.914062 9.210938 7.675781 9.132812 7.269531 9.019531 C 6.863281 8.90625 6.679688 8.902344 6.238281 8.777344 C 5.746094 8.644531 5.410156 8.429688 5.265625 7.964844 C 5.144531 7.566406 5.382812 7.078125 5.953125 6.867188 C 6.421875 6.695312 7.761719 6.722656 8.261719 6.773438 C 8.761719 6.820312 10.433594 6.652344 10.457031 7.171875 Z M 10.457031 7.171875 "/>
<path style=" stroke:none;fill-rule:nonzero;fill:rgb(25.882353%,53.72549%,75.686275%);fill-opacity:1;" d="M 2.917969 11.34375 C 2.648438 11.285156 2.378906 11.09375 2.328125 10.832031 C 2.886719 10.054688 3.855469 7.691406 3.855469 7.691406 C 4.144531 6.964844 4.488281 6.265625 5.160156 6.367188 C 6.027344 6.5 7.507812 6.796875 7.507812 6.796875 C 8.453125 6.933594 7.984375 7.214844 8.246094 7.59375 C 8.511719 7.96875 7.707031 8.421875 7.085938 8.378906 C 6.003906 8.308594 5.472656 8.191406 4.785156 8.734375 C 4.453125 9.691406 3.921875 10.433594 3.601562 11.402344 C 3.257812 11.503906 3.1875 11.402344 2.917969 11.34375 Z M 2.917969 11.34375 "/>
<path style=" stroke:none;fill-rule:nonzero;fill:rgb(46.666667%,69.803922%,33.333333%);fill-opacity:1;" d="M 10.652344 7.070312 C 10.566406 7.359375 10.589844 7.738281 10.4375 7.640625 C 9.835938 7.238281 8.140625 6.785156 8.140625 6.785156 C 8.160156 6.089844 8.546875 5.132812 8.789062 4.226562 C 9.105469 3.035156 10.066406 2.578125 10.527344 2.855469 C 11.128906 3.214844 11.253906 3.964844 11.070312 5.046875 C 10.886719 6.132812 10.742188 6.785156 10.652344 7.070312 Z M 10.652344 7.070312 "/>
<path style=" stroke:none;fill-rule:nonzero;fill:rgb(40%,45.882353%,49.803922%);fill-opacity:1;" d="M 11.589844 4.421875 L 11.765625 2.234375 C 11.773438 2.121094 11.875 2.035156 11.988281 2.046875 C 12.105469 2.054688 12.191406 2.15625 12.179688 2.269531 L 12.003906 4.453125 C 11.996094 4.566406 11.894531 4.652344 11.777344 4.644531 C 11.664062 4.636719 11.578125 4.535156 11.589844 4.421875 Z M 11.589844 4.421875 "/>
<path style=" stroke:none;fill-rule:nonzero;fill:rgb(16.078431%,18.431373%,20%);fill-opacity:1;" d="M 6.667969 8.75 L 6.667969 9.582031 C 6.667969 9.582031 5.832031 9.582031 5.832031 10.417969 L 5.832031 11.667969 C 5.832031 12.082031 6.25 12.5 6.667969 12.5 L 10.832031 12.5 C 11.25 12.5 11.667969 12.082031 11.667969 11.667969 L 11.667969 9.582031 C 11.667969 9.167969 11.25 8.75 10.832031 8.75 Z M 6.667969 8.75 "/>
<path style=" stroke:none;fill-rule:nonzero;fill:rgb(16.078431%,18.431373%,20%);fill-opacity:1;" d="M 9.566406 9.398438 L 5.460938 8.675781 C 5.050781 8.605469 5.050781 8.605469 5.125 8.195312 C 5.164062 7.96875 5.378906 7.816406 5.605469 7.855469 L 9.710938 8.578125 C 9.933594 8.621094 10.085938 8.835938 10.046875 9.0625 C 9.976562 9.472656 9.976562 9.472656 9.566406 9.398438 Z M 9.566406 9.398438 "/>
<path style=" stroke:none;fill-rule:nonzero;fill:rgb(16.078431%,18.431373%,20%);fill-opacity:1;" d="M 10.515625 7.925781 C 10.433594 8.308594 10.285156 8.6875 9.644531 8.566406 C 9.003906 8.445312 8.902344 9.078125 9.300781 9.1875 C 9.699219 9.300781 10.65625 9.457031 10.933594 9.003906 C 11.210938 8.546875 11.257812 8.113281 11.230469 7.917969 C 11.203125 7.722656 10.574219 7.640625 10.515625 7.925781 Z M 10.515625 7.925781 "/>
<path style=" stroke:none;fill-rule:nonzero;fill:rgb(86.666667%,18.039216%,26.666667%);fill-opacity:1;" d="M 9.765625 9.539062 L 5.253906 8.746094 C 5.140625 8.722656 5.066406 8.617188 5.085938 8.503906 C 5.105469 8.390625 5.214844 8.3125 5.324219 8.332031 L 9.839844 9.128906 C 9.953125 9.148438 10.027344 9.257812 10.007812 9.371094 C 9.988281 9.484375 9.878906 9.558594 9.765625 9.539062 Z M 9.765625 9.539062 "/>
<path style=" stroke:none;fill-rule:nonzero;fill:rgb(16.078431%,18.431373%,20%);fill-opacity:1;" d="M 12.054688 4.015625 L 11.332031 8.121094 C 11.257812 8.53125 11.257812 8.53125 10.847656 8.457031 C 10.625 8.417969 10.472656 8.203125 10.511719 7.976562 L 11.234375 3.871094 C 11.273438 3.648438 11.492188 3.496094 11.71875 3.535156 C 12.128906 3.605469 12.128906 3.605469 12.054688 4.015625 Z M 12.46875 0.898438 L 12.171875 2.574219 C 12.136719 2.777344 12.101562 2.992188 11.691406 2.921875 C 11.464844 2.882812 11.324219 2.625 11.371094 2.339844 L 11.640625 0.835938 C 11.707031 0.59375 11.898438 0.417969 12.125 0.457031 C 12.535156 0.527344 12.503906 0.691406 12.46875 0.898438 Z M 12.46875 0.898438 "/>
<path style=" stroke:none;fill-rule:nonzero;fill:rgb(86.666667%,18.039216%,26.666667%);fill-opacity:1;" d="M 12.253906 3.84375 L 11.457031 8.355469 C 11.4375 8.46875 11.328125 8.546875 11.214844 8.527344 C 11.101562 8.507812 11.027344 8.398438 11.046875 8.285156 L 11.84375 3.769531 C 11.863281 3.660156 11.96875 3.582031 12.082031 3.601562 C 12.195312 3.621094 12.273438 3.730469 12.253906 3.84375 Z M 12.769531 0.738281 L 12.390625 2.894531 C 12.371094 3.007812 12.261719 3.085938 12.148438 3.066406 C 12.035156 3.042969 11.960938 2.9375 11.980469 2.824219 L 12.359375 0.664062 C 12.378906 0.550781 12.488281 0.476562 12.601562 0.496094 C 12.714844 0.515625 12.789062 0.625 12.769531 0.738281 Z M 12.769531 0.738281 "/>
<path style=" stroke:none;fill-rule:nonzero;fill:rgb(16.078431%,18.431373%,20%);fill-opacity:1;" d="M 10.621094 7.683594 L 7.511719 7.136719 C 7.199219 7.082031 7.199219 7.082031 7.253906 6.773438 C 7.285156 6.605469 7.449219 6.492188 7.621094 6.519531 L 10.730469 7.070312 C 10.902344 7.097656 11.015625 7.261719 10.988281 7.429688 C 10.933594 7.738281 10.933594 7.738281 10.621094 7.683594 Z M 10.621094 7.683594 "/>
<path style=" stroke:none;fill-rule:nonzero;fill:rgb(86.666667%,18.039216%,26.666667%);fill-opacity:1;" d="M 9.632812 9.09375 C 10.046875 9.167969 10.867188 9.308594 11.082031 8.078125 C 11.300781 6.847656 11.710938 6.921875 11.492188 8.152344 C 11.277344 9.382812 10.5625 9.679688 9.5625 9.503906 C 8.742188 9.359375 8.8125 8.949219 9.632812 9.09375 Z M 5.332031 8.335938 C 6.152344 8.476562 6.277344 8.925781 5.457031 8.78125 C 5.09375 8.714844 5.046875 8.867188 4.9375 9.179688 C 4.832031 9.472656 4.683594 9.910156 4.460938 10.527344 C 4.296875 10.976562 3.929688 10.777344 4.066406 10.382812 C 4.292969 9.722656 4.507812 9.144531 4.644531 8.78125 C 4.785156 8.40625 4.902344 8.261719 5.332031 8.335938 Z M 5.332031 8.335938 "/>
<path style=" stroke:none;fill-rule:nonzero;fill:rgb(86.666667%,18.039216%,26.666667%);fill-opacity:1;" d="M 4.425781 10.003906 C 4.316406 9.964844 4.195312 10.019531 4.15625 10.128906 L 3.304688 12.476562 C 3.265625 12.585938 3.320312 12.707031 3.425781 12.746094 C 3.535156 12.785156 3.65625 12.726562 3.695312 12.621094 L 4.550781 10.269531 C 4.589844 10.164062 4.53125 10.042969 4.425781 10.003906 Z M 4.425781 10.003906 "/>
<path style=" stroke:none;fill-rule:nonzero;fill:rgb(40%,45.882353%,49.803922%);fill-opacity:1;" d="M 3.425781 12.746094 L 1.859375 12.175781 C 1.753906 12.136719 1.699219 12.015625 1.738281 11.90625 C 1.777344 11.800781 1.894531 11.746094 2.003906 11.785156 L 3.570312 12.351562 C 3.675781 12.390625 3.734375 12.511719 3.695312 12.621094 C 3.65625 12.726562 3.535156 12.785156 3.425781 12.746094 Z M 3.425781 12.746094 "/>
<path style=" stroke:none;fill-rule:nonzero;fill:rgb(86.666667%,18.039216%,26.666667%);fill-opacity:1;" d="M 5.769531 12.859375 L 6.996094 11.628906 C 7.078125 11.550781 7.078125 11.417969 6.996094 11.335938 C 6.917969 11.253906 6.785156 11.253906 6.703125 11.335938 L 5.472656 12.566406 C 5.394531 12.644531 5.394531 12.777344 5.472656 12.859375 C 5.554688 12.941406 5.6875 12.941406 5.769531 12.859375 Z M 13.332031 14.167969 C 13.105469 14.167969 12.917969 13.980469 12.917969 13.75 L 12.917969 12.5 C 12.917969 12.269531 13.105469 12.082031 13.332031 12.082031 C 13.5625 12.082031 13.75 12.269531 13.75 12.5 L 13.75 13.75 C 13.75 13.980469 13.5625 14.167969 13.332031 14.167969 Z M 13.332031 14.167969 "/>
<path style=" stroke:none;fill-rule:nonzero;fill:rgb(86.666667%,18.039216%,26.666667%);fill-opacity:1;" d="M 5.625 14.167969 C 5.394531 14.167969 5.207031 13.980469 5.207031 13.75 L 5.207031 12.5 C 5.207031 12.269531 5.394531 12.082031 5.625 12.082031 C 5.855469 12.082031 6.042969 12.269531 6.042969 12.5 L 6.042969 13.75 C 6.042969 13.980469 5.855469 14.167969 5.625 14.167969 Z M 11.035156 11.664062 L 11.867188 11.664062 C 11.984375 11.664062 12.078125 11.570312 12.078125 11.457031 C 12.078125 11.339844 11.984375 11.246094 11.867188 11.246094 L 11.035156 11.246094 C 10.921875 11.246094 10.828125 11.339844 10.828125 11.457031 C 10.828125 11.570312 10.921875 11.664062 11.035156 11.664062 Z M 11.035156 11.664062 "/>
<path style=" stroke:none;fill-rule:nonzero;fill:rgb(86.666667%,18.039216%,26.666667%);fill-opacity:1;" d="M 12.96875 12.835938 L 11.738281 11.605469 C 11.65625 11.523438 11.65625 11.390625 11.738281 11.3125 C 11.820312 11.230469 11.953125 11.230469 12.035156 11.3125 L 13.261719 12.539062 C 13.34375 12.621094 13.34375 12.753906 13.261719 12.835938 C 13.183594 12.914062 13.050781 12.914062 12.96875 12.835938 Z M 12.96875 12.835938 "/>
<path style=" stroke:none;fill-rule:nonzero;fill:rgb(16.078431%,18.431373%,20%);fill-opacity:1;" d="M 4.863281 6.71875 C 5.171875 6.851562 5.71875 7.109375 5.839844 7.15625 C 5.839844 7.15625 5.894531 6.785156 6.042969 6.785156 C 6.042969 6.785156 6.097656 6.589844 6.136719 6.507812 C 6.171875 6.421875 6.285156 6.449219 6.292969 6.609375 C 6.300781 6.765625 6.253906 6.820312 6.253906 6.820312 C 6.253906 6.820312 6.394531 6.996094 6.3125 7.238281 C 6.3125 7.238281 6.496094 7.265625 6.460938 7.5 C 6.421875 7.730469 6.488281 7.90625 6.320312 7.953125 C 6.152344 8 5.523438 8.175781 5.511719 7.925781 C 5.503906 7.675781 5.347656 7.480469 5.039062 7.296875 C 4.734375 7.109375 4.511719 6.90625 4.546875 6.804688 C 4.585938 6.703125 4.601562 6.609375 4.863281 6.71875 Z M 4.863281 6.71875 "/>
<path style=" stroke:none;fill-rule:nonzero;fill:rgb(86.666667%,18.039216%,26.666667%);fill-opacity:1;" d="M 11.042969 10.417969 L 6.457031 10.417969 C 6.34375 10.417969 6.25 10.324219 6.25 10.207031 C 6.25 10.09375 6.34375 10 6.457031 10 L 11.042969 10 C 11.15625 10 11.25 10.09375 11.25 10.207031 C 11.25 10.324219 11.15625 10.417969 11.042969 10.417969 Z M 11.042969 10.417969 "/>
<path style=" stroke:none;fill-rule:nonzero;fill:rgb(96.862745%,87.058824%,80.784314%);fill-opacity:1;" d="M 9.453125 4.28125 C 9.214844 4.886719 8.984375 5.761719 8.878906 5.765625 C 8.265625 5.792969 7.597656 6.160156 7.210938 6.136719 C 6.929688 6.121094 6.664062 6.066406 6.523438 6.117188 C 6.292969 6.195312 6.039062 6.238281 5.960938 6.378906 C 5.878906 6.523438 6.03125 6.652344 6.390625 6.652344 C 6.65625 6.652344 6.824219 6.738281 7.089844 6.679688 C 7.460938 6.589844 8.75 6.992188 9.449219 6.535156 C 9.683594 6.378906 10.046875 5.753906 10.5 4.589844 C 10.046875 4.394531 9.453125 4.28125 9.453125 4.28125 Z M 9.453125 4.28125 "/>
<path style=" stroke:none;fill-rule:nonzero;fill:rgb(40%,45.882353%,49.803922%);fill-opacity:1;" d="M 10.832031 13.125 C 10.832031 14.160156 9.992188 15 8.957031 15 C 7.921875 15 7.082031 14.160156 7.082031 13.125 C 7.082031 12.089844 7.921875 11.25 8.957031 11.25 C 9.992188 11.25 10.832031 12.089844 10.832031 13.125 Z M 10.832031 13.125 "/>
<path style=" stroke:none;fill-rule:nonzero;fill:rgb(40%,45.882353%,49.803922%);fill-opacity:1;" d="M 6.667969 13.957031 C 6.667969 14.535156 6.199219 15 5.625 15 C 5.050781 15 4.582031 14.535156 4.582031 13.957031 C 4.582031 13.382812 5.050781 12.917969 5.625 12.917969 C 6.199219 12.917969 6.667969 13.382812 6.667969 13.957031 Z M 6.667969 13.957031 "/>
<path style=" stroke:none;fill-rule:nonzero;fill:rgb(40%,45.882353%,49.803922%);fill-opacity:1;" d="M 14.167969 14.167969 C 14.167969 14.625 13.792969 15 13.332031 15 C 12.875 15 12.5 14.625 12.5 14.167969 C 12.5 13.707031 12.875 13.332031 13.332031 13.332031 C 13.792969 13.332031 14.167969 13.707031 14.167969 14.167969 Z M 14.167969 14.167969 "/>
<path style=" stroke:none;fill-rule:nonzero;fill:rgb(80%,83.921569%,86.666667%);fill-opacity:1;" d="M 10 13.125 C 10 13.699219 9.535156 14.167969 8.957031 14.167969 C 8.382812 14.167969 7.917969 13.699219 7.917969 13.125 C 7.917969 12.550781 8.382812 12.082031 8.957031 12.082031 C 9.535156 12.082031 10 12.550781 10 13.125 Z M 10 13.125 "/>
<path style=" stroke:none;fill-rule:nonzero;fill:rgb(80%,83.921569%,86.666667%);fill-opacity:1;" d="M 6.25 13.957031 C 6.25 14.304688 5.96875 14.582031 5.625 14.582031 C 5.28125 14.582031 5 14.304688 5 13.957031 C 5 13.613281 5.28125 13.332031 5.625 13.332031 C 5.96875 13.332031 6.25 13.613281 6.25 13.957031 Z M 6.25 13.957031 "/>
<path style=" stroke:none;fill-rule:nonzero;fill:rgb(16.078431%,18.431373%,20%);fill-opacity:1;" d="M 13.75 14.167969 C 13.75 14.398438 13.5625 14.582031 13.332031 14.582031 C 13.101562 14.582031 12.917969 14.398438 12.917969 14.167969 C 12.917969 13.9375 13.101562 13.75 13.332031 13.75 C 13.5625 13.75 13.75 13.9375 13.75 14.167969 Z M 13.75 14.167969 "/>
<path style=" stroke:none;fill-rule:nonzero;fill:rgb(16.078431%,18.431373%,20%);fill-opacity:1;" d="M 9.375 12.765625 C 9.375 12.878906 9.28125 12.972656 9.167969 12.972656 C 9.050781 12.972656 8.957031 12.878906 8.957031 12.765625 C 8.957031 12.648438 9.050781 12.554688 9.167969 12.554688 C 9.28125 12.554688 9.375 12.648438 9.375 12.765625 Z M 9.375 12.765625 "/>
<path style=" stroke:none;fill-rule:nonzero;fill:rgb(16.078431%,18.431373%,20%);fill-opacity:1;" d="M 8.957031 13.484375 C 8.957031 13.601562 8.863281 13.695312 8.75 13.695312 C 8.636719 13.695312 8.542969 13.601562 8.542969 13.484375 C 8.542969 13.371094 8.636719 13.277344 8.75 13.277344 C 8.863281 13.277344 8.957031 13.371094 8.957031 13.484375 Z M 8.957031 13.484375 "/>
<path style=" stroke:none;fill-rule:nonzero;fill:rgb(16.078431%,18.431373%,20%);fill-opacity:1;" d="M 8.804688 12.917969 C 8.804688 13.03125 8.710938 13.125 8.597656 13.125 C 8.484375 13.125 8.390625 13.03125 8.390625 12.917969 C 8.390625 12.800781 8.484375 12.707031 8.597656 12.707031 C 8.710938 12.707031 8.804688 12.800781 8.804688 12.917969 Z M 8.804688 12.917969 "/>
<path style=" stroke:none;fill-rule:nonzero;fill:rgb(16.078431%,18.431373%,20%);fill-opacity:1;" d="M 9.527344 13.332031 C 9.527344 13.449219 9.433594 13.542969 9.320312 13.542969 C 9.203125 13.542969 9.109375 13.449219 9.109375 13.332031 C 9.109375 13.21875 9.203125 13.125 9.320312 13.125 C 9.433594 13.125 9.527344 13.21875 9.527344 13.332031 Z M 9.527344 13.332031 "/>
<path style=" stroke:none;fill-rule:nonzero;fill:rgb(16.078431%,18.431373%,20%);fill-opacity:1;" d="M 5.9375 13.957031 C 5.9375 14.132812 5.796875 14.269531 5.625 14.269531 C 5.453125 14.269531 5.3125 14.132812 5.3125 13.957031 C 5.3125 13.785156 5.453125 13.644531 5.625 13.644531 C 5.796875 13.644531 5.9375 13.785156 5.9375 13.957031 Z M 5.9375 13.957031 "/>
<path style=" stroke:none;fill-rule:nonzero;fill:rgb(40%,45.882353%,49.803922%);fill-opacity:1;" d="M 13.542969 14.167969 C 13.542969 14.28125 13.449219 14.375 13.332031 14.375 C 13.21875 14.375 13.125 14.28125 13.125 14.167969 C 13.125 14.050781 13.21875 13.957031 13.332031 13.957031 C 13.449219 13.957031 13.542969 14.050781 13.542969 14.167969 Z M 13.542969 14.167969 "/>
</g>
</svg>
