<?xml version="1.0" encoding="UTF-8"?>
<svg xmlns="http://www.w3.org/2000/svg" xmlns:xlink="http://www.w3.org/1999/xlink" width="15pt" height="15pt" viewBox="0 0 15 15" version="1.1">
<g id="surface1">
<path style=" stroke:none;fill-rule:nonzero;fill:rgb(46.666667%,69.803922%,33.333333%);fill-opacity:1;" d="M 12.5 11.667969 L 10.984375 11.667969 L 10.984375 10.121094 L 7.347656 10.121094 L 7.347656 11.667969 L 5.832031 11.667969 C 4.453125 11.667969 3.332031 12.785156 3.332031 14.167969 L 3.332031 15 L 15 15 L 15 14.167969 C 15 12.785156 13.882812 11.667969 12.5 11.667969 Z M 12.5 11.667969 "/>
<path style=" stroke:none;fill-rule:nonzero;fill:rgb(88.627451%,75.686275%,58.823529%);fill-opacity:1;" d="M 7.347656 10.820312 C 7.851562 11.394531 8.480469 11.550781 9.164062 11.550781 C 9.847656 11.550781 10.476562 11.394531 10.984375 10.820312 L 10.984375 9.367188 L 7.347656 9.367188 Z M 7.347656 10.820312 "/>
<path style=" stroke:none;fill-rule:nonzero;fill:rgb(95.294118%,82.352941%,63.529412%);fill-opacity:1;" d="M 6.433594 6.640625 C 6.433594 7.242188 6.128906 7.734375 5.753906 7.734375 C 5.375 7.734375 5.070312 7.242188 5.070312 6.640625 C 5.070312 6.035156 5.375 5.546875 5.753906 5.546875 C 6.128906 5.546875 6.433594 6.035156 6.433594 6.640625 M 13.265625 6.640625 C 13.265625 7.242188 12.957031 7.734375 12.582031 7.734375 C 12.203125 7.734375 11.898438 7.242188 11.898438 6.640625 C 11.898438 6.035156 12.203125 5.546875 12.582031 5.546875 C 12.957031 5.546875 13.265625 6.035156 13.265625 6.640625 "/>
<path style=" stroke:none;fill-rule:nonzero;fill:rgb(95.294118%,82.352941%,63.529412%);fill-opacity:1;" d="M 5.617188 7.066406 C 5.617188 4.738281 7.207031 2.847656 9.167969 2.847656 C 11.128906 2.847656 12.71875 4.738281 12.71875 7.066406 C 12.71875 9.394531 11.128906 11.285156 9.167969 11.285156 C 7.207031 11.285156 5.617188 9.394531 5.617188 7.066406 "/>
<path style=" stroke:none;fill-rule:nonzero;fill:rgb(100%,89.803922%,11.764706%);fill-opacity:1;" d="M 11.050781 8.894531 L 10.523438 8.78125 C 10.355469 8.742188 10.035156 8.75 9.882812 8.75 L 8.347656 8.75 C 8.195312 8.75 7.875 8.742188 7.707031 8.78125 L 7.179688 8.894531 C 7.035156 8.9375 6.949219 9.058594 6.992188 9.203125 C 7.027344 9.320312 7.136719 9.386719 7.253906 9.386719 C 7.277344 9.386719 7.304688 9.375 7.328125 9.367188 L 7.859375 9.214844 C 7.796875 9.292969 7.78125 9.398438 7.828125 9.496094 C 7.878906 9.589844 7.972656 9.644531 8.074219 9.644531 C 8.117188 9.644531 8.15625 9.636719 8.195312 9.617188 L 8.628906 9.398438 C 8.636719 9.488281 8.683594 9.574219 8.773438 9.617188 C 8.8125 9.636719 8.851562 9.644531 8.894531 9.644531 C 8.996094 9.644531 9.089844 9.589844 9.136719 9.492188 L 9.167969 9.4375 L 9.144531 9.492188 C 9.191406 9.589844 9.238281 9.644531 9.339844 9.644531 C 9.378906 9.644531 9.421875 9.636719 9.460938 9.617188 C 9.546875 9.574219 9.59375 9.488281 9.605469 9.398438 L 10.035156 9.617188 C 10.074219 9.636719 10.117188 9.644531 10.15625 9.644531 C 10.257812 9.644531 10.355469 9.589844 10.402344 9.496094 C 10.449219 9.398438 10.433594 9.292969 10.375 9.214844 L 10.902344 9.367188 C 10.925781 9.375 10.953125 9.386719 10.976562 9.386719 C 11.097656 9.386719 11.203125 9.324219 11.238281 9.203125 C 11.28125 9.058594 11.195312 8.9375 11.050781 8.894531 Z M 9.167969 1.449219 C 11.519531 1.449219 12.992188 3.1875 12.992188 4.632812 C 12.992188 6.082031 12.695312 6.660156 12.402344 6.082031 L 11.8125 4.921875 C 11.8125 4.921875 10.050781 4.921875 9.460938 4.34375 C 9.460938 4.34375 10.34375 6.082031 8.578125 4.34375 C 8.578125 4.34375 8.871094 5.503906 7.109375 4.054688 C 7.109375 4.054688 6.226562 4.632812 5.929688 6.082031 C 5.847656 6.484375 5.34375 6.082031 5.34375 4.632812 C 5.34375 3.1875 6.519531 1.449219 9.167969 1.449219 "/>
<path style=" stroke:none;fill-rule:nonzero;fill:rgb(40%,12.941176%,7.45098%);fill-opacity:1;" d="M 7.5 7.082031 C 7.269531 7.082031 7.082031 6.894531 7.082031 6.667969 L 7.082031 6.25 C 7.082031 6.019531 7.269531 5.832031 7.5 5.832031 C 7.730469 5.832031 7.917969 6.019531 7.917969 6.25 L 7.917969 6.667969 C 7.917969 6.894531 7.730469 7.082031 7.5 7.082031 M 10.832031 7.082031 C 10.605469 7.082031 10.417969 6.894531 10.417969 6.667969 L 10.417969 6.25 C 10.417969 6.019531 10.605469 5.832031 10.832031 5.832031 C 11.0625 5.832031 11.25 6.019531 11.25 6.25 L 11.25 6.667969 C 11.25 6.894531 11.0625 7.082031 10.832031 7.082031 "/>
<path style=" stroke:none;fill-rule:nonzero;fill:rgb(75.686275%,41.176471%,30.980392%);fill-opacity:1;" d="M 9.480469 8.230469 L 8.855469 8.230469 C 8.683594 8.230469 8.542969 8.089844 8.542969 7.917969 C 8.542969 7.746094 8.683594 7.605469 8.855469 7.605469 L 9.480469 7.605469 C 9.652344 7.605469 9.792969 7.746094 9.792969 7.917969 C 9.792969 8.089844 9.652344 8.230469 9.480469 8.230469 "/>
<path style=" stroke:none;fill-rule:nonzero;fill:rgb(40%,45.882353%,49.803922%);fill-opacity:1;" d="M 13.757812 2.660156 C 13.574219 1.816406 12.246094 1.039062 10.3125 0.949219 C 10.457031 0.859375 10.589844 0.78125 10.695312 0.75 C 10.996094 0.65625 10.605469 0.367188 10.316406 0.367188 C 10.316406 0.367188 9.859375 0.578125 9.511719 0.957031 C 6.695312 1.101562 4.511719 2.644531 4.582031 3.042969 C 4.65625 3.460938 5.097656 3.039062 5.113281 3.394531 C 5.128906 3.75 5.503906 3.785156 5.503906 3.785156 C 5.503906 3.785156 6.519531 3.617188 8.816406 3.808594 C 11.113281 3.996094 12.359375 4.019531 12.949219 4.175781 C 13.3125 4.273438 13.367188 3.714844 13.367188 3.714844 C 13.367188 3.714844 13.96875 3.644531 13.757812 2.660156 Z M 13.757812 2.660156 "/>
<path style=" stroke:none;fill-rule:nonzero;fill:rgb(85.098039%,61.960784%,50.980392%);fill-opacity:1;" d="M 11.445312 15 C 11.328125 13.390625 9.742188 11.6875 7.429688 10.882812 C 4.636719 9.914062 1.851562 10.628906 1.210938 12.476562 C 0.933594 13.285156 1.105469 14.171875 1.625 15 Z M 11.445312 15 "/>
<path style=" stroke:none;fill-rule:nonzero;fill:rgb(36.078431%,56.862745%,23.137255%);fill-opacity:1;" d="M 8.242188 13.074219 C 8.117188 13.433594 8.394531 13.859375 8.859375 14.019531 C 9.324219 14.179688 9.804688 14.019531 9.925781 13.660156 C 10.050781 13.300781 9.777344 12.878906 9.3125 12.71875 C 8.84375 12.554688 8.367188 12.714844 8.242188 13.074219 "/>
<path style=" stroke:none;fill-rule:nonzero;fill:rgb(13.333333%,40%,60%);fill-opacity:1;" d="M 2.25 13.75 C 2.125 14.109375 2.402344 14.53125 2.867188 14.695312 C 3.332031 14.855469 3.8125 14.695312 3.9375 14.335938 C 4.0625 13.976562 3.785156 13.554688 3.320312 13.390625 C 2.855469 13.230469 2.375 13.390625 2.25 13.75 "/>
<path style=" stroke:none;fill-rule:nonzero;fill:rgb(86.666667%,18.039216%,26.666667%);fill-opacity:1;" d="M 3.019531 11.675781 C 2.894531 12.035156 3.171875 12.457031 3.636719 12.617188 C 4.101562 12.78125 4.582031 12.621094 4.707031 12.261719 C 4.832031 11.902344 4.554688 11.476562 4.089844 11.316406 C 3.625 11.15625 3.144531 11.316406 3.019531 11.675781 "/>
<path style=" stroke:none;fill-rule:nonzero;fill:rgb(100%,80%,30.196078%);fill-opacity:1;" d="M 5.949219 11.667969 C 5.835938 12.03125 6.125 12.445312 6.59375 12.59375 C 7.066406 12.738281 7.539062 12.5625 7.652344 12.199219 C 7.765625 11.835938 7.476562 11.421875 7.003906 11.277344 C 6.535156 11.128906 6.0625 11.304688 5.949219 11.667969 "/>
<path style=" stroke:none;fill-rule:nonzero;fill:rgb(95.294118%,82.352941%,63.529412%);fill-opacity:1;" d="M 0.417969 12.5 C 0.449219 11.996094 0.996094 11.171875 1.667969 11.25 C 2.359375 11.328125 1.71875 12.554688 1.667969 12.917969 C 1.613281 13.28125 1.726562 14.140625 1.25 14.167969 C 0.605469 14.203125 0.359375 13.410156 0.417969 12.5 "/>
</g>
</svg>
