<?xml version="1.0" encoding="UTF-8"?>
<svg xmlns="http://www.w3.org/2000/svg" xmlns:xlink="http://www.w3.org/1999/xlink" width="15pt" height="15pt" viewBox="0 0 15 15" version="1.1">
<g id="surface1">
<path style=" stroke:none;fill-rule:nonzero;fill:rgb(94.901961%,81.960784%,63.137255%);fill-opacity:1;" d="M 13.332031 8.332031 C 13.332031 7.414062 12.867188 6.667969 12.292969 6.667969 C 12.285156 6.667969 12.28125 6.667969 12.277344 6.667969 C 11.648438 4.042969 9.746094 2.136719 7.5 2.136719 C 5.253906 2.136719 3.351562 4.042969 2.722656 6.667969 C 2.71875 6.667969 2.714844 6.667969 2.707031 6.667969 C 2.132812 6.667969 1.667969 7.414062 1.667969 8.332031 C 1.667969 9.210938 2.09375 9.921875 2.628906 9.988281 C 3.140625 12.757812 5.125 14.582031 7.5 14.582031 C 9.875 14.582031 11.859375 12.757812 12.367188 9.988281 C 12.90625 9.921875 13.332031 9.210938 13.332031 8.332031 Z M 13.332031 8.332031 "/>
<path style=" stroke:none;fill-rule:nonzero;fill:rgb(40%,12.941176%,7.45098%);fill-opacity:1;" d="M 5.417969 8.75 C 5.1875 8.75 5 8.5625 5 8.332031 L 5 7.5 C 5 7.269531 5.1875 7.082031 5.417969 7.082031 C 5.648438 7.082031 5.832031 7.269531 5.832031 7.5 L 5.832031 8.332031 C 5.832031 8.5625 5.648438 8.75 5.417969 8.75 Z M 9.582031 8.75 C 9.351562 8.75 9.167969 8.5625 9.167969 8.332031 L 9.167969 7.5 C 9.167969 7.269531 9.351562 7.082031 9.582031 7.082031 C 9.8125 7.082031 10 7.269531 10 7.5 L 10 8.332031 C 10 8.5625 9.8125 8.75 9.582031 8.75 Z M 9.582031 8.75 "/>
<path style=" stroke:none;fill-rule:nonzero;fill:rgb(75.686275%,41.176471%,30.980392%);fill-opacity:1;" d="M 7.5 12.917969 C 5.75 12.917969 5.210938 12.46875 5.121094 12.378906 C 4.960938 12.214844 4.960938 11.953125 5.121094 11.789062 C 5.28125 11.628906 5.53125 11.625 5.695312 11.773438 C 5.730469 11.796875 6.152344 12.082031 7.5 12.082031 C 8.898438 12.082031 9.300781 11.777344 9.308594 11.773438 C 9.46875 11.609375 9.722656 11.617188 9.886719 11.78125 C 10.050781 11.945312 10.039062 12.214844 9.878906 12.378906 C 9.789062 12.46875 9.25 12.917969 7.5 12.917969 Z M 7.917969 10.832031 L 7.082031 10.832031 C 6.851562 10.832031 6.667969 10.648438 6.667969 10.417969 C 6.667969 10.1875 6.851562 10 7.082031 10 L 7.917969 10 C 8.148438 10 8.332031 10.1875 8.332031 10.417969 C 8.332031 10.648438 8.148438 10.832031 7.917969 10.832031 Z M 7.917969 10.832031 "/>
<path style=" stroke:none;fill-rule:nonzero;fill:rgb(88.235294%,90.980392%,92.941176%);fill-opacity:1;" d="M 7.5 0.417969 C 10.832031 0.417969 12.917969 2.917969 12.917969 5 C 12.917969 7.082031 12.5 7.917969 12.082031 7.082031 L 11.25 5.417969 C 11.25 5.417969 8.75 5.417969 7.917969 4.582031 C 7.917969 4.582031 9.167969 7.082031 6.667969 4.582031 C 6.667969 4.582031 7.082031 6.25 4.582031 4.167969 C 4.582031 4.167969 3.332031 5 2.917969 7.082031 C 2.800781 7.660156 2.082031 7.082031 2.082031 5 C 2.082031 2.917969 3.75 0.417969 7.5 0.417969 Z M 7.5 0.417969 "/>
</g>
</svg>
