<?xml version="1.0" encoding="UTF-8"?>
<svg xmlns="http://www.w3.org/2000/svg" xmlns:xlink="http://www.w3.org/1999/xlink" width="15pt" height="15pt" viewBox="0 0 15 15" version="1.1">
<g id="surface1">
<path style=" stroke:none;fill-rule:nonzero;fill:rgb(16.078431%,18.431373%,20%);fill-opacity:1;" d="M 14.578125 8.542969 C 14.832031 8.351562 15 8.050781 15 7.707031 C 15 7.257812 14.714844 6.878906 14.316406 6.734375 C 14.480469 6.550781 14.582031 6.308594 14.582031 6.042969 C 14.582031 5.464844 14.117188 5 13.542969 5 L 13.535156 5 C 13.667969 4.824219 13.75 4.609375 13.75 4.375 C 13.75 3.800781 13.285156 3.332031 12.707031 3.332031 C 12.449219 3.332031 12.21875 3.429688 12.035156 3.585938 C 10.878906 2.171875 9.25 1.25 7.5 1.25 C 5.710938 1.25 4.046875 2.097656 2.882812 3.519531 C 2.714844 3.402344 2.511719 3.332031 2.292969 3.332031 C 1.714844 3.332031 1.25 3.800781 1.25 4.375 C 1.25 4.609375 1.332031 4.824219 1.464844 5 L 1.457031 5 C 0.882812 5 0.417969 5.464844 0.417969 6.042969 C 0.417969 6.308594 0.519531 6.550781 0.683594 6.734375 C 0.285156 6.878906 0 7.257812 0 7.707031 C 0 8.050781 0.167969 8.351562 0.421875 8.542969 C 0.167969 8.730469 0 9.03125 0 9.375 C 0 9.824219 0.285156 10.203125 0.683594 10.351562 C 0.519531 10.535156 0.417969 10.773438 0.417969 11.042969 C 0.417969 11.554688 0.789062 11.980469 1.277344 12.066406 C 1.261719 12.136719 1.25 12.214844 1.25 12.292969 C 1.25 12.867188 1.714844 13.332031 2.292969 13.332031 C 2.558594 13.332031 2.800781 13.230469 2.984375 13.066406 C 3.128906 13.464844 3.507812 13.75 3.957031 13.75 C 4.226562 13.75 4.464844 13.648438 4.648438 13.480469 C 4.796875 13.878906 5.175781 14.167969 5.625 14.167969 C 6.136719 14.167969 6.558594 13.796875 6.648438 13.308594 C 6.929688 13.324219 7.210938 13.332031 7.5 13.332031 C 7.789062 13.332031 8.070312 13.320312 8.351562 13.300781 C 8.433594 13.792969 8.859375 14.167969 9.375 14.167969 C 9.824219 14.167969 10.203125 13.878906 10.351562 13.480469 C 10.535156 13.648438 10.773438 13.75 11.042969 13.75 C 11.492188 13.75 11.871094 13.464844 12.015625 13.066406 C 12.199219 13.230469 12.441406 13.332031 12.707031 13.332031 C 13.285156 13.332031 13.75 12.867188 13.75 12.292969 C 13.75 12.214844 13.738281 12.136719 13.722656 12.066406 C 14.210938 11.980469 14.582031 11.554688 14.582031 11.042969 C 14.582031 10.773438 14.480469 10.535156 14.316406 10.351562 C 14.714844 10.203125 15 9.824219 15 9.375 C 15 9.03125 14.832031 8.730469 14.578125 8.542969 Z M 14.578125 8.542969 "/>
<path style=" stroke:none;fill-rule:nonzero;fill:rgb(96.862745%,87.058824%,80.784314%);fill-opacity:1;" d="M 2.5 7.734375 C 2.5 4.183594 4.738281 1.300781 7.5 1.300781 C 10.261719 1.300781 12.5 4.183594 12.5 7.734375 C 12.5 11.285156 10.261719 14.167969 7.5 14.167969 C 4.738281 14.167969 2.5 11.285156 2.5 7.734375 Z M 2.5 7.734375 "/>
<path style=" stroke:none;fill-rule:nonzero;fill:rgb(87.45098%,12.156863%,19.607843%);fill-opacity:1;" d="M 7.5 12.5 C 6.523438 12.5 6.011719 12.015625 5.957031 11.960938 C 5.792969 11.796875 5.792969 11.535156 5.957031 11.371094 C 6.117188 11.210938 6.378906 11.210938 6.539062 11.367188 C 6.5625 11.386719 6.875 11.667969 7.5 11.667969 C 8.132812 11.667969 8.445312 11.378906 8.460938 11.367188 C 8.625 11.210938 8.886719 11.214844 9.046875 11.378906 C 9.203125 11.542969 9.207031 11.800781 9.042969 11.960938 C 8.988281 12.015625 8.476562 12.5 7.5 12.5 Z M 7.5 12.5 "/>
<path style=" stroke:none;fill-rule:nonzero;fill:rgb(75.686275%,41.176471%,30.980392%);fill-opacity:1;" d="M 7.917969 10.417969 L 7.082031 10.417969 C 6.851562 10.417969 6.667969 10.230469 6.667969 10 C 6.667969 9.769531 6.851562 9.582031 7.082031 9.582031 L 7.917969 9.582031 C 8.148438 9.582031 8.332031 9.769531 8.332031 10 C 8.332031 10.230469 8.148438 10.417969 7.917969 10.417969 Z M 7.917969 10.417969 "/>
<path style=" stroke:none;fill-rule:nonzero;fill:rgb(40%,12.941176%,7.45098%);fill-opacity:1;" d="M 5.417969 9.167969 C 5.1875 9.167969 5 8.980469 5 8.75 L 5 7.917969 C 5 7.6875 5.1875 7.5 5.417969 7.5 C 5.648438 7.5 5.832031 7.6875 5.832031 7.917969 L 5.832031 8.75 C 5.832031 8.980469 5.648438 9.167969 5.417969 9.167969 Z M 9.582031 9.167969 C 9.351562 9.167969 9.167969 8.980469 9.167969 8.75 L 9.167969 7.917969 C 9.167969 7.6875 9.351562 7.5 9.582031 7.5 C 9.8125 7.5 10 7.6875 10 7.917969 L 10 8.75 C 10 8.980469 9.8125 9.167969 9.582031 9.167969 Z M 9.582031 9.167969 "/>
<path style=" stroke:none;fill-rule:nonzero;fill:rgb(16.078431%,18.431373%,20%);fill-opacity:1;" d="M 12.421875 3.90625 C 12.71875 3.679688 12.917969 3.320312 12.917969 2.917969 C 12.917969 2.226562 12.355469 1.667969 11.667969 1.667969 C 11.503906 1.667969 11.347656 1.699219 11.203125 1.757812 C 11.058594 1.226562 10.578125 0.832031 10 0.832031 C 9.777344 0.832031 9.570312 0.898438 9.386719 1 C 9.164062 0.652344 8.777344 0.417969 8.332031 0.417969 C 8.011719 0.417969 7.722656 0.542969 7.5 0.742188 C 7.277344 0.542969 6.988281 0.417969 6.667969 0.417969 C 6.222656 0.417969 5.835938 0.652344 5.613281 1 C 5.429688 0.898438 5.222656 0.832031 5 0.832031 C 4.421875 0.832031 3.941406 1.226562 3.796875 1.757812 C 3.652344 1.699219 3.496094 1.667969 3.332031 1.667969 C 2.644531 1.667969 2.082031 2.226562 2.082031 2.917969 C 2.082031 3.351562 2.304688 3.730469 2.640625 3.957031 C 2.113281 4.71875 1.785156 5.480469 1.613281 5.988281 C 1.144531 7.394531 2.792969 10.746094 2.628906 9.089844 C 2.433594 7.09375 3.144531 5.375 4.589844 4.851562 C 4.628906 5.628906 5.351562 6.25 6.25 6.25 C 6.765625 6.25 7.222656 6.039062 7.53125 5.714844 C 7.671875 6.492188 8.347656 7.082031 9.167969 7.082031 C 9.699219 7.082031 10.164062 6.828125 10.472656 6.441406 C 10.621094 7.050781 11.097656 7.5 11.667969 7.5 C 12.355469 7.5 12.917969 6.847656 12.917969 6.042969 C 12.917969 5.910156 12.898438 5.78125 12.867188 5.660156 C 12.898438 5.585938 12.917969 5.507812 12.917969 5.417969 C 12.917969 5.027344 12.753906 4.480469 12.421875 3.90625 Z M 12.421875 3.90625 "/>
</g>
</svg>
