<?xml version="1.0" encoding="UTF-8"?>
<svg xmlns="http://www.w3.org/2000/svg" xmlns:xlink="http://www.w3.org/1999/xlink" width="15pt" height="15pt" viewBox="0 0 15 15" version="1.1">
<g id="surface1">
<path style=" stroke:none;fill-rule:nonzero;fill:rgb(23.137255%,53.333333%,76.470588%);fill-opacity:1;" d="M 15 15 L 15 14.167969 C 15 12.785156 13.878906 11.667969 12.5 11.667969 L 5.832031 11.667969 C 4.453125 11.667969 3.332031 12.785156 3.332031 14.167969 L 3.332031 15 Z M 15 15 "/>
<path style=" stroke:none;fill-rule:nonzero;fill:rgb(16.078431%,18.431373%,20%);fill-opacity:1;" d="M 9.167969 15 L 6.832031 11.25 L 11.5 11.25 Z M 9.167969 15 "/>
<path style=" stroke:none;fill-rule:nonzero;fill:rgb(100%,86.27451%,36.470588%);fill-opacity:1;" d="M 7.351562 12.515625 C 8.078125 13.042969 8.535156 13.332031 9.167969 13.332031 C 9.796875 13.332031 10.257812 13.042969 10.984375 12.515625 L 10.984375 10.121094 L 7.347656 10.121094 L 7.347656 12.515625 Z M 7.351562 12.515625 "/>
<path style=" stroke:none;fill-rule:nonzero;fill:rgb(33.333333%,67.45098%,93.333333%);fill-opacity:1;" d="M 6.25 11.667969 C 6.25 12.082031 6.667969 12.917969 7.5 13.75 C 8.160156 14.410156 9.167969 15 9.167969 15 C 9.167969 13.722656 8.75 13.332031 8.332031 12.917969 C 7.917969 12.5 7.082031 12.082031 7.082031 11.25 C 7.082031 10.832031 6.25 11.667969 6.25 11.667969 M 12.082031 11.667969 C 12.082031 12.082031 11.667969 12.917969 10.832031 13.75 C 10.175781 14.410156 9.167969 15 9.167969 15 C 9.167969 13.722656 9.582031 13.332031 10 12.917969 C 10.417969 12.5 11.25 12.082031 11.25 11.25 C 11.25 10.832031 12.082031 11.667969 12.082031 11.667969 "/>
<path style=" stroke:none;fill-rule:nonzero;fill:rgb(97.647059%,79.215686%,33.333333%);fill-opacity:1;" d="M 7.347656 10.820312 C 7.851562 11.394531 8.480469 11.550781 9.164062 11.550781 C 9.847656 11.550781 10.476562 11.394531 10.984375 10.820312 L 10.984375 9.367188 L 7.347656 9.367188 Z M 7.347656 10.820312 "/>
<path style=" stroke:none;fill-rule:nonzero;fill:rgb(100%,86.27451%,36.470588%);fill-opacity:1;" d="M 6.433594 6.640625 C 6.433594 7.242188 6.128906 7.734375 5.753906 7.734375 C 5.375 7.734375 5.070312 7.242188 5.070312 6.640625 C 5.070312 6.035156 5.375 5.546875 5.753906 5.546875 C 6.128906 5.546875 6.433594 6.035156 6.433594 6.640625 M 13.265625 6.640625 C 13.265625 7.242188 12.957031 7.734375 12.582031 7.734375 C 12.203125 7.734375 11.898438 7.242188 11.898438 6.640625 C 11.898438 6.035156 12.203125 5.546875 12.582031 5.546875 C 12.957031 5.546875 13.265625 6.035156 13.265625 6.640625 "/>
<path style=" stroke:none;fill-rule:nonzero;fill:rgb(100%,86.27451%,36.470588%);fill-opacity:1;" d="M 5.617188 7.066406 C 5.617188 4.738281 7.207031 2.847656 9.167969 2.847656 C 11.128906 2.847656 12.71875 4.738281 12.71875 7.066406 C 12.71875 9.394531 11.128906 11.285156 9.167969 11.285156 C 7.207031 11.285156 5.617188 9.394531 5.617188 7.066406 "/>
<path style=" stroke:none;fill-rule:nonzero;fill:rgb(75.686275%,41.176471%,30.980392%);fill-opacity:1;" d="M 9.167969 9.917969 C 8.019531 9.917969 7.667969 9.625 7.609375 9.5625 C 7.5 9.457031 7.5 9.285156 7.609375 9.179688 C 7.710938 9.074219 7.878906 9.070312 7.984375 9.167969 C 8.003906 9.183594 8.285156 9.371094 9.167969 9.371094 C 10.082031 9.371094 10.347656 9.167969 10.351562 9.167969 C 10.457031 9.0625 10.625 9.066406 10.730469 9.171875 C 10.839844 9.28125 10.832031 9.457031 10.726562 9.5625 C 10.667969 9.625 10.3125 9.917969 9.167969 9.917969 M 9.480469 8.230469 L 8.855469 8.230469 C 8.683594 8.230469 8.542969 8.089844 8.542969 7.917969 C 8.542969 7.746094 8.683594 7.605469 8.855469 7.605469 L 9.480469 7.605469 C 9.652344 7.605469 9.792969 7.746094 9.792969 7.917969 C 9.792969 8.089844 9.652344 8.230469 9.480469 8.230469 "/>
<path style=" stroke:none;fill-rule:nonzero;fill:rgb(100%,67.45098%,20%);fill-opacity:1;" d="M 9.167969 1.449219 C 11.519531 1.449219 12.992188 3.1875 12.992188 4.632812 C 12.992188 6.082031 12.695312 6.660156 12.402344 6.082031 L 11.8125 4.921875 C 11.8125 4.921875 10.050781 4.921875 9.460938 4.34375 C 9.460938 4.34375 10.34375 6.082031 8.578125 4.34375 C 8.578125 4.34375 8.871094 5.503906 7.109375 4.054688 C 7.109375 4.054688 6.226562 4.632812 5.929688 6.082031 C 5.847656 6.484375 5.34375 6.082031 5.34375 4.632812 C 5.34375 3.1875 6.519531 1.449219 9.167969 1.449219 "/>
<path style=" stroke:none;fill-rule:nonzero;fill:rgb(97.647059%,79.215686%,33.333333%);fill-opacity:1;" d="M 8.75 6.667969 C 8.75 7.53125 8.050781 8.230469 7.1875 8.230469 C 6.324219 8.230469 5.625 7.53125 5.625 6.667969 C 5.625 5.804688 6.324219 5.105469 7.1875 5.105469 C 8.050781 5.105469 8.75 5.804688 8.75 6.667969 Z M 8.75 6.667969 "/>
<path style=" stroke:none;fill-rule:nonzero;fill:rgb(97.647059%,79.215686%,33.333333%);fill-opacity:1;" d="M 12.707031 6.667969 C 12.707031 7.53125 12.007812 8.230469 11.144531 8.230469 C 10.28125 8.230469 9.582031 7.53125 9.582031 6.667969 C 9.582031 5.804688 10.28125 5.105469 11.144531 5.105469 C 12.007812 5.105469 12.707031 5.804688 12.707031 6.667969 Z M 12.707031 6.667969 "/>
<path style=" stroke:none;fill-rule:nonzero;fill:rgb(97.647059%,79.215686%,33.333333%);fill-opacity:1;" d="M 8.125 6.25 L 10.207031 6.25 L 10.207031 7.292969 L 8.125 7.292969 Z M 8.125 6.25 "/>
<path style=" stroke:none;fill-rule:nonzero;fill:rgb(88.235294%,90.980392%,92.941176%);fill-opacity:1;" d="M 8.75 6.457031 C 8.75 7.265625 8.097656 7.917969 7.292969 7.917969 C 6.484375 7.917969 5.832031 7.265625 5.832031 6.457031 C 5.832031 5.652344 6.484375 5 7.292969 5 C 8.097656 5 8.75 5.652344 8.75 6.457031 Z M 8.75 6.457031 "/>
<path style=" stroke:none;fill-rule:nonzero;fill:rgb(88.235294%,90.980392%,92.941176%);fill-opacity:1;" d="M 12.5 6.457031 C 12.5 7.265625 11.847656 7.917969 11.042969 7.917969 C 10.234375 7.917969 9.582031 7.265625 9.582031 6.457031 C 9.582031 5.652344 10.234375 5 11.042969 5 C 11.847656 5 12.5 5.652344 12.5 6.457031 Z M 12.5 6.457031 "/>
<path style=" stroke:none;fill-rule:nonzero;fill:rgb(88.235294%,90.980392%,92.941176%);fill-opacity:1;" d="M 8.125 5.832031 L 10.207031 5.832031 L 10.207031 6.875 L 8.125 6.875 Z M 8.125 5.832031 "/>
<path style=" stroke:none;fill-rule:nonzero;fill:rgb(16.078431%,18.431373%,20%);fill-opacity:1;" d="M 8.332031 6.457031 C 8.332031 7.035156 7.867188 7.5 7.292969 7.5 C 6.714844 7.5 6.25 7.035156 6.25 6.457031 C 6.25 5.882812 6.714844 5.417969 7.292969 5.417969 C 7.867188 5.417969 8.332031 5.882812 8.332031 6.457031 Z M 8.332031 6.457031 "/>
<path style=" stroke:none;fill-rule:nonzero;fill:rgb(16.078431%,18.431373%,20%);fill-opacity:1;" d="M 12.082031 6.457031 C 12.082031 7.035156 11.617188 7.5 11.042969 7.5 C 10.464844 7.5 10 7.035156 10 6.457031 C 10 5.882812 10.464844 5.417969 11.042969 5.417969 C 11.617188 5.417969 12.082031 5.882812 12.082031 6.457031 Z M 12.082031 6.457031 "/>
<path style=" stroke:none;fill-rule:nonzero;fill:rgb(40%,45.882353%,49.803922%);fill-opacity:1;" d="M 2.082031 10 L 1.457031 10.417969 C 1.457031 10.417969 2.082031 11.457031 2.082031 12.917969 L 2.082031 15 L 2.917969 15 L 2.917969 12.917969 C 2.917969 11.042969 2.082031 10 2.082031 10 Z M 2.082031 10 "/>
<path style=" stroke:none;fill-rule:nonzero;fill:rgb(60%,66.666667%,70.980392%);fill-opacity:1;" d="M 2.53125 9.917969 C 2.621094 10.078125 2.5625 10.277344 2.40625 10.363281 L 1.515625 10.855469 C 1.359375 10.941406 1.160156 10.882812 1.074219 10.726562 L 0.886719 10.386719 C 0.800781 10.226562 0.855469 10.027344 1.015625 9.941406 L 1.902344 9.449219 C 2.058594 9.363281 2.257812 9.421875 2.34375 9.578125 Z M 2.53125 9.917969 "/>
<path style=" stroke:none;fill-rule:nonzero;fill:rgb(95.686275%,56.470588%,4.705882%);fill-opacity:1;" d="M 1.453125 9.410156 C 3.199219 8.488281 0.0234375 6.796875 0.0234375 6.796875 C 0.0234375 6.796875 -0.289062 10.332031 1.453125 9.410156 Z M 1.453125 9.410156 "/>
<path style=" stroke:none;fill-rule:nonzero;fill:rgb(100%,86.27451%,36.470588%);fill-opacity:1;" d="M 1.234375 8.902344 C 2.152344 8.417969 0.480469 7.527344 0.480469 7.527344 C 0.480469 7.527344 0.316406 9.386719 1.234375 8.902344 Z M 1.234375 8.902344 "/>
<path style=" stroke:none;fill-rule:nonzero;fill:rgb(23.137255%,53.333333%,76.470588%);fill-opacity:1;" d="M 14.167969 4.582031 C 12.917969 3.75 13.746094 2.847656 12.917969 1.667969 C 12.136719 0.558594 10.832031 0 9.164062 0 C 7.082031 0 6.199219 0.558594 5.417969 1.667969 C 4.585938 2.847656 5.417969 3.75 4.167969 4.582031 C 3.390625 5.101562 6.667969 5.546875 9.167969 5.546875 C 11.667969 5.546875 14.941406 5.101562 14.167969 4.582031 "/>
<path style=" stroke:none;fill-rule:nonzero;fill:rgb(13.333333%,40%,60%);fill-opacity:1;" d="M 8.332031 4.792969 L 8.332031 0.0351562 C 8.1875 0.0507812 8.046875 0.0664062 7.917969 0.0898438 L 7.917969 4.371094 C 7.046875 4.351562 5.78125 4.207031 4.726562 4.015625 C 4.65625 4.140625 4.558594 4.261719 4.421875 4.382812 C 5.636719 4.617188 7.171875 4.792969 8.125 4.792969 Z M 10.207031 4.792969 C 11.21875 4.792969 12.722656 4.628906 13.917969 4.390625 C 13.785156 4.273438 13.683594 4.152344 13.609375 4.027344 C 12.597656 4.214844 11.371094 4.355469 10.417969 4.375 L 10.417969 0.121094 C 10.28125 0.09375 10.140625 0.0742188 10 0.0585938 L 10 4.792969 Z M 10.207031 4.792969 "/>
</g>
</svg>
