<?xml version="1.0" encoding="UTF-8"?>
<svg xmlns="http://www.w3.org/2000/svg" xmlns:xlink="http://www.w3.org/1999/xlink" width="15pt" height="15pt" viewBox="0 0 15 15" version="1.1">
<g id="surface1">
<path style=" stroke:none;fill-rule:nonzero;fill:rgb(23.137255%,53.333333%,76.470588%);fill-opacity:1;" d="M 14.582031 15 L 14.582031 13.542969 C 14.582031 12.160156 13.046875 11.25 11.667969 11.25 L 6.667969 11.25 C 5.285156 11.25 3.75 12.160156 3.75 13.542969 L 3.75 15 Z M 14.582031 15 "/>
<path style=" stroke:none;fill-rule:nonzero;fill:rgb(16.078431%,18.431373%,20%);fill-opacity:1;" d="M 9.167969 15 L 6.667969 11.25 L 11.667969 11.25 Z M 9.167969 15 "/>
<path style=" stroke:none;fill-rule:nonzero;fill:rgb(33.333333%,67.45098%,93.333333%);fill-opacity:1;" d="M 6.042969 11.25 C 6.042969 11.695312 6.667969 12.777344 7.5 13.664062 C 8.160156 14.367188 9.167969 15 9.167969 15 C 9.167969 13.636719 8.75 13.222656 8.332031 12.777344 C 7.917969 12.332031 7.082031 12.140625 7.082031 11.25 C 7.082031 10.804688 6.042969 11.25 6.042969 11.25 M 12.292969 11.25 C 12.292969 11.695312 11.667969 12.777344 10.832031 13.664062 C 10.175781 14.367188 9.167969 15 9.167969 15 C 9.167969 13.636719 9.582031 13.222656 10 12.777344 C 10.417969 12.332031 11.25 12.140625 11.25 11.25 C 11.25 10.804688 12.292969 11.25 12.292969 11.25 "/>
<path style=" stroke:none;fill-rule:nonzero;fill:rgb(58.823529%,23.137255%,13.333333%);fill-opacity:1;" d="M 9.144531 2.113281 C 10.855469 2.113281 13.703125 2.96875 13.703125 6.671875 C 13.703125 10.378906 13.703125 11.234375 12.847656 11.234375 C 11.996094 11.234375 10.855469 10.378906 9.144531 10.378906 C 7.433594 10.378906 6.316406 11.234375 5.4375 11.234375 C 4.484375 11.234375 4.582031 7.8125 4.582031 6.671875 C 4.582031 2.96875 7.433594 2.113281 9.144531 2.113281 "/>
<path style=" stroke:none;fill-rule:nonzero;fill:rgb(83.529412%,67.058824%,53.333333%);fill-opacity:1;" d="M 7.636719 11.257812 C 8.246094 11.703125 8.871094 11.664062 9.167969 11.664062 C 9.460938 11.664062 10.082031 11.703125 10.691406 11.257812 L 10.691406 9.921875 L 7.636719 9.921875 Z M 7.636719 11.257812 "/>
<path style=" stroke:none;fill-rule:nonzero;fill:rgb(80%,60.784314%,47.843137%);fill-opacity:1;" d="M 7.632812 10.492188 C 8.058594 10.972656 8.589844 11.101562 9.164062 11.101562 C 9.738281 11.101562 10.265625 10.972656 10.691406 10.492188 L 10.691406 9.269531 L 7.632812 9.269531 Z M 7.632812 10.492188 "/>
<path style=" stroke:none;fill-rule:nonzero;fill:rgb(83.529412%,67.058824%,53.333333%);fill-opacity:1;" d="M 5.722656 6.550781 C 5.722656 4.117188 7.253906 2.148438 9.144531 2.148438 C 11.03125 2.148438 12.5625 4.117188 12.5625 6.550781 C 12.5625 8.980469 11.03125 10.835938 9.144531 10.835938 C 7.253906 10.835938 5.722656 8.980469 5.722656 6.550781 "/>
<path style=" stroke:none;fill-rule:nonzero;fill:rgb(87.45098%,12.156863%,19.607843%);fill-opacity:1;" d="M 9.144531 9.808594 C 8.472656 9.808594 8.125 9.480469 8.085938 9.441406 C 7.976562 9.328125 7.976562 9.148438 8.085938 9.039062 C 8.199219 8.925781 8.375 8.925781 8.488281 9.035156 C 8.5 9.046875 8.714844 9.238281 9.144531 9.238281 C 9.578125 9.238281 9.792969 9.042969 9.800781 9.035156 C 9.914062 8.929688 10.09375 8.929688 10.203125 9.042969 C 10.308594 9.15625 10.308594 9.332031 10.199219 9.441406 C 10.164062 9.480469 9.8125 9.808594 9.144531 9.808594 "/>
<path style=" stroke:none;fill-rule:nonzero;fill:rgb(75.686275%,41.176471%,30.980392%);fill-opacity:1;" d="M 9.515625 8.542969 L 8.8125 8.542969 C 8.714844 8.542969 8.632812 8.460938 8.632812 8.367188 L 8.632812 8.300781 C 8.632812 8.203125 8.714844 8.125 8.8125 8.125 L 9.515625 8.125 C 9.613281 8.125 9.691406 8.203125 9.691406 8.300781 L 9.691406 8.367188 C 9.691406 8.460938 9.613281 8.542969 9.515625 8.542969 "/>
<path style=" stroke:none;fill-rule:nonzero;fill:rgb(58.823529%,23.137255%,13.333333%);fill-opacity:1;" d="M 4.886719 7.917969 C 4.875 7.5 4.867188 7.824219 4.867188 7.722656 C 4.867188 6.296875 5.722656 7.929688 5.722656 6.914062 C 5.722656 5.898438 6.292969 5.796875 6.863281 5.226562 C 7.148438 4.941406 7.71875 4.382812 7.71875 4.382812 C 7.71875 4.382812 9.144531 5.242188 10.285156 5.242188 C 11.421875 5.242188 12.566406 5.816406 12.566406 6.957031 C 12.566406 8.097656 13.421875 6.296875 13.421875 7.722656 C 13.421875 7.824219 13.410156 7.5 13.402344 7.917969 L 13.703125 7.917969 C 13.707031 7.082031 13.707031 7.113281 13.707031 6.582031 C 13.707031 2.875 10.855469 1.496094 9.144531 1.496094 C 7.433594 1.496094 4.582031 2.851562 4.582031 6.558594 C 4.582031 6.890625 4.574219 7.082031 4.585938 7.917969 Z M 4.886719 7.917969 "/>
<path style=" stroke:none;fill-rule:nonzero;fill:rgb(83.529412%,67.058824%,53.333333%);fill-opacity:1;" d="M 6.433594 6.640625 C 6.433594 7.242188 6.128906 7.734375 5.753906 7.734375 C 5.375 7.734375 5.070312 7.242188 5.070312 6.640625 C 5.070312 6.035156 5.375 5.546875 5.753906 5.546875 C 6.128906 5.546875 6.433594 6.035156 6.433594 6.640625 M 13.265625 6.640625 C 13.265625 7.242188 12.957031 7.734375 12.582031 7.734375 C 12.203125 7.734375 11.898438 7.242188 11.898438 6.640625 C 11.898438 6.035156 12.203125 5.546875 12.582031 5.546875 C 12.957031 5.546875 13.265625 6.035156 13.265625 6.640625 "/>
<path style=" stroke:none;fill-rule:nonzero;fill:rgb(80%,60.784314%,47.843137%);fill-opacity:1;" d="M 8.75 6.667969 C 8.75 7.53125 8.050781 8.230469 7.1875 8.230469 C 6.324219 8.230469 5.625 7.53125 5.625 6.667969 C 5.625 5.804688 6.324219 5.105469 7.1875 5.105469 C 8.050781 5.105469 8.75 5.804688 8.75 6.667969 Z M 8.75 6.667969 "/>
<path style=" stroke:none;fill-rule:nonzero;fill:rgb(80%,60.784314%,47.843137%);fill-opacity:1;" d="M 12.707031 6.667969 C 12.707031 7.53125 12.007812 8.230469 11.144531 8.230469 C 10.28125 8.230469 9.582031 7.53125 9.582031 6.667969 C 9.582031 5.804688 10.28125 5.105469 11.144531 5.105469 C 12.007812 5.105469 12.707031 5.804688 12.707031 6.667969 Z M 12.707031 6.667969 "/>
<path style=" stroke:none;fill-rule:nonzero;fill:rgb(80%,60.784314%,47.843137%);fill-opacity:1;" d="M 8.125 6.25 L 10.207031 6.25 L 10.207031 7.292969 L 8.125 7.292969 Z M 8.125 6.25 "/>
<path style=" stroke:none;fill-rule:nonzero;fill:rgb(88.235294%,90.980392%,92.941176%);fill-opacity:1;" d="M 8.75 6.457031 C 8.75 7.265625 8.097656 7.917969 7.292969 7.917969 C 6.484375 7.917969 5.832031 7.265625 5.832031 6.457031 C 5.832031 5.652344 6.484375 5 7.292969 5 C 8.097656 5 8.75 5.652344 8.75 6.457031 Z M 8.75 6.457031 "/>
<path style=" stroke:none;fill-rule:nonzero;fill:rgb(88.235294%,90.980392%,92.941176%);fill-opacity:1;" d="M 12.5 6.457031 C 12.5 7.265625 11.847656 7.917969 11.042969 7.917969 C 10.234375 7.917969 9.582031 7.265625 9.582031 6.457031 C 9.582031 5.652344 10.234375 5 11.042969 5 C 11.847656 5 12.5 5.652344 12.5 6.457031 Z M 12.5 6.457031 "/>
<path style=" stroke:none;fill-rule:nonzero;fill:rgb(88.235294%,90.980392%,92.941176%);fill-opacity:1;" d="M 8.125 5.832031 L 10.207031 5.832031 L 10.207031 6.875 L 8.125 6.875 Z M 8.125 5.832031 "/>
<path style=" stroke:none;fill-rule:nonzero;fill:rgb(16.078431%,18.431373%,20%);fill-opacity:1;" d="M 8.332031 6.457031 C 8.332031 7.035156 7.867188 7.5 7.292969 7.5 C 6.714844 7.5 6.25 7.035156 6.25 6.457031 C 6.25 5.882812 6.714844 5.417969 7.292969 5.417969 C 7.867188 5.417969 8.332031 5.882812 8.332031 6.457031 Z M 8.332031 6.457031 "/>
<path style=" stroke:none;fill-rule:nonzero;fill:rgb(16.078431%,18.431373%,20%);fill-opacity:1;" d="M 12.082031 6.457031 C 12.082031 7.035156 11.617188 7.5 11.042969 7.5 C 10.464844 7.5 10 7.035156 10 6.457031 C 10 5.882812 10.464844 5.417969 11.042969 5.417969 C 11.617188 5.417969 12.082031 5.882812 12.082031 6.457031 Z M 12.082031 6.457031 "/>
<path style=" stroke:none;fill-rule:nonzero;fill:rgb(40%,45.882353%,49.803922%);fill-opacity:1;" d="M 2.082031 10 L 1.457031 10.417969 C 1.457031 10.417969 2.082031 11.457031 2.082031 12.917969 L 2.082031 15 L 2.917969 15 L 2.917969 12.917969 C 2.917969 11.042969 2.082031 10 2.082031 10 Z M 2.082031 10 "/>
<path style=" stroke:none;fill-rule:nonzero;fill:rgb(60%,66.666667%,70.980392%);fill-opacity:1;" d="M 2.53125 9.917969 C 2.621094 10.078125 2.5625 10.277344 2.40625 10.363281 L 1.515625 10.855469 C 1.359375 10.941406 1.160156 10.882812 1.074219 10.726562 L 0.886719 10.386719 C 0.800781 10.226562 0.855469 10.027344 1.015625 9.941406 L 1.902344 9.449219 C 2.058594 9.363281 2.257812 9.421875 2.34375 9.578125 Z M 2.53125 9.917969 "/>
<path style=" stroke:none;fill-rule:nonzero;fill:rgb(95.686275%,56.470588%,4.705882%);fill-opacity:1;" d="M 1.453125 9.410156 C 3.199219 8.488281 0.0234375 6.796875 0.0234375 6.796875 C 0.0234375 6.796875 -0.289062 10.332031 1.453125 9.410156 Z M 1.453125 9.410156 "/>
<path style=" stroke:none;fill-rule:nonzero;fill:rgb(100%,86.27451%,36.470588%);fill-opacity:1;" d="M 1.234375 8.902344 C 2.152344 8.417969 0.480469 7.527344 0.480469 7.527344 C 0.480469 7.527344 0.316406 9.386719 1.234375 8.902344 Z M 1.234375 8.902344 "/>
<path style=" stroke:none;fill-rule:nonzero;fill:rgb(23.137255%,53.333333%,76.470588%);fill-opacity:1;" d="M 14.167969 4.582031 C 12.917969 3.75 13.746094 2.847656 12.917969 1.667969 C 12.136719 0.558594 10.832031 0 9.164062 0 C 7.082031 0 6.199219 0.558594 5.417969 1.667969 C 4.585938 2.847656 5.417969 3.75 4.167969 4.582031 C 3.390625 5.101562 6.667969 5.546875 9.167969 5.546875 C 11.667969 5.546875 14.941406 5.101562 14.167969 4.582031 "/>
<path style=" stroke:none;fill-rule:nonzero;fill:rgb(13.333333%,40%,60%);fill-opacity:1;" d="M 8.332031 4.792969 L 8.332031 0.0351562 C 8.1875 0.0507812 8.046875 0.0664062 7.917969 0.0898438 L 7.917969 4.371094 C 7.046875 4.351562 5.78125 4.207031 4.726562 4.015625 C 4.65625 4.140625 4.558594 4.261719 4.421875 4.382812 C 5.636719 4.617188 7.171875 4.792969 8.125 4.792969 Z M 10.207031 4.792969 C 11.21875 4.792969 12.722656 4.628906 13.917969 4.390625 C 13.785156 4.273438 13.683594 4.152344 13.609375 4.027344 C 12.597656 4.214844 11.371094 4.355469 10.417969 4.375 L 10.417969 0.121094 C 10.28125 0.09375 10.140625 0.0742188 10 0.0585938 L 10 4.792969 Z M 10.207031 4.792969 "/>
</g>
</svg>
