<?xml version="1.0" encoding="UTF-8"?>
<svg xmlns="http://www.w3.org/2000/svg" xmlns:xlink="http://www.w3.org/1999/xlink" width="15pt" height="15pt" viewBox="0 0 15 15" version="1.1">
<g id="surface1">
<path style=" stroke:none;fill-rule:nonzero;fill:rgb(58.823529%,23.137255%,13.333333%);fill-opacity:1;" d="M 12.484375 9.621094 C 14.167969 11.25 14.183594 14.175781 13.757812 14.175781 C 13.332031 14.175781 12.042969 13.402344 11.230469 12.535156 C 10.417969 11.667969 10.5 9.710938 10.5 9.710938 L 11.160156 7.910156 C 11.160156 7.910156 10.800781 7.988281 12.484375 9.621094 Z M 12.484375 9.621094 "/>
<path style=" stroke:none;fill-rule:nonzero;fill:rgb(58.823529%,23.137255%,13.333333%);fill-opacity:1;" d="M 11.234375 9.621094 C 12.917969 11.25 12.933594 14.175781 12.507812 14.175781 C 12.082031 14.175781 10.792969 13.402344 9.980469 12.535156 C 9.167969 11.667969 9.25 9.710938 9.25 9.710938 L 9.910156 7.910156 C 9.910156 7.910156 9.550781 7.988281 11.234375 9.621094 Z M 1.25 14.167969 C 0.832031 14.167969 0.832031 11.25 2.5 9.582031 C 4.167969 7.917969 3.75 7.917969 3.75 7.917969 L 4.582031 9.582031 C 4.582031 9.582031 4.582031 11.667969 3.75 12.5 C 2.917969 13.332031 1.667969 14.167969 1.25 14.167969 Z M 1.25 14.167969 "/>
<path style=" stroke:none;fill-rule:nonzero;fill:rgb(58.823529%,23.137255%,13.333333%);fill-opacity:1;" d="M 2.5 14.167969 C 2.082031 14.167969 2.082031 11.25 3.75 9.582031 C 5.417969 7.917969 5 7.917969 5 7.917969 L 5.832031 9.582031 C 5.832031 9.582031 5.832031 11.667969 5 12.5 C 4.167969 13.332031 2.917969 14.167969 2.5 14.167969 Z M 2.5 14.167969 "/>
<path style=" stroke:none;fill-rule:nonzero;fill:rgb(83.529412%,67.058824%,53.333333%);fill-opacity:1;" d="M 2.878906 7.648438 C 2.644531 6.757812 2 6.15625 1.441406 6.308594 C 0.886719 6.457031 0.628906 7.296875 0.867188 8.1875 C 1.105469 9.074219 1.75 9.675781 2.304688 9.527344 C 2.863281 9.378906 3.121094 8.535156 2.878906 7.648438 Z M 14.132812 8.1875 C 14.371094 7.296875 14.113281 6.457031 13.554688 6.304688 C 13 6.15625 12.355469 6.757812 12.121094 7.648438 C 11.878906 8.535156 12.136719 9.378906 12.695312 9.527344 C 13.25 9.675781 13.894531 9.074219 14.132812 8.1875 Z M 14.132812 8.1875 "/>
<path style=" stroke:none;fill-rule:nonzero;fill:rgb(83.529412%,67.058824%,53.333333%);fill-opacity:1;" d="M 12.917969 7.917969 C 12.917969 4.003906 10.492188 1.25 7.5 1.25 C 4.507812 1.25 2.082031 4.003906 2.082031 7.917969 C 2.082031 11.828125 4.507812 14.167969 7.5 14.167969 C 10.492188 14.167969 12.917969 11.828125 12.917969 7.917969 Z M 12.917969 7.917969 "/>
<path style=" stroke:none;fill-rule:nonzero;fill:rgb(87.45098%,12.156863%,19.607843%);fill-opacity:1;" d="M 7.5 11.519531 C 6.492188 11.519531 5.71875 11.234375 5.6875 11.222656 C 5.472656 11.140625 5.363281 10.902344 5.441406 10.6875 C 5.523438 10.472656 5.765625 10.363281 5.980469 10.441406 C 5.984375 10.445312 6.648438 10.6875 7.5 10.6875 C 8.351562 10.6875 9.015625 10.445312 9.019531 10.441406 C 9.234375 10.363281 9.476562 10.472656 9.554688 10.6875 C 9.636719 10.902344 9.527344 11.140625 9.3125 11.222656 C 9.28125 11.234375 8.507812 11.519531 7.5 11.519531 Z M 7.5 11.519531 "/>
<path style=" stroke:none;fill-rule:nonzero;fill:rgb(75.686275%,41.176471%,30.980392%);fill-opacity:1;" d="M 7.917969 9.582031 L 7.082031 9.582031 C 6.851562 9.582031 6.667969 9.398438 6.667969 9.167969 C 6.667969 8.9375 6.851562 8.75 7.082031 8.75 L 7.917969 8.75 C 8.148438 8.75 8.332031 8.9375 8.332031 9.167969 C 8.332031 9.398438 8.148438 9.582031 7.917969 9.582031 Z M 7.917969 9.582031 "/>
<path style=" stroke:none;fill-rule:nonzero;fill:rgb(40%,12.941176%,7.45098%);fill-opacity:1;" d="M 5 8.332031 C 4.769531 8.332031 4.582031 8.148438 4.582031 7.917969 L 4.582031 7.082031 C 4.582031 6.851562 4.769531 6.667969 5 6.667969 C 5.230469 6.667969 5.417969 6.851562 5.417969 7.082031 L 5.417969 7.917969 C 5.417969 8.148438 5.230469 8.332031 5 8.332031 Z M 10 8.332031 C 9.769531 8.332031 9.582031 8.148438 9.582031 7.917969 L 9.582031 7.082031 C 9.582031 6.851562 9.769531 6.667969 10 6.667969 C 10.230469 6.667969 10.417969 6.851562 10.417969 7.082031 L 10.417969 7.917969 C 10.417969 8.148438 10.230469 8.332031 10 8.332031 Z M 10 8.332031 "/>
<path style=" stroke:none;fill-rule:nonzero;fill:rgb(58.823529%,23.137255%,13.333333%);fill-opacity:1;" d="M 13.332031 4.167969 C 12.5 1.25 10.417969 0.417969 9.167969 0.417969 C 8.332031 0.417969 7.5 1.25 7.5 1.25 C 7.5 1.25 6.667969 0.417969 5.832031 0.417969 C 4.582031 0.417969 2.5 1.25 1.667969 4.167969 C 0.980469 6.570312 2.082031 8.75 2.082031 8.75 C 2.082031 7.5 2.917969 5 5 5 C 7.082031 5 7.5 3.332031 7.5 3.332031 C 7.5 3.332031 7.828125 5 9.910156 5 C 11.996094 5 12.917969 7.5 12.917969 8.75 C 12.917969 8.75 14.019531 6.570312 13.332031 4.167969 Z M 13.332031 4.167969 "/>
</g>
</svg>
