<?xml version="1.0" encoding="UTF-8"?>
<svg xmlns="http://www.w3.org/2000/svg" xmlns:xlink="http://www.w3.org/1999/xlink" width="15pt" height="15pt" viewBox="0 0 15 15" version="1.1">
<g id="surface1">
<path style=" stroke:none;fill-rule:nonzero;fill:rgb(80%,83.921569%,86.27451%);fill-opacity:1;" d="M 12.5 10.832031 C 12.5 11.753906 11.753906 12.5 10.832031 12.5 L 1.667969 12.5 C 0.746094 12.5 0 11.753906 0 10.832031 L 0 1.667969 C 0 0.746094 0.746094 0 1.667969 0 L 10.832031 0 C 11.753906 0 12.5 0.746094 12.5 1.667969 Z M 12.5 10.832031 "/>
<path style=" stroke:none;fill-rule:nonzero;fill:rgb(96.078431%,97.254902%,98.039216%);fill-opacity:1;" d="M 11.667969 10.832031 C 11.667969 11.292969 11.292969 11.667969 10.832031 11.667969 L 1.667969 11.667969 C 1.207031 11.667969 0.832031 11.292969 0.832031 10.832031 L 0.832031 1.667969 C 0.832031 1.207031 1.207031 0.832031 1.667969 0.832031 L 10.832031 0.832031 C 11.292969 0.832031 11.667969 1.207031 11.667969 1.667969 Z M 11.667969 10.832031 "/>
<path style=" stroke:none;fill-rule:nonzero;fill:rgb(31.372549%,64.705882%,90.196078%);fill-opacity:1;" d="M 2.5 10.832031 C 2.269531 10.832031 2.082031 10.648438 2.082031 10.417969 L 2.082031 5.417969 C 2.082031 5.1875 2.269531 5 2.5 5 C 2.730469 5 2.917969 5.1875 2.917969 5.417969 L 2.917969 10.417969 C 2.917969 10.648438 2.730469 10.832031 2.5 10.832031 Z M 2.5 10.832031 "/>
<path style=" stroke:none;fill-rule:nonzero;fill:rgb(46.666667%,69.803922%,33.333333%);fill-opacity:1;" d="M 4.167969 10.832031 C 3.9375 10.832031 3.75 10.648438 3.75 10.417969 L 3.75 3.332031 C 3.75 3.101562 3.9375 2.917969 4.167969 2.917969 C 4.398438 2.917969 4.582031 3.101562 4.582031 3.332031 L 4.582031 10.417969 C 4.582031 10.648438 4.398438 10.832031 4.167969 10.832031 Z M 4.167969 10.832031 "/>
<path style=" stroke:none;fill-rule:nonzero;fill:rgb(86.666667%,18.431373%,27.058824%);fill-opacity:1;" d="M 5.832031 10.832031 C 5.601562 10.832031 5.417969 10.648438 5.417969 10.417969 L 5.417969 7.5 C 5.417969 7.269531 5.601562 7.082031 5.832031 7.082031 C 6.0625 7.082031 6.25 7.269531 6.25 7.5 L 6.25 10.417969 C 6.25 10.648438 6.0625 10.832031 5.832031 10.832031 Z M 5.832031 10.832031 "/>
<path style=" stroke:none;fill-rule:nonzero;fill:rgb(13.333333%,40.392157%,59.607843%);fill-opacity:1;" d="M 15 15 L 15 14.167969 C 15 12.785156 13.882812 11.667969 12.5 11.667969 L 5.832031 11.667969 C 4.453125 11.667969 3.332031 12.785156 3.332031 14.167969 L 3.332031 15 Z M 15 15 "/>
<path style=" stroke:none;fill-rule:nonzero;fill:rgb(22.745098%,52.941176%,76.078431%);fill-opacity:1;" d="M 6.945312 15 L 8.417969 15 L 7.082031 11.667969 L 6.25 11.667969 L 5.832031 14.167969 L 7.082031 14.582031 Z M 11.390625 15 L 9.917969 15 L 11.25 11.667969 L 12.082031 11.667969 L 12.5 14.167969 L 11.25 14.582031 Z M 11.390625 15 "/>
<path style=" stroke:none;fill-rule:nonzero;fill:rgb(68.235294%,49.411765%,34.117647%);fill-opacity:1;" d="M 7.351562 11.707031 C 8.078125 12.238281 8.539062 12.554688 9.171875 12.554688 C 9.800781 12.554688 10.257812 12.234375 10.984375 11.707031 L 10.984375 10.121094 L 7.351562 10.121094 Z M 7.351562 11.707031 "/>
<path style=" stroke:none;fill-rule:nonzero;fill:rgb(60.392157%,41.568627%,29.019608%);fill-opacity:1;" d="M 7.347656 10.820312 C 7.851562 11.394531 8.480469 11.550781 9.164062 11.550781 C 9.847656 11.550781 10.476562 11.394531 10.984375 10.820312 L 10.984375 9.367188 L 7.347656 9.367188 Z M 7.347656 10.820312 "/>
<path style=" stroke:none;fill-rule:nonzero;fill:rgb(68.235294%,49.411765%,34.117647%);fill-opacity:1;" d="M 6.433594 6.640625 C 6.433594 7.242188 6.128906 7.734375 5.753906 7.734375 C 5.375 7.734375 5.070312 7.242188 5.070312 6.640625 C 5.070312 6.035156 5.375 5.546875 5.753906 5.546875 C 6.128906 5.546875 6.433594 6.035156 6.433594 6.640625 M 13.265625 6.640625 C 13.265625 7.242188 12.957031 7.734375 12.582031 7.734375 C 12.203125 7.734375 11.898438 7.242188 11.898438 6.640625 C 11.898438 6.035156 12.203125 5.546875 12.582031 5.546875 C 12.957031 5.546875 13.265625 6.035156 13.265625 6.640625 "/>
<path style=" stroke:none;fill-rule:nonzero;fill:rgb(68.235294%,49.411765%,34.117647%);fill-opacity:1;" d="M 5.617188 7.066406 C 5.617188 4.738281 7.207031 2.847656 9.167969 2.847656 C 11.128906 2.847656 12.71875 4.738281 12.71875 7.066406 C 12.71875 9.394531 11.128906 11.285156 9.167969 11.285156 C 7.207031 11.285156 5.617188 9.394531 5.617188 7.066406 "/>
<path style=" stroke:none;fill-rule:nonzero;fill:rgb(56.862745%,35.686275%,20.392157%);fill-opacity:1;" d="M 9.167969 9.917969 C 8.019531 9.917969 7.667969 9.625 7.609375 9.5625 C 7.5 9.457031 7.5 9.285156 7.609375 9.179688 C 7.710938 9.074219 7.878906 9.070312 7.984375 9.167969 C 8.003906 9.183594 8.285156 9.371094 9.167969 9.371094 C 10.082031 9.371094 10.347656 9.167969 10.351562 9.167969 C 10.457031 9.0625 10.625 9.066406 10.730469 9.171875 C 10.839844 9.28125 10.832031 9.457031 10.726562 9.5625 C 10.667969 9.625 10.3125 9.917969 9.167969 9.917969 M 9.480469 8.230469 L 8.855469 8.230469 C 8.683594 8.230469 8.542969 8.089844 8.542969 7.917969 C 8.542969 7.746094 8.683594 7.605469 8.855469 7.605469 L 9.480469 7.605469 C 9.652344 7.605469 9.792969 7.746094 9.792969 7.917969 C 9.792969 8.089844 9.652344 8.230469 9.480469 8.230469 "/>
<path style=" stroke:none;fill-rule:nonzero;fill:rgb(37.647059%,20.784314%,16.470588%);fill-opacity:1;" d="M 9.167969 1.449219 C 11.519531 1.449219 12.992188 3.1875 12.992188 4.632812 C 12.992188 6.082031 12.695312 6.660156 12.402344 6.082031 L 11.8125 4.921875 C 11.8125 4.921875 10.050781 4.921875 9.460938 4.34375 C 9.460938 4.34375 10.34375 6.082031 8.578125 4.34375 C 8.578125 4.34375 8.871094 5.503906 7.109375 4.054688 C 7.109375 4.054688 6.226562 4.632812 5.929688 6.082031 C 5.847656 6.484375 5.34375 6.082031 5.34375 4.632812 C 5.34375 3.1875 6.519531 1.449219 9.167969 1.449219 "/>
<path style=" stroke:none;fill-rule:nonzero;fill:rgb(40%,13.333333%,7.45098%);fill-opacity:1;" d="M 10.832031 7.082031 C 10.605469 7.082031 10.417969 6.894531 10.417969 6.667969 L 10.417969 6.25 C 10.417969 6.019531 10.605469 5.832031 10.832031 5.832031 C 11.0625 5.832031 11.25 6.019531 11.25 6.25 L 11.25 6.667969 C 11.25 6.894531 11.0625 7.082031 10.832031 7.082031 M 7.5 7.082031 C 7.269531 7.082031 7.082031 6.894531 7.082031 6.667969 L 7.082031 6.25 C 7.082031 6.019531 7.269531 5.832031 7.5 5.832031 C 7.730469 5.832031 7.917969 6.019531 7.917969 6.25 L 7.917969 6.667969 C 7.917969 6.894531 7.730469 7.082031 7.5 7.082031 "/>
<path style=" stroke:none;fill-rule:nonzero;fill:rgb(80%,83.921569%,86.27451%);fill-opacity:1;" d="M 8.527344 15 L 10 15 L 10.832031 13.332031 L 9.171875 12.554688 L 7.5 13.332031 L 8.332031 15 Z M 8.527344 15 "/>
<path style=" stroke:none;fill-rule:nonzero;fill:rgb(62.352941%,11.372549%,13.333333%);fill-opacity:1;" d="M 9.179688 14.148438 C 9.488281 14.148438 9.699219 14.574219 9.832031 15 L 10.058594 15 C 9.894531 14.472656 9.707031 13.984375 9.707031 13.984375 C 9.707031 13.984375 9.863281 13.722656 9.929688 13.605469 C 10.007812 13.46875 10.117188 12.953125 10.117188 12.953125 L 9.207031 12.550781 C 9.207031 12.546875 9.140625 12.554688 9.140625 12.554688 L 9.0625 12.570312 L 8.992188 12.597656 C 8.902344 12.625 9.03125 12.601562 9.03125 12.601562 L 8.210938 12.953125 C 8.210938 12.953125 8.328125 13.46875 8.40625 13.605469 C 8.46875 13.722656 8.625 13.984375 8.625 13.984375 C 8.625 13.984375 8.445312 14.445312 8.292969 15 L 8.527344 15 C 8.660156 14.574219 8.871094 14.148438 9.179688 14.148438 Z M 9.179688 14.148438 "/>
<path style=" stroke:none;fill-rule:nonzero;fill:rgb(86.666667%,18.431373%,27.058824%);fill-opacity:1;" d="M 9.179688 14.148438 C 8.871094 14.148438 8.660156 14.574219 8.527344 15 L 9.832031 15 C 9.699219 14.574219 9.488281 14.148438 9.179688 14.148438 Z M 9.167969 12.839844 C 9.332031 12.828125 9.8125 13.160156 9.761719 13.359375 C 9.570312 14.121094 9.40625 13.9375 9.179688 13.9375 C 8.925781 13.9375 8.78125 14.136719 8.601562 13.390625 C 8.5625 13.230469 8.933594 12.851562 9.167969 12.839844 "/>
<path style=" stroke:none;fill-rule:nonzero;fill:rgb(95.686275%,96.862745%,97.647059%);fill-opacity:1;" d="M 11.132812 11.144531 C 10.898438 11.382812 9.171875 12.554688 9.171875 12.554688 C 9.171875 12.554688 10.058594 13.074219 10.871094 14.027344 C 10.953125 14.125 11.515625 12.101562 11.53125 11.648438 C 11.535156 11.523438 11.246094 11.03125 11.132812 11.144531 M 7.207031 11.144531 C 7.445312 11.382812 9.171875 12.554688 9.171875 12.554688 C 9.171875 12.554688 8.285156 13.074219 7.46875 14.027344 C 7.386719 14.125 6.828125 12.101562 6.808594 11.648438 C 6.804688 11.523438 7.09375 11.03125 7.207031 11.144531 "/>
</g>
</svg>
