<?xml version="1.0" encoding="UTF-8"?>
<svg xmlns="http://www.w3.org/2000/svg" xmlns:xlink="http://www.w3.org/1999/xlink" width="15pt" height="15pt" viewBox="0 0 15 15" version="1.1">
<g id="surface1">
<path style=" stroke:none;fill-rule:nonzero;fill:rgb(100%,86.27451%,36.470588%);fill-opacity:1;" d="M 8.75 5.832031 C 8.855469 7.453125 10.21875 8.738281 11.875 8.738281 C 13.53125 8.738281 14.894531 7.453125 15 5.832031 L 15 1.667969 L 8.75 1.667969 Z M 8.75 5.832031 "/>
<path style=" stroke:none;fill-rule:nonzero;fill:rgb(100%,67.45098%,20%);fill-opacity:1;" d="M 15 9.0625 L 15 5.832031 C 14.894531 7.453125 13.53125 8.738281 11.875 8.738281 C 10.21875 8.738281 8.855469 7.453125 8.75 5.832031 L 8.75 4.027344 C 10.96875 3.960938 12.296875 3.050781 13.015625 2.285156 C 13.1875 2.898438 13.667969 3.75 15 3.75 L 15 0.792969 C 14.613281 0.503906 14.117188 0.335938 13.558594 0.335938 C 13.417969 0.335938 13.285156 0.351562 13.152344 0.375 C 12.664062 0.136719 12.246094 0 11.667969 0 C 9.621094 0 7.917969 1.707031 7.917969 3.75 L 7.917969 6.667969 C 7.941406 7.609375 8.277344 8.480469 8.824219 9.167969 L 10 10 L 13.75 10 L 14.925781 9.167969 C 14.949219 9.132812 14.972656 9.097656 15 9.0625 Z M 15 9.0625 "/>
<path style=" stroke:none;fill-rule:nonzero;fill:rgb(57.254902%,40.784314%,79.215686%);fill-opacity:1;" d="M 14.925781 9.167969 L 8.75 9.167969 C 7.917969 9.167969 7.5 9.582031 7.5 10.40625 L 7.5 15 L 15 15 L 15 9.167969 Z M 14.925781 9.167969 "/>
<path style=" stroke:none;fill-rule:nonzero;fill:rgb(45.490196%,31.372549%,65.882353%);fill-opacity:1;" d="M 8.746094 10.832031 L 9.171875 10.832031 L 9.171875 15 L 8.746094 15 Z M 8.746094 10.832031 "/>
<path style=" stroke:none;fill-rule:nonzero;fill:rgb(100%,86.27451%,36.470588%);fill-opacity:1;" d="M 10.832031 7.917969 L 10.832031 9.167969 C 10.832031 9.742188 11.300781 10.207031 11.875 10.207031 C 12.449219 10.207031 12.917969 9.742188 12.917969 9.167969 L 12.917969 7.917969 Z M 10.832031 7.917969 "/>
<path style=" stroke:none;fill-rule:nonzero;fill:rgb(85.490196%,18.431373%,27.843137%);fill-opacity:1;" d="M 10.527344 7.402344 L 13.222656 7.402344 C 13.222656 7.402344 12.882812 8.078125 11.875 8.078125 C 10.867188 8.078125 10.527344 7.402344 10.527344 7.402344 Z M 10.527344 7.402344 "/>
<path style=" stroke:none;fill-rule:nonzero;fill:rgb(74.901961%,41.176471%,32.156863%);fill-opacity:1;" d="M 12.082031 6.457031 L 11.667969 6.457031 C 11.550781 6.457031 11.457031 6.363281 11.457031 6.25 C 11.457031 6.136719 11.550781 6.042969 11.667969 6.042969 L 12.082031 6.042969 C 12.199219 6.042969 12.292969 6.136719 12.292969 6.25 C 12.292969 6.363281 12.199219 6.457031 12.082031 6.457031 Z M 12.082031 6.457031 "/>
<path style=" stroke:none;fill-rule:nonzero;fill:rgb(40%,12.941176%,7.45098%);fill-opacity:1;" d="M 10.417969 5.417969 C 10.1875 5.417969 10 5.230469 10 5 L 10 4.582031 C 10 4.351562 10.1875 4.167969 10.417969 4.167969 C 10.648438 4.167969 10.832031 4.351562 10.832031 4.582031 L 10.832031 5 C 10.832031 5.230469 10.648438 5.417969 10.417969 5.417969 Z M 13.332031 5.417969 C 13.101562 5.417969 12.917969 5.230469 12.917969 5 L 12.917969 4.582031 C 12.917969 4.351562 13.101562 4.167969 13.332031 4.167969 C 13.5625 4.167969 13.75 4.351562 13.75 4.582031 L 13.75 5 C 13.75 5.230469 13.5625 5.417969 13.332031 5.417969 Z M 13.332031 5.417969 "/>
<path style=" stroke:none;fill-rule:nonzero;fill:rgb(100%,86.27451%,36.470588%);fill-opacity:1;" d="M 2.082031 9.167969 L 2.082031 7.5 L 4.167969 7.5 L 4.167969 9.167969 L 5 9.167969 L 5 11.667969 L 1.25 11.667969 L 1.25 9.167969 Z M 2.082031 9.167969 "/>
<path style=" stroke:none;fill-rule:nonzero;fill:rgb(23.137255%,58.039216%,85.098039%);fill-opacity:1;" d="M 6.25 9.167969 L 4.167969 9.167969 L 3.136719 10.742188 L 2.082031 9.167969 L 0 9.167969 L 0 15 L 7.5 15 L 7.5 10.40625 C 7.5 9.582031 7.082031 9.167969 6.25 9.167969 Z M 6.25 9.167969 "/>
<path style=" stroke:none;fill-rule:nonzero;fill:rgb(10.588235%,38.823529%,60%);fill-opacity:1;" d="M 5.828125 10.832031 L 6.253906 10.832031 L 6.253906 15 L 5.828125 15 Z M 5.828125 10.832031 "/>
<path style=" stroke:none;fill-rule:nonzero;fill:rgb(100%,86.27451%,36.470588%);fill-opacity:1;" d="M 6.25 5.832031 L 6.25 2.082031 L 0 1.667969 L 0 5.832031 L 0.0117188 5.832031 C 0.113281 7.453125 1.46875 8.738281 3.125 8.738281 C 4.703125 8.738281 6.011719 7.570312 6.222656 6.058594 C 6.234375 5.984375 6.246094 5.910156 6.25 5.832031 Z M 6.25 5.832031 "/>
<path style=" stroke:none;fill-rule:nonzero;fill:rgb(100%,67.45098%,20%);fill-opacity:1;" d="M 1.585938 0.335938 C 1.003906 0.335938 0.460938 0.507812 0 0.796875 L 0 4.164062 C 2.476562 4.140625 3.90625 3.085938 4.652344 2.25 C 4.863281 2.910156 5.332031 3.925781 6.25 4.128906 L 6.25 5.832031 C 6.246094 5.910156 6.234375 5.984375 6.222656 6.058594 C 6.761719 5.417969 7.082031 4.59375 7.082031 3.691406 C 7.082031 1.652344 5.429688 0 3.390625 0 C 2.832031 0 2.308594 0.128906 1.832031 0.347656 C 1.75 0.339844 1.667969 0.335938 1.585938 0.335938 Z M 6.25 2.082031 L 6.25 2.152344 L 6.238281 2.082031 Z M 6.25 2.082031 "/>
<path style=" stroke:none;fill-rule:nonzero;fill:rgb(74.901961%,41.176471%,32.156863%);fill-opacity:1;" d="M 4.46875 7.382812 L 1.78125 7.382812 C 1.78125 7.382812 2.117188 8.054688 3.125 8.054688 C 4.132812 8.054688 4.46875 7.382812 4.46875 7.382812 Z M 3.332031 6.457031 L 2.917969 6.457031 C 2.800781 6.457031 2.707031 6.363281 2.707031 6.25 C 2.707031 6.136719 2.800781 6.042969 2.917969 6.042969 L 3.332031 6.042969 C 3.449219 6.042969 3.542969 6.136719 3.542969 6.25 C 3.542969 6.363281 3.449219 6.457031 3.332031 6.457031 Z M 3.332031 6.457031 "/>
<path style=" stroke:none;fill-rule:nonzero;fill:rgb(40%,12.941176%,7.45098%);fill-opacity:1;" d="M 1.667969 5.417969 C 1.4375 5.417969 1.25 5.230469 1.25 5 L 1.25 4.582031 C 1.25 4.351562 1.4375 4.167969 1.667969 4.167969 C 1.898438 4.167969 2.082031 4.351562 2.082031 4.582031 L 2.082031 5 C 2.082031 5.230469 1.898438 5.417969 1.667969 5.417969 Z M 4.582031 5.417969 C 4.351562 5.417969 4.167969 5.230469 4.167969 5 L 4.167969 4.582031 C 4.167969 4.351562 4.351562 4.167969 4.582031 4.167969 C 4.8125 4.167969 5 4.351562 5 4.582031 L 5 5 C 5 5.230469 4.8125 5.417969 4.582031 5.417969 Z M 4.582031 5.417969 "/>
<path style=" stroke:none;fill-rule:nonzero;fill:rgb(100%,86.27451%,36.470588%);fill-opacity:1;" d="M 13.75 9.464844 L 11.964844 9.105469 L 8.75 9.464844 L 8.75 11.265625 C 8.75 12.636719 9.867188 13.75 11.25 13.75 C 12.628906 13.75 13.746094 12.636719 13.746094 11.265625 L 13.746094 11.25 L 13.75 11.25 Z M 13.75 9.464844 "/>
<path style=" stroke:none;fill-rule:nonzero;fill:rgb(95.686275%,56.470588%,4.705882%);fill-opacity:1;" d="M 14.164062 10.496094 C 14.164062 10.488281 14.167969 10.476562 14.167969 10.46875 L 14.164062 10.453125 L 14.167969 10.417969 L 14.164062 10.417969 C 14.136719 9.03125 13.007812 7.917969 11.613281 7.917969 C 11.492188 7.917969 11.371094 7.929688 11.25 7.945312 C 11.128906 7.929688 11.007812 7.917969 10.886719 7.917969 C 9.476562 7.917969 8.332031 9.058594 8.332031 10.46875 C 8.332031 10.46875 8.386719 11.796875 7.917969 13.332031 C 7.917969 13.332031 9.308594 14.167969 11.25 14.167969 C 13.191406 14.167969 14.582031 13.332031 14.582031 13.332031 C 14.179688 12.011719 14.164062 10.808594 14.164062 10.496094 Z M 13.746094 11.265625 C 13.746094 12.636719 12.628906 13.75 11.25 13.75 C 9.867188 13.75 8.75 12.636719 8.75 11.265625 L 8.75 10.453125 C 10.488281 10.378906 11.496094 9.789062 12.054688 9.242188 C 12.433594 9.6875 13.035156 10.246094 13.75 10.414062 L 13.75 11.25 L 13.746094 11.25 Z M 13.746094 11.265625 "/>
<path style=" stroke:none;fill-rule:nonzero;fill:rgb(100%,86.27451%,36.470588%);fill-opacity:1;" d="M 12.082031 14.167969 L 12.082031 12.917969 L 10.417969 12.917969 L 10.417969 14.167969 L 10 14.167969 L 10 15 L 12.5 15 L 12.5 14.167969 Z M 12.082031 14.167969 "/>
<path style=" stroke:none;fill-rule:nonzero;fill:rgb(91.764706%,34.901961%,43.137255%);fill-opacity:1;" d="M 13.332031 13.75 L 12.082031 13.75 L 11.25 14.582031 L 10.417969 13.75 L 9.582031 13.75 C 8.542969 13.75 7.800781 14.328125 7.578125 15 L 14.925781 15 C 14.707031 14.332031 14.023438 13.75 13.332031 13.75 Z M 13.332031 13.75 "/>
<path style=" stroke:none;fill-rule:nonzero;fill:rgb(74.901961%,41.176471%,32.156863%);fill-opacity:1;" d="M 12.082031 12.5 L 10.417969 12.5 C 10.417969 12.5 10.578125 13.054688 11.25 13.054688 C 11.921875 13.054688 12.082031 12.5 12.082031 12.5 Z M 11.25 12.292969 C 11.195312 12.292969 11.140625 12.269531 11.105469 12.230469 C 11.0625 12.191406 11.042969 12.136719 11.042969 12.082031 C 11.042969 12.027344 11.0625 11.976562 11.105469 11.933594 C 11.175781 11.863281 11.320312 11.859375 11.398438 11.9375 C 11.4375 11.976562 11.457031 12.027344 11.457031 12.082031 C 11.457031 12.136719 11.4375 12.191406 11.394531 12.230469 C 11.359375 12.269531 11.304688 12.292969 11.25 12.292969 Z M 11.25 12.292969 "/>
<path style=" stroke:none;fill-rule:nonzero;fill:rgb(40%,12.941176%,7.45098%);fill-opacity:1;" d="M 12.082031 11.667969 C 11.890625 11.667969 11.734375 11.511719 11.734375 11.320312 L 11.734375 10.972656 C 11.734375 10.78125 11.890625 10.625 12.082031 10.625 C 12.277344 10.625 12.429688 10.78125 12.429688 10.972656 L 12.429688 11.320312 C 12.429688 11.511719 12.277344 11.667969 12.082031 11.667969 Z M 10.417969 11.667969 C 10.222656 11.667969 10.070312 11.511719 10.070312 11.320312 L 10.070312 10.972656 C 10.070312 10.78125 10.226562 10.625 10.417969 10.625 C 10.609375 10.625 10.765625 10.78125 10.765625 10.972656 L 10.765625 11.320312 C 10.765625 11.511719 10.609375 11.667969 10.417969 11.667969 Z M 10.417969 11.667969 "/>
<path style=" stroke:none;fill-rule:nonzero;fill:rgb(100%,86.27451%,36.470588%);fill-opacity:1;" d="M 6.25 9.464844 L 4.464844 9.105469 L 1.25 9.464844 L 1.25 11.265625 C 1.25 12.636719 2.367188 13.75 3.75 13.75 C 5.128906 13.75 6.246094 12.636719 6.246094 11.265625 L 6.246094 11.25 L 6.25 11.25 Z M 6.25 9.464844 "/>
<path style=" stroke:none;fill-rule:nonzero;fill:rgb(95.686275%,56.470588%,4.705882%);fill-opacity:1;" d="M 6.664062 10.496094 C 6.664062 10.488281 6.667969 10.476562 6.667969 10.46875 L 6.664062 10.453125 L 6.667969 10.417969 L 6.664062 10.417969 C 6.636719 9.03125 5.507812 7.917969 4.113281 7.917969 C 3.992188 7.917969 3.871094 7.929688 3.75 7.945312 C 3.628906 7.929688 3.507812 7.917969 3.386719 7.917969 C 1.976562 7.917969 0.832031 9.058594 0.832031 10.46875 C 0.832031 10.46875 0.886719 11.796875 0.417969 13.332031 C 0.417969 13.332031 1.808594 14.167969 3.75 14.167969 C 5.691406 14.167969 7.082031 13.332031 7.082031 13.332031 C 6.679688 12.011719 6.664062 10.808594 6.664062 10.496094 Z M 6.246094 11.265625 C 6.246094 12.636719 5.128906 13.75 3.75 13.75 C 2.367188 13.75 1.25 12.636719 1.25 11.265625 L 1.25 10.453125 C 2.988281 10.378906 3.996094 9.789062 4.554688 9.242188 C 4.933594 9.6875 5.535156 10.246094 6.25 10.414062 L 6.25 11.25 L 6.246094 11.25 Z M 6.246094 11.265625 "/>
<path style=" stroke:none;fill-rule:nonzero;fill:rgb(100%,86.27451%,36.470588%);fill-opacity:1;" d="M 4.582031 14.167969 L 4.582031 12.917969 L 2.917969 12.917969 L 2.917969 14.167969 L 2.5 14.167969 L 2.5 15 L 5 15 L 5 14.167969 Z M 4.582031 14.167969 "/>
<path style=" stroke:none;fill-rule:nonzero;fill:rgb(91.764706%,34.901961%,43.137255%);fill-opacity:1;" d="M 5.832031 13.75 L 4.582031 13.75 L 3.75 14.582031 L 2.917969 13.75 L 2.082031 13.75 C 1.042969 13.75 0.300781 14.328125 0.078125 15 L 7.425781 15 C 7.207031 14.332031 6.523438 13.75 5.832031 13.75 Z M 5.832031 13.75 "/>
<path style=" stroke:none;fill-rule:nonzero;fill:rgb(74.901961%,41.176471%,32.156863%);fill-opacity:1;" d="M 4.582031 12.5 L 2.917969 12.5 C 2.917969 12.5 3.078125 13.054688 3.75 13.054688 C 4.421875 13.054688 4.582031 12.5 4.582031 12.5 Z M 3.75 12.292969 C 3.695312 12.292969 3.640625 12.269531 3.605469 12.230469 C 3.5625 12.191406 3.542969 12.136719 3.542969 12.082031 C 3.542969 12.027344 3.5625 11.976562 3.605469 11.933594 C 3.675781 11.863281 3.820312 11.859375 3.898438 11.9375 C 3.9375 11.976562 3.957031 12.027344 3.957031 12.082031 C 3.957031 12.136719 3.9375 12.191406 3.894531 12.230469 C 3.859375 12.269531 3.804688 12.292969 3.75 12.292969 Z M 3.75 12.292969 "/>
<path style=" stroke:none;fill-rule:nonzero;fill:rgb(40%,12.941176%,7.45098%);fill-opacity:1;" d="M 4.582031 11.667969 C 4.390625 11.667969 4.234375 11.511719 4.234375 11.320312 L 4.234375 10.972656 C 4.234375 10.78125 4.390625 10.625 4.582031 10.625 C 4.777344 10.625 4.929688 10.78125 4.929688 10.972656 L 4.929688 11.320312 C 4.929688 11.511719 4.777344 11.667969 4.582031 11.667969 Z M 2.917969 11.667969 C 2.722656 11.667969 2.570312 11.511719 2.570312 11.320312 L 2.570312 10.972656 C 2.570312 10.78125 2.722656 10.625 2.917969 10.625 C 3.109375 10.625 3.265625 10.78125 3.265625 10.972656 L 3.265625 11.320312 C 3.265625 11.511719 3.109375 11.667969 2.917969 11.667969 Z M 2.917969 11.667969 "/>
</g>
</svg>
