<?xml version="1.0" encoding="UTF-8"?>
<svg xmlns="http://www.w3.org/2000/svg" xmlns:xlink="http://www.w3.org/1999/xlink" width="15pt" height="15pt" viewBox="0 0 15 15" version="1.1">
<g id="surface1">
<path style=" stroke:none;fill-rule:nonzero;fill:rgb(100%,67.45098%,20%);fill-opacity:1;" d="M 10.417969 4.933594 C 11.375 4.65625 11.796875 3.449219 11.972656 2.699219 C 12.371094 3.3125 13.238281 4.230469 15 4.699219 L 15 0.175781 C 14.601562 0.0625 14.183594 0 13.75 0 C 11.21875 0 9.167969 2.050781 9.167969 4.582031 C 9.167969 5.835938 9.671875 6.972656 10.488281 7.800781 C 10.441406 7.566406 10.417969 7.328125 10.417969 7.082031 Z M 10.417969 4.933594 "/>
<path style=" stroke:none;fill-rule:nonzero;fill:rgb(100%,86.27451%,36.470588%);fill-opacity:1;" d="M 14.167969 9.167969 L 15 9.167969 L 15 4.699219 C 13.238281 4.230469 12.371094 3.3125 11.972656 2.699219 C 11.796875 3.449219 11.375 4.65625 10.417969 4.933594 L 10.417969 7.082031 C 10.417969 7.328125 10.441406 7.566406 10.488281 7.800781 C 10.742188 9.113281 11.679688 10.175781 12.917969 10.613281 L 12.917969 11.25 L 14.167969 13.332031 L 15 11.917969 L 15 9.847656 C 14.777344 9.9375 14.503906 10 14.167969 10 C 12.917969 10 12.5 9.167969 12.5 9.167969 Z M 13.75 7.707031 L 14.582031 7.707031 C 14.699219 7.707031 14.792969 7.800781 14.792969 7.917969 C 14.792969 8.03125 14.699219 8.125 14.582031 8.125 L 13.75 8.125 C 13.636719 8.125 13.542969 8.03125 13.542969 7.917969 C 13.542969 7.800781 13.636719 7.707031 13.75 7.707031 Z M 12.5 6.667969 C 12.269531 6.667969 12.082031 6.480469 12.082031 6.25 L 12.082031 5.832031 C 12.082031 5.601562 12.269531 5.417969 12.5 5.417969 C 12.730469 5.417969 12.917969 5.601562 12.917969 5.832031 L 12.917969 6.25 C 12.917969 6.480469 12.730469 6.667969 12.5 6.667969 Z M 12.5 6.667969 "/>
<path style=" stroke:none;fill-rule:nonzero;fill:rgb(23.137255%,58.039216%,85.098039%);fill-opacity:1;" d="M 15 11.917969 L 14.167969 13.332031 L 12.917969 11.25 L 10.417969 11.25 C 9.496094 11.25 8.75 11.996094 8.75 12.917969 L 8.75 15 L 15 15 Z M 15 11.917969 "/>
<path style=" stroke:none;fill-rule:nonzero;fill:rgb(10.980392%,38.823529%,60%);fill-opacity:1;" d="M 10.417969 13.332031 L 10.832031 13.332031 L 10.832031 15 L 10.417969 15 Z M 10.417969 13.332031 "/>
<path style=" stroke:none;fill-rule:nonzero;fill:rgb(74.901961%,41.176471%,32.156863%);fill-opacity:1;" d="M 12.917969 9.167969 L 12.5 9.167969 C 12.5 9.167969 12.917969 10 14.167969 10 C 14.503906 10 14.777344 9.9375 15 9.847656 L 15 9.167969 Z M 12.917969 9.167969 "/>
<path style=" stroke:none;fill-rule:nonzero;fill:rgb(40%,12.941176%,7.45098%);fill-opacity:1;" d="M 12.5 6.667969 C 12.730469 6.667969 12.917969 6.480469 12.917969 6.25 L 12.917969 5.832031 C 12.917969 5.601562 12.730469 5.417969 12.5 5.417969 C 12.269531 5.417969 12.082031 5.601562 12.082031 5.832031 L 12.082031 6.25 C 12.082031 6.480469 12.269531 6.667969 12.5 6.667969 Z M 12.5 6.667969 "/>
<path style=" stroke:none;fill-rule:nonzero;fill:rgb(74.901961%,41.176471%,32.156863%);fill-opacity:1;" d="M 13.75 8.125 L 14.582031 8.125 C 14.699219 8.125 14.792969 8.03125 14.792969 7.917969 C 14.792969 7.800781 14.699219 7.707031 14.582031 7.707031 L 13.75 7.707031 C 13.636719 7.707031 13.542969 7.800781 13.542969 7.917969 C 13.542969 8.03125 13.636719 8.125 13.75 8.125 Z M 13.75 8.125 "/>
<path style=" stroke:none;fill-rule:nonzero;fill:rgb(100%,67.45098%,20%);fill-opacity:1;" d="M 4.582031 4.933594 C 3.625 4.65625 3.203125 3.449219 3.027344 2.699219 C 2.628906 3.3125 1.761719 4.230469 0 4.699219 L 0 0.175781 C 0.398438 0.0625 0.816406 0 1.25 0 C 3.78125 0 5.832031 2.050781 5.832031 4.582031 C 5.832031 5.835938 5.328125 6.972656 4.511719 7.800781 C 4.558594 7.566406 4.582031 7.328125 4.582031 7.082031 Z M 4.582031 4.933594 "/>
<path style=" stroke:none;fill-rule:nonzero;fill:rgb(100%,86.27451%,36.470588%);fill-opacity:1;" d="M 2.082031 9.167969 L 2.5 9.167969 C 2.5 9.167969 2.082031 10 0.832031 10 C 0.496094 10 0.222656 9.9375 0 9.847656 L 0 11.917969 L 0.832031 13.332031 L 2.082031 11.25 L 2.082031 10.617188 C 3.320312 10.175781 4.257812 9.113281 4.511719 7.800781 C 4.558594 7.566406 4.582031 7.328125 4.582031 7.082031 L 4.582031 4.933594 C 3.625 4.65625 3.203125 3.449219 3.027344 2.699219 C 2.628906 3.3125 1.761719 4.230469 0 4.699219 L 0 9.167969 Z M 1.457031 7.917969 C 1.457031 8.03125 1.363281 8.125 1.25 8.125 L 0.417969 8.125 C 0.300781 8.125 0.207031 8.03125 0.207031 7.917969 C 0.207031 7.800781 0.300781 7.707031 0.417969 7.707031 L 1.25 7.707031 C 1.363281 7.707031 1.457031 7.800781 1.457031 7.917969 Z M 2.082031 6.25 L 2.082031 5.832031 C 2.082031 5.601562 2.269531 5.417969 2.5 5.417969 C 2.730469 5.417969 2.917969 5.601562 2.917969 5.832031 L 2.917969 6.25 C 2.917969 6.480469 2.730469 6.667969 2.5 6.667969 C 2.269531 6.667969 2.082031 6.480469 2.082031 6.25 Z M 2.082031 6.25 "/>
<path style=" stroke:none;fill-rule:nonzero;fill:rgb(23.137255%,58.039216%,85.098039%);fill-opacity:1;" d="M 0 11.917969 L 0.832031 13.332031 L 2.082031 11.25 L 4.582031 11.25 C 5.503906 11.25 6.25 11.996094 6.25 12.917969 L 6.25 15 L 0 15 Z M 0 11.917969 "/>
<path style=" stroke:none;fill-rule:nonzero;fill:rgb(10.980392%,38.823529%,60%);fill-opacity:1;" d="M 4.167969 13.332031 L 4.582031 13.332031 L 4.582031 15 L 4.167969 15 Z M 4.167969 13.332031 "/>
<path style=" stroke:none;fill-rule:nonzero;fill:rgb(74.901961%,41.176471%,32.156863%);fill-opacity:1;" d="M 2.082031 9.167969 L 2.5 9.167969 C 2.5 9.167969 2.082031 10 0.832031 10 C 0.496094 10 0.222656 9.9375 0 9.847656 L 0 9.167969 Z M 2.082031 9.167969 "/>
<path style=" stroke:none;fill-rule:nonzero;fill:rgb(40%,12.941176%,7.45098%);fill-opacity:1;" d="M 2.5 6.667969 C 2.269531 6.667969 2.082031 6.480469 2.082031 6.25 L 2.082031 5.832031 C 2.082031 5.601562 2.269531 5.417969 2.5 5.417969 C 2.730469 5.417969 2.917969 5.601562 2.917969 5.832031 L 2.917969 6.25 C 2.917969 6.480469 2.730469 6.667969 2.5 6.667969 Z M 2.5 6.667969 "/>
<path style=" stroke:none;fill-rule:nonzero;fill:rgb(74.901961%,41.176471%,32.156863%);fill-opacity:1;" d="M 1.25 8.125 L 0.417969 8.125 C 0.300781 8.125 0.207031 8.03125 0.207031 7.917969 C 0.207031 7.800781 0.300781 7.707031 0.417969 7.707031 L 1.25 7.707031 C 1.363281 7.707031 1.457031 7.800781 1.457031 7.917969 C 1.457031 8.03125 1.363281 8.125 1.25 8.125 Z M 1.25 8.125 "/>
<path style=" stroke:none;fill-rule:nonzero;fill:rgb(86.666667%,18.039216%,26.666667%);fill-opacity:1;" d="M 11.058594 1.964844 C 11.058594 0.878906 10.179688 0 9.09375 0 C 8.4375 0 7.855469 0.324219 7.5 0.820312 C 7.144531 0.324219 6.5625 0 5.90625 0 C 4.820312 0 3.941406 0.878906 3.941406 1.964844 C 3.941406 2.117188 3.960938 2.265625 3.996094 2.410156 C 4.265625 4.101562 6.152344 5.890625 7.5 6.378906 C 8.847656 5.890625 10.730469 4.101562 11.003906 2.410156 C 11.039062 2.265625 11.058594 2.117188 11.058594 1.964844 Z M 11.058594 1.964844 "/>
</g>
</svg>
