<?xml version="1.0" encoding="UTF-8"?>
<svg xmlns="http://www.w3.org/2000/svg" xmlns:xlink="http://www.w3.org/1999/xlink" width="15pt" height="15pt" viewBox="0 0 15 15" version="1.1">
<g id="surface1">
<path style=" stroke:none;fill-rule:nonzero;fill:rgb(100%,86.27451%,36.470588%);fill-opacity:1;" d="M 8.75 5.832031 C 8.855469 7.453125 10.21875 8.738281 11.875 8.738281 C 13.53125 8.738281 14.894531 7.453125 15 5.832031 L 15 1.667969 L 8.75 1.667969 Z M 8.75 5.832031 "/>
<path style=" stroke:none;fill-rule:nonzero;fill:rgb(100%,67.45098%,20%);fill-opacity:1;" d="M 15 9.0625 L 15 5.832031 C 14.894531 7.453125 13.53125 8.738281 11.875 8.738281 C 10.21875 8.738281 8.855469 7.453125 8.75 5.832031 L 8.75 4.027344 C 10.96875 3.960938 12.296875 3.050781 13.015625 2.285156 C 13.1875 2.898438 13.667969 3.75 15 3.75 L 15 0.792969 C 14.613281 0.503906 14.117188 0.335938 13.558594 0.335938 C 13.417969 0.335938 13.285156 0.351562 13.152344 0.375 C 12.664062 0.136719 12.246094 0 11.667969 0 C 9.621094 0 7.917969 1.707031 7.917969 3.75 L 7.917969 6.667969 C 7.941406 7.609375 8.277344 8.480469 8.824219 9.167969 L 10 10 L 13.75 10 L 14.925781 9.167969 C 14.949219 9.132812 14.972656 9.097656 15 9.0625 Z M 15 9.0625 "/>
<path style=" stroke:none;fill-rule:nonzero;fill:rgb(57.254902%,40.784314%,79.215686%);fill-opacity:1;" d="M 14.925781 9.167969 L 8.75 9.167969 C 7.917969 9.167969 7.5 9.582031 7.5 10.40625 L 7.5 15 L 15 15 L 15 9.167969 Z M 14.925781 9.167969 "/>
<path style=" stroke:none;fill-rule:nonzero;fill:rgb(45.490196%,31.372549%,65.882353%);fill-opacity:1;" d="M 8.746094 10.832031 L 9.171875 10.832031 L 9.171875 15 L 8.746094 15 Z M 8.746094 10.832031 "/>
<path style=" stroke:none;fill-rule:nonzero;fill:rgb(100%,86.27451%,36.470588%);fill-opacity:1;" d="M 10.832031 7.917969 L 10.832031 9.167969 C 10.832031 9.742188 11.300781 10.207031 11.875 10.207031 C 12.449219 10.207031 12.917969 9.742188 12.917969 9.167969 L 12.917969 7.917969 Z M 10.832031 7.917969 "/>
<path style=" stroke:none;fill-rule:nonzero;fill:rgb(85.490196%,18.431373%,27.843137%);fill-opacity:1;" d="M 10.527344 7.402344 L 13.222656 7.402344 C 13.222656 7.402344 12.882812 8.078125 11.875 8.078125 C 10.867188 8.078125 10.527344 7.402344 10.527344 7.402344 Z M 10.527344 7.402344 "/>
<path style=" stroke:none;fill-rule:nonzero;fill:rgb(74.901961%,41.176471%,32.156863%);fill-opacity:1;" d="M 12.082031 6.457031 L 11.667969 6.457031 C 11.550781 6.457031 11.457031 6.363281 11.457031 6.25 C 11.457031 6.136719 11.550781 6.042969 11.667969 6.042969 L 12.082031 6.042969 C 12.199219 6.042969 12.292969 6.136719 12.292969 6.25 C 12.292969 6.363281 12.199219 6.457031 12.082031 6.457031 Z M 12.082031 6.457031 "/>
<path style=" stroke:none;fill-rule:nonzero;fill:rgb(40%,12.941176%,7.45098%);fill-opacity:1;" d="M 10.417969 5.417969 C 10.1875 5.417969 10 5.230469 10 5 L 10 4.582031 C 10 4.351562 10.1875 4.167969 10.417969 4.167969 C 10.648438 4.167969 10.832031 4.351562 10.832031 4.582031 L 10.832031 5 C 10.832031 5.230469 10.648438 5.417969 10.417969 5.417969 Z M 13.332031 5.417969 C 13.101562 5.417969 12.917969 5.230469 12.917969 5 L 12.917969 4.582031 C 12.917969 4.351562 13.101562 4.167969 13.332031 4.167969 C 13.5625 4.167969 13.75 4.351562 13.75 4.582031 L 13.75 5 C 13.75 5.230469 13.5625 5.417969 13.332031 5.417969 Z M 13.332031 5.417969 "/>
<path style=" stroke:none;fill-rule:nonzero;fill:rgb(100%,86.27451%,36.470588%);fill-opacity:1;" d="M 2.082031 9.167969 L 2.082031 7.5 L 4.167969 7.5 L 4.167969 9.167969 L 5 9.167969 L 5 11.667969 L 1.25 11.667969 L 1.25 9.167969 Z M 2.082031 9.167969 "/>
<path style=" stroke:none;fill-rule:nonzero;fill:rgb(23.137255%,58.039216%,85.098039%);fill-opacity:1;" d="M 6.25 9.167969 L 4.167969 9.167969 L 3.136719 10.742188 L 2.082031 9.167969 L 0 9.167969 L 0 15 L 7.5 15 L 7.5 10.40625 C 7.5 9.582031 7.082031 9.167969 6.25 9.167969 Z M 6.25 9.167969 "/>
<path style=" stroke:none;fill-rule:nonzero;fill:rgb(10.588235%,38.823529%,60%);fill-opacity:1;" d="M 5.828125 10.832031 L 6.253906 10.832031 L 6.253906 15 L 5.828125 15 Z M 5.828125 10.832031 "/>
<path style=" stroke:none;fill-rule:nonzero;fill:rgb(100%,86.27451%,36.470588%);fill-opacity:1;" d="M 6.25 5.832031 L 6.25 2.082031 L 0 1.667969 L 0 5.832031 L 0.0117188 5.832031 C 0.113281 7.453125 1.46875 8.738281 3.125 8.738281 C 4.703125 8.738281 6.011719 7.570312 6.222656 6.058594 C 6.234375 5.984375 6.246094 5.910156 6.25 5.832031 Z M 6.25 5.832031 "/>
<path style=" stroke:none;fill-rule:nonzero;fill:rgb(100%,67.45098%,20%);fill-opacity:1;" d="M 1.585938 0.335938 C 1.003906 0.335938 0.460938 0.507812 0 0.796875 L 0 4.164062 C 2.476562 4.140625 3.90625 3.085938 4.652344 2.25 C 4.863281 2.910156 5.332031 3.925781 6.25 4.128906 L 6.25 5.832031 C 6.246094 5.910156 6.234375 5.984375 6.222656 6.058594 C 6.761719 5.417969 7.082031 4.59375 7.082031 3.691406 C 7.082031 1.652344 5.429688 0 3.390625 0 C 2.832031 0 2.308594 0.128906 1.832031 0.347656 C 1.75 0.339844 1.667969 0.335938 1.585938 0.335938 Z M 6.25 2.082031 L 6.25 2.152344 L 6.238281 2.082031 Z M 6.25 2.082031 "/>
<path style=" stroke:none;fill-rule:nonzero;fill:rgb(74.901961%,41.176471%,32.156863%);fill-opacity:1;" d="M 4.46875 7.382812 L 1.78125 7.382812 C 1.78125 7.382812 2.117188 8.054688 3.125 8.054688 C 4.132812 8.054688 4.46875 7.382812 4.46875 7.382812 Z M 3.332031 6.457031 L 2.917969 6.457031 C 2.800781 6.457031 2.707031 6.363281 2.707031 6.25 C 2.707031 6.136719 2.800781 6.042969 2.917969 6.042969 L 3.332031 6.042969 C 3.449219 6.042969 3.542969 6.136719 3.542969 6.25 C 3.542969 6.363281 3.449219 6.457031 3.332031 6.457031 Z M 3.332031 6.457031 "/>
<path style=" stroke:none;fill-rule:nonzero;fill:rgb(40%,12.941176%,7.45098%);fill-opacity:1;" d="M 1.667969 5.417969 C 1.4375 5.417969 1.25 5.230469 1.25 5 L 1.25 4.582031 C 1.25 4.351562 1.4375 4.167969 1.667969 4.167969 C 1.898438 4.167969 2.082031 4.351562 2.082031 4.582031 L 2.082031 5 C 2.082031 5.230469 1.898438 5.417969 1.667969 5.417969 Z M 4.582031 5.417969 C 4.351562 5.417969 4.167969 5.230469 4.167969 5 L 4.167969 4.582031 C 4.167969 4.351562 4.351562 4.167969 4.582031 4.167969 C 4.8125 4.167969 5 4.351562 5 4.582031 L 5 5 C 5 5.230469 4.8125 5.417969 4.582031 5.417969 Z M 4.582031 5.417969 "/>
<path style=" stroke:none;fill-rule:nonzero;fill:rgb(100%,86.27451%,36.470588%);fill-opacity:1;" d="M 8.371094 14.582031 L 8.371094 12.917969 L 6.703125 12.917969 L 6.703125 14.582031 L 6.289062 14.582031 L 6.289062 15 L 8.789062 15 L 8.789062 14.582031 Z M 8.371094 14.582031 "/>
<path style=" stroke:none;fill-rule:nonzero;fill:rgb(53.333333%,78.823529%,97.647059%);fill-opacity:1;" d="M 9.621094 13.75 L 8.371094 13.75 L 7.539062 15 L 11.210938 15 C 10.996094 14.332031 10.3125 13.75 9.621094 13.75 Z M 3.867188 15 L 7.539062 15 L 6.703125 13.75 L 5.871094 13.75 C 5.71875 13.75 5.570312 13.761719 5.433594 13.785156 C 4.621094 13.921875 4.054688 14.425781 3.867188 15 Z M 3.867188 15 "/>
<path style=" stroke:none;fill-rule:nonzero;fill:rgb(100%,86.27451%,36.470588%);fill-opacity:1;" d="M 10.453125 10.851562 L 10.453125 8.332031 L 8.972656 8.332031 C 8.546875 8.09375 8.058594 7.957031 7.535156 7.957031 C 7.015625 7.957031 6.523438 8.09375 6.101562 8.332031 L 4.621094 8.332031 L 4.621094 10.851562 C 4.621094 10.914062 4.625 10.972656 4.628906 11.03125 C 4.722656 12.546875 5.988281 13.75 7.535156 13.75 C 8.945312 13.75 10.121094 12.753906 10.394531 11.433594 C 10.433594 11.246094 10.453125 11.050781 10.453125 10.851562 Z M 10.453125 10.851562 "/>
<path style=" stroke:none;fill-rule:nonzero;fill:rgb(95.686275%,56.470588%,4.705882%);fill-opacity:1;" d="M 11.011719 9.527344 C 11.011719 7.714844 9.542969 6.25 7.734375 6.25 C 7.214844 6.25 6.726562 6.375 6.292969 6.589844 C 4.902344 6.617188 3.789062 7.75 3.789062 9.144531 C 3.789062 9.894531 4.117188 10.5625 4.628906 11.03125 C 4.625 10.972656 4.621094 10.914062 4.621094 10.851562 L 4.621094 9.570312 C 6.644531 9.492188 7.8125 8.816406 8.457031 8.179688 C 8.898438 8.703125 9.609375 9.363281 10.453125 9.539062 L 10.453125 10.851562 C 10.453125 11.050781 10.433594 11.246094 10.394531 11.433594 C 10.78125 10.894531 11.011719 10.238281 11.011719 9.527344 Z M 11.011719 9.527344 "/>
<path style=" stroke:none;fill-rule:nonzero;fill:rgb(74.901961%,41.176471%,32.156863%);fill-opacity:1;" d="M 8.789062 12.5 L 6.289062 12.5 C 6.289062 12.5 6.53125 13.332031 7.539062 13.332031 C 8.546875 13.332031 8.789062 12.5 8.789062 12.5 Z M 7.539062 12.292969 C 7.484375 12.292969 7.429688 12.269531 7.390625 12.230469 C 7.351562 12.191406 7.328125 12.136719 7.328125 12.082031 C 7.328125 12.027344 7.351562 11.976562 7.390625 11.933594 C 7.464844 11.863281 7.609375 11.859375 7.6875 11.9375 C 7.726562 11.976562 7.746094 12.03125 7.746094 12.082031 C 7.746094 12.136719 7.726562 12.191406 7.683594 12.230469 C 7.644531 12.269531 7.59375 12.292969 7.539062 12.292969 Z M 7.539062 12.292969 "/>
<path style=" stroke:none;fill-rule:nonzero;fill:rgb(40%,12.941176%,7.45098%);fill-opacity:1;" d="M 6.289062 11.667969 C 6.058594 11.667969 5.871094 11.480469 5.871094 11.25 L 5.871094 10.832031 C 5.871094 10.601562 6.058594 10.417969 6.289062 10.417969 C 6.519531 10.417969 6.703125 10.601562 6.703125 10.832031 L 6.703125 11.25 C 6.703125 11.480469 6.519531 11.667969 6.289062 11.667969 Z M 8.789062 11.667969 C 8.558594 11.667969 8.371094 11.480469 8.371094 11.25 L 8.371094 10.832031 C 8.371094 10.601562 8.558594 10.417969 8.789062 10.417969 C 9.019531 10.417969 9.203125 10.601562 9.203125 10.832031 L 9.203125 11.25 C 9.203125 11.480469 9.019531 11.667969 8.789062 11.667969 Z M 8.789062 11.667969 "/>
</g>
</svg>
