<?xml version="1.0" encoding="UTF-8"?>
<svg xmlns="http://www.w3.org/2000/svg" xmlns:xlink="http://www.w3.org/1999/xlink" width="15pt" height="15pt" viewBox="0 0 15 15" version="1.1">
<g id="surface1">
<path style=" stroke:none;fill-rule:nonzero;fill:rgb(88.235294%,90.980392%,92.941176%);fill-opacity:1;" d="M 15 15 L 15 14.167969 C 15 12.785156 13.878906 11.667969 12.5 11.667969 L 5.832031 11.667969 C 4.453125 11.667969 3.332031 12.785156 3.332031 14.167969 L 3.332031 15 Z M 15 15 "/>
<path style=" stroke:none;fill-rule:nonzero;fill:rgb(91.764706%,34.901961%,43.137255%);fill-opacity:1;" d="M 12.417969 11.71875 C 12.417969 12.285156 10.960938 12.734375 9.167969 12.734375 C 7.371094 12.734375 5.917969 12.292969 5.917969 11.726562 C 5.917969 11.699219 5.921875 11.667969 5.929688 11.667969 L 5.625 11.667969 L 5.328125 11.707031 L 5.332031 12.132812 C 5.378906 13.132812 7.078125 13.546875 9.167969 13.546875 C 11.25 13.546875 12.941406 13.125 13 12.125 L 13.007812 11.71875 C 13.003906 11.71875 12.417969 11.695312 12.417969 11.71875 Z M 12.417969 11.71875 "/>
<path style=" stroke:none;fill-rule:nonzero;fill:rgb(74.509804%,9.803922%,19.215686%);fill-opacity:1;" d="M 9.167969 10.261719 C 7.046875 10.261719 5.328125 10.90625 5.328125 11.695312 C 5.328125 12.488281 7.046875 13.128906 9.167969 13.128906 C 11.285156 13.128906 13.003906 12.488281 13.003906 11.695312 C 13.003906 10.90625 11.285156 10.261719 9.167969 10.261719 "/>
<path style=" stroke:none;fill-rule:nonzero;fill:rgb(16.078431%,18.431373%,20%);fill-opacity:1;" d="M 9.167969 12.722656 C 7.371094 12.722656 5.917969 12.261719 5.917969 11.695312 C 5.917969 11.128906 7.371094 10.667969 9.167969 10.667969 C 10.960938 10.667969 12.417969 11.128906 12.417969 11.695312 C 12.417969 12.261719 10.960938 12.722656 9.167969 12.722656 "/>
<path style=" stroke:none;fill-rule:nonzero;fill:rgb(96.862745%,87.058824%,80.784314%);fill-opacity:1;" d="M 7.351562 11.640625 C 8.078125 12.167969 8.535156 12.269531 9.167969 12.269531 C 9.796875 12.269531 10.257812 12.167969 10.984375 11.640625 L 10.984375 10.050781 L 7.347656 10.050781 L 7.347656 11.640625 Z M 7.351562 11.640625 "/>
<path style=" stroke:none;fill-rule:nonzero;fill:rgb(93.333333%,76.078431%,67.843137%);fill-opacity:1;" d="M 7.347656 10.820312 C 7.851562 11.394531 8.480469 11.550781 9.164062 11.550781 C 9.847656 11.550781 10.476562 11.394531 10.984375 10.820312 L 10.984375 9.367188 L 7.347656 9.367188 Z M 7.347656 10.820312 "/>
<path style=" stroke:none;fill-rule:nonzero;fill:rgb(96.862745%,87.058824%,80.784314%);fill-opacity:1;" d="M 6.433594 6.640625 C 6.433594 7.242188 6.128906 7.734375 5.753906 7.734375 C 5.375 7.734375 5.070312 7.242188 5.070312 6.640625 C 5.070312 6.035156 5.375 5.546875 5.753906 5.546875 C 6.128906 5.546875 6.433594 6.035156 6.433594 6.640625 M 13.265625 6.640625 C 13.265625 7.242188 12.957031 7.734375 12.582031 7.734375 C 12.203125 7.734375 11.898438 7.242188 11.898438 6.640625 C 11.898438 6.035156 12.203125 5.546875 12.582031 5.546875 C 12.957031 5.546875 13.265625 6.035156 13.265625 6.640625 "/>
<path style=" stroke:none;fill-rule:nonzero;fill:rgb(96.862745%,87.058824%,80.784314%);fill-opacity:1;" d="M 5.617188 7.066406 C 5.617188 4.738281 7.207031 2.847656 9.167969 2.847656 C 11.128906 2.847656 12.71875 4.738281 12.71875 7.066406 C 12.71875 9.394531 11.128906 11.285156 9.167969 11.285156 C 7.207031 11.285156 5.617188 9.394531 5.617188 7.066406 "/>
<path style=" stroke:none;fill-rule:nonzero;fill:rgb(75.686275%,41.176471%,30.980392%);fill-opacity:1;" d="M 9.167969 9.917969 C 8.019531 9.917969 7.667969 9.625 7.609375 9.5625 C 7.5 9.457031 7.5 9.285156 7.609375 9.179688 C 7.710938 9.074219 7.878906 9.070312 7.984375 9.167969 C 8.003906 9.183594 8.285156 9.371094 9.167969 9.371094 C 10.082031 9.371094 10.347656 9.167969 10.351562 9.167969 C 10.457031 9.0625 10.625 9.066406 10.730469 9.171875 C 10.839844 9.28125 10.832031 9.457031 10.726562 9.5625 C 10.667969 9.625 10.3125 9.917969 9.167969 9.917969 "/>
<path style=" stroke:none;fill-rule:nonzero;fill:rgb(16.078431%,18.431373%,20%);fill-opacity:1;" d="M 9.167969 1.449219 C 11.519531 1.449219 12.992188 3.1875 12.992188 4.632812 C 12.992188 6.082031 12.695312 6.660156 12.402344 6.082031 L 11.8125 4.921875 C 11.8125 4.921875 10.050781 4.921875 9.460938 4.34375 C 9.460938 4.34375 10.34375 6.082031 8.578125 4.34375 C 8.578125 4.34375 8.871094 5.503906 7.109375 4.054688 C 7.109375 4.054688 6.226562 4.632812 5.929688 6.082031 C 5.847656 6.484375 5.34375 6.082031 5.34375 4.632812 C 5.34375 3.1875 6.519531 1.449219 9.167969 1.449219 "/>
<path style=" stroke:none;fill-rule:nonzero;fill:rgb(40%,12.941176%,7.45098%);fill-opacity:1;" d="M 7.5 7.082031 C 7.269531 7.082031 7.082031 6.894531 7.082031 6.667969 L 7.082031 6.25 C 7.082031 6.019531 7.269531 5.832031 7.5 5.832031 C 7.730469 5.832031 7.917969 6.019531 7.917969 6.25 L 7.917969 6.667969 C 7.917969 6.894531 7.730469 7.082031 7.5 7.082031 M 10.832031 7.082031 C 10.605469 7.082031 10.417969 6.894531 10.417969 6.667969 L 10.417969 6.25 C 10.417969 6.019531 10.605469 5.832031 10.832031 5.832031 C 11.0625 5.832031 11.25 6.019531 11.25 6.25 L 11.25 6.667969 C 11.25 6.894531 11.0625 7.082031 10.832031 7.082031 "/>
<path style=" stroke:none;fill-rule:nonzero;fill:rgb(75.686275%,41.176471%,30.980392%);fill-opacity:1;" d="M 9.480469 8.230469 L 8.855469 8.230469 C 8.683594 8.230469 8.542969 8.089844 8.542969 7.917969 C 8.542969 7.746094 8.683594 7.605469 8.855469 7.605469 L 9.480469 7.605469 C 9.652344 7.605469 9.792969 7.746094 9.792969 7.917969 C 9.792969 8.089844 9.652344 8.230469 9.480469 8.230469 "/>
<path style=" stroke:none;fill-rule:nonzero;fill:rgb(33.333333%,67.45098%,93.333333%);fill-opacity:1;" d="M 13.75 13.75 L 13.75 15 L 15 15 L 15 14.167969 C 15 14.023438 14.984375 13.886719 14.960938 13.75 Z M 13.75 13.75 "/>
<path style=" stroke:none;fill-rule:nonzero;fill:rgb(100%,80%,30.196078%);fill-opacity:1;" d="M 14.167969 14.167969 L 15 14.167969 L 15 15 L 14.167969 15 Z M 14.167969 14.167969 "/>
<path style=" stroke:none;fill-rule:nonzero;fill:rgb(88.235294%,90.980392%,92.941176%);fill-opacity:1;" d="M 10 15 C 9.503906 12.855469 7.480469 11.25 5.0625 11.25 C 2.640625 11.25 0.621094 12.855469 0.121094 15 Z M 10 15 "/>
<path style=" stroke:none;fill-rule:nonzero;fill:rgb(16.078431%,18.431373%,20%);fill-opacity:1;" d="M 9.445312 15 C 8.957031 13.140625 7.183594 11.757812 5.0625 11.757812 C 2.941406 11.757812 1.164062 13.140625 0.675781 15 Z M 9.445312 15 "/>
<path style=" stroke:none;fill-rule:nonzero;fill:rgb(100%,67.45098%,20%);fill-opacity:1;" d="M 9.015625 15 C 8.539062 13.359375 6.949219 12.152344 5.0625 12.152344 C 3.171875 12.152344 1.585938 13.359375 1.105469 15 Z M 9.015625 15 "/>
<path style=" stroke:none;fill-rule:nonzero;fill:rgb(100%,86.27451%,36.470588%);fill-opacity:1;" d="M 7.582031 14.605469 L 7.625 14.578125 C 7.945312 14.382812 8.011719 13.9375 7.75 13.667969 C 7.554688 13.46875 7.335938 13.289062 7.097656 13.140625 C 6.863281 12.996094 6.613281 12.882812 6.351562 12.796875 C 6.007812 12.683594 5.640625 12.890625 5.574219 13.25 C 5.527344 13.527344 5.667969 13.8125 5.933594 13.90625 C 6.292969 14.039062 6.609375 14.253906 6.863281 14.523438 C 7.046875 14.71875 7.351562 14.742188 7.582031 14.605469 "/>
<path style=" stroke:none;fill-rule:nonzero;fill:rgb(57.254902%,40%,80%);fill-opacity:1;" d="M 2.644531 5.941406 L 2 5.703125 L 1.75 4.789062 C 1.71875 4.667969 1.609375 4.582031 1.484375 4.582031 C 1.359375 4.582031 1.246094 4.667969 1.214844 4.789062 L 0.964844 5.703125 L 0.320312 5.941406 C 0.214844 5.984375 0.140625 6.085938 0.140625 6.203125 C 0.140625 6.320312 0.214844 6.421875 0.320312 6.464844 L 0.960938 6.699219 L 1.214844 7.707031 C 1.246094 7.828125 1.355469 7.917969 1.484375 7.917969 C 1.609375 7.917969 1.722656 7.828125 1.753906 7.707031 L 2.003906 6.699219 L 2.644531 6.464844 C 2.753906 6.421875 2.824219 6.320312 2.824219 6.203125 C 2.824219 6.085938 2.753906 5.984375 2.644531 5.941406 "/>
<path style=" stroke:none;fill-rule:nonzero;fill:rgb(36.470588%,67.843137%,92.54902%);fill-opacity:1;" d="M 4.699219 1.929688 L 3.613281 1.527344 L 3.210938 0.441406 C 3.144531 0.261719 2.972656 0.140625 2.777344 0.140625 C 2.585938 0.140625 2.414062 0.261719 2.347656 0.441406 L 1.945312 1.527344 L 0.859375 1.929688 C 0.675781 1.996094 0.558594 2.167969 0.558594 2.363281 C 0.558594 2.554688 0.675781 2.726562 0.859375 2.792969 L 1.945312 3.195312 L 2.347656 4.285156 C 2.414062 4.464844 2.585938 4.582031 2.777344 4.582031 C 2.972656 4.582031 3.144531 4.464844 3.210938 4.285156 L 3.613281 3.195312 L 4.699219 2.792969 C 4.878906 2.726562 5 2.554688 5 2.363281 C 5 2.167969 4.878906 1.996094 4.699219 1.929688 "/>
</g>
</svg>
