<?xml version="1.0" encoding="UTF-8"?>
<svg xmlns="http://www.w3.org/2000/svg" xmlns:xlink="http://www.w3.org/1999/xlink" width="15pt" height="15pt" viewBox="0 0 15 15" version="1.1">
<g id="surface1">
<path style=" stroke:none;fill-rule:nonzero;fill:rgb(16.470588%,40.392157%,59.215686%);fill-opacity:1;" d="M 12.890625 15 L 12.890625 13.542969 C 12.890625 12.160156 11.355469 11.25 9.976562 11.25 L 4.976562 11.25 C 3.59375 11.25 2.058594 12.160156 2.058594 13.542969 L 2.058594 15 Z M 12.890625 15 "/>
<path style=" stroke:none;fill-rule:nonzero;fill:rgb(16.470588%,40.392157%,59.215686%);fill-opacity:1;" d="M 12.5 3.125 C 12.5 1.398438 10.261719 0 7.5 0 C 4.738281 0 2.5 1.398438 2.5 3.125 C 2.5 4.851562 4.738281 6.25 7.5 6.25 C 10.261719 6.25 12.5 4.851562 12.5 3.125 Z M 12.5 3.125 "/>
<path style=" stroke:none;fill-rule:nonzero;fill:rgb(37.647059%,20.784314%,16.470588%);fill-opacity:1;" d="M 7.453125 2.113281 C 9.164062 2.113281 12.015625 2.96875 12.015625 6.671875 C 12.015625 10.378906 12.015625 11.234375 11.160156 11.234375 C 10.304688 11.234375 9.164062 10.378906 7.453125 10.378906 C 5.742188 10.378906 4.625 11.234375 3.746094 11.234375 C 2.792969 11.234375 2.890625 7.8125 2.890625 6.671875 C 2.890625 2.96875 5.742188 2.113281 7.453125 2.113281 "/>
<path style=" stroke:none;fill-rule:nonzero;fill:rgb(68.627451%,49.411765%,34.117647%);fill-opacity:1;" d="M 5.945312 12.28125 C 6.554688 12.726562 7.179688 12.691406 7.476562 12.691406 C 7.769531 12.691406 8.390625 12.726562 9 12.28125 L 9 9.921875 L 5.945312 9.921875 Z M 5.945312 12.28125 "/>
<path style=" stroke:none;fill-rule:nonzero;fill:rgb(60.784314%,41.568627%,28.627451%);fill-opacity:1;" d="M 5.941406 10.492188 C 6.371094 10.972656 6.898438 11.101562 7.472656 11.101562 C 8.046875 11.101562 8.574219 10.972656 9 10.492188 L 9 9.269531 L 5.941406 9.269531 Z M 5.941406 10.492188 "/>
<path style=" stroke:none;fill-rule:nonzero;fill:rgb(68.627451%,49.411765%,34.117647%);fill-opacity:1;" d="M 4.03125 6.550781 C 4.03125 4.117188 5.5625 2.148438 7.453125 2.148438 C 9.339844 2.148438 10.871094 4.117188 10.871094 6.550781 C 10.871094 8.980469 9.339844 10.835938 7.453125 10.835938 C 5.5625 10.835938 4.03125 8.980469 4.03125 6.550781 "/>
<path style=" stroke:none;fill-rule:nonzero;fill:rgb(37.647059%,20.784314%,16.470588%);fill-opacity:1;" d="M 3.195312 7.917969 C 3.1875 7.5 3.175781 7.824219 3.175781 7.722656 C 3.175781 6.296875 4.03125 7.929688 4.03125 6.914062 C 4.03125 5.898438 4.601562 5.796875 5.171875 5.226562 C 5.457031 4.941406 6.027344 4.382812 6.027344 4.382812 C 6.027344 4.382812 7.453125 5.242188 8.59375 5.242188 C 9.734375 5.242188 10.875 5.816406 10.875 6.957031 C 10.875 8.097656 11.730469 6.296875 11.730469 7.722656 C 11.730469 7.824219 11.71875 7.5 11.710938 7.917969 L 12.011719 7.917969 C 12.015625 7.082031 12.015625 7.113281 12.015625 6.582031 C 12.015625 2.875 9.164062 1.71875 7.453125 1.71875 C 5.742188 1.71875 2.890625 2.851562 2.890625 6.558594 C 2.890625 6.890625 2.882812 7.082031 2.894531 7.917969 Z M 3.195312 7.917969 "/>
<path style=" stroke:none;fill-rule:nonzero;fill:rgb(68.627451%,49.411765%,34.117647%);fill-opacity:1;" d="M 11.574219 6.640625 C 11.574219 7.242188 11.265625 7.734375 10.890625 7.734375 C 10.511719 7.734375 10.207031 7.242188 10.207031 6.640625 C 10.207031 6.035156 10.511719 5.546875 10.890625 5.546875 C 11.265625 5.546875 11.574219 6.035156 11.574219 6.640625 M 4.746094 6.640625 C 4.746094 7.242188 4.4375 7.734375 4.0625 7.734375 C 3.683594 7.734375 3.378906 7.242188 3.378906 6.640625 C 3.378906 6.035156 3.683594 5.546875 4.0625 5.546875 C 4.4375 5.546875 4.746094 6.035156 4.746094 6.640625 "/>
<path style=" stroke:none;fill-rule:nonzero;fill:rgb(87.45098%,12.156863%,19.607843%);fill-opacity:1;" d="M 7.453125 9.808594 C 6.785156 9.808594 6.433594 9.480469 6.394531 9.441406 C 6.285156 9.328125 6.285156 9.148438 6.394531 9.039062 C 6.507812 8.925781 6.683594 8.925781 6.796875 9.035156 C 6.8125 9.046875 7.027344 9.238281 7.453125 9.238281 C 7.886719 9.238281 8.101562 9.042969 8.109375 9.035156 C 8.222656 8.929688 8.402344 8.929688 8.511719 9.042969 C 8.621094 9.15625 8.621094 9.332031 8.507812 9.441406 C 8.472656 9.480469 8.121094 9.808594 7.453125 9.808594 "/>
<path style=" stroke:none;fill-rule:nonzero;fill:rgb(37.647059%,20.784314%,16.470588%);fill-opacity:1;" d="M 6.0625 7.453125 C 5.867188 7.453125 5.710938 7.292969 5.710938 7.101562 L 5.710938 6.746094 C 5.710938 6.554688 5.867188 6.394531 6.0625 6.394531 C 6.257812 6.394531 6.414062 6.554688 6.414062 6.746094 L 6.414062 7.101562 C 6.414062 7.292969 6.257812 7.453125 6.0625 7.453125 M 8.882812 7.453125 C 8.6875 7.453125 8.527344 7.292969 8.527344 7.101562 L 8.527344 6.746094 C 8.527344 6.554688 8.6875 6.394531 8.882812 6.394531 C 9.074219 6.394531 9.234375 6.554688 9.234375 6.746094 L 9.234375 7.101562 C 9.234375 7.292969 9.074219 7.453125 8.882812 7.453125 "/>
<path style=" stroke:none;fill-rule:nonzero;fill:rgb(56.862745%,35.294118%,20.392157%);fill-opacity:1;" d="M 7.824219 8.542969 L 7.121094 8.542969 C 7.023438 8.542969 6.941406 8.460938 6.941406 8.367188 L 6.941406 8.300781 C 6.941406 8.203125 7.023438 8.125 7.121094 8.125 L 7.824219 8.125 C 7.921875 8.125 8 8.203125 8 8.300781 L 8 8.367188 C 8 8.460938 7.921875 8.542969 7.824219 8.542969 "/>
<path style=" stroke:none;fill-rule:nonzero;fill:rgb(16.470588%,40.392157%,59.215686%);fill-opacity:1;" d="M 3.542969 3.332031 L 3.542969 3.75 C 3.542969 4.210938 5.3125 4.582031 7.5 4.582031 C 9.6875 4.582031 11.457031 4.210938 11.457031 3.75 L 11.457031 3.332031 Z M 3.542969 3.332031 "/>
<path style=" stroke:none;fill-rule:nonzero;fill:rgb(25.882353%,53.72549%,75.686275%);fill-opacity:1;" d="M 11.25 3.332031 L 11.25 2.5 C 11.25 2.5 9.6875 1.5625 7.5 1.5625 C 5.3125 1.5625 3.75 2.5 3.75 2.5 L 3.75 3.332031 Z M 11.25 3.332031 "/>
<path style=" stroke:none;fill-rule:nonzero;fill:rgb(99.215686%,79.607843%,34.509804%);fill-opacity:1;" d="M 11.457031 3.332031 L 3.542969 3.332031 C 3.425781 3.332031 3.332031 3.425781 3.332031 3.542969 C 3.332031 3.65625 3.425781 3.75 3.542969 3.75 L 11.457031 3.75 C 11.574219 3.75 11.667969 3.65625 11.667969 3.542969 C 11.667969 3.425781 11.574219 3.332031 11.457031 3.332031 Z M 11.457031 3.332031 "/>
<path style=" stroke:none;fill-rule:nonzero;fill:rgb(9.803922%,23.921569%,34.901961%);fill-opacity:1;" d="M 9.207031 13.777344 C 9.269531 13.804688 9.054688 12.253906 9.054688 12.253906 L 5.949219 12.253906 C 5.949219 12.253906 5.730469 13.832031 5.851562 13.765625 C 6.148438 13.605469 6.210938 13.5625 6.699219 13.207031 C 6.714844 13.25 6.730469 13.289062 6.742188 13.3125 C 6.808594 13.429688 6.964844 13.6875 6.964844 13.6875 C 6.964844 13.6875 6.621094 14.164062 6.503906 15 L 8.484375 15 C 8.367188 14.335938 8.046875 13.6875 8.046875 13.6875 C 8.316406 13.238281 8.335938 13.1875 8.269531 13.3125 C 8.28125 13.285156 8.296875 13.25 8.3125 13.203125 C 8.679688 13.464844 9.066406 13.722656 9.207031 13.777344 Z M 9.207031 13.777344 "/>
<path style=" stroke:none;fill-rule:nonzero;fill:rgb(25.882353%,53.72549%,75.686275%);fill-opacity:1;" d="M 5.539062 10.851562 C 5.773438 11.085938 7.5 12.261719 7.5 12.261719 C 7.5 12.261719 6.613281 12.777344 5.796875 13.734375 C 5.714844 13.828125 5.15625 11.804688 5.140625 11.355469 C 5.132812 11.226562 5.425781 10.738281 5.539062 10.851562 M 9.472656 10.851562 C 9.234375 11.085938 7.507812 12.261719 7.507812 12.261719 C 7.507812 12.261719 8.394531 12.777344 9.210938 13.734375 C 9.292969 13.828125 9.851562 11.804688 9.871094 11.355469 C 9.875 11.226562 9.582031 10.738281 9.472656 10.851562 "/>
<path style=" stroke:none;fill-rule:nonzero;fill:rgb(11.764706%,29.411765%,43.137255%);fill-opacity:1;" d="M 7.507812 12.542969 C 7.667969 12.535156 8.148438 12.863281 8.097656 13.066406 C 7.90625 13.824219 7.746094 13.644531 7.519531 13.644531 C 7.265625 13.644531 7.117188 13.839844 6.941406 13.097656 C 6.902344 12.9375 7.273438 12.558594 7.507812 12.542969 M 8.332031 15 C 8.332031 15 8.132812 13.855469 7.515625 13.855469 C 6.902344 13.855469 6.679688 15 6.679688 15 L 8.332031 15 "/>
<path style=" stroke:none;fill-rule:nonzero;fill:rgb(99.215686%,79.607843%,34.509804%);fill-opacity:1;" d="M 8.4375 0.625 C 8.339844 0.625 8.257812 0.671875 8.199219 0.742188 C 8.082031 0.773438 7.921875 0.777344 7.71875 0.714844 C 7.660156 0.660156 7.585938 0.625 7.5 0.625 C 7.417969 0.625 7.339844 0.660156 7.285156 0.714844 C 7.078125 0.777344 6.917969 0.773438 6.800781 0.742188 C 6.746094 0.671875 6.660156 0.625 6.5625 0.625 C 6.390625 0.625 6.25 0.765625 6.25 0.9375 C 6.25 1.109375 6.390625 1.25 6.5625 1.25 C 6.5625 2.5 7.1875 2.8125 7.5 2.8125 C 7.8125 2.8125 8.4375 2.5 8.4375 1.25 C 8.609375 1.25 8.75 1.109375 8.75 0.9375 C 8.75 0.765625 8.609375 0.625 8.4375 0.625 Z M 8.4375 0.625 "/>
<path style=" stroke:none;fill-rule:nonzero;fill:rgb(25.882353%,53.72549%,75.686275%);fill-opacity:1;" d="M 4.617188 12.039062 L 2.792969 12.605469 C 2.683594 12.640625 2.566406 12.582031 2.53125 12.472656 L 2.402344 12.074219 C 2.367188 11.964844 2.425781 11.847656 2.535156 11.8125 L 4.359375 11.246094 C 4.46875 11.210938 4.589844 11.269531 4.625 11.378906 L 4.753906 11.777344 C 4.785156 11.882812 4.726562 12.003906 4.617188 12.039062 "/>
<path style=" stroke:none;fill-rule:nonzero;fill:rgb(100%,100%,100%);fill-opacity:1;" d="M 4.511719 11.683594 C 4.511719 11.816406 4.402344 11.925781 4.273438 11.925781 C 4.140625 11.925781 4.03125 11.816406 4.03125 11.683594 C 4.03125 11.550781 4.140625 11.445312 4.273438 11.445312 C 4.402344 11.445312 4.511719 11.550781 4.511719 11.683594 Z M 4.511719 11.683594 "/>
<path style=" stroke:none;fill-rule:nonzero;fill:rgb(25.882353%,53.72549%,75.686275%);fill-opacity:1;" d="M 10.347656 12.039062 L 12.171875 12.605469 C 12.28125 12.640625 12.402344 12.582031 12.4375 12.472656 L 12.566406 12.074219 C 12.601562 11.964844 12.539062 11.847656 12.429688 11.8125 L 10.605469 11.246094 C 10.496094 11.210938 10.378906 11.269531 10.34375 11.378906 L 10.214844 11.777344 C 10.179688 11.882812 10.238281 12.003906 10.347656 12.039062 "/>
<path style=" stroke:none;fill-rule:nonzero;fill:rgb(100%,100%,100%);fill-opacity:1;" d="M 10.933594 11.683594 C 10.933594 11.816406 10.828125 11.925781 10.695312 11.925781 C 10.5625 11.925781 10.453125 11.816406 10.453125 11.683594 C 10.453125 11.550781 10.5625 11.445312 10.695312 11.445312 C 10.828125 11.445312 10.933594 11.550781 10.933594 11.683594 Z M 10.933594 11.683594 "/>
</g>
</svg>
