<?xml version="1.0" encoding="UTF-8"?>
<svg xmlns="http://www.w3.org/2000/svg" xmlns:xlink="http://www.w3.org/1999/xlink" width="15pt" height="15pt" viewBox="0 0 15 15" version="1.1">
<g id="surface1">
<path style=" stroke:none;fill-rule:nonzero;fill:rgb(100%,86.27451%,36.470588%);fill-opacity:1;" d="M 3.566406 14.203125 C 3.621094 14.53125 2.695312 14.808594 2.574219 14.753906 C 2.449219 14.699219 2.988281 14.417969 2.976562 14.246094 C 2.933594 13.359375 2.601562 13.425781 2.636719 12.503906 C 2.304688 11.511719 2.488281 10.578125 2.597656 10.246094 C 2.789062 9.660156 3.902344 10.558594 3.847656 10.933594 C 3.765625 11.550781 3.519531 12.007812 3.507812 12.496094 C 3.683594 13.28125 3.4375 13.433594 3.566406 14.203125 Z M 6.558594 13.839844 C 6.707031 14.136719 6.863281 14.660156 6.734375 14.644531 C 6.59375 14.625 6.152344 14.433594 6.011719 14.050781 C 5.703125 13.21875 5.28125 13.445312 5.046875 12.550781 C 4.613281 11.890625 4.046875 10.933594 3.957031 10.683594 C 3.746094 10.105469 5.371094 9.960938 5.464844 10.324219 C 5.671875 11.121094 5.675781 11.722656 5.808594 12.199219 C 6.207031 12.898438 6.214844 13.140625 6.558594 13.839844 Z M 6.558594 13.839844 "/>
<path style=" stroke:none;fill-rule:nonzero;fill:rgb(100%,86.27451%,36.470588%);fill-opacity:1;" d="M 2.445312 10.859375 C 2.378906 10.921875 2.210938 10.957031 2.171875 10.945312 C 2.070312 10.921875 1.851562 10.769531 1.726562 10.617188 C 1.503906 10.347656 0.621094 10.0625 0.386719 9.484375 C 0.34375 9.386719 0.347656 9.269531 0.417969 9.125 C 0.460938 9.039062 1.054688 8.058594 1.597656 7.539062 C 1.777344 7.371094 1.996094 7.175781 2.253906 7.152344 C 2.472656 7.132812 2.691406 7.644531 2.597656 7.84375 C 2.285156 8.480469 1.34375 8.929688 1.078125 9.296875 C 1.496094 9.628906 1.457031 9.84375 2.03125 10.179688 C 2.09375 10.140625 2.21875 10.105469 2.25 10.113281 C 2.285156 10.121094 2.363281 10.171875 2.351562 10.273438 C 2.363281 10.28125 2.449219 10.351562 2.46875 10.390625 C 2.527344 10.488281 2.53125 10.777344 2.445312 10.859375 Z M 5.605469 10.910156 C 5.675781 10.96875 5.847656 10.984375 5.886719 10.96875 C 5.984375 10.933594 6.1875 10.761719 6.292969 10.597656 C 6.492188 10.304688 7.339844 9.933594 7.515625 9.335938 C 7.542969 9.234375 7.53125 9.113281 7.445312 8.980469 C 7.390625 8.898438 6.757812 8.03125 6.203125 7.527344 C 6.054688 7.394531 5.71875 7.054688 5.550781 7.199219 C 5.378906 7.34375 4.980469 7.75 5.097656 7.933594 C 5.472656 8.535156 6.503906 8.878906 6.808594 9.214844 C 6.421875 9.59375 6.484375 9.800781 5.949219 10.195312 C 5.882812 10.160156 5.753906 10.140625 5.722656 10.152344 C 5.6875 10.160156 5.617188 10.222656 5.640625 10.320312 C 5.628906 10.328125 5.550781 10.40625 5.53125 10.445312 C 5.488281 10.550781 5.511719 10.839844 5.605469 10.910156 Z M 5.605469 10.910156 "/>
<path style=" stroke:none;fill-rule:nonzero;fill:rgb(16.078431%,18.431373%,20%);fill-opacity:1;" d="M 5.886719 7.234375 C 5.589844 7.066406 5.339844 6.9375 4.878906 6.9375 L 2.933594 6.9375 C 2.652344 6.9375 2.296875 7.0625 1.953125 7.234375 C 2.03125 7.488281 2.132812 8.109375 2.242188 8.480469 C 2.347656 8.835938 2.675781 9.378906 2.574219 9.796875 C 2.519531 10.023438 2.371094 11.328125 2.4375 11.753906 C 2.816406 11.785156 3.304688 11.828125 3.667969 11.898438 C 3.765625 11.59375 3.855469 11.265625 3.847656 11.28125 C 3.945312 11.285156 4.09375 11.273438 4.183594 11.253906 C 4.277344 11.421875 4.578125 11.867188 4.578125 11.867188 C 4.578125 11.867188 5.257812 11.75 5.742188 11.632812 C 5.707031 11.144531 5.464844 10.128906 5.359375 9.792969 C 5.238281 9.414062 5.507812 8.722656 5.574219 8.480469 C 5.636719 8.257812 5.886719 7.234375 5.886719 7.234375 Z M 5.886719 7.234375 "/>
<path style=" stroke:none;fill-rule:nonzero;fill:rgb(100%,86.27451%,36.470588%);fill-opacity:1;" d="M 5.019531 7.226562 C 5.019531 7.046875 4.972656 6.9375 4.742188 6.9375 L 4.742188 5.6875 L 3.074219 5.6875 L 3.074219 6.9375 C 2.84375 6.9375 2.796875 7.046875 2.796875 7.226562 C 2.796875 7.324219 2.796875 8.167969 3.90625 8.171875 L 3.910156 8.171875 C 5.019531 8.167969 5.019531 7.324219 5.019531 7.226562 Z M 5.019531 7.226562 "/>
<path style=" stroke:none;fill-rule:nonzero;fill:rgb(97.647059%,79.215686%,33.333333%);fill-opacity:1;" d="M 3.074219 6.765625 C 3.328125 7.054688 3.566406 7.125 3.90625 7.125 C 4.25 7.125 4.488281 7.054688 4.742188 6.765625 L 4.742188 6.429688 L 3.074219 6.429688 Z M 3.074219 6.765625 "/>
<path style=" stroke:none;fill-rule:nonzero;fill:rgb(100%,67.45098%,20%);fill-opacity:1;" d="M 4.816406 1.1875 C 4.347656 1.035156 3.242188 1.078125 2.964844 1.4375 C 2.246094 1.449219 1.40625 2.097656 1.292969 2.957031 C 1.183594 3.804688 1.429688 4.195312 1.515625 4.832031 C 1.613281 5.554688 2.019531 5.785156 2.34375 5.882812 C 2.808594 6.5 3.308594 6.472656 4.140625 6.472656 C 5.765625 6.472656 6.542969 5.382812 6.609375 3.535156 C 6.652344 2.417969 5.996094 1.570312 4.816406 1.1875 Z M 4.816406 1.1875 "/>
<path style=" stroke:none;fill-rule:nonzero;fill:rgb(100%,86.27451%,36.470588%);fill-opacity:1;" d="M 5.746094 3.613281 C 5.589844 3.398438 5.386719 3.222656 4.945312 3.160156 C 5.113281 3.234375 5.269531 3.496094 5.289062 3.640625 C 5.3125 3.785156 5.332031 3.90625 5.203125 3.757812 C 4.675781 3.179688 4.101562 3.40625 3.535156 3.050781 C 3.140625 2.804688 3.019531 2.53125 3.019531 2.53125 C 3.019531 2.53125 2.972656 2.898438 2.371094 3.269531 C 2.195312 3.378906 1.988281 3.617188 1.875 3.972656 C 1.789062 4.230469 1.816406 4.457031 1.816406 4.847656 C 1.816406 5.984375 2.753906 6.9375 3.910156 6.9375 C 5.0625 6.9375 6 5.972656 6 4.847656 C 6 4.140625 5.925781 3.863281 5.746094 3.613281 Z M 5.746094 3.613281 "/>
<path style=" stroke:none;fill-rule:nonzero;fill:rgb(75.686275%,41.176471%,30.980392%);fill-opacity:1;" d="M 4.839844 6.007812 L 2.976562 6.007812 C 2.976562 6.007812 3.210938 6.472656 3.90625 6.472656 C 4.605469 6.472656 4.839844 6.007812 4.839844 6.007812 Z M 4.140625 5.425781 L 3.675781 5.425781 C 3.609375 5.425781 3.558594 5.375 3.558594 5.3125 C 3.558594 5.246094 3.609375 5.195312 3.675781 5.195312 L 4.140625 5.195312 C 4.203125 5.195312 4.257812 5.246094 4.257812 5.3125 C 4.257812 5.375 4.203125 5.425781 4.140625 5.425781 Z M 4.140625 5.425781 "/>
<path style=" stroke:none;fill-rule:nonzero;fill:rgb(40%,12.941176%,7.45098%);fill-opacity:1;" d="M 2.976562 4.613281 C 2.851562 4.613281 2.746094 4.507812 2.746094 4.382812 L 2.746094 4.148438 C 2.746094 4.019531 2.851562 3.917969 2.976562 3.917969 C 3.105469 3.917969 3.210938 4.019531 3.210938 4.148438 L 3.210938 4.382812 C 3.210938 4.507812 3.105469 4.613281 2.976562 4.613281 Z M 4.839844 4.613281 C 4.710938 4.613281 4.605469 4.507812 4.605469 4.382812 L 4.605469 4.148438 C 4.605469 4.019531 4.710938 3.917969 4.839844 3.917969 C 4.964844 3.917969 5.070312 4.019531 5.070312 4.148438 L 5.070312 4.382812 C 5.070312 4.507812 4.964844 4.613281 4.839844 4.613281 Z M 4.839844 4.613281 "/>
<path style=" stroke:none;fill-rule:nonzero;fill:rgb(16.078431%,18.431373%,20%);fill-opacity:1;" d="M 1.695312 0.324219 C 2.789062 0.234375 3.257812 1.523438 2.945312 2.09375 C 2.125 2.09375 1.304688 1.339844 1.695312 0.324219 Z M 5.855469 0.347656 C 4.761719 0.257812 4.292969 1.546875 4.605469 2.121094 C 5.425781 2.121094 6.246094 1.367188 5.855469 0.347656 Z M 5.855469 0.347656 "/>
<path style=" stroke:none;fill-rule:nonzero;fill:rgb(16.078431%,18.431373%,20%);fill-opacity:1;" d="M 2.789062 1.625 C 3.542969 1.027344 4.597656 1.183594 4.9375 1.691406 C 4.949219 1.820312 4.78125 2.183594 4.648438 2.121094 C 4.3125 1.964844 3.738281 1.730469 2.957031 2.09375 C 2.917969 2.066406 2.773438 1.636719 2.789062 1.625 Z M 5.976562 14.039062 C 5.816406 14.234375 6.191406 14.820312 6.472656 14.941406 C 6.707031 15.039062 7.117188 15.003906 7.242188 14.753906 C 7.316406 14.597656 6.808594 13.988281 6.648438 13.949219 C 6.484375 13.914062 6.894531 14.148438 6.5 14.183594 C 6.214844 14.210938 5.976562 14.039062 5.976562 14.039062 Z M 3.566406 14.203125 C 3.777344 14.382812 3.835938 14.816406 3.121094 14.953125 C 2.589844 15.054688 2.191406 14.988281 2.140625 14.792969 C 2.078125 14.546875 2.761719 14.261719 2.933594 14.222656 C 3.105469 14.1875 2.734375 14.457031 3.03125 14.445312 C 3.328125 14.433594 3.566406 14.203125 3.566406 14.203125 Z M 3.566406 14.203125 "/>
<path style=" stroke:none;fill-rule:nonzero;fill:rgb(100%,86.27451%,36.470588%);fill-opacity:1;" d="M 10.683594 14.203125 C 10.738281 14.53125 9.8125 14.808594 9.691406 14.753906 C 9.566406 14.699219 10.105469 14.417969 10.097656 14.246094 C 10.050781 13.359375 9.71875 13.425781 9.753906 12.503906 C 9.421875 11.511719 9.605469 10.578125 9.714844 10.246094 C 9.90625 9.660156 11.019531 10.558594 10.96875 10.933594 C 10.882812 11.550781 10.636719 12.007812 10.628906 12.496094 C 10.800781 13.28125 10.554688 13.433594 10.683594 14.203125 Z M 13.679688 13.839844 C 13.824219 14.136719 13.980469 14.660156 13.851562 14.644531 C 13.714844 14.625 13.269531 14.433594 13.128906 14.050781 C 12.820312 13.21875 12.398438 13.445312 12.167969 12.550781 C 11.730469 11.890625 11.164062 10.933594 11.074219 10.683594 C 10.863281 10.105469 12.488281 9.960938 12.582031 10.324219 C 12.789062 11.121094 12.792969 11.722656 12.929688 12.199219 C 13.324219 12.898438 13.332031 13.140625 13.679688 13.839844 Z M 13.679688 13.839844 "/>
<path style=" stroke:none;fill-rule:nonzero;fill:rgb(100%,86.27451%,36.470588%);fill-opacity:1;" d="M 9.5625 10.859375 C 9.496094 10.921875 9.328125 10.957031 9.289062 10.945312 C 9.191406 10.921875 8.96875 10.769531 8.847656 10.617188 C 8.621094 10.347656 7.738281 10.0625 7.503906 9.484375 C 7.464844 9.386719 7.464844 9.269531 7.535156 9.125 C 7.578125 9.039062 8.175781 8.058594 8.714844 7.539062 C 8.894531 7.371094 9.113281 7.175781 9.371094 7.152344 C 9.59375 7.132812 9.808594 7.644531 9.714844 7.84375 C 9.402344 8.480469 8.460938 8.929688 8.195312 9.296875 C 8.617188 9.628906 8.574219 9.84375 9.148438 10.179688 C 9.210938 10.140625 9.335938 10.105469 9.371094 10.113281 C 9.402344 10.121094 9.480469 10.171875 9.46875 10.273438 C 9.480469 10.28125 9.566406 10.351562 9.585938 10.390625 C 9.644531 10.488281 9.648438 10.777344 9.5625 10.859375 Z M 12.722656 10.910156 C 12.796875 10.96875 12.964844 10.984375 13.003906 10.96875 C 13.101562 10.933594 13.304688 10.761719 13.410156 10.597656 C 13.609375 10.304688 14.457031 9.933594 14.632812 9.335938 C 14.660156 9.234375 14.648438 9.113281 14.5625 8.980469 C 14.507812 8.898438 13.878906 8.03125 13.320312 7.527344 C 13.171875 7.394531 12.835938 7.054688 12.667969 7.199219 C 12.496094 7.34375 12.097656 7.75 12.214844 7.933594 C 12.589844 8.535156 13.621094 8.878906 13.925781 9.214844 C 13.539062 9.59375 13.601562 9.800781 13.066406 10.195312 C 13 10.160156 12.871094 10.140625 12.839844 10.152344 C 12.808594 10.160156 12.734375 10.222656 12.757812 10.320312 C 12.746094 10.328125 12.667969 10.40625 12.652344 10.445312 C 12.605469 10.550781 12.628906 10.839844 12.722656 10.910156 Z M 12.722656 10.910156 "/>
<path style=" stroke:none;fill-rule:nonzero;fill:rgb(16.078431%,18.431373%,20%);fill-opacity:1;" d="M 12.980469 7.234375 C 12.679688 7.066406 12.433594 6.9375 11.972656 6.9375 L 10.027344 6.9375 C 9.746094 6.9375 9.390625 7.0625 9.046875 7.234375 C 9.125 7.488281 9.222656 8.109375 9.332031 8.480469 C 9.4375 8.835938 9.769531 9.378906 9.664062 9.796875 C 9.609375 10.023438 9.460938 11.328125 9.53125 11.753906 C 9.90625 11.785156 10.394531 11.828125 10.761719 11.898438 C 10.859375 11.59375 10.945312 11.265625 10.941406 11.28125 C 11.039062 11.285156 11.183594 11.273438 11.273438 11.253906 C 11.371094 11.421875 11.671875 11.867188 11.671875 11.867188 C 11.671875 11.867188 12.351562 11.75 12.832031 11.632812 C 12.796875 11.144531 12.558594 10.128906 12.453125 9.792969 C 12.332031 9.414062 12.597656 8.722656 12.667969 8.480469 C 12.726562 8.257812 12.980469 7.234375 12.980469 7.234375 Z M 12.980469 7.234375 "/>
<path style=" stroke:none;fill-rule:nonzero;fill:rgb(100%,86.27451%,36.470588%);fill-opacity:1;" d="M 12.140625 7.226562 C 12.140625 7.046875 12.089844 6.9375 11.859375 6.9375 L 11.859375 5.6875 L 10.191406 5.6875 L 10.191406 6.9375 C 9.960938 6.9375 9.914062 7.046875 9.914062 7.226562 C 9.914062 7.324219 9.914062 8.167969 11.027344 8.171875 C 12.140625 8.167969 12.140625 7.324219 12.140625 7.226562 Z M 12.140625 7.226562 "/>
<path style=" stroke:none;fill-rule:nonzero;fill:rgb(97.647059%,79.215686%,33.333333%);fill-opacity:1;" d="M 10.191406 6.765625 C 10.445312 7.054688 10.683594 7.125 11.023438 7.125 C 11.367188 7.125 11.605469 7.054688 11.859375 6.765625 L 11.859375 6.429688 L 10.191406 6.429688 Z M 10.191406 6.765625 "/>
<path style=" stroke:none;fill-rule:nonzero;fill:rgb(100%,67.45098%,20%);fill-opacity:1;" d="M 11.933594 1.1875 C 11.464844 1.035156 10.359375 1.078125 10.082031 1.4375 C 9.367188 1.449219 8.523438 2.097656 8.414062 2.957031 C 8.304688 3.804688 8.546875 4.195312 8.632812 4.832031 C 8.730469 5.554688 9.136719 5.785156 9.460938 5.882812 C 9.929688 6.5 10.425781 6.472656 11.257812 6.472656 C 12.886719 6.472656 13.660156 5.382812 13.726562 3.535156 C 13.769531 2.417969 13.113281 1.570312 11.933594 1.1875 Z M 11.933594 1.1875 "/>
<path style=" stroke:none;fill-rule:nonzero;fill:rgb(100%,86.27451%,36.470588%);fill-opacity:1;" d="M 12.863281 3.613281 C 12.707031 3.398438 12.503906 3.222656 12.0625 3.160156 C 12.230469 3.234375 12.386719 3.496094 12.410156 3.640625 C 12.429688 3.785156 12.449219 3.90625 12.320312 3.757812 C 11.792969 3.179688 11.222656 3.40625 10.652344 3.050781 C 10.257812 2.804688 10.136719 2.53125 10.136719 2.53125 C 10.136719 2.53125 10.089844 2.894531 9.488281 3.269531 C 9.3125 3.378906 9.105469 3.617188 8.992188 3.972656 C 8.90625 4.230469 8.933594 4.457031 8.933594 4.847656 C 8.933594 5.984375 9.871094 6.9375 11.027344 6.9375 C 12.179688 6.9375 13.117188 5.972656 13.117188 4.847656 C 13.117188 4.140625 13.042969 3.863281 12.863281 3.613281 Z M 12.863281 3.613281 "/>
<path style=" stroke:none;fill-rule:nonzero;fill:rgb(75.686275%,41.176471%,30.980392%);fill-opacity:1;" d="M 11.957031 6.007812 L 10.097656 6.007812 C 10.097656 6.007812 10.328125 6.472656 11.027344 6.472656 C 11.722656 6.472656 11.957031 6.007812 11.957031 6.007812 Z M 11.257812 5.425781 L 10.792969 5.425781 C 10.730469 5.425781 10.675781 5.375 10.675781 5.3125 C 10.675781 5.246094 10.730469 5.195312 10.792969 5.195312 L 11.257812 5.195312 C 11.324219 5.195312 11.375 5.246094 11.375 5.3125 C 11.375 5.375 11.324219 5.425781 11.257812 5.425781 Z M 11.257812 5.425781 "/>
<path style=" stroke:none;fill-rule:nonzero;fill:rgb(40%,12.941176%,7.45098%);fill-opacity:1;" d="M 10.097656 4.613281 C 9.96875 4.613281 9.863281 4.507812 9.863281 4.382812 L 9.863281 4.148438 C 9.863281 4.019531 9.96875 3.917969 10.097656 3.917969 C 10.222656 3.917969 10.328125 4.019531 10.328125 4.148438 L 10.328125 4.382812 C 10.328125 4.507812 10.222656 4.613281 10.097656 4.613281 Z M 11.957031 4.613281 C 11.828125 4.613281 11.722656 4.507812 11.722656 4.382812 L 11.722656 4.148438 C 11.722656 4.019531 11.828125 3.917969 11.957031 3.917969 C 12.082031 3.917969 12.1875 4.019531 12.1875 4.148438 L 12.1875 4.382812 C 12.1875 4.507812 12.082031 4.613281 11.957031 4.613281 Z M 11.957031 4.613281 "/>
<path style=" stroke:none;fill-rule:nonzero;fill:rgb(16.078431%,18.431373%,20%);fill-opacity:1;" d="M 8.8125 0.324219 C 9.90625 0.234375 10.375 1.523438 10.0625 2.09375 C 9.242188 2.09375 8.421875 1.339844 8.8125 0.324219 Z M 12.972656 0.347656 C 11.878906 0.257812 11.410156 1.546875 11.722656 2.121094 C 12.542969 2.121094 13.363281 1.367188 12.972656 0.347656 Z M 12.972656 0.347656 "/>
<path style=" stroke:none;fill-rule:nonzero;fill:rgb(16.078431%,18.431373%,20%);fill-opacity:1;" d="M 9.90625 1.625 C 10.660156 1.027344 11.714844 1.183594 12.054688 1.691406 C 12.066406 1.820312 11.902344 2.183594 11.769531 2.121094 C 11.429688 1.964844 10.855469 1.730469 10.074219 2.09375 C 10.035156 2.066406 9.890625 1.636719 9.90625 1.625 Z M 13.097656 14.039062 C 12.933594 14.234375 13.308594 14.820312 13.589844 14.941406 C 13.828125 15.039062 14.234375 15.003906 14.359375 14.753906 C 14.4375 14.597656 13.925781 13.988281 13.765625 13.949219 C 13.605469 13.914062 14.011719 14.148438 13.617188 14.183594 C 13.332031 14.210938 13.097656 14.039062 13.097656 14.039062 Z M 10.683594 14.203125 C 10.894531 14.382812 10.957031 14.816406 10.238281 14.953125 C 9.710938 15.054688 9.308594 14.988281 9.257812 14.792969 C 9.199219 14.546875 9.878906 14.261719 10.050781 14.222656 C 10.226562 14.1875 9.855469 14.457031 10.152344 14.445312 C 10.449219 14.433594 10.683594 14.203125 10.683594 14.203125 Z M 10.683594 14.203125 "/>
</g>
</svg>
