<?xml version="1.0" encoding="UTF-8"?>
<svg xmlns="http://www.w3.org/2000/svg" xmlns:xlink="http://www.w3.org/1999/xlink" width="15pt" height="15pt" viewBox="0 0 15 15" version="1.1">
<g id="surface1">
<path style=" stroke:none;fill-rule:nonzero;fill:rgb(100%,67.45098%,20%);fill-opacity:1;" d="M 13.214844 0.125 C 12.507812 -0.105469 10.835938 -0.0429688 10.421875 0.5 C 9.335938 0.523438 8.0625 1.503906 7.894531 2.796875 C 7.730469 4.078125 8.097656 4.671875 8.226562 5.636719 C 8.375 6.726562 8.988281 7.074219 9.480469 7.222656 C 10.1875 8.152344 10.9375 8.113281 12.195312 8.113281 C 13.464844 8.113281 14.386719 7.671875 15 6.867188 L 15 1.179688 C 14.550781 0.722656 13.953125 0.363281 13.214844 0.125 Z M 13.214844 0.125 "/>
<path style=" stroke:none;fill-rule:nonzero;fill:rgb(100%,86.27451%,36.470588%);fill-opacity:1;" d="M 10.855469 7.410156 L 12.960938 7.410156 L 12.960938 11.578125 L 10.855469 11.578125 Z M 10.855469 7.410156 "/>
<path style=" stroke:none;fill-rule:nonzero;fill:rgb(100%,86.27451%,36.470588%);fill-opacity:1;" d="M 14.6875 3.792969 C 14.449219 3.464844 14.144531 3.199219 13.476562 3.105469 C 13.726562 3.21875 13.964844 3.617188 13.996094 3.835938 C 14.027344 4.054688 14.058594 4.230469 13.863281 4.011719 C 13.066406 3.132812 12.203125 3.480469 11.347656 2.945312 C 10.746094 2.570312 10.566406 2.15625 10.566406 2.15625 C 10.566406 2.15625 10.492188 2.707031 9.582031 3.273438 C 9.320312 3.433594 9.007812 3.796875 8.832031 4.335938 C 8.707031 4.722656 8.746094 5.066406 8.746094 5.65625 C 8.746094 6.132812 8.859375 6.585938 9.054688 6.996094 C 9.5625 8.0625 10.648438 8.816406 11.90625 8.816406 C 12.984375 8.816406 13.9375 8.261719 14.507812 7.433594 C 14.742188 7.097656 14.910156 6.710938 15 6.300781 L 15 4.578125 C 14.941406 4.234375 14.839844 4.003906 14.6875 3.792969 Z M 14.6875 3.792969 "/>
<path style=" stroke:none;fill-rule:nonzero;fill:rgb(75.686275%,41.176471%,30.980392%);fill-opacity:1;" d="M 13.3125 7.410156 L 10.503906 7.410156 C 10.503906 7.410156 10.855469 8.113281 11.90625 8.113281 C 12.960938 8.113281 13.3125 7.410156 13.3125 7.410156 Z M 12.257812 6.53125 L 11.558594 6.53125 C 11.460938 6.53125 11.382812 6.453125 11.382812 6.355469 C 11.382812 6.261719 11.460938 6.179688 11.558594 6.179688 L 12.257812 6.179688 C 12.355469 6.179688 12.433594 6.261719 12.433594 6.355469 C 12.433594 6.453125 12.355469 6.53125 12.257812 6.53125 Z M 12.257812 6.53125 "/>
<path style=" stroke:none;fill-rule:nonzero;fill:rgb(40%,12.941176%,7.45098%);fill-opacity:1;" d="M 10.503906 5.304688 C 10.308594 5.304688 10.152344 5.144531 10.152344 4.953125 L 10.152344 4.601562 C 10.152344 4.40625 10.308594 4.25 10.503906 4.25 C 10.695312 4.25 10.855469 4.40625 10.855469 4.601562 L 10.855469 4.953125 C 10.855469 5.144531 10.695312 5.304688 10.503906 5.304688 Z M 13.3125 5.304688 C 13.121094 5.304688 12.960938 5.144531 12.960938 4.953125 L 12.960938 4.601562 C 12.960938 4.40625 13.121094 4.25 13.3125 4.25 C 13.507812 4.25 13.664062 4.40625 13.664062 4.601562 L 13.664062 4.953125 C 13.664062 5.144531 13.507812 5.304688 13.3125 5.304688 Z M 13.3125 5.304688 "/>
<path style=" stroke:none;fill-rule:nonzero;fill:rgb(98.039216%,45.490196%,24.313725%);fill-opacity:1;" d="M 8.75 9.167969 L 10.832031 9.167969 C 10.832031 9.167969 10.914062 11.15625 11.863281 11.15625 C 12.8125 11.15625 12.953125 9.167969 12.953125 9.167969 L 15 9.167969 L 15 15 L 7.5 15 L 7.5 10.40625 C 7.5 9.582031 7.917969 9.167969 8.75 9.167969 Z M 8.75 9.167969 "/>
<path style=" stroke:none;fill-rule:nonzero;fill:rgb(86.666667%,33.333333%,12.156863%);fill-opacity:1;" d="M 8.746094 10.832031 L 9.171875 10.832031 L 9.171875 15 L 8.746094 15 Z M 8.746094 10.832031 "/>
<path style=" stroke:none;fill-rule:nonzero;fill:rgb(100%,67.45098%,20%);fill-opacity:1;" d="M 3.445312 8.113281 C 5.90625 8.113281 7.078125 6.46875 7.179688 3.671875 C 7.242188 1.984375 6.25 0.703125 4.46875 0.125 C 3.757812 -0.105469 2.085938 -0.0429688 1.671875 0.5 C 1.101562 0.511719 0.484375 0.785156 0 1.230469 L 0 6.804688 C 0.226562 7.03125 0.492188 7.152344 0.730469 7.222656 C 1.4375 8.152344 2.1875 8.113281 3.445312 8.113281 Z M 3.445312 8.113281 "/>
<path style=" stroke:none;fill-rule:nonzero;fill:rgb(100%,86.27451%,36.470588%);fill-opacity:1;" d="M 2.039062 7.410156 L 4.148438 7.410156 L 4.148438 11.578125 L 2.039062 11.578125 Z M 2.039062 7.410156 "/>
<path style=" stroke:none;fill-rule:nonzero;fill:rgb(100%,86.27451%,36.470588%);fill-opacity:1;" d="M 5.871094 3.792969 C 5.636719 3.464844 5.332031 3.199219 4.664062 3.105469 C 4.914062 3.21875 5.152344 3.617188 5.183594 3.835938 C 5.214844 4.054688 5.246094 4.230469 5.046875 4.011719 C 4.253906 3.132812 3.390625 3.480469 2.53125 2.945312 C 1.933594 2.570312 1.75 2.15625 1.75 2.15625 C 1.75 2.15625 1.679688 2.707031 0.769531 3.269531 C 0.507812 3.433594 0.191406 3.796875 0.0195312 4.335938 C 0.0117188 4.363281 0.0078125 4.390625 0 4.417969 L 0 6.296875 C 0.0507812 6.539062 0.132812 6.773438 0.242188 6.996094 C 0.746094 8.0625 1.832031 8.816406 3.09375 8.816406 C 4.171875 8.816406 5.125 8.261719 5.695312 7.433594 C 6.046875 6.921875 6.257812 6.308594 6.257812 5.65625 C 6.257812 4.585938 6.144531 4.167969 5.871094 3.792969 Z M 5.871094 3.792969 "/>
<path style=" stroke:none;fill-rule:nonzero;fill:rgb(75.686275%,41.176471%,30.980392%);fill-opacity:1;" d="M 4.5 7.410156 L 1.6875 7.410156 C 1.6875 7.410156 2.039062 8.113281 3.09375 8.113281 C 4.148438 8.113281 4.5 7.410156 4.5 7.410156 Z M 3.445312 6.53125 L 2.742188 6.53125 C 2.644531 6.53125 2.566406 6.453125 2.566406 6.355469 C 2.566406 6.261719 2.644531 6.179688 2.742188 6.179688 L 3.445312 6.179688 C 3.542969 6.179688 3.621094 6.261719 3.621094 6.355469 C 3.621094 6.453125 3.542969 6.53125 3.445312 6.53125 Z M 3.445312 6.53125 "/>
<path style=" stroke:none;fill-rule:nonzero;fill:rgb(40%,12.941176%,7.45098%);fill-opacity:1;" d="M 1.6875 5.304688 C 1.496094 5.304688 1.339844 5.144531 1.339844 4.953125 L 1.339844 4.601562 C 1.339844 4.40625 1.496094 4.25 1.6875 4.25 C 1.882812 4.25 2.039062 4.40625 2.039062 4.601562 L 2.039062 4.953125 C 2.039062 5.144531 1.882812 5.304688 1.6875 5.304688 Z M 4.5 5.304688 C 4.304688 5.304688 4.148438 5.144531 4.148438 4.953125 L 4.148438 4.601562 C 4.148438 4.40625 4.304688 4.25 4.5 4.25 C 4.695312 4.25 4.851562 4.40625 4.851562 4.601562 L 4.851562 4.953125 C 4.851562 5.144531 4.695312 5.304688 4.5 5.304688 Z M 4.5 5.304688 "/>
<path style=" stroke:none;fill-rule:nonzero;fill:rgb(60%,66.666667%,70.980392%);fill-opacity:1;" d="M 6.25 9.167969 L 4.167969 9.167969 C 4.167969 9.167969 4.085938 11.15625 3.136719 11.15625 C 2.1875 11.15625 2.039062 9.167969 2.039062 9.167969 L 0 9.167969 L 0 15 L 7.5 15 L 7.5 10.40625 C 7.5 9.582031 7.082031 9.167969 6.25 9.167969 Z M 6.25 9.167969 "/>
<path style=" stroke:none;fill-rule:nonzero;fill:rgb(40%,45.882353%,49.803922%);fill-opacity:1;" d="M 5.828125 10.832031 L 6.253906 10.832031 L 6.253906 15 L 5.828125 15 Z M 5.828125 10.832031 "/>
<path style=" stroke:none;fill-rule:nonzero;fill:rgb(100%,67.45098%,20%);fill-opacity:1;" d="M 8.734375 6.273438 C 8.121094 6.074219 6.6875 6.128906 6.328125 6.59375 C 5.394531 6.613281 4.300781 7.457031 4.15625 8.570312 C 4.015625 9.671875 4.332031 10.179688 4.445312 11.007812 C 4.570312 11.945312 5.097656 12.246094 5.519531 12.371094 C 6.128906 13.175781 6.773438 13.140625 7.855469 13.140625 C 9.96875 13.140625 10.976562 11.726562 11.066406 9.324219 C 11.121094 7.867188 10.265625 6.769531 8.734375 6.273438 Z M 8.734375 6.273438 "/>
<path style=" stroke:none;fill-rule:nonzero;fill:rgb(100%,86.27451%,36.470588%);fill-opacity:1;" d="M 6.6875 12.535156 L 8.417969 12.535156 L 8.417969 15 L 6.6875 15 Z M 6.6875 12.535156 "/>
<path style=" stroke:none;fill-rule:nonzero;fill:rgb(100%,86.27451%,36.470588%);fill-opacity:1;" d="M 9.941406 9.425781 C 9.738281 9.140625 9.476562 8.914062 8.902344 8.832031 C 9.117188 8.933594 9.324219 9.273438 9.351562 9.460938 C 9.378906 9.648438 9.402344 9.800781 9.234375 9.613281 C 8.550781 8.859375 7.808594 9.15625 7.070312 8.695312 C 6.554688 8.371094 6.398438 8.015625 6.398438 8.015625 C 6.398438 8.015625 6.335938 8.492188 5.554688 8.976562 C 5.328125 9.117188 5.058594 9.429688 4.910156 9.890625 C 4.800781 10.222656 4.835938 10.519531 4.835938 11.023438 C 4.835938 12.5 6.050781 13.742188 7.554688 13.742188 C 9.054688 13.742188 10.273438 12.492188 10.273438 11.023438 C 10.269531 10.105469 10.175781 9.746094 9.941406 9.425781 Z M 9.941406 9.425781 "/>
<path style=" stroke:none;fill-rule:nonzero;fill:rgb(75.686275%,41.176471%,30.980392%);fill-opacity:1;" d="M 8.761719 12.535156 L 6.34375 12.535156 C 6.34375 12.535156 6.648438 13.140625 7.554688 13.140625 C 8.460938 13.140625 8.761719 12.535156 8.761719 12.535156 Z M 7.855469 11.933594 L 7.25 11.933594 C 7.167969 11.933594 7.101562 11.863281 7.101562 11.78125 C 7.101562 11.699219 7.167969 11.628906 7.25 11.628906 L 7.855469 11.628906 C 7.9375 11.628906 8.003906 11.699219 8.003906 11.78125 C 8.003906 11.863281 7.9375 11.933594 7.855469 11.933594 Z M 7.855469 11.933594 "/>
<path style=" stroke:none;fill-rule:nonzero;fill:rgb(40%,12.941176%,7.45098%);fill-opacity:1;" d="M 6.289062 11.152344 C 6.09375 11.152344 5.9375 10.996094 5.9375 10.800781 L 5.9375 10.449219 C 5.9375 10.253906 6.09375 10.097656 6.289062 10.097656 C 6.480469 10.097656 6.640625 10.253906 6.640625 10.449219 L 6.640625 10.800781 C 6.640625 10.996094 6.480469 11.152344 6.289062 11.152344 Z M 8.789062 11.152344 C 8.59375 11.152344 8.4375 10.996094 8.4375 10.800781 L 8.4375 10.449219 C 8.4375 10.253906 8.59375 10.097656 8.789062 10.097656 C 8.980469 10.097656 9.140625 10.253906 9.140625 10.449219 L 9.140625 10.800781 C 9.140625 10.996094 8.980469 11.152344 8.789062 11.152344 Z M 8.789062 11.152344 "/>
<path style=" stroke:none;fill-rule:nonzero;fill:rgb(36.078431%,56.862745%,23.137255%);fill-opacity:1;" d="M 9.621094 13.75 L 8.417969 13.75 C 8.417969 13.75 8.125 15 7.554688 15 C 6.984375 15 6.6875 13.75 6.6875 13.75 L 5.871094 13.75 C 5.71875 13.75 5.570312 13.761719 5.433594 13.785156 C 4.621094 13.921875 4.054688 14.425781 3.867188 15 L 11.210938 15 C 10.996094 14.332031 10.3125 13.75 9.621094 13.75 Z M 9.621094 13.75 "/>
</g>
</svg>
