<?xml version="1.0" encoding="UTF-8"?>
<svg xmlns="http://www.w3.org/2000/svg" xmlns:xlink="http://www.w3.org/1999/xlink" width="15pt" height="15pt" viewBox="0 0 15 15" version="1.1">
<g id="surface1">
<path style=" stroke:none;fill-rule:nonzero;fill:rgb(16.470588%,40.392157%,59.215686%);fill-opacity:1;" d="M 13.332031 15 L 13.332031 14.167969 C 13.332031 12.785156 12.214844 11.667969 10.832031 11.667969 L 4.167969 11.667969 C 2.785156 11.667969 1.667969 12.785156 1.667969 14.167969 L 1.667969 15 Z M 13.332031 15 "/>
<path style=" stroke:none;fill-rule:nonzero;fill:rgb(16.470588%,40.392157%,59.215686%);fill-opacity:1;" d="M 12.5 3.125 C 12.5 1.398438 10.261719 0 7.5 0 C 4.738281 0 2.5 1.398438 2.5 3.125 C 2.5 4.851562 4.738281 6.25 7.5 6.25 C 10.261719 6.25 12.5 4.851562 12.5 3.125 Z M 12.5 3.125 "/>
<path style=" stroke:none;fill-rule:nonzero;fill:rgb(48.627451%,32.54902%,24.313725%);fill-opacity:1;" d="M 5.683594 11.707031 C 5.683594 11.707031 6.871094 12.527344 7.5 12.527344 C 8.128906 12.527344 9.316406 11.707031 9.316406 11.707031 L 9.316406 10.121094 L 5.683594 10.121094 Z M 5.683594 11.707031 "/>
<path style=" stroke:none;fill-rule:nonzero;fill:rgb(40%,25.490196%,19.215686%);fill-opacity:1;" d="M 5.679688 10.820312 C 6.1875 11.394531 6.816406 11.550781 7.5 11.550781 C 8.179688 11.550781 8.808594 11.394531 9.316406 10.820312 L 9.316406 9.367188 L 5.679688 9.367188 Z M 5.679688 10.820312 "/>
<path style=" stroke:none;fill-rule:nonzero;fill:rgb(48.627451%,32.54902%,24.313725%);fill-opacity:1;" d="M 4.769531 6.640625 C 4.769531 7.242188 4.460938 7.734375 4.085938 7.734375 C 3.707031 7.734375 3.402344 7.242188 3.402344 6.640625 C 3.402344 6.035156 3.707031 5.546875 4.085938 5.546875 C 4.460938 5.546875 4.769531 6.035156 4.769531 6.640625 M 11.597656 6.640625 C 11.597656 7.242188 11.292969 7.734375 10.914062 7.734375 C 10.535156 7.734375 10.230469 7.242188 10.230469 6.640625 C 10.230469 6.035156 10.535156 5.546875 10.914062 5.546875 C 11.292969 5.546875 11.597656 6.035156 11.597656 6.640625 "/>
<path style=" stroke:none;fill-rule:nonzero;fill:rgb(48.627451%,32.54902%,24.313725%);fill-opacity:1;" d="M 3.949219 7.066406 C 3.949219 4.738281 5.539062 2.847656 7.5 2.847656 C 9.460938 2.847656 11.050781 4.738281 11.050781 7.066406 C 11.050781 9.394531 9.460938 11.285156 7.5 11.285156 C 5.539062 11.285156 3.949219 9.394531 3.949219 7.066406 "/>
<path style=" stroke:none;fill-rule:nonzero;fill:rgb(23.921569%,18.039216%,14.117647%);fill-opacity:1;" d="M 7.5 9.917969 C 6.351562 9.917969 6 9.625 5.941406 9.5625 C 5.835938 9.457031 5.835938 9.285156 5.941406 9.179688 C 6.042969 9.074219 6.210938 9.070312 6.316406 9.167969 C 6.339844 9.183594 6.617188 9.371094 7.5 9.371094 C 8.417969 9.371094 8.683594 9.167969 8.683594 9.167969 C 8.789062 9.0625 8.957031 9.066406 9.066406 9.171875 C 9.171875 9.28125 9.164062 9.457031 9.058594 9.5625 C 9 9.625 8.648438 9.917969 7.5 9.917969 "/>
<path style=" stroke:none;fill-rule:nonzero;fill:rgb(4.313725%,0.784314%,0%);fill-opacity:1;" d="M 7.5 1.835938 C 9.851562 1.835938 11.324219 3.1875 11.324219 4.632812 C 11.324219 6.082031 11.03125 6.660156 10.734375 6.082031 L 10.148438 4.921875 C 10.148438 4.921875 8.382812 4.921875 7.792969 4.34375 C 7.792969 4.34375 8.675781 6.082031 6.910156 4.34375 C 6.910156 4.34375 7.207031 5.503906 5.441406 4.054688 C 5.441406 4.054688 4.558594 4.632812 4.265625 6.082031 C 4.183594 6.484375 3.675781 6.082031 3.675781 4.632812 C 3.675781 3.1875 4.851562 1.835938 7.5 1.835938 "/>
<path style=" stroke:none;fill-rule:nonzero;fill:rgb(0%,0%,0%);fill-opacity:1;" d="M 5.832031 7.082031 C 5.605469 7.082031 5.417969 6.894531 5.417969 6.667969 L 5.417969 6.25 C 5.417969 6.019531 5.605469 5.832031 5.832031 5.832031 C 6.0625 5.832031 6.25 6.019531 6.25 6.25 L 6.25 6.667969 C 6.25 6.894531 6.0625 7.082031 5.832031 7.082031 M 9.167969 7.082031 C 8.9375 7.082031 8.75 6.894531 8.75 6.667969 L 8.75 6.25 C 8.75 6.019531 8.9375 5.832031 9.167969 5.832031 C 9.394531 5.832031 9.582031 6.019531 9.582031 6.25 L 9.582031 6.667969 C 9.582031 6.894531 9.394531 7.082031 9.167969 7.082031 "/>
<path style=" stroke:none;fill-rule:nonzero;fill:rgb(23.921569%,18.039216%,14.117647%);fill-opacity:1;" d="M 7.8125 8.230469 L 7.1875 8.230469 C 7.015625 8.230469 6.875 8.089844 6.875 7.917969 C 6.875 7.746094 7.015625 7.605469 7.1875 7.605469 L 7.8125 7.605469 C 7.984375 7.605469 8.125 7.746094 8.125 7.917969 C 8.125 8.089844 7.984375 8.230469 7.8125 8.230469 "/>
<path style=" stroke:none;fill-rule:nonzero;fill:rgb(16.470588%,40.392157%,59.215686%);fill-opacity:1;" d="M 3.542969 3.332031 L 3.542969 3.75 C 3.542969 4.210938 5.3125 4.582031 7.5 4.582031 C 9.6875 4.582031 11.457031 4.210938 11.457031 3.75 L 11.457031 3.332031 Z M 3.542969 3.332031 "/>
<path style=" stroke:none;fill-rule:nonzero;fill:rgb(25.882353%,53.72549%,75.686275%);fill-opacity:1;" d="M 11.25 3.332031 L 11.25 2.5 C 11.25 2.5 9.6875 1.5625 7.5 1.5625 C 5.3125 1.5625 3.75 2.5 3.75 2.5 L 3.75 3.332031 Z M 11.25 3.332031 "/>
<path style=" stroke:none;fill-rule:nonzero;fill:rgb(99.215686%,79.607843%,34.509804%);fill-opacity:1;" d="M 11.457031 3.332031 L 3.542969 3.332031 C 3.425781 3.332031 3.332031 3.425781 3.332031 3.542969 C 3.332031 3.65625 3.425781 3.75 3.542969 3.75 L 11.457031 3.75 C 11.574219 3.75 11.667969 3.65625 11.667969 3.542969 C 11.667969 3.425781 11.574219 3.332031 11.457031 3.332031 Z M 11.457031 3.332031 "/>
<path style=" stroke:none;fill-rule:nonzero;fill:rgb(9.803922%,23.921569%,34.901961%);fill-opacity:1;" d="M 8.3125 13.449219 C 8.679688 13.707031 9.066406 13.96875 9.207031 14.023438 C 9.214844 14.027344 9.210938 13.976562 9.210938 13.976562 C 8.394531 13.019531 7.507812 12.503906 7.507812 12.503906 L 7.515625 12.5 L 7.496094 12.5 L 7.5 12.503906 C 7.5 12.503906 6.628906 13.015625 5.820312 13.953125 C 5.824219 13.996094 5.835938 14.019531 5.851562 14.011719 C 5.976562 13.945312 6.339844 13.691406 6.695312 13.441406 C 6.714844 13.488281 6.730469 13.527344 6.742188 13.554688 C 6.808594 13.671875 6.964844 13.933594 6.964844 13.933594 C 6.964844 13.933594 6.648438 14.167969 6.53125 15 L 8.476562 15 C 8.359375 14.335938 8.046875 13.933594 8.046875 13.933594 C 8.046875 13.933594 8.203125 13.671875 8.269531 13.554688 C 8.28125 13.53125 8.296875 13.492188 8.3125 13.449219 Z M 8.3125 13.449219 "/>
<path style=" stroke:none;fill-rule:nonzero;fill:rgb(25.882353%,53.72549%,75.686275%);fill-opacity:1;" d="M 7.5 12.503906 C 7.5 12.503906 7.496094 12.5 7.496094 12.5 C 7.445312 12.464844 5.769531 11.328125 5.539062 11.09375 C 5.425781 10.980469 5.132812 11.472656 5.140625 11.597656 C 5.15625 12.046875 5.714844 14.070312 5.796875 13.976562 L 5.820312 13.953125 C 6.628906 13.011719 7.5 12.503906 7.5 12.503906 Z M 7.507812 12.503906 C 7.507812 12.503906 8.394531 13.019531 9.210938 13.976562 C 9.210938 13.976562 9.214844 13.972656 9.21875 13.972656 C 9.316406 13.984375 9.851562 12.039062 9.871094 11.597656 C 9.875 11.472656 9.582031 10.980469 9.472656 11.09375 C 9.238281 11.324219 7.570312 12.460938 7.515625 12.5 Z M 7.507812 12.503906 "/>
<path style=" stroke:none;fill-rule:nonzero;fill:rgb(11.764706%,29.411765%,43.137255%);fill-opacity:1;" d="M 7.507812 12.785156 C 7.273438 12.800781 6.902344 13.179688 6.941406 13.339844 C 7.117188 14.082031 7.265625 13.886719 7.519531 13.886719 C 7.746094 13.886719 7.90625 14.070312 8.097656 13.308594 C 8.148438 13.109375 7.667969 12.777344 7.507812 12.785156 Z M 7.515625 14.097656 C 6.902344 14.097656 6.675781 15 6.675781 15 L 8.351562 15 C 8.351562 15 8.132812 14.097656 7.515625 14.097656 Z M 7.515625 14.097656 "/>
<path style=" stroke:none;fill-rule:nonzero;fill:rgb(99.215686%,79.607843%,34.509804%);fill-opacity:1;" d="M 8.4375 0.625 C 8.339844 0.625 8.257812 0.671875 8.199219 0.742188 C 8.082031 0.773438 7.921875 0.777344 7.71875 0.714844 C 7.660156 0.660156 7.585938 0.625 7.5 0.625 C 7.417969 0.625 7.339844 0.660156 7.285156 0.714844 C 7.078125 0.777344 6.917969 0.773438 6.800781 0.742188 C 6.746094 0.671875 6.660156 0.625 6.5625 0.625 C 6.390625 0.625 6.25 0.765625 6.25 0.9375 C 6.25 1.109375 6.390625 1.25 6.5625 1.25 C 6.5625 2.5 7.1875 2.8125 7.5 2.8125 C 7.8125 2.8125 8.4375 2.5 8.4375 1.25 C 8.609375 1.25 8.75 1.109375 8.75 0.9375 C 8.75 0.765625 8.609375 0.625 8.4375 0.625 Z M 8.4375 0.625 "/>
<path style=" stroke:none;fill-rule:nonzero;fill:rgb(25.882353%,53.72549%,75.686275%);fill-opacity:1;" d="M 4.777344 12.253906 L 2.308594 12.644531 C 2.195312 12.664062 2.089844 12.585938 2.070312 12.472656 L 2.003906 12.0625 C 1.988281 11.949219 2.066406 11.839844 2.179688 11.824219 L 4.648438 11.433594 C 4.761719 11.414062 4.867188 11.492188 4.886719 11.605469 L 4.953125 12.015625 C 4.96875 12.128906 4.890625 12.238281 4.777344 12.253906 "/>
<path style=" stroke:none;fill-rule:nonzero;fill:rgb(100%,100%,100%);fill-opacity:1;" d="M 4.667969 11.878906 C 4.667969 12.011719 4.558594 12.121094 4.425781 12.121094 C 4.292969 12.121094 4.1875 12.011719 4.1875 11.878906 C 4.1875 11.746094 4.292969 11.640625 4.425781 11.640625 C 4.558594 11.640625 4.667969 11.746094 4.667969 11.878906 Z M 4.667969 11.878906 "/>
<path style=" stroke:none;fill-rule:nonzero;fill:rgb(25.882353%,53.72549%,75.686275%);fill-opacity:1;" d="M 10.226562 12.253906 L 12.695312 12.644531 C 12.808594 12.664062 12.917969 12.585938 12.933594 12.472656 L 13 12.0625 C 13.015625 11.949219 12.941406 11.839844 12.828125 11.824219 L 10.355469 11.433594 C 10.242188 11.414062 10.136719 11.492188 10.117188 11.605469 L 10.054688 12.015625 C 10.035156 12.128906 10.113281 12.238281 10.226562 12.253906 "/>
<path style=" stroke:none;fill-rule:nonzero;fill:rgb(100%,100%,100%);fill-opacity:1;" d="M 10.734375 11.878906 C 10.734375 12.011719 10.628906 12.121094 10.496094 12.121094 C 10.363281 12.121094 10.257812 12.011719 10.257812 11.878906 C 10.257812 11.746094 10.363281 11.640625 10.496094 11.640625 C 10.628906 11.640625 10.734375 11.746094 10.734375 11.878906 Z M 10.734375 11.878906 "/>
</g>
</svg>
