<?xml version="1.0" encoding="UTF-8"?>
<svg xmlns="http://www.w3.org/2000/svg" xmlns:xlink="http://www.w3.org/1999/xlink" width="15pt" height="15pt" viewBox="0 0 15 15" version="1.1">
<g id="surface1">
<path style=" stroke:none;fill-rule:nonzero;fill:rgb(100%,67.45098%,20%);fill-opacity:1;" d="M 5.824219 8.332031 L 5.832031 8.332031 L 5.832031 4.582031 C 5.832031 2.050781 3.78125 0 1.25 0 C 0.816406 0 0.398438 0.0703125 0 0.183594 L 0 13.117188 C 0.273438 13.160156 0.546875 13.191406 0.832031 13.191406 C 3.546875 13.191406 5.75 11.027344 5.824219 8.332031 Z M 5.824219 8.332031 "/>
<path style=" stroke:none;fill-rule:nonzero;fill:rgb(57.254902%,40.784314%,79.215686%);fill-opacity:1;" d="M 4.761719 11.25 C 4.703125 11.242188 0 11.25 0 11.25 L 0 15 L 6.25 15 L 6.25 12.917969 C 6.25 12.058594 5.597656 11.339844 4.761719 11.25 Z M 4.761719 11.25 "/>
<path style=" stroke:none;fill-rule:nonzero;fill:rgb(45.490196%,31.372549%,65.882353%);fill-opacity:1;" d="M 4.167969 13.332031 L 4.582031 13.332031 L 4.582031 15 L 4.167969 15 Z M 4.167969 13.332031 "/>
<path style=" stroke:none;fill-rule:nonzero;fill:rgb(100%,86.27451%,36.470588%);fill-opacity:1;" d="M 0 3.339844 L 0 12.59375 C 0.222656 12.792969 0.511719 12.917969 0.832031 12.917969 C 1.523438 12.917969 2.082031 12.355469 2.082031 11.667969 L 2.082031 10.617188 C 3.539062 10.101562 4.582031 8.714844 4.582031 7.082031 L 4.582031 4.992188 C 2.117188 4.910156 0.746094 4.089844 0 3.339844 Z M 0 3.339844 "/>
<path style=" stroke:none;fill-rule:nonzero;fill:rgb(87.45098%,12.156863%,19.607843%);fill-opacity:1;" d="M 0 9.167969 L 0 9.847656 C 0.222656 9.9375 0.496094 10 0.832031 10 C 1.421875 10 1.820312 9.816406 2.082031 9.617188 C 2.378906 9.398438 2.5 9.167969 2.5 9.167969 Z M 0 9.167969 "/>
<path style=" stroke:none;fill-rule:nonzero;fill:rgb(75.686275%,41.176471%,30.980392%);fill-opacity:1;" d="M 1.25 8.125 L 0.417969 8.125 C 0.300781 8.125 0.207031 8.03125 0.207031 7.917969 C 0.207031 7.800781 0.300781 7.707031 0.417969 7.707031 L 1.25 7.707031 C 1.363281 7.707031 1.457031 7.800781 1.457031 7.917969 C 1.457031 8.03125 1.363281 8.125 1.25 8.125 Z M 1.25 8.125 "/>
<path style=" stroke:none;fill-rule:nonzero;fill:rgb(40%,12.941176%,7.45098%);fill-opacity:1;" d="M 2.5 6.667969 C 2.269531 6.667969 2.082031 6.480469 2.082031 6.25 L 2.082031 5.832031 C 2.082031 5.601562 2.269531 5.417969 2.5 5.417969 C 2.730469 5.417969 2.917969 5.601562 2.917969 5.832031 L 2.917969 6.25 C 2.917969 6.480469 2.730469 6.667969 2.5 6.667969 Z M 2.5 6.667969 "/>
<path style=" stroke:none;fill-rule:nonzero;fill:rgb(100%,67.45098%,20%);fill-opacity:1;" d="M 13.75 0 C 11.21875 0 9.167969 2.050781 9.167969 4.582031 C 9.167969 7.113281 11.21875 9.167969 13.75 9.167969 C 14.183594 9.167969 14.601562 9.101562 15 8.988281 L 15 0.175781 C 14.601562 0.0625 14.183594 0 13.75 0 Z M 13.75 0 "/>
<path style=" stroke:none;fill-rule:nonzero;fill:rgb(25.882353%,53.72549%,75.686275%);fill-opacity:1;" d="M 10.417969 11.25 C 9.496094 11.25 8.75 11.996094 8.75 12.917969 L 8.75 15 L 15 15 L 15 11.25 Z M 10.417969 11.25 "/>
<path style=" stroke:none;fill-rule:nonzero;fill:rgb(16.470588%,40.392157%,59.215686%);fill-opacity:1;" d="M 10.417969 13.332031 L 10.832031 13.332031 L 10.832031 15 L 10.417969 15 Z M 10.417969 13.332031 "/>
<path style=" stroke:none;fill-rule:nonzero;fill:rgb(100%,86.27451%,36.470588%);fill-opacity:1;" d="M 15 4.699219 C 13.238281 4.230469 12.371094 3.3125 11.972656 2.699219 C 11.796875 3.449219 11.375 4.65625 10.417969 4.933594 L 10.417969 7.082031 C 10.417969 7.328125 10.441406 7.566406 10.488281 7.800781 C 10.742188 9.113281 11.679688 10.175781 12.917969 10.613281 L 12.917969 11.25 L 14.167969 13.332031 L 15 11.917969 Z M 15 4.699219 "/>
<path style=" stroke:none;fill-rule:nonzero;fill:rgb(75.686275%,41.176471%,30.980392%);fill-opacity:1;" d="M 12.5 9.167969 C 12.5 9.167969 12.621094 9.398438 12.917969 9.617188 C 13.179688 9.8125 13.578125 10 14.167969 10 C 14.503906 10 14.777344 9.9375 15 9.847656 L 15 9.167969 Z M 14.582031 8.125 L 13.75 8.125 C 13.636719 8.125 13.542969 8.03125 13.542969 7.917969 C 13.542969 7.800781 13.636719 7.707031 13.75 7.707031 L 14.582031 7.707031 C 14.699219 7.707031 14.792969 7.800781 14.792969 7.917969 C 14.792969 8.03125 14.699219 8.125 14.582031 8.125 Z M 14.582031 8.125 "/>
<path style=" stroke:none;fill-rule:nonzero;fill:rgb(40%,12.941176%,7.45098%);fill-opacity:1;" d="M 12.5 6.667969 C 12.269531 6.667969 12.082031 6.480469 12.082031 6.25 L 12.082031 5.832031 C 12.082031 5.601562 12.269531 5.417969 12.5 5.417969 C 12.730469 5.417969 12.917969 5.601562 12.917969 5.832031 L 12.917969 6.25 C 12.917969 6.480469 12.730469 6.667969 12.5 6.667969 Z M 12.5 6.667969 "/>
<path style=" stroke:none;fill-rule:nonzero;fill:rgb(86.666667%,18.039216%,26.666667%);fill-opacity:1;" d="M 11.058594 1.964844 C 11.058594 0.878906 10.179688 0 9.09375 0 C 8.4375 0 7.855469 0.324219 7.5 0.820312 C 7.144531 0.324219 6.5625 0 5.90625 0 C 4.820312 0 3.941406 0.878906 3.941406 1.964844 C 3.941406 2.117188 3.960938 2.265625 3.996094 2.410156 C 4.265625 4.101562 6.152344 5.890625 7.5 6.378906 C 8.847656 5.890625 10.730469 4.101562 11.003906 2.410156 C 11.039062 2.265625 11.058594 2.117188 11.058594 1.964844 Z M 11.058594 1.964844 "/>
</g>
</svg>
