<?xml version="1.0" encoding="UTF-8"?>
<svg xmlns="http://www.w3.org/2000/svg" xmlns:xlink="http://www.w3.org/1999/xlink" width="15pt" height="15pt" viewBox="0 0 15 15" version="1.1">
<g id="surface1">
<path style=" stroke:none;fill-rule:nonzero;fill:rgb(46.666667%,69.803922%,33.333333%);fill-opacity:1;" d="M 12.917969 11.488281 C 12.515625 11.335938 12.085938 11.25 11.667969 11.25 L 6.667969 11.25 C 6.25 11.25 5.816406 11.335938 5.417969 11.488281 C 4.496094 11.847656 3.75 12.578125 3.75 13.542969 L 3.75 15 L 14.582031 15 L 14.582031 13.542969 C 14.582031 12.578125 13.835938 11.847656 12.917969 11.488281 Z M 12.917969 11.488281 "/>
<path style=" stroke:none;fill-rule:nonzero;fill:rgb(13.333333%,40%,60%);fill-opacity:1;" d="M 11.667969 11.25 L 11.667969 14.375 L 6.667969 14.375 L 6.667969 11.25 C 6.25 11.25 5.816406 11.335938 5.417969 11.488281 L 5.417969 15 L 12.917969 15 L 12.917969 11.488281 C 12.515625 11.335938 12.085938 11.25 11.667969 11.25 Z M 11.667969 11.25 "/>
<path style=" stroke:none;fill-rule:nonzero;fill:rgb(24.313725%,44.705882%,11.372549%);fill-opacity:1;" d="M 7.5 11.25 L 10.832031 11.25 L 9.167969 14.167969 L 7.5 11.25 "/>
<path style=" stroke:none;fill-rule:nonzero;fill:rgb(58.823529%,23.137255%,13.333333%);fill-opacity:1;" d="M 9.144531 2.113281 C 10.855469 2.113281 13.703125 2.96875 13.703125 6.671875 C 13.703125 10.378906 13.703125 11.234375 12.847656 11.234375 C 11.996094 11.234375 10.855469 10.378906 9.144531 10.378906 C 7.433594 10.378906 6.316406 11.234375 5.4375 11.234375 C 4.484375 11.234375 4.582031 7.8125 4.582031 6.671875 C 4.582031 2.96875 7.433594 2.113281 9.144531 2.113281 "/>
<path style=" stroke:none;fill-rule:nonzero;fill:rgb(83.529412%,67.058824%,53.333333%);fill-opacity:1;" d="M 7.636719 11.257812 C 8.246094 11.703125 8.871094 11.664062 9.167969 11.664062 C 9.460938 11.664062 10.082031 11.703125 10.691406 11.257812 L 10.691406 9.921875 L 7.636719 9.921875 Z M 7.636719 11.257812 "/>
<path style=" stroke:none;fill-rule:nonzero;fill:rgb(80%,60.784314%,47.843137%);fill-opacity:1;" d="M 7.632812 10.492188 C 8.058594 10.972656 8.589844 11.101562 9.164062 11.101562 C 9.738281 11.101562 10.265625 10.972656 10.691406 10.492188 L 10.691406 9.269531 L 7.632812 9.269531 Z M 7.632812 10.492188 "/>
<path style=" stroke:none;fill-rule:nonzero;fill:rgb(83.529412%,67.058824%,53.333333%);fill-opacity:1;" d="M 5.722656 6.550781 C 5.722656 4.117188 7.253906 2.148438 9.144531 2.148438 C 11.03125 2.148438 12.5625 4.117188 12.5625 6.550781 C 12.5625 8.980469 11.03125 10.835938 9.144531 10.835938 C 7.253906 10.835938 5.722656 8.980469 5.722656 6.550781 "/>
<path style=" stroke:none;fill-rule:nonzero;fill:rgb(87.45098%,12.156863%,19.607843%);fill-opacity:1;" d="M 9.144531 9.808594 C 8.472656 9.808594 8.125 9.480469 8.085938 9.441406 C 7.976562 9.328125 7.976562 9.148438 8.085938 9.039062 C 8.199219 8.925781 8.375 8.925781 8.488281 9.035156 C 8.5 9.046875 8.714844 9.238281 9.144531 9.238281 C 9.578125 9.238281 9.792969 9.042969 9.800781 9.035156 C 9.914062 8.929688 10.09375 8.929688 10.203125 9.042969 C 10.308594 9.15625 10.308594 9.332031 10.199219 9.441406 C 10.164062 9.480469 9.8125 9.808594 9.144531 9.808594 "/>
<path style=" stroke:none;fill-rule:nonzero;fill:rgb(58.823529%,23.137255%,13.333333%);fill-opacity:1;" d="M 4.886719 7.917969 C 4.875 7.5 4.867188 7.824219 4.867188 7.722656 C 4.867188 6.296875 5.722656 7.929688 5.722656 6.914062 C 5.722656 5.898438 6.292969 5.796875 6.863281 5.226562 C 7.148438 4.941406 7.71875 4.382812 7.71875 4.382812 C 7.71875 4.382812 9.144531 5.242188 10.285156 5.242188 C 11.421875 5.242188 12.566406 5.816406 12.566406 6.957031 C 12.566406 8.097656 13.421875 6.296875 13.421875 7.722656 C 13.421875 7.824219 13.410156 7.5 13.402344 7.917969 L 13.703125 7.917969 C 13.707031 7.082031 13.707031 7.113281 13.707031 6.582031 C 13.707031 2.875 10.855469 2.113281 9.144531 2.113281 C 7.433594 2.113281 4.582031 2.851562 4.582031 6.558594 C 4.582031 6.890625 4.574219 7.082031 4.585938 7.917969 Z M 4.886719 7.917969 "/>
<path style=" stroke:none;fill-rule:nonzero;fill:rgb(40%,12.941176%,7.45098%);fill-opacity:1;" d="M 7.753906 7.453125 C 7.558594 7.453125 7.402344 7.292969 7.402344 7.101562 L 7.402344 6.746094 C 7.402344 6.554688 7.558594 6.394531 7.753906 6.394531 C 7.949219 6.394531 8.105469 6.554688 8.105469 6.746094 L 8.105469 7.101562 C 8.105469 7.292969 7.949219 7.453125 7.753906 7.453125 M 10.570312 7.453125 C 10.378906 7.453125 10.21875 7.292969 10.21875 7.101562 L 10.21875 6.746094 C 10.21875 6.554688 10.378906 6.394531 10.570312 6.394531 C 10.765625 6.394531 10.925781 6.554688 10.925781 6.746094 L 10.925781 7.101562 C 10.925781 7.292969 10.765625 7.453125 10.570312 7.453125 "/>
<path style=" stroke:none;fill-rule:nonzero;fill:rgb(75.686275%,41.176471%,30.980392%);fill-opacity:1;" d="M 9.515625 8.542969 L 8.8125 8.542969 C 8.714844 8.542969 8.632812 8.460938 8.632812 8.367188 L 8.632812 8.300781 C 8.632812 8.203125 8.714844 8.125 8.8125 8.125 L 9.515625 8.125 C 9.613281 8.125 9.691406 8.203125 9.691406 8.300781 L 9.691406 8.367188 C 9.691406 8.460938 9.613281 8.542969 9.515625 8.542969 "/>
<path style=" stroke:none;fill-rule:nonzero;fill:rgb(83.529412%,67.058824%,53.333333%);fill-opacity:1;" d="M 6.433594 6.640625 C 6.433594 7.242188 6.128906 7.734375 5.753906 7.734375 C 5.375 7.734375 5.070312 7.242188 5.070312 6.640625 C 5.070312 6.035156 5.375 5.546875 5.753906 5.546875 C 6.128906 5.546875 6.433594 6.035156 6.433594 6.640625 M 13.265625 6.640625 C 13.265625 7.242188 12.957031 7.734375 12.582031 7.734375 C 12.203125 7.734375 11.898438 7.242188 11.898438 6.640625 C 11.898438 6.035156 12.203125 5.546875 12.582031 5.546875 C 12.957031 5.546875 13.265625 6.035156 13.265625 6.640625 "/>
<path style=" stroke:none;fill-rule:nonzero;fill:rgb(75.686275%,41.176471%,30.980392%);fill-opacity:1;" d="M 2.917969 13.230469 C 2.917969 12.941406 2.683594 12.707031 2.394531 12.707031 C 2.109375 12.707031 1.875 12.941406 1.875 13.230469 L 1.875 15 L 2.917969 15 Z M 2.917969 13.230469 "/>
<path style=" stroke:none;fill-rule:nonzero;fill:rgb(40%,45.882353%,49.803922%);fill-opacity:1;" d="M 4.480469 5.625 C 4.308594 5.625 4.167969 5.765625 4.167969 5.9375 L 4.167969 9.484375 C 4.164062 10.351562 3.535156 11.070312 2.707031 11.21875 L 2.707031 5.9375 C 2.707031 5.765625 2.566406 5.625 2.394531 5.625 C 2.222656 5.625 2.082031 5.765625 2.082031 5.9375 L 2.082031 11.21875 C 1.253906 11.070312 0.625 10.351562 0.625 9.484375 L 0.625 5.9375 C 0.625 5.765625 0.484375 5.625 0.3125 5.625 C 0.140625 5.625 0 5.765625 0 5.9375 L 0 9.480469 C 0 10.695312 0.910156 11.699219 2.082031 11.851562 L 2.082031 12.917969 C 2.082031 13.089844 2.222656 13.230469 2.394531 13.230469 C 2.566406 13.230469 2.707031 13.089844 2.707031 12.917969 L 2.707031 11.851562 C 3.882812 11.699219 4.792969 10.695312 4.792969 9.480469 L 4.792969 5.9375 C 4.792969 5.765625 4.652344 5.625 4.480469 5.625 Z M 4.480469 5.625 "/>
<path style=" stroke:none;fill-rule:nonzero;fill:rgb(75.686275%,41.176471%,30.980392%);fill-opacity:1;" d="M 12.5 3.667969 C 12.5 4.214844 11.210938 4.582031 9.167969 4.582031 C 7.121094 4.582031 5.832031 4.214844 5.832031 3.667969 C 5.832031 2.1875 7.5 0 8.054688 0 C 8.609375 0 8.980469 0.734375 9.167969 0.734375 C 9.351562 0.734375 9.722656 0 10.277344 0 C 10.832031 0 12.5 2.1875 12.5 3.667969 Z M 12.5 3.667969 "/>
<path style=" stroke:none;fill-rule:nonzero;fill:rgb(75.686275%,41.176471%,30.980392%);fill-opacity:1;" d="M 15 3.332031 C 15 4.023438 13.542969 5.832031 9.167969 5.832031 C 4.792969 5.832031 3.332031 4.023438 3.332031 3.332031 C 3.332031 2.644531 6.175781 2.917969 9.167969 2.917969 C 12.160156 2.917969 15 2.644531 15 3.332031 Z M 15 3.332031 "/>
<path style=" stroke:none;fill-rule:nonzero;fill:rgb(16.078431%,18.431373%,20%);fill-opacity:1;" d="M 12.5 3.667969 C 12.5 4.214844 11.210938 4.582031 9.167969 4.582031 C 7.121094 4.582031 5.832031 4.214844 5.832031 3.667969 C 5.832031 3.429688 5.875 3.175781 5.949219 2.917969 C 6.945312 3.75 11.390625 3.75 12.382812 2.917969 C 12.457031 3.179688 12.5 3.429688 12.5 3.667969 Z M 12.5 3.667969 "/>
</g>
</svg>
