<?xml version="1.0" encoding="UTF-8"?>
<svg xmlns="http://www.w3.org/2000/svg" xmlns:xlink="http://www.w3.org/1999/xlink" width="15pt" height="15pt" viewBox="0 0 15 15" version="1.1">
<g id="surface1">
<path style=" stroke:none;fill-rule:nonzero;fill:rgb(100%,86.27451%,36.470588%);fill-opacity:1;" d="M 12.917969 3.351562 C 10.15625 3.351562 7.917969 5.589844 7.917969 8.351562 C 7.917969 11.113281 10.15625 13.351562 12.917969 13.351562 C 13.660156 13.351562 14.363281 13.183594 15 12.890625 L 15 3.808594 C 14.363281 3.519531 13.660156 3.351562 12.917969 3.351562 Z M 12.917969 3.351562 "/>
<path style=" stroke:none;fill-rule:nonzero;fill:rgb(100%,67.45098%,20%);fill-opacity:1;" d="M 8.609375 6.265625 C 8.632812 6.292969 8.664062 6.316406 8.691406 6.339844 C 8.992188 6.636719 9.421875 6.953125 10.035156 7.1875 C 11.574219 7.773438 13.835938 7.3125 13.835938 7.3125 C 13.835938 7.3125 13.523438 6.8125 12.960938 6.273438 C 13.714844 6.5 14.402344 6.839844 15 7.261719 L 15 3.40625 C 14.246094 3.03125 13.398438 2.8125 12.5 2.8125 C 9.789062 2.808594 8.367188 4.222656 8.308594 5.367188 C 8.234375 5.402344 8.160156 5.4375 8.085938 5.476562 C 8.085938 5.476562 8.1875 5.746094 8.464844 6.085938 C 8.496094 6.125 8.53125 6.164062 8.566406 6.207031 C 8.582031 6.226562 8.59375 6.25 8.609375 6.265625 Z M 8.609375 6.265625 "/>
<path style=" stroke:none;fill-rule:nonzero;fill:rgb(39.215686%,12.941176%,8.627451%);fill-opacity:1;" d="M 10.832031 8.976562 C 10.246094 8.976562 10.210938 8.453125 10.207031 8.347656 C 10.207031 8.234375 10.113281 8.140625 10 8.140625 C 9.886719 8.140625 9.792969 8.234375 9.792969 8.351562 C 9.792969 8.710938 10.007812 9.390625 10.832031 9.390625 C 10.949219 9.390625 11.042969 9.300781 11.042969 9.183594 C 11.042969 9.070312 10.949219 8.976562 10.832031 8.976562 Z M 12.917969 8.976562 C 12.328125 8.976562 12.292969 8.453125 12.292969 8.347656 C 12.292969 8.234375 12.199219 8.140625 12.082031 8.140625 C 11.96875 8.140625 11.875 8.234375 11.875 8.351562 C 11.875 8.710938 12.09375 9.390625 12.917969 9.390625 C 13.03125 9.390625 13.125 9.300781 13.125 9.183594 C 13.125 9.070312 13.03125 8.976562 12.917969 8.976562 Z M 10.835938 10.640625 C 10.949219 10.640625 11.042969 10.546875 11.042969 10.433594 C 11.042969 10.320312 10.949219 10.226562 10.832031 10.226562 C 10.582031 10.226562 10.207031 10.390625 10.207031 10.851562 C 10.207031 11.035156 10.269531 11.167969 10.355469 11.265625 C 10.269531 11.367188 10.207031 11.5 10.207031 11.683594 C 10.207031 12.144531 10.582031 12.308594 10.832031 12.308594 C 10.945312 12.308594 11.039062 12.21875 11.039062 12.101562 C 11.042969 11.988281 10.949219 11.894531 10.835938 11.890625 C 10.738281 11.890625 10.625 11.851562 10.625 11.683594 C 10.625 11.515625 10.738281 11.476562 10.832031 11.476562 L 10.839844 11.476562 C 10.953125 11.472656 11.042969 11.378906 11.042969 11.265625 C 11.042969 11.152344 10.949219 11.058594 10.835938 11.058594 C 10.738281 11.058594 10.625 11.019531 10.625 10.851562 C 10.625 10.683594 10.738281 10.644531 10.835938 10.640625 Z M 10.835938 10.640625 "/>
<path style=" stroke:none;fill-rule:nonzero;fill:rgb(100%,67.45098%,20%);fill-opacity:1;" d="M 7.101562 9.5 C 7.109375 9.5 7.113281 9.5 7.121094 9.496094 C 7.199219 9.472656 7.257812 9.40625 7.269531 9.324219 C 7.378906 8.535156 7.320312 7.75 7.097656 6.988281 C 6.230469 4.011719 3.101562 2.296875 0.125 3.164062 C 0.0820312 3.175781 0.0429688 3.191406 0 3.207031 L 0 15 L 8.164062 15 C 7.210938 12.605469 7.105469 10.550781 7.101562 9.5 Z M 7.101562 9.5 "/>
<path style=" stroke:none;fill-rule:nonzero;fill:rgb(100%,86.27451%,36.470588%);fill-opacity:1;" d="M 6.953125 9.46875 C 6.921875 9.449219 6.890625 9.421875 6.871094 9.382812 C 5.925781 7.292969 4.449219 5.8125 1.703125 6.101562 C 1.703125 7.222656 0.808594 7.71875 0 8.132812 L 0 12.890625 C 0.636719 13.183594 1.339844 13.351562 2.082031 13.351562 C 4.460938 13.351562 6.445312 11.691406 6.953125 9.46875 Z M 6.953125 9.46875 "/>
<path style=" stroke:none;fill-rule:nonzero;fill:rgb(39.215686%,12.941176%,8.627451%);fill-opacity:1;" d="M 4.167969 8.976562 C 4.050781 8.976562 3.957031 9.070312 3.957031 9.183594 C 3.957031 9.300781 4.050781 9.390625 4.167969 9.390625 C 4.992188 9.390625 5.207031 8.710938 5.207031 8.351562 C 5.207031 8.234375 5.113281 8.140625 5 8.140625 C 4.886719 8.140625 4.792969 8.234375 4.792969 8.347656 C 4.789062 8.453125 4.753906 8.976562 4.167969 8.976562 Z M 3.125 8.351562 C 3.125 8.234375 3.03125 8.140625 2.917969 8.140625 C 2.800781 8.140625 2.707031 8.234375 2.707031 8.347656 C 2.707031 8.453125 2.671875 8.976562 2.082031 8.976562 C 1.96875 8.976562 1.875 9.070312 1.875 9.183594 C 1.875 9.300781 1.96875 9.390625 2.082031 9.390625 C 2.90625 9.390625 3.125 8.710938 3.125 8.351562 Z M 4.167969 10.226562 C 4.050781 10.226562 3.957031 10.320312 3.957031 10.433594 C 3.957031 10.546875 4.050781 10.640625 4.164062 10.640625 C 4.261719 10.644531 4.375 10.683594 4.375 10.851562 C 4.375 11.019531 4.261719 11.058594 4.164062 11.058594 C 4.050781 11.058594 3.957031 11.152344 3.957031 11.265625 C 3.957031 11.378906 4.050781 11.472656 4.160156 11.476562 L 4.167969 11.476562 C 4.261719 11.476562 4.375 11.515625 4.375 11.683594 C 4.375 11.851562 4.261719 11.890625 4.164062 11.890625 C 4.050781 11.894531 3.957031 11.988281 3.960938 12.101562 C 3.960938 12.21875 4.054688 12.308594 4.167969 12.308594 C 4.417969 12.308594 4.792969 12.144531 4.792969 11.683594 C 4.792969 11.5 4.730469 11.367188 4.644531 11.265625 C 4.730469 11.167969 4.792969 11.035156 4.792969 10.851562 C 4.792969 10.390625 4.417969 10.226562 4.167969 10.226562 Z M 4.167969 10.226562 "/>
<path style=" stroke:none;fill-rule:nonzero;fill:rgb(86.666667%,18.039216%,26.666667%);fill-opacity:1;" d="M 11.058594 1.964844 C 11.058594 0.878906 10.179688 0 9.09375 0 C 8.4375 0 7.855469 0.324219 7.5 0.820312 C 7.144531 0.324219 6.5625 0 5.90625 0 C 4.820312 0 3.941406 0.878906 3.941406 1.964844 C 3.941406 2.117188 3.960938 2.265625 3.996094 2.410156 C 4.265625 4.101562 6.152344 5.890625 7.5 6.378906 C 8.847656 5.890625 10.730469 4.101562 11.003906 2.410156 C 11.039062 2.265625 11.058594 2.117188 11.058594 1.964844 Z M 11.058594 1.964844 "/>
</g>
</svg>
