<?xml version="1.0" encoding="UTF-8"?>
<svg xmlns="http://www.w3.org/2000/svg" xmlns:xlink="http://www.w3.org/1999/xlink" width="15pt" height="15pt" viewBox="0 0 15 15" version="1.1">
<g id="surface1">
<path style=" stroke:none;fill-rule:nonzero;fill:rgb(80%,83.921569%,86.27451%);fill-opacity:1;" d="M 12.5 10.832031 C 12.5 11.753906 11.753906 12.5 10.832031 12.5 L 1.667969 12.5 C 0.746094 12.5 0 11.753906 0 10.832031 L 0 1.667969 C 0 0.746094 0.746094 0 1.667969 0 L 10.832031 0 C 11.753906 0 12.5 0.746094 12.5 1.667969 Z M 12.5 10.832031 "/>
<path style=" stroke:none;fill-rule:nonzero;fill:rgb(96.078431%,97.254902%,98.039216%);fill-opacity:1;" d="M 11.667969 10.832031 C 11.667969 11.292969 11.292969 11.667969 10.832031 11.667969 L 1.667969 11.667969 C 1.207031 11.667969 0.832031 11.292969 0.832031 10.832031 L 0.832031 1.667969 C 0.832031 1.207031 1.207031 0.832031 1.667969 0.832031 L 10.832031 0.832031 C 11.292969 0.832031 11.667969 1.207031 11.667969 1.667969 Z M 11.667969 10.832031 "/>
<path style=" stroke:none;fill-rule:nonzero;fill:rgb(31.372549%,64.705882%,90.196078%);fill-opacity:1;" d="M 2.5 10.832031 C 2.269531 10.832031 2.082031 10.648438 2.082031 10.417969 L 2.082031 5.417969 C 2.082031 5.1875 2.269531 5 2.5 5 C 2.730469 5 2.917969 5.1875 2.917969 5.417969 L 2.917969 10.417969 C 2.917969 10.648438 2.730469 10.832031 2.5 10.832031 Z M 2.5 10.832031 "/>
<path style=" stroke:none;fill-rule:nonzero;fill:rgb(46.666667%,69.803922%,33.333333%);fill-opacity:1;" d="M 4.167969 10.832031 C 3.9375 10.832031 3.75 10.648438 3.75 10.417969 L 3.75 3.332031 C 3.75 3.101562 3.9375 2.917969 4.167969 2.917969 C 4.398438 2.917969 4.582031 3.101562 4.582031 3.332031 L 4.582031 10.417969 C 4.582031 10.648438 4.398438 10.832031 4.167969 10.832031 Z M 4.167969 10.832031 "/>
<path style=" stroke:none;fill-rule:nonzero;fill:rgb(13.333333%,40.392157%,59.607843%);fill-opacity:1;" d="M 15 15 L 15 13.125 C 15 11.746094 13.515625 10.832031 12.136719 10.832031 L 7.136719 10.832031 C 5.753906 10.832031 4.167969 11.746094 4.167969 13.125 L 4.167969 15 Z M 15 15 "/>
<path style=" stroke:none;fill-rule:nonzero;fill:rgb(95.686275%,96.862745%,97.647059%);fill-opacity:1;" d="M 11.769531 10.832031 L 10.445312 15 L 8.742188 15 L 7.605469 10.832031 "/>
<path style=" stroke:none;fill-rule:nonzero;fill:rgb(22.745098%,52.941176%,76.078431%);fill-opacity:1;" d="M 7.917969 10.832031 L 7.292969 10.832031 L 6.875 13.125 L 8.125 13.542969 L 7.917969 15 L 9.375 15 Z M 11.457031 10.832031 L 12.082031 10.832031 L 12.292969 13.125 L 11.042969 13.542969 L 11.25 15 L 9.792969 15 Z M 11.457031 10.832031 "/>
<path style=" stroke:none;fill-rule:nonzero;fill:rgb(58.823529%,23.137255%,13.333333%);fill-opacity:1;" d="M 9.667969 1.65625 C 11.375 1.65625 14.226562 2.511719 14.226562 6.21875 C 14.226562 9.925781 14.226562 10.78125 13.371094 10.78125 C 12.515625 10.78125 11.375 9.925781 9.667969 9.925781 C 7.957031 9.925781 6.839844 10.78125 5.960938 10.78125 C 5.007812 10.78125 5.105469 7.359375 5.105469 6.21875 C 5.105469 2.511719 7.957031 1.65625 9.667969 1.65625 "/>
<path style=" stroke:none;fill-rule:nonzero;fill:rgb(83.137255%,67.058824%,53.333333%);fill-opacity:1;" d="M 8.230469 10.832031 C 8.648438 11.660156 9.394531 12.707031 9.691406 12.707031 C 9.984375 12.707031 10.734375 11.644531 11.148438 10.832031 L 11.148438 9.335938 L 8.230469 9.335938 Z M 8.230469 10.832031 "/>
<path style=" stroke:none;fill-rule:nonzero;fill:rgb(79.607843%,60.392157%,47.843137%);fill-opacity:1;" d="M 8.230469 10.023438 C 8.636719 10.480469 9.140625 10.605469 9.6875 10.605469 C 10.238281 10.605469 10.742188 10.480469 11.148438 10.023438 L 11.148438 8.855469 L 8.230469 8.855469 Z M 8.230469 10.023438 "/>
<path style=" stroke:none;fill-rule:nonzero;fill:rgb(83.137255%,67.058824%,53.333333%);fill-opacity:1;" d="M 6.246094 6.09375 C 6.246094 3.664062 7.777344 1.691406 9.667969 1.691406 C 11.554688 1.691406 13.085938 3.664062 13.085938 6.09375 C 13.085938 8.523438 11.554688 10.378906 9.667969 10.378906 C 7.777344 10.378906 6.246094 8.523438 6.246094 6.09375 "/>
<path style=" stroke:none;fill-rule:nonzero;fill:rgb(87.058824%,12.54902%,19.607843%);fill-opacity:1;" d="M 9.667969 9.355469 C 8.996094 9.355469 8.648438 9.023438 8.609375 8.984375 C 8.496094 8.875 8.496094 8.695312 8.609375 8.582031 C 8.71875 8.472656 8.898438 8.472656 9.011719 8.582031 C 9.023438 8.59375 9.238281 8.785156 9.667969 8.785156 C 10.097656 8.785156 10.316406 8.589844 10.324219 8.578125 C 10.4375 8.472656 10.617188 8.476562 10.722656 8.589844 C 10.832031 8.699219 10.832031 8.875 10.722656 8.984375 C 10.6875 9.023438 10.335938 9.355469 9.667969 9.355469 "/>
<path style=" stroke:none;fill-rule:nonzero;fill:rgb(75.686275%,41.176471%,30.980392%);fill-opacity:1;" d="M 10.039062 8.085938 L 9.332031 8.085938 C 9.238281 8.085938 9.15625 8.007812 9.15625 7.910156 L 9.15625 7.847656 C 9.15625 7.75 9.234375 7.671875 9.332031 7.671875 L 10.039062 7.671875 C 10.136719 7.671875 10.214844 7.75 10.214844 7.847656 L 10.214844 7.910156 C 10.214844 8.007812 10.136719 8.085938 10.039062 8.085938 "/>
<path style=" stroke:none;fill-rule:nonzero;fill:rgb(40%,13.333333%,7.45098%);fill-opacity:1;" d="M 11.09375 7 C 10.902344 7 10.742188 6.839844 10.742188 6.644531 L 10.742188 6.292969 C 10.742188 6.097656 10.902344 5.941406 11.09375 5.941406 C 11.289062 5.941406 11.449219 6.097656 11.449219 6.292969 L 11.449219 6.644531 C 11.449219 6.839844 11.289062 7 11.09375 7 M 8.277344 7 C 8.082031 7 7.921875 6.839844 7.921875 6.644531 L 7.921875 6.292969 C 7.921875 6.097656 8.082031 5.941406 8.277344 5.941406 C 8.46875 5.941406 8.628906 6.097656 8.628906 6.292969 L 8.628906 6.644531 C 8.628906 6.839844 8.46875 7 8.277344 7 "/>
<path style=" stroke:none;fill-rule:nonzero;fill:rgb(58.823529%,23.137255%,13.333333%);fill-opacity:1;" d="M 5.410156 7.460938 C 5.398438 7.046875 5.390625 7.367188 5.390625 7.269531 C 5.390625 5.84375 6.246094 7.472656 6.246094 6.457031 C 6.246094 5.441406 6.816406 5.339844 7.386719 4.769531 C 7.671875 4.484375 8.242188 3.925781 8.242188 3.925781 C 8.242188 3.925781 9.667969 4.789062 10.808594 4.789062 C 11.945312 4.789062 13.085938 5.359375 13.085938 6.5 C 13.085938 7.640625 13.941406 5.839844 13.941406 7.265625 C 13.941406 7.367188 13.933594 7.046875 13.925781 7.460938 L 14.226562 7.460938 C 14.226562 6.628906 14.226562 6.660156 14.226562 6.128906 C 14.226562 2.421875 11.378906 1.042969 9.667969 1.042969 C 7.957031 1.042969 5.105469 2.398438 5.105469 6.105469 C 5.105469 6.433594 5.097656 6.628906 5.109375 7.460938 Z M 5.410156 7.460938 "/>
<path style=" stroke:none;fill-rule:nonzero;fill:rgb(83.137255%,67.058824%,53.333333%);fill-opacity:1;" d="M 13.785156 6.183594 C 13.785156 6.789062 13.480469 7.277344 13.105469 7.277344 C 12.726562 7.277344 12.421875 6.789062 12.421875 6.183594 C 12.421875 5.582031 12.726562 5.09375 13.105469 5.09375 C 13.480469 5.09375 13.785156 5.582031 13.785156 6.183594 M 6.957031 6.183594 C 6.957031 6.789062 6.652344 7.277344 6.273438 7.277344 C 5.898438 7.277344 5.59375 6.789062 5.59375 6.183594 C 5.59375 5.582031 5.898438 5.09375 6.273438 5.09375 C 6.652344 5.09375 6.957031 5.582031 6.957031 6.183594 "/>
</g>
</svg>
