<?xml version="1.0" encoding="UTF-8"?>
<svg xmlns="http://www.w3.org/2000/svg" xmlns:xlink="http://www.w3.org/1999/xlink" width="15pt" height="15pt" viewBox="0 0 15 15" version="1.1">
<g id="surface1">
<path style=" stroke:none;fill-rule:nonzero;fill:rgb(100%,89.803922%,11.764706%);fill-opacity:1;" d="M 4.375 0 C 3.878906 0 3.425781 0.15625 3.050781 0.425781 C 2.28125 0.464844 1.667969 1.09375 1.667969 1.875 C 1.667969 2.515625 1.667969 3.328125 2.515625 3.628906 C 2.933594 4.207031 3.609375 4.582031 4.375 4.582031 C 5.640625 4.582031 6.667969 3.558594 6.667969 2.292969 C 6.667969 1.027344 5.640625 0 4.375 0 Z M 4.375 0 "/>
<path style=" stroke:none;fill-rule:nonzero;fill:rgb(95.294118%,82.352941%,63.529412%);fill-opacity:1;" d="M 7.457031 11.148438 C 7.570312 11.1875 7.660156 11.082031 7.699219 11.023438 C 7.816406 10.855469 7.875 10.480469 7.703125 10.097656 C 7.527344 9.710938 7.410156 9.234375 7 8.503906 C 6.949219 8.417969 6.792969 7.359375 6.480469 6.691406 C 6.398438 6.507812 5.859375 6.40625 5.644531 6.46875 C 5.429688 6.535156 5.644531 6.878906 5.660156 6.941406 C 5.800781 7.628906 6.203125 8.640625 6.261719 8.777344 C 6.597656 9.53125 7.082031 9.773438 7.125 10.320312 C 7.148438 10.609375 7.210938 10.855469 7.375 10.832031 C 7.414062 10.980469 7.414062 11.136719 7.457031 11.148438 Z M 1.375 11.234375 C 1.269531 11.289062 1.164062 11.195312 1.117188 11.140625 C 0.980469 10.992188 0.871094 10.625 0.992188 10.222656 C 1.117188 9.816406 1.171875 9.328125 1.484375 8.550781 C 1.519531 8.460938 1.535156 7.390625 1.757812 6.683594 C 1.816406 6.496094 2.335938 6.320312 2.558594 6.355469 C 2.777344 6.390625 2.609375 6.761719 2.605469 6.828125 C 2.554688 7.527344 2.289062 8.582031 2.246094 8.726562 C 2.015625 9.515625 1.566406 9.820312 1.59375 10.371094 C 1.609375 10.65625 1.582031 10.910156 1.414062 10.910156 C 1.394531 11.0625 1.414062 11.214844 1.375 11.234375 Z M 1.375 11.234375 "/>
<path style=" stroke:none;fill-rule:nonzero;fill:rgb(66.666667%,72.156863%,76.078431%);fill-opacity:1;" d="M 5.648438 12.292969 C 5.855469 11.152344 5.824219 9.582031 5.824219 9.582031 L 2.503906 9.582031 C 2.503906 9.582031 2.472656 11.152344 2.679688 12.292969 C 2.707031 12.433594 2.757812 13.683594 2.636719 14.582031 C 2.609375 14.78125 3.839844 14.972656 3.820312 14.53125 C 3.789062 13.710938 3.929688 13.066406 3.957031 12.65625 C 3.972656 12.429688 4.0625 11.875 4.101562 11.320312 C 4.105469 11.3125 4.222656 11.3125 4.226562 11.320312 C 4.265625 11.875 4.355469 12.429688 4.371094 12.65625 C 4.398438 13.066406 4.539062 13.710938 4.507812 14.53125 C 4.492188 14.972656 5.722656 14.78125 5.691406 14.582031 C 5.570312 13.683594 5.621094 12.433594 5.648438 12.292969 Z M 5.648438 12.292969 "/>
<path style=" stroke:none;fill-rule:nonzero;fill:rgb(16.078431%,18.431373%,20%);fill-opacity:1;" d="M 6.058594 15 C 6.265625 14.832031 6.039062 14.515625 5.464844 14.414062 C 4.980469 14.332031 4.550781 14.402344 4.480469 14.5625 C 4.394531 14.765625 4.460938 15 4.460938 15 Z M 2.257812 15 C 2.050781 14.832031 2.277344 14.515625 2.851562 14.414062 C 3.335938 14.332031 3.765625 14.402344 3.835938 14.5625 C 3.921875 14.765625 3.855469 15 3.855469 15 Z M 2.257812 15 "/>
<path style=" stroke:none;fill-rule:nonzero;fill:rgb(25.882353%,53.72549%,75.686275%);fill-opacity:1;" d="M 6.164062 6.152344 C 5.65625 5.832031 5 5.832031 5 5.832031 L 3.332031 5.832031 C 3.332031 5.832031 2.675781 5.832031 2.167969 6.152344 C 1.667969 6.464844 1.476562 7.402344 1.476562 7.402344 L 2.394531 7.6875 L 2.441406 10 L 5.890625 10 L 5.9375 7.6875 L 6.855469 7.402344 C 6.855469 7.402344 6.664062 6.464844 6.164062 6.152344 Z M 6.164062 6.152344 "/>
<path style=" stroke:none;fill-rule:nonzero;fill:rgb(95.294118%,82.352941%,63.529412%);fill-opacity:1;" d="M 3.332031 4.183594 L 3.332031 5.851562 C 3.332031 6.136719 3.707031 6.394531 4.167969 6.394531 C 4.625 6.394531 5 6.117188 5 5.851562 L 5 4.183594 Z M 3.332031 4.183594 "/>
<path style=" stroke:none;fill-rule:nonzero;fill:rgb(88.627451%,75.686275%,58.823529%);fill-opacity:1;" d="M 3.332031 5.648438 C 3.585938 5.9375 3.824219 6.007812 4.164062 6.007812 C 4.507812 6.007812 4.746094 5.9375 5 5.648438 L 5 5.3125 L 3.332031 5.3125 Z M 3.332031 5.648438 "/>
<path style=" stroke:none;fill-rule:nonzero;fill:rgb(95.294118%,82.352941%,63.529412%);fill-opacity:1;" d="M 6.25 1.25 L 2.082031 1.25 L 2.082031 3.75 C 2.082031 4.902344 3.015625 5.832031 4.167969 5.832031 C 5.316406 5.832031 6.25 4.902344 6.25 3.75 Z M 6.25 1.25 "/>
<path style=" stroke:none;fill-rule:nonzero;fill:rgb(100%,89.803922%,11.764706%);fill-opacity:1;" d="M 2.082031 1.042969 L 1.875 2.082031 L 2.082031 2.917969 C 3.054688 2.917969 3.269531 1.910156 3.320312 1.464844 C 3.335938 1.910156 3.65625 2.917969 6.25 2.917969 L 6.457031 2.082031 L 6.25 1.042969 Z M 2.082031 1.042969 "/>
<path style=" stroke:none;fill-rule:nonzero;fill:rgb(75.686275%,41.176471%,30.980392%);fill-opacity:1;" d="M 5 5 L 3.332031 5 C 3.332031 5 3.332031 5.417969 4.167969 5.417969 C 5 5.417969 5 5 5 5 Z M 5 5 "/>
<path style=" stroke:none;fill-rule:nonzero;fill:rgb(40%,12.941176%,7.45098%);fill-opacity:1;" d="M 3.332031 3.542969 C 3.332031 3.65625 3.238281 3.75 3.125 3.75 C 3.011719 3.75 2.917969 3.65625 2.917969 3.542969 C 2.917969 3.425781 3.011719 3.332031 3.125 3.332031 C 3.238281 3.332031 3.332031 3.425781 3.332031 3.542969 Z M 3.332031 3.542969 "/>
<path style=" stroke:none;fill-rule:nonzero;fill:rgb(40%,12.941176%,7.45098%);fill-opacity:1;" d="M 5.417969 3.542969 C 5.417969 3.65625 5.324219 3.75 5.207031 3.75 C 5.09375 3.75 5 3.65625 5 3.542969 C 5 3.425781 5.09375 3.332031 5.207031 3.332031 C 5.324219 3.332031 5.417969 3.425781 5.417969 3.542969 Z M 5.417969 3.542969 "/>
<path style=" stroke:none;fill-rule:nonzero;fill:rgb(75.686275%,41.176471%,30.980392%);fill-opacity:1;" d="M 3.75 4.167969 L 4.582031 4.167969 C 4.582031 4.167969 4.582031 4.582031 4.167969 4.582031 C 3.75 4.582031 3.75 4.167969 3.75 4.167969 Z M 3.75 4.167969 "/>
<path style=" stroke:none;fill-rule:nonzero;fill:rgb(37.647059%,20.784314%,16.470588%);fill-opacity:1;" d="M 11.042969 0 C 10.546875 0 10.089844 0.15625 9.714844 0.425781 C 8.945312 0.464844 8.332031 1.09375 8.332031 1.875 C 8.332031 2.515625 8.335938 3.328125 9.183594 3.628906 C 9.597656 4.207031 10.273438 4.582031 11.042969 4.582031 C 12.308594 4.582031 13.332031 3.558594 13.332031 2.292969 C 13.332031 1.027344 12.308594 0 11.042969 0 Z M 11.042969 0 "/>
<path style=" stroke:none;fill-rule:nonzero;fill:rgb(68.627451%,49.411765%,34.117647%);fill-opacity:1;" d="M 7.546875 11.148438 C 7.4375 11.1875 7.347656 11.082031 7.304688 11.023438 C 7.1875 10.855469 7.128906 10.480469 7.304688 10.097656 C 7.480469 9.710938 7.59375 9.234375 8.007812 8.503906 C 8.054688 8.417969 8.214844 7.359375 8.523438 6.691406 C 8.609375 6.507812 9.148438 6.40625 9.363281 6.46875 C 9.574219 6.535156 9.359375 6.878906 9.347656 6.941406 C 9.203125 7.628906 8.800781 8.640625 8.742188 8.777344 C 8.410156 9.53125 7.921875 9.773438 7.878906 10.320312 C 7.855469 10.609375 7.792969 10.855469 7.628906 10.832031 C 7.589844 10.980469 7.589844 11.136719 7.546875 11.148438 Z M 13.628906 11.234375 C 13.738281 11.289062 13.839844 11.195312 13.886719 11.140625 C 14.027344 10.992188 14.132812 10.625 14.011719 10.222656 C 13.886719 9.816406 13.835938 9.328125 13.523438 8.550781 C 13.484375 8.460938 13.46875 7.390625 13.246094 6.683594 C 13.1875 6.496094 12.667969 6.320312 12.445312 6.355469 C 12.226562 6.390625 12.394531 6.761719 12.398438 6.828125 C 12.453125 7.527344 12.714844 8.582031 12.757812 8.726562 C 12.988281 9.515625 13.4375 9.820312 13.410156 10.371094 C 13.394531 10.65625 13.425781 10.910156 13.589844 10.910156 C 13.609375 11.0625 13.589844 11.214844 13.628906 11.234375 Z M 13.628906 11.234375 "/>
<path style=" stroke:none;fill-rule:nonzero;fill:rgb(68.627451%,49.411765%,34.117647%);fill-opacity:1;" d="M 7.546875 11.148438 C 7.4375 11.1875 7.347656 11.082031 7.304688 11.023438 C 7.1875 10.855469 7.128906 10.480469 7.304688 10.097656 C 7.480469 9.710938 7.59375 9.234375 8.007812 8.503906 C 8.054688 8.417969 8.214844 7.359375 8.523438 6.691406 C 8.609375 6.507812 9.148438 6.40625 9.363281 6.46875 C 9.574219 6.535156 9.359375 6.878906 9.347656 6.941406 C 9.203125 7.628906 8.800781 8.640625 8.742188 8.777344 C 8.410156 9.53125 7.921875 9.773438 7.878906 10.320312 C 7.855469 10.609375 7.792969 10.855469 7.628906 10.832031 C 7.589844 10.980469 7.589844 11.136719 7.546875 11.148438 Z M 13.628906 11.234375 C 13.738281 11.289062 13.839844 11.195312 13.886719 11.140625 C 14.027344 10.992188 14.132812 10.625 14.011719 10.222656 C 13.886719 9.816406 13.835938 9.328125 13.523438 8.550781 C 13.484375 8.460938 13.46875 7.390625 13.246094 6.683594 C 13.1875 6.496094 12.667969 6.320312 12.445312 6.355469 C 12.226562 6.390625 12.394531 6.761719 12.398438 6.828125 C 12.453125 7.527344 12.714844 8.582031 12.757812 8.726562 C 12.988281 9.515625 13.4375 9.820312 13.410156 10.371094 C 13.394531 10.65625 13.425781 10.910156 13.589844 10.910156 C 13.609375 11.0625 13.589844 11.214844 13.628906 11.234375 Z M 13.628906 11.234375 "/>
<path style=" stroke:none;fill-rule:nonzero;fill:rgb(40.392157%,45.882353%,49.803922%);fill-opacity:1;" d="M 12.316406 12.292969 C 12.523438 11.152344 12.492188 9.582031 12.492188 9.582031 L 9.171875 9.582031 C 9.171875 9.582031 9.140625 11.152344 9.347656 12.292969 C 9.375 12.433594 9.425781 13.683594 9.304688 14.582031 C 9.277344 14.78125 10.503906 14.972656 10.488281 14.53125 C 10.457031 13.710938 10.597656 13.066406 10.625 12.65625 C 10.640625 12.429688 10.730469 11.875 10.769531 11.320312 C 10.773438 11.3125 10.890625 11.3125 10.894531 11.320312 C 10.933594 11.875 11.023438 12.429688 11.039062 12.65625 C 11.066406 13.066406 11.207031 13.710938 11.175781 14.53125 C 11.15625 14.972656 12.386719 14.78125 12.359375 14.582031 C 12.238281 13.683594 12.289062 12.433594 12.316406 12.292969 Z M 12.316406 12.292969 "/>
<path style=" stroke:none;fill-rule:nonzero;fill:rgb(16.078431%,18.431373%,20%);fill-opacity:1;" d="M 12.726562 15 C 12.933594 14.832031 12.707031 14.515625 12.132812 14.414062 C 11.648438 14.332031 11.214844 14.402344 11.148438 14.5625 C 11.058594 14.765625 11.128906 15 11.128906 15 Z M 8.925781 15 C 8.71875 14.832031 8.941406 14.515625 9.519531 14.414062 C 10.003906 14.332031 10.433594 14.402344 10.503906 14.5625 C 10.589844 14.765625 10.523438 15 10.523438 15 Z M 8.925781 15 "/>
<path style=" stroke:none;fill-rule:nonzero;fill:rgb(47.058824%,69.411765%,34.901961%);fill-opacity:1;" d="M 12.832031 6.152344 C 12.324219 5.832031 11.667969 5.832031 11.667969 5.832031 L 10 5.832031 C 10 5.832031 9.34375 5.832031 8.835938 6.152344 C 8.335938 6.464844 8.144531 7.402344 8.144531 7.402344 L 9.0625 7.6875 L 9.109375 10 L 12.558594 10 L 12.605469 7.6875 L 13.523438 7.402344 C 13.523438 7.402344 13.332031 6.464844 12.832031 6.152344 Z M 12.832031 6.152344 "/>
<path style=" stroke:none;fill-rule:nonzero;fill:rgb(68.627451%,49.411765%,34.117647%);fill-opacity:1;" d="M 10 4.183594 L 10 5.851562 C 10 6.136719 10.375 6.394531 10.832031 6.394531 C 11.292969 6.394531 11.667969 6.117188 11.667969 5.851562 L 11.667969 4.183594 Z M 10 4.183594 "/>
<path style=" stroke:none;fill-rule:nonzero;fill:rgb(60.784314%,41.568627%,28.627451%);fill-opacity:1;" d="M 10 5.652344 C 10.253906 5.9375 10.492188 6.007812 10.832031 6.007812 C 11.171875 6.007812 11.414062 5.9375 11.667969 5.652344 L 11.667969 5.3125 L 10 5.3125 Z M 10 5.652344 "/>
<path style=" stroke:none;fill-rule:nonzero;fill:rgb(68.627451%,49.411765%,34.117647%);fill-opacity:1;" d="M 12.917969 1.25 L 8.75 1.25 L 8.75 3.75 C 8.75 4.902344 9.683594 5.832031 10.832031 5.832031 C 11.984375 5.832031 12.917969 4.902344 12.917969 3.75 Z M 12.917969 1.25 "/>
<path style=" stroke:none;fill-rule:nonzero;fill:rgb(37.647059%,20.784314%,16.470588%);fill-opacity:1;" d="M 8.75 1.042969 L 8.542969 2.082031 L 8.75 2.917969 C 9.722656 2.917969 9.9375 1.910156 9.984375 1.464844 C 10 1.910156 10.324219 2.917969 12.917969 2.917969 L 13.125 2.082031 L 12.917969 1.042969 Z M 8.75 1.042969 "/>
<path style=" stroke:none;fill-rule:nonzero;fill:rgb(56.862745%,35.294118%,20.392157%);fill-opacity:1;" d="M 11.667969 5 L 10 5 C 10 5 10 5.417969 10.832031 5.417969 C 11.667969 5.417969 11.667969 5 11.667969 5 Z M 11.667969 5 "/>
<path style=" stroke:none;fill-rule:nonzero;fill:rgb(40%,12.941176%,7.45098%);fill-opacity:1;" d="M 10 3.542969 C 10 3.65625 9.90625 3.75 9.792969 3.75 C 9.675781 3.75 9.582031 3.65625 9.582031 3.542969 C 9.582031 3.425781 9.675781 3.332031 9.792969 3.332031 C 9.90625 3.332031 10 3.425781 10 3.542969 Z M 10 3.542969 "/>
<path style=" stroke:none;fill-rule:nonzero;fill:rgb(40%,12.941176%,7.45098%);fill-opacity:1;" d="M 12.082031 3.542969 C 12.082031 3.65625 11.988281 3.75 11.875 3.75 C 11.761719 3.75 11.667969 3.65625 11.667969 3.542969 C 11.667969 3.425781 11.761719 3.332031 11.875 3.332031 C 11.988281 3.332031 12.082031 3.425781 12.082031 3.542969 Z M 12.082031 3.542969 "/>
<path style=" stroke:none;fill-rule:nonzero;fill:rgb(56.862745%,35.294118%,20.392157%);fill-opacity:1;" d="M 10.417969 4.167969 L 11.25 4.167969 C 11.25 4.167969 11.25 4.582031 10.832031 4.582031 C 10.417969 4.582031 10.417969 4.167969 10.417969 4.167969 Z M 10.417969 4.167969 "/>
</g>
</svg>
