<?xml version="1.0" encoding="UTF-8"?>
<svg xmlns="http://www.w3.org/2000/svg" xmlns:xlink="http://www.w3.org/1999/xlink" width="15pt" height="15pt" viewBox="0 0 15 15" version="1.1">
<g id="surface1">
<path style=" stroke:none;fill-rule:nonzero;fill:rgb(16.078431%,18.431373%,20%);fill-opacity:1;" d="M 10.832031 11.667969 L 4.167969 11.667969 C 2.785156 11.667969 1.667969 12.785156 1.667969 14.167969 L 1.667969 15 L 13.332031 15 L 13.332031 14.167969 C 13.332031 12.785156 12.214844 11.667969 10.832031 11.667969 Z M 10.832031 11.667969 "/>
<path style=" stroke:none;fill-rule:nonzero;fill:rgb(40%,45.882353%,49.803922%);fill-opacity:1;" d="M 3.367188 13.890625 C 3.472656 13.890625 3.535156 15 3.535156 15 L 3.136719 15 C 3.136719 15 3.21875 13.890625 3.367188 13.890625 M 4.617188 13.890625 C 4.722656 13.890625 4.785156 15 4.785156 15 L 4.386719 15 C 4.386719 15 4.46875 13.890625 4.617188 13.890625 M 10.386719 13.890625 C 10.28125 13.890625 10.21875 15 10.21875 15 L 10.617188 15 C 10.617188 15 10.539062 13.890625 10.386719 13.890625 M 11.636719 13.890625 C 11.53125 13.890625 11.46875 15 11.46875 15 L 11.867188 15 C 11.867188 15 11.789062 13.890625 11.636719 13.890625 "/>
<path style=" stroke:none;fill-rule:nonzero;fill:rgb(46.666667%,69.803922%,33.333333%);fill-opacity:1;" d="M 5.160156 11.667969 C 5.160156 11.667969 5.257812 12.015625 5.480469 12.488281 C 5.824219 13.222656 6.464844 14.261719 7.5 14.753906 C 8.535156 14.261719 9.175781 13.222656 9.519531 12.488281 C 9.742188 12.015625 9.839844 11.667969 9.839844 11.667969 Z M 5.160156 11.667969 "/>
<path style=" stroke:none;fill-rule:nonzero;fill:rgb(36.078431%,56.862745%,23.137255%);fill-opacity:1;" d="M 7.5 13.332031 C 8.46875 13.332031 9.117188 12.910156 9.519531 12.488281 C 9.742188 12.015625 9.839844 11.667969 9.839844 11.667969 L 5.160156 11.667969 C 5.160156 11.667969 5.257812 12.015625 5.480469 12.488281 C 5.882812 12.910156 6.53125 13.332031 7.5 13.332031 Z M 7.5 13.332031 "/>
<path style=" stroke:none;fill-rule:nonzero;fill:rgb(96.862745%,87.058824%,80.784314%);fill-opacity:1;" d="M 5.683594 11.710938 C 5.683594 12.082031 6.667969 12.542969 7.5 12.542969 C 8.332031 12.542969 9.316406 12.082031 9.316406 11.710938 L 9.316406 10.121094 L 5.683594 10.121094 Z M 5.683594 11.710938 "/>
<path style=" stroke:none;fill-rule:nonzero;fill:rgb(93.333333%,76.078431%,67.843137%);fill-opacity:1;" d="M 5.679688 10.820312 C 6.1875 11.394531 6.816406 11.550781 7.5 11.550781 C 8.179688 11.550781 8.808594 11.394531 9.316406 10.820312 L 9.316406 9.367188 L 5.679688 9.367188 Z M 5.679688 10.820312 "/>
<path style=" stroke:none;fill-rule:nonzero;fill:rgb(96.862745%,87.058824%,80.784314%);fill-opacity:1;" d="M 4.769531 6.640625 C 4.769531 7.242188 4.460938 7.734375 4.085938 7.734375 C 3.707031 7.734375 3.402344 7.242188 3.402344 6.640625 C 3.402344 6.035156 3.707031 5.546875 4.085938 5.546875 C 4.460938 5.546875 4.769531 6.035156 4.769531 6.640625 M 11.597656 6.640625 C 11.597656 7.242188 11.292969 7.734375 10.914062 7.734375 C 10.535156 7.734375 10.230469 7.242188 10.230469 6.640625 C 10.230469 6.035156 10.535156 5.546875 10.914062 5.546875 C 11.292969 5.546875 11.597656 6.035156 11.597656 6.640625 "/>
<path style=" stroke:none;fill-rule:nonzero;fill:rgb(96.862745%,87.058824%,80.784314%);fill-opacity:1;" d="M 3.949219 7.066406 C 3.949219 4.738281 5.539062 2.847656 7.5 2.847656 C 9.460938 2.847656 11.050781 4.738281 11.050781 7.066406 C 11.050781 9.394531 9.460938 11.285156 7.5 11.285156 C 5.539062 11.285156 3.949219 9.394531 3.949219 7.066406 "/>
<path style=" stroke:none;fill-rule:nonzero;fill:rgb(75.686275%,41.176471%,30.980392%);fill-opacity:1;" d="M 7.5 9.917969 C 6.351562 9.917969 6 9.625 5.941406 9.5625 C 5.835938 9.457031 5.835938 9.285156 5.941406 9.179688 C 6.042969 9.074219 6.210938 9.070312 6.316406 9.167969 C 6.339844 9.183594 6.617188 9.371094 7.5 9.371094 C 8.417969 9.371094 8.683594 9.167969 8.683594 9.167969 C 8.789062 9.0625 8.957031 9.066406 9.066406 9.171875 C 9.171875 9.28125 9.164062 9.457031 9.058594 9.5625 C 9 9.625 8.648438 9.917969 7.5 9.917969 M 7.8125 8.230469 L 7.1875 8.230469 C 7.015625 8.230469 6.875 8.089844 6.875 7.917969 C 6.875 7.746094 7.015625 7.605469 7.1875 7.605469 L 7.8125 7.605469 C 7.984375 7.605469 8.125 7.746094 8.125 7.917969 C 8.125 8.089844 7.984375 8.230469 7.8125 8.230469 "/>
<path style=" stroke:none;fill-rule:nonzero;fill:rgb(40%,12.941176%,7.45098%);fill-opacity:1;" d="M 5.832031 7.082031 C 5.605469 7.082031 5.417969 6.894531 5.417969 6.667969 L 5.417969 6.25 C 5.417969 6.019531 5.605469 5.832031 5.832031 5.832031 C 6.0625 5.832031 6.25 6.019531 6.25 6.25 L 6.25 6.667969 C 6.25 6.894531 6.0625 7.082031 5.832031 7.082031 M 9.167969 7.082031 C 8.9375 7.082031 8.75 6.894531 8.75 6.667969 L 8.75 6.25 C 8.75 6.019531 8.9375 5.832031 9.167969 5.832031 C 9.394531 5.832031 9.582031 6.019531 9.582031 6.25 L 9.582031 6.667969 C 9.582031 6.894531 9.394531 7.082031 9.167969 7.082031 "/>
<path style=" stroke:none;fill-rule:nonzero;fill:rgb(16.078431%,18.431373%,20%);fill-opacity:1;" d="M 7.5 1.25 C 9.851562 1.25 11.324219 3.1875 11.324219 4.632812 C 11.324219 6.082031 10.917969 6.703125 10.734375 6.082031 C 10.417969 5 10 5 10 5 C 10 5 8.382812 5.640625 7.792969 5.0625 C 7.792969 5.0625 8.675781 6.796875 6.910156 5.0625 C 6.910156 5.0625 7.207031 6.21875 5.441406 4.773438 C 5.441406 4.773438 4.558594 4.632812 4.265625 6.082031 C 4.183594 6.484375 3.675781 6.082031 3.675781 4.632812 C 3.675781 3.1875 4.851562 1.25 7.5 1.25 "/>
<path style=" stroke:none;fill-rule:nonzero;fill:rgb(16.078431%,18.431373%,20%);fill-opacity:1;" d="M 13.375 1.464844 L 7.542969 0.214844 C 7.515625 0.207031 7.484375 0.207031 7.457031 0.214844 L 1.621094 1.464844 C 1.53125 1.484375 1.460938 1.5625 1.457031 1.660156 C 1.457031 1.753906 1.515625 1.839844 1.609375 1.867188 L 3.667969 2.457031 C 3.589844 2.703125 3.542969 2.988281 3.542969 3.332031 C 3.542969 4.289062 4.910156 4.792969 7.5 4.792969 C 10.089844 4.792969 11.457031 4.289062 11.457031 3.332031 C 11.457031 2.988281 11.410156 2.703125 11.332031 2.457031 L 13.390625 1.867188 C 13.484375 1.839844 13.546875 1.753906 13.542969 1.660156 C 13.539062 1.5625 13.46875 1.484375 13.375 1.464844 Z M 13.375 1.464844 "/>
<path style=" stroke:none;fill-rule:nonzero;fill:rgb(40%,45.882353%,49.803922%);fill-opacity:1;" d="M 13.535156 1.609375 C 13.5 1.5 13.386719 1.4375 13.277344 1.464844 L 7.5 3.117188 L 1.722656 1.464844 C 1.613281 1.4375 1.496094 1.5 1.464844 1.609375 C 1.433594 1.71875 1.5 1.835938 1.609375 1.867188 L 7.441406 3.535156 C 7.460938 3.539062 7.480469 3.542969 7.5 3.542969 C 7.519531 3.542969 7.539062 3.539062 7.558594 3.535156 L 13.390625 1.867188 C 13.5 1.835938 13.566406 1.71875 13.535156 1.609375 Z M 13.535156 1.609375 "/>
<path style=" stroke:none;fill-rule:nonzero;fill:rgb(100%,80%,30.196078%);fill-opacity:1;" d="M 7.484375 1.460938 L 2.484375 1.875 C 2.472656 1.875 2.292969 1.898438 2.292969 2.082031 L 2.292969 4.621094 C 2.167969 4.699219 2.082031 4.929688 2.082031 5.625 C 2.082031 6.660156 2.269531 7.5 2.5 7.5 C 2.730469 7.5 2.917969 6.660156 2.917969 5.625 C 2.917969 4.929688 2.832031 4.699219 2.707031 4.621094 L 2.707031 2.273438 L 7.515625 1.875 C 7.632812 1.863281 7.71875 1.765625 7.707031 1.648438 C 7.699219 1.535156 7.597656 1.449219 7.484375 1.460938 Z M 7.484375 1.460938 "/>
</g>
</svg>
