<?xml version="1.0" encoding="UTF-8"?>
<svg xmlns="http://www.w3.org/2000/svg" xmlns:xlink="http://www.w3.org/1999/xlink" width="15pt" height="15pt" viewBox="0 0 15 15" version="1.1">
<g id="surface1">
<path style=" stroke:none;fill-rule:nonzero;fill:rgb(46.666667%,69.803922%,33.333333%);fill-opacity:1;" d="M 14.582031 15 L 14.582031 12.917969 C 14.582031 11.535156 13.464844 10.417969 12.082031 10.417969 L 5.417969 10.417969 C 4.035156 10.417969 2.917969 11.535156 2.917969 12.917969 L 2.917969 15 Z M 14.582031 15 "/>
<path style=" stroke:none;fill-rule:nonzero;fill:rgb(68.627451%,49.411765%,34.117647%);fill-opacity:1;" d="M 6.933594 10.460938 C 6.933594 10.832031 7.917969 11.292969 8.75 11.292969 C 9.582031 11.292969 10.566406 10.832031 10.566406 10.460938 L 10.566406 8.871094 L 6.933594 8.871094 Z M 6.933594 10.460938 "/>
<path style=" stroke:none;fill-rule:nonzero;fill:rgb(60.784314%,41.568627%,28.627451%);fill-opacity:1;" d="M 6.929688 9.570312 C 7.4375 10.144531 8.066406 10.300781 8.75 10.300781 C 9.429688 10.300781 10.058594 10.144531 10.566406 9.570312 L 10.566406 8.117188 L 6.929688 8.117188 Z M 6.929688 9.570312 "/>
<path style=" stroke:none;fill-rule:nonzero;fill:rgb(68.627451%,49.411765%,34.117647%);fill-opacity:1;" d="M 6.019531 5.390625 C 6.019531 5.992188 5.710938 6.484375 5.335938 6.484375 C 4.957031 6.484375 4.652344 5.992188 4.652344 5.390625 C 4.652344 4.785156 4.957031 4.296875 5.335938 4.296875 C 5.710938 4.296875 6.019531 4.785156 6.019531 5.390625 M 12.847656 5.390625 C 12.847656 5.992188 12.542969 6.484375 12.164062 6.484375 C 11.785156 6.484375 11.480469 5.992188 11.480469 5.390625 C 11.480469 4.785156 11.785156 4.296875 12.164062 4.296875 C 12.542969 4.296875 12.847656 4.785156 12.847656 5.390625 "/>
<path style=" stroke:none;fill-rule:nonzero;fill:rgb(68.627451%,49.411765%,34.117647%);fill-opacity:1;" d="M 5.199219 5.816406 C 5.199219 3.488281 6.789062 1.597656 8.75 1.597656 C 10.710938 1.597656 12.300781 3.488281 12.300781 5.816406 C 12.300781 8.144531 10.710938 10.035156 8.75 10.035156 C 6.789062 10.035156 5.199219 8.144531 5.199219 5.816406 "/>
<path style=" stroke:none;fill-rule:nonzero;fill:rgb(56.862745%,35.294118%,20.392157%);fill-opacity:1;" d="M 8.75 8.667969 C 7.601562 8.667969 7.25 8.375 7.191406 8.3125 C 7.085938 8.207031 7.085938 8.035156 7.191406 7.929688 C 7.292969 7.824219 7.460938 7.820312 7.566406 7.917969 C 7.589844 7.933594 7.867188 8.121094 8.75 8.121094 C 9.667969 8.121094 9.933594 7.917969 9.933594 7.917969 C 10.039062 7.8125 10.207031 7.816406 10.316406 7.921875 C 10.421875 8.03125 10.414062 8.207031 10.308594 8.3125 C 10.25 8.375 9.898438 8.667969 8.75 8.667969 "/>
<path style=" stroke:none;fill-rule:nonzero;fill:rgb(37.647059%,20.784314%,16.470588%);fill-opacity:1;" d="M 8.75 0 C 11.101562 0 12.574219 1.9375 12.574219 3.382812 C 12.574219 4.832031 12.28125 5.410156 11.984375 4.832031 L 11.398438 3.671875 C 11.398438 3.671875 9.632812 3.671875 9.042969 3.09375 C 9.042969 3.09375 9.925781 4.832031 8.160156 3.09375 C 8.160156 3.09375 8.457031 4.253906 6.691406 2.804688 C 6.691406 2.804688 5.808594 3.382812 5.515625 4.832031 C 5.433594 5.234375 4.925781 4.832031 4.925781 3.382812 C 4.925781 1.9375 6.101562 0 8.75 0 "/>
<path style=" stroke:none;fill-rule:nonzero;fill:rgb(37.647059%,20.784314%,16.470588%);fill-opacity:1;" d="M 7.082031 5.832031 C 6.855469 5.832031 6.667969 5.644531 6.667969 5.417969 L 6.667969 5 C 6.667969 4.769531 6.855469 4.582031 7.082031 4.582031 C 7.3125 4.582031 7.5 4.769531 7.5 5 L 7.5 5.417969 C 7.5 5.644531 7.3125 5.832031 7.082031 5.832031 M 10.417969 5.832031 C 10.1875 5.832031 10 5.644531 10 5.417969 L 10 5 C 10 4.769531 10.1875 4.582031 10.417969 4.582031 C 10.644531 4.582031 10.832031 4.769531 10.832031 5 L 10.832031 5.417969 C 10.832031 5.644531 10.644531 5.832031 10.417969 5.832031 "/>
<path style=" stroke:none;fill-rule:nonzero;fill:rgb(56.862745%,35.294118%,20.392157%);fill-opacity:1;" d="M 9.0625 6.980469 L 8.4375 6.980469 C 8.265625 6.980469 8.125 6.839844 8.125 6.667969 C 8.125 6.496094 8.265625 6.355469 8.4375 6.355469 L 9.0625 6.355469 C 9.234375 6.355469 9.375 6.496094 9.375 6.667969 C 9.375 6.839844 9.234375 6.980469 9.0625 6.980469 "/>
<path style=" stroke:none;fill-rule:nonzero;fill:rgb(88.235294%,90.980392%,92.941176%);fill-opacity:1;" d="M 13.75 14.582031 C 13.75 14.8125 13.5625 15 13.332031 15 L 9.167969 15 C 8.9375 15 8.75 14.8125 8.75 14.582031 C 8.75 14.351562 8.9375 14.167969 9.167969 14.167969 L 13.332031 14.167969 C 13.5625 14.167969 13.75 14.351562 13.75 14.582031 Z M 13.75 14.582031 "/>
<path style=" stroke:none;fill-rule:nonzero;fill:rgb(88.235294%,90.980392%,92.941176%);fill-opacity:1;" d="M 8.433594 9.167969 L 1.566406 9.167969 C 0.929688 9.167969 0.117188 9.488281 0.535156 10.636719 L 1.8125 14.167969 C 1.8125 14.167969 1.980469 15 2.917969 15 L 11.25 15 L 9.582031 10.316406 C 9.402344 9.765625 9.070312 9.167969 8.433594 9.167969 Z M 8.433594 9.167969 "/>
<path style=" stroke:none;fill-rule:nonzero;fill:rgb(60%,66.666667%,70.980392%);fill-opacity:1;" d="M 8.015625 9.167969 L 1.148438 9.167969 C 0.515625 9.167969 -0.300781 9.488281 0.117188 10.636719 L 1.398438 14.167969 C 1.398438 14.167969 1.5625 15 2.5 15 L 10.832031 15 L 9.167969 10.316406 C 8.984375 9.765625 8.652344 9.167969 8.015625 9.167969 Z M 8.015625 9.167969 "/>
<path style=" stroke:none;fill-rule:nonzero;fill:rgb(88.235294%,90.980392%,92.941176%);fill-opacity:1;" d="M 5.839844 12.203125 C 6.058594 12.855469 5.882812 13.503906 5.445312 13.652344 C 5.007812 13.796875 4.476562 13.382812 4.261719 12.730469 C 4.042969 12.074219 4.21875 11.425781 4.65625 11.277344 C 5.09375 11.132812 5.625 11.546875 5.839844 12.203125 Z M 7.917969 10.3125 L 1.25 10.3125 C 1.078125 10.3125 0.9375 10.171875 0.9375 10 C 0.9375 9.828125 1.078125 9.6875 1.25 9.6875 L 7.917969 9.6875 C 8.089844 9.6875 8.230469 9.828125 8.230469 10 C 8.230469 10.171875 8.089844 10.3125 7.917969 10.3125 Z M 7.917969 10.3125 "/>
</g>
</svg>
