<?xml version="1.0" encoding="UTF-8"?>
<svg xmlns="http://www.w3.org/2000/svg" xmlns:xlink="http://www.w3.org/1999/xlink" width="15pt" height="15pt" viewBox="0 0 15 15" version="1.1">
<g id="surface1">
<path style=" stroke:none;fill-rule:nonzero;fill:rgb(100%,89.803922%,11.764706%);fill-opacity:1;" d="M 7.5 1.25 C 10 1.25 14.167969 2.5 14.167969 7.917969 C 14.167969 13.332031 14.167969 14.582031 12.917969 14.582031 C 11.667969 14.582031 10 13.332031 7.5 13.332031 C 5 13.332031 3.367188 14.582031 2.082031 14.582031 C 0.691406 14.582031 0.832031 9.582031 0.832031 7.917969 C 0.832031 2.5 5 1.25 7.5 1.25 Z M 7.5 1.25 "/>
<path style=" stroke:none;fill-rule:nonzero;fill:rgb(48.627451%,32.54902%,24.313725%);fill-opacity:1;" d="M 2.5 7.734375 C 2.5 4.183594 4.738281 1.300781 7.5 1.300781 C 10.261719 1.300781 12.5 4.183594 12.5 7.734375 C 12.5 11.285156 10.261719 14.167969 7.5 14.167969 C 4.738281 14.167969 2.5 11.285156 2.5 7.734375 Z M 2.5 7.734375 "/>
<path style=" stroke:none;fill-rule:nonzero;fill:rgb(87.45098%,12.156863%,19.607843%);fill-opacity:1;" d="M 7.5 12.5 C 6.523438 12.5 6.011719 12.015625 5.957031 11.960938 C 5.792969 11.796875 5.792969 11.535156 5.957031 11.371094 C 6.117188 11.210938 6.378906 11.210938 6.539062 11.367188 C 6.5625 11.386719 6.875 11.667969 7.5 11.667969 C 8.132812 11.667969 8.445312 11.378906 8.460938 11.367188 C 8.625 11.210938 8.886719 11.214844 9.046875 11.378906 C 9.203125 11.542969 9.207031 11.800781 9.042969 11.960938 C 8.988281 12.015625 8.476562 12.5 7.5 12.5 Z M 7.5 12.5 "/>
<path style=" stroke:none;fill-rule:nonzero;fill:rgb(23.921569%,18.039216%,14.117647%);fill-opacity:1;" d="M 7.917969 10.417969 L 7.082031 10.417969 C 6.851562 10.417969 6.667969 10.230469 6.667969 10 C 6.667969 9.769531 6.851562 9.582031 7.082031 9.582031 L 7.917969 9.582031 C 8.148438 9.582031 8.332031 9.769531 8.332031 10 C 8.332031 10.230469 8.148438 10.417969 7.917969 10.417969 Z M 7.917969 10.417969 "/>
<path style=" stroke:none;fill-rule:nonzero;fill:rgb(100%,89.803922%,11.764706%);fill-opacity:1;" d="M 1.277344 10 C 1.265625 9.863281 1.25 9.730469 1.25 9.582031 C 1.25 7.5 2.5 9.816406 2.5 8.332031 C 2.5 6.847656 3.332031 6.667969 4.167969 5.832031 L 5.417969 4.582031 C 5.417969 4.582031 7.5 5.832031 9.167969 5.832031 C 10.832031 5.832031 12.5 6.667969 12.5 8.332031 C 12.5 10 13.75 7.5 13.75 9.582031 C 13.75 9.730469 13.734375 9.863281 13.726562 10 L 14.164062 10 C 14.167969 9.382812 14.167969 8.695312 14.167969 7.917969 C 14.167969 2.5 10 0.417969 7.5 0.417969 C 5 0.417969 0.832031 2.5 0.832031 7.917969 C 0.832031 8.398438 0.820312 9.160156 0.839844 10 Z M 1.277344 10 "/>
<path style=" stroke:none;fill-rule:nonzero;fill:rgb(0%,0%,0%);fill-opacity:1;" d="M 5.417969 9.167969 C 5.1875 9.167969 5 8.980469 5 8.75 L 5 7.917969 C 5 7.6875 5.1875 7.5 5.417969 7.5 C 5.648438 7.5 5.832031 7.6875 5.832031 7.917969 L 5.832031 8.75 C 5.832031 8.980469 5.648438 9.167969 5.417969 9.167969 Z M 9.582031 9.167969 C 9.351562 9.167969 9.167969 8.980469 9.167969 8.75 L 9.167969 7.917969 C 9.167969 7.6875 9.351562 7.5 9.582031 7.5 C 9.8125 7.5 10 7.6875 10 7.917969 L 10 8.75 C 10 8.980469 9.8125 9.167969 9.582031 9.167969 Z M 9.582031 9.167969 "/>
</g>
</svg>
