<?xml version="1.0" encoding="UTF-8"?>
<svg xmlns="http://www.w3.org/2000/svg" xmlns:xlink="http://www.w3.org/1999/xlink" width="15pt" height="15pt" viewBox="0 0 15 15" version="1.1">
<g id="surface1">
<path style=" stroke:none;fill-rule:nonzero;fill:rgb(42.745098%,43.137255%,44.313725%);fill-opacity:1;" d="M 5.441406 1.667969 C 5.441406 0.746094 6.363281 0 7.5 0 C 8.636719 0 9.558594 0.746094 9.558594 1.667969 C 9.558594 2.585938 8.636719 3.332031 7.5 3.332031 C 6.363281 3.332031 5.441406 2.585938 5.441406 1.667969 Z M 5.441406 1.667969 "/>
<path style=" stroke:none;fill-rule:nonzero;fill:rgb(100%,86.27451%,36.470588%);fill-opacity:1;" d="M 13.75 8.75 C 13.75 7.859375 13.3125 7.136719 12.761719 7.089844 C 12.191406 3.980469 10.054688 1.667969 7.5 1.667969 C 4.945312 1.667969 2.808594 3.980469 2.238281 7.089844 C 1.6875 7.136719 1.25 7.859375 1.25 8.75 C 1.25 9.648438 1.695312 10.375 2.25 10.410156 C 2.835938 13.3125 4.960938 15 7.5 15 C 10.039062 15 12.164062 13.3125 12.75 10.410156 C 13.304688 10.375 13.75 9.648438 13.75 8.75 Z M 13.75 8.75 "/>
<path style=" stroke:none;fill-rule:nonzero;fill:rgb(50.196078%,50.980392%,52.156863%);fill-opacity:1;" d="M 10.417969 7.917969 L 9.167969 7.917969 C 8.9375 7.917969 8.75 7.730469 8.75 7.5 C 8.75 7.269531 8.9375 7.082031 9.167969 7.082031 L 10.417969 7.082031 C 10.648438 7.082031 10.832031 7.269531 10.832031 7.5 C 10.832031 7.730469 10.648438 7.917969 10.417969 7.917969 Z M 5.832031 7.917969 L 4.582031 7.917969 C 4.351562 7.917969 4.167969 7.730469 4.167969 7.5 C 4.167969 7.269531 4.351562 7.082031 4.582031 7.082031 L 5.832031 7.082031 C 6.0625 7.082031 6.25 7.269531 6.25 7.5 C 6.25 7.730469 6.0625 7.917969 5.832031 7.917969 Z M 5.832031 7.917969 "/>
<path style=" stroke:none;fill-rule:nonzero;fill:rgb(87.45098%,12.156863%,19.607843%);fill-opacity:1;" d="M 7.5 13.1875 C 6.449219 13.1875 6.042969 12.875 5.972656 12.8125 C 5.800781 12.660156 5.785156 12.394531 5.9375 12.222656 C 6.085938 12.054688 6.339844 12.035156 6.511719 12.175781 C 6.535156 12.191406 6.804688 12.355469 7.5 12.355469 C 8.230469 12.355469 8.488281 12.175781 8.488281 12.175781 C 8.664062 12.023438 8.917969 12.046875 9.070312 12.214844 C 9.222656 12.390625 9.199219 12.660156 9.027344 12.8125 C 8.957031 12.875 8.550781 13.1875 7.5 13.1875 Z M 7.5 13.1875 "/>
<path style=" stroke:none;fill-rule:nonzero;fill:rgb(75.686275%,41.176471%,30.980392%);fill-opacity:1;" d="M 7.917969 11.667969 L 7.082031 11.667969 C 6.851562 11.667969 6.667969 11.480469 6.667969 11.25 C 6.667969 11.019531 6.851562 10.832031 7.082031 10.832031 L 7.917969 10.832031 C 8.148438 10.832031 8.332031 11.019531 8.332031 11.25 C 8.332031 11.480469 8.148438 11.667969 7.917969 11.667969 Z M 7.917969 11.667969 "/>
<path style=" stroke:none;fill-rule:nonzero;fill:rgb(40%,12.941176%,7.45098%);fill-opacity:1;" d="M 9.582031 10 C 9.351562 10 9.167969 9.8125 9.167969 9.582031 L 9.167969 8.75 C 9.167969 8.519531 9.351562 8.332031 9.582031 8.332031 C 9.8125 8.332031 10 8.519531 10 8.75 L 10 9.582031 C 10 9.8125 9.8125 10 9.582031 10 Z M 5.417969 10 C 5.1875 10 5 9.8125 5 9.582031 L 5 8.75 C 5 8.519531 5.1875 8.332031 5.417969 8.332031 C 5.648438 8.332031 5.832031 8.519531 5.832031 8.75 L 5.832031 9.582031 C 5.832031 9.8125 5.648438 10 5.417969 10 Z M 5.417969 10 "/>
<path style=" stroke:none;fill-rule:nonzero;fill:rgb(50.196078%,50.980392%,52.156863%);fill-opacity:1;" d="M 13.75 5 C 12.917969 2.082031 10.417969 1.25 9.089844 1.25 C 8.332031 1.25 7.5 1.667969 7.5 1.667969 C 7.5 1.667969 6.667969 1.25 5.832031 1.25 C 4.582031 1.25 2.082031 2.082031 1.25 5 C 0.5625 7.402344 2.082031 9.582031 2.082031 9.582031 C 2.082031 8.332031 2.917969 5.832031 5 5.832031 C 7.082031 5.832031 7.5 4.167969 7.5 4.167969 C 7.5 4.167969 7.828125 5.832031 9.910156 5.832031 C 11.996094 5.832031 12.917969 8.332031 12.917969 9.582031 C 12.917969 9.582031 14.4375 7.402344 13.75 5 Z M 13.75 5 "/>
<path style=" stroke:none;fill-rule:nonzero;fill:rgb(66.666667%,55.294118%,84.705882%);fill-opacity:1;" d="M 13.75 10 C 13.75 10.230469 13.5625 10.417969 13.332031 10.417969 C 13.101562 10.417969 12.917969 10.230469 12.917969 10 C 12.917969 9.769531 13.101562 9.582031 13.332031 9.582031 C 13.5625 9.582031 13.75 9.769531 13.75 10 Z M 13.75 10 "/>
<path style=" stroke:none;fill-rule:nonzero;fill:rgb(66.666667%,55.294118%,84.705882%);fill-opacity:1;" d="M 2.082031 10 C 2.082031 10.230469 1.898438 10.417969 1.667969 10.417969 C 1.4375 10.417969 1.25 10.230469 1.25 10 C 1.25 9.769531 1.4375 9.582031 1.667969 9.582031 C 1.898438 9.582031 2.082031 9.769531 2.082031 10 Z M 2.082031 10 "/>
</g>
</svg>
