<?xml version="1.0" encoding="UTF-8"?>
<svg xmlns="http://www.w3.org/2000/svg" xmlns:xlink="http://www.w3.org/1999/xlink" width="15pt" height="15pt" viewBox="0 0 15 15" version="1.1">
<g id="surface1">
<path style=" stroke:none;fill-rule:nonzero;fill:rgb(90.196078%,90.588235%,90.980392%);fill-opacity:1;" d="M 14.582031 7.5 C 14.582031 4.582031 13.75 2.082031 11.667969 0.832031 C 9.582031 -0.417969 7.5 0.507812 7.5 0.507812 L 7.5 0.519531 L 7.5 0.507812 C 7.5 0.507812 5.417969 -0.417969 3.332031 0.832031 C 1.25 2.082031 0.417969 4.582031 0.417969 7.5 C 0.417969 10.417969 0 15 0 15 L 15 15 C 15 15 14.582031 10.417969 14.582031 7.5 Z M 14.582031 7.5 "/>
<path style=" stroke:none;fill-rule:nonzero;fill:rgb(100%,89.803922%,11.764706%);fill-opacity:1;" d="M 7.5 1.171875 C 9.53125 1.171875 12.917969 2.1875 12.917969 6.585938 C 12.917969 10.988281 12.917969 12.003906 11.902344 12.003906 C 10.886719 12.003906 9.53125 10.988281 7.5 10.988281 C 5.46875 10.988281 4.144531 12.003906 3.097656 12.003906 C 1.964844 12.003906 2.082031 7.941406 2.082031 6.585938 C 2.082031 2.1875 5.46875 1.171875 7.5 1.171875 Z M 7.5 1.171875 "/>
<path style=" stroke:none;fill-rule:nonzero;fill:rgb(100%,100%,100%);fill-opacity:1;" d="M 13.332031 15 L 13.332031 14.582031 C 13.332031 13.203125 12.214844 12.082031 10.832031 12.082031 L 4.167969 12.082031 C 2.785156 12.082031 1.667969 13.203125 1.667969 14.582031 L 1.667969 15 Z M 13.332031 15 "/>
<path style=" stroke:none;fill-rule:nonzero;fill:rgb(95.294118%,82.352941%,63.529412%);fill-opacity:1;" d="M 11.5625 6.441406 C 11.5625 3.554688 9.742188 1.214844 7.5 1.214844 C 5.253906 1.214844 3.4375 3.554688 3.4375 6.441406 C 3.4375 8.765625 4.617188 10.734375 6.25 11.410156 L 6.25 12.082031 L 5 12.082031 L 5 14.167969 L 10 14.167969 L 10 12.082031 L 8.75 12.082031 L 8.75 11.410156 C 10.382812 10.734375 11.5625 8.765625 11.5625 6.441406 Z M 11.5625 6.441406 "/>
<path style=" stroke:none;fill-rule:nonzero;fill:rgb(100%,89.803922%,11.764706%);fill-opacity:1;" d="M 2.441406 8.332031 C 2.433594 8.332031 2.421875 8.085938 2.421875 7.96875 C 2.421875 6.277344 3.4375 8.144531 3.4375 6.9375 C 3.4375 5.734375 4.113281 5.578125 4.792969 4.902344 C 5.128906 4.5625 5.808594 3.882812 5.808594 3.882812 C 5.808594 3.882812 7.5 4.894531 8.855469 4.894531 C 10.207031 4.894531 11.5625 5.574219 11.5625 6.925781 C 11.5625 8.28125 12.578125 6.277344 12.578125 7.96875 C 12.578125 8.089844 12.566406 8.332031 12.558594 8.332031 L 12.914062 8.332031 C 12.917969 7.917969 12.917969 7.246094 12.917969 6.613281 C 12.917969 2.214844 9.53125 0.507812 7.5 0.507812 C 5.46875 0.507812 2.082031 2.21875 2.082031 6.621094 C 2.082031 7.011719 2.074219 7.5 2.085938 8.332031 Z M 2.441406 8.332031 "/>
<path style=" stroke:none;fill-rule:nonzero;fill:rgb(40%,12.941176%,7.45098%);fill-opacity:1;" d="M 5.832031 7.5 C 5.601562 7.5 5.417969 7.3125 5.417969 7.082031 L 5.417969 6.667969 C 5.417969 6.4375 5.601562 6.25 5.832031 6.25 C 6.0625 6.25 6.25 6.4375 6.25 6.667969 L 6.25 7.082031 C 6.25 7.3125 6.0625 7.5 5.832031 7.5 Z M 9.167969 7.5 C 8.9375 7.5 8.75 7.3125 8.75 7.082031 L 8.75 6.667969 C 8.75 6.4375 8.9375 6.25 9.167969 6.25 C 9.398438 6.25 9.582031 6.4375 9.582031 6.667969 L 9.582031 7.082031 C 9.582031 7.3125 9.398438 7.5 9.167969 7.5 Z M 9.167969 7.5 "/>
<path style=" stroke:none;fill-rule:nonzero;fill:rgb(100%,100%,100%);fill-opacity:1;" d="M 11.519531 2.484375 C 11.320312 2.25 11.109375 2.035156 10.886719 1.84375 C 10.289062 1.984375 9 2.082031 7.5 2.082031 C 6.003906 2.082031 4.714844 1.984375 4.113281 1.84375 C 3.890625 2.035156 3.679688 2.25 3.484375 2.484375 C 4.261719 2.742188 5.769531 2.917969 7.5 2.917969 C 9.234375 2.917969 10.742188 2.742188 11.519531 2.484375 Z M 11.519531 2.484375 "/>
<path style=" stroke:none;fill-rule:nonzero;fill:rgb(75.686275%,41.176471%,30.980392%);fill-opacity:1;" d="M 7.917969 8.542969 C 7.917969 8.65625 7.824219 8.75 7.707031 8.75 L 7.292969 8.75 C 7.175781 8.75 7.082031 8.65625 7.082031 8.542969 C 7.082031 8.425781 7.175781 8.332031 7.292969 8.332031 L 7.707031 8.332031 C 7.824219 8.332031 7.917969 8.425781 7.917969 8.542969 Z M 7.917969 8.542969 "/>
<path style=" stroke:none;fill-rule:nonzero;fill:rgb(87.45098%,12.156863%,19.607843%);fill-opacity:1;" d="M 7.496094 9.910156 C 7.96875 9.910156 8.253906 9.714844 8.476562 9.570312 C 8.699219 9.425781 9.089844 9.691406 8.75 9.980469 C 8.410156 10.273438 7.894531 10.390625 7.5 10.390625 Z M 7.496094 9.910156 "/>
<path style=" stroke:none;fill-rule:nonzero;fill:rgb(87.45098%,12.156863%,19.607843%);fill-opacity:1;" d="M 7.496094 9.910156 C 7.027344 9.910156 6.742188 9.714844 6.519531 9.570312 C 6.296875 9.425781 5.90625 9.691406 6.246094 9.980469 C 6.585938 10.273438 7.101562 10.390625 7.496094 10.390625 Z M 7.496094 9.910156 "/>
</g>
</svg>
