<?xml version="1.0" encoding="UTF-8"?>
<svg xmlns="http://www.w3.org/2000/svg" xmlns:xlink="http://www.w3.org/1999/xlink" width="15pt" height="15pt" viewBox="0 0 15 15" version="1.1">
<g id="surface1">
<path style=" stroke:none;fill-rule:nonzero;fill:rgb(85.490196%,18.431373%,27.843137%);fill-opacity:1;" d="M 11.667969 8.75 C 11.667969 9.671875 10.417969 15 7.917969 15 L 4.582031 15 C 2.082031 15 0.832031 9.671875 0.832031 8.75 L 0.832031 1.667969 C 0.832031 0.746094 1.578125 0 2.5 0 L 10 0 C 10.921875 0 11.667969 0.746094 11.667969 1.667969 Z M 11.667969 8.75 "/>
<path style=" stroke:none;fill-rule:nonzero;fill:rgb(96.078431%,97.254902%,98.039216%);fill-opacity:1;" d="M 6.015625 3.820312 C 6.90625 4.796875 7.148438 6.117188 6.554688 6.765625 C 5.960938 7.417969 4.757812 7.152344 3.867188 6.179688 C 2.976562 5.203125 2.738281 3.882812 3.332031 3.230469 C 3.921875 2.582031 5.128906 2.84375 6.015625 3.820312 Z M 6.015625 3.820312 "/>
<path style=" stroke:none;fill-rule:nonzero;fill:rgb(16.078431%,18.431373%,20%);fill-opacity:1;" d="M 6.640625 5.292969 C 6.894531 5.621094 6.894531 6.148438 6.640625 6.472656 C 6.386719 6.796875 5.976562 6.796875 5.722656 6.472656 C 5.46875 6.148438 5.46875 5.621094 5.722656 5.296875 C 5.976562 4.96875 6.386719 4.96875 6.640625 5.292969 Z M 6.640625 5.292969 "/>
<path style=" stroke:none;fill-rule:nonzero;fill:rgb(96.078431%,97.254902%,98.039216%);fill-opacity:1;" d="M 9.054688 3.863281 C 8.292969 4.839844 8.085938 6.160156 8.59375 6.808594 C 9.101562 7.460938 10.128906 7.195312 10.886719 6.21875 C 11.648438 5.242188 11.851562 3.925781 11.347656 3.273438 C 10.839844 2.621094 9.8125 2.886719 9.054688 3.863281 Z M 9.054688 3.863281 "/>
<path style=" stroke:none;fill-rule:nonzero;fill:rgb(16.078431%,18.431373%,20%);fill-opacity:1;" d="M 9.929688 5.925781 C 9.929688 5.464844 9.640625 5.09375 9.28125 5.09375 C 8.921875 5.09375 8.632812 5.464844 8.632812 5.925781 C 8.632812 6.386719 8.921875 6.757812 9.28125 6.757812 C 9.640625 6.757812 9.929688 6.386719 9.929688 5.925781 Z M 9.929688 5.925781 "/>
<path style=" stroke:none;fill-rule:nonzero;fill:rgb(16.078431%,18.431373%,20%);fill-opacity:1;" d="M 8.703125 4.582031 C 8.527344 4.582031 8.347656 4.527344 8.195312 4.40625 C 7.832031 4.125 7.765625 3.601562 8.046875 3.238281 L 9.992188 0.738281 C 10.277344 0.375 10.800781 0.308594 11.164062 0.59375 C 11.527344 0.875 11.589844 1.398438 11.308594 1.761719 L 9.363281 4.261719 C 9.199219 4.472656 8.953125 4.582031 8.703125 4.582031 Z M 6.757812 4.582031 C 6.511719 4.582031 6.265625 4.472656 6.101562 4.261719 L 4.152344 1.761719 C 3.871094 1.398438 3.9375 0.875 4.300781 0.59375 C 4.664062 0.308594 5.1875 0.375 5.46875 0.738281 L 7.414062 3.238281 C 7.699219 3.601562 7.632812 4.125 7.269531 4.40625 C 7.117188 4.527344 6.9375 4.582031 6.757812 4.582031 Z M 6.757812 4.582031 "/>
<path style=" stroke:none;fill-rule:nonzero;fill:rgb(99.215686%,84.705882%,53.333333%);fill-opacity:1;" d="M 10 12.917969 C 9.664062 12.917969 9.34375 12.710938 9.21875 12.375 C 9.175781 12.269531 8.734375 11.25 7.5 11.25 C 6.265625 11.25 5.824219 12.269531 5.777344 12.382812 C 5.609375 12.808594 5.125 13.019531 4.699219 12.855469 C 4.273438 12.691406 4.058594 12.21875 4.21875 11.789062 C 4.253906 11.699219 5.074219 9.582031 7.5 9.582031 C 9.925781 9.582031 10.746094 11.699219 10.78125 11.789062 C 10.941406 12.222656 10.722656 12.703125 10.292969 12.863281 C 10.195312 12.898438 10.097656 12.917969 10 12.917969 Z M 10 12.917969 "/>
<path style=" stroke:none;fill-rule:nonzero;fill:rgb(16.078431%,18.431373%,20%);fill-opacity:1;" d="M 7.730469 9.167969 C 7.730469 9.167969 9.597656 8.9375 10.667969 10.832031 C 11.84375 12.917969 11.84375 8.75 11.550781 8.332031 C 11.257812 7.917969 10.945312 8.910156 10.375 8.707031 C 9.199219 8.292969 7.730469 9.167969 7.730469 9.167969 Z M 7.730469 9.167969 C 7.730469 9.167969 5.277344 8.9375 3.871094 10.832031 C 2.328125 12.917969 2.328125 8.75 2.714844 8.332031 C 3.101562 7.917969 3.507812 9.050781 4.257812 8.847656 C 5.800781 8.433594 7.730469 9.167969 7.730469 9.167969 Z M 7.730469 9.167969 "/>
<path style=" stroke:none;fill-rule:nonzero;fill:rgb(90.588235%,35.294118%,43.921569%);fill-opacity:1;" d="M 13.441406 6.25 C 13.40625 6.25 13.371094 6.257812 13.332031 6.261719 L 13.332031 6.25 L 7.5625 6.25 C 6.933594 6.25 6.425781 6.808594 6.425781 7.5 C 6.425781 8.191406 6.933594 8.75 7.5625 8.75 L 13.332031 8.75 L 13.332031 8.738281 C 13.371094 8.742188 13.40625 8.75 13.441406 8.75 C 14.074219 8.75 14.582031 8.191406 14.582031 7.5 C 14.582031 6.808594 14.074219 6.25 13.441406 6.25 Z M 13.441406 6.25 "/>
</g>
</svg>
