<?xml version="1.0" encoding="UTF-8"?>
<svg xmlns="http://www.w3.org/2000/svg" xmlns:xlink="http://www.w3.org/1999/xlink" width="15pt" height="15pt" viewBox="0 0 15 15" version="1.1">
<g id="surface1">
<path style=" stroke:none;fill-rule:nonzero;fill:rgb(16.078431%,18.431373%,20%);fill-opacity:1;" d="M 13.332031 9.582031 C 13.332031 9.582031 16.25 9.582031 13.75 6.25 C 13.75 6.25 16.25 5.417969 12.917969 3.332031 C 12.917969 3.332031 15.417969 0.828125 10 2.082031 C 10 2.082031 10 0 9.167969 0 C 8.332031 0 7.5 1.667969 7.5 1.667969 C 7.5 1.667969 6.667969 0 5.832031 0 C 5 0 5 2.082031 5 2.082031 C -0.417969 0.804688 2.082031 3.332031 2.082031 3.332031 C -1.25 5.417969 1.25 6.25 1.25 6.25 C -1.25 9.582031 1.667969 9.582031 1.667969 9.582031 C 1.667969 9.582031 0 10.417969 0 11.667969 C 0 12.917969 1.25 12.5 2.5 12.5 C -0.417969 16.25 7.5 12.917969 7.5 12.917969 C 7.5 12.917969 15.417969 16.25 12.5 12.5 C 13.75 12.5 15 12.917969 15 11.667969 C 15 10.417969 13.332031 9.582031 13.332031 9.582031 Z M 13.332031 9.582031 "/>
<path style=" stroke:none;fill-rule:nonzero;fill:rgb(86.666667%,18.039216%,26.666667%);fill-opacity:1;" d="M 12.066406 6.667969 C 12.066406 6.667969 11.960938 3.949219 10.410156 2.917969 C 9.160156 2.082031 8.332031 2.082031 7.5 2.082031 C 6.628906 2.082031 5.832031 2.082031 4.582031 2.917969 C 3.03125 3.949219 2.917969 6.667969 2.917969 6.667969 C 2.5 6.667969 1.96875 7.621094 2.082031 8.75 C 2.203125 9.953125 2.917969 10.417969 2.917969 10.417969 C 2.917969 12.082031 4.167969 13.332031 4.167969 13.332031 C 4.167969 14.167969 4.167969 14.582031 5.832031 14.582031 L 9.152344 14.582031 C 10.832031 14.582031 10.816406 14.167969 10.816406 13.332031 C 10.816406 13.332031 12.066406 12.082031 12.066406 10.417969 C 12.066406 10.417969 12.78125 9.953125 12.902344 8.75 C 13.015625 7.621094 12.484375 6.667969 12.066406 6.667969 Z M 12.066406 6.667969 "/>
<path style=" stroke:none;fill-rule:nonzero;fill:rgb(16.078431%,18.431373%,20%);fill-opacity:1;" d="M 10.492188 10.675781 C 10.140625 10.859375 8.667969 11.285156 7.5 11.285156 C 6.25 11.285156 4.789062 10.859375 4.4375 10.675781 C 4.085938 10.492188 3.695312 10.820312 3.808594 11.453125 C 3.957031 12.316406 4.328125 13.40625 5.21875 13.203125 C 5.511719 13.136719 6.25 12.5 7.5 12.5 C 8.757812 12.5 9.433594 13.136719 9.726562 13.203125 C 10.617188 13.40625 10.933594 12.316406 11.082031 11.453125 C 11.195312 10.820312 10.84375 10.492188 10.492188 10.675781 Z M 10.492188 10.675781 "/>
<path style=" stroke:none;fill-rule:nonzero;fill:rgb(100%,100%,100%);fill-opacity:1;" d="M 10.71875 11.976562 L 10.382812 10.726562 C 9.902344 10.925781 8.570312 11.285156 7.5 11.285156 C 6.316406 11.285156 4.949219 10.90625 4.503906 10.707031 L 4.164062 11.976562 C 4.105469 12.195312 4.238281 12.425781 4.460938 12.484375 C 4.683594 12.546875 4.910156 12.414062 4.972656 12.191406 L 5.28125 11.21875 C 5.652344 11.363281 6.578125 11.496094 7.5 11.496094 C 8.402344 11.492188 9.296875 11.359375 9.660156 11.21875 L 9.914062 12.191406 C 9.972656 12.414062 10.203125 12.546875 10.421875 12.484375 C 10.644531 12.425781 10.777344 12.195312 10.71875 11.976562 Z M 10.71875 11.976562 "/>
<path style=" stroke:none;fill-rule:nonzero;fill:rgb(100%,100%,100%);fill-opacity:1;" d="M 9.554688 12.460938 C 9.589844 12.292969 9.480469 12.125 9.3125 12.089844 C 9.144531 12.054688 8.976562 12.164062 8.941406 12.332031 L 8.894531 12.597656 C 8.746094 12.519531 8.125 12.328125 7.5 12.328125 C 6.851562 12.328125 6.199219 12.519531 6.046875 12.597656 L 5.964844 12.332031 C 5.929688 12.164062 5.75 12.054688 5.582031 12.089844 C 5.414062 12.125 5.300781 12.292969 5.335938 12.460938 L 5.46875 13.089844 C 5.847656 12.890625 6.511719 12.5 7.5 12.5 C 8.441406 12.5 9.054688 12.851562 9.425781 13.058594 Z M 9.554688 12.460938 "/>
<path style=" stroke:none;fill-rule:nonzero;fill:rgb(33.333333%,67.45098%,93.333333%);fill-opacity:1;" d="M 5.625 6.242188 L 4.632812 6.03125 C 3.949219 5.886719 3.273438 6.328125 3.128906 7.007812 C 2.984375 7.691406 3.421875 8.367188 4.105469 8.511719 L 5.097656 8.722656 C 5.777344 8.867188 6.453125 8.429688 6.597656 7.746094 C 6.746094 7.066406 6.304688 6.386719 5.625 6.242188 Z M 9.375 6.144531 L 10.367188 5.933594 C 11.050781 5.789062 11.726562 6.226562 11.871094 6.910156 C 12.015625 7.589844 11.578125 8.265625 10.894531 8.410156 L 9.902344 8.621094 C 9.222656 8.765625 8.546875 8.328125 8.402344 7.648438 C 8.253906 6.964844 8.695312 6.289062 9.375 6.144531 Z M 9.375 6.144531 "/>
<path style=" stroke:none;fill-rule:nonzero;fill:rgb(100%,80%,30.196078%);fill-opacity:1;" d="M 5.722656 6.445312 L 4.910156 6.273438 C 4.347656 6.152344 3.792969 6.515625 3.671875 7.074219 C 3.554688 7.636719 3.914062 8.191406 4.476562 8.308594 L 5.289062 8.484375 C 5.851562 8.601562 6.40625 8.242188 6.527344 7.679688 C 6.644531 7.121094 6.285156 6.566406 5.722656 6.445312 Z M 5.722656 6.445312 "/>
<path style=" stroke:none;fill-rule:nonzero;fill:rgb(16.078431%,18.431373%,20%);fill-opacity:1;" d="M 5.933594 7.378906 C 5.933594 7.722656 5.652344 8.003906 5.308594 8.003906 C 4.960938 8.003906 4.683594 7.722656 4.683594 7.378906 C 4.683594 7.03125 4.960938 6.753906 5.308594 6.753906 C 5.652344 6.753906 5.933594 7.03125 5.933594 7.378906 Z M 5.933594 7.378906 "/>
<path style=" stroke:none;fill-rule:nonzero;fill:rgb(100%,80%,30.196078%);fill-opacity:1;" d="M 9.277344 6.445312 L 10.089844 6.273438 C 10.652344 6.152344 11.207031 6.515625 11.328125 7.074219 C 11.445312 7.636719 11.085938 8.191406 10.523438 8.308594 L 9.710938 8.484375 C 9.148438 8.601562 8.59375 8.242188 8.472656 7.679688 C 8.355469 7.121094 8.714844 6.566406 9.277344 6.445312 Z M 9.277344 6.445312 "/>
<path style=" stroke:none;fill-rule:nonzero;fill:rgb(16.078431%,18.431373%,20%);fill-opacity:1;" d="M 10.316406 7.378906 C 10.316406 7.722656 10.039062 8.003906 9.691406 8.003906 C 9.347656 8.003906 9.066406 7.722656 9.066406 7.378906 C 9.066406 7.03125 9.347656 6.753906 9.691406 6.753906 C 10.039062 6.753906 10.316406 7.03125 10.316406 7.378906 Z M 10.316406 7.378906 "/>
<path style=" stroke:none;fill-rule:nonzero;fill:rgb(62.745098%,1.568627%,11.764706%);fill-opacity:1;" d="M 7.5 11.042969 C 6.726562 11.042969 6.398438 10.621094 6.292969 10.269531 C 6.066406 10.320312 5.730469 10.355469 5.488281 10.191406 C 5.359375 10.105469 5.207031 9.929688 5.207031 9.582031 C 5.207031 9.46875 5.300781 9.375 5.417969 9.375 C 5.53125 9.375 5.625 9.46875 5.625 9.582031 C 5.625 9.78125 5.695312 9.828125 5.722656 9.847656 C 5.875 9.953125 6.234375 9.863281 6.382812 9.804688 C 6.445312 9.78125 6.519531 9.789062 6.574219 9.828125 C 6.632812 9.867188 6.667969 9.929688 6.667969 10 C 6.667969 10.0625 6.703125 10.625 7.5 10.625 C 8.324219 10.625 8.332031 10.027344 8.332031 10 C 8.332031 9.929688 8.367188 9.867188 8.425781 9.828125 C 8.480469 9.789062 8.554688 9.78125 8.617188 9.804688 C 8.765625 9.867188 9.125 9.953125 9.277344 9.847656 C 9.304688 9.828125 9.375 9.78125 9.375 9.582031 C 9.375 9.46875 9.46875 9.375 9.582031 9.375 C 9.699219 9.375 9.792969 9.46875 9.792969 9.582031 C 9.792969 9.929688 9.640625 10.105469 9.511719 10.191406 C 9.269531 10.355469 8.933594 10.320312 8.707031 10.269531 C 8.601562 10.621094 8.273438 11.042969 7.5 11.042969 Z M 7.5 11.042969 "/>
<path style=" stroke:none;fill-rule:nonzero;fill:rgb(74.509804%,9.803922%,19.215686%);fill-opacity:1;" d="M 9.859375 14.207031 C 9.597656 14.207031 9.320312 14.09375 9.035156 13.867188 C 8.636719 13.546875 8.261719 13.246094 7.5 13.246094 C 6.738281 13.246094 6.363281 13.546875 5.964844 13.867188 C 5.46875 14.257812 4.949219 14.257812 4.453125 13.867188 C 4.363281 13.796875 4.347656 13.664062 4.421875 13.574219 C 4.492188 13.484375 4.621094 13.46875 4.714844 13.539062 C 5.054688 13.8125 5.363281 13.8125 5.703125 13.539062 C 6.121094 13.207031 6.59375 12.832031 7.5 12.832031 C 8.40625 12.832031 8.878906 13.207031 9.296875 13.539062 C 9.535156 13.730469 9.753906 13.8125 9.933594 13.785156 C 10.132812 13.753906 10.238281 13.597656 10.242188 13.589844 C 10.304688 13.496094 10.433594 13.46875 10.527344 13.53125 C 10.625 13.589844 10.652344 13.71875 10.59375 13.816406 C 10.574219 13.847656 10.382812 14.128906 10.007812 14.195312 C 9.960938 14.203125 9.910156 14.207031 9.859375 14.207031 Z M 9.859375 14.207031 "/>
<path style=" stroke:none;fill-rule:nonzero;fill:rgb(95.686275%,56.470588%,4.705882%);fill-opacity:1;" d="M 2.5 0.394531 C 2.511719 0.1875 2.683594 0.0234375 2.882812 0.00390625 C 3.148438 -0.015625 3.265625 0.191406 3.363281 0.402344 C 3.664062 1.058594 3.988281 1.703125 4.421875 2.285156 C 4.722656 2.691406 5.082031 3.125 5.546875 3.355469 C 5.789062 3.4375 5.902344 3.734375 5.773438 3.957031 C 5.992188 4.339844 5.558594 4.703125 5.203125 4.527344 C 4.722656 4.804688 3.921875 3.882812 3.648438 3.554688 C 3.296875 3.128906 3.027344 2.640625 2.835938 2.125 C 2.640625 1.597656 2.46875 0.96875 2.5 0.394531 Z M 12.496094 0.394531 C 12.484375 0.1875 12.316406 0.0234375 12.113281 0.00390625 C 11.847656 -0.015625 11.734375 0.191406 11.636719 0.402344 C 11.332031 1.058594 11.007812 1.703125 10.574219 2.285156 C 10.273438 2.691406 9.914062 3.125 9.453125 3.355469 C 9.207031 3.4375 9.09375 3.734375 9.222656 3.957031 C 9.003906 4.339844 9.4375 4.703125 9.792969 4.527344 C 10.273438 4.804688 11.074219 3.882812 11.347656 3.554688 C 11.699219 3.128906 11.96875 2.640625 12.160156 2.125 C 12.355469 1.597656 12.527344 0.96875 12.496094 0.394531 Z M 12.496094 0.394531 "/>
<path style=" stroke:none;fill-rule:nonzero;fill:rgb(16.078431%,18.431373%,20%);fill-opacity:1;" d="M 6.25 6.667969 C 4.476562 6.667969 3.15625 5.800781 3.101562 5.761719 C 2.910156 5.636719 2.859375 5.378906 2.988281 5.183594 C 3.113281 4.996094 3.371094 4.941406 3.5625 5.070312 C 3.574219 5.078125 4.738281 5.832031 6.25 5.832031 C 6.480469 5.832031 6.667969 6.019531 6.667969 6.25 C 6.667969 6.480469 6.480469 6.667969 6.25 6.667969 Z M 8.75 6.667969 C 8.519531 6.667969 8.332031 6.480469 8.332031 6.25 C 8.332031 6.019531 8.519531 5.832031 8.75 5.832031 C 10.273438 5.832031 11.425781 5.078125 11.433594 5.070312 C 11.628906 4.941406 11.886719 4.992188 12.011719 5.183594 C 12.140625 5.378906 12.089844 5.636719 11.898438 5.761719 C 11.84375 5.800781 10.523438 6.667969 8.75 6.667969 Z M 8.75 6.667969 "/>
</g>
</svg>
