<?xml version="1.0" encoding="UTF-8"?>
<svg xmlns="http://www.w3.org/2000/svg" xmlns:xlink="http://www.w3.org/1999/xlink" width="15pt" height="15pt" viewBox="0 0 15 15" version="1.1">
<g id="surface1">
<path style=" stroke:none;fill-rule:nonzero;fill:rgb(100%,89.803922%,11.764706%);fill-opacity:1;" d="M 9.703125 0.617188 C 8.566406 0.25 5.882812 0.351562 5.210938 1.222656 C 3.46875 1.253906 1.421875 2.832031 1.152344 4.910156 C 0.886719 6.96875 1.480469 7.925781 1.691406 9.472656 C 1.929688 11.226562 2.914062 11.785156 3.703125 12.019531 C 4.835938 13.519531 6.039062 13.453125 8.066406 13.453125 C 12.015625 13.453125 13.898438 10.808594 14.066406 6.320312 C 14.164062 3.601562 12.570312 1.546875 9.703125 0.617188 Z M 9.703125 0.617188 "/>
<path style=" stroke:none;fill-rule:nonzero;fill:rgb(100%,86.27451%,36.470588%);fill-opacity:1;" d="M 11.964844 6.511719 C 11.582031 5.980469 11.09375 5.554688 10.019531 5.40625 C 10.421875 5.589844 10.808594 6.226562 10.859375 6.578125 C 10.910156 6.929688 10.960938 7.214844 10.640625 6.863281 C 9.363281 5.453125 7.972656 6.007812 6.597656 5.148438 C 5.632812 4.542969 5.339844 3.878906 5.339844 3.878906 C 5.339844 3.878906 5.222656 4.769531 3.765625 5.671875 C 3.34375 5.9375 2.839844 6.519531 2.558594 7.382812 C 2.355469 8.003906 2.417969 8.558594 2.417969 9.503906 C 2.417969 12.261719 4.695312 14.582031 7.5 14.582031 C 10.304688 14.582031 12.582031 12.242188 12.582031 9.503906 C 12.582031 7.785156 12.402344 7.113281 11.964844 6.511719 Z M 11.964844 6.511719 "/>
<path style=" stroke:none;fill-rule:nonzero;fill:rgb(100%,67.45098%,20%);fill-opacity:1;" d="M 2.628906 9.503906 C 2.628906 9.308594 2.625 9.128906 2.621094 8.964844 C 2.613281 8.328125 2.605469 8.136719 2.757812 7.675781 C 3.027344 6.84375 3.511719 6.304688 3.875 6.078125 C 4.78125 5.515625 5.199219 4.949219 5.390625 4.574219 C 5.589844 4.839844 5.9375 5.207031 6.484375 5.550781 C 7.09375 5.929688 7.695312 6.046875 8.273438 6.164062 C 9.054688 6.316406 9.789062 6.460938 10.484375 7.230469 C 10.609375 7.371094 10.71875 7.460938 10.847656 7.460938 L 10.941406 7.460938 L 11.03125 7.375 C 11.132812 7.257812 11.109375 6.863281 11.070312 6.582031 C 11.035156 6.34375 10.972656 6.152344 10.792969 5.894531 C 11.230469 6.070312 11.613281 6.453125 11.875 6.820312 C 12.257812 7.347656 12.371094 8.402344 12.371094 9.503906 C 12.371094 10.058594 12.339844 10.664062 12.25 11.269531 C 12.460938 10.714844 12.582031 10.121094 12.582031 9.503906 C 12.582031 7.785156 12.402344 7.117188 11.964844 6.511719 C 11.582031 5.980469 11.09375 5.554688 10.019531 5.40625 C 10.421875 5.589844 10.808594 6.226562 10.859375 6.578125 C 10.910156 6.929688 10.960938 7.214844 10.640625 6.863281 C 9.363281 5.453125 7.972656 6.007812 6.597656 5.148438 C 5.632812 4.542969 5.339844 3.878906 5.339844 3.878906 C 5.339844 3.878906 5.222656 4.769531 3.765625 5.671875 C 3.34375 5.9375 2.839844 6.519531 2.558594 7.382812 C 2.355469 8.003906 2.417969 8.558594 2.417969 9.503906 C 2.417969 10.121094 2.539062 10.71875 2.75 11.269531 C 2.660156 10.667969 2.628906 10.066406 2.628906 9.503906 Z M 2.628906 9.503906 "/>
<path style=" stroke:none;fill-rule:nonzero;fill:rgb(40%,12.941176%,7.45098%);fill-opacity:1;" d="M 5 8.925781 C 4.691406 8.925781 4.445312 8.675781 4.445312 8.371094 L 4.445312 7.8125 C 4.445312 7.507812 4.691406 7.257812 5 7.257812 C 5.308594 7.257812 5.554688 7.507812 5.554688 7.8125 L 5.554688 8.371094 C 5.554688 8.675781 5.308594 8.925781 5 8.925781 Z M 10 8.925781 C 9.691406 8.925781 9.445312 8.675781 9.445312 8.371094 L 9.445312 7.8125 C 9.445312 7.507812 9.691406 7.257812 10 7.257812 C 10.308594 7.257812 10.554688 7.507812 10.554688 7.8125 L 10.554688 8.371094 C 10.554688 8.675781 10.308594 8.925781 10 8.925781 Z M 10 8.925781 "/>
<path style=" stroke:none;fill-rule:nonzero;fill:rgb(75.686275%,41.176471%,30.980392%);fill-opacity:1;" d="M 7.5 12.917969 C 5.75 12.917969 5.210938 12.46875 5.121094 12.378906 C 4.960938 12.214844 4.960938 11.953125 5.121094 11.789062 C 5.28125 11.628906 5.53125 11.625 5.695312 11.773438 C 5.730469 11.796875 6.152344 12.082031 7.5 12.082031 C 8.898438 12.082031 9.300781 11.777344 9.308594 11.773438 C 9.46875 11.609375 9.722656 11.617188 9.886719 11.78125 C 10.050781 11.945312 10.039062 12.214844 9.878906 12.378906 C 9.789062 12.46875 9.25 12.917969 7.5 12.917969 Z M 8.066406 10.832031 L 6.933594 10.832031 C 6.78125 10.832031 6.652344 10.707031 6.652344 10.550781 C 6.652344 10.394531 6.78125 10.269531 6.933594 10.269531 L 8.066406 10.269531 C 8.21875 10.269531 8.347656 10.394531 8.347656 10.550781 C 8.347656 10.707031 8.21875 10.832031 8.066406 10.832031 Z M 8.066406 10.832031 "/>
</g>
</svg>
