<?xml version="1.0" encoding="UTF-8"?>
<svg xmlns="http://www.w3.org/2000/svg" xmlns:xlink="http://www.w3.org/1999/xlink" width="15pt" height="15pt" viewBox="0 0 15 15" version="1.1">
<g id="surface1">
<path style=" stroke:none;fill-rule:nonzero;fill:rgb(88.235294%,90.980392%,92.941176%);fill-opacity:1;" d="M 0.00390625 12.539062 C 0 12.542969 0 12.550781 0 12.554688 C 0 12.601562 0.0078125 12.644531 0.0117188 12.691406 C 0.015625 12.71875 0.015625 12.753906 0.0234375 12.785156 L 0.0429688 12.867188 C 0.296875 14.070312 1.847656 15 3.726562 15 C 5.601562 15 7.152344 14.070312 7.40625 12.867188 C 7.414062 12.839844 7.421875 12.8125 7.425781 12.785156 C 7.433594 12.753906 7.433594 12.722656 7.4375 12.691406 C 7.441406 12.644531 7.449219 12.601562 7.449219 12.554688 C 7.449219 12.550781 7.449219 12.542969 7.445312 12.539062 L 7.449219 12.515625 L 7.445312 12.515625 C 7.425781 11.828125 6.878906 11.277344 6.207031 11.277344 C 5.535156 11.277344 4.988281 11.828125 4.96875 12.515625 L 4.960938 12.515625 C 4.960938 12.503906 4.964844 12.492188 4.964844 12.476562 C 4.964844 11.769531 4.410156 11.199219 3.722656 11.199219 C 3.039062 11.199219 2.484375 11.769531 2.480469 12.476562 C 2.484375 12.492188 2.484375 12.503906 2.488281 12.515625 L 2.480469 12.515625 C 2.457031 11.828125 1.914062 11.277344 1.242188 11.277344 C 0.570312 11.277344 0.0234375 11.828125 0.00390625 12.515625 L 0 12.515625 C 0 12.523438 0.00390625 12.53125 0.00390625 12.539062 Z M 7.535156 12.539062 C 7.535156 12.546875 7.535156 12.550781 7.535156 12.554688 C 7.535156 12.601562 7.542969 12.644531 7.546875 12.691406 C 7.550781 12.71875 7.550781 12.753906 7.554688 12.785156 C 7.5625 12.8125 7.570312 12.839844 7.574219 12.867188 C 7.832031 14.070312 9.382812 15 11.257812 15 C 13.136719 15 14.6875 14.070312 14.941406 12.867188 C 14.949219 12.839844 14.957031 12.8125 14.960938 12.785156 C 14.964844 12.753906 14.96875 12.722656 14.96875 12.691406 C 14.976562 12.644531 14.984375 12.601562 14.984375 12.554688 C 14.984375 12.550781 14.980469 12.542969 14.980469 12.539062 L 14.984375 12.515625 L 14.980469 12.515625 C 14.957031 11.828125 14.414062 11.277344 13.742188 11.277344 C 13.070312 11.277344 12.523438 11.828125 12.503906 12.515625 L 12.496094 12.515625 C 12.496094 12.503906 12.5 12.492188 12.5 12.476562 C 12.5 11.769531 11.945312 11.199219 11.257812 11.199219 C 10.574219 11.199219 10.015625 11.769531 10.015625 12.476562 C 10.019531 12.492188 10.019531 12.503906 10.023438 12.515625 L 10.015625 12.515625 C 9.992188 11.828125 9.449219 11.277344 8.777344 11.277344 C 8.101562 11.277344 7.558594 11.828125 7.539062 12.515625 L 7.535156 12.515625 C 7.535156 12.523438 7.535156 12.53125 7.535156 12.539062 Z M 7.535156 12.539062 "/>
<path style=" stroke:none;fill-rule:nonzero;fill:rgb(100%,86.27451%,36.470588%);fill-opacity:1;" d="M 12.5 8.75 C 12.5 11.511719 10.261719 13.75 7.5 13.75 C 4.738281 13.75 2.5 11.511719 2.5 8.75 C 2.5 5.988281 4.738281 3.75 7.5 3.75 C 10.261719 3.75 12.5 5.988281 12.5 8.75 Z M 12.5 8.75 "/>
<path style=" stroke:none;fill-rule:nonzero;fill:rgb(100%,67.45098%,20%);fill-opacity:1;" d="M 7.5 2.167969 C 4.398438 2.167969 1.875 4.691406 1.875 7.792969 C 1.875 8.585938 2.039062 9.355469 2.367188 10.085938 C 2.402344 10.167969 2.492188 10.21875 2.585938 10.207031 C 2.675781 10.191406 2.75 10.121094 2.761719 10.027344 C 2.925781 8.882812 3.839844 8.066406 4.640625 7.351562 C 5.390625 6.683594 6.101562 6.050781 6.078125 5.25 C 8.792969 5.738281 11.914062 7.757812 12.238281 10.027344 C 12.25 10.121094 12.324219 10.191406 12.414062 10.207031 C 12.425781 10.207031 12.433594 10.207031 12.445312 10.207031 C 12.523438 10.207031 12.601562 10.160156 12.632812 10.085938 C 12.960938 9.355469 13.125 8.585938 13.125 7.792969 C 13.125 4.691406 10.601562 2.167969 7.5 2.167969 Z M 7.5 2.167969 "/>
<path style=" stroke:none;fill-rule:nonzero;fill:rgb(40%,12.941176%,7.45098%);fill-opacity:1;" d="M 5.832031 11.25 L 9.167969 11.25 C 9.167969 11.25 8.75 12.082031 7.5 12.082031 C 6.25 12.082031 5.832031 11.25 5.832031 11.25 Z M 6.667969 9.167969 C 6.667969 9.398438 6.480469 9.582031 6.25 9.582031 C 6.019531 9.582031 5.832031 9.398438 5.832031 9.167969 L 5.832031 8.332031 C 5.832031 8.101562 6.019531 7.917969 6.25 7.917969 C 6.480469 7.917969 6.667969 8.101562 6.667969 8.332031 Z M 9.167969 9.167969 C 9.167969 9.398438 8.980469 9.582031 8.75 9.582031 C 8.519531 9.582031 8.332031 9.398438 8.332031 9.167969 L 8.332031 8.332031 C 8.332031 8.101562 8.519531 7.917969 8.75 7.917969 C 8.980469 7.917969 9.167969 8.101562 9.167969 8.332031 Z M 9.167969 9.167969 "/>
<path style=" stroke:none;fill-rule:nonzero;fill:rgb(54.901961%,79.215686%,96.862745%);fill-opacity:1;" d="M 7.5 0 C 4.738281 0 2.5 1.121094 2.5 2.5 C 2.5 3.878906 4.738281 5 7.5 5 C 10.261719 5 12.5 3.878906 12.5 2.5 C 12.5 1.121094 10.261719 0 7.5 0 Z M 7.5 3.75 C 5.429688 3.75 3.75 3.097656 3.75 2.292969 C 3.75 1.484375 5.429688 0.832031 7.5 0.832031 C 9.570312 0.832031 11.25 1.484375 11.25 2.292969 C 11.25 3.097656 9.570312 3.75 7.5 3.75 Z M 7.5 3.75 "/>
</g>
</svg>
