<?xml version="1.0" encoding="UTF-8"?>
<svg xmlns="http://www.w3.org/2000/svg" xmlns:xlink="http://www.w3.org/1999/xlink" width="15pt" height="15pt" viewBox="0 0 15 15" version="1.1">
<g id="surface1">
<path style=" stroke:none;fill-rule:nonzero;fill:rgb(58.823529%,23.137255%,13.333333%);fill-opacity:1;" d="M 7.5 1.667969 C 10 1.667969 14.167969 2.917969 14.167969 8.332031 C 14.167969 13.75 14.167969 15 12.917969 15 C 11.667969 15 10 13.75 7.5 13.75 C 5 13.75 3.367188 15 2.082031 15 C 0.691406 15 0.832031 10 0.832031 8.332031 C 0.832031 2.917969 5 1.667969 7.5 1.667969 Z M 7.5 1.667969 "/>
<path style=" stroke:none;fill-rule:nonzero;fill:rgb(83.529412%,67.058824%,53.333333%);fill-opacity:1;" d="M 2.5 8.152344 C 2.5 4.597656 4.738281 1.71875 7.5 1.71875 C 10.261719 1.71875 12.5 4.597656 12.5 8.152344 C 12.5 11.703125 10.261719 14.582031 7.5 14.582031 C 4.738281 14.582031 2.5 11.703125 2.5 8.152344 Z M 2.5 8.152344 "/>
<path style=" stroke:none;fill-rule:nonzero;fill:rgb(87.45098%,12.156863%,19.607843%);fill-opacity:1;" d="M 7.5 12.917969 C 6.523438 12.917969 6.011719 12.433594 5.957031 12.378906 C 5.792969 12.214844 5.792969 11.953125 5.957031 11.789062 C 6.117188 11.628906 6.378906 11.625 6.539062 11.785156 C 6.5625 11.804688 6.875 12.082031 7.5 12.082031 C 8.132812 12.082031 8.445312 11.796875 8.460938 11.785156 C 8.625 11.628906 8.886719 11.632812 9.046875 11.796875 C 9.203125 11.960938 9.207031 12.21875 9.042969 12.378906 C 8.988281 12.433594 8.476562 12.917969 7.5 12.917969 Z M 7.5 12.917969 "/>
<path style=" stroke:none;fill-rule:nonzero;fill:rgb(75.686275%,41.176471%,30.980392%);fill-opacity:1;" d="M 7.917969 10.832031 L 7.082031 10.832031 C 6.851562 10.832031 6.667969 10.648438 6.667969 10.417969 C 6.667969 10.1875 6.851562 10 7.082031 10 L 7.917969 10 C 8.148438 10 8.332031 10.1875 8.332031 10.417969 C 8.332031 10.648438 8.148438 10.832031 7.917969 10.832031 Z M 7.917969 10.832031 "/>
<path style=" stroke:none;fill-rule:nonzero;fill:rgb(58.823529%,23.137255%,13.333333%);fill-opacity:1;" d="M 1.277344 10.417969 C 1.265625 10.28125 1.25 10.148438 1.25 10 C 1.25 7.917969 2.5 10.234375 2.5 8.75 C 2.5 7.265625 3.332031 7.082031 4.167969 6.25 L 5.417969 5 C 5.417969 5 7.5 6.25 9.167969 6.25 C 10.832031 6.25 12.5 7.082031 12.5 8.75 C 12.5 10.417969 13.75 7.917969 13.75 10 C 13.75 10.148438 13.734375 10.28125 13.726562 10.417969 L 14.164062 10.417969 C 14.167969 9.800781 14.167969 9.113281 14.167969 8.332031 C 14.167969 2.917969 10 0.832031 7.5 0.832031 C 5 0.832031 0.832031 2.917969 0.832031 8.332031 C 0.832031 8.816406 0.820312 9.578125 0.839844 10.417969 Z M 1.277344 10.417969 "/>
<path style=" stroke:none;fill-rule:nonzero;fill:rgb(65.490196%,66.27451%,67.45098%);fill-opacity:1;" d="M 3.332031 2.5 L 11.667969 2.5 L 11.667969 2.082031 L 10.417969 1.667969 L 9.582031 0.417969 L 8.332031 0.832031 L 7.5 0 L 6.667969 0.832031 L 5.417969 0.417969 L 4.582031 1.667969 L 3.332031 2.082031 Z M 3.332031 2.5 "/>
<path style=" stroke:none;fill-rule:nonzero;fill:rgb(94.509804%,94.901961%,94.901961%);fill-opacity:1;" d="M 7.917969 1.457031 C 7.917969 1.113281 7.730469 0.832031 7.5 0.832031 C 7.269531 0.832031 7.082031 1.113281 7.082031 1.457031 C 7.082031 1.804688 7.269531 2.082031 7.5 2.082031 C 7.730469 2.082031 7.917969 1.804688 7.917969 1.457031 Z M 7.917969 1.457031 "/>
<path style=" stroke:none;fill-rule:nonzero;fill:rgb(94.509804%,94.901961%,94.901961%);fill-opacity:1;" d="M 6.25 1.667969 C 6.25 1.898438 6.0625 2.082031 5.832031 2.082031 C 5.601562 2.082031 5.417969 1.898438 5.417969 1.667969 C 5.417969 1.4375 5.601562 1.25 5.832031 1.25 C 6.0625 1.25 6.25 1.4375 6.25 1.667969 Z M 6.25 1.667969 "/>
<path style=" stroke:none;fill-rule:nonzero;fill:rgb(94.509804%,94.901961%,94.901961%);fill-opacity:1;" d="M 9.582031 1.667969 C 9.582031 1.898438 9.398438 2.082031 9.167969 2.082031 C 8.9375 2.082031 8.75 1.898438 8.75 1.667969 C 8.75 1.4375 8.9375 1.25 9.167969 1.25 C 9.398438 1.25 9.582031 1.4375 9.582031 1.667969 Z M 9.582031 1.667969 "/>
<path style=" stroke:none;fill-rule:nonzero;fill:rgb(40%,12.941176%,7.45098%);fill-opacity:1;" d="M 5.417969 9.582031 C 5.1875 9.582031 5 9.398438 5 9.167969 L 5 8.332031 C 5 8.101562 5.1875 7.917969 5.417969 7.917969 C 5.648438 7.917969 5.832031 8.101562 5.832031 8.332031 L 5.832031 9.167969 C 5.832031 9.398438 5.648438 9.582031 5.417969 9.582031 Z M 9.582031 9.582031 C 9.351562 9.582031 9.167969 9.398438 9.167969 9.167969 L 9.167969 8.332031 C 9.167969 8.101562 9.351562 7.917969 9.582031 7.917969 C 9.8125 7.917969 10 8.101562 10 8.332031 L 10 9.167969 C 10 9.398438 9.8125 9.582031 9.582031 9.582031 Z M 9.582031 9.582031 "/>
</g>
</svg>
