<?xml version="1.0" encoding="UTF-8"?>
<svg xmlns="http://www.w3.org/2000/svg" xmlns:xlink="http://www.w3.org/1999/xlink" width="15pt" height="15pt" viewBox="0 0 15 15" version="1.1">
<g id="surface1">
<path style=" stroke:none;fill-rule:nonzero;fill:rgb(94.901961%,46.27451%,5.882353%);fill-opacity:1;" d="M 12.917969 15 L 12.917969 13.542969 C 12.917969 12.160156 11.382812 11.25 10 11.25 L 5 11.25 C 3.621094 11.25 2.082031 12.160156 2.082031 13.542969 L 2.082031 15 Z M 12.917969 15 "/>
<path style=" stroke:none;fill-rule:nonzero;fill:rgb(100%,67.45098%,20%);fill-opacity:1;" d="M 7.476562 2.113281 C 9.1875 2.113281 12.039062 2.96875 12.039062 6.671875 C 12.039062 10.378906 12.039062 11.234375 11.183594 11.234375 C 10.328125 11.234375 9.1875 10.378906 7.476562 10.378906 C 5.765625 10.378906 4.648438 11.234375 3.769531 11.234375 C 2.816406 11.234375 2.914062 7.8125 2.914062 6.671875 C 2.914062 2.96875 5.765625 2.113281 7.476562 2.113281 "/>
<path style=" stroke:none;fill-rule:nonzero;fill:rgb(16.078431%,18.431373%,20%);fill-opacity:1;" d="M 5.832031 11.25 L 9.167969 11.25 C 9.167969 11.25 8.742188 13.332031 7.5 13.332031 C 6.257812 13.332031 5.832031 11.25 5.832031 11.25 "/>
<path style=" stroke:none;fill-rule:nonzero;fill:rgb(16.078431%,18.431373%,20%);fill-opacity:1;" d="M 5.417969 11.25 L 9.582031 11.25 L 9.582031 12.917969 L 5.417969 12.917969 Z M 5.417969 11.25 "/>
<path style=" stroke:none;fill-rule:nonzero;fill:rgb(100%,86.27451%,36.470588%);fill-opacity:1;" d="M 5.96875 11.257812 C 6.582031 11.703125 7.203125 11.664062 7.5 11.664062 C 7.796875 11.664062 8.414062 11.703125 9.023438 11.257812 L 9.023438 9.921875 L 5.96875 9.921875 Z M 5.96875 11.257812 "/>
<path style=" stroke:none;fill-rule:nonzero;fill:rgb(97.647059%,79.215686%,33.333333%);fill-opacity:1;" d="M 5.96875 10.492188 C 6.394531 10.972656 6.921875 11.101562 7.496094 11.101562 C 8.070312 11.101562 8.597656 10.972656 9.023438 10.492188 L 9.023438 9.269531 L 5.96875 9.269531 Z M 5.96875 10.492188 "/>
<path style=" stroke:none;fill-rule:nonzero;fill:rgb(100%,86.27451%,36.470588%);fill-opacity:1;" d="M 4.054688 6.550781 C 4.054688 4.117188 5.585938 2.148438 7.476562 2.148438 C 9.367188 2.148438 10.898438 4.117188 10.898438 6.550781 C 10.898438 8.980469 9.367188 10.835938 7.476562 10.835938 C 5.585938 10.835938 4.054688 8.980469 4.054688 6.550781 "/>
<path style=" stroke:none;fill-rule:nonzero;fill:rgb(87.45098%,12.156863%,19.607843%);fill-opacity:1;" d="M 7.476562 9.808594 C 6.808594 9.808594 6.457031 9.480469 6.421875 9.441406 C 6.308594 9.328125 6.308594 9.148438 6.421875 9.039062 C 6.53125 8.925781 6.707031 8.925781 6.820312 9.035156 C 6.835938 9.046875 7.050781 9.238281 7.476562 9.238281 C 7.910156 9.238281 8.125 9.042969 8.132812 9.035156 C 8.246094 8.929688 8.425781 8.929688 8.535156 9.042969 C 8.644531 9.15625 8.644531 9.332031 8.535156 9.441406 C 8.496094 9.480469 8.144531 9.808594 7.476562 9.808594 "/>
<path style=" stroke:none;fill-rule:nonzero;fill:rgb(100%,67.45098%,20%);fill-opacity:1;" d="M 3.21875 7.917969 C 3.210938 7.5 3.199219 7.824219 3.199219 7.722656 C 3.199219 6.296875 4.054688 7.929688 4.054688 6.914062 C 4.054688 5.898438 4.625 5.796875 5.195312 5.226562 C 5.480469 4.941406 6.050781 4.382812 6.050781 4.382812 C 6.050781 4.382812 7.476562 5.242188 8.617188 5.242188 C 9.757812 5.242188 10.898438 5.816406 10.898438 6.957031 C 10.898438 8.097656 11.753906 6.296875 11.753906 7.722656 C 11.753906 7.824219 11.742188 7.5 11.738281 7.917969 L 12.035156 7.917969 C 12.039062 7.082031 12.039062 7.113281 12.039062 6.582031 C 12.039062 2.875 9.1875 1.496094 7.476562 1.496094 C 5.765625 1.496094 2.914062 2.851562 2.914062 6.558594 C 2.914062 6.890625 2.90625 7.082031 2.917969 7.917969 Z M 3.21875 7.917969 "/>
<path style=" stroke:none;fill-rule:nonzero;fill:rgb(40%,12.941176%,7.45098%);fill-opacity:1;" d="M 6.085938 7.453125 C 5.894531 7.453125 5.734375 7.292969 5.734375 7.101562 L 5.734375 6.746094 C 5.734375 6.554688 5.894531 6.394531 6.085938 6.394531 C 6.28125 6.394531 6.441406 6.554688 6.441406 6.746094 L 6.441406 7.101562 C 6.441406 7.292969 6.28125 7.453125 6.085938 7.453125 M 8.90625 7.453125 C 8.710938 7.453125 8.554688 7.292969 8.554688 7.101562 L 8.554688 6.746094 C 8.554688 6.554688 8.710938 6.394531 8.90625 6.394531 C 9.097656 6.394531 9.257812 6.554688 9.257812 6.746094 L 9.257812 7.101562 C 9.257812 7.292969 9.097656 7.453125 8.90625 7.453125 "/>
<path style=" stroke:none;fill-rule:nonzero;fill:rgb(75.686275%,41.176471%,30.980392%);fill-opacity:1;" d="M 7.847656 8.542969 L 7.144531 8.542969 C 7.046875 8.542969 6.96875 8.460938 6.96875 8.367188 L 6.96875 8.300781 C 6.96875 8.203125 7.046875 8.125 7.144531 8.125 L 7.847656 8.125 C 7.945312 8.125 8.023438 8.203125 8.023438 8.300781 L 8.023438 8.367188 C 8.023438 8.460938 7.945312 8.542969 7.847656 8.542969 "/>
<path style=" stroke:none;fill-rule:nonzero;fill:rgb(100%,86.27451%,36.470588%);fill-opacity:1;" d="M 4.769531 6.640625 C 4.769531 7.242188 4.460938 7.734375 4.085938 7.734375 C 3.707031 7.734375 3.402344 7.242188 3.402344 6.640625 C 3.402344 6.035156 3.707031 5.546875 4.085938 5.546875 C 4.460938 5.546875 4.769531 6.035156 4.769531 6.640625 M 11.597656 6.640625 C 11.597656 7.242188 11.292969 7.734375 10.914062 7.734375 C 10.535156 7.734375 10.230469 7.242188 10.230469 6.640625 C 10.230469 6.035156 10.535156 5.546875 10.914062 5.546875 C 11.292969 5.546875 11.597656 6.035156 11.597656 6.640625 "/>
<path style=" stroke:none;fill-rule:nonzero;fill:rgb(16.078431%,18.431373%,20%);fill-opacity:1;" d="M 7.917969 14.558594 L 7.5 15 L 7.082031 14.582031 L 6.667969 12.917969 L 8.125 12.917969 Z M 7.917969 14.558594 "/>
<path style=" stroke:none;fill-rule:nonzero;fill:rgb(100%,96.862745%,37.254902%);fill-opacity:1;" d="M 10 11.25 L 11.25 11.25 L 11.25 15 L 10 15 Z M 3.75 11.25 L 5 11.25 L 5 15 L 3.75 15 Z M 3.75 11.25 "/>
<path style=" stroke:none;fill-rule:nonzero;fill:rgb(33.333333%,67.45098%,93.333333%);fill-opacity:1;" d="M 4.375 11.25 C 4.375 11.695312 5 12.777344 5.832031 13.664062 C 6.492188 14.367188 7.5 15 7.5 15 C 7.5 13.636719 7.082031 13.222656 6.667969 12.777344 C 6.25 12.332031 5.417969 12.140625 5.417969 11.25 C 5.417969 10.804688 4.375 11.25 4.375 11.25 M 10.625 11.25 C 10.625 11.695312 10 12.777344 9.167969 13.664062 C 8.507812 14.367188 7.5 15 7.5 15 C 7.5 13.636719 7.917969 13.222656 8.332031 12.777344 C 8.75 12.332031 9.582031 12.140625 9.582031 11.25 C 9.582031 10.804688 10.625 11.25 10.625 11.25 "/>
<path style=" stroke:none;fill-rule:nonzero;fill:rgb(100%,96.862745%,37.254902%);fill-opacity:1;" d="M 12.5 4.582031 C 11.25 3.75 12.078125 2.847656 11.25 1.667969 C 10.46875 0.558594 9.167969 0 7.5 0 C 5.417969 0 4.53125 0.558594 3.75 1.667969 C 2.921875 2.847656 3.75 3.75 2.5 4.582031 C 1.722656 5.101562 5 5.546875 7.5 5.546875 C 10 5.546875 13.277344 5.101562 12.5 4.582031 "/>
<path style=" stroke:none;fill-rule:nonzero;fill:rgb(100%,67.45098%,20%);fill-opacity:1;" d="M 6.667969 4.792969 L 6.667969 0.0351562 C 6.519531 0.0507812 6.382812 0.0664062 6.25 0.0898438 L 6.25 4.371094 C 5.378906 4.351562 4.113281 4.207031 3.0625 4.015625 C 2.988281 4.140625 2.890625 4.261719 2.757812 4.382812 C 3.96875 4.617188 5.503906 4.792969 6.457031 4.792969 Z M 12.023438 4.144531 C 10.835938 4.269531 9.589844 4.359375 8.75 4.375 L 8.75 0.121094 C 8.617188 0.09375 8.476562 0.0742188 8.332031 0.0585938 L 8.332031 4.792969 L 8.542969 4.792969 C 9.382812 4.792969 10.957031 4.683594 12.410156 4.519531 C 12.246094 4.394531 12.117188 4.269531 12.023438 4.144531 Z M 12.023438 4.144531 "/>
</g>
</svg>
