<?xml version="1.0" encoding="UTF-8"?>
<svg xmlns="http://www.w3.org/2000/svg" xmlns:xlink="http://www.w3.org/1999/xlink" width="15pt" height="15pt" viewBox="0 0 15 15" version="1.1">
<g id="surface1">
<path style=" stroke:none;fill-rule:nonzero;fill:rgb(46.666667%,69.803922%,33.333333%);fill-opacity:1;" d="M 13.328125 15 L 13.328125 14.167969 C 13.328125 12.785156 12.210938 11.667969 10.828125 11.667969 L 4.164062 11.667969 C 2.78125 11.667969 1.664062 12.785156 1.664062 14.167969 L 1.664062 15 Z M 13.328125 15 "/>
<path style=" stroke:none;fill-rule:nonzero;fill:rgb(36.078431%,56.862745%,23.137255%);fill-opacity:1;" d="M 5.46875 15 C 7.664062 12.976562 9.882812 11.914062 11.308594 11.714844 C 11.152344 11.683594 10.992188 11.667969 10.828125 11.667969 L 9.328125 11.667969 C 7.777344 12.339844 6.0625 13.527344 4.5625 15 Z M 5.46875 15 "/>
<path style=" stroke:none;fill-rule:nonzero;fill:rgb(68.627451%,49.411765%,34.117647%);fill-opacity:1;" d="M 5.679688 11.707031 C 6.40625 12.238281 6.867188 12.527344 7.496094 12.527344 C 8.125 12.527344 8.585938 12.238281 9.3125 11.707031 L 9.3125 10.121094 L 5.679688 10.121094 Z M 4.765625 6.640625 C 4.765625 7.242188 4.457031 7.734375 4.082031 7.734375 C 3.703125 7.734375 3.398438 7.242188 3.398438 6.640625 C 3.398438 6.035156 3.703125 5.546875 4.082031 5.546875 C 4.457031 5.546875 4.765625 6.035156 4.765625 6.640625 M 11.59375 6.640625 C 11.59375 7.242188 11.289062 7.734375 10.910156 7.734375 C 10.53125 7.734375 10.226562 7.242188 10.226562 6.640625 C 10.226562 6.035156 10.53125 5.546875 10.910156 5.546875 C 11.289062 5.546875 11.59375 6.035156 11.59375 6.640625 "/>
<path style=" stroke:none;fill-rule:nonzero;fill:rgb(68.627451%,49.411765%,34.117647%);fill-opacity:1;" d="M 3.945312 7.066406 C 3.945312 4.738281 5.5 2.484375 7.460938 2.484375 C 9.421875 2.484375 11.046875 4.738281 11.046875 7.066406 C 11.046875 9.394531 9.457031 11.285156 7.496094 11.285156 C 5.535156 11.285156 3.945312 9.394531 3.945312 7.066406 "/>
<path style=" stroke:none;fill-rule:nonzero;fill:rgb(37.647059%,20.784314%,16.470588%);fill-opacity:1;" d="M 5.828125 7.082031 C 5.601562 7.082031 5.414062 6.894531 5.414062 6.667969 L 5.414062 6.25 C 5.414062 6.019531 5.601562 5.832031 5.828125 5.832031 C 6.058594 5.832031 6.246094 6.019531 6.246094 6.25 L 6.246094 6.667969 C 6.246094 6.894531 6.058594 7.082031 5.828125 7.082031 M 9.164062 7.082031 C 8.933594 7.082031 8.746094 6.894531 8.746094 6.667969 L 8.746094 6.25 C 8.746094 6.019531 8.933594 5.832031 9.164062 5.832031 C 9.390625 5.832031 9.578125 6.019531 9.578125 6.25 L 9.578125 6.667969 C 9.578125 6.894531 9.390625 7.082031 9.164062 7.082031 "/>
<path style=" stroke:none;fill-rule:nonzero;fill:rgb(56.862745%,35.294118%,20.392157%);fill-opacity:1;" d="M 7.808594 8.230469 L 7.183594 8.230469 C 7.011719 8.230469 6.871094 8.089844 6.871094 7.917969 C 6.871094 7.746094 7.011719 7.605469 7.183594 7.605469 L 7.808594 7.605469 C 7.980469 7.605469 8.121094 7.746094 8.121094 7.917969 C 8.121094 8.089844 7.980469 8.230469 7.808594 8.230469 "/>
<path style=" stroke:none;fill-rule:nonzero;fill:rgb(37.647059%,20.784314%,16.470588%);fill-opacity:1;" d="M 10.128906 8.445312 C 9.835938 8.777344 9.246094 9.433594 8.660156 9.105469 C 7.828125 8.640625 7.484375 8.777344 7.484375 8.777344 C 7.484375 8.777344 7.140625 8.640625 6.308594 9.105469 C 5.722656 9.433594 5.132812 8.777344 4.839844 8.445312 C 4.632812 8.214844 3.960938 7.789062 3.960938 8.445312 C 3.960938 9.433594 4.546875 10.089844 4.546875 10.089844 C 5.132812 11.730469 6.308594 11.730469 6.308594 11.730469 C 6.601562 12.0625 8.367188 12.0625 8.660156 11.730469 C 8.660156 11.730469 9.835938 11.730469 10.421875 10.089844 C 10.421875 10.089844 11.011719 9.433594 11.011719 8.445312 C 11.007812 7.789062 10.335938 8.214844 10.128906 8.445312 Z M 7.5 9.949219 C 6.25 9.949219 5.417969 9.375 7.5 9.375 C 9.582031 9.375 8.75 9.949219 7.5 9.949219 Z M 7.5 9.949219 "/>
<path style=" stroke:none;fill-rule:nonzero;fill:rgb(90.196078%,90.588235%,90.980392%);fill-opacity:1;" d="M 7.5 4.140625 C 7.5 4.140625 10.480469 4.914062 10.933594 6.308594 C 11.132812 5.882812 11.25 4.949219 11.25 4.425781 C 11.25 2.824219 10 1.667969 7.96875 1.667969 L 7.03125 1.667969 C 5.3125 1.667969 3.75 2.824219 3.75 4.425781 C 3.75 4.949219 3.867188 5.953125 4.0625 6.375 C 4.519531 4.980469 7.5 4.140625 7.5 4.140625 Z M 7.5 4.140625 "/>
<path style=" stroke:none;fill-rule:nonzero;fill:rgb(81.960784%,82.745098%,83.137255%);fill-opacity:1;" d="M 10.101562 3.929688 C 10.390625 3.890625 10.675781 3.863281 10.960938 3.863281 C 11.046875 3.863281 11.121094 3.828125 11.171875 3.769531 C 11.132812 3.605469 11.070312 3.445312 10.996094 3.292969 C 10.984375 3.292969 10.972656 3.289062 10.960938 3.289062 C 9.78125 3.289062 8.585938 3.582031 7.410156 4.167969 C 7.464844 4.148438 7.5 4.140625 7.5 4.140625 C 7.5 4.140625 7.839844 4.226562 8.308594 4.398438 C 8.578125 4.289062 8.851562 4.203125 9.121094 4.128906 C 9.128906 4.128906 9.132812 4.136719 9.140625 4.136719 C 9.832031 4.371094 10.589844 4.828125 11.171875 5.355469 C 11.203125 5.113281 11.230469 4.871094 11.242188 4.65625 C 10.890625 4.375 10.5 4.128906 10.101562 3.929688 Z M 3.796875 5.128906 C 4.636719 4.53125 7.410156 2.738281 10.609375 2.714844 C 10.425781 2.503906 10.214844 2.320312 9.976562 2.160156 C 7.183594 2.367188 4.796875 3.757812 3.753906 4.460938 C 3.757812 4.652344 3.769531 4.882812 3.796875 5.128906 Z M 3.828125 3.765625 C 4.859375 3.105469 6.824219 2.144531 9.007812 1.765625 C 8.675781 1.667969 8.328125 1.667969 7.96875 1.667969 L 7.234375 1.667969 C 6.097656 2.109375 5.085938 2.441406 4.308594 2.871094 C 4.085938 3.152344 3.917969 3.417969 3.828125 3.765625 Z M 3.828125 3.765625 "/>
</g>
</svg>
