<?xml version="1.0" encoding="UTF-8"?>
<svg xmlns="http://www.w3.org/2000/svg" xmlns:xlink="http://www.w3.org/1999/xlink" width="15pt" height="15pt" viewBox="0 0 15 15" version="1.1">
<g id="surface1">
<path style=" stroke:none;fill-rule:nonzero;fill:rgb(83.529412%,67.058824%,53.333333%);fill-opacity:1;" d="M 15 7.707031 C 15 7.027344 14.597656 6.457031 14.054688 6.296875 C 13.484375 3.191406 10.769531 0.832031 7.5 0.832031 C 4.230469 0.832031 1.515625 3.191406 0.945312 6.296875 C 0.402344 6.457031 0 7.027344 0 7.707031 C 0 8.433594 0.453125 9.027344 1.046875 9.140625 C 1.777344 12.027344 4.386719 14.167969 7.5 14.167969 C 10.613281 14.167969 13.222656 12.027344 13.953125 9.140625 C 14.546875 9.027344 15 8.433594 15 7.707031 Z M 15 7.707031 "/>
<path style=" stroke:none;fill-rule:nonzero;fill:rgb(40%,13.333333%,7.843137%);fill-opacity:1;" d="M 7.5 10.417969 C 6.25 10.417969 5.832031 10 5.832031 10.832031 C 5.832031 11.667969 6.667969 12.5 7.5 12.5 C 8.332031 12.5 9.167969 11.667969 9.167969 10.832031 C 9.167969 10 8.75 10.417969 7.5 10.417969 Z M 7.5 10.417969 "/>
<path style=" stroke:none;fill-rule:nonzero;fill:rgb(40%,13.333333%,7.843137%);fill-opacity:1;" d="M 10.417969 7.707031 C 10.417969 8.285156 9.949219 8.75 9.375 8.75 C 8.800781 8.75 8.332031 8.285156 8.332031 7.707031 C 8.332031 7.132812 8.800781 6.667969 9.375 6.667969 C 9.949219 6.667969 10.417969 7.132812 10.417969 7.707031 Z M 10.417969 7.707031 "/>
<path style=" stroke:none;fill-rule:nonzero;fill:rgb(40%,13.333333%,7.843137%);fill-opacity:1;" d="M 6.667969 7.707031 C 6.667969 8.285156 6.199219 8.75 5.625 8.75 C 5.050781 8.75 4.582031 8.285156 4.582031 7.707031 C 4.582031 7.132812 5.050781 6.667969 5.625 6.667969 C 6.199219 6.667969 6.667969 7.132812 6.667969 7.707031 Z M 6.667969 7.707031 "/>
<path style=" stroke:none;fill-rule:nonzero;fill:rgb(100%,100%,100%);fill-opacity:1;" d="M 7.5 10.832031 L 8.332031 10.832031 L 8.332031 11.25 C 8.332031 11.25 8.332031 11.667969 7.917969 11.667969 C 7.5 11.667969 7.5 11.25 7.5 11.25 Z M 7.5 10.832031 "/>
<path style=" stroke:none;fill-rule:nonzero;fill:rgb(66.666667%,50.196078%,32.156863%);fill-opacity:1;" d="M 7.492188 4.582031 L 7.480469 4.582031 C 6.984375 4.582031 6.519531 4.390625 6.171875 4.039062 C 5.863281 3.726562 5.699219 3.296875 5.726562 2.855469 C 5.738281 2.625 5.929688 2.453125 6.164062 2.464844 C 6.394531 2.476562 6.570312 2.675781 6.558594 2.90625 C 6.542969 3.113281 6.621094 3.316406 6.765625 3.460938 C 6.957031 3.65625 7.210938 3.765625 7.484375 3.765625 C 7.757812 3.75 8.015625 3.664062 8.207031 3.472656 C 8.75 2.9375 8.753906 2.066406 8.222656 1.523438 C 7.511719 0.808594 6.355469 0.796875 5.636719 1.507812 C 5.472656 1.667969 5.210938 1.664062 5.046875 1.503906 C 4.886719 1.339844 4.886719 1.074219 5.050781 0.914062 C 6.097656 -0.117188 7.785156 -0.105469 8.816406 0.9375 C 9.671875 1.808594 9.660156 3.203125 8.792969 4.058594 C 8.445312 4.402344 7.984375 4.582031 7.492188 4.582031 Z M 7.492188 4.582031 "/>
</g>
</svg>
