<?xml version="1.0" encoding="UTF-8"?>
<svg xmlns="http://www.w3.org/2000/svg" xmlns:xlink="http://www.w3.org/1999/xlink" width="15pt" height="15pt" viewBox="0 0 15 15" version="1.1">
<g id="surface1">
<path style=" stroke:none;fill-rule:nonzero;fill:rgb(66.666667%,55.294118%,84.705882%);fill-opacity:1;" d="M 15 7.5 C 15 11.640625 11.640625 15 7.5 15 C 3.359375 15 0 11.640625 0 7.5 C 0 3.359375 3.359375 0 7.5 0 C 11.640625 0 15 3.359375 15 7.5 Z M 15 7.5 "/>
<path style=" stroke:none;fill-rule:nonzero;fill:rgb(66.666667%,55.294118%,84.705882%);fill-opacity:1;" d="M 4.167969 1.667969 C 3.089844 1.667969 1.820312 0.640625 1.421875 0.246094 C 1.183594 0.00390625 0.824219 -0.0664062 0.515625 0.0625 C 0.203125 0.191406 0 0.496094 0 0.832031 C 0 2.273438 0.695312 5 3.332031 5 C 3.648438 5 3.9375 4.820312 4.078125 4.539062 L 4.910156 2.871094 C 5.042969 2.613281 5.027344 2.308594 4.875 2.0625 C 4.722656 1.816406 4.457031 1.667969 4.167969 1.667969 Z M 14.484375 0.0625 C 14.171875 -0.0664062 13.816406 0.00390625 13.578125 0.246094 C 13.207031 0.613281 11.910156 1.667969 10.832031 1.667969 C 10.542969 1.667969 10.277344 1.816406 10.125 2.0625 C 9.972656 2.308594 9.960938 2.613281 10.089844 2.871094 L 10.921875 4.539062 C 11.0625 4.820312 11.351562 5 11.667969 5 C 14.304688 5 15 2.273438 15 0.832031 C 15 0.496094 14.796875 0.191406 14.484375 0.0625 Z M 14.484375 0.0625 "/>
<path style=" stroke:none;fill-rule:nonzero;fill:rgb(33.333333%,22.352941%,52.54902%);fill-opacity:1;" d="M 6.621094 5.921875 L 4.121094 4.671875 C 3.710938 4.464844 3.210938 4.632812 3.003906 5.042969 C 2.796875 5.457031 2.964844 5.957031 3.378906 6.164062 L 5.132812 7.039062 C 5.003906 7.261719 5 7.5 5 7.5 L 5 8.332031 C 5 8.332031 5 9.167969 5.832031 9.167969 C 6.667969 9.167969 6.667969 8.332031 6.667969 8.332031 L 6.667969 7.5 C 6.667969 7.5 6.664062 7.453125 6.65625 7.390625 C 6.796875 7.3125 6.917969 7.195312 6.996094 7.039062 C 7.203125 6.628906 7.035156 6.128906 6.621094 5.921875 Z M 11.996094 5.042969 C 11.789062 4.632812 11.289062 4.464844 10.878906 4.671875 L 8.378906 5.921875 C 7.964844 6.128906 7.796875 6.628906 8.003906 7.039062 C 8.082031 7.195312 8.203125 7.3125 8.34375 7.390625 C 8.335938 7.453125 8.332031 7.5 8.332031 7.5 L 8.332031 8.332031 C 8.332031 8.332031 8.332031 9.167969 9.167969 9.167969 C 10 9.167969 10 8.332031 10 8.332031 L 10 7.5 C 10 7.5 9.996094 7.261719 9.867188 7.039062 L 11.621094 6.164062 C 12.035156 5.957031 12.203125 5.457031 11.996094 5.042969 Z M 10.117188 12.332031 C 10.101562 12.261719 9.707031 10.726562 7.5 10.726562 C 5.296875 10.726562 4.898438 12.265625 4.882812 12.332031 C 4.855469 12.441406 4.902344 12.550781 4.996094 12.605469 C 5.089844 12.664062 5.210938 12.648438 5.289062 12.566406 C 5.296875 12.5625 5.949219 11.933594 7.5 11.933594 C 9.050781 11.933594 9.703125 12.5625 9.710938 12.566406 C 9.753906 12.613281 9.820312 12.640625 9.882812 12.640625 C 9.925781 12.640625 9.964844 12.628906 10.003906 12.609375 C 10.097656 12.550781 10.144531 12.4375 10.117188 12.332031 Z M 10.117188 12.332031 "/>
</g>
</svg>
