<?xml version="1.0" encoding="UTF-8"?>
<svg xmlns="http://www.w3.org/2000/svg" xmlns:xlink="http://www.w3.org/1999/xlink" width="15pt" height="15pt" viewBox="0 0 15 15" version="1.1">
<g id="surface1">
<path style=" stroke:none;fill-rule:nonzero;fill:rgb(80%,83.921569%,86.666667%);fill-opacity:1;" d="M 14.582031 7.082031 C 14.582031 10.996094 9.074219 15 7.5 15 C 5.925781 15 0.417969 10.996094 0.417969 7.082031 C 0.417969 3.171875 3.589844 0 7.5 0 C 11.410156 0 14.582031 3.171875 14.582031 7.082031 Z M 14.582031 7.082031 "/>
<path style=" stroke:none;fill-rule:nonzero;fill:rgb(16.078431%,18.431373%,20%);fill-opacity:1;" d="M 5.625 6.183594 C 6.929688 7.488281 7.457031 9.070312 6.804688 9.722656 C 6.152344 10.371094 4.570312 9.84375 3.269531 8.542969 C 1.96875 7.242188 1.441406 5.65625 2.089844 5.007812 C 2.742188 4.355469 4.324219 4.882812 5.625 6.183594 Z M 9.375 6.183594 C 8.070312 7.488281 7.542969 9.070312 8.195312 9.722656 C 8.847656 10.371094 10.429688 9.84375 11.730469 8.542969 C 13.03125 7.242188 13.558594 5.65625 12.910156 5.007812 C 12.257812 4.355469 10.675781 4.882812 9.375 6.183594 Z M 7.5 12.917969 C 6.523438 12.917969 6.011719 12.433594 5.957031 12.378906 C 5.792969 12.214844 5.792969 11.953125 5.957031 11.789062 C 6.117188 11.628906 6.378906 11.625 6.539062 11.785156 C 6.5625 11.804688 6.875 12.082031 7.5 12.082031 C 8.132812 12.082031 8.445312 11.796875 8.460938 11.785156 C 8.625 11.628906 8.886719 11.632812 9.046875 11.796875 C 9.203125 11.960938 9.207031 12.21875 9.042969 12.378906 C 8.988281 12.433594 8.476562 12.917969 7.5 12.917969 Z M 7.5 12.917969 "/>
</g>
</svg>
