<?xml version="1.0" encoding="UTF-8"?>
<svg xmlns="http://www.w3.org/2000/svg" xmlns:xlink="http://www.w3.org/1999/xlink" width="15pt" height="15pt" viewBox="0 0 15 15" version="1.1">
<g id="surface1">
<path style=" stroke:none;fill-rule:nonzero;fill:rgb(88.235294%,90.980392%,92.941176%);fill-opacity:1;" d="M 15 4.582031 C 15 4.125 14.625 3.75 14.167969 3.75 C 13.707031 3.75 13.332031 4.125 13.332031 4.582031 C 13.332031 4.582031 13.328125 5.953125 12.082031 6.207031 L 12.082031 5 C 12.082031 2.46875 10.03125 0.417969 7.5 0.417969 C 4.96875 0.417969 2.917969 2.46875 2.917969 5 L 2.917969 6.347656 C 0.742188 7.003906 0 9.679688 0 11.25 C 0 11.710938 0.375 12.082031 0.832031 12.082031 C 1.292969 12.082031 1.667969 11.710938 1.667969 11.25 C 1.667969 11.25 1.667969 9.773438 3.058594 9.601562 C 3.265625 11.617188 3.730469 13.75 4.582031 13.75 L 5 13.75 C 6.667969 13.75 6.25 14.582031 7.917969 14.582031 C 9.582031 14.582031 9.167969 13.75 10.417969 13.75 C 11.667969 13.75 11.414062 14.582031 12.917969 14.582031 C 13.605469 14.582031 14.167969 14.023438 14.167969 13.332031 C 14.167969 13.050781 13.21875 11.253906 12.601562 9.472656 C 14.992188 8.894531 15 6.074219 15 4.582031 Z M 15 4.582031 "/>
<path style=" stroke:none;fill-rule:nonzero;fill:rgb(16.078431%,18.431373%,20%);fill-opacity:1;" d="M 6.25 5 C 6.25 5.460938 5.875 5.832031 5.417969 5.832031 C 4.957031 5.832031 4.582031 5.460938 4.582031 5 C 4.582031 4.539062 4.957031 4.167969 5.417969 4.167969 C 5.875 4.167969 6.25 4.539062 6.25 5 Z M 6.25 5 "/>
<path style=" stroke:none;fill-rule:nonzero;fill:rgb(16.078431%,18.431373%,20%);fill-opacity:1;" d="M 11.25 5 C 11.25 5.921875 10.503906 6.667969 9.582031 6.667969 C 8.664062 6.667969 7.917969 5.921875 7.917969 5 C 7.917969 4.078125 8.664062 3.332031 9.582031 3.332031 C 10.503906 3.332031 11.25 4.078125 11.25 5 Z M 11.25 5 "/>
<path style=" stroke:none;fill-rule:nonzero;fill:rgb(60.392157%,66.666667%,70.588235%);fill-opacity:1;" d="M 10.417969 5.417969 C 10.417969 5.875 10.042969 6.25 9.582031 6.25 C 9.125 6.25 8.75 5.875 8.75 5.417969 C 8.75 4.957031 9.125 4.582031 9.582031 4.582031 C 10.042969 4.582031 10.417969 4.957031 10.417969 5.417969 Z M 10.417969 5.417969 "/>
<path style=" stroke:none;fill-rule:nonzero;fill:rgb(16.078431%,18.431373%,20%);fill-opacity:1;" d="M 9.246094 8.121094 C 10.351562 8.949219 10.742188 10.292969 10.121094 11.121094 C 9.5 11.949219 8.101562 11.949219 6.996094 11.121094 C 5.890625 10.292969 5.5 8.949219 6.121094 8.121094 C 6.742188 7.292969 8.140625 7.292969 9.246094 8.121094 Z M 9.246094 8.121094 "/>
</g>
</svg>
