<?xml version="1.0" encoding="UTF-8"?>
<svg xmlns="http://www.w3.org/2000/svg" xmlns:xlink="http://www.w3.org/1999/xlink" width="15pt" height="15pt" viewBox="0 0 15 15" version="1.1">
<g id="surface1">
<path style=" stroke:none;fill-rule:nonzero;fill:rgb(80%,83.921569%,86.666667%);fill-opacity:1;" d="M 14.167969 6.667969 C 14.167969 2.5 11.183594 0 7.5 0 C 3.816406 0 0.832031 2.5 0.832031 6.667969 C 0.832031 8.988281 0.835938 10.996094 3.332031 11.933594 L 3.332031 13.75 C 3.332031 14.441406 3.894531 15 4.582031 15 C 5.273438 15 5.832031 14.441406 5.832031 13.75 L 5.832031 12.433594 C 5.96875 12.445312 6.109375 12.457031 6.25 12.464844 L 6.25 13.75 C 6.25 14.441406 6.808594 15 7.5 15 C 8.191406 15 8.75 14.441406 8.75 13.75 L 8.75 12.464844 C 8.890625 12.457031 9.03125 12.445312 9.167969 12.433594 L 9.167969 13.75 C 9.167969 14.441406 9.726562 15 10.417969 15 C 11.105469 15 11.667969 14.441406 11.667969 13.75 L 11.667969 11.933594 C 14.164062 10.996094 14.167969 8.988281 14.167969 6.667969 Z M 14.167969 6.667969 "/>
<path style=" stroke:none;fill-rule:nonzero;fill:rgb(16.078431%,18.431373%,20%);fill-opacity:1;" d="M 6.667969 5.832031 C 6.667969 6.984375 5.734375 7.917969 4.582031 7.917969 C 3.433594 7.917969 2.5 6.984375 2.5 5.832031 C 2.5 4.683594 3.433594 3.75 4.582031 3.75 C 5.734375 3.75 6.667969 4.683594 6.667969 5.832031 Z M 6.667969 5.832031 "/>
<path style=" stroke:none;fill-rule:nonzero;fill:rgb(16.078431%,18.431373%,20%);fill-opacity:1;" d="M 12.5 5.832031 C 12.5 6.984375 11.566406 7.917969 10.417969 7.917969 C 9.265625 7.917969 8.332031 6.984375 8.332031 5.832031 C 8.332031 4.683594 9.265625 3.75 10.417969 3.75 C 11.566406 3.75 12.5 4.683594 12.5 5.832031 Z M 12.5 5.832031 "/>
<path style=" stroke:none;fill-rule:nonzero;fill:rgb(16.078431%,18.431373%,20%);fill-opacity:1;" d="M 8.292969 9.609375 C 8.1875 9.355469 7.875 9.167969 7.5 9.167969 C 7.125 9.167969 6.8125 9.355469 6.707031 9.609375 C 6.445312 9.683594 6.25 9.921875 6.25 10.207031 C 6.25 10.554688 6.53125 10.832031 6.875 10.832031 C 7.148438 10.832031 7.378906 10.65625 7.460938 10.414062 C 7.476562 10.414062 7.488281 10.417969 7.5 10.417969 C 7.511719 10.417969 7.523438 10.414062 7.539062 10.414062 C 7.621094 10.65625 7.851562 10.832031 8.125 10.832031 C 8.46875 10.832031 8.75 10.554688 8.75 10.207031 C 8.75 9.921875 8.554688 9.683594 8.292969 9.609375 Z M 8.292969 9.609375 "/>
</g>
</svg>
