<?xml version="1.0" encoding="UTF-8"?>
<svg xmlns="http://www.w3.org/2000/svg" xmlns:xlink="http://www.w3.org/1999/xlink" width="15pt" height="15pt" viewBox="0 0 15 15" version="1.1">
<g id="surface1">
<path style=" stroke:none;fill-rule:nonzero;fill:rgb(86.666667%,18.039216%,26.666667%);fill-opacity:1;" d="M 12.5 15 L 12.5 14.582031 C 12.5 13.203125 11.796875 12.082031 10.417969 12.082031 L 4.582031 12.082031 C 3.203125 12.082031 2.5 13.203125 2.5 14.582031 L 2.5 15 Z M 12.5 15 "/>
<path style=" stroke:none;fill-rule:nonzero;fill:rgb(16.078431%,18.431373%,20%);fill-opacity:1;" d="M 11.25 2.5 C 11.25 1.125 10.125 0 8.75 0 L 6.25 0 C 4.875 0 3.75 1.125 3.75 2.5 L 3.75 7.5 C 3.75 9.570312 5.429688 9.582031 7.5 9.582031 C 9.570312 9.582031 11.25 9.570312 11.25 7.5 Z M 11.25 2.5 "/>
<path style=" stroke:none;fill-rule:nonzero;fill:rgb(100%,86.27451%,36.470588%);fill-opacity:1;" d="M 6.09375 12.273438 C 6.652344 12.679688 7.007812 12.769531 7.496094 12.769531 C 7.980469 12.769531 8.335938 12.679688 8.894531 12.273438 L 8.894531 11.050781 L 6.09375 11.050781 Z M 6.09375 12.273438 "/>
<path style=" stroke:none;fill-rule:nonzero;fill:rgb(97.647059%,79.215686%,33.333333%);fill-opacity:1;" d="M 6.089844 11.589844 C 6.484375 12.03125 6.964844 12.152344 7.492188 12.152344 C 8.019531 12.152344 8.503906 12.03125 8.894531 11.589844 L 8.894531 10.46875 L 6.089844 10.46875 Z M 6.089844 11.589844 "/>
<path style=" stroke:none;fill-rule:nonzero;fill:rgb(100%,86.27451%,36.470588%);fill-opacity:1;" d="M 10.652344 8.367188 C 10.652344 7.902344 10.417969 7.523438 10.125 7.523438 C 10.097656 7.523438 10.074219 7.53125 10.046875 7.535156 C 10.042969 7.523438 10.042969 7.511719 10.039062 7.5 L 4.953125 7.5 C 4.945312 7.511719 4.945312 7.523438 4.941406 7.535156 C 4.914062 7.53125 4.890625 7.523438 4.863281 7.523438 C 4.570312 7.523438 4.335938 7.902344 4.335938 8.367188 C 4.335938 8.792969 4.535156 9.144531 4.792969 9.199219 C 4.996094 10.753906 6.128906 11.945312 7.496094 11.945312 C 8.863281 11.945312 9.992188 10.753906 10.195312 9.199219 C 10.453125 9.140625 10.652344 8.792969 10.652344 8.367188 Z M 10.652344 8.367188 "/>
<path style=" stroke:none;fill-rule:nonzero;fill:rgb(75.686275%,41.176471%,30.980392%);fill-opacity:1;" d="M 7.496094 10.894531 C 6.609375 10.894531 6.339844 10.667969 6.292969 10.621094 C 6.210938 10.539062 6.210938 10.40625 6.292969 10.324219 C 6.371094 10.242188 6.5 10.242188 6.582031 10.316406 C 6.597656 10.328125 6.8125 10.472656 7.496094 10.472656 C 8.199219 10.472656 8.40625 10.316406 8.40625 10.316406 C 8.488281 10.234375 8.617188 10.238281 8.699219 10.320312 C 8.78125 10.402344 8.777344 10.539062 8.695312 10.621094 C 8.652344 10.667969 8.378906 10.894531 7.496094 10.894531 Z M 7.734375 9.589844 L 7.253906 9.589844 C 7.121094 9.589844 7.011719 9.484375 7.011719 9.351562 C 7.011719 9.21875 7.121094 9.109375 7.253906 9.109375 L 7.734375 9.109375 C 7.867188 9.109375 7.976562 9.21875 7.976562 9.351562 C 7.976562 9.484375 7.867188 9.589844 7.734375 9.589844 Z M 7.734375 9.589844 "/>
<path style=" stroke:none;fill-rule:nonzero;fill:rgb(40%,12.941176%,7.45098%);fill-opacity:1;" d="M 6.210938 8.707031 C 6.035156 8.707031 5.890625 8.5625 5.890625 8.386719 L 5.890625 8.066406 C 5.890625 7.890625 6.035156 7.746094 6.210938 7.746094 C 6.386719 7.746094 6.53125 7.890625 6.53125 8.066406 L 6.53125 8.386719 C 6.53125 8.5625 6.386719 8.707031 6.210938 8.707031 Z M 8.777344 8.707031 C 8.601562 8.707031 8.457031 8.5625 8.457031 8.386719 L 8.457031 8.066406 C 8.457031 7.890625 8.601562 7.746094 8.777344 7.746094 C 8.957031 7.746094 9.101562 7.890625 9.101562 8.066406 L 9.101562 8.386719 C 9.101562 8.5625 8.957031 8.707031 8.777344 8.707031 Z M 8.777344 8.707031 "/>
<path style=" stroke:none;fill-rule:nonzero;fill:rgb(16.078431%,18.431373%,20%);fill-opacity:1;" d="M 5.242188 12.691406 L 3.300781 13 C 3.1875 13.015625 3.082031 12.9375 3.0625 12.824219 L 3 12.414062 C 2.980469 12.300781 3.058594 12.195312 3.171875 12.175781 L 5.109375 11.867188 C 5.222656 11.851562 5.332031 11.929688 5.347656 12.042969 L 5.414062 12.453125 C 5.433594 12.566406 5.355469 12.675781 5.242188 12.691406 Z M 9.769531 12.691406 L 11.707031 13 C 11.820312 13.015625 11.929688 12.9375 11.945312 12.824219 L 12.011719 12.414062 C 12.03125 12.300781 11.953125 12.195312 11.839844 12.175781 L 9.898438 11.867188 C 9.785156 11.851562 9.679688 11.929688 9.660156 12.042969 L 9.597656 12.453125 C 9.578125 12.566406 9.65625 12.675781 9.769531 12.691406 Z M 9.769531 12.691406 "/>
<path style=" stroke:none;fill-rule:nonzero;fill:rgb(60%,66.666667%,70.980392%);fill-opacity:1;" d="M 4.949219 7.5 C 4.949219 7.5 4.875 11.25 7.496094 11.25 C 10.113281 11.25 10.050781 7.5 10.050781 7.5 L 10.417969 7.5 C 10.417969 7.5 10.289062 11.667969 7.5 11.667969 C 4.710938 11.667969 4.582031 7.5 4.582031 7.5 Z M 4.949219 7.5 "/>
<path style=" stroke:none;fill-rule:nonzero;fill:rgb(96.078431%,97.254902%,98.039216%);fill-opacity:1;" d="M 7.292969 12.917969 L 7.707031 12.917969 L 7.707031 15 L 7.292969 15 Z M 7.292969 12.917969 "/>
<path style=" stroke:none;fill-rule:nonzero;fill:rgb(16.078431%,18.431373%,20%);fill-opacity:1;" d="M 8.910156 11.589844 C 8.910156 12.246094 7.976562 12.5 7.5 12.5 C 7.023438 12.5 6.089844 12.246094 6.089844 11.589844 C 6.089844 11.589844 5.832031 11.535156 5.832031 12.082031 C 5.832031 12.628906 6.621094 13.332031 7.5 13.332031 C 8.378906 13.332031 9.167969 12.628906 9.167969 12.082031 C 9.167969 11.535156 8.910156 11.589844 8.910156 11.589844 Z M 8.910156 11.589844 "/>
</g>
</svg>
