<?xml version="1.0" encoding="UTF-8"?>
<svg xmlns="http://www.w3.org/2000/svg" xmlns:xlink="http://www.w3.org/1999/xlink" width="15pt" height="15pt" viewBox="0 0 15 15" version="1.1">
<g id="surface1">
<path style=" stroke:none;fill-rule:nonzero;fill:rgb(86.666667%,18.039216%,26.666667%);fill-opacity:1;" d="M 7.046875 13.40625 C 7.066406 13.15625 6.921875 12.984375 6.730469 12.980469 L 6.652344 12.980469 C 6.460938 12.984375 6.316406 13.15625 6.335938 13.40625 C 6.367188 13.785156 6.332031 13.992188 6.316406 14.375 C 6.304688 14.652344 6.4375 14.996094 6.691406 14.996094 C 6.941406 14.996094 7.078125 14.652344 7.066406 14.375 C 7.050781 13.992188 7.015625 13.785156 7.046875 13.40625 Z M 7.046875 13.40625 "/>
<path style=" stroke:none;fill-rule:nonzero;fill:rgb(48.627451%,32.54902%,24.313725%);fill-opacity:1;" d="M 7.09375 11.445312 C 7.09375 11.335938 6.890625 11.28125 6.691406 11.28125 C 6.492188 11.28125 6.289062 11.335938 6.289062 11.445312 C 6.289062 11.445312 6.460938 12.882812 6.429688 14.234375 C 6.425781 14.351562 6.558594 14.417969 6.691406 14.417969 C 6.824219 14.417969 6.957031 14.355469 6.953125 14.234375 C 6.921875 12.882812 7.09375 11.445312 7.09375 11.445312 Z M 7.09375 11.445312 "/>
<path style=" stroke:none;fill-rule:nonzero;fill:rgb(86.666667%,18.039216%,26.666667%);fill-opacity:1;" d="M 6.410156 13.367188 L 6.980469 13.367188 L 6.980469 13.636719 L 6.410156 13.636719 Z M 6.410156 13.367188 "/>
<path style=" stroke:none;fill-rule:nonzero;fill:rgb(48.627451%,32.54902%,24.313725%);fill-opacity:1;" d="M 10.097656 8.675781 C 10.097656 8.675781 11.414062 7.722656 11.59375 7.710938 C 11.699219 7.707031 12.378906 7.660156 12.523438 7.644531 C 13.046875 7.59375 14.128906 7.367188 14.222656 7.34375 C 14.320312 7.324219 14.359375 7.359375 14.574219 7.007812 C 14.789062 6.660156 14.554688 6.742188 14.554688 6.742188 C 14.554688 6.742188 14.410156 6.863281 14.328125 6.902344 C 14.246094 6.9375 14.09375 6.972656 13.949219 6.96875 C 13.496094 6.960938 10.960938 6.851562 10.960938 6.851562 C 10.605469 6.871094 10.421875 6.871094 10.285156 7.132812 C 10.046875 7.59375 10.082031 8.441406 10.097656 8.675781 Z M 10.097656 8.675781 "/>
<path style=" stroke:none;fill-rule:nonzero;fill:rgb(4.313725%,0.784314%,0%);fill-opacity:1;" d="M 6.683594 0.421875 C 6.769531 0.265625 6.910156 0.0117188 7.4375 0.171875 C 8.234375 0.414062 7.519531 0.839844 7.519531 0.839844 C 7.519531 0.839844 8.351562 1.253906 8.351562 2.503906 C 8.351562 3.753906 7.375 3.492188 7.375 4.808594 L 7.226562 5.03125 C 7.226562 5.03125 7.492188 4.851562 6.660156 5.683594 C 4.992188 7.351562 3.835938 5.152344 3.988281 4.535156 C 4.214844 3.632812 3.769531 3.753906 3.769531 2.921875 C 3.769531 2.089844 4.601562 2.089844 4.601562 1.253906 C 4.601562 0.421875 5.433594 0.00390625 5.851562 0.00390625 C 6.269531 0.00390625 6.683594 0.421875 6.683594 0.421875 Z M 6.683594 0.421875 "/>
<path style=" stroke:none;fill-rule:nonzero;fill:rgb(48.627451%,32.54902%,24.313725%);fill-opacity:1;" d="M 7.207031 2.089844 C 7.207031 1.398438 6.714844 0.839844 6.113281 0.839844 C 5.507812 0.839844 5.019531 1.398438 5.019531 2.089844 C 5.019531 2.777344 5.507812 3.339844 6.113281 3.339844 C 6.714844 3.339844 7.207031 2.777344 7.207031 2.089844 Z M 7.207031 2.089844 "/>
<path style=" stroke:none;fill-rule:nonzero;fill:rgb(4.313725%,0.784314%,0%);fill-opacity:1;" d="M 6.058594 0.421875 C 5.671875 0.421875 5.339844 0.550781 5.160156 0.738281 C 4.699219 0.648438 4.960938 1.367188 4.601562 2.089844 C 4.183594 2.921875 5.019531 3.753906 5.019531 3.339844 C 5.019531 2.921875 5.019531 1.671875 5.851562 1.671875 L 6.058594 1.671875 C 6.636719 1.671875 7.101562 1.390625 7.101562 1.046875 C 7.101562 0.703125 6.636719 0.421875 6.058594 0.421875 Z M 6.058594 0.421875 "/>
<path style=" stroke:none;fill-rule:nonzero;fill:rgb(48.627451%,32.54902%,24.313725%);fill-opacity:1;" d="M 7.75 3.890625 C 7.339844 3.75 7.050781 3.765625 6.550781 3.757812 L 6.371094 2.140625 C 6.347656 1.910156 6.136719 1.746094 5.910156 1.773438 C 5.683594 1.796875 5.519531 2.003906 5.542969 2.234375 L 5.710938 3.753906 L 4.902344 3.773438 L 4.914062 4.589844 C 4.917969 4.699219 4.949219 4.832031 5.019531 5.003906 C 5.433594 6.046875 7.519531 6.25 7.519531 5.214844 C 7.519531 4.960938 7.496094 4.773438 7.457031 4.628906 C 7.957031 4.664062 8.859375 4.265625 7.75 3.890625 Z M 7.75 3.890625 "/>
<path style=" stroke:none;fill-rule:nonzero;fill:rgb(86.666667%,18.039216%,26.666667%);fill-opacity:1;" d="M 5.433594 6.671875 C 5.433594 7.503906 5.433594 7.921875 4.601562 9.171875 C 3.769531 10.421875 2.933594 10.421875 2.519531 11.253906 C 2.101562 12.089844 2.519531 12.089844 3.351562 11.671875 C 4.183594 11.253906 3.769531 13.339844 5.019531 13.339844 C 6.269531 13.339844 5.851562 12.089844 6.683594 12.089844 C 7.519531 12.089844 7.933594 13.339844 8.769531 13.339844 C 9.601562 13.339844 9.84375 12.332031 9.183594 11.671875 C 8.769531 11.253906 10.019531 10.421875 10.433594 10.839844 C 11.09375 11.496094 11.78125 10.519531 10.851562 9.589844 C 10.433594 9.171875 10.105469 8.710938 10.851562 8.339844 C 11.683594 7.921875 11.894531 6.253906 10.851562 6.671875 C 9.457031 7.230469 7.519531 7.988281 7.519531 6.671875 L 7.519531 5.003906 C 7.519531 5.003906 6.953125 4.855469 6.773438 3.761719 L 6.691406 3.761719 C 6.691406 3.761719 6.460938 5.214844 5.519531 3.761719 L 5.429688 3.765625 C 5.429688 3.765625 5.789062 4.855469 5.160156 5.335938 C 5.117188 5.367188 5.433594 5.839844 5.433594 6.671875 Z M 5.433594 6.671875 "/>
<path style=" stroke:none;fill-rule:nonzero;fill:rgb(62.745098%,1.568627%,11.764706%);fill-opacity:1;" d="M 10.851562 7.871094 C 10.382812 8.105469 10.339844 8.371094 10.472656 8.640625 C 10.539062 8.535156 10.660156 8.433594 10.851562 8.339844 C 11.371094 8.078125 11.648438 7.328125 11.527344 6.90625 C 11.449219 7.28125 11.210938 7.691406 10.851562 7.871094 Z M 8.769531 12.871094 C 7.933594 12.871094 7.519531 11.621094 6.683594 11.621094 C 5.851562 11.621094 6.269531 12.871094 5.019531 12.871094 C 3.769531 12.871094 4.183594 10.785156 3.351562 11.203125 C 2.902344 11.429688 2.578125 11.527344 2.4375 11.441406 C 2.183594 12.078125 2.589844 12.054688 3.351562 11.671875 C 4.183594 11.253906 3.769531 13.339844 5.019531 13.339844 C 6.269531 13.339844 5.851562 12.089844 6.683594 12.089844 C 7.519531 12.089844 7.933594 13.339844 8.769531 13.339844 C 9.359375 13.339844 9.644531 12.828125 9.53125 12.296875 C 9.441406 12.625 9.179688 12.871094 8.769531 12.871094 Z M 10.433594 10.371094 C 10.019531 9.953125 8.769531 10.785156 9.183594 11.203125 C 9.191406 11.210938 9.191406 11.214844 9.199219 11.222656 C 9.453125 10.863281 10.144531 10.550781 10.433594 10.839844 C 10.929688 11.335938 11.445312 10.902344 11.269531 10.261719 C 11.160156 10.601562 10.792969 10.726562 10.433594 10.371094 Z M 10.433594 10.371094 "/>
<path style=" stroke:none;fill-rule:nonzero;fill:rgb(86.666667%,18.039216%,26.666667%);fill-opacity:1;" d="M 14.9375 6.539062 C 14.9375 6.539062 14.761719 6.449219 14.609375 6.671875 C 14.582031 6.714844 14.554688 6.742188 14.554688 6.742188 C 14.574219 6.773438 14.566406 6.804688 14.558594 6.832031 C 14.503906 7 14.359375 7.121094 14.089844 7.160156 C 13.976562 7.179688 13.882812 7.199219 13.804688 7.21875 L 13.8125 6.96875 L 13.539062 6.957031 L 13.527344 7.324219 C 13.40625 7.394531 13.367188 7.46875 13.347656 7.523438 C 13.308594 7.644531 13.578125 7.789062 13.75 7.84375 C 13.902344 7.894531 14.035156 7.917969 14.128906 7.921875 C 14.230469 7.921875 14.601562 8.015625 14.601562 8.015625 L 14.636719 7.902344 C 14.636719 7.902344 14.339844 7.761719 14.234375 7.714844 C 14.152344 7.679688 14.203125 7.472656 14.328125 7.453125 C 14.664062 7.390625 14.746094 7.417969 14.796875 7.261719 L 14.984375 6.6875 C 15.015625 6.585938 14.9375 6.539062 14.9375 6.539062 Z M 14.9375 6.539062 "/>
<path style=" stroke:none;fill-rule:nonzero;fill:rgb(48.627451%,32.54902%,24.313725%);fill-opacity:1;" d="M 5.160156 3.855469 C 5.117188 3.824219 5.070312 3.800781 5.019531 3.789062 C 4.949219 3.773438 4.871094 3.773438 4.792969 3.792969 C 4.628906 3.835938 4.390625 3.878906 4.136719 3.929688 C 3.789062 3.996094 3.332031 4.125 3.207031 4.125 C 3.082031 4.125 2.578125 3.964844 2.109375 3.902344 C 1.957031 3.882812 1.464844 3.835938 1.359375 3.824219 C 1.214844 3.808594 1.042969 3.789062 0.910156 3.761719 C 0.851562 3.746094 0.613281 3.683594 0.519531 3.667969 C 0.335938 3.632812 0.0351562 3.617188 0.015625 3.652344 C -0.0546875 3.808594 0.335938 3.75 0.660156 4.035156 C 0.847656 4.199219 1.039062 4.191406 1.222656 4.179688 C 1.367188 4.167969 1.824219 4.417969 2.191406 4.53125 C 2.457031 4.609375 3.046875 4.753906 3.132812 4.765625 C 3.21875 4.777344 3.671875 4.742188 3.976562 4.71875 C 4.28125 4.695312 4.546875 4.671875 4.757812 4.6875 C 4.960938 4.699219 5.113281 4.652344 5.210938 4.550781 C 5.332031 4.421875 5.328125 4.242188 5.328125 4.191406 C 5.316406 4.046875 5.257812 3.929688 5.160156 3.855469 Z M 9.828125 4.410156 C 9.757812 4.316406 9.589844 4.175781 9.238281 4.078125 C 8.964844 4.003906 7.574219 3.816406 7.300781 3.785156 C 7.089844 3.757812 7.21875 4.539062 7.328125 4.601562 C 7.394531 4.644531 7.476562 4.648438 7.605469 4.660156 C 8.113281 4.714844 8.878906 4.671875 9.015625 4.660156 C 9.078125 4.652344 9.105469 4.675781 9.109375 4.714844 C 9.082031 4.835938 8.988281 4.992188 8.910156 5.171875 C 8.777344 5.476562 8.636719 5.886719 8.585938 5.933594 L 8.539062 5.976562 C 8.433594 5.996094 8.308594 6.050781 8.199219 6.140625 C 8.160156 6.171875 8.121094 6.210938 8.09375 6.292969 C 8.054688 6.402344 8.164062 6.417969 8.191406 6.347656 C 8.203125 6.320312 8.230469 6.273438 8.292969 6.257812 C 8.289062 6.269531 8.285156 6.28125 8.285156 6.296875 C 8.285156 6.320312 8.277344 6.339844 8.273438 6.363281 C 8.179688 6.527344 7.988281 6.59375 8.003906 6.65625 C 8.003906 6.667969 8.023438 6.671875 8.035156 6.675781 C 7.972656 6.71875 7.921875 6.746094 7.925781 6.78125 C 7.929688 6.808594 7.960938 6.8125 8 6.808594 C 7.96875 6.832031 7.953125 6.851562 7.953125 6.871094 C 7.964844 6.960938 8.183594 6.824219 8.292969 6.78125 C 8.472656 6.707031 8.578125 6.632812 8.703125 6.515625 C 8.847656 6.382812 8.917969 6.1875 8.980469 6.082031 C 9.027344 6 9.582031 5.328125 9.703125 5.101562 C 9.886719 4.769531 9.898438 4.507812 9.828125 4.410156 Z M 9.828125 4.410156 "/>
</g>
</svg>
