<?xml version="1.0" encoding="UTF-8"?>
<svg xmlns="http://www.w3.org/2000/svg" xmlns:xlink="http://www.w3.org/1999/xlink" width="15pt" height="15pt" viewBox="0 0 15 15" version="1.1">
<g id="surface1">
<path style=" stroke:none;fill-rule:nonzero;fill:rgb(60.392157%,66.666667%,70.588235%);fill-opacity:1;" d="M 12.570312 3.394531 L 6.382812 9.582031 C 6.382812 9.582031 6.089844 8.699219 6.679688 8.109375 L 11.980469 2.808594 Z M 12.570312 3.394531 "/>
<path style=" stroke:none;fill-rule:nonzero;fill:rgb(40.392157%,45.882353%,49.803922%);fill-opacity:1;" d="M 11.980469 2.808594 C 11.167969 3.621094 10.902344 4.675781 11.390625 5.164062 C 11.878906 5.652344 12.9375 5.386719 13.75 4.574219 C 14.5625 3.761719 14.828125 2.707031 14.339844 2.21875 C 13.851562 1.730469 12.796875 1.992188 11.980469 2.808594 Z M 12.570312 3.394531 C 13.058594 2.90625 13.585938 2.644531 13.75 2.808594 C 13.914062 2.96875 13.648438 3.496094 13.160156 3.984375 C 12.671875 4.472656 12.144531 4.738281 11.980469 4.574219 C 11.816406 4.410156 12.082031 3.882812 12.570312 3.394531 Z M 12.570312 3.394531 "/>
<path style=" stroke:none;fill-rule:nonzero;fill:rgb(16.078431%,18.431373%,20%);fill-opacity:1;" d="M 8.179688 4.734375 C 8.253906 2.730469 7.078125 1.210938 4.960938 0.527344 C 4.121094 0.253906 2.140625 0.328125 1.644531 0.972656 C 1.097656 0.980469 0.511719 1.199219 0 1.5625 L 0 5 L 6.417969 9.195312 C 6.894531 8.824219 7.265625 8.328125 7.546875 7.722656 C 8.445312 8.679688 9.582031 8.519531 9.582031 8.519531 C 8.039062 7.328125 8.179688 4.734375 8.179688 4.734375 Z M 8.179688 4.734375 "/>
<path style=" stroke:none;fill-rule:nonzero;fill:rgb(98.039216%,45.490196%,24.313725%);fill-opacity:1;" d="M 8.585938 12.210938 C 8.320312 11.644531 7.75 11.25 7.082031 11.25 L 0 11.25 L 0 15 L 8.75 15 L 8.75 12.917969 C 8.75 12.664062 8.6875 12.425781 8.585938 12.210938 Z M 8.585938 12.210938 "/>
<path style=" stroke:none;fill-rule:nonzero;fill:rgb(86.666667%,33.333333%,12.156863%);fill-opacity:1;" d="M 6.667969 13.332031 L 7.082031 13.332031 L 7.082031 15 L 6.667969 15 Z M 6.667969 13.332031 "/>
<path style=" stroke:none;fill-rule:nonzero;fill:rgb(96.862745%,87.058824%,80.784314%);fill-opacity:1;" d="M 6.628906 4.875 C 6.347656 4.484375 5.984375 4.171875 5.191406 4.058594 C 5.492188 4.195312 5.773438 4.664062 5.8125 4.925781 C 5.847656 5.183594 5.886719 5.394531 5.652344 5.136719 C 4.710938 4.09375 3.683594 4.503906 2.667969 3.867188 C 1.957031 3.421875 1.742188 2.933594 1.742188 2.933594 C 1.742188 2.933594 1.652344 3.589844 0.578125 4.257812 C 0.390625 4.375 0.183594 4.585938 0 4.867188 L 0 8.78125 C 0.433594 9.621094 1.179688 10.28125 2.082031 10.605469 L 2.082031 11.667969 C 2.082031 12.355469 2.644531 12.917969 3.332031 12.917969 C 4.023438 12.917969 4.582031 12.355469 4.582031 11.667969 L 4.582031 10.609375 C 5.332031 10.335938 5.972656 9.835938 6.417969 9.195312 C 6.835938 8.585938 7.082031 7.855469 7.082031 7.082031 C 7.082031 5.816406 6.949219 5.320312 6.628906 4.875 Z M 6.628906 4.875 "/>
<path style=" stroke:none;fill-rule:nonzero;fill:rgb(75.686275%,41.176471%,30.980392%);fill-opacity:1;" d="M 5 9.167969 L 1.667969 9.167969 C 1.667969 9.167969 2.082031 10 3.332031 10 C 4.582031 10 5 9.167969 5 9.167969 Z M 3.75 8.125 L 2.917969 8.125 C 2.800781 8.125 2.707031 8.03125 2.707031 7.917969 C 2.707031 7.800781 2.800781 7.707031 2.917969 7.707031 L 3.75 7.707031 C 3.863281 7.707031 3.957031 7.800781 3.957031 7.917969 C 3.957031 8.03125 3.863281 8.125 3.75 8.125 Z M 3.75 8.125 "/>
<path style=" stroke:none;fill-rule:nonzero;fill:rgb(40%,12.941176%,7.45098%);fill-opacity:1;" d="M 1.667969 6.667969 C 1.4375 6.667969 1.25 6.480469 1.25 6.25 L 1.25 5.832031 C 1.25 5.601562 1.4375 5.417969 1.667969 5.417969 C 1.898438 5.417969 2.082031 5.601562 2.082031 5.832031 L 2.082031 6.25 C 2.082031 6.480469 1.898438 6.667969 1.667969 6.667969 Z M 5 6.667969 C 4.769531 6.667969 4.582031 6.480469 4.582031 6.25 L 4.582031 5.832031 C 4.582031 5.601562 4.769531 5.417969 5 5.417969 C 5.230469 5.417969 5.417969 5.601562 5.417969 5.832031 L 5.417969 6.25 C 5.417969 6.480469 5.230469 6.667969 5 6.667969 Z M 5 6.667969 "/>
<path style=" stroke:none;fill-rule:nonzero;fill:rgb(60.392157%,66.666667%,70.588235%);fill-opacity:1;" d="M 10 2.5 L 10 11.25 C 10 11.25 10.832031 10.832031 10.832031 10 L 10.832031 2.5 Z M 10 2.5 "/>
<path style=" stroke:none;fill-rule:nonzero;fill:rgb(40.392157%,45.882353%,49.803922%);fill-opacity:1;" d="M 10.832031 5 C 10.832031 5.230469 10.648438 5.417969 10.417969 5.417969 C 10.1875 5.417969 10 5.230469 10 5 C 10 4.769531 10.1875 4.582031 10.417969 4.582031 C 10.648438 4.582031 10.832031 4.769531 10.832031 5 Z M 10.832031 5 "/>
<path style=" stroke:none;fill-rule:nonzero;fill:rgb(40.392157%,45.882353%,49.803922%);fill-opacity:1;" d="M 9.582031 0.417969 C 8.894531 0.417969 8.332031 1.347656 8.332031 2.5 C 8.332031 3.652344 8.894531 4.582031 9.582031 4.582031 C 10.273438 4.582031 10.832031 3.652344 10.832031 2.5 C 10.832031 1.347656 10.273438 0.417969 9.582031 0.417969 Z M 9.582031 3.75 C 9.351562 3.75 9.167969 3.191406 9.167969 2.5 C 9.167969 1.808594 9.351562 1.25 9.582031 1.25 C 9.8125 1.25 10 1.808594 10 2.5 C 10 3.191406 9.8125 3.75 9.582031 3.75 Z M 9.582031 3.75 "/>
</g>
</svg>
