<?xml version="1.0" encoding="UTF-8"?>
<svg xmlns="http://www.w3.org/2000/svg" xmlns:xlink="http://www.w3.org/1999/xlink" width="15pt" height="15pt" viewBox="0 0 15 15" version="1.1">
<g id="surface1">
<path style=" stroke:none;fill-rule:nonzero;fill:rgb(25.882353%,53.72549%,75.686275%);fill-opacity:1;" d="M 9.167969 11.25 L 1.667969 11.25 C 0.746094 11.25 0 11.996094 0 12.917969 L 0 15 L 10.832031 15 L 10.832031 12.917969 C 10.832031 11.996094 10.085938 11.25 9.167969 11.25 Z M 9.167969 11.25 "/>
<path style=" stroke:none;fill-rule:nonzero;fill:rgb(16.470588%,40.392157%,59.215686%);fill-opacity:1;" d="M 8.75 13.332031 L 9.167969 13.332031 L 9.167969 15 L 8.75 15 Z M 1.667969 13.332031 L 2.082031 13.332031 L 2.082031 15 L 1.667969 15 Z M 1.667969 13.332031 "/>
<path style=" stroke:none;fill-rule:nonzero;fill:rgb(83.529412%,67.058824%,53.333333%);fill-opacity:1;" d="M 4.167969 9.167969 L 4.167969 11.667969 C 4.167969 12.355469 4.726562 12.917969 5.417969 12.917969 C 6.105469 12.917969 6.667969 12.355469 6.667969 11.667969 L 6.667969 9.167969 Z M 4.167969 9.167969 "/>
<path style=" stroke:none;fill-rule:nonzero;fill:rgb(25.882353%,53.72549%,75.686275%);fill-opacity:1;" d="M 12.082031 15 L 9.167969 15 L 9.582031 7.917969 L 12.082031 7.917969 Z M 12.082031 15 "/>
<path style=" stroke:none;fill-rule:nonzero;fill:rgb(80%,60.784314%,47.843137%);fill-opacity:1;" d="M 13.140625 6.433594 C 13.082031 6.144531 12.800781 5.960938 12.511719 6.019531 L 11.394531 6.25 L 10.417969 6.25 C 9.957031 6.25 9.582031 6.625 9.582031 7.082031 L 9.582031 7.917969 L 11.667969 7.917969 C 12.117188 7.917969 12.480469 7.558594 12.496094 7.113281 L 12.644531 7.082031 L 12.917969 7.082031 C 12.917969 7.050781 12.90625 7.023438 12.898438 6.992188 C 13.082031 6.878906 13.1875 6.660156 13.140625 6.433594 Z M 13.140625 6.433594 "/>
<path style=" stroke:none;fill-rule:nonzero;fill:rgb(83.529412%,67.058824%,53.333333%);fill-opacity:1;" d="M 15 6.667969 C 15 6.4375 14.8125 6.25 14.582031 6.25 L 12.082031 6.667969 L 10 6.667969 C 9.769531 6.667969 9.582031 6.851562 9.582031 7.082031 L 9.582031 7.917969 L 12.082031 7.917969 L 14.582031 7.082031 C 14.582031 7.082031 15 6.898438 15 6.667969 Z M 1.667969 2.472656 L 1.667969 7.082031 C 1.667969 9.15625 3.34375 10.832031 5.417969 10.832031 C 7.488281 10.832031 9.167969 9.15625 9.167969 7.082031 L 9.167969 2.605469 Z M 1.667969 2.472656 "/>
<path style=" stroke:none;fill-rule:nonzero;fill:rgb(75.686275%,41.176471%,30.980392%);fill-opacity:1;" d="M 3.75 9.167969 L 7.082031 9.167969 C 7.082031 9.167969 6.667969 10 5.417969 10 C 4.167969 10 3.75 9.167969 3.75 9.167969 Z M 3.75 9.167969 "/>
<path style=" stroke:none;fill-rule:nonzero;fill:rgb(40%,12.941176%,7.45098%);fill-opacity:1;" d="M 3.75 6.667969 C 3.519531 6.667969 3.332031 6.480469 3.332031 6.25 L 3.332031 5.832031 C 3.332031 5.601562 3.519531 5.417969 3.75 5.417969 C 3.980469 5.417969 4.167969 5.601562 4.167969 5.832031 L 4.167969 6.25 C 4.167969 6.480469 3.980469 6.667969 3.75 6.667969 Z M 7.082031 6.667969 C 6.851562 6.667969 6.667969 6.480469 6.667969 6.25 L 6.667969 5.832031 C 6.667969 5.601562 6.851562 5.417969 7.082031 5.417969 C 7.3125 5.417969 7.5 5.601562 7.5 5.832031 L 7.5 6.25 C 7.5 6.480469 7.3125 6.667969 7.082031 6.667969 Z M 7.082031 6.667969 "/>
<path style=" stroke:none;fill-rule:nonzero;fill:rgb(75.686275%,41.176471%,30.980392%);fill-opacity:1;" d="M 5.832031 8.125 L 5 8.125 C 4.886719 8.125 4.792969 8.03125 4.792969 7.917969 C 4.792969 7.800781 4.886719 7.707031 5 7.707031 L 5.832031 7.707031 C 5.949219 7.707031 6.042969 7.800781 6.042969 7.917969 C 6.042969 8.03125 5.949219 8.125 5.832031 8.125 Z M 5.832031 8.125 "/>
<path style=" stroke:none;fill-rule:nonzero;fill:rgb(83.529412%,67.058824%,53.333333%);fill-opacity:1;" d="M 2.4375 5.714844 C 2.4375 6.371094 2.101562 6.90625 1.691406 6.90625 C 1.28125 6.90625 0.945312 6.371094 0.945312 5.714844 C 0.945312 5.054688 1.28125 4.523438 1.691406 4.523438 C 2.101562 4.523438 2.4375 5.054688 2.4375 5.714844 Z M 9.886719 5.714844 C 9.886719 6.371094 9.554688 6.90625 9.140625 6.90625 C 8.730469 6.90625 8.398438 6.371094 8.398438 5.714844 C 8.398438 5.054688 8.730469 4.523438 9.140625 4.523438 C 9.554688 4.523438 9.886719 5.054688 9.886719 5.714844 Z M 9.886719 5.714844 "/>
<path style=" stroke:none;fill-rule:nonzero;fill:rgb(58.823529%,23.137255%,13.333333%);fill-opacity:1;" d="M 5.417969 0.34375 C 2.492188 0.34375 1.191406 2.292969 1.191406 3.921875 C 1.191406 5.546875 1.75 6 1.84375 5.546875 C 2.167969 3.921875 3.140625 3.421875 3.140625 3.421875 C 5.09375 5.046875 4.765625 3.746094 4.765625 3.746094 C 6.714844 5.699219 5.742188 3.746094 5.742188 3.746094 C 6.390625 4.398438 8.339844 4.398438 8.339844 4.398438 C 8.339844 4.398438 8.667969 4.898438 8.992188 5.546875 C 9.316406 6.199219 9.640625 5.546875 9.640625 3.921875 C 9.640625 2.292969 8.015625 0.34375 5.417969 0.34375 Z M 5.417969 0.34375 "/>
</g>
</svg>
