<?xml version="1.0" encoding="UTF-8"?>
<svg xmlns="http://www.w3.org/2000/svg" xmlns:xlink="http://www.w3.org/1999/xlink" width="15pt" height="15pt" viewBox="0 0 15 15" version="1.1">
<g id="surface1">
<path style=" stroke:none;fill-rule:nonzero;fill:rgb(100%,86.27451%,36.470588%);fill-opacity:1;" d="M 12.917969 3.464844 C 10.15625 3.464844 7.917969 5.703125 7.917969 8.464844 C 7.917969 9.019531 8.011719 9.554688 8.179688 10.054688 C 8.679688 12.082031 10.582031 13.554688 12.765625 13.460938 C 12.769531 13.460938 12.777344 13.457031 12.785156 13.457031 C 13.609375 13.417969 14.363281 13.15625 15 12.742188 L 15 3.925781 C 14.363281 3.632812 13.660156 3.464844 12.917969 3.464844 Z M 12.917969 3.464844 "/>
<path style=" stroke:none;fill-rule:nonzero;fill:rgb(40%,12.941176%,7.45098%);fill-opacity:1;" d="M 10.832031 8.976562 C 10.246094 8.976562 10.210938 8.453125 10.207031 8.347656 C 10.207031 8.234375 10.113281 8.140625 10 8.140625 C 9.886719 8.140625 9.792969 8.234375 9.792969 8.351562 C 9.792969 8.710938 10.007812 9.390625 10.832031 9.390625 C 10.949219 9.390625 11.042969 9.300781 11.042969 9.183594 C 11.042969 9.070312 10.949219 8.976562 10.832031 8.976562 Z M 12.917969 8.976562 C 12.328125 8.976562 12.292969 8.453125 12.292969 8.347656 C 12.292969 8.234375 12.199219 8.140625 12.082031 8.140625 C 11.96875 8.140625 11.875 8.234375 11.875 8.351562 C 11.875 8.710938 12.09375 9.390625 12.917969 9.390625 C 13.03125 9.390625 13.125 9.300781 13.125 9.183594 C 13.125 9.070312 13.03125 8.976562 12.917969 8.976562 Z M 12.917969 8.976562 "/>
<path style=" stroke:none;fill-rule:nonzero;fill:rgb(75.686275%,41.176471%,30.980392%);fill-opacity:1;" d="M 10.835938 10.640625 C 10.949219 10.640625 11.042969 10.546875 11.042969 10.433594 C 11.042969 10.320312 10.949219 10.226562 10.832031 10.226562 C 10.582031 10.226562 10.207031 10.390625 10.207031 10.851562 C 10.207031 11.035156 10.269531 11.167969 10.355469 11.265625 C 10.269531 11.367188 10.207031 11.5 10.207031 11.683594 C 10.207031 12.144531 10.582031 12.308594 10.832031 12.308594 C 10.945312 12.308594 11.039062 12.21875 11.039062 12.101562 C 11.042969 11.988281 10.949219 11.894531 10.835938 11.890625 C 10.738281 11.890625 10.625 11.851562 10.625 11.683594 C 10.625 11.515625 10.738281 11.476562 10.832031 11.476562 L 10.839844 11.476562 C 10.953125 11.472656 11.042969 11.378906 11.042969 11.265625 C 11.042969 11.152344 10.949219 11.058594 10.835938 11.058594 C 10.738281 11.058594 10.625 11.019531 10.625 10.851562 C 10.625 10.683594 10.738281 10.644531 10.835938 10.640625 Z M 10.835938 10.640625 "/>
<path style=" stroke:none;fill-rule:nonzero;fill:rgb(100%,67.45098%,20%);fill-opacity:1;" d="M 9.410156 3.714844 C 7.519531 4.070312 7.105469 6.472656 7.105469 7.769531 C 7.105469 8.839844 8.136719 9.910156 8.136719 9.910156 C 7.597656 6.933594 10.023438 6.179688 10.023438 6.179688 C 11.058594 8.175781 13.476562 7.382812 14.597656 9.148438 C 14.628906 8.742188 14.429688 8.125 13.941406 7.726562 C 14.289062 7.730469 14.660156 7.933594 15 8.269531 L 15 2.71875 C 12.976562 2.105469 10.410156 2.601562 9.410156 3.714844 Z M 9.410156 3.714844 "/>
<path style=" stroke:none;fill-rule:nonzero;fill:rgb(100%,86.27451%,36.470588%);fill-opacity:1;" d="M 2.082031 3.464844 C 1.339844 3.464844 0.636719 3.632812 0 3.925781 L 0 12.742188 C 0.636719 13.15625 1.390625 13.417969 2.214844 13.457031 C 2.222656 13.460938 2.230469 13.460938 2.234375 13.460938 C 4.417969 13.558594 6.320312 12.082031 6.820312 10.054688 C 6.988281 9.554688 7.082031 9.019531 7.082031 8.464844 C 7.082031 5.703125 4.84375 3.464844 2.082031 3.464844 Z M 2.082031 3.464844 "/>
<path style=" stroke:none;fill-rule:nonzero;fill:rgb(40%,12.941176%,7.45098%);fill-opacity:1;" d="M 4.167969 9.390625 C 4.992188 9.390625 5.207031 8.710938 5.207031 8.351562 C 5.207031 8.234375 5.113281 8.140625 5 8.140625 C 4.886719 8.140625 4.792969 8.234375 4.792969 8.347656 C 4.789062 8.453125 4.753906 8.976562 4.167969 8.976562 C 4.050781 8.976562 3.957031 9.070312 3.957031 9.183594 C 3.957031 9.300781 4.050781 9.390625 4.167969 9.390625 Z M 3.125 8.351562 C 3.125 8.234375 3.03125 8.140625 2.917969 8.140625 C 2.800781 8.140625 2.707031 8.234375 2.707031 8.347656 C 2.707031 8.453125 2.671875 8.976562 2.082031 8.976562 C 1.96875 8.976562 1.875 9.070312 1.875 9.183594 C 1.875 9.300781 1.96875 9.390625 2.082031 9.390625 C 2.90625 9.390625 3.125 8.710938 3.125 8.351562 Z M 3.125 8.351562 "/>
<path style=" stroke:none;fill-rule:nonzero;fill:rgb(75.686275%,41.176471%,30.980392%);fill-opacity:1;" d="M 4.164062 11.058594 C 4.050781 11.058594 3.957031 11.152344 3.957031 11.265625 C 3.957031 11.378906 4.050781 11.472656 4.160156 11.476562 L 4.167969 11.476562 C 4.261719 11.476562 4.375 11.515625 4.375 11.683594 C 4.375 11.851562 4.261719 11.890625 4.164062 11.890625 C 4.050781 11.894531 3.957031 11.988281 3.960938 12.101562 C 3.960938 12.21875 4.054688 12.308594 4.167969 12.308594 C 4.417969 12.308594 4.792969 12.144531 4.792969 11.683594 C 4.792969 11.5 4.730469 11.367188 4.644531 11.265625 C 4.730469 11.167969 4.792969 11.035156 4.792969 10.851562 C 4.792969 10.390625 4.417969 10.226562 4.167969 10.226562 C 4.050781 10.226562 3.957031 10.320312 3.957031 10.433594 C 3.957031 10.546875 4.050781 10.640625 4.164062 10.640625 C 4.261719 10.644531 4.375 10.683594 4.375 10.851562 C 4.375 11.019531 4.261719 11.058594 4.164062 11.058594 Z M 4.164062 11.058594 "/>
<path style=" stroke:none;fill-rule:nonzero;fill:rgb(100%,67.45098%,20%);fill-opacity:1;" d="M 1.058594 7.726562 C 0.570312 8.125 0.371094 8.742188 0.402344 9.148438 C 1.523438 7.382812 3.941406 8.175781 4.976562 6.179688 C 4.976562 6.179688 7.402344 6.933594 6.863281 9.910156 C 6.863281 9.910156 7.894531 8.839844 7.894531 7.769531 C 7.894531 6.472656 7.480469 4.070312 5.589844 3.714844 C 4.589844 2.601562 2.023438 2.105469 0 2.71875 L 0 8.269531 C 0.34375 7.933594 0.710938 7.730469 1.058594 7.726562 Z M 1.058594 7.726562 "/>
<path style=" stroke:none;fill-rule:nonzero;fill:rgb(86.666667%,18.039216%,26.666667%);fill-opacity:1;" d="M 11.058594 2.796875 C 11.058594 1.710938 10.179688 0.832031 9.09375 0.832031 C 8.4375 0.832031 7.855469 1.160156 7.5 1.65625 C 7.144531 1.160156 6.5625 0.832031 5.90625 0.832031 C 4.820312 0.832031 3.941406 1.710938 3.941406 2.796875 C 3.941406 2.949219 3.960938 3.097656 3.996094 3.242188 C 4.265625 4.9375 6.152344 6.722656 7.5 7.210938 C 8.847656 6.722656 10.730469 4.933594 11.003906 3.242188 C 11.039062 3.097656 11.058594 2.949219 11.058594 2.796875 Z M 11.058594 2.796875 "/>
</g>
</svg>
