<?xml version="1.0" encoding="UTF-8"?>
<svg xmlns="http://www.w3.org/2000/svg" xmlns:xlink="http://www.w3.org/1999/xlink" width="15pt" height="15pt" viewBox="0 0 15 15" version="1.1">
<g id="surface1">
<path style=" stroke:none;fill-rule:nonzero;fill:rgb(60.392157%,66.666667%,70.588235%);fill-opacity:1;" d="M 11.675781 7.875 L 5.492188 1.6875 C 5.492188 1.6875 5.195312 2.570312 5.785156 3.160156 L 11.089844 8.464844 Z M 11.675781 7.875 "/>
<path style=" stroke:none;fill-rule:nonzero;fill:rgb(40.392157%,45.882353%,49.803922%);fill-opacity:1;" d="M 13.445312 9.054688 C 13.933594 8.566406 13.667969 7.507812 12.855469 6.695312 C 12.042969 5.882812 10.988281 5.617188 10.5 6.105469 C 10.011719 6.59375 10.273438 7.648438 11.089844 8.464844 C 11.902344 9.277344 12.957031 9.542969 13.445312 9.054688 Z M 11.089844 6.695312 C 11.25 6.53125 11.777344 6.796875 12.265625 7.285156 C 12.753906 7.773438 13.019531 8.300781 12.855469 8.464844 C 12.691406 8.625 12.164062 8.363281 11.675781 7.875 C 11.191406 7.386719 10.925781 6.859375 11.089844 6.695312 Z M 11.089844 6.695312 "/>
<path style=" stroke:none;fill-rule:nonzero;fill:rgb(4.313725%,0.784314%,0%);fill-opacity:1;" d="M 11.042969 3.449219 C 11.042969 3.449219 9.199219 3.25 7.242188 2.09375 C 6.496094 0.921875 5.183594 0.140625 3.691406 0.140625 C 3.058594 0.140625 2.464844 0.285156 1.925781 0.535156 C 1.976562 0.53125 2.105469 0.527344 2.171875 0.527344 C 1.34375 0.53125 0.585938 0.835938 0 1.335938 L 0 6.488281 C 0.320312 6.761719 0.683594 6.984375 1.089844 7.125 C 1.859375 8.007812 2.425781 8.566406 3.691406 8.566406 C 5.972656 8.566406 7.824219 6.753906 7.898438 4.492188 C 8.761719 4.433594 10.03125 4.210938 11.042969 3.449219 Z M 11.042969 3.449219 "/>
<path style=" stroke:none;fill-rule:nonzero;fill:rgb(25.882353%,53.72549%,75.686275%);fill-opacity:1;" d="M 7.082031 11.25 L 0 11.25 L 0 15 L 8.75 15 L 8.75 12.917969 C 8.75 11.996094 8.003906 11.25 7.082031 11.25 Z M 7.082031 11.25 "/>
<path style=" stroke:none;fill-rule:nonzero;fill:rgb(16.470588%,40.392157%,59.215686%);fill-opacity:1;" d="M 6.667969 13.332031 L 7.082031 13.332031 L 7.082031 15 L 6.667969 15 Z M 6.667969 13.332031 "/>
<path style=" stroke:none;fill-rule:nonzero;fill:rgb(48.627451%,32.54902%,24.313725%);fill-opacity:1;" d="M 7.804688 5.714844 C 7.804688 5.070312 7.484375 4.546875 7.082031 4.527344 L 7.082031 4.523438 C 4.214844 4.515625 2.542969 3.261719 1.6875 2.300781 C 1.457031 3.023438 0.957031 4.113281 0 4.410156 L 0 8.796875 C 0.433594 9.640625 1.179688 10.289062 2.082031 10.609375 L 2.082031 11.667969 C 2.082031 12.355469 2.644531 12.917969 3.332031 12.917969 C 4.023438 12.917969 4.582031 12.355469 4.582031 11.667969 L 4.582031 10.617188 C 6.039062 10.101562 7.082031 8.714844 7.082031 7.082031 L 7.082031 6.902344 C 7.484375 6.882812 7.804688 6.359375 7.804688 5.714844 Z M 7.804688 5.714844 "/>
<path style=" stroke:none;fill-rule:nonzero;fill:rgb(23.921569%,18.039216%,14.117647%);fill-opacity:1;" d="M 1.667969 9.167969 L 5 9.167969 C 5 9.167969 4.582031 10 3.332031 10 C 2.082031 10 1.667969 9.167969 1.667969 9.167969 Z M 3.75 8.125 L 2.917969 8.125 C 2.800781 8.125 2.707031 8.03125 2.707031 7.917969 C 2.707031 7.800781 2.800781 7.707031 2.917969 7.707031 L 3.75 7.707031 C 3.863281 7.707031 3.957031 7.800781 3.957031 7.917969 C 3.957031 8.03125 3.863281 8.125 3.75 8.125 Z M 3.75 8.125 "/>
<path style=" stroke:none;fill-rule:nonzero;fill:rgb(0%,0%,0%);fill-opacity:1;" d="M 1.667969 6.667969 C 1.4375 6.667969 1.25 6.480469 1.25 6.25 L 1.25 5.832031 C 1.25 5.601562 1.4375 5.417969 1.667969 5.417969 C 1.898438 5.417969 2.082031 5.601562 2.082031 5.832031 L 2.082031 6.25 C 2.082031 6.480469 1.898438 6.667969 1.667969 6.667969 Z M 5 6.667969 C 4.769531 6.667969 4.582031 6.480469 4.582031 6.25 L 4.582031 5.832031 C 4.582031 5.601562 4.769531 5.417969 5 5.417969 C 5.230469 5.417969 5.417969 5.601562 5.417969 5.832031 L 5.417969 6.25 C 5.417969 6.480469 5.230469 6.667969 5 6.667969 Z M 5 6.667969 "/>
<path style=" stroke:none;fill-rule:nonzero;fill:rgb(60.392157%,66.666667%,70.588235%);fill-opacity:1;" d="M 9.226562 9.058594 L 9.226562 0.308594 C 9.226562 0.308594 10.058594 0.726562 10.058594 1.558594 L 10.058594 9.058594 Z M 9.226562 9.058594 "/>
<path style=" stroke:none;fill-rule:nonzero;fill:rgb(40.392157%,45.882353%,49.803922%);fill-opacity:1;" d="M 10.03125 6.402344 C 10.03125 6.632812 9.84375 6.816406 9.613281 6.816406 C 9.386719 6.816406 9.199219 6.632812 9.199219 6.402344 C 9.199219 6.171875 9.386719 5.984375 9.613281 5.984375 C 9.84375 5.984375 10.03125 6.171875 10.03125 6.402344 Z M 10.03125 6.402344 "/>
<path style=" stroke:none;fill-rule:nonzero;fill:rgb(40.392157%,45.882353%,49.803922%);fill-opacity:1;" d="M 10.058594 9.058594 C 10.058594 7.90625 9.5 6.976562 8.808594 6.976562 C 8.121094 6.976562 7.558594 7.90625 7.558594 9.058594 C 7.558594 10.207031 8.117188 11.140625 8.808594 11.140625 C 9.5 11.140625 10.058594 10.210938 10.058594 9.058594 Z M 9.226562 9.058594 C 9.226562 9.75 9.039062 10.308594 8.808594 10.308594 C 8.578125 10.308594 8.394531 9.75 8.394531 9.058594 C 8.390625 8.367188 8.578125 7.808594 8.808594 7.808594 C 9.039062 7.808594 9.226562 8.367188 9.226562 9.058594 Z M 9.226562 9.058594 "/>
</g>
</svg>
