<?xml version="1.0" encoding="UTF-8"?>
<svg xmlns="http://www.w3.org/2000/svg" xmlns:xlink="http://www.w3.org/1999/xlink" width="15pt" height="15pt" viewBox="0 0 15 15" version="1.1">
<g id="surface1">
<path style=" stroke:none;fill-rule:nonzero;fill:rgb(86.666667%,18.039216%,26.666667%);fill-opacity:1;" d="M 11.667969 15 L 11.667969 13.957031 C 11.667969 12.578125 10.964844 11.667969 9.582031 11.667969 L 5.417969 11.667969 C 4.035156 11.667969 3.332031 12.578125 3.332031 13.957031 L 3.332031 15 Z M 11.667969 15 "/>
<path style=" stroke:none;fill-rule:nonzero;fill:rgb(16.078431%,18.431373%,20%);fill-opacity:1;" d="M 11.25 2.5 C 11.25 1.125 10.125 0 8.75 0 L 6.25 0 C 4.875 0 3.75 1.125 3.75 2.5 L 3.75 7.5 C 3.75 9.570312 5.429688 9.582031 7.5 9.582031 C 9.570312 9.582031 11.25 9.570312 11.25 7.5 Z M 11.25 2.5 "/>
<path style=" stroke:none;fill-rule:nonzero;fill:rgb(100%,89.803922%,11.764706%);fill-opacity:1;" d="M 7.5 7.5 L 4.03125 7.5 C 4.03125 7.5 4.027344 8.222656 4.035156 8.683594 C 4.0625 9.734375 4.179688 10.976562 4.679688 10.976562 C 5.34375 10.976562 6.183594 10.328125 7.476562 10.328125 C 8.765625 10.328125 9.628906 10.976562 10.273438 10.976562 C 10.8125 10.976562 10.902344 10.519531 10.917969 8.746094 C 10.921875 8.394531 10.921875 7.5 10.921875 7.5 Z M 7.5 7.5 "/>
<path style=" stroke:none;fill-rule:nonzero;fill:rgb(95.294118%,82.352941%,63.529412%);fill-opacity:1;" d="M 10.390625 7.867188 C 10.390625 7.742188 10.386719 7.621094 10.378906 7.5 L 4.578125 7.5 C 4.566406 7.621094 4.5625 7.742188 4.5625 7.867188 C 4.5625 9.34375 5.226562 10.570312 6.191406 11.152344 L 6.191406 11.878906 C 6.714844 12.257812 7.042969 12.359375 7.496094 12.359375 C 7.945312 12.359375 8.277344 12.257812 8.796875 11.878906 L 8.796875 11.128906 C 9.742188 10.539062 10.390625 9.328125 10.390625 7.867188 Z M 10.390625 7.867188 "/>
<path style=" stroke:none;fill-rule:nonzero;fill:rgb(87.45098%,12.156863%,19.607843%);fill-opacity:1;" d="M 7.476562 10.644531 C 6.90625 10.644531 6.609375 10.363281 6.578125 10.332031 C 6.480469 10.238281 6.480469 10.082031 6.578125 9.988281 C 6.671875 9.894531 6.820312 9.894531 6.917969 9.984375 C 6.929688 9.996094 7.113281 10.160156 7.476562 10.160156 C 7.84375 10.160156 8.027344 9.992188 8.035156 9.984375 C 8.132812 9.894531 8.285156 9.898438 8.378906 9.992188 C 8.472656 10.089844 8.472656 10.238281 8.378906 10.332031 C 8.34375 10.363281 8.046875 10.644531 7.476562 10.644531 Z M 7.476562 10.644531 "/>
<path style=" stroke:none;fill-rule:nonzero;fill:rgb(40%,12.941176%,7.45098%);fill-opacity:1;" d="M 6.320312 8.636719 L 6.265625 8.636719 C 6.113281 8.636719 5.992188 8.515625 5.992188 8.367188 L 5.992188 8.007812 C 5.992188 7.859375 6.113281 7.738281 6.265625 7.738281 L 6.320312 7.738281 C 6.46875 7.738281 6.59375 7.859375 6.59375 8.007812 L 6.59375 8.367188 C 6.59375 8.515625 6.46875 8.636719 6.320312 8.636719 Z M 8.722656 8.636719 L 8.664062 8.636719 C 8.515625 8.636719 8.394531 8.515625 8.394531 8.367188 L 8.394531 8.007812 C 8.394531 7.859375 8.515625 7.738281 8.664062 7.738281 L 8.722656 7.738281 C 8.871094 7.738281 8.996094 7.859375 8.996094 8.007812 L 8.996094 8.367188 C 8.996094 8.515625 8.871094 8.636719 8.722656 8.636719 Z M 8.722656 8.636719 "/>
<path style=" stroke:none;fill-rule:nonzero;fill:rgb(75.686275%,41.176471%,30.980392%);fill-opacity:1;" d="M 7.78125 9.566406 L 7.203125 9.566406 C 7.113281 9.566406 7.042969 9.492188 7.042969 9.40625 L 7.042969 9.371094 C 7.042969 9.285156 7.113281 9.210938 7.203125 9.210938 L 7.78125 9.210938 C 7.871094 9.210938 7.941406 9.285156 7.941406 9.371094 L 7.941406 9.40625 C 7.941406 9.492188 7.871094 9.566406 7.78125 9.566406 Z M 7.78125 9.566406 "/>
<path style=" stroke:none;fill-rule:nonzero;fill:rgb(16.078431%,18.431373%,20%);fill-opacity:1;" d="M 5.65625 12.289062 L 3.71875 12.59375 C 3.605469 12.613281 3.5 12.535156 3.480469 12.421875 L 3.414062 12.011719 C 3.398438 11.898438 3.476562 11.789062 3.589844 11.773438 L 5.527344 11.464844 C 5.640625 11.445312 5.746094 11.523438 5.765625 11.636719 L 5.832031 12.050781 C 5.847656 12.164062 5.769531 12.269531 5.65625 12.289062 Z M 9.351562 12.289062 L 11.292969 12.59375 C 11.40625 12.613281 11.511719 12.535156 11.53125 12.421875 L 11.59375 12.011719 C 11.613281 11.898438 11.535156 11.789062 11.421875 11.773438 L 9.484375 11.464844 C 9.371094 11.445312 9.261719 11.523438 9.246094 11.636719 L 9.179688 12.050781 C 9.160156 12.164062 9.238281 12.269531 9.351562 12.289062 Z M 9.351562 12.289062 "/>
<path style=" stroke:none;fill-rule:nonzero;fill:rgb(60%,66.666667%,70.980392%);fill-opacity:1;" d="M 4.949219 7.5 C 4.949219 7.5 4.875 11.25 7.496094 11.25 C 10.113281 11.25 10.050781 7.5 10.050781 7.5 L 10.417969 7.5 C 10.417969 7.5 10.289062 11.667969 7.5 11.667969 C 4.710938 11.667969 4.582031 7.5 4.582031 7.5 Z M 4.949219 7.5 "/>
<path style=" stroke:none;fill-rule:nonzero;fill:rgb(96.078431%,97.254902%,98.039216%);fill-opacity:1;" d="M 7.292969 12.5 L 7.707031 12.5 L 7.707031 15 L 7.292969 15 Z M 7.292969 12.5 "/>
<path style=" stroke:none;fill-rule:nonzero;fill:rgb(16.078431%,18.431373%,20%);fill-opacity:1;" d="M 8.804688 11.238281 C 8.804688 11.847656 7.941406 12.082031 7.5 12.082031 C 7.082031 12.082031 6.195312 11.847656 6.195312 11.238281 C 6.195312 11.238281 5.957031 11.1875 5.957031 11.695312 C 5.957031 12.199219 6.667969 12.851562 7.5 12.851562 C 8.316406 12.851562 9.042969 12.199219 9.042969 11.695312 C 9.042969 11.1875 8.804688 11.238281 8.804688 11.238281 Z M 8.804688 11.238281 "/>
</g>
</svg>
