<?xml version="1.0" encoding="UTF-8"?>
<svg xmlns="http://www.w3.org/2000/svg" xmlns:xlink="http://www.w3.org/1999/xlink" width="15pt" height="15pt" viewBox="0 0 15 15" version="1.1">
<g id="surface1">
<path style=" stroke:none;fill-rule:nonzero;fill:rgb(100%,67.45098%,20%);fill-opacity:1;" d="M 8.300781 3.253906 C 5.574219 2.8125 3.007812 4.664062 2.566406 7.386719 C 2.121094 10.113281 3.972656 12.683594 6.699219 13.125 C 9.425781 13.566406 11.992188 11.714844 12.433594 8.992188 C 12.878906 6.265625 11.027344 3.695312 8.300781 3.253906 Z M 8.300781 3.253906 "/>
<path style=" stroke:none;fill-rule:nonzero;fill:rgb(100%,67.45098%,20%);fill-opacity:1;" d="M 8.332031 3.332031 C 8.332031 4.945312 7.027344 6.25 5.417969 6.25 C 3.804688 6.25 2.5 4.945312 2.5 3.332031 C 2.5 1.722656 3.804688 0.417969 5.417969 0.417969 C 7.027344 0.417969 8.332031 1.722656 8.332031 3.332031 Z M 8.332031 3.332031 "/>
<path style=" stroke:none;fill-rule:nonzero;fill:rgb(100%,67.45098%,20%);fill-opacity:1;" d="M 12.5 4.582031 C 12.5 7.113281 10.449219 9.167969 7.917969 9.167969 C 5.386719 9.167969 3.332031 7.113281 3.332031 4.582031 C 3.332031 2.050781 5.386719 0 7.917969 0 C 10.449219 0 12.5 2.050781 12.5 4.582031 Z M 12.5 4.582031 "/>
<path style=" stroke:none;fill-rule:nonzero;fill:rgb(100%,67.45098%,20%);fill-opacity:1;" d="M 12.5 8.332031 L 2.5 8.332031 L 2.5 3.332031 L 12.5 4.582031 Z M 12.5 8.332031 "/>
<path style=" stroke:none;fill-rule:nonzero;fill:rgb(57.254902%,40.784314%,79.215686%);fill-opacity:1;" d="M 11.25 11.25 L 3.75 11.25 C 2.828125 11.25 2.082031 11.996094 2.082031 12.917969 L 2.082031 15 L 12.917969 15 L 12.917969 12.917969 C 12.917969 11.996094 12.171875 11.25 11.25 11.25 Z M 11.25 11.25 "/>
<path style=" stroke:none;fill-rule:nonzero;fill:rgb(45.490196%,31.372549%,65.882353%);fill-opacity:1;" d="M 10.832031 13.332031 L 11.25 13.332031 L 11.25 15 L 10.832031 15 Z M 3.75 13.332031 L 4.167969 13.332031 L 4.167969 15 L 3.75 15 Z M 3.75 13.332031 "/>
<path style=" stroke:none;fill-rule:nonzero;fill:rgb(100%,86.27451%,36.470588%);fill-opacity:1;" d="M 6.25 9.167969 L 6.25 11.667969 C 6.25 12.355469 6.808594 12.917969 7.5 12.917969 C 8.191406 12.917969 8.75 12.355469 8.75 11.667969 L 8.75 9.167969 Z M 6.25 9.167969 "/>
<path style=" stroke:none;fill-rule:nonzero;fill:rgb(100%,86.27451%,36.470588%);fill-opacity:1;" d="M 5.832031 2.082031 C 5.832031 2.082031 5.832031 4.296875 3.75 4.558594 L 3.75 7.082031 C 3.75 9.15625 5.429688 10.832031 7.5 10.832031 C 9.570312 10.832031 11.25 9.15625 11.25 7.082031 L 11.25 4.992188 C 6.621094 4.835938 5.832031 2.082031 5.832031 2.082031 Z M 5.832031 2.082031 "/>
<path style=" stroke:none;fill-rule:nonzero;fill:rgb(87.45098%,12.156863%,19.607843%);fill-opacity:1;" d="M 8.332031 9.167969 C 8.332031 8.9375 7.960938 8.75 7.5 8.75 C 7.039062 8.75 6.667969 8.9375 6.667969 9.167969 C 6.667969 9.398438 7.039062 9.582031 7.5 9.582031 C 7.960938 9.582031 8.332031 9.398438 8.332031 9.167969 Z M 8.332031 9.167969 "/>
<path style=" stroke:none;fill-rule:nonzero;fill:rgb(75.686275%,41.176471%,30.980392%);fill-opacity:1;" d="M 7.917969 8.125 L 7.082031 8.125 C 6.96875 8.125 6.875 8.03125 6.875 7.917969 C 6.875 7.800781 6.96875 7.707031 7.082031 7.707031 L 7.917969 7.707031 C 8.03125 7.707031 8.125 7.800781 8.125 7.917969 C 8.125 8.03125 8.03125 8.125 7.917969 8.125 Z M 7.917969 8.125 "/>
<path style=" stroke:none;fill-rule:nonzero;fill:rgb(89.019608%,61.176471%,18.431373%);fill-opacity:1;" d="M 2.316406 2.097656 L 4.480469 0.503906 L 5.160156 0.425781 L 5.160156 1.609375 L 6.414062 1.898438 C 6.699219 1.964844 6.878906 2.25 6.8125 2.539062 C 6.746094 2.824219 6.460938 3.003906 6.171875 2.9375 L 4.46875 2.546875 L 3.617188 3.398438 C 3.476562 3.539062 3.238281 3.675781 2.984375 3.753906 L 2.664062 6.414062 C 2.664062 6.414062 2.664062 6.828125 2.246094 6.828125 C 1.832031 6.828125 1.832031 6.414062 1.832031 6.414062 L 1.832031 3.082031 Z M 2.316406 2.097656 "/>
<path style=" stroke:none;fill-rule:nonzero;fill:rgb(100%,86.27451%,36.470588%);fill-opacity:1;" d="M 2.152344 1.933594 L 3.082031 1.003906 L 3.332031 0 L 5 0 L 5 1.445312 L 6.25 1.734375 C 6.535156 1.800781 6.714844 2.085938 6.648438 2.375 C 6.585938 2.660156 6.296875 2.839844 6.011719 2.773438 L 4.308594 2.382812 L 3.453125 3.234375 C 3.3125 3.378906 3.074219 3.511719 2.824219 3.589844 L 2.5 6.25 C 2.5 6.25 2.5 6.667969 2.082031 6.667969 C 1.667969 6.667969 1.667969 6.25 1.667969 6.25 L 1.667969 2.917969 Z M 2.152344 1.933594 "/>
<path style=" stroke:none;fill-rule:nonzero;fill:rgb(89.019608%,61.176471%,18.431373%);fill-opacity:1;" d="M 12.683594 2.097656 L 10.246094 0.597656 L 9.839844 0.425781 L 9.839844 1.609375 L 8.585938 1.898438 C 8.300781 1.964844 8.121094 2.25 8.1875 2.539062 C 8.253906 2.824219 8.539062 3.003906 8.828125 2.9375 L 10.53125 2.546875 L 11.382812 3.398438 C 11.523438 3.539062 11.765625 3.671875 12.015625 3.753906 L 12.335938 6.414062 C 12.335938 6.414062 12.335938 6.828125 12.753906 6.828125 C 13.167969 6.828125 13.167969 6.414062 13.167969 6.414062 L 13.167969 3.082031 Z M 12.683594 2.097656 "/>
<path style=" stroke:none;fill-rule:nonzero;fill:rgb(100%,86.27451%,36.470588%);fill-opacity:1;" d="M 12.847656 1.933594 L 11.917969 1.003906 L 11.667969 0 L 10 0 L 10 1.445312 L 8.75 1.734375 C 8.464844 1.800781 8.285156 2.085938 8.351562 2.375 C 8.417969 2.660156 8.703125 2.839844 8.992188 2.773438 L 10.695312 2.382812 L 11.546875 3.234375 C 11.6875 3.375 11.925781 3.511719 12.179688 3.589844 L 12.5 6.25 C 12.5 6.25 12.5 6.664062 12.917969 6.664062 C 13.332031 6.667969 13.332031 6.25 13.332031 6.25 L 13.332031 2.917969 Z M 12.847656 1.933594 "/>
<path style=" stroke:none;fill-rule:nonzero;fill:rgb(40%,12.941176%,7.45098%);fill-opacity:1;" d="M 9.960938 6.273438 C 9.925781 6.242188 9.871094 6.242188 9.832031 6.269531 C 9.832031 6.273438 9.570312 6.457031 9.0625 6.457031 C 8.554688 6.457031 8.292969 6.273438 8.292969 6.269531 C 8.253906 6.242188 8.203125 6.242188 8.164062 6.273438 C 8.128906 6.300781 8.113281 6.351562 8.132812 6.394531 C 8.144531 6.425781 8.445312 7.082031 9.0625 7.082031 C 9.679688 7.082031 9.980469 6.425781 9.992188 6.398438 C 10.011719 6.351562 9.996094 6.304688 9.960938 6.273438 Z M 6.835938 6.273438 C 6.800781 6.242188 6.746094 6.242188 6.707031 6.269531 C 6.707031 6.273438 6.445312 6.457031 5.9375 6.457031 C 5.429688 6.457031 5.167969 6.273438 5.167969 6.269531 C 5.128906 6.242188 5.078125 6.242188 5.039062 6.273438 C 5.003906 6.300781 4.988281 6.351562 5.007812 6.394531 C 5.019531 6.425781 5.320312 7.082031 5.9375 7.082031 C 6.554688 7.082031 6.855469 6.425781 6.867188 6.398438 C 6.886719 6.351562 6.871094 6.304688 6.835938 6.273438 Z M 6.835938 6.273438 "/>
</g>
</svg>
