<?xml version="1.0" encoding="UTF-8"?>
<svg xmlns="http://www.w3.org/2000/svg" xmlns:xlink="http://www.w3.org/1999/xlink" width="15pt" height="15pt" viewBox="0 0 15 15" version="1.1">
<g id="surface1">
<path style=" stroke:none;fill-rule:nonzero;fill:rgb(80%,83.921569%,86.666667%);fill-opacity:1;" d="M 10 2.5 C 10 3.878906 8.878906 5 7.5 5 C 6.121094 5 5 3.878906 5 2.5 C 5 1.121094 6.121094 0 7.5 0 C 8.878906 0 10 1.121094 10 2.5 Z M 10 2.5 "/>
<path style=" stroke:none;fill-rule:nonzero;fill:rgb(100%,100%,100%);fill-opacity:1;" d="M 4.582031 5 L 10.417969 5 L 10.417969 13.75 L 4.582031 13.75 Z M 4.582031 5 "/>
<path style=" stroke:none;fill-rule:nonzero;fill:rgb(86.666667%,18.039216%,26.666667%);fill-opacity:1;" d="M 4.582031 11.871094 L 8.4375 13.75 L 10.417969 13.75 L 10.417969 12.859375 L 4.582031 10.015625 Z M 4.582031 11.871094 "/>
<path style=" stroke:none;fill-rule:nonzero;fill:rgb(33.333333%,67.45098%,93.333333%);fill-opacity:1;" d="M 4.582031 8.160156 L 10.417969 11.007812 L 10.417969 9.152344 L 4.582031 6.304688 Z M 4.582031 8.160156 "/>
<path style=" stroke:none;fill-rule:nonzero;fill:rgb(86.666667%,18.039216%,26.666667%);fill-opacity:1;" d="M 5.707031 5 L 10.417969 7.296875 L 10.417969 5 Z M 5.707031 5 "/>
<path style=" stroke:none;fill-rule:nonzero;fill:rgb(60%,66.666667%,70.980392%);fill-opacity:1;" d="M 11.25 4.582031 C 11.25 5.042969 10.875 5.417969 10.417969 5.417969 L 4.582031 5.417969 C 4.125 5.417969 3.75 5.042969 3.75 4.582031 C 3.75 4.125 4.125 3.75 4.582031 3.75 L 10.417969 3.75 C 10.875 3.75 11.25 4.125 11.25 4.582031 Z M 11.25 14.167969 C 11.25 14.625 10.875 15 10.417969 15 L 4.582031 15 C 4.125 15 3.75 14.625 3.75 14.167969 C 3.75 13.707031 4.125 13.332031 4.582031 13.332031 L 10.417969 13.332031 C 10.875 13.332031 11.25 13.707031 11.25 14.167969 Z M 11.25 14.167969 "/>
</g>
</svg>
