<?xml version="1.0" encoding="UTF-8"?>
<svg xmlns="http://www.w3.org/2000/svg" xmlns:xlink="http://www.w3.org/1999/xlink" width="15pt" height="15pt" viewBox="0 0 15 15" version="1.1">
<g id="surface1">
<path style=" stroke:none;fill-rule:nonzero;fill:rgb(37.647059%,20.784314%,16.470588%);fill-opacity:1;" d="M 5.832031 0 C 5.117188 0 4.441406 0.167969 3.835938 0.464844 C 3.671875 0.433594 3.503906 0.417969 3.332031 0.417969 C 1.722656 0.417969 0.417969 1.722656 0.417969 3.332031 L 0.417969 8.332031 L 0.425781 8.332031 C 0.5 11.027344 2.703125 13.191406 5.417969 13.191406 C 8.128906 13.191406 10.332031 11.027344 10.410156 8.332031 L 10.417969 8.332031 L 10.417969 4.582031 C 10.417969 2.050781 8.363281 0 5.832031 0 Z M 5.832031 0 "/>
<path style=" stroke:none;fill-rule:nonzero;fill:rgb(57.254902%,40.784314%,79.215686%);fill-opacity:1;" d="M 9.167969 11.25 L 1.667969 11.25 C 0.746094 11.25 0 11.996094 0 12.917969 L 0 15 L 10.832031 15 L 10.832031 12.917969 C 10.832031 11.996094 10.085938 11.25 9.167969 11.25 Z M 9.167969 11.25 "/>
<path style=" stroke:none;fill-rule:nonzero;fill:rgb(45.490196%,31.372549%,65.882353%);fill-opacity:1;" d="M 8.75 13.332031 L 9.167969 13.332031 L 9.167969 15 L 8.75 15 Z M 1.667969 13.332031 L 2.082031 13.332031 L 2.082031 15 L 1.667969 15 Z M 1.667969 13.332031 "/>
<path style=" stroke:none;fill-rule:nonzero;fill:rgb(68.627451%,49.411765%,34.117647%);fill-opacity:1;" d="M 4.167969 9.167969 L 4.167969 11.667969 C 4.167969 12.355469 4.726562 12.917969 5.417969 12.917969 C 6.105469 12.917969 6.667969 12.355469 6.667969 11.667969 L 6.667969 9.167969 Z M 4.167969 9.167969 "/>
<path style=" stroke:none;fill-rule:nonzero;fill:rgb(68.627451%,49.411765%,34.117647%);fill-opacity:1;" d="M 3.75 2.082031 C 3.75 2.082031 3.75 4.296875 1.667969 4.558594 L 1.667969 7.082031 C 1.667969 9.15625 3.34375 10.832031 5.417969 10.832031 C 7.488281 10.832031 9.167969 9.15625 9.167969 7.082031 L 9.167969 4.992188 C 4.539062 4.835938 3.75 2.082031 3.75 2.082031 Z M 3.75 2.082031 "/>
<path style=" stroke:none;fill-rule:nonzero;fill:rgb(87.45098%,12.156863%,19.607843%);fill-opacity:1;" d="M 7.082031 9.167969 L 3.75 9.167969 C 3.75 9.167969 4.167969 10 5.417969 10 C 6.667969 10 7.082031 9.167969 7.082031 9.167969 Z M 7.082031 9.167969 "/>
<path style=" stroke:none;fill-rule:nonzero;fill:rgb(57.254902%,40.784314%,79.215686%);fill-opacity:1;" d="M 12.082031 15 L 9.167969 15 L 9.582031 7.917969 L 12.082031 7.917969 Z M 12.082031 15 "/>
<path style=" stroke:none;fill-rule:nonzero;fill:rgb(60.784314%,41.568627%,28.627451%);fill-opacity:1;" d="M 13.140625 6.433594 C 13.082031 6.144531 12.800781 5.960938 12.511719 6.019531 L 11.394531 6.25 L 10.417969 6.25 C 9.957031 6.25 9.582031 6.625 9.582031 7.082031 L 9.582031 7.917969 L 11.667969 7.917969 C 12.117188 7.917969 12.480469 7.558594 12.496094 7.113281 L 12.644531 7.082031 L 12.917969 7.082031 C 12.917969 7.050781 12.90625 7.023438 12.898438 6.992188 C 13.082031 6.878906 13.1875 6.660156 13.140625 6.433594 Z M 13.140625 6.433594 "/>
<path style=" stroke:none;fill-rule:nonzero;fill:rgb(68.627451%,49.411765%,34.117647%);fill-opacity:1;" d="M 15 6.667969 C 15 6.4375 14.8125 6.25 14.582031 6.25 L 12.082031 6.667969 L 10 6.667969 C 9.769531 6.667969 9.582031 6.851562 9.582031 7.082031 L 9.582031 7.917969 L 12.082031 7.917969 L 14.582031 7.082031 C 14.582031 7.082031 15 6.898438 15 6.667969 Z M 15 6.667969 "/>
<path style=" stroke:none;fill-rule:nonzero;fill:rgb(56.862745%,35.294118%,20.392157%);fill-opacity:1;" d="M 5.832031 8.125 L 5 8.125 C 4.886719 8.125 4.792969 8.03125 4.792969 7.917969 C 4.792969 7.800781 4.886719 7.707031 5 7.707031 L 5.832031 7.707031 C 5.949219 7.707031 6.042969 7.800781 6.042969 7.917969 C 6.042969 8.03125 5.949219 8.125 5.832031 8.125 Z M 5.832031 8.125 "/>
<path style=" stroke:none;fill-rule:nonzero;fill:rgb(40%,12.941176%,7.45098%);fill-opacity:1;" d="M 3.75 6.667969 C 3.519531 6.667969 3.332031 6.480469 3.332031 6.25 L 3.332031 5.832031 C 3.332031 5.601562 3.519531 5.417969 3.75 5.417969 C 3.980469 5.417969 4.167969 5.601562 4.167969 5.832031 L 4.167969 6.25 C 4.167969 6.480469 3.980469 6.667969 3.75 6.667969 Z M 7.082031 6.667969 C 6.851562 6.667969 6.667969 6.480469 6.667969 6.25 L 6.667969 5.832031 C 6.667969 5.601562 6.851562 5.417969 7.082031 5.417969 C 7.3125 5.417969 7.5 5.601562 7.5 5.832031 L 7.5 6.25 C 7.5 6.480469 7.3125 6.667969 7.082031 6.667969 Z M 7.082031 6.667969 "/>
</g>
</svg>
