<?xml version="1.0" encoding="UTF-8"?>
<svg xmlns="http://www.w3.org/2000/svg" xmlns:xlink="http://www.w3.org/1999/xlink" width="15pt" height="15pt" viewBox="0 0 15 15" version="1.1">
<g id="surface1">
<path style=" stroke:none;fill-rule:nonzero;fill:rgb(98.039216%,45.490196%,24.313725%);fill-opacity:1;" d="M 11.25 11.25 L 3.75 11.25 C 2.828125 11.25 2.082031 11.996094 2.082031 12.917969 L 2.082031 15 L 12.917969 15 L 12.917969 12.917969 C 12.917969 11.996094 12.171875 11.25 11.25 11.25 Z M 11.25 11.25 "/>
<path style=" stroke:none;fill-rule:nonzero;fill:rgb(86.666667%,33.333333%,12.156863%);fill-opacity:1;" d="M 10.832031 13.332031 L 11.25 13.332031 L 11.25 15 L 10.832031 15 Z M 3.75 13.332031 L 4.167969 13.332031 L 4.167969 15 L 3.75 15 Z M 3.75 13.332031 "/>
<path style=" stroke:none;fill-rule:nonzero;fill:rgb(4.313725%,0.784314%,0%);fill-opacity:1;" d="M 9.128906 0.527344 C 8.285156 0.253906 6.304688 0.328125 5.8125 0.972656 C 4.523438 0.996094 3.015625 2.160156 2.816406 3.695312 C 2.621094 5.214844 3.058594 5.917969 3.210938 7.058594 C 3.386719 8.355469 4.117188 8.769531 4.695312 8.941406 C 5.535156 10.046875 6.421875 10 7.917969 10 C 10.832031 10 12.222656 8.046875 12.34375 4.734375 C 12.417969 2.730469 11.242188 1.210938 9.128906 0.527344 Z M 9.128906 0.527344 "/>
<path style=" stroke:none;fill-rule:nonzero;fill:rgb(48.627451%,32.54902%,24.313725%);fill-opacity:1;" d="M 6.25 9.167969 L 6.25 11.667969 C 6.25 12.355469 6.808594 12.917969 7.5 12.917969 C 8.191406 12.917969 8.75 12.355469 8.75 11.667969 L 8.75 9.167969 Z M 6.25 9.167969 "/>
<path style=" stroke:none;fill-rule:nonzero;fill:rgb(48.627451%,32.54902%,24.313725%);fill-opacity:1;" d="M 10.796875 4.875 C 10.511719 4.484375 10.152344 4.171875 9.359375 4.058594 C 9.65625 4.195312 9.941406 4.664062 9.976562 4.925781 C 10.015625 5.183594 10.050781 5.394531 9.816406 5.136719 C 8.875 4.09375 7.851562 4.503906 6.832031 3.867188 C 6.125 3.425781 5.90625 2.933594 5.90625 2.933594 C 5.90625 2.933594 5.820312 3.589844 4.742188 4.257812 C 4.433594 4.449219 4.058594 4.882812 3.851562 5.519531 C 3.703125 5.976562 3.75 6.386719 3.75 7.082031 C 3.75 9.121094 5.429688 10.832031 7.5 10.832031 C 9.570312 10.832031 11.25 9.105469 11.25 7.082031 C 11.25 5.816406 11.117188 5.320312 10.796875 4.875 Z M 10.796875 4.875 "/>
<path style=" stroke:none;fill-rule:nonzero;fill:rgb(23.921569%,18.039216%,14.117647%);fill-opacity:1;" d="M 8.332031 9.167969 C 8.332031 8.9375 7.960938 8.75 7.5 8.75 C 7.039062 8.75 6.667969 8.9375 6.667969 9.167969 C 6.667969 9.398438 7.039062 9.582031 7.5 9.582031 C 7.960938 9.582031 8.332031 9.398438 8.332031 9.167969 Z M 8.332031 9.167969 "/>
<path style=" stroke:none;fill-rule:nonzero;fill:rgb(23.921569%,18.039216%,14.117647%);fill-opacity:1;" d="M 7.917969 8.125 L 7.082031 8.125 C 6.96875 8.125 6.875 8.03125 6.875 7.917969 C 6.875 7.800781 6.96875 7.707031 7.082031 7.707031 L 7.917969 7.707031 C 8.03125 7.707031 8.125 7.800781 8.125 7.917969 C 8.125 8.03125 8.03125 8.125 7.917969 8.125 Z M 7.917969 8.125 "/>
<path style=" stroke:none;fill-rule:nonzero;fill:rgb(34.509804%,20.784314%,16.078431%);fill-opacity:1;" d="M 6.042969 1.554688 L 4.761719 1.480469 L 4.71875 1.242188 C 3.785156 1.671875 2.226562 1.824219 2.082031 2.933594 C 1.988281 3.664062 2.386719 5.023438 2.082031 5.574219 L 2.285156 6.777344 C 2.285156 6.777344 2.355469 7.1875 2.769531 7.117188 C 3.179688 7.046875 3.109375 6.636719 3.109375 6.636719 L 2.976562 3.960938 C 3.210938 3.839844 3.425781 3.667969 3.539062 3.503906 L 4.238281 2.519531 L 5.984375 2.621094 C 6.277344 2.636719 6.53125 2.410156 6.546875 2.117188 C 6.5625 1.824219 6.335938 1.570312 6.042969 1.554688 Z M 6.042969 1.554688 "/>
<path style=" stroke:none;fill-rule:nonzero;fill:rgb(48.627451%,32.54902%,24.313725%);fill-opacity:1;" d="M 1.851562 2.308594 L 2.609375 1.234375 L 2.6875 0 L 4.296875 0 L 4.574219 1.347656 L 5.855469 1.421875 C 6.148438 1.4375 6.375 1.691406 6.355469 1.984375 C 6.339844 2.277344 6.085938 2.503906 5.792969 2.488281 L 4.046875 2.386719 L 3.351562 3.371094 C 3.234375 3.535156 3.023438 3.707031 2.789062 3.828125 L 2.917969 6.503906 C 2.917969 6.503906 2.988281 6.914062 2.578125 6.984375 C 2.167969 7.054688 2.097656 6.644531 2.097656 6.644531 L 1.535156 3.359375 Z M 1.851562 2.308594 "/>
<path style=" stroke:none;fill-rule:nonzero;fill:rgb(34.509804%,20.784314%,16.078431%);fill-opacity:1;" d="M 10.316406 1.035156 L 10.238281 1.480469 L 8.957031 1.554688 C 8.664062 1.570312 8.4375 1.824219 8.453125 2.117188 C 8.472656 2.410156 8.722656 2.636719 9.015625 2.621094 L 10.761719 2.519531 L 11.460938 3.503906 C 11.574219 3.667969 11.789062 3.839844 12.023438 3.964844 L 11.890625 6.636719 C 11.890625 6.636719 11.820312 7.046875 12.230469 7.121094 C 12.640625 7.1875 12.714844 6.777344 12.714844 6.777344 L 13.203125 3.914062 C 12.707031 2.757812 11.566406 1.707031 10.316406 1.035156 Z M 10.316406 1.035156 "/>
<path style=" stroke:none;fill-rule:nonzero;fill:rgb(48.627451%,32.54902%,24.313725%);fill-opacity:1;" d="M 13.148438 2.308594 L 12.390625 1.234375 L 12.3125 0 L 10.703125 0 L 10.425781 1.347656 L 9.144531 1.421875 C 8.851562 1.4375 8.625 1.691406 8.644531 1.984375 C 8.660156 2.277344 8.914062 2.503906 9.207031 2.488281 L 10.953125 2.386719 L 11.648438 3.371094 C 11.765625 3.535156 11.976562 3.707031 12.210938 3.828125 L 12.082031 6.503906 C 12.082031 6.503906 12.011719 6.914062 12.421875 6.984375 C 12.832031 7.054688 12.902344 6.644531 12.902344 6.644531 L 13.464844 3.359375 Z M 13.148438 2.308594 "/>
<path style=" stroke:none;fill-rule:nonzero;fill:rgb(0%,0%,0%);fill-opacity:1;" d="M 9.960938 6.273438 C 9.925781 6.242188 9.871094 6.242188 9.832031 6.269531 C 9.832031 6.273438 9.570312 6.457031 9.0625 6.457031 C 8.554688 6.457031 8.292969 6.273438 8.292969 6.269531 C 8.253906 6.242188 8.203125 6.242188 8.164062 6.273438 C 8.128906 6.300781 8.113281 6.351562 8.132812 6.394531 C 8.144531 6.425781 8.445312 7.082031 9.0625 7.082031 C 9.679688 7.082031 9.980469 6.425781 9.992188 6.398438 C 10.011719 6.351562 9.996094 6.304688 9.960938 6.273438 Z M 6.835938 6.273438 C 6.800781 6.242188 6.746094 6.242188 6.707031 6.269531 C 6.707031 6.273438 6.445312 6.457031 5.9375 6.457031 C 5.429688 6.457031 5.167969 6.273438 5.167969 6.269531 C 5.128906 6.242188 5.078125 6.242188 5.039062 6.273438 C 5.003906 6.300781 4.988281 6.351562 5.007812 6.394531 C 5.019531 6.425781 5.320312 7.082031 5.9375 7.082031 C 6.554688 7.082031 6.855469 6.425781 6.867188 6.398438 C 6.886719 6.351562 6.871094 6.304688 6.835938 6.273438 Z M 6.835938 6.273438 "/>
</g>
</svg>
