<?xml version="1.0" encoding="UTF-8"?>
<svg xmlns="http://www.w3.org/2000/svg" xmlns:xlink="http://www.w3.org/1999/xlink" width="15pt" height="15pt" viewBox="0 0 15 15" version="1.1">
<g id="surface1">
<path style=" stroke:none;fill-rule:nonzero;fill:rgb(60.392157%,66.666667%,70.588235%);fill-opacity:1;" d="M 12.570312 3.394531 L 6.382812 9.582031 C 6.382812 9.582031 6.089844 8.699219 6.679688 8.109375 L 11.980469 2.808594 Z M 12.570312 3.394531 "/>
<path style=" stroke:none;fill-rule:nonzero;fill:rgb(40.392157%,45.882353%,49.803922%);fill-opacity:1;" d="M 11.980469 2.808594 C 11.167969 3.621094 10.902344 4.675781 11.390625 5.164062 C 11.878906 5.652344 12.9375 5.386719 13.75 4.574219 C 14.5625 3.761719 14.828125 2.707031 14.339844 2.21875 C 13.851562 1.730469 12.796875 1.992188 11.980469 2.808594 Z M 12.570312 3.394531 C 13.058594 2.90625 13.585938 2.644531 13.75 2.808594 C 13.914062 2.96875 13.648438 3.496094 13.160156 3.984375 C 12.671875 4.472656 12.144531 4.738281 11.980469 4.574219 C 11.816406 4.410156 12.082031 3.882812 12.570312 3.394531 Z M 12.570312 3.394531 "/>
<path style=" stroke:none;fill-rule:nonzero;fill:rgb(100%,89.803922%,11.764706%);fill-opacity:1;" d="M 8.332031 4.582031 C 8.332031 2.050781 6.28125 0 3.75 0 C 3.03125 0 2.355469 0.167969 1.753906 0.464844 C 1.589844 0.433594 1.421875 0.417969 1.25 0.417969 C 0.800781 0.417969 0.378906 0.519531 0 0.703125 L 0 11.90625 C 0.882812 12.703125 2.050781 13.191406 3.332031 13.191406 C 4.734375 13.191406 5.992188 12.613281 6.898438 11.683594 C 9.34375 11.878906 12.082031 15 12.082031 15 L 15 11.25 C 8.75 8.75 8.332031 4.582031 8.332031 4.582031 Z M 8.332031 4.582031 "/>
<path style=" stroke:none;fill-rule:nonzero;fill:rgb(57.254902%,40.784314%,79.215686%);fill-opacity:1;" d="M 8.585938 12.210938 C 8.320312 11.644531 7.75 11.25 7.082031 11.25 L 0 11.25 L 0 15 L 8.75 15 L 8.75 12.917969 C 8.75 12.664062 8.6875 12.425781 8.585938 12.210938 Z M 8.585938 12.210938 "/>
<path style=" stroke:none;fill-rule:nonzero;fill:rgb(45.490196%,31.372549%,65.882353%);fill-opacity:1;" d="M 6.667969 13.332031 L 7.082031 13.332031 L 7.082031 15 L 6.667969 15 Z M 6.667969 13.332031 "/>
<path style=" stroke:none;fill-rule:nonzero;fill:rgb(95.294118%,82.352941%,63.529412%);fill-opacity:1;" d="M 1.667969 2.082031 C 1.667969 2.082031 1.664062 3.984375 0 4.46875 L 0 8.800781 C 0.433594 9.640625 1.179688 10.296875 2.082031 10.617188 L 2.082031 11.667969 C 2.082031 12.355469 2.644531 12.917969 3.332031 12.917969 C 4.023438 12.917969 4.582031 12.355469 4.582031 11.667969 L 4.582031 10.617188 C 6.039062 10.101562 7.082031 8.714844 7.082031 7.082031 L 7.082031 4.992188 C 2.453125 4.835938 1.667969 2.082031 1.667969 2.082031 Z M 1.667969 2.082031 "/>
<path style=" stroke:none;fill-rule:nonzero;fill:rgb(87.45098%,12.156863%,19.607843%);fill-opacity:1;" d="M 5 8.75 L 1.667969 8.75 C 1.667969 8.75 2.082031 9.582031 3.332031 9.582031 C 4.582031 9.582031 5 8.75 5 8.75 Z M 5 8.75 "/>
<path style=" stroke:none;fill-rule:nonzero;fill:rgb(75.686275%,41.176471%,30.980392%);fill-opacity:1;" d="M 3.75 8.125 L 2.917969 8.125 C 2.800781 8.125 2.707031 8.03125 2.707031 7.917969 C 2.707031 7.800781 2.800781 7.707031 2.917969 7.707031 L 3.75 7.707031 C 3.863281 7.707031 3.957031 7.800781 3.957031 7.917969 C 3.957031 8.03125 3.863281 8.125 3.75 8.125 Z M 3.75 8.125 "/>
<path style=" stroke:none;fill-rule:nonzero;fill:rgb(40%,12.941176%,7.45098%);fill-opacity:1;" d="M 1.667969 6.667969 C 1.4375 6.667969 1.25 6.480469 1.25 6.25 L 1.25 5.832031 C 1.25 5.601562 1.4375 5.417969 1.667969 5.417969 C 1.898438 5.417969 2.082031 5.601562 2.082031 5.832031 L 2.082031 6.25 C 2.082031 6.480469 1.898438 6.667969 1.667969 6.667969 Z M 5 6.667969 C 4.769531 6.667969 4.582031 6.480469 4.582031 6.25 L 4.582031 5.832031 C 4.582031 5.601562 4.769531 5.417969 5 5.417969 C 5.230469 5.417969 5.417969 5.601562 5.417969 5.832031 L 5.417969 6.25 C 5.417969 6.480469 5.230469 6.667969 5 6.667969 Z M 5 6.667969 "/>
<path style=" stroke:none;fill-rule:nonzero;fill:rgb(60.392157%,66.666667%,70.588235%);fill-opacity:1;" d="M 10 2.5 L 10 11.25 C 10 11.25 10.832031 10.832031 10.832031 10 L 10.832031 2.5 Z M 10 2.5 "/>
<path style=" stroke:none;fill-rule:nonzero;fill:rgb(40.392157%,45.882353%,49.803922%);fill-opacity:1;" d="M 10.832031 5 C 10.832031 5.230469 10.648438 5.417969 10.417969 5.417969 C 10.1875 5.417969 10 5.230469 10 5 C 10 4.769531 10.1875 4.582031 10.417969 4.582031 C 10.648438 4.582031 10.832031 4.769531 10.832031 5 Z M 10.832031 5 "/>
<path style=" stroke:none;fill-rule:nonzero;fill:rgb(40.392157%,45.882353%,49.803922%);fill-opacity:1;" d="M 9.582031 0.417969 C 8.894531 0.417969 8.332031 1.347656 8.332031 2.5 C 8.332031 3.652344 8.894531 4.582031 9.582031 4.582031 C 10.273438 4.582031 10.832031 3.652344 10.832031 2.5 C 10.832031 1.347656 10.273438 0.417969 9.582031 0.417969 Z M 9.582031 3.75 C 9.351562 3.75 9.167969 3.191406 9.167969 2.5 C 9.167969 1.808594 9.351562 1.25 9.582031 1.25 C 9.8125 1.25 10 1.808594 10 2.5 C 10 3.191406 9.8125 3.75 9.582031 3.75 Z M 9.582031 3.75 "/>
</g>
</svg>
