<?xml version="1.0" encoding="UTF-8"?>
<svg xmlns="http://www.w3.org/2000/svg" xmlns:xlink="http://www.w3.org/1999/xlink" width="15pt" height="15pt" viewBox="0 0 15 15" version="1.1">
<g id="surface1">
<path style=" stroke:none;fill-rule:nonzero;fill:rgb(40%,45.882353%,49.803922%);fill-opacity:1;" d="M 10.445312 4.554688 C 10.339844 4.554688 10.234375 4.511719 10.152344 4.433594 C 9.988281 4.269531 9.988281 4.003906 10.152344 3.84375 L 13.390625 0.601562 C 13.554688 0.4375 13.820312 0.4375 13.980469 0.601562 C 14.144531 0.765625 14.144531 1.027344 13.980469 1.191406 L 10.742188 4.433594 C 10.660156 4.511719 10.554688 4.554688 10.445312 4.554688 Z M 10.445312 4.554688 "/>
<path style=" stroke:none;fill-rule:nonzero;fill:rgb(80%,83.921569%,86.666667%);fill-opacity:1;" d="M 2.785156 13.566406 C 2.460938 13.890625 1.933594 13.890625 1.609375 13.566406 L 1.019531 12.976562 C 0.691406 12.652344 0.691406 12.121094 1.019531 11.796875 L 3.082031 9.734375 C 3.40625 9.410156 3.933594 9.410156 4.257812 9.734375 L 4.847656 10.324219 C 5.175781 10.648438 5.175781 11.175781 4.847656 11.503906 Z M 2.785156 13.566406 "/>
<path style=" stroke:none;fill-rule:nonzero;fill:rgb(60%,66.666667%,70.980392%);fill-opacity:1;" d="M 11.183594 5.167969 C 10.9375 5.414062 10.542969 5.410156 10.300781 5.167969 L 9.414062 4.285156 C 9.171875 4.039062 9.171875 3.644531 9.414062 3.402344 C 9.660156 3.15625 10.054688 3.15625 10.300781 3.402344 L 11.183594 4.285156 C 11.425781 4.527344 11.425781 4.925781 11.183594 5.167969 Z M 11.183594 5.167969 "/>
<path style=" stroke:none;fill-rule:nonzero;fill:rgb(88.235294%,90.980392%,92.941176%);fill-opacity:1;" d="M 6.027344 11.503906 C 5.703125 11.828125 5.171875 11.828125 4.847656 11.503906 L 3.082031 9.734375 C 2.753906 9.410156 2.753906 8.882812 3.082031 8.554688 L 8.089844 3.546875 C 8.414062 3.222656 8.941406 3.222656 9.265625 3.546875 L 11.035156 5.316406 C 11.359375 5.640625 11.359375 6.167969 11.035156 6.496094 Z M 6.027344 11.503906 "/>
<path style=" stroke:none;fill-rule:nonzero;fill:rgb(86.666667%,18.039216%,26.666667%);fill-opacity:1;" d="M 7.792969 9.734375 C 7.46875 10.058594 7.234375 9.765625 6.910156 9.441406 L 5.144531 7.671875 C 4.816406 7.347656 4.523438 7.113281 4.847656 6.789062 L 8.089844 3.546875 C 8.414062 3.222656 8.941406 3.222656 9.265625 3.546875 L 11.035156 5.316406 C 11.359375 5.640625 11.359375 6.167969 11.035156 6.496094 Z M 7.792969 9.734375 "/>
<path style=" stroke:none;fill-rule:nonzero;fill:rgb(60%,66.666667%,70.980392%);fill-opacity:1;" d="M 6.175781 12.535156 C 5.929688 12.777344 5.535156 12.777344 5.289062 12.535156 L 2.050781 9.292969 C 1.804688 9.050781 1.804688 8.652344 2.050781 8.410156 C 2.292969 8.164062 2.691406 8.164062 2.933594 8.410156 L 6.175781 11.648438 C 6.417969 11.894531 6.417969 12.289062 6.175781 12.535156 Z M 3.226562 14.300781 C 2.984375 14.546875 2.589844 14.546875 2.34375 14.300781 L 0.28125 12.238281 C 0.0351562 11.996094 0.0390625 11.597656 0.28125 11.355469 C 0.523438 11.109375 0.921875 11.109375 1.164062 11.355469 L 3.226562 13.417969 C 3.472656 13.660156 3.472656 14.058594 3.226562 14.300781 Z M 3.226562 14.300781 "/>
<path style=" stroke:none;fill-rule:nonzero;fill:rgb(86.666667%,18.039216%,26.666667%);fill-opacity:1;" d="M 14.117188 6.875 C 13.960938 6.632812 13.75 6.300781 13.476562 5.761719 C 13.421875 5.652344 13.242188 5.652344 13.1875 5.761719 C 12.917969 6.300781 12.703125 6.632812 12.550781 6.875 C 12.332031 7.214844 12.199219 7.421875 12.199219 7.777344 C 12.199219 8.402344 12.707031 8.910156 13.332031 8.910156 C 13.960938 8.910156 14.46875 8.402344 14.46875 7.777344 C 14.46875 7.421875 14.335938 7.214844 14.117188 6.875 Z M 12.453125 10.625 C 12.296875 10.382812 12.082031 10.050781 11.8125 9.511719 C 11.757812 9.402344 11.578125 9.402344 11.523438 9.511719 C 11.253906 10.050781 11.039062 10.382812 10.882812 10.625 C 10.664062 10.964844 10.53125 11.171875 10.53125 11.527344 C 10.53125 12.152344 11.042969 12.660156 11.667969 12.660156 C 12.292969 12.660156 12.800781 12.152344 12.800781 11.527344 C 12.800781 11.171875 12.667969 10.964844 12.453125 10.625 Z M 12.453125 10.625 "/>
</g>
</svg>
