<?xml version="1.0" encoding="UTF-8"?>
<svg xmlns="http://www.w3.org/2000/svg" xmlns:xlink="http://www.w3.org/1999/xlink" width="15pt" height="15pt" viewBox="0 0 15 15" version="1.1">
<g id="surface1">
<path style=" stroke:none;fill-rule:nonzero;fill:rgb(60.392157%,66.666667%,70.588235%);fill-opacity:1;" d="M 7.5 5 C 4.738281 5 2.5 7.238281 2.5 10 C 2.5 12.761719 4.738281 15 7.5 15 C 10.261719 15 12.5 12.761719 12.5 10 C 12.5 7.238281 10.261719 5 7.5 5 Z M 7.5 13.332031 C 5.660156 13.332031 4.167969 11.839844 4.167969 10 C 4.167969 8.160156 5.660156 6.667969 7.5 6.667969 C 9.339844 6.667969 10.832031 8.160156 10.832031 10 C 10.832031 11.839844 9.339844 13.332031 7.5 13.332031 Z M 7.5 13.332031 "/>
<path style=" stroke:none;fill-rule:nonzero;fill:rgb(36.470588%,67.843137%,92.54902%);fill-opacity:1;" d="M 12.082031 2.082031 L 10.417969 0 L 4.582031 0 L 2.917969 2.082031 L 7.5 5.832031 Z M 12.082031 2.082031 "/>
<path style=" stroke:none;fill-rule:nonzero;fill:rgb(54.901961%,79.215686%,96.862745%);fill-opacity:1;" d="M 12.082031 2.082031 L 10.417969 0 L 4.582031 0 L 2.917969 2.082031 Z M 12.082031 2.082031 "/>
<path style=" stroke:none;fill-rule:nonzero;fill:rgb(36.470588%,67.843137%,92.54902%);fill-opacity:1;" d="M 12.082031 2.082031 L 10.417969 0 L 7.5 0 L 7.5 2.082031 Z M 12.082031 2.082031 "/>
<path style=" stroke:none;fill-rule:nonzero;fill:rgb(54.901961%,79.215686%,96.862745%);fill-opacity:1;" d="M 7.5 2.082031 L 12.082031 2.082031 L 7.5 5.832031 Z M 7.5 2.082031 "/>
<path style=" stroke:none;fill-rule:nonzero;fill:rgb(60.392157%,66.666667%,70.588235%);fill-opacity:1;" d="M 10.417969 5.417969 C 10.417969 6.105469 9.855469 6.667969 9.167969 6.667969 L 5.832031 6.667969 C 5.144531 6.667969 4.582031 6.105469 4.582031 5.417969 C 4.582031 4.726562 5.144531 4.167969 5.832031 4.167969 L 9.167969 4.167969 C 9.855469 4.167969 10.417969 4.726562 10.417969 5.417969 Z M 10.417969 5.417969 "/>
</g>
</svg>
