<?xml version="1.0" encoding="UTF-8"?>
<svg xmlns="http://www.w3.org/2000/svg" xmlns:xlink="http://www.w3.org/1999/xlink" width="15pt" height="15pt" viewBox="0 0 15 15" version="1.1">
<g id="surface1">
<path style=" stroke:none;fill-rule:nonzero;fill:rgb(86.666667%,18.039216%,26.666667%);fill-opacity:1;" d="M 13.417969 3.246094 C 12.492188 3.097656 10.265625 1.59375 8.664062 2.09375 C 7.0625 2.597656 7.1875 2.996094 6.386719 3.246094 C 5.585938 3.496094 5.460938 3.097656 3.859375 3.597656 C 2.257812 4.097656 1.28125 6.597656 0.605469 7.25 C 0.605469 7.25 -0.0625 7.925781 0.179688 8.703125 C 0.425781 9.476562 1.234375 9.25 1.234375 9.25 C 4.035156 8.375 4.984375 7.199219 4.984375 7.199219 C 4.984375 7.199219 6.4375 7.625 7.636719 7.25 C 8.839844 6.875 9.789062 5.699219 9.789062 5.699219 C 9.789062 5.699219 11.242188 6.125 14.042969 5.246094 C 14.042969 5.246094 14.835938 4.972656 14.59375 4.195312 C 14.347656 3.421875 13.417969 3.246094 13.417969 3.246094 Z M 12.964844 6.023438 C 10.566406 6.773438 11.066406 8.375 8.261719 9.25 C 5.460938 10.128906 4.960938 8.527344 2.558594 9.277344 C 1.757812 9.527344 1.484375 10.050781 1.609375 10.453125 C 1.984375 11.652344 5.109375 14.628906 9.515625 13.253906 C 13.917969 11.878906 14.792969 7.648438 14.417969 6.449219 C 14.292969 6.046875 13.765625 5.773438 12.964844 6.023438 Z M 12.964844 6.023438 "/>
</g>
</svg>
