<?xml version="1.0" encoding="UTF-8"?>
<svg xmlns="http://www.w3.org/2000/svg" xmlns:xlink="http://www.w3.org/1999/xlink" width="15pt" height="15pt" viewBox="0 0 15 15" version="1.1">
<g id="surface1">
<path style=" stroke:none;fill-rule:nonzero;fill:rgb(86.666667%,18.039216%,26.666667%);fill-opacity:1;" d="M 12.164062 15 L 12.164062 14.582031 C 12.164062 13.203125 11.042969 12.082031 9.664062 12.082031 L 4.921875 12.082031 C 3.769531 12.082031 2.835938 13.015625 2.835938 14.167969 L 2.835938 15 Z M 12.164062 15 "/>
<path style=" stroke:none;fill-rule:nonzero;fill:rgb(16.078431%,18.431373%,20%);fill-opacity:1;" d="M 3.75 7.5 C 3.75 9.570312 5.429688 9.582031 7.5 9.582031 C 9.570312 9.582031 11.25 9.570312 11.25 7.5 C 11.25 7.4375 9.347656 7.085938 7.5 7.082031 C 5.597656 7.082031 3.75 7.433594 3.75 7.5 Z M 3.75 7.5 "/>
<path style=" stroke:none;fill-rule:nonzero;fill:rgb(95.294118%,82.352941%,63.529412%);fill-opacity:1;" d="M 6.078125 12.152344 L 7.5 12.777344 L 8.921875 12.152344 L 8.921875 10.730469 L 6.078125 10.730469 Z M 6.078125 12.152344 "/>
<path style=" stroke:none;fill-rule:nonzero;fill:rgb(88.627451%,75.686275%,58.823529%);fill-opacity:1;" d="M 6.078125 11.484375 C 6.511719 11.972656 6.914062 12.09375 7.5 12.09375 C 8.082031 12.09375 8.492188 11.972656 8.921875 11.484375 L 8.921875 10.058594 L 6.078125 10.058594 Z M 6.078125 11.484375 "/>
<path style=" stroke:none;fill-rule:nonzero;fill:rgb(100%,89.803922%,11.764706%);fill-opacity:1;" d="M 8.648438 4.152344 C 8.035156 3.953125 6.585938 4.007812 6.226562 4.480469 C 5.285156 4.496094 4.179688 5.347656 4.035156 6.46875 C 3.894531 7.582031 4.210938 8.097656 4.328125 8.929688 C 4.453125 9.875 4.988281 10.179688 5.410156 10.304688 C 6.023438 11.113281 6.671875 11.078125 7.765625 11.078125 C 9.898438 11.078125 10.910156 9.652344 11.003906 7.230469 C 11.054688 5.765625 10.195312 4.65625 8.648438 4.152344 Z M 8.648438 4.152344 "/>
<path style=" stroke:none;fill-rule:nonzero;fill:rgb(95.294118%,82.352941%,63.529412%);fill-opacity:1;" d="M 9.871094 7.332031 C 9.664062 7.046875 9.398438 6.816406 8.820312 6.734375 C 9.035156 6.835938 9.246094 7.179688 9.273438 7.371094 C 9.300781 7.558594 9.328125 7.714844 9.15625 7.523438 C 8.464844 6.761719 7.714844 7.0625 6.972656 6.597656 C 6.453125 6.273438 6.296875 5.914062 6.296875 5.914062 C 6.296875 5.914062 6.234375 6.394531 5.445312 6.882812 C 5.21875 7.023438 4.945312 7.339844 4.792969 7.804688 C 4.6875 8.136719 4.71875 8.4375 4.71875 8.945312 C 4.71875 10.4375 5.945312 11.6875 7.460938 11.6875 C 8.972656 11.6875 10.203125 10.425781 10.203125 8.945312 C 10.203125 8.019531 10.105469 7.660156 9.871094 7.332031 Z M 9.871094 7.332031 "/>
<path style=" stroke:none;fill-rule:nonzero;fill:rgb(75.686275%,41.176471%,30.980392%);fill-opacity:1;" d="M 7.765625 9.707031 L 7.15625 9.707031 C 7.070312 9.707031 7.003906 9.640625 7.003906 9.554688 C 7.003906 9.472656 7.070312 9.402344 7.15625 9.402344 L 7.765625 9.402344 C 7.847656 9.402344 7.917969 9.472656 7.917969 9.554688 C 7.917969 9.640625 7.847656 9.707031 7.765625 9.707031 Z M 7.765625 9.707031 "/>
<path style=" stroke:none;fill-rule:nonzero;fill:rgb(40%,12.941176%,7.45098%);fill-opacity:1;" d="M 6.242188 8.640625 C 6.074219 8.640625 5.9375 8.507812 5.9375 8.339844 L 5.9375 8.035156 C 5.9375 7.863281 6.074219 7.730469 6.242188 7.730469 C 6.410156 7.730469 6.546875 7.863281 6.546875 8.035156 L 6.546875 8.339844 C 6.546875 8.503906 6.410156 8.640625 6.242188 8.640625 Z M 8.679688 8.640625 C 8.511719 8.640625 8.375 8.507812 8.375 8.339844 L 8.375 8.035156 C 8.375 7.863281 8.511719 7.730469 8.679688 7.730469 C 8.847656 7.730469 8.984375 7.863281 8.984375 8.035156 L 8.984375 8.339844 C 8.984375 8.503906 8.847656 8.640625 8.679688 8.640625 Z M 8.679688 8.640625 "/>
<path style=" stroke:none;fill-rule:nonzero;fill:rgb(75.686275%,41.176471%,30.980392%);fill-opacity:1;" d="M 7.5 10.980469 C 6.621094 10.980469 6.351562 10.753906 6.304688 10.710938 C 6.222656 10.628906 6.222656 10.496094 6.304688 10.414062 C 6.382812 10.332031 6.511719 10.332031 6.59375 10.40625 C 6.609375 10.417969 6.824219 10.5625 7.5 10.5625 C 8.203125 10.5625 8.40625 10.40625 8.410156 10.40625 C 8.488281 10.324219 8.617188 10.328125 8.699219 10.410156 C 8.78125 10.492188 8.777344 10.628906 8.695312 10.710938 C 8.652344 10.753906 8.378906 10.980469 7.5 10.980469 "/>
<path style=" stroke:none;fill-rule:nonzero;fill:rgb(16.078431%,18.431373%,20%);fill-opacity:1;" d="M 11.25 7.5 L 11.25 2.5 C 11.25 1.125 10.125 0 8.75 0 L 6.25 0 C 4.875 0 3.75 1.125 3.75 2.5 L 3.75 7.5 Z M 5.394531 12.691406 L 3.585938 13 C 3.480469 13.015625 3.378906 12.9375 3.363281 12.824219 L 3.300781 12.414062 C 3.285156 12.300781 3.359375 12.195312 3.464844 12.175781 L 5.273438 11.867188 C 5.378906 11.851562 5.476562 11.929688 5.496094 12.042969 L 5.554688 12.453125 C 5.570312 12.566406 5.5 12.675781 5.394531 12.691406 Z M 9.617188 12.691406 L 11.425781 13 C 11.53125 13.015625 11.628906 12.9375 11.648438 12.824219 L 11.707031 12.414062 C 11.726562 12.300781 11.652344 12.195312 11.546875 12.175781 L 9.738281 11.867188 C 9.632812 11.851562 9.535156 11.929688 9.515625 12.042969 L 9.457031 12.453125 C 9.4375 12.566406 9.511719 12.675781 9.617188 12.691406 Z M 9.617188 12.691406 "/>
<path style=" stroke:none;fill-rule:nonzero;fill:rgb(60%,66.666667%,70.980392%);fill-opacity:1;" d="M 4.949219 7.5 C 4.949219 7.5 4.875 11.421875 7.496094 11.421875 C 10.113281 11.421875 10.050781 7.5 10.050781 7.5 L 10.417969 7.5 C 10.417969 7.5 10.289062 11.859375 7.5 11.859375 C 4.710938 11.859375 4.582031 7.5 4.582031 7.5 Z M 4.949219 7.5 "/>
<path style=" stroke:none;fill-rule:nonzero;fill:rgb(96.078431%,97.254902%,98.039216%);fill-opacity:1;" d="M 7.292969 12.917969 L 7.707031 12.917969 L 7.707031 15 L 7.292969 15 Z M 7.292969 12.917969 "/>
<path style=" stroke:none;fill-rule:nonzero;fill:rgb(16.078431%,18.431373%,20%);fill-opacity:1;" d="M 8.910156 11.589844 C 8.910156 12.246094 7.976562 12.5 7.5 12.5 C 7.023438 12.5 6.089844 12.246094 6.089844 11.589844 C 6.089844 11.589844 5.832031 11.535156 5.832031 12.082031 C 5.832031 12.628906 6.621094 13.332031 7.5 13.332031 C 8.378906 13.332031 9.167969 12.628906 9.167969 12.082031 C 9.167969 11.535156 8.910156 11.589844 8.910156 11.589844 Z M 8.910156 11.589844 "/>
</g>
</svg>
