<?xml version="1.0" encoding="UTF-8"?>
<svg xmlns="http://www.w3.org/2000/svg" xmlns:xlink="http://www.w3.org/1999/xlink" width="15pt" height="15pt" viewBox="0 0 15 15" version="1.1">
<g id="surface1">
<path style=" stroke:none;fill-rule:nonzero;fill:rgb(83.529412%,67.058824%,53.333333%);fill-opacity:1;" d="M 6.25 9.167969 L 6.25 11.667969 C 6.25 12.355469 6.808594 12.917969 7.5 12.917969 C 8.191406 12.917969 8.75 12.355469 8.75 11.667969 L 8.75 9.167969 Z M 6.25 9.167969 "/>
<path style=" stroke:none;fill-rule:nonzero;fill:rgb(25.882353%,53.72549%,75.686275%);fill-opacity:1;" d="M 11.25 11.25 L 3.75 11.25 C 2.828125 11.25 2.082031 11.996094 2.082031 12.917969 L 2.082031 15 L 12.917969 15 L 12.917969 12.917969 C 12.917969 11.996094 12.171875 11.25 11.25 11.25 Z M 11.25 11.25 "/>
<path style=" stroke:none;fill-rule:nonzero;fill:rgb(16.470588%,40.392157%,59.215686%);fill-opacity:1;" d="M 10.832031 13.332031 L 11.25 13.332031 L 11.25 15 L 10.832031 15 Z M 3.75 13.332031 L 4.167969 13.332031 L 4.167969 15 L 3.75 15 Z M 3.75 13.332031 "/>
<path style=" stroke:none;fill-rule:nonzero;fill:rgb(83.529412%,67.058824%,53.333333%);fill-opacity:1;" d="M 6.25 9.167969 L 6.25 11.667969 C 6.25 12.355469 6.808594 12.917969 7.5 12.917969 C 8.191406 12.917969 8.75 12.355469 8.75 11.667969 L 8.75 9.167969 Z M 6.25 9.167969 "/>
<path style=" stroke:none;fill-rule:nonzero;fill:rgb(83.529412%,67.058824%,53.333333%);fill-opacity:1;" d="M 3.75 2.472656 L 3.75 7.082031 C 3.75 9.15625 5.429688 10.832031 7.5 10.832031 C 9.570312 10.832031 11.25 9.15625 11.25 7.082031 L 11.25 2.605469 Z M 3.75 2.472656 "/>
<path style=" stroke:none;fill-rule:nonzero;fill:rgb(83.529412%,67.058824%,53.333333%);fill-opacity:1;" d="M 4.519531 5.714844 C 4.519531 6.371094 4.1875 6.90625 3.773438 6.90625 C 3.363281 6.90625 3.03125 6.371094 3.03125 5.714844 C 3.03125 5.054688 3.363281 4.523438 3.773438 4.523438 C 4.1875 4.523438 4.519531 5.054688 4.519531 5.714844 Z M 11.96875 5.714844 C 11.96875 6.371094 11.636719 6.90625 11.226562 6.90625 C 10.8125 6.90625 10.480469 6.371094 10.480469 5.714844 C 10.480469 5.054688 10.8125 4.523438 11.226562 4.523438 C 11.636719 4.523438 11.96875 5.054688 11.96875 5.714844 Z M 11.96875 5.714844 "/>
<path style=" stroke:none;fill-rule:nonzero;fill:rgb(58.823529%,23.137255%,13.333333%);fill-opacity:1;" d="M 7.5 0.34375 C 4.574219 0.34375 3.277344 2.292969 3.277344 3.921875 C 3.277344 5.546875 3.835938 6 3.925781 5.546875 C 4.25 3.921875 5.226562 3.421875 5.226562 3.421875 C 7.175781 5.046875 6.851562 3.746094 6.851562 3.746094 C 8.800781 5.699219 7.824219 3.746094 7.824219 3.746094 C 8.476562 4.398438 10.425781 4.398438 10.425781 4.398438 C 10.425781 4.398438 10.75 4.898438 11.074219 5.546875 C 11.398438 6.199219 11.722656 5.546875 11.722656 3.921875 C 11.722656 2.292969 10.097656 0.34375 7.5 0.34375 Z M 7.5 0.34375 "/>
<path style=" stroke:none;fill-rule:nonzero;fill:rgb(75.686275%,41.176471%,30.980392%);fill-opacity:1;" d="M 8.332031 9.167969 C 8.332031 8.9375 7.960938 8.75 7.5 8.75 C 7.039062 8.75 6.667969 8.9375 6.667969 9.167969 C 6.667969 9.398438 7.039062 9.582031 7.5 9.582031 C 7.960938 9.582031 8.332031 9.398438 8.332031 9.167969 Z M 8.332031 9.167969 "/>
<path style=" stroke:none;fill-rule:nonzero;fill:rgb(75.686275%,41.176471%,30.980392%);fill-opacity:1;" d="M 7.917969 8.125 L 7.082031 8.125 C 6.96875 8.125 6.875 8.03125 6.875 7.917969 C 6.875 7.800781 6.96875 7.707031 7.082031 7.707031 L 7.917969 7.707031 C 8.03125 7.707031 8.125 7.800781 8.125 7.917969 C 8.125 8.03125 8.03125 8.125 7.917969 8.125 Z M 7.917969 8.125 "/>
<path style=" stroke:none;fill-rule:nonzero;fill:rgb(71.764706%,54.509804%,37.647059%);fill-opacity:1;" d="M 11.921875 1.832031 L 11.109375 1.019531 L 10.890625 1.277344 L 9.429688 0.746094 L 9.429688 1.40625 L 8.335938 1.65625 C 8.085938 1.714844 7.925781 1.96875 7.984375 2.21875 C 8.042969 2.472656 8.292969 2.628906 8.546875 2.570312 L 10.035156 2.226562 L 10.78125 2.972656 C 10.90625 3.097656 11.117188 3.214844 11.335938 3.285156 L 11.617188 5.613281 C 11.617188 5.613281 11.617188 5.976562 11.984375 5.976562 C 12.347656 5.976562 12.347656 5.613281 12.347656 5.613281 L 12.347656 2.695312 Z M 11.921875 1.832031 "/>
<path style=" stroke:none;fill-rule:nonzero;fill:rgb(83.529412%,67.058824%,53.333333%);fill-opacity:1;" d="M 12.066406 1.6875 L 11.25 0.875 L 11.03125 0 L 9.574219 0 L 9.574219 1.261719 L 8.480469 1.515625 C 8.226562 1.574219 8.070312 1.824219 8.128906 2.074219 C 8.1875 2.328125 8.4375 2.484375 8.6875 2.425781 L 10.179688 2.082031 L 10.925781 2.828125 C 11.050781 2.953125 11.261719 3.070312 11.480469 3.140625 L 11.761719 5.46875 C 11.761719 5.46875 11.761719 5.832031 12.125 5.832031 C 12.492188 5.832031 12.492188 5.46875 12.492188 5.46875 L 12.492188 2.550781 Z M 12.066406 1.6875 "/>
<path style=" stroke:none;fill-rule:nonzero;fill:rgb(71.764706%,54.509804%,37.647059%);fill-opacity:1;" d="M 3.078125 1.832031 L 3.890625 1.019531 L 4.109375 1.277344 L 5.570312 0.695312 L 5.570312 1.40625 L 6.664062 1.65625 C 6.914062 1.714844 7.074219 1.96875 7.015625 2.21875 C 6.957031 2.472656 6.707031 2.628906 6.453125 2.570312 L 4.964844 2.226562 L 4.21875 2.972656 C 4.09375 3.097656 3.882812 3.214844 3.664062 3.285156 L 3.382812 5.613281 C 3.382812 5.613281 3.382812 5.976562 3.015625 5.976562 C 2.652344 5.976562 2.652344 5.613281 2.652344 5.613281 L 2.652344 2.695312 Z M 3.078125 1.832031 "/>
<path style=" stroke:none;fill-rule:nonzero;fill:rgb(83.529412%,67.058824%,53.333333%);fill-opacity:1;" d="M 2.933594 1.6875 L 3.75 0.875 L 3.96875 0 L 5.425781 0 L 5.425781 1.261719 L 6.519531 1.515625 C 6.773438 1.574219 6.929688 1.824219 6.871094 2.074219 C 6.8125 2.328125 6.5625 2.484375 6.3125 2.425781 L 4.820312 2.082031 L 4.074219 2.828125 C 3.949219 2.953125 3.738281 3.070312 3.519531 3.140625 L 3.238281 5.46875 C 3.238281 5.46875 3.238281 5.832031 2.875 5.832031 C 2.507812 5.832031 2.507812 5.46875 2.507812 5.46875 L 2.507812 2.550781 Z M 2.933594 1.6875 "/>
<path style=" stroke:none;fill-rule:nonzero;fill:rgb(40%,12.941176%,7.45098%);fill-opacity:1;" d="M 9.960938 6.273438 C 9.925781 6.242188 9.871094 6.242188 9.832031 6.269531 C 9.832031 6.273438 9.570312 6.457031 9.0625 6.457031 C 8.554688 6.457031 8.292969 6.273438 8.292969 6.269531 C 8.253906 6.242188 8.203125 6.242188 8.164062 6.273438 C 8.128906 6.300781 8.113281 6.351562 8.132812 6.394531 C 8.144531 6.425781 8.445312 7.082031 9.0625 7.082031 C 9.679688 7.082031 9.980469 6.425781 9.992188 6.398438 C 10.011719 6.351562 9.996094 6.304688 9.960938 6.273438 Z M 6.835938 6.273438 C 6.800781 6.242188 6.746094 6.242188 6.707031 6.269531 C 6.707031 6.273438 6.445312 6.457031 5.9375 6.457031 C 5.429688 6.457031 5.167969 6.273438 5.167969 6.269531 C 5.128906 6.242188 5.078125 6.242188 5.039062 6.273438 C 5.003906 6.300781 4.988281 6.351562 5.007812 6.394531 C 5.019531 6.425781 5.320312 7.082031 5.9375 7.082031 C 6.554688 7.082031 6.855469 6.425781 6.867188 6.398438 C 6.886719 6.351562 6.871094 6.304688 6.835938 6.273438 Z M 6.835938 6.273438 "/>
</g>
</svg>
