<?xml version="1.0" encoding="UTF-8"?>
<svg xmlns="http://www.w3.org/2000/svg" xmlns:xlink="http://www.w3.org/1999/xlink" width="15pt" height="15pt" viewBox="0 0 15 15" version="1.1">
<g id="surface1">
<path style=" stroke:none;fill-rule:nonzero;fill:rgb(86.666667%,18.039216%,26.666667%);fill-opacity:1;" d="M 15 13.332031 C 15 14.253906 14.253906 15 13.332031 15 L 1.667969 15 C 0.746094 15 0 14.253906 0 13.332031 L 0 1.667969 C 0 0.746094 0.746094 0 1.667969 0 L 13.332031 0 C 14.253906 0 15 0.746094 15 1.667969 Z M 15 13.332031 "/>
<path style=" stroke:none;fill-rule:nonzero;fill:rgb(96.078431%,97.254902%,98.039216%);fill-opacity:1;" d="M 13.285156 5.734375 C 13.285156 3.972656 11.855469 2.542969 10.09375 2.542969 C 9.023438 2.542969 8.078125 3.070312 7.5 3.878906 C 6.921875 3.070312 5.976562 2.542969 4.90625 2.542969 C 3.144531 2.542969 1.714844 3.972656 1.714844 5.734375 C 1.714844 5.984375 1.746094 6.226562 1.800781 6.460938 C 2.242188 9.214844 5.304688 12.117188 7.5 12.917969 C 9.695312 12.117188 12.753906 9.214844 13.199219 6.460938 C 13.253906 6.226562 13.285156 5.984375 13.285156 5.734375 Z M 13.285156 5.734375 "/>
</g>
</svg>
