<?xml version="1.0" encoding="UTF-8"?>
<svg xmlns="http://www.w3.org/2000/svg" xmlns:xlink="http://www.w3.org/1999/xlink" width="15pt" height="15pt" viewBox="0 0 15 15" version="1.1">
<g id="surface1">
<path style=" stroke:none;fill-rule:nonzero;fill:rgb(86.666667%,18.039216%,26.666667%);fill-opacity:1;" d="M 5.660156 11.050781 C 5.539062 10.84375 5.542969 10.585938 5.675781 10.382812 L 7.507812 7.613281 L 5.011719 5.472656 C 4.777344 5.277344 4.722656 4.9375 4.878906 4.675781 L 6.675781 1.6875 C 5.980469 1.148438 5.109375 0.816406 4.160156 0.816406 C 1.890625 0.816406 0.046875 2.660156 0.046875 4.929688 C 0.046875 5.25 0.0898438 5.5625 0.160156 5.863281 C 0.730469 9.410156 4.671875 13.152344 7.5 14.179688 C 7.511719 14.175781 7.523438 14.171875 7.53125 14.167969 Z M 5.660156 11.050781 "/>
<path style=" stroke:none;fill-rule:nonzero;fill:rgb(86.666667%,18.039216%,26.666667%);fill-opacity:1;" d="M 10.839844 0.820312 C 9.6875 0.820312 8.652344 1.296875 7.910156 2.0625 L 6.222656 4.871094 L 8.742188 7.027344 C 8.980469 7.230469 9.027344 7.582031 8.855469 7.84375 L 6.9375 10.746094 L 8.671875 13.636719 C 11.3125 12.164062 14.347656 8.941406 14.839844 5.863281 C 14.910156 5.566406 14.953125 5.253906 14.953125 4.929688 C 14.953125 2.660156 13.109375 0.820312 10.839844 0.820312 Z M 10.839844 0.820312 "/>
</g>
</svg>
