<?xml version="1.0" encoding="UTF-8"?>
<svg xmlns="http://www.w3.org/2000/svg" xmlns:xlink="http://www.w3.org/1999/xlink" width="15pt" height="15pt" viewBox="0 0 15 15" version="1.1">
<g id="surface1">
<path style=" stroke:none;fill-rule:nonzero;fill:rgb(95.686275%,67.058824%,72.941176%);fill-opacity:1;" d="M 14.953125 4.929688 C 14.953125 2.660156 13.109375 0.820312 10.839844 0.820312 C 9.460938 0.820312 8.246094 1.5 7.5 2.539062 C 6.753906 1.5 5.539062 0.820312 4.160156 0.820312 C 1.890625 0.820312 0.046875 2.660156 0.046875 4.929688 C 0.046875 5.253906 0.0898438 5.5625 0.160156 5.863281 C 0.730469 9.410156 4.671875 13.152344 7.5 14.179688 C 10.328125 13.152344 14.269531 9.410156 14.839844 5.863281 C 14.910156 5.5625 14.953125 5.253906 14.953125 4.929688 Z M 14.953125 4.929688 "/>
<path style=" stroke:none;fill-rule:nonzero;fill:rgb(91.764706%,34.901961%,43.137255%);fill-opacity:1;" d="M 13.09375 5.570312 C 13.09375 3.867188 11.710938 2.484375 10.007812 2.484375 C 8.972656 2.484375 8.058594 2.996094 7.5 3.777344 C 6.941406 2.996094 6.027344 2.484375 4.992188 2.484375 C 3.289062 2.484375 1.90625 3.867188 1.90625 5.570312 C 1.90625 5.8125 1.9375 6.046875 1.988281 6.273438 C 2.417969 8.933594 5.378906 11.742188 7.5 12.515625 C 9.621094 11.742188 12.582031 8.933594 13.007812 6.273438 C 13.0625 6.046875 13.09375 5.8125 13.09375 5.570312 Z M 13.09375 5.570312 "/>
<path style=" stroke:none;fill-rule:nonzero;fill:rgb(86.666667%,18.039216%,26.666667%);fill-opacity:1;" d="M 11.328125 6.179688 C 11.328125 5.011719 10.382812 4.066406 9.21875 4.066406 C 8.507812 4.066406 7.882812 4.414062 7.5 4.949219 C 7.117188 4.414062 6.492188 4.066406 5.78125 4.066406 C 4.617188 4.066406 3.667969 5.011719 3.667969 6.179688 C 3.667969 6.34375 3.691406 6.503906 3.726562 6.660156 C 4.019531 8.484375 6.046875 10.40625 7.5 10.933594 C 8.953125 10.40625 10.980469 8.480469 11.273438 6.660156 C 11.308594 6.503906 11.328125 6.34375 11.328125 6.179688 Z M 11.328125 6.179688 "/>
</g>
</svg>
