<?xml version="1.0" encoding="UTF-8"?>
<svg xmlns="http://www.w3.org/2000/svg" xmlns:xlink="http://www.w3.org/1999/xlink" width="15pt" height="15pt" viewBox="0 0 15 15" version="1.1">
<g id="surface1">
<path style=" stroke:none;fill-rule:nonzero;fill:rgb(86.666667%,18.039216%,26.666667%);fill-opacity:1;" d="M 14.117188 6.566406 C 14.117188 4.550781 12.484375 2.917969 10.46875 2.917969 C 9.242188 2.917969 8.164062 3.519531 7.5 4.445312 C 6.835938 3.519531 5.757812 2.917969 4.53125 2.917969 C 2.515625 2.917969 0.882812 4.550781 0.882812 6.566406 C 0.882812 6.855469 0.917969 7.128906 0.980469 7.398438 C 1.488281 10.546875 4.988281 13.871094 7.5 14.785156 C 10.011719 13.871094 13.511719 10.546875 14.019531 7.398438 C 14.082031 7.128906 14.117188 6.855469 14.117188 6.566406 Z M 14.117188 6.566406 "/>
<path style=" stroke:none;fill-rule:nonzero;fill:rgb(99.215686%,79.607843%,34.509804%);fill-opacity:1;" d="M 0.625 4.601562 C 0.5625 4.601562 0.5 4.585938 0.4375 4.558594 C 0.234375 4.453125 0.148438 4.203125 0.253906 3.996094 C 0.675781 3.152344 1.832031 1.832031 3.285156 1.667969 C 3.515625 1.644531 3.722656 1.808594 3.746094 2.035156 C 3.773438 2.265625 3.609375 2.472656 3.378906 2.496094 C 2.265625 2.625 1.328125 3.714844 0.996094 4.371094 C 0.925781 4.515625 0.777344 4.601562 0.625 4.601562 Z M 0.433594 2.34375 C 0.351562 2.34375 0.273438 2.320312 0.199219 2.273438 C 0.0117188 2.144531 -0.0390625 1.882812 0.0898438 1.691406 C 0.480469 1.117188 1.296875 0.480469 2.039062 0.433594 C 2.269531 0.417969 2.46875 0.59375 2.480469 0.824219 C 2.496094 1.054688 2.320312 1.253906 2.09375 1.265625 C 1.691406 1.292969 1.089844 1.699219 0.777344 2.160156 C 0.699219 2.28125 0.566406 2.34375 0.433594 2.34375 Z M 14.375 4.601562 C 14.222656 4.601562 14.074219 4.515625 14.003906 4.371094 C 13.671875 3.714844 12.734375 2.625 11.621094 2.496094 C 11.390625 2.472656 11.226562 2.265625 11.253906 2.035156 C 11.277344 1.808594 11.480469 1.644531 11.714844 1.667969 C 13.167969 1.832031 14.324219 3.152344 14.746094 3.996094 C 14.851562 4.203125 14.765625 4.453125 14.5625 4.558594 C 14.5 4.585938 14.4375 4.601562 14.375 4.601562 Z M 14.566406 2.34375 C 14.433594 2.34375 14.300781 2.28125 14.222656 2.160156 C 13.910156 1.699219 13.308594 1.292969 12.90625 1.265625 C 12.679688 1.253906 12.503906 1.054688 12.519531 0.824219 C 12.53125 0.59375 12.730469 0.414062 12.960938 0.433594 C 13.703125 0.480469 14.519531 1.117188 14.910156 1.691406 C 15.039062 1.882812 14.992188 2.144531 14.800781 2.273438 C 14.726562 2.320312 14.648438 2.34375 14.566406 2.34375 Z M 14.566406 2.34375 "/>
</g>
</svg>
