<?xml version="1.0" encoding="UTF-8"?>
<svg xmlns="http://www.w3.org/2000/svg" xmlns:xlink="http://www.w3.org/1999/xlink" width="15pt" height="15pt" viewBox="0 0 15 15" version="1.1">
<g id="surface1">
<path style=" stroke:none;fill-rule:nonzero;fill:rgb(100%,67.45098%,20%);fill-opacity:1;" d="M 6.722656 7.269531 L 0.886719 1.433594 C 0.722656 1.273438 1.3125 0.683594 1.476562 0.847656 L 7.308594 6.679688 C 7.472656 6.84375 6.800781 7.351562 6.722656 7.269531 Z M 6.722656 7.269531 "/>
<path style=" stroke:none;fill-rule:nonzero;fill:rgb(86.666667%,18.039216%,26.666667%);fill-opacity:1;" d="M 14.25 6.035156 C 14.25 4.019531 12.613281 2.386719 10.597656 2.386719 C 9.371094 2.386719 8.292969 2.988281 7.628906 3.914062 C 6.96875 2.988281 5.886719 2.386719 4.664062 2.386719 C 2.644531 2.386719 1.011719 4.019531 1.011719 6.035156 C 1.011719 6.324219 1.046875 6.597656 1.109375 6.867188 C 1.617188 10.015625 5.121094 13.339844 7.628906 14.253906 C 10.140625 13.339844 13.644531 10.015625 14.148438 6.867188 C 14.210938 6.597656 14.25 6.324219 14.25 6.035156 Z M 14.25 6.035156 "/>
<path style=" stroke:none;fill-rule:nonzero;fill:rgb(100%,80%,30.196078%);fill-opacity:1;" d="M 14.4375 10.734375 C 14.4375 10.734375 12.558594 8.878906 11.765625 8.878906 L 9.410156 8.878906 L 8.910156 9.375 L 8.914062 11.730469 C 8.914062 12.523438 10.769531 14.402344 10.769531 14.402344 C 11.125 14.730469 11.570312 14.90625 11.890625 14.90625 C 12.15625 14.90625 12.367188 14.789062 12.519531 14.582031 C 12.648438 14.402344 12.695312 14.167969 12.695312 13.878906 C 12.695312 13.359375 12.464844 12.6875 12.117188 12.082031 C 12.722656 12.429688 13.390625 12.664062 13.914062 12.664062 C 14.203125 12.664062 14.4375 12.613281 14.613281 12.484375 C 14.824219 12.332031 14.9375 12.121094 14.9375 11.859375 C 14.9375 11.535156 14.765625 11.09375 14.4375 10.734375 Z M 14.4375 10.734375 "/>
<path style=" stroke:none;fill-rule:nonzero;fill:rgb(100%,67.45098%,20%);fill-opacity:1;" d="M 13.152344 13.558594 C 13.046875 13.558594 12.949219 13.507812 12.871094 13.425781 L 7.289062 7.84375 C 7.128906 7.683594 7.714844 7.09375 7.878906 7.253906 L 13.457031 12.839844 C 13.621094 13 13.617188 13.269531 13.453125 13.433594 C 13.371094 13.511719 13.261719 13.558594 13.152344 13.558594 Z M 13.152344 13.558594 "/>
<path style=" stroke:none;fill-rule:nonzero;fill:rgb(100%,80%,30.196078%);fill-opacity:1;" d="M 0.0664062 0.46875 C 0.0664062 0.359375 0.109375 0.253906 0.1875 0.175781 C 0.289062 0.0703125 0.441406 0.0273438 0.585938 0.0625 L 3.308594 0.742188 C 3.496094 0.789062 3.613281 0.957031 3.625 1.152344 C 3.621094 1.347656 3.484375 1.511719 3.296875 1.554688 C 3.234375 1.566406 1.78125 1.898438 1.625 3.242188 C 1.605469 3.441406 1.441406 3.59375 1.242188 3.609375 C 1.042969 3.625 0.863281 3.496094 0.808594 3.300781 L 0.0820312 0.574219 C 0.0703125 0.539062 0.0664062 0.503906 0.0664062 0.46875 Z M 0.0664062 0.46875 "/>
<path style=" stroke:none;fill-rule:nonzero;fill:rgb(62.745098%,1.568627%,11.764706%);fill-opacity:1;" d="M 9.242188 6.671875 C 9.230469 6.875 9.070312 7.042969 8.863281 7.0625 C 7.5 7.171875 7.300781 7.945312 7.105469 8.691406 L 7.058594 8.859375 C 7 9.082031 6.769531 9.214844 6.546875 9.152344 C 6.324219 9.089844 6.195312 8.863281 6.253906 8.640625 L 6.296875 8.480469 C 6.503906 7.699219 6.84375 6.390625 8.792969 6.230469 C 9.023438 6.210938 9.222656 6.382812 9.242188 6.609375 C 9.246094 6.632812 9.246094 6.652344 9.242188 6.671875 Z M 9.242188 6.671875 "/>
</g>
</svg>
