<?xml version="1.0" encoding="UTF-8"?>
<svg xmlns="http://www.w3.org/2000/svg" xmlns:xlink="http://www.w3.org/1999/xlink" width="15pt" height="15pt" viewBox="0 0 15 15" version="1.1">
<g id="surface1">
<path style=" stroke:none;fill-rule:nonzero;fill:rgb(86.666667%,18.039216%,26.666667%);fill-opacity:1;" d="M 14.953125 4.929688 C 14.953125 2.660156 13.109375 0.820312 10.839844 0.820312 C 9.460938 0.820312 8.246094 1.5 7.5 2.539062 C 6.753906 1.5 5.539062 0.820312 4.160156 0.820312 C 1.890625 0.820312 0.046875 2.660156 0.046875 4.929688 C 0.046875 5.253906 0.0898438 5.5625 0.160156 5.863281 C 0.730469 9.410156 4.671875 13.152344 7.5 14.179688 C 10.328125 13.152344 14.269531 9.410156 14.839844 5.863281 C 14.910156 5.5625 14.953125 5.253906 14.953125 4.929688 Z M 14.953125 4.929688 "/>
<path style=" stroke:none;fill-rule:nonzero;fill:rgb(99.215686%,79.607843%,34.509804%);fill-opacity:1;" d="M 14.3125 9.957031 L 12.71875 9.367188 L 12.128906 7.773438 C 12.066406 7.609375 11.910156 7.5 11.738281 7.5 C 11.5625 7.5 11.40625 7.609375 11.347656 7.773438 L 10.757812 9.367188 L 9.164062 9.957031 C 9 10.015625 8.890625 10.171875 8.890625 10.347656 C 8.890625 10.519531 9 10.675781 9.164062 10.738281 L 10.757812 11.328125 L 11.347656 12.921875 C 11.40625 13.085938 11.5625 13.191406 11.738281 13.191406 C 11.910156 13.191406 12.066406 13.082031 12.128906 12.921875 L 12.71875 11.328125 L 14.3125 10.738281 C 14.472656 10.675781 14.582031 10.519531 14.582031 10.347656 C 14.582031 10.171875 14.472656 10.015625 14.3125 9.957031 Z M 4.726562 3.289062 L 3.742188 2.925781 L 3.378906 1.9375 C 3.316406 1.773438 3.160156 1.667969 2.988281 1.667969 C 2.8125 1.667969 2.65625 1.773438 2.597656 1.9375 L 2.230469 2.925781 L 1.246094 3.289062 C 1.082031 3.347656 0.972656 3.503906 0.972656 3.679688 C 0.972656 3.855469 1.082031 4.007812 1.246094 4.070312 L 2.230469 4.433594 L 2.597656 5.421875 C 2.65625 5.585938 2.8125 5.691406 2.988281 5.691406 C 3.160156 5.691406 3.316406 5.585938 3.378906 5.421875 L 3.742188 4.433594 L 4.726562 4.070312 C 4.890625 4.007812 5 3.855469 5 3.679688 C 5 3.503906 4.890625 3.347656 4.726562 3.289062 Z M 4.726562 3.289062 "/>
</g>
</svg>
