<?xml version="1.0" encoding="UTF-8"?>
<svg xmlns="http://www.w3.org/2000/svg" xmlns:xlink="http://www.w3.org/1999/xlink" width="15pt" height="15pt" viewBox="0 0 15 15" version="1.1">
<g id="surface1">
<path style=" stroke:none;fill-rule:nonzero;fill:rgb(86.666667%,18.039216%,26.666667%);fill-opacity:1;" d="M 10.320312 8.214844 C 10.320312 6.648438 9.050781 5.378906 7.488281 5.378906 C 6.535156 5.378906 5.699219 5.847656 5.183594 6.566406 C 4.671875 5.847656 3.832031 5.378906 2.882812 5.378906 C 1.316406 5.378906 0.046875 6.648438 0.046875 8.214844 C 0.046875 8.4375 0.078125 8.652344 0.125 8.859375 C 0.519531 11.304688 3.234375 13.882812 5.183594 14.589844 C 7.132812 13.882812 9.851562 11.304688 10.242188 8.859375 C 10.292969 8.652344 10.320312 8.4375 10.320312 8.214844 Z M 14.953125 2.371094 C 14.953125 1.289062 14.074219 0.410156 12.988281 0.410156 C 12.332031 0.410156 11.75 0.734375 11.394531 1.230469 C 11.039062 0.734375 10.457031 0.410156 9.800781 0.410156 C 8.714844 0.410156 7.835938 1.289062 7.835938 2.371094 C 7.835938 2.527344 7.855469 2.675781 7.890625 2.816406 C 8.160156 4.511719 10.046875 6.296875 11.394531 6.789062 C 12.742188 6.296875 14.625 4.511719 14.898438 2.816406 C 14.933594 2.675781 14.953125 2.527344 14.953125 2.371094 Z M 14.953125 2.371094 "/>
</g>
</svg>
