<?xml version="1.0" encoding="UTF-8"?>
<svg xmlns="http://www.w3.org/2000/svg" xmlns:xlink="http://www.w3.org/1999/xlink" width="15pt" height="15pt" viewBox="0 0 15 15" version="1.1">
<g id="surface1">
<path style=" stroke:none;fill-rule:nonzero;fill:rgb(80%,83.921569%,86.666667%);fill-opacity:1;" d="M 10.078125 4.023438 L 12.433594 1.667969 L 13.332031 2.566406 L 10.976562 4.921875 Z M 10.078125 4.023438 "/>
<path style=" stroke:none;fill-rule:nonzero;fill:rgb(19.215686%,21.568627%,23.921569%);fill-opacity:1;" d="M 11.667969 9.167969 C 11.667969 12.386719 9.054688 15 5.832031 15 C 2.613281 15 0 12.386719 0 9.167969 C 0 5.945312 2.613281 3.332031 5.832031 3.332031 C 9.054688 3.332031 11.667969 5.945312 11.667969 9.167969 Z M 11.667969 9.167969 "/>
<path style=" stroke:none;fill-rule:nonzero;fill:rgb(19.215686%,21.568627%,23.921569%);fill-opacity:1;" d="M 7.917969 4.726562 L 10.273438 2.367188 L 12.632812 4.726562 L 10.273438 7.082031 Z M 7.917969 4.726562 "/>
<path style=" stroke:none;fill-rule:nonzero;fill:rgb(94.509804%,56.078431%,14.901961%);fill-opacity:1;" d="M 15 1.667969 C 15 2.585938 14.253906 3.332031 13.332031 3.332031 C 12.414062 3.332031 11.667969 2.585938 11.667969 1.667969 C 11.667969 0.746094 12.414062 0 13.332031 0 C 14.253906 0 15 0.746094 15 1.667969 Z M 15 1.667969 "/>
<path style=" stroke:none;fill-rule:nonzero;fill:rgb(99.215686%,79.607843%,34.509804%);fill-opacity:1;" d="M 14.167969 1.667969 C 14.167969 2.125 13.792969 2.5 13.332031 2.5 C 12.875 2.5 12.5 2.125 12.5 1.667969 C 12.5 1.207031 12.875 0.832031 13.332031 0.832031 C 13.792969 0.832031 14.167969 1.207031 14.167969 1.667969 Z M 14.167969 1.667969 "/>
</g>
</svg>
