<?xml version="1.0" encoding="UTF-8"?>
<svg xmlns="http://www.w3.org/2000/svg" xmlns:xlink="http://www.w3.org/1999/xlink" width="15pt" height="15pt" viewBox="0 0 15 15" version="1.1">
<g id="surface1">
<path style=" stroke:none;fill-rule:nonzero;fill:rgb(74.901961%,41.176471%,32.156863%);fill-opacity:1;" d="M 13.976562 9.664062 C 14.128906 9.007812 14.078125 8.304688 13.785156 7.605469 C 13.503906 6.929688 13.015625 6.390625 12.421875 6.03125 C 12.554688 5.535156 12.519531 5 12.285156 4.46875 C 11.9375 3.671875 11.179688 3.136719 10.324219 2.984375 C 10.425781 2.746094 10.460938 2.449219 10.339844 2.082031 C 9.921875 0.832031 8.253906 1.667969 7.003906 0 C 5.988281 0.609375 5.765625 1.515625 5.804688 2.285156 C 4.796875 2.457031 4.222656 2.675781 4.222656 2.675781 C 3.65625 2.90625 3.253906 3.460938 3.253906 4.113281 C 3.253906 4.476562 3.386719 4.808594 3.601562 5.074219 L 3.3125 5.183594 C 2.339844 5.546875 1.65625 6.421875 1.65625 7.449219 C 1.65625 7.886719 1.78125 8.292969 1.996094 8.648438 C 0.820312 9.179688 0 10.324219 0 11.667969 C 0 13.507812 1.539062 15 3.433594 15 C 4.796875 15 6.167969 14.707031 7.40625 14.304688 C 8.339844 14.738281 9.777344 15 11.945312 15 C 13.632812 15 15 13.632812 15 11.945312 C 15 11.039062 14.601562 10.226562 13.976562 9.664062 Z M 13.976562 9.664062 "/>
<path style=" stroke:none;fill-rule:nonzero;fill:rgb(96.078431%,97.254902%,98.039216%);fill-opacity:1;" d="M 7.082031 6.457031 C 7.082031 5.421875 6.429688 4.582031 5.625 4.582031 C 4.820312 4.582031 4.167969 5.421875 4.167969 6.457031 C 4.167969 7.492188 4.820312 8.332031 5.625 8.332031 C 6.429688 8.332031 7.082031 7.492188 7.082031 6.457031 Z M 7.082031 6.457031 "/>
<path style=" stroke:none;fill-rule:nonzero;fill:rgb(96.078431%,97.254902%,98.039216%);fill-opacity:1;" d="M 11.25 6.457031 C 11.25 5.421875 10.597656 4.582031 9.792969 4.582031 C 8.984375 4.582031 8.332031 5.421875 8.332031 6.457031 C 8.332031 7.492188 8.984375 8.332031 9.792969 8.332031 C 10.597656 8.332031 11.25 7.492188 11.25 6.457031 Z M 11.25 6.457031 "/>
<path style=" stroke:none;fill-rule:nonzero;fill:rgb(16.078431%,18.431373%,20%);fill-opacity:1;" d="M 6.667969 6.457031 C 6.667969 5.882812 6.292969 5.417969 5.832031 5.417969 C 5.375 5.417969 5 5.882812 5 6.457031 C 5 7.035156 5.375 7.5 5.832031 7.5 C 6.292969 7.5 6.667969 7.035156 6.667969 6.457031 Z M 6.667969 6.457031 "/>
<path style=" stroke:none;fill-rule:nonzero;fill:rgb(16.078431%,18.431373%,20%);fill-opacity:1;" d="M 10.417969 6.457031 C 10.417969 5.882812 10.042969 5.417969 9.582031 5.417969 C 9.125 5.417969 8.75 5.882812 8.75 6.457031 C 8.75 7.035156 9.125 7.5 9.582031 7.5 C 10.042969 7.5 10.417969 7.035156 10.417969 6.457031 Z M 10.417969 6.457031 "/>
<path style=" stroke:none;fill-rule:nonzero;fill:rgb(16.078431%,18.431373%,20%);fill-opacity:1;" d="M 3.9375 10.371094 C 3.832031 10.167969 3.9375 10 4.167969 10 L 11.667969 10 C 11.894531 10 12 10.167969 11.898438 10.371094 C 11.898438 10.371094 10.832031 12.5 7.917969 12.5 C 5 12.5 3.9375 10.371094 3.9375 10.371094 Z M 3.9375 10.371094 "/>
<path style=" stroke:none;fill-rule:nonzero;fill:rgb(94.901961%,67.058824%,72.941176%);fill-opacity:1;" d="M 7.917969 10.832031 C 6.761719 10.832031 5.769531 11.21875 5.296875 11.773438 C 5.917969 12.171875 6.773438 12.5 7.917969 12.5 C 9.0625 12.5 9.917969 12.171875 10.539062 11.773438 C 10.066406 11.21875 9.070312 10.832031 7.917969 10.832031 Z M 7.917969 10.832031 "/>
</g>
</svg>
