<?xml version="1.0" encoding="UTF-8"?>
<svg xmlns="http://www.w3.org/2000/svg" xmlns:xlink="http://www.w3.org/1999/xlink" width="15pt" height="15pt" viewBox="0 0 15 15" version="1.1">
<g id="surface1">
<path style=" stroke:none;fill-rule:nonzero;fill:rgb(99.215686%,84.705882%,53.333333%);fill-opacity:1;" d="M 12.027344 2.972656 C 15.09375 6.039062 15.921875 10.183594 13.878906 12.226562 C 11.832031 14.269531 7.691406 13.441406 4.625 10.375 C 4.519531 10.273438 4.425781 10.164062 4.324219 10.058594 L 6.167969 8.214844 C 8.550781 10.601562 11.589844 11.429688 12.953125 10.066406 C 14.316406 8.703125 13.484375 5.664062 11.101562 3.28125 L 11.109375 3.289062 L 11.101562 3.28125 C 8.375 0.554688 4.648438 -0.136719 2.773438 1.738281 C 1.867188 2.644531 1.566406 3.984375 1.800781 5.433594 C 1.441406 3.734375 1.738281 2.15625 2.773438 1.121094 C 4.816406 -0.921875 8.960938 -0.09375 12.027344 2.972656 Z M 12.027344 2.972656 "/>
<path style=" stroke:none;fill-rule:nonzero;fill:rgb(100%,67.45098%,20%);fill-opacity:1;" d="M 8.085938 14.167969 C 7.980469 14.167969 7.875 14.132812 7.785156 14.070312 L 5.671875 12.554688 L 3.554688 14.070312 C 3.375 14.199219 3.132812 14.199219 2.953125 14.066406 C 2.773438 13.9375 2.699219 13.707031 2.765625 13.496094 L 3.554688 10.953125 L 1.460938 9.476562 C 1.28125 9.34375 1.207031 9.113281 1.273438 8.902344 C 1.34375 8.691406 1.539062 8.550781 1.761719 8.546875 L 4.320312 8.542969 L 5.183594 6.058594 C 5.253906 5.851562 5.449219 5.707031 5.671875 5.707031 C 5.890625 5.707031 6.089844 5.851562 6.15625 6.058594 L 6.933594 8.542969 L 9.578125 8.546875 C 9.800781 8.550781 9.996094 8.691406 10.066406 8.902344 C 10.132812 9.113281 10.058594 9.34375 9.882812 9.476562 L 7.785156 10.953125 L 8.574219 13.496094 C 8.640625 13.707031 8.566406 13.9375 8.386719 14.066406 C 8.296875 14.132812 8.191406 14.167969 8.085938 14.167969 Z M 8.085938 14.167969 "/>
</g>
</svg>
