<?xml version="1.0" encoding="UTF-8"?>
<svg xmlns="http://www.w3.org/2000/svg" xmlns:xlink="http://www.w3.org/1999/xlink" width="15pt" height="15pt" viewBox="0 0 15 15" version="1.1">
<g id="surface1">
<path style=" stroke:none;fill-rule:nonzero;fill:rgb(74.509804%,9.803922%,19.215686%);fill-opacity:1;" d="M 1.097656 9.925781 L 0.421875 8.632812 L 1.066406 8.296875 C 2.066406 7.773438 3.144531 7.136719 3.324219 6.21875 C 3.464844 5.503906 3.070312 4.59375 2.152344 3.507812 L 1.679688 2.953125 L 2.792969 2.011719 L 3.265625 2.566406 C 4.5 4.027344 4.984375 5.3125 4.753906 6.5 C 4.425781 8.179688 2.679688 9.09375 1.746094 9.585938 Z M 8.722656 14.5625 L 8.382812 13.914062 C 7.859375 12.917969 7.226562 11.839844 6.308594 11.660156 C 5.59375 11.519531 4.679688 11.914062 3.597656 12.832031 L 3.039062 13.300781 L 2.097656 12.1875 L 2.652344 11.71875 C 4.113281 10.484375 5.398438 9.996094 6.585938 10.230469 C 8.269531 10.558594 9.183594 12.300781 9.671875 13.238281 L 10.011719 13.882812 Z M 12.277344 12.886719 L 11.804688 12.328125 C 10.570312 10.871094 10.082031 9.582031 10.316406 8.394531 C 10.644531 6.714844 12.386719 5.800781 13.324219 5.308594 L 13.972656 4.972656 L 14.648438 6.261719 L 14.003906 6.601562 C 13.003906 7.125 11.925781 7.757812 11.746094 8.675781 C 11.605469 9.390625 12 10.300781 12.917969 11.386719 L 13.390625 11.945312 Z M 9.0625 4.722656 C 8.867188 4.722656 8.675781 4.703125 8.484375 4.667969 C 6.800781 4.339844 5.886719 2.59375 5.394531 1.660156 L 5.058594 1.011719 L 6.347656 0.335938 L 6.6875 0.980469 C 7.210938 1.976562 7.847656 3.058594 8.765625 3.238281 C 9.476562 3.375 10.390625 2.984375 11.472656 2.066406 L 12.03125 1.59375 L 12.972656 2.707031 L 12.417969 3.179688 C 11.191406 4.214844 10.089844 4.722656 9.0625 4.722656 Z M 9.0625 4.722656 "/>
</g>
</svg>
