<?xml version="1.0" encoding="UTF-8"?>
<svg xmlns="http://www.w3.org/2000/svg" xmlns:xlink="http://www.w3.org/1999/xlink" width="15pt" height="15pt" viewBox="0 0 15 15" version="1.1">
<g id="surface1">
<path style=" stroke:none;fill-rule:nonzero;fill:rgb(36.470588%,67.843137%,92.54902%);fill-opacity:1;" d="M 9.523438 0.316406 L 3.28125 2.925781 L 8.503906 6.980469 C 9.601562 7.910156 11.160156 8.207031 12.574219 7.613281 C 14.585938 6.773438 15.53125 4.457031 14.6875 2.441406 C 13.847656 0.425781 11.535156 -0.527344 9.523438 0.316406 Z M 5.371094 7.785156 L 0.855469 4.285156 L 0.0585938 9.804688 C -0.164062 10.992188 0.265625 12.261719 1.289062 13.054688 C 2.746094 14.183594 4.839844 13.914062 5.964844 12.460938 C 7.09375 11.003906 6.828125 8.910156 5.371094 7.785156 Z M 11.761719 10.707031 L 8.363281 8.753906 L 8.351562 12.597656 C 8.316406 13.429688 8.726562 14.253906 9.496094 14.695312 C 10.59375 15.328125 11.988281 14.945312 12.613281 13.839844 C 13.238281 12.738281 12.859375 11.335938 11.761719 10.707031 Z M 11.761719 10.707031 "/>
</g>
</svg>
