<?xml version="1.0" encoding="UTF-8"?>
<svg xmlns="http://www.w3.org/2000/svg" xmlns:xlink="http://www.w3.org/1999/xlink" width="15pt" height="15pt" viewBox="0 0 15 15" version="1.1">
<g id="surface1">
<path style=" stroke:none;fill-rule:nonzero;fill:rgb(83.529412%,67.058824%,53.333333%);fill-opacity:1;" d="M 5.179688 9.167969 C 5.179688 9.167969 4.878906 7.648438 5.304688 4.636719 C 5.886719 4.824219 6.476562 5 6.667969 5 C 7.082031 5 8.332031 4.582031 8.332031 4.167969 C 8.332031 3.75 7.917969 3.332031 7.917969 3.332031 L 8.75 2.917969 C 9.167969 2.5 8.75 0 7.082031 0 C 4.167969 0 3.097656 2.917969 3.097656 2.917969 L 3.097656 2.921875 C 3.097656 2.921875 0.597656 7.5 0.597656 11.253906 C 0.621094 11.253906 0.179688 13.339844 0.597656 13.753906 C 1.011719 14.171875 2.679688 14.171875 2.679688 14.171875 C 6.847656 15.832031 14.582031 14.582031 14.582031 10.832031 C 14.582031 5.417969 6.429688 6.667969 5.179688 9.167969 Z M 5.179688 9.167969 "/>
<path style=" stroke:none;fill-rule:nonzero;fill:rgb(71.764706%,54.509804%,37.647059%);fill-opacity:1;" d="M 8.121094 13.4375 C 6.796875 13.4375 5.707031 12.902344 5.648438 12.871094 C 5.441406 12.769531 5.359375 12.519531 5.460938 12.316406 C 5.5625 12.109375 5.8125 12.023438 6.019531 12.128906 C 6.035156 12.136719 7.785156 12.984375 9.335938 12.394531 C 10.191406 12.066406 10.84375 11.347656 11.28125 10.261719 C 11.367188 10.046875 11.609375 9.945312 11.820312 10.03125 C 12.035156 10.117188 12.140625 10.359375 12.054688 10.570312 C 11.527344 11.886719 10.710938 12.761719 9.625 13.175781 C 9.121094 13.367188 8.605469 13.4375 8.121094 13.4375 Z M 8.121094 13.4375 "/>
</g>
</svg>
