<?xml version="1.0" encoding="UTF-8"?>
<svg xmlns="http://www.w3.org/2000/svg" xmlns:xlink="http://www.w3.org/1999/xlink" width="15pt" height="15pt" viewBox="0 0 15 15" version="1.1">
<g id="surface1">
<path style=" stroke:none;fill-rule:nonzero;fill:rgb(74.117647%,86.666667%,95.686275%);fill-opacity:1;" d="M 7.5 0.417969 C 3.359375 0.417969 0 3.027344 0 6.25 C 0 8.070312 1.074219 9.695312 2.75 10.765625 C 2.535156 11.726562 2.023438 13.152344 0.832031 14.582031 C 3.234375 14.183594 4.765625 13.015625 5.714844 11.910156 C 6.289062 12.019531 6.882812 12.082031 7.5 12.082031 C 11.640625 12.082031 15 9.472656 15 6.25 C 15 3.027344 11.640625 0.417969 7.5 0.417969 Z M 7.5 0.417969 "/>
<path style=" stroke:none;fill-rule:nonzero;fill:rgb(16.470588%,40.392157%,59.215686%);fill-opacity:1;" d="M 8.332031 6.25 C 8.332031 6.710938 7.960938 7.082031 7.5 7.082031 C 7.039062 7.082031 6.667969 6.710938 6.667969 6.25 C 6.667969 5.789062 7.039062 5.417969 7.5 5.417969 C 7.960938 5.417969 8.332031 5.789062 8.332031 6.25 Z M 8.332031 6.25 "/>
<path style=" stroke:none;fill-rule:nonzero;fill:rgb(16.470588%,40.392157%,59.215686%);fill-opacity:1;" d="M 11.667969 6.25 C 11.667969 6.710938 11.292969 7.082031 10.832031 7.082031 C 10.375 7.082031 10 6.710938 10 6.25 C 10 5.789062 10.375 5.417969 10.832031 5.417969 C 11.292969 5.417969 11.667969 5.789062 11.667969 6.25 Z M 11.667969 6.25 "/>
<path style=" stroke:none;fill-rule:nonzero;fill:rgb(16.470588%,40.392157%,59.215686%);fill-opacity:1;" d="M 5 6.25 C 5 6.710938 4.625 7.082031 4.167969 7.082031 C 3.707031 7.082031 3.332031 6.710938 3.332031 6.25 C 3.332031 5.789062 3.707031 5.417969 4.167969 5.417969 C 4.625 5.417969 5 5.789062 5 6.25 Z M 5 6.25 "/>
</g>
</svg>
