<?xml version="1.0" encoding="UTF-8"?>
<svg xmlns="http://www.w3.org/2000/svg" xmlns:xlink="http://www.w3.org/1999/xlink" width="15pt" height="15pt" viewBox="0 0 15 15" version="1.1">
<g id="surface1">
<path style=" stroke:none;fill-rule:nonzero;fill:rgb(74.117647%,86.666667%,95.686275%);fill-opacity:1;" d="M 15 6.25 C 15 4.519531 13.679688 3.097656 11.992188 2.933594 C 11.617188 1.253906 10.125 0 8.332031 0 C 6.261719 0 4.582031 1.484375 4.582031 3.554688 C 4.582031 4.035156 4.6875 4.765625 5.050781 5.132812 C 3.691406 5.207031 1.707031 5.25 0 5.007812 C 0 5.007812 2.007812 6.601562 6.398438 6.667969 C 6.335938 6.796875 6.292969 7.261719 6.269531 7.410156 C 6.167969 7.410156 6.023438 7.414062 5.832031 7.414062 C 2.5 7.414062 0 7.082031 0 7.082031 C 0 7.082031 1.25 8.429688 6.417969 8.792969 C 6.25 8.847656 6.25 9.582031 6.25 9.582031 C 2.917969 9.582031 0 9.167969 0 9.167969 C 1.402344 10.335938 2.800781 10.847656 3.761719 11.074219 C 3.757812 11.132812 3.75 11.191406 3.75 11.25 C 3.75 12.628906 4.871094 13.332031 6.25 13.332031 C 6.453125 13.332031 6.648438 13.308594 6.839844 13.261719 C 7.503906 14.304688 8.667969 15 10 15 C 12.070312 15 13.75 13.320312 13.75 11.25 C 13.75 10.503906 13.53125 9.8125 13.15625 9.230469 C 14.246094 8.683594 15 7.554688 15 6.25 Z M 15 6.25 "/>
</g>
</svg>
