<?xml version="1.0" encoding="UTF-8"?>
<svg xmlns="http://www.w3.org/2000/svg" xmlns:xlink="http://www.w3.org/1999/xlink" width="15pt" height="15pt" viewBox="0 0 15 15" version="1.1">
<g id="surface1">
<path style=" stroke:none;fill-rule:nonzero;fill:rgb(100%,85.098039%,51.372549%);fill-opacity:1;" d="M 12.082031 4.609375 C 12.082031 7.292969 10 7.707031 10 10.207031 C 10 11.5 8.699219 11.609375 7.707031 11.609375 C 6.851562 11.609375 4.964844 11.285156 4.964844 10.207031 C 4.964844 7.707031 2.917969 7.292969 2.917969 4.609375 C 2.917969 2.09375 5.117188 0.0585938 7.535156 0.0585938 C 9.953125 0.0585938 12.082031 2.09375 12.082031 4.609375 Z M 12.082031 4.609375 "/>
<path style=" stroke:none;fill-rule:nonzero;fill:rgb(80%,83.921569%,86.666667%);fill-opacity:1;" d="M 9.234375 13.542969 C 9.234375 13.886719 8.304688 14.582031 7.5 14.582031 C 6.695312 14.582031 5.765625 13.886719 5.765625 13.542969 C 5.765625 13.195312 6.695312 13.332031 7.5 13.332031 C 8.304688 13.332031 9.234375 13.195312 9.234375 13.542969 Z M 9.234375 13.542969 "/>
<path style=" stroke:none;fill-rule:nonzero;fill:rgb(100%,80%,30.196078%);fill-opacity:1;" d="M 9.460938 4.289062 C 9.296875 4.125 9.035156 4.125 8.871094 4.289062 L 7.5 5.660156 L 6.128906 4.289062 C 5.964844 4.125 5.703125 4.125 5.539062 4.289062 C 5.375 4.453125 5.375 4.714844 5.539062 4.878906 L 7.082031 6.421875 L 7.082031 10.832031 C 7.082031 11.0625 7.269531 11.25 7.5 11.25 C 7.730469 11.25 7.917969 11.0625 7.917969 10.832031 L 7.917969 6.421875 L 9.460938 4.878906 C 9.625 4.714844 9.625 4.453125 9.460938 4.289062 Z M 9.460938 4.289062 "/>
<path style=" stroke:none;fill-rule:nonzero;fill:rgb(60%,66.666667%,70.980392%);fill-opacity:1;" d="M 10 12.917969 C 10 13.375 9.625 13.75 9.167969 13.75 L 5.832031 13.75 C 5.375 13.75 5 13.375 5 12.917969 L 5 10.417969 L 10 10.417969 Z M 10 12.917969 "/>
<path style=" stroke:none;fill-rule:nonzero;fill:rgb(80%,83.921569%,86.666667%);fill-opacity:1;" d="M 5 13.332031 C 4.800781 13.332031 4.621094 13.1875 4.589844 12.984375 C 4.550781 12.757812 4.703125 12.542969 4.933594 12.503906 L 9.933594 11.671875 C 10.160156 11.632812 10.375 11.789062 10.410156 12.015625 C 10.449219 12.242188 10.296875 12.457031 10.066406 12.496094 L 5.066406 13.328125 C 5.046875 13.332031 5.023438 13.332031 5 13.332031 Z M 5 11.667969 C 4.800781 11.667969 4.621094 11.523438 4.589844 11.316406 C 4.550781 11.089844 4.703125 10.875 4.933594 10.839844 L 9.933594 10.003906 C 10.160156 9.964844 10.375 10.121094 10.410156 10.347656 C 10.449219 10.574219 10.296875 10.789062 10.066406 10.828125 L 5.066406 11.660156 C 5.046875 11.664062 5.023438 11.667969 5 11.667969 Z M 5 11.667969 "/>
</g>
</svg>
