<?xml version="1.0" encoding="UTF-8"?>
<svg xmlns="http://www.w3.org/2000/svg" xmlns:xlink="http://www.w3.org/1999/xlink" width="15pt" height="15pt" viewBox="0 0 15 15" version="1.1">
<g id="surface1">
<path style=" stroke:none;fill-rule:nonzero;fill:rgb(25.882353%,53.72549%,75.686275%);fill-opacity:1;" d="M 13.75 7.917969 C 14.246094 7.917969 14.582031 8.246094 14.582031 8.75 C 14.582031 9.195312 14.171875 9.582031 13.75 9.582031 L 9.167969 9.582031 C 8.542969 9.582031 8.332031 9.246094 8.332031 8.75 C 8.332031 8.515625 8.597656 8.128906 8.75 7.917969 L 12.082031 2.917969 L 9.167969 2.917969 C 8.695312 2.917969 8.332031 2.566406 8.332031 2.082031 C 8.332031 1.636719 8.71875 1.25 9.167969 1.25 L 13.75 1.25 C 14.433594 1.25 14.582031 1.671875 14.582031 2.082031 C 14.582031 2.34375 14.320312 2.714844 14.167969 2.917969 L 10.832031 7.917969 Z M 7.082031 10 C 7.347656 10 7.5 10.148438 7.5 10.417969 C 7.5 10.65625 7.308594 10.832031 7.082031 10.832031 L 4.582031 10.832031 C 4.25 10.832031 4.167969 10.679688 4.167969 10.417969 C 4.167969 10.292969 4.308594 10.113281 4.390625 10 L 6.25 7.5 L 4.582031 7.5 C 4.332031 7.5 4.167969 7.339844 4.167969 7.082031 C 4.167969 6.84375 4.34375 6.667969 4.582031 6.667969 L 7.082031 6.667969 C 7.449219 6.667969 7.5 6.863281 7.5 7.082031 C 7.5 7.222656 7.359375 7.449219 7.277344 7.554688 L 5.417969 10 Z M 3.332031 12.917969 C 3.597656 12.917969 3.75 13.0625 3.75 13.332031 C 3.75 13.570312 3.558594 13.75 3.332031 13.75 L 0.832031 13.75 C 0.5 13.75 0.417969 13.597656 0.417969 13.332031 C 0.417969 13.207031 0.558594 13.03125 0.640625 12.917969 L 2.5 10.417969 L 0.832031 10.417969 C 0.582031 10.417969 0.417969 10.257812 0.417969 10 C 0.417969 9.761719 0.59375 9.582031 0.832031 9.582031 L 3.332031 9.582031 C 3.699219 9.582031 3.75 9.78125 3.75 10 C 3.75 10.136719 3.609375 10.367188 3.527344 10.472656 L 1.667969 12.917969 Z M 3.332031 12.917969 "/>
</g>
</svg>
