<?xml version="1.0" encoding="UTF-8"?>
<svg xmlns="http://www.w3.org/2000/svg" xmlns:xlink="http://www.w3.org/1999/xlink" width="15pt" height="15pt" viewBox="0 0 15 15" version="1.1">
<g id="surface1">
<path style=" stroke:none;fill-rule:nonzero;fill:rgb(33.333333%,67.45098%,93.333333%);fill-opacity:1;" d="M 7.027344 6.554688 C 7.289062 6.816406 7.710938 6.816406 7.972656 6.554688 L 10.570312 3.960938 C 10.828125 3.699219 10.828125 3.277344 10.570312 3.015625 L 7.972656 0.417969 C 7.710938 0.160156 7.289062 0.160156 7.027344 0.417969 L 4.429688 3.015625 C 4.171875 3.277344 4.171875 3.699219 4.429688 3.960938 Z M 11.039062 10.566406 C 11.300781 10.828125 11.722656 10.828125 11.984375 10.566406 L 14.582031 7.972656 C 14.84375 7.710938 14.84375 7.289062 14.582031 7.027344 L 11.984375 4.433594 C 11.722656 4.171875 11.300781 4.171875 11.039062 4.433594 L 8.445312 7.027344 C 8.183594 7.289062 8.183594 7.710938 8.445312 7.972656 Z M 10.566406 11.039062 L 7.972656 8.445312 C 7.710938 8.183594 7.289062 8.183594 7.027344 8.445312 L 4.433594 11.039062 C 4.171875 11.300781 4.171875 11.722656 4.433594 11.984375 L 7.027344 14.582031 C 7.289062 14.839844 7.710938 14.839844 7.972656 14.582031 L 10.566406 11.984375 C 10.828125 11.722656 10.828125 11.300781 10.566406 11.039062 Z M 6.554688 7.027344 L 3.960938 4.433594 C 3.699219 4.171875 3.277344 4.171875 3.015625 4.433594 L 0.417969 7.027344 C 0.160156 7.289062 0.160156 7.710938 0.417969 7.972656 L 3.015625 10.570312 C 3.277344 10.828125 3.699219 10.828125 3.960938 10.570312 L 6.554688 7.972656 C 6.816406 7.710938 6.816406 7.289062 6.554688 7.027344 Z M 6.554688 7.027344 "/>
<path style=" stroke:none;fill-rule:nonzero;fill:rgb(23.137255%,53.333333%,76.470588%);fill-opacity:1;" d="M 6.554688 7.027344 L 5.214844 5.6875 C 4.820312 6.1875 4.582031 6.816406 4.582031 7.5 C 4.582031 8.183594 4.820312 8.8125 5.214844 9.3125 L 6.554688 7.972656 C 6.816406 7.710938 6.816406 7.289062 6.554688 7.027344 Z M 9.3125 9.785156 L 7.972656 8.445312 C 7.710938 8.183594 7.289062 8.183594 7.027344 8.445312 L 5.6875 9.785156 C 6.1875 10.179688 6.816406 10.417969 7.5 10.417969 C 8.183594 10.417969 8.8125 10.179688 9.3125 9.785156 Z M 8.445312 7.972656 L 9.785156 9.3125 C 10.179688 8.8125 10.417969 8.183594 10.417969 7.5 C 10.417969 6.816406 10.179688 6.1875 9.785156 5.6875 L 8.445312 7.027344 C 8.183594 7.289062 8.183594 7.710938 8.445312 7.972656 Z M 7.972656 6.554688 L 9.3125 5.214844 C 8.8125 4.820312 8.183594 4.582031 7.5 4.582031 C 6.816406 4.582031 6.1875 4.820312 5.6875 5.214844 L 7.027344 6.554688 C 7.289062 6.816406 7.710938 6.816406 7.972656 6.554688 Z M 7.972656 6.554688 "/>
<path style=" stroke:none;fill-rule:nonzero;fill:rgb(73.333333%,86.666667%,96.078431%);fill-opacity:1;" d="M 9.582031 7.5 C 9.582031 8.652344 8.652344 9.582031 7.5 9.582031 C 6.347656 9.582031 5.417969 8.652344 5.417969 7.5 C 5.417969 6.347656 6.347656 5.417969 7.5 5.417969 C 8.652344 5.417969 9.582031 6.347656 9.582031 7.5 Z M 9.582031 7.5 "/>
</g>
</svg>
