<?xml version="1.0" encoding="UTF-8"?>
<svg xmlns="http://www.w3.org/2000/svg" xmlns:xlink="http://www.w3.org/1999/xlink" width="15pt" height="15pt" viewBox="0 0 15 15" version="1.1">
<g id="surface1">
<path style=" stroke:none;fill-rule:nonzero;fill:rgb(73.333333%,10.196078%,20.392157%);fill-opacity:1;" d="M 9.167969 0 L 7.5 3.34375 L 5.417969 1.253906 L 5.417969 4.179688 L 1.25 3.34375 L 4.582031 6.691406 L 0 9.199219 L 5 9.199219 L 2.5 14.214844 L 7.5 10.871094 L 12.082031 15.050781 L 10.832031 9.199219 L 15 9.199219 L 11.667969 6.691406 L 15 2.925781 L 10 4.179688 Z M 9.167969 0 "/>
<path style=" stroke:none;fill-rule:nonzero;fill:rgb(98.823529%,67.058824%,25.098039%);fill-opacity:1;" d="M 9.546875 5.386719 L 10.324219 5.191406 L 12.5 4.644531 L 11.089844 6.234375 L 10.542969 6.855469 L 11.203125 7.351562 L 12.421875 8.269531 L 9.957031 8.269531 L 10.152344 9.195312 L 10.800781 12.21875 L 8.363281 9.996094 L 7.925781 9.597656 L 7.429688 9.925781 L 5.246094 11.386719 L 6.25 9.375 L 6.800781 8.269531 L 3.984375 8.269531 L 5.550781 7.414062 L 6.445312 6.925781 L 5.726562 6.203125 L 4.457031 4.929688 L 5.800781 5.199219 L 6.710938 5.382812 L 6.710938 3.621094 L 7.3125 4.226562 L 8.0625 4.976562 L 8.535156 4.027344 L 9.0625 2.960938 "/>
<path style=" stroke:none;fill-rule:nonzero;fill:rgb(96.078431%,97.254902%,98.039216%);fill-opacity:1;" d="M 8.964844 5.957031 L 9.28125 5.878906 L 10.183594 5.652344 L 9.601562 6.308594 L 9.375 6.566406 L 9.648438 6.769531 L 10.148438 7.148438 L 9.132812 7.148438 L 9.214844 7.53125 L 9.480469 8.78125 L 8.476562 7.863281 L 8.292969 7.699219 L 8.089844 7.835938 L 7.1875 8.4375 L 7.601562 7.605469 L 7.828125 7.148438 L 6.667969 7.148438 L 7.3125 6.796875 L 7.683594 6.59375 L 7.386719 6.296875 L 6.863281 5.769531 L 7.414062 5.882812 L 7.792969 5.957031 L 7.792969 5.230469 L 8.042969 5.480469 L 8.347656 5.789062 L 8.542969 5.398438 L 8.761719 4.957031 "/>
</g>
</svg>
