<?xml version="1.0" encoding="UTF-8"?>
<svg xmlns="http://www.w3.org/2000/svg" xmlns:xlink="http://www.w3.org/1999/xlink" width="15pt" height="15pt" viewBox="0 0 15 15" version="1.1">
<g id="surface1">
<path style=" stroke:none;fill-rule:nonzero;fill:rgb(73.333333%,10.196078%,20.392157%);fill-opacity:1;" d="M 0.71875 8.75 C 0.464844 8.75 0.324219 8.644531 0.25 8.554688 C 0.179688 8.464844 0.105469 8.308594 0.15625 8.066406 L 1.292969 2.773438 L 0.578125 2.816406 L 0.574219 2.816406 C 0.359375 2.816406 0.203125 2.746094 0.105469 2.625 C 0.0117188 2.511719 -0.0195312 2.363281 0.0117188 2.214844 C 0.0742188 1.921875 0.378906 1.679688 0.707031 1.660156 L 2.375 1.566406 C 2.410156 1.566406 2.4375 1.5625 2.46875 1.5625 C 2.527344 1.5625 2.691406 1.5625 2.792969 1.691406 C 2.898438 1.820312 2.863281 1.984375 2.851562 2.039062 L 1.550781 8.105469 C 1.472656 8.472656 1.167969 8.726562 0.773438 8.75 Z M 5.195312 7.917969 C 4.597656 7.917969 4.097656 7.691406 3.753906 7.265625 C 3.269531 6.667969 3.144531 5.746094 3.390625 4.601562 C 3.820312 2.597656 5.140625 1.191406 6.683594 1.105469 C 7.34375 1.066406 7.890625 1.292969 8.261719 1.75 C 8.746094 2.347656 8.875 3.269531 8.628906 4.414062 C 8.199219 6.417969 6.875 7.824219 5.335938 7.910156 C 5.289062 7.914062 5.242188 7.917969 5.195312 7.917969 Z M 6.617188 2.1875 L 6.5625 2.191406 C 5.753906 2.238281 5.082031 3.152344 4.761719 4.636719 C 4.5625 5.5625 4.601562 6.257812 4.875 6.597656 C 5 6.75 5.171875 6.828125 5.394531 6.828125 L 5.453125 6.824219 C 6.261719 6.78125 6.933594 5.867188 7.253906 4.382812 C 7.453125 3.453125 7.410156 2.757812 7.140625 2.421875 C 7.015625 2.265625 6.839844 2.1875 6.617188 2.1875 Z M 11.449219 7.234375 C 10.847656 7.234375 10.347656 7.007812 10.003906 6.582031 C 9.519531 5.984375 9.394531 5.0625 9.640625 3.917969 C 10.070312 1.914062 11.394531 0.507812 12.933594 0.421875 C 13.601562 0.382812 14.140625 0.609375 14.511719 1.066406 C 14.996094 1.664062 15.125 2.585938 14.878906 3.730469 C 14.449219 5.734375 13.125 7.140625 11.585938 7.230469 C 11.539062 7.234375 11.492188 7.234375 11.449219 7.234375 Z M 12.871094 1.503906 L 12.8125 1.507812 C 12.003906 1.554688 11.332031 2.46875 11.011719 3.953125 C 10.8125 4.878906 10.855469 5.578125 11.125 5.914062 C 11.25 6.066406 11.425781 6.144531 11.648438 6.144531 L 11.707031 6.140625 C 12.515625 6.097656 13.1875 5.183594 13.503906 3.699219 C 13.703125 2.769531 13.664062 2.074219 13.390625 1.738281 C 13.269531 1.582031 13.09375 1.503906 12.871094 1.503906 Z M 4.582031 14.582031 C 4.246094 14.582031 3.929688 14.378906 3.804688 14.042969 C 3.640625 13.613281 3.859375 13.132812 4.289062 12.96875 C 4.429688 12.917969 7.789062 11.675781 12.847656 11.253906 C 13.304688 11.214844 13.707031 11.554688 13.746094 12.015625 C 13.785156 12.472656 13.445312 12.875 12.984375 12.914062 C 8.15625 13.316406 4.90625 14.519531 4.875 14.53125 C 4.78125 14.566406 4.679688 14.582031 4.582031 14.582031 Z M 0.832031 12.082031 C 0.5 12.082031 0.183594 11.878906 0.0546875 11.546875 C -0.109375 11.121094 0.105469 10.636719 0.535156 10.472656 C 0.761719 10.386719 6.164062 8.335938 14.121094 7.917969 C 14.585938 7.890625 14.972656 8.246094 15 8.707031 C 15.023438 9.164062 14.671875 9.558594 14.210938 9.582031 C 6.535156 9.988281 1.183594 12.007812 1.132812 12.027344 C 1.035156 12.066406 0.933594 12.082031 0.832031 12.082031 Z M 0.832031 12.082031 "/>
</g>
</svg>
