<?xml version="1.0" encoding="UTF-8"?>
<svg xmlns="http://www.w3.org/2000/svg" xmlns:xlink="http://www.w3.org/1999/xlink" width="15pt" height="15pt" viewBox="0 0 15 15" version="1.1">
<g id="surface1">
<path style=" stroke:none;fill-rule:nonzero;fill:rgb(65.490196%,82.352941%,54.509804%);fill-opacity:1;" d="M 4.78125 4.265625 C 3.207031 6.453125 0.445312 7.488281 0.445312 7.488281 C -0.0703125 7.925781 0.363281 8.4375 0.363281 8.4375 L 4.714844 13.589844 C 4.714844 13.589844 4.933594 13.847656 5.664062 13.667969 C 5.664062 13.667969 8.425781 12.632812 10 10.445312 C 11.625 8.191406 14.554688 7.480469 14.554688 7.480469 C 15.070312 7.042969 14.632812 6.527344 14.632812 6.527344 L 10.285156 1.378906 C 10.285156 1.378906 10.066406 1.121094 9.335938 1.300781 C 9.335938 1.300781 6.40625 2.011719 4.78125 4.265625 Z M 4.78125 4.265625 "/>
<path style=" stroke:none;fill-rule:nonzero;fill:rgb(60.392157%,66.666667%,70.588235%);fill-opacity:1;" d="M 5.949219 3.035156 C 5.527344 3.382812 5.125 3.789062 4.78125 4.265625 C 4.441406 4.738281 4.046875 5.152344 3.632812 5.519531 L 8.855469 11.699219 C 9.265625 11.332031 9.660156 10.917969 10 10.445312 C 10.34375 9.96875 10.75 9.566406 11.167969 9.21875 Z M 5.949219 3.035156 "/>
<path style=" stroke:none;fill-rule:nonzero;fill:rgb(40.392157%,45.882353%,49.803922%);fill-opacity:1;" d="M 6.03125 9.398438 C 5.382812 8.628906 4.011719 9.875 3.621094 9.414062 C 3.429688 9.1875 3.550781 8.898438 3.800781 8.6875 C 4.21875 8.332031 4.523438 8.539062 4.710938 8.378906 C 4.847656 8.265625 4.839844 8.125 4.757812 8.03125 C 4.574219 7.8125 4.097656 7.925781 3.730469 8.140625 L 3.550781 7.925781 C 3.4375 7.792969 3.238281 7.777344 3.105469 7.890625 C 2.972656 8 2.957031 8.199219 3.070312 8.332031 L 3.253906 8.550781 C 2.972656 8.925781 2.878906 9.421875 3.210938 9.816406 C 3.835938 10.554688 5.222656 9.328125 5.660156 9.847656 C 5.8125 10.027344 5.769531 10.371094 5.453125 10.640625 C 4.972656 11.042969 4.539062 10.855469 4.347656 11.019531 C 4.25 11.097656 4.234375 11.25 4.335938 11.371094 C 4.496094 11.5625 5.011719 11.519531 5.503906 11.214844 L 5.707031 11.457031 C 5.820312 11.589844 6.019531 11.605469 6.152344 11.492188 C 6.285156 11.378906 6.300781 11.183594 6.1875 11.050781 L 5.984375 10.808594 C 5.984375 10.808594 5.980469 10.804688 5.976562 10.804688 C 6.308594 10.394531 6.421875 9.859375 6.03125 9.398438 Z M 6.03125 9.398438 "/>
<path style=" stroke:none;fill-rule:nonzero;fill:rgb(88.235294%,90.980392%,92.941176%);fill-opacity:1;" d="M 13.523438 13.578125 C 13.527344 13.574219 13.53125 13.574219 13.535156 13.570312 C 13.5625 13.542969 13.585938 13.507812 13.609375 13.476562 C 13.628906 13.457031 13.648438 13.433594 13.664062 13.414062 C 13.679688 13.390625 13.691406 13.371094 13.703125 13.347656 C 14.296875 12.4375 13.90625 10.894531 12.738281 9.722656 C 11.566406 8.550781 10.019531 8.164062 9.109375 8.753906 C 9.085938 8.765625 9.066406 8.78125 9.046875 8.792969 C 9.023438 8.8125 9 8.832031 8.980469 8.847656 C 8.949219 8.871094 8.917969 8.894531 8.890625 8.921875 C 8.886719 8.925781 8.882812 8.929688 8.878906 8.933594 C 8.875 8.941406 8.871094 8.941406 8.863281 8.949219 L 8.867188 8.949219 C 8.449219 9.390625 8.445312 10.078125 8.863281 10.496094 C 9.285156 10.917969 9.96875 10.910156 10.410156 10.492188 L 10.417969 10.5 C 10.40625 10.507812 10.398438 10.511719 10.390625 10.519531 C 9.949219 10.960938 9.9375 11.664062 10.363281 12.09375 C 10.792969 12.519531 11.496094 12.511719 11.9375 12.070312 C 11.945312 12.0625 11.953125 12.050781 11.960938 12.042969 L 11.964844 12.046875 C 11.546875 12.488281 11.542969 13.175781 11.960938 13.59375 C 12.382812 14.015625 13.066406 14.007812 13.507812 13.59375 L 13.511719 13.59375 C 13.515625 13.589844 13.519531 13.582031 13.523438 13.578125 Z M 13.523438 13.578125 "/>
<path style=" stroke:none;fill-rule:nonzero;fill:rgb(80%,83.921569%,86.666667%);fill-opacity:1;" d="M 8.867188 10.511719 C 9.242188 10.890625 9.832031 10.921875 10.269531 10.621094 C 10.453125 10.308594 10.503906 10.011719 10.503906 9.917969 C 9.585938 10.605469 8.765625 9.921875 8.582031 9.515625 C 8.503906 9.867188 8.597656 10.246094 8.867188 10.511719 Z M 11.90625 12.113281 C 12.03125 11.9375 12.128906 11.769531 12.171875 11.65625 C 11.585938 12.191406 10.46875 11.800781 10.128906 10.949219 C 9.980469 11.34375 10.054688 11.800781 10.367188 12.109375 C 10.785156 12.527344 11.464844 12.523438 11.90625 12.113281 Z M 13.511719 13.609375 L 13.523438 13.597656 C 13.527344 13.59375 13.53125 13.589844 13.535156 13.585938 C 13.566406 13.558594 13.585938 13.527344 13.613281 13.496094 C 13.628906 13.472656 13.648438 13.453125 13.664062 13.429688 C 13.679688 13.410156 13.691406 13.386719 13.707031 13.367188 C 13.734375 13.324219 13.746094 13.277344 13.769531 13.230469 C 12.714844 13.703125 11.929688 12.902344 11.710938 12.503906 C 11.585938 12.886719 11.667969 13.316406 11.964844 13.613281 C 12.382812 14.03125 13.066406 14.027344 13.511719 13.609375 Z M 13.511719 13.609375 "/>
<path style=" stroke:none;fill-rule:nonzero;fill:rgb(88.235294%,90.980392%,92.941176%);fill-opacity:1;" d="M 5.816406 5.207031 L 5.828125 5.199219 C 5.855469 5.171875 5.878906 5.136719 5.902344 5.105469 C 5.917969 5.085938 5.9375 5.066406 5.953125 5.042969 C 5.96875 5.019531 5.980469 5 5.996094 4.980469 C 6.585938 4.066406 6.199219 2.523438 5.027344 1.351562 C 3.855469 0.179688 2.3125 -0.207031 1.398438 0.382812 C 1.378906 0.394531 1.355469 0.410156 1.335938 0.421875 C 1.3125 0.441406 1.292969 0.457031 1.273438 0.476562 C 1.242188 0.5 1.207031 0.523438 1.179688 0.550781 C 1.175781 0.554688 1.171875 0.558594 1.171875 0.5625 C 1.167969 0.566406 1.160156 0.570312 1.15625 0.574219 L 1.15625 0.578125 C 0.742188 1.019531 0.734375 1.703125 1.15625 2.125 C 1.574219 2.542969 2.261719 2.539062 2.703125 2.121094 L 2.707031 2.128906 C 2.699219 2.136719 2.6875 2.140625 2.679688 2.148438 C 2.238281 2.589844 2.230469 3.292969 2.65625 3.722656 C 3.082031 4.148438 3.789062 4.140625 4.230469 3.699219 C 4.238281 3.691406 4.242188 3.679688 4.25 3.671875 L 4.253906 3.675781 C 3.839844 4.117188 3.832031 4.804688 4.253906 5.222656 C 4.671875 5.640625 5.359375 5.636719 5.800781 5.21875 L 5.800781 5.222656 C 5.808594 5.21875 5.808594 5.210938 5.816406 5.207031 Z M 5.816406 5.207031 "/>
<path style=" stroke:none;fill-rule:nonzero;fill:rgb(80%,83.921569%,86.666667%);fill-opacity:1;" d="M 1.15625 2.125 C 1.53125 2.503906 2.121094 2.535156 2.558594 2.234375 C 2.742188 1.921875 2.792969 1.625 2.792969 1.53125 C 1.875 2.214844 1.054688 1.535156 0.871094 1.125 C 0.792969 1.480469 0.886719 1.855469 1.15625 2.125 Z M 4.199219 3.722656 C 4.320312 3.550781 4.417969 3.382812 4.460938 3.265625 C 3.875 3.804688 2.757812 3.410156 2.417969 2.558594 C 2.269531 2.957031 2.34375 3.410156 2.65625 3.722656 C 3.074219 4.140625 3.753906 4.136719 4.199219 3.722656 Z M 5.800781 5.222656 C 5.808594 5.21875 5.808594 5.214844 5.816406 5.207031 L 5.828125 5.199219 C 5.855469 5.171875 5.878906 5.136719 5.902344 5.105469 C 5.917969 5.085938 5.9375 5.066406 5.953125 5.042969 C 5.96875 5.023438 5.980469 5 5.996094 4.980469 C 6.023438 4.9375 6.035156 4.886719 6.058594 4.84375 C 5.007812 5.316406 4.21875 4.515625 4 4.117188 C 3.875 4.5 3.957031 4.925781 4.253906 5.222656 C 4.671875 5.644531 5.355469 5.636719 5.800781 5.222656 Z M 5.800781 5.222656 "/>
</g>
</svg>
