<?xml version="1.0" encoding="UTF-8"?>
<svg xmlns="http://www.w3.org/2000/svg" xmlns:xlink="http://www.w3.org/1999/xlink" width="15pt" height="15pt" viewBox="0 0 15 15" version="1.1">
<g id="surface1">
<path style=" stroke:none;fill-rule:nonzero;fill:rgb(19.215686%,21.568627%,23.921569%);fill-opacity:1;" d="M 1.667969 15 C 1.667969 15 0 15 0 13.332031 L 0 1.667969 C 0 1.667969 0 0 1.667969 0 L 12.5 0 C 12.917969 0 13.332031 0.417969 13.332031 0.417969 L 14.582031 1.667969 C 14.582031 1.667969 15 2.082031 15 2.5 L 15 13.332031 C 15 13.332031 15 15 13.332031 15 Z M 1.667969 15 "/>
<path style=" stroke:none;fill-rule:nonzero;fill:rgb(33.333333%,67.45098%,93.333333%);fill-opacity:1;" d="M 2.082031 7.917969 L 2.082031 7.5 C 2.082031 7.5 2.082031 6.667969 2.917969 6.667969 L 11.667969 6.667969 C 12.5 6.667969 12.5 7.5 12.5 7.5 L 12.5 7.917969 Z M 2.082031 7.917969 "/>
<path style=" stroke:none;fill-rule:nonzero;fill:rgb(88.235294%,90.980392%,92.941176%);fill-opacity:1;" d="M 2.082031 13.34375 L 2.082031 7.917969 L 12.5 7.917969 L 12.5 13.332031 C 12.5 13.332031 12.5 14.167969 11.667969 14.167969 L 2.917969 14.167969 C 2.082031 14.167969 2.082031 13.34375 2.082031 13.34375 Z M 4.167969 1.25 C 4.167969 1.25 4.167969 0.832031 4.582031 0.832031 L 12.082031 0.832031 C 12.519531 0.832031 12.5 1.25 12.5 1.25 L 12.5 5.417969 C 12.5 5.417969 12.5 5.832031 12.082031 5.832031 L 4.582031 5.832031 C 4.582031 5.832031 4.167969 5.832031 4.167969 5.417969 Z M 9.167969 5.417969 L 11.25 5.417969 L 11.25 1.25 L 9.167969 1.25 Z M 9.167969 5.417969 "/>
</g>
</svg>
