<?xml version="1.0" encoding="UTF-8"?>
<svg xmlns="http://www.w3.org/2000/svg" xmlns:xlink="http://www.w3.org/1999/xlink" width="15pt" height="15pt" viewBox="0 0 15 15" version="1.1">
<g id="surface1">
<path style=" stroke:none;fill-rule:nonzero;fill:rgb(16.078431%,18.431373%,20%);fill-opacity:1;" d="M 12.003906 9.671875 C 12.003906 6.472656 6.109375 6.683594 6.109375 4.753906 C 6.109375 3.816406 7.003906 3.363281 8.042969 3.363281 C 9.785156 3.363281 10.09375 4.480469 10.882812 4.480469 C 11.445312 4.480469 11.714844 4.128906 11.714844 3.734375 C 11.714844 2.816406 10.324219 2.125 8.988281 1.882812 L 8.988281 1 C 8.988281 0.445312 8.542969 0 7.988281 0 C 7.4375 0 6.988281 0.445312 6.988281 1 L 6.988281 1.914062 C 5.535156 2.246094 4.285156 3.253906 4.285156 4.898438 C 4.285156 7.96875 10.179688 7.84375 10.179688 10 C 10.179688 10.746094 9.371094 11.496094 8.042969 11.496094 C 6.050781 11.496094 5.386719 10.148438 4.578125 10.148438 C 4.183594 10.148438 3.828125 10.476562 3.828125 10.976562 C 3.828125 11.773438 5.160156 12.726562 6.992188 12.996094 L 6.988281 13 L 6.988281 14 C 6.988281 14.554688 7.4375 15 7.992188 15 C 8.542969 15 8.988281 14.554688 8.988281 14 L 8.988281 13 C 8.988281 12.988281 8.984375 12.980469 8.984375 12.96875 C 10.628906 12.664062 12.003906 11.589844 12.003906 9.671875 Z M 12.003906 9.671875 "/>
</g>
</svg>
