<?xml version="1.0" encoding="UTF-8"?>
<svg xmlns="http://www.w3.org/2000/svg" xmlns:xlink="http://www.w3.org/1999/xlink" width="15pt" height="15pt" viewBox="0 0 15 15" version="1.1">
<g id="surface1">
<path style=" stroke:none;fill-rule:nonzero;fill:rgb(46.666667%,69.803922%,33.333333%);fill-opacity:1;" d="M 15.015625 13.332031 C 15.015625 14.253906 14.269531 15 13.351562 15 L 1.683594 15 C 0.765625 15 0.015625 14.253906 0.015625 13.332031 L 0.015625 1.667969 C 0.015625 0.746094 0.765625 0 1.683594 0 L 13.351562 0 C 14.269531 0 15.015625 0.746094 15.015625 1.667969 Z M 15.015625 13.332031 "/>
<path style=" stroke:none;fill-rule:nonzero;fill:rgb(100%,100%,100%);fill-opacity:1;" d="M 4.125 6.199219 L 2.414062 6.199219 C 2.125 6.199219 1.902344 6.0625 1.902344 5.789062 C 1.902344 5.511719 2.125 5.375 2.414062 5.375 L 3.613281 5.375 L 1.613281 2.292969 C 1.492188 2.105469 1.429688 1.96875 1.429688 1.792969 C 1.429688 1.554688 1.664062 1.382812 1.863281 1.382812 C 2.066406 1.382812 2.265625 1.46875 2.4375 1.730469 L 4.671875 5.089844 L 6.90625 1.730469 C 7.082031 1.46875 7.28125 1.382812 7.480469 1.382812 C 7.679688 1.382812 7.917969 1.558594 7.917969 1.792969 C 7.917969 1.96875 7.855469 2.105469 7.730469 2.292969 L 5.734375 5.375 L 6.929688 5.375 C 7.21875 5.375 7.441406 5.511719 7.441406 5.789062 C 7.441406 6.0625 7.21875 6.199219 6.929688 6.199219 L 5.222656 6.199219 L 5.222656 7.082031 L 6.929688 7.082031 C 7.21875 7.082031 7.441406 7.222656 7.441406 7.496094 C 7.441406 7.769531 7.21875 7.90625 6.929688 7.90625 L 5.222656 7.90625 L 5.222656 9.828125 C 5.222656 10.191406 4.996094 10.417969 4.671875 10.417969 C 4.347656 10.417969 4.125 10.191406 4.125 9.828125 L 4.125 7.90625 L 2.414062 7.90625 C 2.125 7.90625 1.902344 7.769531 1.902344 7.496094 C 1.902344 7.222656 2.125 7.082031 2.414062 7.082031 L 4.125 7.082031 Z M 4.125 6.199219 "/>
<path style=" stroke:none;fill-rule:nonzero;fill:rgb(100%,100%,100%);fill-opacity:1;" d="M 1.667969 14.167969 C 1.382812 14.167969 1.109375 14.023438 0.953125 13.761719 C 0.714844 13.367188 0.84375 12.855469 1.238281 12.617188 L 3.320312 11.367188 C 3.53125 11.242188 3.78125 11.214844 4.011719 11.292969 L 5.960938 11.941406 L 7.265625 10.3125 C 7.496094 10.027344 7.882812 9.925781 8.226562 10.058594 L 9.488281 10.566406 L 10.460938 7.652344 C 10.5 7.53125 10.570312 7.417969 10.660156 7.328125 L 12.742188 5.246094 C 13.070312 4.917969 13.597656 4.917969 13.921875 5.246094 C 14.246094 5.570312 14.246094 6.097656 13.921875 6.421875 L 11.976562 8.367188 L 10.789062 11.929688 C 10.71875 12.148438 10.558594 12.328125 10.351562 12.421875 C 10.140625 12.519531 9.902344 12.527344 9.691406 12.441406 L 8.179688 11.835938 L 6.898438 13.4375 C 6.683594 13.710938 6.316406 13.816406 5.984375 13.707031 L 3.851562 12.996094 L 2.09375 14.046875 C 1.960938 14.128906 1.8125 14.167969 1.667969 14.167969 Z M 1.667969 14.167969 "/>
</g>
</svg>
