<?xml version="1.0" encoding="UTF-8"?>
<svg xmlns="http://www.w3.org/2000/svg" xmlns:xlink="http://www.w3.org/1999/xlink" width="15pt" height="15pt" viewBox="0 0 15 15" version="1.1">
<g id="surface1">
<path style=" stroke:none;fill-rule:nonzero;fill:rgb(16.078431%,18.431373%,20%);fill-opacity:1;" d="M 6.277344 5.949219 C 6.277344 3.984375 2.652344 4.109375 2.652344 2.921875 C 2.652344 2.347656 3.203125 2.066406 3.839844 2.066406 C 4.914062 2.066406 5.105469 2.757812 5.589844 2.757812 C 5.933594 2.757812 6.097656 2.539062 6.097656 2.296875 C 6.097656 1.734375 5.246094 1.308594 4.425781 1.160156 L 4.425781 0.613281 C 4.421875 0.277344 4.148438 0 3.808594 0 C 3.46875 0 3.195312 0.277344 3.195312 0.613281 L 3.195312 1.179688 C 2.300781 1.382812 1.53125 2.003906 1.53125 3.015625 C 1.53125 4.902344 5.15625 4.824219 5.15625 6.152344 C 5.15625 6.613281 4.65625 7.070312 3.839844 7.070312 C 2.613281 7.070312 2.207031 6.242188 1.710938 6.242188 C 1.464844 6.242188 1.25 6.445312 1.25 6.753906 C 1.25 7.242188 2.066406 7.828125 3.195312 7.996094 L 3.195312 8.613281 C 3.195312 8.953125 3.46875 9.226562 3.808594 9.226562 C 4.148438 9.226562 4.425781 8.953125 4.425781 8.613281 L 4.425781 8 C 4.425781 7.992188 4.421875 7.984375 4.421875 7.980469 C 5.433594 7.789062 6.277344 7.128906 6.277344 5.949219 Z M 9.957031 10.78125 L 8.246094 10.78125 C 7.960938 10.78125 7.734375 10.644531 7.734375 10.371094 C 7.734375 10.097656 7.960938 9.957031 8.246094 9.957031 L 9.445312 9.957031 L 7.449219 6.875 C 7.324219 6.6875 7.261719 6.554688 7.261719 6.378906 C 7.261719 6.140625 7.5 5.964844 7.699219 5.964844 C 7.898438 5.964844 8.097656 6.054688 8.273438 6.316406 L 10.503906 9.671875 L 12.738281 6.316406 C 12.914062 6.054688 13.113281 5.964844 13.3125 5.964844 C 13.511719 5.964844 13.75 6.140625 13.75 6.378906 C 13.75 6.554688 13.6875 6.6875 13.5625 6.875 L 11.566406 9.957031 L 12.765625 9.957031 C 13.050781 9.957031 13.277344 10.09375 13.277344 10.371094 C 13.277344 10.644531 13.050781 10.78125 12.765625 10.78125 L 11.054688 10.78125 L 11.054688 11.667969 L 12.765625 11.667969 C 13.050781 11.667969 13.277344 11.804688 13.277344 12.078125 C 13.277344 12.355469 13.050781 12.492188 12.765625 12.492188 L 11.054688 12.492188 L 11.054688 14.410156 C 11.054688 14.773438 10.832031 15 10.503906 15 C 10.183594 15 9.957031 14.773438 9.957031 14.410156 L 9.957031 12.492188 L 8.246094 12.492188 C 7.960938 12.492188 7.734375 12.355469 7.734375 12.078125 C 7.734375 11.804688 7.960938 11.667969 8.246094 11.667969 L 9.957031 11.667969 Z M 9.957031 10.78125 "/>
<path style=" stroke:none;fill-rule:nonzero;fill:rgb(40.392157%,45.882353%,49.803922%);fill-opacity:1;" d="M 9.949219 2.550781 L 7.082031 0.832031 L 8.800781 3.699219 L 7.082031 5.417969 L 11.667969 5.417969 L 11.667969 0.832031 Z M 3.800781 12.449219 L 6.667969 14.167969 L 4.949219 11.300781 L 6.667969 9.582031 L 2.082031 9.582031 L 2.082031 14.167969 Z M 3.800781 12.449219 "/>
</g>
</svg>
