<?xml version="1.0" encoding="UTF-8"?>
<svg xmlns="http://www.w3.org/2000/svg" xmlns:xlink="http://www.w3.org/1999/xlink" width="15pt" height="15pt" viewBox="0 0 15 15" version="1.1">
<g id="surface1">
<path style=" stroke:none;fill-rule:nonzero;fill:rgb(53.333333%,60%,65.098039%);fill-opacity:1;" d="M 15 7.5 C 15 11.640625 11.640625 15 7.5 15 C 3.359375 15 0 11.640625 0 7.5 C 0 3.359375 3.359375 0 7.5 0 C 11.640625 0 15 3.359375 15 7.5 Z M 7.5 6.25 C 6.808594 6.25 6.25 6.808594 6.25 7.5 C 6.25 8.191406 6.808594 8.75 7.5 8.75 C 8.191406 8.75 8.75 8.191406 8.75 7.5 C 8.75 6.808594 8.191406 6.25 7.5 6.25 Z M 7.5 6.25 "/>
<path style=" stroke:none;fill-rule:nonzero;fill:rgb(80%,83.921569%,86.666667%);fill-opacity:1;" d="M 5.535156 7.28125 C 5.585938 6.820312 5.785156 6.40625 6.097656 6.097656 L 2.785156 2.785156 C 1.742188 3.828125 1.046875 5.21875 0.875 6.765625 Z M 9.464844 7.71875 C 9.414062 8.179688 9.214844 8.59375 8.902344 8.902344 L 12.214844 12.214844 C 13.257812 11.171875 13.953125 9.78125 14.125 8.234375 Z M 9.464844 7.71875 "/>
<path style=" stroke:none;fill-rule:nonzero;fill:rgb(96.078431%,97.254902%,98.039216%);fill-opacity:1;" d="M 7.71875 9.464844 L 8.242188 14.121094 C 9.785156 13.953125 11.171875 13.253906 12.214844 12.214844 L 8.902344 8.902344 C 8.59375 9.214844 8.179688 9.410156 7.71875 9.464844 Z M 7.292969 5.535156 L 6.800781 0.871094 C 5.238281 1.03125 3.839844 1.734375 2.785156 2.785156 L 6.097656 6.097656 C 6.410156 5.785156 6.828125 5.585938 7.292969 5.535156 Z M 7.292969 5.535156 "/>
</g>
</svg>
