<?xml version="1.0" encoding="UTF-8"?>
<svg xmlns="http://www.w3.org/2000/svg" xmlns:xlink="http://www.w3.org/1999/xlink" width="15pt" height="15pt" viewBox="0 0 15 15" version="1.1">
<g id="surface1">
<path style=" stroke:none;fill-rule:nonzero;fill:rgb(79.607843%,72.156863%,91.372549%);fill-opacity:1;" d="M 0.832031 2.5 C 0 2.5 0 3.332031 0 3.332031 L 0 11.667969 C 0 11.667969 0 12.5 0.832031 12.5 L 14.167969 12.5 C 15 12.5 15 11.667969 15 11.667969 L 15 3.332031 C 15 3.332031 15 2.5 14.167969 2.5 Z M 0.832031 2.5 "/>
<path style=" stroke:none;fill-rule:nonzero;fill:rgb(60.392157%,66.666667%,70.588235%);fill-opacity:1;" d="M 5.417969 2.5 L 9.582031 2.5 L 9.582031 12.527344 L 5.417969 12.527344 Z M 5.417969 2.5 "/>
<path style=" stroke:none;fill-rule:nonzero;fill:rgb(40.392157%,45.882353%,49.803922%);fill-opacity:1;" d="M 3.339844 5.421875 C 3.523438 5.421875 3.65625 5.515625 3.65625 5.71875 C 3.65625 5.925781 3.523438 6.019531 3.339844 6.019531 L 2.542969 6.019531 C 2.566406 6.144531 2.59375 6.285156 2.59375 6.503906 C 2.59375 6.847656 2.367188 7.375 1.964844 7.734375 L 4.433594 7.734375 C 4.617188 7.734375 4.746094 7.828125 4.746094 8.03125 C 4.746094 8.238281 4.617188 8.332031 4.433594 8.332031 L 1.503906 8.332031 C 1.300781 8.332031 1.117188 8.28125 1.117188 8.027344 C 1.117188 7.710938 1.949219 7.367188 1.949219 6.496094 C 1.949219 6.363281 1.941406 6.183594 1.898438 6.019531 L 1.160156 6.019531 C 0.976562 6.019531 0.847656 5.925781 0.847656 5.722656 C 0.847656 5.515625 0.976562 5.421875 1.160156 5.421875 L 1.722656 5.421875 C 1.550781 5.105469 1.367188 4.761719 1.367188 4.375 C 1.367188 3.605469 2.121094 3.078125 2.945312 3.078125 C 3.816406 3.078125 4.621094 3.796875 4.621094 4.375 C 4.621094 4.570312 4.5 4.6875 4.316406 4.6875 C 3.824219 4.6875 4.082031 3.679688 2.953125 3.679688 C 2.476562 3.679688 2.007812 3.933594 2.007812 4.417969 C 2.007812 4.804688 2.230469 5.097656 2.398438 5.421875 Z M 3.339844 5.421875 "/>
</g>
</svg>
