<?xml version="1.0" encoding="UTF-8"?>
<svg xmlns="http://www.w3.org/2000/svg" xmlns:xlink="http://www.w3.org/1999/xlink" width="15pt" height="15pt" viewBox="0 0 15 15" version="1.1">
<g id="surface1">
<path style=" stroke:none;fill-rule:nonzero;fill:rgb(16.078431%,18.431373%,20%);fill-opacity:1;" d="M 15 13.332031 C 15 14.253906 14.253906 15 13.332031 15 L 1.667969 15 C 0.746094 15 0 14.253906 0 13.332031 L 0 1.667969 C 0 0.746094 0.746094 0 1.667969 0 L 13.332031 0 C 14.253906 0 15 0.746094 15 1.667969 Z M 15 13.332031 "/>
<path style=" stroke:none;fill-rule:nonzero;fill:rgb(100%,85.098039%,51.372549%);fill-opacity:1;" d="M 14.167969 7.5 C 14.167969 11.183594 11.183594 14.167969 7.5 14.167969 C 3.816406 14.167969 0.832031 11.183594 0.832031 7.5 C 0.832031 3.816406 3.816406 0.832031 7.5 0.832031 C 11.183594 0.832031 14.167969 3.816406 14.167969 7.5 Z M 7.5 6.390625 C 6.886719 6.390625 6.390625 6.886719 6.390625 7.5 C 6.390625 8.113281 6.886719 8.609375 7.5 8.609375 C 8.113281 8.609375 8.609375 8.113281 8.609375 7.5 C 8.609375 6.886719 8.113281 6.390625 7.5 6.390625 Z M 7.5 6.390625 "/>
<path style=" stroke:none;fill-rule:nonzero;fill:rgb(100%,67.45098%,20%);fill-opacity:1;" d="M 5.753906 7.304688 C 5.800781 6.898438 5.976562 6.527344 6.25 6.253906 L 3.308594 3.308594 C 2.382812 4.238281 1.761719 5.472656 1.613281 6.847656 Z M 9.246094 7.695312 C 9.199219 8.101562 9.023438 8.472656 8.746094 8.746094 L 11.691406 11.691406 C 12.617188 10.761719 13.238281 9.527344 13.386719 8.152344 Z M 9.246094 7.695312 "/>
<path style=" stroke:none;fill-rule:nonzero;fill:rgb(100%,90.980392%,71.372549%);fill-opacity:1;" d="M 7.695312 9.246094 L 8.160156 13.386719 C 9.53125 13.234375 10.765625 12.617188 11.691406 11.691406 L 8.746094 8.746094 C 8.472656 9.023438 8.101562 9.199219 7.695312 9.246094 Z M 7.316406 5.753906 L 6.878906 1.605469 C 5.492188 1.75 4.246094 2.375 3.308594 3.308594 L 6.25 6.253906 C 6.53125 5.972656 6.902344 5.796875 7.316406 5.753906 Z M 7.316406 5.753906 "/>
<path style=" stroke:none;fill-rule:nonzero;fill:rgb(96.078431%,97.254902%,98.039216%);fill-opacity:1;" d="M 15 8.75 C 15 9.210938 14.625 9.582031 14.167969 9.582031 L 9.582031 9.582031 C 9.125 9.582031 8.75 9.210938 8.75 8.75 L 8.75 6.25 C 8.75 5.789062 9.125 5.417969 9.582031 5.417969 L 14.167969 5.417969 C 14.625 5.417969 15 5.789062 15 6.25 Z M 15 8.75 "/>
</g>
</svg>
