<?xml version="1.0" encoding="UTF-8"?>
<svg xmlns="http://www.w3.org/2000/svg" xmlns:xlink="http://www.w3.org/1999/xlink" width="15pt" height="15pt" viewBox="0 0 15 15" version="1.1">
<g id="surface1">
<path style=" stroke:none;fill-rule:nonzero;fill:rgb(60.392157%,66.666667%,70.588235%);fill-opacity:1;" d="M 4.582031 11.25 C 4.582031 11.710938 4.210938 12.082031 3.75 12.082031 C 3.289062 12.082031 2.917969 11.710938 2.917969 11.25 L 2.917969 6.667969 C 2.917969 6.207031 3.289062 5.832031 3.75 5.832031 C 4.210938 5.832031 4.582031 6.207031 4.582031 6.667969 Z M 12.917969 11.25 C 12.917969 11.710938 12.542969 12.082031 12.082031 12.082031 C 11.625 12.082031 11.25 11.710938 11.25 11.25 L 11.25 6.667969 C 11.25 6.207031 11.625 5.832031 12.082031 5.832031 C 12.542969 5.832031 12.917969 6.207031 12.917969 6.667969 Z M 12.917969 11.25 "/>
<path style=" stroke:none;fill-rule:nonzero;fill:rgb(40.392157%,45.882353%,49.803922%);fill-opacity:1;" d="M 12.082031 14.167969 C 12.082031 14.625 11.710938 15 11.25 15 C 10.789062 15 10.417969 14.625 10.417969 14.167969 L 10.417969 11.667969 C 10.417969 11.207031 10.789062 10.832031 11.25 10.832031 C 11.710938 10.832031 12.082031 11.207031 12.082031 11.667969 Z M 5.417969 14.167969 C 5.417969 14.625 5.042969 15 4.582031 15 C 4.125 15 3.75 14.625 3.75 14.167969 L 3.75 11.667969 C 3.75 11.207031 4.125 10.832031 4.582031 10.832031 C 5.042969 10.832031 5.417969 11.207031 5.417969 11.667969 Z M 5.417969 14.167969 "/>
<path style=" stroke:none;fill-rule:nonzero;fill:rgb(25.882353%,53.72549%,75.686275%);fill-opacity:1;" d="M 12.082031 7.5 C 12.082031 8.421875 11.335938 9.167969 10.417969 9.167969 L 5.417969 9.167969 C 4.496094 9.167969 3.75 8.421875 3.75 7.5 L 3.75 1.667969 C 3.75 0.746094 4.496094 0 5.417969 0 L 10.417969 0 C 11.335938 0 12.082031 0.746094 12.082031 1.667969 Z M 12.082031 7.5 "/>
<path style=" stroke:none;fill-rule:nonzero;fill:rgb(88.235294%,90.980392%,92.941176%);fill-opacity:1;" d="M 6.25 0 L 9.582031 0 L 9.582031 3.332031 L 6.25 3.332031 Z M 6.25 0 "/>
<path style=" stroke:none;fill-rule:nonzero;fill:rgb(80%,83.921569%,86.666667%);fill-opacity:1;" d="M 4.582031 6.25 C 4.582031 6.710938 4.210938 7.082031 3.75 7.082031 L 2.917969 7.082031 C 2.457031 7.082031 2.082031 6.710938 2.082031 6.25 C 2.082031 5.789062 2.457031 5.417969 2.917969 5.417969 L 3.75 5.417969 C 4.210938 5.417969 4.582031 5.789062 4.582031 6.25 Z M 13.75 6.25 C 13.75 6.710938 13.375 7.082031 12.917969 7.082031 L 12.082031 7.082031 C 11.625 7.082031 11.25 6.710938 11.25 6.25 C 11.25 5.789062 11.625 5.417969 12.082031 5.417969 L 12.917969 5.417969 C 13.375 5.417969 13.75 5.789062 13.75 6.25 Z M 13.75 6.25 "/>
<path style=" stroke:none;fill-rule:nonzero;fill:rgb(36.470588%,67.843137%,92.54902%);fill-opacity:1;" d="M 12.082031 9.582031 C 12.082031 10.273438 11.523438 10.832031 10.832031 10.832031 L 5 10.832031 C 4.308594 10.832031 3.75 10.273438 3.75 9.582031 C 3.75 8.894531 4.308594 8.332031 5 8.332031 L 10.832031 8.332031 C 11.523438 8.332031 12.082031 8.894531 12.082031 9.582031 Z M 12.082031 9.582031 "/>
<path style=" stroke:none;fill-rule:nonzero;fill:rgb(16.470588%,40.392157%,59.215686%);fill-opacity:1;" d="M 3.75 9.582031 L 12.082031 9.582031 L 12.082031 12.082031 L 3.75 12.082031 Z M 3.75 9.582031 "/>
</g>
</svg>
