<?xml version="1.0" encoding="UTF-8"?>
<svg xmlns="http://www.w3.org/2000/svg" xmlns:xlink="http://www.w3.org/1999/xlink" width="15pt" height="15pt" viewBox="0 0 15 15" version="1.1">
<g id="surface1">
<path style=" stroke:none;fill-rule:nonzero;fill:rgb(99.215686%,84.705882%,53.333333%);fill-opacity:1;" d="M 0.832031 2.5 C 0 2.5 0 3.332031 0 3.332031 L 0 11.667969 C 0 11.667969 0 12.5 0.832031 12.5 L 14.167969 12.5 C 15 12.5 15 11.667969 15 11.667969 L 15 3.332031 C 15 3.332031 15 2.5 14.167969 2.5 Z M 0.832031 2.5 "/>
<path style=" stroke:none;fill-rule:nonzero;fill:rgb(60.392157%,66.666667%,70.588235%);fill-opacity:1;" d="M 5.417969 2.5 L 9.582031 2.5 L 9.582031 12.527344 L 5.417969 12.527344 Z M 5.417969 2.5 "/>
<path style=" stroke:none;fill-rule:nonzero;fill:rgb(40.392157%,45.882353%,49.803922%);fill-opacity:1;" d="M 2.394531 7.558594 L 1.402344 7.558594 C 1.238281 7.558594 1.109375 7.480469 1.109375 7.320312 C 1.109375 7.164062 1.238281 7.082031 1.402344 7.082031 L 2.097656 7.082031 L 0.941406 5.300781 C 0.871094 5.191406 0.832031 5.113281 0.832031 5.011719 C 0.832031 4.875 0.972656 4.773438 1.085938 4.773438 C 1.203125 4.773438 1.316406 4.824219 1.417969 4.972656 L 2.710938 6.917969 L 4.003906 4.972656 C 4.105469 4.824219 4.21875 4.773438 4.335938 4.773438 C 4.449219 4.773438 4.585938 4.875 4.585938 5.011719 C 4.585938 5.113281 4.550781 5.191406 4.480469 5.300781 L 3.324219 7.082031 L 4.019531 7.082031 C 4.183594 7.082031 4.3125 7.160156 4.3125 7.320312 C 4.3125 7.480469 4.183594 7.558594 4.019531 7.558594 L 3.027344 7.558594 L 3.027344 8.070312 L 4.015625 8.070312 C 4.183594 8.070312 4.3125 8.152344 4.3125 8.308594 C 4.3125 8.46875 4.183594 8.546875 4.015625 8.546875 L 3.027344 8.546875 L 3.027344 9.660156 C 3.027344 9.871094 2.898438 10 2.710938 10 C 2.523438 10 2.394531 9.871094 2.394531 9.660156 L 2.394531 8.546875 L 1.402344 8.546875 C 1.238281 8.546875 1.109375 8.46875 1.109375 8.3125 C 1.109375 8.152344 1.238281 8.070312 1.402344 8.070312 L 2.394531 8.070312 Z M 2.394531 7.558594 "/>
</g>
</svg>
