<?xml version="1.0" encoding="UTF-8"?>
<svg xmlns="http://www.w3.org/2000/svg" xmlns:xlink="http://www.w3.org/1999/xlink" width="15pt" height="15pt" viewBox="0 0 15 15" version="1.1">
<g id="surface1">
<path style=" stroke:none;fill-rule:nonzero;fill:rgb(65.490196%,82.352941%,54.509804%);fill-opacity:1;" d="M 0.832031 2.5 C 0 2.5 0 3.332031 0 3.332031 L 0 11.667969 C 0 11.667969 0 12.5 0.832031 12.5 L 14.167969 12.5 C 15 12.5 15 11.667969 15 11.667969 L 15 3.332031 C 15 3.332031 15 2.5 14.167969 2.5 Z M 0.832031 2.5 "/>
<path style=" stroke:none;fill-rule:nonzero;fill:rgb(60.392157%,66.666667%,70.588235%);fill-opacity:1;" d="M 5.417969 2.5 L 9.582031 2.5 L 9.582031 12.527344 L 5.417969 12.527344 Z M 5.417969 2.5 "/>
<path style=" stroke:none;fill-rule:nonzero;fill:rgb(40.392157%,45.882353%,49.803922%);fill-opacity:1;" d="M 4.582031 8.347656 C 4.582031 7.105469 2.292969 7.1875 2.292969 6.4375 C 2.292969 6.074219 2.640625 5.894531 3.042969 5.894531 C 3.722656 5.894531 3.839844 6.332031 4.148438 6.332031 C 4.367188 6.332031 4.46875 6.195312 4.46875 6.042969 C 4.46875 5.683594 3.929688 5.414062 3.410156 5.320312 L 3.410156 4.976562 C 3.410156 4.765625 3.238281 4.589844 3.023438 4.589844 C 2.808594 4.589844 2.636719 4.765625 2.636719 4.976562 L 2.636719 5.332031 C 2.070312 5.464844 1.585938 5.855469 1.585938 6.492188 C 1.585938 7.683594 3.875 7.636719 3.875 8.476562 C 3.875 8.765625 3.558594 9.054688 3.042969 9.054688 C 2.269531 9.054688 2.011719 8.53125 1.699219 8.53125 C 1.546875 8.53125 1.410156 8.660156 1.410156 8.855469 C 1.410156 9.164062 1.925781 9.535156 2.636719 9.636719 L 2.636719 10.027344 C 2.636719 10.242188 2.808594 10.417969 3.023438 10.417969 C 3.238281 10.417969 3.414062 10.242188 3.414062 10.027344 L 3.414062 9.640625 C 3.414062 9.636719 3.410156 9.632812 3.410156 9.628906 C 4.050781 9.507812 4.582031 9.089844 4.582031 8.347656 Z M 4.582031 8.347656 "/>
</g>
</svg>
