<?xml version="1.0" encoding="UTF-8"?>
<svg xmlns="http://www.w3.org/2000/svg" xmlns:xlink="http://www.w3.org/1999/xlink" width="15pt" height="15pt" viewBox="0 0 15 15" version="1.1">
<g id="surface1">
<path style=" stroke:none;fill-rule:nonzero;fill:rgb(99.215686%,84.705882%,53.333333%);fill-opacity:1;" d="M 13.289062 9.972656 C 13.042969 7.214844 11.667969 5.832031 11.667969 5.832031 L 9.167969 2.5 L 5.832031 2.5 L 3.332031 5.832031 C 3.332031 5.832031 2.742188 6.429688 2.265625 7.613281 C 1.433594 7.890625 0.832031 8.660156 0.832031 9.582031 C 0.832031 10.1875 1.09375 10.726562 1.503906 11.105469 C 1.347656 11.398438 1.25 11.726562 1.25 12.082031 C 1.25 12.898438 1.722656 13.597656 2.40625 13.941406 C 2.941406 14.742188 3.65625 15 4.167969 15 L 10.832031 15 C 11.40625 15 12.238281 14.675781 12.78125 13.621094 C 13.585938 13.332031 14.167969 12.570312 14.167969 11.667969 C 14.167969 10.96875 13.820312 10.351562 13.289062 9.972656 Z M 7.5 2.5 C 7.730469 2.5 7.941406 2.433594 8.125 2.328125 C 8.308594 2.433594 8.519531 2.5 8.75 2.5 C 9.441406 2.5 10.417969 1.523438 10.417969 0.832031 C 10.417969 0.832031 10.417969 0 9.582031 0 C 9.253906 0 9.167969 0.417969 8.75 0.417969 C 8.332031 0.417969 8.332031 0 7.5 0 C 6.667969 0 6.667969 0.417969 6.25 0.417969 C 5.832031 0.417969 5.746094 0 5.417969 0 C 4.582031 0 4.582031 0.832031 4.582031 0.832031 C 4.582031 1.523438 5.558594 2.5 6.25 2.5 C 6.480469 2.5 6.691406 2.433594 6.875 2.328125 C 7.058594 2.433594 7.269531 2.5 7.5 2.5 Z M 7.5 2.5 "/>
<path style=" stroke:none;fill-rule:nonzero;fill:rgb(74.901961%,41.176471%,32.156863%);fill-opacity:1;" d="M 10 2.5 C 10 2.730469 9.8125 2.917969 9.582031 2.917969 L 5.417969 2.917969 C 5.1875 2.917969 5 2.730469 5 2.5 C 5 2.269531 5.1875 2.082031 5.417969 2.082031 L 9.582031 2.082031 C 9.8125 2.082031 10 2.269531 10 2.5 Z M 10 2.5 "/>
<path style=" stroke:none;fill-rule:nonzero;fill:rgb(40.392157%,45.882353%,49.803922%);fill-opacity:1;" d="M 9.957031 10.226562 C 9.957031 8.359375 6.382812 8.480469 6.382812 7.355469 C 6.382812 6.8125 6.925781 6.546875 7.554688 6.546875 C 8.613281 6.546875 8.800781 7.199219 9.277344 7.199219 C 9.617188 7.199219 9.78125 6.992188 9.78125 6.761719 C 9.78125 6.226562 8.9375 5.824219 8.128906 5.683594 L 8.128906 5.167969 C 8.128906 4.84375 7.859375 4.582031 7.523438 4.582031 C 7.1875 4.582031 6.917969 4.84375 6.917969 5.167969 L 6.917969 5.703125 C 6.035156 5.894531 5.277344 6.484375 5.277344 7.441406 C 5.277344 9.234375 8.851562 9.160156 8.851562 10.417969 C 8.851562 10.855469 8.359375 11.289062 7.554688 11.289062 C 6.347656 11.289062 5.941406 10.503906 5.453125 10.503906 C 5.214844 10.503906 5 10.695312 5 10.988281 C 5 11.453125 5.808594 12.007812 6.917969 12.164062 L 6.917969 12.75 C 6.917969 13.074219 7.1875 13.335938 7.523438 13.335938 C 7.859375 13.335938 8.128906 13.074219 8.128906 12.75 L 8.128906 12.167969 C 8.128906 12.160156 8.125 12.15625 8.125 12.152344 C 9.125 11.972656 9.957031 11.34375 9.957031 10.226562 Z M 9.957031 10.226562 "/>
</g>
</svg>
