<?xml version="1.0" encoding="UTF-8"?>
<svg xmlns="http://www.w3.org/2000/svg" xmlns:xlink="http://www.w3.org/1999/xlink" width="15pt" height="15pt" viewBox="0 0 15 15" version="1.1">
<g id="surface1">
<path style=" stroke:none;fill-rule:nonzero;fill:rgb(60.392157%,30.588235%,10.980392%);fill-opacity:1;" d="M 13.332031 3.332031 L 10.832031 3.332031 L 10.832031 1.667969 C 10.832031 0.746094 10.085938 0 9.167969 0 L 5.832031 0 C 4.914062 0 4.167969 0.746094 4.167969 1.667969 L 4.167969 3.332031 L 1.667969 3.332031 C 0.746094 3.332031 0 4.078125 0 5 L 0 13.332031 C 0 14.253906 0.746094 15 1.667969 15 L 13.332031 15 C 14.253906 15 15 14.253906 15 13.332031 L 15 5 C 15 4.078125 14.253906 3.332031 13.332031 3.332031 Z M 5 2.5 C 5 2.039062 5.375 1.667969 5.832031 1.667969 L 9.167969 1.667969 C 9.625 1.667969 10 2.039062 10 2.5 L 10 3.332031 L 5 3.332031 Z M 5 2.5 "/>
<path style=" stroke:none;fill-rule:nonzero;fill:rgb(40%,12.941176%,7.45098%);fill-opacity:1;" d="M 15 8.332031 C 15 9.253906 14.253906 10 13.332031 10 L 1.667969 10 C 0.746094 10 0 9.253906 0 8.332031 L 0 5 C 0 4.078125 0.746094 3.332031 1.667969 3.332031 L 13.332031 3.332031 C 14.253906 3.332031 15 4.078125 15 5 Z M 15 8.332031 "/>
<path style=" stroke:none;fill-rule:nonzero;fill:rgb(60.392157%,30.588235%,10.980392%);fill-opacity:1;" d="M 15 7.5 C 15 8.421875 14.253906 9.167969 13.332031 9.167969 L 1.667969 9.167969 C 0.746094 9.167969 0 8.421875 0 7.5 L 0 5 C 0 4.078125 0.746094 3.332031 1.667969 3.332031 L 13.332031 3.332031 C 14.253906 3.332031 15 4.078125 15 5 Z M 15 7.5 "/>
<path style=" stroke:none;fill-rule:nonzero;fill:rgb(80%,83.921569%,86.666667%);fill-opacity:1;" d="M 9.167969 7.5 C 9.167969 7.960938 8.792969 8.332031 8.332031 8.332031 L 6.667969 8.332031 C 6.207031 8.332031 5.832031 7.960938 5.832031 7.5 C 5.832031 7.039062 6.207031 6.667969 6.667969 6.667969 L 8.332031 6.667969 C 8.792969 6.667969 9.167969 7.039062 9.167969 7.5 "/>
</g>
</svg>
