<?xml version="1.0" encoding="UTF-8"?>
<svg xmlns="http://www.w3.org/2000/svg" xmlns:xlink="http://www.w3.org/1999/xlink" width="15pt" height="15pt" viewBox="0 0 15 15" version="1.1">
<g id="surface1">
<path style=" stroke:none;fill-rule:nonzero;fill:rgb(77.647059%,89.411765%,70.980392%);fill-opacity:1;" d="M 0.832031 2.5 C 0 2.5 0 3.332031 0 3.332031 L 0 11.667969 C 0 11.667969 0 12.5 0.832031 12.5 L 14.167969 12.5 C 15 12.5 15 11.667969 15 11.667969 L 15 3.332031 C 15 3.332031 15 2.5 14.167969 2.5 Z M 0.832031 2.5 "/>
<path style=" stroke:none;fill-rule:nonzero;fill:rgb(60.392157%,66.666667%,70.588235%);fill-opacity:1;" d="M 5.417969 2.5 L 9.582031 2.5 L 9.582031 12.527344 L 5.417969 12.527344 Z M 5.417969 2.5 "/>
<path style=" stroke:none;fill-rule:nonzero;fill:rgb(40.392157%,45.882353%,49.803922%);fill-opacity:1;" d="M 4.804688 11.0625 C 4.804688 11.339844 4.1875 11.667969 3.425781 11.667969 C 2.417969 11.667969 1.8125 10.964844 1.609375 10.109375 L 1.070312 10.109375 C 0.941406 10.109375 0.832031 10 0.832031 9.871094 C 0.832031 9.738281 0.941406 9.632812 1.070312 9.632812 L 1.542969 9.632812 C 1.539062 9.574219 1.53125 9.519531 1.53125 9.464844 C 1.53125 9.339844 1.539062 9.214844 1.554688 9.09375 L 1.070312 9.09375 C 0.941406 9.09375 0.832031 8.984375 0.832031 8.855469 C 0.832031 8.722656 0.941406 8.617188 1.070312 8.617188 L 1.660156 8.617188 C 1.910156 7.851562 2.507812 7.261719 3.457031 7.261719 C 4.226562 7.261719 4.710938 7.675781 4.710938 7.894531 C 4.710938 8.035156 4.625 8.148438 4.492188 8.148438 C 4.25 8.148438 4.128906 7.722656 3.457031 7.722656 C 2.828125 7.722656 2.445312 8.117188 2.253906 8.617188 L 3.640625 8.617188 C 3.769531 8.617188 3.878906 8.722656 3.878906 8.855469 C 3.878906 8.984375 3.769531 9.09375 3.640625 9.09375 L 2.132812 9.09375 C 2.113281 9.214844 2.101562 9.339844 2.101562 9.464844 C 2.101562 9.519531 2.109375 9.574219 2.113281 9.632812 L 3.640625 9.632812 C 3.769531 9.632812 3.878906 9.738281 3.878906 9.871094 C 3.878906 10 3.769531 10.105469 3.640625 10.105469 L 2.1875 10.105469 C 2.347656 10.703125 2.746094 11.203125 3.429688 11.203125 C 4.078125 11.203125 4.367188 10.8125 4.589844 10.8125 C 4.71875 10.816406 4.804688 10.910156 4.804688 11.0625 Z M 4.804688 11.0625 "/>
</g>
</svg>
