<?xml version="1.0" encoding="UTF-8"?>
<svg xmlns="http://www.w3.org/2000/svg" xmlns:xlink="http://www.w3.org/1999/xlink" width="15pt" height="15pt" viewBox="0 0 15 15" version="1.1">
<g id="surface1">
<path style=" stroke:none;fill-rule:nonzero;fill:rgb(74.509804%,9.803922%,19.215686%);fill-opacity:1;" d="M 9.855469 9.707031 L 5.292969 5.144531 L 9.203125 1.886719 L 13.113281 5.796875 Z M 9.855469 9.707031 "/>
<path style=" stroke:none;fill-rule:nonzero;fill:rgb(86.666667%,18.039216%,26.666667%);fill-opacity:1;" d="M 14.417969 5.796875 C 13.695312 6.515625 12.53125 6.515625 11.808594 5.796875 L 9.203125 3.191406 C 8.484375 2.46875 8.484375 1.300781 9.203125 0.582031 C 9.921875 -0.136719 11.089844 -0.136719 11.808594 0.582031 L 14.417969 3.191406 C 15.136719 3.910156 15.136719 5.078125 14.417969 5.796875 Z M 14.417969 5.796875 "/>
<path style=" stroke:none;fill-rule:nonzero;fill:rgb(60%,66.666667%,70.980392%);fill-opacity:1;" d="M 5.832031 7.425781 C 5.832031 7.425781 -0.246094 14.59375 0.078125 14.921875 C 0.402344 15.25 7.574219 9.167969 7.574219 9.167969 Z M 5.832031 7.425781 "/>
<path style=" stroke:none;fill-rule:nonzero;fill:rgb(86.666667%,18.039216%,26.666667%);fill-opacity:1;" d="M 10.507812 11.664062 C 9.785156 12.382812 8.621094 12.382812 7.898438 11.664062 L 3.335938 7.101562 C 2.617188 6.378906 2.617188 5.214844 3.335938 4.492188 C 4.058594 3.773438 5.222656 3.773438 5.945312 4.492188 L 10.507812 9.054688 C 11.226562 9.777344 11.226562 10.941406 10.507812 11.664062 Z M 10.507812 11.664062 "/>
</g>
</svg>
