<?xml version="1.0" encoding="UTF-8"?>
<svg xmlns="http://www.w3.org/2000/svg" xmlns:xlink="http://www.w3.org/1999/xlink" width="15pt" height="15pt" viewBox="0 0 15 15" version="1.1">
<g id="surface1">
<path style=" stroke:none;fill-rule:nonzero;fill:rgb(75.686275%,41.176471%,30.980392%);fill-opacity:1;" d="M 13.332031 14.167969 C 13.332031 14.625 12.960938 15 12.5 15 L 2.5 15 C 2.039062 15 1.667969 14.625 1.667969 14.167969 L 1.667969 2.917969 C 1.667969 2.457031 2.039062 2.082031 2.5 2.082031 L 12.5 2.082031 C 12.960938 2.082031 13.332031 2.457031 13.332031 2.917969 Z M 13.332031 14.167969 "/>
<path style=" stroke:none;fill-rule:nonzero;fill:rgb(100%,100%,100%);fill-opacity:1;" d="M 12.082031 13.332031 C 12.082031 13.5625 11.898438 13.75 11.667969 13.75 L 3.332031 13.75 C 3.101562 13.75 2.917969 13.5625 2.917969 13.332031 L 2.917969 3.75 C 2.917969 3.519531 3.101562 3.332031 3.332031 3.332031 L 11.667969 3.332031 C 11.898438 3.332031 12.082031 3.519531 12.082031 3.75 Z M 12.082031 13.332031 "/>
<path style=" stroke:none;fill-rule:nonzero;fill:rgb(80%,83.921569%,86.666667%);fill-opacity:1;" d="M 10.417969 1.25 L 8.75 1.25 C 8.75 0.558594 8.191406 0 7.5 0 C 6.808594 0 6.25 0.558594 6.25 1.25 L 4.582031 1.25 C 4.125 1.25 3.75 1.625 3.75 2.082031 L 3.75 4.167969 L 11.25 4.167969 L 11.25 2.082031 C 11.25 1.625 10.875 1.25 10.417969 1.25 Z M 10.417969 1.25 "/>
<path style=" stroke:none;fill-rule:nonzero;fill:rgb(16.078431%,18.431373%,20%);fill-opacity:1;" d="M 8.332031 1.25 C 8.332031 1.710938 7.960938 2.082031 7.5 2.082031 C 7.039062 2.082031 6.667969 1.710938 6.667969 1.25 C 6.667969 0.789062 7.039062 0.417969 7.5 0.417969 C 7.960938 0.417969 8.332031 0.789062 8.332031 1.25 Z M 8.332031 1.25 "/>
<path style=" stroke:none;fill-rule:nonzero;fill:rgb(60%,66.666667%,70.980392%);fill-opacity:1;" d="M 8.332031 5.832031 C 8.332031 6.0625 8.148438 6.25 7.917969 6.25 L 4.167969 6.25 C 3.9375 6.25 3.75 6.0625 3.75 5.832031 C 3.75 5.601562 3.9375 5.417969 4.167969 5.417969 L 7.917969 5.417969 C 8.148438 5.417969 8.332031 5.601562 8.332031 5.832031 Z M 11.25 7.5 C 11.25 7.730469 11.0625 7.917969 10.832031 7.917969 L 4.167969 7.917969 C 3.9375 7.917969 3.75 7.730469 3.75 7.5 C 3.75 7.269531 3.9375 7.082031 4.167969 7.082031 L 10.832031 7.082031 C 11.0625 7.082031 11.25 7.269531 11.25 7.5 Z M 11.25 9.167969 C 11.25 9.398438 11.0625 9.582031 10.832031 9.582031 L 4.167969 9.582031 C 3.9375 9.582031 3.75 9.398438 3.75 9.167969 C 3.75 8.9375 3.9375 8.75 4.167969 8.75 L 10.832031 8.75 C 11.0625 8.75 11.25 8.9375 11.25 9.167969 Z M 11.25 10.832031 C 11.25 11.0625 11.0625 11.25 10.832031 11.25 L 4.167969 11.25 C 3.9375 11.25 3.75 11.0625 3.75 10.832031 C 3.75 10.601562 3.9375 10.417969 4.167969 10.417969 L 10.832031 10.417969 C 11.0625 10.417969 11.25 10.601562 11.25 10.832031 Z M 11.25 12.5 C 11.25 12.730469 11.0625 12.917969 10.832031 12.917969 L 7.082031 12.917969 C 6.851562 12.917969 6.667969 12.730469 6.667969 12.5 C 6.667969 12.269531 6.851562 12.082031 7.082031 12.082031 L 10.832031 12.082031 C 11.0625 12.082031 11.25 12.269531 11.25 12.5 Z M 11.25 12.5 "/>
</g>
</svg>
