<?xml version="1.0" encoding="UTF-8"?>
<svg xmlns="http://www.w3.org/2000/svg" xmlns:xlink="http://www.w3.org/1999/xlink" width="15pt" height="15pt" viewBox="0 0 15 15" version="1.1">
<g id="surface1">
<path style=" stroke:none;fill-rule:nonzero;fill:rgb(100%,80%,30.196078%);fill-opacity:1;" d="M 12.507812 14.277344 C 11.859375 14.929688 10.800781 14.925781 10.152344 14.277344 L 0.722656 4.847656 C 0.0742188 4.199219 0.0703125 3.140625 0.722656 2.492188 L 2.492188 0.722656 C 3.140625 0.0742188 4.199219 0.0742188 4.847656 0.722656 L 14.277344 10.152344 C 14.925781 10.804688 14.925781 11.859375 14.277344 12.507812 Z M 12.507812 14.277344 "/>
<path style=" stroke:none;fill-rule:nonzero;fill:rgb(16.078431%,18.431373%,20%);fill-opacity:1;" d="M 3.964844 2.785156 C 3.800781 2.949219 3.539062 2.949219 3.375 2.785156 C 3.214844 2.625 3.214844 2.359375 3.375 2.195312 L 4.847656 0.722656 L 5.4375 1.3125 Z M 6.320312 3.375 C 6.160156 3.539062 5.894531 3.539062 5.730469 3.375 C 5.570312 3.210938 5.570312 2.949219 5.730469 2.785156 L 6.320312 2.195312 L 6.910156 2.785156 Z M 6.910156 5.730469 C 6.746094 5.894531 6.484375 5.894531 6.320312 5.730469 C 6.160156 5.570312 6.160156 5.304688 6.320312 5.144531 L 7.796875 3.667969 C 7.996094 3.871094 8.183594 4.054688 8.382812 4.257812 Z M 9.265625 6.320312 C 9.105469 6.484375 8.839844 6.484375 8.679688 6.320312 C 8.515625 6.160156 8.515625 5.894531 8.679688 5.730469 L 9.269531 5.140625 C 9.46875 5.34375 9.65625 5.527344 9.855469 5.730469 Z M 9.855469 8.679688 C 9.695312 8.839844 9.429688 8.839844 9.269531 8.679688 C 9.105469 8.515625 9.105469 8.253906 9.265625 8.089844 L 10.742188 6.617188 L 11.328125 7.207031 Z M 12.804688 11.625 C 12.640625 11.789062 12.378906 11.789062 12.214844 11.625 C 12.050781 11.460938 12.050781 11.199219 12.214844 11.035156 L 13.6875 9.5625 L 14.277344 10.152344 Z M 12.214844 9.265625 C 12.050781 9.429688 11.789062 9.429688 11.625 9.269531 C 11.460938 9.105469 11.460938 8.839844 11.625 8.679688 L 12.214844 8.089844 L 12.804688 8.679688 Z M 12.214844 9.265625 "/>
</g>
</svg>
