<?xml version="1.0" encoding="UTF-8"?>
<svg xmlns="http://www.w3.org/2000/svg" xmlns:xlink="http://www.w3.org/1999/xlink" width="15pt" height="15pt" viewBox="0 0 15 15" version="1.1">
<g id="surface1">
<path style=" stroke:none;fill-rule:nonzero;fill:rgb(87.843137%,90.588235%,92.54902%);fill-opacity:1;" d="M 15 13.332031 C 15 14.253906 14.253906 15 13.332031 15 L 1.667969 15 C 0.746094 15 0 14.253906 0 13.332031 L 0 3.75 C 0 2.828125 0.746094 2.082031 1.667969 2.082031 L 13.332031 2.082031 C 14.253906 2.082031 15 2.828125 15 3.75 Z M 15 13.332031 "/>
<path style=" stroke:none;fill-rule:nonzero;fill:rgb(86.666667%,18.431373%,27.058824%);fill-opacity:1;" d="M 14.167969 0 L 12.800781 0 C 12.871094 0.121094 12.917969 0.265625 12.917969 0.417969 C 12.917969 0.875 12.542969 1.25 12.082031 1.25 C 11.625 1.25 11.25 0.875 11.25 0.417969 C 11.25 0.265625 11.292969 0.121094 11.367188 0 L 3.632812 0 C 3.707031 0.121094 3.75 0.265625 3.75 0.417969 C 3.75 0.875 3.375 1.25 2.917969 1.25 C 2.457031 1.25 2.082031 0.875 2.082031 0.417969 C 2.082031 0.265625 2.128906 0.121094 2.199219 0 L 0.832031 0 C 0.375 0 0 0.375 0 0.832031 L 0 5.417969 L 15 5.417969 L 15 0.832031 C 15 0.375 14.625 0 14.167969 0 Z M 14.167969 0 "/>
<path style=" stroke:none;fill-rule:nonzero;fill:rgb(40%,45.882353%,49.803922%);fill-opacity:1;" d="M 9.871094 7.917969 L 9.660156 7.917969 C 9.210938 7.917969 9.019531 7.613281 9.019531 7.292969 C 9.019531 6.960938 9.257812 6.667969 9.660156 6.667969 L 10.5 6.667969 C 10.90625 6.667969 11.132812 6.957031 11.132812 7.335938 L 11.132812 12.695312 C 11.132812 13.167969 10.898438 13.429688 10.496094 13.429688 C 10.089844 13.429688 9.871094 13.167969 9.871094 12.695312 Z M 9.871094 7.917969 "/>
<path style=" stroke:none;fill-rule:nonzero;fill:rgb(95.294118%,66.666667%,72.54902%);fill-opacity:1;" d="M 14.167969 4.167969 C 14.167969 4.398438 13.980469 4.582031 13.75 4.582031 C 13.519531 4.582031 13.332031 4.398438 13.332031 4.167969 C 13.332031 3.9375 13.519531 3.75 13.75 3.75 C 13.980469 3.75 14.167969 3.9375 14.167969 4.167969 Z M 14.167969 4.167969 "/>
<path style=" stroke:none;fill-rule:nonzero;fill:rgb(95.294118%,66.666667%,72.54902%);fill-opacity:1;" d="M 14.167969 2.917969 C 14.167969 3.148438 13.980469 3.332031 13.75 3.332031 C 13.519531 3.332031 13.332031 3.148438 13.332031 2.917969 C 13.332031 2.6875 13.519531 2.5 13.75 2.5 C 13.980469 2.5 14.167969 2.6875 14.167969 2.917969 Z M 14.167969 2.917969 "/>
<path style=" stroke:none;fill-rule:nonzero;fill:rgb(95.294118%,66.666667%,72.54902%);fill-opacity:1;" d="M 12.917969 4.167969 C 12.917969 4.398438 12.730469 4.582031 12.5 4.582031 C 12.269531 4.582031 12.082031 4.398438 12.082031 4.167969 C 12.082031 3.9375 12.269531 3.75 12.5 3.75 C 12.730469 3.75 12.917969 3.9375 12.917969 4.167969 Z M 12.917969 4.167969 "/>
<path style=" stroke:none;fill-rule:nonzero;fill:rgb(95.294118%,66.666667%,72.54902%);fill-opacity:1;" d="M 12.917969 2.917969 C 12.917969 3.148438 12.730469 3.332031 12.5 3.332031 C 12.269531 3.332031 12.082031 3.148438 12.082031 2.917969 C 12.082031 2.6875 12.269531 2.5 12.5 2.5 C 12.730469 2.5 12.917969 2.6875 12.917969 2.917969 Z M 12.917969 2.917969 "/>
<path style=" stroke:none;fill-rule:nonzero;fill:rgb(95.294118%,66.666667%,72.54902%);fill-opacity:1;" d="M 11.667969 4.167969 C 11.667969 4.398438 11.480469 4.582031 11.25 4.582031 C 11.019531 4.582031 10.832031 4.398438 10.832031 4.167969 C 10.832031 3.9375 11.019531 3.75 11.25 3.75 C 11.480469 3.75 11.667969 3.9375 11.667969 4.167969 Z M 11.667969 4.167969 "/>
<path style=" stroke:none;fill-rule:nonzero;fill:rgb(95.294118%,66.666667%,72.54902%);fill-opacity:1;" d="M 11.667969 2.917969 C 11.667969 3.148438 11.480469 3.332031 11.25 3.332031 C 11.019531 3.332031 10.832031 3.148438 10.832031 2.917969 C 10.832031 2.6875 11.019531 2.5 11.25 2.5 C 11.480469 2.5 11.667969 2.6875 11.667969 2.917969 Z M 11.667969 2.917969 "/>
<path style=" stroke:none;fill-rule:nonzero;fill:rgb(100%,100%,100%);fill-opacity:1;" d="M 1.027344 2.058594 C 1.027344 1.875 1.171875 1.730469 1.355469 1.730469 L 1.425781 1.730469 C 1.566406 1.730469 1.664062 1.804688 1.722656 1.902344 L 2.511719 3.183594 L 3.300781 1.898438 C 3.371094 1.789062 3.464844 1.734375 3.59375 1.734375 L 3.667969 1.734375 C 3.847656 1.734375 3.992188 1.875 3.992188 2.058594 L 3.992188 4.414062 C 3.992188 4.59375 3.847656 4.738281 3.667969 4.738281 C 3.488281 4.738281 3.34375 4.589844 3.34375 4.414062 L 3.34375 2.933594 L 2.773438 3.816406 C 2.707031 3.917969 2.621094 3.980469 2.503906 3.980469 C 2.382812 3.980469 2.296875 3.917969 2.230469 3.816406 L 1.667969 2.949219 L 1.667969 4.421875 C 1.667969 4.597656 1.523438 4.738281 1.347656 4.738281 C 1.167969 4.738281 1.027344 4.597656 1.027344 4.421875 Z M 4.328125 4.292969 L 5.363281 1.960938 C 5.433594 1.800781 5.566406 1.703125 5.742188 1.703125 L 5.78125 1.703125 C 5.960938 1.703125 6.085938 1.800781 6.160156 1.960938 L 7.191406 4.292969 C 7.214844 4.339844 7.226562 4.382812 7.226562 4.425781 C 7.226562 4.597656 7.089844 4.738281 6.917969 4.738281 C 6.765625 4.738281 6.660156 4.648438 6.601562 4.515625 L 6.402344 4.046875 L 5.101562 4.046875 L 4.890625 4.535156 C 4.835938 4.664062 4.726562 4.738281 4.589844 4.738281 C 4.421875 4.738281 4.289062 4.601562 4.289062 4.433594 C 4.292969 4.386719 4.308594 4.339844 4.328125 4.292969 Z M 6.164062 3.472656 L 5.753906 2.496094 L 5.339844 3.472656 Z M 7.527344 2.074219 C 7.527344 1.894531 7.671875 1.75 7.855469 1.75 L 8.882812 1.75 C 9.261719 1.75 9.550781 1.855469 9.746094 2.050781 C 9.910156 2.214844 10 2.449219 10 2.726562 L 10 2.734375 C 10 3.203125 9.769531 3.488281 9.410156 3.636719 L 9.859375 4.1875 C 9.925781 4.269531 9.96875 4.335938 9.96875 4.4375 C 9.96875 4.621094 9.816406 4.738281 9.660156 4.738281 C 9.511719 4.738281 9.414062 4.667969 9.335938 4.570312 L 8.703125 3.765625 L 8.179688 3.765625 L 8.179688 4.414062 C 8.179688 4.59375 8.035156 4.738281 7.855469 4.738281 C 7.671875 4.738281 7.527344 4.59375 7.527344 4.414062 Z M 8.839844 3.1875 C 9.160156 3.1875 9.339844 3.019531 9.339844 2.769531 L 9.339844 2.761719 C 9.339844 2.480469 9.144531 2.339844 8.828125 2.339844 L 8.179688 2.339844 L 8.179688 3.1875 Z M 8.839844 3.1875 "/>
<path style=" stroke:none;fill-rule:nonzero;fill:rgb(40%,45.882353%,49.803922%);fill-opacity:1;" d="M 3.667969 12.003906 L 5.558594 10.453125 C 6.386719 9.777344 6.710938 9.40625 6.710938 8.855469 C 6.710938 8.292969 6.339844 7.988281 5.816406 7.988281 C 5.398438 7.988281 5.101562 8.171875 4.730469 8.570312 C 4.636719 8.675781 4.464844 8.78125 4.238281 8.78125 C 3.867188 8.78125 3.570312 8.484375 3.570312 8.113281 C 3.570312 7.953125 3.636719 7.78125 3.742188 7.65625 C 4.273438 7.039062 4.902344 6.675781 5.910156 6.675781 C 7.289062 6.675781 8.203125 7.484375 8.203125 8.730469 L 8.203125 8.75 C 8.203125 9.863281 7.632812 10.414062 6.453125 11.328125 L 5.367188 12.164062 L 7.6875 12.164062 C 8.042969 12.164062 8.328125 12.449219 8.328125 12.800781 C 8.328125 13.152344 8.042969 13.429688 7.6875 13.429688 L 4.074219 13.429688 C 3.617188 13.429688 3.285156 13.171875 3.285156 12.734375 C 3.285156 12.449219 3.417969 12.203125 3.667969 12.003906 Z M 3.667969 12.003906 "/>
</g>
</svg>
