<?xml version="1.0" encoding="UTF-8"?>
<svg xmlns="http://www.w3.org/2000/svg" xmlns:xlink="http://www.w3.org/1999/xlink" width="15pt" height="15pt" viewBox="0 0 15 15" version="1.1">
<g id="surface1">
<path style=" stroke:none;fill-rule:nonzero;fill:rgb(60%,66.666667%,70.980392%);fill-opacity:1;" d="M 14.730469 10.523438 C 14.820312 9.527344 14.515625 8.625 13.875 7.980469 L 7.097656 1.203125 C 6.933594 1.042969 6.671875 1.042969 6.507812 1.203125 C 6.34375 1.367188 6.34375 1.628906 6.507812 1.792969 L 13.285156 8.570312 C 13.75 9.035156 13.96875 9.703125 13.902344 10.445312 C 13.835938 11.175781 13.503906 11.886719 12.988281 12.398438 C 12.476562 12.910156 11.765625 13.246094 11.035156 13.3125 C 10.296875 13.378906 9.625 13.160156 9.160156 12.695312 L 1.5 5.035156 C 1.089844 4.625 1.058594 4.117188 1.101562 3.761719 C 1.164062 3.261719 1.417969 2.757812 1.792969 2.382812 C 2.503906 1.671875 3.71875 1.359375 4.445312 2.085938 L 10.632812 8.273438 C 11.097656 8.742188 10.644531 9.441406 10.339844 9.746094 C 10.03125 10.054688 9.332031 10.507812 8.863281 10.042969 L 4.152344 5.328125 C 3.988281 5.164062 3.722656 5.167969 3.5625 5.328125 C 3.398438 5.492188 3.398438 5.753906 3.5625 5.917969 L 8.277344 10.632812 C 9.050781 11.40625 10.195312 11.070312 10.925781 10.335938 C 11.660156 9.605469 11.996094 8.460938 11.222656 7.6875 L 5.035156 1.5 C 3.941406 0.40625 2.195312 0.800781 1.203125 1.792969 C 0.699219 2.296875 0.359375 2.976562 0.277344 3.65625 C 0.179688 4.421875 0.40625 5.117188 0.910156 5.625 L 8.570312 13.285156 C 9.140625 13.851562 9.910156 14.15625 10.769531 14.15625 C 10.882812 14.15625 10.996094 14.152344 11.113281 14.140625 C 12.03125 14.058594 12.929688 13.636719 13.578125 12.988281 C 14.226562 12.339844 14.648438 11.441406 14.730469 10.523438 Z M 14.730469 10.523438 "/>
</g>
</svg>
