<?xml version="1.0" encoding="UTF-8"?>
<svg xmlns="http://www.w3.org/2000/svg" xmlns:xlink="http://www.w3.org/1999/xlink" width="15pt" height="15pt" viewBox="0 0 15 15" version="1.1">
<g id="surface1">
<path style=" stroke:none;fill-rule:nonzero;fill:rgb(13.333333%,40%,60%);fill-opacity:1;" d="M 0 12.082031 C 0 13.003906 0.746094 13.75 1.667969 13.75 L 11.667969 13.75 C 12.585938 13.75 13.332031 13.003906 13.332031 12.082031 L 13.332031 5 C 13.332031 4.078125 12.585938 3.332031 11.667969 3.332031 L 7.917969 3.332031 C 6.433594 3.332031 6.667969 1.25 4.402344 1.25 L 1.667969 1.25 C 0.746094 1.25 0 1.996094 0 2.917969 Z M 0 12.082031 "/>
<path style=" stroke:none;fill-rule:nonzero;fill:rgb(33.333333%,67.45098%,93.333333%);fill-opacity:1;" d="M 13.472656 5 L 10.738281 5 C 8.472656 5 8.496094 7.082031 7.011719 7.082031 L 3.261719 7.082031 C 2.339844 7.082031 1.519531 7.828125 1.425781 8.75 L 1.222656 10.363281 L 1.003906 12.082031 L 0.996094 12.082031 C 0.945312 12.335938 0.714844 12.5 0.453125 12.5 C 0.183594 12.5 -0.0078125 12.289062 0.00390625 12.023438 C 0.00390625 12.042969 0 12.0625 0 12.082031 C 0 12.917969 0.617188 13.601562 1.417969 13.722656 C 1.492188 13.742188 1.570312 13.75 1.667969 13.75 L 12.5 13.75 C 13.421875 13.75 14.242188 13.003906 14.335938 12.082031 L 14.96875 6.667969 C 15.0625 5.746094 14.394531 5 13.472656 5 Z M 13.472656 5 "/>
</g>
</svg>
