<?xml version="1.0" encoding="UTF-8"?>
<svg xmlns="http://www.w3.org/2000/svg" xmlns:xlink="http://www.w3.org/1999/xlink" width="15pt" height="15pt" viewBox="0 0 15 15" version="1.1">
<g id="surface1">
<path style=" stroke:none;fill-rule:nonzero;fill:rgb(16.078431%,18.431373%,20%);fill-opacity:1;" d="M 14.582031 13.332031 C 14.582031 14.253906 13.835938 15 12.917969 15 L 2.082031 15 C 1.164062 15 0.417969 14.253906 0.417969 13.332031 L 0.417969 3.332031 C 0.417969 2.414062 1.164062 1.667969 2.082031 1.667969 L 12.917969 1.667969 C 13.835938 1.667969 14.582031 2.414062 14.582031 3.332031 Z M 14.582031 13.332031 "/>
<path style=" stroke:none;fill-rule:nonzero;fill:rgb(88.235294%,90.980392%,92.941176%);fill-opacity:1;" d="M 13.75 13.332031 C 13.75 13.792969 13.375 14.167969 12.917969 14.167969 L 2.082031 14.167969 C 1.625 14.167969 1.25 13.792969 1.25 13.332031 L 1.25 5 C 1.25 4.539062 1.625 4.167969 2.082031 4.167969 L 12.917969 4.167969 C 13.375 4.167969 13.75 4.539062 13.75 5 Z M 13.75 13.332031 "/>
<path style=" stroke:none;fill-rule:nonzero;fill:rgb(86.666667%,18.039216%,26.666667%);fill-opacity:1;" d="M 13.75 6.667969 L 1.25 6.667969 L 1.25 3.332031 C 1.25 2.875 1.625 2.5 2.082031 2.5 L 12.917969 2.5 C 13.375 2.5 13.75 2.875 13.75 3.332031 Z M 13.75 6.667969 "/>
<path style=" stroke:none;fill-rule:nonzero;fill:rgb(60%,66.666667%,70.980392%);fill-opacity:1;" d="M 4.582031 2.917969 C 4.582031 3.148438 4.398438 3.332031 4.167969 3.332031 C 3.9375 3.332031 3.75 3.148438 3.75 2.917969 L 3.75 0.417969 C 3.75 0.1875 3.9375 0 4.167969 0 C 4.398438 0 4.582031 0.1875 4.582031 0.417969 Z M 11.25 2.917969 C 11.25 3.148438 11.0625 3.332031 10.832031 3.332031 C 10.601562 3.332031 10.417969 3.148438 10.417969 2.917969 L 10.417969 0.417969 C 10.417969 0.1875 10.601562 0 10.832031 0 C 11.0625 0 11.25 0.1875 11.25 0.417969 Z M 11.25 2.917969 "/>
<path style=" stroke:none;fill-rule:nonzero;fill:rgb(100%,100%,100%);fill-opacity:1;" d="M 3.457031 3.871094 C 3.457031 3.707031 3.585938 3.578125 3.75 3.578125 L 3.816406 3.578125 C 3.941406 3.578125 4.027344 3.644531 4.082031 3.730469 L 4.789062 4.882812 L 5.503906 3.726562 C 5.5625 3.628906 5.648438 3.578125 5.765625 3.578125 L 5.832031 3.578125 C 5.996094 3.578125 6.125 3.707031 6.125 3.871094 L 6.125 5.988281 C 6.125 6.152344 5.996094 6.28125 5.832031 6.28125 C 5.671875 6.28125 5.542969 6.148438 5.542969 5.988281 L 5.542969 4.660156 L 5.027344 5.453125 C 4.964844 5.542969 4.890625 5.601562 4.785156 5.601562 C 4.675781 5.601562 4.601562 5.542969 4.539062 5.453125 L 4.03125 4.671875 L 4.03125 5.996094 C 4.03125 6.15625 3.902344 6.28125 3.742188 6.28125 C 3.582031 6.28125 3.457031 6.15625 3.457031 5.996094 Z M 6.425781 5.882812 L 7.355469 3.785156 C 7.421875 3.640625 7.539062 3.550781 7.699219 3.550781 L 7.734375 3.550781 C 7.894531 3.550781 8.007812 3.640625 8.074219 3.785156 L 9 5.882812 C 9.019531 5.925781 9.03125 5.960938 9.03125 6 C 9.03125 6.15625 8.910156 6.28125 8.753906 6.28125 C 8.617188 6.28125 8.527344 6.203125 8.472656 6.082031 L 8.292969 5.660156 L 7.121094 5.660156 L 6.933594 6.097656 C 6.882812 6.214844 6.785156 6.28125 6.664062 6.28125 C 6.511719 6.28125 6.390625 6.160156 6.390625 6.007812 C 6.390625 5.964844 6.40625 5.925781 6.425781 5.882812 Z M 8.074219 5.144531 L 7.707031 4.265625 L 7.335938 5.144531 Z M 9.304688 3.886719 C 9.304688 3.722656 9.433594 3.59375 9.597656 3.59375 L 10.523438 3.59375 C 10.863281 3.59375 11.125 3.6875 11.300781 3.863281 C 11.449219 4.011719 11.527344 4.222656 11.527344 4.472656 L 11.527344 4.480469 C 11.527344 4.898438 11.320312 5.160156 10.996094 5.292969 L 11.402344 5.789062 C 11.460938 5.859375 11.496094 5.921875 11.496094 6.011719 C 11.496094 6.175781 11.359375 6.28125 11.21875 6.28125 C 11.085938 6.28125 11 6.21875 10.929688 6.128906 L 10.359375 5.40625 L 9.890625 5.40625 L 9.890625 5.988281 C 9.890625 6.152344 9.761719 6.28125 9.597656 6.28125 C 9.433594 6.28125 9.304688 6.152344 9.304688 5.988281 Z M 10.484375 4.890625 C 10.769531 4.890625 10.933594 4.734375 10.933594 4.511719 L 10.933594 4.503906 C 10.933594 4.253906 10.757812 4.125 10.472656 4.125 L 9.890625 4.125 L 9.890625 4.890625 Z M 10.484375 4.890625 "/>
<path style=" stroke:none;fill-rule:nonzero;fill:rgb(40%,45.882353%,49.803922%);fill-opacity:1;" d="M 9.78125 8.488281 L 9.59375 8.488281 C 9.1875 8.488281 9.019531 8.214844 9.019531 7.929688 C 9.019531 7.632812 9.230469 7.367188 9.59375 7.367188 L 10.351562 7.367188 C 10.714844 7.367188 10.917969 7.628906 10.917969 7.96875 L 10.917969 12.789062 C 10.917969 13.210938 10.707031 13.449219 10.34375 13.449219 C 9.980469 13.449219 9.78125 13.214844 9.78125 12.789062 Z M 4.203125 12.167969 L 5.90625 10.773438 C 6.648438 10.164062 6.941406 9.832031 6.941406 9.335938 C 6.941406 8.828125 6.605469 8.554688 6.136719 8.554688 C 5.757812 8.554688 5.496094 8.71875 5.160156 9.078125 C 5.074219 9.171875 4.921875 9.265625 4.714844 9.265625 C 4.382812 9.265625 4.117188 9 4.117188 8.667969 C 4.117188 8.523438 4.175781 8.367188 4.269531 8.257812 C 4.75 7.699219 5.316406 7.375 6.222656 7.375 C 7.460938 7.375 8.28125 8.101562 8.28125 9.222656 L 8.28125 9.242188 C 8.28125 10.242188 7.769531 10.738281 6.710938 11.558594 L 5.734375 12.3125 L 7.820312 12.3125 C 8.136719 12.3125 8.394531 12.566406 8.394531 12.882812 C 8.394531 13.203125 8.136719 13.449219 7.820312 13.449219 L 4.570312 13.449219 C 4.160156 13.449219 3.859375 13.21875 3.859375 12.824219 C 3.859375 12.566406 3.980469 12.347656 4.203125 12.167969 Z M 4.203125 12.167969 "/>
</g>
</svg>
