<?xml version="1.0" encoding="UTF-8"?>
<svg xmlns="http://www.w3.org/2000/svg" xmlns:xlink="http://www.w3.org/1999/xlink" width="15pt" height="15pt" viewBox="0 0 15 15" version="1.1">
<g id="surface1">
<path style=" stroke:none;fill-rule:nonzero;fill:rgb(80%,83.921569%,86.666667%);fill-opacity:1;" d="M 11.667969 13.332031 C 11.667969 14.253906 10.921875 15 10 15 L 1.667969 15 C 0.746094 15 0 14.21875 0 11.667969 L 0 1.667969 C 0 0.746094 0.746094 0 1.667969 0 L 10 0 C 10.921875 0 11.667969 0.746094 11.667969 1.667969 Z M 11.667969 13.332031 "/>
<path style=" stroke:none;fill-rule:nonzero;fill:rgb(88.235294%,90.980392%,92.941176%);fill-opacity:1;" d="M 12.917969 15 L 1.667969 15 C 3.332031 15 3.332031 11.667969 3.332031 11.667969 C 3.332031 10.746094 4.078125 10 5 10 L 13.332031 10 C 14.253906 10 15 10.832031 15 11.667969 C 15 11.667969 15.105469 15 12.917969 15 Z M 12.917969 15 "/>
<path style=" stroke:none;fill-rule:nonzero;fill:rgb(60%,66.666667%,70.980392%);fill-opacity:1;" d="M 10 2.917969 C 10 3.148438 9.8125 3.332031 9.582031 3.332031 L 2.082031 3.332031 C 1.851562 3.332031 1.667969 3.148438 1.667969 2.917969 C 1.667969 2.6875 1.851562 2.5 2.082031 2.5 L 9.582031 2.5 C 9.8125 2.5 10 2.6875 10 2.917969 Z M 10 4.582031 C 10 4.8125 9.8125 5 9.582031 5 L 2.082031 5 C 1.851562 5 1.667969 4.8125 1.667969 4.582031 C 1.667969 4.351562 1.851562 4.167969 2.082031 4.167969 L 9.582031 4.167969 C 9.8125 4.167969 10 4.351562 10 4.582031 Z M 10 6.25 C 10 6.480469 9.8125 6.667969 9.582031 6.667969 L 2.082031 6.667969 C 1.851562 6.667969 1.667969 6.480469 1.667969 6.25 C 1.667969 6.019531 1.851562 5.832031 2.082031 5.832031 L 9.582031 5.832031 C 9.8125 5.832031 10 6.019531 10 6.25 Z M 10 7.917969 C 10 8.148438 9.8125 8.332031 9.582031 8.332031 L 2.082031 8.332031 C 1.851562 8.332031 1.667969 8.148438 1.667969 7.917969 C 1.667969 7.6875 1.851562 7.5 2.082031 7.5 L 9.582031 7.5 C 9.8125 7.5 10 7.6875 10 7.917969 Z M 10 7.917969 "/>
</g>
</svg>
