<?xml version="1.0" encoding="UTF-8"?>
<svg xmlns="http://www.w3.org/2000/svg" xmlns:xlink="http://www.w3.org/1999/xlink" width="15pt" height="15pt" viewBox="0 0 15 15" version="1.1">
<g id="surface1">
<path style=" stroke:none;fill-rule:nonzero;fill:rgb(80%,83.921569%,86.666667%);fill-opacity:1;" d="M 12.917969 0.832031 L 2.082031 0.832031 C 1.394531 0.832031 0.832031 1.394531 0.832031 2.082031 L 0.832031 12.917969 C 0.832031 13.605469 1.394531 14.167969 2.082031 14.167969 L 12.917969 14.167969 C 13.605469 14.167969 14.167969 13.605469 14.167969 12.917969 L 14.167969 2.082031 C 14.167969 1.394531 13.605469 0.832031 12.917969 0.832031 Z M 12.917969 0.832031 "/>
<path style=" stroke:none;fill-rule:nonzero;fill:rgb(88.235294%,90.980392%,92.941176%);fill-opacity:1;" d="M 12.917969 0.417969 L 2.082031 0.417969 C 1.164062 0.417969 0.417969 1.164062 0.417969 2.082031 L 0.417969 12.917969 C 0.417969 13.835938 1.164062 14.582031 2.082031 14.582031 L 12.917969 14.582031 C 13.835938 14.582031 14.582031 13.835938 14.582031 12.917969 L 14.582031 2.082031 C 14.582031 1.164062 13.835938 0.417969 12.917969 0.417969 Z M 12.917969 1.25 C 13.375 1.25 13.75 1.625 13.75 2.082031 L 13.75 3.75 L 11.25 3.75 L 11.25 1.25 Z M 11.25 7.917969 L 13.75 7.917969 L 13.75 10.417969 L 11.25 10.417969 Z M 11.25 7.082031 L 11.25 4.582031 L 13.75 4.582031 L 13.75 7.082031 Z M 10.417969 1.25 L 10.417969 3.75 L 7.917969 3.75 L 7.917969 1.25 Z M 7.917969 4.582031 L 10.417969 4.582031 L 10.417969 7.082031 L 7.917969 7.082031 Z M 7.917969 7.917969 L 10.417969 7.917969 L 10.417969 10.417969 L 7.917969 10.417969 Z M 7.082031 1.25 L 7.082031 3.75 L 4.582031 3.75 L 4.582031 1.25 Z M 4.582031 4.582031 L 7.082031 4.582031 L 7.082031 7.082031 L 4.582031 7.082031 Z M 4.582031 7.917969 L 7.082031 7.917969 L 7.082031 10.417969 L 4.582031 10.417969 Z M 1.25 2.082031 C 1.25 1.625 1.625 1.25 2.082031 1.25 L 3.75 1.25 L 3.75 3.75 L 1.25 3.75 Z M 1.25 4.582031 L 3.75 4.582031 L 3.75 7.082031 L 1.25 7.082031 Z M 1.25 7.917969 L 3.75 7.917969 L 3.75 10.417969 L 1.25 10.417969 Z M 2.082031 13.75 C 1.625 13.75 1.25 13.375 1.25 12.917969 L 1.25 11.25 L 3.75 11.25 L 3.75 13.75 Z M 4.582031 13.75 L 4.582031 11.25 L 7.082031 11.25 L 7.082031 13.75 Z M 7.917969 13.75 L 7.917969 11.25 L 10.417969 11.25 L 10.417969 13.75 Z M 12.917969 13.75 L 11.25 13.75 L 11.25 11.25 L 13.75 11.25 L 13.75 12.917969 C 13.75 13.375 13.375 13.75 12.917969 13.75 Z M 12.917969 13.75 "/>
<path style=" stroke:none;fill-rule:nonzero;fill:rgb(36.078431%,56.862745%,23.137255%);fill-opacity:1;" d="M 5.417969 13.75 L 2.917969 13.75 L 2.917969 6.667969 C 2.917969 6.207031 3.289062 5.832031 3.75 5.832031 L 4.582031 5.832031 C 5.042969 5.832031 5.417969 6.207031 5.417969 6.667969 Z M 5.417969 13.75 "/>
<path style=" stroke:none;fill-rule:nonzero;fill:rgb(23.137255%,58.039216%,85.098039%);fill-opacity:1;" d="M 12.082031 13.75 L 9.582031 13.75 L 9.582031 3.75 C 9.582031 3.289062 9.957031 2.917969 10.417969 2.917969 L 11.25 2.917969 C 11.710938 2.917969 12.082031 3.289062 12.082031 3.75 Z M 12.082031 13.75 "/>
<path style=" stroke:none;fill-rule:nonzero;fill:rgb(86.666667%,18.039216%,26.666667%);fill-opacity:1;" d="M 8.75 13.75 L 6.25 13.75 L 6.25 9.582031 C 6.25 9.125 6.625 8.75 7.082031 8.75 L 7.917969 8.75 C 8.375 8.75 8.75 9.125 8.75 9.582031 Z M 8.75 13.75 "/>
</g>
</svg>
