<?xml version="1.0" encoding="UTF-8"?>
<svg xmlns="http://www.w3.org/2000/svg" xmlns:xlink="http://www.w3.org/1999/xlink" width="15pt" height="15pt" viewBox="0 0 15 15" version="1.1">
<g id="surface1">
<path style=" stroke:none;fill-rule:nonzero;fill:rgb(16.078431%,18.431373%,20%);fill-opacity:1;" d="M 9.167969 14.375 C 9.167969 14.03125 8.421875 13.75 7.5 13.75 C 6.578125 13.75 5.832031 14.03125 5.832031 14.375 C 5.832031 14.71875 6.578125 15 7.5 15 C 8.421875 15 9.167969 14.71875 9.167969 14.375 Z M 9.167969 14.375 "/>
<path style=" stroke:none;fill-rule:nonzero;fill:rgb(60%,66.666667%,70.980392%);fill-opacity:1;" d="M 5.972656 4.46875 C 5.972656 4.46875 7.039062 14.582031 7.5 14.582031 C 7.960938 14.582031 9.027344 4.46875 9.027344 4.46875 Z M 5.972656 4.46875 "/>
<path style=" stroke:none;fill-rule:nonzero;fill:rgb(86.666667%,18.039216%,26.666667%);fill-opacity:1;" d="M 10.832031 3.332031 C 10.832031 5.175781 9.339844 6.667969 7.5 6.667969 C 5.660156 6.667969 4.167969 5.175781 4.167969 3.332031 C 4.167969 1.492188 5.660156 0 7.5 0 C 9.339844 0 10.832031 1.492188 10.832031 3.332031 Z M 10.832031 3.332031 "/>
</g>
</svg>
