<?xml version="1.0" encoding="UTF-8"?>
<svg xmlns="http://www.w3.org/2000/svg" xmlns:xlink="http://www.w3.org/1999/xlink" width="15pt" height="15pt" viewBox="0 0 15 15" version="1.1">
<g id="surface1">
<path style=" stroke:none;fill-rule:nonzero;fill:rgb(19.215686%,21.568627%,23.921569%);fill-opacity:1;" d="M 15 11.25 C 15 12.171875 14.253906 12.917969 13.332031 12.917969 L 1.667969 12.917969 C 0.746094 12.917969 0 12.171875 0 11.25 L 0 3.75 C 0 2.828125 0.746094 2.082031 1.667969 2.082031 L 13.332031 2.082031 C 14.253906 2.082031 15 2.828125 15 3.75 Z M 15 11.25 "/>
<path style=" stroke:none;fill-rule:nonzero;fill:rgb(77.647059%,89.803922%,70.196078%);fill-opacity:1;" d="M 14.167969 8.75 C 14.167969 9.210938 13.792969 9.582031 13.332031 9.582031 L 1.667969 9.582031 C 1.207031 9.582031 0.832031 9.210938 0.832031 8.75 L 0.832031 3.75 C 0.832031 3.289062 1.207031 2.917969 1.667969 2.917969 L 13.332031 2.917969 C 13.792969 2.917969 14.167969 3.289062 14.167969 3.75 Z M 14.167969 8.75 "/>
<path style=" stroke:none;fill-rule:nonzero;fill:rgb(40%,45.882353%,49.803922%);fill-opacity:1;" d="M 5.832031 11.25 C 5.832031 11.710938 5.460938 12.082031 5 12.082031 L 1.667969 12.082031 C 1.207031 12.082031 0.832031 11.710938 0.832031 11.25 C 0.832031 10.789062 1.207031 10.417969 1.667969 10.417969 L 5 10.417969 C 5.460938 10.417969 5.832031 10.789062 5.832031 11.25 Z M 11.667969 11.25 C 11.667969 11.710938 11.292969 12.082031 10.832031 12.082031 L 7.5 12.082031 C 7.039062 12.082031 6.667969 11.710938 6.667969 11.25 C 6.667969 10.789062 7.039062 10.417969 7.5 10.417969 L 10.832031 10.417969 C 11.292969 10.417969 11.667969 10.789062 11.667969 11.25 Z M 11.667969 11.25 "/>
<path style=" stroke:none;fill-rule:nonzero;fill:rgb(86.666667%,18.039216%,26.666667%);fill-opacity:1;" d="M 14.167969 11.25 C 14.167969 11.710938 13.792969 12.082031 13.332031 12.082031 C 12.875 12.082031 12.5 11.710938 12.5 11.25 C 12.5 10.789062 12.875 10.417969 13.332031 10.417969 C 13.792969 10.417969 14.167969 10.789062 14.167969 11.25 Z M 14.167969 11.25 "/>
<path style=" stroke:none;fill-rule:nonzero;fill:rgb(46.666667%,69.803922%,33.333333%);fill-opacity:1;" d="M 10.257812 6.722656 C 10.136719 6.722656 10.082031 6.640625 10.082031 6.578125 C 10.082031 6.523438 10.101562 6.492188 10.117188 6.46875 L 10.671875 5.464844 C 10.726562 5.363281 10.796875 5.320312 10.925781 5.320312 C 11.070312 5.320312 11.210938 5.410156 11.210938 5.636719 L 11.210938 6.398438 L 11.253906 6.398438 C 11.347656 6.398438 11.425781 6.460938 11.425781 6.5625 C 11.425781 6.660156 11.347656 6.722656 11.253906 6.722656 L 11.210938 6.722656 L 11.210938 6.933594 C 11.210938 7.066406 11.160156 7.128906 11.03125 7.128906 C 10.90625 7.128906 10.855469 7.066406 10.855469 6.933594 L 10.855469 6.722656 Z M 10.855469 5.707031 L 10.847656 5.707031 L 10.515625 6.398438 L 10.855469 6.398438 Z M 8.460938 6.195312 C 8.460938 5.792969 8.617188 5.289062 9.113281 5.289062 C 9.609375 5.289062 9.761719 5.792969 9.761719 6.195312 C 9.761719 6.59375 9.609375 7.097656 9.113281 7.097656 C 8.617188 7.097656 8.460938 6.59375 8.460938 6.195312 Z M 9.378906 6.195312 C 9.378906 6.007812 9.363281 5.625 9.113281 5.625 C 8.859375 5.625 8.84375 6.007812 8.84375 6.195312 C 8.84375 6.367188 8.859375 6.765625 9.113281 6.765625 C 9.363281 6.765625 9.378906 6.367188 9.378906 6.195312 Z M 6.972656 6.695312 C 6.847656 6.695312 6.796875 6.613281 6.796875 6.546875 C 6.796875 6.492188 6.816406 6.464844 6.832031 6.4375 L 7.386719 5.433594 C 7.441406 5.332031 7.511719 5.289062 7.640625 5.289062 C 7.785156 5.289062 7.925781 5.378906 7.925781 5.605469 L 7.925781 6.367188 L 7.964844 6.367188 C 8.0625 6.367188 8.140625 6.433594 8.140625 6.53125 C 8.140625 6.628906 8.0625 6.695312 7.964844 6.695312 L 7.925781 6.695312 L 7.925781 6.90625 C 7.925781 7.035156 7.871094 7.097656 7.746094 7.097656 C 7.621094 7.097656 7.566406 7.035156 7.566406 6.90625 L 7.566406 6.695312 Z M 7.566406 5.675781 L 7.5625 5.675781 L 7.226562 6.367188 L 7.566406 6.367188 Z M 5.175781 6.222656 C 5.175781 5.824219 5.328125 5.320312 5.824219 5.320312 C 6.324219 5.320312 6.476562 5.824219 6.476562 6.222656 C 6.476562 6.625 6.320312 7.128906 5.824219 7.128906 C 5.328125 7.128906 5.175781 6.625 5.175781 6.222656 Z M 6.09375 6.222656 C 6.09375 6.035156 6.078125 5.652344 5.824219 5.652344 C 5.574219 5.652344 5.558594 6.035156 5.558594 6.222656 C 5.558594 6.398438 5.574219 6.792969 5.824219 6.792969 C 6.078125 6.792969 6.09375 6.398438 6.09375 6.222656 Z M 3.683594 6.722656 C 3.5625 6.722656 3.511719 6.640625 3.511719 6.578125 C 3.511719 6.523438 3.53125 6.492188 3.546875 6.46875 L 4.101562 5.464844 C 4.15625 5.363281 4.226562 5.320312 4.355469 5.320312 C 4.496094 5.320312 4.640625 5.410156 4.640625 5.636719 L 4.640625 6.398438 L 4.679688 6.398438 C 4.777344 6.398438 4.855469 6.460938 4.855469 6.5625 C 4.855469 6.660156 4.777344 6.722656 4.679688 6.722656 L 4.640625 6.722656 L 4.640625 6.933594 C 4.640625 7.066406 4.585938 7.128906 4.460938 7.128906 C 4.335938 7.128906 4.28125 7.066406 4.28125 6.933594 L 4.28125 6.722656 Z M 4.28125 5.707031 L 4.277344 5.707031 L 3.941406 6.398438 L 4.28125 6.398438 Z M 4.28125 5.707031 "/>
</g>
</svg>
