<?xml version="1.0" encoding="UTF-8"?>
<svg xmlns="http://www.w3.org/2000/svg" xmlns:xlink="http://www.w3.org/1999/xlink" width="15pt" height="15pt" viewBox="0 0 15 15" version="1.1">
<g id="surface1">
<path style=" stroke:none;fill-rule:nonzero;fill:rgb(13.333333%,40%,60%);fill-opacity:1;" d="M 13.332031 2.917969 L 1.667969 2.917969 C 0.746094 2.917969 0 3.664062 0 4.582031 L 0 10.832031 C 0 11.753906 0.746094 12.5 1.667969 12.5 L 6.421875 12.5 C 6.640625 12.75 7.039062 12.917969 7.5 12.917969 C 7.960938 12.917969 8.359375 12.75 8.578125 12.5 L 13.332031 12.5 C 14.253906 12.5 15 11.753906 15 10.832031 L 15 4.582031 C 15 3.664062 14.253906 2.917969 13.332031 2.917969 Z M 13.332031 2.917969 "/>
<path style=" stroke:none;fill-rule:nonzero;fill:rgb(16.078431%,18.431373%,20%);fill-opacity:1;" d="M 8.332031 11.25 C 8.332031 11.710938 7.960938 12.082031 7.5 12.082031 C 7.039062 12.082031 6.667969 11.710938 6.667969 11.25 L 6.667969 3.75 C 6.667969 3.289062 7.039062 2.917969 7.5 2.917969 C 7.960938 2.917969 8.332031 3.289062 8.332031 3.75 Z M 8.332031 11.25 "/>
<path style=" stroke:none;fill-rule:nonzero;fill:rgb(60%,66.666667%,70.980392%);fill-opacity:1;" d="M 7.5 10.832031 C 7.5 11.292969 7.125 11.667969 6.667969 11.667969 L 1.667969 11.667969 C 1.207031 11.667969 0.832031 11.292969 0.832031 10.832031 L 0.832031 3.332031 C 0.832031 2.875 1.207031 2.5 1.667969 2.5 L 6.667969 2.5 C 7.125 2.5 7.5 2.875 7.5 3.332031 Z M 7.5 10.832031 "/>
<path style=" stroke:none;fill-rule:nonzero;fill:rgb(88.235294%,90.980392%,92.941176%);fill-opacity:1;" d="M 7.5 10.832031 C 7.082031 10 5.976562 10 5.832031 10 C 5 10 3.75 10.832031 2.5 10.832031 C 2.082031 10.832031 1.667969 10.460938 1.667969 10 L 1.667969 3.332031 C 1.667969 2.875 2.082031 2.5 2.5 2.5 C 3.855469 2.5 5 1.667969 5.832031 1.667969 C 7.082031 1.667969 7.5 2.457031 7.5 2.917969 Z M 7.5 10.832031 "/>
<path style=" stroke:none;fill-rule:nonzero;fill:rgb(60%,66.666667%,70.980392%);fill-opacity:1;" d="M 14.167969 10.832031 C 14.167969 11.292969 13.792969 11.667969 13.332031 11.667969 L 8.332031 11.667969 C 7.875 11.667969 7.5 11.292969 7.5 10.832031 L 7.5 3.332031 C 7.5 2.875 7.875 2.5 8.332031 2.5 L 13.332031 2.5 C 13.792969 2.5 14.167969 2.875 14.167969 3.332031 Z M 14.167969 10.832031 "/>
<path style=" stroke:none;fill-rule:nonzero;fill:rgb(80%,83.921569%,86.666667%);fill-opacity:1;" d="M 7.5 10.832031 C 7.917969 10 9.023438 10 9.167969 10 C 10 10 11.25 10.832031 12.5 10.832031 C 12.917969 10.832031 13.332031 10.460938 13.332031 10 L 13.332031 3.332031 C 13.332031 2.875 12.917969 2.5 12.5 2.5 C 11.144531 2.5 10 1.667969 9.167969 1.667969 C 7.917969 1.667969 7.5 2.457031 7.5 2.917969 Z M 7.5 10.832031 "/>
</g>
</svg>
