<?xml version="1.0" encoding="UTF-8"?>
<svg xmlns="http://www.w3.org/2000/svg" xmlns:xlink="http://www.w3.org/1999/xlink" width="15pt" height="15pt" viewBox="0 0 15 15" version="1.1">
<g id="surface1">
<path style=" stroke:none;fill-rule:nonzero;fill:rgb(88.235294%,90.980392%,92.941176%);fill-opacity:1;" d="M 12.671875 3.996094 L 8.921875 0.246094 C 8.773438 0.09375 8.5625 0 8.332031 0 C 7.875 0 7.5 0.375 7.5 0.832031 C 7.5 1.0625 7.59375 1.273438 7.746094 1.421875 L 6.136719 3.03125 L 9.886719 6.78125 L 11.496094 5.171875 C 11.644531 5.324219 11.851562 5.417969 12.082031 5.417969 C 12.542969 5.417969 12.917969 5.042969 12.917969 4.582031 C 12.917969 4.351562 12.824219 4.144531 12.671875 3.996094 Z M 12.671875 3.996094 "/>
<path style=" stroke:none;fill-rule:nonzero;fill:rgb(80%,83.921569%,86.666667%);fill-opacity:1;" d="M 8.332031 0 L 2.082031 0 C 1.164062 0 0.417969 0.746094 0.417969 1.667969 L 0.417969 13.332031 C 0.417969 14.253906 1.164062 15 2.082031 15 L 11.25 15 C 12.171875 15 12.917969 14.253906 12.917969 13.332031 L 12.917969 4.582031 L 9.167969 4.582031 C 8.75 4.582031 8.332031 4.167969 8.332031 3.75 Z M 8.332031 0 "/>
<path style=" stroke:none;fill-rule:nonzero;fill:rgb(60%,66.666667%,70.980392%);fill-opacity:1;" d="M 8.332031 0 L 7.5 0 L 7.5 3.75 C 7.5 4.671875 8.246094 5.417969 9.167969 5.417969 L 12.917969 5.417969 L 12.917969 4.582031 L 9.167969 4.582031 C 8.75 4.582031 8.332031 4.167969 8.332031 3.75 Z M 6.25 3.332031 C 6.25 3.5625 6.0625 3.75 5.832031 3.75 L 2.5 3.75 C 2.269531 3.75 2.082031 3.5625 2.082031 3.332031 C 2.082031 3.101562 2.269531 2.917969 2.5 2.917969 L 5.832031 2.917969 C 6.0625 2.917969 6.25 3.101562 6.25 3.332031 Z M 6.25 5 C 6.25 5.230469 6.0625 5.417969 5.832031 5.417969 L 2.5 5.417969 C 2.269531 5.417969 2.082031 5.230469 2.082031 5 C 2.082031 4.769531 2.269531 4.582031 2.5 4.582031 L 5.832031 4.582031 C 6.0625 4.582031 6.25 4.769531 6.25 5 Z M 11.25 6.667969 C 11.25 6.898438 11.0625 7.082031 10.832031 7.082031 L 2.5 7.082031 C 2.269531 7.082031 2.082031 6.898438 2.082031 6.667969 C 2.082031 6.4375 2.269531 6.25 2.5 6.25 L 10.832031 6.25 C 11.0625 6.25 11.25 6.4375 11.25 6.667969 Z M 11.25 8.332031 C 11.25 8.5625 11.0625 8.75 10.832031 8.75 L 2.5 8.75 C 2.269531 8.75 2.082031 8.5625 2.082031 8.332031 C 2.082031 8.101562 2.269531 7.917969 2.5 7.917969 L 10.832031 7.917969 C 11.0625 7.917969 11.25 8.101562 11.25 8.332031 Z M 11.25 10 C 11.25 10.230469 11.0625 10.417969 10.832031 10.417969 L 2.5 10.417969 C 2.269531 10.417969 2.082031 10.230469 2.082031 10 C 2.082031 9.769531 2.269531 9.582031 2.5 9.582031 L 10.832031 9.582031 C 11.0625 9.582031 11.25 9.769531 11.25 10 Z M 11.25 11.667969 C 11.25 11.898438 11.0625 12.082031 10.832031 12.082031 L 2.5 12.082031 C 2.269531 12.082031 2.082031 11.898438 2.082031 11.667969 C 2.082031 11.4375 2.269531 11.25 2.5 11.25 L 10.832031 11.25 C 11.0625 11.25 11.25 11.4375 11.25 11.667969 Z M 11.25 11.667969 "/>
<path style=" stroke:none;fill-rule:nonzero;fill:rgb(40%,45.882353%,49.803922%);fill-opacity:1;" d="M 12.917969 7.917969 C 12.917969 7.917969 10.457031 7.914062 10.445312 7.917969 C 10.324219 7.917969 10.066406 7.988281 9.921875 8.167969 L 8.949219 9.390625 C 8.683594 9.726562 8.683594 10.273438 8.949219 10.609375 L 9.921875 11.832031 C 10.066406 12.011719 10.324219 12.082031 10.445312 12.082031 C 10.453125 12.085938 11.921875 12.082031 12.917969 12.082031 Z M 12.917969 7.917969 "/>
<path style=" stroke:none;fill-rule:nonzero;fill:rgb(45.490196%,30.588235%,66.666667%);fill-opacity:1;" d="M 13.75 7.917969 C 13.75 7.917969 10.394531 7.914062 10.382812 7.917969 C 10.261719 7.917969 10.003906 7.972656 9.859375 8.117188 L 8.890625 9.09375 C 8.621094 9.363281 8.621094 9.800781 8.890625 10.070312 L 9.859375 11.046875 C 10.003906 11.191406 10.261719 11.25 10.382812 11.25 C 10.394531 11.25 13.75 11.25 13.75 11.25 C 14.210938 11.25 14.582031 10.875 14.582031 10.417969 L 14.582031 8.75 C 14.582031 8.289062 14.210938 7.917969 13.75 7.917969 Z M 13.75 7.917969 "/>
</g>
</svg>
