<?xml version="1.0" encoding="UTF-8"?>
<svg xmlns="http://www.w3.org/2000/svg" xmlns:xlink="http://www.w3.org/1999/xlink" width="15pt" height="15pt" viewBox="0 0 15 15" version="1.1">
<g id="surface1">
<path style=" stroke:none;fill-rule:nonzero;fill:rgb(33.333333%,21.568627%,53.333333%);fill-opacity:1;" d="M 6.25 12.917969 C 6.25 13.835938 5.921875 14.582031 5 14.582031 L 2.082031 14.582031 C 0.417969 14.582031 0.417969 8.75 2.082031 8.75 L 5 8.75 C 5.921875 8.75 6.25 9.496094 6.25 10.417969 Z M 6.25 12.917969 "/>
<path style=" stroke:none;fill-rule:nonzero;fill:rgb(57.254902%,40%,80%);fill-opacity:1;" d="M 14.167969 13.75 L 13.75 13.75 L 13.75 9.582031 L 14.167969 9.582031 C 14.398438 9.582031 14.582031 9.398438 14.582031 9.167969 C 14.582031 8.9375 14.398438 8.75 14.167969 8.75 L 4.167969 8.75 C 2.5 8.75 2.5 14.582031 4.167969 14.582031 L 14.167969 14.582031 C 14.398438 14.582031 14.582031 14.398438 14.582031 14.167969 C 14.582031 13.9375 14.398438 13.75 14.167969 13.75 Z M 14.167969 13.75 "/>
<path style=" stroke:none;fill-rule:nonzero;fill:rgb(80%,83.921569%,86.666667%);fill-opacity:1;" d="M 14.238281 13.75 L 4.582031 13.75 C 3.75 13.75 3.75 9.582031 4.582031 9.582031 L 14.238281 9.582031 C 14.699219 9.582031 14.699219 13.75 14.238281 13.75 Z M 14.238281 13.75 "/>
<path style=" stroke:none;fill-rule:nonzero;fill:rgb(60%,66.666667%,70.980392%);fill-opacity:1;" d="M 4.792969 10.417969 L 14.519531 10.417969 C 14.464844 9.925781 14.371094 9.582031 14.238281 9.582031 L 4.582031 9.582031 C 3.894531 9.582031 3.777344 12.421875 4.222656 13.410156 C 4.058594 12.179688 4.25 10.417969 4.792969 10.417969 Z M 4.792969 10.417969 "/>
<path style=" stroke:none;fill-rule:nonzero;fill:rgb(13.333333%,40%,60%);fill-opacity:1;" d="M 5 3.332031 C 5 4.253906 4.253906 5 3.332031 5 L 1.667969 5 C 0 5 0 0.417969 1.667969 0.417969 L 3.332031 0.417969 C 4.253906 0.417969 5 1.164062 5 2.082031 Z M 5 3.332031 "/>
<path style=" stroke:none;fill-rule:nonzero;fill:rgb(33.333333%,67.45098%,93.333333%);fill-opacity:1;" d="M 12.917969 4.167969 L 12.5 4.167969 L 12.5 1.25 L 12.917969 1.25 C 13.148438 1.25 13.332031 1.0625 13.332031 0.832031 C 13.332031 0.601562 13.148438 0.417969 12.917969 0.417969 L 2.917969 0.417969 C 1.25 0.417969 1.25 5 2.917969 5 L 12.917969 5 C 13.148438 5 13.332031 4.8125 13.332031 4.582031 C 13.332031 4.351562 13.148438 4.167969 12.917969 4.167969 Z M 12.917969 4.167969 "/>
<path style=" stroke:none;fill-rule:nonzero;fill:rgb(80%,83.921569%,86.666667%);fill-opacity:1;" d="M 12.988281 4.167969 L 3.332031 4.167969 C 2.5 4.167969 2.5 1.25 3.332031 1.25 L 12.988281 1.25 C 13.449219 1.25 13.449219 4.167969 12.988281 4.167969 Z M 12.988281 4.167969 "/>
<path style=" stroke:none;fill-rule:nonzero;fill:rgb(60%,66.666667%,70.980392%);fill-opacity:1;" d="M 3.332031 2.082031 L 13.300781 2.082031 C 13.253906 1.613281 13.152344 1.25 12.988281 1.25 L 3.332031 1.25 C 2.835938 1.25 2.636719 2.285156 2.734375 3.125 C 2.800781 2.558594 2.996094 2.082031 3.332031 2.082031 Z M 3.332031 2.082031 "/>
<path style=" stroke:none;fill-rule:nonzero;fill:rgb(95.686275%,56.470588%,4.705882%);fill-opacity:1;" d="M 8.332031 7.082031 C 8.332031 8.003906 7.585938 8.75 6.667969 8.75 L 2.5 8.75 C 0.832031 8.75 0.832031 5 2.5 5 L 6.667969 5 C 7.585938 5 8.332031 5.746094 8.332031 6.667969 Z M 8.332031 7.082031 "/>
<path style=" stroke:none;fill-rule:nonzero;fill:rgb(100%,67.45098%,20%);fill-opacity:1;" d="M 14.582031 7.917969 L 14.167969 7.917969 L 14.167969 5.832031 L 14.582031 5.832031 C 14.8125 5.832031 15 5.648438 15 5.417969 C 15 5.1875 14.8125 5 14.582031 5 L 6.25 5 C 4.582031 5 4.582031 8.75 6.25 8.75 L 14.582031 8.75 C 14.8125 8.75 15 8.5625 15 8.332031 C 15 8.101562 14.8125 7.917969 14.582031 7.917969 Z M 14.582031 7.917969 "/>
<path style=" stroke:none;fill-rule:nonzero;fill:rgb(80%,83.921569%,86.666667%);fill-opacity:1;" d="M 14.65625 7.917969 L 6.667969 7.917969 C 5.832031 7.917969 5.832031 5.832031 6.667969 5.832031 L 14.65625 5.832031 C 15.113281 5.832031 15.113281 7.917969 14.65625 7.917969 Z M 14.65625 7.917969 "/>
<path style=" stroke:none;fill-rule:nonzero;fill:rgb(60%,66.666667%,70.980392%);fill-opacity:1;" d="M 6.667969 6.667969 L 14.992188 6.667969 C 14.964844 6.222656 14.855469 5.832031 14.65625 5.832031 L 6.667969 5.832031 C 6.136719 5.832031 5.945312 6.679688 6.089844 7.292969 C 6.171875 6.941406 6.363281 6.667969 6.667969 6.667969 Z M 6.667969 6.667969 "/>
</g>
</svg>
