<?xml version="1.0" encoding="UTF-8"?>
<svg xmlns="http://www.w3.org/2000/svg" xmlns:xlink="http://www.w3.org/1999/xlink" width="15pt" height="15pt" viewBox="0 0 15 15" version="1.1">
<g id="surface1">
<path style=" stroke:none;fill-rule:nonzero;fill:rgb(95.686275%,56.470588%,4.705882%);fill-opacity:1;" d="M 15 10.832031 C 15 11.753906 14.253906 12.5 13.332031 12.5 L 3.332031 12.5 C 2.414062 12.5 1.667969 11.753906 1.667969 10.832031 L 1.667969 2.628906 C 1.667969 1.710938 4.078125 0 5 0 L 12.761719 0 C 14.050781 0 15 0.964844 15 2.238281 Z M 15 10.832031 "/>
<path style=" stroke:none;fill-rule:nonzero;fill:rgb(80%,83.921569%,86.666667%);fill-opacity:1;" d="M 14.167969 12.5 C 14.167969 13.421875 13.421875 14.167969 12.5 14.167969 L 4.167969 14.167969 C 3.246094 14.167969 2.5 13.421875 2.5 12.5 L 2.5 2.5 C 2.5 0.785156 2.492188 0.832031 4.582031 0.832031 L 12.5 0.832031 C 13.421875 0.832031 14.167969 1.578125 14.167969 2.5 Z M 14.167969 12.5 "/>
<path style=" stroke:none;fill-rule:nonzero;fill:rgb(88.235294%,90.980392%,92.941176%);fill-opacity:1;" d="M 13.332031 12.917969 C 13.332031 13.605469 12.773438 14.167969 12.082031 14.167969 L 2.917969 14.167969 C 2.226562 14.167969 1.667969 13.605469 1.667969 12.917969 L 1.667969 2.917969 C 1.667969 2.226562 2.226562 1.667969 2.917969 1.667969 L 12.082031 1.667969 C 12.773438 1.667969 13.332031 2.226562 13.332031 2.917969 Z M 13.332031 12.917969 "/>
<path style=" stroke:none;fill-rule:nonzero;fill:rgb(100%,67.45098%,20%);fill-opacity:1;" d="M 13.332031 13.332031 C 13.332031 14.253906 12.585938 15 11.667969 15 L 3.75 15 C 2.828125 15 2.082031 14.253906 2.082031 13.332031 L 2.082031 4.167969 C 2.082031 3.246094 2.828125 2.5 3.75 2.5 L 11.667969 2.5 C 12.585938 2.5 13.332031 3.246094 13.332031 4.167969 Z M 13.332031 13.332031 "/>
<path style=" stroke:none;fill-rule:nonzero;fill:rgb(100%,80%,30.196078%);fill-opacity:1;" d="M 12.5 13.332031 C 12.5 14.253906 11.753906 15 10.832031 15 L 3.75 15 C 2.828125 15 2.082031 14.253906 2.082031 13.332031 L 2.082031 5 C 2.082031 4.078125 2.828125 3.332031 3.75 3.332031 L 10.972656 3.332031 C 11.894531 3.332031 12.5 3.941406 12.5 4.859375 Z M 12.5 13.332031 "/>
<path style=" stroke:none;fill-rule:nonzero;fill:rgb(95.686275%,56.470588%,4.705882%);fill-opacity:1;" d="M 3.75 2.5 C 3.046875 2.5 3.027344 1.699219 3.332031 1.355469 C 3.679688 0.960938 4.21875 0.832031 5.183594 0.832031 L 5.832031 0.832031 L 5.832031 0 L 4.699219 0 C 3.046875 0 1.667969 1.042969 1.667969 2.238281 L 1.667969 13.332031 C 1.667969 14.253906 2.414062 15 3.332031 15 L 4.167969 15 L 4.167969 2.5 Z M 3.75 2.5 "/>
<path style=" stroke:none;fill-rule:nonzero;fill:rgb(40%,12.941176%,7.45098%);fill-opacity:1;" d="M 3.558594 13.742188 C 3.558594 14.035156 3.28125 14.269531 2.9375 14.269531 C 2.597656 14.269531 2.316406 14.035156 2.316406 13.742188 C 2.316406 13.449219 2.597656 13.210938 2.9375 13.210938 C 3.28125 13.210938 3.558594 13.449219 3.558594 13.742188 Z M 3.558594 13.742188 "/>
<path style=" stroke:none;fill-rule:nonzero;fill:rgb(40%,45.882353%,49.803922%);fill-opacity:1;" d="M 2.871094 13.445312 C 2.671875 13.46875 2.542969 13.601562 2.449219 13.75 C 2.320312 13.953125 2.027344 14.167969 1.667969 14.167969 C 1.207031 14.167969 0.832031 13.886719 0.832031 13.542969 C 0.832031 13.195312 1.207031 12.917969 1.667969 12.917969 L 1.667969 12.085938 C 0.765625 12.09375 0.0351562 12.742188 0.0351562 13.542969 C 0.0351562 14.347656 0.773438 15 1.683594 15 C 2.457031 15 3.078125 14.566406 3.308594 13.929688 C 3.425781 13.613281 3.113281 13.417969 2.871094 13.445312 Z M 2.871094 13.445312 "/>
<path style=" stroke:none;fill-rule:nonzero;fill:rgb(40%,12.941176%,7.45098%);fill-opacity:1;" d="M 3.558594 10.40625 C 3.558594 10.699219 3.28125 10.9375 2.9375 10.9375 C 2.597656 10.9375 2.316406 10.699219 2.316406 10.40625 C 2.316406 10.117188 2.597656 9.878906 2.9375 9.878906 C 3.28125 9.878906 3.558594 10.117188 3.558594 10.40625 Z M 3.558594 10.40625 "/>
<path style=" stroke:none;fill-rule:nonzero;fill:rgb(40%,45.882353%,49.803922%);fill-opacity:1;" d="M 2.871094 10.113281 C 2.671875 10.136719 2.542969 10.269531 2.449219 10.417969 C 2.320312 10.617188 2.027344 10.832031 1.667969 10.832031 C 1.207031 10.832031 0.832031 10.554688 0.832031 10.207031 C 0.832031 9.863281 1.207031 9.582031 1.667969 9.582031 L 1.667969 8.75 C 0.765625 8.761719 0.0351562 9.40625 0.0351562 10.207031 C 0.0351562 11.015625 0.773438 11.667969 1.683594 11.667969 C 2.457031 11.667969 3.078125 11.230469 3.308594 10.597656 C 3.425781 10.28125 3.113281 10.085938 2.871094 10.113281 Z M 2.871094 10.113281 "/>
<path style=" stroke:none;fill-rule:nonzero;fill:rgb(40%,12.941176%,7.45098%);fill-opacity:1;" d="M 3.558594 7.074219 C 3.558594 7.367188 3.28125 7.605469 2.9375 7.605469 C 2.597656 7.605469 2.316406 7.367188 2.316406 7.074219 C 2.316406 6.78125 2.597656 6.546875 2.9375 6.546875 C 3.28125 6.546875 3.558594 6.78125 3.558594 7.074219 Z M 3.558594 7.074219 "/>
<path style=" stroke:none;fill-rule:nonzero;fill:rgb(40%,45.882353%,49.803922%);fill-opacity:1;" d="M 2.871094 6.78125 C 2.671875 6.800781 2.542969 6.9375 2.449219 7.082031 C 2.320312 7.285156 2.027344 7.5 1.667969 7.5 C 1.207031 7.5 0.832031 7.21875 0.832031 6.875 C 0.832031 6.53125 1.207031 6.25 1.667969 6.25 L 1.667969 5.417969 C 0.765625 5.425781 0.0351562 6.074219 0.0351562 6.875 C 0.0351562 7.679688 0.773438 8.332031 1.683594 8.332031 C 2.457031 8.332031 3.078125 7.898438 3.308594 7.261719 C 3.425781 6.945312 3.113281 6.753906 2.871094 6.78125 Z M 2.871094 6.78125 "/>
<path style=" stroke:none;fill-rule:nonzero;fill:rgb(40%,12.941176%,7.45098%);fill-opacity:1;" d="M 3.558594 3.742188 C 3.558594 4.035156 3.28125 4.269531 2.9375 4.269531 C 2.597656 4.269531 2.316406 4.035156 2.316406 3.742188 C 2.316406 3.449219 2.597656 3.210938 2.9375 3.210938 C 3.28125 3.210938 3.558594 3.449219 3.558594 3.742188 Z M 3.558594 3.742188 "/>
<path style=" stroke:none;fill-rule:nonzero;fill:rgb(40%,45.882353%,49.803922%);fill-opacity:1;" d="M 2.871094 3.445312 C 2.671875 3.46875 2.542969 3.601562 2.449219 3.75 C 2.320312 3.953125 2.027344 4.167969 1.667969 4.167969 C 1.207031 4.167969 0.832031 3.886719 0.832031 3.542969 C 0.832031 3.195312 1.207031 2.917969 1.667969 2.917969 L 1.667969 2.085938 C 0.765625 2.09375 0.0351562 2.742188 0.0351562 3.542969 C 0.0351562 4.347656 0.773438 5 1.683594 5 C 2.457031 5 3.078125 4.566406 3.308594 3.929688 C 3.425781 3.613281 3.113281 3.417969 2.871094 3.445312 Z M 2.871094 3.445312 "/>
</g>
</svg>
