<?xml version="1.0" encoding="UTF-8"?>
<svg xmlns="http://www.w3.org/2000/svg" xmlns:xlink="http://www.w3.org/1999/xlink" width="15pt" height="15pt" viewBox="0 0 15 15" version="1.1">
<g id="surface1">
<path style=" stroke:none;fill-rule:nonzero;fill:rgb(86.666667%,18.039216%,26.666667%);fill-opacity:1;" d="M 11.792969 1.074219 C 11.605469 0.941406 11.371094 1 11.265625 1.207031 L 10.183594 3.378906 C 10.082031 3.582031 9.894531 3.59375 9.769531 3.402344 L 7.730469 0.359375 C 7.605469 0.167969 7.394531 0.167969 7.269531 0.359375 L 5.230469 3.402344 C 5.105469 3.59375 4.917969 3.582031 4.8125 3.375 L 3.734375 1.207031 C 3.632812 1 3.394531 0.941406 3.207031 1.074219 C 3.207031 1.074219 0 3.332031 0 8.332031 C 0 11.554688 3.359375 15 7.5 15 C 11.640625 15 15 11.554688 15 8.332031 C 15 3.332031 11.792969 1.074219 11.792969 1.074219 Z M 11.792969 1.074219 "/>
<path style=" stroke:none;fill-rule:nonzero;fill:rgb(96.078431%,97.254902%,98.039216%);fill-opacity:1;" d="M 13.332031 9.582031 C 13.332031 10.042969 12.960938 10.417969 12.5 10.417969 L 2.5 10.417969 C 2.039062 10.417969 1.667969 10.042969 1.667969 9.582031 L 1.667969 6.667969 C 1.667969 6.207031 2.039062 5.832031 2.5 5.832031 L 12.5 5.832031 C 12.960938 5.832031 13.332031 6.207031 13.332031 6.667969 Z M 13.332031 9.582031 "/>
</g>
</svg>
