<?xml version="1.0" encoding="UTF-8"?>
<svg xmlns="http://www.w3.org/2000/svg" xmlns:xlink="http://www.w3.org/1999/xlink" width="15pt" height="15pt" viewBox="0 0 15 15" version="1.1">
<g id="surface1">
<path style=" stroke:none;fill-rule:nonzero;fill:rgb(95.686275%,56.470588%,4.705882%);fill-opacity:1;" d="M 14.582031 10.832031 C 14.582031 11.753906 13.835938 12.5 12.917969 12.5 L 2.082031 12.5 C 1.164062 12.5 0.417969 11.753906 0.417969 10.832031 L 0.417969 2.628906 C 0.417969 1.710938 2.828125 0 3.75 0 L 12.34375 0 C 13.632812 0 14.582031 0.964844 14.582031 2.238281 Z M 14.582031 10.832031 "/>
<path style=" stroke:none;fill-rule:nonzero;fill:rgb(80%,83.921569%,86.666667%);fill-opacity:1;" d="M 13.75 12.5 C 13.75 13.421875 13.003906 14.167969 12.082031 14.167969 L 2.917969 14.167969 C 1.996094 14.167969 1.25 13.421875 1.25 12.5 L 1.25 2.5 C 1.25 0.785156 1.242188 0.832031 3.332031 0.832031 L 12.082031 0.832031 C 13.003906 0.832031 13.75 1.578125 13.75 2.5 Z M 13.75 12.5 "/>
<path style=" stroke:none;fill-rule:nonzero;fill:rgb(88.235294%,90.980392%,92.941176%);fill-opacity:1;" d="M 12.917969 12.917969 C 12.917969 13.605469 12.355469 14.167969 11.667969 14.167969 L 1.667969 14.167969 C 0.976562 14.167969 0.417969 13.605469 0.417969 12.917969 L 0.417969 2.917969 C 0.417969 2.226562 0.976562 1.667969 1.667969 1.667969 L 11.667969 1.667969 C 12.355469 1.667969 12.917969 2.226562 12.917969 2.917969 Z M 12.917969 12.917969 "/>
<path style=" stroke:none;fill-rule:nonzero;fill:rgb(95.686275%,56.470588%,4.705882%);fill-opacity:1;" d="M 12.917969 13.332031 C 12.917969 14.253906 12.171875 15 11.25 15 L 2.5 15 C 1.578125 15 0.832031 14.253906 0.832031 13.332031 L 0.832031 4.167969 C 0.832031 3.246094 1.578125 2.5 2.5 2.5 L 11.25 2.5 C 12.171875 2.5 12.917969 3.246094 12.917969 4.167969 Z M 12.917969 13.332031 "/>
<path style=" stroke:none;fill-rule:nonzero;fill:rgb(100%,67.45098%,20%);fill-opacity:1;" d="M 12.082031 13.332031 C 12.082031 14.253906 11.335938 15 10.417969 15 L 2.5 15 C 1.578125 15 0.832031 14.253906 0.832031 13.332031 L 0.832031 5 C 0.832031 4.078125 1.578125 3.332031 2.5 3.332031 L 10.554688 3.332031 C 11.476562 3.332031 12.082031 3.941406 12.082031 4.859375 Z M 12.082031 13.332031 "/>
<path style=" stroke:none;fill-rule:nonzero;fill:rgb(95.686275%,56.470588%,4.705882%);fill-opacity:1;" d="M 2.5 2.5 C 1.796875 2.5 1.777344 1.699219 2.082031 1.355469 C 2.429688 0.960938 2.96875 0.832031 3.933594 0.832031 L 4.582031 0.832031 L 4.582031 0 L 3.449219 0 C 1.796875 0 0.417969 1.042969 0.417969 2.238281 L 0.417969 13.332031 C 0.417969 14.253906 1.164062 15 2.082031 15 L 2.917969 15 L 2.917969 2.5 Z M 2.5 2.5 "/>
</g>
</svg>
