<?xml version="1.0" encoding="UTF-8"?>
<svg xmlns="http://www.w3.org/2000/svg" xmlns:xlink="http://www.w3.org/1999/xlink" width="15pt" height="15pt" viewBox="0 0 15 15" version="1.1">
<g id="surface1">
<path style=" stroke:none;fill-rule:nonzero;fill:rgb(74.509804%,9.803922%,19.215686%);fill-opacity:1;" d="M 5.378906 12.8125 C 5.261719 13.734375 4.421875 14.0625 3.503906 14.0625 C 2.582031 14.0625 1.929688 13.316406 2.046875 12.394531 L 2.460938 8.644531 C 2.578125 7.726562 3.417969 6.980469 4.335938 6.980469 C 5.257812 6.980469 7.03125 6.980469 5.796875 8.644531 C 4.558594 10.3125 5.378906 12.8125 5.378906 12.8125 Z M 5.378906 12.8125 "/>
<path style=" stroke:none;fill-rule:nonzero;fill:rgb(80%,83.921569%,86.666667%);fill-opacity:1;" d="M 14.925781 6.144531 C 14.925781 9.023438 14.285156 11.355469 13.488281 11.355469 C 12.695312 11.355469 4.96875 9.023438 4.96875 6.144531 C 4.96875 3.269531 12.695312 0.9375 13.488281 0.9375 C 14.285156 0.9375 14.925781 3.269531 14.925781 6.144531 Z M 14.925781 6.144531 "/>
<path style=" stroke:none;fill-rule:nonzero;fill:rgb(40%,45.882353%,49.803922%);fill-opacity:1;" d="M 14.925781 6.144531 C 14.925781 3.269531 14.285156 0.9375 13.488281 0.9375 C 12.695312 0.9375 12.050781 3.269531 12.050781 6.144531 C 12.050781 9.023438 12.695312 11.355469 13.488281 11.355469 C 14.285156 11.355469 14.925781 9.023438 14.925781 6.144531 Z M 14.925781 6.144531 "/>
<path style=" stroke:none;fill-rule:nonzero;fill:rgb(86.666667%,18.039216%,26.666667%);fill-opacity:1;" d="M 7.46875 9.0625 L 1.636719 8.644531 C -0.449219 8.644531 -0.449219 3.644531 1.636719 3.644531 L 7.46875 3.230469 C 6.21875 4.480469 6.21875 7.8125 7.46875 9.0625 Z M 7.46875 9.0625 "/>
<path style=" stroke:none;fill-rule:nonzero;fill:rgb(60%,66.666667%,70.980392%);fill-opacity:1;" d="M 13.675781 6.144531 C 13.675781 5.144531 13.398438 4.335938 13.050781 4.335938 C 12.707031 4.335938 12.425781 5.144531 12.425781 6.144531 C 12.425781 7.144531 12.707031 7.957031 13.050781 7.957031 C 13.398438 7.957031 13.675781 7.144531 13.675781 6.144531 Z M 13.675781 6.144531 "/>
</g>
</svg>
