<?xml version="1.0" encoding="UTF-8"?>
<svg xmlns="http://www.w3.org/2000/svg" xmlns:xlink="http://www.w3.org/1999/xlink" width="15pt" height="15pt" viewBox="0 0 15 15" version="1.1">
<g id="surface1">
<path style=" stroke:none;fill-rule:nonzero;fill:rgb(23.137255%,53.333333%,76.470588%);fill-opacity:1;" d="M 5.832031 7.917969 C 4.453125 7.917969 3.332031 9.035156 3.332031 10.417969 C 3.332031 11.796875 4.453125 12.917969 5.832031 12.917969 C 7.214844 12.917969 8.332031 11.796875 8.332031 10.417969 C 8.332031 9.035156 7.214844 7.917969 5.832031 7.917969 Z M 5.832031 12.082031 C 4.914062 12.082031 4.167969 11.335938 4.167969 10.417969 C 4.167969 9.496094 4.914062 8.75 5.832031 8.75 C 6.753906 8.75 7.5 9.496094 7.5 10.417969 C 7.5 11.335938 6.753906 12.082031 5.832031 12.082031 Z M 5.832031 12.082031 "/>
<path style=" stroke:none;fill-rule:nonzero;fill:rgb(33.333333%,67.45098%,93.333333%);fill-opacity:1;" d="M 0.742188 5.84375 L 0.742188 5.851562 C 0.324219 5.941406 0 6.640625 0 7.5 C 0 8.359375 0.324219 9.058594 0.742188 9.148438 L 0.742188 9.15625 L 12.703125 12.480469 L 12.703125 2.527344 Z M 0.742188 5.84375 "/>
<path style=" stroke:none;fill-rule:nonzero;fill:rgb(13.333333%,40%,60%);fill-opacity:1;" d="M 15 7.5 C 15 4.738281 14.066406 2.5 12.917969 2.5 C 11.765625 2.5 10.832031 4.738281 10.832031 7.5 C 10.832031 10.261719 11.765625 12.5 12.917969 12.5 C 14.066406 12.5 15 10.261719 15 7.5 Z M 15 7.5 "/>
</g>
</svg>
