<?xml version="1.0" encoding="UTF-8"?>
<svg xmlns="http://www.w3.org/2000/svg" xmlns:xlink="http://www.w3.org/1999/xlink" width="15pt" height="15pt" viewBox="0 0 15 15" version="1.1">
<g id="surface1">
<path style=" stroke:none;fill-rule:nonzero;fill:rgb(16.078431%,18.431373%,20%);fill-opacity:1;" d="M 3.332031 7.082031 L 0 7.082031 L 0 13.332031 C 0 14.253906 0.746094 15 1.667969 15 C 2.585938 15 3.332031 14.253906 3.332031 13.332031 C 3.332031 14.253906 4.078125 15 5 15 L 13.332031 15 C 14.253906 15 15 14.253906 15 13.332031 L 15 7.082031 Z M 3.332031 7.082031 "/>
<path style=" stroke:none;fill-rule:nonzero;fill:rgb(40%,45.882353%,49.803922%);fill-opacity:1;" d="M 13.332031 4.167969 L 5 4.167969 C 4.078125 4.167969 3.332031 4.914062 3.332031 5.832031 C 3.332031 4.914062 2.585938 4.167969 1.667969 4.167969 C 0.746094 4.167969 0 4.914062 0 5.832031 L 0 12.082031 C 0 13.003906 0.746094 13.75 1.667969 13.75 C 2.585938 13.75 3.332031 13.003906 3.332031 12.082031 C 3.332031 13.003906 4.078125 13.75 5 13.75 L 13.332031 13.75 C 14.253906 13.75 15 13.003906 15 12.082031 L 15 5.832031 C 15 4.914062 14.253906 4.167969 13.332031 4.167969 Z M 13.332031 4.167969 "/>
<path style=" stroke:none;fill-rule:nonzero;fill:rgb(77.647059%,89.803922%,70.196078%);fill-opacity:1;" d="M 8.75 6.667969 C 8.75 7.125 8.375 7.5 7.917969 7.5 L 5 7.5 C 4.539062 7.5 4.167969 7.125 4.167969 6.667969 L 4.167969 5.832031 C 4.167969 5.375 4.539062 5 5 5 L 7.917969 5 C 8.375 5 8.75 5.375 8.75 5.832031 Z M 8.75 6.667969 "/>
<path style=" stroke:none;fill-rule:nonzero;fill:rgb(80%,83.921569%,86.666667%);fill-opacity:1;" d="M 5.417969 8.957031 C 5.417969 9.304688 5.136719 9.582031 4.792969 9.582031 C 4.445312 9.582031 4.167969 9.304688 4.167969 8.957031 C 4.167969 8.613281 4.445312 8.332031 4.792969 8.332031 C 5.136719 8.332031 5.417969 8.613281 5.417969 8.957031 Z M 5.417969 8.957031 "/>
<path style=" stroke:none;fill-rule:nonzero;fill:rgb(80%,83.921569%,86.666667%);fill-opacity:1;" d="M 7.082031 8.957031 C 7.082031 9.304688 6.804688 9.582031 6.457031 9.582031 C 6.113281 9.582031 5.832031 9.304688 5.832031 8.957031 C 5.832031 8.613281 6.113281 8.332031 6.457031 8.332031 C 6.804688 8.332031 7.082031 8.613281 7.082031 8.957031 Z M 7.082031 8.957031 "/>
<path style=" stroke:none;fill-rule:nonzero;fill:rgb(80%,83.921569%,86.666667%);fill-opacity:1;" d="M 8.75 8.957031 C 8.75 9.304688 8.46875 9.582031 8.125 9.582031 C 7.78125 9.582031 7.5 9.304688 7.5 8.957031 C 7.5 8.613281 7.78125 8.332031 8.125 8.332031 C 8.46875 8.332031 8.75 8.613281 8.75 8.957031 Z M 8.75 8.957031 "/>
<path style=" stroke:none;fill-rule:nonzero;fill:rgb(80%,83.921569%,86.666667%);fill-opacity:1;" d="M 5.417969 10.625 C 5.417969 10.96875 5.136719 11.25 4.792969 11.25 C 4.445312 11.25 4.167969 10.96875 4.167969 10.625 C 4.167969 10.28125 4.445312 10 4.792969 10 C 5.136719 10 5.417969 10.28125 5.417969 10.625 Z M 5.417969 10.625 "/>
<path style=" stroke:none;fill-rule:nonzero;fill:rgb(80%,83.921569%,86.666667%);fill-opacity:1;" d="M 7.082031 10.625 C 7.082031 10.96875 6.804688 11.25 6.457031 11.25 C 6.113281 11.25 5.832031 10.96875 5.832031 10.625 C 5.832031 10.28125 6.113281 10 6.457031 10 C 6.804688 10 7.082031 10.28125 7.082031 10.625 Z M 7.082031 10.625 "/>
<path style=" stroke:none;fill-rule:nonzero;fill:rgb(80%,83.921569%,86.666667%);fill-opacity:1;" d="M 8.75 10.625 C 8.75 10.96875 8.46875 11.25 8.125 11.25 C 7.78125 11.25 7.5 10.96875 7.5 10.625 C 7.5 10.28125 7.78125 10 8.125 10 C 8.46875 10 8.75 10.28125 8.75 10.625 Z M 8.75 10.625 "/>
<path style=" stroke:none;fill-rule:nonzero;fill:rgb(80%,83.921569%,86.666667%);fill-opacity:1;" d="M 5.417969 12.292969 C 5.417969 12.636719 5.136719 12.917969 4.792969 12.917969 C 4.445312 12.917969 4.167969 12.636719 4.167969 12.292969 C 4.167969 11.945312 4.445312 11.667969 4.792969 11.667969 C 5.136719 11.667969 5.417969 11.945312 5.417969 12.292969 Z M 5.417969 12.292969 "/>
<path style=" stroke:none;fill-rule:nonzero;fill:rgb(80%,83.921569%,86.666667%);fill-opacity:1;" d="M 7.082031 12.292969 C 7.082031 12.636719 6.804688 12.917969 6.457031 12.917969 C 6.113281 12.917969 5.832031 12.636719 5.832031 12.292969 C 5.832031 11.945312 6.113281 11.667969 6.457031 11.667969 C 6.804688 11.667969 7.082031 11.945312 7.082031 12.292969 Z M 7.082031 12.292969 "/>
<path style=" stroke:none;fill-rule:nonzero;fill:rgb(80%,83.921569%,86.666667%);fill-opacity:1;" d="M 8.75 12.292969 C 8.75 12.636719 8.46875 12.917969 8.125 12.917969 C 7.78125 12.917969 7.5 12.636719 7.5 12.292969 C 7.5 11.945312 7.78125 11.667969 8.125 11.667969 C 8.46875 11.667969 8.75 11.945312 8.75 12.292969 Z M 8.75 12.292969 "/>
<path style=" stroke:none;fill-rule:nonzero;fill:rgb(60%,66.666667%,70.980392%);fill-opacity:1;" d="M 14.167969 8.75 C 14.167969 8.980469 13.980469 9.167969 13.75 9.167969 L 10 9.167969 C 9.769531 9.167969 9.582031 8.980469 9.582031 8.75 C 9.582031 8.519531 9.769531 8.332031 10 8.332031 L 13.75 8.332031 C 13.980469 8.332031 14.167969 8.519531 14.167969 8.75 Z M 14.167969 10 C 14.167969 10.230469 13.980469 10.417969 13.75 10.417969 L 10 10.417969 C 9.769531 10.417969 9.582031 10.230469 9.582031 10 C 9.582031 9.769531 9.769531 9.582031 10 9.582031 L 13.75 9.582031 C 13.980469 9.582031 14.167969 9.769531 14.167969 10 Z M 14.167969 11.25 C 14.167969 11.480469 13.980469 11.667969 13.75 11.667969 L 10 11.667969 C 9.769531 11.667969 9.582031 11.480469 9.582031 11.25 C 9.582031 11.019531 9.769531 10.832031 10 10.832031 L 13.75 10.832031 C 13.980469 10.832031 14.167969 11.019531 14.167969 11.25 Z M 14.167969 12.5 C 14.167969 12.730469 13.980469 12.917969 13.75 12.917969 L 10 12.917969 C 9.769531 12.917969 9.582031 12.730469 9.582031 12.5 C 9.582031 12.269531 9.769531 12.082031 10 12.082031 L 13.75 12.082031 C 13.980469 12.082031 14.167969 12.269531 14.167969 12.5 Z M 14.167969 12.5 "/>
<path style=" stroke:none;fill-rule:nonzero;fill:rgb(80%,83.921569%,86.666667%);fill-opacity:1;" d="M 11.25 6.25 C 11.25 6.710938 10.875 7.082031 10.417969 7.082031 C 9.957031 7.082031 9.582031 6.710938 9.582031 6.25 C 9.582031 5.789062 9.957031 5.417969 10.417969 5.417969 C 10.875 5.417969 11.25 5.789062 11.25 6.25 Z M 11.25 6.25 "/>
<path style=" stroke:none;fill-rule:nonzero;fill:rgb(80%,83.921569%,86.666667%);fill-opacity:1;" d="M 14.167969 6.25 C 14.167969 6.710938 13.792969 7.082031 13.332031 7.082031 C 12.875 7.082031 12.5 6.710938 12.5 6.25 C 12.5 5.789062 12.875 5.417969 13.332031 5.417969 C 13.792969 5.417969 14.167969 5.789062 14.167969 6.25 Z M 14.167969 6.25 "/>
<path style=" stroke:none;fill-rule:nonzero;fill:rgb(80%,83.921569%,86.666667%);fill-opacity:1;" d="M 13.332031 4.167969 L 5 4.167969 L 5 1.667969 C 5 0.746094 5.746094 0 6.667969 0 L 11.667969 0 C 12.585938 0 13.332031 0.746094 13.332031 1.667969 Z M 13.332031 4.167969 "/>
<path style=" stroke:none;fill-rule:nonzero;fill:rgb(60%,66.666667%,70.980392%);fill-opacity:1;" d="M 12.5 1.667969 C 12.5 1.898438 12.3125 2.082031 12.082031 2.082031 L 6.25 2.082031 C 6.019531 2.082031 5.832031 1.898438 5.832031 1.667969 C 5.832031 1.4375 6.019531 1.25 6.25 1.25 L 12.082031 1.25 C 12.3125 1.25 12.5 1.4375 12.5 1.667969 Z M 9.167969 2.917969 C 9.167969 3.148438 8.980469 3.332031 8.75 3.332031 L 6.25 3.332031 C 6.019531 3.332031 5.832031 3.148438 5.832031 2.917969 C 5.832031 2.6875 6.019531 2.5 6.25 2.5 L 8.75 2.5 C 8.980469 2.5 9.167969 2.6875 9.167969 2.917969 Z M 9.167969 2.917969 "/>
</g>
</svg>
