<?xml version="1.0" encoding="UTF-8"?>
<svg xmlns="http://www.w3.org/2000/svg" xmlns:xlink="http://www.w3.org/1999/xlink" width="15pt" height="15pt" viewBox="0 0 15 15" version="1.1">
<g id="surface1">
<path style=" stroke:none;fill-rule:nonzero;fill:rgb(100%,67.45098%,20%);fill-opacity:1;" d="M 14.46875 12.355469 C 13.953125 12.351562 13.953125 12.859375 13.953125 12.859375 L 7.707031 12.859375 C 5.523438 12.859375 3.75 11.085938 3.75 8.902344 C 3.75 6.714844 5.523438 4.941406 7.707031 4.941406 C 9.894531 4.941406 11.667969 6.714844 11.667969 8.902344 C 11.667969 10.175781 11 11.359375 10.0625 12.082031 L 12.324219 12.082031 C 12.925781 11.1875 13.332031 10.058594 13.332031 8.902344 C 13.332031 5.792969 10.816406 3.277344 7.707031 3.277344 C 4.601562 3.277344 2.082031 5.792969 2.082031 8.902344 C 2.082031 12.007812 4.601562 14.527344 7.707031 14.527344 L 13.949219 14.527344 C 13.949219 14.527344 13.949219 14.996094 14.46875 15 C 14.984375 15.003906 14.980469 14.480469 14.980469 14.480469 L 14.984375 12.890625 C 14.984375 12.890625 14.984375 12.359375 14.46875 12.355469 Z M 2.082031 5.941406 C 2.503906 5.179688 3.074219 4.507812 3.75 3.96875 L 3.75 3.75 C 3.75 1.667969 5.832031 0.832031 5.832031 0.417969 C 5.832031 0 5.417969 0 5.417969 0 L 0.417969 0 C 0 0 0 0.417969 0 0.417969 C 0 0.832031 2.082031 1.804688 2.082031 3.621094 Z M 2.082031 5.941406 "/>
<path style=" stroke:none;fill-rule:nonzero;fill:rgb(74.509804%,9.803922%,19.215686%);fill-opacity:1;" d="M 5.453125 12.152344 C 4.425781 11.4375 3.75 10.25 3.75 8.902344 C 3.75 8.773438 3.757812 8.644531 3.769531 8.519531 L 2.113281 8.328125 C 2.09375 8.515625 2.082031 8.707031 2.082031 8.902344 C 2.082031 10.804688 3.035156 12.488281 4.484375 13.503906 Z M 5.453125 12.152344 "/>
<path style=" stroke:none;fill-rule:nonzero;fill:rgb(74.509804%,9.803922%,19.215686%);fill-opacity:1;" d="M 2.5 10.800781 C 2.5 10.800781 0.339844 10.464844 0.417969 11.21875 C 0.496094 11.972656 2.5 10.800781 2.5 10.800781 Z M 2.5 10.933594 C 2.5 10.933594 0.78125 12.050781 1.277344 12.496094 C 1.769531 12.9375 2.5 10.933594 2.5 10.933594 Z M 2.5 10.933594 "/>
</g>
</svg>
