<?xml version="1.0" encoding="UTF-8"?>
<svg xmlns="http://www.w3.org/2000/svg" xmlns:xlink="http://www.w3.org/1999/xlink" width="15pt" height="15pt" viewBox="0 0 15 15" version="1.1">
<g id="surface1">
<path style=" stroke:none;fill-rule:nonzero;fill:rgb(85.098039%,61.960784%,50.980392%);fill-opacity:1;" d="M 15 13.332031 C 15 14.253906 14.253906 15 13.332031 15 L 1.667969 15 C 0.746094 15 0 14.253906 0 13.332031 L 0 9.582031 C 0 8.664062 0.328125 8.332031 1.25 8.332031 L 13.75 8.332031 C 14.671875 8.332031 15 8.664062 15 9.582031 Z M 15 13.332031 "/>
<path style=" stroke:none;fill-rule:nonzero;fill:rgb(40%,12.941176%,7.45098%);fill-opacity:1;" d="M 10.417969 8.332031 C 10.417969 9.945312 9.109375 11.25 7.5 11.25 C 5.890625 11.25 4.582031 9.945312 4.582031 8.332031 Z M 10.417969 8.332031 "/>
<path style=" stroke:none;fill-rule:nonzero;fill:rgb(75.686275%,41.176471%,30.980392%);fill-opacity:1;" d="M 1.667969 15 L 13.332031 15 C 14.253906 15 15 14.253906 15 13.332031 L 0 13.332031 C 0 14.253906 0.746094 15 1.667969 15 Z M 1.667969 15 "/>
<path style=" stroke:none;fill-rule:nonzero;fill:rgb(86.666667%,18.039216%,26.666667%);fill-opacity:1;" d="M 11.429688 3.546875 L 8.15625 0.269531 C 7.796875 -0.0898438 7.203125 -0.0898438 6.84375 0.269531 L 3.566406 3.546875 C 3.207031 3.90625 3.332031 4.167969 3.839844 4.167969 L 5.832031 4.167969 L 5.832031 6.667969 C 5.832031 7.125 6.207031 7.5 6.667969 7.5 L 8.332031 7.5 C 8.792969 7.5 9.167969 7.125 9.167969 6.667969 L 9.167969 4.167969 L 11.160156 4.167969 C 11.667969 4.167969 11.792969 3.90625 11.429688 3.546875 Z M 11.429688 3.546875 "/>
</g>
</svg>
