<?xml version="1.0" encoding="UTF-8"?>
<svg xmlns="http://www.w3.org/2000/svg" xmlns:xlink="http://www.w3.org/1999/xlink" width="15pt" height="15pt" viewBox="0 0 15 15" version="1.1">
<g id="surface1">
<path style=" stroke:none;fill-rule:nonzero;fill:rgb(75.686275%,41.176471%,30.980392%);fill-opacity:1;" d="M 9.167969 13.75 C 9.167969 14.671875 5.832031 14.671875 5.832031 13.75 L 5.832031 9.582031 C 5.832031 8.664062 6.578125 7.917969 7.5 7.917969 C 8.421875 7.917969 9.167969 8.664062 9.167969 9.582031 Z M 9.167969 13.75 "/>
<path style=" stroke:none;fill-rule:nonzero;fill:rgb(60%,66.666667%,70.980392%);fill-opacity:1;" d="M 10.832031 1.25 L 4.167969 1.25 L 4.167969 9.582031 L 14.167969 9.582031 L 14.167969 4.582031 C 14.167969 2.742188 12.675781 1.25 10.832031 1.25 Z M 10.832031 1.25 "/>
<path style=" stroke:none;fill-rule:nonzero;fill:rgb(16.078431%,18.431373%,20%);fill-opacity:1;" d="M 4.167969 1.25 C 2.324219 1.25 0.832031 2.742188 0.832031 4.582031 L 0.832031 9.582031 L 7.5 9.582031 L 7.5 4.582031 C 7.5 2.742188 6.007812 1.25 4.167969 1.25 Z M 4.167969 1.25 "/>
<path style=" stroke:none;fill-rule:nonzero;fill:rgb(60%,66.666667%,70.980392%);fill-opacity:1;" d="M 3.75 1.25 C 2.140625 1.25 0.832031 2.742188 0.832031 4.582031 L 0.832031 9.582031 L 6.667969 9.582031 L 6.667969 4.582031 C 6.667969 2.742188 5.359375 1.25 3.75 1.25 Z M 3.75 1.25 "/>
<path style=" stroke:none;fill-rule:nonzero;fill:rgb(86.666667%,18.039216%,26.666667%);fill-opacity:1;" d="M 10.832031 0.417969 L 9.167969 0.417969 C 8.707031 0.417969 8.332031 0.789062 8.332031 1.25 L 8.332031 6.25 C 8.332031 6.710938 8.707031 7.082031 9.167969 7.082031 C 9.625 7.082031 10 6.710938 10 6.25 L 10 2.917969 L 10.832031 2.917969 C 11.292969 2.917969 11.667969 2.542969 11.667969 2.082031 L 11.667969 1.25 C 11.667969 0.789062 11.292969 0.417969 10.832031 0.417969 Z M 10.832031 0.417969 "/>
</g>
</svg>
