<?xml version="1.0" encoding="UTF-8"?>
<svg xmlns="http://www.w3.org/2000/svg" xmlns:xlink="http://www.w3.org/1999/xlink" width="15pt" height="15pt" viewBox="0 0 15 15" version="1.1">
<g id="surface1">
<path style=" stroke:none;fill-rule:nonzero;fill:rgb(40%,45.882353%,49.803922%);fill-opacity:1;" d="M 5.832031 11.667969 L 9.582031 11.667969 L 9.582031 15 L 5.832031 15 Z M 5.832031 11.667969 "/>
<path style=" stroke:none;fill-rule:nonzero;fill:rgb(86.666667%,18.039216%,26.666667%);fill-opacity:1;" d="M 12.917969 10.417969 C 12.917969 11.335938 12.171875 12.082031 11.25 12.082031 L 3.75 12.082031 C 2.828125 12.082031 2.082031 11.335938 2.082031 10.417969 L 2.082031 1.667969 C 2.082031 0.746094 2.828125 0 3.75 0 L 11.25 0 C 12.171875 0 12.917969 0.746094 12.917969 1.667969 Z M 12.917969 10.417969 "/>
<path style=" stroke:none;fill-rule:nonzero;fill:rgb(62.745098%,1.568627%,11.764706%);fill-opacity:1;" d="M 2.917969 3.332031 L 2.917969 2.5 C 2.917969 2.5 2.917969 1.667969 3.75 1.667969 L 11.25 1.667969 C 11.25 1.667969 12.082031 1.667969 12.082031 2.5 L 12.082031 3.332031 Z M 2.917969 3.332031 "/>
<path style=" stroke:none;fill-rule:nonzero;fill:rgb(16.078431%,18.431373%,20%);fill-opacity:1;" d="M 11.25 5 L 3.75 5 C 3.75 5 2.917969 5 2.917969 4.167969 L 2.917969 2.917969 L 12.082031 2.917969 L 12.082031 4.167969 C 12.082031 5 11.25 5 11.25 5 Z M 11.25 5 "/>
<path style=" stroke:none;fill-rule:nonzero;fill:rgb(88.235294%,90.980392%,92.941176%);fill-opacity:1;" d="M 4.582031 2.917969 L 4.582031 8.75 C 4.582031 8.75 4.582031 9.582031 5.417969 9.582031 L 9.582031 9.582031 C 9.582031 9.582031 10.417969 9.582031 10.417969 8.75 L 10.417969 2.917969 Z M 4.582031 2.917969 "/>
<path style=" stroke:none;fill-rule:nonzero;fill:rgb(80%,83.921569%,86.666667%);fill-opacity:1;" d="M 5.417969 9.582031 L 9.257812 9.582031 C 8.488281 8.597656 6.582031 6.164062 6.25 5.832031 C 5.832031 5.417969 6.25 5 6.25 5 L 8.332031 2.917969 L 4.582031 2.917969 L 4.582031 8.75 C 4.582031 8.75 4.582031 9.582031 5.417969 9.582031 Z M 5.417969 9.582031 "/>
<path style=" stroke:none;fill-rule:nonzero;fill:rgb(40%,45.882353%,49.803922%);fill-opacity:1;" d="M 6.25 5.832031 C 6.582031 6.164062 8.488281 8.597656 9.257812 9.582031 L 9.582031 9.582031 C 9.582031 9.582031 9.75 9.578125 9.9375 9.503906 L 6.667969 5.417969 L 9.167969 2.917969 L 8.332031 2.917969 L 6.25 5 C 6.25 5 5.832031 5.417969 6.25 5.832031 Z M 6.25 5.832031 "/>
</g>
</svg>
