<?xml version="1.0" encoding="UTF-8"?>
<svg xmlns="http://www.w3.org/2000/svg" xmlns:xlink="http://www.w3.org/1999/xlink" width="15pt" height="15pt" viewBox="0 0 15 15" version="1.1">
<g id="surface1">
<path style=" stroke:none;fill-rule:nonzero;fill:rgb(85.098039%,61.960784%,50.980392%);fill-opacity:1;" d="M 15 13.332031 C 15 14.253906 14.253906 15 13.332031 15 L 1.667969 15 C 0.746094 15 0 14.253906 0 13.332031 L 0 9.582031 C 0 8.664062 0.328125 8.332031 1.25 8.332031 L 13.75 8.332031 C 14.671875 8.332031 15 8.664062 15 9.582031 Z M 15 13.332031 "/>
<path style=" stroke:none;fill-rule:nonzero;fill:rgb(40%,12.941176%,7.45098%);fill-opacity:1;" d="M 10.417969 8.332031 C 10.417969 9.945312 9.109375 11.25 7.5 11.25 C 5.890625 11.25 4.582031 9.945312 4.582031 8.332031 Z M 10.417969 8.332031 "/>
<path style=" stroke:none;fill-rule:nonzero;fill:rgb(75.686275%,41.176471%,30.980392%);fill-opacity:1;" d="M 1.667969 15 L 13.332031 15 C 14.253906 15 15 14.253906 15 13.332031 L 0 13.332031 C 0 14.253906 0.746094 15 1.667969 15 Z M 1.667969 15 "/>
<path style=" stroke:none;fill-rule:nonzero;fill:rgb(46.666667%,69.803922%,33.333333%);fill-opacity:1;" d="M 11.132812 3.332031 L 9.140625 3.332031 L 9.140625 0.832031 C 9.140625 0.371094 8.765625 0 8.304688 0 L 6.636719 0 C 6.179688 0 5.804688 0.375 5.804688 0.832031 L 5.804688 3.332031 L 3.8125 3.332031 C 3.300781 3.332031 3.179688 3.59375 3.539062 3.953125 L 6.816406 7.230469 C 7.175781 7.589844 7.765625 7.589844 8.128906 7.230469 L 11.402344 3.953125 C 11.761719 3.59375 11.640625 3.332031 11.132812 3.332031 Z M 11.132812 3.332031 "/>
</g>
</svg>
