<?xml version="1.0" encoding="UTF-8"?>
<svg xmlns="http://www.w3.org/2000/svg" xmlns:xlink="http://www.w3.org/1999/xlink" width="15pt" height="15pt" viewBox="0 0 15 15" version="1.1">
<g id="surface1">
<path style=" stroke:none;fill-rule:nonzero;fill:rgb(95.686275%,56.470588%,4.705882%);fill-opacity:1;" d="M 15 13.332031 C 15 15 13.332031 15 13.332031 15 L 1.667969 15 C 0 15 0 13.332031 0 13.332031 L 0 1.667969 C 0 0 1.667969 0 1.667969 0 L 13.332031 0 C 13.332031 0 15 0 15 1.667969 Z M 15 13.332031 "/>
<path style=" stroke:none;fill-rule:nonzero;fill:rgb(100%,100%,100%);fill-opacity:1;" d="M 10 1.25 L 5 1.25 C 3.75 1.25 3.75 2.5 3.75 2.5 L 3.75 12.5 C 3.75 13.75 5 13.75 5 13.75 L 10 13.75 C 11.25 13.75 11.25 12.5 11.25 12.5 L 11.25 2.5 C 11.25 1.25 10 1.25 10 1.25 Z M 10.417969 11.667969 L 4.582031 11.667969 L 4.582031 3.332031 L 10.417969 3.332031 Z M 0.832031 6.25 L 0.832031 8.332031 L 2.917969 7.5 L 2.917969 7.082031 Z M 1.25 5.417969 L 2.917969 6.25 L 2.917969 5.417969 L 1.25 4.167969 Z M 1.25 9.167969 L 2.917969 8.332031 L 2.917969 9.167969 L 1.25 10.417969 Z M 14.167969 6.25 L 14.167969 8.332031 L 12.082031 7.5 L 12.082031 7.082031 Z M 13.75 5.417969 L 12.082031 6.25 L 12.082031 5.417969 L 13.75 4.167969 Z M 13.75 9.167969 L 12.082031 8.332031 L 12.082031 9.167969 L 13.75 10.417969 Z M 13.75 9.167969 "/>
</g>
</svg>
