<?xml version="1.0" encoding="UTF-8"?>
<svg xmlns="http://www.w3.org/2000/svg" xmlns:xlink="http://www.w3.org/1999/xlink" width="15pt" height="15pt" viewBox="0 0 15 15" version="1.1">
<g id="surface1">
<path style=" stroke:none;fill-rule:nonzero;fill:rgb(19.215686%,21.568627%,23.921569%);fill-opacity:1;" d="M 12.082031 7.5 L 6.667969 7.5 C 5.136719 7.5 4.582031 6.253906 4.582031 5.417969 L 4.582031 4.582031 L 2.917969 4.582031 C 1.667969 4.582031 1.667969 5.832031 1.667969 5.832031 C 1.667969 5.832031 0.832031 5.417969 0.417969 5.417969 C 0 5.417969 0 5.832031 0 5.832031 L 0 10 C 0 10 0 10.417969 0.417969 10.417969 C 0.832031 10.417969 1.667969 10 1.667969 10 L 1.667969 12.917969 C 1.667969 14.582031 3.332031 14.582031 3.332031 14.582031 L 10.832031 14.582031 C 12.5 14.582031 12.5 12.917969 12.5 12.917969 L 12.5 7.457031 C 12.355469 7.484375 12.214844 7.5 12.082031 7.5 Z M 12.082031 7.5 "/>
<path style=" stroke:none;fill-rule:nonzero;fill:rgb(40%,45.882353%,49.803922%);fill-opacity:1;" d="M 14.582031 2.5 C 14.351562 2.5 13.730469 2.890625 13.226562 3.234375 C 13.089844 2.890625 12.78125 2.5 12.082031 2.5 L 7.5 2.5 C 7.5 2.5 5.417969 2.5 5.417969 4.582031 L 5.417969 5.417969 C 5.417969 5.417969 5.417969 6.667969 6.667969 6.667969 L 12.082031 6.667969 C 12.082031 6.667969 12.949219 6.664062 13.238281 5.941406 C 13.738281 6.285156 14.351562 6.667969 14.582031 6.667969 C 15 6.667969 15 6.25 15 6.25 L 15 2.917969 C 15 2.917969 15 2.5 14.582031 2.5 Z M 3.75 14.582031 L 3.75 10.832031 C 3.75 10.832031 3.75 9.582031 4.894531 9.582031 L 9.167969 9.582031 C 9.167969 9.582031 10.417969 9.582031 10.417969 10.832031 L 10.417969 14.582031 L 9.582031 14.582031 L 9.582031 10.832031 C 9.582031 10.832031 9.582031 10.417969 9.167969 10.417969 L 5 10.417969 C 5 10.417969 4.582031 10.417969 4.582031 10.832031 L 4.582031 14.582031 Z M 3.75 14.582031 "/>
</g>
</svg>
