<?xml version="1.0" encoding="UTF-8"?>
<svg xmlns="http://www.w3.org/2000/svg" xmlns:xlink="http://www.w3.org/1999/xlink" width="15pt" height="15pt" viewBox="0 0 15 15" version="1.1">
<g id="surface1">
<path style=" stroke:none;fill-rule:nonzero;fill:rgb(0%,0%,0%);fill-opacity:1;" d="M 14.582031 7.5 C 14.582031 3.589844 11.410156 0.417969 7.5 0.417969 C 3.589844 0.417969 0.417969 3.589844 0.417969 7.5 C 0.417969 11.410156 3.589844 14.582031 7.5 14.582031 C 11.410156 14.582031 14.582031 11.410156 14.582031 7.5 Z M 14.582031 7.5 "/>
<path style=" stroke:none;fill-rule:nonzero;fill:rgb(100%,100%,100%);fill-opacity:1;" d="M 5.417969 12.917969 C 5.417969 12.917969 4.167969 12.917969 4.167969 11.667969 L 4.167969 3.332031 C 4.167969 3.332031 4.167969 2.082031 5.417969 2.082031 L 9.582031 2.082031 C 9.582031 2.082031 10.832031 2.082031 10.832031 3.332031 L 10.832031 11.667969 C 10.832031 11.667969 10.832031 12.917969 9.582031 12.917969 Z M 5.417969 12.917969 "/>
<path style=" stroke:none;fill-rule:nonzero;fill:rgb(0%,0%,0%);fill-opacity:1;" d="M 5 3.75 L 10 3.75 L 10 11.25 L 5 11.25 Z M 5 3.75 "/>
<path style=" stroke:none;fill-rule:nonzero;fill:rgb(86.666667%,18.039216%,26.666667%);fill-opacity:1;" d="M 7.5 0 C 3.359375 0 0 3.359375 0 7.5 C 0 11.640625 3.359375 15 7.5 15 C 11.640625 15 15 11.640625 15 7.5 C 15 3.359375 11.640625 0 7.5 0 Z M 7.5 14.167969 C 3.816406 14.167969 0.832031 11.183594 0.832031 7.5 C 0.832031 5.953125 1.363281 4.53125 2.25 3.402344 L 11.597656 12.75 C 10.464844 13.636719 9.046875 14.167969 7.5 14.167969 Z M 12.367188 12.046875 L 2.953125 2.632812 C 4.144531 1.519531 5.742188 0.832031 7.5 0.832031 C 11.183594 0.832031 14.167969 3.816406 14.167969 7.5 C 14.167969 9.257812 13.480469 10.855469 12.367188 12.046875 Z M 12.367188 12.046875 "/>
</g>
</svg>
