<?xml version="1.0" encoding="UTF-8"?>
<svg xmlns="http://www.w3.org/2000/svg" xmlns:xlink="http://www.w3.org/1999/xlink" width="15pt" height="15pt" viewBox="0 0 15 15" version="1.1">
<g id="surface1">
<path style=" stroke:none;fill-rule:nonzero;fill:rgb(60%,66.666667%,70.980392%);fill-opacity:1;" d="M 13.75 15 L 1.667969 15 C 3.332031 15 2.917969 11.25 2.917969 11.25 C 2.917969 10.328125 3.664062 5 4.582031 5 L 13.332031 5 C 13.332031 5 15 5 15 6.667969 L 15 13.75 C 15 13.75 15 15 13.75 15 Z M 13.75 15 "/>
<path style=" stroke:none;fill-rule:nonzero;fill:rgb(80%,83.921569%,86.666667%);fill-opacity:1;" d="M 12.5 13.75 C 12.5 15 13.75 15 13.75 15 L 1.25 15 C 1.25 15 0 15 0 13.332031 L 0 1.667969 C 0 0.746094 0.746094 0 1.667969 0 L 10.832031 0 C 11.753906 0 12.5 0.746094 12.5 1.667969 Z M 12.5 13.75 "/>
<path style=" stroke:none;fill-rule:nonzero;fill:rgb(60%,66.666667%,70.980392%);fill-opacity:1;" d="M 11.25 8.332031 C 11.25 8.5625 11.0625 8.75 10.832031 8.75 L 7.5 8.75 C 7.269531 8.75 7.082031 8.5625 7.082031 8.332031 C 7.082031 8.101562 7.269531 7.917969 7.5 7.917969 L 10.832031 7.917969 C 11.0625 7.917969 11.25 8.101562 11.25 8.332031 Z M 11.25 6.667969 C 11.25 6.898438 11.0625 7.082031 10.832031 7.082031 L 7.5 7.082031 C 7.269531 7.082031 7.082031 6.898438 7.082031 6.667969 C 7.082031 6.4375 7.269531 6.25 7.5 6.25 L 10.832031 6.25 C 11.0625 6.25 11.25 6.4375 11.25 6.667969 Z M 11.25 5 C 11.25 5.230469 11.0625 5.417969 10.832031 5.417969 L 7.5 5.417969 C 7.269531 5.417969 7.082031 5.230469 7.082031 5 C 7.082031 4.769531 7.269531 4.582031 7.5 4.582031 L 10.832031 4.582031 C 11.0625 4.582031 11.25 4.769531 11.25 5 Z M 11.25 10 C 11.25 10.230469 11.0625 10.417969 10.832031 10.417969 L 1.667969 10.417969 C 1.4375 10.417969 1.25 10.230469 1.25 10 C 1.25 9.769531 1.4375 9.582031 1.667969 9.582031 L 10.832031 9.582031 C 11.0625 9.582031 11.25 9.769531 11.25 10 Z M 11.25 11.667969 C 11.25 11.898438 11.0625 12.082031 10.832031 12.082031 L 1.667969 12.082031 C 1.4375 12.082031 1.25 11.898438 1.25 11.667969 C 1.25 11.4375 1.4375 11.25 1.667969 11.25 L 10.832031 11.25 C 11.0625 11.25 11.25 11.4375 11.25 11.667969 Z M 11.25 13.332031 C 11.25 13.5625 11.0625 13.75 10.832031 13.75 L 1.667969 13.75 C 1.4375 13.75 1.25 13.5625 1.25 13.332031 C 1.25 13.101562 1.4375 12.917969 1.667969 12.917969 L 10.832031 12.917969 C 11.0625 12.917969 11.25 13.101562 11.25 13.332031 Z M 10.417969 3.75 C 10.417969 3.75 11.25 3.75 11.25 2.917969 L 11.25 2.082031 C 11.25 2.082031 11.25 1.25 10.417969 1.25 L 2.082031 1.25 C 2.082031 1.25 1.25 1.25 1.25 2.082031 L 1.25 2.917969 C 1.25 2.917969 1.25 3.75 2.082031 3.75 Z M 10.417969 3.75 "/>
<path style=" stroke:none;fill-rule:nonzero;fill:rgb(33.333333%,67.45098%,93.333333%);fill-opacity:1;" d="M 5.417969 8.75 C 5.417969 8.75 6.25 8.75 6.25 7.917969 L 6.25 5.417969 C 6.25 5.417969 6.25 4.582031 5.417969 4.582031 L 2.082031 4.582031 C 2.082031 4.582031 1.25 4.582031 1.25 5.417969 L 1.25 7.917969 C 1.25 7.917969 1.25 8.75 2.082031 8.75 Z M 5.417969 8.75 "/>
</g>
</svg>
