<?xml version="1.0" encoding="UTF-8"?>
<svg xmlns="http://www.w3.org/2000/svg" xmlns:xlink="http://www.w3.org/1999/xlink" width="15pt" height="15pt" viewBox="0 0 15 15" version="1.1">
<g id="surface1">
<path style=" stroke:none;fill-rule:nonzero;fill:rgb(19.215686%,21.568627%,23.921569%);fill-opacity:1;" d="M 7.5 15 C 7.5 15 5.832031 15 5.832031 13.332031 L 5.832031 1.667969 C 5.832031 1.667969 5.832031 0 7.5 0 L 13.332031 0 C 13.332031 0 15 0 15 1.667969 L 15 13.332031 C 15 13.332031 15 15 13.332031 15 Z M 7.5 15 "/>
<path style=" stroke:none;fill-rule:nonzero;fill:rgb(33.333333%,67.45098%,93.333333%);fill-opacity:1;" d="M 6.667969 2.082031 L 14.167969 2.082031 L 14.167969 12.917969 L 6.667969 12.917969 Z M 5.417969 6.667969 C 5.417969 6.667969 5.832031 7.082031 5.832031 7.5 C 5.832031 7.917969 5.417969 8.332031 5.417969 8.332031 L 3.332031 10.417969 C 2.917969 10.832031 2.082031 10.832031 2.082031 10 L 2.082031 8.75 L 0.832031 8.75 C 0.832031 8.75 0 8.75 0 7.917969 L 0 7.082031 C 0 6.25 0.832031 6.25 0.832031 6.25 L 2.082031 6.25 L 2.082031 5 C 2.082031 4.167969 2.917969 4.167969 3.332031 4.582031 Z M 5.417969 6.667969 "/>
</g>
</svg>
