<?xml version="1.0" encoding="UTF-8"?>
<svg xmlns="http://www.w3.org/2000/svg" xmlns:xlink="http://www.w3.org/1999/xlink" width="15pt" height="15pt" viewBox="0 0 15 15" version="1.1">
<g id="surface1">
<path style=" stroke:none;fill-rule:nonzero;fill:rgb(40%,45.882353%,49.803922%);fill-opacity:1;" d="M 1.667969 2.082031 C 1.667969 2.082031 1.667969 1.667969 2.082031 1.667969 L 4.582031 1.667969 C 4.582031 1.667969 5 1.667969 5 2.082031 L 5 2.917969 L 1.667969 2.917969 Z M 1.667969 2.082031 "/>
<path style=" stroke:none;fill-rule:nonzero;fill:rgb(19.215686%,21.568627%,23.921569%);fill-opacity:1;" d="M 0 4.167969 C 0 4.167969 0 2.5 1.667969 2.5 L 13.332031 2.5 C 13.332031 2.5 15 2.5 15 4.167969 L 15 11.667969 C 15 11.667969 15 13.332031 13.332031 13.332031 L 1.667969 13.332031 C 1.667969 13.332031 0 13.332031 0 11.667969 Z M 0 4.167969 "/>
<path style=" stroke:none;fill-rule:nonzero;fill:rgb(80%,83.921569%,86.666667%);fill-opacity:1;" d="M 12.917969 7.917969 C 12.917969 10.21875 11.050781 12.082031 8.75 12.082031 C 6.449219 12.082031 4.582031 10.21875 4.582031 7.917969 C 4.582031 5.617188 6.449219 3.75 8.75 3.75 C 11.050781 3.75 12.917969 5.617188 12.917969 7.917969 Z M 12.917969 7.917969 "/>
<path style=" stroke:none;fill-rule:nonzero;fill:rgb(19.215686%,21.568627%,23.921569%);fill-opacity:1;" d="M 12.082031 7.917969 C 12.082031 9.757812 10.589844 11.25 8.75 11.25 C 6.910156 11.25 5.417969 9.757812 5.417969 7.917969 C 5.417969 6.074219 6.910156 4.582031 8.75 4.582031 C 10.589844 4.582031 12.082031 6.074219 12.082031 7.917969 Z M 12.082031 7.917969 "/>
<path style=" stroke:none;fill-rule:nonzero;fill:rgb(23.137255%,53.333333%,76.470588%);fill-opacity:1;" d="M 10.832031 7.917969 C 10.832031 9.066406 9.902344 10 8.75 10 C 7.597656 10 6.667969 9.066406 6.667969 7.917969 C 6.667969 6.765625 7.597656 5.832031 8.75 5.832031 C 9.902344 5.832031 10.832031 6.765625 10.832031 7.917969 Z M 10.832031 7.917969 "/>
<path style=" stroke:none;fill-rule:nonzero;fill:rgb(100%,100%,100%);fill-opacity:1;" d="M 14.167969 3.957031 C 14.167969 4.304688 13.886719 4.582031 13.542969 4.582031 C 13.195312 4.582031 12.917969 4.304688 12.917969 3.957031 C 12.917969 3.613281 13.195312 3.332031 13.542969 3.332031 C 13.886719 3.332031 14.167969 3.613281 14.167969 3.957031 Z M 14.167969 3.957031 "/>
<path style=" stroke:none;fill-rule:nonzero;fill:rgb(96.078431%,97.254902%,98.039216%);fill-opacity:1;" d="M 5 3.957031 C 5 4.304688 4.71875 4.582031 4.375 4.582031 L 2.292969 4.582031 C 1.945312 4.582031 1.667969 4.304688 1.667969 3.957031 C 1.667969 3.613281 1.945312 3.332031 2.292969 3.332031 L 4.375 3.332031 C 4.71875 3.332031 5 3.613281 5 3.957031 Z M 5 3.957031 "/>
</g>
</svg>
