<?xml version="1.0" encoding="UTF-8"?>
<svg xmlns="http://www.w3.org/2000/svg" xmlns:xlink="http://www.w3.org/1999/xlink" width="15pt" height="15pt" viewBox="0 0 15 15" version="1.1">
<g id="surface1">
<path style=" stroke:none;fill-rule:nonzero;fill:rgb(19.215686%,21.568627%,23.921569%);fill-opacity:1;" d="M 14.582031 12.917969 C 14.582031 12.917969 14.582031 14.582031 12.917969 14.582031 L 2.082031 14.582031 C 0.417969 14.582031 0.417969 12.917969 0.417969 12.917969 L 0.417969 5 C 0.417969 3.332031 2.082031 3.332031 2.082031 3.332031 L 12.917969 3.332031 C 12.917969 3.332031 14.582031 3.332031 14.582031 5 Z M 14.582031 12.917969 "/>
<path style=" stroke:none;fill-rule:nonzero;fill:rgb(19.215686%,21.568627%,23.921569%);fill-opacity:1;" d="M 8.875 4.328125 C 9.039062 4.492188 9.039062 4.753906 8.875 4.917969 C 8.714844 5.082031 8.449219 5.082031 8.285156 4.917969 L 4.457031 1.089844 C 4.292969 0.925781 4.292969 0.660156 4.457031 0.5 C 4.621094 0.335938 4.882812 0.335938 5.046875 0.5 Z M 8.875 4.328125 "/>
<path style=" stroke:none;fill-rule:nonzero;fill:rgb(19.215686%,21.568627%,23.921569%);fill-opacity:1;" d="M 6.125 4.328125 C 5.960938 4.492188 5.960938 4.753906 6.125 4.917969 C 6.285156 5.082031 6.550781 5.082031 6.714844 4.917969 L 10.542969 1.089844 C 10.707031 0.925781 10.707031 0.660156 10.542969 0.5 C 10.378906 0.335938 10.117188 0.335938 9.953125 0.5 Z M 6.125 4.328125 "/>
<path style=" stroke:none;fill-rule:nonzero;fill:rgb(33.333333%,67.45098%,93.333333%);fill-opacity:1;" d="M 7.5 4.582031 C 10.832031 4.582031 11.667969 5 12.082031 5.417969 C 12.5 5.832031 12.917969 6.667969 12.917969 8.75 C 12.917969 10.832031 12.5 11.667969 12.082031 12.082031 C 11.667969 12.5 10.832031 12.917969 7.5 12.917969 C 4.167969 12.917969 3.332031 12.5 2.917969 12.082031 C 2.5 11.667969 2.082031 10.832031 2.082031 8.75 C 2.082031 6.667969 2.5 5.832031 2.917969 5.417969 C 3.332031 5 4.167969 4.582031 7.5 4.582031 Z M 7.5 4.582031 "/>
<path style=" stroke:none;fill-rule:nonzero;fill:rgb(40%,45.882353%,49.803922%);fill-opacity:1;" d="M 13.75 13.125 C 13.75 13.46875 13.46875 13.75 13.125 13.75 C 12.78125 13.75 12.5 13.46875 12.5 13.125 C 12.5 12.78125 12.78125 12.5 13.125 12.5 C 13.46875 12.5 13.75 12.78125 13.75 13.125 Z M 13.75 13.125 "/>
<path style=" stroke:none;fill-rule:nonzero;fill:rgb(40%,45.882353%,49.803922%);fill-opacity:1;" d="M 2.5 13.125 C 2.5 13.46875 2.21875 13.75 1.875 13.75 C 1.53125 13.75 1.25 13.46875 1.25 13.125 C 1.25 12.78125 1.53125 12.5 1.875 12.5 C 2.21875 12.5 2.5 12.78125 2.5 13.125 Z M 2.5 13.125 "/>
</g>
</svg>
