<?xml version="1.0" encoding="UTF-8"?>
<svg xmlns="http://www.w3.org/2000/svg" xmlns:xlink="http://www.w3.org/1999/xlink" width="15pt" height="15pt" viewBox="0 0 15 15" version="1.1">
<g id="surface1">
<path style=" stroke:none;fill-rule:nonzero;fill:rgb(60.392157%,66.666667%,70.588235%);fill-opacity:1;" d="M 5.625 8.207031 L 6.804688 9.382812 L 4.742188 11.445312 L 3.5625 10.265625 Z M 5.625 8.207031 "/>
<path style=" stroke:none;fill-rule:nonzero;fill:rgb(40%,45.882353%,49.803922%);fill-opacity:1;" d="M 0.523438 12.128906 L 2.972656 9.679688 C 3.300781 9.355469 3.828125 9.355469 4.152344 9.679688 L 5.332031 10.859375 C 5.65625 11.183594 5.65625 11.710938 5.332031 12.035156 L 2.878906 14.484375 C 2.230469 15.136719 1.175781 15.136719 0.523438 14.484375 C -0.128906 13.835938 -0.125 12.78125 0.523438 12.128906 Z M 0.523438 12.128906 "/>
<path style=" stroke:none;fill-rule:nonzero;fill:rgb(53.333333%,60%,65.098039%);fill-opacity:1;" d="M 14.941406 5.695312 C 14.941406 8.800781 12.421875 11.320312 9.316406 11.320312 C 6.207031 11.320312 3.691406 8.800781 3.691406 5.695312 C 3.691406 2.589844 6.207031 0.0703125 9.316406 0.0703125 C 12.421875 0.0703125 14.941406 2.589844 14.941406 5.695312 Z M 14.941406 5.695312 "/>
<path style=" stroke:none;fill-rule:nonzero;fill:rgb(73.333333%,86.666667%,96.078431%);fill-opacity:1;" d="M 13.273438 5.695312 C 13.273438 7.882812 11.5 9.652344 9.316406 9.652344 C 7.128906 9.652344 5.355469 7.882812 5.355469 5.695312 C 5.355469 3.507812 7.128906 1.738281 9.316406 1.738281 C 11.5 1.738281 13.273438 3.507812 13.273438 5.695312 Z M 13.273438 5.695312 "/>
</g>
</svg>
