<?xml version="1.0" encoding="UTF-8"?>
<svg xmlns="http://www.w3.org/2000/svg" xmlns:xlink="http://www.w3.org/1999/xlink" width="15pt" height="15pt" viewBox="0 0 15 15" version="1.1">
<g id="surface1">
<path style=" stroke:none;fill-rule:nonzero;fill:rgb(100%,67.45098%,20%);fill-opacity:1;" d="M 7.5 3.332031 C 5.199219 3.332031 3.332031 5.199219 3.332031 7.5 C 3.332031 9.800781 5.199219 11.667969 7.5 11.667969 C 9.800781 11.667969 11.667969 9.800781 11.667969 7.5 C 11.667969 5.199219 9.800781 3.332031 7.5 3.332031 Z M 7.5 10 C 6.121094 10 5 8.882812 5 7.5 C 5 6.121094 6.121094 5 7.5 5 C 8.878906 5 10 6.121094 10 7.5 C 10 8.882812 8.878906 10 7.5 10 Z M 7.5 10 "/>
<path style=" stroke:none;fill-rule:nonzero;fill:rgb(100%,67.45098%,20%);fill-opacity:1;" d="M 8.332031 2.082031 C 8.332031 2.542969 7.960938 2.917969 7.5 2.917969 C 7.039062 2.917969 6.667969 2.542969 6.667969 2.082031 C 6.667969 1.625 7.039062 1.25 7.5 1.25 C 7.960938 1.25 8.332031 1.625 8.332031 2.082031 Z M 8.332031 2.082031 "/>
<path style=" stroke:none;fill-rule:nonzero;fill:rgb(100%,67.45098%,20%);fill-opacity:1;" d="M 8.332031 12.917969 C 8.332031 13.375 7.960938 13.75 7.5 13.75 C 7.039062 13.75 6.667969 13.375 6.667969 12.917969 C 6.667969 12.457031 7.039062 12.082031 7.5 12.082031 C 7.960938 12.082031 8.332031 12.457031 8.332031 12.917969 Z M 8.332031 12.917969 "/>
<path style=" stroke:none;fill-rule:nonzero;fill:rgb(100%,67.45098%,20%);fill-opacity:1;" d="M 4.257812 3.082031 C 3.933594 2.753906 3.40625 2.753906 3.082031 3.082031 C 2.753906 3.40625 2.753906 3.933594 3.082031 4.257812 C 3.40625 4.585938 3.933594 4.585938 4.257812 4.257812 C 4.585938 3.933594 4.585938 3.40625 4.257812 3.082031 Z M 11.917969 10.742188 C 12.246094 11.066406 12.246094 11.59375 11.917969 11.917969 C 11.59375 12.246094 11.066406 12.246094 10.742188 11.917969 C 10.414062 11.59375 10.414062 11.066406 10.742188 10.742188 C 11.066406 10.414062 11.59375 10.414062 11.917969 10.742188 Z M 11.917969 10.742188 "/>
<path style=" stroke:none;fill-rule:nonzero;fill:rgb(100%,67.45098%,20%);fill-opacity:1;" d="M 2.917969 7.5 C 2.917969 7.960938 2.542969 8.332031 2.082031 8.332031 C 1.625 8.332031 1.25 7.960938 1.25 7.5 C 1.25 7.039062 1.625 6.667969 2.082031 6.667969 C 2.542969 6.667969 2.917969 7.039062 2.917969 7.5 Z M 2.917969 7.5 "/>
<path style=" stroke:none;fill-rule:nonzero;fill:rgb(100%,67.45098%,20%);fill-opacity:1;" d="M 13.75 7.5 C 13.75 7.960938 13.375 8.332031 12.917969 8.332031 C 12.457031 8.332031 12.082031 7.960938 12.082031 7.5 C 12.082031 7.039062 12.457031 6.667969 12.917969 6.667969 C 13.375 6.667969 13.75 7.039062 13.75 7.5 Z M 13.75 7.5 "/>
<path style=" stroke:none;fill-rule:nonzero;fill:rgb(100%,67.45098%,20%);fill-opacity:1;" d="M 11.917969 4.257812 C 12.246094 3.933594 12.246094 3.40625 11.917969 3.082031 C 11.59375 2.753906 11.066406 2.753906 10.742188 3.082031 C 10.414062 3.40625 10.414062 3.933594 10.742188 4.257812 C 11.066406 4.585938 11.59375 4.585938 11.917969 4.257812 Z M 4.257812 11.917969 C 3.933594 12.246094 3.40625 12.246094 3.082031 11.917969 C 2.753906 11.59375 2.753906 11.066406 3.082031 10.742188 C 3.40625 10.414062 3.933594 10.414062 4.257812 10.742188 C 4.585938 11.066406 4.585938 11.59375 4.257812 11.917969 Z M 4.257812 11.917969 "/>
</g>
</svg>
