<?xml version="1.0" encoding="UTF-8"?>
<svg xmlns="http://www.w3.org/2000/svg" xmlns:xlink="http://www.w3.org/1999/xlink" width="15pt" height="15pt" viewBox="0 0 15 15" version="1.1">
<g id="surface1">
<path style=" stroke:none;fill-rule:nonzero;fill:rgb(100%,67.45098%,20%);fill-opacity:1;" d="M 8.332031 2.5 C 8.332031 2.960938 7.960938 3.332031 7.5 3.332031 C 7.039062 3.332031 6.667969 2.960938 6.667969 2.5 L 6.667969 0.832031 C 6.667969 0.375 7.039062 0 7.5 0 C 7.960938 0 8.332031 0.375 8.332031 0.832031 Z M 8.332031 14.167969 C 8.332031 14.625 7.960938 15 7.5 15 C 7.039062 15 6.667969 14.625 6.667969 14.167969 L 6.667969 12.5 C 6.667969 12.039062 7.039062 11.667969 7.5 11.667969 C 7.960938 11.667969 8.332031 12.039062 8.332031 12.5 Z M 2.5 6.667969 C 2.960938 6.667969 3.332031 7.039062 3.332031 7.5 C 3.332031 7.960938 2.960938 8.332031 2.5 8.332031 L 0.832031 8.332031 C 0.375 8.332031 0 7.960938 0 7.5 C 0 7.039062 0.375 6.667969 0.832031 6.667969 Z M 14.167969 6.667969 C 14.625 6.667969 15 7.039062 15 7.5 C 15 7.960938 14.625 8.332031 14.167969 8.332031 L 12.5 8.332031 C 12.039062 8.332031 11.667969 7.960938 11.667969 7.5 C 11.667969 7.039062 12.039062 6.667969 12.5 6.667969 Z M 3.375 10.445312 C 3.699219 10.121094 4.226562 10.121094 4.554688 10.445312 C 4.878906 10.769531 4.878906 11.300781 4.554688 11.625 L 3.375 12.804688 C 3.050781 13.128906 2.523438 13.128906 2.195312 12.804688 C 1.871094 12.476562 1.871094 11.949219 2.195312 11.625 Z M 11.625 2.195312 C 11.949219 1.871094 12.476562 1.871094 12.804688 2.195312 C 13.128906 2.523438 13.128906 3.050781 12.804688 3.375 L 11.625 4.554688 C 11.300781 4.878906 10.769531 4.878906 10.445312 4.554688 C 10.121094 4.226562 10.121094 3.699219 10.445312 3.375 Z M 10.445312 11.625 C 10.121094 11.300781 10.121094 10.773438 10.445312 10.445312 C 10.769531 10.121094 11.300781 10.121094 11.625 10.445312 L 12.804688 11.625 C 13.128906 11.949219 13.128906 12.476562 12.804688 12.804688 C 12.476562 13.128906 11.949219 13.128906 11.625 12.804688 Z M 7.5 3.75 C 5.429688 3.75 3.75 5.429688 3.75 7.5 C 3.75 9.570312 5.429688 11.25 7.5 11.25 C 9.570312 11.25 11.25 9.570312 11.25 7.5 C 11.25 5.429688 9.570312 3.75 7.5 3.75 Z M 7.5 9.582031 C 6.347656 9.582031 5.417969 8.652344 5.417969 7.5 C 5.417969 6.347656 6.347656 5.417969 7.5 5.417969 C 8.652344 5.417969 9.582031 6.347656 9.582031 7.5 C 9.582031 8.652344 8.652344 9.582031 7.5 9.582031 Z M 2.195312 3.375 C 1.871094 3.050781 1.871094 2.523438 2.195312 2.195312 C 2.523438 1.871094 3.050781 1.871094 3.375 2.195312 L 4.554688 3.375 C 4.878906 3.699219 4.878906 4.230469 4.554688 4.554688 C 4.226562 4.878906 3.699219 4.878906 3.375 4.554688 Z M 2.195312 3.375 "/>
</g>
</svg>
