<?xml version="1.0" encoding="UTF-8"?>
<svg xmlns="http://www.w3.org/2000/svg" xmlns:xlink="http://www.w3.org/1999/xlink" width="15pt" height="15pt" viewBox="0 0 15 15" version="1.1">
<g id="surface1">
<path style=" stroke:none;fill-rule:nonzero;fill:rgb(53.333333%,60%,65.098039%);fill-opacity:1;" d="M 2.917969 4.167969 C 2.917969 4.167969 2.082031 4.167969 2.082031 5 L 2.082031 10 C 2.082031 10.832031 2.917969 10.832031 2.917969 10.832031 L 5.417969 10.832031 L 8.75 14.167969 C 8.75 14.167969 9.167969 14.582031 9.582031 14.582031 L 10 14.582031 C 10 14.582031 10.417969 14.582031 10.417969 14.167969 L 10.417969 0.832031 C 10.417969 0.832031 10.417969 0.417969 10 0.417969 L 9.582031 0.417969 C 9.167969 0.417969 8.75 0.832031 8.75 0.832031 L 5.417969 4.167969 Z M 2.917969 4.167969 "/>
<path style=" stroke:none;fill-rule:nonzero;fill:rgb(80%,83.921569%,86.666667%);fill-opacity:1;" d="M 5.417969 10.832031 L 8.75 14.167969 C 8.75 14.167969 9.167969 14.582031 9.582031 14.582031 L 10 14.582031 C 10 14.582031 10.417969 14.582031 10.417969 14.167969 L 10.417969 0.832031 C 10.417969 0.832031 10.417969 0.417969 10 0.417969 L 9.582031 0.417969 C 9.167969 0.417969 8.75 0.832031 8.75 0.832031 L 5.417969 4.167969 Z M 5.417969 10.832031 "/>
<path style=" stroke:none;fill-rule:nonzero;fill:rgb(53.333333%,60%,65.098039%);fill-opacity:1;" d="M 11.960938 10.816406 C 11.839844 10.816406 11.722656 10.765625 11.640625 10.664062 C 11.492188 10.484375 11.519531 10.222656 11.695312 10.078125 C 12.472656 9.441406 12.917969 8.5 12.917969 7.5 C 12.917969 6.484375 12.464844 5.539062 11.671875 4.902344 C 11.492188 4.757812 11.464844 4.496094 11.609375 4.316406 C 11.753906 4.136719 12.015625 4.109375 12.195312 4.253906 C 13.183594 5.046875 13.75 6.230469 13.75 7.5 C 13.75 8.75 13.195312 9.925781 12.226562 10.722656 C 12.148438 10.785156 12.054688 10.816406 11.960938 10.816406 Z M 11.960938 10.816406 "/>
</g>
</svg>
