<?xml version="1.0" encoding="UTF-8"?>
<svg xmlns="http://www.w3.org/2000/svg" xmlns:xlink="http://www.w3.org/1999/xlink" width="15pt" height="15pt" viewBox="0 0 15 15" version="1.1">
<g id="surface1">
<path style=" stroke:none;fill-rule:nonzero;fill:rgb(23.137255%,53.333333%,76.470588%);fill-opacity:1;" d="M 15 13.332031 C 15 14.253906 14.253906 15 13.332031 15 L 1.667969 15 C 0.746094 15 0 14.253906 0 13.332031 L 0 1.667969 C 0 0.746094 0.746094 0 1.667969 0 L 13.332031 0 C 14.253906 0 15 0.746094 15 1.667969 Z M 15 13.332031 "/>
<path style=" stroke:none;fill-rule:nonzero;fill:rgb(100%,100%,100%);fill-opacity:1;" d="M 5.398438 6.546875 C 5.625 5.96875 5.910156 5.355469 6.304688 4.824219 C 5.8125 4.191406 5.144531 3.75 4.167969 3.75 L 2.917969 3.75 L 2.917969 5.417969 L 4.167969 5.417969 C 4.710938 5.417969 5.050781 5.789062 5.398438 6.546875 Z M 8.117188 8.808594 C 7.917969 9.355469 7.675781 9.964844 7.34375 10.53125 C 7.800781 10.964844 8.382812 11.25 9.167969 11.25 L 10.417969 11.25 L 10.417969 9.582031 L 9.167969 9.582031 C 8.714844 9.582031 8.40625 9.324219 8.117188 8.808594 Z M 8.117188 8.808594 "/>
<path style=" stroke:none;fill-rule:nonzero;fill:rgb(100%,100%,100%);fill-opacity:1;" d="M 4.167969 11.25 L 2.917969 11.25 L 2.917969 9.582031 L 4.167969 9.582031 C 4.953125 9.582031 5.308594 8.828125 5.882812 7.21875 C 6.433594 5.671875 7.121094 3.75 9.167969 3.75 L 10.417969 3.75 L 10.417969 5.417969 L 9.167969 5.417969 C 8.382812 5.417969 8.027344 6.171875 7.453125 7.78125 C 6.898438 9.328125 6.210938 11.25 4.167969 11.25 Z M 4.167969 11.25 "/>
<path style=" stroke:none;fill-rule:nonzero;fill:rgb(100%,100%,100%);fill-opacity:1;" d="M 12.582031 4.582031 L 9.582031 2.082031 L 9.582031 7.082031 Z M 12.582031 10.417969 L 9.582031 7.917969 L 9.582031 12.917969 Z M 12.582031 10.417969 "/>
</g>
</svg>
