<?xml version="1.0" encoding="UTF-8"?>
<svg xmlns="http://www.w3.org/2000/svg" xmlns:xlink="http://www.w3.org/1999/xlink" width="15pt" height="15pt" viewBox="0 0 15 15" version="1.1">
<g id="surface1">
<path style=" stroke:none;fill-rule:nonzero;fill:rgb(53.333333%,60%,65.098039%);fill-opacity:1;" d="M 3.75 4.167969 C 3.75 4.167969 2.917969 4.167969 2.917969 5 L 2.917969 10 C 2.917969 10.832031 3.75 10.832031 3.75 10.832031 L 6.25 10.832031 L 9.582031 14.167969 C 9.582031 14.167969 10 14.582031 10.417969 14.582031 L 10.832031 14.582031 C 10.832031 14.582031 11.25 14.582031 11.25 14.167969 L 11.25 0.832031 C 11.25 0.832031 11.25 0.417969 10.832031 0.417969 L 10.417969 0.417969 C 10 0.417969 9.582031 0.832031 9.582031 0.832031 L 6.25 4.167969 Z M 3.75 4.167969 "/>
<path style=" stroke:none;fill-rule:nonzero;fill:rgb(80%,83.921569%,86.666667%);fill-opacity:1;" d="M 6.25 10.832031 L 9.582031 14.167969 C 9.582031 14.167969 10 14.582031 10.417969 14.582031 L 10.832031 14.582031 C 10.832031 14.582031 11.25 14.582031 11.25 14.167969 L 11.25 0.832031 C 11.25 0.832031 11.25 0.417969 10.832031 0.417969 L 10.417969 0.417969 C 10 0.417969 9.582031 0.832031 9.582031 0.832031 L 6.25 4.167969 Z M 6.25 10.832031 "/>
<path style=" stroke:none;fill-rule:nonzero;fill:rgb(86.666667%,18.039216%,26.666667%);fill-opacity:1;" d="M 12.917969 13.75 L 1.664062 2.5 C 1.4375 2.269531 1.4375 1.898438 1.664062 1.667969 L 1.667969 1.664062 C 1.898438 1.4375 2.269531 1.4375 2.5 1.664062 L 13.75 12.917969 C 13.980469 13.148438 13.980469 13.519531 13.75 13.75 C 13.519531 13.980469 13.148438 13.980469 12.917969 13.75 Z M 12.917969 13.75 "/>
</g>
</svg>
