<?xml version="1.0" encoding="UTF-8"?>
<svg xmlns="http://www.w3.org/2000/svg" xmlns:xlink="http://www.w3.org/1999/xlink" width="15pt" height="15pt" viewBox="0 0 15 15" version="1.1">
<g id="surface1">
<path style=" stroke:none;fill-rule:nonzero;fill:rgb(53.333333%,60%,65.098039%);fill-opacity:1;" d="M 0.832031 4.167969 C 0.832031 4.167969 0 4.167969 0 5 L 0 10 C 0 10.832031 0.832031 10.832031 0.832031 10.832031 L 3.332031 10.832031 L 6.667969 14.167969 C 6.667969 14.167969 7.082031 14.582031 7.5 14.582031 L 7.917969 14.582031 C 7.917969 14.582031 8.332031 14.582031 8.332031 14.167969 L 8.332031 0.832031 C 8.332031 0.832031 8.332031 0.417969 7.917969 0.417969 L 7.5 0.417969 C 7.082031 0.417969 6.667969 0.832031 6.667969 0.832031 L 3.332031 4.167969 Z M 0.832031 4.167969 "/>
<path style=" stroke:none;fill-rule:nonzero;fill:rgb(80%,83.921569%,86.666667%);fill-opacity:1;" d="M 3.332031 10.832031 L 6.667969 14.167969 C 6.667969 14.167969 7.082031 14.582031 7.5 14.582031 L 7.917969 14.582031 C 7.917969 14.582031 8.332031 14.582031 8.332031 14.167969 L 8.332031 0.832031 C 8.332031 0.832031 8.332031 0.417969 7.917969 0.417969 L 7.5 0.417969 C 7.082031 0.417969 6.667969 0.832031 6.667969 0.832031 L 3.332031 4.167969 Z M 3.332031 10.832031 "/>
<path style=" stroke:none;fill-rule:nonzero;fill:rgb(53.333333%,60%,65.098039%);fill-opacity:1;" d="M 12.082031 13.339844 C 11.972656 13.339844 11.859375 13.292969 11.785156 13.203125 C 11.640625 13.035156 11.660156 12.789062 11.828125 12.648438 C 13.328125 11.367188 14.1875 9.5 14.1875 7.527344 C 14.1875 5.550781 13.328125 3.683594 11.828125 2.40625 C 11.660156 2.265625 11.640625 2.015625 11.78125 1.847656 C 11.925781 1.683594 12.171875 1.664062 12.339844 1.804688 C 14.015625 3.234375 14.976562 5.320312 14.976562 7.527344 C 14.976562 9.730469 14.015625 11.816406 12.339844 13.246094 C 12.265625 13.308594 12.175781 13.339844 12.082031 13.339844 Z M 12.082031 13.339844 "/>
<path style=" stroke:none;fill-rule:nonzero;fill:rgb(53.333333%,60%,65.098039%);fill-opacity:1;" d="M 10.945312 12.066406 C 10.832031 12.066406 10.722656 12.019531 10.648438 11.925781 C 10.511719 11.761719 10.535156 11.515625 10.699219 11.378906 C 11.863281 10.421875 12.53125 9.007812 12.53125 7.5 C 12.53125 6.011719 11.875 4.605469 10.734375 3.648438 C 10.570312 3.511719 10.550781 3.265625 10.6875 3.101562 C 10.824219 2.9375 11.066406 2.917969 11.230469 3.054688 C 12.546875 4.160156 13.304688 5.78125 13.304688 7.5 C 13.304688 9.238281 12.535156 10.871094 11.191406 11.976562 C 11.121094 12.039062 11.03125 12.066406 10.945312 12.066406 Z M 10.945312 12.066406 "/>
<path style=" stroke:none;fill-rule:nonzero;fill:rgb(53.333333%,60%,65.098039%);fill-opacity:1;" d="M 9.878906 10.816406 C 9.757812 10.816406 9.640625 10.765625 9.554688 10.664062 C 9.410156 10.484375 9.4375 10.222656 9.613281 10.078125 C 10.390625 9.441406 10.832031 8.5 10.832031 7.5 C 10.832031 6.484375 10.378906 5.539062 9.589844 4.902344 C 9.410156 4.757812 9.378906 4.496094 9.523438 4.316406 C 9.671875 4.136719 9.933594 4.109375 10.109375 4.253906 C 11.097656 5.046875 11.667969 6.230469 11.667969 7.5 C 11.667969 8.75 11.109375 9.925781 10.144531 10.722656 C 10.066406 10.785156 9.972656 10.816406 9.878906 10.816406 Z M 9.878906 10.816406 "/>
</g>
</svg>
