<?xml version="1.0" encoding="UTF-8"?>
<svg xmlns="http://www.w3.org/2000/svg" xmlns:xlink="http://www.w3.org/1999/xlink" width="15pt" height="15pt" viewBox="0 0 15 15" version="1.1">
<g id="surface1">
<path style=" stroke:none;fill-rule:nonzero;fill:rgb(60.392157%,66.666667%,70.588235%);fill-opacity:1;" d="M 4.941406 6.777344 C 5.101562 6.9375 5.101562 7.203125 4.941406 7.367188 C 4.777344 7.527344 4.515625 7.527344 4.351562 7.367188 L 0.816406 3.828125 C 0.652344 3.667969 0.652344 3.402344 0.816406 3.242188 C 0.976562 3.078125 1.242188 3.078125 1.40625 3.242188 Z M 7.886719 3.832031 C 8.050781 3.992188 8.050781 4.257812 7.886719 4.417969 C 7.726562 4.582031 7.460938 4.582031 7.296875 4.417969 L 3.761719 0.882812 C 3.601562 0.722656 3.601562 0.457031 3.761719 0.292969 C 3.925781 0.132812 4.1875 0.132812 4.351562 0.292969 Z M 7.886719 3.832031 "/>
<path style=" stroke:none;fill-rule:nonzero;fill:rgb(19.215686%,21.568627%,23.921569%);fill-opacity:1;" d="M 14.167969 15 C 14.167969 12.929688 13.101562 11.425781 12.265625 10.5625 C 12.640625 9.925781 12.558594 9.09375 12.011719 8.542969 L 11.554688 8.085938 C 11.699219 7.53125 11.5625 6.917969 11.128906 6.480469 L 9.066406 4.417969 C 9.390625 4.09375 9.390625 3.566406 9.066406 3.242188 C 8.742188 2.914062 8.210938 2.914062 7.886719 3.242188 L 6.710938 4.417969 L 6.707031 4.417969 L 4.941406 6.1875 L 3.761719 7.363281 C 3.4375 7.691406 3.4375 8.21875 3.761719 8.542969 C 4.089844 8.867188 4.617188 8.867188 4.941406 8.542969 L 7.003906 10.605469 C 7.4375 11.039062 8.054688 11.179688 8.609375 11.03125 L 9.066406 11.488281 C 9.617188 12.039062 10.449219 12.121094 11.089844 11.742188 C 11.707031 12.386719 12.5 13.5 12.5 15 Z M 14.167969 15 "/>
</g>
</svg>
