<?xml version="1.0" encoding="UTF-8"?>
<svg xmlns="http://www.w3.org/2000/svg" xmlns:xlink="http://www.w3.org/1999/xlink" width="15pt" height="15pt" viewBox="0 0 15 15" version="1.1">
<g id="surface1">
<path style=" stroke:none;fill-rule:nonzero;fill:rgb(66.666667%,72.156863%,76.078431%);fill-opacity:1;" d="M 5.417969 1.25 C 3.117188 1.25 1.25 3.117188 1.25 5.417969 L 1.25 9.582031 L 2.917969 9.582031 L 2.917969 5.417969 C 2.917969 4.035156 4.035156 2.917969 5.417969 2.917969 C 6.796875 2.917969 7.917969 4.035156 7.917969 5.417969 L 7.917969 9.582031 L 9.582031 9.582031 L 9.582031 5.417969 C 9.582031 3.117188 7.71875 1.25 5.417969 1.25 Z M 5.417969 1.25 "/>
<path style=" stroke:none;fill-rule:nonzero;fill:rgb(100%,67.45098%,20%);fill-opacity:1;" d="M 10.832031 13.332031 C 10.832031 14.253906 10.085938 15 9.167969 15 L 1.667969 15 C 0.746094 15 0 14.253906 0 13.332031 L 0 8.332031 C 0 7.414062 0.746094 6.667969 1.667969 6.667969 L 9.167969 6.667969 C 10.085938 6.667969 10.832031 7.414062 10.832031 8.332031 Z M 10.832031 13.332031 "/>
<path style=" stroke:none;fill-rule:nonzero;fill:rgb(40%,45.882353%,49.803922%);fill-opacity:1;" d="M 13.332031 9.167969 L 6.667969 7.5 L 2.082031 10.417969 L 7.160156 10.417969 C 7.332031 9.933594 7.789062 9.582031 8.332031 9.582031 C 9.023438 9.582031 9.582031 10.144531 9.582031 10.832031 C 9.582031 11.523438 9.023438 12.082031 8.332031 12.082031 C 7.789062 12.082031 7.332031 11.734375 7.160156 11.25 L 2.082031 11.25 L 6.667969 14.167969 L 13.332031 12.5 L 12.917969 10.832031 Z M 13.332031 9.167969 "/>
<path style=" stroke:none;fill-rule:nonzero;fill:rgb(16.078431%,18.431373%,20%);fill-opacity:1;" d="M 15 7.5 L 13.75 7.5 C 13.519531 7.5 13.25 7.667969 13.148438 7.871094 L 11.851562 10.460938 C 11.75 10.664062 11.75 11 11.851562 11.207031 L 13.148438 13.792969 C 13.25 14 13.519531 14.167969 13.75 14.167969 L 15 14.167969 Z M 15 7.5 "/>
</g>
</svg>
