<?xml version="1.0" encoding="UTF-8"?>
<svg xmlns="http://www.w3.org/2000/svg" xmlns:xlink="http://www.w3.org/1999/xlink" width="15pt" height="15pt" viewBox="0 0 15 15" version="1.1">
<g id="surface1">
<path style=" stroke:none;fill-rule:nonzero;fill:rgb(23.137255%,53.333333%,76.470588%);fill-opacity:1;" d="M 15 13.332031 C 15 14.253906 14.253906 15 13.332031 15 L 1.667969 15 C 0.746094 15 0 14.253906 0 13.332031 L 0 1.667969 C 0 0.746094 0.746094 0 1.667969 0 L 13.332031 0 C 14.253906 0 15 0.746094 15 1.667969 Z M 15 13.332031 "/>
<path style=" stroke:none;fill-rule:nonzero;fill:rgb(100%,100%,100%);fill-opacity:1;" d="M 12.574219 5.84375 L 11.195312 6.988281 C 11.230469 7.152344 11.25 7.324219 11.25 7.5 C 11.25 8.878906 10.128906 10 8.75 10 L 8.308594 10 C 8.324219 10.136719 8.332031 10.277344 8.332031 10.417969 C 8.332031 10.855469 8.253906 11.273438 8.117188 11.667969 L 8.75 11.667969 C 11.050781 11.667969 12.917969 9.800781 12.917969 7.5 C 12.917969 6.910156 12.792969 6.351562 12.574219 5.84375 Z M 12.582031 4.167969 L 9.582031 1.667969 L 9.582031 3.332031 L 6.25 3.332031 C 3.949219 3.332031 2.082031 5.199219 2.082031 7.5 C 2.082031 7.542969 2.089844 7.582031 2.089844 7.621094 C 2.582031 7.179688 3.191406 6.867188 3.871094 6.734375 C 4.191406 5.730469 5.136719 5 6.25 5 L 9.582031 5 L 9.582031 6.667969 Z M 12.582031 4.167969 "/>
<path style=" stroke:none;fill-rule:nonzero;fill:rgb(100%,100%,100%);fill-opacity:1;" d="M 7.082031 10.417969 C 7.082031 11.796875 5.964844 12.917969 4.582031 12.917969 C 3.203125 12.917969 2.082031 11.796875 2.082031 10.417969 C 2.082031 9.035156 3.203125 7.917969 4.582031 7.917969 C 5.964844 7.917969 7.082031 9.035156 7.082031 10.417969 Z M 7.082031 10.417969 "/>
<path style=" stroke:none;fill-rule:nonzero;fill:rgb(23.137255%,53.333333%,76.470588%);fill-opacity:1;" d="M 4.25 9.632812 L 3.957031 9.632812 C 3.714844 9.632812 3.617188 9.457031 3.617188 9.285156 C 3.617188 9.113281 3.742188 8.941406 3.957031 8.941406 L 4.664062 8.941406 C 4.878906 8.941406 5 9.097656 5 9.296875 L 5 11.695312 C 5 11.945312 4.839844 12.082031 4.625 12.082031 C 4.410156 12.082031 4.25 11.941406 4.25 11.695312 Z M 4.25 9.632812 "/>
</g>
</svg>
