<?xml version="1.0" encoding="UTF-8"?>
<svg xmlns="http://www.w3.org/2000/svg" xmlns:xlink="http://www.w3.org/1999/xlink" width="15pt" height="15pt" viewBox="0 0 15 15" version="1.1">
<g id="surface1">
<path style=" stroke:none;fill-rule:nonzero;fill:rgb(23.137255%,53.333333%,76.470588%);fill-opacity:1;" d="M 1.667969 15 C 0.746094 15 0 14.253906 0 13.332031 L 0 1.667969 C 0 0.746094 0.746094 0 1.667969 0 L 13.332031 0 C 14.253906 0 15 0.746094 15 1.667969 L 15 13.332031 C 15 14.253906 14.253906 15 13.332031 15 Z M 1.667969 15 "/>
<path style=" stroke:none;fill-rule:nonzero;fill:rgb(100%,100%,100%);fill-opacity:1;" d="M 10.832031 12.582031 L 13.332031 9.582031 L 11.667969 9.582031 L 11.667969 6.25 C 11.667969 3.949219 9.800781 2.082031 7.5 2.082031 C 6.910156 2.082031 6.351562 2.207031 5.84375 2.429688 L 6.988281 3.804688 C 7.152344 3.769531 7.324219 3.75 7.5 3.75 C 8.882812 3.75 10 4.871094 10 6.25 L 10 9.582031 L 8.332031 9.582031 Z M 9.15625 12.574219 L 8.011719 11.195312 C 7.847656 11.230469 7.675781 11.25 7.5 11.25 C 6.121094 11.25 5 10.128906 5 8.75 L 5 5.417969 L 6.667969 5.417969 L 4.167969 2.417969 L 1.667969 5.417969 L 3.332031 5.417969 L 3.332031 8.75 C 3.332031 11.050781 5.199219 12.917969 7.5 12.917969 C 8.089844 12.917969 8.648438 12.792969 9.15625 12.574219 Z M 9.15625 12.574219 "/>
</g>
</svg>
