<?xml version="1.0" encoding="UTF-8"?>
<svg xmlns="http://www.w3.org/2000/svg" xmlns:xlink="http://www.w3.org/1999/xlink" width="15pt" height="15pt" viewBox="0 0 15 15" version="1.1">
<g id="surface1">
<path style=" stroke:none;fill-rule:nonzero;fill:rgb(53.333333%,60%,65.098039%);fill-opacity:1;" d="M 6.25 3.75 L 8.75 1.25 C 8.75 1.25 11.25 -1.25 13.75 1.25 C 16.25 3.75 13.75 6.25 13.75 6.25 L 10.417969 9.582031 C 10.417969 9.582031 7.917969 12.082031 5.417969 9.582031 C 4.949219 9.113281 4.65625 8.492188 4.65625 8.492188 L 6.054688 7.097656 C 6.054688 7.097656 6 7.664062 6.667969 8.332031 C 6.667969 8.332031 7.917969 9.582031 9.167969 8.332031 L 12.5 5 C 12.5 5 13.75 3.75 12.5 2.5 C 11.25 1.25 10 2.5 10 2.5 L 8.445312 4.054688 C 8.445312 4.054688 7.671875 3.421875 6.09375 3.90625 Z M 6.25 3.75 "/>
<path style=" stroke:none;fill-rule:nonzero;fill:rgb(53.333333%,60%,65.098039%);fill-opacity:1;" d="M 8.683594 11.25 L 6.183594 13.75 C 6.183594 13.75 3.683594 16.25 1.183594 13.75 C -1.316406 11.25 1.183594 8.75 1.183594 8.75 L 4.519531 5.417969 C 4.519531 5.417969 7.019531 2.917969 9.519531 5.417969 C 9.988281 5.886719 10.277344 6.507812 10.277344 6.507812 L 8.878906 7.902344 C 8.878906 7.902344 8.9375 7.335938 8.269531 6.667969 C 8.269531 6.667969 7.019531 5.417969 5.769531 6.667969 L 2.433594 10 C 2.433594 10 1.183594 11.25 2.433594 12.5 C 3.683594 13.75 4.933594 12.5 4.933594 12.5 L 6.488281 10.945312 C 6.488281 10.945312 7.261719 11.578125 8.839844 11.09375 Z M 8.683594 11.25 "/>
</g>
</svg>
