<?xml version="1.0" encoding="UTF-8"?>
<svg xmlns="http://www.w3.org/2000/svg" xmlns:xlink="http://www.w3.org/1999/xlink" width="15pt" height="15pt" viewBox="0 0 15 15" version="1.1">
<g id="surface1">
<path style=" stroke:none;fill-rule:nonzero;fill:rgb(19.215686%,21.568627%,23.921569%);fill-opacity:1;" d="M 10.714844 4.527344 L 7.824219 0.273438 C 7.574219 -0.0976562 7.175781 -0.0898438 6.9375 0.285156 L 4.277344 4.511719 C 4.039062 4.890625 4.199219 5.199219 4.636719 5.199219 L 5.417969 5.199219 L 5.417969 6.667969 C 5.417969 7.125 5.789062 7.5 6.25 7.5 L 8.75 7.5 C 9.210938 7.5 9.582031 7.125 9.582031 6.667969 L 9.582031 5.199219 L 10.375 5.199219 C 10.808594 5.199219 10.964844 4.898438 10.714844 4.527344 Z M 1.519531 9.824219 L 0.597656 9.824219 C 0.191406 9.824219 0.0234375 9.527344 0.0234375 9.238281 C 0.0234375 8.941406 0.234375 8.65625 0.597656 8.65625 L 3.710938 8.65625 C 4.074219 8.65625 4.285156 8.941406 4.285156 9.238281 C 4.285156 9.527344 4.117188 9.824219 3.710938 9.824219 L 2.789062 9.824219 L 2.789062 14.066406 C 2.789062 14.492188 2.519531 14.726562 2.15625 14.726562 C 1.792969 14.726562 1.523438 14.492188 1.523438 14.066406 L 1.523438 9.824219 Z M 4.332031 11.667969 C 4.332031 9.90625 5.515625 8.554688 7.242188 8.554688 C 8.941406 8.554688 10.152344 9.949219 10.152344 11.667969 C 10.152344 13.417969 8.976562 14.78125 7.242188 14.78125 C 5.523438 14.78125 4.332031 13.417969 4.332031 11.667969 Z M 8.832031 11.667969 C 8.832031 10.644531 8.296875 9.722656 7.242188 9.722656 C 6.183594 9.722656 5.652344 10.644531 5.652344 11.667969 C 5.652344 12.699219 6.167969 13.613281 7.242188 13.613281 C 8.316406 13.613281 8.832031 12.699219 8.832031 11.667969 Z M 10.679688 9.316406 C 10.679688 8.917969 10.914062 8.65625 11.339844 8.65625 L 12.835938 8.65625 C 14.078125 8.65625 15 9.46875 15 10.675781 C 15 11.910156 14.042969 12.683594 12.886719 12.683594 L 11.945312 12.683594 L 11.945312 14.070312 C 11.945312 14.492188 11.675781 14.730469 11.3125 14.730469 C 10.949219 14.730469 10.679688 14.492188 10.679688 14.070312 Z M 11.945312 11.566406 L 12.808594 11.566406 C 13.34375 11.566406 13.679688 11.175781 13.679688 10.667969 C 13.679688 10.160156 13.34375 9.773438 12.808594 9.773438 L 11.945312 9.773438 Z M 11.945312 11.566406 "/>
</g>
</svg>
