<?xml version="1.0" encoding="UTF-8"?>
<svg xmlns="http://www.w3.org/2000/svg" xmlns:xlink="http://www.w3.org/1999/xlink" width="15pt" height="15pt" viewBox="0 0 15 15" version="1.1">
<g id="surface1">
<path style=" stroke:none;fill-rule:nonzero;fill:rgb(66.666667%,72.156863%,76.078431%);fill-opacity:1;" d="M 5.417969 1.25 C 3.117188 1.25 1.25 3.117188 1.25 5.417969 L 1.25 9.582031 L 2.917969 9.582031 L 2.917969 5.417969 C 2.917969 4.035156 4.035156 2.917969 5.417969 2.917969 C 6.796875 2.917969 7.917969 4.035156 7.917969 5.417969 L 7.917969 9.582031 L 9.582031 9.582031 L 9.582031 5.417969 C 9.582031 3.117188 7.71875 1.25 5.417969 1.25 Z M 5.417969 1.25 "/>
<path style=" stroke:none;fill-rule:nonzero;fill:rgb(100%,67.45098%,20%);fill-opacity:1;" d="M 10.832031 13.332031 C 10.832031 14.253906 10.085938 15 9.167969 15 L 1.667969 15 C 0.746094 15 0 14.253906 0 13.332031 L 0 8.332031 C 0 7.414062 0.746094 6.667969 1.667969 6.667969 L 9.167969 6.667969 C 10.085938 6.667969 10.832031 7.414062 10.832031 8.332031 Z M 10.832031 13.332031 "/>
<path style=" stroke:none;fill-rule:nonzero;fill:rgb(75.686275%,41.176471%,30.980392%);fill-opacity:1;" d="M 14.582031 3.75 C 14.582031 1.679688 12.90625 0 10.832031 0 C 8.761719 0 7.082031 1.679688 7.082031 3.75 C 7.082031 5.382812 8.128906 6.765625 9.582031 7.28125 L 9.582031 13.957031 C 9.582031 14.535156 10.050781 15 10.625 15 C 11.128906 15 11.550781 14.640625 11.644531 14.164062 C 11.652344 14.164062 11.660156 14.167969 11.667969 14.167969 C 11.898438 14.167969 12.082031 13.980469 12.082031 13.75 L 12.082031 13.332031 C 12.082031 13.101562 11.898438 12.917969 11.667969 12.917969 L 11.667969 12.5 C 11.898438 12.5 12.082031 12.3125 12.082031 12.082031 L 12.082031 11.25 C 12.082031 11.019531 11.898438 10.832031 11.667969 10.832031 L 11.667969 9.882812 C 11.914062 9.738281 12.082031 9.472656 12.082031 9.167969 L 12.082031 7.28125 C 13.539062 6.765625 14.582031 5.382812 14.582031 3.75 Z M 10.832031 0.832031 C 11.292969 0.832031 11.667969 1.207031 11.667969 1.667969 C 11.667969 2.125 11.292969 2.5 10.832031 2.5 C 10.375 2.5 10 2.125 10 1.667969 C 10 1.207031 10.375 0.832031 10.832031 0.832031 Z M 10.832031 0.832031 "/>
</g>
</svg>
