<?xml version="1.0" encoding="UTF-8"?>
<svg xmlns="http://www.w3.org/2000/svg" xmlns:xlink="http://www.w3.org/1999/xlink" width="15pt" height="15pt" viewBox="0 0 15 15" version="1.1">
<g id="surface1">
<path style=" stroke:none;fill-rule:nonzero;fill:rgb(66.666667%,72.156863%,76.078431%);fill-opacity:1;" d="M 7.5 0 C 5.578125 0 3.964844 1.300781 3.484375 3.070312 L 5.089844 3.507812 C 5.378906 2.449219 6.347656 1.667969 7.5 1.667969 C 8.878906 1.667969 10 2.785156 10 4.167969 L 10 8.332031 L 11.667969 8.332031 L 11.667969 4.167969 C 11.667969 1.867188 9.800781 0 7.5 0 Z M 7.5 0 "/>
<path style=" stroke:none;fill-rule:nonzero;fill:rgb(100%,67.45098%,20%);fill-opacity:1;" d="M 12.917969 13.332031 C 12.917969 14.253906 12.171875 15 11.25 15 L 3.75 15 C 2.828125 15 2.082031 14.253906 2.082031 13.332031 L 2.082031 8.332031 C 2.082031 7.414062 2.828125 6.667969 3.75 6.667969 L 11.25 6.667969 C 12.171875 6.667969 12.917969 7.414062 12.917969 8.332031 Z M 12.917969 13.332031 "/>
</g>
</svg>
