<?xml version="1.0" encoding="UTF-8"?>
<svg xmlns="http://www.w3.org/2000/svg" xmlns:xlink="http://www.w3.org/1999/xlink" width="15pt" height="15pt" viewBox="0 0 15 15" version="1.1">
<g id="surface1">
<path style=" stroke:none;fill-rule:nonzero;fill:rgb(23.137255%,53.333333%,76.470588%);fill-opacity:1;" d="M 15 13.332031 C 15 14.253906 14.253906 15 13.332031 15 L 1.667969 15 C 0.746094 15 0 14.253906 0 13.332031 L 0 1.667969 C 0 0.746094 0.746094 0 1.667969 0 L 13.332031 0 C 14.253906 0 15 0.746094 15 1.667969 Z M 15 13.332031 "/>
<path style=" stroke:none;fill-rule:nonzero;fill:rgb(96.078431%,97.254902%,98.039216%);fill-opacity:1;" d="M 3.003906 4.574219 L 2.191406 4.574219 C 1.527344 4.574219 1.25 4.089844 1.25 3.621094 C 1.25 3.136719 1.59375 2.664062 2.191406 2.664062 L 4.152344 2.664062 C 4.746094 2.664062 5.078125 3.09375 5.078125 3.648438 L 5.078125 11.511719 C 5.078125 12.203125 4.636719 12.589844 4.042969 12.589844 C 3.449219 12.589844 3.003906 12.203125 3.003906 11.511719 Z M 6.324219 7.585938 C 6.324219 5.332031 7.195312 2.5 9.988281 2.5 C 12.777344 2.5 13.652344 5.332031 13.652344 7.585938 C 13.652344 9.839844 12.777344 12.671875 9.988281 12.671875 C 7.195312 12.671875 6.324219 9.839844 6.324219 7.585938 Z M 11.496094 7.585938 C 11.496094 6.535156 11.398438 4.378906 9.988281 4.378906 C 8.578125 4.378906 8.480469 6.535156 8.480469 7.585938 C 8.480469 8.566406 8.578125 10.792969 9.988281 10.792969 C 11.398438 10.792969 11.496094 8.566406 11.496094 7.585938 Z M 11.496094 7.585938 "/>
</g>
</svg>
