<?xml version="1.0" encoding="UTF-8"?>
<svg xmlns="http://www.w3.org/2000/svg" xmlns:xlink="http://www.w3.org/1999/xlink" width="15pt" height="15pt" viewBox="0 0 15 15" version="1.1">
<g id="surface1">
<path style=" stroke:none;fill-rule:nonzero;fill:rgb(19.215686%,21.568627%,23.921569%);fill-opacity:1;" d="M 14.167969 1.25 L 5.199219 1.25 L 5.199219 0.46875 C 5.199219 0.0351562 4.890625 -0.128906 4.511719 0.109375 L 0.289062 2.773438 C -0.0898438 3.007812 -0.0976562 3.40625 0.273438 3.65625 L 4.527344 6.546875 C 4.894531 6.796875 5.199219 6.644531 5.199219 6.207031 L 5.199219 5.417969 L 14.167969 5.417969 C 14.625 5.417969 15 5.042969 15 4.582031 L 15 2.082031 C 15 1.625 14.625 1.25 14.167969 1.25 Z M 0.0117188 10.910156 C 0.0117188 10.605469 0.21875 10.4375 0.507812 10.4375 L 1.722656 10.4375 C 2.378906 10.4375 2.90625 10.878906 2.90625 11.546875 C 2.90625 11.988281 2.726562 12.285156 2.320312 12.476562 L 2.320312 12.488281 C 2.859375 12.5625 3.28125 13.011719 3.28125 13.5625 C 3.28125 14.453125 2.6875 14.929688 1.816406 14.929688 L 0.515625 14.929688 C 0.226562 14.929688 0.0117188 14.75 0.0117188 14.453125 Z M 0.957031 12.214844 L 1.449219 12.214844 C 1.757812 12.214844 1.960938 12.035156 1.960938 11.71875 C 1.960938 11.421875 1.726562 11.269531 1.449219 11.269531 L 0.957031 11.269531 Z M 0.957031 14.097656 L 1.703125 14.097656 C 2.042969 14.097656 2.296875 13.902344 2.296875 13.546875 C 2.296875 13.253906 2.066406 13.050781 1.625 13.050781 L 0.957031 13.050781 Z M 4.796875 10.882812 C 4.90625 10.59375 5.152344 10.359375 5.472656 10.359375 C 5.808594 10.359375 6.042969 10.582031 6.148438 10.882812 L 7.386719 14.320312 C 7.425781 14.417969 7.4375 14.507812 7.4375 14.550781 C 7.4375 14.796875 7.234375 14.96875 7 14.96875 C 6.734375 14.96875 6.601562 14.832031 6.539062 14.640625 L 6.351562 14.046875 L 4.597656 14.046875 L 4.40625 14.632812 C 4.34375 14.832031 4.210938 14.96875 3.953125 14.96875 C 3.699219 14.96875 3.484375 14.78125 3.484375 14.527344 C 3.484375 14.425781 3.515625 14.351562 3.527344 14.320312 Z M 4.867188 13.175781 L 6.066406 13.175781 L 5.480469 11.34375 L 5.46875 11.34375 Z M 9.609375 10.359375 C 10.070312 10.359375 10.964844 10.511719 10.964844 11.066406 C 10.964844 11.292969 10.808594 11.492188 10.574219 11.492188 C 10.316406 11.492188 10.136719 11.269531 9.609375 11.269531 C 8.824219 11.269531 8.421875 11.933594 8.421875 12.703125 C 8.421875 13.453125 8.832031 14.097656 9.609375 14.097656 C 10.136719 14.097656 10.351562 13.832031 10.613281 13.832031 C 10.894531 13.832031 11.027344 14.117188 11.027344 14.261719 C 11.027344 14.867188 10.074219 15.007812 9.609375 15.007812 C 8.328125 15.007812 7.4375 13.992188 7.4375 12.683594 C 7.4375 11.371094 8.320312 10.359375 9.609375 10.359375 Z M 11.472656 10.867188 C 11.472656 10.605469 11.660156 10.398438 11.945312 10.398438 C 12.214844 10.398438 12.417969 10.574219 12.417969 10.867188 L 12.417969 12.230469 L 13.972656 10.574219 C 14.042969 10.5 14.160156 10.398438 14.339844 10.398438 C 14.578125 10.398438 14.804688 10.582031 14.804688 10.851562 C 14.804688 11.015625 14.703125 11.148438 14.496094 11.359375 L 13.304688 12.53125 L 14.761719 14.054688 C 14.914062 14.203125 15.027344 14.34375 15.027344 14.535156 C 15.027344 14.828125 14.792969 14.96875 14.535156 14.96875 C 14.351562 14.96875 14.230469 14.859375 14.054688 14.671875 L 12.417969 12.902344 L 12.417969 14.515625 C 12.417969 14.761719 12.230469 14.96875 11.945312 14.96875 C 11.675781 14.96875 11.472656 14.792969 11.472656 14.515625 Z M 11.472656 10.867188 "/>
</g>
</svg>
