<?xml version="1.0" encoding="UTF-8"?>
<svg xmlns="http://www.w3.org/2000/svg" xmlns:xlink="http://www.w3.org/1999/xlink" width="15pt" height="15pt" viewBox="0 0 15 15" version="1.1">
<g id="surface1">
<path style=" stroke:none;fill-rule:nonzero;fill:rgb(75.686275%,41.176471%,30.980392%);fill-opacity:1;" d="M 13.589844 1.421875 C 11.796875 -0.371094 8.886719 -0.371094 7.09375 1.421875 C 5.683594 2.835938 5.386719 4.9375 6.203125 6.644531 L 4.570312 8.277344 C 4.304688 8.542969 4.21875 8.917969 4.308594 9.257812 L 3.488281 10.082031 C 3.289062 9.882812 2.964844 9.882812 2.765625 10.082031 L 2.042969 10.804688 C 1.84375 11.003906 1.84375 11.324219 2.042969 11.523438 L 1.683594 11.882812 C 1.484375 11.683594 1.160156 11.683594 0.960938 11.882812 L 0.601562 12.246094 C 0.402344 12.445312 0.402344 12.769531 0.601562 12.96875 C 0.609375 12.972656 0.617188 12.976562 0.621094 12.980469 C 0.292969 13.476562 0.34375 14.152344 0.78125 14.589844 C 1.28125 15.089844 2.085938 15.089844 2.585938 14.589844 L 8.367188 8.808594 C 10.074219 9.625 12.175781 9.328125 13.589844 7.914062 C 15.382812 6.125 15.382812 3.214844 13.589844 1.421875 Z M 12.867188 3.585938 C 12.46875 3.984375 11.824219 3.984375 11.425781 3.585938 C 11.027344 3.1875 11.027344 2.542969 11.425781 2.144531 C 11.824219 1.746094 12.46875 1.746094 12.867188 2.144531 C 13.265625 2.542969 13.265625 3.1875 12.867188 3.585938 Z M 12.867188 3.585938 "/>
</g>
</svg>
