<?xml version="1.0" encoding="UTF-8"?>
<svg xmlns="http://www.w3.org/2000/svg" xmlns:xlink="http://www.w3.org/1999/xlink" width="15pt" height="15pt" viewBox="0 0 15 15" version="1.1">
<g id="surface1">
<path style=" stroke:none;fill-rule:nonzero;fill:rgb(19.215686%,21.568627%,23.921569%);fill-opacity:1;" d="M 14.167969 1.25 L 5.199219 1.25 L 5.199219 0.46875 C 5.199219 0.0351562 4.890625 -0.128906 4.511719 0.109375 L 0.289062 2.773438 C -0.0898438 3.007812 -0.0976562 3.40625 0.273438 3.65625 L 4.527344 6.546875 C 4.894531 6.796875 5.199219 6.644531 5.199219 6.207031 L 5.199219 5.417969 L 14.167969 5.417969 C 14.625 5.417969 15 5.042969 15 4.582031 L 15 2.082031 C 15 1.625 14.625 1.25 14.167969 1.25 Z M 0.0351562 9.546875 C 0.0351562 9.117188 0.25 8.800781 0.707031 8.800781 L 2.835938 8.800781 C 3.246094 8.800781 3.441406 9.09375 3.441406 9.394531 C 3.441406 9.683594 3.238281 9.984375 2.835938 9.984375 L 1.324219 9.984375 L 1.324219 11.238281 L 2.730469 11.238281 C 3.152344 11.238281 3.359375 11.53125 3.359375 11.832031 C 3.359375 12.121094 3.144531 12.421875 2.730469 12.421875 L 1.324219 12.421875 L 1.324219 13.726562 L 2.910156 13.726562 C 3.324219 13.726562 3.519531 14.019531 3.519531 14.320312 C 3.519531 14.613281 3.316406 14.910156 2.910156 14.910156 L 0.699219 14.910156 C 0.320312 14.910156 0.0351562 14.65625 0.0351562 14.269531 Z M 3.960938 9.417969 C 3.960938 8.992188 4.234375 8.75 4.605469 8.75 C 4.769531 8.75 5.035156 8.878906 5.144531 9.035156 L 7.867188 12.664062 L 7.882812 12.664062 L 7.882812 9.417969 C 7.882812 8.992188 8.15625 8.75 8.527344 8.75 C 8.894531 8.75 9.171875 8.992188 9.171875 9.417969 L 9.171875 14.292969 C 9.171875 14.722656 8.894531 14.964844 8.527344 14.964844 C 8.363281 14.964844 8.105469 14.835938 7.988281 14.679688 L 5.265625 11.09375 L 5.25 11.09375 L 5.25 14.292969 C 5.25 14.722656 4.972656 14.964844 4.605469 14.964844 C 4.238281 14.964844 3.960938 14.722656 3.960938 14.292969 Z M 9.894531 9.460938 C 9.894531 9.066406 10.167969 8.800781 10.554688 8.800781 L 11.980469 8.800781 C 13.902344 8.800781 15 10.035156 15 11.941406 C 15 13.746094 13.832031 14.910156 12.066406 14.910156 L 10.570312 14.910156 C 10.289062 14.910156 9.894531 14.757812 9.894531 14.269531 Z M 11.183594 13.726562 L 12.046875 13.726562 C 13.15625 13.726562 13.660156 12.910156 13.660156 11.882812 C 13.660156 10.78125 13.148438 9.984375 11.960938 9.984375 L 11.183594 9.984375 Z M 11.183594 13.726562 "/>
</g>
</svg>
