<?xml version="1.0" encoding="UTF-8"?>
<svg xmlns="http://www.w3.org/2000/svg" xmlns:xlink="http://www.w3.org/1999/xlink" width="15pt" height="15pt" viewBox="0 0 15 15" version="1.1">
<g id="surface1">
<path style=" stroke:none;fill-rule:nonzero;fill:rgb(100%,67.45098%,20%);fill-opacity:1;" d="M 11.667969 5.417969 C 11.667969 10 13.75 9.582031 13.75 11.667969 C 13.75 11.667969 13.75 12.5 12.917969 12.5 L 2.082031 12.5 C 1.25 12.5 1.25 11.667969 1.25 11.667969 C 1.25 9.582031 3.332031 10 3.332031 5.417969 C 3.332031 3.117188 5.199219 1.25 7.5 1.25 C 9.800781 1.25 11.667969 3.117188 11.667969 5.417969 Z M 11.667969 5.417969 "/>
<path style=" stroke:none;fill-rule:nonzero;fill:rgb(100%,67.45098%,20%);fill-opacity:1;" d="M 8.75 1.25 C 8.75 1.941406 8.191406 2.5 7.5 2.5 C 6.808594 2.5 6.25 1.941406 6.25 1.25 C 6.25 0.558594 6.808594 0 7.5 0 C 8.191406 0 8.75 0.558594 8.75 1.25 Z M 8.75 1.25 "/>
<path style=" stroke:none;fill-rule:nonzero;fill:rgb(100%,67.45098%,20%);fill-opacity:1;" d="M 7.5 15 C 8.421875 15 9.167969 14.253906 9.167969 13.332031 L 5.832031 13.332031 C 5.832031 14.253906 6.578125 15 7.5 15 Z M 7.5 15 "/>
<path style=" stroke:none;fill-rule:nonzero;fill:rgb(86.666667%,18.039216%,26.666667%);fill-opacity:1;" d="M 12.917969 13.75 L 1.664062 2.5 C 1.4375 2.269531 1.4375 1.898438 1.664062 1.667969 L 1.667969 1.664062 C 1.898438 1.4375 2.269531 1.4375 2.5 1.664062 L 13.75 12.917969 C 13.980469 13.148438 13.980469 13.519531 13.75 13.75 C 13.519531 13.980469 13.148438 13.980469 12.917969 13.75 Z M 12.917969 13.75 "/>
</g>
</svg>
