<?xml version="1.0" encoding="UTF-8"?>
<svg xmlns="http://www.w3.org/2000/svg" xmlns:xlink="http://www.w3.org/1999/xlink" width="15pt" height="15pt" viewBox="0 0 15 15" version="1.1">
<g id="surface1">
<path style=" stroke:none;fill-rule:nonzero;fill:rgb(23.137255%,53.333333%,76.470588%);fill-opacity:1;" d="M 15 13.332031 C 15 14.253906 14.253906 15 13.332031 15 L 1.667969 15 C 0.746094 15 0 14.253906 0 13.332031 L 0 1.667969 C 0 0.746094 0.746094 0 1.667969 0 L 13.332031 0 C 14.253906 0 15 0.746094 15 1.667969 Z M 15 13.332031 "/>
<path style=" stroke:none;fill-rule:nonzero;fill:rgb(100%,100%,100%);fill-opacity:1;" d="M 3.335938 2.007812 C 3.46875 1.644531 3.777344 1.351562 4.183594 1.351562 C 4.601562 1.351562 4.894531 1.628906 5.027344 2.007812 L 6.582031 6.316406 C 6.628906 6.441406 6.644531 6.554688 6.644531 6.609375 C 6.644531 6.917969 6.390625 7.128906 6.097656 7.128906 C 5.765625 7.128906 5.597656 6.957031 5.519531 6.71875 L 5.28125 5.972656 L 3.082031 5.972656 L 2.84375 6.710938 C 2.765625 6.957031 2.597656 7.128906 2.273438 7.128906 C 1.957031 7.128906 1.6875 6.894531 1.6875 6.578125 C 1.6875 6.449219 1.726562 6.355469 1.742188 6.316406 Z M 3.421875 4.882812 L 4.925781 4.882812 L 4.191406 2.585938 L 4.171875 2.585938 Z M 4.605469 8.019531 C 5.183594 8.019531 6.308594 8.210938 6.308594 8.90625 C 6.308594 9.191406 6.109375 9.4375 5.816406 9.4375 C 5.492188 9.4375 5.269531 9.160156 4.605469 9.160156 C 3.625 9.160156 3.117188 9.992188 3.117188 10.957031 C 3.117188 11.898438 3.632812 12.703125 4.605469 12.703125 C 5.269531 12.703125 5.539062 12.371094 5.863281 12.371094 C 6.21875 12.371094 6.386719 12.730469 6.386719 12.910156 C 6.386719 13.671875 5.191406 13.84375 4.605469 13.84375 C 3 13.84375 1.882812 12.570312 1.882812 10.933594 C 1.882812 9.285156 2.992188 8.019531 4.605469 8.019531 Z M 8.5 2.042969 C 8.5 1.660156 8.761719 1.449219 9.125 1.449219 L 10.644531 1.449219 C 11.46875 1.449219 12.132812 2 12.132812 2.839844 C 12.132812 3.394531 11.902344 3.765625 11.398438 4.003906 L 11.398438 4.019531 C 12.070312 4.113281 12.601562 4.675781 12.601562 5.363281 C 12.601562 6.480469 11.855469 7.082031 10.765625 7.082031 L 9.132812 7.082031 C 8.769531 7.082031 8.5 6.851562 8.5 6.480469 Z M 9.6875 3.679688 L 10.304688 3.679688 C 10.691406 3.679688 10.945312 3.449219 10.945312 3.054688 C 10.945312 2.683594 10.652344 2.492188 10.304688 2.492188 L 9.6875 2.492188 Z M 9.6875 6.039062 L 10.621094 6.039062 C 11.050781 6.039062 11.367188 5.792969 11.367188 5.351562 C 11.367188 4.976562 11.082031 4.722656 10.527344 4.722656 L 9.6875 4.722656 Z M 8.289062 8.722656 C 8.289062 8.359375 8.542969 8.113281 8.902344 8.113281 L 10.214844 8.113281 C 11.988281 8.113281 13 9.253906 13 11.011719 C 13 12.671875 11.925781 13.75 10.292969 13.75 L 8.914062 13.75 C 8.65625 13.75 8.289062 13.609375 8.289062 13.15625 Z M 9.476562 12.65625 L 10.277344 12.65625 C 11.296875 12.65625 11.765625 11.90625 11.765625 10.957031 C 11.765625 9.941406 11.289062 9.207031 10.199219 9.207031 L 9.476562 9.207031 Z M 9.476562 12.65625 "/>
</g>
</svg>
