<?xml version="1.0" encoding="UTF-8"?>
<svg xmlns="http://www.w3.org/2000/svg" xmlns:xlink="http://www.w3.org/1999/xlink" width="15pt" height="15pt" viewBox="0 0 15 15" version="1.1">
<g id="surface1">
<path style=" stroke:none;fill-rule:nonzero;fill:rgb(23.137255%,53.333333%,76.470588%);fill-opacity:1;" d="M 15 13.332031 C 15 14.253906 14.253906 15 13.332031 15 L 1.667969 15 C 0.746094 15 0 14.253906 0 13.332031 L 0 1.667969 C 0 0.746094 0.746094 0 1.667969 0 L 13.332031 0 C 14.253906 0 15 0.746094 15 1.667969 Z M 15 13.332031 "/>
<path style=" stroke:none;fill-rule:nonzero;fill:rgb(100%,100%,100%);fill-opacity:1;" d="M 5.34375 9.304688 C 5.34375 9.597656 5.34375 10.046875 4.796875 10.046875 C 4.464844 10.046875 4.328125 9.867188 4.25 9.566406 C 3.957031 9.914062 3.601562 10.09375 3.164062 10.09375 C 2.097656 10.09375 1.28125 9.183594 1.28125 7.902344 C 1.28125 6.652344 2.121094 5.695312 3.164062 5.695312 C 3.585938 5.695312 3.996094 5.859375 4.25 6.214844 C 4.28125 5.9375 4.519531 5.742188 4.796875 5.742188 C 5.34375 5.742188 5.34375 6.191406 5.34375 6.484375 Z M 3.324219 9.050781 C 3.917969 9.050781 4.203125 8.449219 4.203125 7.902344 C 4.203125 7.355469 3.925781 6.738281 3.324219 6.738281 C 2.699219 6.738281 2.421875 7.355469 2.421875 7.902344 C 2.421875 8.449219 2.707031 9.050781 3.324219 9.050781 Z M 5.992188 4.539062 C 5.992188 4.160156 6.230469 3.90625 6.5625 3.90625 C 6.894531 3.90625 7.132812 4.160156 7.132812 4.539062 L 7.132812 6.089844 C 7.433594 5.828125 7.820312 5.695312 8.214844 5.695312 C 9.441406 5.695312 10.050781 6.839844 10.050781 7.949219 C 10.050781 9.027344 9.324219 10.09375 8.175781 10.09375 C 7.789062 10.09375 7.34375 9.921875 7.132812 9.574219 C 7.058594 9.875 6.878906 10.046875 6.5625 10.046875 C 6.230469 10.046875 5.992188 9.792969 5.992188 9.414062 Z M 8.027344 9.050781 C 8.621094 9.050781 8.914062 8.433594 8.914062 7.902344 C 8.914062 7.363281 8.621094 6.738281 8.027344 6.738281 C 7.417969 6.738281 7.132812 7.308594 7.132812 7.863281 C 7.132812 8.417969 7.402344 9.050781 8.027344 9.050781 Z M 13.371094 6.960938 C 13.085938 6.960938 12.832031 6.738281 12.46875 6.738281 C 11.816406 6.738281 11.507812 7.316406 11.507812 7.902344 C 11.507812 8.464844 11.851562 9.050781 12.46875 9.050781 C 12.753906 9.050781 13.179688 8.8125 13.3125 8.8125 C 13.582031 8.8125 13.804688 9.042969 13.804688 9.3125 C 13.804688 9.898438 12.824219 10.09375 12.410156 10.09375 C 11.183594 10.09375 10.371094 9.089844 10.371094 7.902344 C 10.371094 6.746094 11.210938 5.695312 12.410156 5.695312 C 12.863281 5.695312 13.804688 5.859375 13.804688 6.414062 C 13.804688 6.652344 13.640625 6.960938 13.371094 6.960938 Z M 13.371094 6.960938 "/>
</g>
</svg>
