<?xml version="1.0" encoding="UTF-8"?>
<svg xmlns="http://www.w3.org/2000/svg" xmlns:xlink="http://www.w3.org/1999/xlink" width="15pt" height="15pt" viewBox="0 0 15 15" version="1.1">
<g id="surface1">
<path style=" stroke:none;fill-rule:nonzero;fill:rgb(95.686275%,56.470588%,4.705882%);fill-opacity:1;" d="M 14.582031 7.917969 C 14.582031 7.058594 14.429688 6.234375 14.148438 5.472656 C 13.957031 7.71875 12.761719 8.871094 11.511719 8.332031 C 10.339844 7.828125 11.128906 5.867188 11.1875 4.933594 C 11.285156 3.34375 11.183594 1.527344 8.296875 0.015625 C 9.496094 2.308594 8.4375 3.734375 7.328125 3.820312 C 6.09375 3.914062 4.964844 2.761719 5.382812 0.886719 C 4.03125 1.878906 3.992188 3.554688 4.410156 4.636719 C 4.84375 5.765625 4.390625 6.703125 3.332031 6.804688 C 2.152344 6.921875 1.492188 5.539062 2.097656 3.332031 C 1.050781 4.570312 0.417969 6.167969 0.417969 7.917969 C 0.417969 11.828125 3.589844 15 7.5 15 C 11.410156 15 14.582031 11.828125 14.582031 7.917969 Z M 14.582031 7.917969 "/>
<path style=" stroke:none;fill-rule:nonzero;fill:rgb(100%,80%,30.196078%);fill-opacity:1;" d="M 11.832031 10 C 11.890625 11.285156 10.765625 11.789062 10.15625 11.546875 C 9.277344 11.195312 9.515625 10.589844 9.289062 9.339844 C 9.0625 8.089844 8.195312 7.222656 6.910156 6.839844 C 7.847656 9.480469 6.390625 10.453125 5.625 10.625 C 4.847656 10.804688 4.0625 10.625 3.972656 8.957031 C 3.0625 9.863281 2.5 11.113281 2.5 12.5 C 2.5 12.652344 2.507812 12.804688 2.523438 12.953125 C 3.800781 14.21875 5.558594 15 7.5 15 C 9.441406 15 11.199219 14.21875 12.476562 12.953125 C 12.492188 12.804688 12.5 12.652344 12.5 12.5 C 12.5 11.589844 12.257812 10.734375 11.832031 10 Z M 11.832031 10 "/>
</g>
</svg>
