<?xml version="1.0" encoding="UTF-8"?>
<svg xmlns="http://www.w3.org/2000/svg" xmlns:xlink="http://www.w3.org/1999/xlink" width="15pt" height="15pt" viewBox="0 0 15 15" version="1.1">
<g id="surface1">
<path style=" stroke:none;fill-rule:nonzero;fill:rgb(95.686275%,56.470588%,4.705882%);fill-opacity:1;" d="M 12.449219 14.117188 C 12.933594 14.601562 13.707031 14.625 14.167969 14.167969 C 14.625 13.707031 14.601562 12.933594 14.117188 12.449219 L 5.050781 3.382812 C 4.566406 2.898438 3.792969 2.875 3.332031 3.332031 C 2.875 3.792969 2.898438 4.566406 3.382812 5.050781 Z M 12.449219 14.117188 "/>
<path style=" stroke:none;fill-rule:nonzero;fill:rgb(40%,45.882353%,49.803922%);fill-opacity:1;" d="M 9.167969 1.25 C 9.167969 1.25 6.667969 0 4.582031 2.082031 L 1.667969 5 C 1.667969 5 1.25 4.582031 0.832031 5 L 0.417969 5.417969 C 0.417969 5.417969 0 5.832031 0.417969 6.25 L 2.082031 7.917969 C 2.082031 7.917969 2.5 8.332031 2.917969 7.917969 L 3.332031 7.5 C 3.332031 7.5 3.75 7.082031 3.332031 6.667969 L 3.300781 6.632812 C 3.621094 6.324219 4.101562 6.007812 4.582031 6.25 L 6.25 4.582031 C 6.25 4.582031 5.832031 3.332031 6.667969 2.5 C 7.5 1.667969 7.917969 1.667969 8.75 1.667969 C 9.582031 1.667969 9.167969 1.25 9.167969 1.25 Z M 9.167969 1.25 "/>
</g>
</svg>
