<?xml version="1.0" encoding="UTF-8"?>
<svg xmlns="http://www.w3.org/2000/svg" xmlns:xlink="http://www.w3.org/1999/xlink" width="15pt" height="15pt" viewBox="0 0 15 15" version="1.1">
<g id="surface1">
<path style=" stroke:none;fill-rule:nonzero;fill:rgb(53.333333%,60%,65.098039%);fill-opacity:1;" d="M 14.730469 12.769531 L 4.167969 2.207031 L 2.207031 4.167969 L 12.769531 14.730469 C 12.796875 14.757812 13.023438 14.976562 13.347656 14.976562 C 13.546875 14.976562 13.738281 14.890625 13.898438 14.730469 L 14.730469 13.898438 C 14.957031 13.671875 15.144531 13.183594 14.730469 12.769531 Z M 14.730469 12.769531 "/>
<path style=" stroke:none;fill-rule:nonzero;fill:rgb(40%,45.882353%,49.803922%);fill-opacity:1;" d="M 12.5 14.582031 C 12.457031 14.582031 12.410156 14.578125 12.367188 14.5625 C 12.152344 14.488281 12.03125 14.253906 12.105469 14.035156 L 12.9375 11.535156 C 13.011719 11.316406 13.246094 11.199219 13.464844 11.269531 C 13.683594 11.34375 13.800781 11.578125 13.730469 11.796875 L 12.894531 14.296875 C 12.835938 14.472656 12.675781 14.582031 12.5 14.582031 Z M 11.25 13.332031 C 11.207031 13.332031 11.160156 13.328125 11.117188 13.3125 C 10.902344 13.238281 10.78125 13.003906 10.855469 12.785156 L 11.6875 10.285156 C 11.761719 10.066406 11.996094 9.949219 12.214844 10.019531 C 12.433594 10.09375 12.550781 10.328125 12.480469 10.546875 L 11.644531 13.046875 C 11.585938 13.222656 11.425781 13.332031 11.25 13.332031 Z M 10 12.082031 C 9.957031 12.082031 9.910156 12.078125 9.867188 12.0625 C 9.652344 11.988281 9.53125 11.753906 9.605469 11.535156 L 10.4375 9.035156 C 10.511719 8.816406 10.746094 8.699219 10.964844 8.769531 C 11.183594 8.84375 11.300781 9.078125 11.230469 9.296875 L 10.394531 11.796875 C 10.335938 11.972656 10.175781 12.082031 10 12.082031 Z M 8.75 10.832031 C 8.707031 10.832031 8.660156 10.828125 8.617188 10.8125 C 8.402344 10.738281 8.28125 10.503906 8.355469 10.285156 L 9.1875 7.785156 C 9.261719 7.566406 9.496094 7.449219 9.714844 7.519531 C 9.933594 7.59375 10.050781 7.828125 9.980469 8.046875 L 9.144531 10.546875 C 9.085938 10.722656 8.925781 10.832031 8.75 10.832031 Z M 6.667969 8.75 C 6.625 8.75 6.578125 8.742188 6.535156 8.726562 C 6.316406 8.65625 6.199219 8.421875 6.273438 8.203125 L 7.105469 5.703125 C 7.179688 5.484375 7.414062 5.363281 7.632812 5.4375 C 7.851562 5.511719 7.96875 5.746094 7.894531 5.964844 L 7.0625 8.464844 C 7.003906 8.640625 6.839844 8.75 6.667969 8.75 Z M 5.417969 7.5 C 5.375 7.5 5.328125 7.492188 5.285156 7.476562 C 5.066406 7.40625 4.949219 7.167969 5.023438 6.953125 L 5.855469 4.453125 C 5.925781 4.234375 6.164062 4.113281 6.382812 4.1875 C 6.601562 4.261719 6.71875 4.496094 6.644531 4.714844 L 5.8125 7.214844 C 5.753906 7.390625 5.589844 7.5 5.417969 7.5 Z M 4.167969 6.25 C 4.125 6.25 4.078125 6.242188 4.035156 6.226562 C 3.816406 6.15625 3.699219 5.917969 3.773438 5.703125 L 4.605469 3.203125 C 4.679688 2.984375 4.914062 2.863281 5.132812 2.9375 C 5.351562 3.011719 5.46875 3.246094 5.394531 3.464844 L 4.5625 5.964844 C 4.503906 6.140625 4.339844 6.25 4.167969 6.25 Z M 4.167969 6.25 "/>
<path style=" stroke:none;fill-rule:nonzero;fill:rgb(80%,83.921569%,86.666667%);fill-opacity:1;" d="M 5.417969 10.417969 C 5.417969 10.417969 5 10 5.417969 9.582031 L 9.582031 5.417969 C 9.582031 5.417969 10 5 10.417969 5.417969 L 11.667969 6.667969 C 11.667969 6.667969 12.082031 7.082031 11.667969 7.5 L 7.5 11.667969 C 7.5 11.667969 7.082031 12.082031 6.667969 11.667969 Z M 5.417969 10.417969 "/>
<path style=" stroke:none;fill-rule:nonzero;fill:rgb(53.333333%,60%,65.098039%);fill-opacity:1;" d="M 5.417969 9.582031 C 5 10 5.417969 10.417969 5.417969 10.417969 L 6.667969 11.667969 C 7.082031 12.082031 7.5 11.667969 7.5 11.667969 L 8.332031 10.832031 L 6.25 8.75 Z M 5.417969 9.582031 "/>
<path style=" stroke:none;fill-rule:nonzero;fill:rgb(88.235294%,90.980392%,92.941176%);fill-opacity:1;" d="M 11.667969 7.5 C 12.082031 7.082031 11.667969 6.667969 11.667969 6.667969 L 10.417969 5.417969 C 10 5 9.582031 5.417969 9.582031 5.417969 L 8.75 6.25 L 10.832031 8.332031 Z M 11.667969 7.5 "/>
<path style=" stroke:none;fill-rule:nonzero;fill:rgb(80%,83.921569%,86.666667%);fill-opacity:1;" d="M 0.417969 5.417969 C 0.417969 5.417969 0 5 0.417969 4.582031 L 4.582031 0.417969 C 4.582031 0.417969 5 0 5.417969 0.417969 L 6.667969 1.667969 C 6.667969 1.667969 7.082031 2.082031 6.667969 2.5 L 2.5 6.667969 C 2.5 6.667969 2.082031 7.082031 1.667969 6.667969 Z M 0.417969 5.417969 "/>
<path style=" stroke:none;fill-rule:nonzero;fill:rgb(53.333333%,60%,65.098039%);fill-opacity:1;" d="M 0.417969 4.582031 C 0 5 0.417969 5.417969 0.417969 5.417969 L 1.667969 6.667969 C 2.082031 7.082031 2.5 6.667969 2.5 6.667969 L 3.332031 5.832031 L 1.25 3.75 Z M 0.417969 4.582031 "/>
<path style=" stroke:none;fill-rule:nonzero;fill:rgb(88.235294%,90.980392%,92.941176%);fill-opacity:1;" d="M 6.667969 2.5 C 7.082031 2.082031 6.667969 1.667969 6.667969 1.667969 L 5.417969 0.417969 C 5 0 4.582031 0.417969 4.582031 0.417969 L 3.75 1.25 L 5.832031 3.332031 Z M 6.667969 2.5 "/>
</g>
</svg>
