<?xml version="1.0" encoding="UTF-8"?>
<svg xmlns="http://www.w3.org/2000/svg" xmlns:xlink="http://www.w3.org/1999/xlink" width="15pt" height="15pt" viewBox="0 0 15 15" version="1.1">
<g id="surface1">
<path style=" stroke:none;fill-rule:nonzero;fill:rgb(23.137255%,53.333333%,76.470588%);fill-opacity:1;" d="M 15 13.332031 C 15 14.253906 14.253906 15 13.332031 15 L 1.667969 15 C 0.746094 15 0 14.253906 0 13.332031 L 0 1.667969 C 0 0.746094 0.746094 0 1.667969 0 L 13.332031 0 C 14.253906 0 15 0.746094 15 1.667969 Z M 15 13.332031 "/>
<path style=" stroke:none;fill-rule:nonzero;fill:rgb(100%,100%,100%);fill-opacity:1;" d="M 4.003906 2.539062 L 3.539062 2.539062 C 3.160156 2.539062 3 2.261719 3 1.992188 C 3 1.714844 3.199219 1.449219 3.539062 1.449219 L 4.664062 1.449219 C 5.003906 1.449219 5.191406 1.691406 5.191406 2.007812 L 5.191406 6.515625 C 5.191406 6.910156 4.941406 7.128906 4.597656 7.128906 C 4.257812 7.128906 4.003906 6.910156 4.003906 6.515625 Z M 6.140625 9.46875 C 6.140625 9.964844 5.929688 10.402344 5.492188 10.679688 C 6.0625 10.941406 6.460938 11.46875 6.460938 12.09375 C 6.460938 13.046875 5.589844 13.84375 4.464844 13.84375 C 3.292969 13.84375 2.566406 12.980469 2.566406 12.355469 C 2.566406 12.046875 2.890625 11.828125 3.175781 11.828125 C 3.710938 11.828125 3.585938 12.753906 4.480469 12.753906 C 4.890625 12.753906 5.222656 12.4375 5.222656 12.015625 C 5.222656 10.910156 3.878906 11.722656 3.878906 10.789062 C 3.878906 9.957031 5.003906 10.519531 5.003906 9.640625 C 5.003906 9.339844 4.789062 9.113281 4.433594 9.113281 C 3.679688 9.113281 3.785156 9.886719 3.246094 9.886719 C 2.921875 9.886719 2.730469 9.59375 2.730469 9.300781 C 2.730469 8.683594 3.578125 8.019531 4.457031 8.019531 C 5.597656 8.019531 6.140625 8.851562 6.140625 9.46875 Z M 11.714844 6.039062 C 12.0625 6.039062 12.332031 6.195312 12.332031 6.5625 C 12.332031 6.925781 12.0625 7.082031 11.761719 7.082031 L 9.117188 7.082031 C 8.769531 7.082031 8.5 6.925781 8.5 6.5625 C 8.5 6.394531 8.601562 6.253906 8.683594 6.15625 C 9.339844 5.375 10.050781 4.660156 10.652344 3.789062 C 10.796875 3.585938 10.929688 3.339844 10.929688 3.054688 C 10.929688 2.730469 10.683594 2.445312 10.359375 2.445312 C 9.449219 2.445312 9.886719 3.726562 9.125 3.726562 C 8.746094 3.726562 8.546875 3.457031 8.546875 3.148438 C 8.546875 2.152344 9.433594 1.351562 10.410156 1.351562 C 11.382812 1.351562 12.164062 1.992188 12.164062 3 C 12.164062 4.097656 10.9375 5.191406 10.265625 6.039062 Z M 8.824219 12.507812 C 8.4375 12.507812 8.269531 12.246094 8.269531 12.039062 C 8.269531 11.867188 8.335938 11.769531 8.382812 11.691406 L 10.15625 8.476562 C 10.328125 8.160156 10.550781 8.019531 10.964844 8.019531 C 11.421875 8.019531 11.871094 8.3125 11.871094 9.03125 L 11.871094 11.460938 L 12.007812 11.460938 C 12.316406 11.460938 12.5625 11.667969 12.5625 11.984375 C 12.5625 12.300781 12.316406 12.507812 12.007812 12.507812 L 11.871094 12.507812 L 11.871094 13.179688 C 11.871094 13.597656 11.707031 13.796875 11.304688 13.796875 C 10.898438 13.796875 10.734375 13.597656 10.734375 13.179688 L 10.734375 12.507812 Z M 10.734375 9.253906 L 10.71875 9.253906 L 9.648438 11.460938 L 10.734375 11.460938 Z M 10.734375 9.253906 "/>
</g>
</svg>
