<?xml version="1.0" encoding="UTF-8"?>
<svg xmlns="http://www.w3.org/2000/svg" xmlns:xlink="http://www.w3.org/1999/xlink" width="15pt" height="15pt" viewBox="0 0 15 15" version="1.1">
<g id="surface1">
<path style=" stroke:none;fill-rule:nonzero;fill:rgb(100%,67.45098%,20%);fill-opacity:1;" d="M 6.921875 7.328125 L 9.121094 7.328125 L 9.121094 7.769531 L 6.921875 7.769531 Z M 6.921875 7.328125 "/>
<path style=" stroke:none;fill-rule:nonzero;fill:rgb(100%,67.45098%,20%);fill-opacity:1;" d="M 6.480469 6.449219 C 6.425781 6.449219 6.367188 6.472656 6.324219 6.515625 C 6.238281 6.597656 6.238281 6.738281 6.324219 6.824219 C 6.679688 7.175781 6.679688 7.921875 6.324219 8.273438 C 6.238281 8.359375 6.238281 8.496094 6.324219 8.582031 C 6.410156 8.667969 6.550781 8.667969 6.636719 8.582031 C 7.160156 8.0625 7.160156 7.035156 6.636719 6.515625 C 6.59375 6.472656 6.539062 6.449219 6.480469 6.449219 Z M 6.480469 6.449219 "/>
<path style=" stroke:none;fill-rule:nonzero;fill:rgb(46.666667%,69.803922%,33.333333%);fill-opacity:1;" d="M 9.953125 9.785156 L 6.378906 9.785156 C 5.601562 9.785156 5.023438 9.378906 4.792969 8.671875 L 3.792969 5.921875 L 4.671875 5.601562 L 5.679688 8.367188 C 5.785156 8.695312 6.011719 8.847656 6.378906 8.847656 L 9.953125 8.847656 Z M 9.953125 9.785156 "/>
<path style=" stroke:none;fill-rule:nonzero;fill:rgb(24.313725%,44.705882%,11.372549%);fill-opacity:1;" d="M 14.667969 4.675781 L 13.851562 4.929688 L 13.308594 3.175781 L 14.125 2.921875 C 14.367188 2.847656 14.628906 2.984375 14.703125 3.226562 L 14.972656 4.09375 C 15.050781 4.339844 14.914062 4.601562 14.667969 4.675781 Z M 14.667969 4.675781 "/>
<path style=" stroke:none;fill-rule:nonzero;fill:rgb(91.372549%,37.254902%,15.686275%);fill-opacity:1;" d="M 0.703125 2.894531 L 1.4375 2.894531 L 1.4375 4.988281 L 0.703125 4.988281 C 0.339844 4.988281 0.0429688 4.691406 0.0429688 4.328125 L 0.0429688 3.554688 C 0.0429688 3.191406 0.339844 2.894531 0.703125 2.894531 Z M 0.703125 2.894531 "/>
<path style=" stroke:none;fill-rule:nonzero;fill:rgb(24.313725%,44.705882%,11.372549%);fill-opacity:1;" d="M 2.789062 2.039062 C 2.789062 2.421875 3.101562 2.734375 3.484375 2.734375 C 3.871094 2.734375 4.621094 2.421875 4.621094 2.039062 C 4.621094 1.652344 3.871094 1.339844 3.484375 1.339844 C 3.101562 1.339844 2.789062 1.652344 2.789062 2.039062 Z M 2.789062 2.039062 "/>
<path style=" stroke:none;fill-rule:nonzero;fill:rgb(36.078431%,56.862745%,23.137255%);fill-opacity:1;" d="M 2.027344 5.378906 C 2.027344 5.863281 2.421875 6.257812 3.136719 6.257812 L 9.167969 6.257812 L 9.167969 5.378906 Z M 2.027344 5.378906 "/>
<path style=" stroke:none;fill-rule:nonzero;fill:rgb(46.666667%,69.803922%,33.333333%);fill-opacity:1;" d="M 14.699219 12.242188 C 14.699219 12.242188 13.875 9.679688 13.5625 8.589844 C 13.246094 7.5 13.140625 6.667969 14.011719 6.027344 C 14.484375 5.679688 14.605469 5.257812 14.511719 4.820312 C 14.355469 4.089844 13.976562 3.121094 13.796875 2.769531 C 13.714844 2.613281 13.59375 2.453125 13.347656 2.382812 C 13.347656 2.382812 11.71875 1.65625 7 1.65625 C 4.359375 1.65625 1.074219 2.054688 1.074219 3.019531 L 1.074219 4.523438 C 1.074219 5.035156 1.492188 5.449219 2.003906 5.449219 L 7.710938 5.449219 C 8.015625 5.449219 8.285156 5.648438 8.375 5.9375 L 10.1875 11.683594 C 10.367188 12.269531 9.804688 12.363281 9.804688 12.84375 C 9.804688 13.140625 10.050781 13.386719 10.347656 13.386719 L 13.859375 13.386719 C 14.453125 13.386719 14.878906 12.808594 14.699219 12.242188 Z M 14.699219 12.242188 "/>
<path style=" stroke:none;fill-rule:nonzero;fill:rgb(65.098039%,82.745098%,53.333333%);fill-opacity:1;" d="M 11.457031 8.753906 C 11.273438 8.753906 11.101562 8.628906 11.054688 8.441406 C 10.488281 6.257812 9.351562 4.925781 7.574219 4.363281 C 5.042969 3.5625 1.992188 4.230469 1.964844 4.234375 C 1.738281 4.285156 1.515625 4.144531 1.464844 3.917969 C 1.414062 3.695312 1.554688 3.472656 1.78125 3.421875 C 1.914062 3.390625 5.078125 2.699219 7.824219 3.570312 C 9.867188 4.214844 11.226562 5.785156 11.863281 8.230469 C 11.917969 8.453125 11.785156 8.683594 11.5625 8.738281 C 11.527344 8.75 11.492188 8.753906 11.457031 8.753906 Z M 11.457031 8.753906 "/>
<path style=" stroke:none;fill-rule:nonzero;fill:rgb(96.078431%,97.254902%,98.039216%);fill-opacity:1;" d="M 13.539062 4.445312 C 13.539062 5.207031 12.921875 5.824219 12.160156 5.824219 C 11.398438 5.824219 10.785156 5.207031 10.785156 4.445312 C 10.785156 3.683594 11.398438 3.070312 12.160156 3.070312 C 12.921875 3.070312 13.539062 3.683594 13.539062 4.445312 Z M 13.539062 4.445312 "/>
<path style=" stroke:none;fill-rule:nonzero;fill:rgb(100%,80%,30.196078%);fill-opacity:1;" d="M 13.117188 4.445312 C 13.117188 4.972656 12.6875 5.402344 12.160156 5.402344 C 11.632812 5.402344 11.207031 4.972656 11.207031 4.445312 C 11.207031 3.917969 11.632812 3.492188 12.160156 3.492188 C 12.6875 3.492188 13.117188 3.917969 13.117188 4.445312 Z M 13.117188 4.445312 "/>
</g>
</svg>
