<?xml version="1.0" encoding="UTF-8"?>
<svg xmlns="http://www.w3.org/2000/svg" xmlns:xlink="http://www.w3.org/1999/xlink" width="15pt" height="15pt" viewBox="0 0 15 15" version="1.1">
<g id="surface1">
<path style=" stroke:none;fill-rule:nonzero;fill:rgb(40%,45.882353%,49.803922%);fill-opacity:1;" d="M 8.242188 8.894531 L 5.597656 6.25 L 5.4375 8.078125 L 6.417969 9.054688 Z M 8.242188 8.894531 "/>
<path style=" stroke:none;fill-rule:nonzero;fill:rgb(40%,45.882353%,49.803922%);fill-opacity:1;" d="M 6.417969 9.265625 C 6.363281 9.265625 6.308594 9.242188 6.269531 9.203125 L 5.289062 8.222656 C 5.246094 8.179688 5.222656 8.121094 5.230469 8.058594 L 5.390625 6.234375 C 5.398438 6.152344 5.453125 6.082031 5.527344 6.054688 C 5.601562 6.027344 5.6875 6.046875 5.746094 6.105469 L 8.386719 8.746094 C 8.445312 8.804688 8.464844 8.890625 8.4375 8.964844 C 8.410156 9.039062 8.339844 9.09375 8.257812 9.101562 L 6.433594 9.261719 Z M 5.652344 7.996094 L 6.496094 8.839844 L 7.777344 8.726562 L 5.765625 6.714844 Z M 5.652344 7.996094 "/>
<path style=" stroke:none;fill-rule:nonzero;fill:rgb(53.333333%,60%,65.098039%);fill-opacity:1;" d="M 12.917969 13.332031 L 11.667969 13.332031 C 11.667969 11.953125 10.570312 10.832031 9.21875 10.832031 C 7.867188 10.832031 6.769531 11.953125 6.769531 13.332031 L 3.636719 13.332031 C 3.636719 12.875 3.265625 12.5 2.804688 12.5 C 2.34375 12.5 1.972656 12.875 1.972656 13.332031 C 1.511719 13.332031 1.136719 13.707031 1.136719 14.167969 C 1.136719 14.625 1.511719 15 1.972656 15 L 12.917969 15 C 13.375 15 13.75 14.625 13.75 14.167969 C 13.75 13.707031 13.375 13.332031 12.917969 13.332031 Z M 12.917969 13.332031 "/>
<path style=" stroke:none;fill-rule:nonzero;fill:rgb(53.333333%,60%,65.098039%);fill-opacity:1;" d="M 8.332031 4.167969 L 8.332031 5.832031 C 9.945312 5.832031 11.25 7.140625 11.25 8.75 C 11.25 10.359375 9.945312 11.667969 8.332031 11.667969 L 4.796875 11.667969 C 5.640625 12.683594 6.910156 13.332031 8.332031 13.332031 C 10.863281 13.332031 12.917969 11.28125 12.917969 8.75 C 12.917969 6.21875 10.863281 4.167969 8.332031 4.167969 Z M 8.332031 4.167969 "/>
<path style=" stroke:none;fill-rule:nonzero;fill:rgb(40.392157%,45.882353%,49.803922%);fill-opacity:1;" d="M 6.839844 12.671875 C 6.515625 12.996094 5.984375 12.996094 5.660156 12.671875 L 1.535156 8.546875 C 1.210938 8.222656 1.210938 7.695312 1.535156 7.371094 C 1.863281 7.042969 2.390625 7.042969 2.714844 7.371094 L 6.839844 11.496094 C 7.164062 11.820312 7.164062 12.347656 6.839844 12.671875 Z M 3.828125 11.929688 C 4.058594 11.894531 4.265625 12.054688 4.300781 12.28125 C 4.332031 12.511719 4.171875 12.722656 3.945312 12.753906 L 1.46875 13.101562 C 1.242188 13.132812 1.03125 12.972656 1 12.746094 C 0.964844 12.519531 1.125 12.308594 1.351562 12.277344 Z M 3.828125 11.929688 "/>
<path style=" stroke:none;fill-rule:nonzero;fill:rgb(40%,45.882353%,49.803922%);fill-opacity:1;" d="M 11.390625 1.242188 L 13.25 3.101562 L 11.664062 4.6875 L 9.804688 2.828125 Z M 11.390625 1.242188 "/>
<path style=" stroke:none;fill-rule:nonzero;fill:rgb(66.666667%,72.156863%,76.078431%);fill-opacity:1;" d="M 14.183594 2.953125 C 13.835938 3.296875 13.277344 3.296875 12.933594 2.953125 L 11.542969 1.558594 C 11.199219 1.214844 11.199219 0.65625 11.542969 0.3125 C 11.886719 -0.03125 12.445312 -0.03125 12.789062 0.3125 L 14.183594 1.703125 C 14.527344 2.046875 14.527344 2.605469 14.183594 2.953125 Z M 8.117188 9.210938 L 5.28125 6.378906 C 5.121094 6.214844 5.121094 5.949219 5.28125 5.789062 L 9.390625 1.679688 C 9.550781 1.519531 9.816406 1.519531 9.976562 1.679688 L 12.8125 4.515625 C 12.972656 4.675781 12.972656 4.941406 12.8125 5.105469 L 8.703125 9.210938 C 8.542969 9.375 8.277344 9.375 8.117188 9.210938 Z M 8.117188 9.210938 "/>
<path style=" stroke:none;fill-rule:nonzero;fill:rgb(88.235294%,90.980392%,92.941176%);fill-opacity:1;" d="M 5.734375 5.332031 L 6.417969 4.652344 L 9.839844 8.074219 L 9.160156 8.757812 Z M 5.734375 5.332031 "/>
</g>
</svg>
