<?xml version="1.0" encoding="UTF-8"?>
<svg xmlns="http://www.w3.org/2000/svg" xmlns:xlink="http://www.w3.org/1999/xlink" width="15pt" height="15pt" viewBox="0 0 15 15" version="1.1">
<g id="surface1">
<path style=" stroke:none;fill-rule:nonzero;fill:rgb(23.137255%,53.333333%,76.470588%);fill-opacity:1;" d="M 15 13.332031 C 15 14.253906 14.253906 15 13.332031 15 L 1.667969 15 C 0.746094 15 0 14.253906 0 13.332031 L 0 1.667969 C 0 0.746094 0.746094 0 1.667969 0 L 13.332031 0 C 14.253906 0 15 0.746094 15 1.667969 Z M 15 13.332031 "/>
<path style=" stroke:none;fill-rule:nonzero;fill:rgb(100%,100%,100%);fill-opacity:1;" d="M 6.53125 6.386719 C 6.53125 6.679688 6.53125 7.128906 5.984375 7.128906 C 5.652344 7.128906 5.515625 6.949219 5.4375 6.648438 C 5.144531 6.996094 4.789062 7.179688 4.351562 7.179688 C 3.285156 7.179688 2.46875 6.269531 2.46875 4.984375 C 2.46875 3.734375 3.308594 2.777344 4.351562 2.777344 C 4.773438 2.777344 5.183594 2.945312 5.4375 3.300781 C 5.46875 3.023438 5.707031 2.824219 5.984375 2.824219 C 6.53125 2.824219 6.53125 3.277344 6.53125 3.570312 Z M 4.511719 6.132812 C 5.105469 6.132812 5.390625 5.53125 5.390625 4.984375 C 5.390625 4.441406 5.113281 3.824219 4.511719 3.824219 C 3.886719 3.824219 3.609375 4.441406 3.609375 4.984375 C 3.609375 5.53125 3.894531 6.132812 4.511719 6.132812 Z M 5.910156 10.710938 C 5.625 10.710938 5.371094 10.488281 5.007812 10.488281 C 4.359375 10.488281 4.050781 11.066406 4.050781 11.652344 C 4.050781 12.214844 4.390625 12.800781 5.007812 12.800781 C 5.292969 12.800781 5.71875 12.5625 5.855469 12.5625 C 6.121094 12.5625 6.34375 12.792969 6.34375 13.0625 C 6.34375 13.648438 5.363281 13.84375 4.953125 13.84375 C 3.722656 13.84375 2.910156 12.839844 2.910156 11.652344 C 2.910156 10.496094 3.75 9.445312 4.953125 9.445312 C 5.402344 9.445312 6.34375 9.609375 6.34375 10.164062 C 6.34375 10.402344 6.179688 10.710938 5.910156 10.710938 Z M 8.46875 1.621094 C 8.46875 1.242188 8.707031 0.988281 9.039062 0.988281 C 9.371094 0.988281 9.609375 1.242188 9.609375 1.621094 L 9.609375 3.171875 C 9.910156 2.910156 10.296875 2.777344 10.691406 2.777344 C 11.921875 2.777344 12.53125 3.925781 12.53125 5.03125 C 12.53125 6.109375 11.800781 7.179688 10.652344 7.179688 C 10.265625 7.179688 9.824219 7.003906 9.609375 6.65625 C 9.539062 6.957031 9.355469 7.128906 9.039062 7.128906 C 8.707031 7.128906 8.46875 6.878906 8.46875 6.496094 Z M 10.503906 6.132812 C 11.097656 6.132812 11.390625 5.515625 11.390625 4.984375 C 11.390625 4.449219 11.097656 3.824219 10.503906 3.824219 C 9.894531 3.824219 9.609375 4.390625 9.609375 4.945312 C 9.609375 5.5 9.878906 6.132812 10.503906 6.132812 Z M 12.363281 13.164062 C 12.363281 13.542969 12.125 13.796875 11.792969 13.796875 C 11.476562 13.796875 11.296875 13.625 11.222656 13.324219 C 11.011719 13.671875 10.566406 13.84375 10.179688 13.84375 C 9.03125 13.84375 8.304688 12.777344 8.304688 11.699219 C 8.304688 10.59375 8.914062 9.445312 10.140625 9.445312 C 10.535156 9.445312 10.921875 9.578125 11.222656 9.839844 L 11.222656 8.289062 C 11.222656 7.910156 11.460938 7.65625 11.792969 7.65625 C 12.125 7.65625 12.363281 7.910156 12.363281 8.289062 Z M 10.328125 10.488281 C 9.734375 10.488281 9.441406 11.113281 9.441406 11.652344 C 9.441406 12.183594 9.734375 12.800781 10.328125 12.800781 C 10.953125 12.800781 11.222656 12.167969 11.222656 11.613281 C 11.222656 11.058594 10.9375 10.488281 10.328125 10.488281 Z M 10.328125 10.488281 "/>
</g>
</svg>
