<?xml version="1.0" encoding="UTF-8"?>
<svg xmlns="http://www.w3.org/2000/svg" xmlns:xlink="http://www.w3.org/1999/xlink" width="15pt" height="15pt" viewBox="0 0 15 15" version="1.1">
<g id="surface1">
<path style=" stroke:none;fill-rule:nonzero;fill:rgb(40%,45.882353%,49.803922%);fill-opacity:1;" d="M 9.582031 7.082031 L 10 6.667969 C 10 6.667969 10.417969 6.25 10.832031 6.667969 L 11.667969 7.5 C 11.667969 7.5 12.082031 7.917969 11.667969 8.332031 L 11.25 8.75 Z M 9.582031 7.082031 "/>
<path style=" stroke:none;fill-rule:nonzero;fill:rgb(53.333333%,60%,65.098039%);fill-opacity:1;" d="M 14.53125 11.617188 C 15.019531 12.101562 15.019531 12.898438 14.53125 13.382812 L 13.382812 14.53125 C 12.898438 15.019531 12.101562 15.019531 11.617188 14.53125 L 3.800781 6.71875 C 3.3125 6.230469 3.3125 5.433594 3.800781 4.949219 L 4.949219 3.800781 C 5.4375 3.3125 6.230469 3.3125 6.71875 3.800781 Z M 14.53125 11.617188 "/>
<path style=" stroke:none;fill-rule:nonzero;fill:rgb(40%,45.882353%,49.803922%);fill-opacity:1;" d="M 8.699219 4.53125 C 9.183594 5.019531 9.183594 5.816406 8.699219 6.300781 L 6.300781 8.699219 C 5.8125 9.183594 5.019531 9.183594 4.53125 8.699219 L 2.5 6.667969 C 2.5 6.667969 2.082031 6.25 2.5 5.832031 L 5.832031 2.5 C 6.25 2.082031 6.667969 2.5 6.667969 2.5 Z M 8.699219 4.53125 "/>
<path style=" stroke:none;fill-rule:nonzero;fill:rgb(53.333333%,60%,65.098039%);fill-opacity:1;" d="M 2.917969 7.082031 L 7.082031 2.917969 L 7.917969 3.75 L 3.75 7.917969 Z M 2.917969 7.082031 "/>
<path style=" stroke:none;fill-rule:nonzero;fill:rgb(100%,80%,30.196078%);fill-opacity:1;" d="M 4.582031 2.5 C 4.429688 2.5 4.285156 2.414062 4.210938 2.269531 L 3.378906 0.601562 C 3.273438 0.398438 3.359375 0.148438 3.5625 0.0429688 C 3.769531 -0.0585938 4.019531 0.0234375 4.121094 0.230469 L 4.957031 1.898438 C 5.058594 2.101562 4.976562 2.351562 4.769531 2.457031 C 4.710938 2.484375 4.644531 2.5 4.582031 2.5 Z M 2.082031 5 C 2.019531 5 1.957031 4.984375 1.898438 4.957031 L 0.230469 4.121094 C 0.0234375 4.019531 -0.0585938 3.769531 0.0429688 3.5625 C 0.148438 3.359375 0.398438 3.273438 0.601562 3.378906 L 2.269531 4.210938 C 2.476562 4.3125 2.558594 4.5625 2.457031 4.769531 C 2.382812 4.914062 2.234375 5 2.082031 5 Z M 3.332031 3.75 C 3.226562 3.75 3.121094 3.710938 3.039062 3.628906 L 1.371094 1.960938 C 1.210938 1.796875 1.210938 1.535156 1.371094 1.371094 C 1.535156 1.210938 1.796875 1.210938 1.960938 1.371094 L 3.628906 3.039062 C 3.789062 3.203125 3.789062 3.464844 3.628906 3.628906 C 3.546875 3.710938 3.441406 3.75 3.332031 3.75 Z M 3.332031 3.75 "/>
</g>
</svg>
