<?xml version="1.0" encoding="UTF-8"?>
<svg xmlns="http://www.w3.org/2000/svg" xmlns:xlink="http://www.w3.org/1999/xlink" width="15pt" height="15pt" viewBox="0 0 15 15" version="1.1">
<g id="surface1">
<path style=" stroke:none;fill-rule:nonzero;fill:rgb(23.137255%,53.333333%,76.470588%);fill-opacity:1;" d="M 15 13.332031 C 15 14.253906 14.253906 15 13.332031 15 L 1.667969 15 C 0.746094 15 0 14.253906 0 13.332031 L 0 1.667969 C 0 0.746094 0.746094 0 1.667969 0 L 13.332031 0 C 14.253906 0 15 0.746094 15 1.667969 Z M 15 13.332031 "/>
<path style=" stroke:none;fill-rule:nonzero;fill:rgb(100%,100%,100%);fill-opacity:1;" d="M 5.347656 11.566406 L 5.65625 11.210938 C 5.859375 10.972656 6.003906 10.84375 6.257812 10.84375 C 6.484375 10.84375 6.691406 11.042969 6.691406 11.34375 C 6.691406 11.558594 6.507812 11.8125 6.257812 12.097656 L 6.058594 12.308594 L 6.597656 12.917969 C 6.707031 13.046875 6.769531 13.132812 6.769531 13.316406 C 6.769531 13.585938 6.515625 13.84375 6.214844 13.84375 C 6.035156 13.84375 5.914062 13.789062 5.796875 13.664062 L 5.25 13.09375 C 4.734375 13.542969 4.214844 13.84375 3.507812 13.84375 C 2.449219 13.84375 1.570312 13.242188 1.570312 12.136719 C 1.570312 11.351562 2.117188 10.773438 2.765625 10.417969 C 2.457031 10.109375 2.242188 9.792969 2.242188 9.347656 C 2.242188 8.445312 3.089844 8.019531 3.90625 8.019531 C 4.617188 8.019531 5.519531 8.421875 5.519531 9.261719 C 5.519531 9.894531 5.023438 10.386719 4.515625 10.648438 Z M 3.390625 11.066406 C 3.035156 11.296875 2.710938 11.574219 2.710938 12.023438 C 2.710938 12.523438 3.050781 12.800781 3.53125 12.800781 C 3.960938 12.800781 4.238281 12.625 4.539062 12.339844 Z M 3.90625 8.921875 C 3.699219 8.921875 3.429688 9.078125 3.429688 9.316406 C 3.429688 9.554688 3.539062 9.695312 3.847656 9.996094 C 4.085938 9.878906 4.425781 9.664062 4.425781 9.378906 C 4.425781 9.023438 4.109375 8.921875 3.90625 8.921875 Z M 8.222656 9.300781 C 8.222656 8.613281 8.734375 8.019531 9.441406 8.019531 C 10.144531 8.019531 10.660156 8.613281 10.660156 9.300781 C 10.660156 9.988281 10.144531 10.574219 9.441406 10.574219 C 8.734375 10.574219 8.222656 9.992188 8.222656 9.300781 Z M 9.851562 9.300781 C 9.851562 9.046875 9.703125 8.828125 9.441406 8.828125 C 9.179688 8.828125 9.027344 9.046875 9.027344 9.300781 C 9.027344 9.554688 9.179688 9.769531 9.441406 9.769531 C 9.703125 9.769531 9.851562 9.554688 9.851562 9.300781 Z M 11.773438 8.226562 C 11.878906 8.027344 11.957031 7.972656 12.140625 7.972656 C 12.382812 7.972656 12.605469 8.171875 12.605469 8.414062 C 12.605469 8.476562 12.605469 8.535156 12.542969 8.652344 L 9.882812 13.628906 C 9.765625 13.796875 9.714844 13.890625 9.527344 13.890625 C 9.320312 13.890625 9.074219 13.695312 9.074219 13.457031 C 9.074219 13.339844 9.121094 13.226562 9.15625 13.164062 Z M 11.007812 12.570312 C 11.007812 11.882812 11.523438 11.289062 12.226562 11.289062 C 12.929688 11.289062 13.445312 11.882812 13.445312 12.570312 C 13.445312 13.257812 12.929688 13.84375 12.226562 13.84375 C 11.523438 13.84375 11.007812 13.257812 11.007812 12.570312 Z M 12.636719 12.570312 C 12.636719 12.316406 12.488281 12.09375 12.226562 12.09375 C 11.964844 12.09375 11.816406 12.316406 11.816406 12.570312 C 11.816406 12.824219 11.964844 13.039062 12.226562 13.039062 C 12.488281 13.039062 12.636719 12.824219 12.636719 12.570312 Z M 1.25 1.25 L 7.082031 1.25 L 7.082031 2.5 L 1.25 2.5 Z M 7.082031 3.75 L 1.25 3.75 L 1.25 5 L 3.332031 5 L 3.332031 7.082031 L 5 7.082031 L 5 5 L 7.082031 5 Z M 13.332031 2.082031 L 11.25 1.25 L 11.25 4.667969 C 11.027344 4.617188 10.753906 4.582031 10.417969 4.582031 C 9.582031 4.582031 8.75 5.417969 8.75 6.25 C 8.75 6.667969 9.167969 7.082031 10 7.082031 C 11.25 7.082031 12.082031 6.25 12.082031 5.417969 L 12.082031 2.832031 L 13.332031 3.332031 Z M 13.332031 2.082031 "/>
</g>
</svg>
