<?xml version="1.0" encoding="UTF-8"?>
<svg xmlns="http://www.w3.org/2000/svg" xmlns:xlink="http://www.w3.org/1999/xlink" width="15pt" height="15pt" viewBox="0 0 15 15" version="1.1">
<g id="surface1">
<path style=" stroke:none;fill-rule:nonzero;fill:rgb(80%,83.921569%,86.666667%);fill-opacity:1;" d="M 14.949219 14.417969 L 8.25 6.296875 C 8.25 6.296875 5.898438 7.835938 5.042969 10.328125 C 5.042969 10.328125 6.988281 12.535156 9.125 13.753906 C 11.777344 15.273438 13.972656 14.945312 14.832031 14.753906 C 14.984375 14.71875 15.046875 14.539062 14.949219 14.417969 Z M 14.949219 14.417969 "/>
<path style=" stroke:none;fill-rule:nonzero;fill:rgb(66.666667%,72.156863%,76.078431%);fill-opacity:1;" d="M 7.53125 5.417969 L 5.847656 6.902344 C 5.875 6.914062 5.980469 7.089844 5.921875 7.363281 C 5.753906 8.140625 4.941406 9.148438 4.683594 9.488281 C 4.601562 9.589844 4.589844 9.773438 4.691406 9.90625 L 5.042969 10.328125 C 5.804688 8.675781 7.777344 6.707031 8.25 6.296875 Z M 7.53125 5.417969 "/>
<path style=" stroke:none;fill-rule:nonzero;fill:rgb(19.215686%,21.568627%,23.921569%);fill-opacity:1;" d="M 7.53125 5.417969 C 7.53125 5.417969 6.144531 3.660156 5.128906 2.507812 C 4.109375 1.355469 3.421875 0.691406 2.761719 0.265625 C 2.085938 -0.164062 1.367188 0.0859375 0.824219 0.5625 C 0.28125 1.042969 -0.300781 2.117188 0.328125 2.832031 C 0.671875 3.222656 1.488281 2.863281 1.90625 3.339844 C 2.191406 3.660156 2.335938 3.90625 3.351562 4.945312 C 4.917969 6.550781 5.847656 6.902344 5.847656 6.902344 C 5.847656 6.902344 6.371094 6.46875 6.652344 6.214844 C 6.9375 5.964844 7.53125 5.417969 7.53125 5.417969 Z M 7.53125 5.417969 "/>
<path style=" stroke:none;fill-rule:nonzero;fill:rgb(96.078431%,97.254902%,98.039216%);fill-opacity:1;" d="M 5.410156 4.394531 C 5.410156 4.707031 5.15625 4.960938 4.839844 4.960938 C 4.527344 4.960938 4.273438 4.707031 4.273438 4.394531 C 4.273438 4.078125 4.527344 3.824219 4.839844 3.824219 C 5.15625 3.824219 5.410156 4.078125 5.410156 4.394531 Z M 5.410156 4.394531 "/>
<path style=" stroke:none;fill-rule:nonzero;fill:rgb(96.078431%,97.254902%,98.039216%);fill-opacity:1;" d="M 3.027344 1.9375 C 3.027344 2.253906 2.773438 2.507812 2.460938 2.507812 C 2.144531 2.507812 1.890625 2.253906 1.890625 1.9375 C 1.890625 1.625 2.144531 1.371094 2.460938 1.371094 C 2.773438 1.371094 3.027344 1.625 3.027344 1.9375 Z M 3.027344 1.9375 "/>
</g>
</svg>
