<?xml version="1.0" encoding="UTF-8"?>
<svg xmlns="http://www.w3.org/2000/svg" xmlns:xlink="http://www.w3.org/1999/xlink" width="15pt" height="15pt" viewBox="0 0 15 15" version="1.1">
<g id="surface1">
<path style=" stroke:none;fill-rule:nonzero;fill:rgb(100%,80%,30.196078%);fill-opacity:1;" d="M 14.960938 8.171875 C 14.222656 8.617188 13.359375 8.996094 12.113281 9.277344 C 12.121094 9.277344 12.148438 9.28125 12.132812 9.285156 C 12.019531 9.3125 11.960938 9.34375 11.847656 9.367188 C 11.410156 9.453125 10.769531 9.492188 10.980469 8.910156 L 11.867188 7.699219 L 12.082031 7.917969 L 13.957031 6.042969 L 12.082031 4.167969 L 10.207031 6.042969 L 11.269531 7.105469 L 10.347656 8.367188 L 10.34375 8.367188 C 9.648438 9.199219 8.351562 8.917969 8.351562 7.917969 L 8.332031 7.917969 L 8.332031 5.417969 L 10.625 3.125 L 7.5 0 L 4.375 3.125 L 6.667969 5.417969 L 6.667969 7.996094 C 6.597656 8.933594 5.359375 9.175781 4.679688 8.367188 L 3.742188 7.089844 L 4.792969 6.042969 L 2.917969 4.167969 L 1.042969 6.042969 L 2.917969 7.917969 L 3.148438 7.6875 L 4.046875 8.910156 C 4.257812 9.492188 3.617188 9.453125 3.179688 9.367188 C 3.066406 9.34375 3.003906 9.3125 2.894531 9.285156 C 2.878906 9.28125 2.90625 9.277344 2.910156 9.277344 C 1.664062 8.996094 0.804688 8.617188 0.0664062 8.171875 C 0.0625 8.234375 0.0273438 8.296875 0.0273438 8.363281 C 0.0273438 9.8125 2.628906 12.914062 6.117188 13.605469 L 7.5 14.992188 L 8.894531 13.605469 C 12.386719 12.914062 15 9.8125 15 8.363281 C 15 8.296875 14.964844 8.234375 14.960938 8.171875 Z M 14.960938 8.171875 "/>
</g>
</svg>
