<?xml version="1.0" encoding="UTF-8"?>
<svg xmlns="http://www.w3.org/2000/svg" xmlns:xlink="http://www.w3.org/1999/xlink" width="15pt" height="15pt" viewBox="0 0 15 15" version="1.1">
<g id="surface1">
<path style=" stroke:none;fill-rule:nonzero;fill:rgb(90.196078%,90.588235%,90.980392%);fill-opacity:1;" d="M 15 13.332031 C 15 14.253906 14.253906 15 13.332031 15 L 1.667969 15 C 0.746094 15 0 14.253906 0 13.332031 L 0 1.667969 C 0 0.746094 0.746094 0 1.667969 0 L 13.332031 0 C 14.253906 0 15 0.746094 15 1.667969 Z M 15 13.332031 "/>
<path style=" stroke:none;fill-rule:nonzero;fill:rgb(19.215686%,21.568627%,23.921569%);fill-opacity:1;" d="M 12.5 11.667969 C 12.5 12.125 12.125 12.5 11.667969 12.5 L 3.332031 12.5 C 2.875 12.5 2.5 12.125 2.5 11.667969 L 2.5 3.332031 C 2.5 2.875 2.875 2.5 3.332031 2.5 L 11.667969 2.5 C 12.125 2.5 12.5 2.875 12.5 3.332031 Z M 12.5 11.667969 "/>
</g>
</svg>
