<?xml version="1.0" encoding="UTF-8"?>
<svg xmlns="http://www.w3.org/2000/svg" xmlns:xlink="http://www.w3.org/1999/xlink" width="15pt" height="15pt" viewBox="0 0 15 15" version="1.1">
<g id="surface1">
<path style=" stroke:none;fill-rule:nonzero;fill:rgb(40%,45.882353%,49.803922%);fill-opacity:1;" d="M 7.082031 15 C 6.871094 15 6.65625 14.917969 6.496094 14.753906 L 1.910156 10.171875 C 1.753906 10.015625 1.667969 9.804688 1.667969 9.582031 L 1.667969 0.832031 C 1.667969 0.496094 1.871094 0.191406 2.179688 0.0625 C 2.492188 -0.0664062 2.851562 0.00390625 3.089844 0.246094 L 7.082031 4.238281 L 11.078125 0.246094 C 11.316406 0.00390625 11.671875 -0.0664062 11.984375 0.0625 C 12.296875 0.191406 12.5 0.496094 12.5 0.832031 L 12.5 9.582031 C 12.5 9.804688 12.410156 10.015625 12.253906 10.171875 L 7.671875 14.753906 C 7.511719 14.917969 7.296875 15 7.082031 15 Z M 7.082031 15 "/>
<path style=" stroke:none;fill-rule:nonzero;fill:rgb(27.843137%,87.058824%,83.137255%);fill-opacity:1;" d="M 7.082031 5.417969 L 11.667969 0.832031 L 11.667969 9.582031 L 7.082031 14.167969 Z M 7.082031 5.417969 "/>
<path style=" stroke:none;fill-rule:nonzero;fill:rgb(100%,100%,52.941176%);fill-opacity:1;" d="M 2.5 0.832031 L 7.082031 5.417969 L 7.082031 14.167969 L 2.5 9.582031 Z M 2.5 0.832031 "/>
</g>
</svg>
