<?xml version="1.0" encoding="UTF-8"?>
<svg xmlns="http://www.w3.org/2000/svg" xmlns:xlink="http://www.w3.org/1999/xlink" width="15pt" height="15pt" viewBox="0 0 15 15" version="1.1">
<g id="surface1">
<path style=" stroke:none;fill-rule:nonzero;fill:rgb(65.490196%,66.27451%,67.45098%);fill-opacity:1;" d="M 10.832031 3.75 L 7.5 0.417969 L 4.167969 3.75 L 4.167969 15 L 10.832031 15 Z M 10.832031 3.75 "/>
<path style=" stroke:none;fill-rule:nonzero;fill:rgb(16.078431%,18.431373%,20%);fill-opacity:1;" d="M 10.832031 4.167969 C 10.726562 4.167969 10.621094 4.125 10.539062 4.042969 L 7.5 1.003906 L 4.460938 4.042969 C 4.296875 4.207031 4.035156 4.207031 3.871094 4.042969 C 3.710938 3.882812 3.710938 3.617188 3.871094 3.457031 L 7.207031 0.121094 C 7.367188 -0.0390625 7.632812 -0.0390625 7.792969 0.121094 L 11.128906 3.457031 C 11.289062 3.617188 11.289062 3.882812 11.128906 4.042969 C 11.046875 4.125 10.941406 4.167969 10.832031 4.167969 Z M 10.832031 4.167969 "/>
<path style=" stroke:none;fill-rule:nonzero;fill:rgb(81.960784%,82.745098%,83.137255%);fill-opacity:1;" d="M 4.582031 15 L 1.667969 15 C 1.207031 15 0.832031 14.625 0.832031 14.167969 L 0.832031 8.332031 C 0.832031 7.875 1.207031 7.5 1.667969 7.5 L 3.75 7.5 C 4.210938 7.5 4.582031 7.875 4.582031 8.332031 Z M 4.582031 15 "/>
<path style=" stroke:none;fill-rule:nonzero;fill:rgb(40.392157%,45.882353%,49.803922%);fill-opacity:1;" d="M 5 8.242188 C 5.070312 7.96875 5.003906 7.664062 4.785156 7.445312 L 3.3125 5.972656 C 2.988281 5.648438 2.460938 5.648438 2.132812 5.972656 L 0.660156 7.445312 C 0.445312 7.664062 0.375 7.96875 0.445312 8.246094 L 5 8.246094 Z M 5 8.242188 "/>
<path style=" stroke:none;fill-rule:nonzero;fill:rgb(81.960784%,82.745098%,83.137255%);fill-opacity:1;" d="M 0.832031 8.332031 L 4.582031 8.332031 L 4.582031 8.75 L 0.832031 8.75 Z M 10.417969 15 L 13.332031 15 C 13.792969 15 14.167969 14.625 14.167969 14.167969 L 14.167969 8.332031 C 14.167969 7.875 13.792969 7.5 13.332031 7.5 L 11.25 7.5 C 10.789062 7.5 10.417969 7.875 10.417969 8.332031 Z M 10.417969 15 "/>
<path style=" stroke:none;fill-rule:nonzero;fill:rgb(40.392157%,45.882353%,49.803922%);fill-opacity:1;" d="M 14.558594 8.242188 C 14.628906 7.96875 14.558594 7.664062 14.34375 7.445312 L 12.867188 5.972656 C 12.542969 5.648438 12.015625 5.648438 11.691406 5.972656 L 10.21875 7.445312 C 10 7.664062 9.933594 7.96875 10.003906 8.242188 Z M 14.558594 8.242188 "/>
<path style=" stroke:none;fill-rule:nonzero;fill:rgb(81.960784%,82.745098%,83.137255%);fill-opacity:1;" d="M 10.417969 8.332031 L 14.167969 8.332031 L 14.167969 8.75 L 10.417969 8.75 Z M 10.417969 8.332031 "/>
<path style=" stroke:none;fill-rule:nonzero;fill:rgb(16.078431%,18.431373%,20%);fill-opacity:1;" d="M 5 8.242188 C 5 8.472656 4.8125 8.660156 4.582031 8.660156 L 0.832031 8.660156 C 0.601562 8.660156 0.417969 8.472656 0.417969 8.242188 C 0.417969 8.015625 0.601562 7.828125 0.832031 7.828125 L 4.582031 7.828125 C 4.8125 7.828125 5 8.015625 5 8.242188 Z M 14.582031 8.242188 C 14.582031 8.472656 14.398438 8.660156 14.167969 8.660156 L 10.417969 8.660156 C 10.1875 8.660156 10 8.472656 10 8.242188 C 10 8.015625 10.1875 7.828125 10.417969 7.828125 L 14.167969 7.828125 C 14.398438 7.828125 14.582031 8.015625 14.582031 8.242188 Z M 14.582031 8.242188 "/>
<path style=" stroke:none;fill-rule:nonzero;fill:rgb(40.392157%,45.882353%,49.803922%);fill-opacity:1;" d="M 7.417969 8.332031 C 7.128906 8.332031 6.863281 8.171875 6.707031 7.902344 L 6.425781 7.410156 L 5.769531 7.410156 C 5.46875 7.410156 5.210938 7.269531 5.070312 7.027344 C 4.925781 6.777344 4.933594 6.464844 5.089844 6.191406 L 5.410156 5.636719 L 5.089844 5.082031 C 4.933594 4.808594 4.925781 4.496094 5.070312 4.246094 C 5.210938 4.003906 5.46875 3.863281 5.765625 3.863281 L 6.425781 3.863281 L 6.707031 3.375 C 6.863281 3.101562 7.128906 2.941406 7.414062 2.941406 C 7.695312 2.941406 7.957031 3.09375 8.113281 3.351562 L 8.429688 3.863281 L 9.203125 3.863281 C 9.503906 3.863281 9.765625 4.007812 9.902344 4.253906 C 10.042969 4.507812 10.027344 4.820312 9.859375 5.089844 L 9.523438 5.636719 L 9.859375 6.183594 C 10.027344 6.453125 10.042969 6.765625 9.902344 7.019531 C 9.765625 7.265625 9.503906 7.414062 9.203125 7.414062 L 8.429688 7.414062 L 8.113281 7.925781 C 7.957031 8.179688 7.695312 8.332031 7.417969 8.332031 Z M 7.417969 8.332031 "/>
<path style=" stroke:none;fill-rule:nonzero;fill:rgb(100%,80%,30.196078%);fill-opacity:1;" d="M 7.417969 7.917969 C 7.277344 7.917969 7.148438 7.835938 7.066406 7.691406 L 5.453125 4.875 C 5.367188 4.726562 5.359375 4.574219 5.429688 4.457031 C 5.496094 4.34375 5.621094 4.277344 5.769531 4.277344 L 9.203125 4.277344 C 9.355469 4.277344 9.476562 4.34375 9.539062 4.457031 C 9.609375 4.578125 9.597656 4.730469 9.507812 4.875 L 7.757812 7.707031 C 7.675781 7.839844 7.550781 7.917969 7.417969 7.917969 Z M 5.828125 4.695312 L 7.417969 7.46875 L 9.128906 4.695312 Z M 5.828125 4.695312 "/>
<path style=" stroke:none;fill-rule:nonzero;fill:rgb(100%,80%,30.196078%);fill-opacity:1;" d="M 9.203125 6.996094 L 5.769531 6.996094 C 5.621094 6.996094 5.496094 6.929688 5.429688 6.816406 C 5.359375 6.699219 5.367188 6.546875 5.453125 6.402344 L 7.066406 3.582031 C 7.148438 3.4375 7.277344 3.355469 7.417969 3.355469 C 7.550781 3.355469 7.675781 3.433594 7.757812 3.566406 L 9.507812 6.402344 C 9.59375 6.542969 9.605469 6.695312 9.539062 6.816406 C 9.476562 6.929688 9.355469 6.996094 9.203125 6.996094 Z M 5.828125 6.578125 L 9.128906 6.582031 L 7.417969 3.804688 Z M 5.828125 6.578125 "/>
<path style=" stroke:none;fill-rule:nonzero;fill:rgb(40.392157%,45.882353%,49.803922%);fill-opacity:1;" d="M 6.25 11.472656 L 8.75 11.472656 L 8.75 14.167969 L 6.25 14.167969 Z M 6.25 11.472656 "/>
<path style=" stroke:none;fill-rule:nonzero;fill:rgb(40.392157%,45.882353%,49.803922%);fill-opacity:1;" d="M 8.75 11.457031 C 8.75 10.882812 8.191406 10.417969 7.5 10.417969 C 6.808594 10.417969 6.25 10.882812 6.25 11.457031 C 6.25 12.035156 6.808594 12.5 7.5 12.5 C 8.191406 12.5 8.75 12.035156 8.75 11.457031 Z M 8.75 11.457031 "/>
<path style=" stroke:none;fill-rule:nonzero;fill:rgb(81.960784%,82.745098%,83.137255%);fill-opacity:1;" d="M 4.167969 14.167969 L 10.832031 14.167969 L 10.832031 15 L 4.167969 15 Z M 4.167969 14.167969 "/>
<path style=" stroke:none;fill-rule:nonzero;fill:rgb(40.392157%,45.882353%,49.803922%);fill-opacity:1;" d="M 3.332031 11.992188 C 3.332031 12.339844 3.054688 11.578125 2.707031 11.578125 C 2.363281 11.578125 2.082031 12.339844 2.082031 11.992188 L 2.082031 10.117188 C 2.082031 9.773438 2.363281 9.492188 2.707031 9.492188 C 3.054688 9.492188 3.332031 9.773438 3.332031 10.117188 Z M 12.917969 11.992188 C 12.917969 12.339844 12.636719 11.578125 12.292969 11.578125 C 11.945312 11.578125 11.667969 12.339844 11.667969 11.992188 L 11.667969 10.117188 C 11.667969 9.773438 11.945312 9.492188 12.292969 9.492188 C 12.636719 9.492188 12.917969 9.773438 12.917969 10.117188 Z M 12.917969 11.992188 "/>
</g>
</svg>
