<?xml version="1.0" encoding="UTF-8"?>
<svg xmlns="http://www.w3.org/2000/svg" xmlns:xlink="http://www.w3.org/1999/xlink" width="15pt" height="15pt" viewBox="0 0 15 15" version="1.1">
<g id="surface1">
<path style=" stroke:none;fill-rule:nonzero;fill:rgb(95.686275%,56.470588%,4.705882%);fill-opacity:1;" d="M 9.582031 1.800781 C 9.582031 3.621094 5.484375 4.574219 5.484375 7.304688 C 5.484375 8.214844 5.9375 9.167969 6.390625 9.167969 L 12.761719 9.167969 C 13.21875 9.167969 13.675781 8.214844 13.675781 7.304688 C 13.675781 4.574219 9.582031 3.621094 9.582031 1.800781 Z M 9.582031 1.800781 "/>
<path style=" stroke:none;fill-rule:nonzero;fill:rgb(100%,85.098039%,51.372549%);fill-opacity:1;" d="M 14.582031 14.089844 C 14.582031 14.59375 14.464844 15 13.671875 15 L 5.480469 15 C 4.691406 15 4.582031 14.59375 4.582031 14.089844 L 4.582031 9.539062 C 4.582031 9.035156 4.691406 8.75 5.480469 8.75 L 13.671875 8.75 C 14.464844 8.75 14.582031 9.035156 14.582031 9.539062 Z M 14.582031 14.089844 "/>
<path style=" stroke:none;fill-rule:nonzero;fill:rgb(100%,85.098039%,51.372549%);fill-opacity:1;" d="M 9.582031 14.167969 C 9.582031 14.625 9.210938 15 8.75 15 L 1.25 15 C 0.789062 15 0.417969 14.625 0.417969 14.167969 L 0.417969 13.75 C 0.417969 13.289062 0.789062 12.917969 1.25 12.917969 L 8.75 12.917969 C 9.210938 12.917969 9.582031 13.289062 9.582031 13.75 Z M 9.582031 14.167969 "/>
<path style=" stroke:none;fill-rule:nonzero;fill:rgb(40%,12.941176%,7.45098%);fill-opacity:1;" d="M 10.832031 12.082031 C 10.832031 10.832031 10.042969 10 9.582031 10 C 9.125 10 8.332031 10.832031 8.332031 12.082031 L 8.332031 15 L 10.832031 15 Z M 7.5 13.054688 C 7.5 12.222656 6.972656 11.667969 6.667969 11.667969 C 6.359375 11.667969 5.832031 12.222656 5.832031 13.054688 L 5.832031 15 L 7.5 15 Z M 13.332031 13.054688 C 13.332031 12.222656 12.808594 11.667969 12.5 11.667969 C 12.191406 11.667969 11.667969 12.222656 11.667969 13.054688 L 11.667969 15 L 13.332031 15 Z M 13.332031 13.054688 "/>
<path style=" stroke:none;fill-rule:nonzero;fill:rgb(100%,85.098039%,51.372549%);fill-opacity:1;" d="M 3.75 14.167969 C 3.75 14.625 3.375 15 2.917969 15 L 2.082031 15 C 1.625 15 1.25 14.625 1.25 14.167969 L 1.25 3.332031 C 1.25 2.875 1.625 2.5 2.082031 2.5 L 2.917969 2.5 C 3.375 2.5 3.75 2.875 3.75 3.332031 Z M 3.75 14.167969 "/>
<path style=" stroke:none;fill-rule:nonzero;fill:rgb(95.686275%,56.470588%,4.705882%);fill-opacity:1;" d="M 2.496094 0.136719 C 2.496094 0.902344 1.316406 1.351562 1.316406 2.5 C 1.316406 2.882812 1.449219 3.332031 1.578125 3.332031 L 3.414062 3.332031 C 3.542969 3.332031 3.675781 2.882812 3.675781 2.5 C 3.675781 1.351562 2.496094 0.902344 2.496094 0.136719 Z M 2.496094 0.136719 "/>
<path style=" stroke:none;fill-rule:nonzero;fill:rgb(100%,67.45098%,20%);fill-opacity:1;" d="M 4.167969 5 C 4.167969 5.230469 3.980469 5.417969 3.75 5.417969 L 1.25 5.417969 C 1.019531 5.417969 0.832031 5.230469 0.832031 5 C 0.832031 4.769531 1.019531 4.582031 1.25 4.582031 L 3.75 4.582031 C 3.980469 4.582031 4.167969 4.769531 4.167969 5 Z M 4.167969 3.332031 C 4.167969 3.5625 3.980469 3.75 3.75 3.75 L 1.25 3.75 C 1.019531 3.75 0.832031 3.5625 0.832031 3.332031 C 0.832031 3.101562 1.019531 2.917969 1.25 2.917969 L 3.75 2.917969 C 3.980469 2.917969 4.167969 3.101562 4.167969 3.332031 Z M 4.167969 3.332031 "/>
</g>
</svg>
