<?xml version="1.0" encoding="UTF-8"?>
<svg xmlns="http://www.w3.org/2000/svg" xmlns:xlink="http://www.w3.org/1999/xlink" width="15pt" height="15pt" viewBox="0 0 15 15" version="1.1">
<g id="surface1">
<path style=" stroke:none;fill-rule:nonzero;fill:rgb(0%,0%,0%);fill-opacity:1;" d="M 7.5 0 L 0 2.082031 L 0 14.167969 L 7.5 15 L 15 14.167969 L 15 2.082031 Z M 7.5 0 "/>
<path style=" stroke:none;fill-rule:nonzero;fill:rgb(16.078431%,18.431373%,20%);fill-opacity:1;" d="M 7.5 15 L 15 14.167969 L 15 2.082031 L 7.5 0 Z M 7.5 15 "/>
<path style=" stroke:none;fill-rule:nonzero;fill:rgb(100%,85.098039%,51.372549%);fill-opacity:1;" d="M 9.355469 6.042969 L 9.355469 7.464844 L 11.117188 7.71875 L 11.117188 6.339844 Z M 12.273438 6.535156 L 12.273438 7.886719 L 13.648438 8.085938 L 13.648438 6.769531 Z M 7.5 5.730469 L 7.5 7.195312 L 8.203125 7.296875 L 8.203125 5.851562 Z M 15 6.996094 L 14.777344 6.957031 L 14.777344 8.25 L 15 8.28125 Z M 15 6.996094 "/>
<path style=" stroke:none;fill-rule:nonzero;fill:rgb(100%,67.45098%,20%);fill-opacity:1;" d="M 0 6.996094 L 0 8.28125 L 0.222656 8.25 L 0.222656 6.957031 Z M 6.796875 5.851562 L 6.796875 7.296875 L 7.5 7.195312 L 7.5 5.730469 Z M 1.351562 6.769531 L 1.351562 8.085938 L 2.726562 7.886719 L 2.726562 6.535156 Z M 3.882812 6.339844 L 3.882812 7.71875 L 5.644531 7.464844 L 5.644531 6.042969 Z M 3.882812 6.339844 "/>
<path style=" stroke:none;fill-rule:nonzero;fill:rgb(100%,85.098039%,51.372549%);fill-opacity:1;" d="M 8.910156 6.304688 L 8.910156 6.285156 C 8.910156 6.113281 8.851562 5.96875 8.777344 5.96875 C 8.703125 5.96875 8.644531 6.113281 8.644531 6.285156 L 8.644531 6.304688 C 8.558594 6.394531 8.496094 6.5625 8.496094 6.765625 C 8.496094 6.976562 8.566406 7.160156 8.660156 7.246094 C 8.6875 7.324219 8.730469 7.382812 8.777344 7.382812 C 8.828125 7.382812 8.871094 7.324219 8.894531 7.246094 C 8.992188 7.160156 9.058594 6.976562 9.058594 6.765625 C 9.058594 6.5625 9 6.394531 8.910156 6.304688 Z M 11.828125 6.75 L 11.828125 6.734375 C 11.828125 6.558594 11.769531 6.414062 11.695312 6.414062 C 11.621094 6.414062 11.5625 6.558594 11.5625 6.734375 L 11.5625 6.75 C 11.476562 6.839844 11.414062 7.007812 11.414062 7.210938 C 11.414062 7.421875 11.480469 7.605469 11.578125 7.691406 C 11.605469 7.769531 11.644531 7.828125 11.695312 7.828125 C 11.746094 7.828125 11.785156 7.769531 11.8125 7.691406 C 11.910156 7.605469 11.976562 7.421875 11.976562 7.210938 C 11.976562 7.007812 11.914062 6.839844 11.828125 6.75 Z M 14.335938 7.179688 L 14.335938 7.164062 C 14.335938 7 14.28125 6.867188 14.210938 6.867188 C 14.140625 6.867188 14.085938 7 14.085938 7.164062 L 14.085938 7.179688 C 14.003906 7.265625 13.949219 7.421875 13.949219 7.609375 C 13.949219 7.808594 14.011719 7.976562 14.101562 8.058594 C 14.125 8.132812 14.164062 8.183594 14.210938 8.183594 C 14.257812 8.183594 14.296875 8.132812 14.320312 8.058594 C 14.410156 7.976562 14.472656 7.808594 14.472656 7.609375 C 14.472656 7.421875 14.417969 7.265625 14.335938 7.179688 Z M 14.335938 7.179688 "/>
<path style=" stroke:none;fill-rule:nonzero;fill:rgb(100%,67.45098%,20%);fill-opacity:1;" d="M 6.089844 6.304688 L 6.089844 6.285156 C 6.089844 6.113281 6.148438 5.96875 6.222656 5.96875 C 6.296875 5.96875 6.355469 6.113281 6.355469 6.285156 L 6.355469 6.304688 C 6.441406 6.394531 6.503906 6.5625 6.503906 6.765625 C 6.503906 6.976562 6.433594 7.160156 6.339844 7.246094 C 6.3125 7.324219 6.269531 7.382812 6.222656 7.382812 C 6.171875 7.382812 6.128906 7.324219 6.105469 7.246094 C 6.007812 7.160156 5.941406 6.976562 5.941406 6.765625 C 5.941406 6.5625 6 6.394531 6.089844 6.304688 Z M 3.171875 6.75 L 3.171875 6.734375 C 3.171875 6.558594 3.230469 6.414062 3.304688 6.414062 C 3.378906 6.414062 3.4375 6.558594 3.4375 6.734375 L 3.4375 6.75 C 3.523438 6.839844 3.585938 7.007812 3.585938 7.210938 C 3.585938 7.421875 3.519531 7.605469 3.421875 7.691406 C 3.394531 7.769531 3.355469 7.828125 3.304688 7.828125 C 3.253906 7.828125 3.214844 7.769531 3.1875 7.691406 C 3.089844 7.605469 3.023438 7.421875 3.023438 7.210938 C 3.023438 7.007812 3.085938 6.839844 3.171875 6.75 Z M 0.664062 7.179688 L 0.664062 7.164062 C 0.664062 7 0.71875 6.867188 0.789062 6.867188 C 0.859375 6.867188 0.914062 7 0.914062 7.164062 L 0.914062 7.179688 C 0.996094 7.265625 1.050781 7.421875 1.050781 7.609375 C 1.050781 7.808594 0.988281 7.976562 0.898438 8.058594 C 0.875 8.132812 0.835938 8.183594 0.789062 8.183594 C 0.742188 8.183594 0.703125 8.132812 0.679688 8.058594 C 0.589844 7.976562 0.527344 7.808594 0.527344 7.609375 C 0.527344 7.421875 0.582031 7.265625 0.664062 7.179688 Z M 0 4.644531 L 0 6.101562 L 7.5 4.742188 L 7.5 3.171875 Z M 0 4.644531 "/>
<path style=" stroke:none;fill-rule:nonzero;fill:rgb(100%,85.098039%,51.372549%);fill-opacity:1;" d="M 7.5 3.171875 L 7.5 4.742188 L 15 6.101562 L 15 4.644531 Z M 7.5 3.171875 "/>
</g>
</svg>
