<?xml version="1.0" encoding="UTF-8"?>
<svg xmlns="http://www.w3.org/2000/svg" xmlns:xlink="http://www.w3.org/1999/xlink" width="15pt" height="15pt" viewBox="0 0 15 15" version="1.1">
<g id="surface1">
<path style=" stroke:none;fill-rule:nonzero;fill:rgb(60%,66.666667%,70.980392%);fill-opacity:1;" d="M 15 7.5 C 15 11.640625 11.640625 15 7.5 15 C 3.359375 15 0 11.640625 0 7.5 C 0 3.359375 3.359375 0 7.5 0 C 11.640625 0 15 3.359375 15 7.5 Z M 15 7.5 "/>
<path style=" stroke:none;fill-rule:nonzero;fill:rgb(88.235294%,90.980392%,92.941176%);fill-opacity:1;" d="M 13.332031 7.5 C 13.332031 10.722656 10.722656 13.332031 7.5 13.332031 C 4.277344 13.332031 1.667969 10.722656 1.667969 7.5 C 1.667969 4.277344 4.277344 1.667969 7.5 1.667969 C 10.722656 1.667969 13.332031 4.277344 13.332031 7.5 Z M 13.332031 7.5 "/>
<path style=" stroke:none;fill-rule:nonzero;fill:rgb(40%,45.882353%,49.803922%);fill-opacity:1;" d="M 7.917969 7.5 C 7.917969 7.730469 7.730469 7.917969 7.5 7.917969 C 7.269531 7.917969 7.082031 7.730469 7.082031 7.5 L 7.082031 2.917969 C 7.082031 2.6875 7.269531 2.5 7.5 2.5 C 7.730469 2.5 7.917969 2.6875 7.917969 2.917969 Z M 7.917969 7.5 "/>
<path style=" stroke:none;fill-rule:nonzero;fill:rgb(40%,45.882353%,49.803922%);fill-opacity:1;" d="M 9.582031 11.109375 C 9.382812 11.222656 9.128906 11.15625 9.015625 10.957031 L 7.140625 7.707031 C 7.023438 7.507812 7.09375 7.253906 7.292969 7.140625 C 7.492188 7.023438 7.746094 7.09375 7.859375 7.292969 L 9.734375 10.539062 C 9.851562 10.738281 9.78125 10.992188 9.582031 11.109375 Z M 9.582031 11.109375 "/>
</g>
</svg>
