<?xml version="1.0" encoding="UTF-8"?>
<svg xmlns="http://www.w3.org/2000/svg" xmlns:xlink="http://www.w3.org/1999/xlink" width="15pt" height="15pt" viewBox="0 0 15 15" version="1.1">
<g id="surface1">
<path style=" stroke:none;fill-rule:nonzero;fill:rgb(60%,66.666667%,70.980392%);fill-opacity:1;" d="M 15 7.5 C 15 11.640625 11.640625 15 7.5 15 C 3.359375 15 0 11.640625 0 7.5 C 0 3.359375 3.359375 0 7.5 0 C 11.640625 0 15 3.359375 15 7.5 Z M 15 7.5 "/>
<path style=" stroke:none;fill-rule:nonzero;fill:rgb(88.235294%,90.980392%,92.941176%);fill-opacity:1;" d="M 13.332031 7.5 C 13.332031 10.722656 10.722656 13.332031 7.5 13.332031 C 4.277344 13.332031 1.667969 10.722656 1.667969 7.5 C 1.667969 4.277344 4.277344 1.667969 7.5 1.667969 C 10.722656 1.667969 13.332031 4.277344 13.332031 7.5 Z M 13.332031 7.5 "/>
<path style=" stroke:none;fill-rule:nonzero;fill:rgb(40.392157%,45.882353%,49.803922%);fill-opacity:1;" d="M 7.5 12.917969 C 7.269531 12.917969 7.082031 12.730469 7.082031 12.5 L 7.082031 7.5 C 7.082031 7.269531 7.269531 7.082031 7.5 7.082031 C 7.730469 7.082031 7.917969 7.269531 7.917969 7.5 L 7.917969 12.5 C 7.917969 12.730469 7.730469 12.917969 7.5 12.917969 Z M 7.5 12.917969 "/>
<path style=" stroke:none;fill-rule:nonzero;fill:rgb(40.392157%,45.882353%,49.803922%);fill-opacity:1;" d="M 10.417969 10 C 10.332031 10 10.246094 9.976562 10.175781 9.921875 L 7.257812 7.839844 C 7.070312 7.703125 7.027344 7.445312 7.160156 7.257812 C 7.292969 7.070312 7.554688 7.027344 7.742188 7.160156 L 10.660156 9.242188 C 10.847656 9.378906 10.890625 9.636719 10.753906 9.824219 C 10.675781 9.9375 10.546875 10 10.417969 10 Z M 10.417969 10 "/>
</g>
</svg>
