<?xml version="1.0" encoding="UTF-8"?>
<svg xmlns="http://www.w3.org/2000/svg" xmlns:xlink="http://www.w3.org/1999/xlink" width="15pt" height="15pt" viewBox="0 0 15 15" version="1.1">
<g id="surface1">
<path style=" stroke:none;fill-rule:nonzero;fill:rgb(60%,66.666667%,70.980392%);fill-opacity:1;" d="M 15 7.5 C 15 11.640625 11.640625 15 7.5 15 C 3.359375 15 0 11.640625 0 7.5 C 0 3.359375 3.359375 0 7.5 0 C 11.640625 0 15 3.359375 15 7.5 Z M 15 7.5 "/>
<path style=" stroke:none;fill-rule:nonzero;fill:rgb(88.235294%,90.980392%,92.941176%);fill-opacity:1;" d="M 13.332031 7.5 C 13.332031 10.722656 10.722656 13.332031 7.5 13.332031 C 4.277344 13.332031 1.667969 10.722656 1.667969 7.5 C 1.667969 4.277344 4.277344 1.667969 7.5 1.667969 C 10.722656 1.667969 13.332031 4.277344 13.332031 7.5 Z M 13.332031 7.5 "/>
<path style=" stroke:none;fill-rule:nonzero;fill:rgb(40.392157%,45.882353%,49.803922%);fill-opacity:1;" d="M 7.5 12.917969 C 7.269531 12.917969 7.082031 12.730469 7.082031 12.5 L 7.082031 7.5 C 7.082031 7.269531 7.269531 7.082031 7.5 7.082031 C 7.730469 7.082031 7.917969 7.269531 7.917969 7.5 L 7.917969 12.5 C 7.917969 12.730469 7.730469 12.917969 7.5 12.917969 Z M 7.5 12.917969 "/>
<path style=" stroke:none;fill-rule:nonzero;fill:rgb(40.392157%,45.882353%,49.803922%);fill-opacity:1;" d="M 7.5 7.917969 C 7.371094 7.917969 7.242188 7.855469 7.160156 7.742188 C 7.027344 7.554688 7.070312 7.292969 7.257812 7.160156 L 10.175781 5.078125 C 10.359375 4.945312 10.621094 4.988281 10.753906 5.175781 C 10.890625 5.363281 10.847656 5.621094 10.660156 5.753906 L 7.742188 7.839844 C 7.667969 7.890625 7.585938 7.917969 7.5 7.917969 Z M 7.5 7.917969 "/>
</g>
</svg>
