<?xml version="1.0" encoding="UTF-8"?>
<svg xmlns="http://www.w3.org/2000/svg" xmlns:xlink="http://www.w3.org/1999/xlink" width="15pt" height="15pt" viewBox="0 0 15 15" version="1.1">
<g id="surface1">
<path style=" stroke:none;fill-rule:nonzero;fill:rgb(60%,66.666667%,70.980392%);fill-opacity:1;" d="M 15 7.5 C 15 11.640625 11.640625 15 7.5 15 C 3.359375 15 0 11.640625 0 7.5 C 0 3.359375 3.359375 0 7.5 0 C 11.640625 0 15 3.359375 15 7.5 Z M 15 7.5 "/>
<path style=" stroke:none;fill-rule:nonzero;fill:rgb(88.235294%,90.980392%,92.941176%);fill-opacity:1;" d="M 13.332031 7.5 C 13.332031 10.722656 10.722656 13.332031 7.5 13.332031 C 4.277344 13.332031 1.667969 10.722656 1.667969 7.5 C 1.667969 4.277344 4.277344 1.667969 7.5 1.667969 C 10.722656 1.667969 13.332031 4.277344 13.332031 7.5 Z M 13.332031 7.5 "/>
<path style=" stroke:none;fill-rule:nonzero;fill:rgb(40%,45.882353%,49.803922%);fill-opacity:1;" d="M 7.082031 7.5 C 7.082031 7.730469 7.269531 7.917969 7.5 7.917969 C 7.730469 7.917969 7.917969 7.730469 7.917969 7.5 L 7.917969 2.917969 C 7.917969 2.6875 7.730469 2.5 7.5 2.5 C 7.269531 2.5 7.082031 2.6875 7.082031 2.917969 Z M 7.082031 7.5 "/>
<path style=" stroke:none;fill-rule:nonzero;fill:rgb(40%,45.882353%,49.803922%);fill-opacity:1;" d="M 3.890625 9.582031 C 4.007812 9.78125 4.261719 9.851562 4.460938 9.734375 L 7.707031 7.859375 C 7.90625 7.746094 7.976562 7.492188 7.859375 7.292969 C 7.746094 7.09375 7.492188 7.023438 7.292969 7.140625 L 4.042969 9.015625 C 3.84375 9.128906 3.777344 9.382812 3.890625 9.582031 Z M 3.890625 9.582031 "/>
</g>
</svg>
