<?xml version="1.0" encoding="UTF-8"?>
<svg xmlns="http://www.w3.org/2000/svg" xmlns:xlink="http://www.w3.org/1999/xlink" width="15pt" height="15pt" viewBox="0 0 15 15" version="1.1">
<g id="surface1">
<path style=" stroke:none;fill-rule:nonzero;fill:rgb(40.392157%,45.882353%,49.803922%);fill-opacity:1;" d="M 8.332031 8.957031 C 8.332031 9.304688 8.054688 9.582031 7.707031 9.582031 C 7.363281 9.582031 7.082031 9.304688 7.082031 8.957031 L 7.082031 7.707031 C 7.082031 7.363281 7.363281 7.082031 7.707031 7.082031 C 8.054688 7.082031 8.332031 7.363281 8.332031 7.707031 Z M 8.332031 8.957031 "/>
<path style=" stroke:none;fill-rule:nonzero;fill:rgb(88.235294%,90.980392%,92.941176%);fill-opacity:1;" d="M 11.308594 14.089844 C 11.328125 14.59375 10.917969 15 10.417969 15 L 5.078125 15 C 4.574219 15 4.167969 14.59375 4.167969 14.089844 L 4.167969 8.75 C 4.167969 8.246094 4.214844 7.839844 5.078125 7.839844 C 5.9375 7.839844 6.25 9.582031 10.417969 8.75 C 10.871094 8.75 11.328125 9.15625 11.308594 9.660156 Z M 11.308594 14.089844 "/>
<path style=" stroke:none;fill-rule:nonzero;fill:rgb(98.823529%,67.058824%,25.098039%);fill-opacity:1;" d="M 7.785156 7.722656 C 6.703125 7.722656 4.886719 6.917969 4.886719 5.265625 C 4.886719 3.605469 6.699219 3.011719 7.804688 0.515625 C 8.117188 -0.1875 8.21875 0.0546875 8.578125 0.484375 C 9.4375 1.511719 10.6875 3.601562 10.6875 5.308594 C 10.6875 7.242188 8.753906 7.722656 7.785156 7.722656 Z M 7.785156 7.722656 "/>
<path style=" stroke:none;fill-rule:nonzero;fill:rgb(99.215686%,79.607843%,34.509804%);fill-opacity:1;" d="M 7.785156 7.269531 C 6.042969 7.269531 6.335938 4.851562 7.785156 3.402344 C 8.753906 3.886719 10.203125 7.269531 7.785156 7.269531 Z M 7.785156 7.269531 "/>
<path style=" stroke:none;fill-rule:nonzero;fill:rgb(80%,83.921569%,86.666667%);fill-opacity:1;" d="M 4.582031 12.082031 C 4.582031 12.3125 4.398438 12.5 4.167969 12.5 C 3.9375 12.5 3.75 12.3125 3.75 12.082031 L 3.75 9.167969 C 3.75 8.9375 3.9375 8.75 4.167969 8.75 C 4.398438 8.75 4.582031 8.9375 4.582031 9.167969 Z M 6.25 13.332031 C 6.25 13.5625 6.0625 13.75 5.832031 13.75 C 5.601562 13.75 5.417969 13.5625 5.417969 13.332031 L 5.417969 10.417969 C 5.417969 10.1875 5.601562 10 5.832031 10 C 6.0625 10 6.25 10.1875 6.25 10.417969 Z M 6.25 8.75 C 6.25 8.980469 6.0625 9.167969 5.832031 9.167969 C 5.601562 9.167969 5.417969 8.980469 5.417969 8.75 L 5.417969 8.332031 C 5.417969 8.101562 5.601562 7.917969 5.832031 7.917969 C 6.0625 7.917969 6.25 8.101562 6.25 8.332031 Z M 6.25 8.75 "/>
</g>
</svg>
