<?xml version="1.0" encoding="UTF-8"?>
<svg xmlns="http://www.w3.org/2000/svg" xmlns:xlink="http://www.w3.org/1999/xlink" width="15pt" height="15pt" viewBox="0 0 15 15" version="1.1">
<g id="surface1">
<path style=" stroke:none;fill-rule:evenodd;fill:rgb(19.215686%,21.568627%,23.921569%);fill-opacity:1;" d="M 0.515625 6.257812 C 0.617188 6.355469 1.117188 6.65625 1.214844 6.957031 C 1.316406 7.253906 1.515625 9.167969 2.113281 9.664062 C 2.734375 10.179688 5.0625 9.988281 5.507812 9.765625 C 6.507812 9.265625 6.628906 7.660156 6.808594 6.953125 C 6.90625 6.554688 7.507812 6.554688 7.507812 6.554688 C 7.507812 6.554688 8.105469 6.554688 8.207031 6.953125 C 8.382812 7.660156 8.503906 9.273438 9.503906 9.769531 C 9.949219 9.992188 12.28125 10.183594 12.898438 9.671875 C 13.496094 9.171875 13.699219 7.253906 13.796875 6.953125 C 13.898438 6.65625 14.398438 6.355469 14.496094 6.257812 C 14.597656 6.15625 14.597656 5.757812 14.496094 5.660156 C 14.296875 5.460938 11.941406 5.28125 9.402344 5.558594 C 8.898438 5.613281 8.703125 5.757812 7.503906 5.757812 C 6.308594 5.757812 6.113281 5.613281 5.609375 5.558594 C 3.074219 5.28125 0.714844 5.460938 0.515625 5.660156 C 0.417969 5.757812 0.417969 6.15625 0.515625 6.257812 Z M 0.515625 6.257812 "/>
</g>
</svg>
