<?xml version="1.0" encoding="UTF-8"?>
<svg xmlns="http://www.w3.org/2000/svg" xmlns:xlink="http://www.w3.org/1999/xlink" width="15pt" height="15pt" viewBox="0 0 15 15" version="1.1">
<g id="surface1">
<path style=" stroke:none;fill-rule:nonzero;fill:rgb(60%,66.666667%,70.980392%);fill-opacity:1;" d="M 6.667969 3.75 L 8.332031 3.75 L 8.332031 10.832031 L 6.667969 10.832031 Z M 6.667969 3.75 "/>
<path style=" stroke:none;fill-rule:nonzero;fill:rgb(85.490196%,18.431373%,27.843137%);fill-opacity:1;" d="M 4.167969 10.207031 C 4.167969 10.554688 3.886719 10.832031 3.542969 10.832031 L 2.292969 10.832031 C 1.945312 10.832031 1.667969 10.554688 1.667969 10.207031 C 1.667969 9.863281 1.945312 9.582031 2.292969 9.582031 L 3.542969 9.582031 C 3.886719 9.582031 4.167969 9.863281 4.167969 10.207031 Z M 4.167969 10.207031 "/>
<path style=" stroke:none;fill-rule:nonzero;fill:rgb(19.215686%,21.568627%,23.921569%);fill-opacity:1;" d="M 14.167969 13.75 C 14.167969 14.210938 13.792969 14.582031 13.332031 14.582031 L 1.667969 14.582031 C 1.207031 14.582031 0.832031 14.210938 0.832031 13.75 L 0.832031 11.25 C 0.832031 10.789062 1.207031 10.417969 1.667969 10.417969 L 13.332031 10.417969 C 13.792969 10.417969 14.167969 10.789062 14.167969 11.25 Z M 14.167969 13.75 "/>
<path style=" stroke:none;fill-rule:nonzero;fill:rgb(19.215686%,21.568627%,23.921569%);fill-opacity:1;" d="M 4.167969 14.375 C 4.167969 14.71875 3.886719 15 3.542969 15 L 2.292969 15 C 1.945312 15 1.667969 14.71875 1.667969 14.375 C 1.667969 14.03125 1.945312 13.75 2.292969 13.75 L 3.542969 13.75 C 3.886719 13.75 4.167969 14.03125 4.167969 14.375 Z M 13.332031 14.375 C 13.332031 14.71875 13.054688 15 12.707031 15 L 11.457031 15 C 11.113281 15 10.832031 14.71875 10.832031 14.375 C 10.832031 14.03125 11.113281 13.75 11.457031 13.75 L 12.707031 13.75 C 13.054688 13.75 13.332031 14.03125 13.332031 14.375 Z M 13.332031 14.375 "/>
<path style=" stroke:none;fill-rule:nonzero;fill:rgb(85.490196%,18.431373%,27.843137%);fill-opacity:1;" d="M 9.582031 2.917969 C 9.582031 4.066406 8.652344 5 7.5 5 C 6.347656 5 5.417969 4.066406 5.417969 2.917969 C 5.417969 1.765625 6.347656 0.832031 7.5 0.832031 C 8.652344 0.832031 9.582031 1.765625 9.582031 2.917969 Z M 9.582031 2.917969 "/>
<path style=" stroke:none;fill-rule:nonzero;fill:rgb(19.215686%,21.568627%,23.921569%);fill-opacity:1;" d="M 10.417969 10.832031 C 10.417969 11.292969 10.042969 11.667969 9.582031 11.667969 L 5.417969 11.667969 C 4.957031 11.667969 4.582031 11.292969 4.582031 10.832031 L 4.582031 10.417969 C 4.582031 9.957031 6.207031 7.917969 6.667969 7.917969 L 8.332031 7.917969 C 8.792969 7.917969 10.417969 9.957031 10.417969 10.417969 Z M 10.417969 10.832031 "/>
<path style=" stroke:none;fill-rule:nonzero;fill:rgb(40%,45.882353%,49.803922%);fill-opacity:1;" d="M 13.75 11.667969 C 13.75 11.898438 13.5625 12.082031 13.332031 12.082031 L 1.667969 12.082031 C 1.4375 12.082031 1.25 11.898438 1.25 11.667969 C 1.25 11.4375 1.4375 11.25 1.667969 11.25 L 13.332031 11.25 C 13.5625 11.25 13.75 11.4375 13.75 11.667969 Z M 13.75 11.667969 "/>
</g>
</svg>
