<?xml version="1.0" encoding="UTF-8"?>
<svg xmlns="http://www.w3.org/2000/svg" xmlns:xlink="http://www.w3.org/1999/xlink" width="15pt" height="15pt" viewBox="0 0 15 15" version="1.1">
<g id="surface1">
<path style=" stroke:none;fill-rule:nonzero;fill:rgb(19.215686%,21.568627%,23.921569%);fill-opacity:1;" d="M 6.25 7.082031 C 6.164062 7.082031 6.074219 7.054688 6 7 C 4.109375 5.582031 2.898438 3.160156 2.917969 0.832031 C 2.917969 0.601562 3.089844 0.425781 3.335938 0.417969 C 3.566406 0.417969 3.75 0.605469 3.75 0.835938 C 3.734375 2.910156 4.8125 5.070312 6.5 6.332031 C 6.683594 6.472656 6.722656 6.734375 6.582031 6.917969 C 6.5 7.027344 6.375 7.082031 6.25 7.082031 Z M 6.25 7.082031 "/>
<path style=" stroke:none;fill-rule:nonzero;fill:rgb(19.215686%,21.568627%,23.921569%);fill-opacity:1;" d="M 6.667969 7.917969 C 6.507812 7.917969 2.804688 7.875 1.285156 4.332031 C 1.191406 4.121094 1.292969 3.875 1.503906 3.785156 C 1.714844 3.691406 1.960938 3.792969 2.050781 4.003906 C 3.355469 7.046875 6.53125 7.082031 6.667969 7.082031 C 6.898438 7.082031 7.082031 7.269531 7.082031 7.5 C 7.082031 7.730469 6.898438 7.917969 6.667969 7.917969 Z M 6.667969 7.917969 "/>
<path style=" stroke:none;fill-rule:nonzero;fill:rgb(19.215686%,21.568627%,23.921569%);fill-opacity:1;" d="M 1.667969 12.082031 C 1.625 12.082031 1.578125 12.078125 1.535156 12.0625 C 1.316406 11.988281 1.199219 11.753906 1.273438 11.535156 C 1.851562 9.800781 3.238281 7.761719 6.566406 7.914062 C 6.609375 7.914062 6.644531 7.917969 6.667969 7.917969 C 6.898438 7.917969 7.082031 8.101562 7.082031 8.332031 C 7.082031 8.5625 6.898438 8.75 6.667969 8.75 C 6.636719 8.75 6.589844 8.746094 6.53125 8.746094 C 4.277344 8.648438 2.769531 9.671875 2.0625 11.796875 C 2.003906 11.972656 1.839844 12.082031 1.667969 12.082031 Z M 1.667969 12.082031 "/>
<path style=" stroke:none;fill-rule:nonzero;fill:rgb(19.215686%,21.568627%,23.921569%);fill-opacity:1;" d="M 3.332031 15 C 3.101562 15 2.917969 14.8125 2.917969 14.582031 C 2.917969 12.710938 4.261719 9.289062 6.453125 7.976562 C 6.648438 7.859375 6.90625 7.921875 7.023438 8.121094 C 7.140625 8.316406 7.078125 8.574219 6.878906 8.691406 C 5 9.820312 3.75 12.984375 3.75 14.582031 C 3.75 14.8125 3.5625 15 3.332031 15 Z M 8.75 7.082031 C 8.625 7.082031 8.5 7.027344 8.417969 6.917969 C 8.277344 6.734375 8.316406 6.472656 8.5 6.332031 C 10.1875 5.070312 11.265625 2.910156 11.25 0.835938 C 11.25 0.605469 11.433594 0.417969 11.664062 0.417969 L 11.667969 0.417969 C 11.894531 0.417969 12.082031 0.601562 12.082031 0.832031 C 12.101562 3.160156 10.890625 5.582031 9 7 C 8.925781 7.054688 8.835938 7.082031 8.75 7.082031 Z M 8.75 7.082031 "/>
<path style=" stroke:none;fill-rule:nonzero;fill:rgb(19.215686%,21.568627%,23.921569%);fill-opacity:1;" d="M 8.332031 7.917969 C 8.101562 7.917969 7.917969 7.730469 7.917969 7.5 C 7.917969 7.269531 8.101562 7.082031 8.332031 7.082031 C 8.46875 7.082031 11.644531 7.046875 12.949219 4.003906 C 13.042969 3.792969 13.285156 3.691406 13.496094 3.785156 C 13.707031 3.875 13.808594 4.121094 13.714844 4.332031 C 12.195312 7.875 8.492188 7.917969 8.332031 7.917969 Z M 8.332031 7.917969 "/>
<path style=" stroke:none;fill-rule:nonzero;fill:rgb(19.215686%,21.568627%,23.921569%);fill-opacity:1;" d="M 13.332031 12.082031 C 13.160156 12.082031 12.996094 11.972656 12.9375 11.796875 C 12.230469 9.671875 10.734375 8.648438 8.46875 8.746094 C 8.410156 8.746094 8.363281 8.75 8.332031 8.75 C 8.101562 8.75 7.917969 8.5625 7.917969 8.332031 C 7.917969 8.101562 8.101562 7.917969 8.332031 7.917969 C 8.355469 7.917969 8.390625 7.914062 8.433594 7.914062 C 11.757812 7.761719 13.152344 9.800781 13.726562 11.535156 C 13.800781 11.753906 13.683594 11.988281 13.464844 12.0625 C 13.421875 12.078125 13.375 12.082031 13.332031 12.082031 Z M 13.332031 12.082031 "/>
<path style=" stroke:none;fill-rule:nonzero;fill:rgb(19.215686%,21.568627%,23.921569%);fill-opacity:1;" d="M 11.667969 15 C 11.4375 15 11.25 14.8125 11.25 14.582031 C 11.25 12.984375 10 9.820312 8.117188 8.691406 C 7.921875 8.570312 7.859375 8.316406 7.976562 8.117188 C 8.09375 7.921875 8.347656 7.859375 8.546875 7.976562 C 10.738281 9.289062 12.082031 12.710938 12.082031 14.582031 C 12.082031 14.8125 11.898438 15 11.667969 15 Z M 11.667969 15 "/>
<path style=" stroke:none;fill-rule:nonzero;fill:rgb(19.215686%,21.568627%,23.921569%);fill-opacity:1;" d="M 10 10.503906 C 10 8.941406 8.878906 7.671875 7.5 7.671875 C 6.121094 7.671875 5 8.941406 5 10.503906 C 5 12.066406 6.121094 13.332031 7.5 13.332031 C 8.878906 13.332031 10 12.066406 10 10.503906 Z M 10 10.503906 "/>
<path style=" stroke:none;fill-rule:nonzero;fill:rgb(19.215686%,21.568627%,23.921569%);fill-opacity:1;" d="M 9.167969 7.082031 C 9.167969 5.703125 8.421875 4.582031 7.5 4.582031 C 6.578125 4.582031 5.832031 5.703125 5.832031 7.082031 C 5.832031 8.464844 6.578125 9.582031 7.5 9.582031 C 8.421875 9.582031 9.167969 8.464844 9.167969 7.082031 Z M 9.167969 7.082031 "/>
<path style=" stroke:none;fill-rule:nonzero;fill:rgb(19.215686%,21.568627%,23.921569%);fill-opacity:1;" d="M 6.667969 5.832031 C 6.558594 5.832031 6.453125 5.792969 6.371094 5.710938 C 5.832031 5.171875 5.832031 4.613281 5.832031 4.167969 C 5.832031 3.9375 6.019531 3.75 6.25 3.75 C 6.480469 3.75 6.667969 3.9375 6.667969 4.167969 C 6.667969 4.550781 6.667969 4.828125 6.960938 5.121094 C 7.125 5.285156 7.125 5.546875 6.960938 5.710938 C 6.878906 5.792969 6.773438 5.832031 6.667969 5.832031 Z M 8.332031 5.832031 C 8.226562 5.832031 8.121094 5.792969 8.039062 5.710938 C 7.875 5.546875 7.875 5.285156 8.039062 5.121094 C 8.332031 4.828125 8.332031 4.550781 8.332031 4.167969 C 8.332031 3.9375 8.519531 3.75 8.75 3.75 C 8.980469 3.75 9.167969 3.9375 9.167969 4.167969 C 9.167969 4.613281 9.167969 5.171875 8.628906 5.710938 C 8.546875 5.792969 8.441406 5.832031 8.332031 5.832031 Z M 8.332031 5.832031 "/>
</g>
</svg>
