<?xml version="1.0" encoding="UTF-8"?>
<svg xmlns="http://www.w3.org/2000/svg" xmlns:xlink="http://www.w3.org/1999/xlink" width="15pt" height="15pt" viewBox="0 0 15 15" version="1.1">
<g id="surface1">
<path style=" stroke:none;fill-rule:nonzero;fill:rgb(40%,45.882353%,49.803922%);fill-opacity:1;" d="M 13.75 15 L 13.75 14.582031 C 13.75 13.203125 12.628906 12.082031 11.25 12.082031 L 3.75 12.082031 C 2.371094 12.082031 1.25 13.203125 1.25 14.582031 L 1.25 15 Z M 11.144531 8.515625 C 11.640625 8.601562 12.238281 8.566406 12.152344 8.898438 C 11.953125 9.667969 11.066406 9.382812 10.910156 9.390625 C 10.753906 9.398438 11.144531 8.515625 11.144531 8.515625 Z M 11.144531 8.515625 "/>
<path style=" stroke:none;fill-rule:nonzero;fill:rgb(16.078431%,18.431373%,20%);fill-opacity:1;" d="M 11.277344 8.601562 C 12.058594 8.707031 12.335938 8.777344 11.761719 9 C 11.441406 9.128906 10.828125 11.003906 10.375 10.71875 C 9.921875 10.433594 11.277344 8.601562 11.277344 8.601562 Z M 11.277344 8.601562 "/>
<path style=" stroke:none;fill-rule:nonzero;fill:rgb(40%,45.882353%,49.803922%);fill-opacity:1;" d="M 3.855469 8.515625 C 3.359375 8.601562 2.765625 8.566406 2.847656 8.898438 C 3.050781 9.667969 3.933594 9.382812 4.089844 9.390625 C 4.246094 9.398438 3.855469 8.515625 3.855469 8.515625 Z M 3.855469 8.515625 "/>
<path style=" stroke:none;fill-rule:nonzero;fill:rgb(16.078431%,18.431373%,20%);fill-opacity:1;" d="M 3.726562 8.601562 C 2.945312 8.707031 2.667969 8.777344 3.242188 9 C 3.5625 9.128906 4.175781 11.003906 4.628906 10.71875 C 5.082031 10.433594 3.726562 8.601562 3.726562 8.601562 Z M 3.726562 8.601562 "/>
<path style=" stroke:none;fill-rule:nonzero;fill:rgb(100%,89.803922%,11.764706%);fill-opacity:1;" d="M 9.070312 1.671875 C 8.253906 1.410156 6.335938 1.480469 5.855469 2.105469 C 4.609375 2.128906 3.144531 3.257812 2.953125 4.746094 C 2.761719 6.21875 3.183594 6.902344 3.335938 8.007812 C 3.507812 9.265625 4.210938 9.664062 4.777344 9.832031 C 5.585938 10.90625 6.449219 10.859375 7.898438 10.859375 C 10.726562 10.859375 12.070312 8.964844 12.191406 5.753906 C 12.261719 3.808594 11.121094 2.335938 9.070312 1.671875 Z M 9.070312 1.671875 "/>
<path style=" stroke:none;fill-rule:nonzero;fill:rgb(95.294118%,82.352941%,63.529412%);fill-opacity:1;" d="M 10.6875 5.890625 C 10.414062 5.511719 10.066406 5.207031 9.296875 5.097656 C 9.585938 5.230469 9.859375 5.6875 9.898438 5.9375 C 9.933594 6.191406 9.96875 6.394531 9.742188 6.140625 C 8.828125 5.132812 7.832031 5.53125 6.847656 4.914062 C 6.160156 4.484375 5.949219 4.007812 5.949219 4.007812 C 5.949219 4.007812 5.867188 4.640625 4.820312 5.289062 C 4.519531 5.476562 4.15625 5.898438 3.957031 6.515625 C 3.8125 6.957031 3.859375 7.355469 3.859375 8.03125 C 3.859375 10.003906 5.484375 11.667969 7.496094 11.667969 C 9.503906 11.667969 11.128906 9.992188 11.128906 8.03125 C 11.128906 6.800781 11 6.324219 10.6875 5.890625 Z M 10.6875 5.890625 "/>
<path style=" stroke:none;fill-rule:nonzero;fill:rgb(75.686275%,41.176471%,30.980392%);fill-opacity:1;" d="M 7.890625 8.984375 L 7.089844 8.984375 C 6.976562 8.984375 6.886719 8.894531 6.886719 8.785156 L 6.886719 8.710938 C 6.886719 8.601562 6.976562 8.511719 7.089844 8.511719 L 7.890625 8.511719 C 8 8.511719 8.089844 8.601562 8.089844 8.710938 L 8.089844 8.785156 C 8.089844 8.894531 8 8.984375 7.890625 8.984375 "/>
<path style=" stroke:none;fill-rule:evenodd;fill:rgb(16.078431%,18.431373%,20%);fill-opacity:1;" d="M 3.191406 6.160156 C 3.253906 6.222656 3.558594 6.40625 3.621094 6.59375 C 3.683594 6.777344 3.808594 7.824219 4.175781 8.132812 C 4.558594 8.449219 6 8.332031 6.273438 8.191406 C 6.890625 7.886719 6.964844 7.027344 7.074219 6.59375 C 7.136719 6.347656 7.507812 6.347656 7.507812 6.347656 C 7.507812 6.347656 7.878906 6.347656 7.9375 6.59375 C 8.046875 7.027344 8.125 7.886719 8.742188 8.191406 C 9.015625 8.332031 10.457031 8.449219 10.839844 8.132812 C 11.207031 7.824219 11.332031 6.777344 11.394531 6.59375 C 11.453125 6.40625 11.761719 6.222656 11.824219 6.160156 C 11.886719 6.101562 11.886719 5.855469 11.824219 5.792969 C 11.699219 5.667969 10.246094 5.558594 8.679688 5.730469 C 8.367188 5.765625 8.246094 5.851562 7.507812 5.851562 C 6.765625 5.851562 6.648438 5.765625 6.335938 5.730469 C 4.769531 5.558594 3.3125 5.667969 3.191406 5.792969 C 3.128906 5.855469 3.128906 6.101562 3.191406 6.160156 Z M 3.191406 6.160156 "/>
<path style=" stroke:none;fill-rule:nonzero;fill:rgb(40%,45.882353%,49.803922%);fill-opacity:1;" d="M 3.273438 3.496094 C 3.273438 3.496094 3.839844 -0.210938 5.746094 0.0078125 C 7.210938 0.179688 7.785156 0.351562 9.007812 0.0507812 C 9.820312 -0.152344 10.703125 0.523438 11.234375 1.875 C 11.574219 2.734375 11.746094 3.558594 11.746094 3.558594 C 11.746094 3.558594 13.386719 3.398438 13.480469 4.28125 C 13.574219 5.160156 11.667969 6.246094 6.859375 6.246094 C 4.167969 6.246094 1.386719 5.261719 1.253906 4.441406 C 1.125 3.617188 3.273438 3.496094 3.273438 3.496094 Z M 3.273438 3.496094 "/>
<path style=" stroke:none;fill-rule:nonzero;fill:rgb(16.078431%,18.431373%,20%);fill-opacity:1;" d="M 3.386719 2.980469 C 3.386719 2.980469 3.273438 3.4375 3.214844 3.757812 C 3.160156 4.078125 3.308594 4.296875 4.34375 4.519531 C 5.714844 4.808594 8.792969 4.808594 10.617188 4.359375 C 11.351562 4.179688 11.820312 4.058594 11.765625 3.699219 C 11.695312 3.253906 11.683594 3.253906 11.539062 2.78125 C 11.539062 2.78125 10.921875 2.988281 10.109375 3.179688 C 9.003906 3.441406 5.957031 3.558594 4.492188 3.238281 C 3.710938 3.070312 3.386719 2.980469 3.386719 2.980469 Z M 3.328125 8.792969 C 3.179688 8.851562 4.546875 9.367188 6.445312 9.402344 C 8.433594 9.433594 9.042969 9.5625 8.589844 10.007812 C 8.113281 10.476562 8.234375 11.214844 8.269531 11.433594 C 8.300781 11.652344 9.121094 12.230469 9.1875 12.5 C 9.253906 12.769531 8.675781 14.984375 8.675781 14.984375 L 5.039062 14.878906 C 3.96875 11.191406 3.839844 11.335938 3.328125 9.210938 C 3.226562 8.789062 3.328125 8.792969 3.328125 8.792969 Z M 3.328125 8.792969 "/>
<path style=" stroke:none;fill-rule:nonzero;fill:rgb(40%,45.882353%,49.803922%);fill-opacity:1;" d="M 2.910156 8.808594 C 2.765625 8.871094 4.128906 9.382812 6.027344 9.417969 C 8.015625 9.453125 8.625 9.578125 8.171875 10.027344 C 7.695312 10.496094 7.894531 11.230469 7.929688 11.449219 C 7.964844 11.667969 8.703125 12.246094 8.773438 12.515625 C 8.839844 12.785156 8.257812 15 8.257812 15 L 4.621094 14.894531 C 3.554688 11.210938 3.421875 11.351562 2.910156 9.226562 C 2.8125 8.808594 2.910156 8.808594 2.910156 8.808594 Z M 2.910156 8.808594 "/>
<path style=" stroke:none;fill-rule:nonzero;fill:rgb(16.078431%,18.431373%,20%);fill-opacity:1;" d="M 11.6875 8.792969 C 11.835938 8.851562 10.472656 9.367188 8.570312 9.402344 C 6.585938 9.433594 5.972656 9.5625 6.429688 10.007812 C 6.90625 10.476562 7.667969 11.214844 7.632812 11.433594 C 7.601562 11.648438 5.894531 12.230469 5.828125 12.5 C 5.761719 12.769531 6.339844 14.984375 6.339844 14.984375 L 9.976562 14.878906 C 11.046875 11.191406 11.179688 11.335938 11.6875 9.210938 C 11.789062 8.789062 11.6875 8.792969 11.6875 8.792969 Z M 11.6875 8.792969 "/>
<path style=" stroke:none;fill-rule:nonzero;fill:rgb(40%,45.882353%,49.803922%);fill-opacity:1;" d="M 12.066406 8.792969 C 12.214844 8.851562 10.847656 9.367188 8.949219 9.402344 C 6.960938 9.433594 6.351562 9.5625 6.804688 10.007812 C 7.28125 10.476562 8.046875 11.214844 8.011719 11.433594 C 7.976562 11.648438 6.273438 12.230469 6.207031 12.5 C 6.140625 12.769531 6.71875 14.984375 6.71875 14.984375 L 10.324219 14.988281 C 11.394531 11.300781 11.558594 11.335938 12.066406 9.210938 C 12.167969 8.789062 12.066406 8.792969 12.066406 8.792969 Z M 12.066406 8.792969 "/>
</g>
</svg>
