<?xml version="1.0" encoding="UTF-8"?>
<svg xmlns="http://www.w3.org/2000/svg" xmlns:xlink="http://www.w3.org/1999/xlink" width="15pt" height="15pt" viewBox="0 0 15 15" version="1.1">
<g id="surface1">
<path style=" stroke:none;fill-rule:nonzero;fill:rgb(19.215686%,21.568627%,23.921569%);fill-opacity:1;" d="M 7.5 4.582031 C 3.589844 4.582031 0.417969 5.984375 0.417969 7.707031 C 0.417969 9.433594 3.589844 10.832031 7.5 10.832031 C 11.410156 10.832031 14.582031 9.433594 14.582031 7.707031 C 14.582031 5.984375 11.410156 4.582031 7.5 4.582031 Z M 7.5 4.582031 "/>
<path style=" stroke:none;fill-rule:nonzero;fill:rgb(49.019608%,54.509804%,57.647059%);fill-opacity:1;" d="M 14.113281 8.035156 C 14.144531 7.929688 14.167969 7.820312 14.167969 7.707031 C 14.167969 7.117188 13.683594 6.59375 12.917969 6.167969 L 12.917969 7.324219 C 13.367188 7.539062 13.769531 7.773438 14.113281 8.035156 Z M 2.082031 6.167969 C 1.316406 6.59375 0.832031 7.117188 0.832031 7.707031 C 0.832031 7.820312 0.855469 7.929688 0.886719 8.035156 C 1.230469 7.773438 1.632812 7.539062 2.082031 7.324219 Z M 2.082031 6.167969 "/>
<path style=" stroke:none;fill-rule:nonzero;fill:rgb(80%,83.921569%,86.666667%);fill-opacity:1;" d="M 7.5 5 C 5.515625 5 3.386719 5.441406 2.082031 6.167969 L 2.082031 7.324219 C 3.5 6.660156 5.402344 6.25 7.5 6.25 C 9.597656 6.25 11.5 6.660156 12.917969 7.324219 L 12.917969 6.167969 C 11.613281 5.441406 9.484375 5 7.5 5 Z M 7.5 5 "/>
</g>
</svg>
