<?xml version="1.0" encoding="UTF-8"?>
<svg xmlns="http://www.w3.org/2000/svg" xmlns:xlink="http://www.w3.org/1999/xlink" width="15pt" height="15pt" viewBox="0 0 15 15" version="1.1">
<g id="surface1">
<path style=" stroke:none;fill-rule:nonzero;fill:rgb(40%,12.941176%,7.45098%);fill-opacity:1;" d="M 0.832031 12.082031 L 0.417969 14.582031 L 3.75 14.582031 C 3.75 14.582031 4.167969 13.75 5 13.75 L 7.5 13.75 L 7.5 12.082031 Z M 14.167969 12.082031 L 14.582031 14.582031 L 11.25 14.582031 C 11.25 14.582031 10.832031 13.75 10 13.75 L 7.5 13.75 L 7.5 12.082031 Z M 2.5 8.332031 C 2.5 8.75 2.5 11.667969 0.832031 11.667969 L 4.167969 12.082031 Z M 12.5 8.332031 C 12.5 8.75 12.5 11.667969 14.167969 11.667969 L 10.832031 12.082031 Z M 12.5 8.332031 "/>
<path style=" stroke:none;fill-rule:nonzero;fill:rgb(40%,12.941176%,7.45098%);fill-opacity:1;" d="M 12.5 8.332031 C 12.5 11.09375 10.261719 13.332031 7.5 13.332031 C 4.738281 13.332031 2.5 11.09375 2.5 8.332031 C 2.5 5.570312 4.738281 3.332031 7.5 3.332031 C 10.261719 3.332031 12.5 5.570312 12.5 8.332031 Z M 12.5 8.332031 "/>
<path style=" stroke:none;fill-rule:nonzero;fill:rgb(62.745098%,1.568627%,11.764706%);fill-opacity:1;" d="M 4.167969 14.582031 C 4.167969 14.8125 3.980469 15 3.75 15 L 0.417969 15 C 0.1875 15 0 14.8125 0 14.582031 C 0 14.351562 0.1875 14.167969 0.417969 14.167969 L 3.75 14.167969 C 3.980469 14.167969 4.167969 14.351562 4.167969 14.582031 Z M 15 14.582031 C 15 14.8125 14.8125 15 14.582031 15 L 11.25 15 C 11.019531 15 10.832031 14.8125 10.832031 14.582031 C 10.832031 14.351562 11.019531 14.167969 11.25 14.167969 L 14.582031 14.167969 C 14.8125 14.167969 15 14.351562 15 14.582031 Z M 14.582031 12.082031 C 14.582031 12.3125 14.398438 12.5 14.167969 12.5 L 0.832031 12.5 C 0.601562 12.5 0.417969 12.3125 0.417969 12.082031 C 0.417969 11.851562 0.601562 11.667969 0.832031 11.667969 L 14.167969 11.667969 C 14.398438 11.667969 14.582031 11.851562 14.582031 12.082031 Z M 14.582031 12.082031 "/>
<path style=" stroke:none;fill-rule:nonzero;fill:rgb(100%,67.45098%,20%);fill-opacity:1;" d="M 11.25 8.332031 C 11.25 10.40625 9.570312 12.082031 7.5 12.082031 C 5.429688 12.082031 3.75 10.40625 3.75 8.332031 C 3.75 6.261719 5.429688 4.582031 7.5 4.582031 C 9.570312 4.582031 11.25 6.261719 11.25 8.332031 Z M 11.25 8.332031 "/>
<path style=" stroke:none;fill-rule:nonzero;fill:rgb(96.078431%,97.254902%,98.039216%);fill-opacity:1;" d="M 10.832031 8.332031 C 10.832031 10.175781 9.339844 11.667969 7.5 11.667969 C 5.660156 11.667969 4.167969 10.175781 4.167969 8.332031 C 4.167969 6.492188 5.660156 5 7.5 5 C 9.339844 5 10.832031 6.492188 10.832031 8.332031 Z M 10.832031 8.332031 "/>
<path style=" stroke:none;fill-rule:nonzero;fill:rgb(75.686275%,41.176471%,30.980392%);fill-opacity:1;" d="M 7.5 8.332031 C 7.5 8.332031 7.449219 8.75 6.875 8.75 C 6.300781 8.75 5.417969 8.332031 5.417969 8.332031 C 5.417969 8.332031 6.300781 7.917969 6.875 7.917969 C 7.449219 7.917969 7.5 8.332031 7.5 8.332031 Z M 7.5 8.332031 "/>
<path style=" stroke:none;fill-rule:nonzero;fill:rgb(75.686275%,41.176471%,30.980392%);fill-opacity:1;" d="M 7.917969 6.875 C 7.917969 7.679688 7.730469 8.332031 7.5 8.332031 C 7.269531 8.332031 7.082031 7.679688 7.082031 6.875 C 7.082031 6.070312 7.5 5.417969 7.5 5.417969 C 7.5 5.417969 7.917969 6.070312 7.917969 6.875 Z M 7.917969 6.875 "/>
<path style=" stroke:none;fill-rule:nonzero;fill:rgb(40%,12.941176%,7.45098%);fill-opacity:1;" d="M 7.746094 8.332031 C 7.746094 8.46875 7.636719 8.578125 7.5 8.578125 C 7.363281 8.578125 7.253906 8.46875 7.253906 8.332031 C 7.253906 8.199219 7.363281 8.089844 7.5 8.089844 C 7.636719 8.089844 7.746094 8.199219 7.746094 8.332031 Z M 7.746094 8.332031 "/>
</g>
</svg>
