<?xml version="1.0" encoding="UTF-8"?>
<svg xmlns="http://www.w3.org/2000/svg" xmlns:xlink="http://www.w3.org/1999/xlink" width="15pt" height="15pt" viewBox="0 0 15 15" version="1.1">
<g id="surface1">
<path style=" stroke:none;fill-rule:nonzero;fill:rgb(100%,86.27451%,36.470588%);fill-opacity:1;" d="M 5.832031 9.167969 C 5.832031 9.398438 5.648438 9.582031 5.417969 9.582031 C 5.1875 9.582031 5 9.398438 5 9.167969 L 5 5.832031 C 5 5.601562 5.1875 5.417969 5.417969 5.417969 C 5.648438 5.417969 5.832031 5.601562 5.832031 5.832031 Z M 10 9.167969 C 10 9.398438 9.8125 9.582031 9.582031 9.582031 C 9.351562 9.582031 9.167969 9.398438 9.167969 9.167969 L 9.167969 5.832031 C 9.167969 5.601562 9.351562 5.417969 9.582031 5.417969 C 9.8125 5.417969 10 5.601562 10 5.832031 Z M 10 9.167969 "/>
<path style=" stroke:none;fill-rule:nonzero;fill:rgb(40%,45.882353%,49.803922%);fill-opacity:1;" d="M 7.917969 7.917969 L 5.832031 7.917969 L 6.25 12.5 L 7.5 12.5 L 7.5 9.582031 L 7.5 12.5 L 8.75 12.5 L 9.167969 7.917969 Z M 7.917969 7.917969 "/>
<path style=" stroke:none;fill-rule:nonzero;fill:rgb(32.941176%,38.039216%,43.921569%);fill-opacity:1;" d="M 7.5 9.582031 C 7.269531 9.582031 7.082031 12.5 7.082031 12.5 C 7.082031 12.730469 7.269531 12.5 7.5 12.5 C 7.730469 12.5 7.917969 12.730469 7.917969 12.5 C 7.917969 12.5 7.730469 9.582031 7.5 9.582031 Z M 7.5 9.582031 "/>
<path style=" stroke:none;fill-rule:nonzero;fill:rgb(16.078431%,18.431373%,20%);fill-opacity:1;" d="M 9.238281 4.847656 C 8.742188 4.734375 8.335938 4.582031 8.335938 4.582031 L 6.667969 4.582031 C 6.667969 4.582031 6.257812 4.734375 5.761719 4.847656 C 5.210938 4.976562 5 5.210938 5 5.667969 L 5 8.75 L 5.832031 8.75 L 5.832031 9.167969 L 6.667969 9.167969 L 7.5 8.75 L 8.335938 9.167969 L 9.167969 9.167969 L 9.167969 8.75 L 10 8.75 L 10 5.667969 C 10 5.210938 9.789062 4.976562 9.238281 4.847656 Z M 6.933594 12.28125 C 7.394531 12.28125 7.496094 12.347656 7.5 12.5 C 7.519531 13.074219 6.753906 13.949219 6.191406 13.742188 C 5.832031 13.609375 6.015625 12.949219 6.25 12.5 C 6.34375 12.316406 6.652344 12.28125 6.933594 12.28125 Z M 6.933594 12.28125 "/>
<path style=" stroke:none;fill-rule:nonzero;fill:rgb(16.078431%,18.431373%,20%);fill-opacity:1;" d="M 8.066406 12.28125 C 7.605469 12.28125 7.503906 12.347656 7.5 12.5 C 7.480469 13.074219 8.246094 13.949219 8.808594 13.742188 C 9.167969 13.609375 8.984375 12.949219 8.75 12.5 C 8.65625 12.316406 8.351562 12.28125 8.066406 12.28125 Z M 8.066406 12.28125 "/>
<path style=" stroke:none;fill-rule:nonzero;fill:rgb(100%,67.45098%,20%);fill-opacity:1;" d="M 8.046875 1.089844 C 7.765625 0.996094 7.101562 1.023438 6.933594 1.238281 C 6.5 1.246094 5.996094 1.636719 5.929688 2.152344 C 5.863281 2.664062 6.007812 2.898438 6.0625 3.28125 C 6.121094 3.71875 6.363281 3.855469 6.558594 3.914062 C 6.839844 4.285156 7.140625 4.269531 7.640625 4.269531 C 8.621094 4.269531 9.085938 3.613281 9.128906 2.5 C 9.152344 1.828125 8.757812 1.316406 8.046875 1.089844 Z M 8.046875 1.089844 "/>
<path style=" stroke:none;fill-rule:nonzero;fill:rgb(100%,86.27451%,36.470588%);fill-opacity:1;" d="M 7 3.988281 L 8.003906 3.988281 L 8.003906 5.246094 L 7 5.246094 Z M 7 3.988281 "/>
<path style=" stroke:none;fill-rule:nonzero;fill:rgb(100%,86.27451%,36.470588%);fill-opacity:1;" d="M 8.609375 2.550781 C 8.511719 2.417969 8.390625 2.3125 8.125 2.273438 C 8.226562 2.320312 8.320312 2.480469 8.332031 2.566406 C 8.347656 2.652344 8.359375 2.722656 8.28125 2.636719 C 7.964844 2.285156 7.617188 2.425781 7.277344 2.210938 C 7.039062 2.0625 6.964844 1.898438 6.964844 1.898438 C 6.964844 1.898438 6.9375 2.117188 6.574219 2.339844 C 6.46875 2.40625 6.34375 2.550781 6.277344 2.765625 C 6.226562 2.917969 6.242188 3.054688 6.242188 3.289062 C 6.242188 3.976562 6.804688 4.550781 7.5 4.550781 C 8.195312 4.550781 8.761719 3.96875 8.761719 3.289062 C 8.761719 2.863281 8.714844 2.699219 8.609375 2.550781 Z M 8.609375 2.550781 "/>
<path style=" stroke:none;fill-rule:nonzero;fill:rgb(75.686275%,41.176471%,30.980392%);fill-opacity:1;" d="M 8.0625 3.988281 L 6.941406 3.988281 C 6.941406 3.988281 7.082031 4.269531 7.5 4.269531 C 7.921875 4.269531 8.0625 3.988281 8.0625 3.988281 Z M 7.640625 3.640625 L 7.359375 3.640625 C 7.324219 3.640625 7.292969 3.609375 7.292969 3.570312 C 7.292969 3.53125 7.324219 3.5 7.359375 3.5 L 7.640625 3.5 C 7.679688 3.5 7.710938 3.53125 7.710938 3.570312 C 7.710938 3.609375 7.679688 3.640625 7.640625 3.640625 Z M 7.640625 3.640625 "/>
<path style=" stroke:none;fill-rule:nonzero;fill:rgb(32.941176%,38.039216%,43.921569%);fill-opacity:1;" d="M 8.25 5.5 L 8.78125 5 L 8.546875 4.632812 L 8.335938 4.582031 L 8.242188 4.820312 Z M 8.25 5.5 "/>
<path style=" stroke:none;fill-rule:nonzero;fill:rgb(40%,45.882353%,49.803922%);fill-opacity:1;" d="M 7.5 7.5 L 8.789062 5.398438 L 8.261719 4.832031 Z M 7.5 7.5 "/>
<path style=" stroke:none;fill-rule:nonzero;fill:rgb(32.941176%,38.039216%,43.921569%);fill-opacity:1;" d="M 6.75 5.5 L 6.21875 5 L 6.457031 4.632812 L 6.667969 4.582031 L 6.757812 4.820312 Z M 6.75 5.5 "/>
<path style=" stroke:none;fill-rule:nonzero;fill:rgb(40%,45.882353%,49.803922%);fill-opacity:1;" d="M 7.5 7.5 L 6.207031 5.398438 L 6.738281 4.832031 Z M 7.5 7.5 "/>
<path style=" stroke:none;fill-rule:nonzero;fill:rgb(88.235294%,90.980392%,92.941176%);fill-opacity:1;" d="M 7.5 7.5 L 6.667969 4.582031 L 7.5 5 L 8.332031 4.582031 Z M 7.5 7.5 "/>
<path style=" stroke:none;fill-rule:nonzero;fill:rgb(16.078431%,18.431373%,20%);fill-opacity:1;" d="M 7.917969 5 L 7.5 4.828125 L 7.082031 5 L 7.449219 5.367188 L 7.117188 6.164062 L 7.5 7.5 L 7.882812 6.164062 L 7.550781 5.367188 Z M 7.917969 5 "/>
<path style=" stroke:none;fill-rule:nonzero;fill:rgb(96.078431%,97.254902%,98.039216%);fill-opacity:1;" d="M 6.902344 4.402344 L 7.5 4.828125 L 7.109375 5.242188 L 6.667969 4.582031 Z M 8.097656 4.402344 L 7.5 4.828125 L 7.890625 5.242188 L 8.332031 4.582031 Z M 8.097656 4.402344 "/>
<path style=" stroke:none;fill-rule:nonzero;fill:rgb(60%,66.666667%,70.980392%);fill-opacity:1;" d="M 10 14.582031 C 10 14.351562 8.878906 14.167969 7.5 14.167969 C 6.121094 14.167969 5 14.351562 5 14.582031 C 5 14.8125 6.121094 15 7.5 15 C 8.878906 15 10 14.8125 10 14.582031 Z M 10 14.582031 "/>
<path style=" stroke:none;fill-rule:nonzero;fill:rgb(16.078431%,18.431373%,20%);fill-opacity:1;" d="M 8.46875 1.65625 C 8.722656 1.589844 8.921875 1.484375 8.921875 1.484375 C 8.921875 1.484375 8.863281 1.246094 8.804688 1.089844 C 8.621094 0.609375 8.316406 0.371094 8.035156 0.441406 C 7.609375 0.546875 7.410156 0.488281 6.90625 0.425781 C 6.398438 0.367188 6.164062 1.128906 6.085938 1.484375 C 6.085938 1.484375 6.21875 1.601562 6.460938 1.652344 C 6.46875 1.65625 6.480469 1.65625 6.492188 1.660156 C 5.617188 1.699219 5.328125 1.804688 5.328125 2.015625 C 5.328125 2.289062 6.304688 2.570312 7.503906 2.570312 C 8.703125 2.570312 9.679688 2.289062 9.679688 2.015625 C 9.679688 1.800781 9.378906 1.695312 8.46875 1.65625 Z M 8.46875 1.65625 "/>
<path style=" stroke:none;fill-rule:nonzero;fill:rgb(40%,45.882353%,49.803922%);fill-opacity:1;" d="M 8.992188 1.761719 C 8.988281 1.730469 8.980469 1.699219 8.976562 1.667969 C 8.953125 1.574219 8.921875 1.484375 8.921875 1.484375 C 8.921875 1.484375 8.464844 1.664062 7.503906 1.664062 C 6.542969 1.664062 6.085938 1.484375 6.085938 1.484375 C 6.085938 1.484375 6.050781 1.574219 6.03125 1.667969 C 6.023438 1.699219 6.019531 1.730469 6.015625 1.761719 C 5.992188 1.875 6.046875 1.953125 6.417969 2.03125 C 6.667969 2.082031 7.074219 2.132812 7.503906 2.121094 C 7.929688 2.132812 8.339844 2.082031 8.589844 2.03125 C 8.960938 1.953125 9.011719 1.875 8.992188 1.761719 Z M 8.992188 1.761719 "/>
<path style=" stroke:none;fill-rule:nonzero;fill:rgb(16.078431%,18.431373%,20%);fill-opacity:1;" d="M 8.953125 2.457031 L 8.554688 2.589844 C 8.414062 2.570312 8.125 2.5625 7.816406 2.59375 C 7.734375 2.605469 7.703125 2.628906 7.507812 2.628906 C 7.3125 2.628906 7.28125 2.605469 7.199219 2.59375 C 6.890625 2.5625 6.597656 2.570312 6.457031 2.589844 L 6.058594 2.457031 C 6.019531 2.441406 5.980469 2.464844 5.964844 2.503906 C 5.953125 2.542969 5.972656 2.582031 6.011719 2.59375 L 6.386719 2.71875 C 6.414062 2.738281 6.472656 2.78125 6.484375 2.820312 C 6.503906 2.871094 6.535156 3.179688 6.632812 3.261719 C 6.730469 3.34375 7.109375 3.3125 7.183594 3.277344 C 7.34375 3.195312 7.363281 2.9375 7.394531 2.820312 C 7.410156 2.757812 7.507812 2.757812 7.507812 2.757812 C 7.507812 2.757812 7.601562 2.757812 7.621094 2.820312 C 7.648438 2.9375 7.667969 3.199219 7.828125 3.277344 C 7.902344 3.316406 8.28125 3.34375 8.378906 3.261719 C 8.476562 3.179688 8.511719 2.871094 8.527344 2.820312 C 8.539062 2.78125 8.597656 2.738281 8.628906 2.71875 L 9 2.597656 C 9.039062 2.582031 9.058594 2.542969 9.046875 2.503906 C 9.035156 2.464844 8.992188 2.445312 8.953125 2.457031 Z M 8.953125 2.457031 "/>
</g>
</svg>
