<?xml version="1.0" encoding="UTF-8"?>
<svg xmlns="http://www.w3.org/2000/svg" xmlns:xlink="http://www.w3.org/1999/xlink" width="15pt" height="15pt" viewBox="0 0 15 15" version="1.1">
<g id="surface1">
<path style=" stroke:none;fill-rule:nonzero;fill:rgb(16.078431%,18.431373%,20%);fill-opacity:1;" d="M 10.898438 14.691406 C 10.898438 14.675781 10.875 14.601562 10.875 14.601562 L 10.851562 14.613281 L 10.855469 14.558594 C 10.84375 14.316406 10.601562 14.34375 10.570312 14.34375 C 10.542969 14.339844 10.445312 14.34375 10.324219 14.328125 C 10.203125 14.316406 10.085938 14.285156 9.984375 14.222656 C 9.863281 14.152344 9.699219 14.027344 9.558594 13.945312 C 9.421875 13.863281 9.246094 13.765625 9.246094 13.765625 C 9.246094 13.765625 9.089844 14.046875 8.773438 14.035156 C 8.605469 14.03125 8.335938 13.898438 8.304688 13.886719 C 8.257812 13.875 8.238281 13.898438 8.21875 13.933594 C 8.199219 13.972656 8.128906 14.21875 8.128906 14.355469 C 8.128906 14.4375 8.140625 14.492188 8.148438 14.523438 L 8.125 14.515625 C 8.113281 14.511719 8.105469 14.519531 8.105469 14.53125 L 8.105469 14.816406 C 8.105469 14.835938 8.121094 14.878906 8.167969 14.890625 C 8.21875 14.898438 8.902344 14.957031 8.929688 14.933594 C 8.953125 14.914062 8.980469 14.839844 9.003906 14.828125 C 9.027344 14.816406 9.253906 14.867188 9.363281 14.894531 C 9.46875 14.917969 9.652344 14.960938 9.871094 14.960938 C 10.085938 14.960938 10.367188 14.898438 10.539062 14.855469 C 10.710938 14.8125 10.847656 14.753906 10.878906 14.734375 C 10.910156 14.714844 10.902344 14.707031 10.898438 14.691406 Z M 10.898438 14.691406 "/>
<path style=" stroke:none;fill-rule:nonzero;fill:rgb(29.411765%,32.941176%,36.470588%);fill-opacity:1;" d="M 8.828125 14.753906 L 8.660156 14.632812 C 8.660156 14.628906 9.003906 14.15625 9.675781 14.355469 C 9.714844 14.300781 9.769531 14.21875 9.824219 14.128906 L 10.003906 14.238281 C 9.902344 14.402344 9.800781 14.535156 9.796875 14.542969 L 9.75 14.601562 L 9.679688 14.574219 C 9.105469 14.371094 8.832031 14.746094 8.828125 14.753906 Z M 8.828125 14.753906 "/>
<path style=" stroke:none;fill-rule:nonzero;fill:rgb(16.078431%,18.431373%,20%);fill-opacity:1;" d="M 5.945312 14.691406 C 5.941406 14.675781 5.921875 14.601562 5.921875 14.601562 L 5.898438 14.613281 L 5.898438 14.558594 C 5.890625 14.316406 5.648438 14.34375 5.617188 14.34375 C 5.589844 14.339844 5.492188 14.34375 5.371094 14.328125 C 5.246094 14.316406 5.132812 14.285156 5.027344 14.222656 C 4.910156 14.152344 4.746094 14.027344 4.605469 13.945312 C 4.464844 13.863281 4.289062 13.765625 4.289062 13.765625 C 4.289062 13.765625 4.136719 14.046875 3.820312 14.035156 C 3.652344 14.03125 3.382812 13.898438 3.347656 13.886719 C 3.304688 13.875 3.28125 13.898438 3.265625 13.933594 C 3.246094 13.972656 3.175781 14.21875 3.175781 14.355469 C 3.175781 14.4375 3.1875 14.492188 3.195312 14.523438 L 3.171875 14.515625 C 3.160156 14.511719 3.152344 14.519531 3.152344 14.53125 L 3.152344 14.816406 C 3.152344 14.835938 3.167969 14.878906 3.214844 14.890625 C 3.265625 14.898438 3.949219 14.957031 3.972656 14.933594 C 4 14.914062 4.027344 14.839844 4.050781 14.828125 C 4.074219 14.816406 4.300781 14.867188 4.410156 14.894531 C 4.515625 14.917969 4.699219 14.960938 4.914062 14.960938 C 5.132812 14.960938 5.410156 14.898438 5.585938 14.855469 C 5.757812 14.8125 5.894531 14.753906 5.925781 14.734375 C 5.957031 14.714844 5.945312 14.707031 5.945312 14.691406 Z M 5.945312 14.691406 "/>
<path style=" stroke:none;fill-rule:nonzero;fill:rgb(29.411765%,32.941176%,36.470588%);fill-opacity:1;" d="M 3.875 14.753906 L 3.703125 14.632812 C 3.707031 14.628906 4.046875 14.152344 4.722656 14.355469 C 4.757812 14.300781 4.816406 14.21875 4.871094 14.128906 L 5.050781 14.238281 C 4.949219 14.402344 4.847656 14.535156 4.839844 14.542969 L 4.796875 14.601562 L 4.722656 14.574219 C 4.15625 14.371094 3.886719 14.738281 3.875 14.753906 Z M 3.875 14.753906 "/>
<path style=" stroke:none;fill-rule:nonzero;fill:rgb(48.627451%,32.54902%,24.313725%);fill-opacity:1;" d="M 11.941406 0.757812 C 11.863281 0.71875 11.824219 0.800781 11.824219 0.800781 L 11.667969 1.136719 C 11.671875 1.132812 11.632812 1.109375 11.636719 1.101562 L 11.867188 0.601562 C 11.867188 0.601562 11.90625 0.523438 11.824219 0.488281 C 11.746094 0.449219 11.710938 0.527344 11.710938 0.527344 L 11.6875 0.578125 L 11.492188 1 C 11.492188 0.996094 11.453125 0.980469 11.453125 0.976562 L 11.710938 0.421875 C 11.710938 0.421875 11.75 0.34375 11.667969 0.304688 C 11.589844 0.269531 11.550781 0.347656 11.550781 0.347656 L 11.292969 0.902344 C 11.292969 0.90625 11.253906 0.886719 11.253906 0.890625 L 11.464844 0.429688 C 11.464844 0.429688 11.503906 0.347656 11.425781 0.3125 C 11.34375 0.273438 11.308594 0.355469 11.308594 0.355469 L 11.015625 0.984375 C 10.996094 1.027344 10.957031 1.027344 10.941406 1.015625 C 10.898438 0.984375 10.921875 0.90625 10.90625 0.839844 C 10.890625 0.734375 10.828125 0.664062 10.761719 0.664062 C 10.6875 0.664062 10.675781 0.722656 10.679688 0.742188 C 10.691406 0.78125 10.710938 0.847656 10.734375 0.953125 C 10.746094 1.027344 10.726562 1.089844 10.726562 1.089844 C 10.714844 1.117188 10.691406 1.21875 10.710938 1.339844 C 10.722656 1.410156 10.746094 1.484375 10.796875 1.554688 L 10.65625 1.855469 L 11.285156 2.128906 L 11.4375 1.730469 C 11.546875 1.679688 11.644531 1.597656 11.699219 1.476562 L 11.71875 1.4375 L 11.980469 0.875 C 11.984375 0.871094 12.019531 0.792969 11.941406 0.757812 Z M 11.941406 0.757812 "/>
<path style=" stroke:none;fill-rule:nonzero;fill:rgb(34.509804%,20.784314%,16.078431%);fill-opacity:1;" d="M 10.976562 1.019531 C 10.996094 1.011719 11.003906 1.003906 11.007812 0.992188 C 11.078125 1.039062 11.171875 1.105469 11.214844 1.21875 C 11.269531 1.367188 11.238281 1.480469 11.203125 1.550781 C 11.175781 1.609375 11.128906 1.621094 11.160156 1.53125 C 11.199219 1.421875 11.222656 1.171875 10.972656 1.03125 L 10.949219 1.019531 C 10.949219 1.019531 10.964844 1.023438 10.976562 1.019531 Z M 10.976562 1.019531 "/>
<path style=" stroke:none;fill-rule:nonzero;fill:rgb(48.627451%,32.54902%,24.313725%);fill-opacity:1;" d="M 4.75 8.488281 C 4.71875 8.460938 4.664062 8.417969 4.589844 8.34375 C 4.535156 8.289062 4.519531 8.226562 4.519531 8.226562 C 4.511719 8.195312 4.476562 8.097656 4.394531 8.007812 C 4.34375 7.953125 4.28125 7.90625 4.203125 7.875 L 4.152344 7.550781 L 3.480469 7.667969 L 3.570312 8.085938 C 3.507812 8.1875 3.472656 8.308594 3.492188 8.441406 L 3.5 8.484375 L 3.589844 9.097656 C 3.589844 9.097656 3.605469 9.1875 3.691406 9.171875 C 3.777344 9.160156 3.765625 9.074219 3.765625 9.074219 L 3.707031 8.703125 C 3.710938 8.710938 3.753906 8.710938 3.753906 8.714844 L 3.835938 9.261719 C 3.835938 9.261719 3.847656 9.347656 3.9375 9.335938 C 4.023438 9.320312 4.007812 9.234375 4.007812 9.234375 L 4 9.183594 L 3.933594 8.722656 C 3.933594 8.722656 3.976562 8.71875 3.976562 8.71875 L 4.066406 9.324219 C 4.066406 9.324219 4.082031 9.410156 4.167969 9.398438 C 4.253906 9.386719 4.242188 9.296875 4.242188 9.296875 L 4.148438 8.691406 C 4.148438 8.691406 4.191406 8.683594 4.191406 8.683594 L 4.265625 9.183594 C 4.265625 9.183594 4.28125 9.269531 4.367188 9.257812 C 4.453125 9.246094 4.441406 9.15625 4.441406 9.15625 L 4.335938 8.472656 C 4.328125 8.425781 4.359375 8.402344 4.378906 8.40625 C 4.433594 8.40625 4.457031 8.484375 4.503906 8.535156 C 4.578125 8.609375 4.667969 8.632812 4.726562 8.597656 C 4.785156 8.558594 4.765625 8.503906 4.75 8.488281 Z M 4.75 8.488281 "/>
<path style=" stroke:none;fill-rule:nonzero;fill:rgb(16.078431%,18.431373%,20%);fill-opacity:1;" d="M 10.753906 1.554688 C 10.753906 1.554688 9.898438 3.355469 9.796875 3.414062 C 9.707031 3.464844 9.082031 3.394531 8.253906 3.558594 C 7.429688 3.726562 7.113281 3.496094 6.269531 3.527344 C 5.777344 3.546875 5.261719 3.71875 4.921875 3.796875 C 4.410156 3.921875 3.558594 5.148438 3.320312 5.574219 C 3.136719 5.902344 3.144531 6.273438 3.183594 6.5625 C 3.214844 6.804688 3.207031 7.179688 3.527344 7.984375 L 4.242188 7.867188 C 4.242188 7.867188 4.121094 6.289062 4.222656 6.121094 C 4.265625 6.046875 4.777344 5.234375 5.183594 5.089844 L 8.59375 4.929688 C 8.59375 4.929688 10 4.726562 10.386719 4.441406 C 10.683594 4.226562 11.429688 1.835938 11.429688 1.835938 Z M 10.753906 1.554688 "/>
<path style=" stroke:none;fill-rule:nonzero;fill:rgb(48.627451%,32.54902%,24.313725%);fill-opacity:1;" d="M 6.476562 2.441406 C 6.550781 2.367188 6.648438 2.320312 6.757812 2.308594 C 7.011719 2.28125 7.242188 2.46875 7.265625 2.726562 L 7.398438 4.039062 C 7.425781 4.292969 7.238281 4.523438 6.984375 4.546875 C 6.726562 4.574219 6.5 4.386719 6.472656 4.132812 L 6.339844 2.816406 C 6.328125 2.671875 6.378906 2.535156 6.476562 2.441406 Z M 6.476562 2.441406 "/>
<path style=" stroke:none;fill-rule:nonzero;fill:rgb(48.627451%,32.54902%,24.313725%);fill-opacity:1;" d="M 8.019531 1.789062 C 8.019531 2.558594 7.472656 3.183594 6.796875 3.183594 C 6.125 3.183594 5.578125 2.558594 5.578125 1.789062 C 5.578125 1.019531 6.125 0.394531 6.796875 0.394531 C 7.472656 0.394531 8.019531 1.019531 8.019531 1.789062 Z M 8.019531 1.789062 "/>
<path style=" stroke:none;fill-rule:nonzero;fill:rgb(4.313725%,0.784314%,0%);fill-opacity:1;" d="M 7.453125 0.839844 C 7.453125 0.839844 6.980469 1.285156 6.476562 1.363281 C 6.476562 1.363281 6.175781 1.851562 6.15625 2.132812 C 6.15625 2.132812 5.96875 1.683594 5.816406 1.757812 C 5.667969 1.832031 5.609375 2.113281 5.742188 2.300781 C 5.875 2.488281 6.035156 2.8125 5.894531 2.71875 C 5.605469 2.53125 5.566406 2.398438 5.488281 2.273438 C 5.433594 2.1875 5.308594 1.882812 5.292969 1.375 C 5.285156 1.074219 5.390625 0.492188 6.003906 0.183594 C 6.539062 -0.0859375 7.375 0.0507812 7.769531 0.332031 C 8.160156 0.613281 8.257812 1.324219 8.015625 1.605469 C 8.015625 1.605469 7.980469 1.34375 7.8125 1.128906 C 7.71875 1.011719 7.453125 0.839844 7.453125 0.839844 Z M 7.453125 0.839844 "/>
<path style=" stroke:none;fill-rule:nonzero;fill:rgb(86.666667%,18.039216%,26.666667%);fill-opacity:1;" d="M 5.167969 3.949219 L 5.167969 7.804688 L 8.121094 7.792969 C 8.121094 7.792969 8.382812 6.667969 8.550781 5.898438 C 8.75 5.007812 8.101562 3.652344 8.101562 3.652344 L 7.652344 3.605469 L 7.5625 3.183594 L 7.121094 3.351562 L 7.058594 4.082031 L 6.871094 3.386719 L 6.226562 3.332031 L 6.148438 3.773438 Z M 5.167969 3.949219 "/>
<path style=" stroke:none;fill-rule:nonzero;fill:rgb(16.078431%,18.431373%,20%);fill-opacity:1;" d="M 4.910156 3.996094 C 4.910156 3.996094 5.195312 5.015625 5.070312 7.121094 C 5.996094 7.105469 6.71875 6.816406 6.71875 6.816406 C 6.71875 6.816406 6.78125 6.015625 6.625 5.3125 C 6.398438 4.28125 6.164062 3.675781 6.164062 3.675781 Z M 7.625 3.476562 C 7.625 3.476562 7.882812 4.839844 7.824219 5.65625 C 7.765625 6.46875 7.726562 6.777344 7.726562 6.777344 C 7.726562 6.777344 7.910156 6.980469 8.382812 6.972656 C 8.578125 6.460938 8.695312 5.4375 8.671875 4.8125 C 8.648438 4.152344 8.253906 3.507812 8.253906 3.507812 Z M 5.167969 7.804688 C 5.167969 7.804688 4.917969 10.71875 4.761719 11.265625 C 4.621094 11.75 3.175781 14.074219 3.175781 14.074219 C 3.175781 14.074219 3.863281 14.242188 4.523438 14.113281 C 4.523438 14.113281 5.839844 12.515625 6.183594 11.742188 C 6.285156 11.519531 6.949219 9.441406 6.949219 9.441406 C 6.949219 9.441406 7.664062 10.238281 8.144531 10.941406 C 8.445312 11.777344 8.179688 14.042969 8.179688 14.042969 C 8.179688 14.042969 8.796875 14.171875 9.386719 14.058594 C 9.386719 14.058594 9.746094 11.8125 9.660156 10.855469 C 9.644531 10.703125 9.617188 10.417969 9.558594 10.3125 C 9.300781 9.84375 8.738281 8.964844 8.382812 8.574219 C 8.058594 8.21875 8.121094 7.792969 8.121094 7.792969 Z M 5.167969 7.804688 "/>
</g>
</svg>
