<?xml version="1.0" encoding="UTF-8"?>
<svg xmlns="http://www.w3.org/2000/svg" xmlns:xlink="http://www.w3.org/1999/xlink" width="15pt" height="15pt" viewBox="0 0 15 15" version="1.1">
<g id="surface1">
<path style=" stroke:none;fill-rule:nonzero;fill:rgb(4.313725%,0.784314%,0%);fill-opacity:1;" d="M 3.726562 5.851562 C 3.824219 5.710938 3.882812 5.527344 3.882812 5.328125 C 3.882812 4.886719 3.601562 4.527344 3.253906 4.527344 C 2.902344 4.527344 2.621094 4.882812 2.621094 5.328125 C 2.621094 5.691406 2.816406 5.996094 3.078125 6.09375 C 2.980469 6.398438 1.933594 9.375 2.453125 10.425781 C 2.96875 11.476562 6.84375 11.03125 7.136719 10.554688 C 6.914062 9.710938 3.945312 7.199219 3.726562 5.851562 Z M 11.273438 5.851562 C 11.175781 5.710938 11.117188 5.527344 11.117188 5.328125 C 11.117188 4.886719 11.398438 4.527344 11.746094 4.527344 C 12.097656 4.527344 12.378906 4.882812 12.378906 5.328125 C 12.378906 5.691406 12.183594 5.996094 11.921875 6.09375 C 12.015625 6.398438 13.066406 9.375 12.546875 10.425781 C 12.03125 11.476562 8.152344 11.03125 7.863281 10.554688 C 8.085938 9.710938 11.054688 7.199219 11.273438 5.851562 Z M 11.273438 5.851562 "/>
<path style=" stroke:none;fill-rule:nonzero;fill:rgb(40%,45.882353%,49.803922%);fill-opacity:1;" d="M 13.75 15 L 13.75 14.582031 C 13.75 13.203125 12.628906 12.082031 11.25 12.082031 L 3.75 12.082031 C 2.371094 12.082031 1.25 13.203125 1.25 14.582031 L 1.25 15 Z M 11.144531 8.515625 C 11.640625 8.601562 12.238281 8.566406 12.152344 8.898438 C 11.953125 9.667969 11.066406 9.382812 10.910156 9.390625 C 10.753906 9.398438 11.144531 8.515625 11.144531 8.515625 Z M 11.144531 8.515625 "/>
<path style=" stroke:none;fill-rule:nonzero;fill:rgb(16.078431%,18.431373%,20%);fill-opacity:1;" d="M 11.277344 8.601562 C 12.058594 8.707031 12.335938 8.777344 11.761719 9 C 11.441406 9.128906 10.828125 11.003906 10.375 10.71875 C 9.921875 10.433594 11.277344 8.601562 11.277344 8.601562 Z M 11.277344 8.601562 "/>
<path style=" stroke:none;fill-rule:nonzero;fill:rgb(40%,45.882353%,49.803922%);fill-opacity:1;" d="M 3.855469 8.515625 C 3.359375 8.601562 2.765625 8.566406 2.847656 8.898438 C 3.050781 9.667969 3.933594 9.382812 4.089844 9.390625 C 4.246094 9.398438 3.855469 8.515625 3.855469 8.515625 Z M 3.855469 8.515625 "/>
<path style=" stroke:none;fill-rule:nonzero;fill:rgb(16.078431%,18.431373%,20%);fill-opacity:1;" d="M 3.726562 8.601562 C 2.945312 8.707031 2.667969 8.777344 3.242188 9 C 3.5625 9.128906 4.175781 11.003906 4.628906 10.71875 C 5.082031 10.433594 3.726562 8.601562 3.726562 8.601562 Z M 3.726562 8.601562 "/>
<path style=" stroke:none;fill-rule:nonzero;fill:rgb(48.627451%,32.54902%,24.313725%);fill-opacity:1;" d="M 11.667969 6.457031 C 11.667969 3.582031 9.800781 1.25 7.5 1.25 C 5.199219 1.25 3.332031 3.582031 3.332031 6.457031 C 3.332031 9.335938 5.199219 11.667969 7.5 11.667969 C 9.800781 11.667969 11.667969 9.335938 11.667969 6.457031 Z M 11.667969 6.457031 "/>
<path style=" stroke:none;fill-rule:nonzero;fill:rgb(23.921569%,18.039216%,14.117647%);fill-opacity:1;" d="M 7.917969 8.542969 C 7.917969 8.65625 7.824219 8.75 7.707031 8.75 L 7.292969 8.75 C 7.175781 8.75 7.082031 8.65625 7.082031 8.542969 C 7.082031 8.425781 7.175781 8.332031 7.292969 8.332031 L 7.707031 8.332031 C 7.824219 8.332031 7.917969 8.425781 7.917969 8.542969 Z M 7.917969 8.542969 "/>
<path style=" stroke:none;fill-rule:evenodd;fill:rgb(16.078431%,18.431373%,20%);fill-opacity:1;" d="M 3.191406 6.160156 C 3.253906 6.222656 3.558594 6.40625 3.621094 6.59375 C 3.683594 6.777344 3.808594 7.824219 4.175781 8.132812 C 4.558594 8.449219 6 8.332031 6.273438 8.191406 C 6.890625 7.886719 6.964844 7.027344 7.074219 6.59375 C 7.136719 6.347656 7.507812 6.347656 7.507812 6.347656 C 7.507812 6.347656 7.878906 6.347656 7.9375 6.59375 C 8.046875 7.027344 8.125 7.886719 8.742188 8.191406 C 9.015625 8.332031 10.457031 8.449219 10.839844 8.132812 C 11.207031 7.824219 11.332031 6.777344 11.394531 6.59375 C 11.453125 6.40625 11.761719 6.222656 11.824219 6.160156 C 11.886719 6.101562 11.886719 5.855469 11.824219 5.792969 C 11.699219 5.667969 10.246094 5.558594 8.679688 5.730469 C 8.367188 5.765625 8.246094 5.851562 7.507812 5.851562 C 6.765625 5.851562 6.648438 5.765625 6.335938 5.730469 C 4.769531 5.558594 3.3125 5.667969 3.191406 5.792969 C 3.128906 5.855469 3.128906 6.101562 3.191406 6.160156 Z M 3.191406 6.160156 "/>
<path style=" stroke:none;fill-rule:nonzero;fill:rgb(40%,45.882353%,49.803922%);fill-opacity:1;" d="M 3.273438 3.496094 C 3.273438 3.496094 3.839844 -0.210938 5.746094 0.0078125 C 7.210938 0.179688 7.785156 0.351562 9.007812 0.0507812 C 9.820312 -0.152344 10.703125 0.523438 11.234375 1.875 C 11.574219 2.734375 11.746094 3.558594 11.746094 3.558594 C 11.746094 3.558594 13.386719 3.398438 13.480469 4.28125 C 13.574219 5.160156 11.667969 6.246094 6.859375 6.246094 C 4.167969 6.246094 1.386719 5.261719 1.253906 4.441406 C 1.125 3.617188 3.273438 3.496094 3.273438 3.496094 Z M 3.273438 3.496094 "/>
<path style=" stroke:none;fill-rule:nonzero;fill:rgb(16.078431%,18.431373%,20%);fill-opacity:1;" d="M 3.386719 2.980469 C 3.386719 2.980469 3.273438 3.4375 3.214844 3.757812 C 3.160156 4.078125 3.308594 4.296875 4.34375 4.519531 C 5.714844 4.808594 8.792969 4.808594 10.617188 4.359375 C 11.351562 4.179688 11.820312 4.058594 11.765625 3.699219 C 11.695312 3.253906 11.683594 3.253906 11.539062 2.78125 C 11.539062 2.78125 10.921875 2.988281 10.109375 3.179688 C 9.003906 3.441406 5.960938 3.558594 4.492188 3.238281 C 3.710938 3.070312 3.386719 2.980469 3.386719 2.980469 Z M 3.328125 8.792969 C 3.179688 8.851562 4.546875 9.367188 6.445312 9.402344 C 8.433594 9.433594 9.042969 9.5625 8.589844 10.007812 C 8.113281 10.476562 8.234375 11.214844 8.269531 11.433594 C 8.300781 11.652344 9.121094 12.230469 9.1875 12.5 C 9.253906 12.769531 8.675781 14.984375 8.675781 14.984375 L 5.039062 14.878906 C 3.96875 11.191406 3.839844 11.335938 3.328125 9.210938 C 3.226562 8.789062 3.328125 8.792969 3.328125 8.792969 Z M 3.328125 8.792969 "/>
<path style=" stroke:none;fill-rule:nonzero;fill:rgb(40%,45.882353%,49.803922%);fill-opacity:1;" d="M 2.910156 8.808594 C 2.765625 8.871094 4.128906 9.382812 6.027344 9.417969 C 8.015625 9.453125 8.625 9.578125 8.171875 10.027344 L 8.257812 15 L 4.621094 14.894531 C 3.554688 11.210938 3.421875 11.351562 2.910156 9.226562 C 2.8125 8.808594 2.910156 8.808594 2.910156 8.808594 Z M 2.910156 8.808594 "/>
<path style=" stroke:none;fill-rule:nonzero;fill:rgb(16.078431%,18.431373%,20%);fill-opacity:1;" d="M 11.6875 8.792969 C 11.835938 8.851562 10.472656 9.367188 8.570312 9.402344 C 6.585938 9.433594 5.972656 9.5625 6.429688 10.007812 C 6.90625 10.476562 7.667969 11.214844 7.632812 11.433594 C 7.601562 11.648438 5.894531 12.230469 5.828125 12.5 C 5.761719 12.769531 6.339844 14.984375 6.339844 14.984375 L 9.976562 14.878906 C 11.046875 11.191406 11.179688 11.335938 11.6875 9.210938 C 11.789062 8.789062 11.6875 8.792969 11.6875 8.792969 Z M 11.6875 8.792969 "/>
<path style=" stroke:none;fill-rule:nonzero;fill:rgb(40%,45.882353%,49.803922%);fill-opacity:1;" d="M 12.066406 8.792969 C 12.214844 8.851562 10.847656 9.367188 8.949219 9.402344 C 6.960938 9.433594 6.351562 9.5625 6.804688 10.007812 C 7.28125 10.476562 8.046875 11.214844 8.011719 11.433594 C 7.976562 11.648438 6.273438 12.230469 6.207031 12.5 C 6.140625 12.769531 6.71875 14.984375 6.71875 14.984375 L 10.324219 14.988281 C 11.394531 11.300781 11.558594 11.335938 12.066406 9.210938 C 12.167969 8.789062 12.066406 8.792969 12.066406 8.792969 Z M 12.066406 8.792969 "/>
</g>
</svg>
