<?xml version="1.0" encoding="UTF-8"?>
<svg xmlns="http://www.w3.org/2000/svg" xmlns:xlink="http://www.w3.org/1999/xlink" width="15pt" height="15pt" viewBox="0 0 15 15" version="1.1">
<g id="surface1">
<path style=" stroke:none;fill-rule:nonzero;fill:rgb(60%,66.666667%,70.980392%);fill-opacity:1;" d="M 14.484375 12.378906 L 12.140625 2.714844 C 11.777344 1.210938 10.261719 0.285156 8.757812 0.648438 C 8.617188 0.683594 8.480469 0.730469 8.347656 0.785156 C 8.09375 0.507812 7.773438 0.304688 7.402344 0.203125 C 6.335938 -0.0898438 5.226562 0.539062 4.933594 1.609375 L 2.832031 9.28125 C 2.746094 9.59375 2.785156 9.921875 2.945312 10.203125 C 3.105469 10.484375 3.367188 10.6875 3.679688 10.773438 C 3.785156 10.800781 3.894531 10.816406 4.003906 10.816406 C 4.210938 10.816406 4.414062 10.761719 4.601562 10.65625 C 4.882812 10.496094 5.082031 10.234375 5.167969 9.921875 L 6.433594 5.320312 C 6.492188 5.097656 6.363281 4.867188 6.140625 4.808594 C 5.917969 4.746094 5.6875 4.875 5.628906 5.097656 L 4.367188 9.703125 C 4.339844 9.800781 4.277344 9.882812 4.1875 9.933594 C 4.101562 9.980469 3.996094 9.996094 3.898438 9.96875 C 3.800781 9.941406 3.722656 9.878906 3.671875 9.792969 C 3.621094 9.703125 3.609375 9.601562 3.632812 9.503906 L 5.738281 1.828125 C 5.910156 1.203125 6.558594 0.835938 7.179688 1.007812 C 7.339844 1.050781 7.488281 1.128906 7.613281 1.230469 C 7.382812 1.421875 7.183594 1.652344 7.023438 1.914062 C 6.632812 2.554688 6.515625 3.308594 6.691406 4.035156 L 7.105469 5.734375 L 5.375 12.042969 C 5.234375 12.550781 4.90625 12.972656 4.449219 13.234375 C 3.992188 13.496094 3.460938 13.5625 2.953125 13.421875 C 2.445312 13.285156 2.023438 12.953125 1.761719 12.496094 C 1.5 12.039062 1.433594 11.507812 1.574219 11 L 3.359375 4.476562 C 3.421875 4.257812 3.292969 4.027344 3.070312 3.964844 C 2.847656 3.90625 2.617188 4.035156 2.558594 4.257812 L 0.769531 10.78125 C 0.574219 11.503906 0.667969 12.257812 1.039062 12.910156 C 1.410156 13.558594 2.011719 14.027344 2.734375 14.226562 C 2.980469 14.292969 3.230469 14.328125 3.480469 14.328125 C 3.960938 14.328125 4.433594 14.203125 4.863281 13.957031 C 5.515625 13.585938 5.980469 12.984375 6.179688 12.261719 L 7.511719 7.40625 L 8.285156 10.609375 C 8.332031 10.796875 8.503906 10.925781 8.691406 10.925781 C 8.722656 10.925781 8.757812 10.921875 8.789062 10.914062 C 9.011719 10.859375 9.148438 10.636719 9.097656 10.410156 L 7.964844 5.746094 L 8.808594 2.671875 C 8.914062 2.285156 8.902344 1.890625 8.78125 1.519531 C 8.839844 1.5 8.894531 1.472656 8.953125 1.457031 C 10.011719 1.203125 11.078125 1.855469 11.332031 2.910156 L 13.675781 12.578125 C 13.828125 13.207031 13.441406 13.84375 12.808594 13.996094 C 12.503906 14.070312 12.191406 14.019531 11.921875 13.855469 C 11.652344 13.691406 11.464844 13.433594 11.390625 13.128906 L 9.519531 5.398438 L 9.519531 5.394531 C 9.496094 5.296875 9.511719 5.195312 9.5625 5.109375 C 9.617188 5.023438 9.699219 4.964844 9.796875 4.9375 C 10 4.890625 10.207031 5.015625 10.253906 5.21875 L 11.378906 9.859375 C 11.425781 10.050781 11.597656 10.175781 11.785156 10.175781 C 11.816406 10.175781 11.847656 10.171875 11.882812 10.164062 C 12.105469 10.109375 12.242188 9.886719 12.1875 9.664062 L 11.066406 5.023438 C 10.90625 4.371094 10.25 3.972656 9.601562 4.128906 C 9.285156 4.207031 9.019531 4.398438 8.851562 4.675781 C 8.683594 4.953125 8.632812 5.277344 8.707031 5.59375 L 10.582031 13.328125 C 10.707031 13.847656 11.027344 14.289062 11.488281 14.566406 C 11.808594 14.761719 12.164062 14.863281 12.527344 14.863281 C 12.6875 14.863281 12.847656 14.84375 13.007812 14.804688 C 14.082031 14.542969 14.746094 13.457031 14.484375 12.378906 Z M 7.734375 2.347656 C 7.820312 2.210938 7.921875 2.089844 8.035156 1.980469 C 8.054688 2.132812 8.046875 2.292969 8.003906 2.449219 L 7.558594 4.074219 L 7.503906 3.839844 C 7.378906 3.328125 7.460938 2.796875 7.734375 2.347656 Z M 7.734375 2.347656 "/>
<path style=" stroke:none;fill-rule:nonzero;fill:rgb(40%,45.882353%,49.803922%);fill-opacity:1;" d="M 7.558594 4.074219 L 7.964844 5.746094 L 8.097656 5.25 L 7.707031 3.539062 Z M 6.957031 6.265625 L 7.359375 7.945312 L 7.507812 7.40625 L 7.105469 5.734375 Z M 8.78125 1.519531 C 8.78125 1.519531 8.90625 1.464844 9.003906 1.445312 C 9.003906 1.445312 8.902344 1.023438 8.578125 0.699219 L 8.347656 0.785156 C 8.347656 0.785156 8.652344 1.101562 8.78125 1.519531 Z M 7.867188 2.160156 C 7.867188 2.160156 7.980469 2.023438 8.035156 1.980469 C 8.035156 1.980469 7.996094 1.527344 7.613281 1.230469 L 7.4375 1.390625 C 7.789062 1.621094 7.867188 2.160156 7.867188 2.160156 Z M 7.867188 2.160156 "/>
</g>
</svg>
