<?xml version="1.0" encoding="UTF-8"?>
<svg xmlns="http://www.w3.org/2000/svg" xmlns:xlink="http://www.w3.org/1999/xlink" width="15pt" height="15pt" viewBox="0 0 15 15" version="1.1">
<g id="surface1">
<path style=" stroke:none;fill-rule:nonzero;fill:rgb(86.666667%,18.039216%,26.666667%);fill-opacity:1;" d="M 14.875 3.117188 L 11.882812 0.125 C 11.71875 -0.0429688 11.453125 -0.0429688 11.285156 0.125 L 1.414062 9.996094 C 1.25 10.160156 1.25 10.429688 1.414062 10.59375 C 1.714844 10.894531 0.105469 13.910156 0 14.132812 L 0.863281 15 C 1.085938 14.894531 4.105469 13.285156 4.40625 13.585938 C 4.570312 13.75 4.839844 13.75 5.003906 13.585938 L 14.875 3.714844 C 15.042969 3.546875 15.042969 3.28125 14.875 3.117188 Z M 14.875 3.117188 "/>
<path style=" stroke:none;fill-rule:nonzero;fill:rgb(91.764706%,34.901961%,43.137255%);fill-opacity:1;" d="M 1.722656 9.683594 L 11.003906 0.40625 L 14.59375 3.996094 L 5.316406 13.273438 Z M 1.722656 9.683594 "/>
<path style=" stroke:none;fill-rule:nonzero;fill:rgb(16.078431%,18.431373%,20%);fill-opacity:1;" d="M 9.804688 1.601562 L 10.40625 1.003906 L 13.996094 4.597656 L 13.398438 5.195312 Z M 2.324219 9.085938 L 2.921875 8.484375 L 6.511719 12.078125 L 5.914062 12.675781 Z M 2.324219 9.085938 "/>
<path style=" stroke:none;fill-rule:nonzero;fill:rgb(74.509804%,9.803922%,19.215686%);fill-opacity:1;" d="M 11.203125 3.898438 C 10.570312 3.261719 8.710938 4.09375 7.050781 5.753906 C 5.390625 7.414062 4.558594 9.273438 5.191406 9.90625 C 5.824219 10.542969 7.683594 9.710938 9.34375 8.050781 C 11.003906 6.390625 11.835938 4.53125 11.203125 3.898438 Z M 11.203125 3.898438 "/>
</g>
</svg>
