<?xml version="1.0" encoding="UTF-8"?>
<svg xmlns="http://www.w3.org/2000/svg" xmlns:xlink="http://www.w3.org/1999/xlink" width="15pt" height="15pt" viewBox="0 0 15 15" version="1.1">
<g id="surface1">
<path style=" stroke:none;fill-rule:nonzero;fill:rgb(60%,66.666667%,70.980392%);fill-opacity:1;" d="M 1.734375 13.636719 C 1.859375 13.707031 1.996094 13.75 2.148438 13.75 C 2.609375 13.75 2.980469 13.375 2.980469 12.917969 C 2.980469 12.457031 2.609375 12.082031 2.148438 12.082031 C 1.6875 12.082031 1.3125 12.457031 1.3125 12.917969 C 1.3125 13.066406 1.355469 13.207031 1.425781 13.328125 L 0.117188 14.640625 L 0.480469 11.667969 L 4.230469 8.75 L 6.3125 10.832031 L 3.398438 14.582031 L 0.425781 14.949219 Z M 1.734375 13.636719 "/>
<path style=" stroke:none;fill-rule:nonzero;fill:rgb(40%,45.882353%,49.803922%);fill-opacity:1;" d="M 9.378906 2.210938 C 8.898438 2.691406 8.898438 3.46875 9.378906 3.949219 L 11.117188 5.683594 C 11.59375 6.164062 12.375 6.164062 12.851562 5.683594 L 14.589844 3.949219 C 15.066406 3.46875 15.066406 2.691406 14.589844 2.210938 L 12.851562 0.476562 C 12.371094 -0.00390625 11.59375 -0.00390625 11.117188 0.476562 Z M 9.378906 2.210938 "/>
<path style=" stroke:none;fill-rule:nonzero;fill:rgb(19.215686%,21.568627%,23.921569%);fill-opacity:1;" d="M 3.964844 7.628906 L 11.128906 0.460938 L 14.601562 3.933594 L 7.433594 11.101562 C 6.957031 11.582031 6.179688 11.582031 5.699219 11.101562 L 3.964844 9.363281 C 3.484375 8.886719 3.484375 8.109375 3.964844 7.628906 Z M 3.964844 7.628906 "/>
<path style=" stroke:none;fill-rule:nonzero;fill:rgb(40%,45.882353%,49.803922%);fill-opacity:1;" d="M 7.277344 4.3125 L 8.164062 3.425781 L 11.636719 6.898438 L 10.75 7.785156 Z M 7.277344 4.3125 "/>
</g>
</svg>
