<?xml version="1.0" encoding="UTF-8"?>
<svg xmlns="http://www.w3.org/2000/svg" xmlns:xlink="http://www.w3.org/1999/xlink" width="15pt" height="15pt" viewBox="0 0 15 15" version="1.1">
<g id="surface1">
<path style=" stroke:none;fill-rule:nonzero;fill:rgb(75.686275%,41.176471%,30.980392%);fill-opacity:1;" d="M 1.652344 13.9375 C 0.921875 14.667969 0.195312 15.128906 0.03125 14.96875 C -0.128906 14.804688 0.332031 14.078125 1.0625 13.347656 C 1.796875 12.613281 2.523438 12.152344 2.683594 12.316406 C 2.847656 12.476562 2.386719 13.203125 1.652344 13.9375 Z M 1.652344 13.9375 "/>
<path style=" stroke:none;fill-rule:nonzero;fill:rgb(100%,80%,30.196078%);fill-opacity:1;" d="M 2.683594 12.316406 L 1.800781 11.433594 C 1.800781 11.433594 1.347656 12.011719 0.847656 12.945312 C 0.472656 13.640625 0.328125 14.082031 0.328125 14.082031 L 0.621094 14.378906 L 0.917969 14.671875 C 0.917969 14.671875 1.359375 14.527344 2.054688 14.152344 C 2.988281 13.652344 3.566406 13.199219 3.566406 13.199219 Z M 2.683594 12.316406 "/>
<path style=" stroke:none;fill-rule:nonzero;fill:rgb(19.215686%,21.568627%,23.921569%);fill-opacity:1;" d="M 14.175781 0.824219 C 12.703125 -0.648438 6.605469 5.117188 6.3125 5.410156 C 6.015625 5.703125 5.769531 5.972656 5.925781 6.128906 L 5.042969 7.011719 C 4.15625 7.894531 1.503906 11.136719 1.800781 11.429688 L 2.683594 12.316406 L 3.566406 13.199219 C 3.863281 13.492188 7.105469 10.84375 7.988281 9.957031 L 8.871094 9.074219 C 9.027344 9.230469 9.296875 8.980469 9.589844 8.6875 C 9.882812 8.394531 15.648438 2.296875 14.175781 0.824219 Z M 14.175781 0.824219 "/>
<path style=" stroke:none;fill-rule:nonzero;fill:rgb(100%,80%,30.196078%);fill-opacity:1;" d="M 9.589844 8.6875 C 9.625 8.652344 9.742188 8.53125 9.914062 8.347656 L 6.652344 5.089844 C 6.46875 5.257812 6.347656 5.375 6.3125 5.410156 C 6.019531 5.707031 5.769531 5.972656 5.925781 6.128906 L 8.871094 9.074219 C 9.027344 9.230469 9.296875 8.984375 9.589844 8.6875 Z M 9.589844 8.6875 "/>
<path style=" stroke:none;fill-rule:nonzero;fill:rgb(100%,67.45098%,20%);fill-opacity:1;" d="M 13.003906 0.832031 C 12.617188 0.449219 12.101562 0.0429688 11.367188 0.410156 C 10.628906 0.777344 8.320312 2.261719 7.25 3.328125 C 6.699219 3.878906 6.730469 4.207031 6.9375 4.230469 C 7.28125 4.277344 7.507812 4.269531 7.820312 3.957031 C 8.132812 3.640625 8.191406 3.109375 8.191406 3.109375 C 8.191406 3.109375 9.460938 2.132812 10.464844 1.535156 C 11.46875 0.933594 11.824219 0.832031 12.175781 1.183594 C 12.527344 1.535156 13.003906 0.832031 13.003906 0.832031 Z M 13.003906 0.832031 "/>
<path style=" stroke:none;fill-rule:nonzero;fill:rgb(100%,67.45098%,20%);fill-opacity:1;" d="M 12.027344 1.035156 L 13.964844 2.972656 C 14.109375 2.675781 14.226562 2.394531 14.304688 2.132812 L 12.867188 0.695312 C 12.605469 0.773438 12.324219 0.890625 12.027344 1.035156 Z M 12.027344 1.035156 "/>
</g>
</svg>
