<?xml version="1.0" encoding="UTF-8"?>
<svg xmlns="http://www.w3.org/2000/svg" xmlns:xlink="http://www.w3.org/1999/xlink" width="15pt" height="15pt" viewBox="0 0 15 15" version="1.1">
<g id="surface1">
<path style=" stroke:none;fill-rule:nonzero;fill:rgb(100%,86.27451%,36.470588%);fill-opacity:1;" d="M 12.503906 8.410156 C 12.503906 8.410156 12.542969 7.425781 11.757812 7.132812 C 11.0625 6.871094 10.796875 7.390625 10.796875 7.390625 C 10.796875 7.390625 10.820312 6.59375 9.988281 6.296875 C 9.203125 6.019531 8.742188 6.621094 8.742188 6.621094 C 8.742188 6.621094 8.714844 5.917969 7.886719 5.691406 C 7.191406 5.5 6.671875 6.175781 6.671875 6.175781 L 6.671875 5.832031 C 6.671875 5.433594 6.445312 4.761719 5.613281 4.761719 C 4.777344 4.757812 4.589844 5.453125 4.589844 5.832031 L 4.589844 6.507812 C 4.589844 7.058594 4.191406 6.589844 3.90625 6.847656 C 3.253906 7.445312 2.960938 9.527344 3.410156 11.222656 C 3.957031 13.28125 5.105469 15.015625 7.449219 15.015625 C 10.839844 15.015625 12.503906 12.808594 12.503906 10.046875 Z M 12.503906 8.410156 "/>
<path style=" stroke:none;fill-rule:nonzero;fill:rgb(100%,86.27451%,36.470588%);fill-opacity:1;" d="M 8.75 7.707031 C 8.75 8.285156 8.285156 8.75 7.707031 8.75 C 7.132812 8.75 6.667969 8.285156 6.667969 7.707031 L 6.667969 1.042969 C 6.667969 0.464844 7.132812 0 7.707031 0 C 8.285156 0 8.75 0.464844 8.75 1.042969 Z M 5.105469 6.667969 L 4.140625 6.667969 C 3.464844 6.667969 3.25 6.863281 2.96875 7.96875 C 2.785156 8.6875 2.558594 9.03125 2.558594 9.796875 C 2.558594 11.007812 4.472656 14.941406 7.292969 14.960938 Z M 5.105469 6.667969 "/>
<path style=" stroke:none;fill-rule:nonzero;fill:rgb(93.72549%,58.823529%,27.058824%);fill-opacity:1;" d="M 4.167969 10.632812 C 4.167969 10.738281 4.25 10.832031 4.355469 10.832031 L 4.394531 10.832031 C 4.5 10.832031 4.582031 10.75 4.582031 10.644531 L 4.582031 6.667969 L 4.179688 6.667969 Z M 4.167969 10.632812 "/>
</g>
</svg>
