<?xml version="1.0" encoding="UTF-8"?>
<svg xmlns="http://www.w3.org/2000/svg" xmlns:xlink="http://www.w3.org/1999/xlink" width="15pt" height="15pt" viewBox="0 0 15 15" version="1.1">
<g id="surface1">
<path style=" stroke:none;fill-rule:nonzero;fill:rgb(95.294118%,82.352941%,63.529412%);fill-opacity:1;" d="M 13.488281 6.757812 C 12.914062 6.503906 12.09375 6.84375 11.511719 7.667969 C 11.128906 8.210938 11.015625 8.984375 10.515625 9.0625 C 10.324219 9.09375 10.21875 8.976562 10.164062 8.808594 C 10.105469 8.527344 10.121094 8.089844 10.226562 7.476562 L 11.367188 2.34375 C 11.457031 1.953125 11.246094 1.574219 10.734375 1.449219 C 10.21875 1.324219 9.835938 1.578125 9.742188 1.96875 L 8.722656 6.621094 C 8.519531 7.648438 8.136719 7.460938 8.230469 6.296875 L 8.523438 0.84375 C 8.546875 0.421875 8.222656 0.078125 7.742188 0.0585938 C 7.261719 0.0390625 6.917969 0.328125 6.894531 0.75 L 6.613281 6.335938 C 6.554688 7.464844 6.152344 7.039062 6.0625 6.222656 L 5.417969 1.703125 C 5.351562 1.273438 4.949219 0.980469 4.472656 1.058594 C 3.992188 1.132812 3.703125 1.53125 3.769531 1.957031 L 4.390625 6.085938 C 4.640625 7.664062 4.316406 8.101562 3.785156 6.390625 L 3.121094 3.878906 C 3.011719 3.476562 2.613281 3.226562 2.117188 3.367188 C 1.617188 3.503906 1.402344 3.90625 1.511719 4.308594 L 2.160156 6.667969 C 2.429688 8.367188 2.429688 9.039062 2.429688 10.207031 C 2.429688 11.378906 2.96875 15 7.082031 15 C 11.199219 15 12.042969 10.820312 12.082031 10.554688 C 12.082031 10.554688 12.132812 9.9375 12.566406 9.363281 C 13.175781 8.542969 13.605469 8.046875 13.867188 7.75 C 14 7.601562 14.128906 7.039062 13.488281 6.757812 Z M 13.488281 6.757812 "/>
<path style=" stroke:none;fill-rule:nonzero;fill:rgb(82.352941%,62.745098%,46.666667%);fill-opacity:1;" d="M 10.378906 9.058594 C 10.253906 9.007812 10.148438 8.878906 10.136719 8.59375 C 9.347656 8.699219 8.28125 8.921875 7.460938 9.722656 C 6.394531 10.765625 6.214844 11.890625 6.222656 12.644531 C 6.230469 13.25 6.5625 13.539062 6.660156 12.636719 C 6.78125 11.503906 7.609375 9.246094 10.378906 9.058594 Z M 10.378906 9.058594 "/>
</g>
</svg>
