<?xml version="1.0" encoding="UTF-8"?>
<svg xmlns="http://www.w3.org/2000/svg" xmlns:xlink="http://www.w3.org/1999/xlink" width="15pt" height="15pt" viewBox="0 0 15 15" version="1.1">
<g id="surface1">
<path style=" stroke:none;fill-rule:nonzero;fill:rgb(84.313725%,61.960784%,51.764706%);fill-opacity:1;" d="M 14.582031 12.5 C 14.582031 12.960938 14.210938 13.332031 13.75 13.332031 L 1.25 13.332031 C 0.789062 13.332031 0.417969 12.960938 0.417969 12.5 L 0.417969 2.5 C 0.417969 2.039062 0.789062 1.667969 1.25 1.667969 L 13.75 1.667969 C 14.210938 1.667969 14.582031 2.039062 14.582031 2.5 Z M 14.582031 12.5 "/>
<path style=" stroke:none;fill-rule:nonzero;fill:rgb(74.901961%,41.176471%,32.156863%);fill-opacity:1;" d="M 13.75 1.667969 L 1.25 1.667969 C 0.789062 1.667969 0.417969 2.039062 0.417969 2.5 L 0.417969 12.5 C 0.417969 12.660156 0.464844 12.8125 0.542969 12.941406 L 14.433594 2.023438 C 14.28125 1.808594 14.03125 1.667969 13.75 1.667969 Z M 13.75 1.667969 "/>
<path style=" stroke:none;fill-rule:nonzero;fill:rgb(54.901961%,79.215686%,96.862745%);fill-opacity:1;" d="M 12.917969 9.167969 L 12.917969 3.75 C 12.917969 3.519531 12.730469 3.332031 12.5 3.332031 L 2.5 3.332031 C 2.269531 3.332031 2.082031 3.519531 2.082031 3.75 L 2.082031 9.167969 Z M 12.917969 9.167969 "/>
<path style=" stroke:none;fill-rule:nonzero;fill:rgb(36.470588%,67.843137%,92.54902%);fill-opacity:1;" d="M 2.5 11.667969 L 7.917969 11.667969 L 7.917969 8.75 L 2.082031 8.75 L 2.082031 11.25 C 2.082031 11.480469 2.269531 11.667969 2.5 11.667969 Z M 2.5 11.667969 "/>
<path style=" stroke:none;fill-rule:nonzero;fill:rgb(16.078431%,18.431373%,20%);fill-opacity:1;" d="M 7.917969 8.75 L 7.917969 11.667969 L 12.5 11.667969 C 12.730469 11.667969 12.917969 11.480469 12.917969 11.25 L 12.917969 8.75 Z M 7.917969 8.75 "/>
<path style=" stroke:none;fill-rule:nonzero;fill:rgb(40.392157%,45.882353%,49.803922%);fill-opacity:1;" d="M 8.332031 7.917969 C 8.078125 7.917969 7.976562 8.386719 7.746094 8.75 C 7.601562 8.980469 7.40625 9.167969 7.082031 9.167969 C 6.25 9.167969 6.25 10.417969 5.832031 10.417969 C 5.308594 10.417969 4.785156 11.074219 4.46875 11.667969 L 7.917969 11.667969 C 8.28125 10.933594 8.652344 10.203125 9.582031 10.035156 C 9.710938 10.011719 9.847656 10 10 10 C 11.25 10 11.292969 9.351562 11.667969 9.167969 C 12.234375 8.882812 12.605469 8.984375 12.917969 9.078125 L 12.917969 7.917969 Z M 8.332031 7.917969 "/>
<path style=" stroke:none;fill-rule:nonzero;fill:rgb(90.588235%,35.294118%,43.921569%);fill-opacity:1;" d="M 10.417969 4.582031 L 8.75 6.25 L 8.75 7.917969 L 12.082031 7.917969 L 12.082031 6.25 Z M 10.417969 4.582031 "/>
<path style=" stroke:none;fill-rule:nonzero;fill:rgb(16.078431%,18.431373%,20%);fill-opacity:1;" d="M 12.082031 6.667969 C 11.976562 6.667969 11.871094 6.625 11.789062 6.542969 L 10.417969 5.171875 L 9.042969 6.542969 C 8.882812 6.707031 8.617188 6.707031 8.457031 6.542969 C 8.292969 6.382812 8.292969 6.117188 8.457031 5.957031 L 10.121094 4.289062 C 10.285156 4.125 10.546875 4.125 10.710938 4.289062 L 12.378906 5.957031 C 12.539062 6.117188 12.539062 6.382812 12.378906 6.542969 C 12.296875 6.625 12.191406 6.667969 12.082031 6.667969 Z M 12.082031 6.667969 "/>
<path style=" stroke:none;fill-rule:nonzero;fill:rgb(73.333333%,10.196078%,20.392157%);fill-opacity:1;" d="M 9.582031 6.667969 L 10.417969 6.667969 L 10.417969 7.917969 L 9.582031 7.917969 Z M 9.582031 6.667969 "/>
<path style=" stroke:none;fill-rule:nonzero;fill:rgb(100%,100%,100%);fill-opacity:1;" d="M 7.175781 5.886719 C 7.175781 5.453125 6.824219 5.105469 6.394531 5.105469 C 6.359375 5.105469 6.328125 5.109375 6.296875 5.113281 C 6.308594 5.058594 6.316406 5.003906 6.316406 4.949219 C 6.316406 4.515625 5.964844 4.167969 5.535156 4.167969 C 5.253906 4.167969 5.011719 4.3125 4.875 4.53125 C 4.789062 4.5 4.695312 4.480469 4.597656 4.480469 C 4.199219 4.480469 3.875 4.777344 3.824219 5.160156 C 3.738281 5.125 3.640625 5.105469 3.542969 5.105469 C 3.109375 5.105469 2.761719 5.453125 2.761719 5.886719 C 2.761719 6.316406 3.109375 6.667969 3.542969 6.667969 C 3.558594 6.667969 3.574219 6.664062 3.59375 6.660156 L 3.59375 6.667969 L 6.40625 6.667969 L 6.40625 6.664062 C 6.832031 6.660156 7.175781 6.3125 7.175781 5.886719 Z M 7.175781 5.886719 "/>
</g>
</svg>
