<?xml version="1.0" encoding="UTF-8"?>
<svg xmlns="http://www.w3.org/2000/svg" xmlns:xlink="http://www.w3.org/1999/xlink" width="15pt" height="15pt" viewBox="0 0 15 15" version="1.1">
<g id="surface1">
<path style=" stroke:none;fill-rule:nonzero;fill:rgb(40%,45.882353%,49.803922%);fill-opacity:1;" d="M 13.75 7.082031 C 13.75 10.996094 12.839844 15 7.5 15 C 2.160156 15 1.25 10.996094 1.25 7.082031 C 1.25 3.171875 3.589844 1.25 7.5 1.25 C 11.445312 1.25 13.75 3.207031 13.75 7.082031 Z M 13.75 7.082031 "/>
<path style=" stroke:none;fill-rule:nonzero;fill:rgb(60%,66.666667%,70.980392%);fill-opacity:1;" d="M 13.332031 5.820312 C 13.332031 9.121094 12.527344 12.5 7.5 12.5 C 2.472656 12.5 1.667969 9.121094 1.667969 5.820312 C 1.667969 2.519531 3.847656 1.25 7.5 1.25 C 11.152344 1.25 13.332031 2.519531 13.332031 5.820312 Z M 13.332031 5.820312 "/>
<path style=" stroke:none;fill-rule:nonzero;fill:rgb(80%,83.921569%,86.666667%);fill-opacity:1;" d="M 12.082031 5.207031 C 12.082031 7.394531 10.03125 8.75 7.5 8.75 C 4.96875 8.75 2.917969 7.394531 2.917969 5.207031 C 2.917969 3.023438 4.96875 1.25 7.5 1.25 C 10.03125 1.25 12.082031 3.023438 12.082031 5.207031 Z M 12.082031 5.207031 "/>
<path style=" stroke:none;fill-rule:nonzero;fill:rgb(45.490196%,30.588235%,66.666667%);fill-opacity:1;" d="M 11.667969 4.167969 C 11.667969 6.46875 9.800781 7.5 7.5 7.5 C 5.199219 7.5 3.332031 6.46875 3.332031 4.167969 C 3.332031 1.867188 5.199219 0 7.5 0 C 9.800781 0 11.667969 1.867188 11.667969 4.167969 Z M 11.667969 4.167969 "/>
<path style=" stroke:none;fill-rule:nonzero;fill:rgb(16.078431%,18.431373%,20%);fill-opacity:1;" d="M 7.082031 9.582031 L 7.082031 11.5625 C 7.082031 11.980469 3.054688 11.144531 3.054688 9.0625 C 3.054688 8.488281 3.179688 8.242188 4.019531 8.652344 C 5.890625 9.570312 7.082031 9.355469 7.082031 9.582031 Z M 7.917969 9.582031 L 7.917969 11.5625 C 7.917969 11.980469 11.945312 11.144531 11.945312 9.0625 C 11.945312 8.488281 11.820312 8.242188 10.980469 8.652344 C 9.109375 9.570312 7.917969 9.355469 7.917969 9.582031 Z M 7.917969 9.582031 "/>
</g>
</svg>
