<?xml version="1.0" encoding="UTF-8"?>
<svg xmlns="http://www.w3.org/2000/svg" xmlns:xlink="http://www.w3.org/1999/xlink" width="15pt" height="15pt" viewBox="0 0 15 15" version="1.1">
<g id="surface1">
<path style=" stroke:none;fill-rule:nonzero;fill:rgb(40.392157%,45.882353%,49.803922%);fill-opacity:1;" d="M 14.582031 8.332031 C 14.582031 9.253906 13.835938 9.167969 12.917969 9.167969 L 2.082031 9.167969 C 1.164062 9.167969 0.417969 9.253906 0.417969 8.332031 L 1.25 3.332031 C 1.300781 2.535156 1.996094 1.667969 2.917969 1.667969 L 12.082031 1.667969 C 13.003906 1.667969 13.664062 2.585938 13.75 3.332031 Z M 14.582031 8.332031 "/>
<path style=" stroke:none;fill-rule:nonzero;fill:rgb(80%,83.921569%,86.666667%);fill-opacity:1;" d="M 11.667969 5.417969 C 11.667969 5.875 11.292969 6.25 10.832031 6.25 L 4.167969 6.25 C 3.707031 6.25 3.332031 5.875 3.332031 5.417969 L 3.332031 2.082031 C 3.332031 1.621094 3.707031 1.25 4.167969 1.25 L 10.832031 1.25 C 11.292969 1.25 11.667969 1.621094 11.667969 2.082031 Z M 11.667969 5.417969 "/>
<path style=" stroke:none;fill-rule:nonzero;fill:rgb(88.235294%,90.980392%,92.941176%);fill-opacity:1;" d="M 12.5 7.082031 C 12.5 7.542969 12.125 7.917969 11.667969 7.917969 L 3.332031 7.917969 C 2.875 7.917969 2.5 7.542969 2.5 7.082031 L 2.5 3.75 C 2.5 3.289062 2.875 2.917969 3.332031 2.917969 L 11.667969 2.917969 C 12.125 2.917969 12.5 3.289062 12.5 3.75 Z M 12.5 7.082031 "/>
<path style=" stroke:none;fill-rule:nonzero;fill:rgb(96.078431%,97.254902%,98.039216%);fill-opacity:1;" d="M 13.332031 8.75 C 13.332031 9.210938 12.960938 9.582031 12.5 9.582031 L 2.5 9.582031 C 2.039062 9.582031 1.667969 9.210938 1.667969 8.75 L 1.667969 5.417969 C 1.667969 4.957031 2.039062 4.582031 2.5 4.582031 L 12.5 4.582031 C 12.960938 4.582031 13.332031 4.957031 13.332031 5.417969 Z M 13.332031 8.75 "/>
<path style=" stroke:none;fill-rule:nonzero;fill:rgb(60.392157%,66.666667%,70.588235%);fill-opacity:1;" d="M 14.582031 12.917969 C 14.582031 13.835938 13.835938 14.582031 12.917969 14.582031 L 2.082031 14.582031 C 1.164062 14.582031 0.417969 13.835938 0.417969 12.917969 L 0.417969 8.332031 C 0.417969 7.414062 1.164062 6.667969 2.082031 6.667969 L 12.917969 6.667969 C 13.835938 6.667969 14.582031 7.414062 14.582031 8.332031 Z M 14.582031 12.917969 "/>
<path style=" stroke:none;fill-rule:nonzero;fill:rgb(98.823529%,67.058824%,25.098039%);fill-opacity:1;" d="M 9.167969 0.417969 L 7.082031 0.417969 C 6.625 0.417969 6.25 0.789062 6.25 1.25 L 6.25 1.667969 L 7.917969 1.667969 C 8.375 1.667969 8.75 2.039062 8.75 2.5 L 9.167969 2.5 C 9.625 2.5 10 2.125 10 1.667969 L 10 1.25 C 10 0.789062 9.625 0.417969 9.167969 0.417969 Z M 9.167969 0.417969 "/>
<path style=" stroke:none;fill-rule:nonzero;fill:rgb(36.470588%,67.843137%,92.54902%);fill-opacity:1;" d="M 7.5 2.082031 L 5.417969 2.082031 C 4.957031 2.082031 4.582031 2.457031 4.582031 2.917969 L 4.582031 3.332031 L 6.25 3.332031 C 6.710938 3.332031 7.082031 3.707031 7.082031 4.167969 L 7.5 4.167969 C 7.960938 4.167969 8.332031 3.792969 8.332031 3.332031 L 8.332031 2.917969 C 8.332031 2.457031 7.960938 2.082031 7.5 2.082031 Z M 7.5 2.082031 "/>
<path style=" stroke:none;fill-rule:nonzero;fill:rgb(90.588235%,35.294118%,43.921569%);fill-opacity:1;" d="M 6.667969 5 C 6.667969 5.460938 6.292969 5.832031 5.832031 5.832031 L 3.75 5.832031 C 3.289062 5.832031 2.917969 5.460938 2.917969 5 L 2.917969 4.582031 C 2.917969 4.125 3.289062 3.75 3.75 3.75 L 5.832031 3.75 C 6.292969 3.75 6.667969 4.125 6.667969 4.582031 Z M 6.667969 5 "/>
<path style=" stroke:none;fill-rule:nonzero;fill:rgb(40.392157%,45.882353%,49.803922%);fill-opacity:1;" d="M 10.417969 11.667969 C 10.417969 12.125 10.042969 12.5 9.582031 12.5 L 5.417969 12.5 C 4.957031 12.5 4.582031 12.125 4.582031 11.667969 L 4.582031 9.582031 C 4.582031 9.125 4.957031 8.75 5.417969 8.75 L 9.582031 8.75 C 10.042969 8.75 10.417969 9.125 10.417969 9.582031 Z M 5.832031 10 Z M 5.832031 10 "/>
<path style=" stroke:none;fill-rule:nonzero;fill:rgb(88.235294%,90.980392%,92.941176%);fill-opacity:1;" d="M 9.582031 11.25 C 9.582031 11.480469 9.398438 11.667969 9.167969 11.667969 L 5.832031 11.667969 C 5.601562 11.667969 5.417969 11.480469 5.417969 11.25 L 5.417969 10 C 5.417969 9.769531 5.601562 9.582031 5.832031 9.582031 L 9.167969 9.582031 C 9.398438 9.582031 9.582031 9.769531 9.582031 10 Z M 9.582031 11.25 "/>
</g>
</svg>
