<?xml version="1.0" encoding="UTF-8"?>
<svg xmlns="http://www.w3.org/2000/svg" xmlns:xlink="http://www.w3.org/1999/xlink" width="15pt" height="15pt" viewBox="0 0 15 15" version="1.1">
<g id="surface1">
<path style=" stroke:none;fill-rule:nonzero;fill:rgb(16.078431%,18.431373%,20%);fill-opacity:1;" d="M 12.5 14.167969 C 12.5 14.625 12.125 15 11.667969 15 L 3.332031 15 C 2.875 15 2.5 14.625 2.5 14.167969 L 2.5 0.832031 C 2.5 0.375 2.875 0 3.332031 0 L 11.667969 0 C 12.125 0 12.5 0.375 12.5 0.832031 Z M 12.5 14.167969 "/>
<path style=" stroke:none;fill-rule:nonzero;fill:rgb(40%,45.882353%,49.803922%);fill-opacity:1;" d="M 11.667969 6.667969 C 11.667969 6.898438 11.480469 7.082031 11.25 7.082031 L 3.75 7.082031 C 3.519531 7.082031 3.332031 6.898438 3.332031 6.667969 L 3.332031 1.25 C 3.332031 1.019531 3.519531 0.832031 3.75 0.832031 L 11.25 0.832031 C 11.480469 0.832031 11.667969 1.019531 11.667969 1.25 Z M 11.667969 13.75 C 11.667969 13.980469 11.480469 14.167969 11.25 14.167969 L 3.75 14.167969 C 3.519531 14.167969 3.332031 13.980469 3.332031 13.75 L 3.332031 8.332031 C 3.332031 8.101562 3.519531 7.917969 3.75 7.917969 L 11.25 7.917969 C 11.480469 7.917969 11.667969 8.101562 11.667969 8.332031 Z M 11.667969 13.75 "/>
<path style=" stroke:none;fill-rule:nonzero;fill:rgb(16.078431%,18.431373%,20%);fill-opacity:1;" d="M 9.167969 3.332031 C 9.167969 3.5625 8.980469 3.75 8.75 3.75 L 6.25 3.75 C 6.019531 3.75 5.832031 3.5625 5.832031 3.332031 L 5.832031 2.082031 C 5.832031 1.851562 6.019531 1.667969 6.25 1.667969 L 8.75 1.667969 C 8.980469 1.667969 9.167969 1.851562 9.167969 2.082031 Z M 9.167969 10.417969 C 9.167969 10.648438 8.980469 10.832031 8.75 10.832031 L 6.25 10.832031 C 6.019531 10.832031 5.832031 10.648438 5.832031 10.417969 L 5.832031 9.167969 C 5.832031 8.9375 6.019531 8.75 6.25 8.75 L 8.75 8.75 C 8.980469 8.75 9.167969 8.9375 9.167969 9.167969 Z M 9.167969 10.417969 "/>
<path style=" stroke:none;fill-rule:nonzero;fill:rgb(88.235294%,90.980392%,92.941176%);fill-opacity:1;" d="M 6.25 2.082031 L 8.75 2.082031 L 8.75 3.332031 L 6.25 3.332031 Z M 6.25 9.167969 L 8.75 9.167969 L 8.75 10.417969 L 6.25 10.417969 Z M 10 5.429688 C 10 5.652344 9.820312 5.832031 9.597656 5.832031 L 5.402344 5.832031 C 5.179688 5.832031 5 5.652344 5 5.429688 L 5 5.402344 C 5 5.179688 5.179688 5 5.402344 5 L 9.597656 5 C 9.820312 5 10 5.179688 10 5.402344 Z M 10 12.511719 C 10 12.734375 9.820312 12.917969 9.597656 12.917969 L 5.402344 12.917969 C 5.179688 12.917969 5 12.734375 5 12.511719 L 5 12.488281 C 5 12.265625 5.179688 12.082031 5.402344 12.082031 L 9.597656 12.082031 C 9.820312 12.082031 10 12.265625 10 12.488281 Z M 10 12.511719 "/>
</g>
</svg>
