<?xml version="1.0" encoding="UTF-8"?>
<svg xmlns="http://www.w3.org/2000/svg" xmlns:xlink="http://www.w3.org/1999/xlink" width="15pt" height="15pt" viewBox="0 0 15 15" version="1.1">
<g id="surface1">
<path style=" stroke:none;fill-rule:nonzero;fill:rgb(99.215686%,79.607843%,34.509804%);fill-opacity:1;" d="M 12.917969 6.25 C 12.917969 6.710938 12.542969 7.082031 12.082031 7.082031 L 2.917969 7.082031 C 2.457031 7.082031 2.082031 6.710938 2.082031 6.25 L 2.082031 2.917969 C 2.082031 2.457031 2.457031 2.082031 2.917969 2.082031 L 12.082031 2.082031 C 12.542969 2.082031 12.917969 2.457031 12.917969 2.917969 Z M 12.917969 6.25 "/>
<path style=" stroke:none;fill-rule:nonzero;fill:rgb(99.215686%,84.705882%,53.333333%);fill-opacity:1;" d="M 13.75 7.917969 C 13.75 8.375 13.375 8.75 12.917969 8.75 L 2.082031 8.75 C 1.625 8.75 1.25 8.375 1.25 7.917969 L 1.25 4.582031 C 1.25 4.125 1.625 3.75 2.082031 3.75 L 12.917969 3.75 C 13.375 3.75 13.75 4.125 13.75 4.582031 Z M 13.75 7.917969 "/>
<path style=" stroke:none;fill-rule:nonzero;fill:rgb(99.607843%,90.588235%,72.156863%);fill-opacity:1;" d="M 14.582031 13.75 C 14.582031 14.210938 14.210938 14.582031 13.75 14.582031 L 1.25 14.582031 C 0.789062 14.582031 0.417969 14.210938 0.417969 13.75 L 0.417969 6.25 C 0.417969 5.789062 0.789062 5.417969 1.25 5.417969 L 13.75 5.417969 C 14.210938 5.417969 14.582031 5.789062 14.582031 6.25 Z M 14.582031 13.75 "/>
<path style=" stroke:none;fill-rule:nonzero;fill:rgb(47.058824%,69.411765%,34.901961%);fill-opacity:1;" d="M 9.582031 1.25 L 7.5 1.25 C 7.039062 1.25 6.667969 1.621094 6.667969 2.082031 L 6.667969 2.5 L 7.5 2.5 C 7.960938 2.5 8.332031 2.875 8.332031 3.332031 L 9.582031 3.332031 C 10.042969 3.332031 10.417969 2.960938 10.417969 2.5 L 10.417969 2.082031 C 10.417969 1.621094 10.042969 1.25 9.582031 1.25 Z M 9.582031 1.25 "/>
<path style=" stroke:none;fill-rule:nonzero;fill:rgb(94.509804%,56.078431%,14.901961%);fill-opacity:1;" d="M 7.082031 2.917969 L 5 2.917969 C 4.539062 2.917969 4.167969 3.289062 4.167969 3.75 L 4.167969 4.167969 L 5 4.167969 C 5.460938 4.167969 5.832031 4.539062 5.832031 5 L 7.082031 5 C 7.542969 5 7.917969 4.625 7.917969 4.167969 L 7.917969 3.75 C 7.917969 3.289062 7.542969 2.917969 7.082031 2.917969 Z M 7.082031 2.917969 "/>
<path style=" stroke:none;fill-rule:nonzero;fill:rgb(57.254902%,40.784314%,79.215686%);fill-opacity:1;" d="M 5.417969 5.832031 C 5.417969 6.292969 5.042969 6.667969 4.582031 6.667969 L 2.5 6.667969 C 2.039062 6.667969 1.667969 6.292969 1.667969 5.832031 L 1.667969 5.417969 C 1.667969 4.957031 2.039062 4.582031 2.5 4.582031 L 4.582031 4.582031 C 5.042969 4.582031 5.417969 4.957031 5.417969 5.417969 Z M 5.417969 5.832031 "/>
</g>
</svg>
