<?xml version="1.0" encoding="UTF-8"?>
<svg xmlns="http://www.w3.org/2000/svg" xmlns:xlink="http://www.w3.org/1999/xlink" width="15pt" height="15pt" viewBox="0 0 15 15" version="1.1">
<g id="surface1">
<path style=" stroke:none;fill-rule:nonzero;fill:rgb(40%,45.882353%,49.803922%);fill-opacity:1;" d="M 12.007812 1.667969 L 12.839844 1.667969 L 12.839844 2.082031 L 12.007812 2.082031 Z M 12.007812 1.667969 "/>
<path style=" stroke:none;fill-rule:nonzero;fill:rgb(80%,83.921569%,86.666667%);fill-opacity:1;" d="M 0.832031 5 L 0.832031 13.332031 C 0.832031 14.253906 1.578125 15 2.5 15 L 12.5 15 C 13.421875 15 14.167969 14.253906 14.167969 13.332031 L 14.167969 5 Z M 0.832031 5 "/>
<path style=" stroke:none;fill-rule:nonzero;fill:rgb(86.666667%,18.039216%,26.666667%);fill-opacity:1;" d="M 12.5 1.667969 L 2.5 1.667969 C 1.578125 1.667969 0.832031 2.414062 0.832031 3.332031 L 0.832031 5.417969 L 14.167969 5.417969 L 14.167969 3.332031 C 14.167969 2.414062 13.421875 1.667969 12.5 1.667969 Z M 12.5 1.667969 "/>
<path style=" stroke:none;fill-rule:nonzero;fill:rgb(16.078431%,18.431373%,20%);fill-opacity:1;" d="M 3.683594 3.636719 C 3.390625 3.636719 3.152344 3.359375 3.152344 3.015625 C 3.152344 2.675781 3.390625 2.398438 3.683594 2.398438 C 3.972656 2.398438 4.210938 2.675781 4.210938 3.015625 C 4.210938 3.359375 3.972656 3.636719 3.683594 3.636719 Z M 6.183594 3.636719 C 5.890625 3.636719 5.652344 3.359375 5.652344 3.015625 C 5.652344 2.675781 5.890625 2.398438 6.183594 2.398438 C 6.472656 2.398438 6.710938 2.675781 6.710938 3.015625 C 6.710938 3.359375 6.472656 3.636719 6.183594 3.636719 Z M 8.683594 3.636719 C 8.390625 3.636719 8.152344 3.359375 8.152344 3.015625 C 8.152344 2.675781 8.390625 2.398438 8.683594 2.398438 C 8.972656 2.398438 9.210938 2.675781 9.210938 3.015625 C 9.210938 3.359375 8.972656 3.636719 8.683594 3.636719 Z M 11.183594 3.636719 C 10.890625 3.636719 10.652344 3.359375 10.652344 3.015625 C 10.652344 2.675781 10.890625 2.398438 11.183594 2.398438 C 11.472656 2.398438 11.710938 2.675781 11.710938 3.015625 C 11.710938 3.359375 11.472656 3.636719 11.183594 3.636719 Z M 11.183594 3.636719 "/>
<path style=" stroke:none;fill-rule:nonzero;fill:rgb(40%,45.882353%,49.803922%);fill-opacity:1;" d="M 11.382812 0.0742188 C 10.847656 0.0742188 10.386719 0.410156 10.132812 0.894531 C 9.882812 0.417969 9.417969 0.0742188 8.882812 0.0742188 C 8.347656 0.0742188 7.886719 0.410156 7.632812 0.894531 C 7.382812 0.417969 6.917969 0.0742188 6.382812 0.0742188 C 5.847656 0.0742188 5.386719 0.410156 5.132812 0.894531 C 4.882812 0.417969 4.417969 0.0742188 3.882812 0.0742188 C 3.074219 0.0742188 2.421875 0.832031 2.421875 1.742188 C 2.421875 2.515625 2.859375 3.148438 3.492188 3.378906 C 3.808594 3.492188 4.003906 3.191406 3.976562 2.953125 C 3.953125 2.75 3.820312 2.621094 3.671875 2.527344 C 3.46875 2.398438 3.253906 2.109375 3.253906 1.746094 C 3.253906 1.285156 3.535156 0.871094 3.878906 0.871094 C 4.226562 0.871094 4.503906 1.25 4.503906 1.667969 L 4.929688 1.667969 C 4.929688 1.691406 4.921875 1.714844 4.921875 1.742188 C 4.921875 2.515625 5.359375 3.148438 5.992188 3.378906 C 6.308594 3.492188 6.503906 3.191406 6.476562 2.953125 C 6.453125 2.75 6.320312 2.621094 6.171875 2.527344 C 5.96875 2.398438 5.753906 2.109375 5.753906 1.746094 C 5.753906 1.285156 6.035156 0.871094 6.378906 0.871094 C 6.726562 0.871094 7.007812 1.25 7.007812 1.667969 L 7.429688 1.667969 C 7.429688 1.691406 7.421875 1.71875 7.421875 1.742188 C 7.421875 2.515625 7.859375 3.148438 8.492188 3.378906 C 8.808594 3.492188 9.003906 3.191406 8.976562 2.953125 C 8.953125 2.753906 8.820312 2.621094 8.671875 2.527344 C 8.46875 2.398438 8.253906 2.109375 8.253906 1.746094 C 8.253906 1.285156 8.535156 0.871094 8.878906 0.871094 C 9.226562 0.871094 9.507812 1.25 9.507812 1.667969 L 9.929688 1.667969 C 9.929688 1.691406 9.921875 1.71875 9.921875 1.742188 C 9.921875 2.515625 10.359375 3.148438 10.992188 3.378906 C 11.308594 3.492188 11.503906 3.191406 11.476562 2.953125 C 11.453125 2.753906 11.320312 2.621094 11.171875 2.527344 C 10.96875 2.398438 10.753906 2.109375 10.753906 1.746094 C 10.753906 1.285156 11.035156 0.871094 11.378906 0.871094 C 11.726562 0.871094 12.007812 1.25 12.007812 1.667969 L 12.839844 1.667969 C 12.828125 0.832031 12.179688 0.0742188 11.382812 0.0742188 Z M 11.382812 0.0742188 "/>
<path style=" stroke:none;fill-rule:nonzero;fill:rgb(100%,100%,100%);fill-opacity:1;" d="M 4.582031 6.25 L 6.25 6.25 L 6.25 7.917969 L 4.582031 7.917969 Z M 6.667969 6.25 L 8.332031 6.25 L 8.332031 7.917969 L 6.667969 7.917969 Z M 8.75 6.25 L 10.417969 6.25 L 10.417969 7.917969 L 8.75 7.917969 Z M 10.832031 6.25 L 12.5 6.25 L 12.5 7.917969 L 10.832031 7.917969 Z M 2.5 8.332031 L 4.167969 8.332031 L 4.167969 10 L 2.5 10 Z M 4.582031 8.332031 L 6.25 8.332031 L 6.25 10 L 4.582031 10 Z M 6.667969 8.332031 L 8.332031 8.332031 L 8.332031 10 L 6.667969 10 Z M 8.75 8.332031 L 10.417969 8.332031 L 10.417969 10 L 8.75 10 Z M 10.832031 8.332031 L 12.5 8.332031 L 12.5 10 L 10.832031 10 Z M 2.5 10.417969 L 4.167969 10.417969 L 4.167969 12.082031 L 2.5 12.082031 Z M 4.582031 10.417969 L 6.25 10.417969 L 6.25 12.082031 L 4.582031 12.082031 Z M 6.667969 10.417969 L 8.332031 10.417969 L 8.332031 12.082031 L 6.667969 12.082031 Z M 8.75 10.417969 L 10.417969 10.417969 L 10.417969 12.082031 L 8.75 12.082031 Z M 10.832031 10.417969 L 12.5 10.417969 L 12.5 12.082031 L 10.832031 12.082031 Z M 2.5 12.5 L 4.167969 12.5 L 4.167969 14.167969 L 2.5 14.167969 Z M 4.582031 12.5 L 6.25 12.5 L 6.25 14.167969 L 4.582031 14.167969 Z M 6.667969 12.5 L 8.332031 12.5 L 8.332031 14.167969 L 6.667969 14.167969 Z M 6.667969 12.5 "/>
</g>
</svg>
