<?xml version="1.0" encoding="UTF-8"?>
<svg xmlns="http://www.w3.org/2000/svg" xmlns:xlink="http://www.w3.org/1999/xlink" width="15pt" height="15pt" viewBox="0 0 15 15" version="1.1">
<g id="surface1">
<path style=" stroke:none;fill-rule:nonzero;fill:rgb(40.392157%,45.882353%,49.803922%);fill-opacity:1;" d="M 6.667969 13.75 C 6.667969 14.441406 6.105469 15 5.417969 15 C 4.726562 15 4.167969 14.441406 4.167969 13.75 C 4.167969 13.058594 4.726562 12.5 5.417969 12.5 C 6.105469 12.5 6.667969 13.058594 6.667969 13.75 Z M 6.667969 13.75 "/>
<path style=" stroke:none;fill-rule:nonzero;fill:rgb(40.392157%,45.882353%,49.803922%);fill-opacity:1;" d="M 14.582031 13.75 C 14.582031 14.441406 14.023438 15 13.332031 15 C 12.644531 15 12.082031 14.441406 12.082031 13.75 C 12.082031 13.058594 12.644531 12.5 13.332031 12.5 C 14.023438 12.5 14.582031 13.058594 14.582031 13.75 Z M 14.582031 13.75 "/>
<path style=" stroke:none;fill-rule:nonzero;fill:rgb(40.392157%,45.882353%,49.803922%);fill-opacity:1;" d="M 5.417969 13.332031 L 13.332031 13.332031 L 13.332031 14.167969 L 5.417969 14.167969 Z M 5.417969 13.332031 "/>
<path style=" stroke:none;fill-rule:nonzero;fill:rgb(60.392157%,66.666667%,70.588235%);fill-opacity:1;" d="M 8.332031 6.460938 C 8.332031 5.882812 8.800781 5.835938 9.375 5.835938 C 9.949219 5.835938 10.417969 5.882812 10.417969 6.460938 L 10.417969 13.957031 C 10.417969 14.535156 9.949219 15 9.375 15 C 8.800781 15 8.332031 14.535156 8.332031 13.957031 Z M 8.332031 6.460938 "/>
<path style=" stroke:none;fill-rule:nonzero;fill:rgb(40.392157%,45.882353%,49.803922%);fill-opacity:1;" d="M 11.25 6.25 C 11.25 6.710938 10.875 7.085938 10.417969 7.085938 L 8.332031 7.085938 C 7.875 7.085938 7.5 6.710938 7.5 6.25 C 7.5 5.789062 7.875 5.835938 8.332031 5.835938 L 10.417969 5.835938 C 10.875 5.835938 11.25 5.789062 11.25 6.25 Z M 11.25 6.25 "/>
<path style=" stroke:none;fill-rule:nonzero;fill:rgb(85.490196%,18.431373%,27.843137%);fill-opacity:1;" d="M 11.667969 11.25 C 11.667969 11.710938 11.292969 12.082031 10.832031 12.082031 L 7.917969 12.082031 C 7.457031 12.082031 7.082031 11.710938 7.082031 11.25 L 7.082031 9.167969 C 7.082031 8.707031 7.457031 8.332031 7.917969 8.332031 L 10.832031 8.332031 C 11.292969 8.332031 11.667969 8.707031 11.667969 9.167969 Z M 11.667969 2.082031 C 11.667969 2.542969 11.292969 2.917969 10.832031 2.917969 L 7.917969 2.917969 C 7.457031 2.917969 7.082031 2.542969 7.082031 2.082031 L 7.082031 1.667969 C 7.082031 1.207031 7.457031 0.832031 7.917969 0.832031 L 10.832031 0.832031 C 11.292969 0.832031 11.667969 1.207031 11.667969 1.667969 Z M 11.667969 2.082031 "/>
<path style=" stroke:none;fill-rule:nonzero;fill:rgb(85.490196%,18.431373%,27.843137%);fill-opacity:1;" d="M 5.417969 9.167969 C 4.957031 9.167969 4.582031 8.792969 4.582031 8.332031 L 4.582031 2.917969 C 4.582031 2.457031 4.957031 2.082031 5.417969 2.082031 L 11.667969 2.082031 L 11.667969 1.667969 C 11.667969 0.746094 10.921875 0 10 0 L 2.917969 0 C 1.996094 0 1.25 0.746094 1.25 1.667969 L 1.25 9.582031 C 1.25 10.503906 1.996094 11.25 2.917969 11.25 L 8.75 11.25 C 9.671875 11.25 10.417969 10.503906 10.417969 9.582031 L 10.417969 9.167969 Z M 5.417969 9.167969 "/>
<path style=" stroke:none;fill-rule:nonzero;fill:rgb(90.588235%,35.294118%,43.921569%);fill-opacity:1;" d="M 3.75 8.332031 C 3.75 8.792969 3.375 9.167969 2.917969 9.167969 C 2.457031 9.167969 2.082031 8.792969 2.082031 8.332031 L 2.082031 2.917969 C 2.082031 2.457031 2.457031 2.082031 2.917969 2.082031 C 3.375 2.082031 3.75 2.457031 3.75 2.917969 Z M 3.75 8.332031 "/>
</g>
</svg>
