<?xml version="1.0" encoding="UTF-8"?>
<svg xmlns="http://www.w3.org/2000/svg" xmlns:xlink="http://www.w3.org/1999/xlink" width="15pt" height="15pt" viewBox="0 0 15 15" version="1.1">
<g id="surface1">
<path style=" stroke:none;fill-rule:nonzero;fill:rgb(40%,45.882353%,49.803922%);fill-opacity:1;" d="M 11.589844 1.667969 L 12.421875 1.667969 L 12.421875 2.664062 L 11.589844 2.664062 Z M 11.589844 1.667969 "/>
<path style=" stroke:none;fill-rule:nonzero;fill:rgb(33.333333%,67.45098%,93.333333%);fill-opacity:1;" d="M 12.082031 1.667969 L 3.75 1.667969 C 2.828125 1.667969 2.082031 2.414062 2.082031 3.332031 L 2.082031 13.332031 C 2.082031 14.253906 2.828125 15 3.75 15 L 12.082031 15 C 13.003906 15 13.75 14.253906 13.75 13.332031 L 13.75 3.332031 C 13.75 2.414062 13.003906 1.667969 12.082031 1.667969 Z M 12.082031 1.667969 "/>
<path style=" stroke:none;fill-rule:nonzero;fill:rgb(80%,83.921569%,86.666667%);fill-opacity:1;" d="M 11.25 1.667969 L 2.917969 1.667969 C 1.996094 1.667969 1.25 2.414062 1.25 3.332031 L 1.25 13.332031 C 1.25 14.253906 1.996094 15 2.917969 15 L 11.25 15 C 12.171875 15 12.917969 14.253906 12.917969 13.332031 L 12.917969 3.332031 C 12.917969 2.414062 12.171875 1.667969 11.25 1.667969 Z M 11.25 1.667969 "/>
<path style=" stroke:none;fill-rule:nonzero;fill:rgb(60%,66.666667%,70.980392%);fill-opacity:1;" d="M 11.667969 6.25 C 11.667969 6.480469 11.480469 6.667969 11.25 6.667969 L 2.917969 6.667969 C 2.6875 6.667969 2.5 6.480469 2.5 6.25 C 2.5 6.019531 2.6875 5.832031 2.917969 5.832031 L 11.25 5.832031 C 11.480469 5.832031 11.667969 6.019531 11.667969 6.25 Z M 11.667969 8.332031 C 11.667969 8.5625 11.480469 8.75 11.25 8.75 L 2.917969 8.75 C 2.6875 8.75 2.5 8.5625 2.5 8.332031 C 2.5 8.101562 2.6875 7.917969 2.917969 7.917969 L 11.25 7.917969 C 11.480469 7.917969 11.667969 8.101562 11.667969 8.332031 Z M 11.667969 10.417969 C 11.667969 10.648438 11.480469 10.832031 11.25 10.832031 L 2.917969 10.832031 C 2.6875 10.832031 2.5 10.648438 2.5 10.417969 C 2.5 10.1875 2.6875 10 2.917969 10 L 11.25 10 C 11.480469 10 11.667969 10.1875 11.667969 10.417969 Z M 8.332031 12.5 C 8.332031 12.730469 8.148438 12.917969 7.917969 12.917969 L 2.917969 12.917969 C 2.6875 12.917969 2.5 12.730469 2.5 12.5 C 2.5 12.269531 2.6875 12.082031 2.917969 12.082031 L 7.917969 12.082031 C 8.148438 12.082031 8.332031 12.269531 8.332031 12.5 Z M 8.332031 12.5 "/>
<path style=" stroke:none;fill-rule:nonzero;fill:rgb(16.078431%,18.431373%,20%);fill-opacity:1;" d="M 3.265625 3.636719 C 2.972656 3.636719 2.734375 3.359375 2.734375 3.015625 C 2.734375 2.675781 2.972656 2.398438 3.265625 2.398438 C 3.558594 2.398438 3.792969 2.675781 3.792969 3.015625 C 3.792969 3.359375 3.558594 3.636719 3.265625 3.636719 Z M 3.265625 3.636719 "/>
<path style=" stroke:none;fill-rule:nonzero;fill:rgb(40%,45.882353%,49.803922%);fill-opacity:1;" d="M 3.558594 2.953125 C 3.535156 2.75 3.402344 2.621094 3.253906 2.527344 C 3.054688 2.398438 2.839844 2.109375 2.839844 1.746094 C 2.839844 1.285156 3.117188 0.871094 3.464844 0.871094 C 3.808594 0.871094 4.089844 1.25 4.089844 1.667969 L 4.921875 1.667969 C 4.910156 0.832031 4.265625 0.0742188 3.464844 0.0742188 C 2.660156 0.0742188 2.003906 0.832031 2.003906 1.742188 C 2.003906 2.515625 2.441406 3.148438 3.078125 3.378906 C 3.394531 3.492188 3.585938 3.191406 3.558594 2.953125 Z M 3.558594 2.953125 "/>
<path style=" stroke:none;fill-rule:nonzero;fill:rgb(16.078431%,18.431373%,20%);fill-opacity:1;" d="M 5.765625 3.636719 C 5.472656 3.636719 5.234375 3.359375 5.234375 3.015625 C 5.234375 2.675781 5.472656 2.398438 5.765625 2.398438 C 6.058594 2.398438 6.292969 2.675781 6.292969 3.015625 C 6.292969 3.359375 6.058594 3.636719 5.765625 3.636719 Z M 5.765625 3.636719 "/>
<path style=" stroke:none;fill-rule:nonzero;fill:rgb(40%,45.882353%,49.803922%);fill-opacity:1;" d="M 6.058594 2.953125 C 6.035156 2.75 5.902344 2.621094 5.753906 2.527344 C 5.554688 2.398438 5.339844 2.109375 5.339844 1.746094 C 5.339844 1.285156 5.617188 0.871094 5.964844 0.871094 C 6.308594 0.871094 6.589844 1.25 6.589844 1.667969 L 7.421875 1.667969 C 7.414062 0.832031 6.765625 0.0742188 5.964844 0.0742188 C 5.160156 0.0742188 4.503906 0.832031 4.503906 1.742188 C 4.503906 2.515625 4.941406 3.148438 5.578125 3.378906 C 5.894531 3.492188 6.085938 3.191406 6.058594 2.953125 Z M 6.058594 2.953125 "/>
<path style=" stroke:none;fill-rule:nonzero;fill:rgb(16.078431%,18.431373%,20%);fill-opacity:1;" d="M 8.265625 3.636719 C 7.972656 3.636719 7.734375 3.359375 7.734375 3.015625 C 7.734375 2.675781 7.972656 2.398438 8.265625 2.398438 C 8.558594 2.398438 8.792969 2.675781 8.792969 3.015625 C 8.792969 3.359375 8.558594 3.636719 8.265625 3.636719 Z M 8.265625 3.636719 "/>
<path style=" stroke:none;fill-rule:nonzero;fill:rgb(40%,45.882353%,49.803922%);fill-opacity:1;" d="M 8.558594 2.953125 C 8.535156 2.75 8.402344 2.621094 8.257812 2.527344 C 8.054688 2.398438 7.839844 2.109375 7.839844 1.746094 C 7.839844 1.285156 8.121094 0.871094 8.464844 0.871094 C 8.808594 0.871094 9.089844 1.25 9.089844 1.667969 L 9.921875 1.667969 C 9.914062 0.832031 9.265625 0.0742188 8.464844 0.0742188 C 7.660156 0.0742188 7.007812 0.832031 7.007812 1.742188 C 7.007812 2.515625 7.441406 3.148438 8.078125 3.378906 C 8.394531 3.492188 8.585938 3.191406 8.558594 2.953125 Z M 8.558594 2.953125 "/>
<path style=" stroke:none;fill-rule:nonzero;fill:rgb(16.078431%,18.431373%,20%);fill-opacity:1;" d="M 10.765625 3.636719 C 10.472656 3.636719 10.234375 3.359375 10.234375 3.015625 C 10.234375 2.675781 10.472656 2.398438 10.765625 2.398438 C 11.058594 2.398438 11.292969 2.675781 11.292969 3.015625 C 11.292969 3.359375 11.058594 3.636719 10.765625 3.636719 Z M 10.765625 3.636719 "/>
<path style=" stroke:none;fill-rule:nonzero;fill:rgb(40%,45.882353%,49.803922%);fill-opacity:1;" d="M 11.058594 2.953125 C 11.035156 2.75 10.902344 2.621094 10.757812 2.527344 C 10.554688 2.398438 10.339844 2.109375 10.339844 1.746094 C 10.339844 1.285156 10.621094 0.871094 10.964844 0.871094 C 11.308594 0.871094 11.589844 1.25 11.589844 1.667969 L 12.421875 1.667969 C 12.414062 0.832031 11.765625 0.0742188 10.964844 0.0742188 C 10.160156 0.0742188 9.507812 0.832031 9.507812 1.742188 C 9.507812 2.515625 9.941406 3.148438 10.578125 3.378906 C 10.894531 3.492188 11.085938 3.191406 11.058594 2.953125 Z M 11.058594 2.953125 "/>
</g>
</svg>
