<?xml version="1.0" encoding="UTF-8"?>
<svg xmlns="http://www.w3.org/2000/svg" xmlns:xlink="http://www.w3.org/1999/xlink" width="15pt" height="15pt" viewBox="0 0 15 15" version="1.1">
<g id="surface1">
<path style=" stroke:none;fill-rule:nonzero;fill:rgb(98.039216%,45.490196%,24.313725%);fill-opacity:1;" d="M 14.933594 9.648438 C 14.933594 9.878906 14.746094 10.066406 14.515625 10.066406 L 12.433594 10.074219 C 12.203125 10.074219 12.015625 9.886719 12.015625 9.65625 C 12.015625 9.425781 12.203125 9.238281 12.429688 9.238281 L 14.515625 9.234375 C 14.746094 9.234375 14.933594 9.417969 14.933594 9.648438 Z M 14.269531 7.363281 C 14.371094 7.570312 14.28125 7.820312 14.074219 7.917969 L 12.191406 8.8125 C 11.984375 8.910156 11.734375 8.820312 11.636719 8.613281 C 11.539062 8.40625 11.625 8.15625 11.835938 8.058594 L 13.714844 7.164062 C 13.925781 7.066406 14.171875 7.15625 14.269531 7.363281 Z M 14.28125 11.941406 C 14.378906 11.730469 14.289062 11.484375 14.082031 11.386719 L 12.195312 10.503906 C 11.988281 10.402344 11.738281 10.492188 11.640625 10.703125 C 11.542969 10.910156 11.632812 11.160156 11.84375 11.257812 L 13.730469 12.140625 C 13.9375 12.238281 14.183594 12.148438 14.28125 11.941406 Z M 14.28125 11.941406 "/>
<path style=" stroke:none;fill-rule:nonzero;fill:rgb(13.333333%,40%,60%);fill-opacity:1;" d="M 11.65625 6.199219 C 11.066406 6.023438 10.535156 5.554688 10.351562 5.261719 C 10.035156 4.757812 10.417969 4.625 10.289062 3.222656 C 10.167969 1.9375 8.398438 0.558594 6.25 0.417969 C 5.273438 0.351562 4.253906 0.550781 3.214844 1.121094 C 0.539062 2.585938 -0.519531 5.675781 1.546875 8.664062 C 3.40625 11.355469 1.660156 12.570312 1.660156 12.570312 C 1.660156 12.570312 1.730469 13.136719 2.875 13.898438 C 4.019531 14.660156 5.425781 14.144531 5.425781 14.144531 C 5.425781 14.144531 5.886719 12.496094 7.402344 12.648438 C 8.488281 12.808594 10.015625 12.59375 10.398438 12.222656 C 10.757812 11.875 10.335938 11.4375 10.625 10.460938 C 9.636719 10.367188 9.097656 9.894531 9.042969 9.234375 C 10.136719 9.339844 10.589844 8.992188 10.902344 8.609375 C 10.894531 8.386719 10.871094 7.910156 10.847656 7.589844 C 11.816406 7.308594 12.1875 6.355469 11.65625 6.199219 Z M 11.65625 6.199219 "/>
</g>
</svg>
