<?xml version="1.0" encoding="UTF-8"?>
<svg xmlns="http://www.w3.org/2000/svg" xmlns:xlink="http://www.w3.org/1999/xlink" width="15pt" height="15pt" viewBox="0 0 15 15" version="1.1">
<g id="surface1">
<path style=" stroke:none;fill-rule:nonzero;fill:rgb(80%,83.921569%,86.666667%);fill-opacity:1;" d="M 5.257812 7.070312 C 5.554688 6.777344 8.207031 1.769531 14.6875 0 C 14.097656 0.589844 6.546875 9.039062 6.546875 9.039062 Z M 5.257812 7.070312 "/>
<path style=" stroke:none;fill-rule:nonzero;fill:rgb(60.392157%,66.666667%,70.588235%);fill-opacity:1;" d="M 7.617188 9.429688 C 7.910156 9.132812 12.921875 6.480469 14.6875 0 L 5.847656 8.839844 Z M 7.617188 9.429688 "/>
<path style=" stroke:none;fill-rule:nonzero;fill:rgb(19.215686%,21.568627%,23.921569%);fill-opacity:1;" d="M 6.4375 10.019531 C 6.761719 9.691406 6.710938 9.113281 6.320312 8.722656 L 5.964844 8.367188 C 5.574219 7.976562 4.996094 7.925781 4.671875 8.25 L 1.429688 11.492188 C 1.105469 11.816406 1.15625 12.398438 1.546875 12.785156 L 1.902344 13.140625 C 2.292969 13.53125 2.871094 13.582031 3.195312 13.257812 Z M 6.4375 10.019531 "/>
<path style=" stroke:none;fill-rule:nonzero;fill:rgb(40.392157%,45.882353%,49.803922%);fill-opacity:1;" d="M 2.960938 9.957031 L 5.90625 10.546875 L 6.4375 10.019531 C 6.492188 9.960938 6.535156 9.898438 6.566406 9.828125 L 3.667969 9.25 Z M 5.964844 8.367188 C 5.574219 7.976562 4.996094 7.925781 4.671875 8.25 L 4.324219 8.59375 L 6.546875 9.039062 C 6.492188 8.925781 6.414062 8.816406 6.320312 8.722656 Z M 2.253906 10.667969 L 1.546875 11.375 L 4.492188 11.964844 L 5.199219 11.253906 Z M 1.246094 12.246094 C 1.289062 12.4375 1.386719 12.628906 1.546875 12.789062 L 1.902344 13.140625 C 1.941406 13.183594 1.988281 13.222656 2.035156 13.253906 L 2.914062 13.429688 C 3.019531 13.394531 3.117188 13.339844 3.195312 13.257812 L 3.714844 12.742188 Z M 1.246094 12.246094 "/>
<path style=" stroke:none;fill-rule:nonzero;fill:rgb(19.215686%,21.568627%,23.921569%);fill-opacity:1;" d="M 3.390625 12.960938 C 3.390625 13.878906 2.644531 14.625 1.726562 14.625 C 0.804688 14.625 0.0585938 13.878906 0.0585938 12.960938 C 0.0585938 12.039062 0.804688 11.292969 1.726562 11.292969 C 2.644531 11.292969 3.390625 12.039062 3.390625 12.960938 Z M 3.390625 12.960938 "/>
<path style=" stroke:none;fill-rule:nonzero;fill:rgb(19.215686%,21.568627%,23.921569%);fill-opacity:1;" d="M 8.207031 10.902344 C 7.960938 11.144531 7.566406 11.144531 7.320312 10.902344 L 3.640625 7.21875 C 3.394531 6.972656 3.394531 6.578125 3.640625 6.335938 C 3.882812 6.089844 4.277344 6.089844 4.523438 6.335938 L 8.207031 10.019531 C 8.449219 10.261719 8.449219 10.65625 8.207031 10.902344 Z M 8.207031 10.902344 "/>
</g>
</svg>
