<?xml version="1.0" encoding="UTF-8"?>
<svg xmlns="http://www.w3.org/2000/svg" xmlns:xlink="http://www.w3.org/1999/xlink" width="15pt" height="15pt" viewBox="0 0 15 15" version="1.1">
<g id="surface1">
<path style=" stroke:none;fill-rule:nonzero;fill:rgb(88.235294%,90.980392%,92.941176%);fill-opacity:1;" d="M 11.277344 11.050781 L 10.917969 9.242188 L 12.496094 9.59375 L 11.464844 8.21875 L 13.375 7.453125 L 11.410156 6.273438 L 12.761719 5.261719 L 10.9375 5.261719 L 12.089844 3.722656 L 10.285156 4.082031 L 10.824219 1.570312 L 8.855469 3.363281 L 8.097656 1.46875 L 6.894531 3.875 L 5.703125 1.890625 L 5.148438 3.746094 L 3.070312 2.359375 L 3.976562 4.53125 L 2.296875 4.15625 L 3.320312 5.523438 L 1.605469 6.285156 L 3.492188 7.417969 L 2.777344 8.488281 L 4.394531 8.488281 L 2.109375 12.710938 L 5.941406 9.574219 L 6.714844 11.5 L 7.9375 9.460938 L 9.140625 11.863281 L 9.882812 10.003906 Z M 11.277344 11.050781 "/>
<path style=" stroke:none;fill-rule:nonzero;fill:rgb(40.392157%,45.882353%,49.803922%);fill-opacity:1;" d="M 12.285156 8.449219 L 14.542969 7.546875 L 12.339844 6.226562 L 14.324219 4.738281 L 11.980469 4.738281 L 13.324219 2.945312 L 10.960938 3.417969 L 11.675781 0.09375 L 9.0625 2.472656 L 8.152344 0.199219 L 6.855469 2.792969 L 5.546875 0.609375 L 4.851562 2.921875 L 1.929688 0.972656 L 3.109375 3.804688 L 1.035156 3.34375 L 2.511719 5.3125 L 0.476562 6.214844 L 2.757812 7.582031 L 1.804688 9.011719 L 3.519531 9.011719 L 0.390625 14.789062 L 5.722656 10.425781 L 6.621094 12.667969 L 7.894531 10.539062 L 9.191406 13.136719 L 10.113281 10.828125 L 12.054688 12.285156 L 11.582031 9.925781 L 13.753906 10.40625 Z M 7.9375 9.460938 L 6.714844 11.5 L 5.941406 9.574219 L 2.109375 12.710938 L 4.394531 8.488281 L 2.777344 8.488281 L 3.492188 7.417969 L 1.605469 6.285156 L 3.320312 5.523438 L 2.296875 4.15625 L 3.976562 4.53125 L 3.070312 2.359375 L 5.148438 3.746094 L 5.703125 1.890625 L 6.894531 3.875 L 8.097656 1.46875 L 8.855469 3.363281 L 10.824219 1.570312 L 10.289062 4.082031 L 12.089844 3.722656 L 10.9375 5.261719 L 12.761719 5.261719 L 11.410156 6.273438 L 13.375 7.453125 L 11.464844 8.21875 L 12.496094 9.59375 L 10.917969 9.242188 L 11.277344 11.050781 L 9.882812 10.003906 L 9.140625 11.863281 Z M 7.9375 9.460938 "/>
</g>
</svg>
