<?xml version="1.0" encoding="UTF-8"?>
<svg xmlns="http://www.w3.org/2000/svg" xmlns:xlink="http://www.w3.org/1999/xlink" width="15pt" height="15pt" viewBox="0 0 15 15" version="1.1">
<g id="surface1">
<path style=" stroke:none;fill-rule:nonzero;fill:rgb(53.333333%,78.823529%,97.647059%);fill-opacity:1;" d="M 15 13.332031 C 15 14.253906 14.253906 15 13.332031 15 L 1.667969 15 C 0.746094 15 0 14.253906 0 13.332031 L 0 1.667969 C 0 0.746094 0.746094 0 1.667969 0 L 13.332031 0 C 14.253906 0 15 0.746094 15 1.667969 Z M 15 13.332031 "/>
<path style=" stroke:none;fill-rule:nonzero;fill:rgb(8.235294%,45.882353%,41.176471%);fill-opacity:1;" d="M 11.039062 3.824219 L 13.332031 0 L 12.5 0 L 9.839844 3.039062 C 9.359375 2.804688 8.835938 2.644531 8.28125 2.5625 L 7.917969 0 L 7.082031 0 L 6.71875 2.5625 C 6.175781 2.640625 5.660156 2.796875 5.183594 3.023438 L 2.917969 0 L 2.082031 0 L 3.984375 3.800781 C 3.605469 4.125 3.269531 4.5 2.992188 4.914062 L 0 4.167969 L 0 5 L 2.425781 6.039062 C 2.207031 6.625 2.082031 7.253906 2.082031 7.917969 C 2.082031 7.957031 2.078125 7.996094 2.078125 8.035156 L 0.929688 8.199219 C 0.898438 8.105469 0.867188 8.015625 0.832031 7.917969 C 0.417969 6.667969 0 5.832031 0 5.832031 L 0 13.332031 C 0 15 1.667969 15 1.667969 15 L 13.332031 15 C 13.332031 15 13.140625 14.566406 13.332031 14.167969 C 13.40625 14.011719 13.9375 13.890625 13.75 13.332031 C 13.453125 12.445312 13.160156 10.515625 13.011719 9.167969 L 15 9.167969 L 15 8.332031 L 12.921875 8.035156 C 12.917969 7.996094 12.917969 7.949219 12.917969 7.917969 C 12.917969 7.253906 12.792969 6.625 12.574219 6.039062 L 15 5 L 15 4.167969 L 12.007812 4.914062 C 11.734375 4.507812 11.410156 4.140625 11.039062 3.824219 Z M 1.667969 10 C 1.667969 10 1.511719 9.6875 1.296875 9.167969 L 1.914062 9.167969 C 1.800781 9.660156 1.667969 10 1.667969 10 Z M 1.667969 10 "/>
<path style=" stroke:none;fill-rule:nonzero;fill:rgb(24.705882%,78.823529%,72.54902%);fill-opacity:1;" d="M 2.917969 7.5 C 2.917969 7.5 3.09375 6.117188 4.582031 5 C 6.25 3.75 7.082031 4.167969 7.082031 4.582031 C 7.082031 5 5.832031 5 4.582031 5.832031 C 3.332031 6.667969 2.917969 7.5 2.917969 7.5 Z M 12.082031 7.5 C 12.082031 7.5 11.90625 6.117188 10.417969 5 C 8.75 3.75 7.917969 4.167969 7.917969 4.582031 C 7.917969 5 9.167969 5 10.417969 5.832031 C 11.667969 6.667969 12.082031 7.5 12.082031 7.5 Z M 7.5 5.832031 C 5 5.832031 4.167969 7.5 4.167969 7.5 C 4.167969 7.5 5 6.667969 5.832031 6.667969 C 6.667969 6.667969 6.667969 7.5 6.667969 7.5 L 6.667969 8.332031 C 6.667969 8.75 7.5 8.75 7.5 8.75 C 7.5 8.75 8.332031 8.75 8.332031 8.332031 L 8.332031 7.5 C 8.332031 7.5 8.332031 6.667969 9.167969 6.667969 C 10 6.667969 10.832031 7.5 10.832031 7.5 C 10.832031 7.5 10 5.832031 7.5 5.832031 Z M 7.5 5.832031 "/>
<path style=" stroke:none;fill-rule:nonzero;fill:rgb(24.705882%,78.823529%,72.54902%);fill-opacity:1;" d="M 9.582031 8.332031 C 8.75 8.332031 8.75 7.917969 8.75 7.917969 C 8.75 7.917969 8.714844 9.089844 8.332031 9.582031 L 6.667969 9.582031 C 6.285156 9.089844 6.25 7.917969 6.25 7.917969 C 6.25 7.917969 6.25 8.332031 5.417969 8.332031 C 4.582031 8.332031 3.75 7.917969 3.75 7.917969 C 3.75 7.917969 3.75 11.667969 4.582031 12.082031 C 5.109375 12.347656 6.25 11.667969 7.5 11.667969 C 8.75 11.667969 9.890625 12.347656 10.417969 12.082031 C 11.25 11.667969 11.25 7.917969 11.25 7.917969 C 11.25 7.917969 10.417969 8.332031 9.582031 8.332031 Z M 9.582031 8.332031 "/>
<path style=" stroke:none;fill-rule:nonzero;fill:rgb(8.235294%,45.882353%,41.176471%);fill-opacity:1;" d="M 6.25 10.417969 L 8.75 10.417969 C 8.75 10.417969 8.332031 10 7.5 10 C 6.667969 10 6.25 10.417969 6.25 10.417969 Z M 6.25 10.417969 "/>
<path style=" stroke:none;fill-rule:nonzero;fill:rgb(24.705882%,78.823529%,72.54902%);fill-opacity:1;" d="M 0.832031 9.582031 C 0.417969 11.667969 0.921875 13.824219 1.25 13.332031 C 2.082031 12.082031 2.082031 13.332031 2.082031 13.75 C 2.082031 14.167969 2.300781 15.503906 2.917969 14.582031 C 3.5 13.707031 5.570312 14.464844 6.761719 15 L 7.242188 15 C 6.378906 14.417969 4.355469 14.015625 3.332031 13.332031 C 2.082031 12.5 0.832031 9.582031 0.832031 9.582031 Z M 0.832031 9.582031 "/>
</g>
</svg>
