<?xml version="1.0" encoding="UTF-8"?>
<svg xmlns="http://www.w3.org/2000/svg" xmlns:xlink="http://www.w3.org/1999/xlink" width="15pt" height="15pt" viewBox="0 0 15 15" version="1.1">
<g id="surface1">
<path style=" stroke:none;fill-rule:nonzero;fill:rgb(29.411765%,32.941176%,36.470588%);fill-opacity:1;" d="M 10.503906 7.082031 L 4.582031 7.082031 C 4.582031 7.082031 2.871094 8.472656 2.601562 8.707031 C 1.144531 9.972656 0 9.859375 0 10.425781 L 0 15 L 15 15 L 15 11.25 Z M 10.503906 7.082031 "/>
<path style=" stroke:none;fill-rule:nonzero;fill:rgb(16.078431%,18.431373%,20%);fill-opacity:1;" d="M 1.628906 15 C 1.59375 14.730469 1.515625 13.761719 2.109375 12.902344 C 2.28125 12.652344 2.097656 12.289062 3.058594 10.820312 C 3.324219 10.417969 4.332031 9.601562 4.605469 9.285156 C 4.878906 8.96875 5.15625 7.863281 5.15625 7.863281 L 4.527344 7.851562 C 4.527344 7.851562 4.167969 8.800781 3.878906 8.945312 C 3.097656 9.335938 2.292969 10.246094 2.140625 10.507812 C 1.929688 10.871094 0.539062 12.773438 0.296875 13.175781 L 0 13.667969 L 0 15 Z M 13.074219 9.082031 L 9.230469 8.265625 L 9.769531 9.816406 L 10.644531 10.25 C 11.183594 10.597656 11.851562 10.796875 11.9375 11.777344 C 11.960938 12.039062 11.777344 12.976562 11.625 13.550781 C 11.496094 14.035156 11.648438 14.417969 11.574219 15 L 13.011719 15 C 12.710938 14.394531 12.527344 13.671875 12.53125 13.582031 C 12.539062 13.453125 12.664062 12.242188 12.734375 11.558594 C 13.050781 12.132812 13.609375 13.179688 13.628906 13.523438 C 13.644531 13.789062 13.625 14.484375 13.605469 15 L 15 15 L 15 10.183594 C 15 9.664062 13.683594 9.644531 13.074219 9.082031 Z M 6.527344 12.144531 C 6.308594 12.683594 6.425781 12.683594 6.398438 13.019531 C 6.34375 13.699219 6.714844 14.125 6.714844 14.125 C 6.714844 14.125 6.996094 13.550781 6.988281 13.320312 C 6.960938 12.28125 7.390625 11.914062 7.335938 11.632812 C 7.335938 11.632812 6.746094 11.605469 6.527344 12.144531 Z M 4.464844 12.5625 C 4.59375 12.347656 4.933594 12.335938 5.125 12 C 5.316406 11.667969 5.3125 11.089844 5.511719 10.488281 C 5.710938 9.882812 6.597656 9.503906 6.597656 9.503906 C 6.597656 9.503906 5.847656 8.449219 5.246094 9.164062 C 4.726562 9.78125 4.816406 10.910156 4.753906 11.21875 C 4.691406 11.527344 3.992188 12.441406 3.992188 12.441406 C 3.992188 12.441406 3.839844 13.433594 3.871094 13.710938 C 3.898438 13.988281 4.222656 12.972656 4.464844 12.5625 Z M 9.703125 11.878906 C 9.546875 11.625 9.261719 11.300781 9.207031 10.996094 C 9.144531 10.648438 9.121094 10.46875 9.003906 10.421875 C 8.890625 10.378906 8.679688 10.472656 8.523438 10.679688 C 8.378906 10.875 8.5 11.441406 8.5 11.441406 C 8.5 11.441406 8.847656 11.746094 9.070312 11.886719 C 9.261719 12.003906 9.390625 13.140625 9.425781 13.273438 C 9.464844 13.40625 9.859375 12.132812 9.703125 11.878906 Z M 9.703125 11.878906 "/>
<path style=" stroke:none;fill-rule:nonzero;fill:rgb(88.235294%,90.980392%,92.941176%);fill-opacity:1;" d="M 6.691406 4.128906 C 6.375 4.128906 4.609375 6.457031 4.609375 6.457031 L 4.542969 6.5625 L 2.332031 8.945312 C 2.332031 8.945312 2.429688 9.253906 2.621094 9.472656 C 2.925781 9.824219 3.480469 9.175781 3.855469 9.054688 C 4.460938 8.859375 4.261719 9.964844 4.652344 10.007812 C 5.183594 10.070312 5.730469 9.097656 6.117188 9.128906 C 6.503906 9.160156 6.929688 10.234375 7.339844 10.234375 C 7.953125 10.234375 7.886719 9.421875 8.722656 9.421875 C 9.121094 9.421875 9.199219 9.886719 9.769531 9.820312 C 10.21875 9.765625 10.863281 8.816406 11.078125 8.738281 C 11.554688 8.554688 12.160156 9.339844 12.515625 9.300781 C 12.871094 9.265625 12.789062 9.222656 12.789062 9.222656 L 8.15625 4.101562 L 7.886719 4.101562 C 7.671875 4.101562 7.582031 4.089844 7.335938 4.089844 C 7.171875 4.089844 6.78125 4.128906 6.691406 4.128906 Z M 6.691406 4.128906 "/>
<path style=" stroke:none;fill-rule:nonzero;fill:rgb(66.666667%,72.156863%,76.078431%);fill-opacity:1;" d="M 6.550781 5.539062 C 6.550781 5.539062 5.785156 6.992188 5.707031 7.226562 C 5.628906 7.460938 5.445312 8.246094 5.445312 8.246094 C 5.445312 8.246094 5.8125 8 5.9375 7.8125 C 6.0625 7.625 6.253906 7.019531 6.394531 6.78125 C 6.535156 6.546875 6.792969 6.296875 6.890625 6.117188 C 6.988281 5.9375 6.949219 5.054688 6.949219 5.054688 Z M 4.867188 6.058594 C 4.667969 6.269531 4.082031 7.0625 4.082031 7.0625 L 2.324219 8.9375 C 2.324219 8.9375 2.542969 9.570312 2.8125 9.578125 C 3.078125 9.585938 3.183594 8.960938 3.1875 8.664062 C 3.195312 8.371094 3.992188 7.878906 4.09375 7.597656 C 4.191406 7.3125 4.527344 7.21875 4.742188 6.964844 C 4.953125 6.710938 4.988281 6.363281 5.277344 6.082031 C 6.019531 5.375 5.617188 5.191406 5.617188 5.191406 C 5.617188 5.191406 5.066406 5.84375 4.867188 6.058594 Z M 7.996094 7.703125 C 7.953125 7.238281 7.539062 6.203125 7.539062 6.203125 C 7.539062 6.203125 7.371094 7.101562 7.355469 7.402344 C 7.339844 7.703125 7.4375 8.074219 7.527344 8.40625 C 7.617188 8.734375 7.867188 9.171875 7.867188 9.171875 C 7.867188 9.171875 8.039062 8.167969 7.996094 7.703125 Z M 7.996094 7.703125 "/>
<path style=" stroke:none;fill-rule:nonzero;fill:rgb(80%,83.921569%,86.666667%);fill-opacity:1;" d="M 8.507812 4.101562 L 7.925781 4.101562 C 7.84375 4.101562 7.996094 4.585938 7.933594 4.953125 C 7.867188 5.355469 8.691406 6.230469 8.867188 7.164062 C 8.90625 7.382812 9.164062 8.546875 9.429688 9.1875 C 9.679688 9.785156 9.769531 9.820312 9.769531 9.820312 C 9.769531 9.820312 10.59375 9.726562 10.953125 8.933594 C 11.167969 8.46875 12.734375 9.96875 13.070312 9.085938 C 13.070312 9.085938 11.753906 8.113281 10.5 6.390625 C 9.355469 4.808594 8.714844 4.101562 8.507812 4.101562 Z M 8.507812 4.101562 "/>
<path style=" stroke:none;fill-rule:nonzero;fill:rgb(66.666667%,72.156863%,76.078431%);fill-opacity:1;" d="M 9.285156 6.863281 C 9.351562 7.175781 9.5625 7.375 9.535156 8.042969 C 9.507812 8.691406 10.804688 9.21875 10.683594 9.34375 C 10.253906 9.773438 9.769531 9.820312 9.769531 9.820312 C 9.632812 9.746094 9.222656 9.039062 9.132812 8.640625 C 9.039062 8.238281 8.871094 7.058594 8.757812 6.8125 C 8.648438 6.570312 8.40625 6.28125 8.273438 6 C 8.140625 5.71875 8.097656 5.480469 8.097656 5.480469 C 8.097656 5.480469 8.5 5.636719 8.773438 5.871094 C 9.046875 6.105469 9.222656 6.550781 9.285156 6.863281 Z M 9.285156 6.863281 "/>
</g>
</svg>
