<?xml version="1.0" encoding="UTF-8"?>
<svg xmlns="http://www.w3.org/2000/svg" xmlns:xlink="http://www.w3.org/1999/xlink" width="15pt" height="15pt" viewBox="0 0 15 15" version="1.1">
<g id="surface1">
<path style=" stroke:none;fill-rule:nonzero;fill:rgb(74.509804%,9.803922%,19.215686%);fill-opacity:1;" d="M 6.710938 10.832031 L 7.960938 10.832031 L 7.960938 15 L 6.710938 15 Z M 6.710938 10.832031 "/>
<path style=" stroke:none;fill-rule:nonzero;fill:rgb(86.666667%,18.039216%,26.666667%);fill-opacity:1;" d="M 8.632812 8.109375 L 6.035156 8.109375 C 6.023438 8.152344 4.890625 12.078125 1.027344 15 L 3.453125 15 C 4.472656 14.308594 5.835938 13.882812 7.335938 13.882812 C 8.832031 13.882812 10.195312 14.308594 11.214844 15 L 13.644531 15 C 9.792969 12.085938 8.644531 8.152344 8.632812 8.109375 Z M 7.335938 12.632812 C 6.4375 12.632812 5.582031 12.769531 4.796875 13.011719 C 5.328125 12.320312 5.753906 11.652344 6.09375 11.046875 L 8.574219 11.046875 C 8.914062 11.652344 9.339844 12.320312 9.871094 13.011719 C 9.085938 12.769531 8.230469 12.632812 7.335938 12.632812 Z M 7.335938 12.632812 "/>
<path style=" stroke:none;fill-rule:nonzero;fill:rgb(86.666667%,18.039216%,26.666667%);fill-opacity:1;" d="M 6.058594 6.683594 C 5.964844 7.199219 5.855469 7.699219 5.730469 8.140625 L 8.960938 8.140625 C 8.835938 7.699219 8.730469 7.199219 8.636719 6.683594 Z M 6.058594 6.683594 "/>
<path style=" stroke:none;fill-rule:nonzero;fill:rgb(80.392157%,83.921569%,86.666667%);fill-opacity:1;" d="M 9.757812 8.160156 L 9.394531 7.894531 C 9.375 7.878906 9.351562 7.871094 9.328125 7.871094 L 5.351562 7.871094 C 5.328125 7.871094 5.304688 7.878906 5.285156 7.894531 L 4.917969 8.160156 C 4.890625 8.183594 4.875 8.214844 4.878906 8.25 C 4.878906 8.25 4.960938 9.683594 4.988281 9.730469 C 5.019531 9.785156 5.199219 9.929688 5.234375 9.929688 L 9.445312 9.929688 C 9.480469 9.929688 9.660156 9.785156 9.691406 9.730469 C 9.714844 9.683594 9.800781 8.25 9.800781 8.25 C 9.804688 8.214844 9.789062 8.183594 9.757812 8.160156 Z M 8.417969 5.292969 L 6.277344 5.292969 C 6.214844 5.746094 6.140625 6.21875 6.058594 6.683594 L 8.632812 6.683594 C 8.550781 6.21875 8.476562 5.746094 8.417969 5.292969 Z M 8.417969 5.292969 "/>
<path style=" stroke:none;fill-rule:nonzero;fill:rgb(86.666667%,18.039216%,26.666667%);fill-opacity:1;" d="M 8.238281 3.835938 L 6.453125 3.835938 C 6.410156 4.253906 6.347656 4.757812 6.277344 5.292969 L 8.417969 5.292969 C 8.34375 4.757812 8.285156 4.253906 8.238281 3.835938 Z M 8.238281 3.835938 "/>
<path style=" stroke:none;fill-rule:nonzero;fill:rgb(80.392157%,83.921569%,86.666667%);fill-opacity:1;" d="M 8.191406 3.371094 C 8.179688 3.371094 6.515625 3.371094 6.503906 3.371094 C 6.488281 3.507812 6.472656 3.664062 6.453125 3.835938 L 8.238281 3.835938 Z M 8.191406 3.371094 "/>
<path style=" stroke:none;fill-rule:nonzero;fill:rgb(66.666667%,72.156863%,76.078431%);fill-opacity:1;" d="M 8.191406 3.371094 C 8.164062 3.132812 8.132812 2.835938 8.132812 2.835938 L 6.558594 2.835938 C 6.558594 2.835938 6.527344 3.132812 6.503906 3.371094 C 6.515625 3.371094 8.179688 3.371094 8.191406 3.371094 Z M 8.191406 3.371094 "/>
<path style=" stroke:none;fill-rule:nonzero;fill:rgb(88.235294%,90.980392%,92.941176%);fill-opacity:1;" d="M 6.324219 2.457031 L 6.324219 3.007812 C 6.324219 3.121094 6.421875 3.214844 6.539062 3.214844 L 8.160156 3.214844 C 8.28125 3.214844 8.378906 3.121094 8.378906 3.007812 L 8.378906 2.457031 Z M 6.324219 2.457031 "/>
<path style=" stroke:none;fill-rule:nonzero;fill:rgb(86.666667%,18.039216%,26.666667%);fill-opacity:1;" d="M 8.160156 1.703125 L 7.703125 1.703125 L 7.617188 0.136719 C 7.617188 0.09375 7.582031 0.0625 7.539062 0.0625 L 7.1875 0.0625 C 7.144531 0.0625 7.109375 0.09375 7.109375 0.136719 L 7.027344 1.703125 L 6.539062 1.703125 C 6.421875 1.703125 6.324219 1.792969 6.324219 1.910156 L 6.324219 2.457031 L 8.375 2.457031 L 8.375 1.910156 C 8.375 1.792969 8.28125 1.703125 8.160156 1.703125 Z M 8.160156 1.703125 "/>
</g>
</svg>
