<?xml version="1.0" encoding="UTF-8"?>
<svg xmlns="http://www.w3.org/2000/svg" xmlns:xlink="http://www.w3.org/1999/xlink" width="15pt" height="15pt" viewBox="0 0 15 15" version="1.1">
<g id="surface1">
<path style=" stroke:none;fill-rule:nonzero;fill:rgb(80%,83.921569%,86.666667%);fill-opacity:1;" d="M 5 3.167969 L 1.25 2.164062 C 0.558594 1.980469 0 2.390625 0 3.082031 L 0 11.414062 C 0 12.105469 0.558594 12.8125 1.25 13 L 5 14.003906 Z M 10 12.664062 L 13.75 13.667969 C 14.441406 13.851562 15 13.441406 15 12.753906 L 15 4.421875 C 15 3.730469 14.441406 3.019531 13.75 2.835938 L 10 1.832031 Z M 10 12.664062 "/>
<path style=" stroke:none;fill-rule:nonzero;fill:rgb(88.235294%,90.980392%,92.941176%);fill-opacity:1;" d="M 10 12.664062 L 5 14.003906 L 5 3.167969 L 10 1.828125 Z M 10 12.664062 "/>
<path style=" stroke:none;fill-rule:nonzero;fill:rgb(33.333333%,67.45098%,93.333333%);fill-opacity:1;" d="M 5 4.003906 L 1.667969 3.109375 C 1.207031 2.984375 0.832031 3.257812 0.832031 3.71875 L 0.832031 11.21875 C 0.832031 11.679688 1.207031 12.152344 1.667969 12.277344 L 5 13.167969 Z M 13.332031 3.554688 L 10 2.664062 L 10 11.828125 L 13.332031 12.722656 C 13.792969 12.847656 14.167969 12.574219 14.167969 12.113281 L 14.167969 4.613281 C 14.167969 4.152344 13.792969 3.679688 13.332031 3.554688 Z M 13.332031 3.554688 "/>
<path style=" stroke:none;fill-rule:nonzero;fill:rgb(53.333333%,78.823529%,97.647059%);fill-opacity:1;" d="M 10 11.828125 L 5 13.167969 L 5 4.003906 L 10 2.664062 Z M 10 11.828125 "/>
<path style=" stroke:none;fill-rule:nonzero;fill:rgb(36.078431%,56.862745%,23.137255%);fill-opacity:1;" d="M 5 8.960938 C 4.886719 8.964844 4.753906 9.003906 4.648438 9.019531 C 4.464844 9.050781 4.511719 9.238281 4.453125 9.207031 C 4.398438 9.175781 4.257812 9.09375 4.117188 8.933594 C 3.976562 8.765625 4.222656 8.734375 4.289062 8.671875 C 4.359375 8.613281 4.160156 8.601562 4.089844 8.535156 C 4.019531 8.46875 3.890625 8.578125 3.78125 8.417969 C 3.667969 8.261719 3.738281 8.089844 3.726562 7.925781 C 3.710938 7.765625 3.90625 7.785156 4.035156 7.789062 C 4.160156 7.789062 4.257812 7.847656 4.257812 8.039062 C 4.257812 8.230469 4.410156 8.335938 4.371094 8.101562 C 4.328125 7.867188 4.410156 7.828125 4.46875 7.730469 C 4.523438 7.632812 4.621094 7.5 4.746094 7.296875 C 4.839844 7.148438 4.910156 7.179688 5 7.226562 L 5 5.832031 C 4.976562 5.816406 4.953125 5.796875 4.929688 5.785156 C 4.804688 5.730469 4.972656 6.101562 4.875 6.25 C 4.773438 6.398438 4.625 6.328125 4.46875 6.289062 C 4.316406 6.246094 4.171875 6.0625 4.285156 5.867188 C 4.394531 5.675781 4.609375 5.757812 4.722656 5.597656 C 4.835938 5.4375 4.324219 5.316406 4.140625 5.203125 C 3.960938 5.089844 3.742188 5.035156 3.558594 5.144531 C 3.375 5.253906 2.984375 5.199219 2.832031 5.222656 C 2.679688 5.242188 2.652344 5.066406 2.621094 4.933594 C 2.59375 4.796875 2.351562 4.796875 2.097656 4.792969 C 1.847656 4.785156 1.375 4.910156 1.453125 5.523438 C 1.484375 5.738281 1.707031 5.574219 1.75 5.539062 C 1.789062 5.503906 2 5.621094 2.027344 5.804688 C 2.058594 5.988281 2.042969 6.175781 1.988281 6.316406 C 1.929688 6.460938 2.128906 6.738281 2.238281 6.988281 C 2.351562 7.242188 2.476562 7.277344 2.535156 7.289062 C 2.589844 7.304688 2.910156 7.535156 2.898438 7.707031 C 2.882812 7.878906 3.191406 8.117188 3.316406 8.265625 C 3.445312 8.410156 3.523438 8.539062 3.6875 8.617188 C 3.851562 8.691406 4.042969 9.046875 4.128906 9.101562 C 4.191406 9.144531 4.300781 9.289062 4.367188 9.34375 C 4.28125 9.445312 4.113281 9.65625 4.113281 9.773438 C 4.113281 9.933594 4.296875 10.230469 4.367188 10.3125 C 4.433594 10.394531 4.636719 10.5 4.679688 10.667969 C 4.71875 10.839844 4.648438 11.355469 4.523438 11.464844 C 4.398438 11.570312 4.351562 11.898438 4.351562 11.898438 C 4.351562 11.898438 4.394531 12.019531 4.542969 11.949219 C 4.671875 11.890625 4.867188 11.714844 5 11.617188 Z M 5 8.960938 "/>
<path style=" stroke:none;fill-rule:nonzero;fill:rgb(46.666667%,69.803922%,33.333333%);fill-opacity:1;" d="M 5.113281 7.253906 C 5.070312 7.261719 5.035156 7.261719 5 7.261719 L 5 5.867188 C 5.105469 5.894531 5.214844 6 5.292969 6.171875 C 5.390625 6.386719 5.546875 6.199219 5.601562 6.328125 C 5.660156 6.457031 5.96875 6.644531 5.8125 6.636719 C 5.660156 6.632812 5.503906 6.640625 5.460938 6.828125 C 5.421875 7.015625 5.53125 7.15625 5.421875 7.171875 C 5.308594 7.1875 5.265625 7.230469 5.113281 7.253906 Z M 6.191406 9.570312 C 6.007812 9.539062 6.042969 9.5625 5.929688 9.320312 C 5.816406 9.082031 5.75 9.011719 5.496094 9.046875 C 5.246094 9.085938 5.253906 9.105469 5.183594 8.980469 C 5.15625 8.925781 5.085938 8.945312 5 8.992188 L 5 11.648438 C 5.039062 11.601562 5.070312 11.558594 5.09375 11.535156 C 5.304688 11.335938 5.511719 11.109375 5.707031 10.851562 C 5.902344 10.589844 5.832031 10.464844 5.929688 10.234375 C 6.027344 10 6.152344 9.976562 6.320312 9.757812 C 6.492188 9.535156 6.371094 9.601562 6.191406 9.570312 Z M 10 6.554688 L 10 3.921875 C 9.984375 3.925781 9.972656 3.929688 9.953125 3.929688 C 9.867188 3.933594 9.753906 3.984375 9.628906 4.0625 C 9.621094 4.0625 9.609375 4.058594 9.601562 4.054688 C 9.226562 3.980469 9.054688 4.558594 8.75 4.535156 C 8.445312 4.511719 8.042969 4.390625 7.777344 4.75 C 7.515625 5.105469 7.457031 5.386719 7.777344 5.289062 C 8.101562 5.191406 8.324219 4.695312 8.488281 4.835938 C 8.648438 4.972656 8.609375 5.132812 8.222656 5.292969 C 7.839844 5.453125 7.425781 5.636719 7.203125 5.695312 C 6.980469 5.753906 6.929688 5.917969 7.082031 6.035156 C 7.234375 6.15625 6.988281 6.234375 6.738281 6.460938 C 6.484375 6.691406 6.796875 6.675781 7.011719 6.753906 C 7.222656 6.835938 7.382812 6.621094 7.476562 6.367188 C 7.566406 6.113281 7.957031 5.734375 8.121094 5.722656 C 8.285156 5.714844 8.285156 5.804688 8.253906 5.976562 C 8.25 6.003906 8.253906 6.019531 8.257812 6.03125 C 8.1875 6.257812 8.128906 6.460938 8.105469 6.578125 C 8.09375 6.632812 8.09375 6.722656 8.09375 6.824219 C 8.058594 6.828125 8.019531 6.832031 7.992188 6.824219 C 7.808594 6.769531 7.394531 6.734375 7.28125 6.84375 C 7.171875 6.953125 7.109375 7.050781 6.980469 7.144531 C 6.847656 7.234375 6.3125 7.652344 6.300781 8.011719 C 6.292969 8.371094 6.28125 8.773438 6.492188 8.730469 C 6.707031 8.683594 7.222656 8.386719 7.382812 8.191406 C 7.546875 8 7.769531 7.976562 7.839844 8.128906 C 7.910156 8.28125 7.859375 8.398438 7.789062 8.691406 C 7.71875 8.988281 7.835938 9.09375 7.949219 9.304688 C 8.0625 9.515625 8.152344 9.625 8.152344 9.800781 C 8.152344 9.972656 8.316406 10.101562 8.558594 9.746094 C 8.636719 9.636719 8.710938 9.496094 8.78125 9.347656 C 8.949219 9.152344 9.101562 8.964844 9.097656 8.890625 C 9.089844 8.777344 9.085938 8.710938 9.085938 8.632812 L 9.125 8.539062 C 9.175781 8.417969 9.222656 8.230469 9.273438 8.058594 C 9.277344 8.054688 9.28125 8.050781 9.28125 8.050781 C 9.382812 7.910156 9.359375 7.902344 9.523438 7.734375 C 9.632812 7.621094 9.628906 7.519531 9.613281 7.453125 C 9.65625 7.378906 9.667969 7.335938 9.601562 7.355469 L 9.59375 7.355469 C 9.59375 7.355469 9.589844 7.363281 9.589844 7.363281 C 9.582031 7.300781 9.503906 7.363281 9.382812 7.421875 C 9.265625 7.425781 9.144531 7.394531 9.105469 7.269531 C 9.046875 7.105469 8.851562 6.855469 8.835938 6.714844 C 8.839844 6.695312 8.839844 6.679688 8.839844 6.660156 C 8.847656 6.648438 8.855469 6.632812 8.871094 6.625 C 8.886719 6.617188 8.902344 6.613281 8.917969 6.609375 C 8.933594 6.65625 8.949219 6.726562 8.953125 6.804688 C 8.964844 7.003906 9.117188 6.886719 9.117188 7.011719 C 9.117188 7.136719 9.339844 7.214844 9.390625 7.238281 C 9.40625 7.246094 9.433594 7.226562 9.457031 7.199219 C 9.472656 7.203125 9.484375 7.210938 9.496094 7.214844 C 9.621094 7.226562 9.882812 6.804688 9.964844 6.730469 C 10.003906 6.691406 10.007812 6.617188 9.976562 6.566406 Z M 10 6.554688 "/>
<path style=" stroke:none;fill-rule:nonzero;fill:rgb(36.078431%,56.862745%,23.137255%);fill-opacity:1;" d="M 11.515625 8.425781 C 11.492188 8.609375 11.589844 8.507812 11.765625 8.71875 C 11.941406 8.929688 11.722656 8.882812 11.644531 8.851562 C 11.570312 8.816406 11.492188 8.796875 11.40625 8.636719 C 11.316406 8.472656 11.40625 8.34375 11.40625 8.207031 C 11.40625 8.207031 11.535156 8.242188 11.515625 8.425781 Z M 11.664062 8.050781 C 11.828125 8.121094 11.710938 7.847656 11.765625 7.699219 C 11.820312 7.550781 11.898438 7.546875 11.996094 7.546875 C 12.097656 7.550781 12.171875 7.46875 12.238281 7.386719 C 12.304688 7.304688 12.425781 7.195312 12.414062 7.082031 C 12.40625 6.964844 12.371094 6.878906 12.328125 6.730469 C 12.285156 6.578125 12.460938 6.578125 12.535156 6.433594 C 12.613281 6.289062 12.535156 6.433594 12.710938 6.429688 C 12.886719 6.425781 12.8125 6.40625 12.84375 6.339844 C 12.878906 6.273438 12.898438 6.203125 12.867188 6.054688 C 12.832031 5.910156 12.710938 6.015625 12.589844 5.980469 C 12.472656 5.949219 12.636719 5.804688 12.644531 5.65625 C 12.65625 5.507812 12.8125 5.589844 12.921875 5.605469 C 13.03125 5.621094 13.0625 5.808594 13.097656 5.855469 C 13.128906 5.902344 13.46875 5.703125 13.558594 5.585938 C 13.648438 5.472656 13.480469 5.464844 13.527344 5.417969 C 13.570312 5.371094 13.261719 5.277344 13.140625 5.222656 C 13.019531 5.167969 12.710938 5.070312 12.589844 4.953125 C 12.472656 4.835938 12.007812 4.777344 11.886719 4.8125 C 11.765625 4.847656 11.691406 4.753906 11.636719 4.644531 C 11.582031 4.535156 11.347656 4.519531 11.285156 4.449219 C 11.21875 4.378906 11.152344 4.5 11.0625 4.515625 C 10.976562 4.53125 10.941406 4.535156 10.832031 4.429688 C 10.722656 4.324219 10.867188 4.273438 10.710938 4.167969 C 10.566406 4.070312 10.375 4.09375 10 3.921875 L 10 6.554688 C 10.066406 6.558594 10.128906 6.570312 10.152344 6.574219 C 10.207031 6.589844 10.339844 6.8125 10.339844 6.902344 C 10.339844 6.988281 10.402344 7.246094 10.460938 7.398438 C 10.515625 7.550781 10.632812 7.609375 10.746094 7.742188 C 10.855469 7.871094 10.910156 7.796875 10.910156 7.796875 C 10.910156 7.796875 10.867188 7.570312 10.867188 7.394531 C 10.867188 7.21875 10.996094 7.105469 10.996094 7.105469 C 10.996094 7.105469 11.207031 7.335938 11.21875 7.390625 C 11.226562 7.441406 11.394531 7.664062 11.40625 7.753906 C 11.414062 7.84375 11.503906 7.980469 11.664062 8.050781 Z M 12.535156 7.1875 C 12.613281 7.222656 12.941406 7.257812 12.765625 7.050781 C 12.589844 6.839844 12.722656 6.925781 12.746094 6.742188 C 12.765625 6.558594 12.636719 6.523438 12.636719 6.523438 C 12.636719 6.660156 12.546875 6.789062 12.636719 6.949219 C 12.722656 7.113281 12.460938 7.15625 12.535156 7.1875 Z M 13.371094 9.425781 C 13.316406 9.335938 13.195312 9.265625 13.0625 9.234375 C 12.933594 9.203125 12.941406 9.035156 12.8125 9.011719 C 12.679688 8.988281 12.585938 8.851562 12.527344 8.796875 C 12.394531 8.6875 12.480469 8.886719 12.527344 9.089844 C 12.570312 9.292969 12.734375 9.191406 12.886719 9.335938 C 13.042969 9.476562 13.054688 9.339844 13.195312 9.429688 C 13.339844 9.515625 13.394531 9.644531 13.53125 9.671875 C 13.667969 9.695312 13.425781 9.515625 13.371094 9.425781 Z M 12.085938 8.828125 C 12.195312 8.996094 12.152344 8.847656 12.296875 8.824219 C 12.4375 8.796875 12.171875 8.589844 12.085938 8.488281 C 11.996094 8.390625 11.910156 8.363281 11.832031 8.511719 C 11.746094 8.675781 11.976562 8.660156 12.085938 8.828125 Z M 13.085938 9.902344 C 13.03125 9.761719 12.871094 9.605469 12.804688 9.523438 C 12.738281 9.445312 12.636719 9.394531 12.546875 9.410156 C 12.460938 9.421875 12.40625 9.371094 12.359375 9.257812 C 12.316406 9.148438 12.238281 9.160156 12.171875 9.15625 C 12.109375 9.152344 11.84375 9.207031 11.691406 9.253906 C 11.535156 9.300781 11.464844 9.359375 11.367188 9.441406 C 11.207031 9.578125 11.296875 9.488281 11.367188 9.621094 C 11.4375 9.753906 11.289062 10.0625 11.277344 10.261719 C 11.265625 10.460938 11.558594 10.277344 11.667969 10.277344 C 11.777344 10.285156 11.746094 10.199219 11.832031 10.148438 C 11.921875 10.097656 11.980469 10.09375 12.074219 10.21875 C 12.171875 10.347656 12.296875 10.472656 12.296875 10.585938 C 12.296875 10.699219 12.644531 10.980469 12.777344 10.941406 C 12.910156 10.902344 12.988281 10.773438 13.109375 10.679688 C 13.230469 10.585938 13.183594 10.335938 13.21875 10.191406 C 13.25 10.046875 13.140625 10.042969 13.085938 9.902344 Z M 13.085938 9.902344 "/>
</g>
</svg>
