<?xml version="1.0" encoding="UTF-8"?>
<svg xmlns="http://www.w3.org/2000/svg" xmlns:xlink="http://www.w3.org/1999/xlink" width="15pt" height="15pt" viewBox="0 0 15 15" version="1.1">
<g id="surface1">
<path style=" stroke:none;fill-rule:nonzero;fill:rgb(100%,80%,30.196078%);fill-opacity:1;" d="M 15 7.5 C 15 11.640625 11.640625 15 7.5 15 C 3.359375 15 0 11.640625 0 7.5 C 0 3.359375 3.359375 0 7.5 0 C 11.640625 0 15 3.359375 15 7.5 "/>
<path style=" stroke:none;fill-rule:evenodd;fill:rgb(16.078431%,18.431373%,20%);fill-opacity:1;" d="M 0.515625 4.589844 C 0.617188 4.691406 1.117188 4.988281 1.214844 5.289062 C 1.316406 5.585938 1.515625 7.28125 2.113281 7.78125 C 2.734375 8.292969 5.0625 8.101562 5.507812 7.878906 C 6.507812 7.382812 6.628906 5.992188 6.808594 5.289062 C 6.90625 4.890625 7.507812 4.890625 7.507812 4.890625 C 7.507812 4.890625 8.105469 4.890625 8.207031 5.289062 C 8.382812 5.992188 8.503906 7.382812 9.503906 7.878906 C 9.949219 8.101562 12.28125 8.292969 12.898438 7.78125 C 13.496094 7.28125 13.699219 5.589844 13.796875 5.289062 C 13.898438 4.988281 14.398438 4.691406 14.496094 4.589844 C 14.597656 4.492188 14.597656 4.09375 14.496094 3.992188 C 14.296875 3.792969 11.941406 3.617188 9.402344 3.894531 C 8.898438 3.949219 8.703125 4.09375 7.503906 4.09375 C 6.308594 4.09375 6.113281 3.949219 5.609375 3.894531 C 3.074219 3.617188 0.714844 3.792969 0.515625 3.992188 C 0.417969 4.09375 0.417969 4.492188 0.515625 4.589844 Z M 0.515625 4.589844 "/>
<path style=" stroke:none;fill-rule:nonzero;fill:rgb(40%,27.058824%,0%);fill-opacity:1;" d="M 11.390625 9.84375 C 11.316406 9.777344 11.203125 9.773438 11.125 9.832031 C 11.109375 9.84375 9.492188 11.042969 7.5 11.042969 C 5.515625 11.042969 3.890625 9.84375 3.875 9.832031 C 3.796875 9.773438 3.683594 9.777344 3.609375 9.84375 C 3.535156 9.910156 3.519531 10.023438 3.570312 10.105469 C 3.625 10.195312 4.910156 12.292969 7.5 12.292969 C 10.089844 12.292969 11.375 10.195312 11.429688 10.105469 C 11.480469 10.023438 11.464844 9.910156 11.390625 9.84375 Z M 11.390625 9.84375 "/>
</g>
</svg>
