<?xml version="1.0" encoding="UTF-8"?>
<svg xmlns="http://www.w3.org/2000/svg" xmlns:xlink="http://www.w3.org/1999/xlink" width="15pt" height="15pt" viewBox="0 0 15 15" version="1.1">
<g id="surface1">
<path style=" stroke:none;fill-rule:nonzero;fill:rgb(100%,80%,30.196078%);fill-opacity:1;" d="M 15 7.5 C 15 11.640625 11.640625 15 7.5 15 C 3.359375 15 0 11.640625 0 7.5 C 0 3.359375 3.359375 0 7.5 0 C 11.640625 0 15 3.359375 15 7.5 "/>
<path style=" stroke:none;fill-rule:nonzero;fill:rgb(100%,47.058824%,57.254902%);fill-opacity:1;" d="M 5 7.5 C 5 8.652344 4.066406 9.582031 2.917969 9.582031 C 1.765625 9.582031 0.832031 8.652344 0.832031 7.5 C 0.832031 6.347656 1.765625 5.417969 2.917969 5.417969 C 4.066406 5.417969 5 6.347656 5 7.5 Z M 5 7.5 "/>
<path style=" stroke:none;fill-rule:nonzero;fill:rgb(100%,47.058824%,57.254902%);fill-opacity:1;" d="M 14.167969 7.5 C 14.167969 8.652344 13.234375 9.582031 12.082031 9.582031 C 10.933594 9.582031 10 8.652344 10 7.5 C 10 6.347656 10.933594 5.417969 12.082031 5.417969 C 13.234375 5.417969 14.167969 6.347656 14.167969 7.5 Z M 14.167969 7.5 "/>
<path style=" stroke:none;fill-rule:nonzero;fill:rgb(40%,27.058824%,0%);fill-opacity:1;" d="M 11.390625 9.011719 C 11.316406 8.945312 11.203125 8.941406 11.125 9 C 11.109375 9.011719 9.492188 10.207031 7.5 10.207031 C 5.515625 10.207031 3.890625 9.011719 3.875 9 C 3.796875 8.941406 3.683594 8.945312 3.609375 9.011719 C 3.535156 9.078125 3.519531 9.1875 3.570312 9.273438 C 3.625 9.363281 4.910156 11.457031 7.5 11.457031 C 10.089844 11.457031 11.375 9.363281 11.429688 9.273438 C 11.480469 9.1875 11.464844 9.078125 11.390625 9.011719 Z M 3.332031 6.25 C 3.269531 6.25 3.207031 6.234375 3.148438 6.207031 C 2.941406 6.101562 2.859375 5.851562 2.960938 5.648438 C 2.984375 5.601562 3.511719 4.582031 5 4.582031 C 6.492188 4.582031 7.015625 5.605469 7.039062 5.648438 C 7.140625 5.851562 7.058594 6.101562 6.851562 6.207031 C 6.648438 6.308594 6.402344 6.226562 6.296875 6.023438 C 6.277344 5.992188 5.949219 5.417969 5 5.417969 C 4.035156 5.417969 3.707031 6.015625 3.707031 6.019531 C 3.632812 6.164062 3.484375 6.25 3.332031 6.25 Z M 11.667969 6.25 C 11.515625 6.25 11.367188 6.164062 11.292969 6.019531 C 11.285156 6 10.957031 5.417969 10 5.417969 C 9.042969 5.417969 8.714844 6 8.703125 6.023438 C 8.59375 6.226562 8.34375 6.304688 8.144531 6.199219 C 7.941406 6.09375 7.859375 5.851562 7.960938 5.648438 C 7.980469 5.605469 8.507812 4.582031 10 4.582031 C 11.492188 4.582031 12.019531 5.605469 12.039062 5.648438 C 12.140625 5.851562 12.058594 6.101562 11.851562 6.207031 C 11.792969 6.234375 11.730469 6.25 11.667969 6.25 Z M 11.667969 6.25 "/>
</g>
</svg>
