<?xml version="1.0" encoding="UTF-8"?>
<svg xmlns="http://www.w3.org/2000/svg" xmlns:xlink="http://www.w3.org/1999/xlink" width="15pt" height="15pt" viewBox="0 0 15 15" version="1.1">
<g id="surface1">
<path style=" stroke:none;fill-rule:nonzero;fill:rgb(66.666667%,55.294118%,84.705882%);fill-opacity:1;" d="M 15 7.5 C 15 11.640625 11.640625 15 7.5 15 C 3.359375 15 0 11.640625 0 7.5 C 0 3.359375 3.359375 0 7.5 0 C 11.640625 0 15 3.359375 15 7.5 Z M 15 7.5 "/>
<path style=" stroke:none;fill-rule:nonzero;fill:rgb(66.666667%,55.294118%,84.705882%);fill-opacity:1;" d="M 4.167969 1.667969 C 3.089844 1.667969 1.820312 0.640625 1.421875 0.246094 C 1.183594 0.00390625 0.824219 -0.0664062 0.515625 0.0625 C 0.203125 0.191406 0 0.496094 0 0.832031 C 0 2.273438 0.695312 5 3.332031 5 C 3.648438 5 3.9375 4.820312 4.078125 4.539062 L 4.910156 2.871094 C 5.042969 2.613281 5.027344 2.308594 4.875 2.0625 C 4.722656 1.816406 4.457031 1.667969 4.167969 1.667969 Z M 14.484375 0.0625 C 14.171875 -0.0664062 13.816406 0.00390625 13.578125 0.246094 C 13.207031 0.613281 11.910156 1.667969 10.832031 1.667969 C 10.542969 1.667969 10.277344 1.816406 10.125 2.0625 C 9.972656 2.308594 9.960938 2.613281 10.089844 2.871094 L 10.921875 4.539062 C 11.0625 4.820312 11.351562 5 11.667969 5 C 14.304688 5 15 2.273438 15 0.832031 C 15 0.496094 14.796875 0.191406 14.484375 0.0625 Z M 14.484375 0.0625 "/>
<path style=" stroke:none;fill-rule:nonzero;fill:rgb(33.333333%,22.352941%,52.54902%);fill-opacity:1;" d="M 11.390625 10.679688 C 11.316406 10.613281 11.203125 10.609375 11.125 10.667969 C 11.109375 10.679688 9.492188 11.875 7.5 11.875 C 5.515625 11.875 3.890625 10.679688 3.875 10.667969 C 3.796875 10.609375 3.683594 10.613281 3.609375 10.679688 C 3.535156 10.746094 3.519531 10.855469 3.570312 10.941406 C 3.625 11.03125 4.910156 13.125 7.5 13.125 C 10.089844 13.125 11.375 11.03125 11.429688 10.941406 C 11.480469 10.855469 11.464844 10.746094 11.390625 10.679688 Z M 6.542969 7.621094 C 5.1875 6.265625 3.007812 6.25 2.917969 6.25 C 2.6875 6.25 2.5 6.4375 2.5 6.664062 C 2.5 6.894531 2.6875 7.082031 2.917969 7.082031 C 2.929688 7.082031 3.71875 7.09375 4.574219 7.390625 C 4.328125 7.65625 4.167969 8.070312 4.167969 8.542969 C 4.167969 9.347656 4.632812 10 5.207031 10 C 5.785156 10 6.25 9.347656 6.25 8.542969 C 6.25 8.46875 6.242188 8.398438 6.234375 8.332031 C 6.238281 8.332031 6.246094 8.332031 6.25 8.332031 C 6.355469 8.332031 6.464844 8.292969 6.542969 8.210938 C 6.707031 8.046875 6.707031 7.785156 6.542969 7.621094 Z M 12.082031 6.25 C 11.992188 6.25 9.8125 6.265625 8.457031 7.621094 C 8.292969 7.785156 8.292969 8.046875 8.457031 8.210938 C 8.535156 8.292969 8.644531 8.332031 8.75 8.332031 C 8.753906 8.332031 8.761719 8.332031 8.765625 8.332031 C 8.757812 8.398438 8.75 8.46875 8.75 8.542969 C 8.75 9.347656 9.214844 10 9.792969 10 C 10.367188 10 10.832031 9.347656 10.832031 8.542969 C 10.832031 8.070312 10.671875 7.65625 10.425781 7.390625 C 11.28125 7.09375 12.070312 7.082031 12.085938 7.082031 C 12.3125 7.082031 12.5 6.894531 12.5 6.664062 C 12.5 6.4375 12.3125 6.25 12.082031 6.25 Z M 12.082031 6.25 "/>
</g>
</svg>
