<?xml version="1.0" encoding="UTF-8"?>
<svg xmlns="http://www.w3.org/2000/svg" xmlns:xlink="http://www.w3.org/1999/xlink" width="15pt" height="15pt" viewBox="0 0 15 15" version="1.1">
<g id="surface1">
<path style=" stroke:none;fill-rule:nonzero;fill:rgb(100%,80%,30.196078%);fill-opacity:1;" d="M 15 7.5 C 15 11.640625 11.640625 15 7.5 15 C 3.359375 15 0 11.640625 0 7.5 C 0 3.359375 3.359375 0 7.5 0 C 11.640625 0 15 3.359375 15 7.5 Z M 15 7.5 "/>
<path style=" stroke:none;fill-rule:nonzero;fill:rgb(40%,27.058824%,0%);fill-opacity:1;" d="M 11.390625 9.429688 C 11.316406 9.363281 11.203125 9.359375 11.125 9.417969 C 11.109375 9.429688 9.492188 10.625 7.5 10.625 C 5.515625 10.625 3.890625 9.429688 3.875 9.417969 C 3.796875 9.359375 3.683594 9.363281 3.609375 9.429688 C 3.535156 9.496094 3.519531 9.605469 3.570312 9.691406 C 3.625 9.78125 4.910156 11.875 7.5 11.875 C 10.089844 11.875 11.375 9.78125 11.429688 9.691406 C 11.480469 9.605469 11.464844 9.496094 11.390625 9.429688 Z M 10.832031 7.917969 C 10.660156 7.917969 10.496094 7.804688 10.4375 7.632812 C 10.355469 7.382812 10.015625 6.667969 9.582031 6.667969 C 9.140625 6.667969 8.796875 7.429688 8.726562 7.632812 C 8.65625 7.847656 8.421875 7.96875 8.203125 7.894531 C 7.984375 7.824219 7.863281 7.585938 7.9375 7.367188 C 7.992188 7.210938 8.480469 5.832031 9.582031 5.832031 C 10.683594 5.832031 11.175781 7.210938 11.226562 7.367188 C 11.300781 7.585938 11.183594 7.824219 10.964844 7.894531 C 10.921875 7.910156 10.875 7.917969 10.832031 7.917969 Z M 6.667969 7.917969 C 6.492188 7.917969 6.328125 7.804688 6.269531 7.632812 C 6.1875 7.382812 5.847656 6.667969 5.417969 6.667969 C 4.972656 6.667969 4.628906 7.429688 4.5625 7.632812 C 4.488281 7.847656 4.253906 7.96875 4.035156 7.894531 C 3.816406 7.824219 3.699219 7.585938 3.773438 7.367188 C 3.824219 7.210938 4.316406 5.832031 5.417969 5.832031 C 6.519531 5.832031 7.007812 7.210938 7.0625 7.367188 C 7.136719 7.585938 7.015625 7.824219 6.796875 7.894531 C 6.753906 7.910156 6.710938 7.917969 6.667969 7.917969 Z M 6.667969 7.917969 "/>
<path style=" stroke:none;fill-rule:nonzero;fill:rgb(100%,67.45098%,20%);fill-opacity:1;" d="M 13.824219 3.464844 C 13.824219 3.464844 10.054688 3.53125 7.5 3.53125 C 5.871094 3.53125 1.164062 3.484375 1.164062 3.484375 L 0.945312 3.847656 C 2.214844 4.621094 4.722656 5.0625 7.5 5.0625 C 10.25 5.0625 12.738281 4.628906 14.023438 3.871094 L 14.054688 3.851562 C 14.054688 3.851562 13.898438 3.574219 13.824219 3.464844 Z M 13.824219 3.464844 "/>
<path style=" stroke:none;fill-rule:nonzero;fill:rgb(36.470588%,67.843137%,92.54902%);fill-opacity:1;" d="M 9.90625 0.144531 C 9.402344 0.105469 8.875 0.078125 8.335938 0.0664062 C 8.058594 0.0585938 7.78125 0.0546875 7.5 0.0546875 C 7.21875 0.0546875 6.941406 0.0585938 6.667969 0.0625 C 6.128906 0.078125 5.601562 0.105469 5.097656 0.144531 C 2.226562 0.367188 0.0703125 1.019531 0.0703125 2.203125 C 0.0703125 3.699219 3.515625 4.609375 7.5 4.609375 C 11.484375 4.609375 14.929688 3.699219 14.929688 2.203125 C 14.929688 1.023438 12.777344 0.367188 9.90625 0.144531 Z M 7.5 3.078125 C 4.640625 3.078125 2.121094 2.730469 2.121094 1.9375 C 2.121094 1.714844 2.328125 1.511719 2.679688 1.332031 C 3.160156 1.089844 3.917969 0.898438 4.839844 0.769531 C 5.636719 0.660156 6.546875 0.597656 7.5 0.597656 C 8.453125 0.597656 9.367188 0.660156 10.167969 0.773438 C 11.101562 0.902344 11.871094 1.097656 12.347656 1.34375 C 12.683594 1.519531 12.878906 1.71875 12.878906 1.9375 C 12.878906 2.730469 10.359375 3.078125 7.5 3.078125 Z M 7.5 3.078125 "/>
<path style=" stroke:none;fill-rule:nonzero;fill:rgb(23.137255%,58.039216%,85.098039%);fill-opacity:1;" d="M 10.167969 0.773438 C 11.101562 0.902344 11.871094 1.097656 12.347656 1.347656 L 12.371094 1.351562 C 11.421875 0.65625 10.46875 0.285156 9.90625 0.144531 C 9.402344 0.105469 8.875 0.078125 8.335938 0.0664062 L 8.34375 0.0664062 Z M 2.679688 1.332031 C 3.160156 1.089844 3.917969 0.898438 4.839844 0.769531 L 6.660156 0.0664062 L 6.667969 0.0625 C 6.128906 0.078125 5.601562 0.105469 5.097656 0.144531 C 4.535156 0.285156 3.582031 0.65625 2.628906 1.351562 Z M 2.679688 1.332031 "/>
<path style=" stroke:none;fill-rule:nonzero;fill:rgb(100%,80%,30.196078%);fill-opacity:1;" d="M 11.863281 1.40625 C 11.589844 1.222656 11.300781 1.027344 11.03125 0.882812 C 9.976562 0.320312 8.777344 0 7.5 0 C 6.28125 0 5.128906 0.292969 4.109375 0.808594 C 3.65625 1.039062 3.324219 1.226562 3.203125 1.40625 Z M 11.863281 1.40625 "/>
</g>
</svg>
