<?xml version="1.0" encoding="UTF-8"?>
<svg xmlns="http://www.w3.org/2000/svg" xmlns:xlink="http://www.w3.org/1999/xlink" width="15pt" height="15pt" viewBox="0 0 15 15" version="1.1">
<g id="surface1">
<path style=" stroke:none;fill-rule:nonzero;fill:rgb(100%,80%,30.196078%);fill-opacity:1;" d="M 15 7.5 C 15 11.640625 11.640625 15 7.5 15 C 3.359375 15 0 11.640625 0 7.5 C 0 3.359375 3.359375 0 7.5 0 C 11.640625 0 15 3.359375 15 7.5 "/>
<path style=" stroke:none;fill-rule:nonzero;fill:rgb(40%,27.058824%,0%);fill-opacity:1;" d="M 5.832031 5.207031 C 5.832031 3.941406 5.367188 2.917969 4.792969 2.917969 C 4.214844 2.917969 3.75 3.941406 3.75 5.207031 C 3.75 6.472656 4.214844 7.5 4.792969 7.5 C 5.367188 7.5 5.832031 6.472656 5.832031 5.207031 Z M 5.832031 5.207031 "/>
<path style=" stroke:none;fill-rule:nonzero;fill:rgb(40%,27.058824%,0%);fill-opacity:1;" d="M 11.25 5.207031 C 11.25 3.941406 10.785156 2.917969 10.207031 2.917969 C 9.632812 2.917969 9.167969 3.941406 9.167969 5.207031 C 9.167969 6.472656 9.632812 7.5 10.207031 7.5 C 10.785156 7.5 11.25 6.472656 11.25 5.207031 Z M 11.25 5.207031 "/>
<path style=" stroke:none;fill-rule:nonzero;fill:rgb(40%,27.058824%,0%);fill-opacity:1;" d="M 7.5 9.167969 C 5.992188 9.167969 4.988281 8.992188 3.75 8.75 C 3.46875 8.695312 2.917969 8.75 2.917969 9.582031 C 2.917969 11.25 4.832031 13.332031 7.5 13.332031 C 10.167969 13.332031 12.082031 11.25 12.082031 9.582031 C 12.082031 8.75 11.53125 8.695312 11.25 8.75 C 10.011719 8.992188 9.007812 9.167969 7.5 9.167969 Z M 7.5 9.167969 "/>
<path style=" stroke:none;fill-rule:nonzero;fill:rgb(100%,100%,100%);fill-opacity:1;" d="M 3.75 9.582031 C 3.75 9.582031 5 10 7.5 10 C 10 10 11.25 9.582031 11.25 9.582031 C 11.25 9.582031 10.417969 11.25 7.5 11.25 C 4.582031 11.25 3.75 9.582031 3.75 9.582031 Z M 3.75 9.582031 "/>
</g>
</svg>
