<?xml version="1.0" encoding="UTF-8"?>
<svg xmlns="http://www.w3.org/2000/svg" xmlns:xlink="http://www.w3.org/1999/xlink" width="15pt" height="15pt" viewBox="0 0 15 15" version="1.1">
<g id="surface1">
<path style=" stroke:none;fill-rule:nonzero;fill:rgb(100%,80%,30.196078%);fill-opacity:1;" d="M 15 7.5 C 15 11.640625 11.640625 15 7.5 15 C 3.359375 15 0 11.640625 0 7.5 C 0 3.359375 3.359375 0 7.5 0 C 11.640625 0 15 3.359375 15 7.5 "/>
<path style=" stroke:none;fill-rule:nonzero;fill:rgb(40%,27.058824%,0%);fill-opacity:1;" d="M 7.5 9.105469 C 6.265625 9.105469 5.445312 8.960938 4.429688 8.761719 C 4.199219 8.71875 3.746094 8.761719 3.746094 9.445312 C 3.746094 10.808594 5.316406 12.515625 7.5 12.515625 C 9.683594 12.515625 11.253906 10.808594 11.253906 9.445312 C 11.253906 8.761719 10.800781 8.71875 10.570312 8.761719 C 9.554688 8.960938 8.734375 9.105469 7.5 9.105469 "/>
<path style=" stroke:none;fill-rule:nonzero;fill:rgb(86.666667%,18.039216%,26.666667%);fill-opacity:1;" d="M 6.9375 1.367188 C 6.578125 0.355469 5.46875 -0.175781 4.457031 0.179688 C 3.839844 0.394531 3.40625 0.890625 3.234375 1.472656 C 2.738281 1.128906 2.089844 1.015625 1.476562 1.230469 C 0.464844 1.589844 -0.0703125 2.699219 0.289062 3.714844 C 0.339844 3.855469 0.40625 3.988281 0.484375 4.113281 C 1.296875 5.605469 3.648438 6.652344 5.070312 6.667969 C 6.167969 5.765625 7.339844 3.472656 7.035156 1.800781 C 7.019531 1.65625 6.988281 1.511719 6.9375 1.367188 Z M 8.0625 1.367188 C 8.421875 0.355469 9.53125 -0.175781 10.542969 0.179688 C 11.160156 0.394531 11.59375 0.890625 11.765625 1.472656 C 12.261719 1.128906 12.910156 1.015625 13.523438 1.230469 C 14.539062 1.589844 15.070312 2.699219 14.710938 3.714844 C 14.660156 3.855469 14.59375 3.988281 14.515625 4.113281 C 13.703125 5.605469 11.355469 6.652344 9.929688 6.667969 C 8.832031 5.765625 7.664062 3.472656 7.964844 1.800781 C 7.980469 1.65625 8.011719 1.511719 8.0625 1.367188 Z M 8.0625 1.367188 "/>
</g>
</svg>
