<?xml version="1.0" encoding="UTF-8"?>
<svg xmlns="http://www.w3.org/2000/svg" xmlns:xlink="http://www.w3.org/1999/xlink" width="15pt" height="15pt" viewBox="0 0 15 15" version="1.1">
<g id="surface1">
<path style=" stroke:none;fill-rule:nonzero;fill:rgb(100%,80%,30.196078%);fill-opacity:1;" d="M 15 7.5 C 15 11.640625 11.640625 15 7.5 15 C 3.359375 15 0 11.640625 0 7.5 C 0 3.359375 3.359375 0 7.5 0 C 11.640625 0 15 3.359375 15 7.5 "/>
<path style=" stroke:none;fill-rule:nonzero;fill:rgb(40%,27.058824%,0%);fill-opacity:1;" d="M 11.796875 6.503906 C 11.722656 6.445312 11.621094 6.445312 11.542969 6.5 C 11.539062 6.503906 11.015625 6.875 10 6.875 C 8.984375 6.875 8.460938 6.503906 8.457031 6.5 C 8.382812 6.441406 8.277344 6.445312 8.203125 6.503906 C 8.128906 6.5625 8.105469 6.664062 8.144531 6.75 C 8.167969 6.808594 8.769531 8.125 10 8.125 C 11.234375 8.125 11.832031 6.808594 11.855469 6.75 C 11.894531 6.664062 11.871094 6.5625 11.796875 6.503906 Z M 6.542969 6.5 C 6.539062 6.503906 6.015625 6.875 5 6.875 C 3.984375 6.875 3.460938 6.503906 3.457031 6.5 C 3.382812 6.441406 3.277344 6.445312 3.203125 6.503906 C 3.128906 6.5625 3.105469 6.664062 3.144531 6.75 C 3.167969 6.808594 3.769531 8.125 5 8.125 C 6.234375 8.125 6.832031 6.808594 6.855469 6.75 C 6.894531 6.664062 6.871094 6.5625 6.796875 6.503906 C 6.722656 6.445312 6.617188 6.445312 6.542969 6.5 Z M 12.082031 5.417969 C 11.957031 5.417969 11.832031 5.359375 11.75 5.25 C 10.671875 3.808594 8.847656 4.15625 8.832031 4.160156 C 8.605469 4.203125 8.386719 4.058594 8.339844 3.832031 C 8.296875 3.605469 8.441406 3.386719 8.667969 3.339844 C 8.765625 3.320312 11.023438 2.894531 12.417969 4.75 C 12.554688 4.933594 12.515625 5.195312 12.332031 5.332031 C 12.257812 5.390625 12.171875 5.417969 12.082031 5.417969 Z M 2.917969 5.417969 C 2.828125 5.417969 2.742188 5.390625 2.667969 5.332031 C 2.484375 5.195312 2.445312 4.933594 2.582031 4.75 C 3.972656 2.894531 6.234375 3.324219 6.332031 3.339844 C 6.558594 3.386719 6.703125 3.605469 6.660156 3.832031 C 6.613281 4.058594 6.394531 4.203125 6.167969 4.160156 C 6.089844 4.144531 4.320312 3.824219 3.25 5.25 C 3.167969 5.359375 3.042969 5.417969 2.917969 5.417969 Z M 9.6875 9.824219 C 9.609375 9.777344 9.507812 9.789062 9.441406 9.847656 C 9.4375 9.851562 9.019531 10.207031 7.5 10.207031 C 5.984375 10.207031 5.5625 9.851562 5.5625 9.851562 C 5.496094 9.785156 5.394531 9.773438 5.3125 9.816406 C 5.234375 9.863281 5.191406 9.960938 5.214844 10.050781 C 5.21875 10.070312 5.691406 11.875 7.5 11.875 C 9.308594 11.875 9.78125 10.070312 9.785156 10.050781 C 9.808594 9.960938 9.765625 9.871094 9.6875 9.824219 Z M 9.6875 9.824219 "/>
</g>
</svg>
