<?xml version="1.0" encoding="UTF-8"?>
<svg xmlns="http://www.w3.org/2000/svg" xmlns:xlink="http://www.w3.org/1999/xlink" width="15pt" height="15pt" viewBox="0 0 15 15" version="1.1">
<g id="surface1">
<path style=" stroke:none;fill-rule:nonzero;fill:rgb(100%,80%,30.196078%);fill-opacity:1;" d="M 15 7.5 C 15 11.640625 11.640625 15 7.5 15 C 3.359375 15 0 11.640625 0 7.5 C 0 3.359375 3.359375 0 7.5 0 C 11.640625 0 15 3.359375 15 7.5 "/>
<path style=" stroke:none;fill-rule:nonzero;fill:rgb(40%,27.058824%,0%);fill-opacity:1;" d="M 5.832031 6.875 C 5.832031 6.070312 5.367188 5.417969 4.792969 5.417969 C 4.214844 5.417969 3.75 6.070312 3.75 6.875 C 3.75 7.679688 4.214844 8.332031 4.792969 8.332031 C 5.367188 8.332031 5.832031 7.679688 5.832031 6.875 Z M 5.832031 6.875 "/>
<path style=" stroke:none;fill-rule:nonzero;fill:rgb(40%,27.058824%,0%);fill-opacity:1;" d="M 11.855469 7.414062 C 11.832031 7.359375 11.234375 6.042969 10 6.042969 C 8.769531 6.042969 8.167969 7.359375 8.144531 7.414062 C 8.105469 7.5 8.128906 7.601562 8.203125 7.660156 C 8.277344 7.722656 8.378906 7.722656 8.457031 7.667969 C 8.460938 7.664062 8.984375 7.292969 10 7.292969 C 11.011719 7.292969 11.53125 7.660156 11.542969 7.667969 C 11.578125 7.695312 11.625 7.707031 11.667969 7.707031 C 11.710938 7.707031 11.757812 7.691406 11.796875 7.664062 C 11.871094 7.605469 11.894531 7.503906 11.855469 7.414062 Z M 2.5 5.191406 C 2.414062 5.191406 2.324219 5.164062 2.25 5.109375 C 2.066406 4.96875 2.027344 4.707031 2.167969 4.523438 C 3.527344 2.710938 5.339844 2.691406 5.417969 2.691406 C 5.648438 2.691406 5.832031 2.878906 5.832031 3.109375 C 5.832031 3.335938 5.648438 3.523438 5.417969 3.523438 C 5.351562 3.523438 3.929688 3.558594 2.832031 5.023438 C 2.75 5.132812 2.625 5.191406 2.5 5.191406 Z M 12.082031 6.078125 C 11.957031 6.078125 11.832031 6.019531 11.75 5.910156 C 10.671875 4.46875 8.847656 4.816406 8.832031 4.816406 C 8.605469 4.863281 8.386719 4.714844 8.339844 4.492188 C 8.296875 4.265625 8.441406 4.046875 8.667969 4 C 8.765625 3.980469 11.023438 3.554688 12.417969 5.410156 C 12.554688 5.59375 12.515625 5.855469 12.332031 5.992188 C 12.257812 6.050781 12.171875 6.078125 12.082031 6.078125 Z M 9.6875 9.824219 C 9.609375 9.777344 9.507812 9.789062 9.441406 9.847656 C 9.4375 9.851562 9.019531 10.207031 7.5 10.207031 C 5.984375 10.207031 5.5625 9.851562 5.5625 9.851562 C 5.496094 9.785156 5.394531 9.773438 5.3125 9.816406 C 5.234375 9.863281 5.191406 9.960938 5.214844 10.050781 C 5.21875 10.070312 5.691406 11.875 7.5 11.875 C 9.308594 11.875 9.78125 10.070312 9.785156 10.050781 C 9.808594 9.960938 9.765625 9.871094 9.6875 9.824219 Z M 9.6875 9.824219 "/>
</g>
</svg>
