<?xml version="1.0" encoding="UTF-8"?>
<svg xmlns="http://www.w3.org/2000/svg" xmlns:xlink="http://www.w3.org/1999/xlink" width="15pt" height="15pt" viewBox="0 0 15 15" version="1.1">
<g id="surface1">
<path style=" stroke:none;fill-rule:nonzero;fill:rgb(100%,80%,30.196078%);fill-opacity:1;" d="M 15 7.5 C 15 11.640625 11.640625 15 7.5 15 C 3.359375 15 0 11.640625 0 7.5 C 0 3.359375 3.359375 0 7.5 0 C 11.640625 0 15 3.359375 15 7.5 "/>
<path style=" stroke:none;fill-rule:nonzero;fill:rgb(40%,27.058824%,0%);fill-opacity:1;" d="M 11.855469 7.414062 C 11.832031 7.359375 11.234375 6.042969 10 6.042969 C 8.769531 6.042969 8.167969 7.359375 8.144531 7.414062 C 8.105469 7.5 8.128906 7.601562 8.203125 7.660156 C 8.277344 7.722656 8.378906 7.722656 8.457031 7.667969 C 8.460938 7.664062 8.984375 7.292969 10 7.292969 C 11.011719 7.292969 11.53125 7.660156 11.542969 7.667969 C 11.578125 7.695312 11.625 7.707031 11.667969 7.707031 C 11.710938 7.707031 11.757812 7.691406 11.796875 7.664062 C 11.871094 7.605469 11.894531 7.503906 11.855469 7.414062 Z M 6.855469 7.414062 C 6.832031 7.359375 6.234375 6.042969 5 6.042969 C 3.769531 6.042969 3.167969 7.359375 3.144531 7.414062 C 3.105469 7.5 3.128906 7.601562 3.203125 7.660156 C 3.277344 7.722656 3.378906 7.722656 3.457031 7.667969 C 3.460938 7.664062 3.984375 7.292969 5 7.292969 C 6.011719 7.292969 6.53125 7.660156 6.542969 7.667969 C 6.578125 7.695312 6.625 7.707031 6.667969 7.707031 C 6.710938 7.707031 6.757812 7.691406 6.796875 7.664062 C 6.871094 7.605469 6.894531 7.503906 6.855469 7.414062 Z M 12.917969 6.667969 C 12.75 6.667969 12.59375 6.566406 12.53125 6.40625 C 11.789062 4.550781 9.9375 4.164062 9.917969 4.160156 C 9.691406 4.113281 9.546875 3.894531 9.589844 3.667969 C 9.636719 3.441406 9.855469 3.296875 10.082031 3.339844 C 10.175781 3.359375 12.398438 3.828125 13.304688 6.09375 C 13.390625 6.308594 13.285156 6.550781 13.070312 6.636719 C 13.019531 6.65625 12.96875 6.667969 12.917969 6.667969 Z M 2.082031 6.667969 C 2.03125 6.667969 1.980469 6.65625 1.929688 6.636719 C 1.714844 6.550781 1.609375 6.308594 1.695312 6.09375 C 2.601562 3.828125 4.824219 3.359375 4.917969 3.339844 C 5.144531 3.296875 5.363281 3.441406 5.410156 3.667969 C 5.453125 3.894531 5.308594 4.113281 5.082031 4.160156 C 5.007812 4.175781 3.207031 4.566406 2.46875 6.40625 C 2.40625 6.566406 2.25 6.667969 2.082031 6.667969 Z M 7.5 9.167969 C 5.992188 9.167969 4.988281 8.992188 3.75 8.75 C 3.46875 8.695312 2.917969 8.75 2.917969 9.582031 C 2.917969 11.25 4.832031 13.332031 7.5 13.332031 C 10.167969 13.332031 12.082031 11.25 12.082031 9.582031 C 12.082031 8.75 11.53125 8.695312 11.25 8.75 C 10.011719 8.992188 9.007812 9.167969 7.5 9.167969 Z M 7.5 9.167969 "/>
<path style=" stroke:none;fill-rule:nonzero;fill:rgb(100%,100%,100%);fill-opacity:1;" d="M 3.75 9.582031 C 3.75 9.582031 5 10 7.5 10 C 10 10 11.25 9.582031 11.25 9.582031 C 11.25 9.582031 10.417969 11.25 7.5 11.25 C 4.582031 11.25 3.75 9.582031 3.75 9.582031 Z M 3.75 9.582031 "/>
<path style=" stroke:none;fill-rule:nonzero;fill:rgb(36.470588%,67.843137%,92.54902%);fill-opacity:1;" d="M 4.519531 11.761719 C 4.234375 12.878906 3.101562 13.550781 1.988281 13.269531 C 0.871094 12.984375 0.199219 11.851562 0.480469 10.738281 C 0.765625 9.621094 3.121094 7.109375 3.527344 7.210938 C 3.929688 7.3125 4.800781 10.648438 4.519531 11.761719 Z M 10.472656 11.761719 C 10.753906 12.878906 11.890625 13.550781 13.003906 13.269531 C 14.121094 12.984375 14.792969 11.851562 14.511719 10.738281 C 14.226562 9.621094 11.871094 7.109375 11.464844 7.210938 C 11.0625 7.3125 10.1875 10.648438 10.472656 11.761719 Z M 10.472656 11.761719 "/>
</g>
</svg>
