<?xml version="1.0" encoding="UTF-8"?>
<svg xmlns="http://www.w3.org/2000/svg" xmlns:xlink="http://www.w3.org/1999/xlink" width="15pt" height="15pt" viewBox="0 0 15 15" version="1.1">
<g id="surface1">
<path style=" stroke:none;fill-rule:nonzero;fill:rgb(100%,80%,30.196078%);fill-opacity:1;" d="M 15 7.5 C 15 11.640625 11.640625 15 7.5 15 C 3.359375 15 0 11.640625 0 7.5 C 0 3.359375 3.359375 0 7.5 0 C 11.640625 0 15 3.359375 15 7.5 "/>
<path style=" stroke:none;fill-rule:nonzero;fill:rgb(40%,27.058824%,0%);fill-opacity:1;" d="M 10.136719 9.84375 C 10.074219 9.789062 9.984375 9.777344 9.90625 9.8125 L 8.238281 10.648438 C 7.460938 11.035156 5.4375 11.042969 5.417969 11.042969 C 5.300781 11.042969 5.207031 11.136719 5.207031 11.25 C 5.207031 11.328125 5.25 11.394531 5.3125 11.429688 C 5.34375 11.449219 5.375 11.457031 5.414062 11.457031 L 8.332031 11.457031 C 9.441406 11.457031 10.035156 10.546875 10.199219 10.066406 C 10.222656 9.984375 10.199219 9.898438 10.136719 9.84375 Z M 12.917969 6.667969 C 12.789062 6.667969 12.664062 6.609375 12.582031 6.5 C 11.484375 5.03125 10.058594 5 9.996094 5 C 9.769531 4.996094 9.582031 4.808594 9.585938 4.582031 C 9.585938 4.351562 9.769531 4.167969 10 4.167969 C 10.078125 4.167969 11.890625 4.1875 13.25 6 C 13.386719 6.183594 13.351562 6.445312 13.167969 6.582031 C 13.089844 6.640625 13.003906 6.667969 12.917969 6.667969 Z M 2.082031 6.667969 C 1.996094 6.667969 1.910156 6.640625 1.832031 6.582031 C 1.648438 6.445312 1.613281 6.183594 1.75 6 C 3.109375 4.1875 4.921875 4.167969 5 4.167969 C 5.230469 4.167969 5.417969 4.351562 5.417969 4.582031 C 5.417969 4.8125 5.230469 5 5 5 C 4.9375 5 3.515625 5.035156 2.417969 6.5 C 2.335938 6.609375 2.210938 6.667969 2.082031 6.667969 Z M 6.625 7.25 C 6.632812 7.226562 6.648438 7.207031 6.652344 7.183594 C 6.710938 6.960938 6.574219 6.734375 6.351562 6.679688 C 6.277344 6.660156 4.488281 6.230469 3.101562 7.152344 C 2.910156 7.28125 2.859375 7.539062 2.988281 7.730469 C 3.066406 7.851562 3.199219 7.917969 3.332031 7.917969 C 3.414062 7.917969 3.492188 7.894531 3.566406 7.847656 C 4.019531 7.542969 4.546875 7.433594 5.007812 7.40625 C 5.003906 7.4375 5 7.46875 5 7.5 C 5 7.960938 5.375 8.332031 5.832031 8.332031 C 6.292969 8.332031 6.667969 7.960938 6.667969 7.5 C 6.667969 7.410156 6.648438 7.328125 6.625 7.25 Z M 11.625 7.246094 C 11.632812 7.226562 11.648438 7.207031 11.652344 7.183594 C 11.710938 6.960938 11.574219 6.734375 11.351562 6.679688 C 11.277344 6.660156 9.488281 6.230469 8.101562 7.152344 C 7.910156 7.28125 7.859375 7.539062 7.988281 7.730469 C 8.066406 7.851562 8.199219 7.917969 8.332031 7.917969 C 8.414062 7.917969 8.492188 7.894531 8.566406 7.847656 C 9.019531 7.542969 9.546875 7.433594 10.011719 7.40625 C 10.007812 7.4375 10 7.46875 10 7.5 C 10 7.960938 10.375 8.332031 10.832031 8.332031 C 11.292969 8.332031 11.667969 7.960938 11.667969 7.5 C 11.667969 7.410156 11.648438 7.328125 11.625 7.246094 Z M 11.625 7.246094 "/>
</g>
</svg>
