<?xml version="1.0" encoding="UTF-8"?>
<svg xmlns="http://www.w3.org/2000/svg" xmlns:xlink="http://www.w3.org/1999/xlink" width="15pt" height="15pt" viewBox="0 0 15 15" version="1.1">
<g id="surface1">
<path style=" stroke:none;fill-rule:nonzero;fill:rgb(100%,80%,30.196078%);fill-opacity:1;" d="M 15 7.5 C 15 11.640625 11.640625 15 7.5 15 C 3.359375 15 0 11.640625 0 7.5 C 0 3.359375 3.359375 0 7.5 0 C 11.640625 0 15 3.359375 15 7.5 "/>
<path style=" stroke:none;fill-rule:nonzero;fill:rgb(40%,27.058824%,0%);fill-opacity:1;" d="M 6.667969 7.5 C 6.492188 7.5 6.328125 7.390625 6.269531 7.214844 C 6.1875 6.964844 5.847656 6.25 5.417969 6.25 C 4.972656 6.25 4.628906 7.011719 4.5625 7.214844 C 4.488281 7.433594 4.253906 7.550781 4.035156 7.476562 C 3.816406 7.40625 3.699219 7.167969 3.773438 6.953125 C 3.824219 6.792969 4.316406 5.417969 5.417969 5.417969 C 6.519531 5.417969 7.007812 6.792969 7.0625 6.953125 C 7.136719 7.171875 7.015625 7.40625 6.796875 7.480469 C 6.753906 7.492188 6.710938 7.5 6.667969 7.5 Z M 10.832031 7.5 C 10.660156 7.5 10.496094 7.390625 10.4375 7.214844 C 10.355469 6.964844 10.015625 6.25 9.582031 6.25 C 9.140625 6.25 8.796875 7.011719 8.726562 7.214844 C 8.65625 7.433594 8.421875 7.550781 8.203125 7.476562 C 7.984375 7.40625 7.863281 7.167969 7.9375 6.953125 C 7.992188 6.792969 8.480469 5.417969 9.582031 5.417969 C 10.683594 5.417969 11.175781 6.792969 11.226562 6.953125 C 11.300781 7.171875 11.183594 7.40625 10.964844 7.480469 C 10.921875 7.492188 10.875 7.5 10.832031 7.5 Z M 7.5 9.167969 C 5.992188 9.167969 4.988281 8.992188 3.75 8.75 C 3.46875 8.695312 2.917969 8.75 2.917969 9.582031 C 2.917969 11.25 4.832031 13.332031 7.5 13.332031 C 10.167969 13.332031 12.082031 11.25 12.082031 9.582031 C 12.082031 8.75 11.53125 8.695312 11.25 8.75 C 10.011719 8.992188 9.007812 9.167969 7.5 9.167969 Z M 7.5 9.167969 "/>
<path style=" stroke:none;fill-rule:nonzero;fill:rgb(100%,100%,100%);fill-opacity:1;" d="M 3.75 9.582031 C 3.75 9.582031 5 10 7.5 10 C 10 10 11.25 9.582031 11.25 9.582031 C 11.25 9.582031 10.691406 12.394531 7.5 12.394531 C 4.308594 12.394531 3.75 9.582031 3.75 9.582031 Z M 3.75 9.582031 "/>
<path style=" stroke:none;fill-rule:nonzero;fill:rgb(40%,27.058824%,0%);fill-opacity:1;" d="M 7.5 11.496094 C 6 11.496094 4.886719 11.34375 4.191406 11.1875 L 3.847656 10.40625 C 4.191406 10.539062 5.46875 10.78125 7.5 10.78125 C 9.566406 10.78125 10.847656 10.523438 11.195312 10.390625 L 10.902344 11.15625 C 10.222656 11.316406 9.058594 11.496094 7.5 11.496094 Z M 7.5 11.496094 "/>
</g>
</svg>
