<?xml version="1.0" encoding="UTF-8"?>
<svg xmlns="http://www.w3.org/2000/svg" xmlns:xlink="http://www.w3.org/1999/xlink" width="15pt" height="15pt" viewBox="0 0 15 15" version="1.1">
<g id="surface1">
<path style=" stroke:none;fill-rule:nonzero;fill:rgb(100%,80%,30.196078%);fill-opacity:1;" d="M 15 7.5 C 15 11.640625 11.640625 15 7.5 15 C 3.359375 15 0 11.640625 0 7.5 C 0 3.359375 3.359375 0 7.5 0 C 11.640625 0 15 3.359375 15 7.5 Z M 15 7.5 "/>
<path style=" stroke:none;fill-rule:nonzero;fill:rgb(100%,67.45098%,20%);fill-opacity:1;" d="M 13.371094 12.15625 C 13.28125 11.894531 13.140625 11.648438 12.9375 11.449219 L 11.40625 9.871094 C 11.066406 10.65625 10.214844 12.09375 8.410156 12.699219 L 9.949219 14.234375 C 10.035156 14.324219 10.136719 14.40625 10.242188 14.472656 C 11.480469 13.988281 12.558594 13.183594 13.371094 12.15625 Z M 13.371094 12.15625 "/>
<path style=" stroke:none;fill-rule:nonzero;fill:rgb(40%,27.058824%,0%);fill-opacity:1;" d="M 2.917969 7.082031 C 2.855469 7.082031 2.789062 7.070312 2.730469 7.039062 C 2.523438 6.9375 2.441406 6.6875 2.542969 6.480469 C 2.566406 6.4375 3.09375 5.417969 4.582031 5.417969 C 6.074219 5.417969 6.601562 6.4375 6.621094 6.480469 C 6.726562 6.6875 6.640625 6.9375 6.4375 7.039062 C 6.230469 7.140625 5.984375 7.058594 5.878906 6.859375 C 5.859375 6.824219 5.535156 6.25 4.582031 6.25 C 3.617188 6.25 3.292969 6.847656 3.289062 6.851562 C 3.214844 7 3.070312 7.082031 2.917969 7.082031 Z M 12.082031 7.082031 C 12.144531 7.082031 12.210938 7.070312 12.269531 7.039062 C 12.476562 6.9375 12.558594 6.6875 12.457031 6.480469 C 12.433594 6.4375 11.90625 5.417969 10.417969 5.417969 C 8.925781 5.417969 8.398438 6.4375 8.378906 6.480469 C 8.273438 6.6875 8.359375 6.9375 8.5625 7.039062 C 8.769531 7.140625 9.015625 7.058594 9.121094 6.859375 C 9.136719 6.824219 9.464844 6.25 10.417969 6.25 C 11.382812 6.25 11.707031 6.847656 11.710938 6.851562 C 11.785156 7 11.929688 7.082031 12.082031 7.082031 Z M 12.292969 9.800781 C 12.425781 9.488281 12.484375 9.277344 12.488281 9.269531 C 12.542969 9.046875 12.40625 8.820312 12.183594 8.765625 C 11.960938 8.707031 11.734375 8.84375 11.679688 9.066406 C 11.648438 9.1875 10.867188 12.082031 7.5 12.082031 C 4.132812 12.082031 3.351562 9.1875 3.320312 9.066406 C 3.261719 8.84375 3.039062 8.707031 2.816406 8.761719 C 2.59375 8.820312 2.457031 9.046875 2.511719 9.265625 C 2.523438 9.304688 3.472656 12.917969 7.5 12.917969 C 8.1875 12.917969 8.777344 12.804688 9.296875 12.632812 C 11.101562 12.023438 11.953125 10.585938 12.292969 9.800781 Z M 12.292969 9.800781 "/>
<path style=" stroke:none;fill-rule:nonzero;fill:rgb(90.588235%,35.294118%,43.921569%);fill-opacity:1;" d="M 13.824219 11.378906 L 12.292969 9.800781 C 11.953125 10.585938 11.101562 12.023438 9.296875 12.632812 L 10.832031 14.167969 C 11.554688 14.886719 12.917969 15 13.75 14.167969 C 14.582031 13.332031 14.542969 12.097656 13.824219 11.378906 Z M 13.824219 11.378906 "/>
</g>
</svg>
