<?xml version="1.0" encoding="UTF-8"?>
<svg xmlns="http://www.w3.org/2000/svg" xmlns:xlink="http://www.w3.org/1999/xlink" width="15pt" height="15pt" viewBox="0 0 15 15" version="1.1">
<g id="surface1">
<path style=" stroke:none;fill-rule:nonzero;fill:rgb(100%,80%,30.196078%);fill-opacity:1;" d="M 15 7.5 C 15 11.640625 11.640625 15 7.5 15 C 3.359375 15 0 11.640625 0 7.5 C 0 3.359375 3.359375 0 7.5 0 C 11.640625 0 15 3.359375 15 7.5 "/>
<path style=" stroke:none;fill-rule:nonzero;fill:rgb(40%,27.058824%,0%);fill-opacity:1;" d="M 9.785156 12.03125 C 9.78125 12.015625 9.308594 10.207031 7.5 10.207031 C 5.691406 10.207031 5.21875 12.015625 5.214844 12.03125 C 5.191406 12.121094 5.234375 12.210938 5.3125 12.257812 C 5.390625 12.304688 5.492188 12.296875 5.558594 12.234375 C 5.5625 12.230469 5.980469 11.875 7.5 11.875 C 8.996094 11.875 9.421875 12.222656 9.441406 12.234375 C 9.480469 12.273438 9.53125 12.292969 9.582031 12.292969 C 9.617188 12.292969 9.652344 12.28125 9.6875 12.265625 C 9.765625 12.21875 9.808594 12.125 9.785156 12.03125 Z M 12.082031 5 C 9.769531 5 8.832031 3.179688 8.792969 3.101562 C 8.691406 2.898438 8.773438 2.648438 8.980469 2.542969 C 9.183594 2.441406 9.433594 2.523438 9.539062 2.726562 C 9.570312 2.789062 10.296875 4.167969 12.082031 4.167969 C 12.3125 4.167969 12.5 4.351562 12.5 4.582031 C 12.5 4.8125 12.3125 5 12.082031 5 Z M 2.917969 5 C 2.6875 5 2.5 4.8125 2.5 4.582031 C 2.5 4.351562 2.6875 4.167969 2.917969 4.167969 C 5.035156 4.167969 5.414062 2.867188 5.429688 2.8125 C 5.492188 2.589844 5.71875 2.457031 5.9375 2.515625 C 6.160156 2.574219 6.292969 2.796875 6.238281 3.019531 C 6.21875 3.097656 5.710938 5 2.917969 5 Z M 2.917969 5 "/>
<path style=" stroke:none;fill-rule:nonzero;fill:rgb(40%,27.058824%,0%);fill-opacity:1;" d="M 6.042969 6.875 C 6.042969 6.070312 5.574219 5.417969 5 5.417969 C 4.425781 5.417969 3.957031 6.070312 3.957031 6.875 C 3.957031 7.679688 4.425781 8.332031 5 8.332031 C 5.574219 8.332031 6.042969 7.679688 6.042969 6.875 Z M 6.042969 6.875 "/>
<path style=" stroke:none;fill-rule:nonzero;fill:rgb(40%,27.058824%,0%);fill-opacity:1;" d="M 11.042969 6.875 C 11.042969 6.070312 10.574219 5.417969 10 5.417969 C 9.425781 5.417969 8.957031 6.070312 8.957031 6.875 C 8.957031 7.679688 9.425781 8.332031 10 8.332031 C 10.574219 8.332031 11.042969 7.679688 11.042969 6.875 Z M 11.042969 6.875 "/>
</g>
</svg>
