<?xml version="1.0" encoding="UTF-8"?>
<svg xmlns="http://www.w3.org/2000/svg" xmlns:xlink="http://www.w3.org/1999/xlink" width="15pt" height="15pt" viewBox="0 0 15 15" version="1.1">
<g id="surface1">
<path style=" stroke:none;fill-rule:nonzero;fill:rgb(100%,80%,30.196078%);fill-opacity:1;" d="M 15 7.5 C 15 11.640625 11.640625 15 7.5 15 C 3.359375 15 0 11.640625 0 7.5 C 0 3.359375 3.359375 0 7.5 0 C 11.640625 0 15 3.359375 15 7.5 "/>
<path style=" stroke:none;fill-rule:nonzero;fill:rgb(100%,47.058824%,57.254902%);fill-opacity:1;" d="M 5 8.75 C 5 9.902344 4.066406 10.832031 2.917969 10.832031 C 1.765625 10.832031 0.832031 9.902344 0.832031 8.75 C 0.832031 7.597656 1.765625 6.667969 2.917969 6.667969 C 4.066406 6.667969 5 7.597656 5 8.75 Z M 5 8.75 "/>
<path style=" stroke:none;fill-rule:nonzero;fill:rgb(100%,47.058824%,57.254902%);fill-opacity:1;" d="M 14.167969 8.75 C 14.167969 9.902344 13.234375 10.832031 12.082031 10.832031 C 10.933594 10.832031 10 9.902344 10 8.75 C 10 7.597656 10.933594 6.667969 12.082031 6.667969 C 13.234375 6.667969 14.167969 7.597656 14.167969 8.75 Z M 14.167969 8.75 "/>
<path style=" stroke:none;fill-rule:nonzero;fill:rgb(40%,27.058824%,0%);fill-opacity:1;" d="M 11.839844 7.382812 C 11.816406 7.347656 11.207031 6.457031 10 6.457031 C 8.792969 6.457031 8.183594 7.347656 8.160156 7.382812 C 8.105469 7.46875 8.117188 7.582031 8.191406 7.652344 C 8.261719 7.71875 8.375 7.726562 8.457031 7.667969 C 8.460938 7.664062 8.984375 7.292969 10 7.292969 C 11.011719 7.292969 11.53125 7.660156 11.542969 7.667969 C 11.578125 7.695312 11.625 7.707031 11.667969 7.707031 C 11.71875 7.707031 11.769531 7.6875 11.808594 7.652344 C 11.882812 7.582031 11.894531 7.46875 11.839844 7.382812 Z M 5 6.457031 C 3.792969 6.457031 3.183594 7.347656 3.160156 7.382812 C 3.105469 7.46875 3.117188 7.582031 3.191406 7.652344 C 3.261719 7.71875 3.375 7.726562 3.457031 7.667969 C 3.460938 7.664062 3.984375 7.292969 5 7.292969 C 6.011719 7.292969 6.53125 7.660156 6.542969 7.667969 C 6.578125 7.695312 6.625 7.707031 6.667969 7.707031 C 6.71875 7.707031 6.769531 7.6875 6.808594 7.652344 C 6.882812 7.582031 6.898438 7.46875 6.839844 7.382812 C 6.816406 7.347656 6.207031 6.457031 5 6.457031 Z M 9.113281 11.25 C 9.667969 11.078125 10.207031 10.769531 10.207031 10.207031 C 10.207031 9.117188 8.160156 8.972656 7.929688 8.957031 C 7.8125 8.945312 7.714844 9.039062 7.707031 9.152344 C 7.703125 9.269531 7.789062 9.367188 7.902344 9.375 C 7.917969 9.375 9.375 9.5 9.375 10.207031 C 9.375 10.917969 7.917969 11.042969 7.902344 11.042969 C 7.898438 11.042969 7.894531 11.042969 7.890625 11.046875 C 7.839844 11.046875 7.796875 11.070312 7.761719 11.109375 L 7.753906 11.121094 C 7.742188 11.136719 7.734375 11.152344 7.726562 11.171875 C 7.722656 11.183594 7.71875 11.195312 7.714844 11.207031 C 7.714844 11.21875 7.710938 11.226562 7.707031 11.238281 C 7.707031 11.242188 7.710938 11.246094 7.710938 11.25 C 7.710938 11.253906 7.707031 11.257812 7.707031 11.261719 C 7.710938 11.273438 7.714844 11.28125 7.714844 11.292969 C 7.71875 11.304688 7.722656 11.316406 7.726562 11.328125 C 7.730469 11.339844 7.738281 11.351562 7.746094 11.363281 C 7.753906 11.375 7.757812 11.382812 7.769531 11.394531 C 7.777344 11.402344 7.789062 11.410156 7.800781 11.417969 C 7.8125 11.425781 7.820312 11.433594 7.832031 11.4375 C 7.84375 11.445312 7.859375 11.445312 7.875 11.449219 C 7.882812 11.453125 7.890625 11.457031 7.902344 11.457031 C 7.917969 11.457031 9.375 11.582031 9.375 12.292969 C 9.375 13 7.917969 13.125 7.902344 13.125 C 7.789062 13.132812 7.703125 13.234375 7.707031 13.347656 C 7.714844 13.457031 7.808594 13.542969 7.917969 13.542969 L 7.929688 13.542969 C 8.160156 13.527344 10.207031 13.382812 10.207031 12.292969 C 10.207031 11.730469 9.667969 11.421875 9.113281 11.25 Z M 12.917969 6.667969 C 12.789062 6.667969 12.664062 6.609375 12.582031 6.5 C 11.484375 5.03125 10.058594 5 9.996094 5 C 9.769531 4.996094 9.582031 4.808594 9.585938 4.582031 C 9.585938 4.351562 9.769531 4.167969 10 4.167969 C 10.078125 4.167969 11.890625 4.1875 13.25 6 C 13.386719 6.183594 13.351562 6.445312 13.167969 6.582031 C 13.089844 6.640625 13.003906 6.667969 12.917969 6.667969 Z M 2.082031 6.667969 C 1.996094 6.667969 1.910156 6.640625 1.832031 6.582031 C 1.648438 6.445312 1.613281 6.183594 1.75 6 C 3.109375 4.1875 4.921875 4.167969 5 4.167969 C 5.230469 4.167969 5.417969 4.351562 5.417969 4.582031 C 5.417969 4.8125 5.230469 5 5 5 C 4.9375 5 3.515625 5.035156 2.417969 6.5 C 2.335938 6.609375 2.210938 6.667969 2.082031 6.667969 Z M 2.082031 6.667969 "/>
</g>
</svg>
