<?xml version="1.0" encoding="UTF-8"?>
<svg xmlns="http://www.w3.org/2000/svg" xmlns:xlink="http://www.w3.org/1999/xlink" width="15pt" height="15pt" viewBox="0 0 15 15" version="1.1">
<g id="surface1">
<path style=" stroke:none;fill-rule:nonzero;fill:rgb(100%,80%,30.196078%);fill-opacity:1;" d="M 15 7.5 C 15 11.640625 11.640625 15 7.5 15 C 3.359375 15 0 11.640625 0 7.5 C 0 3.359375 3.359375 0 7.5 0 C 11.640625 0 15 3.359375 15 7.5 "/>
<path style=" stroke:none;fill-rule:nonzero;fill:rgb(40%,27.058824%,0%);fill-opacity:1;" d="M 10.617188 11.617188 C 10.601562 11.542969 10.132812 9.792969 7.5 9.792969 C 4.867188 9.792969 4.398438 11.542969 4.382812 11.617188 C 4.359375 11.707031 4.398438 11.800781 4.480469 11.847656 C 4.5625 11.894531 4.664062 11.878906 4.730469 11.816406 C 4.738281 11.808594 5.542969 11.042969 7.5 11.042969 C 9.457031 11.042969 10.261719 11.808594 10.269531 11.816406 C 10.308594 11.855469 10.363281 11.875 10.417969 11.875 C 10.453125 11.875 10.488281 11.867188 10.519531 11.847656 C 10.601562 11.800781 10.640625 11.707031 10.617188 11.617188 Z M 12.082031 5.832031 C 11.957031 5.832031 11.832031 5.777344 11.75 5.667969 C 10.738281 4.316406 9.035156 5.3125 8.964844 5.355469 C 8.765625 5.476562 8.511719 5.410156 8.390625 5.214844 C 8.273438 5.015625 8.339844 4.761719 8.535156 4.640625 C 9.367188 4.144531 11.25 3.609375 12.417969 5.167969 C 12.554688 5.351562 12.515625 5.613281 12.332031 5.75 C 12.257812 5.804688 12.171875 5.832031 12.082031 5.832031 Z M 2.917969 5.832031 C 2.828125 5.832031 2.742188 5.804688 2.667969 5.75 C 2.484375 5.613281 2.445312 5.351562 2.582031 5.167969 C 3.75 3.609375 5.632812 4.144531 6.464844 4.644531 C 6.660156 4.761719 6.726562 5.015625 6.605469 5.214844 C 6.488281 5.410156 6.234375 5.476562 6.035156 5.359375 C 5.960938 5.3125 4.253906 4.328125 3.25 5.667969 C 3.167969 5.777344 3.042969 5.832031 2.917969 5.832031 Z M 12.082031 6.667969 C 12.082031 6.4375 11.898438 6.25 11.667969 6.25 L 8.75 6.25 C 8.519531 6.25 8.332031 6.4375 8.332031 6.667969 C 8.332031 6.898438 8.519531 7.082031 8.75 7.082031 L 10.871094 7.082031 C 10.957031 7.324219 11.1875 7.5 11.457031 7.5 C 11.804688 7.5 12.082031 7.21875 12.082031 6.875 C 12.082031 6.828125 12.078125 6.785156 12.066406 6.742188 C 12.074219 6.714844 12.082031 6.691406 12.082031 6.667969 Z M 6.667969 6.667969 C 6.667969 6.4375 6.480469 6.25 6.25 6.25 L 3.332031 6.25 C 3.101562 6.25 2.917969 6.4375 2.917969 6.667969 C 2.917969 6.898438 3.101562 7.082031 3.332031 7.082031 L 5.453125 7.082031 C 5.542969 7.324219 5.769531 7.5 6.042969 7.5 C 6.386719 7.5 6.667969 7.21875 6.667969 6.875 C 6.667969 6.828125 6.660156 6.785156 6.652344 6.742188 C 6.65625 6.714844 6.667969 6.691406 6.667969 6.667969 Z M 6.667969 6.667969 "/>
</g>
</svg>
