<?xml version="1.0" encoding="UTF-8"?>
<svg xmlns="http://www.w3.org/2000/svg" xmlns:xlink="http://www.w3.org/1999/xlink" width="15pt" height="15pt" viewBox="0 0 15 15" version="1.1">
<g id="surface1">
<path style=" stroke:none;fill-rule:nonzero;fill:rgb(100%,80%,30.196078%);fill-opacity:1;" d="M 15 7.5 C 15 11.640625 11.640625 15 7.5 15 C 3.359375 15 0 11.640625 0 7.5 C 0 3.359375 3.359375 0 7.5 0 C 11.640625 0 15 3.359375 15 7.5 "/>
<path style=" stroke:none;fill-rule:nonzero;fill:rgb(40%,27.058824%,0%);fill-opacity:1;" d="M 8.695312 11.667969 C 9.253906 11.496094 9.792969 11.183594 9.792969 10.625 C 9.792969 9.535156 7.746094 9.386719 7.511719 9.375 C 7.398438 9.363281 7.300781 9.457031 7.292969 9.570312 C 7.285156 9.683594 7.371094 9.785156 7.484375 9.792969 C 7.5 9.792969 8.957031 9.914062 8.957031 10.625 C 8.957031 11.335938 7.5 11.457031 7.484375 11.457031 C 7.480469 11.460938 7.476562 11.460938 7.46875 11.464844 C 7.449219 11.464844 7.429688 11.46875 7.410156 11.480469 L 7.402344 11.484375 C 7.382812 11.496094 7.363281 11.507812 7.347656 11.527344 C 7.34375 11.53125 7.339844 11.539062 7.335938 11.546875 C 7.324219 11.558594 7.316406 11.570312 7.308594 11.589844 C 7.304688 11.601562 7.300781 11.613281 7.300781 11.625 C 7.296875 11.636719 7.292969 11.644531 7.292969 11.652344 C 7.292969 11.660156 7.292969 11.664062 7.292969 11.667969 C 7.292969 11.671875 7.292969 11.675781 7.292969 11.679688 C 7.292969 11.691406 7.296875 11.699219 7.300781 11.707031 C 7.300781 11.722656 7.304688 11.734375 7.308594 11.746094 C 7.316406 11.757812 7.320312 11.769531 7.328125 11.78125 C 7.335938 11.789062 7.34375 11.800781 7.351562 11.808594 C 7.359375 11.820312 7.371094 11.828125 7.382812 11.835938 C 7.394531 11.84375 7.402344 11.851562 7.414062 11.855469 C 7.429688 11.863281 7.441406 11.863281 7.457031 11.867188 C 7.464844 11.871094 7.476562 11.875 7.484375 11.875 C 7.5 11.875 8.957031 12 8.957031 12.707031 C 8.957031 13.417969 7.5 13.542969 7.484375 13.542969 C 7.371094 13.550781 7.285156 13.648438 7.292969 13.761719 C 7.300781 13.875 7.390625 13.957031 7.5 13.957031 L 7.511719 13.957031 C 7.746094 13.945312 9.792969 13.800781 9.792969 12.707031 C 9.792969 12.148438 9.253906 11.839844 8.695312 11.667969 Z M 6.667969 7.917969 C 6.492188 7.917969 6.328125 7.804688 6.269531 7.632812 C 6.1875 7.382812 5.847656 6.667969 5.417969 6.667969 C 4.972656 6.667969 4.628906 7.429688 4.5625 7.632812 C 4.488281 7.847656 4.253906 7.96875 4.035156 7.894531 C 3.816406 7.824219 3.699219 7.585938 3.773438 7.367188 C 3.824219 7.210938 4.316406 5.832031 5.417969 5.832031 C 6.519531 5.832031 7.007812 7.210938 7.0625 7.367188 C 7.136719 7.585938 7.015625 7.824219 6.796875 7.894531 C 6.753906 7.910156 6.710938 7.917969 6.667969 7.917969 Z M 10.832031 7.917969 C 10.660156 7.917969 10.496094 7.804688 10.4375 7.632812 C 10.355469 7.382812 10.015625 6.667969 9.582031 6.667969 C 9.140625 6.667969 8.796875 7.429688 8.726562 7.632812 C 8.65625 7.847656 8.421875 7.96875 8.203125 7.894531 C 7.984375 7.824219 7.863281 7.585938 7.9375 7.367188 C 7.992188 7.210938 8.480469 5.832031 9.582031 5.832031 C 10.683594 5.832031 11.175781 7.210938 11.226562 7.367188 C 11.300781 7.585938 11.183594 7.824219 10.964844 7.894531 C 10.921875 7.910156 10.875 7.917969 10.832031 7.917969 Z M 10.832031 7.917969 "/>
</g>
</svg>
