<?xml version="1.0" encoding="UTF-8"?>
<svg xmlns="http://www.w3.org/2000/svg" xmlns:xlink="http://www.w3.org/1999/xlink" width="15pt" height="15pt" viewBox="0 0 15 15" version="1.1">
<g id="surface1">
<path style=" stroke:none;fill-rule:nonzero;fill:rgb(100%,79.607843%,29.803922%);fill-opacity:1;" d="M 15 7.5 C 15 11.640625 11.640625 15 7.5 15 C 3.359375 15 0 11.640625 0 7.5 C 0 3.359375 3.359375 0 7.5 0 C 11.640625 0 15 3.359375 15 7.5 "/>
<path style=" stroke:none;fill-rule:nonzero;fill:rgb(39.607843%,27.843137%,10.588235%);fill-opacity:1;" d="M 6.441406 6.589844 C 6.414062 6.535156 5.816406 5.214844 4.582031 5.214844 C 3.351562 5.214844 2.75 6.535156 2.726562 6.589844 C 2.6875 6.675781 2.714844 6.777344 2.785156 6.835938 C 2.859375 6.894531 2.964844 6.898438 3.039062 6.839844 C 3.046875 6.839844 3.566406 6.464844 4.582031 6.464844 C 5.59375 6.464844 6.113281 6.832031 6.125 6.839844 C 6.164062 6.867188 6.207031 6.882812 6.25 6.882812 C 6.296875 6.882812 6.34375 6.867188 6.378906 6.835938 C 6.453125 6.777344 6.480469 6.675781 6.441406 6.589844 Z M 6.441406 6.589844 "/>
<path style=" stroke:none;fill-rule:nonzero;fill:rgb(95.686275%,96.862745%,97.647059%);fill-opacity:1;" d="M 12.917969 5.625 C 12.917969 7.121094 11.703125 8.332031 10.207031 8.332031 C 8.710938 8.332031 7.5 7.121094 7.5 5.625 C 7.5 4.128906 8.710938 2.917969 10.207031 2.917969 C 11.703125 2.917969 12.917969 4.128906 12.917969 5.625 Z M 12.917969 5.625 "/>
<path style=" stroke:none;fill-rule:nonzero;fill:rgb(16.078431%,18.431373%,20%);fill-opacity:1;" d="M 11.25 5.625 C 11.25 6.199219 10.785156 6.667969 10.207031 6.667969 C 9.632812 6.667969 9.167969 6.199219 9.167969 5.625 C 9.167969 5.050781 9.632812 4.582031 10.207031 4.582031 C 10.785156 4.582031 11.25 5.050781 11.25 5.625 Z M 11.25 5.625 "/>
<path style=" stroke:none;fill-rule:nonzero;fill:rgb(39.607843%,27.843137%,10.588235%);fill-opacity:1;" d="M 2.917969 8.859375 C 2.917969 10.511719 4.832031 12.609375 7.5 12.609375 C 10.167969 12.609375 12.082031 10.527344 12.082031 8.859375 C 12.082031 8.859375 7.777344 10.007812 2.917969 8.859375 Z M 2.917969 8.859375 "/>
<path style=" stroke:none;fill-rule:nonzero;fill:rgb(90.980392%,34.901961%,43.137255%);fill-opacity:1;" d="M 7.726562 9.835938 L 7.273438 9.832031 C 5.933594 9.800781 5 9.585938 5 9.585938 L 5 12.484375 C 5 13.734375 5.832031 14.984375 7.5 14.984375 C 9.167969 14.984375 10 13.734375 10 12.484375 L 10 9.601562 C 9.199219 9.765625 8.421875 9.828125 7.726562 9.835938 Z M 7.726562 9.835938 "/>
<path style=" stroke:none;fill-rule:nonzero;fill:rgb(86.666667%,18.431373%,27.058824%);fill-opacity:1;" d="M 7.5 13.269531 C 7.625 13.269531 7.726562 13.167969 7.726562 13.039062 L 7.726562 9.835938 L 7.273438 9.832031 L 7.273438 13.039062 C 7.273438 13.167969 7.375 13.269531 7.5 13.269531 Z M 7.5 13.269531 "/>
</g>
</svg>
