<?xml version="1.0" encoding="UTF-8"?>
<svg xmlns="http://www.w3.org/2000/svg" xmlns:xlink="http://www.w3.org/1999/xlink" width="15pt" height="15pt" viewBox="0 0 15 15" version="1.1">
<g id="surface1">
<path style=" stroke:none;fill-rule:nonzero;fill:rgb(100%,80%,30.196078%);fill-opacity:1;" d="M 15 7.5 C 15 11.640625 11.640625 15 7.5 15 C 3.359375 15 0 11.640625 0 7.5 C 0 3.359375 3.359375 0 7.5 0 C 11.640625 0 15 3.359375 15 7.5 "/>
<path style=" stroke:none;fill-rule:nonzero;fill:rgb(40%,27.058824%,0%);fill-opacity:1;" d="M 2.5 5.417969 C 2.269531 5.417969 2.082031 5.230469 2.082031 5 C 2.082031 4.769531 2.269531 4.585938 2.5 4.582031 C 2.5625 4.582031 3.984375 4.546875 5.082031 3.082031 C 5.222656 2.898438 5.484375 2.863281 5.667969 3 C 5.851562 3.136719 5.886719 3.398438 5.75 3.582031 C 4.390625 5.394531 2.578125 5.417969 2.5 5.417969 Z M 12.5 5.417969 C 12.421875 5.417969 10.609375 5.394531 9.25 3.582031 C 9.113281 3.398438 9.148438 3.136719 9.332031 3 C 9.515625 2.859375 9.777344 2.898438 9.917969 3.082031 C 11.015625 4.550781 12.441406 4.582031 12.503906 4.582031 C 12.730469 4.585938 12.917969 4.773438 12.914062 5.003906 C 12.914062 5.230469 12.730469 5.417969 12.5 5.417969 Z M 12.75 8.417969 C 12.703125 8.378906 11.945312 7.824219 10.8125 7.441406 C 10.824219 7.390625 10.832031 7.34375 10.832031 7.292969 C 10.832031 7.136719 10.777344 7 10.683594 6.890625 C 11.433594 6.671875 12.074219 6.667969 12.085938 6.667969 C 12.3125 6.664062 12.5 6.480469 12.5 6.25 C 12.5 6.019531 12.3125 5.832031 12.082031 5.832031 C 11.992188 5.832031 9.8125 5.847656 8.457031 7.207031 C 8.335938 7.324219 8.300781 7.503906 8.363281 7.660156 C 8.429688 7.816406 8.582031 7.917969 8.75 7.917969 C 10.664062 7.917969 12.234375 9.070312 12.25 9.082031 C 12.324219 9.140625 12.414062 9.167969 12.5 9.167969 C 12.625 9.167969 12.75 9.109375 12.832031 9 C 12.972656 8.816406 12.933594 8.554688 12.75 8.417969 Z M 6.542969 7.207031 C 5.1875 5.847656 3.007812 5.832031 2.917969 5.832031 C 2.6875 5.832031 2.5 6.019531 2.5 6.25 C 2.5 6.480469 2.6875 6.664062 2.917969 6.667969 C 2.925781 6.667969 3.566406 6.671875 4.316406 6.890625 C 4.222656 7 4.167969 7.136719 4.167969 7.292969 C 4.167969 7.34375 4.175781 7.390625 4.1875 7.441406 C 3.054688 7.824219 2.296875 8.378906 2.25 8.417969 C 2.066406 8.554688 2.027344 8.816406 2.167969 9 C 2.25 9.109375 2.375 9.167969 2.5 9.167969 C 2.585938 9.167969 2.675781 9.140625 2.75 9.082031 C 2.765625 9.070312 4.328125 7.917969 6.25 7.917969 C 6.417969 7.917969 6.570312 7.816406 6.636719 7.660156 C 6.699219 7.503906 6.664062 7.324219 6.542969 7.207031 Z M 7.5 12.5 C 7.375 12.5 7.253906 12.441406 7.175781 12.34375 L 5.84375 10.679688 L 4.917969 11.917969 C 4.84375 12.011719 4.734375 12.074219 4.613281 12.082031 C 4.492188 12.089844 4.375 12.046875 4.289062 11.960938 L 3.871094 11.542969 C 3.710938 11.382812 3.710938 11.117188 3.871094 10.957031 C 4.035156 10.792969 4.296875 10.792969 4.460938 10.957031 L 4.539062 11.03125 L 5.5 9.75 C 5.578125 9.648438 5.699219 9.585938 5.828125 9.582031 C 5.949219 9.578125 6.078125 9.640625 6.160156 9.738281 L 7.5 11.417969 L 8.839844 9.738281 C 8.921875 9.640625 9.042969 9.582031 9.171875 9.582031 C 9.300781 9.585938 9.421875 9.648438 9.5 9.75 L 10.460938 11.03125 L 10.539062 10.953125 C 10.703125 10.792969 10.964844 10.792969 11.128906 10.953125 C 11.292969 11.117188 11.292969 11.382812 11.128906 11.542969 L 10.710938 11.960938 C 10.625 12.046875 10.511719 12.089844 10.386719 12.082031 C 10.265625 12.074219 10.15625 12.011719 10.082031 11.917969 L 9.15625 10.679688 L 7.824219 12.34375 C 7.746094 12.441406 7.625 12.5 7.5 12.5 Z M 7.5 12.5 "/>
</g>
</svg>
