<?xml version="1.0" encoding="UTF-8"?>
<svg xmlns="http://www.w3.org/2000/svg" xmlns:xlink="http://www.w3.org/1999/xlink" width="15pt" height="15pt" viewBox="0 0 15 15" version="1.1">
<g id="surface1">
<path style=" stroke:none;fill-rule:nonzero;fill:rgb(100%,80%,30.196078%);fill-opacity:1;" d="M 15 7.5 C 15 11.640625 11.640625 15 7.5 15 C 3.359375 15 0 11.640625 0 7.5 C 0 3.359375 3.359375 0 7.5 0 C 11.640625 0 15 3.359375 15 7.5 "/>
<path style=" stroke:none;fill-rule:nonzero;fill:rgb(40%,27.058824%,0%);fill-opacity:1;" d="M 11.855469 7.414062 C 11.832031 7.359375 11.234375 6.042969 10 6.042969 C 8.769531 6.042969 8.167969 7.359375 8.144531 7.414062 C 8.105469 7.5 8.128906 7.601562 8.203125 7.660156 C 8.277344 7.722656 8.378906 7.722656 8.457031 7.667969 C 8.460938 7.664062 8.984375 7.292969 10 7.292969 C 11.011719 7.292969 11.53125 7.660156 11.542969 7.667969 C 11.578125 7.695312 11.625 7.707031 11.667969 7.707031 C 11.710938 7.707031 11.757812 7.691406 11.796875 7.664062 C 11.871094 7.605469 11.894531 7.503906 11.855469 7.414062 Z M 7.273438 7.414062 C 7.25 7.359375 6.648438 6.042969 5.417969 6.042969 C 4.183594 6.042969 3.585938 7.359375 3.558594 7.414062 C 3.519531 7.5 3.546875 7.601562 3.621094 7.660156 C 3.691406 7.722656 3.796875 7.722656 3.875 7.667969 C 3.878906 7.664062 4.398438 7.292969 5.417969 7.292969 C 6.425781 7.292969 6.949219 7.660156 6.960938 7.667969 C 6.996094 7.695312 7.039062 7.707031 7.082031 7.707031 C 7.128906 7.707031 7.175781 7.691406 7.214844 7.664062 C 7.289062 7.605469 7.3125 7.503906 7.273438 7.414062 Z M 5.417969 11.667969 C 5.417969 11.667969 5.832031 10 7.5 10 C 9.167969 10 9.582031 11.667969 9.582031 11.667969 C 9.582031 11.667969 9.167969 11.25 7.5 11.25 C 5.832031 11.25 5.417969 11.667969 5.417969 11.667969 Z M 5.417969 11.667969 "/>
<path style=" stroke:none;fill-rule:nonzero;fill:rgb(36.470588%,67.843137%,92.54902%);fill-opacity:1;" d="M 4.582031 4.582031 C 4.582031 5.734375 3.652344 6.667969 2.5 6.667969 C 1.347656 6.667969 0.417969 5.734375 0.417969 4.582031 C 0.417969 3.433594 2.082031 0.417969 2.5 0.417969 C 2.917969 0.417969 4.582031 3.433594 4.582031 4.582031 Z M 4.582031 4.582031 "/>
</g>
</svg>
