<?xml version="1.0" encoding="UTF-8"?>
<svg xmlns="http://www.w3.org/2000/svg" xmlns:xlink="http://www.w3.org/1999/xlink" width="15pt" height="15pt" viewBox="0 0 15 15" version="1.1">
<g id="surface1">
<path style=" stroke:none;fill-rule:nonzero;fill:rgb(100%,79.607843%,29.803922%);fill-opacity:1;" d="M 15 7.5 C 15 11.640625 11.640625 15 7.5 15 C 3.359375 15 0 11.640625 0 7.5 C 0 3.359375 3.359375 0 7.5 0 C 11.640625 0 15 3.359375 15 7.5 "/>
<path style=" stroke:none;fill-rule:nonzero;fill:rgb(39.607843%,27.843137%,10.588235%);fill-opacity:1;" d="M 12.75 7.582031 C 12.703125 7.546875 11.945312 6.988281 10.8125 6.605469 C 10.824219 6.558594 10.832031 6.507812 10.832031 6.457031 C 10.832031 6.304688 10.777344 6.164062 10.683594 6.058594 C 11.433594 5.839844 12.074219 5.832031 12.085938 5.832031 C 12.3125 5.832031 12.5 5.644531 12.5 5.414062 C 12.5 5.1875 12.3125 5 12.082031 5 C 11.992188 5 9.8125 5.015625 8.457031 6.371094 C 8.335938 6.492188 8.300781 6.671875 8.363281 6.828125 C 8.429688 6.980469 8.582031 7.082031 8.75 7.082031 C 10.664062 7.082031 12.234375 8.238281 12.25 8.25 C 12.324219 8.304688 12.414062 8.332031 12.5 8.332031 C 12.625 8.332031 12.75 8.277344 12.832031 8.167969 C 12.972656 7.980469 12.933594 7.722656 12.75 7.582031 Z M 6.542969 6.371094 C 5.1875 5.015625 3.007812 5 2.917969 5 C 2.6875 5 2.5 5.1875 2.5 5.414062 C 2.5 5.644531 2.6875 5.832031 2.917969 5.832031 C 2.925781 5.832031 3.566406 5.839844 4.316406 6.058594 C 4.222656 6.164062 4.167969 6.304688 4.167969 6.457031 C 4.167969 6.507812 4.175781 6.558594 4.1875 6.605469 C 3.054688 6.988281 2.296875 7.546875 2.25 7.582031 C 2.066406 7.722656 2.027344 7.984375 2.167969 8.167969 C 2.25 8.277344 2.375 8.332031 2.5 8.332031 C 2.585938 8.332031 2.675781 8.304688 2.75 8.25 C 2.765625 8.238281 4.328125 7.082031 6.25 7.082031 C 6.417969 7.082031 6.570312 6.980469 6.636719 6.828125 C 6.699219 6.671875 6.664062 6.492188 6.542969 6.371094 Z M 2.917969 8.859375 C 2.917969 10.511719 4.832031 12.609375 7.5 12.609375 C 10.167969 12.609375 12.082031 10.527344 12.082031 8.859375 C 12.082031 8.859375 7.777344 10.007812 2.917969 8.859375 Z M 2.917969 8.859375 "/>
<path style=" stroke:none;fill-rule:nonzero;fill:rgb(90.980392%,34.901961%,43.137255%);fill-opacity:1;" d="M 7.726562 9.835938 L 7.273438 9.832031 C 5.933594 9.800781 5 9.585938 5 9.585938 L 5 12.484375 C 5 13.734375 5.832031 14.984375 7.5 14.984375 C 9.167969 14.984375 10 13.734375 10 12.484375 L 10 9.601562 C 9.199219 9.765625 8.421875 9.828125 7.726562 9.835938 Z M 7.726562 9.835938 "/>
<path style=" stroke:none;fill-rule:nonzero;fill:rgb(86.666667%,18.431373%,27.058824%);fill-opacity:1;" d="M 7.5 13.269531 C 7.625 13.269531 7.726562 13.167969 7.726562 13.042969 L 7.726562 9.835938 L 7.273438 9.832031 L 7.273438 13.042969 C 7.273438 13.167969 7.375 13.269531 7.5 13.269531 Z M 7.5 13.269531 "/>
</g>
</svg>
