<?xml version="1.0" encoding="UTF-8"?>
<svg xmlns="http://www.w3.org/2000/svg" xmlns:xlink="http://www.w3.org/1999/xlink" width="15pt" height="15pt" viewBox="0 0 15 15" version="1.1">
<g id="surface1">
<path style=" stroke:none;fill-rule:nonzero;fill:rgb(100%,80%,30.196078%);fill-opacity:1;" d="M 15 7.5 C 15 11.640625 11.640625 15 7.5 15 C 3.359375 15 0 11.640625 0 7.5 C 0 3.359375 3.359375 0 7.5 0 C 11.640625 0 15 3.359375 15 7.5 Z M 15 7.5 "/>
<path style=" stroke:none;fill-rule:nonzero;fill:rgb(40%,27.058824%,0%);fill-opacity:1;" d="M 5.832031 6.457031 C 5.832031 5.652344 5.367188 5 4.792969 5 C 4.214844 5 3.75 5.652344 3.75 6.457031 C 3.75 7.265625 4.214844 7.917969 4.792969 7.917969 C 5.367188 7.917969 5.832031 7.265625 5.832031 6.457031 Z M 5.832031 6.457031 "/>
<path style=" stroke:none;fill-rule:nonzero;fill:rgb(40%,27.058824%,0%);fill-opacity:1;" d="M 11.855469 7.414062 C 11.832031 7.359375 11.234375 6.042969 10 6.042969 C 8.769531 6.042969 8.167969 7.359375 8.144531 7.414062 C 8.105469 7.5 8.128906 7.601562 8.203125 7.660156 C 8.277344 7.722656 8.378906 7.722656 8.457031 7.667969 C 8.460938 7.664062 8.984375 7.292969 10 7.292969 C 11.011719 7.292969 11.53125 7.660156 11.542969 7.667969 C 11.578125 7.695312 11.625 7.707031 11.667969 7.707031 C 11.710938 7.707031 11.757812 7.691406 11.796875 7.664062 C 11.871094 7.605469 11.894531 7.503906 11.855469 7.414062 Z M 2.5 4.582031 C 2.414062 4.582031 2.324219 4.554688 2.25 4.5 C 2.066406 4.363281 2.027344 4.101562 2.167969 3.917969 C 3.527344 2.105469 5.339844 2.082031 5.417969 2.082031 C 5.648438 2.082031 5.832031 2.269531 5.832031 2.5 C 5.832031 2.730469 5.648438 2.914062 5.417969 2.917969 C 5.355469 2.917969 3.933594 2.953125 2.832031 4.417969 C 2.75 4.527344 2.625 4.582031 2.5 4.582031 Z M 12.082031 5.832031 C 11.957031 5.832031 11.832031 5.777344 11.75 5.667969 C 10.671875 4.226562 8.847656 4.570312 8.832031 4.574219 C 8.605469 4.621094 8.386719 4.472656 8.339844 4.25 C 8.296875 4.023438 8.441406 3.804688 8.667969 3.757812 C 8.765625 3.738281 11.023438 3.3125 12.417969 5.167969 C 12.554688 5.351562 12.515625 5.613281 12.332031 5.75 C 12.257812 5.804688 12.171875 5.832031 12.082031 5.832031 Z M 8.367188 11.265625 C 8.921875 11.097656 9.460938 10.785156 9.460938 10.226562 C 9.460938 9.132812 7.414062 8.988281 7.183594 8.976562 C 7.066406 8.964844 6.96875 9.058594 6.960938 9.171875 C 6.953125 9.285156 7.042969 9.382812 7.15625 9.390625 C 7.171875 9.394531 8.628906 9.515625 8.628906 10.226562 C 8.628906 10.933594 7.171875 11.058594 7.15625 11.058594 C 7.148438 11.058594 7.144531 11.0625 7.140625 11.0625 C 7.117188 11.066406 7.097656 11.070312 7.078125 11.082031 L 7.070312 11.085938 C 7.050781 11.097656 7.035156 11.109375 7.019531 11.125 C 7.011719 11.132812 7.007812 11.140625 7.003906 11.144531 C 6.996094 11.160156 6.984375 11.171875 6.980469 11.1875 C 6.972656 11.199219 6.972656 11.214844 6.96875 11.226562 C 6.96875 11.238281 6.964844 11.246094 6.960938 11.253906 C 6.960938 11.257812 6.964844 11.265625 6.964844 11.269531 C 6.964844 11.273438 6.960938 11.277344 6.960938 11.28125 C 6.960938 11.289062 6.96875 11.300781 6.96875 11.308594 C 6.972656 11.320312 6.972656 11.335938 6.980469 11.347656 C 6.984375 11.359375 6.992188 11.371094 7 11.382812 C 7.007812 11.390625 7.011719 11.402344 7.019531 11.410156 C 7.03125 11.421875 7.042969 11.429688 7.054688 11.4375 C 7.0625 11.445312 7.074219 11.449219 7.085938 11.457031 C 7.097656 11.460938 7.113281 11.464844 7.125 11.46875 C 7.136719 11.46875 7.144531 11.476562 7.15625 11.476562 C 7.171875 11.476562 8.628906 11.601562 8.628906 12.308594 C 8.628906 13.019531 7.171875 13.140625 7.15625 13.144531 C 7.042969 13.152344 6.953125 13.25 6.960938 13.363281 C 6.96875 13.472656 7.0625 13.558594 7.171875 13.558594 L 7.183594 13.558594 C 7.414062 13.546875 9.460938 13.402344 9.460938 12.308594 C 9.460938 11.75 8.921875 11.4375 8.367188 11.265625 Z M 8.367188 11.265625 "/>
<path style=" stroke:none;fill-rule:nonzero;fill:rgb(100%,67.45098%,20%);fill-opacity:1;" d="M 14.25 10.75 C 14.152344 10.421875 13.925781 10.132812 13.59375 9.96875 C 13.210938 9.78125 12.777344 9.808594 12.429688 9.996094 C 12.363281 9.605469 12.117188 9.25 11.734375 9.0625 C 11.101562 8.753906 10.339844 9.015625 10.03125 9.648438 C 9.988281 9.738281 9.957031 9.832031 9.933594 9.921875 C 9.613281 10.988281 10.203125 12.566406 10.847656 13.234375 C 11.359375 13.289062 12.078125 13.152344 12.730469 12.871094 C 13.355469 12.261719 13.867188 11.546875 14.25 10.75 Z M 14.25 10.75 "/>
<path style=" stroke:none;fill-rule:nonzero;fill:rgb(86.666667%,18.039216%,26.666667%);fill-opacity:1;" d="M 14.855469 11.34375 C 15.164062 10.710938 14.902344 9.949219 14.269531 9.640625 C 13.886719 9.453125 13.457031 9.476562 13.105469 9.664062 C 13.039062 9.273438 12.792969 8.917969 12.410156 8.734375 C 11.777344 8.425781 11.015625 8.6875 10.707031 9.320312 C 10.664062 9.410156 10.632812 9.5 10.613281 9.59375 C 10.289062 10.660156 10.878906 12.234375 11.527344 12.90625 C 12.453125 13.003906 14.058594 12.496094 14.699219 11.589844 C 14.757812 11.511719 14.8125 11.433594 14.855469 11.34375 Z M 14.855469 11.34375 "/>
</g>
</svg>
