<?xml version="1.0" encoding="UTF-8"?>
<svg xmlns="http://www.w3.org/2000/svg" xmlns:xlink="http://www.w3.org/1999/xlink" width="15pt" height="15pt" viewBox="0 0 15 15" version="1.1">
<g id="surface1">
<path style=" stroke:none;fill-rule:nonzero;fill:rgb(100%,80%,30.196078%);fill-opacity:1;" d="M 15 7.5 C 15 11.640625 11.640625 15 7.5 15 C 3.359375 15 0 11.640625 0 7.5 C 0 3.359375 3.359375 0 7.5 0 C 11.640625 0 15 3.359375 15 7.5 "/>
<path style=" stroke:none;fill-rule:nonzero;fill:rgb(40%,27.058824%,0%);fill-opacity:1;" d="M 6.25 6.457031 C 6.25 5.652344 5.785156 5 5.207031 5 C 4.632812 5 4.167969 5.652344 4.167969 6.457031 C 4.167969 7.265625 4.632812 7.917969 5.207031 7.917969 C 5.785156 7.917969 6.25 7.265625 6.25 6.457031 Z M 6.25 6.457031 "/>
<path style=" stroke:none;fill-rule:nonzero;fill:rgb(40%,27.058824%,0%);fill-opacity:1;" d="M 10.832031 6.457031 C 10.832031 5.652344 10.367188 5 9.792969 5 C 9.214844 5 8.75 5.652344 8.75 6.457031 C 8.75 7.265625 9.214844 7.917969 9.792969 7.917969 C 10.367188 7.917969 10.832031 7.265625 10.832031 6.457031 Z M 10.832031 6.457031 "/>
<path style=" stroke:none;fill-rule:nonzero;fill:rgb(40%,27.058824%,0%);fill-opacity:1;" d="M 8.695312 11.667969 C 9.253906 11.496094 9.792969 11.183594 9.792969 10.625 C 9.792969 9.535156 7.746094 9.386719 7.511719 9.375 C 7.398438 9.363281 7.300781 9.457031 7.292969 9.570312 C 7.285156 9.683594 7.371094 9.785156 7.484375 9.792969 C 7.5 9.792969 8.957031 9.914062 8.957031 10.625 C 8.957031 11.335938 7.5 11.457031 7.484375 11.457031 C 7.480469 11.460938 7.476562 11.460938 7.46875 11.464844 C 7.449219 11.464844 7.429688 11.46875 7.410156 11.480469 L 7.402344 11.484375 C 7.382812 11.496094 7.363281 11.507812 7.347656 11.527344 C 7.34375 11.53125 7.339844 11.539062 7.335938 11.546875 C 7.324219 11.558594 7.316406 11.570312 7.308594 11.589844 C 7.304688 11.601562 7.300781 11.613281 7.300781 11.625 C 7.296875 11.636719 7.292969 11.644531 7.292969 11.652344 C 7.292969 11.660156 7.292969 11.664062 7.292969 11.667969 C 7.292969 11.671875 7.292969 11.675781 7.292969 11.679688 C 7.292969 11.691406 7.296875 11.699219 7.300781 11.707031 C 7.300781 11.722656 7.304688 11.734375 7.308594 11.746094 C 7.316406 11.757812 7.320312 11.769531 7.328125 11.78125 C 7.335938 11.789062 7.34375 11.800781 7.351562 11.808594 C 7.359375 11.820312 7.371094 11.828125 7.382812 11.835938 C 7.394531 11.84375 7.402344 11.851562 7.414062 11.855469 C 7.429688 11.863281 7.441406 11.863281 7.457031 11.867188 C 7.464844 11.871094 7.476562 11.875 7.484375 11.875 C 7.5 11.875 8.957031 12 8.957031 12.707031 C 8.957031 13.417969 7.5 13.542969 7.484375 13.542969 C 7.371094 13.550781 7.285156 13.648438 7.292969 13.761719 C 7.300781 13.875 7.390625 13.957031 7.5 13.957031 L 7.511719 13.957031 C 7.746094 13.945312 9.792969 13.800781 9.792969 12.707031 C 9.792969 12.148438 9.253906 11.839844 8.695312 11.667969 Z M 8.695312 11.667969 "/>
</g>
</svg>
