<?xml version="1.0" encoding="UTF-8"?>
<svg xmlns="http://www.w3.org/2000/svg" xmlns:xlink="http://www.w3.org/1999/xlink" width="15pt" height="15pt" viewBox="0 0 15 15" version="1.1">
<g id="surface1">
<path style=" stroke:none;fill-rule:nonzero;fill:rgb(100%,80%,30.196078%);fill-opacity:1;" d="M 15 7.5 C 15 11.640625 11.640625 15 7.5 15 C 3.359375 15 0 11.640625 0 7.5 C 0 3.359375 3.359375 0 7.5 0 C 11.640625 0 15 3.359375 15 7.5 Z M 15 7.5 "/>
<path style=" stroke:none;fill-rule:nonzero;fill:rgb(40%,27.058824%,0%);fill-opacity:1;" d="M 9.785156 12.03125 C 9.78125 12.015625 9.308594 10.207031 7.5 10.207031 C 5.691406 10.207031 5.21875 12.015625 5.214844 12.03125 C 5.191406 12.121094 5.234375 12.210938 5.3125 12.257812 C 5.390625 12.304688 5.492188 12.296875 5.558594 12.234375 C 5.5625 12.230469 5.980469 11.875 7.5 11.875 C 8.996094 11.875 9.421875 12.222656 9.441406 12.234375 C 9.480469 12.273438 9.53125 12.292969 9.582031 12.292969 C 9.617188 12.292969 9.652344 12.28125 9.6875 12.265625 C 9.765625 12.21875 9.808594 12.125 9.785156 12.03125 Z M 4.675781 6.464844 C 4.546875 6.464844 4.414062 6.480469 4.28125 6.511719 C 3.085938 6.804688 2.820312 8.230469 2.808594 8.289062 C 2.792969 8.382812 2.839844 8.472656 2.925781 8.515625 C 2.953125 8.527344 2.984375 8.535156 3.011719 8.535156 C 3.074219 8.535156 3.132812 8.507812 3.171875 8.460938 C 3.179688 8.453125 3.59375 7.96875 4.582031 7.726562 C 4.878906 7.652344 5.171875 7.613281 5.445312 7.613281 C 5.90625 7.613281 6.167969 7.71875 6.167969 7.722656 C 6.195312 7.734375 6.222656 7.738281 6.253906 7.738281 C 6.367188 7.742188 6.464844 7.644531 6.464844 7.527344 C 6.464844 7.460938 6.433594 7.398438 6.382812 7.363281 C 6.230469 7.179688 5.566406 6.464844 4.675781 6.464844 Z M 10.324219 6.464844 C 10.453125 6.464844 10.585938 6.480469 10.71875 6.511719 C 11.914062 6.804688 12.179688 8.230469 12.191406 8.289062 C 12.207031 8.382812 12.160156 8.472656 12.074219 8.515625 C 12.046875 8.527344 12.015625 8.535156 11.988281 8.535156 C 11.925781 8.535156 11.867188 8.507812 11.828125 8.460938 C 11.820312 8.453125 11.40625 7.96875 10.417969 7.726562 C 10.121094 7.652344 9.828125 7.613281 9.554688 7.613281 C 9.09375 7.613281 8.832031 7.71875 8.832031 7.722656 C 8.804688 7.734375 8.777344 7.738281 8.746094 7.738281 C 8.632812 7.742188 8.535156 7.644531 8.535156 7.527344 C 8.535156 7.460938 8.566406 7.398438 8.617188 7.363281 C 8.769531 7.179688 9.433594 6.464844 10.324219 6.464844 Z M 10.324219 6.464844 "/>
</g>
</svg>
