<?xml version="1.0" encoding="UTF-8"?>
<svg xmlns="http://www.w3.org/2000/svg" xmlns:xlink="http://www.w3.org/1999/xlink" width="15pt" height="15pt" viewBox="0 0 15 15" version="1.1">
<g id="surface1">
<path style=" stroke:none;fill-rule:nonzero;fill:rgb(100%,80%,30.196078%);fill-opacity:1;" d="M 15 7.5 C 15 11.640625 11.640625 15 7.5 15 C 3.359375 15 0 11.640625 0 7.5 C 0 3.359375 3.359375 0 7.5 0 C 11.640625 0 15 3.359375 15 7.5 "/>
<path style=" stroke:none;fill-rule:nonzero;fill:rgb(40%,27.058824%,0%);fill-opacity:1;" d="M 10.417969 10.832031 L 4.582031 10.832031 C 4.351562 10.832031 4.167969 10.648438 4.167969 10.417969 C 4.167969 10.1875 4.351562 10 4.582031 10 L 10.417969 10 C 10.648438 10 10.832031 10.1875 10.832031 10.417969 C 10.832031 10.648438 10.648438 10.832031 10.417969 10.832031 Z M 6.25 7.5 L 3.332031 7.5 C 3.101562 7.5 2.917969 7.3125 2.917969 7.082031 C 2.917969 6.851562 3.101562 6.667969 3.332031 6.667969 L 6.25 6.667969 C 6.480469 6.667969 6.667969 6.851562 6.667969 7.082031 C 6.667969 7.3125 6.480469 7.5 6.25 7.5 Z M 11.667969 7.5 L 8.75 7.5 C 8.519531 7.5 8.332031 7.3125 8.332031 7.082031 C 8.332031 6.851562 8.519531 6.667969 8.75 6.667969 L 11.667969 6.667969 C 11.898438 6.667969 12.082031 6.851562 12.082031 7.082031 C 12.082031 7.3125 11.898438 7.5 11.667969 7.5 Z M 11.667969 7.5 "/>
</g>
</svg>
