<?xml version="1.0" encoding="UTF-8"?>
<svg xmlns="http://www.w3.org/2000/svg" xmlns:xlink="http://www.w3.org/1999/xlink" width="15pt" height="15pt" viewBox="0 0 15 15" version="1.1">
<g id="surface1">
<path style=" stroke:none;fill-rule:nonzero;fill:rgb(100%,80%,30.196078%);fill-opacity:1;" d="M 15 7.5 C 15 11.640625 11.640625 15 7.5 15 C 3.359375 15 0 11.640625 0 7.5 C 0 3.359375 3.359375 0 7.5 0 C 11.640625 0 15 3.359375 15 7.5 "/>
<path style=" stroke:none;fill-rule:nonzero;fill:rgb(40%,27.058824%,0%);fill-opacity:1;" d="M 8.75 10.625 C 8.75 9.820312 8.191406 9.167969 7.5 9.167969 C 6.808594 9.167969 6.25 9.820312 6.25 10.625 C 6.25 11.429688 6.808594 12.082031 7.5 12.082031 C 8.191406 12.082031 8.75 11.429688 8.75 10.625 Z M 8.75 10.625 "/>
<path style=" stroke:none;fill-rule:nonzero;fill:rgb(40%,27.058824%,0%);fill-opacity:1;" d="M 12.917969 4.582031 C 12.789062 4.582031 12.664062 4.527344 12.582031 4.417969 C 11.484375 2.949219 10.058594 2.917969 9.996094 2.917969 C 9.769531 2.914062 9.582031 2.726562 9.585938 2.496094 C 9.585938 2.269531 9.769531 2.082031 10 2.082031 C 10.078125 2.082031 11.890625 2.105469 13.25 3.917969 C 13.386719 4.101562 13.351562 4.363281 13.167969 4.5 C 13.089844 4.554688 13.003906 4.582031 12.917969 4.582031 Z M 2.082031 4.582031 C 1.996094 4.582031 1.910156 4.554688 1.832031 4.5 C 1.648438 4.363281 1.613281 4.101562 1.75 3.917969 C 3.109375 2.105469 4.921875 2.082031 5 2.082031 C 5.230469 2.082031 5.417969 2.269531 5.417969 2.5 C 5.417969 2.730469 5.230469 2.914062 5 2.917969 C 4.9375 2.917969 3.515625 2.953125 2.417969 4.417969 C 2.335938 4.527344 2.210938 4.582031 2.082031 4.582031 Z M 2.082031 4.582031 "/>
<path style=" stroke:none;fill-rule:nonzero;fill:rgb(40%,27.058824%,0%);fill-opacity:1;" d="M 6.042969 6.042969 C 6.042969 5.234375 5.574219 4.582031 5 4.582031 C 4.425781 4.582031 3.957031 5.234375 3.957031 6.042969 C 3.957031 6.847656 4.425781 7.5 5 7.5 C 5.574219 7.5 6.042969 6.847656 6.042969 6.042969 Z M 6.042969 6.042969 "/>
<path style=" stroke:none;fill-rule:nonzero;fill:rgb(40%,27.058824%,0%);fill-opacity:1;" d="M 11.042969 6.042969 C 11.042969 5.234375 10.574219 4.582031 10 4.582031 C 9.425781 4.582031 8.957031 5.234375 8.957031 6.042969 C 8.957031 6.847656 9.425781 7.5 10 7.5 C 10.574219 7.5 11.042969 6.847656 11.042969 6.042969 Z M 11.042969 6.042969 "/>
</g>
</svg>
