<?xml version="1.0" encoding="UTF-8"?>
<svg xmlns="http://www.w3.org/2000/svg" xmlns:xlink="http://www.w3.org/1999/xlink" width="15pt" height="15pt" viewBox="0 0 15 15" version="1.1">
<g id="surface1">
<path style=" stroke:none;fill-rule:nonzero;fill:rgb(100%,80%,30.196078%);fill-opacity:1;" d="M 15 7.5 C 15 11.640625 11.640625 15 7.5 15 C 3.359375 15 0 11.640625 0 7.5 C 0 3.359375 3.359375 0 7.5 0 C 11.640625 0 15 3.359375 15 7.5 "/>
<path style=" stroke:none;fill-rule:nonzero;fill:rgb(40%,27.058824%,0%);fill-opacity:1;" d="M 7.5 8.957031 C 3.609375 8.957031 3.132812 12.4375 3.125 12.472656 C 3.117188 12.546875 3.144531 12.617188 3.203125 12.660156 C 3.238281 12.691406 3.285156 12.707031 3.332031 12.707031 C 3.355469 12.707031 3.378906 12.703125 3.398438 12.699219 C 3.421875 12.691406 5.886719 11.875 7.5 11.875 C 9.832031 11.875 11.558594 12.679688 11.578125 12.6875 C 11.644531 12.71875 11.726562 12.714844 11.789062 12.667969 C 11.851562 12.625 11.882812 12.550781 11.875 12.472656 C 11.867188 12.4375 11.390625 8.957031 7.5 8.957031 Z M 12.082031 4.167969 C 9.769531 4.167969 8.832031 2.347656 8.792969 2.269531 C 8.691406 2.0625 8.773438 1.8125 8.980469 1.710938 C 9.183594 1.609375 9.433594 1.691406 9.539062 1.894531 C 9.570312 1.957031 10.296875 3.332031 12.082031 3.332031 C 12.3125 3.332031 12.5 3.519531 12.5 3.75 C 12.5 3.980469 12.3125 4.167969 12.082031 4.167969 Z M 2.917969 4.167969 C 2.6875 4.167969 2.5 3.980469 2.5 3.75 C 2.5 3.519531 2.6875 3.332031 2.917969 3.332031 C 5.035156 3.332031 5.414062 2.035156 5.429688 1.976562 C 5.492188 1.757812 5.71875 1.625 5.9375 1.683594 C 6.160156 1.742188 6.292969 1.964844 6.238281 2.183594 C 6.21875 2.265625 5.710938 4.167969 2.917969 4.167969 Z M 2.917969 4.167969 "/>
<path style=" stroke:none;fill-rule:nonzero;fill:rgb(80%,83.921569%,86.666667%);fill-opacity:1;" d="M 7.5 9.582031 C 9.167969 9.582031 10 10.417969 10 10.417969 L 5 10.417969 C 5 10.417969 5.832031 9.582031 7.5 9.582031 Z M 7.5 9.582031 "/>
<path style=" stroke:none;fill-rule:nonzero;fill:rgb(40%,27.058824%,0%);fill-opacity:1;" d="M 2.5 7.917969 C 2.375 7.917969 2.25 7.859375 2.167969 7.75 C 2.027344 7.566406 2.066406 7.304688 2.25 7.167969 C 2.308594 7.121094 3.480469 6.257812 5.105469 5.945312 C 4.074219 5.429688 2.929688 5.417969 2.917969 5.417969 C 2.6875 5.414062 2.5 5.230469 2.5 5 C 2.5 4.769531 2.6875 4.582031 2.917969 4.582031 C 3.007812 4.582031 5.1875 4.597656 6.542969 5.957031 C 6.664062 6.074219 6.699219 6.253906 6.636719 6.410156 C 6.570312 6.566406 6.417969 6.667969 6.25 6.667969 C 4.328125 6.667969 2.765625 7.820312 2.75 7.832031 C 2.675781 7.890625 2.585938 7.917969 2.5 7.917969 Z M 12.5 7.917969 C 12.414062 7.917969 12.324219 7.890625 12.25 7.832031 C 12.234375 7.820312 10.664062 6.667969 8.75 6.667969 C 8.582031 6.667969 8.429688 6.566406 8.363281 6.410156 C 8.300781 6.253906 8.335938 6.074219 8.457031 5.957031 C 9.8125 4.597656 11.992188 4.582031 12.082031 4.582031 C 12.3125 4.582031 12.5 4.769531 12.5 5 C 12.5 5.230469 12.3125 5.414062 12.085938 5.417969 C 12.070312 5.417969 10.925781 5.429688 9.894531 5.945312 C 11.519531 6.257812 12.691406 7.121094 12.75 7.167969 C 12.933594 7.304688 12.972656 7.566406 12.832031 7.75 C 12.75 7.859375 12.625 7.917969 12.5 7.917969 Z M 12.5 7.917969 "/>
</g>
</svg>
