<?xml version="1.0" encoding="UTF-8"?>
<svg xmlns="http://www.w3.org/2000/svg" xmlns:xlink="http://www.w3.org/1999/xlink" width="15pt" height="15pt" viewBox="0 0 15 15" version="1.1">
<g id="surface1">
<path style=" stroke:none;fill-rule:nonzero;fill:rgb(100%,80%,30.196078%);fill-opacity:1;" d="M 15 7.5 C 15 11.640625 11.640625 15 7.5 15 C 3.359375 15 0 11.640625 0 7.5 C 0 3.359375 3.359375 0 7.5 0 C 11.640625 0 15 3.359375 15 7.5 "/>
<path style=" stroke:none;fill-rule:nonzero;fill:rgb(40%,27.058824%,0%);fill-opacity:1;" d="M 9.167969 11.25 C 9.167969 12.402344 8.421875 12.5 7.5 12.5 C 6.578125 12.5 5.832031 12.402344 5.832031 11.25 C 5.832031 10.097656 6.578125 8.75 7.5 8.75 C 8.421875 8.75 9.167969 10.097656 9.167969 11.25 Z M 12.5 6.25 C 12.449219 6.25 12.394531 6.242188 12.34375 6.21875 C 10.167969 5.347656 9.273438 4.035156 9.238281 3.980469 C 9.109375 3.789062 9.160156 3.53125 9.351562 3.402344 C 9.542969 3.277344 9.800781 3.328125 9.929688 3.515625 C 9.9375 3.527344 10.734375 4.675781 12.65625 5.445312 C 12.867188 5.53125 12.972656 5.773438 12.886719 5.988281 C 12.820312 6.152344 12.664062 6.25 12.5 6.25 Z M 2.5 6.25 C 2.335938 6.25 2.179688 6.152344 2.113281 5.988281 C 2.027344 5.773438 2.132812 5.53125 2.34375 5.445312 C 4.265625 4.679688 5.0625 3.527344 5.070312 3.515625 C 5.199219 3.328125 5.457031 3.277344 5.648438 3.40625 C 5.839844 3.535156 5.890625 3.789062 5.761719 3.980469 C 5.726562 4.035156 4.832031 5.347656 2.65625 6.21875 C 2.605469 6.242188 2.550781 6.25 2.5 6.25 Z M 2.5 6.25 "/>
<path style=" stroke:none;fill-rule:nonzero;fill:rgb(36.470588%,67.843137%,92.54902%);fill-opacity:1;" d="M 10 6.667969 L 11.667969 6.667969 L 11.667969 14.582031 L 10 14.5625 Z M 3.332031 14.582031 L 5 14.5625 L 5 6.667969 L 3.332031 6.667969 Z M 3.332031 14.582031 "/>
<path style=" stroke:none;fill-rule:nonzero;fill:rgb(40%,27.058824%,0%);fill-opacity:1;" d="M 6.25 7.5 C 6.1875 7.5 6.125 7.484375 6.0625 7.457031 C 4.601562 6.722656 3.117188 7.449219 3.101562 7.457031 C 2.898438 7.558594 2.648438 7.476562 2.542969 7.269531 C 2.441406 7.0625 2.523438 6.8125 2.730469 6.710938 C 2.804688 6.671875 4.605469 5.796875 6.4375 6.710938 C 6.640625 6.8125 6.726562 7.0625 6.621094 7.269531 C 6.550781 7.414062 6.402344 7.5 6.25 7.5 Z M 12.082031 7.5 C 12.019531 7.5 11.957031 7.484375 11.898438 7.457031 C 10.433594 6.722656 8.953125 7.449219 8.9375 7.457031 C 8.730469 7.558594 8.480469 7.476562 8.378906 7.269531 C 8.273438 7.0625 8.359375 6.8125 8.5625 6.710938 C 8.640625 6.671875 10.4375 5.796875 12.269531 6.710938 C 12.476562 6.8125 12.558594 7.0625 12.457031 7.269531 C 12.382812 7.414062 12.234375 7.5 12.082031 7.5 Z M 12.082031 7.5 "/>
<path style=" stroke:none;fill-rule:nonzero;fill:rgb(36.470588%,67.843137%,92.54902%);fill-opacity:1;" d="M 15 14.167969 C 15 13.707031 11.640625 13.332031 7.5 13.332031 C 3.359375 13.332031 0 13.707031 0 14.167969 C 0 14.625 3.359375 15 7.5 15 C 11.640625 15 15 14.625 15 14.167969 Z M 15 14.167969 "/>
<path style=" stroke:none;fill-rule:nonzero;fill:rgb(90.588235%,35.294118%,43.921569%);fill-opacity:1;" d="M 8.75 11.25 C 8.75 10.789062 8.191406 10.417969 7.5 10.417969 C 6.808594 10.417969 6.25 10.789062 6.25 11.25 C 6.25 11.710938 6.808594 12.082031 7.5 12.082031 C 8.191406 12.082031 8.75 11.710938 8.75 11.25 Z M 8.75 11.25 "/>
</g>
</svg>
