<?xml version="1.0" encoding="UTF-8"?>
<svg xmlns="http://www.w3.org/2000/svg" xmlns:xlink="http://www.w3.org/1999/xlink" width="15pt" height="15pt" viewBox="0 0 15 15" version="1.1">
<g id="surface1">
<path style=" stroke:none;fill-rule:nonzero;fill:rgb(100%,80%,30.196078%);fill-opacity:1;" d="M 15 7.5 C 15 11.640625 11.640625 15 7.5 15 C 3.359375 15 0 11.640625 0 7.5 C 0 3.359375 3.359375 0 7.5 0 C 11.640625 0 15 3.359375 15 7.5 "/>
<path style=" stroke:none;fill-rule:nonzero;fill:rgb(40%,27.058824%,0%);fill-opacity:1;" d="M 9.785156 12.03125 C 9.78125 12.015625 9.308594 10.207031 7.5 10.207031 C 5.691406 10.207031 5.21875 12.015625 5.214844 12.03125 C 5.191406 12.121094 5.234375 12.210938 5.3125 12.257812 C 5.390625 12.304688 5.492188 12.296875 5.558594 12.234375 C 5.5625 12.230469 5.980469 11.875 7.5 11.875 C 8.996094 11.875 9.421875 12.222656 9.441406 12.234375 C 9.480469 12.273438 9.53125 12.292969 9.582031 12.292969 C 9.617188 12.292969 9.652344 12.28125 9.6875 12.265625 C 9.765625 12.21875 9.808594 12.125 9.785156 12.03125 Z M 6.542969 7.332031 C 6.539062 7.335938 6.015625 7.707031 5 7.707031 C 3.984375 7.707031 3.460938 7.335938 3.457031 7.332031 C 3.378906 7.273438 3.265625 7.277344 3.191406 7.347656 C 3.117188 7.417969 3.101562 7.53125 3.160156 7.617188 C 3.183594 7.652344 3.792969 8.542969 5 8.542969 C 6.207031 8.542969 6.816406 7.652344 6.839844 7.617188 C 6.894531 7.53125 6.882812 7.417969 6.808594 7.347656 C 6.738281 7.277344 6.625 7.273438 6.542969 7.332031 Z M 11.808594 7.351562 C 11.738281 7.28125 11.625 7.273438 11.542969 7.332031 C 11.539062 7.335938 11.015625 7.707031 10 7.707031 C 8.984375 7.707031 8.460938 7.335938 8.457031 7.332031 C 8.378906 7.273438 8.265625 7.277344 8.191406 7.347656 C 8.117188 7.417969 8.105469 7.53125 8.160156 7.617188 C 8.183594 7.652344 8.792969 8.542969 10 8.542969 C 11.207031 8.542969 11.816406 7.652344 11.839844 7.617188 C 11.894531 7.53125 11.882812 7.421875 11.808594 7.351562 Z M 12.917969 6.667969 C 12.789062 6.667969 12.664062 6.609375 12.582031 6.5 C 11.484375 5.03125 10.058594 5 9.996094 5 C 9.769531 4.996094 9.582031 4.808594 9.585938 4.582031 C 9.585938 4.351562 9.769531 4.167969 10 4.167969 C 10.078125 4.167969 11.890625 4.1875 13.25 6 C 13.386719 6.183594 13.351562 6.445312 13.167969 6.582031 C 13.089844 6.640625 13.003906 6.667969 12.917969 6.667969 Z M 2.082031 6.667969 C 1.996094 6.667969 1.910156 6.640625 1.832031 6.582031 C 1.648438 6.445312 1.613281 6.183594 1.75 6 C 3.109375 4.1875 4.921875 4.167969 5 4.167969 C 5.230469 4.167969 5.417969 4.351562 5.417969 4.582031 C 5.417969 4.8125 5.230469 5 5 5 C 4.9375 5 3.515625 5.035156 2.417969 6.5 C 2.335938 6.609375 2.210938 6.667969 2.082031 6.667969 Z M 2.082031 6.667969 "/>
<path style=" stroke:none;fill-rule:nonzero;fill:rgb(36.470588%,67.843137%,92.54902%);fill-opacity:1;" d="M 9.582031 9.582031 C 12.171875 9.582031 15 11.25 15 13.332031 C 15 15 13.75 15 13.75 15 C 10.417969 15 13.332031 11.25 9.582031 9.582031 Z M 9.582031 9.582031 "/>
</g>
</svg>
