<?xml version="1.0" encoding="UTF-8"?>
<svg xmlns="http://www.w3.org/2000/svg" xmlns:xlink="http://www.w3.org/1999/xlink" width="15pt" height="15pt" viewBox="0 0 15 15" version="1.1">
<g id="surface1">
<path style=" stroke:none;fill-rule:nonzero;fill:rgb(100%,80%,30.196078%);fill-opacity:1;" d="M 15 7.5 C 15 11.640625 11.640625 15 7.5 15 C 3.359375 15 0 11.640625 0 7.5 C 0 3.359375 3.359375 0 7.5 0 C 11.640625 0 15 3.359375 15 7.5 "/>
<path style=" stroke:none;fill-rule:nonzero;fill:rgb(40%,27.058824%,0%);fill-opacity:1;" d="M 5.832031 6.875 C 5.832031 6.070312 5.367188 5.417969 4.792969 5.417969 C 4.214844 5.417969 3.75 6.070312 3.75 6.875 C 3.75 7.679688 4.214844 8.332031 4.792969 8.332031 C 5.367188 8.332031 5.832031 7.679688 5.832031 6.875 Z M 5.832031 6.875 "/>
<path style=" stroke:none;fill-rule:nonzero;fill:rgb(40%,27.058824%,0%);fill-opacity:1;" d="M 11.25 6.875 C 11.25 6.070312 10.785156 5.417969 10.207031 5.417969 C 9.632812 5.417969 9.167969 6.070312 9.167969 6.875 C 9.167969 7.679688 9.632812 8.332031 10.207031 8.332031 C 10.785156 8.332031 11.25 7.679688 11.25 6.875 Z M 11.25 6.875 "/>
<path style=" stroke:none;fill-rule:nonzero;fill:rgb(40%,27.058824%,0%);fill-opacity:1;" d="M 9.785156 11.617188 C 9.78125 11.597656 9.308594 9.792969 7.5 9.792969 C 5.691406 9.792969 5.21875 11.597656 5.214844 11.617188 C 5.191406 11.703125 5.234375 11.796875 5.3125 11.84375 C 5.390625 11.890625 5.492188 11.878906 5.558594 11.816406 C 5.5625 11.816406 5.980469 11.457031 7.5 11.457031 C 8.996094 11.457031 9.421875 11.804688 9.441406 11.816406 C 9.480469 11.855469 9.53125 11.875 9.582031 11.875 C 9.617188 11.875 9.652344 11.867188 9.6875 11.847656 C 9.765625 11.800781 9.808594 11.707031 9.785156 11.617188 Z M 9.785156 11.617188 "/>
<path style=" stroke:none;fill-rule:nonzero;fill:rgb(36.470588%,67.843137%,92.54902%);fill-opacity:1;" d="M 4.167969 12.5 C 4.167969 13.652344 3.234375 14.582031 2.082031 14.582031 C 0.933594 14.582031 0 13.652344 0 12.5 C 0 11.347656 1.667969 8.332031 2.082031 8.332031 C 2.5 8.332031 4.167969 11.347656 4.167969 12.5 Z M 4.167969 12.5 "/>
<path style=" stroke:none;fill-rule:nonzero;fill:rgb(40%,27.058824%,0%);fill-opacity:1;" d="M 12.5 5.417969 C 10.1875 5.417969 9.25 3.597656 9.210938 3.519531 C 9.109375 3.3125 9.191406 3.0625 9.398438 2.960938 C 9.601562 2.859375 9.851562 2.941406 9.953125 3.144531 C 9.984375 3.207031 10.714844 4.582031 12.5 4.582031 C 12.730469 4.582031 12.917969 4.769531 12.917969 5 C 12.917969 5.230469 12.730469 5.417969 12.5 5.417969 Z M 2.5 5.417969 C 2.269531 5.417969 2.082031 5.230469 2.082031 5 C 2.082031 4.769531 2.269531 4.582031 2.5 4.582031 C 4.617188 4.582031 5 3.285156 5.015625 3.226562 C 5.074219 3.007812 5.300781 2.875 5.523438 2.933594 C 5.742188 2.992188 5.875 3.214844 5.820312 3.433594 C 5.800781 3.515625 5.292969 5.417969 2.5 5.417969 Z M 2.5 5.417969 "/>
</g>
</svg>
