<?xml version="1.0" encoding="UTF-8"?>
<svg xmlns="http://www.w3.org/2000/svg" xmlns:xlink="http://www.w3.org/1999/xlink" width="15pt" height="15pt" viewBox="0 0 15 15" version="1.1">
<g id="surface1">
<path style=" stroke:none;fill-rule:nonzero;fill:rgb(100%,80%,30.196078%);fill-opacity:1;" d="M 15 7.5 C 15 11.640625 11.640625 15 7.5 15 C 3.359375 15 0 11.640625 0 7.5 C 0 3.359375 3.359375 0 7.5 0 C 11.640625 0 15 3.359375 15 7.5 "/>
<path style=" stroke:none;fill-rule:nonzero;fill:rgb(40%,27.058824%,0%);fill-opacity:1;" d="M 9.167969 10.417969 C 9.167969 9.265625 8.421875 8.332031 7.5 8.332031 C 6.578125 8.332031 5.832031 9.265625 5.832031 10.417969 C 5.832031 11.566406 6.578125 12.5 7.5 12.5 C 8.421875 12.5 9.167969 11.566406 9.167969 10.417969 Z M 9.167969 10.417969 "/>
<path style=" stroke:none;fill-rule:nonzero;fill:rgb(40%,27.058824%,0%);fill-opacity:1;" d="M 6.042969 5.625 C 6.042969 4.820312 5.574219 4.167969 5 4.167969 C 4.425781 4.167969 3.957031 4.820312 3.957031 5.625 C 3.957031 6.429688 4.425781 7.082031 5 7.082031 C 5.574219 7.082031 6.042969 6.429688 6.042969 5.625 Z M 6.042969 5.625 "/>
<path style=" stroke:none;fill-rule:nonzero;fill:rgb(40%,27.058824%,0%);fill-opacity:1;" d="M 11.042969 5.625 C 11.042969 4.820312 10.574219 4.167969 10 4.167969 C 9.425781 4.167969 8.957031 4.820312 8.957031 5.625 C 8.957031 6.429688 9.425781 7.082031 10 7.082031 C 10.574219 7.082031 11.042969 6.429688 11.042969 5.625 Z M 11.042969 5.625 "/>
</g>
</svg>
