<?xml version="1.0" encoding="UTF-8"?>
<svg xmlns="http://www.w3.org/2000/svg" xmlns:xlink="http://www.w3.org/1999/xlink" width="15pt" height="15pt" viewBox="0 0 15 15" version="1.1">
<g id="surface1">
<path style=" stroke:none;fill-rule:nonzero;fill:rgb(100%,80%,30.196078%);fill-opacity:1;" d="M 15 7.5 C 15 11.640625 11.640625 15 7.5 15 C 3.359375 15 0 11.640625 0 7.5 C 0 3.359375 3.359375 0 7.5 0 C 11.640625 0 15 3.359375 15 7.5 "/>
<path style=" stroke:none;fill-rule:nonzero;fill:rgb(40%,27.058824%,0%);fill-opacity:1;" d="M 10.617188 12.449219 C 10.601562 12.375 10.132812 10.625 7.5 10.625 C 4.867188 10.625 4.398438 12.375 4.382812 12.449219 C 4.359375 12.539062 4.398438 12.632812 4.480469 12.679688 C 4.5625 12.726562 4.664062 12.714844 4.730469 12.648438 C 4.738281 12.640625 5.542969 11.875 7.5 11.875 C 9.457031 11.875 10.261719 12.640625 10.269531 12.648438 C 10.308594 12.6875 10.363281 12.707031 10.417969 12.707031 C 10.453125 12.707031 10.488281 12.699219 10.519531 12.683594 C 10.601562 12.636719 10.640625 12.539062 10.617188 12.449219 Z M 6.542969 7.207031 C 5.1875 5.847656 3.007812 5.832031 2.917969 5.832031 C 2.6875 5.832031 2.5 6.019531 2.5 6.25 C 2.5 6.480469 2.6875 6.664062 2.917969 6.667969 C 2.929688 6.667969 3.71875 6.675781 4.574219 6.972656 C 4.328125 7.242188 4.167969 7.65625 4.167969 8.125 C 4.167969 8.929688 4.632812 9.582031 5.207031 9.582031 C 5.785156 9.582031 6.25 8.929688 6.25 8.125 C 6.25 8.050781 6.242188 7.984375 6.234375 7.914062 C 6.238281 7.914062 6.246094 7.917969 6.25 7.917969 C 6.355469 7.917969 6.464844 7.875 6.542969 7.792969 C 6.707031 7.632812 6.707031 7.367188 6.542969 7.207031 Z M 12.082031 5.832031 C 11.992188 5.832031 9.8125 5.847656 8.457031 7.207031 C 8.292969 7.367188 8.292969 7.632812 8.457031 7.792969 C 8.535156 7.875 8.644531 7.917969 8.75 7.917969 C 8.753906 7.917969 8.761719 7.914062 8.765625 7.914062 C 8.757812 7.984375 8.75 8.050781 8.75 8.125 C 8.75 8.929688 9.214844 9.582031 9.792969 9.582031 C 10.367188 9.582031 10.832031 8.929688 10.832031 8.125 C 10.832031 7.65625 10.671875 7.242188 10.425781 6.972656 C 11.28125 6.675781 12.070312 6.667969 12.085938 6.667969 C 12.3125 6.664062 12.5 6.480469 12.5 6.25 C 12.5 6.019531 12.3125 5.832031 12.082031 5.832031 Z M 12.082031 5.832031 "/>
</g>
</svg>
