<?xml version="1.0" encoding="UTF-8"?>
<svg xmlns="http://www.w3.org/2000/svg" xmlns:xlink="http://www.w3.org/1999/xlink" width="15pt" height="15pt" viewBox="0 0 15 15" version="1.1">
<g id="surface1">
<path style=" stroke:none;fill-rule:nonzero;fill:rgb(100%,80%,30.196078%);fill-opacity:1;" d="M 15 7.5 C 15 11.640625 11.640625 15 7.5 15 C 3.359375 15 0 11.640625 0 7.5 C 0 3.359375 3.359375 0 7.5 0 C 11.640625 0 15 3.359375 15 7.5 "/>
<path style=" stroke:none;fill-rule:nonzero;fill:rgb(40%,27.058824%,0%);fill-opacity:1;" d="M 5.832031 6.875 C 5.832031 6.070312 5.367188 5.417969 4.792969 5.417969 C 4.214844 5.417969 3.75 6.070312 3.75 6.875 C 3.75 7.679688 4.214844 8.332031 4.792969 8.332031 C 5.367188 8.332031 5.832031 7.679688 5.832031 6.875 Z M 5.832031 6.875 "/>
<path style=" stroke:none;fill-rule:nonzero;fill:rgb(40%,27.058824%,0%);fill-opacity:1;" d="M 11.25 6.875 C 11.25 6.070312 10.785156 5.417969 10.207031 5.417969 C 9.632812 5.417969 9.167969 6.070312 9.167969 6.875 C 9.167969 7.679688 9.632812 8.332031 10.207031 8.332031 C 10.785156 8.332031 11.25 7.679688 11.25 6.875 Z M 11.25 6.875 "/>
<path style=" stroke:none;fill-rule:nonzero;fill:rgb(40%,27.058824%,0%);fill-opacity:1;" d="M 9.785156 11.617188 C 9.78125 11.597656 9.308594 9.792969 7.5 9.792969 C 5.691406 9.792969 5.21875 11.597656 5.214844 11.617188 C 5.191406 11.703125 5.234375 11.796875 5.3125 11.84375 C 5.390625 11.890625 5.492188 11.878906 5.558594 11.816406 C 5.5625 11.816406 5.980469 11.457031 7.5 11.457031 C 8.996094 11.457031 9.421875 11.804688 9.441406 11.816406 C 9.480469 11.855469 9.53125 11.875 9.582031 11.875 C 9.617188 11.875 9.652344 11.867188 9.6875 11.847656 C 9.765625 11.800781 9.808594 11.707031 9.785156 11.617188 Z M 9.785156 11.617188 "/>
</g>
</svg>
