<?xml version="1.0" encoding="UTF-8"?>
<svg xmlns="http://www.w3.org/2000/svg" xmlns:xlink="http://www.w3.org/1999/xlink" width="15pt" height="15pt" viewBox="0 0 15 15" version="1.1">
<g id="surface1">
<path style=" stroke:none;fill-rule:nonzero;fill:rgb(100%,80%,30.196078%);fill-opacity:1;" d="M 15 7.5 C 15 11.640625 11.640625 15 7.5 15 C 3.359375 15 0 11.640625 0 7.5 C 0 3.359375 3.359375 0 7.5 0 C 11.640625 0 15 3.359375 15 7.5 "/>
<path style=" stroke:none;fill-rule:nonzero;fill:rgb(40%,27.058824%,0%);fill-opacity:1;" d="M 6.042969 5.625 C 6.042969 4.820312 5.574219 4.167969 5 4.167969 C 4.425781 4.167969 3.957031 4.820312 3.957031 5.625 C 3.957031 6.429688 4.425781 7.082031 5 7.082031 C 5.574219 7.082031 6.042969 6.429688 6.042969 5.625 Z M 6.042969 5.625 "/>
<path style=" stroke:none;fill-rule:nonzero;fill:rgb(40%,27.058824%,0%);fill-opacity:1;" d="M 11.042969 5.625 C 11.042969 4.820312 10.574219 4.167969 10 4.167969 C 9.425781 4.167969 8.957031 4.820312 8.957031 5.625 C 8.957031 6.429688 9.425781 7.082031 10 7.082031 C 10.574219 7.082031 11.042969 6.429688 11.042969 5.625 Z M 11.042969 5.625 "/>
<path style=" stroke:none;fill-rule:nonzero;fill:rgb(100%,100%,100%);fill-opacity:1;" d="M 10.417969 8.75 C 11.335938 8.75 12.082031 9.496094 12.082031 10.417969 C 12.082031 11.335938 11.335938 12.082031 10.417969 12.082031 L 4.582031 12.082031 C 3.664062 12.082031 2.917969 11.335938 2.917969 10.417969 C 2.917969 9.496094 3.664062 8.75 4.582031 8.75 Z M 10.417969 8.75 "/>
<path style=" stroke:none;fill-rule:nonzero;fill:rgb(40%,27.058824%,0%);fill-opacity:1;" d="M 10.417969 8.332031 L 4.582031 8.332031 C 3.433594 8.332031 2.5 9.269531 2.5 10.417969 C 2.5 11.566406 3.433594 12.5 4.582031 12.5 L 10.417969 12.5 C 11.566406 12.5 12.5 11.566406 12.5 10.417969 C 12.5 9.269531 11.566406 8.332031 10.417969 8.332031 Z M 10.417969 9.167969 C 11.035156 9.167969 11.546875 9.617188 11.644531 10.207031 L 10.207031 10.207031 L 10.207031 9.167969 Z M 9.792969 9.167969 L 9.792969 10.207031 L 8.542969 10.207031 L 8.542969 9.167969 Z M 8.125 9.167969 L 8.125 10.207031 L 6.875 10.207031 L 6.875 9.167969 Z M 6.457031 9.167969 L 6.457031 10.207031 L 5.207031 10.207031 L 5.207031 9.167969 Z M 4.582031 9.167969 L 4.792969 9.167969 L 4.792969 10.207031 L 3.355469 10.207031 C 3.453125 9.617188 3.964844 9.167969 4.582031 9.167969 Z M 4.582031 11.667969 C 3.964844 11.667969 3.453125 11.214844 3.355469 10.625 L 4.792969 10.625 L 4.792969 11.667969 Z M 5.207031 11.667969 L 5.207031 10.625 L 6.457031 10.625 L 6.457031 11.667969 Z M 6.875 11.667969 L 6.875 10.625 L 8.125 10.625 L 8.125 11.667969 Z M 8.542969 11.667969 L 8.542969 10.625 L 9.792969 10.625 L 9.792969 11.667969 Z M 10.417969 11.667969 L 10.207031 11.667969 L 10.207031 10.625 L 11.644531 10.625 C 11.546875 11.214844 11.035156 11.667969 10.417969 11.667969 Z M 10.417969 11.667969 "/>
</g>
</svg>
