<?xml version="1.0" encoding="UTF-8"?>
<svg xmlns="http://www.w3.org/2000/svg" xmlns:xlink="http://www.w3.org/1999/xlink" width="15pt" height="15pt" viewBox="0 0 15 15" version="1.1">
<g id="surface1">
<path style=" stroke:none;fill-rule:nonzero;fill:rgb(100%,80%,30.196078%);fill-opacity:1;" d="M 15 7.5 C 15 11.640625 11.640625 15 7.5 15 C 3.359375 15 0 11.640625 0 7.5 C 0 3.359375 3.359375 0 7.5 0 C 11.640625 0 15 3.359375 15 7.5 "/>
<path style=" stroke:none;fill-rule:nonzero;fill:rgb(40%,27.058824%,0%);fill-opacity:1;" d="M 2.917969 6.25 C 2.78125 6.25 2.652344 6.183594 2.570312 6.066406 C 2.441406 5.871094 2.496094 5.613281 2.683594 5.488281 C 2.742188 5.449219 4.0625 4.582031 5.832031 4.582031 C 6.0625 4.582031 6.25 4.769531 6.25 5 C 6.25 5.230469 6.0625 5.417969 5.832031 5.417969 C 4.308594 5.417969 3.160156 6.171875 3.148438 6.179688 C 3.078125 6.226562 2.996094 6.25 2.917969 6.25 Z M 12.082031 6.25 C 12.003906 6.25 11.921875 6.226562 11.851562 6.179688 C 11.839844 6.171875 10.679688 5.417969 9.167969 5.417969 C 8.9375 5.417969 8.75 5.230469 8.75 5 C 8.75 4.769531 8.9375 4.582031 9.167969 4.582031 C 10.9375 4.582031 12.257812 5.449219 12.316406 5.488281 C 12.507812 5.613281 12.558594 5.871094 12.429688 6.066406 C 12.351562 6.183594 12.21875 6.25 12.082031 6.25 Z M 12.082031 6.25 "/>
<path style=" stroke:none;fill-rule:nonzero;fill:rgb(96.078431%,97.254902%,98.039216%);fill-opacity:1;" d="M 11.25 9.203125 L 15 7.5 C 15 7.226562 14.984375 6.953125 14.953125 6.6875 L 11.25 8.371094 L 11.25 7.917969 C 11.25 7.457031 10.875 7.082031 10.417969 7.082031 L 4.582031 7.082031 C 4.125 7.082031 3.75 7.457031 3.75 7.917969 L 3.75 8.371094 L 0.046875 6.6875 C 0.015625 6.953125 0 7.226562 0 7.5 L 3.75 9.203125 L 3.75 11.097656 L 0.644531 10.535156 C 0.785156 10.855469 0.953125 11.160156 1.136719 11.457031 L 3.75 11.933594 L 3.75 12.5 C 3.75 12.960938 4.125 13.332031 4.582031 13.332031 L 10.417969 13.332031 C 10.875 13.332031 11.25 12.960938 11.25 12.5 L 11.25 11.933594 L 13.863281 11.457031 C 14.046875 11.160156 14.214844 10.855469 14.355469 10.535156 L 11.25 11.097656 Z M 11.25 9.203125 "/>
</g>
</svg>
