<?xml version="1.0" encoding="UTF-8"?>
<svg xmlns="http://www.w3.org/2000/svg" xmlns:xlink="http://www.w3.org/1999/xlink" width="15pt" height="15pt" viewBox="0 0 15 15" version="1.1">
<g id="surface1">
<path style=" stroke:none;fill-rule:nonzero;fill:rgb(100%,80%,30.196078%);fill-opacity:1;" d="M 15 7.5 C 15 11.640625 11.640625 15 7.5 15 C 3.359375 15 0 11.640625 0 7.5 C 0 3.359375 3.359375 0 7.5 0 C 11.640625 0 15 3.359375 15 7.5 "/>
<path style=" stroke:none;fill-rule:nonzero;fill:rgb(40%,27.058824%,0%);fill-opacity:1;" d="M 9.582031 11.25 C 9.582031 9.871094 8.652344 8.75 7.5 8.75 C 6.347656 8.75 5.417969 9.871094 5.417969 11.25 C 5.417969 12.628906 6.347656 13.75 7.5 13.75 C 8.652344 13.75 9.582031 12.628906 9.582031 11.25 Z M 9.582031 11.25 "/>
<path style=" stroke:none;fill-rule:nonzero;fill:rgb(40%,27.058824%,0%);fill-opacity:1;" d="M 2.5 4.582031 C 2.414062 4.582031 2.324219 4.554688 2.25 4.5 C 2.066406 4.363281 2.027344 4.101562 2.167969 3.917969 C 3.527344 2.105469 5.339844 2.082031 5.417969 2.082031 C 5.648438 2.082031 5.832031 2.269531 5.832031 2.5 C 5.832031 2.730469 5.648438 2.914062 5.417969 2.917969 C 5.355469 2.917969 3.933594 2.953125 2.832031 4.417969 C 2.75 4.527344 2.625 4.582031 2.5 4.582031 Z M 12.5 4.582031 C 12.375 4.582031 12.25 4.527344 12.167969 4.417969 C 11.066406 2.949219 9.640625 2.917969 9.582031 2.917969 C 9.351562 2.914062 9.167969 2.726562 9.167969 2.496094 C 9.167969 2.269531 9.355469 2.082031 9.582031 2.082031 C 9.660156 2.082031 11.472656 2.105469 12.832031 3.917969 C 12.972656 4.101562 12.933594 4.363281 12.75 4.5 C 12.675781 4.554688 12.585938 4.582031 12.5 4.582031 Z M 5.796875 6.457031 L 6.542969 5.710938 C 6.707031 5.546875 6.707031 5.285156 6.542969 5.121094 C 6.382812 4.960938 6.117188 4.960938 5.957031 5.121094 L 5.207031 5.871094 L 4.460938 5.121094 C 4.296875 4.960938 4.035156 4.960938 3.871094 5.121094 C 3.710938 5.285156 3.710938 5.546875 3.871094 5.710938 L 4.621094 6.457031 L 3.871094 7.207031 C 3.710938 7.367188 3.710938 7.632812 3.871094 7.792969 C 3.953125 7.875 4.058594 7.917969 4.167969 7.917969 C 4.273438 7.917969 4.378906 7.875 4.460938 7.792969 L 5.207031 7.046875 L 5.957031 7.792969 C 6.035156 7.875 6.144531 7.917969 6.25 7.917969 C 6.355469 7.917969 6.464844 7.875 6.542969 7.792969 C 6.707031 7.632812 6.707031 7.367188 6.542969 7.207031 Z M 10.378906 6.457031 L 11.128906 5.710938 C 11.289062 5.546875 11.289062 5.285156 11.128906 5.121094 C 10.964844 4.960938 10.703125 4.960938 10.539062 5.121094 L 9.792969 5.871094 L 9.042969 5.121094 C 8.882812 4.960938 8.617188 4.960938 8.457031 5.121094 C 8.292969 5.285156 8.292969 5.546875 8.457031 5.710938 L 9.203125 6.457031 L 8.457031 7.207031 C 8.292969 7.367188 8.292969 7.632812 8.457031 7.792969 C 8.535156 7.875 8.644531 7.917969 8.75 7.917969 C 8.855469 7.917969 8.964844 7.875 9.042969 7.792969 L 9.792969 7.046875 L 10.539062 7.792969 C 10.621094 7.875 10.726562 7.917969 10.832031 7.917969 C 10.941406 7.917969 11.046875 7.875 11.128906 7.792969 C 11.289062 7.632812 11.289062 7.367188 11.128906 7.207031 Z M 10.378906 6.457031 "/>
</g>
</svg>
