<?xml version="1.0" encoding="UTF-8"?>
<svg xmlns="http://www.w3.org/2000/svg" xmlns:xlink="http://www.w3.org/1999/xlink" width="15pt" height="15pt" viewBox="0 0 15 15" version="1.1">
<g id="surface1">
<path style=" stroke:none;fill-rule:nonzero;fill:rgb(100%,80%,30.196078%);fill-opacity:1;" d="M 7.5 0 C 3.359375 0 0 3.359375 0 7.5 C 0 10.019531 1.25 12.246094 3.15625 13.605469 C 3.199219 10.921875 2.222656 7.917969 0.585938 7.917969 C 0.390625 7.917969 0.234375 7.945312 0.105469 7.992188 C 0.230469 7.675781 0.503906 7.5 1.015625 7.5 C 2.796875 7.5 3.792969 11.042969 3.554688 13.871094 C 4.703125 14.582031 6.050781 15 7.5 15 C 8.949219 15 10.296875 14.582031 11.445312 13.871094 C 11.207031 11.035156 12.203125 7.5 13.984375 7.5 C 14.496094 7.5 14.773438 7.675781 14.898438 7.992188 C 14.765625 7.945312 14.609375 7.917969 14.414062 7.917969 C 12.773438 7.917969 11.800781 10.917969 11.84375 13.605469 C 13.753906 12.246094 15 10.019531 15 7.5 C 15 3.359375 11.640625 0 7.5 0 Z M 7.5 0 "/>
<path style=" stroke:none;fill-rule:nonzero;fill:rgb(74.117647%,86.666667%,95.686275%);fill-opacity:1;" d="M 7.5 0 C 3.359375 0 0 3.359375 0 7.5 C 0 7.996094 0.0507812 8.480469 0.144531 8.953125 C 0.242188 8.59375 0.394531 8.246094 0.585938 7.917969 C 0.390625 7.917969 0.234375 7.945312 0.105469 7.992188 C 0.214844 7.71875 0.449219 7.554688 0.839844 7.515625 C 2.089844 5.777344 4.597656 4.582031 7.5 4.582031 C 10.402344 4.582031 12.910156 5.777344 14.160156 7.515625 C 14.554688 7.554688 14.789062 7.71875 14.898438 7.992188 C 14.765625 7.945312 14.609375 7.917969 14.417969 7.917969 C 14.605469 8.246094 14.757812 8.59375 14.855469 8.953125 C 14.949219 8.480469 15 7.996094 15 7.5 C 15 3.359375 11.640625 0 7.5 0 Z M 7.5 0 "/>
<path style=" stroke:none;fill-rule:nonzero;fill:rgb(96.078431%,97.254902%,98.039216%);fill-opacity:1;" d="M 3.0625 4.960938 C 2.667969 6.285156 3.105469 7.585938 4.042969 7.863281 C 4.976562 8.140625 6.054688 7.296875 6.449219 5.972656 C 6.84375 4.648438 6.40625 3.351562 5.46875 3.070312 C 4.535156 2.792969 3.457031 3.640625 3.0625 4.960938 Z M 11.9375 4.960938 C 12.332031 6.285156 11.894531 7.585938 10.957031 7.863281 C 10.023438 8.140625 8.945312 7.296875 8.550781 5.972656 C 8.15625 4.648438 8.59375 3.351562 9.53125 3.070312 C 10.464844 2.792969 11.542969 3.640625 11.9375 4.960938 Z M 11.9375 4.960938 "/>
<path style=" stroke:none;fill-rule:nonzero;fill:rgb(40%,27.058824%,0%);fill-opacity:1;" d="M 7.5 7.5 C 6.351562 7.5 5.417969 8.433594 5.417969 9.582031 L 5.417969 12.082031 C 5.417969 13.230469 6.351562 14.167969 7.5 14.167969 C 8.648438 14.167969 9.582031 13.230469 9.582031 12.082031 L 9.582031 9.582031 C 9.582031 8.433594 8.648438 7.5 7.5 7.5 Z M 7.5 7.5 "/>
<path style=" stroke:none;fill-rule:nonzero;fill:rgb(98.823529%,67.058824%,25.098039%);fill-opacity:1;" d="M 0.585938 7.917969 C 0.390625 7.917969 0.234375 7.945312 0.105469 7.992188 C 0.132812 7.917969 0.175781 7.851562 0.222656 7.792969 C -0.554688 8.75 1.1875 11.890625 0.339844 15 L 3.03125 15 C 3.527344 12.101562 2.519531 7.917969 0.585938 7.917969 Z M 14.898438 7.992188 C 14.765625 7.945312 14.609375 7.917969 14.414062 7.917969 C 12.480469 7.917969 11.472656 12.085938 11.96875 15 L 14.660156 15 C 13.867188 12.066406 15.347656 9.128906 14.898438 7.992188 Z M 14.898438 7.992188 "/>
</g>
</svg>
