<?xml version="1.0" encoding="UTF-8"?>
<svg xmlns="http://www.w3.org/2000/svg" xmlns:xlink="http://www.w3.org/1999/xlink" width="15pt" height="15pt" viewBox="0 0 15 15" version="1.1">
<g id="surface1">
<path style=" stroke:none;fill-rule:nonzero;fill:rgb(100%,80%,30.196078%);fill-opacity:1;" d="M 15 7.5 C 15 11.640625 11.640625 15 7.5 15 C 3.359375 15 0 11.640625 0 7.5 C 0 3.359375 3.359375 0 7.5 0 C 11.640625 0 15 3.359375 15 7.5 "/>
<path style=" stroke:none;fill-rule:nonzero;fill:rgb(100%,47.058824%,57.254902%);fill-opacity:1;" d="M 14.167969 9.582031 C 14.167969 10.734375 13.234375 11.667969 12.082031 11.667969 C 10.933594 11.667969 10 10.734375 10 9.582031 C 10 8.433594 10.933594 7.5 12.082031 7.5 C 13.234375 7.5 14.167969 8.433594 14.167969 9.582031 Z M 14.167969 9.582031 "/>
<path style=" stroke:none;fill-rule:nonzero;fill:rgb(100%,47.058824%,57.254902%);fill-opacity:1;" d="M 5 9.582031 C 5 10.734375 4.066406 11.667969 2.917969 11.667969 C 1.765625 11.667969 0.832031 10.734375 0.832031 9.582031 C 0.832031 8.433594 1.765625 7.5 2.917969 7.5 C 4.066406 7.5 5 8.433594 5 9.582031 Z M 5 9.582031 "/>
<path style=" stroke:none;fill-rule:nonzero;fill:rgb(96.078431%,97.254902%,98.039216%);fill-opacity:1;" d="M 12.5 6.875 C 12.5 8.140625 11.472656 9.167969 10.207031 9.167969 C 8.941406 9.167969 7.917969 8.140625 7.917969 6.875 C 7.917969 5.609375 8.941406 4.582031 10.207031 4.582031 C 11.472656 4.582031 12.5 5.609375 12.5 6.875 Z M 12.5 6.875 "/>
<path style=" stroke:none;fill-rule:nonzero;fill:rgb(96.078431%,97.254902%,98.039216%);fill-opacity:1;" d="M 7.082031 6.875 C 7.082031 8.140625 6.058594 9.167969 4.792969 9.167969 C 3.527344 9.167969 2.5 8.140625 2.5 6.875 C 2.5 5.609375 3.527344 4.582031 4.792969 4.582031 C 6.058594 4.582031 7.082031 5.609375 7.082031 6.875 Z M 7.082031 6.875 "/>
<path style=" stroke:none;fill-rule:nonzero;fill:rgb(40%,27.058824%,0%);fill-opacity:1;" d="M 5.832031 6.875 C 5.832031 7.449219 5.367188 7.917969 4.792969 7.917969 C 4.214844 7.917969 3.75 7.449219 3.75 6.875 C 3.75 6.300781 4.214844 5.832031 4.792969 5.832031 C 5.367188 5.832031 5.832031 6.300781 5.832031 6.875 Z M 5.832031 6.875 "/>
<path style=" stroke:none;fill-rule:nonzero;fill:rgb(40%,27.058824%,0%);fill-opacity:1;" d="M 11.25 6.875 C 11.25 7.449219 10.785156 7.917969 10.207031 7.917969 C 9.632812 7.917969 9.167969 7.449219 9.167969 6.875 C 9.167969 6.300781 9.632812 5.832031 10.207031 5.832031 C 10.785156 5.832031 11.25 6.300781 11.25 6.875 Z M 11.25 6.875 "/>
<path style=" stroke:none;fill-rule:nonzero;fill:rgb(40%,27.058824%,0%);fill-opacity:1;" d="M 9.167969 12.5 L 5.832031 12.5 C 5.601562 12.5 5.417969 12.3125 5.417969 12.082031 C 5.417969 11.851562 5.601562 11.667969 5.832031 11.667969 L 9.167969 11.667969 C 9.398438 11.667969 9.582031 11.851562 9.582031 12.082031 C 9.582031 12.3125 9.398438 12.5 9.167969 12.5 Z M 12.5 4.582031 C 12.375 4.582031 12.25 4.527344 12.167969 4.417969 C 11.066406 2.949219 9.640625 2.917969 9.582031 2.917969 C 9.351562 2.914062 9.167969 2.726562 9.167969 2.496094 C 9.167969 2.269531 9.355469 2.082031 9.582031 2.082031 C 9.660156 2.082031 11.472656 2.105469 12.832031 3.917969 C 12.972656 4.101562 12.933594 4.363281 12.75 4.5 C 12.675781 4.554688 12.585938 4.582031 12.5 4.582031 Z M 2.5 4.582031 C 2.414062 4.582031 2.324219 4.554688 2.25 4.5 C 2.066406 4.363281 2.027344 4.101562 2.167969 3.917969 C 3.527344 2.105469 5.339844 2.082031 5.417969 2.082031 C 5.648438 2.082031 5.832031 2.269531 5.832031 2.5 C 5.832031 2.730469 5.648438 2.914062 5.417969 2.917969 C 5.355469 2.917969 3.933594 2.953125 2.832031 4.417969 C 2.75 4.527344 2.625 4.582031 2.5 4.582031 Z M 2.5 4.582031 "/>
</g>
</svg>
