<?xml version="1.0" encoding="UTF-8"?>
<svg xmlns="http://www.w3.org/2000/svg" xmlns:xlink="http://www.w3.org/1999/xlink" width="15pt" height="15pt" viewBox="0 0 15 15" version="1.1">
<g id="surface1">
<path style=" stroke:none;fill-rule:nonzero;fill:rgb(100%,80%,30.196078%);fill-opacity:1;" d="M 15 7.5 C 15 11.640625 11.640625 15 7.5 15 C 3.359375 15 0 11.640625 0 7.5 C 0 3.359375 3.359375 0 7.5 0 C 11.640625 0 15 3.359375 15 7.5 Z M 15 7.5 "/>
<path style=" stroke:none;fill-rule:nonzero;fill:rgb(40%,27.058824%,0%);fill-opacity:1;" d="M 8.75 10.832031 C 8.75 11.523438 8.191406 12.082031 7.5 12.082031 C 6.808594 12.082031 6.25 11.523438 6.25 10.832031 C 6.25 10.144531 6.808594 9.582031 7.5 9.582031 C 8.191406 9.582031 8.75 10.144531 8.75 10.832031 Z M 8.75 10.832031 "/>
<path style=" stroke:none;fill-rule:nonzero;fill:rgb(40%,27.058824%,0%);fill-opacity:1;" d="M 7.214844 6.921875 C 7.140625 6.863281 7.035156 6.859375 6.960938 6.914062 C 6.953125 6.917969 6.433594 7.292969 5.417969 7.292969 C 4.398438 7.292969 3.878906 6.917969 3.875 6.917969 C 3.796875 6.859375 3.695312 6.859375 3.621094 6.921875 C 3.546875 6.980469 3.519531 7.082031 3.558594 7.167969 C 3.585938 7.222656 4.183594 8.542969 5.417969 8.542969 C 6.648438 8.542969 7.25 7.222656 7.273438 7.167969 C 7.3125 7.082031 7.285156 6.980469 7.214844 6.921875 Z M 11.378906 6.921875 C 11.308594 6.863281 11.203125 6.859375 11.125 6.914062 C 11.121094 6.917969 10.601562 7.292969 9.582031 7.292969 C 8.566406 7.292969 8.046875 6.917969 8.042969 6.917969 C 7.964844 6.859375 7.859375 6.859375 7.785156 6.921875 C 7.714844 6.980469 7.6875 7.082031 7.726562 7.167969 C 7.75 7.222656 8.351562 8.542969 9.582031 8.542969 C 10.816406 8.542969 11.414062 7.222656 11.441406 7.167969 C 11.480469 7.082031 11.453125 6.980469 11.378906 6.921875 Z M 11.378906 6.921875 "/>
<path style=" stroke:none;fill-rule:nonzero;fill:rgb(100%,67.45098%,20%);fill-opacity:1;" d="M 14.347656 5.222656 C 14.347656 5.203125 14.355469 5.191406 14.355469 5.171875 C 14.355469 4.855469 14.128906 4.675781 13.84375 4.675781 L 12.351562 4.675781 L 14.136719 2.179688 C 14.222656 2.0625 14.253906 1.992188 14.253906 1.839844 C 14.253906 1.535156 13.984375 1.488281 13.882812 1.488281 L 11.65625 1.488281 L 11.640625 1.199219 C 11.640625 1.199219 11.054688 1.546875 11.015625 1.570312 C 10.976562 1.59375 10.804688 1.726562 10.804688 1.980469 C 10.804688 2.296875 11.03125 2.476562 11.316406 2.476562 L 12.628906 2.476562 L 10.851562 4.972656 C 10.8125 5.035156 10.75 5.152344 10.75 5.28125 C 10.75 5.539062 10.960938 5.664062 11.214844 5.664062 L 13.84375 5.664062 C 13.953125 5.664062 14.058594 5.632812 14.128906 5.589844 L 14.753906 5.222656 Z M 14.347656 5.222656 "/>
<path style=" stroke:none;fill-rule:nonzero;fill:rgb(16.470588%,40.392157%,59.215686%);fill-opacity:1;" d="M 13.238281 2.117188 L 11.925781 2.117188 C 11.644531 2.117188 11.414062 1.9375 11.414062 1.625 C 11.414062 1.308594 11.644531 1.128906 11.925781 1.128906 L 14.496094 1.128906 C 14.597656 1.128906 14.863281 1.175781 14.863281 1.480469 C 14.863281 1.632812 14.832031 1.703125 14.746094 1.820312 L 12.960938 4.316406 L 14.453125 4.316406 C 14.738281 4.316406 14.964844 4.496094 14.964844 4.8125 C 14.964844 5.125 14.738281 5.304688 14.453125 5.304688 L 11.824219 5.304688 C 11.574219 5.304688 11.359375 5.179688 11.359375 4.921875 C 11.359375 4.796875 11.421875 4.679688 11.460938 4.613281 Z M 13.238281 2.117188 "/>
<path style=" stroke:none;fill-rule:nonzero;fill:rgb(100%,67.45098%,20%);fill-opacity:1;" d="M 10.371094 3.117188 C 10.371094 3.101562 10.375 3.09375 10.375 3.078125 C 10.375 2.84375 10.207031 2.707031 9.996094 2.707031 L 8.878906 2.707031 L 10.210938 0.839844 C 10.277344 0.75 10.300781 0.695312 10.300781 0.585938 C 10.300781 0.355469 10.101562 0.320312 10.023438 0.320312 L 8.355469 0.320312 L 8.34375 0.105469 C 8.34375 0.105469 7.90625 0.367188 7.875 0.382812 C 7.847656 0.402344 7.71875 0.5 7.71875 0.691406 C 7.71875 0.925781 7.890625 1.0625 8.101562 1.0625 L 9.082031 1.0625 L 7.753906 2.933594 C 7.726562 2.980469 7.679688 3.066406 7.679688 3.160156 C 7.679688 3.355469 7.835938 3.449219 8.023438 3.449219 L 9.996094 3.449219 C 10.074219 3.449219 10.15625 3.425781 10.207031 3.394531 L 10.675781 3.117188 Z M 10.371094 3.117188 "/>
<path style=" stroke:none;fill-rule:nonzero;fill:rgb(16.470588%,40.392157%,59.215686%);fill-opacity:1;" d="M 9.539062 0.792969 L 8.558594 0.792969 C 8.347656 0.792969 8.175781 0.65625 8.175781 0.421875 C 8.175781 0.1875 8.347656 0.0507812 8.558594 0.0507812 L 10.480469 0.0507812 C 10.558594 0.0507812 10.757812 0.0859375 10.757812 0.316406 C 10.757812 0.429688 10.734375 0.480469 10.667969 0.570312 L 9.335938 2.4375 L 10.453125 2.4375 C 10.664062 2.4375 10.832031 2.574219 10.832031 2.808594 C 10.832031 3.046875 10.664062 3.179688 10.453125 3.179688 L 8.480469 3.179688 C 8.292969 3.179688 8.132812 3.085938 8.132812 2.890625 C 8.132812 2.796875 8.183594 2.710938 8.210938 2.664062 Z M 9.539062 0.792969 "/>
<path style=" stroke:none;fill-rule:nonzero;fill:rgb(100%,67.45098%,20%);fill-opacity:1;" d="M 7.390625 4.34375 C 7.394531 4.332031 7.398438 4.324219 7.398438 4.3125 C 7.398438 4.109375 7.253906 3.992188 7.070312 3.992188 L 6.113281 3.992188 L 7.257812 2.394531 C 7.3125 2.316406 7.332031 2.273438 7.332031 2.175781 C 7.332031 1.980469 7.160156 1.949219 7.097656 1.949219 L 5.667969 1.949219 L 5.660156 1.765625 L 5.257812 2.003906 C 5.234375 2.019531 5.125 2.101562 5.125 2.269531 C 5.125 2.46875 5.269531 2.585938 5.449219 2.585938 L 6.292969 2.585938 L 5.152344 4.183594 C 5.128906 4.226562 5.089844 4.300781 5.089844 4.382812 C 5.089844 4.546875 5.222656 4.628906 5.386719 4.628906 L 7.070312 4.628906 C 7.140625 4.628906 7.207031 4.609375 7.253906 4.582031 L 7.652344 4.34375 Z M 7.390625 4.34375 "/>
<path style=" stroke:none;fill-rule:nonzero;fill:rgb(16.470588%,40.392157%,59.215686%);fill-opacity:1;" d="M 6.683594 2.355469 L 5.839844 2.355469 C 5.660156 2.355469 5.515625 2.238281 5.515625 2.039062 C 5.515625 1.835938 5.660156 1.722656 5.839844 1.722656 L 7.488281 1.722656 C 7.554688 1.722656 7.722656 1.75 7.722656 1.949219 C 7.722656 2.042969 7.703125 2.089844 7.648438 2.164062 L 6.503906 3.765625 L 7.460938 3.765625 C 7.644531 3.765625 7.789062 3.878906 7.789062 4.082031 C 7.789062 4.28125 7.644531 4.398438 7.460938 4.398438 L 5.777344 4.398438 C 5.613281 4.398438 5.480469 4.316406 5.480469 4.152344 C 5.480469 4.070312 5.519531 3.996094 5.542969 3.953125 Z M 6.683594 2.355469 "/>
</g>
</svg>
