<?xml version="1.0" encoding="UTF-8"?>
<svg xmlns="http://www.w3.org/2000/svg" xmlns:xlink="http://www.w3.org/1999/xlink" width="15pt" height="15pt" viewBox="0 0 15 15" version="1.1">
<g id="surface1">
<path style=" stroke:none;fill-rule:nonzero;fill:rgb(100%,80%,30.196078%);fill-opacity:1;" d="M 14.890625 8.304688 C 14.738281 6.941406 14.582031 6.25 14.167969 5.417969 C 14.167969 5.417969 15.417969 1.667969 14.582031 0.125 C 14.300781 -0.394531 11.5 0.828125 10.417969 1.667969 C 10.417969 1.667969 8.75 1.25 7.5 1.25 C 6.25 1.25 4.582031 1.667969 4.582031 1.667969 C 3.5 0.828125 0.699219 -0.394531 0.417969 0.125 C -0.417969 1.667969 0.832031 5.417969 0.832031 5.417969 C 0.417969 6.25 0.261719 6.941406 0.109375 8.304688 C -0.0546875 9.796875 0.273438 10.988281 0.417969 11.25 C 0.578125 11.546875 1.402344 12.511719 2.5 13.332031 C 4.167969 14.582031 6.667969 15 7.5 15 C 8.332031 15 10.832031 14.582031 12.5 13.332031 C 13.597656 12.511719 14.421875 11.546875 14.582031 11.25 C 14.726562 10.988281 15.054688 9.796875 14.890625 8.304688 Z M 14.890625 8.304688 "/>
<path style=" stroke:none;fill-rule:nonzero;fill:rgb(90.588235%,35.294118%,43.921569%);fill-opacity:1;" d="M 7.5 8.125 C 8.75 8.125 8.75 8.332031 8.75 8.75 C 8.75 9.167969 8.125 10 7.5 10 C 6.875 10 6.25 9.167969 6.25 8.75 C 6.25 8.332031 6.25 8.125 7.5 8.125 Z M 7.5 8.125 "/>
<path style=" stroke:none;fill-rule:nonzero;fill:rgb(94.509804%,56.078431%,14.901961%);fill-opacity:1;" d="M 0.832031 1.25 C 1.019531 0.691406 3.183594 1.667969 3.601562 2.082031 C 3.601562 2.082031 1.667969 3.332031 1.25 4.582031 C 1.25 4.582031 0.417969 2.5 0.832031 1.25 Z M 14.167969 1.25 C 13.980469 0.691406 11.816406 1.667969 11.398438 2.082031 C 11.398438 2.082031 13.332031 3.332031 13.75 4.582031 C 13.75 4.582031 14.582031 2.5 14.167969 1.25 Z M 14.167969 1.25 "/>
<path style=" stroke:none;fill-rule:nonzero;fill:rgb(100%,80%,30.196078%);fill-opacity:1;" d="M 2.054688 2.335938 C 2.054688 1.746094 4.582031 2.917969 4.167969 3.332031 C 3.75 3.75 3.332031 4 2.917969 4.417969 C 2.5 4.835938 2.054688 2.75 2.054688 2.335938 Z M 12.945312 2.335938 C 12.945312 1.746094 10.417969 2.917969 10.832031 3.332031 C 11.25 3.75 11.667969 4 12.082031 4.417969 C 12.5 4.835938 12.945312 2.75 12.945312 2.335938 Z M 12.945312 2.335938 "/>
<path style=" stroke:none;fill-rule:nonzero;fill:rgb(99.607843%,90.588235%,72.156863%);fill-opacity:1;" d="M 0.292969 10.417969 C 0.230469 10.417969 0.167969 10.390625 0.128906 10.335938 C 0.0585938 10.246094 0.0742188 10.117188 0.164062 10.046875 C 0.230469 9.992188 1.839844 8.746094 4.597656 8.960938 C 4.714844 8.96875 4.800781 9.066406 4.792969 9.183594 C 4.78125 9.296875 4.683594 9.390625 4.566406 9.375 C 1.96875 9.175781 0.4375 10.359375 0.421875 10.371094 C 0.382812 10.402344 0.335938 10.417969 0.292969 10.417969 Z M 3.988281 8.472656 C 3.964844 8.472656 3.945312 8.472656 3.925781 8.464844 C 1.929688 7.839844 0.285156 8.320312 0.269531 8.324219 C 0.15625 8.359375 0.0429688 8.296875 0.0078125 8.183594 C -0.0234375 8.074219 0.0390625 7.957031 0.148438 7.925781 C 0.21875 7.902344 1.933594 7.40625 4.046875 8.066406 C 4.160156 8.101562 4.21875 8.21875 4.183594 8.328125 C 4.15625 8.417969 4.074219 8.472656 3.988281 8.472656 Z M 14.707031 10.417969 C 14.769531 10.417969 14.832031 10.390625 14.871094 10.335938 C 14.941406 10.246094 14.925781 10.117188 14.835938 10.046875 C 14.769531 9.992188 13.160156 8.746094 10.402344 8.960938 C 10.285156 8.96875 10.199219 9.066406 10.207031 9.183594 C 10.21875 9.296875 10.316406 9.390625 10.433594 9.375 C 13.03125 9.175781 14.5625 10.359375 14.578125 10.371094 C 14.617188 10.402344 14.664062 10.417969 14.707031 10.417969 Z M 11.011719 8.472656 C 11.035156 8.472656 11.054688 8.472656 11.074219 8.464844 C 13.070312 7.839844 14.714844 8.320312 14.730469 8.324219 C 14.84375 8.359375 14.957031 8.296875 14.992188 8.183594 C 15.023438 8.074219 14.960938 7.957031 14.851562 7.925781 C 14.78125 7.902344 13.066406 7.40625 10.953125 8.066406 C 10.839844 8.101562 10.78125 8.21875 10.816406 8.328125 C 10.839844 8.417969 10.925781 8.472656 11.011719 8.472656 Z M 11.011719 8.472656 "/>
<path style=" stroke:none;fill-rule:nonzero;fill:rgb(16.078431%,18.431373%,20%);fill-opacity:1;" d="M 9.113281 12.5 C 9.667969 12.328125 10.207031 12.019531 10.207031 11.457031 C 10.207031 10.367188 8.160156 10.222656 7.929688 10.207031 C 7.8125 10.195312 7.714844 10.289062 7.707031 10.402344 C 7.703125 10.519531 7.789062 10.617188 7.902344 10.625 C 7.917969 10.625 9.375 10.75 9.375 11.457031 C 9.375 12.167969 7.917969 12.292969 7.902344 12.292969 C 7.898438 12.292969 7.894531 12.292969 7.890625 12.296875 C 7.839844 12.296875 7.796875 12.320312 7.761719 12.359375 C 7.761719 12.363281 7.757812 12.367188 7.753906 12.371094 C 7.742188 12.386719 7.734375 12.402344 7.726562 12.421875 C 7.722656 12.433594 7.71875 12.445312 7.714844 12.457031 C 7.714844 12.46875 7.710938 12.476562 7.707031 12.488281 C 7.707031 12.492188 7.710938 12.496094 7.710938 12.5 C 7.710938 12.503906 7.707031 12.507812 7.707031 12.511719 C 7.710938 12.523438 7.714844 12.53125 7.714844 12.542969 C 7.71875 12.554688 7.722656 12.566406 7.726562 12.578125 C 7.730469 12.589844 7.738281 12.601562 7.746094 12.613281 C 7.753906 12.625 7.757812 12.632812 7.769531 12.644531 C 7.777344 12.652344 7.789062 12.660156 7.800781 12.667969 C 7.8125 12.675781 7.820312 12.683594 7.832031 12.6875 C 7.84375 12.695312 7.859375 12.695312 7.875 12.699219 C 7.882812 12.703125 7.890625 12.707031 7.902344 12.707031 C 7.917969 12.707031 9.375 12.832031 9.375 13.542969 C 9.375 14.25 7.917969 14.375 7.902344 14.375 C 7.789062 14.382812 7.703125 14.484375 7.707031 14.597656 C 7.714844 14.707031 7.808594 14.792969 7.917969 14.792969 L 7.929688 14.792969 C 8.160156 14.777344 10.207031 14.632812 10.207031 13.542969 C 10.207031 12.980469 9.667969 12.671875 9.113281 12.5 Z M 11.839844 7.382812 C 11.816406 7.347656 11.207031 6.457031 10 6.457031 C 8.792969 6.457031 8.183594 7.347656 8.160156 7.382812 C 8.105469 7.46875 8.117188 7.582031 8.191406 7.652344 C 8.261719 7.71875 8.375 7.726562 8.457031 7.667969 C 8.460938 7.664062 8.984375 7.292969 10 7.292969 C 11.011719 7.292969 11.53125 7.660156 11.542969 7.667969 C 11.578125 7.695312 11.625 7.707031 11.667969 7.707031 C 11.71875 7.707031 11.769531 7.6875 11.808594 7.652344 C 11.882812 7.582031 11.894531 7.46875 11.839844 7.382812 Z M 6.839844 7.382812 C 6.816406 7.347656 6.207031 6.457031 5 6.457031 C 3.792969 6.457031 3.183594 7.347656 3.160156 7.382812 C 3.105469 7.46875 3.117188 7.582031 3.191406 7.652344 C 3.261719 7.71875 3.375 7.726562 3.457031 7.667969 C 3.460938 7.664062 3.984375 7.292969 5 7.292969 C 6.011719 7.292969 6.53125 7.660156 6.542969 7.667969 C 6.578125 7.695312 6.625 7.707031 6.667969 7.707031 C 6.71875 7.707031 6.769531 7.6875 6.808594 7.652344 C 6.882812 7.582031 6.894531 7.46875 6.839844 7.382812 Z M 12.917969 6.667969 C 12.789062 6.667969 12.664062 6.609375 12.582031 6.5 C 11.484375 5.03125 10.058594 5 9.996094 5 C 9.769531 4.996094 9.582031 4.808594 9.585938 4.582031 C 9.585938 4.351562 9.769531 4.167969 10 4.167969 C 10.078125 4.167969 11.890625 4.1875 13.25 6 C 13.386719 6.183594 13.351562 6.445312 13.167969 6.582031 C 13.089844 6.640625 13.003906 6.667969 12.917969 6.667969 Z M 2.082031 6.667969 C 1.996094 6.667969 1.910156 6.640625 1.832031 6.582031 C 1.648438 6.445312 1.613281 6.183594 1.75 6 C 3.109375 4.1875 4.921875 4.167969 5 4.167969 C 5.230469 4.167969 5.417969 4.351562 5.417969 4.582031 C 5.417969 4.8125 5.230469 5 5 5 C 4.9375 5 3.515625 5.035156 2.417969 6.5 C 2.335938 6.609375 2.210938 6.667969 2.082031 6.667969 Z M 2.082031 6.667969 "/>
</g>
</svg>
