<?xml version="1.0" encoding="UTF-8"?>
<svg xmlns="http://www.w3.org/2000/svg" xmlns:xlink="http://www.w3.org/1999/xlink" width="15pt" height="15pt" viewBox="0 0 15 15" version="1.1">
<g id="surface1">
<path style=" stroke:none;fill-rule:nonzero;fill:rgb(100%,80%,30.196078%);fill-opacity:1;" d="M 14.890625 8.304688 C 14.738281 6.941406 14.582031 6.25 14.167969 5.417969 C 14.167969 5.417969 15.417969 1.667969 14.582031 0.125 C 14.300781 -0.394531 11.5 0.828125 10.417969 1.667969 C 10.417969 1.667969 8.75 1.25 7.5 1.25 C 6.25 1.25 4.582031 1.667969 4.582031 1.667969 C 3.5 0.828125 0.699219 -0.394531 0.417969 0.125 C -0.417969 1.667969 0.832031 5.417969 0.832031 5.417969 C 0.417969 6.25 0.261719 6.941406 0.109375 8.304688 C -0.0546875 9.796875 0.273438 10.988281 0.417969 11.25 C 0.578125 11.546875 1.402344 12.511719 2.5 13.332031 C 4.167969 14.582031 6.667969 15 7.5 15 C 8.332031 15 10.832031 14.582031 12.5 13.332031 C 13.597656 12.511719 14.421875 11.546875 14.582031 11.25 C 14.726562 10.988281 15.054688 9.796875 14.890625 8.304688 Z M 14.890625 8.304688 "/>
<path style=" stroke:none;fill-rule:nonzero;fill:rgb(90.588235%,35.294118%,43.921569%);fill-opacity:1;" d="M 7.5 8.125 C 8.75 8.125 8.75 8.332031 8.75 8.75 C 8.75 9.167969 8.125 10 7.5 10 C 6.875 10 6.25 9.167969 6.25 8.75 C 6.25 8.332031 6.25 8.125 7.5 8.125 Z M 7.5 8.125 "/>
<path style=" stroke:none;fill-rule:nonzero;fill:rgb(94.509804%,56.078431%,14.901961%);fill-opacity:1;" d="M 0.832031 1.25 C 1.019531 0.691406 3.183594 1.667969 3.601562 2.082031 C 3.601562 2.082031 1.667969 3.332031 1.25 4.582031 C 1.25 4.582031 0.417969 2.5 0.832031 1.25 Z M 14.167969 1.25 C 13.980469 0.691406 11.816406 1.667969 11.398438 2.082031 C 11.398438 2.082031 13.332031 3.332031 13.75 4.582031 C 13.75 4.582031 14.582031 2.5 14.167969 1.25 Z M 14.167969 1.25 "/>
<path style=" stroke:none;fill-rule:nonzero;fill:rgb(100%,80%,30.196078%);fill-opacity:1;" d="M 2.054688 2.335938 C 2.054688 1.746094 4.582031 2.917969 4.167969 3.332031 C 3.75 3.75 3.332031 4 2.917969 4.417969 C 2.5 4.835938 2.054688 2.75 2.054688 2.335938 Z M 12.945312 2.335938 C 12.945312 1.746094 10.417969 2.917969 10.832031 3.332031 C 11.25 3.75 11.667969 4 12.082031 4.417969 C 12.5 4.835938 12.945312 2.75 12.945312 2.335938 Z M 12.945312 2.335938 "/>
<path style=" stroke:none;fill-rule:nonzero;fill:rgb(99.607843%,90.588235%,72.156863%);fill-opacity:1;" d="M 0.292969 10.417969 C 0.230469 10.417969 0.167969 10.390625 0.128906 10.335938 C 0.0585938 10.246094 0.0742188 10.117188 0.164062 10.046875 C 0.230469 9.992188 1.839844 8.746094 4.597656 8.960938 C 4.714844 8.96875 4.800781 9.066406 4.792969 9.183594 C 4.78125 9.296875 4.683594 9.390625 4.566406 9.375 C 1.96875 9.175781 0.4375 10.359375 0.421875 10.371094 C 0.382812 10.402344 0.335938 10.417969 0.292969 10.417969 Z M 3.988281 8.472656 C 3.964844 8.472656 3.945312 8.472656 3.925781 8.464844 C 1.929688 7.839844 0.285156 8.320312 0.269531 8.324219 C 0.15625 8.359375 0.0429688 8.296875 0.0078125 8.183594 C -0.0234375 8.074219 0.0390625 7.957031 0.148438 7.925781 C 0.21875 7.902344 1.933594 7.40625 4.046875 8.066406 C 4.160156 8.101562 4.21875 8.21875 4.183594 8.328125 C 4.15625 8.417969 4.074219 8.472656 3.988281 8.472656 Z M 14.707031 10.417969 C 14.769531 10.417969 14.832031 10.390625 14.871094 10.335938 C 14.941406 10.246094 14.925781 10.117188 14.835938 10.046875 C 14.769531 9.992188 13.160156 8.746094 10.402344 8.960938 C 10.285156 8.96875 10.199219 9.066406 10.207031 9.183594 C 10.21875 9.296875 10.316406 9.390625 10.433594 9.375 C 13.03125 9.175781 14.5625 10.359375 14.578125 10.371094 C 14.617188 10.402344 14.664062 10.417969 14.707031 10.417969 Z M 11.011719 8.472656 C 11.035156 8.472656 11.054688 8.472656 11.074219 8.464844 C 13.070312 7.839844 14.714844 8.320312 14.730469 8.324219 C 14.84375 8.359375 14.957031 8.296875 14.992188 8.183594 C 15.023438 8.074219 14.960938 7.957031 14.851562 7.925781 C 14.78125 7.902344 13.066406 7.40625 10.953125 8.066406 C 10.839844 8.101562 10.78125 8.21875 10.816406 8.328125 C 10.839844 8.417969 10.925781 8.472656 11.011719 8.472656 Z M 11.011719 8.472656 "/>
<path style=" stroke:none;fill-rule:nonzero;fill:rgb(16.078431%,18.431373%,20%);fill-opacity:1;" d="M 11.675781 10.078125 C 11.269531 10.160156 9.582031 10.832031 7.5 10.832031 C 5.417969 10.832031 3.730469 10.160156 3.324219 10.078125 C 2.917969 10 2.867188 10.527344 3.101562 11.304688 C 3.332031 12.082031 4.582031 13.75 7.5 13.75 C 10.417969 13.75 11.667969 12.082031 11.898438 11.304688 C 12.132812 10.527344 12.082031 10 11.675781 10.078125 Z M 11.675781 10.078125 "/>
<path style=" stroke:none;fill-rule:nonzero;fill:rgb(96.078431%,97.254902%,98.039216%);fill-opacity:1;" d="M 3.332031 10.417969 C 3.332031 10.417969 5.417969 11.25 7.5 11.25 C 9.582031 11.25 11.667969 10.417969 11.667969 10.417969 C 11.667969 10.417969 11.457031 11.667969 11.042969 11.667969 C 10.625 11.667969 10.417969 11.25 10.417969 11.25 C 10.417969 11.25 8.75 12.082031 7.5 12.082031 C 6.25 12.082031 4.582031 11.25 4.582031 11.25 C 4.582031 11.25 4.375 11.667969 3.957031 11.667969 C 3.542969 11.667969 3.332031 10.417969 3.332031 10.417969 Z M 3.332031 10.417969 "/>
<path style=" stroke:none;fill-rule:nonzero;fill:rgb(86.666667%,18.039216%,26.666667%);fill-opacity:1;" d="M 6.761719 2.132812 C 6.402344 1.121094 5.292969 0.585938 4.277344 0.945312 C 3.664062 1.160156 3.230469 1.65625 3.058594 2.238281 C 2.5625 1.890625 1.914062 1.78125 1.296875 1.996094 C 0.285156 2.351562 -0.246094 3.464844 0.109375 4.476562 C 0.160156 4.621094 0.230469 4.753906 0.308594 4.878906 C 1.121094 6.371094 3.46875 7.417969 4.890625 7.433594 C 5.992188 6.527344 7.160156 4.238281 6.859375 2.566406 C 6.839844 2.421875 6.808594 2.277344 6.761719 2.132812 Z M 8.238281 2.132812 C 8.597656 1.121094 9.707031 0.585938 10.722656 0.945312 C 11.335938 1.160156 11.769531 1.65625 11.941406 2.238281 C 12.4375 1.890625 13.085938 1.78125 13.703125 1.996094 C 14.714844 2.351562 15.246094 3.464844 14.890625 4.476562 C 14.839844 4.621094 14.769531 4.753906 14.691406 4.878906 C 13.878906 6.371094 11.53125 7.417969 10.109375 7.433594 C 9.007812 6.527344 7.839844 4.238281 8.140625 2.566406 C 8.160156 2.421875 8.191406 2.277344 8.238281 2.132812 Z M 8.238281 2.132812 "/>
</g>
</svg>
