<?xml version="1.0" encoding="UTF-8"?>
<svg xmlns="http://www.w3.org/2000/svg" xmlns:xlink="http://www.w3.org/1999/xlink" width="15pt" height="15pt" viewBox="0 0 15 15" version="1.1">
<g id="surface1">
<path style=" stroke:none;fill-rule:nonzero;fill:rgb(100%,80%,30.196078%);fill-opacity:1;" d="M 14.890625 8.304688 C 14.738281 6.941406 14.582031 6.25 14.167969 5.417969 C 14.167969 5.417969 15.417969 1.667969 14.582031 0.125 C 14.300781 -0.394531 11.5 0.828125 10.417969 1.667969 C 10.417969 1.667969 8.75 1.25 7.5 1.25 C 6.25 1.25 4.582031 1.667969 4.582031 1.667969 C 3.5 0.828125 0.699219 -0.394531 0.417969 0.125 C -0.417969 1.667969 0.832031 5.417969 0.832031 5.417969 C 0.417969 6.25 0.261719 6.941406 0.109375 8.304688 C -0.0546875 9.796875 0.273438 10.988281 0.417969 11.25 C 0.578125 11.546875 1.402344 12.511719 2.5 13.332031 C 4.167969 14.582031 6.667969 15 7.5 15 C 8.332031 15 10.832031 14.582031 12.5 13.332031 C 13.597656 12.511719 14.421875 11.546875 14.582031 11.25 C 14.726562 10.988281 15.054688 9.796875 14.890625 8.304688 Z M 14.890625 8.304688 "/>
<path style=" stroke:none;fill-rule:nonzero;fill:rgb(90.588235%,35.294118%,43.921569%);fill-opacity:1;" d="M 7.5 8.125 C 8.75 8.125 8.75 8.332031 8.75 8.75 C 8.75 9.167969 8.125 10 7.5 10 C 6.875 10 6.25 9.167969 6.25 8.75 C 6.25 8.332031 6.25 8.125 7.5 8.125 Z M 7.5 8.125 "/>
<path style=" stroke:none;fill-rule:nonzero;fill:rgb(94.509804%,56.078431%,14.901961%);fill-opacity:1;" d="M 0.832031 1.25 C 1.019531 0.691406 3.183594 1.667969 3.601562 2.082031 C 3.601562 2.082031 1.667969 3.332031 1.25 4.582031 C 1.25 4.582031 0.417969 2.5 0.832031 1.25 Z M 14.167969 1.25 C 13.980469 0.691406 11.816406 1.667969 11.398438 2.082031 C 11.398438 2.082031 13.332031 3.332031 13.75 4.582031 C 13.75 4.582031 14.582031 2.5 14.167969 1.25 Z M 14.167969 1.25 "/>
<path style=" stroke:none;fill-rule:nonzero;fill:rgb(100%,80%,30.196078%);fill-opacity:1;" d="M 2.054688 2.335938 C 2.054688 1.746094 4.582031 2.917969 4.167969 3.332031 C 3.75 3.75 3.332031 4 2.917969 4.417969 C 2.5 4.835938 2.054688 2.75 2.054688 2.335938 Z M 12.945312 2.335938 C 12.945312 1.746094 10.417969 2.917969 10.832031 3.332031 C 11.25 3.75 11.667969 4 12.082031 4.417969 C 12.5 4.835938 12.945312 2.75 12.945312 2.335938 Z M 12.945312 2.335938 "/>
<path style=" stroke:none;fill-rule:nonzero;fill:rgb(99.607843%,90.588235%,72.156863%);fill-opacity:1;" d="M 0.292969 10.417969 C 0.230469 10.417969 0.167969 10.390625 0.128906 10.335938 C 0.0585938 10.246094 0.0742188 10.117188 0.164062 10.046875 C 0.230469 9.992188 1.839844 8.746094 4.597656 8.960938 C 4.714844 8.96875 4.800781 9.066406 4.792969 9.183594 C 4.78125 9.296875 4.683594 9.390625 4.566406 9.375 C 1.96875 9.175781 0.4375 10.359375 0.421875 10.371094 C 0.382812 10.402344 0.335938 10.417969 0.292969 10.417969 Z M 3.988281 8.472656 C 3.964844 8.472656 3.945312 8.472656 3.925781 8.464844 C 1.929688 7.839844 0.285156 8.320312 0.269531 8.324219 C 0.15625 8.359375 0.0429688 8.296875 0.0078125 8.183594 C -0.0234375 8.074219 0.0390625 7.957031 0.148438 7.925781 C 0.21875 7.902344 1.933594 7.40625 4.046875 8.066406 C 4.160156 8.101562 4.21875 8.21875 4.183594 8.328125 C 4.15625 8.417969 4.074219 8.472656 3.988281 8.472656 Z M 14.707031 10.417969 C 14.769531 10.417969 14.832031 10.390625 14.871094 10.335938 C 14.941406 10.246094 14.925781 10.117188 14.835938 10.046875 C 14.769531 9.992188 13.160156 8.746094 10.402344 8.960938 C 10.285156 8.96875 10.199219 9.066406 10.207031 9.183594 C 10.21875 9.296875 10.316406 9.390625 10.433594 9.375 C 13.03125 9.175781 14.5625 10.359375 14.578125 10.371094 C 14.617188 10.402344 14.664062 10.417969 14.707031 10.417969 Z M 11.011719 8.472656 C 11.035156 8.472656 11.054688 8.472656 11.074219 8.464844 C 13.070312 7.839844 14.714844 8.320312 14.730469 8.324219 C 14.84375 8.359375 14.957031 8.296875 14.992188 8.183594 C 15.023438 8.074219 14.960938 7.957031 14.851562 7.925781 C 14.78125 7.902344 13.066406 7.40625 10.953125 8.066406 C 10.839844 8.101562 10.78125 8.21875 10.816406 8.328125 C 10.839844 8.417969 10.925781 8.472656 11.011719 8.472656 Z M 11.011719 8.472656 "/>
<path style=" stroke:none;fill-rule:nonzero;fill:rgb(16.078431%,18.431373%,20%);fill-opacity:1;" d="M 10.566406 12.617188 C 10.367188 12.351562 9.144531 10.832031 7.5 10.832031 C 5.734375 10.832031 4.457031 12.578125 4.40625 12.652344 C 4.355469 12.722656 4.371094 12.8125 4.441406 12.871094 C 4.480469 12.902344 4.53125 12.917969 4.582031 12.917969 C 4.625 12.917969 4.664062 12.90625 4.699219 12.886719 C 4.710938 12.878906 5.914062 12.222656 7.5 12.222656 C 9.078125 12.222656 10.289062 12.878906 10.300781 12.886719 C 10.335938 12.90625 10.390625 12.921875 10.417969 12.917969 C 10.535156 12.914062 10.632812 12.839844 10.632812 12.742188 C 10.632812 12.691406 10.609375 12.648438 10.566406 12.617188 Z M 10.566406 12.617188 "/>
<path style=" stroke:none;fill-rule:nonzero;fill:rgb(16.078431%,18.431373%,20%);fill-opacity:1;" d="M 5.832031 6.042969 C 5.832031 5.234375 5.460938 4.582031 5 4.582031 C 4.539062 4.582031 4.167969 5.234375 4.167969 6.042969 C 4.167969 6.847656 4.539062 7.5 5 7.5 C 5.460938 7.5 5.832031 6.847656 5.832031 6.042969 Z M 5.832031 6.042969 "/>
<path style=" stroke:none;fill-rule:nonzero;fill:rgb(16.078431%,18.431373%,20%);fill-opacity:1;" d="M 10.832031 6.042969 C 10.832031 5.234375 10.460938 4.582031 10 4.582031 C 9.539062 4.582031 9.167969 5.234375 9.167969 6.042969 C 9.167969 6.847656 9.539062 7.5 10 7.5 C 10.460938 7.5 10.832031 6.847656 10.832031 6.042969 Z M 10.832031 6.042969 "/>
<path style=" stroke:none;fill-rule:nonzero;fill:rgb(16.078431%,18.431373%,20%);fill-opacity:1;" d="M 8.808594 5.429688 C 8.714844 5.40625 8.628906 5.339844 8.578125 5.242188 C 8.476562 5.046875 8.546875 4.792969 8.730469 4.671875 C 10.746094 3.382812 12.320312 3.78125 12.386719 3.800781 C 12.589844 3.855469 12.707031 4.078125 12.648438 4.300781 C 12.585938 4.523438 12.375 4.660156 12.171875 4.605469 C 12.148438 4.601562 10.8125 4.28125 9.097656 5.378906 C 9.003906 5.441406 8.902344 5.453125 8.808594 5.429688 Z M 6.191406 5.429688 C 6.097656 5.453125 5.996094 5.441406 5.902344 5.382812 C 4.179688 4.277344 2.839844 4.605469 2.824219 4.605469 C 2.621094 4.660156 2.410156 4.523438 2.351562 4.300781 C 2.296875 4.078125 2.410156 3.855469 2.613281 3.800781 C 2.679688 3.785156 4.253906 3.382812 6.269531 4.671875 C 6.453125 4.792969 6.523438 5.046875 6.421875 5.242188 C 6.371094 5.339844 6.285156 5.40625 6.191406 5.429688 Z M 6.191406 5.429688 "/>
</g>
</svg>
