<?xml version="1.0" encoding="UTF-8"?>
<svg xmlns="http://www.w3.org/2000/svg" xmlns:xlink="http://www.w3.org/1999/xlink" width="15pt" height="15pt" viewBox="0 0 15 15" version="1.1">
<g id="surface1">
<path style=" stroke:none;fill-rule:nonzero;fill:rgb(100%,80%,30.196078%);fill-opacity:1;" d="M 15 7.5 C 15 11.640625 11.640625 15 7.5 15 C 3.359375 15 0 11.640625 0 7.5 C 0 3.359375 3.359375 0 7.5 0 C 11.640625 0 15 3.359375 15 7.5 "/>
<path style=" stroke:none;fill-rule:nonzero;fill:rgb(40%,27.058824%,0%);fill-opacity:1;" d="M 9.582031 11.25 C 9.582031 9.871094 8.652344 8.75 7.5 8.75 C 6.347656 8.75 5.417969 9.871094 5.417969 11.25 C 5.417969 12.628906 6.347656 13.75 7.5 13.75 C 8.652344 13.75 9.582031 12.628906 9.582031 11.25 Z M 9.582031 11.25 "/>
<path style=" stroke:none;fill-rule:nonzero;fill:rgb(40%,27.058824%,0%);fill-opacity:1;" d="M 2.5 4.582031 C 2.414062 4.582031 2.324219 4.554688 2.25 4.5 C 2.066406 4.363281 2.027344 4.101562 2.167969 3.917969 C 3.527344 2.105469 5.339844 2.082031 5.417969 2.082031 C 5.648438 2.082031 5.832031 2.269531 5.832031 2.5 C 5.832031 2.730469 5.648438 2.914062 5.417969 2.917969 C 5.355469 2.917969 3.933594 2.953125 2.832031 4.417969 C 2.75 4.527344 2.625 4.582031 2.5 4.582031 Z M 12.5 4.582031 C 12.375 4.582031 12.25 4.527344 12.167969 4.417969 C 11.066406 2.949219 9.640625 2.917969 9.582031 2.917969 C 9.351562 2.914062 9.167969 2.726562 9.167969 2.496094 C 9.167969 2.269531 9.355469 2.082031 9.582031 2.082031 C 9.660156 2.082031 11.472656 2.105469 12.832031 3.917969 C 12.972656 4.101562 12.933594 4.363281 12.75 4.5 C 12.675781 4.554688 12.585938 4.582031 12.5 4.582031 Z M 12.5 4.582031 "/>
<path style=" stroke:none;fill-rule:nonzero;fill:rgb(96.078431%,97.254902%,98.039216%);fill-opacity:1;" d="M 7.5 9.582031 C 6.808594 9.582031 6.25 10.328125 6.25 11.25 L 8.75 11.25 C 8.75 10.328125 8.191406 9.582031 7.5 9.582031 Z M 7.5 9.582031 "/>
<path style=" stroke:none;fill-rule:nonzero;fill:rgb(40%,27.058824%,0%);fill-opacity:1;" d="M 6.042969 6.042969 C 6.042969 5.234375 5.574219 4.582031 5 4.582031 C 4.425781 4.582031 3.957031 5.234375 3.957031 6.042969 C 3.957031 6.847656 4.425781 7.5 5 7.5 C 5.574219 7.5 6.042969 6.847656 6.042969 6.042969 Z M 6.042969 6.042969 "/>
<path style=" stroke:none;fill-rule:nonzero;fill:rgb(40%,27.058824%,0%);fill-opacity:1;" d="M 11.042969 6.042969 C 11.042969 5.234375 10.574219 4.582031 10 4.582031 C 9.425781 4.582031 8.957031 5.234375 8.957031 6.042969 C 8.957031 6.847656 9.425781 7.5 10 7.5 C 10.574219 7.5 11.042969 6.847656 11.042969 6.042969 Z M 11.042969 6.042969 "/>
</g>
</svg>
