<?xml version="1.0" encoding="UTF-8"?>
<svg xmlns="http://www.w3.org/2000/svg" xmlns:xlink="http://www.w3.org/1999/xlink" width="15pt" height="15pt" viewBox="0 0 15 15" version="1.1">
<g id="surface1">
<path style=" stroke:none;fill-rule:nonzero;fill:rgb(86.666667%,33.333333%,12.156863%);fill-opacity:1;" d="M 2.5 11.667969 L 12.5 11.667969 L 12.5 15 L 2.5 15 Z M 2.5 11.667969 "/>
<path style=" stroke:none;fill-rule:nonzero;fill:rgb(100%,67.45098%,20%);fill-opacity:1;" d="M 9.128906 0.527344 C 8.285156 0.253906 6.304688 0.328125 5.8125 0.972656 C 4.523438 0.996094 3.015625 2.160156 2.816406 3.695312 C 2.621094 5.214844 3.058594 5.917969 3.210938 7.058594 C 3.386719 8.355469 4.117188 8.769531 4.695312 8.941406 C 5.535156 10.046875 6.421875 10 7.917969 10 C 10.832031 10 12.222656 8.046875 12.34375 4.734375 C 12.417969 2.730469 11.242188 1.210938 9.128906 0.527344 Z M 9.128906 0.527344 "/>
<path style=" stroke:none;fill-rule:nonzero;fill:rgb(100%,86.27451%,36.470588%);fill-opacity:1;" d="M 10.796875 4.875 C 10.511719 4.484375 10.152344 4.171875 9.359375 4.058594 C 9.65625 4.195312 9.941406 4.664062 9.976562 4.925781 C 10.015625 5.183594 10.050781 5.394531 9.816406 5.136719 C 8.875 4.09375 7.851562 4.503906 6.832031 3.867188 C 6.125 3.425781 5.90625 2.933594 5.90625 2.933594 C 5.90625 2.933594 5.820312 3.589844 4.742188 4.257812 C 4.433594 4.449219 4.058594 4.882812 3.851562 5.519531 C 3.703125 5.976562 3.75 6.386719 3.75 7.082031 C 3.75 9.121094 5.429688 10.832031 7.5 10.832031 C 9.570312 10.832031 11.25 9.105469 11.25 7.082031 C 11.25 5.816406 11.117188 5.320312 10.796875 4.875 Z M 10.796875 4.875 "/>
<path style=" stroke:none;fill-rule:nonzero;fill:rgb(75.686275%,41.176471%,30.980392%);fill-opacity:1;" d="M 7.917969 8.125 L 7.082031 8.125 C 6.96875 8.125 6.875 8.03125 6.875 7.917969 C 6.875 7.800781 6.96875 7.707031 7.082031 7.707031 L 7.917969 7.707031 C 8.03125 7.707031 8.125 7.800781 8.125 7.917969 C 8.125 8.03125 8.03125 8.125 7.917969 8.125 Z M 7.917969 8.125 "/>
<path style=" stroke:none;fill-rule:nonzero;fill:rgb(40%,12.941176%,7.45098%);fill-opacity:1;" d="M 5.832031 6.667969 C 5.601562 6.667969 5.417969 6.480469 5.417969 6.25 L 5.417969 5.832031 C 5.417969 5.601562 5.601562 5.417969 5.832031 5.417969 C 6.0625 5.417969 6.25 5.601562 6.25 5.832031 L 6.25 6.25 C 6.25 6.480469 6.0625 6.667969 5.832031 6.667969 Z M 9.167969 6.667969 C 8.9375 6.667969 8.75 6.480469 8.75 6.25 L 8.75 5.832031 C 8.75 5.601562 8.9375 5.417969 9.167969 5.417969 C 9.398438 5.417969 9.582031 5.601562 9.582031 5.832031 L 9.582031 6.25 C 9.582031 6.480469 9.398438 6.667969 9.167969 6.667969 Z M 9.167969 6.667969 "/>
<path style=" stroke:none;fill-rule:nonzero;fill:rgb(97.647059%,79.215686%,33.333333%);fill-opacity:1;" d="M 1.332031 7.511719 C 1.441406 7.308594 1.65625 7.203125 1.859375 7.222656 C 1.875 7.195312 4.8125 8.445312 4.8125 8.445312 L 4.28125 9.089844 C 3.992188 9.449219 3.488281 9.519531 3.160156 9.25 L 2.460938 8.675781 L 1.519531 8.203125 C 1.273438 8.078125 1.191406 7.769531 1.332031 7.511719 Z M 1.332031 7.511719 "/>
<path style=" stroke:none;fill-rule:nonzero;fill:rgb(100%,86.27451%,36.470588%);fill-opacity:1;" d="M 0.152344 6.242188 C 0.0078125 6.421875 0.0195312 6.675781 0.183594 6.808594 L 2.234375 7.949219 L 3.722656 9.171875 C 3.886719 9.304688 4.136719 9.269531 4.28125 9.089844 L 4.8125 8.445312 L 4.214844 7.960938 L 2.875 7.171875 L 0.714844 6.164062 C 0.714844 6.164062 0.296875 6.066406 0.152344 6.242188 Z M 0.152344 6.242188 "/>
<path style=" stroke:none;fill-rule:nonzero;fill:rgb(98.039216%,45.490196%,24.313725%);fill-opacity:1;" d="M 3.964844 7.683594 C 3.964844 7.683594 12.132812 11.289062 12.34375 11.382812 C 12.839844 11.605469 13.660156 12.09375 13.660156 12.917969 L 13.511719 14.894531 C 13.511719 14.953125 13.464844 15 13.410156 15 L 12.023438 15 C 12.003906 15 11.984375 14.992188 11.964844 14.980469 L 3.867188 9.539062 C 3.835938 9.523438 3.820312 9.488281 3.820312 9.453125 L 3.820312 7.777344 C 3.820312 7.703125 3.898438 7.652344 3.964844 7.683594 Z M 3.964844 7.683594 "/>
<path style=" stroke:none;fill-rule:nonzero;fill:rgb(86.666667%,33.333333%,12.156863%);fill-opacity:1;" d="M 7.59375 9.277344 L 7.269531 9.140625 L 4.578125 10.019531 L 5.195312 10.449219 Z M 9.761719 10.242188 L 10.183594 10.429688 L 8.027344 12.34375 L 6.433594 12.332031 Z M 9.761719 10.242188 "/>
<path style=" stroke:none;fill-rule:nonzero;fill:rgb(97.647059%,79.215686%,33.333333%);fill-opacity:1;" d="M 13.648438 7.511719 C 13.535156 7.308594 13.324219 7.203125 13.117188 7.222656 C 13.105469 7.195312 10.167969 8.445312 10.167969 8.445312 L 10.695312 9.089844 C 10.988281 9.449219 11.488281 9.519531 11.816406 9.25 L 12.515625 8.675781 L 13.457031 8.203125 C 13.703125 8.078125 13.785156 7.769531 13.648438 7.511719 Z M 13.648438 7.511719 "/>
<path style=" stroke:none;fill-rule:nonzero;fill:rgb(100%,86.27451%,36.470588%);fill-opacity:1;" d="M 14.824219 6.242188 C 14.972656 6.421875 14.957031 6.675781 14.792969 6.808594 L 12.742188 7.949219 L 11.257812 9.171875 C 11.09375 9.304688 10.839844 9.269531 10.695312 9.089844 L 10.167969 8.445312 L 10.761719 7.960938 L 12.105469 7.171875 L 14.265625 6.164062 C 14.265625 6.164062 14.679688 6.066406 14.824219 6.242188 Z M 14.824219 6.242188 "/>
<path style=" stroke:none;fill-rule:nonzero;fill:rgb(98.039216%,45.490196%,24.313725%);fill-opacity:1;" d="M 11.011719 7.683594 C 11.011719 7.683594 2.847656 11.289062 2.632812 11.382812 C 2.136719 11.605469 1.320312 12.09375 1.320312 12.917969 L 1.464844 14.894531 C 1.464844 14.953125 1.511719 15 1.570312 15 L 2.953125 15 C 2.972656 15 2.996094 14.992188 3.011719 14.980469 L 11.109375 9.539062 C 11.140625 9.523438 11.15625 9.488281 11.15625 9.453125 L 11.15625 7.777344 C 11.15625 7.703125 11.078125 7.652344 11.011719 7.683594 Z M 11.011719 7.683594 "/>
</g>
</svg>
