<?xml version="1.0" encoding="UTF-8"?>
<svg xmlns="http://www.w3.org/2000/svg" xmlns:xlink="http://www.w3.org/1999/xlink" width="15pt" height="15pt" viewBox="0 0 15 15" version="1.1">
<g id="surface1">
<path style=" stroke:none;fill-rule:nonzero;fill:rgb(100%,80%,30.196078%);fill-opacity:1;" d="M 14.582031 0.125 C 14.300781 -0.394531 11.5 0.828125 10.417969 1.667969 C 10.417969 1.667969 8.75 1.25 7.5 1.25 C 6.25 1.25 4.582031 1.667969 4.582031 1.667969 C 3.5 0.828125 0.699219 -0.394531 0.417969 0.125 C -0.417969 1.667969 0.832031 5.417969 0.832031 5.417969 C 0.460938 6.164062 0.296875 6.804688 0.15625 7.910156 C 0.304688 7.871094 0.472656 7.847656 0.683594 7.847656 C 2.769531 7.847656 3.957031 11.238281 3.746094 14.066406 C 5.226562 14.75 6.859375 15 7.5 15 C 8.144531 15 9.789062 14.746094 11.273438 14.054688 C 11.066406 11.230469 12.257812 7.847656 14.339844 7.847656 C 14.539062 7.847656 14.699219 7.871094 14.84375 7.90625 C 14.703125 6.800781 14.539062 6.164062 14.167969 5.417969 C 14.167969 5.417969 15.417969 1.667969 14.582031 0.125 Z M 14.582031 0.125 "/>
<path style=" stroke:none;fill-rule:nonzero;fill:rgb(90.588235%,35.294118%,43.921569%);fill-opacity:1;" d="M 7.5 6.25 C 8.75 6.25 8.75 6.457031 8.75 6.875 C 8.75 7.292969 8.125 8.125 7.5 8.125 C 6.875 8.125 6.25 7.292969 6.25 6.875 C 6.25 6.457031 6.25 6.25 7.5 6.25 Z M 7.5 6.25 "/>
<path style=" stroke:none;fill-rule:nonzero;fill:rgb(94.509804%,56.078431%,14.901961%);fill-opacity:1;" d="M 0.832031 1.25 C 1.019531 0.691406 3.183594 1.667969 3.601562 2.082031 C 3.601562 2.082031 1.667969 3.332031 1.25 4.582031 C 1.25 4.582031 0.417969 2.5 0.832031 1.25 Z M 14.167969 1.25 C 13.980469 0.691406 11.816406 1.667969 11.398438 2.082031 C 11.398438 2.082031 13.332031 3.332031 13.75 4.582031 C 13.75 4.582031 14.582031 2.5 14.167969 1.25 Z M 14.167969 1.25 "/>
<path style=" stroke:none;fill-rule:nonzero;fill:rgb(100%,80%,30.196078%);fill-opacity:1;" d="M 2.054688 2.335938 C 2.054688 1.746094 4.582031 2.917969 4.167969 3.332031 C 3.75 3.75 3.332031 4 2.917969 4.417969 C 2.5 4.835938 2.054688 2.75 2.054688 2.335938 Z M 12.945312 2.335938 C 12.945312 1.746094 10.417969 2.917969 10.832031 3.332031 C 11.25 3.75 11.667969 4 12.082031 4.417969 C 12.5 4.835938 12.945312 2.75 12.945312 2.335938 Z M 12.945312 2.335938 "/>
<path style=" stroke:none;fill-rule:nonzero;fill:rgb(99.607843%,90.588235%,72.156863%);fill-opacity:1;" d="M 4.597656 8.960938 C 3.847656 8.902344 3.1875 8.953125 2.617188 9.058594 C 2.699219 9.179688 2.777344 9.308594 2.851562 9.441406 C 3.355469 9.359375 3.929688 9.324219 4.566406 9.375 C 4.683594 9.390625 4.78125 9.296875 4.792969 9.183594 C 4.800781 9.066406 4.714844 8.96875 4.597656 8.960938 Z M 4.050781 8.066406 C 2.382812 7.546875 0.96875 7.746094 0.40625 7.863281 C 0.492188 7.851562 0.582031 7.84375 0.683594 7.84375 C 1.054688 7.84375 1.398438 7.953125 1.707031 8.144531 C 2.324219 8.136719 3.09375 8.203125 3.925781 8.464844 C 3.945312 8.472656 3.964844 8.472656 3.988281 8.472656 C 4.074219 8.472656 4.15625 8.417969 4.1875 8.328125 C 4.21875 8.21875 4.160156 8.101562 4.050781 8.066406 Z M 12.40625 9.058594 C 11.828125 8.953125 11.160156 8.902344 10.402344 8.960938 C 10.285156 8.96875 10.199219 9.066406 10.210938 9.183594 C 10.21875 9.296875 10.316406 9.390625 10.433594 9.375 C 11.082031 9.324219 11.660156 9.363281 12.171875 9.445312 C 12.246094 9.308594 12.320312 9.183594 12.40625 9.058594 Z M 13.3125 8.144531 C 13.625 7.953125 13.96875 7.84375 14.339844 7.84375 C 14.429688 7.84375 14.507812 7.851562 14.582031 7.859375 C 14.015625 7.742188 12.609375 7.546875 10.953125 8.066406 C 10.839844 8.101562 10.78125 8.21875 10.816406 8.328125 C 10.84375 8.417969 10.925781 8.472656 11.011719 8.472656 C 11.035156 8.472656 11.054688 8.472656 11.074219 8.464844 C 11.917969 8.203125 12.691406 8.136719 13.3125 8.144531 Z M 13.3125 8.144531 "/>
<path style=" stroke:none;fill-rule:nonzero;fill:rgb(16.078431%,18.431373%,20%);fill-opacity:1;" d="M 7.5 8.75 C 6.578125 8.75 5.832031 9.496094 5.832031 10.417969 L 5.832031 12.917969 C 5.832031 13.835938 6.578125 14.582031 7.5 14.582031 C 8.421875 14.582031 9.167969 13.835938 9.167969 12.917969 L 9.167969 10.417969 C 9.167969 9.496094 8.421875 8.75 7.5 8.75 Z M 7.5 8.75 "/>
<path style=" stroke:none;fill-rule:nonzero;fill:rgb(96.078431%,97.254902%,98.039216%);fill-opacity:1;" d="M 3.0625 4.445312 C 2.667969 5.765625 3.105469 7.066406 4.042969 7.34375 C 4.976562 7.625 6.054688 6.777344 6.449219 5.453125 C 6.84375 4.128906 6.40625 2.832031 5.46875 2.554688 C 4.535156 2.273438 3.457031 3.121094 3.0625 4.445312 Z M 11.9375 4.445312 C 12.332031 5.765625 11.894531 7.066406 10.957031 7.34375 C 10.023438 7.625 8.945312 6.777344 8.550781 5.453125 C 8.15625 4.128906 8.59375 2.832031 9.53125 2.554688 C 10.464844 2.273438 11.542969 3.121094 11.9375 4.445312 Z M 11.9375 4.445312 "/>
<path style=" stroke:none;fill-rule:nonzero;fill:rgb(98.823529%,67.058824%,25.098039%);fill-opacity:1;" d="M 14.898438 7.992188 C 14.765625 7.945312 14.609375 7.917969 14.414062 7.917969 C 12.480469 7.917969 11.472656 12.085938 11.96875 15 L 14.660156 15 C 13.867188 12.066406 15.347656 9.128906 14.898438 7.992188 Z M 0.585938 7.917969 C 0.390625 7.917969 0.234375 7.945312 0.105469 7.992188 L 0.105469 8 C -0.347656 9.140625 1.132812 12.085938 0.339844 15 L 3.03125 15 C 3.527344 12.101562 2.519531 7.917969 0.585938 7.917969 Z M 0.585938 7.917969 "/>
</g>
</svg>
