<?xml version="1.0" encoding="UTF-8"?>
<svg xmlns="http://www.w3.org/2000/svg" xmlns:xlink="http://www.w3.org/1999/xlink" width="15pt" height="15pt" viewBox="0 0 15 15" version="1.1">
<g id="surface1">
<path style=" stroke:none;fill-rule:nonzero;fill:rgb(16.078431%,18.431373%,20%);fill-opacity:1;" d="M 7.917969 0 C 7.199219 0 6.523438 0.167969 5.917969 0.464844 C 5.753906 0.433594 5.589844 0.417969 5.417969 0.417969 C 3.804688 0.417969 2.5 1.722656 2.5 3.332031 L 2.5 8.332031 L 2.507812 8.332031 C 2.582031 11.027344 4.785156 13.191406 7.5 13.191406 C 10.214844 13.191406 12.417969 11.027344 12.492188 8.332031 L 12.5 8.332031 L 12.5 4.582031 C 12.5 2.050781 10.449219 0 7.917969 0 Z M 7.917969 0 "/>
<path style=" stroke:none;fill-rule:nonzero;fill:rgb(96.862745%,87.058824%,80.784314%);fill-opacity:1;" d="M 5.832031 2.082031 C 5.832031 2.082031 5.832031 4.296875 3.75 4.558594 L 3.75 7.082031 C 3.75 9.15625 5.429688 10.832031 7.5 10.832031 C 9.570312 10.832031 11.25 9.15625 11.25 7.082031 L 11.25 4.992188 C 6.621094 4.835938 5.832031 2.082031 5.832031 2.082031 Z M 5.832031 2.082031 "/>
<path style=" stroke:none;fill-rule:nonzero;fill:rgb(87.45098%,12.156863%,19.607843%);fill-opacity:1;" d="M 7.917969 9.167969 C 7.917969 9.398438 7.730469 9.582031 7.5 9.582031 C 7.269531 9.582031 7.082031 9.398438 7.082031 9.167969 C 7.082031 8.9375 7.269531 8.75 7.5 8.75 C 7.730469 8.75 7.917969 8.9375 7.917969 9.167969 Z M 7.917969 9.167969 "/>
<path style=" stroke:none;fill-rule:nonzero;fill:rgb(45.490196%,31.372549%,65.882353%);fill-opacity:1;" d="M 2.5 11.667969 L 12.5 11.667969 L 12.5 15 L 2.5 15 Z M 2.5 11.667969 "/>
<path style=" stroke:none;fill-rule:nonzero;fill:rgb(75.686275%,41.176471%,30.980392%);fill-opacity:1;" d="M 7.917969 8.125 L 7.082031 8.125 C 6.96875 8.125 6.875 8.03125 6.875 7.917969 C 6.875 7.800781 6.96875 7.707031 7.082031 7.707031 L 7.917969 7.707031 C 8.03125 7.707031 8.125 7.800781 8.125 7.917969 C 8.125 8.03125 8.03125 8.125 7.917969 8.125 Z M 7.917969 8.125 "/>
<path style=" stroke:none;fill-rule:nonzero;fill:rgb(40%,12.941176%,7.45098%);fill-opacity:1;" d="M 5.832031 6.667969 C 5.601562 6.667969 5.417969 6.480469 5.417969 6.25 L 5.417969 5.832031 C 5.417969 5.601562 5.601562 5.417969 5.832031 5.417969 C 6.0625 5.417969 6.25 5.601562 6.25 5.832031 L 6.25 6.25 C 6.25 6.480469 6.0625 6.667969 5.832031 6.667969 Z M 9.167969 6.667969 C 8.9375 6.667969 8.75 6.480469 8.75 6.25 L 8.75 5.832031 C 8.75 5.601562 8.9375 5.417969 9.167969 5.417969 C 9.398438 5.417969 9.582031 5.601562 9.582031 5.832031 L 9.582031 6.25 C 9.582031 6.480469 9.398438 6.667969 9.167969 6.667969 Z M 9.167969 6.667969 "/>
<path style=" stroke:none;fill-rule:nonzero;fill:rgb(93.333333%,76.078431%,67.843137%);fill-opacity:1;" d="M 1.332031 7.511719 C 1.441406 7.308594 1.65625 7.203125 1.859375 7.222656 C 1.875 7.195312 4.8125 8.445312 4.8125 8.445312 L 4.28125 9.089844 C 3.992188 9.449219 3.488281 9.519531 3.160156 9.25 L 2.460938 8.675781 L 1.519531 8.203125 C 1.273438 8.078125 1.191406 7.769531 1.332031 7.511719 Z M 1.332031 7.511719 "/>
<path style=" stroke:none;fill-rule:nonzero;fill:rgb(96.862745%,87.058824%,80.784314%);fill-opacity:1;" d="M 0.152344 6.242188 C 0.0078125 6.421875 0.0195312 6.675781 0.183594 6.808594 L 2.234375 7.949219 L 3.722656 9.171875 C 3.886719 9.304688 4.136719 9.269531 4.28125 9.089844 L 4.8125 8.445312 L 4.214844 7.960938 L 2.875 7.171875 L 0.714844 6.164062 C 0.714844 6.164062 0.296875 6.066406 0.152344 6.242188 Z M 0.152344 6.242188 "/>
<path style=" stroke:none;fill-rule:nonzero;fill:rgb(57.254902%,40.784314%,79.215686%);fill-opacity:1;" d="M 3.964844 7.683594 C 3.964844 7.683594 12.132812 11.289062 12.34375 11.382812 C 12.839844 11.605469 13.660156 12.09375 13.660156 12.917969 L 13.511719 14.894531 C 13.511719 14.953125 13.464844 15 13.410156 15 L 12.023438 15 C 12.003906 15 11.984375 14.992188 11.964844 14.980469 L 3.867188 9.539062 C 3.835938 9.523438 3.820312 9.488281 3.820312 9.453125 L 3.820312 7.777344 C 3.820312 7.703125 3.898438 7.652344 3.964844 7.683594 Z M 3.964844 7.683594 "/>
<path style=" stroke:none;fill-rule:nonzero;fill:rgb(45.490196%,31.372549%,65.882353%);fill-opacity:1;" d="M 7.59375 9.277344 L 7.269531 9.140625 L 4.578125 10.019531 L 5.195312 10.449219 Z M 9.761719 10.242188 L 10.183594 10.429688 L 8.027344 12.34375 L 6.433594 12.332031 Z M 9.761719 10.242188 "/>
<path style=" stroke:none;fill-rule:nonzero;fill:rgb(93.333333%,76.078431%,67.843137%);fill-opacity:1;" d="M 13.648438 7.511719 C 13.535156 7.308594 13.324219 7.203125 13.117188 7.222656 C 13.105469 7.195312 10.167969 8.445312 10.167969 8.445312 L 10.695312 9.089844 C 10.988281 9.449219 11.488281 9.519531 11.816406 9.25 L 12.515625 8.675781 L 13.457031 8.203125 C 13.703125 8.078125 13.785156 7.769531 13.648438 7.511719 Z M 13.648438 7.511719 "/>
<path style=" stroke:none;fill-rule:nonzero;fill:rgb(96.862745%,87.058824%,80.784314%);fill-opacity:1;" d="M 14.824219 6.242188 C 14.972656 6.421875 14.957031 6.675781 14.792969 6.808594 L 12.742188 7.949219 L 11.257812 9.171875 C 11.09375 9.304688 10.839844 9.269531 10.695312 9.089844 L 10.167969 8.445312 L 10.761719 7.960938 L 12.105469 7.171875 L 14.265625 6.164062 C 14.265625 6.164062 14.679688 6.066406 14.824219 6.242188 Z M 14.824219 6.242188 "/>
<path style=" stroke:none;fill-rule:nonzero;fill:rgb(57.254902%,40.784314%,79.215686%);fill-opacity:1;" d="M 11.011719 7.683594 C 11.011719 7.683594 2.847656 11.289062 2.632812 11.382812 C 2.136719 11.605469 1.320312 12.09375 1.320312 12.917969 L 1.464844 14.894531 C 1.464844 14.953125 1.511719 15 1.570312 15 L 2.953125 15 C 2.972656 15 2.996094 14.992188 3.011719 14.980469 L 11.109375 9.539062 C 11.140625 9.523438 11.15625 9.488281 11.15625 9.453125 L 11.15625 7.777344 C 11.15625 7.703125 11.078125 7.652344 11.011719 7.683594 Z M 11.011719 7.683594 "/>
</g>
</svg>
