<?xml version="1.0" encoding="UTF-8"?>
<svg xmlns="http://www.w3.org/2000/svg" xmlns:xlink="http://www.w3.org/1999/xlink" width="15pt" height="15pt" viewBox="0 0 15 15" version="1.1">
<g id="surface1">
<path style=" stroke:none;fill-rule:nonzero;fill:rgb(37.647059%,20.784314%,16.470588%);fill-opacity:1;" d="M 7.917969 1.667969 C 7.199219 1.667969 6.523438 1.835938 5.917969 2.128906 C 5.753906 2.101562 5.589844 2.082031 5.417969 2.082031 C 3.804688 2.082031 2.5 3.390625 2.5 5 L 2.5 10 L 2.507812 10 C 2.582031 12.695312 4.785156 14.855469 7.5 14.855469 C 10.214844 14.855469 12.417969 12.695312 12.492188 10 L 12.5 10 L 12.5 6.25 C 12.5 3.71875 10.449219 1.667969 7.917969 1.667969 Z M 7.917969 1.667969 "/>
<path style=" stroke:none;fill-rule:nonzero;fill:rgb(57.254902%,40.784314%,79.215686%);fill-opacity:1;" d="M 11.25 9.167969 L 3.75 9.167969 C 3.75 9.167969 0 9.167969 0 12.082031 C 0 13.398438 1.667969 15 1.667969 15 L 13.332031 15 C 13.332031 15 15 13.398438 15 12.082031 C 15 9.167969 11.25 9.167969 11.25 9.167969 Z M 11.25 9.167969 "/>
<path style=" stroke:none;fill-rule:nonzero;fill:rgb(60.784314%,41.568627%,28.627451%);fill-opacity:1;" d="M 8.75 11.667969 C 8.75 12.355469 8.191406 12.917969 7.5 12.917969 C 6.808594 12.917969 6.25 12.355469 6.25 11.667969 C 6.25 10.976562 6.808594 10.417969 7.5 10.417969 C 8.191406 10.417969 8.75 10.976562 8.75 11.667969 Z M 8.75 11.667969 "/>
<path style=" stroke:none;fill-rule:nonzero;fill:rgb(68.627451%,49.411765%,34.117647%);fill-opacity:1;" d="M 5.832031 4.582031 C 5.832031 4.582031 5.832031 6.796875 3.75 7.058594 L 3.75 8.75 C 3.75 10.820312 5.429688 12.5 7.5 12.5 C 9.570312 12.5 11.25 10.820312 11.25 8.75 L 11.25 7.492188 C 6.621094 7.335938 5.832031 4.582031 5.832031 4.582031 Z M 7.082031 14.167969 L 5 13.75 L 4.167969 13.332031 L 2.917969 13.332031 L 2.5 15 L 7.082031 15 C 7.5 15 7.5 14.582031 7.5 14.582031 C 7.5 14.351562 7.082031 14.167969 7.082031 14.167969 Z M 10.832031 13.332031 L 10 13.75 L 7.917969 14.167969 C 7.917969 14.167969 7.5 14.351562 7.5 14.582031 C 7.5 14.582031 7.5 15 7.917969 15 L 12.5 15 L 12.082031 13.332031 Z M 10.832031 13.332031 "/>
<path style=" stroke:none;fill-rule:nonzero;fill:rgb(37.647059%,20.784314%,16.470588%);fill-opacity:1;" d="M 9.167969 9.167969 C 8.9375 9.167969 8.75 8.980469 8.75 8.75 L 8.75 8.332031 C 8.75 8.101562 8.9375 7.917969 9.167969 7.917969 C 9.398438 7.917969 9.582031 8.101562 9.582031 8.332031 L 9.582031 8.75 C 9.582031 8.980469 9.398438 9.167969 9.167969 9.167969 Z M 5.832031 9.167969 C 5.601562 9.167969 5.417969 8.980469 5.417969 8.75 L 5.417969 8.332031 C 5.417969 8.101562 5.601562 7.917969 5.832031 7.917969 C 6.0625 7.917969 6.25 8.101562 6.25 8.332031 L 6.25 8.75 C 6.25 8.980469 6.0625 9.167969 5.832031 9.167969 Z M 5.832031 9.167969 "/>
<path style=" stroke:none;fill-rule:nonzero;fill:rgb(56.862745%,35.294118%,20.392157%);fill-opacity:1;" d="M 7.917969 11.042969 L 7.082031 11.042969 C 6.96875 11.042969 6.875 10.949219 6.875 10.832031 C 6.875 10.71875 6.96875 10.625 7.082031 10.625 L 7.917969 10.625 C 8.03125 10.625 8.125 10.71875 8.125 10.832031 C 8.125 10.949219 8.03125 11.042969 7.917969 11.042969 Z M 7.917969 11.042969 "/>
<path style=" stroke:none;fill-rule:nonzero;fill:rgb(36.470588%,67.843137%,92.54902%);fill-opacity:1;" d="M 2.292969 3.332031 C 2.203125 3.332031 2.117188 3.304688 2.042969 3.25 L 0.375 2 C 0.191406 1.863281 0.152344 1.601562 0.292969 1.417969 C 0.429688 1.234375 0.691406 1.195312 0.875 1.332031 L 2.542969 2.582031 C 2.726562 2.722656 2.761719 2.984375 2.625 3.167969 C 2.542969 3.277344 2.417969 3.332031 2.292969 3.332031 Z M 3.542969 2.082031 C 3.40625 2.082031 3.277344 2.019531 3.195312 1.898438 L 2.363281 0.648438 C 2.234375 0.457031 2.285156 0.199219 2.476562 0.0703125 C 2.667969 -0.0585938 2.925781 -0.00390625 3.054688 0.183594 L 3.886719 1.433594 C 4.015625 1.625 3.964844 1.886719 3.773438 2.011719 C 3.703125 2.0625 3.621094 2.082031 3.542969 2.082031 Z M 12.707031 3.332031 C 12.582031 3.332031 12.457031 3.277344 12.375 3.167969 C 12.238281 2.984375 12.273438 2.722656 12.457031 2.582031 L 14.125 1.332031 C 14.308594 1.195312 14.570312 1.234375 14.707031 1.417969 C 14.847656 1.601562 14.808594 1.863281 14.625 2 L 12.957031 3.25 C 12.882812 3.304688 12.796875 3.332031 12.707031 3.332031 Z M 11.457031 2.082031 C 11.378906 2.082031 11.296875 2.0625 11.226562 2.011719 C 11.035156 1.886719 10.984375 1.628906 11.113281 1.433594 L 11.945312 0.183594 C 12.074219 -0.00390625 12.332031 -0.0585938 12.523438 0.0703125 C 12.714844 0.199219 12.765625 0.457031 12.636719 0.648438 L 11.804688 1.898438 C 11.726562 2.019531 11.59375 2.082031 11.457031 2.082031 Z M 11.457031 2.082031 "/>
</g>
</svg>
