<?xml version="1.0" encoding="UTF-8"?>
<svg xmlns="http://www.w3.org/2000/svg" xmlns:xlink="http://www.w3.org/1999/xlink" width="15pt" height="15pt" viewBox="0 0 15 15" version="1.1">
<g id="surface1">
<path style=" stroke:none;fill-rule:nonzero;fill:rgb(31.372549%,64.705882%,90.196078%);fill-opacity:1;" d="M 12.5 9.167969 C 11.25 9.167969 9.714844 12.121094 9.582031 13.332031 C 9.40625 14.964844 10.417969 15 10.417969 15 L 15 15 L 15 10.832031 C 15 10.832031 13.566406 9.167969 12.5 9.167969 Z M 12.5 9.167969 "/>
<path style=" stroke:none;fill-rule:nonzero;fill:rgb(10.980392%,38.823529%,60%);fill-opacity:1;" d="M 12.707031 9.761719 C 12.378906 9.570312 11.570312 10.363281 10.898438 11.53125 C 10.226562 12.695312 9.945312 13.792969 10.269531 13.980469 C 10.597656 14.167969 11.40625 13.378906 12.078125 12.210938 C 12.753906 11.046875 13.035156 9.949219 12.707031 9.761719 Z M 12.707031 9.761719 "/>
<path style=" stroke:none;fill-rule:nonzero;fill:rgb(93.333333%,76.078431%,67.843137%);fill-opacity:1;" d="M 8.371094 0 C 8.859375 0 9.261719 0.398438 9.261719 0.890625 C 9.261719 1.21875 9.539062 5.402344 9.539062 5.402344 L 7.476562 7.5 L 7.476562 0.890625 C 7.476562 0.398438 7.878906 0 8.371094 0 Z M 8.371094 0 "/>
<path style=" stroke:none;fill-rule:nonzero;fill:rgb(96.862745%,87.058824%,80.784314%);fill-opacity:1;" d="M 7.863281 1.800781 C 7.863281 1.34375 8.21875 0.972656 8.65625 0.972656 C 9.09375 0.972656 9.449219 1.34375 9.449219 1.800781 C 9.449219 1.800781 9.671875 4.277344 9.945312 5.707031 C 10.3125 6.484375 10.515625 7.65625 10.472656 8.308594 C 10.496094 8.472656 12.816406 10.394531 12.816406 10.394531 C 12.699219 11.148438 11.875 12.960938 10.832031 13.792969 L 9.367188 12.574219 C 8.164062 12.40625 7.507812 11.1875 7.507812 10.800781 C 7.507812 9.554688 7.863281 1.800781 7.863281 1.800781 Z M 7.863281 1.800781 "/>
<path style=" stroke:none;fill-rule:nonzero;fill:rgb(31.372549%,64.705882%,90.196078%);fill-opacity:1;" d="M 2.5 9.167969 C 3.75 9.167969 5.285156 12.121094 5.417969 13.332031 C 5.59375 14.964844 4.582031 15 4.582031 15 L 0 15 L 0 10.832031 C 0 10.832031 1.433594 9.167969 2.5 9.167969 Z M 2.5 9.167969 "/>
<path style=" stroke:none;fill-rule:nonzero;fill:rgb(10.980392%,38.823529%,60%);fill-opacity:1;" d="M 4.101562 11.527344 C 3.429688 10.363281 2.617188 9.570312 2.292969 9.761719 C 1.964844 9.949219 2.246094 11.046875 2.917969 12.210938 C 3.59375 13.375 4.402344 14.167969 4.730469 13.980469 C 5.054688 13.792969 4.773438 12.695312 4.101562 11.527344 Z M 4.101562 11.527344 "/>
<path style=" stroke:none;fill-rule:nonzero;fill:rgb(93.333333%,76.078431%,67.843137%);fill-opacity:1;" d="M 6.691406 0.00390625 C 6.164062 -0.046875 5.71875 0.363281 5.71875 0.878906 C 5.71875 1.207031 5.644531 5.179688 5.644531 5.179688 L 7.457031 7.5 L 7.480469 0.929688 C 7.480469 0.46875 7.152344 0.0507812 6.691406 0.00390625 Z M 6.691406 0.00390625 "/>
<path style=" stroke:none;fill-rule:nonzero;fill:rgb(96.862745%,87.058824%,80.784314%);fill-opacity:1;" d="M 7.136719 1.800781 C 7.136719 1.34375 6.78125 0.972656 6.34375 0.972656 C 5.90625 0.972656 5.550781 1.34375 5.550781 1.800781 C 5.550781 1.800781 5.328125 4.277344 5.054688 5.707031 C 4.6875 6.484375 4.484375 7.65625 4.527344 8.308594 C 4.503906 8.472656 2.183594 10.394531 2.183594 10.394531 C 2.300781 11.148438 3.125 12.960938 4.167969 13.792969 L 5.632812 12.574219 C 6.835938 12.40625 7.492188 11.1875 7.492188 10.800781 C 7.492188 9.554688 7.136719 1.800781 7.136719 1.800781 Z M 7.136719 1.800781 "/>
<path style=" stroke:none;fill-rule:nonzero;fill:rgb(93.333333%,76.078431%,67.843137%);fill-opacity:1;" d="M 7.5 10.757812 C 7.328125 10.757812 7.1875 10.621094 7.1875 10.445312 L 7.1875 1.164062 C 7.1875 0.992188 7.328125 0.851562 7.5 0.851562 C 7.671875 0.851562 7.8125 0.992188 7.8125 1.164062 L 7.8125 10.445312 C 7.8125 10.621094 7.671875 10.757812 7.5 10.757812 Z M 7.5 10.757812 "/>
</g>
</svg>
