<?xml version="1.0" encoding="UTF-8"?>
<svg xmlns="http://www.w3.org/2000/svg" xmlns:xlink="http://www.w3.org/1999/xlink" width="15pt" height="15pt" viewBox="0 0 15 15" version="1.1">
<g id="surface1">
<path style=" stroke:none;fill-rule:nonzero;fill:rgb(74.901961%,41.176471%,32.156863%);fill-opacity:1;" d="M 7.910156 14.582031 L 7.089844 14.582031 C 4.382812 14.582031 1.753906 12.507812 1.753906 9.601562 C 1.753906 7.941406 2.371094 7.109375 2.371094 7.109375 C 2.371094 7.109375 2.164062 6.28125 2.164062 5.449219 C 2.164062 2.960938 4.792969 0.882812 7.5 0.882812 C 10.207031 0.882812 12.835938 3.375 12.835938 5.449219 C 12.835938 6.28125 12.628906 7.109375 12.628906 7.109375 C 12.628906 7.109375 13.246094 7.941406 13.246094 9.601562 C 13.246094 12.507812 10.617188 14.582031 7.910156 14.582031 Z M 7.910156 14.582031 "/>
<path style=" stroke:none;fill-rule:nonzero;fill:rgb(84.313725%,61.960784%,51.764706%);fill-opacity:1;" d="M 12.359375 6.40625 C 12.359375 4.820312 11.074219 3.535156 9.488281 3.535156 C 8.714844 3.535156 8.015625 3.84375 7.5 4.339844 C 6.984375 3.839844 6.285156 3.535156 5.511719 3.535156 C 3.925781 3.535156 2.640625 4.820312 2.640625 6.40625 C 2.640625 7.371094 3.113281 8.21875 3.839844 8.742188 C 3.636719 9.246094 3.523438 9.800781 3.523438 10.386719 C 3.523438 12.703125 5.304688 14.140625 7.5 14.140625 C 9.695312 14.140625 11.476562 12.703125 11.476562 10.386719 C 11.476562 9.800781 11.363281 9.246094 11.160156 8.742188 C 11.886719 8.21875 12.359375 7.371094 12.359375 6.40625 Z M 12.359375 6.40625 "/>
<path style=" stroke:none;fill-rule:nonzero;fill:rgb(16.078431%,18.431373%,20%);fill-opacity:1;" d="M 6.25 7.082031 C 6.25 6.394531 5.875 5.832031 5.417969 5.832031 C 4.957031 5.832031 4.582031 6.394531 4.582031 7.082031 C 4.582031 7.773438 4.957031 8.332031 5.417969 8.332031 C 5.875 8.332031 6.25 7.773438 6.25 7.082031 Z M 6.25 7.082031 "/>
<path style=" stroke:none;fill-rule:nonzero;fill:rgb(16.078431%,18.431373%,20%);fill-opacity:1;" d="M 10.417969 7.082031 C 10.417969 6.394531 10.042969 5.832031 9.582031 5.832031 C 9.125 5.832031 8.75 6.394531 8.75 7.082031 C 8.75 7.773438 9.125 8.332031 9.582031 8.332031 C 10.042969 8.332031 10.417969 7.773438 10.417969 7.082031 Z M 10.417969 7.082031 "/>
<path style=" stroke:none;fill-rule:nonzero;fill:rgb(39.215686%,12.941176%,8.627451%);fill-opacity:1;" d="M 7.5 13.125 C 8.632812 13.125 9.59375 12.550781 9.957031 11.746094 C 10.105469 11.414062 9.851562 11.042969 9.472656 11.042969 L 5.527344 11.042969 C 5.148438 11.042969 4.894531 11.414062 5.042969 11.746094 C 5.40625 12.550781 6.367188 13.125 7.5 13.125 Z M 7.5 13.125 "/>
<path style=" stroke:none;fill-rule:nonzero;fill:rgb(39.215686%,12.941176%,8.627451%);fill-opacity:1;" d="M 7.292969 9.167969 C 7.292969 8.921875 7.105469 8.722656 6.875 8.722656 C 6.644531 8.722656 6.457031 8.921875 6.457031 9.167969 C 6.457031 9.410156 6.644531 9.609375 6.875 9.609375 C 7.105469 9.609375 7.292969 9.410156 7.292969 9.167969 Z M 7.292969 9.167969 "/>
<path style=" stroke:none;fill-rule:nonzero;fill:rgb(39.215686%,12.941176%,8.627451%);fill-opacity:1;" d="M 8.542969 9.167969 C 8.542969 9.398438 8.355469 9.582031 8.125 9.582031 C 7.894531 9.582031 7.707031 9.398438 7.707031 9.167969 C 7.707031 8.9375 7.894531 8.75 8.125 8.75 C 8.355469 8.75 8.542969 8.9375 8.542969 9.167969 Z M 8.542969 9.167969 "/>
<path style=" stroke:none;fill-rule:nonzero;fill:rgb(74.901961%,41.176471%,32.156863%);fill-opacity:1;" d="M 9.265625 0.0703125 C 9.265625 0.0703125 7.058594 -0.371094 6.175781 0.953125 C 5.289062 2.28125 7.941406 1.398438 7.941406 1.398438 C 7.941406 1.398438 8.382812 0.0703125 9.265625 0.0703125 Z M 9.265625 0.0703125 "/>
<path style=" stroke:none;fill-rule:nonzero;fill:rgb(60.784314%,23.529412%,2.745098%);fill-opacity:1;" d="M 3.75 13.332031 C 3.800781 13.605469 4.492188 13.917969 4.492188 13.917969 L 4.167969 7.914062 L 3.332031 10 C 3.332031 10 3.699219 13.058594 3.75 13.332031 Z M 11.25 13.332031 C 11.171875 13.632812 10.519531 13.90625 10.519531 13.90625 L 10.832031 7.914062 L 11.667969 10 C 11.667969 10 11.328125 13.03125 11.25 13.332031 Z M 11.25 13.332031 "/>
<path style=" stroke:none;fill-rule:nonzero;fill:rgb(74.901961%,41.176471%,32.156863%);fill-opacity:1;" d="M 0.832031 15 L 4.167969 15 L 3.746094 8.402344 L 2.078125 6.667969 Z M 14.167969 15 L 10.832031 15 L 11.25 8.402344 L 12.917969 6.667969 Z M 14.167969 15 "/>
<path style=" stroke:none;fill-rule:nonzero;fill:rgb(84.313725%,61.960784%,51.764706%);fill-opacity:1;" d="M 12.753906 6.273438 C 12.753906 6.273438 12.835938 5.242188 13.253906 4.796875 C 13.792969 4.214844 14.449219 4.664062 14.398438 5.480469 C 14.214844 8.433594 13.566406 9.242188 12.722656 9.726562 C 11.882812 10.214844 10.726562 10.121094 9.507812 8.949219 C 8.285156 7.773438 7.773438 7.050781 7.628906 6.53125 C 7.484375 6.015625 8.027344 5.59375 8.492188 5.855469 C 8.910156 6.09375 9.539062 6.820312 9.539062 6.820312 C 9.539062 6.820312 8.726562 5.695312 8.609375 5.261719 C 8.453125 4.660156 9.160156 4.300781 9.546875 4.632812 C 9.925781 4.960938 10.710938 5.949219 10.710938 5.949219 C 10.710938 5.949219 10.042969 4.921875 9.980469 4.425781 C 9.917969 3.9375 10.496094 3.507812 11.007812 3.933594 C 11.515625 4.359375 12.335938 5.585938 12.753906 6.273438 Z M 2.246094 6.273438 C 2.246094 6.273438 2.164062 5.242188 1.746094 4.796875 C 1.207031 4.214844 0.550781 4.664062 0.601562 5.480469 C 0.785156 8.433594 1.433594 9.242188 2.277344 9.726562 C 3.117188 10.214844 4.273438 10.121094 5.492188 8.949219 C 6.714844 7.773438 7.226562 7.050781 7.371094 6.53125 C 7.515625 6.015625 6.972656 5.59375 6.507812 5.855469 C 6.089844 6.09375 5.460938 6.820312 5.460938 6.820312 C 5.460938 6.820312 6.273438 5.695312 6.390625 5.261719 C 6.546875 4.660156 5.839844 4.300781 5.453125 4.632812 C 5.074219 4.960938 4.289062 5.949219 4.289062 5.949219 C 4.289062 5.949219 4.957031 4.921875 5.019531 4.425781 C 5.082031 3.9375 4.503906 3.507812 3.992188 3.933594 C 3.484375 4.359375 2.664062 5.585938 2.246094 6.273438 Z M 2.246094 6.273438 "/>
<path style=" stroke:none;fill-rule:nonzero;fill:rgb(74.901961%,41.176471%,32.156863%);fill-opacity:1;" d="M 11.699219 10.214844 C 10.9375 10.214844 10.128906 9.835938 9.363281 9.097656 C 8.199219 7.976562 7.601562 7.203125 7.429688 6.589844 C 7.339844 6.269531 7.441406 5.941406 7.703125 5.738281 C 7.949219 5.546875 8.269531 5.515625 8.550781 5.652344 C 8.484375 5.523438 8.433594 5.40625 8.410156 5.316406 C 8.316406 4.960938 8.449219 4.621094 8.753906 4.429688 C 9.054688 4.238281 9.429688 4.257812 9.683594 4.476562 C 9.71875 4.507812 9.757812 4.542969 9.796875 4.582031 C 9.785156 4.535156 9.777344 4.492188 9.773438 4.453125 C 9.730469 4.128906 9.902344 3.804688 10.191406 3.648438 C 10.492188 3.484375 10.847656 3.53125 11.140625 3.773438 C 11.605469 4.164062 12.257812 5.109375 12.632812 5.695312 C 12.710938 5.347656 12.851562 4.917969 13.097656 4.652344 C 13.382812 4.351562 13.738281 4.25 14.054688 4.382812 C 14.421875 4.542969 14.636719 4.976562 14.605469 5.492188 C 14.421875 8.421875 13.789062 9.355469 12.828125 9.910156 C 12.472656 10.113281 12.09375 10.214844 11.699219 10.214844 Z M 8.191406 5.984375 C 8.109375 5.984375 8.027344 6.011719 7.957031 6.066406 C 7.832031 6.164062 7.785156 6.316406 7.828125 6.476562 C 7.976562 7 8.574219 7.761719 9.652344 8.796875 C 10.683594 9.789062 11.734375 10.054688 12.621094 9.546875 C 13.308594 9.148438 14 8.507812 14.1875 5.464844 C 14.214844 5.082031 14.054688 4.839844 13.890625 4.765625 C 13.742188 4.703125 13.566406 4.765625 13.402344 4.9375 C 13.105469 5.257812 12.984375 6.023438 12.960938 6.289062 C 12.953125 6.378906 12.890625 6.453125 12.800781 6.476562 C 12.714844 6.496094 12.621094 6.457031 12.574219 6.378906 C 12.175781 5.722656 11.363281 4.503906 10.871094 4.09375 C 10.65625 3.914062 10.476562 3.964844 10.390625 4.011719 C 10.25 4.089844 10.167969 4.246094 10.1875 4.402344 C 10.230469 4.769531 10.707031 5.558594 10.886719 5.835938 C 10.945312 5.929688 10.921875 6.050781 10.832031 6.117188 C 10.742188 6.183594 10.617188 6.164062 10.546875 6.078125 C 10.539062 6.070312 9.773438 5.101562 9.410156 4.792969 C 9.28125 4.679688 9.09375 4.707031 8.972656 4.78125 C 8.902344 4.828125 8.746094 4.957031 8.8125 5.207031 C 8.898438 5.535156 9.484375 6.394531 9.707031 6.699219 C 9.769531 6.789062 9.753906 6.914062 9.667969 6.984375 C 9.578125 7.050781 9.453125 7.039062 9.378906 6.957031 C 9.210938 6.761719 8.707031 6.21875 8.390625 6.039062 C 8.324219 6.003906 8.257812 5.984375 8.191406 5.984375 Z M 8.191406 5.984375 "/>
<path style=" stroke:none;fill-rule:nonzero;fill:rgb(74.901961%,41.176471%,32.156863%);fill-opacity:1;" d="M 3.300781 10.214844 C 2.90625 10.214844 2.527344 10.113281 2.171875 9.910156 C 1.210938 9.355469 0.578125 8.421875 0.394531 5.492188 C 0.363281 4.976562 0.578125 4.542969 0.945312 4.382812 C 1.257812 4.25 1.617188 4.351562 1.898438 4.652344 C 2.148438 4.917969 2.285156 5.347656 2.363281 5.695312 C 2.742188 5.113281 3.394531 4.164062 3.859375 3.773438 C 4.152344 3.53125 4.507812 3.484375 4.808594 3.648438 C 5.097656 3.804688 5.265625 4.128906 5.226562 4.453125 C 5.222656 4.492188 5.214844 4.535156 5.203125 4.582031 C 5.242188 4.542969 5.28125 4.507812 5.316406 4.476562 C 5.570312 4.257812 5.945312 4.238281 6.246094 4.429688 C 6.550781 4.621094 6.683594 4.960938 6.589844 5.316406 C 6.566406 5.40625 6.515625 5.523438 6.449219 5.652344 C 6.730469 5.515625 7.050781 5.546875 7.296875 5.738281 C 7.558594 5.941406 7.660156 6.269531 7.570312 6.589844 C 7.398438 7.207031 6.800781 7.980469 5.636719 9.097656 C 4.871094 9.835938 4.0625 10.214844 3.300781 10.214844 Z M 1.230469 4.742188 C 1.1875 4.742188 1.148438 4.75 1.109375 4.765625 C 0.945312 4.839844 0.785156 5.082031 0.808594 5.464844 C 1 8.507812 1.691406 9.148438 2.378906 9.546875 C 3.265625 10.054688 4.316406 9.789062 5.347656 8.796875 C 6.425781 7.761719 7.023438 7 7.171875 6.476562 C 7.214844 6.316406 7.167969 6.164062 7.039062 6.066406 C 6.914062 5.96875 6.753906 5.957031 6.609375 6.039062 C 6.292969 6.21875 5.789062 6.761719 5.621094 6.957031 C 5.546875 7.039062 5.417969 7.050781 5.332031 6.980469 C 5.246094 6.914062 5.226562 6.785156 5.292969 6.695312 C 5.511719 6.394531 6.101562 5.53125 6.1875 5.207031 C 6.253906 4.957031 6.097656 4.824219 6.027344 4.78125 C 5.90625 4.707031 5.71875 4.679688 5.589844 4.792969 C 5.226562 5.101562 4.460938 6.066406 4.453125 6.078125 C 4.382812 6.164062 4.257812 6.183594 4.167969 6.117188 C 4.078125 6.050781 4.054688 5.925781 4.113281 5.835938 C 4.292969 5.558594 4.769531 4.765625 4.8125 4.402344 C 4.832031 4.246094 4.75 4.089844 4.609375 4.011719 C 4.523438 3.964844 4.34375 3.910156 4.128906 4.09375 C 3.699219 4.449219 2.945312 5.53125 2.425781 6.378906 C 2.378906 6.457031 2.289062 6.496094 2.199219 6.472656 C 2.109375 6.453125 2.046875 6.378906 2.039062 6.289062 C 2.015625 6.019531 1.894531 5.257812 1.597656 4.9375 C 1.472656 4.808594 1.347656 4.742188 1.230469 4.742188 Z M 1.230469 4.742188 "/>
<path style=" stroke:none;fill-rule:nonzero;fill:rgb(60.784314%,23.529412%,2.745098%);fill-opacity:1;" d="M 10.828125 4.066406 C 10.84375 4.078125 10.855469 4.082031 10.871094 4.09375 C 11.363281 4.503906 12.175781 5.722656 12.574219 6.378906 C 12.613281 6.441406 12.679688 6.46875 12.75 6.46875 C 12.839844 6.03125 12.863281 5.519531 12.859375 5.03125 C 12.757812 5.246094 12.683594 5.484375 12.636719 5.695312 C 12.257812 5.109375 11.605469 4.164062 11.140625 3.773438 C 10.863281 3.542969 10.527344 3.492188 10.234375 3.632812 C 10.515625 3.726562 10.703125 3.886719 10.828125 4.066406 Z M 2.425781 6.378906 C 2.945312 5.53125 3.699219 4.453125 4.128906 4.09375 C 4.15625 4.070312 4.183594 4.058594 4.210938 4.042969 C 4.335938 3.875 4.515625 3.726562 4.777344 3.636719 C 4.480469 3.492188 4.140625 3.539062 3.859375 3.773438 C 3.394531 4.164062 2.742188 5.113281 2.363281 5.695312 C 2.320312 5.5 2.253906 5.277344 2.160156 5.074219 C 2.160156 5.550781 2.183594 6.042969 2.273438 6.46875 C 2.332031 6.460938 2.390625 6.433594 2.425781 6.378906 Z M 2.425781 6.378906 "/>
</g>
</svg>
