<?xml version="1.0" encoding="UTF-8"?>
<svg xmlns="http://www.w3.org/2000/svg" xmlns:xlink="http://www.w3.org/1999/xlink" width="15pt" height="15pt" viewBox="0 0 15 15" version="1.1">
<g id="surface1">
<path style=" stroke:none;fill-rule:nonzero;fill:rgb(84.313725%,61.960784%,51.764706%);fill-opacity:1;" d="M 3.902344 6.703125 C 3.597656 5.515625 2.6875 4.71875 1.867188 4.929688 C 1.046875 5.136719 0.628906 6.273438 0.933594 7.460938 C 1.234375 8.652344 2.144531 9.445312 2.964844 9.238281 C 3.785156 9.027344 4.207031 7.894531 3.902344 6.703125 Z M 3.902344 6.703125 "/>
<path style=" stroke:none;fill-rule:nonzero;fill:rgb(84.313725%,61.960784%,51.764706%);fill-opacity:1;" d="M 13.132812 4.929688 C 12.3125 4.71875 11.402344 5.515625 11.097656 6.707031 C 10.796875 7.894531 11.214844 9.027344 12.035156 9.238281 C 12.855469 9.445312 13.765625 8.652344 14.066406 7.460938 C 14.371094 6.273438 13.953125 5.140625 13.132812 4.929688 Z M 13.132812 4.929688 "/>
<path style=" stroke:none;fill-rule:nonzero;fill:rgb(74.901961%,41.176471%,32.156863%);fill-opacity:1;" d="M 7.910156 14.582031 L 7.089844 14.582031 C 4.382812 14.582031 1.753906 12.507812 1.753906 9.601562 C 1.753906 7.941406 2.371094 7.109375 2.371094 7.109375 C 2.371094 7.109375 2.164062 6.28125 2.164062 5.449219 C 2.164062 2.960938 4.792969 0.882812 7.5 0.882812 C 10.207031 0.882812 12.835938 3.375 12.835938 5.449219 C 12.835938 6.28125 12.628906 7.109375 12.628906 7.109375 C 12.628906 7.109375 13.246094 7.941406 13.246094 9.601562 C 13.246094 12.507812 10.617188 14.582031 7.910156 14.582031 Z M 7.910156 14.582031 "/>
<path style=" stroke:none;fill-rule:nonzero;fill:rgb(74.901961%,41.176471%,32.156863%);fill-opacity:1;" d="M 9.265625 0.0703125 C 9.265625 0.0703125 7.058594 -0.371094 6.175781 0.953125 C 5.289062 2.28125 7.941406 1.398438 7.941406 1.398438 C 7.941406 1.398438 8.382812 0.0703125 9.265625 0.0703125 Z M 9.265625 0.0703125 "/>
<path style=" stroke:none;fill-rule:nonzero;fill:rgb(84.313725%,61.960784%,51.764706%);fill-opacity:1;" d="M 12.359375 6.40625 C 12.359375 4.820312 11.074219 3.535156 9.488281 3.535156 C 8.714844 3.535156 8.015625 3.84375 7.5 4.339844 C 6.984375 3.839844 6.285156 3.535156 5.511719 3.535156 C 3.925781 3.535156 2.640625 4.820312 2.640625 6.40625 C 2.640625 7.371094 3.113281 8.21875 3.839844 8.742188 C 3.636719 9.246094 3.523438 9.800781 3.523438 10.386719 C 3.523438 12.703125 5.304688 14.140625 7.5 14.140625 C 9.695312 14.140625 11.476562 12.703125 11.476562 10.386719 C 11.476562 9.800781 11.363281 9.246094 11.160156 8.742188 C 11.886719 8.21875 12.359375 7.371094 12.359375 6.40625 Z M 12.359375 6.40625 "/>
<path style=" stroke:none;fill-rule:nonzero;fill:rgb(16.078431%,18.431373%,20%);fill-opacity:1;" d="M 6.25 7.082031 C 6.25 6.394531 5.875 5.832031 5.417969 5.832031 C 4.957031 5.832031 4.582031 6.394531 4.582031 7.082031 C 4.582031 7.773438 4.957031 8.332031 5.417969 8.332031 C 5.875 8.332031 6.25 7.773438 6.25 7.082031 Z M 6.25 7.082031 "/>
<path style=" stroke:none;fill-rule:nonzero;fill:rgb(16.078431%,18.431373%,20%);fill-opacity:1;" d="M 10.417969 7.082031 C 10.417969 6.394531 10.042969 5.832031 9.582031 5.832031 C 9.125 5.832031 8.75 6.394531 8.75 7.082031 C 8.75 7.773438 9.125 8.332031 9.582031 8.332031 C 10.042969 8.332031 10.417969 7.773438 10.417969 7.082031 Z M 10.417969 7.082031 "/>
<path style=" stroke:none;fill-rule:nonzero;fill:rgb(39.215686%,12.941176%,8.627451%);fill-opacity:1;" d="M 7.5 13.125 C 8.632812 13.125 9.59375 12.550781 9.957031 11.746094 C 10.105469 11.414062 9.851562 11.042969 9.472656 11.042969 L 5.527344 11.042969 C 5.148438 11.042969 4.894531 11.414062 5.042969 11.746094 C 5.40625 12.550781 6.367188 13.125 7.5 13.125 Z M 7.5 13.125 "/>
<path style=" stroke:none;fill-rule:nonzero;fill:rgb(39.215686%,12.941176%,8.627451%);fill-opacity:1;" d="M 7.292969 9.167969 C 7.292969 8.921875 7.105469 8.722656 6.875 8.722656 C 6.644531 8.722656 6.457031 8.921875 6.457031 9.167969 C 6.457031 9.410156 6.644531 9.609375 6.875 9.609375 C 7.105469 9.609375 7.292969 9.410156 7.292969 9.167969 Z M 7.292969 9.167969 "/>
<path style=" stroke:none;fill-rule:nonzero;fill:rgb(39.215686%,12.941176%,8.627451%);fill-opacity:1;" d="M 8.542969 9.167969 C 8.542969 9.398438 8.355469 9.582031 8.125 9.582031 C 7.894531 9.582031 7.707031 9.398438 7.707031 9.167969 C 7.707031 8.9375 7.894531 8.75 8.125 8.75 C 8.355469 8.75 8.542969 8.9375 8.542969 9.167969 Z M 8.542969 9.167969 "/>
<path style=" stroke:none;fill-rule:nonzero;fill:rgb(74.901961%,41.176471%,32.156863%);fill-opacity:1;" d="M 2.863281 9.683594 C 3.113281 9.148438 3.230469 8.71875 3.230469 8.332031 C 3.230469 7.789062 2.976562 7.265625 2.773438 6.847656 C 2.660156 6.609375 2.542969 6.367188 2.542969 6.25 C 2.542969 6.167969 2.601562 5.917969 2.652344 5.699219 C 2.816406 5.015625 3.015625 4.167969 2.765625 3.761719 C 2.703125 3.660156 2.582031 3.542969 2.371094 3.542969 C 1.558594 3.542969 0.3125 5.316406 0.3125 7.5 C 0.3125 8.574219 0.386719 9.242188 0.542969 9.628906 L 0.207031 15 L 3.125 15 L 2.777344 9.816406 C 2.8125 9.777344 2.839844 9.734375 2.863281 9.683594 Z M 2.863281 9.683594 "/>
<path style=" stroke:none;fill-rule:nonzero;fill:rgb(60.784314%,23.529412%,2.745098%);fill-opacity:1;" d="M 2.863281 9.683594 C 3.113281 9.148438 3.230469 8.71875 3.230469 8.332031 C 3.230469 7.789062 2.976562 7.265625 2.773438 6.847656 C 2.660156 6.609375 2.542969 6.367188 2.542969 6.25 C 2.542969 6.167969 2.601562 5.917969 2.652344 5.699219 C 2.816406 5.015625 3.015625 4.167969 2.765625 3.761719 C 2.738281 3.71875 2.699219 3.675781 2.648438 3.636719 C 2.34375 4.195312 2.164062 4.808594 2.164062 5.449219 C 2.164062 6.28125 2.082031 7.941406 2.082031 9.601562 C 2.082031 9.734375 2.917969 15 2.917969 15 L 3.125 15 L 2.777344 9.804688 C 2.808594 9.765625 2.84375 9.730469 2.863281 9.683594 Z M 2.863281 9.683594 "/>
<path style=" stroke:none;fill-rule:nonzero;fill:rgb(84.313725%,61.960784%,51.764706%);fill-opacity:1;" d="M 2.371094 3.957031 C 1.800781 3.957031 0.65625 5.488281 0.65625 7.5 C 0.65625 8.558594 0.734375 9.238281 0.882812 9.519531 C 0.992188 9.71875 1.296875 9.71875 1.589844 9.714844 L 1.683594 9.714844 C 2.167969 9.714844 2.511719 9.597656 2.566406 9.480469 C 2.78125 9.015625 2.886719 8.636719 2.886719 8.332031 C 2.886719 7.902344 2.667969 7.453125 2.480469 7.058594 C 2.324219 6.734375 2.199219 6.480469 2.199219 6.25 C 2.199219 6.117188 2.246094 5.921875 2.324219 5.582031 C 2.433594 5.117188 2.640625 4.253906 2.488281 4.011719 C 2.480469 3.996094 2.457031 3.957031 2.371094 3.957031 Z M 2.371094 3.957031 "/>
<path style=" stroke:none;fill-rule:nonzero;fill:rgb(74.901961%,41.176471%,32.156863%);fill-opacity:1;" d="M 14.792969 15 L 14.457031 9.628906 C 14.613281 9.242188 14.6875 8.574219 14.6875 7.5 C 14.6875 5.316406 13.441406 3.542969 12.628906 3.542969 C 12.417969 3.542969 12.296875 3.660156 12.234375 3.761719 C 11.984375 4.167969 12.183594 5.015625 12.347656 5.699219 C 12.398438 5.917969 12.457031 6.167969 12.457031 6.25 C 12.457031 6.367188 12.339844 6.609375 12.226562 6.847656 C 12.023438 7.265625 11.769531 7.789062 11.769531 8.332031 C 11.769531 8.71875 11.886719 9.148438 12.136719 9.683594 C 12.160156 9.734375 12.1875 9.777344 12.222656 9.816406 L 11.875 15 Z M 14.792969 15 "/>
<path style=" stroke:none;fill-rule:nonzero;fill:rgb(60.784314%,23.529412%,2.745098%);fill-opacity:1;" d="M 12.917969 9.601562 C 12.917969 7.941406 12.835938 6.28125 12.835938 5.449219 C 12.835938 4.878906 12.628906 4.273438 12.28125 3.699219 C 12.265625 3.722656 12.25 3.742188 12.234375 3.761719 C 11.984375 4.167969 12.183594 5.015625 12.347656 5.699219 C 12.398438 5.917969 12.457031 6.167969 12.457031 6.25 C 12.457031 6.367188 12.339844 6.609375 12.226562 6.847656 C 12.023438 7.265625 11.769531 7.789062 11.769531 8.332031 C 11.769531 8.71875 11.886719 9.148438 12.136719 9.683594 C 12.15625 9.730469 12.191406 9.765625 12.226562 9.804688 L 11.875 15 L 12.082031 15 C 12.082031 15 12.917969 9.734375 12.917969 9.601562 Z M 12.917969 9.601562 "/>
<path style=" stroke:none;fill-rule:nonzero;fill:rgb(84.313725%,61.960784%,51.764706%);fill-opacity:1;" d="M 12.628906 3.957031 C 12.542969 3.957031 12.519531 3.996094 12.511719 4.011719 C 12.359375 4.253906 12.566406 5.117188 12.675781 5.582031 C 12.753906 5.921875 12.800781 6.117188 12.800781 6.25 C 12.800781 6.480469 12.675781 6.734375 12.519531 7.058594 C 12.328125 7.453125 12.113281 7.902344 12.113281 8.332031 C 12.113281 8.636719 12.21875 9.015625 12.433594 9.480469 C 12.488281 9.59375 12.832031 9.714844 13.316406 9.714844 L 13.410156 9.714844 C 13.703125 9.71875 14.007812 9.71875 14.113281 9.519531 C 14.265625 9.238281 14.34375 8.558594 14.34375 7.5 C 14.34375 5.488281 13.199219 3.957031 12.628906 3.957031 Z M 12.628906 3.957031 "/>
</g>
</svg>
