<?xml version="1.0" encoding="UTF-8"?>
<svg xmlns="http://www.w3.org/2000/svg" xmlns:xlink="http://www.w3.org/1999/xlink" width="15pt" height="15pt" viewBox="0 0 15 15" version="1.1">
<g id="surface1">
<path style=" stroke:none;fill-rule:nonzero;fill:rgb(98.039216%,45.490196%,24.313725%);fill-opacity:1;" d="M 11.25 9.167969 L 3.75 9.167969 C 3.75 9.167969 0 9.167969 0 12.082031 C 0 13.398438 1.667969 15 1.667969 15 L 13.332031 15 C 13.332031 15 15 13.398438 15 12.082031 C 15 9.167969 11.25 9.167969 11.25 9.167969 Z M 11.25 9.167969 "/>
<path style=" stroke:none;fill-rule:nonzero;fill:rgb(58.823529%,23.137255%,13.333333%);fill-opacity:1;" d="M 9.128906 1.777344 C 8.285156 1.503906 6.304688 1.578125 5.8125 2.222656 C 4.523438 2.246094 3.015625 3.410156 2.816406 4.945312 C 2.621094 6.464844 3.058594 7.167969 3.210938 8.308594 C 3.386719 9.605469 4.117188 10.019531 4.695312 10.191406 C 5.535156 11.296875 6.421875 11.25 7.917969 11.25 C 10.832031 11.25 12.222656 9.296875 12.34375 5.984375 C 12.417969 3.980469 11.242188 2.460938 9.128906 1.777344 Z M 9.128906 1.777344 "/>
<path style=" stroke:none;fill-rule:nonzero;fill:rgb(80%,60.784314%,47.843137%);fill-opacity:1;" d="M 8.75 11.667969 C 8.75 12.355469 8.191406 12.917969 7.5 12.917969 C 6.808594 12.917969 6.25 12.355469 6.25 11.667969 C 6.25 10.976562 6.808594 10.417969 7.5 10.417969 C 8.191406 10.417969 8.75 10.976562 8.75 11.667969 Z M 8.75 11.667969 "/>
<path style=" stroke:none;fill-rule:nonzero;fill:rgb(83.137255%,67.058824%,53.333333%);fill-opacity:1;" d="M 10.789062 6.535156 C 10.503906 6.144531 10.144531 5.832031 9.351562 5.71875 C 9.648438 5.855469 9.933594 6.324219 9.972656 6.585938 C 10.007812 6.84375 10.046875 7.054688 9.808594 6.796875 C 8.867188 5.753906 7.84375 6.164062 6.824219 5.527344 C 6.117188 5.085938 5.898438 4.59375 5.898438 4.59375 C 5.898438 4.59375 5.8125 5.25 4.734375 5.917969 C 4.421875 6.109375 4.050781 6.542969 3.84375 7.179688 C 3.695312 7.636719 3.742188 8.046875 3.742188 8.742188 C 3.742188 10.78125 5.421875 12.492188 7.492188 12.492188 C 9.5625 12.492188 11.242188 10.765625 11.242188 8.742188 C 11.242188 7.476562 11.109375 6.980469 10.789062 6.535156 Z M 7.082031 14.167969 L 5 13.75 L 4.167969 13.332031 L 2.917969 13.332031 L 2.5 15 L 7.082031 15 C 7.5 15 7.5 14.582031 7.5 14.582031 C 7.5 14.351562 7.082031 14.167969 7.082031 14.167969 Z M 10.832031 13.332031 L 10 13.75 L 7.917969 14.167969 C 7.917969 14.167969 7.5 14.351562 7.5 14.582031 C 7.5 14.582031 7.5 15 7.917969 15 L 12.5 15 L 12.082031 13.332031 Z M 10.832031 13.332031 "/>
<path style=" stroke:none;fill-rule:nonzero;fill:rgb(40%,12.941176%,7.45098%);fill-opacity:1;" d="M 9.167969 9.167969 C 8.9375 9.167969 8.75 8.980469 8.75 8.75 L 8.75 8.332031 C 8.75 8.101562 8.9375 7.917969 9.167969 7.917969 C 9.398438 7.917969 9.582031 8.101562 9.582031 8.332031 L 9.582031 8.75 C 9.582031 8.980469 9.398438 9.167969 9.167969 9.167969 Z M 5.832031 9.167969 C 5.601562 9.167969 5.417969 8.980469 5.417969 8.75 L 5.417969 8.332031 C 5.417969 8.101562 5.601562 7.917969 5.832031 7.917969 C 6.0625 7.917969 6.25 8.101562 6.25 8.332031 L 6.25 8.75 C 6.25 8.980469 6.0625 9.167969 5.832031 9.167969 Z M 5.832031 9.167969 "/>
<path style=" stroke:none;fill-rule:nonzero;fill:rgb(75.686275%,41.176471%,30.980392%);fill-opacity:1;" d="M 7.917969 11.042969 L 7.082031 11.042969 C 6.96875 11.042969 6.875 10.949219 6.875 10.832031 C 6.875 10.71875 6.96875 10.625 7.082031 10.625 L 7.917969 10.625 C 8.03125 10.625 8.125 10.71875 8.125 10.832031 C 8.125 10.949219 8.03125 11.042969 7.917969 11.042969 Z M 7.917969 11.042969 "/>
<path style=" stroke:none;fill-rule:nonzero;fill:rgb(36.470588%,67.843137%,92.54902%);fill-opacity:1;" d="M 2.292969 3.332031 C 2.203125 3.332031 2.117188 3.304688 2.042969 3.25 L 0.375 2 C 0.191406 1.863281 0.152344 1.601562 0.292969 1.417969 C 0.429688 1.234375 0.691406 1.195312 0.875 1.332031 L 2.542969 2.582031 C 2.726562 2.722656 2.761719 2.984375 2.625 3.167969 C 2.542969 3.277344 2.417969 3.332031 2.292969 3.332031 Z M 3.542969 2.082031 C 3.40625 2.082031 3.277344 2.019531 3.195312 1.898438 L 2.363281 0.648438 C 2.234375 0.457031 2.285156 0.199219 2.476562 0.0703125 C 2.667969 -0.0585938 2.925781 -0.00390625 3.054688 0.183594 L 3.886719 1.433594 C 4.015625 1.625 3.964844 1.886719 3.773438 2.011719 C 3.703125 2.0625 3.621094 2.082031 3.542969 2.082031 Z M 12.707031 3.332031 C 12.582031 3.332031 12.457031 3.277344 12.375 3.167969 C 12.238281 2.984375 12.273438 2.722656 12.457031 2.582031 L 14.125 1.332031 C 14.308594 1.195312 14.570312 1.234375 14.707031 1.417969 C 14.847656 1.601562 14.808594 1.863281 14.625 2 L 12.957031 3.25 C 12.882812 3.304688 12.796875 3.332031 12.707031 3.332031 Z M 11.457031 2.082031 C 11.378906 2.082031 11.296875 2.0625 11.226562 2.011719 C 11.035156 1.886719 10.984375 1.628906 11.113281 1.433594 L 11.945312 0.183594 C 12.074219 -0.00390625 12.332031 -0.0585938 12.523438 0.0703125 C 12.714844 0.199219 12.765625 0.457031 12.636719 0.648438 L 11.804688 1.898438 C 11.722656 2.019531 11.59375 2.082031 11.457031 2.082031 Z M 11.457031 2.082031 "/>
</g>
</svg>
