<?xml version="1.0" encoding="UTF-8"?>
<svg xmlns="http://www.w3.org/2000/svg" xmlns:xlink="http://www.w3.org/1999/xlink" width="15pt" height="15pt" viewBox="0 0 15 15" version="1.1">
<g id="surface1">
<path style=" stroke:none;fill-rule:nonzero;fill:rgb(100%,86.27451%,36.470588%);fill-opacity:1;" d="M 3.75 2.472656 L 3.75 7.082031 C 3.75 9.15625 5.429688 10.832031 7.5 10.832031 C 9.570312 10.832031 11.25 9.15625 11.25 7.082031 L 11.25 2.605469 Z M 3.75 2.472656 "/>
<path style=" stroke:none;fill-rule:nonzero;fill:rgb(75.686275%,41.176471%,30.980392%);fill-opacity:1;" d="M 5.832031 9.167969 L 9.167969 9.167969 C 9.167969 9.167969 8.75 10 7.5 10 C 6.25 10 5.832031 9.167969 5.832031 9.167969 Z M 5.832031 9.167969 "/>
<path style=" stroke:none;fill-rule:nonzero;fill:rgb(40%,12.941176%,7.45098%);fill-opacity:1;" d="M 5.832031 6.667969 C 5.601562 6.667969 5.417969 6.480469 5.417969 6.25 L 5.417969 5.832031 C 5.417969 5.601562 5.601562 5.417969 5.832031 5.417969 C 6.0625 5.417969 6.25 5.601562 6.25 5.832031 L 6.25 6.25 C 6.25 6.480469 6.0625 6.667969 5.832031 6.667969 Z M 9.167969 6.667969 C 8.9375 6.667969 8.75 6.480469 8.75 6.25 L 8.75 5.832031 C 8.75 5.601562 8.9375 5.417969 9.167969 5.417969 C 9.398438 5.417969 9.582031 5.601562 9.582031 5.832031 L 9.582031 6.25 C 9.582031 6.480469 9.398438 6.667969 9.167969 6.667969 Z M 9.167969 6.667969 "/>
<path style=" stroke:none;fill-rule:nonzero;fill:rgb(75.686275%,41.176471%,30.980392%);fill-opacity:1;" d="M 7.917969 8.125 L 7.082031 8.125 C 6.96875 8.125 6.875 8.03125 6.875 7.917969 C 6.875 7.800781 6.96875 7.707031 7.082031 7.707031 L 7.917969 7.707031 C 8.03125 7.707031 8.125 7.800781 8.125 7.917969 C 8.125 8.03125 8.03125 8.125 7.917969 8.125 Z M 7.917969 8.125 "/>
<path style=" stroke:none;fill-rule:nonzero;fill:rgb(100%,86.27451%,36.470588%);fill-opacity:1;" d="M 4.519531 5.714844 C 4.519531 6.371094 4.1875 6.90625 3.773438 6.90625 C 3.363281 6.90625 3.03125 6.371094 3.03125 5.714844 C 3.03125 5.054688 3.363281 4.523438 3.773438 4.523438 C 4.1875 4.523438 4.519531 5.054688 4.519531 5.714844 Z M 11.96875 5.714844 C 11.96875 6.371094 11.636719 6.90625 11.226562 6.90625 C 10.8125 6.90625 10.480469 6.371094 10.480469 5.714844 C 10.480469 5.054688 10.8125 4.523438 11.226562 4.523438 C 11.636719 4.523438 11.96875 5.054688 11.96875 5.714844 Z M 11.96875 5.714844 "/>
<path style=" stroke:none;fill-rule:nonzero;fill:rgb(100%,67.45098%,20%);fill-opacity:1;" d="M 7.5 0.34375 C 4.574219 0.34375 3.277344 2.292969 3.277344 3.921875 C 3.277344 5.546875 3.835938 6 3.925781 5.546875 C 4.25 3.921875 5.226562 3.421875 5.226562 3.421875 C 7.175781 5.046875 6.851562 3.746094 6.851562 3.746094 C 8.800781 5.699219 7.824219 3.746094 7.824219 3.746094 C 8.476562 4.398438 10.425781 4.398438 10.425781 4.398438 C 10.425781 4.398438 10.75 4.898438 11.074219 5.546875 C 11.398438 6.199219 11.722656 5.546875 11.722656 3.921875 C 11.722656 2.292969 10.097656 0.34375 7.5 0.34375 Z M 7.5 0.34375 "/>
<path style=" stroke:none;fill-rule:nonzero;fill:rgb(100%,86.27451%,36.470588%);fill-opacity:1;" d="M 5.175781 1.222656 C 4.929688 1.0625 4.597656 1.128906 4.433594 1.375 L 4.167969 1.785156 L 4.167969 0.832031 C 4.167969 0.371094 3.792969 0 3.332031 0 L 1.667969 0 C 1.207031 0 0.832031 0.375 0.832031 0.832031 L 0.832031 4.167969 C 0.832031 4.167969 0.832031 4.582031 1.25 4.582031 L 3.75 4.582031 L 4.167969 4.167969 L 4.167969 3.730469 L 5.328125 1.964844 C 5.492188 1.714844 5.421875 1.386719 5.175781 1.222656 Z M 5.175781 1.222656 "/>
<path style=" stroke:none;fill-rule:nonzero;fill:rgb(93.72549%,58.823529%,27.058824%);fill-opacity:1;" d="M 1.667969 0 L 2.082031 0 L 2.082031 2.082031 L 1.667969 2.082031 Z M 2.917969 0 L 3.332031 0 L 3.332031 2.082031 L 2.917969 2.082031 Z M 2.917969 0 "/>
<path style=" stroke:none;fill-rule:nonzero;fill:rgb(25.882353%,53.72549%,75.686275%);fill-opacity:1;" d="M 11.25 11.25 L 3.75 11.25 L 4.167969 4.167969 L 0.832031 4.167969 L 0.832031 11.25 C 0.832031 11.25 0.832031 15 4.167969 15 L 12.917969 15 L 12.917969 12.917969 C 12.917969 11.996094 12.171875 11.25 11.25 11.25 Z M 11.25 11.25 "/>
<path style=" stroke:none;fill-rule:nonzero;fill:rgb(16.470588%,40.392157%,59.215686%);fill-opacity:1;" d="M 10.832031 13.332031 L 11.25 13.332031 L 11.25 15 L 10.832031 15 Z M 10.832031 13.332031 "/>
<path style=" stroke:none;fill-rule:nonzero;fill:rgb(100%,86.27451%,36.470588%);fill-opacity:1;" d="M 6.25 10 L 6.25 11.667969 C 6.25 12.355469 6.808594 12.917969 7.5 12.917969 C 8.191406 12.917969 8.75 12.355469 8.75 11.667969 L 8.75 10 Z M 6.25 10 "/>
</g>
</svg>
