<?xml version="1.0" encoding="UTF-8"?>
<svg xmlns="http://www.w3.org/2000/svg" xmlns:xlink="http://www.w3.org/1999/xlink" width="15pt" height="15pt" viewBox="0 0 15 15" version="1.1">
<g id="surface1">
<path style=" stroke:none;fill-rule:nonzero;fill:rgb(100%,80%,30.196078%);fill-opacity:1;" d="M 15 7.5 C 15 11.640625 11.640625 15 7.5 15 C 3.359375 15 0 11.640625 0 7.5 C 0 3.359375 3.359375 0 7.5 0 C 11.640625 0 15 3.359375 15 7.5 Z M 15 7.5 "/>
<path style=" stroke:none;fill-rule:nonzero;fill:rgb(95.686275%,96.862745%,97.647059%);fill-opacity:1;" d="M 12.5 5.625 C 12.5 6.890625 11.472656 7.917969 10.207031 7.917969 C 8.941406 7.917969 7.917969 6.890625 7.917969 5.625 C 7.917969 4.359375 8.941406 3.332031 10.207031 3.332031 C 11.472656 3.332031 12.5 4.359375 12.5 5.625 Z M 12.5 5.625 "/>
<path style=" stroke:none;fill-rule:nonzero;fill:rgb(95.686275%,96.862745%,97.647059%);fill-opacity:1;" d="M 7.082031 5.625 C 7.082031 6.890625 6.058594 7.917969 4.792969 7.917969 C 3.527344 7.917969 2.5 6.890625 2.5 5.625 C 2.5 4.359375 3.527344 3.332031 4.792969 3.332031 C 6.058594 3.332031 7.082031 4.359375 7.082031 5.625 Z M 7.082031 5.625 "/>
<path style=" stroke:none;fill-rule:nonzero;fill:rgb(39.607843%,27.843137%,10.588235%);fill-opacity:1;" d="M 9.628906 9.761719 C 8.476562 9.480469 5.933594 9.734375 4.976562 11.59375 C 4.945312 11.660156 4.960938 11.742188 5.019531 11.789062 C 5.046875 11.8125 5.082031 11.824219 5.117188 11.824219 C 5.152344 11.824219 5.1875 11.8125 5.21875 11.785156 C 6.503906 10.710938 8.316406 10.710938 9.398438 10.710938 C 10.082031 10.710938 10.457031 10.710938 10.457031 10.417969 C 10.457031 10.121094 10.160156 9.886719 9.628906 9.761719 Z M 4.375 5.417969 C 4.949219 5.417969 5.417969 4.949219 5.417969 4.375 C 5.417969 3.851562 5.03125 3.425781 4.53125 3.347656 C 4.203125 3.386719 3.894531 3.496094 3.625 3.65625 C 3.445312 3.84375 3.332031 4.09375 3.332031 4.375 C 3.332031 4.949219 3.800781 5.417969 4.375 5.417969 Z M 9.792969 5.417969 C 10.367188 5.417969 10.832031 4.949219 10.832031 4.375 C 10.832031 3.851562 10.449219 3.425781 9.949219 3.347656 C 9.621094 3.386719 9.3125 3.496094 9.042969 3.65625 C 8.863281 3.84375 8.75 4.09375 8.75 4.375 C 8.75 4.949219 9.214844 5.417969 9.792969 5.417969 Z M 9.792969 5.417969 "/>
</g>
</svg>
