<?xml version="1.0" encoding="UTF-8"?>
<svg xmlns="http://www.w3.org/2000/svg" xmlns:xlink="http://www.w3.org/1999/xlink" width="15pt" height="15pt" viewBox="0 0 15 15" version="1.1">
<g id="surface1">
<path style=" stroke:none;fill-rule:nonzero;fill:rgb(68.627451%,49.411765%,34.117647%);fill-opacity:1;" d="M 1.25 10.832031 L 4.582031 10.832031 L 4.582031 15 L 1.25 15 Z M 10.417969 10.832031 L 13.75 10.832031 L 13.75 15 L 10.417969 15 Z M 10.417969 10.832031 "/>
<path style=" stroke:none;fill-rule:nonzero;fill:rgb(60.784314%,41.568627%,28.627451%);fill-opacity:1;" d="M 13.75 11.964844 C 13.75 11.964844 12.5 12.800781 10.417969 12.382812 L 10.417969 10.300781 L 13.75 10.300781 Z M 1.25 11.964844 C 1.25 11.964844 2.5 12.800781 4.582031 12.382812 L 4.582031 10.300781 L 1.25 10.300781 Z M 1.25 11.964844 "/>
<path style=" stroke:none;fill-rule:nonzero;fill:rgb(56.470588%,37.647059%,24.313725%);fill-opacity:1;" d="M 1.660156 7.542969 L 4.992188 7.542969 L 4.992188 10.875 L 1.660156 10.875 Z M 10.003906 7.542969 L 13.335938 7.542969 L 13.335938 10.875 L 10.003906 10.875 Z M 10.003906 7.542969 "/>
<path style=" stroke:none;fill-rule:nonzero;fill:rgb(68.627451%,49.411765%,34.117647%);fill-opacity:1;" d="M 0.15625 4.929688 C 0.15625 4.929688 0.15625 4.421875 0.667969 4.421875 C 1.175781 4.421875 1.175781 4.933594 1.175781 4.933594 L 1.167969 7.300781 C 1.25 7.265625 1.335938 7.230469 1.421875 7.203125 L 1.433594 3.914062 C 1.433594 3.914062 1.433594 3.40625 1.945312 3.40625 C 2.453125 3.40625 2.453125 3.917969 2.453125 3.917969 L 2.445312 7.011719 C 2.527344 7.003906 2.613281 6.996094 2.699219 6.992188 L 2.710938 3.410156 C 2.710938 3.410156 2.710938 2.898438 3.222656 2.898438 C 3.734375 2.902344 3.730469 3.410156 3.730469 3.410156 L 3.71875 6.996094 C 3.808594 7 3.890625 7.007812 3.976562 7.015625 L 3.984375 3.667969 C 3.984375 3.667969 3.988281 3.15625 4.496094 3.160156 C 5.007812 3.160156 5.003906 3.671875 5.003906 3.671875 L 4.996094 7.210938 L 4.992188 7.496094 L 4.992188 7.75 C 3.460938 7.746094 2.4375 9.019531 2.433594 10.292969 C 2.433594 10.550781 2.6875 10.550781 2.6875 10.550781 C 2.691406 9.019531 3.714844 8.003906 5.246094 8.007812 L 5.996094 6.261719 C 5.996094 6.261719 6.164062 5.78125 6.644531 5.945312 C 7.128906 6.109375 6.964844 6.59375 6.964844 6.59375 L 6.59375 7.886719 C 6.445312 8.398438 6.308594 8.917969 6.234375 9.445312 C 6.027344 10.9375 4.742188 12.085938 3.195312 12.082031 C 1.503906 12.078125 0.136719 10.703125 0.144531 9.011719 C 0.144531 8.921875 0.148438 8.839844 0.15625 8.757812 L 0.144531 8.757812 Z M 14.839844 4.929688 C 14.839844 4.929688 14.839844 4.421875 14.328125 4.421875 C 13.816406 4.421875 13.820312 4.933594 13.820312 4.933594 L 13.828125 7.300781 C 13.746094 7.265625 13.660156 7.230469 13.574219 7.203125 L 13.5625 3.914062 C 13.5625 3.914062 13.558594 3.40625 13.050781 3.40625 C 12.539062 3.40625 12.542969 3.917969 12.542969 3.917969 L 12.550781 7.011719 C 12.46875 7.003906 12.382812 6.996094 12.296875 6.992188 L 12.285156 3.410156 C 12.285156 3.410156 12.285156 2.898438 11.773438 2.898438 C 11.261719 2.902344 11.265625 3.410156 11.265625 3.410156 L 11.277344 6.996094 C 11.1875 7 11.105469 7.007812 11.019531 7.015625 L 11.011719 3.667969 C 11.011719 3.667969 11.007812 3.15625 10.5 3.160156 C 9.988281 3.160156 9.992188 3.671875 9.992188 3.671875 L 10 7.210938 L 10.003906 7.496094 L 10.003906 7.75 C 11.53125 7.746094 12.558594 9.019531 12.5625 10.292969 C 12.5625 10.550781 12.308594 10.550781 12.308594 10.550781 C 12.304688 9.019531 11.277344 8.003906 9.75 8.007812 L 8.996094 6.261719 C 8.996094 6.261719 8.832031 5.78125 8.347656 5.945312 C 7.867188 6.109375 8.03125 6.59375 8.03125 6.59375 L 8.402344 7.886719 C 8.550781 8.398438 8.6875 8.917969 8.761719 9.445312 C 8.96875 10.9375 10.253906 12.085938 11.800781 12.082031 C 13.492188 12.078125 14.859375 10.703125 14.851562 9.011719 C 14.851562 8.921875 14.847656 8.839844 14.839844 8.757812 L 14.851562 8.757812 Z M 14.839844 4.929688 "/>
<path style=" stroke:none;fill-rule:nonzero;fill:rgb(36.470588%,67.843137%,92.54902%);fill-opacity:1;" d="M 9.808594 2.691406 C 9.71875 2.691406 9.628906 2.664062 9.554688 2.605469 C 9.371094 2.464844 9.339844 2.203125 9.480469 2.019531 L 10.722656 0.414062 C 10.859375 0.230469 11.121094 0.195312 11.304688 0.339844 C 11.488281 0.480469 11.519531 0.742188 11.378906 0.921875 L 10.140625 2.527344 C 10.058594 2.636719 9.933594 2.691406 9.808594 2.691406 Z M 5.21875 2.691406 C 5.09375 2.691406 4.96875 2.636719 4.886719 2.527344 L 3.644531 0.921875 C 3.503906 0.742188 3.539062 0.480469 3.722656 0.339844 C 3.902344 0.199219 4.164062 0.230469 4.304688 0.414062 L 5.546875 2.019531 C 5.6875 2.203125 5.652344 2.464844 5.472656 2.605469 C 5.394531 2.664062 5.304688 2.691406 5.21875 2.691406 Z M 7.5 2.5 C 7.269531 2.5 7.082031 2.3125 7.082031 2.082031 L 7.082031 0.417969 C 7.082031 0.1875 7.269531 0 7.5 0 C 7.730469 0 7.917969 0.1875 7.917969 0.417969 L 7.917969 2.082031 C 7.917969 2.3125 7.730469 2.5 7.5 2.5 Z M 7.5 2.5 "/>
</g>
</svg>
