<?xml version="1.0" encoding="UTF-8"?>
<svg xmlns="http://www.w3.org/2000/svg" xmlns:xlink="http://www.w3.org/1999/xlink" width="15pt" height="15pt" viewBox="0 0 15 15" version="1.1">
<g id="surface1">
<path style=" stroke:none;fill-rule:nonzero;fill:rgb(100%,80%,30.196078%);fill-opacity:1;" d="M 0 7.5 C 0 3.359375 3.359375 0 7.5 0 C 11.640625 0 15 3.359375 15 7.5 C 15 11.640625 11.640625 15 7.5 15 C 3.359375 15 0 11.640625 0 7.5 "/>
<path style=" stroke:none;fill-rule:nonzero;fill:rgb(40%,27.058824%,0%);fill-opacity:1;" d="M 3.609375 5.363281 C 3.683594 5.429688 3.796875 5.433594 3.875 5.375 C 3.890625 5.363281 5.507812 4.167969 7.5 4.167969 C 9.484375 4.167969 11.109375 5.363281 11.125 5.375 C 11.203125 5.433594 11.316406 5.429688 11.390625 5.363281 C 11.464844 5.296875 11.480469 5.1875 11.429688 5.101562 C 11.375 5.011719 10.089844 2.917969 7.5 2.917969 C 4.910156 2.917969 3.625 5.011719 3.570312 5.101562 C 3.519531 5.1875 3.535156 5.296875 3.609375 5.363281 Z M 3.609375 5.363281 "/>
<path style=" stroke:none;fill-rule:nonzero;fill:rgb(40%,27.058824%,0%);fill-opacity:1;" d="M 5.832031 8.957031 C 5.832031 8.152344 5.367188 7.5 4.792969 7.5 C 4.214844 7.5 3.75 8.152344 3.75 8.957031 C 3.75 9.765625 4.214844 10.417969 4.792969 10.417969 C 5.367188 10.417969 5.832031 9.765625 5.832031 8.957031 Z M 5.832031 8.957031 "/>
<path style=" stroke:none;fill-rule:nonzero;fill:rgb(40%,27.058824%,0%);fill-opacity:1;" d="M 11.25 8.957031 C 11.25 8.152344 10.785156 7.5 10.207031 7.5 C 9.632812 7.5 9.167969 8.152344 9.167969 8.957031 C 9.167969 9.765625 9.632812 10.417969 10.207031 10.417969 C 10.785156 10.417969 11.25 9.765625 11.25 8.957031 Z M 11.25 8.957031 "/>
</g>
</svg>
