<?xml version="1.0" encoding="UTF-8"?>
<svg xmlns="http://www.w3.org/2000/svg" xmlns:xlink="http://www.w3.org/1999/xlink" width="15pt" height="15pt" viewBox="0 0 15 15" version="1.1">
<g id="surface1">
<path style=" stroke:none;fill-rule:nonzero;fill:rgb(100%,80%,30.196078%);fill-opacity:1;" d="M 15 7.5 C 15 11.640625 11.640625 15 7.5 15 C 3.359375 15 0 11.640625 0 7.5 C 0 3.359375 3.359375 0 7.5 0 C 11.640625 0 15 3.359375 15 7.5 Z M 15 7.5 "/>
<path style=" stroke:none;fill-rule:nonzero;fill:rgb(40%,27.058824%,0%);fill-opacity:1;" d="M 4.382812 9.84375 C 4.398438 9.917969 4.867188 11.667969 7.5 11.667969 C 10.132812 11.667969 10.601562 9.917969 10.617188 9.84375 C 10.640625 9.75 10.601562 9.65625 10.519531 9.609375 C 10.4375 9.566406 10.335938 9.578125 10.269531 9.644531 C 10.261719 9.652344 9.457031 10.417969 7.5 10.417969 C 5.542969 10.417969 4.738281 9.652344 4.730469 9.644531 C 4.691406 9.605469 4.636719 9.582031 4.582031 9.582031 C 4.546875 9.582031 4.511719 9.59375 4.480469 9.609375 C 4.398438 9.65625 4.359375 9.75 4.382812 9.84375 Z M 4.382812 9.84375 "/>
<path style=" stroke:none;fill-rule:nonzero;fill:rgb(40%,27.058824%,0%);fill-opacity:1;" d="M 6.042969 5.625 C 6.042969 4.820312 5.574219 4.167969 5 4.167969 C 4.425781 4.167969 3.957031 4.820312 3.957031 5.625 C 3.957031 6.429688 4.425781 7.082031 5 7.082031 C 5.574219 7.082031 6.042969 6.429688 6.042969 5.625 Z M 6.042969 5.625 "/>
<path style=" stroke:none;fill-rule:nonzero;fill:rgb(40%,27.058824%,0%);fill-opacity:1;" d="M 11.042969 5.625 C 11.042969 4.820312 10.574219 4.167969 10 4.167969 C 9.425781 4.167969 8.957031 4.820312 8.957031 5.625 C 8.957031 6.429688 9.425781 7.082031 10 7.082031 C 10.574219 7.082031 11.042969 6.429688 11.042969 5.625 Z M 11.042969 5.625 "/>
</g>
</svg>
