<?xml version="1.0" encoding="UTF-8"?>
<svg xmlns="http://www.w3.org/2000/svg" xmlns:xlink="http://www.w3.org/1999/xlink" width="15pt" height="15pt" viewBox="0 0 15 15" version="1.1">
<g id="surface1">
<path style=" stroke:none;fill-rule:nonzero;fill:rgb(16.078431%,18.431373%,20%);fill-opacity:1;" d="M 7.917969 0 C 7.199219 0 6.523438 0.167969 5.917969 0.464844 C 5.753906 0.433594 5.589844 0.417969 5.417969 0.417969 C 3.804688 0.417969 2.5 1.722656 2.5 3.332031 L 2.5 8.332031 L 2.507812 8.332031 C 2.582031 11.027344 4.785156 13.191406 7.5 13.191406 C 10.214844 13.191406 12.417969 11.027344 12.492188 8.332031 L 12.5 8.332031 L 12.5 4.582031 C 12.5 2.050781 10.449219 0 7.917969 0 Z M 7.917969 0 "/>
<path style=" stroke:none;fill-rule:nonzero;fill:rgb(96.862745%,87.058824%,80.784314%);fill-opacity:1;" d="M 3.75 2.082031 L 3.75 7.082031 C 3.75 9.15625 5.429688 10.832031 7.5 10.832031 C 9.570312 10.832031 11.25 9.15625 11.25 7.082031 L 11.25 2.082031 Z M 3.75 2.082031 "/>
<path style=" stroke:none;fill-rule:nonzero;fill:rgb(16.078431%,18.431373%,20%);fill-opacity:1;" d="M 11.25 2.082031 L 11.25 1.667969 L 3.332031 1.667969 L 3.332031 4.582031 C 5.832031 4.582031 5.832031 2.082031 5.832031 2.082031 C 5.832031 2.082031 6.667969 5 11.667969 5 L 11.667969 2.082031 Z M 11.25 2.082031 "/>
<path style=" stroke:none;fill-rule:nonzero;fill:rgb(96.862745%,87.058824%,80.784314%);fill-opacity:1;" d="M 5.175781 1.222656 C 4.929688 1.0625 4.597656 1.128906 4.433594 1.375 L 4.167969 1.785156 L 4.167969 0.832031 C 4.167969 0.371094 3.792969 0 3.332031 0 L 1.667969 0 C 1.207031 0 0.832031 0.375 0.832031 0.832031 L 0.832031 4.167969 C 0.832031 4.167969 0.832031 4.582031 1.25 4.582031 L 3.75 4.582031 L 4.167969 4.167969 L 4.167969 3.730469 L 5.328125 1.964844 C 5.492188 1.714844 5.421875 1.386719 5.175781 1.222656 Z M 5.175781 1.222656 "/>
<path style=" stroke:none;fill-rule:nonzero;fill:rgb(84.705882%,59.607843%,50.980392%);fill-opacity:1;" d="M 1.667969 0 L 2.082031 0 L 2.082031 2.082031 L 1.667969 2.082031 Z M 2.917969 0 L 3.332031 0 L 3.332031 2.082031 L 2.917969 2.082031 Z M 2.917969 0 "/>
<path style=" stroke:none;fill-rule:nonzero;fill:rgb(57.254902%,40.784314%,79.215686%);fill-opacity:1;" d="M 11.25 11.25 L 3.75 11.25 L 4.167969 4.167969 L 0.832031 4.167969 L 0.832031 11.25 C 0.832031 11.25 0.832031 15 4.167969 15 L 12.917969 15 L 12.917969 12.917969 C 12.917969 11.996094 12.171875 11.25 11.25 11.25 Z M 11.25 11.25 "/>
<path style=" stroke:none;fill-rule:nonzero;fill:rgb(75.686275%,41.176471%,30.980392%);fill-opacity:1;" d="M 7.917969 8.125 L 7.082031 8.125 C 6.96875 8.125 6.875 8.03125 6.875 7.917969 C 6.875 7.800781 6.96875 7.707031 7.082031 7.707031 L 7.917969 7.707031 C 8.03125 7.707031 8.125 7.800781 8.125 7.917969 C 8.125 8.03125 8.03125 8.125 7.917969 8.125 Z M 7.917969 8.125 "/>
<path style=" stroke:none;fill-rule:nonzero;fill:rgb(40%,12.941176%,7.45098%);fill-opacity:1;" d="M 5.832031 6.667969 C 5.601562 6.667969 5.417969 6.480469 5.417969 6.25 L 5.417969 5.832031 C 5.417969 5.601562 5.601562 5.417969 5.832031 5.417969 C 6.0625 5.417969 6.25 5.601562 6.25 5.832031 L 6.25 6.25 C 6.25 6.480469 6.0625 6.667969 5.832031 6.667969 Z M 9.167969 6.667969 C 8.9375 6.667969 8.75 6.480469 8.75 6.25 L 8.75 5.832031 C 8.75 5.601562 8.9375 5.417969 9.167969 5.417969 C 9.398438 5.417969 9.582031 5.601562 9.582031 5.832031 L 9.582031 6.25 C 9.582031 6.480469 9.398438 6.667969 9.167969 6.667969 Z M 9.167969 6.667969 "/>
<path style=" stroke:none;fill-rule:nonzero;fill:rgb(96.862745%,87.058824%,80.784314%);fill-opacity:1;" d="M 6.25 9.167969 L 6.25 11.667969 C 6.25 12.355469 6.808594 12.917969 7.5 12.917969 C 8.191406 12.917969 8.75 12.355469 8.75 11.667969 L 8.75 9.167969 Z M 6.25 9.167969 "/>
<path style=" stroke:none;fill-rule:nonzero;fill:rgb(87.45098%,12.156863%,19.607843%);fill-opacity:1;" d="M 9.167969 9.167969 L 5.832031 9.167969 C 5.832031 9.167969 6.25 10 7.5 10 C 8.75 10 9.167969 9.167969 9.167969 9.167969 Z M 9.167969 9.167969 "/>
<path style=" stroke:none;fill-rule:nonzero;fill:rgb(45.490196%,31.372549%,65.882353%);fill-opacity:1;" d="M 10.832031 13.332031 L 11.25 13.332031 L 11.25 15 L 10.832031 15 Z M 10.832031 13.332031 "/>
</g>
</svg>
