<?xml version="1.0" encoding="UTF-8"?>
<svg xmlns="http://www.w3.org/2000/svg" xmlns:xlink="http://www.w3.org/1999/xlink" width="15pt" height="15pt" viewBox="0 0 15 15" version="1.1">
<g id="surface1">
<path style=" stroke:none;fill-rule:nonzero;fill:rgb(100%,67.45098%,20%);fill-opacity:1;" d="M 7.917969 0 C 7.199219 0 6.523438 0.167969 5.917969 0.464844 C 5.753906 0.433594 5.589844 0.417969 5.417969 0.417969 C 3.804688 0.417969 2.5 1.722656 2.5 3.332031 L 2.5 8.332031 L 2.507812 8.332031 C 2.582031 11.027344 4.785156 13.191406 7.5 13.191406 C 10.214844 13.191406 12.417969 11.027344 12.492188 8.332031 L 12.5 8.332031 L 12.5 4.582031 C 12.5 2.050781 10.449219 0 7.917969 0 Z M 7.917969 0 "/>
<path style=" stroke:none;fill-rule:nonzero;fill:rgb(57.254902%,40.784314%,79.215686%);fill-opacity:1;" d="M 13.332031 2.761719 L 12.082031 2.082031 L 11.25 2.761719 C 11.25 2.761719 12.5 5.78125 12.5 7.394531 C 12.5 9.011719 11.25 11.25 11.25 11.25 L 3.75 11.25 C 3.75 11.25 2.5 9.011719 2.5 7.394531 C 2.5 5.78125 3.75 2.761719 3.75 2.761719 L 2.917969 2.082031 L 1.667969 2.761719 C 1.667969 2.761719 0 5.730469 0 7.394531 C 0 9.0625 2.5 15 2.5 15 L 12.5 15 C 12.5 15 15 9.0625 15 7.394531 C 15 5.730469 13.332031 2.761719 13.332031 2.761719 Z M 13.332031 2.761719 "/>
<path style=" stroke:none;fill-rule:nonzero;fill:rgb(100%,86.27451%,36.470588%);fill-opacity:1;" d="M 5.832031 2.082031 C 5.832031 2.082031 5.832031 4.296875 3.75 4.558594 L 3.75 7.082031 C 3.75 8.714844 4.792969 10.101562 6.25 10.617188 L 6.25 11.667969 C 6.25 12.355469 6.808594 12.917969 7.5 12.917969 C 8.191406 12.917969 8.75 12.355469 8.75 11.667969 L 8.75 10.617188 C 10.207031 10.101562 11.25 8.714844 11.25 7.082031 L 11.25 4.992188 C 6.621094 4.835938 5.832031 2.082031 5.832031 2.082031 Z M 5.832031 2.082031 "/>
<path style=" stroke:none;fill-rule:nonzero;fill:rgb(87.45098%,12.156863%,19.607843%);fill-opacity:1;" d="M 9.167969 8.75 L 5.832031 8.75 C 5.832031 8.75 6.25 9.582031 7.5 9.582031 C 8.75 9.582031 9.167969 8.75 9.167969 8.75 Z M 9.167969 8.75 "/>
<path style=" stroke:none;fill-rule:nonzero;fill:rgb(75.686275%,41.176471%,30.980392%);fill-opacity:1;" d="M 7.917969 8.125 L 7.082031 8.125 C 6.96875 8.125 6.875 8.03125 6.875 7.917969 C 6.875 7.800781 6.96875 7.707031 7.082031 7.707031 L 7.917969 7.707031 C 8.03125 7.707031 8.125 7.800781 8.125 7.917969 C 8.125 8.03125 8.03125 8.125 7.917969 8.125 Z M 7.917969 8.125 "/>
<path style=" stroke:none;fill-rule:nonzero;fill:rgb(40%,12.941176%,7.45098%);fill-opacity:1;" d="M 5.832031 6.667969 C 5.601562 6.667969 5.417969 6.480469 5.417969 6.25 L 5.417969 5.832031 C 5.417969 5.601562 5.601562 5.417969 5.832031 5.417969 C 6.0625 5.417969 6.25 5.601562 6.25 5.832031 L 6.25 6.25 C 6.25 6.480469 6.0625 6.667969 5.832031 6.667969 Z M 9.167969 6.667969 C 8.9375 6.667969 8.75 6.480469 8.75 6.25 L 8.75 5.832031 C 8.75 5.601562 8.9375 5.417969 9.167969 5.417969 C 9.398438 5.417969 9.582031 5.601562 9.582031 5.832031 L 9.582031 6.25 C 9.582031 6.480469 9.398438 6.667969 9.167969 6.667969 Z M 9.167969 6.667969 "/>
<path style=" stroke:none;fill-rule:nonzero;fill:rgb(100%,86.27451%,36.470588%);fill-opacity:1;" d="M 8.015625 1 C 8.035156 0.78125 8.265625 0.695312 8.496094 0.703125 C 8.496094 0.703125 10.765625 0.832031 11.628906 1.234375 C 12.71875 1.738281 13.332031 2.761719 13.332031 2.761719 L 11.25 2.761719 C 11.25 2.761719 10.796875 2.125 10.441406 1.875 C 10.074219 1.617188 8.683594 1.367188 8.476562 1.328125 C 8.269531 1.289062 8 1.214844 8.015625 1 Z M 6.984375 1 C 6.964844 0.78125 6.734375 0.695312 6.503906 0.703125 C 6.503906 0.703125 4.234375 0.832031 3.371094 1.234375 C 2.28125 1.738281 1.667969 2.761719 1.667969 2.761719 L 3.75 2.761719 C 3.75 2.761719 4.203125 2.125 4.558594 1.875 C 4.925781 1.617188 6.316406 1.367188 6.523438 1.328125 C 6.730469 1.289062 7 1.214844 6.984375 1 Z M 6.984375 1 "/>
</g>
</svg>
