<?xml version="1.0" encoding="UTF-8"?>
<svg xmlns="http://www.w3.org/2000/svg" xmlns:xlink="http://www.w3.org/1999/xlink" width="15pt" height="15pt" viewBox="0 0 15 15" version="1.1">
<g id="surface1">
<path style=" stroke:none;fill-rule:nonzero;fill:rgb(68.235294%,49.411765%,34.117647%);fill-opacity:1;" d="M 8.75 10.617188 C 10.207031 10.101562 11.25 8.714844 11.25 7.082031 L 11.25 6.902344 C 11.648438 6.882812 11.96875 6.359375 11.96875 5.714844 C 11.96875 5.070312 11.648438 4.546875 11.25 4.527344 L 11.25 2.917969 L 3.75 2.917969 L 3.75 4.527344 C 3.351562 4.546875 3.03125 5.070312 3.03125 5.714844 C 3.03125 6.359375 3.351562 6.882812 3.75 6.902344 L 3.75 7.082031 C 3.75 8.714844 4.792969 10.101562 6.25 10.617188 L 6.25 11.25 L 8.75 11.25 Z M 8.75 10.617188 "/>
<path style=" stroke:none;fill-rule:nonzero;fill:rgb(37.647059%,20.784314%,16.470588%);fill-opacity:1;" d="M 7.5 0.34375 C 4.574219 0.34375 3.277344 2.292969 3.277344 3.921875 C 3.277344 5.546875 3.835938 6 3.925781 5.546875 C 4.25 3.921875 5.226562 3.421875 5.226562 3.421875 C 7.175781 5.046875 6.851562 3.746094 6.851562 3.746094 C 8.800781 5.699219 7.824219 3.746094 7.824219 3.746094 C 8.476562 4.398438 10.425781 4.398438 10.425781 4.398438 C 10.425781 4.398438 10.75 4.898438 11.074219 5.546875 C 11.398438 6.199219 11.722656 5.546875 11.722656 3.921875 C 11.722656 2.292969 10.097656 0.34375 7.5 0.34375 Z M 7.5 0.34375 "/>
<path style=" stroke:none;fill-rule:nonzero;fill:rgb(25.882353%,53.72549%,75.686275%);fill-opacity:1;" d="M 13.332031 2.761719 L 12.082031 2.082031 L 11.25 2.761719 C 11.25 2.761719 12.5 5.78125 12.5 7.394531 C 12.5 9.011719 10.832031 11.25 10.832031 11.25 L 4.167969 11.25 C 4.167969 11.25 2.5 9.011719 2.5 7.394531 C 2.5 5.78125 3.75 2.761719 3.75 2.761719 L 2.917969 2.082031 L 1.667969 2.761719 C 1.667969 2.761719 0 5.730469 0 7.394531 C 0 9.0625 2.082031 15 2.082031 15 L 12.917969 15 C 12.917969 15 15 9.0625 15 7.394531 C 15 5.730469 13.332031 2.761719 13.332031 2.761719 Z M 13.332031 2.761719 "/>
<path style=" stroke:none;fill-rule:nonzero;fill:rgb(68.235294%,49.411765%,34.117647%);fill-opacity:1;" d="M 7.5 12.917969 C 8.191406 12.917969 8.75 12.355469 8.75 11.667969 L 8.75 10.832031 L 6.25 10.832031 L 6.25 11.667969 C 6.25 12.355469 6.808594 12.917969 7.5 12.917969 Z M 8.015625 1 C 8.035156 0.78125 8.265625 0.695312 8.496094 0.703125 C 8.496094 0.703125 10.765625 0.832031 11.628906 1.234375 C 12.71875 1.738281 13.332031 2.761719 13.332031 2.761719 L 11.25 2.761719 C 11.25 2.761719 10.796875 2.125 10.441406 1.875 C 10.074219 1.617188 8.683594 1.367188 8.476562 1.328125 C 8.269531 1.289062 8 1.214844 8.015625 1 Z M 6.984375 1 C 6.964844 0.78125 6.734375 0.695312 6.503906 0.703125 C 6.503906 0.703125 4.234375 0.832031 3.371094 1.234375 C 2.28125 1.738281 1.667969 2.761719 1.667969 2.761719 L 3.75 2.761719 C 3.75 2.761719 4.203125 2.125 4.558594 1.875 C 4.925781 1.617188 6.316406 1.367188 6.523438 1.328125 C 6.730469 1.289062 7 1.214844 6.984375 1 Z M 6.984375 1 "/>
<path style=" stroke:none;fill-rule:nonzero;fill:rgb(56.862745%,35.294118%,20.392157%);fill-opacity:1;" d="M 5.832031 9.167969 L 9.167969 9.167969 C 9.167969 9.167969 8.75 10 7.5 10 C 6.25 10 5.832031 9.167969 5.832031 9.167969 Z M 7.917969 8.125 L 7.082031 8.125 C 6.96875 8.125 6.875 8.03125 6.875 7.917969 C 6.875 7.800781 6.96875 7.707031 7.082031 7.707031 L 7.917969 7.707031 C 8.03125 7.707031 8.125 7.800781 8.125 7.917969 C 8.125 8.03125 8.03125 8.125 7.917969 8.125 Z M 7.917969 8.125 "/>
<path style=" stroke:none;fill-rule:nonzero;fill:rgb(40%,12.941176%,7.45098%);fill-opacity:1;" d="M 5.832031 6.667969 C 5.601562 6.667969 5.417969 6.480469 5.417969 6.25 L 5.417969 5.832031 C 5.417969 5.601562 5.601562 5.417969 5.832031 5.417969 C 6.0625 5.417969 6.25 5.601562 6.25 5.832031 L 6.25 6.25 C 6.25 6.480469 6.0625 6.667969 5.832031 6.667969 Z M 9.167969 6.667969 C 8.9375 6.667969 8.75 6.480469 8.75 6.25 L 8.75 5.832031 C 8.75 5.601562 8.9375 5.417969 9.167969 5.417969 C 9.398438 5.417969 9.582031 5.601562 9.582031 5.832031 L 9.582031 6.25 C 9.582031 6.480469 9.398438 6.667969 9.167969 6.667969 Z M 9.167969 6.667969 "/>
</g>
</svg>
