<?xml version="1.0" encoding="UTF-8"?>
<svg xmlns="http://www.w3.org/2000/svg" xmlns:xlink="http://www.w3.org/1999/xlink" width="15pt" height="15pt" viewBox="0 0 15 15" version="1.1">
<g id="surface1">
<path style=" stroke:none;fill-rule:nonzero;fill:rgb(84.313725%,61.960784%,51.764706%);fill-opacity:1;" d="M 3.902344 6.703125 C 3.597656 5.515625 2.6875 4.71875 1.867188 4.929688 C 1.046875 5.136719 0.628906 6.273438 0.933594 7.460938 C 1.234375 8.652344 2.144531 9.445312 2.964844 9.238281 C 3.785156 9.027344 4.207031 7.894531 3.902344 6.703125 Z M 3.902344 6.703125 "/>
<path style=" stroke:none;fill-rule:nonzero;fill:rgb(84.313725%,61.960784%,51.764706%);fill-opacity:1;" d="M 13.132812 4.929688 C 12.3125 4.71875 11.402344 5.515625 11.097656 6.707031 C 10.796875 7.894531 11.214844 9.027344 12.035156 9.238281 C 12.855469 9.445312 13.765625 8.652344 14.066406 7.460938 C 14.371094 6.273438 13.953125 5.140625 13.132812 4.929688 Z M 13.132812 4.929688 "/>
<path style=" stroke:none;fill-rule:nonzero;fill:rgb(74.901961%,41.176471%,32.156863%);fill-opacity:1;" d="M 7.910156 14.582031 L 7.089844 14.582031 C 4.382812 14.582031 1.753906 12.507812 1.753906 9.601562 C 1.753906 7.941406 2.371094 7.109375 2.371094 7.109375 C 2.371094 7.109375 2.164062 6.28125 2.164062 5.449219 C 2.164062 2.960938 4.792969 0.882812 7.5 0.882812 C 10.207031 0.882812 12.835938 3.375 12.835938 5.449219 C 12.835938 6.28125 12.628906 7.109375 12.628906 7.109375 C 12.628906 7.109375 13.246094 7.941406 13.246094 9.601562 C 13.246094 12.507812 10.617188 14.582031 7.910156 14.582031 Z M 7.910156 14.582031 "/>
<path style=" stroke:none;fill-rule:nonzero;fill:rgb(84.313725%,61.960784%,51.764706%);fill-opacity:1;" d="M 12.359375 6.40625 C 12.359375 4.820312 11.074219 3.535156 9.488281 3.535156 C 8.714844 3.535156 8.015625 3.84375 7.5 4.339844 C 6.984375 3.839844 6.285156 3.535156 5.511719 3.535156 C 3.925781 3.535156 2.640625 4.820312 2.640625 6.40625 C 2.640625 7.371094 3.113281 8.21875 3.839844 8.742188 C 3.636719 9.246094 3.523438 9.800781 3.523438 10.386719 C 3.523438 12.703125 5.304688 14.140625 7.5 14.140625 C 9.695312 14.140625 11.476562 12.703125 11.476562 10.386719 C 11.476562 9.800781 11.363281 9.246094 11.160156 8.742188 C 11.886719 8.21875 12.359375 7.371094 12.359375 6.40625 Z M 12.359375 6.40625 "/>
<path style=" stroke:none;fill-rule:nonzero;fill:rgb(16.078431%,18.431373%,20%);fill-opacity:1;" d="M 6.25 7.082031 C 6.25 6.394531 5.875 5.832031 5.417969 5.832031 C 4.957031 5.832031 4.582031 6.394531 4.582031 7.082031 C 4.582031 7.773438 4.957031 8.332031 5.417969 8.332031 C 5.875 8.332031 6.25 7.773438 6.25 7.082031 Z M 6.25 7.082031 "/>
<path style=" stroke:none;fill-rule:nonzero;fill:rgb(16.078431%,18.431373%,20%);fill-opacity:1;" d="M 10.417969 7.082031 C 10.417969 6.394531 10.042969 5.832031 9.582031 5.832031 C 9.125 5.832031 8.75 6.394531 8.75 7.082031 C 8.75 7.773438 9.125 8.332031 9.582031 8.332031 C 10.042969 8.332031 10.417969 7.773438 10.417969 7.082031 Z M 10.417969 7.082031 "/>
<path style=" stroke:none;fill-rule:nonzero;fill:rgb(39.215686%,12.941176%,8.627451%);fill-opacity:1;" d="M 7.5 13.125 C 8.632812 13.125 9.59375 12.550781 9.957031 11.746094 C 10.105469 11.414062 9.851562 11.042969 9.472656 11.042969 L 5.527344 11.042969 C 5.148438 11.042969 4.894531 11.414062 5.042969 11.746094 C 5.40625 12.550781 6.367188 13.125 7.5 13.125 Z M 7.5 13.125 "/>
<path style=" stroke:none;fill-rule:nonzero;fill:rgb(39.215686%,12.941176%,8.627451%);fill-opacity:1;" d="M 7.292969 9.167969 C 7.292969 8.921875 7.105469 8.722656 6.875 8.722656 C 6.644531 8.722656 6.457031 8.921875 6.457031 9.167969 C 6.457031 9.410156 6.644531 9.609375 6.875 9.609375 C 7.105469 9.609375 7.292969 9.410156 7.292969 9.167969 Z M 7.292969 9.167969 "/>
<path style=" stroke:none;fill-rule:nonzero;fill:rgb(39.215686%,12.941176%,8.627451%);fill-opacity:1;" d="M 8.542969 9.167969 C 8.542969 9.398438 8.355469 9.582031 8.125 9.582031 C 7.894531 9.582031 7.707031 9.398438 7.707031 9.167969 C 7.707031 8.9375 7.894531 8.75 8.125 8.75 C 8.355469 8.75 8.542969 8.9375 8.542969 9.167969 Z M 8.542969 9.167969 "/>
<path style=" stroke:none;fill-rule:nonzero;fill:rgb(74.901961%,41.176471%,32.156863%);fill-opacity:1;" d="M 9.265625 0.0703125 C 9.265625 0.0703125 7.058594 -0.371094 6.175781 0.953125 C 5.289062 2.28125 7.941406 1.398438 7.941406 1.398438 C 7.941406 1.398438 8.382812 0.0703125 9.265625 0.0703125 Z M 15 15 L 9.167969 13.332031 L 10.417969 10.832031 L 15 11.667969 Z M 0 15 L 5.832031 13.332031 L 4.582031 10.832031 L 0 11.667969 Z M 0 15 "/>
<path style=" stroke:none;fill-rule:nonzero;fill:rgb(84.313725%,61.960784%,51.764706%);fill-opacity:1;" d="M 5.152344 10.417969 C 5.152344 10.417969 5.203125 9.890625 5.191406 9.285156 C 5.179688 8.488281 4.117188 8.097656 3.785156 8.839844 C 3.382812 9.753906 2.875 11.941406 3.175781 12.863281 C 3.472656 13.789062 4.230469 14.519531 5.921875 14.464844 C 7.613281 14.414062 9.085938 14.089844 9.542969 13.800781 C 9.996094 13.515625 9.894531 12.8125 9.371094 12.695312 C 8.902344 12.589844 7.613281 12.800781 7.613281 12.800781 C 7.613281 12.800781 8.96875 12.511719 9.347656 12.265625 C 9.867188 11.929688 9.582031 11.183594 9.074219 11.171875 C 8.574219 11.160156 7.328125 11.367188 7.328125 11.367188 C 7.328125 11.367188 8.511719 11.054688 8.890625 10.730469 C 9.265625 10.410156 9.125 9.703125 8.460938 9.675781 C 7.796875 9.648438 5.777344 10.078125 5.152344 10.417969 Z M 5.152344 10.417969 "/>
<path style=" stroke:none;fill-rule:nonzero;fill:rgb(74.901961%,41.176471%,32.156863%);fill-opacity:1;" d="M 5.753906 14.679688 C 4.285156 14.679688 3.351562 14.089844 2.976562 12.929688 C 2.640625 11.894531 3.210938 9.628906 3.597656 8.757812 C 3.769531 8.363281 4.136719 8.167969 4.554688 8.253906 C 4.96875 8.339844 5.390625 8.71875 5.402344 9.28125 C 5.40625 9.589844 5.398438 9.878906 5.386719 10.089844 C 6.242188 9.765625 7.871094 9.4375 8.46875 9.46875 C 8.847656 9.480469 9.144531 9.683594 9.257812 10.007812 C 9.367188 10.320312 9.273438 10.675781 9.027344 10.886719 C 8.996094 10.914062 8.960938 10.941406 8.921875 10.964844 C 8.980469 10.964844 9.03125 10.964844 9.078125 10.964844 C 9.414062 10.972656 9.703125 11.210938 9.800781 11.554688 C 9.898438 11.902344 9.765625 12.242188 9.460938 12.441406 C 9.4375 12.457031 9.410156 12.472656 9.382812 12.484375 L 9.417969 12.492188 C 9.738281 12.5625 9.96875 12.8125 10.027344 13.136719 C 10.085938 13.46875 9.9375 13.800781 9.652344 13.980469 C 9.179688 14.277344 7.714844 14.621094 5.929688 14.675781 C 5.867188 14.675781 5.808594 14.679688 5.753906 14.679688 Z M 4.371094 8.652344 C 4.246094 8.652344 4.078125 8.699219 3.976562 8.925781 C 3.554688 9.878906 3.105469 11.972656 3.371094 12.800781 C 3.703125 13.824219 4.535156 14.308594 5.914062 14.257812 C 7.546875 14.207031 9.007812 13.890625 9.429688 13.625 C 9.601562 13.519531 9.640625 13.339844 9.617188 13.207031 C 9.589844 13.046875 9.480469 12.933594 9.328125 12.898438 C 8.972656 12.820312 7.996094 12.949219 7.648438 13.003906 C 7.535156 13.027344 7.429688 12.949219 7.410156 12.839844 C 7.390625 12.726562 7.460938 12.621094 7.570312 12.597656 C 7.9375 12.519531 8.953125 12.273438 9.234375 12.089844 C 9.449219 11.949219 9.421875 11.746094 9.398438 11.667969 C 9.359375 11.53125 9.242188 11.386719 9.066406 11.378906 C 8.578125 11.359375 7.375 11.570312 7.363281 11.574219 C 7.25 11.59375 7.148438 11.519531 7.125 11.410156 C 7.101562 11.300781 7.167969 11.195312 7.273438 11.164062 C 7.589844 11.082031 8.476562 10.8125 8.753906 10.570312 C 8.871094 10.46875 8.917969 10.296875 8.863281 10.144531 C 8.832031 10.050781 8.734375 9.894531 8.453125 9.882812 C 7.847656 9.859375 5.851562 10.277344 5.253906 10.597656 C 5.183594 10.636719 5.101562 10.632812 5.039062 10.589844 C 4.972656 10.546875 4.9375 10.472656 4.945312 10.398438 C 4.945312 10.390625 4.992188 9.875 4.984375 9.285156 C 4.980469 8.945312 4.722656 8.714844 4.46875 8.664062 C 4.445312 8.65625 4.410156 8.652344 4.371094 8.652344 Z M 4.371094 8.652344 "/>
<path style=" stroke:none;fill-rule:nonzero;fill:rgb(84.313725%,61.960784%,51.764706%);fill-opacity:1;" d="M 9.847656 10.417969 C 9.847656 10.417969 9.796875 9.890625 9.808594 9.285156 C 9.820312 8.488281 10.882812 8.097656 11.214844 8.839844 C 11.617188 9.753906 12.125 11.941406 11.824219 12.863281 C 11.527344 13.789062 10.769531 14.519531 9.078125 14.464844 C 7.386719 14.414062 5.914062 14.089844 5.457031 13.800781 C 5.003906 13.515625 5.105469 12.8125 5.628906 12.695312 C 6.097656 12.589844 7.386719 12.800781 7.386719 12.800781 C 7.386719 12.800781 6.03125 12.511719 5.652344 12.265625 C 5.132812 11.929688 5.417969 11.183594 5.925781 11.171875 C 6.425781 11.160156 7.671875 11.367188 7.671875 11.367188 C 7.671875 11.367188 6.488281 11.054688 6.109375 10.730469 C 5.734375 10.410156 5.875 9.703125 6.539062 9.675781 C 7.203125 9.648438 9.222656 10.078125 9.847656 10.417969 Z M 9.847656 10.417969 "/>
<path style=" stroke:none;fill-rule:nonzero;fill:rgb(74.901961%,41.176471%,32.156863%);fill-opacity:1;" d="M 9.246094 14.679688 C 9.191406 14.679688 9.132812 14.675781 9.070312 14.675781 C 7.285156 14.621094 5.816406 14.277344 5.347656 13.980469 C 5.0625 13.800781 4.914062 13.46875 4.972656 13.136719 C 5.03125 12.808594 5.261719 12.5625 5.582031 12.492188 L 5.617188 12.484375 C 5.589844 12.46875 5.5625 12.457031 5.539062 12.441406 C 5.230469 12.242188 5.101562 11.902344 5.199219 11.554688 C 5.296875 11.210938 5.585938 10.972656 5.921875 10.964844 C 5.96875 10.964844 6.019531 10.964844 6.078125 10.964844 C 6.039062 10.941406 6.003906 10.914062 5.972656 10.886719 C 5.726562 10.675781 5.632812 10.320312 5.742188 10.007812 C 5.855469 9.683594 6.152344 9.480469 6.53125 9.464844 C 7.128906 9.445312 8.757812 9.765625 9.613281 10.089844 C 9.601562 9.878906 9.59375 9.589844 9.597656 9.28125 C 9.609375 8.71875 10.03125 8.339844 10.445312 8.253906 C 10.863281 8.167969 11.230469 8.363281 11.402344 8.757812 C 11.789062 9.628906 12.359375 11.890625 12.023438 12.929688 C 11.648438 14.089844 10.714844 14.675781 9.246094 14.679688 Z M 5.988281 12.875 C 5.859375 12.875 5.75 12.882812 5.671875 12.898438 C 5.519531 12.933594 5.410156 13.046875 5.382812 13.207031 C 5.359375 13.339844 5.398438 13.519531 5.570312 13.625 C 5.992188 13.890625 7.453125 14.207031 9.085938 14.257812 C 10.460938 14.300781 11.296875 13.824219 11.628906 12.800781 C 11.894531 11.972656 11.445312 9.878906 11.023438 8.925781 C 10.890625 8.625 10.632812 8.640625 10.53125 8.664062 C 10.277344 8.714844 10.019531 8.945312 10.015625 9.289062 C 10.007812 9.875 10.054688 10.390625 10.054688 10.398438 C 10.0625 10.472656 10.027344 10.546875 9.960938 10.589844 C 9.898438 10.632812 9.8125 10.636719 9.746094 10.601562 C 9.148438 10.277344 7.167969 9.855469 6.546875 9.882812 C 6.265625 9.894531 6.167969 10.050781 6.136719 10.144531 C 6.082031 10.296875 6.128906 10.46875 6.246094 10.570312 C 6.523438 10.8125 7.410156 11.082031 7.726562 11.167969 C 7.832031 11.195312 7.898438 11.300781 7.875 11.410156 C 7.851562 11.519531 7.746094 11.589844 7.636719 11.574219 C 7.625 11.570312 6.402344 11.367188 5.933594 11.378906 C 5.757812 11.386719 5.640625 11.53125 5.601562 11.667969 C 5.578125 11.746094 5.546875 11.949219 5.765625 12.09375 C 6.046875 12.273438 7.0625 12.519531 7.429688 12.597656 C 7.539062 12.621094 7.609375 12.726562 7.589844 12.839844 C 7.570312 12.949219 7.460938 13.023438 7.351562 13.003906 C 7.082031 12.960938 6.429688 12.875 5.988281 12.875 Z M 5.988281 12.875 "/>
<path style=" stroke:none;fill-rule:nonzero;fill:rgb(60.784314%,23.529412%,2.745098%);fill-opacity:1;" d="M 4.019531 8.859375 C 3.898438 8.777344 3.785156 8.691406 3.679688 8.605469 C 3.648438 8.652344 3.621094 8.703125 3.597656 8.757812 C 3.375 9.257812 3.09375 10.214844 2.957031 11.136719 L 2.0625 11.324219 L 3.3125 11.691406 L 3.375 11.160156 C 3.5 10.339844 3.742188 9.457031 3.976562 8.925781 C 3.988281 8.898438 4.003906 8.882812 4.019531 8.859375 Z M 12.046875 11.175781 C 11.914062 10.242188 11.628906 9.265625 11.402344 8.757812 C 11.378906 8.699219 11.347656 8.648438 11.3125 8.597656 C 11.207031 8.6875 11.097656 8.777344 10.984375 8.859375 C 10.996094 8.878906 11.011719 8.902344 11.023438 8.925781 C 11.308594 9.574219 11.609375 10.746094 11.6875 11.691406 L 12.945312 11.324219 Z M 12.046875 11.175781 "/>
</g>
</svg>
