<?xml version="1.0" encoding="UTF-8"?>
<svg xmlns="http://www.w3.org/2000/svg" xmlns:xlink="http://www.w3.org/1999/xlink" width="15pt" height="15pt" viewBox="0 0 15 15" version="1.1">
<g id="surface1">
<path style=" stroke:none;fill-rule:nonzero;fill:rgb(65.490196%,66.27451%,67.45098%);fill-opacity:1;" d="M 0.832031 15 L 14.167969 15 L 9.582031 7.917969 L 5.417969 7.917969 Z M 0.832031 15 "/>
<path style=" stroke:none;fill-rule:nonzero;fill:rgb(34.509804%,34.901961%,35.686275%);fill-opacity:1;" d="M 2.082031 15 L 12.917969 15 L 8.75 7.917969 L 6.25 7.917969 Z M 2.082031 15 "/>
<path style=" stroke:none;fill-rule:nonzero;fill:rgb(50.196078%,50.980392%,52.156863%);fill-opacity:1;" d="M 3.332031 15 L 11.667969 15 L 7.917969 7.917969 L 7.082031 7.917969 Z M 3.332031 15 "/>
<path style=" stroke:none;fill-rule:nonzero;fill:rgb(65.490196%,66.27451%,67.45098%);fill-opacity:1;" d="M 11.667969 14.582031 C 11.667969 14.8125 11.480469 15 11.25 15 L 3.75 15 C 3.519531 15 3.332031 14.8125 3.332031 14.582031 C 3.332031 14.351562 3.519531 14.167969 3.75 14.167969 L 11.25 14.167969 C 11.480469 14.167969 11.667969 14.351562 11.667969 14.582031 Z M 10.832031 12.917969 C 10.832031 13.148438 10.648438 13.332031 10.417969 13.332031 L 4.582031 13.332031 C 4.351562 13.332031 4.167969 13.148438 4.167969 12.917969 C 4.167969 12.6875 4.351562 12.5 4.582031 12.5 L 10.417969 12.5 C 10.648438 12.5 10.832031 12.6875 10.832031 12.917969 Z M 10 11.25 C 10 11.480469 9.8125 11.667969 9.582031 11.667969 L 5.417969 11.667969 C 5.1875 11.667969 5 11.480469 5 11.25 C 5 11.019531 5.1875 10.832031 5.417969 10.832031 L 9.582031 10.832031 C 9.8125 10.832031 10 11.019531 10 11.25 Z M 10 11.25 "/>
<path style=" stroke:none;fill-rule:nonzero;fill:rgb(34.509804%,34.901961%,35.686275%);fill-opacity:1;" d="M 4.117188 9.925781 C 4.585938 10.4375 5.207031 10.832031 5.832031 10.832031 L 9.167969 10.832031 C 9.792969 10.832031 10.414062 10.433594 10.882812 9.925781 L 9.820312 8.285156 C 9.253906 8.324219 8.507812 8.332031 7.5 8.332031 C 6.472656 8.332031 5.71875 8.34375 5.148438 8.328125 Z M 4.117188 9.925781 "/>
<path style=" stroke:none;fill-rule:nonzero;fill:rgb(25.490196%,25.098039%,25.882353%);fill-opacity:1;" d="M 7.917969 0.832031 C 7.917969 1.0625 7.730469 1.25 7.5 1.25 C 7.269531 1.25 7.082031 1.0625 7.082031 0.832031 L 7.082031 0.417969 C 7.082031 0.1875 7.269531 0 7.5 0 C 7.730469 0 7.917969 0.1875 7.917969 0.417969 Z M 7.917969 0.832031 "/>
<path style=" stroke:none;fill-rule:nonzero;fill:rgb(42.745098%,43.137255%,44.313725%);fill-opacity:1;" d="M 9.167969 1.667969 C 9.167969 2.125 8.792969 2.5 8.332031 2.5 L 6.667969 2.5 C 6.207031 2.5 5.832031 2.125 5.832031 1.667969 C 5.832031 1.207031 6.207031 0.832031 6.667969 0.832031 L 8.332031 0.832031 C 8.792969 0.832031 9.167969 1.207031 9.167969 1.667969 Z M 9.167969 1.667969 "/>
<path style=" stroke:none;fill-rule:nonzero;fill:rgb(81.960784%,82.745098%,83.137255%);fill-opacity:1;" d="M 11.667969 7.5 C 11.667969 8.421875 10.085938 9.582031 9.167969 9.582031 L 5.832031 9.582031 C 4.914062 9.582031 3.332031 8.421875 3.332031 7.5 L 3.332031 2.917969 C 3.332031 1.996094 4.078125 1.25 5 1.25 L 10 1.25 C 10.921875 1.25 11.667969 1.996094 11.667969 2.917969 Z M 11.667969 7.5 "/>
<path style=" stroke:none;fill-rule:nonzero;fill:rgb(50.196078%,50.980392%,52.156863%);fill-opacity:1;" d="M 10.417969 6.667969 C 10.417969 7.585938 9.671875 8.332031 8.75 8.332031 L 6.25 8.332031 C 5.328125 8.332031 4.582031 7.585938 4.582031 6.667969 L 4.582031 4.582031 C 4.582031 3.664062 5.328125 2.917969 6.25 2.917969 L 8.75 2.917969 C 9.671875 2.917969 10.417969 3.664062 10.417969 4.582031 Z M 10.417969 6.667969 "/>
<path style=" stroke:none;fill-rule:nonzero;fill:rgb(33.333333%,67.45098%,93.333333%);fill-opacity:1;" d="M 6.25 6.25 L 8.75 6.25 C 9.671875 6.25 10.417969 5.503906 10.417969 4.582031 L 10.417969 3.75 L 4.582031 3.75 L 4.582031 4.582031 C 4.582031 5.503906 5.328125 6.25 6.25 6.25 Z M 6.25 6.25 "/>
<path style=" stroke:none;fill-rule:nonzero;fill:rgb(36.078431%,56.862745%,23.137255%);fill-opacity:1;" d="M 7.5 8.332031 C 4.582031 8.332031 3.851562 7.582031 3.332031 6.984375 L 3.332031 7.5 C 3.332031 8.421875 4.582031 10 5.832031 10 L 9.167969 10 C 10.417969 10 11.667969 8.421875 11.667969 7.5 L 11.667969 6.710938 C 11.148438 7.433594 10.417969 8.332031 7.5 8.332031 Z M 7.5 8.332031 "/>
<path style=" stroke:none;fill-rule:nonzero;fill:rgb(100%,85.098039%,51.372549%);fill-opacity:1;" d="M 6.25 7.292969 C 6.25 7.636719 5.96875 7.917969 5.625 7.917969 C 5.28125 7.917969 5 7.636719 5 7.292969 C 5 6.945312 5.28125 6.667969 5.625 6.667969 C 5.96875 6.667969 6.25 6.945312 6.25 7.292969 Z M 10 7.292969 C 10 7.636719 9.71875 7.917969 9.375 7.917969 C 9.03125 7.917969 8.75 7.636719 8.75 7.292969 C 8.75 6.945312 9.03125 6.667969 9.375 6.667969 C 9.71875 6.667969 10 6.945312 10 7.292969 Z M 10 7.292969 "/>
<path style=" stroke:none;fill-rule:nonzero;fill:rgb(16.078431%,18.431373%,20%);fill-opacity:1;" d="M 10.417969 3.75 L 10.417969 2.917969 C 10.417969 2.457031 10.042969 2.082031 9.582031 2.082031 L 5.417969 2.082031 C 4.957031 2.082031 4.582031 2.457031 4.582031 2.917969 L 4.582031 3.75 Z M 10.417969 3.75 "/>
<path style=" stroke:none;fill-rule:nonzero;fill:rgb(42.745098%,43.137255%,44.313725%);fill-opacity:1;" d="M 8.75 2.917969 C 8.75 3.148438 8.5625 3.332031 8.332031 3.332031 L 6.667969 3.332031 C 6.4375 3.332031 6.25 3.148438 6.25 2.917969 C 6.25 2.6875 6.4375 2.5 6.667969 2.5 L 8.332031 2.5 C 8.5625 2.5 8.75 2.6875 8.75 2.917969 Z M 8.75 2.917969 "/>
</g>
</svg>
