<?xml version="1.0" encoding="UTF-8"?>
<svg xmlns="http://www.w3.org/2000/svg" xmlns:xlink="http://www.w3.org/1999/xlink" width="15pt" height="15pt" viewBox="0 0 15 15" version="1.1">
<g id="surface1">
<path style=" stroke:none;fill-rule:nonzero;fill:rgb(40%,45.882353%,49.803922%);fill-opacity:1;" d="M 6.773438 10.832031 L 7.609375 10.832031 L 7.609375 12.917969 L 6.773438 12.917969 Z M 3.441406 10.832031 L 4.273438 10.832031 L 4.273438 12.917969 L 3.441406 12.917969 Z M 3.441406 10.832031 "/>
<path style=" stroke:none;fill-rule:nonzero;fill:rgb(60%,66.666667%,70.980392%);fill-opacity:1;" d="M 5.109375 1.25 C 5.109375 1.019531 3.988281 0.832031 2.609375 0.832031 C 1.226562 0.832031 0.109375 1.019531 0.109375 1.25 C 0.109375 1.480469 1.226562 1.667969 2.609375 1.667969 C 3.988281 1.667969 5.109375 1.480469 5.109375 1.25 Z M 5.109375 1.25 "/>
<path style=" stroke:none;fill-rule:nonzero;fill:rgb(60%,66.666667%,70.980392%);fill-opacity:1;" d="M 10.941406 1.25 C 10.941406 1.019531 9.820312 0.832031 8.441406 0.832031 C 7.058594 0.832031 5.941406 1.019531 5.941406 1.25 C 5.941406 1.480469 7.058594 1.667969 8.441406 1.667969 C 9.820312 1.667969 10.941406 1.480469 10.941406 1.25 Z M 10.941406 1.25 "/>
<path style=" stroke:none;fill-rule:nonzero;fill:rgb(60%,66.666667%,70.980392%);fill-opacity:1;" d="M 5.109375 1.25 L 5.941406 1.25 L 5.941406 3.75 L 5.109375 3.75 Z M 5.109375 1.25 "/>
<path style=" stroke:none;fill-rule:nonzero;fill:rgb(40%,45.882353%,49.803922%);fill-opacity:1;" d="M 6.359375 1.25 C 6.359375 1.019531 5.984375 0.832031 5.523438 0.832031 C 5.0625 0.832031 4.691406 1.019531 4.691406 1.25 C 4.691406 1.480469 5.0625 1.667969 5.523438 1.667969 C 5.984375 1.667969 6.359375 1.480469 6.359375 1.25 Z M 6.359375 1.25 "/>
<path style=" stroke:none;fill-rule:nonzero;fill:rgb(100%,80%,30.196078%);fill-opacity:1;" d="M 14.273438 4.167969 C 14.273438 2.917969 14.273438 1.25 13.859375 1.25 C 13.441406 1.25 12.609375 2.917969 12.191406 3.75 C 11.773438 4.582031 14.273438 4.167969 14.273438 4.167969 Z M 14.273438 4.167969 "/>
<path style=" stroke:none;fill-rule:nonzero;fill:rgb(100%,80%,30.196078%);fill-opacity:1;" d="M 14.273438 4.167969 C 14.273438 3.246094 10.941406 2.917969 6.359375 2.917969 L 5.523438 2.917969 C 2.761719 2.917969 0.210938 5.1875 0.210938 7.605469 C 0.210938 10.019531 1.773438 11.667969 5.523438 11.667969 C 9.273438 11.667969 10.523438 9.707031 10.523438 7.292969 C 10.523438 6.925781 10.46875 6.570312 10.371094 6.230469 C 12.191406 5.832031 14.273438 5.003906 14.273438 4.167969 Z M 14.273438 4.167969 "/>
<path style=" stroke:none;fill-rule:nonzero;fill:rgb(23.137255%,53.333333%,76.470588%);fill-opacity:1;" d="M 1.773438 5.417969 C 0.902344 6.632812 0.496094 8.578125 2.28125 8.660156 C 4.273438 8.75 5.109375 8.75 5.550781 7.671875 C 6.121094 6.289062 5.941406 4.582031 5.4375 4.257812 C 4.46875 3.632812 2.644531 4.199219 1.773438 5.417969 Z M 8.792969 5.222656 C 9.691406 6.667969 9.652344 7.789062 8.023438 8.332031 C 6.773438 8.75 6.359375 7.5 6.425781 6.027344 C 6.472656 4.992188 6.511719 4.277344 7.191406 4.167969 C 7.792969 4.066406 8.242188 4.34375 8.792969 5.222656 Z M 8.792969 5.222656 "/>
<path style=" stroke:none;fill-rule:nonzero;fill:rgb(60%,66.666667%,70.980392%);fill-opacity:1;" d="M 13.101562 2.964844 C 13.476562 3.496094 13.628906 4.03125 13.441406 4.164062 C 13.253906 4.300781 12.796875 3.976562 12.421875 3.445312 C 12.042969 2.917969 11.890625 2.378906 12.078125 2.246094 C 12.265625 2.109375 12.722656 2.433594 13.101562 2.964844 Z M 13.101562 2.964844 "/>
<path style=" stroke:none;fill-rule:nonzero;fill:rgb(60%,66.666667%,70.980392%);fill-opacity:1;" d="M 14.464844 4.890625 C 14.84375 5.421875 15 5.960938 14.8125 6.09375 C 14.625 6.230469 14.164062 5.90625 13.789062 5.371094 C 13.410156 4.839844 13.253906 4.296875 13.441406 4.164062 C 13.628906 4.03125 14.089844 4.355469 14.464844 4.890625 Z M 14.464844 4.890625 "/>
<path style=" stroke:none;fill-rule:nonzero;fill:rgb(40%,45.882353%,49.803922%);fill-opacity:1;" d="M 13.78125 3.925781 C 13.914062 4.113281 13.871094 4.371094 13.683594 4.503906 C 13.496094 4.640625 13.234375 4.59375 13.101562 4.40625 C 12.96875 4.21875 13.011719 3.960938 13.199219 3.828125 C 13.390625 3.691406 13.648438 3.738281 13.78125 3.925781 Z M 13.78125 3.925781 "/>
<path style=" stroke:none;fill-rule:nonzero;fill:rgb(60%,66.666667%,70.980392%);fill-opacity:1;" d="M 10.523438 13.332031 C 10.523438 13.792969 10.152344 14.167969 9.691406 14.167969 L 1.359375 14.167969 C 0.898438 14.167969 0.523438 13.792969 0.523438 13.332031 C 0.523438 12.875 0.898438 12.5 1.359375 12.5 L 9.691406 12.5 C 10.152344 12.5 10.523438 12.875 10.523438 13.332031 Z M 10.523438 13.332031 "/>
</g>
</svg>
