<?xml version="1.0" encoding="UTF-8"?>
<svg xmlns="http://www.w3.org/2000/svg" xmlns:xlink="http://www.w3.org/1999/xlink" width="15pt" height="15pt" viewBox="0 0 15 15" version="1.1">
<g id="surface1">
<path style=" stroke:none;fill-rule:nonzero;fill:rgb(16.078431%,18.431373%,20%);fill-opacity:1;" d="M 4.582031 14.167969 C 4.582031 14.625 4.210938 15 3.75 15 L 2.917969 15 C 2.457031 15 2.082031 14.625 2.082031 14.167969 L 2.082031 11.25 C 2.082031 10.789062 2.457031 10.417969 2.917969 10.417969 L 3.75 10.417969 C 4.210938 10.417969 4.582031 10.789062 4.582031 11.25 Z M 12.917969 14.167969 C 12.917969 14.625 12.542969 15 12.082031 15 L 11.25 15 C 10.789062 15 10.417969 14.625 10.417969 14.167969 L 10.417969 11.25 C 10.417969 10.789062 10.789062 10.417969 11.25 10.417969 L 12.082031 10.417969 C 12.542969 10.417969 12.917969 10.789062 12.917969 11.25 Z M 12.917969 14.167969 "/>
<path style=" stroke:none;fill-rule:nonzero;fill:rgb(60%,66.666667%,70.980392%);fill-opacity:1;" d="M 1.25 7.082031 C 1.25 7.3125 1.0625 7.5 0.832031 7.5 L 0.417969 7.5 C 0.1875 7.5 0 7.3125 0 7.082031 L 0 4.167969 C 0 3.9375 0.1875 3.75 0.417969 3.75 L 0.832031 3.75 C 1.0625 3.75 1.25 3.9375 1.25 4.167969 Z M 15 7.082031 C 15 7.3125 14.8125 7.5 14.582031 7.5 L 14.167969 7.5 C 13.9375 7.5 13.75 7.3125 13.75 7.082031 L 13.75 4.167969 C 13.75 3.9375 13.9375 3.75 14.167969 3.75 L 14.582031 3.75 C 14.8125 3.75 15 3.9375 15 4.167969 Z M 15 7.082031 "/>
<path style=" stroke:none;fill-rule:nonzero;fill:rgb(60%,66.666667%,70.980392%);fill-opacity:1;" d="M 14.582031 4.582031 C 14.582031 4.8125 14.398438 5 14.167969 5 L 0.832031 5 C 0.601562 5 0.417969 4.8125 0.417969 4.582031 C 0.417969 4.351562 0.601562 4.167969 0.832031 4.167969 L 14.167969 4.167969 C 14.398438 4.167969 14.582031 4.351562 14.582031 4.582031 Z M 14.582031 6.25 C 14.582031 6.480469 14.398438 6.667969 14.167969 6.667969 L 0.832031 6.667969 C 0.601562 6.667969 0.417969 6.480469 0.417969 6.25 C 0.417969 6.019531 0.601562 5.832031 0.832031 5.832031 L 14.167969 5.832031 C 14.398438 5.832031 14.582031 6.019531 14.582031 6.25 Z M 14.582031 6.25 "/>
<path style=" stroke:none;fill-rule:nonzero;fill:rgb(80%,83.921569%,86.666667%);fill-opacity:1;" d="M 10 0.832031 C 10 1.292969 9.625 1.667969 9.167969 1.667969 L 5.832031 1.667969 C 5.375 1.667969 5 1.292969 5 0.832031 C 5 0.375 5.375 0 5.832031 0 L 9.167969 0 C 9.625 0 10 0.375 10 0.832031 Z M 10 0.832031 "/>
<path style=" stroke:none;fill-rule:nonzero;fill:rgb(80%,83.921569%,86.666667%);fill-opacity:1;" d="M 11.667969 0.832031 L 3.332031 0.832031 C 2.414062 0.832031 1.667969 1.578125 1.667969 2.5 L 1.667969 13.332031 L 13.332031 13.332031 L 13.332031 2.5 C 13.332031 1.578125 12.585938 0.832031 11.667969 0.832031 Z M 11.667969 0.832031 "/>
<path style=" stroke:none;fill-rule:nonzero;fill:rgb(100%,80%,30.196078%);fill-opacity:1;" d="M 1.667969 6.667969 L 13.332031 6.667969 L 13.332031 13.332031 L 1.667969 13.332031 Z M 1.667969 6.667969 "/>
<path style=" stroke:none;fill-rule:nonzero;fill:rgb(40%,45.882353%,49.803922%);fill-opacity:1;" d="M 13.75 13.332031 C 13.75 13.5625 13.5625 13.75 13.332031 13.75 L 1.667969 13.75 C 1.4375 13.75 1.25 13.5625 1.25 13.332031 L 1.25 12.917969 C 1.25 12.6875 1.4375 12.5 1.667969 12.5 L 13.332031 12.5 C 13.5625 12.5 13.75 12.6875 13.75 12.917969 Z M 13.332031 7.082031 C 13.332031 7.773438 12.773438 8.332031 12.082031 8.332031 L 2.917969 8.332031 C 2.226562 8.332031 1.667969 7.773438 1.667969 7.082031 L 1.667969 4.167969 C 1.667969 3.476562 2.226562 2.917969 2.917969 2.917969 L 12.082031 2.917969 C 12.773438 2.917969 13.332031 3.476562 13.332031 4.167969 Z M 13.332031 7.082031 "/>
<path style=" stroke:none;fill-rule:nonzero;fill:rgb(53.333333%,78.823529%,97.647059%);fill-opacity:1;" d="M 12.5 6.667969 C 12.5 7.125 12.125 7.5 11.667969 7.5 L 3.332031 7.5 C 2.875 7.5 2.5 7.128906 2.5 6.667969 L 2.5 4.582031 C 2.5 4.125 2.875 3.75 3.332031 3.75 L 11.667969 3.75 C 12.125 3.75 12.5 4.121094 12.5 4.582031 Z M 12.5 6.667969 "/>
<path style=" stroke:none;fill-rule:nonzero;fill:rgb(100%,67.45098%,20%);fill-opacity:1;" d="M 1.667969 10.417969 L 13.332031 10.417969 L 13.332031 12.5 L 1.667969 12.5 Z M 1.667969 10.417969 "/>
<path style=" stroke:none;fill-rule:nonzero;fill:rgb(100%,100%,100%);fill-opacity:1;" d="M 2.5 10.417969 L 5 10.417969 L 5 11.667969 L 2.5 11.667969 Z M 10 10.417969 L 12.5 10.417969 L 12.5 11.667969 L 10 11.667969 Z M 10 10.417969 "/>
<path style=" stroke:none;fill-rule:nonzero;fill:rgb(86.666667%,18.039216%,26.666667%);fill-opacity:1;" d="M 1.667969 10.417969 L 2.5 10.417969 L 2.5 11.667969 L 1.667969 11.667969 Z M 12.5 10.417969 L 13.332031 10.417969 L 13.332031 11.667969 L 12.5 11.667969 Z M 12.5 10.417969 "/>
<path style=" stroke:none;fill-rule:nonzero;fill:rgb(40%,45.882353%,49.803922%);fill-opacity:1;" d="M 5.832031 10.417969 L 9.167969 10.417969 L 9.167969 11.667969 L 5.832031 11.667969 Z M 5.832031 10.417969 "/>
<path style=" stroke:none;fill-rule:nonzero;fill:rgb(16.078431%,18.431373%,20%);fill-opacity:1;" d="M 9.167969 1.457031 C 9.167969 1.804688 8.886719 2.082031 8.542969 2.082031 L 6.457031 2.082031 C 6.113281 2.082031 5.832031 1.804688 5.832031 1.457031 C 5.832031 1.113281 6.113281 0.832031 6.457031 0.832031 L 8.542969 0.832031 C 8.886719 0.832031 9.167969 1.113281 9.167969 1.457031 Z M 9.167969 1.457031 "/>
</g>
</svg>
