<?xml version="1.0" encoding="UTF-8"?>
<svg xmlns="http://www.w3.org/2000/svg" xmlns:xlink="http://www.w3.org/1999/xlink" width="15pt" height="15pt" viewBox="0 0 15 15" version="1.1">
<g id="surface1">
<path style=" stroke:none;fill-rule:nonzero;fill:rgb(57.647059%,58.431373%,59.607843%);fill-opacity:1;" d="M 0 14.167969 L 15 14.167969 L 15 15 L 0 15 Z M 0 14.167969 "/>
<path style=" stroke:none;fill-rule:nonzero;fill:rgb(81.960784%,82.745098%,83.137255%);fill-opacity:1;" d="M 1.25 14.582031 L 15 14.582031 L 15 2.5 L 8.75 2.5 C 7.082031 2.5 6.667969 3.332031 6.667969 3.332031 L 5 5.832031 C 5 5.832031 0 7.917969 0 10 C 0 11.667969 2.5 12.5 2.5 12.5 Z M 1.25 14.582031 "/>
<path style=" stroke:none;fill-rule:nonzero;fill:rgb(13.72549%,12.156863%,12.54902%);fill-opacity:1;" d="M 5.832031 14.582031 L 6.667969 13.332031 L 15 13.332031 L 15 14.582031 Z M 5.832031 14.582031 "/>
<path style=" stroke:none;fill-rule:nonzero;fill:rgb(23.137255%,53.333333%,76.470588%);fill-opacity:1;" d="M 0 10 C 0 11.667969 2.5 12.5 2.5 12.5 L 2.5 7.136719 C 1.25 7.917969 0 8.957031 0 10 Z M 2.5 12.5 Z M 2.5 12.5 "/>
<path style=" stroke:none;fill-rule:nonzero;fill:rgb(13.333333%,40%,60%);fill-opacity:1;" d="M 2.5 12.5 L 1.25 14.582031 L 15 14.582031 L 15 12.5 Z M 2.5 12.5 "/>
<path style=" stroke:none;fill-rule:nonzero;fill:rgb(23.137255%,53.333333%,76.470588%);fill-opacity:1;" d="M 8.332031 12.5 L 10 10 L 15 10 L 15 12.5 Z M 8.332031 12.5 "/>
<path style=" stroke:none;fill-rule:nonzero;fill:rgb(33.333333%,67.45098%,93.333333%);fill-opacity:1;" d="M 10.832031 3.332031 L 6.667969 3.332031 L 5 5.832031 L 9.515625 5.832031 C 9.714844 5.832031 9.980469 5.648438 10.105469 5.417969 L 11.019531 3.75 C 11.148438 3.519531 11.0625 3.332031 10.832031 3.332031 Z M 10.832031 3.332031 "/>
<path style=" stroke:none;fill-rule:nonzero;fill:rgb(23.137255%,53.333333%,76.470588%);fill-opacity:1;" d="M 10.792969 4.167969 L 11.019531 3.75 C 11.148438 3.519531 11.0625 3.332031 10.832031 3.332031 L 6.667969 3.332031 L 6.109375 4.167969 Z M 10.792969 4.167969 "/>
</g>
</svg>
