<?xml version="1.0" encoding="UTF-8"?>
<svg xmlns="http://www.w3.org/2000/svg" xmlns:xlink="http://www.w3.org/1999/xlink" width="15pt" height="15pt" viewBox="0 0 15 15" version="1.1">
<g id="surface1">
<path style=" stroke:none;fill-rule:nonzero;fill:rgb(57.647059%,58.431373%,59.607843%);fill-opacity:1;" d="M 0 14.167969 L 15 14.167969 L 15 15 L 0 15 Z M 0 14.167969 "/>
<path style=" stroke:none;fill-rule:nonzero;fill:rgb(81.960784%,82.745098%,83.137255%);fill-opacity:1;" d="M 2.082031 13.359375 L 15 13.332031 L 15 2.5 L 7.082031 2.5 C 4.582031 2.5 4.167969 3.75 4.167969 3.75 C 4.167969 3.75 2.082031 9.167969 2.082031 10 Z M 2.082031 13.359375 "/>
<path style=" stroke:none;fill-rule:nonzero;fill:rgb(81.960784%,82.745098%,83.137255%);fill-opacity:1;" d="M 5.832031 12.5 C 5.832031 12.730469 5.648438 12.917969 5.417969 12.917969 L 2.082031 12.917969 C 1.851562 12.917969 1.667969 12.730469 1.667969 12.5 L 1.667969 11.667969 C 1.667969 11.4375 1.851562 11.25 2.082031 11.25 L 5.417969 11.25 C 5.648438 11.25 5.832031 11.4375 5.832031 11.667969 Z M 5.832031 12.5 "/>
<path style=" stroke:none;fill-rule:nonzero;fill:rgb(95.686275%,56.470588%,4.705882%);fill-opacity:1;" d="M 15 14.582031 L 1.886719 14.582031 C 1.664062 14.582031 1.414062 14.304688 1.324219 13.957031 L 0.996094 12.707031 C 0.90625 12.363281 1.25 12.082031 1.667969 12.082031 L 15 12.082031 Z M 15 14.582031 "/>
<path style=" stroke:none;fill-rule:nonzero;fill:rgb(25.490196%,25.098039%,25.882353%);fill-opacity:1;" d="M 15 4.167969 L 9.167969 4.167969 C 8.339844 4.167969 7.542969 4.914062 7.382812 5.832031 L 6.953125 8.332031 C 6.796875 9.253906 7.414062 10 8.332031 10 L 15 10 Z M 15 4.167969 "/>
<path style=" stroke:none;fill-rule:nonzero;fill:rgb(23.137255%,53.333333%,76.470588%);fill-opacity:1;" d="M 15 5 L 9.621094 5 C 8.75 5 8.460938 5.53125 8.347656 6.191406 L 8.039062 7.976562 C 7.925781 8.632812 8.09375 9.167969 8.75 9.167969 L 15 9.167969 Z M 15 5 "/>
<path style=" stroke:none;fill-rule:nonzero;fill:rgb(25.490196%,25.098039%,25.882353%);fill-opacity:1;" d="M 7.082031 2.5 C 4.582031 2.5 4.167969 3.75 4.167969 3.75 C 4.167969 3.75 2.085938 9.160156 2.082031 9.996094 C 3.101562 9.984375 3.796875 9.855469 4.167969 8.75 C 4.582031 7.5 5 5.832031 5.417969 5 C 5.832031 4.167969 6.25 3.75 7.5 3.75 C 8.539062 3.75 8.996094 3.171875 9.125 2.5 Z M 7.082031 2.5 "/>
<path style=" stroke:none;fill-rule:nonzero;fill:rgb(33.333333%,67.45098%,93.333333%);fill-opacity:1;" d="M 3.75 7.5 C 4.144531 6.320312 5.277344 4.398438 4 4.1875 C 3.648438 5.113281 2.832031 7.308594 2.382812 8.75 L 2.5 8.75 C 2.5 8.75 3.332031 8.75 3.75 7.5 Z M 3.75 7.5 "/>
<path style=" stroke:none;fill-rule:nonzero;fill:rgb(86.666667%,18.039216%,26.666667%);fill-opacity:1;" d="M 3.75 10.832031 C 3.75 11.0625 3.5625 11.25 3.332031 11.25 L 2.5 11.25 C 2.269531 11.25 2.082031 11.0625 2.082031 10.832031 C 2.082031 10.601562 2.269531 10.417969 2.5 10.417969 L 3.332031 10.417969 C 3.5625 10.417969 3.75 10.601562 3.75 10.832031 Z M 3.75 10.832031 "/>
</g>
</svg>
