<?xml version="1.0" encoding="UTF-8"?>
<svg xmlns="http://www.w3.org/2000/svg" xmlns:xlink="http://www.w3.org/1999/xlink" width="15pt" height="15pt" viewBox="0 0 15 15" version="1.1">
<g id="surface1">
<path style=" stroke:none;fill-rule:nonzero;fill:rgb(57.647059%,58.431373%,59.607843%);fill-opacity:1;" d="M 0 14.167969 L 15 14.167969 L 15 15 L 0 15 Z M 0 14.167969 "/>
<path style=" stroke:none;fill-rule:nonzero;fill:rgb(34.509804%,34.901961%,35.686275%);fill-opacity:1;" d="M 4.167969 13.332031 C 4.167969 12.644531 3.605469 12.082031 2.917969 12.082031 C 2.226562 12.082031 1.667969 12.644531 1.667969 13.332031 C 1.667969 14.023438 2.226562 14.582031 2.917969 14.582031 C 3.605469 14.582031 4.167969 14.023438 4.167969 13.332031 Z M 4.167969 13.332031 "/>
<path style=" stroke:none;fill-rule:nonzero;fill:rgb(16.078431%,18.431373%,20%);fill-opacity:1;" d="M 3.75 13.332031 C 3.75 12.871094 3.375 12.5 2.917969 12.5 C 2.457031 12.5 2.082031 12.871094 2.082031 13.332031 C 2.082031 13.792969 2.457031 14.167969 2.917969 14.167969 C 3.375 14.167969 3.75 13.792969 3.75 13.332031 Z M 3.75 13.332031 "/>
<path style=" stroke:none;fill-rule:nonzero;fill:rgb(34.509804%,34.901961%,35.686275%);fill-opacity:1;" d="M 13.332031 13.332031 C 13.332031 14.023438 12.773438 14.582031 12.082031 14.582031 C 11.394531 14.582031 10.832031 14.023438 10.832031 13.332031 C 10.832031 12.644531 11.394531 12.082031 12.082031 12.082031 C 12.773438 12.082031 13.332031 12.644531 13.332031 13.332031 Z M 13.332031 13.332031 "/>
<path style=" stroke:none;fill-rule:nonzero;fill:rgb(16.078431%,18.431373%,20%);fill-opacity:1;" d="M 12.917969 13.332031 C 12.917969 13.792969 12.542969 14.167969 12.082031 14.167969 C 11.625 14.167969 11.25 13.792969 11.25 13.332031 C 11.25 12.875 11.625 12.5 12.082031 12.5 C 12.542969 12.5 12.917969 12.875 12.917969 13.332031 Z M 12.917969 13.332031 "/>
<path style=" stroke:none;fill-rule:nonzero;fill:rgb(90.196078%,90.588235%,90.980392%);fill-opacity:1;" d="M 14.167969 0.832031 L 0.832031 0.832031 C 0.601562 0.832031 0.417969 0.648438 0.417969 0.417969 C 0.417969 0.1875 0.601562 0 0.832031 0 L 14.167969 0 C 14.398438 0 14.582031 0.1875 14.582031 0.417969 C 14.582031 0.648438 14.398438 0.832031 14.167969 0.832031 Z M 14.167969 0.832031 "/>
<path style=" stroke:none;fill-rule:nonzero;fill:rgb(40%,45.882353%,49.803922%);fill-opacity:1;" d="M 9.582031 2.058594 C 9.574219 1.941406 9.519531 1.832031 9.425781 1.757812 L 7.890625 0.53125 C 7.929688 0.40625 7.914062 0.265625 7.824219 0.15625 C 7.695312 -0.0078125 7.46875 -0.0390625 7.292969 0.0625 C 7.117188 -0.0390625 6.890625 -0.0078125 6.757812 0.15625 C 6.667969 0.265625 6.652344 0.40625 6.691406 0.53125 L 5.15625 1.757812 C 5.0625 1.832031 5.007812 1.941406 5 2.058594 C 4.992188 2.179688 5.039062 2.292969 5.121094 2.378906 L 6.71875 3.976562 C 6.636719 4.132812 6.65625 4.328125 6.789062 4.460938 C 6.871094 4.542969 6.976562 4.582031 7.082031 4.582031 C 7.15625 4.582031 7.226562 4.558594 7.292969 4.519531 C 7.355469 4.558594 7.425781 4.582031 7.5 4.582031 C 7.605469 4.582031 7.714844 4.542969 7.792969 4.460938 C 7.925781 4.328125 7.945312 4.132812 7.863281 3.976562 L 9.460938 2.378906 C 9.546875 2.292969 9.589844 2.179688 9.582031 2.058594 Z M 7.292969 3.367188 L 6.039062 2.117188 L 7.292969 1.117188 L 8.542969 2.117188 Z M 7.292969 3.367188 "/>
<path style=" stroke:none;fill-rule:nonzero;fill:rgb(73.72549%,74.509804%,75.294118%);fill-opacity:1;" d="M 12.5 4.167969 C 12.5 4.625 12.125 5 11.667969 5 L 3.332031 5 C 2.875 5 2.5 4.625 2.5 4.167969 C 2.5 3.707031 2.875 3.332031 3.332031 3.332031 L 11.667969 3.332031 C 12.125 3.332031 12.5 3.707031 12.5 4.167969 Z M 12.5 4.167969 "/>
<path style=" stroke:none;fill-rule:nonzero;fill:rgb(90.196078%,90.588235%,90.980392%);fill-opacity:1;" d="M 15 9.167969 C 15 10.085938 14.253906 10.832031 13.332031 10.832031 L 1.667969 10.832031 C 0.746094 10.832031 0 10.085938 0 9.167969 L 0 5.832031 C 0 4.914062 0.746094 4.167969 1.667969 4.167969 L 13.332031 4.167969 C 14.253906 4.167969 15 4.914062 15 5.832031 Z M 0 11.667969 L 15 11.667969 L 15 13.332031 L 0 13.332031 Z M 0 11.667969 "/>
<path style=" stroke:none;fill-rule:nonzero;fill:rgb(74.509804%,9.803922%,19.215686%);fill-opacity:1;" d="M 0 5.832031 L 15 5.832031 L 15 11.667969 L 0 11.667969 Z M 0 5.832031 "/>
<path style=" stroke:none;fill-rule:nonzero;fill:rgb(86.666667%,18.039216%,26.666667%);fill-opacity:1;" d="M 15 5.832031 L 0 5.832031 L 0 10 L 2.5 10 L 2.5 12.5 L 5.417969 12.5 L 5.417969 10 L 9.582031 10 L 9.582031 12.5 L 12.5 12.5 L 12.5 10 L 15 10 Z M 15 5.832031 "/>
<path style=" stroke:none;fill-rule:nonzero;fill:rgb(33.333333%,67.45098%,93.333333%);fill-opacity:1;" d="M 0.832031 6.667969 L 0 6.667969 L 0 10.832031 L 0.832031 10.832031 C 1.292969 10.832031 1.667969 10.460938 1.667969 10 L 1.667969 7.5 C 1.667969 7.039062 1.292969 6.667969 0.832031 6.667969 Z M 15 6.667969 L 14.167969 6.667969 C 13.707031 6.667969 13.332031 7.039062 13.332031 7.5 L 13.332031 10 C 13.332031 10.460938 13.707031 10.832031 14.167969 10.832031 L 15 10.832031 Z M 8.75 9.167969 C 8.75 9.398438 8.5625 9.582031 8.332031 9.582031 L 6.667969 9.582031 C 6.4375 9.582031 6.25 9.398438 6.25 9.167969 L 6.25 7.5 C 6.25 7.269531 6.4375 7.082031 6.667969 7.082031 L 8.332031 7.082031 C 8.5625 7.082031 8.75 7.269531 8.75 7.5 Z M 5 9.582031 C 5 9.8125 4.8125 10 4.582031 10 L 3.332031 10 C 3.101562 10 2.917969 9.8125 2.917969 9.582031 L 2.917969 7.5 C 2.917969 7.269531 3.101562 7.082031 3.332031 7.082031 L 4.582031 7.082031 C 4.8125 7.082031 5 7.269531 5 7.5 Z M 12.082031 9.582031 C 12.082031 9.8125 11.898438 10 11.667969 10 L 10.417969 10 C 10.1875 10 10 9.8125 10 9.582031 L 10 7.5 C 10 7.269531 10.1875 7.082031 10.417969 7.082031 L 11.667969 7.082031 C 11.898438 7.082031 12.082031 7.269531 12.082031 7.5 Z M 12.082031 9.582031 "/>
<path style=" stroke:none;fill-rule:nonzero;fill:rgb(62.745098%,1.568627%,11.764706%);fill-opacity:1;" d="M 0 11.667969 L 15 11.667969 L 15 12.5 L 0 12.5 Z M 0 11.667969 "/>
</g>
</svg>
