<?xml version="1.0" encoding="UTF-8"?>
<svg xmlns="http://www.w3.org/2000/svg" xmlns:xlink="http://www.w3.org/1999/xlink" width="15pt" height="15pt" viewBox="0 0 15 15" version="1.1">
<g id="surface1">
<path style=" stroke:none;fill-rule:nonzero;fill:rgb(57.647059%,58.431373%,59.607843%);fill-opacity:1;" d="M 0 14.167969 L 15 14.167969 L 15 15 L 0 15 Z M 0 14.167969 "/>
<path style=" stroke:none;fill-rule:nonzero;fill:rgb(34.509804%,34.901961%,35.686275%);fill-opacity:1;" d="M 3.332031 13.332031 C 3.332031 12.644531 2.773438 12.082031 2.082031 12.082031 C 1.394531 12.082031 0.832031 12.644531 0.832031 13.332031 C 0.832031 14.023438 1.394531 14.582031 2.082031 14.582031 C 2.773438 14.582031 3.332031 14.023438 3.332031 13.332031 Z M 3.332031 13.332031 "/>
<path style=" stroke:none;fill-rule:nonzero;fill:rgb(16.078431%,18.431373%,20%);fill-opacity:1;" d="M 2.917969 13.332031 C 2.917969 12.871094 2.542969 12.5 2.082031 12.5 C 1.625 12.5 1.25 12.871094 1.25 13.332031 C 1.25 13.792969 1.625 14.167969 2.082031 14.167969 C 2.542969 14.167969 2.917969 13.792969 2.917969 13.332031 Z M 2.917969 13.332031 "/>
<path style=" stroke:none;fill-rule:nonzero;fill:rgb(34.509804%,34.901961%,35.686275%);fill-opacity:1;" d="M 6.667969 13.332031 C 6.667969 12.644531 6.105469 12.082031 5.417969 12.082031 C 4.726562 12.082031 4.167969 12.644531 4.167969 13.332031 C 4.167969 14.023438 4.726562 14.582031 5.417969 14.582031 C 6.105469 14.582031 6.667969 14.023438 6.667969 13.332031 Z M 6.667969 13.332031 "/>
<path style=" stroke:none;fill-rule:nonzero;fill:rgb(16.078431%,18.431373%,20%);fill-opacity:1;" d="M 6.25 13.332031 C 6.25 12.871094 5.875 12.5 5.417969 12.5 C 4.957031 12.5 4.582031 12.871094 4.582031 13.332031 C 4.582031 13.792969 4.957031 14.167969 5.417969 14.167969 C 5.875 14.167969 6.25 13.792969 6.25 13.332031 Z M 6.25 13.332031 "/>
<path style=" stroke:none;fill-rule:nonzero;fill:rgb(34.509804%,34.901961%,35.686275%);fill-opacity:1;" d="M 14.582031 13.332031 C 14.582031 14.023438 14.023438 14.582031 13.332031 14.582031 C 12.644531 14.582031 12.082031 14.023438 12.082031 13.332031 C 12.082031 12.644531 12.644531 12.082031 13.332031 12.082031 C 14.023438 12.082031 14.582031 12.644531 14.582031 13.332031 Z M 14.582031 13.332031 "/>
<path style=" stroke:none;fill-rule:nonzero;fill:rgb(16.078431%,18.431373%,20%);fill-opacity:1;" d="M 14.167969 13.332031 C 14.167969 13.792969 13.792969 14.167969 13.332031 14.167969 C 12.875 14.167969 12.5 13.792969 12.5 13.332031 C 12.5 12.875 12.875 12.5 13.332031 12.5 C 13.792969 12.5 14.167969 12.875 14.167969 13.332031 Z M 14.167969 13.332031 "/>
<path style=" stroke:none;fill-rule:nonzero;fill:rgb(34.509804%,34.901961%,35.686275%);fill-opacity:1;" d="M 11.25 13.332031 C 11.25 14.023438 10.691406 14.582031 10 14.582031 C 9.308594 14.582031 8.75 14.023438 8.75 13.332031 C 8.75 12.644531 9.308594 12.082031 10 12.082031 C 10.691406 12.082031 11.25 12.644531 11.25 13.332031 Z M 11.25 13.332031 "/>
<path style=" stroke:none;fill-rule:nonzero;fill:rgb(16.078431%,18.431373%,20%);fill-opacity:1;" d="M 10.832031 13.332031 C 10.832031 13.792969 10.460938 14.167969 10 14.167969 C 9.539062 14.167969 9.167969 13.792969 9.167969 13.332031 C 9.167969 12.875 9.539062 12.5 10 12.5 C 10.460938 12.5 10.832031 12.875 10.832031 13.332031 Z M 10.832031 13.332031 "/>
<path style=" stroke:none;fill-rule:nonzero;fill:rgb(36.078431%,56.862745%,23.137255%);fill-opacity:1;" d="M 0 11.667969 L 15 11.667969 L 15 13.332031 L 0 13.332031 Z M 0 11.667969 "/>
<path style=" stroke:none;fill-rule:nonzero;fill:rgb(100%,90.980392%,71.372549%);fill-opacity:1;" d="M 0 6.667969 L 15 6.667969 L 15 11.667969 L 0 11.667969 Z M 0 6.667969 "/>
<path style=" stroke:none;fill-rule:nonzero;fill:rgb(100%,67.45098%,20%);fill-opacity:1;" d="M 0 10.832031 L 15 10.832031 L 15 11.667969 L 0 11.667969 Z M 0 10.832031 "/>
<path style=" stroke:none;fill-rule:nonzero;fill:rgb(46.666667%,69.803922%,33.333333%);fill-opacity:1;" d="M 13.566406 5.832031 L 1.433594 5.832031 C 0.820312 5.832031 0.289062 6.171875 0 6.667969 L 15 6.667969 C 14.710938 6.171875 14.179688 5.832031 13.566406 5.832031 Z M 13.566406 5.832031 "/>
<path style=" stroke:none;fill-rule:nonzero;fill:rgb(33.333333%,67.45098%,93.333333%);fill-opacity:1;" d="M 2.082031 9.167969 C 2.082031 9.398438 1.898438 9.582031 1.667969 9.582031 L 0.832031 9.582031 C 0.601562 9.582031 0.417969 9.398438 0.417969 9.167969 L 0.417969 8.332031 C 0.417969 8.101562 0.601562 7.917969 0.832031 7.917969 L 1.667969 7.917969 C 1.898438 7.917969 2.082031 8.101562 2.082031 8.332031 Z M 4.582031 9.167969 C 4.582031 9.398438 4.398438 9.582031 4.167969 9.582031 L 3.332031 9.582031 C 3.101562 9.582031 2.917969 9.398438 2.917969 9.167969 L 2.917969 8.332031 C 2.917969 8.101562 3.101562 7.917969 3.332031 7.917969 L 4.167969 7.917969 C 4.398438 7.917969 4.582031 8.101562 4.582031 8.332031 Z M 7.082031 9.167969 C 7.082031 9.398438 6.898438 9.582031 6.667969 9.582031 L 5.832031 9.582031 C 5.601562 9.582031 5.417969 9.398438 5.417969 9.167969 L 5.417969 8.332031 C 5.417969 8.101562 5.601562 7.917969 5.832031 7.917969 L 6.667969 7.917969 C 6.898438 7.917969 7.082031 8.101562 7.082031 8.332031 Z M 9.582031 9.167969 C 9.582031 9.398438 9.398438 9.582031 9.167969 9.582031 L 8.332031 9.582031 C 8.101562 9.582031 7.917969 9.398438 7.917969 9.167969 L 7.917969 8.332031 C 7.917969 8.101562 8.101562 7.917969 8.332031 7.917969 L 9.167969 7.917969 C 9.398438 7.917969 9.582031 8.101562 9.582031 8.332031 Z M 12.082031 9.167969 C 12.082031 9.398438 11.898438 9.582031 11.667969 9.582031 L 10.832031 9.582031 C 10.601562 9.582031 10.417969 9.398438 10.417969 9.167969 L 10.417969 8.332031 C 10.417969 8.101562 10.601562 7.917969 10.832031 7.917969 L 11.667969 7.917969 C 11.898438 7.917969 12.082031 8.101562 12.082031 8.332031 Z M 14.582031 9.167969 C 14.582031 9.398438 14.398438 9.582031 14.167969 9.582031 L 13.332031 9.582031 C 13.101562 9.582031 12.917969 9.398438 12.917969 9.167969 L 12.917969 8.332031 C 12.917969 8.101562 13.101562 7.917969 13.332031 7.917969 L 14.167969 7.917969 C 14.398438 7.917969 14.582031 8.101562 14.582031 8.332031 Z M 14.582031 9.167969 "/>
</g>
</svg>
