<?xml version="1.0" encoding="UTF-8"?>
<svg xmlns="http://www.w3.org/2000/svg" xmlns:xlink="http://www.w3.org/1999/xlink" width="15pt" height="15pt" viewBox="0 0 15 15" version="1.1">
<g id="surface1">
<path style=" stroke:none;fill-rule:nonzero;fill:rgb(16.078431%,18.431373%,20%);fill-opacity:1;" d="M 15 7.5 C 15 11.640625 11.640625 15 7.5 15 C 3.359375 15 0 11.640625 0 7.5 C 0 3.359375 3.359375 0 7.5 0 C 11.640625 0 15 3.359375 15 7.5 Z M 15 7.5 "/>
<path style=" stroke:none;fill-rule:nonzero;fill:rgb(50.196078%,50.980392%,52.156863%);fill-opacity:1;" d="M 3.707031 13.960938 C 4 14.132812 4.296875 14.292969 4.613281 14.421875 L 7.355469 8.332031 L 6.761719 8.332031 Z M 8.238281 8.332031 L 7.644531 8.332031 L 10.386719 14.421875 C 10.703125 14.292969 11.003906 14.132812 11.292969 13.960938 Z M 8.238281 8.332031 "/>
<path style=" stroke:none;fill-rule:nonzero;fill:rgb(34.509804%,34.901961%,35.686275%);fill-opacity:1;" d="M 5 10.832031 L 5.832031 10.832031 L 5.832031 11.667969 L 5 11.667969 Z M 9.167969 10.832031 L 10 10.832031 L 10 11.667969 L 9.167969 11.667969 Z M 9.167969 10.832031 "/>
<path style=" stroke:none;fill-rule:nonzero;fill:rgb(65.490196%,66.27451%,67.45098%);fill-opacity:1;" d="M 10.832031 10.417969 C 10.832031 10.875 10.460938 11.25 10 11.25 L 5 11.25 C 4.539062 11.25 4.167969 10.875 4.167969 10.417969 L 4.167969 9.582031 C 4.167969 9.125 4.539062 8.75 5 8.75 L 10 8.75 C 10.460938 8.75 10.832031 9.125 10.832031 9.582031 Z M 10.832031 10.417969 "/>
<path style=" stroke:none;fill-rule:nonzero;fill:rgb(81.960784%,82.745098%,83.137255%);fill-opacity:1;" d="M 10.152344 2.5 L 4.847656 2.5 C 4.011719 2.5 3.332031 3.179688 3.332031 4.015625 L 3.332031 9.582031 C 3.332031 10.042969 3.707031 10.417969 4.167969 10.417969 L 10.832031 10.417969 C 11.292969 10.417969 11.667969 10.042969 11.667969 9.582031 L 11.667969 4.015625 C 11.667969 3.179688 10.988281 2.5 10.152344 2.5 Z M 10.152344 2.5 "/>
<path style=" stroke:none;fill-rule:nonzero;fill:rgb(86.666667%,18.039216%,26.666667%);fill-opacity:1;" d="M 3.332031 7.917969 L 3.332031 9.582031 C 3.332031 10.042969 3.707031 10.417969 4.167969 10.417969 L 10.832031 10.417969 C 11.292969 10.417969 11.667969 10.042969 11.667969 9.582031 L 11.667969 6.25 L 3.332031 6.25 Z M 3.332031 7.917969 "/>
<path style=" stroke:none;fill-rule:nonzero;fill:rgb(34.509804%,34.901961%,35.686275%);fill-opacity:1;" d="M 10.832031 7.082031 C 10.832031 7.542969 10.460938 7.917969 10 7.917969 L 5 7.917969 C 4.539062 7.917969 4.167969 7.542969 4.167969 7.082031 L 4.167969 4.167969 C 4.167969 3.707031 4.539062 3.332031 5 3.332031 L 10 3.332031 C 10.460938 3.332031 10.832031 3.707031 10.832031 4.167969 Z M 10.832031 7.082031 "/>
<path style=" stroke:none;fill-rule:nonzero;fill:rgb(33.333333%,67.45098%,93.333333%);fill-opacity:1;" d="M 10 6.667969 C 10 6.898438 9.8125 7.082031 9.582031 7.082031 L 5.417969 7.082031 C 5.1875 7.082031 5 6.898438 5 6.667969 L 5 4.582031 C 5 4.351562 5.1875 4.167969 5.417969 4.167969 L 9.582031 4.167969 C 9.8125 4.167969 10 4.351562 10 4.582031 Z M 10 6.667969 "/>
<path style=" stroke:none;fill-rule:nonzero;fill:rgb(100%,85.098039%,51.372549%);fill-opacity:1;" d="M 4.167969 8.75 L 5.832031 8.75 L 5.832031 9.582031 L 4.167969 9.582031 Z M 9.167969 8.75 L 10.832031 8.75 L 10.832031 9.582031 L 9.167969 9.582031 Z M 9.167969 8.75 "/>
<path style=" stroke:none;fill-rule:nonzero;fill:rgb(50.196078%,50.980392%,52.156863%);fill-opacity:1;" d="M 8.332031 3.75 C 8.332031 3.980469 8.148438 4.167969 7.917969 4.167969 L 7.082031 4.167969 C 6.851562 4.167969 6.667969 3.980469 6.667969 3.75 C 6.667969 3.519531 6.851562 3.332031 7.082031 3.332031 L 7.917969 3.332031 C 8.148438 3.332031 8.332031 3.519531 8.332031 3.75 Z M 8.332031 3.75 "/>
</g>
</svg>
