<?xml version="1.0" encoding="UTF-8"?>
<svg xmlns="http://www.w3.org/2000/svg" xmlns:xlink="http://www.w3.org/1999/xlink" width="15pt" height="15pt" viewBox="0 0 15 15" version="1.1">
<g id="surface1">
<path style=" stroke:none;fill-rule:nonzero;fill:rgb(86.666667%,18.039216%,26.666667%);fill-opacity:1;" d="M 15 11.25 C 15 12.171875 14.253906 12.917969 13.332031 12.917969 L 1.667969 12.917969 C 0.746094 12.917969 0 12.171875 0 11.25 L 0 10 C 0 9.078125 0.746094 8.332031 1.667969 8.332031 L 13.332031 8.332031 C 14.253906 8.332031 15 9.078125 15 10 Z M 15 11.25 "/>
<path style=" stroke:none;fill-rule:nonzero;fill:rgb(100%,80%,30.196078%);fill-opacity:1;" d="M 7.917969 5.417969 L 7.507812 5 L 2.976562 5 C 1.667969 5 1.25 5.832031 1.25 5.832031 L 0 8.316406 L 0 10.417969 L 7.917969 10.417969 Z M 7.917969 5.417969 "/>
<path style=" stroke:none;fill-rule:nonzero;fill:rgb(33.333333%,67.45098%,93.333333%);fill-opacity:1;" d="M 3.75 8.332031 L 0.832031 8.332031 L 1.667969 6.667969 C 1.667969 6.667969 2.082031 5.832031 2.917969 5.832031 L 3.75 5.832031 Z M 3.75 8.332031 "/>
<path style=" stroke:none;fill-rule:nonzero;fill:rgb(16.078431%,18.431373%,20%);fill-opacity:1;" d="M 5.417969 12.917969 C 5.417969 13.835938 4.671875 14.582031 3.75 14.582031 C 2.828125 14.582031 2.082031 13.835938 2.082031 12.917969 C 2.082031 11.996094 2.828125 11.25 3.75 11.25 C 4.671875 11.25 5.417969 11.996094 5.417969 12.917969 Z M 5.417969 12.917969 "/>
<path style=" stroke:none;fill-rule:nonzero;fill:rgb(80%,83.921569%,86.666667%);fill-opacity:1;" d="M 4.582031 12.917969 C 4.582031 13.375 4.210938 13.75 3.75 13.75 C 3.289062 13.75 2.917969 13.375 2.917969 12.917969 C 2.917969 12.457031 3.289062 12.082031 3.75 12.082031 C 4.210938 12.082031 4.582031 12.457031 4.582031 12.917969 Z M 4.582031 12.917969 "/>
<path style=" stroke:none;fill-rule:nonzero;fill:rgb(16.078431%,18.431373%,20%);fill-opacity:1;" d="M 12.917969 12.917969 C 12.917969 13.835938 12.171875 14.582031 11.25 14.582031 C 10.328125 14.582031 9.582031 13.835938 9.582031 12.917969 C 9.582031 11.996094 10.328125 11.25 11.25 11.25 C 12.171875 11.25 12.917969 11.996094 12.917969 12.917969 Z M 12.917969 12.917969 "/>
<path style=" stroke:none;fill-rule:nonzero;fill:rgb(80%,83.921569%,86.666667%);fill-opacity:1;" d="M 12.082031 12.917969 C 12.082031 13.375 11.710938 13.75 11.25 13.75 C 10.789062 13.75 10.417969 13.375 10.417969 12.917969 C 10.417969 12.457031 10.789062 12.082031 11.25 12.082031 C 11.710938 12.082031 12.082031 12.457031 12.082031 12.917969 Z M 12.082031 12.917969 "/>
<path style=" stroke:none;fill-rule:nonzero;fill:rgb(80%,83.921569%,86.666667%);fill-opacity:1;" d="M 13.332031 3.332031 L 7.082031 3.332031 C 6.164062 3.332031 5.417969 4.078125 5.417969 5 L 5.417969 10.417969 L 15 10.417969 L 15 5 C 15 4.078125 14.253906 3.332031 13.332031 3.332031 Z M 13.332031 3.332031 "/>
</g>
</svg>
