<?xml version="1.0" encoding="UTF-8"?>
<svg xmlns="http://www.w3.org/2000/svg" xmlns:xlink="http://www.w3.org/1999/xlink" width="15pt" height="15pt" viewBox="0 0 15 15" version="1.1">
<g id="surface1">
<path style=" stroke:none;fill-rule:nonzero;fill:rgb(81.960784%,82.745098%,83.137255%);fill-opacity:1;" d="M 0 14.582031 L 15 14.582031 L 15 4.167969 C 15 4.167969 12.5 0 11.25 0 C 10 0 7.082031 3.75 6.25 4.582031 C 5.417969 5.417969 4.375 4.792969 3.75 4.167969 C 3.125 3.542969 2.5 2.917969 2.082031 2.917969 C 1.667969 2.917969 0 5.832031 0 5.832031 Z M 0 14.582031 "/>
<path style=" stroke:none;fill-rule:nonzero;fill:rgb(57.647059%,58.431373%,59.607843%);fill-opacity:1;" d="M 0 14.167969 L 15 14.167969 L 15 15 L 0 15 Z M 0 14.167969 "/>
<path style=" stroke:none;fill-rule:nonzero;fill:rgb(34.509804%,34.901961%,35.686275%);fill-opacity:1;" d="M 5.832031 13.332031 C 5.832031 14.023438 5.273438 14.582031 4.582031 14.582031 C 3.894531 14.582031 3.332031 14.023438 3.332031 13.332031 C 3.332031 12.644531 3.894531 12.082031 4.582031 12.082031 C 5.273438 12.082031 5.832031 12.644531 5.832031 13.332031 Z M 5.832031 13.332031 "/>
<path style=" stroke:none;fill-rule:nonzero;fill:rgb(16.078431%,18.431373%,20%);fill-opacity:1;" d="M 5.417969 13.332031 C 5.417969 13.792969 5.042969 14.167969 4.582031 14.167969 C 4.125 14.167969 3.75 13.792969 3.75 13.332031 C 3.75 12.875 4.125 12.5 4.582031 12.5 C 5.042969 12.5 5.417969 12.875 5.417969 13.332031 Z M 5.417969 13.332031 "/>
<path style=" stroke:none;fill-rule:nonzero;fill:rgb(34.509804%,34.901961%,35.686275%);fill-opacity:1;" d="M 9.167969 13.332031 C 9.167969 12.644531 8.605469 12.082031 7.917969 12.082031 C 7.226562 12.082031 6.667969 12.644531 6.667969 13.332031 C 6.667969 14.023438 7.226562 14.582031 7.917969 14.582031 C 8.605469 14.582031 9.167969 14.023438 9.167969 13.332031 Z M 9.167969 13.332031 "/>
<path style=" stroke:none;fill-rule:nonzero;fill:rgb(16.078431%,18.431373%,20%);fill-opacity:1;" d="M 8.75 13.332031 C 8.75 12.871094 8.375 12.5 7.917969 12.5 C 7.457031 12.5 7.082031 12.871094 7.082031 13.332031 C 7.082031 13.792969 7.457031 14.167969 7.917969 14.167969 C 8.375 14.167969 8.75 13.792969 8.75 13.332031 Z M 8.75 13.332031 "/>
<path style=" stroke:none;fill-rule:nonzero;fill:rgb(100%,90.980392%,71.372549%);fill-opacity:1;" d="M 15 5.832031 L 2.917969 5.832031 C 1.996094 5.832031 1.25 6.578125 1.25 7.5 L 1.25 11.667969 C 1.25 12.585938 1.996094 13.332031 2.917969 13.332031 L 15 13.332031 Z M 15 5.832031 "/>
<path style=" stroke:none;fill-rule:nonzero;fill:rgb(46.666667%,69.803922%,33.333333%);fill-opacity:1;" d="M 15 5.832031 L 2.917969 5.832031 C 2.300781 5.832031 1.769531 6.171875 1.480469 6.667969 L 15 6.667969 Z M 15 5.832031 "/>
<path style=" stroke:none;fill-rule:nonzero;fill:rgb(36.078431%,56.862745%,23.137255%);fill-opacity:1;" d="M 15 11.667969 L 1.25 11.667969 C 1.25 12.585938 1.996094 13.332031 2.917969 13.332031 L 15 13.332031 Z M 15 11.667969 "/>
<path style=" stroke:none;fill-rule:nonzero;fill:rgb(100%,67.45098%,20%);fill-opacity:1;" d="M 1.25 10.832031 L 15 10.832031 L 15 11.667969 L 1.25 11.667969 Z M 1.25 10.832031 "/>
<path style=" stroke:none;fill-rule:nonzero;fill:rgb(33.333333%,67.45098%,93.333333%);fill-opacity:1;" d="M 1.25 7.917969 L 3.75 7.917969 L 3.75 10 L 1.25 10 Z M 6.25 9.167969 C 6.25 9.398438 6.0625 9.582031 5.832031 9.582031 L 5 9.582031 C 4.769531 9.582031 4.582031 9.398438 4.582031 9.167969 L 4.582031 8.332031 C 4.582031 8.101562 4.769531 7.917969 5 7.917969 L 5.832031 7.917969 C 6.0625 7.917969 6.25 8.101562 6.25 8.332031 Z M 8.332031 9.167969 C 8.332031 9.398438 8.148438 9.582031 7.917969 9.582031 L 7.082031 9.582031 C 6.851562 9.582031 6.667969 9.398438 6.667969 9.167969 L 6.667969 8.332031 C 6.667969 8.101562 6.851562 7.917969 7.082031 7.917969 L 7.917969 7.917969 C 8.148438 7.917969 8.332031 8.101562 8.332031 8.332031 Z M 11.25 9.167969 C 11.25 9.398438 11.0625 9.582031 10.832031 9.582031 L 10 9.582031 C 9.769531 9.582031 9.582031 9.398438 9.582031 9.167969 L 9.582031 8.332031 C 9.582031 8.101562 9.769531 7.917969 10 7.917969 L 10.832031 7.917969 C 11.0625 7.917969 11.25 8.101562 11.25 8.332031 Z M 14.167969 9.167969 C 14.167969 9.398438 13.980469 9.582031 13.75 9.582031 L 12.917969 9.582031 C 12.6875 9.582031 12.5 9.398438 12.5 9.167969 L 12.5 8.332031 C 12.5 8.101562 12.6875 7.917969 12.917969 7.917969 L 13.75 7.917969 C 13.980469 7.917969 14.167969 8.101562 14.167969 8.332031 Z M 14.167969 9.167969 "/>
<path style=" stroke:none;fill-rule:nonzero;fill:rgb(40%,45.882353%,49.803922%);fill-opacity:1;" d="M 11.457031 12.5 L 9.375 12.5 C 9.03125 12.5 8.75 12.21875 8.75 11.875 L 8.75 7.707031 C 8.75 7.363281 9.03125 7.082031 9.375 7.082031 L 11.457031 7.082031 C 11.804688 7.082031 12.082031 7.363281 12.082031 7.707031 L 12.082031 11.875 C 12.082031 12.21875 11.804688 12.5 11.457031 12.5 Z M 9.375 7.5 C 9.261719 7.5 9.167969 7.59375 9.167969 7.707031 L 9.167969 11.875 C 9.167969 11.988281 9.261719 12.082031 9.375 12.082031 L 11.457031 12.082031 C 11.574219 12.082031 11.667969 11.988281 11.667969 11.875 L 11.667969 7.707031 C 11.667969 7.59375 11.574219 7.5 11.457031 7.5 Z M 9.375 7.5 "/>
</g>
</svg>
