<?xml version="1.0" encoding="UTF-8"?>
<svg xmlns="http://www.w3.org/2000/svg" xmlns:xlink="http://www.w3.org/1999/xlink" width="15pt" height="15pt" viewBox="0 0 15 15" version="1.1">
<g id="surface1">
<path style=" stroke:none;fill-rule:nonzero;fill:rgb(88.235294%,90.980392%,92.941176%);fill-opacity:1;" d="M 13.332031 9.167969 C 13.332031 9.167969 12.5 5.832031 11.25 5.832031 L 6.667969 5.832031 C 5.417969 5.832031 3.75 8.75 3.75 8.75 C 3.75 8.75 0.417969 9.167969 0.417969 10.832031 L 0.417969 11.667969 C 0.417969 11.703125 0.425781 11.738281 0.425781 11.777344 C 0.171875 11.917969 0 12.1875 0 12.5 C 0 12.960938 0.375 13.332031 0.832031 13.332031 L 13.332031 13.332031 C 14.253906 13.332031 15 12.585938 15 11.667969 L 15 10.832031 C 15 9.914062 14.253906 9.167969 13.332031 9.167969 Z M 13.332031 9.167969 "/>
<path style=" stroke:none;fill-rule:nonzero;fill:rgb(16.078431%,18.431373%,20%);fill-opacity:1;" d="M 0.417969 10.832031 L 0.417969 11.667969 C 0.417969 11.703125 0.425781 11.738281 0.425781 11.777344 C 0.171875 11.917969 0 12.1875 0 12.5 C 0 12.960938 0.375 13.332031 0.832031 13.332031 L 13.332031 13.332031 C 14.253906 13.332031 15 12.585938 15 11.667969 L 15 10.832031 C 15 10.6875 14.976562 10.550781 14.941406 10.417969 L 0.5 10.417969 C 0.453125 10.546875 0.417969 10.683594 0.417969 10.832031 Z M 0.417969 10.832031 "/>
<path style=" stroke:none;fill-rule:nonzero;fill:rgb(40%,45.882353%,49.803922%);fill-opacity:1;" d="M 6.628906 13.332031 C 6.652344 13.199219 6.667969 13.058594 6.667969 12.917969 C 6.667969 11.535156 5.546875 10.417969 4.167969 10.417969 C 2.785156 10.417969 1.667969 11.535156 1.667969 12.917969 C 1.667969 13.058594 1.679688 13.199219 1.703125 13.332031 Z M 13.710938 13.332031 C 13.734375 13.199219 13.75 13.058594 13.75 12.917969 C 13.75 11.535156 12.628906 10.417969 11.25 10.417969 C 9.871094 10.417969 8.75 11.535156 8.75 12.917969 C 8.75 13.058594 8.765625 13.199219 8.789062 13.332031 Z M 13.710938 13.332031 "/>
<path style=" stroke:none;fill-rule:nonzero;fill:rgb(16.078431%,18.431373%,20%);fill-opacity:1;" d="M 5.832031 12.917969 C 5.832031 13.835938 5.085938 14.582031 4.167969 14.582031 C 3.246094 14.582031 2.5 13.835938 2.5 12.917969 C 2.5 11.996094 3.246094 11.25 4.167969 11.25 C 5.085938 11.25 5.832031 11.996094 5.832031 12.917969 Z M 5.832031 12.917969 "/>
<path style=" stroke:none;fill-rule:nonzero;fill:rgb(88.235294%,90.980392%,92.941176%);fill-opacity:1;" d="M 5 12.917969 C 5 13.375 4.625 13.75 4.167969 13.75 C 3.707031 13.75 3.332031 13.375 3.332031 12.917969 C 3.332031 12.457031 3.707031 12.082031 4.167969 12.082031 C 4.625 12.082031 5 12.457031 5 12.917969 Z M 5 12.917969 "/>
<path style=" stroke:none;fill-rule:nonzero;fill:rgb(16.078431%,18.431373%,20%);fill-opacity:1;" d="M 12.917969 12.917969 C 12.917969 13.835938 12.171875 14.582031 11.25 14.582031 C 10.328125 14.582031 9.582031 13.835938 9.582031 12.917969 C 9.582031 11.996094 10.328125 11.25 11.25 11.25 C 12.171875 11.25 12.917969 11.996094 12.917969 12.917969 Z M 12.917969 12.917969 "/>
<path style=" stroke:none;fill-rule:nonzero;fill:rgb(88.235294%,90.980392%,92.941176%);fill-opacity:1;" d="M 12.082031 12.917969 C 12.082031 13.375 11.710938 13.75 11.25 13.75 C 10.789062 13.75 10.417969 13.375 10.417969 12.917969 C 10.417969 12.457031 10.789062 12.082031 11.25 12.082031 C 11.710938 12.082031 12.082031 12.457031 12.082031 12.917969 Z M 12.082031 12.917969 "/>
<path style=" stroke:none;fill-rule:nonzero;fill:rgb(86.666667%,18.039216%,26.666667%);fill-opacity:1;" d="M 8.75 5.417969 C 8.75 5.648438 8.5625 5.832031 8.332031 5.832031 L 7.082031 5.832031 C 6.851562 5.832031 6.667969 5.648438 6.667969 5.417969 C 6.667969 5.1875 6.851562 5 7.082031 5 L 8.332031 5 C 8.5625 5 8.75 5.1875 8.75 5.417969 Z M 8.75 5.417969 "/>
<path style=" stroke:none;fill-rule:nonzero;fill:rgb(33.333333%,67.45098%,93.333333%);fill-opacity:1;" d="M 9.167969 5.417969 C 9.167969 5.648438 8.980469 5.832031 8.75 5.832031 L 7.917969 5.832031 C 7.6875 5.832031 7.5 5.648438 7.5 5.417969 C 7.5 5.1875 7.6875 5 7.917969 5 L 8.75 5 C 8.980469 5 9.167969 5.1875 9.167969 5.417969 Z M 9.582031 8.75 L 12.5 8.75 C 12.5 8.75 11.667969 6.667969 11.25 6.667969 L 9.582031 6.667969 Z M 8.75 6.667969 L 6.667969 6.667969 C 5.832031 6.667969 4.582031 8.75 4.582031 8.75 L 8.75 8.75 Z M 8.75 6.667969 "/>
</g>
</svg>
