<?xml version="1.0" encoding="UTF-8"?>
<svg xmlns="http://www.w3.org/2000/svg" xmlns:xlink="http://www.w3.org/1999/xlink" width="15pt" height="15pt" viewBox="0 0 15 15" version="1.1">
<g id="surface1">
<path style=" stroke:none;fill-rule:nonzero;fill:rgb(34.509804%,34.901961%,35.686275%);fill-opacity:1;" d="M 12.5 6.667969 C 12.5 7.125 12.125 7.5 11.667969 7.5 L 7.5 7.5 C 7.039062 7.5 6.667969 7.125 6.667969 6.667969 L 6.667969 5.832031 C 6.667969 5.375 7.039062 5 7.5 5 L 11.667969 5 C 12.125 5 12.5 5.375 12.5 5.832031 Z M 12.5 6.667969 "/>
<path style=" stroke:none;fill-rule:nonzero;fill:rgb(95.686275%,56.470588%,4.705882%);fill-opacity:1;" d="M 1.667969 5.832031 C 0.746094 5.832031 0 6.578125 0 7.5 L 0 11.667969 C 0 13.507812 1.492188 15 3.332031 15 L 15 15 L 15 5.832031 Z M 1.667969 5.832031 "/>
<path style=" stroke:none;fill-rule:nonzero;fill:rgb(100%,85.098039%,51.372549%);fill-opacity:1;" d="M 0.246094 12.917969 L 15 12.917969 L 15 12.082031 L 0.0273438 12.082031 C 0.0664062 12.375 0.136719 12.652344 0.246094 12.917969 Z M 0.246094 12.917969 "/>
<path style=" stroke:none;fill-rule:nonzero;fill:rgb(50.196078%,50.980392%,52.156863%);fill-opacity:1;" d="M 0 0.832031 L 15 0.832031 L 15 3.332031 L 0 3.332031 Z M 0 0.832031 "/>
<path style=" stroke:none;fill-rule:nonzero;fill:rgb(25.490196%,25.098039%,25.882353%);fill-opacity:1;" d="M 0 1.667969 L 15 1.667969 L 15 2.5 L 0 2.5 Z M 0 1.667969 "/>
<path style=" stroke:none;fill-rule:nonzero;fill:rgb(65.490196%,66.27451%,67.45098%);fill-opacity:1;" d="M 11.667969 0 L 7.5 0 C 6.808594 0 6.25 0.558594 6.25 1.25 C 6.25 1.941406 6.808594 2.5 7.5 2.5 L 8.75 2.5 L 8.75 4.167969 L 7.917969 5 L 11.25 5 L 10.417969 4.167969 L 10.417969 2.5 L 11.667969 2.5 C 12.355469 2.5 12.917969 1.941406 12.917969 1.25 C 12.917969 0.558594 12.355469 0 11.667969 0 Z M 11.667969 0 "/>
<path style=" stroke:none;fill-rule:nonzero;fill:rgb(23.137255%,53.333333%,76.470588%);fill-opacity:1;" d="M 5.832031 5.832031 L 15 5.832031 L 15 12.082031 L 5.832031 12.082031 Z M 5.832031 5.832031 "/>
<path style=" stroke:none;fill-rule:nonzero;fill:rgb(34.509804%,34.901961%,35.686275%);fill-opacity:1;" d="M 5 10.417969 C 5 10.875 4.625 11.25 4.167969 11.25 L 2.5 11.25 C 2.039062 11.25 1.667969 10.875 1.667969 10.417969 L 1.667969 7.917969 C 1.667969 7.457031 2.039062 7.082031 2.5 7.082031 L 4.167969 7.082031 C 4.625 7.082031 5 7.457031 5 7.917969 Z M 5 10.417969 "/>
<path style=" stroke:none;fill-rule:nonzero;fill:rgb(25.490196%,25.098039%,25.882353%);fill-opacity:1;" d="M 10 9.582031 C 10 10.042969 9.625 10.417969 9.167969 10.417969 L 7.5 10.417969 C 7.039062 10.417969 6.667969 10.042969 6.667969 9.582031 L 6.667969 7.917969 C 6.667969 7.457031 7.039062 7.082031 7.5 7.082031 L 9.167969 7.082031 C 9.625 7.082031 10 7.457031 10 7.917969 Z M 14.167969 9.582031 C 14.167969 10.042969 13.792969 10.417969 13.332031 10.417969 L 11.667969 10.417969 C 11.207031 10.417969 10.832031 10.042969 10.832031 9.582031 L 10.832031 7.917969 C 10.832031 7.457031 11.207031 7.082031 11.667969 7.082031 L 13.332031 7.082031 C 13.792969 7.082031 14.167969 7.457031 14.167969 7.917969 Z M 14.167969 9.582031 "/>
<path style=" stroke:none;fill-rule:nonzero;fill:rgb(34.509804%,34.901961%,35.686275%);fill-opacity:1;" d="M 0 7.082031 L 0 11.25 C 0.460938 11.25 0.832031 10.875 0.832031 10.417969 L 0.832031 7.917969 C 0.832031 7.457031 0.460938 7.082031 0 7.082031 Z M 0 7.082031 "/>
</g>
</svg>
