<?xml version="1.0" encoding="UTF-8"?>
<svg xmlns="http://www.w3.org/2000/svg" xmlns:xlink="http://www.w3.org/1999/xlink" width="15pt" height="15pt" viewBox="0 0 15 15" version="1.1">
<g id="surface1">
<path style=" stroke:none;fill-rule:nonzero;fill:rgb(80%,83.921569%,86.666667%);fill-opacity:1;" d="M 14.582031 3.332031 L 5.417969 3.332031 C 5.1875 3.332031 5 3.519531 5 3.75 C 5 3.980469 5.1875 4.167969 5.417969 4.167969 L 6.25 4.167969 L 6.25 5 L 7.082031 5 L 7.082031 4.167969 L 7.917969 4.167969 L 7.917969 5 L 8.75 5 L 8.75 4.167969 L 9.582031 4.167969 L 9.582031 5 L 10.417969 5 L 10.417969 4.167969 L 11.25 4.167969 L 11.25 5 L 12.082031 5 L 12.082031 4.167969 L 12.917969 4.167969 L 12.917969 5 L 13.75 5 L 13.75 4.167969 L 14.582031 4.167969 C 14.8125 4.167969 15 3.980469 15 3.75 C 15 3.519531 14.8125 3.332031 14.582031 3.332031 Z M 15 5.417969 C 15 5.648438 14.8125 5.832031 14.582031 5.832031 L 5.417969 5.832031 C 5.1875 5.832031 5 5.648438 5 5.417969 C 5 5.1875 5.1875 5 5.417969 5 L 14.582031 5 C 14.8125 5 15 5.1875 15 5.417969 Z M 15 5.417969 "/>
<path style=" stroke:none;fill-rule:nonzero;fill:rgb(86.666667%,18.039216%,26.666667%);fill-opacity:1;" d="M 13.332031 5.832031 L 5.832031 5.832031 C 5.832031 5.832031 5.851562 5 4.59375 5 L 2.144531 5 C 0 5 0 8.316406 0 8.316406 L 0 11.25 C 0 12.171875 0.746094 12.917969 1.667969 12.917969 L 13.332031 12.917969 C 14.253906 12.917969 15 12.171875 15 11.25 L 15 7.5 C 15 6.578125 14.253906 5.832031 13.332031 5.832031 Z M 13.332031 5.832031 "/>
<path style=" stroke:none;fill-rule:nonzero;fill:rgb(96.078431%,97.254902%,98.039216%);fill-opacity:1;" d="M 0.832031 9.167969 L 14.167969 9.167969 L 14.167969 10.417969 L 0.832031 10.417969 Z M 0.832031 9.167969 "/>
<path style=" stroke:none;fill-rule:nonzero;fill:rgb(16.078431%,18.431373%,20%);fill-opacity:1;" d="M 4.582031 12.917969 C 4.582031 13.835938 3.835938 14.582031 2.917969 14.582031 C 1.996094 14.582031 1.25 13.835938 1.25 12.917969 C 1.25 11.996094 1.996094 11.25 2.917969 11.25 C 3.835938 11.25 4.582031 11.996094 4.582031 12.917969 Z M 4.582031 12.917969 "/>
<path style=" stroke:none;fill-rule:nonzero;fill:rgb(53.333333%,60%,65.098039%);fill-opacity:1;" d="M 3.75 12.917969 C 3.75 13.375 3.375 13.75 2.917969 13.75 C 2.457031 13.75 2.082031 13.375 2.082031 12.917969 C 2.082031 12.457031 2.457031 12.082031 2.917969 12.082031 C 3.375 12.082031 3.75 12.457031 3.75 12.917969 Z M 3.75 12.917969 "/>
<path style=" stroke:none;fill-rule:nonzero;fill:rgb(16.078431%,18.431373%,20%);fill-opacity:1;" d="M 13.332031 12.917969 C 13.332031 13.835938 12.585938 14.582031 11.667969 14.582031 C 10.746094 14.582031 10 13.835938 10 12.917969 C 10 11.996094 10.746094 11.25 11.667969 11.25 C 12.585938 11.25 13.332031 11.996094 13.332031 12.917969 Z M 13.332031 12.917969 "/>
<path style=" stroke:none;fill-rule:nonzero;fill:rgb(53.333333%,60%,65.098039%);fill-opacity:1;" d="M 12.5 12.917969 C 12.5 13.375 12.125 13.75 11.667969 13.75 C 11.207031 13.75 10.832031 13.375 10.832031 12.917969 C 10.832031 12.457031 11.207031 12.082031 11.667969 12.082031 C 12.125 12.082031 12.5 12.457031 12.5 12.917969 Z M 12.5 12.917969 "/>
<path style=" stroke:none;fill-rule:nonzero;fill:rgb(33.333333%,67.45098%,93.333333%);fill-opacity:1;" d="M 2.917969 8.332031 L 0.832031 8.332031 C 0.832031 8.332031 0.832031 5.832031 2.082031 5.832031 L 2.917969 5.832031 Z M 5 8.332031 L 3.75 8.332031 L 3.75 5.832031 L 4.167969 5.832031 C 4.582031 5.832031 5 6.25 5 6.667969 Z M 5 8.332031 "/>
<path style=" stroke:none;fill-rule:nonzero;fill:rgb(100%,67.45098%,20%);fill-opacity:1;" d="M 3.332031 4.582031 C 3.332031 4.8125 3.148438 5 2.917969 5 L 2.082031 5 C 1.851562 5 1.667969 4.8125 1.667969 4.582031 C 1.667969 4.351562 1.851562 4.167969 2.082031 4.167969 L 2.917969 4.167969 C 3.148438 4.167969 3.332031 4.351562 3.332031 4.582031 Z M 3.332031 4.582031 "/>
<path style=" stroke:none;fill-rule:nonzero;fill:rgb(23.137255%,53.333333%,76.470588%);fill-opacity:1;" d="M 4.167969 4.582031 C 4.167969 4.8125 3.980469 5 3.75 5 L 2.917969 5 C 2.6875 5 2.5 4.8125 2.5 4.582031 C 2.5 4.351562 2.6875 4.167969 2.917969 4.167969 L 3.75 4.167969 C 3.980469 4.167969 4.167969 4.351562 4.167969 4.582031 Z M 4.167969 4.582031 "/>
</g>
</svg>
