<?xml version="1.0" encoding="UTF-8"?>
<svg xmlns="http://www.w3.org/2000/svg" xmlns:xlink="http://www.w3.org/1999/xlink" width="15pt" height="15pt" viewBox="0 0 15 15" version="1.1">
<g id="surface1">
<path style=" stroke:none;fill-rule:nonzero;fill:rgb(16.078431%,18.431373%,20%);fill-opacity:1;" d="M 15 10 C 15 10.230469 14.8125 10.417969 14.582031 10.417969 L 14.167969 10.417969 C 13.9375 10.417969 13.75 10.230469 13.75 10 L 13.75 7.5 C 13.75 7.269531 13.9375 7.082031 14.167969 7.082031 L 14.582031 7.082031 C 14.8125 7.082031 15 7.269531 15 7.5 Z M 15 10 "/>
<path style=" stroke:none;fill-rule:nonzero;fill:rgb(23.137255%,53.333333%,76.470588%);fill-opacity:1;" d="M 2.082031 12.917969 L 12.917969 12.917969 C 13.332031 12.917969 14.167969 12.5 14.167969 11.25 C 14.167969 10.417969 14.167969 7.917969 13.75 7.5 C 13.332031 7.082031 13.75 4.582031 12.082031 4.582031 L 6.25 4.582031 C 5 4.582031 3.75 7.5 3.75 7.5 L 2.082031 7.917969 C 2.082031 7.917969 0.417969 8.332031 0.417969 9.582031 L 0.417969 10.832031 C 0.417969 10.832031 0 10.972656 0 11.648438 C 0 12.324219 0.417969 12.5 0.417969 12.5 Z M 2.082031 12.917969 "/>
<path style=" stroke:none;fill-rule:nonzero;fill:rgb(16.078431%,18.431373%,20%);fill-opacity:1;" d="M 5.417969 12.917969 C 5.417969 13.835938 4.671875 14.582031 3.75 14.582031 C 2.828125 14.582031 2.082031 13.835938 2.082031 12.917969 C 2.082031 11.996094 2.828125 11.25 3.75 11.25 C 4.671875 11.25 5.417969 11.996094 5.417969 12.917969 Z M 5.417969 12.917969 "/>
<path style=" stroke:none;fill-rule:nonzero;fill:rgb(80%,83.921569%,86.666667%);fill-opacity:1;" d="M 4.582031 12.917969 C 4.582031 13.375 4.210938 13.75 3.75 13.75 C 3.289062 13.75 2.917969 13.375 2.917969 12.917969 C 2.917969 12.457031 3.289062 12.082031 3.75 12.082031 C 4.210938 12.082031 4.582031 12.457031 4.582031 12.917969 Z M 4.582031 12.917969 "/>
<path style=" stroke:none;fill-rule:nonzero;fill:rgb(16.078431%,18.431373%,20%);fill-opacity:1;" d="M 12.917969 12.917969 C 12.917969 13.835938 12.171875 14.582031 11.25 14.582031 C 10.328125 14.582031 9.582031 13.835938 9.582031 12.917969 C 9.582031 11.996094 10.328125 11.25 11.25 11.25 C 12.171875 11.25 12.917969 11.996094 12.917969 12.917969 Z M 12.917969 12.917969 "/>
<path style=" stroke:none;fill-rule:nonzero;fill:rgb(80%,83.921569%,86.666667%);fill-opacity:1;" d="M 12.082031 12.917969 C 12.082031 13.375 11.710938 13.75 11.25 13.75 C 10.789062 13.75 10.417969 13.375 10.417969 12.917969 C 10.417969 12.457031 10.789062 12.082031 11.25 12.082031 C 11.710938 12.082031 12.082031 12.457031 12.082031 12.917969 Z M 12.082031 12.917969 "/>
<path style=" stroke:none;fill-rule:nonzero;fill:rgb(73.333333%,86.666667%,96.078431%);fill-opacity:1;" d="M 10 7.082031 C 10 7.3125 10.1875 7.5 10.417969 7.5 L 12.082031 7.5 C 12.3125 7.5 12.5 7.3125 12.5 7.082031 L 12.5 5.832031 C 12.5 5.601562 12.3125 5.417969 12.082031 5.417969 L 10.417969 5.417969 C 10.1875 5.417969 10 5.601562 10 5.832031 Z M 5.417969 7.082031 C 5.417969 7.5 5.601562 7.5 5.832031 7.5 L 8.75 7.5 C 8.980469 7.5 9.167969 7.3125 9.167969 7.082031 L 9.167969 5.832031 C 9.167969 5.601562 8.980469 5.417969 8.75 5.417969 L 6.667969 5.417969 C 6.25 5.417969 5.417969 6.667969 5.417969 7.082031 Z M 5.417969 7.082031 "/>
<path style=" stroke:none;fill-rule:nonzero;fill:rgb(33.333333%,67.45098%,93.333333%);fill-opacity:1;" d="M 13.332031 9.792969 C 13.332031 10.136719 13.054688 10.417969 12.707031 10.417969 L 3.542969 10.417969 C 3.195312 10.417969 2.917969 10.136719 2.917969 9.792969 C 2.917969 9.445312 3.195312 9.167969 3.542969 9.167969 L 12.707031 9.167969 C 13.054688 9.167969 13.332031 9.445312 13.332031 9.792969 Z M 13.332031 9.792969 "/>
</g>
</svg>
