<?xml version="1.0" encoding="UTF-8"?>
<svg xmlns="http://www.w3.org/2000/svg" xmlns:xlink="http://www.w3.org/1999/xlink" width="15pt" height="15pt" viewBox="0 0 15 15" version="1.1">
<g id="surface1">
<path style=" stroke:none;fill-rule:nonzero;fill:rgb(80%,83.921569%,86.666667%);fill-opacity:1;" d="M 14.582031 5 C 14.582031 4.582031 14.167969 3.332031 12.917969 3.332031 L 3.917969 3.332031 C 3.34375 3.332031 2.546875 4.078125 2.125 5 L 0.832031 7.082031 C 0.226562 7.332031 0 8.054688 0 8.75 L 0 11.25 C 0 12.171875 0.746094 12.917969 1.667969 12.917969 L 13.332031 12.917969 C 14.253906 12.917969 15 12.171875 15 11.25 L 15 7.917969 C 15 7.488281 14.582031 5 14.582031 5 Z M 14.582031 5 "/>
<path style=" stroke:none;fill-rule:nonzero;fill:rgb(88.235294%,90.980392%,92.941176%);fill-opacity:1;" d="M 3.75 10.417969 C 2.390625 10.417969 1.285156 11.503906 1.253906 12.859375 C 1.386719 12.890625 1.523438 12.917969 1.667969 12.917969 L 6.25 12.917969 C 6.25 11.535156 5.128906 10.417969 3.75 10.417969 Z M 13.746094 12.859375 C 13.714844 11.503906 12.613281 10.417969 11.25 10.417969 C 9.871094 10.417969 8.75 11.535156 8.75 12.917969 L 13.332031 12.917969 C 13.476562 12.917969 13.613281 12.890625 13.746094 12.859375 Z M 13.746094 12.859375 "/>
<path style=" stroke:none;fill-rule:nonzero;fill:rgb(16.078431%,18.431373%,20%);fill-opacity:1;" d="M 5.417969 12.917969 C 5.417969 13.835938 4.671875 14.582031 3.75 14.582031 C 2.828125 14.582031 2.082031 13.835938 2.082031 12.917969 C 2.082031 11.996094 2.828125 11.25 3.75 11.25 C 4.671875 11.25 5.417969 11.996094 5.417969 12.917969 Z M 5.417969 12.917969 "/>
<path style=" stroke:none;fill-rule:nonzero;fill:rgb(60%,66.666667%,70.980392%);fill-opacity:1;" d="M 4.582031 12.917969 C 4.582031 13.375 4.210938 13.75 3.75 13.75 C 3.289062 13.75 2.917969 13.375 2.917969 12.917969 C 2.917969 12.457031 3.289062 12.082031 3.75 12.082031 C 4.210938 12.082031 4.582031 12.457031 4.582031 12.917969 Z M 4.582031 12.917969 "/>
<path style=" stroke:none;fill-rule:nonzero;fill:rgb(16.078431%,18.431373%,20%);fill-opacity:1;" d="M 12.917969 12.917969 C 12.917969 13.835938 12.171875 14.582031 11.25 14.582031 C 10.328125 14.582031 9.582031 13.835938 9.582031 12.917969 C 9.582031 11.996094 10.328125 11.25 11.25 11.25 C 12.171875 11.25 12.917969 11.996094 12.917969 12.917969 Z M 12.917969 12.917969 "/>
<path style=" stroke:none;fill-rule:nonzero;fill:rgb(60%,66.666667%,70.980392%);fill-opacity:1;" d="M 12.082031 12.917969 C 12.082031 13.375 11.710938 13.75 11.25 13.75 C 10.789062 13.75 10.417969 13.375 10.417969 12.917969 C 10.417969 12.457031 10.789062 12.082031 11.25 12.082031 C 11.710938 12.082031 12.082031 12.457031 12.082031 12.917969 Z M 12.082031 12.917969 "/>
<path style=" stroke:none;fill-rule:nonzero;fill:rgb(86.666667%,18.039216%,26.666667%);fill-opacity:1;" d="M 0 8.75 L 15 8.75 L 15 10 L 0 10 Z M 12.917969 5.417969 L 11.667969 5.417969 L 11.667969 4.167969 L 10.832031 4.167969 L 10.832031 5.417969 L 9.582031 5.417969 L 9.582031 6.25 L 10.832031 6.25 L 10.832031 7.5 L 11.667969 7.5 L 11.667969 6.25 L 12.917969 6.25 Z M 12.917969 5.417969 "/>
<path style=" stroke:none;fill-rule:nonzero;fill:rgb(33.333333%,67.45098%,93.333333%);fill-opacity:1;" d="M 3.332031 4.167969 L 5.417969 4.167969 L 5.417969 7.082031 L 1.667969 7.082031 Z M 3.332031 4.167969 "/>
<path style=" stroke:none;fill-rule:nonzero;fill:rgb(86.666667%,18.039216%,26.666667%);fill-opacity:1;" d="M 6.25 2.707031 C 6.25 3.054688 5.96875 3.332031 5.625 3.332031 L 4.792969 3.332031 C 4.445312 3.332031 4.167969 3.054688 4.167969 2.707031 C 4.167969 2.363281 4.445312 2.082031 4.792969 2.082031 L 5.625 2.082031 C 5.96875 2.082031 6.25 2.363281 6.25 2.707031 Z M 6.25 2.707031 "/>
<path style=" stroke:none;fill-rule:nonzero;fill:rgb(33.333333%,67.45098%,93.333333%);fill-opacity:1;" d="M 7.5 2.707031 C 7.5 3.054688 7.21875 3.332031 6.875 3.332031 L 6.042969 3.332031 C 5.695312 3.332031 5.417969 3.054688 5.417969 2.707031 C 5.417969 2.363281 5.695312 2.082031 6.042969 2.082031 L 6.875 2.082031 C 7.21875 2.082031 7.5 2.363281 7.5 2.707031 Z M 7.5 2.707031 "/>
</g>
</svg>
