<?xml version="1.0" encoding="UTF-8"?>
<svg xmlns="http://www.w3.org/2000/svg" xmlns:xlink="http://www.w3.org/1999/xlink" width="15pt" height="15pt" viewBox="0 0 15 15" version="1.1">
<g id="surface1">
<path style=" stroke:none;fill-rule:nonzero;fill:rgb(60%,66.666667%,70.980392%);fill-opacity:1;" d="M 12.917969 10.417969 L 4.582031 10.417969 L 4.582031 10 C 4.582031 9.078125 3.835938 8.332031 2.917969 8.332031 L 1.667969 8.332031 C 0.746094 8.332031 0 9.078125 0 10 L 0 11.25 C 0 12.171875 0.746094 12.917969 1.667969 12.917969 L 13.332031 12.917969 C 14.253906 12.917969 15 12.171875 15 11.25 L 15 10.417969 Z M 12.917969 10.417969 "/>
<path style=" stroke:none;fill-rule:nonzero;fill:rgb(100%,80%,30.196078%);fill-opacity:1;" d="M 4.167969 5 L 2.976562 5 C 1.667969 5 1.25 5.832031 1.25 5.832031 L 0 8.316406 L 0 10.417969 L 5.417969 10.417969 L 5.417969 6.25 C 5.417969 5.558594 4.855469 5 4.167969 5 Z M 4.167969 5 "/>
<path style=" stroke:none;fill-rule:nonzero;fill:rgb(33.333333%,67.45098%,93.333333%);fill-opacity:1;" d="M 3.75 8.332031 L 0.832031 8.332031 L 1.667969 6.667969 C 1.667969 6.667969 2.082031 5.832031 2.917969 5.832031 L 3.75 5.832031 Z M 3.75 8.332031 "/>
<path style=" stroke:none;fill-rule:nonzero;fill:rgb(16.078431%,18.431373%,20%);fill-opacity:1;" d="M 4.167969 12.917969 C 4.167969 13.835938 3.421875 14.582031 2.5 14.582031 C 1.578125 14.582031 0.832031 13.835938 0.832031 12.917969 C 0.832031 11.996094 1.578125 11.25 2.5 11.25 C 3.421875 11.25 4.167969 11.996094 4.167969 12.917969 Z M 4.167969 12.917969 "/>
<path style=" stroke:none;fill-rule:nonzero;fill:rgb(80%,83.921569%,86.666667%);fill-opacity:1;" d="M 3.332031 12.917969 C 3.332031 13.375 2.960938 13.75 2.5 13.75 C 2.039062 13.75 1.667969 13.375 1.667969 12.917969 C 1.667969 12.457031 2.039062 12.082031 2.5 12.082031 C 2.960938 12.082031 3.332031 12.457031 3.332031 12.917969 Z M 3.332031 12.917969 "/>
<path style=" stroke:none;fill-rule:nonzero;fill:rgb(16.078431%,18.431373%,20%);fill-opacity:1;" d="M 14.167969 12.917969 C 14.167969 13.835938 13.421875 14.582031 12.5 14.582031 C 11.578125 14.582031 10.832031 13.835938 10.832031 12.917969 C 10.832031 11.996094 11.578125 11.25 12.5 11.25 C 13.421875 11.25 14.167969 11.996094 14.167969 12.917969 Z M 14.167969 12.917969 "/>
<path style=" stroke:none;fill-rule:nonzero;fill:rgb(80%,83.921569%,86.666667%);fill-opacity:1;" d="M 13.332031 12.917969 C 13.332031 13.375 12.960938 13.75 12.5 13.75 C 12.039062 13.75 11.667969 13.375 11.667969 12.917969 C 11.667969 12.457031 12.039062 12.082031 12.5 12.082031 C 12.960938 12.082031 13.332031 12.457031 13.332031 12.917969 Z M 13.332031 12.917969 "/>
<path style=" stroke:none;fill-rule:nonzero;fill:rgb(16.078431%,18.431373%,20%);fill-opacity:1;" d="M 10 12.917969 C 10 13.835938 9.253906 14.582031 8.332031 14.582031 C 7.414062 14.582031 6.667969 13.835938 6.667969 12.917969 C 6.667969 11.996094 7.414062 11.25 8.332031 11.25 C 9.253906 11.25 10 11.996094 10 12.917969 Z M 10 12.917969 "/>
<path style=" stroke:none;fill-rule:nonzero;fill:rgb(80%,83.921569%,86.666667%);fill-opacity:1;" d="M 9.167969 12.917969 C 9.167969 13.375 8.792969 13.75 8.332031 13.75 C 7.875 13.75 7.5 13.375 7.5 12.917969 C 7.5 12.457031 7.875 12.082031 8.332031 12.082031 C 8.792969 12.082031 9.167969 12.457031 9.167969 12.917969 Z M 9.167969 12.917969 "/>
<path style=" stroke:none;fill-rule:nonzero;fill:rgb(46.666667%,69.803922%,33.333333%);fill-opacity:1;" d="M 13.332031 3.332031 L 7.917969 3.332031 C 6.996094 3.332031 6.25 4.078125 6.25 5 L 6.25 10.417969 L 15 10.417969 L 15 5 C 15 4.078125 14.253906 3.332031 13.332031 3.332031 Z M 13.332031 3.332031 "/>
</g>
</svg>
