<?xml version="1.0" encoding="UTF-8"?>
<svg xmlns="http://www.w3.org/2000/svg" xmlns:xlink="http://www.w3.org/1999/xlink" width="15pt" height="15pt" viewBox="0 0 15 15" version="1.1">
<g id="surface1">
<path style=" stroke:none;fill-rule:nonzero;fill:rgb(86.666667%,18.039216%,26.666667%);fill-opacity:1;" d="M 14.234375 12.003906 L 13.019531 1.117188 C 12.949219 0.480469 12.410156 0 11.769531 0 L 3.191406 0 C 2.550781 0 2.011719 0.488281 1.945312 1.125 L 0.832031 12.003906 Z M 14.234375 12.003906 "/>
<path style=" stroke:none;fill-rule:nonzero;fill:rgb(74.509804%,9.803922%,19.215686%);fill-opacity:1;" d="M 11.429688 5.832031 C 11.429688 7.988281 9.683594 9.734375 7.527344 9.734375 C 5.375 9.734375 3.625 7.988281 3.625 5.832031 C 3.625 3.679688 5.375 1.929688 7.527344 1.929688 C 9.683594 1.929688 11.429688 3.679688 11.429688 5.832031 Z M 11.429688 5.832031 "/>
<path style=" stroke:none;fill-rule:nonzero;fill:rgb(60%,66.666667%,70.980392%);fill-opacity:1;" d="M 14.800781 12.160156 L 0.199219 12.160156 L 0 14.167969 C 0 15 0.832031 15 0.832031 15 L 14.167969 15 C 14.167969 15 15 15 15 14.167969 Z M 14.800781 12.160156 "/>
<path style=" stroke:none;fill-rule:nonzero;fill:rgb(80%,83.921569%,86.666667%);fill-opacity:1;" d="M 14.832031 12.464844 L 14.800781 12.160156 C 14.742188 11.851562 14.480469 11.667969 14.167969 11.667969 L 0.832031 11.667969 C 0.519531 11.667969 0.257812 11.851562 0.199219 12.160156 L 0.167969 12.464844 Z M 14.832031 12.464844 "/>
<path style=" stroke:none;fill-rule:nonzero;fill:rgb(92.54902%,61.568627%,67.843137%);fill-opacity:1;" d="M 12.351562 5.679688 L 9.15625 5.160156 L 11.050781 2.53125 C 11.09375 2.46875 11.085938 2.382812 11.03125 2.328125 C 10.976562 2.277344 10.894531 2.269531 10.832031 2.3125 L 8.203125 4.203125 L 7.683594 1.007812 C 7.671875 0.933594 7.605469 0.878906 7.527344 0.878906 C 7.453125 0.878906 7.386719 0.933594 7.375 1.007812 L 6.855469 4.203125 L 4.226562 2.3125 C 4.164062 2.269531 4.078125 2.277344 4.023438 2.328125 C 3.96875 2.382812 3.964844 2.46875 4.007812 2.53125 L 5.898438 5.160156 L 2.703125 5.679688 C 2.628906 5.691406 2.574219 5.757812 2.574219 5.832031 C 2.574219 5.910156 2.628906 5.976562 2.703125 5.988281 L 5.898438 6.507812 L 4.007812 9.136719 C 3.964844 9.199219 3.96875 9.285156 4.023438 9.335938 C 4.078125 9.390625 4.164062 9.398438 4.226562 9.355469 L 6.855469 7.464844 L 7.375 10.65625 C 7.386719 10.734375 7.453125 10.789062 7.527344 10.789062 C 7.605469 10.789062 7.671875 10.734375 7.683594 10.65625 L 8.203125 7.464844 L 10.832031 9.355469 C 10.890625 9.398438 10.976562 9.390625 11.03125 9.335938 C 11.085938 9.28125 11.09375 9.199219 11.046875 9.136719 L 9.15625 6.507812 L 12.351562 5.988281 C 12.429688 5.976562 12.484375 5.910156 12.484375 5.832031 C 12.484375 5.757812 12.429688 5.691406 12.351562 5.679688 Z M 12.351562 5.679688 "/>
</g>
</svg>
