<?xml version="1.0" encoding="UTF-8"?>
<svg xmlns="http://www.w3.org/2000/svg" xmlns:xlink="http://www.w3.org/1999/xlink" width="15pt" height="15pt" viewBox="0 0 15 15" version="1.1">
<g id="surface1">
<path style=" stroke:none;fill-rule:nonzero;fill:rgb(23.137255%,53.333333%,76.470588%);fill-opacity:1;" d="M 0 1.667969 C 0 0 1.667969 0 1.667969 0 L 13.332031 0 C 13.332031 0 15 0 15 1.667969 L 15 13.332031 C 15 13.332031 15 15 13.332031 15 L 1.667969 15 C 1.667969 15 0 15 0 13.332031 Z M 0 1.667969 "/>
<path style=" stroke:none;fill-rule:nonzero;fill:rgb(100%,100%,100%);fill-opacity:1;" d="M 10.832031 3.125 C 10.832031 2.320312 10.273438 1.667969 9.582031 1.667969 C 8.894531 1.667969 8.332031 2.320312 8.332031 3.125 C 8.332031 3.929688 8.894531 4.582031 9.582031 4.582031 C 10.273438 4.582031 10.832031 3.929688 10.832031 3.125 Z M 10.832031 3.125 "/>
<path style=" stroke:none;fill-rule:nonzero;fill:rgb(100%,100%,100%);fill-opacity:1;" d="M 12.082031 5.417969 C 12.082031 5.417969 12.082031 4.582031 11.25 4.582031 L 8.332031 4.582031 C 7.917969 4.582031 7.5 5 7.5 5 L 6.667969 5.832031 L 5 5.832031 C 5 5.832031 4.582031 5.832031 4.582031 6.25 C 4.582031 6.667969 5 6.667969 5 6.667969 L 7.082031 6.667969 L 7.917969 5.832031 L 7.917969 12.917969 C 7.917969 12.917969 7.917969 13.332031 8.332031 13.332031 L 8.75 13.332031 C 8.75 13.332031 9.167969 13.332031 9.167969 12.917969 L 9.167969 9.582031 C 9.167969 9.582031 9.167969 9.167969 9.582031 9.167969 C 10 9.167969 10 9.582031 10 9.582031 L 10 12.917969 C 10 12.917969 10 13.332031 10.417969 13.332031 L 10.832031 13.332031 C 10.832031 13.332031 11.25 13.332031 11.25 12.917969 L 11.25 9.167969 C 11.25 9.167969 12.082031 9.167969 12.082031 8.332031 Z M 12.082031 5.417969 "/>
<path style=" stroke:none;fill-rule:nonzero;fill:rgb(100%,100%,100%);fill-opacity:1;" d="M 2.5 9.167969 C 2.5 9.167969 2.082031 9.167969 2.082031 8.75 C 2.082031 8.332031 2.5 8.332031 2.5 8.332031 C 2.5 8.332031 3.332031 8.332031 3.332031 9.167969 L 3.332031 12.5 L 5.832031 12.5 L 5.832031 9.167969 C 5.832031 8.332031 6.667969 8.332031 6.667969 8.332031 C 6.667969 8.332031 7.082031 8.332031 7.082031 8.75 C 7.082031 9.167969 6.667969 9.167969 6.667969 9.167969 L 6.667969 12.5 C 6.667969 12.5 6.667969 13.332031 5.832031 13.332031 L 3.332031 13.332031 C 3.332031 13.332031 2.5 13.332031 2.5 12.5 Z M 2.5 9.167969 "/>
<path style=" stroke:none;fill-rule:nonzero;fill:rgb(100%,100%,100%);fill-opacity:1;" d="M 5.417969 8.332031 C 5.417969 8.792969 5.042969 9.167969 4.582031 9.167969 C 4.125 9.167969 3.75 8.792969 3.75 8.332031 C 3.75 7.875 4.125 7.5 4.582031 7.5 C 5.042969 7.5 5.417969 7.875 5.417969 8.332031 Z M 5.417969 8.332031 "/>
</g>
</svg>
