<?xml version="1.0" encoding="UTF-8"?>
<svg xmlns="http://www.w3.org/2000/svg" xmlns:xlink="http://www.w3.org/1999/xlink" width="15pt" height="15pt" viewBox="0 0 15 15" version="1.1">
<g id="surface1">
<path style=" stroke:none;fill-rule:nonzero;fill:rgb(36.078431%,56.862745%,23.137255%);fill-opacity:1;" d="M 13.75 11.25 L 12.917969 11.25 L 13.332031 7.917969 L 14.167969 7.917969 Z M 13.75 11.25 "/>
<path style=" stroke:none;fill-rule:nonzero;fill:rgb(86.666667%,18.039216%,26.666667%);fill-opacity:1;" d="M 0.417969 5.832031 C 4.191406 5.855469 5 6.25 7.5 6.667969 C 8.734375 6.871094 10.417969 7.082031 12.082031 7.082031 C 12.917969 7.082031 13.75 7.5 13.75 8.75 C 13.75 9.582031 13.972656 10.078125 11.484375 10.339844 C 9.828125 10.515625 5.417969 9.582031 3.75 8.75 C 1.25 7.5 0 5.832031 0.417969 5.832031 Z M 0.417969 5.832031 "/>
<path style=" stroke:none;fill-rule:nonzero;fill:rgb(33.333333%,67.45098%,93.333333%);fill-opacity:1;" d="M 0 10 L 15 10 L 15 15 L 0 15 Z M 0 10 "/>
<path style=" stroke:none;fill-rule:nonzero;fill:rgb(100%,80%,30.196078%);fill-opacity:1;" d="M 2.082031 5.417969 C 3.75 5.417969 6.667969 5.417969 9.582031 5.832031 C 12.5 6.25 13.75 6.25 13.75 7.082031 L 13.75 8.332031 C 13.75 8.921875 10.886719 8.519531 9.582031 8.332031 C 6.667969 7.917969 3.75 7.082031 2.082031 6.667969 C 0.398438 6.246094 -0.832031 5.417969 2.082031 5.417969 Z M 2.082031 5.417969 "/>
<path style=" stroke:none;fill-rule:nonzero;fill:rgb(62.745098%,1.568627%,11.764706%);fill-opacity:1;" d="M 12.746094 10.132812 C 13.628906 9.910156 13.746094 9.589844 13.753906 9.152344 C 13.226562 9.410156 12.214844 9.285156 11.300781 9.171875 C 7.984375 8.753906 4.433594 7.945312 1 6.832031 C 1.433594 7.265625 2.078125 7.789062 2.902344 8.285156 C 5.699219 9.078125 8.523438 9.664062 11.199219 9.996094 C 11.722656 10.0625 12.253906 10.125 12.746094 10.132812 Z M 12.746094 10.132812 "/>
<path style=" stroke:none;fill-rule:nonzero;fill:rgb(33.333333%,67.45098%,93.333333%);fill-opacity:1;" d="M 5 10 C 6.25 9.167969 7.917969 7.917969 7.5 8.75 C 7.082031 9.582031 7.082031 10 7.917969 9.582031 C 8.75 9.167969 10 8.75 9.582031 9.582031 C 9.167969 10.417969 10.417969 10 10.832031 9.582031 C 11.25 9.167969 12.5 9.582031 12.082031 10 C 11.667969 10.417969 8.332031 10.832031 7.082031 10.832031 C 5.832031 10.832031 5 10 5 10 Z M 5 10 "/>
<path style=" stroke:none;fill-rule:nonzero;fill:rgb(36.078431%,56.862745%,23.137255%);fill-opacity:1;" d="M 14.167969 6.667969 L 13.75 6.667969 C 13.289062 6.667969 12.917969 7.039062 12.917969 7.5 L 13.332031 7.5 C 13.5625 7.5 13.75 7.6875 13.75 7.917969 L 13.75 8.332031 L 14.167969 8.332031 C 14.625 8.332031 15 8.375 15 7.917969 C 15 7.457031 14.625 6.667969 14.167969 6.667969 Z M 14.167969 6.667969 "/>
<path style=" stroke:none;fill-rule:nonzero;fill:rgb(75.686275%,41.176471%,30.980392%);fill-opacity:1;" d="M 12.5 6.667969 C 12.902344 6.769531 12.5 7.5 12.082031 7.917969 C 11.667969 8.332031 7.917969 7.5 7.917969 7.5 L 8.75 6.25 C 8.75 6.25 10.832031 6.25 12.5 6.667969 Z M 12.5 6.667969 "/>
<path style=" stroke:none;fill-rule:nonzero;fill:rgb(62.745098%,1.568627%,11.764706%);fill-opacity:1;" d="M 12.082031 7.917969 C 12.21875 7.78125 12.351562 7.609375 12.457031 7.4375 C 11.84375 7.121094 10.945312 6.863281 9.925781 6.746094 C 9.40625 6.6875 8.90625 6.671875 8.457031 6.691406 L 7.917969 7.5 C 7.917969 7.5 11.667969 8.332031 12.082031 7.917969 Z M 12.082031 7.917969 "/>
<path style=" stroke:none;fill-rule:nonzero;fill:rgb(33.333333%,67.45098%,93.333333%);fill-opacity:1;" d="M 8.75 6.25 L 8.75 5.832031 L 7.082031 6.25 L 6.25 7.082031 L 7.917969 7.5 Z M 8.75 6.25 "/>
<path style=" stroke:none;fill-rule:nonzero;fill:rgb(16.078431%,18.431373%,20%);fill-opacity:1;" d="M 9.582031 5.832031 C 9.351562 5.832031 9.167969 6.394531 9.167969 7.082031 C 9.167969 7.339844 9.191406 7.574219 9.234375 7.773438 C 9.445312 7.828125 9.667969 7.867188 9.898438 7.890625 C 9.960938 7.671875 10 7.390625 10 7.082031 C 10 6.394531 9.8125 5.832031 9.582031 5.832031 Z M 9.582031 5.832031 "/>
</g>
</svg>
