<?xml version="1.0" encoding="UTF-8"?>
<svg xmlns="http://www.w3.org/2000/svg" xmlns:xlink="http://www.w3.org/1999/xlink" width="15pt" height="15pt" viewBox="0 0 15 15" version="1.1">
<g id="surface1">
<path style=" stroke:none;fill-rule:nonzero;fill:rgb(0%,0%,0%);fill-opacity:1;" d="M 14.582031 7.5 C 14.582031 11.410156 11.410156 14.582031 7.5 14.582031 C 3.589844 14.582031 0.417969 11.410156 0.417969 7.5 C 0.417969 3.589844 3.589844 0.417969 7.5 0.417969 C 11.410156 0.417969 14.582031 3.589844 14.582031 7.5 Z M 14.582031 7.5 "/>
<path style=" stroke:none;fill-rule:nonzero;fill:rgb(100%,100%,100%);fill-opacity:1;" d="M 9.875 7.082031 L 9.871094 7.082031 C 9.699219 7.082031 9.5625 6.972656 9.5625 6.804688 C 9.5625 6.714844 9.597656 5.910156 10.785156 5.117188 C 11.398438 4.710938 11.527344 4.03125 11.386719 3.566406 C 11.253906 3.132812 10.902344 2.890625 10.417969 2.890625 C 9.679688 2.890625 9.476562 3.289062 9.417969 3.523438 C 9.347656 3.820312 9.4375 4.015625 9.53125 4.09375 C 9.667969 4.210938 9.863281 4.183594 9.980469 4.113281 C 10.0625 4.0625 10.105469 3.976562 10.105469 3.863281 C 10.105469 3.691406 10.246094 3.550781 10.417969 3.550781 C 10.589844 3.550781 10.730469 3.691406 10.730469 3.863281 C 10.730469 4.195312 10.574219 4.480469 10.308594 4.648438 C 10.007812 4.832031 9.542969 4.8125 9.242188 4.644531 C 8.871094 4.441406 8.683594 3.917969 8.8125 3.382812 C 8.976562 2.683594 9.578125 2.269531 10.417969 2.269531 C 11.183594 2.269531 11.773438 2.691406 11.984375 3.394531 C 12.234375 4.222656 11.882812 5.152344 11.128906 5.652344 C 10.226562 6.257812 10.191406 6.789062 10.1875 6.8125 C 10.179688 6.980469 10.042969 7.082031 9.875 7.082031 Z M 9.167969 7.917969 L 2.5 7.917969 C 2.5 7.917969 1.667969 7.917969 1.667969 8.75 L 1.667969 9.167969 C 1.667969 10 2.5 10 2.5 10 L 9.167969 10 Z M 11.25 7.917969 L 10 7.917969 L 10 10 L 11.25 10 C 11.25 10 12.082031 10 12.082031 9.167969 L 12.082031 8.75 C 12.082031 7.917969 11.25 7.917969 11.25 7.917969 Z M 11.25 7.917969 "/>
<path style=" stroke:none;fill-rule:nonzero;fill:rgb(86.666667%,18.039216%,26.666667%);fill-opacity:1;" d="M 7.5 0 C 3.359375 0 0 3.359375 0 7.5 C 0 11.640625 3.359375 15 7.5 15 C 11.640625 15 15 11.640625 15 7.5 C 15 3.359375 11.640625 0 7.5 0 Z M 14.167969 7.5 C 14.167969 9.152344 13.5625 10.664062 12.566406 11.828125 L 3.171875 2.433594 C 4.335938 1.4375 5.847656 0.832031 7.5 0.832031 C 11.183594 0.832031 14.167969 3.816406 14.167969 7.5 Z M 0.832031 7.5 C 0.832031 5.847656 1.4375 4.335938 2.433594 3.171875 L 11.828125 12.566406 C 10.664062 13.5625 9.152344 14.167969 7.5 14.167969 C 3.816406 14.167969 0.832031 11.183594 0.832031 7.5 Z M 0.832031 7.5 "/>
</g>
</svg>
