<?xml version="1.0" encoding="UTF-8"?>
<svg xmlns="http://www.w3.org/2000/svg" xmlns:xlink="http://www.w3.org/1999/xlink" width="15pt" height="15pt" viewBox="0 0 15 15" version="1.1">
<g id="surface1">
<path style=" stroke:none;fill-rule:nonzero;fill:rgb(19.215686%,21.568627%,23.921569%);fill-opacity:1;" d="M 11.25 13.332031 C 11.25 14.253906 10.503906 15 9.582031 15 L 5.417969 15 C 4.496094 15 3.75 14.253906 3.75 13.332031 L 3.75 1.667969 C 3.75 0.746094 4.496094 0 5.417969 0 L 9.582031 0 C 10.503906 0 11.25 0.746094 11.25 1.667969 Z M 11.25 13.332031 "/>
<path style=" stroke:none;fill-rule:nonzero;fill:rgb(46.666667%,69.803922%,33.333333%);fill-opacity:1;" d="M 7.5 10.417969 C 8.421875 10.417969 9.167969 11.164062 9.167969 12.082031 C 9.167969 13.003906 8.421875 13.75 7.5 13.75 C 6.578125 13.75 5.832031 13.003906 5.832031 12.082031 C 5.832031 11.164062 6.578125 10.417969 7.5 10.417969 Z M 7.5 10.417969 "/>
<path style=" stroke:none;fill-rule:nonzero;fill:rgb(100%,80%,30.196078%);fill-opacity:1;" d="M 7.5 5.832031 C 8.421875 5.832031 9.167969 6.578125 9.167969 7.5 C 9.167969 8.421875 8.421875 9.167969 7.5 9.167969 C 6.578125 9.167969 5.832031 8.421875 5.832031 7.5 C 5.832031 6.578125 6.578125 5.832031 7.5 5.832031 Z M 7.5 5.832031 "/>
<path style=" stroke:none;fill-rule:nonzero;fill:rgb(86.666667%,18.039216%,26.666667%);fill-opacity:1;" d="M 7.5 1.25 C 8.421875 1.25 9.167969 1.996094 9.167969 2.917969 C 9.167969 3.835938 8.421875 4.582031 7.5 4.582031 C 6.578125 4.582031 5.832031 3.835938 5.832031 2.917969 C 5.832031 1.996094 6.578125 1.25 7.5 1.25 Z M 7.5 1.25 "/>
</g>
</svg>
