<?xml version="1.0" encoding="UTF-8"?>
<svg xmlns="http://www.w3.org/2000/svg" xmlns:xlink="http://www.w3.org/1999/xlink" width="15pt" height="15pt" viewBox="0 0 15 15" version="1.1">
<g id="surface1">
<path style=" stroke:none;fill-rule:nonzero;fill:rgb(19.215686%,21.568627%,23.921569%);fill-opacity:1;" d="M 15 9.582031 C 15 10.503906 14.253906 11.25 13.332031 11.25 L 1.667969 11.25 C 0.746094 11.25 0 10.503906 0 9.582031 L 0 5.417969 C 0 4.496094 0.746094 3.75 1.667969 3.75 L 13.332031 3.75 C 14.253906 3.75 15 4.496094 15 5.417969 Z M 15 9.582031 "/>
<path style=" stroke:none;fill-rule:nonzero;fill:rgb(46.666667%,69.803922%,33.333333%);fill-opacity:1;" d="M 4.582031 7.5 C 4.582031 8.421875 3.835938 9.167969 2.917969 9.167969 C 1.996094 9.167969 1.25 8.421875 1.25 7.5 C 1.25 6.578125 1.996094 5.832031 2.917969 5.832031 C 3.835938 5.832031 4.582031 6.578125 4.582031 7.5 Z M 4.582031 7.5 "/>
<path style=" stroke:none;fill-rule:nonzero;fill:rgb(100%,80%,30.196078%);fill-opacity:1;" d="M 9.167969 7.5 C 9.167969 8.421875 8.421875 9.167969 7.5 9.167969 C 6.578125 9.167969 5.832031 8.421875 5.832031 7.5 C 5.832031 6.578125 6.578125 5.832031 7.5 5.832031 C 8.421875 5.832031 9.167969 6.578125 9.167969 7.5 Z M 9.167969 7.5 "/>
<path style=" stroke:none;fill-rule:nonzero;fill:rgb(86.666667%,18.039216%,26.666667%);fill-opacity:1;" d="M 13.75 7.5 C 13.75 8.421875 13.003906 9.167969 12.082031 9.167969 C 11.164062 9.167969 10.417969 8.421875 10.417969 7.5 C 10.417969 6.578125 11.164062 5.832031 12.082031 5.832031 C 13.003906 5.832031 13.75 6.578125 13.75 7.5 Z M 13.75 7.5 "/>
</g>
</svg>
