<?xml version="1.0" encoding="UTF-8"?>
<svg xmlns="http://www.w3.org/2000/svg" xmlns:xlink="http://www.w3.org/1999/xlink" width="15pt" height="15pt" viewBox="0 0 15 15" version="1.1">
<g id="surface1">
<path style=" stroke:none;fill-rule:nonzero;fill:rgb(0%,0%,0%);fill-opacity:1;" d="M 6.398438 6.613281 L 7.683594 7.097656 L 7.203125 8.382812 C 7.203125 8.382812 5.304688 7.964844 5.011719 7.5 C 4.714844 7.039062 5.261719 6.363281 5.261719 6.363281 Z M 6.398438 6.613281 "/>
<path style=" stroke:none;fill-rule:nonzero;fill:rgb(75.686275%,41.176471%,30.980392%);fill-opacity:1;" d="M 0.832031 7.082031 L 14.167969 7.082031 C 14.167969 7.082031 14.167969 7.917969 13.75 10 C 13.390625 11.792969 5 10.417969 3.5 10 C 2.214844 9.644531 0.832031 7.082031 0.832031 7.082031 Z M 0.832031 7.082031 "/>
<path style=" stroke:none;fill-rule:nonzero;fill:rgb(95.686275%,56.470588%,4.705882%);fill-opacity:1;" d="M 14.582031 7.5 C 14.582031 7.730469 14.398438 7.917969 14.167969 7.917969 L 0.832031 7.917969 C 0.601562 7.917969 0.417969 7.730469 0.417969 7.5 C 0.417969 7.269531 0.601562 7.082031 0.832031 7.082031 L 14.167969 7.082031 C 14.398438 7.082031 14.582031 7.269531 14.582031 7.5 Z M 14.582031 7.5 "/>
<path style=" stroke:none;fill-rule:nonzero;fill:rgb(33.333333%,67.45098%,93.333333%);fill-opacity:1;" d="M 0 9.972656 L 0 14.167969 C 0 14.628906 0.371094 15 0.832031 15 L 14.167969 15 C 14.628906 15 15 14.628906 15 14.167969 L 15 10.152344 C 15 9.886719 14.757812 9.695312 14.496094 9.746094 C 9.773438 10.65625 5.050781 8.574219 0.328125 9.5625 C 0.136719 9.601562 0 9.777344 0 9.972656 Z M 0 9.972656 "/>
<path style=" stroke:none;fill-rule:nonzero;fill:rgb(10.980392%,38.823529%,60%);fill-opacity:1;" d="M 10.269531 5.640625 C 10.199219 5.566406 10.082031 5.566406 10.011719 5.640625 L 6.664062 8.984375 C 5.738281 9.910156 5.542969 9.234375 4.566406 10.210938 L 3.222656 11.558594 C 3.136719 11.640625 3.140625 11.773438 3.222656 11.859375 L 4.050781 12.6875 C 4.132812 12.769531 4.269531 12.769531 4.351562 12.6875 L 5.695312 11.339844 C 6.671875 10.363281 5.996094 10.167969 6.921875 9.242188 L 10.269531 5.898438 C 10.339844 5.824219 10.339844 5.710938 10.269531 5.640625 Z M 10.269531 5.640625 "/>
<path style=" stroke:none;fill-rule:nonzero;fill:rgb(96.862745%,87.058824%,80.784314%);fill-opacity:1;" d="M 7.554688 2.515625 C 7.980469 2.4375 8.539062 2.757812 8.542969 3.234375 C 8.550781 3.902344 8.082031 4.371094 7.683594 4.25 C 7.269531 4.121094 7.027344 3.976562 6.941406 3.507812 C 6.851562 3.039062 7.128906 2.59375 7.554688 2.515625 Z M 7.554688 2.515625 "/>
<path style=" stroke:none;fill-rule:nonzero;fill:rgb(96.862745%,87.058824%,80.784314%);fill-opacity:1;" d="M 7.03125 3.640625 C 6.585938 2.851562 7.964844 3.1875 7.964844 3.1875 C 8.222656 3.25 7.957031 3.652344 8.035156 3.914062 C 8.089844 4.097656 7.714844 4.117188 7.714844 4.117188 C 7.714844 4.117188 7.550781 4.082031 7.503906 4.277344 L 7.503906 4.28125 C 7.492188 4.332031 7.484375 4.390625 7.492188 4.476562 C 7.535156 4.898438 6.953125 5.039062 6.910156 4.617188 C 6.894531 4.449219 6.941406 4.316406 6.988281 4.191406 L 6.992188 4.179688 C 7.066406 3.996094 7.140625 3.839844 7.03125 3.640625 Z M 7.03125 3.640625 "/>
<path style=" stroke:none;fill-rule:nonzero;fill:rgb(16.078431%,18.431373%,20%);fill-opacity:1;" d="M 7.03125 2.554688 C 7.277344 2.328125 7.980469 2.222656 8.332031 2.636719 C 8.628906 2.644531 8.6875 2.941406 8.628906 3.09375 C 8.585938 3.214844 8.269531 3.1875 8.148438 3.410156 C 8.105469 3.339844 8.113281 3.214844 8.136719 3.152344 C 8.019531 3.226562 8.015625 3.484375 7.597656 3.574219 C 7.191406 3.660156 7.191406 4.003906 7.191406 4.003906 C 7.191406 4.003906 7.011719 3.871094 6.90625 3.683594 C 6.703125 3.332031 6.757812 2.804688 7.03125 2.554688 Z M 7.03125 2.554688 "/>
<path style=" stroke:none;fill-rule:nonzero;fill:rgb(96.862745%,87.058824%,80.784314%);fill-opacity:1;" d="M 10.050781 5.871094 L 10 5.820312 C 9.890625 5.703125 9.820312 5.742188 9.757812 5.78125 C 9.730469 5.796875 9.660156 5.832031 9.660156 5.832031 C 9.585938 5.824219 8.730469 5.503906 8.621094 5.398438 C 8.589844 5.371094 8.402344 5.203125 8.34375 5.136719 C 8.179688 4.949219 7.992188 4.730469 7.734375 4.558594 C 7.53125 4.425781 7.472656 4.414062 7.375 4.441406 C 7.261719 4.46875 7.160156 4.550781 7.101562 4.664062 C 6.972656 4.914062 7.046875 5.195312 7.289062 5.347656 C 7.761719 5.648438 8.128906 5.871094 8.347656 5.992188 C 8.519531 6.085938 8.972656 6.183594 9.277344 6.25 C 9.378906 6.273438 9.476562 6.296875 9.496094 6.300781 C 9.527344 6.316406 9.574219 6.359375 9.617188 6.40625 C 9.683594 6.472656 9.753906 6.542969 9.824219 6.542969 C 9.832031 6.542969 9.839844 6.542969 9.847656 6.542969 C 9.957031 6.519531 10.015625 6.402344 10.128906 6.21875 C 10.234375 6.050781 10.15625 5.976562 10.050781 5.871094 Z M 10.050781 5.871094 "/>
<path style=" stroke:none;fill-rule:nonzero;fill:rgb(98.039216%,45.490196%,24.313725%);fill-opacity:1;" d="M 8.105469 4.808594 C 7.902344 4.503906 7.800781 4.34375 7.496094 4.277344 C 6.957031 4.15625 6.28125 4.402344 5.734375 5.078125 C 5.390625 5.503906 5.339844 5.984375 4.792969 6.660156 C 4.792969 6.660156 6.699219 6.960938 6.777344 6.699219 C 6.851562 6.4375 6.945312 6.0625 7.234375 5.800781 C 7.441406 5.613281 7.445312 5.527344 7.496094 5.476562 C 7.671875 5.625 7.910156 5.757812 7.910156 5.757812 L 8.414062 5.175781 Z M 8.105469 4.808594 "/>
</g>
</svg>
