<?xml version="1.0" encoding="UTF-8"?>
<svg xmlns="http://www.w3.org/2000/svg" xmlns:xlink="http://www.w3.org/1999/xlink" width="15pt" height="15pt" viewBox="0 0 15 15" version="1.1">
<g id="surface1">
<path style=" stroke:none;fill-rule:nonzero;fill:rgb(85.098039%,61.960784%,50.980392%);fill-opacity:1;" d="M 5.417969 12.5 L 0.832031 12.5 C 0.832031 12.5 0 12.5 0 11.667969 L 0 9.582031 C 0 8.75 0.832031 8.75 0.832031 8.75 L 5.417969 8.75 Z M 5.417969 12.5 "/>
<path style=" stroke:none;fill-rule:nonzero;fill:rgb(88.235294%,90.980392%,92.941176%);fill-opacity:1;" d="M 5 8.75 L 10.832031 8.75 L 10.832031 12.5 L 5 12.5 Z M 5 8.75 "/>
<path style=" stroke:none;fill-rule:nonzero;fill:rgb(40%,45.882353%,49.803922%);fill-opacity:1;" d="M 12.917969 8.75 L 10.417969 8.75 L 10.417969 12.5 L 12.917969 12.5 C 12.917969 12.5 13.75 12.5 13.75 11.667969 L 13.75 9.582031 C 13.75 8.75 12.917969 8.75 12.917969 8.75 Z M 12.917969 8.75 "/>
<path style=" stroke:none;fill-rule:nonzero;fill:rgb(80%,83.921569%,86.666667%);fill-opacity:1;" d="M 11.578125 8.332031 C 11.375 8.332031 11.199219 8.183594 11.167969 7.976562 C 11.15625 7.894531 10.894531 5.925781 13.03125 4.644531 C 14.074219 4.019531 14.308594 2.875 14.085938 2.074219 C 13.984375 1.703125 13.613281 0.832031 12.414062 0.832031 C 11.105469 0.832031 10.761719 1.570312 10.683594 1.902344 C 10.566406 2.398438 10.683594 2.792969 10.945312 2.980469 C 11.214844 3.175781 11.535156 3.121094 11.75 2.988281 C 11.910156 2.890625 11.996094 2.71875 11.996094 2.5 C 11.996094 2.269531 12.183594 2.082031 12.414062 2.082031 C 12.644531 2.082031 12.828125 2.269531 12.828125 2.5 C 12.828125 3.007812 12.597656 3.445312 12.1875 3.699219 C 11.726562 3.980469 11.011719 3.921875 10.554688 3.664062 C 9.992188 3.351562 9.695312 2.574219 9.890625 1.742188 C 10.148438 0.652344 11.089844 0 12.414062 0 C 13.625 0 14.574219 0.710938 14.890625 1.851562 C 15.261719 3.1875 14.671875 4.628906 13.460938 5.355469 C 11.792969 6.355469 11.988281 7.839844 11.992188 7.855469 C 12.023438 8.085938 11.867188 8.296875 11.640625 8.328125 C 11.621094 8.332031 11.597656 8.332031 11.578125 8.332031 Z M 11.578125 8.332031 "/>
</g>
</svg>
