<?xml version="1.0" encoding="UTF-8"?>
<svg xmlns="http://www.w3.org/2000/svg" xmlns:xlink="http://www.w3.org/1999/xlink" width="15pt" height="15pt" viewBox="0 0 15 15" version="1.1">
<g id="surface1">
<path style=" stroke:none;fill-rule:nonzero;fill:rgb(0%,0%,0%);fill-opacity:1;" d="M 6.398438 6.613281 L 7.683594 7.097656 L 7.203125 8.382812 C 7.203125 8.382812 5.304688 7.964844 5.011719 7.5 C 4.714844 7.039062 5.261719 6.363281 5.261719 6.363281 Z M 6.398438 6.613281 "/>
<path style=" stroke:none;fill-rule:nonzero;fill:rgb(75.686275%,41.176471%,30.980392%);fill-opacity:1;" d="M 0.832031 7.082031 L 14.167969 7.082031 C 14.167969 7.082031 14.167969 7.917969 13.75 10 C 13.390625 11.792969 5 10.417969 3.5 10 C 2.214844 9.644531 0.832031 7.082031 0.832031 7.082031 Z M 0.832031 7.082031 "/>
<path style=" stroke:none;fill-rule:nonzero;fill:rgb(95.686275%,56.470588%,4.705882%);fill-opacity:1;" d="M 14.582031 7.5 C 14.582031 7.730469 14.398438 7.917969 14.167969 7.917969 L 0.832031 7.917969 C 0.601562 7.917969 0.417969 7.730469 0.417969 7.5 C 0.417969 7.269531 0.601562 7.082031 0.832031 7.082031 L 14.167969 7.082031 C 14.398438 7.082031 14.582031 7.269531 14.582031 7.5 Z M 14.582031 7.5 "/>
<path style=" stroke:none;fill-rule:nonzero;fill:rgb(33.333333%,67.45098%,93.333333%);fill-opacity:1;" d="M 0 9.972656 L 0 14.167969 C 0 14.628906 0.371094 15 0.832031 15 L 14.167969 15 C 14.628906 15 15 14.628906 15 14.167969 L 15 10.152344 C 15 9.886719 14.757812 9.695312 14.496094 9.746094 C 9.773438 10.65625 5.050781 8.574219 0.328125 9.5625 C 0.136719 9.601562 0 9.777344 0 9.972656 Z M 0 9.972656 "/>
<path style=" stroke:none;fill-rule:nonzero;fill:rgb(10.980392%,38.823529%,60%);fill-opacity:1;" d="M 10.269531 5.640625 C 10.199219 5.566406 10.082031 5.566406 10.011719 5.640625 L 6.664062 8.984375 C 5.738281 9.910156 5.542969 9.234375 4.566406 10.210938 L 3.222656 11.558594 C 3.136719 11.640625 3.140625 11.773438 3.222656 11.859375 L 4.050781 12.6875 C 4.132812 12.769531 4.269531 12.769531 4.351562 12.6875 L 5.695312 11.339844 C 6.671875 10.363281 5.996094 10.167969 6.921875 9.242188 L 10.269531 5.898438 C 10.339844 5.824219 10.339844 5.710938 10.269531 5.640625 Z M 10.269531 5.640625 "/>
<path style=" stroke:none;fill-rule:nonzero;fill:rgb(83.137255%,67.058824%,53.333333%);fill-opacity:1;" d="M 7.09375 3.84375 C 7.023438 3.757812 6.964844 3.652344 6.933594 3.523438 C 6.824219 3.058594 7.078125 2.597656 7.5 2.496094 C 7.925781 2.398438 8.519531 2.691406 8.527344 3.171875 C 8.53125 3.644531 8.292969 4.355469 7.890625 4.253906 C 7.785156 4.226562 7.679688 4.195312 7.578125 4.160156 C 7.535156 4.210938 7.515625 4.40625 7.539062 4.570312 C 7.597656 4.988281 7.019531 5.054688 6.957031 4.636719 C 6.910156 4.300781 7.109375 4.082031 7.09375 3.84375 Z M 7.09375 3.84375 "/>
<path style=" stroke:none;fill-rule:nonzero;fill:rgb(58.823529%,23.137255%,13.333333%);fill-opacity:1;" d="M 5.753906 3.441406 C 5.992188 3.429688 6.21875 3.402344 6.609375 2.898438 C 6.871094 2.5625 7.113281 2.347656 7.714844 2.355469 C 8.351562 2.359375 8.886719 2.902344 8.476562 3.175781 C 8.296875 3.292969 8.148438 3.234375 7.863281 3.316406 C 7.410156 3.441406 7.34375 3.921875 6.9375 4.03125 C 6.140625 4.242188 5.515625 3.453125 5.753906 3.441406 Z M 5.753906 3.441406 "/>
<path style=" stroke:none;fill-rule:nonzero;fill:rgb(83.137255%,67.058824%,53.333333%);fill-opacity:1;" d="M 10.015625 5.816406 C 9.878906 5.675781 9.800781 5.84375 9.703125 5.839844 C 9.644531 5.839844 8.726562 5.476562 8.609375 5.363281 C 8.492188 5.25 8.148438 4.8125 7.804688 4.582031 C 7.460938 4.355469 7.230469 4.511719 7.140625 4.683594 C 7.023438 4.90625 7.078125 5.167969 7.3125 5.3125 C 7.476562 5.417969 8.042969 5.773438 8.367188 5.957031 C 8.601562 6.085938 9.4375 6.234375 9.511719 6.265625 C 9.609375 6.304688 9.742188 6.523438 9.839844 6.503906 C 9.9375 6.480469 10.039062 6.324219 10.140625 6.164062 C 10.238281 6.003906 10.152344 5.957031 10.015625 5.816406 Z M 10.015625 5.816406 "/>
<path style=" stroke:none;fill-rule:nonzero;fill:rgb(57.254902%,40%,80%);fill-opacity:1;" d="M 8.4375 5.152344 L 8.128906 4.835938 C 7.929688 4.53125 7.800781 4.34375 7.496094 4.277344 C 6.957031 4.15625 6.28125 4.40625 5.734375 5.078125 C 5.390625 5.503906 5.339844 5.984375 4.792969 6.660156 C 4.792969 6.660156 6.644531 6.910156 6.691406 6.699219 C 6.75 6.425781 7.003906 6.175781 7.128906 5.792969 C 7.457031 5.648438 7.488281 5.429688 7.496094 5.4375 C 7.683594 5.570312 7.945312 5.71875 7.945312 5.71875 Z M 8.4375 5.152344 "/>
</g>
</svg>
