<?xml version="1.0" encoding="UTF-8"?>
<svg xmlns="http://www.w3.org/2000/svg" xmlns:xlink="http://www.w3.org/1999/xlink" width="15pt" height="15pt" viewBox="0 0 15 15" version="1.1">
<g id="surface1">
<path style=" stroke:none;fill-rule:nonzero;fill:rgb(0%,0%,0%);fill-opacity:1;" d="M 6.398438 6.613281 L 7.683594 7.097656 L 7.203125 8.382812 C 7.203125 8.382812 5.304688 7.964844 5.011719 7.5 C 4.714844 7.039062 5.261719 6.363281 5.261719 6.363281 Z M 6.398438 6.613281 "/>
<path style=" stroke:none;fill-rule:nonzero;fill:rgb(75.686275%,41.176471%,30.980392%);fill-opacity:1;" d="M 0.832031 7.082031 L 14.167969 7.082031 C 14.167969 7.082031 14.167969 7.917969 13.75 10 C 13.390625 11.792969 5 10.417969 3.5 10 C 2.214844 9.644531 0.832031 7.082031 0.832031 7.082031 Z M 0.832031 7.082031 "/>
<path style=" stroke:none;fill-rule:nonzero;fill:rgb(95.686275%,56.470588%,4.705882%);fill-opacity:1;" d="M 14.582031 7.5 C 14.582031 7.730469 14.398438 7.917969 14.167969 7.917969 L 0.832031 7.917969 C 0.601562 7.917969 0.417969 7.730469 0.417969 7.5 C 0.417969 7.269531 0.601562 7.082031 0.832031 7.082031 L 14.167969 7.082031 C 14.398438 7.082031 14.582031 7.269531 14.582031 7.5 Z M 14.582031 7.5 "/>
<path style=" stroke:none;fill-rule:nonzero;fill:rgb(33.333333%,67.45098%,93.333333%);fill-opacity:1;" d="M 0 9.972656 L 0 14.167969 C 0 14.628906 0.371094 15 0.832031 15 L 14.167969 15 C 14.628906 15 15 14.628906 15 14.167969 L 15 10.152344 C 15 9.886719 14.757812 9.695312 14.496094 9.746094 C 9.773438 10.65625 5.050781 8.574219 0.328125 9.5625 C 0.136719 9.601562 0 9.777344 0 9.972656 Z M 0 9.972656 "/>
<path style=" stroke:none;fill-rule:nonzero;fill:rgb(10.980392%,38.823529%,60%);fill-opacity:1;" d="M 10.269531 5.640625 C 10.199219 5.566406 10.082031 5.566406 10.011719 5.640625 L 6.664062 8.984375 C 5.738281 9.910156 5.542969 9.234375 4.566406 10.210938 L 3.222656 11.558594 C 3.136719 11.640625 3.140625 11.773438 3.222656 11.859375 L 4.050781 12.6875 C 4.132812 12.769531 4.269531 12.769531 4.351562 12.6875 L 5.695312 11.339844 C 6.671875 10.363281 5.996094 10.167969 6.921875 9.242188 L 10.269531 5.898438 C 10.339844 5.824219 10.339844 5.710938 10.269531 5.640625 Z M 10.269531 5.640625 "/>
<path style=" stroke:none;fill-rule:nonzero;fill:rgb(96.862745%,87.058824%,80.784314%);fill-opacity:1;" d="M 7.09375 3.84375 C 7.023438 3.757812 6.964844 3.652344 6.933594 3.523438 C 6.824219 3.058594 7.078125 2.597656 7.5 2.496094 C 7.925781 2.398438 8.519531 2.691406 8.527344 3.171875 C 8.53125 3.644531 8.292969 4.355469 7.890625 4.253906 C 7.785156 4.226562 7.679688 4.195312 7.578125 4.160156 C 7.535156 4.210938 7.515625 4.40625 7.539062 4.570312 C 7.597656 4.988281 7.019531 5.054688 6.957031 4.636719 C 6.910156 4.300781 7.109375 4.082031 7.09375 3.84375 Z M 7.09375 3.84375 "/>
<path style=" stroke:none;fill-rule:nonzero;fill:rgb(16.078431%,18.431373%,20%);fill-opacity:1;" d="M 8.3125 2.578125 C 7.71875 2.242188 7.332031 2.320312 7.019531 2.59375 C 6.710938 2.867188 6.71875 3.355469 6.820312 3.660156 C 6.925781 3.964844 7.015625 3.945312 7.015625 3.945312 C 7.015625 3.945312 7.449219 4.023438 7.460938 3.625 C 7.464844 3.496094 7.320312 3.4375 7.464844 3.246094 C 7.558594 3.121094 7.777344 3.171875 7.789062 3.339844 C 7.796875 3.511719 7.882812 3.476562 7.882812 3.476562 L 8.117188 3.011719 C 8.117188 3.011719 8.339844 2.988281 8.472656 3.1875 C 8.558594 3.308594 8.828125 2.867188 8.3125 2.578125 Z M 8.3125 2.578125 "/>
<path style=" stroke:none;fill-rule:nonzero;fill:rgb(96.862745%,87.058824%,80.784314%);fill-opacity:1;" d="M 10.09375 5.835938 L 10.046875 5.789062 C 9.933594 5.671875 9.839844 5.730469 9.777344 5.765625 C 9.753906 5.785156 9.726562 5.800781 9.707031 5.800781 C 9.632812 5.789062 8.746094 5.4375 8.636719 5.335938 C 8.609375 5.304688 8.5625 5.253906 8.503906 5.191406 C 8.339844 5.003906 8.085938 4.71875 7.828125 4.546875 C 7.628906 4.414062 7.472656 4.414062 7.375 4.441406 C 7.261719 4.46875 7.160156 4.550781 7.101562 4.664062 C 6.972656 4.914062 7.046875 5.199219 7.289062 5.347656 C 7.761719 5.648438 8.128906 5.871094 8.347656 5.992188 C 8.519531 6.085938 8.972656 6.183594 9.277344 6.25 C 9.378906 6.273438 9.476562 6.296875 9.496094 6.304688 C 9.527344 6.316406 9.574219 6.363281 9.617188 6.40625 C 9.683594 6.472656 9.753906 6.542969 9.828125 6.542969 C 9.832031 6.542969 9.839844 6.542969 9.847656 6.542969 C 9.957031 6.519531 10.0625 6.367188 10.171875 6.1875 C 10.277344 6.019531 10.203125 5.941406 10.09375 5.835938 Z M 10.09375 5.835938 "/>
<path style=" stroke:none;fill-rule:nonzero;fill:rgb(46.666667%,69.803922%,33.333333%);fill-opacity:1;" d="M 8.148438 4.8125 C 7.949219 4.507812 7.800781 4.34375 7.496094 4.277344 C 6.957031 4.15625 6.28125 4.402344 5.734375 5.078125 C 5.390625 5.503906 5.339844 5.984375 4.792969 6.660156 C 4.792969 6.660156 6.542969 6.847656 6.777344 6.699219 C 7.007812 6.550781 7.089844 6.171875 7.175781 5.792969 C 7.21875 5.589844 7.296875 5.457031 7.378906 5.40625 C 7.558594 5.558594 7.910156 5.757812 7.910156 5.757812 L 8.457031 5.128906 C 8.457031 5.128906 8.238281 4.882812 8.148438 4.8125 Z M 8.148438 4.8125 "/>
</g>
</svg>
