<?xml version="1.0" encoding="UTF-8"?>
<svg xmlns="http://www.w3.org/2000/svg" xmlns:xlink="http://www.w3.org/1999/xlink" width="15pt" height="15pt" viewBox="0 0 15 15" version="1.1">
<g id="surface1">
<path style=" stroke:none;fill-rule:nonzero;fill:rgb(86.666667%,18.039216%,26.666667%);fill-opacity:1;" d="M 7.5 0 C 3.359375 0 0 3.359375 0 7.5 C 0 11.640625 3.359375 15 7.5 15 C 11.640625 15 15 11.640625 15 7.5 C 15 3.359375 11.640625 0 7.5 0 Z M 12.917969 7.5 C 12.917969 8.570312 12.601562 9.5625 12.070312 10.402344 L 4.597656 2.933594 C 5.4375 2.398438 6.429688 2.082031 7.5 2.082031 C 10.492188 2.082031 12.917969 4.507812 12.917969 7.5 Z M 2.082031 7.5 C 2.082031 6.429688 2.398438 5.4375 2.933594 4.597656 L 10.402344 12.070312 C 9.5625 12.601562 8.570312 12.917969 7.5 12.917969 C 4.507812 12.917969 2.082031 10.492188 2.082031 7.5 Z M 2.082031 7.5 "/>
</g>
</svg>
