<?xml version="1.0" encoding="UTF-8"?>
<svg xmlns="http://www.w3.org/2000/svg" xmlns:xlink="http://www.w3.org/1999/xlink" width="15pt" height="15pt" viewBox="0 0 15 15" version="1.1">
<g id="surface1">
<path style=" stroke:none;fill-rule:nonzero;fill:rgb(16.078431%,18.431373%,20%);fill-opacity:1;" d="M 6.667969 0 L 8.332031 0 L 8.332031 2.082031 L 6.667969 2.082031 Z M 6.667969 0 "/>
<path style=" stroke:none;fill-rule:nonzero;fill:rgb(81.960784%,82.745098%,83.137255%);fill-opacity:1;" d="M 6.667969 0.832031 L 8.332031 0.832031 L 8.332031 2.5 L 6.667969 2.5 Z M 6.667969 0.832031 "/>
<path style=" stroke:none;fill-rule:nonzero;fill:rgb(65.490196%,66.27451%,67.45098%);fill-opacity:1;" d="M 7.5 0.832031 L 8.332031 0.832031 L 8.332031 2.5 L 7.5 2.5 Z M 7.5 0.832031 "/>
<path style=" stroke:none;fill-rule:nonzero;fill:rgb(40%,45.882353%,49.803922%);fill-opacity:1;" d="M 7.5 7.917969 L 2.082031 7.917969 C 2.082031 7.917969 2.648438 11.25 4.113281 13.75 C 5.582031 16.25 7.5 13.75 7.5 13.75 C 7.5 13.75 9.417969 16.25 10.886719 13.75 C 12.351562 11.25 12.917969 7.917969 12.917969 7.917969 Z M 7.5 7.917969 "/>
<path style=" stroke:none;fill-rule:nonzero;fill:rgb(60%,66.666667%,70.980392%);fill-opacity:1;" d="M 7.5 7.917969 L 2.082031 7.917969 C 2.082031 7.917969 2.648438 11.25 4.113281 13.75 C 5.582031 16.25 7.5 13.75 7.5 13.75 Z M 7.5 7.917969 "/>
<path style=" stroke:none;fill-rule:nonzero;fill:rgb(33.333333%,67.45098%,93.333333%);fill-opacity:1;" d="M 0 12.5 L 15 12.5 L 15 15 L 0 15 Z M 0 12.5 "/>
<path style=" stroke:none;fill-rule:nonzero;fill:rgb(90.196078%,90.588235%,90.980392%);fill-opacity:1;" d="M 12.5 3.75 L 11.480469 3.75 L 11.378906 2.082031 L 3.621094 2.082031 L 3.519531 3.75 L 2.5 3.75 L 2.5 6.25 L 3.371094 6.25 L 3.269531 7.917969 L 11.730469 7.917969 L 11.628906 6.25 L 12.5 6.25 Z M 12.5 3.75 "/>
<path style=" stroke:none;fill-rule:nonzero;fill:rgb(81.960784%,82.745098%,83.137255%);fill-opacity:1;" d="M 4.167969 6.25 L 10.832031 6.25 L 10.832031 7.917969 L 4.167969 7.917969 Z M 4.167969 6.25 "/>
<path style=" stroke:none;fill-rule:nonzero;fill:rgb(42.745098%,43.137255%,44.313725%);fill-opacity:1;" d="M 3.332031 4.582031 L 11.667969 4.582031 L 11.667969 5.417969 L 3.332031 5.417969 Z M 3.332031 4.582031 "/>
<path style=" stroke:none;fill-rule:nonzero;fill:rgb(73.72549%,74.509804%,75.294118%);fill-opacity:1;" d="M 4.167969 2.917969 L 10.832031 2.917969 L 10.832031 3.75 L 4.167969 3.75 Z M 4.167969 2.917969 "/>
<path style=" stroke:none;fill-rule:nonzero;fill:rgb(74.509804%,9.803922%,19.215686%);fill-opacity:1;" d="M 2.464844 9.582031 L 12.535156 9.582031 C 12.621094 9.273438 12.691406 8.988281 12.746094 8.75 L 2.253906 8.75 C 2.308594 8.988281 2.378906 9.273438 2.464844 9.582031 Z M 2.464844 9.582031 "/>
<path style=" stroke:none;fill-rule:nonzero;fill:rgb(62.745098%,1.568627%,11.764706%);fill-opacity:1;" d="M 7.5 9.582031 L 12.535156 9.582031 C 12.621094 9.273438 12.691406 8.988281 12.746094 8.75 L 7.5 8.75 Z M 7.5 9.582031 "/>
<path style=" stroke:none;fill-rule:nonzero;fill:rgb(73.72549%,74.509804%,75.294118%);fill-opacity:1;" d="M 5 7.082031 L 10 7.082031 L 10 7.917969 L 5 7.917969 Z M 5 7.082031 "/>
<path style=" stroke:none;fill-rule:nonzero;fill:rgb(34.509804%,34.901961%,35.686275%);fill-opacity:1;" d="M 6.667969 0 L 7.5 0 L 7.5 0.832031 L 6.667969 0.832031 Z M 6.667969 0 "/>
</g>
</svg>
