<?xml version="1.0" encoding="UTF-8"?>
<svg xmlns="http://www.w3.org/2000/svg" xmlns:xlink="http://www.w3.org/1999/xlink" width="15pt" height="15pt" viewBox="0 0 15 15" version="1.1">
<g id="surface1">
<path style=" stroke:none;fill-rule:nonzero;fill:rgb(0%,0%,0%);fill-opacity:1;" d="M 14.582031 7.5 C 14.582031 11.410156 11.410156 14.582031 7.5 14.582031 C 3.585938 14.582031 0.417969 11.410156 0.417969 7.5 C 0.417969 3.585938 3.585938 0.417969 7.5 0.417969 C 11.410156 0.417969 14.582031 3.585938 14.582031 7.5 Z M 14.582031 7.5 "/>
<path style=" stroke:none;fill-rule:nonzero;fill:rgb(100%,100%,100%);fill-opacity:1;" d="M 11.25 6.25 C 10.824219 6.25 10.417969 6.34375 10.054688 6.507812 L 8.773438 4.5 L 8.789062 4.464844 L 9.707031 4.582031 C 9.71875 4.582031 9.730469 4.582031 9.742188 4.582031 C 9.867188 4.582031 9.984375 4.503906 10.023438 4.382812 L 10.316406 3.496094 C 10.359375 3.375 10.316406 3.242188 10.21875 3.167969 C 10.117188 3.089844 9.980469 3.085938 9.875 3.15625 C 9.074219 3.691406 7.394531 3.695312 7.378906 3.695312 C 7.222656 3.695312 7.09375 3.816406 7.085938 3.972656 C 7.074219 4.128906 7.1875 4.265625 7.34375 4.285156 L 7.941406 4.359375 L 7.710938 5 L 5.136719 5 L 3.582031 3.832031 C 3.398438 3.695312 4.507812 5.570312 4.507812 5.570312 L 4.265625 6.296875 C 4.097656 6.269531 3.925781 6.25 3.75 6.25 C 2.140625 6.25 0.832031 7.554688 0.832031 9.167969 C 0.832031 10.777344 2.140625 12.082031 3.75 12.082031 C 5.222656 12.082031 6.433594 10.992188 6.632812 9.578125 C 6.644531 9.578125 6.65625 9.582031 6.667969 9.582031 L 8.367188 9.582031 C 8.570312 10.996094 9.78125 12.082031 11.25 12.082031 C 12.859375 12.082031 14.167969 10.777344 14.167969 9.167969 C 14.167969 7.554688 12.859375 6.25 11.25 6.25 Z M 9.804688 7.671875 L 10.492188 8.75 L 9.207031 8.75 C 9.292969 8.328125 9.507812 7.957031 9.804688 7.671875 Z M 8.367188 8.75 L 7.257812 8.75 L 8.300781 5.832031 L 8.636719 5.832031 L 9.351562 6.957031 C 8.828125 7.40625 8.46875 8.035156 8.367188 8.75 Z M 5.300781 5.832031 L 7.414062 5.832031 L 6.535156 8.296875 C 6.296875 7.539062 5.757812 6.914062 5.058594 6.5625 Z M 3.75 11.25 C 2.597656 11.25 1.667969 10.316406 1.667969 9.167969 C 1.667969 8.015625 2.597656 7.082031 3.75 7.082031 C 3.835938 7.082031 3.914062 7.097656 3.996094 7.109375 L 3.355469 9.035156 C 3.28125 9.253906 3.398438 9.488281 3.617188 9.5625 C 3.660156 9.578125 3.707031 9.582031 3.75 9.582031 C 3.925781 9.582031 4.085938 9.472656 4.144531 9.296875 L 4.789062 7.371094 C 5.410156 7.730469 5.832031 8.394531 5.832031 9.167969 C 5.832031 10.316406 4.902344 11.25 3.75 11.25 Z M 11.25 11.25 C 10.242188 11.25 9.402344 10.535156 9.207031 9.582031 L 11.25 9.582031 C 11.296875 9.582031 11.347656 9.570312 11.394531 9.554688 C 11.40625 9.550781 11.421875 9.542969 11.433594 9.535156 C 11.445312 9.53125 11.460938 9.527344 11.472656 9.519531 C 11.488281 9.511719 11.496094 9.496094 11.503906 9.488281 C 11.527344 9.46875 11.546875 9.453125 11.566406 9.429688 C 11.582031 9.410156 11.597656 9.386719 11.609375 9.363281 C 11.621094 9.339844 11.632812 9.320312 11.640625 9.292969 C 11.648438 9.265625 11.65625 9.238281 11.65625 9.210938 C 11.660156 9.195312 11.667969 9.183594 11.667969 9.167969 C 11.667969 9.15625 11.660156 9.144531 11.660156 9.132812 C 11.65625 9.105469 11.652344 9.078125 11.644531 9.050781 C 11.636719 9.023438 11.625 9 11.613281 8.972656 C 11.609375 8.964844 11.609375 8.953125 11.601562 8.941406 L 10.507812 7.226562 C 10.738281 7.136719 10.988281 7.082031 11.25 7.082031 C 12.402344 7.082031 13.332031 8.015625 13.332031 9.167969 C 13.332031 10.316406 12.402344 11.25 11.25 11.25 Z M 11.25 11.25 "/>
<path style=" stroke:none;fill-rule:nonzero;fill:rgb(100%,100%,100%);fill-opacity:1;" d="M 3.75 3.75 L 5.832031 3.75 C 6.0625 3.75 6.25 3.5625 6.25 3.332031 C 6.25 3.101562 6.0625 2.917969 5.832031 2.917969 L 3.75 2.917969 C 3.519531 2.917969 3.332031 3.101562 3.332031 3.332031 C 3.332031 3.5625 3.519531 3.75 3.75 3.75 Z M 3.75 3.75 "/>
<path style=" stroke:none;fill-rule:nonzero;fill:rgb(86.666667%,18.039216%,26.666667%);fill-opacity:1;" d="M 7.5 0 C 3.359375 0 0 3.359375 0 7.5 C 0 11.640625 3.359375 15 7.5 15 C 11.640625 15 15 11.640625 15 7.5 C 15 3.359375 11.640625 0 7.5 0 Z M 14.167969 7.5 C 14.167969 9.152344 13.5625 10.664062 12.566406 11.828125 L 3.171875 2.433594 C 4.335938 1.4375 5.847656 0.832031 7.5 0.832031 C 11.183594 0.832031 14.167969 3.816406 14.167969 7.5 Z M 0.832031 7.5 C 0.832031 5.847656 1.4375 4.335938 2.433594 3.171875 L 11.828125 12.566406 C 10.664062 13.5625 9.152344 14.167969 7.5 14.167969 C 3.816406 14.167969 0.832031 11.183594 0.832031 7.5 Z M 0.832031 7.5 "/>
</g>
</svg>
