<?xml version="1.0" encoding="UTF-8"?>
<svg xmlns="http://www.w3.org/2000/svg" xmlns:xlink="http://www.w3.org/1999/xlink" width="15pt" height="15pt" viewBox="0 0 15 15" version="1.1">
<g id="surface1">
<path style=" stroke:none;fill-rule:nonzero;fill:rgb(0%,0%,0%);fill-opacity:1;" d="M 14.582031 7.5 C 14.582031 11.410156 11.410156 14.582031 7.5 14.582031 C 3.585938 14.582031 0.417969 11.410156 0.417969 7.5 C 0.417969 3.585938 3.585938 0.417969 7.5 0.417969 C 11.410156 0.417969 14.582031 3.585938 14.582031 7.5 Z M 14.582031 7.5 "/>
<path style=" stroke:none;fill-rule:nonzero;fill:rgb(100%,100%,100%);fill-opacity:1;" d="M 7.082031 7.917969 C 6.667969 7.917969 6.667969 8.332031 6.667969 8.332031 L 6.667969 10 L 4.167969 10 L 4.167969 8.332031 C 4.167969 8.332031 4.15625 7.917969 3.742188 7.917969 C 3.324219 7.917969 3.332031 8.332031 3.332031 8.332031 L 3.332031 11.667969 C 3.332031 11.667969 3.332031 12.5 4.167969 12.5 L 6.667969 12.5 C 7.5 12.5 7.5 11.667969 7.5 11.667969 L 7.5 8.332031 C 7.5 8.332031 7.5 7.917969 7.082031 7.917969 Z M 7.082031 7.917969 "/>
<path style=" stroke:none;fill-rule:nonzero;fill:rgb(100%,100%,100%);fill-opacity:1;" d="M 11.667969 4.167969 L 7.917969 4.167969 L 7.917969 2.082031 C 7.917969 2.082031 7.917969 1.667969 7.5 1.667969 C 7.082031 1.667969 7.082031 2.082031 7.082031 2.082031 L 7.082031 4.167969 C 4.582031 4.167969 4.582031 6.667969 4.582031 6.667969 L 4.582031 7.082031 C 4.582031 7.5 5 7.5 5 7.5 L 5.832031 7.5 C 5.832031 7.5 6.25 7.5 6.25 7.082031 L 6.25 6.667969 C 6.25 5.832031 7.082031 5.832031 7.082031 5.832031 L 11.667969 5.832031 C 12.082031 5.832031 12.082031 5.417969 12.082031 5.417969 L 12.082031 4.582031 C 12.082031 4.582031 12.082031 4.167969 11.667969 4.167969 Z M 11.667969 4.167969 "/>
<path style=" stroke:none;fill-rule:nonzero;fill:rgb(100%,100%,100%);fill-opacity:1;" d="M 6.667969 2.082031 L 5.832031 2.082031 C 5.601562 2.082031 5.417969 2.269531 5.417969 2.5 C 5.417969 2.730469 5.601562 2.917969 5.832031 2.917969 L 6.667969 2.917969 C 6.898438 2.917969 7.082031 2.730469 7.082031 2.5 C 7.082031 2.269531 6.898438 2.082031 6.667969 2.082031 Z M 8.332031 2.917969 L 9.167969 2.917969 C 9.398438 2.917969 9.582031 2.730469 9.582031 2.5 C 9.582031 2.269531 9.398438 2.082031 9.167969 2.082031 L 8.332031 2.082031 C 8.101562 2.082031 7.917969 2.269531 7.917969 2.5 C 7.917969 2.730469 8.101562 2.917969 8.332031 2.917969 Z M 8.332031 2.917969 "/>
<path style=" stroke:none;fill-rule:nonzero;fill:rgb(86.666667%,18.039216%,26.666667%);fill-opacity:1;" d="M 7.5 0 C 3.359375 0 0 3.359375 0 7.5 C 0 11.640625 3.359375 15 7.5 15 C 11.640625 15 15 11.640625 15 7.5 C 15 3.359375 11.640625 0 7.5 0 Z M 14.167969 7.5 C 14.167969 9.152344 13.5625 10.664062 12.566406 11.828125 L 3.171875 2.433594 C 4.335938 1.4375 5.847656 0.832031 7.5 0.832031 C 11.183594 0.832031 14.167969 3.816406 14.167969 7.5 Z M 0.832031 7.5 C 0.832031 5.847656 1.4375 4.335938 2.433594 3.171875 L 11.828125 12.566406 C 10.664062 13.5625 9.152344 14.167969 7.5 14.167969 C 3.816406 14.167969 0.832031 11.183594 0.832031 7.5 Z M 0.832031 7.5 "/>
</g>
</svg>
