<?xml version="1.0" encoding="UTF-8"?>
<svg xmlns="http://www.w3.org/2000/svg" xmlns:xlink="http://www.w3.org/1999/xlink" width="15pt" height="15pt" viewBox="0 0 15 15" version="1.1">
<g id="surface1">
<path style=" stroke:none;fill-rule:nonzero;fill:rgb(13.333333%,40%,60%);fill-opacity:1;" d="M 15 13.332031 C 15 14.253906 14.253906 15 13.332031 15 L 1.667969 15 C 0.746094 15 0 14.253906 0 13.332031 L 0 1.667969 C 0 0.746094 0.746094 0 1.667969 0 L 13.332031 0 C 14.253906 0 15 0.746094 15 1.667969 Z M 15 13.332031 "/>
<path style=" stroke:none;fill-rule:nonzero;fill:rgb(100%,100%,100%);fill-opacity:1;" d="M 11.164062 6.554688 L 8.230469 4.71875 C 8.542969 4.453125 8.75 4.027344 8.75 3.542969 C 8.75 2.734375 8.191406 2.082031 7.5 2.082031 C 6.808594 2.082031 6.25 2.734375 6.25 3.542969 C 6.25 4.027344 6.457031 4.453125 6.769531 4.71875 L 3.835938 6.554688 C 3.542969 6.734375 3.453125 7.121094 3.636719 7.414062 C 3.820312 7.707031 4.203125 7.796875 4.496094 7.613281 L 5.832031 6.777344 L 5.832031 13.125 C 5.832031 13.46875 6.113281 13.75 6.457031 13.75 C 6.804688 13.75 7.082031 13.46875 7.082031 13.125 L 7.082031 10 C 7.082031 9.769531 7.269531 9.582031 7.5 9.582031 C 7.730469 9.582031 7.917969 9.769531 7.917969 10 L 7.917969 13.125 C 7.917969 13.46875 8.195312 13.75 8.542969 13.75 C 8.886719 13.75 9.167969 13.46875 9.167969 13.125 L 9.167969 6.777344 L 10.503906 7.613281 C 10.605469 7.679688 10.71875 7.707031 10.832031 7.707031 C 11.042969 7.707031 11.246094 7.605469 11.363281 7.414062 C 11.546875 7.121094 11.457031 6.734375 11.164062 6.554688 Z M 11.164062 6.554688 "/>
</g>
</svg>
