<?xml version="1.0" encoding="UTF-8"?>
<svg xmlns="http://www.w3.org/2000/svg" xmlns:xlink="http://www.w3.org/1999/xlink" width="15pt" height="15pt" viewBox="0 0 15 15" version="1.1">
<g id="surface1">
<path style=" stroke:none;fill-rule:nonzero;fill:rgb(13.333333%,40%,60%);fill-opacity:1;" d="M 0 1.667969 C 0 0 1.667969 0 1.667969 0 L 13.332031 0 C 13.332031 0 15 0 15 1.667969 L 15 13.332031 C 15 13.332031 15 15 13.332031 15 L 1.667969 15 C 1.667969 15 0 15 0 13.332031 Z M 0 1.667969 "/>
<path style=" stroke:none;fill-rule:nonzero;fill:rgb(100%,100%,100%);fill-opacity:1;" d="M 13.75 3.75 L 9.167969 3.75 L 9.167969 1.25 C 9.167969 1.25 9.167969 0.832031 8.75 0.832031 C 8.332031 0.832031 8.332031 1.25 8.332031 1.25 L 8.332031 3.75 C 5 3.75 5 6.667969 5 6.667969 L 5 7.5 C 5 7.917969 5.417969 7.917969 5.417969 7.917969 L 6.667969 7.917969 C 6.667969 7.917969 7.082031 7.917969 7.082031 7.5 L 7.082031 6.667969 C 7.082031 5.832031 7.917969 5.832031 7.917969 5.832031 L 13.75 5.832031 C 14.167969 5.832031 14.167969 5.417969 14.167969 5.417969 L 14.167969 4.167969 C 14.167969 4.167969 14.167969 3.75 13.75 3.75 Z M 13.75 3.75 "/>
<path style=" stroke:none;fill-rule:nonzero;fill:rgb(100%,100%,100%);fill-opacity:1;" d="M 7.707031 1.25 L 6.457031 1.25 C 6.113281 1.25 5.832031 1.53125 5.832031 1.875 C 5.832031 2.21875 6.113281 2.5 6.457031 2.5 L 7.707031 2.5 C 8.054688 2.5 8.332031 2.21875 8.332031 1.875 C 8.332031 1.53125 8.054688 1.25 7.707031 1.25 Z M 9.792969 2.5 L 11.042969 2.5 C 11.386719 2.5 11.667969 2.21875 11.667969 1.875 C 11.667969 1.53125 11.386719 1.25 11.042969 1.25 L 9.792969 1.25 C 9.445312 1.25 9.167969 1.53125 9.167969 1.875 C 9.167969 2.21875 9.445312 2.5 9.792969 2.5 Z M 9.792969 2.5 "/>
<path style=" stroke:none;fill-rule:nonzero;fill:rgb(100%,100%,100%);fill-opacity:1;" d="M 8.332031 8.332031 C 7.917969 8.332031 7.917969 8.75 7.917969 8.75 L 7.917969 10.832031 L 4.167969 10.832031 L 4.167969 8.75 C 4.167969 8.75 4.167969 8.332031 3.75 8.332031 C 3.332031 8.332031 3.332031 8.75 3.332031 8.75 L 3.332031 13.332031 C 3.332031 13.332031 3.332031 14.167969 4.167969 14.167969 L 7.917969 14.167969 C 8.75 14.167969 8.75 13.332031 8.75 13.332031 L 8.75 8.75 C 8.75 8.75 8.75 8.332031 8.332031 8.332031 Z M 8.332031 8.332031 "/>
</g>
</svg>
