<?xml version="1.0" encoding="UTF-8"?>
<svg xmlns="http://www.w3.org/2000/svg" xmlns:xlink="http://www.w3.org/1999/xlink" width="15pt" height="15pt" viewBox="0 0 15 15" version="1.1">
<g id="surface1">
<path style=" stroke:none;fill-rule:nonzero;fill:rgb(13.333333%,40%,60%);fill-opacity:1;" d="M 15 13.332031 C 15 14.253906 14.253906 15 13.332031 15 L 1.667969 15 C 0.746094 15 0 14.253906 0 13.332031 L 0 1.667969 C 0 0.746094 0.746094 0 1.667969 0 L 13.332031 0 C 14.253906 0 15 0.746094 15 1.667969 Z M 15 13.332031 "/>
<path style=" stroke:none;fill-rule:nonzero;fill:rgb(100%,100%,100%);fill-opacity:1;" d="M 0.707031 5.585938 C 0.679688 5.464844 0.667969 5.402344 0.667969 5.273438 C 0.667969 4.980469 0.917969 4.667969 1.320312 4.667969 C 1.761719 4.667969 1.972656 4.925781 2.054688 5.328125 L 2.832031 9.222656 L 2.851562 9.222656 L 4.042969 5.207031 C 4.144531 4.878906 4.417969 4.667969 4.757812 4.667969 C 5.097656 4.667969 5.371094 4.878906 5.472656 5.207031 L 6.664062 9.222656 L 6.683594 9.222656 L 7.464844 5.328125 C 7.546875 4.925781 7.757812 4.667969 8.195312 4.667969 C 8.601562 4.667969 8.847656 4.980469 8.847656 5.273438 C 8.847656 5.402344 8.839844 5.464844 8.808594 5.585938 L 7.644531 10.589844 C 7.554688 10.976562 7.253906 11.304688 6.738281 11.304688 C 6.289062 11.304688 5.941406 11.011719 5.832031 10.636719 L 4.765625 7.097656 L 4.75 7.097656 L 3.683594 10.636719 C 3.574219 11.011719 3.226562 11.304688 2.777344 11.304688 C 2.265625 11.304688 1.960938 10.976562 1.871094 10.589844 Z M 12.230469 4.613281 C 12.898438 4.613281 14.199219 4.832031 14.199219 5.640625 C 14.199219 5.96875 13.972656 6.253906 13.632812 6.253906 C 13.257812 6.253906 13 5.933594 12.230469 5.933594 C 11.09375 5.933594 10.503906 6.894531 10.503906 8.011719 C 10.503906 9.105469 11.101562 10.039062 12.230469 10.039062 C 13 10.039062 13.3125 9.65625 13.6875 9.65625 C 14.101562 9.65625 14.292969 10.066406 14.292969 10.277344 C 14.292969 11.15625 12.90625 11.359375 12.230469 11.359375 C 10.367188 11.359375 9.074219 9.882812 9.074219 7.984375 C 9.074219 6.078125 10.359375 4.613281 12.230469 4.613281 Z M 12.230469 4.613281 "/>
</g>
</svg>
