<?xml version="1.0" encoding="UTF-8"?>
<svg xmlns="http://www.w3.org/2000/svg" xmlns:xlink="http://www.w3.org/1999/xlink" width="15pt" height="15pt" viewBox="0 0 15 15" version="1.1">
<g id="surface1">
<path style=" stroke:none;fill-rule:nonzero;fill:rgb(100%,80%,30.196078%);fill-opacity:1;" d="M 8.652344 14.421875 C 8.015625 15.058594 6.984375 15.058594 6.347656 14.421875 L 0.578125 8.652344 C -0.0585938 8.015625 -0.0585938 6.984375 0.578125 6.347656 L 6.347656 0.578125 C 6.984375 -0.0585938 8.015625 -0.0585938 8.652344 0.578125 L 14.421875 6.347656 C 15.058594 6.984375 15.058594 8.015625 14.421875 8.652344 Z M 8.652344 14.421875 "/>
<path style=" stroke:none;fill-rule:nonzero;fill:rgb(0%,0%,0%);fill-opacity:1;" d="M 8.121094 13.710938 C 7.777344 14.054688 7.222656 14.054688 6.878906 13.710938 L 1.289062 8.121094 C 0.945312 7.777344 0.945312 7.222656 1.289062 6.878906 L 6.878906 1.289062 C 7.222656 0.945312 7.777344 0.945312 8.121094 1.289062 L 13.710938 6.878906 C 14.054688 7.222656 14.054688 7.777344 13.710938 8.121094 Z M 8.121094 13.710938 "/>
<path style=" stroke:none;fill-rule:nonzero;fill:rgb(100%,80%,30.196078%);fill-opacity:1;" d="M 7.808594 12.777344 C 7.640625 12.953125 7.359375 12.953125 7.191406 12.777344 L 2.21875 7.808594 C 2.050781 7.640625 2.046875 7.359375 2.21875 7.191406 L 7.191406 2.21875 C 7.359375 2.050781 7.640625 2.050781 7.808594 2.21875 L 12.777344 7.191406 C 12.953125 7.359375 12.949219 7.640625 12.777344 7.808594 Z M 7.808594 12.777344 "/>
<path style=" stroke:none;fill-rule:nonzero;fill:rgb(0%,0%,0%);fill-opacity:1;" d="M 11.128906 7.203125 L 9.621094 5.695312 C 9.847656 5.546875 10 5.292969 10 5 C 10 4.539062 9.625 4.167969 9.167969 4.167969 C 8.707031 4.167969 8.332031 4.539062 8.332031 5 C 8.332031 5.292969 8.484375 5.550781 8.714844 5.699219 L 7.371094 7.039062 L 6.449219 6.808594 C 6.582031 6.660156 6.667969 6.464844 6.667969 6.25 C 6.667969 5.789062 6.292969 5.417969 5.832031 5.417969 C 5.375 5.417969 5 5.789062 5 6.25 C 5 6.527344 5.136719 6.773438 5.347656 6.925781 L 3.917969 8 C 3.730469 8.136719 3.695312 8.398438 3.832031 8.582031 C 3.914062 8.691406 4.039062 8.75 4.167969 8.75 C 4.253906 8.75 4.339844 8.722656 4.417969 8.667969 L 5.140625 8.125 L 4.558594 9.867188 C 4.484375 10.085938 4.601562 10.324219 4.820312 10.394531 C 4.867188 10.410156 4.910156 10.417969 4.953125 10.417969 C 5.128906 10.417969 5.289062 10.304688 5.347656 10.132812 L 5.796875 8.785156 L 6.273438 10.136719 C 6.351562 10.355469 6.585938 10.46875 6.804688 10.390625 C 7.023438 10.316406 7.136719 10.078125 7.058594 9.859375 L 6.273438 7.621094 L 7.398438 7.902344 C 7.539062 7.941406 7.691406 7.898438 7.792969 7.792969 L 8.570312 7.019531 L 7.925781 9.910156 C 7.875 10.132812 8.019531 10.355469 8.242188 10.40625 C 8.46875 10.457031 8.691406 10.316406 8.742188 10.089844 L 9.167969 8.171875 L 9.59375 10.089844 C 9.636719 10.285156 9.808594 10.417969 10 10.417969 C 10.03125 10.417969 10.058594 10.414062 10.089844 10.40625 C 10.316406 10.355469 10.457031 10.132812 10.40625 9.910156 L 9.765625 7.019531 L 10.539062 7.792969 C 10.703125 7.957031 10.964844 7.957031 11.128906 7.792969 C 11.289062 7.632812 11.289062 7.367188 11.128906 7.203125 Z M 11.128906 7.203125 "/>
</g>
</svg>
