<?xml version="1.0" encoding="UTF-8"?>
<svg xmlns="http://www.w3.org/2000/svg" xmlns:xlink="http://www.w3.org/1999/xlink" width="15pt" height="15pt" viewBox="0 0 15 15" version="1.1">
<g id="surface1">
<path style=" stroke:none;fill-rule:nonzero;fill:rgb(96.862745%,87.058824%,80.784314%);fill-opacity:1;" d="M 4.167969 2.082031 C 3.75 2.5 4.167969 2.917969 4.167969 3.332031 C 4.167969 3.75 5 3.332031 5 3.332031 C 5 3.332031 5.417969 2.917969 5.832031 3.75 C 6.25 4.582031 7.5 4.167969 7.082031 3.332031 C 6.667969 2.5 5.417969 2.917969 5.417969 2.082031 C 5.417969 1.25 4.167969 2.082031 4.167969 2.082031 Z M 4.167969 2.082031 "/>
<path style=" stroke:none;fill-rule:nonzero;fill:rgb(93.333333%,76.078431%,67.843137%);fill-opacity:1;" d="M 7.917969 6.667969 C 7.917969 6.667969 6.667969 7.5 6.667969 7.917969 C 6.667969 8.332031 8.332031 9.582031 8.75 10 C 9.167969 10.417969 10 10.417969 9.582031 9.582031 C 9.167969 8.75 7.917969 6.667969 7.917969 6.667969 Z M 7.917969 6.667969 "/>
<path style=" stroke:none;fill-rule:nonzero;fill:rgb(16.078431%,18.431373%,20%);fill-opacity:1;" d="M 5.976562 1.207031 C 5.667969 0.921875 4.785156 0.789062 4.34375 1.3125 C 3.96875 1.320312 3.898438 1.691406 3.964844 1.882812 C 4.023438 2.039062 4.417969 2.003906 4.574219 2.285156 C 4.628906 2.195312 4.617188 2.039062 4.585938 1.957031 C 4.734375 2.054688 4.738281 2.378906 5.265625 2.488281 C 5.777344 2.59375 5.773438 3.027344 5.773438 3.027344 C 5.773438 3.027344 6 2.863281 6.132812 2.628906 C 6.390625 2.183594 6.320312 1.523438 5.976562 1.207031 Z M 5.976562 1.207031 "/>
<path style=" stroke:none;fill-rule:nonzero;fill:rgb(77.647059%,22.352941%,0%);fill-opacity:1;" d="M 8.597656 9.59375 C 8.597656 9.59375 9.085938 9.921875 9.414062 9.433594 C 9.742188 8.941406 9.984375 10.167969 9.984375 10.167969 C 9.984375 10.167969 8.917969 11.226562 8.101562 11.386719 C 7.28125 11.546875 7.609375 11.058594 7.941406 10.570312 Z M 8.597656 9.59375 "/>
<path style=" stroke:none;fill-rule:nonzero;fill:rgb(16.078431%,18.431373%,20%);fill-opacity:1;" d="M 2.917969 9.167969 C 1.304688 9.167969 0 10.472656 0 12.082031 C 0 13.695312 1.304688 15 2.917969 15 C 4.527344 15 5.832031 13.695312 5.832031 12.082031 C 5.832031 10.472656 4.527344 9.167969 2.917969 9.167969 Z M 2.917969 14.167969 C 1.765625 14.167969 0.832031 13.234375 0.832031 12.082031 C 0.832031 10.933594 1.765625 10 2.917969 10 C 4.066406 10 5 10.933594 5 12.082031 C 5 13.234375 4.066406 14.167969 2.917969 14.167969 Z M 12.082031 9.167969 C 10.472656 9.167969 9.167969 10.472656 9.167969 12.082031 C 9.167969 13.695312 10.472656 15 12.082031 15 C 13.695312 15 15 13.695312 15 12.082031 C 15 10.472656 13.695312 9.167969 12.082031 9.167969 Z M 12.082031 14.167969 C 10.933594 14.167969 10 13.234375 10 12.082031 C 10 10.933594 10.933594 10 12.082031 10 C 13.234375 10 14.167969 10.933594 14.167969 12.082031 C 14.167969 13.234375 13.234375 14.167969 12.082031 14.167969 Z M 12.082031 14.167969 "/>
<path style=" stroke:none;fill-rule:nonzero;fill:rgb(66.666667%,72.156863%,76.078431%);fill-opacity:1;" d="M 9.167969 8.332031 C 9.167969 8.101562 8.964844 7.917969 8.714844 7.917969 L 4.203125 7.917969 C 3.953125 7.917969 3.75 8.101562 3.75 8.332031 C 3.75 8.5625 3.953125 8.75 4.203125 8.75 L 8.714844 8.75 C 8.964844 8.75 9.167969 8.5625 9.167969 8.332031 Z M 12.5 12.082031 C 12.5 11.851562 12.3125 11.667969 12.082031 11.667969 L 7.5 11.667969 C 7.269531 11.667969 7.082031 11.851562 7.082031 12.082031 C 7.082031 12.3125 7.269531 12.5 7.5 12.5 L 12.082031 12.5 C 12.3125 12.5 12.5 12.3125 12.5 12.082031 Z M 12.5 12.082031 "/>
<path style=" stroke:none;fill-rule:nonzero;fill:rgb(66.666667%,72.156863%,76.078431%);fill-opacity:1;" d="M 8.84375 7.082031 L 7.109375 11.941406 C 7.03125 12.160156 7.144531 12.398438 7.359375 12.476562 C 7.40625 12.492188 7.453125 12.5 7.5 12.5 C 7.671875 12.5 7.832031 12.394531 7.890625 12.222656 L 9.726562 7.082031 Z M 8.84375 7.082031 "/>
<path style=" stroke:none;fill-rule:nonzero;fill:rgb(66.666667%,72.156863%,76.078431%);fill-opacity:1;" d="M 12.082031 12.5 C 11.945312 12.5 11.8125 12.433594 11.730469 12.308594 L 8.816406 7.722656 C 8.691406 7.53125 8.75 7.273438 8.941406 7.148438 C 9.136719 7.023438 9.394531 7.082031 9.519531 7.277344 L 12.433594 11.859375 C 12.558594 12.054688 12.5 12.3125 12.308594 12.433594 C 12.238281 12.480469 12.160156 12.5 12.082031 12.5 Z M 7.917969 10.722656 L 4.421875 8.003906 C 4.242188 7.863281 3.980469 7.894531 3.835938 8.078125 C 3.695312 8.257812 3.730469 8.519531 3.910156 8.660156 L 7.660156 11.578125 C 7.738281 11.636719 7.828125 11.667969 7.917969 11.667969 Z M 7.917969 10.722656 "/>
<path style=" stroke:none;fill-rule:nonzero;fill:rgb(66.666667%,72.156863%,76.078431%);fill-opacity:1;" d="M 2.917969 12.5 C 2.875 12.5 2.828125 12.492188 2.785156 12.476562 C 2.566406 12.40625 2.449219 12.171875 2.523438 11.953125 L 3.675781 8.484375 L 2.25 7.417969 C 2.066406 7.277344 2.027344 7.015625 2.167969 6.832031 C 2.304688 6.648438 2.566406 6.613281 2.75 6.75 L 4.65625 8.179688 L 3.3125 12.214844 C 3.253906 12.390625 3.089844 12.5 2.917969 12.5 Z M 2.917969 12.5 "/>
<path style=" stroke:none;fill-rule:nonzero;fill:rgb(16.078431%,18.431373%,20%);fill-opacity:1;" d="M 10.992188 7.917969 C 10.980469 7.917969 10.96875 7.914062 10.957031 7.914062 L 8.59375 7.621094 C 8.4375 7.601562 8.324219 7.464844 8.335938 7.308594 C 8.34375 7.152344 8.472656 7.03125 8.628906 7.03125 C 8.644531 7.03125 10.324219 7.023438 11.125 6.488281 C 11.226562 6.417969 11.367188 6.421875 11.46875 6.5 C 11.566406 6.578125 11.609375 6.707031 11.566406 6.828125 L 11.273438 7.714844 C 11.234375 7.835938 11.117188 7.917969 10.992188 7.917969 Z M 4.582031 7.5 L 2.5 7.5 C 2.269531 7.5 2.082031 7.3125 2.082031 7.082031 C 2.082031 6.851562 2.269531 6.667969 2.5 6.667969 L 4.582031 6.667969 C 4.8125 6.667969 5 6.851562 5 7.082031 C 5 7.3125 4.8125 7.5 4.582031 7.5 Z M 4.582031 7.5 "/>
<path style=" stroke:none;fill-rule:nonzero;fill:rgb(77.647059%,22.352941%,0%);fill-opacity:1;" d="M 9.167969 5.417969 L 7.5 6.667969 L 8.75 7.917969 Z M 9.167969 5.417969 "/>
<path style=" stroke:none;fill-rule:nonzero;fill:rgb(96.862745%,87.058824%,80.784314%);fill-opacity:1;" d="M 8.332031 7.082031 C 8.332031 7.082031 7.5 8.332031 7.5 8.75 C 7.5 9.167969 7.917969 10.417969 7.917969 11.667969 C 7.917969 12.917969 8.75 12.917969 8.75 12.5 C 8.75 12.082031 9.410156 10.242188 8.75 9.582031 C 8.332031 9.167969 9.582031 7.917969 9.582031 7.917969 Z M 6.535156 5.539062 L 5.390625 5.214844 C 5.203125 6.027344 4.128906 7.082031 3.75 7.082031 C 3.332031 7.082031 2.917969 7.082031 2.917969 7.5 C 2.917969 7.917969 2.917969 7.917969 3.75 7.917969 C 4.582031 7.917969 5.417969 7.082031 5.832031 6.667969 C 6.105469 6.394531 6.378906 5.933594 6.535156 5.539062 Z M 6.535156 5.539062 "/>
<path style=" stroke:none;fill-rule:nonzero;fill:rgb(86.666667%,33.333333%,12.156863%);fill-opacity:1;" d="M 9.167969 5.417969 L 7.917969 7.082031 L 9.582031 8.332031 C 9.582031 8.332031 11.667969 6.25 11.667969 5.417969 C 11.667969 4.582031 10.417969 4.167969 10.417969 4.167969 Z M 9.167969 5.417969 "/>
<path style=" stroke:none;fill-rule:nonzero;fill:rgb(98.039216%,45.490196%,24.313725%);fill-opacity:1;" d="M 8.75 2.917969 C 7.5 2.5 6.421875 2.742188 5.832031 3.332031 C 5.417969 3.75 5.417969 4.167969 5.417969 5 C 5.417969 5.074219 5.402344 5.152344 5.386719 5.230469 L 6.527344 5.554688 C 6.613281 5.34375 6.667969 5.144531 6.667969 5 C 6.667969 4.582031 7.082031 4.582031 7.5 5 C 7.917969 5.417969 8.332031 5.832031 8.75 5.832031 C 9.167969 5.832031 11.25 4.167969 11.25 4.167969 C 10 3.75 9.539062 3.179688 8.75 2.917969 Z M 8.75 2.917969 "/>
<path style=" stroke:none;fill-rule:nonzero;fill:rgb(86.666667%,33.333333%,12.156863%);fill-opacity:1;" d="M 7.917969 12.082031 C 7.917969 12.082031 8.332031 12.5 8.75 12.082031 C 9.167969 11.667969 9.167969 12.917969 9.167969 12.917969 C 9.167969 12.917969 7.917969 13.75 7.082031 13.75 C 6.25 13.75 6.667969 13.332031 7.082031 12.917969 Z M 4.582031 0.832031 C 5.417969 0.417969 7.082031 0.832031 6.25 1.667969 C 5.832031 2.082031 3.332031 2.5 3.332031 2.5 C 3.332031 2.082031 3.75 1.25 4.582031 0.832031 Z M 4.582031 0.832031 "/>
</g>
</svg>
