<?xml version="1.0" encoding="UTF-8"?>
<svg xmlns="http://www.w3.org/2000/svg" xmlns:xlink="http://www.w3.org/1999/xlink" width="15pt" height="15pt" viewBox="0 0 15 15" version="1.1">
<g id="surface1">
<path style=" stroke:none;fill-rule:nonzero;fill:rgb(91.764706%,34.901961%,43.137255%);fill-opacity:1;" d="M 2.917969 10 C 3.730469 10 4.429688 10.472656 4.773438 11.15625 L 6.222656 10.429688 C 5.621094 9.191406 4.351562 8.332031 2.882812 8.332031 C 2.339844 8.332031 1.824219 8.453125 1.359375 8.660156 L 2.054688 10.191406 C 2.320312 10.070312 2.609375 10 2.917969 10 Z M 12.082031 10 C 12.695312 10 13.238281 10.269531 13.621094 10.6875 L 14.828125 9.589844 C 14.148438 8.820312 13.15625 8.332031 12.046875 8.332031 C 10.558594 8.332031 9.277344 9.214844 8.683594 10.480469 L 10.203125 11.195312 C 10.539062 10.492188 11.25 10 12.082031 10 Z M 12.082031 10 "/>
<path style=" stroke:none;fill-rule:nonzero;fill:rgb(16.078431%,18.431373%,20%);fill-opacity:1;" d="M 2.917969 9.167969 C 1.304688 9.167969 0 10.472656 0 12.082031 C 0 13.695312 1.304688 15 2.917969 15 C 4.527344 15 5.832031 13.695312 5.832031 12.082031 C 5.832031 10.472656 4.527344 9.167969 2.917969 9.167969 Z M 2.917969 14.167969 C 1.765625 14.167969 0.832031 13.234375 0.832031 12.082031 C 0.832031 10.933594 1.765625 10 2.917969 10 C 4.066406 10 5 10.933594 5 12.082031 C 5 13.234375 4.066406 14.167969 2.917969 14.167969 Z M 12.082031 9.167969 C 10.472656 9.167969 9.167969 10.472656 9.167969 12.082031 C 9.167969 13.695312 10.472656 15 12.082031 15 C 13.695312 15 15 13.695312 15 12.082031 C 15 10.472656 13.695312 9.167969 12.082031 9.167969 Z M 12.082031 14.167969 C 10.933594 14.167969 10 13.234375 10 12.082031 C 10 10.933594 10.933594 10 12.082031 10 C 13.234375 10 14.167969 10.933594 14.167969 12.082031 C 14.167969 13.234375 13.234375 14.167969 12.082031 14.167969 Z M 12.082031 14.167969 "/>
<path style=" stroke:none;fill-rule:nonzero;fill:rgb(86.666667%,18.039216%,26.666667%);fill-opacity:1;" d="M 12.492188 12.050781 C 12.492188 12.023438 12.484375 11.996094 12.476562 11.96875 C 12.46875 11.941406 12.460938 11.914062 12.445312 11.890625 C 12.441406 11.878906 12.441406 11.871094 12.433594 11.859375 L 9.519531 7.277344 C 9.394531 7.082031 9.136719 7.023438 8.941406 7.148438 C 8.816406 7.226562 8.757812 7.363281 8.757812 7.5 L 5 7.5 C 4.769531 7.5 4.582031 7.6875 4.582031 7.917969 C 4.582031 8.148438 4.769531 8.332031 5 8.332031 L 9.167969 8.332031 C 9.179688 8.332031 9.1875 8.328125 9.199219 8.328125 L 11.324219 11.667969 L 7.5 11.667969 C 7.269531 11.667969 7.082031 11.851562 7.082031 12.082031 C 7.082031 12.3125 7.269531 12.5 7.5 12.5 L 12.082031 12.5 C 12.132812 12.5 12.179688 12.488281 12.226562 12.472656 C 12.242188 12.464844 12.253906 12.460938 12.265625 12.453125 C 12.28125 12.445312 12.292969 12.441406 12.308594 12.433594 C 12.320312 12.425781 12.328125 12.414062 12.339844 12.40625 C 12.363281 12.386719 12.382812 12.367188 12.398438 12.34375 C 12.417969 12.324219 12.429688 12.304688 12.441406 12.28125 C 12.457031 12.257812 12.464844 12.234375 12.472656 12.210938 C 12.484375 12.183594 12.488281 12.15625 12.492188 12.125 C 12.492188 12.109375 12.5 12.097656 12.5 12.082031 C 12.5 12.070312 12.496094 12.0625 12.492188 12.050781 Z M 12.492188 12.050781 "/>
<path style=" stroke:none;fill-rule:nonzero;fill:rgb(86.666667%,18.039216%,26.666667%);fill-opacity:1;" d="M 8.992188 6.667969 L 7.785156 10.046875 L 5.3125 7.226562 C 5.160156 7.054688 4.898438 7.035156 4.726562 7.1875 C 4.554688 7.339844 4.535156 7.601562 4.6875 7.773438 L 7.464844 10.949219 L 7.109375 11.941406 C 7.03125 12.160156 7.144531 12.398438 7.359375 12.476562 C 7.40625 12.492188 7.453125 12.5 7.5 12.5 C 7.671875 12.5 7.832031 12.394531 7.890625 12.222656 L 9.878906 6.667969 Z M 8.992188 6.667969 "/>
<path style=" stroke:none;fill-rule:nonzero;fill:rgb(86.666667%,18.039216%,26.666667%);fill-opacity:1;" d="M 2.917969 12.5 C 2.855469 12.5 2.789062 12.484375 2.730469 12.457031 C 2.523438 12.351562 2.441406 12.101562 2.542969 11.898438 L 3.820312 9.351562 C 3.828125 9.339844 4.582031 8.1875 4.582031 7.082031 C 4.582031 5.734375 3.628906 5.398438 3.617188 5.394531 C 3.398438 5.324219 3.28125 5.085938 3.355469 4.867188 C 3.425781 4.648438 3.664062 4.53125 3.882812 4.605469 C 3.945312 4.625 5.417969 5.140625 5.417969 7.082031 C 5.417969 8.363281 4.652344 9.601562 4.527344 9.789062 L 3.289062 12.269531 C 3.214844 12.414062 3.070312 12.5 2.917969 12.5 Z M 2.917969 12.5 "/>
<path style=" stroke:none;fill-rule:nonzero;fill:rgb(16.078431%,18.431373%,20%);fill-opacity:1;" d="M 6.089844 5.691406 C 6.066406 5.691406 6.042969 5.691406 6.019531 5.6875 L 3.519531 5.269531 C 3.292969 5.234375 3.140625 5.019531 3.175781 4.789062 C 3.214844 4.5625 3.425781 4.410156 3.65625 4.449219 L 6.15625 4.863281 C 6.382812 4.902344 6.535156 5.117188 6.5 5.34375 C 6.464844 5.546875 6.289062 5.691406 6.089844 5.691406 Z M 10.992188 7.082031 C 10.980469 7.082031 10.96875 7.082031 10.957031 7.082031 L 8.59375 6.785156 C 8.4375 6.765625 8.324219 6.628906 8.335938 6.472656 C 8.34375 6.316406 8.472656 6.195312 8.628906 6.195312 C 8.644531 6.195312 10.324219 6.191406 11.125 5.65625 C 11.226562 5.585938 11.367188 5.589844 11.46875 5.667969 C 11.566406 5.742188 11.609375 5.875 11.566406 5.996094 L 11.273438 6.882812 C 11.234375 7.003906 11.117188 7.082031 10.992188 7.082031 Z M 10.992188 7.082031 "/>
<path style=" stroke:none;fill-rule:nonzero;fill:rgb(40%,45.882353%,49.803922%);fill-opacity:1;" d="M 8.332031 12.082031 C 8.332031 12.542969 7.960938 12.917969 7.5 12.917969 C 7.039062 12.917969 6.667969 12.542969 6.667969 12.082031 C 6.667969 11.625 7.039062 11.25 7.5 11.25 C 7.960938 11.25 8.332031 11.625 8.332031 12.082031 Z M 8.332031 12.082031 "/>
</g>
</svg>
