<?xml version="1.0" encoding="UTF-8"?>
<svg xmlns="http://www.w3.org/2000/svg" xmlns:xlink="http://www.w3.org/1999/xlink" width="15pt" height="15pt" viewBox="0 0 15 15" version="1.1">
<g id="surface1">
<path style=" stroke:none;fill-rule:nonzero;fill:rgb(16.078431%,18.431373%,20%);fill-opacity:1;" d="M 7.503906 14.574219 L 7.484375 14.578125 C 7.492188 14.550781 7.5 14.5 7.5 14.421875 C 7.5 14.292969 7.433594 14.058594 7.417969 14.023438 C 7.398438 13.992188 7.378906 13.964844 7.335938 13.976562 C 7.304688 13.988281 7.050781 14.113281 6.890625 14.121094 C 6.589844 14.132812 6.445312 13.863281 6.445312 13.863281 C 6.445312 13.863281 6.28125 13.957031 6.148438 14.035156 C 6.015625 14.113281 5.859375 14.226562 5.746094 14.296875 C 5.652344 14.355469 5.539062 14.382812 5.425781 14.398438 C 5.3125 14.410156 5.21875 14.40625 5.191406 14.410156 C 5.164062 14.410156 4.933594 14.382812 4.925781 14.613281 L 4.925781 14.664062 L 4.902344 14.65625 C 4.902344 14.65625 4.882812 14.726562 4.882812 14.738281 C 4.878906 14.753906 4.871094 14.761719 4.902344 14.777344 C 4.929688 14.796875 5.058594 14.851562 5.222656 14.894531 C 5.386719 14.933594 5.652344 14.996094 5.855469 14.996094 C 6.058594 14.996094 6.234375 14.953125 6.335938 14.929688 C 6.4375 14.90625 6.652344 14.859375 6.671875 14.867188 C 6.695312 14.878906 6.722656 14.949219 6.746094 14.96875 C 6.769531 14.992188 7.417969 14.9375 7.460938 14.925781 C 7.507812 14.917969 7.523438 14.878906 7.523438 14.859375 L 7.523438 14.589844 C 7.523438 14.578125 7.515625 14.570312 7.503906 14.574219 Z M 12.066406 13.007812 L 11.855469 12.832031 C 11.847656 12.824219 11.835938 12.828125 11.832031 12.835938 L 11.820312 12.855469 C 11.804688 12.832031 11.773438 12.792969 11.710938 12.738281 C 11.613281 12.65625 11.386719 12.550781 11.347656 12.542969 C 11.308594 12.53125 11.277344 12.53125 11.257812 12.574219 C 11.246094 12.605469 11.175781 12.882812 11.074219 13.011719 C 10.886719 13.253906 10.582031 13.1875 10.582031 13.1875 L 10.515625 13.53125 C 10.488281 13.6875 10.476562 13.882812 10.457031 14.015625 C 10.4375 14.128906 10.386719 14.234375 10.320312 14.332031 C 10.257812 14.429688 10.191406 14.496094 10.175781 14.519531 C 10.160156 14.542969 9.984375 14.703125 10.15625 14.863281 L 10.199219 14.894531 L 10.175781 14.90625 C 10.175781 14.90625 10.21875 14.96875 10.226562 14.980469 C 10.234375 14.988281 10.238281 15 10.269531 14.992188 C 10.304688 14.980469 10.429688 14.917969 10.570312 14.816406 C 10.710938 14.71875 10.933594 14.550781 11.066406 14.394531 C 11.203125 14.234375 11.285156 14.074219 11.335938 13.976562 C 11.382812 13.882812 11.488281 13.683594 11.511719 13.675781 C 11.53125 13.664062 11.605469 13.691406 11.636719 13.6875 C 11.667969 13.683594 12.054688 13.144531 12.078125 13.101562 C 12.101562 13.058594 12.078125 13.019531 12.066406 13.007812 Z M 12.066406 13.007812 "/>
<path style=" stroke:none;fill-rule:nonzero;fill:rgb(60.784314%,41.568627%,28.627451%);fill-opacity:1;" d="M 8.042969 5.101562 C 8.429688 5.5 9.316406 6.304688 9.335938 6.402344 C 9.441406 6.910156 9.59375 7.488281 9.554688 7.839844 C 9.527344 8.097656 9.710938 8.382812 9.785156 8.5 C 9.875 8.648438 10.109375 8.875 10.257812 8.859375 C 10.351562 8.847656 10.496094 8.679688 10.417969 8.59375 C 10.269531 8.425781 10.292969 8.171875 10.203125 7.945312 C 10.015625 7.484375 10.183594 6.613281 9.925781 6.042969 C 9.820312 5.808594 9.621094 5.335938 8.75 4.53125 C 8.535156 4.722656 8.042969 5.101562 8.042969 5.101562 Z M 8.042969 5.101562 "/>
<path style=" stroke:none;fill-rule:nonzero;fill:rgb(16.470588%,40.392157%,59.215686%);fill-opacity:1;" d="M 6.691406 14.25 C 6.164062 14.296875 5.921875 14.152344 5.976562 14.078125 C 6.042969 13.984375 6.027344 13.914062 6.03125 13.855469 C 6.042969 12.835938 5.832031 11.359375 5.832031 11.359375 C 5.832031 11.214844 5.835938 11.019531 5.964844 10.707031 C 6.289062 9.921875 7.609375 7.503906 7.609375 7.503906 C 7.839844 7.105469 8.347656 6.964844 8.746094 7.191406 C 9.144531 7.421875 9.214844 7.777344 9.058594 8.332031 C 8.757812 9.375 7.820312 10.664062 7.429688 11.445312 C 7.523438 12.328125 7.359375 13.050781 7.445312 13.886719 C 7.457031 14.007812 7.21875 14.207031 6.691406 14.25 Z M 6.691406 14.25 "/>
<path style=" stroke:none;fill-rule:nonzero;fill:rgb(25.882353%,53.72549%,75.686275%);fill-opacity:1;" d="M 11.164062 13.304688 C 11.015625 13.535156 10.761719 13.695312 10.5 13.652344 C 9.972656 12.851562 8.433594 11.4375 8.433594 11.4375 C 8.335938 11.332031 8.199219 11.191406 8.078125 10.878906 C 7.765625 10.089844 7.035156 7.429688 7.035156 7.429688 C 6.921875 6.984375 7.191406 6.527344 7.636719 6.417969 C 8.085938 6.304688 8.382812 6.511719 8.652344 7.019531 C 9.160156 7.976562 9.382812 9.558594 9.644531 10.390625 C 10.421875 11.042969 10.636719 11.890625 11.425781 12.535156 C 11.398438 12.894531 11.316406 13.074219 11.164062 13.304688 Z M 11.164062 13.304688 "/>
<path style=" stroke:none;fill-rule:nonzero;fill:rgb(68.627451%,49.411765%,34.117647%);fill-opacity:1;" d="M 7.75 0.589844 C 7.078125 0.390625 6.128906 0.8125 6.039062 1.578125 C 5.914062 2.648438 6.589844 3.488281 7.246094 3.359375 C 7.9375 3.226562 8.351562 3.035156 8.570312 2.292969 C 8.792969 1.554688 8.425781 0.792969 7.75 0.589844 Z M 7.75 0.589844 "/>
<path style=" stroke:none;fill-rule:nonzero;fill:rgb(68.627451%,49.411765%,34.117647%);fill-opacity:1;" d="M 8.402344 2.496094 C 9.253906 1.300781 6.980469 1.605469 6.980469 1.605469 C 6.550781 1.65625 6.910156 2.351562 6.738281 2.761719 C 6.625 3.046875 7.222656 3.140625 7.222656 3.140625 C 7.222656 3.140625 7.492188 3.113281 7.535156 3.4375 L 7.535156 3.441406 C 7.546875 3.523438 7.546875 3.625 7.515625 3.757812 C 7.378906 4.429688 8.292969 4.757812 8.429688 4.085938 C 8.484375 3.816406 8.433594 3.59375 8.378906 3.386719 L 8.371094 3.367188 C 8.289062 3.058594 8.191406 2.789062 8.402344 2.496094 Z M 8.402344 2.496094 "/>
<path style=" stroke:none;fill-rule:nonzero;fill:rgb(37.647059%,20.784314%,16.470588%);fill-opacity:1;" d="M 8.589844 0.746094 C 8.230469 0.339844 7.121094 0.046875 6.484375 0.65625 C 6.003906 0.613281 5.859375 1.082031 5.921875 1.335938 C 5.972656 1.542969 6.484375 1.550781 6.648438 1.933594 C 6.726562 1.828125 6.734375 1.625 6.703125 1.515625 C 6.878906 1.660156 6.84375 2.074219 7.503906 2.289062 C 8.144531 2.492188 8.082031 3.046875 8.082031 3.046875 C 8.082031 3.046875 8.390625 2.867188 8.59375 2.585938 C 8.984375 2.050781 8.984375 1.195312 8.589844 0.746094 Z M 8.589844 0.746094 "/>
<path style=" stroke:none;fill-rule:nonzero;fill:rgb(98.039216%,45.490196%,24.313725%);fill-opacity:1;" d="M 9.582031 8.332031 C 9.582031 8.332031 9.582031 8.75 8.75 8.75 L 6.710938 8.75 C 7.125 6.84375 6.671875 6.316406 6.808594 5.175781 C 6.960938 3.945312 7.761719 3.1875 8.257812 3.367188 C 9.015625 3.640625 9.378906 4.464844 9.480469 5.808594 C 9.578125 7.148438 9.582031 8.332031 9.582031 8.332031 Z M 9.582031 8.332031 "/>
<path style=" stroke:none;fill-rule:nonzero;fill:rgb(68.627451%,49.411765%,34.117647%);fill-opacity:1;" d="M 7.394531 4.914062 C 7.328125 5.496094 7.261719 6.761719 7.195312 6.839844 C 6.847656 7.265625 6.480469 7.773438 6.164062 7.976562 C 5.933594 8.125 5.824219 8.464844 5.777344 8.605469 C 5.71875 8.777344 5.6875 9.121094 5.800781 9.234375 C 5.871094 9.304688 6.105469 9.308594 6.125 9.1875 C 6.160156 8.953125 6.386719 8.804688 6.511719 8.578125 C 6.761719 8.117188 7.585938 7.671875 7.882812 7.082031 C 8.003906 6.839844 8.253906 6.363281 8.332031 5.113281 C 8.035156 5.066406 7.394531 4.914062 7.394531 4.914062 Z M 7.394531 4.914062 "/>
</g>
</svg>
