<?xml version="1.0" encoding="UTF-8"?>
<svg xmlns="http://www.w3.org/2000/svg" xmlns:xlink="http://www.w3.org/1999/xlink" width="15pt" height="15pt" viewBox="0 0 15 15" version="1.1">
<g id="surface1">
<path style=" stroke:none;fill-rule:nonzero;fill:rgb(13.333333%,40%,60%);fill-opacity:1;" d="M 15 13.332031 C 15 14.253906 14.253906 15 13.332031 15 L 1.667969 15 C 0.746094 15 0 14.253906 0 13.332031 L 0 1.667969 C 0 0.746094 0.746094 0 1.667969 0 L 13.332031 0 C 14.253906 0 15 0.746094 15 1.667969 Z M 15 13.332031 "/>
<path style=" stroke:none;fill-rule:nonzero;fill:rgb(96.078431%,97.254902%,98.039216%);fill-opacity:1;" d="M 10.832031 7.082031 L 10.417969 7.082031 L 10.417969 12.5 L 10.832031 12.5 C 11.292969 12.5 11.667969 12.125 11.667969 11.667969 L 11.667969 7.917969 C 11.667969 7.457031 11.292969 7.082031 10.832031 7.082031 Z M 4.167969 7.082031 C 3.707031 7.082031 3.332031 7.457031 3.332031 7.917969 L 3.332031 11.667969 C 3.332031 12.125 3.707031 12.5 4.167969 12.5 L 4.582031 12.5 L 4.582031 7.082031 Z M 9.167969 7.082031 L 9.167969 6.25 C 9.167969 5.789062 8.792969 5.417969 8.332031 5.417969 L 6.667969 5.417969 C 6.207031 5.417969 5.832031 5.789062 5.832031 6.25 L 5.832031 7.082031 L 5.417969 7.082031 L 5.417969 12.5 L 9.582031 12.5 L 9.582031 7.082031 Z M 6.667969 6.667969 C 6.667969 6.4375 6.851562 6.25 7.082031 6.25 L 7.917969 6.25 C 8.148438 6.25 8.332031 6.4375 8.332031 6.667969 L 8.332031 7.082031 L 6.667969 7.082031 Z M 6.667969 6.667969 "/>
<path style=" stroke:none;fill-rule:nonzero;fill:rgb(96.078431%,97.254902%,98.039216%);fill-opacity:1;" d="M 13.332031 4.167969 L 1.667969 4.167969 C 1.207031 4.167969 0.832031 4.539062 0.832031 5 L 0.832031 13.332031 C 0.832031 13.792969 1.207031 14.167969 1.667969 14.167969 L 13.332031 14.167969 C 13.792969 14.167969 14.167969 13.792969 14.167969 13.332031 L 14.167969 5 C 14.167969 4.539062 13.792969 4.167969 13.332031 4.167969 Z M 13.332031 12.917969 C 13.332031 13.148438 13.148438 13.332031 12.917969 13.332031 L 2.082031 13.332031 C 1.851562 13.332031 1.667969 13.148438 1.667969 12.917969 L 1.667969 5.417969 C 1.667969 5.1875 1.851562 5 2.082031 5 L 12.917969 5 C 13.148438 5 13.332031 5.1875 13.332031 5.417969 Z M 10 1.667969 L 7.355469 1.667969 C 7.121094 1.175781 6.621094 0.832031 6.042969 0.832031 C 5.234375 0.832031 4.582031 1.484375 4.582031 2.292969 C 4.582031 3.097656 5.234375 3.75 6.042969 3.75 C 6.777344 3.75 7.378906 3.207031 7.480469 2.5 L 8.195312 2.5 C 8.296875 2.886719 8.507812 3.332031 8.75 3.332031 C 8.992188 3.332031 9.203125 2.886719 9.304688 2.5 L 9.582031 2.5 C 9.582031 2.960938 9.769531 3.332031 10 3.332031 C 10.230469 3.332031 10.417969 2.917969 10.417969 2.082031 C 10.417969 1.621094 10.230469 1.667969 10 1.667969 Z M 5.625 2.917969 C 5.28125 2.917969 5 2.636719 5 2.292969 C 5 1.945312 5.28125 1.667969 5.625 1.667969 C 5.96875 1.667969 6.25 1.945312 6.25 2.292969 C 6.25 2.636719 5.96875 2.917969 5.625 2.917969 Z M 5.625 2.917969 "/>
</g>
</svg>
