<?xml version="1.0" encoding="UTF-8"?>
<svg xmlns="http://www.w3.org/2000/svg" xmlns:xlink="http://www.w3.org/1999/xlink" width="15pt" height="15pt" viewBox="0 0 15 15" version="1.1">
<g id="surface1">
<path style=" stroke:none;fill-rule:nonzero;fill:rgb(13.333333%,40%,60%);fill-opacity:1;" d="M 15 13.332031 C 15 14.253906 14.253906 15 13.332031 15 L 1.667969 15 C 0.746094 15 0 14.253906 0 13.332031 L 0 1.667969 C 0 0.746094 0.746094 0 1.667969 0 L 13.332031 0 C 14.253906 0 15 0.746094 15 1.667969 Z M 15 13.332031 "/>
<path style=" stroke:none;fill-rule:nonzero;fill:rgb(96.078431%,97.254902%,98.039216%);fill-opacity:1;" d="M 12.082031 3.332031 L 11.25 3.332031 L 11.25 10.832031 L 12.082031 10.832031 C 12.542969 10.832031 12.917969 10.460938 12.917969 10 L 12.917969 4.167969 C 12.917969 3.707031 12.542969 3.332031 12.082031 3.332031 Z M 2.917969 3.332031 C 2.457031 3.332031 2.082031 3.707031 2.082031 4.167969 L 2.082031 10 C 2.082031 10.460938 2.457031 10.832031 2.917969 10.832031 L 3.75 10.832031 L 3.75 3.332031 Z M 9.582031 3.332031 L 9.582031 2.082031 C 9.582031 1.621094 9.210938 1.25 8.75 1.25 L 6.25 1.25 C 5.789062 1.25 5.417969 1.621094 5.417969 2.082031 L 5.417969 3.332031 L 4.582031 3.332031 L 4.582031 10.832031 L 10.417969 10.832031 L 10.417969 3.332031 Z M 6.25 2.5 C 6.25 2.269531 6.4375 2.082031 6.667969 2.082031 L 8.332031 2.082031 C 8.5625 2.082031 8.75 2.269531 8.75 2.5 L 8.75 3.332031 L 6.25 3.332031 Z M 13.75 11.667969 L 1.25 11.667969 C 1.019531 11.667969 0.832031 11.851562 0.832031 12.082031 C 0.832031 12.3125 1.019531 12.5 1.25 12.5 L 1.667969 12.5 C 1.667969 12.960938 2.039062 13.332031 2.5 13.332031 C 2.960938 13.332031 3.332031 12.960938 3.332031 12.5 L 4.167969 12.5 C 4.167969 12.960938 4.539062 13.332031 5 13.332031 C 5.460938 13.332031 5.832031 12.960938 5.832031 12.5 L 6.667969 12.5 C 6.667969 12.960938 7.039062 13.332031 7.5 13.332031 C 7.960938 13.332031 8.332031 12.960938 8.332031 12.5 L 9.167969 12.5 C 9.167969 12.960938 9.539062 13.332031 10 13.332031 C 10.460938 13.332031 10.832031 12.960938 10.832031 12.5 L 11.667969 12.5 C 11.667969 12.960938 12.039062 13.332031 12.5 13.332031 C 12.960938 13.332031 13.332031 12.960938 13.332031 12.5 L 13.75 12.5 C 13.980469 12.5 14.167969 12.3125 14.167969 12.082031 C 14.167969 11.851562 13.980469 11.667969 13.75 11.667969 Z M 13.75 11.667969 "/>
</g>
</svg>
