<?xml version="1.0" encoding="UTF-8"?>
<svg xmlns="http://www.w3.org/2000/svg" xmlns:xlink="http://www.w3.org/1999/xlink" width="15pt" height="15pt" viewBox="0 0 15 15" version="1.1">
<g id="surface1">
<path style=" stroke:none;fill-rule:nonzero;fill:rgb(13.333333%,40%,60%);fill-opacity:1;" d="M 15 13.332031 C 15 14.253906 14.253906 15 13.332031 15 L 1.667969 15 C 0.746094 15 0 14.253906 0 13.332031 L 0 1.667969 C 0 0.746094 0.746094 0 1.667969 0 L 13.332031 0 C 14.253906 0 15 0.746094 15 1.667969 Z M 15 13.332031 "/>
<path style=" stroke:none;fill-rule:nonzero;fill:rgb(96.078431%,97.254902%,98.039216%);fill-opacity:1;" d="M 13.679688 3.75 C 13.679688 5.128906 12.558594 6.25 11.179688 6.25 C 9.796875 6.25 8.679688 5.128906 8.679688 3.75 Z M 13.679688 1.25 L 8.679688 1.25 C 8.449219 1.25 8.261719 1.4375 8.261719 1.667969 C 8.261719 1.742188 8.28125 1.902344 8.316406 2.085938 C 8.296875 2.085938 8.28125 2.082031 8.261719 2.082031 C 7.800781 2.082031 7.429688 2.269531 7.429688 2.5 C 7.429688 2.730469 7.800781 2.917969 8.261719 2.917969 C 8.414062 2.917969 8.546875 2.914062 8.667969 2.914062 C 8.671875 2.914062 8.675781 2.917969 8.679688 2.917969 L 13.679688 2.917969 C 13.910156 2.917969 14.09375 1.898438 14.09375 1.667969 C 14.09375 1.4375 13.910156 1.25 13.679688 1.25 Z M 13.601562 7.574219 L 8.679688 12.5 C 8.679688 12.960938 9.050781 13.332031 9.511719 13.332031 L 12.84375 13.332031 C 13.304688 13.332031 13.679688 12.960938 13.679688 12.5 L 13.679688 7.917969 C 13.679688 7.792969 13.652344 7.679688 13.601562 7.574219 Z M 12.429688 7.082031 L 9.511719 7.082031 C 9.488281 7.082031 9.464844 7.089844 9.441406 7.089844 C 8.894531 7.0625 8.277344 7.140625 8.089844 7.328125 L 5.660156 9.828125 C 5.335938 10.152344 5.335938 10.679688 5.660156 11.007812 C 5.984375 11.332031 6.515625 11.332031 6.839844 11.007812 L 8.679688 9.113281 L 8.679688 10.832031 Z M 12.429688 7.082031 "/>
<path style=" stroke:none;fill-rule:nonzero;fill:rgb(96.078431%,97.254902%,98.039216%);fill-opacity:1;" d="M 6.25 11.667969 L 2.5 11.667969 L 2.5 7.917969 C 2.5 7.457031 2.125 7.082031 1.667969 7.082031 C 1.207031 7.082031 0.832031 7.457031 0.832031 7.917969 L 0.832031 11.667969 C 0.832031 12.125 1.207031 12.5 1.667969 12.5 C 1.667969 12.960938 2.039062 13.332031 2.5 13.332031 L 6.25 13.332031 C 6.710938 13.332031 7.082031 12.960938 7.082031 12.5 C 7.082031 12.039062 6.710938 11.667969 6.25 11.667969 Z M 6.25 11.667969 "/>
</g>
</svg>
