<?xml version="1.0" encoding="UTF-8"?>
<svg xmlns="http://www.w3.org/2000/svg" xmlns:xlink="http://www.w3.org/1999/xlink" width="15pt" height="15pt" viewBox="0 0 15 15" version="1.1">
<g id="surface1">
<path style=" stroke:none;fill-rule:nonzero;fill:rgb(95.686275%,56.470588%,4.705882%);fill-opacity:1;" d="M 4.582031 0 C 2.742188 0 1.25 1.492188 1.25 3.332031 L 1.25 6.667969 L 2.082031 6.667969 L 2.082031 3.332031 C 2.082031 1.953125 3.203125 0.832031 4.582031 0.832031 C 5.964844 0.832031 7.082031 1.953125 7.082031 3.332031 L 7.082031 6.667969 L 7.917969 6.667969 L 7.917969 3.332031 C 7.917969 1.492188 6.425781 0 4.582031 0 Z M 4.582031 0 "/>
<path style=" stroke:none;fill-rule:nonzero;fill:rgb(86.666667%,18.039216%,26.666667%);fill-opacity:1;" d="M 0.417969 3.332031 L 1.25 4.167969 L 2.082031 3.332031 L 2.917969 4.167969 L 3.75 3.332031 L 4.582031 4.167969 L 5.417969 3.332031 L 6.25 4.167969 L 7.082031 3.332031 L 7.917969 4.167969 L 8.75 3.332031 L 8.75 12.917969 L 0.417969 12.917969 Z M 0.417969 3.332031 "/>
<path style=" stroke:none;fill-rule:nonzero;fill:rgb(100%,80%,30.196078%);fill-opacity:1;" d="M 10.417969 2.082031 C 8.574219 2.082031 7.082031 3.574219 7.082031 5.417969 L 7.082031 8.75 L 7.917969 8.75 L 7.917969 5.417969 C 7.917969 4.035156 9.035156 2.917969 10.417969 2.917969 C 11.796875 2.917969 12.917969 4.035156 12.917969 5.417969 L 12.917969 8.75 L 13.75 8.75 L 13.75 5.417969 C 13.75 3.574219 12.257812 2.082031 10.417969 2.082031 Z M 10.417969 2.082031 "/>
<path style=" stroke:none;fill-rule:nonzero;fill:rgb(45.490196%,30.588235%,66.666667%);fill-opacity:1;" d="M 6.25 5.417969 L 7.082031 6.25 L 7.917969 5.417969 L 8.75 6.25 L 9.582031 5.417969 L 10.417969 6.25 L 11.25 5.417969 L 12.082031 6.25 L 12.917969 5.417969 L 13.75 6.25 L 14.582031 5.417969 L 14.582031 15 L 6.25 15 Z M 6.25 5.417969 "/>
</g>
</svg>
