<?xml version="1.0" encoding="UTF-8"?>
<svg xmlns="http://www.w3.org/2000/svg" xmlns:xlink="http://www.w3.org/1999/xlink" width="15pt" height="15pt" viewBox="0 0 15 15" version="1.1">
<g id="surface1">
<path style=" stroke:none;fill-rule:nonzero;fill:rgb(75.686275%,41.176471%,30.980392%);fill-opacity:1;" d="M 0.417969 11.667969 L 14.582031 11.667969 L 14.582031 13.75 L 0.417969 13.75 Z M 0.417969 11.667969 "/>
<path style=" stroke:none;fill-rule:nonzero;fill:rgb(75.686275%,41.176471%,30.980392%);fill-opacity:1;" d="M 15 14.582031 C 15 14.8125 14.8125 15 14.582031 15 C 14.351562 15 14.167969 14.8125 14.167969 14.582031 L 14.167969 8.75 C 14.167969 8.519531 14.351562 8.332031 14.582031 8.332031 C 14.8125 8.332031 15 8.519531 15 8.75 Z M 0 14.582031 C 0 14.8125 0.1875 15 0.417969 15 C 0.648438 15 0.832031 14.8125 0.832031 14.582031 L 0.832031 5.417969 C 0.832031 5.1875 0.648438 5 0.417969 5 C 0.1875 5 0 5.1875 0 5.417969 Z M 0 14.582031 "/>
<path style=" stroke:none;fill-rule:nonzero;fill:rgb(13.333333%,40%,60%);fill-opacity:1;" d="M 13.332031 9.582031 L 1.667969 9.582031 C 1.207031 9.582031 0.832031 9.957031 0.832031 10.417969 L 0.832031 12.082031 L 14.167969 12.082031 L 14.167969 10.417969 C 14.167969 9.957031 13.792969 9.582031 13.332031 9.582031 Z M 13.332031 9.582031 "/>
<path style=" stroke:none;fill-rule:nonzero;fill:rgb(33.333333%,67.45098%,93.333333%);fill-opacity:1;" d="M 13.332031 9.582031 L 1.667969 9.582031 C 1.207031 9.582031 0.832031 9.957031 0.832031 10.417969 L 0.832031 12.082031 L 14.167969 12.082031 L 14.167969 10.417969 C 14.167969 9.957031 13.792969 9.582031 13.332031 9.582031 Z M 13.332031 9.582031 "/>
<path style=" stroke:none;fill-rule:nonzero;fill:rgb(36.078431%,56.862745%,23.137255%);fill-opacity:1;" d="M 0.886719 8.308594 C 0.777344 8.753906 1.503906 9.316406 2.511719 9.558594 C 3.515625 9.804688 4.421875 9.640625 4.53125 9.191406 C 4.640625 8.746094 3.910156 8.183594 2.90625 7.941406 C 1.898438 7.695312 0.996094 7.859375 0.886719 8.308594 Z M 0.886719 8.308594 "/>
</g>
</svg>
