<?xml version="1.0" encoding="UTF-8"?>
<svg xmlns="http://www.w3.org/2000/svg" xmlns:xlink="http://www.w3.org/1999/xlink" width="15pt" height="15pt" viewBox="0 0 15 15" version="1.1">
<g id="surface1">
<path style=" stroke:none;fill-rule:nonzero;fill:rgb(13.333333%,40%,60%);fill-opacity:1;" d="M 15 13.332031 C 15 14.253906 14.253906 15 13.332031 15 L 1.667969 15 C 0.746094 15 0 14.253906 0 13.332031 L 0 1.667969 C 0 0.746094 0.746094 0 1.667969 0 L 13.332031 0 C 14.253906 0 15 0.746094 15 1.667969 Z M 15 13.332031 "/>
<path style=" stroke:none;fill-rule:nonzero;fill:rgb(96.078431%,97.254902%,98.039216%);fill-opacity:1;" d="M 12.917969 4.582031 C 12.917969 5.964844 11.796875 7.082031 10.417969 7.082031 C 9.035156 7.082031 7.917969 5.964844 7.917969 4.582031 Z M 12.917969 2.082031 L 7.917969 2.082031 C 7.6875 2.082031 7.5 2.269531 7.5 2.5 C 7.5 2.574219 7.519531 2.738281 7.554688 2.917969 C 7.535156 2.917969 7.519531 2.917969 7.5 2.917969 C 7.039062 2.917969 6.667969 3.101562 6.667969 3.332031 C 6.667969 3.5625 7.039062 3.75 7.5 3.75 C 7.652344 3.75 7.785156 3.75 7.90625 3.746094 C 7.910156 3.746094 7.914062 3.75 7.917969 3.75 L 12.917969 3.75 C 13.148438 3.75 13.332031 2.730469 13.332031 2.5 C 13.332031 2.269531 13.148438 2.082031 12.917969 2.082031 Z M 6.25 10.832031 C 4.160156 10.832031 3.101562 9.277344 3.058594 9.210938 C 2.800781 8.828125 2.90625 8.3125 3.289062 8.054688 C 3.671875 7.800781 4.1875 7.90625 4.441406 8.289062 C 4.464844 8.316406 5.070312 9.167969 6.25 9.167969 C 7.4375 9.167969 8.050781 8.296875 8.058594 8.289062 C 8.3125 7.90625 8.828125 7.800781 9.210938 8.058594 C 9.59375 8.3125 9.699219 8.828125 9.445312 9.210938 C 9.398438 9.277344 8.339844 10.832031 6.25 10.832031 Z M 6.25 10.832031 "/>
<path style=" stroke:none;fill-rule:nonzero;fill:rgb(96.078431%,97.254902%,98.039216%);fill-opacity:1;" d="M 11.667969 7.917969 L 8.75 7.917969 C 8.289062 7.917969 7.917969 8.289062 7.917969 8.75 L 7.917969 11.667969 Z M 12.839844 8.410156 L 7.917969 13.332031 C 7.917969 13.792969 8.289062 14.167969 8.75 14.167969 L 12.082031 14.167969 C 12.542969 14.167969 12.917969 13.792969 12.917969 13.332031 L 12.917969 8.75 C 12.917969 8.628906 12.890625 8.511719 12.839844 8.410156 Z M 5 1.265625 L 2.5 1.863281 C 2.4375 1.878906 2.378906 1.914062 2.324219 1.957031 L 4.582031 2.484375 C 4.8125 2.546875 5 2.789062 5 3.019531 L 5 5.433594 C 5.230469 5.367188 5.417969 5.128906 5.417969 4.898438 L 5.417969 1.566406 C 5.417969 1.335938 5.230469 1.203125 5 1.265625 Z M 5 1.265625 "/>
<path style=" stroke:none;fill-rule:nonzero;fill:rgb(96.078431%,97.254902%,98.039216%);fill-opacity:1;" d="M 4.167969 6.980469 C 4.167969 7.210938 3.980469 7.34375 3.75 7.277344 L 1.667969 6.683594 C 1.4375 6.617188 1.25 6.378906 1.25 6.148438 L 1.25 2.816406 C 1.25 2.585938 1.4375 2.453125 1.667969 2.515625 L 3.75 3.113281 C 3.980469 3.179688 4.167969 3.417969 4.167969 3.648438 Z M 4.167969 6.980469 "/>
</g>
</svg>
