<?xml version="1.0" encoding="UTF-8"?>
<svg xmlns="http://www.w3.org/2000/svg" xmlns:xlink="http://www.w3.org/1999/xlink" width="15pt" height="15pt" viewBox="0 0 15 15" version="1.1">
<g id="surface1">
<path style=" stroke:none;fill-rule:nonzero;fill:rgb(100%,50.196078%,26.666667%);fill-opacity:1;" d="M 10.417969 1.199219 L 7.5 0.832031 L 7.5 3.019531 L 10.417969 2.65625 L 9.25 1.925781 Z M 10.417969 1.199219 "/>
<path style=" stroke:none;fill-rule:nonzero;fill:rgb(78.039216%,32.156863%,11.764706%);fill-opacity:1;" d="M 0 15 L 15 15 L 14.167969 14.167969 L 0.832031 14.167969 Z M 0 15 "/>
<path style=" stroke:none;fill-rule:nonzero;fill:rgb(40%,12.941176%,7.45098%);fill-opacity:1;" d="M 7.292969 1.25 C 7.292969 0.417969 7.707031 0.417969 7.707031 1.25 C 7.707031 3.332031 8.125 5 8.125 5 L 6.875 5 C 6.875 5 7.292969 3.332031 7.292969 1.25 Z M 7.292969 1.25 "/>
<path style=" stroke:none;fill-rule:nonzero;fill:rgb(78.039216%,32.156863%,11.764706%);fill-opacity:1;" d="M 11.667969 12.082031 L 11.667969 11.25 L 10 10.441406 L 10 8.75 L 9.167969 7.917969 L 9.117188 7.917969 C 9.117188 7.917969 9.421875 6.265625 8.542969 5.644531 L 8.542969 5 L 8.125 4.582031 L 6.875 4.582031 L 6.457031 5 L 6.457031 5.644531 C 5.578125 6.265625 5.882812 7.917969 5.882812 7.917969 L 5.832031 7.917969 L 5 8.75 L 5 10.441406 L 3.332031 11.25 L 3.332031 12.082031 L 1.667969 12.917969 L 1.667969 14.582031 L 13.332031 14.597656 L 13.332031 12.917969 Z M 11.667969 12.082031 "/>
<path style=" stroke:none;fill-rule:nonzero;fill:rgb(40%,12.941176%,7.45098%);fill-opacity:1;" d="M 8.269531 7.917969 L 6.730469 7.917969 C 6.730469 7.917969 6.472656 5.832031 6.988281 5.832031 L 8.011719 5.832031 C 8.527344 5.832031 8.269531 7.917969 8.269531 7.917969 Z M 8.269531 7.917969 "/>
<path style=" stroke:none;fill-rule:nonzero;fill:rgb(78.039216%,32.156863%,11.764706%);fill-opacity:1;" d="M 4.910156 9.78125 L 4.910156 9.566406 L 4.789062 9.441406 L 4.761719 9.441406 C 4.726562 9.261719 4.667969 8.894531 4.667969 8.46875 C 4.667969 8.226562 4.546875 8.226562 4.546875 8.46875 C 4.546875 8.894531 4.484375 9.261719 4.449219 9.441406 L 4.421875 9.441406 L 4.300781 9.566406 L 4.300781 9.78125 C 4.109375 9.980469 4.179688 10.417969 4.179688 10.417969 L 5.03125 10.417969 C 5.03125 10.417969 5.101562 9.980469 4.910156 9.78125 Z M 10.703125 9.78125 L 10.703125 9.566406 L 10.582031 9.441406 L 10.554688 9.441406 C 10.519531 9.261719 10.460938 8.894531 10.460938 8.46875 C 10.460938 8.226562 10.339844 8.226562 10.339844 8.46875 C 10.339844 8.894531 10.28125 9.261719 10.242188 9.441406 L 10.21875 9.441406 L 10.097656 9.566406 L 10.097656 9.78125 C 9.902344 9.980469 9.972656 10.417969 9.972656 10.417969 L 10.828125 10.417969 C 10.824219 10.417969 10.898438 9.980469 10.703125 9.78125 Z M 12.371094 11.449219 L 12.371094 11.230469 L 12.25 11.109375 L 12.222656 11.109375 C 12.1875 10.929688 12.128906 10.5625 12.128906 10.136719 C 12.128906 9.894531 12.003906 9.894531 12.003906 10.136719 C 12.003906 10.5625 11.945312 10.929688 11.910156 11.109375 L 11.882812 11.109375 L 11.761719 11.230469 L 11.761719 11.449219 C 11.570312 11.644531 11.640625 12.082031 11.640625 12.082031 L 12.492188 12.082031 C 12.492188 12.082031 12.5625 11.644531 12.371094 11.449219 Z M 14.039062 13.53125 L 14.039062 13.316406 L 13.914062 13.191406 L 13.890625 13.191406 C 13.855469 13.011719 13.792969 12.644531 13.792969 12.21875 C 13.792969 11.976562 13.671875 11.976562 13.671875 12.21875 C 13.671875 12.644531 13.613281 13.011719 13.578125 13.191406 L 13.550781 13.191406 L 13.429688 13.316406 L 13.429688 13.53125 C 13.234375 13.730469 13.308594 14.167969 13.308594 14.167969 L 14.160156 14.167969 C 14.160156 14.167969 14.230469 13.730469 14.039062 13.53125 Z M 3.242188 11.449219 L 3.242188 11.230469 L 3.121094 11.109375 L 3.09375 11.109375 C 3.058594 10.929688 3 10.5625 3 10.136719 C 3 9.894531 2.878906 9.894531 2.878906 10.136719 C 2.878906 10.5625 2.820312 10.929688 2.78125 11.109375 L 2.757812 11.109375 L 2.632812 11.230469 L 2.632812 11.449219 C 2.441406 11.644531 2.511719 12.082031 2.511719 12.082031 L 3.363281 12.082031 C 3.363281 12.082031 3.4375 11.644531 3.242188 11.449219 Z M 1.578125 13.53125 L 1.578125 13.316406 L 1.453125 13.191406 L 1.429688 13.191406 C 1.394531 13.011719 1.332031 12.644531 1.332031 12.21875 C 1.332031 11.976562 1.210938 11.976562 1.210938 12.21875 C 1.210938 12.644531 1.152344 13.011719 1.117188 13.191406 L 1.089844 13.191406 L 0.96875 13.316406 L 0.96875 13.53125 C 0.773438 13.730469 0.847656 14.167969 0.847656 14.167969 L 1.699219 14.167969 C 1.699219 14.167969 1.769531 13.730469 1.578125 13.53125 Z M 1.578125 13.53125 "/>
<path style=" stroke:none;fill-rule:nonzero;fill:rgb(100%,50.196078%,26.666667%);fill-opacity:1;" d="M 6.457031 5 L 6.875 4.582031 L 8.125 4.582031 L 8.542969 5 Z M 5 8.75 L 5.832031 7.917969 L 9.167969 7.917969 L 10 8.75 Z M 3.332031 11.25 L 4.167969 10.417969 L 10.832031 10.417969 L 11.667969 11.25 Z M 1.667969 12.917969 L 2.5 12.082031 L 12.5 12.082031 L 13.332031 12.917969 Z M 0 15 L 0.832031 14.167969 L 14.167969 14.167969 L 15 15 Z M 0 15 "/>
<path style=" stroke:none;fill-rule:nonzero;fill:rgb(40%,12.941176%,7.45098%);fill-opacity:1;" d="M 8.75 10.417969 L 6.25 10.417969 C 6.25 10.417969 6.25 8.75 6.875 8.75 L 8.125 8.75 C 8.75 8.75 8.75 10.417969 8.75 10.417969 Z M 9.167969 12.082031 L 5.832031 12.082031 C 5.832031 12.082031 5.832031 11.25 6.667969 11.25 L 8.332031 11.25 C 9.167969 11.25 9.167969 12.082031 9.167969 12.082031 Z M 9.167969 12.082031 "/>
<path style=" stroke:none;fill-rule:nonzero;fill:rgb(16.078431%,18.431373%,20%);fill-opacity:1;" d="M 10 14.167969 L 5 14.167969 C 5 14.167969 5 12.917969 6.25 12.917969 L 8.75 12.917969 C 10 12.917969 10 14.167969 10 14.167969 Z M 10 14.167969 "/>
<path style=" stroke:none;fill-rule:nonzero;fill:rgb(100%,62.745098%,42.352941%);fill-opacity:1;" d="M 8.75 11.25 L 6.25 11.25 C 6.019531 11.25 5.832031 11.0625 5.832031 10.832031 C 5.832031 10.601562 6.019531 10.417969 6.25 10.417969 L 8.75 10.417969 C 8.980469 10.417969 9.167969 10.601562 9.167969 10.832031 C 9.167969 11.0625 8.980469 11.25 8.75 11.25 Z M 9.167969 12.917969 L 5.832031 12.917969 C 5.601562 12.917969 5.417969 12.730469 5.417969 12.5 C 5.417969 12.269531 5.601562 12.082031 5.832031 12.082031 L 9.167969 12.082031 C 9.398438 12.082031 9.582031 12.269531 9.582031 12.5 C 9.582031 12.730469 9.398438 12.917969 9.167969 12.917969 Z M 10 15 L 5 15 C 4.769531 15 4.582031 14.8125 4.582031 14.582031 C 4.582031 14.351562 4.769531 14.167969 5 14.167969 L 10 14.167969 C 10.230469 14.167969 10.417969 14.351562 10.417969 14.582031 C 10.417969 14.8125 10.230469 15 10 15 Z M 10 15 "/>
<path style=" stroke:none;fill-rule:nonzero;fill:rgb(100%,50.196078%,26.666667%);fill-opacity:1;" d="M 8.75 12.917969 L 9.167969 12.917969 L 9.167969 14.167969 L 8.75 14.167969 Z M 5.832031 12.917969 L 6.25 12.917969 L 6.25 14.167969 L 5.832031 14.167969 Z M 5.832031 12.917969 "/>
</g>
</svg>
