<?xml version="1.0" encoding="UTF-8"?>
<svg xmlns="http://www.w3.org/2000/svg" xmlns:xlink="http://www.w3.org/1999/xlink" width="15pt" height="15pt" viewBox="0 0 15 15" version="1.1">
<g id="surface1">
<path style=" stroke:none;fill-rule:nonzero;fill:rgb(80%,83.921569%,86.666667%);fill-opacity:1;" d="M 12.917969 9.167969 L 4.582031 9.167969 L 3.75 4.167969 L 13.75 4.167969 Z M 12.917969 9.167969 "/>
<path style=" stroke:none;fill-rule:nonzero;fill:rgb(40%,45.882353%,49.803922%);fill-opacity:1;" d="M 13.742188 11.25 L 4.578125 11.25 C 4.121094 11.25 3.75 10.878906 3.75 10.421875 C 3.75 9.96875 4.128906 9.582031 4.582031 9.582031 L 12.917969 9.582031 C 13.121094 9.582031 13.292969 9.4375 13.328125 9.234375 L 14.160156 4.234375 C 14.179688 4.113281 14.148438 3.992188 14.066406 3.898438 C 13.988281 3.804688 13.871094 3.75 13.75 3.75 L 4.089844 3.75 L 3.65625 1.179688 C 3.625 0.984375 3.457031 0.851562 3.265625 0.839844 C 3.257812 0.839844 3.253906 0.832031 3.246094 0.832031 L 1.25 0.832031 C 1.019531 0.832031 0.832031 1.019531 0.832031 1.25 C 0.832031 1.480469 1.019531 1.667969 1.25 1.667969 L 2.894531 1.667969 L 4.105469 8.839844 C 3.417969 9.046875 2.917969 9.671875 2.917969 10.421875 C 2.917969 11.339844 3.660156 12.082031 4.578125 12.082031 L 13.742188 12.082031 C 13.972656 12.082031 14.160156 11.898438 14.160156 11.667969 C 14.160156 11.4375 13.972656 11.25 13.742188 11.25 Z M 12.839844 7.082031 L 11.464844 7.082031 L 11.578125 6.25 L 12.980469 6.25 Z M 10.621094 7.082031 L 9.167969 7.082031 L 9.167969 6.25 L 10.734375 6.25 Z M 8.332031 7.082031 L 6.878906 7.082031 L 6.765625 6.25 L 8.332031 6.25 Z M 6.035156 7.082031 L 4.660156 7.082031 L 4.519531 6.25 L 5.921875 6.25 Z M 4.9375 8.75 L 4.796875 7.917969 L 6.152344 7.917969 L 6.265625 8.75 Z M 7.105469 8.75 L 6.992188 7.917969 L 8.332031 7.917969 L 8.332031 8.75 Z M 9.167969 8.75 L 9.167969 7.917969 L 10.507812 7.917969 L 10.394531 8.75 Z M 11.234375 8.75 L 11.351562 7.917969 L 12.703125 7.917969 L 12.5625 8.75 Z M 13.257812 4.582031 L 13.121094 5.417969 L 11.691406 5.417969 L 11.804688 4.582031 Z M 10.964844 4.582031 L 10.851562 5.417969 L 9.167969 5.417969 L 9.167969 4.582031 Z M 8.332031 4.582031 L 8.332031 5.417969 L 6.648438 5.417969 L 6.535156 4.582031 Z M 5.695312 4.582031 L 5.808594 5.417969 L 4.378906 5.417969 L 4.242188 4.582031 Z M 5.695312 4.582031 "/>
<path style=" stroke:none;fill-rule:nonzero;fill:rgb(88.235294%,90.980392%,92.941176%);fill-opacity:1;" d="M 7.082031 12.917969 C 7.082031 13.605469 6.523438 14.167969 5.832031 14.167969 C 5.144531 14.167969 4.582031 13.605469 4.582031 12.917969 C 4.582031 12.226562 5.144531 11.667969 5.832031 11.667969 C 6.523438 11.667969 7.082031 12.226562 7.082031 12.917969 Z M 7.082031 12.917969 "/>
<path style=" stroke:none;fill-rule:nonzero;fill:rgb(16.078431%,18.431373%,20%);fill-opacity:1;" d="M 5.832031 14.582031 C 4.914062 14.582031 4.167969 13.835938 4.167969 12.917969 C 4.167969 11.996094 4.914062 11.25 5.832031 11.25 C 6.753906 11.25 7.5 11.996094 7.5 12.917969 C 7.5 13.835938 6.753906 14.582031 5.832031 14.582031 Z M 5.832031 12.082031 C 5.375 12.082031 5 12.457031 5 12.917969 C 5 13.375 5.375 13.75 5.832031 13.75 C 6.292969 13.75 6.667969 13.375 6.667969 12.917969 C 6.667969 12.457031 6.292969 12.082031 5.832031 12.082031 Z M 5.832031 12.082031 "/>
<path style=" stroke:none;fill-rule:nonzero;fill:rgb(88.235294%,90.980392%,92.941176%);fill-opacity:1;" d="M 12.917969 12.917969 C 12.917969 13.605469 12.355469 14.167969 11.667969 14.167969 C 10.976562 14.167969 10.417969 13.605469 10.417969 12.917969 C 10.417969 12.226562 10.976562 11.667969 11.667969 11.667969 C 12.355469 11.667969 12.917969 12.226562 12.917969 12.917969 Z M 12.917969 12.917969 "/>
<path style=" stroke:none;fill-rule:nonzero;fill:rgb(16.078431%,18.431373%,20%);fill-opacity:1;" d="M 11.667969 14.582031 C 10.746094 14.582031 10 13.835938 10 12.917969 C 10 11.996094 10.746094 11.25 11.667969 11.25 C 12.585938 11.25 13.332031 11.996094 13.332031 12.917969 C 13.332031 13.835938 12.585938 14.582031 11.667969 14.582031 Z M 11.667969 12.082031 C 11.207031 12.082031 10.832031 12.457031 10.832031 12.917969 C 10.832031 13.375 11.207031 13.75 11.667969 13.75 C 12.125 13.75 12.5 13.375 12.5 12.917969 C 12.5 12.457031 12.125 12.082031 11.667969 12.082031 Z M 11.667969 12.082031 "/>
</g>
</svg>
