<?xml version="1.0" encoding="UTF-8"?>
<svg xmlns="http://www.w3.org/2000/svg" xmlns:xlink="http://www.w3.org/1999/xlink" width="15pt" height="15pt" viewBox="0 0 15 15" version="1.1">
<g id="surface1">
<path style=" stroke:none;fill-rule:nonzero;fill:rgb(40%,45.882353%,49.803922%);fill-opacity:1;" d="M 10.757812 4.472656 C 10.667969 4.527344 10.546875 4.496094 10.492188 4.40625 L 9.1875 2.238281 C 9.128906 2.148438 9.160156 2.027344 9.25 1.972656 L 9.277344 1.957031 C 9.371094 1.902344 9.488281 1.933594 9.542969 2.023438 L 10.847656 4.191406 C 10.90625 4.28125 10.875 4.398438 10.785156 4.457031 Z M 10.757812 4.472656 "/>
<path style=" stroke:none;fill-rule:nonzero;fill:rgb(40%,45.882353%,49.803922%);fill-opacity:1;" d="M 10.527344 4.242188 C 10.472656 4.332031 10.503906 4.453125 10.59375 4.507812 L 12.761719 5.8125 C 12.851562 5.867188 12.972656 5.839844 13.027344 5.746094 L 13.042969 5.722656 C 13.097656 5.628906 13.066406 5.511719 12.976562 5.457031 L 10.808594 4.152344 C 10.71875 4.09375 10.601562 4.125 10.542969 4.214844 Z M 10.527344 4.242188 "/>
<path style=" stroke:none;fill-rule:nonzero;fill:rgb(74.509804%,9.803922%,19.215686%);fill-opacity:1;" d="M 5.4375 13.394531 L 3.964844 11.332031 L 3.667969 11.035156 L 1.605469 9.5625 C 1.445312 9.402344 1.179688 9.402344 1.015625 9.5625 L 0.132812 10.445312 C -0.03125 10.609375 -0.0273438 10.875 0.132812 11.035156 L 3.964844 14.867188 C 4.125 15.027344 4.390625 15.027344 4.554688 14.867188 L 5.4375 13.984375 C 5.597656 13.820312 5.597656 13.554688 5.4375 13.394531 Z M 5.4375 13.394531 "/>
<path style=" stroke:none;fill-rule:nonzero;fill:rgb(80%,83.921569%,86.666667%);fill-opacity:1;" d="M 9.667969 7.394531 C 6.753906 10.308594 1.472656 13.875 1.296875 13.703125 C 1.125 13.527344 4.691406 8.246094 7.605469 5.332031 C 10.519531 2.417969 11.28125 2.578125 11.851562 3.148438 C 12.421875 3.71875 12.582031 4.480469 9.667969 7.394531 Z M 9.667969 7.394531 "/>
<path style=" stroke:none;fill-rule:nonzero;fill:rgb(74.509804%,9.803922%,19.215686%);fill-opacity:1;" d="M 13.363281 1.929688 C 12.957031 2.335938 12.5625 2.601562 12.480469 2.519531 C 12.398438 2.4375 12.664062 2.042969 13.070312 1.636719 C 13.476562 1.226562 13.871094 0.964844 13.953125 1.046875 C 14.035156 1.128906 13.773438 1.523438 13.363281 1.929688 Z M 13.363281 1.929688 "/>
<path style=" stroke:none;fill-rule:nonzero;fill:rgb(80%,83.921569%,86.666667%);fill-opacity:1;" d="M 9.976562 7.085938 C 9.652344 7.410156 9.125 7.410156 8.796875 7.085938 L 7.914062 6.203125 C 7.589844 5.875 7.589844 5.347656 7.914062 5.023438 L 11.15625 1.78125 C 11.480469 1.457031 12.496094 0.96875 12.824219 1.292969 L 13.707031 2.175781 C 14.03125 2.503906 13.542969 3.519531 13.21875 3.84375 Z M 9.976562 7.085938 "/>
<path style=" stroke:none;fill-rule:nonzero;fill:rgb(13.333333%,40%,60%);fill-opacity:1;" d="M 11.886719 1.335938 L 13.664062 3.113281 C 13.816406 2.746094 13.886719 2.355469 13.707031 2.175781 L 12.824219 1.292969 C 12.644531 1.113281 12.253906 1.183594 11.886719 1.335938 Z M 11.886719 1.335938 "/>
<path style=" stroke:none;fill-rule:nonzero;fill:rgb(74.509804%,9.803922%,19.215686%);fill-opacity:1;" d="M 13.578125 1.554688 C 13.5 1.636719 13.101562 1.371094 12.695312 0.964844 C 12.289062 0.558594 12.027344 0.164062 12.105469 0.0820312 C 12.1875 0 12.585938 0.265625 12.992188 0.671875 C 13.398438 1.078125 13.660156 1.472656 13.578125 1.554688 Z M 13.578125 1.554688 "/>
<path style=" stroke:none;fill-rule:nonzero;fill:rgb(74.509804%,9.803922%,19.215686%);fill-opacity:1;" d="M 14.925781 2.902344 C 14.84375 2.984375 14.449219 2.71875 14.042969 2.3125 C 13.636719 1.90625 13.371094 1.511719 13.453125 1.429688 C 13.535156 1.347656 13.929688 1.609375 14.335938 2.019531 C 14.746094 2.425781 15.007812 2.820312 14.925781 2.902344 Z M 14.925781 2.902344 "/>
<path style=" stroke:none;fill-rule:nonzero;fill:rgb(40%,45.882353%,49.803922%);fill-opacity:1;" d="M 10.214844 4.210938 L 10.789062 4.785156 C 11.027344 5.027344 11.253906 5.238281 11.324219 5.511719 L 11.347656 5.488281 C 11.742188 5.09375 11.742188 4.453125 11.347656 4.0625 L 10.941406 3.652344 C 10.546875 3.257812 9.90625 3.257812 9.515625 3.652344 L 9.488281 3.675781 C 9.761719 3.746094 9.976562 3.972656 10.214844 4.210938 Z M 10.214844 4.210938 "/>
<path style=" stroke:none;fill-rule:nonzero;fill:rgb(16.078431%,18.431373%,20%);fill-opacity:1;" d="M 9.097656 2.664062 C 8.953125 2.804688 8.722656 2.804688 8.582031 2.664062 L 8.507812 2.585938 C 8.367188 2.445312 8.367188 2.214844 8.507812 2.074219 L 9.171875 1.410156 C 9.3125 1.265625 9.542969 1.265625 9.6875 1.410156 L 9.761719 1.484375 C 9.902344 1.625 9.902344 1.855469 9.761719 1.996094 Z M 12.914062 6.507812 C 12.777344 6.640625 12.5625 6.640625 12.425781 6.507812 L 12.324219 6.402344 C 12.1875 6.269531 12.1875 6.050781 12.324219 5.917969 L 13.015625 5.222656 C 13.148438 5.089844 13.367188 5.089844 13.5 5.222656 L 13.605469 5.328125 C 13.738281 5.460938 13.738281 5.679688 13.605469 5.8125 Z M 12.914062 6.507812 "/>
<path style=" stroke:none;fill-rule:nonzero;fill:rgb(91.764706%,34.901961%,43.137255%);fill-opacity:1;" d="M 1.609375 11.335938 L 1.3125 11.035156 L 0.71875 10.441406 C 0.558594 10.28125 0.296875 10.28125 0.136719 10.441406 L 0.128906 10.449219 C -0.03125 10.609375 -0.03125 10.871094 0.128906 11.03125 L 1.3125 12.214844 L 1.601562 11.921875 L 1.609375 11.917969 L 1.902344 11.625 Z M 4.554688 14.277344 L 3.953125 13.675781 L 3.667969 13.394531 L 3.375 13.097656 L 2.785156 13.6875 L 3.964844 14.867188 C 4.128906 15.027344 4.390625 15.027344 4.554688 14.867188 C 4.714844 14.703125 4.714844 14.441406 4.554688 14.277344 Z M 4.554688 14.277344 "/>
<path style=" stroke:none;fill-rule:nonzero;fill:rgb(74.509804%,9.803922%,19.215686%);fill-opacity:1;" d="M 2.964844 12.28125 C 2.113281 13.132812 1.367188 13.769531 1.296875 13.703125 C 1.230469 13.632812 1.867188 12.886719 2.71875 12.035156 C 3.570312 11.179688 4.320312 10.542969 4.386719 10.613281 C 4.457031 10.679688 3.820312 11.429688 2.964844 12.28125 Z M 14.636719 9.65625 L 5.335938 0.351562 C 5.007812 0.0273438 4.480469 0.0273438 4.15625 0.351562 L 3.097656 1.582031 L 6.527344 6.015625 L 8.984375 8.472656 L 13.410156 11.890625 L 14.636719 10.835938 C 14.964844 10.507812 14.964844 9.980469 14.636719 9.65625 Z M 14.636719 9.65625 "/>
<path style=" stroke:none;fill-rule:nonzero;fill:rgb(91.764706%,34.901961%,43.137255%);fill-opacity:1;" d="M 6.886719 4.371094 L 3.558594 1.046875 L 3.097656 1.582031 L 5.964844 5.289062 Z M 13.945312 11.429688 L 10.421875 7.90625 L 9.476562 8.851562 L 13.410156 11.890625 Z M 13.945312 11.429688 "/>
</g>
</svg>
