<?xml version="1.0" encoding="UTF-8"?>
<svg xmlns="http://www.w3.org/2000/svg" xmlns:xlink="http://www.w3.org/1999/xlink" width="15pt" height="15pt" viewBox="0 0 15 15" version="1.1">
<g id="surface1">
<path style=" stroke:none;fill-rule:nonzero;fill:rgb(36.470588%,56.470588%,25.098039%);fill-opacity:1;" d="M 15 9.582031 L 15 15 L 0 15 L 0 9.582031 Z M 15 9.582031 "/>
<path style=" stroke:none;fill-rule:nonzero;fill:rgb(80%,83.921569%,86.666667%);fill-opacity:1;" d="M 0 10.417969 L 15 10.417969 L 15 12.917969 L 0 12.917969 Z M 0 10.417969 "/>
<path style=" stroke:none;fill-rule:nonzero;fill:rgb(96.078431%,97.254902%,98.039216%);fill-opacity:1;" d="M 4.167969 11.667969 C 4.167969 11.898438 3.980469 12.082031 3.75 12.082031 L 1.25 12.082031 C 1.019531 12.082031 0.832031 11.898438 0.832031 11.667969 C 0.832031 11.4375 1.019531 11.25 1.25 11.25 L 3.75 11.25 C 3.980469 11.25 4.167969 11.4375 4.167969 11.667969 Z M 9.167969 11.667969 C 9.167969 11.898438 8.980469 12.082031 8.75 12.082031 L 6.25 12.082031 C 6.019531 12.082031 5.832031 11.898438 5.832031 11.667969 C 5.832031 11.4375 6.019531 11.25 6.25 11.25 L 8.75 11.25 C 8.980469 11.25 9.167969 11.4375 9.167969 11.667969 Z M 14.167969 11.667969 C 14.167969 11.898438 13.980469 12.082031 13.75 12.082031 L 11.25 12.082031 C 11.019531 12.082031 10.832031 11.898438 10.832031 11.667969 C 10.832031 11.4375 11.019531 11.25 11.25 11.25 L 13.75 11.25 C 13.980469 11.25 14.167969 11.4375 14.167969 11.667969 Z M 14.167969 11.667969 "/>
<path style=" stroke:none;fill-rule:nonzero;fill:rgb(40.392157%,45.882353%,49.803922%);fill-opacity:1;" d="M 8.554688 6.941406 C 8.554688 7.285156 8.277344 7.566406 7.929688 7.566406 C 7.585938 7.566406 7.304688 7.285156 7.304688 6.941406 C 7.304688 6.59375 7.585938 6.316406 7.929688 6.316406 C 8.277344 6.316406 8.554688 6.59375 8.554688 6.941406 Z M 8.554688 6.941406 "/>
<path style=" stroke:none;fill-rule:nonzero;fill:rgb(40.392157%,45.882353%,49.803922%);fill-opacity:1;" d="M 12.496094 5.445312 C 12.496094 5.792969 12.214844 6.070312 11.871094 6.070312 C 11.523438 6.070312 11.246094 5.792969 11.246094 5.445312 C 11.246094 5.101562 11.523438 4.820312 11.871094 4.820312 C 12.214844 4.820312 12.496094 5.101562 12.496094 5.445312 Z M 12.496094 5.445312 "/>
<path style=" stroke:none;fill-rule:nonzero;fill:rgb(36.470588%,67.843137%,92.54902%);fill-opacity:1;" d="M 6.8125 4.722656 C 7.246094 5.179688 10.148438 4.324219 9.179688 3.78125 C 6.238281 1.886719 3.792969 1.910156 4.527344 2.597656 C 5.355469 3.367188 5.90625 3.941406 6.8125 4.722656 Z M 6.8125 4.722656 "/>
<path style=" stroke:none;fill-rule:nonzero;fill:rgb(80%,83.921569%,86.666667%);fill-opacity:1;" d="M 14.570312 3.15625 C 14.742188 3.941406 12.976562 4.78125 12.1875 4.953125 L 5.074219 6.492188 C 4.289062 6.664062 1.261719 6.652344 1.089844 5.863281 C 0.90625 5.023438 2.84375 3.992188 3.632812 3.820312 L 11.570312 2.101562 C 12.359375 1.929688 14.402344 2.371094 14.570312 3.15625 Z M 14.570312 3.15625 "/>
<path style=" stroke:none;fill-rule:nonzero;fill:rgb(40.392157%,45.882353%,49.803922%);fill-opacity:1;" d="M 12.851562 2.160156 C 12.691406 2.316406 12.441406 2.414062 12.285156 2.539062 C 12.058594 2.722656 12.132812 3.304688 12.636719 3.117188 C 13.070312 2.953125 13.441406 2.628906 13.621094 2.378906 C 13.378906 2.285156 13.113281 2.210938 12.851562 2.160156 Z M 12.851562 2.160156 "/>
<path style=" stroke:none;fill-rule:nonzero;fill:rgb(36.470588%,67.843137%,92.54902%);fill-opacity:1;" d="M 1.078125 5.707031 C 1.003906 5.367188 0.527344 3.261719 0.453125 2.921875 C 0.230469 1.898438 1.945312 3.230469 2.851562 4.105469 C 2.105469 4.488281 1.417969 4.90625 1.078125 5.707031 Z M 1.40625 5.796875 C 1.769531 5.480469 3.082031 5.21875 2.410156 6.21875 C 1.453125 7.703125 0.523438 7.878906 0.71875 7.410156 C 0.9375 6.882812 1.152344 6.34375 1.40625 5.796875 Z M 6.511719 5.503906 C 6.71875 4.910156 9.71875 4.488281 9.058594 5.378906 C 7.160156 8.320312 4.925781 9.308594 5.3125 8.382812 C 5.746094 7.339844 6.007812 6.585938 6.511719 5.503906 Z M 6.511719 5.503906 "/>
<path style=" stroke:none;fill-rule:nonzero;fill:rgb(60.392157%,66.666667%,70.588235%);fill-opacity:1;" d="M 11.640625 3.453125 C 11.640625 3.683594 11.457031 3.871094 11.226562 3.871094 C 10.996094 3.871094 10.808594 3.683594 10.808594 3.453125 C 10.808594 3.226562 10.996094 3.039062 11.226562 3.039062 C 11.457031 3.039062 11.640625 3.226562 11.640625 3.453125 Z M 11.640625 3.453125 "/>
<path style=" stroke:none;fill-rule:nonzero;fill:rgb(60.392157%,66.666667%,70.588235%);fill-opacity:1;" d="M 10.421875 3.71875 C 10.421875 3.949219 10.234375 4.136719 10.003906 4.136719 C 9.773438 4.136719 9.585938 3.949219 9.585938 3.71875 C 9.585938 3.488281 9.773438 3.304688 10.003906 3.304688 C 10.234375 3.304688 10.421875 3.488281 10.421875 3.71875 Z M 10.421875 3.71875 "/>
<path style=" stroke:none;fill-rule:nonzero;fill:rgb(60.392157%,66.666667%,70.588235%);fill-opacity:1;" d="M 9.199219 3.984375 C 9.199219 4.214844 9.011719 4.402344 8.78125 4.402344 C 8.550781 4.402344 8.367188 4.214844 8.367188 3.984375 C 8.367188 3.753906 8.550781 3.566406 8.78125 3.566406 C 9.011719 3.566406 9.199219 3.753906 9.199219 3.984375 Z M 9.199219 3.984375 "/>
<path style=" stroke:none;fill-rule:nonzero;fill:rgb(60.392157%,66.666667%,70.588235%);fill-opacity:1;" d="M 7.976562 4.25 C 7.976562 4.480469 7.789062 4.664062 7.5625 4.664062 C 7.332031 4.664062 7.144531 4.480469 7.144531 4.25 C 7.144531 4.019531 7.332031 3.832031 7.5625 3.832031 C 7.789062 3.832031 7.976562 4.019531 7.976562 4.25 Z M 7.976562 4.25 "/>
<path style=" stroke:none;fill-rule:nonzero;fill:rgb(60.392157%,66.666667%,70.588235%);fill-opacity:1;" d="M 6.753906 4.515625 C 6.753906 4.742188 6.570312 4.929688 6.339844 4.929688 C 6.109375 4.929688 5.921875 4.742188 5.921875 4.515625 C 5.921875 4.285156 6.109375 4.097656 6.339844 4.097656 C 6.570312 4.097656 6.753906 4.285156 6.753906 4.515625 Z M 6.753906 4.515625 "/>
<path style=" stroke:none;fill-rule:nonzero;fill:rgb(60.392157%,66.666667%,70.588235%);fill-opacity:1;" d="M 5.535156 4.777344 C 5.535156 5.007812 5.347656 5.195312 5.117188 5.195312 C 4.886719 5.195312 4.699219 5.007812 4.699219 4.777344 C 4.699219 4.546875 4.886719 4.363281 5.117188 4.363281 C 5.347656 4.363281 5.535156 4.546875 5.535156 4.777344 Z M 5.535156 4.777344 "/>
</g>
</svg>
