<?xml version="1.0" encoding="UTF-8"?>
<svg xmlns="http://www.w3.org/2000/svg" xmlns:xlink="http://www.w3.org/1999/xlink" width="15pt" height="15pt" viewBox="0 0 15 15" version="1.1">
<g id="surface1">
<path style=" stroke:none;fill-rule:nonzero;fill:rgb(36.470588%,56.470588%,25.098039%);fill-opacity:1;" d="M 15 9.582031 L 15 15 L 0 15 L 0 9.582031 Z M 15 9.582031 "/>
<path style=" stroke:none;fill-rule:nonzero;fill:rgb(80%,83.921569%,86.666667%);fill-opacity:1;" d="M 0 10.417969 L 15 10.417969 L 15 12.917969 L 0 12.917969 Z M 0 10.417969 "/>
<path style=" stroke:none;fill-rule:nonzero;fill:rgb(96.078431%,97.254902%,98.039216%);fill-opacity:1;" d="M 4.167969 11.667969 C 4.167969 11.898438 3.980469 12.082031 3.75 12.082031 L 1.25 12.082031 C 1.019531 12.082031 0.832031 11.898438 0.832031 11.667969 C 0.832031 11.4375 1.019531 11.25 1.25 11.25 L 3.75 11.25 C 3.980469 11.25 4.167969 11.4375 4.167969 11.667969 Z M 9.167969 11.667969 C 9.167969 11.898438 8.980469 12.082031 8.75 12.082031 L 6.25 12.082031 C 6.019531 12.082031 5.832031 11.898438 5.832031 11.667969 C 5.832031 11.4375 6.019531 11.25 6.25 11.25 L 8.75 11.25 C 8.980469 11.25 9.167969 11.4375 9.167969 11.667969 Z M 14.167969 11.667969 C 14.167969 11.898438 13.980469 12.082031 13.75 12.082031 L 11.25 12.082031 C 11.019531 12.082031 10.832031 11.898438 10.832031 11.667969 C 10.832031 11.4375 11.019531 11.25 11.25 11.25 L 13.75 11.25 C 13.980469 11.25 14.167969 11.4375 14.167969 11.667969 Z M 14.167969 11.667969 "/>
<path style=" stroke:none;fill-rule:nonzero;fill:rgb(40.392157%,45.882353%,49.803922%);fill-opacity:1;" d="M 7.851562 7.089844 C 7.851562 7.433594 7.570312 7.714844 7.226562 7.714844 C 6.882812 7.714844 6.601562 7.433594 6.601562 7.089844 C 6.601562 6.746094 6.882812 6.464844 7.226562 6.464844 C 7.570312 6.464844 7.851562 6.746094 7.851562 7.089844 Z M 7.851562 7.089844 "/>
<path style=" stroke:none;fill-rule:nonzero;fill:rgb(40.392157%,45.882353%,49.803922%);fill-opacity:1;" d="M 12.058594 7.320312 C 12.058594 7.664062 11.78125 7.945312 11.433594 7.945312 C 11.089844 7.945312 10.808594 7.664062 10.808594 7.320312 C 10.808594 6.972656 11.089844 6.695312 11.433594 6.695312 C 11.78125 6.695312 12.058594 6.972656 12.058594 7.320312 Z M 12.058594 7.320312 "/>
<path style=" stroke:none;fill-rule:nonzero;fill:rgb(36.470588%,67.843137%,92.54902%);fill-opacity:1;" d="M 7.105469 4.609375 C 7.3125 5.203125 10.316406 5.59375 9.648438 4.707031 C 7.726562 1.78125 5.480469 0.816406 5.875 1.738281 C 6.316406 2.777344 6.589844 3.527344 7.105469 4.609375 Z M 7.105469 4.609375 "/>
<path style=" stroke:none;fill-rule:nonzero;fill:rgb(80%,83.921569%,86.666667%);fill-opacity:1;" d="M 14.832031 6.320312 C 14.667969 7.109375 12.714844 7.160156 11.925781 6.996094 L 4.796875 5.523438 C 4.007812 5.363281 1.246094 4.125 1.40625 3.335938 C 1.582031 2.492188 3.769531 2.335938 4.558594 2.496094 L 12.515625 4.140625 C 13.304688 4.300781 14.996094 5.53125 14.832031 6.320312 Z M 14.832031 6.320312 "/>
<path style=" stroke:none;fill-rule:nonzero;fill:rgb(40.392157%,45.882353%,49.803922%);fill-opacity:1;" d="M 13.664062 4.710938 C 13.453125 4.789062 13.183594 4.777344 12.992188 4.828125 C 12.710938 4.902344 12.542969 5.46875 13.078125 5.5 C 13.539062 5.527344 14.011719 5.378906 14.277344 5.222656 C 14.09375 5.039062 13.882812 4.867188 13.664062 4.710938 Z M 13.664062 4.710938 "/>
<path style=" stroke:none;fill-rule:nonzero;fill:rgb(36.470588%,67.843137%,92.54902%);fill-opacity:1;" d="M 1.460938 3.1875 C 1.53125 2.847656 1.945312 0.726562 2.015625 0.386719 C 2.226562 -0.640625 3.257812 1.273438 3.730469 2.441406 C 2.894531 2.488281 2.097656 2.59375 1.460938 3.1875 Z M 1.726562 3.402344 C 2.1875 3.257812 3.492188 3.554688 2.472656 4.191406 C 0.996094 5.164062 0.0742188 4.949219 0.441406 4.597656 C 0.855469 4.203125 1.273438 3.800781 1.726562 3.402344 Z M 6.515625 5.199219 C 6.941406 4.742188 9.855469 5.570312 8.890625 6.117188 C 5.964844 8.042969 3.519531 8.039062 4.25 7.347656 C 5.066406 6.566406 5.613281 5.988281 6.515625 5.199219 Z M 6.515625 5.199219 "/>
<path style=" stroke:none;fill-rule:nonzero;fill:rgb(60.392157%,66.666667%,70.588235%);fill-opacity:1;" d="M 12.066406 5.238281 C 12.066406 5.46875 11.882812 5.652344 11.652344 5.652344 C 11.421875 5.652344 11.234375 5.46875 11.234375 5.238281 C 11.234375 5.007812 11.421875 4.820312 11.652344 4.820312 C 11.882812 4.820312 12.066406 5.007812 12.066406 5.238281 Z M 12.066406 5.238281 "/>
<path style=" stroke:none;fill-rule:nonzero;fill:rgb(60.392157%,66.666667%,70.588235%);fill-opacity:1;" d="M 10.84375 4.984375 C 10.84375 5.214844 10.65625 5.402344 10.425781 5.402344 C 10.195312 5.402344 10.011719 5.214844 10.011719 4.984375 C 10.011719 4.753906 10.195312 4.566406 10.425781 4.566406 C 10.65625 4.566406 10.84375 4.753906 10.84375 4.984375 Z M 10.84375 4.984375 "/>
<path style=" stroke:none;fill-rule:nonzero;fill:rgb(60.392157%,66.666667%,70.588235%);fill-opacity:1;" d="M 9.621094 4.730469 C 9.621094 4.960938 9.433594 5.148438 9.203125 5.148438 C 8.972656 5.148438 8.785156 4.960938 8.785156 4.730469 C 8.785156 4.503906 8.972656 4.316406 9.203125 4.316406 C 9.433594 4.316406 9.621094 4.503906 9.621094 4.730469 Z M 9.621094 4.730469 "/>
<path style=" stroke:none;fill-rule:nonzero;fill:rgb(60.392157%,66.666667%,70.588235%);fill-opacity:1;" d="M 8.394531 4.480469 C 8.394531 4.710938 8.207031 4.894531 7.980469 4.894531 C 7.75 4.894531 7.5625 4.710938 7.5625 4.480469 C 7.5625 4.25 7.75 4.0625 7.980469 4.0625 C 8.207031 4.0625 8.394531 4.25 8.394531 4.480469 Z M 8.394531 4.480469 "/>
<path style=" stroke:none;fill-rule:nonzero;fill:rgb(60.392157%,66.666667%,70.588235%);fill-opacity:1;" d="M 7.171875 4.226562 C 7.171875 4.457031 6.984375 4.644531 6.753906 4.644531 C 6.523438 4.644531 6.339844 4.457031 6.339844 4.226562 C 6.339844 3.996094 6.523438 3.808594 6.753906 3.808594 C 6.984375 3.808594 7.171875 3.996094 7.171875 4.226562 Z M 7.171875 4.226562 "/>
<path style=" stroke:none;fill-rule:nonzero;fill:rgb(60.392157%,66.666667%,70.588235%);fill-opacity:1;" d="M 5.949219 3.972656 C 5.949219 4.203125 5.761719 4.390625 5.53125 4.390625 C 5.300781 4.390625 5.113281 4.203125 5.113281 3.972656 C 5.113281 3.742188 5.300781 3.558594 5.53125 3.558594 C 5.761719 3.558594 5.949219 3.742188 5.949219 3.972656 Z M 5.949219 3.972656 "/>
</g>
</svg>
