<?xml version="1.0" encoding="UTF-8"?>
<svg xmlns="http://www.w3.org/2000/svg" xmlns:xlink="http://www.w3.org/1999/xlink" width="15pt" height="15pt" viewBox="0 0 15 15" version="1.1">
<g id="surface1">
<path style=" stroke:none;fill-rule:nonzero;fill:rgb(80%,83.921569%,86.666667%);fill-opacity:1;" d="M 13.75 1.25 C 10.832031 0 7.5 0 7.5 0 C 7.5 0 4.167969 0 1.25 1.25 C 0 7.5 1.25 12.917969 7.5 15 C 13.75 12.917969 15 7.5 13.75 1.25 Z M 13.75 1.25 "/>
<path style=" stroke:none;fill-rule:nonzero;fill:rgb(33.333333%,67.45098%,93.333333%);fill-opacity:1;" d="M 7.5 14.117188 C 2.671875 12.386719 0.816406 8.261719 1.984375 1.851562 C 4.609375 0.84375 7.46875 0.832031 7.5 0.832031 C 7.53125 0.832031 10.398438 0.851562 13.015625 1.851562 C 14.183594 8.261719 12.328125 12.386719 7.5 14.117188 Z M 7.5 14.117188 "/>
<path style=" stroke:none;fill-rule:nonzero;fill:rgb(13.333333%,40%,60%);fill-opacity:1;" d="M 13.015625 1.851562 C 10.398438 0.851562 7.53125 0.832031 7.5 0.832031 L 7.5 14.117188 C 12.328125 12.386719 14.183594 8.261719 13.015625 1.851562 Z M 13.015625 1.851562 "/>
</g>
</svg>
