<?xml version="1.0" encoding="UTF-8"?>
<svg xmlns="http://www.w3.org/2000/svg" xmlns:xlink="http://www.w3.org/1999/xlink" width="15pt" height="15pt" viewBox="0 0 15 15" version="1.1">
<g id="surface1">
<path style=" stroke:none;fill-rule:nonzero;fill:rgb(40%,45.882353%,49.803922%);fill-opacity:1;" d="M 14.582031 7.917969 C 14.582031 8.148438 14.398438 8.332031 14.167969 8.332031 L 12.917969 8.332031 C 12.6875 8.332031 12.5 8.148438 12.5 7.917969 L 12.5 7.082031 C 12.5 6.851562 12.6875 6.667969 12.917969 6.667969 L 14.167969 6.667969 C 14.398438 6.667969 14.582031 6.851562 14.582031 7.082031 Z M 14.582031 7.917969 "/>
<path style=" stroke:none;fill-rule:nonzero;fill:rgb(40%,45.882353%,49.803922%);fill-opacity:1;" d="M 13.332031 7.5 L 14.167969 7.5 L 14.167969 10.417969 L 13.332031 10.417969 Z M 13.332031 7.5 "/>
<path style=" stroke:none;fill-rule:nonzero;fill:rgb(88.235294%,90.980392%,92.941176%);fill-opacity:1;" d="M 2.5 8.007812 C 2.5 8.007812 4.582031 6.25 6.667969 6.25 L 6.679688 6.25 L 6.667969 8.332031 C 6.667969 8.332031 6.667969 8.75 5 8.75 C 3.332031 8.75 2.5 8.007812 2.5 8.007812 Z M 2.5 8.007812 "/>
<path style=" stroke:none;fill-rule:nonzero;fill:rgb(23.137255%,53.333333%,76.470588%);fill-opacity:1;" d="M 3.019531 7.957031 C 4.5 6.835938 5.832031 6.683594 6.25 6.683594 L 6.25 8.332031 C 6.25 9.652344 3.019531 7.957031 3.019531 7.957031 Z M 3.019531 7.957031 "/>
<path style=" stroke:none;fill-rule:nonzero;fill:rgb(80%,83.921569%,86.666667%);fill-opacity:1;" d="M 13.75 10.402344 C 13.75 10.402344 13.957031 8.730469 13.332031 8.015625 L 0.417969 7.535156 C 0.417969 7.535156 1.25 8.96875 2.917969 9.925781 C 4.582031 10.878906 13.75 10.402344 13.75 10.402344 Z M 13.75 10.402344 "/>
<path style=" stroke:none;fill-rule:nonzero;fill:rgb(95.686275%,56.470588%,4.705882%);fill-opacity:1;" d="M 2.917969 9.921875 C 4.582031 10.878906 13.75 10.402344 13.75 10.402344 C 13.75 10.402344 13.871094 9.429688 13.648438 8.648438 L 0.867188 8.160156 C 1.273438 8.664062 1.953125 9.371094 2.917969 9.921875 Z M 2.917969 9.921875 "/>
<path style=" stroke:none;fill-rule:nonzero;fill:rgb(33.333333%,67.45098%,93.333333%);fill-opacity:1;" d="M 0 10 L 15 10 L 15 15 L 0 15 Z M 0 10 "/>
</g>
</svg>
