<?xml version="1.0" encoding="UTF-8"?>
<svg xmlns="http://www.w3.org/2000/svg" xmlns:xlink="http://www.w3.org/1999/xlink" width="15pt" height="15pt" viewBox="0 0 15 15" version="1.1">
<g id="surface1">
<path style=" stroke:none;fill-rule:nonzero;fill:rgb(23.137255%,53.333333%,76.470588%);fill-opacity:1;" d="M 2.917969 10.417969 L 12.082031 10.417969 L 12.082031 14.167969 L 2.917969 14.167969 Z M 2.917969 5.832031 L 12.082031 5.832031 L 12.082031 9.582031 L 2.917969 9.582031 Z M 2.917969 1.25 L 12.082031 1.25 L 12.082031 5.417969 L 2.917969 5.417969 Z M 2.917969 1.25 "/>
<path style=" stroke:none;fill-rule:nonzero;fill:rgb(13.333333%,40%,60%);fill-opacity:1;" d="M 12.5 1.324219 C 12.5 1.511719 12.347656 1.667969 12.15625 1.667969 L 2.84375 1.667969 C 2.652344 1.667969 2.5 1.511719 2.5 1.324219 L 2.5 1.175781 C 2.5 0.988281 2.652344 0.832031 2.84375 0.832031 L 12.15625 0.832031 C 12.347656 0.832031 12.5 0.988281 12.5 1.175781 Z M 12.5 5.90625 C 12.5 6.097656 12.347656 6.25 12.15625 6.25 L 2.84375 6.25 C 2.652344 6.25 2.5 6.097656 2.5 5.90625 L 2.5 5.757812 C 2.5 5.570312 2.652344 5.417969 2.84375 5.417969 L 12.15625 5.417969 C 12.347656 5.417969 12.5 5.570312 12.5 5.757812 Z M 12.5 10.074219 C 12.5 10.261719 12.347656 10.417969 12.15625 10.417969 L 2.84375 10.417969 C 2.652344 10.417969 2.5 10.261719 2.5 10.074219 L 2.5 9.925781 C 2.5 9.738281 2.652344 9.582031 2.84375 9.582031 L 12.15625 9.582031 C 12.347656 9.582031 12.5 9.738281 12.5 9.925781 Z M 12.5 14.65625 C 12.5 14.847656 12.347656 15 12.15625 15 L 2.84375 15 C 2.652344 15 2.5 14.847656 2.5 14.65625 L 2.5 14.507812 C 2.5 14.320312 2.652344 14.167969 2.84375 14.167969 L 12.15625 14.167969 C 12.347656 14.167969 12.5 14.320312 12.5 14.507812 Z M 12.5 14.65625 "/>
<path style=" stroke:none;fill-rule:nonzero;fill:rgb(60%,66.666667%,70.980392%);fill-opacity:1;" d="M 10.832031 0.46875 C 10.832031 0.671875 10.671875 0.832031 10.46875 0.832031 L 9.53125 0.832031 C 9.328125 0.832031 9.167969 0.671875 9.167969 0.46875 L 9.167969 0.363281 C 9.167969 0.164062 9.328125 0 9.53125 0 L 10.46875 0 C 10.671875 0 10.832031 0.164062 10.832031 0.363281 Z M 10.832031 0.46875 "/>
</g>
</svg>
