<?xml version="1.0" encoding="UTF-8"?>
<svg xmlns="http://www.w3.org/2000/svg" xmlns:xlink="http://www.w3.org/1999/xlink" width="15pt" height="15pt" viewBox="0 0 15 15" version="1.1">
<g id="surface1">
<path style=" stroke:none;fill-rule:nonzero;fill:rgb(86.666667%,18.039216%,26.666667%);fill-opacity:1;" d="M 14.082031 7.082031 C 14.082031 7.082031 13.53125 8.332031 7.5 8.332031 C 1.46875 8.332031 0.820312 7.082031 0.820312 7.082031 C 0.820312 7.082031 -0.417969 9.214844 2 10.417969 C 3.765625 11.292969 6.550781 10.363281 7.300781 10.078125 C 8.132812 10.363281 11.167969 11.253906 12.949219 10.417969 C 15.394531 9.269531 14.082031 7.082031 14.082031 7.082031 Z M 14.082031 7.082031 "/>
<path style=" stroke:none;fill-rule:nonzero;fill:rgb(33.333333%,67.45098%,93.333333%);fill-opacity:1;" d="M 0 10 L 15 10 L 15 15 L 0 15 Z M 0 10 "/>
<path style=" stroke:none;fill-rule:nonzero;fill:rgb(100%,67.45098%,20%);fill-opacity:1;" d="M 11.253906 10.578125 C 11.339844 10.578125 11.421875 10.546875 11.488281 10.480469 C 11.621094 10.347656 11.621094 10.136719 11.488281 10.003906 L 7.796875 6.3125 C 7.664062 6.183594 7.453125 6.183594 7.324219 6.3125 C 7.191406 6.445312 7.191406 6.65625 7.324219 6.789062 L 11.015625 10.480469 C 11.082031 10.546875 11.167969 10.578125 11.253906 10.578125 Z M 11.253906 10.578125 "/>
<path style=" stroke:none;fill-rule:nonzero;fill:rgb(100%,80%,30.196078%);fill-opacity:1;" d="M 12.214844 11.878906 C 12.386719 11.878906 12.558594 11.8125 12.691406 11.679688 C 12.953125 11.417969 12.953125 10.992188 12.691406 10.730469 L 11.683594 9.722656 C 11.421875 9.460938 10.996094 9.460938 10.734375 9.722656 C 10.472656 9.988281 10.472656 10.410156 10.734375 10.671875 L 11.742188 11.679688 C 11.871094 11.8125 12.042969 11.878906 12.214844 11.878906 Z M 12.214844 11.878906 "/>
</g>
</svg>
