<?xml version="1.0" encoding="UTF-8"?>
<svg xmlns="http://www.w3.org/2000/svg" xmlns:xlink="http://www.w3.org/1999/xlink" width="15pt" height="15pt" viewBox="0 0 15 15" version="1.1">
<g id="surface1">
<path style=" stroke:none;fill-rule:nonzero;fill:rgb(88.235294%,90.980392%,92.941176%);fill-opacity:1;" d="M 15 5.441406 L 15 13.332031 C 15 13.332031 15 15 13.332031 15 L 1.667969 15 C 0 15 0 13.332031 0 13.332031 L 0 11.277344 C 0 11.277344 7.082031 7.109375 15 5.441406 Z M 15 5.441406 "/>
<path style=" stroke:none;fill-rule:nonzero;fill:rgb(61.568627%,1.960784%,13.333333%);fill-opacity:1;" d="M 10.835938 6.46875 C 10.277344 6.757812 3.605469 10.289062 2.863281 10.652344 C 1.6875 11.230469 0.6875 10.671875 0.191406 9.914062 C -0.0664062 9.523438 0.0195312 9.40625 0.191406 9.371094 C 0.359375 9.332031 0.785156 9.253906 0.894531 9.472656 C 1.074219 9.839844 1.949219 10.320312 2.402344 10.109375 C 2.859375 9.902344 9.878906 6.140625 10.136719 6.023438 C 10.398438 5.90625 10.515625 5.90625 10.710938 6.023438 C 10.90625 6.140625 11.257812 6.25 10.835938 6.46875 Z M 10.835938 6.46875 "/>
<path style=" stroke:none;fill-rule:nonzero;fill:rgb(90.588235%,35.294118%,43.921569%);fill-opacity:1;" d="M 4.644531 12.191406 C 4.609375 12.191406 4.574219 12.183594 4.542969 12.167969 L 0.667969 10.058594 C 0.566406 10.003906 0.53125 9.878906 0.585938 9.777344 C 0.640625 9.675781 0.765625 9.636719 0.867188 9.691406 L 4.742188 11.800781 C 4.84375 11.855469 4.882812 11.984375 4.828125 12.085938 C 4.789062 12.152344 4.714844 12.191406 4.644531 12.191406 Z M 4.644531 12.191406 "/>
<path style=" stroke:none;fill-rule:nonzero;fill:rgb(61.568627%,1.960784%,13.333333%);fill-opacity:1;" d="M 14.773438 8.585938 C 14.214844 8.875 7.542969 12.40625 6.800781 12.769531 C 5.625 13.347656 4.625 12.792969 4.125 12.035156 C 3.871094 11.644531 3.957031 11.527344 4.125 11.488281 C 4.296875 11.449219 4.71875 11.371094 4.828125 11.589844 C 5.011719 11.957031 5.882812 12.4375 6.339844 12.230469 C 6.796875 12.019531 13.816406 8.257812 14.074219 8.140625 C 14.335938 8.023438 14.453125 8.023438 14.648438 8.140625 C 14.84375 8.257812 15.195312 8.367188 14.773438 8.585938 Z M 14.773438 8.585938 "/>
<path style=" stroke:none;fill-rule:nonzero;fill:rgb(61.568627%,1.960784%,13.333333%);fill-opacity:1;" d="M 7.984375 11.78125 C 7.960938 11.78125 7.9375 11.777344 7.914062 11.765625 C 7.804688 11.726562 7.75 11.605469 7.789062 11.5 L 8.824219 8.722656 C 8.847656 8.652344 8.910156 8.601562 8.980469 8.589844 C 9.058594 8.578125 9.128906 8.601562 9.175781 8.65625 L 10.566406 10.253906 C 10.640625 10.339844 10.632812 10.472656 10.546875 10.546875 C 10.457031 10.625 10.328125 10.613281 10.25 10.527344 L 9.09375 9.195312 L 8.183594 11.644531 C 8.152344 11.726562 8.070312 11.78125 7.984375 11.78125 Z M 4.117188 9.734375 C 4.089844 9.734375 4.066406 9.730469 4.042969 9.722656 C 3.933594 9.679688 3.878906 9.5625 3.921875 9.453125 L 4.953125 6.675781 C 4.980469 6.605469 5.039062 6.554688 5.113281 6.542969 C 5.183594 6.527344 5.257812 6.554688 5.304688 6.613281 L 6.695312 8.207031 C 6.769531 8.296875 6.761719 8.425781 6.675781 8.503906 C 6.589844 8.578125 6.457031 8.570312 6.378906 8.480469 L 5.222656 7.148438 L 4.3125 9.597656 C 4.28125 9.683594 4.199219 9.734375 4.117188 9.734375 Z M 11.867188 9.734375 C 11.84375 9.734375 11.820312 9.730469 11.796875 9.722656 C 11.6875 9.679688 11.632812 9.5625 11.671875 9.453125 L 12.707031 6.675781 C 12.730469 6.605469 12.792969 6.554688 12.863281 6.542969 C 12.9375 6.527344 13.011719 6.554688 13.058594 6.613281 L 14.445312 8.207031 C 14.523438 8.296875 14.511719 8.425781 14.425781 8.503906 C 14.339844 8.578125 14.207031 8.566406 14.132812 8.480469 L 12.972656 7.148438 L 12.0625 9.597656 C 12.03125 9.683594 11.953125 9.734375 11.867188 9.734375 Z M 11.867188 9.734375 "/>
<path style=" stroke:none;fill-rule:nonzero;fill:rgb(75.686275%,41.176471%,30.980392%);fill-opacity:1;" d="M 9.96875 4.492188 C 10.414062 4.257812 10.429688 4.230469 10.902344 4.480469 C 11.378906 4.734375 13.640625 5.933594 13.910156 6.074219 C 14.246094 6.253906 14.371094 6.320312 13.722656 6.667969 C 13.015625 7.042969 8.59375 9.378906 8.332031 9.511719 C 8.015625 9.667969 7.785156 9.648438 7.414062 9.464844 C 7.113281 9.316406 4.683594 8.019531 4.382812 7.847656 C 4.039062 7.65625 4.183594 7.554688 4.703125 7.277344 C 5.222656 7 9.96875 4.492188 9.96875 4.492188 Z M 9.96875 4.492188 "/>
<path style=" stroke:none;fill-rule:nonzero;fill:rgb(75.686275%,41.176471%,30.980392%);fill-opacity:1;" d="M 4.203125 7.113281 L 4.792969 7.113281 L 4.792969 7.667969 L 4.203125 7.667969 Z M 13.71875 5.734375 L 14.1875 5.734375 L 14.1875 6.328125 L 13.71875 6.328125 Z M 13.71875 5.734375 "/>
<path style=" stroke:none;fill-rule:nonzero;fill:rgb(85.098039%,61.960784%,50.980392%);fill-opacity:1;" d="M 9.96875 3.929688 C 10.414062 3.699219 10.429688 3.667969 10.902344 3.921875 C 11.378906 4.171875 13.640625 5.371094 13.910156 5.515625 C 14.246094 5.695312 14.371094 5.761719 13.722656 6.105469 C 13.015625 6.484375 8.59375 8.820312 8.332031 8.949219 C 8.015625 9.109375 7.785156 9.085938 7.414062 8.902344 C 7.113281 8.757812 4.683594 7.460938 4.382812 7.289062 C 4.039062 7.09375 4.183594 6.996094 4.703125 6.71875 C 5.222656 6.441406 9.96875 3.929688 9.96875 3.929688 Z M 9.96875 3.929688 "/>
<path style=" stroke:none;fill-rule:nonzero;fill:rgb(74.901961%,41.176471%,32.156863%);fill-opacity:1;" d="M 5.222656 7.238281 C 5.148438 7.238281 5.074219 7.199219 5.039062 7.128906 C 4.984375 7.027344 5.023438 6.902344 5.125 6.847656 L 10.253906 4.121094 C 10.355469 4.066406 10.480469 4.105469 10.535156 4.207031 C 10.589844 4.308594 10.550781 4.433594 10.449219 4.488281 L 5.320312 7.214844 C 5.289062 7.230469 5.253906 7.238281 5.222656 7.238281 Z M 8.019531 8.675781 C 7.945312 8.675781 7.871094 8.636719 7.835938 8.566406 C 7.78125 8.464844 7.820312 8.339844 7.921875 8.285156 L 13.050781 5.558594 C 13.152344 5.503906 13.277344 5.542969 13.332031 5.644531 C 13.386719 5.746094 13.347656 5.871094 13.246094 5.925781 L 8.117188 8.652344 C 8.085938 8.667969 8.050781 8.675781 8.019531 8.675781 Z M 7.113281 8.203125 C 7.039062 8.203125 6.96875 8.164062 6.929688 8.09375 C 6.875 7.992188 6.914062 7.867188 7.015625 7.8125 L 12.148438 5.085938 C 12.246094 5.03125 12.375 5.070312 12.429688 5.171875 C 12.484375 5.273438 12.445312 5.398438 12.34375 5.453125 L 7.210938 8.179688 C 7.179688 8.199219 7.148438 8.203125 7.113281 8.203125 Z M 6.183594 7.734375 C 6.109375 7.734375 6.035156 7.691406 6 7.621094 C 5.945312 7.519531 5.984375 7.394531 6.085938 7.339844 L 11.214844 4.613281 C 11.316406 4.558594 11.441406 4.597656 11.496094 4.699219 C 11.550781 4.804688 11.511719 4.929688 11.410156 4.984375 L 6.28125 7.710938 C 6.25 7.726562 6.214844 7.734375 6.183594 7.734375 Z M 6.183594 7.734375 "/>
</g>
</svg>
