<?xml version="1.0" encoding="UTF-8"?>
<svg xmlns="http://www.w3.org/2000/svg" xmlns:xlink="http://www.w3.org/1999/xlink" width="15pt" height="15pt" viewBox="0 0 15 15" version="1.1">
<g id="surface1">
<path style=" stroke:none;fill-rule:nonzero;fill:rgb(16.078431%,18.431373%,20%);fill-opacity:1;" d="M 3.75 13.125 C 3.75 14.160156 2.910156 15 1.875 15 C 0.839844 15 0 14.160156 0 13.125 C 0 12.089844 0.839844 11.25 1.875 11.25 C 2.910156 11.25 3.75 12.089844 3.75 13.125 Z M 3.75 13.125 "/>
<path style=" stroke:none;fill-rule:nonzero;fill:rgb(86.666667%,18.039216%,26.666667%);fill-opacity:1;" d="M 3.125 13.125 C 3.125 13.816406 2.566406 14.375 1.875 14.375 C 1.183594 14.375 0.625 13.816406 0.625 13.125 C 0.625 12.433594 1.183594 11.875 1.875 11.875 C 2.566406 11.875 3.125 12.433594 3.125 13.125 Z M 3.125 13.125 "/>
<path style=" stroke:none;fill-rule:nonzero;fill:rgb(16.078431%,18.431373%,20%);fill-opacity:1;" d="M 15 13.125 C 15 14.160156 14.160156 15 13.125 15 C 12.089844 15 11.25 14.160156 11.25 13.125 C 11.25 12.089844 12.089844 11.25 13.125 11.25 C 14.160156 11.25 15 12.089844 15 13.125 Z M 15 13.125 "/>
<path style=" stroke:none;fill-rule:nonzero;fill:rgb(86.666667%,18.039216%,26.666667%);fill-opacity:1;" d="M 14.375 13.125 C 14.375 13.816406 13.816406 14.375 13.125 14.375 C 12.433594 14.375 11.875 13.816406 11.875 13.125 C 11.875 12.433594 12.433594 11.875 13.125 11.875 C 13.816406 11.875 14.375 12.433594 14.375 13.125 Z M 14.375 13.125 "/>
<path style=" stroke:none;fill-rule:nonzero;fill:rgb(33.333333%,67.45098%,93.333333%);fill-opacity:1;" d="M 13.125 13.75 L 4.792969 13.75 C 4.449219 13.75 4.167969 13.46875 4.167969 13.125 C 4.167969 12.78125 4.449219 12.5 4.792969 12.5 L 13.125 12.5 C 13.46875 12.5 13.75 12.78125 13.75 13.125 C 13.75 13.46875 13.46875 13.75 13.125 13.75 Z M 13.125 13.75 "/>
<path style=" stroke:none;fill-rule:nonzero;fill:rgb(33.333333%,67.45098%,93.333333%);fill-opacity:1;" d="M 10.839844 13.226562 C 10.835938 13.191406 10.832031 13.160156 10.832031 13.125 C 10.832031 11.859375 11.859375 10.832031 13.125 10.832031 C 13.628906 10.832031 14.09375 11 14.472656 11.273438 L 14.84375 10.773438 C 14.359375 10.417969 13.769531 10.207031 13.125 10.207031 C 11.515625 10.207031 10.207031 11.515625 10.207031 13.125 C 10.207031 13.167969 10.210938 13.207031 10.214844 13.25 Z M 2.34375 10.882812 C 3.386719 11.097656 4.164062 12.019531 4.167969 13.121094 L 5.625 13.125 C 5.625 11.316406 4.34375 9.808594 2.640625 9.453125 C 2.542969 9.925781 2.441406 10.414062 2.34375 10.882812 Z M 2.34375 10.882812 "/>
<path style=" stroke:none;fill-rule:nonzero;fill:rgb(60%,66.666667%,70.980392%);fill-opacity:1;" d="M 1.832031 13.332031 C 1.71875 13.308594 1.648438 13.199219 1.671875 13.085938 L 4.171875 1.320312 C 4.195312 1.207031 4.308594 1.136719 4.417969 1.160156 C 4.53125 1.183594 4.601562 1.292969 4.578125 1.40625 L 2.078125 13.171875 C 2.054688 13.285156 1.941406 13.355469 1.832031 13.332031 Z M 1.832031 13.332031 "/>
<path style=" stroke:none;fill-rule:nonzero;fill:rgb(33.333333%,67.45098%,93.333333%);fill-opacity:1;" d="M 2.550781 10.941406 L 2.144531 10.855469 C 1.917969 10.808594 1.773438 10.585938 1.824219 10.359375 L 2.34375 7.914062 C 2.390625 7.691406 2.613281 7.546875 2.835938 7.59375 L 3.246094 7.683594 C 3.46875 7.730469 3.613281 7.953125 3.566406 8.175781 L 3.046875 10.621094 C 2.996094 10.84375 2.777344 10.988281 2.550781 10.941406 Z M 2.550781 10.941406 "/>
<path style=" stroke:none;fill-rule:nonzero;fill:rgb(86.666667%,18.039216%,26.666667%);fill-opacity:1;" d="M 3.875 1.800781 L 3.058594 1.628906 C 2.722656 1.558594 2.507812 1.222656 2.578125 0.886719 C 2.648438 0.550781 2.984375 0.335938 3.320312 0.40625 L 4.132812 0.578125 C 4.472656 0.652344 4.6875 0.984375 4.617188 1.320312 C 4.542969 1.65625 4.210938 1.871094 3.875 1.800781 Z M 3.875 1.800781 "/>
<path style=" stroke:none;fill-rule:nonzero;fill:rgb(33.333333%,67.45098%,93.333333%);fill-opacity:1;" d="M 4.515625 0.699219 C 4.179688 0.625 3.847656 0.84375 3.777344 1.179688 L 3.210938 3.828125 C 3.164062 4.050781 3.308594 4.273438 3.535156 4.324219 L 3.941406 4.410156 C 4.164062 4.457031 4.386719 4.3125 4.433594 4.089844 L 4.996094 1.4375 C 5.070312 1.101562 4.851562 0.769531 4.515625 0.699219 Z M 4.515625 0.699219 "/>
<path style=" stroke:none;fill-rule:nonzero;fill:rgb(86.666667%,18.039216%,26.666667%);fill-opacity:1;" d="M 5.878906 2.226562 L 4.65625 1.96875 C 4.316406 1.894531 4.101562 1.5625 4.171875 1.226562 C 4.246094 0.890625 4.578125 0.671875 4.914062 0.746094 L 6.136719 1.003906 C 6.472656 1.078125 6.691406 1.410156 6.617188 1.746094 C 6.546875 2.082031 6.214844 2.296875 5.878906 2.226562 Z M 5.878906 2.226562 "/>
<path style=" stroke:none;fill-rule:nonzero;fill:rgb(91.764706%,34.901961%,43.137255%);fill-opacity:1;" d="M 6.625 1.746094 C 6.554688 2.085938 6.222656 2.300781 5.886719 2.230469 C 5.546875 2.15625 5.332031 1.824219 5.402344 1.488281 C 5.476562 1.148438 5.808594 0.933594 6.144531 1.007812 C 6.484375 1.078125 6.699219 1.410156 6.625 1.746094 Z M 6.625 1.746094 "/>
<path style=" stroke:none;fill-rule:nonzero;fill:rgb(33.333333%,67.45098%,93.333333%);fill-opacity:1;" d="M 14.972656 11.023438 C 14.972656 11.195312 14.832031 11.332031 14.664062 11.332031 C 14.492188 11.332031 14.355469 11.195312 14.355469 11.023438 C 14.355469 10.855469 14.492188 10.714844 14.664062 10.714844 C 14.832031 10.714844 14.972656 10.855469 14.972656 11.023438 Z M 14.972656 11.023438 "/>
</g>
</svg>
