<?xml version="1.0" encoding="UTF-8"?>
<svg xmlns="http://www.w3.org/2000/svg" xmlns:xlink="http://www.w3.org/1999/xlink" width="15pt" height="15pt" viewBox="0 0 15 15" version="1.1">
<g id="surface1">
<path style=" stroke:none;fill-rule:nonzero;fill:rgb(62.745098%,1.568627%,11.764706%);fill-opacity:1;" d="M 13.515625 1.175781 C 14.265625 1.925781 15.089844 2.316406 13.515625 3.890625 L 5.367188 12.035156 C 3.453125 13.953125 3.09375 15.191406 0.617188 12.714844 C -0.742188 11.359375 0.734375 11.238281 2.652344 9.320312 L 10.800781 1.175781 C 11.550781 0.425781 12.765625 0.425781 13.515625 1.175781 Z M 13.515625 1.175781 "/>
<path style=" stroke:none;fill-rule:nonzero;fill:rgb(86.666667%,18.039216%,26.666667%);fill-opacity:1;" d="M 14.140625 1.800781 C 14.890625 2.550781 14.890625 3.765625 14.140625 4.515625 L 5.992188 12.660156 C 4.296875 14.359375 2.519531 14.617188 1.242188 13.339844 C -0.117188 11.984375 1.359375 11.863281 3.277344 9.945312 L 11.425781 1.800781 C 12.175781 1.050781 13.390625 1.050781 14.140625 1.800781 Z M 14.140625 1.800781 "/>
<path style=" stroke:none;fill-rule:nonzero;fill:rgb(23.137255%,53.333333%,76.470588%);fill-opacity:1;" d="M 6.375 13.824219 C 6.761719 14.210938 7.496094 14.105469 8.015625 13.585938 C 8.53125 13.066406 8.640625 12.335938 8.253906 11.949219 C 7.867188 11.5625 7.132812 11.667969 6.613281 12.1875 C 6.09375 12.707031 5.988281 13.4375 6.375 13.824219 Z M 6.375 13.824219 "/>
<path style=" stroke:none;fill-rule:nonzero;fill:rgb(23.137255%,53.333333%,76.470588%);fill-opacity:1;" d="M 7.945312 11.640625 L 6.066406 13.519531 L 6.375 13.824219 L 8.253906 11.949219 Z M 7.945312 11.640625 "/>
<path style=" stroke:none;fill-rule:nonzero;fill:rgb(53.333333%,78.823529%,97.647059%);fill-opacity:1;" d="M 6.089844 13.539062 C 6.476562 13.925781 7.207031 13.820312 7.726562 13.300781 C 8.246094 12.78125 8.351562 12.046875 7.964844 11.660156 C 7.578125 11.273438 6.847656 11.382812 6.328125 11.898438 C 5.808594 12.417969 5.703125 13.152344 6.089844 13.539062 Z M 6.089844 13.539062 "/>
<path style=" stroke:none;fill-rule:nonzero;fill:rgb(50.196078%,50.980392%,52.156863%);fill-opacity:1;" d="M 7.355469 12.25 C 7.480469 12.402344 7.457031 12.652344 7.269531 12.839844 C 7.082031 13.027344 6.839844 13.039062 6.675781 12.925781 C 5.230469 11.929688 5.398438 11.34375 5.585938 11.15625 C 5.773438 10.96875 6.0625 10.679688 7.355469 12.25 Z M 7.355469 12.25 "/>
<path style=" stroke:none;fill-rule:nonzero;fill:rgb(65.490196%,66.27451%,67.45098%);fill-opacity:1;" d="M 6.769531 12.429688 C 6.308594 12.945312 5.617188 12.683594 5.128906 12.195312 C 4.640625 11.707031 4.585938 11.167969 5.074219 10.679688 C 5.5625 10.191406 6.058594 10.386719 6.546875 10.875 C 7.035156 11.363281 7.277344 11.859375 6.769531 12.429688 Z M 6.769531 12.429688 "/>
<path style=" stroke:none;fill-rule:nonzero;fill:rgb(23.137255%,53.333333%,76.470588%);fill-opacity:1;" d="M 3.808594 11.417969 C 4.226562 11.835938 5.023438 11.71875 5.585938 11.15625 C 6.148438 10.59375 6.261719 9.800781 5.84375 9.378906 C 5.425781 8.960938 4.628906 9.078125 4.066406 9.640625 C 3.503906 10.203125 3.386719 10.996094 3.808594 11.417969 Z M 3.808594 11.417969 "/>
<path style=" stroke:none;fill-rule:nonzero;fill:rgb(23.137255%,53.333333%,76.470588%);fill-opacity:1;" d="M 5.511719 9.046875 L 3.472656 11.085938 L 3.808594 11.417969 L 5.84375 9.378906 Z M 5.511719 9.046875 "/>
<path style=" stroke:none;fill-rule:nonzero;fill:rgb(53.333333%,78.823529%,97.647059%);fill-opacity:1;" d="M 3.496094 11.105469 C 3.917969 11.527344 4.710938 11.410156 5.273438 10.847656 C 5.835938 10.285156 5.953125 9.488281 5.535156 9.070312 C 5.113281 8.648438 4.320312 8.765625 3.757812 9.328125 C 3.191406 9.890625 3.078125 10.6875 3.496094 11.105469 Z M 3.496094 11.105469 "/>
<path style=" stroke:none;fill-rule:nonzero;fill:rgb(23.137255%,53.333333%,76.470588%);fill-opacity:1;" d="M 4.855469 9.75 C 4.996094 9.886719 4.957031 10.152344 4.769531 10.339844 C 4.582031 10.527344 4.316406 10.566406 4.175781 10.425781 C 4.035156 10.289062 4.074219 10.023438 4.261719 9.835938 C 4.449219 9.648438 4.714844 9.609375 4.855469 9.75 Z M 12.210938 7.992188 C 12.59375 8.378906 13.328125 8.273438 13.847656 7.753906 C 14.367188 7.234375 14.472656 6.5 14.085938 6.113281 C 13.699219 5.726562 12.964844 5.835938 12.449219 6.351562 C 11.929688 6.871094 11.820312 7.605469 12.210938 7.992188 Z M 12.210938 7.992188 "/>
<path style=" stroke:none;fill-rule:nonzero;fill:rgb(23.137255%,53.333333%,76.470588%);fill-opacity:1;" d="M 13.777344 5.808594 L 11.902344 7.683594 L 12.210938 7.992188 L 14.085938 6.113281 Z M 13.777344 5.808594 "/>
<path style=" stroke:none;fill-rule:nonzero;fill:rgb(53.333333%,78.823529%,97.647059%);fill-opacity:1;" d="M 11.921875 7.707031 C 12.308594 8.09375 13.042969 7.984375 13.558594 7.46875 C 14.078125 6.949219 14.183594 6.214844 13.796875 5.828125 C 13.410156 5.441406 12.679688 5.546875 12.160156 6.066406 C 11.640625 6.585938 11.535156 7.320312 11.921875 7.707031 Z M 11.921875 7.707031 "/>
<path style=" stroke:none;fill-rule:nonzero;fill:rgb(50.196078%,50.980392%,52.156863%);fill-opacity:1;" d="M 13.1875 6.414062 C 13.3125 6.566406 13.289062 6.820312 13.101562 7.007812 C 12.914062 7.195312 12.671875 7.207031 12.507812 7.09375 C 11.0625 6.097656 11.230469 5.511719 11.417969 5.324219 C 11.605469 5.136719 11.898438 4.847656 13.1875 6.414062 Z M 13.1875 6.414062 "/>
<path style=" stroke:none;fill-rule:nonzero;fill:rgb(65.490196%,66.27451%,67.45098%);fill-opacity:1;" d="M 12.601562 6.597656 C 12.140625 7.113281 11.449219 6.851562 10.960938 6.363281 C 10.472656 5.875 10.417969 5.335938 10.90625 4.847656 C 11.394531 4.359375 11.890625 4.554688 12.378906 5.042969 C 12.867188 5.527344 13.109375 6.023438 12.601562 6.597656 Z M 12.601562 6.597656 "/>
<path style=" stroke:none;fill-rule:nonzero;fill:rgb(23.137255%,53.333333%,76.470588%);fill-opacity:1;" d="M 9.640625 5.582031 C 10.0625 6.003906 10.855469 5.886719 11.417969 5.324219 C 11.980469 4.761719 12.097656 3.96875 11.679688 3.546875 C 11.257812 3.128906 10.464844 3.242188 9.902344 3.804688 C 9.335938 4.371094 9.222656 5.164062 9.640625 5.582031 Z M 9.640625 5.582031 "/>
<path style=" stroke:none;fill-rule:nonzero;fill:rgb(23.137255%,53.333333%,76.470588%);fill-opacity:1;" d="M 9.308594 5.25 L 11.34375 3.214844 L 11.679688 3.546875 L 9.640625 5.585938 Z M 9.308594 5.25 "/>
<path style=" stroke:none;fill-rule:nonzero;fill:rgb(53.333333%,78.823529%,97.647059%);fill-opacity:1;" d="M 9.332031 5.273438 C 9.75 5.691406 10.546875 5.578125 11.109375 5.015625 C 11.671875 4.453125 11.785156 3.65625 11.367188 3.238281 C 10.949219 2.816406 10.152344 2.933594 9.589844 3.496094 C 9.027344 4.058594 8.910156 4.855469 9.332031 5.273438 Z M 9.332031 5.273438 "/>
<path style=" stroke:none;fill-rule:nonzero;fill:rgb(23.137255%,53.333333%,76.470588%);fill-opacity:1;" d="M 10.6875 3.914062 C 10.828125 4.054688 10.789062 4.320312 10.601562 4.507812 C 10.414062 4.695312 10.148438 4.734375 10.007812 4.59375 C 9.871094 4.453125 9.90625 4.1875 10.09375 4 C 10.285156 3.8125 10.546875 3.777344 10.6875 3.914062 Z M 10.6875 3.914062 "/>
</g>
</svg>
