<?xml version="1.0" encoding="UTF-8"?>
<svg xmlns="http://www.w3.org/2000/svg" xmlns:xlink="http://www.w3.org/1999/xlink" width="15pt" height="15pt" viewBox="0 0 15 15" version="1.1">
<g id="surface1">
<path style=" stroke:none;fill-rule:nonzero;fill:rgb(86.666667%,18.039216%,26.666667%);fill-opacity:1;" d="M 12.917969 5 L 11.25 5 L 11.667969 2.917969 L 12.917969 2.917969 Z M 12.917969 5 "/>
<path style=" stroke:none;fill-rule:nonzero;fill:rgb(80%,83.921569%,86.666667%);fill-opacity:1;" d="M 13.75 5 L 10.417969 5 L 10.785156 3.75 L 13.503906 3.75 Z M 13.75 5 "/>
<path style=" stroke:none;fill-rule:nonzero;fill:rgb(80%,83.921569%,86.666667%);fill-opacity:1;" d="M 14.828125 5.832031 L 14.75 5.417969 L 14.332031 5.417969 L 14.167969 4.582031 L 7.5 4.582031 L 7.082031 3.75 L 3.476562 3.75 L 3.332031 4.167969 L 3.75 4.167969 L 3.5625 4.582031 L 3.070312 4.582031 L 2.917969 5 L 3.332031 5 L 2.5 7.5 L 14.386719 7.5 L 14.578125 7.097656 L 14.417969 5.832031 Z M 14.828125 5.832031 "/>
<path style=" stroke:none;fill-rule:nonzero;fill:rgb(80%,83.921569%,86.666667%);fill-opacity:1;" d="M 6.25 4.167969 L 4.582031 4.167969 L 5 2.917969 L 6.25 2.917969 Z M 6.25 4.167969 "/>
<path style=" stroke:none;fill-rule:nonzero;fill:rgb(13.333333%,40%,60%);fill-opacity:1;" d="M 5.832031 4.167969 L 3.75 4.167969 L 3.5625 4.582031 L 5.953125 4.582031 Z M 14.738281 5.417969 L 3.507812 5.417969 L 3.644531 5 L 14.667969 5 Z M 14.464844 6.25 L 3.230469 6.25 L 3.371094 5.832031 L 14.417969 5.832031 Z M 14.582031 7.082031 L 2.96875 7.082031 L 3.105469 6.667969 L 14.53125 6.667969 Z M 13.75 9.984375 C 13.75 9.984375 14.582031 8.75 14.582031 7.082031 L 0.417969 7.082031 C 0.832031 7.917969 2.082031 8.332031 2.5 9.507812 C 3.445312 12.175781 13.75 9.984375 13.75 9.984375 Z M 13.75 9.984375 "/>
<path style=" stroke:none;fill-rule:nonzero;fill:rgb(80%,83.921569%,86.666667%);fill-opacity:1;" d="M 2.058594 8.75 L 14.3125 8.75 C 14.464844 8.285156 14.582031 7.714844 14.582031 7.082031 L 0.417969 7.082031 C 0.730469 7.707031 1.511719 8.097656 2.058594 8.75 Z M 2.058594 8.75 "/>
<path style=" stroke:none;fill-rule:nonzero;fill:rgb(33.333333%,67.45098%,93.333333%);fill-opacity:1;" d="M 0 10 L 15 10 L 15 15 L 0 15 Z M 0 10 "/>
<path style=" stroke:none;fill-rule:nonzero;fill:rgb(100%,67.45098%,20%);fill-opacity:1;" d="M 6.667969 7.5 L 6.667969 7.59375 C 6.667969 7.773438 6.808594 7.917969 6.988281 7.917969 L 7.59375 7.917969 C 7.773438 7.917969 7.917969 7.773438 7.917969 7.59375 L 7.917969 7.5 Z M 7.917969 7.5 L 7.917969 7.59375 C 7.917969 7.773438 8.0625 7.917969 8.238281 7.917969 L 8.84375 7.917969 C 9.023438 7.917969 9.167969 7.773438 9.167969 7.59375 L 9.167969 7.5 Z M 9.167969 7.5 L 9.167969 7.59375 C 9.167969 7.773438 9.3125 7.917969 9.488281 7.917969 L 10.09375 7.917969 C 10.273438 7.917969 10.417969 7.773438 10.417969 7.59375 L 10.417969 7.5 Z M 10.832031 7.5 L 10.832031 7.59375 C 10.832031 7.773438 10.976562 7.917969 11.15625 7.917969 L 11.761719 7.917969 C 11.9375 7.917969 12.082031 7.773438 12.082031 7.59375 L 12.082031 7.5 Z M 12.082031 7.5 L 12.082031 7.59375 C 12.082031 7.773438 12.226562 7.917969 12.40625 7.917969 L 13.011719 7.917969 C 13.1875 7.917969 13.332031 7.773438 13.332031 7.59375 L 13.332031 7.5 Z M 12.082031 7.5 "/>
</g>
</svg>
