<?xml version="1.0" encoding="UTF-8"?>
<svg xmlns="http://www.w3.org/2000/svg" xmlns:xlink="http://www.w3.org/1999/xlink" width="15pt" height="15pt" viewBox="0 0 15 15" version="1.1">
<g id="surface1">
<path style=" stroke:none;fill-rule:nonzero;fill:rgb(95.686275%,56.470588%,4.705882%);fill-opacity:1;" d="M 13.332031 10 L 12.917969 10 C 12.6875 10 12.5 9.8125 12.5 9.582031 C 12.5 9.355469 12.6875 9.167969 12.917969 9.167969 L 13.332031 9.167969 C 13.5625 9.167969 13.75 9.355469 13.75 9.582031 C 13.75 9.8125 13.5625 10 13.332031 10 "/>
<path style=" stroke:none;fill-rule:nonzero;fill:rgb(16.078431%,18.431373%,20%);fill-opacity:1;" d="M 4.167969 13.125 C 4.167969 14.160156 3.328125 15 2.292969 15 C 1.257812 15 0.417969 14.160156 0.417969 13.125 C 0.417969 12.089844 1.257812 11.25 2.292969 11.25 C 3.328125 11.25 4.167969 12.089844 4.167969 13.125 M 14.167969 13.125 C 14.167969 14.160156 13.328125 15 12.292969 15 C 11.257812 15 10.417969 14.160156 10.417969 13.125 C 10.417969 12.089844 11.257812 11.25 12.292969 11.25 C 13.328125 11.25 14.167969 12.089844 14.167969 13.125 "/>
<path style=" stroke:none;fill-rule:nonzero;fill:rgb(60%,66.666667%,70.980392%);fill-opacity:1;" d="M 3.332031 13.125 C 3.332031 13.699219 2.867188 14.167969 2.292969 14.167969 C 1.714844 14.167969 1.25 13.699219 1.25 13.125 C 1.25 12.550781 1.714844 12.082031 2.292969 12.082031 C 2.867188 12.082031 3.332031 12.550781 3.332031 13.125 M 13.332031 13.125 C 13.332031 13.699219 12.867188 14.167969 12.292969 14.167969 C 11.714844 14.167969 11.25 13.699219 11.25 13.125 C 11.25 12.550781 11.714844 12.082031 12.292969 12.082031 C 12.867188 12.082031 13.332031 12.550781 13.332031 13.125 "/>
<path style=" stroke:none;fill-rule:nonzero;fill:rgb(86.666667%,18.039216%,26.666667%);fill-opacity:1;" d="M 2.4375 10.035156 L 3.527344 7.121094 L 3.332031 6.667969 C 3.332031 6.667969 2.953125 6.671875 2.917969 6.25 C 2.882812 5.832031 3.921875 4.96875 4.167969 5 C 4.414062 5.035156 4.167969 5.832031 4.167969 5.832031 C 4.167969 5.832031 5.132812 6.066406 5 6.667969 C 4.867188 7.269531 4.011719 10.285156 4.011719 10.285156 C 4.011719 10.285156 4.738281 10.652344 5 11.25 C 5.1875 11.679688 5.699219 11.675781 6.25 11.667969 C 6.800781 11.660156 8.082031 11.664062 8.332031 10.832031 C 8.585938 10.003906 8.75 9.582031 8.75 9.582031 L 8.332031 9.167969 L 12.5 8.332031 C 12.5 8.332031 12.128906 9.160156 12.917969 9.582031 C 13.820312 10.070312 14.109375 10.695312 14.582031 11.667969 C 14.894531 12.304688 14.769531 12.457031 14.167969 12.5 C 13.359375 12.558594 12.316406 12.660156 11.753906 12.722656 C 11.253906 12.777344 10.800781 13.410156 10.019531 13.410156 C 9.234375 13.410156 5.832031 13.429688 5 13.332031 C 3.542969 13.164062 3.015625 12.082031 0.832031 12.082031 C -0.03125 12.082031 0.390625 11.433594 0.84375 10.972656 C 1.347656 10.460938 2.429688 9.972656 2.4375 10.035156 "/>
<path style=" stroke:none;fill-rule:nonzero;fill:rgb(74.509804%,9.803922%,19.215686%);fill-opacity:1;" d="M 9.167969 13.75 L 7.917969 13.75 C 7.457031 13.75 7.082031 13.375 7.082031 12.917969 C 7.082031 12.457031 7.457031 12.082031 7.917969 12.082031 L 9.167969 12.082031 C 9.625 12.082031 10 12.457031 10 12.917969 C 10 13.375 9.625 13.75 9.167969 13.75 "/>
<path style=" stroke:none;fill-rule:nonzero;fill:rgb(74.509804%,9.803922%,19.215686%);fill-opacity:1;" d="M 7.917969 13.75 L 5.832031 13.75 C 5.605469 13.75 5.417969 13.5625 5.417969 13.332031 C 5.417969 13.105469 5.605469 12.917969 5.832031 12.917969 L 7.917969 12.917969 C 8.144531 12.917969 8.332031 13.105469 8.332031 13.332031 C 8.332031 13.5625 8.144531 13.75 7.917969 13.75 "/>
<path style=" stroke:none;fill-rule:nonzero;fill:rgb(16.078431%,18.431373%,20%);fill-opacity:1;" d="M 9.167969 9.167969 C 8.492188 9.167969 8.152344 9.292969 7.917969 8.75 C 7.679688 8.207031 7.910156 7.917969 8.332031 7.917969 C 8.757812 7.917969 10.71875 7.839844 11.667969 7.5 C 12.613281 7.160156 12.9375 7.152344 12.917969 7.5 C 12.894531 7.847656 12.5 8.332031 12.5 8.332031 C 12.5 8.332031 11.976562 9.167969 9.167969 9.167969 M 5.832031 6.667969 L 4.480469 6.667969 C 4.25 6.667969 4.0625 6.480469 4.0625 6.25 C 4.0625 6.019531 4.25 5.832031 4.480469 5.832031 L 5.832031 5.832031 C 6.0625 5.832031 6.25 6.019531 6.25 6.25 C 6.25 6.480469 6.0625 6.667969 5.832031 6.667969 "/>
<path style=" stroke:none;fill-rule:nonzero;fill:rgb(95.686275%,56.470588%,4.705882%);fill-opacity:1;" d="M 3.125 6.667969 C 3.011719 6.667969 2.917969 6.574219 2.917969 6.457031 L 2.917969 6.042969 C 2.917969 5.925781 3.011719 5.832031 3.125 5.832031 C 3.238281 5.832031 3.332031 5.925781 3.332031 6.042969 L 3.332031 6.457031 C 3.332031 6.574219 3.238281 6.667969 3.125 6.667969 "/>
<path style=" stroke:none;fill-rule:nonzero;fill:rgb(16.078431%,18.431373%,20%);fill-opacity:1;" d="M 5.441406 5.417969 L 5.390625 5.417969 C 5.175781 5.417969 5 5.242188 5 5.027344 L 5 4.140625 C 5 3.925781 5.175781 3.75 5.390625 3.75 L 5.441406 3.75 C 5.65625 3.75 5.832031 3.925781 5.832031 4.140625 L 5.832031 5.027344 C 5.832031 5.242188 5.65625 5.417969 5.441406 5.417969 "/>
<path style=" stroke:none;fill-rule:nonzero;fill:rgb(16.078431%,18.431373%,20%);fill-opacity:1;" d="M 4.160156 6.277344 L 4.148438 6.269531 C 4.070312 6.191406 4.070312 6.0625 4.148438 5.984375 L 5.335938 4.796875 C 5.417969 4.714844 5.542969 4.714844 5.621094 4.796875 L 5.632812 4.804688 C 5.710938 4.882812 5.710938 5.011719 5.632812 5.089844 L 4.445312 6.277344 C 4.367188 6.355469 4.238281 6.355469 4.160156 6.277344 "/>
</g>
</svg>
