<?xml version="1.0" encoding="UTF-8"?>
<svg xmlns="http://www.w3.org/2000/svg" xmlns:xlink="http://www.w3.org/1999/xlink" width="15pt" height="15pt" viewBox="0 0 15 15" version="1.1">
<g id="surface1">
<path style=" stroke:none;fill-rule:nonzero;fill:rgb(60%,66.666667%,70.980392%);fill-opacity:1;" d="M 3.546875 8.261719 L 7.96875 3.84375 L 8.851562 4.726562 L 4.429688 9.144531 Z M 3.546875 8.261719 "/>
<path style=" stroke:none;fill-rule:nonzero;fill:rgb(33.333333%,67.45098%,93.333333%);fill-opacity:1;" d="M 3.546875 12.386719 C 3.222656 12.710938 2.695312 12.710938 2.371094 12.386719 L 0.308594 10.324219 C -0.0195312 10 -0.0195312 9.472656 0.308594 9.144531 L 2.371094 7.082031 C 2.695312 6.757812 3.222656 6.757812 3.546875 7.082031 L 5.609375 9.144531 C 5.9375 9.472656 5.9375 10 5.609375 10.324219 Z M 10.324219 5.609375 C 10 5.9375 9.472656 5.9375 9.144531 5.609375 L 7.082031 3.546875 C 6.757812 3.222656 6.757812 2.695312 7.082031 2.371094 L 9.144531 0.308594 C 9.472656 -0.0195312 10 -0.0195312 10.324219 0.308594 L 12.386719 2.371094 C 12.710938 2.695312 12.710938 3.222656 12.386719 3.546875 Z M 10.324219 5.609375 "/>
<path style=" stroke:none;fill-rule:nonzero;fill:rgb(60%,66.666667%,70.980392%);fill-opacity:1;" d="M 5.167969 4.285156 L 4.578125 2.515625 C 4.390625 1.957031 3.988281 1.925781 3.695312 2.222656 L 2.515625 3.402344 C 2.222656 3.695312 2.253906 4.097656 2.8125 4.285156 L 4.578125 4.875 Z M 5.167969 4.285156 "/>
<path style=" stroke:none;fill-rule:nonzero;fill:rgb(80%,83.921569%,86.666667%);fill-opacity:1;" d="M 7.378906 9.144531 C 7.050781 9.472656 6.523438 9.472656 6.199219 9.144531 L 3.253906 6.199219 C 2.929688 5.875 2.929688 5.347656 3.253906 5.019531 L 5.019531 3.253906 C 5.347656 2.929688 5.875 2.929688 6.199219 3.253906 L 9.144531 6.199219 C 9.472656 6.523438 9.472656 7.050781 9.144531 7.378906 Z M 7.378906 9.144531 "/>
<path style=" stroke:none;fill-rule:nonzero;fill:rgb(80%,83.921569%,86.666667%);fill-opacity:1;" d="M 8.757812 8.773438 C 7.941406 9.585938 6.753906 9.71875 6.105469 9.066406 C 5.453125 8.417969 6.46875 8.113281 7.285156 7.300781 C 8.097656 6.484375 8.402344 5.472656 9.050781 6.121094 C 9.703125 6.773438 9.570312 7.960938 8.757812 8.773438 Z M 8.757812 8.773438 "/>
<path style=" stroke:none;fill-rule:nonzero;fill:rgb(60%,66.666667%,70.980392%);fill-opacity:1;" d="M 11.648438 8.410156 C 10.765625 7.523438 9.515625 7.597656 8.703125 8.410156 C 7.890625 9.222656 7.820312 10.472656 8.703125 11.355469 Z M 10.472656 9.589844 L 11.355469 11.0625 L 9.882812 10.175781 Z M 10.472656 9.589844 "/>
<path style=" stroke:none;fill-rule:nonzero;fill:rgb(60%,66.666667%,70.980392%);fill-opacity:1;" d="M 11.589844 11.292969 C 11.425781 11.457031 11.164062 11.457031 11 11.292969 C 10.835938 11.132812 10.835938 10.867188 11 10.703125 C 11.164062 10.542969 11.425781 10.542969 11.589844 10.703125 C 11.75 10.867188 11.75 11.132812 11.589844 11.292969 Z M 11.589844 11.292969 "/>
<path style=" stroke:none;fill-rule:nonzero;fill:rgb(53.333333%,78.823529%,97.647059%);fill-opacity:1;" d="M 1.777344 7.671875 L 2.371094 7.082031 L 5.609375 10.324219 L 5.019531 10.914062 Z M 7.082031 2.371094 L 7.671875 1.78125 L 10.914062 5.019531 L 10.324219 5.609375 Z M 0.304688 9.148438 L 0.894531 8.558594 L 4.136719 11.796875 L 3.546875 12.386719 Z M 8.554688 0.898438 L 9.144531 0.308594 L 12.386719 3.546875 L 11.796875 4.136719 Z M 8.554688 0.898438 "/>
<path style=" stroke:none;fill-rule:nonzero;fill:rgb(60%,66.666667%,70.980392%);fill-opacity:1;" d="M 3.460938 3.167969 C 3.296875 3.328125 3.035156 3.328125 2.871094 3.167969 C 2.710938 3.003906 2.710938 2.742188 2.871094 2.578125 C 3.035156 2.414062 3.296875 2.414062 3.460938 2.578125 C 3.625 2.742188 3.625 3.003906 3.460938 3.167969 Z M 3.460938 3.167969 "/>
<path style=" stroke:none;fill-rule:nonzero;fill:rgb(100%,67.45098%,20%);fill-opacity:1;" d="M 9.867188 12.679688 L 9.867188 12.660156 C 9.878906 12.429688 10.074219 12.25 10.304688 12.261719 C 10.3125 12.261719 11.203125 12.289062 11.890625 11.605469 C 12.570312 10.921875 12.546875 10.03125 12.546875 10.019531 C 12.535156 9.792969 12.710938 9.59375 12.941406 9.582031 C 13.171875 9.574219 13.367188 9.75 13.378906 9.980469 C 13.382812 10.03125 13.429688 11.242188 12.476562 12.191406 C 11.523438 13.144531 10.316406 13.097656 10.265625 13.09375 C 10.039062 13.082031 9.867188 12.898438 9.867188 12.679688 Z M 9.867188 12.679688 "/>
<path style=" stroke:none;fill-rule:nonzero;fill:rgb(100%,67.45098%,20%);fill-opacity:1;" d="M 10.097656 14.160156 C 10.097656 14.117188 10.105469 14.070312 10.121094 14.023438 C 10.199219 13.808594 10.4375 13.691406 10.652344 13.769531 C 10.699219 13.785156 11.851562 14.140625 13.136719 12.855469 C 14.441406 11.550781 14.144531 10.300781 14.128906 10.25 C 14.074219 10.027344 14.207031 9.800781 14.429688 9.742188 C 14.648438 9.683594 14.875 9.816406 14.9375 10.035156 C 14.957031 10.105469 15.386719 11.785156 13.726562 13.445312 C 12.054688 15.117188 10.445312 14.578125 10.378906 14.554688 C 10.207031 14.496094 10.097656 14.335938 10.097656 14.160156 Z M 10.097656 14.160156 "/>
</g>
</svg>
