<?xml version="1.0" encoding="UTF-8"?>
<svg xmlns="http://www.w3.org/2000/svg" xmlns:xlink="http://www.w3.org/1999/xlink" width="15pt" height="15pt" viewBox="0 0 15 15" version="1.1">
<g id="surface1">
<path style=" stroke:none;fill-rule:nonzero;fill:rgb(96.862745%,87.058824%,80.784314%);fill-opacity:1;" d="M 13.871094 3.59375 C 13.859375 3.589844 10.207031 2.5 8.957031 2.082031 C 8.457031 1.917969 0.207031 -0.832031 0.207031 8.75 C 0.207031 9.015625 1.042969 13.332031 1.875 13.332031 L 6.457031 13.332031 C 9.949219 13.332031 8.808594 8.882812 13.089844 8.289062 C 13.816406 8.1875 14.183594 7.824219 14.117188 7.21875 C 14.050781 6.574219 13.296875 6.363281 12.644531 6.363281 C 12.167969 6.363281 10.25 6.460938 8.886719 7.175781 C 8.765625 6.421875 8.542969 5.503906 8.542969 4.582031 C 10.625 5 13.164062 5.554688 13.210938 5.570312 C 13.757812 5.753906 14.347656 5.457031 14.527344 4.910156 C 14.710938 4.367188 14.417969 3.777344 13.871094 3.59375 Z M 13.871094 3.59375 "/>
<path style=" stroke:none;fill-rule:nonzero;fill:rgb(87.843137%,66.666667%,58.039216%);fill-opacity:1;" d="M 8.003906 3.039062 C 7.839844 2.875 7.578125 2.875 7.414062 3.039062 C 7.25 3.199219 7.25 3.464844 7.414062 3.628906 C 7.421875 3.636719 8.125 4.351562 8.125 5.417969 L 8.125 8.378906 C 8.125 8.734375 7.914062 8.859375 7.71875 8.859375 C 7.511719 8.859375 7.292969 8.722656 7.292969 8.332031 L 7.292969 7.5 C 7.292969 5.929688 7.164062 4.261719 6.226562 3.792969 C 6.023438 3.691406 5.773438 3.773438 5.667969 3.980469 C 5.566406 4.183594 5.648438 4.4375 5.855469 4.539062 C 6.128906 4.675781 6.457031 5.300781 6.457031 7.5 L 6.457031 7.914062 C 6.457031 7.914062 6.457031 8.332031 6.457031 9.210938 C 6.457031 9.566406 6.246094 9.691406 6.050781 9.691406 C 5.847656 9.691406 5.625 9.554688 5.625 9.164062 L 5.625 8.332031 C 5.625 6.761719 5.5 5.09375 4.5625 4.625 C 4.355469 4.523438 4.105469 4.605469 4.003906 4.8125 C 3.898438 5.019531 3.984375 5.269531 4.1875 5.371094 C 4.464844 5.507812 4.792969 6.132812 4.792969 8.332031 L 4.792969 9.164062 C 4.792969 9.175781 4.792969 9.183594 4.792969 9.191406 C 4.792969 9.199219 4.789062 9.203125 4.789062 9.210938 C 4.789062 9.566406 4.582031 9.691406 4.386719 9.691406 C 4.179688 9.691406 3.957031 9.554688 3.957031 9.167969 C 3.957031 7.753906 3.957031 5.992188 2.894531 5.460938 C 2.6875 5.355469 2.4375 5.441406 2.335938 5.648438 C 2.234375 5.851562 2.316406 6.101562 2.523438 6.207031 C 3.125 6.507812 3.125 8.171875 3.125 9.167969 C 3.125 10.058594 3.757812 10.527344 4.386719 10.527344 C 4.6875 10.527344 4.988281 10.417969 5.21875 10.207031 C 5.453125 10.417969 5.753906 10.527344 6.050781 10.527344 C 6.566406 10.527344 7.082031 10.207031 7.238281 9.597656 C 7.390625 9.660156 7.554688 9.691406 7.71875 9.691406 C 8.332031 9.691406 8.957031 9.242188 8.957031 8.378906 L 8.957031 5.417969 C 8.957031 4.011719 8.042969 3.078125 8.003906 3.039062 Z M 8.003906 3.039062 "/>
</g>
</svg>
