<?xml version="1.0" encoding="UTF-8"?>
<svg xmlns="http://www.w3.org/2000/svg" xmlns:xlink="http://www.w3.org/1999/xlink" width="15pt" height="15pt" viewBox="0 0 15 15" version="1.1">
<g id="surface1">
<path style=" stroke:none;fill-rule:nonzero;fill:rgb(100%,86.27451%,36.470588%);fill-opacity:1;" d="M 7.980469 14.488281 C 9.132812 13.992188 9.886719 12.980469 10.332031 12.003906 C 11.027344 10.480469 13.488281 9.851562 14.101562 9.417969 C 14.949219 8.816406 14.171875 7.59375 12.910156 7.796875 C 11.546875 8.015625 11.21875 8.605469 10.398438 8.964844 C 9.980469 9.148438 9.6875 9.089844 9.628906 8.316406 C 9.589844 7.75 10.320312 3.300781 10.542969 1.25 C 10.617188 0.546875 10.328125 0.148438 9.761719 0.0742188 C 9.121094 -0.0117188 8.789062 0.335938 8.65625 0.976562 C 8.316406 2.574219 7.78125 5.703125 7.558594 5.878906 C 6.351562 6.636719 4.742188 7.628906 3.304688 5.703125 C 3.304688 5.703125 2.617188 2.09375 2.507812 1.367188 C 2.324219 0.105469 0.621094 0.332031 0.761719 1.648438 C 0.890625 2.886719 1.296875 5.808594 0.941406 6.847656 C 0.628906 7.757812 0.078125 10.890625 1.292969 12.796875 C 2.492188 14.675781 5.691406 15.46875 7.980469 14.488281 Z M 7.980469 14.488281 "/>
<path style=" stroke:none;fill-rule:nonzero;fill:rgb(93.72549%,58.823529%,27.058824%);fill-opacity:1;" d="M 3.679688 9.421875 C 4.042969 11.152344 6.132812 10.960938 6 9.308594 C 5.894531 7.96875 5.488281 5.625 5.355469 5.039062 C 5.085938 3.839844 2.996094 4.105469 3.167969 5.519531 C 3.277344 6.441406 3.402344 8.074219 3.679688 9.421875 Z M 3.679688 9.421875 "/>
<path style=" stroke:none;fill-rule:nonzero;fill:rgb(100%,86.27451%,36.470588%);fill-opacity:1;" d="M 4.066406 9.246094 C 4.398438 10.683594 5.910156 10.285156 5.835938 8.941406 C 5.757812 7.597656 5.445312 5.550781 5.351562 4.957031 C 5.128906 3.570312 3.347656 4.195312 3.492188 5.214844 C 3.636719 6.234375 3.820312 8.175781 4.066406 9.246094 Z M 4.066406 9.246094 "/>
<path style=" stroke:none;fill-rule:nonzero;fill:rgb(93.72549%,58.823529%,27.058824%);fill-opacity:1;" d="M 5.304688 9.800781 C 5.332031 11.859375 7.628906 11.746094 7.808594 10.207031 C 7.964844 8.871094 7.636719 5.921875 7.609375 5.320312 C 7.5625 4.203125 5.519531 4.195312 5.453125 5.464844 C 5.398438 6.496094 5.289062 8.699219 5.304688 9.800781 Z M 5.304688 9.800781 "/>
<path style=" stroke:none;fill-rule:nonzero;fill:rgb(100%,86.27451%,36.470588%);fill-opacity:1;" d="M 5.695312 9.859375 C 5.636719 11.140625 7.367188 11.285156 7.492188 9.945312 C 7.617188 8.609375 7.589844 5.742188 7.578125 5.144531 C 7.5625 4.097656 5.8125 4.136719 5.765625 5.417969 C 5.726562 6.449219 5.746094 8.761719 5.695312 9.859375 Z M 5.695312 9.859375 "/>
</g>
</svg>
