<?xml version="1.0" encoding="UTF-8"?>
<svg xmlns="http://www.w3.org/2000/svg" xmlns:xlink="http://www.w3.org/1999/xlink" width="15pt" height="15pt" viewBox="0 0 15 15" version="1.1">
<g id="surface1">
<path style=" stroke:none;fill-rule:nonzero;fill:rgb(82.352941%,62.745098%,46.666667%);fill-opacity:1;" d="M 7.5 13.59375 L 4.105469 10.433594 L 4.582031 7.082031 C 4.582031 6.746094 4.785156 6.457031 5.074219 6.324219 L 6.667969 6.667969 C 6.667969 6.328125 6.867188 6.039062 7.160156 5.910156 L 8.707031 6.242188 L 8.75 6.25 L 8.75 2.5 C 8.75 2.160156 8.953125 1.871094 9.242188 1.742188 L 10.746094 7.433594 L 10.832031 7.5 C 11.21875 7.5 11.550781 8.332031 11.550781 8.332031 L 11.550781 8.339844 Z M 7.5 13.59375 "/>
<path style=" stroke:none;fill-rule:nonzero;fill:rgb(95.294118%,82.352941%,63.529412%);fill-opacity:1;" d="M 6.667969 7.824219 C 6.414062 8.054688 6.25 8.378906 6.25 8.75 C 6.25 9.0625 6.371094 9.347656 6.558594 9.566406 C 6.417969 9.824219 6.148438 10 5.832031 10 C 5.375 10 5 9.625 5 9.167969 L 5 6.667969 C 5 6.542969 5.027344 6.429688 5.074219 6.324219 C 5.207031 6.035156 5.496094 5.832031 5.832031 5.832031 C 6.292969 5.832031 6.667969 6.207031 6.667969 6.667969 Z M 6.667969 7.824219 "/>
<path style=" stroke:none;fill-rule:nonzero;fill:rgb(95.294118%,82.352941%,63.529412%);fill-opacity:1;" d="M 2.917969 3.332031 C 2.917969 2.875 3.289062 2.5 3.75 2.5 C 4.210938 2.5 4.582031 2.875 4.582031 3.332031 L 4.582031 9.167969 C 4.582031 9.515625 4.742188 9.859375 5 10.09375 C 5.484375 10.492188 6.183594 10.527344 6.667969 10.089844 C 6.75 10.015625 6.828125 9.929688 6.886719 9.832031 C 6.96875 9.878906 7.082031 10 7.5 10 L 8.558594 10 C 7.804688 10.570312 7.292969 11.664062 7.292969 12.917969 C 7.292969 13.03125 7.386719 13.125 7.5 13.125 C 7.613281 13.125 7.707031 13.03125 7.707031 12.917969 C 7.707031 11.308594 8.621094 10 9.738281 10 C 10.035156 10.03125 10.09375 9.582031 9.792969 9.582031 L 7.5 9.582031 C 7.039062 9.582031 6.667969 9.210938 6.667969 8.75 C 6.667969 8.289062 7.039062 7.917969 7.5 7.917969 L 10.832031 7.917969 C 11.238281 7.917969 11.449219 8.164062 11.550781 8.339844 C 11.605469 8.429688 11.628906 8.5 11.628906 8.507812 L 12.082031 10 C 12.125 10.140625 12.28125 10.78125 12.253906 10.914062 C 12.253906 12.917969 10.296875 15 7.917969 15 C 5.191406 15 2.917969 12.8125 2.917969 10 C 2.921875 10.003906 2.917969 3.332031 2.917969 3.332031 Z M 2.917969 3.332031 "/>
<path style=" stroke:none;fill-rule:nonzero;fill:rgb(95.294118%,82.352941%,63.529412%);fill-opacity:1;" d="M 8.75 7.5 L 7.5 7.5 C 7.351562 7.5 7.214844 7.53125 7.082031 7.578125 L 7.082031 6.25 C 7.082031 6.128906 7.109375 6.011719 7.160156 5.910156 C 7.289062 5.617188 7.578125 5.417969 7.917969 5.417969 C 8.375 5.417969 8.75 5.789062 8.75 6.25 Z M 9.167969 7.5 L 9.167969 2.082031 C 9.167969 1.960938 9.195312 1.847656 9.242188 1.742188 C 9.371094 1.453125 9.660156 1.25 10 1.25 C 10.460938 1.25 10.832031 1.625 10.832031 2.082031 L 10.832031 7.5 Z M 9.167969 7.5 "/>
</g>
</svg>
