<?xml version="1.0" encoding="UTF-8"?>
<svg xmlns="http://www.w3.org/2000/svg" xmlns:xlink="http://www.w3.org/1999/xlink" width="15pt" height="15pt" viewBox="0 0 15 15" version="1.1">
<g id="surface1">
<path style=" stroke:none;fill-rule:nonzero;fill:rgb(100%,79.607843%,29.803922%);fill-opacity:1;" d="M 14.582031 7.089844 C 14.582031 11.003906 11.410156 14.175781 7.5 14.175781 C 3.589844 14.175781 0.417969 11.003906 0.417969 7.089844 C 0.417969 3.179688 3.589844 0.0078125 7.5 0.0078125 C 11.410156 0.0078125 14.582031 3.179688 14.582031 7.089844 Z M 14.582031 7.089844 "/>
<path style=" stroke:none;fill-rule:nonzero;fill:rgb(39.607843%,27.843137%,10.588235%);fill-opacity:1;" d="M 6.050781 8.765625 C 5.992188 8.714844 5.945312 8.652344 5.921875 8.570312 C 5.867188 8.378906 5.976562 8.1875 6.167969 8.144531 C 8.054688 7.722656 9.324219 8.714844 9.378906 8.757812 C 9.539062 8.882812 9.570312 9.109375 9.449219 9.257812 C 9.332031 9.40625 9.105469 9.425781 8.945312 9.300781 C 8.898438 9.265625 7.894531 8.496094 6.371094 8.839844 C 6.253906 8.867188 6.140625 8.835938 6.050781 8.765625 Z M 6.050781 8.765625 "/>
<path style=" stroke:none;fill-rule:nonzero;fill:rgb(39.607843%,27.843137%,10.588235%);fill-opacity:1;" d="M 6.351562 4.65625 C 6.351562 4.042969 5.957031 3.550781 5.464844 3.550781 C 4.976562 3.550781 4.582031 4.042969 4.582031 4.65625 C 4.582031 5.265625 4.976562 5.761719 5.464844 5.761719 C 5.957031 5.761719 6.351562 5.265625 6.351562 4.65625 Z M 6.351562 4.65625 "/>
<path style=" stroke:none;fill-rule:nonzero;fill:rgb(39.607843%,27.843137%,10.588235%);fill-opacity:1;" d="M 11.042969 5.097656 C 11.042969 4.488281 10.644531 3.992188 10.15625 3.992188 C 9.667969 3.992188 9.269531 4.488281 9.269531 5.097656 C 9.269531 5.710938 9.667969 6.203125 10.15625 6.203125 C 10.644531 6.203125 11.042969 5.710938 11.042969 5.097656 Z M 11.042969 5.097656 "/>
<path style=" stroke:none;fill-rule:nonzero;fill:rgb(94.509804%,56.470588%,12.54902%);fill-opacity:1;" d="M 7.199219 14.644531 C 7.199219 14.644531 7.726562 14.472656 7.792969 14.082031 C 7.867188 13.675781 7.535156 13.597656 7.535156 13.597656 C 7.535156 13.597656 7.96875 13.507812 8.023438 13.023438 C 8.074219 12.5625 7.664062 12.453125 7.664062 12.453125 C 7.664062 12.453125 8.066406 12.289062 8.085938 11.8125 C 8.101562 11.414062 7.671875 11.21875 7.671875 11.21875 C 7.671875 11.21875 9.769531 10.710938 9.988281 10.660156 C 10.203125 10.609375 10.535156 10.402344 10.433594 9.953125 C 10.328125 9.503906 9.929688 9.488281 9.726562 9.535156 C 9.519531 9.582031 6.914062 10.1875 6.015625 10.398438 L 5.417969 10.535156 C 5.191406 10.589844 5.089844 10.492188 5.25 10.324219 C 5.460938 10.101562 5.597656 9.851562 5.644531 9.441406 C 5.691406 9.011719 5.546875 8.480469 5.464844 8.273438 C 5.308594 7.890625 5.042969 7.585938 4.742188 7.480469 C 4.265625 7.320312 3.929688 7.613281 4.097656 8.132812 C 4.347656 8.902344 4.183594 9.539062 3.75 9.921875 C 2.730469 10.820312 2.253906 11.460938 2.570312 12.824219 C 2.917969 14.316406 4.394531 15.273438 5.886719 14.929688 Z M 7.199219 14.644531 "/>
<path style=" stroke:none;fill-rule:nonzero;fill:rgb(39.607843%,27.843137%,10.588235%);fill-opacity:1;" d="M 3.875 2.644531 C 3.804688 2.609375 3.746094 2.554688 3.710938 2.480469 C 3.621094 2.300781 3.695312 2.09375 3.875 2.015625 C 5.652344 1.253906 7.082031 2 7.140625 2.03125 C 7.324219 2.128906 7.394531 2.34375 7.304688 2.511719 C 7.214844 2.679688 6.996094 2.738281 6.816406 2.644531 C 6.765625 2.617188 5.636719 2.046875 4.199219 2.664062 C 4.09375 2.710938 3.972656 2.699219 3.875 2.644531 Z M 8.929688 4.207031 C 8.863281 4.167969 8.808594 4.109375 8.777344 4.03125 C 8.699219 3.847656 8.789062 3.644531 8.972656 3.582031 C 10.800781 2.941406 12.175781 3.78125 12.234375 3.816406 C 12.40625 3.925781 12.464844 4.144531 12.363281 4.308594 C 12.261719 4.46875 12.039062 4.515625 11.867188 4.40625 C 11.816406 4.375 10.730469 3.730469 9.253906 4.25 C 9.144531 4.285156 9.027344 4.269531 8.929688 4.207031 Z M 8.929688 4.207031 "/>
</g>
</svg>
