<?xml version="1.0" encoding="UTF-8"?>
<svg xmlns="http://www.w3.org/2000/svg" xmlns:xlink="http://www.w3.org/1999/xlink" width="15pt" height="15pt" viewBox="0 0 15 15" version="1.1">
<g id="surface1">
<path style=" stroke:none;fill-rule:nonzero;fill:rgb(100%,80%,30.196078%);fill-opacity:1;" d="M 14.167969 6.667969 C 14.167969 10.347656 11.179688 13.332031 7.5 13.332031 C 3.816406 13.332031 0.832031 10.347656 0.832031 6.667969 C 0.832031 2.984375 3.816406 0 7.5 0 C 11.179688 0 14.167969 2.984375 14.167969 6.667969 "/>
<path style=" stroke:none;fill-rule:nonzero;fill:rgb(40%,27.058824%,0%);fill-opacity:1;" d="M 10.777344 6.71875 C 10.714844 6.652344 10.621094 6.648438 10.550781 6.707031 C 10.539062 6.71875 9.175781 7.917969 7.5 7.917969 C 5.828125 7.917969 4.460938 6.71875 4.449219 6.707031 C 4.378906 6.648438 4.285156 6.652344 4.222656 6.71875 C 4.164062 6.785156 4.148438 6.898438 4.191406 6.980469 C 4.238281 7.070312 5.320312 9.167969 7.5 9.167969 C 9.679688 9.167969 10.765625 7.070312 10.808594 6.980469 C 10.851562 6.898438 10.835938 6.785156 10.777344 6.71875 Z M 10.777344 6.71875 "/>
<path style=" stroke:none;fill-rule:nonzero;fill:rgb(95.686275%,56.470588%,4.705882%);fill-opacity:1;" d="M 5.582031 9.648438 L 4.9375 8.722656 C 4.9375 8.722656 4.714844 8.363281 4.351562 8.585938 C 3.988281 8.8125 4.214844 9.175781 4.214844 9.175781 L 4.949219 10.582031 C 4.949219 10.582031 5.007812 10.902344 4.566406 10.546875 C 4.375 10.390625 4.484375 10.476562 4.484375 10.476562 L 4.300781 10.328125 L 2.011719 8.449219 C 2.011719 8.449219 1.71875 8.136719 1.445312 8.464844 C 1.175781 8.796875 1.539062 9.023438 1.539062 9.023438 L 3.703125 10.800781 C 3.652344 10.851562 3.503906 11.023438 3.453125 11.078125 L 1.136719 9.179688 C 1.136719 9.179688 0.84375 8.867188 0.570312 9.195312 C 0.300781 9.523438 0.664062 9.753906 0.664062 9.753906 L 2.980469 11.65625 C 2.9375 11.714844 2.828125 11.851562 2.789062 11.910156 L 0.792969 10.273438 C 0.792969 10.273438 0.496094 9.960938 0.226562 10.289062 C -0.046875 10.617188 0.316406 10.847656 0.316406 10.847656 L 2.441406 12.589844 C 2.414062 12.664062 2.289062 12.859375 2.269531 12.933594 L 0.738281 11.679688 C 0.738281 11.679688 0.445312 11.363281 0.175781 11.695312 C -0.0976562 12.023438 0.265625 12.253906 0.265625 12.253906 L 2.738281 14.28125 L 2.902344 14.417969 C 3.992188 15.316406 5.605469 15.15625 6.503906 14.066406 C 7.324219 13.0625 7.257812 11.625 6.402344 10.703125 C 6.097656 10.375 5.835938 10.015625 5.582031 9.648438 Z M 14.828125 11.695312 C 14.554688 11.367188 14.261719 11.679688 14.261719 11.679688 L 12.730469 12.933594 C 12.710938 12.859375 12.585938 12.664062 12.558594 12.59375 L 14.683594 10.847656 C 14.683594 10.847656 15.046875 10.621094 14.777344 10.289062 C 14.503906 9.960938 14.210938 10.273438 14.210938 10.273438 L 12.214844 11.910156 C 12.171875 11.851562 12.0625 11.714844 12.023438 11.65625 L 14.335938 9.753906 C 14.335938 9.753906 14.699219 9.527344 14.429688 9.195312 C 14.160156 8.867188 13.863281 9.179688 13.863281 9.179688 L 11.546875 11.078125 C 11.5 11.023438 11.347656 10.851562 11.296875 10.800781 L 13.460938 9.023438 C 13.460938 9.023438 13.824219 8.796875 13.554688 8.464844 C 13.285156 8.136719 12.988281 8.449219 12.988281 8.449219 L 10.699219 10.328125 L 10.515625 10.476562 C 10.515625 10.476562 10.929688 10.128906 10.433594 10.546875 C 9.941406 10.964844 10.054688 10.582031 10.054688 10.582031 L 10.785156 9.175781 C 10.785156 9.175781 11.011719 8.8125 10.652344 8.589844 C 10.289062 8.363281 10.0625 8.722656 10.0625 8.722656 L 9.421875 9.648438 C 9.167969 10.015625 8.902344 10.378906 8.597656 10.703125 C 7.742188 11.628906 7.675781 13.0625 8.5 14.066406 C 9.394531 15.15625 11.007812 15.316406 12.097656 14.417969 L 12.265625 14.285156 L 14.734375 12.253906 C 14.734375 12.253906 15.097656 12.027344 14.828125 11.695312 Z M 14.828125 11.695312 "/>
<path style=" stroke:none;fill-rule:nonzero;fill:rgb(40%,27.058824%,0%);fill-opacity:1;" d="M 11.53125 4.578125 C 11.511719 4.527344 10.996094 3.332031 9.941406 3.332031 C 8.882812 3.332031 8.371094 4.527344 8.347656 4.578125 C 8.316406 4.65625 8.335938 4.746094 8.398438 4.800781 C 8.460938 4.851562 8.550781 4.855469 8.617188 4.804688 C 8.621094 4.800781 9.066406 4.464844 9.941406 4.464844 C 10.804688 4.464844 11.253906 4.796875 11.261719 4.804688 C 11.292969 4.828125 11.332031 4.839844 11.367188 4.839844 C 11.410156 4.839844 11.449219 4.828125 11.480469 4.800781 C 11.542969 4.746094 11.566406 4.65625 11.53125 4.578125 Z M 6.949219 4.578125 C 6.925781 4.527344 6.414062 3.332031 5.355469 3.332031 C 4.300781 3.332031 3.785156 4.527344 3.765625 4.578125 C 3.730469 4.65625 3.753906 4.746094 3.816406 4.800781 C 3.878906 4.851562 3.96875 4.855469 4.035156 4.804688 C 4.039062 4.800781 4.484375 4.464844 5.355469 4.464844 C 6.222656 4.464844 6.667969 4.796875 6.679688 4.804688 C 6.710938 4.828125 6.746094 4.839844 6.785156 4.839844 C 6.824219 4.839844 6.863281 4.828125 6.894531 4.800781 C 6.960938 4.746094 6.980469 4.65625 6.949219 4.578125 Z M 6.949219 4.578125 "/>
<path style=" stroke:none;fill-rule:nonzero;fill:rgb(70.980392%,31.372549%,1.960784%);fill-opacity:1;" d="M 4.660156 10.617188 C 4.660156 10.617188 3.578125 11.996094 4.859375 13.722656 C 4.949219 13.84375 5.171875 13.785156 5.078125 13.644531 C 4.972656 13.496094 3.933594 12.023438 4.910156 10.707031 C 4.910156 10.707031 4.753906 10.6875 4.660156 10.617188 Z M 10.320312 10.65625 C 10.320312 10.65625 11.398438 12.039062 10.117188 13.765625 C 10.027344 13.882812 9.804688 13.824219 9.898438 13.6875 C 10.003906 13.535156 11.046875 12.0625 10.066406 10.746094 C 10.066406 10.746094 10.226562 10.726562 10.320312 10.65625 Z M 10.320312 10.65625 "/>
</g>
</svg>
