<?xml version="1.0" encoding="UTF-8"?>
<svg xmlns="http://www.w3.org/2000/svg" xmlns:xlink="http://www.w3.org/1999/xlink" width="15pt" height="15pt" viewBox="0 0 15 15" version="1.1">
<g id="surface1">
<path style=" stroke:none;fill-rule:nonzero;fill:rgb(100%,80%,30.196078%);fill-opacity:1;" d="M 15 7.5 C 15 11.640625 11.640625 15 7.5 15 C 3.359375 15 0 11.640625 0 7.5 C 0 3.359375 3.359375 0 7.5 0 C 11.640625 0 15 3.359375 15 7.5 Z M 15 7.5 "/>
<path style=" stroke:none;fill-rule:nonzero;fill:rgb(40%,27.058824%,0%);fill-opacity:1;" d="M 5.847656 6.042969 C 5.847656 6.847656 5.382812 7.5 4.804688 7.5 C 4.230469 7.5 3.765625 6.847656 3.765625 6.042969 C 3.765625 5.234375 4.230469 4.582031 4.804688 4.582031 C 5.382812 4.582031 5.847656 5.234375 5.847656 6.042969 M 11.265625 6.042969 C 11.265625 6.847656 10.796875 7.5 10.222656 7.5 C 9.648438 7.5 9.179688 6.847656 9.179688 6.042969 C 9.179688 5.234375 9.648438 4.582031 10.222656 4.582031 C 10.796875 4.582031 11.265625 5.234375 11.265625 6.042969 M 10.417969 11.25 L 4.167969 11.25 C 3.75 11.25 3.75 10.835938 3.75 10.835938 L 3.75 10.417969 C 3.75 10.417969 3.75 10 4.167969 10 L 10.417969 10 Z M 10.417969 11.25 "/>
<path style=" stroke:none;fill-rule:nonzero;fill:rgb(60%,66.666667%,70.980392%);fill-opacity:1;" d="M 14.691406 10.867188 L 11.476562 9.984375 C 11.175781 9.902344 11.039062 10.105469 10.988281 10.210938 L 10.304688 9.886719 L 10 10.523438 L 10 9.582031 L 9.167969 9.582031 L 9.167969 10.417969 L 8.332031 10.417969 L 8.332031 9.582031 L 7.5 9.582031 L 7.5 10.417969 L 6.667969 10.417969 L 6.667969 9.582031 L 5.832031 9.582031 L 5.832031 10.417969 L 5 10.417969 L 5 9.582031 L 4.167969 9.582031 L 4.167969 10.832031 L 5 10.832031 L 5 11.667969 L 5.832031 11.667969 L 5.832031 10.832031 L 6.667969 10.832031 L 6.667969 11.667969 L 7.5 11.667969 L 7.5 10.832031 L 8.332031 10.832031 L 8.332031 11.667969 L 9.167969 11.667969 L 9.167969 10.832031 L 9.851562 10.832031 L 9.609375 11.339844 L 10.296875 11.667969 L 10.253906 11.753906 C 10.253906 11.753906 10.152344 12.058594 10.410156 12.285156 C 10.667969 12.507812 12.613281 14.257812 12.613281 14.257812 C 12.613281 14.257812 12.988281 14.617188 13.347656 14.289062 C 13.65625 14.011719 14.871094 11.78125 14.980469 11.378906 C 15.089844 10.980469 14.691406 10.867188 14.691406 10.867188 Z M 13.117188 13.398438 L 12.015625 12.460938 L 12.6875 11.183594 L 14.078125 11.652344 Z M 13.117188 13.398438 "/>
</g>
</svg>
