<?xml version="1.0" encoding="UTF-8"?>
<svg xmlns="http://www.w3.org/2000/svg" xmlns:xlink="http://www.w3.org/1999/xlink" width="15pt" height="15pt" viewBox="0 0 15 15" version="1.1">
<g id="surface1">
<path style=" stroke:none;fill-rule:nonzero;fill:rgb(82.352941%,62.745098%,46.666667%);fill-opacity:1;" d="M 10.984375 7.714844 L 10.828125 7.496094 L 8.890625 4.777344 L 9.839844 4.777344 L 10.054688 4.207031 L 10.054688 1.75 L 9.148438 1.75 L 8.886719 2.234375 L 7.386719 2.480469 C 7.132812 2.699219 7.019531 3.058594 7.144531 3.394531 L 7.859375 5.363281 L 7.859375 6.5625 L 7.054688 7.582031 C 7.023438 7.597656 6.796875 7.714844 6.734375 7.765625 L 6.667969 7.824219 L 5.160156 6.175781 C 4.820312 6.328125 4.582031 6.667969 4.582031 7.066406 L 4.582031 7.464844 L 2.917969 9.203125 L 2.921875 10.113281 L 7.082031 14.582031 C 7.082031 14.582031 11.464844 8.214844 11.476562 8.226562 C 11.355469 8.015625 11.1875 7.839844 10.984375 7.714844 Z M 10.984375 7.714844 "/>
<path style=" stroke:none;fill-rule:nonzero;fill:rgb(95.294118%,82.352941%,63.529412%);fill-opacity:1;" d="M 3.777344 10.417969 C 4.203125 10.417969 4.578125 10.199219 4.796875 9.867188 C 4.847656 9.941406 4.910156 10.011719 4.976562 10.074219 C 5.46875 10.539062 6.242188 10.507812 6.710938 10.035156 C 6.777344 9.972656 6.839844 9.910156 6.886719 9.832031 C 6.96875 9.878906 7.082031 10 7.5 10 L 8.558594 10 C 8.402344 10.117188 8.261719 10.257812 8.128906 10.417969 C 7.617188 11.027344 7.292969 11.917969 7.292969 12.917969 C 7.292969 13.03125 7.386719 13.125 7.5 13.125 C 7.613281 13.125 7.707031 13.03125 7.707031 12.917969 C 7.707031 11.855469 8.105469 10.925781 8.699219 10.417969 C 9.003906 10.152344 9.359375 10 9.738281 10 C 10.035156 10.03125 10.09375 9.582031 9.792969 9.582031 L 7.5 9.582031 C 7.039062 9.582031 6.667969 9.210938 6.667969 8.75 C 6.667969 8.289062 7.039062 7.917969 7.5 7.917969 L 10.832031 7.917969 C 11.191406 7.917969 11.523438 8.164062 11.628906 8.507812 L 12.082031 10 C 12.125 10.140625 12.28125 10.78125 12.253906 10.914062 C 12.253906 12.917969 10.296875 15 7.917969 15 C 5.191406 15 2.980469 12.820312 2.921875 10.109375 L 2.929688 10.113281 C 3.144531 10.300781 3.417969 10.417969 3.722656 10.417969 Z M 7.5 7.5 C 7.207031 7.5 7.054688 7.585938 7.054688 7.585938 L 7.859375 5.363281 L 8.636719 7.5 Z M 7.5 7.5 "/>
<path style=" stroke:none;fill-rule:nonzero;fill:rgb(95.294118%,82.352941%,63.529412%);fill-opacity:1;" d="M 3.714844 6.667969 L 3.785156 6.667969 C 4.226562 6.667969 4.582031 7.023438 4.582031 7.464844 L 4.582031 9.203125 C 4.582031 9.640625 4.226562 10 3.785156 10 L 3.714844 10 C 3.273438 10 2.917969 9.640625 2.917969 9.203125 L 2.917969 7.464844 C 2.917969 7.023438 3.273438 6.667969 3.714844 6.667969 Z M 6.597656 7.898438 L 6.574219 7.925781 C 6.375 8.144531 6.25 8.429688 6.25 8.75 C 6.25 8.777344 6.253906 8.800781 6.257812 8.828125 C 6.277344 9.109375 6.386719 9.367188 6.5625 9.566406 C 6.53125 9.621094 6.492188 9.667969 6.453125 9.714844 C 6.300781 9.886719 6.082031 10 5.832031 10 C 5.375 10 5 9.625 5 9.167969 L 5 6.667969 C 5 6.484375 5.0625 6.316406 5.160156 6.175781 C 5.3125 5.96875 5.558594 5.832031 5.832031 5.832031 C 6.292969 5.832031 6.667969 6.207031 6.667969 6.667969 L 6.667969 7.824219 C 6.640625 7.847656 6.621094 7.875 6.597656 7.898438 Z M 9.261719 1.542969 C 9.445312 1.167969 9.886719 0.980469 10.289062 1.128906 C 10.722656 1.285156 10.945312 1.765625 10.785156 2.195312 L 10.054688 4.207031 L 9.148438 1.75 Z M 10.832031 7.5 L 9.839844 4.777344 L 8.976562 2.40625 C 8.953125 2.34375 8.921875 2.289062 8.886719 2.234375 C 8.679688 1.917969 8.277344 1.773438 7.90625 1.910156 C 7.640625 2.003906 7.453125 2.226562 7.386719 2.480469 C 7.347656 2.640625 7.347656 2.8125 7.410156 2.976562 L 9.054688 7.5 Z M 10.832031 7.5 "/>
</g>
</svg>
