<?xml version="1.0" encoding="UTF-8"?>
<svg xmlns="http://www.w3.org/2000/svg" xmlns:xlink="http://www.w3.org/1999/xlink" width="15pt" height="15pt" viewBox="0 0 15 15" version="1.1">
<g id="surface1">
<path style=" stroke:none;fill-rule:nonzero;fill:rgb(71.764706%,54.509804%,37.647059%);fill-opacity:1;" d="M 6.457031 1.234375 C 7.035156 1.234375 7.5 1.703125 7.5 2.277344 L 8.542969 0.195312 C 9.117188 0.195312 9.582031 0.660156 9.582031 1.234375 L 9.582031 1.769531 L 10.625 1.132812 C 11.199219 1.132812 11.667969 1.597656 11.667969 2.171875 L 11.667969 3.644531 L 12.082031 7.5 L 6.441406 7.5 Z M 6.457031 1.234375 "/>
<path style=" stroke:none;fill-rule:nonzero;fill:rgb(83.529412%,67.058824%,53.333333%);fill-opacity:1;" d="M 1.925781 6.757812 C 2.503906 6.503906 3.324219 6.84375 3.90625 7.667969 C 4.289062 8.210938 4.402344 8.984375 4.902344 9.0625 C 5.09375 9.09375 5.417969 8.933594 5.417969 8.480469 L 5.417969 1.875 C 5.417969 1.875 5.417969 1.042969 6.25 1.042969 C 7.082031 1.042969 7.082031 1.875 7.082031 1.875 L 7.082031 6.722656 C 7.082031 6.710938 7.5 6.695312 7.5 6.6875 L 7.5 0.832031 C 7.5 0.832031 7.5 0 8.332031 0 C 9.167969 0 9.167969 0.832031 9.167969 0.832031 L 9.167969 6.6875 C 9.167969 6.695312 9.582031 6.707031 9.582031 6.71875 L 9.582031 1.769531 C 9.582031 1.769531 9.582031 0.9375 10.417969 0.9375 C 11.25 0.9375 11.25 1.769531 11.25 1.769531 L 11.25 7.035156 C 11.25 7.085938 11.667969 7.140625 11.667969 7.203125 L 11.667969 3.644531 C 11.667969 3.644531 11.667969 2.8125 12.5 2.8125 C 13.332031 2.8125 13.332031 3.644531 13.332031 3.644531 L 13.332031 10 C 13.332031 12.761719 11.09375 15 8.332031 15 C 6.34375 15 4.976562 13.917969 4.210938 12.796875 C 3.5625 11.84375 3.375 10.855469 3.332031 10.554688 C 3.332031 10.554688 3.28125 9.941406 2.851562 9.363281 C 2.238281 8.542969 1.808594 8.046875 1.550781 7.75 C 1.417969 7.601562 1.289062 7.039062 1.925781 6.757812 Z M 1.925781 6.757812 "/>
</g>
</svg>
