<?xml version="1.0" encoding="UTF-8"?>
<svg xmlns="http://www.w3.org/2000/svg" xmlns:xlink="http://www.w3.org/1999/xlink" width="15pt" height="15pt" viewBox="0 0 15 15" version="1.1">
<g id="surface1">
<path style=" stroke:none;fill-rule:nonzero;fill:rgb(100%,80%,30.196078%);fill-opacity:1;" d="M 15 7.5 C 15 11.640625 11.640625 15 7.5 15 C 3.359375 15 0 11.640625 0 7.5 C 0 3.359375 3.359375 0 7.5 0 C 11.640625 0 15 3.359375 15 7.5 Z M 15 7.5 "/>
<path style=" stroke:none;fill-rule:nonzero;fill:rgb(40%,27.058824%,0%);fill-opacity:1;" d="M 6.25 6.875 C 6.25 6.070312 5.785156 5.417969 5.207031 5.417969 C 4.632812 5.417969 4.167969 6.070312 4.167969 6.875 C 4.167969 7.679688 4.632812 8.332031 5.207031 8.332031 C 5.785156 8.332031 6.25 7.679688 6.25 6.875 Z M 6.25 6.875 "/>
<path style=" stroke:none;fill-rule:nonzero;fill:rgb(40%,27.058824%,0%);fill-opacity:1;" d="M 10.832031 6.875 C 10.832031 6.070312 10.367188 5.417969 9.792969 5.417969 C 9.214844 5.417969 8.75 6.070312 8.75 6.875 C 8.75 7.679688 9.214844 8.332031 9.792969 8.332031 C 10.367188 8.332031 10.832031 7.679688 10.832031 6.875 Z M 10.832031 6.875 "/>
<path style=" stroke:none;fill-rule:nonzero;fill:rgb(40%,27.058824%,0%);fill-opacity:1;" d="M 12.082031 5 C 9.769531 5 8.832031 3.179688 8.792969 3.101562 C 8.691406 2.898438 8.773438 2.648438 8.980469 2.542969 C 9.183594 2.441406 9.433594 2.523438 9.539062 2.726562 C 9.570312 2.789062 10.296875 4.167969 12.082031 4.167969 C 12.3125 4.167969 12.5 4.351562 12.5 4.582031 C 12.5 4.8125 12.3125 5 12.082031 5 Z M 2.917969 4.996094 C 2.6875 4.996094 2.5 4.8125 2.5 4.582031 C 2.5 4.351562 2.6875 4.164062 2.917969 4.164062 C 5.035156 4.164062 5.414062 2.863281 5.429688 2.808594 C 5.492188 2.589844 5.71875 2.457031 5.9375 2.511719 C 6.160156 2.570312 6.292969 2.792969 6.238281 3.015625 C 6.21875 3.097656 5.710938 4.996094 2.917969 4.996094 Z M 2.917969 4.996094 "/>
<path style=" stroke:none;fill-rule:nonzero;fill:rgb(100%,67.45098%,20%);fill-opacity:1;" d="M 14.988281 7.113281 L 13.316406 7.449219 L 6.574219 11.828125 L 9.539062 12.230469 L 14.40625 9.226562 C 14.699219 9.046875 14.820312 8.878906 14.90625 8.496094 C 14.992188 8.117188 14.988281 7.113281 14.988281 7.113281 Z M 14.988281 7.113281 "/>
<path style=" stroke:none;fill-rule:nonzero;fill:rgb(40%,27.058824%,0%);fill-opacity:1;" d="M 9.785156 12.242188 C 9.78125 12.222656 9.308594 11.042969 7.5 11.042969 C 5.691406 11.042969 5.21875 12.222656 5.214844 12.242188 C 5.191406 12.328125 5.234375 12.421875 5.3125 12.46875 C 5.390625 12.515625 5.492188 12.503906 5.558594 12.441406 C 5.5625 12.441406 5.980469 12.082031 7.5 12.082031 C 8.996094 12.082031 9.421875 12.429688 9.441406 12.441406 C 9.480469 12.480469 9.53125 12.5 9.582031 12.5 C 9.617188 12.5 9.652344 12.492188 9.6875 12.472656 C 9.765625 12.425781 9.808594 12.332031 9.785156 12.242188 Z M 9.785156 12.242188 "/>
<path style=" stroke:none;fill-rule:nonzero;fill:rgb(80%,83.921569%,86.666667%);fill-opacity:1;" d="M 14.78125 6.554688 C 14.433594 6.09375 13.78125 6 13.320312 6.34375 L 6.152344 11.722656 C 6.421875 11.621094 6.78125 11.539062 7.242188 11.507812 C 7.347656 11.5 8.351562 11.246094 8.351562 11.246094 L 8.890625 11.675781 C 8.890625 11.675781 9.269531 11.828125 9.386719 11.902344 L 14.574219 8.011719 C 15.03125 7.667969 15.125 7.015625 14.78125 6.554688 Z M 14.78125 6.554688 "/>
<path style=" stroke:none;fill-rule:nonzero;fill:rgb(85.490196%,18.431373%,27.843137%);fill-opacity:1;" d="M 11.953125 8.695312 C 11.765625 8.449219 11.625 8.21875 11.375 8.40625 L 7.242188 11.507812 C 7.347656 11.5 7.449219 11.488281 7.566406 11.488281 C 8.136719 11.484375 8.566406 11.570312 8.890625 11.675781 L 12.050781 9.304688 C 12.300781 9.117188 12.140625 8.945312 11.953125 8.695312 Z M 11.953125 8.695312 "/>
<path style=" stroke:none;fill-rule:nonzero;fill:rgb(40.392157%,45.882353%,49.803922%);fill-opacity:1;" d="M 7.75 10.511719 L 8.265625 11.175781 L 8.574219 10.929688 L 8.074219 10.269531 Z M 8.675781 9.820312 L 9.191406 10.484375 L 9.5 10.238281 L 9 9.578125 Z M 9.585938 9.144531 L 10.101562 9.8125 L 10.410156 9.5625 L 9.910156 8.902344 Z M 10.496094 8.453125 L 11.007812 9.117188 L 11.316406 8.871094 L 10.820312 8.210938 Z M 11.425781 7.769531 L 11.941406 8.433594 L 12.25 8.1875 L 11.75 7.527344 Z M 12.320312 7.09375 L 12.832031 7.761719 L 13.140625 7.511719 L 12.644531 6.851562 Z M 12.320312 7.09375 "/>
<path style=" stroke:none;fill-rule:nonzero;fill:rgb(27.058824%,18.039216%,1.568627%);fill-opacity:1;" d="M 9.386719 11.902344 L 9.722656 12.117188 C 9.722656 12.117188 9.640625 11.96875 9.503906 11.816406 Z M 9.386719 11.902344 "/>
</g>
</svg>
