<?xml version="1.0" encoding="UTF-8"?>
<svg xmlns="http://www.w3.org/2000/svg" xmlns:xlink="http://www.w3.org/1999/xlink" width="15pt" height="15pt" viewBox="0 0 15 15" version="1.1">
<g id="surface1">
<path style=" stroke:none;fill-rule:nonzero;fill:rgb(93.72549%,58.823529%,27.058824%);fill-opacity:1;" d="M 7.082031 7.5 C 7.082031 7.5 4.570312 9.699219 3.859375 10.347656 C 3.308594 10.847656 4.226562 11.804688 4.746094 11.367188 C 6.136719 10.207031 7.453125 9.347656 7.453125 9.347656 L 7.605469 9.566406 C 7.0625 9.894531 5.652344 10.757812 4.917969 11.414062 C 4.367188 11.910156 5.238281 12.894531 5.792969 12.402344 C 6.550781 11.71875 8.289062 10.5 8.289062 10.5 L 8.441406 10.660156 C 7.992188 10.941406 7.289062 11.46875 6.367188 12.308594 C 5.808594 12.816406 6.625 13.34375 7.101562 12.949219 C 8.398438 11.871094 8.445312 11.121094 9.875 10.511719 C 12.054688 9.578125 7.082031 7.5 7.082031 7.5 Z M 7.082031 7.5 "/>
<path style=" stroke:none;fill-rule:nonzero;fill:rgb(100%,80%,30.196078%);fill-opacity:1;" d="M 12.492188 3.683594 C 12.859375 3.5 13.179688 3.742188 13.367188 4.121094 C 13.554688 4.5 14.421875 6.210938 14.597656 6.566406 C 14.777344 6.921875 14.679688 7.441406 14.300781 7.628906 C 13.921875 7.816406 13.367188 8.070312 13.011719 8.675781 C 12.816406 9.007812 12.011719 9.878906 9.832031 10.8125 C 8.40625 11.421875 7.265625 12.453125 6.808594 12.8125 C 6.4375 13.105469 5.691406 12.546875 6.246094 12.042969 C 7.171875 11.199219 7.875 10.675781 8.324219 10.394531 L 8.171875 10.234375 C 8.171875 10.234375 6.347656 11.503906 5.570312 12.171875 C 5.046875 12.621094 4.347656 11.773438 4.898438 11.277344 C 5.632812 10.621094 6.941406 9.628906 7.488281 9.300781 L 7.335938 9.082031 C 7.335938 9.082031 5.90625 10.011719 4.515625 11.171875 C 4.054688 11.558594 3.332031 10.6875 3.882812 10.1875 C 4.59375 9.539062 5.984375 8.378906 6.835938 7.894531 L 6.753906 7.640625 C 6.753906 7.640625 5.414062 8.394531 4.257812 9.515625 C 3.84375 9.914062 3.015625 9.171875 3.621094 8.558594 C 5.0625 7.089844 6.9375 6.222656 7.433594 5.886719 C 8.105469 5.4375 8.457031 5.15625 8.105469 5 C 7.574219 4.757812 6.691406 3.921875 6.351562 3.246094 C 5.910156 2.367188 6.535156 1.671875 7.226562 2.367188 C 7.667969 2.804688 8.542969 3.683594 9.421875 3.683594 C 10.597656 3.683594 10.78125 4.121094 11.613281 4.121094 C 12.054688 4.121094 12.492188 3.683594 12.492188 3.683594 "/>
<path style=" stroke:none;fill-rule:nonzero;fill:rgb(93.72549%,58.823529%,27.058824%);fill-opacity:1;" d="M 10.4375 6.320312 C 10.296875 6.320312 9.835938 6.257812 9.316406 6.015625 C 8.871094 5.8125 8.523438 5.4375 8.234375 5.125 C 8.253906 5.191406 8.210938 5.273438 8.117188 5.367188 C 8.402344 5.695312 8.835938 6.074219 9.222656 6.261719 C 9.675781 6.480469 10.1875 6.589844 10.421875 6.582031 C 10.660156 6.570312 10.582031 6.320312 10.4375 6.320312 Z M 11.339844 9.894531 C 10.394531 9.457031 9.648438 9.089844 10.933594 9.621094 C 11.464844 9.839844 12.265625 8.761719 11.480469 8.402344 C 9.90625 7.683594 5 5 5 5 C 5 5 2.347656 8.097656 2.675781 8.296875 C 3.003906 8.496094 3.140625 9.902344 5.035156 11.136719 C 6.828125 12.308594 7.941406 12.8125 8.359375 13.019531 C 9.238281 13.460938 9.808594 12.320312 9.125 12.015625 C 7.945312 11.488281 7.984375 11.457031 9.714844 12.175781 C 10.355469 12.441406 10.894531 11.238281 10.21875 10.933594 C 9.207031 10.480469 9.117188 10.425781 10.734375 11.152344 C 11.332031 11.421875 12.015625 10.210938 11.339844 9.894531 Z M 11.339844 9.894531 "/>
<path style=" stroke:none;fill-rule:nonzero;fill:rgb(100%,86.27451%,36.470588%);fill-opacity:1;" d="M 2.953125 3.867188 C 2.601562 3.652344 2.136719 3.757812 1.917969 4.121094 C 1.699219 4.484375 0.742188 6.074219 0.535156 6.414062 C 0.332031 6.753906 0.382812 7.28125 0.746094 7.5 C 1.109375 7.71875 1.765625 8.113281 2.09375 8.3125 C 2.421875 8.511719 3.765625 10.175781 5.703125 11.34375 C 7.640625 12.515625 8.355469 12.714844 8.792969 12.886719 C 9.230469 13.054688 9.808594 12.183594 9.121094 11.878906 C 7.941406 11.351562 7.109375 10.863281 6.683594 10.542969 L 6.8125 10.300781 C 6.8125 10.300781 7.996094 11.183594 9.726562 11.902344 C 10.367188 12.167969 10.886719 11.171875 10.210938 10.867188 C 9.203125 10.414062 7.957031 9.660156 7.441406 9.289062 L 7.585938 9.050781 C 7.585938 9.050781 9.230469 10.089844 10.84375 10.816406 C 11.441406 11.085938 11.941406 10.074219 11.265625 9.757812 C 10.324219 9.320312 8.996094 8.527344 8.1875 7.976562 L 8.328125 7.765625 C 8.328125 7.765625 9.832031 8.832031 11.121094 9.359375 C 11.652344 9.582031 12.277344 8.585938 11.496094 8.226562 C 9.921875 7.507812 8.136719 6.25 7.667969 5.875 C 7.285156 5.566406 7.175781 4.871094 8.105469 4.558594 C 9.421875 4.121094 9.859375 3.242188 9.859375 2.804688 C 9.859375 2.183594 9.285156 1.910156 8.984375 2.367188 C 8.105469 3.683594 7.664062 3.234375 6.789062 3.683594 C 5.742188 4.21875 4.511719 4.789062 3.800781 4.359375 C 3.492188 4.175781 2.953125 3.867188 2.953125 3.867188 "/>
<path style=" stroke:none;fill-rule:nonzero;fill:rgb(100%,80%,30.196078%);fill-opacity:1;" d="M 7.894531 4.882812 L 10.15625 3.753906 C 9.957031 3.710938 9.722656 3.683594 9.421875 3.683594 C 8.542969 3.683594 7.667969 2.804688 7.226562 2.367188 C 6.535156 1.671875 5.914062 2.367188 6.351562 3.242188 C 6.648438 3.839844 7.363281 4.554688 7.894531 4.882812 Z M 7.894531 4.882812 "/>
</g>
</svg>
