<?xml version="1.0" encoding="UTF-8"?>
<svg xmlns="http://www.w3.org/2000/svg" xmlns:xlink="http://www.w3.org/1999/xlink" width="15pt" height="15pt" viewBox="0 0 15 15" version="1.1">
<g id="surface1">
<path style=" stroke:none;fill-rule:nonzero;fill:rgb(95.686275%,56.470588%,4.705882%);fill-opacity:1;" d="M 15 6.042969 C 15 5.234375 14.535156 4.582031 13.957031 4.582031 C 13.382812 4.582031 12.917969 5.234375 12.917969 6.042969 C 12.917969 6.847656 13.382812 7.5 13.957031 7.5 C 14.535156 7.5 15 6.847656 15 6.042969 Z M 15 6.042969 "/>
<path style=" stroke:none;fill-rule:nonzero;fill:rgb(95.686275%,56.470588%,4.705882%);fill-opacity:1;" d="M 2.082031 6.042969 C 2.082031 5.234375 1.617188 4.582031 1.042969 4.582031 C 0.464844 4.582031 0 5.234375 0 6.042969 C 0 6.847656 0.464844 7.5 1.042969 7.5 C 1.617188 7.5 2.082031 6.847656 2.082031 6.042969 Z M 2.082031 6.042969 "/>
<path style=" stroke:none;fill-rule:nonzero;fill:rgb(100%,67.45098%,20%);fill-opacity:1;" d="M 14.167969 7.917969 C 14.167969 8.148438 13.980469 8.332031 13.75 8.332031 L 12.5 8.332031 C 12.269531 8.332031 12.082031 8.148438 12.082031 7.917969 L 12.082031 4.167969 C 12.082031 3.9375 12.269531 3.75 12.5 3.75 L 13.75 3.75 C 13.980469 3.75 14.167969 3.9375 14.167969 4.167969 Z M 2.917969 7.917969 C 2.917969 8.148438 2.730469 8.332031 2.5 8.332031 L 1.25 8.332031 C 1.019531 8.332031 0.832031 8.148438 0.832031 7.917969 L 0.832031 4.167969 C 0.832031 3.9375 1.019531 3.75 1.25 3.75 L 2.5 3.75 C 2.730469 3.75 2.917969 3.9375 2.917969 4.167969 Z M 2.917969 7.917969 "/>
<path style=" stroke:none;fill-rule:nonzero;fill:rgb(100%,80%,30.196078%);fill-opacity:1;" d="M 11.667969 2.082031 C 11.667969 3.234375 9.800781 3.75 7.5 3.75 C 5.199219 3.75 3.332031 3.234375 3.332031 2.082031 C 3.332031 0.933594 5.199219 0 7.5 0 C 9.800781 0 11.667969 0.933594 11.667969 2.082031 Z M 11.667969 2.082031 "/>
<path style=" stroke:none;fill-rule:nonzero;fill:rgb(95.686275%,56.470588%,4.705882%);fill-opacity:1;" d="M 10.417969 1.703125 C 10.417969 2.371094 9.109375 2.917969 7.5 2.917969 C 5.890625 2.917969 4.582031 2.371094 4.582031 1.703125 C 4.582031 1.03125 5.890625 0.484375 7.5 0.484375 C 9.109375 0.484375 10.417969 1.03125 10.417969 1.703125 Z M 10.417969 1.703125 "/>
<path style=" stroke:none;fill-rule:nonzero;fill:rgb(13.333333%,40%,60%);fill-opacity:1;" d="M 12.5 2.292969 C 12.5 2.867188 12.035156 2.917969 11.457031 2.917969 L 3.542969 2.917969 C 2.964844 2.917969 2.5 2.867188 2.5 2.292969 C 2.5 1.714844 2.964844 1.25 3.542969 1.25 L 11.457031 1.25 C 12.035156 1.25 12.5 1.714844 12.5 2.292969 Z M 12.5 2.292969 "/>
<path style=" stroke:none;fill-rule:nonzero;fill:rgb(33.333333%,67.45098%,93.333333%);fill-opacity:1;" d="M 12.5 2.5 L 2.5 2.5 C 2.039062 2.5 1.667969 2.875 1.667969 3.332031 L 1.667969 14.167969 L 13.332031 14.167969 L 13.332031 3.332031 C 13.332031 2.875 12.960938 2.5 12.5 2.5 Z M 12.5 2.5 "/>
<path style=" stroke:none;fill-rule:nonzero;fill:rgb(23.137255%,53.333333%,76.470588%);fill-opacity:1;" d="M 14.582031 13.75 L 14.582031 13.332031 C 14.582031 12.875 14.210938 12.5 13.75 12.5 L 9.195312 12.5 L 7.792969 13.902344 C 7.632812 14.066406 7.367188 14.066406 7.207031 13.902344 L 5.804688 12.5 L 1.25 12.5 C 0.789062 12.5 0.417969 12.875 0.417969 13.332031 L 0.417969 13.75 C 0.417969 14.210938 0.375 14.582031 0.832031 14.582031 L 14.167969 14.582031 C 14.625 14.582031 14.582031 14.210938 14.582031 13.75 Z M 14.582031 13.75 "/>
<path style=" stroke:none;fill-rule:nonzero;fill:rgb(100%,100%,100%);fill-opacity:1;" d="M 12.082031 6.042969 C 12.082031 7.078125 11.242188 7.917969 10.207031 7.917969 C 9.171875 7.917969 8.332031 7.078125 8.332031 6.042969 C 8.332031 5.007812 9.171875 4.167969 10.207031 4.167969 C 11.242188 4.167969 12.082031 5.007812 12.082031 6.042969 Z M 12.082031 6.042969 "/>
<path style=" stroke:none;fill-rule:nonzero;fill:rgb(86.666667%,18.039216%,26.666667%);fill-opacity:1;" d="M 11.34375 6.042969 C 11.34375 6.667969 10.835938 7.175781 10.207031 7.175781 C 9.582031 7.175781 9.074219 6.667969 9.074219 6.042969 C 9.074219 5.414062 9.582031 4.90625 10.207031 4.90625 C 10.835938 4.90625 11.34375 5.414062 11.34375 6.042969 Z M 11.34375 6.042969 "/>
<path style=" stroke:none;fill-rule:nonzero;fill:rgb(100%,100%,100%);fill-opacity:1;" d="M 6.667969 6.042969 C 6.667969 7.078125 5.828125 7.917969 4.792969 7.917969 C 3.757812 7.917969 2.917969 7.078125 2.917969 6.042969 C 2.917969 5.007812 3.757812 4.167969 4.792969 4.167969 C 5.828125 4.167969 6.667969 5.007812 6.667969 6.042969 Z M 6.667969 6.042969 "/>
<path style=" stroke:none;fill-rule:nonzero;fill:rgb(96.078431%,97.254902%,98.039216%);fill-opacity:1;" d="M 12.082031 10.625 C 12.082031 11.199219 11.617188 11.667969 11.042969 11.667969 L 3.957031 11.667969 C 3.382812 11.667969 2.917969 11.199219 2.917969 10.625 C 2.917969 10.050781 3.382812 9.582031 3.957031 9.582031 L 11.042969 9.582031 C 11.617188 9.582031 12.082031 10.050781 12.082031 10.625 Z M 12.082031 10.625 "/>
<path style=" stroke:none;fill-rule:nonzero;fill:rgb(80%,83.921569%,86.666667%);fill-opacity:1;" d="M 7.082031 9.582031 L 7.917969 9.582031 L 7.917969 11.667969 L 7.082031 11.667969 Z M 5 9.582031 L 5.832031 9.582031 L 5.832031 11.667969 L 5 11.667969 Z M 9.167969 9.582031 L 10 9.582031 L 10 11.667969 L 9.167969 11.667969 Z M 2.917969 10.625 C 2.917969 11.128906 3.273438 11.550781 3.75 11.644531 L 3.75 9.605469 C 3.273438 9.699219 2.917969 10.121094 2.917969 10.625 Z M 11.25 9.605469 L 11.25 11.644531 C 11.726562 11.546875 12.082031 11.128906 12.082031 10.625 C 12.082031 10.121094 11.726562 9.699219 11.25 9.605469 Z M 11.25 9.605469 "/>
<path style=" stroke:none;fill-rule:nonzero;fill:rgb(86.666667%,18.039216%,26.666667%);fill-opacity:1;" d="M 5.925781 6.042969 C 5.925781 6.667969 5.417969 7.175781 4.792969 7.175781 C 4.164062 7.175781 3.65625 6.667969 3.65625 6.042969 C 3.65625 5.414062 4.164062 4.90625 4.792969 4.90625 C 5.417969 4.90625 5.925781 5.414062 5.925781 6.042969 Z M 5.925781 6.042969 "/>
</g>
</svg>
