<?xml version="1.0" encoding="UTF-8"?>
<svg xmlns="http://www.w3.org/2000/svg" xmlns:xlink="http://www.w3.org/1999/xlink" width="15pt" height="15pt" viewBox="0 0 15 15" version="1.1">
<g id="surface1">
<path style=" stroke:none;fill-rule:nonzero;fill:rgb(96.862745%,87.058824%,80.784314%);fill-opacity:1;" d="M 3.5 2.578125 C 4.839844 2.929688 8.058594 3.875 8.828125 4.203125 C 10.59375 4.964844 11.953125 6.414062 11.929688 8.039062 C 11.902344 9.796875 11.191406 10.933594 8.644531 11.394531 C 6.058594 11.859375 4.375 11.992188 3.382812 12.140625 C 1.945312 12.351562 1.582031 10.222656 3.101562 10.035156 C 3.101562 10.035156 1.78125 9.847656 0.96875 9.757812 C 0.0117188 9.652344 -0.0625 8.878906 0.144531 7.851562 C 0.359375 6.796875 1.101562 4.976562 1.476562 4.042969 C 1.953125 2.851562 2.433594 2.296875 3.5 2.578125 Z M 3.5 2.578125 "/>
<path style=" stroke:none;fill-rule:nonzero;fill:rgb(87.843137%,66.666667%,58.039216%);fill-opacity:1;" d="M 2.140625 11.289062 C 2.140625 11.289062 2.015625 10.152344 3.125 10.035156 C 3.777344 9.96875 4.65625 9.863281 4.992188 9.824219 C 5.5625 9.757812 5.683594 9.265625 5.535156 8.839844 C 5.390625 8.417969 4.5 6.214844 4.285156 5.65625 C 4.125 5.238281 3.714844 5.378906 3.566406 5.683594 C 3.285156 6.238281 2.804688 7.285156 2.738281 7.453125 C 2.59375 7.839844 3.046875 8.105469 3.257812 7.71875 C 3.402344 7.457031 3.9375 6.203125 3.9375 6.203125 C 3.9375 6.203125 4.9375 8.613281 5.042969 8.917969 C 5.136719 9.183594 5.015625 9.34375 4.75 9.382812 C 4.484375 9.425781 3.300781 9.566406 2.941406 9.625 C 2.339844 9.71875 1.886719 10.316406 2.140625 11.289062 Z M 2.140625 11.289062 "/>
<path style=" stroke:none;fill-rule:nonzero;fill:rgb(87.843137%,66.666667%,58.039216%);fill-opacity:1;" d="M 3.207031 7.332031 C 3.207031 7.332031 3.632812 7.519531 3.964844 7.640625 C 4.296875 7.761719 4.179688 8.226562 3.832031 8.132812 C 3.484375 8.039062 2.925781 7.894531 2.925781 7.894531 Z M 1.742188 3.9375 C 1.902344 3.59375 2.289062 3.789062 2.195312 4.070312 C 2.101562 4.351562 0.6875 7.71875 0.554688 8.066406 C 0.421875 8.414062 0.210938 8.332031 0.316406 7.972656 C 0.421875 7.613281 1.542969 4.363281 1.742188 3.9375 Z M 1.742188 3.9375 "/>
<path style=" stroke:none;fill-rule:nonzero;fill:rgb(87.843137%,66.666667%,58.039216%);fill-opacity:1;" d="M 3.9375 6.203125 C 3.777344 6.785156 3.960938 7.488281 4.121094 7.800781 L 3.109375 7.429688 Z M 3.9375 6.203125 "/>
<path style=" stroke:none;fill-rule:nonzero;fill:rgb(96.862745%,87.058824%,80.784314%);fill-opacity:1;" d="M 8.855469 4.234375 C 10.199219 4.664062 12.035156 4.707031 13.664062 4.554688 C 14.503906 4.476562 15 4.472656 15 5.152344 L 15 9.570312 C 15 10.398438 14.722656 10.390625 13.828125 10.273438 C 12.46875 10.089844 11.703125 9.761719 10.402344 10.832031 C 9.496094 11.582031 6.332031 3.417969 8.855469 4.234375 Z M 8.855469 4.234375 "/>
</g>
</svg>
