<?xml version="1.0" encoding="UTF-8"?>
<svg xmlns="http://www.w3.org/2000/svg" xmlns:xlink="http://www.w3.org/1999/xlink" width="15pt" height="15pt" viewBox="0 0 15 15" version="1.1">
<g id="surface1">
<path style=" stroke:none;fill-rule:nonzero;fill:rgb(100%,80%,30.196078%);fill-opacity:1;" d="M 15 7.5 C 15 11.640625 11.640625 15 7.5 15 C 3.359375 15 0 11.640625 0 7.5 C 0 3.359375 3.359375 0 7.5 0 C 11.640625 0 15 3.359375 15 7.5 Z M 15 7.5 "/>
<path style=" stroke:none;fill-rule:nonzero;fill:rgb(40%,27.058824%,0%);fill-opacity:1;" d="M 11.390625 9.84375 C 11.316406 9.777344 11.203125 9.773438 11.125 9.832031 C 11.109375 9.84375 9.492188 11.042969 7.5 11.042969 C 5.515625 11.042969 3.890625 9.84375 3.875 9.832031 C 3.796875 9.773438 3.683594 9.777344 3.609375 9.84375 C 3.535156 9.910156 3.519531 10.023438 3.570312 10.105469 C 3.625 10.195312 4.910156 12.292969 7.5 12.292969 C 10.089844 12.292969 11.375 10.195312 11.429688 10.105469 C 11.480469 10.023438 11.464844 9.910156 11.390625 9.84375 Z M 11.390625 9.84375 "/>
<path style=" stroke:none;fill-rule:nonzero;fill:rgb(39.607843%,27.843137%,10.588235%);fill-opacity:1;" d="M 7.5 11.078125 C 7.4375 11.078125 7.378906 11.074219 7.316406 11.074219 L 7.316406 12.953125 L 7.683594 12.953125 L 7.683594 11.074219 C 7.621094 11.074219 7.5625 11.078125 7.5 11.078125 Z M 7.5 11.078125 "/>
<path style=" stroke:none;fill-rule:nonzero;fill:rgb(100%,100%,100%);fill-opacity:1;" d="M 9.167969 10.832031 C 9.171875 10.832031 8.5625 10.992188 8.148438 11.035156 C 7.996094 11.054688 7.839844 11.066406 7.683594 11.074219 L 7.683594 12.953125 L 8.332031 12.953125 C 8.792969 12.953125 9.167969 12.578125 9.167969 12.121094 Z M 5.832031 10.832031 C 5.828125 10.832031 6.4375 10.992188 6.851562 11.035156 C 7.003906 11.054688 7.160156 11.066406 7.316406 11.074219 L 7.316406 12.953125 L 6.667969 12.953125 C 6.207031 12.953125 5.832031 12.578125 5.832031 12.121094 Z M 5.832031 10.832031 "/>
<path style=" stroke:none;fill-rule:nonzero;fill:rgb(39.607843%,27.843137%,10.588235%);fill-opacity:1;" d="M 11.390625 9.84375 C 11.316406 9.777344 11.203125 9.773438 11.125 9.832031 C 11.113281 9.84375 10.183594 10.527344 8.871094 10.863281 C 8.6875 10.910156 8.09375 11.042969 7.5 11.042969 C 6.90625 11.042969 6.3125 10.910156 6.128906 10.863281 C 4.816406 10.527344 3.886719 9.84375 3.875 9.832031 C 3.796875 9.773438 3.683594 9.777344 3.609375 9.84375 C 3.535156 9.910156 3.519531 10.023438 3.570312 10.105469 C 3.613281 10.175781 4.355469 11.386719 5.832031 11.972656 L 5.832031 11.210938 C 5.828125 11.210938 6.4375 11.371094 6.851562 11.414062 C 7.003906 11.433594 7.160156 11.445312 7.316406 11.453125 C 7.378906 11.453125 7.4375 11.457031 7.5 11.457031 C 7.5625 11.457031 7.621094 11.453125 7.683594 11.453125 C 7.839844 11.445312 7.996094 11.433594 8.148438 11.414062 C 8.5625 11.371094 9.171875 11.210938 9.167969 11.210938 L 9.167969 11.972656 C 10.644531 11.386719 11.390625 10.175781 11.429688 10.105469 C 11.480469 10.023438 11.464844 9.910156 11.390625 9.84375 Z M 11.09375 5.84375 C 11.09375 6.558594 10.703125 7.136719 10.21875 7.136719 C 9.738281 7.136719 9.347656 6.558594 9.347656 5.84375 C 9.347656 5.128906 9.738281 4.550781 10.21875 4.550781 C 10.703125 4.550781 11.09375 5.128906 11.09375 5.84375 Z M 3.941406 5.84375 C 3.941406 6.558594 4.332031 7.136719 4.8125 7.136719 C 5.296875 7.136719 5.6875 6.558594 5.6875 5.84375 C 5.6875 5.128906 5.296875 4.550781 4.8125 4.550781 C 4.332031 4.550781 3.941406 5.128906 3.941406 5.84375 Z M 3.941406 5.84375 "/>
<path style=" stroke:none;fill-rule:nonzero;fill:rgb(16.078431%,18.431373%,20%);fill-opacity:1;" d="M 14.503906 4.011719 C 14.433594 3.941406 13.976562 4.125 13.511719 3.890625 C 12.558594 3.402344 10.152344 2.933594 8.582031 4.046875 C 8.414062 4.164062 7.714844 4.183594 7.515625 4.175781 C 7.320312 4.1875 6.617188 4.164062 6.449219 4.046875 C 4.882812 2.933594 2.472656 3.402344 1.519531 3.890625 C 1.058594 4.125 0.601562 3.941406 0.53125 4.011719 C 0.425781 4.109375 0.425781 4.507812 0.53125 4.609375 C 0.632812 4.710938 1.144531 4.824219 1.25 5.121094 C 1.351562 5.421875 1.351562 7.1875 2.171875 7.800781 C 2.9375 8.371094 4.722656 8.542969 5.855469 7.898438 C 6.84375 7.335938 6.8125 6.152344 6.992188 5.449219 C 7.058594 5.195312 7.238281 5.070312 7.515625 5.070312 C 7.796875 5.070312 7.976562 5.195312 8.042969 5.449219 C 8.222656 6.152344 8.1875 7.335938 9.175781 7.898438 C 10.308594 8.542969 12.097656 8.371094 12.863281 7.800781 C 13.683594 7.1875 13.683594 5.421875 13.785156 5.121094 C 13.886719 4.824219 14.402344 4.707031 14.503906 4.609375 C 14.605469 4.507812 14.605469 4.109375 14.503906 4.011719 Z M 6.089844 5.53125 C 6.058594 5.992188 5.976562 6.875 5.421875 7.191406 C 5.085938 7.382812 4.644531 7.5 4.183594 7.5 C 3.671875 7.5 2.964844 7.355469 2.691406 7.148438 C 2.34375 6.890625 2.210938 5.828125 2.164062 5.433594 C 2.128906 5.179688 2.046875 4.5625 2.324219 4.464844 C 2.765625 4.316406 3.382812 4.199219 4.011719 4.199219 C 4.300781 4.199219 5.269531 4.214844 5.742188 4.507812 C 6.164062 4.765625 6.105469 5.277344 6.089844 5.53125 Z M 12.871094 5.425781 C 12.820312 5.824219 12.691406 6.890625 12.34375 7.148438 C 12.066406 7.355469 11.359375 7.5 10.851562 7.5 L 10.847656 7.5 C 10.386719 7.5 9.949219 7.382812 9.609375 7.191406 C 9.058594 6.878906 8.976562 6 8.945312 5.539062 C 8.925781 5.285156 8.871094 4.765625 9.289062 4.507812 C 9.761719 4.21875 10.734375 4.199219 11.019531 4.199219 C 11.652344 4.199219 12.265625 4.3125 12.710938 4.464844 C 12.988281 4.558594 12.902344 5.171875 12.871094 5.425781 Z M 12.871094 5.425781 "/>
</g>
</svg>
