<?xml version="1.0" encoding="UTF-8"?>
<svg xmlns="http://www.w3.org/2000/svg" xmlns:xlink="http://www.w3.org/1999/xlink" width="15pt" height="15pt" viewBox="0 0 15 15" version="1.1">
<g id="surface1">
<path style=" stroke:none;fill-rule:nonzero;fill:rgb(68.627451%,49.411765%,34.117647%);fill-opacity:1;" d="M 0.746094 6.605469 C 1.359375 5.511719 2.316406 4.585938 3.292969 4.140625 C 4.816406 3.445312 5.445312 0.980469 5.878906 0.371094 C 6.484375 -0.476562 7.703125 0.300781 7.5 1.5625 C 7.28125 2.925781 6.691406 3.253906 6.332031 4.074219 C 6.148438 4.492188 6.207031 4.785156 6.980469 4.84375 C 7.753906 4.898438 9.894531 5.105469 10 5.527344 C 10.257812 6.554688 6.753906 9.046875 9.59375 11.167969 C 9.59375 11.167969 13.203125 11.855469 13.929688 11.964844 C 15.191406 12.148438 14.964844 13.851562 13.648438 13.710938 C 12.410156 13.582031 9.382812 12.949219 8.449219 13.53125 C 7.703125 13.996094 4.910156 14.617188 2.429688 13.222656 C -0.046875 11.832031 -0.515625 8.851562 0.746094 6.605469 Z M 0.746094 6.605469 "/>
<path style=" stroke:none;fill-rule:nonzero;fill:rgb(56.470588%,37.647059%,24.313725%);fill-opacity:1;" d="M 5.875 10.792969 C 4.144531 10.429688 4.335938 8.339844 5.988281 8.472656 C 7.328125 8.578125 9.671875 8.984375 10.257812 9.117188 C 11.457031 9.386719 11.191406 11.476562 9.777344 11.304688 C 8.855469 11.195312 7.222656 11.070312 5.875 10.792969 Z M 5.875 10.792969 "/>
<path style=" stroke:none;fill-rule:nonzero;fill:rgb(68.627451%,49.411765%,34.117647%);fill-opacity:1;" d="M 6.050781 10.40625 C 4.613281 10.074219 5.011719 8.5625 6.355469 8.636719 C 7.699219 8.714844 9.746094 9.027344 10.339844 9.121094 C 11.726562 9.34375 11.101562 11.125 10.082031 10.980469 C 9.0625 10.835938 7.121094 10.652344 6.050781 10.40625 Z M 6.050781 10.40625 "/>
<path style=" stroke:none;fill-rule:nonzero;fill:rgb(56.470588%,37.647059%,24.313725%);fill-opacity:1;" d="M 5.496094 9.167969 C 3.4375 9.140625 3.550781 6.84375 5.089844 6.664062 C 6.425781 6.507812 9.375 6.835938 9.976562 6.863281 C 11.09375 6.910156 11.101562 8.953125 9.832031 9.019531 C 8.800781 9.074219 6.597656 9.183594 5.496094 9.167969 Z M 5.496094 9.167969 "/>
<path style=" stroke:none;fill-rule:nonzero;fill:rgb(68.627451%,49.411765%,34.117647%);fill-opacity:1;" d="M 5.4375 8.777344 C 4.15625 8.835938 4.011719 7.105469 5.347656 6.980469 C 6.6875 6.855469 9.554688 6.882812 10.152344 6.894531 C 11.199219 6.910156 11.160156 8.65625 9.878906 8.707031 C 8.847656 8.746094 6.535156 8.726562 5.4375 8.777344 Z M 5.4375 8.777344 "/>
<path style=" stroke:none;fill-rule:nonzero;fill:rgb(56.470588%,37.647059%,24.313725%);fill-opacity:1;" d="M 5.324219 7.390625 C 3.472656 7.605469 3.421875 5.246094 4.757812 5.101562 C 6.648438 4.898438 7.507812 5.203125 7.640625 5.171875 C 8.792969 4.902344 9.792969 4.9375 10 5.527344 C 10.175781 6.035156 9.839844 6.863281 9.179688 6.949219 C 8.15625 7.082031 6.417969 7.261719 5.324219 7.390625 Z M 5.324219 7.390625 "/>
<path style=" stroke:none;fill-rule:nonzero;fill:rgb(68.627451%,49.411765%,34.117647%);fill-opacity:1;" d="M 5.398438 7.023438 C 4.121094 7.128906 3.796875 5.519531 5.113281 5.246094 C 6.433594 4.972656 8.320312 4.824219 9.082031 4.792969 C 10.253906 4.738281 10.460938 6.445312 9.191406 6.636719 C 8.171875 6.789062 6.699219 6.917969 5.398438 7.023438 Z M 5.398438 7.023438 "/>
</g>
</svg>
