<?xml version="1.0" encoding="UTF-8"?>
<svg xmlns="http://www.w3.org/2000/svg" xmlns:xlink="http://www.w3.org/1999/xlink" width="15pt" height="15pt" viewBox="0 0 15 15" version="1.1">
<g id="surface1">
<path style=" stroke:none;fill-rule:nonzero;fill:rgb(100%,80%,30.196078%);fill-opacity:1;" d="M 14.84375 5.972656 L 9.640625 0.3125 C 8.960938 0.113281 8.246094 0 7.5 0 C 6.511719 0 5.574219 0.195312 4.710938 0.542969 L 0.5625 4.65625 C 0.203125 5.535156 0 6.492188 0 7.5 C 0 11.640625 3.359375 15 7.5 15 C 11.640625 15 15 11.640625 15 7.5 C 15 6.976562 14.945312 6.464844 14.84375 5.972656 Z M 14.84375 5.972656 "/>
<path style=" stroke:none;fill-rule:nonzero;fill:rgb(40%,27.058824%,0%);fill-opacity:1;" d="M 5.417969 11.667969 C 5.417969 11.667969 5.832031 10 7.5 10 C 9.167969 10 9.582031 11.667969 9.582031 11.667969 C 9.582031 11.667969 9.167969 11.25 7.5 11.25 C 5.832031 11.25 5.417969 11.667969 5.417969 11.667969 Z M 12.066406 7.414062 C 12.039062 7.359375 11.441406 6.042969 10.207031 6.042969 C 8.976562 6.042969 8.375 7.359375 8.351562 7.414062 C 8.3125 7.5 8.339844 7.601562 8.410156 7.660156 C 8.484375 7.722656 8.589844 7.722656 8.664062 7.667969 C 8.671875 7.664062 9.191406 7.292969 10.207031 7.292969 C 11.21875 7.292969 11.738281 7.660156 11.75 7.667969 C 11.789062 7.695312 11.832031 7.707031 11.875 7.707031 C 11.921875 7.707031 11.96875 7.691406 12.003906 7.664062 C 12.078125 7.605469 12.105469 7.503906 12.066406 7.414062 Z M 6.648438 7.414062 C 6.625 7.359375 6.023438 6.042969 4.792969 6.042969 C 3.558594 6.042969 2.960938 7.359375 2.933594 7.414062 C 2.894531 7.5 2.921875 7.601562 2.996094 7.660156 C 3.066406 7.722656 3.171875 7.722656 3.25 7.667969 C 3.253906 7.664062 3.773438 7.292969 4.792969 7.292969 C 5.800781 7.292969 6.324219 7.660156 6.335938 7.667969 C 6.371094 7.695312 6.414062 7.707031 6.457031 7.707031 C 6.503906 7.707031 6.550781 7.691406 6.589844 7.664062 C 6.664062 7.605469 6.6875 7.503906 6.648438 7.414062 Z M 6.648438 7.414062 "/>
<path style=" stroke:none;fill-rule:nonzero;fill:rgb(90.196078%,90.588235%,90.980392%);fill-opacity:1;" d="M 14.574219 5.027344 C 14.519531 4.867188 14.460938 4.703125 14.394531 4.546875 C 14.246094 4.199219 14.066406 3.871094 13.871094 3.554688 C 13.761719 3.378906 13.644531 3.207031 13.523438 3.042969 C 13.355469 2.816406 13.175781 2.601562 12.984375 2.394531 C 12.863281 2.265625 12.734375 2.136719 12.605469 2.015625 L 12.554688 1.96875 C 12.285156 1.722656 12.003906 1.488281 11.699219 1.285156 C 11.515625 1.160156 11.324219 1.046875 11.132812 0.9375 C 10.664062 0.679688 10.164062 0.46875 9.640625 0.3125 L 6.546875 0.875 L 4.710938 0.542969 C 4.261719 0.722656 3.832031 0.945312 3.429688 1.207031 C 3.273438 1.308594 3.125 1.414062 2.980469 1.527344 L 2.929688 1.5625 C 2.632812 1.792969 2.355469 2.039062 2.09375 2.308594 C 1.992188 2.414062 1.890625 2.523438 1.796875 2.636719 C 1.777344 2.65625 1.761719 2.675781 1.746094 2.691406 C 1.621094 2.84375 1.503906 3 1.390625 3.160156 C 1.316406 3.265625 1.242188 3.375 1.171875 3.484375 C 1.03125 3.707031 0.90625 3.933594 0.789062 4.167969 C 0.707031 4.328125 0.628906 4.488281 0.5625 4.65625 L 4.082031 4.015625 L 14.84375 5.972656 C 14.777344 5.648438 14.683594 5.335938 14.574219 5.027344 Z M 14.574219 5.027344 "/>
<path style=" stroke:none;fill-rule:nonzero;fill:rgb(73.72549%,74.509804%,75.294118%);fill-opacity:1;" d="M 14.394531 4.546875 L 7.78125 3.34375 L 10.242188 2.894531 L 11.476562 2.671875 L 12.984375 2.394531 C 12.863281 2.265625 12.734375 2.136719 12.605469 2.015625 L 10.242188 2.445312 L 9.011719 2.671875 L 6.546875 3.117188 L 5.316406 3.34375 L 2.851562 3.792969 L 0.789062 4.167969 C 0.707031 4.328125 0.628906 4.488281 0.5625 4.65625 L 4.082031 4.015625 L 6.546875 3.566406 L 14.574219 5.027344 C 14.519531 4.867188 14.460938 4.703125 14.394531 4.546875 Z M 14.394531 4.546875 "/>
<path style=" stroke:none;fill-rule:nonzero;fill:rgb(81.960784%,82.745098%,83.137255%);fill-opacity:1;" d="M 11.476562 2.671875 L 13.523438 3.042969 C 13.644531 3.207031 13.761719 3.378906 13.871094 3.554688 L 10.246094 2.894531 Z M 3.429688 1.207031 C 3.273438 1.308594 3.125 1.414062 2.980469 1.527344 L 4.082031 1.324219 Z M 11.132812 0.9375 L 9.011719 1.324219 L 6.546875 1.773438 L 5.316406 1.996094 L 2.851562 2.445312 L 1.796875 2.636719 C 1.777344 2.65625 1.761719 2.675781 1.746094 2.691406 C 1.621094 2.84375 1.503906 3 1.390625 3.160156 L 2.851562 2.894531 L 4.082031 2.671875 L 6.546875 2.222656 L 7.777344 1.996094 L 10.242188 1.550781 L 11.699219 1.285156 C 11.515625 1.160156 11.324219 1.046875 11.132812 0.9375 Z M 11.132812 0.9375 "/>
</g>
</svg>
