<?xml version="1.0" encoding="UTF-8"?>
<svg xmlns="http://www.w3.org/2000/svg" xmlns:xlink="http://www.w3.org/1999/xlink" width="15pt" height="15pt" viewBox="0 0 15 15" version="1.1">
<g id="surface1">
<path style=" stroke:none;fill-rule:nonzero;fill:rgb(100%,80%,30.196078%);fill-opacity:1;" d="M 15 7.5 C 15 11.640625 11.640625 15 7.5 15 C 3.359375 15 0 11.640625 0 7.5 C 0 3.359375 3.359375 0 7.5 0 C 11.640625 0 15 3.359375 15 7.5 "/>
<path style=" stroke:none;fill-rule:nonzero;fill:rgb(40%,27.058824%,0%);fill-opacity:1;" d="M 2.917969 8.859375 C 2.917969 10.511719 4.832031 12.609375 7.5 12.609375 C 10.167969 12.609375 12.082031 10.527344 12.082031 8.859375 C 12.082031 8.859375 7.777344 10.007812 2.917969 8.859375 Z M 2.917969 8.859375 "/>
<path style=" stroke:none;fill-rule:nonzero;fill:rgb(36.470588%,56.470588%,25.098039%);fill-opacity:1;" d="M 5 9.585938 L 5 12.484375 C 5 13.734375 5.832031 14.984375 7.5 14.984375 C 9.167969 14.984375 10 13.734375 10 12.484375 L 10 9.601562 C 7.378906 10.140625 5 9.585938 5 9.585938 Z M 5 9.585938 "/>
<path style=" stroke:none;fill-rule:nonzero;fill:rgb(40%,27.058824%,0%);fill-opacity:1;" d="M 5.117188 5.136719 C 4.804688 5.015625 4.503906 4.902344 4.503906 4.734375 C 4.503906 4.460938 4.875 4.445312 4.949219 4.445312 C 5.207031 4.445312 5.335938 4.542969 5.453125 4.628906 C 5.539062 4.695312 5.628906 4.765625 5.757812 4.765625 C 5.992188 4.765625 6.097656 4.597656 6.097656 4.445312 C 6.097656 4.136719 5.722656 3.921875 5.324219 3.832031 L 5.324219 3.667969 C 5.324219 3.449219 5.148438 3.277344 4.933594 3.277344 C 4.71875 3.277344 4.542969 3.449219 4.542969 3.667969 L 4.542969 3.84375 C 4.066406 3.984375 3.773438 4.332031 3.773438 4.777344 C 3.773438 5.320312 4.3125 5.546875 4.785156 5.742188 C 5.128906 5.886719 5.449219 6.019531 5.449219 6.226562 C 5.449219 6.378906 5.257812 6.546875 4.949219 6.546875 C 4.636719 6.546875 4.457031 6.421875 4.296875 6.308594 C 4.1875 6.234375 4.085938 6.160156 3.960938 6.160156 C 3.78125 6.160156 3.644531 6.3125 3.644531 6.503906 C 3.644531 6.789062 4.03125 7.070312 4.542969 7.167969 L 4.542969 7.363281 C 4.542969 7.582031 4.71875 7.753906 4.933594 7.753906 C 5.148438 7.753906 5.324219 7.582031 5.324219 7.363281 L 5.320312 7.15625 C 5.863281 7.027344 6.179688 6.648438 6.179688 6.132812 C 6.183594 5.546875 5.59375 5.320312 5.117188 5.136719 Z M 11.121094 6.140625 C 11.121094 5.554688 10.53125 5.328125 10.058594 5.144531 C 9.746094 5.023438 9.445312 4.90625 9.445312 4.742188 C 9.445312 4.464844 9.816406 4.453125 9.890625 4.453125 C 10.148438 4.453125 10.277344 4.550781 10.394531 4.636719 C 10.480469 4.703125 10.570312 4.769531 10.695312 4.769531 C 10.933594 4.769531 11.039062 4.605469 11.039062 4.453125 C 11.039062 4.144531 10.664062 3.929688 10.265625 3.835938 L 10.265625 3.675781 C 10.265625 3.457031 10.089844 3.28125 9.875 3.28125 C 9.660156 3.28125 9.484375 3.457031 9.484375 3.675781 L 9.484375 3.851562 C 9.007812 3.992188 8.714844 4.339844 8.714844 4.78125 C 8.714844 5.328125 9.253906 5.554688 9.726562 5.75 C 10.066406 5.890625 10.390625 6.027344 10.390625 6.234375 C 10.390625 6.386719 10.199219 6.550781 9.890625 6.550781 C 9.578125 6.550781 9.398438 6.425781 9.238281 6.316406 C 9.128906 6.242188 9.027344 6.167969 8.902344 6.167969 C 8.722656 6.167969 8.585938 6.320312 8.585938 6.511719 C 8.585938 6.796875 8.972656 7.078125 9.484375 7.175781 L 9.484375 7.371094 C 9.484375 7.589844 9.660156 7.761719 9.875 7.761719 C 10.089844 7.761719 10.265625 7.589844 10.265625 7.371094 L 10.265625 7.164062 C 10.804688 7.03125 11.121094 6.65625 11.121094 6.140625 Z M 11.121094 6.140625 "/>
<path style=" stroke:none;fill-rule:nonzero;fill:rgb(100%,100%,100%);fill-opacity:1;" d="M 8.738281 12.945312 C 8.738281 12.375 8.164062 12.152344 7.703125 11.976562 C 7.394531 11.855469 7.105469 11.746094 7.105469 11.582031 C 7.105469 11.3125 7.460938 11.300781 7.535156 11.300781 C 7.789062 11.300781 7.914062 11.394531 8.027344 11.480469 C 8.113281 11.542969 8.199219 11.609375 8.324219 11.609375 C 8.550781 11.609375 8.65625 11.449219 8.65625 11.300781 C 8.65625 11 8.289062 10.789062 7.902344 10.703125 L 7.902344 10.542969 C 7.902344 10.332031 7.730469 10.160156 7.519531 10.160156 C 7.308594 10.160156 7.140625 10.332031 7.140625 10.542969 L 7.140625 10.714844 C 6.675781 10.847656 6.390625 11.191406 6.390625 11.621094 C 6.390625 12.15625 6.914062 12.375 7.378906 12.566406 C 7.710938 12.703125 8.023438 12.835938 8.023438 13.039062 C 8.023438 13.1875 7.835938 13.347656 7.535156 13.347656 C 7.230469 13.347656 7.054688 13.226562 6.902344 13.117188 C 6.796875 13.042969 6.695312 12.972656 6.574219 12.972656 C 6.398438 12.972656 6.261719 13.121094 6.261719 13.308594 C 6.261719 13.585938 6.640625 13.859375 7.136719 13.957031 L 7.136719 14.148438 C 7.136719 14.355469 7.308594 14.527344 7.519531 14.527344 C 7.730469 14.527344 7.902344 14.355469 7.902344 14.148438 L 7.902344 13.945312 C 8.425781 13.816406 8.738281 13.449219 8.738281 12.945312 Z M 8.738281 12.945312 "/>
</g>
</svg>
