<?xml version="1.0" encoding="UTF-8"?>
<svg xmlns="http://www.w3.org/2000/svg" xmlns:xlink="http://www.w3.org/1999/xlink" width="15pt" height="15pt" viewBox="0 0 15 15" version="1.1">
<g id="surface1">
<path style=" stroke:none;fill-rule:nonzero;fill:rgb(100%,79.607843%,29.803922%);fill-opacity:1;" d="M 12.804688 2.195312 C 15.730469 5.125 15.730469 9.875 12.804688 12.804688 C 9.875 15.730469 5.125 15.730469 2.195312 12.804688 C -0.730469 9.875 -0.730469 5.125 2.195312 2.195312 C 5.125 -0.730469 9.875 -0.730469 12.804688 2.195312 "/>
<path style=" stroke:none;fill-rule:nonzero;fill:rgb(39.607843%,27.843137%,10.588235%);fill-opacity:1;" d="M 8.03125 8.035156 C 6.578125 9.488281 5.441406 10.285156 4.015625 11.246094 C 3.6875 11.46875 3.210938 12.050781 4.015625 12.855469 C 5.621094 14.460938 9.476562 14.625 12.050781 12.050781 C 14.625 9.476562 14.460938 5.621094 12.855469 4.015625 C 12.050781 3.210938 11.46875 3.6875 11.246094 4.015625 C 10.285156 5.441406 9.488281 6.578125 8.03125 8.035156 Z M 8.03125 8.035156 "/>
<path style=" stroke:none;fill-rule:nonzero;fill:rgb(100%,100%,100%);fill-opacity:1;" d="M 4.816406 12.050781 C 4.816406 12.050781 6.425781 11.246094 8.835938 8.835938 C 11.246094 6.425781 12.050781 4.816406 12.050781 4.816406 C 12.050781 4.816406 12.855469 7.230469 10.042969 10.042969 C 7.230469 12.855469 4.816406 12.050781 4.816406 12.050781 Z M 4.816406 12.050781 "/>
<path style=" stroke:none;fill-rule:nonzero;fill:rgb(39.607843%,27.843137%,10.588235%);fill-opacity:1;" d="M 10.125 2.773438 C 10.066406 2.78125 9.136719 2.921875 8.066406 3.453125 C 8.039062 3.410156 8.011719 3.367188 7.972656 3.332031 C 7.863281 3.222656 7.726562 3.167969 7.582031 3.15625 C 7.960938 2.46875 8.40625 2.015625 8.417969 2.007812 C 8.578125 1.84375 8.578125 1.578125 8.414062 1.417969 C 8.253906 1.253906 7.988281 1.253906 7.828125 1.417969 C 7.761719 1.484375 6.230469 3.035156 6.230469 4.953125 C 6.230469 5.121094 6.332031 5.273438 6.488281 5.339844 C 6.644531 5.402344 6.824219 5.367188 6.941406 5.246094 C 8.296875 3.894531 10.222656 3.601562 10.242188 3.597656 C 10.335938 3.585938 10.417969 3.542969 10.476562 3.480469 C 10.566406 3.390625 10.617188 3.261719 10.597656 3.125 C 10.5625 2.898438 10.351562 2.742188 10.125 2.773438 Z M 4.878906 6.304688 C 2.960938 6.304688 1.410156 7.835938 1.34375 7.898438 C 1.183594 8.0625 1.183594 8.324219 1.34375 8.488281 C 1.507812 8.652344 1.769531 8.652344 1.933594 8.488281 C 1.941406 8.480469 2.398438 8.035156 3.082031 7.65625 C 3.09375 7.796875 3.152344 7.9375 3.261719 8.046875 C 3.296875 8.082031 3.335938 8.113281 3.378906 8.136719 C 2.847656 9.207031 2.707031 10.140625 2.699219 10.199219 C 2.667969 10.425781 2.824219 10.636719 3.054688 10.667969 C 3.1875 10.6875 3.316406 10.640625 3.40625 10.550781 C 3.46875 10.488281 3.511719 10.410156 3.523438 10.316406 C 3.527344 10.296875 3.816406 8.375 5.175781 7.015625 C 5.292969 6.898438 5.328125 6.71875 5.265625 6.5625 C 5.199219 6.40625 5.046875 6.304688 4.878906 6.304688 Z M 4.878906 6.304688 "/>
<path style=" stroke:none;fill-rule:nonzero;fill:rgb(39.215686%,66.666667%,86.666667%);fill-opacity:1;" d="M 12.542969 5.023438 C 13.683594 5.160156 14.722656 4.347656 14.863281 3.207031 C 15 2.0625 14.1875 1.027344 13.046875 0.886719 C 11.902344 0.746094 8.707031 2.039062 8.65625 2.453125 C 8.609375 2.863281 11.398438 4.882812 12.542969 5.023438 Z M 5.066406 12.5 C 5.203125 13.640625 4.390625 14.679688 3.25 14.820312 C 2.105469 14.957031 1.066406 14.144531 0.929688 13.003906 C 0.789062 11.859375 2.078125 8.664062 2.492188 8.613281 C 2.90625 8.566406 4.925781 11.359375 5.066406 12.5 Z M 5.066406 12.5 "/>
</g>
</svg>
