<?xml version="1.0" encoding="UTF-8"?>
<svg xmlns="http://www.w3.org/2000/svg" xmlns:xlink="http://www.w3.org/1999/xlink" width="15pt" height="15pt" viewBox="0 0 15 15" version="1.1">
<g id="surface1">
<path style=" stroke:none;fill-rule:nonzero;fill:rgb(85.490196%,18.431373%,27.843137%);fill-opacity:1;" d="M 15 7.5 C 15 11.640625 11.640625 15 7.5 15 C 3.359375 15 0 11.640625 0 7.5 C 0 3.359375 3.359375 0 7.5 0 C 11.640625 0 15 3.359375 15 7.5 "/>
<path style=" stroke:none;fill-rule:nonzero;fill:rgb(16.078431%,18.431373%,20%);fill-opacity:1;" d="M 10.617188 12.449219 C 10.601562 12.375 10.132812 10.625 7.5 10.625 C 4.867188 10.625 4.398438 12.375 4.382812 12.449219 C 4.359375 12.539062 4.398438 12.632812 4.480469 12.679688 C 4.5625 12.726562 4.664062 12.714844 4.730469 12.648438 C 4.738281 12.640625 5.542969 11.875 7.5 11.875 C 9.457031 11.875 10.261719 12.640625 10.269531 12.648438 C 10.308594 12.6875 10.363281 12.707031 10.417969 12.707031 C 10.453125 12.707031 10.488281 12.699219 10.519531 12.683594 C 10.601562 12.636719 10.640625 12.539062 10.617188 12.449219 Z M 6.542969 6.371094 C 5.1875 5.015625 3.007812 5 2.917969 5 C 2.6875 5 2.5 5.1875 2.5 5.414062 C 2.5 5.644531 2.6875 5.832031 2.917969 5.832031 C 2.929688 5.832031 3.71875 5.84375 4.574219 6.140625 C 4.328125 6.40625 4.167969 6.820312 4.167969 7.292969 C 4.167969 8.097656 4.632812 8.75 5.207031 8.75 C 5.785156 8.75 6.25 8.097656 6.25 7.292969 C 6.25 7.21875 6.242188 7.148438 6.234375 7.082031 C 6.238281 7.082031 6.246094 7.082031 6.25 7.082031 C 6.355469 7.082031 6.464844 7.042969 6.542969 6.960938 C 6.707031 6.796875 6.707031 6.535156 6.542969 6.371094 Z M 12.082031 5 C 11.992188 5 9.8125 5.015625 8.457031 6.371094 C 8.292969 6.535156 8.292969 6.796875 8.457031 6.960938 C 8.535156 7.042969 8.644531 7.082031 8.75 7.082031 C 8.753906 7.082031 8.761719 7.082031 8.765625 7.082031 C 8.757812 7.148438 8.75 7.21875 8.75 7.292969 C 8.75 8.097656 9.214844 8.75 9.792969 8.75 C 10.367188 8.75 10.832031 8.097656 10.832031 7.292969 C 10.832031 6.820312 10.671875 6.40625 10.425781 6.140625 C 11.28125 5.84375 12.070312 5.832031 12.085938 5.832031 C 12.3125 5.832031 12.5 5.644531 12.5 5.414062 C 12.5 5.1875 12.3125 5 12.082031 5 Z M 12.082031 5 "/>
<path style=" stroke:none;fill-rule:nonzero;fill:rgb(16.078431%,18.431373%,20%);fill-opacity:1;" d="M 12.390625 13.75 L 2.609375 13.75 C 2.089844 13.75 1.667969 13.328125 1.667969 12.808594 L 1.667969 10.417969 C 1.667969 9.898438 2.089844 9.472656 2.609375 9.472656 L 12.390625 9.472656 C 12.910156 9.472656 13.332031 9.898438 13.332031 10.417969 L 13.332031 12.808594 C 13.332031 13.328125 12.910156 13.75 12.390625 13.75 Z M 12.390625 13.75 "/>
<path style=" stroke:none;fill-rule:nonzero;fill:rgb(100%,100%,100%);fill-opacity:1;" d="M 3.265625 11.34375 L 2.925781 11.34375 C 2.796875 11.34375 2.734375 11.25 2.734375 11.15625 C 2.734375 11.058594 2.796875 10.964844 2.925781 10.964844 L 3.320312 10.964844 L 3.410156 10.328125 C 3.429688 10.183594 3.488281 10.136719 3.605469 10.136719 C 3.703125 10.136719 3.789062 10.199219 3.789062 10.296875 C 3.789062 10.355469 3.789062 10.328125 3.78125 10.390625 L 3.703125 10.964844 L 4.082031 10.964844 L 4.171875 10.328125 C 4.191406 10.183594 4.25 10.136719 4.367188 10.136719 C 4.464844 10.136719 4.550781 10.199219 4.550781 10.296875 C 4.550781 10.355469 4.550781 10.328125 4.542969 10.390625 L 4.464844 10.964844 L 4.804688 10.964844 C 4.933594 10.964844 4.992188 11.0625 4.992188 11.15625 C 4.992188 11.25 4.933594 11.347656 4.804688 11.347656 L 4.40625 11.347656 L 4.34375 11.796875 L 4.683594 11.796875 C 4.816406 11.796875 4.875 11.894531 4.875 11.988281 C 4.875 12.082031 4.816406 12.179688 4.683594 12.179688 L 4.289062 12.179688 L 4.203125 12.816406 C 4.183594 12.957031 4.121094 13.003906 4.003906 13.003906 C 3.910156 13.003906 3.820312 12.941406 3.820312 12.847656 C 3.820312 12.789062 3.820312 12.816406 3.828125 12.75 L 3.910156 12.175781 L 3.527344 12.175781 L 3.441406 12.816406 C 3.421875 12.957031 3.363281 13.003906 3.242188 13.003906 C 3.148438 13.003906 3.058594 12.941406 3.058594 12.847656 C 3.058594 12.785156 3.058594 12.816406 3.066406 12.75 L 3.148438 12.175781 L 2.808594 12.175781 C 2.675781 12.175781 2.617188 12.082031 2.617188 11.988281 C 2.617188 11.890625 2.675781 11.796875 2.808594 11.796875 L 3.203125 11.796875 Z M 3.589844 11.796875 L 3.964844 11.796875 L 4.027344 11.34375 L 3.652344 11.34375 Z M 5.511719 10.753906 C 5.511719 10.410156 5.769531 10.113281 6.121094 10.113281 C 6.472656 10.113281 6.730469 10.410156 6.730469 10.753906 C 6.730469 11.097656 6.472656 11.394531 6.121094 11.394531 C 5.769531 11.394531 5.511719 11.101562 5.511719 10.753906 Z M 6.328125 10.753906 C 6.328125 10.628906 6.25 10.515625 6.121094 10.515625 C 5.992188 10.515625 5.914062 10.628906 5.914062 10.753906 C 5.914062 10.882812 5.992188 10.988281 6.121094 10.988281 C 6.25 10.988281 6.328125 10.882812 6.328125 10.753906 Z M 7.289062 10.214844 C 7.339844 10.117188 7.378906 10.089844 7.472656 10.089844 C 7.59375 10.089844 7.707031 10.1875 7.707031 10.3125 C 7.707031 10.34375 7.707031 10.371094 7.675781 10.429688 L 6.34375 12.921875 C 6.285156 13.003906 6.261719 13.050781 6.164062 13.050781 C 6.0625 13.050781 5.9375 12.953125 5.9375 12.835938 C 5.9375 12.773438 5.964844 12.71875 5.980469 12.6875 Z M 6.90625 12.390625 C 6.90625 12.046875 7.164062 11.75 7.515625 11.75 C 7.867188 11.75 8.125 12.046875 8.125 12.390625 C 8.125 12.734375 7.867188 13.027344 7.515625 13.027344 C 7.164062 13.027344 6.90625 12.734375 6.90625 12.390625 Z M 7.722656 12.390625 C 7.722656 12.265625 7.644531 12.152344 7.515625 12.152344 C 7.382812 12.152344 7.308594 12.265625 7.308594 12.390625 C 7.308594 12.519531 7.382812 12.625 7.515625 12.625 C 7.644531 12.625 7.722656 12.519531 7.722656 12.390625 Z M 8.757812 12.71875 C 8.757812 12.550781 8.894531 12.410156 9.066406 12.410156 C 9.234375 12.410156 9.375 12.550781 9.375 12.71875 C 9.375 12.890625 9.234375 13.027344 9.066406 13.027344 C 8.894531 13.027344 8.757812 12.890625 8.757812 12.71875 Z M 8.78125 10.382812 C 8.78125 10.214844 8.902344 10.113281 9.066406 10.113281 C 9.222656 10.113281 9.351562 10.222656 9.351562 10.382812 L 9.351562 11.90625 C 9.351562 12.070312 9.222656 12.175781 9.066406 12.175781 C 8.902344 12.175781 8.78125 12.074219 8.78125 11.90625 Z M 12.148438 13.050781 C 12.070312 13.050781 12.019531 13.03125 11.96875 12.972656 L 11.664062 12.640625 L 11.636719 12.667969 C 11.34375 12.9375 11.089844 13.050781 10.792969 13.050781 C 10.328125 13.050781 9.863281 12.789062 9.863281 12.199219 C 9.863281 11.738281 10.222656 11.464844 10.441406 11.339844 L 10.488281 11.3125 L 10.449219 11.269531 C 10.273438 11.085938 10.199219 10.933594 10.199219 10.742188 C 10.199219 10.292969 10.609375 10.089844 10.988281 10.089844 C 11.308594 10.089844 11.757812 10.277344 11.757812 10.695312 C 11.757812 11.09375 11.386719 11.324219 11.277344 11.382812 L 11.226562 11.410156 L 11.710938 11.96875 L 11.898438 11.746094 C 12 11.621094 12.058594 11.570312 12.164062 11.570312 C 12.25 11.570312 12.34375 11.644531 12.34375 11.785156 C 12.34375 11.890625 12.238281 12.03125 12.132812 12.152344 L 12.011719 12.289062 L 12.304688 12.640625 C 12.359375 12.703125 12.382812 12.738281 12.382812 12.816406 C 12.382812 12.941406 12.269531 13.050781 12.148438 13.050781 Z M 10.710938 11.605469 C 10.53125 11.722656 10.351562 11.882812 10.351562 12.144531 C 10.351562 12.417969 10.527344 12.59375 10.804688 12.59375 C 11.035156 12.59375 11.183594 12.492188 11.335938 12.339844 L 11.363281 12.3125 L 10.738281 11.585938 Z M 10.988281 10.476562 C 10.875 10.476562 10.710938 10.570312 10.710938 10.726562 C 10.710938 10.871094 10.78125 10.960938 10.933594 11.113281 L 10.953125 11.136719 L 10.980469 11.121094 C 11.1875 11.011719 11.292969 10.890625 11.292969 10.757812 C 11.292969 10.5625 11.136719 10.476562 10.988281 10.476562 Z M 10.988281 10.476562 "/>
</g>
</svg>
