<?xml version="1.0" encoding="UTF-8"?>
<svg xmlns="http://www.w3.org/2000/svg" xmlns:xlink="http://www.w3.org/1999/xlink" width="15pt" height="15pt" viewBox="0 0 15 15" version="1.1">
<g id="surface1">
<path style=" stroke:none;fill-rule:nonzero;fill:rgb(100%,80%,30.196078%);fill-opacity:1;" d="M 15 7.5 C 15 11.640625 11.640625 15 7.5 15 C 3.359375 15 0 11.640625 0 7.5 C 0 3.359375 3.359375 0 7.5 0 C 11.640625 0 15 3.359375 15 7.5 Z M 15 7.5 "/>
<path style=" stroke:none;fill-rule:nonzero;fill:rgb(40%,27.058824%,0%);fill-opacity:1;" d="M 9.375 10.417969 L 7.5 10.417969 C 5.167969 10.417969 4.582031 10 4.582031 10 C 4.582031 10 5.109375 11.496094 7.15625 11.652344 C 7.203125 11.660156 7.246094 11.667969 7.292969 11.667969 L 9.167969 11.667969 C 9.511719 11.667969 10 11.175781 10 10.832031 C 10 10.488281 9.71875 10.417969 9.375 10.417969 Z M 6.589844 7.453125 C 6.515625 7.511719 6.410156 7.515625 6.335938 7.460938 C 6.328125 7.453125 5.808594 7.082031 4.792969 7.082031 C 3.773438 7.082031 3.253906 7.457031 3.25 7.457031 C 3.171875 7.515625 3.070312 7.515625 2.996094 7.453125 C 2.921875 7.394531 2.894531 7.292969 2.933594 7.207031 C 2.960938 7.152344 3.558594 5.832031 4.792969 5.832031 C 6.023438 5.832031 6.625 7.152344 6.648438 7.207031 C 6.6875 7.292969 6.660156 7.394531 6.589844 7.453125 Z M 12.003906 7.453125 C 11.933594 7.511719 11.828125 7.515625 11.75 7.460938 C 11.746094 7.453125 11.226562 7.082031 10.207031 7.082031 C 9.191406 7.082031 8.671875 7.457031 8.667969 7.457031 C 8.589844 7.515625 8.484375 7.515625 8.410156 7.453125 C 8.339844 7.394531 8.3125 7.292969 8.351562 7.207031 C 8.375 7.152344 8.976562 5.832031 10.207031 5.832031 C 11.441406 5.832031 12.039062 7.152344 12.066406 7.207031 C 12.105469 7.292969 12.078125 7.394531 12.003906 7.453125 Z M 5.464844 2.5 C 5.695312 2.507812 5.875 2.703125 5.863281 2.933594 C 5.855469 3.164062 5.664062 3.339844 5.433594 3.332031 C 5.367188 3.332031 3.945312 3.3125 2.792969 4.730469 C 2.648438 4.910156 2.386719 4.9375 2.207031 4.792969 C 2.027344 4.648438 2 4.386719 2.144531 4.207031 C 3.574219 2.449219 5.386719 2.496094 5.464844 2.5 Z M 9.382812 3.199219 C 9.457031 3.183594 11.246094 2.878906 12.90625 4.417969 C 13.078125 4.574219 13.085938 4.839844 12.929688 5.007812 C 12.773438 5.179688 12.511719 5.1875 12.339844 5.03125 C 10.996094 3.785156 9.585938 4.007812 9.527344 4.015625 C 9.300781 4.054688 9.085938 3.90625 9.046875 3.679688 C 9.007812 3.453125 9.15625 3.238281 9.382812 3.199219 Z M 9.382812 3.199219 "/>
<path style=" stroke:none;fill-rule:nonzero;fill:rgb(53.333333%,78.823529%,97.647059%);fill-opacity:1;" d="M 9.582031 10.832031 L 8.332031 10.832031 C 8.105469 10.832031 7.917969 11.019531 7.917969 11.25 L 7.917969 12.917969 C 7.917969 13.144531 8.105469 13.332031 8.332031 13.332031 C 8.5625 13.332031 8.75 13.144531 8.75 12.917969 L 8.75 14.375 C 8.75 14.71875 9.03125 15 9.375 15 C 9.71875 15 10 14.71875 10 14.375 L 10 11.25 C 10 11.019531 9.8125 10.832031 9.582031 10.832031 Z M 9.582031 10.832031 "/>
</g>
</svg>
