<?xml version="1.0" encoding="UTF-8"?>
<svg xmlns="http://www.w3.org/2000/svg" xmlns:xlink="http://www.w3.org/1999/xlink" width="15pt" height="15pt" viewBox="0 0 15 15" version="1.1">
<g id="surface1">
<path style=" stroke:none;fill-rule:nonzero;fill:rgb(100%,79.607843%,29.803922%);fill-opacity:1;" d="M 14.582031 7.082031 C 14.582031 10.996094 11.410156 14.167969 7.5 14.167969 C 3.589844 14.167969 0.417969 10.996094 0.417969 7.082031 C 0.417969 3.171875 3.589844 0 7.5 0 C 11.410156 0 14.582031 3.171875 14.582031 7.082031 "/>
<path style=" stroke:none;fill-rule:nonzero;fill:rgb(39.607843%,27.843137%,10.588235%);fill-opacity:1;" d="M 7.5 11.308594 C 8.890625 11.308594 9.8125 11.46875 10.953125 11.691406 C 11.210938 11.738281 11.71875 11.691406 11.71875 10.921875 C 11.71875 9.390625 9.957031 7.472656 7.5 7.472656 C 5.042969 7.472656 3.28125 9.390625 3.28125 10.921875 C 3.28125 11.691406 3.789062 11.742188 4.046875 11.691406 C 5.1875 11.46875 6.109375 11.308594 7.5 11.308594 Z M 12.457031 7.160156 C 12.414062 7.128906 11.699219 6.601562 10.628906 6.238281 C 10.640625 6.195312 10.648438 6.148438 10.648438 6.097656 C 10.648438 5.953125 10.59375 5.824219 10.507812 5.71875 C 11.214844 5.515625 11.820312 5.507812 11.828125 5.507812 C 12.046875 5.507812 12.222656 5.332031 12.222656 5.117188 C 12.222656 4.898438 12.046875 4.722656 11.828125 4.722656 C 11.742188 4.722656 9.683594 4.738281 8.402344 6.019531 C 8.289062 6.128906 8.257812 6.300781 8.316406 6.445312 C 8.378906 6.59375 8.523438 6.691406 8.679688 6.691406 C 10.488281 6.691406 11.972656 7.78125 11.988281 7.792969 C 12.058594 7.84375 12.140625 7.871094 12.222656 7.871094 C 12.34375 7.871094 12.460938 7.816406 12.539062 7.710938 C 12.667969 7.539062 12.632812 7.292969 12.457031 7.160156 Z M 6.597656 6.019531 C 5.316406 4.738281 3.257812 4.722656 3.171875 4.722656 C 2.953125 4.722656 2.777344 4.898438 2.777344 5.113281 C 2.777344 5.332031 2.953125 5.507812 3.171875 5.507812 C 3.179688 5.507812 3.785156 5.515625 4.492188 5.71875 C 4.40625 5.824219 4.351562 5.953125 4.351562 6.097656 C 4.351562 6.148438 4.359375 6.195312 4.371094 6.238281 C 3.300781 6.601562 2.585938 7.128906 2.542969 7.160156 C 2.367188 7.292969 2.332031 7.539062 2.460938 7.710938 C 2.539062 7.816406 2.65625 7.871094 2.777344 7.871094 C 2.859375 7.871094 2.941406 7.84375 3.011719 7.792969 C 3.027344 7.78125 4.503906 6.691406 6.320312 6.691406 C 6.476562 6.691406 6.621094 6.59375 6.683594 6.445312 C 6.742188 6.300781 6.710938 6.128906 6.597656 6.019531 Z M 6.597656 6.019531 "/>
<path style=" stroke:none;fill-rule:nonzero;fill:rgb(46.666667%,68.627451%,34.117647%);fill-opacity:1;" d="M 10.714844 13.453125 L 10.714844 10.496094 C 10.714844 9.414062 9.09375 8.332031 7.472656 8.332031 C 5.851562 8.332031 4.230469 9.414062 4.230469 10.496094 L 4.230469 13.453125 C 2.398438 13.597656 1.164062 13.863281 1.164062 14.167969 C 1.164062 14.628906 3.988281 15 7.472656 15 C 10.957031 15 13.78125 14.628906 13.78125 14.167969 C 13.78125 13.863281 12.546875 13.597656 10.714844 13.453125 Z M 10.714844 13.453125 "/>
<path style=" stroke:none;fill-rule:nonzero;fill:rgb(36.470588%,56.078431%,24.705882%);fill-opacity:1;" d="M 7.128906 9.679688 C 7.128906 9.960938 6.898438 10.191406 6.613281 10.191406 C 6.332031 10.191406 6.101562 9.960938 6.101562 9.679688 C 6.101562 9.394531 6.332031 9.164062 6.613281 9.164062 C 6.898438 9.164062 7.128906 9.394531 7.128906 9.679688 Z M 7.128906 9.679688 "/>
<path style=" stroke:none;fill-rule:nonzero;fill:rgb(36.470588%,56.078431%,24.705882%);fill-opacity:1;" d="M 9.140625 10.683594 C 9.140625 10.96875 8.910156 11.199219 8.625 11.199219 C 8.339844 11.199219 8.109375 10.96875 8.109375 10.683594 C 8.109375 10.398438 8.339844 10.167969 8.625 10.167969 C 8.910156 10.167969 9.140625 10.398438 9.140625 10.683594 Z M 9.140625 10.683594 "/>
<path style=" stroke:none;fill-rule:nonzero;fill:rgb(36.470588%,56.078431%,24.705882%);fill-opacity:1;" d="M 8.929688 12.207031 C 8.648438 12.160156 8.382812 12.351562 8.339844 12.632812 C 8.292969 12.914062 8.484375 13.175781 8.765625 13.222656 C 9.046875 13.269531 9.308594 13.078125 9.355469 12.796875 C 9.402344 12.515625 9.210938 12.25 8.929688 12.207031 Z M 8.929688 12.207031 "/>
<path style=" stroke:none;fill-rule:nonzero;fill:rgb(36.470588%,56.078431%,24.705882%);fill-opacity:1;" d="M 6.414062 12.835938 C 6.011719 12.769531 5.632812 13.042969 5.570312 13.445312 C 5.503906 13.84375 5.777344 14.222656 6.175781 14.289062 C 6.578125 14.351562 6.957031 14.082031 7.019531 13.679688 C 7.085938 13.277344 6.8125 12.902344 6.414062 12.835938 Z M 6.414062 12.835938 "/>
</g>
</svg>
