<?xml version="1.0" encoding="UTF-8"?>
<svg xmlns="http://www.w3.org/2000/svg" xmlns:xlink="http://www.w3.org/1999/xlink" width="15pt" height="15pt" viewBox="0 0 15 15" version="1.1">
<g id="surface1">
<path style=" stroke:none;fill-rule:nonzero;fill:rgb(100%,80%,30.196078%);fill-opacity:1;" d="M 15 7.5 C 15 11.640625 11.640625 15 7.5 15 C 3.359375 15 0 11.640625 0 7.5 C 0 3.359375 3.359375 0 7.5 0 C 11.640625 0 15 3.359375 15 7.5 "/>
<path style=" stroke:none;fill-rule:nonzero;fill:rgb(40%,27.058824%,0%);fill-opacity:1;" d="M 12.75 7.167969 C 12.703125 7.132812 11.945312 6.574219 10.8125 6.191406 C 10.824219 6.140625 10.832031 6.09375 10.832031 6.042969 C 10.832031 5.886719 10.777344 5.75 10.683594 5.640625 C 11.433594 5.421875 12.074219 5.417969 12.085938 5.417969 C 12.3125 5.414062 12.5 5.230469 12.5 5 C 12.5 4.769531 12.3125 4.582031 12.082031 4.582031 C 11.992188 4.582031 9.8125 4.597656 8.457031 5.957031 C 8.335938 6.074219 8.300781 6.253906 8.363281 6.410156 C 8.429688 6.566406 8.582031 6.667969 8.75 6.667969 C 10.664062 6.667969 12.234375 7.820312 12.25 7.832031 C 12.324219 7.890625 12.414062 7.917969 12.5 7.917969 C 12.625 7.917969 12.75 7.859375 12.832031 7.75 C 12.972656 7.566406 12.933594 7.304688 12.75 7.167969 Z M 6.542969 5.957031 C 5.1875 4.597656 3.007812 4.582031 2.917969 4.582031 C 2.6875 4.582031 2.5 4.769531 2.5 5 C 2.5 5.230469 2.6875 5.414062 2.917969 5.417969 C 2.925781 5.417969 3.566406 5.421875 4.316406 5.640625 C 4.222656 5.75 4.167969 5.886719 4.167969 6.042969 C 4.167969 6.09375 4.175781 6.140625 4.1875 6.191406 C 3.054688 6.574219 2.296875 7.132812 2.25 7.167969 C 2.066406 7.304688 2.027344 7.566406 2.167969 7.75 C 2.25 7.859375 2.375 7.917969 2.5 7.917969 C 2.585938 7.917969 2.675781 7.890625 2.75 7.832031 C 2.765625 7.820312 4.328125 6.667969 6.25 6.667969 C 6.417969 6.667969 6.570312 6.566406 6.636719 6.410156 C 6.699219 6.253906 6.664062 6.074219 6.542969 5.957031 Z M 6.667969 12.082031 C 7.5 10 12.082031 10 12.082031 10.832031 C 12.082031 11.25 8.75 10.417969 6.667969 12.082031 Z M 6.667969 12.082031 "/>
<path style=" stroke:none;fill-rule:nonzero;fill:rgb(80%,83.921569%,86.666667%);fill-opacity:1;" d="M 7.667969 7.515625 C 8.785156 8.628906 6.011719 13.980469 5.480469 14.515625 C 5.042969 14.953125 3.730469 14.953125 3.292969 14.078125 C 2.855469 13.203125 1.542969 14.078125 1.105469 13.640625 C 0.230469 12.765625 1.542969 12.328125 1.105469 11.453125 C 0.667969 10.578125 -0.207031 10.140625 0.667969 9.265625 C 1.542969 8.390625 3.730469 8.828125 5.042969 7.953125 C 6.355469 7.078125 7.230469 7.078125 7.667969 7.515625 Z M 7.667969 7.515625 "/>
<path style=" stroke:none;fill-rule:nonzero;fill:rgb(96.078431%,97.254902%,98.039216%);fill-opacity:1;" d="M 7.21875 8.28125 C 7.210938 8.253906 7.195312 8.234375 7.183594 8.210938 C 7.171875 8.183594 7.164062 8.152344 7.144531 8.128906 C 7.078125 8.039062 6.976562 7.972656 6.855469 7.957031 C 6.796875 7.949219 6.742188 7.949219 6.6875 7.964844 C 6.648438 7.972656 6.617188 7.996094 6.582031 8.011719 C 6.566406 8.023438 6.550781 8.027344 6.535156 8.035156 C 6.488281 8.070312 6.449219 8.113281 6.417969 8.164062 C 5.195312 10.203125 2.277344 11.472656 2.246094 11.488281 C 2.023438 11.582031 1.921875 11.839844 2.019531 12.0625 C 2.089844 12.226562 2.25 12.328125 2.421875 12.328125 C 2.476562 12.328125 2.535156 12.316406 2.59375 12.289062 C 2.683594 12.25 4.28125 11.554688 5.6875 10.328125 C 4.824219 11.921875 3.507812 12.824219 3.488281 12.839844 C 3.289062 12.972656 3.234375 13.242188 3.367188 13.445312 C 3.453125 13.570312 3.589844 13.640625 3.734375 13.640625 C 3.816406 13.640625 3.902344 13.617188 3.976562 13.566406 C 4.089844 13.488281 6.769531 11.671875 7.226562 8.453125 C 7.234375 8.394531 7.230469 8.335938 7.21875 8.28125 Z M 7.21875 8.28125 "/>
</g>
</svg>
