<?xml version="1.0" encoding="UTF-8"?>
<svg xmlns="http://www.w3.org/2000/svg" xmlns:xlink="http://www.w3.org/1999/xlink" width="15pt" height="15pt" viewBox="0 0 15 15" version="1.1">
<g id="surface1">
<path style=" stroke:none;fill-rule:nonzero;fill:rgb(100%,89.803922%,11.764706%);fill-opacity:1;" d="M 7.917969 0 C 7.199219 0 6.523438 0.167969 5.917969 0.464844 C 5.753906 0.433594 5.589844 0.417969 5.417969 0.417969 C 3.804688 0.417969 2.5 1.722656 2.5 3.332031 L 2.5 8.332031 L 2.507812 8.332031 C 2.582031 11.027344 4.785156 13.191406 7.5 13.191406 C 10.214844 13.191406 12.417969 11.027344 12.492188 8.332031 L 12.5 8.332031 L 12.5 4.582031 C 12.5 2.050781 10.449219 0 7.917969 0 Z M 7.917969 0 "/>
<path style=" stroke:none;fill-rule:nonzero;fill:rgb(57.254902%,40.784314%,79.215686%);fill-opacity:1;" d="M 11.25 11.25 L 4.167969 11.25 L 4.167969 15 L 12.917969 15 L 12.917969 12.917969 C 12.917969 11.996094 12.171875 11.25 11.25 11.25 Z M 11.25 11.25 "/>
<path style=" stroke:none;fill-rule:nonzero;fill:rgb(95.294118%,82.352941%,63.529412%);fill-opacity:1;" d="M 3.75 2.082031 L 3.75 7.082031 C 3.75 8.714844 4.792969 10.101562 6.25 10.617188 L 6.25 11.667969 C 6.25 12.355469 6.808594 12.917969 7.5 12.917969 C 8.191406 12.917969 8.75 12.355469 8.75 11.667969 L 8.75 10.617188 C 10.207031 10.101562 11.25 8.714844 11.25 7.082031 L 11.25 2.082031 Z M 3.75 2.082031 "/>
<path style=" stroke:none;fill-rule:nonzero;fill:rgb(100%,89.803922%,11.764706%);fill-opacity:1;" d="M 11.25 2.082031 L 11.25 1.667969 L 3.332031 1.667969 L 3.332031 4.582031 C 5.832031 4.582031 5.832031 2.082031 5.832031 2.082031 C 5.832031 2.082031 6.667969 5 11.667969 5 L 11.667969 2.082031 Z M 11.25 2.082031 "/>
<path style=" stroke:none;fill-rule:nonzero;fill:rgb(100%,89.803922%,11.764706%);fill-opacity:1;" d="M 5.105469 1.910156 L 6.777344 1.910156 L 6.777344 3.871094 L 5.105469 3.871094 Z M 5.105469 1.910156 "/>
<path style=" stroke:none;fill-rule:nonzero;fill:rgb(45.490196%,31.372549%,65.882353%);fill-opacity:1;" d="M 7.804688 7.660156 L 8.566406 7.949219 C 8.566406 7.949219 5.847656 13.675781 5.476562 14.207031 C 5.109375 14.738281 4.699219 15.0625 3.574219 14.941406 Z M 10.832031 13.332031 L 11.25 13.332031 L 11.25 15 L 10.832031 15 Z M 10.832031 13.332031 "/>
<path style=" stroke:none;fill-rule:nonzero;fill:rgb(45.490196%,31.372549%,65.882353%);fill-opacity:1;" d="M 6.242188 11.828125 C 6.242188 11.828125 5.261719 13.671875 5.050781 14.050781 C 4.933594 14.257812 4.503906 14.890625 4.082031 14.890625 C 4.082031 14.890625 5.003906 14.941406 5.382812 14.1875 C 5.917969 13.125 6.199219 12.609375 6.394531 12.253906 C 6.394531 12.253906 6.339844 12.117188 6.308594 12.050781 C 6.257812 11.953125 6.242188 11.828125 6.242188 11.828125 Z M 6.242188 11.828125 "/>
<path style=" stroke:none;fill-rule:nonzero;fill:rgb(40%,12.941176%,7.45098%);fill-opacity:1;" d="M 10.066406 6.820312 C 10.054688 6.796875 9.816406 6.285156 9.335938 6.183594 L 9.132812 6.765625 C 9.148438 6.765625 9.160156 6.761719 9.175781 6.761719 C 9.660156 6.761719 9.910156 6.9375 9.914062 6.941406 C 9.933594 6.953125 9.953125 6.960938 9.972656 6.960938 C 9.996094 6.960938 10.019531 6.953125 10.035156 6.941406 C 10.070312 6.910156 10.082031 6.863281 10.066406 6.820312 Z M 10.066406 6.820312 "/>
<path style=" stroke:none;fill-rule:nonzero;fill:rgb(82.352941%,62.745098%,46.666667%);fill-opacity:1;" d="M 9.4375 3.386719 L 7.863281 2.832031 C 7.429688 2.679688 6.953125 2.910156 6.800781 3.34375 L 6.484375 4.242188 L 6.367188 3.765625 C 6.296875 3.480469 6.023438 3.148438 5.628906 3.269531 C 5.347656 3.355469 5.257812 3.738281 5.332031 4.027344 L 5.839844 6.078125 L 5.699219 6.488281 L 5.953125 7.019531 L 8.3125 7.847656 C 8.707031 7.984375 8.84375 7.59375 8.84375 7.59375 L 9.132812 6.765625 L 9.339844 6.183594 L 9.945312 4.449219 C 10.097656 4.011719 9.871094 3.539062 9.4375 3.386719 Z M 9.4375 3.386719 "/>
<path style=" stroke:none;fill-rule:nonzero;fill:rgb(30.980392%,7.843137%,4.313725%);fill-opacity:1;" d="M 9.175781 6.164062 C 8.585938 6.164062 8.296875 6.792969 8.285156 6.820312 C 8.265625 6.863281 8.277344 6.910156 8.3125 6.941406 C 8.347656 6.96875 8.398438 6.96875 8.4375 6.941406 C 8.4375 6.941406 8.675781 6.777344 9.132812 6.765625 L 9.335938 6.183594 C 9.285156 6.171875 9.234375 6.164062 9.175781 6.164062 Z M 9.175781 6.164062 "/>
<path style=" stroke:none;fill-rule:nonzero;fill:rgb(95.294118%,82.352941%,63.529412%);fill-opacity:1;" d="M 5.214844 3.191406 C 5.5 3.121094 5.789062 3.292969 5.863281 3.578125 L 5.980469 4.054688 L 6.296875 3.15625 C 6.449219 2.722656 6.921875 2.492188 7.355469 2.644531 L 8.929688 3.199219 C 9.363281 3.351562 9.59375 3.824219 9.441406 4.261719 L 8.335938 7.40625 C 8.335938 7.40625 8.199219 7.796875 7.804688 7.660156 L 5.445312 6.832031 L 5.191406 6.300781 L 5.335938 5.890625 L 4.824219 3.839844 C 4.753906 3.550781 4.925781 3.261719 5.214844 3.191406 Z M 5.214844 3.191406 "/>
<path style=" stroke:none;fill-rule:nonzero;fill:rgb(82.352941%,62.745098%,46.666667%);fill-opacity:1;" d="M 7.808594 5.023438 L 8.5 3.058594 L 8.890625 3.195312 L 8.203125 5.160156 Z M 6.628906 4.609375 L 7.320312 2.644531 L 7.714844 2.78125 L 7.023438 4.746094 Z M 6.628906 4.609375 "/>
<path style=" stroke:none;fill-rule:nonzero;fill:rgb(87.45098%,12.156863%,19.607843%);fill-opacity:1;" d="M 8.746094 9.734375 C 8.746094 9.734375 8.515625 9.269531 8.046875 9.035156 C 7.945312 9.25 7.832031 9.484375 7.710938 9.734375 Z M 6.246094 9.734375 L 6.585938 9.734375 L 7.015625 9.007812 C 6.503906 9.230469 6.246094 9.734375 6.246094 9.734375 Z M 6.246094 9.734375 "/>
<path style=" stroke:none;fill-rule:nonzero;fill:rgb(82.352941%,62.745098%,46.666667%);fill-opacity:1;" d="M 7.804688 7.660156 L 7.015625 9.007812 L 6.585938 9.734375 L 6.105469 10.558594 L 6.25 11.667969 C 6.25 11.914062 6.324219 12.144531 6.449219 12.335938 C 6.855469 11.511719 7.320312 10.546875 7.714844 9.734375 L 8.050781 9.035156 C 8.359375 8.390625 8.566406 7.949219 8.566406 7.949219 Z M 7.804688 7.660156 "/>
<path style=" stroke:none;fill-rule:nonzero;fill:rgb(62.745098%,1.568627%,11.764706%);fill-opacity:1;" d="M 8.046875 9.035156 C 7.890625 8.953125 7.707031 8.902344 7.496094 8.902344 C 7.316406 8.902344 7.15625 8.945312 7.015625 9.007812 L 6.585938 9.734375 L 7.714844 9.734375 Z M 8.046875 9.035156 "/>
<path style=" stroke:none;fill-rule:nonzero;fill:rgb(57.254902%,40.784314%,79.215686%);fill-opacity:1;" d="M 5.949219 12.4375 C 5.949219 12.4375 5.234375 13.929688 5.070312 14.277344 C 4.785156 14.894531 4.167969 15 4.167969 15 C 0.832031 15 2.65625 11.523438 2.65625 11.523438 L 5.335938 6.589844 L 8.0625 7.664062 Z M 5.949219 12.4375 "/>
</g>
</svg>
