<?xml version="1.0" encoding="UTF-8"?>
<svg xmlns="http://www.w3.org/2000/svg" xmlns:xlink="http://www.w3.org/1999/xlink" width="15pt" height="15pt" viewBox="0 0 15 15" version="1.1">
<g id="surface1">
<path style=" stroke:none;fill-rule:nonzero;fill:rgb(100%,79.607843%,29.803922%);fill-opacity:1;" d="M 14.832031 5.929688 C 15.699219 9.980469 13.121094 13.96875 9.070312 14.835938 C 5.019531 15.703125 1.035156 13.125 0.164062 9.074219 C -0.703125 5.023438 1.878906 1.035156 5.925781 0.167969 C 9.976562 -0.699219 13.964844 1.878906 14.832031 5.929688 "/>
<path style=" stroke:none;fill-rule:nonzero;fill:rgb(95.686275%,96.862745%,97.647059%);fill-opacity:1;" d="M 12.203125 3.753906 C 12.527344 5.269531 11.5625 6.761719 10.046875 7.085938 C 8.53125 7.410156 7.039062 6.445312 6.714844 4.929688 C 6.390625 3.414062 7.355469 1.925781 8.871094 1.597656 C 10.386719 1.273438 11.878906 2.238281 12.203125 3.753906 Z M 12.203125 3.753906 "/>
<path style=" stroke:none;fill-rule:nonzero;fill:rgb(16.078431%,18.431373%,20%);fill-opacity:1;" d="M 10.144531 3.871094 C 10.144531 4.339844 9.761719 4.71875 9.292969 4.71875 C 8.824219 4.71875 8.445312 4.339844 8.445312 3.871094 C 8.445312 3.402344 8.824219 3.023438 9.292969 3.023438 C 9.761719 3.023438 10.144531 3.402344 10.144531 3.871094 Z M 10.144531 3.871094 "/>
<path style=" stroke:none;fill-rule:nonzero;fill:rgb(95.686275%,96.862745%,97.647059%);fill-opacity:1;" d="M 5.871094 5.949219 C 6.058594 6.835938 5.496094 7.707031 4.609375 7.898438 C 3.722656 8.089844 2.851562 7.523438 2.660156 6.636719 C 2.472656 5.753906 3.035156 4.878906 3.921875 4.691406 C 4.808594 4.5 5.679688 5.066406 5.871094 5.949219 Z M 5.871094 5.949219 "/>
<path style=" stroke:none;fill-rule:nonzero;fill:rgb(16.078431%,18.431373%,20%);fill-opacity:1;" d="M 5.058594 6.4375 C 4.964844 6 4.535156 5.722656 4.097656 5.816406 C 3.660156 5.910156 3.382812 6.339844 3.476562 6.777344 C 3.570312 7.214844 4 7.492188 4.4375 7.398438 C 4.871094 7.304688 5.152344 6.875 5.058594 6.4375 Z M 5.058594 6.4375 "/>
<path style=" stroke:none;fill-rule:nonzero;fill:rgb(39.607843%,27.843137%,10.588235%);fill-opacity:1;" d="M 7.761719 8.722656 C 6.285156 9.039062 5.269531 9.078125 4.007812 9.101562 C 3.71875 9.109375 3.191406 9.277344 3.367188 10.089844 C 3.714844 11.722656 6.023438 13.355469 8.632812 12.796875 C 11.242188 12.238281 12.679688 9.800781 12.328125 8.171875 C 12.15625 7.355469 11.605469 7.417969 11.339844 7.53125 C 10.179688 8.027344 9.238281 8.40625 7.761719 8.722656 Z M 7.761719 8.722656 "/>
<path style=" stroke:none;fill-rule:nonzero;fill:rgb(90.980392%,34.901961%,43.137255%);fill-opacity:1;" d="M 4.582031 10 L 4.582031 12.5 C 4.582031 13.75 5.417969 15 7.082031 15 C 8.75 15 9.582031 13.75 9.582031 12.5 L 9.582031 10 Z M 4.582031 10 "/>
<path style=" stroke:none;fill-rule:nonzero;fill:rgb(86.666667%,18.431373%,27.058824%);fill-opacity:1;" d="M 7.082031 13.285156 C 7.207031 13.285156 7.308594 13.183594 7.308594 13.058594 L 7.308594 10.433594 L 6.855469 10.433594 L 6.855469 13.058594 C 6.855469 13.183594 6.957031 13.285156 7.082031 13.285156 Z M 7.082031 13.285156 "/>
<path style=" stroke:none;fill-rule:nonzero;fill:rgb(100%,100%,100%);fill-opacity:1;" d="M 4.179688 9.917969 C 4.179688 9.917969 5.492188 10.0625 7.933594 9.539062 C 10.378906 9.015625 11.515625 8.34375 11.515625 8.34375 C 11.515625 8.34375 11.050781 10.148438 8.195312 10.761719 C 5.34375 11.371094 4.179688 9.917969 4.179688 9.917969 Z M 4.179688 9.917969 "/>
</g>
</svg>
