<?xml version="1.0" encoding="UTF-8"?>
<svg xmlns="http://www.w3.org/2000/svg" xmlns:xlink="http://www.w3.org/1999/xlink" width="15pt" height="15pt" viewBox="0 0 15 15" version="1.1">
<g id="surface1">
<path style=" stroke:none;fill-rule:nonzero;fill:rgb(100%,80%,30.196078%);fill-opacity:1;" d="M 13.75 8.75 C 13.75 12.203125 10.953125 15 7.5 15 C 4.046875 15 1.25 12.203125 1.25 8.75 C 1.25 5.296875 4.046875 2.5 7.5 2.5 C 10.953125 2.5 13.75 5.296875 13.75 8.75 "/>
<path style=" stroke:none;fill-rule:nonzero;fill:rgb(40%,27.058824%,0%);fill-opacity:1;" d="M 10.703125 10.667969 C 10.640625 10.613281 10.550781 10.609375 10.484375 10.660156 C 10.472656 10.667969 9.140625 11.65625 7.5 11.65625 C 5.863281 11.65625 4.527344 10.667969 4.515625 10.660156 C 4.449219 10.609375 4.359375 10.613281 4.296875 10.667969 C 4.234375 10.722656 4.222656 10.816406 4.265625 10.882812 C 4.308594 10.957031 5.367188 12.683594 7.5 12.683594 C 9.632812 12.683594 10.691406 10.957031 10.734375 10.882812 C 10.777344 10.8125 10.765625 10.722656 10.703125 10.667969 Z M 6.128906 8.234375 C 6.128906 8.898438 5.742188 9.4375 5.269531 9.4375 C 4.796875 9.4375 4.410156 8.898438 4.410156 8.234375 C 4.410156 7.574219 4.796875 7.035156 5.269531 7.035156 C 5.742188 7.035156 6.128906 7.570312 6.128906 8.234375 Z M 10.589844 8.234375 C 10.589844 8.898438 10.203125 9.4375 9.730469 9.4375 C 9.257812 9.4375 8.871094 8.898438 8.871094 8.234375 C 8.871094 7.574219 9.257812 7.035156 9.730469 7.035156 C 10.203125 7.035156 10.589844 7.570312 10.589844 8.234375 Z M 13.332031 2.554688 C 12.835938 3.15625 12.007812 3.367188 11.21875 3.4375 C 11.085938 2.796875 10.515625 0.417969 9.375 0.417969 C 8.375 0.417969 8.011719 0.871094 7.5 0.871094 C 6.988281 0.871094 6.625 0.417969 5.625 0.417969 C 4.484375 0.417969 3.914062 2.796875 3.78125 3.4375 C 2.992188 3.367188 2.164062 3.152344 1.667969 2.554688 C 0.769531 1.46875 -0.417969 2.269531 0.183594 3.460938 C 1.132812 5.34375 3.429688 6.667969 7.5 6.667969 C 11.570312 6.667969 13.867188 5.34375 14.816406 3.460938 C 15.417969 2.269531 14.230469 1.46875 13.332031 2.554688 Z M 13.332031 2.554688 "/>
<path style=" stroke:none;fill-rule:nonzero;fill:rgb(50.980392%,36.470588%,5.490196%);fill-opacity:1;" d="M 8.957031 1.25 C 8.179688 1.25 7.898438 1.652344 7.5 1.652344 C 7.101562 1.652344 6.820312 1.25 6.042969 1.25 C 5.015625 1.25 4.582031 4.0625 4.582031 4.0625 C 4.582031 4.0625 5.117188 5 7.5 5 C 9.882812 5 10.417969 4.0625 10.417969 4.0625 C 10.417969 4.0625 9.984375 1.25 8.957031 1.25 Z M 8.957031 1.25 "/>
<path style=" stroke:none;fill-rule:nonzero;fill:rgb(40%,27.058824%,0%);fill-opacity:1;" d="M 4.582031 2.5 C 4.582031 2.5 5.449219 3.332031 7.5 3.332031 C 9.554688 3.332031 10.417969 2.5 10.417969 2.5 L 10.417969 3.332031 C 10.417969 3.332031 9.492188 4.167969 7.5 4.167969 C 5.507812 4.167969 4.582031 3.332031 4.582031 3.332031 Z M 4.582031 2.5 "/>
</g>
</svg>
