<?xml version="1.0" encoding="UTF-8"?>
<svg xmlns="http://www.w3.org/2000/svg" xmlns:xlink="http://www.w3.org/1999/xlink" width="15pt" height="15pt" viewBox="0 0 15 15" version="1.1">
<g id="surface1">
<path style=" stroke:none;fill-rule:nonzero;fill:rgb(100%,79.607843%,29.803922%);fill-opacity:1;" d="M 14.582031 7.757812 C 14.582031 6.175781 13.300781 4.894531 11.722656 4.894531 C 11.3125 4.894531 10.574219 5.136719 10.574219 5.136719 L 5.105469 5.714844 C 5.105469 5.714844 3.972656 5.054688 3.277344 5.054688 C 1.699219 5.054688 0.417969 6.335938 0.417969 7.917969 C 0.417969 8.015625 0.421875 8.113281 0.429688 8.210938 C 0.585938 11.984375 3.6875 15 7.5 15 C 11.410156 15 14.582031 11.828125 14.582031 7.917969 C 14.582031 7.894531 14.578125 7.875 14.578125 7.851562 C 14.578125 7.820312 14.582031 7.789062 14.582031 7.757812 Z M 14.582031 7.757812 "/>
<path style=" stroke:none;fill-rule:nonzero;fill:rgb(39.607843%,27.843137%,10.588235%);fill-opacity:1;" d="M 9.304688 11.933594 C 9.304688 10.792969 8.496094 9.871094 7.5 9.871094 C 6.503906 9.871094 5.695312 10.792969 5.695312 11.933594 C 5.695312 13.070312 6.503906 13.996094 7.5 13.996094 C 8.496094 13.996094 9.304688 13.070312 9.304688 11.933594 Z M 9.304688 11.933594 "/>
<path style=" stroke:none;fill-rule:nonzero;fill:rgb(39.607843%,27.843137%,10.588235%);fill-opacity:1;" d="M 5.832031 8.585938 C 5.832031 9.199219 5.460938 9.695312 5 9.695312 C 4.539062 9.695312 4.167969 9.199219 4.167969 8.585938 C 4.167969 7.972656 4.539062 7.472656 5 7.472656 C 5.460938 7.472656 5.832031 7.972656 5.832031 8.585938 Z M 10.832031 8.585938 C 10.832031 9.199219 10.460938 9.695312 10 9.695312 C 9.539062 9.695312 9.167969 9.199219 9.167969 8.585938 C 9.167969 7.972656 9.539062 7.472656 10 7.472656 C 10.460938 7.472656 10.832031 7.972656 10.832031 8.585938 Z M 10.832031 8.585938 "/>
<path style=" stroke:none;fill-rule:nonzero;fill:rgb(94.509804%,56.470588%,12.54902%);fill-opacity:1;" d="M 2.609375 5.703125 C 2.714844 5.625 3.074219 5.488281 3.324219 5.722656 C 3.75 6.121094 3.851562 5.121094 5.191406 5.851562 C 5.804688 6.183594 8.9375 6.25 9.234375 6.105469 C 10.355469 5.546875 11.21875 5.1875 11.554688 5.378906 C 11.8125 5.523438 11.148438 5.777344 11.636719 5.832031 C 12.132812 5.890625 12.160156 5.628906 12.554688 5.730469 C 13.242188 5.910156 12.097656 6.699219 12.097656 6.699219 C 10.28125 8.1875 4 7.074219 2.894531 6.375 C 2.433594 6.085938 2.449219 5.824219 2.609375 5.703125 Z M 2.609375 5.703125 "/>
<path style=" stroke:none;fill-rule:nonzero;fill:rgb(85.098039%,18.823529%,27.843137%);fill-opacity:1;" d="M 12.371094 3.796875 L 7.5 3.253906 L 2.472656 3.796875 C 3.996094 5.324219 4.492188 7.097656 4.492188 7.097656 L 6.339844 7.46875 L 10.300781 7.472656 C 10.300781 7.472656 10.9375 5.066406 12.371094 3.796875 Z M 12.371094 3.796875 "/>
<path style=" stroke:none;fill-rule:nonzero;fill:rgb(75.294118%,13.72549%,20.392157%);fill-opacity:1;" d="M 12.210938 3.929688 C 12.746094 3.40625 10.222656 3.171875 8.214844 3.171875 C 6.210938 3.171875 4.734375 3.609375 4.734375 3.609375 C 4.734375 3.609375 2.613281 3.9375 2.902344 4.257812 C 3.3125 4.714844 3.820312 5.574219 3.820312 5.574219 C 3.820312 5.574219 5.800781 6.574219 7.296875 5.3125 C 8.339844 5.9375 9.796875 5.714844 10.449219 4.640625 C 10.449219 4.640625 10.957031 4.832031 11.46875 4.863281 C 11.46875 4.863281 11.867188 4.269531 12.210938 3.929688 Z M 12.210938 3.929688 "/>
<path style=" stroke:none;fill-rule:nonzero;fill:rgb(100%,79.607843%,29.803922%);fill-opacity:1;" d="M 12.335938 6.519531 C 11.609375 7.046875 11.464844 6.414062 10.800781 6.414062 C 10.335938 6.414062 10.289062 6.667969 9.640625 6.96875 C 9.242188 7.152344 8.671875 6.648438 8.316406 6.648438 C 7.835938 6.648438 7.390625 7.296875 6.765625 6.953125 C 6.417969 6.761719 6.148438 6.429688 5.671875 6.441406 C 4.859375 6.460938 4.875 6.839844 4.152344 6.71875 C 2.285156 6.40625 2.335938 5.726562 2.335938 5.726562 L 2.0625 7.492188 L 5.972656 7.492188 L 7.550781 8.242188 L 9.410156 7.492188 L 11.699219 7.492188 C 11.699219 7.492188 11.964844 7.417969 12.15625 7.347656 C 12.816406 7.113281 12.894531 6.117188 12.335938 6.519531 Z M 12.335938 6.519531 "/>
<path style=" stroke:none;fill-rule:nonzero;fill:rgb(90.980392%,34.901961%,43.137255%);fill-opacity:1;" d="M 12.96875 1.550781 C 12.867188 1.550781 12.773438 1.570312 12.683594 1.597656 C 12.394531 1.246094 11.964844 1.015625 11.476562 1.015625 C 11.4375 1.015625 11.40625 1.023438 11.371094 1.027344 C 11.0625 0.683594 10.621094 0.460938 10.125 0.460938 C 9.496094 0.460938 8.957031 0.808594 8.671875 1.320312 C 8.527344 0.988281 8.199219 0.753906 7.8125 0.753906 C 7.511719 0.753906 7.25 0.898438 7.078125 1.117188 C 6.867188 0.503906 6.292969 0.0625 5.609375 0.0625 C 5.054688 0.0625 4.574219 0.347656 4.296875 0.777344 C 4.21875 0.765625 4.140625 0.753906 4.0625 0.753906 C 3.464844 0.753906 2.953125 1.09375 2.691406 1.585938 C 2.605469 1.570312 2.519531 1.558594 2.429688 1.558594 C 1.652344 1.558594 1.023438 2.1875 1.023438 2.964844 C 1.023438 3.742188 1.652344 4.371094 2.429688 4.371094 C 2.675781 4.371094 2.902344 4.304688 3.101562 4.195312 C 3.257812 4.3125 3.453125 4.382812 3.664062 4.382812 C 3.722656 4.382812 3.78125 4.378906 3.839844 4.367188 C 4.195312 4.941406 4.824219 5.324219 5.550781 5.324219 C 6.261719 5.324219 6.886719 4.957031 7.25 4.402344 C 7.546875 4.769531 8 5.007812 8.511719 5.007812 C 9.265625 5.007812 9.898438 4.492188 10.082031 3.796875 C 10.097656 3.796875 10.109375 3.800781 10.125 3.800781 C 10.242188 3.800781 10.359375 3.789062 10.46875 3.765625 C 10.742188 3.996094 11.089844 4.140625 11.476562 4.140625 C 11.964844 4.140625 12.398438 3.910156 12.683594 3.558594 C 12.773438 3.585938 12.871094 3.605469 12.96875 3.605469 C 13.535156 3.605469 13.996094 3.144531 13.996094 2.578125 C 13.996094 2.011719 13.535156 1.550781 12.96875 1.550781 Z M 12.96875 1.550781 "/>
<path style=" stroke:none;fill-rule:nonzero;fill:rgb(95.294118%,66.666667%,72.54902%);fill-opacity:1;" d="M 12.464844 2.402344 C 12.464844 2.890625 12.070312 3.285156 11.582031 3.285156 C 11.09375 3.285156 10.699219 2.890625 10.699219 2.402344 C 10.699219 1.914062 11.09375 1.519531 11.582031 1.519531 C 12.070312 1.519531 12.464844 1.914062 12.464844 2.402344 Z M 12.464844 2.402344 "/>
<path style=" stroke:none;fill-rule:nonzero;fill:rgb(95.294118%,66.666667%,72.54902%);fill-opacity:1;" d="M 8.28125 2.460938 C 8.28125 1.960938 7.878906 1.558594 7.382812 1.558594 C 7.226562 1.558594 7.085938 1.601562 6.960938 1.667969 C 6.855469 1.417969 6.609375 1.242188 6.320312 1.242188 C 6.082031 1.242188 5.875 1.359375 5.75 1.542969 C 5.46875 1.28125 5.097656 1.121094 4.6875 1.121094 C 3.957031 1.121094 3.347656 1.625 3.175781 2.300781 C 3.023438 2.148438 2.816406 2.054688 2.582031 2.054688 C 2.117188 2.054688 1.742188 2.429688 1.742188 2.890625 C 1.742188 3.355469 2.117188 3.730469 2.582031 3.730469 C 2.875 3.730469 3.132812 3.578125 3.28125 3.351562 C 3.496094 3.804688 3.917969 4.132812 4.425781 4.21875 C 4.589844 4.496094 4.886719 4.6875 5.234375 4.6875 C 5.683594 4.6875 6.054688 4.375 6.148438 3.953125 C 6.28125 4.027344 6.4375 4.074219 6.601562 4.074219 C 7.046875 4.074219 7.417969 3.765625 7.511719 3.347656 C 7.949219 3.28125 8.28125 2.910156 8.28125 2.460938 Z M 8.28125 2.460938 "/>
</g>
</svg>
