<?xml version="1.0" encoding="UTF-8"?>
<svg xmlns="http://www.w3.org/2000/svg" xmlns:xlink="http://www.w3.org/1999/xlink" width="15pt" height="15pt" viewBox="0 0 15 15" version="1.1">
<g id="surface1">
<path style=" stroke:none;fill-rule:nonzero;fill:rgb(100%,79.607843%,29.803922%);fill-opacity:1;" d="M 14.582031 7.082031 C 14.582031 10.996094 11.410156 14.167969 7.5 14.167969 C 3.589844 14.167969 0.417969 10.996094 0.417969 7.082031 C 0.417969 3.171875 3.589844 0 7.5 0 C 11.410156 0 14.582031 3.171875 14.582031 7.082031 "/>
<path style=" stroke:none;fill-rule:nonzero;fill:rgb(39.607843%,27.843137%,10.588235%);fill-opacity:1;" d="M 9.113281 9.636719 C 9.113281 9.191406 8.355469 8.832031 7.421875 8.832031 C 6.488281 8.832031 5.730469 9.191406 5.730469 9.636719 C 5.730469 10.078125 6.488281 10.441406 7.421875 10.441406 C 8.355469 10.441406 9.113281 10.078125 9.113281 9.636719 Z M 9.113281 9.636719 "/>
<path style=" stroke:none;fill-rule:nonzero;fill:rgb(94.509804%,56.470588%,12.54902%);fill-opacity:1;" d="M 10.5625 10.824219 L 10.546875 10.816406 C 10.199219 10.601562 9.738281 10.714844 9.523438 11.0625 L 9.460938 11.164062 C 9.234375 10.929688 8.9375 10.757812 8.597656 10.6875 L 8.015625 10.570312 L 8.546875 7.976562 C 8.628906 7.574219 8.367188 7.179688 7.964844 7.097656 L 7.949219 7.09375 C 7.546875 7.011719 7.152344 7.273438 7.066406 7.675781 L 6.371094 11.085938 L 6.363281 11.113281 L 6.234375 11.753906 L 6.234375 11.757812 L 5.765625 14.0625 C 5.671875 14.511719 5.875 15 6.554688 15 L 7.917969 15 C 9.085938 15 9.429688 14.578125 9.664062 13.710938 L 10.808594 11.851562 C 11.023438 11.503906 10.910156 11.039062 10.5625 10.824219 Z M 10.5625 10.824219 "/>
<path style=" stroke:none;fill-rule:nonzero;fill:rgb(39.607843%,27.843137%,10.588235%);fill-opacity:1;" d="M 9.335938 12.808594 C 9.328125 12.808594 9.320312 12.808594 9.308594 12.808594 C 9.234375 12.792969 9.183594 12.71875 9.199219 12.640625 C 9.222656 12.511719 9.199219 12.398438 9.121094 12.292969 C 8.875 11.957031 8.167969 11.800781 7.914062 11.773438 C 7.835938 11.761719 7.78125 11.691406 7.792969 11.613281 C 7.800781 11.539062 7.867188 11.480469 7.949219 11.492188 C 7.992188 11.496094 8.980469 11.621094 9.347656 12.125 C 9.472656 12.296875 9.515625 12.488281 9.476562 12.695312 C 9.464844 12.761719 9.402344 12.808594 9.335938 12.808594 Z M 7.980469 14.78125 C 7.875 14.78125 7.757812 14.765625 7.632812 14.738281 C 7.378906 14.679688 7.199219 14.53125 7.140625 14.332031 C 7.089844 14.164062 7.136719 13.988281 7.261719 13.859375 C 7.421875 13.691406 7.679688 13.636719 7.96875 13.710938 C 8.042969 13.730469 8.089844 13.804688 8.070312 13.882812 C 8.050781 13.957031 7.972656 14.003906 7.898438 13.984375 C 7.710938 13.9375 7.554688 13.964844 7.464844 14.054688 C 7.410156 14.109375 7.390625 14.183594 7.410156 14.253906 C 7.441406 14.351562 7.542969 14.425781 7.695312 14.464844 C 8.1875 14.578125 8.460938 14.386719 8.601562 14.203125 C 8.816406 13.929688 8.839844 13.5625 8.765625 13.417969 C 8.589844 13.078125 7.910156 13.003906 7.664062 13.003906 C 7.585938 13.003906 7.523438 12.941406 7.523438 12.863281 C 7.523438 12.785156 7.585938 12.722656 7.664062 12.722656 C 7.707031 12.722656 8.722656 12.726562 9.015625 13.285156 C 9.140625 13.53125 9.105469 14.015625 8.824219 14.375 C 8.699219 14.539062 8.433594 14.78125 7.980469 14.78125 Z M 5.925781 5.507812 C 5.925781 6.089844 5.574219 6.558594 5.140625 6.558594 C 4.703125 6.558594 4.351562 6.089844 4.351562 5.507812 C 4.351562 4.929688 4.703125 4.460938 5.140625 4.460938 C 5.574219 4.460938 5.925781 4.929688 5.925781 5.507812 Z M 12.453125 4.28125 C 12.546875 4.28125 12.636719 4.25 12.71875 4.191406 C 12.914062 4.042969 12.953125 3.765625 12.804688 3.570312 C 11.363281 1.644531 9.433594 1.625 9.351562 1.625 C 9.109375 1.625 8.910156 1.820312 8.910156 2.066406 C 8.910156 2.308594 9.109375 2.507812 9.351562 2.507812 C 9.421875 2.507812 10.933594 2.546875 12.097656 4.101562 C 12.183594 4.21875 12.316406 4.28125 12.453125 4.28125 Z M 9.074219 5.507812 C 9.074219 6.089844 9.425781 6.558594 9.859375 6.558594 C 10.296875 6.558594 10.648438 6.089844 10.648438 5.507812 C 10.648438 4.929688 10.296875 4.460938 9.859375 4.460938 C 9.425781 4.460938 9.074219 4.929688 9.074219 5.507812 Z M 2.546875 4.28125 C 2.453125 4.28125 2.363281 4.25 2.28125 4.191406 C 2.085938 4.042969 2.046875 3.765625 2.195312 3.570312 C 3.636719 1.644531 5.566406 1.625 5.648438 1.625 C 5.890625 1.625 6.089844 1.820312 6.089844 2.066406 C 6.089844 2.308594 5.890625 2.507812 5.648438 2.507812 C 5.578125 2.507812 4.066406 2.546875 2.902344 4.101562 C 2.816406 4.21875 2.683594 4.28125 2.546875 4.28125 Z M 2.546875 4.28125 "/>
</g>
</svg>
