<?xml version="1.0" encoding="UTF-8"?>
<svg xmlns="http://www.w3.org/2000/svg" xmlns:xlink="http://www.w3.org/1999/xlink" width="15pt" height="15pt" viewBox="0 0 15 15" version="1.1">
<g id="surface1">
<path style=" stroke:none;fill-rule:nonzero;fill:rgb(98.039216%,45.490196%,24.313725%);fill-opacity:1;" d="M 11.25 11.25 L 4.167969 11.25 L 4.167969 15 L 12.917969 15 L 12.917969 12.917969 C 12.917969 11.996094 12.171875 11.25 11.25 11.25 Z M 11.25 11.25 "/>
<path style=" stroke:none;fill-rule:nonzero;fill:rgb(16.078431%,18.431373%,20%);fill-opacity:1;" d="M 9.128906 0.527344 C 8.285156 0.253906 6.304688 0.328125 5.8125 0.972656 C 4.523438 0.996094 3.015625 2.160156 2.816406 3.695312 C 2.621094 5.214844 3.058594 5.917969 3.210938 7.058594 C 3.386719 8.355469 4.117188 8.769531 4.695312 8.941406 C 5.535156 10.046875 6.421875 10 7.917969 10 C 10.832031 10 12.222656 8.046875 12.34375 4.734375 C 12.417969 2.730469 11.242188 1.210938 9.128906 0.527344 Z M 9.128906 0.527344 "/>
<path style=" stroke:none;fill-rule:nonzero;fill:rgb(96.862745%,87.058824%,80.784314%);fill-opacity:1;" d="M 6.25 9.167969 L 6.25 11.667969 C 6.25 12.355469 6.808594 12.917969 7.5 12.917969 C 8.191406 12.917969 8.75 12.355469 8.75 11.667969 L 8.75 9.167969 Z M 6.25 9.167969 "/>
<path style=" stroke:none;fill-rule:nonzero;fill:rgb(96.862745%,87.058824%,80.784314%);fill-opacity:1;" d="M 10.796875 4.875 C 10.511719 4.484375 10.152344 4.171875 9.359375 4.058594 C 9.65625 4.195312 9.941406 4.664062 9.976562 4.925781 C 10.015625 5.183594 10.050781 5.394531 9.816406 5.136719 C 8.875 4.09375 7.851562 4.503906 6.832031 3.867188 C 6.125 3.425781 5.90625 2.933594 5.90625 2.933594 C 5.90625 2.933594 5.820312 3.589844 4.742188 4.257812 C 4.433594 4.449219 4.058594 4.882812 3.851562 5.519531 C 3.703125 5.976562 3.75 6.386719 3.75 7.082031 C 3.75 9.121094 5.429688 10.832031 7.5 10.832031 C 9.570312 10.832031 11.25 9.105469 11.25 7.082031 C 11.25 5.816406 11.117188 5.320312 10.796875 4.875 Z M 10.796875 4.875 "/>
<path style=" stroke:none;fill-rule:nonzero;fill:rgb(16.078431%,18.431373%,20%);fill-opacity:1;" d="M 5.308594 2.488281 L 6.453125 2.488281 L 6.453125 4.109375 L 5.308594 4.109375 Z M 5.308594 2.488281 "/>
<path style=" stroke:none;fill-rule:nonzero;fill:rgb(75.686275%,41.176471%,30.980392%);fill-opacity:1;" d="M 7.917969 8.125 L 7.082031 8.125 C 6.96875 8.125 6.875 8.03125 6.875 7.917969 C 6.875 7.800781 6.96875 7.707031 7.082031 7.707031 L 7.917969 7.707031 C 8.03125 7.707031 8.125 7.800781 8.125 7.917969 C 8.125 8.03125 8.03125 8.125 7.917969 8.125 Z M 7.917969 8.125 "/>
<path style=" stroke:none;fill-rule:nonzero;fill:rgb(86.666667%,33.333333%,12.156863%);fill-opacity:1;" d="M 7.804688 7.660156 L 8.566406 7.949219 C 8.566406 7.949219 5.847656 13.675781 5.476562 14.207031 C 5.109375 14.738281 4.699219 15.0625 3.574219 14.941406 Z M 10.832031 13.332031 L 11.25 13.332031 L 11.25 15 L 10.832031 15 Z M 10.832031 13.332031 "/>
<path style=" stroke:none;fill-rule:nonzero;fill:rgb(86.666667%,33.333333%,12.156863%);fill-opacity:1;" d="M 6.242188 11.828125 C 6.242188 11.828125 5.261719 13.671875 5.050781 14.050781 C 4.933594 14.257812 4.503906 14.890625 4.082031 14.890625 C 4.082031 14.890625 5.003906 14.941406 5.382812 14.1875 C 5.917969 13.125 6.199219 12.609375 6.394531 12.253906 C 6.394531 12.253906 6.339844 12.117188 6.308594 12.050781 C 6.257812 11.953125 6.242188 11.828125 6.242188 11.828125 Z M 6.242188 11.828125 "/>
<path style=" stroke:none;fill-rule:nonzero;fill:rgb(40%,12.941176%,7.45098%);fill-opacity:1;" d="M 10.066406 6.820312 C 10.054688 6.796875 9.816406 6.285156 9.335938 6.183594 L 9.132812 6.765625 C 9.148438 6.765625 9.160156 6.761719 9.175781 6.761719 C 9.660156 6.761719 9.910156 6.9375 9.914062 6.941406 C 9.933594 6.953125 9.953125 6.960938 9.972656 6.960938 C 9.996094 6.960938 10.019531 6.953125 10.035156 6.941406 C 10.070312 6.910156 10.082031 6.863281 10.066406 6.820312 Z M 10.066406 6.820312 "/>
<path style=" stroke:none;fill-rule:nonzero;fill:rgb(87.843137%,66.666667%,58.039216%);fill-opacity:1;" d="M 9.4375 3.386719 L 7.863281 2.832031 C 7.429688 2.679688 6.953125 2.910156 6.800781 3.34375 L 6.484375 4.242188 L 6.367188 3.765625 C 6.296875 3.480469 6.023438 3.148438 5.628906 3.269531 C 5.347656 3.355469 5.257812 3.738281 5.332031 4.027344 L 5.839844 6.078125 L 5.699219 6.488281 L 5.953125 7.019531 L 8.3125 7.847656 C 8.707031 7.984375 8.84375 7.59375 8.84375 7.59375 L 9.132812 6.765625 L 9.339844 6.183594 L 9.945312 4.449219 C 10.097656 4.011719 9.871094 3.539062 9.4375 3.386719 Z M 9.4375 3.386719 "/>
<path style=" stroke:none;fill-rule:nonzero;fill:rgb(30.980392%,7.843137%,4.313725%);fill-opacity:1;" d="M 9.175781 6.164062 C 8.585938 6.164062 8.296875 6.792969 8.285156 6.820312 C 8.265625 6.863281 8.277344 6.910156 8.3125 6.941406 C 8.347656 6.96875 8.398438 6.96875 8.4375 6.941406 C 8.4375 6.941406 8.675781 6.777344 9.132812 6.765625 L 9.335938 6.183594 C 9.285156 6.171875 9.234375 6.164062 9.175781 6.164062 Z M 9.175781 6.164062 "/>
<path style=" stroke:none;fill-rule:nonzero;fill:rgb(96.862745%,87.058824%,80.784314%);fill-opacity:1;" d="M 5.214844 3.191406 C 5.5 3.121094 5.789062 3.292969 5.863281 3.578125 L 5.980469 4.054688 L 6.296875 3.15625 C 6.449219 2.722656 6.921875 2.492188 7.355469 2.644531 L 8.929688 3.199219 C 9.363281 3.351562 9.59375 3.824219 9.441406 4.261719 L 8.335938 7.40625 C 8.335938 7.40625 8.199219 7.796875 7.804688 7.660156 L 5.445312 6.832031 L 5.191406 6.300781 L 5.335938 5.890625 L 4.824219 3.839844 C 4.753906 3.550781 4.925781 3.261719 5.214844 3.191406 Z M 5.214844 3.191406 "/>
<path style=" stroke:none;fill-rule:nonzero;fill:rgb(87.843137%,66.666667%,58.039216%);fill-opacity:1;" d="M 7.808594 5.023438 L 8.5 3.058594 L 8.890625 3.195312 L 8.203125 5.160156 Z M 6.628906 4.609375 L 7.320312 2.644531 L 7.714844 2.78125 L 7.023438 4.746094 Z M 6.628906 4.609375 "/>
<path style=" stroke:none;fill-rule:nonzero;fill:rgb(75.686275%,41.176471%,30.980392%);fill-opacity:1;" d="M 8.746094 9.734375 C 8.746094 9.734375 8.515625 9.269531 8.046875 9.035156 C 7.945312 9.25 7.832031 9.484375 7.710938 9.734375 Z M 8.746094 9.734375 "/>
<path style=" stroke:none;fill-rule:nonzero;fill:rgb(87.843137%,66.666667%,58.039216%);fill-opacity:1;" d="M 7.804688 7.660156 L 7.015625 9.007812 L 6.585938 9.734375 L 6.105469 10.558594 L 6.25 11.667969 C 6.25 11.914062 6.324219 12.144531 6.449219 12.335938 C 6.855469 11.511719 7.320312 10.546875 7.714844 9.734375 L 8.050781 9.035156 C 8.359375 8.390625 8.566406 7.949219 8.566406 7.949219 Z M 7.804688 7.660156 "/>
<path style=" stroke:none;fill-rule:nonzero;fill:rgb(40%,12.941176%,7.45098%);fill-opacity:1;" d="M 8.046875 9.035156 C 7.890625 8.953125 7.707031 8.902344 7.496094 8.902344 C 7.316406 8.902344 7.15625 8.945312 7.015625 9.007812 L 6.585938 9.734375 L 7.714844 9.734375 Z M 8.046875 9.035156 "/>
<path style=" stroke:none;fill-rule:nonzero;fill:rgb(98.039216%,45.490196%,24.313725%);fill-opacity:1;" d="M 5.949219 12.4375 C 5.949219 12.4375 5.234375 13.929688 5.070312 14.277344 C 4.785156 14.894531 4.167969 15 4.167969 15 C 0.832031 15 2.65625 11.523438 2.65625 11.523438 L 5.335938 6.589844 L 8.0625 7.664062 Z M 5.949219 12.4375 "/>
</g>
</svg>
