<?xml version="1.0" encoding="UTF-8"?>
<svg xmlns="http://www.w3.org/2000/svg" xmlns:xlink="http://www.w3.org/1999/xlink" width="15pt" height="15pt" viewBox="0 0 15 15" version="1.1">
<g id="surface1">
<path style=" stroke:none;fill-rule:nonzero;fill:rgb(100%,80%,30.196078%);fill-opacity:1;" d="M 13.332031 7.5 C 13.332031 11.183594 10.347656 14.167969 6.667969 14.167969 C 2.984375 14.167969 0 11.183594 0 7.5 C 0 3.816406 2.984375 0.832031 6.667969 0.832031 C 10.347656 0.832031 13.332031 3.816406 13.332031 7.5 Z M 13.332031 7.5 "/>
<path style=" stroke:none;fill-rule:nonzero;fill:rgb(40%,27.058824%,0%);fill-opacity:1;" d="M 4.78125 5.636719 C 4.78125 6.347656 4.367188 6.921875 3.859375 6.921875 C 3.351562 6.921875 2.941406 6.347656 2.941406 5.636719 C 2.941406 4.925781 3.351562 4.351562 3.859375 4.351562 C 4.367188 4.351562 4.78125 4.925781 4.78125 5.636719 Z M 9.582031 5.636719 C 9.582031 6.347656 9.171875 6.921875 8.664062 6.921875 C 8.15625 6.921875 7.746094 6.347656 7.746094 5.636719 C 7.746094 4.925781 8.15625 4.351562 8.664062 4.351562 C 9.171875 4.351562 9.582031 4.925781 9.582031 5.636719 Z M 4.214844 12.242188 C 4.953125 10.402344 8.996094 10.402344 8.996094 11.140625 C 8.996094 11.507812 6.054688 10.773438 4.214844 12.242188 Z M 4.214844 12.242188 "/>
<path style=" stroke:none;fill-rule:nonzero;fill:rgb(95.686275%,56.470588%,4.705882%);fill-opacity:1;" d="M 13.441406 7.292969 L 7.082031 7.292969 C 6.453125 7.292969 5.945312 7.851562 5.945312 8.542969 C 5.945312 9.230469 6.453125 9.792969 7.082031 9.792969 L 13.441406 9.792969 C 14.074219 9.792969 14.582031 9.230469 14.582031 8.542969 C 14.582031 7.851562 14.074219 7.292969 13.441406 7.292969 Z M 13.441406 7.292969 "/>
</g>
</svg>
