<?xml version="1.0" encoding="UTF-8"?>
<svg xmlns="http://www.w3.org/2000/svg" xmlns:xlink="http://www.w3.org/1999/xlink" width="15pt" height="15pt" viewBox="0 0 15 15" version="1.1">
<g id="surface1">
<path style=" stroke:none;fill-rule:nonzero;fill:rgb(25.882353%,53.72549%,75.686275%);fill-opacity:1;" d="M 12.917969 1.25 C 12.917969 1.710938 12.542969 2.082031 12.082031 2.082031 C 11.625 2.082031 11.25 1.710938 11.25 1.25 C 11.25 0.789062 11.625 0.417969 12.082031 0.417969 C 12.542969 0.417969 12.917969 0.789062 12.917969 1.25 Z M 12.917969 1.25 "/>
<path style=" stroke:none;fill-rule:nonzero;fill:rgb(25.882353%,53.72549%,75.686275%);fill-opacity:1;" d="M 15 3.332031 C 15 4.023438 14.441406 4.582031 13.75 4.582031 C 13.058594 4.582031 12.5 4.023438 12.5 3.332031 C 12.5 2.644531 13.058594 2.082031 13.75 2.082031 C 14.441406 2.082031 15 2.644531 15 3.332031 Z M 15 3.332031 "/>
<path style=" stroke:none;fill-rule:nonzero;fill:rgb(25.882353%,53.72549%,75.686275%);fill-opacity:1;" d="M 15 1.667969 C 15 2.355469 14.441406 2.917969 13.75 2.917969 C 13.058594 2.917969 12.5 2.355469 12.5 1.667969 C 12.5 0.976562 13.058594 0.417969 13.75 0.417969 C 14.441406 0.417969 15 0.976562 15 1.667969 Z M 15 1.667969 "/>
<path style=" stroke:none;fill-rule:nonzero;fill:rgb(25.882353%,53.72549%,75.686275%);fill-opacity:1;" d="M 3.75 1.25 C 3.75 1.710938 3.375 2.082031 2.917969 2.082031 C 2.457031 2.082031 2.082031 1.710938 2.082031 1.25 C 2.082031 0.789062 2.457031 0.417969 2.917969 0.417969 C 3.375 0.417969 3.75 0.789062 3.75 1.25 Z M 3.75 1.25 "/>
<path style=" stroke:none;fill-rule:nonzero;fill:rgb(25.882353%,53.72549%,75.686275%);fill-opacity:1;" d="M 2.5 3.332031 C 2.5 4.023438 1.941406 4.582031 1.25 4.582031 C 0.558594 4.582031 0 4.023438 0 3.332031 C 0 2.644531 0.558594 2.082031 1.25 2.082031 C 1.941406 2.082031 2.5 2.644531 2.5 3.332031 Z M 2.5 3.332031 "/>
<path style=" stroke:none;fill-rule:nonzero;fill:rgb(25.882353%,53.72549%,75.686275%);fill-opacity:1;" d="M 2.5 1.667969 C 2.5 2.355469 1.941406 2.917969 1.25 2.917969 C 0.558594 2.917969 0 2.355469 0 1.667969 C 0 0.976562 0.558594 0.417969 1.25 0.417969 C 1.941406 0.417969 2.5 0.976562 2.5 1.667969 Z M 2.5 1.667969 "/>
<path style=" stroke:none;fill-rule:nonzero;fill:rgb(99.607843%,90.588235%,72.156863%);fill-opacity:1;" d="M 15 7.5 C 15 11.640625 11.640625 15 7.5 15 C 3.359375 15 0 11.640625 0 7.5 C 0 3.359375 3.359375 0 7.5 0 C 11.640625 0 15 3.359375 15 7.5 "/>
<path style=" stroke:none;fill-rule:nonzero;fill:rgb(25.882353%,53.72549%,75.686275%);fill-opacity:1;" d="M 13.75 1.875 C 13.75 2.449219 13.285156 2.917969 12.707031 2.917969 C 12.132812 2.917969 11.667969 2.449219 11.667969 1.875 C 11.667969 1.300781 12.132812 0.832031 12.707031 0.832031 C 13.285156 0.832031 13.75 1.300781 13.75 1.875 Z M 13.75 1.875 "/>
<path style=" stroke:none;fill-rule:nonzero;fill:rgb(25.882353%,53.72549%,75.686275%);fill-opacity:1;" d="M 14.167969 2.917969 C 14.167969 3.375 13.792969 3.75 13.332031 3.75 C 12.875 3.75 12.5 3.375 12.5 2.917969 C 12.5 2.457031 12.875 2.082031 13.332031 2.082031 C 13.792969 2.082031 14.167969 2.457031 14.167969 2.917969 Z M 14.167969 2.917969 "/>
<path style=" stroke:none;fill-rule:nonzero;fill:rgb(25.882353%,53.72549%,75.686275%);fill-opacity:1;" d="M 3.332031 1.875 C 3.332031 2.449219 2.867188 2.917969 2.292969 2.917969 C 1.714844 2.917969 1.25 2.449219 1.25 1.875 C 1.25 1.300781 1.714844 0.832031 2.292969 0.832031 C 2.867188 0.832031 3.332031 1.300781 3.332031 1.875 Z M 3.332031 1.875 "/>
<path style=" stroke:none;fill-rule:nonzero;fill:rgb(25.882353%,53.72549%,75.686275%);fill-opacity:1;" d="M 2.5 2.917969 C 2.5 3.375 2.125 3.75 1.667969 3.75 C 1.207031 3.75 0.832031 3.375 0.832031 2.917969 C 0.832031 2.457031 1.207031 2.082031 1.667969 2.082031 C 2.125 2.082031 2.5 2.457031 2.5 2.917969 Z M 2.5 2.917969 "/>
<path style=" stroke:none;fill-rule:nonzero;fill:rgb(100%,47.058824%,57.254902%);fill-opacity:1;" d="M 4.554688 8.75 C 4.554688 9.671875 3.808594 10.417969 2.886719 10.417969 C 1.96875 10.417969 1.222656 9.671875 1.222656 8.75 C 1.222656 7.828125 1.96875 7.082031 2.886719 7.082031 C 3.808594 7.082031 4.554688 7.828125 4.554688 8.75 Z M 4.554688 8.75 "/>
<path style=" stroke:none;fill-rule:nonzero;fill:rgb(100%,47.058824%,57.254902%);fill-opacity:1;" d="M 13.722656 8.75 C 13.722656 9.671875 12.976562 10.417969 12.054688 10.417969 C 11.132812 10.417969 10.386719 9.671875 10.386719 8.75 C 10.386719 7.828125 11.132812 7.082031 12.054688 7.082031 C 12.976562 7.082031 13.722656 7.828125 13.722656 8.75 Z M 13.722656 8.75 "/>
<path style=" stroke:none;fill-rule:nonzero;fill:rgb(85.490196%,18.431373%,27.843137%);fill-opacity:1;" d="M 11.390625 9.84375 C 11.316406 9.777344 11.203125 9.773438 11.125 9.832031 C 11.109375 9.84375 9.492188 11.042969 7.5 11.042969 C 5.515625 11.042969 3.890625 9.84375 3.875 9.832031 C 3.796875 9.773438 3.683594 9.777344 3.609375 9.84375 C 3.535156 9.910156 3.519531 10.023438 3.570312 10.105469 C 3.625 10.195312 4.910156 12.917969 7.5 12.917969 C 10.089844 12.917969 11.375 10.195312 11.429688 10.105469 C 11.480469 10.023438 11.464844 9.910156 11.390625 9.84375 Z M 11.390625 9.84375 "/>
<path style=" stroke:none;fill-rule:nonzero;fill:rgb(40%,27.058824%,0%);fill-opacity:1;" d="M 5.832031 4.792969 C 5.832031 3.984375 5.367188 3.332031 4.792969 3.332031 C 4.214844 3.332031 3.75 3.984375 3.75 4.792969 C 3.75 5.597656 4.214844 6.25 4.792969 6.25 C 5.367188 6.25 5.832031 5.597656 5.832031 4.792969 Z M 5.832031 4.792969 "/>
<path style=" stroke:none;fill-rule:nonzero;fill:rgb(40%,27.058824%,0%);fill-opacity:1;" d="M 11.667969 4.792969 C 11.667969 3.984375 11.199219 3.332031 10.625 3.332031 C 10.050781 3.332031 9.582031 3.984375 9.582031 4.792969 C 9.582031 5.597656 10.050781 6.25 10.625 6.25 C 11.199219 6.25 11.667969 5.597656 11.667969 4.792969 Z M 11.667969 4.792969 "/>
<path style=" stroke:none;fill-rule:nonzero;fill:rgb(73.333333%,10.196078%,20.392157%);fill-opacity:1;" d="M 9.167969 8.125 C 9.167969 8.929688 8.515625 9.582031 7.707031 9.582031 C 6.902344 9.582031 6.25 8.929688 6.25 8.125 C 6.25 7.320312 6.902344 6.667969 7.707031 6.667969 C 8.515625 6.667969 9.167969 7.320312 9.167969 8.125 Z M 9.167969 8.125 "/>
</g>
</svg>
