<?xml version="1.0" encoding="UTF-8"?>
<svg xmlns="http://www.w3.org/2000/svg" xmlns:xlink="http://www.w3.org/1999/xlink" width="15pt" height="15pt" viewBox="0 0 15 15" version="1.1">
<g id="surface1">
<path style=" stroke:none;fill-rule:nonzero;fill:rgb(100%,80%,30.196078%);fill-opacity:1;" d="M 14.582031 7.082031 C 14.582031 10.996094 11.410156 14.167969 7.5 14.167969 C 3.589844 14.167969 0.417969 10.996094 0.417969 7.082031 C 0.417969 3.171875 3.589844 0 7.5 0 C 11.410156 0 14.582031 3.171875 14.582031 7.082031 "/>
<path style=" stroke:none;fill-rule:nonzero;fill:rgb(40%,27.058824%,0%);fill-opacity:1;" d="M 11.855469 5.957031 C 11.832031 5.902344 11.234375 4.582031 10 4.582031 C 8.769531 4.582031 8.167969 5.902344 8.144531 5.957031 C 8.105469 6.042969 8.128906 6.144531 8.203125 6.203125 C 8.277344 6.261719 8.378906 6.265625 8.457031 6.210938 C 8.460938 6.207031 8.984375 5.832031 10 5.832031 C 11.011719 5.832031 11.53125 6.199219 11.542969 6.207031 C 11.578125 6.234375 11.625 6.25 11.667969 6.25 C 11.710938 6.25 11.757812 6.234375 11.796875 6.203125 C 11.871094 6.144531 11.894531 6.042969 11.855469 5.957031 Z M 6.855469 5.957031 C 6.832031 5.902344 6.234375 4.582031 5 4.582031 C 3.769531 4.582031 3.167969 5.902344 3.144531 5.957031 C 3.105469 6.042969 3.128906 6.144531 3.203125 6.203125 C 3.277344 6.261719 3.378906 6.265625 3.457031 6.210938 C 3.460938 6.207031 3.984375 5.832031 5 5.832031 C 6.011719 5.832031 6.53125 6.199219 6.542969 6.207031 C 6.578125 6.234375 6.625 6.25 6.667969 6.25 C 6.710938 6.25 6.757812 6.234375 6.796875 6.203125 C 6.871094 6.144531 6.894531 6.042969 6.855469 5.957031 Z M 6.855469 5.957031 "/>
<path style=" stroke:none;fill-rule:nonzero;fill:rgb(95.686275%,56.470588%,4.705882%);fill-opacity:1;" d="M 11.042969 11.40625 C 11.042969 11.40625 11.457031 11.105469 11.113281 10.730469 C 10.765625 10.359375 10.4375 10.753906 10.4375 10.753906 L 8.707031 12.363281 C 8.679688 12.277344 8.515625 12.054688 8.480469 11.96875 L 10.878906 9.734375 C 10.878906 9.734375 11.292969 9.433594 10.945312 9.0625 C 10.597656 8.691406 10.269531 9.082031 10.269531 9.082031 L 8.015625 11.183594 C 7.960938 11.121094 7.820312 10.960938 7.765625 10.894531 L 10.382812 8.457031 C 10.382812 8.457031 10.796875 8.15625 10.449219 7.785156 C 10.101562 7.410156 9.773438 7.804688 9.773438 7.804688 L 7.160156 10.242188 C 7.097656 10.183594 6.902344 9.988281 6.839844 9.929688 L 9.285156 7.652344 C 9.285156 7.652344 9.699219 7.351562 9.351562 6.980469 C 9.003906 6.609375 8.675781 7 8.675781 7 L 6.09375 9.410156 L 5.886719 9.605469 L 5.792969 9.691406 C 5.792969 9.691406 5.570312 10 5.339844 9.765625 L 6.109375 8.03125 C 6.109375 8.03125 6.347656 7.585938 5.902344 7.34375 C 5.453125 7.101562 5.214844 7.546875 5.214844 7.546875 L 4.519531 8.695312 C 4.242188 9.152344 3.957031 9.605469 3.617188 10.015625 C 2.667969 11.179688 2.695312 12.898438 3.75 14.027344 C 4.902344 15.261719 6.832031 15.328125 8.066406 14.179688 L 8.25 14.007812 Z M 11.042969 11.40625 "/>
</g>
</svg>
