<?xml version="1.0" encoding="UTF-8"?>
<svg xmlns="http://www.w3.org/2000/svg" xmlns:xlink="http://www.w3.org/1999/xlink" width="15pt" height="15pt" viewBox="0 0 15 15" version="1.1">
<g id="surface1">
<path style=" stroke:none;fill-rule:nonzero;fill:rgb(37.647059%,20.784314%,16.470588%);fill-opacity:1;" d="M 7.5 1.65625 C 9.210938 1.65625 12.0625 2.511719 12.0625 6.21875 C 12.0625 9.925781 12.0625 10.78125 11.207031 10.78125 C 10.351562 10.78125 9.210938 9.925781 7.5 9.925781 C 5.789062 9.925781 4.675781 10.78125 3.796875 10.78125 C 2.84375 10.78125 2.941406 7.359375 2.941406 6.21875 C 2.941406 2.511719 5.792969 1.65625 7.5 1.65625 "/>
<path style=" stroke:none;fill-rule:nonzero;fill:rgb(16.078431%,18.431373%,20%);fill-opacity:1;" d="M 12.917969 15 L 12.917969 13.125 C 12.917969 11.746094 11.433594 10.832031 10.050781 10.832031 L 5.050781 10.832031 C 3.671875 10.832031 2.082031 11.746094 2.082031 13.125 L 2.082031 15 Z M 12.917969 15 "/>
<path style=" stroke:none;fill-rule:nonzero;fill:rgb(68.627451%,49.411765%,34.117647%);fill-opacity:1;" d="M 6.042969 10.832031 C 6.457031 11.660156 7.203125 11.667969 7.5 11.667969 C 7.796875 11.667969 8.546875 11.644531 8.957031 10.832031 L 8.957031 9.335938 L 6.042969 9.335938 Z M 6.042969 10.832031 "/>
<path style=" stroke:none;fill-rule:nonzero;fill:rgb(60.784314%,41.568627%,28.627451%);fill-opacity:1;" d="M 6.042969 10.023438 C 6.449219 10.480469 6.953125 10.605469 7.5 10.605469 C 8.046875 10.605469 8.550781 10.480469 8.957031 10.023438 L 8.957031 9.585938 L 6.042969 9.585938 Z M 6.042969 10.023438 "/>
<path style=" stroke:none;fill-rule:nonzero;fill:rgb(32.941176%,38.039216%,43.921569%);fill-opacity:1;" d="M 5.8125 12.335938 L 4.203125 11.992188 L 4.921875 10.832031 L 5.8125 10.835938 Z M 5.8125 12.335938 "/>
<path style=" stroke:none;fill-rule:nonzero;fill:rgb(40%,45.882353%,49.803922%);fill-opacity:1;" d="M 6.699219 15 L 5.695312 15 L 3.828125 11.707031 L 4.921875 12.054688 L 5.574219 11.226562 Z M 6.699219 15 "/>
<path style=" stroke:none;fill-rule:nonzero;fill:rgb(32.941176%,38.039216%,43.921569%);fill-opacity:1;" d="M 9.1875 12.335938 L 10.796875 11.992188 L 10.078125 10.832031 L 9.1875 10.835938 Z M 9.1875 12.335938 "/>
<path style=" stroke:none;fill-rule:nonzero;fill:rgb(40%,45.882353%,49.803922%);fill-opacity:1;" d="M 8.300781 15 L 9.304688 15 L 11.171875 11.707031 L 10.078125 12.054688 L 9.425781 11.226562 Z M 8.300781 15 "/>
<path style=" stroke:none;fill-rule:nonzero;fill:rgb(87.45098%,90.588235%,92.54902%);fill-opacity:1;" d="M 8.394531 15 L 9.648438 10.832031 L 7.5 11.25 L 5.351562 10.832031 L 6.605469 15 Z M 8.394531 15 "/>
<path style=" stroke:none;fill-rule:nonzero;fill:rgb(16.078431%,18.431373%,20%);fill-opacity:1;" d="M 7.761719 12.832031 C 7.761719 12.976562 7.644531 13.09375 7.5 13.09375 C 7.355469 13.09375 7.238281 12.976562 7.238281 12.832031 C 7.238281 12.6875 7.355469 12.570312 7.5 12.570312 C 7.644531 12.570312 7.761719 12.6875 7.761719 12.832031 Z M 7.761719 12.832031 "/>
<path style=" stroke:none;fill-rule:nonzero;fill:rgb(16.078431%,18.431373%,20%);fill-opacity:1;" d="M 7.761719 13.914062 C 7.761719 14.058594 7.644531 14.175781 7.5 14.175781 C 7.355469 14.175781 7.238281 14.058594 7.238281 13.914062 C 7.238281 13.769531 7.355469 13.65625 7.5 13.65625 C 7.644531 13.65625 7.761719 13.769531 7.761719 13.914062 Z M 7.761719 13.914062 "/>
<path style=" stroke:none;fill-rule:nonzero;fill:rgb(16.078431%,18.431373%,20%);fill-opacity:1;" d="M 7.5 14.738281 C 7.355469 14.738281 7.238281 14.855469 7.238281 15 L 7.761719 15 C 7.761719 14.855469 7.644531 14.738281 7.5 14.738281 Z M 7.5 14.738281 "/>
<path style=" stroke:none;fill-rule:nonzero;fill:rgb(95.686275%,96.862745%,97.647059%);fill-opacity:1;" d="M 5.957031 10.363281 L 7.5 11.234375 L 6.492188 12.304688 L 5.351562 10.832031 Z M 9.042969 10.363281 L 7.5 11.234375 L 8.507812 12.304688 L 9.648438 10.832031 Z M 9.042969 10.363281 "/>
<path style=" stroke:none;fill-rule:nonzero;fill:rgb(16.078431%,18.431373%,20%);fill-opacity:1;" d="M 8.660156 10.855469 C 8.628906 10.835938 8.59375 10.835938 8.5625 10.855469 L 7.5 11.4375 L 6.4375 10.855469 C 6.40625 10.835938 6.371094 10.839844 6.339844 10.855469 C 6.3125 10.871094 6.292969 10.90625 6.292969 10.9375 L 6.292969 12.160156 C 6.292969 12.191406 6.3125 12.226562 6.339844 12.242188 C 6.355469 12.25 6.371094 12.257812 6.390625 12.257812 C 6.40625 12.257812 6.421875 12.253906 6.4375 12.246094 L 7.5 11.660156 L 8.5625 12.246094 C 8.578125 12.253906 8.59375 12.257812 8.609375 12.257812 C 8.625 12.257812 8.644531 12.25 8.660156 12.242188 C 8.6875 12.226562 8.707031 12.191406 8.707031 12.160156 L 8.707031 10.9375 C 8.707031 10.90625 8.6875 10.871094 8.660156 10.855469 Z M 8.660156 10.855469 "/>
<path style=" stroke:none;fill-rule:nonzero;fill:rgb(68.627451%,49.411765%,34.117647%);fill-opacity:1;" d="M 4.082031 6.09375 C 4.082031 3.664062 5.613281 1.691406 7.5 1.691406 C 9.390625 1.691406 10.921875 3.664062 10.921875 6.09375 C 10.921875 8.523438 9.390625 10.378906 7.5 10.378906 C 5.613281 10.378906 4.082031 8.523438 4.082031 6.09375 "/>
<path style=" stroke:none;fill-rule:nonzero;fill:rgb(87.45098%,12.156863%,19.607843%);fill-opacity:1;" d="M 7.5 9.355469 C 6.832031 9.355469 6.480469 9.023438 6.445312 8.984375 C 6.332031 8.875 6.332031 8.695312 6.445312 8.582031 C 6.554688 8.472656 6.734375 8.472656 6.84375 8.582031 C 6.859375 8.59375 7.074219 8.785156 7.5 8.785156 C 7.933594 8.785156 8.148438 8.589844 8.160156 8.578125 C 8.273438 8.472656 8.453125 8.476562 8.558594 8.589844 C 8.667969 8.699219 8.667969 8.875 8.558594 8.984375 C 8.519531 9.023438 8.171875 9.355469 7.5 9.355469 "/>
<path style=" stroke:none;fill-rule:nonzero;fill:rgb(56.862745%,35.294118%,20.392157%);fill-opacity:1;" d="M 7.871094 8.085938 L 7.167969 8.085938 C 7.070312 8.085938 6.992188 8.007812 6.992188 7.910156 L 6.992188 7.847656 C 6.992188 7.75 7.070312 7.671875 7.167969 7.671875 L 7.871094 7.671875 C 7.96875 7.671875 8.050781 7.75 8.050781 7.847656 L 8.050781 7.910156 C 8.050781 8.007812 7.96875 8.085938 7.871094 8.085938 "/>
<path style=" stroke:none;fill-rule:nonzero;fill:rgb(40%,12.941176%,7.45098%);fill-opacity:1;" d="M 8.929688 7 C 8.734375 7 8.578125 6.839844 8.578125 6.644531 L 8.578125 6.292969 C 8.578125 6.097656 8.734375 5.941406 8.929688 5.941406 C 9.125 5.941406 9.28125 6.097656 9.28125 6.292969 L 9.28125 6.644531 C 9.28125 6.839844 9.125 7 8.929688 7 M 6.109375 7 C 5.917969 7 5.757812 6.839844 5.757812 6.644531 L 5.757812 6.292969 C 5.757812 6.097656 5.917969 5.941406 6.109375 5.941406 C 6.304688 5.941406 6.464844 6.097656 6.464844 6.292969 L 6.464844 6.644531 C 6.464844 6.839844 6.304688 7 6.109375 7 "/>
<path style=" stroke:none;fill-rule:nonzero;fill:rgb(37.647059%,20.784314%,16.470588%);fill-opacity:1;" d="M 3.242188 7.460938 C 3.234375 7.046875 3.226562 7.367188 3.226562 7.269531 C 3.226562 5.84375 4.082031 7.472656 4.082031 6.457031 C 4.082031 5.441406 4.652344 5.339844 5.21875 4.769531 C 5.503906 4.484375 6.074219 3.925781 6.074219 3.925781 C 6.074219 3.925781 7.5 4.789062 8.640625 4.789062 C 9.78125 4.789062 10.921875 5.359375 10.921875 6.5 C 10.921875 7.640625 11.777344 5.839844 11.777344 7.265625 C 11.777344 7.367188 11.769531 7.046875 11.761719 7.460938 L 12.0625 7.460938 C 12.0625 6.628906 12.0625 6.660156 12.0625 6.128906 C 12.0625 2.421875 9.210938 1.042969 7.5 1.042969 C 5.789062 1.042969 2.941406 2.398438 2.941406 6.105469 C 2.941406 6.433594 2.933594 6.628906 2.941406 7.460938 Z M 3.242188 7.460938 "/>
<path style=" stroke:none;fill-rule:nonzero;fill:rgb(68.627451%,49.411765%,34.117647%);fill-opacity:1;" d="M 4.792969 6.183594 C 4.792969 6.789062 4.488281 7.277344 4.109375 7.277344 C 3.734375 7.277344 3.425781 6.789062 3.425781 6.183594 C 3.425781 5.582031 3.734375 5.09375 4.109375 5.09375 C 4.488281 5.09375 4.792969 5.582031 4.792969 6.183594 M 11.621094 6.183594 C 11.621094 6.789062 11.316406 7.277344 10.9375 7.277344 C 10.5625 7.277344 10.253906 6.789062 10.253906 6.183594 C 10.253906 5.582031 10.5625 5.09375 10.9375 5.09375 C 11.316406 5.09375 11.621094 5.582031 11.621094 6.183594 "/>
</g>
</svg>
