<?xml version="1.0" encoding="UTF-8"?>
<svg xmlns="http://www.w3.org/2000/svg" xmlns:xlink="http://www.w3.org/1999/xlink" width="15pt" height="15pt" viewBox="0 0 15 15" version="1.1">
<g id="surface1">
<path style=" stroke:none;fill-rule:nonzero;fill:rgb(81.960784%,82.745098%,83.137255%);fill-opacity:1;" d="M 4.167969 10.417969 C 4.167969 9.496094 3.792969 8.75 3.332031 8.75 C 2.875 8.75 2.5 7.917969 2.5 10 C 2.5 10.921875 2.917969 12.082031 3.75 12.082031 C 4.210938 12.082031 4.167969 12.082031 4.167969 10.417969 Z M 10.835938 10.417969 C 10.835938 9.496094 11.207031 8.75 11.667969 8.75 C 12.128906 8.75 12.5 7.917969 12.5 10 C 12.5 10.921875 12.085938 12.082031 11.25 12.082031 C 10.789062 12.082031 10.835938 12.082031 10.835938 10.417969 Z M 10.835938 10.417969 "/>
<path style=" stroke:none;fill-rule:nonzero;fill:rgb(83.529412%,67.058824%,53.333333%);fill-opacity:1;" d="M 2.5 7.734375 C 2.5 4.183594 4.738281 1.300781 7.5 1.300781 C 10.261719 1.300781 12.5 4.183594 12.5 7.734375 C 12.5 11.667969 9.582031 14.167969 7.5 14.167969 C 5.417969 14.167969 2.5 11.667969 2.5 7.734375 Z M 2.5 7.734375 "/>
<path style=" stroke:none;fill-rule:nonzero;fill:rgb(81.960784%,82.745098%,83.137255%);fill-opacity:1;" d="M 3.75 5.832031 C 3.75 4.914062 3.375 4.167969 2.917969 4.167969 C 2.457031 4.167969 2.082031 4.914062 2.082031 5.832031 C 2.082031 6.753906 2.457031 7.5 2.917969 7.5 C 3.375 7.5 3.75 6.753906 3.75 5.832031 Z M 3.75 5.832031 "/>
<path style=" stroke:none;fill-rule:nonzero;fill:rgb(83.529412%,67.058824%,53.333333%);fill-opacity:1;" d="M 3.332031 8.75 C 3.332031 9.671875 2.867188 10.417969 2.292969 10.417969 C 1.714844 10.417969 1.25 9.671875 1.25 8.75 C 1.25 7.828125 1.714844 7.082031 2.292969 7.082031 C 2.867188 7.082031 3.332031 7.828125 3.332031 8.75 Z M 3.332031 8.75 "/>
<path style=" stroke:none;fill-rule:nonzero;fill:rgb(81.960784%,82.745098%,83.137255%);fill-opacity:1;" d="M 12.917969 5.832031 C 12.917969 4.914062 12.542969 4.167969 12.082031 4.167969 C 11.625 4.167969 11.25 4.914062 11.25 5.832031 C 11.25 6.753906 11.625 7.5 12.082031 7.5 C 12.542969 7.5 12.917969 6.753906 12.917969 5.832031 Z M 12.917969 5.832031 "/>
<path style=" stroke:none;fill-rule:nonzero;fill:rgb(83.529412%,67.058824%,53.333333%);fill-opacity:1;" d="M 13.75 8.75 C 13.75 9.671875 13.285156 10.417969 12.707031 10.417969 C 12.132812 10.417969 11.667969 9.671875 11.667969 8.75 C 11.667969 7.828125 12.132812 7.082031 12.707031 7.082031 C 13.285156 7.082031 13.75 7.828125 13.75 8.75 Z M 13.75 8.75 "/>
<path style=" stroke:none;fill-rule:nonzero;fill:rgb(86.666667%,18.039216%,26.666667%);fill-opacity:1;" d="M 12.902344 4.167969 C 12.90625 4.089844 12.917969 4.011719 12.917969 3.933594 C 12.917969 1.761719 10.488281 0 7.496094 0 C 4.5 0 2.074219 1.761719 2.074219 3.933594 C 2.074219 4.011719 2.085938 4.089844 2.089844 4.167969 Z M 7.5 12.769531 C 6.492188 12.769531 5.71875 12.484375 5.6875 12.472656 C 5.472656 12.390625 5.363281 12.152344 5.441406 11.9375 C 5.523438 11.722656 5.765625 11.613281 5.980469 11.691406 C 5.984375 11.695312 6.648438 11.9375 7.5 11.9375 C 8.351562 11.9375 9.015625 11.695312 9.019531 11.691406 C 9.234375 11.613281 9.476562 11.722656 9.554688 11.9375 C 9.636719 12.152344 9.527344 12.390625 9.3125 12.472656 C 9.28125 12.484375 8.507812 12.769531 7.5 12.769531 Z M 7.5 12.769531 "/>
<path style=" stroke:none;fill-rule:nonzero;fill:rgb(75.686275%,41.176471%,30.980392%);fill-opacity:1;" d="M 7.917969 10.832031 L 7.082031 10.832031 C 6.851562 10.832031 6.667969 10.648438 6.667969 10.417969 C 6.667969 10.1875 6.851562 10 7.082031 10 L 7.917969 10 C 8.148438 10 8.332031 10.1875 8.332031 10.417969 C 8.332031 10.648438 8.148438 10.832031 7.917969 10.832031 Z M 7.917969 10.832031 "/>
<path style=" stroke:none;fill-rule:nonzero;fill:rgb(40%,12.941176%,7.45098%);fill-opacity:1;" d="M 5 9.582031 C 4.769531 9.582031 4.582031 9.398438 4.582031 9.167969 L 4.582031 8.332031 C 4.582031 8.101562 4.769531 7.917969 5 7.917969 C 5.230469 7.917969 5.417969 8.101562 5.417969 8.332031 L 5.417969 9.167969 C 5.417969 9.398438 5.230469 9.582031 5 9.582031 Z M 10 9.582031 C 9.769531 9.582031 9.582031 9.398438 9.582031 9.167969 L 9.582031 8.332031 C 9.582031 8.101562 9.769531 7.917969 10 7.917969 C 10.230469 7.917969 10.417969 8.101562 10.417969 8.332031 L 10.417969 9.167969 C 10.417969 9.398438 10.230469 9.582031 10 9.582031 Z M 10 9.582031 "/>
<path style=" stroke:none;fill-rule:nonzero;fill:rgb(94.509804%,94.901961%,94.901961%);fill-opacity:1;" d="M 9.167969 4.582031 C 9.167969 5.503906 8.421875 6.25 7.5 6.25 C 6.578125 6.25 5.832031 5.503906 5.832031 4.582031 C 5.832031 3.664062 6.578125 2.917969 7.5 2.917969 C 8.421875 2.917969 9.167969 3.664062 9.167969 4.582031 Z M 9.167969 4.582031 "/>
<path style=" stroke:none;fill-rule:nonzero;fill:rgb(94.509804%,94.901961%,94.901961%);fill-opacity:1;" d="M 6.25 4.792969 C 6.25 5.597656 5.597656 6.25 4.792969 6.25 C 3.984375 6.25 3.332031 5.597656 3.332031 4.792969 C 3.332031 3.984375 3.984375 3.332031 4.792969 3.332031 C 5.597656 3.332031 6.25 3.984375 6.25 4.792969 Z M 6.25 4.792969 "/>
<path style=" stroke:none;fill-rule:nonzero;fill:rgb(94.509804%,94.901961%,94.901961%);fill-opacity:1;" d="M 3.75 5 C 3.75 5.691406 3.191406 6.25 2.5 6.25 C 1.808594 6.25 1.25 5.691406 1.25 5 C 1.25 4.308594 1.808594 3.75 2.5 3.75 C 3.191406 3.75 3.75 4.308594 3.75 5 Z M 3.75 5 "/>
<path style=" stroke:none;fill-rule:nonzero;fill:rgb(94.509804%,94.901961%,94.901961%);fill-opacity:1;" d="M 11.667969 4.792969 C 11.667969 5.597656 11.015625 6.25 10.207031 6.25 C 9.402344 6.25 8.75 5.597656 8.75 4.792969 C 8.75 3.984375 9.402344 3.332031 10.207031 3.332031 C 11.015625 3.332031 11.667969 3.984375 11.667969 4.792969 Z M 11.667969 4.792969 "/>
<path style=" stroke:none;fill-rule:nonzero;fill:rgb(94.509804%,94.901961%,94.901961%);fill-opacity:1;" d="M 13.75 5 C 13.75 5.691406 13.191406 6.25 12.5 6.25 C 11.808594 6.25 11.25 5.691406 11.25 5 C 11.25 4.308594 11.808594 3.75 12.5 3.75 C 13.191406 3.75 13.75 4.308594 13.75 5 Z M 13.75 5 "/>
<path style=" stroke:none;fill-rule:nonzero;fill:rgb(81.960784%,82.745098%,83.137255%);fill-opacity:1;" d="M 11.25 10 C 11.25 9.539062 10.597656 9.167969 9.792969 9.167969 C 8.984375 9.167969 8.332031 9.539062 8.332031 10 C 8.332031 10.460938 8.984375 10.832031 9.792969 10.832031 C 10.597656 10.832031 11.25 10.460938 11.25 10 Z M 11.25 10 "/>
<path style=" stroke:none;fill-rule:nonzero;fill:rgb(81.960784%,82.745098%,83.137255%);fill-opacity:1;" d="M 6.667969 10 C 6.667969 9.539062 6.015625 9.167969 5.207031 9.167969 C 4.402344 9.167969 3.75 9.539062 3.75 10 C 3.75 10.460938 4.402344 10.832031 5.207031 10.832031 C 6.015625 10.832031 6.667969 10.460938 6.667969 10 Z M 6.667969 10 "/>
<path style=" stroke:none;fill-rule:nonzero;fill:rgb(94.509804%,94.901961%,94.901961%);fill-opacity:1;" d="M 13.75 5 C 13.75 4.308594 1.25 4.308594 1.25 5 C 1.25 5.691406 1.808594 6.25 2.5 6.25 L 12.5 6.25 C 13.191406 6.25 13.75 5.691406 13.75 5 Z M 13.75 5 "/>
</g>
</svg>
