<?xml version="1.0" encoding="UTF-8"?>
<svg xmlns="http://www.w3.org/2000/svg" xmlns:xlink="http://www.w3.org/1999/xlink" width="15pt" height="15pt" viewBox="0 0 15 15" version="1.1">
<g id="surface1">
<path style=" stroke:none;fill-rule:nonzero;fill:rgb(16.078431%,18.431373%,20%);fill-opacity:1;" d="M 7.917969 0 C 7.199219 0 6.523438 0.167969 5.917969 0.464844 C 5.753906 0.433594 5.589844 0.417969 5.417969 0.417969 C 3.804688 0.417969 2.5 1.722656 2.5 3.332031 L 2.5 8.332031 L 2.507812 8.332031 C 2.582031 11.027344 4.785156 13.191406 7.5 13.191406 C 10.214844 13.191406 12.417969 11.027344 12.492188 8.332031 L 12.5 8.332031 L 12.5 4.582031 C 12.5 2.050781 10.449219 0 7.917969 0 Z M 7.917969 0 "/>
<path style=" stroke:none;fill-rule:nonzero;fill:rgb(57.254902%,40.784314%,79.215686%);fill-opacity:1;" d="M 11.25 8.75 L 3.75 8.75 C 2.828125 8.75 2.082031 9.496094 2.082031 10.417969 L 2.082031 15 L 12.917969 15 L 12.917969 10.417969 C 12.917969 9.496094 12.171875 8.75 11.25 8.75 Z M 11.25 8.75 "/>
<path style=" stroke:none;fill-rule:nonzero;fill:rgb(96.862745%,87.058824%,80.784314%);fill-opacity:1;" d="M 5.832031 2.082031 C 5.832031 2.082031 5.832031 4.296875 3.75 4.558594 L 3.75 7.082031 C 3.75 9.15625 5.429688 10.832031 7.5 10.832031 C 9.570312 10.832031 11.25 9.15625 11.25 7.082031 L 11.25 4.992188 C 6.621094 4.835938 5.832031 2.082031 5.832031 2.082031 Z M 5.832031 2.082031 "/>
<path style=" stroke:none;fill-rule:nonzero;fill:rgb(45.490196%,31.372549%,65.882353%);fill-opacity:1;" d="M 4.167969 11.25 L 4.582031 11.25 L 4.582031 15 L 4.167969 15 Z M 4.167969 11.25 "/>
<path style=" stroke:none;fill-rule:nonzero;fill:rgb(87.843137%,66.666667%,58.039216%);fill-opacity:1;" d="M 1.960938 11.039062 L 1.839844 11.015625 L 1.628906 11.015625 C 1.628906 10.992188 1.636719 10.96875 1.644531 10.945312 C 1.496094 10.855469 1.414062 10.683594 1.453125 10.507812 C 1.5 10.28125 1.71875 10.136719 1.945312 10.183594 L 2.816406 10.363281 L 3.515625 10.363281 C 3.875 10.363281 4.167969 10.65625 4.167969 11.015625 L 4.167969 11.667969 L 2.605469 11.667969 C 2.605469 11.667969 1.988281 11.386719 1.960938 11.039062 Z M 1.960938 11.039062 "/>
<path style=" stroke:none;fill-rule:nonzero;fill:rgb(96.862745%,87.058824%,80.784314%);fill-opacity:1;" d="M 0 10.691406 C 0 10.507812 0.144531 10.363281 0.324219 10.363281 L 2.28125 10.691406 L 3.839844 10.691406 C 4.019531 10.691406 4.167969 10.835938 4.167969 11.015625 L 4.167969 11.667969 L 2.082031 11.667969 L 0.324219 11.015625 C 0.324219 11.015625 0 10.871094 0 10.691406 Z M 0 10.691406 "/>
<path style=" stroke:none;fill-rule:nonzero;fill:rgb(57.254902%,40.784314%,79.215686%);fill-opacity:1;" d="M 1.667969 15 L 4.167969 15 L 4.167969 11.667969 L 2.082031 11.667969 Z M 1.667969 15 "/>
<path style=" stroke:none;fill-rule:nonzero;fill:rgb(45.490196%,31.372549%,65.882353%);fill-opacity:1;" d="M 10.417969 11.25 L 10.832031 11.25 L 10.832031 15 L 10.417969 15 Z M 10.417969 11.25 "/>
<path style=" stroke:none;fill-rule:nonzero;fill:rgb(87.843137%,66.666667%,58.039216%);fill-opacity:1;" d="M 13.039062 11.039062 L 13.160156 11.015625 L 13.371094 11.015625 C 13.371094 10.992188 13.363281 10.96875 13.355469 10.945312 C 13.503906 10.855469 13.585938 10.683594 13.546875 10.507812 C 13.5 10.28125 13.28125 10.136719 13.054688 10.183594 L 12.183594 10.363281 L 11.484375 10.363281 C 11.125 10.363281 10.832031 10.65625 10.832031 11.015625 L 10.832031 11.667969 L 12.394531 11.667969 C 12.394531 11.667969 13.011719 11.386719 13.039062 11.039062 Z M 13.039062 11.039062 "/>
<path style=" stroke:none;fill-rule:nonzero;fill:rgb(96.862745%,87.058824%,80.784314%);fill-opacity:1;" d="M 15 10.691406 C 15 10.507812 14.855469 10.363281 14.675781 10.363281 L 12.71875 10.691406 L 11.160156 10.691406 C 10.980469 10.691406 10.832031 10.835938 10.832031 11.015625 L 10.832031 11.667969 L 12.917969 11.667969 L 14.675781 11.015625 C 14.675781 11.015625 15 10.871094 15 10.691406 Z M 15 10.691406 "/>
<path style=" stroke:none;fill-rule:nonzero;fill:rgb(57.254902%,40.784314%,79.215686%);fill-opacity:1;" d="M 13.332031 15 L 10.832031 15 L 10.832031 11.667969 L 12.917969 11.667969 Z M 13.332031 15 "/>
<path style=" stroke:none;fill-rule:nonzero;fill:rgb(75.686275%,41.176471%,30.980392%);fill-opacity:1;" d="M 7.917969 8.125 L 7.082031 8.125 C 6.96875 8.125 6.875 8.03125 6.875 7.917969 C 6.875 7.800781 6.96875 7.707031 7.082031 7.707031 L 7.917969 7.707031 C 8.03125 7.707031 8.125 7.800781 8.125 7.917969 C 8.125 8.03125 8.03125 8.125 7.917969 8.125 Z M 7.917969 8.125 "/>
<path style=" stroke:none;fill-rule:nonzero;fill:rgb(87.45098%,12.156863%,19.607843%);fill-opacity:1;" d="M 8.542969 9.582031 L 8.332031 9.582031 C 8.21875 9.582031 8.125 9.488281 8.125 9.375 C 8.125 9.261719 8.21875 9.167969 8.332031 9.167969 L 8.542969 9.167969 C 8.65625 9.167969 8.75 9.261719 8.75 9.375 C 8.75 9.488281 8.65625 9.582031 8.542969 9.582031 Z M 8.542969 9.582031 "/>
<path style=" stroke:none;fill-rule:nonzero;fill:rgb(40%,12.941176%,7.45098%);fill-opacity:1;" d="M 5.832031 6.667969 C 5.601562 6.667969 5.417969 6.480469 5.417969 6.25 L 5.417969 5.832031 C 5.417969 5.601562 5.601562 5.417969 5.832031 5.417969 C 6.0625 5.417969 6.25 5.601562 6.25 5.832031 L 6.25 6.25 C 6.25 6.480469 6.0625 6.667969 5.832031 6.667969 Z M 9.167969 6.667969 C 8.9375 6.667969 8.75 6.480469 8.75 6.25 L 8.75 5.832031 C 8.75 5.601562 8.9375 5.417969 9.167969 5.417969 C 9.398438 5.417969 9.582031 5.601562 9.582031 5.832031 L 9.582031 6.25 C 9.582031 6.480469 9.398438 6.667969 9.167969 6.667969 Z M 9.167969 6.667969 "/>
</g>
</svg>
