<?xml version="1.0" encoding="UTF-8"?>
<svg xmlns="http://www.w3.org/2000/svg" xmlns:xlink="http://www.w3.org/1999/xlink" width="15pt" height="15pt" viewBox="0 0 15 15" version="1.1">
<g id="surface1">
<path style=" stroke:none;fill-rule:nonzero;fill:rgb(100%,67.45098%,20%);fill-opacity:1;" d="M 9.128906 0.527344 C 8.285156 0.253906 6.304688 0.328125 5.8125 0.972656 C 4.523438 0.996094 3.015625 2.160156 2.816406 3.695312 C 2.621094 5.214844 3.058594 5.917969 3.210938 7.058594 C 3.386719 8.355469 4.117188 8.769531 4.695312 8.941406 C 5.535156 10.046875 6.421875 10 7.917969 10 C 10.832031 10 12.222656 8.046875 12.34375 4.734375 C 12.417969 2.730469 11.242188 1.210938 9.128906 0.527344 Z M 9.128906 0.527344 "/>
<path style=" stroke:none;fill-rule:nonzero;fill:rgb(98.039216%,45.490196%,24.313725%);fill-opacity:1;" d="M 11.25 8.75 L 3.75 8.75 C 2.828125 8.75 2.082031 9.496094 2.082031 10.417969 L 2.082031 15 L 12.917969 15 L 12.917969 10.417969 C 12.917969 9.496094 12.171875 8.75 11.25 8.75 Z M 11.25 8.75 "/>
<path style=" stroke:none;fill-rule:nonzero;fill:rgb(100%,86.27451%,36.470588%);fill-opacity:1;" d="M 10.792969 4.890625 C 10.511719 4.5 10.148438 4.183594 9.359375 4.074219 C 9.65625 4.207031 9.9375 4.679688 9.976562 4.9375 C 10.011719 5.199219 10.050781 5.410156 9.816406 5.148438 C 8.875 4.109375 7.847656 4.519531 6.832031 3.882812 C 6.121094 3.4375 5.90625 2.945312 5.90625 2.945312 C 5.90625 2.945312 5.816406 3.601562 4.742188 4.269531 C 4.429688 4.464844 4.058594 4.894531 3.851562 5.53125 C 3.703125 5.992188 3.746094 6.398438 3.746094 7.097656 C 3.746094 9.132812 5.425781 10.847656 7.496094 10.847656 C 9.570312 10.847656 11.246094 9.117188 11.246094 7.097656 C 11.246094 5.828125 11.117188 5.335938 10.792969 4.890625 Z M 10.792969 4.890625 "/>
<path style=" stroke:none;fill-rule:nonzero;fill:rgb(86.666667%,33.333333%,12.156863%);fill-opacity:1;" d="M 4.167969 11.25 L 4.582031 11.25 L 4.582031 15 L 4.167969 15 Z M 4.167969 11.25 "/>
<path style=" stroke:none;fill-rule:nonzero;fill:rgb(98.823529%,67.058824%,25.098039%);fill-opacity:1;" d="M 1.960938 11.039062 L 1.839844 11.015625 L 1.628906 11.015625 C 1.628906 10.992188 1.636719 10.96875 1.644531 10.945312 C 1.496094 10.855469 1.414062 10.683594 1.453125 10.507812 C 1.5 10.28125 1.71875 10.136719 1.945312 10.183594 L 2.816406 10.363281 L 3.515625 10.363281 C 3.875 10.363281 4.167969 10.65625 4.167969 11.015625 L 4.167969 11.667969 L 2.605469 11.667969 C 2.605469 11.667969 1.988281 11.386719 1.960938 11.039062 Z M 1.960938 11.039062 "/>
<path style=" stroke:none;fill-rule:nonzero;fill:rgb(100%,86.27451%,36.470588%);fill-opacity:1;" d="M 0 10.691406 C 0 10.507812 0.144531 10.363281 0.324219 10.363281 L 2.28125 10.691406 L 3.839844 10.691406 C 4.019531 10.691406 4.167969 10.835938 4.167969 11.015625 L 4.167969 11.667969 L 2.082031 11.667969 L 0.324219 11.015625 C 0.324219 11.015625 0 10.871094 0 10.691406 Z M 0 10.691406 "/>
<path style=" stroke:none;fill-rule:nonzero;fill:rgb(98.039216%,45.490196%,24.313725%);fill-opacity:1;" d="M 1.667969 15 L 4.167969 15 L 4.167969 11.667969 L 2.082031 11.667969 Z M 1.667969 15 "/>
<path style=" stroke:none;fill-rule:nonzero;fill:rgb(86.666667%,33.333333%,12.156863%);fill-opacity:1;" d="M 10.417969 11.25 L 10.832031 11.25 L 10.832031 15 L 10.417969 15 Z M 10.417969 11.25 "/>
<path style=" stroke:none;fill-rule:nonzero;fill:rgb(98.823529%,67.058824%,25.098039%);fill-opacity:1;" d="M 13.039062 11.039062 L 13.160156 11.015625 L 13.371094 11.015625 C 13.371094 10.992188 13.363281 10.96875 13.355469 10.945312 C 13.503906 10.855469 13.585938 10.683594 13.546875 10.507812 C 13.5 10.28125 13.28125 10.136719 13.054688 10.183594 L 12.183594 10.363281 L 11.484375 10.363281 C 11.125 10.363281 10.832031 10.65625 10.832031 11.015625 L 10.832031 11.667969 L 12.394531 11.667969 C 12.394531 11.667969 13.011719 11.386719 13.039062 11.039062 Z M 13.039062 11.039062 "/>
<path style=" stroke:none;fill-rule:nonzero;fill:rgb(100%,86.27451%,36.470588%);fill-opacity:1;" d="M 15 10.691406 C 15 10.507812 14.855469 10.363281 14.675781 10.363281 L 12.71875 10.691406 L 11.160156 10.691406 C 10.980469 10.691406 10.832031 10.835938 10.832031 11.015625 L 10.832031 11.667969 L 12.917969 11.667969 L 14.675781 11.015625 C 14.675781 11.015625 15 10.871094 15 10.691406 Z M 15 10.691406 "/>
<path style=" stroke:none;fill-rule:nonzero;fill:rgb(98.039216%,45.490196%,24.313725%);fill-opacity:1;" d="M 13.332031 15 L 10.832031 15 L 10.832031 11.667969 L 12.917969 11.667969 Z M 13.332031 15 "/>
<path style=" stroke:none;fill-rule:nonzero;fill:rgb(75.686275%,41.176471%,30.980392%);fill-opacity:1;" d="M 7.917969 8.125 L 7.082031 8.125 C 6.96875 8.125 6.875 8.03125 6.875 7.917969 C 6.875 7.800781 6.96875 7.707031 7.082031 7.707031 L 7.917969 7.707031 C 8.03125 7.707031 8.125 7.800781 8.125 7.917969 C 8.125 8.03125 8.03125 8.125 7.917969 8.125 Z M 8.542969 9.582031 L 8.332031 9.582031 C 8.21875 9.582031 8.125 9.488281 8.125 9.375 C 8.125 9.261719 8.21875 9.167969 8.332031 9.167969 L 8.542969 9.167969 C 8.65625 9.167969 8.75 9.261719 8.75 9.375 C 8.75 9.488281 8.65625 9.582031 8.542969 9.582031 Z M 8.542969 9.582031 "/>
<path style=" stroke:none;fill-rule:nonzero;fill:rgb(40%,12.941176%,7.45098%);fill-opacity:1;" d="M 5.832031 6.667969 C 5.601562 6.667969 5.417969 6.480469 5.417969 6.25 L 5.417969 5.832031 C 5.417969 5.601562 5.601562 5.417969 5.832031 5.417969 C 6.0625 5.417969 6.25 5.601562 6.25 5.832031 L 6.25 6.25 C 6.25 6.480469 6.0625 6.667969 5.832031 6.667969 Z M 9.167969 6.667969 C 8.9375 6.667969 8.75 6.480469 8.75 6.25 L 8.75 5.832031 C 8.75 5.601562 8.9375 5.417969 9.167969 5.417969 C 9.398438 5.417969 9.582031 5.601562 9.582031 5.832031 L 9.582031 6.25 C 9.582031 6.480469 9.398438 6.667969 9.167969 6.667969 Z M 9.167969 6.667969 "/>
</g>
</svg>
