<?xml version="1.0" encoding="UTF-8"?>
<svg xmlns="http://www.w3.org/2000/svg" xmlns:xlink="http://www.w3.org/1999/xlink" width="15pt" height="15pt" viewBox="0 0 15 15" version="1.1">
<g id="surface1">
<path style=" stroke:none;fill-rule:nonzero;fill:rgb(10.980392%,38.823529%,60%);fill-opacity:1;" d="M 11.9375 13.050781 C 12.058594 13.445312 12.070312 13.671875 12.148438 14.082031 C 12.207031 14.382812 12.421875 14.71875 12.671875 14.65625 C 12.867188 14.609375 13.015625 14.414062 12.953125 13.984375 C 12.921875 13.753906 12.855469 13.601562 12.765625 13.371094 C 12.714844 13.234375 12.640625 13.046875 12.597656 12.867188 C 12.550781 12.671875 12.398438 12.46875 12.144531 12.527344 C 11.957031 12.574219 11.855469 12.789062 11.9375 13.050781 Z M 11.9375 13.050781 "/>
<path style=" stroke:none;fill-rule:nonzero;fill:rgb(23.137255%,58.039216%,85.098039%);fill-opacity:1;" d="M 12.480469 12.949219 C 12.46875 12.941406 12.375 12.890625 12.238281 12.933594 C 12.101562 12.980469 12.058594 13.058594 12.050781 13.070312 C 12.046875 13.082031 12.191406 13.40625 12.214844 13.496094 C 12.238281 13.59375 12.320312 13.863281 12.324219 13.875 C 12.332031 13.898438 12.355469 13.910156 12.382812 13.902344 L 12.640625 13.828125 C 12.664062 13.820312 12.679688 13.796875 12.671875 13.773438 L 12.566406 13.410156 C 12.535156 13.308594 12.492188 12.953125 12.480469 12.949219 Z M 12.480469 12.949219 "/>
<path style=" stroke:none;fill-rule:nonzero;fill:rgb(80%,83.921569%,86.666667%);fill-opacity:1;" d="M 12.277344 13.859375 C 12.285156 13.859375 12.292969 13.859375 12.300781 13.855469 L 12.691406 13.742188 C 12.738281 13.726562 12.761719 13.683594 12.75 13.636719 C 12.738281 13.59375 12.691406 13.566406 12.644531 13.582031 L 12.253906 13.695312 C 12.210938 13.710938 12.183594 13.753906 12.195312 13.800781 C 12.207031 13.835938 12.238281 13.859375 12.277344 13.859375 Z M 12.183594 13.546875 C 12.191406 13.546875 12.199219 13.546875 12.207031 13.546875 L 12.601562 13.429688 C 12.644531 13.417969 12.671875 13.371094 12.660156 13.328125 C 12.644531 13.28125 12.601562 13.257812 12.554688 13.269531 L 12.160156 13.386719 C 12.117188 13.398438 12.09375 13.445312 12.105469 13.488281 C 12.117188 13.527344 12.148438 13.546875 12.183594 13.546875 Z M 12.09375 13.238281 C 12.101562 13.238281 12.109375 13.238281 12.117188 13.234375 L 12.511719 13.117188 C 12.554688 13.105469 12.578125 13.058594 12.566406 13.015625 C 12.554688 12.972656 12.511719 12.945312 12.464844 12.957031 L 12.070312 13.074219 C 12.027344 13.085938 12 13.132812 12.015625 13.175781 C 12.023438 13.214844 12.058594 13.238281 12.09375 13.238281 Z M 12.09375 13.238281 "/>
<path style=" stroke:none;fill-rule:nonzero;fill:rgb(10.980392%,38.823529%,60%);fill-opacity:1;" d="M 8.753906 12.652344 C 8.832031 13.058594 8.929688 13.261719 9.054688 13.660156 C 9.148438 13.953125 9.117188 14.347656 8.871094 14.414062 C 8.675781 14.464844 8.453125 14.359375 8.304688 13.957031 C 8.222656 13.738281 8.210938 13.574219 8.175781 13.324219 C 8.15625 13.183594 8.132812 12.984375 8.085938 12.804688 C 8.035156 12.609375 8.070312 12.355469 8.324219 12.289062 C 8.507812 12.242188 8.703125 12.382812 8.753906 12.652344 Z M 8.753906 12.652344 "/>
<path style=" stroke:none;fill-rule:nonzero;fill:rgb(23.137255%,58.039216%,85.098039%);fill-opacity:1;" d="M 8.636719 12.726562 C 8.625 12.71875 8.53125 12.667969 8.394531 12.707031 C 8.257812 12.75 8.210938 12.828125 8.203125 12.839844 C 8.199219 12.851562 8.335938 13.175781 8.359375 13.269531 C 8.378906 13.367188 8.453125 13.636719 8.457031 13.648438 C 8.464844 13.671875 8.488281 13.6875 8.511719 13.679688 L 8.773438 13.613281 C 8.796875 13.605469 8.8125 13.582031 8.804688 13.558594 L 8.710938 13.191406 C 8.683594 13.085938 8.648438 12.734375 8.636719 12.726562 Z M 8.636719 12.726562 "/>
<path style=" stroke:none;fill-rule:nonzero;fill:rgb(80%,83.921569%,86.666667%);fill-opacity:1;" d="M 8.410156 13.628906 C 8.414062 13.628906 8.421875 13.625 8.429688 13.625 L 8.824219 13.519531 C 8.871094 13.507812 8.898438 13.464844 8.886719 13.417969 C 8.875 13.375 8.828125 13.347656 8.785156 13.359375 L 8.386719 13.464844 C 8.34375 13.476562 8.316406 13.519531 8.328125 13.566406 C 8.335938 13.601562 8.371094 13.628906 8.410156 13.628906 Z M 8.324219 13.3125 C 8.332031 13.3125 8.339844 13.3125 8.347656 13.3125 L 8.742188 13.207031 C 8.789062 13.195312 8.816406 13.148438 8.804688 13.105469 C 8.792969 13.058594 8.746094 13.03125 8.703125 13.046875 L 8.304688 13.148438 C 8.261719 13.160156 8.234375 13.207031 8.246094 13.25 C 8.253906 13.289062 8.289062 13.3125 8.324219 13.3125 Z M 8.242188 13 C 8.25 13 8.257812 13 8.265625 12.996094 L 8.660156 12.890625 C 8.703125 12.878906 8.730469 12.835938 8.71875 12.789062 C 8.707031 12.746094 8.664062 12.71875 8.617188 12.730469 L 8.222656 12.835938 C 8.175781 12.847656 8.152344 12.894531 8.164062 12.9375 C 8.171875 12.976562 8.207031 13 8.242188 13 Z M 8.242188 13 "/>
<path style=" stroke:none;fill-rule:nonzero;fill:rgb(96.862745%,87.058824%,80.784314%);fill-opacity:1;" d="M 8.371094 10.027344 L 9.480469 9.332031 L 9.960938 10.480469 C 10.0625 10.558594 10.078125 10.597656 10.632812 10.921875 C 11.136719 11.210938 11.902344 12.128906 12.214844 12.515625 C 12.300781 12.597656 12.421875 12.742188 12.484375 12.957031 C 12.246094 13.015625 12.054688 13.070312 12.054688 13.070312 C 12.054688 13.070312 11.984375 12.984375 11.863281 12.90625 C 11.261719 12.5625 9.230469 11.390625 9.230469 11.390625 C 9.066406 11.273438 8.960938 11.191406 8.902344 11.089844 L 8.898438 11.09375 C 8.503906 10.523438 8.464844 10.234375 8.371094 10.027344 Z M 5.652344 9.113281 L 6.824219 9.734375 C 6.753906 9.84375 6.609375 10.089844 6.492188 10.394531 C 6.457031 10.484375 6.4375 10.597656 6.585938 10.707031 C 6.667969 10.765625 6.765625 10.84375 6.890625 10.941406 C 6.972656 11.011719 7.070312 11.089844 7.1875 11.175781 C 7.601562 11.5 8.261719 12.207031 8.308594 12.25 C 8.332031 12.273438 8.371094 12.300781 8.410156 12.335938 C 8.441406 12.363281 8.476562 12.402344 8.511719 12.449219 C 8.511719 12.453125 8.515625 12.453125 8.515625 12.453125 L 8.515625 12.457031 C 8.566406 12.527344 8.613281 12.617188 8.636719 12.734375 C 8.601562 12.742188 8.234375 12.832031 8.234375 12.832031 C 8.234375 12.832031 8.167969 12.738281 8.042969 12.667969 C 7.664062 12.453125 5.675781 11.328125 5.394531 11.125 L 5.367188 11.105469 C 5.078125 10.898438 4.960938 10.8125 4.984375 10.519531 C 5.03125 10 5.511719 9.304688 5.652344 9.113281 Z M 9.144531 4.320312 C 9.132812 4.039062 9.234375 3.644531 9.882812 3.644531 C 10.59375 3.644531 11.238281 3.71875 11.421875 3.769531 C 11.691406 3.847656 11.714844 3.394531 11.835938 2.957031 C 11.960938 2.515625 12.078125 1.9375 12.066406 1.839844 C 12.042969 1.683594 12.257812 0.492188 12.277344 0.472656 C 12.304688 0.445312 12.390625 0.503906 12.449219 0.503906 C 12.492188 0.507812 12.527344 0.546875 12.574219 0.578125 C 12.859375 0.765625 12.953125 1.152344 12.980469 1.410156 C 13 1.574219 12.734375 1.878906 12.707031 2.046875 C 12.6875 2.171875 12.640625 3.8125 12.609375 3.996094 C 12.570312 4.222656 12.523438 4.527344 12.140625 4.621094 C 11.761719 4.714844 10.351562 4.753906 9.972656 4.792969 C 9.539062 4.835938 9.164062 4.691406 9.144531 4.320312 Z M 0.90625 5.140625 C 1.027344 5.132812 1.046875 5.113281 1.160156 5.117188 C 1.332031 5.121094 1.324219 5.144531 1.402344 5.140625 C 1.570312 5.140625 1.804688 5.125 1.980469 5.101562 C 2.109375 5.085938 2.800781 4.96875 2.988281 4.929688 C 3.246094 4.878906 3.558594 4.785156 4.148438 4.835938 C 4.65625 4.53125 5.765625 4.074219 6.128906 3.941406 C 6.550781 3.785156 7.042969 5.066406 6.378906 5.175781 C 5.847656 5.265625 5.03125 5.601562 4.175781 5.769531 L 4.175781 5.757812 C 4.164062 5.765625 4.160156 5.773438 4.148438 5.78125 C 4.148438 5.78125 3.527344 5.695312 3.191406 5.671875 C 2.722656 5.640625 2.074219 5.503906 1.902344 5.558594 C 1.6875 5.632812 1.457031 5.703125 1.1875 5.546875 C 0.726562 5.28125 0.265625 5.4375 0.3125 5.214844 C 0.324219 5.164062 0.679688 5.15625 0.90625 5.140625 Z M 7.570312 2.011719 C 7.597656 1.777344 7.816406 1.59375 8.050781 1.621094 C 8.285156 1.648438 8.457031 1.855469 8.429688 2.089844 L 8.261719 3.59375 L 8.398438 3.613281 C 8.398438 3.613281 8.558594 4.054688 7.804688 4.054688 C 7.046875 4.054688 7.128906 3.710938 7.128906 3.710938 L 7.375 3.664062 Z M 7.570312 2.011719 "/>
<path style=" stroke:none;fill-rule:nonzero;fill:rgb(96.862745%,87.058824%,80.784314%);fill-opacity:1;" d="M 6.726562 1.9375 C 6.726562 1.226562 7.230469 0.652344 7.847656 0.652344 C 8.46875 0.652344 8.972656 1.226562 8.972656 1.9375 C 8.972656 2.644531 8.550781 3.222656 7.808594 3.222656 C 7.527344 3.222656 7.066406 3.164062 6.867188 2.964844 C 6.632812 2.730469 6.726562 2.320312 6.726562 1.9375 Z M 6.726562 1.9375 "/>
<path style=" stroke:none;fill-rule:nonzero;fill:rgb(16.078431%,18.431373%,20%);fill-opacity:1;" d="M 7.136719 0.304688 C 7.433594 0.0976562 8.191406 0.0234375 8.703125 0.292969 C 9.277344 0.597656 9.421875 1.160156 9.328125 1.734375 C 9.238281 2.265625 8.984375 2.488281 8.984375 2.488281 C 8.886719 2.59375 8.625 2.316406 8.773438 2.078125 C 8.949219 1.804688 8.898438 1.480469 8.703125 1.460938 C 8.5625 1.445312 8.410156 1.527344 8.453125 1.652344 C 8.5 1.804688 8.4375 1.867188 8.4375 1.867188 C 8.4375 1.867188 8.324219 1.949219 8.207031 1.597656 C 8.144531 1.414062 7.710938 1.441406 7.074219 1.152344 C 6.996094 1.121094 6.804688 1.335938 6.75 1.8125 C 6.738281 1.917969 6.546875 1.597656 6.519531 1.367188 C 6.476562 0.980469 6.753906 0.570312 7.136719 0.304688 Z M 7.136719 0.304688 "/>
<path style=" stroke:none;fill-rule:nonzero;fill:rgb(10.980392%,38.823529%,60%);fill-opacity:1;" d="M 8.839844 7.457031 C 8.839844 7.457031 9.183594 8.324219 9.296875 8.683594 C 9.410156 9.042969 9.648438 9.453125 9.648438 9.453125 C 9.648438 9.453125 8.929688 10.113281 8.371094 10.097656 L 7.605469 8.722656 L 6.761719 9.929688 C 6.761719 9.929688 5.945312 9.375 5.441406 9.289062 C 5.441406 9.289062 6.15625 8.027344 6.300781 7.746094 C 6.449219 7.46875 6.613281 7.292969 6.613281 7.292969 Z M 8.839844 7.457031 "/>
<path style=" stroke:none;fill-rule:nonzero;fill:rgb(10.980392%,38.823529%,60%);fill-opacity:1;" d="M 8.371094 10.171875 C 8.34375 10.171875 8.320312 10.15625 8.308594 10.132812 L 7.597656 8.859375 L 6.824219 9.972656 C 6.800781 10.003906 6.753906 10.011719 6.722656 9.992188 C 6.714844 9.984375 5.914062 9.441406 5.429688 9.359375 C 5.40625 9.355469 5.386719 9.339844 5.378906 9.320312 C 5.367188 9.296875 5.367188 9.273438 5.378906 9.253906 C 5.386719 9.238281 6.09375 7.988281 6.238281 7.714844 C 6.386719 7.429688 6.554688 7.25 6.5625 7.242188 C 6.578125 7.226562 6.597656 7.214844 6.621094 7.21875 L 8.84375 7.382812 C 8.871094 7.386719 8.894531 7.402344 8.90625 7.429688 C 8.921875 7.464844 9.253906 8.304688 9.367188 8.660156 C 9.476562 9.011719 9.710938 9.414062 9.714844 9.417969 C 9.730469 9.445312 9.722656 9.484375 9.699219 9.507812 C 9.667969 9.535156 8.96875 10.171875 8.394531 10.171875 Z M 9.226562 8.707031 C 9.128906 8.398438 8.855469 7.703125 8.785156 7.527344 L 6.644531 7.367188 C 6.597656 7.425781 6.476562 7.574219 6.367188 7.78125 C 6.242188 8.015625 5.71875 8.949219 5.554688 9.238281 C 5.984375 9.351562 6.558594 9.710938 6.742188 9.832031 L 7.542969 8.683594 C 7.558594 8.660156 7.582031 8.652344 7.609375 8.652344 C 7.632812 8.652344 7.65625 8.667969 7.667969 8.6875 L 8.414062 10.027344 C 8.855469 10.011719 9.402344 9.574219 9.558594 9.4375 C 9.488281 9.316406 9.320312 8.996094 9.226562 8.707031 Z M 9.226562 8.707031 "/>
<path style=" stroke:none;fill-rule:nonzero;fill:rgb(25.882353%,53.72549%,75.686275%);fill-opacity:1;" d="M 9.226562 3.566406 C 8.886719 3.566406 8.621094 3.597656 8.394531 3.613281 C 8.394531 3.613281 8.363281 3.964844 7.816406 3.984375 C 7.273438 4 7.128906 3.710938 7.128906 3.710938 C 7.128906 3.710938 6.539062 3.6875 6.234375 3.878906 L 5.566406 4.164062 C 5.566406 4.164062 5.949219 4.722656 5.910156 5.296875 L 6.214844 5.210938 C 6.214844 5.210938 6.203125 5.21875 6.1875 5.429688 C 6.152344 5.929688 6.273438 7.65625 6.210938 7.800781 C 6.210938 7.800781 6.84375 8.023438 7.65625 8.113281 C 8.152344 8.167969 9.199219 8.15625 9.199219 8.15625 C 9.070312 7.617188 8.980469 6.679688 8.957031 6.21875 C 8.917969 5.3125 9.164062 4.835938 9.253906 4.84375 C 9.625 4.878906 9.972656 4.792969 9.972656 4.792969 C 9.972656 4.792969 9.816406 4.503906 9.851562 4.183594 C 9.886719 3.863281 9.980469 3.644531 9.980469 3.644531 C 9.980469 3.644531 9.5625 3.566406 9.226562 3.566406 Z M 9.226562 3.566406 "/>
<path style=" stroke:none;fill-rule:nonzero;fill:rgb(13.333333%,40%,60%);fill-opacity:1;" d="M 12.730469 1.214844 C 12.730469 1.6875 12.347656 2.070312 11.875 2.070312 C 11.402344 2.070312 11.019531 1.6875 11.019531 1.214844 C 11.019531 0.742188 11.402344 0.359375 11.875 0.359375 C 12.347656 0.359375 12.730469 0.742188 12.730469 1.214844 Z M 12.730469 1.214844 "/>
<path style=" stroke:none;fill-rule:nonzero;fill:rgb(96.862745%,87.058824%,80.784314%);fill-opacity:1;" d="M 12.199219 0.757812 L 12.234375 0.753906 C 12.179688 0.761719 12.125 0.722656 12.117188 0.667969 C 12.105469 0.613281 12.144531 0.558594 12.199219 0.546875 L 12.414062 0.507812 L 12.757812 0.882812 L 12.863281 1.269531 L 12.523438 1.332031 C 12.464844 1.339844 12.410156 1.304688 12.402344 1.246094 C 12.390625 1.191406 12.429688 1.144531 12.480469 1.128906 L 12.390625 1.144531 C 12.332031 1.15625 12.277344 1.117188 12.269531 1.0625 C 12.257812 1.007812 12.296875 0.957031 12.347656 0.941406 L 12.238281 0.960938 C 12.179688 0.972656 12.125 0.933594 12.117188 0.878906 C 12.105469 0.820312 12.144531 0.769531 12.199219 0.757812 Z M 12.199219 0.757812 "/>
</g>
</svg>
