<?xml version="1.0" encoding="UTF-8"?>
<svg xmlns="http://www.w3.org/2000/svg" xmlns:xlink="http://www.w3.org/1999/xlink" width="15pt" height="15pt" viewBox="0 0 15 15" version="1.1">
<g id="surface1">
<path style=" stroke:none;fill-rule:nonzero;fill:rgb(95.294118%,82.352941%,63.529412%);fill-opacity:1;" d="M 8.554688 12.519531 C 8.160156 11.953125 8.246094 11.214844 8.738281 10.867188 C 9.234375 10.523438 9.957031 10.703125 10.351562 11.269531 C 10.746094 11.835938 10.664062 12.578125 10.167969 12.921875 C 9.671875 13.265625 8.949219 13.085938 8.554688 12.519531 Z M 8.554688 12.519531 "/>
<path style=" stroke:none;fill-rule:nonzero;fill:rgb(95.294118%,82.352941%,63.529412%);fill-opacity:1;" d="M 8.855469 10.226562 L 9.632812 11.679688 C 9.746094 11.882812 9.667969 12.152344 9.46875 12.257812 C 9.265625 12.367188 9.011719 12.296875 8.902344 12.09375 L 8.175781 10.753906 L 7.222656 11.414062 L 7.042969 10.527344 C 6.984375 10.433594 9.28125 9.394531 9.4375 9.222656 C 9.4375 9.222656 9.640625 9.777344 8.855469 10.226562 Z M 8.855469 10.226562 "/>
<path style=" stroke:none;fill-rule:nonzero;fill:rgb(95.294118%,82.352941%,63.529412%);fill-opacity:1;" d="M 11.191406 8.929688 L 9.382812 8.941406 C 9.167969 8.945312 8.992188 9.121094 8.992188 9.335938 C 8.996094 9.550781 9.171875 9.726562 9.386719 9.722656 L 11.195312 9.710938 C 11.410156 9.710938 11.585938 9.53125 11.585938 9.316406 C 11.582031 9.101562 11.40625 8.929688 11.191406 8.929688 Z M 11.191406 8.929688 "/>
<path style=" stroke:none;fill-rule:nonzero;fill:rgb(95.294118%,82.352941%,63.529412%);fill-opacity:1;" d="M 12.855469 9.574219 C 12.546875 9.511719 11.53125 8.964844 11.285156 8.953125 C 11.035156 8.941406 10.949219 9.03125 10.882812 9.238281 C 10.8125 9.4375 10.972656 9.546875 11.308594 9.785156 C 11.640625 10.019531 12.519531 9.992188 12.71875 10.042969 C 12.777344 10.058594 12.886719 10.203125 12.992188 10.253906 C 13.203125 10.351562 13.339844 10.222656 13.460938 10.230469 C 13.644531 10.238281 13.777344 10.316406 13.808594 10.230469 L 13.871094 10.117188 C 13.921875 9.945312 13.675781 9.804688 13.425781 9.648438 C 13.296875 9.566406 12.960938 9.59375 12.855469 9.574219 Z M 12.855469 9.574219 "/>
<path style=" stroke:none;fill-rule:nonzero;fill:rgb(100%,89.803922%,11.764706%);fill-opacity:1;" d="M 10.351562 11.269531 C 10.351562 11.269531 10.5625 11.511719 10.785156 11.691406 C 11.039062 11.890625 11.277344 12.480469 10.929688 12.804688 C 10.867188 13.210938 10.246094 13.613281 9.6875 13.683594 C 9.054688 13.757812 8.628906 13.390625 8.382812 12.875 C 8.160156 12.402344 8.308594 11.757812 8.308594 11.757812 C 8.480469 12.308594 9.175781 12.695312 9.453125 12.527344 C 9.300781 12.507812 9.175781 12.402344 9.128906 12.308594 C 9.566406 12.480469 9.953125 12.027344 10.476562 12.355469 C 10.476562 12.355469 10.464844 12.261719 10.535156 11.992188 C 10.601562 11.746094 10.476562 11.492188 10.351562 11.269531 Z M 10.351562 11.269531 "/>
<path style=" stroke:none;fill-rule:nonzero;fill:rgb(95.294118%,82.352941%,63.529412%);fill-opacity:1;" d="M 8.78125 3.6875 C 8.710938 3.894531 8.480469 4.089844 8.402344 4.164062 C 8.0625 4.496094 7.398438 5.152344 7.074219 5.386719 L 8.164062 6.28125 C 8.402344 6.054688 8.792969 5.566406 9.128906 5.148438 C 9.328125 4.898438 9.535156 4.769531 9.65625 4.390625 C 9.65625 4.390625 9.9375 2.957031 10.355469 1.878906 C 10.488281 1.535156 9.808594 1.296875 9.65625 1.582031 C 9.507812 1.867188 9.316406 2.269531 9.214844 2.539062 C 9.148438 2.722656 8.8125 3.589844 8.78125 3.6875 Z M 8.78125 3.6875 "/>
<path style=" stroke:none;fill-rule:nonzero;fill:rgb(86.666667%,33.333333%,12.156863%);fill-opacity:1;" d="M 9.589844 1.019531 C 9.566406 1.085938 9.503906 1.335938 9.503906 1.429688 L 9.402344 1.992188 C 9.398438 2.019531 9.417969 2.046875 9.445312 2.050781 C 9.527344 2.0625 9.792969 2.015625 9.957031 2.164062 C 10.066406 2.261719 10.078125 2.4375 10.140625 2.464844 C 10.160156 2.472656 10.183594 2.464844 10.191406 2.445312 C 10.191406 2.445312 10.210938 2.339844 10.234375 2.253906 C 10.289062 2.183594 10.355469 2.046875 10.453125 1.988281 C 10.511719 1.980469 10.574219 1.925781 10.726562 1.917969 C 10.816406 1.910156 11.238281 1.882812 11.238281 1.882812 C 11.34375 1.875 11.375 1.84375 11.433594 1.839844 C 11.550781 1.832031 11.859375 1.839844 11.957031 1.832031 C 12.058594 1.824219 12.113281 1.761719 12.136719 1.710938 C 12.15625 1.65625 12.148438 1.625 12.148438 1.625 C 12.148438 1.625 12.050781 1.457031 11.484375 1.226562 C 11.152344 1.089844 9.738281 0.777344 9.738281 0.777344 L 9.6875 0.820312 C 9.632812 0.859375 9.613281 0.949219 9.589844 1.019531 Z M 9.589844 1.019531 "/>
<path style=" stroke:none;fill-rule:nonzero;fill:rgb(80%,83.921569%,86.666667%);fill-opacity:1;" d="M 10.421875 2.070312 C 10.421875 2.082031 10.414062 2.09375 10.40625 2.105469 C 10.378906 2.132812 10.332031 2.136719 10.304688 2.109375 L 10.207031 2.023438 C 10.175781 1.996094 10.175781 1.949219 10.203125 1.917969 C 10.230469 1.890625 10.277344 1.886719 10.304688 1.914062 L 10.402344 2 C 10.421875 2.019531 10.429688 2.046875 10.421875 2.070312 Z M 10.421875 2.070312 "/>
<path style=" stroke:none;fill-rule:nonzero;fill:rgb(98.039216%,45.490196%,24.313725%);fill-opacity:1;" d="M 10.457031 1.078125 C 10.402344 1.15625 10.226562 1.324219 10.070312 1.347656 C 9.933594 1.367188 9.582031 1.324219 9.515625 1.3125 C 9.53125 1.207031 9.578125 1.042969 9.59375 0.992188 C 9.617188 0.925781 9.648438 0.835938 9.699219 0.796875 C 9.703125 0.792969 10.269531 1.015625 10.457031 1.078125 Z M 10.457031 1.078125 "/>
<path style=" stroke:none;fill-rule:nonzero;fill:rgb(80%,83.921569%,86.666667%);fill-opacity:1;" d="M 9.691406 0.796875 C 9.691406 0.796875 9.75 0.8125 9.785156 0.847656 C 9.816406 0.886719 9.910156 0.925781 9.984375 0.953125 C 10.054688 0.976562 10.324219 1.070312 10.523438 1.109375 C 10.71875 1.148438 11.085938 1.167969 11.203125 1.191406 C 11.320312 1.21875 11.503906 1.261719 11.632812 1.320312 C 11.761719 1.375 11.875 1.429688 11.945312 1.46875 C 12.035156 1.515625 12.105469 1.570312 12.148438 1.625 C 12.148438 1.625 12.175781 1.46875 11.976562 1.296875 C 11.816406 1.164062 11.65625 1.070312 11.492188 1.011719 C 11.480469 1.007812 11.039062 0.863281 10.820312 0.792969 C 10.660156 0.742188 10.402344 0.65625 10.402344 0.65625 C 10.097656 0.554688 9.941406 0.511719 9.878906 0.507812 C 9.871094 0.507812 9.824219 0.5 9.773438 0.523438 C 9.738281 0.539062 9.652344 0.785156 9.691406 0.796875 Z M 10.660156 1.957031 C 10.652344 1.984375 10.632812 2.007812 10.601562 2.011719 C 10.5625 2.023438 10.523438 1.996094 10.515625 1.957031 L 10.488281 1.832031 C 10.480469 1.789062 10.503906 1.753906 10.542969 1.742188 C 10.582031 1.734375 10.621094 1.757812 10.628906 1.800781 L 10.660156 1.925781 C 10.660156 1.9375 10.660156 1.949219 10.660156 1.957031 Z M 10.917969 1.917969 C 10.910156 1.949219 10.882812 1.972656 10.851562 1.972656 C 10.808594 1.976562 10.773438 1.945312 10.773438 1.90625 L 10.761719 1.769531 C 10.757812 1.726562 10.789062 1.695312 10.832031 1.691406 C 10.871094 1.6875 10.90625 1.71875 10.910156 1.757812 L 10.917969 1.894531 C 10.917969 1.902344 10.917969 1.910156 10.917969 1.917969 Z M 11.179688 1.890625 C 11.171875 1.925781 11.140625 1.949219 11.101562 1.949219 C 11.0625 1.945312 11.03125 1.910156 11.035156 1.871094 L 11.039062 1.746094 C 11.042969 1.703125 11.078125 1.675781 11.117188 1.675781 C 11.15625 1.679688 11.1875 1.714844 11.1875 1.753906 L 11.179688 1.878906 C 11.179688 1.882812 11.179688 1.886719 11.179688 1.890625 Z M 11.179688 1.890625 "/>
<path style=" stroke:none;fill-rule:nonzero;fill:rgb(95.294118%,82.352941%,63.529412%);fill-opacity:1;" d="M 4.148438 4.128906 C 4.371094 4.390625 5.03125 4.859375 5.105469 4.933594 C 5.464844 5.304688 5.863281 5.527344 6.132812 5.882812 L 5.148438 6.894531 C 4.886719 6.695312 4.621094 6.375 4.242188 5.996094 C 4.015625 5.769531 3.574219 4.925781 3.308594 4.648438 C 3.308594 4.648438 2.683594 3.871094 2.144531 2.851562 C 1.972656 2.523438 2.558594 2.261719 2.800781 2.472656 C 3.0625 2.703125 3.382812 3.074219 3.625 3.351562 C 3.753906 3.496094 4.085938 4.054688 4.148438 4.128906 Z M 4.148438 4.128906 "/>
<path style=" stroke:none;fill-rule:nonzero;fill:rgb(80%,83.921569%,86.666667%);fill-opacity:1;" d="M 1.300781 0.726562 C 1.601562 0.332031 2.273438 0.511719 2.453125 1.015625 C 2.574219 1.355469 2.582031 1.890625 2.75 2.058594 C 2.917969 2.226562 2.980469 2.488281 2.984375 2.574219 C 2.988281 2.664062 2.890625 2.722656 2.800781 2.640625 C 2.800781 2.640625 3.042969 2.902344 2.765625 2.933594 C 2.488281 2.964844 2.675781 3.144531 2.496094 3.101562 C 2.3125 3.054688 2.339844 2.921875 2.339844 2.921875 C 2.339844 2.921875 2.34375 3.246094 2.207031 3.105469 C 2.074219 2.964844 1.417969 2.003906 1.273438 1.558594 C 1.175781 1.261719 1.082031 1.011719 1.300781 0.726562 Z M 1.300781 0.726562 "/>
<path style=" stroke:none;fill-rule:nonzero;fill:rgb(86.666667%,33.333333%,12.156863%);fill-opacity:1;" d="M 1.402344 0.820312 C 1.6875 0.414062 2.324219 0.730469 2.421875 1.078125 C 2.519531 1.425781 2.542969 1.875 2.714844 2.042969 C 2.878906 2.210938 3.105469 2.535156 3.109375 2.625 C 3.113281 2.710938 2.980469 2.769531 2.890625 2.6875 C 2.890625 2.6875 3.183594 2.96875 2.90625 3 C 2.628906 3.03125 2.699219 3.273438 2.519531 3.230469 C 2.335938 3.183594 2.304688 2.90625 2.304688 2.90625 C 2.304688 2.90625 2.308594 3.230469 2.171875 3.09375 C 2.039062 2.953125 1.488281 2.070312 1.351562 1.617188 C 1.214844 1.167969 1.269531 1.011719 1.402344 0.820312 Z M 1.402344 0.820312 "/>
<path style=" stroke:none;fill-rule:nonzero;fill:rgb(80%,83.921569%,86.666667%);fill-opacity:1;" d="M 2.191406 2.636719 C 2.171875 2.65625 2.167969 2.6875 2.179688 2.714844 C 2.195312 2.75 2.238281 2.769531 2.273438 2.753906 L 2.757812 2.503906 C 2.796875 2.488281 2.8125 2.449219 2.796875 2.410156 C 2.78125 2.371094 2.738281 2.355469 2.703125 2.371094 L 2.21875 2.617188 C 2.207031 2.621094 2.199219 2.628906 2.191406 2.636719 Z M 2.027344 2.3125 C 2.007812 2.332031 2.003906 2.363281 2.015625 2.390625 C 2.027344 2.425781 2.070312 2.445312 2.109375 2.429688 L 2.5625 2.230469 C 2.601562 2.214844 2.621094 2.171875 2.605469 2.132812 C 2.589844 2.09375 2.546875 2.078125 2.507812 2.09375 L 2.054688 2.292969 C 2.042969 2.296875 2.035156 2.304688 2.027344 2.3125 Z M 1.894531 2.003906 C 1.871094 2.023438 1.859375 2.058594 1.871094 2.089844 C 1.886719 2.128906 1.929688 2.144531 1.964844 2.128906 L 2.371094 1.957031 C 2.410156 1.941406 2.429688 1.902344 2.414062 1.863281 C 2.398438 1.824219 2.359375 1.804688 2.320312 1.820312 L 1.914062 1.996094 C 1.90625 1.996094 1.898438 2 1.894531 2.003906 Z M 1.792969 1.714844 C 1.761719 1.730469 1.75 1.769531 1.761719 1.800781 C 1.773438 1.839844 1.816406 1.859375 1.851562 1.847656 L 2.242188 1.703125 C 2.285156 1.6875 2.300781 1.648438 2.289062 1.609375 C 2.273438 1.570312 2.230469 1.550781 2.195312 1.5625 L 1.804688 1.710938 C 1.800781 1.710938 1.796875 1.710938 1.792969 1.714844 Z M 1.792969 1.714844 "/>
<path style=" stroke:none;fill-rule:nonzero;fill:rgb(86.666667%,33.333333%,12.156863%);fill-opacity:1;" d="M 6.0625 7.964844 C 6.0625 7.964844 5.347656 7.523438 5.054688 7.300781 C 4.761719 7.074219 4.089844 6.074219 4.089844 6.074219 C 4.089844 6.074219 4.914062 5.21875 5.371094 4.921875 L 6.445312 5.722656 L 7.441406 4.796875 C 7.441406 4.796875 8.480469 5.207031 8.765625 5.6875 C 8.765625 5.6875 8.296875 6.453125 8.148438 6.703125 C 8.140625 6.894531 8.152344 7.136719 8.246094 7.148438 Z M 6.0625 7.964844 "/>
<path style=" stroke:none;fill-rule:nonzero;fill:rgb(95.294118%,82.352941%,63.529412%);fill-opacity:1;" d="M 6.082031 12.183594 L 6.839844 10.542969 C 6.929688 10.347656 7.164062 10.261719 7.359375 10.351562 C 7.554688 10.441406 7.640625 10.675781 7.546875 10.871094 L 6.789062 12.511719 C 6.699219 12.707031 6.464844 12.792969 6.269531 12.703125 C 6.078125 12.613281 5.992188 12.378906 6.082031 12.183594 Z M 6.082031 12.183594 "/>
<path style=" stroke:none;fill-rule:nonzero;fill:rgb(95.294118%,82.352941%,63.529412%);fill-opacity:1;" d="M 5.863281 14.25 C 5.863281 14.25 5.984375 12.785156 6.023438 12.503906 C 6.058594 12.226562 6.273438 12.007812 6.488281 12.027344 C 6.699219 12.046875 6.800781 12.207031 6.828125 12.566406 C 6.855469 12.925781 6.429688 13.902344 6.464844 14.285156 C 6.480469 14.410156 6.855469 14.515625 6.75 14.59375 C 6.703125 14.628906 6.394531 14.660156 6.332031 14.65625 L 6.09375 14.667969 C 5.992188 14.65625 5.726562 14.679688 5.660156 14.605469 C 5.597656 14.527344 5.851562 14.359375 5.863281 14.25 Z M 5.863281 14.25 "/>
<path style=" stroke:none;fill-rule:nonzero;fill:rgb(98.039216%,45.490196%,24.313725%);fill-opacity:1;" d="M 7.675781 11.183594 C 7.675781 11.183594 7.914062 10.996094 8.085938 10.859375 C 8.085938 10.859375 7.914062 10.558594 8.339844 10.242188 C 8.769531 9.925781 9.042969 10.078125 9.042969 10.078125 C 9.042969 10.078125 9.140625 10.113281 9.476562 10.011719 C 9.636719 9.964844 9.953125 9.886719 9.953125 9.886719 C 9.953125 9.886719 9.9375 9.210938 9.84375 8.800781 L 9.03125 8.769531 C 9.03125 8.769531 8.769531 8.199219 8.535156 7.945312 C 8.1875 7.570312 8.238281 6.929688 8.210938 6.78125 C 8.210938 6.78125 7.207031 7.179688 6.480469 7.382812 C 5.921875 7.539062 5.109375 7.390625 5.109375 7.390625 C 5.3125 7.664062 5.847656 8.203125 6.089844 8.582031 C 6.375 9.03125 7.007812 10.351562 6.828125 10.554688 C 6.644531 10.753906 6.386719 11.191406 6.386719 11.191406 C 6.386719 11.191406 6.640625 11.378906 6.816406 11.527344 C 7.058594 11.730469 7.261719 11.78125 7.261719 11.78125 C 7.261719 11.78125 7.53125 11.324219 7.675781 11.183594 Z M 7.675781 11.183594 "/>
</g>
</svg>
