<?xml version="1.0" encoding="UTF-8"?>
<svg xmlns="http://www.w3.org/2000/svg" xmlns:xlink="http://www.w3.org/1999/xlink" width="15pt" height="15pt" viewBox="0 0 15 15" version="1.1">
<g id="surface1">
<path style=" stroke:none;fill-rule:nonzero;fill:rgb(68.627451%,49.411765%,34.117647%);fill-opacity:1;" d="M 13.332031 8.332031 C 13.332031 7.414062 12.867188 6.667969 12.292969 6.667969 C 12.285156 6.667969 12.28125 6.667969 12.277344 6.667969 C 11.648438 4.042969 9.746094 2.136719 7.5 2.136719 C 5.253906 2.136719 3.351562 4.042969 2.722656 6.667969 C 2.71875 6.667969 2.714844 6.667969 2.707031 6.667969 C 2.132812 6.667969 1.667969 7.414062 1.667969 8.332031 C 1.667969 9.210938 2.09375 9.921875 2.628906 9.988281 C 3.140625 12.757812 5.125 14.582031 7.5 14.582031 C 9.875 14.582031 11.859375 12.757812 12.367188 9.988281 C 12.90625 9.921875 13.332031 9.210938 13.332031 8.332031 Z M 13.332031 8.332031 "/>
<path style=" stroke:none;fill-rule:nonzero;fill:rgb(37.647059%,20.784314%,16.470588%);fill-opacity:1;" d="M 5.417969 8.75 C 5.1875 8.75 5 8.5625 5 8.332031 L 5 7.5 C 5 7.269531 5.1875 7.082031 5.417969 7.082031 C 5.648438 7.082031 5.832031 7.269531 5.832031 7.5 L 5.832031 8.332031 C 5.832031 8.5625 5.648438 8.75 5.417969 8.75 Z M 9.582031 8.75 C 9.351562 8.75 9.167969 8.5625 9.167969 8.332031 L 9.167969 7.5 C 9.167969 7.269531 9.351562 7.082031 9.582031 7.082031 C 9.8125 7.082031 10 7.269531 10 7.5 L 10 8.332031 C 10 8.5625 9.8125 8.75 9.582031 8.75 Z M 9.582031 8.75 "/>
<path style=" stroke:none;fill-rule:nonzero;fill:rgb(56.862745%,35.294118%,20.392157%);fill-opacity:1;" d="M 7.5 12.917969 C 5.75 12.917969 5.210938 12.46875 5.121094 12.378906 C 4.960938 12.214844 4.960938 11.953125 5.121094 11.789062 C 5.28125 11.628906 5.53125 11.625 5.695312 11.773438 C 5.730469 11.796875 6.152344 12.082031 7.5 12.082031 C 8.898438 12.082031 9.300781 11.777344 9.308594 11.773438 C 9.46875 11.609375 9.722656 11.617188 9.886719 11.78125 C 10.050781 11.945312 10.039062 12.214844 9.878906 12.378906 C 9.789062 12.46875 9.25 12.917969 7.5 12.917969 Z M 7.917969 10.832031 L 7.082031 10.832031 C 6.851562 10.832031 6.667969 10.648438 6.667969 10.417969 C 6.667969 10.1875 6.851562 10 7.082031 10 L 7.917969 10 C 8.148438 10 8.332031 10.1875 8.332031 10.417969 C 8.332031 10.648438 8.148438 10.832031 7.917969 10.832031 Z M 7.917969 10.832031 "/>
<path style=" stroke:none;fill-rule:nonzero;fill:rgb(37.647059%,20.784314%,16.470588%);fill-opacity:1;" d="M 7.5 0.417969 C 10.832031 0.417969 12.917969 2.917969 12.917969 5 C 12.917969 7.082031 12.5 7.917969 12.082031 7.082031 L 11.25 5.417969 C 11.25 5.417969 8.75 5.417969 7.917969 4.582031 C 7.917969 4.582031 9.167969 7.082031 6.667969 4.582031 C 6.667969 4.582031 7.082031 6.25 4.582031 4.167969 C 4.582031 4.167969 3.332031 5 2.917969 7.082031 C 2.800781 7.660156 2.082031 7.082031 2.082031 5 C 2.082031 2.917969 3.75 0.417969 7.5 0.417969 Z M 7.5 0.417969 "/>
<path style=" stroke:none;fill-rule:nonzero;fill:rgb(60%,66.666667%,70.980392%);fill-opacity:1;" d="M 12.785156 2.410156 C 12.703125 2.378906 12.613281 2.402344 12.554688 2.464844 L 11.945312 3.132812 L 10.96875 1.15625 C 10.933594 1.089844 10.863281 1.042969 10.789062 1.042969 C 10.707031 1.035156 10.640625 1.078125 10.601562 1.144531 L 9.738281 2.628906 L 7.648438 0.078125 C 7.609375 0.0273438 7.550781 0 7.488281 0 C 7.425781 0 7.367188 0.0273438 7.328125 0.078125 L 5.226562 2.632812 L 4.34375 1.144531 C 4.304688 1.078125 4.242188 1.050781 4.160156 1.042969 C 4.085938 1.042969 4.019531 1.082031 3.980469 1.148438 L 2.878906 3.105469 L 2.464844 2.488281 C 2.414062 2.410156 2.316406 2.378906 2.230469 2.40625 C 2.144531 2.433594 2.082031 2.511719 2.082031 2.605469 L 2.082031 3.957031 C 2.082031 4.074219 2.175781 4.167969 2.292969 4.167969 L 12.707031 4.167969 C 12.824219 4.167969 12.917969 4.074219 12.917969 3.957031 L 12.917969 2.605469 C 12.917969 2.519531 12.863281 2.441406 12.785156 2.410156 Z M 12.785156 2.410156 "/>
<path style=" stroke:none;fill-rule:nonzero;fill:rgb(88.235294%,90.980392%,92.941176%);fill-opacity:1;" d="M 7.5 1.25 L 6.667969 2.082031 L 6.667969 2.917969 L 7.5 3.75 L 8.332031 2.917969 L 8.332031 2.082031 Z M 4.582031 2.5 L 4.167969 3.089844 L 3.75 2.5 L 4.167969 1.910156 Z M 11.25 2.5 L 10.832031 3.089844 L 10.417969 2.5 L 10.832031 1.910156 Z M 11.25 2.5 "/>
</g>
</svg>
