<?xml version="1.0" encoding="UTF-8"?>
<svg xmlns="http://www.w3.org/2000/svg" xmlns:xlink="http://www.w3.org/1999/xlink" width="15pt" height="15pt" viewBox="0 0 15 15" version="1.1">
<g id="surface1">
<path style=" stroke:none;fill-rule:nonzero;fill:rgb(46.666667%,69.803922%,33.333333%);fill-opacity:1;" d="M 10.832031 10.902344 L 10.839844 11.25 L 2.5 11.25 L 2.5 15 L 12.5 15 L 12.5 10.902344 Z M 10.832031 10.902344 "/>
<path style=" stroke:none;fill-rule:nonzero;fill:rgb(83.529412%,67.058824%,53.333333%);fill-opacity:1;" d="M 5.832031 11.25 C 5.832031 11.25 6.1875 12.109375 7.3125 12.109375 C 8.4375 12.109375 8.75 11.25 8.75 11.25 L 8.738281 9.625 L 5.832031 9.582031 Z M 5.832031 11.25 "/>
<path style=" stroke:none;fill-rule:nonzero;fill:rgb(80%,60.784314%,47.843137%);fill-opacity:1;" d="M 5.859375 10.429688 C 6.300781 10.933594 6.714844 11.058594 7.308594 11.058594 C 7.902344 11.058594 8.320312 10.929688 8.761719 10.429688 L 8.761719 8.964844 L 5.859375 8.964844 Z M 5.859375 10.429688 "/>
<path style=" stroke:none;fill-rule:nonzero;fill:rgb(83.529412%,67.058824%,53.333333%);fill-opacity:1;" d="M 4.933594 6.746094 C 4.933594 7.273438 4.667969 7.703125 4.339844 7.703125 C 4.011719 7.703125 3.746094 7.273438 3.746094 6.746094 C 3.746094 6.214844 4.011719 5.785156 4.339844 5.785156 C 4.667969 5.785156 4.933594 6.214844 4.933594 6.746094 M 10.875 6.746094 C 10.875 7.273438 10.609375 7.703125 10.28125 7.703125 C 9.953125 7.703125 9.6875 7.273438 9.6875 6.746094 C 9.6875 6.214844 9.953125 5.785156 10.28125 5.785156 C 10.609375 5.785156 10.875 6.214844 10.875 6.746094 "/>
<path style=" stroke:none;fill-rule:nonzero;fill:rgb(83.529412%,67.058824%,53.333333%);fill-opacity:1;" d="M 4.222656 7.121094 C 4.222656 5.074219 5.605469 3.414062 7.3125 3.414062 C 9.015625 3.414062 10.402344 5.074219 10.402344 7.121094 C 10.402344 9.164062 9.015625 10.824219 7.3125 10.824219 C 5.605469 10.824219 4.222656 9.164062 4.222656 7.121094 "/>
<path style=" stroke:none;fill-rule:nonzero;fill:rgb(75.686275%,41.176471%,30.980392%);fill-opacity:1;" d="M 7.3125 9.625 C 6.3125 9.625 6.003906 9.367188 5.953125 9.3125 C 5.863281 9.21875 5.863281 9.066406 5.953125 8.972656 C 6.042969 8.882812 6.1875 8.882812 6.28125 8.964844 C 6.300781 8.980469 6.542969 9.144531 7.3125 9.144531 C 8.109375 9.144531 8.339844 8.96875 8.339844 8.964844 C 8.433594 8.871094 8.578125 8.875 8.671875 8.972656 C 8.765625 9.066406 8.761719 9.222656 8.667969 9.316406 C 8.617188 9.367188 8.308594 9.625 7.3125 9.625 "/>
<path style=" stroke:none;fill-rule:nonzero;fill:rgb(58.823529%,23.137255%,13.333333%);fill-opacity:1;" d="M 7.3125 2.183594 C 9.359375 2.183594 10.636719 3.710938 10.636719 4.980469 C 10.636719 6.253906 10.382812 6.761719 10.125 6.253906 L 9.613281 5.238281 C 9.613281 5.238281 8.078125 5.238281 7.566406 4.726562 C 7.566406 4.726562 8.335938 6.253906 6.796875 4.726562 C 6.796875 4.726562 7.054688 5.746094 5.519531 4.472656 C 5.519531 4.472656 4.75 4.980469 4.496094 6.253906 C 4.425781 6.605469 3.984375 6.253906 3.984375 4.980469 C 3.984375 3.710938 5.007812 2.183594 7.3125 2.183594 "/>
<path style=" stroke:none;fill-rule:nonzero;fill:rgb(40%,12.941176%,7.45098%);fill-opacity:1;" d="M 5.859375 7.132812 C 5.660156 7.132812 5.5 6.96875 5.5 6.769531 L 5.5 6.402344 C 5.5 6.199219 5.660156 6.035156 5.859375 6.035156 C 6.058594 6.035156 6.222656 6.199219 6.222656 6.402344 L 6.222656 6.769531 C 6.222656 6.96875 6.058594 7.132812 5.859375 7.132812 M 8.761719 7.132812 C 8.5625 7.132812 8.398438 6.96875 8.398438 6.769531 L 8.398438 6.402344 C 8.398438 6.199219 8.5625 6.035156 8.761719 6.035156 C 8.960938 6.035156 9.125 6.199219 9.125 6.402344 L 9.125 6.769531 C 9.125 6.96875 8.960938 7.132812 8.761719 7.132812 "/>
<path style=" stroke:none;fill-rule:nonzero;fill:rgb(75.686275%,41.176471%,30.980392%);fill-opacity:1;" d="M 7.582031 8.140625 L 7.039062 8.140625 C 6.890625 8.140625 6.765625 8.019531 6.765625 7.867188 C 6.765625 7.714844 6.890625 7.59375 7.039062 7.59375 L 7.582031 7.59375 C 7.734375 7.59375 7.855469 7.714844 7.855469 7.867188 C 7.855469 8.019531 7.734375 8.140625 7.582031 8.140625 "/>
<path style=" stroke:none;fill-rule:nonzero;fill:rgb(81.960784%,82.745098%,83.137255%);fill-opacity:1;" d="M 2.457031 5.917969 C 2.457031 5.917969 0.859375 6.496094 0.699219 8.511719 C 0.699219 8.511719 -0.300781 6.503906 0.484375 4.28125 Z M 8.355469 2.492188 C 8.355469 2.492188 7.207031 1.238281 5.285156 1.867188 C 5.285156 1.867188 6.753906 0.171875 9.105469 0.0390625 Z M 12.195312 6.808594 C 12.195312 6.808594 13.019531 5.320312 11.8125 3.699219 C 11.8125 3.699219 13.886719 4.550781 14.757812 6.738281 Z M 12.195312 6.808594 "/>
<path style=" stroke:none;fill-rule:nonzero;fill:rgb(36.078431%,56.862745%,23.137255%);fill-opacity:1;" d="M 3.375 4.578125 C 3.375 5.382812 2.722656 6.035156 1.917969 6.035156 C 1.113281 6.035156 0.460938 5.382812 0.460938 4.578125 C 0.460938 3.773438 1.113281 3.121094 1.917969 3.121094 C 2.722656 3.121094 3.375 3.773438 3.375 4.578125 Z M 3.375 4.578125 "/>
<path style=" stroke:none;fill-rule:nonzero;fill:rgb(74.509804%,9.803922%,19.215686%);fill-opacity:1;" d="M 10.839844 1.457031 C 10.839844 2.265625 10.1875 2.917969 9.382812 2.917969 C 8.578125 2.917969 7.921875 2.265625 7.921875 1.457031 C 7.921875 0.652344 8.578125 0 9.382812 0 C 10.1875 0 10.839844 0.652344 10.839844 1.457031 Z M 10.839844 1.457031 "/>
<path style=" stroke:none;fill-rule:nonzero;fill:rgb(23.137255%,53.333333%,76.470588%);fill-opacity:1;" d="M 14.957031 7.4375 C 14.957031 8.246094 14.304688 8.898438 13.5 8.898438 C 12.691406 8.898438 12.039062 8.246094 12.039062 7.4375 C 12.039062 6.632812 12.691406 5.980469 13.5 5.980469 C 14.304688 5.980469 14.957031 6.632812 14.957031 7.4375 Z M 14.957031 7.4375 "/>
<path style=" stroke:none;fill-rule:nonzero;fill:rgb(80%,60.784314%,47.843137%);fill-opacity:1;" d="M 13.601562 9.785156 C 13.554688 9.5625 13.339844 9.417969 13.117188 9.464844 L 12.257812 9.644531 L 11.503906 9.644531 C 11.152344 9.644531 10.863281 9.933594 10.863281 10.292969 L 10.863281 10.9375 L 12.464844 10.9375 C 12.8125 10.9375 13.09375 10.660156 13.105469 10.316406 L 13.21875 10.292969 L 13.429688 10.292969 C 13.429688 10.265625 13.417969 10.246094 13.414062 10.222656 C 13.554688 10.132812 13.636719 9.960938 13.601562 9.785156 Z M 13.601562 9.785156 "/>
<path style=" stroke:none;fill-rule:nonzero;fill:rgb(83.529412%,67.058824%,53.333333%);fill-opacity:1;" d="M 15.03125 9.96875 C 15.03125 9.789062 14.886719 9.644531 14.710938 9.644531 L 12.785156 9.96875 L 11.183594 9.96875 C 11.007812 9.96875 10.863281 10.113281 10.863281 10.292969 L 10.832031 10.9375 L 12.785156 10.9375 L 14.710938 10.292969 C 14.710938 10.292969 15.03125 10.144531 15.03125 9.96875 Z M 15.03125 9.96875 "/>
<path style=" stroke:none;fill-rule:nonzero;fill:rgb(80%,60.784314%,47.843137%);fill-opacity:1;" d="M 1.429688 11.347656 C 1.476562 11.125 1.691406 10.980469 1.914062 11.027344 L 2.773438 11.207031 L 3.527344 11.207031 C 3.878906 11.207031 4.167969 11.496094 4.167969 11.851562 L 4.167969 12.5 L 2.566406 12.5 C 2.21875 12.5 1.9375 12.222656 1.925781 11.875 L 1.8125 11.851562 L 1.601562 11.851562 C 1.601562 11.828125 1.613281 11.804688 1.617188 11.78125 C 1.476562 11.691406 1.394531 11.523438 1.429688 11.347656 Z M 1.429688 11.347656 "/>
<path style=" stroke:none;fill-rule:nonzero;fill:rgb(83.529412%,67.058824%,53.333333%);fill-opacity:1;" d="M 0 11.527344 C 0 11.351562 0.144531 11.207031 0.320312 11.207031 L 2.246094 11.527344 L 3.847656 11.527344 C 4.023438 11.527344 4.167969 11.675781 4.167969 11.851562 L 4.167969 12.5 L 2.246094 12.5 L 0.320312 11.851562 C 0.320312 11.851562 0 11.707031 0 11.527344 Z M 0 11.527344 "/>
<path style=" stroke:none;fill-rule:nonzero;fill:rgb(36.078431%,56.862745%,23.137255%);fill-opacity:1;" d="M 4.167969 12.5 L 4.582031 12.5 L 4.582031 15 L 4.167969 15 Z M 10.417969 11.25 L 10.832031 11.25 L 10.832031 15 L 10.417969 15 Z M 10.417969 11.25 "/>
</g>
</svg>
