<?xml version="1.0" encoding="UTF-8"?>
<svg xmlns="http://www.w3.org/2000/svg" xmlns:xlink="http://www.w3.org/1999/xlink" width="15pt" height="15pt" viewBox="0 0 15 15" version="1.1">
<g id="surface1">
<path style=" stroke:none;fill-rule:nonzero;fill:rgb(40%,45.882353%,49.803922%);fill-opacity:1;" d="M 8.75 10.417969 C 7.683594 10.417969 7.058594 9.113281 6.597656 8.46875 C 6.429688 8.226562 6.070312 8.226562 5.902344 8.46875 C 5.441406 9.113281 4.816406 10.417969 3.75 10.417969 C 1.855469 10.417969 0.449219 9.152344 0.0898438 7.242188 C -0.335938 4.980469 1.496094 2.917969 3.796875 2.917969 L 8.703125 2.917969 C 11.003906 2.917969 12.835938 4.980469 12.410156 7.242188 C 12.050781 9.152344 10.644531 10.417969 8.75 10.417969 Z M 8.75 10.417969 "/>
<path style=" stroke:none;fill-rule:nonzero;fill:rgb(16.078431%,18.431373%,20%);fill-opacity:1;" d="M 7.5 9.167969 L 6.25 7.917969 L 4.167969 10 C 5 10 5.417969 11.25 6.25 11.25 C 7.082031 11.25 7.5 10 8.332031 10 Z M 7.5 9.167969 "/>
<path style=" stroke:none;fill-rule:nonzero;fill:rgb(30.588235%,57.647059%,13.333333%);fill-opacity:1;" d="M 8.75 10.417969 C 7.683594 10.417969 7.058594 9.113281 6.597656 8.46875 C 6.429688 8.226562 6.070312 8.226562 5.902344 8.46875 C 5.441406 9.113281 4.816406 10.417969 3.75 10.417969 C 1.855469 10.417969 0.449219 9.152344 0.0898438 7.242188 C -0.335938 4.980469 1.496094 2.917969 3.796875 2.917969 L 8.703125 2.917969 C 11.003906 2.917969 12.835938 4.980469 12.410156 7.242188 C 12.050781 9.152344 10.644531 10.417969 8.75 10.417969 Z M 8.75 10.417969 "/>
<path style=" stroke:none;fill-rule:nonzero;fill:rgb(53.333333%,78.823529%,97.647059%);fill-opacity:1;" d="M 8.75 9.582031 C 8.316406 9.582031 7.871094 8.890625 7.542969 8.382812 C 7.449219 8.238281 7.359375 8.101562 7.277344 7.984375 C 7.042969 7.652344 6.65625 7.453125 6.25 7.453125 C 5.84375 7.453125 5.457031 7.652344 5.222656 7.984375 C 5.136719 8.101562 5.050781 8.238281 4.957031 8.382812 C 4.628906 8.890625 4.183594 9.582031 3.75 9.582031 C 2.285156 9.582031 1.199219 8.628906 0.910156 7.089844 C 0.757812 6.28125 0.96875 5.476562 1.507812 4.824219 C 2.078125 4.140625 2.910156 3.75 3.796875 3.75 L 8.703125 3.75 C 9.589844 3.75 10.421875 4.140625 10.988281 4.824219 C 11.53125 5.476562 11.742188 6.28125 11.589844 7.089844 C 11.300781 8.628906 10.214844 9.582031 8.75 9.582031 Z M 8.75 9.582031 "/>
<path style=" stroke:none;fill-rule:nonzero;fill:rgb(16.078431%,18.431373%,20%);fill-opacity:1;" d="M 11.152344 4.691406 C 10.542969 3.960938 9.652344 3.542969 8.703125 3.542969 L 3.796875 3.542969 C 2.847656 3.542969 1.957031 3.960938 1.347656 4.691406 C 0.769531 5.390625 0.539062 6.253906 0.703125 7.125 C 1.011719 8.769531 2.179688 9.792969 3.75 9.792969 C 4.296875 9.792969 4.761719 9.074219 5.132812 8.496094 C 5.222656 8.351562 5.308594 8.21875 5.390625 8.105469 C 5.589844 7.828125 5.910156 7.660156 6.25 7.660156 C 6.589844 7.660156 6.910156 7.828125 7.109375 8.105469 C 7.191406 8.21875 7.277344 8.355469 7.367188 8.496094 C 7.738281 9.074219 8.203125 9.792969 8.75 9.792969 C 10.320312 9.792969 11.488281 8.769531 11.796875 7.125 C 11.960938 6.257812 11.730469 5.390625 11.152344 4.691406 Z M 11.386719 7.050781 C 11.117188 8.484375 10.105469 9.375 8.75 9.375 C 8.429688 9.375 7.984375 8.683594 7.71875 8.269531 C 7.621094 8.121094 7.53125 7.984375 7.449219 7.867188 C 7.171875 7.476562 6.726562 7.246094 6.25 7.246094 C 5.773438 7.246094 5.328125 7.476562 5.050781 7.863281 C 4.964844 7.984375 4.878906 8.121094 4.78125 8.273438 C 4.515625 8.683594 4.070312 9.375 3.75 9.375 C 2.394531 9.375 1.382812 8.484375 1.113281 7.050781 C 0.972656 6.304688 1.171875 5.558594 1.671875 4.957031 C 2.199219 4.324219 2.972656 3.957031 3.796875 3.957031 L 8.703125 3.957031 C 9.527344 3.957031 10.300781 4.324219 10.828125 4.957031 C 11.328125 5.558594 11.527344 6.304688 11.386719 7.050781 Z M 11.386719 7.050781 "/>
<path style=" stroke:none;fill-rule:nonzero;fill:rgb(73.333333%,86.666667%,96.078431%);fill-opacity:1;" d="M 5.207031 3.960938 L 1.464844 7.699219 C 1.648438 8.238281 1.921875 8.664062 2.296875 8.953125 L 7.289062 3.960938 Z M 5.207031 3.960938 "/>
<path style=" stroke:none;fill-rule:nonzero;fill:rgb(23.529412%,58.823529%,80.784314%);fill-opacity:1;" d="M 6.25 6.25 C 5.484375 6.25 4.71875 8.007812 3.953125 9.261719 C 4.296875 9.027344 4.675781 8.5 4.90625 8.140625 C 4.992188 8.003906 5.074219 7.878906 5.152344 7.769531 C 5.371094 7.460938 5.78125 7.238281 6.25 7.238281 C 6.796875 7.238281 7.230469 7.535156 7.449219 7.847656 C 7.527344 7.953125 7.609375 8.078125 7.695312 8.214844 C 7.929688 8.578125 8.164062 9.066406 8.550781 9.273438 C 7.785156 8.015625 7.015625 6.25 6.25 6.25 Z M 6.25 6.25 "/>
<path style=" stroke:none;fill-rule:nonzero;fill:rgb(95.686275%,56.470588%,4.705882%);fill-opacity:1;" d="M 10.832031 15 C 9.351562 15 7.96875 14.203125 7.226562 12.917969 C 6.996094 12.519531 7.128906 12.011719 7.527344 11.78125 C 7.929688 11.550781 8.4375 11.683594 8.667969 12.085938 C 9.113281 12.855469 9.945312 13.332031 10.832031 13.332031 C 12.210938 13.332031 13.332031 12.210938 13.332031 10.832031 L 13.332031 0.832031 C 13.332031 0.375 13.707031 0 14.167969 0 C 14.625 0 15 0.375 15 0.832031 L 15 10.832031 C 15 13.128906 13.128906 15 10.832031 15 Z M 10.832031 15 "/>
<path style=" stroke:none;fill-rule:nonzero;fill:rgb(16.078431%,18.431373%,20%);fill-opacity:1;" d="M 8.996094 12.5625 L 7.4375 13.160156 C 7.011719 13.324219 6.527344 13.109375 6.363281 12.683594 C 6.195312 12.253906 6.410156 11.769531 6.839844 11.605469 L 8.394531 11.003906 C 8.820312 10.839844 9.308594 11.054688 9.472656 11.484375 C 9.636719 11.910156 9.421875 12.394531 8.996094 12.5625 Z M 8.996094 12.5625 "/>
<path style=" stroke:none;fill-rule:nonzero;fill:rgb(100%,80%,30.196078%);fill-opacity:1;" d="M 13.332031 2.082031 L 15 2.082031 L 15 3.75 L 13.332031 3.75 Z M 13.332031 5 L 15 5 L 15 6.667969 L 13.332031 6.667969 Z M 13.332031 5 "/>
</g>
</svg>
