<?xml version="1.0" encoding="UTF-8"?>
<svg xmlns="http://www.w3.org/2000/svg" xmlns:xlink="http://www.w3.org/1999/xlink" width="15pt" height="15pt" viewBox="0 0 15 15" version="1.1">
<g id="surface1">
<path style=" stroke:none;fill-rule:nonzero;fill:rgb(16.078431%,18.431373%,20%);fill-opacity:1;" d="M 13.332031 15 L 13.332031 13.332031 C 13.332031 11.953125 12.214844 10.832031 10.832031 10.832031 L 4.167969 10.832031 C 2.785156 10.832031 1.667969 11.953125 1.667969 13.332031 L 1.667969 15 Z M 13.332031 15 "/>
<path style=" stroke:none;fill-rule:nonzero;fill:rgb(32.941176%,38.039216%,43.921569%);fill-opacity:1;" d="M 9.375 12.5 L 11.164062 12.121094 L 10.367188 10.832031 L 9.375 10.835938 Z M 9.375 12.5 "/>
<path style=" stroke:none;fill-rule:nonzero;fill:rgb(40%,45.882353%,49.803922%);fill-opacity:1;" d="M 8.574219 15 L 9.753906 15 L 11.578125 11.804688 L 10.367188 12.191406 L 9.640625 11.273438 Z M 8.574219 15 "/>
<path style=" stroke:none;fill-rule:nonzero;fill:rgb(32.941176%,38.039216%,43.921569%);fill-opacity:1;" d="M 5.625 12.5 L 3.835938 12.121094 L 4.632812 10.832031 L 5.625 10.835938 Z M 5.625 12.5 "/>
<path style=" stroke:none;fill-rule:nonzero;fill:rgb(40%,45.882353%,49.803922%);fill-opacity:1;" d="M 6.425781 15 L 5.246094 15 L 3.421875 11.804688 L 4.632812 12.191406 L 5.359375 11.273438 Z M 6.425781 15 "/>
<path style=" stroke:none;fill-rule:nonzero;fill:rgb(87.45098%,90.588235%,92.54902%);fill-opacity:1;" d="M 8.667969 15 L 9.859375 10.828125 L 5.140625 10.828125 L 6.332031 15 Z M 8.667969 15 "/>
<path style=" stroke:none;fill-rule:nonzero;fill:rgb(16.078431%,18.431373%,20%);fill-opacity:1;" d="M 7.792969 13.269531 C 7.792969 13.429688 7.660156 13.5625 7.5 13.5625 C 7.339844 13.5625 7.207031 13.429688 7.207031 13.269531 C 7.207031 13.109375 7.339844 12.976562 7.5 12.976562 C 7.660156 12.976562 7.792969 13.109375 7.792969 13.269531 Z M 7.792969 13.269531 "/>
<path style=" stroke:none;fill-rule:nonzero;fill:rgb(16.078431%,18.431373%,20%);fill-opacity:1;" d="M 7.792969 14.460938 C 7.792969 14.621094 7.660156 14.75 7.5 14.75 C 7.339844 14.75 7.207031 14.621094 7.207031 14.460938 C 7.207031 14.300781 7.339844 14.167969 7.5 14.167969 C 7.660156 14.167969 7.792969 14.300781 7.792969 14.460938 Z M 7.792969 14.460938 "/>
<path style=" stroke:none;fill-rule:nonzero;fill:rgb(95.294118%,82.352941%,63.529412%);fill-opacity:1;" d="M 5.832031 10.785156 L 7.5 11.515625 L 9.167969 10.785156 L 9.167969 9.121094 L 5.832031 9.121094 Z M 5.832031 10.785156 "/>
<path style=" stroke:none;fill-rule:nonzero;fill:rgb(88.627451%,75.686275%,58.823529%);fill-opacity:1;" d="M 5.832031 10 C 6.339844 10.574219 6.816406 10.714844 7.5 10.714844 C 8.179688 10.714844 8.660156 10.570312 9.167969 10 L 9.167969 8.332031 L 5.832031 8.332031 Z M 5.832031 10 "/>
<path style=" stroke:none;fill-rule:nonzero;fill:rgb(95.294118%,82.352941%,63.529412%);fill-opacity:1;" d="M 11.597656 5.804688 C 11.597656 5.203125 11.292969 4.714844 10.914062 4.714844 C 10.878906 4.714844 10.847656 4.722656 10.8125 4.730469 C 10.304688 3.144531 9.015625 2.015625 7.5 2.015625 C 5.984375 2.015625 4.695312 3.144531 4.183594 4.730469 C 4.152344 4.722656 4.121094 4.714844 4.085938 4.714844 C 3.707031 4.714844 3.402344 5.203125 3.402344 5.804688 C 3.402344 6.359375 3.660156 6.8125 3.996094 6.882812 C 4.257812 8.902344 5.726562 10.449219 7.5 10.449219 C 9.273438 10.449219 10.738281 8.902344 11.003906 6.882812 C 11.339844 6.8125 11.597656 6.359375 11.597656 5.804688 Z M 11.597656 5.804688 "/>
<path style=" stroke:none;fill-rule:nonzero;fill:rgb(95.686275%,96.862745%,97.647059%);fill-opacity:1;" d="M 5.804688 10.308594 L 7.5 11.515625 L 6.394531 12.691406 L 5.140625 10.828125 Z M 9.195312 10.308594 L 7.5 11.515625 L 8.605469 12.691406 L 9.859375 10.828125 Z M 9.195312 10.308594 "/>
<path style=" stroke:none;fill-rule:nonzero;fill:rgb(16.078431%,18.431373%,20%);fill-opacity:1;" d="M 8.769531 11.105469 C 8.738281 11.085938 8.703125 11.085938 8.671875 11.105469 L 7.5 11.75 L 6.328125 11.105469 C 6.296875 11.085938 6.261719 11.089844 6.230469 11.105469 C 6.203125 11.121094 6.183594 11.15625 6.183594 11.1875 L 6.183594 12.53125 C 6.183594 12.5625 6.203125 12.597656 6.230469 12.613281 C 6.246094 12.621094 6.265625 12.628906 6.28125 12.628906 C 6.296875 12.628906 6.3125 12.621094 6.328125 12.613281 L 7.5 11.96875 L 8.671875 12.613281 C 8.6875 12.625 8.703125 12.628906 8.71875 12.628906 C 8.734375 12.628906 8.753906 12.621094 8.769531 12.613281 C 8.796875 12.597656 8.816406 12.5625 8.816406 12.53125 L 8.816406 11.1875 C 8.816406 11.15625 8.796875 11.121094 8.769531 11.105469 Z M 8.769531 11.105469 "/>
<path style=" stroke:none;fill-rule:nonzero;fill:rgb(75.686275%,41.176471%,30.980392%);fill-opacity:1;" d="M 7.5 9.085938 C 6.351562 9.085938 6 8.789062 5.941406 8.730469 C 5.835938 8.625 5.835938 8.453125 5.941406 8.34375 C 6.042969 8.242188 6.210938 8.238281 6.316406 8.335938 C 6.339844 8.351562 6.617188 8.539062 7.5 8.539062 C 8.417969 8.539062 8.683594 8.335938 8.683594 8.332031 C 8.789062 8.226562 8.957031 8.234375 9.066406 8.339844 C 9.171875 8.445312 9.164062 8.625 9.058594 8.730469 C 9 8.789062 8.648438 9.085938 7.5 9.085938 M 7.8125 7.394531 L 7.1875 7.394531 C 7.015625 7.394531 6.875 7.253906 6.875 7.082031 C 6.875 6.910156 7.015625 6.769531 7.1875 6.769531 L 7.8125 6.769531 C 7.984375 6.769531 8.125 6.910156 8.125 7.082031 C 8.125 7.253906 7.984375 7.394531 7.8125 7.394531 "/>
<path style=" stroke:none;fill-rule:nonzero;fill:rgb(40%,12.941176%,7.45098%);fill-opacity:1;" d="M 9.167969 6.25 C 8.9375 6.25 8.75 6.0625 8.75 5.832031 L 8.75 5.417969 C 8.75 5.1875 8.9375 5 9.167969 5 C 9.394531 5 9.582031 5.1875 9.582031 5.417969 L 9.582031 5.832031 C 9.582031 6.0625 9.394531 6.25 9.167969 6.25 M 5.832031 6.25 C 5.605469 6.25 5.417969 6.0625 5.417969 5.832031 L 5.417969 5.417969 C 5.417969 5.1875 5.605469 5 5.832031 5 C 6.0625 5 6.25 5.1875 6.25 5.417969 L 6.25 5.832031 C 6.25 6.0625 6.0625 6.25 5.832031 6.25 "/>
<path style=" stroke:none;fill-rule:nonzero;fill:rgb(100%,89.803922%,11.764706%);fill-opacity:1;" d="M 7.5 0.617188 C 9.851562 0.617188 11.324219 2.351562 11.324219 3.800781 C 11.324219 5.246094 11.03125 5.828125 10.734375 5.246094 L 10.148438 4.089844 C 10.148438 4.089844 8.382812 4.089844 7.792969 3.511719 C 7.792969 3.511719 8.675781 5.246094 6.910156 3.511719 C 6.910156 3.511719 7.207031 4.667969 5.441406 3.222656 C 5.441406 3.222656 4.558594 3.800781 4.265625 5.246094 C 4.183594 5.648438 3.675781 5.246094 3.675781 3.800781 C 3.675781 2.351562 4.851562 0.617188 7.5 0.617188 "/>
</g>
</svg>
