<?xml version="1.0" encoding="UTF-8"?>
<svg xmlns="http://www.w3.org/2000/svg" xmlns:xlink="http://www.w3.org/1999/xlink" width="15pt" height="15pt" viewBox="0 0 15 15" version="1.1">
<g id="surface1">
<path style=" stroke:none;fill-rule:nonzero;fill:rgb(57.254902%,40.784314%,79.215686%);fill-opacity:1;" d="M 9.21875 5.742188 L 7.367188 5.742188 C 6.621094 5.742188 5.976562 6.382812 5.976562 7.128906 L 5.976562 15 L 10.417969 15 L 10.417969 11.269531 L 10.605469 10.539062 L 10.605469 7.128906 C 10.605469 6.382812 9.964844 5.742188 9.21875 5.742188 Z M 9.21875 5.742188 "/>
<path style=" stroke:none;fill-rule:nonzero;fill:rgb(45.490196%,31.372549%,65.882353%);fill-opacity:1;" d="M 7.5 6.875 C 6.464844 6.875 5.625 7.714844 5.625 8.75 C 5.625 9.785156 6.464844 10.625 7.5 10.625 Z M 7.5 6.875 "/>
<path style=" stroke:none;fill-rule:nonzero;fill:rgb(57.254902%,40.784314%,79.215686%);fill-opacity:1;" d="M 7.5 7.292969 C 6.695312 7.292969 6.042969 7.945312 6.042969 8.75 C 6.042969 9.554688 6.695312 10.207031 7.5 10.207031 Z M 7.5 7.292969 "/>
<path style=" stroke:none;fill-rule:nonzero;fill:rgb(45.490196%,31.372549%,65.882353%);fill-opacity:1;" d="M 8.332031 6.875 C 7.296875 6.875 6.457031 7.714844 6.457031 8.75 C 6.457031 9.785156 7.296875 10.625 8.332031 10.625 Z M 8.332031 6.875 "/>
<path style=" stroke:none;fill-rule:nonzero;fill:rgb(57.254902%,40.784314%,79.215686%);fill-opacity:1;" d="M 8.332031 7.292969 C 7.527344 7.292969 6.875 7.945312 6.875 8.75 C 6.875 9.554688 7.527344 10.207031 8.332031 10.207031 Z M 8.332031 7.292969 "/>
<path style=" stroke:none;fill-rule:nonzero;fill:rgb(45.490196%,31.372549%,65.882353%);fill-opacity:1;" d="M 4.921875 15 L 7.902344 15 L 7.902344 9.0625 C 7.714844 9.03125 7.523438 9.011719 7.324219 9.011719 C 5.402344 9.011719 3.847656 10.566406 3.847656 12.488281 C 3.847656 13.476562 4.261719 14.367188 4.921875 15 Z M 4.921875 15 "/>
<path style=" stroke:none;fill-rule:nonzero;fill:rgb(57.254902%,40.784314%,79.215686%);fill-opacity:1;" d="M 7.828125 7.570312 L 7.828125 9.441406 C 7.664062 9.414062 7.496094 9.398438 7.324219 9.398438 C 5.617188 9.398438 4.234375 10.78125 4.234375 12.488281 C 4.234375 13.523438 4.746094 14.4375 5.527344 15 L 9.984375 15 L 9.984375 6.390625 Z M 7.828125 7.570312 "/>
<path style=" stroke:none;fill-rule:nonzero;fill:rgb(45.490196%,31.372549%,65.882353%);fill-opacity:1;" d="M 10.183594 6.667969 L 12.203125 8.796875 L 10.417969 10.675781 L 10.414062 11.945312 L 8.773438 13.058594 L 7.671875 11.335938 L 10.027344 8.914062 L 9.21875 8.113281 Z M 10.183594 6.667969 "/>
<path style=" stroke:none;fill-rule:nonzero;fill:rgb(57.254902%,40.784314%,79.215686%);fill-opacity:1;" d="M 10.183594 6.144531 L 12.460938 8.519531 C 12.460938 8.519531 13.25 9.15625 12.460938 9.90625 C 11.984375 10.359375 9.011719 12.359375 9.011719 12.359375 L 8.085938 11.433594 L 10.609375 8.980469 L 9.21875 7.59375 Z M 10.183594 6.144531 "/>
<path style=" stroke:none;fill-rule:nonzero;fill:rgb(40%,25.490196%,19.215686%);fill-opacity:1;" d="M 8.472656 11.472656 C 8.003906 11.25 7.558594 11.28125 7.128906 11.53125 C 6.921875 11.652344 6.839844 11.875 7.15625 11.949219 C 7.46875 12.023438 8.472656 11.472656 8.472656 11.472656 Z M 8.472656 11.472656 "/>
<path style=" stroke:none;fill-rule:nonzero;fill:rgb(48.627451%,32.54902%,24.313725%);fill-opacity:1;" d="M 9.101562 12.269531 C 9.160156 13.003906 8.175781 13.691406 7.425781 13.601562 C 6.894531 13.539062 6.429688 12.101562 7.0625 11.914062 C 7.625 11.75 7.78125 11.234375 8.453125 11.429688 C 8.984375 11.582031 9.082031 11.988281 9.101562 12.269531 Z M 9.101562 12.269531 "/>
<path style=" stroke:none;fill-rule:nonzero;fill:rgb(34.509804%,20.784314%,16.078431%);fill-opacity:1;" d="M 8.609375 12.554688 L 8.519531 12.371094 C 8.519531 12.371094 8.199219 12.847656 7.75 13.035156 C 7.414062 13.171875 7.128906 13.1875 6.976562 13.160156 C 7.042969 13.285156 7.042969 13.304688 7.128906 13.382812 C 7.59375 13.398438 8.335938 13.148438 8.609375 12.554688 Z M 7.683594 12.539062 C 8.097656 12.257812 8.21875 11.984375 8.21875 11.984375 L 8.082031 11.816406 C 8.082031 11.816406 7.605469 12.554688 6.757812 12.519531 C 6.765625 12.621094 6.757812 12.640625 6.785156 12.746094 C 6.902344 12.75 7.347656 12.769531 7.683594 12.539062 Z M 7.683594 12.539062 "/>
<path style=" stroke:none;fill-rule:nonzero;fill:rgb(4.313725%,0.784314%,0%);fill-opacity:1;" d="M 6.488281 2.003906 C 6.730469 2.582031 6.457031 3.242188 5.886719 3.480469 C 5.3125 3.714844 4.65625 3.441406 4.414062 2.867188 C 4.175781 2.289062 4.445312 1.628906 5.019531 1.390625 C 5.589844 1.152344 6.25 1.425781 6.488281 2.003906 Z M 6.488281 2.003906 "/>
<path style=" stroke:none;fill-rule:nonzero;fill:rgb(48.627451%,32.54902%,24.313725%);fill-opacity:1;" d="M 8.742188 4.917969 C 9.246094 4.316406 9.542969 3.554688 9.285156 2.9375 L 8.859375 1.914062 C 6.5625 2.777344 5.617188 1.589844 5.617188 1.589844 C 5.617188 1.589844 6.066406 2.671875 5.101562 3.222656 L 5.617188 4.460938 C 6.035156 5.472656 6.609375 6.195312 7.617188 5.78125 L 7.652344 5.914062 C 7.738281 6.257812 7.675781 6.53125 8.175781 6.550781 C 8.527344 6.5625 9 5.9375 8.914062 5.597656 Z M 8.742188 4.917969 "/>
<path style=" stroke:none;fill-rule:nonzero;fill:rgb(4.313725%,0.784314%,0%);fill-opacity:1;" d="M 11.421875 2.253906 C 11.765625 1.335938 10.9375 0.640625 10.234375 0.566406 C 9.808594 0.523438 9.421875 0.796875 9.234375 1.121094 C 8.378906 -0.308594 7.101562 0.0273438 6.289062 0.316406 C 5.425781 0.617188 4.144531 1.511719 4.648438 2.46875 C 5.152344 3.429688 6.832031 3.015625 6.832031 3.015625 L 7.4375 3.996094 C 7.273438 3.152344 7.835938 2.964844 8.09375 3.148438 C 8.367188 3.34375 8.183594 3.964844 8.308594 4.207031 C 8.433594 4.453125 8.863281 4.789062 8.863281 4.789062 C 9.128906 4.453125 9.960938 3.296875 9.570312 1.898438 C 9.734375 1.839844 9.976562 1.878906 10.171875 1.980469 C 10.667969 2.238281 10.277344 3.523438 10.96875 3.929688 C 11.628906 4.320312 12.015625 3.785156 12.015625 3.785156 C 11.339844 3.808594 11.09375 3.132812 11.421875 2.253906 Z M 11.421875 2.253906 "/>
<path style=" stroke:none;fill-rule:nonzero;fill:rgb(23.921569%,18.039216%,14.117647%);fill-opacity:1;" d="M 5.976562 4.910156 L 5.847656 4.960938 C 5.792969 4.984375 5.726562 4.960938 5.703125 4.902344 C 5.679688 4.847656 5.707031 4.78125 5.761719 4.757812 L 5.890625 4.707031 C 5.949219 4.683594 6.011719 4.707031 6.035156 4.765625 C 6.058594 4.820312 6.03125 4.886719 5.976562 4.910156 Z M 5.976562 4.910156 "/>
<path style=" stroke:none;fill-rule:nonzero;fill:rgb(0%,0%,0%);fill-opacity:1;" d="M 6.039062 4.046875 C 5.925781 4.09375 5.796875 4.039062 5.75 3.925781 L 5.664062 3.722656 C 5.617188 3.609375 5.671875 3.480469 5.785156 3.433594 C 5.898438 3.386719 6.027344 3.441406 6.074219 3.554688 L 6.160156 3.757812 C 6.207031 3.871094 6.152344 4 6.039062 4.046875 Z M 6.039062 4.046875 "/>
<path style=" stroke:none;fill-rule:nonzero;fill:rgb(87.45098%,12.156863%,19.607843%);fill-opacity:1;" d="M 6.152344 5.410156 C 6.25 5.53125 6.363281 5.636719 6.480469 5.714844 C 6.921875 5.460938 6.953125 5.078125 6.953125 5.078125 L 6.171875 5.402344 Z M 6.152344 5.410156 "/>
</g>
</svg>
