<?xml version="1.0" encoding="UTF-8"?>
<svg xmlns="http://www.w3.org/2000/svg" xmlns:xlink="http://www.w3.org/1999/xlink" width="15pt" height="15pt" viewBox="0 0 15 15" version="1.1">
<g id="surface1">
<path style=" stroke:none;fill-rule:nonzero;fill:rgb(80%,83.921569%,86.666667%);fill-opacity:1;" d="M 10.089844 3.125 C 9.347656 3.125 9.074219 3.683594 9.023438 3.828125 C 8.972656 3.972656 8.464844 4.832031 8.425781 5.027344 C 8.386719 5.222656 8.191406 5.128906 8.019531 5.105469 C 7.851562 5.078125 7.03125 5.039062 6.730469 5.027344 C 6.730469 5.027344 6.53125 4.714844 6.25 4.738281 C 5.9375 4.765625 5.714844 4.855469 5.664062 5.167969 C 5.613281 5.480469 6.09375 5.820312 6.316406 5.820312 C 6.535156 5.820312 6.730469 5.703125 6.808594 5.703125 C 6.886719 5.703125 8.097656 5.976562 8.320312 6.003906 C 8.542969 6.027344 8.933594 6.015625 9.035156 5.847656 C 9.140625 5.675781 9.910156 4.636719 10.011719 4.425781 C 10.117188 4.21875 10.089844 3.125 10.089844 3.125 Z M 9.453125 6.707031 C 9.453125 6.707031 7.992188 9.933594 7.875 10.117188 C 7.753906 10.296875 7.734375 10.628906 7.785156 10.910156 C 7.839844 11.195312 8.621094 13.613281 8.554688 14.109375 C 8.523438 14.347656 9.632812 14.683594 9.425781 14.125 C 9.230469 13.601562 9.28125 12.578125 9.21875 11.757812 C 9.175781 11.175781 9.011719 10.585938 9.011719 10.585938 L 10.496094 8.269531 C 10.496094 8.269531 11.292969 10.3125 11.328125 10.675781 C 11.339844 10.8125 11.242188 11.183594 11.25 11.652344 C 11.265625 12.453125 11.378906 13.492188 11.355469 13.789062 C 11.316406 14.238281 12.019531 14.550781 12.066406 13.820312 C 12.121094 13.023438 12.628906 11.46875 12.472656 10.429688 C 12.207031 8.675781 11.847656 6.902344 11.847656 6.902344 Z M 9.453125 6.707031 "/>
<path style=" stroke:none;fill-rule:nonzero;fill:rgb(60%,66.666667%,70.980392%);fill-opacity:1;" d="M 12.960938 14.59375 L 11.261719 14.59375 C 11.019531 14.59375 11.191406 14.058594 11.210938 13.832031 C 11.226562 13.609375 11.332031 13.730469 11.417969 13.796875 C 11.503906 13.867188 11.714844 13.78125 11.90625 13.675781 C 12.097656 13.574219 12.351562 13.484375 12.433594 13.605469 C 12.734375 14.0625 12.996094 13.980469 13.214844 14.152344 C 13.398438 14.296875 13.488281 14.59375 12.960938 14.59375 Z M 7.785156 14.59375 L 9.390625 14.59375 C 9.632812 14.59375 9.460938 14.058594 9.441406 13.832031 C 9.425781 13.609375 9.320312 13.730469 9.234375 13.796875 C 9.148438 13.867188 8.585938 13.953125 8.527344 13.683594 C 8.484375 13.472656 8.128906 13.574219 8.046875 13.699219 C 7.785156 14.089844 7.125 13.933594 6.953125 14.152344 C 6.804688 14.347656 6.777344 14.59375 7.785156 14.59375 Z M 10.519531 3.113281 L 11.667969 3.113281 C 12.070312 3.113281 12.292969 3.410156 12.34375 3.632812 C 12.394531 3.855469 12.410156 4.402344 12.214844 4.726562 C 12.019531 5.050781 11.648438 5.753906 11.648438 6.121094 C 11.648438 6.484375 12.042969 7.34375 12.097656 7.578125 C 12.148438 7.8125 11.6875 7.769531 11.355469 7.996094 C 11.027344 8.214844 10.691406 8.59375 10.664062 8.710938 C 10.640625 8.828125 10.234375 8.984375 10.15625 8.738281 C 10.078125 8.488281 9.808594 8.175781 9.453125 7.878906 C 9.21875 7.683594 9.023438 7.617188 9.035156 7.488281 C 9.050781 7.355469 9.308594 6.699219 9.328125 6.472656 C 9.433594 5.421875 8.808594 5.394531 8.984375 4.675781 C 9.089844 4.25 9.453125 3.359375 9.765625 3.203125 C 10.078125 3.046875 10.183594 3.113281 10.519531 3.113281 Z M 10.519531 3.113281 "/>
<path style=" stroke:none;fill-rule:nonzero;fill:rgb(80%,83.921569%,86.666667%);fill-opacity:1;" d="M 12.03125 3.214844 C 12.410156 3.191406 12.527344 3.386719 12.695312 3.464844 C 12.863281 3.542969 13.320312 3.710938 13.425781 3.75 C 13.527344 3.789062 13.710938 4.011719 13.710938 3.660156 C 13.710938 3.476562 13.800781 3.019531 13.839844 2.8125 C 13.898438 2.515625 13.945312 2.238281 13.945312 2.238281 C 13.945312 2.238281 13.644531 1.808594 13.660156 1.679688 C 13.671875 1.550781 13.816406 1.210938 13.984375 1.132812 C 14.152344 1.054688 14.636719 1.328125 14.792969 1.433594 C 14.949219 1.535156 14.882812 1.796875 14.765625 1.964844 C 14.648438 2.136719 14.53125 2.429688 14.53125 2.707031 C 14.53125 3.058594 14.539062 4.066406 14.449219 4.757812 C 14.417969 4.988281 14.097656 4.992188 13.863281 4.964844 C 13.628906 4.9375 12.589844 4.765625 11.953125 4.621094 C 11.316406 4.480469 11.652344 3.242188 12.03125 3.214844 Z M 10.355469 0.566406 C 10.941406 0.441406 11.449219 0.753906 11.648438 1.089844 C 11.992188 1.667969 11.511719 2.53125 11.707031 2.890625 C 11.886719 3.222656 11.757812 3.300781 11.496094 3.476562 C 11.242188 3.648438 10.972656 3.863281 10.441406 3.855469 C 9.832031 3.839844 9.746094 3.496094 9.816406 3.203125 C 9.855469 3.058594 9.855469 2.921875 9.828125 2.785156 C 9.828125 2.785156 9.585938 2.589844 9.574219 1.945312 C 9.5625 1.445312 9.4375 0.761719 10.355469 0.566406 Z M 10.355469 0.566406 "/>
<path style=" stroke:none;fill-rule:nonzero;fill:rgb(96.078431%,97.254902%,98.039216%);fill-opacity:1;" d="M 11.5625 1.753906 C 11.488281 2.429688 10.984375 3.214844 10.429688 3.214844 C 9.875 3.214844 9.515625 2.667969 9.449219 2.003906 C 9.386719 1.34375 10.0625 0.507812 10.636719 0.546875 C 11.191406 0.582031 11.636719 1.09375 11.5625 1.753906 Z M 11.5625 1.753906 "/>
<path style=" stroke:none;fill-rule:nonzero;fill:rgb(16.078431%,18.431373%,20%);fill-opacity:1;" d="M 11.390625 1.730469 C 11.316406 2.40625 10.90625 3.085938 10.351562 3.085938 C 9.796875 3.085938 9.367188 2.53125 9.425781 1.738281 C 9.484375 0.988281 9.933594 0.496094 10.507812 0.535156 C 11.058594 0.570312 11.464844 1.070312 11.390625 1.730469 Z M 11.390625 1.730469 "/>
<path style=" stroke:none;fill-rule:nonzero;fill:rgb(40%,45.882353%,49.803922%);fill-opacity:1;" d="M 5.871094 4.890625 L 5.59375 4.835938 C 2.554688 4.199219 0.0703125 3.78125 0.046875 3.898438 C 0.0234375 4.011719 2.464844 4.621094 5.503906 5.253906 L 5.78125 5.3125 Z M 5.871094 4.890625 "/>
<path style=" stroke:none;fill-rule:nonzero;fill:rgb(40%,45.882353%,49.803922%);fill-opacity:1;" d="M 6.335938 5.207031 C 6.261719 5.574219 6.011719 5.832031 5.777344 5.785156 C 5.546875 5.734375 5.316406 5.378906 5.394531 5.011719 C 5.46875 4.644531 5.824219 4.410156 6.054688 4.457031 C 6.285156 4.507812 6.414062 4.84375 6.335938 5.207031 Z M 6.335938 5.207031 "/>
</g>
</svg>
