<?xml version="1.0" encoding="UTF-8"?>
<svg xmlns="http://www.w3.org/2000/svg" xmlns:xlink="http://www.w3.org/1999/xlink" width="15pt" height="15pt" viewBox="0 0 15 15" version="1.1">
<g id="surface1">
<path style=" stroke:none;fill-rule:nonzero;fill:rgb(24.313725%,44.705882%,11.372549%);fill-opacity:1;" d="M 13.511719 11.589844 C 13.511719 11.589844 13.753906 12.082031 14.25 11.835938 C 14.746094 11.589844 14.371094 12.699219 14.371094 12.699219 C 14.371094 12.699219 13.167969 12.75 12.316406 12.707031 C 11.539062 12.667969 12.027344 12.328125 12.519531 12.082031 Z M 13.511719 11.589844 "/>
<path style=" stroke:none;fill-rule:nonzero;fill:rgb(97.647059%,79.215686%,33.333333%);fill-opacity:1;" d="M 11.042969 5.566406 C 10.769531 6 10.414062 6.433594 10.179688 6.496094 C 10 6.539062 9.644531 6.625 9.410156 6.769531 C 9.171875 6.914062 9.207031 7.0625 9.515625 7.214844 C 9.820312 7.367188 10.222656 7.300781 10.433594 7.066406 C 10.644531 6.832031 11.199219 6.460938 11.542969 6.242188 C 11.882812 6.023438 11.25 5.242188 11.042969 5.566406 Z M 11.042969 5.566406 "/>
<path style=" stroke:none;fill-rule:nonzero;fill:rgb(97.647059%,79.215686%,33.333333%);fill-opacity:1;" d="M 10.941406 5.777344 C 11.0625 5.578125 11.339844 5.339844 11.339844 5.339844 L 11.179688 4.3125 L 12.441406 4.359375 C 12.441406 4.359375 12.265625 5.425781 12.210938 5.667969 C 12.160156 5.910156 11.667969 6.222656 11.34375 6.363281 C 11.015625 6.5 10.808594 6 10.941406 5.777344 Z M 13.125 9.921875 C 13.125 9.921875 11.667969 9.378906 11.667969 9.765625 C 11.667969 10.148438 13.019531 10.832031 13.515625 11.667969 C 13.714844 12.003906 14.445312 12.238281 14.296875 11.511719 C 14.011719 10.101562 13.125 9.921875 13.125 9.921875 Z M 13.125 9.921875 "/>
<path style=" stroke:none;fill-rule:nonzero;fill:rgb(97.647059%,79.215686%,33.333333%);fill-opacity:1;" d="M 12.078125 9.769531 C 12.078125 9.769531 12.621094 10.402344 12.96875 10.234375 C 13.316406 10.066406 13.988281 8.664062 14.167969 8.152344 C 14.347656 7.636719 13.960938 6.59375 13.4375 7.273438 C 12.910156 7.953125 12.078125 9.769531 12.078125 9.769531 Z M 12.078125 9.769531 "/>
<path style=" stroke:none;fill-rule:nonzero;fill:rgb(24.313725%,44.705882%,11.372549%);fill-opacity:1;" d="M 14.625 7.34375 L 12.082031 8.332031 L 13.691406 9.199219 Z M 14.625 7.34375 "/>
<path style=" stroke:none;fill-rule:nonzero;fill:rgb(100%,86.27451%,36.470588%);fill-opacity:1;" d="M 11.667969 8.332031 C 11.667969 8.332031 10.832031 9.582031 10.832031 10 C 10.832031 10.417969 11.25 11.667969 11.25 12.917969 C 11.25 14.167969 12.082031 14.167969 12.082031 13.75 C 12.082031 13.332031 12.742188 11.492188 12.082031 10.832031 C 11.667969 10.417969 12.917969 9.167969 12.917969 9.167969 Z M 11.667969 8.332031 "/>
<path style=" stroke:none;fill-rule:nonzero;fill:rgb(46.666667%,69.803922%,33.333333%);fill-opacity:1;" d="M 12.5 6.667969 L 11.40625 8.75 L 12.65625 9.558594 C 12.65625 9.558594 14.972656 7.46875 14.972656 6.632812 C 14.972656 5.46875 13.933594 5.078125 13.933594 5.078125 Z M 12.5 6.667969 "/>
<path style=" stroke:none;fill-rule:nonzero;fill:rgb(100%,86.27451%,36.470588%);fill-opacity:1;" d="M 11.246094 2.105469 L 11.671875 3.007812 L 10.601562 3.4375 L 10.164062 2.699219 Z M 11.246094 2.105469 "/>
<path style=" stroke:none;fill-rule:nonzero;fill:rgb(100%,86.27451%,36.470588%);fill-opacity:1;" d="M 11.449219 2.023438 C 11.375 2.683594 10.8125 2.972656 10.246094 3.191406 C 9.710938 3.402344 9.261719 2.460938 9.191406 1.804688 C 9.117188 1.140625 9.890625 0.636719 10.492188 0.703125 C 11.09375 0.769531 11.523438 1.363281 11.449219 2.023438 Z M 9.375 5.597656 C 8.828125 5.964844 8.203125 6.640625 7.863281 6.691406 C 7.453125 6.757812 7.160156 6.300781 6.785156 6.84375 C 6.546875 7.1875 6.925781 7.550781 7.707031 7.550781 C 8.15625 7.550781 9.414062 6.875 9.894531 6.535156 C 10.417969 6.171875 10.53125 5.757812 10.722656 5.261719 C 10.78125 5.105469 10.9375 5.496094 11.300781 5.675781 C 11.90625 5.980469 12.316406 6.277344 12.550781 6.640625 C 13.671875 6.039062 14.402344 5.390625 14.402344 5.390625 C 13.75 4.660156 13.371094 3.863281 12.707031 3.359375 C 11.65625 2.5625 11.210938 3.046875 10.464844 3.414062 C 9.9375 3.675781 9.6875 4.402344 9.375 5.597656 Z M 9.375 5.597656 "/>
<path style=" stroke:none;fill-rule:nonzero;fill:rgb(46.666667%,69.803922%,33.333333%);fill-opacity:1;" d="M 12.527344 6.746094 C 13.644531 6.144531 14.402344 5.390625 14.402344 5.390625 C 13.75 4.660156 13.371094 3.863281 12.707031 3.359375 C 12.5625 3.246094 12.425781 3.164062 12.300781 3.097656 C 12.351562 3.195312 12.34375 3.292969 12.160156 3.359375 C 11.765625 3.5 11.304688 3.242188 10.820312 3.226562 C 10.734375 3.273438 10.648438 3.320312 10.554688 3.371094 C 10.960938 3.417969 11.421875 3.921875 11.511719 4.425781 C 11.597656 4.9375 11.421875 5.410156 11.207031 5.621094 C 11.238281 5.640625 11.269531 5.660156 11.300781 5.675781 C 11.90625 5.980469 12.292969 6.378906 12.527344 6.746094 Z M 11.21875 13.238281 C 11.21875 13.238281 11.515625 13.75 12.023438 13.457031 C 12.535156 13.160156 12.210938 14.367188 12.210938 14.367188 C 12.210938 14.367188 10.785156 14.847656 9.980469 14.628906 C 9.175781 14.414062 9.6875 14.121094 10.199219 13.828125 Z M 11.21875 13.238281 "/>
<path style=" stroke:none;fill-rule:nonzero;fill:rgb(100%,67.45098%,20%);fill-opacity:1;" d="M 9.386719 0.945312 C 10.152344 0.386719 10.695312 0.429688 11.171875 0.753906 C 11.644531 1.078125 11.71875 1.753906 11.625 2.191406 C 11.535156 2.632812 11.40625 2.621094 11.40625 2.621094 C 11.40625 2.621094 10.820312 2.796875 10.734375 2.25 C 10.707031 2.078125 10.894531 1.96875 10.664062 1.726562 C 10.515625 1.574219 10.222656 1.679688 10.238281 1.914062 C 10.253906 2.152344 10.128906 2.117188 10.128906 2.117188 L 9.726562 1.515625 C 9.726562 1.515625 9.414062 1.519531 9.265625 1.816406 C 9.171875 2 8.71875 1.4375 9.386719 0.945312 Z M 9.386719 0.945312 "/>
<path style=" stroke:none;fill-rule:nonzero;fill:rgb(16.470588%,40.392157%,59.215686%);fill-opacity:1;" d="M 4.203125 11.71875 C 4.203125 11.71875 3.898438 12.179688 3.4375 11.871094 C 2.980469 11.566406 3.207031 12.714844 3.207031 12.714844 C 3.207031 12.714844 4.394531 12.917969 5.246094 12.980469 C 6.023438 13.039062 5.582031 12.640625 5.121094 12.332031 Z M 4.203125 11.71875 "/>
<path style=" stroke:none;fill-rule:nonzero;fill:rgb(25.882353%,53.72549%,75.686275%);fill-opacity:1;" d="M 1.605469 13.042969 C 1.605469 13.042969 1.21875 13.488281 0.773438 13.101562 C 0.328125 12.71875 0.417969 13.964844 0.417969 13.964844 C 0.417969 13.964844 1.726562 14.703125 2.558594 14.644531 C 3.390625 14.582031 2.941406 14.199219 2.496094 13.8125 Z M 1.605469 13.042969 "/>
<path style=" stroke:none;fill-rule:nonzero;fill:rgb(25.882353%,53.72549%,75.686275%);fill-opacity:1;" d="M 3.230469 3.253906 C 4.367188 3.125 4.59375 3.496094 4.765625 3.839844 C 5.175781 4.640625 4.40625 5.230469 4.207031 5.515625 C 4.011719 5.804688 3.015625 6.648438 2.894531 7.117188 C 2.773438 7.585938 2.957031 7.585938 3.273438 7.8125 C 3.589844 8.039062 4.695312 8.585938 4.859375 8.949219 C 5.027344 9.3125 4.972656 9.558594 4.792969 9.84375 C 4.609375 10.132812 4.136719 11.460938 4.164062 11.804688 C 4.164062 11.804688 3.757812 12.152344 3.378906 11.835938 C 3.378906 11.835938 3.410156 10.71875 3.488281 10.296875 C 3.5625 9.875 3.722656 9.542969 3.722656 9.542969 L 2.667969 9.191406 C 2.667969 9.191406 2.878906 9.773438 2.867188 10.046875 C 2.851562 10.316406 2.5 10.839844 2.351562 11.027344 C 2.109375 11.328125 1.613281 12.414062 1.605469 13.042969 C 1.605469 13.042969 1.234375 13.546875 0.773438 13.101562 C 0.773438 13.101562 0.765625 12.070312 0.828125 11.660156 C 0.886719 11.253906 1.355469 10.378906 1.460938 10.179688 C 1.566406 9.984375 1.304688 9.8125 1.183594 9.558594 C 1.0625 9.300781 0.34375 8.324219 0.34375 7.78125 C 0.34375 7.238281 0.617188 6.40625 0.828125 6.105469 C 1.039062 5.804688 1.464844 4.636719 1.566406 4.308594 C 1.761719 3.675781 2.429688 3.347656 3.230469 3.253906 Z M 3.230469 3.253906 "/>
<path style=" stroke:none;fill-rule:nonzero;fill:rgb(100%,86.27451%,36.470588%);fill-opacity:1;" d="M 2.589844 8.984375 C 2.589844 8.984375 1.636719 9.238281 1.199219 9.578125 C 1.308594 9.839844 1.46875 10.160156 1.363281 10.355469 C 1.257812 10.550781 0.886719 11.253906 0.828125 11.660156 C 0.765625 12.066406 0.773438 13.101562 0.773438 13.101562 C 1.234375 13.546875 1.605469 13.042969 1.605469 13.042969 C 1.613281 12.414062 2.109375 11.328125 2.351562 11.027344 C 2.5 10.839844 2.851562 10.316406 2.867188 10.046875 C 2.878906 9.773438 2.699219 9.246094 2.699219 9.246094 Z M 2.589844 8.984375 "/>
<path style=" stroke:none;fill-rule:nonzero;fill:rgb(97.647059%,79.215686%,33.333333%);fill-opacity:1;" d="M 4.859375 8.949219 C 4.757812 8.726562 4.304688 8.433594 3.894531 8.1875 C 3.535156 8.453125 3.207031 9.191406 3.136719 9.347656 L 3.699219 9.582031 C 3.699219 9.582031 3.5625 9.875 3.488281 10.296875 C 3.410156 10.71875 3.378906 11.835938 3.378906 11.835938 C 3.757812 12.152344 4.164062 11.804688 4.164062 11.804688 C 4.136719 11.457031 4.609375 10.128906 4.792969 9.84375 C 4.972656 9.558594 5.027344 9.3125 4.859375 8.949219 Z M 4.859375 8.949219 "/>
<path style=" stroke:none;fill-rule:nonzero;fill:rgb(100%,86.27451%,36.470588%);fill-opacity:1;" d="M 1.417969 4.699219 C 1.355469 5.183594 1.835938 5.3125 2.253906 5.144531 C 2.667969 4.972656 3.007812 4.6875 3.085938 4.246094 C 3.136719 3.957031 2.996094 3.292969 2.566406 3.386719 C 1.988281 3.507812 1.519531 3.953125 1.417969 4.699219 Z M 1.417969 4.699219 "/>
<path style=" stroke:none;fill-rule:nonzero;fill:rgb(97.647059%,79.215686%,33.333333%);fill-opacity:1;" d="M 4.089844 3.269531 C 4.492188 3.320312 4.792969 3.515625 4.921875 3.90625 C 5.050781 4.296875 5.226562 5.453125 5.273438 5.558594 C 5.3125 5.652344 5.390625 5.753906 5.535156 5.691406 C 5.675781 5.625 6.160156 5.535156 6.40625 5.507812 C 6.652344 5.480469 6.652344 5.144531 6.980469 5.027344 C 7.304688 4.910156 7.667969 5.128906 7.683594 5.457031 C 7.695312 5.78125 7.605469 5.925781 7.1875 6.003906 C 6.769531 6.078125 6.511719 6.199219 6.378906 6.261719 C 6.25 6.328125 5.078125 6.679688 4.910156 6.640625 C 4.738281 6.601562 4.207031 5.515625 4.207031 5.515625 L 4.53125 5.078125 C 4.53125 5.078125 4.324219 4.835938 4.441406 4.515625 C 4.648438 3.945312 4.089844 3.269531 4.089844 3.269531 Z M 4.089844 3.269531 "/>
<path style=" stroke:none;fill-rule:nonzero;fill:rgb(100%,86.27451%,36.470588%);fill-opacity:1;" d="M 1.472656 4.636719 C 1.457031 4.988281 1.613281 6.300781 1.628906 6.511719 C 1.640625 6.71875 3.28125 7.449219 3.4375 7.511719 C 3.59375 7.578125 3.894531 7.96875 4.128906 7.980469 C 4.363281 7.996094 5.027344 7.878906 4.804688 7.511719 C 4.582031 7.148438 4.207031 6.925781 3.917969 6.953125 C 3.632812 6.980469 2.863281 6.238281 2.695312 6.171875 C 2.527344 6.105469 2.460938 6.015625 2.527344 5.820312 C 2.589844 5.625 2.839844 4.726562 2.863281 4.441406 C 2.890625 4.152344 1.496094 4.023438 1.472656 4.636719 Z M 1.472656 4.636719 "/>
<path style=" stroke:none;fill-rule:nonzero;fill:rgb(16.470588%,40.392157%,59.215686%);fill-opacity:1;" d="M 3.136719 9.347656 C 3.097656 9.363281 2.667969 9.191406 2.667969 9.191406 L 2.316406 8.292969 L 3.320312 8.878906 C 3.320312 8.878906 3.269531 9.011719 3.214844 9.113281 C 3.164062 9.21875 3.136719 9.347656 3.136719 9.347656 Z M 3.136719 9.347656 "/>
<path style=" stroke:none;fill-rule:nonzero;fill:rgb(100%,86.27451%,36.470588%);fill-opacity:1;" d="M 3.761719 3.214844 C 3.878906 3.230469 4.09375 3.660156 4.113281 3.839844 C 4.152344 4.179688 3.738281 4.324219 3.503906 3.917969 C 3.269531 3.515625 3.164062 3.332031 2.96875 3.292969 C 2.96875 3.292969 3.175781 3.242188 3.371094 3.230469 C 3.566406 3.214844 3.761719 3.214844 3.761719 3.214844 Z M 3.761719 3.214844 "/>
<path style=" stroke:none;fill-rule:nonzero;fill:rgb(100%,86.27451%,36.470588%);fill-opacity:1;" d="M 3.476562 2.417969 L 3.074219 3.292969 L 3.945312 3.839844 L 4.363281 3.058594 Z M 3.476562 2.417969 "/>
<path style=" stroke:none;fill-rule:nonzero;fill:rgb(100%,86.27451%,36.470588%);fill-opacity:1;" d="M 3.273438 2.335938 C 3.347656 2.996094 3.992188 3.476562 4.53125 3.527344 C 5.132812 3.585938 5.453125 2.78125 5.527344 2.101562 C 5.601562 1.4375 4.832031 0.949219 4.230469 1.015625 C 3.628906 1.082031 3.199219 1.675781 3.273438 2.335938 Z M 3.273438 2.335938 "/>
<path style=" stroke:none;fill-rule:nonzero;fill:rgb(100%,67.45098%,20%);fill-opacity:1;" d="M 5.425781 1.257812 C 4.792969 0.730469 4.117188 0.742188 3.640625 1.066406 C 3.167969 1.390625 3.097656 2.066406 3.1875 2.503906 C 3.28125 2.945312 3.347656 2.878906 3.347656 2.878906 C 3.347656 2.878906 3.488281 2.824219 3.527344 2.644531 C 3.566406 2.472656 3.441406 2.324219 3.671875 2.082031 C 3.820312 1.929688 3.910156 2.195312 3.894531 2.433594 C 3.875 2.671875 4.023438 2.539062 4.023438 2.539062 L 4.285156 2.03125 C 4.285156 2.03125 4.542969 2.273438 5.039062 2.109375 C 5.390625 1.992188 5.535156 1.992188 5.507812 2.316406 C 5.78125 1.847656 5.652344 1.449219 5.425781 1.257812 Z M 5.425781 1.257812 "/>
</g>
</svg>
