<?xml version="1.0" encoding="UTF-8"?>
<svg xmlns="http://www.w3.org/2000/svg" xmlns:xlink="http://www.w3.org/1999/xlink" width="15pt" height="15pt" viewBox="0 0 15 15" version="1.1">
<g id="surface1">
<path style=" stroke:none;fill-rule:nonzero;fill:rgb(56.470588%,37.647059%,24.313725%);fill-opacity:1;" d="M 3.03125 12.496094 C 3.058594 12.90625 3.472656 13.023438 3.894531 12.996094 C 4.316406 12.972656 5.445312 13.316406 5.84375 13.320312 C 6.546875 13.320312 6.789062 12.972656 6.8125 12.351562 C 6.875 10.945312 7.5 10.910156 7.5 9.28125 L 7.5 3.75 C 7.5 3.015625 6.675781 2.664062 6.535156 3.292969 C 6.269531 4.511719 6.289062 5.417969 6.265625 5.949219 L 6.050781 5.894531 C 6.050781 5.894531 6.246094 3.78125 6.460938 2.78125 C 6.613281 2.058594 5.328125 1.789062 5.171875 2.515625 C 4.964844 3.476562 4.917969 5.128906 4.902344 5.765625 L 4.636719 5.742188 C 4.636719 5.742188 4.730469 4.171875 5.046875 2.390625 C 5.164062 1.71875 3.878906 1.398438 3.714844 2.125 C 3.507812 3.066406 3.355469 4.917969 3.359375 5.898438 L 3.097656 5.953125 C 3.097656 5.953125 3.269531 3.898438 3.480469 2.855469 C 3.597656 2.289062 2.570312 1.949219 2.339844 2.777344 C 1.671875 5.148438 1.917969 7.234375 1.914062 7.417969 C 1.894531 8.1875 1.714844 9.078125 1.40625 8.851562 C 0.933594 8.507812 0.253906 8.949219 0.835938 9.816406 C 1.492188 10.792969 2.910156 10.6875 2.960938 11.519531 C 2.980469 11.878906 3.03125 12.496094 3.03125 12.496094 "/>
<path style=" stroke:none;fill-rule:nonzero;fill:rgb(68.627451%,49.411765%,34.117647%);fill-opacity:1;" d="M 2.222656 12.929688 C 2.246094 13.339844 2.617188 13.5 3.039062 13.472656 C 3.460938 13.449219 5.378906 13.351562 5.773438 13.328125 C 6.167969 13.304688 6.574219 12.960938 6.546875 12.539062 C 6.523438 12.113281 6.464844 11.511719 6.816406 10.902344 C 7.007812 10.566406 7.355469 9.324219 7.265625 6.953125 C 7.203125 5.382812 7.277344 4.152344 7.324219 3.507812 C 7.359375 2.941406 6.429688 2.714844 6.300781 3.457031 C 6.089844 4.679688 6.035156 5.398438 5.976562 5.980469 L 5.761719 5.925781 C 5.761719 5.925781 5.957031 3.710938 6.152344 2.707031 C 6.28125 2.027344 5.199219 1.84375 5.042969 2.570312 C 4.835938 3.53125 4.628906 5.160156 4.613281 5.796875 L 4.347656 5.773438 C 4.347656 5.773438 4.441406 4.070312 4.761719 2.289062 C 4.867188 1.695312 3.75 1.5 3.589844 2.226562 C 3.382812 3.167969 3.0625 4.949219 3.070312 5.929688 L 2.808594 5.984375 C 2.808594 5.984375 2.796875 4.449219 3.191406 2.886719 C 3.335938 2.328125 2.28125 1.980469 2.046875 2.808594 C 1.816406 3.636719 1.710938 4.894531 1.664062 5.636719 C 1.097656 5.128906 0.5 5.46875 0.519531 5.652344 C 0.6875 7.238281 -0.492188 8.453125 0.699219 10.265625 C 1.34375 11.25 1.753906 11.226562 2.167969 11.953125 C 2.386719 12.332031 2.222656 12.929688 2.222656 12.929688 "/>
<path style=" stroke:none;fill-rule:nonzero;fill:rgb(56.470588%,37.647059%,24.313725%);fill-opacity:1;" d="M 1.796875 8.210938 C 2.097656 8.292969 2.40625 8.410156 2.671875 8.597656 C 3.140625 8.929688 3.421875 9.296875 3.492188 9.417969 C 3.5625 9.542969 3.820312 9.488281 3.710938 9.277344 C 3.601562 9.070312 3.25 8.679688 2.835938 8.398438 C 2.546875 8.199219 2.128906 8.03125 1.753906 7.933594 C 1.6875 7.914062 2.175781 6.210938 1.664062 5.636719 C 1.859375 5.988281 1.519531 7.53125 1.519531 7.785156 C 1.519531 8.042969 1.640625 8.167969 1.796875 8.210938 Z M 11.96875 12.496094 C 11.941406 12.90625 11.527344 13.023438 11.105469 12.996094 C 10.683594 12.972656 9.554688 13.316406 9.15625 13.320312 C 8.453125 13.320312 8.210938 12.972656 8.1875 12.351562 C 8.125 10.945312 7.5 10.910156 7.5 9.28125 L 7.5 3.75 C 7.5 3.015625 8.324219 2.664062 8.464844 3.292969 C 8.730469 4.511719 8.710938 5.417969 8.734375 5.949219 L 8.949219 5.894531 C 8.949219 5.894531 8.753906 3.78125 8.539062 2.78125 C 8.386719 2.058594 9.671875 1.789062 9.828125 2.515625 C 10.035156 3.476562 10.082031 5.128906 10.097656 5.765625 L 10.363281 5.742188 C 10.363281 5.742188 10.269531 4.171875 9.953125 2.390625 C 9.835938 1.71875 11.121094 1.398438 11.285156 2.125 C 11.492188 3.066406 11.644531 4.917969 11.640625 5.898438 L 11.902344 5.953125 C 11.902344 5.953125 11.726562 3.875 11.519531 2.855469 C 11.402344 2.292969 12.429688 1.949219 12.660156 2.777344 C 13.328125 5.148438 13.082031 7.234375 13.085938 7.417969 C 13.105469 8.1875 13.285156 9.078125 13.59375 8.851562 C 14.066406 8.507812 14.746094 8.949219 14.164062 9.816406 C 13.507812 10.792969 12.089844 10.6875 12.039062 11.519531 C 12.019531 11.878906 11.96875 12.496094 11.96875 12.496094 "/>
<path style=" stroke:none;fill-rule:nonzero;fill:rgb(68.627451%,49.411765%,34.117647%);fill-opacity:1;" d="M 12.777344 12.929688 C 12.753906 13.339844 12.382812 13.5 11.960938 13.472656 C 11.539062 13.449219 9.621094 13.351562 9.226562 13.328125 C 8.832031 13.304688 8.425781 12.960938 8.453125 12.539062 C 8.476562 12.113281 8.535156 11.511719 8.183594 10.902344 C 7.992188 10.566406 7.644531 9.324219 7.734375 6.953125 C 7.796875 5.382812 7.722656 4.152344 7.675781 3.507812 C 7.640625 2.941406 8.570312 2.714844 8.699219 3.457031 C 8.910156 4.679688 8.964844 5.398438 9.023438 5.980469 L 9.238281 5.925781 C 9.238281 5.925781 9.042969 3.710938 8.847656 2.707031 C 8.71875 2.027344 9.800781 1.84375 9.957031 2.570312 C 10.164062 3.53125 10.371094 5.160156 10.386719 5.796875 L 10.652344 5.773438 C 10.652344 5.773438 10.558594 4.070312 10.238281 2.289062 C 10.132812 1.695312 11.25 1.5 11.410156 2.226562 C 11.617188 3.167969 11.9375 4.949219 11.929688 5.929688 L 12.191406 5.984375 C 12.191406 5.984375 12.203125 4.449219 11.808594 2.886719 C 11.664062 2.328125 12.71875 1.980469 12.953125 2.8125 C 13.183594 3.636719 13.289062 4.894531 13.335938 5.636719 C 13.902344 5.132812 14.5 5.46875 14.480469 5.652344 C 14.3125 7.242188 15.492188 8.457031 14.300781 10.265625 C 13.65625 11.253906 13.246094 11.226562 12.832031 11.953125 C 12.613281 12.332031 12.777344 12.929688 12.777344 12.929688 "/>
<path style=" stroke:none;fill-rule:nonzero;fill:rgb(56.470588%,37.647059%,24.313725%);fill-opacity:1;" d="M 13.203125 8.210938 C 12.902344 8.292969 12.59375 8.410156 12.328125 8.597656 C 11.859375 8.929688 11.578125 9.296875 11.507812 9.417969 C 11.4375 9.542969 11.179688 9.488281 11.289062 9.277344 C 11.398438 9.070312 11.75 8.679688 12.164062 8.398438 C 12.453125 8.199219 12.871094 8.03125 13.246094 7.933594 C 13.3125 7.914062 12.824219 6.210938 13.335938 5.636719 C 13.140625 5.988281 13.480469 7.53125 13.480469 7.785156 C 13.480469 8.042969 13.359375 8.167969 13.203125 8.210938 Z M 13.203125 8.210938 "/>
</g>
</svg>
