<?xml version="1.0" encoding="UTF-8"?>
<svg xmlns="http://www.w3.org/2000/svg" xmlns:xlink="http://www.w3.org/1999/xlink" width="15pt" height="15pt" viewBox="0 0 15 15" version="1.1">
<g id="surface1">
<path style=" stroke:none;fill-rule:nonzero;fill:rgb(57.254902%,40%,80%);fill-opacity:1;" d="M 12.5 15 L 12.5 13.332031 C 12.484375 11.867188 11.660156 11.25 10.417969 11.25 L 4.167969 11.25 C 2.921875 11.25 2.5 12.078125 2.5 13.332031 L 2.5 15 Z M 12.5 15 "/>
<path style=" stroke:none;fill-rule:nonzero;fill:rgb(58.823529%,23.137255%,13.333333%);fill-opacity:1;" d="M 7.273438 2.726562 C 8.832031 2.726562 11.429688 3.507812 11.429688 6.882812 C 11.429688 10.261719 11.429688 11.039062 10.648438 11.039062 C 9.871094 11.039062 8.832031 10.261719 7.273438 10.261719 C 5.714844 10.261719 4.695312 11.039062 3.894531 11.039062 C 3.027344 11.039062 3.117188 7.921875 3.117188 6.882812 C 3.117188 3.507812 5.714844 2.726562 7.273438 2.726562 "/>
<path style=" stroke:none;fill-rule:nonzero;fill:rgb(57.254902%,40%,80%);fill-opacity:1;" d="M 10.832031 10.902344 L 10.839844 11.25 L 2.5 11.25 L 2.5 15 L 12.5 15 L 12.5 10.902344 Z M 10.832031 10.902344 "/>
<path style=" stroke:none;fill-rule:nonzero;fill:rgb(83.529412%,67.058824%,53.333333%);fill-opacity:1;" d="M 5.832031 11.25 C 5.832031 11.25 6.1875 12.109375 7.3125 12.109375 C 8.4375 12.109375 8.75 11.25 8.75 11.25 L 8.738281 9.625 L 5.832031 9.582031 Z M 5.832031 11.25 "/>
<path style=" stroke:none;fill-rule:nonzero;fill:rgb(80%,60.784314%,47.843137%);fill-opacity:1;" d="M 5.839844 10.285156 C 6.28125 10.789062 6.695312 10.914062 7.289062 10.914062 C 7.882812 10.914062 8.300781 10.789062 8.742188 10.285156 L 8.742188 9.246094 L 5.839844 9.246094 Z M 5.839844 10.285156 "/>
<path style=" stroke:none;fill-rule:nonzero;fill:rgb(83.529412%,67.058824%,53.333333%);fill-opacity:1;" d="M 4.15625 6.769531 C 4.15625 4.554688 5.550781 2.761719 7.273438 2.761719 C 8.992188 2.761719 10.390625 4.554688 10.390625 6.769531 C 10.390625 8.984375 8.992188 10.675781 7.273438 10.675781 C 5.550781 10.675781 4.15625 8.984375 4.15625 6.769531 "/>
<path style=" stroke:none;fill-rule:nonzero;fill:rgb(87.45098%,12.156863%,19.607843%);fill-opacity:1;" d="M 7.273438 9.742188 C 6.664062 9.742188 6.34375 9.441406 6.308594 9.40625 C 6.207031 9.304688 6.207031 9.136719 6.308594 9.035156 C 6.410156 8.9375 6.574219 8.9375 6.675781 9.035156 C 6.6875 9.046875 6.882812 9.222656 7.273438 9.222656 C 7.667969 9.222656 7.863281 9.042969 7.871094 9.035156 C 7.976562 8.9375 8.136719 8.941406 8.234375 9.042969 C 8.335938 9.144531 8.335938 9.304688 8.234375 9.40625 C 8.203125 9.441406 7.882812 9.742188 7.273438 9.742188 "/>
<path style=" stroke:none;fill-rule:nonzero;fill:rgb(58.823529%,23.137255%,13.333333%);fill-opacity:1;" d="M 3.390625 8.015625 C 3.382812 7.636719 3.375 7.929688 3.375 7.839844 C 3.375 6.539062 4.15625 8.027344 4.15625 7.101562 C 4.15625 6.175781 4.675781 6.082031 5.195312 5.5625 C 5.453125 5.304688 5.972656 4.792969 5.972656 4.792969 C 5.972656 4.792969 7.273438 5.578125 8.3125 5.578125 C 9.351562 5.578125 10.390625 6.101562 10.390625 7.140625 C 10.390625 8.179688 11.167969 6.539062 11.167969 7.839844 C 11.167969 7.929688 11.160156 7.636719 11.152344 8.015625 L 11.425781 8.015625 C 11.429688 7.257812 11.429688 7.285156 11.429688 6.800781 C 11.429688 3.421875 8.832031 2.167969 7.273438 2.167969 C 5.714844 2.167969 3.117188 3.402344 3.117188 6.78125 C 3.117188 7.082031 3.109375 7.257812 3.121094 8.015625 Z M 3.390625 8.015625 "/>
<path style=" stroke:none;fill-rule:nonzero;fill:rgb(40%,12.941176%,7.45098%);fill-opacity:1;" d="M 6.003906 7.59375 C 5.828125 7.59375 5.683594 7.449219 5.683594 7.273438 L 5.683594 6.953125 C 5.683594 6.773438 5.828125 6.628906 6.003906 6.628906 C 6.183594 6.628906 6.328125 6.773438 6.328125 6.953125 L 6.328125 7.273438 C 6.328125 7.449219 6.183594 7.59375 6.003906 7.59375 M 8.574219 7.59375 C 8.398438 7.59375 8.253906 7.449219 8.253906 7.273438 L 8.253906 6.953125 C 8.253906 6.773438 8.398438 6.628906 8.574219 6.628906 C 8.75 6.628906 8.894531 6.773438 8.894531 6.953125 L 8.894531 7.273438 C 8.894531 7.449219 8.75 7.59375 8.574219 7.59375 "/>
<path style=" stroke:none;fill-rule:nonzero;fill:rgb(75.686275%,41.176471%,30.980392%);fill-opacity:1;" d="M 7.609375 8.585938 L 6.96875 8.585938 C 6.878906 8.585938 6.808594 8.511719 6.808594 8.425781 L 6.808594 8.367188 C 6.808594 8.277344 6.878906 8.203125 6.96875 8.203125 L 7.609375 8.203125 C 7.699219 8.203125 7.773438 8.277344 7.773438 8.367188 L 7.773438 8.425781 C 7.769531 8.515625 7.699219 8.585938 7.609375 8.585938 "/>
<path style=" stroke:none;fill-rule:nonzero;fill:rgb(81.960784%,82.745098%,83.137255%);fill-opacity:1;" d="M 2.457031 5.917969 C 2.457031 5.917969 0.859375 6.496094 0.699219 8.511719 C 0.699219 8.511719 -0.300781 6.503906 0.484375 4.28125 Z M 8.355469 2.492188 C 8.355469 2.492188 7.207031 1.238281 5.285156 1.867188 C 5.285156 1.867188 6.753906 0.171875 9.105469 0.0390625 Z M 12.195312 6.808594 C 12.195312 6.808594 13.019531 5.320312 11.8125 3.699219 C 11.8125 3.699219 13.886719 4.550781 14.757812 6.738281 Z M 12.195312 6.808594 "/>
<path style=" stroke:none;fill-rule:nonzero;fill:rgb(36.078431%,56.862745%,23.137255%);fill-opacity:1;" d="M 3.375 4.578125 C 3.375 5.382812 2.722656 6.035156 1.917969 6.035156 C 1.113281 6.035156 0.460938 5.382812 0.460938 4.578125 C 0.460938 3.773438 1.113281 3.121094 1.917969 3.121094 C 2.722656 3.121094 3.375 3.773438 3.375 4.578125 Z M 3.375 4.578125 "/>
<path style=" stroke:none;fill-rule:nonzero;fill:rgb(74.509804%,9.803922%,19.215686%);fill-opacity:1;" d="M 10.839844 1.457031 C 10.839844 2.265625 10.1875 2.917969 9.382812 2.917969 C 8.578125 2.917969 7.921875 2.265625 7.921875 1.457031 C 7.921875 0.652344 8.578125 0 9.382812 0 C 10.1875 0 10.839844 0.652344 10.839844 1.457031 Z M 10.839844 1.457031 "/>
<path style=" stroke:none;fill-rule:nonzero;fill:rgb(23.137255%,53.333333%,76.470588%);fill-opacity:1;" d="M 14.957031 7.4375 C 14.957031 8.246094 14.304688 8.898438 13.5 8.898438 C 12.691406 8.898438 12.039062 8.246094 12.039062 7.4375 C 12.039062 6.632812 12.691406 5.980469 13.5 5.980469 C 14.304688 5.980469 14.957031 6.632812 14.957031 7.4375 Z M 14.957031 7.4375 "/>
<path style=" stroke:none;fill-rule:nonzero;fill:rgb(80%,60.784314%,47.843137%);fill-opacity:1;" d="M 13.601562 9.785156 C 13.554688 9.5625 13.339844 9.417969 13.117188 9.464844 L 12.257812 9.644531 L 11.503906 9.644531 C 11.152344 9.644531 10.863281 9.933594 10.863281 10.292969 L 10.863281 10.9375 L 12.464844 10.9375 C 12.8125 10.9375 13.09375 10.660156 13.105469 10.316406 L 13.21875 10.292969 L 13.429688 10.292969 C 13.429688 10.265625 13.417969 10.246094 13.414062 10.222656 C 13.554688 10.132812 13.636719 9.960938 13.601562 9.785156 Z M 13.601562 9.785156 "/>
<path style=" stroke:none;fill-rule:nonzero;fill:rgb(83.529412%,67.058824%,53.333333%);fill-opacity:1;" d="M 15.03125 9.96875 C 15.03125 9.789062 14.886719 9.644531 14.710938 9.644531 L 12.785156 9.96875 L 11.183594 9.96875 C 11.007812 9.96875 10.863281 10.113281 10.863281 10.292969 L 10.832031 10.9375 L 12.785156 10.9375 L 14.710938 10.292969 C 14.710938 10.292969 15.03125 10.144531 15.03125 9.96875 Z M 15.03125 9.96875 "/>
<path style=" stroke:none;fill-rule:nonzero;fill:rgb(80%,60.784314%,47.843137%);fill-opacity:1;" d="M 1.429688 11.347656 C 1.476562 11.125 1.691406 10.980469 1.914062 11.027344 L 2.773438 11.207031 L 3.527344 11.207031 C 3.878906 11.207031 4.167969 11.496094 4.167969 11.851562 L 4.167969 12.5 L 2.566406 12.5 C 2.21875 12.5 1.9375 12.222656 1.925781 11.875 L 1.8125 11.851562 L 1.601562 11.851562 C 1.601562 11.828125 1.613281 11.804688 1.617188 11.78125 C 1.476562 11.691406 1.394531 11.523438 1.429688 11.347656 Z M 1.429688 11.347656 "/>
<path style=" stroke:none;fill-rule:nonzero;fill:rgb(83.529412%,67.058824%,53.333333%);fill-opacity:1;" d="M 0 11.527344 C 0 11.351562 0.144531 11.207031 0.320312 11.207031 L 2.246094 11.527344 L 3.847656 11.527344 C 4.023438 11.527344 4.167969 11.675781 4.167969 11.851562 L 4.167969 12.5 L 2.246094 12.5 L 0.320312 11.851562 C 0.320312 11.851562 0 11.707031 0 11.527344 Z M 0 11.527344 "/>
<path style=" stroke:none;fill-rule:nonzero;fill:rgb(45.490196%,30.588235%,66.666667%);fill-opacity:1;" d="M 4.167969 12.5 L 4.582031 12.5 L 4.582031 15 L 4.167969 15 Z M 10.417969 11.25 L 10.832031 11.25 L 10.832031 15 L 10.417969 15 Z M 10.417969 11.25 "/>
</g>
</svg>
