<?xml version="1.0" encoding="UTF-8"?>
<svg xmlns="http://www.w3.org/2000/svg" xmlns:xlink="http://www.w3.org/1999/xlink" width="15pt" height="15pt" viewBox="0 0 15 15" version="1.1">
<g id="surface1">
<path style=" stroke:none;fill-rule:nonzero;fill:rgb(33.333333%,21.568627%,53.333333%);fill-opacity:1;" d="M 13.511719 11.589844 C 13.511719 11.589844 13.753906 12.082031 14.25 11.835938 C 14.746094 11.589844 14.371094 12.699219 14.371094 12.699219 C 14.371094 12.699219 13.167969 12.75 12.316406 12.707031 C 11.539062 12.667969 12.027344 12.328125 12.519531 12.082031 Z M 13.511719 11.589844 "/>
<path style=" stroke:none;fill-rule:nonzero;fill:rgb(97.647059%,79.215686%,33.333333%);fill-opacity:1;" d="M 11.042969 5.566406 C 10.769531 6 10.414062 6.433594 10.179688 6.496094 C 10 6.539062 9.644531 6.625 9.410156 6.769531 C 9.171875 6.914062 9.207031 7.0625 9.515625 7.214844 C 9.820312 7.367188 10.222656 7.300781 10.433594 7.066406 C 10.644531 6.832031 11.199219 6.460938 11.542969 6.242188 C 11.882812 6.023438 11.25 5.242188 11.042969 5.566406 Z M 11.042969 5.566406 "/>
<path style=" stroke:none;fill-rule:nonzero;fill:rgb(97.647059%,79.215686%,33.333333%);fill-opacity:1;" d="M 10.941406 5.777344 C 11.0625 5.578125 11.339844 5.339844 11.339844 5.339844 L 11.179688 4.3125 L 12.441406 4.359375 C 12.441406 4.359375 12.265625 5.425781 12.210938 5.667969 C 12.160156 5.910156 11.667969 6.222656 11.34375 6.363281 C 11.015625 6.5 10.808594 6 10.941406 5.777344 Z M 13.125 9.921875 C 13.125 9.921875 11.667969 9.378906 11.667969 9.765625 C 11.667969 10.148438 13.019531 10.832031 13.515625 11.667969 C 13.714844 12.003906 14.445312 12.238281 14.296875 11.511719 C 14.011719 10.101562 13.125 9.921875 13.125 9.921875 Z M 13.125 9.921875 "/>
<path style=" stroke:none;fill-rule:nonzero;fill:rgb(97.647059%,79.215686%,33.333333%);fill-opacity:1;" d="M 12.078125 9.769531 C 12.078125 9.769531 12.621094 10.402344 12.96875 10.234375 C 13.316406 10.066406 13.988281 8.664062 14.167969 8.152344 C 14.347656 7.636719 13.960938 6.59375 13.4375 7.273438 C 12.910156 7.953125 12.078125 9.769531 12.078125 9.769531 Z M 12.078125 9.769531 "/>
<path style=" stroke:none;fill-rule:nonzero;fill:rgb(33.333333%,21.568627%,53.333333%);fill-opacity:1;" d="M 14.625 7.34375 L 12.082031 8.332031 L 13.691406 9.199219 Z M 14.625 7.34375 "/>
<path style=" stroke:none;fill-rule:nonzero;fill:rgb(100%,86.27451%,36.470588%);fill-opacity:1;" d="M 11.667969 8.332031 C 11.667969 8.332031 10.832031 9.582031 10.832031 10 C 10.832031 10.417969 11.25 11.667969 11.25 12.917969 C 11.25 14.167969 12.082031 14.167969 12.082031 13.75 C 12.082031 13.332031 12.742188 11.492188 12.082031 10.832031 C 11.667969 10.417969 12.917969 9.167969 12.917969 9.167969 Z M 11.667969 8.332031 "/>
<path style=" stroke:none;fill-rule:nonzero;fill:rgb(57.254902%,40%,80%);fill-opacity:1;" d="M 12.5 6.667969 L 11.40625 8.75 L 12.65625 9.558594 C 12.65625 9.558594 14.972656 7.46875 14.972656 6.632812 C 14.972656 5.46875 13.933594 5.078125 13.933594 5.078125 Z M 12.5 6.667969 "/>
<path style=" stroke:none;fill-rule:nonzero;fill:rgb(100%,86.27451%,36.470588%);fill-opacity:1;" d="M 11.246094 2.105469 L 11.671875 3.007812 L 10.601562 3.4375 L 10.164062 2.699219 Z M 11.246094 2.105469 "/>
<path style=" stroke:none;fill-rule:nonzero;fill:rgb(100%,86.27451%,36.470588%);fill-opacity:1;" d="M 11.449219 2.023438 C 11.375 2.683594 10.8125 2.972656 10.246094 3.191406 C 9.710938 3.402344 9.261719 2.460938 9.191406 1.804688 C 9.117188 1.140625 9.890625 0.636719 10.492188 0.703125 C 11.09375 0.769531 11.523438 1.363281 11.449219 2.023438 Z M 9.375 5.597656 C 8.828125 5.964844 8.203125 6.640625 7.863281 6.691406 C 7.453125 6.757812 7.160156 6.300781 6.785156 6.84375 C 6.546875 7.1875 6.925781 7.550781 7.707031 7.550781 C 8.15625 7.550781 9.414062 6.875 9.894531 6.535156 C 10.417969 6.171875 10.53125 5.757812 10.722656 5.261719 C 10.742188 5.203125 10.765625 5.230469 10.804688 5.296875 L 12.707031 3.359375 C 11.65625 2.5625 11.210938 3.046875 10.464844 3.414062 C 9.9375 3.675781 9.6875 4.402344 9.375 5.597656 Z M 9.375 5.597656 "/>
<path style=" stroke:none;fill-rule:nonzero;fill:rgb(57.254902%,40%,80%);fill-opacity:1;" d="M 12.5 6.667969 C 13.835938 6.128906 14.402344 5.390625 14.402344 5.390625 C 13.75 4.660156 13.371094 3.863281 12.707031 3.359375 C 12.5625 3.246094 12.425781 3.164062 12.300781 3.097656 C 12.351562 3.195312 12.34375 3.292969 12.160156 3.359375 C 11.765625 3.5 11.304688 3.242188 10.820312 3.226562 C 10.734375 3.273438 10.648438 3.320312 10.554688 3.371094 C 10.960938 3.417969 11.328125 3.777344 11.347656 4.289062 C 11.367188 4.851562 10.773438 5.261719 10.773438 5.261719 C 10.773438 5.261719 10.882812 5.484375 11.128906 5.695312 C 11.375 5.90625 11.960938 6.046875 12.5 6.667969 Z M 11.21875 13.238281 C 11.21875 13.238281 11.515625 13.75 12.023438 13.457031 C 12.535156 13.160156 12.210938 14.367188 12.210938 14.367188 C 12.210938 14.367188 10.785156 14.847656 9.980469 14.628906 C 9.175781 14.414062 9.6875 14.121094 10.199219 13.828125 Z M 11.21875 13.238281 "/>
<path style=" stroke:none;fill-rule:nonzero;fill:rgb(100%,67.45098%,20%);fill-opacity:1;" d="M 11.171875 0.753906 C 10.964844 0.613281 10.746094 0.53125 10.503906 0.523438 C 10.183594 0.511719 9.832031 0.644531 9.386719 0.945312 C 8.976562 1.222656 9.023438 1.75 9.164062 1.835938 C 9.179688 1.839844 9.191406 1.847656 9.207031 1.847656 C 9.214844 1.847656 9.222656 1.847656 9.230469 1.847656 C 9.433594 1.839844 9.578125 1.660156 9.804688 1.632812 C 9.910156 1.621094 10.035156 1.640625 10.195312 1.734375 C 10.21875 1.746094 10.238281 1.773438 10.257812 1.800781 C 10.351562 1.949219 10.382812 2.234375 10.382812 2.234375 C 10.382812 2.234375 10.394531 1.90625 10.40625 1.792969 C 10.417969 1.6875 10.527344 1.566406 10.664062 1.726562 C 10.789062 1.867188 10.71875 2.136719 10.628906 2.164062 C 10.5625 2.183594 10.667969 2.351562 10.832031 2.480469 C 11.132812 2.714844 11.40625 2.621094 11.40625 2.621094 C 11.40625 2.621094 11.535156 2.632812 11.625 2.191406 C 11.71875 1.753906 11.644531 1.078125 11.171875 0.753906 Z M 11.171875 0.753906 "/>
<path style=" stroke:none;fill-rule:nonzero;fill:rgb(100%,67.45098%,20%);fill-opacity:1;" d="M 11.515625 1.875 C 11.515625 1.875 11.242188 1.511719 11.777344 1.1875 C 12.21875 0.921875 12.59375 1.363281 13.015625 1.378906 C 13.335938 1.390625 13.625 1.25 13.757812 1.015625 C 13.757812 1.015625 13.648438 1.484375 13.402344 1.765625 C 13.082031 2.132812 12.53125 2.273438 12.234375 2.265625 C 11.765625 2.25 11.515625 1.875 11.515625 1.875 Z M 11.515625 1.875 "/>
<path style=" stroke:none;fill-rule:nonzero;fill:rgb(62.745098%,1.568627%,11.764706%);fill-opacity:1;" d="M 4.203125 11.71875 C 4.203125 11.71875 3.898438 12.179688 3.4375 11.871094 C 2.980469 11.566406 3.207031 12.714844 3.207031 12.714844 C 3.207031 12.714844 4.394531 12.917969 5.246094 12.980469 C 6.023438 13.039062 5.582031 12.640625 5.121094 12.332031 Z M 4.203125 11.71875 "/>
<path style=" stroke:none;fill-rule:nonzero;fill:rgb(86.666667%,18.039216%,26.666667%);fill-opacity:1;" d="M 1.605469 13.042969 C 1.605469 13.042969 1.21875 13.488281 0.773438 13.101562 C 0.328125 12.71875 0.417969 13.964844 0.417969 13.964844 C 0.417969 13.964844 1.726562 14.703125 2.558594 14.644531 C 3.390625 14.582031 2.941406 14.199219 2.496094 13.8125 Z M 3.230469 3.253906 C 4.367188 3.125 4.765625 3.839844 4.765625 3.839844 C 5.234375 5.363281 4.207031 5.515625 4.207031 5.515625 C 4.011719 5.804688 3.015625 6.648438 2.894531 7.117188 C 2.773438 7.585938 2.957031 7.585938 3.273438 7.8125 C 3.398438 7.898438 3.640625 8.039062 3.902344 8.195312 L 3.210938 9.363281 L 2.667969 9.191406 L 1.199219 9.582031 C 1.078125 9.324219 0.34375 8.324219 0.34375 7.78125 C 0.34375 7.238281 0.617188 6.40625 0.828125 6.105469 C 1.039062 5.804688 1.464844 4.636719 1.566406 4.308594 C 1.761719 3.675781 2.429688 3.347656 3.230469 3.253906 Z M 3.230469 3.253906 "/>
<path style=" stroke:none;fill-rule:nonzero;fill:rgb(100%,86.27451%,36.470588%);fill-opacity:1;" d="M 2.589844 8.984375 C 2.589844 8.984375 1.636719 9.238281 1.199219 9.578125 C 1.308594 9.839844 1.46875 10.160156 1.363281 10.355469 C 1.257812 10.550781 0.886719 11.253906 0.828125 11.660156 C 0.765625 12.066406 0.773438 13.101562 0.773438 13.101562 C 1.234375 13.546875 1.605469 13.042969 1.605469 13.042969 C 1.613281 12.414062 2.109375 11.328125 2.351562 11.027344 C 2.5 10.839844 2.851562 10.316406 2.867188 10.046875 C 2.878906 9.773438 2.699219 9.246094 2.699219 9.246094 Z M 2.589844 8.984375 "/>
<path style=" stroke:none;fill-rule:nonzero;fill:rgb(97.647059%,79.215686%,33.333333%);fill-opacity:1;" d="M 4.859375 8.949219 C 4.757812 8.726562 4.304688 8.433594 3.894531 8.1875 C 3.535156 8.453125 3.207031 9.191406 3.136719 9.347656 L 3.699219 9.582031 C 3.699219 9.582031 3.5625 9.875 3.488281 10.296875 C 3.410156 10.71875 3.378906 11.835938 3.378906 11.835938 C 3.855469 12.21875 4.167969 11.769531 4.167969 11.769531 C 4.136719 11.421875 4.609375 10.128906 4.792969 9.84375 C 4.972656 9.558594 5.027344 9.3125 4.859375 8.949219 Z M 4.859375 8.949219 "/>
<path style=" stroke:none;fill-rule:nonzero;fill:rgb(100%,86.27451%,36.470588%);fill-opacity:1;" d="M 1.417969 4.699219 C 1.355469 5.183594 1.835938 5.3125 2.253906 5.144531 C 2.667969 4.972656 3.007812 4.6875 3.085938 4.246094 C 3.136719 3.957031 2.996094 3.292969 2.566406 3.386719 C 1.988281 3.507812 1.519531 3.953125 1.417969 4.699219 Z M 1.417969 4.699219 "/>
<path style=" stroke:none;fill-rule:nonzero;fill:rgb(97.647059%,79.215686%,33.333333%);fill-opacity:1;" d="M 3.992188 3.3125 C 4.394531 3.367188 4.792969 3.515625 4.921875 3.90625 C 5.050781 4.296875 5.226562 5.453125 5.273438 5.558594 C 5.3125 5.652344 5.390625 5.753906 5.535156 5.691406 C 5.675781 5.625 6.160156 5.535156 6.40625 5.507812 C 6.652344 5.480469 6.652344 5.144531 6.980469 5.027344 C 7.304688 4.910156 7.667969 5.128906 7.683594 5.457031 C 7.695312 5.78125 7.605469 5.925781 7.1875 6.003906 C 6.769531 6.078125 6.511719 6.199219 6.378906 6.261719 C 6.25 6.328125 5.078125 6.679688 4.910156 6.640625 C 4.738281 6.601562 4.207031 5.515625 4.207031 5.515625 C 4.207031 5.515625 4.59375 5.292969 4.640625 4.882812 C 4.804688 3.542969 3.992188 3.3125 3.992188 3.3125 Z M 3.992188 3.3125 "/>
<path style=" stroke:none;fill-rule:nonzero;fill:rgb(100%,86.27451%,36.470588%);fill-opacity:1;" d="M 1.472656 4.636719 C 1.457031 4.988281 1.613281 6.300781 1.628906 6.511719 C 1.640625 6.71875 3.28125 7.449219 3.4375 7.511719 C 3.59375 7.578125 3.894531 7.96875 4.128906 7.980469 C 4.363281 7.996094 5.027344 7.878906 4.804688 7.511719 C 4.582031 7.148438 4.207031 6.925781 3.917969 6.953125 C 3.632812 6.980469 2.863281 6.238281 2.695312 6.171875 C 2.527344 6.105469 2.460938 6.015625 2.527344 5.820312 C 2.589844 5.625 2.839844 4.726562 2.863281 4.441406 C 2.890625 4.152344 1.496094 4.023438 1.472656 4.636719 Z M 1.472656 4.636719 "/>
<path style=" stroke:none;fill-rule:nonzero;fill:rgb(62.745098%,1.568627%,11.764706%);fill-opacity:1;" d="M 3.136719 9.347656 C 3.097656 9.363281 2.667969 9.191406 2.667969 9.191406 L 2.316406 8.292969 L 3.359375 8.894531 C 3.359375 8.894531 3.292969 9.003906 3.242188 9.109375 C 3.191406 9.210938 3.136719 9.347656 3.136719 9.347656 Z M 3.136719 9.347656 "/>
<path style=" stroke:none;fill-rule:nonzero;fill:rgb(100%,86.27451%,36.470588%);fill-opacity:1;" d="M 3.761719 3.214844 C 3.878906 3.230469 4.09375 3.660156 4.113281 3.839844 C 4.152344 4.179688 3.738281 4.324219 3.503906 3.917969 C 3.269531 3.515625 3.164062 3.332031 2.96875 3.292969 C 2.96875 3.292969 3.175781 3.242188 3.371094 3.230469 C 3.566406 3.214844 3.761719 3.214844 3.761719 3.214844 Z M 3.761719 3.214844 "/>
<path style=" stroke:none;fill-rule:nonzero;fill:rgb(100%,86.27451%,36.470588%);fill-opacity:1;" d="M 3.578125 2.585938 L 3.210938 3.28125 L 3.945312 3.839844 L 4.363281 3.058594 Z M 3.578125 2.585938 "/>
<path style=" stroke:none;fill-rule:nonzero;fill:rgb(100%,86.27451%,36.470588%);fill-opacity:1;" d="M 4.554688 1.28125 C 4.023438 1.21875 3.535156 1.65625 3.464844 2.261719 C 3.390625 2.863281 3.757812 3.40625 4.289062 3.472656 C 4.816406 3.535156 5.304688 3.097656 5.378906 2.492188 C 5.453125 1.886719 5.082031 1.34375 4.554688 1.28125 Z M 4.554688 1.28125 "/>
<path style=" stroke:none;fill-rule:nonzero;fill:rgb(100%,67.45098%,20%);fill-opacity:1;" d="M 3 1.113281 C 2.566406 1.023438 2.394531 1.488281 2.058594 1.621094 C 1.804688 1.71875 1.53125 1.691406 1.355469 1.539062 C 1.355469 1.539062 1.578125 1.886719 1.855469 2.042969 C 2.21875 2.246094 2.703125 2.203125 2.941406 2.109375 C 3.3125 1.964844 3.40625 1.589844 3.40625 1.589844 C 3.40625 1.589844 3.523438 1.222656 3 1.113281 Z M 3 1.113281 "/>
<path style=" stroke:none;fill-rule:nonzero;fill:rgb(100%,67.45098%,20%);fill-opacity:1;" d="M 5.199219 1.058594 C 4.964844 0.851562 4.328125 0.707031 3.863281 0.886719 C 3.339844 1.085938 3.160156 1.550781 3.183594 2.054688 C 3.195312 2.351562 3.359375 2.78125 3.464844 2.8125 C 3.625 2.859375 3.769531 2.589844 3.703125 2.574219 C 3.578125 2.546875 3.546875 2.148438 3.667969 2.058594 C 3.792969 1.960938 3.886719 2.082031 3.902344 2.195312 C 3.914062 2.308594 3.949219 2.628906 3.949219 2.628906 C 3.949219 2.628906 3.980469 2.234375 4.105469 2.121094 C 4.226562 2.011719 4.746094 2.101562 5.027344 1.597656 C 5.027344 1.597656 5.191406 1.683594 5.304688 1.902344 C 5.394531 2.085938 5.378906 2.492188 5.378906 2.492188 C 5.378906 2.492188 5.511719 2.257812 5.613281 2.027344 C 5.726562 1.761719 5.496094 1.324219 5.199219 1.058594 Z M 5.199219 1.058594 "/>
</g>
</svg>
