<?xml version="1.0" encoding="UTF-8"?>
<svg xmlns="http://www.w3.org/2000/svg" xmlns:xlink="http://www.w3.org/1999/xlink" width="15pt" height="15pt" viewBox="0 0 15 15" version="1.1">
<g id="surface1">
<path style=" stroke:none;fill-rule:nonzero;fill:rgb(57.254902%,40.784314%,79.215686%);fill-opacity:1;" d="M 10.023438 6.992188 L 8.238281 6.992188 C 7.492188 6.992188 6.398438 7.617188 5.957031 8.011719 C 5.5625 8.367188 4.191406 9.386719 4.191406 10.429688 C 4.191406 12.394531 6.429688 15 6.429688 15 L 10.578125 15 C 10.578125 15 11.410156 11.367188 11.410156 8.378906 C 11.410156 7.65625 10.769531 6.992188 10.023438 6.992188 Z M 10.023438 6.992188 "/>
<path style=" stroke:none;fill-rule:nonzero;fill:rgb(100%,86.27451%,36.470588%);fill-opacity:1;" d="M 9.390625 7.289062 C 9.316406 7.742188 8.859375 8.640625 7.707031 9.792969 C 6.667969 10.832031 5.417969 11.042969 5.417969 11.042969 C 5.417969 11.042969 3.976562 11.359375 4.289062 10.105469 C 4.472656 9.371094 5.378906 9.339844 6.023438 8.46875 C 6.664062 7.597656 8.039062 7.183594 8.542969 7.082031 C 9.582031 6.875 9.390625 7.289062 9.390625 7.289062 Z M 9.390625 7.289062 "/>
<path style=" stroke:none;fill-rule:nonzero;fill:rgb(100%,67.45098%,20%);fill-opacity:1;" d="M 6.015625 10.035156 C 5.71875 10.265625 5.441406 10.238281 5.238281 10.074219 C 4.910156 9.796875 4.40625 9.785156 4.367188 9.894531 C 4.378906 10.324219 4.832031 10.515625 4.917969 10.960938 C 4.917969 10.976562 4.925781 10.992188 4.929688 11.007812 C 5.164062 11.085938 5.417969 11.042969 5.417969 11.042969 C 5.417969 11.042969 5.65625 10.996094 5.890625 10.914062 C 6.191406 9.933594 6.601562 9.9375 6.75 9.601562 C 6.800781 9.492188 6.265625 9.835938 6.015625 10.035156 Z M 6.351562 2.5 C 6.652344 3.226562 6.316406 4.054688 5.59375 4.355469 C 4.875 4.652344 4.046875 4.308594 3.746094 3.582031 C 3.445312 2.859375 3.785156 2.03125 4.503906 1.730469 C 5.222656 1.433594 6.050781 1.777344 6.351562 2.5 Z M 6.351562 2.5 "/>
<path style=" stroke:none;fill-rule:nonzero;fill:rgb(100%,86.27451%,36.470588%);fill-opacity:1;" d="M 7.546875 6.359375 L 7.8125 7.417969 C 7.921875 7.84375 7.84375 8.191406 8.472656 8.214844 C 8.910156 8.230469 9.507812 7.445312 9.398438 7.015625 L 9.132812 5.960938 Z M 7.546875 6.359375 "/>
<path style=" stroke:none;fill-rule:nonzero;fill:rgb(100%,80%,30.196078%);fill-opacity:1;" d="M 7.546875 6.359375 L 7.851562 7.605469 C 9.15625 7.046875 9.203125 6.058594 9.203125 6.058594 Z M 7.546875 6.359375 "/>
<path style=" stroke:none;fill-rule:nonzero;fill:rgb(100%,86.27451%,36.470588%);fill-opacity:1;" d="M 5.257812 1.984375 C 5.257812 1.984375 5.824219 3.34375 4.609375 4.035156 L 5.257812 5.589844 C 5.785156 6.859375 6.507812 7.769531 7.78125 7.242188 C 9.054688 6.710938 10.394531 4.945312 9.867188 3.671875 L 9.332031 2.386719 C 6.445312 3.472656 5.257812 1.984375 5.257812 1.984375 Z M 5.257812 1.984375 "/>
<path style=" stroke:none;fill-rule:nonzero;fill:rgb(74.901961%,41.176471%,32.156863%);fill-opacity:1;" d="M 5.707031 6.152344 L 5.546875 6.21875 C 5.476562 6.246094 5.394531 6.214844 5.363281 6.144531 C 5.335938 6.074219 5.371094 5.992188 5.441406 5.960938 L 5.601562 5.894531 C 5.671875 5.867188 5.753906 5.898438 5.78125 5.96875 C 5.8125 6.042969 5.777344 6.121094 5.707031 6.152344 Z M 5.707031 6.152344 "/>
<path style=" stroke:none;fill-rule:nonzero;fill:rgb(40%,12.941176%,7.45098%);fill-opacity:1;" d="M 5.785156 5.066406 C 5.644531 5.125 5.484375 5.058594 5.425781 4.917969 L 5.316406 4.660156 C 5.257812 4.519531 5.328125 4.359375 5.46875 4.300781 C 5.609375 4.238281 5.773438 4.308594 5.832031 4.449219 L 5.9375 4.703125 C 5.996094 4.847656 5.929688 5.007812 5.785156 5.066406 Z M 5.785156 5.066406 "/>
<path style=" stroke:none;fill-rule:nonzero;fill:rgb(87.45098%,12.156863%,19.607843%);fill-opacity:1;" d="M 5.925781 6.78125 C 6.054688 6.933594 6.195312 7.0625 6.34375 7.164062 C 6.894531 6.84375 6.933594 6.359375 6.933594 6.359375 L 5.953125 6.769531 Z M 5.925781 6.78125 "/>
<path style=" stroke:none;fill-rule:nonzero;fill:rgb(100%,67.45098%,20%);fill-opacity:1;" d="M 7.546875 5.003906 L 6.78125 3.773438 C 6.78125 3.773438 4.671875 4.292969 4.042969 3.085938 C 3.410156 1.882812 5.019531 0.761719 6.101562 0.378906 C 7.183594 0 8.925781 -0.457031 9.992188 1.738281 C 10.976562 3.773438 9.707031 5.527344 9.335938 6 C 9.335938 6 8.796875 5.578125 8.640625 5.269531 C 8.484375 4.964844 8.710938 4.183594 8.371094 3.9375 C 8.042969 3.707031 7.339844 3.945312 7.546875 5.003906 Z M 7.546875 5.003906 "/>
<path style=" stroke:none;fill-rule:nonzero;fill:rgb(100%,67.45098%,20%);fill-opacity:1;" d="M 9.710938 2.183594 C 9.425781 1.589844 10.175781 0.609375 11.058594 0.699219 C 11.941406 0.789062 12.980469 1.664062 12.546875 2.816406 C 12.136719 3.917969 12.445312 4.769531 13.296875 4.738281 C 13.296875 4.738281 12.808594 5.410156 11.980469 4.921875 C 11.109375 4.410156 11.601562 2.796875 10.976562 2.472656 C 10.664062 2.3125 10.25 2.265625 10.082031 2.460938 C 9.914062 2.65625 9.710938 2.183594 9.710938 2.183594 Z M 9.710938 2.183594 "/>
<path style=" stroke:none;fill-rule:nonzero;fill:rgb(46.666667%,69.803922%,33.333333%);fill-opacity:1;" d="M 6.882812 13.484375 C 7.34375 13.488281 8.523438 13.335938 9.304688 13.144531 C 8.699219 12.730469 7.246094 11.75 6.613281 11.445312 C 5.808594 11.054688 4.296875 9.753906 3.996094 9.441406 C 3.699219 9.128906 2.980469 9.179688 2.605469 9.726562 C 2.339844 10.113281 1.980469 11.535156 2.605469 12.683594 C 3.332031 14.019531 4.589844 14.988281 6.246094 14.988281 C 6.683594 14.988281 7.070312 14.933594 7.414062 14.84375 C 6.476562 14.753906 6.328125 13.484375 6.882812 13.484375 Z M 6.882812 13.484375 "/>
<path style=" stroke:none;fill-rule:nonzero;fill:rgb(100%,86.27451%,36.470588%);fill-opacity:1;" d="M 7.5 15 L 6.429688 15 C 5.558594 15 4.425781 14.308594 4.609375 13.683594 C 4.792969 13.0625 5.300781 13.484375 6.042969 13.484375 C 6.457031 13.484375 6.882812 13.488281 6.882812 13.488281 C 6.882812 13.488281 7.214844 14.511719 7.5 15 Z M 7.5 15 "/>
</g>
</svg>
