<?xml version="1.0" encoding="UTF-8"?>
<svg xmlns="http://www.w3.org/2000/svg" xmlns:xlink="http://www.w3.org/1999/xlink" width="15pt" height="15pt" viewBox="0 0 15 15" version="1.1">
<g id="surface1">
<path style=" stroke:none;fill-rule:nonzero;fill:rgb(86.666667%,18.039216%,26.666667%);fill-opacity:1;" d="M 11.9375 13.039062 C 12.042969 13.414062 12.050781 13.632812 12.117188 14.023438 C 12.164062 14.308594 12.359375 14.632812 12.597656 14.582031 C 12.785156 14.542969 12.929688 14.359375 12.882812 13.949219 C 12.855469 13.730469 12.796875 13.582031 12.71875 13.359375 C 12.671875 13.230469 12.609375 13.050781 12.570312 12.878906 C 12.53125 12.691406 12.386719 12.492188 12.148438 12.542969 C 11.96875 12.582031 11.867188 12.785156 11.9375 13.039062 Z M 11.9375 13.039062 "/>
<path style=" stroke:none;fill-rule:nonzero;fill:rgb(62.745098%,1.568627%,11.764706%);fill-opacity:1;" d="M 12.476562 12.953125 C 12.464844 12.945312 12.375 12.894531 12.246094 12.929688 C 12.117188 12.964844 12.070312 13.039062 12.0625 13.050781 C 12.058594 13.0625 12.183594 13.375 12.203125 13.460938 C 12.21875 13.554688 12.285156 13.816406 12.289062 13.828125 C 12.296875 13.847656 12.316406 13.863281 12.339844 13.855469 L 12.589844 13.796875 C 12.613281 13.789062 12.628906 13.769531 12.621094 13.746094 L 12.535156 13.394531 C 12.511719 13.296875 12.484375 12.957031 12.476562 12.953125 Z M 12.476562 12.953125 "/>
<path style=" stroke:none;fill-rule:nonzero;fill:rgb(80%,83.921569%,86.666667%);fill-opacity:1;" d="M 12.242188 13.808594 C 12.25 13.808594 12.257812 13.808594 12.261719 13.804688 L 12.640625 13.714844 C 12.6875 13.703125 12.714844 13.660156 12.703125 13.613281 C 12.691406 13.570312 12.648438 13.542969 12.601562 13.550781 L 12.222656 13.644531 C 12.179688 13.65625 12.152344 13.699219 12.164062 13.746094 C 12.171875 13.78125 12.207031 13.808594 12.242188 13.808594 Z M 12.171875 13.507812 C 12.175781 13.507812 12.183594 13.507812 12.191406 13.503906 L 12.570312 13.414062 C 12.613281 13.402344 12.640625 13.359375 12.628906 13.3125 C 12.621094 13.269531 12.574219 13.242188 12.53125 13.253906 L 12.152344 13.34375 C 12.105469 13.355469 12.078125 13.398438 12.089844 13.445312 C 12.097656 13.484375 12.132812 13.507812 12.171875 13.507812 Z M 12.097656 13.207031 C 12.105469 13.207031 12.109375 13.207031 12.117188 13.207031 L 12.496094 13.113281 C 12.542969 13.101562 12.570312 13.058594 12.558594 13.015625 C 12.546875 12.96875 12.503906 12.941406 12.457031 12.953125 L 12.078125 13.042969 C 12.035156 13.054688 12.007812 13.101562 12.015625 13.144531 C 12.027344 13.183594 12.058594 13.207031 12.097656 13.207031 Z M 12.097656 13.207031 "/>
<path style=" stroke:none;fill-rule:nonzero;fill:rgb(86.666667%,18.039216%,26.666667%);fill-opacity:1;" d="M 8.804688 12.667969 C 8.878906 13.050781 8.972656 13.246094 9.09375 13.625 C 9.179688 13.902344 9.148438 14.28125 8.914062 14.34375 C 8.730469 14.394531 8.519531 14.292969 8.375 13.90625 C 8.300781 13.699219 8.285156 13.542969 8.253906 13.308594 C 8.234375 13.171875 8.214844 12.980469 8.167969 12.8125 C 8.121094 12.625 8.15625 12.386719 8.394531 12.320312 C 8.574219 12.273438 8.753906 12.410156 8.804688 12.667969 Z M 8.804688 12.667969 "/>
<path style=" stroke:none;fill-rule:nonzero;fill:rgb(62.745098%,1.568627%,11.764706%);fill-opacity:1;" d="M 8.691406 12.738281 C 8.683594 12.730469 8.59375 12.679688 8.464844 12.71875 C 8.332031 12.757812 8.289062 12.835938 8.28125 12.847656 C 8.277344 12.855469 8.410156 13.167969 8.429688 13.253906 C 8.449219 13.347656 8.519531 13.605469 8.523438 13.617188 C 8.53125 13.640625 8.554688 13.652344 8.578125 13.644531 L 8.824219 13.582031 C 8.847656 13.574219 8.859375 13.550781 8.855469 13.527344 L 8.761719 13.179688 C 8.738281 13.082031 8.703125 12.746094 8.691406 12.738281 Z M 8.691406 12.738281 "/>
<path style=" stroke:none;fill-rule:nonzero;fill:rgb(80%,83.921569%,86.666667%);fill-opacity:1;" d="M 8.476562 13.597656 C 8.484375 13.597656 8.488281 13.597656 8.496094 13.597656 L 8.875 13.496094 C 8.917969 13.484375 8.945312 13.4375 8.933594 13.394531 C 8.921875 13.351562 8.875 13.324219 8.832031 13.335938 L 8.453125 13.433594 C 8.410156 13.445312 8.382812 13.492188 8.394531 13.535156 C 8.40625 13.574219 8.4375 13.597656 8.476562 13.597656 Z M 8.398438 13.300781 C 8.40625 13.300781 8.410156 13.300781 8.417969 13.296875 L 8.796875 13.199219 C 8.839844 13.1875 8.867188 13.140625 8.855469 13.097656 C 8.84375 13.050781 8.796875 13.023438 8.753906 13.035156 L 8.375 13.136719 C 8.332031 13.148438 8.304688 13.195312 8.316406 13.238281 C 8.328125 13.277344 8.359375 13.300781 8.398438 13.300781 Z M 8.320312 13.003906 C 8.324219 13.003906 8.332031 13 8.339844 13 L 8.71875 12.898438 C 8.761719 12.886719 8.789062 12.84375 8.777344 12.796875 C 8.765625 12.753906 8.71875 12.726562 8.675781 12.738281 L 8.296875 12.839844 C 8.253906 12.851562 8.226562 12.894531 8.238281 12.941406 C 8.25 12.976562 8.28125 13.003906 8.320312 13.003906 Z M 8.320312 13.003906 "/>
<path style=" stroke:none;fill-rule:nonzero;fill:rgb(95.294118%,82.352941%,63.529412%);fill-opacity:1;" d="M 8.316406 10.0625 L 9.359375 9.460938 L 9.890625 10.550781 C 9.992188 10.628906 10.007812 10.664062 10.5625 10.988281 C 11.066406 11.28125 12.003906 12.277344 12.316406 12.667969 C 12.40625 12.75 12.425781 12.808594 12.480469 12.957031 L 12.054688 13.070312 C 12.054688 13.070312 11.980469 12.925781 11.859375 12.847656 C 11.257812 12.503906 9.230469 11.390625 9.230469 11.390625 C 9.066406 11.273438 8.960938 11.191406 8.902344 11.089844 C 8.902344 11.089844 8.40625 10.265625 8.316406 10.0625 Z M 5.800781 9.160156 L 6.84375 9.707031 C 6.769531 9.820312 6.628906 10.0625 6.511719 10.371094 C 6.476562 10.460938 6.429688 10.628906 6.578125 10.734375 C 6.660156 10.796875 6.824219 10.929688 6.949219 11.027344 C 7.035156 11.097656 7.132812 11.171875 7.246094 11.261719 C 7.660156 11.585938 8.507812 12.425781 8.578125 12.492188 C 8.648438 12.5625 8.695312 12.648438 8.722656 12.769531 C 8.6875 12.777344 8.320312 12.867188 8.320312 12.867188 C 8.320312 12.867188 8.269531 12.738281 8.144531 12.664062 C 7.757812 12.429688 5.554688 11.164062 5.554688 11.164062 C 5.269531 10.957031 5.109375 10.863281 5.136719 10.566406 C 5.179688 10.050781 5.664062 9.351562 5.800781 9.160156 Z M 9.34375 3.882812 C 9.453125 3.765625 9.636719 3.707031 9.882812 3.707031 C 10.589844 3.707031 11.285156 3.796875 11.460938 3.832031 C 11.511719 3.84375 11.53125 3.84375 11.585938 3.8125 C 11.71875 3.734375 11.765625 3.519531 11.828125 3.253906 C 11.847656 3.164062 11.871094 3.066406 11.898438 2.972656 C 12.015625 2.554688 12.144531 1.949219 12.128906 1.832031 C 12.105469 1.671875 12.257812 0.492188 12.277344 0.472656 C 12.304688 0.445312 12.390625 0.5 12.449219 0.503906 C 12.492188 0.507812 12.527344 0.546875 12.574219 0.578125 C 12.859375 0.765625 12.902344 1.152344 12.929688 1.410156 C 12.945312 1.574219 12.671875 1.867188 12.644531 2.039062 C 12.636719 2.09375 12.625 2.371094 12.605469 2.824219 C 12.589844 3.296875 12.566406 3.886719 12.546875 3.984375 C 12.507812 4.222656 12.460938 4.480469 12.128906 4.5625 C 11.875 4.621094 11.136719 4.660156 10.597656 4.691406 C 10.328125 4.703125 10.089844 4.71875 9.96875 4.730469 C 9.699219 4.753906 9.46875 4.703125 9.335938 4.589844 C 9.253906 4.523438 9.210938 4.429688 9.207031 4.316406 C 9.199219 4.132812 9.246094 3.984375 9.34375 3.882812 Z M 0.996094 5.175781 C 1.117188 5.167969 1.136719 5.152344 1.253906 5.152344 C 1.421875 5.15625 1.414062 5.175781 1.492188 5.175781 C 1.660156 5.171875 1.894531 5.160156 2.070312 5.140625 C 2.199219 5.125 2.890625 5.09375 3.078125 5.058594 C 3.335938 5.011719 3.65625 4.949219 4.246094 4.996094 C 4.574219 4.824219 5.023438 4.632812 5.421875 4.460938 C 5.710938 4.335938 5.988281 4.21875 6.171875 4.128906 C 6.265625 4.082031 6.355469 4.058594 6.441406 4.058594 C 6.507812 4.058594 6.570312 4.074219 6.628906 4.097656 C 6.765625 4.15625 6.867188 4.277344 6.914062 4.4375 C 6.933594 4.496094 6.984375 4.703125 6.871094 4.882812 C 6.78125 5.027344 6.609375 5.125 6.363281 5.164062 C 6.109375 5.207031 5.796875 5.304688 5.433594 5.414062 C 5.078125 5.523438 4.675781 5.648438 4.265625 5.734375 C 4.265625 5.734375 3.617188 5.667969 3.28125 5.648438 C 2.8125 5.617188 2.160156 5.496094 1.992188 5.546875 C 1.777344 5.613281 1.546875 5.675781 1.277344 5.535156 C 0.816406 5.296875 0.355469 5.4375 0.402344 5.242188 C 0.414062 5.195312 0.769531 5.1875 0.996094 5.175781 Z M 7.570312 2.082031 C 7.597656 1.84375 7.816406 1.664062 8.050781 1.691406 C 8.285156 1.71875 8.457031 1.921875 8.429688 2.160156 L 8.257812 3.664062 L 8.40625 3.683594 C 8.40625 3.683594 8.558594 4.121094 7.804688 4.121094 C 7.046875 4.121094 7.128906 3.777344 7.128906 3.777344 L 7.375 3.730469 Z M 7.570312 2.082031 "/>
<path style=" stroke:none;fill-rule:nonzero;fill:rgb(95.294118%,82.352941%,63.529412%);fill-opacity:1;" d="M 8.941406 2.046875 C 8.941406 1.359375 8.449219 0.796875 7.847656 0.796875 C 7.242188 0.796875 6.753906 1.359375 6.753906 2.046875 C 6.753906 2.738281 7.242188 3.296875 7.847656 3.296875 C 8.449219 3.296875 8.941406 2.738281 8.941406 2.046875 Z M 8.941406 2.046875 "/>
<path style=" stroke:none;fill-rule:nonzero;fill:rgb(100%,89.803922%,11.764706%);fill-opacity:1;" d="M 7.152344 0.460938 C 7.445312 0.257812 8.179688 0.183594 8.675781 0.449219 C 8.933594 0.582031 9.097656 0.773438 9.195312 0.988281 C 9.269531 0.910156 9.398438 0.839844 9.621094 0.820312 C 10.117188 0.78125 10.25 1.324219 10.609375 1.519531 C 10.882812 1.664062 11.191406 1.671875 11.410156 1.523438 C 11.410156 1.523438 11.113281 1.886719 10.777344 2.023438 C 10.339844 2.203125 9.804688 2.085938 9.550781 1.949219 C 9.441406 1.894531 9.359375 1.820312 9.296875 1.742188 C 9.292969 1.78125 9.292969 1.816406 9.285156 1.855469 C 9.199219 2.371094 8.722656 2.820312 8.722656 2.820312 C 8.722656 2.820312 8.550781 2.378906 8.628906 2.371094 C 8.773438 2.355469 8.859375 1.910156 8.738281 1.792969 C 8.609375 1.667969 8.488281 1.792969 8.457031 1.917969 C 8.425781 2.042969 8.339844 2.394531 8.339844 2.394531 C 8.339844 2.394531 8.363281 1.949219 8.238281 1.808594 C 8.113281 1.667969 7.519531 1.699219 7.269531 1.089844 C 7.269531 1.089844 7.074219 1.164062 6.917969 1.398438 C 6.789062 1.589844 6.753906 2.046875 6.753906 2.046875 C 6.753906 2.046875 6.636719 1.765625 6.554688 1.492188 C 6.460938 1.179688 6.78125 0.71875 7.152344 0.460938 Z M 7.152344 0.460938 "/>
<path style=" stroke:none;fill-rule:nonzero;fill:rgb(62.745098%,1.568627%,11.764706%);fill-opacity:1;" d="M 8.707031 7.65625 C 8.839844 8.238281 9.542969 9.625 9.542969 9.625 C 9.542969 9.625 8.859375 10.242188 8.300781 10.226562 L 7.484375 9.042969 L 6.761719 10.0625 C 6.761719 10.0625 6.046875 9.53125 5.539062 9.441406 C 5.539062 9.441406 6.234375 8.117188 6.382812 7.835938 C 6.53125 7.554688 6.824219 7.191406 6.824219 7.191406 C 6.824219 7.191406 8.601562 7.203125 8.707031 7.65625 Z M 8.707031 7.65625 "/>
<path style=" stroke:none;fill-rule:nonzero;fill:rgb(62.745098%,1.568627%,11.764706%);fill-opacity:1;" d="M 8.257812 10.253906 L 7.484375 9.132812 L 6.804688 10.089844 C 6.796875 10.101562 6.785156 10.109375 6.769531 10.113281 C 6.757812 10.113281 6.742188 10.109375 6.730469 10.101562 C 6.722656 10.097656 6.019531 9.578125 5.53125 9.492188 C 5.515625 9.492188 5.5 9.480469 5.492188 9.464844 C 5.484375 9.449219 5.484375 9.433594 5.496094 9.417969 C 5.496094 9.417969 6.1875 8.09375 6.335938 7.8125 C 6.484375 7.53125 6.769531 7.175781 6.78125 7.160156 C 6.792969 7.148438 6.808594 7.140625 6.824219 7.140625 C 7.011719 7.140625 8.648438 7.164062 8.757812 7.644531 C 8.886719 8.214844 9.582031 9.589844 9.589844 9.605469 C 9.601562 9.625 9.59375 9.648438 9.578125 9.664062 C 9.550781 9.691406 8.890625 10.277344 8.320312 10.277344 C 8.296875 10.277344 8.269531 10.277344 8.257812 10.253906 Z M 8.65625 7.667969 C 8.589844 7.371094 7.523438 7.25 6.847656 7.242188 C 6.785156 7.324219 6.554688 7.625 6.429688 7.859375 C 6.300781 8.105469 5.757812 9.140625 5.617188 9.40625 C 6.054688 9.507812 6.59375 9.875 6.75 9.988281 L 7.441406 9.011719 C 7.453125 8.996094 7.46875 8.988281 7.484375 8.988281 C 7.503906 8.988281 7.519531 8.996094 7.527344 9.011719 L 8.328125 10.171875 C 8.792969 10.171875 9.34375 9.726562 9.480469 9.613281 C 9.363281 9.386719 8.777344 8.203125 8.65625 7.667969 Z M 8.65625 7.667969 "/>
<path style=" stroke:none;fill-rule:nonzero;fill:rgb(86.666667%,18.039216%,26.666667%);fill-opacity:1;" d="M 9.183594 3.632812 C 8.957031 3.625 8.632812 3.667969 8.40625 3.683594 C 8.40625 3.683594 8.375 4.039062 7.824219 4.054688 C 7.273438 4.070312 7.128906 3.78125 7.128906 3.78125 C 7.128906 3.78125 6.707031 3.8125 6.398438 4.007812 C 6.09375 4.199219 5.621094 4.375 5.621094 4.375 C 5.621094 4.375 6.058594 4.875 5.898438 5.277344 L 6.335938 5.148438 C 6.335938 5.148438 6.1875 5.394531 6.238281 5.574219 C 6.285156 5.75 6.460938 5.941406 6.480469 6.101562 C 6.527344 6.550781 6.382812 7.632812 6.320312 7.777344 C 6.320312 7.777344 6.828125 7.632812 7.648438 7.722656 C 8.148438 7.777344 8.917969 8.125 8.917969 8.125 C 8.90625 7.773438 8.746094 6.914062 8.683594 6.453125 C 8.625 6.003906 9.023438 4.875 9.296875 4.808594 C 9.574219 4.746094 9.785156 4.726562 9.785156 4.726562 C 9.785156 4.726562 9.71875 4.3125 9.785156 4.085938 C 9.847656 3.859375 9.878906 3.699219 9.878906 3.699219 C 9.878906 3.699219 9.414062 3.640625 9.183594 3.632812 Z M 9.183594 3.632812 "/>
<path style=" stroke:none;fill-rule:nonzero;fill:rgb(13.333333%,40%,60%);fill-opacity:1;" d="M 12.730469 1.214844 C 12.730469 1.6875 12.347656 2.070312 11.875 2.070312 C 11.402344 2.070312 11.019531 1.6875 11.019531 1.214844 C 11.019531 0.742188 11.402344 0.359375 11.875 0.359375 C 12.347656 0.359375 12.730469 0.742188 12.730469 1.214844 Z M 12.730469 1.214844 "/>
<path style=" stroke:none;fill-rule:nonzero;fill:rgb(95.294118%,82.352941%,63.529412%);fill-opacity:1;" d="M 12.199219 0.757812 L 12.234375 0.753906 C 12.179688 0.761719 12.125 0.722656 12.117188 0.667969 C 12.105469 0.613281 12.144531 0.558594 12.199219 0.546875 L 12.414062 0.507812 L 12.757812 0.882812 L 12.863281 1.269531 L 12.523438 1.332031 C 12.464844 1.339844 12.410156 1.304688 12.402344 1.246094 C 12.390625 1.191406 12.429688 1.144531 12.480469 1.128906 L 12.390625 1.144531 C 12.332031 1.15625 12.277344 1.117188 12.269531 1.0625 C 12.257812 1.007812 12.296875 0.957031 12.347656 0.941406 L 12.238281 0.960938 C 12.179688 0.972656 12.125 0.933594 12.117188 0.878906 C 12.105469 0.820312 12.144531 0.769531 12.199219 0.757812 Z M 12.199219 0.757812 "/>
</g>
</svg>
