<?xml version="1.0" encoding="UTF-8"?>
<svg xmlns="http://www.w3.org/2000/svg" xmlns:xlink="http://www.w3.org/1999/xlink" width="15pt" height="15pt" viewBox="0 0 15 15" version="1.1">
<g id="surface1">
<path style=" stroke:none;fill-rule:nonzero;fill:rgb(47.058824%,69.411765%,34.901961%);fill-opacity:1;" d="M 9.492188 1.964844 C 9.492188 1.964844 7.121094 -1.011719 5.050781 0.425781 C 3.515625 1.488281 3.523438 3.4375 3.675781 4.375 C 3.828125 5.332031 4.300781 7.511719 4.589844 9.339844 C 4.878906 11.167969 5.082031 12.808594 5.378906 14.71875 C 5.453125 15.199219 7.074219 14.933594 7.03125 14.460938 C 6.957031 13.652344 6.273438 10.726562 6.089844 9.441406 C 5.921875 8.246094 5.519531 5.933594 5.285156 4.589844 C 5.027344 3.109375 5.171875 1.804688 6.179688 1.507812 C 7.34375 1.167969 8.496094 3.105469 8.496094 3.105469 Z M 9.492188 1.964844 "/>
<path style=" stroke:none;fill-rule:nonzero;fill:rgb(77.647059%,89.411765%,70.980392%);fill-opacity:1;" d="M 5.449219 6.84375 C 5.449219 6.84375 6.164062 7.109375 6.648438 7.59375 C 7.285156 8.234375 7.675781 9.488281 7.175781 10.90625 C 6.867188 11.777344 7.621094 13.019531 7.621094 13.019531 C 7.621094 13.019531 6.78125 12.570312 6.257812 11.90625 C 5.722656 11.234375 5.375 10.308594 5.300781 9.554688 C 5.25 9.054688 5.226562 8.066406 5.449219 6.84375 "/>
<path style=" stroke:none;fill-rule:nonzero;fill:rgb(65.098039%,82.745098%,53.333333%);fill-opacity:1;" d="M 4.28125 5.824219 C 3.953125 5.976562 3.035156 7.15625 2.929688 7.808594 C 2.5 10.539062 4.128906 12.320312 4.128906 12.320312 C 4.128906 12.320312 4.417969 10.660156 4.863281 10.0625 C 5.382812 9.367188 5.089844 7.695312 4.863281 7.082031 C 4.703125 6.644531 4.28125 5.824219 4.28125 5.824219 "/>
<path style=" stroke:none;fill-rule:nonzero;fill:rgb(47.058824%,69.411765%,34.901961%);fill-opacity:1;" d="M 10.304688 3.441406 C 9.980469 3.886719 9.234375 3.890625 8.640625 3.453125 C 8.046875 3.019531 7.832031 2.304688 8.160156 1.859375 C 8.488281 1.414062 9.234375 1.40625 9.828125 1.84375 C 10.417969 2.28125 10.632812 2.996094 10.304688 3.441406 "/>
<path style=" stroke:none;fill-rule:nonzero;fill:rgb(47.058824%,69.411765%,34.901961%);fill-opacity:1;" d="M 10.917969 2.238281 C 11.269531 2.769531 10.964844 3.59375 10.234375 4.074219 C 9.503906 4.554688 8.625 4.511719 8.273438 3.980469 C 7.921875 3.445312 8.230469 2.625 8.960938 2.140625 C 9.691406 1.660156 10.566406 1.703125 10.917969 2.238281 "/>
<path style=" stroke:none;fill-rule:nonzero;fill:rgb(47.058824%,69.411765%,34.901961%);fill-opacity:1;" d="M 8.628906 3.394531 C 8.265625 3.871094 7.421875 4.007812 7.421875 4.007812 C 7.421875 4.007812 8.128906 4.53125 8.5625 4.234375 C 8.992188 3.941406 8.628906 3.394531 8.628906 3.394531 M 9.691406 2.027344 C 9.667969 1.683594 10.238281 1.070312 10.511719 1.230469 C 10.511719 1.230469 10.148438 1.640625 10.488281 1.890625 C 10.832031 2.140625 9.691406 2.027344 9.691406 2.027344 "/>
<path style=" stroke:none;fill-rule:nonzero;fill:rgb(85.490196%,18.431373%,27.843137%);fill-opacity:1;" d="M 8.855469 3.609375 C 8.109375 4.011719 7.4375 4.957031 7.789062 6.773438 C 8.089844 8.347656 9.421875 8.992188 8.976562 10.039062 C 8.566406 11.011719 9.320312 12.582031 10.320312 10.203125 C 10.636719 9.457031 11.492188 6.335938 10.644531 4.425781 C 10.128906 3.277344 9.203125 3.425781 8.855469 3.609375 Z M 8.855469 3.609375 "/>
<path style=" stroke:none;fill-rule:nonzero;fill:rgb(90.588235%,35.294118%,43.921569%);fill-opacity:1;" d="M 9.730469 2.949219 C 10.28125 2.144531 11.082031 2.042969 11.621094 2.554688 C 14.136719 4.941406 13.097656 9.617188 11.40625 10.625 C 10.40625 11.222656 11.054688 7.621094 9.703125 6.152344 C 8.910156 5.285156 8.886719 3.953125 9.730469 2.949219 "/>
</g>
</svg>
