<?xml version="1.0" encoding="UTF-8"?>
<svg xmlns="http://www.w3.org/2000/svg" xmlns:xlink="http://www.w3.org/1999/xlink" width="15pt" height="15pt" viewBox="0 0 15 15" version="1.1">
<g id="surface1">
<path style=" stroke:none;fill-rule:nonzero;fill:rgb(33.333333%,67.45098%,93.333333%);fill-opacity:1;" d="M 7.5 3.332031 L 4.582031 0 L 0 0 L 5.832031 7.082031 L 10.632812 5.105469 Z M 7.5 3.332031 "/>
<path style=" stroke:none;fill-rule:nonzero;fill:rgb(23.137255%,53.333333%,76.470588%);fill-opacity:1;" d="M 10.417969 0 L 7.5 3.332031 L 9.746094 6.378906 L 10.257812 5.757812 L 15 0 Z M 10.417969 0 "/>
<path style=" stroke:none;fill-rule:nonzero;fill:rgb(100%,67.45098%,20%);fill-opacity:1;" d="M 9.667969 6.675781 C 9.703125 6.585938 9.722656 6.492188 9.722656 6.390625 C 9.722656 5.929688 9.351562 5.554688 8.890625 5.554688 L 6.113281 5.554688 C 5.652344 5.554688 5.277344 5.929688 5.277344 6.390625 C 5.277344 6.492188 5.300781 6.585938 5.332031 6.675781 C 3.976562 7.4375 3.058594 8.890625 3.058594 10.554688 C 3.054688 13.011719 5.046875 15 7.5 15 C 9.957031 15 11.945312 13.011719 11.945312 10.554688 C 11.945312 8.890625 11.027344 7.4375 9.667969 6.675781 Z M 9.667969 6.675781 "/>
<path style=" stroke:none;fill-rule:nonzero;fill:rgb(61.960784%,32.156863%,0%);fill-opacity:1;" d="M 8.085938 7.75 L 7.367188 7.75 L 6.230469 8.636719 C 6.207031 8.660156 6.183594 8.722656 6.183594 8.753906 L 6.183594 9.246094 C 6.183594 9.324219 6.246094 9.394531 6.324219 9.394531 L 7.070312 9.394531 L 7.070312 12.898438 C 7.070312 12.976562 7.132812 13.046875 7.21875 13.046875 L 8.085938 13.046875 C 8.164062 13.046875 8.226562 12.976562 8.226562 12.898438 L 8.226562 7.898438 C 8.226562 7.820312 8.164062 7.75 8.085938 7.75 Z M 8.085938 7.75 "/>
</g>
</svg>
