<?xml version="1.0" encoding="UTF-8"?>
<svg xmlns="http://www.w3.org/2000/svg" xmlns:xlink="http://www.w3.org/1999/xlink" width="15pt" height="15pt" viewBox="0 0 15 15" version="1.1">
<g id="surface1">
<path style=" stroke:none;fill-rule:nonzero;fill:rgb(88.627451%,91.764706%,33.333333%);fill-opacity:1;" d="M 15 7.5 C 15 11.640625 11.640625 15 7.5 15 C 3.359375 15 0 11.640625 0 7.5 C 0 3.359375 3.359375 0 7.5 0 C 11.640625 0 15 3.359375 15 7.5 Z M 15 7.5 "/>
<path style=" stroke:none;fill-rule:nonzero;fill:rgb(74.509804%,79.215686%,15.686275%);fill-opacity:1;" d="M 13.25 12.3125 C 11.996094 11.757812 11.25 10.019531 11.25 7.5 C 11.25 4.980469 11.996094 3.242188 13.25 2.6875 C 13.066406 2.46875 12.863281 2.261719 12.65625 2.0625 C 11.417969 2.753906 10.417969 4.40625 10.417969 7.5 C 10.417969 10.59375 11.417969 12.246094 12.65625 12.9375 C 12.863281 12.738281 13.066406 12.53125 13.25 12.3125 Z M 4.582031 7.5 C 4.582031 4.40625 3.582031 2.753906 2.34375 2.0625 C 2.136719 2.261719 1.933594 2.46875 1.75 2.6875 C 3.003906 3.242188 3.75 4.980469 3.75 7.5 C 3.75 10.019531 3.003906 11.757812 1.75 12.3125 C 1.933594 12.53125 2.136719 12.738281 2.34375 12.9375 C 3.582031 12.246094 4.582031 10.59375 4.582031 7.5 Z M 4.582031 7.5 "/>
<path style=" stroke:none;fill-rule:nonzero;fill:rgb(86.666667%,18.039216%,26.666667%);fill-opacity:1;" d="M 2.191406 4.234375 C 2.09375 4.234375 2 4.226562 1.917969 4.210938 C 1.691406 4.167969 1.542969 3.953125 1.585938 3.726562 C 1.628906 3.5 1.847656 3.347656 2.074219 3.390625 C 2.253906 3.425781 3.195312 3.394531 3.382812 2.445312 C 3.429688 2.21875 3.648438 2.074219 3.875 2.117188 C 4.101562 2.164062 4.246094 2.382812 4.203125 2.609375 C 3.960938 3.820312 2.894531 4.234375 2.191406 4.234375 Z M 2.789062 5.980469 C 2.570312 5.972656 2.398438 5.832031 2.398438 5.605469 C 2.398438 5.378906 2.582031 5.234375 2.8125 5.234375 C 2.8125 5.234375 3.878906 5.265625 4.460938 4.347656 C 4.585938 4.152344 4.84375 4.101562 5.035156 4.222656 C 5.230469 4.347656 5.289062 4.609375 5.164062 4.800781 C 4.335938 6.105469 2.796875 5.980469 2.789062 5.980469 Z M 3.714844 8.011719 C 3.410156 8 3.128906 7.929688 2.917969 7.816406 C 2.714844 7.710938 2.640625 7.457031 2.746094 7.253906 C 2.855469 7.050781 3.109375 6.972656 3.3125 7.082031 C 3.648438 7.261719 4.523438 7.242188 4.882812 6.734375 C 5.019531 6.546875 5.277344 6.503906 5.464844 6.636719 C 5.652344 6.773438 5.695312 7.03125 5.5625 7.21875 C 5.132812 7.824219 4.367188 8.042969 3.714844 8.011719 Z M 4.339844 10.320312 C 3.691406 10.320312 3.089844 10.027344 2.703125 9.703125 C 2.527344 9.554688 2.5 9.292969 2.648438 9.117188 C 2.796875 8.941406 3.058594 8.917969 3.234375 9.0625 C 3.316406 9.132812 4.046875 9.714844 4.8125 9.390625 C 5.023438 9.300781 5.265625 9.398438 5.359375 9.609375 C 5.449219 9.824219 5.347656 10.066406 5.136719 10.15625 C 4.871094 10.269531 4.601562 10.320312 4.339844 10.320312 Z M 4.132812 12.515625 L 4.121094 12.515625 C 3.078125 12.515625 2.171875 11.863281 1.816406 11.222656 C 1.703125 11.023438 1.777344 10.789062 1.976562 10.675781 C 2.175781 10.5625 2.429688 10.648438 2.542969 10.847656 C 2.746094 11.210938 3.375 11.738281 4.144531 11.757812 C 4.375 11.765625 4.554688 11.917969 4.546875 12.148438 C 4.542969 12.375 4.355469 12.515625 4.132812 12.515625 Z M 10.972656 12.734375 C 10.945312 12.734375 10.917969 12.730469 10.890625 12.726562 C 10.664062 12.679688 10.519531 12.460938 10.5625 12.234375 C 10.839844 10.851562 12.1875 10.507812 12.847656 10.632812 C 13.074219 10.675781 13.222656 10.890625 13.179688 11.117188 C 13.136719 11.34375 12.921875 11.496094 12.691406 11.449219 C 12.515625 11.417969 11.570312 11.449219 11.382812 12.398438 C 11.339844 12.597656 11.167969 12.734375 10.972656 12.734375 Z M 9.808594 10.421875 C 9.738281 10.402344 9.675781 10.367188 9.621094 10.3125 C 9.457031 10.152344 9.457031 9.886719 9.617188 9.726562 C 10.703125 8.628906 11.574219 8.816406 12.148438 8.941406 L 12.195312 8.949219 C 12.414062 8.992188 12.5625 9.21875 12.515625 9.445312 C 12.46875 9.667969 12.246094 9.8125 12.019531 9.765625 L 11.972656 9.753906 C 11.484375 9.648438 10.976562 9.539062 10.210938 10.3125 C 10.101562 10.421875 9.945312 10.457031 9.808594 10.421875 Z M 9.621094 8.046875 C 9.542969 8.035156 9.472656 8 9.410156 7.941406 C 9.242188 7.785156 9.234375 7.523438 9.390625 7.355469 C 10.132812 6.554688 11.484375 6.675781 12.089844 7.109375 C 12.277344 7.242188 12.320312 7.503906 12.183594 7.691406 C 12.050781 7.875 11.789062 7.917969 11.605469 7.785156 C 11.292969 7.5625 10.421875 7.46875 10 7.921875 C 9.898438 8.03125 9.753906 8.074219 9.621094 8.046875 Z M 11.996094 5.859375 C 11.902344 5.859375 11.808594 5.828125 11.730469 5.761719 C 11.648438 5.695312 10.917969 5.113281 10.152344 5.433594 C 9.941406 5.523438 9.699219 5.425781 9.609375 5.214844 C 9.515625 5.003906 9.617188 4.757812 9.828125 4.667969 C 10.753906 4.277344 11.71875 4.667969 12.261719 5.121094 C 12.441406 5.269531 12.464844 5.53125 12.316406 5.710938 C 12.234375 5.808594 12.117188 5.859375 11.996094 5.859375 Z M 12.804688 4.203125 C 12.65625 4.203125 12.515625 4.125 12.441406 3.988281 C 12.238281 3.625 11.609375 3.101562 10.839844 3.082031 C 10.609375 3.074219 10.429688 2.871094 10.433594 2.640625 C 10.441406 2.414062 10.625 2.222656 10.851562 2.222656 L 10.863281 2.222656 C 11.90625 2.222656 12.8125 2.929688 13.167969 3.570312 C 13.28125 3.769531 13.207031 4.03125 13.003906 4.140625 C 12.941406 4.179688 12.871094 4.203125 12.804688 4.203125 Z M 12.804688 4.203125 "/>
</g>
</svg>
