<?xml version="1.0" encoding="UTF-8"?>
<svg xmlns="http://www.w3.org/2000/svg" xmlns:xlink="http://www.w3.org/1999/xlink" width="15pt" height="15pt" viewBox="0 0 15 15" version="1.1">
<g id="surface1">
<path style=" stroke:none;fill-rule:nonzero;fill:rgb(80%,83.921569%,86.666667%);fill-opacity:1;" d="M 13.980469 7.457031 C 14.039062 7.484375 14.105469 7.5 14.167969 7.5 C 14.320312 7.5 14.464844 7.414062 14.539062 7.269531 C 14.640625 7.0625 14.558594 6.8125 14.351562 6.710938 L 13.332031 6.199219 L 13.332031 5.464844 L 13.980469 5.789062 C 14.039062 5.820312 14.105469 5.832031 14.167969 5.832031 C 14.320312 5.832031 14.464844 5.75 14.539062 5.601562 C 14.640625 5.398438 14.558594 5.148438 14.351562 5.042969 L 13.332031 4.535156 L 13.332031 2.917969 C 13.332031 2.6875 13.148438 2.5 12.917969 2.5 C 12.6875 2.5 12.5 2.6875 12.5 2.917969 L 12.5 4.117188 L 11.851562 3.792969 C 11.722656 3.726562 11.328125 3.75 11.25 3.75 L 10.417969 3.75 L 10.417969 2.5 C 10.417969 2.269531 10.230469 2.082031 10 2.082031 C 9.769531 2.082031 9.582031 2.269531 9.582031 2.5 L 9.582031 3.75 L 8.75 3.75 L 8.75 2.5 C 8.75 2.269531 8.5625 2.082031 8.332031 2.082031 C 8.101562 2.082031 7.917969 2.269531 7.917969 2.5 L 7.917969 3.75 L 7.082031 3.75 L 7.082031 2.5 C 7.082031 2.269531 6.898438 2.082031 6.667969 2.082031 C 6.4375 2.082031 6.25 2.269531 6.25 2.5 L 6.25 3.75 L 5.417969 3.75 L 5.417969 2.511719 C 5.417969 2.28125 5.230469 2.09375 5 2.09375 C 4.769531 2.09375 4.582031 2.28125 4.582031 2.511719 L 4.582031 3.75 L 3.75 3.75 C 3.671875 3.75 3.277344 3.730469 3.148438 3.792969 L 2.5 4.117188 L 2.5 2.917969 C 2.5 2.6875 2.3125 2.5 2.082031 2.5 C 1.851562 2.5 1.667969 2.6875 1.667969 2.917969 L 1.667969 4.535156 L 0.648438 5.042969 C 0.441406 5.148438 0.359375 5.398438 0.460938 5.601562 C 0.535156 5.75 0.679688 5.832031 0.832031 5.832031 C 0.894531 5.832031 0.960938 5.820312 1.019531 5.789062 L 1.667969 5.464844 L 1.667969 6.199219 L 0.648438 6.710938 C 0.441406 6.8125 0.359375 7.0625 0.460938 7.269531 C 0.535156 7.414062 0.679688 7.5 0.832031 7.5 C 0.894531 7.5 0.960938 7.484375 1.019531 7.457031 L 1.667969 7.132812 L 1.667969 7.867188 L 0.648438 8.378906 C 0.441406 8.480469 0.359375 8.730469 0.460938 8.9375 C 0.535156 9.082031 0.679688 9.167969 0.832031 9.167969 C 0.894531 9.167969 0.960938 9.152344 1.019531 9.121094 L 1.667969 8.800781 L 1.667969 9.535156 L 0.648438 10.042969 C 0.441406 10.148438 0.359375 10.398438 0.460938 10.601562 C 0.535156 10.75 0.679688 10.832031 0.832031 10.832031 C 0.894531 10.832031 0.960938 10.820312 1.019531 10.789062 L 1.667969 10.464844 L 1.667969 11.199219 L 0.648438 11.710938 C 0.441406 11.8125 0.359375 12.0625 0.460938 12.269531 C 0.535156 12.414062 0.679688 12.5 0.832031 12.5 C 0.894531 12.5 0.960938 12.484375 1.019531 12.457031 L 1.667969 12.132812 L 1.667969 12.5 C 1.667969 12.730469 1.851562 12.917969 2.082031 12.917969 C 2.3125 12.917969 2.5 12.730469 2.5 12.5 L 2.5 11.714844 L 3.433594 11.25 L 4.582031 11.25 L 4.582031 12.027344 C 4.582031 12.257812 4.769531 12.445312 5 12.445312 C 5.230469 12.445312 5.417969 12.257812 5.417969 12.027344 L 5.417969 11.25 L 6.25 11.25 L 6.25 12.082031 C 6.25 12.3125 6.4375 12.5 6.667969 12.5 C 6.898438 12.5 7.082031 12.3125 7.082031 12.082031 L 7.082031 11.25 L 7.917969 11.25 L 7.917969 12.144531 C 7.917969 12.375 8.101562 12.5625 8.332031 12.5625 C 8.5625 12.5625 8.75 12.375 8.75 12.144531 L 8.75 11.25 L 9.582031 11.25 L 9.582031 12.144531 C 9.582031 12.375 9.769531 12.5625 10 12.5625 C 10.230469 12.5625 10.417969 12.375 10.417969 12.144531 L 10.417969 11.25 L 11.570312 11.25 L 12.5 11.714844 L 12.5 12.5 C 12.5 12.730469 12.6875 12.917969 12.917969 12.917969 C 13.148438 12.917969 13.332031 12.730469 13.332031 12.5 L 13.332031 12.132812 L 13.980469 12.457031 C 14.039062 12.484375 14.105469 12.5 14.167969 12.5 C 14.320312 12.5 14.464844 12.414062 14.539062 12.269531 C 14.640625 12.0625 14.558594 11.8125 14.351562 11.710938 L 13.332031 11.199219 L 13.332031 10.464844 L 13.980469 10.789062 C 14.039062 10.816406 14.105469 10.832031 14.167969 10.832031 C 14.320312 10.832031 14.464844 10.75 14.539062 10.601562 C 14.640625 10.394531 14.558594 10.144531 14.351562 10.042969 L 13.332031 9.535156 L 13.332031 8.796875 L 13.980469 9.121094 C 14.039062 9.152344 14.105469 9.164062 14.167969 9.164062 C 14.320312 9.164062 14.464844 9.082031 14.539062 8.933594 C 14.640625 8.730469 14.558594 8.480469 14.351562 8.375 L 13.332031 7.867188 L 13.332031 7.132812 Z M 4.582031 10.417969 L 3.75 10.417969 C 3.671875 10.417969 3.277344 10.394531 3.148438 10.460938 L 2.5 10.785156 L 2.5 10.050781 L 3.433594 9.582031 L 4.582031 9.582031 Z M 4.582031 8.75 L 3.75 8.75 C 3.671875 8.75 3.277344 8.730469 3.148438 8.792969 L 2.5 9.117188 L 2.5 8.382812 L 3.433594 7.917969 L 4.582031 7.917969 Z M 4.582031 7.082031 L 3.75 7.082031 C 3.671875 7.082031 3.277344 7.0625 3.148438 7.128906 L 2.5 7.449219 L 2.5 6.714844 L 3.433594 6.25 L 4.582031 6.25 Z M 4.582031 5.417969 L 3.75 5.417969 C 3.671875 5.417969 3.277344 5.394531 3.148438 5.460938 L 2.5 5.785156 L 2.5 5.050781 L 3.433594 4.582031 L 4.582031 4.582031 Z M 6.25 10.417969 L 5.417969 10.417969 L 5.417969 9.582031 L 6.25 9.582031 Z M 6.25 8.75 L 5.417969 8.75 L 5.417969 7.917969 L 6.25 7.917969 Z M 6.25 7.082031 L 5.417969 7.082031 L 5.417969 6.25 L 6.25 6.25 Z M 6.25 5.417969 L 5.417969 5.417969 L 5.417969 4.582031 L 6.25 4.582031 Z M 7.917969 10.417969 L 7.082031 10.417969 L 7.082031 9.582031 L 7.917969 9.582031 Z M 7.917969 8.75 L 7.082031 8.75 L 7.082031 7.917969 L 7.917969 7.917969 Z M 7.917969 7.082031 L 7.082031 7.082031 L 7.082031 6.25 L 7.917969 6.25 Z M 7.917969 5.417969 L 7.082031 5.417969 L 7.082031 4.582031 L 7.917969 4.582031 Z M 9.582031 10.417969 L 8.75 10.417969 L 8.75 9.582031 L 9.582031 9.582031 Z M 9.582031 8.75 L 8.75 8.75 L 8.75 7.917969 L 9.582031 7.917969 Z M 9.582031 7.082031 L 8.75 7.082031 L 8.75 6.25 L 9.582031 6.25 Z M 9.582031 5.417969 L 8.75 5.417969 L 8.75 4.582031 L 9.582031 4.582031 Z M 12.5 10.785156 L 11.851562 10.460938 C 11.722656 10.394531 11.328125 10.417969 11.25 10.417969 L 10.417969 10.417969 L 10.417969 9.582031 L 11.570312 9.582031 L 12.5 10.046875 Z M 12.5 9.117188 L 11.851562 8.792969 C 11.722656 8.726562 11.328125 8.75 11.25 8.75 L 10.417969 8.75 L 10.417969 7.917969 L 11.566406 7.917969 L 12.5 8.382812 Z M 12.5 7.449219 L 11.851562 7.128906 C 11.722656 7.0625 11.328125 7.082031 11.25 7.082031 L 10.417969 7.082031 L 10.417969 6.25 L 11.566406 6.25 L 12.5 6.714844 Z M 12.5 5.785156 L 11.851562 5.460938 C 11.722656 5.394531 11.328125 5.417969 11.25 5.417969 L 10.417969 5.417969 L 10.417969 4.582031 L 11.566406 4.582031 L 12.5 5.050781 Z M 12.5 5.785156 "/>
<path style=" stroke:none;fill-rule:nonzero;fill:rgb(54.901961%,59.607843%,62.352941%);fill-opacity:1;" d="M 0.832031 14.167969 C 0.753906 14.167969 0.671875 14.144531 0.601562 14.097656 C 0.410156 13.96875 0.359375 13.710938 0.488281 13.519531 C 1.097656 12.605469 2.0625 12.082031 3.144531 12.082031 L 11.8125 12.082031 C 12.898438 12.058594 13.894531 12.589844 14.511719 13.519531 C 14.640625 13.710938 14.589844 13.96875 14.398438 14.097656 C 14.207031 14.222656 13.949219 14.171875 13.820312 13.980469 C 13.355469 13.28125 12.660156 12.890625 11.820312 12.917969 L 3.1875 12.917969 C 2.355469 12.910156 1.644531 13.28125 1.179688 13.980469 C 1.097656 14.101562 0.96875 14.167969 0.832031 14.167969 Z M 0.832031 14.167969 "/>
<path style=" stroke:none;fill-rule:nonzero;fill:rgb(54.901961%,59.607843%,62.352941%);fill-opacity:1;" d="M 11.667969 12.5 C 11.4375 12.5 11.25 12.3125 11.25 12.082031 L 11.25 2.636719 C 11.25 2.40625 11.4375 2.21875 11.667969 2.21875 C 11.898438 2.21875 12.082031 2.40625 12.082031 2.636719 L 12.082031 12.082031 C 12.082031 12.3125 11.898438 12.5 11.667969 12.5 Z M 3.332031 12.445312 C 3.101562 12.445312 2.917969 12.257812 2.917969 12.027344 L 2.917969 2.511719 C 2.917969 2.28125 3.101562 2.09375 3.332031 2.09375 C 3.5625 2.09375 3.75 2.28125 3.75 2.511719 L 3.75 12.027344 C 3.75 12.257812 3.5625 12.445312 3.332031 12.445312 Z M 3.332031 12.445312 "/>
<path style=" stroke:none;fill-rule:nonzero;fill:rgb(74.509804%,12.54902%,19.607843%);fill-opacity:1;" d="M 14.167969 14.269531 C 13.878906 14.269531 13.644531 14.039062 13.644531 13.75 L 13.644531 5 C 13.644531 3.910156 12.757812 3.019531 11.667969 3.019531 L 3.332031 3.019531 C 2.242188 3.019531 1.355469 3.910156 1.355469 5 L 1.355469 13.75 C 1.355469 14.039062 1.121094 14.269531 0.832031 14.269531 C 0.546875 14.269531 0.3125 14.039062 0.3125 13.75 L 0.3125 5 C 0.3125 3.335938 1.667969 1.980469 3.332031 1.980469 L 11.667969 1.980469 C 13.332031 1.980469 14.6875 3.335938 14.6875 5 L 14.6875 13.75 C 14.6875 14.039062 14.453125 14.269531 14.167969 14.269531 Z M 14.167969 14.269531 "/>
</g>
</svg>
