<?xml version="1.0" encoding="UTF-8"?>
<svg xmlns="http://www.w3.org/2000/svg" xmlns:xlink="http://www.w3.org/1999/xlink" width="15pt" height="15pt" viewBox="0 0 15 15" version="1.1">
<g id="surface1">
<path style=" stroke:none;fill-rule:nonzero;fill:rgb(98.039216%,45.490196%,24.313725%);fill-opacity:1;" d="M 12.148438 1.734375 C 11.941406 1.628906 11.859375 1.378906 11.960938 1.175781 L 12.40625 0.28125 C 12.507812 0.0742188 12.761719 -0.0078125 12.964844 0.09375 C 13.171875 0.195312 13.253906 0.445312 13.152344 0.652344 L 12.707031 1.546875 C 12.605469 1.75 12.351562 1.835938 12.148438 1.734375 M 12.558594 2.648438 L 12.546875 2.613281 C 12.476562 2.40625 12.589844 2.179688 12.796875 2.109375 L 14.421875 1.570312 C 14.628906 1.5 14.859375 1.613281 14.925781 1.820312 L 14.9375 1.855469 C 15.007812 2.0625 14.894531 2.292969 14.6875 2.359375 L 13.0625 2.902344 C 12.851562 2.96875 12.625 2.855469 12.558594 2.648438 M 12.769531 3.59375 C 12.667969 3.796875 12.753906 4.050781 12.957031 4.152344 L 13.851562 4.597656 C 14.058594 4.699219 14.308594 4.613281 14.410156 4.410156 C 14.511719 4.203125 14.429688 3.953125 14.222656 3.851562 L 13.328125 3.40625 C 13.125 3.304688 12.871094 3.386719 12.769531 3.59375 "/>
<path style=" stroke:none;fill-rule:nonzero;fill:rgb(88.235294%,90.980392%,92.941176%);fill-opacity:1;" d="M 4.636719 13.34375 C 4.203125 13.199219 3.339844 12.949219 3.523438 11.480469 L 3.789062 9.324219 C 3.839844 8.917969 4.28125 8.796875 4.761719 8.570312 C 5.179688 8.371094 6.183594 7.691406 6.433594 5.710938 C 6.648438 3.980469 6.320312 1.246094 6.234375 0.582031 L 4.328125 0.363281 L 2.421875 0.140625 C 2.1875 0.765625 1.242188 3.355469 1.058594 5.089844 C 0.847656 7.074219 1.671875 7.964844 2.03125 8.253906 C 2.449219 8.585938 2.847656 8.804688 2.804688 9.210938 C 2.761719 9.613281 2.730469 9.898438 2.574219 11.371094 C 2.417969 12.839844 1.519531 12.886719 1.0625 12.929688 C 0.199219 13.011719 0.148438 13.714844 0.566406 13.757812 C 0.988281 13.804688 2.75 14.011719 2.75 14.011719 C 2.75 14.011719 4.511719 14.210938 4.929688 14.261719 C 5.347656 14.316406 5.460938 13.621094 4.636719 13.34375 Z M 4.636719 13.34375 "/>
<path style=" stroke:none;fill-rule:nonzero;fill:rgb(100%,80%,30.196078%);fill-opacity:1;" d="M 5.742188 1.464844 C 5.582031 1.566406 4.761719 2.011719 3.765625 2.09375 C 3.078125 2.152344 2.222656 2.0625 2.085938 2.527344 C 1.800781 3.460938 1.578125 4.285156 1.488281 5.136719 C 1.316406 6.746094 1.875 7.523438 2.207031 7.835938 L 2.21875 7.84375 C 2.257812 7.878906 2.65625 8.179688 3.40625 8.265625 C 4.148438 8.355469 4.621094 8.152344 4.675781 8.128906 C 4.679688 8.125 4.683594 8.125 4.6875 8.121094 C 5.085938 7.894531 5.804688 7.265625 6.003906 5.660156 C 6.152344 4.472656 6.03125 2.769531 5.921875 1.660156 C 5.914062 1.574219 5.902344 1.363281 5.742188 1.464844 Z M 5.742188 1.464844 "/>
<path style=" stroke:none;fill-rule:nonzero;fill:rgb(100%,85.098039%,51.372549%);fill-opacity:1;" d="M 5.414062 2.722656 C 5.414062 2.871094 5.296875 2.992188 5.148438 2.992188 C 5 2.992188 4.878906 2.871094 4.878906 2.722656 C 4.878906 2.574219 5 2.453125 5.148438 2.453125 C 5.296875 2.453125 5.414062 2.574219 5.414062 2.722656 Z M 5.414062 2.722656 "/>
<path style=" stroke:none;fill-rule:nonzero;fill:rgb(100%,85.098039%,51.372549%);fill-opacity:1;" d="M 4.535156 3.617188 C 4.535156 3.765625 4.414062 3.886719 4.265625 3.886719 C 4.117188 3.886719 4 3.765625 4 3.617188 C 4 3.46875 4.117188 3.347656 4.265625 3.347656 C 4.414062 3.347656 4.535156 3.46875 4.535156 3.617188 Z M 4.535156 3.617188 "/>
<path style=" stroke:none;fill-rule:nonzero;fill:rgb(100%,85.098039%,51.372549%);fill-opacity:1;" d="M 5.542969 4.648438 C 5.542969 4.796875 5.425781 4.917969 5.277344 4.917969 C 5.128906 4.917969 5.007812 4.796875 5.007812 4.648438 C 5.007812 4.5 5.128906 4.378906 5.277344 4.378906 C 5.425781 4.378906 5.542969 4.5 5.542969 4.648438 Z M 5.542969 4.648438 "/>
<path style=" stroke:none;fill-rule:nonzero;fill:rgb(100%,85.098039%,51.372549%);fill-opacity:1;" d="M 4.089844 5.320312 C 4.089844 5.46875 3.96875 5.589844 3.820312 5.589844 C 3.671875 5.589844 3.554688 5.46875 3.554688 5.320312 C 3.554688 5.171875 3.671875 5.050781 3.820312 5.050781 C 3.96875 5.050781 4.089844 5.171875 4.089844 5.320312 Z M 4.089844 5.320312 "/>
<path style=" stroke:none;fill-rule:nonzero;fill:rgb(100%,85.098039%,51.372549%);fill-opacity:1;" d="M 3.230469 4.207031 C 3.230469 4.355469 3.113281 4.476562 2.964844 4.476562 C 2.816406 4.476562 2.695312 4.355469 2.695312 4.207031 C 2.695312 4.058594 2.816406 3.9375 2.964844 3.9375 C 3.113281 3.9375 3.230469 4.058594 3.230469 4.207031 Z M 3.230469 4.207031 "/>
<path style=" stroke:none;fill-rule:nonzero;fill:rgb(100%,85.098039%,51.372549%);fill-opacity:1;" d="M 3.089844 2.933594 C 3.089844 3.082031 2.96875 3.203125 2.820312 3.203125 C 2.671875 3.203125 2.550781 3.082031 2.550781 2.933594 C 2.550781 2.785156 2.671875 2.667969 2.820312 2.667969 C 2.96875 2.667969 3.089844 2.785156 3.089844 2.933594 Z M 3.089844 2.933594 "/>
<path style=" stroke:none;fill-rule:nonzero;fill:rgb(88.235294%,90.980392%,92.941176%);fill-opacity:1;" d="M 8.664062 13.949219 C 9.097656 13.804688 9.964844 13.550781 9.78125 12.082031 L 9.511719 9.929688 C 9.460938 9.523438 9.019531 9.402344 8.539062 9.171875 C 8.121094 8.976562 7.117188 8.296875 6.871094 6.316406 C 6.652344 4.585938 6.980469 1.847656 7.066406 1.1875 L 8.972656 0.96875 L 10.878906 0.746094 C 11.113281 1.371094 12.058594 3.960938 12.242188 5.695312 C 12.453125 7.679688 11.628906 8.570312 11.265625 8.859375 C 10.851562 9.1875 10.453125 9.410156 10.496094 9.8125 C 10.539062 10.21875 10.570312 10.503906 10.726562 11.972656 C 10.882812 13.445312 11.78125 13.492188 12.238281 13.535156 C 13.101562 13.617188 13.152344 14.320312 12.730469 14.363281 C 12.3125 14.410156 10.550781 14.613281 10.550781 14.613281 C 10.550781 14.613281 8.789062 14.816406 8.371094 14.867188 C 7.953125 14.921875 7.839844 14.226562 8.664062 13.949219 Z M 8.664062 13.949219 "/>
<path style=" stroke:none;fill-rule:nonzero;fill:rgb(100%,80%,30.196078%);fill-opacity:1;" d="M 7.558594 2.070312 C 7.71875 2.171875 8.542969 2.613281 9.535156 2.699219 C 10.222656 2.753906 11.078125 2.667969 11.21875 3.132812 C 11.5 4.066406 11.722656 4.890625 11.816406 5.742188 C 11.984375 7.351562 11.429688 8.128906 11.09375 8.441406 L 11.085938 8.449219 C 11.042969 8.480469 10.644531 8.785156 9.898438 8.871094 C 9.152344 8.957031 8.683594 8.757812 8.628906 8.734375 C 8.621094 8.730469 8.621094 8.730469 8.613281 8.726562 C 8.21875 8.5 7.496094 7.871094 7.296875 6.261719 C 7.148438 5.078125 7.269531 3.375 7.378906 2.265625 C 7.386719 2.179688 7.398438 1.96875 7.558594 2.070312 Z M 7.558594 2.070312 "/>
<path style=" stroke:none;fill-rule:nonzero;fill:rgb(100%,85.098039%,51.372549%);fill-opacity:1;" d="M 8.421875 3.328125 C 8.421875 3.476562 8.304688 3.597656 8.15625 3.597656 C 8.007812 3.597656 7.886719 3.476562 7.886719 3.328125 C 7.886719 3.179688 8.007812 3.058594 8.15625 3.058594 C 8.304688 3.058594 8.421875 3.179688 8.421875 3.328125 Z M 8.421875 3.328125 "/>
<path style=" stroke:none;fill-rule:nonzero;fill:rgb(100%,85.098039%,51.372549%);fill-opacity:1;" d="M 9.304688 4.222656 C 9.304688 4.371094 9.183594 4.492188 9.035156 4.492188 C 8.886719 4.492188 8.765625 4.371094 8.765625 4.222656 C 8.765625 4.074219 8.886719 3.953125 9.035156 3.953125 C 9.183594 3.953125 9.304688 4.074219 9.304688 4.222656 Z M 9.304688 4.222656 "/>
<path style=" stroke:none;fill-rule:nonzero;fill:rgb(100%,85.098039%,51.372549%);fill-opacity:1;" d="M 8.292969 5.253906 C 8.292969 5.402344 8.175781 5.523438 8.027344 5.523438 C 7.878906 5.523438 7.757812 5.402344 7.757812 5.253906 C 7.757812 5.105469 7.878906 4.984375 8.027344 4.984375 C 8.175781 4.984375 8.292969 5.105469 8.292969 5.253906 Z M 8.292969 5.253906 "/>
<path style=" stroke:none;fill-rule:nonzero;fill:rgb(100%,85.098039%,51.372549%);fill-opacity:1;" d="M 9.746094 5.925781 C 9.746094 6.074219 9.628906 6.195312 9.480469 6.195312 C 9.332031 6.195312 9.210938 6.074219 9.210938 5.925781 C 9.210938 5.777344 9.332031 5.65625 9.480469 5.65625 C 9.628906 5.65625 9.746094 5.777344 9.746094 5.925781 Z M 9.746094 5.925781 "/>
<path style=" stroke:none;fill-rule:nonzero;fill:rgb(100%,85.098039%,51.372549%);fill-opacity:1;" d="M 10.605469 4.8125 C 10.605469 4.960938 10.488281 5.078125 10.339844 5.078125 C 10.191406 5.078125 10.070312 4.960938 10.070312 4.8125 C 10.070312 4.664062 10.191406 4.542969 10.339844 4.542969 C 10.488281 4.542969 10.605469 4.664062 10.605469 4.8125 Z M 10.605469 4.8125 "/>
<path style=" stroke:none;fill-rule:nonzero;fill:rgb(100%,85.098039%,51.372549%);fill-opacity:1;" d="M 10.75 3.539062 C 10.75 3.6875 10.628906 3.808594 10.480469 3.808594 C 10.332031 3.808594 10.210938 3.6875 10.210938 3.539062 C 10.210938 3.390625 10.332031 3.269531 10.480469 3.269531 C 10.628906 3.269531 10.75 3.390625 10.75 3.539062 Z M 10.75 3.539062 "/>
</g>
</svg>
