<?xml version="1.0" encoding="UTF-8"?>
<svg xmlns="http://www.w3.org/2000/svg" xmlns:xlink="http://www.w3.org/1999/xlink" width="15pt" height="15pt" viewBox="0 0 15 15" version="1.1">
<g id="surface1">
<path style=" stroke:none;fill-rule:nonzero;fill:rgb(33.333333%,67.45098%,93.333333%);fill-opacity:1;" d="M 7.5 3.332031 L 4.582031 0 L 0 0 L 5.832031 7.082031 L 10.632812 5.105469 Z M 7.5 3.332031 "/>
<path style=" stroke:none;fill-rule:nonzero;fill:rgb(23.137255%,53.333333%,76.470588%);fill-opacity:1;" d="M 10.417969 0 L 7.5 3.332031 L 9.746094 6.378906 L 10.257812 5.757812 L 15 0 Z M 10.417969 0 "/>
<path style=" stroke:none;fill-rule:nonzero;fill:rgb(100%,54.117647%,23.137255%);fill-opacity:1;" d="M 9.667969 6.675781 C 9.703125 6.585938 9.722656 6.492188 9.722656 6.390625 C 9.722656 5.929688 9.351562 5.554688 8.890625 5.554688 L 6.113281 5.554688 C 5.652344 5.554688 5.277344 5.929688 5.277344 6.390625 C 5.277344 6.492188 5.300781 6.585938 5.332031 6.675781 C 3.976562 7.4375 3.058594 8.890625 3.058594 10.554688 C 3.054688 13.011719 5.046875 15 7.5 15 C 9.957031 15 11.945312 13.011719 11.945312 10.554688 C 11.945312 8.890625 11.027344 7.4375 9.667969 6.675781 Z M 9.667969 6.675781 "/>
<path style=" stroke:none;fill-rule:nonzero;fill:rgb(48.627451%,25.490196%,9.803922%);fill-opacity:1;" d="M 5.882812 12.230469 L 6.375 11.738281 C 6.429688 11.683594 6.507812 11.675781 6.570312 11.722656 C 6.570312 11.722656 7.050781 12.082031 7.425781 12.082031 C 7.761719 12.082031 8.105469 11.800781 8.105469 11.457031 C 8.105469 11.113281 7.753906 10.828125 7.175781 10.828125 L 6.910156 10.828125 C 6.832031 10.828125 6.761719 10.757812 6.761719 10.679688 L 6.761719 10.03125 C 6.761719 9.945312 6.832031 9.882812 6.910156 9.882812 L 7.175781 9.882812 C 7.722656 9.882812 8.011719 9.621094 8.011719 9.285156 C 8.011719 8.949219 7.722656 8.699219 7.386719 8.699219 C 7.042969 8.699219 6.828125 8.878906 6.710938 9.011719 C 6.65625 9.074219 6.5625 9.074219 6.5 9.019531 L 6.023438 8.554688 C 5.960938 8.496094 5.96875 8.40625 6.023438 8.351562 C 6.023438 8.351562 6.664062 7.664062 7.511719 7.664062 C 8.414062 7.664062 9.195312 8.21875 9.195312 9.089844 C 9.195312 9.691406 8.742188 10.132812 8.390625 10.296875 L 8.390625 10.320312 C 8.757812 10.476562 9.335938 10.960938 9.335938 11.628906 C 9.335938 12.480469 8.59375 13.117188 7.519531 13.117188 C 6.539062 13.117188 6.039062 12.636719 5.875 12.425781 C 5.828125 12.371094 5.835938 12.285156 5.882812 12.230469 Z M 5.882812 12.230469 "/>
</g>
</svg>
