<?xml version="1.0" encoding="UTF-8"?>
<svg xmlns="http://www.w3.org/2000/svg" xmlns:xlink="http://www.w3.org/1999/xlink" width="15pt" height="15pt" viewBox="0 0 15 15" version="1.1">
<g id="surface1">
<path style=" stroke:none;fill-rule:nonzero;fill:rgb(88.235294%,90.980392%,92.941176%);fill-opacity:1;" d="M 14.167969 2.5 C 13.332031 1.25 10.417969 0.832031 7.5 0.832031 C 4.582031 0.832031 1.25 1.25 0.832031 2.082031 C 0.0390625 3.671875 0.417969 10.417969 0.417969 10.832031 C 0.417969 11.25 2.5 11.25 2.5 11.25 L 2.5 5.832031 L 2.917969 5 L 2.917969 14.582031 C 2.917969 14.582031 4.167969 15 7.5 15 C 10.832031 15 12.082031 14.582031 12.082031 14.582031 L 12.082031 5 L 12.5 5.832031 L 12.5 11.25 C 12.5 11.25 14.582031 11.25 14.582031 10.832031 C 14.582031 10.417969 15.152344 3.976562 14.167969 2.5 Z M 14.167969 2.5 "/>
<path style=" stroke:none;fill-rule:nonzero;fill:rgb(60%,66.666667%,70.980392%);fill-opacity:1;" d="M 2.917969 11.25 L 2.5 11.25 L 2.5 5.832031 C 2.5 5.417969 2.917969 5 2.917969 5 Z M 12.5 11.25 L 12.082031 11.25 L 12.082031 5 C 12.082031 5 12.5 5.417969 12.5 5.832031 Z M 12.5 11.25 "/>
<path style=" stroke:none;fill-rule:nonzero;fill:rgb(40%,45.882353%,49.803922%);fill-opacity:1;" d="M 4.910156 0.832031 L 7.527344 5.558594 L 10 0.832031 L 7.453125 0.3125 Z M 4.910156 0.832031 "/>
<path style=" stroke:none;fill-rule:nonzero;fill:rgb(80%,83.921569%,86.666667%);fill-opacity:1;" d="M 5 0.261719 C 5 0.261719 5.9375 0.03125 7.5 0.03125 C 9.0625 0.03125 10 0.261719 10 0.261719 L 10 1.25 C 10 1.25 9.324219 0.832031 7.5 0.832031 C 5.675781 0.832031 5 1.25 5 1.25 Z M 5 0.261719 "/>
<path style=" stroke:none;fill-rule:nonzero;fill:rgb(60%,66.666667%,70.980392%);fill-opacity:1;" d="M 2.917969 14.582031 C 2.917969 14.582031 10.3125 1.390625 10.3125 0.984375 C 10.3125 0.566406 10 0.261719 10 0.261719 L 2.917969 13.332031 Z M 2.917969 14.582031 "/>
<path style=" stroke:none;fill-rule:nonzero;fill:rgb(60%,66.666667%,70.980392%);fill-opacity:1;" d="M 7.425781 6.132812 C 7.425781 6.132812 4.636719 1.390625 4.636719 0.984375 C 4.636719 0.566406 5 0.261719 5 0.261719 L 7.816406 5.5 Z M 7.425781 6.132812 "/>
<path style=" stroke:none;fill-rule:nonzero;fill:rgb(16.078431%,18.431373%,20%);fill-opacity:1;" d="M 2.917969 9.167969 C 2.917969 9.167969 5 10 7.5 10 C 10 10 12.082031 9.167969 12.082031 9.167969 L 12.082031 10.417969 C 12.082031 10.417969 10.417969 11.25 7.5 11.25 C 4.582031 11.25 2.917969 10.417969 2.917969 10.417969 Z M 2.917969 9.167969 "/>
<path style=" stroke:none;fill-rule:nonzero;fill:rgb(16.078431%,18.431373%,20%);fill-opacity:1;" d="M 8.75 10 C 8.75 10 7.917969 9.582031 7.5 9.582031 C 7.082031 9.582031 6.25 10 6.25 10 C 6.25 10 5.832031 10 5.832031 10.417969 C 5.832031 10.832031 6.25 11.25 6.25 11.25 C 6.25 11.25 7.082031 11.667969 7.5 11.667969 C 7.917969 11.667969 8.75 11.25 8.75 11.25 C 8.75 11.25 9.167969 10.832031 9.167969 10.417969 C 9.167969 10 8.75 10 8.75 10 Z M 8.75 10 "/>
<path style=" stroke:none;fill-rule:nonzero;fill:rgb(16.078431%,18.431373%,20%);fill-opacity:1;" d="M 5 13.75 L 6.25 14.167969 C 6.25 14.167969 6.667969 12.082031 7.5 11.25 L 6.667969 10 C 6.667969 10 5.417969 11.667969 5 13.75 Z M 10 13.75 L 8.75 14.167969 C 8.75 14.167969 8.332031 12.082031 7.5 11.25 L 8.332031 10 C 8.332031 10 9.582031 11.667969 10 13.75 Z M 10 13.75 "/>
</g>
</svg>
