<?xml version="1.0" encoding="UTF-8"?>
<svg xmlns="http://www.w3.org/2000/svg" xmlns:xlink="http://www.w3.org/1999/xlink" width="15pt" height="15pt" viewBox="0 0 15 15" version="1.1">
<g id="surface1">
<path style=" stroke:none;fill-rule:nonzero;fill:rgb(74.509804%,9.803922%,19.215686%);fill-opacity:1;" d="M 11.667969 5 L 5.417969 5 L 5.417969 3.332031 C 5.417969 3.101562 5.601562 2.917969 5.832031 2.917969 L 10.417969 2.917969 C 10.875 2.917969 11.25 2.542969 11.25 2.082031 C 11.25 1.625 10.875 1.25 10.417969 1.25 L 5.832031 1.25 C 4.683594 1.25 3.75 2.183594 3.75 3.332031 L 3.75 5 L 3.332031 5 C 2.875 5 2.5 5.375 2.5 5.832031 C 2.5 6.292969 2.875 6.667969 3.332031 6.667969 L 11.667969 6.667969 C 12.125 6.667969 12.5 6.292969 12.5 5.832031 C 12.5 5.375 12.125 5 11.667969 5 Z M 11.667969 5 "/>
<path style=" stroke:none;fill-rule:nonzero;fill:rgb(40%,45.882353%,49.803922%);fill-opacity:1;" d="M 15 10.417969 C 15 11.796875 13.878906 12.917969 12.5 12.917969 L 2.5 12.917969 C 1.121094 12.917969 0 11.796875 0 10.417969 L 0 8.332031 C 0 6.953125 1.121094 5.832031 2.5 5.832031 L 12.5 5.832031 C 13.878906 5.832031 15 6.953125 15 8.332031 Z M 15 10.417969 "/>
<path style=" stroke:none;fill-rule:nonzero;fill:rgb(60%,66.666667%,70.980392%);fill-opacity:1;" d="M 0 8.332031 L 15 8.332031 L 15 10.417969 L 0 10.417969 Z M 0 8.332031 "/>
</g>
</svg>
