<?xml version="1.0" encoding="UTF-8"?>
<svg xmlns="http://www.w3.org/2000/svg" xmlns:xlink="http://www.w3.org/1999/xlink" width="15pt" height="15pt" viewBox="0 0 15 15" version="1.1">
<g id="surface1">
<path style=" stroke:none;fill-rule:nonzero;fill:rgb(74.509804%,9.803922%,19.215686%);fill-opacity:1;" d="M 8.164062 0.136719 C 12.171875 0.136719 13.265625 0.84375 13.265625 4.847656 C 13.265625 7.144531 12.78125 8.386719 12.78125 10.46875 C 12.78125 11.703125 10.882812 11.71875 9.171875 11.71875 C 7.414062 11.71875 5.363281 11.800781 4.449219 10.886719 C 1.949219 8.386719 0.0546875 4.03125 3.613281 2.96875 C 3.804688 0.253906 4.160156 0.136719 8.164062 0.136719 Z M 8.164062 0.136719 "/>
<path style=" stroke:none;fill-rule:nonzero;fill:rgb(60%,66.666667%,70.980392%);fill-opacity:1;" d="M 11.140625 10.832031 C 12.070312 10.832031 12.917969 11.191406 12.917969 12.042969 L 12.917969 13.507812 C 12.917969 14.359375 12.070312 15 11.140625 15 L 6.25 15 L 6.25 10.832031 Z M 11.140625 10.832031 "/>
<path style=" stroke:none;fill-rule:nonzero;fill:rgb(80%,83.921569%,86.666667%);fill-opacity:1;" d="M 9.308594 10.832031 C 10.332031 10.832031 11.25 11.191406 11.25 12.042969 L 11.25 13.507812 C 11.25 14.359375 10.332031 15 9.308594 15 L 6.253906 15 C 5.230469 15 4.582031 14.359375 4.582031 13.507812 L 4.582031 12.042969 C 4.582031 11.191406 5.230469 10.832031 6.253906 10.832031 Z M 9.308594 10.832031 "/>
<path style=" stroke:none;fill-rule:nonzero;fill:rgb(62.745098%,1.568627%,11.764706%);fill-opacity:1;" d="M 1.789062 4.5625 C 2.085938 4.320312 2.5625 3.96875 2.78125 5.050781 C 3.199219 7.136719 4.363281 8.960938 4.03125 7.96875 C 3.613281 6.71875 3.613281 2.96875 3.613281 2.96875 C 2.597656 3.273438 2.027344 3.84375 1.789062 4.5625 Z M 1.789062 4.5625 "/>
<path style=" stroke:none;fill-rule:nonzero;fill:rgb(88.235294%,90.980392%,92.941176%);fill-opacity:1;" d="M 9.03125 11.667969 C 9.492188 11.667969 10 11.890625 10 12.273438 L 10 13.664062 C 10 14.046875 9.492188 14.167969 9.03125 14.167969 L 6.949219 14.167969 C 6.488281 14.167969 6.25 14.046875 6.25 13.664062 L 6.25 12.273438 C 6.25 11.890625 6.488281 11.667969 6.949219 11.667969 Z M 9.03125 11.667969 "/>
</g>
</svg>
