<?xml version="1.0" encoding="UTF-8"?>
<svg xmlns="http://www.w3.org/2000/svg" xmlns:xlink="http://www.w3.org/1999/xlink" width="15pt" height="15pt" viewBox="0 0 15 15" version="1.1">
<g id="surface1">
<path style=" stroke:none;fill-rule:nonzero;fill:rgb(16.078431%,18.431373%,20%);fill-opacity:1;" d="M 13.597656 2.734375 L 11.660156 3.359375 L 12.273438 1.417969 L 10.339844 2.039062 L 10.527344 1.457031 L 10.367188 1.40625 L 10.140625 2.101562 L 9.367188 2.351562 L 9.65625 1.457031 L 9.496094 1.40625 L 9.167969 2.417969 L 7.949219 2.808594 L 8 2.96875 L 9.101562 2.617188 L 8.851562 3.390625 L 7.753906 3.746094 L 7.808594 3.90625 L 8.785156 3.589844 L 8.535156 4.367188 L 7.226562 4.789062 L 7.277344 4.949219 L 7.496094 4.878906 L 7.242188 5.660156 L 6.289062 5.96875 L 6.34375 6.128906 L 7.175781 5.859375 L 6.921875 6.644531 L 5.941406 6.960938 L 5.992188 7.125 L 6.859375 6.84375 L 6.605469 7.617188 L 5.941406 7.835938 L 5.992188 7.996094 L 6.542969 7.816406 L 6.226562 8.792969 L 7.199219 8.476562 L 7.023438 9.027344 L 7.183594 9.078125 L 7.398438 8.410156 L 8.175781 8.160156 L 7.894531 9.027344 L 8.054688 9.078125 L 8.375 8.09375 L 9.15625 7.839844 L 8.886719 8.675781 L 9.050781 8.726562 L 9.359375 7.777344 L 10.335938 7.457031 L 10.652344 6.484375 L 11.425781 6.234375 L 11.109375 7.210938 L 11.273438 7.261719 L 11.625 6.167969 L 12.402344 5.917969 L 12.046875 7.019531 L 12.210938 7.070312 L 12.601562 5.851562 L 13.613281 5.523438 L 13.5625 5.363281 L 12.667969 5.652344 L 12.914062 4.878906 L 13.613281 4.652344 L 13.5625 4.488281 L 12.980469 4.679688 Z M 13.34375 2.992188 L 13.09375 3.765625 L 12.320312 4.019531 L 12.570312 3.242188 Z M 12.371094 3.308594 L 12.121094 4.082031 L 11.34375 4.332031 L 11.59375 3.558594 Z M 10.421875 3.9375 L 10.167969 4.714844 L 9.390625 4.964844 L 9.644531 4.1875 Z M 9.707031 3.988281 L 9.960938 3.210938 L 10.734375 2.960938 L 10.484375 3.738281 Z M 10.621094 3.871094 L 11.394531 3.621094 L 11.144531 4.398438 L 10.367188 4.648438 Z M 10.105469 4.914062 L 9.851562 5.691406 L 9.074219 5.945312 L 9.328125 5.164062 Z M 9.191406 5.03125 L 8.417969 5.28125 L 8.667969 4.5 L 9.445312 4.25 Z M 9.125 5.230469 L 8.871094 6.011719 L 8.097656 6.261719 L 8.351562 5.480469 Z M 8.808594 6.210938 L 8.554688 6.984375 L 7.78125 7.234375 L 8.03125 6.460938 Z M 9.007812 6.144531 L 9.789062 5.890625 L 9.539062 6.667969 L 8.757812 6.917969 Z M 9.988281 5.828125 L 10.765625 5.574219 L 10.515625 6.347656 L 9.738281 6.601562 Z M 10.050781 5.628906 L 10.304688 4.847656 L 11.082031 4.597656 L 10.832031 5.375 Z M 11.28125 4.53125 L 12.054688 4.28125 L 11.804688 5.058594 L 11.03125 5.308594 Z M 11.460938 3.421875 L 10.683594 3.671875 L 10.933594 2.898438 L 11.710938 2.648438 Z M 12.023438 1.675781 L 11.773438 2.449219 L 11 2.699219 L 11.25 1.921875 Z M 11.050781 1.988281 L 10.800781 2.761719 L 10.023438 3.011719 L 10.277344 2.238281 Z M 9.300781 2.550781 L 10.074219 2.300781 L 9.824219 3.078125 L 9.050781 3.328125 Z M 8.984375 3.527344 L 9.761719 3.277344 L 9.507812 4.050781 L 8.734375 4.300781 Z M 7.695312 4.816406 L 8.46875 4.566406 L 8.214844 5.34375 L 7.441406 5.597656 Z M 7.378906 5.796875 L 8.152344 5.542969 L 7.898438 6.328125 L 7.121094 6.578125 Z M 7.058594 6.777344 L 7.832031 6.527344 L 7.582031 7.300781 L 6.808594 7.550781 Z M 6.488281 8.527344 L 6.742188 7.753906 L 7.515625 7.5 L 7.265625 8.277344 Z M 7.464844 8.210938 L 7.714844 7.433594 L 8.492188 7.183594 L 8.238281 7.960938 Z M 8.441406 7.894531 L 8.691406 7.121094 L 9.472656 6.867188 L 9.222656 7.640625 Z M 10.203125 7.324219 L 9.421875 7.574219 L 9.671875 6.800781 L 10.453125 6.546875 Z M 10.714844 6.285156 L 10.964844 5.507812 L 11.742188 5.257812 L 11.492188 6.03125 Z M 12.464844 5.714844 L 11.691406 5.96875 L 11.941406 5.191406 L 12.714844 4.941406 Z M 12.78125 4.742188 L 12.003906 4.992188 L 12.253906 4.214844 L 13.027344 3.964844 Z M 12.78125 4.742188 "/>
<path style=" stroke:none;fill-rule:nonzero;fill:rgb(80%,83.921569%,86.666667%);fill-opacity:1;" d="M 0.53125 14.957031 C 0.40625 14.957031 0.285156 14.910156 0.1875 14.816406 C 0 14.625 0 14.320312 0.1875 14.128906 L 5.054688 9.265625 C 5.246094 9.074219 5.550781 9.074219 5.742188 9.265625 C 5.929688 9.453125 5.929688 9.761719 5.742188 9.949219 L 0.875 14.816406 C 0.78125 14.910156 0.65625 14.957031 0.53125 14.957031 Z M 0.53125 14.957031 "/>
<path style=" stroke:none;fill-rule:nonzero;fill:rgb(16.078431%,18.431373%,20%);fill-opacity:1;" d="M 11.578125 7.199219 L 10.960938 7.105469 C 11.101562 6.21875 10.835938 5.367188 10.238281 4.769531 C 9.636719 4.167969 8.789062 3.902344 7.902344 4.042969 L 7.804688 3.429688 C 8.886719 3.261719 9.933594 3.589844 10.675781 4.328125 C 11.417969 5.070312 11.746094 6.117188 11.578125 7.199219 Z M 11.578125 7.199219 "/>
<path style=" stroke:none;fill-rule:nonzero;fill:rgb(16.078431%,18.431373%,20%);fill-opacity:1;" d="M 12.734375 6.917969 L 12.117188 6.835938 C 12.261719 5.730469 11.902344 4.652344 11.128906 3.875 C 10.355469 3.101562 9.273438 2.742188 8.167969 2.886719 L 8.085938 2.273438 C 9.390625 2.101562 10.65625 2.527344 11.566406 3.4375 C 12.480469 4.347656 12.902344 5.617188 12.734375 6.917969 Z M 12.734375 6.917969 "/>
<path style=" stroke:none;fill-rule:nonzero;fill:rgb(16.078431%,18.431373%,20%);fill-opacity:1;" d="M 13.910156 6.339844 L 13.292969 6.285156 C 13.402344 5.0625 12.953125 3.847656 12.054688 2.953125 C 11.15625 2.054688 9.941406 1.605469 8.71875 1.710938 L 8.664062 1.09375 C 10.070312 0.96875 11.492188 1.46875 12.519531 2.5 C 13.546875 3.527344 14.035156 4.9375 13.910156 6.339844 Z M 13.910156 6.339844 "/>
<path style=" stroke:none;fill-rule:nonzero;fill:rgb(66.666667%,72.156863%,76.078431%);fill-opacity:1;" d="M 13.554688 1.449219 C 12.292969 0.191406 10.242188 -0.703125 8.609375 0.929688 C 7.996094 1.539062 7.882812 2.144531 7.761719 2.78125 C 7.597656 3.648438 7.410156 4.632812 5.914062 6.128906 C 5.210938 6.832031 5.175781 7.40625 5.144531 7.910156 C 5.121094 8.3125 5.097656 8.660156 4.769531 9.125 C 4.683594 9.25 4.699219 9.417969 4.804688 9.523438 L 5.480469 10.203125 C 5.542969 10.261719 5.621094 10.292969 5.699219 10.292969 C 5.761719 10.292969 5.824219 10.273438 5.878906 10.234375 C 6.347656 9.90625 6.691406 9.886719 7.09375 9.859375 C 7.601562 9.832031 8.171875 9.796875 8.878906 9.089844 C 10.371094 7.597656 11.355469 7.410156 12.222656 7.246094 C 12.863281 7.125 13.464844 7.007812 14.074219 6.398438 C 15.707031 4.765625 14.816406 2.710938 13.554688 1.449219 Z M 12.109375 6.632812 C 11.199219 6.808594 10.066406 7.023438 8.4375 8.652344 C 8.359375 8.726562 8.289062 8.792969 8.21875 8.851562 C 7.765625 8.957031 7.132812 8.957031 6.589844 8.414062 C 6.046875 7.871094 6.046875 7.242188 6.15625 6.789062 C 6.210938 6.71875 6.277344 6.644531 6.351562 6.566406 C 7.984375 4.9375 8.199219 3.808594 8.371094 2.898438 C 8.484375 2.285156 8.570312 1.84375 9.046875 1.367188 C 9.15625 1.261719 9.265625 1.167969 9.375 1.085938 C 10.609375 1.203125 11.605469 1.652344 12.492188 2.511719 C 13.378906 3.375 13.816406 4.507812 13.917969 5.628906 C 13.839844 5.738281 13.746094 5.851562 13.636719 5.957031 C 13.160156 6.433594 12.71875 6.519531 12.109375 6.632812 Z M 12.109375 6.632812 "/>
<path style=" stroke:none;fill-rule:nonzero;fill:rgb(80%,83.921569%,86.666667%);fill-opacity:1;" d="M 11.808594 12.03125 C 11.808594 12.8125 11.171875 13.449219 10.390625 13.449219 C 9.609375 13.449219 8.972656 12.8125 8.972656 12.03125 C 8.972656 11.25 9.609375 10.613281 10.390625 10.613281 C 11.171875 10.613281 11.808594 11.25 11.808594 12.03125 Z M 11.808594 12.03125 "/>
<path style=" stroke:none;fill-rule:nonzero;fill:rgb(100%,100%,100%);fill-opacity:1;" d="M 11.128906 0.75 C 11.128906 1.003906 10.921875 1.207031 10.667969 1.207031 C 10.414062 1.207031 10.207031 1.003906 10.207031 0.75 C 10.207031 0.496094 10.414062 0.289062 10.667969 0.289062 C 10.921875 0.289062 11.128906 0.496094 11.128906 0.75 Z M 11.128906 0.75 "/>
<path style=" stroke:none;fill-rule:nonzero;fill:rgb(100%,100%,100%);fill-opacity:1;" d="M 12.652344 1.484375 C 12.652344 1.738281 12.445312 1.945312 12.191406 1.945312 C 11.9375 1.945312 11.730469 1.738281 11.730469 1.484375 C 11.730469 1.230469 11.9375 1.023438 12.191406 1.023438 C 12.445312 1.023438 12.652344 1.230469 12.652344 1.484375 Z M 12.652344 1.484375 "/>
<path style=" stroke:none;fill-rule:nonzero;fill:rgb(100%,100%,100%);fill-opacity:1;" d="M 13.960938 2.8125 C 13.960938 3.066406 13.753906 3.273438 13.5 3.273438 C 13.246094 3.273438 13.039062 3.066406 13.039062 2.8125 C 13.039062 2.558594 13.246094 2.351562 13.5 2.351562 C 13.753906 2.351562 13.960938 2.558594 13.960938 2.8125 Z M 13.960938 2.8125 "/>
<path style=" stroke:none;fill-rule:nonzero;fill:rgb(100%,100%,100%);fill-opacity:1;" d="M 14.714844 4.324219 C 14.714844 4.578125 14.511719 4.78125 14.253906 4.78125 C 14 4.78125 13.796875 4.578125 13.796875 4.324219 C 13.796875 4.070312 14 3.863281 14.253906 3.863281 C 14.511719 3.863281 14.714844 4.070312 14.714844 4.324219 Z M 14.714844 4.324219 "/>
<path style=" stroke:none;fill-rule:nonzero;fill:rgb(16.078431%,18.431373%,20%);fill-opacity:1;" d="M 10.453125 1.792969 C 10.429688 1.792969 10.40625 1.792969 10.382812 1.785156 C 10.246094 1.746094 10.164062 1.605469 10.203125 1.464844 L 10.367188 0.871094 C 10.40625 0.734375 10.550781 0.65625 10.683594 0.691406 C 10.824219 0.730469 10.902344 0.871094 10.867188 1.011719 L 10.703125 1.605469 C 10.667969 1.71875 10.566406 1.792969 10.453125 1.792969 Z M 11.710938 2.414062 C 11.660156 2.414062 11.609375 2.398438 11.5625 2.367188 C 11.445312 2.285156 11.417969 2.121094 11.5 2.003906 L 11.851562 1.507812 C 11.933594 1.390625 12.09375 1.363281 12.214844 1.445312 C 12.328125 1.527344 12.359375 1.6875 12.273438 1.804688 L 11.921875 2.304688 C 11.871094 2.375 11.792969 2.414062 11.710938 2.414062 Z M 13.46875 4.8125 C 13.355469 4.8125 13.25 4.734375 13.21875 4.621094 C 13.179688 4.484375 13.261719 4.339844 13.398438 4.304688 L 13.992188 4.136719 C 14.132812 4.101562 14.273438 4.179688 14.3125 4.320312 C 14.351562 4.457031 14.269531 4.597656 14.132812 4.636719 L 13.539062 4.800781 C 13.515625 4.808594 13.492188 4.8125 13.46875 4.8125 Z M 12.839844 3.539062 C 12.757812 3.539062 12.675781 3.503906 12.628906 3.433594 C 12.542969 3.316406 12.574219 3.152344 12.6875 3.070312 L 13.1875 2.71875 C 13.304688 2.636719 13.464844 2.664062 13.546875 2.78125 C 13.628906 2.898438 13.601562 3.058594 13.484375 3.140625 L 12.988281 3.492188 C 12.941406 3.527344 12.890625 3.539062 12.839844 3.539062 Z M 12.839844 3.539062 "/>
</g>
</svg>
