<?xml version="1.0" encoding="UTF-8"?>
<svg xmlns="http://www.w3.org/2000/svg" xmlns:xlink="http://www.w3.org/1999/xlink" width="15pt" height="15pt" viewBox="0 0 15 15" version="1.1">
<g id="surface1">
<path style=" stroke:none;fill-rule:nonzero;fill:rgb(33.333333%,67.45098%,93.333333%);fill-opacity:1;" d="M 7.5 3.332031 L 4.582031 0 L 0 0 L 5.832031 7.082031 L 10.632812 5.105469 Z M 7.5 3.332031 "/>
<path style=" stroke:none;fill-rule:nonzero;fill:rgb(23.137255%,53.333333%,76.470588%);fill-opacity:1;" d="M 10.417969 0 L 7.5 3.332031 L 9.746094 6.378906 L 10.257812 5.757812 L 15 0 Z M 10.417969 0 "/>
<path style=" stroke:none;fill-rule:nonzero;fill:rgb(80%,83.921569%,86.666667%);fill-opacity:1;" d="M 9.667969 6.675781 C 9.703125 6.585938 9.722656 6.492188 9.722656 6.390625 C 9.722656 5.929688 9.351562 5.554688 8.890625 5.554688 L 6.113281 5.554688 C 5.652344 5.554688 5.277344 5.929688 5.277344 6.390625 C 5.277344 6.492188 5.300781 6.585938 5.332031 6.675781 C 3.976562 7.4375 3.058594 8.890625 3.058594 10.554688 C 3.054688 13.011719 5.046875 15 7.5 15 C 9.957031 15 11.945312 13.011719 11.945312 10.554688 C 11.945312 8.890625 11.027344 7.4375 9.667969 6.675781 Z M 9.667969 6.675781 "/>
<path style=" stroke:none;fill-rule:nonzero;fill:rgb(38.431373%,43.921569%,46.666667%);fill-opacity:1;" d="M 9.167969 12.050781 L 7.691406 12.050781 C 8.058594 11.535156 8.695312 10.703125 8.945312 10.257812 C 9.132812 9.890625 9.25 9.660156 9.25 9.246094 C 9.25 8.378906 8.59375 7.671875 7.480469 7.671875 C 6.554688 7.671875 5.921875 8.433594 5.921875 8.433594 C 5.867188 8.496094 5.875 8.589844 5.929688 8.636719 L 6.40625 9.121094 C 6.46875 9.183594 6.5625 9.183594 6.625 9.121094 C 6.773438 8.957031 7.058594 8.730469 7.378906 8.730469 C 7.816406 8.730469 8.066406 8.996094 8.066406 9.292969 C 8.066406 9.511719 7.964844 9.730469 7.863281 9.882812 C 7.402344 10.585938 6.25 12.152344 5.796875 12.742188 L 5.796875 12.898438 C 5.796875 12.976562 5.859375 13.046875 5.945312 13.046875 L 9.167969 13.046875 C 9.246094 13.046875 9.316406 12.976562 9.316406 12.898438 L 9.316406 12.199219 C 9.316406 12.121094 9.246094 12.050781 9.167969 12.050781 Z M 9.167969 12.050781 "/>
</g>
</svg>
