<?xml version="1.0" encoding="UTF-8"?>
<svg xmlns="http://www.w3.org/2000/svg" xmlns:xlink="http://www.w3.org/1999/xlink" width="15pt" height="15pt" viewBox="0 0 15 15" version="1.1">
<g id="surface1">
<path style=" stroke:none;fill-rule:nonzero;fill:rgb(94.509804%,56.078431%,14.901961%);fill-opacity:1;" d="M 0 7.5 L 15 7.5 L 15 11.25 L 0 11.25 Z M 0 7.5 "/>
<path style=" stroke:none;fill-rule:nonzero;fill:rgb(94.509804%,56.078431%,14.901961%);fill-opacity:1;" d="M 15 10.832031 C 15 8.761719 11.640625 7.082031 7.5 7.082031 C 3.359375 7.082031 0 8.761719 0 10.832031 C 0 12.90625 3.359375 14.582031 7.5 14.582031 C 11.640625 14.582031 15 12.90625 15 10.832031 Z M 15 10.832031 "/>
<path style=" stroke:none;fill-rule:nonzero;fill:rgb(94.509804%,56.078431%,14.901961%);fill-opacity:1;" d="M 15 11.25 C 15 9.179688 11.640625 7.5 7.5 7.5 C 3.359375 7.5 0 9.179688 0 11.25 C 0 13.320312 3.359375 15 7.5 15 C 11.640625 15 15 13.320312 15 11.25 Z M 15 11.25 "/>
<path style=" stroke:none;fill-rule:nonzero;fill:rgb(61.568627%,1.960784%,13.333333%);fill-opacity:1;" d="M 0 4.167969 L 0 10.832031 L 0.046875 10.832031 C 0.464844 12.707031 3.640625 14.167969 7.5 14.167969 C 11.359375 14.167969 14.535156 12.707031 14.953125 10.832031 L 15 10.832031 L 15 4.167969 Z M 0 4.167969 "/>
<path style=" stroke:none;fill-rule:nonzero;fill:rgb(94.509804%,56.078431%,14.901961%);fill-opacity:1;" d="M 15 4.582031 C 15 2.511719 11.640625 0.832031 7.5 0.832031 C 3.359375 0.832031 0 2.511719 0 4.582031 C 0 6.65625 3.359375 8.332031 7.5 8.332031 C 11.640625 8.332031 15 6.65625 15 4.582031 Z M 15 4.582031 "/>
<path style=" stroke:none;fill-rule:nonzero;fill:rgb(94.509804%,56.078431%,14.901961%);fill-opacity:1;" d="M 15 5 C 15 2.929688 11.640625 1.25 7.5 1.25 C 3.359375 1.25 0 2.929688 0 5 C 0 7.070312 3.359375 8.75 7.5 8.75 C 11.640625 8.75 15 7.070312 15 5 Z M 15 5 "/>
<path style=" stroke:none;fill-rule:nonzero;fill:rgb(94.509804%,56.078431%,14.901961%);fill-opacity:1;" d="M 0 4.167969 L 0.417969 4.167969 L 0.417969 5 L 0 5 Z M 14.582031 4.167969 L 15 4.167969 L 15 5 L 14.582031 5 Z M 14.582031 4.167969 "/>
<path style=" stroke:none;fill-rule:nonzero;fill:rgb(98.823529%,67.058824%,25.098039%);fill-opacity:1;" d="M 15 4.167969 C 15 2.09375 11.640625 0.417969 7.5 0.417969 C 3.359375 0.417969 0 2.09375 0 4.167969 C 0 6.238281 3.359375 7.917969 7.5 7.917969 C 11.640625 7.917969 15 6.238281 15 4.167969 Z M 15 4.167969 "/>
<path style=" stroke:none;fill-rule:nonzero;fill:rgb(96.078431%,97.254902%,98.039216%);fill-opacity:1;" d="M 14.582031 4.167969 C 14.582031 2.324219 11.410156 0.832031 7.5 0.832031 C 3.589844 0.832031 0.417969 2.324219 0.417969 4.167969 C 0.417969 6.007812 3.589844 7.5 7.5 7.5 C 11.410156 7.5 14.582031 6.007812 14.582031 4.167969 Z M 14.582031 4.167969 "/>
<path style=" stroke:none;fill-rule:nonzero;fill:rgb(99.215686%,84.705882%,53.333333%);fill-opacity:1;" d="M 7.5 1.25 C 11.261719 1.25 14.332031 2.632812 14.5625 4.375 C 14.570312 4.304688 14.582031 4.238281 14.582031 4.167969 C 14.582031 2.324219 11.410156 0.832031 7.5 0.832031 C 3.589844 0.832031 0.417969 2.324219 0.417969 4.167969 C 0.417969 4.238281 0.429688 4.304688 0.4375 4.375 C 0.667969 2.632812 3.738281 1.25 7.5 1.25 Z M 7.5 1.25 "/>
<path style=" stroke:none;fill-rule:nonzero;fill:rgb(66.666667%,41.176471%,35.686275%);fill-opacity:1;" d="M 11.917969 1.082031 C 12.101562 0.945312 12.136719 0.683594 12 0.5 L 11.75 0.167969 C 11.613281 -0.015625 11.351562 -0.0546875 11.167969 0.0820312 L 5.898438 4.269531 C 5.578125 4.199219 5.15625 4.300781 4.785156 4.578125 C 4.234375 4.996094 4.007812 5.628906 4.285156 5.996094 C 4.5625 6.363281 5.234375 6.328125 5.785156 5.914062 C 6.132812 5.652344 6.347656 5.304688 6.394531 4.992188 Z M 14.363281 2.300781 L 14.148438 1.941406 C 14.035156 1.742188 13.777344 1.675781 13.578125 1.792969 L 7.78125 5.441406 C 7.484375 5.382812 7.105469 5.449219 6.753906 5.660156 C 6.15625 6.007812 5.867188 6.617188 6.101562 7.011719 C 6.335938 7.40625 7.003906 7.445312 7.601562 7.09375 C 8.019531 6.847656 8.28125 6.472656 8.324219 6.132812 L 14.214844 2.871094 C 14.414062 2.753906 14.480469 2.496094 14.363281 2.300781 Z M 14.363281 2.300781 "/>
<path style=" stroke:none;fill-rule:nonzero;fill:rgb(85.490196%,18.431373%,27.843137%);fill-opacity:1;" d="M 0.832031 11.667969 C 0.605469 11.667969 0.417969 11.480469 0.417969 11.25 L 0.417969 7.5 C 0.417969 7.269531 0.605469 7.082031 0.832031 7.082031 C 1.0625 7.082031 1.25 7.269531 1.25 7.5 L 1.25 11.25 C 1.25 11.480469 1.0625 11.667969 0.832031 11.667969 Z M 4.582031 13.332031 C 4.355469 13.332031 4.167969 13.144531 4.167969 12.917969 L 4.167969 9.167969 C 4.167969 8.9375 4.355469 8.75 4.582031 8.75 C 4.8125 8.75 5 8.9375 5 9.167969 L 5 12.917969 C 5 13.144531 4.8125 13.332031 4.582031 13.332031 Z M 9.582031 13.332031 C 9.355469 13.332031 9.167969 13.144531 9.167969 12.917969 L 9.167969 9.167969 C 9.167969 8.9375 9.355469 8.75 9.582031 8.75 C 9.8125 8.75 10 8.9375 10 9.167969 L 10 12.917969 C 10 13.144531 9.8125 13.332031 9.582031 13.332031 Z M 14.167969 11.667969 C 13.9375 11.667969 13.75 11.480469 13.75 11.25 L 13.75 7.5 C 13.75 7.269531 13.9375 7.082031 14.167969 7.082031 C 14.394531 7.082031 14.582031 7.269531 14.582031 7.5 L 14.582031 11.25 C 14.582031 11.480469 14.394531 11.667969 14.167969 11.667969 Z M 14.167969 11.667969 "/>
</g>
</svg>
