<?xml version="1.0" encoding="UTF-8"?>
<svg xmlns="http://www.w3.org/2000/svg" xmlns:xlink="http://www.w3.org/1999/xlink" width="15pt" height="15pt" viewBox="0 0 15 15" version="1.1">
<g id="surface1">
<path style=" stroke:none;fill-rule:nonzero;fill:rgb(100%,85.098039%,51.372549%);fill-opacity:1;" d="M 0.601562 5.691406 C 1.03125 5.394531 1.445312 5.03125 1.554688 4.632812 C 1.660156 4.234375 2.878906 3.667969 3.085938 3.8125 C 3.292969 3.953125 3.535156 3.816406 3.65625 3.5 C 3.78125 3.1875 5.105469 2.441406 5.425781 2.628906 C 5.746094 2.816406 6.296875 2.640625 6.492188 2.4375 C 6.683594 2.234375 8.113281 2.214844 8.277344 2.519531 C 8.445312 2.824219 8.722656 2.765625 9.054688 2.628906 C 9.386719 2.492188 10.414062 2.507812 10.546875 2.792969 C 10.679688 3.078125 11.03125 3.257812 11.285156 3.183594 C 11.539062 3.109375 12.523438 3.367188 12.417969 3.734375 C 12.316406 4.105469 12.550781 4.375 12.898438 4.355469 C 13.242188 4.335938 13.855469 5.046875 13.796875 5.222656 C 13.734375 5.402344 13.96875 5.617188 14.207031 5.722656 C 14.445312 5.828125 14.503906 6.777344 13.847656 7.019531 C 13.191406 7.261719 2.605469 8.203125 1.78125 7.285156 C 0.957031 6.363281 0.601562 5.691406 0.601562 5.691406 Z M 0.601562 5.691406 "/>
<path style=" stroke:none;fill-rule:nonzero;fill:rgb(100%,85.098039%,51.372549%);fill-opacity:1;" d="M 8.703125 5.347656 C 8.503906 7.207031 7.417969 8.664062 6.6875 8.578125 C 5.960938 8.492188 5.53125 6.914062 5.730469 5.058594 C 5.929688 3.199219 6.394531 1.980469 7.359375 1.980469 C 8.421875 1.980469 8.902344 3.492188 8.703125 5.347656 Z M 8.703125 5.347656 "/>
<path style=" stroke:none;fill-rule:nonzero;fill:rgb(100%,85.098039%,51.372549%);fill-opacity:1;" d="M 10.820312 5.496094 C 10.621094 7.355469 9.535156 8.8125 8.804688 8.726562 C 8.078125 8.640625 7.648438 7.0625 7.847656 5.207031 C 8.046875 3.347656 8.609375 2.746094 9.53125 2.4375 C 10.726562 2.042969 11.019531 3.640625 10.820312 5.496094 Z M 10.820312 5.496094 "/>
<path style=" stroke:none;fill-rule:nonzero;fill:rgb(100%,85.098039%,51.372549%);fill-opacity:1;" d="M 11.753906 6.59375 C 11.078125 8.324219 10.046875 9.515625 9.449219 9.257812 C 8.851562 8.996094 9.070312 7.445312 9.589844 5.65625 C 10.289062 3.265625 11.5 2.90625 12.097656 3.164062 C 12.695312 3.421875 12.433594 4.867188 11.753906 6.59375 Z M 11.753906 6.59375 "/>
<path style=" stroke:none;fill-rule:nonzero;fill:rgb(100%,85.098039%,51.372549%);fill-opacity:1;" d="M 12.222656 7.628906 C 11.058594 9.039062 9.71875 9.824219 9.230469 9.378906 C 8.742188 8.933594 9.292969 7.425781 10.453125 6.015625 C 11.617188 4.601562 12.972656 4.117188 13.550781 4.417969 C 14.355469 4.832031 13.386719 6.214844 12.222656 7.628906 Z M 12.222656 7.628906 "/>
<path style=" stroke:none;fill-rule:nonzero;fill:rgb(100%,85.098039%,51.372549%);fill-opacity:1;" d="M 12.179688 8.6875 C 10.464844 9.171875 8.917969 8.957031 8.722656 8.203125 C 8.53125 7.453125 9.765625 6.445312 11.480469 5.960938 C 13.195312 5.472656 14.625 5.40625 14.9375 6.441406 C 15.160156 7.1875 13.894531 8.203125 12.179688 8.6875 Z M 7.050781 5.019531 C 6.472656 3.25 5.421875 2.136719 4.484375 2.511719 C 3.472656 2.921875 3.277344 4.46875 3.851562 6.234375 C 4.429688 8.003906 5.960938 9.136719 6.574219 8.914062 C 7.183594 8.695312 7.628906 6.785156 7.050781 5.019531 Z M 7.050781 5.019531 "/>
<path style=" stroke:none;fill-rule:nonzero;fill:rgb(100%,85.098039%,51.372549%);fill-opacity:1;" d="M 4.875 5.6875 C 3.742188 4.242188 2.71875 3.078125 1.921875 3.859375 C 1.136719 4.632812 1.476562 6.320312 2.609375 7.761719 C 3.738281 9.203125 5.519531 9.511719 6.019531 9.078125 C 6.515625 8.648438 6.003906 7.128906 4.875 5.6875 Z M 4.875 5.6875 "/>
<path style=" stroke:none;fill-rule:nonzero;fill:rgb(100%,85.098039%,51.372549%);fill-opacity:1;" d="M 3.503906 6.179688 C 0.871094 4.949219 0.296875 5.742188 0.0664062 6.378906 C -0.164062 7.011719 1.023438 8.476562 2.683594 9.140625 C 4.34375 9.808594 5.878906 9.832031 6.105469 9.195312 C 6.335938 8.5625 5.128906 6.933594 3.503906 6.179688 Z M 3.503906 6.179688 "/>
<path style=" stroke:none;fill-rule:nonzero;fill:rgb(100%,85.098039%,51.372549%);fill-opacity:1;" d="M 14.855469 10.015625 C 14.855469 12.226562 11.625 13.019531 7.640625 13.019531 C 3.65625 13.019531 0.125 11.726562 0.125 9.515625 C 0.125 7.300781 3.65625 3.5 7.640625 3.5 C 11.625 3.5 14.855469 7.800781 14.855469 10.015625 Z M 14.855469 10.015625 "/>
<path style=" stroke:none;fill-rule:nonzero;fill:rgb(100%,67.45098%,20%);fill-opacity:1;" d="M 8.140625 6.929688 C 8.140625 8.175781 7.917969 9.183594 7.640625 9.183594 C 7.363281 9.183594 7.140625 8.175781 7.140625 6.929688 C 7.140625 5.683594 7.363281 4.675781 7.640625 4.675781 C 7.914062 4.675781 8.140625 5.683594 8.140625 6.929688 Z M 10.09375 6.832031 C 10.304688 7.890625 10.277344 8.785156 10.03125 8.835938 C 9.78125 8.886719 9.410156 8.070312 9.195312 7.015625 C 8.980469 5.960938 9.007812 5.0625 9.257812 5.015625 C 9.503906 4.964844 9.878906 5.777344 10.09375 6.832031 Z M 11.699219 6.925781 C 12.089844 7.738281 12.226562 8.484375 12 8.59375 C 11.773438 8.703125 11.269531 8.136719 10.875 7.328125 C 10.480469 6.515625 10.34375 5.769531 10.574219 5.660156 C 10.800781 5.550781 11.304688 6.117188 11.699219 6.925781 Z M 6.074219 6.878906 C 5.804688 8.003906 5.394531 8.871094 5.160156 8.816406 C 4.921875 8.757812 4.945312 7.800781 5.214844 6.675781 C 5.484375 5.546875 5.9375 4.878906 6.175781 4.9375 C 6.414062 4.996094 6.34375 5.753906 6.074219 6.878906 Z M 4.273438 7.035156 C 3.914062 7.84375 3.433594 8.414062 3.203125 8.3125 C 2.972656 8.207031 3.078125 7.46875 3.4375 6.660156 C 3.800781 5.851562 4.308594 5.445312 4.539062 5.550781 C 4.769531 5.652344 4.636719 6.226562 4.273438 7.035156 Z M 4.273438 7.035156 "/>
<path style=" stroke:none;fill-rule:nonzero;fill:rgb(100%,80%,30.196078%);fill-opacity:1;" d="M 5.359375 3.050781 C 5.574219 3.300781 5.617188 3.628906 5.457031 3.777344 C 5.296875 3.929688 4.992188 3.847656 4.777344 3.597656 C 4.566406 3.347656 4.519531 3.019531 4.683594 2.867188 C 4.84375 2.71875 5.144531 2.796875 5.359375 3.050781 Z M 2.695312 4.492188 C 2.808594 4.808594 2.730469 5.128906 2.527344 5.207031 C 2.324219 5.285156 2.070312 5.089844 1.960938 4.773438 C 1.851562 4.457031 1.929688 4.136719 2.132812 4.058594 C 2.335938 3.980469 2.585938 4.175781 2.695312 4.492188 Z M 1.242188 6.535156 C 1.519531 6.773438 1.632812 7.109375 1.496094 7.285156 C 1.359375 7.460938 1.023438 7.410156 0.746094 7.171875 C 0.46875 6.933594 0.355469 6.597656 0.492188 6.421875 C 0.628906 6.246094 0.964844 6.296875 1.242188 6.535156 Z M 7.78125 2.695312 C 7.996094 2.949219 8.039062 3.273438 7.878906 3.425781 C 7.714844 3.578125 7.414062 3.496094 7.199219 3.246094 C 6.984375 2.992188 6.941406 2.667969 7.101562 2.515625 C 7.261719 2.363281 7.566406 2.445312 7.78125 2.695312 Z M 7.78125 2.695312 "/>
<path style=" stroke:none;fill-rule:nonzero;fill:rgb(100%,80%,30.196078%);fill-opacity:1;" d="M 10.429688 3.296875 C 10.40625 2.914062 10.179688 2.617188 9.925781 2.628906 C 9.667969 2.644531 9.476562 2.96875 9.5 3.351562 C 9.519531 3.734375 9.746094 4.03125 10.003906 4.019531 C 10.261719 4.003906 10.449219 3.679688 10.429688 3.296875 Z M 10.429688 3.296875 "/>
<path style=" stroke:none;fill-rule:nonzero;fill:rgb(100%,80%,30.196078%);fill-opacity:1;" d="M 12.121094 4.136719 C 12.183594 4.46875 12.058594 4.769531 11.847656 4.8125 C 11.636719 4.859375 11.414062 4.625 11.355469 4.292969 C 11.292969 3.960938 11.414062 3.65625 11.628906 3.613281 C 11.839844 3.570312 12.058594 3.804688 12.121094 4.136719 Z M 13.441406 5.566406 C 13.300781 5.851562 13.035156 6 12.84375 5.898438 C 12.652344 5.792969 12.605469 5.476562 12.746094 5.191406 C 12.882812 4.910156 13.152344 4.761719 13.34375 4.863281 C 13.535156 4.96875 13.578125 5.28125 13.441406 5.566406 Z M 14.394531 7.15625 C 14.222656 7.375 13.925781 7.425781 13.738281 7.261719 C 13.550781 7.097656 13.535156 6.785156 13.707031 6.566406 C 13.882812 6.34375 14.175781 6.296875 14.363281 6.457031 C 14.550781 6.621094 14.566406 6.933594 14.394531 7.15625 Z M 14.394531 7.15625 "/>
</g>
</svg>
