<?xml version="1.0" encoding="UTF-8"?>
<svg xmlns="http://www.w3.org/2000/svg" xmlns:xlink="http://www.w3.org/1999/xlink" width="15pt" height="15pt" viewBox="0 0 15 15" version="1.1">
<g id="surface1">
<path style=" stroke:none;fill-rule:nonzero;fill:rgb(36.078431%,56.862745%,23.137255%);fill-opacity:1;" d="M 8.734375 3.558594 C 7.5625 5.378906 5.941406 6.769531 5.171875 7.359375 C 3.308594 8.800781 0.203125 10.492188 0.417969 12.5625 C 0.574219 14.078125 1.546875 14.925781 3.808594 14.765625 C 5.96875 14.609375 8.417969 12.75 10.378906 10.398438 C 12.542969 7.796875 13.792969 5.996094 14.277344 4.335938 C 14.679688 2.9375 14.886719 1.203125 13.765625 0.574219 C 12.796875 0.0273438 10.761719 0.402344 8.734375 3.558594 Z M 8.734375 3.558594 "/>
<path style=" stroke:none;fill-rule:nonzero;fill:rgb(36.078431%,56.862745%,23.137255%);fill-opacity:1;" d="M 7.855469 12.914062 C 7.855469 13.0625 7.738281 13.183594 7.589844 13.183594 C 7.445312 13.183594 7.324219 13.0625 7.324219 12.914062 C 7.324219 12.769531 7.445312 12.648438 7.589844 12.648438 C 7.738281 12.648438 7.855469 12.769531 7.855469 12.914062 Z M 7.855469 12.914062 "/>
<path style=" stroke:none;fill-rule:nonzero;fill:rgb(36.078431%,56.862745%,23.137255%);fill-opacity:1;" d="M 9.191406 11.65625 C 9.191406 11.804688 9.070312 11.921875 8.921875 11.921875 C 8.777344 11.921875 8.65625 11.804688 8.65625 11.65625 C 8.65625 11.507812 8.777344 11.390625 8.921875 11.390625 C 9.070312 11.390625 9.191406 11.507812 9.191406 11.65625 Z M 9.191406 11.65625 "/>
<path style=" stroke:none;fill-rule:nonzero;fill:rgb(36.078431%,56.862745%,23.137255%);fill-opacity:1;" d="M 9.011719 11.945312 C 9.011719 12.09375 8.890625 12.210938 8.746094 12.210938 C 8.597656 12.210938 8.476562 12.09375 8.476562 11.945312 C 8.476562 11.796875 8.597656 11.679688 8.746094 11.679688 C 8.890625 11.679688 9.011719 11.796875 9.011719 11.945312 Z M 9.011719 11.945312 "/>
<path style=" stroke:none;fill-rule:nonzero;fill:rgb(36.078431%,56.862745%,23.137255%);fill-opacity:1;" d="M 10.25 10.585938 C 10.25 10.730469 10.128906 10.851562 9.984375 10.851562 C 9.835938 10.851562 9.714844 10.730469 9.714844 10.585938 C 9.714844 10.4375 9.835938 10.320312 9.984375 10.320312 C 10.128906 10.320312 10.25 10.4375 10.25 10.585938 Z M 10.25 10.585938 "/>
<path style=" stroke:none;fill-rule:nonzero;fill:rgb(36.078431%,56.862745%,23.137255%);fill-opacity:1;" d="M 12.773438 7.472656 C 12.773438 7.621094 12.65625 7.738281 12.507812 7.738281 C 12.363281 7.738281 12.242188 7.621094 12.242188 7.472656 C 12.242188 7.324219 12.363281 7.207031 12.507812 7.207031 C 12.65625 7.207031 12.773438 7.324219 12.773438 7.472656 Z M 12.773438 7.472656 "/>
<path style=" stroke:none;fill-rule:nonzero;fill:rgb(36.078431%,56.862745%,23.137255%);fill-opacity:1;" d="M 14.3125 4.503906 C 14.3125 4.652344 14.191406 4.769531 14.046875 4.769531 C 13.898438 4.769531 13.777344 4.652344 13.777344 4.503906 C 13.777344 4.355469 13.898438 4.238281 14.046875 4.238281 C 14.191406 4.238281 14.3125 4.355469 14.3125 4.503906 Z M 14.3125 4.503906 "/>
<path style=" stroke:none;fill-rule:nonzero;fill:rgb(36.078431%,56.862745%,23.137255%);fill-opacity:1;" d="M 14.609375 1.691406 C 14.609375 1.839844 14.492188 1.957031 14.34375 1.957031 C 14.199219 1.957031 14.078125 1.839844 14.078125 1.691406 C 14.078125 1.542969 14.199219 1.425781 14.34375 1.425781 C 14.492188 1.425781 14.609375 1.542969 14.609375 1.691406 Z M 14.609375 1.691406 "/>
<path style=" stroke:none;fill-rule:nonzero;fill:rgb(46.666667%,69.803922%,33.333333%);fill-opacity:1;" d="M 2.886719 14.246094 C 5.097656 14.089844 7.605469 12.183594 9.613281 9.773438 C 11.832031 7.109375 13.113281 5.265625 13.609375 3.558594 C 13.894531 2.574219 14.085938 1.425781 13.800781 0.59375 C 13.789062 0.589844 13.777344 0.578125 13.765625 0.574219 C 12.796875 0.0273438 10.761719 0.402344 8.734375 3.558594 C 7.5625 5.378906 5.941406 6.769531 5.171875 7.359375 C 3.308594 8.800781 0.203125 10.492188 0.417969 12.5625 C 0.484375 13.214844 0.703125 13.738281 1.105469 14.117188 C 1.585938 14.25 2.171875 14.296875 2.886719 14.246094 Z M 2.886719 14.246094 "/>
<path style=" stroke:none;fill-rule:nonzero;fill:rgb(36.078431%,56.862745%,23.137255%);fill-opacity:1;" d="M 6.875 10.730469 C 6.691406 10.769531 6.515625 10.71875 6.347656 10.574219 C 6.183594 10.425781 6.109375 10.257812 6.125 10.074219 C 6.128906 10.054688 6.132812 10.019531 6.097656 10.003906 C 6.074219 9.992188 6.050781 10 6.035156 10.015625 C 5.839844 10.238281 5.882812 10.597656 6.132812 10.816406 C 6.257812 10.925781 6.410156 10.980469 6.554688 10.980469 C 6.703125 10.980469 6.84375 10.925781 6.941406 10.8125 C 6.957031 10.796875 6.957031 10.769531 6.949219 10.75 C 6.925781 10.71875 6.890625 10.726562 6.875 10.730469 Z M 10.582031 7.335938 C 10.398438 7.328125 10.238281 7.234375 10.117188 7.050781 C 9.996094 6.867188 9.96875 6.683594 10.03125 6.507812 C 10.039062 6.492188 10.050781 6.457031 10.019531 6.433594 C 10.003906 6.421875 9.976562 6.417969 9.957031 6.433594 C 9.835938 6.511719 9.761719 6.640625 9.738281 6.792969 C 9.71875 6.941406 9.757812 7.097656 9.847656 7.230469 C 9.96875 7.414062 10.164062 7.515625 10.355469 7.515625 C 10.449219 7.515625 10.542969 7.492188 10.628906 7.4375 C 10.644531 7.421875 10.65625 7.398438 10.648438 7.378906 C 10.636719 7.339844 10.601562 7.339844 10.582031 7.335938 Z M 8.269531 7.746094 C 8.367188 7.746094 8.453125 7.707031 8.511719 7.640625 C 8.527344 7.625 8.53125 7.597656 8.519531 7.578125 C 8.507812 7.558594 8.476562 7.550781 8.453125 7.554688 C 8.355469 7.578125 8.257812 7.546875 8.164062 7.46875 C 8.074219 7.386719 8.03125 7.292969 8.042969 7.191406 C 8.042969 7.167969 8.03125 7.136719 8.011719 7.128906 C 7.988281 7.121094 7.964844 7.125 7.949219 7.144531 C 7.828125 7.28125 7.855469 7.507812 8.007812 7.644531 C 8.082031 7.710938 8.175781 7.746094 8.269531 7.746094 Z M 11.992188 4.71875 C 11.902344 4.640625 11.859375 4.546875 11.871094 4.445312 C 11.871094 4.421875 11.859375 4.390625 11.839844 4.382812 C 11.816406 4.371094 11.792969 4.378906 11.777344 4.394531 C 11.65625 4.535156 11.683594 4.761719 11.835938 4.898438 C 11.910156 4.960938 12.003906 5 12.097656 5 C 12.195312 5 12.28125 4.960938 12.339844 4.894531 C 12.355469 4.875 12.359375 4.851562 12.347656 4.832031 C 12.335938 4.8125 12.304688 4.804688 12.28125 4.808594 C 12.183594 4.828125 12.085938 4.800781 11.992188 4.71875 Z M 10.199219 4.816406 L 10.203125 4.816406 C 10.296875 4.816406 10.382812 4.777344 10.445312 4.710938 C 10.457031 4.691406 10.460938 4.667969 10.449219 4.648438 C 10.4375 4.628906 10.40625 4.621094 10.382812 4.625 C 10.28125 4.648438 10.1875 4.617188 10.09375 4.539062 C 10.003906 4.457031 9.960938 4.363281 9.972656 4.261719 C 9.972656 4.238281 9.960938 4.207031 9.941406 4.199219 C 9.921875 4.191406 9.894531 4.195312 9.878906 4.214844 C 9.757812 4.351562 9.785156 4.578125 9.941406 4.714844 C 10.015625 4.777344 10.105469 4.816406 10.199219 4.816406 Z M 12.78125 2.035156 C 12.675781 2.058594 12.582031 2.027344 12.492188 1.945312 C 12.398438 1.867188 12.359375 1.773438 12.367188 1.671875 C 12.371094 1.648438 12.359375 1.617188 12.335938 1.609375 C 12.316406 1.597656 12.289062 1.605469 12.277344 1.621094 C 12.152344 1.761719 12.179688 1.984375 12.335938 2.121094 C 12.410156 2.1875 12.503906 2.222656 12.597656 2.222656 C 12.691406 2.222656 12.78125 2.1875 12.839844 2.117188 C 12.855469 2.101562 12.859375 2.074219 12.847656 2.058594 C 12.835938 2.035156 12.800781 2.027344 12.78125 2.035156 Z M 2.425781 11.753906 C 2.285156 11.578125 2.269531 11.332031 2.386719 11.136719 C 2.398438 11.117188 2.394531 11.089844 2.378906 11.074219 C 2.363281 11.058594 2.335938 11.054688 2.316406 11.066406 C 2.289062 11.082031 2.261719 11.097656 2.238281 11.117188 C 2.109375 11.21875 2.027344 11.367188 2.011719 11.527344 C 1.992188 11.691406 2.039062 11.851562 2.140625 11.980469 C 2.261719 12.132812 2.441406 12.210938 2.621094 12.210938 C 2.757812 12.210938 2.890625 12.167969 3.003906 12.078125 C 3.03125 12.058594 3.050781 12.035156 3.074219 12.011719 C 3.089844 11.992188 3.089844 11.964844 3.078125 11.945312 C 3.066406 11.925781 3.039062 11.917969 3.019531 11.925781 C 2.804688 11.996094 2.566406 11.929688 2.425781 11.753906 Z M 6.476562 8.683594 C 6.609375 8.683594 6.746094 8.636719 6.859375 8.546875 C 6.882812 8.527344 6.902344 8.503906 6.925781 8.480469 C 6.945312 8.464844 6.945312 8.4375 6.933594 8.417969 C 6.921875 8.398438 6.894531 8.390625 6.871094 8.394531 C 6.660156 8.46875 6.421875 8.398438 6.277344 8.226562 C 6.140625 8.050781 6.121094 7.800781 6.242188 7.609375 C 6.253906 7.589844 6.25 7.5625 6.234375 7.546875 C 6.214844 7.527344 6.191406 7.523438 6.167969 7.535156 C 6.140625 7.550781 6.117188 7.566406 6.089844 7.589844 C 5.960938 7.691406 5.882812 7.835938 5.863281 8 C 5.847656 8.164062 5.894531 8.324219 5.996094 8.453125 C 6.117188 8.601562 6.296875 8.683594 6.476562 8.683594 Z M 10.484375 2.78125 C 10.34375 2.605469 10.328125 2.359375 10.445312 2.164062 C 10.457031 2.144531 10.453125 2.121094 10.4375 2.101562 C 10.421875 2.085938 10.394531 2.082031 10.375 2.09375 C 10.347656 2.109375 10.320312 2.125 10.296875 2.144531 C 10.167969 2.25 10.089844 2.394531 10.070312 2.558594 C 10.050781 2.722656 10.097656 2.882812 10.203125 3.007812 C 10.324219 3.160156 10.5 3.238281 10.679688 3.238281 C 10.816406 3.238281 10.953125 3.195312 11.066406 3.105469 C 11.089844 3.085938 11.109375 3.0625 11.132812 3.039062 C 11.148438 3.019531 11.152344 2.996094 11.136719 2.976562 C 11.125 2.953125 11.097656 2.945312 11.078125 2.953125 C 10.863281 3.027344 10.625 2.957031 10.484375 2.78125 Z M 5.234375 12.105469 C 5.109375 12.210938 4.929688 12.226562 4.789062 12.148438 C 4.648438 12.066406 4.574219 11.90625 4.601562 11.742188 C 4.605469 11.722656 4.59375 11.707031 4.578125 11.699219 C 4.5625 11.691406 4.539062 11.695312 4.527344 11.710938 C 4.515625 11.726562 4.5 11.746094 4.488281 11.765625 C 4.425781 11.871094 4.410156 11.992188 4.441406 12.109375 C 4.472656 12.226562 4.550781 12.324219 4.652344 12.382812 C 4.722656 12.421875 4.800781 12.445312 4.878906 12.445312 C 4.917969 12.445312 4.957031 12.4375 4.996094 12.429688 C 5.113281 12.398438 5.210938 12.320312 5.269531 12.214844 C 5.28125 12.195312 5.289062 12.175781 5.296875 12.152344 C 5.304688 12.136719 5.300781 12.117188 5.285156 12.105469 C 5.269531 12.09375 5.246094 12.09375 5.234375 12.105469 Z M 4.050781 9.683594 C 4.011719 9.523438 4.078125 9.359375 4.214844 9.269531 C 4.230469 9.257812 4.238281 9.238281 4.230469 9.21875 C 4.222656 9.203125 4.207031 9.191406 4.1875 9.191406 C 4.164062 9.195312 4.144531 9.195312 4.121094 9.203125 C 4.003906 9.230469 3.902344 9.300781 3.839844 9.40625 C 3.777344 9.507812 3.757812 9.628906 3.785156 9.746094 C 3.816406 9.863281 3.886719 9.964844 3.988281 10.027344 C 4.0625 10.070312 4.140625 10.09375 4.222656 10.09375 C 4.257812 10.09375 4.296875 10.089844 4.332031 10.078125 C 4.351562 10.074219 4.375 10.066406 4.398438 10.058594 C 4.414062 10.050781 4.425781 10.03125 4.421875 10.011719 C 4.417969 9.992188 4.40625 9.980469 4.386719 9.976562 C 4.222656 9.957031 4.089844 9.839844 4.050781 9.683594 Z M 9.136719 5.671875 C 9.027344 5.796875 8.851562 5.839844 8.703125 5.78125 C 8.550781 5.722656 8.453125 5.570312 8.457031 5.410156 C 8.457031 5.390625 8.445312 5.371094 8.425781 5.367188 C 8.40625 5.363281 8.386719 5.371094 8.378906 5.386719 C 8.367188 5.40625 8.355469 5.425781 8.347656 5.449219 C 8.257812 5.679688 8.371094 5.941406 8.605469 6.035156 C 8.65625 6.054688 8.714844 6.0625 8.765625 6.0625 C 8.949219 6.0625 9.121094 5.953125 9.191406 5.777344 C 9.199219 5.753906 9.203125 5.730469 9.207031 5.710938 C 9.210938 5.691406 9.203125 5.671875 9.1875 5.664062 C 9.167969 5.65625 9.148438 5.660156 9.136719 5.671875 Z M 8.65625 9.421875 C 8.546875 9.542969 8.371094 9.582031 8.222656 9.515625 C 8.070312 9.453125 7.976562 9.300781 7.984375 9.140625 C 7.988281 9.121094 7.972656 9.101562 7.957031 9.097656 C 7.9375 9.089844 7.917969 9.097656 7.910156 9.117188 C 7.894531 9.136719 7.882812 9.152344 7.875 9.175781 C 7.777344 9.40625 7.886719 9.671875 8.113281 9.765625 C 8.171875 9.792969 8.230469 9.804688 8.289062 9.804688 C 8.464844 9.804688 8.632812 9.699219 8.707031 9.527344 C 8.714844 9.507812 8.71875 9.488281 8.726562 9.460938 C 8.734375 9.441406 8.722656 9.425781 8.707031 9.414062 C 8.691406 9.40625 8.667969 9.410156 8.65625 9.421875 Z M 8.65625 9.421875 "/>
<path style=" stroke:none;fill-rule:nonzero;fill:rgb(46.666667%,69.803922%,33.333333%);fill-opacity:1;" d="M 10.558594 8.632812 C 10.558594 8.746094 10.464844 8.839844 10.351562 8.839844 C 10.238281 8.839844 10.144531 8.746094 10.144531 8.632812 C 10.144531 8.519531 10.238281 8.425781 10.351562 8.425781 C 10.464844 8.425781 10.558594 8.519531 10.558594 8.632812 Z M 10.558594 8.632812 "/>
<path style=" stroke:none;fill-rule:nonzero;fill:rgb(46.666667%,69.803922%,33.333333%);fill-opacity:1;" d="M 13.074219 5.089844 C 13.074219 5.207031 12.980469 5.300781 12.863281 5.300781 C 12.75 5.300781 12.65625 5.207031 12.65625 5.089844 C 12.65625 4.976562 12.75 4.882812 12.863281 4.882812 C 12.980469 4.882812 13.074219 4.976562 13.074219 5.089844 Z M 13.074219 5.089844 "/>
<path style=" stroke:none;fill-rule:nonzero;fill:rgb(46.666667%,69.803922%,33.333333%);fill-opacity:1;" d="M 13.816406 3.007812 C 13.816406 3.121094 13.722656 3.214844 13.605469 3.214844 C 13.492188 3.214844 13.398438 3.121094 13.398438 3.007812 C 13.398438 2.894531 13.492188 2.800781 13.605469 2.800781 C 13.722656 2.800781 13.816406 2.894531 13.816406 3.007812 Z M 13.816406 3.007812 "/>
<path style=" stroke:none;fill-rule:nonzero;fill:rgb(46.666667%,69.803922%,33.333333%);fill-opacity:1;" d="M 11.875 6.980469 C 11.875 7.09375 11.78125 7.1875 11.667969 7.1875 C 11.550781 7.1875 11.457031 7.09375 11.457031 6.980469 C 11.457031 6.863281 11.550781 6.769531 11.667969 6.769531 C 11.78125 6.769531 11.875 6.863281 11.875 6.980469 Z M 11.875 6.980469 "/>
<path style=" stroke:none;fill-rule:nonzero;fill:rgb(46.666667%,69.803922%,33.333333%);fill-opacity:1;" d="M 7.683594 11.808594 C 7.683594 11.925781 7.589844 12.019531 7.472656 12.019531 C 7.359375 12.019531 7.265625 11.925781 7.265625 11.808594 C 7.265625 11.695312 7.359375 11.601562 7.472656 11.601562 C 7.589844 11.601562 7.683594 11.695312 7.683594 11.808594 Z M 7.683594 11.808594 "/>
<path style=" stroke:none;fill-rule:nonzero;fill:rgb(46.666667%,69.803922%,33.333333%);fill-opacity:1;" d="M 8.933594 10.625 C 8.933594 10.804688 8.789062 10.953125 8.605469 10.953125 C 8.425781 10.953125 8.277344 10.804688 8.277344 10.625 C 8.277344 10.445312 8.425781 10.296875 8.605469 10.296875 C 8.789062 10.296875 8.933594 10.445312 8.933594 10.625 Z M 8.933594 10.625 "/>
<path style=" stroke:none;fill-rule:nonzero;fill:rgb(46.666667%,69.803922%,33.333333%);fill-opacity:1;" d="M 4.816406 13.722656 C 4.816406 13.839844 4.722656 13.933594 4.609375 13.933594 C 4.492188 13.933594 4.402344 13.839844 4.402344 13.722656 C 4.402344 13.609375 4.492188 13.515625 4.609375 13.515625 C 4.722656 13.515625 4.816406 13.609375 4.816406 13.722656 Z M 4.816406 13.722656 "/>
<path style=" stroke:none;fill-rule:nonzero;fill:rgb(46.666667%,69.803922%,33.333333%);fill-opacity:1;" d="M 10.949219 8.320312 C 10.949219 8.433594 10.855469 8.527344 10.742188 8.527344 C 10.628906 8.527344 10.535156 8.433594 10.535156 8.320312 C 10.535156 8.207031 10.628906 8.113281 10.742188 8.113281 C 10.855469 8.113281 10.949219 8.207031 10.949219 8.320312 Z M 10.949219 8.320312 "/>
<path style=" stroke:none;fill-rule:nonzero;fill:rgb(46.666667%,69.803922%,33.333333%);fill-opacity:1;" d="M 5.300781 8.261719 C 5.300781 8.589844 5.035156 8.855469 4.707031 8.855469 C 4.378906 8.855469 4.113281 8.589844 4.113281 8.261719 C 4.113281 7.933594 4.378906 7.667969 4.707031 7.667969 C 5.035156 7.667969 5.300781 7.933594 5.300781 8.261719 Z M 5.300781 8.261719 "/>
<path style=" stroke:none;fill-rule:nonzero;fill:rgb(46.666667%,69.803922%,33.333333%);fill-opacity:1;" d="M 2.78125 9.730469 C 2.78125 9.957031 2.601562 10.140625 2.375 10.140625 C 2.148438 10.140625 1.964844 9.957031 1.964844 9.730469 C 1.964844 9.503906 2.148438 9.324219 2.375 9.324219 C 2.601562 9.324219 2.78125 9.503906 2.78125 9.730469 Z M 2.78125 9.730469 "/>
<path style=" stroke:none;fill-rule:nonzero;fill:rgb(46.666667%,69.803922%,33.333333%);fill-opacity:1;" d="M 11.429688 1.386719 C 11.429688 1.609375 11.246094 1.792969 11.019531 1.792969 C 10.792969 1.792969 10.613281 1.609375 10.613281 1.386719 C 10.613281 1.160156 10.792969 0.976562 11.019531 0.976562 C 11.246094 0.976562 11.429688 1.160156 11.429688 1.386719 Z M 11.429688 1.386719 "/>
<path style=" stroke:none;fill-rule:nonzero;fill:rgb(46.666667%,69.803922%,33.333333%);fill-opacity:1;" d="M 1.101562 11.347656 C 1.101562 11.503906 0.972656 11.636719 0.8125 11.636719 C 0.652344 11.636719 0.523438 11.503906 0.523438 11.347656 C 0.523438 11.1875 0.652344 11.058594 0.8125 11.058594 C 0.972656 11.058594 1.101562 11.1875 1.101562 11.347656 Z M 1.101562 11.347656 "/>
<path style=" stroke:none;fill-rule:nonzero;fill:rgb(46.666667%,69.803922%,33.333333%);fill-opacity:1;" d="M 1.324219 11.046875 C 1.324219 11.207031 1.191406 11.335938 1.035156 11.335938 C 0.875 11.335938 0.746094 11.207031 0.746094 11.046875 C 0.746094 10.886719 0.875 10.757812 1.035156 10.757812 C 1.191406 10.757812 1.324219 10.886719 1.324219 11.046875 Z M 1.324219 11.046875 "/>
<path style=" stroke:none;fill-rule:nonzero;fill:rgb(46.666667%,69.803922%,33.333333%);fill-opacity:1;" d="M 1.128906 13.050781 C 1.128906 13.25 0.96875 13.410156 0.773438 13.410156 C 0.574219 13.410156 0.414062 13.25 0.414062 13.050781 C 0.414062 12.855469 0.574219 12.695312 0.773438 12.695312 C 0.96875 12.695312 1.128906 12.855469 1.128906 13.050781 Z M 1.128906 13.050781 "/>
<path style=" stroke:none;fill-rule:nonzero;fill:rgb(46.666667%,69.803922%,33.333333%);fill-opacity:1;" d="M 5.894531 7.140625 C 5.894531 7.289062 5.777344 7.40625 5.628906 7.40625 C 5.480469 7.40625 5.363281 7.289062 5.363281 7.140625 C 5.363281 6.992188 5.480469 6.875 5.628906 6.875 C 5.777344 6.875 5.894531 6.992188 5.894531 7.140625 Z M 5.894531 7.140625 "/>
<path style=" stroke:none;fill-rule:nonzero;fill:rgb(46.666667%,69.803922%,33.333333%);fill-opacity:1;" d="M 11.714844 0.902344 C 11.714844 1.050781 11.597656 1.171875 11.449219 1.171875 C 11.300781 1.171875 11.183594 1.050781 11.183594 0.902344 C 11.183594 0.757812 11.300781 0.636719 11.449219 0.636719 C 11.597656 0.636719 11.714844 0.757812 11.714844 0.902344 Z M 11.714844 0.902344 "/>
<path style=" stroke:none;fill-rule:nonzero;fill:rgb(46.666667%,69.803922%,33.333333%);fill-opacity:1;" d="M 13.371094 0.539062 C 13.371094 0.6875 13.25 0.804688 13.101562 0.804688 C 12.957031 0.804688 12.835938 0.6875 12.835938 0.539062 C 12.835938 0.390625 12.957031 0.273438 13.101562 0.273438 C 13.25 0.273438 13.371094 0.390625 13.371094 0.539062 Z M 13.371094 0.539062 "/>
<path style=" stroke:none;fill-rule:nonzero;fill:rgb(46.666667%,69.803922%,33.333333%);fill-opacity:1;" d="M 7.234375 5.917969 C 7.234375 6.0625 7.117188 6.183594 6.96875 6.183594 C 6.824219 6.183594 6.703125 6.0625 6.703125 5.917969 C 6.703125 5.769531 6.824219 5.652344 6.96875 5.652344 C 7.117188 5.652344 7.234375 5.769531 7.234375 5.917969 Z M 7.234375 5.917969 "/>
<path style=" stroke:none;fill-rule:nonzero;fill:rgb(46.666667%,69.803922%,33.333333%);fill-opacity:1;" d="M 8.472656 4.5625 C 8.472656 4.710938 8.355469 4.828125 8.207031 4.828125 C 8.058594 4.828125 7.941406 4.710938 7.941406 4.5625 C 7.941406 4.414062 8.058594 4.296875 8.207031 4.296875 C 8.355469 4.296875 8.472656 4.414062 8.472656 4.5625 Z M 8.472656 4.5625 "/>
<path style=" stroke:none;fill-rule:nonzero;fill:rgb(46.666667%,69.803922%,33.333333%);fill-opacity:1;" d="M 8.234375 4.832031 C 8.234375 4.976562 8.117188 5.097656 7.96875 5.097656 C 7.820312 5.097656 7.703125 4.976562 7.703125 4.832031 C 7.703125 4.683594 7.820312 4.566406 7.96875 4.566406 C 8.117188 4.566406 8.234375 4.683594 8.234375 4.832031 Z M 8.234375 4.832031 "/>
<path style=" stroke:none;fill-rule:nonzero;fill:rgb(46.666667%,69.803922%,33.333333%);fill-opacity:1;" d="M 9.4375 3.234375 C 9.4375 3.382812 9.316406 3.5 9.171875 3.5 C 9.023438 3.5 8.902344 3.382812 8.902344 3.234375 C 8.902344 3.085938 9.023438 2.96875 9.171875 2.96875 C 9.316406 2.96875 9.4375 3.085938 9.4375 3.234375 Z M 9.4375 3.234375 "/>
</g>
</svg>
