<?xml version="1.0" encoding="UTF-8"?>
<svg xmlns="http://www.w3.org/2000/svg" xmlns:xlink="http://www.w3.org/1999/xlink" width="15pt" height="15pt" viewBox="0 0 15 15" version="1.1">
<g id="surface1">
<path style=" stroke:none;fill-rule:nonzero;fill:rgb(92.941176%,72.54902%,50.196078%);fill-opacity:1;" d="M 5.289062 12.984375 C 3.714844 14.5625 1.84375 14.585938 1.191406 13.933594 C 0.535156 13.277344 0.558594 11.410156 2.136719 9.832031 L 10.023438 1.945312 C 11.597656 0.371094 13.46875 0.347656 14.121094 1 C 14.773438 1.652344 14.753906 3.523438 13.175781 5.101562 Z M 5.289062 12.984375 "/>
<path style=" stroke:none;fill-rule:nonzero;fill:rgb(89.803922%,63.137255%,34.117647%);fill-opacity:1;" d="M 10.132812 3.320312 C 10.789062 3.972656 11.285156 4.535156 11.632812 4.1875 C 11.695312 4.125 11.734375 4.042969 11.757812 3.953125 C 11.75 3.933594 11.742188 3.917969 11.742188 3.894531 C 11.6875 3.417969 10.734375 2.378906 10.039062 1.929688 L 10.023438 1.945312 L 9.40625 2.558594 C 9.589844 2.785156 9.851562 3.035156 10.132812 3.320312 Z M 8.242188 5.214844 C 8.894531 5.867188 9.390625 6.429688 9.738281 6.082031 C 9.804688 6.015625 9.839844 5.933594 9.867188 5.84375 C 9.859375 5.828125 9.851562 5.808594 9.847656 5.789062 C 9.796875 5.308594 8.84375 4.269531 8.148438 3.820312 L 7.515625 4.453125 C 7.695312 4.675781 7.957031 4.929688 8.242188 5.214844 Z M 6.347656 7.105469 C 7.003906 7.757812 7.5 8.320312 7.847656 7.972656 C 7.910156 7.910156 7.949219 7.828125 7.972656 7.738281 C 7.964844 7.71875 7.957031 7.699219 7.957031 7.679688 C 7.902344 7.203125 6.949219 6.164062 6.253906 5.714844 L 5.621094 6.34375 C 5.804688 6.570312 6.066406 6.820312 6.347656 7.105469 Z M 4.457031 8.996094 C 5.109375 9.652344 5.605469 10.214844 5.957031 9.867188 C 6.019531 9.800781 6.054688 9.71875 6.082031 9.628906 C 6.074219 9.613281 6.066406 9.59375 6.0625 9.574219 C 6.011719 9.09375 5.058594 8.054688 4.363281 7.605469 L 3.730469 8.238281 C 3.914062 8.460938 4.171875 8.714844 4.457031 8.996094 Z M 2.566406 10.890625 C 3.21875 11.542969 3.714844 12.105469 4.0625 11.757812 C 4.125 11.695312 4.164062 11.613281 4.1875 11.523438 C 4.179688 11.503906 4.171875 11.484375 4.171875 11.464844 C 4.117188 10.988281 3.164062 9.949219 2.46875 9.496094 L 2.136719 9.832031 C 2.035156 9.933594 1.9375 10.039062 1.847656 10.144531 C 2.03125 10.363281 2.285156 10.613281 2.566406 10.890625 Z M 2.566406 10.890625 "/>
<path style=" stroke:none;fill-rule:nonzero;fill:rgb(100%,85.098039%,51.372549%);fill-opacity:1;" d="M 10.359375 1.636719 C 10.304688 1.683594 10.09375 1.875 10.039062 1.929688 C 10.734375 2.378906 11.6875 3.417969 11.742188 3.894531 C 11.742188 3.914062 11.75 3.933594 11.757812 3.953125 C 11.789062 4.027344 11.863281 4.082031 11.949219 4.082031 L 11.972656 4.078125 C 12.085938 4.066406 12.167969 3.964844 12.15625 3.847656 C 12.085938 3.246094 11.164062 2.183594 10.359375 1.636719 Z M 8.449219 3.519531 L 8.148438 3.820312 C 8.84375 4.269531 9.796875 5.308594 9.847656 5.789062 C 9.851562 5.808594 9.859375 5.828125 9.863281 5.84375 C 9.898438 5.921875 9.96875 5.972656 10.054688 5.972656 L 10.078125 5.972656 C 10.191406 5.960938 10.273438 5.855469 10.261719 5.742188 C 10.195312 5.132812 9.257812 4.058594 8.449219 3.519531 Z M 6.554688 5.410156 L 6.253906 5.714844 C 6.949219 6.164062 7.902344 7.203125 7.957031 7.679688 C 7.957031 7.699219 7.964844 7.71875 7.972656 7.738281 C 8.003906 7.8125 8.078125 7.867188 8.164062 7.867188 L 8.1875 7.863281 C 8.300781 7.851562 8.382812 7.75 8.371094 7.632812 C 8.300781 7.023438 7.363281 5.953125 6.554688 5.410156 Z M 4.664062 7.304688 L 4.363281 7.605469 C 5.058594 8.054688 6.011719 9.09375 6.0625 9.574219 C 6.066406 9.59375 6.074219 9.609375 6.082031 9.628906 C 6.113281 9.707031 6.183594 9.757812 6.269531 9.757812 L 6.292969 9.757812 C 6.40625 9.746094 6.488281 9.640625 6.476562 9.527344 C 6.410156 8.917969 5.472656 7.84375 4.664062 7.304688 Z M 2.769531 9.195312 L 2.46875 9.496094 C 3.164062 9.949219 4.117188 10.988281 4.171875 11.464844 C 4.171875 11.484375 4.179688 11.503906 4.1875 11.523438 C 4.21875 11.597656 4.292969 11.652344 4.378906 11.652344 C 4.386719 11.652344 4.394531 11.648438 4.402344 11.648438 C 4.515625 11.636719 4.597656 11.535156 4.585938 11.417969 C 4.515625 10.808594 3.578125 9.734375 2.769531 9.195312 Z M 2.769531 9.195312 "/>
</g>
</svg>
