<?xml version="1.0" encoding="UTF-8"?>
<svg xmlns="http://www.w3.org/2000/svg" xmlns:xlink="http://www.w3.org/1999/xlink" width="15pt" height="15pt" viewBox="0 0 15 15" version="1.1">
<g id="surface1">
<path style=" stroke:none;fill-rule:nonzero;fill:rgb(85.098039%,61.960784%,50.980392%);fill-opacity:1;" d="M 7.191406 13.132812 C 5.210938 15.113281 2.519531 15.453125 1.070312 14.007812 C -0.375 12.558594 0.0234375 9.8125 1.945312 7.890625 C 3.34375 6.492188 4.742188 6.492188 5.792969 5.441406 C 6.839844 4.394531 6.492188 3.34375 8.0625 1.773438 C 9.988281 -0.152344 12.433594 -0.5 14.007812 1.074219 C 15.578125 2.644531 15.1875 5.136719 13.308594 7.015625 C 11.734375 8.589844 10.6875 8.238281 9.636719 9.285156 C 8.589844 10.335938 8.589844 11.734375 7.191406 13.132812 Z M 7.191406 13.132812 "/>
<path style=" stroke:none;fill-rule:nonzero;fill:rgb(75.686275%,41.176471%,30.980392%);fill-opacity:1;" d="M 3.421875 8.914062 C 3.285156 8.914062 3.152344 8.851562 3.074219 8.730469 C 2.945312 8.535156 3 8.277344 3.191406 8.152344 C 3.476562 7.964844 3.789062 7.796875 4.125 7.652344 C 5.765625 7.023438 7.003906 5.902344 7.363281 4.722656 C 7.429688 4.5 7.660156 4.375 7.882812 4.445312 C 8.101562 4.511719 8.226562 4.746094 8.160156 4.964844 C 7.726562 6.382812 6.300781 7.710938 4.4375 8.425781 C 4.160156 8.542969 3.890625 8.6875 3.652344 8.847656 C 3.578125 8.894531 3.5 8.914062 3.421875 8.914062 Z M 1.320312 12.640625 L 1.308594 12.640625 C 1.082031 12.632812 0.898438 12.441406 0.902344 12.214844 C 0.921875 11.3125 1.0625 10.164062 1.984375 9.296875 C 2.152344 9.140625 2.417969 9.148438 2.574219 9.3125 C 2.734375 9.480469 2.726562 9.746094 2.558594 9.902344 C 1.863281 10.554688 1.753906 11.445312 1.734375 12.230469 C 1.730469 12.457031 1.546875 12.640625 1.320312 12.640625 Z M 3.039062 12.34375 C 3.003906 12.34375 2.96875 12.339844 2.933594 12.332031 C 2.710938 12.273438 2.578125 12.046875 2.632812 11.824219 C 2.867188 10.910156 3.375 9.625 5.082031 9 C 5.296875 8.921875 5.539062 9.035156 5.617188 9.25 C 5.695312 9.464844 5.585938 9.703125 5.367188 9.785156 C 4.046875 10.265625 3.644531 11.238281 3.441406 12.03125 C 3.394531 12.21875 3.222656 12.34375 3.039062 12.34375 Z M 10.398438 7.742188 C 10.226562 7.742188 10.066406 7.636719 10.007812 7.464844 C 9.929688 7.25 10.042969 7.011719 10.261719 6.933594 C 12.042969 6.304688 13.113281 5.078125 13.535156 3.191406 C 13.585938 2.964844 13.808594 2.828125 14.03125 2.875 C 14.253906 2.925781 14.398438 3.148438 14.347656 3.371094 C 13.867188 5.535156 12.585938 6.996094 10.539062 7.71875 C 10.492188 7.734375 10.445312 7.742188 10.398438 7.742188 Z M 10.398438 7.742188 "/>
<path style=" stroke:none;fill-rule:nonzero;fill:rgb(75.686275%,41.176471%,30.980392%);fill-opacity:1;" d="M 10.191406 6.199219 C 10.027344 6.199219 9.867188 6.097656 9.804688 5.933594 C 9.71875 5.71875 9.824219 5.476562 10.039062 5.394531 C 10.753906 5.109375 11.445312 4.449219 11.753906 3.753906 C 11.847656 3.546875 12.09375 3.449219 12.304688 3.542969 C 12.515625 3.636719 12.609375 3.882812 12.515625 4.09375 C 12.117188 4.988281 11.265625 5.804688 10.34375 6.167969 C 10.292969 6.1875 10.242188 6.199219 10.191406 6.199219 Z M 6.5625 9.203125 C 6.398438 9.203125 6.242188 9.105469 6.175781 8.941406 C 6.089844 8.730469 6.191406 8.484375 6.40625 8.398438 C 6.804688 8.238281 7.230469 7.839844 7.347656 7.636719 C 7.464844 7.4375 7.722656 7.371094 7.917969 7.488281 C 8.117188 7.605469 8.183594 7.859375 8.066406 8.058594 C 7.851562 8.421875 7.289062 8.9375 6.71875 9.171875 C 6.667969 9.191406 6.613281 9.203125 6.5625 9.203125 Z M 8.230469 3.921875 C 8.183594 3.921875 8.136719 3.917969 8.09375 3.902344 C 7.875 3.824219 7.761719 3.585938 7.835938 3.371094 C 8.003906 2.890625 8.347656 2.429688 8.71875 2.199219 C 8.914062 2.078125 9.171875 2.136719 9.292969 2.332031 C 9.417969 2.527344 9.355469 2.785156 9.164062 2.90625 C 8.988281 3.015625 8.738281 3.3125 8.621094 3.644531 C 8.5625 3.816406 8.402344 3.921875 8.230469 3.921875 Z M 2.691406 14.132812 C 2.484375 14.132812 2.308594 13.980469 2.277344 13.773438 C 2.253906 13.585938 2.277344 13.253906 2.320312 13.070312 C 2.371094 12.84375 2.59375 12.707031 2.816406 12.753906 C 3.042969 12.804688 3.183594 13.027344 3.132812 13.25 C 3.105469 13.371094 3.09375 13.59375 3.105469 13.65625 C 3.136719 13.882812 2.976562 14.097656 2.75 14.128906 C 2.730469 14.128906 2.710938 14.132812 2.691406 14.132812 Z M 2.691406 14.132812 "/>
</g>
</svg>
