<?xml version="1.0" encoding="UTF-8"?>
<svg xmlns="http://www.w3.org/2000/svg" xmlns:xlink="http://www.w3.org/1999/xlink" width="15pt" height="15pt" viewBox="0 0 15 15" version="1.1">
<g id="surface1">
<path style=" stroke:none;fill-rule:nonzero;fill:rgb(96.862745%,87.058824%,80.784314%);fill-opacity:1;" d="M 9.640625 1.417969 C 8.953125 0.792969 8.214844 0.417969 7.5 0.417969 C 5.15625 0.417969 2.5 4.421875 2.5 8.332031 C 2.5 8.738281 2.53125 9.125 2.585938 9.496094 C 3.027344 12.703125 5.257812 14.582031 7.5 14.582031 C 10 14.582031 12.5 12.246094 12.5 8.332031 C 12.5 5.613281 11.214844 2.847656 9.640625 1.417969 Z M 9.640625 1.417969 "/>
<path style=" stroke:none;fill-rule:nonzero;fill:rgb(87.843137%,66.666667%,58.039216%);fill-opacity:1;" d="M 9.640625 1.417969 C 10.855469 2.882812 11.769531 5.175781 11.769531 7.441406 C 11.769531 11.195312 9.40625 13.4375 7.042969 13.4375 C 5.152344 13.4375 3.261719 11.996094 2.582031 9.496094 C 3.027344 12.703125 5.257812 14.582031 7.5 14.582031 C 10 14.582031 12.5 12.246094 12.5 8.332031 C 12.5 5.613281 11.214844 2.847656 9.640625 1.417969 Z M 9.640625 1.417969 "/>
</g>
</svg>
