<?xml version="1.0" encoding="UTF-8"?>
<svg xmlns="http://www.w3.org/2000/svg" xmlns:xlink="http://www.w3.org/1999/xlink" width="15pt" height="15pt" viewBox="0 0 15 15" version="1.1">
<g id="surface1">
<path style=" stroke:none;fill-rule:nonzero;fill:rgb(80%,83.921569%,86.666667%);fill-opacity:1;" d="M 3.65625 1.859375 L 4.496094 13.332031 L 10.46875 13.332031 L 11.378906 1.847656 Z M 3.65625 1.859375 "/>
<path style=" stroke:none;fill-rule:nonzero;fill:rgb(100%,100%,100%);fill-opacity:1;" d="M 10.417969 13.035156 L 4.542969 13.097656 L 4.121094 6.71875 L 10.890625 6.71875 Z M 10.417969 13.035156 "/>
<path style=" stroke:none;fill-rule:nonzero;fill:rgb(53.333333%,60%,65.098039%);fill-opacity:1;" d="M 9.960938 14.65625 L 5.039062 14.65625 C 4.324219 14.65625 3.824219 14.175781 3.734375 13.402344 L 2.910156 1.851562 C 2.890625 1.582031 3.09375 1.347656 3.363281 1.332031 C 3.636719 1.3125 3.867188 1.515625 3.886719 1.785156 L 4.707031 13.308594 C 4.75 13.675781 4.945312 13.675781 5.039062 13.675781 L 9.960938 13.675781 C 10.175781 13.675781 10.253906 13.675781 10.292969 13.296875 L 11.113281 1.785156 C 11.132812 1.515625 11.363281 1.3125 11.636719 1.332031 C 11.90625 1.347656 12.109375 1.582031 12.089844 1.851562 L 11.269531 13.378906 C 11.164062 14.4375 10.5 14.65625 9.960938 14.65625 Z M 9.960938 14.65625 "/>
<path style=" stroke:none;fill-rule:nonzero;fill:rgb(53.333333%,60%,65.098039%);fill-opacity:1;" d="M 7.5 13.75 L 6.40625 13.75 C 4.101562 13.75 3.835938 12.632812 3.714844 11.050781 C 3.578125 9.289062 2.984375 1.847656 2.984375 1.847656 L 3.8125 1.78125 C 3.8125 1.78125 4.410156 9.226562 4.542969 10.988281 C 4.65625 12.421875 4.777344 12.917969 6.40625 12.917969 L 7.5 12.917969 C 7.730469 12.917969 7.917969 13.101562 7.917969 13.332031 C 7.917969 13.5625 7.730469 13.75 7.5 13.75 Z M 7.5 13.75 "/>
<path style=" stroke:none;fill-rule:nonzero;fill:rgb(53.333333%,60%,65.098039%);fill-opacity:1;" d="M 8.59375 13.75 L 7.5 13.75 C 7.269531 13.75 7.082031 13.5625 7.082031 13.332031 C 7.082031 13.101562 7.269531 12.917969 7.5 12.917969 L 8.59375 12.917969 C 10.222656 12.917969 10.34375 12.421875 10.457031 10.988281 C 10.59375 9.226562 11.1875 1.78125 11.1875 1.78125 L 12.015625 1.847656 C 12.015625 1.847656 11.421875 9.289062 11.285156 11.050781 C 11.164062 12.632812 10.898438 13.75 8.59375 13.75 Z M 8.59375 13.75 "/>
<path style=" stroke:none;fill-rule:nonzero;fill:rgb(80%,83.921569%,86.666667%);fill-opacity:1;" d="M 12.082031 1.703125 C 12.082031 2.410156 10.945312 2.984375 7.5 2.984375 C 4.054688 2.984375 2.917969 2.410156 2.917969 1.703125 C 2.917969 0.992188 4.054688 0.417969 7.5 0.417969 C 10.945312 0.417969 12.082031 0.992188 12.082031 1.703125 Z M 12.082031 1.703125 "/>
<path style=" stroke:none;fill-rule:nonzero;fill:rgb(100%,100%,100%);fill-opacity:1;" d="M 11.886719 1.71875 C 11.761719 1.527344 11.503906 1.476562 11.308594 1.605469 C 10.441406 2.183594 8.28125 2.257812 7.519531 2.238281 C 7.515625 2.238281 7.511719 2.242188 7.507812 2.242188 C 7.503906 2.242188 7.5 2.238281 7.496094 2.238281 C 6.738281 2.261719 4.578125 2.1875 3.707031 1.605469 C 3.515625 1.476562 3.257812 1.527344 3.128906 1.71875 C 3 1.910156 3.054688 2.171875 3.246094 2.296875 C 4.316406 3.011719 6.542969 3.074219 7.28125 3.074219 C 7.402344 3.074219 7.480469 3.074219 7.507812 3.074219 C 7.539062 3.074219 7.617188 3.074219 7.738281 3.074219 C 8.472656 3.074219 10.703125 3.015625 11.773438 2.296875 C 11.964844 2.171875 12.015625 1.910156 11.886719 1.71875 Z M 11.886719 1.71875 "/>
<path style=" stroke:none;fill-rule:nonzero;fill:rgb(88.235294%,90.980392%,92.941176%);fill-opacity:1;" d="M 10.757812 6.691406 C 10.757812 6.355469 9.296875 6.082031 7.496094 6.082031 C 5.695312 6.082031 4.234375 6.355469 4.234375 6.691406 C 4.234375 7.027344 5.695312 7.300781 7.496094 7.300781 C 9.296875 7.300781 10.757812 7.027344 10.757812 6.691406 Z M 10.757812 6.691406 "/>
<path style=" stroke:none;fill-rule:nonzero;fill:rgb(53.333333%,60%,65.098039%);fill-opacity:1;" d="M 4.601562 13.140625 L 10.503906 13.140625 L 10.503906 13.90625 L 4.601562 13.90625 Z M 4.601562 13.140625 "/>
</g>
</svg>
