<?xml version="1.0" encoding="UTF-8"?>
<svg xmlns="http://www.w3.org/2000/svg" xmlns:xlink="http://www.w3.org/1999/xlink" width="15pt" height="15pt" viewBox="0 0 15 15" version="1.1">
<g id="surface1">
<path style=" stroke:none;fill-rule:nonzero;fill:rgb(46.666667%,69.803922%,33.333333%);fill-opacity:1;" d="M 12.957031 3.722656 C 14.429688 2.839844 14.792969 0.253906 14.5 0.550781 C 14.792969 0.253906 12.140625 0.550781 11.257812 2.023438 C 11.257812 1.433594 10.667969 -0.921875 9.785156 1.140625 C 8.902344 3.203125 9.195312 3.496094 9.195312 4.085938 C 9.195312 4.675781 10.375 4.675781 10.375 4.675781 C 10.375 4.675781 10.320312 5.800781 10.910156 5.800781 C 11.5 5.800781 11.742188 6.042969 13.804688 5.160156 C 15.867188 4.277344 13.546875 3.722656 12.957031 3.722656 Z M 12.957031 3.722656 "/>
<path style=" stroke:none;fill-rule:nonzero;fill:rgb(95.686275%,56.470588%,4.705882%);fill-opacity:1;" d="M 9.34375 9.832031 C 6.167969 13.003906 0.945312 15.28125 0.210938 14.542969 C -0.527344 13.808594 1.75 8.585938 4.921875 5.410156 C 8.097656 2.238281 9.726562 2.261719 11.109375 3.644531 C 12.492188 5.027344 12.515625 6.65625 9.34375 9.832031 Z M 9.34375 9.832031 "/>
<path style=" stroke:none;fill-rule:nonzero;fill:rgb(83.921569%,45.882353%,1.176471%);fill-opacity:1;" d="M 9.113281 6.066406 C 8.710938 5.660156 7.960938 4.90625 7.160156 3.523438 C 6.847656 3.726562 6.511719 3.976562 6.15625 4.277344 C 7.324219 5.78125 9.539062 6.492188 9.113281 6.066406 Z M 5.996094 9.429688 C 5.5625 8.996094 4.734375 8.160156 3.867188 6.578125 C 3.582031 6.925781 3.308594 7.28125 3.042969 7.648438 C 4.214844 9.148438 6.417969 9.851562 5.996094 9.429688 Z M 9.871094 9.285156 C 8.378906 8.445312 7.582031 7.65625 7.160156 7.234375 C 6.738281 6.808594 7.449219 9.03125 8.960938 10.199219 C 9.089844 10.078125 9.703125 9.460938 9.871094 9.285156 Z M 4.796875 13.167969 C 5.167969 12.964844 5.546875 12.742188 5.925781 12.503906 C 4.5625 11.710938 3.8125 10.96875 3.410156 10.566406 C 3.027344 10.183594 3.574219 11.960938 4.796875 13.167969 Z M 4.796875 13.167969 "/>
</g>
</svg>
