<?xml version="1.0" encoding="UTF-8"?>
<svg xmlns="http://www.w3.org/2000/svg" xmlns:xlink="http://www.w3.org/1999/xlink" width="15pt" height="15pt" viewBox="0 0 15 15" version="1.1">
<g id="surface1">
<path style=" stroke:none;fill-rule:nonzero;fill:rgb(85.098039%,61.960784%,50.980392%);fill-opacity:1;" d="M 0.105469 5.417969 C 0.105469 2.433594 4.269531 -0.832031 7.605469 2.082031 C 8.734375 3.074219 9.6875 3.75 9.6875 5 C 14.6875 4.167969 15.398438 8.703125 14.6875 10.832031 C 14.269531 12.082031 12.242188 15.441406 4.6875 12.082031 C 0.9375 10.417969 0.105469 7.242188 0.105469 5.417969 Z M 0.105469 5.417969 "/>
<path style=" stroke:none;fill-rule:nonzero;fill:rgb(75.686275%,41.176471%,30.980392%);fill-opacity:1;" d="M 7.378906 6.175781 C 8.140625 5.453125 8.890625 5.136719 9.734375 4.992188 L 9.6875 5 C 9.6875 4.640625 9.601562 4.335938 9.464844 4.050781 C 8.601562 4.371094 7.679688 5 7.378906 6.175781 Z M 7.378906 6.175781 "/>
<path style=" stroke:none;fill-rule:nonzero;fill:rgb(75.686275%,41.176471%,30.980392%);fill-opacity:1;" d="M 4.6875 6.667969 C 4.6875 6.898438 4.5 7.082031 4.269531 7.082031 C 4.039062 7.082031 3.855469 6.898438 3.855469 6.667969 C 3.855469 6.4375 4.039062 6.25 4.269531 6.25 C 4.5 6.25 4.6875 6.4375 4.6875 6.667969 Z M 4.6875 6.667969 "/>
<path style=" stroke:none;fill-rule:nonzero;fill:rgb(75.686275%,41.176471%,30.980392%);fill-opacity:1;" d="M 13.019531 10.832031 C 13.019531 11.0625 12.835938 11.25 12.605469 11.25 C 12.375 11.25 12.1875 11.0625 12.1875 10.832031 C 12.1875 10.601562 12.375 10.417969 12.605469 10.417969 C 12.835938 10.417969 13.019531 10.601562 13.019531 10.832031 Z M 13.019531 10.832031 "/>
<path style=" stroke:none;fill-rule:nonzero;fill:rgb(75.686275%,41.176471%,30.980392%);fill-opacity:1;" d="M 6.769531 10.625 C 6.769531 10.96875 6.492188 11.25 6.144531 11.25 C 5.800781 11.25 5.519531 10.96875 5.519531 10.625 C 5.519531 10.28125 5.800781 10 6.144531 10 C 6.492188 10 6.769531 10.28125 6.769531 10.625 Z M 6.769531 10.625 "/>
<path style=" stroke:none;fill-rule:nonzero;fill:rgb(75.686275%,41.176471%,30.980392%);fill-opacity:1;" d="M 3.019531 8.125 C 3.019531 8.46875 2.742188 8.75 2.394531 8.75 C 2.050781 8.75 1.769531 8.46875 1.769531 8.125 C 1.769531 7.78125 2.050781 7.5 2.394531 7.5 C 2.742188 7.5 3.019531 7.78125 3.019531 8.125 Z M 3.019531 8.125 "/>
</g>
</svg>
