<?xml version="1.0" encoding="UTF-8"?>
<svg xmlns="http://www.w3.org/2000/svg" xmlns:xlink="http://www.w3.org/1999/xlink" width="15pt" height="15pt" viewBox="0 0 15 15" version="1.1">
<g id="surface1">
<path style=" stroke:none;fill-rule:nonzero;fill:rgb(75.686275%,41.176471%,30.980392%);fill-opacity:1;" d="M 10.808594 6.328125 C 11.660156 9.761719 10.125 13.097656 7.378906 13.777344 C 4.628906 14.460938 1.714844 12.230469 0.859375 8.796875 C 0.0078125 5.363281 1.546875 2.027344 4.292969 1.34375 C 7.039062 0.664062 9.957031 2.894531 10.808594 6.328125 Z M 10.808594 6.328125 "/>
<path style=" stroke:none;fill-rule:nonzero;fill:rgb(75.686275%,41.176471%,30.980392%);fill-opacity:1;" d="M 14.226562 5.480469 C 15.222656 9.496094 11.605469 12.730469 8 13.625 C 4.394531 14.519531 2.023438 12.152344 1.171875 8.71875 C 0.320312 5.285156 1.308594 2.085938 4.914062 1.191406 C 8.519531 0.296875 13.164062 1.195312 14.226562 5.480469 Z M 14.226562 5.480469 "/>
<path style=" stroke:none;fill-rule:nonzero;fill:rgb(46.666667%,69.803922%,33.333333%);fill-opacity:1;" d="M 10.1875 6.484375 C 10.933594 9.488281 9.585938 12.40625 7.183594 13 C 4.78125 13.597656 2.226562 11.644531 1.484375 8.640625 C 0.738281 5.636719 2.082031 2.71875 4.484375 2.121094 C 6.886719 1.527344 9.441406 3.476562 10.1875 6.484375 Z M 10.1875 6.484375 "/>
<path style=" stroke:none;fill-rule:nonzero;fill:rgb(65.098039%,82.745098%,53.333333%);fill-opacity:1;" d="M 5.363281 2.433594 C 7.328125 2.433594 9.183594 4.179688 9.78125 6.582031 C 10.121094 7.945312 10.015625 9.324219 9.488281 10.472656 C 8.976562 11.585938 8.121094 12.339844 7.085938 12.597656 C 6.832031 12.660156 6.570312 12.691406 6.304688 12.691406 C 4.34375 12.691406 2.484375 10.945312 1.886719 8.542969 C 1.199219 5.765625 2.410156 3.066406 4.585938 2.527344 C 4.839844 2.464844 5.101562 2.433594 5.363281 2.433594 M 5.363281 2.015625 C 5.070312 2.015625 4.777344 2.050781 4.484375 2.121094 C 2.082031 2.71875 0.738281 5.636719 1.484375 8.640625 C 2.136719 11.28125 4.1875 13.109375 6.304688 13.109375 C 6.597656 13.109375 6.894531 13.074219 7.183594 13 C 9.585938 12.40625 10.933594 9.488281 10.1875 6.484375 C 9.53125 3.84375 7.480469 2.015625 5.363281 2.015625 Z M 5.363281 2.015625 "/>
<path style=" stroke:none;fill-rule:nonzero;fill:rgb(65.098039%,82.745098%,53.333333%);fill-opacity:1;" d="M 7.90625 7.714844 L 6.738281 8.261719 L 7.429688 9.992188 L 6.199219 9.023438 L 5.90625 10.761719 L 5.332031 9.054688 L 4.230469 9.78125 L 4.648438 8.125 L 3.378906 7.414062 L 4.546875 6.867188 L 3.855469 5.136719 L 5.089844 6.019531 L 5.378906 4.28125 L 5.953125 6.078125 L 7.054688 5.351562 L 6.640625 7.003906 Z M 7.90625 7.714844 "/>
<path style=" stroke:none;fill-rule:nonzero;fill:rgb(65.098039%,82.745098%,53.333333%);fill-opacity:1;" d="M 5.90625 11.175781 C 5.730469 11.175781 5.570312 11.066406 5.511719 10.894531 L 5.109375 9.699219 L 4.457031 10.128906 C 4.316406 10.222656 4.128906 10.21875 3.988281 10.121094 C 3.847656 10.019531 3.785156 9.84375 3.824219 9.679688 L 4.164062 8.332031 L 3.175781 7.777344 C 3.039062 7.703125 2.957031 7.554688 2.964844 7.402344 C 2.96875 7.246094 3.0625 7.105469 3.203125 7.039062 L 4.015625 6.65625 L 3.46875 5.292969 C 3.402344 5.121094 3.453125 4.925781 3.597656 4.808594 C 3.746094 4.695312 3.949219 4.691406 4.097656 4.800781 L 4.789062 5.292969 L 4.96875 4.214844 C 5 4.023438 5.15625 3.878906 5.347656 3.867188 C 5.546875 3.855469 5.71875 3.972656 5.777344 4.15625 L 6.183594 5.425781 L 6.824219 5.003906 C 6.96875 4.90625 7.15625 4.910156 7.296875 5.011719 C 7.4375 5.109375 7.5 5.285156 7.460938 5.453125 L 7.121094 6.796875 L 8.109375 7.351562 C 8.246094 7.429688 8.328125 7.574219 8.320312 7.730469 C 8.316406 7.886719 8.222656 8.027344 8.082031 8.09375 L 7.273438 8.472656 L 7.816406 9.839844 C 7.886719 10.011719 7.828125 10.214844 7.679688 10.328125 C 7.527344 10.4375 7.320312 10.4375 7.171875 10.320312 L 6.492188 9.785156 L 6.320312 10.828125 C 6.289062 11.019531 6.132812 11.160156 5.941406 11.175781 Z M 5.332031 8.636719 C 5.378906 8.636719 5.425781 8.644531 5.46875 8.660156 C 5.589844 8.703125 5.6875 8.796875 5.730469 8.921875 L 5.773438 9.046875 L 5.789062 8.953125 C 5.8125 8.808594 5.910156 8.6875 6.046875 8.632812 C 6.183594 8.582031 6.339844 8.605469 6.457031 8.695312 L 6.46875 8.703125 L 6.351562 8.417969 C 6.269531 8.210938 6.363281 7.976562 6.5625 7.886719 L 6.996094 7.683594 L 6.433594 7.371094 C 6.269531 7.277344 6.1875 7.085938 6.234375 6.902344 L 6.390625 6.289062 L 6.183594 6.425781 C 6.074219 6.496094 5.9375 6.515625 5.816406 6.46875 C 5.691406 6.425781 5.597656 6.328125 5.558594 6.203125 L 5.507812 6.046875 L 5.5 6.089844 C 5.476562 6.230469 5.382812 6.347656 5.25 6.40625 C 5.117188 6.460938 4.964844 6.441406 4.847656 6.359375 L 4.769531 6.304688 L 4.933594 6.714844 C 5.015625 6.917969 4.925781 7.152344 4.722656 7.246094 L 4.292969 7.449219 L 4.851562 7.761719 C 5.015625 7.851562 5.097656 8.042969 5.050781 8.226562 L 4.894531 8.84375 L 5.105469 8.703125 C 5.171875 8.660156 5.253906 8.636719 5.332031 8.636719 Z M 5.332031 8.636719 "/>
<path style=" stroke:none;fill-rule:nonzero;fill:rgb(77.647059%,89.803922%,70.196078%);fill-opacity:1;" d="M 6.996094 7.507812 L 6.28125 7.847656 L 6.730469 8.902344 L 5.960938 8.367188 L 5.804688 9.433594 L 5.425781 8.335938 L 4.757812 8.785156 L 4.992188 7.769531 L 4.199219 7.335938 L 4.910156 7 L 4.460938 5.941406 L 5.234375 6.476562 L 5.386719 5.410156 L 5.769531 6.511719 L 6.4375 6.058594 L 6.203125 7.078125 Z M 6.996094 7.507812 "/>
<path style=" stroke:none;fill-rule:nonzero;fill:rgb(77.647059%,89.803922%,70.196078%);fill-opacity:1;" d="M 5.804688 9.640625 C 5.714844 9.640625 5.636719 9.585938 5.609375 9.5 L 5.316406 8.65625 L 4.871094 8.957031 C 4.800781 9.003906 4.707031 9.003906 4.636719 8.953125 C 4.566406 8.90625 4.535156 8.820312 4.554688 8.734375 L 4.753906 7.875 L 4.101562 7.519531 C 4.03125 7.484375 3.988281 7.410156 3.992188 7.332031 C 3.992188 7.253906 4.039062 7.183594 4.109375 7.148438 L 4.640625 6.894531 L 4.269531 6.023438 C 4.234375 5.9375 4.257812 5.835938 4.328125 5.777344 C 4.402344 5.71875 4.503906 5.714844 4.582031 5.769531 L 5.074219 6.113281 L 5.183594 5.382812 C 5.195312 5.285156 5.273438 5.214844 5.367188 5.203125 C 5.464844 5.191406 5.554688 5.253906 5.585938 5.34375 L 5.878906 6.1875 L 6.324219 5.886719 C 6.394531 5.839844 6.488281 5.839844 6.558594 5.890625 C 6.628906 5.9375 6.660156 6.023438 6.640625 6.109375 L 6.441406 6.96875 L 7.09375 7.324219 C 7.164062 7.363281 7.207031 7.4375 7.203125 7.515625 C 7.203125 7.59375 7.15625 7.664062 7.085938 7.695312 L 6.554688 7.949219 L 6.925781 8.824219 C 6.960938 8.910156 6.9375 9.007812 6.863281 9.066406 C 6.792969 9.125 6.6875 9.128906 6.613281 9.074219 L 6.121094 8.730469 L 6.011719 9.464844 C 5.996094 9.558594 5.921875 9.632812 5.824219 9.640625 Z M 5.425781 8.125 C 5.449219 8.125 5.46875 8.128906 5.492188 8.136719 C 5.554688 8.15625 5.601562 8.207031 5.621094 8.265625 L 5.722656 8.558594 L 5.757812 8.335938 C 5.765625 8.265625 5.8125 8.203125 5.878906 8.175781 C 5.945312 8.148438 6.023438 8.15625 6.082031 8.195312 L 6.257812 8.320312 L 6.089844 7.929688 C 6.046875 7.824219 6.09375 7.707031 6.191406 7.660156 L 6.535156 7.496094 L 6.101562 7.257812 C 6.019531 7.214844 5.976562 7.121094 6 7.03125 L 6.117188 6.527344 L 5.882812 6.683594 C 5.828125 6.71875 5.761719 6.726562 5.703125 6.707031 C 5.640625 6.6875 5.589844 6.640625 5.570312 6.578125 L 5.46875 6.289062 L 5.4375 6.507812 C 5.429688 6.578125 5.382812 6.640625 5.316406 6.667969 C 5.25 6.695312 5.171875 6.6875 5.113281 6.648438 L 4.933594 6.523438 L 5.101562 6.917969 C 5.144531 7.019531 5.101562 7.136719 5 7.1875 L 4.65625 7.347656 L 5.089844 7.585938 C 5.171875 7.628906 5.214844 7.722656 5.195312 7.816406 L 5.078125 8.316406 L 5.308594 8.160156 C 5.34375 8.136719 5.382812 8.125 5.425781 8.125 Z M 5.425781 8.125 "/>
<path style=" stroke:none;fill-rule:nonzero;fill:rgb(16.078431%,18.431373%,20%);fill-opacity:1;" d="M 3.878906 6.230469 C 3.972656 6.4375 3.9375 6.660156 3.800781 6.722656 C 3.660156 6.785156 3.472656 6.671875 3.378906 6.464844 C 3.28125 6.253906 3.316406 6.035156 3.453125 5.972656 C 3.59375 5.910156 3.78125 6.023438 3.878906 6.230469 Z M 6.667969 5.007812 C 6.613281 5.230469 6.453125 5.382812 6.304688 5.347656 C 6.15625 5.308594 6.078125 5.101562 6.132812 4.878906 C 6.1875 4.65625 6.351562 4.507812 6.5 4.542969 C 6.644531 4.578125 6.722656 4.785156 6.667969 5.007812 Z M 5.566406 9.140625 C 5.511719 9.359375 5.351562 9.511719 5.203125 9.476562 C 5.054688 9.441406 4.976562 9.230469 5.03125 9.011719 C 5.085938 8.789062 5.25 8.636719 5.398438 8.671875 C 5.542969 8.710938 5.621094 8.917969 5.566406 9.140625 Z M 6.90625 10.046875 C 7.003906 10.253906 6.96875 10.472656 6.828125 10.539062 C 6.691406 10.601562 6.503906 10.484375 6.40625 10.277344 C 6.3125 10.070312 6.34375 9.851562 6.484375 9.785156 C 6.621094 9.722656 6.8125 9.839844 6.90625 10.046875 Z M 7.375 6.847656 C 7.246094 6.96875 7.089844 7.007812 7.023438 6.941406 C 6.957031 6.867188 7.003906 6.714844 7.128906 6.589844 C 7.257812 6.46875 7.414062 6.429688 7.480469 6.5 C 7.546875 6.570312 7.5 6.722656 7.375 6.847656 Z M 5.175781 5.859375 C 5.25 6.019531 5.242188 6.179688 5.152344 6.222656 C 5.066406 6.265625 4.933594 6.167969 4.859375 6.011719 C 4.785156 5.851562 4.792969 5.691406 4.882812 5.648438 C 4.96875 5.605469 5.101562 5.703125 5.175781 5.859375 Z M 3.519531 8.816406 C 3.390625 8.9375 3.234375 8.980469 3.167969 8.910156 C 3.101562 8.839844 3.148438 8.683594 3.273438 8.5625 C 3.402344 8.441406 3.558594 8.398438 3.625 8.46875 C 3.691406 8.539062 3.644531 8.695312 3.519531 8.816406 Z M 7.945312 8.429688 C 8.082031 8.578125 8.101562 8.78125 7.992188 8.886719 C 7.878906 8.988281 7.679688 8.953125 7.542969 8.804688 C 7.402344 8.65625 7.382812 8.453125 7.492188 8.347656 C 7.605469 8.246094 7.804688 8.28125 7.945312 8.429688 Z M 7.945312 8.429688 "/>
</g>
</svg>
