<?xml version="1.0" encoding="UTF-8"?>
<svg xmlns="http://www.w3.org/2000/svg" xmlns:xlink="http://www.w3.org/1999/xlink" width="15pt" height="15pt" viewBox="0 0 15 15" version="1.1">
<g id="surface1">
<path style=" stroke:none;fill-rule:nonzero;fill:rgb(24.313725%,44.705882%,11.372549%);fill-opacity:1;" d="M 14.582031 2.460938 C 15.582031 4.976562 13.984375 11.019531 10.207031 13.5 C 6.433594 15.984375 1.710938 14.992188 0.585938 10.816406 C -0.109375 8.238281 1.746094 6.351562 5.523438 3.867188 C 9.296875 1.386719 13.601562 -0.0234375 14.582031 2.460938 Z M 14.582031 2.460938 "/>
<path style=" stroke:none;fill-rule:nonzero;fill:rgb(24.313725%,44.705882%,11.372549%);fill-opacity:1;" d="M 8.585938 10.847656 C 5.867188 12.738281 2.214844 12.992188 0.890625 11.089844 C -0.4375 9.1875 1.0625 5.847656 3.78125 3.953125 C 6.5 2.058594 12.929688 -0.128906 14.253906 1.773438 C 15.582031 3.679688 11.304688 8.953125 8.585938 10.847656 "/>
<path style=" stroke:none;fill-rule:nonzero;fill:rgb(65.098039%,82.745098%,53.333333%);fill-opacity:1;" d="M 8.257812 11.074219 C 5.859375 12.746094 2.640625 12.363281 1.46875 10.683594 C 0.300781 9.003906 1.667969 6.03125 4.066406 4.359375 C 6.464844 2.6875 12.507812 0.5 13.675781 2.179688 C 14.847656 3.859375 11.667969 8.917969 8.257812 11.074219 "/>
<path style=" stroke:none;fill-rule:nonzero;fill:rgb(77.647059%,89.803922%,70.196078%);fill-opacity:1;" d="M 7.570312 9.96875 C 5.691406 11.277344 3.429688 11.273438 2.515625 9.957031 C 1.597656 8.644531 2.375 6.519531 4.253906 5.210938 C 6.132812 3.902344 10.851562 2.195312 11.769531 3.507812 C 12.683594 4.824219 9.449219 8.660156 7.570312 9.96875 Z M 7.570312 9.96875 "/>
<path style=" stroke:none;fill-rule:nonzero;fill:rgb(40%,12.941176%,7.45098%);fill-opacity:1;" d="M 4.652344 5.203125 C 6.101562 4.230469 7.726562 4.582031 8.734375 5.617188 C 9.332031 6.234375 8.367188 7.859375 6.917969 8.832031 C 5.46875 9.804688 3.679688 9.566406 3.484375 9.136719 C 2.882812 7.820312 3.203125 6.175781 4.652344 5.203125 Z M 4.652344 5.203125 "/>
<path style=" stroke:none;fill-rule:nonzero;fill:rgb(48.627451%,19.607843%,14.509804%);fill-opacity:1;" d="M 5.445312 5.460938 C 6.074219 5.039062 6.867188 5.121094 7.21875 5.640625 C 7.566406 6.160156 7.339844 6.925781 6.710938 7.347656 C 6.082031 7.769531 5.289062 7.6875 4.941406 7.167969 C 4.589844 6.648438 4.816406 5.882812 5.445312 5.460938 Z M 5.445312 5.460938 "/>
</g>
</svg>
