<?xml version="1.0" encoding="UTF-8"?>
<svg xmlns="http://www.w3.org/2000/svg" xmlns:xlink="http://www.w3.org/1999/xlink" width="15pt" height="15pt" viewBox="0 0 15 15" version="1.1">
<g id="surface1">
<path style=" stroke:none;fill-rule:nonzero;fill:rgb(92.941176%,72.54902%,49.803922%);fill-opacity:1;" d="M 13.835938 2.691406 C 12.449219 0.9375 1.890625 1.960938 0.433594 5.886719 C 0.0703125 10 3.078125 14.699219 8.332031 14.167969 C 13.820312 13.609375 15.867188 8.992188 13.835938 2.691406 Z M 13.835938 2.691406 "/>
<path style=" stroke:none;fill-rule:nonzero;fill:rgb(100%,85.098039%,51.372549%);fill-opacity:1;" d="M 1.667969 5 C 2.808594 4.023438 7.082031 1.667969 12.082031 2.5 C 15.417969 2.8125 11.789062 5.640625 8.039062 6.476562 C 4.757812 7.203125 -0.417969 6.789062 1.667969 5 Z M 1.667969 5 "/>
<path style=" stroke:none;fill-rule:nonzero;fill:rgb(46.666667%,69.803922%,33.333333%);fill-opacity:1;" d="M 12.355469 3.59375 C 12.957031 2.96875 12.851562 1.066406 12.578125 0.753906 C 12.175781 0.417969 11.769531 1.441406 10.574219 1.753906 C 10.277344 1.179688 9.957031 0.980469 9.949219 0.976562 C 9.601562 0.730469 8.855469 0.765625 8.644531 1.769531 C 7.929688 1.144531 6.429688 1.089844 6.335938 1.421875 C 5.78125 3.464844 5.015625 3.734375 4.183594 4.582031 C 2.929688 5.863281 5.3125 6.121094 7.734375 5.363281 C 10.15625 4.609375 12.355469 3.59375 12.355469 3.59375 Z M 12.355469 3.59375 "/>
<path style=" stroke:none;fill-rule:nonzero;fill:rgb(46.666667%,69.803922%,33.333333%);fill-opacity:1;" d="M 5.105469 4.390625 C 4.894531 2.933594 2.25 2.660156 1.667969 3.109375 C 0.832031 3.75 1.320312 5.765625 2.1875 6.042969 C 3.703125 6.527344 5.105469 4.390625 5.105469 4.390625 Z M 5.105469 4.390625 "/>
<path style=" stroke:none;fill-rule:nonzero;fill:rgb(40%,12.941176%,7.45098%);fill-opacity:1;" d="M 2.1875 6.042969 C 1.628906 5.820312 2.449219 4.582031 3.332031 4.339844 C 4.21875 4.097656 4.636719 4.546875 4.808594 4.792969 C 4.828125 4.546875 5.171875 4.132812 5.46875 4.046875 C 5.765625 3.957031 6.109375 4.113281 6.285156 4.480469 C 6.285156 4.097656 6.300781 2.863281 7.671875 2.464844 C 8.039062 2.34375 9.078125 2.308594 9.304688 2.882812 C 9.652344 2.585938 10.796875 2.328125 11.078125 3.039062 C 11.199219 2.828125 12.171875 2.464844 12.550781 3.160156 C 12.828125 3.542969 12.402344 3.910156 11.703125 4.375 C 9.425781 5.886719 4.339844 6.890625 2.1875 6.042969 Z M 2.1875 6.042969 "/>
<path style=" stroke:none;fill-rule:nonzero;fill:rgb(75.686275%,41.176471%,30.980392%);fill-opacity:1;" d="M 3.785156 5.191406 C 3.785156 5.476562 3.550781 5.710938 3.265625 5.710938 C 2.976562 5.710938 2.742188 5.476562 2.742188 5.191406 C 2.742188 4.902344 2.976562 4.671875 3.265625 4.671875 C 3.550781 4.671875 3.785156 4.902344 3.785156 5.191406 Z M 3.785156 5.191406 "/>
<path style=" stroke:none;fill-rule:nonzero;fill:rgb(75.686275%,41.176471%,30.980392%);fill-opacity:1;" d="M 10.453125 4.359375 C 10.453125 4.644531 10.21875 4.878906 9.929688 4.878906 C 9.644531 4.878906 9.410156 4.644531 9.410156 4.359375 C 9.410156 4.070312 9.644531 3.835938 9.929688 3.835938 C 10.21875 3.835938 10.453125 4.070312 10.453125 4.359375 Z M 10.453125 4.359375 "/>
<path style=" stroke:none;fill-rule:nonzero;fill:rgb(75.686275%,41.176471%,30.980392%);fill-opacity:1;" d="M 9.0625 3.664062 C 9.0625 4.027344 8.765625 4.324219 8.402344 4.324219 C 8.039062 4.324219 7.742188 4.027344 7.742188 3.664062 C 7.742188 3.296875 8.039062 3.003906 8.402344 3.003906 C 8.765625 3.003906 9.0625 3.296875 9.0625 3.664062 Z M 5 5.796875 C 5 5.960938 4.867188 6.09375 4.703125 6.09375 C 4.542969 6.09375 4.410156 5.960938 4.410156 5.796875 C 4.410156 5.636719 4.542969 5.503906 4.703125 5.503906 C 4.867188 5.503906 5 5.636719 5 5.796875 Z M 5 5.796875 "/>
<path style=" stroke:none;fill-rule:nonzero;fill:rgb(86.666667%,18.039216%,26.666667%);fill-opacity:1;" d="M 6.980469 4.191406 C 7.101562 3.941406 8.371094 5.078125 8.046875 5.808594 C 7.734375 5.964844 6.640625 6.160156 5.496094 6.277344 C 6.007812 5.910156 6.703125 4.757812 6.980469 4.191406 Z M 6.980469 4.191406 "/>
<path style=" stroke:none;fill-rule:nonzero;fill:rgb(91.764706%,34.901961%,43.137255%);fill-opacity:1;" d="M 6.640625 4.816406 C 6.84375 4.410156 7.605469 5.519531 7.34375 5.976562 C 6.941406 6.09375 5.792969 6.261719 5.429688 6.300781 C 5.691406 5.964844 6.433594 5.234375 6.640625 4.816406 Z M 6.640625 4.816406 "/>
<path style=" stroke:none;fill-rule:nonzero;fill:rgb(46.666667%,69.803922%,33.333333%);fill-opacity:1;" d="M 8.984375 5.585938 C 9.296875 5.496094 10.847656 5.066406 11.886719 4.257812 C 11.914062 3.722656 11.484375 3.046875 10.78125 4.191406 C 10.3125 3.90625 9.152344 4.453125 8.984375 5.585938 Z M 8.984375 5.585938 "/>
<path style=" stroke:none;fill-rule:nonzero;fill:rgb(89.803922%,63.137255%,34.117647%);fill-opacity:1;" d="M 11.667969 9.582031 C 11.667969 10.042969 11.292969 10.417969 10.832031 10.417969 C 10.375 10.417969 10 10.042969 10 9.582031 C 10 9.125 10.375 8.75 10.832031 8.75 C 11.292969 8.75 11.667969 9.125 11.667969 9.582031 Z M 11.667969 9.582031 "/>
<path style=" stroke:none;fill-rule:nonzero;fill:rgb(89.803922%,63.137255%,34.117647%);fill-opacity:1;" d="M 10 11.667969 C 10 11.898438 9.8125 12.082031 9.582031 12.082031 C 9.351562 12.082031 9.167969 11.898438 9.167969 11.667969 C 9.167969 11.4375 9.351562 11.25 9.582031 11.25 C 9.8125 11.25 10 11.4375 10 11.667969 Z M 10 11.667969 "/>
<path style=" stroke:none;fill-rule:nonzero;fill:rgb(89.803922%,63.137255%,34.117647%);fill-opacity:1;" d="M 7.082031 10.207031 C 7.082031 10.554688 6.804688 10.832031 6.457031 10.832031 C 6.113281 10.832031 5.832031 10.554688 5.832031 10.207031 C 5.832031 9.863281 6.113281 9.582031 6.457031 9.582031 C 6.804688 9.582031 7.082031 9.863281 7.082031 10.207031 Z M 7.082031 10.207031 "/>
</g>
</svg>
