<?xml version="1.0" encoding="UTF-8"?>
<svg xmlns="http://www.w3.org/2000/svg" xmlns:xlink="http://www.w3.org/1999/xlink" width="15pt" height="15pt" viewBox="0 0 15 15" version="1.1">
<g id="surface1">
<path style=" stroke:none;fill-rule:nonzero;fill:rgb(95.686275%,56.470588%,4.705882%);fill-opacity:1;" d="M 4.820312 14.753906 C 3.894531 14.492188 2.585938 13.042969 1.960938 11.699219 C 1.886719 11.535156 1.503906 11.417969 1.433594 11.246094 C 0.398438 8.65625 0.265625 5.226562 2.640625 2.847656 C 5.3125 0.175781 8.558594 -0.121094 11.171875 0.730469 C 11.359375 0.792969 11.523438 1.195312 11.710938 1.230469 C 14.175781 1.695312 15.175781 4.378906 14.109375 4.070312 C 13.609375 3.929688 13.003906 3.839844 12.519531 3.894531 C 12.339844 3.914062 12.082031 4.265625 11.875 4.292969 C 11.558594 4.339844 10.777344 4.382812 10.390625 4.421875 C 6.574219 4.804688 5.226562 7.324219 5.054688 10.359375 C 5.035156 10.699219 4.796875 10.621094 4.75 10.894531 C 4.605469 11.726562 5.203125 12.929688 5.488281 13.785156 C 5.734375 14.535156 5.746094 15.015625 4.820312 14.753906 Z M 4.820312 14.753906 "/>
<path style=" stroke:none;fill-rule:nonzero;fill:rgb(85.882353%,47.058824%,1.176471%);fill-opacity:1;" d="M 1.71875 4.023438 C 1.121094 4.992188 0.820312 6.066406 0.746094 7.148438 C 1.835938 6.523438 3.386719 6.042969 5.910156 7.074219 C 6.234375 6.492188 6.664062 5.980469 7.214844 5.5625 C 6.800781 5.175781 6.382812 4.878906 6.070312 4.804688 C 5.035156 4.558594 3.082031 3.882812 1.71875 4.023438 Z M 1.617188 11.425781 C 1.75 11.515625 1.914062 11.597656 1.960938 11.699219 C 1.976562 11.726562 1.992188 11.757812 2.003906 11.785156 C 2.804688 11.324219 3.847656 11.074219 4.734375 11.101562 C 4.738281 11.03125 4.738281 10.960938 4.75 10.894531 C 4.789062 10.664062 4.960938 10.679688 5.027344 10.492188 C 2.992188 10.050781 2.214844 10.832031 1.617188 11.425781 Z M 12.042969 1.316406 C 11.933594 1.285156 11.824219 1.253906 11.710938 1.230469 C 11.640625 1.21875 11.570312 1.152344 11.503906 1.074219 C 11.886719 1.957031 12.296875 3.167969 11.933594 4.277344 C 12.128906 4.203125 12.355469 3.910156 12.519531 3.894531 C 12.546875 3.890625 12.578125 3.890625 12.609375 3.890625 C 12.691406 3.179688 12.488281 2.136719 12.042969 1.316406 Z M 12.042969 1.316406 "/>
<path style=" stroke:none;fill-rule:nonzero;fill:rgb(100%,67.45098%,20%);fill-opacity:1;" d="M 0.847656 6.214844 C 0.453125 4.859375 1.007812 0.957031 6.109375 0 C 6.996094 0 10.328125 0.53125 8.828125 6.773438 C 8.59375 7.742188 8.078125 7.914062 7.34375 7.441406 C 5.625 6.339844 2.507812 4.484375 0.847656 6.214844 Z M 0.847656 6.214844 "/>
</g>
</svg>
