<?xml version="1.0" encoding="UTF-8"?>
<svg xmlns="http://www.w3.org/2000/svg" xmlns:xlink="http://www.w3.org/1999/xlink" width="15pt" height="15pt" viewBox="0 0 15 15" version="1.1">
<g id="surface1">
<path style=" stroke:none;fill-rule:nonzero;fill:rgb(80%,83.921569%,86.666667%);fill-opacity:1;" d="M 7.5 14.582031 C 1.265625 14.582031 0.417969 8.75 0.417969 7.082031 L 14.582031 7.082031 C 14.582031 7.917969 13.765625 14.582031 7.5 14.582031 Z M 7.5 14.582031 "/>
<path style=" stroke:none;fill-rule:nonzero;fill:rgb(40%,45.882353%,49.803922%);fill-opacity:1;" d="M 14.582031 7.105469 C 14.582031 9.28125 11.410156 11.042969 7.5 11.042969 C 3.589844 11.042969 0.417969 9.28125 0.417969 7.105469 C 0.417969 4.933594 3.589844 3.589844 7.5 3.589844 C 11.410156 3.589844 14.582031 4.933594 14.582031 7.105469 Z M 14.582031 7.105469 "/>
<path style=" stroke:none;fill-rule:nonzero;fill:rgb(46.666667%,69.803922%,33.333333%);fill-opacity:1;" d="M 1.128906 7.863281 C 0.792969 7.378906 0.15625 6.40625 0.832031 4.949219 C 1.128906 4.183594 1.742188 3.6875 1.824219 3.921875 C 2.015625 4.480469 2.394531 4.964844 2.96875 4.914062 C 2.960938 5.109375 2.691406 3.117188 3.644531 2.585938 C 4.113281 2.328125 4.617188 2.742188 5.191406 3.664062 C 6.109375 5.136719 8.445312 4.449219 9.101562 4.0625 C 9.765625 3.671875 10.347656 3.414062 10.171875 2.371094 C 10.136719 2.140625 10.484375 1.941406 10.839844 2.128906 C 11.433594 2.449219 12.296875 3.242188 12.449219 4.113281 C 12.871094 4.226562 13.191406 4.046875 13.4375 3.550781 C 13.558594 3.304688 13.976562 3.246094 14.152344 3.566406 C 14.46875 4.132812 14.984375 5.871094 14.253906 7.359375 C 13.421875 9.0625 12.152344 9.964844 9.304688 10.328125 C 6.457031 10.695312 2.796875 10.261719 1.128906 7.863281 Z M 1.128906 7.863281 "/>
<path style=" stroke:none;fill-rule:nonzero;fill:rgb(36.078431%,56.862745%,23.137255%);fill-opacity:1;" d="M 8.089844 4.226562 C 8.089844 5.105469 7.335938 5.816406 6.40625 5.816406 C 5.476562 5.816406 4.722656 5.105469 4.722656 4.226562 C 4.722656 3.351562 5.476562 2.640625 6.40625 2.640625 C 7.335938 2.640625 8.089844 3.351562 8.089844 4.226562 Z M 8.089844 4.226562 "/>
<path style=" stroke:none;fill-rule:nonzero;fill:rgb(77.647059%,89.803922%,70.196078%);fill-opacity:1;" d="M 7.671875 4.226562 C 7.671875 4.886719 7.105469 5.421875 6.40625 5.421875 C 5.707031 5.421875 5.140625 4.886719 5.140625 4.226562 C 5.140625 3.566406 5.707031 3.03125 6.40625 3.03125 C 7.105469 3.03125 7.671875 3.566406 7.671875 4.226562 Z M 7.671875 4.226562 "/>
<path style=" stroke:none;fill-rule:nonzero;fill:rgb(16.078431%,18.431373%,20%);fill-opacity:1;" d="M 4.359375 6.042969 C 4.359375 5.582031 3.929688 5.207031 3.402344 5.207031 C 2.875 5.207031 2.449219 5.582031 2.449219 6.042969 C 2.449219 6.5 2.875 6.875 3.402344 6.875 C 3.929688 6.875 4.359375 6.5 4.359375 6.042969 Z M 4.359375 6.042969 "/>
<path style=" stroke:none;fill-rule:nonzero;fill:rgb(86.666667%,18.039216%,26.666667%);fill-opacity:1;" d="M 7.300781 6.324219 C 7.828125 7.320312 6.425781 6.722656 5.378906 7.277344 C 4.332031 7.832031 4.042969 9.332031 3.515625 8.335938 C 2.984375 7.339844 3.40625 6.085938 4.453125 5.527344 C 5.496094 4.972656 6.773438 5.332031 7.300781 6.324219 Z M 7.300781 6.324219 "/>
<path style=" stroke:none;fill-rule:nonzero;fill:rgb(16.078431%,18.431373%,20%);fill-opacity:1;" d="M 11.023438 5.207031 C 11.023438 4.75 10.597656 4.375 10.070312 4.375 C 9.542969 4.375 9.113281 4.75 9.113281 5.207031 C 9.113281 5.667969 9.542969 6.042969 10.070312 6.042969 C 10.597656 6.042969 11.023438 5.667969 11.023438 5.207031 Z M 11.023438 5.207031 "/>
<path style=" stroke:none;fill-rule:nonzero;fill:rgb(57.254902%,40%,80%);fill-opacity:1;" d="M 12.132812 8.386719 C 11.480469 9.003906 11.640625 7.796875 10.992188 7.113281 C 10.34375 6.429688 9.132812 6.523438 9.785156 5.90625 C 10.433594 5.289062 11.488281 5.34375 12.136719 6.03125 C 12.785156 6.714844 12.785156 7.769531 12.132812 8.386719 Z M 12.132812 8.386719 "/>
<path style=" stroke:none;fill-rule:nonzero;fill:rgb(88.235294%,90.980392%,92.941176%);fill-opacity:1;" d="M 11.714844 8.804688 C 11.0625 9.421875 11.222656 8.214844 10.578125 7.53125 C 9.925781 6.84375 8.714844 6.941406 9.367188 6.324219 C 10.019531 5.707031 11.074219 5.761719 11.722656 6.445312 C 12.371094 7.128906 12.367188 8.1875 11.714844 8.804688 Z M 11.714844 8.804688 "/>
<path style=" stroke:none;fill-rule:nonzero;fill:rgb(86.666667%,18.039216%,26.666667%);fill-opacity:1;" d="M 10.003906 8.304688 C 10.332031 9.164062 9.257812 8.535156 8.351562 8.878906 C 7.449219 9.21875 7.0625 10.402344 6.734375 9.542969 C 6.410156 8.683594 6.878906 7.710938 7.78125 7.367188 C 8.683594 7.027344 9.679688 7.445312 10.003906 8.304688 Z M 10.003906 8.304688 "/>
<path style=" stroke:none;fill-rule:nonzero;fill:rgb(91.764706%,34.901961%,43.137255%);fill-opacity:1;" d="M 3.734375 7.953125 C 3.664062 7.308594 4.914062 4.445312 7.136719 6.945312 C 6.613281 7.03125 5.347656 7.03125 4.773438 7.828125 C 4.203125 8.628906 3.679688 7.917969 3.734375 7.953125 "/>
<path style=" stroke:none;fill-rule:nonzero;fill:rgb(65.098039%,82.745098%,53.333333%);fill-opacity:1;" d="M 2.046875 8.210938 C 1.746094 7.808594 2.777344 6.875 3.558594 7.671875 C 3.890625 7.273438 5.519531 6.476562 6.128906 8.210938 C 6.40625 7.898438 8.679688 7.828125 8.714844 9.757812 C 8.734375 10.015625 6.09375 9.96875 4.738281 9.652344 C 3.992188 9.480469 2.621094 8.976562 2.046875 8.210938 Z M 10.832031 9.359375 C 10.347656 9.488281 11.164062 7.222656 12.691406 7.605469 C 12.742188 7.1875 13.074219 5.816406 14.027344 6.058594 C 14.0625 6.457031 14.046875 8.488281 10.832031 9.359375 Z M 10.832031 9.359375 "/>
</g>
</svg>
