<?xml version="1.0" encoding="UTF-8"?>
<svg xmlns="http://www.w3.org/2000/svg" xmlns:xlink="http://www.w3.org/1999/xlink" width="15pt" height="15pt" viewBox="0 0 15 15" version="1.1">
<g id="surface1">
<path style=" stroke:none;fill-rule:nonzero;fill:rgb(75.686275%,41.176471%,30.980392%);fill-opacity:1;" d="M 7.539062 3.871094 C 3.269531 3.871094 0.238281 5.496094 0.238281 7.523438 C 0.238281 10.675781 2.671875 14.007812 7.539062 14.007812 C 12.402344 14.007812 14.835938 10.675781 14.835938 7.523438 C 14.835938 5.496094 11.804688 3.871094 7.539062 3.871094 Z M 7.539062 3.871094 "/>
<path style=" stroke:none;fill-rule:nonzero;fill:rgb(85.098039%,61.960784%,50.980392%);fill-opacity:1;" d="M 7.539062 3.46875 C 3.269531 3.46875 0.238281 4.984375 0.238281 7.46875 C 0.238281 9.957031 3.269531 11.578125 7.539062 11.578125 C 11.804688 11.578125 14.835938 9.847656 14.835938 7.46875 C 14.835938 5.089844 11.804688 3.46875 7.539062 3.46875 Z M 7.539062 3.46875 "/>
<path style=" stroke:none;fill-rule:nonzero;fill:rgb(80%,83.921569%,86.666667%);fill-opacity:1;" d="M 1.050781 8.738281 C 0.644531 9.144531 3.078125 11.578125 4.292969 10.359375 C 5.507812 9.144531 6.769531 10.992188 7.132812 11.171875 C 7.941406 11.578125 9.945312 9.335938 11.996094 10.359375 C 12.808594 10.765625 14.023438 9.550781 14.023438 8.332031 C 14.023438 7.117188 1.457031 8.332031 1.050781 8.738281 Z M 1.050781 8.738281 "/>
<path style=" stroke:none;fill-rule:nonzero;fill:rgb(100%,100%,100%);fill-opacity:1;" d="M 1.007812 8.109375 C 1.007812 8.109375 0.933594 8.265625 0.9375 8.316406 C 1.027344 9.210938 3.078125 11.171875 4.292969 9.957031 C 5.511719 8.738281 6.769531 10.585938 7.132812 10.765625 C 7.941406 11.171875 9.945312 8.929688 11.996094 9.957031 C 12.667969 10.289062 14.019531 9.027344 14.1875 7.949219 C 13.296875 7.949219 1.007812 8.109375 1.007812 8.109375 Z M 1.007812 8.109375 "/>
<path style=" stroke:none;fill-rule:nonzero;fill:rgb(75.686275%,41.176471%,30.980392%);fill-opacity:1;" d="M 7.804688 1.078125 C 6.070312 0.976562 0.335938 1.882812 0.128906 6.914062 C 0.132812 7.167969 0.375 7.640625 1.007812 8.109375 C 2.074219 8.898438 4.246094 9.675781 8.25 9.402344 C 11.738281 9.160156 13.398438 8.527344 14.1875 7.949219 C 14.84375 7.472656 14.902344 7.03125 14.902344 6.894531 C 14.902344 5.273438 13.425781 1.410156 7.804688 1.078125 Z M 7.804688 1.078125 "/>
<path style=" stroke:none;fill-rule:nonzero;fill:rgb(100%,100%,100%);fill-opacity:1;" d="M 6.027344 4.261719 C 6.523438 4.453125 7.128906 4.503906 7.609375 4.519531 C 8.253906 4.546875 8.914062 4.464844 9.515625 4.230469 C 9.515625 3.828125 9.515625 3.046875 7.773438 3.046875 C 6.027344 3.046875 6.027344 3.785156 6.027344 4.261719 Z M 6.027344 4.261719 "/>
<path style=" stroke:none;fill-rule:nonzero;fill:rgb(54.117647%,29.411765%,21.960784%);fill-opacity:1;" d="M 7.839844 2.625 C 6.1875 2.515625 4.753906 3.488281 5.640625 4.066406 C 5.757812 4.144531 5.890625 4.207031 6.027344 4.261719 C 6.402344 3.9375 7.101562 3.597656 7.8125 3.628906 C 8.660156 3.664062 9.226562 3.929688 9.515625 4.230469 C 9.648438 4.179688 9.773438 4.121094 9.898438 4.054688 C 10.519531 3.59375 9.875 2.761719 7.839844 2.625 Z M 7.839844 2.625 "/>
<path style=" stroke:none;fill-rule:nonzero;fill:rgb(85.098039%,61.960784%,50.980392%);fill-opacity:1;" d="M 3.84375 4.058594 C 3.621094 4.152344 2.863281 4.257812 2.769531 4.035156 C 2.675781 3.8125 3.28125 3.34375 3.503906 3.25 C 3.726562 3.15625 3.984375 3.257812 4.078125 3.484375 C 4.171875 3.707031 4.066406 3.960938 3.84375 4.058594 Z M 13.09375 3.847656 C 13.222656 3.992188 13.5 4.539062 13.355469 4.671875 C 13.210938 4.800781 12.695312 4.460938 12.566406 4.316406 C 12.4375 4.167969 12.449219 3.945312 12.597656 3.816406 C 12.742188 3.6875 12.964844 3.699219 13.09375 3.847656 Z M 10.351562 7.230469 C 10.167969 7.292969 9.554688 7.335938 9.492188 7.152344 C 9.429688 6.96875 9.941406 6.625 10.125 6.5625 C 10.308594 6.5 10.507812 6.597656 10.570312 6.78125 C 10.636719 6.964844 10.535156 7.164062 10.351562 7.230469 Z M 3.328125 5.972656 C 3.164062 6.152344 2.5625 6.519531 2.382812 6.355469 C 2.203125 6.191406 2.519531 5.558594 2.683594 5.378906 C 2.847656 5.203125 3.125 5.191406 3.300781 5.355469 C 3.480469 5.519531 3.492188 5.796875 3.328125 5.972656 Z M 3.328125 5.972656 "/>
<path style=" stroke:none;fill-rule:nonzero;fill:rgb(85.098039%,61.960784%,50.980392%);fill-opacity:1;" d="M 7.816406 1.730469 C 7.8125 1.597656 7.585938 1.496094 7.304688 1.496094 C 7.027344 1.5 6.800781 1.605469 6.800781 1.738281 C 6.800781 1.867188 7.03125 1.972656 7.308594 1.96875 C 7.589844 1.964844 7.816406 1.859375 7.816406 1.730469 Z M 7.816406 1.730469 "/>
</g>
</svg>
