<?xml version="1.0" encoding="UTF-8"?>
<svg xmlns="http://www.w3.org/2000/svg" xmlns:xlink="http://www.w3.org/1999/xlink" width="15pt" height="15pt" viewBox="0 0 15 15" version="1.1">
<g id="surface1">
<path style=" stroke:none;fill-rule:nonzero;fill:rgb(100%,85.098039%,51.372549%);fill-opacity:1;" d="M 7.5 4.582031 C 3.75 4.582031 0.417969 6.027344 0.417969 8.332031 C 0.417969 10.0625 2.082031 11.507812 4.582031 11.507812 C 6.023438 11.507812 7.546875 10.636719 8.636719 10.636719 C 8.675781 10.636719 8.714844 10.640625 8.75 10.640625 C 10.378906 10.738281 10.417969 12.082031 12.5 12.082031 C 13.476562 12.082031 14.582031 11.21875 14.582031 9.199219 C 14.582031 6.601562 11.667969 4.582031 7.5 4.582031 Z M 7.5 4.582031 "/>
<path style=" stroke:none;fill-rule:nonzero;fill:rgb(100%,85.098039%,51.372549%);fill-opacity:1;" d="M 13.75 7.5 L 14.582031 7.5 L 14.582031 9.167969 L 13.75 9.167969 Z M 0.417969 6.667969 L 1.25 6.667969 L 1.25 8.332031 L 0.417969 8.332031 Z M 0.417969 6.667969 "/>
<path style=" stroke:none;fill-rule:nonzero;fill:rgb(62.745098%,1.568627%,11.764706%);fill-opacity:1;" d="M 12.5 10.128906 C 11.554688 10.128906 11.132812 9.8125 10.644531 9.449219 C 10.199219 9.117188 9.691406 8.742188 8.785156 8.6875 C 8.738281 8.683594 8.6875 8.683594 8.636719 8.683594 C 8.039062 8.683594 7.394531 8.882812 6.714844 9.097656 C 6 9.320312 5.261719 9.550781 4.582031 9.550781 C 2.410156 9.550781 0.832031 8.339844 0.832031 6.667969 C 0.832031 4.417969 4.269531 3.203125 7.5 3.203125 C 11.363281 3.203125 14.167969 5.023438 14.167969 7.53125 C 14.167969 9.4375 13.167969 10.128906 12.5 10.128906 Z M 12.5 10.128906 "/>
<path style=" stroke:none;fill-rule:nonzero;fill:rgb(100%,90.980392%,71.372549%);fill-opacity:1;" d="M 7.5 3.492188 C 11.121094 3.492188 13.75 5.191406 13.75 7.53125 C 13.75 9.257812 12.890625 9.839844 12.5 9.839844 C 11.734375 9.839844 11.421875 9.605469 10.949219 9.253906 C 10.476562 8.902344 9.890625 8.464844 8.820312 8.398438 C 8.761719 8.394531 8.699219 8.394531 8.636719 8.394531 C 7.949219 8.394531 7.265625 8.609375 6.542969 8.835938 C 5.871094 9.046875 5.171875 9.261719 4.582031 9.261719 C 2.925781 9.261719 1.25 8.371094 1.25 6.667969 C 1.25 4.605469 4.46875 3.492188 7.5 3.492188 M 7.5 2.917969 C 3.75 2.917969 0.417969 4.359375 0.417969 6.667969 C 0.417969 8.398438 2.082031 9.839844 4.582031 9.839844 C 6.023438 9.839844 7.546875 8.972656 8.636719 8.972656 C 8.675781 8.972656 8.714844 8.972656 8.75 8.972656 C 10.378906 9.070312 10.417969 10.417969 12.5 10.417969 C 13.476562 10.417969 14.582031 9.550781 14.582031 7.53125 C 14.582031 4.9375 11.667969 2.917969 7.5 2.917969 Z M 7.5 2.917969 "/>
<path style=" stroke:none;fill-rule:nonzero;fill:rgb(100%,90.980392%,71.372549%);fill-opacity:1;" d="M 6.734375 3.519531 C 6.734375 3.519531 7.917969 3.492188 8.75 4.070312 C 9.167969 4.359375 8.890625 5.007812 8.890625 5.007812 L 9.582031 5.222656 C 9.582031 5.222656 9.558594 4.875 10.832031 4.648438 C 11.769531 4.480469 12.726562 5.222656 12.726562 5.222656 C 12.726562 5.222656 11.667969 3.78125 9.582031 3.492188 C 7.5 3.203125 6.734375 3.519531 6.734375 3.519531 Z M 6.734375 3.519531 "/>
<path style=" stroke:none;fill-rule:nonzero;fill:rgb(90.196078%,90.588235%,90.980392%);fill-opacity:1;" d="M 10.417969 5.800781 C 10.417969 6.4375 9.671875 6.953125 8.75 6.953125 C 7.828125 6.953125 7.082031 6.4375 7.082031 5.800781 C 7.082031 5.164062 7.828125 4.648438 8.75 4.648438 C 9.671875 4.648438 10.417969 5.164062 10.417969 5.800781 Z M 10.417969 5.800781 "/>
<path style=" stroke:none;fill-rule:nonzero;fill:rgb(65.490196%,66.27451%,67.45098%);fill-opacity:1;" d="M 9.582031 5.800781 C 9.582031 6.121094 9.210938 6.378906 8.75 6.378906 C 8.289062 6.378906 7.917969 6.121094 7.917969 5.800781 C 7.917969 5.484375 8.289062 5.222656 8.75 5.222656 C 9.210938 5.222656 9.582031 5.484375 9.582031 5.800781 Z M 9.582031 5.800781 "/>
</g>
</svg>
