<?xml version="1.0" encoding="UTF-8"?>
<svg xmlns="http://www.w3.org/2000/svg" xmlns:xlink="http://www.w3.org/1999/xlink" width="15pt" height="15pt" viewBox="0 0 15 15" version="1.1">
<g id="surface1">
<path style=" stroke:none;fill-rule:nonzero;fill:rgb(95.686275%,56.470588%,4.705882%);fill-opacity:1;" d="M 14.582031 6.667969 C 14.582031 3.332031 12.082031 2.082031 9.582031 2.082031 C 8.859375 2.082031 8.136719 2.238281 7.5 2.539062 C 6.863281 2.238281 6.140625 2.082031 5.417969 2.082031 C 2.917969 2.082031 0.417969 3.332031 0.417969 6.667969 C 0.417969 7.917969 0.964844 9.027344 1.667969 10 C 1.847656 10.25 2.042969 10.476562 2.25 10.6875 C 2.101562 10.9375 1.992188 11.140625 1.925781 11.25 C 1.667969 11.667969 2.082031 12.082031 2.5 12.082031 C 2.789062 12.082031 3.003906 11.828125 3.226562 11.464844 C 4.398438 12.195312 5.84375 12.5 7.5 12.5 C 9.15625 12.5 10.601562 12.195312 11.773438 11.464844 C 11.996094 11.828125 12.210938 12.082031 12.5 12.082031 C 12.917969 12.082031 13.332031 11.667969 13.074219 11.25 C 13.007812 11.140625 12.898438 10.9375 12.75 10.6875 C 12.957031 10.476562 13.152344 10.25 13.332031 10 C 14.035156 9.027344 14.582031 7.917969 14.582031 6.667969 Z M 7.5 7.167969 C 6.90625 6.558594 7.082031 5.832031 7.082031 5.832031 C 7.082031 5.539062 7.242188 5.246094 7.5 4.984375 C 7.757812 5.246094 7.917969 5.539062 7.917969 5.832031 C 7.917969 5.832031 8.09375 6.558594 7.5 7.167969 Z M 3.421875 8.308594 C 2.746094 7.371094 2.585938 6.410156 2.917969 5.417969 C 3.355469 4.101562 4.9375 4.167969 5.417969 4.167969 C 5.535156 4.167969 5.65625 4.175781 5.777344 4.191406 C 5.546875 4.660156 5.417969 5.207031 5.417969 5.832031 C 5.417969 6.449219 5.65625 7.195312 6.230469 7.832031 C 6.105469 7.863281 5.976562 7.894531 5.832031 7.917969 C 5.039062 8.050781 4.386719 8.382812 3.855469 8.792969 C 3.699219 8.648438 3.550781 8.488281 3.421875 8.308594 Z M 7.5 10 C 6.542969 10 5.636719 9.835938 4.863281 9.472656 C 5.140625 9.316406 5.453125 9.203125 5.832031 9.167969 C 6.484375 9.101562 7.035156 8.949219 7.5 8.738281 C 7.964844 8.949219 8.515625 9.101562 9.167969 9.167969 C 9.546875 9.203125 9.859375 9.316406 10.136719 9.472656 C 9.363281 9.835938 8.457031 10 7.5 10 Z M 11.578125 8.308594 C 11.449219 8.488281 11.300781 8.648438 11.144531 8.792969 C 10.613281 8.382812 9.960938 8.050781 9.167969 7.917969 C 9.023438 7.894531 8.894531 7.863281 8.769531 7.832031 C 9.34375 7.195312 9.582031 6.449219 9.582031 5.832031 C 9.582031 5.207031 9.453125 4.660156 9.222656 4.191406 C 9.34375 4.175781 9.464844 4.167969 9.582031 4.167969 C 10.0625 4.167969 11.644531 4.101562 12.082031 5.417969 C 12.414062 6.410156 12.253906 7.371094 11.578125 8.308594 Z M 11.578125 8.308594 "/>
<path style=" stroke:none;fill-rule:nonzero;fill:rgb(67.843137%,34.509804%,6.27451%);fill-opacity:1;" d="M 4.894531 9.484375 C 4.566406 9.671875 4.15625 9.972656 3.90625 10.417969 C 3.621094 10.929688 3.398438 11.265625 3.246094 11.476562 C 3.386719 11.5625 3.527344 11.644531 3.675781 11.71875 C 3.824219 11.429688 4.042969 11.03125 4.324219 10.597656 C 4.644531 10.109375 5.117188 9.800781 5.359375 9.667969 C 5.203125 9.613281 5.046875 9.554688 4.894531 9.484375 Z M 9.769531 9.304688 L 9.765625 9.304688 C 9.898438 9.351562 10.019531 9.40625 10.136719 9.472656 C 10.054688 9.511719 9.96875 9.535156 9.886719 9.570312 C 10.121094 9.742188 10.449219 10.023438 10.703125 10.417969 C 11.011719 10.890625 11.277344 11.339844 11.453125 11.644531 C 11.558594 11.589844 11.667969 11.53125 11.773438 11.464844 C 11.851562 11.589844 11.929688 11.703125 12.007812 11.796875 C 12.007812 11.796875 11.773438 11.464844 11.171875 10.414062 C 10.570312 9.367188 9.769531 9.304688 9.769531 9.304688 Z M 8.769531 7.832031 C 8.792969 7.808594 8.808594 7.785156 8.828125 7.761719 C 8.589844 7.949219 8.269531 8.203125 7.984375 8.4375 C 7.835938 8.5625 7.667969 8.660156 7.5 8.742188 C 7.667969 8.816406 7.851562 8.878906 8.042969 8.9375 C 8.261719 8.816406 8.523438 8.648438 8.75 8.4375 C 8.984375 8.21875 9.121094 8.054688 9.199219 7.925781 C 9.1875 7.921875 9.179688 7.917969 9.167969 7.917969 C 9.023438 7.894531 8.894531 7.863281 8.769531 7.832031 Z M 7.742188 5.296875 C 8.046875 5.042969 8.628906 4.660156 9.390625 4.601562 C 9.34375 4.464844 9.292969 4.335938 9.234375 4.210938 C 8.988281 4.25 8.65625 4.316406 8.332031 4.425781 C 7.96875 4.554688 7.675781 4.808594 7.5 4.988281 C 7.597656 5.085938 7.675781 5.191406 7.742188 5.296875 Z M 7.742188 5.296875 "/>
<path style=" stroke:none;fill-rule:nonzero;fill:rgb(100%,90.980392%,71.372549%);fill-opacity:1;" d="M 3.332031 9.167969 C 3.332031 9.398438 3.148438 9.582031 2.917969 9.582031 C 2.6875 9.582031 2.5 9.398438 2.5 9.167969 C 2.5 8.9375 2.6875 8.75 2.917969 8.75 C 3.148438 8.75 3.332031 8.9375 3.332031 9.167969 Z M 3.332031 9.167969 "/>
<path style=" stroke:none;fill-rule:nonzero;fill:rgb(100%,90.980392%,71.372549%);fill-opacity:1;" d="M 1.667969 5.832031 C 1.667969 6.0625 1.480469 6.25 1.25 6.25 C 1.019531 6.25 0.832031 6.0625 0.832031 5.832031 C 0.832031 5.601562 1.019531 5.417969 1.25 5.417969 C 1.480469 5.417969 1.667969 5.601562 1.667969 5.832031 Z M 1.667969 5.832031 "/>
<path style=" stroke:none;fill-rule:nonzero;fill:rgb(100%,90.980392%,71.372549%);fill-opacity:1;" d="M 2.917969 4.582031 C 2.917969 4.8125 2.730469 5 2.5 5 C 2.269531 5 2.082031 4.8125 2.082031 4.582031 C 2.082031 4.351562 2.269531 4.167969 2.5 4.167969 C 2.730469 4.167969 2.917969 4.351562 2.917969 4.582031 Z M 2.917969 4.582031 "/>
<path style=" stroke:none;fill-rule:nonzero;fill:rgb(100%,90.980392%,71.372549%);fill-opacity:1;" d="M 5.417969 2.917969 C 5.417969 3.148438 5.230469 3.332031 5 3.332031 C 4.769531 3.332031 4.582031 3.148438 4.582031 2.917969 C 4.582031 2.6875 4.769531 2.5 5 2.5 C 5.230469 2.5 5.417969 2.6875 5.417969 2.917969 Z M 5.417969 2.917969 "/>
<path style=" stroke:none;fill-rule:nonzero;fill:rgb(100%,90.980392%,71.372549%);fill-opacity:1;" d="M 6.25 11.25 C 6.25 11.480469 6.0625 11.667969 5.832031 11.667969 C 5.601562 11.667969 5.417969 11.480469 5.417969 11.25 C 5.417969 11.019531 5.601562 10.832031 5.832031 10.832031 C 6.0625 10.832031 6.25 11.019531 6.25 11.25 Z M 6.25 11.25 "/>
<path style=" stroke:none;fill-rule:nonzero;fill:rgb(100%,90.980392%,71.372549%);fill-opacity:1;" d="M 9.167969 10.832031 C 9.167969 11.0625 8.980469 11.25 8.75 11.25 C 8.519531 11.25 8.332031 11.0625 8.332031 10.832031 C 8.332031 10.601562 8.519531 10.417969 8.75 10.417969 C 8.980469 10.417969 9.167969 10.601562 9.167969 10.832031 Z M 9.167969 10.832031 "/>
<path style=" stroke:none;fill-rule:nonzero;fill:rgb(100%,90.980392%,71.372549%);fill-opacity:1;" d="M 10.832031 11.25 C 10.832031 11.480469 10.648438 11.667969 10.417969 11.667969 C 10.1875 11.667969 10 11.480469 10 11.25 C 10 11.019531 10.1875 10.832031 10.417969 10.832031 C 10.648438 10.832031 10.832031 11.019531 10.832031 11.25 Z M 10.832031 11.25 "/>
<path style=" stroke:none;fill-rule:nonzero;fill:rgb(100%,90.980392%,71.372549%);fill-opacity:1;" d="M 13.332031 7.082031 C 13.332031 7.3125 13.148438 7.5 12.917969 7.5 C 12.6875 7.5 12.5 7.3125 12.5 7.082031 C 12.5 6.851562 12.6875 6.667969 12.917969 6.667969 C 13.148438 6.667969 13.332031 6.851562 13.332031 7.082031 Z M 13.332031 7.082031 "/>
<path style=" stroke:none;fill-rule:nonzero;fill:rgb(100%,90.980392%,71.372549%);fill-opacity:1;" d="M 13.332031 3.75 C 13.332031 3.980469 13.148438 4.167969 12.917969 4.167969 C 12.6875 4.167969 12.5 3.980469 12.5 3.75 C 12.5 3.519531 12.6875 3.332031 12.917969 3.332031 C 13.148438 3.332031 13.332031 3.519531 13.332031 3.75 Z M 13.332031 3.75 "/>
<path style=" stroke:none;fill-rule:nonzero;fill:rgb(100%,90.980392%,71.372549%);fill-opacity:1;" d="M 9.582031 3.332031 C 9.582031 3.5625 9.398438 3.75 9.167969 3.75 C 8.9375 3.75 8.75 3.5625 8.75 3.332031 C 8.75 3.101562 8.9375 2.917969 9.167969 2.917969 C 9.398438 2.917969 9.582031 3.101562 9.582031 3.332031 Z M 9.582031 3.332031 "/>
<path style=" stroke:none;fill-rule:nonzero;fill:rgb(100%,90.980392%,71.372549%);fill-opacity:1;" d="M 8.332031 3.75 C 8.332031 3.980469 8.148438 4.167969 7.917969 4.167969 C 7.6875 4.167969 7.5 3.980469 7.5 3.75 C 7.5 3.519531 7.6875 3.332031 7.917969 3.332031 C 8.148438 3.332031 8.332031 3.519531 8.332031 3.75 Z M 8.332031 3.75 "/>
</g>
</svg>
