<?xml version="1.0" encoding="UTF-8"?>
<svg xmlns="http://www.w3.org/2000/svg" xmlns:xlink="http://www.w3.org/1999/xlink" width="15pt" height="15pt" viewBox="0 0 15 15" version="1.1">
<g id="surface1">
<path style=" stroke:none;fill-rule:nonzero;fill:rgb(36.078431%,56.862745%,23.137255%);fill-opacity:1;" d="M 12.445312 10.261719 C 13.496094 9.910156 14.894531 8.507812 14.894531 7.808594 C 14.894531 7.109375 13.84375 7.457031 14.195312 6.40625 C 14.546875 5.359375 14.894531 4.308594 14.195312 3.605469 C 13.496094 2.90625 12.792969 3.605469 12.09375 2.90625 C 11.394531 2.207031 12.09375 1.503906 11.394531 0.804688 C 10.691406 0.105469 9.640625 0.453125 8.59375 0.804688 C 7.542969 1.15625 7.890625 0.105469 7.191406 0.105469 C 6.492188 0.105469 5.089844 1.503906 4.738281 2.554688 C 4.390625 3.605469 3.6875 2.90625 3.339844 3.957031 C 3.015625 4.933594 3.414062 5.964844 2.515625 8.019531 C 2.089844 8.695312 1.6875 9.34375 1.308594 9.910156 C -0.347656 12.414062 0.1875 14.8125 0.1875 14.8125 C 0.1875 14.8125 2.585938 15.347656 5.089844 13.691406 C 5.65625 13.316406 6.308594 12.910156 6.980469 12.484375 C 9.035156 11.585938 10.066406 11.988281 11.042969 11.660156 C 12.09375 11.3125 11.394531 10.609375 12.445312 10.261719 Z M 12.445312 10.261719 "/>
<path style=" stroke:none;fill-rule:nonzero;fill:rgb(40.392157%,61.960784%,26.666667%);fill-opacity:1;" d="M 14.273438 7.921875 C 14.230469 7.792969 14.089844 7.722656 13.960938 7.765625 C 12.621094 8.203125 11.5625 8.046875 11.042969 7.910156 C 12.214844 6.71875 13.265625 5.476562 14.050781 4.332031 C 14.128906 4.21875 14.101562 4.066406 13.988281 3.988281 C 13.875 3.910156 13.71875 3.941406 13.644531 4.050781 C 13.191406 4.707031 12.640625 5.40625 12.027344 6.113281 C 12.0625 5.375 12 4.230469 11.472656 3.097656 C 11.417969 2.972656 11.269531 2.917969 11.144531 2.976562 C 11.023438 3.035156 10.96875 3.179688 11.027344 3.304688 C 11.726562 4.8125 11.523438 6.394531 11.46875 6.734375 C 10.898438 7.355469 10.285156 7.972656 9.652344 8.570312 C 9.71875 7.789062 9.6875 6.519531 9.003906 5.511719 C 8.925781 5.398438 8.773438 5.371094 8.660156 5.445312 C 8.546875 5.523438 8.515625 5.679688 8.59375 5.792969 C 9.410156 6.992188 9.15625 8.710938 9.085938 9.09375 C 8.066406 10.011719 7.019531 10.847656 6.03125 11.523438 C 6.671875 10.496094 7.339844 8.871094 6.863281 7.007812 C 6.828125 6.875 6.695312 6.792969 6.5625 6.828125 C 6.429688 6.863281 6.351562 6.996094 6.382812 7.128906 C 7.085938 9.859375 4.996094 12.125 4.808594 12.320312 C 2.558594 13.71875 1.320312 14.140625 1.308594 14.144531 C 1.179688 14.1875 1.109375 14.328125 1.152344 14.457031 C 1.1875 14.558594 1.28125 14.625 1.386719 14.625 C 1.410156 14.625 1.4375 14.621094 1.464844 14.613281 C 1.53125 14.589844 3.128906 14.050781 6.070312 12.097656 C 6.640625 11.722656 7.222656 11.292969 7.808594 10.828125 C 8.101562 11.003906 8.765625 11.304688 9.960938 11.304688 C 10.296875 11.304688 10.671875 11.28125 11.09375 11.222656 C 11.230469 11.207031 11.324219 11.082031 11.304688 10.945312 C 11.289062 10.8125 11.160156 10.714844 11.027344 10.734375 C 9.484375 10.9375 8.621094 10.675781 8.230469 10.492188 C 9.050781 9.816406 9.871094 9.078125 10.644531 8.308594 C 10.902344 8.402344 11.445312 8.554688 12.203125 8.554688 C 12.742188 8.554688 13.390625 8.476562 14.117188 8.238281 C 14.246094 8.191406 14.316406 8.054688 14.273438 7.921875 Z M 14.273438 7.921875 "/>
<path style=" stroke:none;fill-rule:nonzero;fill:rgb(24.313725%,44.705882%,11.372549%);fill-opacity:1;" d="M 5.3125 10.136719 C 5.503906 10.097656 5.734375 10.058594 5.984375 10.019531 C 7.574219 9.753906 9.214844 9.484375 9.214844 8.464844 C 9.214844 7.949219 8.9375 7.640625 8.753906 7.449219 C 8.859375 7.417969 9 7.390625 9.097656 7.367188 C 9.546875 7.273438 10.101562 7.15625 10.34375 6.664062 C 10.492188 6.359375 10.472656 5.992188 10.28125 5.566406 C 10.457031 5.4375 10.941406 5.285156 11.246094 5.1875 C 11.992188 4.949219 12.699219 4.722656 12.894531 4.144531 C 12.960938 3.941406 12.988281 3.621094 12.722656 3.25 C 12.71875 3.246094 12.714844 3.234375 12.710938 3.230469 C 12.503906 3.195312 12.300781 3.109375 12.09375 2.90625 C 11.964844 2.773438 11.882812 2.644531 11.832031 2.515625 C 11.929688 2.78125 12.183594 3.386719 12.296875 3.550781 C 13.144531 4.746094 9.246094 4.605469 9.789062 5.734375 C 10.429688 7.078125 8.578125 6.65625 8.226562 7.179688 C 7.875 7.707031 8.695312 7.765625 8.695312 8.464844 C 8.695312 9.164062 6.300781 9.410156 5.214844 9.625 C 3.019531 10.058594 0.1875 14.8125 0.1875 14.8125 C 0.1875 14.8125 0.398438 14.859375 0.753906 14.882812 C 1.609375 13.496094 3.777344 10.4375 5.3125 10.136719 Z M 5.3125 10.136719 "/>
<path style=" stroke:none;fill-rule:nonzero;fill:rgb(46.666667%,69.803922%,33.333333%);fill-opacity:1;" d="M 5.214844 9.625 C 6.300781 9.410156 8.695312 9.167969 8.695312 8.464844 C 8.695312 7.765625 7.878906 7.707031 8.226562 7.183594 C 8.578125 6.65625 10.429688 7.078125 9.789062 5.738281 C 9.246094 4.605469 13.144531 4.746094 12.296875 3.550781 C 12.164062 3.359375 11.84375 2.578125 11.796875 2.414062 C 11.644531 1.878906 11.929688 1.339844 11.394531 0.804688 C 10.691406 0.105469 9.640625 0.453125 8.589844 0.804688 C 7.542969 1.15625 7.890625 0.105469 7.191406 0.105469 C 6.492188 0.105469 5.089844 1.503906 4.738281 2.554688 C 4.390625 3.605469 3.6875 2.90625 3.339844 3.957031 C 3.015625 4.933594 3.414062 5.964844 2.515625 8.019531 C 2.089844 8.695312 1.6875 9.34375 1.308594 9.910156 C -0.347656 12.414062 0.1875 14.8125 0.1875 14.8125 C 0.1875 14.8125 3.019531 10.058594 5.214844 9.625 Z M 5.214844 9.625 "/>
<path style=" stroke:none;fill-rule:nonzero;fill:rgb(65.098039%,82.745098%,53.333333%);fill-opacity:1;" d="M 11.832031 3.453125 C 10.699219 2.929688 9.550781 2.867188 8.816406 2.902344 C 9.523438 2.289062 10.21875 1.738281 10.875 1.285156 C 10.988281 1.210938 11.019531 1.054688 10.941406 0.941406 C 10.863281 0.828125 10.710938 0.800781 10.597656 0.878906 C 9.453125 1.664062 8.210938 2.714844 7.019531 3.886719 C 6.878906 3.363281 6.722656 2.308594 7.164062 0.96875 C 7.207031 0.839844 7.136719 0.699219 7.003906 0.65625 C 6.875 0.613281 6.734375 0.683594 6.691406 0.816406 C 6.125 2.546875 6.464844 3.84375 6.621094 4.285156 C 5.851562 5.0625 5.113281 5.878906 4.4375 6.703125 C 4.253906 6.308594 3.992188 5.445312 4.195312 3.902344 C 4.214844 3.765625 4.121094 3.640625 3.984375 3.625 C 3.851562 3.605469 3.722656 3.699219 3.707031 3.835938 C 3.449219 5.765625 3.875 6.75 4.101562 7.121094 C 3.636719 7.707031 3.207031 8.289062 2.832031 8.859375 C 0.878906 11.800781 0.339844 13.398438 0.316406 13.464844 C 0.273438 13.597656 0.34375 13.734375 0.472656 13.777344 C 0.5 13.789062 0.523438 13.792969 0.550781 13.792969 C 0.65625 13.792969 0.75 13.726562 0.785156 13.621094 C 0.789062 13.609375 1.210938 12.371094 2.609375 10.121094 C 2.804688 9.933594 5.0625 7.84375 7.800781 8.546875 C 7.929688 8.578125 8.066406 8.5 8.101562 8.367188 C 8.136719 8.234375 8.054688 8.097656 7.921875 8.066406 C 6.058594 7.589844 4.433594 8.261719 3.402344 8.898438 C 4.078125 7.910156 4.917969 6.859375 5.835938 5.84375 C 6.21875 5.773438 7.9375 5.519531 9.136719 6.335938 C 9.179688 6.363281 9.230469 6.378906 9.277344 6.378906 C 9.355469 6.378906 9.433594 6.339844 9.480469 6.269531 C 9.558594 6.15625 9.527344 6.003906 9.414062 5.925781 C 8.410156 5.242188 7.140625 5.210938 6.359375 5.277344 C 6.953125 4.644531 7.570312 4.03125 8.191406 3.460938 C 8.53125 3.40625 10.109375 3.203125 11.625 3.902344 C 11.65625 3.921875 11.691406 3.925781 11.726562 3.925781 C 11.820312 3.925781 11.910156 3.875 11.953125 3.785156 C 12.011719 3.660156 11.957031 3.511719 11.832031 3.453125 Z M 11.832031 3.453125 "/>
</g>
</svg>
