<?xml version="1.0" encoding="UTF-8"?>
<svg xmlns="http://www.w3.org/2000/svg" xmlns:xlink="http://www.w3.org/1999/xlink" width="15pt" height="15pt" viewBox="0 0 15 15" version="1.1">
<g id="surface1">
<path style=" stroke:none;fill-rule:nonzero;fill:rgb(88.235294%,90.980392%,92.941176%);fill-opacity:1;" d="M 14.167969 2.917969 L 0.832031 2.917969 L 2.082031 15 L 12.917969 15 Z M 14.167969 2.917969 "/>
<path style=" stroke:none;fill-rule:nonzero;fill:rgb(60%,66.666667%,70.980392%);fill-opacity:1;" d="M 5.832031 2.917969 L 0.832031 2.917969 L 2.082031 15 L 6.25 15 Z M 5.832031 2.917969 "/>
<path style=" stroke:none;fill-rule:nonzero;fill:rgb(40%,45.882353%,49.803922%);fill-opacity:1;" d="M 14.542969 0.234375 C 14.472656 0.0898438 14.328125 0 14.167969 0 L 6.667969 0 C 6.539062 0 6.421875 0.0585938 6.339844 0.15625 L 3.933594 2.917969 L 5 2.917969 L 6.867188 0.832031 L 13.300781 0.832031 L 10.507812 4.324219 C 10.363281 4.503906 10.394531 4.765625 10.574219 4.910156 C 10.648438 4.96875 10.742188 5 10.832031 5 C 10.957031 5 11.078125 4.945312 11.160156 4.84375 L 14.492188 0.675781 C 14.59375 0.550781 14.609375 0.378906 14.542969 0.234375 Z M 14.542969 0.234375 "/>
<path style=" stroke:none;fill-rule:nonzero;fill:rgb(86.666667%,18.039216%,26.666667%);fill-opacity:1;" d="M 12.707031 13.332031 L 6.871094 13.332031 L 7.773438 12.082031 L 11.9375 12.082031 Z M 11.425781 11.667969 L 8.332031 11.667969 L 8.652344 11.25 L 11.152344 11.25 Z M 12.003906 10.832031 L 7.839844 10.832031 L 8.738281 9.582031 L 11.238281 9.582031 Z M 11.261719 9.167969 L 8.761719 9.167969 L 9.199219 8.75 L 10.867188 8.75 Z M 11.304688 8.332031 L 8.804688 8.332031 L 9.703125 7.082031 L 10.539062 7.082031 Z M 10.5625 6.667969 L 9.726562 6.667969 L 10.210938 5.417969 Z M 10.5625 6.667969 "/>
<path style=" stroke:none;fill-rule:nonzero;fill:rgb(74.509804%,9.803922%,19.215686%);fill-opacity:1;" d="M 5.835938 13.332031 L 2.152344 13.332031 L 2.546875 12.082031 L 5.179688 12.082031 Z M 4.796875 11.667969 L 2.839844 11.667969 L 2.984375 11.25 L 4.5625 11.25 Z M 5.046875 10.832031 L 2.414062 10.832031 L 2.808594 9.582031 L 4.386719 9.582031 Z M 4.34375 9.167969 L 2.765625 9.167969 L 2.984375 8.75 L 4.035156 8.75 Z M 4.253906 8.332031 L 2.675781 8.332031 L 3.070312 7.082031 L 3.59375 7.082031 Z M 3.550781 6.667969 L 3.023438 6.667969 L 3.15625 5.417969 Z M 3.550781 6.667969 "/>
</g>
</svg>
