<?xml version="1.0" encoding="UTF-8"?>
<svg xmlns="http://www.w3.org/2000/svg" xmlns:xlink="http://www.w3.org/1999/xlink" width="15pt" height="15pt" viewBox="0 0 15 15" version="1.1">
<g id="surface1">
<path style=" stroke:none;fill-rule:nonzero;fill:rgb(95.686275%,56.470588%,4.705882%);fill-opacity:1;" d="M 14.582031 8.546875 L 0.417969 8.332031 L 0.421875 9.425781 C 0.429688 9.675781 0.570312 9.921875 0.875 10.105469 L 3.75 11.867188 L 6.628906 13.628906 C 7.265625 14.019531 8.355469 13.984375 8.933594 13.628906 C 9.507812 13.277344 9.21875 13.101562 9.796875 12.75 C 10.371094 12.398438 10.660156 12.574219 11.234375 12.222656 C 11.8125 11.867188 14.113281 10.460938 14.113281 10.460938 C 14.429688 10.265625 14.589844 10.011719 14.589844 9.757812 Z M 14.582031 8.546875 "/>
<path style=" stroke:none;fill-rule:nonzero;fill:rgb(100%,67.45098%,20%);fill-opacity:1;" d="M 14.113281 7.800781 C 14.113281 7.800781 1.449219 7.097656 0.875 7.449219 C 0.296875 7.800781 0.238281 8.46875 0.875 8.859375 L 3.75 10.621094 L 6.628906 12.378906 C 7.265625 12.769531 8.355469 12.734375 8.933594 12.378906 C 9.507812 12.027344 9.21875 11.851562 9.796875 11.5 C 10.371094 11.148438 10.660156 11.324219 11.234375 10.972656 C 11.8125 10.621094 14.113281 9.210938 14.113281 9.210938 C 14.75 8.820312 14.75 8.191406 14.113281 7.800781 Z M 14.113281 7.800781 "/>
<path style=" stroke:none;fill-rule:nonzero;fill:rgb(100%,85.098039%,51.372549%);fill-opacity:1;" d="M 4.257812 10.265625 L 7.207031 12.027344 C 7.207031 12.027344 7.792969 12.378906 8.382812 12.027344 C 8.882812 11.730469 9.265625 11.148438 9.265625 11.148438 Z M 4.257812 10.265625 "/>
<path style=" stroke:none;fill-rule:nonzero;fill:rgb(46.666667%,69.803922%,33.333333%);fill-opacity:1;" d="M 14.058594 7.734375 C 13.25 6.65625 2.933594 5.898438 1.316406 7.414062 C 0.992188 7.722656 0.375 8.339844 1.03125 9.265625 C 1.316406 9.75 1.914062 10.066406 1.992188 9.914062 C 2.175781 9.566406 2.542969 9.257812 3.097656 9.289062 C 3.066406 9.363281 3.363281 10.625 3.332031 10.652344 C 2.945312 10.980469 3.746094 12.117188 4.683594 11.511719 C 4.917969 11.972656 6.332031 13.113281 7.308594 11.554688 C 7.503906 11.90625 9.542969 12.441406 10.109375 10.816406 C 10.105469 10.847656 10.105469 10.871094 10.097656 10.898438 C 10.058594 11.046875 10.398438 11.171875 10.742188 11.050781 C 11.320312 10.847656 12.15625 10.347656 12.304688 9.792969 C 12.71875 9.722656 13.027344 9.835938 13.265625 10.152344 C 13.382812 10.308594 13.789062 10.34375 13.960938 10.140625 C 14.265625 9.78125 14.765625 8.679688 14.058594 7.734375 Z M 14.058594 7.734375 "/>
<path style=" stroke:none;fill-rule:nonzero;fill:rgb(100%,80%,30.196078%);fill-opacity:1;" d="M 12.917969 10.433594 C 12.917969 10.652344 12.542969 10.832031 12.082031 10.832031 L 2.917969 10.832031 C 2.457031 10.832031 2.082031 10.652344 2.082031 10.433594 L 2.082031 7.703125 L 12.917969 7.703125 Z M 12.917969 10.433594 "/>
<path style=" stroke:none;fill-rule:nonzero;fill:rgb(74.509804%,9.803922%,19.215686%);fill-opacity:1;" d="M 13.878906 8.328125 C 13.878906 9.480469 11.96875 10.417969 9.613281 10.417969 C 7.253906 10.417969 5.34375 9.480469 5.34375 8.328125 C 5.34375 7.175781 7.253906 6.238281 9.613281 6.238281 C 11.96875 6.238281 13.878906 7.175781 13.878906 8.328125 Z M 13.878906 8.328125 "/>
<path style=" stroke:none;fill-rule:nonzero;fill:rgb(95.686275%,56.470588%,4.705882%);fill-opacity:1;" d="M 14.582031 6.046875 L 0.417969 5.832031 L 0.417969 6.925781 L 0.421875 6.925781 C 0.429688 7.175781 0.570312 7.421875 0.875 7.605469 L 3.75 9.367188 L 6.628906 11.128906 C 7.265625 11.519531 8.355469 11.484375 8.933594 11.128906 C 9.507812 10.777344 9.21875 10.601562 9.796875 10.25 C 10.371094 9.898438 10.660156 10.074219 11.234375 9.722656 C 11.8125 9.367188 14.113281 7.960938 14.113281 7.960938 C 14.429688 7.765625 14.589844 7.511719 14.589844 7.257812 L 14.589844 7.253906 Z M 14.582031 6.046875 "/>
<path style=" stroke:none;fill-rule:nonzero;fill:rgb(100%,67.45098%,20%);fill-opacity:1;" d="M 14.113281 5.300781 L 8.359375 1.777344 C 7.722656 1.390625 6.691406 1.390625 6.054688 1.777344 L 3.175781 3.539062 C 2.601562 3.890625 2.886719 4.066406 2.3125 4.421875 C 1.738281 4.773438 1.449219 4.597656 0.875 4.949219 C 0.296875 5.300781 0.238281 5.96875 0.875 6.359375 L 6.628906 9.878906 C 7.265625 10.269531 8.355469 10.234375 8.933594 9.878906 C 9.507812 9.527344 9.21875 9.351562 9.796875 9 C 10.371094 8.648438 10.660156 8.824219 11.234375 8.472656 C 11.8125 8.117188 14.113281 6.710938 14.113281 6.710938 C 14.75 6.320312 14.75 5.691406 14.113281 5.300781 Z M 14.113281 5.300781 "/>
<path style=" stroke:none;fill-rule:nonzero;fill:rgb(100%,85.098039%,51.372549%);fill-opacity:1;" d="M 13.6875 5.652344 L 7.792969 2.128906 C 7.792969 2.128906 7.167969 1.800781 6.617188 2.128906 L 3.714844 3.863281 C 3.214844 4.164062 3.285156 4.472656 2.785156 4.773438 C 2.289062 5.070312 1.8125 5.003906 1.3125 5.300781 C 0.722656 5.652344 1.3125 6.003906 1.3125 6.003906 L 7.203125 9.527344 C 7.203125 9.527344 7.792969 9.878906 8.382812 9.527344 C 8.882812 9.230469 8.769531 8.945312 9.265625 8.648438 C 9.765625 8.347656 10.285156 8.390625 10.785156 8.09375 C 11.285156 7.792969 13.6875 6.359375 13.6875 6.359375 C 13.6875 6.359375 14.238281 5.980469 13.6875 5.652344 Z M 13.6875 5.652344 "/>
</g>
</svg>
