<?xml version="1.0" encoding="UTF-8"?>
<svg xmlns="http://www.w3.org/2000/svg" xmlns:xlink="http://www.w3.org/1999/xlink" width="15pt" height="15pt" viewBox="0 0 15 15" version="1.1">
<g id="surface1">
<path style=" stroke:none;fill-rule:nonzero;fill:rgb(60%,66.666667%,70.980392%);fill-opacity:1;" d="M 12.5 13.542969 C 12.5 14.347656 10.261719 15 7.5 15 C 4.738281 15 2.5 14.347656 2.5 13.542969 C 2.5 12.738281 4.738281 12.082031 7.5 12.082031 C 10.261719 12.082031 12.5 12.734375 12.5 13.542969 Z M 12.5 13.542969 "/>
<path style=" stroke:none;fill-rule:nonzero;fill:rgb(60%,66.666667%,70.980392%);fill-opacity:1;" d="M 2.5 13.125 L 12.5 13.125 L 12.5 13.542969 L 2.5 13.542969 Z M 2.5 13.125 "/>
<path style=" stroke:none;fill-rule:nonzero;fill:rgb(90.196078%,90.588235%,90.980392%);fill-opacity:1;" d="M 12.5 13.125 C 12.5 13.929688 10.261719 14.582031 7.5 14.582031 C 4.738281 14.582031 2.5 13.929688 2.5 13.125 C 2.5 12.320312 4.738281 11.667969 7.5 11.667969 C 10.261719 11.667969 12.5 12.320312 12.5 13.125 Z M 12.5 13.125 "/>
<path style=" stroke:none;fill-rule:nonzero;fill:rgb(36.078431%,56.862745%,23.137255%);fill-opacity:1;" d="M 12.082031 12.917969 C 12.082031 13.605469 10.03125 14.167969 7.5 14.167969 C 4.96875 14.167969 2.917969 13.605469 2.917969 12.917969 C 2.917969 12.226562 4.96875 11.667969 7.5 11.667969 C 10.03125 11.667969 12.082031 12.226562 12.082031 12.917969 Z M 12.082031 12.917969 "/>
<path style=" stroke:none;fill-rule:nonzero;fill:rgb(36.078431%,56.862745%,23.137255%);fill-opacity:1;" d="M 2.917969 3.332031 L 12.082031 3.332031 L 12.082031 12.917969 L 2.917969 12.917969 Z M 2.917969 3.332031 "/>
<path style=" stroke:none;fill-rule:nonzero;fill:rgb(65.098039%,82.745098%,53.333333%);fill-opacity:1;" d="M 12.082031 9.582031 C 12.082031 10.386719 10.03125 11.042969 7.5 11.042969 C 4.96875 11.042969 2.917969 10.390625 2.917969 9.582031 C 2.917969 8.777344 4.96875 8.125 7.5 8.125 C 10.03125 8.125 12.082031 8.777344 12.082031 9.582031 Z M 12.082031 9.582031 "/>
<path style=" stroke:none;fill-rule:nonzero;fill:rgb(65.098039%,82.745098%,53.333333%);fill-opacity:1;" d="M 2.917969 4.167969 L 12.082031 4.167969 L 12.082031 9.582031 L 2.917969 9.582031 Z M 2.917969 4.167969 "/>
<path style=" stroke:none;fill-rule:nonzero;fill:rgb(36.078431%,56.862745%,23.137255%);fill-opacity:1;" d="M 12.082031 5.832031 C 12.082031 6.636719 10.03125 7.292969 7.5 7.292969 C 4.96875 7.292969 2.917969 6.640625 2.917969 5.832031 C 2.917969 5.027344 4.96875 4.375 7.5 4.375 C 10.03125 4.375 12.082031 5.027344 12.082031 5.832031 Z M 12.082031 5.832031 "/>
<path style=" stroke:none;fill-rule:nonzero;fill:rgb(36.078431%,56.862745%,23.137255%);fill-opacity:1;" d="M 2.917969 1.667969 L 12.082031 1.667969 L 12.082031 5.832031 L 2.917969 5.832031 Z M 2.917969 1.667969 "/>
<path style=" stroke:none;fill-rule:nonzero;fill:rgb(60%,66.666667%,70.980392%);fill-opacity:1;" d="M 12.5 1.875 C 12.5 2.679688 10.261719 3.332031 7.5 3.332031 C 4.738281 3.332031 2.5 2.679688 2.5 1.875 C 2.5 1.070312 4.738281 0.417969 7.5 0.417969 C 10.261719 0.417969 12.5 1.070312 12.5 1.875 Z M 12.5 1.875 "/>
<path style=" stroke:none;fill-rule:nonzero;fill:rgb(60%,66.666667%,70.980392%);fill-opacity:1;" d="M 2.5 1.457031 L 12.5 1.457031 L 12.5 1.875 L 2.5 1.875 Z M 2.5 1.457031 "/>
<path style=" stroke:none;fill-rule:nonzero;fill:rgb(90.196078%,90.588235%,90.980392%);fill-opacity:1;" d="M 12.5 1.457031 C 12.5 2.265625 10.261719 2.917969 7.5 2.917969 C 4.738281 2.917969 2.5 2.265625 2.5 1.457031 C 2.5 0.652344 4.738281 0 7.5 0 C 10.261719 0 12.5 0.652344 12.5 1.457031 Z M 12.5 1.457031 "/>
<path style=" stroke:none;fill-rule:nonzero;fill:rgb(80%,83.921569%,86.666667%);fill-opacity:1;" d="M 11.769531 1.457031 C 11.769531 2.035156 9.859375 2.5 7.5 2.5 C 5.140625 2.5 3.230469 2.035156 3.230469 1.457031 C 3.230469 0.882812 5.140625 0.417969 7.5 0.417969 C 9.859375 0.417969 11.769531 0.882812 11.769531 1.457031 Z M 11.769531 1.457031 "/>
<path style=" stroke:none;fill-rule:nonzero;fill:rgb(90.196078%,90.588235%,90.980392%);fill-opacity:1;" d="M 11.355469 1.457031 C 11.355469 1.917969 9.628906 2.292969 7.5 2.292969 C 5.371094 2.292969 3.644531 1.917969 3.644531 1.457031 C 3.644531 0.996094 5.371094 0.625 7.5 0.625 C 9.628906 0.625 11.355469 0.996094 11.355469 1.457031 Z M 11.355469 1.457031 "/>
<path style=" stroke:none;fill-rule:nonzero;fill:rgb(80%,83.921569%,86.666667%);fill-opacity:1;" d="M 10 1.457031 C 10 1.746094 8.878906 1.980469 7.5 1.980469 C 6.121094 1.980469 5 1.746094 5 1.457031 C 5 1.171875 6.121094 0.9375 7.5 0.9375 C 8.878906 0.9375 10 1.171875 10 1.457031 Z M 10 1.457031 "/>
<path style=" stroke:none;fill-rule:nonzero;fill:rgb(90.196078%,90.588235%,90.980392%);fill-opacity:1;" d="M 9.480469 1.457031 C 9.480469 1.285156 8.59375 1.144531 7.5 1.144531 C 6.40625 1.144531 5.519531 1.285156 5.519531 1.457031 C 5.519531 1.632812 6.40625 1.769531 7.5 1.769531 C 8.59375 1.769531 9.480469 1.632812 9.480469 1.457031 Z M 9.480469 1.457031 "/>
<path style=" stroke:none;fill-rule:nonzero;fill:rgb(100%,80%,30.196078%);fill-opacity:1;" d="M 10.417969 8.75 C 10.417969 10.476562 9.109375 11.875 7.5 11.875 C 5.890625 11.875 4.582031 10.476562 4.582031 8.75 C 4.582031 7.023438 5.890625 5.625 7.5 5.625 C 9.109375 5.625 10.417969 7.023438 10.417969 8.75 Z M 10.417969 8.75 "/>
<path style=" stroke:none;fill-rule:nonzero;fill:rgb(100%,67.45098%,20%);fill-opacity:1;" d="M 9.582031 8.75 C 9.582031 10.066406 8.652344 11.132812 7.5 11.132812 C 6.347656 11.132812 5.417969 10.066406 5.417969 8.75 C 5.417969 7.433594 6.347656 6.371094 7.5 6.371094 C 8.652344 6.371094 9.582031 7.433594 9.582031 8.75 Z M 9.582031 8.75 "/>
</g>
</svg>
