<?xml version="1.0" encoding="UTF-8"?>
<svg xmlns="http://www.w3.org/2000/svg" xmlns:xlink="http://www.w3.org/1999/xlink" width="15pt" height="15pt" viewBox="0 0 15 15" version="1.1">
<g id="surface1">
<path style=" stroke:none;fill-rule:nonzero;fill:rgb(54.509804%,36.862745%,23.529412%);fill-opacity:1;" d="M 2.292969 12.570312 C -0.636719 9.640625 -0.371094 4.628906 2.882812 1.375 L 13.488281 11.980469 C 10.234375 15.234375 5.222656 15.5 2.292969 12.570312 Z M 2.292969 12.570312 "/>
<path style=" stroke:none;fill-rule:nonzero;fill:rgb(37.647059%,22.352941%,7.45098%);fill-opacity:1;" d="M 2.882812 1.375 C 1.257812 3 2.3125 6.695312 5.238281 9.625 C 8.167969 12.550781 11.863281 13.609375 13.488281 11.980469 C 15.117188 10.355469 14.0625 6.660156 11.132812 3.730469 C 8.203125 0.800781 4.511719 -0.253906 2.882812 1.375 Z M 2.882812 1.375 "/>
<path style=" stroke:none;fill-rule:nonzero;fill:rgb(96.078431%,97.254902%,98.039216%);fill-opacity:1;" d="M 13.164062 10.089844 C 13.257812 10.1875 13.394531 10.230469 13.53125 10.207031 C 13.695312 10.175781 13.824219 10.054688 13.863281 9.894531 C 13.890625 9.78125 14.519531 7.117188 12.605469 5.203125 C 12.140625 4.738281 11.445312 3.632812 11.25 3.3125 C 11.082031 3.136719 10.945312 3.199219 10.625 2.878906 C 10.480469 2.734375 10.039062 1.941406 8.777344 3.140625 C 8.628906 3.28125 8.613281 3.507812 8.726562 3.671875 L 13.113281 10.03125 C 13.128906 10.054688 13.144531 10.074219 13.164062 10.089844 Z M 13.164062 10.089844 "/>
<path style=" stroke:none;fill-rule:nonzero;fill:rgb(37.647059%,22.352941%,7.45098%);fill-opacity:1;" d="M 10.113281 3.152344 C 10.40625 3.445312 10.71875 3.742188 10.71875 3.742188 C 10.71875 3.742188 11.722656 4.910156 12.3125 5.5 C 14.078125 7.265625 13.457031 9.796875 13.457031 9.796875 L 8.601562 3.265625 C 8.601562 3.265625 9.765625 2.828125 10.113281 3.152344 Z M 10.640625 2.585938 C 9.878906 1.988281 8.652344 2.457031 8.351562 2.75 C 8.066406 3.035156 8.15625 3.578125 8.382812 3.910156 L 12.769531 10.269531 C 12.800781 10.3125 12.832031 10.347656 12.867188 10.382812 C 13.058594 10.578125 13.335938 10.664062 13.609375 10.613281 C 13.929688 10.554688 14.1875 10.3125 14.265625 9.996094 C 14.296875 9.871094 14.976562 6.984375 12.902344 4.910156 C 12.527344 4.539062 12.09375 4.183594 11.6875 3.695312 C 11.550781 3.519531 11.195312 3.09375 10.824219 2.726562 Z M 10.640625 2.585938 "/>
<path style=" stroke:none;fill-rule:nonzero;fill:rgb(96.078431%,97.254902%,98.039216%);fill-opacity:1;" d="M 3.472656 1.964844 C 2.171875 3.265625 3.226562 6.429688 5.828125 9.035156 C 8.433594 11.636719 11.597656 12.691406 12.902344 11.390625 C 14.203125 10.089844 13.148438 6.921875 10.542969 4.320312 C 7.941406 1.714844 4.773438 0.660156 3.472656 1.964844 Z M 3.472656 1.964844 "/>
<path style=" stroke:none;fill-rule:nonzero;fill:rgb(60%,66.666667%,70.980392%);fill-opacity:1;" d="M 4.339844 2.867188 C 3.371094 3.832031 4.304688 6.328125 6.417969 8.445312 C 8.535156 10.5625 11.03125 11.492188 12 10.527344 C 12.964844 9.558594 12.03125 7.0625 9.917969 4.945312 C 7.800781 2.832031 5.304688 1.898438 4.339844 2.867188 Z M 4.339844 2.867188 "/>
<path style=" stroke:none;fill-rule:nonzero;fill:rgb(60%,66.666667%,70.980392%);fill-opacity:1;" d="M 8.417969 4.140625 L 8.90625 4 C 9.140625 3.871094 9.46875 3.863281 9.695312 4.070312 L 10.199219 4.601562 C 10.441406 4.890625 11 5.492188 11.449219 5.941406 C 13.035156 7.527344 12.414062 9.574219 12.386719 9.660156 C 12.363281 9.738281 12.296875 9.792969 12.21875 9.804688 C 12.152344 9.816406 12.089844 9.792969 12.042969 9.746094 C 12.03125 9.738281 12.023438 9.726562 12.015625 9.71875 L 8.351562 4.4375 C 8.320312 4.390625 8.308594 4.332031 8.320312 4.277344 C 8.332031 4.21875 8.367188 4.171875 8.417969 4.140625 Z M 8.417969 4.140625 "/>
<path style=" stroke:none;fill-rule:nonzero;fill:rgb(96.078431%,97.254902%,98.039216%);fill-opacity:1;" d="M 9.898438 10.855469 C 9.898438 10.855469 8.5625 9.988281 8.328125 9.285156 C 8.066406 8.5 6.386719 8.347656 6.125 7.5625 C 5.863281 6.777344 5.425781 5.574219 5.1875 5.09375 C 4.945312 4.613281 4.660156 5.09375 4.398438 4.308594 C 4.136719 3.523438 3.613281 3 3.613281 3 C 3.613281 3 3.613281 6.667969 4.398438 7.453125 C 5.1875 8.238281 8.328125 11.378906 8.589844 11.117188 C 8.851562 10.855469 9.898438 10.855469 9.898438 10.855469 Z M 9.898438 10.855469 "/>
<path style=" stroke:none;fill-rule:nonzero;fill:rgb(37.647059%,22.352941%,7.45098%);fill-opacity:1;" d="M 9.515625 11.554688 C 9.515625 11.554688 7.960938 10.496094 7.71875 9.765625 C 7.445312 8.945312 5.511719 8.671875 5.242188 7.855469 C 4.96875 7.035156 4.574219 5.570312 4.445312 5.402344 C 4.0625 4.910156 3.898438 5.398438 3.625 4.582031 C 3.351562 3.761719 2.808594 3.21875 2.808594 3.21875 C 2.808594 3.21875 2.808594 7.035156 3.625 7.855469 C 4.445312 8.675781 7.71875 11.949219 7.992188 11.675781 C 8.261719 11.402344 9.515625 11.554688 9.515625 11.554688 Z M 9.515625 11.554688 "/>
<path style=" stroke:none;fill-rule:nonzero;fill:rgb(54.509804%,36.862745%,23.529412%);fill-opacity:1;" d="M 9.070312 12.273438 C 9.070312 12.273438 7.566406 11.296875 7.304688 10.507812 C 7.007812 9.625 4.652344 9.035156 4.355469 8.152344 C 4.0625 7.265625 4.0625 6.089844 3.765625 5.792969 C 3.472656 5.5 3.179688 5.792969 2.882812 4.910156 C 2.589844 4.027344 2 3.4375 2 3.4375 C 2 3.4375 2 7.5625 2.882812 8.445312 C 3.765625 9.328125 7.300781 12.863281 7.597656 12.570312 C 7.890625 12.273438 9.070312 12.273438 9.070312 12.273438 Z M 9.070312 12.273438 "/>
<path style=" stroke:none;fill-rule:nonzero;fill:rgb(66.27451%,48.627451%,31.372549%);fill-opacity:1;" d="M 4.503906 13.6875 C 4.542969 13.570312 4.851562 13.664062 4.96875 13.6875 C 7.859375 14.324219 9.828125 13.113281 9.847656 13.101562 C 9.960938 13.046875 10.089844 13.089844 10.132812 13.195312 C 10.179688 13.304688 10.121094 13.4375 10.011719 13.492188 C 9.917969 13.539062 8.007812 14.554688 4.957031 13.882812 C 4.921875 13.875 4.65625 13.828125 4.632812 13.804688 C 4.582031 13.753906 4.480469 13.769531 4.503906 13.6875 Z M 1.019531 9.535156 C 1.066406 9.582031 1.066406 9.625 1.140625 9.605469 C 1.261719 9.574219 1.265625 9.390625 1.246094 9.273438 C 1.042969 7.941406 1.398438 6.5625 2.015625 4.957031 C 2.058594 4.839844 2.003906 4.71875 1.890625 4.6875 C 1.777344 4.652344 1.648438 4.722656 1.605469 4.839844 C 0.957031 6.519531 0.746094 8.019531 0.964844 9.425781 C 0.972656 9.46875 0.992188 9.507812 1.019531 9.535156 Z M 5.335938 13.359375 C 5.363281 13.390625 5.40625 13.410156 5.453125 13.414062 C 7.023438 13.59375 8.324219 12.941406 8.378906 12.914062 C 8.488281 12.855469 8.542969 12.722656 8.5 12.617188 C 8.453125 12.507812 8.324219 12.46875 8.210938 12.523438 C 8.199219 12.53125 7.070312 13.292969 5.636719 13.128906 C 5.519531 13.117188 5.292969 13.125 5.265625 13.246094 C 5.25 13.316406 5.289062 13.3125 5.335938 13.359375 Z M 5.335938 13.359375 "/>
</g>
</svg>
