<?xml version="1.0" encoding="UTF-8"?>
<svg xmlns="http://www.w3.org/2000/svg" xmlns:xlink="http://www.w3.org/1999/xlink" width="15pt" height="15pt" viewBox="0 0 15 15" version="1.1">
<g id="surface1">
<path style=" stroke:none;fill-rule:nonzero;fill:rgb(95.686275%,56.470588%,4.705882%);fill-opacity:1;" d="M 3.21875 1.304688 C 3.21875 1.304688 3.394531 0.886719 3.910156 0.957031 C 4.429688 1.023438 7.941406 1.621094 9.609375 2.394531 C 11.28125 3.171875 13.164062 4.085938 14.34375 5.472656 C 14.65625 5.839844 14.527344 6.109375 14.527344 6.109375 L 14.097656 9.207031 C 14.097656 9.207031 13.972656 9.828125 13.371094 9.992188 L 1.042969 13.390625 C 1.042969 13.390625 0.417969 13.535156 0.417969 12.886719 L 0.417969 9.652344 C 0.417969 9.652344 0.480469 9.265625 0.632812 8.808594 C 0.785156 8.351562 3.21875 1.304688 3.21875 1.304688 Z M 3.21875 1.304688 "/>
<path style=" stroke:none;fill-rule:nonzero;fill:rgb(62.745098%,1.568627%,11.764706%);fill-opacity:1;" d="M 12.753906 8.5625 C 10.902344 6.785156 6.5 4.71875 3.238281 4.410156 C 3.148438 4.402344 3.058594 4.457031 3.027344 4.546875 C 3.027344 4.546875 0.414062 12.300781 0.414062 12.429688 C 0.414062 12.492188 0.441406 12.550781 0.492188 12.589844 C 0.527344 12.617188 0.570312 12.632812 0.617188 12.632812 C 0.632812 12.632812 0.648438 12.628906 0.664062 12.625 L 12.921875 9.246094 C 13 9.226562 13.039062 9.179688 13.054688 9.101562 C 13.078125 8.964844 13.019531 8.816406 12.753906 8.5625 Z M 12.753906 8.5625 "/>
<path style=" stroke:none;fill-rule:nonzero;fill:rgb(62.745098%,1.568627%,11.764706%);fill-opacity:1;" d="M 13.050781 9.117188 L 0.417969 12.511719 L 0.417969 9.546875 C 0.417969 9.546875 2.636719 4.558594 3.082031 1.527344 C 10.058594 2.535156 13.394531 6.15625 13.394531 6.15625 Z M 13.050781 9.117188 "/>
<path style=" stroke:none;fill-rule:nonzero;fill:rgb(74.509804%,9.803922%,19.215686%);fill-opacity:1;" d="M 3.410156 10.636719 C 3.410156 11.230469 2.933594 11.710938 2.339844 11.710938 C 1.746094 11.710938 1.265625 11.230469 1.265625 10.636719 C 1.265625 10.046875 1.746094 9.566406 2.339844 9.566406 C 2.933594 9.566406 3.410156 10.046875 3.410156 10.636719 Z M 5.496094 8.972656 C 5.496094 9.5625 5.015625 10.042969 4.421875 10.042969 C 3.832031 10.042969 3.351562 9.5625 3.351562 8.972656 C 3.351562 8.378906 3.832031 7.898438 4.421875 7.898438 C 5.015625 7.898438 5.496094 8.378906 5.496094 8.972656 Z M 7.996094 9.386719 C 7.996094 9.980469 7.515625 10.460938 6.921875 10.460938 C 6.332031 10.460938 5.851562 9.980469 5.851562 9.386719 C 5.851562 8.796875 6.332031 8.316406 6.921875 8.316406 C 7.515625 8.316406 7.996094 8.796875 7.996094 9.386719 Z M 10.078125 7.722656 C 10.078125 8.3125 9.597656 8.792969 9.007812 8.792969 C 8.414062 8.792969 7.933594 8.3125 7.933594 7.722656 C 7.933594 7.128906 8.414062 6.648438 9.007812 6.648438 C 9.597656 6.648438 10.078125 7.128906 10.078125 7.722656 Z M 12.578125 8.136719 C 12.578125 8.730469 12.097656 9.210938 11.507812 9.210938 C 10.914062 9.210938 10.433594 8.730469 10.433594 8.136719 C 10.433594 7.546875 10.914062 7.066406 11.507812 7.066406 C 12.097656 7.066406 12.578125 7.546875 12.578125 8.136719 Z M 12.578125 8.136719 "/>
<path style=" stroke:none;fill-rule:nonzero;fill:rgb(95.686275%,56.470588%,4.705882%);fill-opacity:1;" d="M 13.375 5.625 C 11.519531 3.851562 6.5 1.804688 3.238281 1.492188 C 3.148438 1.484375 3.058594 1.539062 3.027344 1.628906 C 3.027344 1.628906 0.953125 7.390625 0.449219 8.972656 C 0.375 9.199219 0.414062 9.496094 0.414062 9.511719 C 0.414062 9.574219 0.441406 9.632812 0.492188 9.671875 C 0.527344 9.699219 0.570312 9.714844 0.617188 9.714844 C 0.632812 9.714844 0.648438 9.714844 0.664062 9.710938 L 13.496094 6.480469 C 13.574219 6.460938 13.632812 6.398438 13.648438 6.320312 C 13.671875 6.183594 13.640625 5.878906 13.375 5.625 Z M 13.375 5.625 "/>
<path style=" stroke:none;fill-rule:nonzero;fill:rgb(95.686275%,56.470588%,4.705882%);fill-opacity:1;" d="M 13.375 5.625 C 11.519531 3.851562 6.5 1.804688 3.238281 1.492188 C 3.148438 1.484375 3.058594 1.539062 3.027344 1.628906 C 3.027344 1.628906 0.414062 8.96875 0.414062 9.09375 C 0.414062 9.15625 0.441406 9.21875 0.492188 9.257812 C 0.527344 9.285156 0.570312 9.296875 0.617188 9.296875 C 0.632812 9.296875 0.648438 9.296875 0.664062 9.292969 L 13.246094 6.066406 C 13.324219 6.046875 13.382812 5.984375 13.394531 5.90625 C 13.421875 5.769531 13.640625 5.878906 13.375 5.625 Z M 13.375 5.625 "/>
<path style=" stroke:none;fill-rule:nonzero;fill:rgb(100%,80%,30.196078%);fill-opacity:1;" d="M 4.019531 8.433594 L 3.257812 7.410156 L 5.113281 7.191406 L 5.714844 8 L 8.039062 7.402344 L 7.65625 6.890625 L 9.414062 6.683594 L 9.652344 7.003906 L 11.972656 6.398438 L 11.960938 6.378906 L 12.09375 6.363281 L 13.601562 5.972656 C 13.558594 5.859375 13.492188 5.738281 13.375 5.625 C 13.117188 5.378906 12.796875 5.132812 12.4375 4.882812 L 10.949219 5.03125 L 10.140625 3.949219 L 10.730469 3.878906 C 9.300781 3.144531 7.59375 2.476562 5.972656 2.03125 L 6.574219 2.839844 L 4.761719 3.019531 L 4.066406 2.089844 L 5.535156 1.917969 C 4.722656 1.710938 3.9375 1.558594 3.238281 1.492188 C 3.148438 1.484375 3.058594 1.539062 3.027344 1.628906 C 3.027344 1.628906 2.453125 3.125 1.875 4.855469 L 3.3125 4.753906 L 4.027344 5.71875 L 2.132812 5.90625 L 1.707031 5.347656 C 1.410156 6.246094 1.054688 7.164062 0.8125 7.898438 L 1.699219 9.027344 Z M 7.613281 4.246094 L 8.378906 5.285156 L 6.589844 5.464844 L 5.835938 4.457031 Z M 7.613281 4.246094 "/>
<path style=" stroke:none;fill-rule:nonzero;fill:rgb(95.686275%,56.470588%,4.705882%);fill-opacity:1;" d="M 4.527344 7.285156 C 4.863281 7.195312 5.535156 6.769531 6.199219 6.679688 C 6.863281 6.589844 7.667969 6.9375 7.910156 6.910156 L 8.875 6.792969 C 9.089844 6.769531 10.050781 6.238281 10.613281 6.160156 C 11.171875 6.082031 11.921875 6.476562 12.191406 6.402344 C 12.191406 6.402344 12.492188 6.488281 12.191406 6.523438 C 11.890625 6.5625 11.109375 6.253906 10.671875 6.328125 C 10.046875 6.433594 9.601562 6.792969 8.875 6.910156 C 8.433594 6.980469 8.125 7.035156 7.863281 7.058594 C 7.378906 7.097656 6.78125 6.734375 6.167969 6.835938 C 5.558594 6.941406 5.222656 7.355469 4.527344 7.421875 C 4.113281 7.460938 4.269531 7.355469 4.527344 7.285156 Z M 2.726562 8.519531 C 3.222656 8.402344 3.796875 8.210938 4.019531 8.433594 L 2.898438 8.863281 L 1.699219 9.027344 C 1.699219 9.027344 1.734375 8.75 2.726562 8.519531 Z M 6.832031 7.457031 C 7.453125 7.308594 7.859375 7.28125 8.039062 7.402344 L 6.90625 7.828125 L 5.710938 8 C 5.714844 8 5.816406 7.699219 6.832031 7.457031 Z M 6.832031 7.457031 "/>
<path style=" stroke:none;fill-rule:nonzero;fill:rgb(95.686275%,56.470588%,4.705882%);fill-opacity:1;" d="M 10.710938 6.492188 C 11.164062 6.371094 11.746094 6.308594 11.890625 6.34375 C 11.890625 6.34375 13.082031 6.035156 13.554688 5.984375 C 13.554688 5.984375 12.46875 6.355469 12.132812 6.441406 C 11.796875 6.527344 9.675781 7.113281 9.652344 7.003906 C 9.625 6.890625 10.015625 6.683594 10.710938 6.492188 Z M 10.710938 6.492188 "/>
<path style=" stroke:none;fill-rule:nonzero;fill:rgb(100%,80%,30.196078%);fill-opacity:1;" d="M 0.8125 7.898438 C 0.8125 7.898438 0.78125 7.402344 1.128906 6.5 C 1.476562 5.597656 1.628906 5.242188 1.707031 5.347656 C 1.789062 5.453125 1.476562 6.597656 1.355469 6.875 C 1.230469 7.152344 1.039062 7.726562 0.945312 7.839844 C 0.855469 7.953125 0.8125 7.898438 0.8125 7.898438 Z M 1.875 4.855469 C 1.875 4.855469 1.902344 4.21875 2.058594 3.777344 C 2.214844 3.332031 2.492188 3.074219 2.53125 2.972656 C 2.570312 2.867188 2.558594 2.34375 2.664062 2.101562 C 2.769531 1.859375 2.980469 1.386719 3.238281 1.492188 C 3.496094 1.597656 2.65625 3.289062 2.558594 3.628906 C 2.457031 3.96875 1.875 4.855469 1.875 4.855469 Z M 1.875 4.855469 "/>
<path style=" stroke:none;fill-rule:nonzero;fill:rgb(95.686275%,56.470588%,4.705882%);fill-opacity:1;" d="M 2.859375 4.785156 C 3.195312 4.695312 3.867188 4.269531 4.53125 4.179688 C 5.195312 4.089844 6.003906 4.4375 6.242188 4.410156 L 7.207031 4.292969 C 7.421875 4.269531 8.386719 3.738281 8.945312 3.660156 C 9.503906 3.582031 10.253906 3.976562 10.523438 3.902344 C 10.523438 3.902344 10.824219 3.988281 10.523438 4.023438 C 10.226562 4.0625 9.441406 3.753906 9.003906 3.828125 C 8.378906 3.933594 7.933594 4.292969 7.207031 4.410156 C 6.769531 4.480469 6.460938 4.535156 6.199219 4.558594 C 5.714844 4.597656 5.113281 4.234375 4.503906 4.335938 C 3.890625 4.441406 3.554688 4.855469 2.859375 4.921875 C 2.445312 4.960938 2.601562 4.855469 2.859375 4.785156 Z M 3.6875 7.359375 C 3.371094 7.394531 2.933594 7.035156 2.144531 7.175781 C 1.355469 7.316406 0.8125 7.898438 0.8125 7.898438 L 0.863281 8.136719 C 0.863281 8.136719 0.664062 7.996094 0.941406 7.910156 C 1.21875 7.824219 1.511719 7.398438 2.1875 7.324219 C 2.863281 7.253906 3.085938 7.488281 3.542969 7.5 C 3.996094 7.511719 3.6875 7.359375 3.6875 7.359375 Z M 11.667969 6.347656 L 12.324219 6.386719 L 12.5 6.25 L 12.382812 6.621094 L 11.835938 6.789062 Z M 2.96875 1.964844 C 3.582031 1.796875 3.980469 2.101562 4.421875 2.046875 C 4.867188 1.996094 4.871094 2.117188 4.53125 2.1875 C 4.191406 2.257812 3.339844 1.960938 2.988281 2.074219 C 2.632812 2.191406 2.578125 2.554688 2.578125 2.554688 L 2.636719 2.191406 C 2.632812 2.191406 2.566406 2.078125 2.96875 1.964844 Z M 3.789062 5.742188 C 4.648438 5.601562 4.707031 5.386719 5.351562 5.261719 C 5.9375 5.144531 6.300781 5.417969 6.632812 5.417969 C 7.167969 5.417969 7.003906 5.09375 6.824219 5.167969 C 6.445312 5.332031 5.683594 4.871094 4.933594 5.167969 C 4.554688 5.320312 4.378906 5.53125 3.789062 5.605469 C 3.203125 5.675781 3.484375 5.789062 3.789062 5.742188 Z M 8.113281 5.3125 C 8.46875 5.277344 9.023438 4.945312 9.570312 4.855469 C 10.117188 4.765625 10.605469 5.0625 10.949219 5.03125 C 11.292969 4.996094 11.359375 4.8125 11.09375 4.839844 C 10.828125 4.867188 10.144531 4.570312 9.480469 4.699219 C 8.816406 4.832031 8.554688 5.105469 8.113281 5.167969 C 7.667969 5.234375 7.84375 5.339844 8.113281 5.3125 Z M 1.359375 5.914062 C 1.65625 5.835938 1.96875 6.011719 2.292969 5.890625 C 2.617188 5.769531 2.640625 5.625 2.339844 5.703125 C 2.039062 5.78125 1.691406 5.648438 1.425781 5.753906 Z M 3.554688 2.902344 C 4.121094 2.878906 4.429688 3.054688 4.832031 3.011719 C 5.234375 2.972656 5.066406 2.871094 4.773438 2.886719 C 4.480469 2.902344 4.054688 2.707031 3.445312 2.824219 C 2.839844 2.941406 2.867188 3.0625 2.398438 3.164062 L 2.292969 3.316406 C 2.292969 3.316406 2.503906 3.273438 2.742188 3.164062 C 2.980469 3.058594 3.242188 2.917969 3.554688 2.902344 Z M 6.484375 2.847656 C 6.855469 2.828125 7.164062 2.554688 7.558594 2.527344 L 7.332031 2.449219 C 7.332031 2.449219 6.859375 2.691406 6.484375 2.71875 C 6.105469 2.746094 6.09375 2.871094 6.484375 2.847656 Z M 6.484375 2.847656 "/>
</g>
</svg>
