<?xml version="1.0" encoding="UTF-8"?>
<svg xmlns="http://www.w3.org/2000/svg" xmlns:xlink="http://www.w3.org/1999/xlink" width="15pt" height="15pt" viewBox="0 0 15 15" version="1.1">
<g id="surface1">
<path style=" stroke:none;fill-rule:nonzero;fill:rgb(46.666667%,69.803922%,33.333333%);fill-opacity:1;" d="M 10.992188 1.472656 C 11.191406 1.457031 11.515625 1.203125 11.683594 1.226562 C 11.855469 1.25 12.339844 1.675781 12.378906 1.761719 C 12.421875 1.847656 12.117188 2.253906 12.070312 2.378906 C 12.023438 2.503906 11.804688 2.476562 11.441406 2.152344 C 11.078125 1.824219 10.992188 1.472656 10.992188 1.472656 Z M 10.992188 1.472656 "/>
<path style=" stroke:none;fill-rule:nonzero;fill:rgb(91.764706%,33.72549%,29.411765%);fill-opacity:1;" d="M 5.125 1.308594 C 7.019531 0.199219 9.820312 0.21875 10.828125 1.066406 C 11.5 1.632812 12.054688 2.066406 12.691406 2.320312 C 13.535156 2.65625 14.230469 3.636719 14.53125 4.5625 C 14.941406 5.824219 15.230469 9.804688 11.183594 12.277344 C 8.589844 13.867188 3.828125 14.515625 3.285156 14.246094 C 2.875 14.046875 1.359375 13.375 0.503906 11.558594 C -0.351562 9.742188 -0.550781 4.628906 5.125 1.308594 Z M 5.125 1.308594 "/>
<path style=" stroke:none;fill-rule:nonzero;fill:rgb(97.647059%,44.705882%,32.54902%);fill-opacity:1;" d="M 7.21875 1.085938 C 9.40625 0.46875 11.042969 1.976562 10.03125 2.082031 C 8.214844 2.277344 6.277344 4.152344 4.773438 5.574219 C 2.011719 8.175781 1.386719 11.300781 1.023438 10.78125 C 0.429688 9.933594 0.410156 6.96875 2.503906 4.371094 C 4.601562 1.769531 6.300781 1.347656 7.21875 1.085938 Z M 7.21875 1.085938 "/>
<path style=" stroke:none;fill-rule:nonzero;fill:rgb(46.666667%,69.803922%,33.333333%);fill-opacity:1;" d="M 11.78125 1.78125 C 12.683594 2.074219 13.859375 3.683594 13.839844 5.035156 C 13.792969 8.644531 12.117188 10.035156 12.117188 10.035156 C 12.117188 10.035156 11.054688 6.148438 11.214844 4.734375 C 11.328125 3.703125 11.898438 3.414062 12 2.832031 C 12.097656 2.285156 11.78125 1.78125 11.78125 1.78125 Z M 11.78125 1.78125 "/>
</g>
</svg>
