<?xml version="1.0" encoding="UTF-8"?>
<svg xmlns="http://www.w3.org/2000/svg" xmlns:xlink="http://www.w3.org/1999/xlink" width="15pt" height="15pt" viewBox="0 0 15 15" version="1.1">
<g id="surface1">
<path style=" stroke:none;fill-rule:nonzero;fill:rgb(98.823529%,67.058824%,25.098039%);fill-opacity:1;" d="M 6.25 9.167969 C 6.25 9.167969 5.769531 10.3125 5.355469 11.144531 C 4.9375 11.980469 4.660156 13.324219 5.488281 13.746094 C 6.753906 14.394531 9.0625 13.988281 10.417969 13.332031 C 11.550781 12.785156 12.574219 12.046875 13.332031 10.832031 C 14.0625 9.667969 14.582031 8.332031 14.582031 7.5 C 14.582031 6.667969 14.523438 6.003906 14.222656 5.121094 C 14.003906 4.464844 13.644531 3.679688 13 3.003906 C 12.242188 2.214844 11.902344 1.421875 11.507812 0.855469 C 11.167969 0.375 10.832031 0 10 0 C 9.167969 0 7.082031 1.25 5.832031 1.667969 C 4.582031 2.082031 2.917969 2.5 1.667969 4.167969 C 0.417969 5.832031 0.417969 7.5 0.417969 8.332031 C 0.417969 9.167969 0.441406 10.367188 1.25 10.832031 C 2.210938 11.386719 3.574219 10.152344 4.601562 9.851562 C 5.578125 9.566406 6.25 9.167969 6.25 9.167969 Z M 6.25 9.167969 "/>
<path style=" stroke:none;fill-rule:nonzero;fill:rgb(95.686275%,56.470588%,4.705882%);fill-opacity:1;" d="M 14.046875 8.890625 C 14.046875 8.890625 12.960938 10.371094 12.363281 10.753906 C 12.039062 10.960938 11.6875 11.175781 11.234375 11.386719 C 10.945312 11.519531 9.65625 12.03125 9.308594 12.136719 C 8.722656 12.320312 7.941406 12.484375 7.535156 12.5 C 7.128906 12.515625 6.785156 12.496094 6.191406 12.574219 C 5.828125 12.621094 5.292969 12.828125 5.277344 13.070312 C 5.265625 13.3125 5.699219 13.746094 6.574219 13.792969 C 7.445312 13.839844 9.070312 13.71875 10.0625 13.28125 C 11.445312 12.671875 12.273438 11.914062 12.679688 11.433594 C 13.085938 10.949219 13.808594 9.761719 14.046875 8.890625 Z M 14.046875 8.890625 "/>
<path style=" stroke:none;fill-rule:nonzero;fill:rgb(74.901961%,41.176471%,32.156863%);fill-opacity:1;" d="M 14.046875 8.890625 C 14.046875 8.890625 13.328125 9.792969 12.738281 10.285156 C 12.347656 10.613281 11.511719 11.195312 10.90625 11.492188 C 10.289062 11.792969 9.105469 12.179688 8.273438 12.304688 C 7.566406 12.410156 6.460938 12.523438 6.089844 12.605469 C 5.734375 12.683594 5.554688 12.796875 5.65625 12.921875 C 5.804688 13.109375 6.171875 13.0625 6.722656 12.992188 C 8.019531 12.828125 9.195312 12.582031 10.195312 12.167969 C 11.21875 11.746094 12.226562 11.222656 12.632812 10.738281 C 13.039062 10.257812 13.613281 9.714844 14.046875 8.890625 Z M 14.046875 8.890625 "/>
<path style=" stroke:none;fill-rule:nonzero;fill:rgb(95.686275%,56.470588%,4.705882%);fill-opacity:1;" d="M 9.519531 1.652344 C 9.238281 2.21875 8.390625 3.535156 7.917969 4.332031 C 7.351562 5.277344 6.617188 6.421875 6.21875 7.5 C 6.097656 7.832031 5.828125 9.070312 5.878906 9.359375 C 6.109375 9.246094 6.25 9.167969 6.25 9.167969 C 6.25 9.167969 6.738281 8.226562 7.160156 7.582031 C 7.582031 6.933594 8.996094 4.464844 9.519531 3.59375 C 10.046875 2.722656 10.253906 1.859375 10.183594 1.421875 C 10.078125 0.78125 9.730469 1.234375 9.519531 1.652344 Z M 9.519531 1.652344 "/>
<path style=" stroke:none;fill-rule:nonzero;fill:rgb(74.901961%,41.176471%,32.156863%);fill-opacity:1;" d="M 9.535156 2.390625 C 9.238281 3.011719 8.40625 4.332031 8.019531 5.066406 C 7.632812 5.804688 6.59375 7.628906 6.183594 8.679688 C 6.109375 8.867188 6.03125 9.085938 6.003906 9.296875 C 6.175781 9.210938 6.25 9.167969 6.25 9.167969 C 6.25 9.167969 6.738281 8.226562 7.160156 7.582031 C 7.582031 6.933594 8.996094 4.464844 9.519531 3.59375 C 9.925781 2.921875 10.140625 2.257812 10.1875 1.785156 C 10.066406 1.242188 9.730469 1.980469 9.535156 2.390625 Z M 9.535156 2.390625 "/>
<path style=" stroke:none;fill-rule:nonzero;fill:rgb(80%,83.921569%,86.666667%);fill-opacity:1;" d="M 12.113281 10.757812 C 11.726562 11.027344 11.273438 11.3125 10.90625 11.492188 C 10.488281 11.695312 9.816406 11.933594 9.164062 12.109375 C 9.164062 12.109375 10.203125 14.414062 11.652344 14.929688 L 14.179688 12.492188 C 14.179688 12.492188 12.574219 11.386719 12.113281 10.757812 Z M 12.113281 10.757812 "/>
<path style=" stroke:none;fill-rule:nonzero;fill:rgb(60.392157%,66.666667%,70.588235%);fill-opacity:1;" d="M 10.605469 11.625 C 10.542969 11.652344 10.480469 11.675781 10.410156 11.703125 C 10.359375 11.722656 10.308594 11.742188 10.253906 11.761719 C 10.203125 11.78125 10.152344 11.800781 10.097656 11.820312 C 10.035156 11.839844 9.976562 11.863281 9.914062 11.882812 L 9.851562 11.902344 C 9.628906 11.976562 9.394531 12.046875 9.164062 12.109375 C 9.164062 12.109375 9.226562 12.25 9.34375 12.464844 C 9.640625 12.378906 9.925781 12.28125 10.195312 12.167969 C 11.027344 11.828125 11.839844 11.417969 12.339844 11.015625 C 12.246094 10.925781 12.171875 10.835938 12.113281 10.757812 L 12.109375 10.757812 C 12.023438 10.820312 11.929688 10.878906 11.835938 10.941406 L 11.773438 10.984375 C 11.699219 11.03125 11.625 11.078125 11.550781 11.125 L 11.464844 11.179688 C 11.394531 11.222656 11.328125 11.261719 11.261719 11.300781 L 11.175781 11.351562 C 11.082031 11.402344 10.992188 11.449219 10.90625 11.492188 C 10.835938 11.523438 10.761719 11.558594 10.679688 11.59375 Z M 10.605469 11.625 "/>
</g>
</svg>
