<?xml version="1.0" encoding="UTF-8"?>
<svg xmlns="http://www.w3.org/2000/svg" xmlns:xlink="http://www.w3.org/1999/xlink" width="15pt" height="15pt" viewBox="0 0 15 15" version="1.1">
<g id="surface1">
<path style=" stroke:none;fill-rule:nonzero;fill:rgb(100%,67.45098%,20%);fill-opacity:1;" d="M 10.214844 5.222656 C 10.183594 6.585938 11.445312 8.601562 12.609375 11.449219 C 12.90625 12.253906 9.410156 12.691406 8.480469 11.570312 C 7.550781 10.453125 10.214844 5.222656 10.214844 5.222656 Z M 10.214844 5.222656 "/>
<path style=" stroke:none;fill-rule:nonzero;fill:rgb(36.078431%,56.862745%,23.137255%);fill-opacity:1;" d="M 10.40625 4.777344 C 10.546875 6.019531 11.402344 8.308594 12.4375 11.027344 C 12.523438 11.96875 9.371094 12.132812 8.441406 11.011719 C 7.808594 10.246094 8.820312 5.929688 9.566406 4.5 C 9.910156 3.84375 10.40625 4.777344 10.40625 4.777344 Z M 10.40625 4.777344 "/>
<path style=" stroke:none;fill-rule:nonzero;fill:rgb(46.666667%,69.803922%,33.333333%);fill-opacity:1;" d="M 11.5625 13.632812 C 11.535156 13.515625 11.503906 13.386719 11.472656 13.253906 L 11.472656 13.257812 L 11.472656 13.242188 C 11.019531 11.359375 10.121094 8.300781 10.019531 6.050781 L 10.519531 4.40625 L 10.503906 3.886719 L 10.449219 2.113281 L 9.828125 2.871094 C 9.703125 2.914062 9.578125 3.039062 9.457031 3.277344 C 9.140625 3.914062 6.5 5.730469 4.828125 6.988281 C 4.710938 8.921875 4.058594 12.070312 3.753906 13.472656 L 3.75 13.464844 C 3.734375 13.550781 3.714844 13.640625 3.699219 13.722656 C 3.515625 14.621094 4.875 14.988281 6.027344 14.492188 L 6.03125 14.492188 C 6.183594 14.636719 6.359375 14.746094 6.542969 14.824219 C 7.453125 15.214844 8.652344 14.886719 8.914062 14.523438 C 9.078125 14.582031 9.25 14.625 9.421875 14.65625 C 10.542969 14.851562 11.746094 14.445312 11.5625 13.632812 Z M 11.5625 13.632812 "/>
<path style=" stroke:none;fill-rule:nonzero;fill:rgb(57.254902%,40%,80%);fill-opacity:1;" d="M 5.265625 0.0117188 C 4.082031 0.0820312 3.210938 1.164062 2.617188 2.082031 C 2.425781 2.398438 2.191406 2.765625 2.109375 3.128906 C 2.351562 4.601562 13.253906 4.785156 12.6875 2.75 C 12.09375 1.675781 11.269531 0.554688 10.28125 0.15625 L 9.679688 0.015625 C 9.511719 0.00390625 9.347656 0 9.183594 0 C 8.15625 1.558594 5.894531 0.964844 5.265625 0.0117188 Z M 5.265625 0.0117188 "/>
<path style=" stroke:none;fill-rule:nonzero;fill:rgb(40%,63.137255%,25.490196%);fill-opacity:1;" d="M 6.070312 14.144531 L 6.25 14.582031 L 6.523438 14.347656 L 6.523438 14.355469 C 6.476562 13.191406 6.449219 11.910156 6.390625 11.1875 C 6.328125 11.238281 6.265625 11.285156 6.203125 11.332031 C 6.183594 12.097656 6.148438 13.320312 6.070312 14.144531 Z M 8.929688 14.175781 L 9.167969 14.582031 L 9.394531 14.242188 C 9.242188 11.882812 9.097656 9.136719 8.984375 8.097656 L 8.902344 8.238281 C 8.949219 9.484375 8.992188 12.59375 8.929688 14.175781 Z M 8.929688 14.175781 "/>
<path style=" stroke:none;fill-rule:nonzero;fill:rgb(36.078431%,56.862745%,23.137255%);fill-opacity:1;" d="M 10.519531 2.113281 L 4.589844 9.265625 C 4.589844 9.265625 4.21875 11.367188 3.984375 12.402344 C 4.816406 12.1875 5.554688 11.808594 6.203125 11.328125 C 6.265625 11.285156 6.328125 11.234375 6.390625 11.1875 C 7.464844 10.347656 8.289062 9.253906 8.902344 8.238281 C 8.929688 8.191406 8.957031 8.144531 8.984375 8.097656 C 9.453125 7.300781 9.792969 6.558594 10.019531 6.050781 L 10.519531 4.40625 Z M 10.519531 2.113281 "/>
<path style=" stroke:none;fill-rule:nonzero;fill:rgb(33.333333%,21.568627%,53.333333%);fill-opacity:1;" d="M 7.316406 0.835938 C 6.0625 0.835938 5.375 0 5.375 0 C 5.335938 0 5.265625 0.0117188 5.265625 0.0117188 C 5.273438 0.964844 6.6875 3.339844 7.628906 3.339844 C 8.578125 3.339844 9.183594 0.949219 9.183594 0 L 9.109375 0 C 9.109375 0 8.574219 0.835938 7.316406 0.835938 Z M 7.316406 0.835938 "/>
<path style=" stroke:none;fill-rule:nonzero;fill:rgb(100%,67.45098%,20%);fill-opacity:1;" d="M 10.605469 3.796875 L 10.683594 4.355469 L 12.347656 3.832031 C 12.726562 3.714844 12.921875 3.296875 12.773438 2.929688 C 12.746094 2.863281 12.6875 2.742188 12.6875 2.75 C 12.632812 3.320312 12.292969 3.398438 10.605469 3.796875 Z M 11.5625 13.632812 C 11.535156 13.515625 11.503906 13.386719 11.472656 13.253906 L 11.472656 13.257812 C 11.320312 13.9375 10.511719 14.34375 9.394531 14.242188 C 9.285156 14.234375 9.171875 14.214844 9.058594 14.195312 C 9.019531 14.1875 8.980469 14.183594 8.929688 14.175781 C 8.207031 14.550781 7.40625 14.695312 6.523438 14.355469 L 6.523438 14.347656 C 6.5 14.34375 6.472656 14.335938 6.449219 14.328125 C 6.328125 14.292969 6.203125 14.222656 6.070312 14.144531 C 5.476562 14.289062 4.160156 14.4375 3.753906 13.472656 L 3.75 13.464844 C 3.734375 13.550781 3.714844 13.640625 3.699219 13.71875 C 3.515625 14.621094 4.875 14.988281 6.027344 14.492188 L 6.03125 14.492188 C 6.183594 14.636719 6.359375 14.746094 6.542969 14.824219 C 7.453125 15.214844 8.652344 14.886719 8.914062 14.523438 C 9.078125 14.582031 9.25 14.625 9.421875 14.65625 C 10.542969 14.851562 11.746094 14.445312 11.5625 13.632812 Z M 11.5625 13.632812 "/>
<path style=" stroke:none;fill-rule:nonzero;fill:rgb(100%,58.823529%,5.098039%);fill-opacity:1;" d="M 9.394531 14.246094 C 9.230469 14.230469 9.164062 14.214844 9.058594 14.195312 C 9.019531 14.1875 8.980469 14.183594 8.929688 14.175781 C 8.925781 14.304688 8.917969 14.417969 8.914062 14.523438 C 9.078125 14.582031 9.25 14.625 9.421875 14.65625 Z M 6.523438 14.355469 L 6.523438 14.347656 C 6.5 14.34375 6.472656 14.335938 6.449219 14.328125 C 6.328125 14.292969 6.199219 14.222656 6.070312 14.144531 C 6.054688 14.273438 6.042969 14.386719 6.027344 14.492188 L 6.03125 14.492188 C 6.183594 14.636719 6.359375 14.746094 6.542969 14.824219 C 6.535156 14.664062 6.53125 14.550781 6.523438 14.355469 Z M 6.523438 14.355469 "/>
<path style=" stroke:none;fill-rule:nonzero;fill:rgb(33.333333%,21.568627%,53.333333%);fill-opacity:1;" d="M 10.519531 4.40625 L 10.371094 1.382812 L 11.308594 1.039062 C 11.308594 1.039062 11.339844 1.808594 10.839844 3.648438 C 10.90625 3.972656 10.964844 4.265625 10.964844 4.265625 Z M 10.519531 4.40625 "/>
<path style=" stroke:none;fill-rule:nonzero;fill:rgb(100%,67.45098%,20%);fill-opacity:1;" d="M 9.183594 0 C 9.054688 0.257812 8.242188 2.257812 4.425781 3.847656 C 4.425781 3.851562 4.199219 3.796875 4.195312 3.796875 C 3.042969 3.527344 2.410156 3.378906 2.109375 3.128906 C 2.039062 3.460938 2.226562 3.804688 2.5625 3.910156 L 4.074219 4.332031 L 4.417969 4.40625 C 4.457031 5.207031 4.65625 6.398438 4.828125 6.984375 C 4.691406 9.105469 4.117188 11.773438 4.117188 11.773438 C 4.117188 11.773438 9.433594 10.203125 11.339844 0.890625 C 10.664062 0.148438 9.761719 0 9.527344 0 Z M 9.183594 0 "/>
<path style=" stroke:none;fill-rule:nonzero;fill:rgb(46.666667%,69.803922%,33.333333%);fill-opacity:1;" d="M 4.257812 11.070312 C 4.285156 10.652344 4.726562 8.46875 4.828125 6.984375 C 4.257812 5.5 4.417969 4.621094 4.417969 4.40625 C 4.417969 4.40625 7.914062 3.390625 9.527344 0 C 10.449219 0.015625 10.929688 0.523438 11.0625 0.625 C 10.242188 6.671875 5.636719 10.609375 4.257812 11.070312 Z M 4.257812 11.070312 "/>
<path style=" stroke:none;fill-rule:nonzero;fill:rgb(36.078431%,56.862745%,23.137255%);fill-opacity:1;" d="M 7.566406 4.671875 C 6.769531 5.429688 5.804688 5.976562 4.667969 6.519531 C 4.714844 6.667969 4.765625 6.820312 4.828125 6.984375 C 4.804688 7.316406 4.765625 7.679688 4.71875 8.050781 L 4.71875 8.054688 C 5.277344 7.730469 7.21875 5.40625 7.566406 4.671875 Z M 7.566406 4.671875 "/>
<path style=" stroke:none;fill-rule:nonzero;fill:rgb(33.333333%,21.568627%,53.333333%);fill-opacity:1;" d="M 4.417969 4.40625 C 4.417969 4.40625 4.363281 4.050781 4.535156 2.515625 C 4.453125 2.851562 4.0625 4.328125 4.0625 4.328125 Z M 4.417969 4.40625 "/>
<path style=" stroke:none;fill-rule:nonzero;fill:rgb(100%,67.45098%,20%);fill-opacity:1;" d="M 5.378906 9.097656 L 5.53125 9.375 L 5.808594 9.53125 L 5.53125 9.683594 L 5.378906 9.960938 L 5.222656 9.683594 L 4.945312 9.53125 L 5.222656 9.375 Z M 6.925781 7.5 L 7.078125 7.78125 L 7.355469 7.933594 L 7.078125 8.085938 L 6.925781 8.367188 L 6.769531 8.085938 L 6.492188 7.933594 L 6.769531 7.78125 Z M 8.242188 5.753906 L 8.394531 6.035156 L 8.675781 6.1875 L 8.394531 6.339844 L 8.242188 6.621094 L 8.089844 6.339844 L 7.808594 6.1875 L 8.089844 6.035156 Z M 9.246094 4.238281 L 9.378906 4.480469 L 9.621094 4.613281 L 9.378906 4.746094 L 9.246094 4.988281 L 9.113281 4.746094 L 8.871094 4.613281 L 9.113281 4.480469 Z M 10.046875 2.585938 L 10.152344 2.773438 L 10.339844 2.878906 L 10.152344 2.980469 L 10.046875 3.167969 L 9.945312 2.980469 L 9.757812 2.878906 L 9.945312 2.773438 Z M 10.566406 0.96875 L 10.648438 1.113281 L 10.792969 1.195312 L 10.648438 1.273438 L 10.566406 1.421875 L 10.484375 1.273438 L 10.339844 1.195312 L 10.484375 1.113281 Z M 10.566406 0.96875 "/>
</g>
</svg>
