<?xml version="1.0" encoding="UTF-8"?>
<svg xmlns="http://www.w3.org/2000/svg" xmlns:xlink="http://www.w3.org/1999/xlink" width="15pt" height="15pt" viewBox="0 0 15 15" version="1.1">
<g id="surface1">
<path style=" stroke:none;fill-rule:nonzero;fill:rgb(100%,80%,30.196078%);fill-opacity:1;" d="M 14.582031 7.082031 C 14.582031 10.996094 11.410156 14.167969 7.5 14.167969 C 3.589844 14.167969 0.417969 10.996094 0.417969 7.082031 C 0.417969 3.171875 3.589844 0 7.5 0 C 11.410156 0 14.582031 3.171875 14.582031 7.082031 "/>
<path style=" stroke:none;fill-rule:nonzero;fill:rgb(40%,27.058824%,0%);fill-opacity:1;" d="M 10.417969 8.125 C 10.417969 6.398438 9.109375 5 7.5 5 C 5.890625 5 4.582031 6.398438 4.582031 8.125 C 4.582031 9.851562 5.890625 11.25 7.5 11.25 C 9.109375 11.25 10.417969 9.851562 10.417969 8.125 Z M 10.417969 8.125 "/>
<path style=" stroke:none;fill-rule:nonzero;fill:rgb(95.686275%,56.470588%,4.705882%);fill-opacity:1;" d="M 9.363281 11.40625 C 9.363281 11.40625 9.777344 11.105469 9.429688 10.730469 C 9.082031 10.359375 8.753906 10.753906 8.753906 10.753906 L 7.027344 12.363281 C 6.996094 12.277344 6.835938 12.054688 6.796875 11.96875 L 9.195312 9.734375 C 9.195312 9.734375 9.609375 9.433594 9.265625 9.0625 C 8.917969 8.691406 8.589844 9.082031 8.589844 9.082031 L 6.332031 11.183594 C 6.28125 11.121094 6.140625 10.960938 6.085938 10.894531 L 8.699219 8.457031 C 8.699219 8.457031 9.117188 8.15625 8.769531 7.785156 C 8.421875 7.410156 8.09375 7.804688 8.09375 7.804688 L 5.476562 10.242188 C 5.414062 10.183594 5.222656 9.988281 5.160156 9.929688 L 7.601562 7.652344 C 7.601562 7.652344 8.019531 7.351562 7.671875 6.980469 C 7.324219 6.609375 6.996094 7 6.996094 7 L 4.410156 9.410156 L 4.203125 9.605469 L 4.113281 9.691406 C 4.113281 9.691406 3.886719 10 3.660156 9.765625 L 4.425781 8.03125 C 4.425781 8.03125 4.667969 7.585938 4.222656 7.34375 C 3.773438 7.101562 3.53125 7.546875 3.53125 7.546875 L 2.835938 8.695312 C 2.5625 9.152344 2.273438 9.605469 1.9375 10.015625 C 0.984375 11.179688 1.015625 12.898438 2.070312 14.027344 C 3.21875 15.261719 5.152344 15.328125 6.382812 14.179688 L 6.570312 14.007812 Z M 9.363281 11.40625 "/>
<path style=" stroke:none;fill-rule:nonzero;fill:rgb(40%,27.058824%,0%);fill-opacity:1;" d="M 4.589844 2.535156 C 3.652344 2.785156 3.140625 3.351562 3.109375 3.386719 C 2.957031 3.558594 2.972656 3.824219 3.148438 3.976562 C 3.320312 4.128906 3.582031 4.109375 3.734375 3.9375 C 3.765625 3.902344 4.605469 3 6.15625 3.316406 C 6.382812 3.363281 6.601562 3.214844 6.648438 2.992188 C 6.691406 2.765625 6.546875 2.546875 6.324219 2.5 C 5.640625 2.359375 5.0625 2.40625 4.589844 2.535156 Z M 10.410156 2.535156 C 9.9375 2.40625 9.359375 2.359375 8.675781 2.5 C 8.453125 2.546875 8.304688 2.765625 8.351562 2.992188 C 8.398438 3.214844 8.617188 3.363281 8.84375 3.316406 C 10.394531 3 11.230469 3.902344 11.265625 3.941406 C 11.417969 4.109375 11.683594 4.125 11.855469 3.972656 C 12.023438 3.820312 12.042969 3.558594 11.890625 3.386719 C 11.859375 3.351562 11.347656 2.785156 10.410156 2.535156 Z M 10.410156 2.535156 "/>
</g>
</svg>
