<?xml version="1.0" encoding="UTF-8"?>
<svg xmlns="http://www.w3.org/2000/svg" xmlns:xlink="http://www.w3.org/1999/xlink" width="15pt" height="15pt" viewBox="0 0 15 15" version="1.1">
<g id="surface1">
<path style=" stroke:none;fill-rule:nonzero;fill:rgb(100%,80%,30.196078%);fill-opacity:1;" d="M 15 7.5 C 15 11.640625 11.640625 15 7.5 15 C 3.359375 15 0 11.640625 0 7.5 C 0 3.359375 3.359375 0 7.5 0 C 11.640625 0 15 3.359375 15 7.5 Z M 15 7.5 "/>
<path style=" stroke:none;fill-rule:nonzero;fill:rgb(39.607843%,27.843137%,10.588235%);fill-opacity:1;" d="M 2.5 4.582031 C 2.269531 4.582031 2.082031 4.398438 2.082031 4.167969 C 2.082031 3.9375 2.269531 3.75 2.5 3.75 C 2.5625 3.75 3.984375 3.714844 5.085938 2.25 C 5.222656 2.066406 5.484375 2.027344 5.667969 2.167969 C 5.851562 2.304688 5.890625 2.566406 5.75 2.75 C 4.390625 4.5625 2.578125 4.582031 2.5 4.582031 Z M 12.910156 5.582031 C 12.964844 5.804688 12.828125 6.027344 12.601562 6.082031 C 12.378906 6.136719 12.15625 6 12.101562 5.777344 C 12.085938 5.710938 11.722656 4.335938 10.042969 3.609375 C 9.832031 3.515625 9.734375 3.273438 9.824219 3.058594 C 9.917969 2.847656 10.164062 2.753906 10.375 2.84375 C 12.453125 3.746094 12.894531 5.503906 12.910156 5.582031 Z M 12.910156 5.582031 "/>
<path style=" stroke:none;fill-rule:nonzero;fill:rgb(40%,27.058824%,0%);fill-opacity:1;" d="M 9.660156 12.300781 C 9.246094 12.300781 8.847656 12.113281 8.5 11.746094 C 7.324219 10.5 7.011719 10.773438 6.492188 11.222656 C 6.167969 11.507812 5.761719 11.859375 5.15625 11.859375 C 4.175781 11.859375 3.503906 10.898438 3.476562 10.859375 C 3.34375 10.667969 3.390625 10.410156 3.582031 10.277344 C 3.769531 10.148438 4.027344 10.195312 4.160156 10.382812 C 4.285156 10.5625 4.707031 11.023438 5.15625 11.023438 C 5.449219 11.023438 5.679688 10.824219 5.945312 10.59375 C 6.703125 9.9375 7.515625 9.488281 9.105469 11.171875 C 9.449219 11.535156 9.710938 11.496094 9.902344 11.417969 C 10.59375 11.140625 11.238281 9.878906 11.234375 9.273438 C 11.230469 9.042969 11.417969 8.855469 11.648438 8.855469 C 11.878906 8.855469 12.066406 9.039062 12.066406 9.269531 C 12.070312 10.144531 11.292969 11.757812 10.210938 12.191406 C 10.027344 12.265625 9.84375 12.300781 9.660156 12.300781 Z M 9.660156 12.300781 "/>
<path style=" stroke:none;fill-rule:nonzero;fill:rgb(39.607843%,27.843137%,10.588235%);fill-opacity:1;" d="M 6.171875 6.40625 C 5.929688 7.285156 5.488281 7.691406 4.859375 7.515625 C 4.230469 7.34375 3.882812 6.722656 4.125 5.839844 C 4.371094 4.960938 5.03125 4.441406 5.660156 4.613281 C 6.289062 4.785156 6.417969 5.527344 6.171875 6.40625 Z M 10.929688 6.089844 C 11.125 6.984375 10.648438 8.109375 10.011719 8.25 C 9.375 8.390625 8.644531 7.53125 8.449219 6.640625 C 8.25 5.75 8.621094 4.984375 9.257812 4.84375 C 9.894531 4.703125 10.734375 5.199219 10.929688 6.089844 Z M 10.929688 6.089844 "/>
</g>
</svg>
