<?xml version="1.0" encoding="UTF-8"?>
<svg xmlns="http://www.w3.org/2000/svg" xmlns:xlink="http://www.w3.org/1999/xlink" width="15pt" height="15pt" viewBox="0 0 15 15" version="1.1">
<g id="surface1">
<path style=" stroke:none;fill-rule:nonzero;fill:rgb(100%,80%,30.196078%);fill-opacity:1;" d="M 14.167969 7.917969 C 14.167969 11.828125 10.996094 15 7.082031 15 C 3.171875 15 0 11.828125 0 7.917969 C 0 4.003906 3.171875 0.832031 7.082031 0.832031 C 10.996094 0.832031 14.167969 4.003906 14.167969 7.917969 Z M 14.167969 7.917969 "/>
<path style=" stroke:none;fill-rule:nonzero;fill:rgb(40%,27.058824%,0%);fill-opacity:1;" d="M 8.332031 10.832031 C 8.332031 10.257812 7.960938 9.792969 7.5 9.792969 C 7.039062 9.792969 6.667969 10.257812 6.667969 10.832031 C 6.667969 11.410156 7.039062 11.875 7.5 11.875 C 7.960938 11.875 8.332031 11.410156 8.332031 10.832031 Z M 8.332031 10.832031 "/>
<path style=" stroke:none;fill-rule:nonzero;fill:rgb(40%,27.058824%,0%);fill-opacity:1;" d="M 3.378906 8.910156 C 3.304688 8.910156 3.226562 8.890625 3.15625 8.84375 C 2.964844 8.722656 2.90625 8.464844 3.027344 8.269531 C 3.410156 7.664062 4.570312 6.628906 6.230469 7.035156 C 6.453125 7.089844 6.589844 7.316406 6.535156 7.539062 C 6.480469 7.765625 6.253906 7.898438 6.035156 7.847656 C 4.53125 7.476562 3.742188 8.703125 3.734375 8.714844 C 3.652344 8.839844 3.519531 8.910156 3.378906 8.910156 Z M 8.367188 7.351562 C 8.246094 7.351562 8.128906 7.296875 8.046875 7.199219 C 7.898438 7.019531 7.925781 6.757812 8.105469 6.609375 C 9.425781 5.527344 10.921875 5.960938 11.527344 6.34375 C 11.722656 6.464844 11.78125 6.722656 11.65625 6.917969 C 11.535156 7.109375 11.277344 7.167969 11.082031 7.046875 C 11.027344 7.011719 9.8125 6.289062 8.632812 7.253906 C 8.554688 7.320312 8.460938 7.351562 8.367188 7.351562 Z M 8.367188 7.351562 "/>
<path style=" stroke:none;fill-rule:nonzero;fill:rgb(88.627451%,65.098039%,17.647059%);fill-opacity:1;" d="M 5.5625 13.03125 C 5.53125 13.03125 5.503906 13.027344 5.476562 13.019531 C 5.308594 12.972656 5.214844 12.800781 5.261719 12.632812 C 5.441406 11.992188 5.367188 11.371094 5.054688 10.929688 C 4.847656 10.636719 4.554688 10.460938 4.246094 10.441406 C 4.074219 10.429688 3.941406 10.28125 3.953125 10.109375 C 3.964844 9.9375 4.113281 9.796875 4.285156 9.816406 C 4.78125 9.847656 5.25 10.121094 5.566406 10.570312 C 5.988281 11.164062 6.09375 11.980469 5.859375 12.804688 C 5.820312 12.941406 5.695312 13.03125 5.5625 13.03125 Z M 10.160156 11.753906 C 10.101562 11.753906 10.039062 11.738281 9.988281 11.703125 C 9.5 11.382812 9.230469 10.820312 9.242188 10.164062 C 9.253906 9.484375 9.578125 8.851562 10.066406 8.550781 C 10.214844 8.460938 10.40625 8.507812 10.496094 8.65625 C 10.585938 8.804688 10.539062 8.996094 10.390625 9.085938 C 10.085938 9.273438 9.875 9.710938 9.867188 10.175781 C 9.859375 10.613281 10.027344 10.980469 10.332031 11.183594 C 10.476562 11.277344 10.515625 11.46875 10.421875 11.613281 C 10.359375 11.707031 10.261719 11.753906 10.160156 11.753906 Z M 10.160156 11.753906 "/>
<path style=" stroke:none;fill-rule:nonzero;fill:rgb(86.666667%,18.039216%,26.666667%);fill-opacity:1;" d="M 7.15625 1.132812 C 7.140625 1.113281 7.113281 1.101562 7.078125 1.09375 C 7.078125 1.09375 0.445312 -0.164062 0.15625 0.0898438 C -0.128906 0.34375 0.308594 7.082031 0.308594 7.082031 C 0.308594 7.117188 0.316406 7.144531 0.335938 7.164062 C 0.589844 7.449219 2.320312 6.332031 4.203125 4.664062 C 6.085938 3 7.410156 1.417969 7.15625 1.132812 Z M 7.15625 1.132812 "/>
<path style=" stroke:none;fill-rule:nonzero;fill:rgb(91.764706%,34.901961%,43.137255%);fill-opacity:1;" d="M 0.144531 0.113281 C 0.140625 0.125 0.132812 0.140625 0.128906 0.164062 C 0.195312 0.734375 0.835938 5.4375 1.234375 6.90625 C 1.832031 6.570312 2.441406 6.117188 3.15625 5.550781 C 2.546875 4.4375 0.484375 0.0625 0.144531 0.113281 Z M 0.144531 0.113281 "/>
<path style=" stroke:none;fill-rule:nonzero;fill:rgb(23.137255%,53.333333%,76.470588%);fill-opacity:1;" d="M 12.460938 12.179688 L 8.054688 11.636719 C 7.582031 11.59375 6.753906 11.589844 6.796875 10.84375 C 6.835938 10.167969 7.648438 10.269531 8.246094 10.359375 L 12.679688 11.097656 Z M 12.460938 12.179688 "/>
<path style=" stroke:none;fill-rule:nonzero;fill:rgb(53.333333%,78.823529%,97.647059%);fill-opacity:1;" d="M 12.679688 11.097656 L 10.921875 10.796875 C 10.714844 10.761719 10.53125 11.066406 10.523438 11.390625 C 10.511719 11.753906 10.617188 11.933594 10.824219 11.976562 L 12.550781 12.191406 Z M 12.679688 11.097656 "/>
<path style=" stroke:none;fill-rule:nonzero;fill:rgb(23.137255%,53.333333%,76.470588%);fill-opacity:1;" d="M 14.550781 10.976562 L 13.457031 11.980469 L 11.503906 9.855469 L 12.597656 8.851562 C 13.164062 8.328125 14.054688 8.367188 14.574219 8.933594 L 14.632812 8.996094 C 15.152344 9.5625 15.117188 10.453125 14.550781 10.976562 Z M 14.550781 10.976562 "/>
<path style=" stroke:none;fill-rule:nonzero;fill:rgb(53.333333%,78.823529%,97.647059%);fill-opacity:1;" d="M 13.328125 10.136719 C 12.789062 9.550781 11.972656 9.425781 11.503906 9.855469 C 11.035156 10.289062 11.089844 11.113281 11.628906 11.699219 C 12.167969 12.285156 12.988281 12.410156 13.457031 11.980469 C 13.925781 11.550781 13.867188 10.722656 13.328125 10.136719 Z M 13.328125 10.136719 "/>
<path style=" stroke:none;fill-rule:nonzero;fill:rgb(13.333333%,40%,60%);fill-opacity:1;" d="M 12.90625 10.527344 C 12.582031 10.175781 12.128906 10.066406 11.894531 10.28125 C 11.660156 10.496094 11.730469 10.957031 12.054688 11.308594 C 12.378906 11.660156 12.832031 11.769531 13.066406 11.554688 C 13.300781 11.339844 13.226562 10.878906 12.90625 10.527344 Z M 12.90625 10.527344 "/>
<path style=" stroke:none;fill-rule:nonzero;fill:rgb(33.333333%,67.45098%,93.333333%);fill-opacity:1;" d="M 1.667969 13.957031 C 1.667969 14.304688 1.386719 14.582031 1.042969 14.582031 C 0.695312 14.582031 0.417969 14.304688 0.417969 13.957031 C 0.417969 13.613281 0.695312 13.332031 1.042969 13.332031 C 1.386719 13.332031 1.667969 13.613281 1.667969 13.957031 Z M 1.667969 13.957031 "/>
<path style=" stroke:none;fill-rule:nonzero;fill:rgb(33.333333%,67.45098%,93.333333%);fill-opacity:1;" d="M 12.917969 0.832031 C 12.917969 1.292969 12.542969 1.667969 12.082031 1.667969 C 11.625 1.667969 11.25 1.292969 11.25 0.832031 C 11.25 0.375 11.625 0 12.082031 0 C 12.542969 0 12.917969 0.375 12.917969 0.832031 Z M 12.917969 0.832031 "/>
<path style=" stroke:none;fill-rule:nonzero;fill:rgb(91.764706%,34.901961%,43.137255%);fill-opacity:1;" d="M 2.027344 12.1875 L 1.050781 9.847656 L 0.171875 12.363281 Z M 10.832031 2.082031 L 9.167969 2.5 L 9.582031 0.832031 Z M 10.832031 2.082031 "/>
<path style=" stroke:none;fill-rule:nonzero;fill:rgb(46.666667%,69.803922%,33.333333%);fill-opacity:1;" d="M 13.332031 5.417969 L 15 3.332031 L 13.75 2.5 Z M 13.332031 5.417969 "/>
</g>
</svg>
