<?xml version="1.0" encoding="UTF-8"?>
<svg xmlns="http://www.w3.org/2000/svg" xmlns:xlink="http://www.w3.org/1999/xlink" width="15pt" height="15pt" viewBox="0 0 15 15" version="1.1">
<g id="surface1">
<path style=" stroke:none;fill-rule:nonzero;fill:rgb(60.392157%,66.666667%,70.588235%);fill-opacity:1;" d="M 7.5 3.75 L 7.5 8.648438 C 6.25 8.648438 7.054688 10.808594 5 11.148438 C 4.257812 11.269531 3.363281 11.296875 2.5 11.148438 C 1.144531 10.914062 0.488281 9.886719 0.398438 7.949219 C 0.28125 5.449219 0.929688 4.261719 2.613281 3.976562 C 3.914062 3.753906 5.832031 3.75 7.5 3.75 Z M 7.5 3.75 "/>
<path style=" stroke:none;fill-rule:nonzero;fill:rgb(60.392157%,66.666667%,70.588235%);fill-opacity:1;" d="M 7.46875 3.75 L 7.46875 8.648438 C 8.71875 8.648438 7.914062 10.808594 9.96875 11.148438 C 10.710938 11.269531 11.605469 11.296875 12.46875 11.148438 C 13.824219 10.914062 14.480469 9.886719 14.570312 7.949219 C 14.6875 5.449219 14.039062 4.261719 12.355469 3.976562 C 11.054688 3.753906 9.136719 3.75 7.46875 3.75 Z M 0.625 8.75 C 0.28125 8.75 0 8.46875 0 8.125 L 0 6.875 C 0 6.53125 0.28125 6.25 0.625 6.25 C 0.96875 6.25 1.25 6.53125 1.25 6.875 L 1.25 8.125 C 1.25 8.46875 0.96875 8.75 0.625 8.75 Z M 0.625 8.75 "/>
<path style=" stroke:none;fill-rule:nonzero;fill:rgb(60.392157%,66.666667%,70.588235%);fill-opacity:1;" d="M 14.375 8.75 C 14.03125 8.75 13.75 8.46875 13.75 8.125 L 13.75 6.875 C 13.75 6.53125 14.03125 6.25 14.375 6.25 C 14.71875 6.25 15 6.53125 15 6.875 L 15 8.125 C 15 8.46875 14.71875 8.75 14.375 8.75 Z M 14.375 8.75 "/>
<path style=" stroke:none;fill-rule:nonzero;fill:rgb(60.392157%,66.666667%,70.588235%);fill-opacity:1;" d="M 14.375 9.167969 C 14.03125 9.167969 13.75 8.886719 13.75 8.542969 L 13.75 6.457031 C 13.75 6.113281 14.03125 5.832031 14.375 5.832031 C 14.71875 5.832031 15 6.113281 15 6.457031 L 15 8.542969 C 15 8.886719 14.71875 9.167969 14.375 9.167969 Z M 0.625 9.167969 C 0.28125 9.167969 0 8.886719 0 8.542969 L 0 6.457031 C 0 6.113281 0.28125 5.832031 0.625 5.832031 C 0.96875 5.832031 1.25 6.113281 1.25 6.457031 L 1.25 8.542969 C 1.25 8.886719 0.96875 9.167969 0.625 9.167969 Z M 0.625 9.167969 "/>
<path style=" stroke:none;fill-rule:nonzero;fill:rgb(80%,83.921569%,86.666667%);fill-opacity:1;" d="M 7.5 4.582031 L 7.5 7.816406 C 5.832031 7.816406 6.410156 10.0625 4.582031 10.316406 C 3.921875 10.40625 3.683594 10.425781 2.917969 10.316406 C 1.710938 10.144531 1.28125 9.25 1.179688 7.859375 C 1.042969 6.03125 1.707031 4.960938 3.203125 4.75 C 4.359375 4.585938 6.019531 4.582031 7.5 4.582031 Z M 7.5 4.582031 "/>
<path style=" stroke:none;fill-rule:nonzero;fill:rgb(80%,83.921569%,86.666667%);fill-opacity:1;" d="M 7.5 4.582031 L 7.5 7.816406 C 9.167969 7.816406 8.589844 10.0625 10.417969 10.316406 C 11.078125 10.40625 11.316406 10.425781 12.082031 10.316406 C 13.289062 10.144531 13.71875 9.25 13.820312 7.859375 C 13.957031 6.03125 13.292969 4.960938 11.796875 4.75 C 10.640625 4.585938 8.980469 4.582031 7.5 4.582031 Z M 7.5 4.582031 "/>
<path style=" stroke:none;fill-rule:nonzero;fill:rgb(88.235294%,90.980392%,92.941176%);fill-opacity:1;" d="M 11.246094 4.6875 C 10.972656 4.664062 10.683594 4.644531 10.382812 4.628906 L 8.84375 8.859375 C 9 9.175781 9.15625 9.507812 9.394531 9.78125 Z M 7.5 4.582031 C 7.230469 4.582031 6.953125 4.582031 6.679688 4.585938 L 4.59375 10.3125 C 6.40625 10.054688 5.835938 7.816406 7.5 7.816406 C 7.75 7.816406 7.945312 7.871094 8.109375 7.957031 L 9.335938 4.597656 C 8.722656 4.585938 8.097656 4.582031 7.5 4.582031 Z M 7.5 4.582031 "/>
<path style=" stroke:none;fill-rule:nonzero;fill:rgb(16.078431%,18.431373%,20%);fill-opacity:1;" d="M 14.582031 6.667969 L 14.167969 6.667969 L 14.167969 8.332031 L 14.582031 8.332031 C 14.8125 8.332031 15 8.144531 15 7.917969 L 15 7.082031 C 15 6.855469 14.8125 6.667969 14.582031 6.667969 Z M 0.417969 6.667969 C 0.1875 6.667969 0 6.855469 0 7.082031 L 0 7.917969 C 0 8.144531 0.1875 8.332031 0.417969 8.332031 L 0.832031 8.332031 L 0.832031 6.667969 Z M 0.417969 6.667969 "/>
</g>
</svg>
