<?xml version="1.0" encoding="UTF-8"?>
<svg xmlns="http://www.w3.org/2000/svg" xmlns:xlink="http://www.w3.org/1999/xlink" width="15pt" height="15pt" viewBox="0 0 15 15" version="1.1">
<g id="surface1">
<path style=" stroke:none;fill-rule:nonzero;fill:rgb(100%,80%,30.196078%);fill-opacity:1;" d="M 15 7.5 C 15 11.640625 11.640625 15 7.5 15 C 3.359375 15 0 11.640625 0 7.5 C 0 3.359375 3.359375 0 7.5 0 C 11.640625 0 15 3.359375 15 7.5 Z M 15 7.5 "/>
<path style=" stroke:none;fill-rule:nonzero;fill:rgb(40%,27.058824%,0%);fill-opacity:1;" d="M 6.667969 7.066406 C 6.492188 7.066406 6.328125 6.957031 6.269531 6.78125 C 6.1875 6.53125 5.847656 5.816406 5.417969 5.816406 C 4.972656 5.816406 4.628906 6.578125 4.5625 6.78125 C 4.488281 7 4.253906 7.117188 4.035156 7.042969 C 3.816406 6.972656 3.699219 6.734375 3.773438 6.515625 C 3.824219 6.359375 4.316406 4.980469 5.417969 4.980469 C 6.519531 4.980469 7.011719 6.359375 7.0625 6.515625 C 7.136719 6.734375 7.015625 6.972656 6.800781 7.042969 C 6.753906 7.058594 6.710938 7.066406 6.667969 7.066406 Z M 10.832031 7.066406 C 10.660156 7.066406 10.496094 6.957031 10.4375 6.78125 C 10.355469 6.53125 10.015625 5.816406 9.582031 5.816406 C 9.140625 5.816406 8.796875 6.578125 8.726562 6.78125 C 8.65625 7 8.421875 7.117188 8.203125 7.042969 C 7.984375 6.972656 7.863281 6.734375 7.9375 6.515625 C 7.988281 6.359375 8.480469 4.980469 9.582031 4.980469 C 10.683594 4.980469 11.175781 6.359375 11.226562 6.515625 C 11.300781 6.734375 11.183594 6.972656 10.964844 7.042969 C 10.921875 7.058594 10.878906 7.066406 10.832031 7.066406 Z M 11.390625 8.621094 C 11.316406 8.554688 11.203125 8.550781 11.125 8.609375 C 11.109375 8.621094 9.492188 9.816406 7.5 9.816406 C 5.515625 9.816406 3.890625 8.621094 3.875 8.609375 C 3.796875 8.550781 3.683594 8.554688 3.609375 8.621094 C 3.535156 8.6875 3.519531 8.796875 3.570312 8.882812 C 3.625 8.972656 4.910156 11.066406 7.5 11.066406 C 10.089844 11.066406 11.375 8.972656 11.429688 8.882812 C 11.480469 8.796875 11.464844 8.6875 11.390625 8.621094 Z M 11.390625 8.621094 "/>
<path style=" stroke:none;fill-rule:nonzero;fill:rgb(100%,67.45098%,20%);fill-opacity:1;" d="M 8.84375 1.644531 C 8.84375 1.746094 8.859375 1.839844 8.878906 1.933594 C 9.058594 3.035156 10.28125 4.199219 11.160156 4.515625 C 11.851562 4.265625 12.761719 3.484375 13.199219 2.625 C 12.328125 1.609375 11.191406 0.828125 9.894531 0.390625 C 9.300781 0.5 8.84375 1.015625 8.84375 1.644531 Z M 5.726562 12.117188 C 5.75 12.015625 5.765625 11.910156 5.765625 11.800781 C 5.765625 11.039062 5.144531 10.417969 4.378906 10.417969 C 3.917969 10.417969 3.507812 10.648438 3.257812 10.996094 C 3.007812 10.648438 2.597656 10.417969 2.132812 10.417969 C 1.617188 10.417969 1.171875 10.707031 0.933594 11.125 C 1.691406 12.5 2.871094 13.609375 4.296875 14.28125 C 4.976562 13.71875 5.597656 12.902344 5.726562 12.117188 Z M 14.292969 10.683594 C 14.175781 10.289062 13.8125 9.996094 13.378906 9.996094 C 13.058594 9.996094 12.773438 10.15625 12.597656 10.398438 C 12.425781 10.15625 12.140625 9.996094 11.820312 9.996094 C 11.292969 9.996094 10.863281 10.425781 10.863281 10.957031 C 10.863281 11.03125 10.871094 11.101562 10.890625 11.171875 C 11.015625 11.96875 11.867188 12.796875 12.519531 13.074219 C 13.257812 12.40625 13.863281 11.597656 14.292969 10.683594 Z M 14.292969 10.683594 "/>
<path style=" stroke:none;fill-rule:nonzero;fill:rgb(86.666667%,18.039216%,26.666667%);fill-opacity:1;" d="M 14.011719 1.363281 C 14.011719 0.65625 13.4375 0.0859375 12.734375 0.0859375 C 12.304688 0.0859375 11.929688 0.296875 11.695312 0.621094 C 11.464844 0.296875 11.089844 0.0859375 10.660156 0.0859375 C 9.953125 0.0859375 9.382812 0.65625 9.382812 1.363281 C 9.382812 1.460938 9.394531 1.558594 9.417969 1.652344 C 9.59375 2.753906 10.820312 3.914062 11.695312 4.234375 C 12.574219 3.914062 13.796875 2.753906 13.976562 1.652344 C 13.996094 1.558594 14.011719 1.460938 14.011719 1.363281 Z M 5.085938 11.835938 C 5.085938 11.074219 4.46875 10.453125 3.703125 10.453125 C 3.238281 10.453125 2.832031 10.683594 2.578125 11.03125 C 2.328125 10.683594 1.921875 10.453125 1.457031 10.453125 C 0.691406 10.453125 0.0742188 11.074219 0.0742188 11.835938 C 0.0742188 11.945312 0.0859375 12.050781 0.109375 12.152344 C 0.300781 13.34375 1.628906 14.601562 2.578125 14.949219 C 3.53125 14.601562 4.855469 13.34375 5.046875 12.152344 C 5.074219 12.050781 5.085938 11.945312 5.085938 11.835938 Z M 14.976562 10.886719 C 14.976562 10.355469 14.550781 9.929688 14.019531 9.929688 C 13.699219 9.929688 13.414062 10.085938 13.242188 10.328125 C 13.066406 10.085938 12.785156 9.929688 12.464844 9.929688 C 11.933594 9.929688 11.503906 10.355469 11.503906 10.886719 C 11.503906 10.960938 11.515625 11.035156 11.53125 11.105469 C 11.664062 11.929688 12.582031 12.800781 13.242188 13.042969 C 13.902344 12.800781 14.820312 11.929688 14.953125 11.105469 C 14.96875 11.035156 14.976562 10.960938 14.976562 10.886719 Z M 14.976562 10.886719 "/>
</g>
</svg>
