<?xml version="1.0" encoding="UTF-8"?>
<svg xmlns="http://www.w3.org/2000/svg" xmlns:xlink="http://www.w3.org/1999/xlink" width="15pt" height="15pt" viewBox="0 0 15 15" version="1.1">
<g id="surface1">
<path style=" stroke:none;fill-rule:nonzero;fill:rgb(91.764706%,34.901961%,43.137255%);fill-opacity:1;" d="M 15 7.5 C 15 11.640625 11.640625 15 7.5 15 C 3.359375 15 0 11.640625 0 7.5 C 0 3.359375 3.359375 0 7.5 0 C 11.640625 0 15 3.359375 15 7.5 Z M 15 7.5 "/>
<path style=" stroke:none;fill-rule:nonzero;fill:rgb(16.078431%,18.431373%,20%);fill-opacity:1;" d="M 10.886719 12.191406 C 10.875 12.191406 10.863281 12.191406 10.851562 12.1875 C 7.339844 11.378906 4.183594 12.179688 4.152344 12.1875 C 4.109375 12.199219 4.058594 12.1875 4.019531 12.160156 C 3.980469 12.128906 3.957031 12.085938 3.957031 12.035156 C 3.957031 10.710938 5.503906 9.171875 7.5 9.171875 C 9.496094 9.171875 11.042969 10.710938 11.042969 12.035156 C 11.042969 12.082031 11.019531 12.128906 10.984375 12.160156 C 10.953125 12.179688 10.921875 12.191406 10.886719 12.191406 Z M 12.082031 5 C 9.769531 5 8.832031 3.179688 8.792969 3.101562 C 8.691406 2.898438 8.773438 2.648438 8.980469 2.542969 C 9.183594 2.441406 9.433594 2.523438 9.539062 2.726562 C 9.570312 2.789062 10.296875 4.167969 12.082031 4.167969 C 12.3125 4.167969 12.5 4.351562 12.5 4.582031 C 12.5 4.8125 12.3125 5 12.082031 5 Z M 2.917969 5 C 2.6875 5 2.5 4.8125 2.5 4.582031 C 2.5 4.351562 2.6875 4.167969 2.917969 4.167969 C 5.035156 4.167969 5.414062 2.867188 5.429688 2.8125 C 5.492188 2.589844 5.71875 2.457031 5.9375 2.515625 C 6.160156 2.574219 6.292969 2.796875 6.238281 3.019531 C 6.21875 3.097656 5.710938 5 2.917969 5 Z M 2.917969 5 "/>
<path style=" stroke:none;fill-rule:nonzero;fill:rgb(16.078431%,18.431373%,20%);fill-opacity:1;" d="M 6.042969 6.875 C 6.042969 6.070312 5.574219 5.417969 5 5.417969 C 4.425781 5.417969 3.957031 6.070312 3.957031 6.875 C 3.957031 7.679688 4.425781 8.332031 5 8.332031 C 5.574219 8.332031 6.042969 7.679688 6.042969 6.875 Z M 6.042969 6.875 "/>
<path style=" stroke:none;fill-rule:nonzero;fill:rgb(16.078431%,18.431373%,20%);fill-opacity:1;" d="M 11.042969 6.875 C 11.042969 6.070312 10.574219 5.417969 10 5.417969 C 9.425781 5.417969 8.957031 6.070312 8.957031 6.875 C 8.957031 7.679688 9.425781 8.332031 10 8.332031 C 10.574219 8.332031 11.042969 7.679688 11.042969 6.875 Z M 11.042969 6.875 "/>
<path style=" stroke:none;fill-rule:nonzero;fill:rgb(95.686275%,67.058824%,72.941176%);fill-opacity:1;" d="M 7.761719 9.617188 L 7.761719 9.960938 L 7.308594 9.960938 L 7.308594 9.613281 C 6.359375 9.664062 5.5625 10.097656 5.035156 10.660156 L 5.039062 10.851562 C 5.074219 12.074219 5.90625 13.269531 7.535156 13.269531 C 9.160156 13.269531 9.988281 12.082031 10.03125 10.863281 L 10.035156 10.746094 C 9.523438 10.15625 8.722656 9.691406 7.761719 9.617188 Z M 7.761719 9.617188 "/>
<path style=" stroke:none;fill-rule:nonzero;fill:rgb(91.764706%,34.901961%,43.137255%);fill-opacity:1;" d="M 7.5 9.605469 C 7.433594 9.605469 7.371094 9.609375 7.308594 9.613281 L 7.308594 11.464844 C 7.308594 11.589844 7.410156 11.691406 7.535156 11.691406 C 7.660156 11.691406 7.761719 11.589844 7.761719 11.464844 L 7.761719 9.617188 C 7.675781 9.609375 7.589844 9.605469 7.5 9.605469 Z M 7.5 9.605469 "/>
<path style=" stroke:none;fill-rule:nonzero;fill:rgb(36.470588%,67.843137%,92.54902%);fill-opacity:1;" d="M 14.960938 5.027344 C 14.960938 6.199219 14.011719 7.148438 12.839844 7.148438 C 11.664062 7.148438 10.714844 6.199219 10.714844 5.027344 C 10.714844 3.851562 12.414062 0.78125 12.839844 0.78125 C 13.261719 0.78125 14.960938 3.855469 14.960938 5.027344 Z M 3.570312 3.515625 C 3.570312 4.480469 2.789062 5.261719 1.828125 5.261719 C 0.863281 5.261719 0.0820312 4.480469 0.0820312 3.515625 C 0.0820312 2.550781 1.476562 0.0273438 1.828125 0.0273438 C 2.175781 0.0273438 3.570312 2.550781 3.570312 3.515625 Z M 3.570312 3.515625 "/>
</g>
</svg>
