<?xml version="1.0" encoding="UTF-8"?>
<svg xmlns="http://www.w3.org/2000/svg" xmlns:xlink="http://www.w3.org/1999/xlink" width="15pt" height="15pt" viewBox="0 0 15 15" version="1.1">
<g id="surface1">
<path style=" stroke:none;fill-rule:nonzero;fill:rgb(100%,80%,30.196078%);fill-opacity:1;" d="M 15 7.5 C 15 11.640625 11.640625 15 7.5 15 C 3.359375 15 0 11.640625 0 7.5 C 0 3.359375 3.359375 0 7.5 0 C 11.640625 0 15 3.359375 15 7.5 Z M 15 7.5 "/>
<path style=" stroke:none;fill-rule:nonzero;fill:rgb(39.607843%,27.843137%,10.588235%);fill-opacity:1;" d="M 8.75 11.25 C 8.707031 11.25 8.664062 11.242188 8.621094 11.230469 C 7.886719 10.992188 7.113281 10.992188 6.378906 11.230469 C 6.160156 11.300781 5.925781 11.179688 5.855469 10.960938 C 5.785156 10.742188 5.902344 10.507812 6.121094 10.4375 C 7.023438 10.144531 7.976562 10.144531 8.875 10.4375 C 9.09375 10.507812 9.214844 10.742188 9.144531 10.960938 C 9.085938 11.136719 8.925781 11.25 8.75 11.25 Z M 8.75 11.25 "/>
<path style=" stroke:none;fill-rule:nonzero;fill:rgb(100%,100%,100%);fill-opacity:1;" d="M 12.640625 5.027344 C 12.261719 6.171875 11.1875 6.992188 9.933594 6.992188 C 9.875 6.992188 9.8125 6.992188 9.753906 6.988281 C 9.136719 6.949219 8.566406 6.714844 8.105469 6.328125 C 8.121094 6.535156 8.136719 6.742188 8.164062 6.96875 C 8.226562 7.546875 8.53125 8.003906 9.046875 8.285156 C 9.386719 8.476562 9.796875 8.574219 10.21875 8.601562 C 10.941406 8.644531 11.703125 8.484375 12.246094 8.222656 C 12.820312 7.945312 13.195312 7.445312 13.269531 6.851562 C 13.347656 6.261719 13.125 5.632812 12.640625 5.027344 Z M 12.640625 5.027344 "/>
<path style=" stroke:none;fill-rule:nonzero;fill:rgb(39.607843%,27.843137%,10.588235%);fill-opacity:1;" d="M 8.894531 3.160156 C 8.355469 3.390625 8.085938 4.117188 8.074219 5.363281 L 8.089844 5.390625 C 8.460938 5.941406 9.078125 6.316406 9.792969 6.363281 C 9.839844 6.367188 9.886719 6.367188 9.933594 6.367188 C 11.03125 6.367188 11.953125 5.5625 12.121094 4.484375 C 12.074219 4.4375 12.03125 4.394531 11.980469 4.351562 C 10.433594 3.03125 9.285156 2.996094 8.894531 3.160156 Z M 8.894531 3.160156 "/>
<path style=" stroke:none;fill-rule:nonzero;fill:rgb(95.686275%,56.470588%,4.705882%);fill-opacity:1;" d="M 9.933594 6.992188 C 11.1875 6.992188 12.261719 6.171875 12.640625 5.027344 C 12.492188 4.84375 12.316406 4.660156 12.121094 4.484375 C 11.953125 5.5625 11.03125 6.367188 9.933594 6.367188 C 9.886719 6.367188 9.839844 6.367188 9.792969 6.363281 C 9.078125 6.316406 8.460938 5.941406 8.089844 5.390625 L 8.070312 5.363281 C 8.070312 5.65625 8.082031 5.976562 8.105469 6.328125 C 8.566406 6.714844 9.136719 6.949219 9.753906 6.988281 C 9.8125 6.992188 9.875 6.992188 9.933594 6.992188 Z M 9.933594 6.992188 "/>
<path style=" stroke:none;fill-rule:nonzero;fill:rgb(100%,100%,100%);fill-opacity:1;" d="M 9.382812 4.460938 C 9.382812 4.714844 9.175781 4.921875 8.921875 4.921875 C 8.667969 4.921875 8.460938 4.714844 8.460938 4.460938 C 8.460938 4.207031 8.667969 4 8.921875 4 C 9.175781 4 9.382812 4.207031 9.382812 4.460938 Z M 9.382812 4.460938 "/>
<path style=" stroke:none;fill-rule:nonzero;fill:rgb(100%,100%,100%);fill-opacity:1;" d="M 5.066406 6.992188 C 3.8125 6.992188 2.738281 6.171875 2.359375 5.027344 C 1.875 5.632812 1.652344 6.261719 1.730469 6.851562 C 1.804688 7.445312 2.179688 7.945312 2.753906 8.222656 C 3.296875 8.484375 4.058594 8.644531 4.78125 8.597656 C 5.203125 8.574219 5.613281 8.476562 5.953125 8.285156 C 6.46875 8.003906 6.773438 7.546875 6.835938 6.96875 C 6.863281 6.742188 6.878906 6.535156 6.894531 6.328125 C 6.433594 6.714844 5.863281 6.949219 5.246094 6.988281 C 5.1875 6.992188 5.125 6.992188 5.066406 6.992188 Z M 5.066406 6.992188 "/>
<path style=" stroke:none;fill-rule:nonzero;fill:rgb(39.607843%,27.843137%,10.588235%);fill-opacity:1;" d="M 5.066406 6.367188 C 5.113281 6.367188 5.160156 6.367188 5.207031 6.363281 C 5.921875 6.316406 6.539062 5.941406 6.910156 5.390625 L 6.929688 5.363281 C 6.914062 4.117188 6.644531 3.390625 6.105469 3.160156 C 5.714844 2.996094 4.566406 3.03125 3.019531 4.351562 C 2.96875 4.394531 2.925781 4.4375 2.878906 4.484375 C 3.046875 5.5625 3.96875 6.367188 5.066406 6.367188 Z M 5.066406 6.367188 "/>
<path style=" stroke:none;fill-rule:nonzero;fill:rgb(95.686275%,56.470588%,4.705882%);fill-opacity:1;" d="M 6.925781 5.363281 L 6.910156 5.390625 C 6.539062 5.941406 5.921875 6.316406 5.207031 6.363281 C 5.160156 6.367188 5.113281 6.367188 5.066406 6.367188 C 3.96875 6.367188 3.046875 5.5625 2.878906 4.484375 C 2.679688 4.660156 2.507812 4.84375 2.359375 5.027344 C 2.734375 6.171875 3.8125 6.992188 5.066406 6.992188 C 5.125 6.992188 5.1875 6.992188 5.246094 6.988281 C 5.863281 6.949219 6.433594 6.714844 6.894531 6.328125 C 6.917969 5.976562 6.929688 5.65625 6.925781 5.363281 Z M 6.925781 5.363281 "/>
<path style=" stroke:none;fill-rule:nonzero;fill:rgb(100%,100%,100%);fill-opacity:1;" d="M 4.074219 4.921875 C 4.328125 4.90625 4.523438 4.6875 4.507812 4.433594 C 4.492188 4.175781 4.273438 3.984375 4.015625 4 C 3.761719 4.015625 3.570312 4.234375 3.585938 4.488281 C 3.601562 4.742188 3.820312 4.9375 4.074219 4.921875 Z M 4.074219 4.921875 "/>
</g>
</svg>
