<?xml version="1.0" encoding="UTF-8"?>
<svg xmlns="http://www.w3.org/2000/svg" xmlns:xlink="http://www.w3.org/1999/xlink" width="15pt" height="15pt" viewBox="0 0 15 15" version="1.1">
<g id="surface1">
<path style=" stroke:none;fill-rule:nonzero;fill:rgb(60.392157%,66.666667%,70.588235%);fill-opacity:1;" d="M 9.582031 14.167969 C 9.582031 14.167969 8.75 13.75 7.5 13.75 C 6.25 13.75 5.417969 14.167969 5.417969 14.167969 L 5.832031 0.832031 L 9.167969 0.832031 Z M 9.582031 14.167969 "/>
<path style=" stroke:none;fill-rule:nonzero;fill:rgb(88.235294%,90.980392%,92.941176%);fill-opacity:1;" d="M 7.492188 0 L 7.90625 0 C 8.742188 0 9.574219 0.832031 9.574219 0.832031 C 9.574219 0.832031 10.917969 1.363281 12.167969 1.78125 C 13.417969 2.199219 15.011719 9.367188 15 9.863281 C 14.992188 10.261719 13.023438 10.640625 12.925781 10.386719 C 12.710938 9.820312 12.210938 8.179688 11.746094 5.886719 C 11.746094 10.46875 12.753906 14.097656 12.753906 14.097656 C 12.753906 14.097656 10.40625 15 9.15625 15 C 8.742188 13.332031 8.742188 7.917969 8.742188 6.667969 C 8.742188 5.417969 7.492188 0 7.492188 0 Z M 7.492188 0 "/>
<path style=" stroke:none;fill-rule:nonzero;fill:rgb(88.235294%,90.980392%,92.941176%);fill-opacity:1;" d="M 7.5 0 L 7.082031 0 C 6.25 0 5.417969 0.832031 5.417969 0.832031 C 5.417969 0.832031 4.070312 1.363281 2.820312 1.78125 C 1.570312 2.199219 -0.0195312 9.367188 -0.0078125 9.863281 C 0 10.261719 1.96875 10.640625 2.0625 10.386719 C 2.277344 9.820312 2.777344 8.308594 3.242188 5.886719 C 3.242188 10.46875 2.234375 14.097656 2.234375 14.097656 C 2.234375 14.097656 4.582031 15 5.832031 15 C 6.25 13.332031 6.25 7.917969 6.25 6.667969 C 6.25 5.417969 7.5 0 7.5 0 Z M 7.5 0 "/>
<path style=" stroke:none;fill-rule:nonzero;fill:rgb(96.078431%,97.254902%,98.039216%);fill-opacity:1;" d="M 10 1.667969 C 10 1.667969 8.75 0 7.917969 0 L 7.082031 0 C 6.25 0 5 1.667969 5 1.667969 L 5.832031 2.082031 L 5 2.5 L 6.25 6.667969 L 8.75 6.667969 L 10 2.5 L 9.167969 2.082031 Z M 5.074219 11.734375 C 4.851562 11.761719 3.964844 11.632812 3.789062 11.546875 C 3.554688 11.425781 3.519531 11.289062 3.546875 11.042969 C 3.574219 10.792969 3.675781 10.480469 3.722656 9.582031 C 4.101562 9.757812 4.953125 9.808594 5.613281 9.828125 C 5.613281 10.582031 5.476562 11.25 5.476562 11.25 C 5.445312 11.480469 5.296875 11.710938 5.074219 11.734375 Z M 9.925781 11.734375 C 10.148438 11.761719 11.035156 11.632812 11.210938 11.546875 C 11.445312 11.425781 11.480469 11.289062 11.453125 11.042969 C 11.425781 10.792969 11.324219 10.480469 11.277344 9.582031 C 10.898438 9.757812 10.046875 9.808594 9.386719 9.828125 C 9.386719 10.582031 9.523438 11.25 9.523438 11.25 C 9.554688 11.480469 9.703125 11.710938 9.925781 11.734375 Z M 9.925781 11.734375 "/>
<path style=" stroke:none;fill-rule:nonzero;fill:rgb(73.333333%,10.196078%,20.392157%);fill-opacity:1;" d="M 9.964844 5.753906 C 9.964844 5.289062 9.898438 4.914062 9.816406 4.914062 C 9.738281 4.914062 9.671875 5.289062 9.671875 5.753906 C 9.671875 6.21875 9.738281 6.597656 9.816406 6.597656 C 9.898438 6.597656 9.964844 6.21875 9.964844 5.753906 Z M 9.964844 5.753906 "/>
<path style=" stroke:none;fill-rule:nonzero;fill:rgb(25.882353%,53.72549%,75.686275%);fill-opacity:1;" d="M 10.382812 5.753906 C 10.382812 5.289062 10.316406 4.914062 10.234375 4.914062 C 10.152344 4.914062 10.085938 5.289062 10.085938 5.753906 C 10.085938 6.21875 10.152344 6.597656 10.234375 6.597656 C 10.316406 6.597656 10.382812 6.21875 10.382812 5.753906 Z M 10.382812 5.753906 "/>
<path style=" stroke:none;fill-rule:nonzero;fill:rgb(96.078431%,97.254902%,98.039216%);fill-opacity:1;" d="M 10.800781 7.046875 C 10.636719 7.113281 9.878906 7.117188 9.671875 7.03125 C 9.460938 6.945312 9.382812 6.847656 9.367188 6.605469 C 9.347656 6.363281 9.390625 5.417969 9.390625 5.417969 L 11.042969 5.417969 C 11.042969 5.417969 11.09375 6.09375 11.09375 6.667969 C 11.09375 6.910156 10.988281 6.972656 10.800781 7.046875 Z M 10.800781 7.046875 "/>
<path style=" stroke:none;fill-rule:nonzero;fill:rgb(80%,83.921569%,86.666667%);fill-opacity:1;" d="M 8.75 1.457031 L 6.25 1.457031 L 6.25 1.042969 C 6.25 0.582031 6.621094 0.207031 7.082031 0.207031 L 7.917969 0.207031 C 8.378906 0.207031 8.75 0.582031 8.75 1.042969 Z M 8.75 1.457031 "/>
<path style=" stroke:none;fill-rule:nonzero;fill:rgb(60.392157%,66.666667%,70.588235%);fill-opacity:1;" d="M 8.75 13.214844 L 6.25 13.214844 L 6.25 1.457031 C 6.25 1 6.621094 0.625 7.082031 0.625 L 7.917969 0.625 C 8.378906 0.625 8.75 1 8.75 1.457031 Z M 8.75 13.214844 "/>
</g>
</svg>
