<?xml version="1.0" encoding="UTF-8"?>
<svg xmlns="http://www.w3.org/2000/svg" xmlns:xlink="http://www.w3.org/1999/xlink" width="15pt" height="15pt" viewBox="0 0 15 15" version="1.1">
<g id="surface1">
<path style=" stroke:none;fill-rule:nonzero;fill:rgb(75.686275%,41.176471%,30.980392%);fill-opacity:1;" d="M 14.363281 11.730469 C 14.117188 11.363281 13.339844 10.746094 12.488281 10.625 C 11.605469 10.5 10.871094 10.699219 9.75 10.042969 C 9.714844 10.015625 9.679688 9.988281 9.636719 9.964844 C 8.738281 9.445312 7.171875 7.707031 7.136719 5.988281 C 7.117188 5.015625 5.886719 4.894531 4.894531 5.015625 C 3.90625 5.140625 0.695312 5.886719 0.816406 6.371094 C 0.917969 6.785156 0.910156 8.585938 0.808594 9.789062 C 0.65625 10.734375 0.542969 12.054688 0.542969 12.890625 C 0.542969 13.167969 0.972656 13.332031 0.972656 13.332031 L 6.886719 13.542969 L 14.257812 13.34375 C 14.257812 13.34375 14.648438 13.308594 14.636719 13.046875 C 14.617188 12.648438 14.570312 12.042969 14.363281 11.730469 Z M 14.363281 11.730469 "/>
<path style=" stroke:none;fill-rule:nonzero;fill:rgb(40%,12.941176%,7.45098%);fill-opacity:1;" d="M 9.671875 13.523438 C 9.984375 12.96875 10.660156 12.515625 11.648438 12.449219 C 12.640625 12.378906 14.0625 11.394531 14.0625 11.394531 C 14.0625 11.394531 14.464844 11.394531 14.699219 12.238281 C 14.894531 12.933594 14.53125 13.113281 14.53125 13.113281 C 14.53125 13.113281 13.054688 13.941406 12.082031 13.785156 C 11.109375 13.628906 9.671875 13.523438 9.671875 13.523438 Z M 0.792969 10.066406 C 0.792969 10.066406 0.324219 11.589844 0.4375 12.421875 C 0.511719 12.996094 0.675781 13.402344 1.007812 13.5 C 1.34375 13.59375 4.96875 13.527344 4.894531 13.503906 C 4.824219 13.480469 4.4375 11.785156 2.980469 11.355469 C 1.523438 10.925781 0.792969 10.066406 0.792969 10.066406 Z M 0.792969 10.066406 "/>
<path style=" stroke:none;fill-rule:nonzero;fill:rgb(16.078431%,18.431373%,20%);fill-opacity:1;" d="M 0.792969 14.816406 C 0.566406 14.816406 0.363281 14.636719 0.3125 14.011719 L 0.300781 13.777344 C 0.363281 12.941406 0.566406 14.035156 0.792969 14.035156 C 1.023438 14.035156 1.210938 14.222656 1.210938 14.453125 C 1.210938 14.683594 1.023438 14.816406 0.792969 14.816406 Z M 2.058594 14.921875 C 1.828125 14.921875 1.640625 14.734375 1.640625 14.503906 C 1.640625 14.277344 1.828125 14.089844 2.058594 14.089844 C 2.285156 14.089844 2.472656 14.277344 2.472656 14.503906 C 2.472656 14.734375 2.285156 14.921875 2.058594 14.921875 Z M 3.332031 15 C 3.105469 15 2.917969 14.8125 2.917969 14.582031 C 2.917969 14.355469 3.105469 14.167969 3.332031 14.167969 C 3.5625 14.167969 3.75 14.355469 3.75 14.582031 C 3.75 14.8125 3.5625 15 3.332031 15 Z M 4.609375 14.933594 C 4.378906 14.933594 4.191406 14.746094 4.191406 14.519531 C 4.191406 14.289062 4.378906 14.101562 4.609375 14.101562 C 4.839844 14.101562 5.027344 14.289062 5.027344 14.519531 C 5.027344 14.746094 4.839844 14.933594 4.609375 14.933594 Z M 8.332031 15 C 8.105469 15 7.917969 14.8125 7.917969 14.582031 C 7.917969 14.355469 8.105469 14.167969 8.332031 14.167969 C 8.5625 14.167969 8.75 14.355469 8.75 14.582031 C 8.75 14.8125 8.5625 15 8.332031 15 Z M 9.582031 15 C 9.355469 15 9.167969 14.8125 9.167969 14.582031 C 9.167969 14.355469 9.355469 14.167969 9.582031 14.167969 C 9.8125 14.167969 10 14.355469 10 14.582031 C 10 14.8125 9.8125 15 9.582031 15 Z M 10.808594 14.949219 C 10.578125 14.949219 10.390625 14.761719 10.390625 14.53125 C 10.390625 14.300781 10.578125 14.113281 10.808594 14.113281 C 11.035156 14.113281 11.222656 14.300781 11.222656 14.53125 C 11.222656 14.761719 11.035156 14.949219 10.808594 14.949219 Z M 12.070312 14.871094 C 11.839844 14.871094 11.652344 14.683594 11.652344 14.453125 C 11.652344 14.222656 11.839844 14.035156 12.070312 14.035156 C 12.300781 14.035156 12.488281 14.222656 12.488281 14.453125 C 12.488281 14.683594 12.300781 14.871094 12.070312 14.871094 Z M 13.320312 14.792969 C 13.089844 14.792969 12.902344 14.605469 12.902344 14.375 C 12.902344 14.144531 13.089844 13.957031 13.320312 13.957031 C 13.550781 13.957031 13.738281 14.144531 13.738281 14.375 C 13.738281 14.605469 13.550781 14.792969 13.320312 14.792969 Z M 14.554688 14.589844 L 14.4375 14.589844 C 14.207031 14.589844 14.019531 14.339844 14.019531 14.109375 C 14.019531 13.878906 14.207031 13.691406 14.4375 13.691406 C 14.667969 13.691406 14.945312 13.410156 14.945312 13.640625 L 14.917969 14.082031 C 14.917969 14.3125 14.785156 14.589844 14.554688 14.589844 Z M 14.554688 14.589844 "/>
<path style=" stroke:none;fill-rule:nonzero;fill:rgb(40%,12.941176%,7.45098%);fill-opacity:1;" d="M 0.902344 6.683594 C 0.605469 6.835938 0.589844 6.164062 0.867188 5.851562 C 1.144531 5.539062 3.472656 5.121094 4.046875 5.015625 C 4.617188 4.914062 5.730469 4.703125 6.078125 4.984375 C 6.421875 5.261719 6.492188 6.164062 6.476562 6.492188 C 6.457031 6.824219 5.191406 6.320312 4.167969 6.214844 C 3.199219 6.117188 1.578125 6.335938 0.902344 6.683594 Z M 0.902344 6.683594 "/>
<path style=" stroke:none;fill-rule:nonzero;fill:rgb(16.078431%,18.431373%,20%);fill-opacity:1;" d="M 6.710938 7.742188 C 6.710938 8.089844 6.429688 8.367188 6.085938 8.367188 C 5.738281 8.367188 5.460938 8.089844 5.460938 7.742188 C 5.460938 7.398438 5.738281 7.117188 6.085938 7.117188 C 6.429688 7.117188 6.710938 7.398438 6.710938 7.742188 Z M 6.710938 7.742188 "/>
<path style=" stroke:none;fill-rule:nonzero;fill:rgb(16.078431%,18.431373%,20%);fill-opacity:1;" d="M 7.269531 9.074219 C 7.269531 9.421875 6.988281 9.699219 6.644531 9.699219 C 6.300781 9.699219 6.019531 9.421875 6.019531 9.074219 C 6.019531 8.730469 6.300781 8.449219 6.644531 8.449219 C 6.988281 8.449219 7.269531 8.730469 7.269531 9.074219 Z M 7.269531 9.074219 "/>
<path style=" stroke:none;fill-rule:nonzero;fill:rgb(16.078431%,18.431373%,20%);fill-opacity:1;" d="M 8.246094 10.191406 C 8.246094 10.535156 7.96875 10.816406 7.621094 10.816406 C 7.277344 10.816406 6.996094 10.535156 6.996094 10.191406 C 6.996094 9.84375 7.277344 9.566406 7.621094 9.566406 C 7.96875 9.566406 8.246094 9.84375 8.246094 10.191406 Z M 8.246094 10.191406 "/>
<path style=" stroke:none;fill-rule:nonzero;fill:rgb(16.078431%,18.431373%,20%);fill-opacity:1;" d="M 9.609375 10.808594 C 9.609375 11.152344 9.328125 11.433594 8.984375 11.433594 C 8.640625 11.433594 8.359375 11.152344 8.359375 10.808594 C 8.359375 10.460938 8.640625 10.183594 8.984375 10.183594 C 9.328125 10.183594 9.609375 10.460938 9.609375 10.808594 Z M 9.609375 10.808594 "/>
<path style=" stroke:none;fill-rule:nonzero;fill:rgb(16.078431%,18.431373%,20%);fill-opacity:1;" d="M 11.042969 11.175781 C 11.042969 11.519531 10.761719 11.800781 10.417969 11.800781 C 10.070312 11.800781 9.792969 11.519531 9.792969 11.175781 C 9.792969 10.832031 10.070312 10.550781 10.417969 10.550781 C 10.761719 10.550781 11.042969 10.832031 11.042969 11.175781 Z M 11.042969 11.175781 "/>
<path style=" stroke:none;fill-rule:nonzero;fill:rgb(74.509804%,9.803922%,19.215686%);fill-opacity:1;" d="M 6.042969 8.09375 C 5.890625 8.09375 5.753906 7.992188 5.71875 7.839844 C 5.675781 7.660156 5.785156 7.480469 5.964844 7.4375 L 7.5625 7.054688 C 7.738281 7.011719 7.921875 7.121094 7.964844 7.300781 C 8.007812 7.480469 7.894531 7.660156 7.714844 7.703125 L 6.121094 8.085938 C 6.09375 8.089844 6.066406 8.09375 6.042969 8.09375 Z M 6.667969 9.421875 C 6.546875 9.421875 6.429688 9.355469 6.371094 9.242188 C 6.285156 9.078125 6.347656 8.878906 6.511719 8.792969 L 7.988281 8.019531 C 8.152344 7.9375 8.351562 7.996094 8.4375 8.160156 C 8.523438 8.324219 8.460938 8.527344 8.296875 8.609375 L 6.820312 9.382812 C 6.773438 9.410156 6.71875 9.421875 6.667969 9.421875 Z M 7.605469 10.542969 C 7.511719 10.542969 7.417969 10.503906 7.351562 10.425781 C 7.230469 10.285156 7.246094 10.074219 7.386719 9.957031 L 8.621094 8.898438 C 8.757812 8.777344 8.96875 8.792969 9.089844 8.933594 C 9.210938 9.070312 9.191406 9.28125 9.054688 9.402344 L 7.820312 10.460938 C 7.757812 10.515625 7.679688 10.542969 7.605469 10.542969 Z M 8.992188 11.167969 C 8.941406 11.167969 8.886719 11.15625 8.839844 11.128906 C 8.675781 11.042969 8.613281 10.84375 8.699219 10.679688 L 9.289062 9.550781 C 9.375 9.386719 9.574219 9.324219 9.738281 9.410156 C 9.902344 9.496094 9.964844 9.695312 9.878906 9.859375 L 9.289062 10.988281 C 9.230469 11.101562 9.113281 11.167969 8.992188 11.167969 Z M 10.429688 11.542969 C 10.414062 11.542969 10.398438 11.542969 10.382812 11.539062 C 10.199219 11.515625 10.074219 11.347656 10.097656 11.164062 L 10.261719 10.023438 C 10.285156 9.839844 10.453125 9.710938 10.636719 9.738281 C 10.820312 9.765625 10.945312 9.933594 10.921875 10.117188 L 10.757812 11.257812 C 10.738281 11.425781 10.59375 11.542969 10.429688 11.542969 Z M 10.429688 11.542969 "/>
<path style=" stroke:none;fill-rule:nonzero;fill:rgb(16.078431%,18.431373%,20%);fill-opacity:1;" d="M 0.554688 13.007812 C 0.882812 13.078125 1.472656 13.28125 2.46875 13.296875 C 3.617188 13.316406 4.628906 13.078125 5.929688 13.078125 C 7.175781 13.078125 8.804688 13.433594 10.230469 13.371094 C 11.683594 13.308594 13.292969 13.097656 13.644531 13.039062 C 14.339844 12.917969 14.660156 12.839844 14.660156 12.839844 C 14.660156 12.839844 14.8125 12.828125 14.878906 13.125 C 14.949219 13.421875 15.007812 13.992188 14.53125 14.136719 C 13.621094 14.410156 11.382812 14.601562 9.226562 14.574219 C 8.132812 14.558594 6.917969 14.234375 6.324219 14.167969 C 5.734375 14.097656 5.214844 14.046875 5.050781 14.167969 C 4.886719 14.285156 5.085938 14.496094 4.65625 14.554688 C 3.582031 14.703125 1.066406 14.574219 0.519531 14.339844 C 0.238281 14.222656 0.0820312 12.902344 0.554688 13.007812 Z M 5.597656 8.585938 C 5.507812 8.585938 5.421875 8.523438 5.398438 8.429688 L 5.144531 7.503906 C 5.113281 7.394531 5.179688 7.277344 5.289062 7.25 C 5.398438 7.21875 5.515625 7.28125 5.546875 7.394531 L 5.800781 8.320312 C 5.828125 8.433594 5.765625 8.546875 5.652344 8.578125 C 5.636719 8.582031 5.617188 8.585938 5.597656 8.585938 Z M 6.226562 9.953125 C 6.140625 9.953125 6.0625 9.902344 6.03125 9.816406 L 5.6875 8.921875 C 5.644531 8.8125 5.699219 8.691406 5.804688 8.652344 C 5.914062 8.609375 6.035156 8.664062 6.074219 8.769531 L 6.421875 9.667969 C 6.460938 9.777344 6.40625 9.898438 6.300781 9.9375 C 6.277344 9.945312 6.25 9.953125 6.226562 9.953125 Z M 7.472656 11.144531 C 7.417969 11.144531 7.367188 11.125 7.324219 11.082031 L 6.640625 10.40625 C 6.5625 10.328125 6.558594 10.195312 6.640625 10.113281 C 6.722656 10.03125 6.855469 10.03125 6.933594 10.109375 L 7.617188 10.785156 C 7.699219 10.867188 7.699219 11 7.621094 11.082031 C 7.578125 11.121094 7.527344 11.144531 7.472656 11.144531 Z M 9.136719 11.792969 C 9.105469 11.792969 9.074219 11.785156 9.042969 11.773438 L 8.1875 11.332031 C 8.085938 11.28125 8.042969 11.15625 8.097656 11.054688 C 8.148438 10.949219 8.277344 10.910156 8.378906 10.960938 L 9.234375 11.402344 C 9.335938 11.453125 9.375 11.578125 9.324219 11.679688 C 9.285156 11.753906 9.214844 11.792969 9.136719 11.792969 Z M 10.800781 12.109375 C 10.789062 12.109375 10.773438 12.109375 10.761719 12.105469 L 9.816406 11.917969 C 9.703125 11.894531 9.632812 11.785156 9.652344 11.671875 C 9.675781 11.5625 9.785156 11.484375 9.898438 11.507812 L 10.839844 11.695312 C 10.953125 11.71875 11.027344 11.828125 11.003906 11.941406 C 10.984375 12.039062 10.898438 12.109375 10.800781 12.109375 Z M 10.800781 12.109375 "/>
</g>
</svg>
