<?xml version="1.0" encoding="UTF-8"?>
<svg xmlns="http://www.w3.org/2000/svg" xmlns:xlink="http://www.w3.org/1999/xlink" width="15pt" height="15pt" viewBox="0 0 15 15" version="1.1">
<g id="surface1">
<path style=" stroke:none;fill-rule:nonzero;fill:rgb(13.72549%,12.156863%,12.54902%);fill-opacity:1;" d="M 0.558594 13.003906 C 0.476562 13.226562 0.558594 13.773438 0.679688 13.996094 C 0.800781 14.21875 1.285156 14.339844 1.832031 14.378906 C 2.378906 14.421875 3.292969 14.378906 3.59375 14.339844 C 3.734375 14.320312 3.980469 14.007812 4.425781 13.976562 C 4.890625 13.941406 6.105469 14.003906 7.140625 14.050781 C 7.890625 14.085938 9.609375 14.390625 10.984375 14.421875 C 11.957031 14.441406 13.414062 14.238281 14.164062 13.976562 C 14.914062 13.710938 15.15625 12.921875 14.648438 12.882812 C 14.144531 12.84375 0.558594 13.003906 0.558594 13.003906 Z M 0.558594 13.003906 "/>
<path style=" stroke:none;fill-rule:nonzero;fill:rgb(24.313725%,44.705882%,11.372549%);fill-opacity:1;" d="M 0.316406 10.027344 C 0.476562 9.460938 0.9375 9.292969 1.382812 9.523438 C 1.824219 9.757812 5.285156 11.207031 7.160156 11.613281 C 9.035156 12.015625 10.078125 11.882812 10.542969 11.613281 C 11.003906 11.339844 11.488281 11.03125 11.777344 11.128906 C 12.066406 11.226562 13.59375 11.746094 14.15625 11.960938 C 14.601562 12.128906 14.929688 12.597656 14.851562 13.003906 C 14.773438 13.410156 14.347656 13.640625 13.460938 13.816406 C 12.265625 14.046875 10.46875 14.125 8.9375 13.910156 C 7.140625 13.660156 4.589844 13.679688 3.253906 13.757812 C 2.308594 13.8125 0.820312 13.796875 0.511719 13.3125 C 0.203125 12.828125 -0.0859375 11.457031 0.316406 10.027344 Z M 0.316406 10.027344 "/>
<path style=" stroke:none;fill-rule:nonzero;fill:rgb(85.098039%,61.960784%,50.980392%);fill-opacity:1;" d="M 1.367188 9.765625 C 1.738281 10.011719 5.515625 11.492188 6.910156 11.902344 C 7.90625 12.195312 9.367188 12.375 10.328125 12.152344 C 11.0625 11.984375 11.429688 11.667969 11.566406 11.496094 C 11.703125 11.320312 11.714844 11.121094 11.355469 11.203125 C 11.3125 11.210938 11.222656 11.234375 11.164062 11.265625 C 10.964844 11.359375 10.75 11.488281 10.542969 11.613281 C 10.078125 11.882812 9.035156 12.019531 7.160156 11.613281 C 5.285156 11.207031 1.824219 9.757812 1.382812 9.523438 C 0.917969 9.371094 1.082031 9.574219 1.367188 9.765625 Z M 1.367188 9.765625 "/>
</g>
</svg>
