<?xml version="1.0" encoding="UTF-8"?>
<svg xmlns="http://www.w3.org/2000/svg" xmlns:xlink="http://www.w3.org/1999/xlink" width="15pt" height="15pt" viewBox="0 0 15 15" version="1.1">
<g id="surface1">
<path style=" stroke:none;fill-rule:nonzero;fill:rgb(40%,45.882353%,49.803922%);fill-opacity:1;" d="M 15 8.75 C 15 10.832031 13.75 12.5 10.417969 13.332031 C 7.472656 14.070312 1.667969 12.945312 1.667969 12.5 C 1.667969 12.03125 2.710938 11.929688 4.503906 12.03125 C 9.0625 12.292969 10.234375 10.425781 9.503906 9.84375 C 8.230469 8.828125 6.824219 10 4.480469 9.792969 C 1.574219 9.535156 0 7.28125 0 6.667969 C 0 5.832031 4.882812 3.332031 8.332031 3.332031 C 11.785156 3.332031 15 5.105469 15 8.75 Z M 15 8.75 "/>
<path style=" stroke:none;fill-rule:nonzero;fill:rgb(16.078431%,18.431373%,20%);fill-opacity:1;" d="M 6.25 5.207031 C 6.25 5.554688 5.96875 5.832031 5.625 5.832031 C 5.28125 5.832031 5 5.554688 5 5.207031 C 5 4.863281 5.28125 5 5.625 5 C 5.96875 5 6.25 4.863281 6.25 5.207031 Z M 6.25 5.207031 "/>
<path style=" stroke:none;fill-rule:nonzero;fill:rgb(40%,45.882353%,49.803922%);fill-opacity:1;" d="M 5.832031 3.75 C 6.667969 1.667969 8.039062 0 9.148438 0 C 10.261719 0 8.75 0.832031 10.832031 4.167969 C 12.917969 7.5 5.832031 3.75 5.832031 3.75 Z M 1.25 12.5 C 1.25 10.832031 0.816406 10 1.3125 10 C 1.804688 10 3.816406 11.679688 3.816406 12.601562 C 3.816406 13.519531 1.804688 15 1.3125 15 C 0.816406 15 1.25 14.167969 1.25 12.5 Z M 1.25 12.5 "/>
<path style=" stroke:none;fill-rule:nonzero;fill:rgb(16.078431%,18.431373%,20%);fill-opacity:1;" d="M 11.21875 9.375 L 14.546875 12.5 C 14.546875 12.5 13.199219 13.265625 11.21875 9.375 Z M 11.21875 9.375 "/>
<path style=" stroke:none;fill-rule:nonzero;fill:rgb(40%,45.882353%,49.803922%);fill-opacity:1;" d="M 11.21875 9.375 L 13.523438 7.777344 C 13.523438 7.777344 15.140625 11.910156 14.546875 12.5 C 13.472656 12.082031 11.21875 9.375 11.21875 9.375 Z M 11.21875 9.375 "/>
<path style=" stroke:none;fill-rule:nonzero;fill:rgb(100%,100%,100%);fill-opacity:1;" d="M 3.75 8.460938 C 3.75 8.667969 3.539062 9.574219 3.332031 9.574219 C 3.128906 9.574219 2.917969 8.667969 2.917969 8.460938 L 2.917969 7.71875 C 2.917969 7.515625 3.128906 8.089844 3.332031 8.089844 C 3.539062 8.089844 3.75 7.515625 3.75 7.71875 Z M 5 8.460938 C 5 8.667969 4.789062 9.574219 4.582031 9.574219 C 4.378906 9.574219 4.167969 8.667969 4.167969 8.460938 L 4.167969 7.71875 C 4.167969 7.515625 4.378906 8.089844 4.582031 8.089844 C 4.789062 8.089844 5 7.515625 5 7.71875 Z M 6.25 8.042969 C 6.25 8.25 6.039062 9.160156 5.832031 9.160156 C 5.628906 9.160156 5.417969 8.25 5.417969 8.042969 L 5.417969 7.304688 C 5.417969 7.097656 5.628906 7.671875 5.832031 7.671875 C 6.039062 7.671875 6.25 7.097656 6.25 7.304688 Z M 7.5 8.042969 C 7.5 8.25 7.289062 9.160156 7.082031 9.160156 C 6.878906 9.160156 6.667969 8.25 6.667969 8.042969 L 6.667969 7.304688 C 6.667969 7.097656 6.878906 7.671875 7.082031 7.671875 C 7.289062 7.671875 7.5 7.097656 7.5 7.304688 Z M 7.5 8.042969 "/>
<path style=" stroke:none;fill-rule:nonzero;fill:rgb(40%,45.882353%,49.803922%);fill-opacity:1;" d="M 2.5 8.332031 L 5.417969 7.917969 L 7.917969 7.917969 L 7.917969 7.082031 L 2.5 7.082031 Z M 2.5 8.332031 "/>
<path style=" stroke:none;fill-rule:nonzero;fill:rgb(16.078431%,18.431373%,20%);fill-opacity:1;" d="M 7.671875 7.984375 C 6.007812 7.117188 2.097656 7.980469 1.457031 8.617188 C 1.652344 8.765625 1.871094 8.910156 2.101562 9.046875 C 4.648438 7.679688 7.96875 8.140625 7.671875 7.984375 Z M 7.671875 7.984375 "/>
</g>
</svg>
