<?xml version="1.0" encoding="UTF-8"?>
<svg xmlns="http://www.w3.org/2000/svg" xmlns:xlink="http://www.w3.org/1999/xlink" width="15pt" height="15pt" viewBox="0 0 15 15" version="1.1">
<g id="surface1">
<path style=" stroke:none;fill-rule:nonzero;fill:rgb(40%,12.941176%,7.45098%);fill-opacity:1;" d="M 3.046875 4.582031 C 0.664062 8.367188 3.449219 12.082031 3.449219 12.082031 C 3.449219 12.082031 4.644531 11.898438 6.3125 9.917969 C 7.980469 7.933594 3.046875 4.582031 3.046875 4.582031 Z M 11.941406 4.582031 C 14.324219 8.367188 11.542969 12.082031 11.542969 12.082031 C 11.542969 12.082031 10.34375 11.898438 8.675781 9.917969 C 7.011719 7.933594 11.941406 4.582031 11.941406 4.582031 Z M 11.941406 4.582031 "/>
<path style=" stroke:none;fill-rule:nonzero;fill:rgb(100%,67.45098%,20%);fill-opacity:1;" d="M 6.335938 13.148438 C 6.285156 13.054688 6.203125 12.988281 6.113281 12.941406 C 5.265625 12.035156 5.867188 10.976562 5.867188 10.976562 C 5.867188 10.683594 6.398438 9.917969 5.867188 9.917969 L 5.339844 10.445312 C 4.808594 10.976562 4.808594 12.566406 4.808594 12.566406 L 3.746094 12.566406 C 3.453125 12.566406 3.21875 12.804688 3.21875 13.097656 C 3.21875 13.390625 3.453125 13.625 3.746094 13.625 L 4.335938 13.625 L 4.21875 13.691406 C 3.960938 13.828125 3.863281 14.152344 4.003906 14.410156 C 4.140625 14.667969 4.464844 14.761719 4.722656 14.625 L 6.121094 13.867188 C 6.378906 13.726562 6.472656 13.40625 6.335938 13.148438 Z M 8.667969 13.148438 C 8.71875 13.054688 8.796875 12.988281 8.886719 12.941406 C 9.734375 12.035156 9.132812 10.976562 9.132812 10.976562 C 9.132812 10.683594 8.601562 9.917969 9.132812 9.917969 L 9.664062 10.445312 C 10.191406 10.976562 10.191406 12.566406 10.191406 12.566406 L 11.253906 12.566406 C 11.546875 12.566406 11.78125 12.804688 11.78125 13.097656 C 11.78125 13.390625 11.546875 13.625 11.253906 13.625 L 10.667969 13.625 L 10.785156 13.691406 C 11.042969 13.828125 11.136719 14.152344 10.996094 14.410156 C 10.859375 14.667969 10.539062 14.761719 10.277344 14.625 L 8.878906 13.867188 C 8.621094 13.726562 8.527344 13.40625 8.667969 13.148438 Z M 8.667969 13.148438 "/>
<path style=" stroke:none;fill-rule:nonzero;fill:rgb(40%,12.941176%,7.45098%);fill-opacity:1;" d="M 11.78125 4.703125 C 12.988281 2.167969 11.78125 0.3125 11.78125 0.3125 C 11.78125 0.3125 9.375 0.710938 8.972656 1.511719 C 8.464844 2.519531 11.78125 4.703125 11.78125 4.703125 Z M 11.78125 4.703125 "/>
<path style=" stroke:none;fill-rule:nonzero;fill:rgb(40%,12.941176%,7.45098%);fill-opacity:1;" d="M 12.316406 5.308594 C 12.316406 9.597656 11.003906 13.890625 7.5 13.890625 C 3.996094 13.890625 2.683594 9.597656 2.683594 5.308594 C 2.683594 1.015625 4.839844 0.867188 7.5 0.867188 C 10.160156 0.867188 12.316406 1.015625 12.316406 5.308594 Z M 12.316406 5.308594 "/>
<path style=" stroke:none;fill-rule:nonzero;fill:rgb(75.686275%,41.176471%,30.980392%);fill-opacity:1;" d="M 11.527344 7.390625 C 11.527344 11.679688 8.289062 13.472656 7.5 13.472656 C 6.710938 13.472656 3.472656 11.679688 3.472656 7.390625 C 3.472656 3.101562 11.527344 3.101562 11.527344 7.390625 Z M 11.527344 7.390625 "/>
<path style=" stroke:none;fill-rule:nonzero;fill:rgb(40%,12.941176%,7.45098%);fill-opacity:1;" d="M 3.21875 4.703125 C 2.011719 2.167969 3.21875 0.3125 3.21875 0.3125 C 3.21875 0.3125 5.625 0.710938 6.027344 1.511719 C 6.535156 2.519531 3.21875 4.703125 3.21875 4.703125 Z M 3.21875 4.703125 "/>
<path style=" stroke:none;fill-rule:nonzero;fill:rgb(75.686275%,41.176471%,30.980392%);fill-opacity:1;" d="M 6.21875 1.820312 C 4.460938 1.160156 3.21875 0.3125 3.21875 0.3125 C 3.21875 0.3125 2.351562 1.65625 2.832031 3.613281 C 3.015625 4.503906 3.640625 5.363281 4.457031 5.558594 C 5.554688 5.820312 7.5 5.535156 7.5 3.90625 C 7.5 2.785156 7.050781 2.132812 6.21875 1.820312 Z M 8.78125 1.820312 C 10.539062 1.160156 11.78125 0.3125 11.78125 0.3125 C 11.78125 0.3125 12.648438 1.65625 12.167969 3.613281 C 11.984375 4.503906 11.359375 5.363281 10.542969 5.558594 C 9.445312 5.820312 7.5 5.535156 7.5 3.90625 C 7.5 2.785156 7.949219 2.132812 8.78125 1.820312 Z M 8.78125 1.820312 "/>
<path style=" stroke:none;fill-rule:nonzero;fill:rgb(100%,85.098039%,51.372549%);fill-opacity:1;" d="M 6.703125 3.507812 C 6.703125 4.390625 5.984375 5.105469 5.105469 5.105469 C 4.222656 5.105469 3.507812 4.390625 3.507812 3.507812 C 3.507812 2.625 4.222656 1.910156 5.105469 1.910156 C 5.984375 1.910156 6.703125 2.625 6.703125 3.507812 Z M 11.492188 3.507812 C 11.492188 4.390625 10.777344 5.105469 9.894531 5.105469 C 9.015625 5.105469 8.296875 4.390625 8.296875 3.507812 C 8.296875 2.625 9.015625 1.910156 9.894531 1.910156 C 10.777344 1.910156 11.492188 2.625 11.492188 3.507812 Z M 11.492188 3.507812 "/>
<path style=" stroke:none;fill-rule:nonzero;fill:rgb(16.078431%,18.431373%,20%);fill-opacity:1;" d="M 5.902344 3.507812 C 5.902344 3.949219 5.546875 4.304688 5.105469 4.304688 C 4.664062 4.304688 4.304688 3.949219 4.304688 3.507812 C 4.304688 3.066406 4.664062 2.707031 5.105469 2.707031 C 5.546875 2.707031 5.902344 3.066406 5.902344 3.507812 Z M 10.695312 3.507812 C 10.695312 3.949219 10.335938 4.304688 9.894531 4.304688 C 9.453125 4.304688 9.097656 3.949219 9.097656 3.507812 C 9.097656 3.066406 9.453125 2.707031 9.894531 2.707031 C 10.335938 2.707031 10.695312 3.066406 10.695312 3.507812 Z M 10.695312 3.507812 "/>
<path style=" stroke:none;fill-rule:nonzero;fill:rgb(100%,80%,30.196078%);fill-opacity:1;" d="M 8.699219 5.304688 C 8.699219 6.296875 7.5 6.703125 7.5 6.703125 C 7.5 6.703125 6.300781 6.296875 6.300781 5.304688 C 6.300781 4.3125 7.5 3.90625 7.5 3.90625 C 7.5 3.90625 8.699219 4.3125 8.699219 5.304688 Z M 8.699219 5.304688 "/>
<path style=" stroke:none;fill-rule:nonzero;fill:rgb(95.686275%,56.470588%,4.705882%);fill-opacity:1;" d="M 8.699219 5.304688 C 8.699219 6.296875 7.5 6.703125 7.5 6.703125 C 7.5 6.703125 6.300781 6.296875 6.300781 5.304688 C 6.800781 5.804688 7.5 5.902344 7.5 5.902344 C 7.5 5.902344 8.199219 5.804688 8.699219 5.304688 Z M 8.699219 5.304688 "/>
</g>
</svg>
