<?xml version="1.0" encoding="UTF-8"?>
<svg xmlns="http://www.w3.org/2000/svg" xmlns:xlink="http://www.w3.org/1999/xlink" width="15pt" height="15pt" viewBox="0 0 15 15" version="1.1">
<g id="surface1">
<path style=" stroke:none;fill-rule:nonzero;fill:rgb(75.686275%,80.392157%,83.529412%);fill-opacity:1;" d="M 15 8.273438 C 13.964844 4.132812 10.417969 0.796875 6.679688 2.847656 C 6.679688 2.847656 4.796875 2.222656 4.523438 2.035156 C 4.257812 1.851562 3.84375 1.660156 4.144531 2.214844 C 4.320312 2.542969 4.507812 2.914062 5.144531 3.597656 C 3.332031 5.398438 3.867188 7.609375 3.226562 9.0625 C 2.683594 10.296875 2.152344 11.035156 2.679688 11.96875 C 3.230469 12.941406 4.652344 13.410156 5.605469 12.410156 C 6.121094 11.867188 5.800781 11.605469 6.910156 10.660156 C 8.042969 10.433594 8.742188 9.914062 8.742188 8.835938 C 8.742188 8.835938 9.070312 8.679688 9.5 11.339844 C 9.691406 12.515625 9.4375 13.6875 9.484375 15 L 15 15 Z M 15 8.273438 "/>
<path style=" stroke:none;fill-rule:nonzero;fill:rgb(37.647059%,21.568627%,60.392157%);fill-opacity:1;" d="M 13.292969 2.527344 C 13.515625 3.074219 13.648438 4.070312 13.542969 4.742188 C 13.480469 3.105469 12.214844 2 11.71875 1.746094 C 10.800781 1.269531 9.898438 1.335938 8.886719 1.421875 C 8.933594 1.492188 9.054688 1.761719 9.019531 2.066406 C 8.820312 1.703125 8.351562 1.476562 8.046875 1.539062 C 7.480469 1.652344 6.980469 1.820312 6.597656 2.019531 C 6.390625 2.0625 6.078125 2.191406 5.609375 2.476562 C 4.816406 2.964844 3.871094 4.285156 2.804688 3.941406 C 3.238281 4.984375 4.316406 4.710938 4.316406 4.710938 C 4.820312 3.898438 6.011719 3.136719 6.886719 2.855469 C 10.0625 2.128906 12.140625 4.289062 13.316406 6.769531 C 13.636719 7.449219 14.402344 9.742188 15 11.058594 L 15 4.566406 C 14.6875 4.132812 14.464844 3.308594 13.292969 2.527344 Z M 13.292969 2.527344 "/>
<path style=" stroke:none;fill-rule:nonzero;fill:rgb(75.686275%,80.392157%,83.529412%);fill-opacity:1;" d="M 5.746094 1.527344 C 5.984375 1.855469 7.09375 1.855469 7.660156 3.117188 C 8.226562 4.378906 6.851562 4.214844 6.351562 3.628906 C 5.796875 2.980469 5.546875 2.4375 5.449219 1.964844 C 5.398438 1.71875 5.261719 0.863281 5.746094 1.527344 Z M 5.746094 1.527344 "/>
<path style=" stroke:none;fill-rule:nonzero;fill:rgb(45.882353%,52.941176%,58.431373%);fill-opacity:1;" d="M 5.921875 2.066406 C 6.320312 2.304688 6.820312 2.699219 6.96875 3.148438 C 7.117188 3.597656 6.675781 3.519531 6.40625 3.132812 C 6.140625 2.742188 6.015625 2.308594 5.871094 2.1875 C 5.726562 2.066406 5.921875 2.066406 5.921875 2.066406 Z M 5.921875 2.066406 "/>
<path style=" stroke:none;fill-rule:nonzero;fill:rgb(16.078431%,18.431373%,20%);fill-opacity:1;" d="M 6.75 6.070312 C 6.75 6.285156 6.574219 6.464844 6.355469 6.464844 C 6.136719 6.464844 5.960938 6.285156 5.960938 6.070312 C 5.960938 5.851562 6.136719 5.675781 6.355469 5.675781 C 6.574219 5.675781 6.75 5.851562 6.75 6.070312 Z M 6.75 6.070312 "/>
<path style=" stroke:none;fill-rule:nonzero;fill:rgb(32.54902%,38.431373%,42.352941%);fill-opacity:1;" d="M 3.597656 11.199219 C 3.644531 11.472656 3.519531 11.726562 3.316406 11.761719 C 3.113281 11.796875 2.90625 11.605469 2.855469 11.332031 C 2.808594 11.058594 2.933594 10.804688 3.136719 10.769531 C 3.339844 10.730469 3.546875 10.921875 3.597656 11.199219 Z M 3.597656 11.199219 "/>
<path style=" stroke:none;fill-rule:nonzero;fill:rgb(93.333333%,48.627451%,5.490196%);fill-opacity:1;" d="M 5.769531 3.386719 L 5.769531 3.382812 L 5.765625 3.382812 L 5.761719 3.375 C 5.757812 3.371094 5.757812 3.367188 5.753906 3.363281 C 5.75 3.363281 5.746094 3.359375 5.738281 3.359375 C 5.257812 2.949219 0.390625 -0.207031 0.0898438 0.0898438 C -0.210938 0.394531 4.351562 4.058594 4.644531 4.285156 L 4.648438 4.285156 L 4.875 4.46875 C 4.878906 4.472656 4.878906 4.476562 4.882812 4.480469 C 4.886719 4.484375 4.894531 4.484375 4.902344 4.488281 L 4.921875 4.503906 L 4.917969 4.496094 C 5.152344 4.648438 5.511719 4.546875 5.742188 4.25 C 5.972656 3.953125 5.980469 3.574219 5.769531 3.386719 Z M 5.769531 3.386719 "/>
<path style=" stroke:none;fill-rule:nonzero;fill:rgb(76.862745%,20.784314%,7.058824%);fill-opacity:1;" d="M 1.949219 0.9375 L 1.953125 0.925781 C 1.828125 0.855469 1.703125 0.785156 1.585938 0.71875 C 1.578125 0.734375 1.578125 0.746094 1.570312 0.765625 C 1.523438 0.867188 1.464844 0.964844 1.390625 1.0625 C 1.320312 1.15625 1.246094 1.238281 1.164062 1.3125 C 1.15625 1.316406 1.152344 1.320312 1.140625 1.328125 C 1.242188 1.421875 1.347656 1.515625 1.453125 1.609375 C 1.550781 1.523438 1.640625 1.421875 1.726562 1.3125 C 1.8125 1.191406 1.890625 1.066406 1.949219 0.9375 Z M 2.898438 2.164062 C 3.023438 1.992188 3.113281 1.820312 3.171875 1.660156 C 3.050781 1.585938 2.929688 1.507812 2.808594 1.433594 C 2.773438 1.558594 2.703125 1.726562 2.5625 1.914062 C 2.433594 2.089844 2.308594 2.199219 2.203125 2.265625 C 2.308594 2.359375 2.417969 2.453125 2.527344 2.542969 C 2.65625 2.441406 2.785156 2.316406 2.898438 2.164062 Z M 4.113281 3.050781 C 4.265625 2.847656 4.367188 2.640625 4.417969 2.453125 L 4.039062 2.207031 C 4.03125 2.332031 3.96875 2.542969 3.777344 2.800781 C 3.605469 3.03125 3.4375 3.152344 3.320312 3.207031 L 3.660156 3.488281 C 3.816406 3.382812 3.976562 3.234375 4.113281 3.050781 Z M 4.113281 3.050781 "/>
</g>
</svg>
