<?xml version="1.0" encoding="UTF-8"?>
<svg xmlns="http://www.w3.org/2000/svg" xmlns:xlink="http://www.w3.org/1999/xlink" width="15pt" height="15pt" viewBox="0 0 15 15" version="1.1">
<g id="surface1">
<path style=" stroke:none;fill-rule:nonzero;fill:rgb(16.078431%,18.431373%,20%);fill-opacity:1;" d="M 2.933594 10.832031 C 3.070312 10.832031 3.207031 10.882812 3.335938 10.972656 C 3.90625 7.59375 11.820312 7.535156 12.398438 10.851562 C 13.09375 11.023438 13.683594 12.675781 13.960938 15 L 1.046875 15 C 1.375 12.542969 2.097656 10.832031 2.933594 10.832031 Z M 2.933594 10.832031 "/>
<path style=" stroke:none;fill-rule:nonzero;fill:rgb(88.235294%,90.980392%,92.941176%);fill-opacity:1;" d="M 2.933594 9.871094 C 4.570312 5.222656 2.710938 1.25 7.296875 1.25 C 11.878906 1.25 10.933594 4.65625 12.792969 9.21875 C 13.257812 10.363281 12.191406 11.679688 12.191406 11.679688 C 12.191406 11.679688 11.101562 9.699219 10.210938 9.246094 C 9.964844 10.609375 9.484375 12.136719 9.484375 12.136719 C 9.484375 12.136719 8.40625 10.898438 7.15625 9.808594 C 6.789062 10.226562 6.292969 10.71875 5.628906 11.25 C 5.484375 10.8125 5.234375 10.277344 4.976562 9.761719 C 4.363281 10.691406 3.648438 11.824219 3.648438 11.824219 C 3.648438 11.824219 2.605469 10.808594 2.933594 9.871094 Z M 2.933594 9.871094 "/>
<path style=" stroke:none;fill-rule:nonzero;fill:rgb(100%,80%,30.196078%);fill-opacity:1;" d="M 4.792969 2.082031 C 2.976562 3.359375 2.484375 2.984375 1.539062 3.566406 C 0.652344 4.113281 0.707031 5.625 1.488281 6.925781 C 1.730469 5.816406 1.277344 5.613281 4.378906 5.613281 C 6.460938 5.613281 7.683594 5.734375 7.296875 5.199219 C 6.910156 4.660156 3.117188 5.390625 4.792969 2.082031 Z M 4.792969 2.082031 "/>
<path style=" stroke:none;fill-rule:nonzero;fill:rgb(16.078431%,18.431373%,20%);fill-opacity:1;" d="M 6.890625 3.132812 C 6.890625 3.472656 6.613281 3.75 6.273438 3.75 C 5.929688 3.75 5.652344 3.472656 5.652344 3.132812 C 5.652344 3.066406 5.667969 3.003906 5.683594 2.945312 L 6.859375 2.945312 C 6.875 3.003906 6.890625 3.066406 6.890625 3.132812 Z M 6.890625 3.132812 "/>
</g>
</svg>
