<?xml version="1.0" encoding="UTF-8"?>
<svg xmlns="http://www.w3.org/2000/svg" xmlns:xlink="http://www.w3.org/1999/xlink" width="15pt" height="15pt" viewBox="0 0 15 15" version="1.1">
<g id="surface1">
<path style=" stroke:none;fill-rule:nonzero;fill:rgb(95.686275%,56.470588%,4.705882%);fill-opacity:1;" d="M 5.597656 4.085938 C 5.871094 5.183594 5.667969 6.117188 4.570312 6.390625 C 3.46875 6.664062 1.984375 8.453125 0.910156 5.792969 C 0.289062 4.25 -0.253906 1.015625 0.363281 0.859375 C 0.980469 0.707031 5.324219 2.984375 5.597656 4.085938 Z M 5.597656 4.085938 "/>
<path style=" stroke:none;fill-rule:nonzero;fill:rgb(62.745098%,1.568627%,11.764706%);fill-opacity:1;" d="M 4.765625 4.316406 C 5.164062 4.957031 4.003906 6.214844 3.363281 6.617188 C 2.722656 7.015625 2.152344 6.386719 1.523438 4.777344 C 1.246094 4.074219 0.828125 2.164062 1.0625 2.015625 C 1.296875 1.871094 4.363281 3.671875 4.765625 4.316406 Z M 4.765625 4.316406 "/>
<path style=" stroke:none;fill-rule:nonzero;fill:rgb(95.686275%,56.470588%,4.705882%);fill-opacity:1;" d="M 9.398438 4.085938 C 9.125 5.183594 9.324219 6.117188 10.425781 6.390625 C 11.523438 6.664062 13.011719 8.453125 14.085938 5.792969 C 14.703125 4.25 15.246094 1.015625 14.628906 0.859375 C 14.015625 0.707031 9.671875 2.984375 9.398438 4.085938 Z M 9.398438 4.085938 "/>
<path style=" stroke:none;fill-rule:nonzero;fill:rgb(62.745098%,1.568627%,11.764706%);fill-opacity:1;" d="M 10.230469 4.316406 C 9.828125 4.957031 10.992188 6.214844 11.632812 6.617188 C 12.273438 7.015625 12.839844 6.386719 13.472656 4.777344 C 13.746094 4.074219 14.167969 2.164062 13.933594 2.015625 C 13.699219 1.871094 10.628906 3.671875 10.230469 4.316406 Z M 10.230469 4.316406 "/>
<path style=" stroke:none;fill-rule:nonzero;fill:rgb(95.686275%,56.470588%,4.705882%);fill-opacity:1;" d="M 7.5 3.855469 C 4.742188 2.9375 2.722656 4.679688 1.0625 7.996094 L 1.984375 7.996094 C 1.984375 7.996094 1.0625 8.914062 0.601562 10.292969 C 1.523438 9.832031 1.984375 9.832031 1.984375 9.832031 C 1.984375 9.832031 1.523438 10.753906 1.523438 11.214844 C 2.902344 10.292969 4.28125 10.292969 5.203125 11.671875 C 6.121094 13.054688 7.5 11.671875 7.5 9.835938 Z M 7.5 3.855469 "/>
<path style=" stroke:none;fill-rule:nonzero;fill:rgb(95.686275%,56.470588%,4.705882%);fill-opacity:1;" d="M 7.5 3.855469 C 10.257812 2.9375 12.28125 4.679688 13.9375 7.996094 L 13.019531 7.996094 C 13.019531 7.996094 13.9375 8.914062 14.398438 10.292969 C 13.476562 9.832031 13.019531 9.832031 13.019531 9.832031 C 13.019531 9.832031 13.476562 10.753906 13.476562 11.214844 C 12.097656 10.292969 10.71875 10.292969 9.800781 11.671875 C 8.878906 13.050781 7.5 11.671875 7.5 9.832031 Z M 7.5 3.855469 "/>
<path style=" stroke:none;fill-rule:nonzero;fill:rgb(95.686275%,56.470588%,4.705882%);fill-opacity:1;" d="M 7.5 3.453125 C 2.777344 3.453125 3.496094 5.273438 4.003906 8.300781 C 4.507812 11.328125 5.109375 13.476562 7.5 13.476562 C 9.890625 13.476562 10.488281 11.328125 10.996094 8.300781 C 11.503906 5.273438 12.222656 3.453125 7.5 3.453125 Z M 7.5 3.453125 "/>
<path style=" stroke:none;fill-rule:nonzero;fill:rgb(94.509804%,56.078431%,14.901961%);fill-opacity:1;" d="M 14.460938 10.851562 C 14.425781 8.472656 10.585938 9.289062 10.257812 9.613281 C 9.800781 10.0625 9.796875 12.824219 7.5 12.824219 C 5.203125 12.824219 4.742188 10.0625 4.28125 9.613281 C 3.953125 9.289062 0.433594 9.027344 0.519531 10.851562 C 1.441406 10.390625 1.984375 10.523438 1.984375 10.523438 C 1.984375 10.523438 1.390625 10.867188 1.476562 11.683594 C 2.8125 11.078125 3.4375 11.164062 4.167969 11.527344 C 4.671875 13.039062 5.917969 14.167969 7.5 14.167969 C 9.082031 14.167969 10.3125 13.003906 10.816406 11.492188 C 11.421875 10.972656 12.359375 11.128906 13.488281 11.667969 C 13.609375 10.902344 13.019531 10.523438 13.019531 10.523438 C 13.019531 10.523438 13.542969 10.390625 14.460938 10.851562 Z M 14.460938 10.851562 "/>
<path style=" stroke:none;fill-rule:nonzero;fill:rgb(100%,85.098039%,51.372549%);fill-opacity:1;" d="M 14.398438 10.292969 C 14.019531 9.160156 10.585938 8.601562 10.257812 8.921875 C 9.800781 9.375 9.796875 12.132812 7.5 12.132812 C 5.203125 12.132812 4.742188 9.375 4.28125 8.921875 C 3.953125 8.601562 0.980469 9.160156 0.601562 10.292969 C 1.523438 9.832031 1.984375 9.832031 1.984375 9.832031 C 1.984375 9.832031 1.523438 10.753906 1.523438 11.214844 C 2.636719 10.472656 3.746094 10.328125 4.617188 11.023438 C 5.125 12.535156 5.917969 13.476562 7.5 13.476562 C 9.082031 13.476562 9.875 12.535156 10.378906 11.027344 C 11.253906 10.328125 12.363281 10.472656 13.476562 11.214844 C 13.476562 10.753906 13.019531 9.832031 13.019531 9.832031 C 13.019531 9.832031 13.476562 9.832031 14.398438 10.292969 Z M 14.398438 10.292969 "/>
<path style=" stroke:none;fill-rule:nonzero;fill:rgb(15.294118%,16.862745%,16.862745%);fill-opacity:1;" d="M 4.582031 7.082031 C 4.582031 7.082031 4.582031 6.457031 5.207031 6.457031 C 5.832031 6.457031 5.832031 7.082031 5.832031 7.082031 L 5.832031 7.707031 C 5.832031 7.707031 5.832031 8.332031 5.207031 8.332031 C 4.582031 8.332031 4.582031 7.707031 4.582031 7.707031 Z M 9.167969 7.082031 C 9.167969 7.082031 9.167969 6.457031 9.792969 6.457031 C 10.417969 6.457031 10.417969 7.082031 10.417969 7.082031 L 10.417969 7.707031 C 10.417969 7.707031 10.417969 8.332031 9.792969 8.332031 C 9.167969 8.332031 9.167969 7.707031 9.167969 7.707031 Z M 6.222656 11.585938 C 5.800781 11.671875 7.074219 13.238281 7.5 13.238281 C 7.925781 13.238281 9.203125 11.671875 8.777344 11.585938 C 8.351562 11.5 6.648438 11.5 6.222656 11.585938 Z M 6.222656 11.585938 "/>
</g>
</svg>
