<?xml version="1.0" encoding="UTF-8"?>
<svg xmlns="http://www.w3.org/2000/svg" xmlns:xlink="http://www.w3.org/1999/xlink" width="15pt" height="15pt" viewBox="0 0 15 15" version="1.1">
<g id="surface1">
<path style=" stroke:none;fill-rule:nonzero;fill:rgb(19.215686%,21.568627%,23.921569%);fill-opacity:1;" d="M 2.082031 6.667969 C 2.082031 5 0 5.417969 0.417969 7.082031 C 0.832031 8.75 1.667969 9.167969 1.667969 9.167969 Z M 12.917969 6.667969 C 12.917969 5 15 5.417969 14.582031 7.082031 C 14.167969 8.75 13.332031 9.167969 13.332031 9.167969 Z M 12.917969 6.667969 "/>
<path style=" stroke:none;fill-rule:nonzero;fill:rgb(19.215686%,21.568627%,23.921569%);fill-opacity:1;" d="M 13.605469 9.058594 C 13.605469 13.59375 11.648438 14.925781 7.5 14.925781 C 3.351562 14.925781 1.394531 13.59375 1.394531 9.058594 C 1.394531 4.519531 3.351562 0.132812 7.5 0.132812 C 11.648438 0.132812 13.605469 4.519531 13.605469 9.058594 Z M 13.605469 9.058594 "/>
<path style=" stroke:none;fill-rule:nonzero;fill:rgb(40%,45.882353%,49.803922%);fill-opacity:1;" d="M 11.484375 9.582031 C 12.105469 7.726562 12.355469 6.535156 11.300781 6.535156 L 3.699219 6.535156 C 2.644531 6.535156 2.894531 7.726562 3.511719 9.582031 C 1.460938 14.25 7.152344 14.507812 7.5 14.507812 C 7.847656 14.507812 13.460938 14.066406 11.484375 9.582031 Z M 11.484375 9.582031 "/>
<path style=" stroke:none;fill-rule:nonzero;fill:rgb(19.215686%,21.568627%,23.921569%);fill-opacity:1;" d="M 6.25 7.5 C 6.25 7.960938 5.875 8.335938 5.417969 8.335938 C 4.957031 8.335938 4.582031 7.960938 4.582031 7.5 C 4.582031 7.042969 4.957031 7.085938 5.417969 7.085938 C 5.875 7.085938 6.25 7.039062 6.25 7.5 Z M 10.417969 7.5 C 10.417969 7.960938 10.042969 8.335938 9.582031 8.335938 C 9.125 8.335938 8.75 7.960938 8.75 7.5 C 8.75 7.042969 9.125 7.085938 9.582031 7.085938 C 10.042969 7.085938 10.417969 7.039062 10.417969 7.5 Z M 10.417969 7.5 "/>
<path style=" stroke:none;fill-rule:nonzero;fill:rgb(19.215686%,21.568627%,23.921569%);fill-opacity:1;" d="M 7.082031 9.855469 C 7.082031 9.625 6.816406 9.441406 6.488281 9.441406 C 6.160156 9.441406 5.894531 9.625 5.894531 9.855469 C 5.894531 10.085938 6.160156 10.273438 6.488281 10.273438 C 6.816406 10.273438 7.082031 10.085938 7.082031 9.855469 Z M 7.082031 9.855469 "/>
<path style=" stroke:none;fill-rule:nonzero;fill:rgb(19.215686%,21.568627%,23.921569%);fill-opacity:1;" d="M 9.105469 9.855469 C 9.105469 10.085938 8.839844 10.273438 8.511719 10.273438 C 8.183594 10.273438 7.917969 10.085938 7.917969 9.855469 C 7.917969 9.625 8.183594 9.441406 8.511719 9.441406 C 8.839844 9.441406 9.105469 9.625 9.105469 9.855469 Z M 9.105469 9.855469 "/>
<path style=" stroke:none;fill-rule:nonzero;fill:rgb(60%,66.666667%,70.980392%);fill-opacity:1;" d="M 8.757812 8.765625 C 7.941406 8.660156 7.5 9.113281 7.5 9.113281 C 7.5 9.113281 7.058594 8.660156 6.242188 8.765625 C 4.925781 8.941406 4.871094 10.136719 5.433594 10.058594 C 5.753906 10.015625 5.488281 9.667969 6.148438 9.410156 C 6.804688 9.15625 7.5 9.6875 7.5 9.6875 C 7.5 9.6875 8.195312 9.15625 8.851562 9.414062 C 9.511719 9.667969 9.246094 10.015625 9.566406 10.0625 C 10.128906 10.136719 10.074219 8.941406 8.757812 8.765625 Z M 8.757812 8.765625 "/>
<path style=" stroke:none;fill-rule:nonzero;fill:rgb(19.215686%,21.568627%,23.921569%);fill-opacity:1;" d="M 10.347656 12.507812 C 9.84375 12.644531 9.011719 12.757812 7.5 12.757812 C 5.988281 12.757812 5.15625 12.644531 4.652344 12.507812 C 3.316406 12.152344 3.851562 11.785156 4.652344 11.894531 C 5.453125 12 6.164062 12.066406 7.5 12.066406 C 8.835938 12.066406 9.546875 12 10.347656 11.894531 C 11.148438 11.785156 11.683594 12.152344 10.347656 12.507812 Z M 10.347656 12.507812 "/>
<path style=" stroke:none;fill-rule:nonzero;fill:rgb(40%,45.882353%,49.803922%);fill-opacity:1;" d="M 1.773438 6.925781 C 2.355469 6.417969 1.324219 5.359375 0.855469 5.867188 C 0.714844 6.023438 1.242188 5.789062 1.414062 6.320312 C 1.542969 6.710938 1.414062 7.238281 1.773438 6.925781 Z M 13.226562 6.925781 C 12.644531 6.417969 13.675781 5.359375 14.140625 5.867188 C 14.285156 6.023438 13.757812 5.789062 13.585938 6.320312 C 13.457031 6.710938 13.585938 7.238281 13.226562 6.925781 Z M 13.226562 6.925781 "/>
</g>
</svg>
