<?xml version="1.0" encoding="UTF-8"?>
<svg xmlns="http://www.w3.org/2000/svg" xmlns:xlink="http://www.w3.org/1999/xlink" width="15pt" height="15pt" viewBox="0 0 15 15" version="1.1">
<g id="surface1">
<path style=" stroke:none;fill-rule:nonzero;fill:rgb(100%,67.45098%,20%);fill-opacity:1;" d="M 9.535156 13.789062 C 9.492188 13.714844 9.429688 13.664062 9.359375 13.628906 C 8.695312 12.917969 9.167969 12.082031 9.167969 12.082031 C 9.167969 11.851562 9.582031 11.25 9.167969 11.25 L 8.75 11.667969 C 8.332031 12.082031 8.332031 13.332031 8.332031 13.332031 L 7.5 13.332031 C 7.269531 13.332031 7.082031 13.519531 7.082031 13.75 C 7.082031 13.980469 7.269531 14.167969 7.5 14.167969 L 7.960938 14.167969 L 7.867188 14.214844 C 7.667969 14.324219 7.589844 14.578125 7.699219 14.78125 C 7.808594 14.984375 8.0625 15.058594 8.265625 14.949219 L 9.363281 14.355469 C 9.566406 14.246094 9.644531 13.992188 9.535156 13.789062 Z M 6.617188 13.789062 C 6.578125 13.714844 6.511719 13.664062 6.441406 13.628906 C 5.777344 12.917969 6.25 12.082031 6.25 12.082031 C 6.25 11.851562 6.667969 11.25 6.25 11.25 L 5.832031 11.667969 C 5.417969 12.082031 5.417969 13.332031 5.417969 13.332031 L 4.582031 13.332031 C 4.351562 13.332031 4.167969 13.519531 4.167969 13.75 C 4.167969 13.980469 4.351562 14.167969 4.582031 14.167969 L 5.046875 14.167969 L 4.953125 14.214844 C 4.75 14.324219 4.675781 14.578125 4.785156 14.78125 C 4.894531 14.984375 5.144531 15.058594 5.347656 14.949219 L 6.449219 14.355469 C 6.652344 14.246094 6.726562 13.992188 6.617188 13.789062 Z M 6.617188 13.789062 "/>
<path style=" stroke:none;fill-rule:nonzero;fill:rgb(74.509804%,9.803922%,19.215686%);fill-opacity:1;" d="M 2.140625 2.917969 C 2.972656 5 0.890625 5 1.304688 5.832031 C 1.722656 6.667969 3.390625 5 2.554688 2.917969 C 1.722656 0.832031 2.140625 2.917969 2.140625 2.917969 Z M 2.140625 2.917969 "/>
<path style=" stroke:none;fill-rule:nonzero;fill:rgb(100%,67.45098%,20%);fill-opacity:1;" d="M 2.917969 2.5 C 2.917969 2.960938 3.722656 3.332031 2.917969 3.332031 C 2.109375 3.332031 0 2.917969 0 2.5 C 0 2.082031 0.445312 1.25 1.25 1.25 C 2.054688 1.25 2.917969 2.039062 2.917969 2.5 Z M 2.917969 2.5 "/>
<path style=" stroke:none;fill-rule:nonzero;fill:rgb(75.686275%,41.176471%,30.980392%);fill-opacity:1;" d="M 2.5 8.75 C 2.5 6.25 3.835938 3.332031 2.917969 3.332031 C 1.25 3.332031 1.25 2.585938 1.25 1.667969 C 1.25 0.746094 1.996094 0 2.917969 0 C 5.832031 0 5.417969 3.75 4.582031 5.417969 C 3.886719 6.8125 3.742188 8.75 2.5 8.75 Z M 2.5 8.75 "/>
<path style=" stroke:none;fill-rule:nonzero;fill:rgb(19.215686%,21.568627%,23.921569%);fill-opacity:1;" d="M 15 7.082031 C 15 10.398438 12.917969 11.792969 10.832031 11.769531 C 9.984375 12.519531 8.78125 12.917969 7.5 12.917969 C 4.738281 12.917969 2.5 10.902344 2.5 8.417969 C 2.5 5.929688 4.738281 3.917969 7.5 3.917969 C 8.75 2.792969 10.417969 1.207031 11.667969 0.832031 C 14.167969 2.332031 15 4.082031 15 7.082031 Z M 15 7.082031 "/>
<path style=" stroke:none;fill-rule:nonzero;fill:rgb(16.078431%,18.431373%,20%);fill-opacity:1;" d="M 2.917969 1.25 C 2.917969 1.480469 2.730469 1.667969 2.5 1.667969 C 2.269531 1.667969 2.082031 1.480469 2.082031 1.25 C 2.082031 1.019531 2.269531 0.832031 2.5 0.832031 C 2.730469 0.832031 2.917969 1.019531 2.917969 1.25 Z M 2.917969 1.25 "/>
<path style=" stroke:none;fill-rule:nonzero;fill:rgb(40%,45.882353%,49.803922%);fill-opacity:1;" d="M 7.492188 3.917969 C 6.816406 3.917969 6.171875 4.039062 5.582031 4.261719 C 7.214844 4.167969 8.230469 4.246094 9.582031 4.910156 C 9.199219 4.277344 8.171875 3.917969 7.492188 3.917969 Z M 14.96875 6.179688 C 14.933594 5.648438 14.863281 5.15625 14.753906 4.703125 C 12.148438 5.234375 13.335938 6.179688 14.96875 6.179688 Z M 14.140625 3.171875 C 13.859375 2.691406 13.5 2.253906 13.050781 1.84375 C 10.066406 3.332031 11.796875 3.816406 14.140625 3.171875 Z M 14.648438 9.203125 C 13.230469 8.75 12.878906 9.542969 13.722656 10.625 C 12.683594 9.648438 12.042969 10.183594 12.332031 11.457031 C 11.71875 10.546875 11.09375 11.371094 10.832031 11.769531 C 12.402344 11.785156 13.964844 11.003906 14.648438 9.203125 Z M 13.046875 1.84375 C 12.65625 1.488281 12.203125 1.15625 11.667969 0.832031 C 8.75 2.371094 10.832031 2.667969 13.046875 1.84375 Z M 14.648438 9.203125 C 14.871094 8.609375 15 7.90625 15 7.082031 C 15 6.769531 14.988281 6.46875 14.96875 6.183594 C 13.046875 6.339844 13.386719 7.382812 14.972656 7.578125 C 13.488281 7.605469 13.230469 8.515625 14.648438 9.203125 Z M 14.144531 3.171875 C 11.464844 4.167969 12.605469 4.960938 14.753906 4.703125 C 14.617188 4.144531 14.414062 3.636719 14.144531 3.171875 Z M 14.144531 3.171875 "/>
</g>
</svg>
