<?xml version="1.0" encoding="UTF-8"?>
<svg xmlns="http://www.w3.org/2000/svg" xmlns:xlink="http://www.w3.org/1999/xlink" width="15pt" height="15pt" viewBox="0 0 15 15" version="1.1">
<g id="surface1">
<path style=" stroke:none;fill-rule:nonzero;fill:rgb(34.509804%,20.784314%,16.078431%);fill-opacity:1;" d="M 7.800781 11 C 7.605469 12.027344 8.519531 13.160156 8.519531 13.160156 C 8.519531 13.160156 8.34375 11.820312 8.855469 11.140625 C 9.207031 10.671875 8.957031 10.152344 8.667969 10.113281 C 8.375 10.074219 7.910156 10.425781 7.800781 11 Z M 7.800781 11 "/>
<path style=" stroke:none;fill-rule:nonzero;fill:rgb(34.509804%,20.784314%,16.078431%);fill-opacity:1;" d="M 6.511719 11.035156 C 5.460938 11.816406 4.453125 11.351562 3.949219 10.582031 C 3.449219 9.816406 2.917969 10.253906 3.417969 11.085938 C 3.917969 11.914062 5.425781 13.148438 7.238281 11.746094 C 8.613281 10.679688 6.839844 10.789062 6.511719 11.035156 Z M 6.511719 11.035156 "/>
<path style=" stroke:none;fill-rule:nonzero;fill:rgb(48.627451%,32.54902%,24.313725%);fill-opacity:1;" d="M 4.015625 10.878906 C 3.363281 11.804688 1.632812 11.582031 0.964844 10.039062 C 0.320312 8.546875 0.820312 7.191406 1.15625 6.769531 C 1.296875 6.597656 0.945312 8.773438 2.089844 9.375 C 2.59375 9.636719 1.070312 7.957031 1.800781 6.402344 C 2.019531 5.933594 1.78125 7.980469 3.160156 8.566406 C 3.761719 8.824219 4.976562 9.515625 4.015625 10.878906 Z M 5.128906 9.097656 C 5.378906 8.785156 5.816406 8.449219 8.671875 8.449219 C 10.808594 8.449219 11.414062 7.441406 12.125 7.191406 C 14.558594 6.332031 13.691406 12.089844 9.636719 12.089844 C 5.582031 12.089844 4.796875 9.519531 5.128906 9.097656 Z M 5.128906 9.097656 "/>
<path style=" stroke:none;fill-rule:nonzero;fill:rgb(48.627451%,32.54902%,24.313725%);fill-opacity:1;" d="M 9.65625 8.367188 C 12.316406 7.921875 13 4.757812 12.117188 3.125 C 11.289062 1.59375 9.210938 0.875 7.472656 2.308594 C 7.535156 2.738281 7.679688 4.652344 6.078125 4.886719 C 6.589844 3.839844 5.019531 3.0625 5.496094 1.703125 C 5.976562 0.347656 7.273438 0.671875 7.382812 1.027344 C 8.699219 -0.0351562 10.398438 -0.136719 11.0625 0.519531 C 13.039062 0.539062 14.277344 1.867188 14.277344 2.847656 C 15.417969 3.984375 14.847656 6.792969 14.371094 7.105469 C 14.582031 8.785156 14.09375 10.335938 12.238281 10.871094 C 11.917969 10.964844 7.273438 8.765625 9.65625 8.367188 Z M 9.65625 8.367188 "/>
<path style=" stroke:none;fill-rule:nonzero;fill:rgb(68.627451%,49.411765%,34.117647%);fill-opacity:1;" d="M 7.503906 10.644531 C 7.0625 11.363281 6.277344 11.648438 5.515625 11.5625 C 4.484375 11.441406 4.480469 12.222656 5.566406 12.390625 C 6.191406 12.488281 7.175781 12.394531 7.914062 11.796875 C 8.847656 11.035156 7.757812 10.226562 7.503906 10.644531 Z M 7.503906 10.644531 "/>
<path style=" stroke:none;fill-rule:nonzero;fill:rgb(68.627451%,49.411765%,34.117647%);fill-opacity:1;" d="M 5.820312 11.71875 C 6.152344 12.960938 4.703125 14.304688 2.875 13.765625 C 1.105469 13.242188 0.289062 11.816406 0.167969 11.21875 C 0.121094 10.976562 1.757812 12.863281 3.113281 12.300781 C 3.703125 12.054688 1.140625 12.160156 0.316406 10.394531 C 0.0664062 9.863281 1.671875 11.558594 3.1875 10.785156 C 3.847656 10.445312 5.332031 9.894531 5.820312 11.71875 Z M 5.820312 11.71875 "/>
<path style=" stroke:none;fill-rule:nonzero;fill:rgb(16.078431%,18.431373%,20%);fill-opacity:1;" d="M 7.109375 9.46875 C 7.109375 9.761719 6.871094 10 6.578125 10 C 6.285156 10 6.046875 9.761719 6.046875 9.46875 C 6.046875 9.175781 6.285156 8.9375 6.578125 8.9375 C 6.871094 8.9375 7.109375 9.175781 7.109375 9.46875 Z M 7.109375 9.46875 "/>
<path style=" stroke:none;fill-rule:nonzero;fill:rgb(68.627451%,49.411765%,34.117647%);fill-opacity:1;" d="M 12.808594 10.65625 C 13.402344 11.511719 13.03125 12.917969 13.03125 12.917969 C 13.03125 12.917969 12.648438 11.625 11.902344 11.210938 C 11.390625 10.925781 11.40625 10.351562 11.65625 10.195312 C 11.90625 10.042969 12.472656 10.171875 12.808594 10.65625 Z M 11.621094 11.3125 C 12.085938 12.246094 11.511719 13.585938 11.511719 13.585938 C 11.511719 13.585938 11.320312 12.25 10.644531 11.734375 C 10.179688 11.375 10.28125 10.808594 10.550781 10.691406 C 10.820312 10.578125 11.363281 10.789062 11.621094 11.3125 Z M 10.253906 11.765625 C 10.449219 12.789062 9.535156 13.921875 9.535156 13.921875 C 9.535156 13.921875 9.714844 12.585938 9.199219 11.90625 C 8.847656 11.4375 9.097656 10.917969 9.386719 10.878906 C 9.679688 10.839844 10.144531 11.1875 10.253906 11.765625 Z M 10.253906 11.765625 "/>
<path style=" stroke:none;fill-rule:nonzero;fill:rgb(34.509804%,20.784314%,16.078431%);fill-opacity:1;" d="M 12.292969 5.96875 C 12.195312 5.964844 11.8125 6.667969 11.839844 6.8125 C 11.933594 7.285156 13.863281 7.34375 14.371094 7.105469 C 14.746094 6.925781 14.945312 6.042969 14.894531 5.632812 C 14.050781 6.050781 12.503906 5.980469 12.292969 5.96875 Z M 13.777344 1.683594 C 13.691406 2.117188 12.558594 2.878906 12.050781 2.992188 C 11.972656 3.007812 12.214844 3.613281 12.347656 3.691406 C 12.480469 3.773438 14.203125 3.265625 14.277344 2.847656 C 14.316406 2.609375 14.179688 1.914062 13.777344 1.683594 Z M 11.0625 0.519531 C 11.0625 0.425781 10.734375 0.0976562 10.1875 0.132812 C 10.363281 0.75 10.019531 1.339844 9.847656 1.554688 C 9.792969 1.625 10.453125 1.765625 10.550781 1.734375 C 10.730469 1.675781 11.0625 1 11.0625 0.519531 Z M 11.0625 0.519531 "/>
<path style=" stroke:none;fill-rule:nonzero;fill:rgb(16.078431%,18.431373%,20%);fill-opacity:1;" d="M 7.457031 1.023438 C 7.230469 0.566406 6.449219 0.425781 5.875 1 C 5.304688 1.570312 5.191406 2.316406 5.546875 3.0625 C 5.902344 3.8125 6.320312 4.289062 5.988281 4.9375 C 6.839844 4.828125 7.355469 4.023438 7.5 3.621094 C 7.761719 2.890625 7.8125 1.746094 7.457031 1.023438 Z M 7.457031 1.023438 "/>
</g>
</svg>
