<?xml version="1.0" encoding="UTF-8"?>
<svg xmlns="http://www.w3.org/2000/svg" xmlns:xlink="http://www.w3.org/1999/xlink" width="15pt" height="15pt" viewBox="0 0 15 15" version="1.1">
<g id="surface1">
<path style=" stroke:none;fill-rule:nonzero;fill:rgb(40%,45.882353%,49.803922%);fill-opacity:1;" d="M 11.371094 3.136719 C 10.894531 1.863281 10.269531 0.300781 7.914062 0.253906 C 7.183594 0.238281 7.28125 0.480469 7.769531 0.679688 C 8.707031 1.0625 6.738281 2.945312 9.753906 3.761719 C 12.105469 4.402344 11.851562 4.410156 11.371094 3.136719 Z M 11.371094 3.136719 "/>
<path style=" stroke:none;fill-rule:nonzero;fill:rgb(60%,66.666667%,70.980392%);fill-opacity:1;" d="M 15 1.625 C 11.777344 1.625 8.996094 2.671875 7.457031 4.023438 C 5.425781 5.808594 5.214844 8.320312 1.609375 10.550781 C 0.425781 11.285156 1.433594 13.683594 2.089844 14.558594 C 2.886719 15.617188 14.015625 14.65625 15.003906 10.902344 Z M 15 1.625 "/>
<path style=" stroke:none;fill-rule:nonzero;fill:rgb(40%,45.882353%,49.803922%);fill-opacity:1;" d="M 3.613281 12.355469 C 4.035156 12.566406 4.359375 12.792969 4.164062 13.183594 C 3.96875 13.574219 3.675781 13.285156 3.253906 13.074219 C 2.832031 12.863281 2.300781 13.066406 2.496094 12.679688 C 2.691406 12.289062 3.195312 12.144531 3.613281 12.355469 Z M 14.25 2.636719 C 14.351562 1.566406 13.34375 0.554688 11.773438 0.175781 C 11.070312 0.00390625 10.40625 0.0273438 10.792969 0.375 C 11.542969 1.035156 10.761719 2.042969 11.324219 3.34375 C 11.628906 4.039062 12.675781 4.90625 13.292969 4.933594 C 13.730469 4.953125 14.148438 3.746094 14.25 2.636719 Z M 14.25 2.636719 "/>
<path style=" stroke:none;fill-rule:nonzero;fill:rgb(60%,66.666667%,70.980392%);fill-opacity:1;" d="M 13.851562 2.636719 C 13.953125 1.566406 12.90625 0.367188 11.28125 0.132812 C 10.566406 0.03125 10.328125 0.167969 10.71875 0.515625 C 11.464844 1.175781 10.453125 2.023438 11.019531 3.324219 C 11.320312 4.023438 12.433594 4.925781 13.050781 4.953125 C 13.488281 4.972656 13.75 3.746094 13.851562 2.636719 Z M 13.851562 2.636719 "/>
<path style=" stroke:none;fill-rule:nonzero;fill:rgb(80%,83.921569%,86.666667%);fill-opacity:1;" d="M 1.097656 11.207031 C 0.0351562 9.546875 -0.410156 6.21875 0.476562 3.875 C 0.613281 3.523438 0.929688 3.429688 0.96875 3.929688 C 1.042969 4.878906 1.976562 6.777344 4.289062 8.5 C 4.804688 8.882812 1.90625 12.46875 1.097656 11.207031 Z M 1.097656 11.207031 "/>
<path style=" stroke:none;fill-rule:nonzero;fill:rgb(80%,83.921569%,86.666667%);fill-opacity:1;" d="M 5.519531 6.410156 C 4.667969 6.054688 4.015625 5.082031 3.816406 4.46875 C 3.574219 3.738281 2.917969 6.105469 4.171875 8.175781 C 4.671875 9.003906 6.109375 6.65625 5.519531 6.410156 Z M 5.519531 6.410156 "/>
<path style=" stroke:none;fill-rule:nonzero;fill:rgb(16.078431%,18.431373%,20%);fill-opacity:1;" d="M 7.828125 8.753906 C 7.828125 9.210938 7.457031 9.585938 6.996094 9.585938 C 6.535156 9.585938 6.160156 9.210938 6.160156 8.753906 C 6.160156 8.292969 6.535156 7.917969 6.996094 7.917969 C 7.457031 7.917969 7.828125 8.292969 7.828125 8.753906 Z M 7.828125 8.753906 "/>
<path style=" stroke:none;fill-rule:nonzero;fill:rgb(90.196078%,66.666667%,66.666667%);fill-opacity:1;" d="M 12.621094 3.921875 C 13.175781 3.964844 13.4375 3.195312 13.128906 1.964844 C 12.859375 0.894531 11.355469 0.613281 11.367188 0.6875 C 11.378906 0.761719 11.808594 1.332031 11.375 1.914062 C 10.949219 2.476562 11.933594 3.867188 12.621094 3.921875 Z M 12.621094 3.921875 "/>
</g>
</svg>
