<?xml version="1.0" encoding="UTF-8"?>
<svg xmlns="http://www.w3.org/2000/svg" xmlns:xlink="http://www.w3.org/1999/xlink" width="15pt" height="15pt" viewBox="0 0 15 15" version="1.1">
<g id="surface1">
<path style=" stroke:none;fill-rule:nonzero;fill:rgb(10.980392%,38.823529%,60%);fill-opacity:1;" d="M 8.335938 8.433594 C 8.15625 8.433594 7.976562 8.4375 7.796875 8.449219 C 7.613281 8.976562 7.601562 9.59375 7.796875 10.570312 C 7.933594 11.257812 8.902344 13.195312 9.707031 13.875 C 9.992188 14.117188 10.386719 14.246094 10.828125 14.246094 C 11.71875 14.246094 12.78125 13.71875 13.390625 12.5625 C 14.640625 10.203125 11.945312 8.433594 8.335938 8.433594 Z M 8.335938 8.433594 "/>
<path style=" stroke:none;fill-rule:nonzero;fill:rgb(10.980392%,38.823529%,60%);fill-opacity:1;" d="M 14.027344 0.820312 C 13.941406 0.820312 13.851562 0.832031 13.75 0.847656 C 12.425781 1.101562 9.875 2.984375 7.796875 5.753906 C 7.796875 5.753906 7.46875 7.902344 7.46875 8.335938 C 7.46875 8.476562 7.996094 8.542969 8.742188 8.542969 C 10.292969 8.542969 12.789062 8.25 13.503906 7.691406 C 14.292969 7.078125 15.023438 3.609375 14.957031 1.828125 C 14.9375 1.335938 14.679688 0.820312 14.027344 0.820312 Z M 14.027344 0.820312 "/>
<path style=" stroke:none;fill-rule:nonzero;fill:rgb(33.333333%,67.45098%,93.333333%);fill-opacity:1;" d="M 11.289062 5.808594 L 14.054688 5.625 C 14.054688 5.625 13.613281 7.132812 12.761719 7.566406 C 11.90625 7.996094 9.542969 8.191406 9.542969 8.191406 C 9.542969 8.191406 10.515625 6.414062 10.914062 5.984375 C 11.011719 5.878906 11.144531 5.816406 11.289062 5.808594 Z M 11.507812 4.992188 L 14.644531 1.597656 C 14.644531 1.597656 14.644531 3.832031 14.140625 5.195312 C 14.140625 5.195312 11.898438 5.351562 11.675781 5.359375 C 11.382812 5.363281 11.273438 5.246094 11.507812 4.992188 Z M 8.980469 8.191406 L 11.269531 4.628906 C 11.347656 4.535156 11.375 4.410156 11.34375 4.296875 L 10.9375 2.949219 L 8.136719 5.703125 L 7.785156 8.214844 Z M 11.609375 3.699219 C 11.679688 3.871094 11.824219 3.910156 12 3.753906 C 12.175781 3.597656 14.53125 1.214844 14.5 1.160156 C 14.5 1.160156 13.320312 0.664062 11.25 2.605469 C 11.25 2.605469 11.539062 3.53125 11.609375 3.699219 Z M 7.890625 8.742188 L 10.128906 10.917969 C 10.214844 10.992188 10.234375 11.117188 10.179688 11.214844 L 9.191406 13.019531 C 9.191406 13.019531 7.445312 10.738281 7.890625 8.742188 Z M 10.925781 11.367188 L 13.238281 11.675781 C 13.238281 11.675781 12.796875 13.277344 11.824219 13.699219 C 10.195312 14.402344 9.609375 13.4375 9.609375 13.4375 L 10.589844 11.535156 C 10.652344 11.414062 10.789062 11.34375 10.925781 11.367188 Z M 8.445312 8.6875 L 10.683594 10.753906 C 10.71875 10.78125 10.753906 10.800781 10.796875 10.808594 L 13.347656 11.183594 C 13.347656 11.183594 12.839844 9.921875 11.5 9.296875 C 9.957031 8.574219 8.445312 8.6875 8.445312 8.6875 Z M 8.445312 8.6875 "/>
<path style=" stroke:none;fill-rule:nonzero;fill:rgb(16.078431%,18.431373%,20%);fill-opacity:1;" d="M 8.335938 8.433594 C 8.15625 8.433594 7.976562 8.4375 7.796875 8.449219 C 7.613281 8.976562 7.601562 9.59375 7.796875 10.570312 C 7.933594 11.257812 8.902344 13.195312 9.707031 13.875 C 9.992188 14.117188 10.386719 14.246094 10.828125 14.246094 C 11.71875 14.246094 12.78125 13.71875 13.390625 12.5625 C 14.640625 10.203125 11.945312 8.433594 8.335938 8.433594 Z M 12.726562 12.320312 C 12.175781 13.355469 11.453125 13.765625 10.828125 13.765625 C 10.507812 13.765625 10.117188 13.636719 9.929688 13.480469 C 9.222656 12.878906 8.5 11.570312 8.160156 10.46875 C 7.964844 9.839844 8.011719 8.792969 8.011719 8.792969 L 8.289062 8.785156 C 10.441406 8.785156 12.144531 9.640625 12.757812 10.664062 C 13.058594 11.160156 13.046875 11.714844 12.726562 12.320312 Z M 12.726562 12.320312 "/>
<path style=" stroke:none;fill-rule:nonzero;fill:rgb(16.078431%,18.431373%,20%);fill-opacity:1;" d="M 14.027344 1.34375 C 14.125 1.34375 14.417969 1.34375 14.4375 1.847656 C 14.480469 2.964844 14.1875 4.371094 13.855469 5.546875 C 13.628906 6.339844 13.191406 6.917969 12.980469 7.082031 C 12.75 7.265625 12.207031 7.597656 11.433594 7.734375 C 10.585938 7.882812 9.679688 8.082031 8.742188 8.082031 C 8.398438 8.082031 8.144531 8.089844 7.996094 8.074219 C 8.050781 7.566406 8.199219 6.59375 8.292969 5.964844 C 9.863281 3.90625 12.339844 1.644531 13.847656 1.359375 C 13.914062 1.347656 13.972656 1.34375 14.027344 1.34375 M 14.027344 0.820312 C 13.941406 0.820312 13.851562 0.832031 13.75 0.847656 C 12.425781 1.101562 9.875 2.984375 7.796875 5.753906 C 7.796875 5.753906 7.46875 7.902344 7.46875 8.335938 C 7.46875 8.476562 7.996094 8.542969 8.742188 8.542969 C 10.292969 8.542969 12.789062 8.25 13.503906 7.691406 C 14.292969 7.078125 15.023438 3.609375 14.957031 1.828125 C 14.9375 1.335938 14.679688 0.820312 14.027344 0.820312 Z M 14.027344 0.820312 "/>
<path style=" stroke:none;fill-rule:nonzero;fill:rgb(10.980392%,38.823529%,60%);fill-opacity:1;" d="M 1.625 12.5625 C 2.238281 13.71875 3.296875 14.246094 4.191406 14.246094 C 4.628906 14.246094 5.027344 14.117188 5.3125 13.875 C 6.113281 13.195312 7.085938 11.257812 7.222656 10.570312 C 7.417969 9.59375 7.402344 8.976562 7.222656 8.449219 C 7.039062 8.4375 6.859375 8.433594 6.683594 8.433594 C 3.074219 8.433594 0.375 10.203125 1.625 12.5625 Z M 1.625 12.5625 "/>
<path style=" stroke:none;fill-rule:nonzero;fill:rgb(10.980392%,38.823529%,60%);fill-opacity:1;" d="M 0.988281 0.820312 C 0.335938 0.820312 0.078125 1.335938 0.0625 1.828125 C -0.0078125 3.609375 0.722656 7.078125 1.515625 7.691406 C 2.230469 8.25 4.726562 8.542969 6.273438 8.542969 C 7.023438 8.542969 7.546875 8.472656 7.546875 8.335938 C 7.546875 7.902344 7.21875 5.753906 7.21875 5.753906 C 5.140625 2.984375 2.589844 1.101562 1.265625 0.847656 C 1.167969 0.832031 1.074219 0.820312 0.988281 0.820312 Z M 0.988281 0.820312 "/>
<path style=" stroke:none;fill-rule:nonzero;fill:rgb(33.333333%,67.45098%,93.333333%);fill-opacity:1;" d="M 3.726562 5.808594 L 0.964844 5.625 C 0.964844 5.625 1.402344 7.132812 2.257812 7.566406 C 3.109375 7.996094 5.472656 8.191406 5.472656 8.191406 C 5.472656 8.191406 4.503906 6.414062 4.105469 5.984375 C 4.003906 5.878906 3.871094 5.816406 3.726562 5.808594 Z M 3.511719 4.992188 L 0.375 1.597656 C 0.375 1.597656 0.375 3.832031 0.875 5.195312 C 0.875 5.195312 3.121094 5.351562 3.339844 5.359375 C 3.632812 5.363281 3.746094 5.246094 3.511719 4.992188 Z M 6.039062 8.191406 L 3.746094 4.628906 C 3.667969 4.535156 3.640625 4.410156 3.675781 4.296875 L 4.078125 2.949219 L 6.878906 5.703125 L 7.230469 8.214844 Z M 3.40625 3.699219 C 3.335938 3.871094 3.191406 3.910156 3.015625 3.753906 C 2.839844 3.597656 0.484375 1.214844 0.515625 1.160156 C 0.515625 1.160156 1.695312 0.664062 3.765625 2.605469 C 3.765625 2.605469 3.480469 3.53125 3.40625 3.699219 Z M 7.128906 8.742188 L 4.886719 10.917969 C 4.804688 10.992188 4.78125 11.117188 4.835938 11.214844 L 5.824219 13.019531 C 5.824219 13.019531 7.570312 10.738281 7.128906 8.742188 Z M 4.09375 11.367188 L 1.78125 11.675781 C 1.78125 11.675781 2.222656 13.277344 3.195312 13.699219 C 4.820312 14.402344 5.40625 13.4375 5.40625 13.4375 L 4.429688 11.535156 C 4.367188 11.414062 4.230469 11.34375 4.09375 11.367188 Z M 6.570312 8.6875 L 4.332031 10.753906 C 4.300781 10.78125 4.261719 10.800781 4.21875 10.808594 L 1.671875 11.183594 C 1.671875 11.183594 2.179688 9.921875 3.515625 9.296875 C 5.0625 8.574219 6.570312 8.6875 6.570312 8.6875 Z M 6.570312 8.6875 "/>
<path style=" stroke:none;fill-rule:nonzero;fill:rgb(16.078431%,18.431373%,20%);fill-opacity:1;" d="M 1.625 12.5625 C 2.238281 13.71875 3.296875 14.246094 4.191406 14.246094 C 4.628906 14.246094 5.027344 14.117188 5.3125 13.875 C 6.113281 13.195312 7.085938 11.257812 7.222656 10.570312 C 7.417969 9.59375 7.402344 8.976562 7.222656 8.449219 C 7.039062 8.4375 6.859375 8.433594 6.683594 8.433594 C 3.074219 8.433594 0.375 10.203125 1.625 12.5625 Z M 2.257812 10.664062 C 2.875 9.640625 4.574219 8.785156 6.726562 8.785156 L 7.003906 8.792969 C 7.003906 8.792969 7.050781 9.839844 6.859375 10.46875 C 6.519531 11.570312 5.792969 12.878906 5.085938 13.480469 C 4.902344 13.636719 4.511719 13.765625 4.191406 13.765625 C 3.5625 13.765625 2.839844 13.355469 2.292969 12.320312 C 1.972656 11.714844 1.960938 11.160156 2.257812 10.664062 Z M 2.257812 10.664062 "/>
<path style=" stroke:none;fill-rule:nonzero;fill:rgb(16.078431%,18.431373%,20%);fill-opacity:1;" d="M 0.988281 1.34375 C 1.042969 1.34375 1.105469 1.347656 1.167969 1.359375 C 2.675781 1.644531 5.152344 3.90625 6.722656 5.964844 C 6.820312 6.59375 6.96875 7.566406 7.023438 8.074219 C 6.871094 8.089844 6.621094 8.082031 6.277344 8.082031 C 5.339844 8.082031 4.429688 7.882812 3.585938 7.734375 C 2.8125 7.597656 2.269531 7.265625 2.035156 7.082031 C 1.824219 6.917969 1.390625 6.339844 1.164062 5.546875 C 0.828125 4.371094 0.539062 2.964844 0.582031 1.847656 C 0.601562 1.34375 0.894531 1.34375 0.988281 1.34375 M 0.988281 0.820312 C 0.335938 0.820312 0.078125 1.335938 0.0625 1.828125 C -0.0078125 3.609375 0.722656 7.078125 1.515625 7.691406 C 2.230469 8.25 4.726562 8.542969 6.273438 8.542969 C 7.023438 8.542969 7.546875 8.472656 7.546875 8.335938 C 7.546875 7.902344 7.21875 5.753906 7.21875 5.753906 C 5.140625 2.984375 2.589844 1.101562 1.265625 0.847656 C 1.167969 0.832031 1.074219 0.820312 0.988281 0.820312 Z M 0.988281 0.820312 "/>
<path style=" stroke:none;fill-rule:nonzero;fill:rgb(16.078431%,18.431373%,20%);fill-opacity:1;" d="M 9.121094 1.984375 C 9.015625 1.925781 8.886719 1.964844 8.828125 2.070312 L 7.6875 4.144531 C 7.679688 4.15625 7.675781 4.171875 7.671875 4.1875 C 7.621094 4.183594 7.570312 4.179688 7.507812 4.179688 C 7.445312 4.179688 7.398438 4.183594 7.34375 4.1875 C 7.339844 4.171875 7.339844 4.15625 7.332031 4.144531 L 6.191406 2.070312 C 6.132812 1.964844 6.003906 1.925781 5.898438 1.984375 C 5.792969 2.042969 5.753906 2.171875 5.8125 2.277344 L 6.917969 4.285156 C 6.429688 4.613281 7.398438 5.71875 7.078125 8.121094 C 6.648438 11.351562 7.507812 12.210938 7.507812 12.210938 C 7.507812 12.210938 8.371094 11.351562 7.9375 8.121094 C 7.617188 5.71875 8.589844 4.613281 8.097656 4.285156 L 9.203125 2.277344 C 9.261719 2.171875 9.222656 2.042969 9.121094 1.984375 Z M 9.121094 1.984375 "/>
</g>
</svg>
