<?xml version="1.0" encoding="UTF-8"?>
<svg xmlns="http://www.w3.org/2000/svg" xmlns:xlink="http://www.w3.org/1999/xlink" width="15pt" height="15pt" viewBox="0 0 15 15" version="1.1">
<g id="surface1">
<path style=" stroke:none;fill-rule:nonzero;fill:rgb(24.313725%,44.705882%,11.372549%);fill-opacity:1;" d="M 6.523438 2.851562 C 6.726562 2.003906 6.683594 1.542969 6.292969 1.320312 C 5.90625 1.097656 6.433594 0.207031 7.117188 0.988281 C 7.800781 1.769531 7.714844 2.496094 7.394531 3.011719 C 7.074219 3.527344 6.421875 3.285156 6.523438 2.851562 Z M 6.324219 4.082031 C 5.941406 4.863281 5.617188 5.191406 5.171875 5.117188 C 4.730469 5.042969 4.574219 6.0625 5.597656 5.894531 C 6.625 5.726562 7.015625 5.109375 7.097656 4.511719 C 7.179688 3.910156 6.519531 3.679688 6.324219 4.082031 Z M 11.046875 6.691406 C 10.183594 6.117188 8.804688 7.285156 8.671875 7.640625 C 8.542969 7.996094 9.390625 9.082031 9.152344 9.699219 C 8.910156 10.3125 9.628906 10.433594 9.953125 9.902344 C 10.277344 9.371094 10.078125 8.398438 10.015625 8.164062 C 9.953125 7.933594 10.929688 7.65625 11.546875 8.152344 C 12.164062 8.640625 11.410156 6.933594 11.046875 6.691406 Z M 11.492188 6.347656 C 10.847656 5.535156 11.898438 4.066406 12.242188 3.902344 C 12.582031 3.742188 13.3125 4.070312 13.90625 3.78125 C 14.5 3.488281 14.632812 4.136719 14.175781 4.5625 C 13.664062 5.035156 13.242188 5.117188 12.878906 5.195312 C 12.644531 5.246094 12.863281 6.042969 12.875 6.851562 C 12.882812 7.601562 11.765625 6.691406 11.492188 6.347656 Z M 11.492188 6.347656 "/>
<path style=" stroke:none;fill-rule:nonzero;fill:rgb(24.313725%,44.705882%,11.372549%);fill-opacity:1;" d="M 6.382812 1.320312 C 6.382812 1.484375 6.246094 1.621094 6.082031 1.621094 C 5.914062 1.621094 5.78125 1.484375 5.78125 1.320312 C 5.78125 1.152344 5.914062 1.019531 6.082031 1.019531 C 6.246094 1.019531 6.382812 1.152344 6.382812 1.320312 Z M 5.132812 5.027344 C 5.132812 5.191406 5 5.328125 4.832031 5.328125 C 4.664062 5.328125 4.53125 5.191406 4.53125 5.027344 C 4.53125 4.859375 4.664062 4.726562 4.832031 4.726562 C 5 4.726562 5.132812 4.859375 5.132812 5.027344 Z M 5.007812 5.726562 C 5.007812 5.890625 4.875 6.027344 4.707031 6.027344 C 4.542969 6.027344 4.40625 5.890625 4.40625 5.726562 C 4.40625 5.558594 4.539062 5.421875 4.707031 5.421875 C 4.875 5.421875 5.007812 5.558594 5.007812 5.726562 Z M 5.613281 6.027344 C 5.613281 6.191406 5.476562 6.328125 5.308594 6.328125 C 5.144531 6.328125 5.007812 6.195312 5.007812 6.027344 C 5.007812 5.859375 5.144531 5.726562 5.308594 5.726562 C 5.476562 5.726562 5.613281 5.859375 5.613281 6.027344 Z M 9.183594 9.714844 C 9.238281 9.871094 9.15625 10.042969 8.996094 10.097656 C 8.839844 10.152344 8.667969 10.066406 8.613281 9.910156 C 8.558594 9.75 8.644531 9.578125 8.800781 9.527344 C 8.960938 9.472656 9.132812 9.554688 9.183594 9.714844 Z M 9.507812 10.242188 C 9.558594 10.398438 9.476562 10.570312 9.316406 10.625 C 9.160156 10.679688 8.988281 10.59375 8.9375 10.4375 C 8.882812 10.28125 8.964844 10.109375 9.125 10.054688 C 9.28125 10 9.453125 10.085938 9.507812 10.242188 Z M 10.183594 10.140625 C 10.238281 10.300781 10.152344 10.472656 9.996094 10.523438 C 9.839844 10.578125 9.667969 10.496094 9.613281 10.335938 C 9.558594 10.179688 9.644531 10.007812 9.800781 9.953125 C 9.960938 9.898438 10.132812 9.984375 10.183594 10.140625 Z M 14.269531 3.578125 C 14.269531 3.746094 14.132812 3.878906 13.96875 3.878906 C 13.800781 3.878906 13.664062 3.746094 13.664062 3.578125 C 13.664062 3.414062 13.800781 3.277344 13.96875 3.277344 C 14.132812 3.277344 14.269531 3.414062 14.269531 3.578125 Z M 14.894531 3.878906 C 14.894531 4.046875 14.761719 4.183594 14.59375 4.183594 C 14.429688 4.183594 14.292969 4.046875 14.292969 3.878906 C 14.292969 3.714844 14.425781 3.578125 14.59375 3.578125 C 14.761719 3.578125 14.894531 3.714844 14.894531 3.878906 Z M 14.75 4.597656 C 14.75 4.761719 14.617188 4.898438 14.449219 4.898438 C 14.285156 4.898438 14.148438 4.761719 14.148438 4.597656 C 14.148438 4.429688 14.28125 4.292969 14.449219 4.292969 C 14.617188 4.292969 14.75 4.429688 14.75 4.597656 Z M 6.464844 0.675781 C 6.464844 0.839844 6.328125 0.976562 6.160156 0.976562 C 5.996094 0.976562 5.859375 0.839844 5.859375 0.675781 C 5.859375 0.507812 5.996094 0.371094 6.160156 0.371094 C 6.328125 0.371094 6.464844 0.507812 6.464844 0.675781 Z M 7.117188 0.480469 C 7.117188 0.644531 6.984375 0.78125 6.816406 0.78125 C 6.648438 0.78125 6.515625 0.644531 6.515625 0.480469 C 6.515625 0.3125 6.648438 0.175781 6.816406 0.175781 C 6.984375 0.175781 7.117188 0.3125 7.117188 0.480469 Z M 7.117188 0.480469 "/>
<path style=" stroke:none;fill-rule:nonzero;fill:rgb(24.313725%,44.705882%,11.372549%);fill-opacity:1;" d="M 0.0859375 2.355469 C 0.195312 1.917969 2.027344 0.386719 3.6875 0.675781 C 4.53125 0.820312 4.914062 2.070312 5.8125 2.101562 C 10.515625 2.265625 15.09375 6.742188 13.667969 11.015625 C 13.039062 12.894531 11.324219 14.679688 7.222656 13.097656 C 6.410156 12.785156 5.570312 12.273438 3.964844 12.589844 C 2.777344 12.824219 2.652344 13.902344 2.796875 14.460938 C 2.910156 14.898438 2.730469 15.121094 2.503906 14.777344 C 1.992188 14 1.957031 12.964844 2.773438 12.296875 C 4.402344 10.957031 6.625 11.761719 8.246094 12.273438 C 10.945312 13.125 12.378906 10.75 10.890625 7.972656 C 9.429688 5.25 6.800781 4.503906 5.054688 4.300781 C 4.566406 4.242188 3.539062 5.152344 2.816406 5.027344 C 1.308594 4.757812 0.0078125 2.671875 0.0859375 2.355469 Z M 0.0859375 2.355469 "/>
<path style=" stroke:none;fill-rule:nonzero;fill:rgb(46.666667%,69.803922%,33.333333%);fill-opacity:1;" d="M 0.0859375 2.355469 C 0.195312 1.917969 2.027344 0.386719 3.6875 0.675781 C 4.53125 0.820312 4.914062 2.070312 5.8125 2.101562 C 10.515625 2.265625 15.09375 6.742188 13.667969 11.015625 C 13.039062 12.894531 11.324219 14.679688 7.222656 13.097656 C 6.410156 12.785156 5.570312 12.273438 3.964844 12.589844 C 2.777344 12.824219 2.652344 13.902344 2.796875 14.460938 C 2.851562 14.675781 2.835938 14.839844 2.78125 14.910156 C 2.394531 14.375 2.210938 13.101562 3.054688 12.464844 C 4.53125 11.355469 6.625 12.410156 8.597656 12.898438 C 12.867188 13.957031 13.671875 9.566406 11.890625 6.703125 C 9.730469 3.222656 2.917969 2.394531 0.0859375 2.355469 Z M 0.0859375 2.355469 "/>
<path style=" stroke:none;fill-rule:nonzero;fill:rgb(16.078431%,18.431373%,20%);fill-opacity:1;" d="M 3.332031 1.25 C 3.332031 1.480469 3.148438 1.667969 2.917969 1.667969 C 2.6875 1.667969 2.5 1.480469 2.5 1.25 C 2.5 1.019531 2.6875 0.832031 2.917969 0.832031 C 3.148438 0.832031 3.332031 1.019531 3.332031 1.25 Z M 3.332031 1.25 "/>
<path style=" stroke:none;fill-rule:nonzero;fill:rgb(16.078431%,18.431373%,20%);fill-opacity:1;" d="M 2.917969 4.167969 C 2.917969 4.398438 2.730469 4.582031 2.5 4.582031 C 2.269531 4.582031 2.082031 4.398438 2.082031 4.167969 C 2.082031 3.9375 2.269531 3.75 2.5 3.75 C 2.730469 3.75 2.917969 3.9375 2.917969 4.167969 Z M 2.917969 4.167969 "/>
</g>
</svg>
