<?xml version="1.0" encoding="UTF-8"?>
<svg xmlns="http://www.w3.org/2000/svg" xmlns:xlink="http://www.w3.org/1999/xlink" width="15pt" height="15pt" viewBox="0 0 15 15" version="1.1">
<g id="surface1">
<path style=" stroke:none;fill-rule:nonzero;fill:rgb(40%,12.941176%,7.45098%);fill-opacity:1;" d="M 6.65625 6.285156 C 6.046875 5.3125 6.375 3.074219 6.65625 2.550781 C 6.933594 2.03125 6.429688 1.527344 6.03125 2.359375 C 5.628906 3.195312 5.613281 3.609375 4.710938 3.386719 C 3.808594 3.160156 4.257812 2.015625 4.554688 1.042969 C 4.859375 0.0429688 4.171875 0.226562 3.859375 0.851562 C 3.546875 1.476562 3.335938 3.222656 2.652344 3.34375 C 1.964844 3.464844 0.109375 3.59375 1.464844 0.988281 C 2.007812 -0.0585938 1.15625 -0.273438 0.699219 0.609375 C 0.152344 1.667969 -0.167969 3.019531 0.09375 3.59375 C 0.554688 4.613281 1.542969 4.824219 3 4.546875 C 4.460938 4.269531 5.542969 4.28125 5.542969 5.015625 C 5.542969 5.796875 5.628906 6.457031 5.976562 6.527344 C 6.324219 6.597656 6.65625 6.285156 6.65625 6.285156 Z M 8.34375 6.285156 C 8.953125 5.3125 8.621094 3.074219 8.34375 2.550781 C 8.066406 2.03125 8.570312 1.527344 8.96875 2.359375 C 9.371094 3.195312 9.386719 3.609375 10.289062 3.386719 C 11.191406 3.160156 10.742188 2.015625 10.445312 1.042969 C 10.140625 0.0429688 10.828125 0.226562 11.140625 0.851562 C 11.453125 1.476562 11.664062 3.222656 12.347656 3.34375 C 13.035156 3.464844 14.890625 3.59375 13.535156 0.988281 C 12.992188 -0.0585938 13.84375 -0.273438 14.300781 0.609375 C 14.847656 1.671875 15.167969 3.019531 14.90625 3.59375 C 14.445312 4.613281 13.457031 4.824219 12 4.546875 C 10.539062 4.269531 9.457031 4.28125 9.457031 5.019531 C 9.457031 5.796875 9.371094 6.457031 9.023438 6.527344 C 8.675781 6.597656 8.34375 6.285156 8.34375 6.285156 Z M 8.34375 6.285156 "/>
<path style=" stroke:none;fill-rule:nonzero;fill:rgb(75.686275%,41.176471%,30.980392%);fill-opacity:1;" d="M 5.773438 6.457031 C 6.023438 7.453125 5.839844 8.296875 4.84375 8.546875 C 3.847656 8.796875 2.203125 8.78125 1.527344 8.003906 C 0.574219 6.902344 0.472656 5.339844 1.035156 5.203125 C 1.59375 5.0625 5.527344 5.460938 5.773438 6.457031 Z M 9.226562 6.457031 C 8.976562 7.453125 9.160156 8.296875 10.15625 8.546875 C 11.152344 8.796875 12.800781 8.78125 13.472656 8.003906 C 14.425781 6.902344 14.527344 5.339844 13.964844 5.203125 C 13.410156 5.0625 9.472656 5.460938 9.226562 6.457031 Z M 9.226562 6.457031 "/>
<path style=" stroke:none;fill-rule:nonzero;fill:rgb(15.294118%,16.862745%,16.862745%);fill-opacity:1;" d="M 1.035156 5.203125 C 0.640625 5.300781 0.574219 6.101562 0.902344 6.949219 L 2.308594 5.226562 C 1.699219 5.167969 1.207031 5.160156 1.035156 5.203125 Z M 13.96875 5.203125 C 13.792969 5.160156 13.285156 5.167969 12.667969 5.230469 L 14.101562 6.941406 C 14.425781 6.09375 14.359375 5.300781 13.96875 5.203125 Z M 13.96875 5.203125 "/>
<path style=" stroke:none;fill-rule:nonzero;fill:rgb(90.196078%,66.666667%,66.666667%);fill-opacity:1;" d="M 5.023438 6.664062 C 5.382812 7.246094 4.792969 7.59375 4.210938 7.957031 C 3.628906 8.320312 2.289062 7.871094 1.929688 7.292969 C 1.566406 6.710938 1.433594 5.988281 1.644531 5.855469 C 1.859375 5.722656 4.660156 6.085938 5.023438 6.664062 Z M 9.976562 6.664062 C 9.617188 7.246094 10.207031 7.59375 10.789062 7.957031 C 11.371094 8.320312 12.707031 7.871094 13.070312 7.292969 C 13.433594 6.710938 13.566406 5.988281 13.351562 5.855469 C 13.140625 5.722656 10.339844 6.085938 9.976562 6.664062 Z M 9.976562 6.664062 "/>
<path style=" stroke:none;fill-rule:nonzero;fill:rgb(75.686275%,41.176471%,30.980392%);fill-opacity:1;" d="M 7.5 5.886719 C 3.21875 5.886719 3.871094 7.535156 4.332031 10.277344 C 4.789062 13.019531 5.332031 14.96875 7.5 14.96875 C 9.667969 14.96875 10.210938 13.019531 10.667969 10.277344 C 11.125 7.535156 11.777344 5.886719 7.5 5.886719 Z M 7.5 5.886719 "/>
<path style=" stroke:none;fill-rule:nonzero;fill:rgb(15.294118%,16.862745%,16.862745%);fill-opacity:1;" d="M 4.925781 9.519531 C 4.925781 9.519531 4.613281 8.980469 5.15625 8.667969 C 5.699219 8.355469 6.011719 8.894531 6.011719 8.894531 L 6.324219 9.4375 C 6.324219 9.4375 6.636719 9.980469 6.09375 10.292969 C 5.550781 10.605469 5.238281 10.0625 5.238281 10.0625 Z M 8.988281 8.894531 C 8.988281 8.894531 9.300781 8.355469 9.84375 8.667969 C 10.386719 8.980469 10.074219 9.519531 10.074219 9.519531 L 9.761719 10.0625 C 9.761719 10.0625 9.449219 10.605469 8.90625 10.292969 C 8.363281 9.980469 8.675781 9.4375 8.675781 9.4375 Z M 6.34375 14.277344 C 5.957031 14.199219 7.113281 12.777344 7.5 12.777344 C 7.886719 12.777344 9.042969 14.199219 8.65625 14.277344 C 8.269531 14.355469 6.730469 14.355469 6.34375 14.277344 Z M 6.34375 14.277344 "/>
</g>
</svg>
