<?xml version="1.0" encoding="UTF-8"?>
<svg xmlns="http://www.w3.org/2000/svg" xmlns:xlink="http://www.w3.org/1999/xlink" width="15pt" height="15pt" viewBox="0 0 15 15" version="1.1">
<g id="surface1">
<path style=" stroke:none;fill-rule:nonzero;fill:rgb(62.745098%,1.568627%,11.764706%);fill-opacity:1;" d="M 2.898438 8.597656 C 2.929688 8.863281 2.671875 9.109375 2.328125 9.148438 C 1.988281 9.183594 1.683594 8.996094 1.65625 8.730469 C 1.628906 8.464844 1.882812 8.222656 2.226562 8.183594 C 2.570312 8.148438 2.871094 8.332031 2.898438 8.597656 Z M 3.769531 9.730469 C 3.820312 10.070312 3.039062 10.789062 2.695312 10.84375 C 2.355469 10.894531 2.035156 10.660156 1.984375 10.320312 C 1.933594 9.976562 2.226562 9.84375 2.566406 9.792969 C 2.910156 9.742188 3.71875 9.390625 3.769531 9.730469 Z M 4.511719 10.609375 C 4.585938 10.945312 3.835938 12.242188 3.496094 12.316406 C 3.160156 12.386719 2.8125 12.375 2.738281 12.039062 C 2.667969 11.703125 2.867188 11.335938 3.203125 11.261719 C 3.542969 11.191406 4.441406 10.269531 4.511719 10.609375 Z M 6.117188 10.964844 C 6.1875 11.304688 5.558594 12.777344 5.222656 12.847656 C 4.882812 12.917969 4.621094 13.035156 4.554688 12.699219 C 4.484375 12.359375 4.664062 11.875 4.972656 11.621094 C 5.242188 11.40625 6.050781 10.628906 6.117188 10.964844 Z M 6.117188 10.964844 "/>
<path style=" stroke:none;fill-rule:nonzero;fill:rgb(62.745098%,1.568627%,11.764706%);fill-opacity:1;" d="M 1.636719 7.863281 C 1.886719 8.160156 2.128906 8.375 1.828125 8.625 C 1.53125 8.878906 1.101562 8.695312 0.847656 8.394531 C 0.597656 8.097656 -0.0859375 6.972656 0.214844 6.71875 C 0.511719 6.464844 1.382812 7.5625 1.636719 7.863281 Z M 1.773438 9.894531 C 2.144531 10.019531 2.546875 10.230469 2.425781 10.601562 C 2.300781 10.972656 1.871094 11.011719 1.5 10.890625 C 1.128906 10.769531 -0.0703125 10.1875 0.0507812 9.816406 C 0.171875 9.445312 1.402344 9.773438 1.773438 9.894531 Z M 2.277344 11.785156 C 2.65625 11.679688 3.074219 11.664062 3.179688 12.042969 C 3.285156 12.417969 3.0625 12.679688 2.683594 12.785156 C 2.308594 12.890625 0.875 13.089844 0.769531 12.714844 C 0.664062 12.335938 1.902344 11.886719 2.277344 11.785156 Z M 4.089844 13.113281 C 4.125 12.722656 4.359375 12.417969 4.746094 12.453125 C 5.136719 12.488281 5.273438 12.878906 5.234375 13.269531 C 5.199219 13.65625 5.296875 14.753906 4.523438 14.941406 C 4.140625 15.035156 4.054688 13.5 4.089844 13.113281 Z M 12.101562 8.597656 C 12.070312 8.863281 12.328125 9.109375 12.667969 9.148438 C 13.011719 9.183594 13.3125 8.996094 13.34375 8.730469 C 13.371094 8.464844 13.117188 8.222656 12.773438 8.183594 C 12.429688 8.148438 12.128906 8.332031 12.101562 8.597656 Z M 11.230469 9.730469 C 11.179688 10.070312 11.960938 10.789062 12.304688 10.84375 C 12.644531 10.894531 12.964844 10.660156 13.015625 10.320312 C 13.066406 9.976562 12.773438 9.84375 12.433594 9.792969 C 12.089844 9.742188 11.28125 9.390625 11.230469 9.730469 Z M 10.488281 10.609375 C 10.414062 10.945312 11.164062 12.242188 11.503906 12.316406 C 11.839844 12.386719 12.1875 12.375 12.261719 12.039062 C 12.332031 11.703125 12.132812 11.335938 11.796875 11.261719 C 11.457031 11.191406 10.558594 10.269531 10.488281 10.609375 Z M 8.882812 10.964844 C 8.8125 11.304688 9.441406 12.777344 9.777344 12.847656 C 10.117188 12.917969 10.375 13.035156 10.445312 12.699219 C 10.515625 12.359375 10.335938 11.875 10.027344 11.621094 C 9.757812 11.40625 8.949219 10.628906 8.882812 10.964844 Z M 8.882812 10.964844 "/>
<path style=" stroke:none;fill-rule:nonzero;fill:rgb(62.745098%,1.568627%,11.764706%);fill-opacity:1;" d="M 13.363281 7.863281 C 13.113281 8.160156 12.871094 8.375 13.171875 8.625 C 13.46875 8.878906 13.898438 8.695312 14.152344 8.394531 C 14.402344 8.097656 15.085938 6.972656 14.785156 6.71875 C 14.488281 6.464844 13.617188 7.5625 13.363281 7.863281 Z M 13.226562 9.894531 C 12.855469 10.019531 12.453125 10.230469 12.578125 10.601562 C 12.699219 10.972656 13.128906 11.011719 13.5 10.890625 C 13.871094 10.769531 15.070312 10.1875 14.949219 9.816406 C 14.828125 9.445312 13.597656 9.773438 13.226562 9.894531 Z M 12.722656 11.785156 C 12.34375 11.679688 11.925781 11.664062 11.820312 12.042969 C 11.714844 12.417969 11.9375 12.679688 12.316406 12.785156 C 12.691406 12.890625 14.125 13.089844 14.230469 12.710938 C 14.335938 12.335938 13.097656 11.886719 12.722656 11.785156 Z M 10.910156 13.113281 C 10.875 12.722656 10.640625 12.417969 10.253906 12.453125 C 9.863281 12.488281 9.726562 12.878906 9.765625 13.269531 C 9.796875 13.65625 9.703125 14.753906 10.476562 14.941406 C 10.859375 15.035156 10.945312 13.5 10.910156 13.113281 Z M 1.3125 5.78125 C 1.152344 5.425781 1.3125 5.007812 1.667969 4.847656 C 2.027344 4.6875 2.445312 4.847656 2.601562 5.207031 C 2.761719 5.5625 3.707031 7.542969 3.351562 7.703125 C 2.996094 7.863281 1.472656 6.140625 1.3125 5.78125 Z M 1.3125 5.78125 "/>
<path style=" stroke:none;fill-rule:nonzero;fill:rgb(62.745098%,1.568627%,11.764706%);fill-opacity:1;" d="M 1.664062 5.015625 C 2.171875 6.246094 5.140625 3.621094 5.332031 2.398438 C 5.523438 1.171875 5.203125 0.648438 5.042969 0.523438 C 4.882812 0.398438 5.101562 1.121094 4.546875 1.898438 C 4.109375 2.515625 1.3125 4.164062 1.664062 5.015625 Z M 13.6875 5.78125 C 13.847656 5.425781 13.6875 5.007812 13.332031 4.847656 C 12.972656 4.6875 12.554688 4.847656 12.394531 5.207031 C 12.238281 5.5625 11.292969 7.542969 11.648438 7.703125 C 12.003906 7.863281 13.527344 6.140625 13.6875 5.78125 Z M 13.6875 5.78125 "/>
<path style=" stroke:none;fill-rule:nonzero;fill:rgb(62.745098%,1.568627%,11.764706%);fill-opacity:1;" d="M 13.335938 5.015625 C 12.828125 6.246094 9.859375 3.621094 9.667969 2.398438 C 9.476562 1.171875 9.796875 0.648438 9.957031 0.523438 C 10.117188 0.398438 9.898438 1.121094 10.453125 1.898438 C 10.890625 2.515625 13.6875 4.164062 13.335938 5.015625 Z M 13.335938 5.015625 "/>
<path style=" stroke:none;fill-rule:nonzero;fill:rgb(74.509804%,9.803922%,19.215686%);fill-opacity:1;" d="M 2.5 9.167969 C 2.5 8.332031 3.332031 5 7.5 5 C 11.667969 5 12.5 8.332031 12.5 9.167969 C 10.417969 10.417969 10.261719 12.082031 7.5 12.082031 C 4.738281 12.082031 5 10.417969 2.5 9.167969 Z M 1.800781 5.09375 C 0.488281 5.320312 1.652344 1.699219 2.585938 0.886719 C 3.519531 0.0703125 4.527344 0.0859375 4.71875 0.15625 C 4.90625 0.226562 4.226562 1.238281 3.988281 1.898438 C 3.867188 2.230469 2.707031 4.9375 1.800781 5.09375 Z M 13.199219 5.09375 C 14.511719 5.320312 13.347656 1.699219 12.414062 0.886719 C 11.480469 0.0703125 10.472656 0.0859375 10.285156 0.15625 C 10.09375 0.226562 10.773438 1.238281 11.011719 1.898438 C 11.132812 2.230469 12.292969 4.9375 13.199219 5.09375 Z M 13.199219 5.09375 "/>
<path style=" stroke:none;fill-rule:nonzero;fill:rgb(62.745098%,1.568627%,11.764706%);fill-opacity:1;" d="M 7.097656 5.058594 C 7.234375 5.613281 7.078125 5.71875 6.742188 5.800781 C 6.40625 5.886719 6.023438 5.917969 5.882812 5.359375 C 5.746094 4.800781 5.902344 4.28125 6.238281 4.199219 C 6.574219 4.113281 6.957031 4.5 7.097656 5.058594 Z M 9.117188 5.359375 C 8.976562 5.917969 8.589844 5.886719 8.257812 5.800781 C 7.921875 5.71875 7.765625 5.613281 7.902344 5.058594 C 8.042969 4.5 8.425781 4.113281 8.761719 4.199219 C 9.097656 4.28125 9.253906 4.800781 9.117188 5.359375 Z M 9.117188 5.359375 "/>
<path style=" stroke:none;fill-rule:nonzero;fill:rgb(16.078431%,18.431373%,20%);fill-opacity:1;" d="M 6.667969 3.957031 C 6.667969 4.304688 6.386719 4.582031 6.042969 4.582031 C 5.695312 4.582031 5.417969 4.304688 5.417969 3.957031 C 5.417969 3.613281 5.695312 3.332031 6.042969 3.332031 C 6.386719 3.332031 6.667969 3.613281 6.667969 3.957031 Z M 6.667969 3.957031 "/>
<path style=" stroke:none;fill-rule:nonzero;fill:rgb(16.078431%,18.431373%,20%);fill-opacity:1;" d="M 9.582031 3.957031 C 9.582031 4.304688 9.304688 4.582031 8.957031 4.582031 C 8.613281 4.582031 8.332031 4.304688 8.332031 3.957031 C 8.332031 3.613281 8.613281 3.332031 8.957031 3.332031 C 9.304688 3.332031 9.582031 3.613281 9.582031 3.957031 Z M 9.582031 3.957031 "/>
<path style=" stroke:none;fill-rule:nonzero;fill:rgb(86.666667%,18.039216%,26.666667%);fill-opacity:1;" d="M 3.773438 8.96875 C 3.714844 9.070312 2.5 9.277344 2.8125 8.664062 C 3.125 8.054688 3.832031 8.871094 3.773438 8.96875 Z M 3.773438 8.96875 "/>
<path style=" stroke:none;fill-rule:nonzero;fill:rgb(86.666667%,18.039216%,26.666667%);fill-opacity:1;" d="M 4.121094 8.386719 C 4.03125 8.480469 2.792969 8.546875 3.320312 7.800781 C 3.847656 7.054688 4.25 8.25 4.121094 8.386719 Z M 4.121094 8.386719 "/>
<path style=" stroke:none;fill-rule:nonzero;fill:rgb(86.666667%,18.039216%,26.666667%);fill-opacity:1;" d="M 4.855469 7.773438 C 4.699219 7.871094 3.410156 7.566406 4.269531 6.96875 C 5.050781 6.429688 5.066406 7.648438 4.855469 7.773438 Z M 4.855469 7.773438 "/>
<path style=" stroke:none;fill-rule:nonzero;fill:rgb(86.666667%,18.039216%,26.666667%);fill-opacity:1;" d="M 5.875 7.261719 C 5.457031 7.386719 4.46875 6.71875 5.507812 6.371094 C 6.550781 6.019531 6.296875 7.136719 5.875 7.261719 Z M 11.191406 8.96875 C 11.25 9.066406 12.460938 9.273438 12.148438 8.664062 C 11.835938 8.054688 11.132812 8.871094 11.191406 8.96875 Z M 11.191406 8.96875 "/>
<path style=" stroke:none;fill-rule:nonzero;fill:rgb(86.666667%,18.039216%,26.666667%);fill-opacity:1;" d="M 10.839844 8.386719 C 10.933594 8.480469 12.167969 8.546875 11.640625 7.800781 C 11.113281 7.054688 10.710938 8.25 10.839844 8.386719 Z M 10.839844 8.386719 "/>
<path style=" stroke:none;fill-rule:nonzero;fill:rgb(86.666667%,18.039216%,26.666667%);fill-opacity:1;" d="M 10.105469 7.773438 C 10.261719 7.871094 11.550781 7.566406 10.691406 6.96875 C 9.910156 6.429688 9.898438 7.648438 10.105469 7.773438 Z M 10.105469 7.773438 "/>
<path style=" stroke:none;fill-rule:nonzero;fill:rgb(86.666667%,18.039216%,26.666667%);fill-opacity:1;" d="M 9.085938 7.261719 C 9.507812 7.386719 10.496094 6.71875 9.453125 6.371094 C 8.414062 6.019531 8.667969 7.136719 9.085938 7.261719 Z M 9.085938 7.261719 "/>
<path style=" stroke:none;fill-rule:nonzero;fill:rgb(62.745098%,1.568627%,11.764706%);fill-opacity:1;" d="M 11.1875 6.769531 C 11.1875 6.941406 10.273438 5.832031 7.5 5.832031 C 4.722656 5.832031 3.8125 6.941406 3.8125 6.769531 C 3.8125 6.597656 4.960938 5.207031 7.5 5.207031 C 10.039062 5.207031 11.1875 6.597656 11.1875 6.769531 Z M 11.1875 6.769531 "/>
<path style=" stroke:none;fill-rule:nonzero;fill:rgb(86.666667%,18.039216%,26.666667%);fill-opacity:1;" d="M 4.496094 10.179688 C 4.496094 10.007812 5.238281 11.117188 7.5 11.117188 C 9.761719 11.117188 10.503906 10.007812 10.503906 10.179688 C 10.503906 10.351562 9.566406 11.742188 7.5 11.742188 C 5.433594 11.742188 4.496094 10.351562 4.496094 10.179688 Z M 4.496094 10.179688 "/>
</g>
</svg>
