<?xml version="1.0" encoding="UTF-8"?>
<svg xmlns="http://www.w3.org/2000/svg" xmlns:xlink="http://www.w3.org/1999/xlink" width="15pt" height="15pt" viewBox="0 0 15 15" version="1.1">
<g id="surface1">
<path style=" stroke:none;fill-rule:nonzero;fill:rgb(40%,12.941176%,7.45098%);fill-opacity:1;" d="M 13.46875 4.566406 C 13.46875 4.566406 14.433594 4.574219 14.933594 5.054688 C 14.792969 2.984375 14.054688 1.621094 12.453125 0.835938 C 11.144531 0.371094 9.925781 1.441406 9.925781 1.441406 C 9.925781 1.441406 10.285156 0.613281 10.839844 0.296875 C 9.910156 0.0976562 8.8125 0 7.5 0 C 6.191406 0 5.089844 0.09375 4.164062 0.292969 C 4.722656 0.601562 5.085938 1.441406 5.085938 1.441406 C 5.085938 1.441406 3.832031 0.335938 2.5 0.855469 C 0.925781 1.644531 0.199219 3.007812 0.0664062 5.074219 C 0.558594 4.578125 1.546875 4.566406 1.546875 4.566406 C 1.546875 4.566406 -0.0429688 5.527344 0.117188 6.921875 C 0.277344 8.152344 0.699219 9.410156 1.316406 10.558594 C 1.265625 9.230469 2.464844 8.332031 2.464844 8.332031 C 2.464844 8.332031 1.425781 10.816406 2.222656 11.972656 C 3.03125 13.035156 4.019531 13.90625 5.128906 14.4375 C 4.730469 13.753906 5.074219 13.171875 5.085938 13.210938 C 5.105469 13.265625 5.277344 14.507812 5.976562 14.773438 C 6.46875 14.921875 6.976562 15 7.5 15 C 8.039062 15 8.5625 14.914062 9.066406 14.757812 C 9.738281 14.46875 9.910156 13.261719 9.925781 13.210938 C 9.941406 13.171875 10.277344 13.75 9.890625 14.429688 C 11.015625 13.882812 12.023438 12.984375 12.832031 11.898438 C 13.539062 10.714844 12.546875 8.332031 12.546875 8.332031 C 12.546875 8.332031 13.734375 9.222656 13.695312 10.535156 C 14.34375 9.324219 14.773438 7.992188 14.910156 6.703125 C 14.894531 5.429688 13.46875 4.566406 13.46875 4.566406 Z M 13.46875 4.566406 "/>
<path style=" stroke:none;fill-rule:nonzero;fill:rgb(100%,80%,30.196078%);fill-opacity:1;" d="M 5.773438 3.957031 C 6.023438 4.953125 5.839844 5.796875 4.84375 6.046875 C 3.847656 6.296875 2.195312 6.082031 1.945312 5.085938 C 1.699219 4.089844 2.140625 2.839844 2.699219 2.703125 C 3.257812 2.5625 5.527344 2.960938 5.773438 3.957031 Z M 9.566406 11.636719 C 9.566406 12.777344 8.640625 13.703125 7.5 13.703125 C 6.359375 13.703125 5.433594 12.777344 5.433594 11.636719 C 5.433594 10.496094 6.359375 9.566406 7.5 9.566406 C 8.640625 9.566406 9.566406 10.492188 9.566406 11.636719 Z M 9.566406 11.636719 "/>
<path style=" stroke:none;fill-rule:nonzero;fill:rgb(86.666667%,18.039216%,26.666667%);fill-opacity:1;" d="M 8.878906 11.636719 C 8.878906 12.398438 8.261719 13.015625 7.5 13.015625 C 6.738281 13.015625 6.121094 12.398438 6.121094 11.636719 C 6.121094 10.875 6.738281 10.257812 7.5 10.257812 C 8.261719 10.257812 8.878906 10.875 8.878906 11.636719 Z M 8.878906 11.636719 "/>
<path style=" stroke:none;fill-rule:nonzero;fill:rgb(90.196078%,66.666667%,66.666667%);fill-opacity:1;" d="M 4.605469 3.75 C 4.96875 4.328125 4.792969 5.09375 4.210938 5.457031 C 3.628906 5.820312 3.125 5.789062 2.761719 5.207031 C 2.398438 4.628906 2.683594 3.488281 2.894531 3.355469 C 3.109375 3.222656 4.242188 3.167969 4.605469 3.75 Z M 4.605469 3.75 "/>
<path style=" stroke:none;fill-rule:nonzero;fill:rgb(100%,80%,30.196078%);fill-opacity:1;" d="M 9.226562 3.957031 C 8.976562 4.953125 9.160156 5.796875 10.15625 6.046875 C 11.152344 6.296875 12.808594 6.082031 13.054688 5.085938 C 13.304688 4.089844 12.859375 2.839844 12.300781 2.703125 C 11.742188 2.5625 9.472656 2.960938 9.226562 3.957031 Z M 9.226562 3.957031 "/>
<path style=" stroke:none;fill-rule:nonzero;fill:rgb(90.196078%,66.666667%,66.666667%);fill-opacity:1;" d="M 10.394531 3.75 C 10.03125 4.328125 10.207031 5.09375 10.789062 5.457031 C 11.371094 5.820312 11.875 5.789062 12.238281 5.207031 C 12.601562 4.628906 12.316406 3.488281 12.101562 3.355469 C 11.890625 3.222656 10.757812 3.167969 10.394531 3.75 Z M 10.394531 3.75 "/>
<path style=" stroke:none;fill-rule:nonzero;fill:rgb(100%,80%,30.196078%);fill-opacity:1;" d="M 7.5 2.96875 C 2.152344 2.96875 2.96875 5.035156 3.542969 7.777344 C 4.113281 10.519531 4.328125 11.25 4.328125 11.25 L 10.671875 11.25 C 10.671875 11.25 10.882812 10.519531 11.457031 7.777344 C 12.03125 5.035156 12.84375 2.96875 7.5 2.96875 Z M 7.5 2.96875 "/>
<path style=" stroke:none;fill-rule:nonzero;fill:rgb(15.294118%,16.862745%,16.862745%);fill-opacity:1;" d="M 5 6.667969 C 5 6.667969 5 6.042969 5.625 6.042969 C 6.25 6.042969 6.25 6.667969 6.25 6.667969 L 6.25 7.292969 C 6.25 7.292969 6.25 7.917969 5.625 7.917969 C 5 7.917969 5 7.292969 5 7.292969 Z M 8.75 6.667969 C 8.75 6.667969 8.75 6.042969 9.375 6.042969 C 10 6.042969 10 6.667969 10 6.667969 L 10 7.292969 C 10 7.292969 10 7.917969 9.375 7.917969 C 8.75 7.917969 8.75 7.292969 8.75 7.292969 Z M 8.75 6.667969 "/>
<path style=" stroke:none;fill-rule:nonzero;fill:rgb(100%,90.980392%,71.372549%);fill-opacity:1;" d="M 8.402344 8.96875 C 7.738281 8.96875 7.828125 9.320312 7.5 9.847656 C 7.171875 9.320312 7.261719 8.96875 6.597656 8.96875 C 3.734375 8.96875 3.746094 9.125 3.734375 10.144531 C 3.710938 12.222656 4.902344 12.699219 5.925781 12.671875 C 6.59375 12.652344 7.175781 12.304688 7.5 11.78125 C 7.828125 12.304688 8.410156 12.652344 9.074219 12.671875 C 10.097656 12.699219 11.289062 12.222656 11.265625 10.144531 C 11.253906 9.125 11.265625 8.96875 8.402344 8.96875 Z M 8.402344 8.96875 "/>
<path style=" stroke:none;fill-rule:nonzero;fill:rgb(15.294118%,16.862745%,16.862745%);fill-opacity:1;" d="M 6.074219 8.921875 C 5.601562 9.019531 7.027344 10.765625 7.5 10.765625 C 7.972656 10.765625 9.398438 9.019531 8.925781 8.921875 C 8.449219 8.824219 6.550781 8.824219 6.074219 8.921875 Z M 6.074219 8.921875 "/>
<path style=" stroke:none;fill-rule:nonzero;fill:rgb(85.098039%,61.960784%,50.980392%);fill-opacity:1;" d="M 5 10.207031 C 5 10.324219 4.90625 10.417969 4.792969 10.417969 C 4.675781 10.417969 4.582031 10.324219 4.582031 10.207031 C 4.582031 10.09375 4.675781 10 4.792969 10 C 4.90625 10 5 10.09375 5 10.207031 Z M 5 10.207031 "/>
<path style=" stroke:none;fill-rule:nonzero;fill:rgb(85.098039%,61.960784%,50.980392%);fill-opacity:1;" d="M 4.582031 11.042969 C 4.582031 11.15625 4.488281 11.25 4.375 11.25 C 4.261719 11.25 4.167969 11.15625 4.167969 11.042969 C 4.167969 10.925781 4.261719 10.832031 4.375 10.832031 C 4.488281 10.832031 4.582031 10.925781 4.582031 11.042969 Z M 4.582031 11.042969 "/>
<path style=" stroke:none;fill-rule:nonzero;fill:rgb(85.098039%,61.960784%,50.980392%);fill-opacity:1;" d="M 5.417969 11.457031 C 5.417969 11.574219 5.324219 11.667969 5.207031 11.667969 C 5.09375 11.667969 5 11.574219 5 11.457031 C 5 11.34375 5.09375 11.25 5.207031 11.25 C 5.324219 11.25 5.417969 11.34375 5.417969 11.457031 Z M 5.417969 11.457031 "/>
<path style=" stroke:none;fill-rule:nonzero;fill:rgb(85.098039%,61.960784%,50.980392%);fill-opacity:1;" d="M 10.417969 10.207031 C 10.417969 10.324219 10.324219 10.417969 10.207031 10.417969 C 10.09375 10.417969 10 10.324219 10 10.207031 C 10 10.09375 10.09375 10 10.207031 10 C 10.324219 10 10.417969 10.09375 10.417969 10.207031 Z M 10.417969 10.207031 "/>
<path style=" stroke:none;fill-rule:nonzero;fill:rgb(85.098039%,61.960784%,50.980392%);fill-opacity:1;" d="M 10.832031 11.042969 C 10.832031 11.15625 10.738281 11.25 10.625 11.25 C 10.511719 11.25 10.417969 11.15625 10.417969 11.042969 C 10.417969 10.925781 10.511719 10.832031 10.625 10.832031 C 10.738281 10.832031 10.832031 10.925781 10.832031 11.042969 Z M 10.832031 11.042969 "/>
<path style=" stroke:none;fill-rule:nonzero;fill:rgb(85.098039%,61.960784%,50.980392%);fill-opacity:1;" d="M 10 11.457031 C 10 11.574219 9.90625 11.667969 9.792969 11.667969 C 9.675781 11.667969 9.582031 11.574219 9.582031 11.457031 C 9.582031 11.34375 9.675781 11.25 9.792969 11.25 C 9.90625 11.25 10 11.34375 10 11.457031 Z M 10 11.457031 "/>
</g>
</svg>
