<?xml version="1.0" encoding="UTF-8"?>
<svg xmlns="http://www.w3.org/2000/svg" xmlns:xlink="http://www.w3.org/1999/xlink" width="15pt" height="15pt" viewBox="0 0 15 15" version="1.1">
<g id="surface1">
<path style=" stroke:none;fill-rule:nonzero;fill:rgb(40%,12.941176%,7.45098%);fill-opacity:1;" d="M 5.625 9.785156 C 5.625 9.785156 5.164062 10.359375 5.316406 11.148438 C 5.410156 11.632812 5.867188 12.136719 6.472656 12.230469 C 6.675781 12.261719 6.777344 12.65625 6.722656 12.949219 C 6.65625 13.277344 6.429688 13.742188 6.304688 13.976562 C 6.179688 14.210938 5.933594 14.210938 5.632812 14.480469 C 5.421875 14.671875 5.347656 15 5.710938 15 L 7.300781 15 C 7.621094 15 7.824219 14.804688 7.890625 14.484375 C 7.984375 14.035156 8.347656 12.339844 8.246094 12.011719 C 8.171875 11.773438 7.921875 11.585938 7.757812 11.132812 C 7.640625 10.796875 7.917969 9.898438 7.917969 9.898438 Z M 1.058594 9.535156 C 1.058594 9.535156 1.390625 9.234375 1.617188 9.144531 C 1.847656 9.054688 2.683594 9.121094 2.894531 9.074219 C 3.109375 9.03125 3.464844 8.671875 3.464844 8.671875 C 3.464844 8.671875 4.355469 9.019531 4.367188 9.105469 C 4.375 9.191406 3.765625 9.777344 3.632812 9.933594 C 3.5 10.085938 2.667969 9.707031 2.417969 9.707031 C 2.171875 9.707031 1.652344 9.929688 1.46875 10.035156 C 1.285156 10.136719 1.257812 9.980469 1.359375 9.867188 C 1.359375 9.867188 1.191406 10.070312 1.136719 9.996094 C 1.078125 9.921875 1.230469 9.757812 1.230469 9.757812 C 1.230469 9.757812 1.089844 9.941406 1.007812 9.882812 C 0.929688 9.820312 0.929688 9.691406 1.058594 9.535156 Z M 6.007812 2.789062 C 5.910156 3.046875 5.660156 3.472656 6.152344 3.507812 C 6.648438 3.542969 6.164062 4.027344 5.722656 4.058594 C 5.285156 4.089844 3.863281 3.480469 4.019531 3.121094 C 4.175781 2.757812 4.800781 2.367188 5.285156 2.460938 C 5.773438 2.554688 6.007812 2.789062 6.007812 2.789062 Z M 6.007812 2.789062 "/>
<path style=" stroke:none;fill-rule:nonzero;fill:rgb(95.686275%,56.470588%,4.705882%);fill-opacity:1;" d="M 8.671875 2.273438 C 8.640625 2.511719 8.574219 2.6875 8.527344 2.683594 C 8.484375 2.675781 8.371094 2.238281 8.371094 2.238281 C 8.371094 2.238281 8.289062 2.722656 8.230469 2.714844 C 8.171875 2.707031 8.113281 2.273438 8.113281 2.273438 C 8.113281 2.273438 8.015625 2.714844 7.949219 2.714844 C 7.882812 2.714844 7.800781 2.273438 7.800781 2.273438 C 7.800781 2.273438 7.726562 2.710938 7.675781 2.71875 C 7.625 2.722656 7.46875 2.316406 7.46875 2.316406 C 7.46875 2.316406 7.375 2.726562 7.332031 2.726562 C 7.285156 2.726562 7.15625 2.316406 7.15625 2.316406 C 7.15625 2.316406 7.078125 2.722656 7.039062 2.722656 C 7 2.722656 6.855469 2.316406 6.855469 2.316406 C 6.855469 2.316406 6.796875 2.75 6.757812 2.761719 C 6.652344 2.785156 6.457031 2.390625 6.457031 2.390625 C 6.457031 2.390625 6.546875 2.832031 6.492188 2.839844 C 6.394531 2.851562 6.082031 2.53125 6.082031 2.53125 C 6.082031 2.53125 6.476562 2.136719 6.796875 2.070312 C 7.117188 2.003906 8.46875 1.746094 8.625 1.804688 C 8.78125 1.863281 8.671875 2.273438 8.671875 2.273438 Z M 8.40625 3.414062 C 8.347656 3.179688 8.265625 3.011719 8.222656 3.019531 C 8.175781 3.03125 8.167969 3.4375 8.167969 3.4375 C 8.167969 3.4375 7.976562 3.007812 7.921875 3.019531 C 7.863281 3.03125 7.894531 3.46875 7.894531 3.46875 C 7.894531 3.46875 7.707031 3.042969 7.640625 3.046875 C 7.578125 3.054688 7.605469 3.496094 7.605469 3.496094 C 7.605469 3.496094 7.386719 3.042969 7.332031 3.042969 C 7.28125 3.039062 7.273438 3.484375 7.273438 3.484375 C 7.273438 3.484375 7.113281 3.0625 7.066406 3.070312 C 7.023438 3.074219 6.972656 3.53125 6.972656 3.53125 C 6.972656 3.53125 6.851562 3.125 6.8125 3.128906 C 6.773438 3.132812 6.707031 3.550781 6.707031 3.550781 C 6.707031 3.550781 6.582031 3.191406 6.542969 3.183594 C 6.503906 3.171875 6.453125 3.558594 6.453125 3.558594 C 6.453125 3.558594 6.332031 3.273438 6.277344 3.253906 C 6.222656 3.234375 6.1875 3.621094 6.1875 3.621094 C 6.1875 3.621094 6.238281 3.777344 6.5625 3.808594 C 6.886719 3.839844 8.261719 3.960938 8.410156 3.886719 C 8.558594 3.8125 8.40625 3.414062 8.40625 3.414062 Z M 8.40625 3.414062 "/>
<path style=" stroke:none;fill-rule:nonzero;fill:rgb(67.058824%,49.411765%,34.901961%);fill-opacity:1;" d="M 4.597656 3.121094 C 4.644531 2.835938 5.488281 3.261719 5.660156 3.214844 C 5.835938 3.164062 6.523438 2.476562 6.710938 2.460938 C 6.898438 2.445312 8.574219 2.414062 8.761719 2.320312 C 8.949219 2.226562 8.839844 1.492188 8.667969 1.289062 C 8.496094 1.085938 7.886719 0.628906 7.164062 0.550781 C 6.445312 0.472656 5.945312 0.457031 5.710938 0.332031 C 5.472656 0.207031 4.957031 0.160156 4.597656 0.332031 C 4.238281 0.503906 2.953125 0.707031 2.421875 1.242188 C 1.890625 1.773438 1.28125 2.476562 1.140625 3.621094 C 0.996094 4.761719 1.355469 5.527344 1.578125 5.945312 C 1.742188 6.253906 2.203125 7.40625 2.3125 7.863281 C 2.421875 8.316406 3.082031 9.9375 4.367188 10.3125 C 5.65625 10.6875 6.601562 11.414062 7.777344 11.601562 C 9.113281 11.816406 11.5625 11.523438 12.816406 10.742188 C 14.066406 9.960938 14.679688 9.160156 14.679688 8.113281 C 14.679688 7.0625 14.003906 5.921875 13.066406 5.890625 C 12.125 5.859375 12.738281 6.171875 13.019531 6.234375 C 13.300781 6.296875 13.847656 6.96875 13.722656 7.566406 C 13.597656 8.160156 13.347656 8.613281 12.675781 8.628906 C 12 8.644531 11.296875 7.894531 10.921875 7.390625 C 10.546875 6.890625 8.855469 6 8.058594 5.953125 C 7.257812 5.90625 5.597656 5.90625 5.394531 5.402344 C 5.191406 4.902344 5.238281 4.652344 5.378906 4.589844 C 5.519531 4.527344 6.304688 4.355469 6.851562 4.339844 C 7.398438 4.324219 8.371094 4.183594 8.496094 3.996094 C 8.621094 3.808594 8.589844 3.417969 8.449219 3.402344 C 8.308594 3.386719 7.429688 3.480469 7.179688 3.480469 C 6.929688 3.480469 6.789062 3.277344 6.523438 3.355469 C 6.253906 3.433594 5.769531 3.730469 5.566406 3.699219 C 5.363281 3.667969 4.582031 3.214844 4.597656 3.121094 Z M 4.597656 3.121094 "/>
<path style=" stroke:none;fill-rule:nonzero;fill:rgb(54.509804%,36.862745%,23.529412%);fill-opacity:1;" d="M 11.230469 10.9375 C 10.109375 11.101562 7.960938 10.746094 7.332031 10.53125 C 6.699219 10.316406 5.40625 9.980469 4.496094 9.785156 C 3.585938 9.59375 2.878906 8.828125 2.378906 8.078125 C 2.59375 8.699219 3.242188 9.984375 4.367188 10.3125 C 5.65625 10.6875 6.601562 11.414062 7.773438 11.601562 C 9.113281 11.816406 11.5625 11.523438 12.816406 10.742188 C 13.269531 10.457031 13.636719 10.171875 13.921875 9.871094 C 13.527344 10.167969 12.347656 10.777344 11.230469 10.9375 Z M 5.339844 0.652344 C 5.898438 0.738281 5.425781 1.03125 6.457031 1.03125 C 6.457031 1.03125 5.679688 1.445312 5.363281 1.445312 C 4.824219 1.445312 4.710938 1.179688 4.710938 0.953125 C 4.710938 0.753906 5.046875 0.609375 5.339844 0.652344 Z M 5.339844 0.652344 "/>
<path style=" stroke:none;fill-rule:nonzero;fill:rgb(16.078431%,18.431373%,20%);fill-opacity:1;" d="M 5.417969 1.042969 C 5.417969 1.15625 5.324219 1.25 5.207031 1.25 C 5.09375 1.25 5 1.15625 5 1.042969 C 5 0.925781 5.09375 0.832031 5.207031 0.832031 C 5.324219 0.832031 5.417969 0.925781 5.417969 1.042969 Z M 5.417969 1.042969 "/>
<path style=" stroke:none;fill-rule:nonzero;fill:rgb(67.058824%,49.411765%,34.901961%);fill-opacity:1;" d="M 7.136719 10.320312 C 7.136719 10.320312 7.316406 10.945312 7.886719 11.507812 C 8.457031 12.070312 9.605469 12.199219 9.808594 12.230469 C 10.011719 12.261719 10.230469 12.339844 10.324219 12.621094 C 10.417969 12.902344 10.597656 13.742188 10.46875 13.976562 C 10.34375 14.210938 9.824219 14.339844 9.683594 14.609375 C 9.605469 14.757812 9.398438 15 9.761719 15 L 11.667969 15 C 11.984375 15 12.0625 14.75 12.0625 14.421875 C 12.0625 14.089844 12.171875 13.558594 11.96875 12.980469 C 11.765625 12.402344 11.6875 11.523438 11.34375 11.429688 C 11 11.335938 10.453125 10.398438 10.453125 10.398438 Z M 1.816406 11.144531 C 1.816406 11.144531 2.046875 10.730469 2.246094 10.5625 C 2.445312 10.398438 3.308594 10.183594 3.507812 10.066406 C 3.707031 9.949219 3.945312 9.46875 3.945312 9.46875 C 3.945312 9.46875 4.960938 9.519531 4.996094 9.601562 C 5.035156 9.683594 4.621094 10.480469 4.539062 10.679688 C 4.453125 10.878906 3.492188 10.78125 3.242188 10.863281 C 2.992188 10.945312 2.546875 11.34375 2.394531 11.511719 C 2.246094 11.675781 2.164062 11.527344 2.230469 11.378906 C 2.230469 11.378906 2.128906 11.640625 2.046875 11.582031 C 1.964844 11.527344 2.0625 11.3125 2.0625 11.3125 C 2.0625 11.3125 1.980469 11.542969 1.882812 11.511719 C 1.78125 11.476562 1.734375 11.347656 1.816406 11.144531 Z M 1.816406 11.144531 "/>
<path style=" stroke:none;fill-rule:nonzero;fill:rgb(54.509804%,36.862745%,23.529412%);fill-opacity:1;" d="M 6.546875 6.527344 C 6.546875 6.660156 6.4375 6.765625 6.304688 6.765625 C 6.171875 6.765625 6.066406 6.660156 6.066406 6.527344 C 6.066406 6.394531 6.171875 6.285156 6.304688 6.285156 C 6.4375 6.285156 6.546875 6.394531 6.546875 6.527344 Z M 7.820312 7.054688 C 7.820312 7.242188 7.667969 7.394531 7.480469 7.394531 C 7.289062 7.394531 7.136719 7.242188 7.136719 7.054688 C 7.136719 6.863281 7.289062 6.710938 7.480469 6.710938 C 7.667969 6.710938 7.820312 6.863281 7.820312 7.054688 Z M 7.136719 6.355469 C 7.136719 6.457031 7.058594 6.539062 6.957031 6.539062 C 6.855469 6.539062 6.773438 6.457031 6.773438 6.355469 C 6.773438 6.253906 6.855469 6.175781 6.957031 6.175781 C 7.058594 6.175781 7.136719 6.253906 7.136719 6.355469 Z M 8.371094 6.457031 C 8.371094 6.550781 8.292969 6.628906 8.199219 6.628906 C 8.101562 6.628906 8.027344 6.550781 8.027344 6.457031 C 8.027344 6.359375 8.101562 6.285156 8.199219 6.285156 C 8.292969 6.285156 8.371094 6.359375 8.371094 6.457031 Z M 9.457031 6.945312 C 9.457031 7.121094 9.316406 7.261719 9.140625 7.261719 C 8.964844 7.261719 8.824219 7.121094 8.824219 6.945312 C 8.824219 6.769531 8.964844 6.628906 9.140625 6.628906 C 9.316406 6.628906 9.457031 6.769531 9.457031 6.945312 Z M 9.457031 6.945312 "/>
<path style=" stroke:none;fill-rule:nonzero;fill:rgb(54.509804%,36.862745%,23.529412%);fill-opacity:1;" d="M 10.664062 8.46875 C 10.664062 8.578125 10.574219 8.671875 10.460938 8.671875 C 10.347656 8.671875 10.257812 8.578125 10.257812 8.46875 C 10.257812 8.355469 10.347656 8.265625 10.460938 8.265625 C 10.574219 8.265625 10.664062 8.355469 10.664062 8.46875 Z M 10.664062 8.46875 "/>
<path style=" stroke:none;fill-rule:nonzero;fill:rgb(54.509804%,36.862745%,23.529412%);fill-opacity:1;" d="M 8.777344 7.597656 C 8.777344 7.710938 8.683594 7.800781 8.574219 7.800781 C 8.460938 7.800781 8.371094 7.710938 8.371094 7.597656 C 8.371094 7.484375 8.460938 7.394531 8.574219 7.394531 C 8.683594 7.394531 8.777344 7.484375 8.777344 7.597656 Z M 8.777344 7.597656 "/>
<path style=" stroke:none;fill-rule:nonzero;fill:rgb(54.509804%,36.862745%,23.529412%);fill-opacity:1;" d="M 10.617188 7.597656 C 10.617188 7.710938 10.523438 7.800781 10.414062 7.800781 C 10.300781 7.800781 10.210938 7.710938 10.210938 7.597656 C 10.210938 7.484375 10.300781 7.394531 10.414062 7.394531 C 10.523438 7.394531 10.617188 7.484375 10.617188 7.597656 Z M 10.617188 7.597656 "/>
<path style=" stroke:none;fill-rule:nonzero;fill:rgb(54.509804%,36.862745%,23.529412%);fill-opacity:1;" d="M 9.992188 7.492188 C 9.992188 7.65625 9.859375 7.792969 9.691406 7.792969 C 9.527344 7.792969 9.390625 7.65625 9.390625 7.492188 C 9.390625 7.324219 9.527344 7.191406 9.691406 7.191406 C 9.859375 7.191406 9.992188 7.324219 9.992188 7.492188 Z M 9.992188 7.492188 "/>
</g>
</svg>
