<?xml version="1.0" encoding="UTF-8"?>
<svg xmlns="http://www.w3.org/2000/svg" xmlns:xlink="http://www.w3.org/1999/xlink" width="15pt" height="15pt" viewBox="0 0 15 15" version="1.1">
<g id="surface1">
<path style=" stroke:none;fill-rule:nonzero;fill:rgb(16.078431%,18.431373%,20%);fill-opacity:1;" d="M 6.042969 15 C 5.988281 15 5.933594 14.980469 5.894531 14.9375 C 5.8125 14.859375 5.8125 14.726562 5.894531 14.644531 L 6.667969 13.871094 L 6.667969 13.125 C 6.667969 13.011719 6.761719 12.917969 6.875 12.917969 C 6.988281 12.917969 7.082031 13.011719 7.082031 13.125 L 7.082031 14.042969 L 6.1875 14.9375 C 6.148438 14.980469 6.09375 15 6.042969 15 Z M 6.042969 15 "/>
<path style=" stroke:none;fill-rule:nonzero;fill:rgb(16.078431%,18.431373%,20%);fill-opacity:1;" d="M 6.875 14.167969 L 5.625 14.167969 C 5.511719 14.167969 5.417969 14.074219 5.417969 13.957031 C 5.417969 13.84375 5.511719 13.75 5.625 13.75 L 6.875 13.75 C 6.988281 13.75 7.082031 13.84375 7.082031 13.957031 C 7.082031 14.074219 6.988281 14.167969 6.875 14.167969 Z M 8.957031 15 C 8.90625 15 8.851562 14.980469 8.8125 14.9375 L 7.917969 14.042969 L 7.917969 13.125 C 7.917969 13.011719 8.011719 12.917969 8.125 12.917969 C 8.238281 12.917969 8.332031 13.011719 8.332031 13.125 L 8.332031 13.871094 L 9.105469 14.644531 C 9.1875 14.726562 9.1875 14.859375 9.105469 14.9375 C 9.066406 14.980469 9.011719 15 8.957031 15 Z M 8.957031 15 "/>
<path style=" stroke:none;fill-rule:nonzero;fill:rgb(16.078431%,18.431373%,20%);fill-opacity:1;" d="M 9.375 14.167969 L 8.125 14.167969 C 8.011719 14.167969 7.917969 14.074219 7.917969 13.957031 C 7.917969 13.84375 8.011719 13.75 8.125 13.75 L 9.375 13.75 C 9.488281 13.75 9.582031 13.84375 9.582031 13.957031 C 9.582031 14.074219 9.488281 14.167969 9.375 14.167969 Z M 9.375 14.167969 "/>
<path style=" stroke:none;fill-rule:nonzero;fill:rgb(65.098039%,82.745098%,53.333333%);fill-opacity:1;" d="M 15 10.796875 C 15 12.386719 14.167969 12.917969 7.5 12.917969 C 0.832031 12.917969 0 12.386719 0 10.796875 C 0 5.523438 3.359375 1.667969 7.5 1.667969 C 11.640625 1.667969 15 5.523438 15 10.796875 Z M 15 10.796875 "/>
<path style=" stroke:none;fill-rule:nonzero;fill:rgb(46.666667%,69.803922%,33.333333%);fill-opacity:1;" d="M 7.5 12.082031 C 7.414062 12.082031 7.332031 12.027344 7.300781 11.941406 C 7.265625 11.832031 7.324219 11.714844 7.433594 11.675781 L 14.308594 9.386719 C 14.417969 9.347656 14.535156 9.410156 14.574219 9.515625 C 14.609375 9.625 14.550781 9.746094 14.441406 9.78125 L 7.566406 12.074219 C 7.542969 12.078125 7.523438 12.082031 7.5 12.082031 Z M 7.5 10.832031 C 7.433594 10.832031 7.371094 10.804688 7.332031 10.746094 C 7.265625 10.652344 7.285156 10.523438 7.378906 10.457031 L 13.417969 6.082031 C 13.511719 6.011719 13.640625 6.035156 13.710938 6.128906 C 13.777344 6.21875 13.757812 6.351562 13.664062 6.417969 L 7.621094 10.792969 C 7.585938 10.820312 7.542969 10.832031 7.5 10.832031 Z M 7.5 9.167969 C 7.460938 9.167969 7.421875 9.15625 7.390625 9.132812 C 7.292969 9.074219 7.261719 8.945312 7.324219 8.847656 L 10.867188 3.222656 C 10.925781 3.125 11.054688 3.097656 11.152344 3.15625 C 11.25 3.21875 11.277344 3.347656 11.21875 3.445312 L 7.675781 9.070312 C 7.636719 9.132812 7.570312 9.167969 7.5 9.167969 Z M 7.5 9.167969 "/>
<path style=" stroke:none;fill-rule:nonzero;fill:rgb(33.333333%,67.45098%,93.333333%);fill-opacity:1;" d="M 14.375 11.25 C 14.375 11.710938 14 12.082031 13.542969 12.082031 C 13.082031 12.082031 12.707031 11.710938 12.707031 11.25 C 12.707031 10.789062 13.082031 10.417969 13.542969 10.417969 C 14 10.417969 14.375 10.789062 14.375 11.25 Z M 14.375 11.25 "/>
<path style=" stroke:none;fill-rule:nonzero;fill:rgb(33.333333%,67.45098%,93.333333%);fill-opacity:1;" d="M 14.375 8.332031 C 14.375 8.792969 14 9.167969 13.542969 9.167969 C 13.082031 9.167969 12.707031 8.792969 12.707031 8.332031 C 12.707031 7.875 13.082031 7.5 13.542969 7.5 C 14 7.5 14.375 7.875 14.375 8.332031 Z M 14.375 8.332031 "/>
<path style=" stroke:none;fill-rule:nonzero;fill:rgb(33.333333%,67.45098%,93.333333%);fill-opacity:1;" d="M 12.707031 5.417969 C 12.707031 5.875 12.335938 6.25 11.875 6.25 C 11.414062 6.25 11.042969 5.875 11.042969 5.417969 C 11.042969 4.957031 11.414062 4.582031 11.875 4.582031 C 12.335938 4.582031 12.707031 4.957031 12.707031 5.417969 Z M 12.707031 5.417969 "/>
<path style=" stroke:none;fill-rule:nonzero;fill:rgb(33.333333%,67.45098%,93.333333%);fill-opacity:1;" d="M 9.792969 3.332031 C 9.792969 3.792969 9.417969 4.167969 8.957031 4.167969 C 8.5 4.167969 8.125 3.792969 8.125 3.332031 C 8.125 2.875 8.5 2.5 8.957031 2.5 C 9.417969 2.5 9.792969 2.875 9.792969 3.332031 Z M 9.792969 3.332031 "/>
<path style=" stroke:none;fill-rule:nonzero;fill:rgb(33.333333%,67.45098%,93.333333%);fill-opacity:1;" d="M 12.292969 11.875 C 12.292969 12.21875 12.011719 12.5 11.667969 12.5 C 11.320312 12.5 11.042969 12.21875 11.042969 11.875 C 11.042969 11.53125 11.320312 11.25 11.667969 11.25 C 12.011719 11.25 12.292969 11.53125 12.292969 11.875 Z M 12.292969 11.875 "/>
<path style=" stroke:none;fill-rule:nonzero;fill:rgb(33.333333%,67.45098%,93.333333%);fill-opacity:1;" d="M 12.292969 9.375 C 12.292969 9.71875 12.011719 10 11.667969 10 C 11.320312 10 11.042969 9.71875 11.042969 9.375 C 11.042969 9.03125 11.320312 8.75 11.667969 8.75 C 12.011719 8.75 12.292969 9.03125 12.292969 9.375 Z M 12.292969 9.375 "/>
<path style=" stroke:none;fill-rule:nonzero;fill:rgb(33.333333%,67.45098%,93.333333%);fill-opacity:1;" d="M 11.042969 6.875 C 11.042969 7.21875 10.761719 7.5 10.417969 7.5 C 10.070312 7.5 9.792969 7.21875 9.792969 6.875 C 9.792969 6.53125 10.070312 6.25 10.417969 6.25 C 10.761719 6.25 11.042969 6.53125 11.042969 6.875 Z M 11.042969 6.875 "/>
<path style=" stroke:none;fill-rule:nonzero;fill:rgb(33.333333%,67.45098%,93.333333%);fill-opacity:1;" d="M 10.625 12.082031 C 10.625 12.3125 10.4375 12.5 10.207031 12.5 C 9.976562 12.5 9.792969 12.3125 9.792969 12.082031 C 9.792969 11.851562 9.976562 11.667969 10.207031 11.667969 C 10.4375 11.667969 10.625 11.851562 10.625 12.082031 Z M 10.625 12.082031 "/>
<path style=" stroke:none;fill-rule:nonzero;fill:rgb(33.333333%,67.45098%,93.333333%);fill-opacity:1;" d="M 10.625 10 C 10.625 10.230469 10.4375 10.417969 10.207031 10.417969 C 9.976562 10.417969 9.792969 10.230469 9.792969 10 C 9.792969 9.769531 9.976562 9.582031 10.207031 9.582031 C 10.4375 9.582031 10.625 9.769531 10.625 10 Z M 10.625 10 "/>
<path style=" stroke:none;fill-rule:nonzero;fill:rgb(33.333333%,67.45098%,93.333333%);fill-opacity:1;" d="M 9.375 8.332031 C 9.375 8.5625 9.1875 8.75 8.957031 8.75 C 8.726562 8.75 8.542969 8.5625 8.542969 8.332031 C 8.542969 8.101562 8.726562 7.917969 8.957031 7.917969 C 9.1875 7.917969 9.375 8.101562 9.375 8.332031 Z M 9.375 8.332031 "/>
<path style=" stroke:none;fill-rule:nonzero;fill:rgb(46.666667%,69.803922%,33.333333%);fill-opacity:1;" d="M 7.292969 12.082031 C 7.269531 12.082031 7.246094 12.078125 7.226562 12.074219 L 0.351562 9.78125 C 0.242188 9.746094 0.183594 9.625 0.21875 9.515625 C 0.253906 9.410156 0.371094 9.347656 0.484375 9.386719 L 7.359375 11.675781 C 7.464844 11.714844 7.527344 11.832031 7.488281 11.941406 C 7.460938 12.027344 7.378906 12.082031 7.292969 12.082031 Z M 7.292969 10.832031 C 7.25 10.832031 7.207031 10.820312 7.167969 10.792969 L 1.128906 6.417969 C 1.035156 6.351562 1.015625 6.222656 1.082031 6.128906 C 1.148438 6.035156 1.277344 6.015625 1.371094 6.082031 L 7.414062 10.457031 C 7.507812 10.523438 7.527344 10.65625 7.460938 10.746094 C 7.417969 10.804688 7.355469 10.832031 7.292969 10.832031 Z M 7.292969 9.167969 C 7.222656 9.167969 7.15625 9.132812 7.113281 9.070312 L 3.574219 3.445312 C 3.511719 3.347656 3.542969 3.21875 3.640625 3.15625 C 3.738281 3.097656 3.863281 3.125 3.925781 3.222656 L 7.46875 8.847656 C 7.527344 8.945312 7.5 9.074219 7.402344 9.132812 C 7.367188 9.15625 7.328125 9.167969 7.292969 9.167969 Z M 7.292969 9.167969 "/>
<path style=" stroke:none;fill-rule:nonzero;fill:rgb(46.666667%,69.803922%,33.333333%);fill-opacity:1;" d="M 7.292969 10 C 7.175781 10 7.082031 9.90625 7.082031 9.792969 L 7.082031 2.292969 C 7.082031 2.175781 7.175781 2.082031 7.292969 2.082031 C 7.40625 2.082031 7.5 2.175781 7.5 2.292969 L 7.5 9.792969 C 7.5 9.90625 7.40625 10 7.292969 10 Z M 7.292969 10 "/>
<path style=" stroke:none;fill-rule:nonzero;fill:rgb(13.333333%,40%,60%);fill-opacity:1;" d="M 6.25 6.667969 C 5.832031 5.832031 6.25 5 6.25 5 C 6.25 5 6.25 5.417969 6.667969 5.832031 C 6.667969 4.582031 7.082031 4.582031 7.082031 4.582031 C 7.082031 4.582031 7.082031 5.417969 7.5 5.832031 C 7.917969 6.25 6.25 6.667969 6.25 6.667969 Z M 9.582031 12.082031 C 9.402344 11.25 8.863281 10.808594 8.515625 10.207031 C 8.234375 9.726562 7.625 8.644531 8.460938 7.449219 C 8.683594 7.132812 7.675781 6.6875 7.5 6.667969 L 7.488281 6.667969 C 7.3125 6.6875 6.304688 7.132812 6.527344 7.449219 C 7.363281 8.644531 6.75 9.726562 6.472656 10.207031 C 6.125 10.808594 5.585938 11.25 5.40625 12.082031 C 5.253906 12.777344 6.34375 13.742188 7.488281 13.75 L 7.5 13.75 C 8.644531 13.742188 9.734375 12.777344 9.582031 12.082031 Z M 9.582031 12.082031 "/>
<path style=" stroke:none;fill-rule:nonzero;fill:rgb(16.078431%,18.431373%,20%);fill-opacity:1;" d="M 7.917969 6.667969 C 9.167969 6.667969 10.417969 7.5 10.417969 7.5 C 10.417969 7.5 9.167969 7.917969 7.917969 7.5 C 6.667969 7.082031 7.917969 6.667969 7.917969 6.667969 "/>
<path style=" stroke:none;fill-rule:nonzero;fill:rgb(13.333333%,40%,60%);fill-opacity:1;" d="M 8.75 6.667969 C 8.75 7.355469 8.191406 7.917969 7.5 7.917969 C 6.808594 7.917969 6.25 7.355469 6.25 6.667969 C 6.25 5.976562 6.808594 5.417969 7.5 5.417969 C 8.191406 5.417969 8.75 5.976562 8.75 6.667969 Z M 8.75 6.667969 "/>
<path style=" stroke:none;fill-rule:nonzero;fill:rgb(16.078431%,18.431373%,20%);fill-opacity:1;" d="M 8.332031 6.667969 C 8.332031 6.898438 8.148438 7.082031 7.917969 7.082031 C 7.6875 7.082031 7.5 6.898438 7.5 6.667969 C 7.5 6.4375 7.6875 6.25 7.917969 6.25 C 8.148438 6.25 8.332031 6.4375 8.332031 6.667969 Z M 8.332031 6.667969 "/>
<path style=" stroke:none;fill-rule:nonzero;fill:rgb(33.333333%,67.45098%,93.333333%);fill-opacity:1;" d="M 2.082031 11.25 C 2.082031 11.710938 1.710938 12.082031 1.25 12.082031 C 0.789062 12.082031 0.417969 11.710938 0.417969 11.25 C 0.417969 10.789062 0.789062 10.417969 1.25 10.417969 C 1.710938 10.417969 2.082031 10.789062 2.082031 11.25 Z M 2.082031 11.25 "/>
<path style=" stroke:none;fill-rule:nonzero;fill:rgb(33.333333%,67.45098%,93.333333%);fill-opacity:1;" d="M 2.082031 8.332031 C 2.082031 8.792969 1.710938 9.167969 1.25 9.167969 C 0.789062 9.167969 0.417969 8.792969 0.417969 8.332031 C 0.417969 7.875 0.789062 7.5 1.25 7.5 C 1.710938 7.5 2.082031 7.875 2.082031 8.332031 Z M 2.082031 8.332031 "/>
<path style=" stroke:none;fill-rule:nonzero;fill:rgb(33.333333%,67.45098%,93.333333%);fill-opacity:1;" d="M 3.75 5.417969 C 3.75 5.875 3.375 6.25 2.917969 6.25 C 2.457031 6.25 2.082031 5.875 2.082031 5.417969 C 2.082031 4.957031 2.457031 4.582031 2.917969 4.582031 C 3.375 4.582031 3.75 4.957031 3.75 5.417969 Z M 3.75 5.417969 "/>
<path style=" stroke:none;fill-rule:nonzero;fill:rgb(33.333333%,67.45098%,93.333333%);fill-opacity:1;" d="M 6.667969 3.332031 C 6.667969 3.792969 6.292969 4.167969 5.832031 4.167969 C 5.375 4.167969 5 3.792969 5 3.332031 C 5 2.875 5.375 2.5 5.832031 2.5 C 6.292969 2.5 6.667969 2.875 6.667969 3.332031 Z M 6.667969 3.332031 "/>
<path style=" stroke:none;fill-rule:nonzero;fill:rgb(33.333333%,67.45098%,93.333333%);fill-opacity:1;" d="M 3.75 11.875 C 3.75 12.21875 3.46875 12.5 3.125 12.5 C 2.78125 12.5 2.5 12.21875 2.5 11.875 C 2.5 11.53125 2.78125 11.25 3.125 11.25 C 3.46875 11.25 3.75 11.53125 3.75 11.875 Z M 3.75 11.875 "/>
<path style=" stroke:none;fill-rule:nonzero;fill:rgb(33.333333%,67.45098%,93.333333%);fill-opacity:1;" d="M 3.75 9.375 C 3.75 9.71875 3.46875 10 3.125 10 C 2.78125 10 2.5 9.71875 2.5 9.375 C 2.5 9.03125 2.78125 8.75 3.125 8.75 C 3.46875 8.75 3.75 9.03125 3.75 9.375 Z M 3.75 9.375 "/>
<path style=" stroke:none;fill-rule:nonzero;fill:rgb(33.333333%,67.45098%,93.333333%);fill-opacity:1;" d="M 5 6.875 C 5 7.21875 4.71875 7.5 4.375 7.5 C 4.03125 7.5 3.75 7.21875 3.75 6.875 C 3.75 6.53125 4.03125 6.25 4.375 6.25 C 4.71875 6.25 5 6.53125 5 6.875 Z M 5 6.875 "/>
<path style=" stroke:none;fill-rule:nonzero;fill:rgb(33.333333%,67.45098%,93.333333%);fill-opacity:1;" d="M 5 12.082031 C 5 12.3125 4.8125 12.5 4.582031 12.5 C 4.351562 12.5 4.167969 12.3125 4.167969 12.082031 C 4.167969 11.851562 4.351562 11.667969 4.582031 11.667969 C 4.8125 11.667969 5 11.851562 5 12.082031 Z M 5 12.082031 "/>
<path style=" stroke:none;fill-rule:nonzero;fill:rgb(33.333333%,67.45098%,93.333333%);fill-opacity:1;" d="M 5 10 C 5 10.230469 4.8125 10.417969 4.582031 10.417969 C 4.351562 10.417969 4.167969 10.230469 4.167969 10 C 4.167969 9.769531 4.351562 9.582031 4.582031 9.582031 C 4.8125 9.582031 5 9.769531 5 10 Z M 5 10 "/>
<path style=" stroke:none;fill-rule:nonzero;fill:rgb(33.333333%,67.45098%,93.333333%);fill-opacity:1;" d="M 6.25 8.332031 C 6.25 8.5625 6.0625 8.75 5.832031 8.75 C 5.601562 8.75 5.417969 8.5625 5.417969 8.332031 C 5.417969 8.101562 5.601562 7.917969 5.832031 7.917969 C 6.0625 7.917969 6.25 8.101562 6.25 8.332031 Z M 6.25 8.332031 "/>
</g>
</svg>
