<?xml version="1.0" encoding="UTF-8"?>
<svg xmlns="http://www.w3.org/2000/svg" xmlns:xlink="http://www.w3.org/1999/xlink" width="15pt" height="15pt" viewBox="0 0 15 15" version="1.1">
<g id="surface1">
<path style=" stroke:none;fill-rule:nonzero;fill:rgb(60%,66.666667%,70.980392%);fill-opacity:1;" d="M 4.445312 2.339844 C 3.761719 1.03125 1.847656 0.417969 1.492188 0.957031 C 1.136719 1.496094 1.789062 5.1875 2.226562 5.109375 C 2.664062 5.035156 4.445312 2.339844 4.445312 2.339844 Z M 4.445312 2.339844 "/>
<path style=" stroke:none;fill-rule:nonzero;fill:rgb(16.078431%,18.431373%,20%);fill-opacity:1;" d="M 4.101562 3.199219 C 3.570312 2.082031 2.144531 1.1875 1.890625 1.636719 C 1.710938 1.957031 1.941406 3.828125 2.207031 4.84375 Z M 4.101562 3.199219 "/>
<path style=" stroke:none;fill-rule:nonzero;fill:rgb(60%,66.666667%,70.980392%);fill-opacity:1;" d="M 10.535156 2.339844 C 11.214844 1.03125 13.128906 0.417969 13.488281 0.957031 C 13.84375 1.496094 13.191406 5.1875 12.753906 5.109375 C 12.316406 5.035156 10.535156 2.339844 10.535156 2.339844 Z M 10.535156 2.339844 "/>
<path style=" stroke:none;fill-rule:nonzero;fill:rgb(16.078431%,18.431373%,20%);fill-opacity:1;" d="M 10.984375 3.199219 C 11.496094 2.078125 12.859375 1.175781 13.097656 1.621094 C 13.269531 1.945312 13.023438 3.878906 12.757812 4.878906 Z M 10.984375 3.199219 "/>
<path style=" stroke:none;fill-rule:nonzero;fill:rgb(60%,66.666667%,70.980392%);fill-opacity:1;" d="M 13.804688 5.546875 C 12.726562 4.230469 10.035156 0.714844 7.488281 0.714844 C 4.945312 0.714844 2.25 4.230469 1.175781 5.546875 C -0.132812 7.148438 -0.0976562 9.003906 0.238281 10.082031 C 0.574219 11.160156 1.554688 12.179688 4.097656 13.175781 C 4.957031 13.515625 6.472656 14.171875 7.488281 14.171875 C 8.503906 14.171875 10.023438 13.515625 10.882812 13.175781 C 13.425781 12.179688 14.40625 11.160156 14.742188 10.082031 C 15.074219 9.003906 15.113281 7.148438 13.804688 5.546875 Z M 13.804688 5.546875 "/>
<path style=" stroke:none;fill-rule:nonzero;fill:rgb(88.235294%,90.980392%,92.941176%);fill-opacity:1;" d="M 7.488281 6.003906 C 7.488281 3.957031 5.789062 3.980469 4.765625 4.097656 C 2.882812 4.3125 0.03125 6.914062 0.03125 8.570312 C 0.03125 9.148438 0.0976562 9.667969 0.238281 10.082031 C 0.480469 10.800781 1.019531 11.335938 2.335938 12.273438 C 3.789062 8.796875 7.488281 7.589844 7.488281 6.003906 Z M 7.488281 6.003906 "/>
<path style=" stroke:none;fill-rule:nonzero;fill:rgb(16.078431%,18.431373%,20%);fill-opacity:1;" d="M 7.488281 6.574219 C 7.488281 5.574219 5.660156 5.308594 4.71875 5.457031 C 2.683594 5.785156 0.246094 8.597656 0.238281 10.027344 L 0.238281 10.035156 C 0.238281 10.035156 0.238281 10.082031 0.238281 10.082031 C 0.238281 10.082031 0.398438 10.664062 0.914062 11.253906 C 1.277344 11.667969 1.890625 12.117188 2.304688 12.332031 L 2.308594 12.324219 C 3.539062 10.71875 5.171875 9.652344 6.484375 9.152344 C 7.21875 8.871094 7.488281 7.695312 7.488281 6.574219 Z M 7.488281 6.574219 "/>
<path style=" stroke:none;fill-rule:nonzero;fill:rgb(60%,66.666667%,70.980392%);fill-opacity:1;" d="M 6.21875 7.285156 C 6.21875 7.636719 5.933594 7.921875 5.582031 7.921875 C 5.230469 7.921875 4.945312 7.636719 4.945312 7.285156 C 4.945312 6.9375 5.230469 6.652344 5.582031 6.652344 C 5.933594 6.652344 6.21875 6.9375 6.21875 7.285156 Z M 6.21875 7.285156 "/>
<path style=" stroke:none;fill-rule:nonzero;fill:rgb(88.235294%,90.980392%,92.941176%);fill-opacity:1;" d="M 7.488281 6.003906 C 7.488281 3.957031 9.1875 3.980469 10.214844 4.097656 C 12.09375 4.3125 14.949219 6.914062 14.949219 8.570312 C 14.949219 9.148438 14.882812 9.667969 14.742188 10.082031 C 14.496094 10.800781 13.960938 11.335938 12.644531 12.273438 C 11.191406 8.796875 7.488281 7.589844 7.488281 6.003906 Z M 7.488281 6.003906 "/>
<path style=" stroke:none;fill-rule:nonzero;fill:rgb(16.078431%,18.431373%,20%);fill-opacity:1;" d="M 7.488281 6.574219 C 7.488281 5.574219 9.320312 5.308594 10.261719 5.457031 C 12.296875 5.785156 14.734375 8.597656 14.742188 10.027344 L 14.742188 10.035156 C 14.742188 10.035156 14.742188 10.082031 14.742188 10.082031 C 14.742188 10.082031 14.582031 10.664062 14.066406 11.253906 C 13.703125 11.667969 13.085938 12.117188 12.675781 12.332031 L 12.671875 12.324219 C 11.441406 10.71875 9.808594 9.652344 8.496094 9.152344 C 7.761719 8.871094 7.488281 7.695312 7.488281 6.574219 Z M 7.488281 6.574219 "/>
<path style=" stroke:none;fill-rule:nonzero;fill:rgb(60%,66.666667%,70.980392%);fill-opacity:1;" d="M 10.035156 7.285156 C 10.035156 7.636719 9.75 7.921875 9.398438 7.921875 C 9.046875 7.921875 8.761719 7.636719 8.761719 7.285156 C 8.761719 6.9375 9.046875 6.652344 9.398438 6.652344 C 9.75 6.652344 10.035156 6.9375 10.035156 7.285156 Z M 10.035156 7.285156 "/>
<path style=" stroke:none;fill-rule:nonzero;fill:rgb(40%,45.882353%,49.803922%);fill-opacity:1;" d="M 8.644531 9.210938 C 8.257812 8.761719 7.914062 1.277344 7.488281 1.277344 C 7.066406 1.277344 6.71875 8.761719 6.335938 9.210938 Z M 8.644531 9.210938 "/>
<path style=" stroke:none;fill-rule:nonzero;fill:rgb(88.235294%,90.980392%,92.941176%);fill-opacity:1;" d="M 10.382812 10.078125 C 9.699219 9.21875 8.644531 8.53125 7.488281 8.53125 C 6.332031 8.53125 5.28125 9.21875 4.597656 10.078125 C 4.019531 10.804688 4.019531 11.351562 4.210938 11.835938 C 4.414062 12.34375 4.789062 13.011719 5.949219 13.5 C 6.339844 13.664062 7.027344 13.984375 7.488281 13.984375 C 7.953125 13.984375 8.640625 13.664062 9.03125 13.5 C 10.1875 13.011719 10.566406 12.34375 10.765625 11.835938 C 10.960938 11.351562 10.960938 10.804688 10.382812 10.078125 Z M 10.382812 10.078125 "/>
<path style=" stroke:none;fill-rule:nonzero;fill:rgb(16.078431%,18.431373%,20%);fill-opacity:1;" d="M 9.003906 11.820312 C 8.71875 11.585938 8.328125 11.898438 7.488281 11.898438 C 6.652344 11.898438 6.261719 11.585938 5.972656 11.820312 C 5.6875 12.054688 6.21875 12.785156 7.488281 12.785156 C 8.761719 12.785156 9.292969 12.054688 9.003906 11.820312 Z M 9.003906 11.820312 "/>
<path style=" stroke:none;fill-rule:nonzero;fill:rgb(40%,45.882353%,49.803922%);fill-opacity:1;" d="M 5.484375 10.320312 C 5.429688 10.320312 5.375 10.304688 5.324219 10.277344 C 4.070312 9.527344 1.839844 9.894531 1.296875 10.15625 C 1.136719 10.234375 0.949219 10.167969 0.871094 10.007812 C 0.796875 9.847656 0.863281 9.660156 1.019531 9.582031 C 1.746094 9.234375 4.195312 8.863281 5.648438 9.730469 C 5.800781 9.820312 5.847656 10.015625 5.757812 10.164062 C 5.699219 10.265625 5.59375 10.320312 5.484375 10.320312 Z M 5.484375 10.320312 "/>
<path style=" stroke:none;fill-rule:nonzero;fill:rgb(40%,45.882353%,49.803922%);fill-opacity:1;" d="M 0.890625 12.375 C 0.820312 12.375 0.75 12.351562 0.691406 12.304688 C 0.554688 12.195312 0.535156 11.996094 0.644531 11.859375 C 1.25 11.105469 2.683594 9.820312 5.46875 9.683594 C 5.644531 9.671875 5.792969 9.8125 5.804688 9.988281 C 5.8125 10.164062 5.675781 10.3125 5.5 10.320312 C 2.964844 10.445312 1.679688 11.585938 1.140625 12.257812 C 1.078125 12.335938 0.984375 12.375 0.890625 12.375 Z M 14.085938 12.375 C 13.996094 12.375 13.902344 12.335938 13.839844 12.257812 C 13.300781 11.585938 12.015625 10.445312 9.480469 10.320312 C 9.304688 10.3125 9.167969 10.164062 9.175781 9.988281 C 9.183594 9.8125 9.335938 9.667969 9.511719 9.683594 C 12.296875 9.820312 13.726562 11.105469 14.335938 11.859375 C 14.445312 11.996094 14.421875 12.195312 14.285156 12.304688 C 14.226562 12.351562 14.15625 12.375 14.085938 12.375 Z M 14.085938 12.375 "/>
<path style=" stroke:none;fill-rule:nonzero;fill:rgb(40%,45.882353%,49.803922%);fill-opacity:1;" d="M 9.496094 10.320312 C 9.386719 10.320312 9.28125 10.265625 9.222656 10.164062 C 9.128906 10.015625 9.179688 9.820312 9.332031 9.730469 C 10.78125 8.863281 13.234375 9.234375 13.957031 9.582031 C 14.117188 9.660156 14.183594 9.847656 14.109375 10.007812 C 14.03125 10.164062 13.84375 10.234375 13.683594 10.15625 C 13.136719 9.894531 10.90625 9.527344 9.65625 10.277344 C 9.605469 10.304688 9.550781 10.320312 9.496094 10.320312 Z M 9.496094 10.320312 "/>
<path style=" stroke:none;fill-rule:nonzero;fill:rgb(16.078431%,18.431373%,20%);fill-opacity:1;" d="M 9.003906 9.269531 C 9.003906 10.003906 7.949219 10.609375 7.488281 10.609375 C 7.03125 10.609375 5.972656 10.003906 5.972656 9.269531 C 5.972656 8.53125 6.652344 8.515625 7.488281 8.515625 C 8.328125 8.515625 9.003906 8.53125 9.003906 9.269531 Z M 9.003906 9.269531 "/>
</g>
</svg>
