<?xml version="1.0" encoding="UTF-8"?>
<svg xmlns="http://www.w3.org/2000/svg" xmlns:xlink="http://www.w3.org/1999/xlink" width="15pt" height="15pt" viewBox="0 0 15 15" version="1.1">
<g id="surface1">
<path style=" stroke:none;fill-rule:nonzero;fill:rgb(74.901961%,41.176471%,32.156863%);fill-opacity:1;" d="M 2.714844 0.371094 C 2.714844 0.777344 2.984375 2.003906 3.195312 2.472656 C 3.402344 2.9375 2.984375 2.617188 2.59375 2.152344 C 2.203125 1.683594 1.902344 1.214844 2.082031 0.71875 C 2.261719 0.222656 2.714844 -0.1875 2.714844 0.371094 Z M 2.714844 0.371094 "/>
<path style=" stroke:none;fill-rule:nonzero;fill:rgb(85.098039%,61.960784%,50.980392%);fill-opacity:1;" d="M 0.128906 4.457031 C 0.128906 4.859375 0.640625 5.332031 1.332031 5.160156 C 1.886719 5.019531 2.679688 4.59375 2.714844 4.925781 C 2.746094 5.257812 2.222656 6.371094 2.453125 7.539062 C 2.839844 9.515625 3.441406 11.238281 5.453125 11.746094 C 5.453125 11.746094 5.753906 12.902344 6.066406 13.40625 C 6.359375 13.871094 6.496094 14.25 6.253906 14.328125 C 6.015625 14.410156 4.808594 14.492188 4.300781 14.570312 C 3.792969 14.652344 3.710938 15 4.273438 15 L 7.167969 15 C 7.460938 15 7.433594 14.730469 7.246094 14.332031 C 7.058594 13.929688 7.582031 13.230469 7.496094 12.109375 C 7.667969 12.167969 8.078125 12.136719 8.320312 12.457031 C 8.558594 12.78125 9.871094 14.949219 11.988281 14.949219 C 14.105469 14.949219 14.667969 13.355469 14.828125 12.925781 C 14.988281 12.496094 14.640625 12.496094 14.375 12.84375 C 14.105469 13.191406 13.222656 13.648438 11.988281 13.472656 C 10.675781 13.285156 10.398438 11.613281 10.046875 10.59375 C 9.699219 9.578125 8.90625 7.691406 7.113281 6.640625 C 5.789062 5.867188 4.828125 6.09375 4.878906 5.242188 C 4.953125 3.980469 5.015625 3.070312 4.421875 2.371094 C 3.941406 1.804688 2.816406 1.84375 2.164062 2.238281 C 1.871094 2.414062 1.699219 2.902344 1.421875 3.113281 C 0.59375 3.75 0.132812 4.101562 0.128906 4.457031 Z M 0.128906 4.457031 "/>
<path style=" stroke:none;fill-rule:nonzero;fill:rgb(84.313725%,61.960784%,51.764706%);fill-opacity:1;" d="M 2.515625 9.425781 C 2.410156 9.648438 2.515625 9.851562 2.453125 9.992188 C 2.359375 10.199219 1.929688 10.328125 1.890625 9.976562 C 1.847656 9.628906 1.878906 9.167969 2.078125 8.90625 C 2.210938 8.730469 3.441406 7.742188 3.496094 7.703125 C 3.550781 7.660156 3.347656 6.496094 3.347656 6.496094 C 3.347656 6.496094 3.390625 6.027344 3.953125 6.132812 C 4.515625 6.242188 4.5 6.722656 4.5 7.234375 C 4.5 7.742188 4.59375 8.25 4.339844 8.371094 C 4.085938 8.492188 2.625 9.207031 2.515625 9.425781 Z M 2.515625 9.425781 "/>
<path style=" stroke:none;fill-rule:nonzero;fill:rgb(16.078431%,18.431373%,20%);fill-opacity:1;" d="M 2.773438 3.085938 C 2.773438 3.277344 2.613281 3.4375 2.414062 3.4375 C 2.214844 3.4375 2.054688 3.277344 2.054688 3.085938 C 2.054688 2.890625 2.214844 2.851562 2.414062 2.851562 C 2.613281 2.851562 2.773438 2.890625 2.773438 3.085938 Z M 2.773438 3.085938 "/>
<path style=" stroke:none;fill-rule:nonzero;fill:rgb(85.098039%,61.960784%,50.980392%);fill-opacity:1;" d="M 4.15625 0.105469 C 4.535156 -0.171875 4.574219 0.925781 4.484375 1.273438 C 4.394531 1.625 3.703125 2.53125 3.703125 2.53125 C 3.703125 2.53125 3.164062 2.792969 3.164062 2.152344 C 3.164062 1.507812 3.796875 0.371094 4.15625 0.105469 Z M 4.15625 0.105469 "/>
<path style=" stroke:none;fill-rule:nonzero;fill:rgb(74.901961%,41.176471%,32.156863%);fill-opacity:1;" d="M 4.191406 0.871094 C 4.433594 1.015625 3.648438 2.246094 3.457031 2.144531 C 3.265625 2.039062 3.867188 0.675781 4.191406 0.871094 Z M 4.191406 0.871094 "/>
<path style=" stroke:none;fill-rule:nonzero;fill:rgb(16.078431%,18.431373%,20%);fill-opacity:1;" d="M 0.128906 4.222656 C 0.492188 4.003906 0.582031 4.605469 0.460938 4.808594 C 0.339844 5.011719 -0.109375 4.371094 0.128906 4.222656 Z M 0.128906 4.222656 "/>
<path style=" stroke:none;fill-rule:nonzero;fill:rgb(74.901961%,41.176471%,32.156863%);fill-opacity:1;" d="M 3.03125 9.308594 C 2.980469 9.308594 2.929688 9.277344 2.90625 9.226562 C 2.878906 9.160156 2.910156 9.078125 2.976562 9.050781 C 3.421875 8.855469 3.804688 8.558594 3.964844 8.410156 C 4.027344 8.335938 4.179688 7.808594 4.285156 7.363281 C 4.304688 7.292969 4.378906 7.25 4.449219 7.265625 C 4.523438 7.28125 4.566406 7.355469 4.550781 7.425781 C 4.457031 7.816406 4.28125 8.484375 4.148438 8.609375 C 3.917969 8.820312 3.503906 9.113281 3.085938 9.296875 C 3.066406 9.304688 3.046875 9.308594 3.03125 9.308594 Z M 3.03125 9.308594 "/>
</g>
</svg>
