<?xml version="1.0" encoding="UTF-8"?>
<svg xmlns="http://www.w3.org/2000/svg" xmlns:xlink="http://www.w3.org/1999/xlink" width="15pt" height="15pt" viewBox="0 0 15 15" version="1.1">
<g id="surface1">
<path style=" stroke:none;fill-rule:nonzero;fill:rgb(74.509804%,9.803922%,19.215686%);fill-opacity:1;" d="M 6.1875 9.335938 L 6.160156 9.335938 C 5.277344 9.304688 4.109375 8.914062 3.558594 7.21875 C 3.5 7.046875 3.59375 6.859375 3.765625 6.800781 C 3.9375 6.746094 4.125 6.839844 4.179688 7.011719 L 4.179688 7.015625 C 4.3125 7.414062 4.707031 8.628906 6.179688 8.679688 C 6.363281 8.683594 6.503906 8.835938 6.5 9.015625 C 6.492188 9.1875 6.355469 9.324219 6.1875 9.335938 Z M 3.957031 11.683594 C 4.019531 11.589844 4.128906 11.535156 4.25 11.539062 C 5.511719 11.617188 6.15625 10.734375 6.367188 10.441406 C 6.472656 10.296875 6.679688 10.265625 6.828125 10.371094 C 6.972656 10.476562 7 10.683594 6.898438 10.828125 C 6.191406 11.800781 5.285156 12.261719 4.210938 12.195312 C 4.027344 12.183594 3.890625 12.03125 3.902344 11.847656 C 3.90625 11.785156 3.925781 11.730469 3.957031 11.683594 Z M 3.957031 11.683594 "/>
<path style=" stroke:none;fill-rule:nonzero;fill:rgb(74.509804%,9.803922%,19.215686%);fill-opacity:1;" d="M 5.984375 9.984375 C 6.160156 9.960938 6.304688 9.925781 6.410156 9.902344 L 6.484375 9.886719 C 6.660156 9.847656 6.773438 9.671875 6.734375 9.496094 C 6.699219 9.320312 6.519531 9.203125 6.34375 9.246094 L 6.265625 9.261719 C 5.8125 9.363281 4.75 9.605469 3.570312 8.785156 C 3.421875 8.679688 3.21875 8.714844 3.117188 8.863281 C 3.011719 9.015625 3.046875 9.21875 3.195312 9.320312 C 4.308594 10.097656 5.347656 10.082031 5.984375 9.984375 Z M 5.984375 9.984375 "/>
<path style=" stroke:none;fill-rule:nonzero;fill:rgb(74.509804%,9.803922%,19.215686%);fill-opacity:1;" d="M 6.417969 10.539062 C 6.574219 10.457031 6.855469 10.28125 6.855469 10.28125 C 7.011719 10.1875 7.058594 9.984375 6.964844 9.828125 C 6.871094 9.675781 6.664062 9.625 6.511719 9.722656 L 6.441406 9.765625 C 6.050781 10.011719 5.128906 10.589844 3.742188 10.207031 C 3.570312 10.15625 3.386719 10.257812 3.339844 10.433594 C 3.289062 10.609375 3.394531 10.789062 3.566406 10.839844 C 4.871094 11.199219 5.851562 10.839844 6.417969 10.539062 Z M 6.417969 10.539062 "/>
<path style=" stroke:none;fill-rule:nonzero;fill:rgb(74.509804%,9.803922%,19.215686%);fill-opacity:1;" d="M 9.097656 9.335938 L 9.125 9.335938 C 10.003906 9.304688 11.171875 8.914062 11.726562 7.21875 C 11.78125 7.046875 11.6875 6.859375 11.515625 6.800781 C 11.34375 6.746094 11.160156 6.839844 11.101562 7.011719 L 11.101562 7.015625 C 10.972656 7.414062 10.574219 8.628906 9.101562 8.679688 C 8.921875 8.683594 8.777344 8.835938 8.785156 9.015625 C 8.789062 9.1875 8.929688 9.324219 9.097656 9.335938 Z M 11.324219 11.683594 C 11.261719 11.589844 11.152344 11.535156 11.035156 11.539062 C 9.769531 11.617188 9.128906 10.734375 8.914062 10.441406 C 8.808594 10.296875 8.601562 10.265625 8.457031 10.371094 C 8.308594 10.476562 8.285156 10.683594 8.386719 10.828125 C 9.09375 11.800781 9.996094 12.261719 11.074219 12.195312 C 11.253906 12.183594 11.394531 12.03125 11.382812 11.847656 C 11.378906 11.785156 11.359375 11.730469 11.324219 11.683594 Z M 11.324219 11.683594 "/>
<path style=" stroke:none;fill-rule:nonzero;fill:rgb(74.509804%,9.803922%,19.215686%);fill-opacity:1;" d="M 9.300781 9.984375 C 9.125 9.960938 8.980469 9.925781 8.875 9.902344 L 8.796875 9.886719 C 8.621094 9.847656 8.507812 9.671875 8.546875 9.496094 C 8.585938 9.320312 8.761719 9.203125 8.9375 9.246094 L 9.019531 9.261719 C 9.472656 9.363281 10.53125 9.605469 11.710938 8.785156 C 11.859375 8.679688 12.066406 8.714844 12.167969 8.863281 C 12.273438 9.015625 12.234375 9.21875 12.085938 9.320312 C 10.976562 10.097656 9.933594 10.082031 9.300781 9.984375 Z M 9.300781 9.984375 "/>
<path style=" stroke:none;fill-rule:nonzero;fill:rgb(74.509804%,9.803922%,19.215686%);fill-opacity:1;" d="M 8.867188 10.539062 C 8.707031 10.457031 8.425781 10.28125 8.425781 10.28125 C 8.273438 10.1875 8.222656 9.984375 8.320312 9.828125 C 8.414062 9.675781 8.617188 9.625 8.769531 9.722656 L 8.839844 9.765625 C 9.234375 10.011719 10.15625 10.589844 11.539062 10.207031 C 11.714844 10.15625 11.894531 10.257812 11.945312 10.433594 C 11.992188 10.609375 11.890625 10.789062 11.714844 10.839844 C 10.410156 11.199219 9.433594 10.839844 8.867188 10.539062 Z M 8.867188 10.539062 "/>
<path style=" stroke:none;fill-rule:nonzero;fill:rgb(74.509804%,9.803922%,19.215686%);fill-opacity:1;" d="M 3.742188 2.882812 C 4.054688 2.558594 4.707031 1.859375 4.40625 1.238281 C 4.800781 1.269531 7.222656 3.804688 4.378906 5.015625 C 3.933594 4.960938 3.742188 2.882812 3.742188 2.882812 Z M 7.398438 12.632812 C 7.09375 12.769531 5.628906 13.535156 5.582031 14.90625 C 5.613281 15.234375 6.722656 14.386719 7.671875 14.386719 L 7.671875 12.945312 Z M 7.398438 12.632812 "/>
<path style=" stroke:none;fill-rule:nonzero;fill:rgb(74.509804%,9.803922%,19.215686%);fill-opacity:1;" d="M 7.929688 12.632812 C 8.234375 12.769531 9.703125 13.535156 9.746094 14.90625 C 9.714844 15.234375 8.609375 14.386719 7.65625 14.386719 L 7.65625 12.945312 Z M 3.179688 5.003906 C 3.238281 5.601562 4.421875 6.210938 5.273438 6.351562 C 5.382812 6.113281 4.710938 5.417969 4.347656 4.996094 C 4.144531 4.761719 4.054688 4.203125 3.4375 4.445312 C 2.816406 4.691406 3.179688 5.003906 3.179688 5.003906 Z M 3.179688 5.003906 "/>
<path style=" stroke:none;fill-rule:nonzero;fill:rgb(74.509804%,9.803922%,19.215686%);fill-opacity:1;" d="M 4.890625 5.746094 C 4.621094 5.746094 4.546875 6.476562 5.929688 6.808594 C 7.3125 7.136719 6.578125 6.441406 6.367188 6.113281 C 6.09375 5.691406 4.890625 5.746094 4.890625 5.746094 Z M 4.890625 5.746094 "/>
<path style=" stroke:none;fill-rule:nonzero;fill:rgb(53.72549%,0.784314%,12.156863%);fill-opacity:1;" d="M 6.445312 10.574219 C 6.367188 10.988281 6.414062 13.167969 7.675781 13.332031 L 7.675781 10.410156 Z M 6.445312 10.574219 "/>
<path style=" stroke:none;fill-rule:nonzero;fill:rgb(74.509804%,9.803922%,19.215686%);fill-opacity:1;" d="M 11.511719 2.882812 C 11.199219 2.558594 10.546875 1.859375 10.847656 1.238281 C 10.453125 1.269531 8.035156 3.804688 10.875 5.015625 C 11.320312 4.960938 11.511719 2.882812 11.511719 2.882812 Z M 11.511719 2.882812 "/>
<path style=" stroke:none;fill-rule:nonzero;fill:rgb(74.509804%,9.803922%,19.215686%);fill-opacity:1;" d="M 12.074219 5.003906 C 12.019531 5.601562 10.832031 6.210938 9.980469 6.351562 C 9.871094 6.113281 10.542969 5.417969 10.910156 4.996094 C 11.113281 4.761719 11.199219 4.203125 11.820312 4.445312 C 12.4375 4.691406 12.074219 5.003906 12.074219 5.003906 Z M 12.074219 5.003906 "/>
<path style=" stroke:none;fill-rule:nonzero;fill:rgb(74.509804%,9.803922%,19.215686%);fill-opacity:1;" d="M 10.363281 5.746094 C 10.636719 5.746094 10.707031 6.476562 9.324219 6.808594 C 7.941406 7.136719 8.675781 6.441406 8.890625 6.113281 C 9.160156 5.691406 10.363281 5.746094 10.363281 5.746094 Z M 10.363281 5.746094 "/>
<path style=" stroke:none;fill-rule:nonzero;fill:rgb(86.666667%,18.039216%,26.666667%);fill-opacity:1;" d="M 11.828125 0.015625 C 12.925781 0.296875 13.777344 2.140625 13.570312 3.285156 C 13.242188 5.078125 12.320312 5.699219 11.308594 5.855469 C 10.996094 5.832031 9.933594 4.40625 11.066406 3.242188 C 12.199219 2.078125 12.109375 0.800781 11.828125 0.015625 Z M 11.828125 0.015625 "/>
<path style=" stroke:none;fill-rule:nonzero;fill:rgb(74.509804%,9.803922%,19.215686%);fill-opacity:1;" d="M 7.308594 5.207031 C 7.203125 5.207031 7.109375 5.125 7.101562 5.015625 C 6.894531 2.371094 6.003906 0.824219 4.59375 0.660156 C 4.480469 0.644531 4.398438 0.542969 4.410156 0.425781 C 4.425781 0.3125 4.527344 0.230469 4.640625 0.246094 C 5.585938 0.355469 7.214844 1.117188 7.515625 4.984375 C 7.527344 5.097656 7.441406 5.199219 7.324219 5.207031 Z M 7.898438 5.207031 L 7.882812 5.207031 C 7.769531 5.199219 7.683594 5.097656 7.691406 4.984375 C 7.996094 1.117188 9.621094 0.355469 10.566406 0.246094 C 10.679688 0.230469 10.785156 0.3125 10.796875 0.425781 C 10.808594 0.542969 10.730469 0.644531 10.613281 0.660156 C 9.203125 0.824219 8.316406 2.371094 8.105469 5.015625 C 8.097656 5.125 8.007812 5.207031 7.898438 5.207031 Z M 7.898438 5.207031 "/>
<path style=" stroke:none;fill-rule:nonzero;fill:rgb(62.745098%,1.568627%,11.764706%);fill-opacity:1;" d="M 7.660156 9.601562 C 7.660156 10.015625 7.667969 10.984375 7.667969 11.632812 C 7.425781 11.632812 7.046875 11.625 6.652344 11.507812 C 6.027344 11.320312 6.1875 9.882812 6.394531 9.546875 Z M 7.660156 9.601562 "/>
<path style=" stroke:none;fill-rule:nonzero;fill:rgb(74.509804%,9.803922%,19.215686%);fill-opacity:1;" d="M 7.640625 8.015625 C 7.640625 8.480469 7.648438 9.558594 7.648438 10.277344 C 7.375 10.277344 6.941406 10.269531 6.492188 10.140625 C 5.785156 9.929688 5.964844 8.328125 6.203125 7.957031 Z M 7.640625 8.015625 "/>
<path style=" stroke:none;fill-rule:nonzero;fill:rgb(86.666667%,18.039216%,26.666667%);fill-opacity:1;" d="M 7.640625 4.886719 C 7.640625 5.792969 7.753906 8.5625 7.753906 8.84375 C 7.171875 8.84375 5.546875 8.984375 5.636719 7.539062 C 5.730469 6.09375 6.621094 4.886719 7.640625 4.886719 Z M 7.640625 4.886719 "/>
<path style=" stroke:none;fill-rule:nonzero;fill:rgb(53.72549%,0.784314%,12.156863%);fill-opacity:1;" d="M 8.8125 10.574219 C 8.890625 10.988281 8.84375 13.167969 7.578125 13.332031 L 7.578125 10.410156 Z M 8.8125 10.574219 "/>
<path style=" stroke:none;fill-rule:nonzero;fill:rgb(62.745098%,1.568627%,11.764706%);fill-opacity:1;" d="M 7.597656 9.601562 C 7.597656 10.015625 7.535156 10.984375 7.535156 11.632812 C 7.773438 11.632812 8.210938 11.625 8.605469 11.507812 C 9.230469 11.320312 9.070312 9.882812 8.859375 9.546875 Z M 7.597656 9.601562 "/>
<path style=" stroke:none;fill-rule:nonzero;fill:rgb(74.509804%,9.803922%,19.215686%);fill-opacity:1;" d="M 7.617188 8.015625 C 7.617188 8.480469 7.546875 9.558594 7.546875 10.277344 C 7.820312 10.277344 8.316406 10.269531 8.765625 10.140625 C 9.472656 9.929688 9.292969 8.328125 9.054688 7.957031 Z M 7.617188 8.015625 "/>
<path style=" stroke:none;fill-rule:nonzero;fill:rgb(86.666667%,18.039216%,26.666667%);fill-opacity:1;" d="M 7.617188 4.886719 C 7.617188 5.792969 7.53125 8.5625 7.53125 8.84375 C 8.113281 8.84375 9.710938 8.984375 9.617188 7.539062 C 9.527344 6.09375 8.636719 4.886719 7.617188 4.886719 Z M 3.425781 0.015625 C 2.328125 0.296875 1.476562 2.140625 1.6875 3.285156 C 2.011719 5.078125 2.933594 5.699219 3.949219 5.855469 C 4.257812 5.832031 5.320312 4.40625 4.1875 3.242188 C 3.054688 2.078125 3.144531 0.800781 3.425781 0.015625 Z M 3.425781 0.015625 "/>
<path style=" stroke:none;fill-rule:nonzero;fill:rgb(74.509804%,9.803922%,19.215686%);fill-opacity:1;" d="M 7.324219 5.316406 C 7.265625 4.992188 7.03125 4.761719 6.804688 4.800781 C 6.574219 4.84375 6.433594 5.140625 6.492188 5.464844 C 6.546875 5.789062 6.78125 6.019531 7.011719 5.980469 C 7.242188 5.9375 7.382812 5.644531 7.324219 5.316406 Z M 7.324219 5.316406 "/>
<path style=" stroke:none;fill-rule:nonzero;fill:rgb(74.509804%,9.803922%,19.215686%);fill-opacity:1;" d="M 8.386719 4.785156 C 8.15625 4.742188 7.921875 4.972656 7.863281 5.300781 C 7.808594 5.625 7.945312 5.921875 8.175781 5.960938 C 8.40625 6.003906 8.640625 5.773438 8.699219 5.445312 C 8.753906 5.121094 8.617188 4.824219 8.386719 4.785156 Z M 8.386719 4.785156 "/>
<path style=" stroke:none;fill-rule:nonzero;fill:rgb(16.078431%,18.431373%,20%);fill-opacity:1;" d="M 7.273438 5.023438 C 7.214844 4.699219 6.980469 4.46875 6.75 4.507812 C 6.519531 4.546875 6.382812 4.84375 6.4375 5.171875 C 6.496094 5.496094 6.730469 5.726562 6.960938 5.683594 C 7.191406 5.644531 7.328125 5.347656 7.273438 5.023438 Z M 7.273438 5.023438 "/>
<path style=" stroke:none;fill-rule:nonzero;fill:rgb(16.078431%,18.431373%,20%);fill-opacity:1;" d="M 8.433594 4.507812 C 8.203125 4.46875 7.96875 4.699219 7.914062 5.023438 C 7.855469 5.347656 7.996094 5.644531 8.226562 5.683594 C 8.453125 5.726562 8.6875 5.496094 8.746094 5.171875 C 8.804688 4.84375 8.664062 4.546875 8.433594 4.507812 Z M 8.433594 4.507812 "/>
<path style=" stroke:none;fill-rule:nonzero;fill:rgb(91.764706%,34.901961%,43.137255%);fill-opacity:1;" d="M 5.988281 7.878906 C 6.105469 8.230469 6.339844 8.605469 7.589844 8.605469 C 8.464844 8.605469 9.324219 8.449219 9.296875 7.8125 C 8.972656 8.085938 8.566406 8.203125 7.589844 8.203125 C 6.550781 8.203125 5.988281 7.878906 5.988281 7.878906 Z M 5.988281 7.878906 "/>
<path style=" stroke:none;fill-rule:nonzero;fill:rgb(86.666667%,18.039216%,26.666667%);fill-opacity:1;" d="M 6.363281 9.550781 C 6.453125 9.800781 6.636719 10.066406 7.601562 10.066406 C 8.277344 10.066406 8.941406 9.957031 8.921875 9.503906 C 8.671875 9.699219 8.359375 9.78125 7.601562 9.78125 C 6.796875 9.78125 6.363281 9.550781 6.363281 9.550781 Z M 6.363281 9.550781 "/>
<path style=" stroke:none;fill-rule:nonzero;fill:rgb(74.509804%,9.803922%,19.215686%);fill-opacity:1;" d="M 6.40625 10.871094 C 6.492188 11.117188 6.664062 11.382812 7.574219 11.382812 C 8.210938 11.382812 8.835938 11.273438 8.820312 10.824219 C 8.582031 11.015625 8.285156 11.101562 7.574219 11.101562 C 6.816406 11.101562 6.40625 10.871094 6.40625 10.871094 Z M 6.40625 10.871094 "/>
<path style=" stroke:none;fill-rule:nonzero;fill:rgb(91.764706%,34.901961%,43.137255%);fill-opacity:1;" d="M 3.671875 5.324219 C 3.628906 5.324219 3.582031 5.316406 3.539062 5.296875 C 2.695312 4.902344 2.222656 4.203125 2.140625 3.222656 C 2.125 3.050781 2.25 2.882812 2.421875 2.867188 C 2.59375 2.851562 2.742188 2.964844 2.757812 3.136719 L 2.761719 3.167969 C 2.789062 3.472656 2.859375 4.289062 3.804688 4.730469 C 3.960938 4.804688 4.027344 4.988281 3.953125 5.144531 C 3.902344 5.257812 3.789062 5.324219 3.671875 5.324219 Z M 11.5625 5.324219 C 11.445312 5.324219 11.332031 5.257812 11.277344 5.144531 C 11.207031 4.988281 11.273438 4.800781 11.429688 4.730469 C 12.375 4.289062 12.445312 3.472656 12.472656 3.167969 L 12.785156 3.164062 L 13.09375 3.222656 C 13.007812 4.203125 12.539062 4.902344 11.695312 5.296875 C 11.652344 5.316406 11.605469 5.324219 11.5625 5.324219 Z M 11.5625 5.324219 "/>
</g>
</svg>
