<?xml version="1.0" encoding="UTF-8"?>
<svg xmlns="http://www.w3.org/2000/svg" xmlns:xlink="http://www.w3.org/1999/xlink" width="15pt" height="15pt" viewBox="0 0 15 15" version="1.1">
<g id="surface1">
<path style=" stroke:none;fill-rule:nonzero;fill:rgb(74.509804%,9.803922%,19.215686%);fill-opacity:1;" d="M 1.859375 3.09375 C -0.03125 3.230469 -0.132812 0.800781 3.441406 1.121094 C 7.015625 1.441406 10.925781 2.539062 11.867188 1.867188 C 12.609375 1.332031 12.457031 0.363281 12.269531 0.167969 C 12.082031 -0.0273438 11.796875 0.148438 11.941406 0.453125 C 12.082031 0.753906 11.914062 1.566406 10.996094 1.648438 C 10.082031 1.730469 6.664062 1.085938 4.507812 0.78125 C 2.304688 0.472656 0.535156 0.625 0.152344 1.859375 C -0.230469 3.085938 0.960938 3.472656 1.59375 3.53125 C 2.222656 3.589844 1.859375 3.09375 1.859375 3.09375 Z M 1.859375 3.09375 "/>
<path style=" stroke:none;fill-rule:nonzero;fill:rgb(86.666667%,18.039216%,26.666667%);fill-opacity:1;" d="M 2.535156 2.796875 C 0.640625 2.796875 0.710938 0.363281 4.253906 0.9375 C 7.796875 1.511719 11.621094 2.878906 12.605469 2.273438 C 13.386719 1.796875 13.296875 0.816406 13.125 0.609375 C 12.953125 0.398438 12.65625 0.554688 12.777344 0.867188 C 12.898438 1.179688 12.671875 1.980469 11.753906 1.996094 C 10.832031 2.015625 7.472656 1.128906 5.339844 0.675781 C 3.167969 0.210938 1.390625 0.238281 0.921875 1.441406 C 0.453125 2.640625 1.613281 3.109375 2.238281 3.210938 C 2.863281 3.316406 2.535156 2.796875 2.535156 2.796875 Z M 2.535156 2.796875 "/>
<path style=" stroke:none;fill-rule:nonzero;fill:rgb(86.666667%,18.039216%,26.666667%);fill-opacity:1;" d="M 13.90625 5.519531 C 12.847656 3.882812 11.089844 2.757812 9.21875 2.402344 C 6.167969 1.820312 2.003906 2.058594 0.832031 3.75 C 0.597656 4.089844 0.632812 5.695312 2.082031 6.25 C 2.816406 6.53125 4.808594 6.183594 6.183594 6.058594 L 6.09375 6.78125 C 6.0625 7.007812 6.222656 7.21875 6.453125 7.246094 C 6.679688 7.277344 6.890625 7.113281 6.917969 6.886719 L 7.027344 6.019531 C 7.359375 6.027344 7.683594 6.058594 8.003906 6.117188 L 7.753906 6.933594 C 7.683594 7.152344 7.808594 7.382812 8.027344 7.453125 C 8.25 7.519531 8.480469 7.394531 8.550781 7.175781 L 8.816406 6.304688 C 9.125 6.398438 9.429688 6.515625 9.738281 6.648438 L 9.304688 7.355469 C 9.183594 7.550781 9.246094 7.808594 9.441406 7.929688 C 9.636719 8.050781 9.894531 7.988281 10.015625 7.792969 L 10.488281 7.019531 C 10.527344 7.039062 10.5625 7.058594 10.597656 7.078125 C 11.769531 7.726562 12.484375 9.550781 12.453125 10.226562 C 12.441406 10.5625 12.523438 10.8125 12.707031 10.964844 C 13.039062 11.234375 13.574219 11.105469 13.964844 11.011719 C 14.097656 10.980469 14.234375 10.945312 14.296875 10.949219 L 14.425781 10.535156 L 14.464844 10.417969 C 15.289062 8.011719 14.617188 6.617188 13.90625 5.519531 Z M 13.90625 5.519531 "/>
<path style=" stroke:none;fill-rule:nonzero;fill:rgb(74.509804%,9.803922%,19.215686%);fill-opacity:1;" d="M 9.246094 3.542969 C 8.992188 4.019531 9.304688 3.933594 9.675781 3.570312 C 9.921875 3.328125 10.316406 3.0625 10.734375 2.875 C 10.5 2.773438 10.261719 2.683594 10.019531 2.605469 C 9.691406 2.921875 9.382812 3.285156 9.246094 3.542969 Z M 11.738281 4.832031 C 12.269531 4.570312 12.917969 4.742188 13.554688 5.035156 C 13.269531 4.667969 12.945312 4.335938 12.597656 4.039062 C 12.296875 4.054688 12 4.144531 11.75 4.332031 C 11.332031 4.636719 10.828125 5.285156 11.738281 4.832031 Z M 13.347656 6.460938 C 12.851562 6.605469 12.15625 7.042969 13.167969 6.929688 C 13.753906 6.863281 14.304688 7.25 14.804688 7.742188 C 14.746094 7.304688 14.628906 6.917969 14.476562 6.566406 C 14.132812 6.410156 13.730469 6.347656 13.347656 6.460938 Z M 14.367188 10.058594 C 14.199219 9.972656 13.53125 10.796875 12.828125 9.75 C 12.828125 9.75 12.828125 9.75 12.824219 9.746094 C 12.792969 9.257812 12.566406 7.15625 10.371094 6 C 10.140625 5.878906 9.886719 5.765625 9.605469 5.667969 C 9.253906 5.542969 8.863281 5.441406 8.429688 5.371094 C 8.203125 5.332031 7.972656 5.300781 7.726562 5.277344 C 7.683594 5.273438 7.640625 5.273438 7.59375 5.269531 C 7.183594 5.242188 6.761719 5.242188 6.335938 5.269531 C 6.058594 5.285156 5.78125 5.308594 5.503906 5.339844 C 3.847656 5.515625 2.234375 5.855469 1.132812 5.527344 C 1.34375 5.820312 1.648438 6.082031 2.082031 6.25 C 2.703125 6.488281 4.222656 6.273438 5.507812 6.128906 L 5.511719 6.222656 C 5.511719 6.453125 5.699219 6.636719 5.929688 6.636719 C 6.160156 6.632812 6.34375 6.445312 6.34375 6.214844 L 6.339844 6.042969 C 6.589844 6.023438 6.816406 6.011719 7.003906 6.015625 C 7.140625 6.019531 7.277344 6.027344 7.410156 6.039062 L 7.371094 6.210938 C 7.316406 6.433594 7.457031 6.65625 7.679688 6.710938 C 7.902344 6.765625 8.128906 6.625 8.183594 6.402344 L 8.238281 6.160156 C 8.566406 6.230469 8.890625 6.324219 9.214844 6.441406 L 9.105469 6.660156 C 9 6.863281 9.085938 7.113281 9.289062 7.21875 C 9.496094 7.320312 9.746094 7.238281 9.847656 7.035156 L 9.984375 6.765625 C 10.1875 6.859375 10.390625 6.964844 10.597656 7.078125 C 11.761719 7.722656 12.476562 9.53125 12.453125 10.214844 C 12.445312 10.265625 12.441406 10.316406 12.441406 10.375 C 12.445312 10.585938 12.394531 10.832031 12.289062 11.101562 C 12.078125 11.648438 11.648438 12.269531 11.199219 12.675781 C 11.023438 12.832031 10.898438 13.007812 10.824219 13.199219 C 10.691406 13.542969 10.753906 13.902344 10.984375 14.085938 C 11.03125 14.121094 11.078125 14.148438 11.128906 14.167969 C 12.519531 12.910156 11.992188 13.597656 12.335938 14.632812 C 12.476562 14.886719 12.679688 14.949219 12.78125 14.960938 C 13.074219 15 13.367188 14.796875 13.523438 14.441406 L 13.542969 14.394531 C 13.777344 13.789062 14.449219 10.785156 14.511719 10.34375 C 14.53125 10.226562 14.472656 10.113281 14.367188 10.058594 Z M 14.367188 10.058594 "/>
<path style=" stroke:none;fill-rule:nonzero;fill:rgb(16.078431%,18.431373%,20%);fill-opacity:1;" d="M 11.128906 14.167969 C 11.292969 14.230469 11.480469 14.207031 11.648438 14.09375 C 11.875 13.949219 12.019531 13.925781 12.078125 13.953125 C 12.140625 13.980469 12.195312 14.097656 12.222656 14.269531 C 12.246094 14.421875 12.289062 14.539062 12.339844 14.632812 C 11.992188 13.597656 13.148438 11.828125 11.128906 14.167969 Z M 11.128906 14.167969 "/>
<path style=" stroke:none;fill-rule:nonzero;fill:rgb(16.078431%,18.431373%,20%);fill-opacity:1;" d="M 3.332031 3.75 C 3.332031 3.980469 3.148438 4.167969 2.917969 4.167969 C 2.6875 4.167969 2.5 3.980469 2.5 3.75 C 2.5 3.519531 2.6875 3.332031 2.917969 3.332031 C 3.148438 3.332031 3.332031 3.519531 3.332031 3.75 Z M 3.332031 3.75 "/>
</g>
</svg>
