<?xml version="1.0" encoding="UTF-8"?>
<svg xmlns="http://www.w3.org/2000/svg" xmlns:xlink="http://www.w3.org/1999/xlink" width="15pt" height="15pt" viewBox="0 0 15 15" version="1.1">
<g id="surface1">
<path style=" stroke:none;fill-rule:nonzero;fill:rgb(91.764706%,34.901961%,43.137255%);fill-opacity:1;" d="M 12.917969 4.582031 C 12.917969 2.082031 7.5 0 7.5 0 L 7.5 10.417969 C 7.5 10.417969 12.917969 7.082031 12.917969 4.582031 Z M 12.917969 4.582031 "/>
<path style=" stroke:none;fill-rule:nonzero;fill:rgb(91.764706%,34.901961%,43.137255%);fill-opacity:1;" d="M 2.085938 4.582031 C 2.085938 2.082031 7.5 0 7.5 0 L 7.5 10.417969 C 7.5 10.417969 2.085938 7.082031 2.085938 4.582031 Z M 2.085938 4.582031 "/>
<path style=" stroke:none;fill-rule:nonzero;fill:rgb(95.686275%,67.058824%,72.941176%);fill-opacity:1;" d="M 11.25 4.582031 C 11.25 6.179688 7.5 9.582031 7.5 9.582031 C 7.5 9.582031 3.75 6.179688 3.75 4.582031 C 3.75 2.5 7.5 0 7.5 0 C 7.5 0 11.25 2.5 11.25 4.582031 Z M 11.25 4.582031 "/>
<path style=" stroke:none;fill-rule:nonzero;fill:rgb(74.509804%,9.803922%,19.215686%);fill-opacity:1;" d="M 5.417969 6.609375 C 6.480469 8.382812 4.664062 10.402344 3.601562 10.046875 C 2.539062 9.691406 2.183594 10.753906 3.246094 11.109375 C 4.308594 11.464844 6.601562 10.945312 7.855469 9.691406 C 8.210938 9.339844 8.5625 9.339844 8.5625 9.339844 Z M 5.417969 6.609375 "/>
<path style=" stroke:none;fill-rule:nonzero;fill:rgb(74.509804%,9.803922%,19.215686%);fill-opacity:1;" d="M 9.582031 6.609375 C 8.519531 8.382812 10.335938 10.402344 11.398438 10.046875 C 12.460938 9.691406 12.816406 10.753906 11.753906 11.109375 C 10.691406 11.464844 8.398438 10.945312 7.144531 9.691406 C 6.789062 9.339844 6.4375 9.339844 6.4375 9.339844 Z M 9.582031 6.609375 "/>
<path style=" stroke:none;fill-rule:nonzero;fill:rgb(91.764706%,34.901961%,43.137255%);fill-opacity:1;" d="M 3.75 7.082031 C 4.8125 8.855469 3.179688 11.820312 2.117188 11.464844 C 1.054688 11.109375 0.699219 12.171875 1.761719 12.527344 C 2.824219 12.882812 5.117188 12.363281 6.371094 11.109375 C 6.722656 10.753906 7.078125 10.753906 7.078125 10.753906 Z M 11.246094 7.082031 C 10.183594 8.855469 11.816406 11.820312 12.878906 11.464844 C 13.941406 11.109375 14.296875 12.171875 13.234375 12.527344 C 12.171875 12.882812 9.878906 12.363281 8.625 11.109375 C 8.269531 10.753906 7.917969 10.753906 7.917969 10.753906 Z M 11.246094 7.082031 "/>
<path style=" stroke:none;fill-rule:nonzero;fill:rgb(95.686275%,67.058824%,72.941176%);fill-opacity:1;" d="M 12.882812 13.480469 C 11.917969 13.800781 10 11.25 10.417969 8.75 C 11.25 6.667969 8.75 5.632812 8.75 4.589844 C 8.75 2.046875 7.902344 0.535156 7.488281 0.535156 C 7.070312 0.535156 6.25 2.046875 6.25 4.589844 C 6.25 5.632812 3.75 6.667969 4.582031 8.75 C 5 11.25 3.082031 13.800781 2.117188 13.480469 C 1.054688 13.125 0.699219 14.542969 1.761719 14.898438 C 2.824219 15.25 4.707031 14.675781 6.015625 13.480469 C 6.792969 12.769531 7.5 12.769531 7.5 12.769531 C 7.5 12.769531 8.207031 12.769531 8.984375 13.480469 C 10.292969 14.675781 12.175781 15.25 13.238281 14.894531 C 14.300781 14.542969 13.945312 13.125 12.882812 13.480469 Z M 12.882812 13.480469 "/>
<path style=" stroke:none;fill-rule:nonzero;fill:rgb(16.078431%,18.431373%,20%);fill-opacity:1;" d="M 7.082031 9.792969 C 7.082031 10.367188 6.617188 10.832031 6.042969 10.832031 C 5.464844 10.832031 5 10.367188 5 9.792969 C 5 9.214844 5.464844 8.75 6.042969 8.75 C 6.617188 8.75 7.082031 9.214844 7.082031 9.792969 Z M 7.082031 9.792969 "/>
<path style=" stroke:none;fill-rule:nonzero;fill:rgb(16.078431%,18.431373%,20%);fill-opacity:1;" d="M 10 9.792969 C 10 10.367188 9.535156 10.832031 8.957031 10.832031 C 8.382812 10.832031 7.917969 10.367188 7.917969 9.792969 C 7.917969 9.214844 8.382812 8.75 8.957031 8.75 C 9.535156 8.75 10 9.214844 10 9.792969 Z M 10 9.792969 "/>
</g>
</svg>
