<?xml version="1.0" encoding="UTF-8"?>
<svg xmlns="http://www.w3.org/2000/svg" xmlns:xlink="http://www.w3.org/1999/xlink" width="15pt" height="15pt" viewBox="0 0 15 15" version="1.1">
<g id="surface1">
<path style=" stroke:none;fill-rule:nonzero;fill:rgb(19.215686%,21.568627%,23.921569%);fill-opacity:1;" d="M 6.351562 4.582031 C 5.503906 4.582031 4.5625 4.546875 4.121094 4.105469 C 3.878906 3.863281 3.972656 3.402344 4.070312 2.917969 C 4.132812 2.605469 4.230469 2.132812 4.121094 2.019531 C 4.035156 1.933594 3.671875 1.742188 3.347656 1.578125 C 2.855469 1.320312 2.292969 1.027344 2.039062 0.773438 C 1.957031 0.691406 1.957031 0.558594 2.039062 0.476562 C 2.121094 0.398438 2.25 0.398438 2.332031 0.476562 C 2.542969 0.6875 3.097656 0.976562 3.542969 1.207031 C 4.003906 1.445312 4.292969 1.601562 4.417969 1.730469 C 4.683594 2 4.582031 2.484375 4.476562 3 C 4.421875 3.273438 4.332031 3.726562 4.417969 3.8125 C 4.773438 4.167969 5.839844 4.167969 6.351562 4.167969 C 6.46875 4.167969 6.558594 4.261719 6.558594 4.375 C 6.558594 4.488281 6.46875 4.582031 6.351562 4.582031 Z M 0.519531 10.832031 C 0.488281 10.832031 0.457031 10.828125 0.425781 10.8125 C 0.324219 10.757812 0.28125 10.632812 0.332031 10.53125 C 0.707031 9.785156 1.671875 9.246094 2.191406 8.957031 C 2.324219 8.886719 2.425781 8.832031 2.476562 8.792969 C 2.507812 8.730469 2.566406 8.324219 2.609375 8 C 2.730469 7.15625 2.863281 6.199219 3.3125 5.875 C 4.527344 4.992188 6.527344 5 6.722656 5.25 L 6.847656 5.402344 L 6.699219 5.550781 C 6.621094 5.621094 6.5 5.617188 6.421875 5.550781 C 6.105469 5.488281 4.589844 5.464844 3.558594 6.210938 C 3.25 6.433594 3.113281 7.410156 3.023438 8.058594 C 2.929688 8.726562 2.886719 9.003906 2.726562 9.125 C 2.660156 9.175781 2.550781 9.238281 2.394531 9.324219 C 1.914062 9.589844 1.019531 10.089844 0.703125 10.71875 C 0.667969 10.789062 0.59375 10.832031 0.519531 10.832031 Z M 0.519531 10.832031 "/>
<path style=" stroke:none;fill-rule:nonzero;fill:rgb(19.215686%,21.568627%,23.921569%);fill-opacity:1;" d="M 2.183594 15 C 2.109375 15 2.035156 14.957031 2 14.886719 C 1.945312 14.78125 1.988281 14.65625 2.09375 14.605469 C 2.335938 14.453125 4.058594 12.199219 4.058594 11.457031 C 4.058594 10.988281 3.917969 10.214844 3.800781 9.59375 C 3.714844 9.113281 3.644531 8.734375 3.644531 8.542969 C 3.644531 7.992188 5.429688 6.238281 6.265625 5.851562 C 6.367188 5.804688 6.492188 5.847656 6.542969 5.953125 C 6.589844 6.058594 6.542969 6.183594 6.441406 6.230469 C 5.636719 6.601562 4.09375 8.21875 4.058594 8.542969 C 4.058594 8.695312 4.132812 9.09375 4.210938 9.515625 C 4.332031 10.15625 4.476562 10.949219 4.476562 11.457031 C 4.476562 12.351562 2.664062 14.785156 2.277344 14.976562 C 2.25 14.992188 2.214844 15 2.183594 15 Z M 8.648438 4.582031 C 8.53125 4.582031 8.441406 4.488281 8.441406 4.375 C 8.441406 4.261719 8.53125 4.167969 8.648438 4.167969 C 9.160156 4.167969 10.226562 4.167969 10.582031 3.8125 C 10.667969 3.726562 10.578125 3.269531 10.523438 3 C 10.417969 2.484375 10.320312 2 10.582031 1.730469 C 10.707031 1.601562 10.996094 1.445312 11.457031 1.207031 C 11.902344 0.976562 12.457031 0.6875 12.667969 0.476562 C 12.75 0.394531 12.878906 0.394531 12.960938 0.476562 C 13.042969 0.558594 13.042969 0.691406 12.960938 0.773438 C 12.707031 1.027344 12.144531 1.320312 11.652344 1.578125 C 11.328125 1.742188 10.964844 1.933594 10.878906 2.019531 C 10.769531 2.132812 10.867188 2.605469 10.929688 2.917969 C 11.027344 3.402344 11.121094 3.863281 10.878906 4.105469 C 10.4375 4.546875 9.496094 4.582031 8.648438 4.582031 Z M 14.480469 10.832031 C 14.40625 10.832031 14.332031 10.789062 14.296875 10.71875 C 13.980469 10.085938 13.085938 9.589844 12.605469 9.324219 C 12.449219 9.238281 12.335938 9.175781 12.273438 9.125 C 12.113281 9.003906 12.070312 8.726562 11.976562 8.058594 C 11.886719 7.410156 11.75 6.433594 11.441406 6.210938 C 10.414062 5.464844 8.894531 5.488281 8.578125 5.546875 C 8.5 5.617188 8.378906 5.621094 8.300781 5.546875 C 8.21875 5.476562 8.207031 5.335938 8.277344 5.25 C 8.472656 5 10.472656 4.992188 11.6875 5.871094 C 12.136719 6.199219 12.269531 7.15625 12.390625 8 C 12.433594 8.324219 12.492188 8.730469 12.546875 8.8125 C 12.574219 8.832031 12.675781 8.886719 12.808594 8.957031 C 13.328125 9.246094 14.292969 9.785156 14.667969 10.53125 C 14.71875 10.632812 14.675781 10.761719 14.574219 10.8125 C 14.542969 10.828125 14.511719 10.832031 14.480469 10.832031 Z M 14.480469 10.832031 "/>
<path style=" stroke:none;fill-rule:nonzero;fill:rgb(19.215686%,21.568627%,23.921569%);fill-opacity:1;" d="M 12.808594 15 C 12.78125 15 12.75 14.992188 12.722656 14.976562 C 12.335938 14.785156 10.523438 12.351562 10.523438 11.457031 C 10.523438 10.949219 10.671875 10.15625 10.789062 9.515625 C 10.867188 9.09375 10.941406 8.695312 10.941406 8.542969 C 10.90625 8.21875 9.363281 6.601562 8.558594 6.230469 C 8.457031 6.183594 8.410156 6.058594 8.460938 5.953125 C 8.507812 5.847656 8.632812 5.804688 8.734375 5.851562 C 9.570312 6.238281 11.355469 7.992188 11.355469 8.542969 C 11.355469 8.734375 11.285156 9.113281 11.199219 9.59375 C 11.082031 10.214844 10.941406 10.988281 10.941406 11.457031 C 10.941406 12.199219 12.664062 14.453125 12.910156 14.609375 C 13.007812 14.667969 13.042969 14.792969 12.988281 14.890625 C 12.953125 14.957031 12.882812 15 12.808594 15 Z M 12.808594 15 "/>
<path style=" stroke:none;fill-rule:nonzero;fill:rgb(0%,0%,0%);fill-opacity:1;" d="M 6.667969 2.917969 C 6.667969 3.148438 6.480469 3.332031 6.25 3.332031 C 6.019531 3.332031 5.832031 3.148438 5.832031 2.917969 C 5.832031 2.6875 6.019531 2.5 6.25 2.5 C 6.480469 2.5 6.667969 2.6875 6.667969 2.917969 Z M 6.667969 2.917969 "/>
<path style=" stroke:none;fill-rule:nonzero;fill:rgb(0%,0%,0%);fill-opacity:1;" d="M 9.167969 2.917969 C 9.167969 3.148438 8.980469 3.332031 8.75 3.332031 C 8.519531 3.332031 8.332031 3.148438 8.332031 2.917969 C 8.332031 2.6875 8.519531 2.5 8.75 2.5 C 8.980469 2.5 9.167969 2.6875 9.167969 2.917969 Z M 9.167969 2.917969 "/>
<path style=" stroke:none;fill-rule:nonzero;fill:rgb(40%,45.882353%,49.803922%);fill-opacity:1;" d="M 7.082031 2.5 C 7.082031 2.5 7.265625 0 7.5 0 C 7.734375 0 7.917969 2.5 7.917969 2.5 Z M 7.082031 2.5 "/>
<path style=" stroke:none;fill-rule:nonzero;fill:rgb(40%,45.882353%,49.803922%);fill-opacity:1;" d="M 8.75 3.332031 C 8.75 4.023438 8.019531 4.167969 7.5 4.167969 C 6.980469 4.167969 6.25 4.023438 6.25 3.332031 C 6.25 2.644531 6.980469 2.082031 7.5 2.082031 C 8.019531 2.082031 8.75 2.644531 8.75 3.332031 Z M 9.582031 9.167969 C 9.582031 10.316406 8.652344 13.332031 7.5 13.332031 C 6.347656 13.332031 5.417969 10.316406 5.417969 9.167969 C 5.417969 8.015625 6.347656 5.832031 7.5 5.832031 C 8.652344 5.832031 9.582031 8.015625 9.582031 9.167969 Z M 9.582031 9.167969 "/>
<path style=" stroke:none;fill-rule:nonzero;fill:rgb(40%,45.882353%,49.803922%);fill-opacity:1;" d="M 9.167969 5.207031 C 9.167969 4.402344 8.421875 3.75 7.5 3.75 C 6.578125 3.75 5.832031 4.402344 5.832031 5.207031 C 5.832031 6.015625 6.578125 6.667969 7.5 6.667969 C 8.421875 6.667969 9.167969 6.015625 9.167969 5.207031 Z M 9.167969 5.207031 "/>
<path style=" stroke:none;fill-rule:nonzero;fill:rgb(80%,83.921569%,86.666667%);fill-opacity:1;" d="M 8.332031 4.582031 C 8.332031 4.582031 13.75 5.417969 14.582031 5.832031 C 15.417969 6.25 13.332031 7.5 11.667969 7.082031 C 9.605469 6.566406 7.5 4.582031 8.332031 4.582031 Z M 8.332031 4.582031 "/>
<path style=" stroke:none;fill-rule:nonzero;fill:rgb(88.235294%,90.980392%,92.941176%);fill-opacity:1;" d="M 8.332031 4.582031 C 8.332031 4.582031 13.75 5.417969 14.582031 5.832031 C 15.417969 6.25 13.332031 6.25 11.667969 5.832031 C 9.605469 5.316406 7.5 4.582031 8.332031 4.582031 Z M 8.332031 4.582031 "/>
<path style=" stroke:none;fill-rule:nonzero;fill:rgb(80%,83.921569%,86.666667%);fill-opacity:1;" d="M 6.667969 4.582031 C 6.667969 4.582031 1.253906 5.417969 0.417969 5.832031 C -0.414062 6.25 1.667969 7.5 3.335938 7.082031 C 5.398438 6.566406 7.503906 4.582031 6.667969 4.582031 Z M 6.667969 4.582031 "/>
<path style=" stroke:none;fill-rule:nonzero;fill:rgb(88.235294%,90.980392%,92.941176%);fill-opacity:1;" d="M 6.667969 4.582031 C 6.667969 4.582031 1.253906 5.417969 0.417969 5.832031 C -0.414062 6.25 1.667969 6.25 3.335938 5.832031 C 5.398438 5.316406 7.503906 4.582031 6.667969 4.582031 Z M 6.667969 4.582031 "/>
</g>
</svg>
