<?xml version="1.0" encoding="UTF-8"?>
<svg xmlns="http://www.w3.org/2000/svg" xmlns:xlink="http://www.w3.org/1999/xlink" width="15pt" height="15pt" viewBox="0 0 15 15" version="1.1">
<g id="surface1">
<path style=" stroke:none;fill-rule:nonzero;fill:rgb(95.686275%,56.470588%,4.705882%);fill-opacity:1;" d="M 9.257812 14.839844 C 8.921875 14.78125 8.699219 14.460938 8.757812 14.125 L 9.003906 12.734375 C 9.003906 12.734375 9.285156 11.414062 8.554688 10.460938 C 9.078125 9.972656 10.648438 10.496094 10.648438 10.496094 L 9.96875 14.339844 C 9.910156 14.675781 9.59375 14.898438 9.257812 14.839844 Z M 3.96875 14.832031 C 3.632812 14.773438 3.410156 14.453125 3.46875 14.117188 L 4.015625 11.191406 C 4.015625 11.191406 4.226562 10.183594 4.226562 9.339844 C 4.699219 9.15625 5.359375 10.488281 5.359375 10.488281 L 4.683594 14.332031 C 4.621094 14.667969 4.304688 14.890625 3.96875 14.832031 Z M 12.835938 10.738281 C 12.609375 10.738281 12.425781 10.558594 12.421875 10.335938 C 12.417969 10.03125 12.296875 8.53125 10.371094 8.53125 C 10.144531 8.53125 9.960938 8.347656 9.960938 8.121094 C 9.960938 7.894531 10.144531 7.710938 10.371094 7.710938 C 12.605469 7.710938 13.230469 9.351562 13.246094 10.320312 C 13.25 10.546875 13.066406 10.734375 12.839844 10.738281 Z M 12.835938 10.738281 "/>
<path style=" stroke:none;fill-rule:nonzero;fill:rgb(45.882353%,29.803922%,16.078431%);fill-opacity:1;" d="M 6.34375 7.1875 L 4.902344 2.195312 L 5.605469 1.773438 C 5.757812 2.027344 5.867188 2.488281 6.042969 3.285156 C 6.28125 4.351562 6.605469 5.808594 7.152344 6.566406 C 7.285156 6.75 7.242188 7.007812 7.058594 7.140625 C 6.984375 7.191406 6.34375 7.1875 6.34375 7.1875 Z M 3.171875 1.128906 L 3.171875 0.308594 C 3.171875 0.136719 3.3125 0 3.480469 0 C 3.652344 0 3.789062 0.136719 3.789062 0.308594 L 3.789062 1.128906 Z M 4.144531 1.128906 L 4.144531 0.308594 C 4.144531 0.136719 4.28125 0 4.453125 0 C 4.621094 0 4.761719 0.136719 4.761719 0.308594 L 4.761719 1.128906 Z M 4.144531 1.128906 "/>
<path style=" stroke:none;fill-rule:nonzero;fill:rgb(45.882353%,29.803922%,16.078431%);fill-opacity:1;" d="M 13.65625 10.941406 C 13.65625 10.375 13.289062 9.917969 12.835938 9.917969 C 12.378906 9.917969 12.011719 10.375 12.011719 10.941406 C 12.011719 11.511719 12.378906 11.96875 12.835938 11.96875 C 13.289062 11.96875 13.65625 11.511719 13.65625 10.941406 Z M 13.65625 10.941406 "/>
<path style=" stroke:none;fill-rule:nonzero;fill:rgb(100%,80%,30.196078%);fill-opacity:1;" d="M 12.054688 14.207031 C 12.054688 14.207031 11.785156 13.15625 11.640625 12.476562 C 11.503906 11.828125 11.214844 10.816406 11.152344 9.046875 C 11.148438 8.988281 11.136719 8.835938 11.09375 8.722656 C 11.042969 8.585938 10.859375 8.335938 10.777344 8.222656 C 10.453125 7.785156 9.9375 7.515625 9.308594 7.453125 C 8.773438 7.398438 8.234375 7.375 7.699219 7.3125 C 7.453125 7.28125 7.242188 7.246094 7.109375 7.199219 C 6.425781 6.953125 6.289062 6.15625 6.101562 5.546875 C 5.769531 4.464844 5.472656 3.367188 5.285156 2.253906 L 5.269531 2.257812 L 5.285156 2.253906 L 5.273438 2.183594 L 5.273438 2.015625 C 5.925781 1.71875 6.4375 0.8125 6.09375 0.472656 C 5.503906 0.175781 4.917969 0.519531 4.632812 0.886719 C 4.625 0.886719 4.617188 0.882812 4.605469 0.882812 L 3.523438 0.882812 C 3.25 0.882812 2.980469 0.949219 2.746094 1.097656 C 2.5 1.246094 2.332031 1.472656 2.0625 1.589844 C 1.738281 1.734375 1.347656 1.628906 1.058594 1.859375 C 0.5625 2.246094 0.796875 2.910156 1.414062 2.933594 C 1.496094 3.171875 1.722656 3.347656 1.992188 3.347656 L 2.871094 3.347656 C 2.890625 3.351562 2.914062 3.355469 2.941406 3.359375 C 3.191406 3.386719 3.394531 3.578125 3.558594 3.863281 C 3.992188 4.636719 4.074219 5.632812 4.148438 6.5 C 4.195312 7.101562 4.21875 7.710938 4.210938 8.316406 C 4.089844 8.96875 4.164062 9.722656 4.164062 9.722656 C 4.179688 9.898438 4.238281 10.046875 4.328125 10.179688 L 4.324219 10.183594 C 5.152344 11.355469 5.34375 12.671875 5.34375 12.671875 L 5.667969 14.417969 C 5.730469 14.753906 6.046875 14.976562 6.382812 14.917969 C 6.71875 14.859375 6.941406 14.539062 6.882812 14.203125 L 6.355469 11.222656 C 7.179688 11.445312 8.277344 11.609375 9.042969 11.578125 C 9.042969 11.578125 9.042969 11.582031 9.042969 11.585938 C 10.03125 11.523438 10.402344 12.304688 10.484375 12.660156 C 10.5625 13.011719 10.84375 14.421875 10.84375 14.421875 C 10.902344 14.753906 11.222656 14.980469 11.558594 14.921875 C 11.890625 14.859375 12.117188 14.539062 12.054688 14.207031 Z M 12.054688 14.207031 "/>
<path style=" stroke:none;fill-rule:nonzero;fill:rgb(95.686275%,56.470588%,4.705882%);fill-opacity:1;" d="M 4.988281 9.207031 C 4.578125 9.617188 4.507812 10.210938 4.828125 10.53125 C 5.148438 10.851562 5.742188 10.78125 6.152344 10.371094 C 6.5625 9.957031 6.632812 9.367188 6.3125 9.046875 C 5.992188 8.722656 5.398438 8.796875 4.988281 9.207031 Z M 5.441406 6.632812 C 5.441406 7.3125 5.996094 7.863281 6.675781 7.863281 C 7.101562 7.863281 7.480469 7.644531 7.699219 7.3125 C 7.453125 7.28125 7.242188 7.246094 7.109375 7.199219 C 6.457031 6.964844 6.328125 6.265625 6.167969 5.765625 C 6.144531 5.691406 6.125 5.621094 6.101562 5.546875 C 5.710938 5.753906 5.441406 6.160156 5.441406 6.632812 Z M 5.03125 4.785156 C 5.03125 4.214844 4.574219 3.757812 4.003906 3.757812 C 3.84375 3.757812 3.691406 3.796875 3.558594 3.863281 C 3.820312 4.332031 3.980469 5.066406 4.074219 5.804688 C 4.609375 5.765625 5.03125 5.328125 5.03125 4.785156 Z M 4.578125 3.085938 C 4.578125 3.550781 4.953125 3.925781 5.417969 3.925781 C 5.496094 3.925781 5.566406 3.914062 5.636719 3.894531 C 5.449219 3.152344 5.34375 2.59375 5.285156 2.253906 C 4.882812 2.320312 4.578125 2.664062 4.578125 3.085938 Z M 8.316406 8.273438 C 8.316406 8.953125 8.867188 9.503906 9.546875 9.503906 C 10.230469 9.503906 10.78125 8.953125 10.78125 8.273438 C 10.78125 8.257812 10.777344 8.238281 10.773438 8.222656 C 10.453125 7.785156 9.9375 7.519531 9.304688 7.453125 C 9.117188 7.433594 8.902344 7.417969 8.679688 7.398438 C 8.457031 7.621094 8.316406 7.933594 8.316406 8.273438 Z M 4.832031 1.089844 C 5.042969 0.886719 5.382812 0.636719 5.574219 0.730469 C 5.765625 0.828125 5.679688 1.261719 5.085938 1.628906 C 5.132812 1.445312 5.316406 1.121094 4.832031 1.089844 Z M 4.832031 1.089844 "/>
<path style=" stroke:none;fill-rule:nonzero;fill:rgb(16.078431%,18.431373%,20%);fill-opacity:1;" d="M 4.066406 1.703125 C 4.066406 1.929688 3.882812 2.113281 3.65625 2.113281 C 3.429688 2.113281 3.246094 1.929688 3.246094 1.703125 C 3.246094 1.476562 3.429688 1.292969 3.65625 1.292969 C 3.882812 1.292969 4.066406 1.476562 4.066406 1.703125 Z M 4.066406 1.703125 "/>
<path style=" stroke:none;fill-rule:nonzero;fill:rgb(45.882353%,29.803922%,16.078431%);fill-opacity:1;" d="M 8.769531 13.976562 C 8.769531 13.976562 8.292969 14.539062 8.359375 14.71875 C 8.425781 14.898438 9.5 14.921875 9.714844 14.726562 C 9.925781 14.53125 8.898438 13.960938 8.769531 13.976562 Z M 3.511719 13.976562 C 3.511719 13.976562 3.035156 14.539062 3.097656 14.71875 C 3.164062 14.898438 4.242188 14.921875 4.453125 14.726562 C 4.664062 14.53125 3.640625 13.960938 3.511719 13.976562 Z M 5.40625 14.902344 C 5.460938 15.066406 6.558594 15.039062 6.738281 14.710938 C 6.921875 14.378906 5.625 14.160156 5.625 14.160156 C 5.625 14.160156 5.332031 14.691406 5.40625 14.902344 Z M 10.574219 14.902344 C 10.628906 15.066406 11.726562 15.039062 11.910156 14.710938 C 12.089844 14.378906 10.792969 14.160156 10.792969 14.160156 C 10.792969 14.160156 10.5 14.691406 10.574219 14.902344 Z M 10.574219 14.902344 "/>
</g>
</svg>
