<?xml version="1.0" encoding="UTF-8"?>
<svg xmlns="http://www.w3.org/2000/svg" xmlns:xlink="http://www.w3.org/1999/xlink" width="15pt" height="15pt" viewBox="0 0 15 15" version="1.1">
<g id="surface1">
<path style=" stroke:none;fill-rule:nonzero;fill:rgb(40%,12.941176%,7.45098%);fill-opacity:1;" d="M 3.003906 9.5 C 3.503906 11 6.503906 12.5 9.003906 12.5 C 11.5 12.5 13.988281 11.449219 13.988281 9.949219 C 13.988281 9.449219 10.003906 10 7.503906 9 C 6.113281 8.445312 3.503906 7.003906 3.003906 7.503906 C 2.503906 8.003906 3.003906 9.5 3.003906 9.5 Z M 3.003906 9.5 "/>
<path style=" stroke:none;fill-rule:nonzero;fill:rgb(16.078431%,18.431373%,20%);fill-opacity:1;" d="M 11.6875 10.832031 C 11.859375 11.226562 11.804688 11.722656 11.742188 12.066406 C 11.863281 12.023438 11.980469 11.980469 12.09375 11.9375 C 12.0625 11.113281 11.6875 10.832031 11.6875 10.832031 Z M 4.921875 11.382812 C 5.1875 11.046875 5.289062 10.710938 5.417969 10.296875 C 5.417969 10.296875 5.085938 10.875 4.570312 11.175781 C 4.683594 11.246094 4.800781 11.316406 4.921875 11.382812 Z M 7.433594 10.863281 C 7.324219 11.355469 6.78125 11.761719 6.351562 12.019531 C 6.566406 12.09375 6.78125 12.160156 7 12.21875 C 7.621094 11.714844 7.433594 10.863281 7.433594 10.863281 Z M 9.347656 11.84375 C 9.347656 11.84375 9.152344 12.175781 8.894531 12.496094 C 8.929688 12.496094 8.96875 12.5 9.003906 12.5 C 9.101562 12.5 9.203125 12.496094 9.304688 12.492188 C 9.375 12.164062 9.347656 11.84375 9.347656 11.84375 Z M 9.347656 11.84375 "/>
<path style=" stroke:none;fill-rule:nonzero;fill:rgb(40%,12.941176%,7.45098%);fill-opacity:1;" d="M 14.964844 9.566406 C 14.964844 9.566406 13.621094 10.019531 13.132812 9.949219 C 12.644531 9.878906 12.765625 11.054688 13.195312 10.832031 C 13.621094 10.609375 14.5 10.582031 14.964844 9.566406 Z M 14.964844 9.566406 "/>
<path style=" stroke:none;fill-rule:nonzero;fill:rgb(16.078431%,18.431373%,20%);fill-opacity:1;" d="M 3.003906 7.503906 C 3.003906 7.503906 4.003906 6.003906 6.660156 6.605469 C 8.671875 7.058594 10.503906 8.503906 13 8.003906 C 13 8.003906 12.65625 10.101562 8.660156 10.101562 C 4.660156 10.101562 2.210938 8.589844 3.003906 7.503906 Z M 3.003906 7.503906 "/>
<path style=" stroke:none;fill-rule:nonzero;fill:rgb(74.901961%,41.176471%,32.156863%);fill-opacity:1;" d="M 0.746094 9 C 2.019531 9 4.175781 7.328125 4.167969 6.152344 C 4.15625 4.875 2.457031 4.441406 1.316406 5.011719 C 0.175781 5.582031 -0.394531 9 0.746094 9 Z M 0.746094 9 "/>
<path style=" stroke:none;fill-rule:nonzero;fill:rgb(39.215686%,12.941176%,8.627451%);fill-opacity:1;" d="M 0.832031 6.042969 C 0.765625 6.042969 0.703125 6.011719 0.664062 5.953125 C 0.554688 5.796875 0.160156 4.886719 3.199219 2.34375 C 3.289062 2.273438 3.417969 2.285156 3.492188 2.371094 C 3.566406 2.460938 3.554688 2.589844 3.46875 2.664062 C 0.78125 4.910156 1 5.707031 1.003906 5.714844 C 1.070312 5.808594 1.046875 5.9375 0.953125 6.003906 C 0.917969 6.03125 0.875 6.042969 0.832031 6.042969 Z M 0.832031 6.042969 "/>
<path style=" stroke:none;fill-rule:nonzero;fill:rgb(84.313725%,61.960784%,51.764706%);fill-opacity:1;" d="M 2.179688 12.917969 L 1.203125 12.917969 C 0.972656 12.917969 0.789062 12.730469 0.789062 12.5 C 0.789062 12.269531 0.972656 12.082031 1.203125 12.082031 L 1.832031 12.082031 L 3.710938 10.207031 C 3.875 10.042969 4.136719 10.042969 4.300781 10.207031 C 4.464844 10.371094 4.464844 10.632812 4.300781 10.796875 Z M 2.179688 12.917969 "/>
<path style=" stroke:none;fill-rule:nonzero;fill:rgb(74.901961%,41.176471%,32.156863%);fill-opacity:1;" d="M 8.503906 11.625 C 8.414062 11.625 8.324219 11.605469 8.238281 11.566406 C 7.925781 11.417969 7.789062 11.046875 7.9375 10.734375 L 11.933594 2.238281 C 12.082031 1.925781 12.457031 1.792969 12.765625 1.9375 C 13.078125 2.085938 13.214844 2.457031 13.066406 2.769531 L 9.070312 11.265625 C 8.960938 11.492188 8.738281 11.625 8.503906 11.625 Z M 8.503906 11.625 "/>
<path style=" stroke:none;fill-rule:nonzero;fill:rgb(74.901961%,41.176471%,32.156863%);fill-opacity:1;" d="M 8.269531 11.589844 C 9.363281 11.902344 10.832031 10.832031 11.25 9.167969 C 11.667969 7.5 11.652344 5.675781 12.070312 4.84375 C 12.488281 4.011719 11.667969 4.167969 10.832031 5.417969 C 10 6.667969 8.269531 11.589844 8.269531 11.589844 Z M 8.269531 11.589844 "/>
<path style=" stroke:none;fill-rule:nonzero;fill:rgb(16.078431%,18.431373%,20%);fill-opacity:1;" d="M 1.566406 6.453125 C 2.671875 6.722656 1.972656 7.984375 1.28125 7.984375 C 0.273438 7.984375 0.367188 6.164062 1.566406 6.453125 Z M 1.566406 6.453125 "/>
<path style=" stroke:none;fill-rule:nonzero;fill:rgb(84.313725%,61.960784%,51.764706%);fill-opacity:1;" d="M 14.539062 12.917969 L 13.316406 12.917969 C 13.097656 12.917969 12.917969 12.75 12.902344 12.535156 L 12.085938 2.539062 C 12.066406 2.308594 12.238281 2.109375 12.46875 2.089844 C 12.695312 2.070312 12.898438 2.242188 12.917969 2.472656 L 13.699219 12.082031 L 14.539062 12.082031 C 14.769531 12.082031 14.953125 12.269531 14.953125 12.5 C 14.953125 12.730469 14.765625 12.917969 14.539062 12.917969 Z M 11.6875 12.917969 L 10.832031 12.917969 C 10.714844 12.917969 10.597656 12.863281 10.519531 12.773438 L 7.890625 9.769531 L 6.292969 11.300781 C 6.125 11.460938 5.863281 11.453125 5.703125 11.289062 C 5.542969 11.125 5.550781 10.859375 5.714844 10.699219 L 7.628906 8.867188 C 7.710938 8.789062 7.824219 8.742188 7.933594 8.75 C 8.046875 8.753906 8.15625 8.808594 8.230469 8.894531 L 11.023438 12.082031 L 11.6875 12.082031 C 11.917969 12.082031 12.105469 12.269531 12.105469 12.5 C 12.105469 12.730469 11.917969 12.917969 11.6875 12.917969 Z M 11.6875 12.917969 "/>
</g>
</svg>
