<?xml version="1.0" encoding="UTF-8"?>
<svg xmlns="http://www.w3.org/2000/svg" xmlns:xlink="http://www.w3.org/1999/xlink" width="15pt" height="15pt" viewBox="0 0 15 15" version="1.1">
<g id="surface1">
<path style=" stroke:none;fill-rule:nonzero;fill:rgb(88.235294%,90.980392%,92.941176%);fill-opacity:1;" d="M 9.703125 9.699219 C 9.703125 9.699219 10.273438 10.378906 10.839844 13.882812 C 10.898438 14.253906 10.921875 14.625 10.929688 15 L 15 15 L 15 3.101562 C 13.171875 1.65625 10.667969 1.359375 7.632812 2.371094 C 7.632812 2.371094 5.378906 1.121094 5.074219 0.8125 C 4.773438 0.511719 4.300781 0.164062 4.558594 0.957031 C 4.710938 1.421875 4.875 1.949219 5.539062 2.984375 C 4.109375 3.832031 3.660156 4.933594 1.976562 8.542969 C 0.6875 11.300781 0.0351562 12.195312 0.390625 13.25 C 0.859375 14.640625 2.605469 15.578125 4.074219 14.507812 C 4.875 13.925781 5.011719 12.878906 6.667969 11.914062 C 8.191406 11.886719 9.703125 11.246094 9.703125 9.699219 Z M 9.703125 9.699219 "/>
<path style=" stroke:none;fill-rule:nonzero;fill:rgb(16.078431%,18.431373%,20%);fill-opacity:1;" d="M 15 2.503906 C 11.527344 0.125 5.980469 0.613281 6.628906 2.578125 C 10.628906 1.804688 13.238281 3.222656 15 5.566406 Z M 15 2.503906 "/>
<path style=" stroke:none;fill-rule:nonzero;fill:rgb(16.078431%,18.431373%,20%);fill-opacity:1;" d="M 8.191406 2.402344 C 6.992188 2.5 5.160156 3.136719 4.269531 4.125 C 4.269531 4.125 4.265625 1.910156 5.804688 1.714844 C 8.375 1.390625 8.226562 1.867188 8.226562 1.867188 Z M 8.191406 2.402344 "/>
<path style=" stroke:none;fill-rule:nonzero;fill:rgb(88.235294%,90.980392%,92.941176%);fill-opacity:1;" d="M 6.816406 0.441406 C 7.046875 0.921875 8.484375 1.1875 8.921875 2.953125 C 9.359375 4.71875 7.617188 4.183594 7.105469 3.308594 C 6.539062 2.335938 6.34375 1.574219 6.328125 0.941406 C 6.320312 0.609375 6.34375 -0.53125 6.816406 0.441406 Z M 6.816406 0.441406 "/>
<path style=" stroke:none;fill-rule:nonzero;fill:rgb(40%,45.882353%,49.803922%);fill-opacity:1;" d="M 6.914062 1.183594 C 7.375 1.585938 7.933594 2.210938 8.019531 2.832031 C 8.101562 3.449219 7.550781 3.242188 7.296875 2.675781 C 7.039062 2.109375 6.980469 1.515625 6.824219 1.328125 C 6.664062 1.140625 6.914062 1.183594 6.914062 1.183594 Z M 6.914062 1.183594 "/>
<path style=" stroke:none;fill-rule:nonzero;fill:rgb(16.078431%,18.431373%,20%);fill-opacity:1;" d="M 7.058594 6.46875 C 7.058594 6.753906 6.828125 6.988281 6.539062 6.988281 C 6.253906 6.988281 6.019531 6.753906 6.019531 6.46875 C 6.019531 6.183594 6.253906 5.949219 6.539062 5.949219 C 6.828125 5.949219 7.058594 6.183594 7.058594 6.46875 Z M 7.058594 6.46875 "/>
<path style=" stroke:none;fill-rule:nonzero;fill:rgb(88.235294%,90.980392%,92.941176%);fill-opacity:1;" d="M 4.3125 4.136719 C 4.300781 4.128906 4.28125 4.128906 4.269531 4.125 C 3.625 4.972656 3.050781 6.25 1.980469 8.542969 C 1.414062 9.753906 0.972656 10.605469 0.683594 11.265625 C 1.359375 11.363281 2.050781 10.667969 2.324219 9.90625 C 2.605469 9.128906 3.664062 7.550781 4.378906 6.664062 C 5.09375 5.777344 5.027344 4.519531 4.3125 4.136719 Z M 4.3125 4.136719 "/>
<path style=" stroke:none;fill-rule:nonzero;fill:rgb(16.078431%,18.431373%,20%);fill-opacity:1;" d="M 11.746094 2.628906 C 11.746094 2.628906 10.789062 5.523438 10.785156 6.359375 C 10.78125 7.941406 9.667969 9.609375 9.667969 9.609375 L 10.226562 11.035156 C 10.226562 11.035156 11.578125 9.765625 11.867188 6.773438 C 12.105469 4.285156 12.933594 3.578125 12.933594 3.578125 Z M 14.191406 3.933594 C 14.191406 3.933594 12.941406 5.445312 12.5 7.917969 C 11.902344 11.277344 10.476562 11.976562 10.476562 11.976562 L 10.675781 12.996094 C 10.675781 12.996094 12.878906 11.722656 13.441406 9.195312 C 14.113281 6.171875 15 5.566406 15 5.566406 Z M 1.355469 9.765625 C 1.640625 9.46875 2.609375 11.351562 3.242188 11.800781 C 3.902344 12.273438 5.519531 12.191406 5.617188 12.703125 C 4.921875 13.410156 4.464844 14.480469 3.601562 14.78125 C 2.734375 15.078125 1.222656 15.0625 0.585938 13.675781 C -0.0507812 12.292969 0.417969 11.71875 0.675781 11.121094 C 0.9375 10.519531 1.285156 9.894531 1.355469 9.765625 Z M 1.355469 9.765625 "/>
<path style=" stroke:none;fill-rule:nonzero;fill:rgb(40%,45.882353%,49.803922%);fill-opacity:1;" d="M 1.757812 12.464844 C 1.757812 12.832031 1.539062 13.128906 1.265625 13.128906 C 0.992188 13.128906 0.769531 12.832031 0.769531 12.464844 C 0.769531 12.097656 0.992188 11.800781 1.265625 11.800781 C 1.539062 11.800781 1.757812 12.097656 1.757812 12.464844 Z M 1.757812 12.464844 "/>
<path style=" stroke:none;fill-rule:nonzero;fill:rgb(16.078431%,18.431373%,20%);fill-opacity:1;" d="M 10.8125 13.726562 C 10.8125 13.726562 12.734375 13.074219 13.359375 12.316406 C 13.984375 11.5625 15 10 15 10 L 15 12.65625 C 15 12.65625 14.503906 13.332031 13.464844 13.878906 C 12.800781 14.226562 10.925781 14.816406 10.925781 14.816406 Z M 10.421875 2.535156 C 10.421875 2.535156 10.027344 3.75 9.921875 5 C 9.816406 6.25 9.453125 7.03125 9.113281 7.578125 C 9.246094 5.808594 8.828125 5.128906 9.0625 4.191406 C 9.296875 3.253906 9.425781 2.394531 9.425781 2.394531 C 9.425781 2.394531 9.6875 2.238281 9.949219 2.265625 C 10.207031 2.292969 10.421875 2.535156 10.421875 2.535156 Z M 1.980469 8.542969 C 1.980469 8.542969 3.621094 8.386719 4.375 8.90625 C 5.128906 9.425781 6.597656 11.957031 6.597656 11.957031 L 6.125 12.269531 C 6.125 12.269531 5.417969 10.339844 4.140625 9.738281 C 2.863281 9.140625 1.640625 9.246094 1.640625 9.246094 Z M 1.980469 8.542969 "/>
<path style=" stroke:none;fill-rule:nonzero;fill:rgb(16.078431%,18.431373%,20%);fill-opacity:1;" d="M 2.335938 7.78125 C 2.335938 7.78125 4.632812 7.632812 5.234375 8.410156 C 6.378906 9.894531 6.832031 10.5 7.085938 11.890625 L 7.832031 11.761719 C 7.5 10.546875 6.746094 8.386719 5.363281 7.472656 C 3.984375 6.5625 2.761719 6.769531 2.761719 6.769531 Z M 7.449219 5.285156 C 7.1875 5.574219 8.28125 6.667969 7.917969 7.578125 C 7.550781 8.488281 7.761719 9.765625 7.96875 10.339844 C 8.175781 10.910156 8.492188 11.523438 8.492188 11.523438 L 9.167969 11.042969 C 9.167969 11.042969 9.0625 10.417969 8.75 9.503906 C 8.4375 8.59375 8.464844 8.566406 8.59375 7.65625 C 8.722656 6.746094 7.707031 5 7.449219 5.285156 Z M 6.269531 2.84375 C 6.269531 2.84375 6.746094 3.699219 6.71875 4.113281 C 6.691406 4.53125 6.691406 5.234375 6.457031 5.390625 C 6.222656 5.546875 6.121094 4.558594 5.964844 4.113281 C 5.808594 3.671875 5.519531 3.171875 5.519531 3.171875 C 5.519531 3.171875 6.132812 2.578125 6.269531 2.84375 Z M 4.792969 3.589844 C 4.792969 3.589844 5.539062 4.171875 5.511719 4.589844 C 5.488281 5.007812 5.988281 5.675781 5.753906 5.832031 C 5.519531 5.988281 4.949219 5.3125 4.792969 4.871094 C 4.636719 4.425781 4.269531 4.125 4.269531 4.125 C 4.269531 4.125 4.65625 3.324219 4.792969 3.589844 Z M 3.722656 4.921875 C 3.722656 4.921875 4.359375 5.332031 4.53125 5.652344 C 4.703125 5.972656 5.410156 6.230469 5.339844 6.433594 C 5.265625 6.636719 4.515625 6.390625 4.21875 6.121094 C 3.921875 5.847656 3.242188 5.878906 3.242188 5.878906 Z M 3.722656 4.921875 "/>
</g>
</svg>
