<?xml version="1.0" encoding="UTF-8"?>
<svg xmlns="http://www.w3.org/2000/svg" xmlns:xlink="http://www.w3.org/1999/xlink" width="15pt" height="15pt" viewBox="0 0 15 15" version="1.1">
<g id="surface1">
<path style=" stroke:none;fill-rule:nonzero;fill:rgb(75.686275%,41.176471%,30.980392%);fill-opacity:1;" d="M 2.816406 0.9375 C 2.628906 0.78125 2.378906 0.527344 2.136719 0.394531 C 1.929688 0.277344 2.03125 0.777344 2.207031 0.972656 C 2.382812 1.171875 2.96875 1.535156 3.230469 1.730469 C 3.492188 1.925781 3.621094 1.894531 3.363281 1.535156 C 3.089844 1.152344 2.816406 0.9375 2.816406 0.9375 Z M 2.816406 0.9375 "/>
<path style=" stroke:none;fill-rule:nonzero;fill:rgb(85.098039%,61.960784%,50.980392%);fill-opacity:1;" d="M 3.414062 0.308594 C 3.550781 0.449219 3.71875 1.304688 3.71875 1.304688 C 3.71875 1.304688 4.253906 1.34375 4.722656 1.632812 C 6.597656 2.789062 5.78125 5.609375 6.367188 6.257812 C 6.546875 6.457031 10.398438 5.574219 12.292969 6.484375 C 13.894531 7.253906 13.574219 8.421875 13.992188 8.679688 C 14.308594 8.878906 13.160156 9.203125 12.917969 7.714844 C 12.707031 12.359375 12.472656 13.496094 12.222656 14.53125 C 12.082031 15.117188 11.398438 15.199219 11.476562 14.390625 C 11.515625 13.964844 11.667969 11.382812 11.230469 10.730469 C 10.917969 10.261719 9.269531 11.734375 6.355469 11.46875 C 6.152344 13.25 5.898438 14.441406 5.824219 14.601562 C 5.589844 15.113281 5.046875 15.109375 5.125 14.597656 C 5.203125 14.085938 5.3125 12.535156 4.757812 10.84375 C 2.414062 9.183594 4.078125 4.929688 3.402344 4.113281 C 3.25 3.933594 2.300781 3.707031 2.019531 3.679688 C 1.742188 3.652344 1.496094 3.605469 1.328125 3.578125 C 1.160156 3.550781 0.914062 2.839844 0.941406 2.644531 C 0.96875 2.449219 1.105469 2.386719 1.464844 2.246094 C 1.828125 2.109375 1.878906 2.152344 1.859375 1.941406 C 1.820312 1.503906 2.769531 1.203125 3.308594 1.257812 C 3.253906 1.203125 2.859375 0.511719 2.746094 0.261719 C 2.597656 -0.0625 3.191406 0.078125 3.414062 0.308594 Z M 3.414062 0.308594 "/>
<path style=" stroke:none;fill-rule:nonzero;fill:rgb(75.686275%,41.176471%,30.980392%);fill-opacity:1;" d="M 1.207031 2.601562 C 1.238281 2.742188 1.042969 2.765625 1.078125 2.886719 C 1.109375 3.011719 1.300781 3.410156 1.472656 3.371094 C 1.644531 3.328125 1.851562 3.339844 1.566406 3.476562 C 1.347656 3.582031 1.214844 3.484375 1.214844 3.484375 C 1.214844 3.484375 0.890625 2.871094 0.925781 2.695312 C 0.957031 2.519531 1.199219 2.558594 1.207031 2.601562 Z M 1.207031 2.601562 "/>
<path style=" stroke:none;fill-rule:nonzero;fill:rgb(16.078431%,18.431373%,20%);fill-opacity:1;" d="M 3.160156 2.003906 C 3.160156 2.171875 3.023438 2.308594 2.851562 2.308594 C 2.683594 2.308594 2.546875 2.171875 2.546875 2.003906 C 2.546875 1.832031 2.699219 1.871094 2.871094 1.871094 C 3.039062 1.871094 3.160156 1.832031 3.160156 2.003906 Z M 0.925781 2.5625 C 0.949219 2.367188 1.566406 2.421875 1.34375 2.617188 C 1.203125 2.742188 0.882812 2.863281 0.925781 2.5625 Z M 0.925781 2.5625 "/>
<path style=" stroke:none;fill-rule:nonzero;fill:rgb(75.686275%,41.176471%,30.980392%);fill-opacity:1;" d="M 3.113281 0.351562 C 3.320312 0.40625 3.574219 1.304688 3.492188 1.316406 C 3.386719 1.332031 2.859375 0.285156 3.113281 0.351562 Z M 4.144531 2.789062 C 4.144531 2.789062 4.5625 3.339844 4.25 3.734375 C 3.933594 4.128906 3.277344 3.996094 3.277344 3.996094 C 3.277344 3.996094 3.90625 3.8125 4.066406 3.496094 C 4.222656 3.183594 4.144531 2.789062 4.144531 2.789062 Z M 4.144531 2.789062 "/>
</g>
</svg>
