<?xml version="1.0" encoding="UTF-8"?>
<svg xmlns="http://www.w3.org/2000/svg" xmlns:xlink="http://www.w3.org/1999/xlink" width="15pt" height="15pt" viewBox="0 0 15 15" version="1.1">
<g id="surface1">
<path style=" stroke:none;fill-rule:nonzero;fill:rgb(91.764706%,34.901961%,43.137255%);fill-opacity:1;" d="M 9.542969 11.480469 C 10.050781 11.140625 10.472656 11.152344 10.824219 11.453125 C 10.640625 10.984375 9.84375 9.945312 9.84375 9.945312 Z M 9.542969 11.480469 "/>
<path style=" stroke:none;fill-rule:nonzero;fill:rgb(95.686275%,67.058824%,72.941176%);fill-opacity:1;" d="M 9.5625 11.53125 C 9.550781 11.53125 9.535156 11.53125 9.523438 11.53125 C 9.355469 11.507812 9.238281 11.359375 9.257812 11.191406 L 9.4375 9.753906 C 9.445312 9.675781 9.484375 9.605469 9.546875 9.554688 L 11.398438 8.042969 L 8.4375 6.449219 C 8.289062 6.367188 8.234375 6.183594 8.316406 6.035156 C 8.394531 5.886719 8.578125 5.832031 8.726562 5.910156 L 12.089844 7.722656 C 12.179688 7.773438 12.238281 7.863281 12.25 7.964844 C 12.257812 8.066406 12.21875 8.164062 12.140625 8.230469 L 10.027344 9.949219 L 9.863281 11.265625 C 9.84375 11.421875 9.714844 11.53125 9.5625 11.53125 Z M 9.5625 11.53125 "/>
<path style=" stroke:none;fill-rule:nonzero;fill:rgb(88.235294%,90.980392%,92.941176%);fill-opacity:1;" d="M 2.242188 1.46875 L 0.613281 3.09375 C 0.207031 3.5 0.207031 4.722656 0.207031 5.535156 C 0.207031 6.347656 1.023438 6.347656 1.023438 5.535156 C 1.023438 4.722656 2.648438 3.5 3.867188 3.09375 C 5.089844 2.6875 2.242188 1.46875 2.242188 1.46875 Z M 2.242188 1.46875 "/>
<path style=" stroke:none;fill-rule:nonzero;fill:rgb(16.078431%,18.431373%,20%);fill-opacity:1;" d="M 0.613281 3.09375 C 0.207031 3.5 0.207031 4.722656 0.207031 5.535156 C 0.207031 6.347656 1.023438 6.347656 1.023438 5.535156 C 1.023438 5.253906 1.214844 4.929688 1.515625 4.601562 C 2.089844 3.980469 0.613281 4.316406 0.613281 3.09375 Z M 0.613281 3.09375 "/>
<path style=" stroke:none;fill-rule:nonzero;fill:rgb(91.764706%,34.901961%,43.137255%);fill-opacity:1;" d="M 6.914062 13.296875 C 7.132812 13.660156 7.113281 14.25 7.035156 14.582031 C 7.433594 14.394531 8.046875 13.40625 8.046875 13.40625 Z M 6.914062 13.296875 "/>
<path style=" stroke:none;fill-rule:nonzero;fill:rgb(91.764706%,34.901961%,43.137255%);fill-opacity:1;" d="M 7.234375 14.667969 C 7.621094 14.410156 8.316406 14.429688 8.726562 14.609375 C 9.136719 14.792969 8.445312 13.558594 8.445312 13.558594 L 7.429688 14.183594 Z M 7.234375 14.667969 "/>
<path style=" stroke:none;fill-rule:nonzero;fill:rgb(95.686275%,67.058824%,72.941176%);fill-opacity:1;" d="M 10.78125 11.53125 C 10.683594 11.53125 10.585938 11.484375 10.527344 11.398438 L 9.714844 10.175781 C 9.621094 10.035156 9.660156 9.847656 9.800781 9.753906 C 9.941406 9.660156 10.128906 9.699219 10.222656 9.839844 L 11.035156 11.058594 C 11.128906 11.199219 11.089844 11.386719 10.949219 11.480469 C 10.898438 11.515625 10.839844 11.53125 10.78125 11.53125 Z M 8.339844 13.566406 L 7.121094 13.566406 C 6.953125 13.566406 6.816406 13.429688 6.816406 13.261719 C 6.816406 13.09375 6.953125 12.957031 7.121094 12.957031 L 8.035156 12.957031 L 8.035156 6.753906 C 8.035156 6.585938 8.171875 6.449219 8.339844 6.449219 C 8.511719 6.449219 8.648438 6.585938 8.648438 6.753906 L 8.648438 13.261719 C 8.648438 13.429688 8.511719 13.566406 8.339844 13.566406 Z M 8.339844 13.566406 "/>
<path style=" stroke:none;fill-rule:nonzero;fill:rgb(95.686275%,67.058824%,72.941176%);fill-opacity:1;" d="M 8.75 14.785156 C 8.621094 14.785156 8.5 14.707031 8.457031 14.578125 L 8.207031 13.828125 L 7.335938 14.695312 C 7.21875 14.816406 7.027344 14.816406 6.90625 14.695312 C 6.785156 14.578125 6.785156 14.386719 6.90625 14.265625 L 8.125 13.046875 C 8.203125 12.972656 8.3125 12.941406 8.410156 12.964844 C 8.515625 12.988281 8.597656 13.066406 8.632812 13.164062 L 9.039062 14.386719 C 9.089844 14.546875 9.003906 14.71875 8.84375 14.769531 C 8.8125 14.78125 8.78125 14.785156 8.75 14.785156 Z M 8.75 14.785156 "/>
<path style=" stroke:none;fill-rule:nonzero;fill:rgb(91.764706%,34.901961%,43.137255%);fill-opacity:1;" d="M 5.089844 1.875 C 5.089844 2.773438 4.359375 3.5 3.460938 3.5 C 2.5625 3.5 1.835938 2.773438 1.835938 1.875 C 1.835938 0.976562 2.5625 0.246094 3.460938 0.246094 C 4.359375 0.246094 5.089844 0.976562 5.089844 1.875 Z M 5.089844 1.875 "/>
<path style=" stroke:none;fill-rule:nonzero;fill:rgb(91.764706%,34.901961%,43.137255%);fill-opacity:1;" d="M 5.242188 8.632812 C 5.003906 8.632812 4.765625 8.589844 4.539062 8.507812 C 3.695312 8.195312 3.199219 7.359375 3.273438 6.375 C 3.367188 5.164062 4.046875 4.351562 4.589844 3.703125 C 5.082031 3.117188 5.355469 2.769531 5.296875 2.367188 C 5.230469 1.890625 4.945312 1.671875 4.71875 1.570312 C 4.273438 1.371094 3.671875 1.449219 3.191406 1.773438 L 2.511719 0.757812 C 3.347656 0.199219 4.386719 0.0820312 5.214844 0.453125 C 5.921875 0.769531 6.394531 1.40625 6.503906 2.195312 C 6.640625 3.15625 6.074219 3.832031 5.527344 4.484375 C 5.027344 5.082031 4.550781 5.648438 4.488281 6.46875 C 4.457031 6.90625 4.632812 7.242188 4.960938 7.363281 C 5.316406 7.492188 5.9375 7.378906 6.492188 6.617188 L 7.480469 7.335938 C 6.871094 8.167969 6.042969 8.632812 5.242188 8.632812 Z M 5.242188 8.632812 "/>
<path style=" stroke:none;fill-rule:nonzero;fill:rgb(91.764706%,34.901961%,43.137255%);fill-opacity:1;" d="M 6.308594 7.160156 C 5.40625 5.808594 6.308594 3.90625 7.527344 3.09375 C 8.75 2.28125 12 1.875 14.035156 5.128906 C 16.285156 8.726562 12.882812 6.976562 12 6.753906 C 8.75 5.941406 7.121094 8.382812 6.308594 7.160156 Z M 6.308594 7.160156 "/>
<path style=" stroke:none;fill-rule:nonzero;fill:rgb(16.078431%,18.431373%,20%);fill-opacity:1;" d="M 3.054688 1.875 C 3.054688 2.097656 2.871094 2.28125 2.648438 2.28125 C 2.421875 2.28125 2.242188 2.097656 2.242188 1.875 C 2.242188 1.648438 2.421875 1.46875 2.648438 1.46875 C 2.871094 1.46875 3.054688 1.648438 3.054688 1.875 Z M 3.054688 1.875 "/>
<path style=" stroke:none;fill-rule:nonzero;fill:rgb(91.764706%,34.901961%,43.137255%);fill-opacity:1;" d="M 3.867188 2.6875 C 4.683594 2.28125 5.640625 2.273438 4.421875 3.898438 C 3.933594 4.550781 6.621094 1.953125 5.238281 0.492188 C 5.011719 0.257812 3.402344 0.0390625 2.761719 0.421875 C 2.351562 0.664062 3.867188 2.6875 3.867188 2.6875 Z M 3.867188 2.6875 "/>
<path style=" stroke:none;fill-rule:nonzero;fill:rgb(91.764706%,34.901961%,43.137255%);fill-opacity:1;" d="M 12.410156 7.972656 C 12.410156 8.199219 12.226562 8.382812 12 8.382812 C 11.777344 8.382812 11.59375 8.199219 11.59375 7.972656 C 11.59375 7.75 11.777344 7.566406 12 7.566406 C 12.226562 7.566406 12.410156 7.75 12.410156 7.972656 Z M 12.410156 7.972656 "/>
<path style=" stroke:none;fill-rule:nonzero;fill:rgb(91.764706%,34.901961%,43.137255%);fill-opacity:1;" d="M 8.75 10.414062 C 8.75 10.640625 8.566406 10.820312 8.339844 10.820312 C 8.117188 10.820312 7.933594 10.640625 7.933594 10.414062 C 7.933594 10.191406 8.117188 10.007812 8.339844 10.007812 C 8.566406 10.007812 8.75 10.191406 8.75 10.414062 Z M 8.75 10.414062 "/>
</g>
</svg>
