<?xml version="1.0" encoding="UTF-8"?>
<svg xmlns="http://www.w3.org/2000/svg" xmlns:xlink="http://www.w3.org/1999/xlink" width="15pt" height="15pt" viewBox="0 0 15 15" version="1.1">
<g id="surface1">
<path style=" stroke:none;fill-rule:nonzero;fill:rgb(65.490196%,55.686275%,50.588235%);fill-opacity:1;" d="M 0.992188 3.613281 C 0.335938 3.613281 0.0078125 3.941406 0.335938 4.269531 C 0.992188 4.921875 1.648438 4.921875 1.972656 4.597656 Z M 3.613281 0.992188 C 3.613281 0.335938 3.941406 0.0078125 4.269531 0.335938 C 4.921875 0.992188 4.921875 1.648438 4.597656 1.972656 Z M 1.648438 4.921875 C 1.648438 4.921875 5.207031 10.9375 7.871094 11.804688 C 9.265625 12.257812 10.242188 12.054688 11.148438 11.148438 C 12.054688 10.242188 12.152344 9.296875 11.804688 7.871094 C 11.222656 5.496094 4.921875 1.648438 4.921875 1.648438 Z M 1.648438 4.921875 "/>
<path style=" stroke:none;fill-rule:nonzero;fill:rgb(65.490196%,55.686275%,50.588235%);fill-opacity:1;" d="M 6.71875 11.1875 C 8.484375 13.421875 10.382812 14.441406 11.082031 13.90625 C 11.757812 13.382812 10.945312 12.832031 10.175781 11.007812 C 9.367188 9.097656 5.789062 10.007812 6.71875 11.1875 Z M 11.1875 6.695312 C 13.421875 8.457031 14.4375 10.386719 13.902344 11.082031 C 13.382812 11.761719 12.828125 10.949219 11.003906 10.175781 C 9.097656 9.371094 10.007812 5.765625 11.1875 6.695312 Z M 11.1875 6.695312 "/>
<path style=" stroke:none;fill-rule:nonzero;fill:rgb(51.764706%,40%,34.901961%);fill-opacity:1;" d="M 7.085938 8.984375 C 7.378906 8.449219 6.707031 7.582031 6.042969 7.605469 C 5.554688 7.621094 4.535156 8.410156 3.59375 7.292969 C 3.503906 7.378906 3.464844 7.5 3.460938 7.640625 C 3.945312 8.296875 4.492188 8.988281 5.066406 9.625 C 5.753906 9.824219 6.695312 9.703125 7.085938 8.984375 Z M 7.605469 6.042969 C 7.582031 6.707031 8.449219 7.378906 8.984375 7.085938 C 9.699219 6.699219 9.820312 5.769531 9.628906 5.082031 C 8.984375 4.511719 8.277344 3.957031 7.605469 3.464844 C 7.480469 3.472656 7.375 3.511719 7.292969 3.59375 C 8.410156 4.535156 7.621094 5.554688 7.605469 6.042969 Z M 7.605469 6.042969 "/>
<path style=" stroke:none;fill-rule:nonzero;fill:rgb(79.215686%,72.156863%,67.45098%);fill-opacity:1;" d="M 5.558594 7.039062 C 6.222656 7.019531 6.894531 7.882812 6.601562 8.421875 C 6.136719 9.277344 4.878906 9.289062 4.210938 8.914062 C 3.464844 8.492188 2.65625 7.179688 3.109375 6.730469 C 4.050781 7.84375 5.070312 7.054688 5.558594 7.039062 Z M 7.039062 5.558594 C 7.019531 6.222656 7.882812 6.894531 8.421875 6.601562 C 9.277344 6.136719 9.289062 4.878906 8.914062 4.210938 C 8.492188 3.464844 7.179688 2.65625 6.726562 3.109375 C 7.84375 4.050781 7.054688 5.070312 7.039062 5.558594 Z M 7.039062 5.558594 "/>
<path style=" stroke:none;fill-rule:nonzero;fill:rgb(65.490196%,55.686275%,50.588235%);fill-opacity:1;" d="M 11.476562 10.164062 C 12.921875 11.613281 15.113281 14.390625 14.753906 14.753906 C 14.390625 15.113281 11.613281 12.921875 10.164062 11.476562 C 8.71875 10.027344 8.492188 9.214844 8.855469 8.855469 C 9.214844 8.492188 10.027344 8.71875 11.476562 10.164062 Z M 5.25 1.320312 C 6.15625 2.222656 5.898438 3.292969 4.597656 4.597656 C 3.292969 5.898438 2.222656 6.15625 1.320312 5.25 C 0.414062 4.347656 0.34375 2.949219 1.648438 1.648438 C 2.949219 0.34375 4.347656 0.414062 5.25 1.320312 Z M 5.25 1.320312 "/>
<path style=" stroke:none;fill-rule:nonzero;fill:rgb(79.215686%,72.156863%,67.45098%);fill-opacity:1;" d="M 5.722656 1.792969 C 6.234375 2.300781 6.554688 3.949219 5.25 5.25 C 3.949219 6.554688 2.300781 6.234375 1.792969 5.722656 C 0.988281 4.921875 2.300781 3.613281 2.957031 2.957031 C 3.613281 2.300781 4.921875 0.988281 5.722656 1.792969 Z M 5.722656 1.792969 "/>
<path style=" stroke:none;fill-rule:nonzero;fill:rgb(16.078431%,18.431373%,20%);fill-opacity:1;" d="M 3.941406 2.628906 C 4.300781 2.992188 4.300781 3.578125 3.941406 3.941406 C 3.578125 4.300781 2.992188 4.300781 2.628906 3.941406 C 2.269531 3.578125 2.597656 3.320312 2.957031 2.957031 C 3.320312 2.597656 3.578125 2.269531 3.941406 2.628906 Z M 3.941406 2.628906 "/>
<path style=" stroke:none;fill-rule:nonzero;fill:rgb(16.078431%,18.431373%,20%);fill-opacity:1;" d="M 2.4375 3.941406 C 2.4375 4.195312 2.230469 4.402344 1.976562 4.402344 C 1.71875 4.402344 1.511719 4.195312 1.511719 3.941406 C 1.511719 3.683594 1.71875 3.476562 1.976562 3.476562 C 2.230469 3.476562 2.4375 3.683594 2.4375 3.941406 Z M 2.4375 3.941406 "/>
<path style=" stroke:none;fill-rule:nonzero;fill:rgb(16.078431%,18.431373%,20%);fill-opacity:1;" d="M 4.402344 1.976562 C 4.402344 2.230469 4.195312 2.4375 3.941406 2.4375 C 3.683594 2.4375 3.476562 2.230469 3.476562 1.976562 C 3.476562 1.71875 3.683594 1.511719 3.941406 1.511719 C 4.195312 1.511719 4.402344 1.71875 4.402344 1.976562 Z M 4.402344 1.976562 "/>
<path style=" stroke:none;fill-rule:nonzero;fill:rgb(65.490196%,55.686275%,50.588235%);fill-opacity:1;" d="M 4.441406 4.332031 C 4.261719 4.332031 4.097656 4.292969 3.96875 4.207031 C 3.890625 4.152344 3.867188 4.046875 3.917969 3.96875 C 3.972656 3.890625 4.078125 3.867188 4.15625 3.917969 C 4.34375 4.042969 4.714844 3.996094 5 3.8125 C 5.113281 3.738281 5.375 3.535156 5.324219 3.230469 C 5.308594 3.136719 5.371094 3.050781 5.464844 3.035156 C 5.558594 3.019531 5.648438 3.082031 5.664062 3.175781 C 5.722656 3.523438 5.542969 3.871094 5.183594 4.101562 C 4.949219 4.253906 4.683594 4.332031 4.441406 4.332031 Z M 4.441406 4.332031 "/>
<path style=" stroke:none;fill-rule:nonzero;fill:rgb(65.490196%,55.686275%,50.588235%);fill-opacity:1;" d="M 3.304688 5.675781 C 3.261719 5.675781 3.21875 5.671875 3.175781 5.664062 C 3.082031 5.648438 3.019531 5.558594 3.035156 5.464844 C 3.050781 5.375 3.140625 5.308594 3.230469 5.324219 C 3.53125 5.375 3.738281 5.113281 3.816406 5 C 4 4.714844 4.046875 4.34375 3.921875 4.15625 C 3.867188 4.078125 3.890625 3.972656 3.96875 3.917969 C 4.046875 3.867188 4.152344 3.890625 4.207031 3.96875 C 4.410156 4.277344 4.367188 4.777344 4.101562 5.183594 C 3.898438 5.5 3.609375 5.675781 3.304688 5.675781 Z M 3.304688 5.675781 "/>
<path style=" stroke:none;fill-rule:nonzero;fill:rgb(51.764706%,40%,34.901961%);fill-opacity:1;" d="M 10.679688 12.042969 C 10.253906 11.363281 10.054688 10.558594 10.308594 10.308594 C 10.5625 10.050781 11.171875 9.996094 12.050781 10.671875 C 11.488281 10.136719 10.484375 9.550781 10.308594 8.570312 C 10.359375 9.472656 10.132812 10.5 8.589844 10.257812 C 9.457031 10.511719 10.679688 12.042969 10.679688 12.042969 Z M 10.679688 12.042969 "/>
<path style=" stroke:none;fill-rule:nonzero;fill:rgb(40.392157%,45.882353%,49.803922%);fill-opacity:1;" d="M 1.21875 6.554688 C 1.207031 6.554688 1.195312 6.554688 1.183594 6.550781 C 1.074219 6.53125 1 6.425781 1.019531 6.316406 C 1.191406 5.371094 1.765625 4.695312 2.566406 4.507812 C 2.671875 4.484375 2.78125 4.550781 2.808594 4.660156 C 2.832031 4.769531 2.765625 4.878906 2.65625 4.902344 C 2.023438 5.050781 1.558594 5.605469 1.417969 6.386719 C 1.402344 6.484375 1.316406 6.554688 1.21875 6.554688 Z M 1.21875 6.554688 "/>
<path style=" stroke:none;fill-rule:nonzero;fill:rgb(40.392157%,45.882353%,49.803922%);fill-opacity:1;" d="M 2.113281 6.65625 C 2.007812 6.65625 1.917969 6.574219 1.910156 6.46875 C 1.878906 6.019531 2.117188 5.425781 2.574219 5.214844 C 2.675781 5.167969 2.792969 5.210938 2.839844 5.3125 C 2.890625 5.414062 2.84375 5.535156 2.742188 5.582031 C 2.464844 5.710938 2.292969 6.136719 2.316406 6.4375 C 2.324219 6.550781 2.238281 6.648438 2.128906 6.65625 C 2.121094 6.65625 2.117188 6.65625 2.113281 6.65625 Z M 4.699219 2.820312 C 4.683594 2.820312 4.667969 2.816406 4.652344 2.8125 C 4.542969 2.789062 4.476562 2.679688 4.503906 2.570312 C 4.6875 1.773438 5.363281 1.195312 6.308594 1.027344 C 6.421875 1.003906 6.527344 1.078125 6.546875 1.1875 C 6.566406 1.300781 6.492188 1.40625 6.382812 1.425781 C 5.601562 1.566406 5.046875 2.027344 4.894531 2.660156 C 4.875 2.753906 4.792969 2.820312 4.699219 2.820312 Z M 4.699219 2.820312 "/>
<path style=" stroke:none;fill-rule:nonzero;fill:rgb(40.392157%,45.882353%,49.803922%);fill-opacity:1;" d="M 5.394531 2.867188 C 5.363281 2.867188 5.335938 2.859375 5.308594 2.847656 C 5.207031 2.800781 5.164062 2.679688 5.210938 2.578125 C 5.421875 2.121094 6.007812 1.882812 6.464844 1.917969 C 6.574219 1.925781 6.660156 2.023438 6.652344 2.132812 C 6.640625 2.246094 6.546875 2.328125 6.433594 2.320312 C 6.136719 2.300781 5.707031 2.46875 5.578125 2.75 C 5.542969 2.820312 5.46875 2.867188 5.394531 2.867188 Z M 5.394531 2.867188 "/>
</g>
</svg>
