<?xml version="1.0" encoding="UTF-8"?>
<svg xmlns="http://www.w3.org/2000/svg" xmlns:xlink="http://www.w3.org/1999/xlink" width="15pt" height="15pt" viewBox="0 0 15 15" version="1.1">
<g id="surface1">
<path style=" stroke:none;fill-rule:nonzero;fill:rgb(88.627451%,37.647059%,0%);fill-opacity:1;" d="M 15 13.332031 C 15 8.332031 14.167969 1.667969 7.5 1.667969 C 0.832031 1.667969 0 8.332031 0 13.332031 L 3.332031 13.332031 L 3.332031 11.25 C 3.332031 10.832031 3.75 10.832031 3.75 11.25 C 3.75 14.167969 5.417969 13.75 5.417969 13.75 L 6.25 14.582031 L 6.667969 14.167969 C 6.667969 13.9375 7.269531 13.75 7.5 13.75 C 7.730469 13.75 8.332031 13.9375 8.332031 14.167969 L 8.75 14.582031 L 9.582031 13.75 C 9.582031 13.75 11.25 14.167969 11.25 11.25 C 11.25 10.832031 11.667969 10.832031 11.667969 11.25 L 11.667969 13.332031 Z M 15 13.332031 "/>
<path style=" stroke:none;fill-rule:nonzero;fill:rgb(88.627451%,37.647059%,0%);fill-opacity:1;" d="M 12.292969 5.625 C 12.292969 8.269531 10.144531 10.417969 7.5 10.417969 C 4.855469 10.417969 2.707031 8.269531 2.707031 5.625 C 2.707031 2.980469 4.855469 0.832031 7.5 0.832031 C 10.144531 0.832031 12.292969 2.980469 12.292969 5.625 Z M 12.292969 5.625 "/>
<path style=" stroke:none;fill-rule:nonzero;fill:rgb(85.098039%,72.54902%,50.588235%);fill-opacity:1;" d="M 13.332031 12.917969 C 12.082031 12.917969 11.667969 13.332031 11.667969 13.332031 L 11.667969 13.75 C 11.667969 13.980469 11.851562 14.167969 12.082031 14.167969 C 12.3125 14.167969 12.5 13.980469 12.5 13.75 C 12.5 13.980469 12.6875 14.167969 12.917969 14.167969 C 13.148438 14.167969 13.332031 13.980469 13.332031 13.75 C 13.332031 13.980469 13.519531 14.167969 13.75 14.167969 C 13.980469 14.167969 14.167969 13.980469 14.167969 13.75 C 14.167969 13.980469 14.351562 14.167969 14.582031 14.167969 C 14.8125 14.167969 15 13.980469 15 13.75 L 15 13.332031 C 15 13.332031 14.582031 12.917969 13.332031 12.917969 Z M 1.667969 12.917969 C 0.417969 12.917969 0 13.332031 0 13.332031 L 0 13.75 C 0 13.980469 0.1875 14.167969 0.417969 14.167969 C 0.648438 14.167969 0.832031 13.980469 0.832031 13.75 C 0.832031 13.980469 1.019531 14.167969 1.25 14.167969 C 1.480469 14.167969 1.667969 13.980469 1.667969 13.75 C 1.667969 13.980469 1.851562 14.167969 2.082031 14.167969 C 2.3125 14.167969 2.5 13.980469 2.5 13.75 C 2.5 13.980469 2.6875 14.167969 2.917969 14.167969 C 3.148438 14.167969 3.332031 13.980469 3.332031 13.75 L 3.332031 13.332031 C 3.332031 13.332031 2.917969 12.917969 1.667969 12.917969 Z M 1.667969 12.917969 "/>
<path style=" stroke:none;fill-rule:nonzero;fill:rgb(76.862745%,32.941176%,0%);fill-opacity:1;" d="M 2.707031 8.167969 C 2.707031 10.4375 5.902344 11.25 7.5 11.25 C 9.097656 11.25 12.292969 10.4375 12.292969 8.167969 C 12.292969 7.183594 11.886719 6.28125 11.210938 5.570312 C 11.21875 5.46875 11.226562 5.367188 11.226562 5.261719 C 11.226562 3.277344 10.375 1.667969 7.5 1.667969 C 4.625 1.667969 3.773438 3.277344 3.773438 5.261719 C 3.773438 5.367188 3.78125 5.46875 3.789062 5.570312 C 3.113281 6.28125 2.707031 7.183594 2.707031 8.167969 Z M 2.707031 8.167969 "/>
<path style=" stroke:none;fill-rule:nonzero;fill:rgb(85.098039%,72.54902%,50.588235%);fill-opacity:1;" d="M 3.332031 7.320312 C 3.332031 9.292969 6.109375 10 7.5 10 C 8.890625 10 11.667969 9.292969 11.667969 7.320312 C 11.667969 6.464844 11.3125 5.679688 10.726562 5.0625 C 10.734375 4.972656 10.742188 4.882812 10.742188 4.792969 C 10.742188 3.066406 10 1.667969 7.5 1.667969 C 5 1.667969 4.257812 3.066406 4.257812 4.792969 C 4.257812 4.882812 4.265625 4.972656 4.273438 5.0625 C 3.6875 5.679688 3.332031 6.464844 3.332031 7.320312 Z M 3.332031 7.320312 "/>
<path style=" stroke:none;fill-rule:nonzero;fill:rgb(16.078431%,18.431373%,20%);fill-opacity:1;" d="M 7.082031 4.582031 C 7.082031 4.8125 6.898438 5 6.667969 5 C 6.4375 5 6.25 4.8125 6.25 4.582031 C 6.25 4.351562 6.4375 4.167969 6.667969 4.167969 C 6.898438 4.167969 7.082031 4.351562 7.082031 4.582031 Z M 7.082031 4.582031 "/>
<path style=" stroke:none;fill-rule:nonzero;fill:rgb(16.078431%,18.431373%,20%);fill-opacity:1;" d="M 8.75 4.582031 C 8.75 4.8125 8.5625 5 8.332031 5 C 8.101562 5 7.917969 4.8125 7.917969 4.582031 C 7.917969 4.351562 8.101562 4.167969 8.332031 4.167969 C 8.5625 4.167969 8.75 4.351562 8.75 4.582031 Z M 8.75 4.582031 "/>
<path style=" stroke:none;fill-rule:nonzero;fill:rgb(100%,90.980392%,71.372549%);fill-opacity:1;" d="M 5.277344 4.613281 C 5.261719 4.613281 5.246094 4.613281 5.226562 4.605469 C 5.113281 4.578125 5.046875 4.464844 5.078125 4.351562 C 5.28125 3.574219 6.078125 3.109375 6.855469 3.308594 C 6.96875 3.339844 7.035156 3.453125 7.003906 3.5625 C 6.976562 3.675781 6.863281 3.742188 6.75 3.714844 C 6.195312 3.566406 5.625 3.902344 5.480469 4.457031 C 5.457031 4.550781 5.371094 4.613281 5.277344 4.613281 Z M 9.722656 4.613281 C 9.628906 4.613281 9.542969 4.550781 9.519531 4.457031 C 9.449219 4.1875 9.277344 3.964844 9.039062 3.824219 C 8.796875 3.679688 8.519531 3.640625 8.25 3.714844 C 8.136719 3.742188 8.023438 3.675781 7.996094 3.566406 C 7.964844 3.453125 8.03125 3.339844 8.144531 3.308594 C 8.519531 3.210938 8.914062 3.265625 9.25 3.464844 C 9.585938 3.660156 9.824219 3.976562 9.921875 4.351562 C 9.953125 4.464844 9.882812 4.578125 9.773438 4.609375 C 9.753906 4.609375 9.738281 4.613281 9.722656 4.613281 Z M 9.722656 4.613281 "/>
<path style=" stroke:none;fill-rule:nonzero;fill:rgb(75.294118%,56.862745%,32.941176%);fill-opacity:1;" d="M 5.417969 2.082031 L 6.25 3.332031 L 6.667969 2.917969 L 7.5 4.167969 L 8.332031 2.917969 L 8.75 3.332031 L 9.582031 2.082031 C 9.582031 2.082031 8.75 1.667969 7.5 1.667969 C 6.25 1.667969 5.417969 2.082031 5.417969 2.082031 Z M 5.417969 2.082031 "/>
<path style=" stroke:none;fill-rule:nonzero;fill:rgb(88.627451%,37.647059%,0%);fill-opacity:1;" d="M 5.417969 2.082031 L 6.25 2.917969 L 6.667969 2.082031 L 7.5 3.332031 L 8.332031 2.082031 L 8.75 2.917969 L 9.582031 2.082031 C 9.582031 2.082031 8.75 1.25 7.5 1.25 C 6.25 1.25 5.417969 2.082031 5.417969 2.082031 Z M 5.417969 2.082031 "/>
<path style=" stroke:none;fill-rule:nonzero;fill:rgb(75.294118%,56.862745%,32.941176%);fill-opacity:1;" d="M 7.5 5.625 C 7.5 5.738281 7.40625 5.832031 7.292969 5.832031 C 7.175781 5.832031 7.082031 5.738281 7.082031 5.625 C 7.082031 5.511719 7.175781 5.417969 7.292969 5.417969 C 7.40625 5.417969 7.5 5.511719 7.5 5.625 Z M 7.5 5.625 "/>
<path style=" stroke:none;fill-rule:nonzero;fill:rgb(75.294118%,56.862745%,32.941176%);fill-opacity:1;" d="M 7.917969 5.625 C 7.917969 5.738281 7.824219 5.832031 7.707031 5.832031 C 7.59375 5.832031 7.5 5.738281 7.5 5.625 C 7.5 5.511719 7.59375 5.417969 7.707031 5.417969 C 7.824219 5.417969 7.917969 5.511719 7.917969 5.625 Z M 7.917969 5.625 "/>
<path style=" stroke:none;fill-rule:nonzero;fill:rgb(16.078431%,18.431373%,20%);fill-opacity:1;" d="M 7.5 8.75 C 5.972656 8.75 5.296875 8.09375 5.269531 8.0625 C 5.1875 7.984375 5.1875 7.851562 5.269531 7.769531 C 5.351562 7.6875 5.480469 7.6875 5.5625 7.769531 C 5.570312 7.773438 6.160156 8.332031 7.5 8.332031 C 8.839844 8.332031 9.429688 7.773438 9.4375 7.769531 C 9.519531 7.6875 9.652344 7.691406 9.730469 7.769531 C 9.8125 7.851562 9.8125 7.984375 9.730469 8.0625 C 9.703125 8.09375 9.027344 8.75 7.5 8.75 Z M 7.5 8.75 "/>
<path style=" stroke:none;fill-rule:nonzero;fill:rgb(85.098039%,72.54902%,50.588235%);fill-opacity:1;" d="M 7.207031 13.75 C 7.109375 14.675781 5.121094 15.417969 4.707031 14.582031 C 4.601562 14.378906 3.730469 12.527344 3.648438 12.3125 C 3.570312 12.097656 3.679688 11.855469 3.894531 11.773438 C 4.109375 11.695312 4.351562 11.804688 4.429688 12.019531 C 4.347656 11.804688 4.457031 11.5625 4.675781 11.484375 C 4.890625 11.402344 5.128906 11.511719 5.210938 11.726562 C 5.128906 11.511719 5.238281 11.269531 5.453125 11.191406 C 5.671875 11.109375 5.910156 11.21875 5.992188 11.433594 C 5.910156 11.21875 6.019531 10.980469 6.234375 10.898438 C 6.453125 10.816406 6.691406 10.925781 6.773438 11.144531 C 6.851562 11.355469 7.25 13.335938 7.207031 13.75 Z M 7.792969 13.75 C 7.890625 14.675781 9.878906 15.417969 10.292969 14.582031 C 10.398438 14.378906 11.269531 12.527344 11.351562 12.3125 C 11.429688 12.097656 11.320312 11.855469 11.105469 11.773438 C 10.890625 11.695312 10.648438 11.804688 10.570312 12.019531 C 10.652344 11.804688 10.542969 11.5625 10.324219 11.484375 C 10.109375 11.402344 9.871094 11.511719 9.789062 11.726562 C 9.871094 11.511719 9.761719 11.269531 9.546875 11.191406 C 9.328125 11.109375 9.089844 11.21875 9.007812 11.433594 C 9.089844 11.21875 8.980469 10.980469 8.765625 10.898438 C 8.546875 10.816406 8.308594 10.925781 8.226562 11.144531 C 8.148438 11.355469 7.75 13.335938 7.792969 13.75 Z M 7.792969 13.75 "/>
</g>
</svg>
