<?xml version="1.0" encoding="UTF-8"?>
<svg xmlns="http://www.w3.org/2000/svg" xmlns:xlink="http://www.w3.org/1999/xlink" width="15pt" height="15pt" viewBox="0 0 15 15" version="1.1">
<g id="surface1">
<path style=" stroke:none;fill-rule:nonzero;fill:rgb(88.235294%,90.980392%,92.941176%);fill-opacity:1;" d="M 1.429688 2.929688 C 0.992188 2.476562 0.789062 1.722656 1.511719 0.804688 C 2.234375 -0.113281 5.320312 -0.390625 5.097656 2.859375 C 5.070312 3.625 4.777344 4.78125 4.015625 6.351562 C 3.820312 6.753906 3.484375 7.40625 3.347656 8.367188 C 3.75 8.035156 4.972656 7.4375 6.226562 7.601562 C 7.476562 7.769531 13.746094 10.578125 15 9.398438 C 15.039062 9.882812 13.484375 14.722656 7.265625 14.722656 C 1.050781 14.722656 0.0507812 11.59375 0.0507812 10.175781 C 0.0507812 8.757812 0.414062 8.019531 1.457031 7.03125 C 2.5 6.046875 4.097656 3.695312 3.375 2.652344 C 3.222656 2.929688 2.222656 3.75 1.429688 2.929688 Z M 1.429688 2.929688 "/>
<path style=" stroke:none;fill-rule:nonzero;fill:rgb(80%,83.921569%,86.666667%);fill-opacity:1;" d="M 4.25 11.066406 C 4.015625 11.957031 5.488281 13.8125 7.878906 13.820312 C 11.375 13.832031 13.246094 11.859375 14.289062 9.339844 C 13.273438 8.894531 8.527344 7.984375 7.152344 8.542969 C 5.777344 9.097656 5.625 9.203125 4.113281 10.007812 C 4.597656 10.09375 4.238281 11.066406 4.25 11.066406 Z M 4.25 11.066406 "/>
<path style=" stroke:none;fill-rule:nonzero;fill:rgb(16.078431%,18.431373%,20%);fill-opacity:1;" d="M 2.28125 3.074219 C 2.320312 3.039062 2.347656 2.996094 2.347656 2.945312 C 2.347656 2.542969 2.375 1.902344 2.511719 1.734375 C 2.839844 1.769531 2.976562 1.429688 2.769531 1.207031 C 2.5625 0.984375 2.179688 1.234375 2.207031 1.472656 C 1.617188 1.3125 1.1875 1.410156 1.046875 1.851562 C 1.003906 2.296875 1.171875 2.667969 1.429688 2.929688 C 1.550781 3.058594 2.167969 3.109375 2.28125 3.074219 Z M 2.28125 3.074219 "/>
<path style=" stroke:none;fill-rule:nonzero;fill:rgb(80%,83.921569%,86.666667%);fill-opacity:1;" d="M 3.214844 1.984375 C 3.214844 2.394531 2.90625 2.878906 2.28125 3.074219 C 2.214844 3.128906 2.101562 3.167969 1.96875 3.183594 C 2.023438 3.222656 2.078125 3.253906 2.140625 3.28125 C 2.726562 3.320312 3.265625 2.851562 3.375 2.652344 C 3.378906 2.65625 3.378906 2.660156 3.378906 2.664062 C 3.394531 2.292969 3.214844 1.984375 3.214844 1.984375 Z M 3.214844 1.984375 "/>
<path style=" stroke:none;fill-rule:nonzero;fill:rgb(88.235294%,90.980392%,92.941176%);fill-opacity:1;" d="M 3.875 10.035156 C 3.890625 9.425781 4.445312 6.964844 7.65625 6.894531 C 10.871094 6.824219 11.121094 8.839844 13.664062 6.699219 C 13.621094 7.242188 12.71875 12.957031 7.894531 12.957031 C 4.054688 12.957031 3.859375 10.648438 3.875 10.035156 Z M 3.875 10.035156 "/>
<path style=" stroke:none;fill-rule:nonzero;fill:rgb(95.686275%,56.470588%,4.705882%);fill-opacity:1;" d="M 0.3125 4.40625 C 0.667969 4.292969 1.886719 3.585938 2.332031 3.082031 C 2.457031 2.945312 1.710938 2.082031 1.015625 1.984375 C 1.054688 2.207031 1.039062 3.054688 0.359375 3.808594 C 0.175781 3.945312 -0.0703125 4.472656 0.3125 4.40625 Z M 0.3125 4.40625 "/>
</g>
</svg>
