<?xml version="1.0" encoding="UTF-8"?>
<svg xmlns="http://www.w3.org/2000/svg" xmlns:xlink="http://www.w3.org/1999/xlink" width="15pt" height="15pt" viewBox="0 0 15 15" version="1.1">
<g id="surface1">
<path style=" stroke:none;fill-rule:nonzero;fill:rgb(19.215686%,21.568627%,23.921569%);fill-opacity:1;" d="M 14.230469 8.628906 C 13.894531 8.042969 13.425781 7.542969 12.746094 7.160156 C 12.566406 7.058594 11.984375 7.046875 11.984375 7.046875 C 11.984375 7.046875 11.691406 6.707031 11.425781 6.636719 C 9.976562 6.253906 7.761719 6.816406 7.082031 7.089844 C 6.402344 7.363281 6.285156 7.214844 5.417969 7.082031 C 5.300781 7.066406 5.171875 7.054688 5.035156 7.054688 C 4.824219 6.875 4.988281 6.425781 4.570312 6.425781 C 4.152344 6.425781 3.972656 6.859375 3.75 7.082031 C 3.65625 7.097656 3.558594 7.113281 3.464844 7.136719 C 3.378906 7.152344 3.292969 7.175781 3.203125 7.199219 C 3.070312 6.917969 2.882812 6.640625 2.695312 6.667969 C 2.527344 6.691406 2.5 7.125 2.519531 7.476562 C 2.40625 7.539062 1.710938 9.03125 1.261719 10.058594 C 1.222656 10.148438 0.476562 10.40625 0.402344 10.480469 C 0.144531 10.734375 -0.0390625 10.960938 0.128906 11.164062 C 0.394531 11.480469 1.234375 11.453125 1.757812 11.375 C 2.285156 11.296875 3.363281 10.746094 3.886719 10.746094 C 5.320312 10.746094 5.523438 12.058594 5.703125 13.039062 C 5.863281 13.925781 5.84375 15.023438 6.25 15 C 6.65625 14.976562 7.5 14.167969 7.5 12.917969 C 7.917969 12.917969 10.71875 13.199219 10.832031 13.332031 C 10.945312 13.46875 11.25 15 11.667969 15 C 12.082031 15 13.75 12.082031 13.75 9.582031 C 14.167969 10.417969 14.027344 11.320312 14.027344 11.617188 C 14.027344 11.910156 14.167969 12.5 14.582031 12.5 C 15 12.5 15 11.664062 15 11.25 C 15 10.835938 14.753906 9.535156 14.230469 8.628906 Z M 14.230469 8.628906 "/>
<path style=" stroke:none;fill-rule:nonzero;fill:rgb(60%,66.666667%,70.980392%);fill-opacity:1;" d="M 13.589844 8.660156 C 13.414062 8 13.035156 7.46875 12.746094 7.164062 C 12.371094 6.953125 11.941406 6.773438 11.425781 6.636719 C 11.535156 7.09375 11.042969 9.515625 7.707031 11.277344 C 7.316406 11.484375 8.066406 12.382812 9.152344 12.65625 C 11.199219 13.171875 12.675781 13.011719 13.359375 11.910156 C 13.589844 11.160156 13.75 10.351562 13.75 9.582031 C 13.757812 9.601562 13.761719 9.617188 13.769531 9.632812 C 13.730469 9.242188 13.65625 8.898438 13.589844 8.660156 Z M 13.589844 8.660156 "/>
<path style=" stroke:none;fill-rule:nonzero;fill:rgb(88.235294%,90.980392%,92.941176%);fill-opacity:1;" d="M 2.066406 9.167969 C 2.421875 8.1875 2.738281 7.589844 3.75 7.082031 C 3.238281 7.152344 2.675781 7.3125 2.1875 7.691406 C 1.03125 8.585938 1.496094 9.273438 0.839844 10.035156 C 0.703125 10.191406 0.542969 10.339844 0.402344 10.480469 C 1.144531 10.417969 1.710938 10.140625 2.066406 9.167969 Z M 6.898438 7.578125 C 5.855469 7.949219 4.421875 8.867188 3.699219 9.476562 C 2.707031 10.308594 1.898438 10.613281 1.484375 10.832031 C 0.804688 11.191406 1.796875 11.324219 2.917969 10.832031 C 3.796875 10.449219 5.390625 9.785156 6.613281 9.792969 C 9.308594 9.808594 10.625 7.585938 11.425781 6.636719 C 9.847656 6.5 8.027344 7.179688 6.898438 7.578125 Z M 6.898438 7.578125 "/>
<path style=" stroke:none;fill-rule:nonzero;fill:rgb(88.235294%,90.980392%,92.941176%);fill-opacity:1;" d="M 3.332031 8.75 C 3.332031 8.980469 3.148438 9.167969 2.917969 9.167969 C 2.6875 9.167969 2.5 8.980469 2.5 8.75 C 2.5 8.519531 2.6875 8.332031 2.917969 8.332031 C 3.148438 8.332031 3.332031 8.519531 3.332031 8.75 Z M 3.332031 8.75 "/>
</g>
</svg>
