<?xml version="1.0" encoding="UTF-8"?>
<svg xmlns="http://www.w3.org/2000/svg" xmlns:xlink="http://www.w3.org/1999/xlink" width="15pt" height="15pt" viewBox="0 0 15 15" version="1.1">
<g id="surface1">
<path style=" stroke:none;fill-rule:nonzero;fill:rgb(16.078431%,18.431373%,20%);fill-opacity:1;" d="M 14.949219 9.820312 C 14.949219 8.445312 14.523438 7.566406 12.90625 6.011719 C 11.761719 4.910156 12.035156 3.589844 12.808594 3.777344 C 13.578125 3.960938 13.734375 4.730469 13.734375 4.730469 C 13.734375 4.730469 14.207031 4.128906 13.578125 3.507812 C 14.035156 3.660156 14.300781 3.988281 14.414062 4.453125 C 15.011719 3.695312 15.425781 1.902344 13.839844 0.730469 C 12.371094 -0.359375 10.011719 -0.136719 8.714844 1.402344 C 7.25 3.140625 8.085938 4.878906 9.242188 5.847656 C 9.941406 6.433594 10.527344 6.9375 10.859375 7.484375 C 9.4375 7.171875 7.738281 7.707031 7.082031 7.96875 C 6.402344 8.242188 6.023438 7.871094 5.890625 7.832031 C 6.335938 6.769531 4.652344 6.855469 4.640625 7.53125 C 4.476562 7.511719 4.304688 7.503906 4.132812 7.5 C 4.121094 6.902344 3.210938 7.121094 3.253906 7.625 C 3.160156 7.652344 3.066406 7.675781 2.972656 7.714844 C 1.625 8.277344 1.898438 9.0625 1.066406 9.628906 C 0.574219 9.964844 0.0898438 9.792969 0.0898438 10.539062 C 0.0898438 10.949219 0.75 11.269531 1.410156 11.304688 C 2.683594 11.363281 3.320312 10.96875 3.828125 11.101562 C 5.214844 11.472656 5.523438 12.9375 5.703125 13.917969 C 5.863281 14.804688 5.84375 15 6.25 14.976562 C 6.65625 14.953125 7.5 15.046875 7.5 13.796875 C 8.210938 13.683594 9.15625 14.09375 10.417969 13.957031 C 10.59375 13.9375 10.707031 14.820312 10.945312 14.929688 C 11.160156 15.03125 11.84375 14.992188 12.167969 14.667969 C 12.40625 14.429688 12.414062 14.046875 12.414062 13.640625 C 14.445312 12.789062 14.949219 11.0625 14.949219 9.820312 Z M 14.949219 9.820312 "/>
<path style=" stroke:none;fill-rule:nonzero;fill:rgb(88.235294%,90.980392%,92.941176%);fill-opacity:1;" d="M 3.820312 8.925781 C 3.820312 9.15625 3.632812 9.34375 3.402344 9.34375 C 3.175781 9.34375 2.988281 9.15625 2.988281 8.925781 C 2.988281 8.695312 3.175781 8.511719 3.402344 8.511719 C 3.632812 8.511719 3.820312 8.695312 3.820312 8.925781 Z M 3.820312 8.925781 "/>
<path style=" stroke:none;fill-rule:nonzero;fill:rgb(88.235294%,90.980392%,92.941176%);fill-opacity:1;" d="M 2.0625 8.925781 C 2.234375 8.164062 2.832031 7.613281 3.761719 7.519531 C 4.402344 7.457031 4.640625 7.53125 4.640625 7.53125 C 4.640625 7.53125 4.351562 7.976562 4.015625 8.066406 C 3.542969 8.195312 2.855469 7.992188 2.0625 8.925781 Z M 6.492188 8.097656 C 7.636719 8.566406 8.390625 10.070312 9.65625 10.664062 C 12.1875 11.855469 13.453125 10.277344 13.75 9.253906 C 14.105469 8.03125 13.117188 6.660156 11.855469 5.476562 C 10.359375 4.066406 10.710938 2.195312 11.523438 1.535156 C 12.316406 0.894531 13.285156 0.667969 14.492188 1.382812 C 13.484375 0.320312 12.363281 0.300781 11.351562 0.722656 C 10.34375 1.140625 9.253906 2.449219 9.851562 4.046875 C 10.390625 5.492188 12.085938 6.410156 12.488281 7.546875 C 12.691406 8.125 12.371094 9.304688 11.308594 9.449219 C 9.546875 9.6875 8.566406 8.3125 6.492188 8.097656 Z M 6.492188 8.097656 "/>
<path style=" stroke:none;fill-rule:nonzero;fill:rgb(88.235294%,90.980392%,92.941176%);fill-opacity:1;" d="M 7.132812 8.070312 C 7.132812 8.070312 8.371094 7.78125 9.5625 7.847656 C 10.753906 7.917969 11.296875 8.070312 11.296875 8.070312 C 11.296875 8.070312 11.601562 7.304688 10.296875 6.167969 C 8.816406 4.875 7.917969 3.960938 8.429688 2.351562 C 8.882812 0.929688 11.042969 -0.507812 13.203125 0.359375 C 10.929688 -0.140625 9.679688 1.203125 9.21875 2.015625 C 8.761719 2.832031 8.726562 4 9.894531 5.296875 C 11.066406 6.59375 12.132812 7.28125 11.640625 8.152344 C 11.472656 8.449219 10.734375 8.765625 9.691406 8.492188 C 8.90625 8.289062 8.027344 7.980469 7.132812 8.070312 Z M 7.132812 8.070312 "/>
</g>
</svg>
