<?xml version="1.0" encoding="UTF-8"?>
<svg xmlns="http://www.w3.org/2000/svg" xmlns:xlink="http://www.w3.org/1999/xlink" width="15pt" height="15pt" viewBox="0 0 15 15" version="1.1">
<g id="surface1">
<path style=" stroke:none;fill-rule:nonzero;fill:rgb(40%,12.941176%,7.45098%);fill-opacity:1;" d="M 13.957031 6.824219 C 13.863281 4.839844 0.253906 5.117188 0.253906 5.117188 C 0.253906 6.367188 0.890625 6.808594 0.835938 7.394531 C 0.789062 7.9375 1.652344 8.136719 1.652344 8.136719 C 1.652344 8.136719 2.339844 8.449219 2.339844 9.28125 C 2.339844 9.828125 2.820312 10.433594 3.238281 11.855469 C 3.363281 13.164062 4.8125 13.515625 5.46875 13.328125 C 6.175781 13.121094 6.746094 13.242188 6.953125 13.4375 C 7.441406 13.90625 8.28125 13.734375 8.785156 13.523438 C 9.109375 13.386719 9.320312 12.941406 10.070312 13.300781 C 10.640625 13.574219 11.054688 13.363281 11.558594 12.925781 L 11.554688 12.9375 C 11.574219 12.910156 11.601562 12.894531 11.625 12.871094 L 11.710938 12.792969 C 12.117188 12.527344 12.921875 12.597656 13.113281 12.144531 C 13.34375 11.609375 14.195312 11.363281 14.28125 11.210938 C 14.625 10.589844 14.039062 10.359375 14.082031 10.089844 C 14.328125 9.921875 14.664062 9.800781 14.875 9.390625 C 15.335938 8.492188 13.992188 7.621094 13.957031 6.824219 Z M 13.957031 6.824219 "/>
<path style=" stroke:none;fill-rule:nonzero;fill:rgb(75.686275%,41.176471%,30.980392%);fill-opacity:1;" d="M 0.253906 3.449219 C 0.671875 2.199219 2.339844 1.78125 3.589844 1.78125 C 4.839844 1.78125 9.003906 2.199219 10.253906 3.03125 C 11.503906 3.867188 14.003906 5.949219 14.003906 6.367188 C 14.003906 6.78125 14.839844 8.03125 14.839844 8.449219 C 14.839844 8.867188 14.421875 9.699219 14.003906 9.699219 C 13.589844 9.699219 14.421875 10.117188 14.003906 10.949219 C 13.820312 11.320312 12.339844 12.199219 11.921875 12.199219 C 11.503906 12.199219 11.089844 13.03125 10.671875 13.03125 C 10.253906 13.03125 9.421875 12.617188 9.003906 13.03125 C 8.589844 13.449219 7.753906 13.449219 6.921875 13.03125 C 6.089844 12.617188 5.671875 13.03125 5.253906 13.03125 C 4.839844 13.03125 3.589844 12.199219 3.589844 11.78125 C 3.589844 11.367188 3.171875 9.28125 2.753906 8.867188 C 2.339844 8.449219 1.921875 7.199219 1.089844 6.78125 C 0.253906 6.367188 -0.160156 4.699219 0.253906 3.449219 Z M 0.253906 3.449219 "/>
<path style=" stroke:none;fill-rule:nonzero;fill:rgb(80%,83.921569%,86.666667%);fill-opacity:1;" d="M 1.304688 3.390625 C 2.058594 2.429688 3.171875 2.199219 4.421875 2.199219 C 5.671875 2.199219 9.421875 2.617188 10.671875 3.449219 C 11.316406 3.878906 12.179688 4.636719 12.867188 5.332031 C 13.515625 5.984375 14.003906 6.582031 14.003906 6.78125 C 14.003906 7.199219 14.839844 8.03125 14.839844 8.449219 C 14.839844 8.867188 14.421875 9.28125 14.003906 9.28125 C 13.589844 9.28125 13.753906 10.03125 13.589844 10.949219 C 13.496094 11.46875 12.402344 11.882812 11.921875 11.78125 C 11.515625 11.699219 11.089844 12.617188 10.671875 12.617188 C 10.253906 12.617188 9.421875 12.199219 9.003906 12.617188 C 8.589844 13.03125 8.171875 13.449219 7.339844 13.03125 C 6.503906 12.617188 6.089844 12.617188 5.671875 12.617188 C 5.253906 12.617188 4.003906 12.199219 4.003906 11.78125 C 4.003906 11.367188 3.589844 9.28125 3.171875 8.867188 C 2.753906 8.449219 2.339844 7.199219 1.503906 6.78125 C 0.671875 6.367188 0.488281 4.429688 1.304688 3.390625 Z M 1.304688 3.390625 "/>
<path style=" stroke:none;fill-rule:nonzero;fill:rgb(88.235294%,90.980392%,92.941176%);fill-opacity:1;" d="M 1.75 3.769531 C 2.578125 2.746094 4.007812 2.773438 5.257812 2.773438 C 6.507812 2.773438 9.273438 2.9375 10.523438 3.769531 C 11.773438 4.605469 13.589844 6.367188 13.589844 6.78125 C 13.589844 7.199219 14.546875 8.273438 14.546875 8.691406 C 14.546875 9.105469 14.003906 8.867188 13.589844 8.867188 C 13.171875 8.867188 13.796875 10.09375 13.378906 10.925781 C 13.191406 11.300781 12.339844 11.367188 11.921875 11.367188 C 11.503906 11.367188 11.113281 12.40625 10.695312 12.40625 C 10.277344 12.40625 9.421875 11.78125 9.003906 12.199219 C 8.589844 12.617188 8.363281 13.339844 7.53125 12.921875 C 6.695312 12.503906 6.039062 12 5.671875 12.199219 C 4.984375 12.578125 4.421875 11.78125 4.421875 11.367188 C 4.421875 10.949219 3.714844 8.625 3.296875 8.207031 C 2.882812 7.792969 2.753906 6.59375 1.921875 6.179688 C 1.089844 5.761719 1.242188 4.402344 1.75 3.769531 Z M 1.75 3.769531 "/>
<path style=" stroke:none;fill-rule:nonzero;fill:rgb(100%,67.45098%,20%);fill-opacity:1;" d="M 1.453125 3.496094 C 1.964844 2.542969 3.574219 2.515625 4.460938 2.554688 C 5.347656 2.589844 7.964844 2.96875 8.660156 3.796875 C 9.355469 4.628906 10.277344 5.308594 10.859375 5.574219 C 11.4375 5.835938 13.132812 6.441406 13.09375 7.273438 C 13.054688 8.101562 12.4375 8.441406 12.4375 8.441406 C 12.4375 8.441406 13.324219 9.273438 12.898438 9.914062 C 12.476562 10.558594 10.855469 10.785156 10.164062 10.367188 C 9.46875 9.953125 8.8125 10.820312 7.695312 10.632812 C 6.578125 10.445312 5.617188 9.992188 4.84375 8.632812 C 4.074219 7.273438 2.839844 6.402344 2.183594 5.835938 C 1.527344 5.269531 1.066406 4.214844 1.453125 3.496094 Z M 1.453125 3.496094 "/>
<path style=" stroke:none;fill-rule:nonzero;fill:rgb(100%,85.098039%,51.372549%);fill-opacity:1;" d="M 11.207031 9.84375 C 10.964844 9.84375 10.75 9.792969 10.601562 9.703125 C 10.363281 9.554688 10.121094 9.484375 9.859375 9.484375 C 9.589844 9.484375 9.351562 9.558594 9.121094 9.628906 C 8.886719 9.707031 8.660156 9.777344 8.386719 9.777344 C 8.296875 9.777344 8.199219 9.769531 8.09375 9.75 C 6.886719 9.539062 6.046875 8.925781 5.445312 7.824219 C 4.808594 6.664062 3.984375 6.078125 3.320312 5.605469 C 3.089844 5.441406 2.890625 5.300781 2.730469 5.15625 C 2.230469 4.707031 1.859375 3.960938 2.105469 3.484375 C 2.308594 3.089844 2.777344 2.914062 3.617188 2.914062 C 3.828125 2.914062 4.039062 2.921875 4.230469 2.933594 L 4.398438 2.941406 C 6.136719 3.015625 7.5625 3.386719 7.941406 3.859375 C 8.710938 4.816406 10.007812 5.746094 10.648438 6.050781 C 10.757812 6.101562 10.898438 6.160156 11.054688 6.222656 C 11.429688 6.378906 12.433594 6.789062 12.421875 7.117188 C 12.398438 7.585938 11.996094 7.757812 11.953125 7.773438 L 10.953125 8.164062 L 11.839844 8.773438 C 12.074219 8.9375 12.382812 9.28125 12.3125 9.394531 C 12.148438 9.652344 11.671875 9.84375 11.207031 9.84375 Z M 11.207031 9.84375 "/>
<path style=" stroke:none;fill-rule:nonzero;fill:rgb(100%,67.45098%,20%);fill-opacity:1;" d="M 8.523438 6.328125 C 8.523438 5.832031 7.851562 5.433594 7.027344 5.433594 C 6.203125 5.433594 5.535156 5.832031 5.535156 6.328125 C 5.535156 6.820312 6.203125 7.21875 7.027344 7.21875 C 7.851562 7.21875 8.523438 6.820312 8.523438 6.328125 Z M 8.523438 6.328125 "/>
<path style=" stroke:none;fill-rule:nonzero;fill:rgb(88.235294%,90.980392%,92.941176%);fill-opacity:1;" d="M 8.484375 5.167969 C 8.484375 5.972656 7.832031 6.625 7.027344 6.625 C 6.222656 6.625 5.570312 5.972656 5.570312 5.167969 C 5.570312 4.363281 6.222656 3.710938 7.027344 3.710938 C 7.832031 3.710938 8.484375 4.363281 8.484375 5.167969 Z M 8.484375 5.167969 "/>
<path style=" stroke:none;fill-rule:nonzero;fill:rgb(100%,100%,100%);fill-opacity:1;" d="M 7.929688 4.679688 C 7.929688 4.257812 7.527344 3.914062 7.027344 3.914062 C 6.53125 3.914062 6.125 4.257812 6.125 4.679688 C 6.125 5.101562 6.53125 5.441406 7.027344 5.441406 C 7.527344 5.441406 7.929688 5.101562 7.929688 4.679688 Z M 7.929688 4.679688 "/>
</g>
</svg>
