<?xml version="1.0" encoding="UTF-8"?>
<svg xmlns="http://www.w3.org/2000/svg" xmlns:xlink="http://www.w3.org/1999/xlink" width="15pt" height="15pt" viewBox="0 0 15 15" version="1.1">
<g id="surface1">
<path style=" stroke:none;fill-rule:nonzero;fill:rgb(80%,83.921569%,86.666667%);fill-opacity:1;" d="M 10.605469 2.851562 L 11.136719 3.382812 L 3.167969 11.351562 L 2.636719 10.820312 Z M 0.246094 13.742188 C 0.0976562 13.59375 0.0976562 13.355469 0.246094 13.210938 L 1.839844 11.617188 C 1.984375 11.46875 2.222656 11.46875 2.371094 11.617188 C 2.515625 11.761719 2.515625 12 2.371094 12.148438 L 0.777344 13.742188 C 0.628906 13.886719 0.390625 13.886719 0.246094 13.742188 Z M 0.246094 13.742188 "/>
<path style=" stroke:none;fill-rule:nonzero;fill:rgb(86.666667%,18.039216%,26.666667%);fill-opacity:1;" d="M 3.167969 10.289062 L 3.699219 10.820312 L 1.574219 12.945312 L 1.042969 12.414062 Z M 3.167969 10.289062 "/>
<path style=" stroke:none;fill-rule:nonzero;fill:rgb(16.078431%,18.431373%,20%);fill-opacity:1;" d="M 10.339844 3.648438 C 10.191406 3.5 10.191406 3.261719 10.339844 3.117188 L 11.933594 1.523438 C 12.078125 1.375 12.316406 1.375 12.464844 1.523438 C 12.609375 1.667969 12.609375 1.90625 12.464844 2.054688 L 10.871094 3.648438 C 10.722656 3.792969 10.484375 3.792969 10.339844 3.648438 Z M 10.339844 3.648438 "/>
<path style=" stroke:none;fill-rule:nonzero;fill:rgb(16.078431%,18.431373%,20%);fill-opacity:1;" d="M 10.667969 3.976562 L 10.007812 3.316406 C 9.925781 3.234375 9.925781 3.101562 10.007812 3.023438 L 10.246094 2.785156 C 10.324219 2.703125 10.457031 2.703125 10.539062 2.785156 L 11.199219 3.445312 C 11.28125 3.527344 11.28125 3.660156 11.199219 3.742188 L 10.964844 3.976562 C 10.882812 4.058594 10.75 4.058594 10.667969 3.976562 Z M 13.554688 2.621094 C 12.917969 2.53125 12.285156 2 12.257812 1.976562 L 12.121094 1.859375 L 12.230469 1.71875 C 12.660156 1.15625 13.835938 0.898438 14.464844 1.222656 C 14.9375 1.46875 14.957031 1.773438 14.925781 1.929688 C 14.851562 2.292969 14.398438 2.582031 13.820312 2.628906 C 13.734375 2.636719 13.644531 2.632812 13.554688 2.621094 Z M 12.660156 1.8125 C 12.9375 2.011719 13.414062 2.285156 13.789062 2.253906 C 14.207031 2.21875 14.523438 2.019531 14.554688 1.855469 C 14.582031 1.722656 14.378906 1.601562 14.292969 1.558594 C 13.867188 1.335938 13.0625 1.476562 12.660156 1.8125 Z M 12.660156 1.8125 "/>
</g>
</svg>
