<?xml version="1.0" encoding="UTF-8"?>
<svg xmlns="http://www.w3.org/2000/svg" xmlns:xlink="http://www.w3.org/1999/xlink" width="15pt" height="15pt" viewBox="0 0 15 15" version="1.1">
<g id="surface1">
<path style=" stroke:none;fill-rule:nonzero;fill:rgb(16.078431%,18.431373%,20%);fill-opacity:1;" d="M 7.5 12.5 L 7.5 15 L 0.832031 15 C 0.832031 15 0.00390625 12.921875 1.667969 12.082031 C 2.566406 11.632812 3.332031 12.082031 3.332031 12.082031 Z M 7.5 12.5 L 7.5 15 L 14.167969 15 C 14.167969 15 14.996094 12.921875 13.332031 12.082031 C 12.433594 11.632812 11.667969 12.082031 11.667969 12.082031 Z M 7.5 12.5 "/>
<path style=" stroke:none;fill-rule:nonzero;fill:rgb(60%,66.666667%,70.980392%);fill-opacity:1;" d="M 5 15 L 4.167969 13.75 L 7.5 14.582031 L 10.832031 13.75 L 10 15 Z M 5 15 "/>
<path style=" stroke:none;fill-rule:nonzero;fill:rgb(60%,66.666667%,70.980392%);fill-opacity:1;" d="M 7.5 13.332031 L 8.332031 13.75 L 7.5 15 L 6.667969 13.75 Z M 7.5 13.332031 "/>
<path style=" stroke:none;fill-rule:nonzero;fill:rgb(100%,86.27451%,36.470588%);fill-opacity:1;" d="M 5.683594 11.707031 C 6.410156 12.238281 6.871094 12.527344 7.5 12.527344 C 8.128906 12.527344 8.589844 12.238281 9.316406 11.707031 L 9.316406 10.121094 L 5.683594 10.121094 Z M 5.683594 11.707031 "/>
<path style=" stroke:none;fill-rule:nonzero;fill:rgb(100%,67.45098%,20%);fill-opacity:1;" d="M 5.679688 10.625 C 5.832031 11.46875 6.816406 11.550781 7.5 11.550781 C 8.179688 11.550781 9.167969 11.46875 9.316406 10.625 L 9.316406 9.367188 L 5.679688 9.367188 Z M 5.679688 10.625 "/>
<path style=" stroke:none;fill-rule:nonzero;fill:rgb(100%,86.27451%,36.470588%);fill-opacity:1;" d="M 4.769531 6.640625 C 4.769531 7.242188 4.460938 7.734375 4.085938 7.734375 C 3.707031 7.734375 3.402344 7.242188 3.402344 6.640625 C 3.402344 6.035156 3.707031 5.546875 4.085938 5.546875 C 4.460938 5.546875 4.769531 6.035156 4.769531 6.640625 M 11.597656 6.640625 C 11.597656 7.242188 11.292969 7.734375 10.914062 7.734375 C 10.535156 7.734375 10.230469 7.242188 10.230469 6.640625 C 10.230469 6.035156 10.535156 5.546875 10.914062 5.546875 C 11.292969 5.546875 11.597656 6.035156 11.597656 6.640625 "/>
<path style=" stroke:none;fill-rule:nonzero;fill:rgb(100%,86.27451%,36.470588%);fill-opacity:1;" d="M 7.5 2.917969 C 5.417969 2.917969 4.167969 3.75 4.167969 5 C 4.167969 6.25 4.167969 8.75 5 10 C 5.832031 11.25 6.667969 11.25 7.5 11.25 C 8.332031 11.25 9.167969 11.25 10 10 C 10.832031 8.75 10.832031 6.25 10.832031 5 C 10.832031 3.75 9.582031 2.917969 7.5 2.917969 Z M 7.5 2.917969 "/>
<path style=" stroke:none;fill-rule:nonzero;fill:rgb(100%,67.45098%,20%);fill-opacity:1;" d="M 7.84375 1.300781 C 8.199219 1.328125 8.878906 0.773438 9.582031 0.992188 C 9.152344 1.332031 9.699219 1.785156 10.03125 2.019531 C 10.226562 2.15625 11.179688 2.140625 11.328125 2.304688 C 10.609375 2.628906 10.964844 3.035156 11.089844 3.34375 C 11.25 3.738281 11.324219 4.15625 11.324219 4.570312 C 11.324219 6.070312 11.03125 6.671875 10.734375 6.070312 C 10.441406 5.472656 10.171875 4.667969 10.171875 4.667969 C 10.171875 4.667969 8.382812 4.871094 7.792969 4.269531 L 8.003906 5.019531 C 8.003906 5.019531 7.421875 4.878906 6.792969 4.050781 L 6.574219 4.789062 C 6.574219 4.789062 6.171875 4.589844 5.441406 3.96875 C 5.441406 3.96875 4.558594 4.570312 4.265625 6.070312 C 4.183594 6.488281 3.675781 6.070312 3.675781 4.570312 C 3.675781 4.066406 3.691406 3.445312 3.890625 2.941406 C 4.035156 2.578125 4.523438 2.214844 3.910156 1.65625 C 4.59375 1.351562 5.289062 1.957031 5.71875 2 C 5.945312 1.636719 6.917969 0.597656 7.3125 0.503906 C 7.242188 0.953125 7.433594 1.265625 7.84375 1.300781 Z M 7.84375 1.300781 "/>
<path style=" stroke:none;fill-rule:nonzero;fill:rgb(74.509804%,9.803922%,19.215686%);fill-opacity:1;" d="M 7.5 5.417969 L 9.582031 5 L 10 4.167969 L 10.832031 5 L 10.417969 6.25 L 10.832031 7.082031 L 10 7.917969 L 9.582031 8.75 L 9.167969 7.917969 L 7.5 7.082031 L 5.832031 7.917969 L 5.417969 8.75 L 5 7.917969 L 4.167969 7.082031 L 4.582031 6.25 L 4.167969 5 L 5 4.167969 L 5.417969 5 Z M 7.5 5.417969 "/>
<path style=" stroke:none;fill-rule:nonzero;fill:rgb(0%,0%,0%);fill-opacity:1;" d="M 6.457031 6.457031 C 6.457031 6.6875 6.269531 6.875 6.042969 6.875 L 5.625 6.875 C 5.394531 6.875 5.207031 6.6875 5.207031 6.457031 C 5.207031 6.230469 5.394531 6.042969 5.625 6.042969 L 6.042969 6.042969 C 6.269531 6.042969 6.457031 6.230469 6.457031 6.457031 M 9.792969 6.457031 C 9.792969 6.230469 9.605469 6.042969 9.375 6.042969 L 8.957031 6.042969 C 8.730469 6.042969 8.542969 6.230469 8.542969 6.457031 C 8.542969 6.6875 8.730469 6.875 8.957031 6.875 L 9.375 6.875 C 9.605469 6.875 9.792969 6.6875 9.792969 6.457031 "/>
<path style=" stroke:none;fill-rule:nonzero;fill:rgb(75.686275%,41.176471%,30.980392%);fill-opacity:1;" d="M 7.8125 8.230469 L 7.1875 8.230469 C 7.015625 8.230469 6.875 8.089844 6.875 7.917969 C 6.875 7.746094 7.015625 7.605469 7.1875 7.605469 L 7.8125 7.605469 C 7.984375 7.605469 8.125 7.746094 8.125 7.917969 C 8.125 8.089844 7.984375 8.230469 7.8125 8.230469 "/>
<path style=" stroke:none;fill-rule:nonzero;fill:rgb(74.509804%,9.803922%,19.215686%);fill-opacity:1;" d="M 13.75 12.082031 C 13.414062 11.542969 11.25 11.25 10 11.25 C 9.582031 11.25 8.75 12.527344 7.5 12.527344 C 6.25 12.527344 5.417969 11.25 5 11.25 C 3.75 11.25 1.585938 11.542969 1.25 12.082031 C 0.625 13.082031 2.917969 13.332031 3.75 13.332031 C 4.582031 13.332031 5.738281 12.917969 7.5 12.917969 C 9.261719 12.917969 10.417969 13.332031 11.25 13.332031 C 12.082031 13.332031 14.375 13.082031 13.75 12.082031 Z M 13.75 12.082031 "/>
<path style=" stroke:none;fill-rule:nonzero;fill:rgb(60%,66.666667%,70.980392%);fill-opacity:1;" d="M 2.425781 10.785156 C 2.710938 10.753906 3.476562 11.910156 3.445312 12.097656 C 3.414062 12.285156 1.691406 12.355469 1.59375 12.203125 C 1.496094 12.046875 2.136719 10.8125 2.425781 10.785156 Z M 3.386719 11.507812 C 3.460938 11.621094 4.730469 11.558594 4.753906 11.417969 C 4.777344 11.277344 4.203125 10.433594 3.988281 10.457031 C 3.777344 10.480469 3.316406 11.398438 3.386719 11.507812 Z M 13.402344 12.203125 C 13.304688 12.355469 11.582031 12.285156 11.550781 12.097656 C 11.515625 11.910156 12.28125 10.753906 12.570312 10.785156 C 12.859375 10.8125 13.496094 12.046875 13.402344 12.203125 Z M 11.003906 10.457031 C 10.792969 10.433594 10.21875 11.277344 10.242188 11.417969 C 10.261719 11.558594 11.535156 11.621094 11.605469 11.507812 C 11.679688 11.398438 11.21875 10.480469 11.003906 10.457031 Z M 11.003906 10.457031 "/>
<path style=" stroke:none;fill-rule:nonzero;fill:rgb(75.686275%,41.176471%,30.980392%);fill-opacity:1;" d="M 8.679688 8.824219 C 8.394531 8.949219 7.855469 9.167969 7.386719 9.167969 L 6.457031 9.167969 C 6.34375 9.167969 6.25 9.261719 6.25 9.375 C 6.25 9.488281 6.34375 9.582031 6.457031 9.582031 L 8.210938 9.582031 C 8.210938 9.582031 8.214844 9.582031 8.214844 9.582031 L 8.242188 9.582031 C 8.484375 9.582031 8.667969 9.320312 8.765625 9.109375 C 8.882812 8.859375 8.875 8.742188 8.679688 8.824219 Z M 8.679688 8.824219 "/>
</g>
</svg>
