<?xml version="1.0" encoding="UTF-8"?>
<svg xmlns="http://www.w3.org/2000/svg" xmlns:xlink="http://www.w3.org/1999/xlink" width="15pt" height="15pt" viewBox="0 0 15 15" version="1.1">
<g id="surface1">
<path style=" stroke:none;fill-rule:nonzero;fill:rgb(40%,45.882353%,49.803922%);fill-opacity:1;" d="M 12.667969 9.734375 C 12.480469 9.601562 12.4375 9.339844 12.570312 9.152344 L 13.292969 8.132812 C 13.425781 7.945312 13.6875 7.902344 13.875 8.035156 C 14.0625 8.167969 14.105469 8.429688 13.972656 8.617188 L 13.25 9.636719 C 13.117188 9.820312 12.855469 9.867188 12.667969 9.734375 Z M 12.667969 9.734375 "/>
<path style=" stroke:none;fill-rule:nonzero;fill:rgb(60%,66.666667%,70.980392%);fill-opacity:1;" d="M 7.5 0 C 10.417969 0 14.582031 0.832031 14.582031 5 C 14.582031 7.917969 11.25 12.082031 8.75 12.082031 C 6.25 12.082031 7.5 0 7.5 0 Z M 7.5 0 "/>
<path style=" stroke:none;fill-rule:nonzero;fill:rgb(100%,86.27451%,36.470588%);fill-opacity:1;" d="M 12.082031 6.25 C 11.667969 8.75 10.167969 9.625 9.582031 11.667969 C 8.75 14.582031 6.667969 15 5 15 C 2.082031 15 3.394531 12.261719 2.082031 8.332031 C 0.832031 4.582031 0.953125 1.707031 5 0.832031 C 8.855469 0 12.765625 2.164062 12.082031 6.25 Z M 12.082031 6.25 "/>
<path style=" stroke:none;fill-rule:nonzero;fill:rgb(93.72549%,58.823529%,27.058824%);fill-opacity:1;" d="M 9.976562 2.589844 C 8.878906 1.679688 7.097656 1.332031 5.335938 1.675781 C 4.339844 1.871094 3.582031 2.359375 3.09375 3.132812 C 2.046875 4.785156 2.625 7.140625 2.652344 7.238281 C 2.707031 7.460938 2.933594 7.597656 3.15625 7.539062 C 3.378906 7.484375 3.515625 7.257812 3.460938 7.035156 C 3.457031 7.027344 3.402344 6.804688 3.359375 6.46875 C 3.382812 6.464844 3.40625 6.46875 3.433594 6.464844 C 4.703125 6.152344 5.570312 6.441406 5.808594 7.265625 C 6.03125 8.03125 5.621094 9.144531 4.789062 9.421875 C 4.371094 9.535156 3.800781 9.839844 3.574219 10.339844 C 3.46875 10.570312 3.390625 10.941406 3.621094 11.402344 C 3.695312 11.546875 3.839844 11.632812 3.992188 11.632812 C 4.054688 11.632812 4.121094 11.617188 4.179688 11.589844 C 4.386719 11.484375 4.46875 11.234375 4.367188 11.027344 C 4.277344 10.847656 4.304688 10.746094 4.332031 10.683594 C 4.429688 10.464844 4.78125 10.285156 5.027344 10.222656 C 6.375 9.773438 6.941406 8.179688 6.609375 7.035156 C 6.324219 6.046875 5.304688 5.171875 3.304688 5.640625 C 3.300781 4.980469 3.402344 4.203125 3.796875 3.578125 C 4.164062 3 4.722656 2.644531 5.496094 2.492188 C 7.019531 2.195312 8.535156 2.480469 9.449219 3.230469 C 10.089844 3.761719 10.417969 4.496094 10.417969 5.417969 C 10.417969 6.867188 9.996094 7.398438 9.414062 8.132812 C 9.222656 8.378906 9.023438 8.628906 8.820312 8.933594 C 8.691406 9.128906 8.742188 9.386719 8.933594 9.511719 C 9.007812 9.558594 9.085938 9.582031 9.167969 9.582031 C 9.300781 9.582031 9.433594 9.519531 9.511719 9.398438 C 9.699219 9.117188 9.886719 8.882812 10.070312 8.652344 C 10.675781 7.882812 11.25 7.15625 11.25 5.417969 C 11.25 4.25 10.808594 3.273438 9.976562 2.589844 Z M 9.976562 2.589844 "/>
<path style=" stroke:none;fill-rule:nonzero;fill:rgb(40%,45.882353%,49.803922%);fill-opacity:1;" d="M 6.667969 7.5 C 6.667969 8.652344 5.734375 9.582031 4.582031 9.582031 C 3.433594 9.582031 2.5 8.652344 2.5 7.5 C 2.5 6.347656 3.433594 5.417969 4.582031 5.417969 C 5.734375 5.417969 6.667969 6.347656 6.667969 7.5 Z M 6.667969 7.5 "/>
<path style=" stroke:none;fill-rule:nonzero;fill:rgb(60%,66.666667%,70.980392%);fill-opacity:1;" d="M 5.832031 7.5 C 5.832031 8.191406 5.273438 8.75 4.582031 8.75 C 3.894531 8.75 3.332031 8.191406 3.332031 7.5 C 3.332031 6.808594 3.894531 6.25 4.582031 6.25 C 5.273438 6.25 5.832031 6.808594 5.832031 7.5 Z M 5.832031 7.5 "/>
<path style=" stroke:none;fill-rule:nonzero;fill:rgb(80%,83.921569%,86.666667%);fill-opacity:1;" d="M 4.582031 7.917969 C 4.554688 7.917969 4.523438 7.914062 4.492188 7.90625 C 2.75 7.519531 1.714844 6.03125 1.917969 4.199219 C 2.140625 2.175781 3.980469 0 7.5 0 C 7.730469 0 7.917969 0.1875 7.917969 0.417969 C 7.917969 0.648438 7.730469 0.832031 7.5 0.832031 C 4.476562 0.832031 2.933594 2.570312 2.746094 4.289062 C 2.628906 5.359375 3.0625 6.734375 4.671875 7.09375 C 4.898438 7.144531 5.039062 7.367188 4.988281 7.589844 C 4.945312 7.785156 4.773438 7.917969 4.582031 7.917969 Z M 4.582031 7.917969 "/>
</g>
</svg>
