<?xml version="1.0" encoding="UTF-8"?>
<svg xmlns="http://www.w3.org/2000/svg" xmlns:xlink="http://www.w3.org/1999/xlink" width="15pt" height="15pt" viewBox="0 0 15 15" version="1.1">
<g id="surface1">
<path style=" stroke:none;fill-rule:nonzero;fill:rgb(100%,89.803922%,11.764706%);fill-opacity:1;" d="M 3.382812 7.078125 C 3.382812 8.265625 4.578125 10.398438 7.460938 10.398438 C 10.34375 10.398438 11.488281 8.382812 11.488281 6.625 C 11.488281 6.15625 9.804688 5.121094 7.5 5.121094 C 5.195312 5.121094 3.382812 6.214844 3.382812 7.078125 Z M 3.382812 7.078125 "/>
<path style=" stroke:none;fill-rule:nonzero;fill:rgb(62.745098%,1.568627%,11.764706%);fill-opacity:1;" d="M 12.34375 11.8125 C 11.09375 10.980469 7.5 12.917969 7.5 12.917969 C 7.5 12.917969 3.90625 10.980469 2.65625 11.8125 C 1.40625 12.644531 0.417969 15 0.417969 15 L 14.582031 15 C 14.582031 15 13.59375 12.644531 12.34375 11.8125 Z M 12.34375 11.8125 "/>
<path style=" stroke:none;fill-rule:nonzero;fill:rgb(33.333333%,67.45098%,93.333333%);fill-opacity:1;" d="M 11.667969 12.082031 L 3.332031 12.082031 C 2.082031 12.082031 1.667969 15 1.667969 15 L 13.332031 15 C 13.332031 15 12.917969 12.082031 11.667969 12.082031 Z M 11.667969 12.082031 "/>
<path style=" stroke:none;fill-rule:nonzero;fill:rgb(86.666667%,18.039216%,26.666667%);fill-opacity:1;" d="M 10.023438 15 C 9.519531 14.503906 8.578125 14.167969 7.5 14.167969 C 6.421875 14.167969 5.480469 14.503906 4.976562 15 Z M 10.023438 15 "/>
<path style=" stroke:none;fill-rule:nonzero;fill:rgb(95.294118%,82.352941%,63.529412%);fill-opacity:1;" d="M 5.972656 12.507812 C 6.582031 12.953125 7.5 12.917969 7.5 12.917969 C 7.5 12.917969 8.414062 12.953125 9.027344 12.507812 L 9.027344 10.148438 L 5.972656 10.148438 Z M 5.972656 12.507812 "/>
<path style=" stroke:none;fill-rule:nonzero;fill:rgb(86.666667%,18.039216%,26.666667%);fill-opacity:1;" d="M 5.988281 11.613281 C 5.75 11.273438 5.324219 11.234375 4.878906 11.234375 C 4.460938 11.234375 4.167969 11.554688 4.167969 11.554688 C 4.167969 11.554688 3.542969 11.234375 2.886719 11.546875 C 2.136719 11.902344 1.667969 12.785156 1.667969 12.785156 C 1.667969 12.785156 2.5 12.082031 3.332031 12.082031 C 4.167969 12.082031 4.582031 13.332031 4.582031 13.332031 C 5.417969 12.917969 7.5 12.917969 7.5 12.917969 C 7.082031 12.917969 6.289062 12.042969 5.988281 11.613281 Z M 12.113281 11.546875 C 11.457031 11.234375 10.832031 11.554688 10.832031 11.554688 C 10.832031 11.554688 10.539062 11.234375 10.121094 11.234375 C 9.675781 11.234375 9.25 11.273438 9.011719 11.613281 C 8.710938 12.042969 7.917969 12.917969 7.5 12.917969 C 7.5 12.917969 9.582031 12.917969 10.417969 13.332031 C 10.417969 13.332031 10.832031 12.082031 11.667969 12.082031 C 12.5 12.082031 13.332031 12.785156 13.332031 12.785156 C 13.332031 12.785156 12.863281 11.902344 12.113281 11.546875 Z M 12.113281 11.546875 "/>
<path style=" stroke:none;fill-rule:nonzero;fill:rgb(88.627451%,75.686275%,58.823529%);fill-opacity:1;" d="M 5.941406 10.492188 C 6.371094 10.972656 6.898438 11.101562 7.472656 11.101562 C 8.046875 11.101562 8.574219 10.972656 9 10.492188 L 9 9.269531 L 5.941406 9.269531 Z M 5.941406 10.492188 "/>
<path style=" stroke:none;fill-rule:nonzero;fill:rgb(95.294118%,82.352941%,63.529412%);fill-opacity:1;" d="M 4.03125 6.550781 C 4.03125 8.980469 5.5625 10.835938 7.453125 10.835938 C 9.339844 10.835938 10.871094 8.980469 10.871094 6.550781 C 10.871094 4.117188 9.339844 2.148438 7.453125 2.148438 C 5.5625 2.148438 4.03125 4.117188 4.03125 6.550781 "/>
<path style=" stroke:none;fill-rule:nonzero;fill:rgb(100%,89.803922%,11.764706%);fill-opacity:1;" d="M 5.648438 2.472656 C 5.648438 2.472656 4.582031 1.667969 3.332031 2.5 C 2.082031 3.332031 2.917969 5 2.917969 5 C 2.917969 5 2.082031 5.417969 2.082031 6.25 C 2.082031 7.082031 2.917969 7.5 2.917969 7.5 C 2.917969 7.5 2.5 7.917969 2.5 8.332031 C 2.5 8.75 3.332031 9.167969 3.332031 9.582031 C 3.332031 10 2.5 10.417969 2.5 10.417969 C 2.5 10.417969 4.167969 10.417969 4.167969 9.582031 C 4.167969 8.75 3.332031 6.25 5.832031 4.582031 C 5.832031 4.582031 7.082031 5 7.917969 5 C 8.75 5 10.832031 5.417969 10.832031 6.667969 L 10.832031 9.582031 C 10.832031 10 11.667969 10.417969 12.082031 10.417969 C 12.082031 10.417969 11.632812 10.015625 11.632812 9.597656 C 11.632812 9.183594 12.667969 8.367188 12.667969 7.53125 C 12.667969 6.699219 12.082031 6.25 12.082031 6.25 C 12.082031 6.25 12.917969 5 12.5 4.167969 C 12.082031 3.332031 11.019531 3.179688 11.019531 3.179688 C 11.019531 3.179688 10.996094 1.871094 9.746094 1.453125 C 8.496094 1.039062 7.300781 1.871094 7.300781 1.871094 C 7.300781 1.871094 6.664062 1.328125 6.136719 1.546875 C 5.59375 1.769531 5.648438 2.472656 5.648438 2.472656 Z M 5.648438 2.472656 "/>
<path style=" stroke:none;fill-rule:nonzero;fill:rgb(13.333333%,40%,60%);fill-opacity:1;" d="M 10.21875 5.417969 C 9.054688 5.417969 8.277344 5.773438 7.5 5.773438 C 6.722656 5.773438 5.945312 5.417969 4.78125 5.417969 C 3.617188 5.417969 4.394531 7.460938 4.78125 7.816406 C 5.171875 8.171875 6.722656 7.460938 7.5 7.460938 C 8.277344 7.460938 9.828125 8.171875 10.21875 7.816406 C 10.605469 7.460938 11.382812 5.417969 10.21875 5.417969 Z M 10.21875 5.417969 "/>
<path style=" stroke:none;fill-rule:nonzero;fill:rgb(53.333333%,78.823529%,97.647059%);fill-opacity:1;" d="M 6.042969 7.195312 C 5.847656 7.195312 5.6875 7.035156 5.6875 6.84375 L 5.6875 6.492188 C 5.6875 6.296875 5.847656 6.136719 6.042969 6.136719 C 6.234375 6.136719 6.394531 6.296875 6.394531 6.492188 L 6.394531 6.84375 C 6.394531 7.035156 6.234375 7.195312 6.042969 7.195312 M 8.957031 7.195312 C 8.765625 7.195312 8.605469 7.035156 8.605469 6.84375 L 8.605469 6.492188 C 8.605469 6.296875 8.765625 6.136719 8.957031 6.136719 C 9.152344 6.136719 9.3125 6.296875 9.3125 6.492188 L 9.3125 6.84375 C 9.3125 7.035156 9.152344 7.195312 8.957031 7.195312 "/>
<path style=" stroke:none;fill-rule:nonzero;fill:rgb(87.45098%,12.156863%,19.607843%);fill-opacity:1;" d="M 7.453125 9.808594 C 6.785156 9.808594 6.433594 9.480469 6.394531 9.441406 C 6.285156 9.328125 6.285156 9.148438 6.394531 9.039062 C 6.507812 8.925781 6.683594 8.925781 6.796875 9.035156 C 6.8125 9.046875 7.027344 9.238281 7.453125 9.238281 C 7.886719 9.238281 8.101562 9.042969 8.109375 9.035156 C 8.222656 8.929688 8.402344 8.929688 8.511719 9.042969 C 8.621094 9.15625 8.621094 9.332031 8.507812 9.441406 C 8.472656 9.480469 8.121094 9.808594 7.453125 9.808594 "/>
<path style=" stroke:none;fill-rule:nonzero;fill:rgb(75.686275%,41.176471%,30.980392%);fill-opacity:1;" d="M 7.824219 8.542969 L 7.121094 8.542969 C 7.023438 8.542969 6.941406 8.460938 6.941406 8.367188 L 6.941406 8.300781 C 6.941406 8.203125 7.023438 8.125 7.121094 8.125 L 7.824219 8.125 C 7.921875 8.125 8 8.203125 8 8.300781 L 8 8.367188 C 8 8.460938 7.921875 8.542969 7.824219 8.542969 "/>
</g>
</svg>
