<?xml version="1.0" encoding="UTF-8"?>
<svg xmlns="http://www.w3.org/2000/svg" xmlns:xlink="http://www.w3.org/1999/xlink" width="15pt" height="15pt" viewBox="0 0 15 15" version="1.1">
<g id="surface1">
<path style=" stroke:none;fill-rule:nonzero;fill:rgb(62.745098%,1.568627%,11.764706%);fill-opacity:1;" d="M 7.496094 15 L 14.578125 15 C 14.578125 15 14.550781 13.664062 13.933594 12.675781 C 12.304688 10.074219 7.496094 12.917969 7.496094 12.917969 Z M 7.496094 15 "/>
<path style=" stroke:none;fill-rule:nonzero;fill:rgb(62.745098%,1.568627%,11.764706%);fill-opacity:1;" d="M 7.5 15 L 0.417969 15 C 0.417969 15 0.445312 13.664062 1.0625 12.675781 C 2.695312 10.074219 7.5 12.917969 7.5 12.917969 Z M 7.5 15 "/>
<path style=" stroke:none;fill-rule:nonzero;fill:rgb(33.333333%,67.45098%,93.333333%);fill-opacity:1;" d="M 11.664062 12.082031 L 3.332031 12.082031 C 2.082031 12.082031 1.269531 13.542969 1.667969 15 L 13.328125 15 C 13.726562 13.542969 12.914062 12.082031 11.664062 12.082031 Z M 11.664062 12.082031 "/>
<path style=" stroke:none;fill-rule:nonzero;fill:rgb(100%,86.27451%,36.470588%);fill-opacity:1;" d="M 5.945312 12.515625 C 6.554688 12.960938 7.179688 12.925781 7.476562 12.925781 C 7.769531 12.925781 8.390625 12.960938 9 12.515625 L 9 10.15625 L 5.945312 10.15625 Z M 5.945312 12.515625 "/>
<path style=" stroke:none;fill-rule:nonzero;fill:rgb(97.647059%,79.215686%,33.333333%);fill-opacity:1;" d="M 5.941406 10.492188 C 6.371094 10.972656 6.898438 11.101562 7.472656 11.101562 C 8.046875 11.101562 8.574219 10.972656 9 10.492188 L 9 9.269531 L 5.941406 9.269531 Z M 5.941406 10.492188 "/>
<path style=" stroke:none;fill-rule:nonzero;fill:rgb(100%,67.45098%,20%);fill-opacity:1;" d="M 9.039062 1.089844 C 8.246094 0.832031 6.378906 0.902344 5.910156 1.507812 C 4.699219 1.53125 3.273438 2.628906 3.085938 4.078125 C 2.902344 5.507812 3.316406 6.171875 3.460938 7.25 C 3.625 8.46875 4.3125 8.859375 4.859375 9.023438 C 5.648438 10.066406 6.488281 10.019531 7.894531 10.019531 C 10.644531 10.019531 11.957031 8.179688 12.070312 5.054688 C 12.140625 3.167969 11.03125 1.734375 9.039062 1.089844 Z M 9.039062 1.089844 "/>
<path style=" stroke:none;fill-rule:nonzero;fill:rgb(100%,86.27451%,36.470588%);fill-opacity:1;" d="M 10.609375 5.191406 C 10.34375 4.820312 10.003906 4.523438 9.257812 4.421875 C 9.535156 4.546875 9.804688 4.992188 9.839844 5.238281 C 9.875 5.480469 9.910156 5.679688 9.6875 5.433594 C 8.800781 4.453125 7.832031 4.839844 6.875 4.242188 C 6.203125 3.820312 6 3.359375 6 3.359375 C 6 3.359375 5.917969 3.976562 4.90625 4.605469 C 4.609375 4.789062 4.257812 5.195312 4.066406 5.796875 C 3.925781 6.226562 3.96875 6.613281 3.96875 7.269531 C 3.96875 9.191406 5.550781 10.808594 7.503906 10.808594 C 9.457031 10.808594 11.039062 9.179688 11.039062 7.269531 C 11.039062 6.078125 10.914062 5.609375 10.609375 5.191406 Z M 10.609375 5.191406 "/>
<path style=" stroke:none;fill-rule:nonzero;fill:rgb(75.686275%,41.176471%,30.980392%);fill-opacity:1;" d="M 7.453125 9.808594 C 6.785156 9.808594 6.433594 9.480469 6.394531 9.441406 C 6.285156 9.328125 6.285156 9.148438 6.394531 9.039062 C 6.507812 8.925781 6.683594 8.925781 6.796875 9.035156 C 6.8125 9.046875 7.027344 9.238281 7.453125 9.238281 C 7.886719 9.238281 8.101562 9.042969 8.109375 9.035156 C 8.222656 8.929688 8.402344 8.929688 8.511719 9.042969 C 8.621094 9.15625 8.621094 9.332031 8.507812 9.441406 C 8.472656 9.480469 8.121094 9.808594 7.453125 9.808594 "/>
<path style=" stroke:none;fill-rule:nonzero;fill:rgb(13.333333%,40%,60%);fill-opacity:1;" d="M 10.21875 5.417969 C 9.054688 5.417969 8.277344 5.773438 7.5 5.773438 C 6.722656 5.773438 5.945312 5.417969 4.78125 5.417969 C 3.617188 5.417969 4.394531 7.460938 4.78125 7.816406 C 5.171875 8.171875 6.722656 7.460938 7.5 7.460938 C 8.277344 7.460938 9.828125 8.171875 10.21875 7.816406 C 10.605469 7.460938 11.382812 5.417969 10.21875 5.417969 Z M 10.21875 5.417969 "/>
<path style=" stroke:none;fill-rule:nonzero;fill:rgb(53.333333%,78.823529%,97.647059%);fill-opacity:1;" d="M 6.042969 7.195312 C 5.847656 7.195312 5.6875 7.035156 5.6875 6.84375 L 5.6875 6.492188 C 5.6875 6.296875 5.847656 6.136719 6.042969 6.136719 C 6.234375 6.136719 6.394531 6.296875 6.394531 6.492188 L 6.394531 6.84375 C 6.394531 7.035156 6.234375 7.195312 6.042969 7.195312 M 8.957031 7.195312 C 8.765625 7.195312 8.605469 7.035156 8.605469 6.84375 L 8.605469 6.492188 C 8.605469 6.296875 8.765625 6.136719 8.957031 6.136719 C 9.152344 6.136719 9.3125 6.296875 9.3125 6.492188 L 9.3125 6.84375 C 9.3125 7.035156 9.152344 7.195312 8.957031 7.195312 "/>
<path style=" stroke:none;fill-rule:nonzero;fill:rgb(75.686275%,41.176471%,30.980392%);fill-opacity:1;" d="M 7.824219 8.542969 L 7.121094 8.542969 C 7.023438 8.542969 6.941406 8.460938 6.941406 8.367188 L 6.941406 8.300781 C 6.941406 8.203125 7.023438 8.125 7.121094 8.125 L 7.824219 8.125 C 7.921875 8.125 8 8.203125 8 8.300781 L 8 8.367188 C 8 8.460938 7.921875 8.542969 7.824219 8.542969 "/>
<path style=" stroke:none;fill-rule:nonzero;fill:rgb(86.666667%,18.039216%,26.666667%);fill-opacity:1;" d="M 10.023438 15 C 9.519531 14.503906 8.578125 14.167969 7.5 14.167969 C 6.421875 14.167969 5.480469 14.503906 4.976562 15 Z M 7.5 12.925781 C 7.5 12.925781 5.417969 12.917969 4.582031 13.332031 C 4.582031 13.332031 4.035156 12.09375 3.039062 11.949219 C 1.808594 11.769531 1.066406 12.675781 1.066406 12.675781 C 1.066406 12.675781 1.433594 11.933594 2.277344 11.511719 C 3.097656 11.101562 3.960938 11.542969 3.960938 11.542969 C 3.960938 11.542969 4.460938 11.234375 4.878906 11.234375 C 5.324219 11.234375 5.75 11.273438 5.988281 11.613281 C 6.289062 12.042969 7.082031 12.925781 7.5 12.925781 Z M 7.5 12.925781 "/>
<path style=" stroke:none;fill-rule:nonzero;fill:rgb(86.666667%,18.039216%,26.666667%);fill-opacity:1;" d="M 7.496094 12.925781 C 7.496094 12.925781 9.578125 12.917969 10.414062 13.332031 C 10.414062 13.332031 10.964844 12.09375 11.957031 11.949219 C 13.1875 11.769531 13.933594 12.675781 13.933594 12.675781 C 13.933594 12.675781 13.5625 11.933594 12.71875 11.511719 C 11.898438 11.101562 11.035156 11.542969 11.035156 11.542969 C 11.035156 11.542969 10.535156 11.234375 10.117188 11.234375 C 9.675781 11.234375 9.246094 11.273438 9.007812 11.613281 C 8.707031 12.042969 7.914062 12.925781 7.496094 12.925781 Z M 7.496094 12.925781 "/>
</g>
</svg>
