<?xml version="1.0" encoding="UTF-8"?>
<svg xmlns="http://www.w3.org/2000/svg" xmlns:xlink="http://www.w3.org/1999/xlink" width="15pt" height="15pt" viewBox="0 0 15 15" version="1.1">
<g id="surface1">
<path style=" stroke:none;fill-rule:nonzero;fill:rgb(100%,86.27451%,36.470588%);fill-opacity:1;" d="M 14.425781 4.585938 C 14.5625 3.546875 9.929688 2.761719 9.84375 3.753906 C 9.761719 4.742188 9.742188 5.445312 9.421875 6.652344 C 8.898438 8.605469 6.648438 9.582031 4.410156 9.582031 L 3.707031 9.582031 C 3.433594 9.582031 3.203125 9.761719 3.117188 10.003906 C 2.691406 10.003906 2.433594 10.246094 2.433594 10.53125 C 2.210938 10.53125 1.71875 10.742188 1.71875 11.25 C 1.71875 11.25 0.675781 11.207031 0.675781 12.292969 L 0.679688 12.296875 C -0.214844 12.550781 0.0390625 14.003906 1.066406 14.140625 C 2.039062 14.269531 2.078125 13.984375 2.910156 13.984375 C 3.730469 13.984375 3.851562 14.167969 4.84375 14.167969 C 6.890625 14.167969 6.839844 13.761719 8.78125 13.464844 C 10.921875 13.136719 11.449219 13.933594 12.699219 13.933594 C 13.949219 13.933594 14.867188 12.960938 14.867188 11.679688 C 14.867188 9.597656 14.011719 9.582031 14.011719 7.917969 C 14.011719 6.25 14.292969 5.625 14.425781 4.585938 Z M 14.425781 4.585938 "/>
<path style=" stroke:none;fill-rule:nonzero;fill:rgb(93.72549%,58.823529%,27.058824%);fill-opacity:1;" d="M 11.621094 9.617188 C 11.511719 9.617188 11.421875 9.53125 11.414062 9.421875 C 11.40625 9.304688 11.492188 9.207031 11.609375 9.199219 C 12.023438 9.171875 12.261719 8.917969 12.386719 8.707031 C 12.601562 8.359375 12.660156 7.855469 12.523438 7.542969 C 12.480469 7.4375 12.527344 7.3125 12.632812 7.269531 C 12.738281 7.222656 12.859375 7.269531 12.90625 7.375 C 13.097656 7.816406 13.03125 8.453125 12.742188 8.925781 C 12.492188 9.339844 12.097656 9.582031 11.636719 9.613281 C 11.632812 9.617188 11.628906 9.617188 11.621094 9.617188 Z M 2.820312 11.667969 L 1.695312 11.667969 C 1.351562 11.667969 0.890625 11.863281 0.890625 12.207031 C 0.890625 12.210938 1.152344 12.105469 1.679688 12.105469 L 2.820312 12.105469 C 2.941406 12.105469 3.039062 12.007812 3.039062 11.886719 C 3.039062 11.765625 2.941406 11.667969 2.820312 11.667969 Z M 3.191406 10.902344 L 2.441406 10.902344 C 2.214844 10.902344 2.023438 11.046875 1.949219 11.25 L 3.191406 11.25 C 3.289062 11.25 3.367188 11.171875 3.367188 11.074219 C 3.367188 10.980469 3.289062 10.902344 3.191406 10.902344 Z M 3.5625 10.296875 L 2.972656 10.296875 C 2.820312 10.296875 2.691406 10.394531 2.644531 10.53125 L 3.5625 10.53125 C 3.625 10.53125 3.675781 10.476562 3.675781 10.414062 C 3.675781 10.351562 3.625 10.296875 3.5625 10.296875 Z M 3.867188 9.867188 L 3.535156 9.867188 C 3.445312 9.867188 3.371094 9.925781 3.339844 10.003906 L 3.867188 10.003906 C 3.902344 10.003906 3.933594 9.972656 3.933594 9.9375 C 3.933594 9.898438 3.902344 9.867188 3.867188 9.867188 Z M 3.867188 9.867188 "/>
</g>
</svg>
