<?xml version="1.0" encoding="UTF-8"?>
<svg xmlns="http://www.w3.org/2000/svg" xmlns:xlink="http://www.w3.org/1999/xlink" width="15pt" height="15pt" viewBox="0 0 15 15" version="1.1">
<g id="surface1">
<path style=" stroke:none;fill-rule:nonzero;fill:rgb(100%,90.980392%,71.372549%);fill-opacity:1;" d="M 14.308594 10.257812 C 13.652344 9.847656 12.523438 10.554688 11.945312 9.976562 C 11.582031 9.613281 8.621094 6.429688 7.316406 5.1875 C 6.011719 3.949219 4.558594 2.832031 4.214844 2.527344 C 4.019531 2.347656 4.664062 1.046875 4.117188 0.5 C 3.535156 -0.078125 2.734375 -0.144531 2.15625 0.433594 C 1.796875 0.792969 1.964844 1.386719 1.714844 1.554688 C 1.460938 1.71875 0.792969 1.800781 0.433594 2.15625 C -0.144531 2.734375 -0.0625 3.691406 0.601562 4.175781 C 1.277344 4.671875 2.289062 4.136719 2.6875 4.253906 C 3.230469 4.417969 4.660156 6.015625 6.582031 7.933594 C 8.375 9.71875 9.867188 11.753906 10.019531 11.925781 C 10.335938 12.28125 9.402344 13.496094 10.296875 14.488281 C 10.847656 15.097656 11.84375 15.109375 12.421875 14.527344 C 12.78125 14.171875 12.757812 12.976562 13.078125 12.738281 C 13.398438 12.503906 14.132812 12.71875 14.488281 12.363281 C 15.070312 11.78125 14.984375 10.671875 14.308594 10.257812 Z M 14.308594 10.257812 "/>
<path style=" stroke:none;fill-rule:nonzero;fill:rgb(94.901961%,78.823529%,58.039216%);fill-opacity:1;" d="M 2.128906 1.253906 C 2.171875 0.777344 2.726562 0.121094 3.34375 0.183594 C 3.957031 0.242188 4.175781 0.878906 4.117188 1.214844 C 4.058594 1.554688 3.957031 1.871094 3.917969 2.128906 C 3.878906 2.386719 3.859375 2.585938 4.375 2.964844 C 4.890625 3.339844 9.125 7.195312 10.097656 8.367188 C 11.070312 9.542969 11.648438 10.277344 12.046875 10.375 C 12.441406 10.472656 12.800781 10.433594 13.175781 10.375 C 13.53125 10.320312 14.363281 10.136719 14.730469 10.746094 C 14.636719 10.546875 14.5 10.371094 14.308594 10.257812 C 13.652344 9.847656 12.523438 10.554688 11.945312 9.976562 C 11.582031 9.613281 8.621094 6.429688 7.316406 5.1875 C 6.011719 3.949219 4.558594 2.832031 4.214844 2.527344 C 4.019531 2.347656 4.664062 1.046875 4.117188 0.5 C 3.535156 -0.078125 2.734375 -0.144531 2.15625 0.433594 C 1.796875 0.792969 1.964844 1.386719 1.714844 1.554688 C 1.65625 1.59375 1.570312 1.625 1.476562 1.660156 C 1.875 1.636719 2.097656 1.636719 2.128906 1.253906 Z M 2.128906 1.253906 "/>
<path style=" stroke:none;fill-rule:nonzero;fill:rgb(85.098039%,61.960784%,50.980392%);fill-opacity:1;" d="M 14.808594 11.648438 C 14.746094 12.164062 13.773438 12.542969 13.15625 12.34375 C 12.792969 12.226562 12.441406 12.28125 12.484375 12.660156 C 12.523438 13.039062 12.582031 13.59375 12.363281 14.03125 C 12.164062 14.429688 11.328125 14.628906 10.792969 14.25 C 10.300781 13.902344 10.21875 13.019531 10.4375 12.601562 C 10.65625 12.183594 10.675781 11.90625 10.15625 11.269531 C 9.894531 10.949219 8.445312 9.285156 6.820312 7.574219 C 5.234375 5.90625 3.65625 4.3125 3.324219 4.078125 C 2.648438 3.601562 2.296875 3.800781 1.8125 3.917969 C 1.15625 4.078125 0.519531 3.621094 0.402344 3.320312 C 0.296875 3.054688 0.308594 2.433594 0.503906 2.097656 C 0.480469 2.117188 0.457031 2.136719 0.433594 2.15625 C -0.144531 2.734375 -0.0625 3.691406 0.601562 4.175781 C 1.277344 4.671875 2.289062 4.136719 2.6875 4.253906 C 3.230469 4.417969 4.660156 6.015625 6.582031 7.933594 C 8.375 9.71875 9.867188 11.753906 10.019531 11.925781 C 10.335938 12.28125 9.402344 13.496094 10.296875 14.488281 C 10.847656 15.097656 11.84375 15.109375 12.421875 14.527344 C 12.78125 14.171875 12.757812 12.976562 13.078125 12.738281 C 13.398438 12.503906 14.132812 12.71875 14.488281 12.363281 C 14.722656 12.128906 14.84375 11.8125 14.867188 11.492188 C 14.839844 11.5 14.816406 11.550781 14.808594 11.648438 Z M 14.808594 11.648438 "/>
</g>
</svg>
