<?xml version="1.0" encoding="UTF-8"?>
<svg xmlns="http://www.w3.org/2000/svg" xmlns:xlink="http://www.w3.org/1999/xlink" width="15pt" height="15pt" viewBox="0 0 15 15" version="1.1">
<g id="surface1">
<path style=" stroke:none;fill-rule:nonzero;fill:rgb(40%,45.882353%,49.803922%);fill-opacity:1;" d="M 8.21875 12.410156 C 8.21875 12.984375 7.75 13.453125 7.175781 13.453125 C 6.601562 13.453125 6.132812 12.984375 6.132812 12.410156 C 6.132812 11.835938 6.601562 11.367188 7.175781 11.367188 C 7.75 11.367188 8.21875 11.835938 8.21875 12.410156 Z M 8.21875 12.410156 "/>
<path style=" stroke:none;fill-rule:nonzero;fill:rgb(40%,45.882353%,49.803922%);fill-opacity:1;" d="M 6.296875 4.113281 C 6.296875 5.167969 5.4375 6.027344 4.382812 6.027344 C 3.324219 6.027344 2.46875 5.167969 2.46875 4.113281 C 2.46875 3.054688 3.324219 2.199219 4.382812 2.199219 C 5.4375 2.199219 6.296875 3.054688 6.296875 4.113281 Z M 6.296875 4.113281 "/>
<path style=" stroke:none;fill-rule:nonzero;fill:rgb(80%,83.921569%,86.666667%);fill-opacity:1;" d="M 4.128906 1.976562 C 5.394531 1.136719 9.378906 0.292969 10.269531 0.21875 C 11.160156 0.144531 12.152344 0.34375 12.496094 0.664062 C 12.867188 1.011719 13.386719 1.628906 13.3125 2.621094 C 13.238281 3.660156 12.695312 4.550781 11.558594 4.722656 C 10.417969 4.898438 7.992188 4.378906 6.902344 4.824219 C 6.242188 5.09375 6.109375 4.898438 5.9375 4.429688 C 5.765625 3.957031 5.34375 3.3125 5.019531 2.917969 C 4.527344 2.324219 3.601562 2.328125 4.128906 1.976562 Z M 4.128906 1.976562 "/>
<path style=" stroke:none;fill-rule:nonzero;fill:rgb(60%,66.666667%,70.980392%);fill-opacity:1;" d="M 11.558594 4.726562 C 12.695312 4.550781 13.238281 3.660156 13.3125 2.621094 C 13.328125 2.449219 13.316406 2.289062 13.296875 2.140625 C 10.9375 2.050781 7.125 2.597656 5.488281 3.578125 C 5.671875 3.867188 5.84375 4.171875 5.9375 4.429688 C 6.113281 4.898438 6.246094 5.09375 6.902344 4.824219 C 7.992188 4.378906 10.417969 4.898438 11.558594 4.726562 Z M 2.824219 5.015625 C 2.367188 5.933594 2.613281 7.53125 4.199219 9.601562 C 5.152344 10.84375 5.726562 11.617188 6.183594 12.074219 C 6.640625 12.535156 8.476562 12.074219 8.015625 11.160156 C 6.640625 8.40625 8.328125 6.847656 5.285156 4.886719 C 3.96875 4.039062 3.140625 4.390625 2.824219 5.015625 Z M 2.824219 5.015625 "/>
<path style=" stroke:none;fill-rule:nonzero;fill:rgb(80%,83.921569%,86.666667%);fill-opacity:1;" d="M 7.203125 12.207031 C 7.769531 12.074219 8.285156 11.695312 8.015625 11.160156 C 6.640625 8.410156 8.328125 6.847656 5.285156 4.890625 C 4.714844 4.519531 4.234375 4.378906 3.847656 4.386719 C 6.492188 6.851562 5.265625 8.410156 7.203125 12.207031 Z M 7.203125 12.207031 "/>
<path style=" stroke:none;fill-rule:nonzero;fill:rgb(53.333333%,60%,65.098039%);fill-opacity:1;" d="M 5.71875 12.378906 C 5.835938 12.484375 6.191406 12.558594 6.417969 12.628906 C 6.351562 12.53125 6.179688 12.25 6.113281 12.105469 C 6.089844 12.0625 6.035156 12.042969 5.988281 12.066406 L 5.707031 12.246094 C 5.652344 12.273438 5.675781 12.339844 5.71875 12.378906 Z M 2.855469 14.707031 C 3.320312 14.882812 3.753906 14.96875 4.171875 14.976562 C 4.203125 14.976562 5.3125 14.976562 5.867188 14.972656 C 6.273438 14.972656 6.621094 14.96875 6.738281 14.972656 L 6.921875 14.972656 C 7.6875 14.976562 8.21875 15.015625 8.449219 14.8125 C 8.484375 14.785156 8.496094 14.738281 8.496094 14.6875 C 8.5 14.621094 8.496094 14.546875 8.496094 14.546875 C 8.480469 14.597656 6.171875 14.746094 5.402344 14.789062 C 2.863281 14.921875 2.242188 14.191406 2.214844 14.128906 C 2.214844 14.125 2.273438 14.480469 2.855469 14.707031 Z M 2.855469 14.707031 "/>
<path style=" stroke:none;fill-rule:nonzero;fill:rgb(74.509804%,9.803922%,19.215686%);fill-opacity:1;" d="M 4.027344 14.511719 C 4.886719 14.566406 8.339844 14.238281 8.339844 14.238281 L 8.429688 14.113281 C 8.519531 13.984375 8.503906 13.785156 8.503906 13.613281 C 8.507812 13.441406 8.457031 12.796875 8.378906 12.628906 C 8.304688 12.464844 8.148438 12.273438 8.003906 12.335938 C 7.824219 12.410156 7.496094 12.804688 7.21875 12.800781 C 6.816406 12.796875 5.878906 12.183594 5.746094 12.183594 C 5.546875 12.179688 5.5 12.398438 5.0625 12.5625 C 4.859375 12.640625 3.925781 13 3.925781 13 C 3.6875 13.085938 3.671875 13.132812 3.546875 13.183594 C 3.285156 13.285156 2.714844 13.457031 2.492188 13.542969 C 2.269531 13.628906 2.1875 13.800781 2.183594 13.929688 C 2.175781 14.058594 2.214844 14.125 2.214844 14.125 C 2.214844 14.125 2.558594 14.417969 4.027344 14.511719 Z M 4.027344 14.511719 "/>
<path style=" stroke:none;fill-rule:nonzero;fill:rgb(62.745098%,1.568627%,11.764706%);fill-opacity:1;" d="M 7.214844 12.960938 C 7.554688 12.960938 7.949219 12.464844 8.171875 12.363281 C 8.117188 12.324219 8.0625 12.308594 8.003906 12.332031 C 7.824219 12.410156 7.496094 12.800781 7.21875 12.800781 C 6.8125 12.796875 5.878906 12.183594 5.746094 12.183594 C 5.691406 12.179688 5.648438 12.199219 5.605469 12.226562 C 5.933594 12.429688 6.808594 12.957031 7.214844 12.960938 Z M 7.214844 12.960938 "/>
<path style=" stroke:none;fill-rule:nonzero;fill:rgb(86.666667%,18.039216%,26.666667%);fill-opacity:1;" d="M 8.367188 14.195312 C 8.367188 14.195312 8.394531 14.1875 8.425781 14.144531 C 8.515625 14.023438 8.511719 13.835938 8.511719 13.675781 C 8.515625 13.554688 8.496094 13.171875 8.449219 12.929688 C 8.289062 12.957031 7.457031 13.109375 7.15625 13.25 C 6.835938 13.402344 6.566406 13.859375 6.488281 14.078125 C 6.484375 14.085938 8.367188 14.195312 8.367188 14.195312 Z M 8.367188 14.195312 "/>
<path style=" stroke:none;fill-rule:nonzero;fill:rgb(80%,83.921569%,86.666667%);fill-opacity:1;" d="M 5.40625 12.789062 L 5.246094 12.535156 C 5.210938 12.476562 5.230469 12.398438 5.292969 12.363281 C 5.359375 12.328125 5.4375 12.347656 5.476562 12.410156 L 5.632812 12.660156 C 5.671875 12.71875 5.652344 12.796875 5.585938 12.832031 C 5.539062 12.859375 5.480469 12.855469 5.4375 12.824219 C 5.425781 12.8125 5.414062 12.800781 5.40625 12.789062 Z M 4.929688 13.007812 L 4.808594 12.722656 C 4.78125 12.65625 4.8125 12.585938 4.878906 12.558594 C 4.949219 12.53125 5.027344 12.5625 5.054688 12.628906 L 5.175781 12.914062 C 5.203125 12.976562 5.171875 13.050781 5.105469 13.078125 C 5.058594 13.09375 5.007812 13.085938 4.972656 13.058594 C 4.953125 13.046875 4.941406 13.03125 4.929688 13.007812 Z M 4.429688 13.152344 L 4.351562 12.878906 C 4.332031 12.8125 4.375 12.746094 4.445312 12.726562 C 4.515625 12.707031 4.589844 12.746094 4.609375 12.8125 L 4.6875 13.085938 C 4.707031 13.152344 4.664062 13.222656 4.59375 13.238281 C 4.550781 13.25 4.507812 13.242188 4.476562 13.21875 C 4.457031 13.199219 4.4375 13.179688 4.429688 13.152344 Z M 3.9375 13.269531 L 3.882812 13.050781 C 3.867188 12.984375 3.914062 12.917969 3.984375 12.902344 C 4.058594 12.886719 4.128906 12.929688 4.144531 12.996094 L 4.195312 13.214844 C 4.210938 13.28125 4.167969 13.347656 4.09375 13.363281 C 4.054688 13.371094 4.015625 13.363281 3.984375 13.339844 C 3.960938 13.324219 3.945312 13.300781 3.9375 13.269531 Z M 8.5 14.585938 C 8.5 14.636719 8.441406 14.71875 8.164062 14.800781 C 7.972656 14.855469 7.050781 14.847656 6.738281 14.847656 C 6.429688 14.84375 4.515625 14.859375 4.175781 14.851562 C 3.832031 14.84375 3.453125 14.792969 2.941406 14.625 C 2.410156 14.449219 2.238281 14.1875 2.214844 14.125 C 2.355469 14.210938 2.554688 14.277344 2.796875 14.316406 C 2.984375 14.347656 3.285156 14.386719 3.621094 14.414062 C 3.957031 14.445312 4.40625 14.414062 4.695312 14.382812 C 4.980469 14.351562 5.832031 14.136719 6.308594 14.078125 C 6.785156 14.023438 7.46875 14.039062 7.652344 14.039062 C 7.835938 14.039062 8.082031 14.0625 8.1875 14.117188 C 8.292969 14.175781 8.433594 14.164062 8.433594 14.164062 C 8.539062 14.164062 8.5 14.464844 8.5 14.585938 Z M 8.5 14.585938 "/>
<path style=" stroke:none;fill-rule:nonzero;fill:rgb(86.666667%,18.039216%,26.666667%);fill-opacity:1;" d="M 2.265625 13.710938 C 2.421875 13.820312 2.847656 13.84375 3.214844 13.734375 C 3.671875 13.597656 3.734375 13.390625 3.667969 13.191406 C 3.664062 13.175781 3.648438 13.152344 3.640625 13.140625 C 3.535156 13.183594 3.363281 13.238281 3.328125 13.253906 C 3.066406 13.355469 2.714844 13.457031 2.492188 13.542969 C 2.386719 13.585938 2.3125 13.644531 2.265625 13.710938 Z M 2.265625 13.710938 "/>
</g>
</svg>
