<?xml version="1.0" encoding="UTF-8"?>
<svg xmlns="http://www.w3.org/2000/svg" xmlns:xlink="http://www.w3.org/1999/xlink" width="15pt" height="15pt" viewBox="0 0 15 15" version="1.1">
<g id="surface1">
<path style=" stroke:none;fill-rule:nonzero;fill:rgb(40%,45.882353%,49.803922%);fill-opacity:1;" d="M 11.09375 4.109375 L 11.277344 1.84375 C 11.285156 1.730469 11.386719 1.644531 11.5 1.65625 L 11.511719 1.65625 C 11.628906 1.664062 11.714844 1.765625 11.703125 1.878906 L 11.519531 4.140625 C 11.511719 4.257812 11.410156 4.34375 11.296875 4.332031 L 11.285156 4.332031 C 11.167969 4.324219 11.082031 4.222656 11.09375 4.109375 Z M 11.09375 4.109375 "/>
<path style=" stroke:none;fill-rule:nonzero;fill:rgb(16.078431%,18.431373%,20%);fill-opacity:1;" d="M 6.023438 8.5625 L 6.023438 9.421875 C 6.023438 9.421875 5.164062 9.421875 5.164062 10.277344 L 5.164062 11.566406 C 5.164062 11.996094 5.59375 12.425781 6.023438 12.425781 L 10.316406 12.425781 C 10.746094 12.425781 11.175781 11.996094 11.175781 11.566406 L 11.175781 9.417969 C 11.175781 8.992188 10.746094 8.5625 10.316406 8.5625 Z M 6.023438 8.5625 "/>
<path style=" stroke:none;fill-rule:nonzero;fill:rgb(16.078431%,18.431373%,20%);fill-opacity:1;" d="M 9.007812 9.230469 L 4.78125 8.484375 C 4.359375 8.410156 4.359375 8.410156 4.433594 7.988281 C 4.472656 7.753906 4.699219 7.597656 4.929688 7.640625 L 9.15625 8.386719 C 9.390625 8.425781 9.546875 8.648438 9.507812 8.882812 C 9.433594 9.304688 9.433594 9.304688 9.007812 9.230469 Z M 9.007812 9.230469 "/>
<path style=" stroke:none;fill-rule:nonzero;fill:rgb(16.078431%,18.431373%,20%);fill-opacity:1;" d="M 9.988281 7.714844 C 9.90625 8.109375 9.75 8.496094 9.089844 8.371094 C 8.429688 8.25 8.324219 8.898438 8.738281 9.011719 C 9.148438 9.128906 10.132812 9.289062 10.417969 8.820312 C 10.707031 8.355469 10.753906 7.902344 10.726562 7.703125 C 10.695312 7.503906 10.050781 7.421875 9.988281 7.714844 Z M 9.988281 7.714844 "/>
<path style=" stroke:none;fill-rule:nonzero;fill:rgb(86.666667%,18.039216%,26.666667%);fill-opacity:1;" d="M 9.222656 9.375 L 4.5625 8.554688 C 4.449219 8.535156 4.371094 8.425781 4.390625 8.3125 L 4.394531 8.300781 C 4.414062 8.1875 4.523438 8.113281 4.636719 8.132812 L 9.296875 8.953125 C 9.410156 8.972656 9.488281 9.082031 9.46875 9.195312 L 9.464844 9.207031 C 9.445312 9.320312 9.335938 9.394531 9.222656 9.375 Z M 9.222656 9.375 "/>
<path style=" stroke:none;fill-rule:nonzero;fill:rgb(16.078431%,18.431373%,20%);fill-opacity:1;" d="M 11.574219 3.6875 L 10.828125 7.914062 C 10.753906 8.335938 10.753906 8.335938 10.332031 8.261719 C 10.097656 8.222656 9.941406 7.996094 9.984375 7.765625 L 10.730469 3.539062 C 10.769531 3.304688 10.992188 3.148438 11.226562 3.1875 C 11.648438 3.265625 11.648438 3.265625 11.574219 3.6875 Z M 12 0.472656 L 11.695312 2.199219 C 11.65625 2.410156 11.621094 2.632812 11.199219 2.558594 C 10.964844 2.515625 10.820312 2.25 10.871094 1.957031 L 11.144531 0.40625 C 11.214844 0.160156 11.414062 -0.0234375 11.648438 0.015625 C 12.070312 0.09375 12.039062 0.261719 12 0.472656 Z M 12 0.472656 "/>
<path style=" stroke:none;fill-rule:nonzero;fill:rgb(86.666667%,18.039216%,26.666667%);fill-opacity:1;" d="M 11.777344 3.5 L 10.957031 8.164062 C 10.9375 8.277344 10.828125 8.351562 10.714844 8.332031 L 10.703125 8.328125 C 10.589844 8.308594 10.515625 8.203125 10.535156 8.089844 L 11.355469 3.425781 C 11.375 3.3125 11.484375 3.238281 11.597656 3.257812 L 11.609375 3.257812 C 11.722656 3.28125 11.796875 3.386719 11.777344 3.5 Z M 12.3125 0.300781 L 11.917969 2.535156 C 11.898438 2.648438 11.792969 2.726562 11.679688 2.707031 L 11.664062 2.703125 C 11.554688 2.683594 11.476562 2.574219 11.496094 2.460938 L 11.890625 0.226562 C 11.910156 0.113281 12.019531 0.0390625 12.128906 0.0585938 L 12.144531 0.0585938 C 12.257812 0.078125 12.332031 0.1875 12.3125 0.300781 Z M 12.3125 0.300781 "/>
<path style=" stroke:none;fill-rule:nonzero;fill:rgb(16.078431%,18.431373%,20%);fill-opacity:1;" d="M 10.097656 7.464844 L 6.894531 6.898438 C 6.574219 6.839844 6.574219 6.839844 6.628906 6.527344 C 6.660156 6.351562 6.828125 6.234375 7.003906 6.265625 L 10.210938 6.832031 C 10.386719 6.863281 10.503906 7.027344 10.476562 7.203125 C 10.417969 7.519531 10.417969 7.519531 10.097656 7.464844 Z M 10.097656 7.464844 "/>
<path style=" stroke:none;fill-rule:nonzero;fill:rgb(86.666667%,18.039216%,26.666667%);fill-opacity:1;" d="M 9.082031 8.914062 C 9.507812 8.992188 10.347656 9.140625 10.574219 7.871094 C 10.796875 6.601562 11.21875 6.675781 10.996094 7.945312 C 10.769531 9.214844 10.035156 9.519531 9.007812 9.339844 C 8.160156 9.1875 8.234375 8.765625 9.082031 8.914062 Z M 4.648438 8.132812 C 5.492188 8.28125 5.625 8.746094 4.777344 8.59375 C 4.40625 8.527344 4.355469 8.683594 4.242188 9.003906 C 4.132812 9.304688 3.980469 9.757812 3.75 10.390625 C 3.582031 10.855469 3.203125 10.648438 3.34375 10.246094 C 3.578125 9.5625 3.796875 8.96875 3.941406 8.59375 C 4.085938 8.207031 4.203125 8.058594 4.648438 8.132812 Z M 4.648438 8.132812 "/>
<path style=" stroke:none;fill-rule:nonzero;fill:rgb(86.666667%,18.039216%,26.666667%);fill-opacity:1;" d="M 3.71875 9.855469 L 3.707031 9.851562 C 3.601562 9.8125 3.480469 9.867188 3.441406 9.976562 L 2.554688 12.40625 C 2.515625 12.515625 2.574219 12.636719 2.679688 12.675781 L 2.691406 12.679688 C 2.800781 12.71875 2.921875 12.660156 2.960938 12.554688 L 3.84375 10.121094 C 3.882812 10.015625 3.828125 9.894531 3.71875 9.855469 Z M 3.71875 9.855469 "/>
<path style=" stroke:none;fill-rule:nonzero;fill:rgb(40%,45.882353%,49.803922%);fill-opacity:1;" d="M 2.691406 12.679688 L 1.066406 12.085938 C 0.960938 12.046875 0.902344 11.929688 0.941406 11.820312 L 0.945312 11.808594 C 0.984375 11.703125 1.105469 11.644531 1.214844 11.683594 L 2.839844 12.277344 C 2.945312 12.316406 3.003906 12.433594 2.964844 12.542969 L 2.960938 12.554688 C 2.921875 12.660156 2.800781 12.71875 2.691406 12.679688 Z M 2.691406 12.679688 "/>
<path style=" stroke:none;fill-rule:nonzero;fill:rgb(86.666667%,18.039216%,26.666667%);fill-opacity:1;" d="M 5.09375 12.800781 L 6.367188 11.523438 C 6.449219 11.441406 6.449219 11.308594 6.367188 11.230469 L 6.359375 11.222656 C 6.277344 11.140625 6.144531 11.140625 6.066406 11.222656 L 4.789062 12.496094 C 4.710938 12.578125 4.710938 12.710938 4.789062 12.789062 L 4.800781 12.800781 C 4.878906 12.878906 5.011719 12.878906 5.09375 12.800781 Z M 12.902344 14.140625 L 12.878906 14.140625 C 12.648438 14.140625 12.460938 13.953125 12.460938 13.726562 L 12.460938 12.410156 C 12.460938 12.183594 12.648438 11.996094 12.878906 11.996094 L 12.902344 11.996094 C 13.132812 11.996094 13.320312 12.183594 13.320312 12.410156 L 13.320312 13.726562 C 13.320312 13.953125 13.132812 14.140625 12.902344 14.140625 Z M 12.902344 14.140625 "/>
<path style=" stroke:none;fill-rule:nonzero;fill:rgb(86.666667%,18.039216%,26.666667%);fill-opacity:1;" d="M 4.964844 14.140625 L 4.9375 14.140625 C 4.707031 14.140625 4.519531 13.953125 4.519531 13.726562 L 4.519531 12.410156 C 4.519531 12.183594 4.707031 11.996094 4.9375 11.996094 L 4.964844 11.996094 C 5.191406 11.996094 5.378906 12.183594 5.378906 12.410156 L 5.378906 13.726562 C 5.378906 13.953125 5.191406 14.140625 4.964844 14.140625 Z M 10.515625 11.5625 L 11.386719 11.5625 C 11.503906 11.5625 11.597656 11.46875 11.597656 11.355469 L 11.597656 11.34375 C 11.597656 11.230469 11.503906 11.136719 11.386719 11.136719 L 10.515625 11.136719 C 10.402344 11.136719 10.308594 11.230469 10.308594 11.34375 L 10.308594 11.355469 C 10.308594 11.46875 10.402344 11.5625 10.515625 11.5625 Z M 10.515625 11.5625 "/>
<path style=" stroke:none;fill-rule:nonzero;fill:rgb(86.666667%,18.039216%,26.666667%);fill-opacity:1;" d="M 12.519531 12.773438 L 11.246094 11.5 C 11.164062 11.417969 11.164062 11.285156 11.246094 11.203125 L 11.253906 11.195312 C 11.335938 11.113281 11.46875 11.113281 11.546875 11.195312 L 12.824219 12.46875 C 12.902344 12.550781 12.902344 12.683594 12.824219 12.765625 L 12.8125 12.773438 C 12.734375 12.855469 12.601562 12.855469 12.519531 12.773438 Z M 12.519531 12.773438 "/>
<path style=" stroke:none;fill-rule:nonzero;fill:rgb(16.078431%,18.431373%,20%);fill-opacity:1;" d="M 4.164062 6.46875 C 4.484375 6.605469 5.046875 6.871094 5.171875 6.917969 C 5.171875 6.917969 5.226562 6.535156 5.378906 6.535156 C 5.378906 6.535156 5.4375 6.335938 5.476562 6.25 C 5.515625 6.164062 5.628906 6.191406 5.636719 6.355469 C 5.648438 6.519531 5.601562 6.574219 5.601562 6.574219 C 5.601562 6.574219 5.742188 6.757812 5.65625 7.003906 C 5.65625 7.003906 5.847656 7.035156 5.808594 7.273438 C 5.773438 7.511719 5.839844 7.695312 5.667969 7.742188 C 5.496094 7.789062 4.84375 7.972656 4.835938 7.714844 C 4.824219 7.453125 4.664062 7.253906 4.347656 7.0625 C 4.03125 6.871094 3.800781 6.660156 3.839844 6.554688 C 3.878906 6.449219 3.898438 6.355469 4.164062 6.46875 Z M 4.164062 6.46875 "/>
<path style=" stroke:none;fill-rule:nonzero;fill:rgb(86.666667%,18.039216%,26.666667%);fill-opacity:1;" d="M 10.535156 10.277344 L 5.804688 10.277344 C 5.6875 10.277344 5.59375 10.183594 5.59375 10.070312 L 5.59375 10.058594 C 5.59375 9.941406 5.6875 9.847656 5.804688 9.847656 L 10.535156 9.847656 C 10.652344 9.847656 10.746094 9.941406 10.746094 10.058594 L 10.746094 10.070312 C 10.746094 10.183594 10.652344 10.277344 10.535156 10.277344 Z M 10.535156 10.277344 "/>
<path style=" stroke:none;fill-rule:nonzero;fill:rgb(40%,45.882353%,49.803922%);fill-opacity:1;" d="M 10.316406 13.066406 C 10.316406 14.136719 9.449219 15 8.382812 15 C 7.316406 15 6.453125 14.136719 6.453125 13.066406 C 6.453125 12 7.316406 11.136719 8.382812 11.136719 C 9.449219 11.136719 10.316406 12 10.316406 13.066406 Z M 10.316406 13.066406 "/>
<path style=" stroke:none;fill-rule:nonzero;fill:rgb(40%,45.882353%,49.803922%);fill-opacity:1;" d="M 6.023438 13.925781 C 6.023438 14.519531 5.542969 15 4.949219 15 C 4.359375 15 3.878906 14.519531 3.878906 13.925781 C 3.878906 13.335938 4.359375 12.855469 4.949219 12.855469 C 5.542969 12.855469 6.023438 13.335938 6.023438 13.925781 Z M 6.023438 13.925781 "/>
<path style=" stroke:none;fill-rule:nonzero;fill:rgb(40%,45.882353%,49.803922%);fill-opacity:1;" d="M 13.75 14.140625 C 13.75 14.617188 13.367188 15 12.890625 15 C 12.417969 15 12.03125 14.617188 12.03125 14.140625 C 12.03125 13.667969 12.417969 13.285156 12.890625 13.285156 C 13.367188 13.285156 13.75 13.667969 13.75 14.140625 Z M 13.75 14.140625 "/>
<path style=" stroke:none;fill-rule:nonzero;fill:rgb(80%,83.921569%,86.666667%);fill-opacity:1;" d="M 9.457031 13.066406 C 9.457031 13.660156 8.976562 14.140625 8.382812 14.140625 C 7.792969 14.140625 7.3125 13.660156 7.3125 13.066406 C 7.3125 12.476562 7.792969 11.996094 8.382812 11.996094 C 8.976562 11.996094 9.457031 12.476562 9.457031 13.066406 Z M 9.457031 13.066406 "/>
<path style=" stroke:none;fill-rule:nonzero;fill:rgb(80%,83.921569%,86.666667%);fill-opacity:1;" d="M 5.59375 13.925781 C 5.59375 14.28125 5.304688 14.570312 4.949219 14.570312 C 4.59375 14.570312 4.308594 14.28125 4.308594 13.925781 C 4.308594 13.570312 4.59375 13.285156 4.949219 13.285156 C 5.304688 13.285156 5.59375 13.570312 5.59375 13.925781 Z M 5.59375 13.925781 "/>
<path style=" stroke:none;fill-rule:nonzero;fill:rgb(16.078431%,18.431373%,20%);fill-opacity:1;" d="M 13.320312 14.140625 C 13.320312 14.378906 13.128906 14.570312 12.890625 14.570312 C 12.652344 14.570312 12.460938 14.378906 12.460938 14.140625 C 12.460938 13.90625 12.652344 13.710938 12.890625 13.710938 C 13.128906 13.710938 13.320312 13.90625 13.320312 14.140625 Z M 13.320312 14.140625 "/>
<path style=" stroke:none;fill-rule:nonzero;fill:rgb(16.078431%,18.431373%,20%);fill-opacity:1;" d="M 8.8125 12.695312 C 8.8125 12.816406 8.71875 12.910156 8.597656 12.910156 C 8.480469 12.910156 8.382812 12.816406 8.382812 12.695312 C 8.382812 12.578125 8.480469 12.480469 8.597656 12.480469 C 8.71875 12.480469 8.8125 12.578125 8.8125 12.695312 Z M 8.8125 12.695312 "/>
<path style=" stroke:none;fill-rule:nonzero;fill:rgb(16.078431%,18.431373%,20%);fill-opacity:1;" d="M 8.382812 13.441406 C 8.382812 13.558594 8.289062 13.65625 8.167969 13.65625 C 8.050781 13.65625 7.953125 13.558594 7.953125 13.441406 C 7.953125 13.320312 8.050781 13.226562 8.167969 13.226562 C 8.289062 13.226562 8.382812 13.320312 8.382812 13.441406 Z M 8.382812 13.441406 "/>
<path style=" stroke:none;fill-rule:nonzero;fill:rgb(16.078431%,18.431373%,20%);fill-opacity:1;" d="M 8.226562 12.855469 C 8.226562 12.972656 8.132812 13.066406 8.011719 13.066406 C 7.894531 13.066406 7.796875 12.972656 7.796875 12.855469 C 7.796875 12.734375 7.894531 12.640625 8.011719 12.640625 C 8.132812 12.640625 8.226562 12.734375 8.226562 12.855469 Z M 8.226562 12.855469 "/>
<path style=" stroke:none;fill-rule:nonzero;fill:rgb(16.078431%,18.431373%,20%);fill-opacity:1;" d="M 8.972656 13.28125 C 8.972656 13.402344 8.875 13.496094 8.757812 13.496094 C 8.636719 13.496094 8.542969 13.402344 8.542969 13.28125 C 8.542969 13.164062 8.636719 13.066406 8.757812 13.066406 C 8.875 13.066406 8.972656 13.164062 8.972656 13.28125 Z M 8.972656 13.28125 "/>
<path style=" stroke:none;fill-rule:nonzero;fill:rgb(16.078431%,18.431373%,20%);fill-opacity:1;" d="M 5.273438 13.925781 C 5.273438 14.105469 5.128906 14.25 4.949219 14.25 C 4.773438 14.25 4.628906 14.105469 4.628906 13.925781 C 4.628906 13.75 4.773438 13.605469 4.949219 13.605469 C 5.128906 13.605469 5.273438 13.75 5.273438 13.925781 Z M 5.273438 13.925781 "/>
<path style=" stroke:none;fill-rule:nonzero;fill:rgb(40%,45.882353%,49.803922%);fill-opacity:1;" d="M 13.105469 14.140625 C 13.105469 14.261719 13.007812 14.355469 12.890625 14.355469 C 12.773438 14.355469 12.675781 14.261719 12.675781 14.140625 C 12.675781 14.023438 12.773438 13.925781 12.890625 13.925781 C 13.007812 13.925781 13.105469 14.023438 13.105469 14.140625 Z M 13.105469 14.140625 "/>
</g>
</svg>
