<?xml version="1.0" encoding="UTF-8"?>
<svg xmlns="http://www.w3.org/2000/svg" xmlns:xlink="http://www.w3.org/1999/xlink" width="15pt" height="15pt" viewBox="0 0 15 15" version="1.1">
<g id="surface1">
<path style=" stroke:none;fill-rule:nonzero;fill:rgb(100%,86.27451%,36.470588%);fill-opacity:1;" d="M 0 8.75 L 12.5 8.75 L 12.5 15 L 0 15 Z M 0 8.75 "/>
<path style=" stroke:none;fill-rule:nonzero;fill:rgb(100%,67.45098%,20%);fill-opacity:1;" d="M 14.582031 11.007812 C 14.582031 10.253906 14.1875 9.59375 13.589844 9.21875 C 13.679688 8.984375 13.734375 8.734375 13.734375 8.464844 C 13.734375 7.382812 12.921875 6.503906 11.878906 6.375 C 11.976562 6.101562 12.042969 5.808594 12.042969 5.5 C 12.042969 4.097656 10.902344 2.957031 9.5 2.957031 C 9.164062 2.957031 8.847656 3.027344 8.554688 3.144531 C 8.261719 2.0625 7.285156 1.265625 6.109375 1.265625 C 5.375 1.265625 4.714844 1.582031 4.253906 2.082031 C 3.894531 1.113281 2.96875 0.417969 1.875 0.417969 C 1.125 0.417969 0.464844 0.746094 0 1.261719 L 0 12.699219 C 0.535156 12.96875 1.179688 13.125 1.875 13.125 C 2.972656 13.125 3.941406 12.726562 4.558594 12.121094 C 4.960938 13.1875 6.253906 13.972656 7.804688 13.972656 C 8.71875 13.972656 9.542969 13.699219 10.148438 13.257812 C 10.316406 13.839844 10.363281 14.371094 10.375 15 L 13.269531 15 C 13.558594 14.621094 13.734375 14.113281 13.734375 13.546875 C 13.734375 13.277344 13.691406 13.019531 13.617188 12.78125 C 14.199219 12.402344 14.582031 11.75 14.582031 11.007812 Z M 14.582031 11.007812 "/>
</g>
</svg>
