<?xml version="1.0" encoding="UTF-8"?>
<svg xmlns="http://www.w3.org/2000/svg" xmlns:xlink="http://www.w3.org/1999/xlink" width="15pt" height="15pt" viewBox="0 0 15 15" version="1.1">
<g id="surface1">
<path style=" stroke:none;fill-rule:nonzero;fill:rgb(16.078431%,18.431373%,20%);fill-opacity:1;" d="M 11.667969 12.082031 L 3.332031 12.082031 C 2.082031 12.082031 1.667969 15 1.667969 15 L 13.332031 15 C 13.332031 15 12.917969 12.082031 11.667969 12.082031 Z M 11.667969 12.082031 "/>
<path style=" stroke:none;fill-rule:nonzero;fill:rgb(60%,66.666667%,70.980392%);fill-opacity:1;" d="M 7.832031 14.5 L 8.332031 13.75 L 7.5 13.332031 L 6.667969 13.75 L 7.167969 14.5 L 4.167969 13.75 L 5 15 L 10 15 L 10.832031 13.75 Z M 7.832031 14.5 "/>
<path style=" stroke:none;fill-rule:nonzero;fill:rgb(100%,89.803922%,11.764706%);fill-opacity:1;" d="M 7.5 2.082031 C 9.167969 2.082031 9.710938 2.265625 9.710938 2.265625 C 9.710938 2.265625 9.695312 1.667969 9.167969 1.25 C 9.167969 1.25 10.417969 1.667969 10.417969 2.5 C 10.417969 2.5 12.082031 2.5 12.5 3.75 C 12.5 3.75 12.082031 3.332031 11.25 3.332031 C 11.25 3.332031 12.132812 4.097656 12.269531 5.855469 C 12.40625 7.609375 11.851562 9.1875 11.851562 9.1875 C 11.851562 9.1875 11.894531 8.832031 11.476562 8.414062 C 11.476562 8.414062 11.335938 9.59375 10.238281 10.425781 C 10.238281 10.425781 9.808594 9.757812 8.976562 9.339844 C 8.144531 8.921875 6.667969 8.75 5.832031 9.582031 L 4.582031 10.832031 C 4.582031 10.832031 2.917969 9.167969 2.917969 6.667969 C 2.917969 4.167969 5 2.082031 7.5 2.082031 Z M 7.5 2.082031 "/>
<path style=" stroke:none;fill-rule:nonzero;fill:rgb(95.294118%,82.352941%,63.529412%);fill-opacity:1;" d="M 5.945312 12.28125 C 6.554688 12.726562 7.179688 12.691406 7.476562 12.691406 C 7.769531 12.691406 8.390625 12.726562 9 12.28125 L 9 9.921875 L 5.945312 9.921875 Z M 5.945312 12.28125 "/>
<path style=" stroke:none;fill-rule:nonzero;fill:rgb(88.627451%,75.686275%,58.823529%);fill-opacity:1;" d="M 5.941406 10.492188 C 6.371094 10.972656 6.898438 11.101562 7.472656 11.101562 C 8.046875 11.101562 8.574219 10.972656 9 10.492188 L 9 9.269531 L 5.941406 9.269531 Z M 5.941406 10.492188 "/>
<path style=" stroke:none;fill-rule:nonzero;fill:rgb(95.294118%,82.352941%,63.529412%);fill-opacity:1;" d="M 4.03125 6.550781 C 4.03125 4.117188 5.5625 2.148438 7.453125 2.148438 C 9.339844 2.148438 10.871094 4.117188 10.871094 6.550781 C 10.871094 8.980469 9.339844 10.835938 7.453125 10.835938 C 5.5625 10.835938 4.03125 8.980469 4.03125 6.550781 "/>
<path style=" stroke:none;fill-rule:nonzero;fill:rgb(100%,89.803922%,11.764706%);fill-opacity:1;" d="M 8.75 4.167969 C 8.75 4.167969 9.167969 5.832031 10 6.667969 C 10.832031 7.5 10.417969 9.167969 10.417969 9.167969 C 10.417969 9.167969 11.25 7.917969 11.25 6.25 C 11.25 4.582031 10 2.5 10 2.5 C 10 2.5 8.75 1.25 5.832031 1.667969 C 5.832031 1.667969 6.667969 1.667969 7.082031 2.082031 C 7.082031 2.082031 4.167969 1.667969 2.917969 3.75 C 2.917969 3.75 3.75 2.917969 5 3.332031 C 5 3.332031 4.167969 3.75 3.75 5.417969 C 3.332031 7.082031 4.167969 8.75 4.167969 8.75 C 4.167969 8.75 5.417969 4.167969 8.75 4.167969 Z M 8.75 4.167969 "/>
<path style=" stroke:none;fill-rule:nonzero;fill:rgb(74.509804%,9.803922%,19.215686%);fill-opacity:1;" d="M 7.5 5.417969 L 9.582031 5 L 10 4.167969 L 10.832031 5 L 10.417969 6.25 L 10.832031 7.082031 L 10 7.917969 L 9.582031 8.75 L 9.167969 7.917969 L 7.5 7.082031 L 5.832031 7.917969 L 5.417969 8.75 L 5 7.917969 L 4.167969 7.082031 L 4.582031 6.25 L 4.167969 5 L 5 4.167969 L 5.417969 5 Z M 7.5 5.417969 "/>
<path style=" stroke:none;fill-rule:nonzero;fill:rgb(0%,0%,0%);fill-opacity:1;" d="M 6.570312 6.667969 C 6.570312 6.859375 6.410156 7.019531 6.21875 7.019531 L 5.867188 7.019531 C 5.671875 7.019531 5.511719 6.859375 5.511719 6.667969 C 5.511719 6.472656 5.671875 6.3125 5.867188 6.3125 L 6.21875 6.3125 C 6.410156 6.3125 6.570312 6.472656 6.570312 6.667969 M 9.488281 6.667969 C 9.488281 6.472656 9.328125 6.3125 9.132812 6.3125 L 8.78125 6.3125 C 8.589844 6.3125 8.429688 6.472656 8.429688 6.667969 C 8.429688 6.859375 8.589844 7.019531 8.78125 7.019531 L 9.132812 7.019531 C 9.328125 7.019531 9.488281 6.859375 9.488281 6.667969 "/>
<path style=" stroke:none;fill-rule:nonzero;fill:rgb(75.686275%,41.176471%,30.980392%);fill-opacity:1;" d="M 7.824219 8.542969 L 7.121094 8.542969 C 7.023438 8.542969 6.941406 8.460938 6.941406 8.367188 L 6.941406 8.300781 C 6.941406 8.203125 7.023438 8.125 7.121094 8.125 L 7.824219 8.125 C 7.921875 8.125 8 8.203125 8 8.300781 L 8 8.367188 C 8 8.460938 7.921875 8.542969 7.824219 8.542969 M 8.679688 9.007812 C 8.390625 9.132812 7.855469 9.351562 7.386719 9.351562 L 6.457031 9.351562 C 6.34375 9.351562 6.25 9.445312 6.25 9.558594 C 6.25 9.675781 6.34375 9.769531 6.457031 9.769531 L 8.210938 9.769531 C 8.210938 9.769531 8.214844 9.765625 8.214844 9.765625 L 8.242188 9.769531 C 8.484375 9.769531 8.667969 9.503906 8.765625 9.296875 C 8.882812 9.042969 8.875 8.925781 8.679688 9.007812 Z M 8.679688 9.007812 "/>
<path style=" stroke:none;fill-rule:nonzero;fill:rgb(74.509804%,9.803922%,19.215686%);fill-opacity:1;" d="M 12.769531 12.292969 C 12.441406 11.75 11.148438 11.25 9.933594 11.25 C 9.527344 11.25 8.714844 12.019531 7.5 12.019531 C 6.285156 12.019531 5.472656 11.25 5.066406 11.25 C 3.851562 11.25 2.558594 11.75 2.230469 12.292969 C 1.625 13.292969 2.625 13.332031 3.433594 13.332031 C 4.246094 13.332031 5.785156 12.917969 7.5 12.917969 C 9.214844 12.917969 10.753906 13.332031 11.566406 13.332031 C 12.375 13.332031 13.375 13.292969 12.769531 12.292969 Z M 12.769531 12.292969 "/>
<path style=" stroke:none;fill-rule:nonzero;fill:rgb(60%,66.666667%,70.980392%);fill-opacity:1;" d="M 4.328125 10.929688 C 4.476562 10.902344 4.898438 11.519531 4.886719 11.640625 C 4.878906 11.765625 3.972656 11.839844 3.914062 11.746094 C 3.859375 11.648438 4.175781 10.953125 4.328125 10.929688 Z M 2.4375 12.304688 C 2.527344 12.441406 3.859375 12.273438 3.867188 12.09375 C 3.871094 11.914062 3.164062 11.0625 2.945312 11.109375 C 2.722656 11.152344 2.347656 12.167969 2.4375 12.304688 Z M 11.082031 11.746094 C 11.023438 11.839844 10.121094 11.765625 10.109375 11.640625 C 10.097656 11.519531 10.519531 10.902344 10.667969 10.929688 C 10.820312 10.953125 11.136719 11.648438 11.082031 11.746094 Z M 12.050781 11.109375 C 11.828125 11.0625 11.121094 11.914062 11.128906 12.09375 C 11.136719 12.273438 12.472656 12.441406 12.558594 12.304688 C 12.648438 12.167969 12.273438 11.152344 12.050781 11.109375 Z M 12.050781 11.109375 "/>
</g>
</svg>
