<?xml version="1.0" encoding="UTF-8"?>
<svg xmlns="http://www.w3.org/2000/svg" xmlns:xlink="http://www.w3.org/1999/xlink" width="15pt" height="15pt" viewBox="0 0 15 15" version="1.1">
<g id="surface1">
<path style=" stroke:none;fill-rule:nonzero;fill:rgb(16.078431%,18.431373%,20%);fill-opacity:1;" d="M 11.667969 12.082031 C 10.417969 12.058594 4.582031 12.058594 3.332031 12.082031 C 0.660156 12.136719 1.25 15 1.25 15 L 13.75 15 C 13.75 15 14.339844 12.136719 11.667969 12.082031 Z M 11.667969 12.082031 "/>
<path style=" stroke:none;fill-rule:nonzero;fill:rgb(60%,66.666667%,70.980392%);fill-opacity:1;" d="M 7.832031 14.5 L 8.332031 13.75 L 7.5 13.332031 L 6.667969 13.75 L 7.167969 14.5 L 4.167969 13.75 L 5 15 L 10 15 L 10.832031 13.75 Z M 7.832031 14.5 "/>
<path style=" stroke:none;fill-rule:nonzero;fill:rgb(83.137255%,67.058824%,53.333333%);fill-opacity:1;" d="M 5.945312 12.28125 C 6.554688 12.726562 7.179688 12.691406 7.476562 12.691406 C 7.769531 12.691406 8.390625 12.726562 9 12.28125 L 9 9.921875 L 5.945312 9.921875 Z M 5.945312 12.28125 "/>
<path style=" stroke:none;fill-rule:nonzero;fill:rgb(80%,60.784314%,47.843137%);fill-opacity:1;" d="M 5.941406 10.492188 C 6.371094 10.972656 6.898438 11.101562 7.472656 11.101562 C 8.046875 11.101562 8.574219 10.972656 9 10.492188 L 9 9.269531 L 5.941406 9.269531 Z M 5.941406 10.492188 "/>
<path style=" stroke:none;fill-rule:nonzero;fill:rgb(83.137255%,67.058824%,53.333333%);fill-opacity:1;" d="M 4.03125 6.550781 C 4.03125 4.117188 5.5625 2.148438 7.453125 2.148438 C 9.339844 2.148438 10.871094 4.117188 10.871094 6.550781 C 10.871094 8.980469 9.339844 10.835938 7.453125 10.835938 C 5.5625 10.835938 4.03125 8.980469 4.03125 6.550781 "/>
<path style=" stroke:none;fill-rule:nonzero;fill:rgb(58.823529%,23.137255%,13.333333%);fill-opacity:1;" d="M 11.25 2.082031 C 12.082031 2.082031 12.5 2.5 12.5 2.5 C 12.082031 1.25 10.417969 1.25 10.417969 1.25 C 10.019531 0.332031 9.34375 0.332031 9.34375 0.332031 C 9.707031 0.621094 9.710938 1.015625 9.710938 1.015625 L 9.691406 1.019531 C 9.164062 0.679688 7.929688 0.117188 5.832031 0.417969 C 5.832031 0.417969 6.667969 0.417969 7.082031 0.832031 C 7.082031 0.832031 4.167969 0.417969 2.917969 2.5 C 2.917969 2.5 3.527344 1.894531 4.488281 1.980469 C 3.78125 2.4375 3.203125 3.191406 3.085938 4.078125 C 2.902344 5.507812 3.3125 6.171875 3.460938 7.25 C 3.625 8.46875 4.3125 8.859375 4.859375 9.023438 C 5.648438 10.066406 6.488281 10.019531 7.894531 10.019531 C 9.859375 10.019531 11.085938 9.078125 11.671875 7.402344 C 11.875 7.707031 11.851562 7.9375 11.851562 7.9375 C 11.851562 7.9375 12.40625 6.359375 12.269531 4.605469 C 12.132812 2.847656 11.25 2.082031 11.25 2.082031 Z M 11.25 2.082031 "/>
<path style=" stroke:none;fill-rule:nonzero;fill:rgb(83.137255%,67.058824%,53.333333%);fill-opacity:1;" d="M 10.609375 5.191406 C 10.34375 4.820312 10.003906 4.523438 9.257812 4.421875 C 9.535156 4.546875 9.804688 4.992188 9.839844 5.238281 C 9.875 5.480469 9.910156 5.679688 9.6875 5.433594 C 8.800781 4.453125 7.832031 4.839844 6.875 4.242188 C 6.203125 3.820312 6 3.359375 6 3.359375 C 6 3.359375 5.917969 3.976562 4.90625 4.605469 C 4.609375 4.789062 4.257812 5.195312 4.066406 5.796875 C 3.925781 6.226562 3.96875 6.613281 3.96875 7.269531 C 3.96875 9.191406 5.550781 10.808594 7.503906 10.808594 C 9.457031 10.808594 11.039062 9.179688 11.039062 7.269531 C 11.039062 6.078125 10.914062 5.609375 10.609375 5.191406 Z M 10.609375 5.191406 "/>
<path style=" stroke:none;fill-rule:nonzero;fill:rgb(74.509804%,9.803922%,19.215686%);fill-opacity:1;" d="M 13.1875 11.875 C 12.859375 11.332031 11.148438 11.25 9.933594 11.25 C 9.527344 11.25 8.714844 12.019531 7.5 12.019531 C 6.285156 12.019531 5.472656 11.25 5.066406 11.25 C 3.851562 11.25 2.140625 11.332031 1.8125 11.875 C 1.207031 12.875 2.625 13.332031 3.433594 13.332031 C 4.246094 13.332031 5.785156 12.917969 7.5 12.917969 C 9.214844 12.917969 10.753906 13.332031 11.566406 13.332031 C 12.375 13.332031 13.792969 12.875 13.1875 11.875 Z M 13.1875 11.875 "/>
<path style=" stroke:none;fill-rule:nonzero;fill:rgb(60%,66.666667%,70.980392%);fill-opacity:1;" d="M 3.910156 10.929688 C 4.0625 10.902344 4.480469 11.519531 4.46875 11.640625 C 4.460938 11.765625 3.554688 11.839844 3.5 11.746094 C 3.441406 11.648438 3.757812 10.953125 3.910156 10.929688 Z M 2.019531 12.304688 C 2.109375 12.441406 3.441406 12.273438 3.449219 12.09375 C 3.457031 11.914062 2.75 11.0625 2.527344 11.109375 C 2.308594 11.152344 1.929688 12.167969 2.019531 12.304688 Z M 11.496094 11.746094 C 11.441406 11.839844 10.535156 11.765625 10.527344 11.640625 C 10.515625 11.519531 10.933594 10.902344 11.085938 10.929688 C 11.234375 10.953125 11.554688 11.648438 11.496094 11.746094 Z M 12.46875 11.109375 C 12.246094 11.0625 11.539062 11.914062 11.546875 12.09375 C 11.554688 12.273438 12.886719 12.441406 12.976562 12.304688 C 13.066406 12.167969 12.6875 11.152344 12.46875 11.109375 Z M 12.46875 11.109375 "/>
<path style=" stroke:none;fill-rule:nonzero;fill:rgb(74.509804%,9.803922%,19.215686%);fill-opacity:1;" d="M 7.5 5.417969 L 9.582031 5 L 10 4.167969 L 10.832031 5 L 10.417969 6.25 L 10.832031 7.082031 L 10 7.917969 L 9.582031 8.75 L 9.167969 7.917969 L 7.5 7.082031 L 5.832031 7.917969 L 5.417969 8.75 L 5 7.917969 L 4.167969 7.082031 L 4.582031 6.25 L 4.167969 5 L 5 4.167969 L 5.417969 5 Z M 7.5 5.417969 "/>
<path style=" stroke:none;fill-rule:nonzero;fill:rgb(0%,0%,0%);fill-opacity:1;" d="M 6.570312 6.667969 C 6.570312 6.859375 6.410156 7.019531 6.21875 7.019531 L 5.867188 7.019531 C 5.671875 7.019531 5.511719 6.859375 5.511719 6.667969 C 5.511719 6.472656 5.671875 6.3125 5.867188 6.3125 L 6.21875 6.3125 C 6.410156 6.3125 6.570312 6.472656 6.570312 6.667969 M 9.488281 6.667969 C 9.488281 6.472656 9.328125 6.3125 9.132812 6.3125 L 8.78125 6.3125 C 8.589844 6.3125 8.429688 6.472656 8.429688 6.667969 C 8.429688 6.859375 8.589844 7.019531 8.78125 7.019531 L 9.132812 7.019531 C 9.328125 7.019531 9.488281 6.859375 9.488281 6.667969 "/>
<path style=" stroke:none;fill-rule:nonzero;fill:rgb(75.686275%,41.176471%,30.980392%);fill-opacity:1;" d="M 8.679688 9.007812 C 8.390625 9.132812 7.855469 9.351562 7.386719 9.351562 L 6.457031 9.351562 C 6.34375 9.351562 6.25 9.445312 6.25 9.558594 C 6.25 9.675781 6.34375 9.769531 6.457031 9.769531 L 8.210938 9.769531 C 8.210938 9.769531 8.214844 9.765625 8.214844 9.765625 L 8.242188 9.769531 C 8.484375 9.769531 8.667969 9.503906 8.765625 9.296875 C 8.882812 9.042969 8.875 8.925781 8.679688 9.007812 Z M 7.824219 8.542969 L 7.121094 8.542969 C 7.023438 8.542969 6.941406 8.460938 6.941406 8.367188 L 6.941406 8.300781 C 6.941406 8.203125 7.023438 8.125 7.121094 8.125 L 7.824219 8.125 C 7.921875 8.125 8 8.203125 8 8.300781 L 8 8.367188 C 8 8.460938 7.921875 8.542969 7.824219 8.542969 "/>
</g>
</svg>
