<?xml version="1.0" encoding="UTF-8"?>
<svg xmlns="http://www.w3.org/2000/svg" xmlns:xlink="http://www.w3.org/1999/xlink" width="15pt" height="15pt" viewBox="0 0 15 15" version="1.1">
<g id="surface1">
<path style=" stroke:none;fill-rule:nonzero;fill:rgb(88.235294%,90.980392%,92.941176%);fill-opacity:1;" d="M 7.5 0.832031 C 5.417969 0.832031 4.628906 -0.53125 2.917969 0.292969 C 1.25 1.09375 2.917969 7.085938 3.75 8.332031 C 3.566406 9.390625 3.503906 11.996094 3.679688 12.878906 C 3.917969 14.097656 4.328125 15 4.824219 15 C 5.65625 15 5.832031 9.582031 7.5 9.582031 Z M 7.5 0.832031 C 9.582031 0.832031 10.371094 -0.53125 12.082031 0.292969 C 13.75 1.09375 12.082031 7.085938 11.25 8.332031 C 11.433594 9.390625 11.496094 11.996094 11.320312 12.878906 C 11.082031 14.097656 10.671875 15 10.175781 15 C 9.34375 15 9.167969 9.582031 7.5 9.582031 Z M 7.5 0.832031 "/>
<path style=" stroke:none;fill-rule:nonzero;fill:rgb(60.392157%,66.666667%,70.588235%);fill-opacity:1;" d="M 7.5 3.023438 C 6.550781 3.023438 5.660156 2.6875 5.230469 2.375 C 5.09375 2.269531 5.0625 2.074219 5.164062 1.9375 C 5.265625 1.796875 5.460938 1.769531 5.601562 1.871094 C 5.953125 2.125 6.734375 2.398438 7.5 2.398438 C 8.320312 2.398438 9.140625 2.105469 9.371094 1.894531 C 9.496094 1.777344 9.695312 1.78125 9.8125 1.910156 C 9.929688 2.035156 9.921875 2.234375 9.796875 2.351562 C 9.394531 2.722656 8.367188 3.023438 7.5 3.023438 Z M 7.5 3.023438 "/>
</g>
</svg>
