<?xml version="1.0" encoding="UTF-8"?>
<svg xmlns="http://www.w3.org/2000/svg" xmlns:xlink="http://www.w3.org/1999/xlink" width="15pt" height="15pt" viewBox="0 0 15 15" version="1.1">
<g id="surface1">
<path style=" stroke:none;fill-rule:nonzero;fill:rgb(86.666667%,18.039216%,26.666667%);fill-opacity:1;" d="M 4.929688 11.175781 L 9.585938 11.585938 C 9.703125 11.59375 9.804688 11.507812 9.8125 11.394531 L 9.816406 11.382812 C 9.824219 11.269531 9.738281 11.167969 9.625 11.15625 L 4.964844 10.75 C 4.851562 10.738281 4.75 10.824219 4.742188 10.9375 L 4.738281 10.949219 C 4.730469 11.0625 4.816406 11.164062 4.929688 11.175781 Z M 4.929688 11.175781 "/>
<path style=" stroke:none;fill-rule:nonzero;fill:rgb(86.666667%,18.039216%,26.666667%);fill-opacity:1;" d="M 9.585938 11.585938 L 9.574219 11.582031 C 9.460938 11.574219 9.375 11.472656 9.386719 11.359375 L 9.574219 9.207031 C 9.582031 9.09375 9.683594 9.007812 9.800781 9.015625 L 9.8125 9.019531 C 9.925781 9.027344 10.011719 9.128906 10 9.246094 L 9.8125 11.394531 C 9.804688 11.507812 9.703125 11.59375 9.585938 11.585938 Z M 4.976562 8.332031 L 4.964844 8.328125 C 4.851562 8.320312 4.75 8.40625 4.738281 8.519531 L 4.304688 13.507812 C 4.292969 13.625 4.378906 13.726562 4.492188 13.734375 L 4.503906 13.734375 C 4.621094 13.746094 4.722656 13.660156 4.730469 13.546875 L 5.167969 8.558594 C 5.175781 8.441406 5.09375 8.339844 4.976562 8.332031 Z M 4.976562 8.332031 "/>
<path style=" stroke:none;fill-rule:nonzero;fill:rgb(16.078431%,18.431373%,20%);fill-opacity:1;" d="M 9.253906 8.386719 C 9.867188 8.296875 10.46875 8.324219 10.257812 8.621094 C 10.050781 8.917969 9.582031 9.4375 8.792969 9.351562 C 8 9.269531 8.871094 8.441406 9.253906 8.386719 Z M 9.253906 8.386719 "/>
<path style=" stroke:none;fill-rule:nonzero;fill:rgb(16.078431%,18.431373%,20%);fill-opacity:1;" d="M 8.792969 9.351562 L 4.515625 8.980469 C 4.089844 8.941406 4.089844 8.941406 4.125 8.515625 C 4.148438 8.277344 4.355469 8.101562 4.589844 8.125 L 8.867188 8.496094 C 9.101562 8.519531 9.277344 8.726562 9.257812 8.964844 C 9.21875 9.390625 9.21875 9.390625 8.792969 9.351562 Z M 8.792969 9.351562 "/>
<path style=" stroke:none;fill-rule:nonzero;fill:rgb(86.666667%,18.039216%,26.666667%);fill-opacity:1;" d="M 9.019531 9.480469 L 4.304688 9.066406 C 4.1875 9.058594 4.105469 8.953125 4.113281 8.839844 L 4.113281 8.828125 C 4.125 8.714844 4.226562 8.628906 4.339844 8.640625 L 9.054688 9.050781 C 9.171875 9.0625 9.253906 9.164062 9.246094 9.277344 L 9.246094 9.289062 C 9.234375 9.402344 9.132812 9.488281 9.019531 9.480469 Z M 9.019531 9.480469 "/>
<path style=" stroke:none;fill-rule:nonzero;fill:rgb(16.078431%,18.431373%,20%);fill-opacity:1;" d="M 10.863281 3.605469 L 10.488281 7.882812 C 10.453125 8.308594 10.453125 8.308594 10.023438 8.273438 C 9.789062 8.25 9.613281 8.042969 9.636719 7.808594 L 10.007812 3.53125 C 10.03125 3.296875 10.238281 3.121094 10.472656 3.140625 C 10.902344 3.179688 10.902344 3.179688 10.863281 3.605469 Z M 10.863281 3.605469 "/>
<path style=" stroke:none;fill-rule:nonzero;fill:rgb(86.666667%,18.039216%,26.666667%);fill-opacity:1;" d="M 11.050781 3.402344 L 10.640625 8.117188 C 10.628906 8.234375 10.527344 8.316406 10.414062 8.308594 L 10.402344 8.308594 C 10.285156 8.296875 10.203125 8.195312 10.210938 8.082031 L 10.625 3.367188 C 10.632812 3.25 10.734375 3.167969 10.851562 3.175781 L 10.863281 3.175781 C 10.976562 3.1875 11.0625 3.289062 11.050781 3.402344 Z M 11.050781 3.402344 "/>
<path style=" stroke:none;fill-rule:nonzero;fill:rgb(16.078431%,18.431373%,20%);fill-opacity:1;" d="M 9.722656 7.496094 L 6.480469 7.214844 C 6.15625 7.183594 6.15625 7.183594 6.1875 6.863281 C 6.203125 6.6875 6.359375 6.558594 6.539062 6.574219 L 9.78125 6.855469 C 9.957031 6.871094 10.089844 7.027344 10.074219 7.203125 C 10.046875 7.523438 10.046875 7.523438 9.722656 7.496094 Z M 9.722656 7.496094 "/>
<path style=" stroke:none;fill-rule:nonzero;fill:rgb(86.666667%,18.039216%,26.666667%);fill-opacity:1;" d="M 8.835938 9.03125 C 9.265625 9.070312 10.121094 9.144531 10.230469 7.863281 C 10.34375 6.578125 10.769531 6.617188 10.660156 7.898438 C 10.546875 9.183594 9.839844 9.550781 8.796875 9.460938 C 7.945312 9.386719 7.980469 8.957031 8.835938 9.03125 Z M 4.351562 8.640625 C 5.207031 8.710938 5.378906 9.164062 4.523438 9.085938 C 4.144531 9.050781 4.109375 9.214844 4.023438 9.542969 C 3.941406 9.851562 3.828125 10.316406 3.65625 10.964844 C 3.527344 11.445312 3.132812 11.273438 3.234375 10.855469 C 3.414062 10.15625 3.578125 9.546875 3.6875 9.160156 C 3.796875 8.761719 3.902344 8.601562 4.351562 8.640625 Z M 4.351562 8.640625 "/>
<path style=" stroke:none;fill-rule:nonzero;fill:rgb(40%,45.882353%,49.803922%);fill-opacity:1;" d="M 10.316406 11.351562 C 10.316406 11.707031 10.027344 11.996094 9.671875 11.996094 C 9.316406 11.996094 9.027344 11.707031 9.027344 11.351562 C 9.027344 10.996094 9.316406 10.707031 9.671875 10.707031 C 10.027344 10.707031 10.316406 10.996094 10.316406 11.351562 Z M 10.316406 11.351562 "/>
<path style=" stroke:none;fill-rule:nonzero;fill:rgb(40%,45.882353%,49.803922%);fill-opacity:1;" d="M 12.566406 12.777344 L 9.964844 11.273438 L 11.46875 8.671875 L 11.097656 8.457031 L 9.59375 11.058594 L 6.992188 9.554688 L 6.777344 9.929688 L 9.378906 11.429688 L 7.875 14.03125 L 8.25 14.246094 L 9.75 11.644531 L 12.351562 13.148438 Z M 12.566406 12.777344 "/>
<path style=" stroke:none;fill-rule:nonzero;fill:rgb(40%,45.882353%,49.803922%);fill-opacity:1;" d="M 10.710938 14.40625 L 9.933594 11.503906 L 12.835938 10.726562 L 12.726562 10.3125 L 9.824219 11.089844 L 9.046875 8.1875 L 8.632812 8.296875 L 9.410156 11.199219 L 6.507812 11.976562 L 6.617188 12.390625 L 9.519531 11.613281 L 10.296875 14.515625 Z M 10.710938 14.40625 "/>
<path style=" stroke:none;fill-rule:nonzero;fill:rgb(16.078431%,18.431373%,20%);fill-opacity:1;" d="M 9.671875 7.703125 C 7.65625 7.703125 6.023438 9.335938 6.023438 11.351562 C 6.023438 13.367188 7.65625 15 9.671875 15 C 11.6875 15 13.320312 13.367188 13.320312 11.351562 C 13.320312 9.335938 11.6875 7.703125 9.671875 7.703125 Z M 9.671875 14.140625 C 8.132812 14.140625 6.882812 12.890625 6.882812 11.351562 C 6.882812 9.8125 8.132812 8.5625 9.671875 8.5625 C 11.214844 8.5625 12.460938 9.8125 12.460938 11.351562 C 12.460938 12.890625 11.214844 14.140625 9.671875 14.140625 Z M 9.671875 14.140625 "/>
<path style=" stroke:none;fill-rule:nonzero;fill:rgb(40%,45.882353%,49.803922%);fill-opacity:1;" d="M 9.671875 8.132812 C 7.894531 8.132812 6.453125 9.574219 6.453125 11.351562 C 6.453125 13.128906 7.894531 14.570312 9.671875 14.570312 C 11.449219 14.570312 12.890625 13.128906 12.890625 11.351562 C 12.890625 9.574219 11.449219 8.132812 9.671875 8.132812 Z M 9.671875 14.140625 C 8.132812 14.140625 6.882812 12.890625 6.882812 11.351562 C 6.882812 9.8125 8.132812 8.5625 9.671875 8.5625 C 11.214844 8.5625 12.460938 9.8125 12.460938 11.351562 C 12.460938 12.890625 11.214844 14.140625 9.671875 14.140625 Z M 5.742188 13.957031 L 4.816406 13.417969 L 5.351562 12.488281 L 4.980469 12.277344 L 4.441406 13.203125 L 3.511719 12.667969 L 3.296875 13.039062 L 4.226562 13.578125 L 3.691406 14.503906 L 4.0625 14.71875 L 4.601562 13.789062 L 5.527344 14.328125 Z M 5.742188 13.957031 "/>
<path style=" stroke:none;fill-rule:nonzero;fill:rgb(16.078431%,18.431373%,20%);fill-opacity:1;" d="M 4.519531 11.996094 C 3.691406 11.996094 3.019531 12.667969 3.019531 13.496094 C 3.019531 14.328125 3.691406 15 4.519531 15 C 5.351562 15 6.023438 14.328125 6.023438 13.496094 C 6.023438 12.667969 5.351562 11.996094 4.519531 11.996094 Z M 4.519531 14.570312 C 3.929688 14.570312 3.449219 14.089844 3.449219 13.496094 C 3.449219 12.90625 3.929688 12.425781 4.519531 12.425781 C 5.113281 12.425781 5.59375 12.90625 5.59375 13.496094 C 5.59375 14.089844 5.113281 14.570312 4.519531 14.570312 Z M 4.519531 14.570312 "/>
<path style=" stroke:none;fill-rule:nonzero;fill:rgb(86.666667%,18.039216%,26.666667%);fill-opacity:1;" d="M 3.578125 10.4375 L 3.566406 10.433594 C 3.453125 10.402344 3.339844 10.46875 3.3125 10.578125 L 2.640625 13.078125 C 2.609375 13.191406 2.675781 13.304688 2.789062 13.335938 L 2.800781 13.339844 C 2.910156 13.367188 3.027344 13.300781 3.054688 13.191406 L 3.726562 10.691406 C 3.753906 10.582031 3.6875 10.464844 3.578125 10.4375 Z M 3.578125 10.4375 "/>
<path style=" stroke:none;fill-rule:nonzero;fill:rgb(40%,45.882353%,49.803922%);fill-opacity:1;" d="M 2.800781 13.339844 L 1.128906 12.890625 C 1.019531 12.859375 0.953125 12.746094 0.980469 12.636719 L 0.984375 12.625 C 1.015625 12.511719 1.128906 12.445312 1.242188 12.476562 L 2.910156 12.921875 C 3.023438 12.953125 3.089844 13.066406 3.058594 13.179688 L 3.054688 13.191406 C 3.027344 13.300781 2.910156 13.367188 2.800781 13.339844 Z M 2.800781 13.339844 "/>
<path style=" stroke:none;fill-rule:nonzero;fill:rgb(86.666667%,18.039216%,26.666667%);fill-opacity:1;" d="M 12.082031 3.828125 L 10.804688 3.601562 C 10.691406 3.582031 10.613281 3.472656 10.632812 3.359375 L 10.636719 3.347656 C 10.65625 3.234375 10.765625 3.160156 10.878906 3.179688 L 12.15625 3.40625 C 12.269531 3.425781 12.347656 3.535156 12.328125 3.644531 L 12.324219 3.660156 C 12.304688 3.773438 12.195312 3.847656 12.082031 3.828125 Z M 12.082031 3.828125 "/>
<path style=" stroke:none;fill-rule:nonzero;fill:rgb(16.078431%,18.431373%,20%);fill-opacity:1;" d="M 12.5 3.902344 L 11.378906 3.699219 C 11.261719 3.679688 11.265625 3.582031 11.285156 3.464844 C 11.304688 3.351562 11.335938 3.257812 11.453125 3.277344 L 12.574219 3.480469 C 12.691406 3.5 12.769531 3.609375 12.75 3.726562 C 12.726562 3.84375 12.617188 3.921875 12.5 3.902344 Z M 12.5 3.902344 "/>
</g>
</svg>
