<?xml version="1.0" encoding="UTF-8"?>
<svg xmlns="http://www.w3.org/2000/svg" xmlns:xlink="http://www.w3.org/1999/xlink" width="15pt" height="15pt" viewBox="0 0 15 15" version="1.1">
<g id="surface1">
<path style=" stroke:none;fill-rule:nonzero;fill:rgb(40%,45.882353%,49.803922%);fill-opacity:1;" d="M 5.429688 12.488281 C 5.429688 13.519531 4.59375 14.355469 3.5625 14.355469 C 2.535156 14.355469 1.699219 13.519531 1.699219 12.488281 C 1.699219 11.457031 2.535156 10.621094 3.5625 10.621094 C 4.59375 10.621094 5.429688 11.457031 5.429688 12.488281 Z M 5.429688 12.488281 "/>
<path style=" stroke:none;fill-rule:nonzero;fill:rgb(80%,83.921569%,86.666667%);fill-opacity:1;" d="M 4.367188 14.355469 C 6.570312 15.1875 11.449219 14.769531 12.699219 13.9375 C 13.949219 13.105469 15.058594 12.25 14.785156 10.605469 C 14.367188 8.105469 11.035156 7.6875 8.949219 8.105469 C 6.90625 8.511719 5.199219 9.769531 4.785156 10.605469 C 4.519531 11.132812 4.785156 11.855469 4.785156 12.6875 C 4.785156 13.9375 3.976562 14.207031 4.367188 14.355469 Z M 4.367188 14.355469 "/>
<path style=" stroke:none;fill-rule:nonzero;fill:rgb(60%,66.666667%,70.980392%);fill-opacity:1;" d="M 12.699219 13.9375 C 13.949219 13.105469 15.058594 12.25 14.785156 10.605469 L 14.78125 10.597656 C 13.695312 11.21875 11.9375 12.027344 9.652344 12.417969 C 7.738281 12.742188 5.929688 12.777344 4.78125 12.75 C 4.753906 13.945312 3.984375 14.210938 4.367188 14.355469 C 6.570312 15.1875 11.449219 14.769531 12.699219 13.9375 Z M 12.699219 13.9375 "/>
<path style=" stroke:none;fill-rule:nonzero;fill:rgb(40%,45.882353%,49.803922%);fill-opacity:1;" d="M 4.546875 4.078125 C 4.546875 4.636719 4.09375 5.085938 3.535156 5.085938 C 2.980469 5.085938 2.527344 4.636719 2.527344 4.078125 C 2.527344 3.523438 2.980469 3.070312 3.535156 3.070312 C 4.09375 3.070312 4.546875 3.523438 4.546875 4.078125 Z M 4.546875 4.078125 "/>
<path style=" stroke:none;fill-rule:nonzero;fill:rgb(60%,66.666667%,70.980392%);fill-opacity:1;" d="M 1.039062 13.046875 C -0.597656 10.710938 0.4375 7.757812 1.285156 5.859375 C 1.933594 4.402344 2.542969 3.902344 2.542969 3.902344 L 4.441406 4.75 C 4.441406 4.75 3.722656 6.6875 3.945312 8.183594 C 4.179688 9.761719 4.457031 11.089844 3.699219 12.492188 C 2.9375 13.894531 1.449219 13.628906 1.039062 13.046875 Z M 1.039062 13.046875 "/>
<path style=" stroke:none;fill-rule:nonzero;fill:rgb(80%,83.921569%,86.666667%);fill-opacity:1;" d="M 3.3125 4.246094 L 4.441406 4.75 C 4.441406 4.75 3.722656 6.6875 3.945312 8.183594 C 4.179688 9.761719 4.457031 11.089844 3.699219 12.492188 C 3.382812 13.070312 2.945312 13.367188 2.507812 13.472656 C 0.660156 9.394531 3.3125 4.246094 3.3125 4.246094 Z M 3.3125 4.246094 "/>
<path style=" stroke:none;fill-rule:nonzero;fill:rgb(60%,66.666667%,70.980392%);fill-opacity:1;" d="M 2.632812 3.40625 C 2.808594 2.414062 4.238281 0.105469 4.734375 0.191406 C 5.230469 0.28125 7.625 1.214844 8.035156 1.800781 C 8.445312 2.382812 7.597656 4.28125 7.101562 4.195312 C 6.605469 4.109375 6.78125 3.113281 6.78125 3.113281 C 6.78125 3.113281 6.867188 2.617188 6.28125 3.027344 L 5.113281 3.84375 C 4.53125 4.253906 2.632812 3.40625 2.632812 3.40625 Z M 2.632812 3.40625 "/>
<path style=" stroke:none;fill-rule:nonzero;fill:rgb(60%,66.666667%,70.980392%);fill-opacity:1;" d="M 2.632812 3.40625 C 2.222656 2.824219 2.484375 1.332031 2.574219 0.835938 C 2.660156 0.339844 3.652344 0.515625 3.480469 1.507812 C 3.304688 2.5 3.800781 2.589844 3.800781 2.589844 Z M 2.632812 3.40625 "/>
<path style=" stroke:none;fill-rule:nonzero;fill:rgb(80%,83.921569%,86.666667%);fill-opacity:1;" d="M 2.632812 3.40625 C 2.808594 2.414062 4.238281 0.105469 4.734375 0.191406 C 5.230469 0.28125 7.625 1.214844 8.035156 1.800781 C 5.640625 0.863281 4.792969 2.765625 4.621094 3.957031 C 3.835938 3.945312 2.632812 3.40625 2.632812 3.40625 Z M 2.632812 3.40625 "/>
</g>
</svg>
