<?xml version="1.0" encoding="UTF-8"?>
<svg xmlns="http://www.w3.org/2000/svg" xmlns:xlink="http://www.w3.org/1999/xlink" width="15pt" height="15pt" viewBox="0 0 15 15" version="1.1">
<g id="surface1">
<path style=" stroke:none;fill-rule:nonzero;fill:rgb(98.039216%,45.490196%,24.313725%);fill-opacity:1;" d="M 14.585938 15 L 14.585938 14.167969 C 14.585938 12.785156 13.464844 11.667969 12.085938 11.667969 L 6.25 11.667969 C 4.871094 11.667969 3.75 12.785156 3.75 14.167969 L 3.75 15 Z M 14.585938 15 "/>
<path style=" stroke:none;fill-rule:nonzero;fill:rgb(4.313725%,0.784314%,0%);fill-opacity:1;" d="M 10.792969 0.941406 C 9.953125 0.671875 7.972656 0.746094 7.476562 1.386719 C 6.191406 1.414062 4.679688 2.574219 4.484375 4.109375 C 4.285156 5.628906 4.722656 6.335938 4.878906 7.476562 C 5.054688 8.769531 5.78125 9.183594 6.363281 9.359375 C 7.199219 10.464844 8.089844 10.417969 9.582031 10.417969 C 12.5 10.417969 13.890625 8.464844 14.011719 5.152344 C 14.085938 3.144531 12.910156 1.628906 10.792969 0.941406 Z M 10.792969 0.941406 "/>
<path style=" stroke:none;fill-rule:nonzero;fill:rgb(48.627451%,32.54902%,24.313725%);fill-opacity:1;" d="M 7.917969 9.582031 L 7.917969 12.082031 C 7.917969 12.773438 8.476562 13.332031 9.167969 13.332031 C 9.855469 13.332031 10.417969 12.773438 10.417969 12.082031 L 10.417969 9.582031 Z M 7.917969 9.582031 "/>
<path style=" stroke:none;fill-rule:nonzero;fill:rgb(40%,25.490196%,19.215686%);fill-opacity:1;" d="M 7.714844 10.832031 C 8.15625 11.335938 8.570312 11.460938 9.164062 11.460938 C 9.757812 11.460938 10.175781 11.332031 10.617188 10.832031 L 10.617188 9.367188 L 7.714844 9.367188 Z M 7.714844 10.832031 "/>
<path style=" stroke:none;fill-rule:nonzero;fill:rgb(48.627451%,32.54902%,24.313725%);fill-opacity:1;" d="M 12.460938 5.292969 C 12.179688 4.902344 11.816406 4.585938 11.027344 4.476562 C 11.324219 4.613281 11.609375 5.082031 11.644531 5.339844 C 11.683594 5.601562 11.71875 5.8125 11.484375 5.550781 C 10.542969 4.511719 9.515625 4.921875 8.5 4.285156 C 7.789062 3.839844 7.574219 3.347656 7.574219 3.347656 C 7.574219 3.347656 7.488281 4.003906 6.410156 4.671875 C 6.097656 4.867188 5.726562 5.296875 5.519531 5.9375 C 5.371094 6.394531 5.417969 6.800781 5.417969 7.5 C 5.417969 9.535156 7.09375 11.25 9.167969 11.25 C 11.238281 11.25 12.917969 9.523438 12.917969 7.5 C 12.917969 6.234375 12.785156 5.738281 12.460938 5.292969 Z M 12.460938 5.292969 "/>
<path style=" stroke:none;fill-rule:nonzero;fill:rgb(23.921569%,18.039216%,14.117647%);fill-opacity:1;" d="M 9.167969 9.917969 C 8.019531 9.917969 7.667969 9.625 7.609375 9.5625 C 7.503906 9.457031 7.503906 9.285156 7.609375 9.179688 C 7.710938 9.074219 7.878906 9.070312 7.984375 9.167969 C 8.007812 9.183594 8.285156 9.371094 9.167969 9.371094 C 10.085938 9.371094 10.347656 9.167969 10.351562 9.167969 C 10.457031 9.0625 10.625 9.066406 10.730469 9.171875 C 10.839844 9.28125 10.832031 9.457031 10.726562 9.5625 C 10.667969 9.625 10.316406 9.917969 9.167969 9.917969 "/>
<path style=" stroke:none;fill-rule:nonzero;fill:rgb(0%,0%,0%);fill-opacity:1;" d="M 7.5 7.082031 C 7.269531 7.082031 7.082031 6.898438 7.082031 6.667969 L 7.082031 6.25 C 7.082031 6.019531 7.269531 5.832031 7.5 5.832031 C 7.730469 5.832031 7.917969 6.019531 7.917969 6.25 L 7.917969 6.667969 C 7.917969 6.898438 7.730469 7.082031 7.5 7.082031 Z M 10.832031 7.082031 C 10.601562 7.082031 10.417969 6.898438 10.417969 6.667969 L 10.417969 6.25 C 10.417969 6.019531 10.601562 5.832031 10.832031 5.832031 C 11.0625 5.832031 11.25 6.019531 11.25 6.25 L 11.25 6.667969 C 11.25 6.898438 11.0625 7.082031 10.832031 7.082031 Z M 10.832031 7.082031 "/>
<path style=" stroke:none;fill-rule:nonzero;fill:rgb(23.921569%,18.039216%,14.117647%);fill-opacity:1;" d="M 9.582031 8.542969 L 8.75 8.542969 C 8.636719 8.542969 8.542969 8.449219 8.542969 8.332031 C 8.542969 8.21875 8.636719 8.125 8.75 8.125 L 9.582031 8.125 C 9.699219 8.125 9.792969 8.21875 9.792969 8.332031 C 9.792969 8.449219 9.699219 8.542969 9.582031 8.542969 Z M 9.582031 8.542969 "/>
<path style=" stroke:none;fill-rule:nonzero;fill:rgb(86.666667%,33.333333%,12.156863%);fill-opacity:1;" d="M 3.335938 11.898438 L 3.335938 15 L 3.75 15 L 3.878906 11.898438 Z M 3.335938 11.898438 "/>
<path style=" stroke:none;fill-rule:nonzero;fill:rgb(98.039216%,45.490196%,24.313725%);fill-opacity:1;" d="M 1.804688 11.6875 L 1.25 15 L 3.335938 15 L 3.632812 11.839844 Z M 1.804688 11.6875 "/>
<path style=" stroke:none;fill-rule:nonzero;fill:rgb(48.627451%,32.54902%,24.313725%);fill-opacity:1;" d="M 2.828125 9.273438 C 3.214844 8.890625 4.3125 8.039062 4.585938 7.757812 C 4.859375 7.480469 5.222656 7.800781 5.03125 8.140625 C 4.835938 8.484375 3.726562 9.746094 3.726562 9.746094 C 3.726562 9.746094 4.390625 9.9375 4.539062 10.109375 C 4.6875 10.277344 4.964844 11.390625 4.710938 11.5625 C 4.453125 11.730469 4.066406 11.605469 4.066406 11.605469 C 4.066406 11.605469 3.664062 12.609375 2.613281 12.542969 C 2.179688 12.515625 1.738281 12.136719 1.78125 11.496094 C 1.824219 10.855469 2.15625 10.257812 2.273438 9.914062 C 2.402344 9.53125 2.828125 9.273438 2.828125 9.273438 Z M 2.828125 9.273438 "/>
<path style=" stroke:none;fill-rule:nonzero;fill:rgb(36.470588%,67.843137%,92.54902%);fill-opacity:1;" d="M 2.542969 8.628906 C 2.523438 8.628906 2.503906 8.625 2.480469 8.617188 C 1.46875 8.308594 1.289062 7.132812 1.285156 7.082031 C 1.265625 6.96875 1.347656 6.863281 1.460938 6.847656 C 1.574219 6.832031 1.679688 6.910156 1.695312 7.023438 C 1.695312 7.035156 1.847656 7.988281 2.601562 8.21875 C 2.714844 8.253906 2.777344 8.371094 2.742188 8.480469 C 2.714844 8.570312 2.632812 8.628906 2.542969 8.628906 Z M 2.09375 9.464844 C 2.074219 9.464844 2.054688 9.460938 2.03125 9.457031 C 0.550781 8.996094 0.152344 7.328125 0.136719 7.257812 C 0.109375 7.144531 0.179688 7.03125 0.292969 7.007812 C 0.40625 6.980469 0.515625 7.050781 0.542969 7.164062 C 0.546875 7.179688 0.90625 8.671875 2.15625 9.058594 C 2.265625 9.09375 2.328125 9.207031 2.292969 9.320312 C 2.265625 9.40625 2.183594 9.464844 2.09375 9.464844 Z M 2.09375 9.464844 "/>
</g>
</svg>
