<?xml version="1.0" encoding="UTF-8"?>
<svg xmlns="http://www.w3.org/2000/svg" xmlns:xlink="http://www.w3.org/1999/xlink" width="15pt" height="15pt" viewBox="0 0 15 15" version="1.1">
<g id="surface1">
<path style=" stroke:none;fill-rule:nonzero;fill:rgb(48.627451%,32.54902%,24.313725%);fill-opacity:1;" d="M 9.554688 9.320312 C 9.652344 9.386719 9.769531 9.3125 9.824219 9.265625 C 9.984375 9.136719 10.140625 8.789062 10.078125 8.371094 C 10.015625 7.953125 10.035156 7.460938 9.835938 6.648438 C 9.8125 6.554688 9.949219 5.492188 9.832031 4.761719 C 9.800781 4.566406 9.3125 4.316406 9.085938 4.320312 C 8.863281 4.324219 8.976562 4.714844 8.972656 4.78125 C 8.921875 5.480469 9.03125 6.5625 9.054688 6.710938 C 9.167969 7.527344 9.570312 7.890625 9.460938 8.433594 C 9.40625 8.714844 9.398438 8.96875 9.5625 8.992188 C 9.5625 9.144531 9.519531 9.296875 9.554688 9.320312 Z M 5.445312 9.238281 C 5.347656 9.308594 5.230469 9.230469 5.175781 9.183594 C 5.015625 9.054688 4.859375 8.707031 4.921875 8.292969 C 4.984375 7.871094 4.964844 7.382812 5.164062 6.570312 C 5.1875 6.472656 5.050781 5.414062 5.167969 4.683594 C 5.199219 4.484375 5.6875 4.238281 5.914062 4.242188 C 6.136719 4.246094 6.023438 4.636719 6.027344 4.699219 C 6.078125 5.402344 5.96875 6.484375 5.945312 6.628906 C 5.832031 7.445312 5.429688 7.8125 5.539062 8.351562 C 5.59375 8.632812 5.601562 8.890625 5.4375 8.910156 C 5.4375 9.066406 5.480469 9.214844 5.445312 9.238281 Z M 5.445312 9.238281 "/>
<path style=" stroke:none;fill-rule:nonzero;fill:rgb(25.882353%,53.72549%,75.686275%);fill-opacity:1;" d="M 9.042969 11.140625 C 9.050781 9.863281 9.046875 8.429688 9.046875 8.429688 L 5.9375 8.429688 C 5.9375 8.429688 5.953125 9.992188 5.988281 11.121094 C 6.019531 12.015625 6.152344 13.703125 6.03125 14.601562 C 6.003906 14.800781 7.234375 14.992188 7.214844 14.546875 C 7.183594 13.726562 7.324219 11.914062 7.351562 11.503906 C 7.367188 11.277344 7.457031 10.535156 7.496094 9.980469 C 7.5 9.972656 7.617188 9.972656 7.625 9.980469 C 7.664062 10.535156 7.75 11.277344 7.765625 11.503906 C 7.792969 11.914062 7.9375 13.726562 7.902344 14.546875 C 7.886719 14.992188 9.117188 14.800781 9.089844 14.601562 C 8.964844 13.703125 9.042969 11.285156 9.042969 11.140625 Z M 9.042969 11.140625 "/>
<path style=" stroke:none;fill-rule:nonzero;fill:rgb(46.666667%,69.803922%,33.333333%);fill-opacity:1;" d="M 9.507812 3.945312 C 9.183594 3.59375 8.035156 3.34375 8.035156 3.34375 L 6.949219 3.34375 C 6.949219 3.34375 5.800781 3.59375 5.476562 3.945312 C 5.082031 4.375 4.996094 5.152344 4.996094 5.152344 L 5.78125 5.285156 C 5.78125 5.285156 5.898438 5.660156 5.898438 6.300781 C 5.898438 6.941406 5.828125 8.757812 5.828125 8.757812 L 9.171875 8.757812 C 9.171875 8.757812 9.085938 6.910156 9.085938 6.300781 C 9.085938 5.691406 9.21875 5.285156 9.21875 5.285156 L 9.988281 5.152344 C 9.988281 5.152344 9.902344 4.375 9.507812 3.945312 Z M 9.507812 3.945312 "/>
<path style=" stroke:none;fill-rule:nonzero;fill:rgb(48.627451%,32.54902%,24.313725%);fill-opacity:1;" d="M 8.058594 1.820312 L 6.941406 1.828125 L 6.941406 3.488281 C 6.941406 3.886719 8.058594 3.902344 8.058594 3.488281 Z M 8.058594 1.820312 "/>
<path style=" stroke:none;fill-rule:nonzero;fill:rgb(40%,25.490196%,19.215686%);fill-opacity:1;" d="M 8.058594 1.609375 L 6.941406 1.617188 L 6.941406 3.242188 C 6.941406 3.242188 7.425781 3.722656 8.058594 3.257812 Z M 8.058594 1.609375 "/>
<path style=" stroke:none;fill-rule:nonzero;fill:rgb(4.313725%,0.784314%,0%);fill-opacity:1;" d="M 7.667969 0.296875 C 7.410156 0.265625 7.015625 0.335938 6.820312 0.550781 C 6.550781 0.453125 6.230469 0.75 6.230469 1.15625 C 6.230469 1.621094 6.300781 2.074219 6.589844 2.253906 C 6.804688 2.558594 7.242188 2.691406 7.640625 2.691406 C 8.300781 2.691406 8.769531 2.375 8.769531 1.402344 C 8.769531 0.617188 8.355469 0.386719 7.667969 0.296875 Z M 7.667969 0.296875 "/>
<path style=" stroke:none;fill-rule:nonzero;fill:rgb(48.627451%,32.54902%,24.313725%);fill-opacity:1;" d="M 8.621094 0.953125 L 6.449219 0.953125 L 6.449219 2.097656 C 6.449219 2.652344 6.933594 3.34375 7.535156 3.34375 C 8.132812 3.34375 8.621094 2.710938 8.621094 2.128906 Z M 8.621094 0.953125 "/>
<path style=" stroke:none;fill-rule:nonzero;fill:rgb(4.313725%,0.784314%,0%);fill-opacity:1;" d="M 7.144531 0.660156 L 6.449219 0.953125 L 6.449219 1.824219 C 6.449219 1.492188 6.675781 1.472656 6.8125 1.257812 C 6.816406 1.390625 7.085938 1.519531 7.492188 1.519531 C 7.804688 1.519531 8.621094 0.980469 8.621094 1.824219 L 8.621094 0.835938 Z M 7.144531 0.660156 "/>
<path style=" stroke:none;fill-rule:nonzero;fill:rgb(0%,0%,0%);fill-opacity:1;" d="M 7.238281 1.996094 C 7.238281 2.070312 7.175781 2.136719 7.097656 2.136719 C 7.019531 2.136719 6.957031 2.070312 6.957031 1.996094 C 6.957031 1.917969 7.019531 1.851562 7.097656 1.851562 C 7.175781 1.851562 7.238281 1.917969 7.238281 1.996094 Z M 7.238281 1.996094 "/>
<path style=" stroke:none;fill-rule:nonzero;fill:rgb(0%,0%,0%);fill-opacity:1;" d="M 8.121094 1.996094 C 8.121094 2.070312 8.058594 2.136719 7.980469 2.136719 C 7.902344 2.136719 7.839844 2.070312 7.839844 1.996094 C 7.839844 1.917969 7.902344 1.851562 7.980469 1.851562 C 8.058594 1.851562 8.121094 1.917969 8.121094 1.996094 Z M 8.121094 1.996094 "/>
<path style=" stroke:none;fill-rule:nonzero;fill:rgb(23.921569%,18.039216%,14.117647%);fill-opacity:1;" d="M 7.738281 2.910156 L 7.339844 2.910156 C 7.300781 2.910156 7.265625 2.875 7.265625 2.832031 C 7.265625 2.789062 7.300781 2.753906 7.339844 2.753906 L 7.738281 2.753906 C 7.78125 2.753906 7.816406 2.789062 7.816406 2.832031 C 7.816406 2.875 7.78125 2.910156 7.738281 2.910156 Z M 7.621094 2.5625 L 7.457031 2.5625 C 7.414062 2.5625 7.375 2.523438 7.375 2.476562 C 7.375 2.433594 7.414062 2.394531 7.457031 2.394531 L 7.621094 2.394531 C 7.667969 2.394531 7.703125 2.433594 7.703125 2.476562 C 7.703125 2.523438 7.667969 2.5625 7.621094 2.5625 Z M 7.621094 2.5625 "/>
<path style=" stroke:none;fill-rule:nonzero;fill:rgb(16.078431%,18.431373%,20%);fill-opacity:1;" d="M 5.746094 14.960938 C 5.511719 14.941406 5.664062 14.675781 5.769531 14.585938 C 5.890625 14.488281 6.078125 14.402344 6.171875 14.234375 C 6.277344 14.042969 6.78125 14.066406 6.890625 14.222656 C 7.078125 14.5 7.164062 14.296875 7.21875 14.425781 C 7.308594 14.632812 7.238281 14.960938 7.238281 14.960938 Z M 9.355469 14.960938 C 9.589844 14.941406 9.4375 14.675781 9.332031 14.585938 C 9.214844 14.488281 9.023438 14.402344 8.929688 14.234375 C 8.824219 14.042969 8.320312 14.066406 8.214844 14.222656 C 8.023438 14.5 7.9375 14.296875 7.882812 14.425781 C 7.792969 14.632812 7.863281 14.960938 7.863281 14.960938 Z M 9.355469 14.960938 "/>
</g>
</svg>
