<?xml version="1.0" encoding="UTF-8"?>
<svg xmlns="http://www.w3.org/2000/svg" xmlns:xlink="http://www.w3.org/1999/xlink" width="15pt" height="15pt" viewBox="0 0 15 15" version="1.1">
<g id="surface1">
<path style=" stroke:none;fill-rule:nonzero;fill:rgb(25.882353%,53.72549%,75.686275%);fill-opacity:1;" d="M 14.585938 15 L 14.585938 14.167969 C 14.585938 12.785156 13.464844 11.667969 12.085938 11.667969 L 5.417969 11.667969 C 4.035156 11.667969 2.917969 12.785156 2.917969 14.167969 L 2.917969 15 Z M 14.585938 15 "/>
<path style=" stroke:none;fill-rule:nonzero;fill:rgb(95.294118%,82.352941%,63.529412%);fill-opacity:1;" d="M 6.933594 11.707031 C 6.933594 12.015625 7.753906 12.527344 8.75 12.527344 C 9.75 12.527344 10.566406 12.042969 10.566406 11.707031 L 10.566406 10.121094 L 6.933594 10.121094 Z M 6.933594 11.707031 "/>
<path style=" stroke:none;fill-rule:nonzero;fill:rgb(88.627451%,75.686275%,58.823529%);fill-opacity:1;" d="M 6.929688 10.820312 C 7.4375 11.394531 8.066406 11.550781 8.75 11.550781 C 9.433594 11.550781 10.058594 11.394531 10.566406 10.820312 L 10.566406 9.367188 L 6.929688 9.367188 Z M 6.929688 10.820312 "/>
<path style=" stroke:none;fill-rule:nonzero;fill:rgb(95.294118%,82.352941%,63.529412%);fill-opacity:1;" d="M 6.019531 6.640625 C 6.019531 7.242188 5.714844 7.734375 5.335938 7.734375 C 4.960938 7.734375 4.652344 7.242188 4.652344 6.640625 C 4.652344 6.035156 4.960938 5.546875 5.335938 5.546875 C 5.714844 5.546875 6.019531 6.035156 6.019531 6.640625 M 12.847656 6.640625 C 12.847656 7.242188 12.542969 7.734375 12.164062 7.734375 C 11.789062 7.734375 11.480469 7.242188 11.480469 6.640625 C 11.480469 6.035156 11.789062 5.546875 12.164062 5.546875 C 12.542969 5.546875 12.847656 6.035156 12.847656 6.640625 "/>
<path style=" stroke:none;fill-rule:nonzero;fill:rgb(95.294118%,82.352941%,63.529412%);fill-opacity:1;" d="M 5.199219 7.066406 C 5.199219 4.738281 6.789062 2.847656 8.75 2.847656 C 10.710938 2.847656 12.300781 4.738281 12.300781 7.066406 C 12.300781 9.394531 10.710938 11.285156 8.75 11.285156 C 6.789062 11.285156 5.199219 9.394531 5.199219 7.066406 "/>
<path style=" stroke:none;fill-rule:nonzero;fill:rgb(75.686275%,41.176471%,30.980392%);fill-opacity:1;" d="M 8.75 9.917969 C 7.601562 9.917969 7.25 9.625 7.191406 9.5625 C 7.085938 9.457031 7.085938 9.285156 7.191406 9.179688 C 7.296875 9.074219 7.460938 9.070312 7.566406 9.167969 C 7.589844 9.183594 7.867188 9.371094 8.75 9.371094 C 9.667969 9.371094 9.933594 9.167969 9.933594 9.167969 C 10.042969 9.0625 10.207031 9.066406 10.316406 9.171875 C 10.421875 9.28125 10.417969 9.457031 10.308594 9.5625 C 10.25 9.625 9.898438 9.917969 8.75 9.917969 "/>
<path style=" stroke:none;fill-rule:nonzero;fill:rgb(100%,89.803922%,11.764706%);fill-opacity:1;" d="M 8.75 1.449219 C 11.101562 1.449219 12.574219 3.1875 12.574219 4.632812 C 12.574219 6.082031 12.28125 6.660156 11.984375 6.082031 L 11.398438 4.921875 C 11.398438 4.921875 9.632812 4.921875 9.042969 4.34375 C 9.042969 4.34375 9.925781 6.082031 8.160156 4.34375 C 8.160156 4.34375 8.457031 5.503906 6.691406 4.054688 C 6.691406 4.054688 5.808594 4.632812 5.515625 6.082031 C 5.433594 6.484375 4.925781 6.082031 4.925781 4.632812 C 4.925781 3.1875 6.101562 1.449219 8.75 1.449219 "/>
<path style=" stroke:none;fill-rule:nonzero;fill:rgb(40%,12.941176%,7.45098%);fill-opacity:1;" d="M 7.085938 7.082031 C 6.855469 7.082031 6.667969 6.894531 6.667969 6.667969 L 6.667969 6.25 C 6.667969 6.019531 6.855469 5.832031 7.085938 5.832031 C 7.3125 5.832031 7.5 6.019531 7.5 6.25 L 7.5 6.667969 C 7.5 6.894531 7.3125 7.082031 7.085938 7.082031 M 10.417969 7.082031 C 10.1875 7.082031 10 6.894531 10 6.667969 L 10 6.25 C 10 6.019531 10.1875 5.832031 10.417969 5.832031 C 10.648438 5.832031 10.835938 6.019531 10.835938 6.25 L 10.835938 6.667969 C 10.835938 6.894531 10.648438 7.082031 10.417969 7.082031 "/>
<path style=" stroke:none;fill-rule:nonzero;fill:rgb(75.686275%,41.176471%,30.980392%);fill-opacity:1;" d="M 9.0625 8.230469 L 8.4375 8.230469 C 8.265625 8.230469 8.125 8.089844 8.125 7.917969 C 8.125 7.746094 8.265625 7.605469 8.4375 7.605469 L 9.0625 7.605469 C 9.234375 7.605469 9.375 7.746094 9.375 7.917969 C 9.375 8.089844 9.234375 8.230469 9.0625 8.230469 "/>
<path style=" stroke:none;fill-rule:nonzero;fill:rgb(16.470588%,40.392157%,59.215686%);fill-opacity:1;" d="M 3.335938 11.898438 L 3.335938 15 L 3.75 15 L 3.878906 11.898438 Z M 3.335938 11.898438 "/>
<path style=" stroke:none;fill-rule:nonzero;fill:rgb(25.882353%,53.72549%,75.686275%);fill-opacity:1;" d="M 1.804688 11.6875 L 1.25 15 L 3.335938 15 L 3.632812 11.839844 Z M 1.804688 11.6875 "/>
<path style=" stroke:none;fill-rule:nonzero;fill:rgb(95.294118%,82.352941%,63.529412%);fill-opacity:1;" d="M 2.828125 9.273438 C 3.214844 8.890625 4.3125 8.039062 4.585938 7.757812 C 4.859375 7.480469 5.222656 7.800781 5.03125 8.140625 C 4.835938 8.484375 3.726562 9.746094 3.726562 9.746094 C 3.726562 9.746094 4.390625 9.9375 4.539062 10.109375 C 4.6875 10.277344 4.964844 11.390625 4.710938 11.5625 C 4.453125 11.730469 4.066406 11.605469 4.066406 11.605469 C 4.066406 11.605469 3.664062 12.609375 2.613281 12.542969 C 2.179688 12.515625 1.738281 12.136719 1.78125 11.496094 C 1.824219 10.855469 2.15625 10.257812 2.273438 9.914062 C 2.402344 9.53125 2.828125 9.273438 2.828125 9.273438 Z M 2.828125 9.273438 "/>
<path style=" stroke:none;fill-rule:nonzero;fill:rgb(36.470588%,67.843137%,92.54902%);fill-opacity:1;" d="M 2.542969 8.628906 C 2.523438 8.628906 2.503906 8.625 2.480469 8.617188 C 1.46875 8.308594 1.289062 7.132812 1.285156 7.082031 C 1.265625 6.96875 1.347656 6.863281 1.460938 6.847656 C 1.574219 6.832031 1.679688 6.910156 1.695312 7.023438 C 1.695312 7.035156 1.847656 7.988281 2.601562 8.21875 C 2.714844 8.253906 2.777344 8.371094 2.742188 8.480469 C 2.714844 8.570312 2.632812 8.628906 2.542969 8.628906 Z M 2.09375 9.464844 C 2.074219 9.464844 2.054688 9.460938 2.03125 9.457031 C 0.550781 8.996094 0.152344 7.328125 0.136719 7.257812 C 0.109375 7.144531 0.179688 7.03125 0.292969 7.007812 C 0.40625 6.980469 0.515625 7.050781 0.542969 7.164062 C 0.546875 7.179688 0.90625 8.671875 2.15625 9.058594 C 2.265625 9.09375 2.328125 9.207031 2.292969 9.316406 C 2.265625 9.40625 2.183594 9.464844 2.09375 9.464844 Z M 2.09375 9.464844 "/>
</g>
</svg>
