<?xml version="1.0" encoding="UTF-8"?>
<svg xmlns="http://www.w3.org/2000/svg" xmlns:xlink="http://www.w3.org/1999/xlink" width="15pt" height="15pt" viewBox="0 0 15 15" version="1.1">
<g id="surface1">
<path style=" stroke:none;fill-rule:nonzero;fill:rgb(73.333333%,86.666667%,96.078431%);fill-opacity:1;" d="M 2.082031 9.113281 C 2.082031 9.113281 2.746094 11.5 2.917969 12.648438 C 3.109375 13.945312 4.40625 14.96875 7.5 14.96875 C 10.59375 14.96875 11.890625 13.945312 12.082031 12.648438 C 12.253906 11.5 12.917969 9.113281 12.917969 9.113281 Z M 2.082031 9.113281 "/>
<path style=" stroke:none;fill-rule:nonzero;fill:rgb(40%,12.941176%,7.45098%);fill-opacity:1;" d="M 2.121094 9.152344 C 2.226562 9.660156 2.410156 9.984375 2.683594 9.816406 C 2.953125 9.652344 3.371094 9.738281 3.242188 10.078125 C 3.125 10.390625 3.644531 10.535156 3.867188 10.351562 C 4.078125 10.175781 4.515625 9.984375 4.558594 10.378906 C 4.597656 10.742188 5.042969 10.839844 5.246094 10.574219 C 5.457031 10.300781 6.027344 10.410156 6.132812 10.742188 C 6.238281 11.074219 6.796875 11.027344 6.953125 10.792969 C 7.101562 10.570312 7.25 10.425781 7.5 10.425781 L 7.5 10.417969 C 7.75 10.417969 7.898438 10.570312 8.046875 10.792969 C 8.203125 11.027344 8.761719 11.074219 8.867188 10.742188 C 8.972656 10.410156 9.542969 10.300781 9.753906 10.574219 C 9.957031 10.839844 10.402344 10.742188 10.441406 10.378906 C 10.484375 9.984375 10.921875 10.175781 11.132812 10.351562 C 11.355469 10.535156 11.875 10.390625 11.757812 10.078125 C 11.628906 9.738281 12.046875 9.652344 12.316406 9.816406 C 12.589844 9.984375 12.773438 9.660156 12.878906 9.152344 Z M 2.121094 9.152344 "/>
<path style=" stroke:none;fill-rule:nonzero;fill:rgb(75.686275%,41.176471%,30.980392%);fill-opacity:1;" d="M 13.75 7.902344 C 13.75 5.855469 10.945312 4.191406 7.484375 4.191406 C 4.027344 4.191406 1.222656 5.855469 1.222656 7.902344 C 1.222656 9.558594 4.972656 10.417969 7.484375 10.417969 C 10 10.417969 13.75 9.582031 13.75 7.902344 Z M 13.75 7.902344 "/>
<path style=" stroke:none;fill-rule:nonzero;fill:rgb(53.333333%,78.823529%,97.647059%);fill-opacity:1;" d="M 7.5 14.792969 C 7.386719 14.792969 7.292969 14.699219 7.292969 14.582031 L 7.292969 10.980469 C 7.292969 10.867188 7.386719 10.773438 7.5 10.773438 C 7.613281 10.773438 7.707031 10.867188 7.707031 10.980469 L 7.707031 14.582031 C 7.707031 14.699219 7.613281 14.792969 7.5 14.792969 Z M 4.707031 14.261719 C 4.605469 14.261719 4.515625 14.1875 4.503906 14.082031 L 4.074219 10.753906 C 4.058594 10.640625 4.136719 10.535156 4.253906 10.523438 C 4.367188 10.503906 4.472656 10.589844 4.484375 10.703125 L 4.914062 14.027344 C 4.929688 14.140625 4.847656 14.246094 4.734375 14.261719 C 4.726562 14.261719 4.71875 14.261719 4.707031 14.261719 Z M 6.035156 14.671875 C 5.925781 14.671875 5.835938 14.589844 5.824219 14.480469 L 5.53125 10.929688 C 5.519531 10.8125 5.605469 10.714844 5.722656 10.703125 C 5.839844 10.695312 5.9375 10.78125 5.945312 10.894531 L 6.242188 14.445312 C 6.25 14.558594 6.164062 14.660156 6.050781 14.667969 Z M 3.550781 13.402344 C 3.476562 13.402344 3.414062 13.351562 3.398438 13.277344 L 2.773438 10.179688 C 2.753906 10.09375 2.808594 10.011719 2.894531 9.996094 C 2.976562 9.972656 3.0625 10.03125 3.078125 10.117188 L 3.703125 13.214844 C 3.722656 13.300781 3.667969 13.382812 3.582031 13.398438 C 3.570312 13.402344 3.558594 13.402344 3.550781 13.402344 Z M 10.257812 14.214844 C 10.25 14.214844 10.238281 14.214844 10.230469 14.214844 C 10.113281 14.199219 10.035156 14.09375 10.050781 13.976562 L 10.523438 10.699219 C 10.539062 10.585938 10.644531 10.507812 10.757812 10.523438 C 10.871094 10.539062 10.953125 10.644531 10.933594 10.757812 L 10.464844 14.039062 C 10.449219 14.140625 10.359375 14.214844 10.257812 14.214844 Z M 8.992188 14.671875 L 8.972656 14.667969 C 8.859375 14.660156 8.773438 14.558594 8.785156 14.445312 L 9.078125 10.894531 C 9.085938 10.777344 9.199219 10.695312 9.304688 10.703125 C 9.417969 10.714844 9.503906 10.8125 9.492188 10.929688 L 9.199219 14.480469 C 9.191406 14.589844 9.097656 14.671875 8.992188 14.671875 Z M 11.484375 13.421875 C 11.472656 13.421875 11.464844 13.417969 11.453125 13.417969 C 11.371094 13.402344 11.316406 13.320312 11.332031 13.234375 L 11.929688 10.117188 C 11.945312 10.035156 12.03125 9.976562 12.113281 9.996094 C 12.199219 10.011719 12.253906 10.09375 12.238281 10.175781 L 11.636719 13.292969 C 11.625 13.367188 11.558594 13.421875 11.484375 13.421875 Z M 11.484375 13.421875 "/>
<path style=" stroke:none;fill-rule:nonzero;fill:rgb(100%,90.980392%,71.372549%);fill-opacity:1;" d="M 7.046875 -0.00390625 C 7.046875 -0.00390625 7.5 0.472656 7.953125 0.480469 C 8.898438 0.503906 9.765625 1.03125 9.765625 1.941406 C 9.765625 1.941406 11.960938 1.941406 12.035156 3.890625 C 12.035156 3.890625 13.140625 3.910156 13.394531 5.835938 C 13.585938 7.277344 12.128906 9.265625 7.5 9.246094 C 3.417969 9.226562 1.332031 7.777344 1.605469 5.835938 C 1.871094 3.972656 3.417969 3.890625 3.417969 3.890625 C 3.417969 3.890625 3.152344 1.457031 6.140625 1.457031 C 6.140625 1.457031 6.441406 0.484375 7.046875 -0.00390625 Z M 7.046875 -0.00390625 "/>
<path style=" stroke:none;fill-rule:nonzero;fill:rgb(100%,80%,30.196078%);fill-opacity:1;" d="M 7.460938 4.375 C 8.6875 3.914062 9.804688 3.078125 9.769531 1.941406 C 9.769531 1.585938 9.632812 1.289062 9.414062 1.058594 C 9.679688 2.226562 7.890625 3.558594 5.914062 3.769531 C 3.4375 4.03125 3.722656 2.570312 3.722656 2.570312 L 3.71875 2.574219 C 3.351562 3.214844 3.417969 3.890625 3.417969 3.890625 C 3.796875 4.882812 5.742188 5.027344 7.460938 4.375 Z M 7.460938 4.375 "/>
<path style=" stroke:none;fill-rule:nonzero;fill:rgb(100%,80%,30.196078%);fill-opacity:1;" d="M 12.035156 3.890625 C 12.03125 3.832031 12.023438 3.777344 12.015625 3.722656 C 11.96875 3.441406 11.828125 3.09375 11.695312 2.832031 C 11.613281 2.722656 11.527344 2.625 11.433594 2.539062 C 11.894531 4.382812 9.113281 6.601562 6.460938 7.117188 C 3.003906 7.785156 1.605469 5.839844 1.605469 5.839844 C 1.460938 6.84375 1.960938 7.71875 3.042969 8.328125 C 7.304688 10.066406 12.074219 5.789062 12.035156 3.890625 Z M 12.035156 3.890625 "/>
<path style=" stroke:none;fill-rule:nonzero;fill:rgb(86.666667%,18.039216%,26.666667%);fill-opacity:1;" d="M 3.621094 5.917969 L 3.128906 6.589844 C 2.992188 6.773438 2.730469 6.816406 2.546875 6.679688 C 2.359375 6.542969 2.320312 6.28125 2.457031 6.097656 L 2.949219 5.425781 C 3.082031 5.238281 3.34375 5.199219 3.53125 5.335938 C 3.714844 5.46875 3.753906 5.730469 3.621094 5.917969 Z M 3.621094 5.917969 "/>
<path style=" stroke:none;fill-rule:nonzero;fill:rgb(33.333333%,67.45098%,93.333333%);fill-opacity:1;" d="M 6.222656 3.410156 L 5.40625 3.238281 C 5.183594 3.1875 5.039062 2.964844 5.089844 2.742188 C 5.136719 2.519531 5.359375 2.375 5.582031 2.421875 L 6.398438 2.597656 C 6.621094 2.644531 6.765625 2.867188 6.71875 3.089844 C 6.667969 3.316406 6.445312 3.460938 6.222656 3.410156 Z M 6.222656 3.410156 "/>
<path style=" stroke:none;fill-rule:nonzero;fill:rgb(46.666667%,69.803922%,33.333333%);fill-opacity:1;" d="M 6.847656 5.90625 L 7.394531 6.535156 C 7.542969 6.707031 7.527344 6.972656 7.351562 7.121094 C 7.179688 7.273438 6.914062 7.253906 6.765625 7.082031 L 6.21875 6.453125 C 6.066406 6.28125 6.085938 6.015625 6.257812 5.863281 C 6.429688 5.714844 6.695312 5.734375 6.847656 5.90625 Z M 6.847656 5.90625 "/>
<path style=" stroke:none;fill-rule:nonzero;fill:rgb(95.686275%,56.470588%,4.705882%);fill-opacity:1;" d="M 10.15625 4.792969 L 9.375 5.085938 C 9.160156 5.167969 8.917969 5.058594 8.839844 4.84375 C 8.757812 4.628906 8.867188 4.386719 9.082031 4.304688 L 9.859375 4.011719 C 10.074219 3.929688 10.316406 4.039062 10.398438 4.253906 C 10.480469 4.46875 10.371094 4.710938 10.15625 4.792969 Z M 10.15625 4.792969 "/>
<path style=" stroke:none;fill-rule:nonzero;fill:rgb(66.666667%,55.294118%,84.705882%);fill-opacity:1;" d="M 12.652344 5.855469 L 12.234375 6.578125 C 12.121094 6.773438 11.863281 6.84375 11.667969 6.730469 C 11.46875 6.613281 11.398438 6.359375 11.515625 6.160156 L 11.929688 5.4375 C 12.046875 5.238281 12.300781 5.171875 12.5 5.285156 C 12.699219 5.398438 12.765625 5.65625 12.652344 5.855469 Z M 12.652344 5.855469 "/>
</g>
</svg>
