<?xml version="1.0" encoding="UTF-8"?>
<svg xmlns="http://www.w3.org/2000/svg" xmlns:xlink="http://www.w3.org/1999/xlink" width="15pt" height="15pt" viewBox="0 0 15 15" version="1.1">
<g id="surface1">
<path style=" stroke:none;fill-rule:nonzero;fill:rgb(68.627451%,49.411765%,34.117647%);fill-opacity:1;" d="M 8.710938 0.460938 C 7.800781 0.101562 6.4375 0.574219 6.21875 1.625 C 5.917969 3.09375 6.753906 4.339844 7.683594 4.238281 C 8.65625 4.132812 9.25 3.917969 9.644531 2.917969 C 10.039062 1.917969 9.621094 0.816406 8.710938 0.460938 Z M 8.710938 0.460938 "/>
<path style=" stroke:none;fill-rule:nonzero;fill:rgb(68.627451%,49.411765%,34.117647%);fill-opacity:1;" d="M 9.386719 3.175781 C 10.707031 1.621094 7.523438 1.773438 7.523438 1.773438 C 6.917969 1.796875 7.332031 2.800781 7.050781 3.347656 C 6.855469 3.730469 7.675781 3.929688 7.675781 3.929688 C 7.675781 3.929688 8.050781 3.925781 8.070312 4.382812 L 8.070312 4.386719 C 8.074219 4.5 8.0625 4.640625 8.007812 4.824219 C 7.738281 5.738281 8.964844 6.296875 9.234375 5.382812 C 9.34375 5.019531 9.300781 4.703125 9.246094 4.40625 L 9.242188 4.382812 C 9.160156 3.945312 9.058594 3.5625 9.386719 3.175781 Z M 9.386719 3.175781 "/>
<path style=" stroke:none;fill-rule:nonzero;fill:rgb(37.647059%,20.784314%,16.470588%);fill-opacity:1;" d="M 9.855469 0.773438 C 9.40625 0.167969 7.902344 -0.367188 6.945312 0.398438 C 6.285156 0.285156 6.03125 0.914062 6.085938 1.277344 C 6.132812 1.566406 6.839844 1.640625 7.019531 2.1875 C 7.144531 2.050781 7.175781 1.769531 7.148438 1.617188 C 7.375 1.835938 7.277344 2.410156 8.167969 2.78125 C 9.027344 3.144531 8.875 3.902344 8.875 3.902344 C 8.875 3.902344 9.328125 3.6875 9.644531 3.324219 C 10.246094 2.628906 10.347656 1.445312 9.855469 0.773438 Z M 9.855469 0.773438 "/>
<path style=" stroke:none;fill-rule:nonzero;fill:rgb(16.078431%,18.431373%,20%);fill-opacity:1;" d="M 8.609375 13.425781 C 8.21875 13.511719 8.027344 13.777344 7.976562 14.019531 C 7.925781 14.265625 8.152344 14.699219 8.378906 14.789062 C 8.605469 14.875 10.609375 15.015625 10.933594 14.753906 C 11.417969 14.367188 8.929688 13.359375 8.609375 13.425781 Z M 8.609375 13.425781 "/>
<path style=" stroke:none;fill-rule:nonzero;fill:rgb(22.745098%,26.666667%,28.627451%);fill-opacity:1;" d="M 8.71875 13.261719 C 8.5 13.363281 8.472656 13.890625 8.738281 14.214844 C 9.039062 14.582031 9.789062 14.738281 10.175781 14.84375 C 10.566406 14.949219 11.195312 14.84375 11.195312 14.292969 C 11.199219 13.828125 10.589844 13.695312 10.300781 13.683594 C 10.011719 13.671875 9.675781 13.667969 9.523438 13.492188 C 9.371094 13.316406 8.945312 13.160156 8.71875 13.261719 Z M 8.71875 13.261719 "/>
<path style=" stroke:none;fill-rule:nonzero;fill:rgb(25.882353%,53.72549%,75.686275%);fill-opacity:1;" d="M 10.730469 10.875 C 11.003906 11.773438 10.949219 12.789062 10.289062 13.148438 C 9.65625 13.488281 8.324219 13.539062 8.324219 13.539062 C 8.324219 13.539062 7.949219 13.910156 8.179688 14.378906 C 8.3125 14.644531 8.449219 14.765625 8.421875 14.800781 C 8.394531 14.832031 8.109375 14.863281 7.984375 14.890625 C 7.644531 14.957031 7.25 14.929688 6.589844 14.914062 C 5.929688 14.898438 5.644531 14.960938 4.925781 14.945312 C 4.128906 14.929688 3.53125 14.734375 3.132812 14.078125 C 2.792969 13.519531 2.96875 12.6875 3.761719 12.148438 C 4.40625 11.707031 6.457031 11.230469 7.234375 11.113281 C 8.015625 10.992188 10.492188 10.09375 10.730469 10.875 Z M 10.730469 10.875 "/>
<path style=" stroke:none;fill-rule:nonzero;fill:rgb(98.039216%,45.490196%,24.313725%);fill-opacity:1;" d="M 10.882812 11.59375 C 9.8125 11.21875 7.054688 11.183594 7.054688 11.183594 C 7.160156 10.324219 7.144531 8.816406 7.054688 7.28125 C 6.957031 5.652344 8.621094 4.152344 9.175781 4.28125 C 10.246094 4.53125 10.984375 5.691406 10.847656 7.410156 C 10.652344 9.878906 11.152344 11.6875 10.882812 11.59375 Z M 10.882812 11.59375 "/>
<path style=" stroke:none;fill-rule:nonzero;fill:rgb(68.627451%,49.411765%,34.117647%);fill-opacity:1;" d="M 8.25 6.773438 C 8.066406 7.742188 8 9.441406 7.847656 9.511719 C 6.976562 9.921875 6.210938 10.707031 5.640625 10.90625 C 5.222656 11.050781 4.808594 11.136719 4.628906 11.292969 C 4.34375 11.546875 4.003906 11.761719 3.976562 12.015625 C 3.945312 12.277344 4.246094 12.367188 4.765625 12.152344 C 5.148438 11.988281 5.449219 12.011719 5.789062 11.765625 C 6.277344 11.410156 8.222656 11.179688 8.957031 10.09375 C 9.203125 9.726562 9.46875 8.867188 9.820312 7.074219 C 9.363281 6.886719 8.25 6.773438 8.25 6.773438 Z M 8.25 6.773438 "/>
<path style=" stroke:none;fill-rule:nonzero;fill:rgb(16.470588%,40.392157%,59.215686%);fill-opacity:1;" d="M 4.761719 13.519531 C 5.0625 13.546875 7.507812 13.589844 8.152344 13.554688 C 8.152344 13.554688 8.152344 13.792969 7.527344 13.824219 C 6.898438 13.859375 5.644531 13.65625 4.828125 13.722656 C 4.605469 13.742188 4.210938 13.773438 4.167969 13.707031 C 4.121094 13.628906 4.554688 13.5 4.761719 13.519531 Z M 4.761719 13.519531 "/>
</g>
</svg>
