<?xml version="1.0" encoding="UTF-8"?>
<svg xmlns="http://www.w3.org/2000/svg" xmlns:xlink="http://www.w3.org/1999/xlink" width="15pt" height="15pt" viewBox="0 0 15 15" version="1.1">
<defs>
<filter id="alpha" filterUnits="objectBoundingBox" x="0%" y="0%" width="100%" height="100%">
  <feColorMatrix type="matrix" in="SourceGraphic" values="0 0 0 0 1 0 0 0 0 1 0 0 0 0 1 0 0 0 1 0"/>
</filter>
<mask id="mask0">
  <g filter="url(#alpha)">
<rect x="0" y="0" width="15" height="15" style="fill:rgb(0%,0%,0%);fill-opacity:0.501961;stroke:none;"/>
  </g>
</mask>
<clipPath id="clip1">
  <rect x="0" y="0" width="15" height="15"/>
</clipPath>
<g id="surface5" clip-path="url(#clip1)">
<path style=" stroke:none;fill-rule:nonzero;fill:rgb(82.745098%,47.45098%,5.098039%);fill-opacity:1;" d="M 10.277344 11.058594 C 10.277344 11.25 10.300781 11.253906 10.300781 11.636719 C 10.300781 12.382812 11.214844 12.25 11.214844 11.011719 C 11.214844 10.867188 11.230469 10.585938 11.230469 10.585938 Z M 10.277344 11.058594 "/>
</g>
</defs>
<g id="surface1">
<path style=" stroke:none;fill-rule:nonzero;fill:rgb(57.647059%,58.431373%,59.607843%);fill-opacity:1;" d="M 15 10.832031 C 15 8.53125 11.640625 6.667969 7.5 6.667969 C 3.359375 6.667969 0 8.53125 0 10.832031 C 0 13.132812 3.359375 15 7.5 15 C 11.640625 15 15 13.132812 15 10.832031 Z M 15 10.832031 "/>
<path style=" stroke:none;fill-rule:nonzero;fill:rgb(80%,83.921569%,86.666667%);fill-opacity:1;" d="M 15 10 C 15 7.699219 11.640625 5.832031 7.5 5.832031 C 3.359375 5.832031 0 7.699219 0 10 C 0 12.300781 3.359375 14.167969 7.5 14.167969 C 11.640625 14.167969 15 12.300781 15 10 Z M 15 10 "/>
<path style=" stroke:none;fill-rule:nonzero;fill:rgb(95.686275%,56.470588%,4.705882%);fill-opacity:1;" d="M 6.546875 13.558594 L 1.074219 10.355469 C 0.546875 10.050781 0.6875 8.875 0.6875 8.363281 L 6.546875 5.589844 C 7.074219 5.28125 7.925781 5.28125 8.453125 5.589844 L 14.320312 8.441406 C 14.320312 9.144531 14.453125 10.050781 13.925781 10.355469 L 8.453125 13.558594 C 7.925781 13.867188 7.074219 13.867188 6.546875 13.558594 Z M 6.546875 13.558594 "/>
<path style=" stroke:none;fill-rule:nonzero;fill:rgb(100%,67.45098%,20%);fill-opacity:1;" d="M 6.546875 12.199219 L 1.074219 9 C 0.546875 8.691406 0.546875 8.191406 1.074219 7.886719 L 6.546875 4.683594 C 7.074219 4.375 7.925781 4.375 8.453125 4.683594 L 13.925781 7.886719 C 14.453125 8.191406 14.453125 8.691406 13.925781 9 L 8.453125 12.199219 C 7.925781 12.507812 7.074219 12.507812 6.546875 12.199219 Z M 6.546875 12.199219 "/>
<path style=" stroke:none;fill-rule:nonzero;fill:rgb(95.686275%,56.470588%,4.705882%);fill-opacity:1;" d="M 7.277344 6.007812 L 6.605469 5.613281 C 6.480469 5.542969 6.480469 5.425781 6.605469 5.351562 L 7.277344 4.960938 C 7.398438 4.886719 7.601562 4.886719 7.722656 4.960938 L 8.394531 5.351562 C 8.519531 5.425781 8.519531 5.542969 8.394531 5.613281 L 7.722656 6.007812 C 7.601562 6.078125 7.398438 6.078125 7.277344 6.007812 Z M 8.839844 6.921875 L 8.171875 6.53125 C 8.046875 6.457031 8.046875 6.339844 8.171875 6.269531 L 8.839844 5.875 C 8.964844 5.804688 9.164062 5.804688 9.289062 5.875 L 9.960938 6.269531 C 10.082031 6.339844 10.082031 6.457031 9.960938 6.53125 L 9.289062 6.921875 C 9.164062 6.996094 8.964844 6.996094 8.839844 6.921875 Z M 10.40625 7.835938 L 9.734375 7.445312 C 9.613281 7.371094 9.613281 7.253906 9.734375 7.183594 L 10.40625 6.789062 C 10.53125 6.71875 10.730469 6.71875 10.855469 6.789062 L 11.527344 7.183594 C 11.648438 7.253906 11.648438 7.371094 11.527344 7.445312 L 10.855469 7.835938 C 10.730469 7.910156 10.53125 7.910156 10.40625 7.835938 Z M 11.972656 8.753906 L 11.300781 8.359375 C 11.179688 8.289062 11.179688 8.171875 11.300781 8.097656 L 11.972656 7.707031 C 12.097656 7.632812 12.296875 7.632812 12.421875 7.707031 L 13.089844 8.097656 C 13.214844 8.171875 13.214844 8.289062 13.089844 8.359375 L 12.421875 8.753906 C 12.296875 8.824219 12.097656 8.824219 11.972656 8.753906 Z M 5.710938 6.921875 L 5.039062 6.53125 C 4.917969 6.457031 4.917969 6.339844 5.039062 6.269531 L 5.710938 5.875 C 5.832031 5.804688 6.035156 5.804688 6.15625 5.875 L 6.828125 6.269531 C 6.953125 6.339844 6.953125 6.457031 6.828125 6.53125 L 6.15625 6.921875 C 6.035156 6.996094 5.835938 6.996094 5.710938 6.921875 Z M 7.277344 7.835938 L 6.605469 7.445312 C 6.480469 7.371094 6.480469 7.253906 6.605469 7.183594 L 7.277344 6.789062 C 7.398438 6.71875 7.601562 6.71875 7.722656 6.789062 L 8.394531 7.183594 C 8.519531 7.253906 8.519531 7.371094 8.394531 7.445312 L 7.722656 7.835938 C 7.601562 7.910156 7.398438 7.910156 7.277344 7.835938 Z M 8.839844 8.753906 L 8.171875 8.359375 C 8.046875 8.289062 8.046875 8.171875 8.171875 8.097656 L 8.839844 7.707031 C 8.964844 7.632812 9.164062 7.632812 9.289062 7.707031 L 9.960938 8.097656 C 10.082031 8.171875 10.082031 8.289062 9.960938 8.359375 L 9.289062 8.753906 C 9.164062 8.824219 8.964844 8.824219 8.839844 8.753906 Z M 10.40625 9.667969 L 9.734375 9.277344 C 9.613281 9.203125 9.613281 9.085938 9.734375 9.015625 L 10.40625 8.621094 C 10.53125 8.550781 10.730469 8.550781 10.855469 8.621094 L 11.527344 9.015625 C 11.648438 9.085938 11.648438 9.203125 11.527344 9.277344 L 10.855469 9.667969 C 10.730469 9.742188 10.53125 9.742188 10.40625 9.667969 Z M 4.144531 7.835938 L 3.472656 7.445312 C 3.351562 7.371094 3.351562 7.253906 3.472656 7.183594 L 4.144531 6.789062 C 4.269531 6.71875 4.46875 6.71875 4.59375 6.789062 L 5.261719 7.183594 C 5.386719 7.253906 5.386719 7.371094 5.261719 7.445312 L 4.59375 7.835938 C 4.46875 7.910156 4.269531 7.910156 4.144531 7.835938 Z M 5.710938 8.753906 L 5.039062 8.359375 C 4.917969 8.289062 4.917969 8.171875 5.039062 8.097656 L 5.710938 7.707031 C 5.832031 7.632812 6.035156 7.632812 6.15625 7.707031 L 6.828125 8.097656 C 6.953125 8.171875 6.953125 8.289062 6.828125 8.359375 L 6.15625 8.753906 C 6.035156 8.824219 5.835938 8.824219 5.710938 8.753906 Z M 7.277344 9.667969 L 6.605469 9.277344 C 6.480469 9.203125 6.480469 9.085938 6.605469 9.015625 L 7.277344 8.621094 C 7.398438 8.550781 7.601562 8.550781 7.722656 8.621094 L 8.394531 9.015625 C 8.519531 9.085938 8.519531 9.203125 8.394531 9.277344 L 7.722656 9.667969 C 7.601562 9.742188 7.398438 9.742188 7.277344 9.667969 Z M 8.839844 10.585938 L 8.171875 10.191406 C 8.046875 10.121094 8.046875 10.003906 8.171875 9.929688 L 8.839844 9.539062 C 8.964844 9.464844 9.164062 9.464844 9.289062 9.539062 L 9.960938 9.929688 C 10.082031 10.003906 10.082031 10.121094 9.960938 10.191406 L 9.289062 10.585938 C 9.164062 10.65625 8.964844 10.65625 8.839844 10.585938 Z M 2.578125 8.753906 L 1.910156 8.359375 C 1.785156 8.289062 1.785156 8.171875 1.910156 8.097656 L 2.578125 7.707031 C 2.703125 7.632812 2.902344 7.632812 3.027344 7.707031 L 3.699219 8.097656 C 3.820312 8.171875 3.820312 8.289062 3.699219 8.359375 L 3.027344 8.753906 C 2.902344 8.824219 2.703125 8.824219 2.578125 8.753906 Z M 4.144531 9.667969 L 3.472656 9.277344 C 3.351562 9.203125 3.351562 9.085938 3.472656 9.015625 L 4.144531 8.621094 C 4.269531 8.550781 4.46875 8.550781 4.59375 8.621094 L 5.261719 9.015625 C 5.386719 9.085938 5.386719 9.203125 5.261719 9.277344 L 4.59375 9.667969 C 4.46875 9.742188 4.269531 9.742188 4.144531 9.667969 Z M 5.710938 10.585938 L 5.039062 10.191406 C 4.917969 10.121094 4.917969 10.003906 5.039062 9.929688 L 5.710938 9.539062 C 5.832031 9.464844 6.035156 9.464844 6.15625 9.539062 L 6.828125 9.929688 C 6.953125 10.003906 6.953125 10.121094 6.828125 10.191406 L 6.15625 10.585938 C 6.035156 10.65625 5.835938 10.65625 5.710938 10.585938 Z M 7.277344 11.5 L 6.605469 11.105469 C 6.480469 11.035156 6.480469 10.917969 6.605469 10.84375 L 7.277344 10.453125 C 7.398438 10.378906 7.601562 10.378906 7.722656 10.453125 L 8.394531 10.84375 C 8.519531 10.917969 8.519531 11.035156 8.394531 11.105469 L 7.722656 11.5 C 7.601562 11.570312 7.398438 11.570312 7.277344 11.5 Z M 7.277344 11.5 "/>
<path style=" stroke:none;fill-rule:nonzero;fill:rgb(82.745098%,47.45098%,5.098039%);fill-opacity:1;" d="M 6.550781 6.8125 C 5.128906 6.382812 4.53125 6.597656 4.625 7.714844 C 4.648438 8.003906 4.253906 8.484375 3.855469 8.761719 C 2.933594 9.40625 3.328125 10.480469 4.914062 9.6875 C 5.707031 9.292969 6.867188 9.320312 8.269531 9.75 C 9.449219 10.109375 10.183594 10.601562 10.277344 11.132812 C 10.746094 10.980469 11 10.777344 11.226562 10.585938 C 11.128906 10.367188 10.699219 9.734375 10.011719 9.4375 C 8.714844 8.867188 9.96875 8.046875 10.9375 7.847656 C 11.816406 7.667969 10.953125 7.007812 9.617188 7.03125 C 8.28125 7.054688 8.617188 7.445312 6.550781 6.8125 Z M 6.550781 6.8125 "/>
<use xlink:href="#surface5" mask="url(#mask0)"/>
<path style=" stroke:none;fill-rule:nonzero;fill:rgb(100%,67.45098%,20%);fill-opacity:1;" d="M 9.234375 7.355469 C 9.425781 7.464844 9.425781 8.128906 9.234375 8.238281 L 7.847656 9.03125 C 7.65625 9.140625 7.34375 9.140625 7.152344 9.03125 L 5.765625 8.238281 C 5.574219 8.128906 5.574219 7.464844 5.765625 7.355469 L 7.152344 7.054688 C 7.34375 6.945312 7.65625 6.945312 7.847656 7.054688 Z M 9.234375 7.355469 "/>
<path style=" stroke:none;fill-rule:nonzero;fill:rgb(100%,85.098039%,51.372549%);fill-opacity:1;" d="M 9.234375 7.355469 C 9.425781 7.464844 9.425781 7.640625 9.234375 7.75 L 7.847656 8.539062 C 7.65625 8.648438 7.34375 8.648438 7.152344 8.539062 L 5.765625 7.75 C 5.574219 7.640625 5.574219 7.464844 5.765625 7.355469 L 7.152344 6.5625 C 7.34375 6.453125 7.65625 6.453125 7.847656 6.5625 Z M 9.234375 7.355469 "/>
</g>
</svg>
