<?xml version="1.0" encoding="UTF-8"?>
<svg xmlns="http://www.w3.org/2000/svg" xmlns:xlink="http://www.w3.org/1999/xlink" width="15pt" height="15pt" viewBox="0 0 15 15" version="1.1">
<defs>
<filter id="alpha" filterUnits="objectBoundingBox" x="0%" y="0%" width="100%" height="100%">
  <feColorMatrix type="matrix" in="SourceGraphic" values="0 0 0 0 1 0 0 0 0 1 0 0 0 0 1 0 0 0 1 0"/>
</filter>
<mask id="mask0">
  <g filter="url(#alpha)">
<rect x="0" y="0" width="15" height="15" style="fill:rgb(0%,0%,0%);fill-opacity:0.501961;stroke:none;"/>
  </g>
</mask>
<clipPath id="clip1">
  <rect x="0" y="0" width="15" height="15"/>
</clipPath>
<g id="surface5" clip-path="url(#clip1)">
<path style=" stroke:none;fill-rule:nonzero;fill:rgb(81.176471%,88.235294%,91.764706%);fill-opacity:1;" d="M 7.769531 9.472656 C 7.601562 9.457031 7.441406 9.476562 7.273438 9.519531 L 7.269531 9.726562 C 7.25 11.691406 7.351562 13.328125 7.320312 13.59375 C 7.304688 13.773438 7.191406 13.929688 7.023438 14.039062 C 7.367188 14.082031 7.707031 14.074219 8.035156 14.019531 C 7.84375 13.859375 7.738281 13.605469 7.710938 13.351562 C 7.683594 13.078125 7.785156 11.453125 7.769531 9.472656 Z M 7.769531 9.472656 "/>
</g>
</defs>
<g id="surface1">
<path style=" stroke:none;fill-rule:nonzero;fill:rgb(96.078431%,97.254902%,98.039216%);fill-opacity:1;" d="M 1.941406 3.117188 C 2.746094 3.445312 4.105469 3.820312 5.378906 4.179688 C 6.527344 4.507812 7.347656 4.929688 7.347656 5.964844 C 7.347656 6.433594 7.292969 7.847656 7.273438 9.519531 C 7.441406 9.476562 7.601562 9.457031 7.769531 9.472656 L 7.769531 9.414062 C 7.753906 7.613281 7.695312 6.0625 7.695312 5.566406 C 7.695312 4.511719 8.453125 4.644531 9.640625 4.316406 C 10.179688 4.167969 12.652344 3.613281 13.476562 3.441406 C 14.167969 3.296875 13.898438 3 13.683594 2.765625 C 13.667969 2.8125 13.621094 2.851562 13.523438 2.878906 C 12.894531 3.070312 9.058594 3.8125 8.132812 4.070312 C 7.476562 4.253906 6.636719 3.917969 5.628906 3.511719 C 4.621094 3.101562 2.074219 2.503906 1.570312 2.316406 C 1.464844 2.277344 1.390625 2.222656 1.332031 2.164062 C 1.292969 2.183594 1.253906 2.207031 1.21875 2.230469 C 1.246094 2.230469 1.265625 2.226562 1.296875 2.226562 C 1.496094 2.222656 1.214844 2.820312 1.941406 3.117188 Z M 1.941406 3.117188 "/>
<path style=" stroke:none;fill-rule:nonzero;fill:rgb(67.843137%,82.745098%,87.843137%);fill-opacity:1;" d="M 0.421875 4.53125 C 0.460938 5.59375 0.570312 8.292969 0.46875 9.503906 C 0.40625 10.308594 0.570312 10.90625 0.886719 11.339844 C 0.96875 11.203125 1.152344 11.085938 1.453125 11.035156 C 3.015625 10.753906 5.566406 10.039062 6.59375 9.726562 C 6.867188 9.644531 7.078125 9.570312 7.273438 9.519531 C 7.292969 7.847656 7.347656 6.433594 7.347656 5.964844 C 7.347656 4.933594 6.53125 4.507812 5.378906 4.183594 C 4.105469 3.820312 2.746094 3.445312 1.941406 3.117188 C 1.214844 2.820312 1.496094 2.222656 1.296875 2.226562 C 1.269531 2.226562 1.246094 2.230469 1.21875 2.230469 C 0.539062 2.679688 0.382812 3.546875 0.421875 4.53125 Z M 0.421875 4.53125 "/>
<path style=" stroke:none;fill-rule:nonzero;fill:rgb(75.686275%,88.235294%,91.764706%);fill-opacity:1;" d="M 13.835938 11.582031 C 14.015625 11.625 14.199219 11.710938 14.363281 11.828125 C 14.546875 11.449219 14.507812 10.957031 14.480469 10.398438 C 14.429688 9.382812 14.503906 6.1875 14.578125 4.726562 C 14.640625 3.515625 14.234375 2.949219 13.675781 2.683594 C 13.691406 2.714844 13.691406 2.742188 13.683594 2.765625 C 13.898438 3 14.167969 3.296875 13.476562 3.441406 C 12.652344 3.613281 10.179688 4.167969 9.640625 4.316406 C 8.453125 4.644531 7.699219 4.511719 7.695312 5.566406 C 7.695312 6.0625 7.753906 7.613281 7.769531 9.414062 L 7.769531 9.472656 C 7.964844 9.488281 8.179688 9.550781 8.453125 9.691406 C 9.023438 9.976562 12.988281 11.390625 13.835938 11.582031 Z M 13.835938 11.582031 "/>
<path style=" stroke:none;fill-rule:nonzero;fill:rgb(82.352941%,92.54902%,95.294118%);fill-opacity:1;" d="M 5.628906 3.511719 C 6.636719 3.917969 7.476562 4.253906 8.132812 4.070312 C 9.058594 3.8125 12.894531 3.070312 13.523438 2.878906 C 13.621094 2.851562 13.667969 2.8125 13.683594 2.765625 C 13.636719 2.71875 13.59375 2.671875 13.5625 2.628906 C 13.484375 2.597656 13.402344 2.570312 13.316406 2.550781 C 12.253906 2.277344 9.800781 1.511719 8.761719 1.140625 C 7.9375 0.84375 6.890625 0.894531 6.015625 1.089844 C 5.039062 1.308594 3.0625 1.800781 2.078125 1.929688 C 1.78125 1.96875 1.539062 2.050781 1.332031 2.164062 C 1.390625 2.222656 1.464844 2.277344 1.570312 2.316406 C 2.074219 2.503906 4.621094 3.101562 5.628906 3.511719 Z M 5.628906 3.511719 "/>
<use xlink:href="#surface5" mask="url(#mask0)"/>
<path style=" stroke:none;fill-rule:nonzero;fill:rgb(60.784314%,76.078431%,83.137255%);fill-opacity:1;" d="M 7.320312 13.59375 C 7.351562 13.328125 7.25 11.691406 7.269531 9.726562 L 7.273438 9.519531 C 7.078125 9.566406 6.867188 9.644531 6.59375 9.726562 C 5.566406 10.039062 3.015625 10.753906 1.453125 11.03125 C 1.152344 11.085938 0.96875 11.203125 0.882812 11.339844 C 1.113281 11.652344 1.417969 11.882812 1.78125 12.03125 C 2.648438 12.375 4.601562 13.070312 5.839844 13.6875 C 6.214844 13.875 6.621094 13.988281 7.023438 14.039062 C 7.191406 13.929688 7.304688 13.773438 7.320312 13.59375 Z M 13.367188 12.5 C 13.925781 12.363281 14.21875 12.128906 14.363281 11.828125 C 14.199219 11.710938 14.015625 11.625 13.835938 11.582031 C 12.988281 11.390625 9.023438 9.976562 8.453125 9.691406 C 8.179688 9.550781 7.964844 9.488281 7.769531 9.472656 C 7.785156 11.453125 7.683594 13.078125 7.710938 13.351562 C 7.738281 13.605469 7.847656 13.859375 8.035156 14.019531 C 8.242188 13.988281 8.445312 13.933594 8.636719 13.863281 C 9.480469 13.539062 12.054688 12.820312 13.367188 12.5 Z M 13.367188 12.5 "/>
<path style=" stroke:none;fill-rule:nonzero;fill:rgb(75.686275%,88.235294%,91.764706%);fill-opacity:1;" d="M 3.15625 7.789062 C 1.523438 9.171875 0.9375 11.835938 0.984375 10.628906 C 1.027344 9.632812 0.976562 6.679688 0.984375 5.449219 C 0.988281 4.410156 1.15625 3.515625 2.535156 4.160156 C 3.59375 4.648438 5.535156 5.039062 6.445312 5.652344 C 7.03125 6.050781 5.417969 5.863281 3.15625 7.789062 Z M 3.15625 7.789062 "/>
<path style=" stroke:none;fill-rule:nonzero;fill:rgb(82.352941%,92.54902%,95.294118%);fill-opacity:1;" d="M 12.570312 6.433594 C 13.675781 7.179688 14.058594 8.761719 14.027344 8.007812 C 14.003906 7.386719 14.03125 5.949219 14.027344 5.183594 C 14.023438 4.535156 14.105469 3.984375 13.195312 4.25 C 12.410156 4.472656 11.058594 4.601562 10.492188 4.984375 C 10.125 5.230469 11.078125 5.425781 12.570312 6.433594 Z M 12.570312 6.433594 "/>
</g>
</svg>
