<?xml version="1.0" encoding="UTF-8"?>
<svg xmlns="http://www.w3.org/2000/svg" xmlns:xlink="http://www.w3.org/1999/xlink" width="15pt" height="15pt" viewBox="0 0 15 15" version="1.1">
<g id="surface1">
<path style=" stroke:none;fill-rule:nonzero;fill:rgb(60%,66.666667%,70.980392%);fill-opacity:1;" d="M 10.746094 13.378906 C 10.738281 13.363281 10.605469 13.125 10.363281 12.941406 C 10.398438 12.78125 10.382812 12.628906 10.246094 12.527344 C 9.910156 12.28125 6.953125 12.613281 6.742188 13.667969 C 6.65625 14.105469 6.964844 14.105469 7.128906 13.972656 C 7.078125 14.15625 7.050781 14.347656 7.066406 14.527344 C 7.078125 14.628906 7.164062 14.703125 7.265625 14.691406 C 7.277344 14.691406 7.285156 14.691406 7.296875 14.6875 C 7.378906 14.664062 7.4375 14.585938 7.429688 14.496094 C 7.421875 14.371094 7.441406 14.234375 7.472656 14.101562 C 7.546875 14.171875 7.628906 14.226562 7.726562 14.203125 C 7.84375 14.175781 7.917969 14.0625 7.96875 13.9375 C 7.972656 14.015625 7.984375 14.066406 7.984375 14.074219 C 8.011719 14.171875 8.109375 14.226562 8.207031 14.203125 L 8.210938 14.203125 C 8.304688 14.175781 8.363281 14.078125 8.339844 13.980469 C 8.339844 13.972656 8.320312 13.894531 8.332031 13.769531 C 8.496094 13.871094 8.707031 13.960938 8.875 13.917969 C 9.09375 13.867188 9.195312 13.683594 9.25 13.503906 C 9.410156 13.65625 9.507812 13.835938 9.605469 14.046875 C 9.644531 14.128906 9.734375 14.167969 9.820312 14.144531 C 9.828125 14.140625 9.839844 14.140625 9.847656 14.132812 C 9.941406 14.09375 9.980469 13.984375 9.9375 13.890625 C 9.867188 13.742188 9.78125 13.5625 9.640625 13.390625 C 9.769531 13.476562 9.90625 13.535156 9.996094 13.484375 C 10.058594 13.445312 10.132812 13.371094 10.199219 13.277344 C 10.339844 13.402344 10.417969 13.546875 10.421875 13.546875 C 10.460938 13.625 10.546875 13.660156 10.628906 13.640625 C 10.640625 13.636719 10.65625 13.628906 10.667969 13.625 C 10.757812 13.574219 10.792969 13.464844 10.746094 13.378906 Z M 10.746094 13.378906 "/>
<path style=" stroke:none;fill-rule:nonzero;fill:rgb(88.235294%,90.980392%,92.941176%);fill-opacity:1;" d="M 9.550781 4.894531 C 8.164062 4.773438 7.5 3.992188 7.089844 3.234375 C 7.011719 3.085938 6.378906 1.707031 6.054688 0.816406 C 5.746094 -0.03125 5.226562 0.417969 4.988281 0.480469 C 4.75 0.542969 4.371094 0.550781 4.445312 1.246094 C 4.550781 2.289062 4.738281 3.695312 4.753906 3.859375 C 4.851562 4.792969 4.59375 5.730469 3.453125 6.527344 C 1.320312 8.023438 0.683594 9.417969 1.097656 10.960938 C 1.691406 13.167969 3 14.816406 8.542969 13.332031 C 14.089844 11.84375 14.398438 9.761719 13.808594 7.554688 C 13.394531 6.011719 12.144531 5.121094 9.550781 4.894531 Z M 9.550781 4.894531 "/>
<path style=" stroke:none;fill-rule:nonzero;fill:rgb(60%,66.666667%,70.980392%);fill-opacity:1;" d="M 4.703125 13.710938 C 3.5625 13.195312 2.269531 12.261719 2.246094 10.535156 C 2.222656 8.652344 3.945312 7.578125 4.148438 6.488281 C 4.222656 7.765625 3.003906 8.589844 3.015625 10.21875 C 3.027344 11.691406 3.441406 12.808594 4.703125 13.710938 Z M 7.613281 13.503906 C 6.527344 12.945312 5.199219 11.757812 4.910156 10.128906 C 4.492188 7.78125 5.480469 6.332031 5.238281 4.554688 C 5.828125 6.597656 5.472656 7.578125 5.835938 9.609375 C 6.070312 10.929688 6.734375 12.746094 7.613281 13.503906 Z M 12.058594 11.738281 C 12.792969 10.722656 13.441406 9.265625 12.601562 7.761719 C 11.679688 6.117188 9.652344 6.050781 8.929688 5.207031 C 9.503906 6.351562 10.972656 6.453125 11.773438 7.871094 C 12.503906 9.152344 12.703125 10.328125 12.058594 11.738281 Z M 9.433594 13.015625 C 10.097656 11.988281 10.652344 10.296875 10.089844 8.738281 C 9.277344 6.496094 7.699219 5.738281 7.019531 4.078125 C 7.53125 6.140625 8.328125 6.8125 9.027344 8.753906 C 9.484375 10.015625 9.816406 11.921875 9.433594 13.015625 Z M 9.433594 13.015625 "/>
</g>
</svg>
