<?xml version="1.0" encoding="UTF-8"?>
<svg xmlns="http://www.w3.org/2000/svg" xmlns:xlink="http://www.w3.org/1999/xlink" width="15pt" height="15pt" viewBox="0 0 15 15" version="1.1">
<g id="surface1">
<path style=" stroke:none;fill-rule:nonzero;fill:rgb(60%,66.666667%,70.980392%);fill-opacity:1;" d="M 14.644531 9.234375 L 5.117188 14.742188 C 4.742188 14.957031 4.132812 14.957031 3.757812 14.742188 L 0.355469 12.773438 C 0.167969 12.664062 0.0742188 12.523438 0.0742188 12.378906 L 0.0742188 11.613281 L 9.878906 6.480469 C 10.257812 6.261719 10.867188 6.261719 11.242188 6.480469 L 14.925781 8.070312 C 14.925781 8.304688 14.921875 8.695312 14.925781 8.835938 C 14.925781 8.980469 14.832031 9.125 14.644531 9.234375 Z M 14.644531 9.234375 "/>
<path style=" stroke:none;fill-rule:nonzero;fill:rgb(80%,83.921569%,86.666667%);fill-opacity:1;" d="M 14.644531 8.476562 L 5.117188 13.984375 C 4.742188 14.203125 4.132812 14.203125 3.757812 13.984375 L 0.355469 12.015625 C -0.0195312 11.800781 -0.0195312 11.449219 0.355469 11.230469 L 9.882812 5.722656 C 10.257812 5.503906 10.867188 5.503906 11.242188 5.722656 L 14.644531 7.691406 C 15.019531 7.90625 15.019531 8.257812 14.644531 8.476562 Z M 14.644531 8.476562 "/>
<path style=" stroke:none;fill-rule:nonzero;fill:rgb(100%,90.980392%,71.372549%);fill-opacity:1;" d="M 13.75 7.921875 L 13.75 4.554688 L 10.832031 2.871094 L 5.398438 5.996094 L 5.398438 9.363281 L 8.316406 11.046875 Z M 13.75 7.921875 "/>
<path style=" stroke:none;fill-rule:nonzero;fill:rgb(100%,85.098039%,51.372549%);fill-opacity:1;" d="M 13.75 7.921875 L 13.75 4.554688 L 8.316406 7.679688 L 5.398438 5.996094 L 5.398438 9.363281 L 8.316406 11.046875 Z M 13.75 7.921875 "/>
<path style=" stroke:none;fill-rule:nonzero;fill:rgb(100%,80%,30.196078%);fill-opacity:1;" d="M 13.75 7.921875 L 13.75 4.554688 L 8.316406 7.679688 L 8.316406 11.046875 Z M 13.75 7.921875 "/>
<path style=" stroke:none;fill-rule:nonzero;fill:rgb(100%,90.980392%,71.372549%);fill-opacity:1;" d="M 7.160156 11.792969 L 7.160156 10.953125 L 4.242188 9.269531 L 1.25 10.96875 L 1.25 11.808594 L 4.167969 13.492188 Z M 7.160156 11.792969 "/>
<path style=" stroke:none;fill-rule:nonzero;fill:rgb(100%,85.098039%,51.372549%);fill-opacity:1;" d="M 7.160156 11.792969 L 7.160156 10.953125 L 4.242188 12.644531 L 1.25 10.96875 L 1.25 11.808594 L 4.167969 13.492188 Z M 7.160156 11.792969 "/>
<path style=" stroke:none;fill-rule:nonzero;fill:rgb(100%,80%,30.196078%);fill-opacity:1;" d="M 7.160156 11.792969 L 7.160156 10.953125 L 4.242188 12.644531 L 4.167969 13.492188 Z M 7.160156 11.792969 "/>
</g>
</svg>
