<?xml version="1.0" encoding="UTF-8"?>
<svg xmlns="http://www.w3.org/2000/svg" xmlns:xlink="http://www.w3.org/1999/xlink" width="15pt" height="15pt" viewBox="0 0 15 15" version="1.1">
<g id="surface1">
<path style=" stroke:none;fill-rule:nonzero;fill:rgb(100%,67.45098%,20%);fill-opacity:1;" d="M 4.914062 2.527344 L 4.910156 3.910156 L 7.136719 3.332031 L 5.914062 2.5 Z M 13.855469 9.785156 C 13.855469 9.308594 14.171875 8.921875 14.582031 8.851562 L 14.582031 3.992188 C 12.917969 3.59375 0.417969 6.988281 0.417969 6.988281 L 0.417969 8.464844 C 1.066406 8.585938 1.5625 9.15625 1.5625 9.84375 C 1.5625 10.53125 1.066406 11.101562 0.417969 11.222656 L 0.417969 14.4375 L 14.582031 11.738281 L 14.582031 10.71875 C 14.171875 10.648438 13.855469 10.257812 13.855469 9.785156 Z M 13.855469 9.785156 "/>
<path style=" stroke:none;fill-rule:nonzero;fill:rgb(100%,85.098039%,51.372549%);fill-opacity:1;" d="M 6.492188 0.933594 L 4.890625 2.535156 C 5.199219 2.605469 5.417969 2.78125 5.417969 2.984375 C 5.417969 3.253906 5.042969 3.472656 4.582031 3.472656 C 4.386719 3.472656 4.207031 3.429688 4.066406 3.363281 L 0.417969 7.011719 C 5.902344 5.796875 9.601562 4.808594 14.625 4 C 12.597656 1.300781 7.84375 0.933594 6.492188 0.933594 Z M 6.492188 0.933594 "/>
<path style=" stroke:none;fill-rule:nonzero;fill:rgb(100%,67.45098%,20%);fill-opacity:1;" d="M 8.332031 2.152344 C 8.332031 2.421875 7.960938 2.640625 7.5 2.640625 C 7.039062 2.640625 6.667969 2.421875 6.667969 2.152344 C 6.667969 1.882812 7.039062 1.667969 7.5 1.667969 C 7.960938 1.667969 8.332031 1.882812 8.332031 2.152344 Z M 6.28125 4.816406 C 6.28125 5.226562 5.714844 5.554688 5.015625 5.554688 C 4.316406 5.554688 3.75 5.226562 3.75 4.816406 C 3.75 4.410156 4.316406 4.078125 5.015625 4.078125 C 5.714844 4.078125 6.28125 4.410156 6.28125 4.816406 Z M 12.082031 3.480469 C 12.082031 3.9375 11.449219 4.304688 10.667969 4.304688 C 9.886719 4.304688 9.253906 3.9375 9.253906 3.480469 C 9.253906 3.023438 9.886719 2.65625 10.667969 2.65625 C 11.449219 2.65625 12.082031 3.023438 12.082031 3.480469 Z M 12.082031 3.480469 "/>
<path style=" stroke:none;fill-rule:nonzero;fill:rgb(95.686275%,56.470588%,4.705882%);fill-opacity:1;" d="M 14.011719 6.507812 C 14.011719 7.0625 13.601562 7.511719 13.097656 7.511719 C 12.59375 7.511719 12.1875 7.0625 12.1875 6.507812 C 12.1875 5.953125 12.59375 5.503906 13.097656 5.503906 C 13.601562 5.503906 14.011719 5.953125 14.011719 6.507812 Z M 4.738281 8.535156 C 4.738281 9.058594 4.355469 9.480469 3.878906 9.480469 C 3.40625 9.480469 3.019531 9.058594 3.019531 8.535156 C 3.019531 8.011719 3.40625 7.585938 3.878906 7.585938 C 4.355469 7.585938 4.738281 8.011719 4.738281 8.535156 Z M 11.886719 10.609375 C 11.679688 10.859375 11.324219 10.910156 11.09375 10.71875 C 10.867188 10.527344 10.851562 10.167969 11.0625 9.917969 C 11.273438 9.667969 11.628906 9.617188 11.855469 9.808594 C 12.085938 10 12.097656 10.355469 11.886719 10.609375 Z M 7.851562 7.535156 C 7.570312 7.871094 7.09375 7.9375 6.785156 7.683594 C 6.480469 7.425781 6.460938 6.941406 6.742188 6.605469 C 7.027344 6.265625 7.503906 6.203125 7.808594 6.457031 C 8.117188 6.714844 8.136719 7.195312 7.851562 7.535156 Z M 8.214844 11.707031 C 7.714844 12.375 6.820312 12.550781 6.214844 12.097656 C 5.605469 11.644531 5.519531 10.734375 6.019531 10.066406 C 6.519531 9.398438 7.417969 9.222656 8.023438 9.675781 C 8.628906 10.128906 8.714844 11.039062 8.214844 11.707031 Z M 8.214844 11.707031 "/>
</g>
</svg>
