<?xml version="1.0" encoding="UTF-8"?>
<svg xmlns="http://www.w3.org/2000/svg" xmlns:xlink="http://www.w3.org/1999/xlink" width="15pt" height="15pt" viewBox="0 0 15 15" version="1.1">
<g id="surface1">
<path style=" stroke:none;fill-rule:nonzero;fill:rgb(83.137255%,67.058824%,53.333333%);fill-opacity:1;" d="M 5.4375 9.402344 C 5.339844 9.472656 5.226562 9.394531 5.167969 9.347656 C 5.011719 9.21875 4.851562 8.871094 4.914062 8.457031 C 4.980469 8.035156 4.996094 7.546875 5.195312 6.734375 C 5.21875 6.636719 5.167969 5.578125 5.285156 4.847656 C 5.316406 4.648438 5.683594 4.402344 5.90625 4.40625 C 6.128906 4.410156 6.015625 4.800781 6.019531 4.863281 C 6.070312 5.566406 5.875 6.648438 5.855469 6.792969 C 5.738281 7.609375 5.425781 7.976562 5.53125 8.515625 C 5.585938 8.796875 5.59375 9.054688 5.429688 9.074219 C 5.433594 9.226562 5.472656 9.378906 5.4375 9.402344 Z M 9.5625 9.402344 C 9.660156 9.472656 9.773438 9.394531 9.832031 9.347656 C 9.988281 9.21875 10.148438 8.871094 10.085938 8.457031 C 10.019531 8.035156 10.003906 7.546875 9.804688 6.734375 C 9.78125 6.636719 9.832031 5.578125 9.714844 4.847656 C 9.683594 4.648438 9.316406 4.402344 9.09375 4.40625 C 8.871094 4.410156 8.984375 4.800781 8.980469 4.863281 C 8.929688 5.566406 9.125 6.648438 9.144531 6.792969 C 9.261719 7.609375 9.574219 7.976562 9.46875 8.515625 C 9.414062 8.796875 9.40625 9.054688 9.570312 9.074219 C 9.566406 9.226562 9.527344 9.378906 9.5625 9.402344 Z M 9.5625 9.402344 "/>
<path style=" stroke:none;fill-rule:nonzero;fill:rgb(25.882353%,53.72549%,75.686275%);fill-opacity:1;" d="M 8.988281 11.140625 C 8.996094 9.863281 8.992188 8.429688 8.992188 8.429688 L 5.996094 8.429688 C 5.996094 8.429688 6.007812 9.992188 6.042969 11.121094 C 6.070312 12.015625 6.203125 13.703125 6.085938 14.601562 C 6.058594 14.800781 7.242188 14.992188 7.226562 14.546875 C 7.195312 13.726562 7.332031 11.914062 7.359375 11.503906 C 7.371094 11.277344 7.457031 10.535156 7.496094 9.980469 C 7.5 9.972656 7.613281 9.972656 7.621094 9.980469 C 7.65625 10.535156 7.742188 11.277344 7.757812 11.503906 C 7.78125 11.914062 7.921875 13.726562 7.890625 14.546875 C 7.871094 14.992188 9.058594 14.800781 9.03125 14.601562 C 8.910156 13.703125 8.988281 11.285156 8.988281 11.140625 Z M 8.988281 11.140625 "/>
<path style=" stroke:none;fill-rule:nonzero;fill:rgb(98.039216%,45.490196%,24.313725%);fill-opacity:1;" d="M 9.320312 3.945312 C 9.027344 3.59375 7.5 3.34375 7.5 3.34375 C 7.5 3.34375 5.960938 3.59375 5.667969 3.945312 C 5.3125 4.375 5.125 5.101562 5.125 5.101562 L 5.867188 5.234375 C 5.867188 5.234375 6.054688 5.90625 6.054688 6.546875 C 6.054688 7.1875 5.890625 8.757812 5.890625 8.757812 L 9.113281 8.757812 C 9.113281 8.757812 8.933594 7.15625 8.933594 6.546875 C 8.933594 5.9375 9.132812 5.234375 9.132812 5.234375 L 9.863281 5.101562 C 9.863281 5.101562 9.675781 4.375 9.320312 3.945312 Z M 9.320312 3.945312 "/>
<path style=" stroke:none;fill-rule:nonzero;fill:rgb(58.823529%,23.137255%,13.333333%);fill-opacity:1;" d="M 8.015625 0.347656 C 7.773438 0.265625 7.191406 0.289062 7.046875 0.476562 C 6.671875 0.484375 6.230469 0.824219 6.171875 1.273438 C 6.113281 1.714844 6.242188 1.921875 6.289062 2.257812 C 6.339844 2.632812 6.550781 2.753906 6.722656 2.804688 C 6.96875 3.128906 7.226562 3.117188 7.664062 3.117188 C 8.515625 3.117188 8.921875 2.546875 8.957031 1.574219 C 8.980469 0.988281 8.636719 0.546875 8.015625 0.347656 Z M 8.015625 0.347656 "/>
<path style=" stroke:none;fill-rule:nonzero;fill:rgb(83.137255%,67.058824%,53.333333%);fill-opacity:1;" d="M 7.085938 2.871094 L 7.085938 3.601562 C 7.085938 3.804688 7.289062 3.96875 7.542969 3.96875 C 7.792969 3.96875 7.996094 3.804688 7.996094 3.601562 L 7.996094 2.871094 Z M 7.085938 2.871094 "/>
<path style=" stroke:none;fill-rule:nonzero;fill:rgb(80%,60.784314%,47.843137%);fill-opacity:1;" d="M 7.085938 3.324219 C 7.253906 3.429688 7.585938 3.558594 7.996094 3.3125 L 7.996094 2.871094 L 7.085938 2.871094 Z M 7.085938 3.324219 "/>
<path style=" stroke:none;fill-rule:nonzero;fill:rgb(83.137255%,67.058824%,53.333333%);fill-opacity:1;" d="M 8.503906 1.617188 C 8.421875 1.503906 8.316406 1.410156 8.085938 1.378906 C 8.171875 1.417969 8.253906 1.554688 8.265625 1.632812 C 8.277344 1.707031 8.289062 1.769531 8.21875 1.695312 C 7.945312 1.390625 7.644531 1.507812 7.347656 1.324219 C 7.140625 1.191406 7.074219 1.050781 7.074219 1.050781 C 7.074219 1.050781 7.050781 1.242188 6.734375 1.4375 C 6.644531 1.492188 6.535156 1.621094 6.476562 1.804688 C 6.433594 1.941406 6.445312 2.058594 6.445312 2.261719 C 6.445312 2.859375 6.9375 3.359375 7.542969 3.359375 C 8.148438 3.359375 8.636719 2.855469 8.636719 2.261719 C 8.636719 1.890625 8.597656 1.746094 8.503906 1.617188 Z M 8.503906 1.617188 "/>
<path style=" stroke:none;fill-rule:nonzero;fill:rgb(40%,12.941176%,7.45098%);fill-opacity:1;" d="M 7.054688 2.140625 C 6.988281 2.140625 6.933594 2.085938 6.933594 2.019531 L 6.933594 1.898438 C 6.933594 1.832031 6.988281 1.777344 7.054688 1.777344 C 7.121094 1.777344 7.175781 1.832031 7.175781 1.898438 L 7.175781 2.019531 C 7.175781 2.085938 7.121094 2.140625 7.054688 2.140625 Z M 8.027344 2.140625 C 7.960938 2.140625 7.90625 2.085938 7.90625 2.019531 L 7.90625 1.898438 C 7.90625 1.832031 7.960938 1.777344 8.027344 1.777344 C 8.097656 1.777344 8.152344 1.832031 8.152344 1.898438 L 8.152344 2.019531 C 8.152344 2.085938 8.097656 2.140625 8.027344 2.140625 Z M 8.027344 2.140625 "/>
<path style=" stroke:none;fill-rule:nonzero;fill:rgb(75.686275%,41.176471%,30.980392%);fill-opacity:1;" d="M 7.738281 3.066406 L 7.339844 3.066406 C 7.300781 3.066406 7.265625 3.03125 7.265625 2.988281 C 7.265625 2.945312 7.300781 2.910156 7.339844 2.910156 L 7.738281 2.910156 C 7.78125 2.910156 7.816406 2.945312 7.816406 2.988281 C 7.816406 3.03125 7.78125 3.066406 7.738281 3.066406 Z M 7.664062 2.566406 L 7.417969 2.566406 C 7.386719 2.566406 7.359375 2.539062 7.359375 2.507812 C 7.359375 2.472656 7.386719 2.445312 7.417969 2.445312 L 7.664062 2.445312 C 7.695312 2.445312 7.722656 2.472656 7.722656 2.507812 C 7.722656 2.539062 7.695312 2.566406 7.664062 2.566406 Z M 7.664062 2.566406 "/>
<path style=" stroke:none;fill-rule:nonzero;fill:rgb(16.078431%,18.431373%,20%);fill-opacity:1;" d="M 5.785156 14.960938 C 5.558594 14.941406 5.707031 14.675781 5.808594 14.585938 C 5.925781 14.488281 6.109375 14.402344 6.203125 14.234375 C 6.304688 14.042969 6.800781 14.066406 6.902344 14.222656 C 7.089844 14.5 7.171875 14.296875 7.226562 14.425781 C 7.3125 14.632812 7.246094 14.960938 7.246094 14.960938 Z M 9.316406 14.960938 C 9.542969 14.941406 9.394531 14.675781 9.292969 14.585938 C 9.175781 14.488281 8.992188 14.402344 8.898438 14.234375 C 8.796875 14.042969 8.300781 14.066406 8.199219 14.222656 C 8.011719 14.5 7.929688 14.296875 7.875 14.425781 C 7.789062 14.632812 7.855469 14.960938 7.855469 14.960938 Z M 9.316406 14.960938 "/>
</g>
</svg>
