<?xml version="1.0" encoding="UTF-8"?>
<svg xmlns="http://www.w3.org/2000/svg" xmlns:xlink="http://www.w3.org/1999/xlink" width="15pt" height="15pt" viewBox="0 0 15 15" version="1.1">
<g id="surface1">
<path style=" stroke:none;fill-rule:nonzero;fill:rgb(40%,45.882353%,49.803922%);fill-opacity:1;" d="M 10.832031 1.667969 C 10.832031 2.917969 9.339844 4.167969 7.5 4.167969 C 5.660156 4.167969 4.167969 2.917969 4.167969 1.667969 C 4.167969 -0.175781 6.667969 0 7.5 0 C 8.332031 0 10.832031 -0.175781 10.832031 1.667969 Z M 10.832031 1.667969 "/>
<path style=" stroke:none;fill-rule:nonzero;fill:rgb(80%,83.921569%,86.666667%);fill-opacity:1;" d="M 10.128906 5 L 4.871094 5 C 4.464844 5 4.117188 5.292969 4.050781 5.695312 L 2.660156 14.03125 C 2.578125 14.539062 2.96875 15 3.484375 15 L 11.515625 15 C 12.03125 15 12.421875 14.539062 12.339844 14.03125 L 10.949219 5.695312 C 10.882812 5.292969 10.535156 5 10.128906 5 Z M 10.128906 5 "/>
<path style=" stroke:none;fill-rule:nonzero;fill:rgb(96.078431%,97.254902%,98.039216%);fill-opacity:1;" d="M 8.058594 5.832031 L 5.226562 5.832031 C 5.023438 5.832031 4.847656 5.980469 4.816406 6.183594 L 3.566406 13.683594 C 3.523438 13.933594 3.71875 14.167969 3.976562 14.167969 L 8.320312 14.167969 Z M 10.183594 6.183594 C 10.152344 5.980469 9.976562 5.832031 9.773438 5.832031 L 8.769531 5.832031 L 9.148438 14.167969 L 11.023438 14.167969 C 11.28125 14.167969 11.476562 13.933594 11.4375 13.683594 Z M 10.183594 6.183594 "/>
<path style=" stroke:none;fill-rule:nonzero;fill:rgb(80%,83.921569%,86.666667%);fill-opacity:1;" d="M 6.75 0.625 C 6.75 0.488281 6.527344 0.375 6.25 0.375 C 5.972656 0.375 5.75 0.488281 5.75 0.625 C 5.75 0.761719 5.972656 0.875 6.25 0.875 C 6.527344 0.875 6.75 0.761719 6.75 0.625 Z M 6.75 0.625 "/>
<path style=" stroke:none;fill-rule:nonzero;fill:rgb(80%,83.921569%,86.666667%);fill-opacity:1;" d="M 9.25 0.625 C 9.25 0.488281 9.027344 0.375 8.75 0.375 C 8.472656 0.375 8.25 0.488281 8.25 0.625 C 8.25 0.761719 8.472656 0.875 8.75 0.875 C 9.027344 0.875 9.25 0.761719 9.25 0.625 Z M 9.25 0.625 "/>
<path style=" stroke:none;fill-rule:nonzero;fill:rgb(80%,83.921569%,86.666667%);fill-opacity:1;" d="M 8 1.457031 C 8 1.320312 7.777344 1.207031 7.5 1.207031 C 7.222656 1.207031 7 1.320312 7 1.457031 C 7 1.597656 7.222656 1.707031 7.5 1.707031 C 7.777344 1.707031 8 1.597656 8 1.457031 Z M 8 1.457031 "/>
<path style=" stroke:none;fill-rule:nonzero;fill:rgb(40%,45.882353%,49.803922%);fill-opacity:1;" d="M 10.417969 5 L 4.582031 5 L 4.582031 3.96875 C 4.582031 3.617188 4.867188 3.445312 5.21875 3.445312 L 9.78125 3.445312 C 10.132812 3.445312 10.417969 3.617188 10.417969 3.96875 Z M 10.417969 5 "/>
<path style=" stroke:none;fill-rule:nonzero;fill:rgb(80%,83.921569%,86.666667%);fill-opacity:1;" d="M 9.78125 3.332031 L 5.21875 3.332031 C 4.945312 3.332031 4.714844 3.507812 4.625 3.75 L 10.375 3.75 C 10.285156 3.507812 10.054688 3.332031 9.78125 3.332031 Z M 4.582031 4.167969 L 10.417969 4.167969 L 10.417969 4.582031 L 4.582031 4.582031 Z M 4.582031 5 L 10.417969 5 L 10.417969 5.207031 L 4.582031 5.207031 Z M 4.582031 5 "/>
</g>
</svg>
