<?xml version="1.0" encoding="UTF-8"?>
<svg xmlns="http://www.w3.org/2000/svg" xmlns:xlink="http://www.w3.org/1999/xlink" width="15pt" height="15pt" viewBox="0 0 15 15" version="1.1">
<g id="surface1">
<path style=" stroke:none;fill-rule:nonzero;fill:rgb(54.117647%,29.411765%,21.960784%);fill-opacity:1;" d="M 11.199219 6.082031 C 10.457031 5.324219 8.980469 5.324219 7.5 5.324219 C 6.019531 5.324219 4.542969 5.324219 3.800781 6.082031 C 2.691406 7.222656 1.582031 10.132812 2.324219 12.410156 C 3.0625 14.6875 6.304688 14.921875 7.5 14.921875 C 8.695312 14.921875 11.9375 14.6875 12.675781 12.410156 C 13.417969 10.132812 12.308594 7.222656 11.199219 6.082031 Z M 11.199219 6.082031 "/>
<path style=" stroke:none;fill-rule:nonzero;fill:rgb(64.705882%,31.372549%,23.529412%);fill-opacity:1;" d="M 10.660156 6.003906 C 10.027344 5.355469 8.761719 5.355469 7.5 5.355469 C 6.238281 5.355469 4.972656 5.355469 4.339844 6.003906 C 3.394531 6.976562 2.445312 9.464844 3.078125 11.410156 C 3.710938 13.355469 6.480469 13.554688 7.5 13.554688 C 8.519531 13.554688 11.289062 13.355469 11.921875 11.410156 C 12.554688 9.464844 11.605469 6.976562 10.660156 6.003906 Z M 10.660156 6.003906 "/>
<path style=" stroke:none;fill-rule:nonzero;fill:rgb(80%,83.921569%,86.666667%);fill-opacity:1;" d="M 11.4375 5.425781 C 11.277344 4.753906 10.496094 4.105469 7.507812 4.105469 L 7.492188 4.105469 C 4.503906 4.105469 3.71875 4.753906 3.5625 5.425781 C 3.253906 6.714844 4.503906 7.210938 7.492188 7.210938 L 7.507812 7.210938 C 10.496094 7.210938 11.746094 6.714844 11.4375 5.425781 Z M 11.4375 5.425781 "/>
<path style=" stroke:none;fill-rule:nonzero;fill:rgb(40%,45.882353%,49.803922%);fill-opacity:1;" d="M 10.675781 5.148438 C 10.796875 5.449219 9.914062 5.839844 7.492188 5.839844 C 5.074219 5.839844 4.183594 5.445312 4.308594 5.148438 C 4.445312 4.824219 5.921875 4.503906 7.492188 4.503906 C 9.0625 4.503906 10.542969 4.824219 10.675781 5.148438 Z M 10.675781 5.148438 "/>
<path style=" stroke:none;fill-rule:nonzero;fill:rgb(46.666667%,69.803922%,33.333333%);fill-opacity:1;" d="M 4.582031 5.476562 C 5.003906 5.671875 5.925781 5.839844 7.492188 5.839844 C 9.0625 5.839844 9.984375 5.675781 10.40625 5.476562 C 10.097656 5.210938 9.253906 4.949219 7.492188 4.949219 C 5.730469 4.949219 4.886719 5.210938 4.582031 5.476562 Z M 4.582031 5.476562 "/>
<path style=" stroke:none;fill-rule:nonzero;fill:rgb(100%,100%,100%);fill-opacity:1;" d="M 10.417969 5.929688 C 10.351562 5.753906 10.238281 5.765625 10.078125 5.816406 C 9.335938 6.039062 8.261719 6.082031 7.488281 6.085938 C 6.71875 6.082031 5.542969 6.019531 4.902344 5.816406 C 4.742188 5.765625 4.609375 5.742188 4.542969 5.929688 C 4.476562 6.109375 4.671875 6.285156 4.832031 6.324219 C 5.820312 6.5625 6.628906 6.636719 7.488281 6.640625 C 8.347656 6.636719 9.058594 6.574219 10.042969 6.335938 C 10.207031 6.292969 10.492188 6.136719 10.417969 5.929688 Z M 10.417969 5.929688 "/>
<path style=" stroke:none;fill-rule:nonzero;fill:rgb(80%,83.921569%,86.666667%);fill-opacity:1;" d="M 9.539062 5.703125 L 11.753906 2.398438 L 13.960938 0.839844 C 13.960938 0.839844 14.019531 0.714844 13.636719 0.417969 C 13.25 0.121094 13.078125 0.246094 13.078125 0.246094 L 11.183594 1.75 L 8.476562 5.792969 C 8.890625 5.769531 9.246094 5.738281 9.539062 5.703125 Z M 9.539062 5.703125 "/>
<path style=" stroke:none;fill-rule:nonzero;fill:rgb(60%,66.666667%,70.980392%);fill-opacity:1;" d="M 9.539062 5.703125 L 11.753906 2.398438 L 13.960938 0.839844 L 13.933594 0.800781 L 11.519531 2.136719 L 9.101562 5.753906 C 9.28125 5.738281 9.367188 5.726562 9.539062 5.703125 Z M 9.539062 5.703125 "/>
<path style=" stroke:none;fill-rule:nonzero;fill:rgb(60%,66.666667%,70.980392%);fill-opacity:1;" d="M 12.203125 2.058594 C 12.203125 2.445312 11.890625 2.753906 11.507812 2.753906 C 11.125 2.753906 10.8125 2.445312 10.8125 2.058594 C 10.8125 1.675781 11.125 1.367188 11.507812 1.367188 C 11.890625 1.367188 12.203125 1.675781 12.203125 2.058594 Z M 12.203125 2.058594 "/>
<path style=" stroke:none;fill-rule:nonzero;fill:rgb(80%,83.921569%,86.666667%);fill-opacity:1;" d="M 10.921875 1.933594 C 10.921875 1.640625 11.15625 1.40625 11.449219 1.40625 C 11.738281 1.40625 11.972656 1.640625 11.972656 1.933594 C 11.972656 2.222656 11.738281 2.457031 11.449219 2.457031 C 11.15625 2.457031 10.921875 2.222656 10.921875 1.933594 Z M 10.921875 1.933594 "/>
<path style=" stroke:none;fill-rule:nonzero;fill:rgb(88.235294%,90.980392%,92.941176%);fill-opacity:1;" d="M 4.773438 4.527344 C 5.441406 4.261719 6.667969 4.191406 7.09375 4.210938 C 7.523438 4.230469 7.332031 4.527344 7.089844 4.527344 C 6.382812 4.527344 5.511719 4.695312 4.910156 4.847656 C 4.554688 4.941406 4.433594 4.664062 4.773438 4.527344 Z M 4.773438 4.527344 "/>
</g>
</svg>
