<?xml version="1.0" encoding="UTF-8"?>
<svg xmlns="http://www.w3.org/2000/svg" xmlns:xlink="http://www.w3.org/1999/xlink" width="15pt" height="15pt" viewBox="0 0 15 15" version="1.1">
<g id="surface1">
<path style=" stroke:none;fill-rule:nonzero;fill:rgb(82.745098%,60%,32.941176%);fill-opacity:1;" d="M 11.089844 13.515625 C 11.082031 13.5 10.933594 13.234375 10.664062 13.027344 C 10.707031 12.851562 10.6875 12.679688 10.535156 12.570312 C 10.160156 12.292969 6.859375 12.664062 6.625 13.84375 C 6.527344 14.332031 6.871094 14.332031 7.058594 14.179688 C 7 14.386719 6.96875 14.601562 6.988281 14.800781 C 6.996094 14.914062 7.09375 14.996094 7.207031 14.984375 C 7.21875 14.984375 7.230469 14.984375 7.242188 14.980469 C 7.335938 14.953125 7.402344 14.863281 7.394531 14.765625 C 7.378906 14.625 7.402344 14.476562 7.4375 14.328125 C 7.523438 14.402344 7.617188 14.464844 7.726562 14.4375 C 7.855469 14.410156 7.9375 14.28125 7.992188 14.140625 C 7.996094 14.230469 8.011719 14.285156 8.011719 14.292969 C 8.042969 14.402344 8.152344 14.464844 8.257812 14.4375 L 8.261719 14.4375 C 8.371094 14.40625 8.433594 14.296875 8.40625 14.191406 C 8.40625 14.183594 8.386719 14.09375 8.398438 13.953125 C 8.582031 14.066406 8.816406 14.167969 9.007812 14.121094 C 9.25 14.0625 9.363281 13.859375 9.421875 13.65625 C 9.605469 13.828125 9.710938 14.03125 9.820312 14.261719 C 9.863281 14.355469 9.964844 14.398438 10.058594 14.375 C 10.070312 14.371094 10.082031 14.367188 10.089844 14.363281 C 10.195312 14.316406 10.238281 14.191406 10.191406 14.089844 C 10.113281 13.925781 10.019531 13.722656 9.859375 13.527344 C 10.003906 13.625 10.15625 13.691406 10.253906 13.632812 C 10.324219 13.59375 10.40625 13.507812 10.484375 13.402344 C 10.640625 13.542969 10.726562 13.703125 10.730469 13.707031 C 10.777344 13.792969 10.871094 13.832031 10.960938 13.808594 C 10.976562 13.804688 10.992188 13.796875 11.003906 13.792969 C 11.105469 13.738281 11.144531 13.617188 11.089844 13.515625 Z M 11.089844 13.515625 "/>
<path style=" stroke:none;fill-rule:nonzero;fill:rgb(92.941176%,83.921569%,65.098039%);fill-opacity:1;" d="M 9.046875 2.632812 C 7.902344 2.246094 6.554688 1.328125 6.230469 0.121094 C 6.117188 -0.304688 5.835938 0.660156 5.441406 0.761719 C 5.050781 0.867188 4.324219 0.175781 4.441406 0.601562 C 4.761719 1.808594 4.054688 3.277344 3.257812 4.183594 C 1.769531 5.882812 0.640625 7.914062 1.222656 10.085938 C 2.054688 13.195312 5.429688 14.5625 8.890625 13.636719 C 12.355469 12.707031 14.59375 9.835938 13.761719 6.726562 C 13.179688 4.554688 11.183594 3.359375 9.046875 2.632812 Z M 9.046875 2.632812 "/>
<path style=" stroke:none;fill-rule:nonzero;fill:rgb(88.627451%,65.490196%,34.901961%);fill-opacity:1;" d="M 5.691406 13.578125 C 4.316406 12.746094 2.425781 11.378906 2.265625 8.898438 C 2.085938 6.183594 4.320312 4.691406 4.472656 3.136719 C 4.660156 4.980469 2.992188 6.152344 3.132812 8.496094 C 3.265625 10.625 4.148438 12.183594 5.691406 13.578125 Z M 5.691406 13.578125 "/>
<path style=" stroke:none;fill-rule:nonzero;fill:rgb(88.627451%,65.490196%,34.901961%);fill-opacity:1;" d="M 8.234375 13.703125 C 6.945312 12.894531 5.347656 11.238281 4.925781 9.035156 C 4.316406 5.863281 5.382812 3.972656 5.007812 1.578125 C 5.800781 4.347656 5.441406 5.644531 5.96875 8.386719 C 6.3125 10.171875 7.175781 12.640625 8.234375 13.703125 Z M 11.632812 11.984375 C 12.410156 10.578125 13.425781 8.433594 12.324219 6.203125 C 11.121094 3.761719 8.378906 3.601562 7.46875 2.335938 C 8.230469 4.023438 10.324219 4.1875 11.371094 6.289062 C 12.320312 8.195312 12.273438 10.003906 11.632812 11.984375 Z M 11.632812 11.984375 "/>
<path style=" stroke:none;fill-rule:nonzero;fill:rgb(88.627451%,65.490196%,34.901961%);fill-opacity:1;" d="M 9.496094 13.363281 C 10.207031 12.023438 10.761719 9.785156 10.027344 7.667969 C 8.96875 4.617188 7.097656 3.515625 6.226562 1.253906 C 6.925781 4.046875 7.886719 4.988281 8.796875 7.628906 C 9.394531 9.34375 9.878906 11.917969 9.496094 13.363281 Z M 9.496094 13.363281 "/>
</g>
</svg>
