<?xml version="1.0" encoding="UTF-8"?>
<svg xmlns="http://www.w3.org/2000/svg" xmlns:xlink="http://www.w3.org/1999/xlink" width="15pt" height="15pt" viewBox="0 0 15 15" version="1.1">
<g id="surface1">
<path style=" stroke:none;fill-rule:nonzero;fill:rgb(89.019608%,66.27451%,9.803922%);fill-opacity:1;" d="M 11.808594 13.566406 L 10.734375 14.851562 C 10.503906 15.082031 10 14.855469 10 14.625 L 10 5 C 10 4.769531 10.988281 3.125 12.082031 3.125 L 12.070312 12.710938 C 12.070312 13.183594 12.03125 13.257812 11.808594 13.566406 Z M 11.808594 13.566406 "/>
<path style=" stroke:none;fill-rule:nonzero;fill:rgb(100%,85.098039%,51.372549%);fill-opacity:1;" d="M 10.832031 4.355469 L 3.75 4.355469 L 3.832031 4.210938 L 5.308594 3.125 C 5.511719 2.96875 5.65625 2.917969 5.882812 2.917969 L 11.871094 2.917969 C 11.949219 2.917969 12.082031 3.03125 12.011719 3.113281 Z M 10.832031 4.355469 "/>
<path style=" stroke:none;fill-rule:nonzero;fill:rgb(100%,80%,30.196078%);fill-opacity:1;" d="M 10.417969 15 L 4.167969 15 C 3.9375 15 3.75 14.8125 3.75 14.582031 L 3.75 4.355469 C 3.75 4.355469 3.9375 4.167969 4.167969 4.167969 L 10.417969 4.167969 C 10.648438 4.167969 10.832031 4.355469 10.832031 4.355469 L 10.832031 14.582031 C 10.832031 14.8125 10.648438 15 10.417969 15 Z M 10.417969 15 "/>
<path style=" stroke:none;fill-rule:nonzero;fill:rgb(95.686275%,56.470588%,4.705882%);fill-opacity:1;" d="M 7.5 11.25 C 7.5 11.941406 6.941406 12.5 6.25 12.5 C 5.558594 12.5 5 11.941406 5 11.25 C 5 10.558594 5.558594 10 6.25 10 C 6.941406 10 7.5 10.558594 7.5 11.25 Z M 7.5 11.25 "/>
<path style=" stroke:none;fill-rule:nonzero;fill:rgb(91.764706%,34.901961%,43.137255%);fill-opacity:1;" d="M 7.917969 8.75 C 7.917969 9.671875 7.171875 10.417969 6.25 10.417969 C 5.328125 10.417969 4.582031 9.671875 4.582031 8.75 C 4.582031 7.828125 5.328125 7.082031 6.25 7.082031 C 7.171875 7.082031 7.917969 7.828125 7.917969 8.75 Z M 7.917969 8.75 "/>
<path style=" stroke:none;fill-rule:nonzero;fill:rgb(100%,90.980392%,71.372549%);fill-opacity:1;" d="M 10 9.792969 C 10 10.828125 9.160156 11.667969 8.125 11.667969 C 7.089844 11.667969 6.25 10.828125 6.25 9.792969 C 6.25 8.757812 7.089844 7.917969 8.125 7.917969 C 9.160156 7.917969 10 8.757812 10 9.792969 Z M 10 9.792969 "/>
<path style=" stroke:none;fill-rule:nonzero;fill:rgb(100%,80%,30.196078%);fill-opacity:1;" d="M 9.167969 9.792969 C 9.167969 10.367188 8.699219 10.832031 8.125 10.832031 C 7.550781 10.832031 7.082031 10.367188 7.082031 9.792969 C 7.082031 9.214844 7.550781 8.75 8.125 8.75 C 8.699219 8.75 9.167969 9.214844 9.167969 9.792969 Z M 9.167969 9.792969 "/>
<path style=" stroke:none;fill-rule:nonzero;fill:rgb(80%,83.921569%,86.666667%);fill-opacity:1;" d="M 9.582031 3.527344 C 9.582031 3.527344 9.496094 3.707031 9.179688 3.707031 C 8.863281 3.707031 8.75 3.527344 8.75 3.527344 L 8.75 1.808594 C 8.75 0.980469 8.972656 0.429688 9.410156 0.179688 C 9.828125 -0.0585938 10.378906 0.015625 11.042969 0.402344 C 11.574219 0.710938 12.886719 1.640625 12.917969 1.667969 C 12.917969 1.667969 12.984375 1.902344 12.789062 2.125 C 12.59375 2.347656 12.386719 2.3125 12.386719 2.3125 C 12.378906 2.304688 11.097656 1.398438 10.621094 1.121094 C 10.253906 0.90625 9.964844 0.863281 9.828125 0.941406 C 9.714844 1.007812 9.582031 1.242188 9.582031 1.808594 Z M 9.582031 3.527344 "/>
<path style=" stroke:none;fill-rule:nonzero;fill:rgb(60%,66.666667%,70.980392%);fill-opacity:1;" d="M 10.597656 0.183594 C 10.128906 -0.00390625 9.730469 -0.00390625 9.410156 0.179688 C 9.078125 0.367188 8.871094 0.726562 8.789062 1.246094 L 9.613281 1.398438 C 9.660156 1.121094 9.746094 0.988281 9.828125 0.941406 C 9.921875 0.886719 10.09375 0.894531 10.308594 0.972656 Z M 10.597656 0.183594 "/>
<path style=" stroke:none;fill-rule:nonzero;fill:rgb(100%,90.980392%,71.372549%);fill-opacity:1;" d="M 10.804688 4.582031 L 3.957031 4.582031 C 3.84375 4.582031 3.75 4.488281 3.75 4.375 C 3.75 4.261719 3.84375 4.167969 3.957031 4.167969 L 10.804688 4.167969 C 10.917969 4.167969 11.011719 4.261719 11.011719 4.375 C 11.011719 4.488281 10.917969 4.582031 10.804688 4.582031 Z M 10.804688 4.582031 "/>
<path style=" stroke:none;fill-rule:nonzero;fill:rgb(100%,90.980392%,71.372549%);fill-opacity:1;" d="M 12.046875 3.25 L 10.988281 4.511719 C 10.921875 4.597656 10.792969 4.605469 10.703125 4.535156 C 10.613281 4.460938 10.597656 4.335938 10.664062 4.25 L 11.722656 2.984375 C 11.789062 2.902344 11.917969 2.894531 12.007812 2.964844 C 12.09375 3.039062 12.113281 3.164062 12.046875 3.25 Z M 12.046875 3.25 "/>
</g>
</svg>
