<?xml version="1.0" encoding="UTF-8"?>
<svg xmlns="http://www.w3.org/2000/svg" xmlns:xlink="http://www.w3.org/1999/xlink" width="15pt" height="15pt" viewBox="0 0 15 15" version="1.1">
<g id="surface1">
<path style=" stroke:none;fill-rule:nonzero;fill:rgb(40%,45.882353%,49.803922%);fill-opacity:1;" d="M 13.644531 15 L 1.667969 15 C 0.746094 15 0 14.253906 0 13.332031 L 0 1.667969 C 0 0.746094 0.746094 0 1.667969 0 L 7.933594 0 C 7.933594 0 9.953125 0.238281 9.828125 0.832031 C 9.679688 1.515625 8.804688 3.707031 8.765625 4.046875 C 8.695312 4.71875 10.742188 5.875 10.640625 6.667969 C 10.335938 9.140625 9.183594 10.105469 9.597656 11.378906 C 9.652344 11.539062 11.132812 11.675781 11.511719 11.875 C 13.75 13.050781 13.734375 15 13.644531 15 Z M 13.644531 15 "/>
<path style=" stroke:none;fill-rule:nonzero;fill:rgb(60%,66.666667%,70.980392%);fill-opacity:1;" d="M 12.5 15 L 1.667969 15 C 0.746094 15 0 14.253906 0 13.332031 L 0 1.667969 C 0 0.746094 0.746094 0 1.667969 0 L 4.652344 0 C 4.652344 0 8.382812 0.359375 8.335938 0.859375 C 8.265625 1.628906 6.820312 4.074219 7.292969 4.53125 C 7.761719 4.988281 9.136719 6.113281 9.195312 6.839844 C 9.269531 7.773438 7.410156 10.296875 8.398438 12.382812 C 8.710938 13.050781 10.503906 12.78125 11.035156 13.15625 C 12.351562 14.085938 12.625 15 12.5 15 Z M 12.5 15 "/>
<path style=" stroke:none;fill-rule:nonzero;fill:rgb(96.862745%,87.058824%,80.784314%);fill-opacity:1;" d="M 13.753906 1.5625 C 13.285156 1.207031 12.414062 1.265625 12.121094 1.84375 C 11.710938 2.648438 12 3.507812 12.558594 3.597656 C 13.140625 3.691406 13.519531 3.660156 13.90625 3.140625 C 14.296875 2.621094 14.226562 1.914062 13.753906 1.5625 Z M 13.753906 1.5625 "/>
<path style=" stroke:none;fill-rule:nonzero;fill:rgb(96.862745%,87.058824%,80.784314%);fill-opacity:1;" d="M 13.714844 3.25 C 14.734375 2.554688 12.855469 2.136719 12.855469 2.136719 C 12.5 2.054688 12.582031 2.703125 12.328125 2.976562 C 12.15625 3.167969 12.601562 3.414062 12.601562 3.414062 C 12.601562 3.414062 12.785156 3.578125 12.769531 3.695312 C 12.753906 3.8125 12.695312 3.832031 12.5 3.875 C 12.25 4.390625 12.976562 5 13.277344 4.507812 C 13.398438 4.316406 13.425781 4.121094 13.441406 3.941406 L 13.671875 3.992188 C 13.53125 3.722656 13.464844 3.421875 13.714844 3.25 Z M 13.714844 3.25 "/>
<path style=" stroke:none;fill-rule:nonzero;fill:rgb(16.078431%,18.431373%,20%);fill-opacity:1;" d="M 14.371094 1.925781 C 14.207031 1.5 13.414062 0.949219 12.738281 1.246094 C 12.371094 1.074219 12.125 1.398438 12.097656 1.617188 C 12.078125 1.792969 12.480469 1.949219 12.496094 2.296875 C 12.589844 2.238281 12.65625 2.078125 12.664062 1.988281 C 12.761719 2.148438 12.613281 2.464844 13.070312 2.824219 C 13.511719 3.171875 13.304688 3.589844 13.304688 3.589844 C 13.304688 3.589844 13.601562 3.539062 13.84375 3.375 C 14.304688 3.066406 14.550781 2.394531 14.371094 1.925781 Z M 12.398438 12.425781 C 12.398438 12.425781 12.566406 12.539062 13.03125 12.703125 C 13.214844 12.765625 13.011719 13.46875 12.902344 13.566406 C 12.796875 13.667969 11.992188 13.828125 11.265625 13.609375 C 10.605469 13.40625 11.097656 13.21875 11.578125 13.113281 C 12.058594 13.007812 12.398438 12.425781 12.398438 12.425781 Z M 12.398438 12.425781 "/>
<path style=" stroke:none;fill-rule:nonzero;fill:rgb(93.333333%,76.078431%,67.843137%);fill-opacity:1;" d="M 11.796875 5.964844 C 11.335938 6.160156 10.832031 6.375 10.601562 6.304688 C 10.425781 6.253906 10.085938 6.144531 9.8125 6.148438 C 9.542969 6.148438 9.496094 6.289062 9.679688 6.574219 C 9.859375 6.855469 10.230469 7.003906 10.527344 6.914062 C 10.820312 6.824219 11.472656 6.792969 11.871094 6.785156 C 12.269531 6.773438 12.578125 5.632812 11.796875 5.964844 Z M 11.796875 5.964844 "/>
<path style=" stroke:none;fill-rule:nonzero;fill:rgb(93.333333%,76.078431%,67.843137%);fill-opacity:1;" d="M 11.605469 6.089844 C 11.804688 5.980469 12.160156 5.925781 12.160156 5.925781 L 12.546875 4.980469 L 13.582031 5.660156 C 13.582031 5.660156 12.894531 6.46875 12.726562 6.640625 C 12.558594 6.816406 11.980469 6.816406 11.519531 6.796875 C 11.171875 6.78125 11.378906 6.210938 11.605469 6.089844 Z M 12.425781 10.90625 C 12.425781 10.90625 11.285156 10.125 11.203125 10.457031 C 11.121094 10.789062 12.140625 11.667969 12.386719 12.492188 C 12.488281 12.828125 13.089844 13.1875 13.09375 12.527344 C 13.109375 11.386719 12.425781 10.90625 12.425781 10.90625 Z M 12.425781 10.90625 "/>
<path style=" stroke:none;fill-rule:nonzero;fill:rgb(93.333333%,76.078431%,67.843137%);fill-opacity:1;" d="M 11.316406 10.625 C 11.316406 10.625 11.683594 11.355469 12.054688 11.277344 C 12.421875 11.203125 13.394531 10.027344 13.6875 9.582031 C 13.980469 9.132812 13.859375 8.050781 13.199219 8.574219 C 12.539062 9.097656 11.316406 10.625 11.316406 10.625 Z M 11.316406 10.625 "/>
<path style=" stroke:none;fill-rule:nonzero;fill:rgb(77.647059%,22.352941%,0%);fill-opacity:1;" d="M 14.261719 9.140625 L 11.605469 9.480469 L 12.929688 10.683594 Z M 14.261719 9.140625 "/>
<path style=" stroke:none;fill-rule:nonzero;fill:rgb(96.862745%,87.058824%,80.784314%);fill-opacity:1;" d="M 11.507812 9.222656 C 11.507812 9.222656 10.523438 10.121094 10.433594 10.480469 C 10.34375 10.839844 10.433594 12.007812 10.164062 13.085938 C 9.898438 14.160156 10.613281 14.339844 10.703125 13.980469 C 10.792969 13.621094 11.472656 12.210938 11.367188 11.539062 C 11.304688 11.132812 12.40625 10.207031 12.40625 10.207031 Z M 11.507812 9.222656 "/>
<path style=" stroke:none;fill-rule:nonzero;fill:rgb(86.666667%,33.333333%,12.156863%);fill-opacity:1;" d="M 12.417969 8.027344 C 11.882812 8.378906 11.609375 8.886719 10.863281 9.714844 L 11.863281 10.78125 C 11.863281 10.78125 14.375 9.828125 14.757812 8.546875 C 15.089844 7.445312 14.136719 6.820312 14.136719 6.820312 C 14.136719 6.820312 12.933594 7.691406 12.417969 8.027344 Z M 12.417969 8.027344 "/>
<path style=" stroke:none;fill-rule:nonzero;fill:rgb(96.862745%,87.058824%,80.784314%);fill-opacity:1;" d="M 10.476562 3.265625 C 10.085938 2.753906 9.507812 2.238281 9.433594 1.910156 C 9.347656 1.511719 9.367188 1.097656 8.8125 0.765625 C 8.460938 0.554688 8.695312 1.132812 8.746094 1.894531 C 8.777344 2.335938 9.441406 3.605469 9.84375 4.019531 C 10.101562 4.285156 11.339844 4.652344 11.746094 5.535156 C 11.816406 5.683594 12 5.964844 12.214844 6.300781 C 12.566406 6.859375 12.773438 7.332031 12.488281 7.980469 C 13.730469 8.046875 14.703125 7.519531 14.703125 7.519531 C 14.335938 6.554688 14.613281 5.714844 14.3125 4.957031 C 13.832031 3.757812 13.300781 3.710938 12.5 3.875 C 12.5 3.875 12.054688 3.648438 11.605469 3.644531 C 11.257812 3.507812 10.925781 3.390625 10.476562 3.265625 Z M 10.476562 3.265625 "/>
<path style=" stroke:none;fill-rule:nonzero;fill:rgb(98.039216%,45.490196%,24.313725%);fill-opacity:1;" d="M 12.40625 7.976562 C 13.652344 8.039062 14.75 7.632812 14.75 7.632812 C 14.429688 6.644531 14.613281 5.714844 14.3125 4.957031 C 14.246094 4.789062 14.175781 4.648438 14.101562 4.53125 C 14.097656 4.636719 14.039062 4.71875 13.851562 4.679688 C 13.449219 4.59375 13.191406 4.148438 12.792969 3.886719 C 12.699219 3.882812 12.601562 3.878906 12.5 3.875 C 12.816406 4.121094 12.949219 4.777344 12.765625 5.246094 C 12.582031 5.71875 12.210938 5.824219 11.804688 5.675781 C 11.761719 6.0625 11.996094 6.246094 12.171875 6.601562 C 12.4375 7.132812 12.550781 7.378906 12.40625 7.976562 Z M 12.40625 7.976562 "/>
<path style=" stroke:none;fill-rule:nonzero;fill:rgb(77.647059%,22.352941%,0%);fill-opacity:1;" d="M 12.40625 7.707031 C 12.410156 7.6875 12.890625 7.761719 13.582031 7.65625 C 14.121094 7.574219 14.75 7.429688 14.75 7.429688 L 14.792969 7.703125 C 14.792969 7.703125 13.992188 7.90625 13.511719 7.964844 C 13.03125 8.019531 12.417969 8.027344 12.417969 8.027344 C 12.417969 8.027344 12.375 7.878906 12.40625 7.707031 Z M 12.40625 7.707031 "/>
<path style=" stroke:none;fill-rule:nonzero;fill:rgb(16.078431%,18.431373%,20%);fill-opacity:1;" d="M 10.125 13.328125 C 10.125 13.328125 10.28125 13.746094 10.800781 13.6875 C 10.914062 13.675781 10.765625 14.175781 10.636719 14.296875 C 10.507812 14.421875 9.21875 15.015625 8.570312 14.652344 C 7.925781 14.292969 8.425781 14.152344 8.929688 14.007812 C 9.433594 13.863281 10.125 13.328125 10.125 13.328125 Z M 10.125 13.328125 "/>
<path style=" stroke:none;fill-rule:nonzero;fill:rgb(40%,45.882353%,49.803922%);fill-opacity:1;" d="M 2.640625 1.007812 L 4.601562 1.007812 C 4.929688 1.007812 3.679688 2.320312 3.230469 2.320312 C 2.777344 2.320312 2.046875 1.007812 2.640625 1.007812 Z M 4.445312 3.59375 L 6.300781 3.59375 C 6.613281 3.59375 5.277344 4.824219 4.859375 4.824219 C 4.445312 4.824219 3.90625 3.59375 4.445312 3.59375 Z M 3.699219 7.394531 L 7.5 7.394531 C 8.039062 7.394531 5.191406 9.515625 4.722656 9.515625 C 4.253906 9.515625 2.671875 7.394531 3.699219 7.394531 Z M 1.320312 12.105469 L 4.683594 12.105469 C 5.46875 12.105469 3.316406 13.992188 2.550781 13.992188 C 1.789062 13.992188 0.554688 12.105469 1.320312 12.105469 Z M 1.320312 12.105469 "/>
</g>
</svg>
