<?xml version="1.0" encoding="UTF-8"?>
<svg xmlns="http://www.w3.org/2000/svg" xmlns:xlink="http://www.w3.org/1999/xlink" width="15pt" height="15pt" viewBox="0 0 15 15" version="1.1">
<g id="surface1">
<path style=" stroke:none;fill-rule:nonzero;fill:rgb(16.078431%,18.431373%,20%);fill-opacity:1;" d="M 3.421875 12.53125 C 3.421875 12.53125 3.460938 12.480469 3.496094 12.355469 C 3.527344 12.230469 3.523438 11.980469 3.515625 11.945312 C 3.503906 11.90625 3.492188 11.878906 3.445312 11.878906 C 3.410156 11.878906 3.128906 11.9375 2.96875 11.902344 C 2.671875 11.835938 2.597656 11.535156 2.597656 11.535156 C 2.597656 11.535156 2.410156 11.585938 2.257812 11.628906 C 2.109375 11.671875 1.925781 11.746094 1.796875 11.785156 C 1.6875 11.816406 1.570312 11.816406 1.457031 11.800781 C 1.339844 11.785156 1.25 11.757812 1.222656 11.753906 C 1.191406 11.746094 0.972656 11.660156 0.90625 11.882812 L 0.890625 11.949219 C 0.890625 11.949219 1.253906 12.21875 1.808594 12.363281 C 2.367188 12.507812 2.496094 12.367188 2.855469 12.460938 C 3.21875 12.554688 3.421875 12.53125 3.421875 12.53125 Z M 3.421875 12.53125 "/>
<path style=" stroke:none;fill-rule:nonzero;fill:rgb(16.078431%,18.431373%,20%);fill-opacity:1;" d="M 2.609375 12.703125 C 2.589844 12.675781 2.582031 12.601562 2.5625 12.585938 C 2.546875 12.570312 2.320312 12.558594 2.214844 12.558594 C 2.109375 12.554688 1.925781 12.550781 1.722656 12.5 C 1.523438 12.445312 1.277344 12.320312 1.125 12.238281 C 0.976562 12.15625 0.863281 12.066406 0.839844 12.042969 C 0.816406 12.015625 0.824219 12.011719 0.832031 11.996094 C 0.835938 11.984375 0.875 11.921875 0.875 11.921875 C 0.875 11.921875 0.964844 12 1.125 12.089844 C 1.289062 12.179688 1.457031 12.257812 1.757812 12.335938 C 2.058594 12.414062 2.257812 12.417969 2.425781 12.414062 C 2.636719 12.414062 2.933594 12.429688 3.136719 12.484375 C 3.292969 12.523438 3.414062 12.507812 3.457031 12.507812 C 3.46875 12.507812 3.476562 12.515625 3.472656 12.527344 L 3.402344 12.792969 C 3.398438 12.8125 3.375 12.847656 3.328125 12.84375 C 3.277344 12.84375 2.628906 12.730469 2.609375 12.703125 Z M 2.609375 12.703125 "/>
<path style=" stroke:none;fill-rule:nonzero;fill:rgb(25.882353%,53.72549%,75.686275%);fill-opacity:1;" d="M 10.011719 7.199219 C 10.09375 7.792969 9.957031 8.425781 9.503906 8.582031 C 9.070312 8.734375 8.230469 8.632812 8.230469 8.632812 C 8.230469 8.632812 7.957031 8.828125 8.054688 9.144531 C 8.109375 9.324219 8.183594 9.414062 8.164062 9.433594 C 8.144531 9.449219 7.960938 9.441406 7.878906 9.445312 C 7.65625 9.453125 7.414062 9.394531 7 9.320312 C 6.585938 9.242188 6.398438 9.253906 5.949219 9.167969 C 5.449219 9.078125 5.09375 8.894531 4.910156 8.441406 C 4.753906 8.054688 4.949219 7.550781 5.5 7.289062 C 5.953125 7.078125 7.289062 6.988281 7.792969 6.992188 C 8.296875 7 9.941406 6.683594 10.011719 7.199219 Z M 10.011719 7.199219 "/>
<path style=" stroke:none;fill-rule:nonzero;fill:rgb(25.882353%,53.72549%,75.686275%);fill-opacity:1;" d="M 2.867188 12.011719 C 2.59375 11.976562 2.308594 11.8125 2.234375 11.558594 C 2.722656 10.730469 3.484375 8.296875 3.484375 8.296875 C 3.707031 7.546875 3.988281 6.816406 4.667969 6.859375 C 5.542969 6.914062 7.039062 7.082031 7.039062 7.082031 C 7.996094 7.136719 7.550781 7.460938 7.847656 7.8125 C 8.144531 8.164062 7.382812 8.683594 6.761719 8.699219 C 5.675781 8.71875 5.132812 8.652344 4.5 9.25 C 4.25 10.234375 3.789062 11.019531 3.550781 12.011719 C 3.21875 12.144531 3.140625 12.050781 2.867188 12.011719 Z M 2.867188 12.011719 "/>
<path style=" stroke:none;fill-rule:nonzero;fill:rgb(100%,86.27451%,36.470588%);fill-opacity:1;" d="M 8.941406 0.386719 C 8.378906 0.113281 7.488281 0.347656 7.296875 1.003906 C 7.03125 1.925781 7.503906 2.757812 8.097656 2.738281 C 8.722656 2.722656 9.109375 2.613281 9.410156 1.996094 C 9.710938 1.378906 9.5 0.660156 8.941406 0.386719 Z M 8.941406 0.386719 "/>
<path style=" stroke:none;fill-rule:nonzero;fill:rgb(100%,86.27451%,36.470588%);fill-opacity:1;" d="M 9.234375 2.148438 C 10.152344 1.226562 8.117188 1.164062 8.117188 1.164062 C 7.734375 1.148438 7.949219 1.808594 7.738281 2.140625 C 7.597656 2.375 8.109375 2.542969 8.109375 2.542969 C 8.109375 2.542969 8.347656 2.558594 8.339844 2.847656 L 8.339844 2.851562 C 8.335938 2.925781 8.320312 3.011719 8.277344 3.128906 C 8.058594 3.695312 8.8125 4.113281 9.027344 3.542969 C 9.113281 3.316406 9.105469 3.113281 9.085938 2.921875 L 9.082031 2.90625 C 9.050781 2.625 9.007812 2.375 9.234375 2.148438 Z M 9.234375 2.148438 "/>
<path style=" stroke:none;fill-rule:nonzero;fill:rgb(100%,67.45098%,20%);fill-opacity:1;" d="M 9.652344 0.644531 C 9.398438 0.234375 8.464844 -0.179688 7.820312 0.261719 C 7.40625 0.15625 7.210938 0.542969 7.230469 0.777344 C 7.246094 0.960938 7.691406 1.042969 7.777344 1.402344 C 7.863281 1.320312 7.898438 1.144531 7.890625 1.046875 C 8.023438 1.195312 7.929688 1.554688 8.476562 1.835938 C 9.007812 2.109375 8.871094 2.585938 8.871094 2.585938 C 8.871094 2.585938 9.171875 2.472656 9.390625 2.253906 C 9.808594 1.84375 9.933594 1.09375 9.652344 0.644531 Z M 9.652344 0.644531 "/>
<path style=" stroke:none;fill-rule:nonzero;fill:rgb(98.039216%,45.490196%,24.313725%);fill-opacity:1;" d="M 10.289062 6.738281 C 10.304688 7.039062 10.351562 7.4375 10.175781 7.390625 C 9.476562 7.214844 7.847656 7.203125 7.847656 7.203125 C 8.0625 6.050781 7.609375 5.25 7.671875 4.511719 C 7.746094 3.667969 8.34375 2.789062 8.859375 2.820312 C 9.078125 2.835938 9.332031 3 9.488281 3.140625 C 9.605469 3.246094 9.875 3.542969 9.964844 3.628906 C 10.425781 4.070312 10.015625 4.214844 10.101562 4.710938 C 10.285156 5.792969 10.277344 6.4375 10.289062 6.738281 Z M 10.289062 6.738281 "/>
<path style=" stroke:none;fill-rule:nonzero;fill:rgb(86.666667%,18.039216%,26.666667%);fill-opacity:1;" d="M 5.609375 11.289062 L 10.121094 11.683594 C 10.234375 11.695312 10.335938 11.609375 10.347656 11.496094 C 10.355469 11.378906 10.269531 11.277344 10.15625 11.269531 L 5.648438 10.871094 C 5.53125 10.863281 5.429688 10.949219 5.421875 11.0625 C 5.410156 11.175781 5.496094 11.277344 5.609375 11.289062 Z M 5.609375 11.289062 "/>
<path style=" stroke:none;fill-rule:nonzero;fill:rgb(86.666667%,18.039216%,26.666667%);fill-opacity:1;" d="M 10.121094 11.683594 C 10.003906 11.671875 9.921875 11.570312 9.929688 11.457031 L 10.113281 9.382812 C 10.121094 9.269531 10.222656 9.183594 10.339844 9.191406 C 10.453125 9.203125 10.535156 9.304688 10.527344 9.417969 L 10.347656 11.496094 C 10.335938 11.609375 10.234375 11.695312 10.121094 11.683594 Z M 5.644531 8.527344 C 5.53125 8.515625 5.429688 8.601562 5.421875 8.714844 L 4.996094 13.546875 C 4.988281 13.660156 5.074219 13.761719 5.1875 13.773438 C 5.300781 13.78125 5.402344 13.699219 5.414062 13.582031 L 5.835938 8.75 C 5.84375 8.636719 5.761719 8.535156 5.644531 8.527344 Z M 5.644531 8.527344 "/>
<path style=" stroke:none;fill-rule:nonzero;fill:rgb(16.078431%,18.431373%,20%);fill-opacity:1;" d="M 9.800781 8.578125 C 10.398438 8.496094 10.984375 8.519531 10.777344 8.808594 C 10.574219 9.09375 10.121094 9.601562 9.355469 9.519531 C 8.585938 9.433594 9.433594 8.632812 9.800781 8.578125 Z M 9.800781 8.578125 "/>
<path style=" stroke:none;fill-rule:nonzero;fill:rgb(16.078431%,18.431373%,20%);fill-opacity:1;" d="M 9.355469 9.519531 L 5.203125 9.15625 C 4.789062 9.117188 4.789062 9.117188 4.824219 8.703125 C 4.84375 8.476562 5.046875 8.304688 5.277344 8.324219 L 9.425781 8.6875 C 9.65625 8.707031 9.824219 8.910156 9.804688 9.140625 C 9.769531 9.554688 9.769531 9.554688 9.355469 9.519531 Z M 9.355469 9.519531 "/>
<path style=" stroke:none;fill-rule:nonzero;fill:rgb(86.666667%,18.039216%,26.666667%);fill-opacity:1;" d="M 9.566406 9.640625 L 5.003906 9.242188 C 4.886719 9.230469 4.804688 9.128906 4.8125 9.015625 C 4.824219 8.902344 4.925781 8.816406 5.039062 8.824219 L 9.605469 9.222656 C 9.71875 9.234375 9.804688 9.335938 9.792969 9.449219 C 9.785156 9.566406 9.683594 9.648438 9.566406 9.640625 Z M 9.566406 9.640625 "/>
<path style=" stroke:none;fill-rule:nonzero;fill:rgb(16.078431%,18.431373%,20%);fill-opacity:1;" d="M 11.367188 3.9375 L 11.003906 8.089844 C 10.964844 8.503906 10.964844 8.503906 10.550781 8.46875 C 10.324219 8.449219 10.152344 8.246094 10.171875 8.015625 L 10.535156 3.867188 C 10.554688 3.636719 10.757812 3.46875 10.988281 3.488281 C 11.402344 3.523438 11.402344 3.523438 11.367188 3.9375 Z M 11.367188 3.9375 "/>
<path style=" stroke:none;fill-rule:nonzero;fill:rgb(86.666667%,18.039216%,26.666667%);fill-opacity:1;" d="M 11.546875 3.75 L 11.148438 8.3125 C 11.136719 8.429688 11.035156 8.511719 10.921875 8.503906 C 10.808594 8.492188 10.722656 8.390625 10.734375 8.277344 L 11.132812 3.710938 C 11.140625 3.597656 11.242188 3.511719 11.359375 3.523438 C 11.472656 3.53125 11.558594 3.632812 11.546875 3.75 Z M 11.546875 3.75 "/>
<path style=" stroke:none;fill-rule:nonzero;fill:rgb(16.078431%,18.431373%,20%);fill-opacity:1;" d="M 10.257812 7.714844 L 7.113281 7.441406 C 6.796875 7.414062 6.796875 7.414062 6.824219 7.101562 C 6.839844 6.933594 6.992188 6.804688 7.164062 6.820312 L 10.3125 7.09375 C 10.484375 7.109375 10.613281 7.261719 10.601562 7.433594 C 10.574219 7.742188 10.574219 7.742188 10.257812 7.714844 Z M 10.257812 7.714844 "/>
<path style=" stroke:none;fill-rule:nonzero;fill:rgb(86.666667%,18.039216%,26.666667%);fill-opacity:1;" d="M 9.398438 9.207031 C 9.816406 9.242188 10.640625 9.316406 10.75 8.070312 C 10.859375 6.824219 11.277344 6.863281 11.167969 8.105469 C 11.058594 9.351562 10.371094 9.710938 9.359375 9.621094 C 8.53125 9.550781 8.566406 9.132812 9.398438 9.207031 Z M 5.042969 8.824219 C 5.875 8.894531 6.039062 9.332031 5.210938 9.257812 C 4.84375 9.226562 4.808594 9.382812 4.726562 9.703125 C 4.648438 10.003906 4.535156 10.453125 4.367188 11.085938 C 4.246094 11.546875 3.859375 11.378906 3.960938 10.976562 C 4.132812 10.296875 4.292969 9.707031 4.398438 9.328125 C 4.507812 8.945312 4.609375 8.789062 5.042969 8.824219 Z M 5.042969 8.824219 "/>
<path style=" stroke:none;fill-rule:nonzero;fill:rgb(40%,45.882353%,49.803922%);fill-opacity:1;" d="M 10.832031 11.457031 C 10.832031 11.804688 10.554688 12.082031 10.207031 12.082031 C 9.863281 12.082031 9.582031 11.804688 9.582031 11.457031 C 9.582031 11.113281 9.863281 10.832031 10.207031 10.832031 C 10.554688 10.832031 10.832031 11.113281 10.832031 11.457031 Z M 10.832031 11.457031 "/>
<path style=" stroke:none;fill-rule:nonzero;fill:rgb(40%,45.882353%,49.803922%);fill-opacity:1;" d="M 13.019531 12.839844 L 10.492188 11.382812 L 11.953125 8.855469 L 11.589844 8.648438 L 10.132812 11.171875 L 7.605469 9.714844 L 7.398438 10.078125 L 9.921875 11.535156 L 8.464844 14.058594 L 8.828125 14.269531 L 10.285156 11.742188 L 12.808594 13.203125 Z M 13.019531 12.839844 "/>
<path style=" stroke:none;fill-rule:nonzero;fill:rgb(40%,45.882353%,49.803922%);fill-opacity:1;" d="M 11.21875 14.421875 L 10.464844 11.605469 L 13.28125 10.851562 L 13.171875 10.449219 L 10.355469 11.203125 L 9.601562 8.386719 L 9.199219 8.492188 L 9.953125 11.3125 L 7.136719 12.066406 L 7.242188 12.46875 L 10.0625 11.714844 L 10.816406 14.53125 Z M 11.21875 14.421875 "/>
<path style=" stroke:none;fill-rule:nonzero;fill:rgb(16.078431%,18.431373%,20%);fill-opacity:1;" d="M 10.207031 7.917969 C 8.253906 7.917969 6.667969 9.503906 6.667969 11.457031 C 6.667969 13.414062 8.253906 15 10.207031 15 C 12.164062 15 13.75 13.414062 13.75 11.457031 C 13.75 9.503906 12.164062 7.917969 10.207031 7.917969 Z M 10.207031 14.167969 C 8.710938 14.167969 7.5 12.953125 7.5 11.457031 C 7.5 9.960938 8.710938 8.75 10.207031 8.75 C 11.703125 8.75 12.917969 9.960938 12.917969 11.457031 C 12.917969 12.953125 11.703125 14.167969 10.207031 14.167969 Z M 10.207031 14.167969 "/>
<path style=" stroke:none;fill-rule:nonzero;fill:rgb(40%,45.882353%,49.803922%);fill-opacity:1;" d="M 10.207031 8.332031 C 8.484375 8.332031 7.082031 9.734375 7.082031 11.457031 C 7.082031 13.183594 8.484375 14.582031 10.207031 14.582031 C 11.933594 14.582031 13.332031 13.183594 13.332031 11.457031 C 13.332031 9.734375 11.933594 8.332031 10.207031 8.332031 Z M 10.207031 14.167969 C 8.710938 14.167969 7.5 12.953125 7.5 11.457031 C 7.5 9.960938 8.710938 8.75 10.207031 8.75 C 11.703125 8.75 12.917969 9.960938 12.917969 11.457031 C 12.917969 12.953125 11.703125 14.167969 10.207031 14.167969 Z M 6.394531 13.984375 L 5.492188 13.464844 L 6.015625 12.5625 L 5.652344 12.355469 L 5.132812 13.257812 L 4.230469 12.734375 L 4.023438 13.097656 L 4.921875 13.617188 L 4.402344 14.519531 L 4.765625 14.726562 L 5.285156 13.828125 L 6.1875 14.347656 Z M 6.394531 13.984375 "/>
<path style=" stroke:none;fill-rule:nonzero;fill:rgb(16.078431%,18.431373%,20%);fill-opacity:1;" d="M 5.207031 12.082031 C 4.402344 12.082031 3.75 12.734375 3.75 13.542969 C 3.75 14.347656 4.402344 15 5.207031 15 C 6.015625 15 6.667969 14.347656 6.667969 13.542969 C 6.667969 12.734375 6.015625 12.082031 5.207031 12.082031 Z M 5.207031 14.582031 C 4.632812 14.582031 4.167969 14.117188 4.167969 13.542969 C 4.167969 12.964844 4.632812 12.5 5.207031 12.5 C 5.785156 12.5 6.25 12.964844 6.25 13.542969 C 6.25 14.117188 5.785156 14.582031 5.207031 14.582031 Z M 5.207031 14.582031 "/>
<path style=" stroke:none;fill-rule:nonzero;fill:rgb(86.666667%,18.039216%,26.666667%);fill-opacity:1;" d="M 4.285156 10.566406 C 4.175781 10.539062 4.0625 10.605469 4.03125 10.714844 L 3.382812 13.128906 C 3.355469 13.242188 3.421875 13.355469 3.53125 13.386719 C 3.644531 13.414062 3.757812 13.347656 3.785156 13.238281 L 4.433594 10.824219 C 4.464844 10.710938 4.398438 10.597656 4.285156 10.566406 Z M 4.285156 10.566406 "/>
<path style=" stroke:none;fill-rule:nonzero;fill:rgb(40%,45.882353%,49.803922%);fill-opacity:1;" d="M 3.53125 13.386719 L 1.921875 12.953125 C 1.8125 12.925781 1.746094 12.808594 1.773438 12.699219 C 1.804688 12.589844 1.917969 12.523438 2.027344 12.550781 L 3.640625 12.984375 C 3.75 13.011719 3.816406 13.128906 3.785156 13.238281 C 3.757812 13.347656 3.640625 13.414062 3.53125 13.386719 Z M 3.53125 13.386719 "/>
<path style=" stroke:none;fill-rule:nonzero;fill:rgb(86.666667%,18.039216%,26.666667%);fill-opacity:1;" d="M 12.542969 4.152344 L 11.3125 3.9375 C 11.199219 3.917969 11.125 3.808594 11.144531 3.695312 C 11.164062 3.582031 11.269531 3.507812 11.382812 3.527344 L 12.613281 3.742188 C 12.726562 3.761719 12.804688 3.871094 12.785156 3.984375 C 12.765625 4.097656 12.65625 4.171875 12.542969 4.152344 Z M 12.542969 4.152344 "/>
<path style=" stroke:none;fill-rule:nonzero;fill:rgb(16.078431%,18.431373%,20%);fill-opacity:1;" d="M 12.953125 4.226562 L 11.863281 4.03125 C 11.75 4.011719 11.753906 3.917969 11.773438 3.804688 C 11.796875 3.691406 11.824219 3.601562 11.9375 3.621094 L 13.027344 3.816406 C 13.136719 3.835938 13.214844 3.945312 13.195312 4.058594 C 13.175781 4.171875 13.066406 4.246094 12.953125 4.226562 Z M 12.953125 4.226562 "/>
<path style=" stroke:none;fill-rule:nonzero;fill:rgb(100%,86.27451%,36.470588%);fill-opacity:1;" d="M 9.214844 4.414062 C 9.691406 4.828125 10.65625 5.539062 10.648438 5.644531 C 10.59375 6.257812 10.875 6.96875 10.800781 7.347656 C 10.75 7.625 10.523438 7.820312 10.554688 7.972656 C 10.832031 7.96875 10.738281 8.449219 10.859375 8.664062 C 10.984375 8.890625 11.34375 8.625 11.390625 8.269531 C 11.425781 8.007812 11.347656 7.808594 11.320312 7.539062 C 11.285156 7.15625 11.777344 6.015625 11.414062 5.261719 C 11.289062 5.007812 10.777344 4.3125 9.898438 3.542969 C 9.652344 3.734375 9.214844 4.414062 9.214844 4.414062 Z M 9.214844 4.414062 "/>
</g>
</svg>
