<?xml version="1.0" encoding="UTF-8"?>
<svg xmlns="http://www.w3.org/2000/svg" xmlns:xlink="http://www.w3.org/1999/xlink" width="15pt" height="15pt" viewBox="0 0 15 15" version="1.1">
<g id="surface1">
<path style=" stroke:none;fill-rule:nonzero;fill:rgb(37.647059%,20.784314%,16.470588%);fill-opacity:1;" d="M 7.132812 2.335938 C 3.964844 2.335938 2.375 4.390625 2.003906 5.914062 C 1.730469 7.027344 2.144531 8.328125 2.269531 9.75 C 2.378906 11.011719 3.117188 12.074219 3.871094 12.285156 C 4.953125 13.65625 6.109375 13.597656 8.042969 13.597656 C 11.824219 13.597656 13.242188 10.769531 13.242188 7.523438 C 13.238281 5.039062 11.488281 2.335938 7.132812 2.335938 Z M 7.132812 2.335938 "/>
<path style=" stroke:none;fill-rule:nonzero;fill:rgb(68.627451%,49.411765%,34.117647%);fill-opacity:1;" d="M 11.773438 7.789062 C 11.410156 7.28125 10.941406 6.875 9.914062 6.730469 C 10.296875 6.90625 10.667969 7.515625 10.714844 7.851562 C 10.765625 8.1875 10.8125 8.460938 10.507812 8.125 C 9.285156 6.773438 7.957031 7.304688 6.640625 6.480469 C 5.71875 5.90625 5.4375 5.269531 5.4375 5.269531 C 5.4375 5.269531 5.328125 6.121094 3.929688 6.984375 C 3.527344 7.238281 3.042969 7.796875 2.777344 8.621094 C 2.582031 9.214844 2.605469 9.582031 2.652344 10 C 3.144531 12.664062 4.953125 14.167969 7.5 14.167969 C 10.042969 14.167969 11.851562 12.964844 12.34375 10.179688 C 12.355469 10.058594 12.363281 9.9375 12.363281 9.816406 C 12.363281 8.773438 12.191406 8.363281 11.773438 7.789062 Z M 11.773438 7.789062 "/>
<path style=" stroke:none;fill-rule:nonzero;fill:rgb(56.862745%,35.294118%,20.392157%);fill-opacity:1;" d="M 9.460938 10.957031 C 9.300781 10.792969 9.074219 10.875 8.875 10.953125 C 8.679688 11.027344 8.230469 11.25 7.5 11.25 C 6.769531 11.25 6.320312 11.027344 6.125 10.953125 C 5.925781 10.875 5.699219 10.792969 5.539062 10.957031 C 5.375 11.117188 5.375 11.382812 5.539062 11.542969 C 5.59375 11.601562 6.34375 12.082031 7.5 12.082031 C 8.65625 12.082031 9.40625 11.601562 9.460938 11.542969 C 9.625 11.382812 9.625 11.117188 9.460938 10.957031 Z M 7.917969 10.417969 L 7.082031 10.417969 C 6.851562 10.417969 6.667969 10.230469 6.667969 10 C 6.667969 9.769531 6.851562 9.582031 7.082031 9.582031 L 7.917969 9.582031 C 8.148438 9.582031 8.332031 9.769531 8.332031 10 C 8.332031 10.230469 8.148438 10.417969 7.917969 10.417969 Z M 7.917969 10.417969 "/>
<path style=" stroke:none;fill-rule:nonzero;fill:rgb(40%,12.941176%,7.45098%);fill-opacity:1;" d="M 5.832031 9.582031 C 5.601562 9.582031 5.417969 9.398438 5.417969 9.167969 L 5.417969 8.75 C 5.417969 8.519531 5.601562 8.332031 5.832031 8.332031 C 6.0625 8.332031 6.25 8.519531 6.25 8.75 L 6.25 9.167969 C 6.25 9.398438 6.0625 9.582031 5.832031 9.582031 Z M 9.167969 9.582031 C 8.9375 9.582031 8.75 9.398438 8.75 9.167969 L 8.75 8.75 C 8.75 8.519531 8.9375 8.332031 9.167969 8.332031 C 9.398438 8.332031 9.582031 8.519531 9.582031 8.75 L 9.582031 9.167969 C 9.582031 9.398438 9.398438 9.582031 9.167969 9.582031 Z M 9.167969 9.582031 "/>
</g>
</svg>
