<?xml version="1.0" encoding="UTF-8"?>
<svg xmlns="http://www.w3.org/2000/svg" xmlns:xlink="http://www.w3.org/1999/xlink" width="15pt" height="15pt" viewBox="0 0 15 15" version="1.1">
<g id="surface1">
<path style=" stroke:none;fill-rule:nonzero;fill:rgb(80%,83.921569%,86.666667%);fill-opacity:1;" d="M 15 15 L 15 14.167969 C 15 12.785156 13.878906 11.667969 12.5 11.667969 L 5.832031 11.667969 C 4.453125 11.667969 3.332031 12.785156 3.332031 14.167969 L 3.332031 15 Z M 15 15 "/>
<path style=" stroke:none;fill-rule:nonzero;fill:rgb(96.862745%,87.058824%,80.784314%);fill-opacity:1;" d="M 7.351562 11.683594 C 7.351562 12.867188 10.984375 12.917969 10.984375 11.683594 L 10.984375 10.121094 L 7.351562 10.121094 Z M 7.351562 11.683594 "/>
<path style=" stroke:none;fill-rule:nonzero;fill:rgb(93.333333%,76.078431%,67.843137%);fill-opacity:1;" d="M 7.347656 10.820312 C 7.851562 11.394531 8.480469 11.550781 9.164062 11.550781 C 9.847656 11.550781 10.476562 11.394531 10.984375 10.820312 L 10.984375 9.367188 L 7.347656 9.367188 Z M 7.347656 10.820312 "/>
<path style=" stroke:none;fill-rule:nonzero;fill:rgb(16.078431%,18.431373%,20%);fill-opacity:1;" d="M 10.480469 1.375 C 9.679688 1.117188 8.03125 1.183594 7.558594 1.796875 C 6.332031 1.820312 5.027344 3.019531 4.835938 4.480469 C 4.648438 5.929688 4.933594 6.511719 5.082031 7.601562 C 5.25 8.832031 5.945312 9.226562 6.5 9.394531 C 7.296875 10.445312 8.144531 10.402344 9.566406 10.402344 C 12.347656 10.402344 13.429688 8.542969 13.546875 5.386719 C 13.617188 3.476562 12.496094 2.027344 10.480469 1.375 Z M 10.480469 1.375 "/>
<path style=" stroke:none;fill-rule:nonzero;fill:rgb(96.862745%,87.058824%,80.784314%);fill-opacity:1;" d="M 12.3125 5.53125 C 12.042969 5.15625 11.699219 4.859375 10.941406 4.753906 C 11.226562 4.882812 11.496094 5.328125 11.53125 5.578125 C 11.566406 5.824219 11.605469 6.027344 11.378906 5.777344 C 10.480469 4.785156 9.503906 5.175781 8.535156 4.570312 C 7.859375 4.148438 7.652344 3.679688 7.652344 3.679688 C 7.652344 3.679688 7.570312 4.304688 6.542969 4.941406 C 6.246094 5.125 5.890625 5.535156 5.695312 6.144531 C 5.550781 6.582031 5.597656 6.96875 5.597656 7.632812 C 5.597656 9.578125 7.195312 11.207031 9.171875 11.207031 C 11.144531 11.207031 12.746094 9.5625 12.746094 7.632812 C 12.746094 6.425781 12.617188 5.953125 12.3125 5.53125 Z M 12.3125 5.53125 "/>
<path style=" stroke:none;fill-rule:nonzero;fill:rgb(75.686275%,41.176471%,30.980392%);fill-opacity:1;" d="M 9.222656 10.285156 C 8.074219 10.285156 7.722656 9.992188 7.664062 9.933594 C 7.558594 9.824219 7.558594 9.652344 7.664062 9.546875 C 7.765625 9.441406 7.933594 9.441406 8.039062 9.535156 C 8.0625 9.550781 8.339844 9.738281 9.222656 9.738281 C 10.140625 9.738281 10.402344 9.539062 10.40625 9.535156 C 10.511719 9.429688 10.679688 9.433594 10.785156 9.542969 C 10.894531 9.648438 10.886719 9.828125 10.78125 9.933594 C 10.722656 9.992188 10.371094 10.285156 9.222656 10.285156 M 9.566406 8.628906 L 8.773438 8.628906 C 8.664062 8.628906 8.574219 8.539062 8.574219 8.429688 C 8.574219 8.320312 8.664062 8.230469 8.773438 8.230469 L 9.566406 8.230469 C 9.675781 8.230469 9.765625 8.320312 9.765625 8.429688 C 9.765625 8.539062 9.675781 8.628906 9.566406 8.628906 Z M 9.566406 8.628906 "/>
<path style=" stroke:none;fill-rule:nonzero;fill:rgb(40%,12.941176%,7.45098%);fill-opacity:1;" d="M 7.582031 7.238281 C 7.363281 7.238281 7.183594 7.058594 7.183594 6.839844 L 7.183594 6.441406 C 7.183594 6.222656 7.363281 6.046875 7.582031 6.046875 C 7.800781 6.046875 7.976562 6.222656 7.976562 6.441406 L 7.976562 6.839844 C 7.976562 7.058594 7.800781 7.238281 7.582031 7.238281 Z M 10.757812 7.238281 C 10.539062 7.238281 10.363281 7.058594 10.363281 6.839844 L 10.363281 6.441406 C 10.363281 6.222656 10.539062 6.046875 10.757812 6.046875 C 10.976562 6.046875 11.15625 6.222656 11.15625 6.441406 L 11.15625 6.839844 C 11.15625 7.058594 10.976562 7.238281 10.757812 7.238281 Z M 10.757812 7.238281 "/>
<path style=" stroke:none;fill-rule:nonzero;fill:rgb(13.333333%,40%,60%);fill-opacity:1;" d="M 5.417969 11.667969 L 6.667969 11.667969 L 6.667969 15 L 5.417969 15 Z M 11.667969 11.667969 L 12.917969 11.667969 L 12.917969 15 L 11.667969 15 Z M 11.667969 11.667969 "/>
<path style=" stroke:none;fill-rule:nonzero;fill:rgb(13.333333%,40%,60%);fill-opacity:1;" d="M 5.417969 12.917969 L 12.917969 12.917969 L 12.917969 15 L 5.417969 15 Z M 5.417969 12.917969 "/>
<path style=" stroke:none;fill-rule:nonzero;fill:rgb(96.078431%,97.254902%,98.039216%);fill-opacity:1;" d="M 12.5 14.0625 C 12.5 13.773438 12.082031 13.542969 11.5625 13.542969 C 11.042969 13.542969 10.625 13.773438 10.625 14.0625 C 10.625 14.351562 11.042969 14.582031 11.5625 14.582031 C 12.082031 14.582031 12.5 14.351562 12.5 14.0625 Z M 12.5 14.0625 "/>
<path style=" stroke:none;fill-rule:nonzero;fill:rgb(23.137255%,53.333333%,76.470588%);fill-opacity:1;" d="M 12.917969 3.957031 C 12.917969 4.507812 5.417969 4.507812 5.417969 3.957031 C 5.417969 2.480469 5.832031 0.417969 9.167969 0.417969 C 12.082031 0.417969 12.917969 2.480469 12.917969 3.957031 Z M 12.917969 3.957031 "/>
<path style=" stroke:none;fill-rule:nonzero;fill:rgb(13.333333%,40%,60%);fill-opacity:1;" d="M 5.441406 3.957031 C 5.441406 3.957031 5.230469 5.207031 6.066406 5.207031 C 6.480469 5.207031 7.105469 4.375 9.191406 4.375 C 11.273438 4.375 11.898438 5.207031 12.316406 5.207031 C 13.148438 5.207031 12.941406 3.957031 12.941406 3.957031 C 12.941406 3.957031 12.316406 4.167969 9.191406 4.167969 C 6.066406 4.167969 5.441406 3.957031 5.441406 3.957031 Z M 5.441406 3.957031 "/>
<path style=" stroke:none;fill-rule:nonzero;fill:rgb(33.333333%,67.45098%,93.333333%);fill-opacity:1;" d="M 5.417969 3.75 C 5.417969 3.75 5.207031 5 6.042969 5 C 6.457031 5 7.082031 4.167969 9.167969 4.167969 C 11.25 4.167969 11.875 5 12.292969 5 C 13.125 5 12.917969 3.75 12.917969 3.75 C 12.917969 3.75 12.292969 3.957031 9.167969 3.957031 C 6.042969 3.957031 5.417969 3.75 5.417969 3.75 Z M 5.417969 3.75 "/>
<path style=" stroke:none;fill-rule:nonzero;fill:rgb(13.333333%,40%,60%);fill-opacity:1;" d="M 8.542969 0.625 C 8.542969 0.625 8.542969 0 9.167969 0 C 9.792969 0 9.792969 0.625 9.792969 0.625 Z M 8.542969 0.625 "/>
<path style=" stroke:none;fill-rule:nonzero;fill:rgb(40%,45.882353%,49.803922%);fill-opacity:1;" d="M 3.957031 9.847656 C 3.957031 9.097656 3.53125 8.449219 2.914062 8.117188 L 2.917969 9.953125 C 2.917969 10.183594 2.5 10.371094 1.980469 10.375 C 1.464844 10.375 1.042969 10.1875 1.042969 9.957031 L 1.039062 8.121094 C 0.421875 8.457031 0 9.105469 0 9.855469 C 0.00390625 10.726562 0.570312 11.457031 1.355469 11.722656 L 1.355469 15 L 2.605469 15 L 2.605469 11.722656 C 3.390625 11.457031 3.960938 10.722656 3.957031 9.847656 Z M 3.957031 9.847656 "/>
</g>
</svg>
