<?xml version="1.0" encoding="UTF-8"?>
<svg xmlns="http://www.w3.org/2000/svg" xmlns:xlink="http://www.w3.org/1999/xlink" width="15pt" height="15pt" viewBox="0 0 15 15" version="1.1">
<g id="surface1">
<path style=" stroke:none;fill-rule:nonzero;fill:rgb(16.078431%,18.431373%,20%);fill-opacity:1;" d="M 13.332031 15 L 13.332031 14.167969 C 13.332031 12.785156 12.214844 11.667969 10.832031 11.667969 L 4.167969 11.667969 C 2.785156 11.667969 1.667969 12.785156 1.667969 14.167969 L 1.667969 15 Z M 13.332031 15 "/>
<path style=" stroke:none;fill-rule:nonzero;fill:rgb(74.509804%,9.803922%,19.215686%);fill-opacity:1;" d="M 7.5 5 C 1.667969 5 1.25 7.082031 1.25 7.082031 C 1.25 8.75 4.167969 10 4.167969 11.667969 C 5 12.917969 7.5 13.332031 7.5 13.332031 C 7.5 13.332031 10 12.917969 10.832031 11.667969 C 10.832031 10 13.75 8.75 13.75 7.082031 C 13.75 7.082031 12.222656 5 7.5 5 Z M 7.5 5 "/>
<path style=" stroke:none;fill-rule:nonzero;fill:rgb(88.235294%,90.980392%,92.941176%);fill-opacity:1;" d="M 9.429688 12.515625 L 8.222656 13.054688 C 8.144531 12.96875 8.039062 12.917969 7.917969 12.917969 L 7.082031 12.917969 C 6.960938 12.917969 6.855469 12.96875 6.777344 13.054688 L 5.570312 12.515625 C 5.28125 12.441406 5 12.660156 5 12.957031 L 5 13.792969 C 5 14.121094 5.3125 14.367188 5.632812 14.285156 L 6.871094 13.683594 C 6.933594 13.722656 7.003906 13.75 7.082031 13.75 L 7.917969 13.75 C 7.996094 13.75 8.066406 13.722656 8.128906 13.683594 L 9.367188 14.285156 C 9.6875 14.367188 10 14.121094 10 13.792969 L 10 12.957031 C 10 12.660156 9.71875 12.441406 9.429688 12.515625 Z M 9.429688 12.515625 "/>
<path style=" stroke:none;fill-rule:nonzero;fill:rgb(60%,66.666667%,70.980392%);fill-opacity:1;" d="M 6.464844 13.886719 C 6.453125 13.863281 6.210938 13.386719 6.40625 12.898438 L 6.792969 13.050781 C 6.671875 13.359375 6.832031 13.691406 6.835938 13.691406 Z M 8.550781 13.886719 L 8.179688 13.691406 C 8.179688 13.691406 8.34375 13.359375 8.222656 13.050781 L 8.609375 12.898438 C 8.804688 13.386719 8.5625 13.863281 8.550781 13.886719 Z M 8.550781 13.886719 "/>
<path style=" stroke:none;fill-rule:nonzero;fill:rgb(68.627451%,49.411765%,34.117647%);fill-opacity:1;" d="M 5.683594 11.707031 C 6.410156 12.238281 6.871094 12.527344 7.5 12.527344 C 8.128906 12.527344 8.589844 12.234375 9.316406 11.707031 L 9.316406 10.121094 L 5.683594 10.121094 Z M 5.683594 11.707031 "/>
<path style=" stroke:none;fill-rule:nonzero;fill:rgb(60.784314%,41.568627%,28.627451%);fill-opacity:1;" d="M 5.679688 10.820312 C 6.1875 11.394531 6.816406 11.550781 7.5 11.550781 C 8.179688 11.550781 8.808594 11.394531 9.316406 10.820312 L 9.316406 9.367188 L 5.679688 9.367188 Z M 5.679688 10.820312 "/>
<path style=" stroke:none;fill-rule:nonzero;fill:rgb(68.627451%,49.411765%,34.117647%);fill-opacity:1;" d="M 3.949219 7.066406 C 3.949219 4.738281 5.539062 2.847656 7.5 2.847656 C 9.460938 2.847656 11.050781 4.738281 11.050781 7.066406 C 11.050781 9.394531 9.460938 11.285156 7.5 11.285156 C 5.539062 11.285156 3.949219 9.394531 3.949219 7.066406 Z M 3.949219 7.066406 "/>
<path style=" stroke:none;fill-rule:nonzero;fill:rgb(56.862745%,35.294118%,20.392157%);fill-opacity:1;" d="M 9.066406 9.171875 C 8.957031 9.066406 8.789062 9.0625 8.683594 9.167969 C 8.683594 9.167969 8.417969 9.371094 7.5 9.371094 C 6.617188 9.371094 6.339844 9.183594 6.316406 9.167969 C 6.210938 9.070312 6.042969 9.074219 5.941406 9.179688 C 5.835938 9.285156 5.835938 9.457031 5.941406 9.566406 C 5.957031 9.578125 5.992188 9.640625 6.050781 9.726562 C 6.039062 9.792969 6.039062 9.859375 6.054688 9.925781 C 6.058594 9.941406 6.0625 9.957031 6.070312 9.96875 L 6.492188 10.832031 C 6.527344 10.902344 6.597656 10.949219 6.679688 10.949219 L 6.683594 10.949219 C 6.765625 10.949219 6.835938 10.898438 6.871094 10.824219 L 7.070312 10.375 C 7.199219 10.398438 7.339844 10.417969 7.5 10.417969 C 7.652344 10.417969 7.789062 10.402344 7.914062 10.375 L 8.113281 10.824219 C 8.148438 10.898438 8.21875 10.945312 8.300781 10.949219 L 8.304688 10.949219 C 8.382812 10.949219 8.457031 10.902344 8.492188 10.832031 L 8.914062 9.96875 C 8.921875 9.953125 8.925781 9.941406 8.929688 9.925781 C 8.945312 9.867188 8.941406 9.804688 8.933594 9.746094 C 9 9.652344 9.042969 9.578125 9.058594 9.5625 C 9.164062 9.457031 9.171875 9.28125 9.066406 9.171875 Z M 9.066406 9.171875 "/>
<path style=" stroke:none;fill-rule:nonzero;fill:rgb(96.078431%,97.254902%,98.039216%);fill-opacity:1;" d="M 8.160156 9.660156 L 8.496094 9.582031 C 8.652344 9.582031 8.765625 9.726562 8.726562 9.875 L 8.304688 10.738281 L 7.9375 9.917969 C 7.90625 9.785156 8.027344 9.679688 8.160156 9.660156 Z M 6.824219 9.660156 L 6.484375 9.582031 C 6.332031 9.582031 6.21875 9.726562 6.257812 9.875 L 6.679688 10.738281 L 7.046875 9.917969 C 7.078125 9.785156 6.957031 9.679688 6.824219 9.660156 Z M 6.824219 9.660156 "/>
<path style=" stroke:none;fill-rule:nonzero;fill:rgb(86.666667%,18.039216%,26.666667%);fill-opacity:1;" d="M 5.832031 7.082031 C 5.605469 7.082031 5.417969 6.894531 5.417969 6.667969 L 5.417969 6.25 C 5.417969 6.019531 5.605469 5.832031 5.832031 5.832031 C 6.0625 5.832031 6.25 6.019531 6.25 6.25 L 6.25 6.667969 C 6.25 6.894531 6.0625 7.082031 5.832031 7.082031 Z M 9.167969 7.082031 C 8.9375 7.082031 8.75 6.894531 8.75 6.667969 L 8.75 6.25 C 8.75 6.019531 8.9375 5.832031 9.167969 5.832031 C 9.394531 5.832031 9.582031 6.019531 9.582031 6.25 L 9.582031 6.667969 C 9.582031 6.894531 9.394531 7.082031 9.167969 7.082031 Z M 9.167969 7.082031 "/>
<path style=" stroke:none;fill-rule:nonzero;fill:rgb(56.862745%,35.294118%,20.392157%);fill-opacity:1;" d="M 7.8125 8.230469 L 7.1875 8.230469 C 7.015625 8.230469 6.875 8.089844 6.875 7.917969 C 6.875 7.746094 7.015625 7.605469 7.1875 7.605469 L 7.8125 7.605469 C 7.984375 7.605469 8.125 7.746094 8.125 7.917969 C 8.125 8.089844 7.984375 8.230469 7.8125 8.230469 Z M 7.8125 8.230469 "/>
<path style=" stroke:none;fill-rule:nonzero;fill:rgb(68.627451%,49.411765%,34.117647%);fill-opacity:1;" d="M 10.832031 6.667969 L 10.636719 6.71875 C 10.636719 6.71875 10.140625 8.136719 10.636719 8.386719 C 11.746094 8.941406 12.082031 6.804688 12.082031 6.25 C 12.082031 5.832031 10.832031 6.667969 10.832031 6.667969 Z M 4.167969 6.667969 L 4.363281 6.71875 C 4.363281 6.71875 4.859375 8.136719 4.363281 8.386719 C 3.253906 8.941406 2.917969 6.804688 2.917969 6.25 C 2.917969 5.832031 4.167969 6.667969 4.167969 6.667969 Z M 4.167969 6.667969 "/>
<path style=" stroke:none;fill-rule:nonzero;fill:rgb(16.078431%,18.431373%,20%);fill-opacity:1;" d="M 7.5 1.25 C 4.167969 1.25 3.75 2.917969 3.75 5.417969 C 3.75 7.917969 4.480469 5.820312 4.582031 5.417969 C 5 3.75 6.667969 3.332031 7.5 5 C 8.332031 3.332031 10 3.75 10.417969 5.417969 C 10.519531 5.820312 11.25 7.917969 11.25 5.417969 C 11.25 2.917969 10.832031 1.25 7.5 1.25 Z M 7.5 1.25 "/>
</g>
</svg>
