<?xml version="1.0" encoding="UTF-8"?>
<svg xmlns="http://www.w3.org/2000/svg" xmlns:xlink="http://www.w3.org/1999/xlink" width="15pt" height="15pt" viewBox="0 0 15 15" version="1.1">
<g id="surface1">
<path style=" stroke:none;fill-rule:nonzero;fill:rgb(53.333333%,78.823529%,97.647059%);fill-opacity:1;" d="M 13.332031 15 L 13.332031 14.167969 C 13.332031 12.785156 12.214844 11.667969 10.832031 11.667969 L 4.167969 11.667969 C 2.785156 11.667969 1.667969 12.785156 1.667969 14.167969 L 1.667969 15 Z M 13.332031 15 "/>
<path style=" stroke:none;fill-rule:nonzero;fill:rgb(45.490196%,30.588235%,66.666667%);fill-opacity:1;" d="M 10.828125 11.667969 L 9.988281 11.644531 C 9.988281 11.644531 10.304688 14.484375 7.496094 14.484375 C 4.691406 14.484375 5.007812 11.644531 5.007812 11.644531 L 4.167969 11.667969 C 3.65625 12.53125 3.742188 15 3.742188 15 L 11.25 15 C 11.25 15 11.339844 12.53125 10.828125 11.667969 Z M 10.828125 11.667969 "/>
<path style=" stroke:none;fill-rule:nonzero;fill:rgb(100%,80%,30.196078%);fill-opacity:1;" d="M 7.503906 13.351562 C 9.207031 13.351562 9.773438 11.644531 9.773438 11.644531 L 10.34375 11.644531 C 10.34375 11.644531 10.34375 14.484375 7.503906 14.484375 C 4.660156 14.484375 4.660156 11.644531 4.660156 11.644531 L 5.230469 11.644531 C 5.230469 11.644531 5.796875 13.351562 7.503906 13.351562 Z M 7.503906 13.351562 "/>
<path style=" stroke:none;fill-rule:nonzero;fill:rgb(53.333333%,78.823529%,97.647059%);fill-opacity:1;" d="M 5.832031 11.777344 L 7.5 12.5625 L 9.167969 11.777344 L 9.167969 9.988281 L 5.832031 9.988281 Z M 5.832031 11.777344 "/>
<path style=" stroke:none;fill-rule:nonzero;fill:rgb(32.54902%,60.392157%,87.843137%);fill-opacity:1;" d="M 5.832031 10.933594 C 6.339844 11.507812 6.816406 11.691406 7.5 11.691406 C 8.179688 11.691406 8.660156 11.441406 9.167969 10.867188 L 9.167969 9.203125 L 5.832031 9.203125 Z M 5.832031 10.933594 "/>
<path style=" stroke:none;fill-rule:nonzero;fill:rgb(16.078431%,18.431373%,20%);fill-opacity:1;" d="M 9 1.5 C 8.195312 1.242188 6.308594 1.3125 5.835938 1.925781 C 4.609375 1.949219 3.171875 3.058594 2.984375 4.519531 C 2.796875 5.96875 3.210938 6.640625 3.359375 7.726562 C 3.527344 8.960938 4.222656 9.355469 4.777344 9.519531 C 5.574219 10.574219 6.421875 10.53125 7.84375 10.53125 C 10.625 10.53125 11.949219 8.671875 12.066406 5.511719 C 12.136719 3.601562 11.015625 2.152344 9 1.5 Z M 9 1.5 "/>
<path style=" stroke:none;fill-rule:nonzero;fill:rgb(53.333333%,78.823529%,97.647059%);fill-opacity:1;" d="M 10.589844 5.644531 C 10.320312 5.273438 9.976562 4.972656 9.21875 4.867188 C 9.503906 4.996094 9.773438 5.445312 9.808594 5.691406 C 9.847656 5.941406 9.882812 6.140625 9.65625 5.894531 C 8.757812 4.902344 7.78125 5.292969 6.8125 4.6875 C 6.136719 4.261719 5.929688 3.792969 5.929688 3.792969 C 5.929688 3.792969 5.847656 4.417969 4.820312 5.054688 C 4.523438 5.242188 4.167969 5.652344 3.972656 6.257812 C 3.828125 6.695312 3.875 7.085938 3.875 7.75 C 3.875 9.691406 5.472656 11.324219 7.449219 11.324219 C 9.421875 11.324219 11.023438 9.675781 11.023438 7.75 C 11.023438 6.542969 10.894531 6.070312 10.589844 5.644531 Z M 10.589844 5.644531 "/>
<path style=" stroke:none;fill-rule:nonzero;fill:rgb(33.333333%,67.45098%,93.333333%);fill-opacity:1;" d="M 7.84375 8.742188 L 7.050781 8.742188 C 6.941406 8.742188 6.851562 8.652344 6.851562 8.542969 C 6.851562 8.433594 6.941406 8.34375 7.050781 8.34375 L 7.84375 8.34375 C 7.953125 8.34375 8.042969 8.433594 8.042969 8.542969 C 8.042969 8.652344 7.953125 8.742188 7.84375 8.742188 Z M 7.84375 8.742188 "/>
<path style=" stroke:none;fill-rule:nonzero;fill:rgb(40%,12.941176%,7.45098%);fill-opacity:1;" d="M 5.859375 7.351562 C 5.640625 7.351562 5.460938 7.175781 5.460938 6.957031 L 5.460938 6.558594 C 5.460938 6.339844 5.640625 6.160156 5.859375 6.160156 C 6.078125 6.160156 6.257812 6.339844 6.257812 6.558594 L 6.257812 6.957031 C 6.257812 7.175781 6.078125 7.351562 5.859375 7.351562 Z M 9.035156 7.351562 C 8.816406 7.351562 8.640625 7.175781 8.640625 6.957031 L 8.640625 6.558594 C 8.640625 6.339844 8.816406 6.160156 9.035156 6.160156 C 9.253906 6.160156 9.433594 6.339844 9.433594 6.558594 L 9.433594 6.957031 C 9.433594 7.175781 9.253906 7.351562 9.035156 7.351562 Z M 9.035156 7.351562 "/>
<path style=" stroke:none;fill-rule:nonzero;fill:rgb(13.333333%,40%,60%);fill-opacity:1;" d="M 7.5 10.402344 C 6.351562 10.402344 6 10.109375 5.941406 10.046875 C 5.835938 9.941406 5.835938 9.769531 5.941406 9.660156 C 6.042969 9.558594 6.210938 9.554688 6.316406 9.652344 C 6.339844 9.667969 6.617188 9.855469 7.5 9.855469 C 8.417969 9.855469 8.683594 9.652344 8.683594 9.652344 C 8.789062 9.542969 8.957031 9.550781 9.066406 9.65625 C 9.171875 9.765625 9.164062 9.941406 9.058594 10.046875 C 9 10.109375 8.648438 10.402344 7.5 10.402344 "/>
<path style=" stroke:none;fill-rule:nonzero;fill:rgb(45.490196%,30.588235%,66.666667%);fill-opacity:1;" d="M 7.542969 3.640625 C 7.542969 3.640625 11.386719 4.640625 11.976562 6.4375 C 12.230469 5.890625 12.382812 4.6875 12.382812 4.007812 C 12.382812 1.945312 10.769531 0.453125 8.148438 0.453125 L 6.9375 0.453125 C 4.722656 0.453125 2.707031 1.945312 2.707031 4.007812 C 2.707031 4.6875 2.855469 5.980469 3.109375 6.527344 C 3.699219 4.726562 7.542969 3.640625 7.542969 3.640625 Z M 7.542969 3.640625 "/>
<path style=" stroke:none;fill-rule:nonzero;fill:rgb(79.607843%,71.764706%,91.764706%);fill-opacity:1;" d="M 12.375 4.308594 C 11.621094 3.710938 10.738281 3.214844 9.894531 2.933594 C 9.699219 2.867188 9.488281 2.972656 9.421875 3.167969 C 9.359375 3.363281 9.464844 3.574219 9.660156 3.640625 C 10.554688 3.9375 11.535156 4.535156 12.28125 5.21875 C 12.332031 4.882812 12.363281 4.503906 12.375 4.308594 Z M 2.769531 4.917969 C 3.847656 4.148438 7.457031 1.824219 11.582031 1.792969 C 11.328125 1.5 11.054688 1.289062 10.734375 1.089844 C 7.128906 1.355469 4.054688 3.152344 2.710938 4.054688 C 2.714844 4.300781 2.734375 4.601562 2.769531 4.917969 Z M 2.769531 4.917969 "/>
<path style=" stroke:none;fill-rule:nonzero;fill:rgb(79.607843%,71.764706%,91.764706%);fill-opacity:1;" d="M 12.070312 2.542969 C 12.054688 2.539062 12.023438 2.542969 12.007812 2.542969 C 10.484375 2.542969 8.945312 2.925781 7.425781 3.675781 C 7.5 3.652344 7.542969 3.640625 7.542969 3.640625 C 7.542969 3.640625 7.980469 3.753906 8.585938 3.976562 C 9.726562 3.519531 10.875 3.285156 12.007812 3.285156 C 12.117188 3.285156 12.226562 3.292969 12.316406 3.316406 C 12.277344 3.089844 12.183594 2.769531 12.070312 2.542969 Z M 2.808594 3.160156 C 4.136719 2.304688 6.625 1.078125 9.441406 0.585938 C 9.011719 0.460938 8.609375 0.453125 8.148438 0.453125 L 7.199219 0.453125 C 5.734375 1.019531 4.429688 1.449219 3.425781 2.003906 C 3.136719 2.367188 2.921875 2.710938 2.808594 3.160156 Z M 2.808594 3.160156 "/>
<path style=" stroke:none;fill-rule:nonzero;fill:rgb(100%,85.098039%,51.372549%);fill-opacity:1;" d="M 7.410156 2.003906 L 7.796875 2.003906 C 8.167969 2.003906 8.46875 2.304688 8.46875 2.675781 L 8.46875 3.953125 C 8.46875 4.320312 8.167969 4.625 7.796875 4.625 L 7.410156 4.625 C 7.039062 4.625 6.738281 4.320312 6.738281 3.953125 L 6.738281 2.675781 C 6.738281 2.304688 7.039062 2.003906 7.410156 2.003906 Z M 7.410156 2.003906 "/>
<path style=" stroke:none;fill-rule:nonzero;fill:rgb(100%,67.45098%,20%);fill-opacity:1;" d="M 7.496094 2.542969 L 7.710938 2.542969 C 7.914062 2.542969 8.078125 2.707031 8.078125 2.910156 L 8.078125 3.71875 C 8.078125 3.917969 7.914062 4.085938 7.710938 4.085938 L 7.496094 4.085938 C 7.296875 4.085938 7.128906 3.921875 7.128906 3.71875 L 7.128906 2.910156 C 7.128906 2.707031 7.296875 2.542969 7.496094 2.542969 Z M 7.496094 2.542969 "/>
</g>
</svg>
