<?xml version="1.0" encoding="UTF-8"?>
<svg xmlns="http://www.w3.org/2000/svg" xmlns:xlink="http://www.w3.org/1999/xlink" width="15pt" height="15pt" viewBox="0 0 15 15" version="1.1">
<defs>
<filter id="alpha" filterUnits="objectBoundingBox" x="0%" y="0%" width="100%" height="100%">
  <feColorMatrix type="matrix" in="SourceGraphic" values="0 0 0 0 1 0 0 0 0 1 0 0 0 0 1 0 0 0 1 0"/>
</filter>
<mask id="mask0">
  <g filter="url(#alpha)">
<rect x="0" y="0" width="15" height="15" style="fill:rgb(0%,0%,0%);fill-opacity:0.701961;stroke:none;"/>
  </g>
</mask>
<clipPath id="clip1">
  <rect x="0" y="0" width="15" height="15"/>
</clipPath>
<g id="surface5" clip-path="url(#clip1)">
<path style=" stroke:none;fill-rule:nonzero;fill:rgb(100%,100%,100%);fill-opacity:1;" d="M 13.332031 11.667969 C 12.09375 11.667969 11.066406 12.570312 10.871094 13.753906 C 10.859375 13.753906 10.847656 13.75 10.832031 13.75 C 9.980469 13.75 9.246094 14.265625 8.925781 15 L 13.75 15 C 14.4375 15 15 14.4375 15 13.75 L 15 12.308594 C 14.558594 11.910156 13.972656 11.667969 13.332031 11.667969 Z M 5.65625 15 C 5.335938 14.265625 4.605469 13.75 3.75 13.75 C 3.425781 13.75 3.121094 13.832031 2.847656 13.964844 C 2.886719 13.828125 2.917969 13.691406 2.917969 13.542969 C 2.917969 12.734375 2.265625 12.082031 1.457031 12.082031 C 0.722656 12.082031 0.121094 12.628906 0.0195312 13.332031 L 0 13.332031 L 0 13.75 C 0 14.4375 0.5625 15 1.25 15 Z M 5.65625 15 "/>
</g>
</defs>
<g id="surface1">
<path style=" stroke:none;fill-rule:nonzero;fill:rgb(88.235294%,90.980392%,92.941176%);fill-opacity:1;" d="M 3.75 10.625 C 3.75 11.660156 2.910156 12.5 1.875 12.5 C 0.839844 12.5 0 11.660156 0 10.625 C 0 9.589844 0.839844 8.75 1.875 8.75 C 2.910156 8.75 3.75 9.589844 3.75 10.625 Z M 3.75 10.625 "/>
<path style=" stroke:none;fill-rule:nonzero;fill:rgb(88.235294%,90.980392%,92.941176%);fill-opacity:1;" d="M 12.917969 8.542969 C 12.917969 9.808594 11.890625 10.832031 10.625 10.832031 C 9.359375 10.832031 8.332031 9.808594 8.332031 8.542969 C 8.332031 7.277344 9.359375 6.25 10.625 6.25 C 11.890625 6.25 12.917969 7.277344 12.917969 8.542969 Z M 12.917969 8.542969 "/>
<path style=" stroke:none;fill-rule:nonzero;fill:rgb(88.235294%,90.980392%,92.941176%);fill-opacity:1;" d="M 15 11.042969 C 15 12.191406 14.066406 13.125 12.917969 13.125 C 11.765625 13.125 10.832031 12.191406 10.832031 11.042969 C 10.832031 9.890625 11.765625 8.957031 12.917969 8.957031 C 14.066406 8.957031 15 9.890625 15 11.042969 Z M 15 11.042969 "/>
<path style=" stroke:none;fill-rule:nonzero;fill:rgb(88.235294%,90.980392%,92.941176%);fill-opacity:1;" d="M 7.082031 10 C 7.082031 11.152344 6.152344 12.082031 5 12.082031 C 3.847656 12.082031 2.917969 11.152344 2.917969 10 C 2.917969 8.847656 3.847656 7.917969 5 7.917969 C 6.152344 7.917969 7.082031 8.847656 7.082031 10 Z M 7.082031 10 "/>
<path style=" stroke:none;fill-rule:nonzero;fill:rgb(88.235294%,90.980392%,92.941176%);fill-opacity:1;" d="M 13.75 12.5 C 13.058594 12.5 12.5 13.058594 12.5 13.75 L 2.5 13.75 C 2.5 13.058594 1.941406 12.5 1.25 12.5 C 0.558594 12.5 0 13.058594 0 13.75 C 0 14.441406 0.558594 15 1.25 15 L 13.332031 15 L 13.332031 14.921875 C 13.464844 14.96875 13.601562 15 13.75 15 C 14.441406 15 15 14.441406 15 13.75 C 15 13.058594 14.441406 12.5 13.75 12.5 Z M 13.75 12.5 "/>
<path style=" stroke:none;fill-rule:nonzero;fill:rgb(88.235294%,90.980392%,92.941176%);fill-opacity:1;" d="M 0 10.625 L 3.75 10.625 L 3.75 13.75 L 0 13.75 Z M 8.332031 9.582031 L 12.082031 9.582031 L 12.082031 11.25 L 8.332031 11.25 Z M 12.917969 11.042969 L 15 11.042969 L 15 13.75 L 12.917969 13.75 Z M 12.917969 11.042969 "/>
<path style=" stroke:none;fill-rule:nonzero;fill:rgb(100%,86.27451%,36.470588%);fill-opacity:1;" d="M 12.917969 15 L 12.917969 13.125 C 12.917969 11.746094 11.433594 10.832031 10.050781 10.832031 L 5.050781 10.832031 C 3.671875 10.832031 2.082031 11.746094 2.082031 13.125 L 2.082031 15 Z M 12.917969 15 "/>
<path style=" stroke:none;fill-rule:nonzero;fill:rgb(100%,67.45098%,20%);fill-opacity:1;" d="M 8.886719 1.65625 C 8.171875 1.425781 6.480469 1.488281 6.058594 2.035156 C 4.960938 2.058594 3.675781 3.050781 3.503906 4.359375 C 3.339844 5.652344 3.710938 6.253906 3.84375 7.226562 C 3.992188 8.332031 4.613281 8.683594 5.109375 8.832031 C 5.824219 9.773438 6.582031 9.734375 7.855469 9.734375 C 10.34375 9.734375 11.527344 8.070312 11.632812 5.246094 C 11.695312 3.535156 10.691406 2.238281 8.886719 1.65625 Z M 8.886719 1.65625 "/>
<path style=" stroke:none;fill-rule:nonzero;fill:rgb(100%,86.27451%,36.470588%);fill-opacity:1;" d="M 6.433594 9.023438 L 6.433594 11.15625 C 6.433594 11.746094 6.910156 12.222656 7.5 12.222656 C 8.089844 12.222656 8.566406 11.746094 8.566406 11.15625 L 8.566406 9.023438 Z M 6.433594 9.023438 "/>
<path style=" stroke:none;fill-rule:nonzero;fill:rgb(97.647059%,79.215686%,33.333333%);fill-opacity:1;" d="M 6.433594 10.289062 C 6.730469 10.625 7.097656 10.71875 7.5 10.71875 C 7.902344 10.71875 8.269531 10.625 8.566406 10.289062 L 8.566406 9.4375 L 6.433594 9.4375 Z M 6.433594 10.289062 "/>
<path style=" stroke:none;fill-rule:nonzero;fill:rgb(100%,86.27451%,36.470588%);fill-opacity:1;" d="M 10.308594 5.363281 C 10.070312 5.03125 9.761719 4.761719 9.085938 4.667969 C 9.339844 4.785156 9.582031 5.183594 9.613281 5.40625 C 9.644531 5.628906 9.675781 5.808594 9.476562 5.585938 C 8.671875 4.699219 7.796875 5.046875 6.929688 4.507812 C 6.324219 4.128906 6.140625 3.707031 6.140625 3.707031 C 6.140625 3.707031 6.066406 4.265625 5.148438 4.835938 C 4.882812 5.003906 4.566406 5.371094 4.390625 5.914062 C 4.261719 6.304688 4.300781 6.652344 4.300781 7.246094 C 4.300781 8.984375 5.734375 10.445312 7.5 10.445312 C 9.265625 10.445312 10.695312 8.972656 10.695312 7.246094 C 10.699219 6.167969 10.585938 5.746094 10.308594 5.363281 Z M 10.308594 5.363281 "/>
<path style=" stroke:none;fill-rule:nonzero;fill:rgb(75.686275%,41.176471%,30.980392%);fill-opacity:1;" d="M 7.476562 9.355469 C 6.808594 9.355469 6.457031 9.023438 6.421875 8.984375 C 6.308594 8.875 6.308594 8.695312 6.421875 8.582031 C 6.53125 8.472656 6.707031 8.472656 6.820312 8.582031 C 6.835938 8.59375 7.050781 8.785156 7.476562 8.785156 C 7.910156 8.785156 8.125 8.589844 8.132812 8.578125 C 8.246094 8.472656 8.425781 8.476562 8.535156 8.589844 C 8.644531 8.699219 8.644531 8.875 8.535156 8.984375 C 8.496094 9.023438 8.144531 9.355469 7.476562 9.355469 M 7.847656 8.085938 L 7.144531 8.085938 C 7.046875 8.085938 6.96875 8.007812 6.96875 7.910156 L 6.96875 7.847656 C 6.96875 7.75 7.046875 7.671875 7.144531 7.671875 L 7.847656 7.671875 C 7.945312 7.671875 8.023438 7.75 8.023438 7.847656 L 8.023438 7.910156 C 8.023438 8.007812 7.945312 8.085938 7.847656 8.085938 "/>
<path style=" stroke:none;fill-rule:nonzero;fill:rgb(40%,12.941176%,7.45098%);fill-opacity:1;" d="M 6.078125 6.890625 C 5.882812 6.890625 5.722656 6.734375 5.722656 6.535156 L 5.722656 6.183594 C 5.722656 5.984375 5.882812 5.828125 6.078125 5.828125 C 6.273438 5.828125 6.433594 5.984375 6.433594 6.183594 L 6.433594 6.535156 C 6.433594 6.734375 6.273438 6.890625 6.078125 6.890625 Z M 8.921875 6.890625 C 8.726562 6.890625 8.566406 6.734375 8.566406 6.535156 L 8.566406 6.183594 C 8.566406 5.984375 8.726562 5.828125 8.921875 5.828125 C 9.117188 5.828125 9.277344 5.984375 9.277344 6.183594 L 9.277344 6.535156 C 9.277344 6.734375 9.117188 6.890625 8.921875 6.890625 Z M 8.921875 6.890625 "/>
<path style=" stroke:none;fill-rule:nonzero;fill:rgb(97.647059%,79.215686%,33.333333%);fill-opacity:1;" d="M 6.433594 10.410156 L 5.050781 10.832031 C 4.191406 10.832031 3.253906 11.1875 2.667969 11.785156 C 2.5625 12.003906 2.5 12.242188 2.5 12.5 L 2.5 15 L 9.34375 15 C 9.34375 15 7.390625 13.328125 6.433594 10.410156 Z M 6.433594 10.410156 "/>
<path style=" stroke:none;fill-rule:nonzero;fill:rgb(86.666667%,33.333333%,12.156863%);fill-opacity:1;" d="M 10.050781 10.832031 L 9.398438 10.832031 C 8.722656 13.988281 6.558594 15 6.558594 15 L 12.917969 15 L 12.917969 13.125 C 12.917969 11.746094 11.433594 10.832031 10.050781 10.832031 Z M 10.050781 10.832031 "/>
<path style=" stroke:none;fill-rule:nonzero;fill:rgb(77.647059%,22.352941%,0%);fill-opacity:1;" d="M 6.558594 15 L 9.285156 15 C 9.285156 15 8.960938 14.710938 8.742188 14.433594 C 8.128906 14.808594 6.558594 15 6.558594 15 Z M 6.558594 15 "/>
<path style=" stroke:none;fill-rule:nonzero;fill:rgb(98.039216%,45.490196%,24.313725%);fill-opacity:1;" d="M 10.234375 10.832031 C 9.910156 10.832031 9.0625 10.417969 8.566406 10.417969 C 7.890625 13.570312 6.558594 15 6.558594 15 L 8.222656 15 C 8.222656 15 9.558594 13.988281 10.234375 10.832031 Z M 10.234375 10.832031 "/>
<path style=" stroke:none;fill-rule:nonzero;fill:rgb(86.666667%,33.333333%,12.156863%);fill-opacity:1;" d="M 7.71875 13.0625 C 7.351562 13.835938 6.558594 15 6.558594 15 L 8.242188 15 C 8.242188 15 8.507812 14.757812 8.742188 14.433594 C 8.394531 14.003906 7.949219 13.425781 7.71875 13.0625 Z M 7.71875 13.0625 "/>
<path style=" stroke:none;fill-rule:nonzero;fill:rgb(98.039216%,45.490196%,24.313725%);fill-opacity:1;" d="M 5.601562 10.832031 L 5.050781 10.832031 C 3.671875 10.832031 2.082031 11.746094 2.082031 13.125 L 2.082031 15 L 8.507812 15 C 8.507812 15 6.558594 13.75 5.601562 10.832031 Z M 5.601562 10.832031 "/>
<path style=" stroke:none;fill-rule:nonzero;fill:rgb(98.039216%,54.901961%,33.72549%);fill-opacity:1;" d="M 6.433594 10.417969 C 5.996094 10.417969 5.121094 10.832031 4.765625 10.832031 C 5.722656 13.75 6.84375 15 6.84375 15 L 8.507812 15 C 8.507812 15 7.390625 13.332031 6.433594 10.417969 Z M 6.433594 10.417969 "/>
<use xlink:href="#surface5" mask="url(#mask0)"/>
</g>
</svg>
