<?xml version="1.0" encoding="UTF-8"?>
<svg xmlns="http://www.w3.org/2000/svg" xmlns:xlink="http://www.w3.org/1999/xlink" width="15pt" height="15pt" viewBox="0 0 15 15" version="1.1">
<g id="surface1">
<path style=" stroke:none;fill-rule:nonzero;fill:rgb(16.078431%,18.431373%,20%);fill-opacity:1;" d="M 9.167969 1.457031 C 9.167969 0.652344 8.421875 0 7.5 0 C 6.578125 0 5.832031 0.652344 5.832031 1.457031 C 5.832031 2.265625 6.578125 2.917969 7.5 2.917969 C 8.421875 2.917969 9.167969 2.265625 9.167969 1.457031 Z M 9.167969 1.457031 "/>
<path style=" stroke:none;fill-rule:nonzero;fill:rgb(16.078431%,18.431373%,20%);fill-opacity:1;" d="M 12.5 6.667969 C 12.5 4.367188 10.261719 2.5 7.5 2.5 C 4.738281 2.5 2.5 4.367188 2.5 6.667969 C 2.5 8.96875 4.738281 10.832031 7.5 10.832031 C 10.261719 10.832031 12.5 8.96875 12.5 6.667969 Z M 12.5 6.667969 "/>
<path style=" stroke:none;fill-rule:nonzero;fill:rgb(100%,80%,30.196078%);fill-opacity:1;" d="M 8.75 1.667969 C 8.75 1.207031 8.191406 0.832031 7.5 0.832031 C 6.808594 0.832031 6.25 1.207031 6.25 1.667969 C 6.25 2.125 6.808594 2.5 7.5 2.5 C 8.191406 2.5 8.75 2.125 8.75 1.667969 Z M 8.75 1.667969 "/>
<path style=" stroke:none;fill-rule:nonzero;fill:rgb(53.333333%,78.823529%,97.647059%);fill-opacity:1;" d="M 12.917969 15 L 12.917969 13.125 C 12.917969 11.746094 11.433594 10.832031 10.050781 10.832031 L 5.050781 10.832031 C 3.671875 10.832031 2.082031 11.746094 2.082031 13.125 L 2.082031 15 Z M 12.917969 15 "/>
<path style=" stroke:none;fill-rule:nonzero;fill:rgb(53.333333%,78.823529%,97.647059%);fill-opacity:1;" d="M 6.042969 11.050781 C 6.652344 11.492188 7.203125 11.457031 7.5 11.457031 C 7.796875 11.457031 8.414062 11.492188 8.953125 11.0625 L 8.957031 9.335938 L 6.042969 9.335938 Z M 6.042969 11.050781 "/>
<path style=" stroke:none;fill-rule:nonzero;fill:rgb(33.333333%,67.45098%,93.333333%);fill-opacity:1;" d="M 6.035156 10.183594 C 6.441406 10.574219 7.148438 10.648438 7.496094 10.648438 C 7.839844 10.648438 8.554688 10.574219 8.957031 10.183594 L 8.957031 8.8125 L 6.035156 8.8125 Z M 6.035156 10.183594 "/>
<path style=" stroke:none;fill-rule:nonzero;fill:rgb(53.333333%,78.823529%,97.647059%);fill-opacity:1;" d="M 4.472656 6.09375 C 4.472656 3.664062 5.816406 1.691406 7.476562 1.691406 C 9.136719 1.691406 10.480469 3.664062 10.480469 6.09375 C 10.480469 8.523438 9.136719 10.378906 7.476562 10.378906 C 5.816406 10.378906 4.472656 8.523438 4.472656 6.09375 "/>
<path style=" stroke:none;fill-rule:nonzero;fill:rgb(87.45098%,12.156863%,19.607843%);fill-opacity:1;" d="M 7.476562 9.355469 C 6.808594 9.355469 6.457031 9.023438 6.421875 8.984375 C 6.308594 8.875 6.308594 8.695312 6.421875 8.582031 C 6.53125 8.472656 6.707031 8.472656 6.820312 8.582031 C 6.835938 8.59375 7.050781 8.785156 7.476562 8.785156 C 7.910156 8.785156 8.125 8.589844 8.132812 8.578125 C 8.246094 8.472656 8.425781 8.476562 8.535156 8.589844 C 8.644531 8.699219 8.644531 8.875 8.535156 8.984375 C 8.496094 9.023438 8.144531 9.355469 7.476562 9.355469 "/>
<path style=" stroke:none;fill-rule:nonzero;fill:rgb(40%,12.941176%,7.45098%);fill-opacity:1;" d="M 6.085938 7 C 5.894531 7 5.734375 6.839844 5.734375 6.644531 L 5.734375 6.292969 C 5.734375 6.097656 5.894531 5.941406 6.085938 5.941406 C 6.28125 5.941406 6.441406 6.097656 6.441406 6.292969 L 6.441406 6.644531 C 6.441406 6.839844 6.28125 7 6.085938 7 M 8.90625 7 C 8.710938 7 8.554688 6.839844 8.554688 6.644531 L 8.554688 6.292969 C 8.554688 6.097656 8.710938 5.941406 8.90625 5.941406 C 9.097656 5.941406 9.257812 6.097656 9.257812 6.292969 L 9.257812 6.644531 C 9.257812 6.839844 9.097656 7 8.90625 7 "/>
<path style=" stroke:none;fill-rule:nonzero;fill:rgb(33.333333%,67.45098%,93.333333%);fill-opacity:1;" d="M 7.847656 8.085938 L 7.144531 8.085938 C 7.046875 8.085938 6.96875 8.007812 6.96875 7.910156 L 6.96875 7.847656 C 6.96875 7.75 7.046875 7.671875 7.144531 7.671875 L 7.847656 7.671875 C 7.945312 7.671875 8.023438 7.75 8.023438 7.847656 L 8.023438 7.910156 C 8.023438 8.007812 7.945312 8.085938 7.847656 8.085938 "/>
<path style=" stroke:none;fill-rule:nonzero;fill:rgb(16.078431%,18.431373%,20%);fill-opacity:1;" d="M 7.523438 1.25 C 10.878906 1.25 12.082031 3.832031 12.082031 6.300781 C 12.082031 8.769531 10.878906 9.582031 10.878906 9.582031 C 10.878906 9.582031 11.292969 8.769531 10.878906 7.957031 C 10.460938 7.144531 10.460938 5.519531 10.460938 5.519531 C 10.460938 5.519531 9.261719 5.398438 8.378906 5.113281 C 7.128906 4.703125 6.710938 4.296875 6.710938 4.296875 C 6.710938 4.296875 5.460938 5.519531 4.628906 5.519531 C 4.628906 5.519531 4.628906 6.332031 4.210938 7.550781 C 3.949219 8.320312 4.210938 9.582031 4.210938 9.582031 C 4.210938 9.582031 2.960938 8.363281 2.960938 5.925781 C 2.960938 3.484375 4.164062 1.25 7.523438 1.25 Z M 7.523438 1.25 "/>
<path style=" stroke:none;fill-rule:nonzero;fill:rgb(53.333333%,78.823529%,97.647059%);fill-opacity:1;" d="M 4.917969 6.640625 C 4.703125 6.109375 4.273438 5.78125 3.949219 5.90625 C 3.628906 6.035156 3.542969 6.574219 3.757812 7.109375 C 3.972656 7.640625 4.40625 7.96875 4.726562 7.84375 C 5.046875 7.714844 5.132812 7.175781 4.917969 6.640625 Z M 4.917969 6.640625 "/>
<path style=" stroke:none;fill-rule:nonzero;fill:rgb(53.333333%,78.823529%,97.647059%);fill-opacity:1;" d="M 11.050781 5.90625 C 10.726562 5.78125 10.296875 6.109375 10.082031 6.640625 C 9.867188 7.175781 9.953125 7.714844 10.273438 7.84375 C 10.59375 7.96875 11.027344 7.640625 11.242188 7.109375 C 11.457031 6.574219 11.371094 6.035156 11.050781 5.90625 Z M 11.050781 5.90625 "/>
<path style=" stroke:none;fill-rule:nonzero;fill:rgb(62.745098%,1.568627%,11.764706%);fill-opacity:1;" d="M 3.75 15 C 3.75 15 3.332031 13.75 4.167969 13.332031 C 5.34375 12.746094 7.082031 14.582031 7.5 14.582031 C 7.917969 14.582031 9.65625 12.746094 10.832031 13.332031 C 11.667969 13.75 11.25 15 11.25 15 Z M 3.75 15 "/>
<path style=" stroke:none;fill-rule:nonzero;fill:rgb(100%,80%,30.196078%);fill-opacity:1;" d="M 7.5 12.082031 C 8.75 12.082031 9.167969 10.832031 9.167969 10.832031 L 9.582031 10.832031 C 9.582031 10.832031 9.582031 12.917969 7.5 12.917969 C 5.417969 12.917969 5.417969 10.832031 5.417969 10.832031 L 5.832031 10.832031 C 5.832031 10.832031 6.25 12.082031 7.5 12.082031 Z M 7.5 12.082031 "/>
</g>
</svg>
