<?xml version="1.0" encoding="UTF-8"?>
<svg xmlns="http://www.w3.org/2000/svg" xmlns:xlink="http://www.w3.org/1999/xlink" width="15pt" height="15pt" viewBox="0 0 15 15" version="1.1">
<g id="surface1">
<path style=" stroke:none;fill-rule:nonzero;fill:rgb(25.882353%,53.72549%,75.686275%);fill-opacity:1;" d="M 11.929688 12.734375 C 11.855469 12.140625 11.277344 11.929688 10.988281 11.929688 C 10.621094 11.929688 9.742188 12.390625 9.582031 11.6875 L 9.566406 11.609375 L 5.4375 11.605469 L 5.417969 11.683594 C 5.261719 12.394531 4.378906 11.929688 4.007812 11.929688 C 3.722656 11.929688 3.144531 12.140625 3.070312 12.734375 C 3.070312 12.734375 5.886719 13.75 7.5 13.75 C 9.113281 13.75 11.929688 12.734375 11.929688 12.734375 Z M 11.929688 12.734375 "/>
<path style=" stroke:none;fill-rule:nonzero;fill:rgb(83.137255%,67.058824%,53.333333%);fill-opacity:1;" d="M 5.070312 7.089844 C 4.839844 7.050781 4.628906 7.203125 4.589844 7.433594 L 4.246094 9.492188 C 4.214844 9.511719 4.1875 9.527344 4.15625 9.550781 C 3.421875 10.019531 3.464844 11.019531 2.933594 11.472656 C 2.859375 11.535156 2.535156 11.792969 2.429688 12.023438 C 2.292969 12.332031 2.523438 12.210938 2.449219 12.3125 C 2.28125 12.558594 2.277344 12.929688 2.398438 13.015625 L 2.550781 13.058594 C 2.785156 13.226562 3.417969 12.5 3.503906 12.097656 C 3.628906 11.496094 4.785156 10.746094 5 10.160156 C 5.066406 9.976562 5.089844 9.832031 5.070312 9.714844 L 5.53125 7.570312 C 5.570312 7.339844 5.296875 7.125 5.070312 7.089844 Z M 12.535156 12.339844 C 12.464844 12.234375 12.71875 12.332031 12.578125 12.023438 C 12.472656 11.789062 12.125 11.53125 12.054688 11.472656 C 11.523438 11.019531 11.589844 10.019531 10.855469 9.546875 C 10.820312 9.527344 10.785156 9.503906 10.753906 9.484375 L 10.410156 7.433594 C 10.375 7.203125 10.15625 7.050781 9.933594 7.089844 C 9.703125 7.128906 9.417969 7.339844 9.453125 7.570312 L 9.933594 9.746094 C 9.921875 9.859375 9.949219 9.992188 10.011719 10.160156 C 10.222656 10.746094 11.382812 11.496094 11.507812 12.097656 C 11.589844 12.503906 12.226562 13.226562 12.457031 13.058594 L 12.613281 13.015625 C 12.734375 12.929688 12.707031 12.582031 12.535156 12.339844 Z M 12.535156 12.339844 "/>
<path style=" stroke:none;fill-rule:nonzero;fill:rgb(83.137255%,67.058824%,53.333333%);fill-opacity:1;" d="M 9.480469 14.925781 C 9.046875 14.960938 8.640625 14.839844 8.230469 14.925781 C 8.035156 14.9375 7.898438 14.925781 7.699219 14.75 C 7.503906 14.578125 4.246094 14.121094 3.652344 13.722656 C 3.378906 13.542969 2.960938 13.082031 3.070312 12.699219 C 3.179688 12.316406 3.546875 12.101562 3.988281 12.089844 C 4.847656 12.070312 6.488281 13.316406 7.675781 13.773438 C 7.890625 13.859375 8.070312 13.753906 8.34375 13.824219 C 8.628906 13.898438 9.308594 13.59375 9.65625 13.636719 C 10.125 13.699219 10.3125 13.921875 10.273438 14.308594 C 10.234375 14.710938 9.914062 14.886719 9.480469 14.925781 Z M 9.480469 14.925781 "/>
<path style=" stroke:none;fill-rule:nonzero;fill:rgb(80%,60.784314%,47.843137%);fill-opacity:1;" d="M 9.480469 14.925781 C 9.046875 14.960938 8.640625 14.839844 8.230469 14.925781 C 8.035156 14.9375 7.898438 14.925781 7.699219 14.75 C 7.503906 14.578125 8.070312 13.753906 8.34375 13.824219 C 8.628906 13.898438 9.308594 13.59375 9.65625 13.636719 C 10.125 13.699219 10.3125 13.921875 10.273438 14.304688 C 10.234375 14.710938 9.914062 14.886719 9.480469 14.925781 Z M 4.664062 13.835938 C 4.765625 13.574219 5.160156 13.464844 5.347656 13.441406 C 5.53125 13.414062 5.839844 13.527344 6.050781 13.613281 C 6.261719 13.699219 6.515625 13.710938 6.679688 13.648438 C 6.839844 13.585938 6.957031 13.597656 7.078125 13.648438 C 7.109375 13.664062 7.253906 13.648438 7.304688 13.621094 C 7.304688 13.621094 8.050781 13.878906 7.777344 13.964844 C 7.503906 14.050781 5.519531 14.183594 5.246094 14.183594 C 4.976562 14.183594 4.664062 13.835938 4.664062 13.835938 Z M 4.664062 13.835938 "/>
<path style=" stroke:none;fill-rule:nonzero;fill:rgb(80%,60.784314%,47.843137%);fill-opacity:1;" d="M 3.070312 12.699219 C 3.074219 12.6875 3.078125 12.683594 3.082031 12.675781 C 3.164062 12.992188 3.398438 13.367188 3.664062 13.464844 C 4 13.589844 6.683594 14.378906 7.019531 14.417969 C 7.351562 14.453125 7.847656 14.503906 7.945312 14.578125 C 8.046875 14.652344 8.304688 14.679688 8.515625 14.628906 C 8.726562 14.578125 9.257812 14.777344 9.53125 14.714844 C 9.800781 14.652344 10.199219 14.53125 10.273438 14.195312 C 10.273438 14.1875 10.277344 14.1875 10.277344 14.179688 C 10.277344 14.222656 10.277344 14.261719 10.273438 14.308594 C 10.234375 14.714844 9.914062 14.890625 9.484375 14.925781 C 9.050781 14.964844 8.640625 14.839844 8.234375 14.925781 C 8.035156 14.9375 7.898438 14.925781 7.699219 14.753906 C 7.503906 14.578125 4.246094 14.121094 3.652344 13.726562 C 3.378906 13.542969 2.960938 13.082031 3.070312 12.699219 Z M 3.070312 12.699219 "/>
<path style=" stroke:none;fill-rule:nonzero;fill:rgb(83.137255%,67.058824%,53.333333%);fill-opacity:1;" d="M 5.519531 14.925781 C 5.953125 14.960938 6.359375 14.839844 6.769531 14.925781 C 6.964844 14.9375 7.101562 14.925781 7.300781 14.75 C 7.496094 14.578125 10.753906 14.121094 11.347656 13.722656 C 11.621094 13.542969 12.039062 13.082031 11.929688 12.699219 C 11.820312 12.316406 11.453125 12.101562 11.011719 12.089844 C 10.152344 12.070312 8.511719 13.316406 7.324219 13.773438 C 7.109375 13.859375 6.929688 13.753906 6.65625 13.824219 C 6.371094 13.898438 5.691406 13.59375 5.34375 13.636719 C 4.875 13.699219 4.6875 13.921875 4.726562 14.308594 C 4.765625 14.710938 5.085938 14.886719 5.519531 14.925781 Z M 5.519531 14.925781 "/>
<path style=" stroke:none;fill-rule:nonzero;fill:rgb(58.823529%,23.137255%,13.333333%);fill-opacity:1;" d="M 7.917969 0 C 7.390625 0 6.902344 0.164062 6.5 0.441406 C 6.417969 0.429688 6.335938 0.417969 6.25 0.417969 C 5.328125 0.417969 4.582031 1.164062 4.582031 2.082031 L 4.582031 3.75 C 4.582031 5.359375 5.890625 6.667969 7.5 6.667969 C 9.109375 6.667969 10.417969 5.359375 10.417969 3.75 L 10.417969 2.5 C 10.417969 1.121094 9.296875 0 7.917969 0 Z M 7.917969 0 "/>
<path style=" stroke:none;fill-rule:nonzero;fill:rgb(57.254902%,40.784314%,79.215686%);fill-opacity:1;" d="M 9.394531 6.25 L 5.605469 6.25 C 4.539062 6.25 4.390625 7.917969 4.390625 7.917969 L 5.417969 8.179688 C 5.417969 8.179688 5.605469 9.171875 5.605469 9.988281 C 5.605469 10.804688 5.417969 11.667969 5.417969 11.667969 C 5.417969 11.667969 6.261719 11.804688 7.5 11.804688 C 8.738281 11.804688 9.582031 11.667969 9.582031 11.667969 C 9.582031 11.667969 9.378906 10.804688 9.378906 9.972656 C 9.378906 9.144531 9.582031 8.179688 9.582031 8.179688 L 10.609375 7.917969 C 10.609375 7.917969 10.460938 6.25 9.394531 6.25 Z M 9.394531 6.25 "/>
<path style=" stroke:none;fill-rule:nonzero;fill:rgb(83.137255%,67.058824%,53.333333%);fill-opacity:1;" d="M 6.667969 4.582031 L 6.667969 6.25 C 6.667969 6.710938 7.039062 7.082031 7.5 7.082031 C 7.960938 7.082031 8.332031 6.710938 8.332031 6.25 L 8.332031 4.582031 Z M 6.667969 4.582031 "/>
<path style=" stroke:none;fill-rule:nonzero;fill:rgb(80%,60.784314%,47.843137%);fill-opacity:1;" d="M 8.332031 4.582031 L 6.667969 4.589844 L 6.667969 6.25 C 6.667969 6.25 7.5 6.667969 8.332031 6.25 Z M 8.332031 4.582031 "/>
<path style=" stroke:none;fill-rule:nonzero;fill:rgb(83.137255%,67.058824%,53.333333%);fill-opacity:1;" d="M 6.667969 1.25 C 6.667969 1.25 6.660156 2.617188 5.417969 2.871094 L 5.417969 3.75 C 5.417969 4.902344 6.347656 5.832031 7.5 5.832031 C 8.652344 5.832031 9.582031 4.902344 9.582031 3.75 L 9.582031 2.902344 C 6.675781 2.769531 6.667969 1.25 6.667969 1.25 Z M 6.667969 1.25 "/>
<path style=" stroke:none;fill-rule:nonzero;fill:rgb(87.45098%,12.156863%,19.607843%);fill-opacity:1;" d="M 8.332031 5 L 6.667969 5 C 6.667969 5 6.667969 5.417969 7.5 5.417969 C 8.332031 5.417969 8.332031 5 8.332031 5 Z M 8.332031 5 "/>
<path style=" stroke:none;fill-rule:nonzero;fill:rgb(75.686275%,41.176471%,30.980392%);fill-opacity:1;" d="M 6.769531 3.644531 L 6.144531 3.644531 C 6.089844 3.644531 6.042969 3.597656 6.042969 3.542969 C 6.042969 3.484375 6.089844 3.4375 6.144531 3.4375 L 6.769531 3.4375 C 6.828125 3.4375 6.875 3.484375 6.875 3.542969 C 6.875 3.597656 6.828125 3.644531 6.769531 3.644531 Z M 8.855469 3.644531 L 8.230469 3.644531 C 8.171875 3.644531 8.125 3.597656 8.125 3.542969 C 8.125 3.484375 8.171875 3.4375 8.230469 3.4375 L 8.855469 3.4375 C 8.910156 3.4375 8.957031 3.484375 8.957031 3.542969 C 8.957031 3.597656 8.910156 3.644531 8.855469 3.644531 Z M 7.082031 4.167969 L 7.917969 4.167969 C 7.917969 4.167969 7.917969 4.582031 7.5 4.582031 C 7.082031 4.582031 7.082031 4.167969 7.082031 4.167969 Z M 7.082031 4.167969 "/>
</g>
</svg>
