<?xml version="1.0" encoding="UTF-8"?>
<svg xmlns="http://www.w3.org/2000/svg" xmlns:xlink="http://www.w3.org/1999/xlink" width="15pt" height="15pt" viewBox="0 0 15 15" version="1.1">
<g id="surface1">
<path style=" stroke:none;fill-rule:nonzero;fill:rgb(68.627451%,49.411765%,34.117647%);fill-opacity:1;" d="M 6.960938 5.515625 C 6.101562 5.476562 5.167969 5.480469 5.167969 5.480469 C 5.167969 5.480469 4.234375 5.476562 3.375 5.515625 C 3.167969 5.523438 2.96875 5.609375 2.8125 5.703125 C 2.628906 5.8125 2.511719 5.929688 2.511719 5.929688 C 2.554688 6.5 3.019531 7.300781 3.082031 7.414062 C 3.253906 7.742188 3.464844 9.191406 3.464844 9.191406 C 3.511719 9.691406 3.464844 10.027344 3.464844 10.027344 L 6.871094 10.027344 C 6.871094 10.027344 6.824219 9.691406 6.871094 9.191406 C 6.871094 9.191406 7.082031 7.742188 7.253906 7.414062 C 7.316406 7.300781 7.78125 6.5 7.824219 5.929688 C 7.824219 5.929688 7.414062 5.535156 6.960938 5.515625 Z M 6.960938 5.515625 "/>
<path style=" stroke:none;fill-rule:nonzero;fill:rgb(56.470588%,37.647059%,24.313725%);fill-opacity:1;" d="M 6.242188 7.636719 C 5.773438 7.636719 5.421875 7.492188 5.40625 7.484375 C 5.351562 7.460938 5.328125 7.398438 5.351562 7.347656 C 5.371094 7.292969 5.433594 7.269531 5.488281 7.292969 C 5.492188 7.292969 6.050781 7.527344 6.675781 7.378906 C 6.734375 7.367188 6.789062 7.402344 6.800781 7.457031 C 6.816406 7.515625 6.78125 7.570312 6.722656 7.582031 C 6.558594 7.625 6.394531 7.636719 6.242188 7.636719 Z M 4.027344 7.636719 C 3.875 7.636719 3.714844 7.625 3.542969 7.585938 C 3.488281 7.570312 3.453125 7.515625 3.464844 7.460938 C 3.480469 7.402344 3.535156 7.371094 3.589844 7.382812 C 4.222656 7.527344 4.777344 7.292969 4.78125 7.292969 C 4.835938 7.269531 4.894531 7.292969 4.917969 7.347656 C 4.941406 7.398438 4.917969 7.460938 4.863281 7.484375 C 4.84375 7.492188 4.496094 7.636719 4.027344 7.636719 Z M 4.027344 7.636719 "/>
<path style=" stroke:none;fill-rule:nonzero;fill:rgb(9.411765%,30.980392%,52.941176%);fill-opacity:1;" d="M 11.976562 10.644531 C 12.699219 9.484375 11.574219 7.644531 11.574219 7.644531 C 11.546875 7.867188 11.429688 8.359375 11.429688 8.359375 C 11.359375 8.777344 11.144531 9.429688 10.503906 10.222656 C 10.066406 10.761719 12.367188 12.515625 12.882812 12.175781 C 13.691406 11.644531 13.542969 10.746094 14.40625 9.789062 C 14.558594 9.621094 14.738281 9.449219 14.964844 9.277344 C 13.476562 9.144531 11.976562 10.644531 11.976562 10.644531 Z M 10.675781 11.925781 C 8.808594 13.433594 6.777344 12.882812 6.347656 12.5 L 3.164062 10.011719 C 0.863281 10.011719 1.296875 13.28125 3.636719 14.324219 C 7.625 16.101562 10.761719 13.730469 11.300781 12.582031 Z M 10.675781 11.925781 "/>
<path style=" stroke:none;fill-rule:nonzero;fill:rgb(25.882353%,57.254902%,87.843137%);fill-opacity:1;" d="M 11.589844 11.199219 C 12.175781 10.300781 11.738281 8.972656 11.429688 8.359375 C 11.359375 8.777344 11.078125 9.351562 10.433594 10.144531 C 10 10.683594 10.234375 11.519531 10.425781 11.894531 C 8.929688 13.078125 7.484375 12.839844 6.75 12.503906 C 7.238281 12.28125 7.578125 11.796875 7.578125 11.234375 C 7.578125 10.453125 6.933594 9.824219 6.136719 9.824219 L 3.164062 9.824219 C 0.863281 9.824219 1.296875 12.902344 3.636719 13.925781 C 7.453125 15.59375 10.71875 13.644531 11.464844 12.488281 C 11.824219 12.527344 12.449219 12.511719 12.953125 12.179688 C 13.761719 11.648438 13.542969 10.746094 14.40625 9.789062 C 12.953125 9.894531 11.589844 11.199219 11.589844 11.199219 Z M 11.589844 11.199219 "/>
<path style=" stroke:none;fill-rule:nonzero;fill:rgb(9.411765%,30.980392%,52.941176%);fill-opacity:1;" d="M 6.753906 12.503906 C 5.792969 12.3125 3.839844 11.410156 3.757812 11.375 C 3.675781 11.335938 3.640625 11.242188 3.679688 11.160156 C 3.71875 11.078125 3.8125 11.042969 3.894531 11.082031 C 3.914062 11.089844 6.179688 12.09375 7.105469 12.277344 C 7.105469 12.277344 7.039062 12.332031 6.964844 12.390625 C 6.890625 12.445312 6.753906 12.503906 6.753906 12.503906 Z M 6.753906 12.503906 "/>
<path style=" stroke:none;fill-rule:nonzero;fill:rgb(68.627451%,49.411765%,34.117647%);fill-opacity:1;" d="M 3.117188 7.246094 C 2.335938 7.679688 1.757812 8.257812 1.710938 8.320312 C 1.511719 8.585938 1.574219 8.949219 1.605469 9.296875 C 1.640625 9.714844 1.652344 10.226562 1.851562 10.511719 C 1.933594 10.625 1.898438 10.828125 1.839844 11.015625 C 1.664062 11.578125 1.964844 12.347656 1.777344 12.214844 C 1.394531 11.945312 1.332031 11.453125 1.34375 11.160156 C 1.347656 10.996094 1.273438 10.792969 1.234375 10.6875 C 1.210938 10.621094 0.671875 9.398438 0.558594 8.839844 C 0.496094 8.539062 0.480469 8.265625 0.71875 7.898438 C 0.976562 7.492188 1.527344 6.671875 2.015625 6.277344 C 2.429688 5.949219 2.667969 5.785156 2.8125 5.703125 C 3.46875 5.347656 3.390625 7.09375 3.117188 7.246094 Z M 12.667969 4.4375 C 12.632812 4.441406 12.605469 4.480469 12.582031 4.539062 C 12.570312 4.46875 12.550781 4.421875 12.503906 4.425781 C 12.453125 4.433594 12.421875 4.519531 12.378906 4.632812 C 12.367188 4.613281 12.351562 4.597656 12.328125 4.601562 C 12.222656 4.605469 12.183594 4.9375 11.949219 5.15625 C 11.917969 5.171875 11.886719 5.1875 11.847656 5.199219 C 11.824219 5.207031 11.808594 5.214844 11.785156 5.222656 C 11.789062 5.117188 11.859375 5.054688 11.898438 5.027344 C 12 4.957031 11.9375 4.78125 11.769531 4.890625 C 11.648438 4.964844 11.597656 5.042969 11.558594 5.117188 C 11.453125 5.335938 11.414062 5.558594 11.421875 5.738281 L 11.371094 5.828125 C 11.3125 5.929688 10.695312 6.316406 10.25 6.648438 C 9.804688 6.976562 9.480469 7.351562 9.242188 7.117188 C 9.078125 6.957031 8.632812 6.394531 7.859375 5.9375 C 7.390625 5.664062 6.71875 5.578125 6.71875 5.578125 C 6.382812 5.851562 6.8125 6.835938 7.058594 7.097656 C 7.464844 7.535156 8.867188 8.28125 9.300781 8.476562 C 9.738281 8.671875 10.011719 8.410156 10.21875 8.222656 C 10.386719 8.070312 11.648438 6.527344 11.761719 6.421875 C 11.914062 6.277344 12.203125 6.089844 12.367188 5.796875 C 12.507812 5.550781 12.59375 5.347656 12.644531 5.027344 C 12.675781 4.835938 12.8125 4.421875 12.667969 4.4375 Z M 4.390625 4.289062 L 4.390625 5.839844 C 4.390625 6.269531 4.738281 6.617188 5.167969 6.617188 C 5.597656 6.617188 5.945312 6.269531 5.945312 5.839844 L 5.945312 4.289062 Z M 4.390625 4.289062 "/>
<path style=" stroke:none;fill-rule:nonzero;fill:rgb(60.784314%,41.568627%,28.627451%);fill-opacity:1;" d="M 5.945312 3.898438 L 4.390625 3.90625 L 4.390625 5.453125 C 4.390625 5.453125 5.167969 5.839844 5.945312 5.453125 Z M 5.945312 3.898438 "/>
<path style=" stroke:none;fill-rule:nonzero;fill:rgb(68.627451%,49.411765%,34.117647%);fill-opacity:1;" d="M 7.109375 1.957031 L 3.226562 1.613281 L 3.226562 3.511719 C 3.226562 4.585938 4.097656 5.453125 5.167969 5.453125 C 6.238281 5.453125 7.109375 4.585938 7.109375 3.511719 Z M 7.109375 1.957031 "/>
<path style=" stroke:none;fill-rule:nonzero;fill:rgb(56.862745%,35.294118%,20.392157%);fill-opacity:1;" d="M 5.945312 4.675781 L 4.390625 4.675781 C 4.390625 4.675781 4.390625 5.066406 5.167969 5.066406 C 5.945312 5.066406 5.945312 4.675781 5.945312 4.675781 Z M 5.945312 4.675781 "/>
<path style=" stroke:none;fill-rule:nonzero;fill:rgb(40%,12.941176%,7.45098%);fill-opacity:1;" d="M 4.390625 3.316406 C 4.390625 3.425781 4.304688 3.511719 4.195312 3.511719 C 4.089844 3.511719 4.003906 3.425781 4.003906 3.316406 C 4.003906 3.210938 4.089844 3.125 4.195312 3.125 C 4.304688 3.125 4.390625 3.210938 4.390625 3.316406 Z M 4.390625 3.316406 "/>
<path style=" stroke:none;fill-rule:nonzero;fill:rgb(40%,12.941176%,7.45098%);fill-opacity:1;" d="M 6.332031 3.316406 C 6.332031 3.425781 6.246094 3.511719 6.140625 3.511719 C 6.03125 3.511719 5.945312 3.425781 5.945312 3.316406 C 5.945312 3.210938 6.03125 3.125 6.140625 3.125 C 6.246094 3.125 6.332031 3.210938 6.332031 3.316406 Z M 6.332031 3.316406 "/>
<path style=" stroke:none;fill-rule:nonzero;fill:rgb(56.862745%,35.294118%,20.392157%);fill-opacity:1;" d="M 4.78125 3.898438 L 5.554688 3.898438 C 5.554688 3.898438 5.554688 4.289062 5.167969 4.289062 C 4.78125 4.289062 4.78125 3.898438 4.78125 3.898438 Z M 4.78125 3.898438 "/>
<path style=" stroke:none;fill-rule:nonzero;fill:rgb(25.882353%,57.254902%,87.843137%);fill-opacity:1;" d="M 5.167969 0.421875 C 6.5 0.421875 7.332031 1.40625 7.332031 2.226562 C 7.332031 3.042969 7.167969 3.371094 7 3.042969 L 6.667969 2.390625 C 6.667969 2.390625 5.667969 2.390625 5.335938 2.0625 C 5.335938 2.0625 5.835938 3.042969 4.835938 2.0625 C 4.835938 2.0625 5 2.71875 4 1.898438 C 4 1.898438 3.5 2.226562 3.335938 3.042969 C 3.289062 3.273438 3.003906 3.042969 3.003906 2.226562 C 3.003906 1.40625 3.667969 0.421875 5.167969 0.421875 "/>
</g>
</svg>
