<?xml version="1.0" encoding="UTF-8"?>
<svg xmlns="http://www.w3.org/2000/svg" xmlns:xlink="http://www.w3.org/1999/xlink" width="15pt" height="15pt" viewBox="0 0 15 15" version="1.1">
<g id="surface1">
<path style=" stroke:none;fill-rule:nonzero;fill:rgb(80.784314%,61.960784%,36.470588%);fill-opacity:1;" d="M 13.332031 15 L 13.332031 14.167969 C 13.332031 12.785156 12.214844 11.667969 10.832031 11.667969 L 4.167969 11.667969 C 2.785156 11.667969 1.667969 12.785156 1.667969 14.167969 L 1.667969 15 Z M 13.332031 15 "/>
<path style=" stroke:none;fill-rule:nonzero;fill:rgb(100%,95.294118%,37.254902%);fill-opacity:1;" d="M 1.703125 13.75 C 1.679688 13.886719 1.667969 14.023438 1.667969 14.167969 L 1.667969 15 L 13.332031 15 L 13.332031 14.167969 C 13.332031 14.023438 13.320312 13.886719 13.296875 13.75 Z M 1.703125 13.75 "/>
<path style=" stroke:none;fill-rule:nonzero;fill:rgb(80%,83.921569%,86.666667%);fill-opacity:1;" d="M 1.667969 14.167969 L 13.332031 14.167969 L 13.332031 14.582031 L 1.667969 14.582031 Z M 1.667969 14.167969 "/>
<path style=" stroke:none;fill-rule:nonzero;fill:rgb(62.745098%,1.568627%,11.764706%);fill-opacity:1;" d="M 13.332031 5.691406 C 13.332031 7.1875 10.722656 8.398438 7.5 8.398438 C 4.277344 8.398438 1.667969 7.1875 1.667969 5.691406 C 1.667969 4.195312 4.277344 4.648438 7.5 4.648438 C 10.722656 4.648438 13.332031 4.195312 13.332031 5.691406 Z M 13.332031 5.691406 "/>
<path style=" stroke:none;fill-rule:nonzero;fill:rgb(16.078431%,18.431373%,20%);fill-opacity:1;" d="M 5.832031 11.25 L 9.167969 11.25 C 9.167969 11.25 8.742188 14.167969 7.5 14.167969 C 6.257812 14.167969 5.832031 11.25 5.832031 11.25 Z M 5.832031 11.25 "/>
<path style=" stroke:none;fill-rule:nonzero;fill:rgb(68.627451%,49.411765%,34.117647%);fill-opacity:1;" d="M 5.683594 11.707031 C 6.410156 12.238281 6.871094 12.527344 7.5 12.527344 C 8.128906 12.527344 8.589844 12.234375 9.316406 11.707031 L 9.316406 10.121094 L 5.683594 10.121094 Z M 5.683594 11.707031 "/>
<path style=" stroke:none;fill-rule:nonzero;fill:rgb(60.784314%,41.568627%,28.627451%);fill-opacity:1;" d="M 5.679688 10.820312 C 6.1875 11.394531 6.816406 11.550781 7.5 11.550781 C 8.179688 11.550781 8.808594 11.394531 9.316406 10.820312 L 9.316406 9.367188 L 5.679688 9.367188 Z M 5.679688 10.820312 "/>
<path style=" stroke:none;fill-rule:nonzero;fill:rgb(37.647059%,20.784314%,16.470588%);fill-opacity:1;" d="M 8.8125 1.375 C 8.011719 1.117188 6.363281 1.183594 5.894531 1.796875 C 4.667969 1.820312 3.359375 3.019531 3.171875 4.480469 C 2.984375 5.929688 3.269531 6.511719 3.417969 7.601562 C 3.585938 8.832031 4.277344 9.226562 4.832031 9.394531 C 5.628906 10.445312 6.476562 10.402344 7.902344 10.402344 C 10.679688 10.402344 11.765625 8.542969 11.878906 5.386719 C 11.953125 3.476562 10.828125 2.027344 8.8125 1.375 Z M 8.8125 1.375 "/>
<path style=" stroke:none;fill-rule:nonzero;fill:rgb(68.627451%,49.411765%,34.117647%);fill-opacity:1;" d="M 10.644531 5.519531 C 10.375 5.144531 10.03125 4.84375 9.277344 4.738281 C 9.558594 4.871094 9.832031 5.316406 9.867188 5.566406 C 9.902344 5.8125 9.9375 6.015625 9.714844 5.765625 C 8.816406 4.773438 7.835938 5.164062 6.867188 4.558594 C 6.191406 4.132812 5.984375 3.664062 5.984375 3.664062 C 5.984375 3.664062 5.902344 4.289062 4.875 4.929688 C 4.578125 5.113281 4.222656 5.523438 4.027344 6.132812 C 3.886719 6.566406 3.929688 6.957031 3.929688 7.621094 C 3.929688 9.5625 5.53125 11.195312 7.503906 11.195312 C 9.476562 11.195312 11.078125 9.550781 11.078125 7.621094 C 11.078125 6.414062 10.953125 5.941406 10.644531 5.519531 Z M 10.644531 5.519531 "/>
<path style=" stroke:none;fill-rule:nonzero;fill:rgb(56.862745%,35.294118%,20.392157%);fill-opacity:1;" d="M 7.902344 8.617188 L 7.105469 8.617188 C 6.996094 8.617188 6.90625 8.527344 6.90625 8.417969 C 6.90625 8.308594 6.996094 8.21875 7.105469 8.21875 L 7.902344 8.21875 C 8.011719 8.21875 8.097656 8.308594 8.097656 8.417969 C 8.097656 8.527344 8.011719 8.617188 7.902344 8.617188 Z M 7.902344 8.617188 "/>
<path style=" stroke:none;fill-rule:nonzero;fill:rgb(40%,12.941176%,7.45098%);fill-opacity:1;" d="M 5.914062 7.226562 C 5.695312 7.226562 5.515625 7.046875 5.515625 6.828125 L 5.515625 6.429688 C 5.515625 6.210938 5.695312 6.035156 5.914062 6.035156 C 6.132812 6.035156 6.3125 6.210938 6.3125 6.429688 L 6.3125 6.828125 C 6.3125 7.046875 6.132812 7.226562 5.914062 7.226562 Z M 9.09375 7.226562 C 8.871094 7.226562 8.695312 7.046875 8.695312 6.828125 L 8.695312 6.429688 C 8.695312 6.210938 8.871094 6.035156 9.09375 6.035156 C 9.3125 6.035156 9.488281 6.210938 9.488281 6.429688 L 9.488281 6.828125 C 9.488281 7.046875 9.3125 7.226562 9.09375 7.226562 Z M 9.09375 7.226562 "/>
<path style=" stroke:none;fill-rule:nonzero;fill:rgb(56.862745%,35.294118%,20.392157%);fill-opacity:1;" d="M 7.554688 10.273438 C 6.410156 10.273438 6.054688 9.980469 5.996094 9.921875 C 5.890625 9.8125 5.890625 9.640625 5.996094 9.535156 C 6.101562 9.429688 6.265625 9.429688 6.371094 9.523438 C 6.394531 9.539062 6.671875 9.726562 7.554688 9.726562 C 8.472656 9.726562 8.738281 9.527344 8.738281 9.523438 C 8.847656 9.417969 9.015625 9.421875 9.121094 9.53125 C 9.226562 9.636719 9.222656 9.8125 9.113281 9.921875 C 9.054688 9.980469 8.703125 10.273438 7.554688 10.273438 "/>
<path style=" stroke:none;fill-rule:nonzero;fill:rgb(16.078431%,18.431373%,20%);fill-opacity:1;" d="M 11.25 15 L 11.25 11.25 C 11.25 11.019531 11.0625 10.832031 10.832031 10.832031 L 10.417969 10.832031 C 10.1875 10.832031 10 11.019531 10 11.25 L 10 15 Z M 5 15 L 5 11.25 C 5 11.019531 4.8125 10.832031 4.582031 10.832031 L 4.167969 10.832031 C 3.9375 10.832031 3.75 11.019531 3.75 11.25 L 3.75 15 Z M 5 15 "/>
<path style=" stroke:none;fill-rule:nonzero;fill:rgb(87.45098%,12.156863%,19.607843%);fill-opacity:1;" d="M 12.023438 4.523438 C 11.664062 4.453125 11.566406 2.84375 10.738281 1.664062 C 9.957031 0.554688 8.460938 0 7.5 0 C 6.539062 0 5.042969 0.554688 4.261719 1.664062 C 3.429688 2.84375 3.335938 4.453125 2.976562 4.523438 C 1.59375 4.800781 1.660156 5.519531 1.667969 5.683594 C 1.71875 5.488281 1.851562 5.027344 3.292969 5 C 4.710938 4.972656 6.035156 5.335938 7.5 5.335938 C 8.964844 5.335938 10.285156 4.972656 11.703125 5 C 13.148438 5.023438 13.277344 5.488281 13.332031 5.683594 C 13.339844 5.519531 13.402344 4.800781 12.023438 4.523438 Z M 12.023438 4.523438 "/>
<path style=" stroke:none;fill-rule:nonzero;fill:rgb(91.764706%,34.901961%,43.137255%);fill-opacity:1;" d="M 7.5 0 C 6.628906 0 5.417969 1.496094 5.417969 2.105469 L 5.417969 3.75 C 5.417969 3.75 5.460938 4.167969 5.800781 4.167969 L 9.199219 4.167969 C 9.539062 4.167969 9.582031 3.75 9.582031 3.75 L 9.582031 2.105469 C 9.582031 1.496094 8.371094 0 7.5 0 Z M 7.5 0 "/>
<path style=" stroke:none;fill-rule:nonzero;fill:rgb(80.784314%,61.960784%,36.470588%);fill-opacity:1;" d="M 9.953125 10.417969 C 9.78125 10.257812 8.921875 10.566406 8.691406 10.832031 C 8.464844 11.097656 8.425781 11.558594 8.273438 12.082031 C 8.140625 12.53125 7.617188 13.734375 7.46875 14.074219 C 7.320312 13.734375 6.800781 12.53125 6.667969 12.082031 C 6.511719 11.558594 6.476562 11.097656 6.25 10.832031 C 6.023438 10.566406 5.167969 10.257812 5 10.417969 C 4.832031 10.574219 5.007812 11.027344 5 11.25 C 4.992188 11.472656 5 15 5 15 L 10 15 C 10 15 10.007812 11.472656 10 11.25 C 9.992188 11.027344 10.121094 10.574219 9.953125 10.417969 Z M 9.953125 10.417969 "/>
</g>
</svg>
