<?xml version="1.0" encoding="UTF-8"?>
<svg xmlns="http://www.w3.org/2000/svg" xmlns:xlink="http://www.w3.org/1999/xlink" width="15pt" height="15pt" viewBox="0 0 15 15" version="1.1">
<g id="surface1">
<path style=" stroke:none;fill-rule:nonzero;fill:rgb(77.647059%,22.352941%,0%);fill-opacity:1;" d="M 13.75 7.925781 C 13.75 7.113281 10.953125 6.457031 7.5 6.457031 C 4.046875 6.457031 1.25 7.113281 1.25 7.925781 C 1.25 8.738281 4.046875 9.398438 7.5 9.398438 C 10.953125 9.398438 13.75 8.738281 13.75 7.925781 Z M 13.75 7.925781 "/>
<path style=" stroke:none;fill-rule:nonzero;fill:rgb(98.039216%,45.490196%,24.313725%);fill-opacity:1;" d="M 10.949219 11.78125 L 4.28125 11.78125 C 3.246094 11.78125 2.292969 12.382812 1.878906 13.21875 C 1.726562 13.046875 1.503906 12.960938 1.25 12.960938 C 0.792969 12.960938 0.417969 13.351562 0.417969 13.792969 L 0.417969 15 L 13.332031 15 L 13.332031 14.195312 C 13.332031 12.863281 12.328125 11.78125 10.949219 11.78125 Z M 10.949219 11.78125 "/>
<path style=" stroke:none;fill-rule:nonzero;fill:rgb(96.862745%,87.058824%,80.784314%);fill-opacity:1;" d="M 5.832031 10.417969 L 5.832031 11.765625 C 5.832031 11.765625 5.839844 11.765625 5.839844 11.769531 C 5.894531 11.867188 7.398438 14.578125 7.5 14.578125 C 7.605469 14.578125 9.109375 11.867188 9.160156 11.769531 C 9.164062 11.765625 9.167969 11.765625 9.167969 11.765625 L 9.167969 10.417969 Z M 5.832031 10.417969 "/>
<path style=" stroke:none;fill-rule:nonzero;fill:rgb(93.333333%,76.078431%,67.843137%);fill-opacity:1;" d="M 5.832031 11.5 C 6.296875 12.023438 6.875 12.164062 7.5 12.164062 C 8.125 12.164062 8.703125 12.023438 9.167969 11.5 L 9.167969 10.164062 L 5.832031 10.164062 Z M 5.832031 11.5 "/>
<path style=" stroke:none;fill-rule:nonzero;fill:rgb(81.960784%,82.745098%,83.137255%);fill-opacity:1;" d="M 7.492188 5.648438 C 6.40625 5.648438 5.136719 6.980469 3.695312 7.265625 C 3.753906 7.890625 3.941406 8.359375 4.027344 8.988281 C 4.167969 10.019531 4.75 10.347656 5.214844 10.488281 C 5.878906 11.371094 6.589844 11.332031 7.78125 11.332031 C 10.066406 11.332031 11.171875 9.828125 11.304688 7.269531 C 9.855469 6.980469 8.582031 5.648438 7.492188 5.648438 Z M 7.492188 5.648438 "/>
<path style=" stroke:none;fill-rule:nonzero;fill:rgb(96.862745%,87.058824%,80.784314%);fill-opacity:1;" d="M 10.132812 7.246094 C 9.90625 6.933594 9.617188 6.683594 8.984375 6.59375 C 9.222656 6.703125 9.449219 7.078125 9.480469 7.285156 C 9.507812 7.492188 9.539062 7.660156 9.351562 7.453125 C 8.601562 6.621094 7.78125 6.949219 6.972656 6.441406 C 6.40625 6.085938 6.230469 5.695312 6.230469 5.695312 C 6.230469 5.695312 6.164062 6.21875 5.304688 6.75 C 5.054688 6.90625 4.757812 7.25 4.59375 7.757812 C 4.476562 8.121094 4.511719 8.449219 4.511719 9.003906 C 4.511719 10.628906 5.851562 11.996094 7.503906 11.996094 C 9.15625 11.996094 10.496094 10.617188 10.496094 9.003906 C 10.492188 7.996094 10.386719 7.597656 10.132812 7.246094 Z M 10.132812 7.246094 "/>
<path style=" stroke:none;fill-rule:nonzero;fill:rgb(75.686275%,41.176471%,30.980392%);fill-opacity:1;" d="M 7.832031 9.835938 L 7.167969 9.835938 C 7.078125 9.835938 7 9.761719 7 9.671875 C 7 9.578125 7.074219 9.503906 7.167969 9.503906 L 7.832031 9.503906 C 7.925781 9.503906 8 9.578125 8 9.671875 C 8 9.761719 7.925781 9.835938 7.832031 9.835938 Z M 7.832031 9.835938 "/>
<path style=" stroke:none;fill-rule:nonzero;fill:rgb(40%,12.941176%,7.45098%);fill-opacity:1;" d="M 6.171875 8.671875 C 5.988281 8.671875 5.839844 8.523438 5.839844 8.339844 L 5.839844 8.007812 C 5.839844 7.824219 5.988281 7.675781 6.171875 7.675781 C 6.355469 7.675781 6.503906 7.824219 6.503906 8.007812 L 6.503906 8.339844 C 6.503906 8.523438 6.355469 8.671875 6.171875 8.671875 Z M 8.828125 8.671875 C 8.644531 8.671875 8.496094 8.523438 8.496094 8.339844 L 8.496094 8.007812 C 8.496094 7.824219 8.644531 7.675781 8.828125 7.675781 C 9.011719 7.675781 9.160156 7.824219 9.160156 8.007812 L 9.160156 8.339844 C 9.160156 8.523438 9.011719 8.671875 8.828125 8.671875 Z M 8.828125 8.671875 "/>
<path style=" stroke:none;fill-rule:nonzero;fill:rgb(75.686275%,41.176471%,30.980392%);fill-opacity:1;" d="M 7.5 11.027344 C 6.515625 11.027344 6.214844 10.777344 6.164062 10.722656 C 6.070312 10.632812 6.070312 10.484375 6.164062 10.394531 C 6.253906 10.304688 6.394531 10.304688 6.484375 10.386719 C 6.503906 10.398438 6.742188 10.558594 7.5 10.558594 C 8.285156 10.558594 8.511719 10.386719 8.511719 10.382812 C 8.605469 10.292969 8.75 10.296875 8.839844 10.390625 C 8.929688 10.480469 8.925781 10.632812 8.835938 10.722656 C 8.785156 10.777344 8.480469 11.027344 7.5 11.027344 "/>
<path style=" stroke:none;fill-rule:nonzero;fill:rgb(98.039216%,45.490196%,24.313725%);fill-opacity:1;" d="M 10.734375 6.316406 C 10.222656 5.195312 7.832031 0 7.5 0 C 7.167969 0 4.777344 5.195312 4.265625 6.316406 C 2.257812 6.667969 1.25 7.332031 1.25 7.917969 C 3.75 7.082031 5.832031 6.898438 7.5 6.898438 C 9.167969 6.898438 11.25 7.082031 13.75 7.917969 C 13.75 7.332031 12.742188 6.667969 10.734375 6.316406 Z M 10.734375 6.316406 "/>
<path style=" stroke:none;fill-rule:nonzero;fill:rgb(85.098039%,61.960784%,50.980392%);fill-opacity:1;" d="M 2.082031 15 L 1.25 15 L 1.25 4.941406 L 0.832031 3.332031 L 2.5 3.332031 L 2.082031 4.941406 Z M 2.082031 15 "/>
<path style=" stroke:none;fill-rule:nonzero;fill:rgb(33.333333%,67.45098%,93.333333%);fill-opacity:1;" d="M 2.917969 2.5 C 2.917969 3.191406 2.355469 3.75 1.667969 3.75 C 0.976562 3.75 0.417969 3.191406 0.417969 2.5 C 0.417969 1.808594 0.976562 1.25 1.667969 1.25 C 2.355469 1.25 2.917969 1.808594 2.917969 2.5 Z M 2.917969 2.5 "/>
<path style=" stroke:none;fill-rule:nonzero;fill:rgb(69.019608%,94.117647%,100%);fill-opacity:1;" d="M 2.082031 2.292969 C 2.082031 2.636719 1.804688 2.917969 1.457031 2.917969 C 1.113281 2.917969 0.832031 2.636719 0.832031 2.292969 C 0.832031 1.945312 1.113281 1.667969 1.457031 1.667969 C 1.804688 1.667969 2.082031 1.945312 2.082031 2.292969 Z M 2.082031 2.292969 "/>
<path style=" stroke:none;fill-rule:nonzero;fill:rgb(96.862745%,87.058824%,80.784314%);fill-opacity:1;" d="M 2.917969 12.707031 C 2.917969 13.515625 2.355469 14.167969 1.667969 14.167969 C 0.976562 14.167969 0.417969 13.515625 0.417969 12.707031 C 0.417969 11.902344 0.976562 11.667969 1.667969 11.667969 C 2.355469 11.667969 2.917969 11.902344 2.917969 12.707031 Z M 2.917969 12.707031 "/>
</g>
</svg>
