<?xml version="1.0" encoding="UTF-8"?>
<svg xmlns="http://www.w3.org/2000/svg" xmlns:xlink="http://www.w3.org/1999/xlink" width="15pt" height="15pt" viewBox="0 0 15 15" version="1.1">
<g id="surface1">
<path style=" stroke:none;fill-rule:nonzero;fill:rgb(67.058824%,87.45098%,100%);fill-opacity:1;" d="M 8.652344 8.445312 C 6.753906 10.984375 6.289062 13.726562 7.613281 14.578125 C 8.9375 15.425781 11.550781 14.054688 13.449219 11.515625 C 15.347656 8.980469 14.597656 4.421875 14.492188 4.589844 C 13.75 5.742188 10.554688 5.910156 8.652344 8.445312 Z M 8.652344 8.445312 "/>
<path style=" stroke:none;fill-rule:nonzero;fill:rgb(67.058824%,87.45098%,100%);fill-opacity:1;" d="M 6.355469 8.445312 C 8.253906 10.984375 8.722656 13.726562 7.398438 14.578125 C 6.074219 15.425781 3.460938 14.054688 1.558594 11.515625 C -0.339844 8.980469 0.375 4.445312 0.519531 4.589844 C 2.082031 6.128906 4.457031 5.910156 6.355469 8.445312 Z M 6.355469 8.445312 "/>
<path style=" stroke:none;fill-rule:nonzero;fill:rgb(33.333333%,67.45098%,93.333333%);fill-opacity:1;" d="M 1.914062 7.429688 C 1.714844 7.09375 1.433594 6.742188 1.59375 7.339844 C 1.816406 8.195312 2.503906 9.53125 3.613281 10.371094 C 4.078125 10.722656 4.117188 10.191406 3.6875 9.785156 C 2.578125 8.738281 2.316406 8.097656 1.914062 7.429688 Z M 13.085938 7.429688 C 12.683594 8.097656 12.421875 8.738281 11.3125 9.785156 C 10.882812 10.191406 10.921875 10.722656 11.386719 10.371094 C 12.496094 9.53125 13.183594 8.195312 13.40625 7.339844 C 13.566406 6.742188 13.285156 7.09375 13.085938 7.429688 Z M 13.085938 7.429688 "/>
<path style=" stroke:none;fill-rule:nonzero;fill:rgb(96.862745%,87.058824%,80.784314%);fill-opacity:1;" d="M 12.917969 15 L 12.917969 13.542969 C 12.917969 12.160156 11.382812 11.25 10 11.25 L 5 11.25 C 3.621094 11.25 2.082031 12.160156 2.082031 13.542969 L 2.082031 15 Z M 12.917969 15 "/>
<path style=" stroke:none;fill-rule:nonzero;fill:rgb(96.862745%,87.058824%,80.784314%);fill-opacity:1;" d="M 5.832031 8.359375 L 5.832031 11.691406 C 5.832031 12.613281 6.578125 13.359375 7.5 13.359375 C 8.421875 13.359375 9.167969 12.613281 9.167969 11.691406 L 9.167969 8.359375 Z M 5.832031 8.359375 "/>
<path style=" stroke:none;fill-rule:nonzero;fill:rgb(93.333333%,76.078431%,67.843137%);fill-opacity:1;" d="M 5.832031 10.40625 C 6.296875 10.929688 6.875 11.070312 7.5 11.070312 C 8.125 11.070312 8.703125 10.929688 9.167969 10.40625 L 9.167969 9.070312 L 5.832031 9.070312 Z M 5.832031 10.40625 "/>
<path style=" stroke:none;fill-rule:nonzero;fill:rgb(98.039216%,45.490196%,24.313725%);fill-opacity:1;" d="M 10.417969 11.25 L 9.167969 11.25 C 9.167969 11.25 8.777344 13.75 7.5 13.75 C 6.222656 13.75 5.832031 11.25 5.832031 11.25 L 4.582031 11.25 C 3.332031 11.25 2.917969 11.667969 2.917969 11.667969 C 2.917969 11.667969 3.75 12.5 3.75 13.75 L 3.75 15 L 11.25 15 L 11.25 13.75 C 11.25 12.507812 12.082031 11.667969 12.082031 11.667969 C 12.082031 11.667969 11.667969 11.25 10.417969 11.25 Z M 10.417969 11.25 "/>
<path style=" stroke:none;fill-rule:nonzero;fill:rgb(16.078431%,18.431373%,20%);fill-opacity:1;" d="M 8.972656 1.136719 C 8.183594 0.882812 6.328125 0.953125 5.863281 1.554688 C 4.65625 1.578125 3.242188 2.667969 3.054688 4.109375 C 2.871094 5.53125 3.28125 6.191406 3.425781 7.261719 C 3.59375 8.476562 4.273438 8.863281 4.820312 9.027344 C 5.601562 10.0625 6.4375 10.019531 7.835938 10.019531 C 10.570312 10.019531 11.871094 8.1875 11.988281 5.082031 C 12.058594 3.203125 10.953125 1.78125 8.972656 1.136719 Z M 8.972656 1.136719 "/>
<path style=" stroke:none;fill-rule:nonzero;fill:rgb(96.862745%,87.058824%,80.784314%);fill-opacity:1;" d="M 10.59375 5.214844 C 10.328125 4.847656 9.988281 4.554688 9.246094 4.449219 C 9.523438 4.578125 9.792969 5.015625 9.828125 5.261719 C 9.863281 5.503906 9.894531 5.703125 9.675781 5.457031 C 8.792969 4.484375 7.832031 4.867188 6.878906 4.269531 C 6.214844 3.855469 6.011719 3.394531 6.011719 3.394531 C 6.011719 3.394531 5.929688 4.007812 4.917969 4.632812 C 4.628906 4.816406 4.277344 5.21875 4.085938 5.816406 C 3.945312 6.246094 3.988281 6.628906 3.988281 7.285156 C 3.988281 9.195312 5.5625 10.800781 7.503906 10.800781 C 9.445312 10.800781 11.019531 9.179688 11.019531 7.285156 C 11.019531 6.097656 10.894531 5.632812 10.59375 5.214844 Z M 10.59375 5.214844 "/>
<path style=" stroke:none;fill-rule:nonzero;fill:rgb(75.686275%,41.176471%,30.980392%);fill-opacity:1;" d="M 9.0625 9.238281 L 5.9375 9.238281 C 5.9375 9.238281 6.328125 10.019531 7.5 10.019531 C 8.671875 10.019531 9.0625 9.238281 9.0625 9.238281 Z M 7.890625 8.261719 L 7.109375 8.261719 C 7 8.261719 6.914062 8.171875 6.914062 8.066406 C 6.914062 7.957031 7 7.871094 7.109375 7.871094 L 7.890625 7.871094 C 8 7.871094 8.085938 7.957031 8.085938 8.066406 C 8.085938 8.171875 8 8.261719 7.890625 8.261719 Z M 7.890625 8.261719 "/>
<path style=" stroke:none;fill-rule:nonzero;fill:rgb(40%,12.941176%,7.45098%);fill-opacity:1;" d="M 5.9375 6.894531 C 5.722656 6.894531 5.546875 6.71875 5.546875 6.503906 L 5.546875 6.113281 C 5.546875 5.898438 5.722656 5.722656 5.9375 5.722656 C 6.152344 5.722656 6.328125 5.898438 6.328125 6.113281 L 6.328125 6.503906 C 6.328125 6.71875 6.152344 6.894531 5.9375 6.894531 Z M 9.0625 6.894531 C 8.847656 6.894531 8.671875 6.71875 8.671875 6.503906 L 8.671875 6.113281 C 8.671875 5.898438 8.847656 5.722656 9.0625 5.722656 C 9.277344 5.722656 9.453125 5.898438 9.453125 6.113281 L 9.453125 6.503906 C 9.453125 6.71875 9.277344 6.894531 9.0625 6.894531 Z M 9.0625 6.894531 "/>
</g>
</svg>
