<?xml version="1.0" encoding="UTF-8"?>
<svg xmlns="http://www.w3.org/2000/svg" xmlns:xlink="http://www.w3.org/1999/xlink" width="15pt" height="15pt" viewBox="0 0 15 15" version="1.1">
<defs>
<filter id="alpha" filterUnits="objectBoundingBox" x="0%" y="0%" width="100%" height="100%">
  <feColorMatrix type="matrix" in="SourceGraphic" values="0 0 0 0 1 0 0 0 0 1 0 0 0 0 1 0 0 0 1 0"/>
</filter>
<mask id="mask0">
  <g filter="url(#alpha)">
<rect x="0" y="0" width="15" height="15" style="fill:rgb(0%,0%,0%);fill-opacity:0.701961;stroke:none;"/>
  </g>
</mask>
<clipPath id="clip1">
  <rect x="0" y="0" width="15" height="15"/>
</clipPath>
<g id="surface5" clip-path="url(#clip1)">
<path style=" stroke:none;fill-rule:nonzero;fill:rgb(100%,100%,100%);fill-opacity:1;" d="M 13.332031 11.667969 C 12.09375 11.667969 11.066406 12.570312 10.871094 13.753906 C 10.859375 13.753906 10.847656 13.75 10.832031 13.75 C 9.980469 13.75 9.246094 14.265625 8.925781 15 L 13.75 15 C 14.4375 15 15 14.4375 15 13.75 L 15 12.308594 C 14.558594 11.910156 13.972656 11.667969 13.332031 11.667969 Z M 5.65625 15 C 5.335938 14.265625 4.605469 13.75 3.75 13.75 C 3.425781 13.75 3.121094 13.832031 2.847656 13.964844 C 2.886719 13.828125 2.917969 13.691406 2.917969 13.542969 C 2.917969 12.734375 2.265625 12.082031 1.457031 12.082031 C 0.722656 12.082031 0.121094 12.628906 0.0195312 13.332031 L 0 13.332031 L 0 13.75 C 0 14.4375 0.5625 15 1.25 15 Z M 5.65625 15 "/>
</g>
</defs>
<g id="surface1">
<path style=" stroke:none;fill-rule:nonzero;fill:rgb(88.235294%,90.980392%,92.941176%);fill-opacity:1;" d="M 3.75 10.625 C 3.75 11.660156 2.910156 12.5 1.875 12.5 C 0.839844 12.5 0 11.660156 0 10.625 C 0 9.589844 0.839844 8.75 1.875 8.75 C 2.910156 8.75 3.75 9.589844 3.75 10.625 Z M 3.75 10.625 "/>
<path style=" stroke:none;fill-rule:nonzero;fill:rgb(88.235294%,90.980392%,92.941176%);fill-opacity:1;" d="M 12.917969 8.542969 C 12.917969 9.808594 11.890625 10.832031 10.625 10.832031 C 9.359375 10.832031 8.332031 9.808594 8.332031 8.542969 C 8.332031 7.277344 9.359375 6.25 10.625 6.25 C 11.890625 6.25 12.917969 7.277344 12.917969 8.542969 Z M 12.917969 8.542969 "/>
<path style=" stroke:none;fill-rule:nonzero;fill:rgb(88.235294%,90.980392%,92.941176%);fill-opacity:1;" d="M 15 11.042969 C 15 12.191406 14.066406 13.125 12.917969 13.125 C 11.765625 13.125 10.832031 12.191406 10.832031 11.042969 C 10.832031 9.890625 11.765625 8.957031 12.917969 8.957031 C 14.066406 8.957031 15 9.890625 15 11.042969 Z M 15 11.042969 "/>
<path style=" stroke:none;fill-rule:nonzero;fill:rgb(88.235294%,90.980392%,92.941176%);fill-opacity:1;" d="M 7.082031 10 C 7.082031 11.152344 6.152344 12.082031 5 12.082031 C 3.847656 12.082031 2.917969 11.152344 2.917969 10 C 2.917969 8.847656 3.847656 7.917969 5 7.917969 C 6.152344 7.917969 7.082031 8.847656 7.082031 10 Z M 7.082031 10 "/>
<path style=" stroke:none;fill-rule:nonzero;fill:rgb(88.235294%,90.980392%,92.941176%);fill-opacity:1;" d="M 13.75 12.5 C 13.058594 12.5 12.5 13.058594 12.5 13.75 L 2.5 13.75 C 2.5 13.058594 1.941406 12.5 1.25 12.5 C 0.558594 12.5 0 13.058594 0 13.75 C 0 14.441406 0.558594 15 1.25 15 L 13.332031 15 L 13.332031 14.921875 C 13.464844 14.96875 13.601562 15 13.75 15 C 14.441406 15 15 14.441406 15 13.75 C 15 13.058594 14.441406 12.5 13.75 12.5 Z M 13.75 12.5 "/>
<path style=" stroke:none;fill-rule:nonzero;fill:rgb(88.235294%,90.980392%,92.941176%);fill-opacity:1;" d="M 0 10.625 L 3.75 10.625 L 3.75 13.75 L 0 13.75 Z M 8.332031 9.582031 L 12.082031 9.582031 L 12.082031 11.25 L 8.332031 11.25 Z M 12.917969 11.042969 L 15 11.042969 L 15 13.75 L 12.917969 13.75 Z M 12.917969 11.042969 "/>
<path style=" stroke:none;fill-rule:nonzero;fill:rgb(48.627451%,32.54902%,24.313725%);fill-opacity:1;" d="M 12.917969 15 L 12.917969 13.125 C 12.917969 11.746094 11.433594 10.832031 10.050781 10.832031 L 5.050781 10.832031 C 3.671875 10.832031 2.082031 11.746094 2.082031 13.125 L 2.082031 15 Z M 12.917969 15 "/>
<path style=" stroke:none;fill-rule:nonzero;fill:rgb(4.313725%,0.784314%,0%);fill-opacity:1;" d="M 7.476562 1.65625 C 9.1875 1.65625 12.039062 2.511719 12.039062 6.21875 C 12.039062 9.925781 12.039062 10.78125 11.183594 10.78125 C 10.328125 10.78125 9.1875 9.925781 7.476562 9.925781 C 5.765625 9.925781 4.648438 10.78125 3.769531 10.78125 C 2.816406 10.78125 2.914062 7.359375 2.914062 6.21875 C 2.914062 2.511719 5.765625 1.65625 7.476562 1.65625 "/>
<path style=" stroke:none;fill-rule:nonzero;fill:rgb(48.627451%,32.54902%,24.313725%);fill-opacity:1;" d="M 6.042969 10.832031 C 6.457031 11.660156 7.203125 12.707031 7.5 12.707031 C 7.796875 12.707031 8.546875 11.644531 8.957031 10.832031 L 8.957031 9.335938 L 6.042969 9.335938 Z M 6.042969 10.832031 "/>
<path style=" stroke:none;fill-rule:nonzero;fill:rgb(40%,25.490196%,19.215686%);fill-opacity:1;" d="M 5.96875 10.035156 C 6.394531 10.519531 6.921875 10.648438 7.496094 10.648438 C 8.070312 10.648438 8.597656 10.519531 9.023438 10.035156 L 9.023438 8.8125 L 5.96875 8.8125 Z M 5.96875 10.035156 "/>
<path style=" stroke:none;fill-rule:nonzero;fill:rgb(48.627451%,32.54902%,24.313725%);fill-opacity:1;" d="M 4.054688 6.09375 C 4.054688 3.664062 5.585938 1.691406 7.476562 1.691406 C 9.367188 1.691406 10.898438 3.664062 10.898438 6.09375 C 10.898438 8.523438 9.367188 10.378906 7.476562 10.378906 C 5.585938 10.378906 4.054688 8.523438 4.054688 6.09375 "/>
<path style=" stroke:none;fill-rule:nonzero;fill:rgb(87.45098%,12.156863%,19.607843%);fill-opacity:1;" d="M 7.476562 9.355469 C 6.808594 9.355469 6.457031 9.023438 6.421875 8.984375 C 6.308594 8.875 6.308594 8.695312 6.421875 8.582031 C 6.53125 8.472656 6.707031 8.472656 6.820312 8.582031 C 6.835938 8.59375 7.050781 8.785156 7.476562 8.785156 C 7.910156 8.785156 8.125 8.589844 8.132812 8.578125 C 8.246094 8.472656 8.425781 8.476562 8.535156 8.589844 C 8.644531 8.699219 8.644531 8.875 8.535156 8.984375 C 8.496094 9.023438 8.144531 9.355469 7.476562 9.355469 "/>
<path style=" stroke:none;fill-rule:nonzero;fill:rgb(4.313725%,0.784314%,0%);fill-opacity:1;" d="M 3.222656 7.460938 C 3.214844 7.046875 3.203125 7.367188 3.203125 7.269531 C 3.203125 5.84375 4.058594 7.472656 4.058594 6.457031 C 4.058594 5.441406 4.628906 5.339844 5.199219 4.769531 C 5.484375 4.484375 6.054688 3.925781 6.054688 3.925781 C 6.054688 3.925781 7.480469 4.789062 8.621094 4.789062 C 9.761719 4.789062 10.902344 5.359375 10.902344 6.5 C 10.902344 7.640625 11.757812 5.839844 11.757812 7.265625 C 11.757812 7.367188 11.746094 7.046875 11.742188 7.460938 L 12.039062 7.460938 C 12.042969 6.628906 12.042969 6.660156 12.042969 6.128906 C 12.042969 2.421875 9.191406 1.042969 7.480469 1.042969 C 5.769531 1.042969 2.917969 2.398438 2.917969 6.105469 C 2.917969 6.433594 2.910156 6.628906 2.921875 7.460938 Z M 3.222656 7.460938 "/>
<path style=" stroke:none;fill-rule:nonzero;fill:rgb(0%,0%,0%);fill-opacity:1;" d="M 6.085938 7 C 5.894531 7 5.734375 6.839844 5.734375 6.644531 L 5.734375 6.292969 C 5.734375 6.097656 5.894531 5.941406 6.085938 5.941406 C 6.28125 5.941406 6.441406 6.097656 6.441406 6.292969 L 6.441406 6.644531 C 6.441406 6.839844 6.28125 7 6.085938 7 M 8.90625 7 C 8.710938 7 8.554688 6.839844 8.554688 6.644531 L 8.554688 6.292969 C 8.554688 6.097656 8.710938 5.941406 8.90625 5.941406 C 9.097656 5.941406 9.257812 6.097656 9.257812 6.292969 L 9.257812 6.644531 C 9.257812 6.839844 9.097656 7 8.90625 7 "/>
<path style=" stroke:none;fill-rule:nonzero;fill:rgb(23.921569%,18.039216%,14.117647%);fill-opacity:1;" d="M 7.847656 8.085938 L 7.144531 8.085938 C 7.046875 8.085938 6.96875 8.007812 6.96875 7.910156 L 6.96875 7.847656 C 6.96875 7.75 7.046875 7.671875 7.144531 7.671875 L 7.847656 7.671875 C 7.945312 7.671875 8.023438 7.75 8.023438 7.847656 L 8.023438 7.910156 C 8.023438 8.007812 7.945312 8.085938 7.847656 8.085938 "/>
<path style=" stroke:none;fill-rule:nonzero;fill:rgb(57.254902%,40%,80%);fill-opacity:1;" d="M 4.0625 13.125 L 4.0625 15 L 8.855469 15 L 8.855469 14.792969 L 10.9375 14.792969 L 10.9375 13.125 Z M 4.0625 13.125 "/>
<path style=" stroke:none;fill-rule:nonzero;fill:rgb(64.313725%,49.019608%,88.627451%);fill-opacity:1;" d="M 8.019531 13.125 C 8.855469 13.542969 8.855469 14.792969 8.855469 14.792969 L 8.855469 15 L 9.269531 15 L 9.269531 14.792969 L 10.519531 14.792969 L 10.519531 13.125 Z M 8.019531 13.125 "/>
<path style=" stroke:none;fill-rule:nonzero;fill:rgb(45.490196%,30.588235%,66.666667%);fill-opacity:1;" d="M 8.4375 13.125 C 9.269531 13.542969 9.269531 14.792969 9.269531 14.792969 L 9.269531 15 L 10.9375 15 L 10.9375 13.125 Z M 8.4375 13.125 "/>
<path style=" stroke:none;fill-rule:nonzero;fill:rgb(45.490196%,30.588235%,66.666667%);fill-opacity:1;" d="M 8.4375 13.125 L 4.0625 13.125 L 4.0625 13.542969 L 8.90625 13.542969 C 8.789062 13.375 8.636719 13.226562 8.4375 13.125 Z M 8.4375 13.125 "/>
<path style=" stroke:none;fill-rule:nonzero;fill:rgb(57.254902%,40%,80%);fill-opacity:1;" d="M 8.488281 13.542969 L 8.90625 13.542969 C 8.789062 13.375 8.636719 13.226562 8.4375 13.125 L 8.019531 13.125 C 8.222656 13.226562 8.371094 13.375 8.488281 13.542969 Z M 8.488281 13.542969 "/>
<path style=" stroke:none;fill-rule:nonzero;fill:rgb(33.333333%,21.568627%,53.333333%);fill-opacity:1;" d="M 8.4375 13.125 C 8.636719 13.226562 8.789062 13.375 8.90625 13.542969 L 10.9375 13.542969 L 10.9375 13.125 Z M 8.4375 13.125 "/>
<use xlink:href="#surface5" mask="url(#mask0)"/>
</g>
</svg>
