<?xml version="1.0" encoding="UTF-8"?>
<svg xmlns="http://www.w3.org/2000/svg" xmlns:xlink="http://www.w3.org/1999/xlink" width="15pt" height="15pt" viewBox="0 0 15 15" version="1.1">
<g id="surface1">
<path style=" stroke:none;fill-rule:nonzero;fill:rgb(80%,83.921569%,86.27451%);fill-opacity:1;" d="M 12.5 10.832031 C 12.5 11.753906 11.753906 12.5 10.832031 12.5 L 1.667969 12.5 C 0.746094 12.5 0 11.753906 0 10.832031 L 0 1.667969 C 0 0.746094 0.746094 0 1.667969 0 L 10.832031 0 C 11.753906 0 12.5 0.746094 12.5 1.667969 Z M 12.5 10.832031 "/>
<path style=" stroke:none;fill-rule:nonzero;fill:rgb(96.078431%,97.254902%,98.039216%);fill-opacity:1;" d="M 11.667969 10.832031 C 11.667969 11.292969 11.292969 11.667969 10.832031 11.667969 L 1.667969 11.667969 C 1.207031 11.667969 0.832031 11.292969 0.832031 10.832031 L 0.832031 1.667969 C 0.832031 1.207031 1.207031 0.832031 1.667969 0.832031 L 10.832031 0.832031 C 11.292969 0.832031 11.667969 1.207031 11.667969 1.667969 Z M 11.667969 10.832031 "/>
<path style=" stroke:none;fill-rule:nonzero;fill:rgb(31.372549%,64.705882%,90.196078%);fill-opacity:1;" d="M 2.5 10.832031 C 2.269531 10.832031 2.082031 10.648438 2.082031 10.417969 L 2.082031 5.417969 C 2.082031 5.1875 2.269531 5 2.5 5 C 2.730469 5 2.917969 5.1875 2.917969 5.417969 L 2.917969 10.417969 C 2.917969 10.648438 2.730469 10.832031 2.5 10.832031 Z M 2.5 10.832031 "/>
<path style=" stroke:none;fill-rule:nonzero;fill:rgb(46.666667%,69.803922%,33.333333%);fill-opacity:1;" d="M 4.167969 10.832031 C 3.9375 10.832031 3.75 10.648438 3.75 10.417969 L 3.75 3.332031 C 3.75 3.101562 3.9375 2.917969 4.167969 2.917969 C 4.398438 2.917969 4.582031 3.101562 4.582031 3.332031 L 4.582031 10.417969 C 4.582031 10.648438 4.398438 10.832031 4.167969 10.832031 Z M 4.167969 10.832031 "/>
<path style=" stroke:none;fill-rule:nonzero;fill:rgb(86.666667%,18.431373%,27.058824%);fill-opacity:1;" d="M 5.832031 10.832031 C 5.601562 10.832031 5.417969 10.648438 5.417969 10.417969 L 5.417969 7.5 C 5.417969 7.269531 5.601562 7.082031 5.832031 7.082031 C 6.0625 7.082031 6.25 7.269531 6.25 7.5 L 6.25 10.417969 C 6.25 10.648438 6.0625 10.832031 5.832031 10.832031 Z M 5.832031 10.832031 "/>
<path style=" stroke:none;fill-rule:nonzero;fill:rgb(13.333333%,40.392157%,59.607843%);fill-opacity:1;" d="M 15 15 L 15 14.167969 C 15 12.785156 13.882812 11.667969 12.5 11.667969 L 5.832031 11.667969 C 4.453125 11.667969 3.332031 12.785156 3.332031 14.167969 L 3.332031 15 Z M 15 15 "/>
<path style=" stroke:none;fill-rule:nonzero;fill:rgb(22.745098%,52.941176%,76.078431%);fill-opacity:1;" d="M 6.945312 15 L 8.417969 15 L 7.082031 11.667969 L 6.25 11.667969 L 5.832031 14.167969 L 7.082031 14.582031 Z M 11.390625 15 L 9.917969 15 L 11.25 11.667969 L 12.082031 11.667969 L 12.5 14.167969 L 11.25 14.582031 Z M 11.390625 15 "/>
<path style=" stroke:none;fill-rule:nonzero;fill:rgb(80%,83.921569%,86.27451%);fill-opacity:1;" d="M 10 15 L 11.25 12.5 L 7.082031 12.5 L 8.332031 15 Z M 10 15 "/>
<path style=" stroke:none;fill-rule:nonzero;fill:rgb(95.294118%,82.352941%,63.529412%);fill-opacity:1;" d="M 7.632812 11.949219 C 7.917969 12.21875 8.226562 12.585938 8.488281 12.925781 C 8.835938 13.367188 9.503906 13.367188 9.847656 12.925781 C 10.113281 12.585938 10.417969 12.21875 10.699219 11.949219 C 10.875 11.78125 10.984375 11.554688 10.984375 11.308594 L 10.984375 10.984375 C 10.984375 10.507812 10.597656 10.121094 10.121094 10.121094 L 8.214844 10.121094 C 7.738281 10.121094 7.351562 10.507812 7.351562 10.984375 L 7.351562 11.308594 C 7.351562 11.554688 7.457031 11.78125 7.632812 11.949219 Z M 7.632812 11.949219 "/>
<path style=" stroke:none;fill-rule:nonzero;fill:rgb(88.627451%,75.686275%,58.823529%);fill-opacity:1;" d="M 7.347656 10.820312 C 7.851562 11.394531 8.480469 11.550781 9.164062 11.550781 C 9.847656 11.550781 10.476562 11.394531 10.984375 10.820312 L 10.984375 9.367188 L 7.347656 9.367188 Z M 7.347656 10.820312 "/>
<path style=" stroke:none;fill-rule:nonzero;fill:rgb(100%,89.803922%,11.764706%);fill-opacity:1;" d="M 10.722656 1.382812 C 9.917969 1.125 8.03125 1.195312 7.558594 1.808594 C 6.332031 1.832031 4.894531 2.941406 4.703125 4.402344 C 4.519531 5.851562 4.933594 6.523438 5.082031 7.613281 C 5.25 8.847656 5.945312 9.242188 6.496094 9.40625 C 7.296875 10.460938 8.144531 10.414062 9.566406 10.414062 C 12.347656 10.414062 13.671875 8.554688 13.789062 5.394531 C 13.859375 3.484375 12.738281 2.035156 10.722656 1.382812 Z M 10.722656 1.382812 "/>
<path style=" stroke:none;fill-rule:nonzero;fill:rgb(95.294118%,82.352941%,63.529412%);fill-opacity:1;" d="M 12.3125 5.53125 C 12.042969 5.15625 11.699219 4.859375 10.941406 4.753906 C 11.226562 4.882812 11.496094 5.328125 11.53125 5.578125 C 11.566406 5.824219 11.605469 6.027344 11.378906 5.777344 C 10.480469 4.785156 9.503906 5.175781 8.535156 4.570312 C 7.859375 4.148438 7.652344 3.679688 7.652344 3.679688 C 7.652344 3.679688 7.570312 4.304688 6.542969 4.941406 C 6.246094 5.125 5.890625 5.535156 5.695312 6.144531 C 5.550781 6.582031 5.597656 6.96875 5.597656 7.632812 C 5.597656 9.578125 7.195312 11.207031 9.171875 11.207031 C 11.144531 11.207031 12.746094 9.5625 12.746094 7.632812 C 12.746094 6.425781 12.617188 5.953125 12.3125 5.53125 Z M 12.3125 5.53125 "/>
<path style=" stroke:none;fill-rule:nonzero;fill:rgb(75.686275%,41.176471%,30.980392%);fill-opacity:1;" d="M 9.566406 8.628906 L 8.773438 8.628906 C 8.664062 8.628906 8.574219 8.539062 8.574219 8.429688 C 8.574219 8.320312 8.664062 8.230469 8.773438 8.230469 L 9.566406 8.230469 C 9.675781 8.230469 9.765625 8.320312 9.765625 8.429688 C 9.765625 8.539062 9.675781 8.628906 9.566406 8.628906 Z M 9.566406 8.628906 "/>
<path style=" stroke:none;fill-rule:nonzero;fill:rgb(40%,12.941176%,7.45098%);fill-opacity:1;" d="M 7.582031 7.238281 C 7.363281 7.238281 7.183594 7.058594 7.183594 6.839844 L 7.183594 6.441406 C 7.183594 6.222656 7.363281 6.046875 7.582031 6.046875 C 7.800781 6.046875 7.976562 6.222656 7.976562 6.441406 L 7.976562 6.839844 C 7.976562 7.058594 7.800781 7.238281 7.582031 7.238281 Z M 10.757812 7.238281 C 10.539062 7.238281 10.363281 7.058594 10.363281 6.839844 L 10.363281 6.441406 C 10.363281 6.222656 10.539062 6.046875 10.757812 6.046875 C 10.976562 6.046875 11.15625 6.222656 11.15625 6.441406 L 11.15625 6.839844 C 11.15625 7.058594 10.976562 7.238281 10.757812 7.238281 Z M 10.757812 7.238281 "/>
<path style=" stroke:none;fill-rule:nonzero;fill:rgb(75.686275%,41.176471%,30.980392%);fill-opacity:1;" d="M 9.222656 10.285156 C 8.074219 10.285156 7.722656 9.992188 7.664062 9.933594 C 7.558594 9.824219 7.558594 9.652344 7.664062 9.546875 C 7.765625 9.441406 7.933594 9.441406 8.039062 9.535156 C 8.0625 9.550781 8.339844 9.738281 9.222656 9.738281 C 10.140625 9.738281 10.402344 9.539062 10.40625 9.535156 C 10.511719 9.429688 10.679688 9.433594 10.785156 9.542969 C 10.894531 9.648438 10.886719 9.828125 10.78125 9.933594 C 10.722656 9.992188 10.371094 10.285156 9.222656 10.285156 "/>
<path style=" stroke:none;fill-rule:nonzero;fill:rgb(95.686275%,96.862745%,97.647059%);fill-opacity:1;" d="M 11.132812 11.144531 C 10.898438 11.382812 10.003906 12.722656 10.003906 12.722656 C 10.003906 12.722656 10.472656 13.074219 11.289062 14.027344 C 11.371094 14.125 11.515625 12.101562 11.53125 11.648438 C 11.535156 11.523438 11.246094 11.03125 11.132812 11.144531 M 7.207031 11.144531 C 7.445312 11.382812 8.335938 12.722656 8.335938 12.722656 C 8.335938 12.722656 7.867188 13.074219 7.050781 14.027344 C 6.96875 14.125 6.828125 12.101562 6.808594 11.648438 C 6.804688 11.523438 7.09375 11.03125 7.207031 11.144531 "/>
</g>
</svg>
