<?xml version="1.0" encoding="UTF-8"?>
<svg xmlns="http://www.w3.org/2000/svg" xmlns:xlink="http://www.w3.org/1999/xlink" width="15pt" height="15pt" viewBox="0 0 15 15" version="1.1">
<g id="surface1">
<path style=" stroke:none;fill-rule:nonzero;fill:rgb(98.039216%,45.490196%,24.313725%);fill-opacity:1;" d="M 12.117188 12.945312 C 12.117188 12.945312 11.796875 13.144531 11.476562 12.945312 C 11.15625 12.746094 11.347656 12.425781 11.347656 12.425781 C 10.984375 12.394531 10.945312 12.058594 11.078125 11.757812 C 10.867188 11.699219 10.644531 11.667969 10.417969 11.667969 L 4.582031 11.667969 C 3.203125 11.667969 2.082031 12.785156 2.082031 14.167969 L 2.082031 15 L 12.917969 15 L 12.917969 14.167969 C 12.917969 13.910156 12.878906 13.660156 12.804688 13.425781 C 12.101562 13.691406 12.117188 12.945312 12.117188 12.945312 Z M 12.117188 12.945312 "/>
<path style=" stroke:none;fill-rule:nonzero;fill:rgb(86.666667%,33.333333%,12.156863%);fill-opacity:1;" d="M 10.804688 13.890625 C 10.75 14.695312 10.457031 15 10.457031 15 L 11.035156 15 C 11.035156 15 11.113281 13.761719 10.804688 13.890625 Z M 2.757812 14.152344 C 2.890625 14.046875 3.121094 13.320312 3.535156 13.144531 C 3.953125 12.972656 4.871094 12.746094 4.859375 13.183594 C 4.84375 13.621094 4.300781 14.21875 4.414062 14.441406 C 4.003906 14.640625 2.335938 14.484375 2.757812 14.152344 Z M 2.757812 14.152344 "/>
<path style=" stroke:none;fill-rule:nonzero;fill:rgb(80%,83.921569%,86.666667%);fill-opacity:1;" d="M 3.015625 14.085938 C 3.148438 13.980469 3.285156 13.355469 3.703125 13.183594 C 4.117188 13.011719 4.871094 12.746094 4.859375 13.183594 C 4.84375 13.621094 4.34375 13.886719 3.9375 14.085938 C 3.527344 14.28125 2.59375 14.414062 3.015625 14.085938 Z M 5.832031 11.667969 L 9.167969 11.667969 C 9.167969 11.667969 8.804688 12.945312 7.5 12.945312 C 6.195312 12.945312 5.832031 11.667969 5.832031 11.667969 Z M 5.832031 11.667969 "/>
<path style=" stroke:none;fill-rule:nonzero;fill:rgb(80%,83.921569%,86.666667%);fill-opacity:1;" d="M 6.042969 11.882812 C 6.652344 12.328125 7.203125 12.289062 7.5 12.289062 C 7.796875 12.289062 8.414062 12.328125 8.953125 11.894531 L 8.957031 10.171875 L 6.042969 10.171875 Z M 6.042969 11.882812 "/>
<path style=" stroke:none;fill-rule:nonzero;fill:rgb(60%,66.666667%,70.980392%);fill-opacity:1;" d="M 6.035156 10.871094 C 6.441406 11.351562 6.945312 11.480469 7.496094 11.480469 C 8.046875 11.480469 8.550781 11.351562 8.957031 10.871094 L 8.957031 9.644531 L 6.035156 9.644531 Z M 6.035156 10.871094 "/>
<path style=" stroke:none;fill-rule:nonzero;fill:rgb(16.078431%,18.431373%,20%);fill-opacity:1;" d="M 8.84375 2.367188 C 8.125 2.136719 6.429688 2.199219 6.003906 2.75 C 4.902344 2.769531 3.609375 3.765625 3.441406 5.078125 C 3.273438 6.378906 3.648438 6.984375 3.78125 7.960938 C 3.929688 9.070312 4.554688 9.421875 5.050781 9.570312 C 5.765625 10.519531 6.527344 10.476562 7.808594 10.476562 C 10.304688 10.476562 11.492188 8.808594 11.597656 5.96875 C 11.664062 4.253906 10.65625 2.953125 8.84375 2.367188 Z M 8.84375 2.367188 "/>
<path style=" stroke:none;fill-rule:nonzero;fill:rgb(80%,83.921569%,86.666667%);fill-opacity:1;" d="M 10.273438 6.089844 C 10.03125 5.757812 9.722656 5.488281 9.042969 5.390625 C 9.296875 5.507812 9.539062 5.910156 9.574219 6.132812 C 9.605469 6.355469 9.636719 6.535156 9.433594 6.3125 C 8.628906 5.421875 7.75 5.773438 6.878906 5.230469 C 6.273438 4.847656 6.085938 4.429688 6.085938 4.429688 C 6.085938 4.429688 6.011719 4.988281 5.089844 5.5625 C 4.824219 5.726562 4.503906 6.097656 4.328125 6.644531 C 4.199219 7.035156 4.238281 7.382812 4.238281 7.980469 C 4.238281 9.726562 5.675781 11.191406 7.449219 11.191406 C 9.222656 11.191406 10.660156 9.714844 10.660156 7.980469 C 10.660156 6.898438 10.546875 6.472656 10.273438 6.089844 Z M 10.273438 6.089844 "/>
<path style=" stroke:none;fill-rule:nonzero;fill:rgb(40%,45.882353%,49.803922%);fill-opacity:1;" d="M 7.476562 9.332031 C 8.226562 9.332031 8.621094 9.664062 8.664062 9.703125 C 8.789062 9.8125 8.789062 9.992188 8.664062 10.105469 C 8.539062 10.214844 8.339844 10.214844 8.214844 10.109375 C 8.199219 10.09375 7.957031 9.902344 7.476562 9.902344 C 6.988281 9.902344 6.746094 10.101562 6.738281 10.109375 C 6.609375 10.214844 6.40625 10.210938 6.285156 10.101562 C 6.164062 9.988281 6.164062 9.8125 6.285156 9.703125 C 6.328125 9.664062 6.722656 9.332031 7.476562 9.332031 "/>
<path style=" stroke:none;fill-rule:nonzero;fill:rgb(60%,66.666667%,70.980392%);fill-opacity:1;" d="M 6.800781 7.808594 L 6.53125 8.078125 C 6.210938 8.398438 5.691406 8.398438 5.371094 8.078125 C 5.050781 7.761719 5.050781 7.238281 5.371094 6.921875 L 5.644531 6.648438 C 5.960938 6.328125 6.484375 6.328125 6.800781 6.648438 C 7.121094 6.96875 7.121094 7.488281 6.800781 7.808594 Z M 8.460938 8.078125 L 8.191406 7.808594 C 7.871094 7.488281 7.871094 6.964844 8.191406 6.648438 C 8.507812 6.328125 9.03125 6.328125 9.347656 6.648438 L 9.621094 6.921875 C 9.941406 7.238281 9.941406 7.761719 9.621094 8.078125 C 9.300781 8.398438 8.78125 8.398438 8.460938 8.078125 Z M 8.460938 8.078125 "/>
<path style=" stroke:none;fill-rule:nonzero;fill:rgb(40%,12.941176%,7.45098%);fill-opacity:1;" d="M 6.617188 7.304688 C 6.617188 7.496094 6.457031 7.65625 6.261719 7.65625 L 5.910156 7.65625 C 5.714844 7.65625 5.558594 7.496094 5.558594 7.304688 C 5.558594 7.109375 5.714844 6.949219 5.910156 6.949219 L 6.261719 6.949219 C 6.457031 6.949219 6.617188 7.109375 6.617188 7.304688 M 9.433594 7.304688 C 9.433594 7.496094 9.277344 7.65625 9.082031 7.65625 L 8.730469 7.65625 C 8.535156 7.65625 8.375 7.496094 8.375 7.304688 C 8.375 7.109375 8.535156 6.949219 8.730469 6.949219 L 9.082031 6.949219 C 9.277344 6.949219 9.433594 7.109375 9.433594 7.304688 "/>
<path style=" stroke:none;fill-rule:nonzero;fill:rgb(60%,66.666667%,70.980392%);fill-opacity:1;" d="M 7.835938 8.921875 C 7.9375 8.921875 8.023438 8.835938 8.023438 8.730469 L 8.023438 8.484375 C 8.023438 8.382812 7.9375 8.296875 7.835938 8.296875 C 7.730469 8.296875 7.644531 8.382812 7.644531 8.484375 L 7.644531 8.730469 C 7.644531 8.835938 7.730469 8.921875 7.835938 8.921875 Z M 7.160156 8.921875 C 7.265625 8.921875 7.347656 8.835938 7.347656 8.730469 L 7.347656 8.484375 C 7.347656 8.382812 7.265625 8.296875 7.160156 8.296875 C 7.054688 8.296875 6.96875 8.382812 6.96875 8.484375 L 6.96875 8.730469 C 6.96875 8.835938 7.054688 8.921875 7.160156 8.921875 Z M 7.160156 8.921875 "/>
<path style=" stroke:none;fill-rule:nonzero;fill:rgb(16.078431%,18.431373%,20%);fill-opacity:1;" d="M 7.375 2.269531 C 7.863281 2.1875 8.234375 1.832031 8.378906 1.660156 C 8.519531 1.488281 8.472656 2.148438 8.207031 2.410156 C 7.945312 2.675781 7.375 2.269531 7.375 2.269531 Z M 5.488281 2.839844 C 4.894531 2.703125 4.472656 2.804688 4.234375 2.933594 C 4 3.058594 4.46875 2.910156 5.066406 3.21875 C 5.660156 3.527344 5.488281 2.839844 5.488281 2.839844 Z M 5.316406 5.363281 C 5.089844 5.683594 4.859375 6.222656 4.894531 6.695312 C 4.929688 7.164062 4.402344 6.339844 4.835938 5.582031 C 5.273438 4.824219 5.316406 5.363281 5.316406 5.363281 Z M 10.867188 3.722656 C 11.363281 3.964844 11.683594 4.367188 11.785156 4.59375 C 11.890625 4.824219 12.117188 4.972656 12.246094 4.996094 C 12.371094 5.019531 12.140625 5.132812 11.84375 4.996094 C 11.546875 4.859375 11.328125 4.523438 11.085938 4.429688 C 10.84375 4.332031 10.867188 3.722656 10.867188 3.722656 Z M 3.453125 6.382812 C 3.449219 6.890625 3.21875 7.191406 3.09375 7.304688 C 2.96875 7.417969 3.460938 7.4375 3.644531 6.863281 C 3.828125 6.292969 3.453125 6.382812 3.453125 6.382812 Z M 3.453125 6.382812 "/>
</g>
</svg>
