<?xml version="1.0" encoding="UTF-8"?>
<svg xmlns="http://www.w3.org/2000/svg" xmlns:xlink="http://www.w3.org/1999/xlink" width="15pt" height="15pt" viewBox="0 0 15 15" version="1.1">
<g id="surface1">
<path style=" stroke:none;fill-rule:nonzero;fill:rgb(16.078431%,18.431373%,20%);fill-opacity:1;" d="M 13.332031 15 L 13.332031 14.167969 C 13.332031 12.785156 12.214844 11.667969 10.832031 11.667969 L 4.167969 11.667969 C 2.785156 11.667969 1.667969 12.785156 1.667969 14.167969 L 1.667969 15 Z M 13.332031 15 "/>
<path style=" stroke:none;fill-rule:nonzero;fill:rgb(74.509804%,9.803922%,19.215686%);fill-opacity:1;" d="M 7.5 5 C 2.777344 5 0.832031 7.082031 0.832031 7.082031 C 0.832031 7.917969 2.816406 10.996094 3.75 11.921875 C 4.539062 12.710938 6.296875 14.582031 7.5 14.582031 C 8.703125 14.582031 10.460938 12.710938 11.25 11.921875 C 12.183594 10.996094 14.167969 7.917969 14.167969 7.082031 C 14.167969 7.082031 12.222656 5 7.5 5 Z M 7.5 5 "/>
<path style=" stroke:none;fill-rule:nonzero;fill:rgb(75.686275%,41.176471%,30.980392%);fill-opacity:1;" d="M 7.8125 8.230469 L 7.1875 8.230469 C 7.015625 8.230469 6.875 8.089844 6.875 7.917969 C 6.875 7.746094 7.015625 7.605469 7.1875 7.605469 L 7.8125 7.605469 C 7.984375 7.605469 8.125 7.746094 8.125 7.917969 C 8.125 8.089844 7.984375 8.230469 7.8125 8.230469 Z M 7.8125 8.230469 "/>
<path style=" stroke:none;fill-rule:nonzero;fill:rgb(68.627451%,49.411765%,34.117647%);fill-opacity:1;" d="M 5.953125 11.769531 C 6.601562 12.238281 7.1875 12.203125 7.5 12.203125 C 7.8125 12.203125 8.46875 12.238281 9.039062 11.78125 L 9.046875 9.953125 L 5.953125 9.953125 Z M 5.953125 11.769531 "/>
<path style=" stroke:none;fill-rule:nonzero;fill:rgb(60.784314%,41.568627%,28.627451%);fill-opacity:1;" d="M 5.953125 10.648438 C 6.382812 11.136719 6.917969 11.265625 7.5 11.265625 C 8.078125 11.265625 8.613281 11.136719 9.042969 10.648438 L 9.042969 9.414062 L 5.953125 9.414062 Z M 5.953125 10.648438 "/>
<path style=" stroke:none;fill-rule:nonzero;fill:rgb(16.078431%,18.431373%,20%);fill-opacity:1;" d="M 8.871094 2.011719 C 8.136719 1.773438 6.40625 1.839844 5.976562 2.402344 C 4.851562 2.421875 3.535156 3.4375 3.363281 4.777344 C 3.191406 6.101562 3.570312 6.71875 3.707031 7.714844 C 3.859375 8.84375 4.496094 9.207031 5.003906 9.355469 C 5.734375 10.320312 6.511719 10.28125 7.8125 10.28125 C 10.359375 10.28125 11.570312 8.578125 11.679688 5.683594 C 11.742188 3.933594 10.714844 2.609375 8.871094 2.011719 Z M 8.871094 2.011719 "/>
<path style=" stroke:none;fill-rule:nonzero;fill:rgb(68.627451%,49.411765%,34.117647%);fill-opacity:1;" d="M 10.378906 5.808594 C 10.132812 5.46875 9.816406 5.191406 9.125 5.09375 C 9.386719 5.214844 9.632812 5.625 9.664062 5.851562 C 9.699219 6.078125 9.730469 6.261719 9.527344 6.035156 C 8.703125 5.125 7.808594 5.484375 6.921875 4.929688 C 6.300781 4.542969 6.113281 4.113281 6.113281 4.113281 C 6.113281 4.113281 6.035156 4.683594 5.097656 5.269531 C 4.824219 5.4375 4.5 5.8125 4.320312 6.371094 C 4.191406 6.769531 4.230469 7.125 4.230469 7.734375 C 4.230469 9.511719 5.695312 11.007812 7.503906 11.007812 C 9.308594 11.007812 10.773438 9.5 10.773438 7.734375 C 10.777344 6.628906 10.660156 6.195312 10.378906 5.808594 Z M 10.378906 5.808594 "/>
<path style=" stroke:none;fill-rule:nonzero;fill:rgb(56.862745%,35.294118%,20.392157%);fill-opacity:1;" d="M 7.863281 8.644531 L 7.136719 8.644531 C 7.035156 8.644531 6.953125 8.5625 6.953125 8.460938 C 6.953125 8.363281 7.035156 8.28125 7.136719 8.28125 L 7.863281 8.28125 C 7.964844 8.28125 8.046875 8.363281 8.046875 8.460938 C 8.046875 8.5625 7.964844 8.644531 7.863281 8.644531 Z M 7.863281 8.644531 "/>
<path style=" stroke:none;fill-rule:nonzero;fill:rgb(86.666667%,18.039216%,26.666667%);fill-opacity:1;" d="M 6.046875 7.371094 C 5.84375 7.371094 5.683594 7.207031 5.683594 7.007812 L 5.683594 6.644531 C 5.683594 6.441406 5.84375 6.28125 6.046875 6.28125 C 6.246094 6.28125 6.410156 6.441406 6.410156 6.644531 L 6.410156 7.007812 C 6.410156 7.207031 6.246094 7.371094 6.046875 7.371094 Z M 8.953125 7.371094 C 8.753906 7.371094 8.589844 7.207031 8.589844 7.007812 L 8.589844 6.644531 C 8.589844 6.441406 8.753906 6.28125 8.953125 6.28125 C 9.15625 6.28125 9.316406 6.441406 9.316406 6.644531 L 9.316406 7.007812 C 9.316406 7.207031 9.15625 7.371094 8.953125 7.371094 Z M 8.953125 7.371094 "/>
<path style=" stroke:none;fill-rule:nonzero;fill:rgb(68.627451%,49.411765%,34.117647%);fill-opacity:1;" d="M 9.265625 11.667969 C 9.265625 12.464844 8.613281 14.582031 7.5 14.582031 C 6.386719 14.582031 5.734375 12.492188 5.734375 11.667969 Z M 4.597656 6.082031 C 4.804688 6.101562 4.871094 7.421875 4.375 7.667969 C 3.265625 8.222656 2.929688 6.089844 2.929688 5.535156 C 2.929688 5.117188 3.945312 6.019531 4.597656 6.082031 Z M 10.402344 6.082031 C 10.195312 6.101562 10.128906 7.421875 10.625 7.667969 C 11.734375 8.222656 12.070312 6.089844 12.070312 5.535156 C 12.070312 5.117188 11.054688 6.019531 10.402344 6.082031 Z M 10.402344 6.082031 "/>
<path style=" stroke:none;fill-rule:nonzero;fill:rgb(56.862745%,35.294118%,20.392157%);fill-opacity:1;" d="M 7.5 10.210938 C 6.351562 10.210938 6 9.417969 5.941406 9.359375 C 5.832031 9.25 5.832031 9.078125 5.941406 8.972656 C 6.042969 8.867188 6.207031 8.867188 6.316406 8.960938 C 6.335938 8.976562 6.617188 9.164062 7.5 9.164062 C 8.414062 9.164062 8.679688 8.960938 8.683594 8.960938 C 8.789062 8.855469 8.957031 8.859375 9.0625 8.964844 C 9.167969 9.074219 9.164062 9.25 9.058594 9.359375 C 9 9.417969 8.644531 10.210938 7.5 10.210938 Z M 7.5 10.210938 "/>
<path style=" stroke:none;fill-rule:nonzero;fill:rgb(56.862745%,35.294118%,20.392157%);fill-opacity:1;" d="M 6.484375 9.167969 C 6.347656 9.167969 6.21875 9.230469 6.132812 9.339844 C 6.050781 9.449219 6.019531 9.585938 6.054688 9.71875 C 6.058594 9.734375 6.0625 9.75 6.070312 9.761719 L 6.492188 10.625 C 6.527344 10.695312 6.597656 10.742188 6.675781 10.742188 L 6.679688 10.742188 C 6.761719 10.742188 6.835938 10.691406 6.867188 10.617188 L 7.234375 9.796875 C 7.238281 9.785156 7.242188 9.773438 7.246094 9.761719 C 7.273438 9.65625 7.253906 9.546875 7.191406 9.453125 C 7.121094 9.347656 6.992188 9.269531 6.851562 9.25 L 6.53125 9.175781 C 6.515625 9.171875 6.5 9.167969 6.484375 9.167969 Z M 6.484375 9.167969 "/>
<path style=" stroke:none;fill-rule:nonzero;fill:rgb(96.078431%,97.254902%,98.039216%);fill-opacity:1;" d="M 6.820312 9.453125 L 6.484375 9.375 C 6.332031 9.375 6.21875 9.519531 6.253906 9.667969 L 6.675781 10.53125 L 7.042969 9.710938 C 7.078125 9.578125 6.957031 9.472656 6.820312 9.453125 Z M 6.820312 9.453125 "/>
<path style=" stroke:none;fill-rule:nonzero;fill:rgb(56.862745%,35.294118%,20.392157%);fill-opacity:1;" d="M 8.496094 9.167969 C 8.480469 9.167969 8.464844 9.171875 8.449219 9.171875 L 8.113281 9.253906 C 7.988281 9.269531 7.859375 9.34375 7.789062 9.453125 C 7.726562 9.546875 7.707031 9.65625 7.734375 9.761719 C 7.738281 9.773438 7.742188 9.785156 7.746094 9.796875 L 8.113281 10.617188 C 8.144531 10.691406 8.21875 10.738281 8.300781 10.742188 L 8.304688 10.742188 C 8.382812 10.742188 8.457031 10.695312 8.492188 10.625 L 8.914062 9.761719 C 8.917969 9.746094 8.921875 9.734375 8.925781 9.71875 C 8.960938 9.585938 8.929688 9.449219 8.847656 9.339844 C 8.761719 9.230469 8.632812 9.167969 8.496094 9.167969 Z M 8.496094 9.167969 "/>
<path style=" stroke:none;fill-rule:nonzero;fill:rgb(96.078431%,97.254902%,98.039216%);fill-opacity:1;" d="M 8.160156 9.453125 L 8.496094 9.375 C 8.648438 9.375 8.761719 9.519531 8.726562 9.667969 L 8.304688 10.53125 L 7.9375 9.710938 C 7.902344 9.578125 8.023438 9.472656 8.160156 9.453125 Z M 8.160156 9.453125 "/>
</g>
</svg>
