<?xml version="1.0" encoding="UTF-8"?>
<svg xmlns="http://www.w3.org/2000/svg" xmlns:xlink="http://www.w3.org/1999/xlink" width="15pt" height="15pt" viewBox="0 0 15 15" version="1.1">
<defs>
<filter id="alpha" filterUnits="objectBoundingBox" x="0%" y="0%" width="100%" height="100%">
  <feColorMatrix type="matrix" in="SourceGraphic" values="0 0 0 0 1 0 0 0 0 1 0 0 0 0 1 0 0 0 1 0"/>
</filter>
<mask id="mask0">
  <g filter="url(#alpha)">
<rect x="0" y="0" width="15" height="15" style="fill:rgb(0%,0%,0%);fill-opacity:0.701961;stroke:none;"/>
  </g>
</mask>
<clipPath id="clip1">
  <rect x="0" y="0" width="15" height="15"/>
</clipPath>
<g id="surface5" clip-path="url(#clip1)">
<path style=" stroke:none;fill-rule:nonzero;fill:rgb(100%,100%,100%);fill-opacity:1;" d="M 13.332031 11.667969 C 12.09375 11.667969 11.066406 12.570312 10.871094 13.753906 C 10.859375 13.753906 10.847656 13.75 10.832031 13.75 C 9.980469 13.75 9.246094 14.265625 8.925781 15 L 13.75 15 C 14.4375 15 15 14.4375 15 13.75 L 15 12.308594 C 14.558594 11.910156 13.972656 11.667969 13.332031 11.667969 Z M 5.65625 15 C 5.335938 14.265625 4.605469 13.75 3.75 13.75 C 3.425781 13.75 3.121094 13.832031 2.847656 13.964844 C 2.886719 13.828125 2.917969 13.691406 2.917969 13.542969 C 2.917969 12.734375 2.265625 12.082031 1.457031 12.082031 C 0.722656 12.082031 0.121094 12.628906 0.0195312 13.332031 L 0 13.332031 L 0 13.75 C 0 14.4375 0.5625 15 1.25 15 Z M 5.65625 15 "/>
</g>
</defs>
<g id="surface1">
<path style=" stroke:none;fill-rule:nonzero;fill:rgb(88.235294%,90.980392%,92.941176%);fill-opacity:1;" d="M 3.75 10.625 C 3.75 11.660156 2.910156 12.5 1.875 12.5 C 0.839844 12.5 0 11.660156 0 10.625 C 0 9.589844 0.839844 8.75 1.875 8.75 C 2.910156 8.75 3.75 9.589844 3.75 10.625 Z M 3.75 10.625 "/>
<path style=" stroke:none;fill-rule:nonzero;fill:rgb(88.235294%,90.980392%,92.941176%);fill-opacity:1;" d="M 12.917969 8.542969 C 12.917969 9.808594 11.890625 10.832031 10.625 10.832031 C 9.359375 10.832031 8.332031 9.808594 8.332031 8.542969 C 8.332031 7.277344 9.359375 6.25 10.625 6.25 C 11.890625 6.25 12.917969 7.277344 12.917969 8.542969 Z M 12.917969 8.542969 "/>
<path style=" stroke:none;fill-rule:nonzero;fill:rgb(88.235294%,90.980392%,92.941176%);fill-opacity:1;" d="M 15 11.042969 C 15 12.191406 14.066406 13.125 12.917969 13.125 C 11.765625 13.125 10.832031 12.191406 10.832031 11.042969 C 10.832031 9.890625 11.765625 8.957031 12.917969 8.957031 C 14.066406 8.957031 15 9.890625 15 11.042969 Z M 15 11.042969 "/>
<path style=" stroke:none;fill-rule:nonzero;fill:rgb(88.235294%,90.980392%,92.941176%);fill-opacity:1;" d="M 7.082031 10 C 7.082031 11.152344 6.152344 12.082031 5 12.082031 C 3.847656 12.082031 2.917969 11.152344 2.917969 10 C 2.917969 8.847656 3.847656 7.917969 5 7.917969 C 6.152344 7.917969 7.082031 8.847656 7.082031 10 Z M 7.082031 10 "/>
<path style=" stroke:none;fill-rule:nonzero;fill:rgb(88.235294%,90.980392%,92.941176%);fill-opacity:1;" d="M 13.75 12.5 C 13.058594 12.5 12.5 13.058594 12.5 13.75 L 2.5 13.75 C 2.5 13.058594 1.941406 12.5 1.25 12.5 C 0.558594 12.5 0 13.058594 0 13.75 C 0 14.441406 0.558594 15 1.25 15 L 13.332031 15 L 13.332031 14.921875 C 13.464844 14.96875 13.601562 15 13.75 15 C 14.441406 15 15 14.441406 15 13.75 C 15 13.058594 14.441406 12.5 13.75 12.5 Z M 13.75 12.5 "/>
<path style=" stroke:none;fill-rule:nonzero;fill:rgb(88.235294%,90.980392%,92.941176%);fill-opacity:1;" d="M 0 10.625 L 3.75 10.625 L 3.75 13.75 L 0 13.75 Z M 8.332031 9.582031 L 12.082031 9.582031 L 12.082031 11.25 L 8.332031 11.25 Z M 12.917969 11.042969 L 15 11.042969 L 15 13.75 L 12.917969 13.75 Z M 12.917969 11.042969 "/>
<path style=" stroke:none;fill-rule:nonzero;fill:rgb(46.666667%,69.803922%,33.333333%);fill-opacity:1;" d="M 9.730469 8.332031 C 10.152344 8.46875 10.914062 8.8125 10.832031 9.558594 C 11.636719 9.707031 11.792969 10.378906 11.847656 10.769531 C 11.953125 11.515625 8.75 10.6875 8.75 10.6875 L 8.332031 9.238281 Z M 5.402344 8.542969 C 5.082031 8.617188 4.257812 8.75 3.886719 9.707031 C 3.058594 9.707031 2.917969 10.546875 2.917969 11.179688 C 2.917969 12.117188 5.972656 11.996094 6.457031 11.460938 C 6.9375 10.929688 6.78125 9.230469 6.78125 9.230469 Z M 5.402344 8.542969 "/>
<path style=" stroke:none;fill-rule:nonzero;fill:rgb(83.137255%,67.058824%,53.333333%);fill-opacity:1;" d="M 13.332031 15 L 13.332031 13.332031 C 13.332031 11.953125 12.214844 10.832031 10.832031 10.832031 L 4.167969 10.832031 C 2.785156 10.832031 1.667969 11.953125 1.667969 13.332031 L 1.667969 15 Z M 13.332031 15 "/>
<path style=" stroke:none;fill-rule:nonzero;fill:rgb(83.137255%,67.058824%,53.333333%);fill-opacity:1;" d="M 5.695312 11.300781 L 7.5 12.917969 L 9.296875 11.824219 L 9.167969 9.167969 L 5.832031 9.167969 Z M 5.695312 11.300781 "/>
<path style=" stroke:none;fill-rule:nonzero;fill:rgb(80%,60.784314%,47.843137%);fill-opacity:1;" d="M 5.832031 10 C 6.339844 10.574219 6.816406 10.714844 7.5 10.714844 C 8.179688 10.714844 8.660156 10.570312 9.167969 10 L 9.167969 8.332031 L 5.832031 8.332031 Z M 5.832031 10 "/>
<path style=" stroke:none;fill-rule:nonzero;fill:rgb(83.137255%,67.058824%,53.333333%);fill-opacity:1;" d="M 4.769531 5.808594 C 4.769531 6.410156 4.460938 6.898438 4.085938 6.898438 C 3.707031 6.898438 3.402344 6.410156 3.402344 5.808594 C 3.402344 5.203125 3.707031 4.714844 4.085938 4.714844 C 4.460938 4.714844 4.769531 5.203125 4.769531 5.808594 M 11.597656 5.808594 C 11.597656 6.410156 11.292969 6.898438 10.914062 6.898438 C 10.535156 6.898438 10.230469 6.410156 10.230469 5.808594 C 10.230469 5.203125 10.535156 4.714844 10.914062 4.714844 C 11.292969 4.714844 11.597656 5.203125 11.597656 5.808594 "/>
<path style=" stroke:none;fill-rule:nonzero;fill:rgb(83.137255%,67.058824%,53.333333%);fill-opacity:1;" d="M 3.949219 6.234375 C 3.949219 3.90625 5.539062 2.015625 7.5 2.015625 C 9.460938 2.015625 11.050781 3.90625 11.050781 6.234375 C 11.050781 8.5625 9.460938 10.449219 7.5 10.449219 C 5.539062 10.449219 3.949219 8.5625 3.949219 6.234375 "/>
<path style=" stroke:none;fill-rule:nonzero;fill:rgb(75.686275%,41.176471%,30.980392%);fill-opacity:1;" d="M 7.5 9.085938 C 6.351562 9.085938 6 8.789062 5.941406 8.730469 C 5.835938 8.625 5.835938 8.453125 5.941406 8.34375 C 6.042969 8.242188 6.210938 8.238281 6.316406 8.335938 C 6.339844 8.351562 6.617188 8.539062 7.5 8.539062 C 8.417969 8.539062 8.683594 8.335938 8.683594 8.332031 C 8.789062 8.226562 8.957031 8.234375 9.066406 8.339844 C 9.171875 8.445312 9.164062 8.625 9.058594 8.730469 C 9 8.789062 8.648438 9.085938 7.5 9.085938 "/>
<path style=" stroke:none;fill-rule:nonzero;fill:rgb(58.823529%,23.137255%,13.333333%);fill-opacity:1;" d="M 7.5 0.617188 C 9.851562 0.617188 11.324219 2.351562 11.324219 3.800781 C 11.324219 5.246094 11.03125 5.828125 10.734375 5.246094 L 10.148438 4.089844 C 10.148438 4.089844 8.382812 4.089844 7.792969 3.511719 C 7.792969 3.511719 8.675781 5.246094 6.910156 3.511719 C 6.910156 3.511719 7.207031 4.667969 5.441406 3.222656 C 5.441406 3.222656 4.558594 3.800781 4.265625 5.246094 C 4.183594 5.648438 3.675781 5.246094 3.675781 3.800781 C 3.675781 2.351562 4.851562 0.617188 7.5 0.617188 "/>
<path style=" stroke:none;fill-rule:nonzero;fill:rgb(40%,12.941176%,7.45098%);fill-opacity:1;" d="M 5.832031 6.25 C 5.605469 6.25 5.417969 6.0625 5.417969 5.832031 L 5.417969 5.417969 C 5.417969 5.1875 5.605469 5 5.832031 5 C 6.0625 5 6.25 5.1875 6.25 5.417969 L 6.25 5.832031 C 6.25 6.0625 6.0625 6.25 5.832031 6.25 M 9.167969 6.25 C 8.9375 6.25 8.75 6.0625 8.75 5.832031 L 8.75 5.417969 C 8.75 5.1875 8.9375 5 9.167969 5 C 9.394531 5 9.582031 5.1875 9.582031 5.417969 L 9.582031 5.832031 C 9.582031 6.0625 9.394531 6.25 9.167969 6.25 "/>
<path style=" stroke:none;fill-rule:nonzero;fill:rgb(75.686275%,41.176471%,30.980392%);fill-opacity:1;" d="M 7.8125 7.394531 L 7.1875 7.394531 C 7.015625 7.394531 6.875 7.253906 6.875 7.082031 C 6.875 6.910156 7.015625 6.769531 7.1875 6.769531 L 7.8125 6.769531 C 7.984375 6.769531 8.125 6.910156 8.125 7.082031 C 8.125 7.253906 7.984375 7.394531 7.8125 7.394531 "/>
<path style=" stroke:none;fill-rule:nonzero;fill:rgb(46.666667%,69.803922%,33.333333%);fill-opacity:1;" d="M 5.734375 10.714844 C 5.621094 12.128906 5.863281 13.0625 5.996094 13.492188 C 6.0625 13.703125 5.914062 13.917969 5.695312 13.929688 C 5.394531 13.945312 5.03125 13.960938 4.8125 13.960938 C 4.394531 13.960938 3.363281 14.898438 3.167969 13.882812 C 2.976562 12.867188 2.917969 11.964844 2.917969 11.628906 C 2.917969 11.292969 2.851562 10.308594 3.402344 10.308594 C 4.160156 10.304688 4.300781 10.246094 4.617188 10.015625 C 4.976562 9.753906 5.757812 10.378906 5.734375 10.714844 Z M 9.242188 10.714844 C 9.347656 12.09375 9.136719 12.980469 9.011719 13.398438 C 8.953125 13.605469 8.902344 13.773438 9.054688 13.914062 C 9.34375 14.191406 9.890625 13.886719 10.089844 13.886719 C 10.476562 13.886719 11.316406 14.828125 11.597656 13.472656 C 11.859375 12.207031 11.847656 11.191406 11.847656 10.867188 C 11.847656 10.542969 11.652344 10.433594 11.398438 10.296875 C 10.78125 9.96875 10.574219 10.238281 10.28125 10.011719 C 9.953125 9.761719 9.21875 10.390625 9.242188 10.714844 Z M 9.242188 10.714844 "/>
<path style=" stroke:none;fill-rule:nonzero;fill:rgb(65.098039%,82.745098%,53.333333%);fill-opacity:1;" d="M 3.335938 10.515625 C 3.398438 10.234375 3.703125 10.027344 3.777344 10.253906 C 3.851562 10.484375 3.875 11.703125 3.898438 12.082031 C 3.925781 12.464844 3.648438 12.007812 3.542969 11.710938 C 3.433594 11.410156 3.273438 10.777344 3.335938 10.515625 Z M 11.296875 10.160156 C 11.226562 9.921875 10.945312 10.046875 10.878906 10.234375 C 10.816406 10.425781 10.890625 10.941406 10.875 11.261719 C 10.863281 11.582031 11.011719 11.265625 11.105469 11.023438 C 11.199219 10.777344 11.367188 10.390625 11.296875 10.160156 Z M 4.296875 9.804688 C 4.308594 9.589844 4.683594 9.308594 4.714844 9.53125 C 4.75 9.757812 4.953125 12.070312 5.066406 12.570312 C 5.183594 13.070312 4.988281 12.976562 4.851562 12.621094 C 4.714844 12.265625 4.265625 10.460938 4.296875 9.804688 Z M 10.464844 9.449219 C 10.363281 9.390625 10.113281 9.535156 10.09375 9.71875 C 10.074219 9.898438 10.09375 11.390625 10.011719 11.792969 C 9.929688 12.191406 10.058594 12.128906 10.171875 11.847656 C 10.28125 11.566406 10.933594 9.722656 10.464844 9.449219 Z M 10.464844 9.449219 "/>
<use xlink:href="#surface5" mask="url(#mask0)"/>
</g>
</svg>
