<?xml version="1.0" encoding="UTF-8"?>
<svg xmlns="http://www.w3.org/2000/svg" xmlns:xlink="http://www.w3.org/1999/xlink" width="15pt" height="15pt" viewBox="0 0 15 15" version="1.1">
<g id="surface1">
<path style=" stroke:none;fill-rule:nonzero;fill:rgb(88.235294%,90.980392%,92.941176%);fill-opacity:1;" d="M 13.332031 15 L 13.332031 14.167969 C 13.332031 12.785156 12.214844 11.667969 10.832031 11.667969 L 4.167969 11.667969 C 2.785156 11.667969 1.667969 12.785156 1.667969 14.167969 L 1.667969 15 Z M 13.332031 15 "/>
<path style=" stroke:none;fill-rule:nonzero;fill:rgb(16.078431%,18.431373%,20%);fill-opacity:1;" d="M 12.5 3.125 C 12.5 4.851562 10.261719 6.25 7.5 6.25 C 4.738281 6.25 2.5 4.851562 2.5 3.125 C 2.5 1.398438 4.738281 0 7.5 0 C 10.261719 0 12.5 1.398438 12.5 3.125 "/>
<path style=" stroke:none;fill-rule:nonzero;fill:rgb(48.627451%,32.54902%,24.313725%);fill-opacity:1;" d="M 5.683594 11.707031 C 6.410156 12.238281 6.871094 12.527344 7.5 12.527344 C 8.128906 12.527344 8.589844 12.238281 9.316406 11.707031 L 9.316406 10.121094 L 5.683594 10.121094 Z M 5.683594 11.707031 "/>
<path style=" stroke:none;fill-rule:nonzero;fill:rgb(40%,25.490196%,19.215686%);fill-opacity:1;" d="M 5.679688 10.820312 C 6.1875 11.394531 6.816406 11.550781 7.5 11.550781 C 8.179688 11.550781 8.808594 11.394531 9.316406 10.820312 L 9.316406 9.367188 L 5.679688 9.367188 Z M 5.679688 10.820312 "/>
<path style=" stroke:none;fill-rule:nonzero;fill:rgb(4.313725%,0.784314%,0%);fill-opacity:1;" d="M 7.375 2.238281 C 6.570312 1.976562 7.535156 1.996094 7.0625 2.609375 C 5.835938 2.632812 3.75 3.570312 3.300781 4.503906 C 2.855469 5.429688 3.210938 6.53125 3.359375 7.621094 C 3.527344 8.855469 4.222656 9.25 4.773438 9.414062 C 5.574219 10.46875 6.421875 10.421875 7.84375 10.421875 C 10.625 10.421875 11.949219 8.5625 12.066406 5.402344 C 12.136719 3.492188 9.390625 2.890625 7.375 2.238281 Z M 7.375 2.238281 "/>
<path style=" stroke:none;fill-rule:nonzero;fill:rgb(48.627451%,32.54902%,24.313725%);fill-opacity:1;" d="M 10.589844 5.539062 C 10.320312 5.164062 9.976562 4.867188 9.21875 4.757812 C 9.503906 4.890625 9.773438 5.335938 9.808594 5.585938 C 9.847656 5.832031 9.882812 6.035156 9.65625 5.785156 C 8.757812 4.792969 7.78125 5.183594 6.8125 4.578125 C 6.136719 4.152344 5.929688 3.6875 5.929688 3.6875 C 5.929688 3.6875 5.847656 4.3125 4.820312 4.949219 C 4.523438 5.132812 4.167969 5.542969 3.972656 6.152344 C 3.828125 6.589844 3.875 6.976562 3.875 7.640625 C 3.875 9.582031 5.472656 11.214844 7.449219 11.214844 C 9.421875 11.214844 11.023438 9.570312 11.023438 7.640625 C 11.023438 6.433594 10.894531 5.960938 10.589844 5.539062 Z M 10.589844 5.539062 "/>
<path style=" stroke:none;fill-rule:nonzero;fill:rgb(23.921569%,18.039216%,14.117647%);fill-opacity:1;" d="M 7.84375 8.636719 L 7.050781 8.636719 C 6.941406 8.636719 6.851562 8.546875 6.851562 8.4375 C 6.851562 8.328125 6.941406 8.238281 7.050781 8.238281 L 7.84375 8.238281 C 7.953125 8.238281 8.042969 8.328125 8.042969 8.4375 C 8.042969 8.546875 7.953125 8.636719 7.84375 8.636719 Z M 7.84375 8.636719 "/>
<path style=" stroke:none;fill-rule:nonzero;fill:rgb(0%,0%,0%);fill-opacity:1;" d="M 5.859375 7.246094 C 5.640625 7.246094 5.460938 7.066406 5.460938 6.847656 L 5.460938 6.449219 C 5.460938 6.230469 5.640625 6.054688 5.859375 6.054688 C 6.078125 6.054688 6.257812 6.230469 6.257812 6.449219 L 6.257812 6.847656 C 6.257812 7.066406 6.078125 7.246094 5.859375 7.246094 Z M 9.035156 7.246094 C 8.816406 7.246094 8.640625 7.066406 8.640625 6.847656 L 8.640625 6.449219 C 8.640625 6.230469 8.816406 6.054688 9.035156 6.054688 C 9.253906 6.054688 9.433594 6.230469 9.433594 6.449219 L 9.433594 6.847656 C 9.433594 7.066406 9.253906 7.246094 9.035156 7.246094 Z M 9.035156 7.246094 "/>
<path style=" stroke:none;fill-rule:nonzero;fill:rgb(23.921569%,18.039216%,14.117647%);fill-opacity:1;" d="M 7.5 10.292969 C 6.351562 10.292969 6 10 5.941406 9.941406 C 5.835938 9.832031 5.835938 9.660156 5.941406 9.554688 C 6.042969 9.449219 6.210938 9.449219 6.316406 9.542969 C 6.339844 9.558594 6.617188 9.746094 7.5 9.746094 C 8.417969 9.746094 8.683594 9.546875 8.683594 9.542969 C 8.789062 9.4375 8.957031 9.441406 9.066406 9.550781 C 9.171875 9.65625 9.164062 9.832031 9.058594 9.941406 C 9 10 8.648438 10.292969 7.5 10.292969 "/>
<path style=" stroke:none;fill-rule:nonzero;fill:rgb(16.078431%,18.431373%,20%);fill-opacity:1;" d="M 3.542969 3.75 C 3.542969 3.289062 5.3125 2.917969 7.5 2.917969 C 9.6875 2.917969 11.457031 3.289062 11.457031 3.75 C 11.457031 4.210938 9.6875 4.582031 7.5 4.582031 C 5.3125 4.582031 3.542969 4.210938 3.542969 3.75 "/>
<path style=" stroke:none;fill-rule:nonzero;fill:rgb(40%,45.882353%,49.803922%);fill-opacity:1;" d="M 11.457031 3.332031 L 3.542969 3.332031 L 3.542969 1.898438 C 3.542969 1.898438 5.191406 0.417969 7.5 0.417969 C 9.808594 0.417969 11.457031 1.898438 11.457031 1.898438 Z M 11.457031 3.332031 "/>
<path style=" stroke:none;fill-rule:nonzero;fill:rgb(100%,67.45098%,20%);fill-opacity:1;" d="M 6.25 2.082031 C 6.25 0.921875 6.808594 1.667969 7.5 1.667969 C 8.191406 1.667969 8.75 0.921875 8.75 2.082031 C 8.75 2.773438 8.191406 2.917969 7.5 2.917969 C 6.808594 2.917969 6.25 2.773438 6.25 2.082031 "/>
<path style=" stroke:none;fill-rule:nonzero;fill:rgb(99.215686%,79.607843%,34.509804%);fill-opacity:1;" d="M 6.667969 2.082031 C 6.667969 1.621094 7.039062 1.25 7.5 1.25 C 7.960938 1.25 8.332031 1.621094 8.332031 2.082031 C 8.332031 2.542969 7.960938 2.917969 7.5 2.917969 C 7.039062 2.917969 6.667969 2.542969 6.667969 2.082031 M 11.457031 3.75 L 3.542969 3.75 C 3.425781 3.75 3.332031 3.65625 3.332031 3.542969 C 3.332031 3.425781 3.425781 3.332031 3.542969 3.332031 L 11.457031 3.332031 C 11.574219 3.332031 11.667969 3.425781 11.667969 3.542969 C 11.667969 3.65625 11.574219 3.75 11.457031 3.75 "/>
<path style=" stroke:none;fill-rule:nonzero;fill:rgb(16.078431%,18.431373%,20%);fill-opacity:1;" d="M 4.824219 12.105469 L 2.355469 12.496094 C 2.242188 12.515625 2.132812 12.4375 2.117188 12.324219 L 2.050781 11.914062 C 2.035156 11.800781 2.109375 11.691406 2.222656 11.675781 L 4.695312 11.285156 C 4.808594 11.265625 4.914062 11.34375 4.933594 11.457031 L 4.996094 11.867188 C 5.015625 11.980469 4.9375 12.089844 4.824219 12.105469 "/>
<path style=" stroke:none;fill-rule:nonzero;fill:rgb(99.215686%,79.607843%,34.509804%);fill-opacity:1;" d="M 2.429688 11.640625 L 2.84375 11.578125 L 2.972656 12.398438 L 2.5625 12.464844 Z M 3.253906 11.511719 L 3.664062 11.445312 L 3.792969 12.269531 L 3.382812 12.335938 Z M 4.078125 11.378906 L 4.488281 11.316406 L 4.617188 12.140625 L 4.207031 12.203125 Z M 4.078125 11.378906 "/>
<path style=" stroke:none;fill-rule:nonzero;fill:rgb(16.078431%,18.431373%,20%);fill-opacity:1;" d="M 12.644531 12.496094 L 10.175781 12.105469 C 10.0625 12.089844 9.984375 11.980469 10.003906 11.867188 L 10.066406 11.457031 C 10.085938 11.34375 10.191406 11.265625 10.304688 11.285156 L 12.777344 11.675781 C 12.886719 11.691406 12.964844 11.800781 12.949219 11.914062 L 12.882812 12.324219 C 12.867188 12.4375 12.757812 12.515625 12.644531 12.496094 "/>
<path style=" stroke:none;fill-rule:nonzero;fill:rgb(99.215686%,79.607843%,34.509804%);fill-opacity:1;" d="M 10.382812 12.140625 L 10.511719 11.316406 L 10.921875 11.382812 L 10.792969 12.203125 Z M 11.203125 12.269531 L 11.335938 11.445312 L 11.746094 11.511719 L 11.617188 12.335938 Z M 12.027344 12.402344 L 12.15625 11.578125 L 12.570312 11.640625 L 12.441406 12.464844 Z M 12.027344 12.402344 "/>
<path style=" stroke:none;fill-rule:nonzero;fill:rgb(60%,66.666667%,70.980392%);fill-opacity:1;" d="M 7.5 12.867188 C 7.5 12.867188 8.910156 13.90625 9.207031 14.023438 C 9.269531 14.050781 9.054688 12.5 9.054688 12.5 L 5.949219 12.5 C 5.949219 12.5 5.730469 14.074219 5.851562 14.011719 C 6.117188 13.867188 7.5 12.867188 7.5 12.867188 "/>
<path style=" stroke:none;fill-rule:nonzero;fill:rgb(16.078431%,18.431373%,20%);fill-opacity:1;" d="M 8.046875 13.933594 C 8.046875 13.933594 8.203125 13.671875 8.269531 13.554688 C 8.34375 13.417969 8.457031 12.902344 8.457031 12.902344 L 7.546875 12.5 C 7.546875 12.496094 7.476562 12.503906 7.476562 12.503906 L 7.402344 12.519531 L 7.328125 12.546875 C 7.238281 12.574219 7.371094 12.550781 7.371094 12.550781 L 6.546875 12.902344 C 6.546875 12.902344 6.667969 13.417969 6.742188 13.554688 C 6.808594 13.671875 6.960938 13.933594 6.960938 13.933594 C 6.960938 13.933594 6.648438 14.167969 6.53125 15 L 8.476562 15 C 8.359375 14.335938 8.046875 13.933594 8.046875 13.933594 "/>
<path style=" stroke:none;fill-rule:nonzero;fill:rgb(96.078431%,97.254902%,98.039216%);fill-opacity:1;" d="M 5.539062 11.09375 C 5.773438 11.328125 7.5 12.503906 7.5 12.503906 C 7.5 12.503906 6.613281 13.019531 5.796875 13.976562 C 5.714844 14.070312 5.15625 12.046875 5.140625 11.597656 C 5.132812 11.472656 5.425781 10.980469 5.539062 11.09375 M 9.472656 11.09375 C 9.234375 11.328125 7.507812 12.503906 7.507812 12.503906 C 7.507812 12.503906 8.394531 13.019531 9.210938 13.976562 C 9.292969 14.070312 9.851562 12.046875 9.871094 11.597656 C 9.875 11.472656 9.582031 10.980469 9.472656 11.09375 "/>
<path style=" stroke:none;fill-rule:nonzero;fill:rgb(19.607843%,22.745098%,24.705882%);fill-opacity:1;" d="M 7.507812 12.785156 C 7.667969 12.777344 8.148438 13.109375 8.097656 13.308594 C 7.90625 14.070312 7.746094 13.886719 7.519531 13.886719 C 7.265625 13.886719 7.117188 14.085938 6.941406 13.339844 C 6.902344 13.179688 7.273438 12.800781 7.507812 12.785156 M 8.351562 15 L 6.675781 15 C 6.675781 15 6.902344 14.097656 7.515625 14.097656 C 8.132812 14.097656 8.351562 15 8.351562 15 "/>
</g>
</svg>
