<?xml version="1.0" encoding="UTF-8"?>
<svg xmlns="http://www.w3.org/2000/svg" xmlns:xlink="http://www.w3.org/1999/xlink" width="15pt" height="15pt" viewBox="0 0 15 15" version="1.1">
<g id="surface1">
<path style=" stroke:none;fill-rule:nonzero;fill:rgb(68.627451%,49.411765%,34.117647%);fill-opacity:1;" d="M 3.082031 7.199219 C 2.300781 7.628906 1.734375 8.222656 1.691406 8.289062 C 1.59375 8.457031 1.511719 8.953125 1.578125 9.296875 C 1.636719 9.605469 1.652344 10.226562 1.851562 10.511719 C 1.933594 10.625 1.898438 10.828125 1.839844 11.015625 C 1.664062 11.578125 1.96875 12.347656 1.777344 12.214844 C 1.398438 11.945312 1.332031 11.453125 1.34375 11.160156 C 1.347656 10.996094 1.273438 10.792969 1.234375 10.6875 C 1.210938 10.621094 0.71875 9.351562 0.601562 8.796875 C 0.542969 8.496094 0.464844 8.253906 0.71875 7.898438 C 1.09375 7.371094 1.589844 6.648438 2.097656 6.277344 C 2.9375 5.664062 3.738281 5.574219 3.738281 5.574219 C 3.738281 5.574219 3.359375 7.046875 3.082031 7.199219 Z M 12.667969 4.4375 C 12.632812 4.441406 12.605469 4.480469 12.582031 4.539062 C 12.570312 4.46875 12.550781 4.421875 12.503906 4.425781 C 12.453125 4.433594 12.421875 4.519531 12.378906 4.632812 C 12.367188 4.613281 12.351562 4.597656 12.328125 4.601562 C 12.222656 4.605469 12.183594 4.9375 11.949219 5.15625 C 11.917969 5.171875 11.886719 5.1875 11.847656 5.199219 C 11.824219 5.207031 11.808594 5.214844 11.785156 5.222656 C 11.789062 5.117188 11.859375 5.054688 11.898438 5.027344 C 12 4.957031 11.9375 4.78125 11.769531 4.890625 C 11.648438 4.964844 11.597656 5.042969 11.558594 5.117188 C 11.453125 5.335938 11.414062 5.558594 11.421875 5.738281 L 11.371094 5.828125 C 11.3125 5.929688 10.695312 6.316406 10.25 6.648438 C 9.804688 6.976562 9.480469 7.351562 9.242188 7.117188 C 9.078125 6.957031 8.578125 6.40625 7.859375 5.9375 C 7.402344 5.640625 6.71875 5.578125 6.71875 5.578125 C 6.382812 5.851562 6.789062 6.871094 7.089844 7.0625 C 7.484375 7.308594 8.867188 8.28125 9.300781 8.476562 C 9.738281 8.671875 10.011719 8.410156 10.21875 8.222656 C 10.386719 8.070312 11.648438 6.527344 11.761719 6.421875 C 11.914062 6.277344 12.203125 6.089844 12.367188 5.796875 C 12.507812 5.550781 12.59375 5.347656 12.644531 5.027344 C 12.675781 4.835938 12.8125 4.421875 12.667969 4.4375 Z M 12.667969 4.4375 "/>
<path style=" stroke:none;fill-rule:nonzero;fill:rgb(68.627451%,49.411765%,34.117647%);fill-opacity:1;" d="M 6.71875 5.578125 C 6.71875 5.578125 5.777344 5.519531 5.152344 5.519531 C 4.523438 5.519531 3.917969 5.5625 3.738281 5.578125 L 2.917969 7.085938 L 3.136719 7.203125 C 3.136719 7.203125 3.640625 9.015625 3.640625 9.371094 C 3.640625 9.722656 3.136719 11.539062 3.136719 11.539062 L 7.167969 11.539062 C 7.167969 11.539062 6.664062 9.839844 6.664062 9.371094 C 6.664062 8.902344 7.167969 7.203125 7.167969 7.203125 L 7.375 7.089844 Z M 6.71875 5.578125 "/>
<path style=" stroke:none;fill-rule:nonzero;fill:rgb(100%,33.333333%,25.098039%);fill-opacity:1;" d="M 3.738281 5.578125 L 3.136719 7.203125 L 3.546875 9.824219 L 6.753906 9.957031 L 7.167969 7.203125 L 6.71875 5.578125 C 6.71875 5.578125 6.363281 5.503906 5.234375 5.503906 C 4.109375 5.503906 3.738281 5.578125 3.738281 5.578125 Z M 3.738281 5.578125 "/>
<path style=" stroke:none;fill-rule:nonzero;fill:rgb(19.215686%,38.039216%,8.627451%);fill-opacity:1;" d="M 11.976562 10.644531 C 12.699219 9.484375 11.574219 7.644531 11.574219 7.644531 C 11.546875 7.867188 11.429688 8.359375 11.429688 8.359375 C 11.359375 8.777344 11.144531 9.429688 10.503906 10.222656 C 10.066406 10.761719 12.367188 12.515625 12.882812 12.175781 C 13.691406 11.644531 13.542969 10.746094 14.40625 9.789062 C 14.558594 9.621094 14.738281 9.449219 14.964844 9.277344 C 13.476562 9.144531 11.976562 10.644531 11.976562 10.644531 Z M 10.675781 11.925781 C 8.808594 13.433594 6.777344 12.882812 6.347656 12.5 L 3.164062 10.011719 C 0.863281 10.011719 1.296875 13.28125 3.636719 14.324219 C 7.625 16.101562 10.761719 13.730469 11.300781 12.582031 Z M 10.675781 11.925781 "/>
<path style=" stroke:none;fill-rule:nonzero;fill:rgb(40%,65.098039%,26.666667%);fill-opacity:1;" d="M 11.589844 11.199219 C 12.175781 10.300781 11.738281 8.972656 11.429688 8.359375 C 11.359375 8.777344 11.078125 9.351562 10.433594 10.144531 C 10 10.683594 10.234375 11.519531 10.425781 11.894531 C 8.929688 13.078125 7.484375 12.839844 6.75 12.503906 C 7.238281 12.28125 7.578125 11.796875 7.578125 11.234375 C 7.578125 10.453125 6.933594 9.824219 6.136719 9.824219 L 3.164062 9.824219 C 0.863281 9.824219 1.296875 12.902344 3.636719 13.925781 C 7.453125 15.59375 10.71875 13.644531 11.464844 12.488281 C 11.824219 12.527344 12.449219 12.511719 12.953125 12.179688 C 13.761719 11.648438 13.542969 10.746094 14.40625 9.789062 C 12.953125 9.894531 11.589844 11.199219 11.589844 11.199219 Z M 11.589844 11.199219 "/>
<path style=" stroke:none;fill-rule:nonzero;fill:rgb(19.215686%,38.039216%,8.627451%);fill-opacity:1;" d="M 6.753906 12.503906 C 5.792969 12.3125 3.839844 11.410156 3.757812 11.375 C 3.675781 11.335938 3.640625 11.242188 3.679688 11.160156 C 3.71875 11.078125 3.8125 11.042969 3.894531 11.082031 C 3.914062 11.089844 6.179688 12.09375 7.105469 12.277344 C 7.105469 12.277344 7.039062 12.332031 6.964844 12.390625 C 6.890625 12.445312 6.753906 12.503906 6.753906 12.503906 Z M 6.753906 12.503906 "/>
<path style=" stroke:none;fill-rule:nonzero;fill:rgb(68.627451%,49.411765%,34.117647%);fill-opacity:1;" d="M 4.429688 3.910156 L 4.429688 5.457031 C 4.429688 5.886719 4.777344 6.964844 5.203125 6.964844 C 5.628906 6.964844 5.976562 5.886719 5.976562 5.457031 L 5.976562 3.910156 Z M 4.429688 3.910156 "/>
<path style=" stroke:none;fill-rule:nonzero;fill:rgb(60.784314%,41.568627%,28.627451%);fill-opacity:1;" d="M 4.429688 5.34375 C 4.644531 5.585938 4.910156 5.652344 5.203125 5.652344 C 5.492188 5.652344 5.761719 5.585938 5.976562 5.34375 L 5.976562 4.722656 L 4.429688 4.722656 Z M 4.429688 5.34375 "/>
<path style=" stroke:none;fill-rule:nonzero;fill:rgb(45.490196%,30.588235%,66.666667%);fill-opacity:1;" d="M 6.046875 0.179688 C 5.609375 0.0390625 4.589844 0.078125 4.332031 0.410156 C 3.667969 0.421875 2.886719 1.023438 2.785156 1.816406 C 2.683594 2.601562 2.910156 2.964844 2.988281 3.554688 C 3.082031 4.222656 3.457031 4.4375 3.757812 4.527344 C 4.1875 5.097656 4.648438 5.074219 5.421875 5.074219 C 6.925781 5.074219 7.644531 4.066406 7.707031 2.351562 C 7.746094 1.316406 7.136719 0.53125 6.046875 0.179688 Z M 6.046875 0.179688 "/>
<path style=" stroke:none;fill-rule:nonzero;fill:rgb(68.627451%,49.411765%,34.117647%);fill-opacity:1;" d="M 6.90625 2.425781 C 6.761719 2.222656 6.574219 2.0625 6.164062 2.003906 C 6.320312 2.074219 6.464844 2.316406 6.484375 2.449219 C 6.503906 2.585938 6.523438 2.695312 6.402344 2.558594 C 5.914062 2.023438 5.386719 2.234375 4.859375 1.90625 C 4.492188 1.675781 4.382812 1.421875 4.382812 1.421875 C 4.382812 1.421875 4.335938 1.761719 3.78125 2.105469 C 3.621094 2.207031 3.425781 2.429688 3.320312 2.757812 C 3.242188 2.996094 3.265625 3.207031 3.265625 3.566406 C 3.265625 4.617188 4.132812 5.503906 5.203125 5.503906 C 6.273438 5.503906 7.140625 4.609375 7.140625 3.566406 C 7.140625 2.910156 7.074219 2.65625 6.90625 2.425781 Z M 6.90625 2.425781 "/>
<path style=" stroke:none;fill-rule:nonzero;fill:rgb(56.862745%,35.294118%,20.392157%);fill-opacity:1;" d="M 6.066406 4.640625 L 4.34375 4.640625 C 4.34375 4.640625 4.558594 5.074219 5.203125 5.074219 C 5.851562 5.074219 6.066406 4.640625 6.066406 4.640625 Z M 5.421875 4.105469 L 4.988281 4.105469 C 4.929688 4.105469 4.882812 4.054688 4.882812 3.996094 C 4.882812 3.9375 4.929688 3.890625 4.988281 3.890625 L 5.421875 3.890625 C 5.480469 3.890625 5.527344 3.9375 5.527344 3.996094 C 5.527344 4.054688 5.480469 4.105469 5.421875 4.105469 Z M 5.421875 4.105469 "/>
<path style=" stroke:none;fill-rule:nonzero;fill:rgb(40%,12.941176%,7.45098%);fill-opacity:1;" d="M 4.34375 3.351562 C 4.226562 3.351562 4.128906 3.253906 4.128906 3.136719 L 4.128906 2.921875 C 4.128906 2.800781 4.222656 2.703125 4.34375 2.703125 C 4.460938 2.703125 4.558594 2.800781 4.558594 2.921875 L 4.558594 3.136719 C 4.558594 3.253906 4.464844 3.351562 4.34375 3.351562 Z M 6.066406 3.351562 C 5.945312 3.351562 5.851562 3.253906 5.851562 3.136719 L 5.851562 2.921875 C 5.851562 2.800781 5.945312 2.703125 6.066406 2.703125 C 6.183594 2.703125 6.28125 2.800781 6.28125 2.921875 L 6.28125 3.136719 C 6.28125 3.253906 6.183594 3.351562 6.066406 3.351562 Z M 6.066406 3.351562 "/>
</g>
</svg>
