<?xml version="1.0" encoding="UTF-8"?>
<svg xmlns="http://www.w3.org/2000/svg" xmlns:xlink="http://www.w3.org/1999/xlink" width="15pt" height="15pt" viewBox="0 0 15 15" version="1.1">
<g id="surface1">
<path style=" stroke:none;fill-rule:nonzero;fill:rgb(40%,12.941176%,7.45098%);fill-opacity:1;" d="M 9.167969 1.875 C 9.167969 1.070312 8.421875 0.417969 7.5 0.417969 C 6.578125 0.417969 5.832031 1.070312 5.832031 1.875 C 5.832031 2.679688 6.578125 3.332031 7.5 3.332031 C 8.421875 3.332031 9.167969 2.679688 9.167969 1.875 Z M 9.167969 1.875 "/>
<path style=" stroke:none;fill-rule:nonzero;fill:rgb(91.764706%,34.901961%,43.137255%);fill-opacity:1;" d="M 9.167969 2.5 C 9.167969 1.808594 8.421875 1.25 7.5 1.25 C 6.578125 1.25 5.832031 1.808594 5.832031 2.5 C 5.832031 3.191406 6.578125 3.75 7.5 3.75 C 8.421875 3.75 9.167969 3.191406 9.167969 2.5 Z M 9.167969 2.5 "/>
<path style=" stroke:none;fill-rule:nonzero;fill:rgb(40%,12.941176%,7.45098%);fill-opacity:1;" d="M 3.332031 5.832031 C 3.332031 5.832031 2.917969 11.667969 2.917969 13.75 L 7.5 13.75 L 7.5 5.417969 Z M 11.667969 5.832031 C 11.667969 5.832031 12.082031 11.667969 12.082031 13.75 L 7.5 13.75 L 7.5 5.417969 Z M 11.667969 5.832031 "/>
<path style=" stroke:none;fill-rule:nonzero;fill:rgb(40%,12.941176%,7.45098%);fill-opacity:1;" d="M 7.5 5 L 7.5 1.667969 C 5.417969 1.667969 3.332031 2.917969 3.332031 5.417969 C 3.332031 7.917969 4.398438 5.789062 4.582031 5.417969 C 5.417969 3.75 6.667969 5 7.5 5 Z M 7.5 5 L 7.5 1.667969 C 9.582031 1.667969 11.667969 2.917969 11.667969 5.417969 C 11.667969 7.917969 10.601562 5.789062 10.417969 5.417969 C 9.582031 3.75 8.332031 5 7.5 5 Z M 7.5 5 "/>
<path style=" stroke:none;fill-rule:nonzero;fill:rgb(36.078431%,56.862745%,23.137255%);fill-opacity:1;" d="M 13.332031 15 L 13.332031 14.582031 C 13.332031 13.203125 11.796875 11.667969 10.417969 11.667969 L 4.582031 11.667969 C 3.203125 11.667969 1.667969 13.203125 1.667969 14.582031 L 1.667969 15 Z M 13.332031 15 "/>
<path style=" stroke:none;fill-rule:nonzero;fill:rgb(83.529412%,67.058824%,53.333333%);fill-opacity:1;" d="M 5.683594 11.707031 C 6.410156 12.238281 7.5 14.582031 7.5 14.582031 C 7.5 14.582031 8.589844 12.234375 9.316406 11.707031 L 9.316406 10.121094 L 5.683594 10.121094 Z M 5.683594 11.707031 "/>
<path style=" stroke:none;fill-rule:nonzero;fill:rgb(80%,60.784314%,47.843137%);fill-opacity:1;" d="M 5.679688 10.820312 C 6.1875 11.394531 6.816406 11.667969 7.5 11.667969 C 8.179688 11.667969 8.808594 11.394531 9.316406 10.820312 L 9.316406 9.367188 L 5.679688 9.367188 Z M 5.679688 10.820312 "/>
<path style=" stroke:none;fill-rule:nonzero;fill:rgb(83.529412%,67.058824%,53.333333%);fill-opacity:1;" d="M 4.167969 6.25 C 4.167969 3.921875 5.539062 2.550781 7.5 2.550781 C 9.460938 2.550781 10.832031 3.921875 10.832031 6.25 C 10.832031 9.582031 8.75 11.25 7.5 11.25 C 6.25 11.25 4.167969 9.582031 4.167969 6.25 Z M 4.167969 6.25 "/>
<path style=" stroke:none;fill-rule:nonzero;fill:rgb(40%,12.941176%,7.45098%);fill-opacity:1;" d="M 6.042969 7.394531 C 5.847656 7.394531 5.6875 7.238281 5.6875 7.042969 L 5.6875 6.707031 C 5.6875 6.515625 5.847656 6.355469 6.042969 6.355469 C 6.234375 6.355469 6.394531 6.511719 6.394531 6.707031 L 6.394531 7.042969 C 6.394531 7.238281 6.238281 7.394531 6.042969 7.394531 Z M 8.957031 7.394531 C 8.761719 7.394531 8.605469 7.238281 8.605469 7.042969 L 8.605469 6.707031 C 8.605469 6.515625 8.761719 6.355469 8.957031 6.355469 C 9.152344 6.355469 9.3125 6.511719 9.3125 6.707031 L 9.3125 7.042969 C 9.3125 7.238281 9.152344 7.394531 8.957031 7.394531 Z M 8.957031 7.394531 "/>
<path style=" stroke:none;fill-rule:nonzero;fill:rgb(75.686275%,41.176471%,30.980392%);fill-opacity:1;" d="M 7.769531 8.832031 L 7.230469 8.832031 C 7.089844 8.832031 6.980469 8.722656 6.980469 8.582031 C 6.980469 8.445312 7.089844 8.332031 7.230469 8.332031 L 7.769531 8.332031 C 7.910156 8.332031 8.019531 8.445312 8.019531 8.582031 C 8.019531 8.722656 7.910156 8.832031 7.769531 8.832031 Z M 7.769531 8.832031 "/>
<path style=" stroke:none;fill-rule:nonzero;fill:rgb(87.45098%,12.156863%,19.607843%);fill-opacity:1;" d="M 7.5 10.140625 C 6.976562 10.140625 6.519531 9.992188 6.277344 9.738281 C 6.183594 9.636719 6.1875 9.480469 6.285156 9.382812 C 6.386719 9.289062 6.542969 9.292969 6.640625 9.390625 C 6.785156 9.542969 7.121094 9.640625 7.5 9.640625 C 7.878906 9.640625 8.214844 9.542969 8.359375 9.390625 C 8.457031 9.292969 8.613281 9.289062 8.714844 9.382812 C 8.8125 9.480469 8.816406 9.636719 8.722656 9.738281 C 8.480469 9.992188 8.023438 10.140625 7.5 10.140625 Z M 7.5 10.140625 "/>
<path style=" stroke:none;fill-rule:nonzero;fill:rgb(83.529412%,67.058824%,53.333333%);fill-opacity:1;" d="M 3.378906 5.863281 L 4.1875 6.632812 C 4.1875 6.632812 4.589844 7.90625 4.1875 8.300781 C 3.8125 8.664062 2.082031 6.003906 2.082031 5.445312 C 2.082031 5.03125 3.378906 5.863281 3.378906 5.863281 Z M 11.488281 5.863281 L 10.746094 6.632812 C 10.746094 6.632812 10.496094 7.808594 10.746094 8.300781 C 10.933594 8.664062 12.917969 6.003906 12.917969 5.445312 C 12.917969 5.03125 11.488281 5.863281 11.488281 5.863281 Z M 11.488281 5.863281 "/>
<path style=" stroke:none;fill-rule:nonzero;fill:rgb(40%,12.941176%,7.45098%);fill-opacity:1;" d="M 7.5 1.667969 C 5.417969 1.667969 3.75 2.917969 3.75 5.417969 C 3.75 7.917969 4.351562 5.761719 4.582031 5.417969 C 5.417969 4.167969 6.667969 5 7.5 5 C 8.332031 5 9.582031 4.167969 10.417969 5.417969 C 10.648438 5.761719 11.25 7.917969 11.25 5.417969 C 11.25 2.917969 9.582031 1.667969 7.5 1.667969 Z M 7.5 1.667969 "/>
<path style=" stroke:none;fill-rule:nonzero;fill:rgb(40%,12.941176%,7.45098%);fill-opacity:1;" d="M 3.75 5.417969 L 3.332031 15 L 5 15 C 5 15 3.90625 6.464844 4.582031 5.417969 C 4.875 4.964844 3.75 5.417969 3.75 5.417969 Z M 11.242188 5.417969 L 11.65625 15 L 9.988281 15 C 9.988281 15 11.089844 6.464844 10.421875 5.417969 C 10.136719 4.964844 11.242188 5.417969 11.242188 5.417969 Z M 11.242188 5.417969 "/>
<path style=" stroke:none;fill-rule:nonzero;fill:rgb(91.764706%,34.901961%,43.137255%);fill-opacity:1;" d="M 7.5 2.917969 C 9.167969 2.917969 10.832031 3.75 10.832031 4.582031 C 10.832031 4.582031 10 3.332031 7.5 3.332031 C 5 3.332031 4.167969 4.582031 4.167969 4.582031 C 4.167969 4.582031 4.582031 2.917969 7.5 2.917969 Z M 7.5 2.917969 "/>
</g>
</svg>
