<?xml version="1.0" encoding="UTF-8"?>
<svg xmlns="http://www.w3.org/2000/svg" xmlns:xlink="http://www.w3.org/1999/xlink" width="15pt" height="15pt" viewBox="0 0 15 15" version="1.1">
<g id="surface1">
<path style=" stroke:none;fill-rule:nonzero;fill:rgb(53.333333%,78.823529%,97.647059%);fill-opacity:1;" d="M 13.332031 15 L 13.332031 14.167969 C 13.332031 12.785156 12.214844 11.667969 10.832031 11.667969 L 4.167969 11.667969 C 2.785156 11.667969 1.667969 12.785156 1.667969 14.167969 L 1.667969 15 Z M 13.332031 15 "/>
<path style=" stroke:none;fill-rule:nonzero;fill:rgb(53.333333%,78.823529%,97.647059%);fill-opacity:1;" d="M 5.683594 11.707031 C 6.410156 12.238281 6.871094 13.261719 7.5 13.261719 C 8.128906 13.261719 8.589844 12.234375 9.316406 11.707031 L 9.316406 10.121094 L 5.683594 10.121094 Z M 4.769531 6.640625 C 4.769531 7.242188 4.460938 7.730469 4.085938 7.730469 C 3.707031 7.734375 3.332031 7.269531 3.332031 6.667969 C 3.332031 5.859375 3.542969 5.546875 4.085938 5.546875 C 4.464844 5.546875 4.769531 6.035156 4.769531 6.640625 Z M 11.667969 6.667969 C 11.667969 7.269531 11.292969 7.734375 10.914062 7.734375 C 10.535156 7.734375 10.230469 7.242188 10.230469 6.640625 C 10.230469 6.035156 10.535156 5.546875 10.914062 5.546875 C 11.476562 5.546875 11.667969 5.859375 11.667969 6.667969 Z M 11.667969 6.667969 "/>
<path style=" stroke:none;fill-rule:nonzero;fill:rgb(53.333333%,78.823529%,97.647059%);fill-opacity:1;" d="M 3.949219 7.066406 C 3.949219 4.738281 4.582031 2.082031 7.5 2.082031 C 10.417969 2.082031 11.050781 4.738281 11.050781 7.066406 C 11.050781 9.167969 10 11.285156 7.5 11.285156 C 5 11.285156 3.949219 9.167969 3.949219 7.066406 Z M 3.949219 7.066406 "/>
<path style=" stroke:none;fill-rule:nonzero;fill:rgb(40%,12.941176%,7.45098%);fill-opacity:1;" d="M 9.042969 7.046875 L 8.984375 7.046875 C 8.792969 7.046875 8.632812 6.886719 8.632812 6.695312 L 8.632812 6.257812 C 8.632812 6.066406 8.792969 5.910156 8.984375 5.910156 L 9.042969 5.910156 C 9.234375 5.910156 9.390625 6.066406 9.390625 6.257812 L 9.390625 6.695312 C 9.390625 6.886719 9.234375 7.046875 9.042969 7.046875 Z M 5.957031 7.046875 L 6.015625 7.046875 C 6.207031 7.046875 6.367188 6.886719 6.367188 6.695312 L 6.367188 6.257812 C 6.367188 6.066406 6.207031 5.910156 6.015625 5.910156 L 5.957031 5.910156 C 5.765625 5.910156 5.609375 6.066406 5.609375 6.257812 L 5.609375 6.695312 C 5.609375 6.886719 5.765625 7.046875 5.957031 7.046875 Z M 5.957031 7.046875 "/>
<path style=" stroke:none;fill-rule:nonzero;fill:rgb(13.333333%,40%,60%);fill-opacity:1;" d="M 7.503906 9.917969 C 8.652344 9.917969 9.003906 9.625 9.0625 9.5625 C 9.167969 9.457031 9.167969 9.285156 9.0625 9.179688 C 8.957031 9.074219 8.792969 9.070312 8.6875 9.167969 C 8.664062 9.183594 8.386719 9.371094 7.503906 9.371094 C 6.585938 9.371094 6.320312 9.167969 6.320312 9.167969 C 6.210938 9.058594 6.046875 9.066406 5.9375 9.171875 C 5.832031 9.277344 5.835938 9.457031 5.945312 9.5625 C 6.003906 9.625 6.355469 9.917969 7.503906 9.917969 Z M 7.503906 9.917969 "/>
<path style=" stroke:none;fill-rule:nonzero;fill:rgb(33.333333%,67.45098%,93.333333%);fill-opacity:1;" d="M 7.8125 8.230469 L 7.1875 8.230469 C 7.015625 8.230469 6.875 8.089844 6.875 7.917969 C 6.875 7.746094 7.015625 7.605469 7.1875 7.605469 L 7.8125 7.605469 C 7.984375 7.605469 8.125 7.746094 8.125 7.917969 C 8.125 8.089844 7.984375 8.230469 7.8125 8.230469 Z M 7.8125 8.230469 "/>
<path style=" stroke:none;fill-rule:nonzero;fill:rgb(45.490196%,30.588235%,66.666667%);fill-opacity:1;" d="M 5.007812 11.644531 C 5.007812 11.644531 4.941406 14.484375 6.667969 14.484375 L 6.667969 15 L 3.742188 15 C 3.742188 15 3.652344 12.53125 4.167969 11.667969 Z M 9.988281 11.644531 C 9.988281 11.644531 10.054688 14.484375 8.328125 14.484375 L 8.328125 15 L 11.25 15 C 11.25 15 11.339844 12.53125 10.828125 11.667969 Z M 7.5 3.722656 C 7.5 3.722656 10.480469 4.496094 10.933594 5.890625 C 11.132812 5.464844 11.25 4.535156 11.25 4.007812 C 11.25 2.410156 10 1.25 7.96875 1.25 L 7.03125 1.25 C 5.3125 1.25 3.75 2.410156 3.75 4.007812 C 3.75 4.535156 3.867188 5.535156 4.0625 5.960938 C 4.519531 4.566406 7.5 3.722656 7.5 3.722656 Z M 7.5 3.722656 "/>
<path style=" stroke:none;fill-rule:nonzero;fill:rgb(79.607843%,71.764706%,91.764706%);fill-opacity:1;" d="M 11.242188 4.242188 C 10.660156 3.777344 9.976562 3.390625 9.320312 3.175781 C 9.171875 3.125 9.007812 3.207031 8.957031 3.355469 C 8.90625 3.507812 8.988281 3.671875 9.140625 3.722656 C 9.832031 3.953125 10.597656 4.414062 11.171875 4.945312 C 11.210938 4.683594 11.238281 4.390625 11.242188 4.242188 Z M 3.796875 4.714844 C 4.636719 4.113281 7.433594 2.3125 10.632812 2.289062 C 10.433594 2.0625 10.222656 1.898438 9.972656 1.742188 C 7.179688 1.949219 4.796875 3.34375 3.753906 4.042969 C 3.757812 4.234375 3.769531 4.464844 3.796875 4.714844 Z M 3.796875 4.714844 "/>
<path style=" stroke:none;fill-rule:nonzero;fill:rgb(79.607843%,71.764706%,91.764706%);fill-opacity:1;" d="M 11.007812 2.871094 C 10.996094 2.871094 10.972656 2.871094 10.960938 2.871094 C 9.78125 2.871094 8.585938 3.167969 7.410156 3.75 C 7.464844 3.730469 7.5 3.722656 7.5 3.722656 C 7.5 3.722656 7.839844 3.8125 8.308594 3.980469 C 9.191406 3.628906 10.082031 3.449219 10.960938 3.449219 C 11.046875 3.449219 11.128906 3.453125 11.199219 3.46875 C 11.167969 3.296875 11.097656 3.046875 11.007812 2.871094 Z M 3.828125 3.347656 C 4.859375 2.6875 6.785156 1.734375 8.972656 1.355469 C 8.640625 1.257812 8.328125 1.25 7.96875 1.25 L 7.234375 1.25 C 6.097656 1.691406 5.085938 2.023438 4.308594 2.453125 C 4.085938 2.734375 3.917969 3 3.828125 3.347656 Z M 3.828125 3.347656 "/>
<path style=" stroke:none;fill-rule:nonzero;fill:rgb(100%,85.098039%,51.372549%);fill-opacity:1;" d="M 7.546875 2.453125 C 7.917969 2.453125 8.21875 2.753906 8.21875 3.125 L 8.21875 3.8125 C 8.21875 4.183594 7.914062 4.484375 7.546875 4.484375 C 7.175781 4.484375 6.875 4.183594 6.875 3.8125 L 6.875 3.125 C 6.875 2.753906 7.175781 2.453125 7.546875 2.453125 Z M 7.546875 2.453125 "/>
<path style=" stroke:none;fill-rule:nonzero;fill:rgb(100%,67.45098%,20%);fill-opacity:1;" d="M 7.546875 2.871094 C 7.75 2.871094 7.914062 3.035156 7.914062 3.238281 L 7.914062 3.699219 C 7.914062 3.902344 7.75 4.066406 7.546875 4.066406 C 7.34375 4.066406 7.179688 3.902344 7.179688 3.699219 L 7.179688 3.238281 C 7.179688 3.035156 7.34375 2.871094 7.546875 2.871094 Z M 7.546875 2.871094 "/>
<path style=" stroke:none;fill-rule:nonzero;fill:rgb(0%,0%,0%);fill-opacity:1;" d="M 11.0625 8.398438 C 11.074219 8.316406 11.015625 8.234375 10.929688 8.222656 C 10.84375 8.203125 10.765625 8.265625 10.753906 8.351562 C 10.75 8.378906 10.304688 10.957031 7.738281 11.113281 C 7.785156 10.707031 7.707031 10.359375 7.703125 10.34375 C 7.675781 10.230469 7.5625 10.160156 7.453125 10.1875 C 7.339844 10.214844 7.269531 10.324219 7.296875 10.4375 C 7.296875 10.441406 7.371094 10.765625 7.320312 11.117188 C 4.707031 11 4.265625 8.460938 4.246094 8.351562 C 4.234375 8.265625 4.15625 8.207031 4.070312 8.222656 C 3.984375 8.234375 3.925781 8.3125 3.9375 8.398438 C 3.941406 8.417969 4.175781 9.777344 5.246094 10.671875 C 5.246094 10.675781 5.253906 10.6875 5.273438 10.703125 C 5.585938 10.972656 6.910156 12.363281 7.5 12.394531 L 7.503906 12.394531 C 8.09375 12.363281 9.414062 10.972656 9.726562 10.703125 C 9.746094 10.6875 9.753906 10.675781 9.757812 10.671875 C 10.824219 9.777344 11.058594 8.421875 11.0625 8.398438 Z M 11.0625 8.398438 "/>
</g>
</svg>
