<?xml version="1.0" encoding="UTF-8"?>
<svg xmlns="http://www.w3.org/2000/svg" xmlns:xlink="http://www.w3.org/1999/xlink" width="15pt" height="15pt" viewBox="0 0 15 15" version="1.1">
<defs>
<filter id="alpha" filterUnits="objectBoundingBox" x="0%" y="0%" width="100%" height="100%">
  <feColorMatrix type="matrix" in="SourceGraphic" values="0 0 0 0 1 0 0 0 0 1 0 0 0 0 1 0 0 0 1 0"/>
</filter>
<mask id="mask0">
  <g filter="url(#alpha)">
<rect x="0" y="0" width="15" height="15" style="fill:rgb(0%,0%,0%);fill-opacity:0.4;stroke:none;"/>
  </g>
</mask>
<clipPath id="clip1">
  <rect x="0" y="0" width="15" height="15"/>
</clipPath>
<g id="surface5" clip-path="url(#clip1)">
<path style=" stroke:none;fill-rule:nonzero;fill:rgb(100%,100%,100%);fill-opacity:1;" d="M 6.148438 4.480469 L 12.1875 4.480469 L 12.1875 6.667969 L 6.148438 6.667969 Z M 6.148438 4.480469 "/>
</g>
</defs>
<g id="surface1">
<path style=" stroke:none;fill-rule:nonzero;fill:rgb(80%,83.921569%,86.666667%);fill-opacity:1;" d="M 15 15 L 15 13.332031 C 15 11.953125 13.878906 10.832031 12.5 10.832031 L 5.832031 10.832031 C 4.453125 10.832031 3.332031 11.953125 3.332031 13.332031 L 3.332031 15 Z M 15 15 "/>
<path style=" stroke:none;fill-rule:nonzero;fill:rgb(48.627451%,32.54902%,24.313725%);fill-opacity:1;" d="M 7.5 11.25 L 9.167969 12.917969 L 10.832031 11.25 L 10.832031 9.167969 L 7.5 9.167969 Z M 7.5 11.25 "/>
<path style=" stroke:none;fill-rule:nonzero;fill:rgb(40%,25.490196%,19.215686%);fill-opacity:1;" d="M 7.5 10 C 8.007812 10.574219 8.480469 10.714844 9.164062 10.714844 C 9.847656 10.714844 10.328125 10.570312 10.832031 10 L 10.832031 8.332031 L 7.5 8.332031 Z M 7.5 10 "/>
<path style=" stroke:none;fill-rule:nonzero;fill:rgb(4.313725%,0.784314%,0%);fill-opacity:1;" d="M 10.664062 0.445312 C 9.863281 0.1875 7.976562 0.257812 7.503906 0.871094 C 6.277344 0.894531 4.839844 2.003906 4.648438 3.464844 C 4.460938 4.914062 4.878906 5.585938 5.027344 6.675781 C 5.195312 7.90625 5.886719 8.300781 6.441406 8.46875 C 7.238281 9.519531 8.085938 9.476562 9.511719 9.476562 C 12.292969 9.476562 13.617188 7.617188 13.734375 4.457031 C 13.804688 2.546875 12.683594 1.097656 10.664062 0.445312 Z M 10.664062 0.445312 "/>
<path style=" stroke:none;fill-rule:nonzero;fill:rgb(48.627451%,32.54902%,24.313725%);fill-opacity:1;" d="M 12.253906 4.59375 C 11.984375 4.21875 11.640625 3.917969 10.886719 3.8125 C 11.171875 3.941406 11.441406 4.390625 11.476562 4.640625 C 11.511719 4.886719 11.546875 5.089844 11.324219 4.839844 C 10.425781 3.847656 9.449219 4.238281 8.480469 3.632812 C 7.800781 3.207031 7.597656 2.738281 7.597656 2.738281 C 7.597656 2.738281 7.511719 3.363281 6.488281 4.003906 C 6.191406 4.1875 5.835938 4.597656 5.636719 5.207031 C 5.496094 5.640625 5.539062 6.03125 5.539062 6.695312 C 5.539062 8.636719 7.140625 10.269531 9.113281 10.269531 C 11.089844 10.269531 12.6875 8.625 12.6875 6.695312 C 12.6875 5.488281 12.5625 5.015625 12.253906 4.59375 Z M 12.253906 4.59375 "/>
<path style=" stroke:none;fill-rule:nonzero;fill:rgb(23.921569%,18.039216%,14.117647%);fill-opacity:1;" d="M 9.511719 7.6875 L 8.71875 7.6875 C 8.609375 7.6875 8.519531 7.601562 8.519531 7.492188 C 8.519531 7.378906 8.605469 7.292969 8.71875 7.292969 L 9.511719 7.292969 C 9.621094 7.292969 9.710938 7.378906 9.710938 7.492188 C 9.710938 7.601562 9.621094 7.6875 9.511719 7.6875 Z M 9.511719 7.6875 "/>
<path style=" stroke:none;fill-rule:nonzero;fill:rgb(0%,0%,0%);fill-opacity:1;" d="M 7.527344 6.300781 C 7.308594 6.300781 7.128906 6.121094 7.128906 5.902344 L 7.128906 5.503906 C 7.128906 5.285156 7.308594 5.109375 7.527344 5.109375 C 7.746094 5.109375 7.921875 5.285156 7.921875 5.503906 L 7.921875 5.902344 C 7.921875 6.121094 7.746094 6.300781 7.527344 6.300781 Z M 10.703125 6.300781 C 10.484375 6.300781 10.304688 6.121094 10.304688 5.902344 L 10.304688 5.503906 C 10.304688 5.285156 10.484375 5.109375 10.703125 5.109375 C 10.921875 5.109375 11.101562 5.285156 11.101562 5.503906 L 11.101562 5.902344 C 11.101562 6.121094 10.921875 6.300781 10.703125 6.300781 Z M 10.703125 6.300781 "/>
<path style=" stroke:none;fill-rule:nonzero;fill:rgb(23.921569%,18.039216%,14.117647%);fill-opacity:1;" d="M 9.167969 9.347656 C 8.019531 9.347656 7.667969 9.054688 7.609375 8.996094 C 7.5 8.886719 7.5 8.714844 7.609375 8.609375 C 7.710938 8.503906 7.878906 8.5 7.984375 8.597656 C 8.003906 8.613281 8.285156 8.800781 9.167969 8.800781 C 10.082031 8.800781 10.347656 8.597656 10.351562 8.597656 C 10.457031 8.492188 10.625 8.496094 10.730469 8.601562 C 10.839844 8.710938 10.832031 8.886719 10.726562 8.996094 C 10.667969 9.054688 10.3125 9.347656 9.167969 9.347656 "/>
<path style=" stroke:none;fill-rule:nonzero;fill:rgb(40%,45.882353%,49.803922%);fill-opacity:1;" d="M 7.941406 15 L 7.5 11.160156 C 7.5 11.160156 8.085938 11.84375 9.167969 11.84375 C 10.246094 11.84375 10.925781 11.160156 10.925781 11.160156 L 10.414062 15 Z M 7.941406 15 "/>
<path style=" stroke:none;fill-rule:nonzero;fill:rgb(96.078431%,97.254902%,98.039216%);fill-opacity:1;" d="M 7.535156 10.519531 C 7.769531 10.757812 8.75 15 8.75 15 L 7.433594 15 L 6.726562 13.933594 L 7.433594 12.75 L 6.59375 12.488281 L 6.699219 10.839844 C 6.699219 10.839844 7.421875 10.40625 7.535156 10.519531 M 10.800781 10.519531 C 10.5625 10.757812 9.582031 15 9.582031 15 L 10.898438 15 L 11.609375 13.933594 L 10.898438 12.75 L 11.738281 12.488281 L 11.632812 10.839844 C 11.632812 10.839844 10.914062 10.40625 10.800781 10.519531 "/>
<use xlink:href="#surface5" mask="url(#mask0)"/>
<path style=" stroke:none;fill-rule:nonzero;fill:rgb(96.078431%,97.254902%,98.039216%);fill-opacity:1;" d="M 12.082031 4.167969 L 6.25 4.167969 C 5.832031 4.167969 5.832031 4.582031 5.832031 4.582031 L 5.832031 6.25 C 5.832031 6.859375 6.804688 7.082031 7.5 7.082031 C 8.195312 7.082031 8.582031 6.667969 9.167969 6.667969 C 9.75 6.667969 10.140625 7.082031 10.832031 7.082031 C 11.527344 7.082031 12.5 6.859375 12.5 6.25 L 12.5 4.582031 C 12.5 4.167969 12.082031 4.167969 12.082031 4.167969 Z M 12.082031 5.832031 C 12.082031 6.386719 11.726562 6.667969 10.832031 6.667969 C 10.191406 6.667969 9.664062 6.25 9.167969 6.25 C 8.667969 6.25 8.140625 6.667969 7.5 6.667969 C 6.605469 6.667969 6.25 6.386719 6.25 5.832031 L 6.25 4.582031 L 12.082031 4.582031 Z M 12.082031 5.832031 "/>
<path style=" stroke:none;fill-rule:nonzero;fill:rgb(57.254902%,40%,80%);fill-opacity:1;" d="M 3.332031 4.582031 C 3.332031 4.8125 3.148438 5 2.917969 5 C 2.6875 5 2.5 4.8125 2.5 4.582031 C 2.5 4.351562 2.6875 4.167969 2.917969 4.167969 C 3.148438 4.167969 3.332031 4.351562 3.332031 4.582031 Z M 3.332031 4.582031 "/>
<path style=" stroke:none;fill-rule:nonzero;fill:rgb(57.254902%,40%,80%);fill-opacity:1;" d="M 4.167969 6.667969 C 4.167969 6.898438 3.980469 7.082031 3.75 7.082031 C 3.519531 7.082031 3.332031 6.898438 3.332031 6.667969 C 3.332031 6.4375 3.519531 6.25 3.75 6.25 C 3.980469 6.25 4.167969 6.4375 4.167969 6.667969 Z M 4.167969 6.667969 "/>
<path style=" stroke:none;fill-rule:nonzero;fill:rgb(57.254902%,40%,80%);fill-opacity:1;" d="M 2.917969 6.042969 C 2.917969 6.386719 2.636719 6.667969 2.292969 6.667969 C 1.945312 6.667969 1.667969 6.386719 1.667969 6.042969 C 1.667969 5.695312 1.945312 5.417969 2.292969 5.417969 C 2.636719 5.417969 2.917969 5.695312 2.917969 6.042969 Z M 2.917969 6.042969 "/>
<path style=" stroke:none;fill-rule:nonzero;fill:rgb(65.882353%,73.72549%,80%);fill-opacity:1;" d="M 4.167969 7.5 L 2.082031 7.5 C 2.082031 7.5 1.25 7.5 1.25 8.332031 C 1.25 9.167969 2.082031 9.167969 2.082031 9.167969 L 2.082031 11.25 L 0.417969 13.332031 C 0.046875 13.792969 0 14.09375 0 14.167969 C 0 15 0.832031 15 0.832031 15 L 5.417969 15 C 5.417969 15 6.25 15 6.25 14.167969 C 6.25 14.109375 6.3125 13.933594 5.832031 13.332031 L 4.167969 11.25 L 4.167969 9.167969 C 4.167969 9.167969 5 9.167969 5 8.332031 C 5 7.5 4.167969 7.5 4.167969 7.5 Z M 4.167969 7.5 "/>
<path style=" stroke:none;fill-rule:nonzero;fill:rgb(88.235294%,90.980392%,92.941176%);fill-opacity:1;" d="M 3.75 11.394531 L 3.75 8.75 L 4.167969 8.75 C 4.355469 8.746094 4.582031 8.667969 4.582031 8.332031 C 4.582031 8 4.355469 7.921875 4.164062 7.917969 L 2.082031 7.917969 C 1.894531 7.921875 1.667969 7.996094 1.667969 8.332031 C 1.667969 8.667969 1.894531 8.746094 2.089844 8.75 L 2.496094 8.761719 L 2.5 11.394531 L 1.710938 12.382812 L 3.125 13.839844 L 4.539062 12.382812 Z M 3.75 11.394531 "/>
<path style=" stroke:none;fill-rule:nonzero;fill:rgb(57.254902%,40%,80%);fill-opacity:1;" d="M 0.417969 14.179688 C 0.417969 14.503906 0.644531 14.578125 0.839844 14.582031 L 5.417969 14.582031 C 5.605469 14.578125 5.832031 14.503906 5.832031 14.167969 L 5.832031 14.148438 L 5.835938 14.117188 C 5.835938 14.113281 5.8125 13.976562 5.507812 13.59375 L 4.539062 12.382812 L 1.710938 12.382812 L 0.742188 13.59375 C 0.441406 13.96875 0.417969 14.179688 0.417969 14.179688 Z M 0.417969 14.179688 "/>
</g>
</svg>
