<?xml version="1.0" encoding="UTF-8"?>
<svg xmlns="http://www.w3.org/2000/svg" xmlns:xlink="http://www.w3.org/1999/xlink" width="15pt" height="15pt" viewBox="0 0 15 15" version="1.1">
<g id="surface1">
<path style=" stroke:none;fill-rule:nonzero;fill:rgb(81.960784%,82.745098%,83.137255%);fill-opacity:1;" d="M 9.628906 1.285156 C 8.53125 0.929688 5.945312 1.023438 5.296875 1.867188 C 3.617188 1.898438 1.644531 3.417969 1.386719 5.421875 C 1.132812 7.40625 1.703125 8.324219 1.902344 9.816406 C 2.132812 11.507812 3.085938 12.046875 3.84375 12.273438 C 4.9375 13.71875 6.097656 13.65625 8.046875 13.65625 C 11.859375 13.65625 13.671875 11.109375 13.832031 6.777344 C 13.929688 4.160156 12.394531 2.179688 9.628906 1.285156 Z M 9.628906 1.285156 "/>
<path style=" stroke:none;fill-rule:nonzero;fill:rgb(48.627451%,32.54902%,24.313725%);fill-opacity:1;" d="M 12.402344 9.777344 C 12.394531 8.175781 12.222656 7.535156 11.808594 6.964844 C 11.4375 6.453125 10.96875 6.042969 9.933594 5.898438 C 10.320312 6.074219 10.691406 6.6875 10.742188 7.027344 C 10.789062 7.367188 10.839844 7.640625 10.53125 7.304688 C 9.300781 5.941406 7.960938 6.480469 6.632812 5.648438 C 5.707031 5.066406 5.425781 4.425781 5.425781 4.425781 C 5.425781 4.425781 5.3125 5.28125 3.90625 6.15625 C 3.496094 6.40625 3.011719 6.972656 2.742188 7.804688 C 2.546875 8.402344 2.609375 8.933594 2.609375 9.847656 L 2.609375 9.875 C 2.886719 12.589844 3.839844 14.582031 7.5 14.582031 C 11.226562 14.582031 12.128906 12.542969 12.402344 9.777344 Z M 12.402344 9.777344 "/>
<path style=" stroke:none;fill-rule:nonzero;fill:rgb(23.921569%,18.039216%,14.117647%);fill-opacity:1;" d="M 7.5 13.125 C 6.523438 13.125 6.011719 12.640625 5.957031 12.585938 C 5.792969 12.421875 5.792969 12.160156 5.957031 11.996094 C 6.117188 11.835938 6.378906 11.835938 6.539062 11.992188 C 6.5625 12.011719 6.875 12.292969 7.5 12.292969 C 8.132812 12.292969 8.445312 12.003906 8.460938 11.992188 C 8.625 11.835938 8.886719 11.839844 9.046875 12.003906 C 9.203125 12.167969 9.207031 12.425781 9.042969 12.585938 C 8.988281 12.640625 8.476562 13.125 7.5 13.125 Z M 7.917969 11.042969 L 7.082031 11.042969 C 6.851562 11.042969 6.667969 10.855469 6.667969 10.625 C 6.667969 10.394531 6.851562 10.207031 7.082031 10.207031 L 7.917969 10.207031 C 8.148438 10.207031 8.332031 10.394531 8.332031 10.625 C 8.332031 10.855469 8.148438 11.042969 7.917969 11.042969 Z M 7.917969 11.042969 "/>
<path style=" stroke:none;fill-rule:nonzero;fill:rgb(0%,0%,0%);fill-opacity:1;" d="M 5.417969 10 C 5.1875 10 5 9.8125 5 9.582031 L 5 9.167969 C 5 8.9375 5.1875 8.75 5.417969 8.75 C 5.648438 8.75 5.832031 8.9375 5.832031 9.167969 L 5.832031 9.582031 C 5.832031 9.8125 5.648438 10 5.417969 10 Z M 9.582031 10 C 9.351562 10 9.167969 9.8125 9.167969 9.582031 L 9.167969 9.167969 C 9.167969 8.9375 9.351562 8.75 9.582031 8.75 C 9.8125 8.75 10 8.9375 10 9.167969 L 10 9.582031 C 10 9.8125 9.8125 10 9.582031 10 Z M 9.582031 10 "/>
<path style=" stroke:none;fill-rule:nonzero;fill:rgb(81.960784%,82.745098%,83.137255%);fill-opacity:1;" d="M 10.625 8.332031 L 9.375 8.332031 C 9.144531 8.332031 8.957031 8.148438 8.957031 7.917969 C 8.957031 7.6875 9.144531 7.5 9.375 7.5 L 10.625 7.5 C 10.855469 7.5 11.042969 7.6875 11.042969 7.917969 C 11.042969 8.148438 10.855469 8.332031 10.625 8.332031 Z M 5.625 8.332031 L 4.375 8.332031 C 4.144531 8.332031 3.957031 8.148438 3.957031 7.917969 C 3.957031 7.6875 4.144531 7.5 4.375 7.5 L 5.625 7.5 C 5.855469 7.5 6.042969 7.6875 6.042969 7.917969 C 6.042969 8.148438 5.855469 8.332031 5.625 8.332031 Z M 5.625 8.332031 "/>
</g>
</svg>
