<?xml version="1.0" encoding="UTF-8"?>
<svg xmlns="http://www.w3.org/2000/svg" xmlns:xlink="http://www.w3.org/1999/xlink" width="15pt" height="15pt" viewBox="0 0 15 15" version="1.1">
<g id="surface1">
<path style=" stroke:none;fill-rule:nonzero;fill:rgb(100%,79.607843%,29.803922%);fill-opacity:1;" d="M 15 7.5 C 15 11.640625 11.640625 15 7.5 15 C 3.359375 15 0 11.640625 0 7.5 C 0 3.359375 3.359375 0 7.5 0 C 11.640625 0 15 3.359375 15 7.5 "/>
<path style=" stroke:none;fill-rule:nonzero;fill:rgb(39.607843%,27.843137%,10.588235%);fill-opacity:1;" d="M 6.175781 6.128906 C 6.175781 5.277344 5.683594 4.585938 5.074219 4.585938 C 4.464844 4.585938 3.96875 5.277344 3.96875 6.128906 C 3.96875 6.980469 4.464844 7.671875 5.074219 7.671875 C 5.683594 7.671875 6.175781 6.980469 6.175781 6.128906 Z M 6.175781 6.128906 "/>
<path style=" stroke:none;fill-rule:nonzero;fill:rgb(95.686275%,96.862745%,97.647059%);fill-opacity:1;" d="M 13.234375 5.957031 C 13.234375 7.539062 11.953125 8.824219 10.367188 8.824219 C 8.785156 8.824219 7.5 7.539062 7.5 5.957031 C 7.5 4.371094 8.785156 3.089844 10.367188 3.089844 C 11.953125 3.089844 13.234375 4.371094 13.234375 5.957031 Z M 13.234375 5.957031 "/>
<path style=" stroke:none;fill-rule:nonzero;fill:rgb(39.607843%,27.843137%,10.588235%);fill-opacity:1;" d="M 6.175781 4.144531 C 6.042969 4.144531 5.910156 4.082031 5.824219 3.96875 C 5.410156 3.417969 4.980469 3.121094 4.539062 3.089844 C 3.960938 3.050781 3.488281 3.484375 3.398438 3.574219 C 3.226562 3.746094 2.949219 3.746094 2.777344 3.574219 C 2.605469 3.402344 2.605469 3.121094 2.777344 2.949219 C 2.964844 2.757812 3.664062 2.144531 4.601562 2.210938 C 5.308594 2.261719 5.957031 2.675781 6.53125 3.4375 C 6.675781 3.632812 6.636719 3.910156 6.441406 4.054688 C 6.363281 4.117188 6.269531 4.144531 6.175781 4.144531 Z M 6.175781 4.144531 "/>
<path style=" stroke:none;fill-rule:nonzero;fill:rgb(16.078431%,18.431373%,20%);fill-opacity:1;" d="M 13.675781 15 C 13.433594 15 13.234375 14.800781 13.234375 14.558594 L 13.234375 6.175781 C 13.234375 5.933594 13.433594 5.734375 13.675781 5.734375 C 13.921875 5.734375 14.117188 5.933594 14.117188 6.175781 L 14.117188 14.558594 C 14.117188 14.800781 13.921875 15 13.675781 15 Z M 13.675781 15 "/>
<path style=" stroke:none;fill-rule:nonzero;fill:rgb(40.392157%,45.882353%,49.803922%);fill-opacity:1;" d="M 13.675781 5.292969 C 13.652344 5.292969 13.632812 5.300781 13.609375 5.300781 C 13.304688 3.789062 11.96875 2.648438 10.367188 2.648438 C 8.542969 2.648438 7.058594 4.132812 7.058594 5.957031 C 7.058594 7.78125 8.542969 9.265625 10.367188 9.265625 C 11.8125 9.265625 13.039062 8.332031 13.492188 7.039062 C 13.550781 7.050781 13.613281 7.058594 13.675781 7.058594 C 14.164062 7.058594 14.558594 6.664062 14.558594 6.175781 C 14.558594 5.6875 14.164062 5.292969 13.675781 5.292969 Z M 10.367188 8.382812 C 9.03125 8.382812 7.941406 7.292969 7.941406 5.957031 C 7.941406 4.617188 9.03125 3.527344 10.367188 3.527344 C 11.707031 3.527344 12.792969 4.617188 12.792969 5.957031 C 12.792969 7.292969 11.707031 8.382812 10.367188 8.382812 Z M 10.367188 8.382812 "/>
<path style=" stroke:none;fill-rule:nonzero;fill:rgb(39.607843%,27.843137%,10.588235%);fill-opacity:1;" d="M 8.824219 11.910156 C 8.757812 11.910156 8.6875 11.898438 8.625 11.863281 C 7.867188 11.484375 7.132812 11.484375 6.375 11.863281 C 6.15625 11.972656 5.890625 11.886719 5.78125 11.667969 C 5.671875 11.449219 5.761719 11.183594 5.980469 11.074219 C 6.988281 10.570312 8.011719 10.570312 9.019531 11.074219 C 9.238281 11.183594 9.328125 11.449219 9.21875 11.667969 C 9.140625 11.824219 8.984375 11.910156 8.824219 11.910156 Z M 8.824219 11.910156 "/>
<path style=" stroke:none;fill-rule:nonzero;fill:rgb(74.117647%,86.666667%,95.686275%);fill-opacity:1;" d="M 11.6875 3.921875 C 11.308594 3.675781 10.855469 3.53125 10.367188 3.53125 C 9.027344 3.53125 7.941406 4.617188 7.941406 5.957031 C 7.941406 6.441406 8.085938 6.894531 8.332031 7.277344 Z M 9.332031 8.148438 C 9.648438 8.296875 9.996094 8.382812 10.367188 8.382812 C 11.707031 8.382812 12.792969 7.296875 12.792969 5.957031 C 12.792969 5.585938 12.707031 5.234375 12.558594 4.921875 Z M 9.332031 8.148438 "/>
</g>
</svg>
