<?xml version="1.0" encoding="UTF-8"?>
<svg xmlns="http://www.w3.org/2000/svg" xmlns:xlink="http://www.w3.org/1999/xlink" width="15pt" height="15pt" viewBox="0 0 15 15" version="1.1">
<g id="surface1">
<path style=" stroke:none;fill-rule:nonzero;fill:rgb(98.039216%,45.490196%,24.313725%);fill-opacity:1;" d="M 14.582031 15 L 14.582031 12.917969 C 14.582031 11.535156 13.464844 10.417969 12.082031 10.417969 L 5.417969 10.417969 C 4.035156 10.417969 2.917969 11.535156 2.917969 12.917969 L 2.917969 15 Z M 14.582031 15 "/>
<path style=" stroke:none;fill-rule:nonzero;fill:rgb(100%,86.27451%,36.470588%);fill-opacity:1;" d="M 6.933594 10.460938 C 6.933594 10.832031 7.917969 11.292969 8.75 11.292969 C 9.582031 11.292969 10.566406 10.832031 10.566406 10.460938 L 10.566406 8.871094 L 6.933594 8.871094 Z M 6.933594 10.460938 "/>
<path style=" stroke:none;fill-rule:nonzero;fill:rgb(97.647059%,79.215686%,33.333333%);fill-opacity:1;" d="M 6.929688 9.632812 C 7.4375 10.207031 8.066406 10.359375 8.75 10.359375 C 9.429688 10.359375 10.058594 10.207031 10.566406 9.632812 L 10.566406 8.179688 L 6.929688 8.179688 Z M 6.929688 9.632812 "/>
<path style=" stroke:none;fill-rule:nonzero;fill:rgb(100%,67.45098%,20%);fill-opacity:1;" d="M 10.304688 0.222656 C 9.503906 -0.0390625 7.613281 0.03125 7.144531 0.644531 C 5.917969 0.667969 4.476562 1.777344 4.289062 3.242188 C 4.101562 4.6875 4.519531 5.359375 4.664062 6.449219 C 4.832031 7.683594 5.527344 8.078125 6.082031 8.242188 C 6.878906 9.296875 7.726562 9.25 9.152344 9.25 C 11.929688 9.25 13.253906 7.390625 13.371094 4.230469 C 13.441406 2.320312 12.320312 0.875 10.304688 0.222656 Z M 10.304688 0.222656 "/>
<path style=" stroke:none;fill-rule:nonzero;fill:rgb(100%,86.27451%,36.470588%);fill-opacity:1;" d="M 11.894531 4.367188 C 11.625 3.996094 11.28125 3.695312 10.527344 3.589844 C 10.808594 3.71875 11.082031 4.167969 11.117188 4.414062 C 11.152344 4.664062 11.1875 4.863281 10.964844 4.613281 C 10.066406 3.621094 9.085938 4.011719 8.117188 3.40625 C 7.441406 2.984375 7.234375 2.515625 7.234375 2.515625 C 7.234375 2.515625 7.152344 3.140625 6.125 3.777344 C 5.828125 3.960938 5.472656 4.371094 5.277344 4.980469 C 5.136719 5.417969 5.179688 5.804688 5.179688 6.472656 C 5.179688 8.414062 6.78125 10.046875 8.753906 10.046875 C 10.726562 10.046875 12.328125 8.398438 12.328125 6.472656 C 12.328125 5.265625 12.203125 4.792969 11.894531 4.367188 Z M 11.894531 4.367188 "/>
<path style=" stroke:none;fill-rule:nonzero;fill:rgb(75.686275%,41.176471%,30.980392%);fill-opacity:1;" d="M 9.152344 7.464844 L 8.355469 7.464844 C 8.246094 7.464844 8.15625 7.375 8.15625 7.265625 C 8.15625 7.15625 8.246094 7.066406 8.355469 7.066406 L 9.152344 7.066406 C 9.261719 7.066406 9.347656 7.15625 9.347656 7.265625 C 9.347656 7.375 9.261719 7.464844 9.152344 7.464844 Z M 9.152344 7.464844 "/>
<path style=" stroke:none;fill-rule:nonzero;fill:rgb(40%,12.941176%,7.45098%);fill-opacity:1;" d="M 7.164062 6.074219 C 6.945312 6.074219 6.765625 5.894531 6.765625 5.675781 L 6.765625 5.28125 C 6.765625 5.0625 6.945312 4.882812 7.164062 4.882812 C 7.382812 4.882812 7.5625 5.0625 7.5625 5.28125 L 7.5625 5.675781 C 7.5625 5.898438 7.382812 6.074219 7.164062 6.074219 Z M 10.34375 6.074219 C 10.121094 6.074219 9.945312 5.894531 9.945312 5.675781 L 9.945312 5.28125 C 9.945312 5.0625 10.121094 4.882812 10.34375 4.882812 C 10.5625 4.882812 10.738281 5.0625 10.738281 5.28125 L 10.738281 5.675781 C 10.738281 5.898438 10.5625 6.074219 10.34375 6.074219 Z M 10.34375 6.074219 "/>
<path style=" stroke:none;fill-rule:nonzero;fill:rgb(75.686275%,41.176471%,30.980392%);fill-opacity:1;" d="M 8.804688 9.121094 C 7.660156 9.121094 7.304688 8.828125 7.246094 8.769531 C 7.140625 8.664062 7.140625 8.488281 7.246094 8.382812 C 7.351562 8.28125 7.515625 8.277344 7.621094 8.375 C 7.644531 8.390625 7.921875 8.578125 8.804688 8.578125 C 9.722656 8.578125 9.988281 8.375 9.988281 8.371094 C 10.097656 8.265625 10.265625 8.269531 10.371094 8.378906 C 10.476562 8.484375 10.472656 8.664062 10.363281 8.769531 C 10.304688 8.828125 9.953125 9.121094 8.804688 9.121094 "/>
<path style=" stroke:none;fill-rule:nonzero;fill:rgb(88.235294%,90.980392%,92.941176%);fill-opacity:1;" d="M 13.75 14.582031 C 13.75 14.8125 13.5625 15 13.332031 15 L 9.167969 15 C 8.9375 15 8.75 14.8125 8.75 14.582031 C 8.75 14.351562 8.9375 14.167969 9.167969 14.167969 L 13.332031 14.167969 C 13.5625 14.167969 13.75 14.351562 13.75 14.582031 Z M 13.75 14.582031 "/>
<path style=" stroke:none;fill-rule:nonzero;fill:rgb(88.235294%,90.980392%,92.941176%);fill-opacity:1;" d="M 8.433594 9.167969 L 1.566406 9.167969 C 0.929688 9.167969 0.117188 9.488281 0.535156 10.636719 L 1.8125 14.167969 C 1.8125 14.167969 1.980469 15 2.917969 15 L 11.25 15 L 9.582031 10.316406 C 9.402344 9.765625 9.070312 9.167969 8.433594 9.167969 Z M 8.433594 9.167969 "/>
<path style=" stroke:none;fill-rule:nonzero;fill:rgb(60%,66.666667%,70.980392%);fill-opacity:1;" d="M 8.015625 9.167969 L 1.148438 9.167969 C 0.515625 9.167969 -0.300781 9.488281 0.117188 10.636719 L 1.398438 14.167969 C 1.398438 14.167969 1.5625 15 2.5 15 L 10.832031 15 L 9.167969 10.316406 C 8.984375 9.765625 8.652344 9.167969 8.015625 9.167969 Z M 8.015625 9.167969 "/>
<path style=" stroke:none;fill-rule:nonzero;fill:rgb(88.235294%,90.980392%,92.941176%);fill-opacity:1;" d="M 5.839844 12.203125 C 6.058594 12.855469 5.882812 13.503906 5.445312 13.652344 C 5.007812 13.796875 4.476562 13.382812 4.261719 12.730469 C 4.042969 12.074219 4.21875 11.425781 4.65625 11.277344 C 5.09375 11.132812 5.625 11.546875 5.839844 12.203125 Z M 7.917969 10.3125 L 1.25 10.3125 C 1.078125 10.3125 0.9375 10.171875 0.9375 10 C 0.9375 9.828125 1.078125 9.6875 1.25 9.6875 L 7.917969 9.6875 C 8.089844 9.6875 8.230469 9.828125 8.230469 10 C 8.230469 10.171875 8.089844 10.3125 7.917969 10.3125 Z M 7.917969 10.3125 "/>
</g>
</svg>
