<?xml version="1.0" encoding="UTF-8"?>
<svg xmlns="http://www.w3.org/2000/svg" xmlns:xlink="http://www.w3.org/1999/xlink" width="15pt" height="15pt" viewBox="0 0 15 15" version="1.1">
<g id="surface1">
<path style=" stroke:none;fill-rule:nonzero;fill:rgb(88.235294%,90.980392%,92.941176%);fill-opacity:1;" d="M 15 15 L 15 14.167969 C 15 12.785156 13.878906 11.667969 12.5 11.667969 L 5.832031 11.667969 C 4.453125 11.667969 3.332031 12.785156 3.332031 14.167969 L 3.332031 15 Z M 15 15 "/>
<path style=" stroke:none;fill-rule:nonzero;fill:rgb(13.333333%,40%,60%);fill-opacity:1;" d="M 9.167969 15 L 11.25 11.667969 L 7.082031 11.667969 Z M 9.167969 15 "/>
<path style=" stroke:none;fill-rule:nonzero;fill:rgb(48.627451%,32.54902%,24.313725%);fill-opacity:1;" d="M 7.351562 11.683594 C 7.351562 12.5 10.984375 12.5 10.984375 11.683594 L 10.984375 10.121094 L 7.351562 10.121094 Z M 7.351562 11.683594 "/>
<path style=" stroke:none;fill-rule:nonzero;fill:rgb(40%,25.490196%,19.215686%);fill-opacity:1;" d="M 7.347656 10.820312 C 7.851562 11.394531 8.480469 11.550781 9.164062 11.550781 C 9.847656 11.550781 10.476562 11.394531 10.984375 10.820312 L 10.984375 9.367188 L 7.347656 9.367188 Z M 7.347656 10.820312 "/>
<path style=" stroke:none;fill-rule:nonzero;fill:rgb(4.313725%,0.784314%,0%);fill-opacity:1;" d="M 9.648438 2.910156 C 8.847656 2.652344 10.25 1.367188 9.777344 1.980469 C 8.550781 2.003906 6.589844 3.296875 5.695312 4.46875 C 4.730469 5.730469 4.933594 6.523438 5.082031 7.613281 C 5.25 8.847656 5.945312 9.242188 6.496094 9.40625 C 7.296875 10.460938 8.144531 10.414062 9.566406 10.414062 C 12.347656 10.414062 13.417969 8.367188 13.269531 5.789062 C 13.15625 4.546875 11.664062 3.5625 9.648438 2.910156 Z M 9.648438 2.910156 "/>
<path style=" stroke:none;fill-rule:nonzero;fill:rgb(48.627451%,32.54902%,24.313725%);fill-opacity:1;" d="M 12.3125 5.53125 C 12.042969 5.15625 11.699219 4.859375 10.941406 4.753906 C 11.226562 4.882812 11.660156 5.472656 11.695312 5.71875 C 11.734375 5.96875 11.730469 6.449219 11.535156 6.175781 C 10.683594 4.988281 9.503906 5.175781 8.535156 4.570312 C 7.859375 4.148438 7.652344 3.679688 7.652344 3.679688 C 7.652344 3.679688 7.570312 4.304688 6.542969 4.941406 C 6.246094 5.125 5.890625 5.535156 5.695312 6.144531 C 5.550781 6.582031 5.597656 6.96875 5.597656 7.632812 C 5.597656 9.578125 7.195312 11.207031 9.171875 11.207031 C 11.144531 11.207031 12.746094 9.5625 12.746094 7.632812 C 12.746094 6.425781 12.617188 5.953125 12.3125 5.53125 Z M 12.3125 5.53125 "/>
<path style=" stroke:none;fill-rule:nonzero;fill:rgb(23.921569%,18.039216%,14.117647%);fill-opacity:1;" d="M 9.566406 8.628906 L 8.773438 8.628906 C 8.664062 8.628906 8.574219 8.539062 8.574219 8.429688 C 8.574219 8.320312 8.664062 8.230469 8.773438 8.230469 L 9.566406 8.230469 C 9.675781 8.230469 9.765625 8.320312 9.765625 8.429688 C 9.765625 8.539062 9.675781 8.628906 9.566406 8.628906 Z M 9.566406 8.628906 "/>
<path style=" stroke:none;fill-rule:nonzero;fill:rgb(0%,0%,0%);fill-opacity:1;" d="M 7.582031 7.238281 C 7.363281 7.238281 7.183594 7.058594 7.183594 6.839844 L 7.183594 6.441406 C 7.183594 6.222656 7.363281 6.046875 7.582031 6.046875 C 7.800781 6.046875 7.976562 6.222656 7.976562 6.441406 L 7.976562 6.839844 C 7.976562 7.058594 7.800781 7.238281 7.582031 7.238281 Z M 10.757812 7.238281 C 10.539062 7.238281 10.363281 7.058594 10.363281 6.839844 L 10.363281 6.441406 C 10.363281 6.222656 10.539062 6.046875 10.757812 6.046875 C 10.976562 6.046875 11.15625 6.222656 11.15625 6.441406 L 11.15625 6.839844 C 11.15625 7.058594 10.976562 7.238281 10.757812 7.238281 Z M 10.757812 7.238281 "/>
<path style=" stroke:none;fill-rule:nonzero;fill:rgb(23.921569%,18.039216%,14.117647%);fill-opacity:1;" d="M 9.222656 10.285156 C 8.074219 10.285156 7.722656 9.992188 7.664062 9.933594 C 7.558594 9.824219 7.558594 9.652344 7.664062 9.546875 C 7.765625 9.441406 7.933594 9.441406 8.039062 9.535156 C 8.0625 9.550781 8.339844 9.738281 9.222656 9.738281 C 10.140625 9.738281 10.402344 9.539062 10.40625 9.535156 C 10.511719 9.429688 10.679688 9.433594 10.785156 9.542969 C 10.894531 9.648438 10.886719 9.828125 10.78125 9.933594 C 10.722656 9.992188 10.371094 10.285156 9.222656 10.285156 "/>
<path style=" stroke:none;fill-rule:nonzero;fill:rgb(80%,83.921569%,86.666667%);fill-opacity:1;" d="M 12.992188 5 C 12.992188 5 11.898438 5.417969 9.167969 5.417969 C 6.433594 5.417969 5.34375 5 5.34375 5 L 5.34375 2.5 L 12.992188 2.5 Z M 12.992188 5 "/>
<path style=" stroke:none;fill-rule:nonzero;fill:rgb(60%,66.666667%,70.980392%);fill-opacity:1;" d="M 6.667969 4.6875 C 6.667969 4.800781 6.574219 4.894531 6.457031 4.894531 C 6.34375 4.894531 6.25 4.800781 6.25 4.6875 L 6.25 3.4375 C 6.25 3.324219 6.34375 3.230469 6.457031 3.230469 C 6.574219 3.230469 6.667969 3.324219 6.667969 3.4375 Z M 12.082031 4.6875 C 12.082031 4.800781 11.988281 4.894531 11.875 4.894531 C 11.761719 4.894531 11.667969 4.800781 11.667969 4.6875 L 11.667969 3.4375 C 11.667969 3.324219 11.761719 3.230469 11.875 3.230469 C 11.988281 3.230469 12.082031 3.324219 12.082031 3.4375 Z M 7.917969 4.855469 C 7.917969 4.96875 7.824219 5.0625 7.707031 5.0625 C 7.59375 5.0625 7.5 4.96875 7.5 4.855469 L 7.5 3.605469 C 7.5 3.488281 7.59375 3.394531 7.707031 3.394531 C 7.824219 3.394531 7.917969 3.488281 7.917969 3.605469 Z M 9.375 4.894531 C 9.375 5.011719 9.28125 5.105469 9.167969 5.105469 C 9.050781 5.105469 8.957031 5.011719 8.957031 4.894531 L 8.957031 3.644531 C 8.957031 3.53125 9.050781 3.4375 9.167969 3.4375 C 9.28125 3.4375 9.375 3.53125 9.375 3.644531 Z M 10.832031 4.855469 C 10.832031 4.96875 10.738281 5.0625 10.625 5.0625 C 10.511719 5.0625 10.417969 4.96875 10.417969 4.855469 L 10.417969 3.605469 C 10.417969 3.488281 10.511719 3.394531 10.625 3.394531 C 10.738281 3.394531 10.832031 3.488281 10.832031 3.605469 Z M 10.832031 4.855469 "/>
<path style=" stroke:none;fill-rule:nonzero;fill:rgb(88.235294%,90.980392%,92.941176%);fill-opacity:1;" d="M 11.769531 0 C 11.289062 0 10.839844 0.132812 10.453125 0.363281 C 10.0625 0.132812 9.613281 0 9.132812 0 C 8.664062 0 8.226562 0.125 7.847656 0.339844 C 7.46875 0.125 7.03125 0 6.5625 0 C 5.125 0 3.957031 1.164062 3.957031 2.605469 C 3.957031 4.042969 8.664062 3.957031 9.132812 3.957031 C 9.613281 3.957031 14.375 4.042969 14.375 2.605469 C 14.375 1.164062 13.207031 0 11.769531 0 Z M 11.769531 0 "/>
<path style=" stroke:none;fill-rule:nonzero;fill:rgb(60%,66.666667%,70.980392%);fill-opacity:1;" d="M 4.167969 10.3125 C 4.167969 11.75 3.328125 12.5 2.292969 12.5 C 1.257812 12.5 0.417969 11.75 0.417969 10.3125 C 0.417969 8.875 1.257812 7.292969 2.292969 7.292969 C 3.328125 7.292969 4.167969 8.875 4.167969 10.3125 Z M 4.167969 10.3125 "/>
<path style=" stroke:none;fill-rule:nonzero;fill:rgb(60%,66.666667%,70.980392%);fill-opacity:1;" d="M 1.875 11.667969 L 2.707031 11.667969 L 2.707031 15 L 1.875 15 Z M 1.875 11.667969 "/>
<path style=" stroke:none;fill-rule:nonzero;fill:rgb(75.686275%,41.176471%,30.980392%);fill-opacity:1;" d="M 4.167969 10.3125 C 4.167969 11.75 3.328125 12.5 2.292969 12.5 C 1.257812 12.5 0.417969 11.75 0.417969 10.3125 C 0.417969 8.875 1.257812 7.292969 2.292969 7.292969 C 3.328125 7.292969 4.167969 8.875 4.167969 10.3125 Z M 4.167969 10.3125 "/>
<path style=" stroke:none;fill-rule:nonzero;fill:rgb(75.686275%,41.176471%,30.980392%);fill-opacity:1;" d="M 1.875 11.667969 L 2.707031 11.667969 L 2.707031 15 L 1.875 15 Z M 1.875 11.667969 "/>
<path style=" stroke:none;fill-rule:nonzero;fill:rgb(80%,83.921569%,86.666667%);fill-opacity:1;" d="M 6.207031 1.871094 C 6.222656 1.875 6.234375 1.875 6.25 1.875 C 6.347656 1.875 6.433594 1.808594 6.453125 1.710938 C 6.464844 1.652344 6.59375 1.109375 7.003906 0.789062 C 7.320312 0.542969 7.730469 0.378906 7.839844 0.335938 C 7.675781 0.242188 7.496094 0.171875 7.3125 0.113281 C 7.132812 0.203125 6.929688 0.316406 6.746094 0.460938 C 6.230469 0.863281 6.074219 1.5 6.046875 1.621094 C 6.023438 1.734375 6.09375 1.847656 6.207031 1.871094 Z M 11.269531 0.792969 C 11.683594 1.113281 11.808594 1.652344 11.820312 1.714844 C 11.84375 1.8125 11.929688 1.878906 12.023438 1.878906 C 12.039062 1.878906 12.054688 1.878906 12.066406 1.875 C 12.179688 1.851562 12.253906 1.738281 12.226562 1.625 C 12.203125 1.503906 12.042969 0.867188 11.527344 0.464844 C 11.351562 0.324219 11.15625 0.214844 10.984375 0.128906 C 10.800781 0.183594 10.628906 0.257812 10.46875 0.351562 C 10.609375 0.410156 10.976562 0.5625 11.269531 0.792969 Z M 11.269531 0.792969 "/>
</g>
</svg>
