<?xml version="1.0" encoding="UTF-8"?>
<svg xmlns="http://www.w3.org/2000/svg" xmlns:xlink="http://www.w3.org/1999/xlink" width="15pt" height="15pt" viewBox="0 0 15 15" version="1.1">
<g id="surface1">
<path style=" stroke:none;fill-rule:nonzero;fill:rgb(16.078431%,18.431373%,20%);fill-opacity:1;" d="M 15 15 L 15 14.167969 C 15 12.785156 13.878906 11.667969 12.5 11.667969 L 5.832031 11.667969 C 4.453125 11.667969 3.332031 12.785156 3.332031 14.167969 L 3.332031 15 Z M 15 15 "/>
<path style=" stroke:none;fill-rule:nonzero;fill:rgb(88.235294%,90.980392%,92.941176%);fill-opacity:1;" d="M 7.082031 11.667969 L 11.21875 11.667969 L 11.21875 15 L 7.082031 15 Z M 7.082031 11.667969 "/>
<path style=" stroke:none;fill-rule:nonzero;fill:rgb(100%,86.27451%,36.470588%);fill-opacity:1;" d="M 7.351562 11.707031 C 8.078125 12.238281 8.535156 12.527344 9.167969 12.527344 C 9.796875 12.527344 10.257812 12.238281 10.984375 11.707031 L 10.984375 10.121094 L 7.347656 10.121094 L 7.347656 11.707031 Z M 7.351562 11.707031 "/>
<path style=" stroke:none;fill-rule:nonzero;fill:rgb(97.647059%,79.215686%,33.333333%);fill-opacity:1;" d="M 7.347656 10.820312 C 7.851562 11.394531 8.480469 11.550781 9.164062 11.550781 C 9.847656 11.550781 10.476562 11.394531 10.984375 10.820312 L 10.984375 9.367188 L 7.347656 9.367188 Z M 7.347656 10.820312 "/>
<path style=" stroke:none;fill-rule:nonzero;fill:rgb(42.745098%,43.137255%,44.313725%);fill-opacity:1;" d="M 10.664062 1.464844 C 9.863281 1.207031 7.976562 1.277344 7.503906 1.890625 C 6.277344 1.914062 4.839844 3.023438 4.648438 4.484375 C 4.460938 5.933594 4.878906 6.605469 5.027344 7.691406 C 5.195312 8.925781 5.886719 9.320312 6.441406 9.484375 C 7.238281 10.539062 8.085938 10.496094 9.511719 10.496094 C 12.292969 10.496094 13.617188 8.636719 13.734375 5.476562 C 13.804688 3.566406 12.683594 2.117188 10.664062 1.464844 Z M 10.664062 1.464844 "/>
<path style=" stroke:none;fill-rule:nonzero;fill:rgb(100%,86.27451%,36.470588%);fill-opacity:1;" d="M 12.253906 5.609375 C 11.984375 5.238281 11.640625 4.9375 10.886719 4.832031 C 11.171875 4.960938 11.441406 5.410156 11.476562 5.660156 C 11.511719 5.90625 11.546875 6.105469 11.324219 5.859375 C 10.425781 4.867188 9.449219 5.257812 8.480469 4.652344 C 7.800781 4.226562 7.597656 3.757812 7.597656 3.757812 C 7.597656 3.757812 7.515625 4.382812 6.488281 5.019531 C 6.191406 5.207031 5.835938 5.617188 5.636719 6.222656 C 5.496094 6.660156 5.539062 7.050781 5.539062 7.714844 C 5.539062 9.65625 7.140625 11.289062 9.113281 11.289062 C 11.089844 11.289062 12.6875 9.640625 12.6875 7.714844 C 12.6875 6.507812 12.5625 6.035156 12.253906 5.609375 Z M 12.253906 5.609375 "/>
<path style=" stroke:none;fill-rule:nonzero;fill:rgb(75.686275%,41.176471%,30.980392%);fill-opacity:1;" d="M 9.511719 8.707031 L 8.71875 8.707031 C 8.609375 8.707031 8.519531 8.621094 8.519531 8.507812 C 8.519531 8.398438 8.605469 8.3125 8.71875 8.3125 L 9.511719 8.3125 C 9.621094 8.3125 9.710938 8.398438 9.710938 8.507812 C 9.710938 8.621094 9.621094 8.707031 9.511719 8.707031 Z M 9.511719 8.707031 "/>
<path style=" stroke:none;fill-rule:nonzero;fill:rgb(40%,12.941176%,7.45098%);fill-opacity:1;" d="M 7.527344 7.316406 C 7.308594 7.316406 7.128906 7.140625 7.128906 6.921875 L 7.128906 6.523438 C 7.128906 6.304688 7.308594 6.128906 7.527344 6.128906 C 7.746094 6.128906 7.921875 6.304688 7.921875 6.523438 L 7.921875 6.921875 C 7.921875 7.140625 7.746094 7.316406 7.527344 7.316406 Z M 10.703125 7.316406 C 10.484375 7.316406 10.304688 7.140625 10.304688 6.921875 L 10.304688 6.523438 C 10.304688 6.304688 10.484375 6.128906 10.703125 6.128906 C 10.921875 6.128906 11.101562 6.304688 11.101562 6.523438 L 11.101562 6.921875 C 11.101562 7.140625 10.921875 7.316406 10.703125 7.316406 Z M 10.703125 7.316406 "/>
<path style=" stroke:none;fill-rule:nonzero;fill:rgb(75.686275%,41.176471%,30.980392%);fill-opacity:1;" d="M 9.167969 10.367188 C 8.019531 10.367188 7.667969 10.074219 7.609375 10.011719 C 7.5 9.90625 7.5 9.734375 7.609375 9.628906 C 7.710938 9.523438 7.878906 9.519531 7.984375 9.617188 C 8.003906 9.632812 8.285156 9.820312 9.167969 9.820312 C 10.082031 9.820312 10.347656 9.617188 10.351562 9.617188 C 10.457031 9.511719 10.625 9.515625 10.730469 9.621094 C 10.839844 9.730469 10.832031 9.90625 10.726562 10.011719 C 10.667969 10.074219 10.3125 10.367188 9.167969 10.367188 "/>
<path style=" stroke:none;fill-rule:nonzero;fill:rgb(60%,66.666667%,70.980392%);fill-opacity:1;" d="M 9.167969 12.867188 C 9.167969 12.867188 10.574219 13.90625 10.871094 14.023438 C 10.9375 14.050781 10.71875 12.5 10.71875 12.5 L 7.613281 12.5 C 7.613281 12.5 7.394531 14.074219 7.519531 14.011719 C 7.785156 13.867188 9.167969 12.867188 9.167969 12.867188 "/>
<path style=" stroke:none;fill-rule:nonzero;fill:rgb(96.078431%,97.254902%,98.039216%);fill-opacity:1;" d="M 7.203125 11.09375 C 7.441406 11.328125 9.167969 12.503906 9.167969 12.503906 C 9.167969 12.503906 8.28125 13.019531 7.464844 13.976562 C 7.382812 14.070312 6.824219 12.046875 6.804688 11.597656 C 6.800781 11.472656 7.09375 10.980469 7.203125 11.09375 M 11.136719 11.09375 C 10.902344 11.328125 9.175781 12.503906 9.175781 12.503906 C 9.175781 12.503906 10.0625 13.019531 10.878906 13.976562 C 10.957031 14.070312 11.519531 12.046875 11.535156 11.597656 C 11.542969 11.472656 11.25 10.980469 11.136719 11.09375 "/>
<path style=" stroke:none;fill-rule:nonzero;fill:rgb(16.078431%,18.431373%,20%);fill-opacity:1;" d="M 11.507812 11.667969 C 11.507812 11.667969 10.867188 13.941406 9.167969 14.753906 C 7.46875 13.941406 6.824219 11.667969 6.824219 11.667969 L 6.25 11.667969 L 6.25 15 L 12.082031 15 L 12.082031 11.667969 Z M 11.507812 11.667969 "/>
<path style=" stroke:none;fill-rule:nonzero;fill:rgb(40%,45.882353%,49.803922%);fill-opacity:1;" d="M 5.035156 13.890625 C 5.140625 13.890625 5.203125 15 5.203125 15 L 4.804688 15 C 4.804688 15 4.882812 13.890625 5.035156 13.890625 M 6.285156 13.890625 C 6.390625 13.890625 6.453125 15 6.453125 15 L 6.054688 15 C 6.054688 15 6.132812 13.890625 6.285156 13.890625 M 13.304688 13.890625 C 13.199219 13.890625 13.136719 15 13.136719 15 L 13.535156 15 C 13.535156 15 13.453125 13.890625 13.304688 13.890625 M 12.054688 13.890625 C 11.949219 13.890625 11.886719 15 11.886719 15 L 12.285156 15 C 12.285156 15 12.203125 13.890625 12.054688 13.890625 "/>
<path style=" stroke:none;fill-rule:nonzero;fill:rgb(75.686275%,41.176471%,30.980392%);fill-opacity:1;" d="M 3.273438 9.859375 C 3.46875 10.378906 3.347656 10.902344 3.003906 11.03125 C 2.65625 11.160156 2.21875 10.847656 2.023438 10.332031 C 1.828125 9.816406 1.949219 9.289062 2.296875 9.160156 C 2.640625 9.03125 3.078125 9.34375 3.273438 9.859375 "/>
<path style=" stroke:none;fill-rule:nonzero;fill:rgb(40%,12.941176%,7.45098%);fill-opacity:1;" d="M 3.789062 15 L 2.339844 11.164062 L 2.441406 11.125 C 2.902344 10.953125 3.132812 10.4375 2.960938 9.976562 C 2.789062 9.519531 2.273438 9.289062 1.816406 9.460938 L 0.984375 9.777344 C 0.527344 9.949219 0.292969 10.464844 0.464844 10.921875 C 0.636719 11.378906 1.152344 11.609375 1.609375 11.4375 L 1.714844 11.398438 L 3.074219 15 Z M 3.789062 15 "/>
<path style=" stroke:none;fill-rule:nonzero;fill:rgb(75.686275%,41.176471%,30.980392%);fill-opacity:1;" d="M 1.402344 10.566406 C 1.597656 11.082031 1.476562 11.609375 1.128906 11.738281 C 0.785156 11.867188 0.347656 11.554688 0.152344 11.039062 C -0.0429688 10.523438 0.078125 9.996094 0.425781 9.867188 C 0.769531 9.738281 1.207031 10.050781 1.402344 10.566406 "/>
<path style=" stroke:none;fill-rule:nonzero;fill:rgb(100%,86.27451%,36.470588%);fill-opacity:1;" d="M 4.714844 15 L 4.523438 14.339844 C 4.371094 13.820312 3.824219 13.523438 3.308594 13.675781 L 2.785156 13.828125 C 2.285156 13.976562 1.992188 14.496094 2.113281 15 Z M 4.714844 15 "/>
</g>
</svg>
