<?xml version="1.0" encoding="UTF-8"?>
<svg xmlns="http://www.w3.org/2000/svg" xmlns:xlink="http://www.w3.org/1999/xlink" width="15pt" height="15pt" viewBox="0 0 15 15" version="1.1">
<g id="surface1">
<path style=" stroke:none;fill-rule:nonzero;fill:rgb(46.666667%,69.803922%,33.333333%);fill-opacity:1;" d="M 15 15 L 15 14.167969 C 15 12.785156 13.878906 11.667969 12.5 11.667969 L 5.832031 11.667969 C 4.453125 11.667969 3.332031 12.785156 3.332031 14.167969 L 3.332031 15 Z M 15 15 "/>
<path style=" stroke:none;fill-rule:nonzero;fill:rgb(24.313725%,44.705882%,11.372549%);fill-opacity:1;" d="M 9.167969 14.167969 C 9.484375 14.167969 11.25 12.917969 11.25 11.667969 L 7.082031 11.667969 C 7.082031 12.917969 8.847656 14.167969 9.167969 14.167969 Z M 9.167969 14.167969 "/>
<path style=" stroke:none;fill-rule:nonzero;fill:rgb(95.294118%,82.352941%,63.529412%);fill-opacity:1;" d="M 7.351562 11.683594 C 7.351562 12.867188 10.984375 12.917969 10.984375 11.683594 L 10.984375 10.121094 L 7.351562 10.121094 Z M 7.351562 11.683594 "/>
<path style=" stroke:none;fill-rule:nonzero;fill:rgb(88.627451%,75.686275%,58.823529%);fill-opacity:1;" d="M 7.347656 10.820312 C 7.851562 11.394531 8.480469 11.550781 9.164062 11.550781 C 9.847656 11.550781 10.476562 11.394531 10.984375 10.820312 L 10.984375 9.367188 L 7.347656 9.367188 Z M 7.347656 10.820312 "/>
<path style=" stroke:none;fill-rule:nonzero;fill:rgb(100%,89.803922%,11.764706%);fill-opacity:1;" d="M 10.480469 1.375 C 9.679688 1.117188 8.03125 1.183594 7.558594 1.796875 C 6.78125 1.8125 6.894531 3.34375 5.429688 3.03125 C 5.121094 3.453125 4.90625 3.949219 4.835938 4.480469 C 4.648438 5.929688 4.933594 6.511719 5.082031 7.601562 C 5.25 8.832031 5.945312 9.226562 6.496094 9.394531 C 7.296875 10.445312 8.144531 10.402344 9.566406 10.402344 C 12.347656 10.402344 13.429688 8.542969 13.546875 5.386719 C 13.582031 4.488281 13.351562 3.691406 12.886719 3.03125 C 11.289062 3.652344 11.546875 1.722656 10.480469 1.375 Z M 10.480469 1.375 "/>
<path style=" stroke:none;fill-rule:nonzero;fill:rgb(95.294118%,82.352941%,63.529412%);fill-opacity:1;" d="M 12.3125 5.519531 C 12.042969 5.144531 11.699219 4.84375 10.941406 4.738281 C 11.226562 4.871094 11.722656 5.65625 11.757812 5.90625 C 11.792969 6.152344 11.828125 6.351562 11.605469 6.105469 C 10.707031 5.113281 9.503906 5.164062 8.535156 4.558594 C 7.859375 4.132812 7.652344 3.664062 7.652344 3.664062 C 7.652344 3.664062 7.570312 4.289062 6.542969 4.929688 C 6.246094 5.113281 5.890625 5.523438 5.695312 6.132812 C 5.550781 6.566406 5.597656 6.957031 5.597656 7.621094 C 5.597656 9.5625 7.195312 11.195312 9.171875 11.195312 C 11.144531 11.195312 12.746094 9.550781 12.746094 7.621094 C 12.746094 6.414062 12.617188 5.941406 12.3125 5.519531 Z M 12.3125 5.519531 "/>
<path style=" stroke:none;fill-rule:nonzero;fill:rgb(75.686275%,41.176471%,30.980392%);fill-opacity:1;" d="M 9.566406 8.617188 L 8.773438 8.617188 C 8.664062 8.617188 8.574219 8.527344 8.574219 8.417969 C 8.574219 8.308594 8.664062 8.21875 8.773438 8.21875 L 9.566406 8.21875 C 9.675781 8.21875 9.765625 8.308594 9.765625 8.417969 C 9.765625 8.527344 9.675781 8.617188 9.566406 8.617188 Z M 9.566406 8.617188 "/>
<path style=" stroke:none;fill-rule:nonzero;fill:rgb(40%,12.941176%,7.45098%);fill-opacity:1;" d="M 7.582031 7.226562 C 7.363281 7.226562 7.183594 7.046875 7.183594 6.828125 L 7.183594 6.429688 C 7.183594 6.210938 7.363281 6.035156 7.582031 6.035156 C 7.800781 6.035156 7.976562 6.210938 7.976562 6.429688 L 7.976562 6.828125 C 7.976562 7.046875 7.800781 7.226562 7.582031 7.226562 Z M 10.757812 7.226562 C 10.539062 7.226562 10.363281 7.046875 10.363281 6.828125 L 10.363281 6.429688 C 10.363281 6.210938 10.539062 6.035156 10.757812 6.035156 C 10.976562 6.035156 11.15625 6.210938 11.15625 6.429688 L 11.15625 6.828125 C 11.15625 7.046875 10.976562 7.226562 10.757812 7.226562 Z M 10.757812 7.226562 "/>
<path style=" stroke:none;fill-rule:nonzero;fill:rgb(75.686275%,41.176471%,30.980392%);fill-opacity:1;" d="M 9.222656 10.273438 C 8.074219 10.273438 7.722656 9.980469 7.664062 9.921875 C 7.558594 9.8125 7.558594 9.640625 7.664062 9.535156 C 7.765625 9.429688 7.933594 9.429688 8.039062 9.523438 C 8.0625 9.539062 8.339844 9.726562 9.222656 9.726562 C 10.140625 9.726562 10.402344 9.527344 10.40625 9.523438 C 10.511719 9.417969 10.679688 9.421875 10.785156 9.53125 C 10.894531 9.636719 10.886719 9.8125 10.78125 9.921875 C 10.722656 9.980469 10.371094 10.273438 9.222656 10.273438 "/>
<path style=" stroke:none;fill-rule:nonzero;fill:rgb(23.137255%,53.333333%,76.470588%);fill-opacity:1;" d="M 5.417969 11.667969 L 6.667969 11.667969 L 6.667969 15 L 5.417969 15 Z M 11.667969 11.667969 L 12.917969 11.667969 L 12.917969 15 L 11.667969 15 Z M 11.667969 11.667969 "/>
<path style=" stroke:none;fill-rule:nonzero;fill:rgb(23.137255%,53.333333%,76.470588%);fill-opacity:1;" d="M 5.46875 14.582031 L 12.917969 14.582031 L 12.917969 15 L 5.46875 15 Z M 5.46875 14.582031 "/>
<path style=" stroke:none;fill-rule:nonzero;fill:rgb(75.686275%,41.176471%,30.980392%);fill-opacity:1;" d="M 12.5 3.667969 C 12.5 4.214844 11.210938 4.582031 9.167969 4.582031 C 7.121094 4.582031 5.832031 4.214844 5.832031 3.667969 C 5.832031 2.1875 7.5 0 8.054688 0 C 8.609375 0 8.980469 0.734375 9.167969 0.734375 C 9.351562 0.734375 9.722656 0 10.277344 0 C 10.832031 0 12.5 2.1875 12.5 3.667969 Z M 12.5 3.667969 "/>
<path style=" stroke:none;fill-rule:nonzero;fill:rgb(75.686275%,41.176471%,30.980392%);fill-opacity:1;" d="M 14.976562 3.332031 C 14.976562 4.023438 13.515625 5.832031 9.140625 5.832031 C 4.765625 5.832031 3.308594 4.023438 3.308594 3.332031 C 3.308594 2.644531 6.152344 2.917969 9.140625 2.917969 C 12.132812 2.917969 14.976562 2.644531 14.976562 3.332031 Z M 14.976562 3.332031 "/>
<path style=" stroke:none;fill-rule:nonzero;fill:rgb(16.078431%,18.431373%,20%);fill-opacity:1;" d="M 12.5 3.667969 C 12.5 4.214844 11.210938 4.582031 9.167969 4.582031 C 7.121094 4.582031 5.832031 4.214844 5.832031 3.667969 C 5.832031 3.429688 5.875 3.175781 5.949219 2.917969 C 6.945312 3.75 11.390625 3.75 12.382812 2.917969 C 12.457031 3.179688 12.5 3.429688 12.5 3.667969 Z M 12.5 3.667969 "/>
<path style=" stroke:none;fill-rule:nonzero;fill:rgb(75.686275%,41.176471%,30.980392%);fill-opacity:1;" d="M 2.917969 13.230469 C 2.917969 12.941406 2.683594 12.707031 2.394531 12.707031 C 2.109375 12.707031 1.875 12.941406 1.875 13.230469 L 1.875 15 L 2.917969 15 Z M 2.917969 13.230469 "/>
<path style=" stroke:none;fill-rule:nonzero;fill:rgb(40%,45.882353%,49.803922%);fill-opacity:1;" d="M 4.167969 9.480469 C 4.167969 10.457031 3.375 11.25 2.394531 11.25 C 1.417969 11.25 0.625 10.457031 0.625 9.480469 C 0.625 9.441406 0 9.445312 0 9.480469 C 0 10.800781 1.074219 11.875 2.394531 11.875 C 3.71875 11.875 4.792969 10.800781 4.792969 9.480469 C 4.792969 9.445312 4.167969 9.441406 4.167969 9.480469 Z M 4.167969 9.480469 "/>
<path style=" stroke:none;fill-rule:nonzero;fill:rgb(40%,45.882353%,49.803922%);fill-opacity:1;" d="M 0.625 9.480469 C 0.625 9.652344 0.484375 9.792969 0.3125 9.792969 C 0.140625 9.792969 0 9.652344 0 9.480469 L 0 5.9375 C 0 5.765625 0.140625 5.625 0.3125 5.625 C 0.484375 5.625 0.625 5.765625 0.625 5.9375 Z M 4.792969 9.480469 C 4.792969 9.652344 4.652344 9.792969 4.480469 9.792969 C 4.308594 9.792969 4.167969 9.652344 4.167969 9.480469 L 4.167969 5.9375 C 4.167969 5.765625 4.308594 5.625 4.480469 5.625 C 4.652344 5.625 4.792969 5.765625 4.792969 5.9375 Z M 2.707031 12.917969 C 2.707031 13.089844 2.566406 13.230469 2.394531 13.230469 C 2.222656 13.230469 2.082031 13.089844 2.082031 12.917969 L 2.082031 5.9375 C 2.082031 5.765625 2.222656 5.625 2.394531 5.625 C 2.566406 5.625 2.707031 5.765625 2.707031 5.9375 Z M 2.707031 12.917969 "/>
</g>
</svg>
