<?xml version="1.0" encoding="UTF-8"?>
<svg xmlns="http://www.w3.org/2000/svg" xmlns:xlink="http://www.w3.org/1999/xlink" width="15pt" height="15pt" viewBox="0 0 15 15" version="1.1">
<g id="surface1">
<path style=" stroke:none;fill-rule:nonzero;fill:rgb(25.882353%,53.72549%,75.686275%);fill-opacity:1;" d="M 11.929688 12.734375 C 11.855469 12.140625 11.277344 11.929688 10.988281 11.929688 C 10.621094 11.929688 9.742188 12.390625 9.582031 11.6875 L 9.566406 11.609375 L 5.4375 11.605469 L 5.417969 11.683594 C 5.261719 12.394531 4.378906 11.929688 4.007812 11.929688 C 3.722656 11.929688 3.144531 12.140625 3.070312 12.734375 C 3.070312 12.734375 5.886719 13.75 7.5 13.75 C 9.113281 13.75 11.929688 12.734375 11.929688 12.734375 Z M 11.929688 12.734375 "/>
<path style=" stroke:none;fill-rule:nonzero;fill:rgb(48.627451%,32.54902%,24.313725%);fill-opacity:1;" d="M 5.207031 6.675781 C 4.925781 6.621094 4.652344 7.222656 4.59375 7.503906 L 4.101562 9.589844 C 3.429688 10.078125 3.449219 11.03125 2.933594 11.472656 C 2.859375 11.53125 2.535156 11.789062 2.429688 12.023438 C 2.292969 12.332031 2.523438 12.207031 2.449219 12.3125 C 2.28125 12.558594 2.277344 12.929688 2.398438 13.015625 L 2.550781 13.058594 C 2.785156 13.226562 3.417969 12.5 3.503906 12.097656 C 3.628906 11.496094 4.785156 10.746094 5 10.160156 C 5 10.152344 5 10.148438 5.003906 10.140625 C 5.042969 10.082031 5.074219 10.019531 5.089844 9.945312 L 5.617188 7.289062 C 5.671875 7.007812 5.488281 6.734375 5.207031 6.675781 Z M 12.535156 12.339844 C 12.464844 12.234375 12.71875 12.332031 12.578125 12.023438 C 12.472656 11.789062 12.125 11.53125 12.054688 11.472656 C 11.535156 11.027344 11.582031 10.066406 10.894531 9.582031 L 10.40625 7.503906 C 10.347656 7.222656 10.074219 6.621094 9.792969 6.675781 C 9.511719 6.734375 9.328125 7.007812 9.382812 7.289062 L 9.910156 9.945312 C 9.925781 10.027344 9.960938 10.09375 10.007812 10.15625 L 10.011719 10.160156 C 10.222656 10.746094 11.378906 11.496094 11.503906 12.097656 C 11.589844 12.503906 12.222656 13.226562 12.457031 13.058594 L 12.613281 13.015625 C 12.734375 12.929688 12.707031 12.582031 12.535156 12.339844 Z M 12.535156 12.339844 "/>
<path style=" stroke:none;fill-rule:nonzero;fill:rgb(48.627451%,32.54902%,24.313725%);fill-opacity:1;" d="M 9.480469 14.925781 C 9.046875 14.960938 8.640625 14.839844 8.230469 14.925781 C 8.035156 14.9375 7.898438 14.925781 7.699219 14.75 C 7.503906 14.578125 4.246094 14.121094 3.652344 13.722656 C 3.378906 13.542969 2.960938 13.082031 3.070312 12.699219 C 3.179688 12.316406 3.546875 12.101562 3.988281 12.089844 C 4.847656 12.070312 6.488281 13.316406 7.675781 13.773438 C 7.890625 13.859375 8.070312 13.753906 8.34375 13.824219 C 8.628906 13.898438 9.308594 13.59375 9.65625 13.636719 C 10.125 13.699219 10.3125 13.921875 10.273438 14.308594 C 10.234375 14.710938 9.914062 14.886719 9.480469 14.925781 Z M 9.480469 14.925781 "/>
<path style=" stroke:none;fill-rule:nonzero;fill:rgb(40%,25.490196%,19.215686%);fill-opacity:1;" d="M 9.480469 14.925781 C 9.046875 14.960938 8.640625 14.839844 8.230469 14.925781 C 8.035156 14.9375 7.898438 14.925781 7.699219 14.75 C 7.503906 14.578125 8.070312 13.753906 8.34375 13.824219 C 8.628906 13.898438 9.308594 13.59375 9.65625 13.636719 C 10.125 13.699219 10.3125 13.921875 10.273438 14.304688 C 10.234375 14.710938 9.914062 14.886719 9.480469 14.925781 Z M 4.664062 13.835938 C 4.765625 13.574219 5.160156 13.464844 5.347656 13.441406 C 5.53125 13.414062 5.839844 13.527344 6.050781 13.613281 C 6.261719 13.699219 6.515625 13.710938 6.679688 13.648438 C 6.839844 13.585938 6.957031 13.597656 7.078125 13.648438 C 7.109375 13.664062 7.253906 13.648438 7.304688 13.621094 C 7.304688 13.621094 8.050781 13.878906 7.777344 13.964844 C 7.503906 14.050781 5.519531 14.183594 5.246094 14.183594 C 4.976562 14.183594 4.664062 13.835938 4.664062 13.835938 Z M 4.664062 13.835938 "/>
<path style=" stroke:none;fill-rule:nonzero;fill:rgb(40%,25.490196%,19.215686%);fill-opacity:1;" d="M 3.070312 12.699219 C 3.074219 12.6875 3.078125 12.683594 3.082031 12.675781 C 3.164062 12.992188 3.398438 13.367188 3.664062 13.464844 C 4 13.589844 6.683594 14.378906 7.019531 14.417969 C 7.351562 14.453125 7.847656 14.503906 7.945312 14.578125 C 8.046875 14.652344 8.304688 14.679688 8.515625 14.628906 C 8.726562 14.578125 9.257812 14.777344 9.53125 14.714844 C 9.800781 14.652344 10.199219 14.53125 10.273438 14.195312 C 10.273438 14.1875 10.277344 14.1875 10.277344 14.179688 C 10.277344 14.222656 10.277344 14.261719 10.273438 14.308594 C 10.234375 14.714844 9.914062 14.890625 9.484375 14.925781 C 9.050781 14.964844 8.640625 14.839844 8.234375 14.925781 C 8.035156 14.9375 7.898438 14.925781 7.699219 14.753906 C 7.503906 14.578125 4.246094 14.121094 3.652344 13.726562 C 3.378906 13.542969 2.960938 13.082031 3.070312 12.699219 Z M 3.070312 12.699219 "/>
<path style=" stroke:none;fill-rule:nonzero;fill:rgb(48.627451%,32.54902%,24.313725%);fill-opacity:1;" d="M 5.519531 14.925781 C 5.953125 14.960938 6.359375 14.839844 6.769531 14.925781 C 6.964844 14.9375 7.101562 14.925781 7.300781 14.75 C 7.496094 14.578125 10.753906 14.121094 11.347656 13.722656 C 11.621094 13.542969 12.039062 13.082031 11.929688 12.699219 C 11.820312 12.316406 11.453125 12.101562 11.011719 12.089844 C 10.152344 12.070312 8.511719 13.316406 7.324219 13.773438 C 7.109375 13.859375 6.929688 13.753906 6.65625 13.824219 C 6.371094 13.898438 5.691406 13.59375 5.34375 13.636719 C 4.875 13.699219 4.6875 13.921875 4.726562 14.308594 C 4.765625 14.710938 5.085938 14.886719 5.519531 14.925781 Z M 5.519531 14.925781 "/>
<path style=" stroke:none;fill-rule:nonzero;fill:rgb(46.666667%,69.803922%,33.333333%);fill-opacity:1;" d="M 9.394531 6.25 L 5.617188 6.25 C 4.550781 6.25 4.390625 8.082031 4.390625 8.082031 L 5.414062 8.304688 C 5.414062 8.304688 5.546875 9.800781 5.527344 10.5 C 5.511719 11.199219 5.417969 11.667969 5.417969 11.667969 C 5.417969 11.667969 6.214844 11.832031 7.5 11.832031 C 8.785156 11.832031 9.582031 11.667969 9.582031 11.667969 C 9.582031 11.667969 9.4375 10.996094 9.4375 10.425781 C 9.4375 9.855469 9.582031 8.304688 9.582031 8.304688 L 10.605469 8.082031 C 10.605469 8.082031 10.460938 6.25 9.394531 6.25 Z M 9.394531 6.25 "/>
<path style=" stroke:none;fill-rule:nonzero;fill:rgb(48.627451%,32.54902%,24.313725%);fill-opacity:1;" d="M 6.527344 4.328125 L 6.527344 6.273438 C 6.527344 6.402344 6.757812 6.894531 7.5 6.894531 C 8.242188 6.894531 8.472656 6.386719 8.472656 6.273438 L 8.472656 4.328125 Z M 6.527344 4.328125 "/>
<path style=" stroke:none;fill-rule:nonzero;fill:rgb(40%,25.490196%,19.215686%);fill-opacity:1;" d="M 8.472656 4.074219 L 6.527344 4.082031 L 6.527344 6.015625 C 6.527344 6.015625 7.5 6.503906 8.472656 6.015625 Z M 8.472656 4.074219 "/>
<path style=" stroke:none;fill-rule:nonzero;fill:rgb(48.627451%,32.54902%,24.313725%);fill-opacity:1;" d="M 9.5625 1.652344 L 5.4375 1.652344 L 5.4375 3.917969 C 5.4375 5.058594 6.359375 5.980469 7.5 5.980469 C 8.640625 5.980469 9.5625 5.058594 9.5625 3.917969 Z M 9.5625 1.652344 "/>
<path style=" stroke:none;fill-rule:nonzero;fill:rgb(23.921569%,18.039216%,14.117647%);fill-opacity:1;" d="M 8.324219 5.023438 L 6.675781 5.023438 C 6.675781 5.023438 6.675781 5.4375 7.5 5.4375 C 8.324219 5.4375 8.324219 5.023438 8.324219 5.023438 Z M 6.769531 3.644531 L 6.144531 3.644531 C 6.089844 3.644531 6.042969 3.597656 6.042969 3.542969 C 6.042969 3.484375 6.089844 3.4375 6.144531 3.4375 L 6.769531 3.4375 C 6.828125 3.4375 6.875 3.484375 6.875 3.542969 C 6.875 3.597656 6.828125 3.644531 6.769531 3.644531 Z M 8.855469 3.644531 L 8.230469 3.644531 C 8.171875 3.644531 8.125 3.597656 8.125 3.542969 C 8.125 3.484375 8.171875 3.4375 8.230469 3.4375 L 8.855469 3.4375 C 8.910156 3.4375 8.957031 3.484375 8.957031 3.542969 C 8.957031 3.597656 8.910156 3.644531 8.855469 3.644531 Z M 7.085938 4.199219 L 7.914062 4.199219 C 7.914062 4.199219 7.914062 4.609375 7.5 4.609375 C 7.085938 4.609375 7.085938 4.199219 7.085938 4.199219 Z M 7.085938 4.199219 "/>
<path style=" stroke:none;fill-rule:nonzero;fill:rgb(4.313725%,0.784314%,0%);fill-opacity:1;" d="M 7.5 0.398438 C 8.910156 0.398438 9.792969 1.472656 9.792969 2.367188 C 9.792969 3.261719 9.617188 3.621094 9.4375 3.261719 L 9.085938 2.546875 C 9.085938 2.546875 8.027344 2.546875 7.675781 2.1875 C 7.675781 2.1875 8.207031 3.261719 7.148438 2.1875 C 7.148438 2.1875 7.324219 2.90625 6.265625 2.007812 C 6.265625 2.007812 5.738281 2.367188 5.5625 3.261719 C 5.511719 3.511719 5.210938 3.261719 5.210938 2.367188 C 5.207031 1.472656 5.914062 0.398438 7.5 0.398438 "/>
</g>
</svg>
