<?xml version="1.0" encoding="UTF-8"?>
<svg xmlns="http://www.w3.org/2000/svg" xmlns:xlink="http://www.w3.org/1999/xlink" width="15pt" height="15pt" viewBox="0 0 15 15" version="1.1">
<g id="surface1">
<path style=" stroke:none;fill-rule:nonzero;fill:rgb(4.313725%,0.784314%,0%);fill-opacity:1;" d="M 3.332031 5.832031 C 3.332031 5.832031 2.917969 11.667969 2.917969 13.75 L 7.5 13.75 L 7.5 5.417969 Z M 11.667969 5.832031 C 11.667969 5.832031 12.082031 11.667969 12.082031 13.75 L 7.5 13.75 L 7.5 5.417969 Z M 11.667969 5.832031 "/>
<path style=" stroke:none;fill-rule:nonzero;fill:rgb(4.313725%,0.784314%,0%);fill-opacity:1;" d="M 7.5 5 L 7.5 1.667969 C 5.417969 1.667969 3.332031 2.917969 3.332031 5.417969 C 3.332031 7.917969 4.398438 5.789062 4.582031 5.417969 C 5.417969 3.75 6.667969 5 7.5 5 Z M 7.5 5 L 7.5 1.667969 C 9.582031 1.667969 11.667969 2.917969 11.667969 5.417969 C 11.667969 7.917969 10.601562 5.789062 10.417969 5.417969 C 9.582031 3.75 8.332031 5 7.5 5 Z M 7.5 5 "/>
<path style=" stroke:none;fill-rule:nonzero;fill:rgb(23.137255%,53.333333%,76.470588%);fill-opacity:1;" d="M 13.332031 15 L 13.332031 14.167969 C 13.332031 12.785156 12.214844 11.667969 10.832031 11.667969 L 4.167969 11.667969 C 2.785156 11.667969 1.667969 12.785156 1.667969 14.167969 L 1.667969 15 Z M 13.332031 15 "/>
<path style=" stroke:none;fill-rule:nonzero;fill:rgb(48.627451%,32.54902%,24.313725%);fill-opacity:1;" d="M 5.683594 11.707031 C 6.410156 12.238281 6.871094 12.527344 7.5 12.527344 C 8.128906 12.527344 8.589844 12.234375 9.316406 11.707031 L 9.316406 10.121094 L 5.683594 10.121094 Z M 5.683594 11.707031 "/>
<path style=" stroke:none;fill-rule:nonzero;fill:rgb(40%,25.490196%,19.215686%);fill-opacity:1;" d="M 5.679688 10.820312 C 6.1875 11.394531 6.816406 11.550781 7.5 11.550781 C 8.179688 11.550781 8.808594 11.394531 9.316406 10.820312 L 9.316406 9.367188 L 5.679688 9.367188 Z M 5.679688 10.820312 "/>
<path style=" stroke:none;fill-rule:nonzero;fill:rgb(48.627451%,32.54902%,24.313725%);fill-opacity:1;" d="M 3.949219 7.066406 C 3.949219 4.738281 5.539062 2.847656 7.5 2.847656 C 9.460938 2.847656 11.050781 4.738281 11.050781 7.066406 C 11.050781 9.394531 9.460938 11.285156 7.5 11.285156 C 5.539062 11.285156 3.949219 9.394531 3.949219 7.066406 Z M 3.949219 7.066406 "/>
<path style=" stroke:none;fill-rule:nonzero;fill:rgb(23.921569%,18.039216%,14.117647%);fill-opacity:1;" d="M 7.5 9.917969 C 6.351562 9.917969 6 9.625 5.941406 9.5625 C 5.835938 9.457031 5.835938 9.285156 5.941406 9.179688 C 6.042969 9.074219 6.210938 9.070312 6.316406 9.167969 C 6.339844 9.183594 6.617188 9.371094 7.5 9.371094 C 8.417969 9.371094 8.683594 9.167969 8.683594 9.167969 C 8.789062 9.058594 8.957031 9.066406 9.066406 9.171875 C 9.171875 9.277344 9.164062 9.457031 9.058594 9.5625 C 9 9.625 8.648438 9.917969 7.5 9.917969 Z M 7.5 9.917969 "/>
<path style=" stroke:none;fill-rule:nonzero;fill:rgb(0%,0%,0%);fill-opacity:1;" d="M 5.832031 7.082031 C 5.605469 7.082031 5.417969 6.894531 5.417969 6.667969 L 5.417969 6.25 C 5.417969 6.019531 5.605469 5.832031 5.832031 5.832031 C 6.0625 5.832031 6.25 6.019531 6.25 6.25 L 6.25 6.667969 C 6.25 6.894531 6.0625 7.082031 5.832031 7.082031 Z M 9.167969 7.082031 C 8.9375 7.082031 8.75 6.894531 8.75 6.667969 L 8.75 6.25 C 8.75 6.019531 8.9375 5.832031 9.167969 5.832031 C 9.394531 5.832031 9.582031 6.019531 9.582031 6.25 L 9.582031 6.667969 C 9.582031 6.894531 9.394531 7.082031 9.167969 7.082031 Z M 9.167969 7.082031 "/>
<path style=" stroke:none;fill-rule:nonzero;fill:rgb(23.921569%,18.039216%,14.117647%);fill-opacity:1;" d="M 7.8125 8.230469 L 7.1875 8.230469 C 7.015625 8.230469 6.875 8.089844 6.875 7.917969 C 6.875 7.746094 7.015625 7.605469 7.1875 7.605469 L 7.8125 7.605469 C 7.984375 7.605469 8.125 7.746094 8.125 7.917969 C 8.125 8.089844 7.984375 8.230469 7.8125 8.230469 Z M 7.8125 8.230469 "/>
<path style=" stroke:none;fill-rule:nonzero;fill:rgb(48.627451%,32.54902%,24.313725%);fill-opacity:1;" d="M 3.332031 5.949219 L 4.113281 6.71875 C 4.113281 6.71875 4.609375 8.136719 4.113281 8.386719 C 3 8.941406 2.082031 6.089844 2.082031 5.535156 C 2.082031 5.117188 3.332031 5.949219 3.332031 5.949219 Z M 11.414062 5.949219 L 10.636719 6.71875 C 10.636719 6.71875 10.140625 8.136719 10.636719 8.386719 C 11.746094 8.941406 12.917969 6.089844 12.917969 5.535156 C 12.917969 5.117188 11.414062 5.949219 11.414062 5.949219 Z M 11.414062 5.949219 "/>
<path style=" stroke:none;fill-rule:nonzero;fill:rgb(4.313725%,0.784314%,0%);fill-opacity:1;" d="M 7.5 1.667969 C 5.417969 1.667969 3.75 2.917969 3.75 5.417969 C 3.75 7.917969 4.398438 5.789062 4.582031 5.417969 C 5.417969 3.75 6.667969 4.167969 7.5 4.167969 C 8.332031 4.167969 9.582031 3.75 10.417969 5.417969 C 10.601562 5.789062 11.25 7.917969 11.25 5.417969 C 11.25 2.917969 9.582031 1.667969 7.5 1.667969 Z M 7.5 1.667969 "/>
<path style=" stroke:none;fill-rule:nonzero;fill:rgb(4.313725%,0.784314%,0%);fill-opacity:1;" d="M 3.75 5.417969 L 3.332031 15 L 5 15 C 5 15 3.90625 6.464844 4.582031 5.417969 C 4.875 4.964844 3.75 5.417969 3.75 5.417969 Z M 11.273438 5.417969 L 11.691406 15 L 10 15 C 10 15 11.117188 6.464844 10.441406 5.417969 C 10.148438 4.964844 11.273438 5.417969 11.273438 5.417969 Z M 11.273438 5.417969 "/>
</g>
</svg>
