<?xml version="1.0" encoding="UTF-8"?>
<svg xmlns="http://www.w3.org/2000/svg" xmlns:xlink="http://www.w3.org/1999/xlink" width="15pt" height="15pt" viewBox="0 0 15 15" version="1.1">
<g id="surface1">
<path style=" stroke:none;fill-rule:nonzero;fill:rgb(100%,89.803922%,11.764706%);fill-opacity:1;" d="M 9.578125 0.265625 C 8.503906 -0.0820312 5.976562 0.0117188 5.34375 0.835938 C 3.699219 0.867188 1.773438 2.351562 1.519531 4.308594 C 1.269531 6.25 1.828125 7.148438 2.023438 8.609375 C 2.25 10.261719 3.179688 10.789062 3.921875 11.011719 C 4.988281 12.421875 6.125 12.359375 8.03125 12.359375 C 11.753906 12.359375 13.527344 9.871094 13.6875 5.636719 C 13.78125 3.078125 12.277344 1.140625 9.578125 0.265625 Z M 9.578125 0.265625 "/>
<path style=" stroke:none;fill-rule:nonzero;fill:rgb(95.294118%,82.352941%,63.529412%);fill-opacity:1;" d="M 11.707031 5.816406 C 11.347656 5.320312 10.886719 4.917969 9.875 4.777344 C 10.253906 4.949219 10.617188 5.550781 10.664062 5.882812 C 10.710938 6.214844 10.757812 6.480469 10.457031 6.148438 C 9.257812 4.820312 7.945312 5.34375 6.648438 4.53125 C 5.742188 3.964844 5.464844 3.335938 5.464844 3.335938 C 5.464844 3.335938 5.355469 4.175781 3.980469 5.027344 C 3.582031 5.277344 3.105469 5.828125 2.84375 6.640625 C 2.652344 7.222656 2.710938 7.746094 2.710938 8.636719 C 2.710938 11.238281 4.855469 13.425781 7.5 13.425781 C 10.144531 13.425781 12.285156 11.21875 12.285156 8.636719 C 12.289062 7.019531 12.117188 6.386719 11.707031 5.816406 Z M 11.707031 5.816406 "/>
<path style=" stroke:none;fill-rule:nonzero;fill:rgb(100%,89.803922%,11.764706%);fill-opacity:1;" d="M 11.40625 10.074219 C 10.972656 10.53125 10.105469 11.449219 9.234375 10.988281 C 8.007812 10.339844 7.5 10.53125 7.5 10.53125 C 7.5 10.53125 6.992188 10.339844 5.765625 10.988281 C 4.894531 11.449219 4.027344 10.53125 3.59375 10.074219 C 3.285156 9.75 2.292969 9.15625 2.292969 10.074219 C 2.292969 11.449219 3.160156 12.363281 3.160156 12.363281 C 4.027344 14.65625 5.765625 14.65625 5.765625 14.65625 C 6.199219 15.113281 8.800781 15.113281 9.234375 14.65625 C 9.234375 14.65625 10.972656 14.65625 11.839844 12.363281 C 11.839844 12.363281 12.707031 11.449219 12.707031 10.074219 C 12.707031 9.15625 11.714844 9.75 11.40625 10.074219 Z M 11.40625 10.074219 "/>
<path style=" stroke:none;fill-rule:nonzero;fill:rgb(95.294118%,82.352941%,63.529412%);fill-opacity:1;" d="M 7.5 12.363281 C 5.765625 12.363281 4.460938 11.449219 7.5 11.449219 C 10.539062 11.449219 9.234375 12.363281 7.5 12.363281 Z M 7.5 12.363281 "/>
<path style=" stroke:none;fill-rule:nonzero;fill:rgb(75.686275%,41.176471%,30.980392%);fill-opacity:1;" d="M 8.03125 9.96875 L 6.96875 9.96875 C 6.820312 9.96875 6.703125 9.847656 6.703125 9.703125 C 6.703125 9.554688 6.820312 9.433594 6.96875 9.433594 L 8.03125 9.433594 C 8.179688 9.433594 8.296875 9.554688 8.296875 9.703125 C 8.296875 9.847656 8.179688 9.96875 8.03125 9.96875 Z M 8.03125 9.96875 "/>
<path style=" stroke:none;fill-rule:nonzero;fill:rgb(40%,12.941176%,7.45098%);fill-opacity:1;" d="M 5.371094 8.105469 C 5.078125 8.105469 4.839844 7.867188 4.839844 7.574219 L 4.839844 7.042969 C 4.839844 6.746094 5.078125 6.507812 5.371094 6.507812 C 5.664062 6.507812 5.902344 6.746094 5.902344 7.042969 L 5.902344 7.574219 C 5.902344 7.867188 5.664062 8.105469 5.371094 8.105469 Z M 9.628906 8.105469 C 9.332031 8.105469 9.09375 7.867188 9.09375 7.574219 L 9.09375 7.042969 C 9.09375 6.746094 9.332031 6.507812 9.628906 6.507812 C 9.921875 6.507812 10.160156 6.746094 10.160156 7.042969 L 10.160156 7.574219 C 10.160156 7.867188 9.921875 8.105469 9.628906 8.105469 Z M 9.628906 8.105469 "/>
</g>
</svg>
