<?xml version="1.0" encoding="UTF-8"?>
<svg xmlns="http://www.w3.org/2000/svg" xmlns:xlink="http://www.w3.org/1999/xlink" width="15pt" height="15pt" viewBox="0 0 15 15" version="1.1">
<g id="surface1">
<path style=" stroke:none;fill-rule:nonzero;fill:rgb(100%,86.27451%,36.470588%);fill-opacity:1;" d="M 12.292969 6.621094 C 11.835938 3.414062 9.746094 1.984375 7.5 1.984375 C 5.253906 1.984375 3.164062 3.414062 2.707031 6.621094 C 2.132812 6.621094 1.667969 7.367188 1.667969 8.285156 C 1.667969 9.164062 2.09375 9.875 2.628906 9.941406 C 3.140625 12.710938 5.125 14.328125 7.5 14.328125 C 9.875 14.328125 11.859375 12.710938 12.367188 9.941406 C 12.90625 9.875 13.332031 9.164062 13.332031 8.285156 C 13.332031 7.367188 12.867188 6.621094 12.292969 6.621094 Z M 12.292969 6.621094 "/>
<path style=" stroke:none;fill-rule:nonzero;fill:rgb(75.686275%,41.176471%,30.980392%);fill-opacity:1;" d="M 7.5 12.917969 C 6.523438 12.917969 6.011719 12.433594 5.957031 12.378906 C 5.792969 12.214844 5.792969 11.953125 5.957031 11.789062 C 6.117188 11.628906 6.378906 11.625 6.539062 11.785156 C 6.5625 11.804688 6.875 12.082031 7.5 12.082031 C 8.132812 12.082031 8.445312 11.796875 8.460938 11.785156 C 8.625 11.628906 8.886719 11.632812 9.046875 11.796875 C 9.203125 11.960938 9.207031 12.21875 9.042969 12.378906 C 8.988281 12.433594 8.476562 12.917969 7.5 12.917969 Z M 7.917969 10.832031 L 7.082031 10.832031 C 6.851562 10.832031 6.667969 10.648438 6.667969 10.417969 C 6.667969 10.1875 6.851562 10 7.082031 10 L 7.917969 10 C 8.148438 10 8.332031 10.1875 8.332031 10.417969 C 8.332031 10.648438 8.148438 10.832031 7.917969 10.832031 Z M 7.917969 10.832031 "/>
<path style=" stroke:none;fill-rule:nonzero;fill:rgb(40%,12.941176%,7.45098%);fill-opacity:1;" d="M 5.417969 9.167969 C 5.1875 9.167969 5 8.980469 5 8.75 L 5 7.917969 C 5 7.6875 5.1875 7.5 5.417969 7.5 C 5.648438 7.5 5.832031 7.6875 5.832031 7.917969 L 5.832031 8.75 C 5.832031 8.980469 5.648438 9.167969 5.417969 9.167969 Z M 9.582031 9.167969 C 9.351562 9.167969 9.167969 8.980469 9.167969 8.75 L 9.167969 7.917969 C 9.167969 7.6875 9.351562 7.5 9.582031 7.5 C 9.8125 7.5 10 7.6875 10 7.917969 L 10 8.75 C 10 8.980469 9.8125 9.167969 9.582031 9.167969 Z M 9.582031 9.167969 "/>
</g>
</svg>
