<?xml version="1.0" encoding="UTF-8"?>
<svg xmlns="http://www.w3.org/2000/svg" xmlns:xlink="http://www.w3.org/1999/xlink" width="15pt" height="15pt" viewBox="0 0 15 15" version="1.1">
<g id="surface1">
<path style=" stroke:none;fill-rule:nonzero;fill:rgb(96.862745%,87.058824%,80.784314%);fill-opacity:1;" d="M 5.667969 10.832031 L 12.332031 10.832031 L 12.332031 15 L 5.667969 15 Z M 5.667969 10.832031 "/>
<path style=" stroke:none;fill-rule:nonzero;fill:rgb(16.078431%,18.431373%,20%);fill-opacity:1;" d="M 12.332031 10.832031 L 12.332031 15 L 14.832031 15 L 14.832031 13.332031 C 14.832031 11.953125 13.714844 10.832031 12.332031 10.832031 Z M 5.667969 10.832031 C 4.285156 10.832031 3.167969 11.953125 3.167969 13.332031 L 3.167969 15 L 5.667969 15 Z M 5.667969 10.832031 "/>
<path style=" stroke:none;fill-rule:nonzero;fill:rgb(100%,47.058824%,38.431373%);fill-opacity:1;" d="M 9.078125 15 L 12.828125 15 L 14.945312 12.113281 C 14.945312 12.113281 13.554688 10.5625 10.875 10.050781 C 10.875 10.59375 11.285156 11.441406 11.285156 11.441406 L 9.078125 14.363281 Z M 9.078125 15 "/>
<path style=" stroke:none;fill-rule:nonzero;fill:rgb(100%,47.058824%,38.431373%);fill-opacity:1;" d="M 9.078125 15 L 5.324219 15 L 3.207031 12.113281 C 3.207031 12.113281 4.597656 10.5625 7.277344 10.050781 C 7.277344 10.59375 6.867188 11.441406 6.867188 11.441406 L 9.078125 14.363281 Z M 9.078125 15 "/>
<path style=" stroke:none;fill-rule:nonzero;fill:rgb(87.058824%,18.431373%,20%);fill-opacity:1;" d="M 13.972656 11.289062 C 13.972656 11.289062 12.949219 10.59375 12.03125 10.269531 C 10.757812 9.816406 11.042969 11.078125 11.042969 11.078125 C 11.042969 11.078125 9.453125 13.757812 9.078125 14.363281 C 9.078125 14.363281 12.007812 12.054688 13.972656 11.289062 Z M 4.179688 11.289062 C 4.179688 11.289062 5.203125 10.59375 6.121094 10.269531 C 7.394531 9.816406 7.109375 11.078125 7.109375 11.078125 C 7.109375 11.078125 8.703125 13.757812 9.078125 14.363281 C 9.078125 14.363281 6.144531 12.054688 4.179688 11.289062 Z M 4.179688 11.289062 "/>
<path style=" stroke:none;fill-rule:nonzero;fill:rgb(100%,33.333333%,25.098039%);fill-opacity:1;" d="M 9.078125 14.402344 C 9.078125 14.402344 12.132812 11.285156 14.128906 10.921875 C 12.425781 9.496094 9.910156 9.652344 9.910156 9.652344 C 9.910156 10.164062 10.738281 10.222656 10.738281 10.855469 C 10.738281 11.890625 9.449219 13.648438 9.078125 14.214844 Z M 9.078125 14.402344 "/>
<path style=" stroke:none;fill-rule:nonzero;fill:rgb(100%,33.333333%,25.098039%);fill-opacity:1;" d="M 9.074219 14.402344 C 9.074219 14.402344 6.019531 11.285156 4.023438 10.921875 C 5.726562 9.496094 8.242188 9.652344 8.242188 9.652344 C 8.242188 10.164062 7.414062 10.222656 7.414062 10.855469 C 7.414062 11.890625 8.703125 13.648438 9.078125 14.214844 Z M 9.074219 14.402344 "/>
<path style=" stroke:none;fill-rule:nonzero;fill:rgb(96.862745%,87.058824%,80.784314%);fill-opacity:1;" d="M 7.410156 10.832031 C 7.410156 10.832031 7.617188 12.292969 9.074219 12.292969 C 10.535156 12.292969 10.742188 10.832031 10.742188 10.832031 L 10.742188 9.167969 L 7.410156 9.167969 Z M 7.410156 10.832031 "/>
<path style=" stroke:none;fill-rule:nonzero;fill:rgb(93.333333%,76.078431%,67.843137%);fill-opacity:1;" d="M 7.410156 10 C 7.914062 10.574219 8.390625 10.714844 9.074219 10.714844 C 9.757812 10.714844 10.234375 10.570312 10.742188 10 L 10.742188 9.324219 L 7.410156 9.324219 Z M 7.410156 10 "/>
<path style=" stroke:none;fill-rule:nonzero;fill:rgb(100%,37.647059%,36.862745%);fill-opacity:1;" d="M 14.042969 4.972656 C 14.128906 4.171875 13.988281 3.324219 13.101562 2.714844 L 13.097656 2.710938 C 13.410156 2.792969 13.734375 2.953125 14.027344 3.28125 C 13.488281 1.703125 11.851562 0.753906 10.148438 0.480469 C 9.292969 0.300781 7.902344 0.40625 7.472656 0.964844 C 6.246094 0.988281 5.226562 2.113281 4.972656 3.550781 C 4.785156 4.636719 5.054688 6.390625 5.53125 7.1875 C 6.175781 8.253906 6.542969 6.582031 7.097656 6.746094 C 7.894531 7.800781 8.058594 9.570312 9.480469 9.570312 C 12.191406 9.570312 13.285156 7.800781 13.449219 4.78125 C 13.503906 5.003906 13.550781 5.234375 13.625 5.484375 C 13.808594 6.082031 14.382812 6.144531 14.382812 6.144531 C 14.382812 6.144531 13.953125 5.800781 14.042969 4.972656 Z M 14.042969 4.972656 "/>
<path style=" stroke:none;fill-rule:nonzero;fill:rgb(96.862745%,87.058824%,80.784314%);fill-opacity:1;" d="M 12.226562 4.683594 C 11.957031 4.3125 11.613281 4.011719 10.859375 3.90625 C 11.140625 4.035156 11.410156 4.484375 11.449219 4.730469 C 11.484375 4.980469 11.519531 5.179688 11.292969 4.933594 C 10.394531 3.941406 9.417969 4.332031 8.449219 3.722656 C 7.773438 3.300781 7.566406 2.832031 7.566406 2.832031 C 7.566406 2.832031 7.484375 3.457031 6.457031 4.09375 C 6.160156 4.277344 5.804688 4.691406 5.609375 5.296875 C 5.46875 5.734375 5.511719 6.125 5.511719 6.789062 C 5.511719 8.730469 7.113281 10.363281 9.085938 10.363281 C 11.058594 10.363281 12.660156 8.714844 12.660156 6.789062 C 12.660156 5.582031 12.53125 5.109375 12.226562 4.683594 Z M 12.226562 4.683594 "/>
<path style=" stroke:none;fill-rule:nonzero;fill:rgb(86.666667%,18.431373%,27.058824%);fill-opacity:1;" d="M 6.335938 9.058594 L 9.269531 5.542969 L 8.105469 5.796875 L 9.316406 4.0625 C 9.027344 3.996094 8.738281 3.90625 8.449219 3.722656 C 7.949219 3.410156 7.707031 3.074219 7.613281 2.917969 L 5.71875 7.597656 C 5.738281 7.660156 5.761719 7.722656 5.78125 7.785156 L 6.597656 7.449219 L 6.085938 8.714844 C 6.160156 8.832031 6.246094 8.949219 6.335938 9.058594 Z M 6.335938 9.058594 "/>
<path style=" stroke:none;fill-rule:nonzero;fill:rgb(75.686275%,41.176471%,30.980392%);fill-opacity:1;" d="M 9.480469 7.78125 L 8.6875 7.78125 C 8.578125 7.78125 8.488281 7.691406 8.488281 7.582031 C 8.488281 7.472656 8.578125 7.382812 8.6875 7.382812 L 9.480469 7.382812 C 9.589844 7.382812 9.679688 7.472656 9.679688 7.582031 C 9.679688 7.691406 9.589844 7.78125 9.480469 7.78125 Z M 9.480469 7.78125 "/>
<path style=" stroke:none;fill-rule:nonzero;fill:rgb(40%,12.941176%,7.45098%);fill-opacity:1;" d="M 7.496094 6.390625 C 7.277344 6.390625 7.097656 6.214844 7.097656 5.996094 L 7.097656 5.597656 C 7.097656 5.378906 7.277344 5.199219 7.496094 5.199219 C 7.714844 5.199219 7.894531 5.378906 7.894531 5.597656 L 7.894531 5.996094 C 7.894531 6.214844 7.714844 6.390625 7.496094 6.390625 Z M 10.671875 6.390625 C 10.453125 6.390625 10.277344 6.214844 10.277344 5.996094 L 10.277344 5.597656 C 10.277344 5.378906 10.453125 5.199219 10.671875 5.199219 C 10.890625 5.199219 11.070312 5.378906 11.070312 5.597656 L 11.070312 5.996094 C 11.070312 6.214844 10.890625 6.390625 10.671875 6.390625 Z M 10.671875 6.390625 "/>
<path style=" stroke:none;fill-rule:nonzero;fill:rgb(75.686275%,41.176471%,30.980392%);fill-opacity:1;" d="M 9.136719 9.441406 C 7.988281 9.441406 7.636719 9.148438 7.578125 9.085938 C 7.472656 8.980469 7.472656 8.808594 7.578125 8.699219 C 7.683594 8.597656 7.847656 8.59375 7.953125 8.691406 C 7.976562 8.707031 8.253906 8.894531 9.136719 8.894531 C 10.054688 8.894531 10.320312 8.691406 10.320312 8.691406 C 10.429688 8.582031 10.59375 8.589844 10.703125 8.695312 C 10.808594 8.804688 10.800781 8.980469 10.695312 9.085938 C 10.636719 9.148438 10.285156 9.441406 9.136719 9.441406 "/>
<path style=" stroke:none;fill-rule:nonzero;fill:rgb(25.882353%,25.490196%,26.27451%);fill-opacity:1;" d="M 4.316406 8.332031 C 3.613281 8.332031 3.039062 8.90625 3.039062 9.613281 C 3.039062 9.8125 3.089844 9.996094 3.171875 10.164062 L 3.074219 10.070312 C 2.929688 9.925781 2.703125 9.933594 2.566406 10.089844 L 0.28125 12.679688 C 0.0546875 12.941406 -0.0507812 13.363281 0.285156 13.703125 C 0.625 14.039062 1.039062 13.941406 1.308594 13.707031 L 1.679688 13.367188 L 1.679688 15 L 2.421875 15 L 2.421875 12.6875 L 3.859375 11.378906 C 4.011719 11.242188 4.023438 11.019531 3.878906 10.875 L 3.765625 10.761719 C 3.933594 10.84375 4.117188 10.890625 4.316406 10.890625 C 5.023438 10.890625 5.597656 10.320312 5.597656 9.613281 C 5.597656 8.90625 5.023438 8.332031 4.316406 8.332031 Z M 4.316406 8.332031 "/>
<path style=" stroke:none;fill-rule:nonzero;fill:rgb(34.901961%,34.901961%,36.078431%);fill-opacity:1;" d="M 5.003906 10.847656 C 4.941406 10.910156 4.839844 10.910156 4.777344 10.847656 L 3.082031 9.152344 C 3.019531 9.089844 3.019531 8.988281 3.082031 8.925781 L 3.308594 8.699219 C 3.371094 8.636719 3.472656 8.636719 3.535156 8.699219 L 5.230469 10.394531 C 5.292969 10.457031 5.292969 10.558594 5.230469 10.621094 Z M 5.003906 10.847656 "/>
</g>
</svg>
