<?xml version="1.0" encoding="UTF-8"?>
<svg xmlns="http://www.w3.org/2000/svg" xmlns:xlink="http://www.w3.org/1999/xlink" width="15pt" height="15pt" viewBox="0 0 15 15" version="1.1">
<g id="surface1">
<path style=" stroke:none;fill-rule:nonzero;fill:rgb(88.235294%,90.980392%,92.941176%);fill-opacity:1;" d="M 15 15 L 15 14.167969 C 15 12.785156 13.878906 11.667969 12.5 11.667969 L 5.832031 11.667969 C 4.453125 11.667969 3.332031 12.785156 3.332031 14.167969 L 3.332031 15 Z M 15 15 "/>
<path style=" stroke:none;fill-rule:nonzero;fill:rgb(91.764706%,34.901961%,43.137255%);fill-opacity:1;" d="M 12.417969 11.71875 C 12.417969 12.285156 10.960938 12.734375 9.167969 12.734375 C 7.371094 12.734375 5.917969 12.292969 5.917969 11.726562 C 5.917969 11.699219 5.921875 11.667969 5.929688 11.667969 L 5.625 11.667969 L 5.328125 11.707031 L 5.332031 12.132812 C 5.378906 13.132812 7.078125 13.546875 9.167969 13.546875 C 11.25 13.546875 12.9375 13.125 13 12.121094 L 13.003906 11.714844 C 13.003906 11.71875 12.417969 11.695312 12.417969 11.71875 Z M 12.417969 11.71875 "/>
<path style=" stroke:none;fill-rule:nonzero;fill:rgb(74.509804%,9.803922%,19.215686%);fill-opacity:1;" d="M 13.003906 11.695312 C 13.003906 10.90625 11.285156 10.261719 9.167969 10.261719 C 7.046875 10.261719 5.328125 10.90625 5.328125 11.695312 C 5.328125 12.488281 7.046875 13.128906 9.167969 13.128906 C 11.285156 13.128906 13.003906 12.488281 13.003906 11.695312 Z M 13.003906 11.695312 "/>
<path style=" stroke:none;fill-rule:nonzero;fill:rgb(16.078431%,18.431373%,20%);fill-opacity:1;" d="M 9.167969 12.722656 C 7.371094 12.722656 5.917969 12.261719 5.917969 11.695312 C 5.917969 11.128906 7.371094 10.667969 9.167969 10.667969 C 10.960938 10.667969 12.417969 11.128906 12.417969 11.695312 C 12.417969 12.261719 10.960938 12.722656 9.167969 12.722656 Z M 9.167969 12.722656 "/>
<path style=" stroke:none;fill-rule:nonzero;fill:rgb(100%,86.27451%,36.470588%);fill-opacity:1;" d="M 7.351562 11.640625 C 8.078125 12.167969 8.535156 12.269531 9.167969 12.269531 C 9.796875 12.269531 10.257812 12.167969 10.984375 11.640625 L 10.984375 10.050781 L 7.351562 10.050781 Z M 7.351562 11.640625 "/>
<path style=" stroke:none;fill-rule:nonzero;fill:rgb(97.647059%,79.215686%,33.333333%);fill-opacity:1;" d="M 7.347656 10.820312 C 7.851562 11.394531 8.480469 11.550781 9.164062 11.550781 C 9.847656 11.550781 10.476562 11.394531 10.984375 10.820312 L 10.984375 9.367188 L 7.347656 9.367188 Z M 7.347656 10.820312 "/>
<path style=" stroke:none;fill-rule:nonzero;fill:rgb(100%,67.45098%,20%);fill-opacity:1;" d="M 10.664062 1.464844 C 9.863281 1.207031 7.976562 1.277344 7.503906 1.890625 C 6.277344 1.914062 4.839844 3.023438 4.648438 4.484375 C 4.460938 5.933594 4.878906 6.605469 5.027344 7.691406 C 5.195312 8.925781 5.886719 9.320312 6.441406 9.484375 C 7.238281 10.539062 8.085938 10.496094 9.511719 10.496094 C 12.292969 10.496094 13.617188 8.636719 13.734375 5.476562 C 13.804688 3.566406 12.683594 2.117188 10.664062 1.464844 Z M 10.664062 1.464844 "/>
<path style=" stroke:none;fill-rule:nonzero;fill:rgb(100%,86.27451%,36.470588%);fill-opacity:1;" d="M 12.253906 5.609375 C 11.984375 5.238281 11.640625 4.9375 10.886719 4.832031 C 11.171875 4.960938 11.441406 5.410156 11.476562 5.660156 C 11.511719 5.90625 11.546875 6.105469 11.324219 5.859375 C 10.425781 4.867188 9.449219 5.257812 8.480469 4.652344 C 7.800781 4.226562 7.597656 3.757812 7.597656 3.757812 C 7.597656 3.757812 7.515625 4.382812 6.488281 5.019531 C 6.191406 5.207031 5.835938 5.617188 5.636719 6.222656 C 5.496094 6.660156 5.539062 7.050781 5.539062 7.714844 C 5.539062 9.65625 7.140625 11.289062 9.113281 11.289062 C 11.089844 11.289062 12.6875 9.640625 12.6875 7.714844 C 12.6875 6.507812 12.5625 6.035156 12.253906 5.609375 Z M 12.253906 5.609375 "/>
<path style=" stroke:none;fill-rule:nonzero;fill:rgb(75.686275%,41.176471%,30.980392%);fill-opacity:1;" d="M 9.511719 8.707031 L 8.71875 8.707031 C 8.609375 8.707031 8.519531 8.621094 8.519531 8.507812 C 8.519531 8.398438 8.605469 8.3125 8.71875 8.3125 L 9.511719 8.3125 C 9.621094 8.3125 9.710938 8.398438 9.710938 8.507812 C 9.710938 8.621094 9.621094 8.707031 9.511719 8.707031 Z M 9.511719 8.707031 "/>
<path style=" stroke:none;fill-rule:nonzero;fill:rgb(40%,12.941176%,7.45098%);fill-opacity:1;" d="M 7.527344 7.316406 C 7.308594 7.316406 7.128906 7.140625 7.128906 6.921875 L 7.128906 6.523438 C 7.128906 6.304688 7.308594 6.128906 7.527344 6.128906 C 7.746094 6.128906 7.921875 6.304688 7.921875 6.523438 L 7.921875 6.921875 C 7.921875 7.140625 7.746094 7.316406 7.527344 7.316406 Z M 10.703125 7.316406 C 10.484375 7.316406 10.304688 7.140625 10.304688 6.921875 L 10.304688 6.523438 C 10.304688 6.304688 10.484375 6.128906 10.703125 6.128906 C 10.921875 6.128906 11.101562 6.304688 11.101562 6.523438 L 11.101562 6.921875 C 11.101562 7.140625 10.921875 7.316406 10.703125 7.316406 Z M 10.703125 7.316406 "/>
<path style=" stroke:none;fill-rule:nonzero;fill:rgb(75.686275%,41.176471%,30.980392%);fill-opacity:1;" d="M 9.167969 10.367188 C 8.019531 10.367188 7.667969 10.074219 7.609375 10.011719 C 7.5 9.90625 7.5 9.734375 7.609375 9.628906 C 7.710938 9.523438 7.878906 9.519531 7.984375 9.617188 C 8.003906 9.632812 8.285156 9.820312 9.167969 9.820312 C 10.082031 9.820312 10.347656 9.617188 10.351562 9.617188 C 10.457031 9.511719 10.625 9.515625 10.730469 9.621094 C 10.839844 9.730469 10.832031 9.90625 10.726562 10.011719 C 10.667969 10.074219 10.3125 10.367188 9.167969 10.367188 "/>
<path style=" stroke:none;fill-rule:nonzero;fill:rgb(33.333333%,67.45098%,93.333333%);fill-opacity:1;" d="M 13.75 13.75 L 13.75 15 L 15 15 L 15 14.167969 C 15 14.023438 14.984375 13.886719 14.960938 13.75 Z M 13.75 13.75 "/>
<path style=" stroke:none;fill-rule:nonzero;fill:rgb(100%,80%,30.196078%);fill-opacity:1;" d="M 14.167969 14.167969 L 15 14.167969 L 15 15 L 14.167969 15 Z M 14.167969 14.167969 "/>
<path style=" stroke:none;fill-rule:nonzero;fill:rgb(88.235294%,90.980392%,92.941176%);fill-opacity:1;" d="M 10 15 C 9.503906 12.855469 7.480469 11.25 5.0625 11.25 C 2.640625 11.25 0.621094 12.855469 0.121094 15 Z M 10 15 "/>
<path style=" stroke:none;fill-rule:nonzero;fill:rgb(16.078431%,18.431373%,20%);fill-opacity:1;" d="M 9.445312 15 C 8.957031 13.140625 7.183594 11.757812 5.0625 11.757812 C 2.941406 11.757812 1.164062 13.140625 0.675781 15 Z M 9.445312 15 "/>
<path style=" stroke:none;fill-rule:nonzero;fill:rgb(100%,67.45098%,20%);fill-opacity:1;" d="M 9.015625 15 C 8.535156 13.359375 6.949219 12.152344 5.0625 12.152344 C 3.171875 12.152344 1.585938 13.359375 1.105469 15 Z M 9.015625 15 "/>
<path style=" stroke:none;fill-rule:nonzero;fill:rgb(100%,86.27451%,36.470588%);fill-opacity:1;" d="M 7.582031 14.601562 L 7.625 14.578125 C 7.945312 14.382812 8.011719 13.9375 7.75 13.667969 C 7.554688 13.46875 7.335938 13.289062 7.097656 13.140625 C 6.863281 12.996094 6.613281 12.882812 6.351562 12.796875 C 6.007812 12.683594 5.640625 12.890625 5.574219 13.25 C 5.527344 13.527344 5.667969 13.8125 5.933594 13.90625 C 6.292969 14.039062 6.609375 14.253906 6.863281 14.523438 C 7.046875 14.71875 7.351562 14.742188 7.582031 14.601562 Z M 7.582031 14.601562 "/>
<path style=" stroke:none;fill-rule:nonzero;fill:rgb(57.254902%,40%,80%);fill-opacity:1;" d="M 2.644531 5.941406 L 2 5.703125 L 1.75 4.789062 C 1.71875 4.667969 1.609375 4.582031 1.484375 4.582031 C 1.359375 4.582031 1.246094 4.667969 1.214844 4.789062 L 0.964844 5.703125 L 0.324219 5.941406 C 0.214844 5.984375 0.140625 6.085938 0.140625 6.203125 C 0.140625 6.320312 0.214844 6.421875 0.324219 6.464844 L 0.960938 6.699219 L 1.214844 7.707031 C 1.246094 7.828125 1.355469 7.917969 1.484375 7.917969 C 1.609375 7.917969 1.722656 7.828125 1.753906 7.707031 L 2.003906 6.699219 L 2.644531 6.464844 C 2.753906 6.421875 2.824219 6.320312 2.824219 6.203125 C 2.824219 6.085938 2.753906 5.984375 2.644531 5.941406 Z M 2.644531 5.941406 "/>
<path style=" stroke:none;fill-rule:nonzero;fill:rgb(36.470588%,67.843137%,92.54902%);fill-opacity:1;" d="M 4.699219 1.929688 L 3.613281 1.527344 L 3.210938 0.441406 C 3.144531 0.261719 2.972656 0.140625 2.777344 0.140625 C 2.585938 0.140625 2.414062 0.261719 2.347656 0.441406 L 1.945312 1.527344 L 0.859375 1.929688 C 0.675781 1.996094 0.558594 2.167969 0.558594 2.363281 C 0.558594 2.554688 0.675781 2.726562 0.859375 2.792969 L 1.945312 3.195312 L 2.347656 4.285156 C 2.414062 4.464844 2.585938 4.582031 2.777344 4.582031 C 2.972656 4.582031 3.144531 4.464844 3.210938 4.285156 L 3.613281 3.195312 L 4.699219 2.792969 C 4.878906 2.726562 5 2.554688 5 2.363281 C 5 2.167969 4.878906 1.996094 4.699219 1.929688 Z M 4.699219 1.929688 "/>
</g>
</svg>
