<?xml version="1.0" encoding="UTF-8"?>
<svg xmlns="http://www.w3.org/2000/svg" xmlns:xlink="http://www.w3.org/1999/xlink" width="15pt" height="15pt" viewBox="0 0 15 15" version="1.1">
<g id="surface1">
<path style=" stroke:none;fill-rule:nonzero;fill:rgb(85.098039%,61.960784%,50.980392%);fill-opacity:1;" d="M 12.5 10.832031 C 12.5 11.753906 11.753906 12.5 10.832031 12.5 L 1.667969 12.5 C 0.746094 12.5 0 11.753906 0 10.832031 L 0 1.667969 C 0 0.746094 0.746094 0 1.667969 0 L 10.832031 0 C 11.753906 0 12.5 0.746094 12.5 1.667969 Z M 12.5 10.832031 "/>
<path style=" stroke:none;fill-rule:nonzero;fill:rgb(36.078431%,56.862745%,23.137255%);fill-opacity:1;" d="M 11.667969 10.832031 C 11.667969 11.292969 11.292969 11.667969 10.832031 11.667969 L 1.667969 11.667969 C 1.207031 11.667969 0.832031 11.292969 0.832031 10.832031 L 0.832031 1.667969 C 0.832031 1.207031 1.207031 0.832031 1.667969 0.832031 L 10.832031 0.832031 C 11.292969 0.832031 11.667969 1.207031 11.667969 1.667969 Z M 11.667969 10.832031 "/>
<path style=" stroke:none;fill-rule:nonzero;fill:rgb(100%,100%,100%);fill-opacity:1;" d="M 3.132812 3.707031 C 3.097656 3.746094 3.054688 3.808594 3.054688 3.878906 C 3.054688 4.03125 3.167969 4.097656 3.316406 4.097656 L 4.425781 4.097656 C 4.554688 4.097656 4.667969 4.03125 4.667969 3.878906 C 4.667969 3.722656 4.554688 3.65625 4.40625 3.65625 L 3.796875 3.65625 C 4.082031 3.300781 4.597656 2.839844 4.597656 2.378906 C 4.597656 1.957031 4.265625 1.683594 3.859375 1.683594 C 3.449219 1.683594 3.074219 2.023438 3.074219 2.441406 C 3.074219 2.570312 3.15625 2.683594 3.316406 2.683594 C 3.636719 2.683594 3.453125 2.144531 3.835938 2.144531 C 3.972656 2.144531 4.078125 2.265625 4.078125 2.402344 C 4.078125 2.523438 4.019531 2.625 3.960938 2.710938 C 3.707031 3.078125 3.40625 3.378906 3.132812 3.707031 Z M 2.585938 5.972656 L 2.105469 5.972656 L 2.105469 5.488281 C 2.105469 5.367188 2.027344 5.289062 1.902344 5.289062 C 1.78125 5.289062 1.703125 5.367188 1.703125 5.488281 L 1.703125 5.972656 L 1.222656 5.972656 C 1.097656 5.972656 1.019531 6.050781 1.019531 6.171875 C 1.019531 6.289062 1.097656 6.371094 1.222656 6.371094 L 1.703125 6.371094 L 1.703125 6.855469 C 1.703125 6.972656 1.78125 7.054688 1.902344 7.054688 C 2.027344 7.054688 2.105469 6.972656 2.105469 6.855469 L 2.105469 6.371094 L 2.585938 6.371094 C 2.710938 6.371094 2.785156 6.289062 2.785156 6.171875 C 2.785156 6.050781 2.710938 5.972656 2.585938 5.972656 Z M 4.40625 6.574219 L 3.796875 6.574219 C 4.082031 6.21875 4.597656 5.757812 4.597656 5.296875 C 4.597656 4.871094 4.265625 4.601562 3.855469 4.601562 C 3.449219 4.601562 3.074219 4.9375 3.074219 5.359375 C 3.074219 5.488281 3.15625 5.601562 3.316406 5.601562 C 3.636719 5.601562 3.453125 5.0625 3.835938 5.0625 C 3.972656 5.0625 4.078125 5.183594 4.078125 5.316406 C 4.078125 5.4375 4.019531 5.542969 3.960938 5.628906 C 3.707031 5.996094 3.40625 6.292969 3.128906 6.625 C 3.097656 6.664062 3.054688 6.722656 3.054688 6.792969 C 3.054688 6.949219 3.167969 7.015625 3.3125 7.015625 L 4.425781 7.015625 C 4.554688 7.015625 4.667969 6.949219 4.667969 6.792969 C 4.667969 6.640625 4.554688 6.574219 4.40625 6.574219 Z M 4.757812 7.902344 L 1.285156 7.902344 C 1.167969 7.902344 1.078125 7.8125 1.078125 7.695312 C 1.078125 7.582031 1.167969 7.488281 1.285156 7.488281 L 4.757812 7.488281 C 4.871094 7.488281 4.964844 7.582031 4.964844 7.695312 C 4.964844 7.8125 4.871094 7.902344 4.757812 7.902344 Z M 4.757812 7.902344 "/>
<path style=" stroke:none;fill-rule:nonzero;fill:rgb(80%,83.921569%,86.666667%);fill-opacity:1;" d="M 15 15 L 15 14.167969 C 15 12.785156 13.878906 11.667969 12.5 11.667969 L 5.832031 11.667969 C 4.453125 11.667969 3.332031 12.785156 3.332031 14.167969 L 3.332031 15 Z M 15 15 "/>
<path style=" stroke:none;fill-rule:nonzero;fill:rgb(60%,66.666667%,70.980392%);fill-opacity:1;" d="M 9.195312 12.835938 C 9.195312 12.835938 10.570312 13.207031 11.089844 13.378906 C 11.15625 13.402344 10.695312 12.5 10.695312 12.5 L 7.589844 12.5 C 7.589844 12.5 7.304688 13.144531 7.144531 13.417969 C 7.960938 13.15625 9.140625 12.796875 9.140625 12.796875 "/>
<path style=" stroke:none;fill-rule:nonzero;fill:rgb(95.294118%,82.352941%,63.529412%);fill-opacity:1;" d="M 7.351562 11.707031 C 7.671875 11.941406 7.851562 12.394531 8.308594 12.503906 C 8.445312 12.796875 8.621094 13.1875 8.777344 13.535156 C 8.921875 13.867188 9.394531 13.863281 9.535156 13.527344 C 9.683594 13.179688 9.851562 12.792969 9.984375 12.503906 C 10.445312 12.320312 10.65625 11.945312 10.984375 11.707031 L 10.984375 10.121094 L 7.351562 10.121094 Z M 7.351562 11.707031 "/>
<path style=" stroke:none;fill-rule:nonzero;fill:rgb(88.627451%,75.686275%,58.823529%);fill-opacity:1;" d="M 7.347656 10.820312 C 7.851562 11.394531 8.480469 11.550781 9.164062 11.550781 C 9.847656 11.550781 10.476562 11.394531 10.984375 10.820312 L 10.984375 9.367188 L 7.347656 9.367188 Z M 7.347656 10.820312 "/>
<path style=" stroke:none;fill-rule:nonzero;fill:rgb(100%,89.803922%,11.764706%);fill-opacity:1;" d="M 10.722656 1.382812 C 9.917969 1.125 8.03125 1.195312 7.558594 1.808594 C 6.332031 1.832031 4.894531 2.941406 4.703125 4.402344 C 4.519531 5.851562 4.933594 6.523438 5.082031 7.613281 C 5.25 8.847656 5.945312 9.242188 6.496094 9.40625 C 7.296875 10.460938 8.144531 10.414062 9.566406 10.414062 C 12.347656 10.414062 13.671875 8.554688 13.789062 5.394531 C 13.859375 3.484375 12.738281 2.035156 10.722656 1.382812 Z M 10.722656 1.382812 "/>
<path style=" stroke:none;fill-rule:nonzero;fill:rgb(95.294118%,82.352941%,63.529412%);fill-opacity:1;" d="M 12.3125 5.53125 C 12.042969 5.15625 11.699219 4.859375 10.941406 4.753906 C 11.226562 4.882812 11.496094 5.328125 11.53125 5.578125 C 11.566406 5.824219 11.605469 6.027344 11.378906 5.777344 C 10.480469 4.785156 9.503906 5.175781 8.535156 4.570312 C 7.859375 4.148438 7.652344 3.679688 7.652344 3.679688 C 7.652344 3.679688 7.570312 4.304688 6.542969 4.941406 C 6.246094 5.125 5.890625 5.535156 5.695312 6.144531 C 5.550781 6.582031 5.597656 6.96875 5.597656 7.632812 C 5.597656 9.578125 7.195312 11.207031 9.171875 11.207031 C 11.144531 11.207031 12.746094 9.5625 12.746094 7.632812 C 12.746094 6.425781 12.617188 5.953125 12.3125 5.53125 Z M 12.3125 5.53125 "/>
<path style=" stroke:none;fill-rule:nonzero;fill:rgb(75.686275%,41.176471%,30.980392%);fill-opacity:1;" d="M 9.566406 8.628906 L 8.773438 8.628906 C 8.664062 8.628906 8.574219 8.539062 8.574219 8.429688 C 8.574219 8.320312 8.664062 8.230469 8.773438 8.230469 L 9.566406 8.230469 C 9.675781 8.230469 9.765625 8.320312 9.765625 8.429688 C 9.765625 8.539062 9.675781 8.628906 9.566406 8.628906 Z M 9.566406 8.628906 "/>
<path style=" stroke:none;fill-rule:nonzero;fill:rgb(40%,12.941176%,7.45098%);fill-opacity:1;" d="M 7.582031 7.238281 C 7.363281 7.238281 7.183594 7.058594 7.183594 6.839844 L 7.183594 6.441406 C 7.183594 6.222656 7.363281 6.046875 7.582031 6.046875 C 7.800781 6.046875 7.976562 6.222656 7.976562 6.441406 L 7.976562 6.839844 C 7.976562 7.058594 7.800781 7.238281 7.582031 7.238281 Z M 10.757812 7.238281 C 10.539062 7.238281 10.363281 7.058594 10.363281 6.839844 L 10.363281 6.441406 C 10.363281 6.222656 10.539062 6.046875 10.757812 6.046875 C 10.976562 6.046875 11.15625 6.222656 11.15625 6.441406 L 11.15625 6.839844 C 11.15625 7.058594 10.976562 7.238281 10.757812 7.238281 Z M 10.757812 7.238281 "/>
<path style=" stroke:none;fill-rule:nonzero;fill:rgb(75.686275%,41.176471%,30.980392%);fill-opacity:1;" d="M 9.222656 10.285156 C 8.074219 10.285156 7.722656 9.992188 7.664062 9.933594 C 7.558594 9.824219 7.558594 9.652344 7.664062 9.546875 C 7.765625 9.441406 7.933594 9.441406 8.039062 9.535156 C 8.0625 9.550781 8.339844 9.738281 9.222656 9.738281 C 10.140625 9.738281 10.402344 9.539062 10.40625 9.535156 C 10.511719 9.429688 10.679688 9.433594 10.785156 9.542969 C 10.894531 9.648438 10.886719 9.828125 10.78125 9.933594 C 10.722656 9.992188 10.371094 10.285156 9.222656 10.285156 "/>
<path style=" stroke:none;fill-rule:nonzero;fill:rgb(96.078431%,97.254902%,98.039216%);fill-opacity:1;" d="M 7.179688 11.09375 C 7.414062 11.332031 8.308594 12.503906 8.308594 12.503906 C 8.308594 12.503906 7.8125 12.792969 7.222656 13.339844 C 7.007812 13.539062 6.660156 13.363281 6.683594 13.070312 C 6.734375 12.507812 6.789062 11.859375 6.777344 11.597656 C 6.773438 11.472656 7.066406 10.980469 7.179688 11.09375 M 11.109375 11.09375 C 10.875 11.332031 9.980469 12.503906 9.980469 12.503906 C 9.980469 12.503906 10.476562 12.792969 11.066406 13.339844 C 11.28125 13.539062 11.628906 13.363281 11.601562 13.070312 C 11.550781 12.507812 11.5 11.859375 11.507812 11.597656 C 11.515625 11.472656 11.222656 10.980469 11.109375 11.09375 "/>
</g>
</svg>
