<?xml version="1.0" encoding="UTF-8"?>
<svg xmlns="http://www.w3.org/2000/svg" xmlns:xlink="http://www.w3.org/1999/xlink" width="15pt" height="15pt" viewBox="0 0 15 15" version="1.1">
<g id="surface1">
<path style=" stroke:none;fill-rule:nonzero;fill:rgb(85.098039%,61.960784%,50.980392%);fill-opacity:1;" d="M 12.535156 12.945312 C 12.535156 12.945312 12.210938 13.144531 11.890625 12.945312 C 11.570312 12.746094 11.761719 12.425781 11.761719 12.425781 C 11.402344 12.394531 11.363281 12.058594 11.496094 11.757812 C 11.285156 11.699219 11.0625 11.667969 10.832031 11.667969 L 4.167969 11.667969 C 2.785156 11.667969 1.667969 12.785156 1.667969 14.167969 L 1.667969 15 L 13.332031 15 L 13.332031 14.167969 C 13.332031 13.910156 13.292969 13.660156 13.222656 13.425781 C 12.519531 13.691406 12.535156 12.945312 12.535156 12.945312 Z M 12.535156 12.945312 "/>
<path style=" stroke:none;fill-rule:nonzero;fill:rgb(80%,83.921569%,86.666667%);fill-opacity:1;" d="M 5.683594 11.707031 C 6.410156 12.238281 6.871094 13.261719 7.5 13.261719 C 8.128906 13.261719 8.589844 12.234375 9.316406 11.707031 L 9.316406 10.121094 L 5.683594 10.121094 Z M 5.683594 11.707031 "/>
<path style=" stroke:none;fill-rule:nonzero;fill:rgb(60%,66.666667%,70.980392%);fill-opacity:1;" d="M 5.679688 10.820312 C 6.1875 11.394531 6.816406 11.667969 7.5 11.667969 C 8.179688 11.667969 8.808594 11.394531 9.316406 10.820312 L 9.316406 9.367188 L 5.679688 9.367188 Z M 5.679688 10.820312 "/>
<path style=" stroke:none;fill-rule:nonzero;fill:rgb(80%,83.921569%,86.666667%);fill-opacity:1;" d="M 4.769531 6.640625 C 4.769531 7.242188 4.460938 7.730469 4.085938 7.730469 C 3.707031 7.730469 3.402344 7.242188 3.402344 6.640625 C 3.402344 6.035156 3.707031 5.546875 4.085938 5.546875 C 4.464844 5.546875 4.769531 6.035156 4.769531 6.640625 Z M 11.597656 6.640625 C 11.597656 7.242188 11.292969 7.730469 10.914062 7.730469 C 10.535156 7.730469 10.230469 7.242188 10.230469 6.640625 C 10.230469 6.035156 10.535156 5.546875 10.914062 5.546875 C 11.292969 5.546875 11.597656 6.035156 11.597656 6.640625 Z M 11.597656 6.640625 "/>
<path style=" stroke:none;fill-rule:nonzero;fill:rgb(80%,83.921569%,86.666667%);fill-opacity:1;" d="M 3.949219 7.066406 C 3.949219 4.738281 5.539062 2.847656 7.5 2.847656 C 9.460938 2.847656 11.050781 4.738281 11.050781 7.066406 C 11.050781 9.167969 8.917969 11.285156 7.5 11.285156 C 6.082031 11.285156 3.949219 9.167969 3.949219 7.066406 Z M 3.949219 7.066406 "/>
<path style=" stroke:none;fill-rule:nonzero;fill:rgb(60%,66.666667%,70.980392%);fill-opacity:1;" d="M 5.097656 7.402344 C 4.773438 7.078125 4.773438 6.546875 5.097656 6.226562 L 5.390625 5.929688 C 5.714844 5.605469 6.246094 5.605469 6.570312 5.929688 C 6.894531 6.253906 6.894531 6.785156 6.570312 7.109375 L 6.273438 7.402344 C 5.953125 7.726562 5.421875 7.726562 5.097656 7.402344 Z M 8.429688 5.929688 C 8.753906 5.605469 9.285156 5.605469 9.609375 5.929688 L 9.902344 6.222656 C 10.226562 6.546875 10.226562 7.078125 9.902344 7.402344 C 9.578125 7.726562 9.046875 7.726562 8.722656 7.402344 L 8.429688 7.109375 C 8.105469 6.785156 8.105469 6.253906 8.429688 5.929688 Z M 8.429688 5.929688 "/>
<path style=" stroke:none;fill-rule:nonzero;fill:rgb(40%,45.882353%,49.803922%);fill-opacity:1;" d="M 7.5 9.089844 C 6.351562 9.089844 6 9.382812 5.941406 9.441406 C 5.835938 9.550781 5.835938 9.722656 5.941406 9.828125 C 6.042969 9.933594 6.210938 9.9375 6.316406 9.839844 C 6.339844 9.824219 6.617188 9.636719 7.5 9.636719 C 8.417969 9.636719 8.683594 9.839844 8.683594 9.839844 C 8.789062 9.945312 8.957031 9.941406 9.066406 9.835938 C 9.171875 9.730469 9.164062 9.550781 9.058594 9.445312 C 9 9.382812 8.648438 9.089844 7.5 9.089844 Z M 7.5 9.089844 "/>
<path style=" stroke:none;fill-rule:nonzero;fill:rgb(16.078431%,18.431373%,20%);fill-opacity:1;" d="M 11.9375 4.148438 C 11.589844 4.070312 10.976562 3.355469 10.75 3.011719 C 10.75 3.007812 10.746094 3.007812 10.746094 3.003906 C 10.179688 2.234375 9.226562 1.609375 7.984375 1.476562 C 8.050781 1.367188 8.097656 1.257812 8.125 1.15625 C 8.175781 0.964844 8.238281 0.464844 7.953125 0.796875 C 7.710938 1.070312 6.949219 1.390625 6.707031 1.488281 C 6.113281 1.191406 5.269531 1.238281 5.078125 1.328125 C 4.84375 1.441406 5.0625 1.425781 5.207031 1.449219 C 5.390625 1.480469 5.585938 1.609375 5.773438 1.75 C 5.0625 2.023438 4.539062 2.46875 4.195312 2.980469 C 3.941406 3.351562 3.488281 3.871094 3.246094 3.957031 C 2.777344 4.125 3.347656 4.191406 3.585938 4.085938 C 3.640625 4.0625 3.695312 4.039062 3.75 4.011719 C 3.703125 4.21875 3.675781 4.429688 3.675781 4.632812 C 3.675781 6.082031 4.183594 6.484375 4.265625 6.082031 C 4.558594 4.632812 5.441406 4.054688 5.441406 4.054688 C 6.78125 5.652344 6.648438 4.296875 6.648438 4.296875 C 9 7.023438 7.792969 4.34375 7.792969 4.34375 C 8.382812 4.921875 10.148438 4.921875 10.148438 4.921875 L 10.734375 6.082031 C 11.03125 6.660156 11.324219 6.082031 11.324219 4.632812 C 11.324219 4.515625 11.3125 4.394531 11.292969 4.273438 C 11.46875 4.335938 11.628906 4.363281 11.761719 4.367188 C 12.039062 4.375 12.28125 4.226562 11.9375 4.148438 Z M 11.9375 4.148438 "/>
<path style=" stroke:none;fill-rule:nonzero;fill:rgb(40%,12.941176%,7.45098%);fill-opacity:1;" d="M 6.457031 6.457031 C 6.457031 6.6875 6.269531 6.875 6.042969 6.875 L 5.625 6.875 C 5.394531 6.875 5.207031 6.6875 5.207031 6.457031 C 5.207031 6.230469 5.394531 6.042969 5.625 6.042969 L 6.042969 6.042969 C 6.269531 6.042969 6.457031 6.230469 6.457031 6.457031 Z M 9.792969 6.457031 C 9.792969 6.6875 9.605469 6.875 9.375 6.875 L 8.957031 6.875 C 8.730469 6.875 8.542969 6.6875 8.542969 6.457031 C 8.542969 6.230469 8.730469 6.042969 8.957031 6.042969 L 9.375 6.042969 C 9.605469 6.042969 9.792969 6.230469 9.792969 6.457031 Z M 9.792969 6.457031 "/>
<path style=" stroke:none;fill-rule:nonzero;fill:rgb(75.686275%,41.176471%,30.980392%);fill-opacity:1;" d="M 7.515625 13.015625 C 7.515625 13.015625 8.910156 13.90625 9.207031 14.023438 C 9.269531 14.050781 9.054688 12.5 9.054688 12.5 L 8.046875 12.726562 L 7.5 13.367188 L 7.082031 12.5 L 5.949219 12.5 C 5.949219 12.5 5.730469 14.074219 5.851562 14.011719 C 6.117188 13.867188 7.515625 13.015625 7.515625 13.015625 Z M 7.515625 13.015625 "/>
<path style=" stroke:none;fill-rule:nonzero;fill:rgb(13.333333%,40%,60%);fill-opacity:1;" d="M 8.046875 12.726562 C 8.035156 12.75 7.894531 12.84375 7.792969 13.046875 C 7.695312 12.996094 7.582031 12.949219 7.453125 12.917969 C 6.898438 12.78125 6.546875 12.902344 6.546875 12.902344 C 6.546875 12.902344 6.636719 13.523438 6.710938 13.660156 C 6.777344 13.777344 6.925781 14.023438 6.925781 14.023438 C 6.925781 14.023438 6.648438 14.167969 6.53125 15 L 8.152344 15 C 8.035156 14.335938 7.703125 14.140625 7.703125 14.140625 C 7.703125 14.140625 8.046875 13.878906 8.125 13.769531 C 8.253906 13.585938 8.289062 13.433594 8.289062 13.433594 C 8.289062 13.433594 8.265625 13.40625 8.226562 13.367188 C 8.316406 13.328125 8.410156 13.273438 8.503906 13.191406 C 8.9375 12.800781 8.046875 12.726562 8.046875 12.726562 Z M 8.046875 12.726562 "/>
<path style=" stroke:none;fill-rule:nonzero;fill:rgb(100%,85.098039%,51.372549%);fill-opacity:1;" d="M 5.539062 11.09375 C 5.773438 11.328125 7.082031 12.503906 7.082031 12.503906 C 7.082031 12.503906 6.613281 13.019531 5.796875 13.976562 C 5.714844 14.070312 5.15625 12.046875 5.140625 11.597656 C 5.132812 11.472656 5.425781 10.980469 5.539062 11.09375 Z M 9.472656 11.09375 C 9.234375 11.328125 8.046875 12.726562 8.046875 12.726562 C 8.046875 12.726562 8.394531 13.019531 9.210938 13.976562 C 9.292969 14.070312 9.851562 12.046875 9.871094 11.597656 C 9.875 11.472656 9.582031 10.980469 9.472656 11.09375 Z M 9.472656 11.09375 "/>
<path style=" stroke:none;fill-rule:nonzero;fill:rgb(40%,12.941176%,7.45098%);fill-opacity:1;" d="M 11.21875 13.890625 C 11.167969 14.695312 10.875 15 10.875 15 L 11.453125 15 C 11.453125 15 11.53125 13.761719 11.21875 13.890625 Z M 11.21875 13.890625 "/>
<path style=" stroke:none;fill-rule:nonzero;fill:rgb(60%,66.666667%,70.980392%);fill-opacity:1;" d="M 7.082031 8.332031 C 6.96875 8.332031 6.875 8.238281 6.875 8.125 L 6.875 7.707031 C 6.875 7.59375 6.96875 7.5 7.082031 7.5 C 7.199219 7.5 7.292969 7.59375 7.292969 7.707031 L 7.292969 8.125 C 7.292969 8.238281 7.199219 8.332031 7.082031 8.332031 Z M 7.917969 8.332031 C 7.800781 8.332031 7.707031 8.238281 7.707031 8.125 L 7.707031 7.707031 C 7.707031 7.59375 7.800781 7.5 7.917969 7.5 C 8.03125 7.5 8.125 7.59375 8.125 7.707031 L 8.125 8.125 C 8.125 8.238281 8.03125 8.332031 7.917969 8.332031 Z M 7.917969 8.332031 "/>
<path style=" stroke:none;fill-rule:nonzero;fill:rgb(60.392157%,66.666667%,70.588235%);fill-opacity:1;" d="M 5.753906 8.660156 C 5.042969 8.660156 4.464844 8.09375 4.4375 8.0625 C 4.355469 7.984375 4.355469 7.851562 4.4375 7.769531 C 4.515625 7.6875 4.648438 7.6875 4.730469 7.769531 C 4.738281 7.777344 5.46875 8.492188 6.15625 8.148438 C 6.257812 8.09375 6.382812 8.136719 6.4375 8.238281 C 6.488281 8.34375 6.445312 8.46875 6.34375 8.519531 C 6.140625 8.621094 5.945312 8.660156 5.753906 8.660156 Z M 9.246094 8.660156 C 9.054688 8.660156 8.855469 8.621094 8.65625 8.519531 C 8.554688 8.46875 8.511719 8.34375 8.5625 8.238281 C 8.617188 8.136719 8.738281 8.09375 8.84375 8.148438 C 9.535156 8.492188 10.261719 7.777344 10.269531 7.769531 C 10.351562 7.6875 10.484375 7.6875 10.5625 7.769531 C 10.644531 7.851562 10.644531 7.984375 10.5625 8.0625 C 10.535156 8.09375 9.957031 8.660156 9.246094 8.660156 Z M 9.246094 8.660156 "/>
<path style=" stroke:none;fill-rule:nonzero;fill:rgb(40%,12.941176%,7.45098%);fill-opacity:1;" d="M 2.339844 14.152344 C 2.472656 14.046875 2.703125 13.320312 3.121094 13.144531 C 3.535156 12.972656 4.453125 12.746094 4.441406 13.183594 C 4.425781 13.621094 3.882812 14.21875 3.996094 14.441406 C 3.589844 14.640625 1.917969 14.484375 2.339844 14.152344 Z M 2.339844 14.152344 "/>
<path style=" stroke:none;fill-rule:nonzero;fill:rgb(80%,83.921569%,86.666667%);fill-opacity:1;" d="M 2.597656 14.085938 C 2.730469 13.980469 2.871094 13.355469 3.285156 13.183594 C 3.703125 13.011719 4.453125 12.746094 4.441406 13.183594 C 4.425781 13.621094 3.929688 13.886719 3.519531 14.085938 C 3.113281 14.28125 2.175781 14.414062 2.597656 14.085938 Z M 2.597656 14.085938 "/>
</g>
</svg>
