<?xml version="1.0" encoding="UTF-8"?>
<svg xmlns="http://www.w3.org/2000/svg" xmlns:xlink="http://www.w3.org/1999/xlink" width="15pt" height="15pt" viewBox="0 0 15 15" version="1.1">
<g id="surface1">
<path style=" stroke:none;fill-rule:nonzero;fill:rgb(23.137255%,53.333333%,76.470588%);fill-opacity:1;" d="M 13.332031 15 L 13.332031 13.332031 C 13.332031 11.953125 12.214844 10.832031 10.832031 10.832031 L 4.167969 10.832031 C 2.785156 10.832031 1.667969 11.953125 1.667969 13.332031 L 1.667969 15 Z M 13.332031 15 "/>
<path style=" stroke:none;fill-rule:nonzero;fill:rgb(100%,86.27451%,36.470588%);fill-opacity:1;" d="M 5.832031 10.832031 L 7.5 12.917969 L 9.167969 10.832031 L 9.167969 9.167969 L 5.832031 9.167969 Z M 5.832031 10.832031 "/>
<path style=" stroke:none;fill-rule:nonzero;fill:rgb(97.647059%,79.215686%,33.333333%);fill-opacity:1;" d="M 5.832031 10 C 6.339844 10.574219 6.816406 10.714844 7.5 10.714844 C 8.179688 10.714844 8.660156 10.570312 9.167969 10 L 9.167969 8.332031 L 5.832031 8.332031 Z M 5.832031 10 "/>
<path style=" stroke:none;fill-rule:nonzero;fill:rgb(100%,67.45098%,20%);fill-opacity:1;" d="M 9 0.570312 C 8.195312 0.308594 6.308594 0.382812 5.835938 0.996094 C 4.609375 1.019531 3.171875 2.128906 2.984375 3.589844 C 2.796875 5.039062 3.210938 5.710938 3.359375 6.796875 C 3.527344 8.03125 4.222656 8.425781 4.777344 8.589844 C 5.574219 9.644531 6.421875 9.601562 7.84375 9.601562 C 10.625 9.601562 11.949219 7.738281 12.066406 4.582031 C 12.136719 2.667969 11.015625 1.222656 9 0.570312 Z M 9 0.570312 "/>
<path style=" stroke:none;fill-rule:nonzero;fill:rgb(100%,86.27451%,36.470588%);fill-opacity:1;" d="M 10.589844 4.714844 C 10.320312 4.34375 9.976562 4.042969 9.21875 3.9375 C 9.503906 4.066406 9.773438 4.515625 9.808594 4.761719 C 9.847656 5.011719 9.882812 5.210938 9.65625 4.964844 C 8.757812 3.972656 7.78125 4.363281 6.8125 3.753906 C 6.136719 3.332031 5.929688 2.863281 5.929688 2.863281 C 5.929688 2.863281 5.847656 3.488281 4.820312 4.125 C 4.523438 4.308594 4.167969 4.722656 3.972656 5.328125 C 3.828125 5.765625 3.875 6.15625 3.875 6.820312 C 3.875 8.761719 5.472656 10.394531 7.449219 10.394531 C 9.421875 10.394531 11.023438 8.746094 11.023438 6.820312 C 11.023438 5.613281 10.894531 5.140625 10.589844 4.714844 Z M 10.589844 4.714844 "/>
<path style=" stroke:none;fill-rule:nonzero;fill:rgb(75.686275%,41.176471%,30.980392%);fill-opacity:1;" d="M 7.84375 7.8125 L 7.050781 7.8125 C 6.941406 7.8125 6.851562 7.722656 6.851562 7.613281 C 6.851562 7.503906 6.941406 7.414062 7.050781 7.414062 L 7.84375 7.414062 C 7.953125 7.414062 8.042969 7.503906 8.042969 7.613281 C 8.042969 7.722656 7.953125 7.8125 7.84375 7.8125 Z M 7.84375 7.8125 "/>
<path style=" stroke:none;fill-rule:nonzero;fill:rgb(40%,12.941176%,7.45098%);fill-opacity:1;" d="M 5.859375 6.421875 C 5.640625 6.421875 5.460938 6.246094 5.460938 6.027344 L 5.460938 5.628906 C 5.460938 5.410156 5.640625 5.230469 5.859375 5.230469 C 6.078125 5.230469 6.257812 5.410156 6.257812 5.628906 L 6.257812 6.027344 C 6.257812 6.246094 6.078125 6.421875 5.859375 6.421875 Z M 9.035156 6.421875 C 8.816406 6.421875 8.640625 6.246094 8.640625 6.027344 L 8.640625 5.628906 C 8.640625 5.410156 8.816406 5.230469 9.035156 5.230469 C 9.253906 5.230469 9.433594 5.410156 9.433594 5.628906 L 9.433594 6.027344 C 9.433594 6.246094 9.253906 6.421875 9.035156 6.421875 Z M 9.035156 6.421875 "/>
<path style=" stroke:none;fill-rule:nonzero;fill:rgb(75.686275%,41.176471%,30.980392%);fill-opacity:1;" d="M 7.5 9.472656 C 6.351562 9.472656 6 9.175781 5.941406 9.117188 C 5.835938 9.011719 5.835938 8.839844 5.941406 8.730469 C 6.042969 8.628906 6.210938 8.625 6.316406 8.722656 C 6.339844 8.738281 6.617188 8.925781 7.5 8.925781 C 8.417969 8.925781 8.683594 8.722656 8.683594 8.722656 C 8.789062 8.613281 8.957031 8.621094 9.066406 8.726562 C 9.171875 8.832031 9.164062 9.011719 9.058594 9.117188 C 9 9.175781 8.648438 9.472656 7.5 9.472656 "/>
<path style=" stroke:none;fill-rule:nonzero;fill:rgb(16.078431%,18.431373%,20%);fill-opacity:1;" d="M 4.167969 13.542969 L 3.332031 13.542969 C 3.332031 11.835938 4.117188 10 5.832031 10 L 5.832031 10.832031 C 4.515625 10.832031 4.167969 12.605469 4.167969 13.542969 Z M 11.25 11.875 L 10.417969 11.875 C 10.417969 11.703125 10.199219 10.832031 9.167969 10.832031 L 9.167969 10 C 10.640625 10 11.25 11.222656 11.25 11.875 Z M 11.25 11.875 "/>
<path style=" stroke:none;fill-rule:nonzero;fill:rgb(80%,83.921569%,86.666667%);fill-opacity:1;" d="M 5 13.542969 C 5 14.230469 4.441406 14.792969 3.75 14.792969 C 3.058594 14.792969 2.5 14.230469 2.5 13.542969 C 2.5 12.851562 3.058594 12.292969 3.75 12.292969 C 4.441406 12.292969 5 12.851562 5 13.542969 Z M 5 13.542969 "/>
<path style=" stroke:none;fill-rule:nonzero;fill:rgb(96.078431%,97.254902%,98.039216%);fill-opacity:1;" d="M 4.582031 13.542969 C 4.582031 14 4.210938 14.375 3.75 14.375 C 3.289062 14.375 2.917969 14 2.917969 13.542969 C 2.917969 13.082031 3.289062 12.707031 3.75 12.707031 C 4.210938 12.707031 4.582031 13.082031 4.582031 13.542969 Z M 4.582031 13.542969 "/>
<path style=" stroke:none;fill-rule:nonzero;fill:rgb(16.078431%,18.431373%,20%);fill-opacity:1;" d="M 12.5 14.167969 L 11.667969 14.167969 C 11.667969 13.820312 11.621094 12.082031 10.730469 12.082031 C 9.835938 12.082031 9.792969 13.820312 9.792969 14.167969 L 8.957031 14.167969 C 8.957031 12.339844 9.621094 11.25 10.730469 11.25 C 11.839844 11.25 12.5 12.339844 12.5 14.167969 Z M 12.5 14.167969 "/>
<path style=" stroke:none;fill-rule:nonzero;fill:rgb(80%,83.921569%,86.666667%);fill-opacity:1;" d="M 9.792969 14.167969 C 9.792969 14.398438 9.605469 14.582031 9.375 14.582031 C 9.144531 14.582031 8.957031 14.398438 8.957031 14.167969 C 8.957031 13.9375 9.144531 13.75 9.375 13.75 C 9.605469 13.75 9.792969 13.9375 9.792969 14.167969 Z M 9.792969 14.167969 "/>
<path style=" stroke:none;fill-rule:nonzero;fill:rgb(80%,83.921569%,86.666667%);fill-opacity:1;" d="M 12.5 14.167969 C 12.5 14.398438 12.3125 14.582031 12.082031 14.582031 C 11.851562 14.582031 11.667969 14.398438 11.667969 14.167969 C 11.667969 13.9375 11.851562 13.75 12.082031 13.75 C 12.3125 13.75 12.5 13.9375 12.5 14.167969 Z M 12.5 14.167969 "/>
</g>
</svg>
