<?xml version="1.0" encoding="UTF-8"?>
<svg xmlns="http://www.w3.org/2000/svg" xmlns:xlink="http://www.w3.org/1999/xlink" width="15pt" height="15pt" viewBox="0 0 15 15" version="1.1">
<g id="surface1">
<path style=" stroke:none;fill-rule:nonzero;fill:rgb(25.882353%,53.72549%,75.686275%);fill-opacity:1;" d="M 11.929688 12.734375 C 11.855469 12.140625 11.277344 11.929688 10.988281 11.929688 C 10.621094 11.929688 9.742188 12.390625 9.582031 11.6875 L 9.566406 11.609375 L 5.4375 11.605469 L 5.417969 11.683594 C 5.261719 12.394531 4.378906 11.929688 4.007812 11.929688 C 3.722656 11.929688 3.144531 12.140625 3.070312 12.734375 C 3.070312 12.734375 5.886719 13.75 7.5 13.75 C 9.113281 13.75 11.929688 12.734375 11.929688 12.734375 Z M 11.929688 12.734375 "/>
<path style=" stroke:none;fill-rule:nonzero;fill:rgb(100%,86.27451%,36.470588%);fill-opacity:1;" d="M 5.070312 7.269531 C 4.839844 7.230469 4.628906 7.367188 4.589844 7.59375 L 4.246094 9.492188 C 4.214844 9.511719 4.1875 9.527344 4.15625 9.550781 C 3.421875 10.019531 3.464844 11.019531 2.933594 11.472656 C 2.859375 11.535156 2.535156 11.792969 2.429688 12.023438 C 2.292969 12.332031 2.523438 12.210938 2.449219 12.3125 C 2.28125 12.558594 2.277344 12.929688 2.398438 13.015625 L 2.550781 13.058594 C 2.785156 13.226562 3.417969 12.5 3.503906 12.097656 C 3.628906 11.496094 4.785156 10.746094 5 10.160156 C 5.066406 9.976562 5.089844 9.832031 5.070312 9.714844 L 5.53125 7.570312 C 5.570312 7.339844 5.296875 7.304688 5.070312 7.269531 Z M 12.535156 12.339844 C 12.464844 12.234375 12.71875 12.332031 12.578125 12.023438 C 12.472656 11.789062 12.125 11.53125 12.054688 11.472656 C 11.523438 11.019531 11.589844 10.019531 10.855469 9.546875 C 10.820312 9.527344 10.785156 9.503906 10.753906 9.484375 L 10.410156 7.59375 C 10.375 7.367188 10.15625 7.230469 9.933594 7.269531 C 9.703125 7.308594 9.417969 7.339844 9.453125 7.570312 L 9.933594 9.746094 C 9.921875 9.859375 9.949219 9.992188 10.011719 10.160156 C 10.222656 10.746094 11.382812 11.496094 11.507812 12.097656 C 11.589844 12.503906 12.226562 13.226562 12.457031 13.058594 L 12.613281 13.015625 C 12.734375 12.929688 12.707031 12.582031 12.535156 12.339844 Z M 12.535156 12.339844 "/>
<path style=" stroke:none;fill-rule:nonzero;fill:rgb(100%,86.27451%,36.470588%);fill-opacity:1;" d="M 9.480469 14.925781 C 9.046875 14.960938 8.640625 14.839844 8.230469 14.925781 C 8.035156 14.9375 7.898438 14.925781 7.699219 14.75 C 7.503906 14.578125 4.246094 14.121094 3.652344 13.722656 C 3.378906 13.542969 2.960938 13.082031 3.070312 12.699219 C 3.179688 12.316406 3.546875 12.101562 3.988281 12.089844 C 4.847656 12.070312 6.488281 13.316406 7.675781 13.773438 C 7.890625 13.859375 8.070312 13.753906 8.34375 13.824219 C 8.628906 13.898438 9.308594 13.59375 9.65625 13.636719 C 10.125 13.699219 10.3125 13.921875 10.273438 14.308594 C 10.234375 14.710938 9.914062 14.886719 9.480469 14.925781 Z M 9.480469 14.925781 "/>
<path style=" stroke:none;fill-rule:nonzero;fill:rgb(97.647059%,79.215686%,33.333333%);fill-opacity:1;" d="M 9.480469 14.925781 C 9.046875 14.960938 8.640625 14.839844 8.230469 14.925781 C 8.035156 14.9375 7.898438 14.925781 7.699219 14.75 C 7.503906 14.578125 8.070312 13.753906 8.34375 13.824219 C 8.628906 13.898438 9.308594 13.59375 9.65625 13.636719 C 10.125 13.699219 10.3125 13.921875 10.273438 14.304688 C 10.234375 14.710938 9.914062 14.886719 9.480469 14.925781 Z M 4.664062 13.835938 C 4.765625 13.574219 5.160156 13.464844 5.347656 13.441406 C 5.53125 13.414062 5.839844 13.527344 6.050781 13.613281 C 6.261719 13.699219 6.515625 13.710938 6.679688 13.648438 C 6.839844 13.585938 6.957031 13.597656 7.078125 13.648438 C 7.109375 13.664062 7.253906 13.648438 7.304688 13.621094 C 7.304688 13.621094 8.050781 13.878906 7.777344 13.964844 C 7.503906 14.050781 5.519531 14.183594 5.246094 14.183594 C 4.976562 14.183594 4.664062 13.835938 4.664062 13.835938 Z M 4.664062 13.835938 "/>
<path style=" stroke:none;fill-rule:nonzero;fill:rgb(97.647059%,79.215686%,33.333333%);fill-opacity:1;" d="M 3.070312 12.699219 C 3.074219 12.6875 3.078125 12.683594 3.082031 12.675781 C 3.164062 12.992188 3.398438 13.367188 3.664062 13.464844 C 4 13.589844 6.683594 14.378906 7.019531 14.417969 C 7.351562 14.453125 7.847656 14.503906 7.945312 14.578125 C 8.046875 14.652344 8.304688 14.679688 8.515625 14.628906 C 8.726562 14.578125 9.257812 14.777344 9.53125 14.714844 C 9.800781 14.652344 10.199219 14.53125 10.273438 14.195312 C 10.273438 14.1875 10.277344 14.1875 10.277344 14.179688 C 10.277344 14.222656 10.277344 14.261719 10.273438 14.308594 C 10.234375 14.714844 9.914062 14.890625 9.484375 14.925781 C 9.050781 14.964844 8.640625 14.839844 8.234375 14.925781 C 8.035156 14.9375 7.898438 14.925781 7.699219 14.753906 C 7.503906 14.578125 4.246094 14.121094 3.652344 13.726562 C 3.378906 13.542969 2.960938 13.082031 3.070312 12.699219 Z M 3.070312 12.699219 "/>
<path style=" stroke:none;fill-rule:nonzero;fill:rgb(100%,86.27451%,36.470588%);fill-opacity:1;" d="M 5.519531 14.925781 C 5.953125 14.960938 6.359375 14.839844 6.769531 14.925781 C 6.964844 14.9375 7.101562 14.925781 7.300781 14.75 C 7.496094 14.578125 10.753906 14.121094 11.347656 13.722656 C 11.621094 13.542969 12.039062 13.082031 11.929688 12.699219 C 11.820312 12.316406 11.453125 12.101562 11.011719 12.089844 C 10.152344 12.070312 8.511719 13.316406 7.324219 13.773438 C 7.109375 13.859375 6.929688 13.753906 6.65625 13.824219 C 6.371094 13.898438 5.691406 13.59375 5.34375 13.636719 C 4.875 13.699219 4.6875 13.921875 4.726562 14.308594 C 4.765625 14.710938 5.085938 14.886719 5.519531 14.925781 Z M 5.519531 14.925781 "/>
<path style=" stroke:none;fill-rule:nonzero;fill:rgb(98.039216%,45.490196%,24.313725%);fill-opacity:1;" d="M 10.609375 7.980469 C 10.609375 7.980469 10.375 6.742188 9.390625 6.535156 C 8.214844 6.285156 7.878906 6.25 7.5 6.25 C 7.121094 6.25 6.785156 6.285156 5.609375 6.535156 C 4.625 6.742188 4.390625 7.980469 4.390625 7.980469 L 5.417969 8.246094 C 5.417969 8.246094 5.5625 9.171875 5.5625 9.988281 C 5.5625 10.804688 5.417969 11.667969 5.417969 11.667969 C 5.417969 11.667969 6.261719 11.804688 7.5 11.804688 C 8.738281 11.804688 9.582031 11.667969 9.582031 11.667969 C 9.582031 11.667969 9.4375 10.804688 9.4375 9.988281 C 9.4375 9.171875 9.582031 8.246094 9.582031 8.246094 Z M 10.609375 7.980469 "/>
<path style=" stroke:none;fill-rule:nonzero;fill:rgb(100%,67.45098%,20%);fill-opacity:1;" d="M 8.425781 0.0859375 C 7.949219 -0.0703125 6.832031 -0.0273438 6.550781 0.335938 C 5.824219 0.351562 4.96875 1.007812 4.859375 1.875 C 4.746094 2.730469 4.996094 3.128906 5.082031 3.777344 C 5.183594 4.507812 5.59375 4.738281 5.921875 4.839844 C 6.394531 5.460938 6.894531 5.4375 7.738281 5.4375 C 9.386719 5.4375 10.171875 4.332031 10.242188 2.460938 C 10.285156 1.328125 9.621094 0.472656 8.425781 0.0859375 Z M 8.425781 0.0859375 "/>
<path style=" stroke:none;fill-rule:nonzero;fill:rgb(100%,86.27451%,36.470588%);fill-opacity:1;" d="M 6.796875 4.964844 L 6.796875 6.378906 C 6.796875 6.765625 7.113281 7.082031 7.503906 7.082031 C 7.894531 7.082031 8.210938 6.765625 8.210938 6.378906 L 8.210938 4.964844 Z M 6.796875 4.964844 "/>
<path style=" stroke:none;fill-rule:nonzero;fill:rgb(97.647059%,79.215686%,33.333333%);fill-opacity:1;" d="M 6.796875 6.019531 C 7.046875 6.109375 7.617188 6.253906 8.210938 6.011719 L 8.210938 4.964844 L 6.796875 4.964844 Z M 6.796875 6.019531 "/>
<path style=" stroke:none;fill-rule:nonzero;fill:rgb(100%,86.27451%,36.470588%);fill-opacity:1;" d="M 9.367188 2.542969 C 9.207031 2.320312 9.003906 2.144531 8.554688 2.078125 C 8.722656 2.15625 8.882812 2.421875 8.90625 2.570312 C 8.925781 2.714844 8.945312 2.835938 8.8125 2.6875 C 8.28125 2.097656 7.703125 2.332031 7.128906 1.972656 C 6.726562 1.722656 6.605469 1.441406 6.605469 1.441406 C 6.605469 1.441406 6.554688 1.8125 5.949219 2.191406 C 5.773438 2.300781 5.5625 2.542969 5.445312 2.902344 C 5.359375 3.164062 5.386719 3.394531 5.386719 3.789062 C 5.386719 4.9375 6.335938 5.90625 7.503906 5.90625 C 8.675781 5.90625 9.625 4.929688 9.625 3.789062 C 9.621094 3.074219 9.546875 2.792969 9.367188 2.542969 Z M 9.367188 2.542969 "/>
<path style=" stroke:none;fill-rule:nonzero;fill:rgb(75.686275%,41.176471%,30.980392%);fill-opacity:1;" d="M 8.445312 4.964844 L 6.5625 4.964844 C 6.5625 4.964844 6.800781 5.4375 7.503906 5.4375 C 8.210938 5.4375 8.445312 4.964844 8.445312 4.964844 Z M 7.738281 4.375 L 7.269531 4.375 C 7.203125 4.375 7.152344 4.324219 7.152344 4.257812 C 7.152344 4.195312 7.203125 4.140625 7.269531 4.140625 L 7.738281 4.140625 C 7.804688 4.140625 7.859375 4.195312 7.859375 4.257812 C 7.859375 4.324219 7.804688 4.375 7.738281 4.375 Z M 6.769531 3.644531 L 6.144531 3.644531 C 6.089844 3.644531 6.042969 3.597656 6.042969 3.542969 C 6.042969 3.484375 6.089844 3.4375 6.144531 3.4375 L 6.769531 3.4375 C 6.828125 3.4375 6.875 3.484375 6.875 3.542969 C 6.875 3.597656 6.828125 3.644531 6.769531 3.644531 Z M 8.855469 3.644531 L 8.230469 3.644531 C 8.171875 3.644531 8.125 3.597656 8.125 3.542969 C 8.125 3.484375 8.171875 3.4375 8.230469 3.4375 L 8.855469 3.4375 C 8.910156 3.4375 8.957031 3.484375 8.957031 3.542969 C 8.957031 3.597656 8.910156 3.644531 8.855469 3.644531 Z M 8.855469 3.644531 "/>
</g>
</svg>
