<?xml version="1.0" encoding="UTF-8"?>
<svg xmlns="http://www.w3.org/2000/svg" xmlns:xlink="http://www.w3.org/1999/xlink" width="15pt" height="15pt" viewBox="0 0 15 15" version="1.1">
<g id="surface1">
<path style=" stroke:none;fill-rule:nonzero;fill:rgb(98.039216%,23.529412%,19.607843%);fill-opacity:1;" d="M 8.960938 0.167969 L 0.171875 8.957031 C 0.0117188 9.117188 0.0117188 9.378906 0.171875 9.542969 L 5.445312 14.8125 C 5.605469 14.976562 5.871094 14.976562 6.03125 14.8125 L 14.816406 6.027344 Z M 8.960938 0.167969 "/>
<path style=" stroke:none;fill-rule:nonzero;fill:rgb(86.27451%,15.686275%,17.254902%);fill-opacity:1;" d="M 14.816406 5.441406 L 9.546875 0.167969 C 9.382812 0.0078125 9.121094 0.0078125 8.960938 0.167969 L 8.503906 0.625 C 8.359375 1.726562 9.21875 3.488281 10.355469 4.628906 C 11.515625 5.789062 13.234375 6.671875 14.34375 6.5 L 14.816406 6.027344 C 14.976562 5.867188 14.976562 5.601562 14.816406 5.441406 Z M 14.816406 5.441406 "/>
<path style=" stroke:none;fill-rule:nonzero;fill:rgb(70.196078%,15.686275%,17.254902%);fill-opacity:1;" d="M 10.355469 4.628906 C 9.21875 3.492188 8.359375 1.726562 8.503906 0.625 L 7.964844 1.164062 C 8.03125 2.308594 8.925781 3.941406 9.984375 5.003906 C 11.058594 6.078125 12.640625 7 13.792969 7.050781 L 14.34375 6.5 C 13.234375 6.671875 11.515625 5.789062 10.355469 4.628906 Z M 10.355469 4.628906 "/>
<path style=" stroke:none;fill-rule:nonzero;fill:rgb(100%,91.372549%,20%);fill-opacity:1;" d="M 7.960938 7.027344 C 7.585938 6.652344 7.039062 6.441406 6.71875 6.75 C 6.703125 6.8125 6.753906 7.15625 7.292969 7.695312 C 7.832031 8.234375 8.175781 8.28125 8.238281 8.269531 C 8.546875 7.945312 8.335938 7.402344 7.960938 7.027344 Z M 7.957031 6.382812 C 7.917969 6.347656 7.902344 6.285156 7.925781 6.230469 L 8.203125 5.550781 C 8.230469 5.480469 8.316406 5.441406 8.386719 5.472656 C 8.460938 5.5 8.496094 5.582031 8.464844 5.65625 L 8.1875 6.335938 C 8.15625 6.410156 8.074219 6.445312 8.003906 6.414062 C 7.984375 6.410156 7.96875 6.398438 7.957031 6.382812 Z M 7.113281 6.074219 C 7.089844 6.050781 7.074219 6.015625 7.070312 5.980469 L 7.035156 5.195312 C 7.03125 5.117188 7.09375 5.050781 7.171875 5.042969 C 7.25 5.039062 7.316406 5.097656 7.320312 5.175781 L 7.355469 5.964844 C 7.359375 6.042969 7.296875 6.109375 7.21875 6.113281 C 7.175781 6.117188 7.140625 6.101562 7.113281 6.074219 Z M 8.601562 7.03125 C 8.589844 7.019531 8.578125 7.003906 8.570312 6.984375 C 8.542969 6.910156 8.578125 6.828125 8.652344 6.800781 L 9.332031 6.523438 C 9.402344 6.492188 9.484375 6.527344 9.515625 6.597656 C 9.542969 6.671875 9.507812 6.753906 9.433594 6.785156 L 8.753906 7.0625 C 8.699219 7.082031 8.640625 7.070312 8.601562 7.03125 Z M 8.914062 7.875 C 8.886719 7.847656 8.871094 7.808594 8.875 7.769531 C 8.878906 7.691406 8.945312 7.628906 9.023438 7.632812 L 9.808594 7.667969 C 9.886719 7.671875 9.949219 7.738281 9.941406 7.816406 C 9.9375 7.894531 9.871094 7.953125 9.792969 7.953125 L 9.007812 7.914062 C 8.96875 7.914062 8.9375 7.898438 8.914062 7.875 Z M 8.914062 7.875 "/>
<path style=" stroke:none;fill-rule:nonzero;fill:rgb(100%,91.372549%,20%);fill-opacity:1;" d="M 6.523438 6.546875 C 6.207031 6.140625 6.03125 5.847656 5.96875 5.738281 C 5.800781 6.097656 5.804688 6.503906 5.988281 6.957031 C 6.214844 7.523438 6.644531 7.992188 6.820312 8.164062 C 6.996094 8.339844 7.464844 8.773438 8.03125 9 C 8.484375 9.183594 8.890625 9.1875 9.25 9.019531 C 9.140625 8.957031 8.84375 8.777344 8.4375 8.464844 L 8.425781 8.476562 C 8.238281 8.664062 7.71875 8.527344 7.089844 7.894531 C 6.460938 7.265625 6.320312 6.746094 6.511719 6.558594 Z M 6.523438 6.546875 "/>
<path style=" stroke:none;fill-rule:nonzero;fill:rgb(100%,91.372549%,20%);fill-opacity:1;" d="M 6.621094 8.367188 C 5.878906 7.628906 5.332031 6.617188 5.664062 5.730469 C 5.542969 5.777344 5.382812 5.871094 5.207031 6.042969 C 4.203125 7.046875 5.160156 8.535156 5.808594 9.179688 C 6.453125 9.828125 7.9375 10.78125 8.941406 9.777344 C 9.117188 9.605469 9.207031 9.445312 9.257812 9.324219 C 8.371094 9.65625 7.359375 9.105469 6.621094 8.367188 Z M 6.621094 8.367188 "/>
</g>
</svg>
