<?xml version="1.0" encoding="UTF-8"?>
<svg xmlns="http://www.w3.org/2000/svg" xmlns:xlink="http://www.w3.org/1999/xlink" width="15pt" height="15pt" viewBox="0 0 15 15" version="1.1">
<g id="surface1">
<path style=" stroke:none;fill-rule:nonzero;fill:rgb(33.333333%,67.45098%,93.333333%);fill-opacity:1;" d="M 12.5 3.75 C 12.082031 2.917969 10.417969 2.082031 9.582031 2.082031 C 9.582031 2.082031 10.082031 1.175781 9.167969 0.832031 C 8.753906 0.679688 8.332031 0.625 7.5 0.625 C 6.828125 0.625 6.246094 0.679688 5.832031 0.832031 C 4.917969 1.175781 5.417969 2.082031 5.417969 2.082031 C 4.582031 2.082031 2.917969 2.917969 2.5 3.75 C 2.082031 4.582031 0.417969 12.902344 0.417969 14.375 C 0.417969 14.792969 2.347656 14.972656 2.5 14.582031 C 2.828125 13.75 3.75 7.917969 3.75 7.917969 L 3.75 14.167969 C 3.75 15 5.832031 14.582031 7.5 14.582031 C 9.167969 14.582031 11.25 15 11.25 14.167969 L 11.25 7.917969 C 11.25 7.917969 12.300781 14.214844 12.5 14.582031 C 12.707031 14.96875 14.582031 14.792969 14.582031 14.375 C 14.582031 12.902344 12.917969 4.582031 12.5 3.75 Z M 12.5 3.75 "/>
<path style=" stroke:none;fill-rule:nonzero;fill:rgb(13.333333%,40%,60%);fill-opacity:1;" d="M 5.832031 1.25 C 5.832031 1.019531 5.832031 0.832031 7.5 0.832031 C 9.167969 0.832031 9.167969 1.019531 9.167969 1.25 C 9.167969 1.480469 8.421875 2.082031 7.5 2.082031 C 6.578125 2.082031 5.832031 1.480469 5.832031 1.25 Z M 5.832031 1.25 "/>
<path style=" stroke:none;fill-rule:nonzero;fill:rgb(23.137255%,53.333333%,76.470588%);fill-opacity:1;" d="M 7.5 14.375 C 7.386719 14.375 7.292969 14.28125 7.292969 14.167969 L 7.292969 2.5 C 7.292969 2.386719 7.386719 2.292969 7.5 2.292969 C 7.613281 2.292969 7.707031 2.386719 7.707031 2.5 L 7.707031 14.167969 C 7.707031 14.28125 7.613281 14.375 7.5 14.375 Z M 5.675781 13.96875 C 4.929688 13.96875 4.191406 13.894531 4.144531 13.890625 C 4.03125 13.878906 3.949219 13.777344 3.960938 13.664062 C 3.972656 13.550781 4.074219 13.464844 4.1875 13.476562 C 4.203125 13.480469 5.871094 13.644531 6.683594 13.480469 C 6.796875 13.457031 6.90625 13.53125 6.925781 13.644531 C 6.949219 13.757812 6.878906 13.867188 6.765625 13.890625 C 6.464844 13.949219 6.070312 13.96875 5.675781 13.96875 Z M 5.273438 12.683594 C 4.699219 12.683594 4.179688 12.652344 4.074219 12.644531 C 3.957031 12.636719 3.871094 12.539062 3.878906 12.421875 C 3.886719 12.308594 3.980469 12.21875 4.101562 12.230469 C 4.652344 12.265625 6.183594 12.320312 6.644531 12.136719 C 6.753906 12.09375 6.875 12.148438 6.917969 12.253906 C 6.960938 12.359375 6.90625 12.480469 6.800781 12.523438 C 6.484375 12.652344 5.851562 12.683594 5.273438 12.683594 Z M 5.78125 11.359375 C 5.09375 11.359375 4.300781 11.300781 4.070312 11.28125 C 3.953125 11.273438 3.871094 11.171875 3.878906 11.058594 C 3.886719 10.941406 3.992188 10.859375 4.101562 10.867188 C 5.175781 10.953125 6.414062 10.980469 6.632812 10.878906 C 6.738281 10.828125 6.863281 10.871094 6.910156 10.976562 C 6.960938 11.078125 6.917969 11.203125 6.8125 11.253906 C 6.644531 11.335938 6.234375 11.359375 5.78125 11.359375 Z M 5.765625 10.074219 C 5.027344 10.074219 4.203125 9.984375 4.0625 9.972656 C 3.949219 9.957031 3.867188 9.855469 3.878906 9.742188 C 3.890625 9.628906 3.992188 9.542969 4.109375 9.558594 C 4.667969 9.617188 6.214844 9.738281 6.648438 9.570312 C 6.753906 9.527344 6.875 9.582031 6.917969 9.6875 C 6.960938 9.796875 6.90625 9.914062 6.800781 9.957031 C 6.578125 10.042969 6.1875 10.074219 5.765625 10.074219 Z M 5.785156 8.605469 C 5.054688 8.605469 4.214844 8.558594 4.074219 8.550781 C 3.960938 8.542969 3.871094 8.445312 3.878906 8.328125 C 3.886719 8.214844 3.980469 8.121094 4.097656 8.132812 C 4.675781 8.167969 6.257812 8.234375 6.675781 8.140625 C 6.789062 8.113281 6.902344 8.183594 6.925781 8.296875 C 6.953125 8.410156 6.882812 8.519531 6.769531 8.546875 C 6.570312 8.589844 6.195312 8.605469 5.785156 8.605469 Z M 4.085938 7.238281 C 3.972656 7.238281 3.882812 7.085938 3.878906 6.972656 C 3.875 6.855469 3.964844 6.730469 4.082031 6.726562 L 6.71875 6.640625 C 6.820312 6.644531 6.929688 6.71875 6.929688 6.835938 C 6.933594 6.949219 6.84375 7.105469 6.726562 7.109375 L 4.089844 7.238281 Z M 6.898438 2.917969 L 6.886719 2.917969 C 6.480469 2.917969 5.808594 2.539062 5.734375 2.5 C 5.632812 2.441406 5.59375 2.320312 5.652344 2.21875 C 5.707031 2.117188 5.832031 2.082031 5.933594 2.136719 C 6.1875 2.277344 6.671875 2.5 6.90625 2.511719 C 7.019531 2.515625 7.109375 2.609375 7.105469 2.722656 C 7.097656 2.835938 7.007812 2.917969 6.898438 2.917969 Z M 11.070312 5.328125 C 11.027344 5.328125 10.984375 5.3125 10.945312 5.285156 C 10.855469 5.214844 10.835938 5.085938 10.90625 4.992188 L 11.859375 3.714844 C 11.929688 3.621094 12.058594 3.605469 12.152344 3.671875 C 12.242188 3.742188 12.261719 3.871094 12.195312 3.964844 L 11.238281 5.242188 C 11.199219 5.296875 11.136719 5.328125 11.070312 5.328125 Z M 11.070312 5.328125 "/>
<path style=" stroke:none;fill-rule:nonzero;fill:rgb(23.137255%,53.333333%,76.470588%);fill-opacity:1;" d="M 7.519531 14.375 C 7.402344 14.375 7.308594 14.28125 7.308594 14.167969 L 7.308594 2.5 C 7.308594 2.386719 7.402344 2.292969 7.519531 2.292969 C 7.632812 2.292969 7.726562 2.386719 7.726562 2.5 L 7.726562 14.167969 C 7.726562 14.28125 7.632812 14.375 7.519531 14.375 Z M 11.464844 6.558594 C 11.378906 6.558594 11.296875 6.503906 11.265625 6.414062 C 11.230469 6.308594 11.289062 6.1875 11.398438 6.152344 L 12.648438 5.734375 C 12.757812 5.699219 12.875 5.757812 12.914062 5.867188 C 12.949219 5.976562 12.890625 6.09375 12.78125 6.128906 L 11.53125 6.546875 C 11.507812 6.554688 11.488281 6.558594 11.464844 6.558594 Z M 11.71875 8.007812 C 11.632812 8.007812 11.550781 7.953125 11.523438 7.867188 C 11.484375 7.757812 11.546875 7.640625 11.652344 7.601562 L 12.902344 7.1875 C 13.015625 7.152344 13.132812 7.207031 13.167969 7.316406 C 13.203125 7.425781 13.144531 7.542969 13.035156 7.582031 L 11.785156 7.996094 C 11.765625 8.003906 11.742188 8.007812 11.71875 8.007812 Z M 11.960938 9.460938 C 11.875 9.460938 11.792969 9.40625 11.761719 9.316406 C 11.726562 9.210938 11.785156 9.089844 11.894531 9.054688 L 13.144531 8.636719 C 13.253906 8.601562 13.371094 8.660156 13.40625 8.769531 C 13.445312 8.878906 13.386719 8.996094 13.277344 9.035156 L 12.027344 9.449219 C 12.003906 9.457031 11.984375 9.460938 11.960938 9.460938 Z M 12.226562 10.914062 C 12.140625 10.914062 12.058594 10.855469 12.03125 10.769531 C 11.996094 10.660156 12.058594 10.542969 12.167969 10.507812 L 13.425781 10.109375 C 13.535156 10.074219 13.652344 10.136719 13.6875 10.246094 C 13.71875 10.355469 13.660156 10.472656 13.550781 10.507812 L 12.292969 10.90625 C 12.273438 10.910156 12.25 10.914062 12.226562 10.914062 Z M 12.476562 12.332031 C 12.390625 12.324219 12.3125 12.265625 12.289062 12.175781 C 12.261719 12.0625 12.332031 11.949219 12.441406 11.921875 L 13.722656 11.609375 C 13.835938 11.582031 13.945312 11.648438 13.972656 11.761719 C 14 11.875 13.933594 11.984375 13.820312 12.015625 L 12.542969 12.328125 C 12.519531 12.332031 12.496094 12.335938 12.476562 12.332031 Z M 12.714844 13.765625 C 12.628906 13.757812 12.554688 13.695312 12.53125 13.605469 C 12.507812 13.492188 12.578125 13.382812 12.6875 13.355469 L 13.972656 13.0625 C 14.085938 13.035156 14.195312 13.105469 14.222656 13.21875 C 14.25 13.328125 14.179688 13.441406 14.066406 13.46875 L 12.78125 13.761719 C 12.761719 13.765625 12.738281 13.769531 12.714844 13.765625 Z M 9.339844 13.96875 C 8.949219 13.96875 8.554688 13.949219 8.253906 13.890625 C 8.140625 13.867188 8.066406 13.753906 8.089844 13.644531 C 8.113281 13.53125 8.226562 13.457031 8.335938 13.480469 C 9.144531 13.644531 10.8125 13.480469 10.832031 13.476562 C 10.941406 13.464844 11.046875 13.546875 11.058594 13.664062 C 11.070312 13.777344 10.988281 13.878906 10.871094 13.890625 C 10.824219 13.894531 10.089844 13.96875 9.339844 13.96875 Z M 9.746094 12.683594 C 9.167969 12.683594 8.535156 12.652344 8.21875 12.523438 C 8.109375 12.480469 8.058594 12.359375 8.101562 12.253906 C 8.144531 12.148438 8.265625 12.09375 8.371094 12.136719 C 8.835938 12.320312 10.367188 12.265625 10.917969 12.230469 C 11.019531 12.222656 11.132812 12.308594 11.140625 12.421875 C 11.148438 12.539062 11.0625 12.636719 10.945312 12.644531 C 10.839844 12.652344 10.320312 12.683594 9.746094 12.683594 Z M 9.238281 11.359375 C 8.785156 11.359375 8.375 11.335938 8.207031 11.253906 C 8.101562 11.203125 8.058594 11.078125 8.109375 10.976562 C 8.15625 10.871094 8.28125 10.828125 8.386719 10.878906 C 8.605469 10.980469 9.84375 10.953125 10.914062 10.867188 C 11.027344 10.859375 11.128906 10.941406 11.140625 11.058594 C 11.148438 11.171875 11.0625 11.273438 10.949219 11.28125 C 10.71875 11.300781 9.925781 11.359375 9.238281 11.359375 Z M 9.253906 10.074219 C 8.832031 10.074219 8.4375 10.042969 8.21875 9.957031 C 8.113281 9.914062 8.058594 9.796875 8.101562 9.6875 C 8.144531 9.582031 8.265625 9.527344 8.371094 9.570312 C 8.800781 9.738281 10.347656 9.617188 10.910156 9.558594 C 11.023438 9.546875 11.125 9.628906 11.140625 9.742188 C 11.152344 9.855469 11.070312 9.957031 10.953125 9.972656 C 10.816406 9.984375 9.992188 10.074219 9.253906 10.074219 Z M 9.226562 8.605469 C 9.957031 8.605469 10.796875 8.558594 10.9375 8.550781 C 11.050781 8.542969 11.140625 8.445312 11.132812 8.328125 C 11.125 8.214844 11.027344 8.121094 10.914062 8.132812 C 10.335938 8.167969 8.75 8.234375 8.332031 8.140625 C 8.222656 8.113281 8.109375 8.183594 8.085938 8.296875 C 8.058594 8.410156 8.128906 8.519531 8.242188 8.546875 C 8.441406 8.589844 8.816406 8.605469 9.226562 8.605469 Z M 10.933594 7.238281 L 10.925781 7.238281 L 8.289062 7.105469 C 8.175781 7.101562 8.082031 6.972656 8.085938 6.859375 C 8.089844 6.746094 8.191406 6.644531 8.300781 6.640625 L 10.9375 6.703125 C 11.050781 6.703125 11.144531 6.859375 11.140625 6.976562 C 11.136719 7.089844 11.042969 7.238281 10.933594 7.238281 Z M 8.351562 5.730469 C 8.246094 5.730469 8.15625 5.648438 8.144531 5.542969 C 8.132812 5.429688 8.214844 5.324219 8.328125 5.3125 L 10.335938 5.105469 C 10.449219 5.09375 10.554688 5.175781 10.566406 5.292969 C 10.578125 5.40625 10.496094 5.507812 10.378906 5.519531 L 8.375 5.726562 Z M 8.386719 4.25 C 8.304688 4.25 8.226562 4.203125 8.191406 4.121094 C 8.148438 4.015625 8.203125 3.894531 8.308594 3.851562 C 8.972656 3.578125 10.847656 3.460938 10.9375 3.457031 C 11.066406 3.445312 11.148438 3.539062 11.152344 3.65625 C 11.160156 3.769531 11.070312 3.867188 10.957031 3.875 C 10.375 3.902344 8.964844 4.035156 8.464844 4.234375 C 8.4375 4.246094 8.410156 4.25 8.386719 4.25 Z M 3.957031 5.328125 C 4 5.328125 4.042969 5.3125 4.082031 5.285156 C 4.171875 5.214844 4.191406 5.085938 4.125 4.992188 L 3.167969 3.714844 C 3.097656 3.621094 2.96875 3.605469 2.875 3.671875 C 2.785156 3.742188 2.765625 3.871094 2.835938 3.964844 L 3.789062 5.242188 C 3.832031 5.296875 3.894531 5.328125 3.957031 5.328125 Z M 3.5625 6.558594 C 3.652344 6.558594 3.730469 6.503906 3.761719 6.414062 C 3.796875 6.308594 3.738281 6.1875 3.628906 6.152344 L 2.378906 5.734375 C 2.269531 5.699219 2.152344 5.757812 2.117188 5.867188 C 2.078125 5.976562 2.140625 6.09375 2.246094 6.128906 L 3.496094 6.546875 C 3.519531 6.554688 3.542969 6.558594 3.5625 6.558594 Z M 3.308594 8.007812 C 3.394531 8.007812 3.476562 7.953125 3.507812 7.867188 C 3.542969 7.757812 3.484375 7.640625 3.375 7.601562 L 2.125 7.1875 C 2.015625 7.152344 1.898438 7.207031 1.859375 7.316406 C 1.824219 7.425781 1.882812 7.542969 1.992188 7.582031 L 3.242188 7.996094 C 3.265625 8.003906 3.285156 8.007812 3.308594 8.007812 Z M 3.066406 9.460938 C 3.15625 9.460938 3.234375 9.40625 3.265625 9.316406 C 3.300781 9.210938 3.242188 9.089844 3.132812 9.054688 L 1.882812 8.636719 C 1.773438 8.601562 1.65625 8.660156 1.621094 8.769531 C 1.585938 8.878906 1.644531 8.996094 1.753906 9.035156 L 3.003906 9.449219 C 3.023438 9.457031 3.046875 9.460938 3.066406 9.460938 Z M 2.800781 10.914062 C 2.886719 10.914062 2.96875 10.855469 2.996094 10.769531 C 3.03125 10.660156 2.96875 10.542969 2.859375 10.507812 L 1.605469 10.109375 C 1.496094 10.074219 1.378906 10.136719 1.34375 10.246094 C 1.308594 10.355469 1.371094 10.472656 1.480469 10.507812 L 2.734375 10.90625 C 2.757812 10.910156 2.777344 10.914062 2.800781 10.914062 Z M 2.554688 12.332031 C 2.640625 12.324219 2.714844 12.265625 2.738281 12.175781 C 2.765625 12.0625 2.695312 11.949219 2.585938 11.921875 L 1.304688 11.609375 C 1.195312 11.582031 1.082031 11.648438 1.054688 11.761719 C 1.027344 11.875 1.09375 11.984375 1.207031 12.015625 L 2.484375 12.328125 C 2.507812 12.332031 2.53125 12.335938 2.554688 12.332031 Z M 2.3125 13.765625 C 2.398438 13.757812 2.476562 13.695312 2.496094 13.605469 C 2.519531 13.492188 2.453125 13.382812 2.339844 13.355469 L 1.054688 13.0625 C 0.941406 13.035156 0.832031 13.105469 0.804688 13.21875 C 0.78125 13.328125 0.851562 13.441406 0.960938 13.46875 L 2.246094 13.761719 C 2.269531 13.765625 2.289062 13.769531 2.3125 13.765625 Z M 6.675781 5.730469 C 6.78125 5.730469 6.871094 5.648438 6.882812 5.542969 C 6.894531 5.429688 6.8125 5.324219 6.699219 5.3125 L 4.691406 5.105469 C 4.578125 5.09375 4.472656 5.175781 4.460938 5.292969 C 4.449219 5.40625 4.535156 5.507812 4.648438 5.519531 L 6.65625 5.726562 Z M 6.640625 4.25 C 6.722656 4.25 6.804688 4.203125 6.835938 4.121094 C 6.878906 4.015625 6.828125 3.894531 6.722656 3.851562 C 6.054688 3.578125 4.179688 3.460938 4.09375 3.457031 C 3.960938 3.445312 3.878906 3.539062 3.875 3.65625 C 3.867188 3.769531 3.957031 3.867188 4.070312 3.875 C 4.652344 3.902344 6.066406 4.035156 6.5625 4.234375 C 6.589844 4.246094 6.617188 4.25 6.640625 4.25 Z M 8.121094 2.917969 C 8.011719 2.917969 7.917969 2.835938 7.914062 2.722656 C 7.90625 2.609375 7.996094 2.515625 8.113281 2.511719 C 8.34375 2.5 8.832031 2.277344 9.085938 2.136719 C 9.183594 2.082031 9.3125 2.121094 9.367188 2.222656 C 9.421875 2.320312 9.386719 2.441406 9.285156 2.496094 C 9.210938 2.539062 8.535156 2.917969 8.132812 2.917969 Z M 8.121094 2.917969 "/>
</g>
</svg>
