<?xml version="1.0" encoding="UTF-8"?>
<svg xmlns="http://www.w3.org/2000/svg" xmlns:xlink="http://www.w3.org/1999/xlink" width="15pt" height="15pt" viewBox="0 0 15 15" version="1.1">
<g id="surface1">
<path style=" stroke:none;fill-rule:nonzero;fill:rgb(33.333333%,67.45098%,93.333333%);fill-opacity:1;" d="M 11.25 8.03125 C 10.839844 8.03125 10.460938 8.152344 10.140625 8.359375 L 10.140625 10.253906 L 9.179688 10.253906 C 9.253906 11.339844 10.148438 12.199219 11.25 12.199219 C 12.398438 12.199219 13.332031 11.265625 13.332031 10.113281 L 13.332031 8.03125 Z M 11.25 8.03125 "/>
<path style=" stroke:none;fill-rule:nonzero;fill:rgb(10.980392%,38.823529%,60%);fill-opacity:1;" d="M 9.582031 9.582031 L 9.582031 2.917969 L 13.332031 2.917969 L 13.332031 9.585938 Z M 9.582031 9.582031 "/>
<path style=" stroke:none;fill-rule:nonzero;fill:rgb(10.980392%,38.823529%,60%);fill-opacity:1;" d="M 10.085938 8.9375 L 12.730469 11.585938 L 9.867188 14.453125 L 7.21875 11.804688 Z M 10.085938 8.9375 "/>
<path style=" stroke:none;fill-rule:nonzero;fill:rgb(33.333333%,67.45098%,93.333333%);fill-opacity:1;" d="M 12.5 1.667969 L 10.417969 1.667969 C 9.957031 1.667969 9.582031 2.042969 9.582031 2.5 L 9.582031 3.332031 L 13.332031 3.332031 L 13.332031 2.5 C 13.332031 2.042969 12.957031 1.667969 12.5 1.667969 Z M 6.25 6.363281 C 5.839844 6.363281 5.460938 6.488281 5.140625 6.691406 L 5.140625 8.585938 L 4.179688 8.585938 C 4.253906 9.671875 5.148438 10.53125 6.25 10.53125 C 7.398438 10.53125 8.332031 9.597656 8.332031 8.449219 L 8.332031 6.363281 Z M 6.25 6.363281 "/>
<path style=" stroke:none;fill-rule:nonzero;fill:rgb(10.980392%,38.823529%,60%);fill-opacity:1;" d="M 4.582031 7.917969 L 4.582031 1.25 L 8.332031 1.25 L 8.332031 7.917969 Z M 4.582031 7.917969 "/>
<path style=" stroke:none;fill-rule:nonzero;fill:rgb(33.333333%,67.45098%,93.333333%);fill-opacity:1;" d="M 9.863281 14.449219 C 9.132812 15.183594 7.945312 15.183594 7.214844 14.449219 C 6.480469 13.71875 6.480469 12.53125 7.214844 11.800781 C 7.214844 11.800781 7.691406 11.855469 8.75 12.914062 C 9.808594 13.972656 9.863281 14.449219 9.863281 14.449219 Z M 7.5 0 L 5.417969 0 C 4.957031 0 4.582031 0.375 4.582031 0.832031 L 4.582031 1.667969 L 8.332031 1.667969 L 8.332031 0.832031 C 8.332031 0.375 7.957031 0 7.5 0 Z M 7.5 0 "/>
<path style=" stroke:none;fill-rule:nonzero;fill:rgb(10.980392%,38.823529%,60%);fill-opacity:1;" d="M 5.085938 7.269531 L 7.730469 9.917969 L 4.867188 12.785156 L 2.21875 10.136719 Z M 5.085938 7.269531 "/>
<path style=" stroke:none;fill-rule:nonzero;fill:rgb(33.333333%,67.45098%,93.333333%);fill-opacity:1;" d="M 4.863281 12.785156 C 4.132812 13.515625 2.945312 13.515625 2.214844 12.785156 C 1.480469 12.050781 1.480469 10.863281 2.214844 10.132812 C 2.214844 10.132812 2.691406 10.1875 3.75 11.246094 C 4.808594 12.304688 4.863281 12.785156 4.863281 12.785156 Z M 4.863281 12.785156 "/>
<path style=" stroke:none;fill-rule:nonzero;fill:rgb(100%,80%,30.196078%);fill-opacity:1;" d="M 9.582031 4.195312 L 13.332031 4.195312 L 13.332031 5.027344 L 9.582031 5.027344 Z M 9.582031 5.859375 L 13.332031 5.859375 L 13.332031 6.695312 L 9.582031 6.695312 Z M 4.582031 2.527344 L 8.332031 2.527344 L 8.332031 3.359375 L 4.582031 3.359375 Z M 4.582031 4.195312 L 8.332031 4.195312 L 8.332031 5.027344 L 4.582031 5.027344 Z M 4.582031 4.195312 "/>
</g>
</svg>
