<?xml version="1.0" encoding="UTF-8"?>
<svg xmlns="http://www.w3.org/2000/svg" xmlns:xlink="http://www.w3.org/1999/xlink" width="15pt" height="15pt" viewBox="0 0 15 15" version="1.1">
<g id="surface1">
<path style=" stroke:none;fill-rule:nonzero;fill:rgb(46.666667%,69.803922%,33.333333%);fill-opacity:1;" d="M 1.257812 10.9375 L 2.6875 12.367188 L 2.304688 12.75 L 0.875 11.320312 Z M 1.257812 10.9375 "/>
<path style=" stroke:none;fill-rule:nonzero;fill:rgb(100%,85.098039%,51.372549%);fill-opacity:1;" d="M 2.652344 12.328125 L 4.082031 13.757812 L 3.695312 14.140625 L 2.265625 12.710938 Z M 2.652344 12.328125 "/>
<path style=" stroke:none;fill-rule:nonzero;fill:rgb(100%,67.45098%,20%);fill-opacity:1;" d="M 2.613281 10.097656 L 4.042969 11.527344 L 3.660156 11.914062 L 2.230469 10.484375 Z M 2.613281 10.097656 "/>
<path style=" stroke:none;fill-rule:nonzero;fill:rgb(91.764706%,34.901961%,43.137255%);fill-opacity:1;" d="M 3.75 11.234375 L 5.179688 12.664062 L 4.792969 13.046875 L 3.363281 11.617188 Z M 5.378906 7.335938 L 6.808594 8.765625 L 6.421875 9.148438 L 4.992188 7.71875 Z M 5.378906 7.335938 "/>
<path style=" stroke:none;fill-rule:nonzero;fill:rgb(100%,67.45098%,20%);fill-opacity:1;" d="M 6.511719 8.46875 L 7.941406 9.898438 L 7.558594 10.285156 L 6.128906 8.855469 Z M 6.511719 8.46875 "/>
<path style=" stroke:none;fill-rule:nonzero;fill:rgb(46.666667%,69.803922%,33.333333%);fill-opacity:1;" d="M 6.238281 5.992188 L 7.667969 7.421875 L 7.285156 7.804688 L 5.851562 6.375 Z M 6.238281 5.992188 "/>
<path style=" stroke:none;fill-rule:nonzero;fill:rgb(100%,85.098039%,51.372549%);fill-opacity:1;" d="M 7.617188 7.367188 L 9.046875 8.796875 L 8.660156 9.183594 L 7.230469 7.753906 Z M 7.617188 7.367188 "/>
<path style=" stroke:none;fill-rule:nonzero;fill:rgb(100%,67.45098%,20%);fill-opacity:1;" d="M 7.339844 4.886719 L 8.769531 6.316406 L 8.386719 6.703125 L 6.957031 5.273438 Z M 7.339844 4.886719 "/>
<path style=" stroke:none;fill-rule:nonzero;fill:rgb(91.764706%,34.901961%,43.137255%);fill-opacity:1;" d="M 8.71875 6.265625 L 10.148438 7.695312 L 9.761719 8.078125 L 8.332031 6.648438 Z M 10.160156 2.066406 L 11.589844 3.496094 L 11.207031 3.878906 L 9.777344 2.453125 Z M 10.160156 2.066406 "/>
<path style=" stroke:none;fill-rule:nonzero;fill:rgb(100%,67.45098%,20%);fill-opacity:1;" d="M 11.539062 3.445312 L 12.96875 4.875 L 12.585938 5.257812 L 11.15625 3.828125 Z M 11.539062 3.445312 "/>
<path style=" stroke:none;fill-rule:nonzero;fill:rgb(46.666667%,69.803922%,33.333333%);fill-opacity:1;" d="M 11.253906 0.9375 L 12.683594 2.367188 L 12.300781 2.753906 L 10.871094 1.324219 Z M 11.253906 0.9375 "/>
<path style=" stroke:none;fill-rule:nonzero;fill:rgb(100%,85.098039%,51.372549%);fill-opacity:1;" d="M 12.648438 2.332031 L 14.078125 3.761719 L 13.695312 4.148438 L 12.265625 2.71875 Z M 12.648438 2.332031 "/>
<path style=" stroke:none;fill-rule:nonzero;fill:rgb(57.254902%,40%,80%);fill-opacity:1;" d="M 10.382812 0.339844 C 9.335938 1.386719 9.300781 2.898438 9.386719 4.425781 C 9.59375 4.4375 9.804688 4.449219 10.011719 4.464844 C 10.175781 4.472656 10.335938 4.484375 10.496094 4.496094 C 10.410156 3.125 10.410156 1.871094 11.164062 1.117188 C 11.464844 0.824219 11.5625 0.429688 11.351562 0.214844 C 11.128906 -0.0117188 10.707031 0.0078125 10.382812 0.339844 Z M 10.382812 0.339844 "/>
<path style=" stroke:none;fill-rule:nonzero;fill:rgb(23.137255%,53.333333%,76.470588%);fill-opacity:1;" d="M 5.476562 10.6875 L 5.414062 9.578125 C 5.402344 9.394531 5.390625 9.203125 5.382812 9.023438 C 5.257812 8.902344 4.355469 8.878906 4.277344 8.957031 C 4.28125 9.140625 4.296875 9.324219 4.308594 9.507812 C 4.320312 9.71875 4.359375 10.457031 4.371094 10.617188 C 4.390625 10.996094 4.410156 11.371094 4.40625 11.722656 C 4.511719 11.832031 5.394531 11.90625 5.507812 11.792969 C 5.511719 11.429688 5.496094 11.058594 5.476562 10.6875 Z M 5.476562 10.6875 "/>
<path style=" stroke:none;fill-rule:nonzero;fill:rgb(33.333333%,67.45098%,93.333333%);fill-opacity:1;" d="M 5.507812 11.792969 L 4.40625 11.722656 C 4.394531 12.644531 4.246094 13.453125 3.703125 13.996094 C 3.484375 14.210938 3.484375 14.558594 3.703125 14.773438 C 3.808594 14.882812 3.949219 14.933594 4.089844 14.933594 C 4.230469 14.933594 4.375 14.882812 4.480469 14.773438 C 5.492188 13.765625 5.507812 11.785156 5.507812 11.792969 Z M 5.507812 11.792969 "/>
<path style=" stroke:none;fill-rule:nonzero;fill:rgb(57.254902%,40%,80%);fill-opacity:1;" d="M 10.5625 5.601562 C 10.355469 5.589844 10.144531 5.578125 9.9375 5.5625 C 9.777344 5.554688 9.613281 5.542969 9.457031 5.53125 C 9.539062 6.902344 9.539062 8.15625 8.785156 8.910156 C 8.035156 9.660156 6.78125 9.660156 5.414062 9.578125 C 5.253906 9.570312 4.515625 9.519531 4.308594 9.507812 C 2.777344 9.421875 1.265625 9.457031 0.214844 10.507812 C 0 10.722656 0 11.070312 0.214844 11.285156 C 0.324219 11.394531 0.464844 11.449219 0.605469 11.449219 C 0.746094 11.449219 0.886719 11.394531 0.996094 11.285156 C 1.746094 10.535156 3 10.535156 4.367188 10.617188 C 4.527344 10.625 5.269531 10.675781 5.476562 10.6875 C 7.003906 10.773438 8.515625 10.738281 9.566406 9.6875 C 10.617188 8.640625 10.648438 7.128906 10.5625 5.601562 Z M 10.5625 5.601562 "/>
<path style=" stroke:none;fill-rule:nonzero;fill:rgb(45.490196%,30.588235%,66.666667%);fill-opacity:1;" d="M 10.5625 5.601562 C 10.550781 5.394531 10.503906 4.652344 10.496094 4.496094 C 10.484375 4.308594 10.472656 4.121094 10.46875 3.941406 C 10.328125 3.929688 9.59375 3.882812 9.363281 3.871094 C 9.367188 4.054688 9.375 4.238281 9.386719 4.425781 C 9.398438 4.632812 9.445312 5.371094 9.457031 5.53125 C 9.476562 5.914062 9.492188 6.285156 9.488281 6.640625 C 9.628906 6.648438 10.363281 6.695312 10.589844 6.707031 C 10.597656 6.34375 10.585938 5.972656 10.5625 5.601562 Z M 10.5625 5.601562 "/>
<path style=" stroke:none;fill-rule:nonzero;fill:rgb(33.333333%,67.45098%,93.333333%);fill-opacity:1;" d="M 14.824219 3.679688 C 14.652344 3.496094 14.25 3.425781 13.871094 3.824219 C 13.117188 4.578125 11.863281 4.578125 10.496094 4.496094 C 10.335938 4.484375 9.59375 4.4375 9.386719 4.425781 C 7.859375 4.339844 6.347656 4.371094 5.300781 5.421875 C 4.375 6.347656 4.238281 7.625 4.277344 8.957031 C 4.507812 8.96875 5.242188 9.015625 5.382812 9.023438 C 5.34375 7.875 5.429688 6.851562 6.078125 6.203125 C 6.832031 5.449219 8.085938 5.449219 9.457031 5.53125 C 9.617188 5.542969 10.355469 5.589844 10.566406 5.601562 C 12.089844 5.6875 13.601562 5.652344 14.652344 4.605469 C 15.019531 4.242188 15 3.859375 14.824219 3.679688 Z M 14.824219 3.679688 "/>
</g>
</svg>
