<?xml version="1.0" encoding="UTF-8"?>
<svg xmlns="http://www.w3.org/2000/svg" xmlns:xlink="http://www.w3.org/1999/xlink" width="15pt" height="15pt" viewBox="0 0 15 15" version="1.1">
<g id="surface1">
<path style=" stroke:none;fill-rule:nonzero;fill:rgb(60%,66.666667%,70.980392%);fill-opacity:1;" d="M 0.417969 6.25 L 14.582031 6.25 L 14.582031 8.75 L 0.417969 8.75 Z M 0.417969 6.25 "/>
<path style=" stroke:none;fill-rule:nonzero;fill:rgb(60%,66.666667%,70.980392%);fill-opacity:1;" d="M 7.5 5 C 3.589844 5 0.417969 6.679688 0.417969 8.75 C 0.417969 9.191406 0.566406 9.613281 0.832031 10.007812 C 1.191406 10.539062 1.761719 11.015625 2.5 11.40625 C 3.78125 12.082031 5.546875 12.5 7.5 12.5 C 9.921875 12.5 12.054688 11.855469 13.332031 10.875 C 13.679688 10.609375 13.957031 10.316406 14.167969 10.007812 C 14.433594 9.613281 14.582031 9.191406 14.582031 8.75 C 14.582031 6.679688 11.410156 5 7.5 5 Z M 7.5 5 "/>
<path style=" stroke:none;fill-rule:nonzero;fill:rgb(88.235294%,90.980392%,92.941176%);fill-opacity:1;" d="M 0.832031 7.507812 L 0.832031 10.007812 C 1.191406 10.539062 1.761719 11.015625 2.5 11.40625 L 2.5 8.90625 C 1.761719 8.515625 1.191406 8.039062 0.832031 7.507812 Z M 14.167969 10.007812 L 14.167969 7.507812 C 13.957031 7.816406 13.679688 8.109375 13.332031 8.375 L 13.332031 10.875 C 13.679688 10.609375 13.957031 10.316406 14.167969 10.007812 Z M 14.167969 10.007812 "/>
<path style=" stroke:none;fill-rule:nonzero;fill:rgb(80%,83.921569%,86.666667%);fill-opacity:1;" d="M 14.582031 6.25 C 14.582031 4.179688 11.410156 2.5 7.5 2.5 C 3.589844 2.5 0.417969 4.179688 0.417969 6.25 C 0.417969 8.320312 3.589844 10 7.5 10 C 11.410156 10 14.582031 8.320312 14.582031 6.25 Z M 14.582031 6.25 "/>
<path style=" stroke:none;fill-rule:nonzero;fill:rgb(91.764706%,34.901961%,43.137255%);fill-opacity:1;" d="M 13.796875 6.042969 C 13.796875 4.316406 10.976562 2.917969 7.5 2.917969 C 4.023438 2.917969 1.203125 4.316406 1.203125 6.042969 C 1.203125 7.765625 4.023438 9.167969 7.5 9.167969 C 10.976562 9.167969 13.796875 7.765625 13.796875 6.042969 Z M 13.796875 6.042969 "/>
<path style=" stroke:none;fill-rule:nonzero;fill:rgb(60%,66.666667%,70.980392%);fill-opacity:1;" d="M 7.5 3.75 C 10.691406 3.75 13.324219 4.929688 13.734375 6.457031 C 13.769531 6.320312 13.796875 6.183594 13.796875 6.042969 C 13.796875 4.316406 10.976562 2.917969 7.5 2.917969 C 4.023438 2.917969 1.203125 4.316406 1.203125 6.042969 C 1.203125 6.183594 1.230469 6.320312 1.265625 6.457031 C 1.675781 4.929688 4.308594 3.75 7.5 3.75 Z M 7.5 3.75 "/>
<path style=" stroke:none;fill-rule:nonzero;fill:rgb(96.078431%,97.254902%,98.039216%);fill-opacity:1;" d="M 5.417969 5.417969 C 5.417969 5.1875 5.136719 5 4.792969 5 C 4.445312 5 4.167969 5.1875 4.167969 5.417969 C 4.167969 5.648438 4.445312 5.832031 4.792969 5.832031 C 5.136719 5.832031 5.417969 5.648438 5.417969 5.417969 Z M 5.417969 5.417969 "/>
<path style=" stroke:none;fill-rule:nonzero;fill:rgb(96.078431%,97.254902%,98.039216%);fill-opacity:1;" d="M 4.167969 6.25 C 4.167969 6.019531 3.886719 5.832031 3.542969 5.832031 C 3.195312 5.832031 2.917969 6.019531 2.917969 6.25 C 2.917969 6.480469 3.195312 6.667969 3.542969 6.667969 C 3.886719 6.667969 4.167969 6.480469 4.167969 6.25 Z M 4.167969 6.25 "/>
<path style=" stroke:none;fill-rule:nonzero;fill:rgb(96.078431%,97.254902%,98.039216%);fill-opacity:1;" d="M 7.082031 5.832031 C 7.082031 5.601562 6.804688 5.417969 6.457031 5.417969 C 6.113281 5.417969 5.832031 5.601562 5.832031 5.832031 C 5.832031 6.0625 6.113281 6.25 6.457031 6.25 C 6.804688 6.25 7.082031 6.0625 7.082031 5.832031 Z M 7.082031 5.832031 "/>
<path style=" stroke:none;fill-rule:nonzero;fill:rgb(96.078431%,97.254902%,98.039216%);fill-opacity:1;" d="M 5.417969 7.082031 C 5.417969 6.851562 5.136719 6.667969 4.792969 6.667969 C 4.445312 6.667969 4.167969 6.851562 4.167969 7.082031 C 4.167969 7.3125 4.445312 7.5 4.792969 7.5 C 5.136719 7.5 5.417969 7.3125 5.417969 7.082031 Z M 5.417969 7.082031 "/>
<path style=" stroke:none;fill-rule:nonzero;fill:rgb(96.078431%,97.254902%,98.039216%);fill-opacity:1;" d="M 9.582031 7.5 C 9.582031 7.269531 9.304688 7.082031 8.957031 7.082031 C 8.613281 7.082031 8.332031 7.269531 8.332031 7.5 C 8.332031 7.730469 8.613281 7.917969 8.957031 7.917969 C 9.304688 7.917969 9.582031 7.730469 9.582031 7.5 Z M 9.582031 7.5 "/>
</g>
</svg>
