<?xml version="1.0" encoding="UTF-8"?>
<svg xmlns="http://www.w3.org/2000/svg" xmlns:xlink="http://www.w3.org/1999/xlink" width="15pt" height="15pt" viewBox="0 0 15 15" version="1.1">
<g id="surface1">
<path style=" stroke:none;fill-rule:nonzero;fill:rgb(16.078431%,18.431373%,20%);fill-opacity:1;" d="M 13.890625 11.289062 C 13.644531 10.8125 13.25 9.363281 13.371094 8.800781 C 13.488281 8.238281 13.792969 7.144531 13.539062 6.277344 L 12.589844 3.066406 C 12.589844 3.066406 12.546875 2.441406 11.957031 2.597656 C 11.144531 2.816406 11.332031 3.449219 11.332031 3.449219 L 11.628906 4.738281 L 12.113281 5.746094 C 12.113281 5.746094 11.820312 5.832031 11.464844 4.632812 L 10.269531 0.578125 C 10.269531 0.578125 10.242188 -0.0429688 9.648438 0.105469 C 8.878906 0.300781 9.015625 0.980469 9.015625 0.980469 L 10.125 4.742188 C 9.957031 4.761719 9.933594 4.824219 9.933594 4.820312 L 8.722656 0.71875 C 8.722656 0.71875 8.757812 0.109375 8.160156 0.226562 C 7.359375 0.382812 7.453125 1.09375 7.453125 1.09375 L 8.675781 5.199219 C 8.679688 5.203125 8.476562 5.261719 8.480469 5.269531 L 7.4375 1.730469 C 7.4375 1.730469 7.460938 1.085938 6.871094 1.242188 C 6.03125 1.460938 6.179688 2.132812 6.179688 2.132812 L 7.296875 5.902344 C 7.304688 5.9375 7.109375 5.996094 7.121094 6.042969 L 6.320312 3.328125 C 6.320312 3.328125 6.355469 2.722656 5.757812 2.839844 C 4.992188 2.992188 5.152344 3.675781 5.152344 3.675781 L 6.445312 8.054688 L 6.460938 8.050781 C 6.453125 8.050781 6.492188 8.246094 6.53125 8.347656 C 6.78125 8.964844 7.113281 9.480469 7.5 9.890625 C 7.511719 9.929688 7.53125 9.96875 7.566406 10.003906 C 7.972656 10.4375 8.984375 11.785156 9.371094 13.167969 C 9.613281 14.035156 11.125 13.546875 11.464844 13.398438 C 11.914062 13.199219 11.195312 11.894531 11.148438 11.601562 C 11.101562 11.3125 11.40625 10.984375 11.605469 11.390625 C 11.804688 11.796875 11.875 13.066406 12.296875 12.988281 C 12.71875 12.910156 13.5 12.5 13.78125 12.214844 C 13.964844 12.027344 14.132812 11.765625 13.890625 11.289062 Z M 13.890625 11.289062 "/>
<path style=" stroke:none;fill-rule:nonzero;fill:rgb(40%,45.882353%,49.803922%);fill-opacity:1;" d="M 14.082031 11.210938 C 13.835938 10.734375 13.441406 9.28125 13.5625 8.71875 C 13.679688 8.160156 13.984375 7.0625 13.730469 6.199219 L 12.78125 2.988281 C 12.78125 2.988281 12.609375 2.402344 12.023438 2.574219 C 11.441406 2.75 11.613281 3.332031 11.613281 3.332031 L 11.984375 4.582031 L 12.304688 5.667969 C 12.304688 5.667969 12.011719 5.753906 11.65625 4.554688 L 10.460938 0.5 C 10.460938 0.5 10.289062 -0.0859375 9.703125 0.0859375 C 9.121094 0.257812 9.292969 0.84375 9.292969 0.84375 L 10.421875 4.675781 C 10.421875 4.667969 10.125 4.746094 10.125 4.738281 L 8.914062 0.636719 C 8.914062 0.636719 8.742188 0.0546875 8.15625 0.226562 C 7.574219 0.398438 7.746094 0.980469 7.746094 0.980469 L 8.957031 5.085938 C 8.957031 5.089844 8.667969 5.183594 8.671875 5.191406 L 7.625 1.652344 C 7.625 1.652344 7.453125 1.066406 6.871094 1.242188 C 6.285156 1.414062 6.457031 1.996094 6.457031 1.996094 L 7.570312 5.757812 C 7.578125 5.792969 7.296875 5.917969 7.3125 5.960938 L 6.511719 3.25 C 6.511719 3.25 6.339844 2.667969 5.753906 2.839844 C 5.171875 3.011719 5.34375 3.59375 5.34375 3.59375 L 6.636719 7.972656 L 6.652344 7.96875 C 6.644531 7.972656 6.683594 8.167969 6.722656 8.265625 C 6.972656 8.886719 7.304688 9.402344 7.691406 9.808594 C 7.703125 9.847656 7.722656 9.886719 7.757812 9.925781 C 8.164062 10.355469 9.171875 11.703125 9.5625 13.089844 C 9.804688 13.953125 11.316406 13.46875 11.65625 13.320312 C 12.105469 13.121094 11.386719 11.816406 11.339844 11.523438 C 11.292969 11.230469 11.597656 10.90625 11.796875 11.3125 C 11.996094 11.714844 12.066406 12.988281 12.488281 12.910156 C 12.910156 12.828125 13.691406 12.421875 13.972656 12.136719 C 14.15625 11.949219 14.328125 11.6875 14.082031 11.210938 Z M 14.082031 11.210938 "/>
<path style=" stroke:none;fill-rule:nonzero;fill:rgb(40%,45.882353%,49.803922%);fill-opacity:1;" d="M 12.394531 10.84375 C 11.9375 10.558594 10.859375 9.511719 10.671875 8.96875 C 10.488281 8.425781 10.191406 7.328125 9.527344 6.714844 L 7.070312 4.441406 C 7.070312 4.441406 6.710938 3.925781 6.289062 4.363281 C 5.703125 4.964844 6.1875 5.414062 6.1875 5.414062 L 7.101562 6.367188 L 8.03125 6.988281 C 8.03125 6.988281 7.824219 7.210938 6.90625 6.363281 L 3.804688 3.488281 C 3.804688 3.488281 3.460938 2.96875 3.03125 3.398438 C 2.46875 3.960938 2.933594 4.476562 2.933594 4.476562 L 5.808594 7.140625 C 5.675781 7.242188 5.6875 7.308594 5.683594 7.304688 L 2.546875 4.398438 C 2.546875 4.398438 2.261719 3.859375 1.808594 4.265625 C 1.203125 4.808594 1.644531 5.371094 1.644531 5.371094 L 4.796875 8.273438 C 4.800781 8.277344 4.660156 8.429688 4.664062 8.4375 L 1.957031 5.929688 C 1.957031 5.929688 1.652344 5.363281 1.222656 5.796875 C 0.613281 6.414062 1.085938 6.914062 1.085938 6.914062 L 3.972656 9.585938 C 3.996094 9.609375 3.859375 9.761719 3.890625 9.792969 L 1.816406 7.871094 C 1.816406 7.871094 1.535156 7.332031 1.082031 7.738281 C 0.5 8.261719 0.992188 8.765625 0.992188 8.765625 C 0.992188 8.765625 4.269531 11.796875 4.339844 11.867188 C 4.410156 11.941406 4.5625 12.074219 4.5625 12.074219 C 5.113281 12.539062 5.5625 12.714844 6.144531 12.921875 C 6.210938 12.945312 6.253906 12.957031 6.300781 12.972656 C 6.871094 13.136719 8.425781 13.777344 9.46875 14.769531 C 10.117188 15.386719 11.171875 14.195312 11.386719 13.894531 C 11.671875 13.496094 10.386719 12.738281 10.199219 12.511719 C 10.007812 12.285156 10.101562 11.851562 10.480469 12.097656 C 10.859375 12.34375 11.570312 13.402344 11.890625 13.117188 C 12.214844 12.832031 12.675781 12.082031 12.769531 11.695312 C 12.832031 11.441406 12.847656 11.128906 12.394531 10.84375 Z M 12.394531 10.84375 "/>
<path style=" stroke:none;fill-rule:nonzero;fill:rgb(60%,66.666667%,70.980392%);fill-opacity:1;" d="M 12.515625 10.675781 C 12.0625 10.394531 10.984375 9.347656 10.796875 8.804688 C 10.613281 8.257812 10.3125 7.164062 9.652344 6.550781 L 7.195312 4.273438 C 7.195312 4.273438 6.75 3.859375 6.335938 4.308594 C 5.921875 4.753906 6.367188 5.167969 6.367188 5.167969 L 7.324219 6.054688 L 8.15625 6.824219 C 8.15625 6.824219 7.949219 7.046875 7.03125 6.195312 L 3.929688 3.324219 C 3.929688 3.324219 3.480469 2.910156 3.066406 3.355469 C 2.652344 3.800781 3.101562 4.214844 3.101562 4.214844 L 6.035156 6.933594 C 6.027344 6.925781 5.8125 7.140625 5.808594 7.140625 L 2.671875 4.230469 C 2.671875 4.230469 2.222656 3.816406 1.808594 4.265625 C 1.394531 4.710938 1.84375 5.125 1.84375 5.125 L 4.980469 8.03125 C 4.984375 8.035156 4.785156 8.265625 4.789062 8.269531 L 2.082031 5.761719 C 2.082031 5.761719 1.636719 5.347656 1.222656 5.796875 C 0.808594 6.242188 1.253906 6.65625 1.253906 6.65625 L 4.132812 9.320312 C 4.160156 9.347656 3.984375 9.597656 4.015625 9.628906 L 1.941406 7.707031 C 1.941406 7.707031 1.496094 7.292969 1.082031 7.738281 C 0.667969 8.1875 1.113281 8.601562 1.113281 8.601562 L 4.464844 11.703125 C 4.464844 11.703125 4.601562 11.84375 4.6875 11.910156 C 5.21875 12.316406 5.707031 12.578125 6.246094 12.746094 C 6.296875 12.765625 6.375 12.792969 6.425781 12.804688 C 6.996094 12.972656 8.550781 13.609375 9.589844 14.601562 C 10.242188 15.222656 11.296875 14.03125 11.507812 13.730469 C 11.792969 13.332031 10.511719 12.574219 10.320312 12.347656 C 10.132812 12.121094 10.226562 11.683594 10.605469 11.929688 C 10.984375 12.175781 11.695312 13.234375 12.015625 12.953125 C 12.335938 12.667969 12.800781 11.917969 12.894531 11.527344 C 12.957031 11.273438 12.972656 10.960938 12.515625 10.675781 Z M 12.515625 10.675781 "/>
<path style=" stroke:none;fill-rule:nonzero;fill:rgb(40%,45.882353%,49.803922%);fill-opacity:1;" d="M 7.957031 11.511719 C 7.929688 11.511719 7.902344 11.503906 7.871094 11.492188 L 5.152344 10.289062 C 5.046875 10.246094 5 10.121094 5.046875 10.015625 C 5.09375 9.910156 5.214844 9.863281 5.320312 9.910156 L 8.042969 11.109375 C 8.148438 11.15625 8.195312 11.28125 8.148438 11.386719 C 8.113281 11.464844 8.035156 11.511719 7.957031 11.511719 Z M 8.996094 10.261719 C 8.945312 10.261719 8.890625 10.242188 8.851562 10.203125 L 6.664062 8.046875 C 6.582031 7.96875 6.578125 7.835938 6.660156 7.753906 C 6.742188 7.671875 6.871094 7.671875 6.953125 7.75 L 9.144531 9.902344 C 9.226562 9.984375 9.226562 10.117188 9.144531 10.199219 C 9.105469 10.242188 9.050781 10.261719 8.996094 10.261719 Z M 8.488281 10.867188 C 8.445312 10.867188 8.40625 10.855469 8.371094 10.832031 L 5.773438 9.0625 C 5.675781 9 5.652344 8.871094 5.714844 8.773438 C 5.78125 8.679688 5.910156 8.65625 6.007812 8.71875 L 8.605469 10.484375 C 8.699219 10.550781 8.722656 10.679688 8.660156 10.777344 C 8.617188 10.835938 8.554688 10.867188 8.488281 10.867188 Z M 8.488281 10.867188 "/>
</g>
</svg>
