<?xml version="1.0" encoding="UTF-8"?>
<svg xmlns="http://www.w3.org/2000/svg" xmlns:xlink="http://www.w3.org/1999/xlink" width="15pt" height="15pt" viewBox="0 0 15 15" version="1.1">
<g id="surface1">
<path style=" stroke:none;fill-rule:nonzero;fill:rgb(100%,90.980392%,71.372549%);fill-opacity:1;" d="M 13.75 1.667969 C 13.75 2.585938 13.003906 3.332031 12.082031 3.332031 C 11.164062 3.332031 10.417969 2.585938 10.417969 1.667969 C 10.417969 0.746094 11.164062 0 12.082031 0 C 13.003906 0 13.75 0.746094 13.75 1.667969 Z M 13.75 1.667969 "/>
<path style=" stroke:none;fill-rule:nonzero;fill:rgb(100%,85.098039%,51.372549%);fill-opacity:1;" d="M 13.332031 1.667969 C 13.332031 2.355469 12.773438 2.917969 12.082031 2.917969 C 11.394531 2.917969 10.832031 2.355469 10.832031 1.667969 C 10.832031 0.976562 11.394531 0.417969 12.082031 0.417969 C 12.773438 0.417969 13.332031 0.976562 13.332031 1.667969 Z M 13.332031 1.667969 "/>
<path style=" stroke:none;fill-rule:nonzero;fill:rgb(100%,80%,30.196078%);fill-opacity:1;" d="M 13.542969 0.207031 L 11.789062 1.371094 L 12.378906 1.960938 Z M 10.625 3.125 L 11.789062 1.371094 L 12.378906 1.960938 Z M 10.625 3.125 "/>
<path style=" stroke:none;fill-rule:nonzero;fill:rgb(100%,80%,30.196078%);fill-opacity:1;" d="M 13.542969 3.125 L 12.378906 1.371094 L 11.789062 1.960938 Z M 13.542969 3.125 "/>
<path style=" stroke:none;fill-rule:nonzero;fill:rgb(100%,80%,30.196078%);fill-opacity:1;" d="M 10.625 0.207031 L 12.378906 1.371094 L 11.789062 1.960938 Z M 10.625 0.207031 "/>
<path style=" stroke:none;fill-rule:nonzero;fill:rgb(75.686275%,41.176471%,30.980392%);fill-opacity:1;" d="M 9.582031 5.625 C 9.523438 5.625 9.464844 5.597656 9.421875 5.550781 C 9.347656 5.460938 9.363281 5.328125 9.449219 5.257812 C 11.828125 3.273438 11.875 1.679688 11.875 1.664062 C 11.875 1.550781 11.960938 1.441406 12.085938 1.457031 C 12.199219 1.460938 12.292969 1.550781 12.292969 1.667969 C 12.292969 1.738281 12.261719 3.457031 9.714844 5.578125 C 9.679688 5.609375 9.628906 5.625 9.582031 5.625 Z M 9.582031 5.625 "/>
<path style=" stroke:none;fill-rule:nonzero;fill:rgb(86.666667%,18.039216%,26.666667%);fill-opacity:1;" d="M 2.011719 14.757812 L 0.242188 12.988281 C -0.0820312 12.664062 -0.0820312 12.132812 0.242188 11.8125 L 8.199219 3.855469 C 8.523438 3.53125 9.050781 3.53125 9.375 3.855469 L 11.144531 5.625 C 11.46875 5.949219 11.46875 6.476562 11.144531 6.800781 L 3.1875 14.757812 C 2.867188 15.082031 2.335938 15.082031 2.011719 14.757812 Z M 2.011719 14.757812 "/>
<path style=" stroke:none;fill-rule:nonzero;fill:rgb(100%,80%,30.196078%);fill-opacity:1;" d="M 7.609375 4.445312 L 10.554688 7.390625 L 9.671875 8.273438 L 6.726562 5.328125 Z M 1.714844 10.335938 L 4.664062 13.285156 L 3.777344 14.167969 L 0.832031 11.222656 Z M 1.714844 10.335938 "/>
<path style=" stroke:none;fill-rule:nonzero;fill:rgb(91.764706%,34.901961%,43.137255%);fill-opacity:1;" d="M 9.375 3.855469 L 9.964844 4.445312 L 8.789062 5.625 L 8.199219 5.035156 Z M 1.421875 11.8125 L 2.011719 12.398438 L 0.832031 13.578125 L 0.242188 12.988281 Z M 7.3125 5.917969 L 7.902344 6.507812 L 2.894531 11.515625 L 2.304688 10.925781 Z M 7.3125 5.917969 "/>
<path style=" stroke:none;fill-rule:nonzero;fill:rgb(100%,85.098039%,51.372549%);fill-opacity:1;" d="M 8.199219 5.035156 L 8.789062 5.625 L 7.902344 6.507812 L 7.3125 5.917969 Z M 2.304688 10.925781 L 2.894531 11.515625 L 2.011719 12.398438 L 1.421875 11.8125 Z M 2.304688 10.925781 "/>
</g>
</svg>
