<?xml version="1.0" encoding="UTF-8"?>
<svg xmlns="http://www.w3.org/2000/svg" xmlns:xlink="http://www.w3.org/1999/xlink" width="15pt" height="15pt" viewBox="0 0 15 15" version="1.1">
<g id="surface1">
<path style=" stroke:none;fill-rule:nonzero;fill:rgb(16.862745%,48.235294%,72.54902%);fill-opacity:1;" d="M 8.871094 1.699219 C 8.511719 1.683594 8.210938 1.847656 8.203125 2.0625 C 8.191406 2.28125 8.476562 2.46875 8.835938 2.484375 C 9.195312 2.5 9.496094 2.335938 9.503906 2.121094 C 9.515625 1.902344 9.230469 1.714844 8.871094 1.699219 Z M 8.871094 1.699219 "/>
<path style=" stroke:none;fill-rule:nonzero;fill:rgb(16.078431%,18.431373%,20%);fill-opacity:1;" d="M 12.429688 11.558594 C 12.429688 11.558594 13.898438 12.136719 14.589844 11.59375 C 14.640625 11.109375 13.210938 10.746094 13.210938 10.746094 Z M 3.136719 10.644531 C 3.136719 10.644531 0.945312 13.90625 0.320312 13.347656 C 0.320312 13.347656 0.144531 12.765625 0.832031 11.589844 C 1.523438 10.414062 3.136719 10.644531 3.136719 10.644531 Z M 3.136719 10.644531 "/>
<path style=" stroke:none;fill-rule:nonzero;fill:rgb(10.980392%,38.823529%,60%);fill-opacity:1;" d="M 8.234375 2.007812 C 8.234375 2.007812 4.679688 2.1875 2.511719 8.820312 C 5.636719 8.820312 9.507812 9.050781 9.507812 9.050781 C 9.507812 9.050781 12.757812 10.710938 13.210938 10.914062 C 13.664062 11.117188 14.589844 11.59375 14.589844 11.59375 C 14.589844 11.59375 15.042969 9.289062 14.71875 7.558594 C 14.390625 5.824219 12.828125 2.082031 8.234375 2.007812 Z M 8.234375 2.007812 "/>
<path style=" stroke:none;fill-rule:nonzero;fill:rgb(10.980392%,38.823529%,60%);fill-opacity:1;" d="M 1.398438 10.484375 C 0.632812 11.753906 0.0585938 12.910156 0.320312 13.347656 C 0.320312 13.347656 0.234375 13.027344 0.644531 12.664062 C 1.015625 12.335938 1.8125 12.03125 3.335938 12.03125 C 5.640625 12.03125 8.753906 13.90625 10.050781 14.347656 C 11.042969 14.6875 11.25 14.425781 11.796875 13.828125 C 12.378906 13.1875 13.34375 10.953125 13.34375 10.953125 C 13.34375 10.953125 10.234375 9.242188 8.398438 8.566406 C 6.566406 7.890625 6.167969 7.972656 5.585938 7.980469 C 4.3125 8.003906 3.371094 8.261719 2.511719 8.820312 C 2.511719 8.820312 1.890625 9.667969 1.398438 10.484375 Z M 1.398438 10.484375 "/>
<path style=" stroke:none;fill-rule:nonzero;fill:rgb(31.372549%,64.705882%,90.196078%);fill-opacity:1;" d="M 12.746094 4.722656 C 12.492188 3.289062 11.074219 2.609375 11.074219 2.609375 C 10.285156 2.242188 9.339844 2.007812 8.214844 1.988281 C 8.214844 1.988281 3.132812 1.945312 2.511719 8.820312 C 2.511719 8.820312 3.570312 8.355469 5.8125 8.488281 C 8.855469 8.671875 11.820312 10.203125 12.472656 10.496094 C 12.820312 9.335938 13.042969 6.410156 12.746094 4.722656 Z M 12.746094 4.722656 "/>
</g>
</svg>
