<?xml version="1.0" encoding="UTF-8"?>
<svg xmlns="http://www.w3.org/2000/svg" xmlns:xlink="http://www.w3.org/1999/xlink" width="15pt" height="15pt" viewBox="0 0 15 15" version="1.1">
<g id="surface1">
<path style=" stroke:none;fill-rule:nonzero;fill:rgb(31.372549%,64.705882%,90.196078%);fill-opacity:1;" d="M 10.871094 1.921875 C 10.664062 2.128906 10.609375 2.269531 10.570312 2.351562 C 10.292969 2.878906 9.960938 3.046875 9.410156 2.496094 C 9.355469 2.441406 7.707031 0.71875 7.433594 0.40625 C 7.257812 0.203125 6.984375 0.140625 6.773438 0.296875 C 6.617188 0.417969 5.09375 1.660156 4.675781 2.175781 C 4.355469 2.574219 4.34375 3.0625 4.644531 3.363281 C 4.78125 3.5 4.945312 3.550781 5.125 3.605469 C 5.355469 3.675781 5.859375 3.632812 6.152344 3.929688 C 6.625 4.402344 6.378906 5.148438 5.769531 5.769531 C 5.148438 6.378906 4.402344 6.625 3.929688 6.152344 C 3.632812 5.859375 3.675781 5.355469 3.605469 5.125 C 3.550781 4.945312 3.5 4.78125 3.363281 4.644531 C 3.066406 4.34375 2.574219 4.355469 2.175781 4.675781 C 1.660156 5.09375 0.417969 6.617188 0.296875 6.773438 C 0.140625 6.984375 0.203125 7.257812 0.40625 7.433594 C 0.71875 7.707031 2.441406 9.355469 2.496094 9.410156 C 3.046875 9.960938 2.878906 10.292969 2.351562 10.570312 C 2.269531 10.609375 2.128906 10.664062 1.921875 10.871094 C 1.3125 11.480469 1.3125 12.46875 1.921875 13.078125 C 2.53125 13.6875 3.519531 13.6875 4.128906 13.078125 C 4.335938 12.871094 4.390625 12.730469 4.429688 12.648438 C 4.707031 12.121094 5.039062 11.953125 5.589844 12.503906 C 5.644531 12.558594 7.292969 14.28125 7.566406 14.59375 C 7.742188 14.796875 8.015625 14.859375 8.226562 14.703125 C 8.382812 14.582031 9.90625 13.339844 10.324219 12.824219 C 10.644531 12.425781 10.65625 11.9375 10.355469 11.636719 C 10.21875 11.5 10.054688 11.449219 9.875 11.394531 C 9.644531 11.324219 9.140625 11.367188 8.847656 11.070312 C 8.375 10.597656 8.621094 9.851562 9.230469 9.230469 C 9.851562 8.621094 10.597656 8.375 11.070312 8.847656 C 11.367188 9.140625 11.324219 9.644531 11.394531 9.875 C 11.449219 10.054688 11.5 10.21875 11.636719 10.355469 C 11.933594 10.65625 12.425781 10.644531 12.824219 10.324219 C 13.339844 9.90625 14.582031 8.382812 14.703125 8.226562 C 14.859375 8.015625 14.796875 7.742188 14.59375 7.566406 C 14.28125 7.292969 12.558594 5.644531 12.503906 5.589844 C 11.953125 5.039062 12.121094 4.707031 12.648438 4.429688 C 12.730469 4.390625 12.871094 4.335938 13.078125 4.128906 C 13.6875 3.519531 13.6875 2.53125 13.078125 1.921875 C 12.46875 1.3125 11.480469 1.3125 10.871094 1.921875 Z M 10.871094 1.921875 "/>
</g>
</svg>
