<?xml version="1.0" encoding="UTF-8"?>
<svg xmlns="http://www.w3.org/2000/svg" xmlns:xlink="http://www.w3.org/1999/xlink" width="15pt" height="15pt" viewBox="0 0 15 15" version="1.1">
<g id="surface1">
<path style=" stroke:none;fill-rule:nonzero;fill:rgb(95.686275%,56.470588%,4.705882%);fill-opacity:1;" d="M 15 7.5 C 15 11.640625 11.640625 15 7.5 15 C 3.359375 15 0 11.640625 0 7.5 C 0 3.359375 3.359375 0 7.5 0 C 11.640625 0 15 3.359375 15 7.5 Z M 15 7.5 "/>
<path style=" stroke:none;fill-rule:nonzero;fill:rgb(100%,85.098039%,51.372549%);fill-opacity:1;" d="M 13.542969 7.5 C 13.542969 10.835938 10.835938 13.542969 7.5 13.542969 C 4.164062 13.542969 1.457031 10.835938 1.457031 7.5 C 1.457031 4.164062 4.164062 1.457031 7.5 1.457031 C 10.835938 1.457031 13.542969 4.164062 13.542969 7.5 Z M 13.542969 7.5 "/>
<path style=" stroke:none;fill-rule:nonzero;fill:rgb(96.078431%,97.254902%,98.039216%);fill-opacity:1;" d="M 12.917969 7.5 C 12.917969 10.492188 10.492188 12.917969 7.5 12.917969 C 4.507812 12.917969 2.082031 10.492188 2.082031 7.5 C 2.082031 4.507812 4.507812 2.082031 7.5 2.082031 C 10.492188 2.082031 12.917969 4.507812 12.917969 7.5 Z M 12.917969 7.5 "/>
<path style=" stroke:none;fill-rule:nonzero;fill:rgb(80%,83.921569%,86.666667%);fill-opacity:1;" d="M 7.5 3.332031 L 8.136719 5.960938 L 10.445312 4.554688 L 9.039062 6.863281 L 11.667969 7.5 L 9.039062 8.136719 L 10.445312 10.445312 L 8.136719 9.039062 L 7.5 11.667969 L 6.863281 9.039062 L 4.554688 10.445312 L 5.960938 8.136719 L 3.332031 7.5 L 5.960938 6.863281 L 4.554688 4.554688 L 6.863281 5.960938 Z M 7.5 3.332031 "/>
<path style=" stroke:none;fill-rule:nonzero;fill:rgb(16.078431%,18.431373%,20%);fill-opacity:1;" d="M 7.226562 8.644531 L 10.882812 10.886719 L 8.640625 7.230469 Z M 7.226562 8.644531 "/>
<path style=" stroke:none;fill-rule:nonzero;fill:rgb(86.666667%,18.039216%,26.666667%);fill-opacity:1;" d="M 7.773438 6.359375 L 4.117188 4.121094 L 6.359375 7.777344 Z M 7.773438 6.359375 "/>
<path style=" stroke:none;fill-rule:nonzero;fill:rgb(53.333333%,60%,65.098039%);fill-opacity:1;" d="M 8.773438 7.503906 C 8.773438 8.207031 8.203125 8.777344 7.5 8.777344 C 6.796875 8.777344 6.226562 8.207031 6.226562 7.503906 C 6.226562 6.800781 6.796875 6.230469 7.5 6.230469 C 8.203125 6.230469 8.773438 6.800781 8.773438 7.503906 Z M 8.773438 7.503906 "/>
<path style=" stroke:none;fill-rule:nonzero;fill:rgb(96.078431%,97.254902%,98.039216%);fill-opacity:1;" d="M 8.1875 7.503906 C 8.1875 7.882812 7.878906 8.191406 7.5 8.191406 C 7.121094 8.191406 6.8125 7.882812 6.8125 7.503906 C 6.8125 7.125 7.121094 6.816406 7.5 6.816406 C 7.878906 6.816406 8.1875 7.125 8.1875 7.503906 Z M 8.1875 7.503906 "/>
</g>
</svg>
