<?xml version="1.0" encoding="UTF-8"?>
<svg xmlns="http://www.w3.org/2000/svg" xmlns:xlink="http://www.w3.org/1999/xlink" width="15pt" height="15pt" viewBox="0 0 15 15" version="1.1">
<g id="surface1">
<path style=" stroke:none;fill-rule:nonzero;fill:rgb(95.686275%,56.470588%,4.705882%);fill-opacity:1;" d="M 14.863281 7.761719 C 14.890625 8.089844 14.871094 10.222656 14.867188 10.300781 C 14.867188 10.355469 14.863281 10.414062 14.855469 10.476562 C 14.597656 13.160156 12.382812 14.785156 9.777344 14.382812 C 7.253906 13.992188 6.054688 12.089844 4.804688 10.839844 C 3.554688 9.589844 0.691406 9.511719 0.265625 8.046875 C 0.171875 7.710938 0.132812 7.394531 0.144531 7.101562 C 0.148438 6.996094 0.0859375 5.003906 0.160156 4.53125 C 0.300781 3.621094 14.746094 6.113281 14.863281 7.761719 Z M 14.863281 7.761719 "/>
<path style=" stroke:none;fill-rule:nonzero;fill:rgb(100%,80%,30.196078%);fill-opacity:1;" d="M 1.964844 2.023438 C 3.425781 1.136719 5.699219 1.070312 7.175781 2.542969 C 8.425781 3.792969 8.941406 4.144531 11.027344 4.5625 C 13.109375 4.980469 15.039062 6.035156 14.855469 7.933594 C 14.597656 10.621094 12.382812 12.242188 9.777344 11.839844 C 7.253906 11.449219 6.054688 9.550781 4.804688 8.300781 C 3.554688 7.050781 0.691406 6.972656 0.265625 5.507812 C -0.195312 3.90625 0.683594 2.804688 1.964844 2.023438 Z M 1.964844 2.023438 "/>
<path style=" stroke:none;fill-rule:nonzero;fill:rgb(100%,67.45098%,20%);fill-opacity:1;" d="M 5.839844 5.878906 C 5.839844 6.222656 5.558594 6.503906 5.214844 6.503906 C 4.867188 6.503906 4.589844 6.222656 4.589844 5.878906 C 4.589844 5.53125 4.867188 5.253906 5.214844 5.253906 C 5.558594 5.253906 5.839844 5.53125 5.839844 5.878906 Z M 5.839844 5.878906 "/>
<path style=" stroke:none;fill-rule:nonzero;fill:rgb(100%,67.45098%,20%);fill-opacity:1;" d="M 12.503906 10.746094 C 12.503906 10.976562 12.320312 11.164062 12.089844 11.164062 C 11.859375 11.164062 11.671875 10.976562 11.671875 10.746094 C 11.671875 10.515625 11.859375 10.332031 12.089844 10.332031 C 12.320312 10.332031 12.503906 10.515625 12.503906 10.746094 Z M 12.503906 10.746094 "/>
<path style=" stroke:none;fill-rule:nonzero;fill:rgb(100%,67.45098%,20%);fill-opacity:1;" d="M 7.503906 10.042969 C 7.503906 10.273438 7.320312 10.460938 7.089844 10.460938 C 6.859375 10.460938 6.671875 10.273438 6.671875 10.042969 C 6.671875 9.8125 6.859375 9.628906 7.089844 9.628906 C 7.320312 9.628906 7.503906 9.8125 7.503906 10.042969 Z M 7.503906 10.042969 "/>
<path style=" stroke:none;fill-rule:nonzero;fill:rgb(100%,67.45098%,20%);fill-opacity:1;" d="M 10.839844 10.332031 C 10.839844 10.675781 10.558594 10.957031 10.214844 10.957031 C 9.867188 10.957031 9.589844 10.675781 9.589844 10.332031 C 9.589844 9.984375 9.867188 9.707031 10.214844 9.707031 C 10.558594 9.707031 10.839844 9.984375 10.839844 10.332031 Z M 10.839844 10.332031 "/>
<path style=" stroke:none;fill-rule:nonzero;fill:rgb(100%,67.45098%,20%);fill-opacity:1;" d="M 13.886719 9.003906 C 13.886719 9.347656 13.605469 9.628906 13.261719 9.628906 C 12.914062 9.628906 12.636719 9.347656 12.636719 9.003906 C 12.636719 8.65625 12.914062 8.378906 13.261719 8.378906 C 13.605469 8.378906 13.886719 8.65625 13.886719 9.003906 Z M 13.886719 9.003906 "/>
<path style=" stroke:none;fill-rule:nonzero;fill:rgb(100%,67.45098%,20%);fill-opacity:1;" d="M 12.503906 7.675781 C 12.503906 7.90625 12.320312 8.089844 12.089844 8.089844 C 11.859375 8.089844 11.671875 7.90625 11.671875 7.675781 C 11.671875 7.445312 11.859375 7.257812 12.089844 7.257812 C 12.320312 7.257812 12.503906 7.445312 12.503906 7.675781 Z M 12.503906 7.675781 "/>
<path style=" stroke:none;fill-rule:nonzero;fill:rgb(100%,67.45098%,20%);fill-opacity:1;" d="M 10.839844 8.480469 C 10.839844 8.710938 10.652344 8.898438 10.421875 8.898438 C 10.191406 8.898438 10.003906 8.710938 10.003906 8.480469 C 10.003906 8.25 10.191406 8.066406 10.421875 8.066406 C 10.652344 8.066406 10.839844 8.25 10.839844 8.480469 Z M 10.839844 8.480469 "/>
<path style=" stroke:none;fill-rule:nonzero;fill:rgb(100%,67.45098%,20%);fill-opacity:1;" d="M 8.546875 8.898438 C 8.546875 9.128906 8.359375 9.316406 8.128906 9.316406 C 7.898438 9.316406 7.714844 9.128906 7.714844 8.898438 C 7.714844 8.667969 7.898438 8.480469 8.128906 8.480469 C 8.359375 8.480469 8.546875 8.667969 8.546875 8.898438 Z M 8.546875 8.898438 "/>
<path style=" stroke:none;fill-rule:nonzero;fill:rgb(100%,67.45098%,20%);fill-opacity:1;" d="M 5.839844 8.585938 C 5.839844 8.242188 5.558594 7.960938 5.214844 7.960938 C 5.007812 7.960938 4.824219 8.0625 4.710938 8.21875 C 4.742188 8.246094 4.777344 8.269531 4.804688 8.300781 C 5.054688 8.546875 5.300781 8.824219 5.558594 9.109375 C 5.726562 8.996094 5.839844 8.804688 5.839844 8.585938 Z M 5.839844 8.585938 "/>
<path style=" stroke:none;fill-rule:nonzero;fill:rgb(100%,67.45098%,20%);fill-opacity:1;" d="M 4.40625 6.839844 C 4.40625 7.070312 4.21875 7.257812 3.988281 7.257812 C 3.757812 7.257812 3.574219 7.070312 3.574219 6.839844 C 3.574219 6.609375 3.757812 6.425781 3.988281 6.425781 C 4.21875 6.425781 4.40625 6.609375 4.40625 6.839844 Z M 4.40625 6.839844 "/>
<path style=" stroke:none;fill-rule:nonzero;fill:rgb(100%,67.45098%,20%);fill-opacity:1;" d="M 7.089844 7.257812 C 7.089844 7.488281 6.902344 7.675781 6.671875 7.675781 C 6.441406 7.675781 6.253906 7.488281 6.253906 7.257812 C 6.253906 7.027344 6.441406 6.839844 6.671875 6.839844 C 6.902344 6.839844 7.089844 7.027344 7.089844 7.257812 Z M 7.089844 7.257812 "/>
<path style=" stroke:none;fill-rule:nonzero;fill:rgb(100%,67.45098%,20%);fill-opacity:1;" d="M 10.839844 5.667969 C 10.839844 6.015625 10.558594 6.292969 10.214844 6.292969 C 9.867188 6.292969 9.589844 6.015625 9.589844 5.667969 C 9.589844 5.324219 9.867188 5.042969 10.214844 5.042969 C 10.558594 5.042969 10.839844 5.324219 10.839844 5.667969 Z M 10.839844 5.667969 "/>
<path style=" stroke:none;fill-rule:nonzero;fill:rgb(100%,67.45098%,20%);fill-opacity:1;" d="M 9.378906 7.257812 C 9.378906 7.601562 9.101562 7.882812 8.753906 7.882812 C 8.410156 7.882812 8.128906 7.601562 8.128906 7.257812 C 8.128906 6.914062 8.410156 6.632812 8.753906 6.632812 C 9.101562 6.632812 9.378906 6.914062 9.378906 7.257812 Z M 9.378906 7.257812 "/>
<path style=" stroke:none;fill-rule:nonzero;fill:rgb(100%,67.45098%,20%);fill-opacity:1;" d="M 5.421875 4.210938 C 5.421875 4.441406 5.234375 4.628906 5.003906 4.628906 C 4.773438 4.628906 4.589844 4.441406 4.589844 4.210938 C 4.589844 3.980469 4.773438 3.792969 5.003906 3.792969 C 5.234375 3.792969 5.421875 3.980469 5.421875 4.210938 Z M 5.421875 4.210938 "/>
<path style=" stroke:none;fill-rule:nonzero;fill:rgb(100%,67.45098%,20%);fill-opacity:1;" d="M 8.964844 4.628906 C 8.964844 4.859375 8.777344 5.042969 8.546875 5.042969 C 8.316406 5.042969 8.128906 4.859375 8.128906 4.628906 C 8.128906 4.398438 8.316406 4.210938 8.546875 4.210938 C 8.777344 4.210938 8.964844 4.398438 8.964844 4.628906 Z M 8.964844 4.628906 "/>
<path style=" stroke:none;fill-rule:nonzero;fill:rgb(100%,67.45098%,20%);fill-opacity:1;" d="M 6.464844 3.273438 C 6.464844 3.503906 6.277344 3.691406 6.046875 3.691406 C 5.816406 3.691406 5.628906 3.503906 5.628906 3.273438 C 5.628906 3.042969 5.816406 2.855469 6.046875 2.855469 C 6.277344 2.855469 6.464844 3.042969 6.464844 3.273438 Z M 6.464844 3.273438 "/>
<path style=" stroke:none;fill-rule:nonzero;fill:rgb(100%,67.45098%,20%);fill-opacity:1;" d="M 3.574219 5.253906 C 3.574219 5.484375 3.386719 5.667969 3.15625 5.667969 C 2.925781 5.667969 2.738281 5.484375 2.738281 5.253906 C 2.738281 5.023438 2.925781 4.835938 3.15625 4.835938 C 3.386719 4.835938 3.574219 5.023438 3.574219 5.253906 Z M 3.574219 5.253906 "/>
<path style=" stroke:none;fill-rule:nonzero;fill:rgb(100%,67.45098%,20%);fill-opacity:1;" d="M 2.921875 2.855469 C 2.921875 3.085938 2.734375 3.273438 2.503906 3.273438 C 2.273438 3.273438 2.089844 3.085938 2.089844 2.855469 C 2.089844 2.625 2.273438 2.441406 2.503906 2.441406 C 2.734375 2.441406 2.921875 2.625 2.921875 2.855469 Z M 2.921875 2.855469 "/>
<path style=" stroke:none;fill-rule:nonzero;fill:rgb(100%,67.45098%,20%);fill-opacity:1;" d="M 12.324219 5.878906 C 12.324219 6.109375 12.136719 6.292969 11.90625 6.292969 C 11.675781 6.292969 11.488281 6.109375 11.488281 5.878906 C 11.488281 5.648438 11.675781 5.460938 11.90625 5.460938 C 12.136719 5.460938 12.324219 5.648438 12.324219 5.878906 Z M 12.324219 5.878906 "/>
<path style=" stroke:none;fill-rule:nonzero;fill:rgb(100%,67.45098%,20%);fill-opacity:1;" d="M 14.300781 7.257812 C 14.300781 7.488281 14.117188 7.675781 13.886719 7.675781 C 13.65625 7.675781 13.46875 7.488281 13.46875 7.257812 C 13.46875 7.027344 13.65625 6.839844 13.886719 6.839844 C 14.117188 6.839844 14.300781 7.027344 14.300781 7.257812 Z M 14.300781 7.257812 "/>
<path style=" stroke:none;fill-rule:nonzero;fill:rgb(100%,67.45098%,20%);fill-opacity:1;" d="M 1.984375 4.417969 C 1.984375 4.765625 1.703125 5.042969 1.359375 5.042969 C 1.015625 5.042969 0.734375 4.765625 0.734375 4.417969 C 0.734375 4.074219 1.015625 3.792969 1.359375 3.792969 C 1.703125 3.792969 1.984375 4.074219 1.984375 4.417969 Z M 1.984375 4.417969 "/>
<path style=" stroke:none;fill-rule:nonzero;fill:rgb(100%,67.45098%,20%);fill-opacity:1;" d="M 5.03125 2.441406 C 5.03125 2.785156 4.75 3.066406 4.40625 3.066406 C 4.0625 3.066406 3.78125 2.785156 3.78125 2.441406 C 3.78125 2.09375 4.0625 1.816406 4.40625 1.816406 C 4.75 1.816406 5.03125 2.09375 5.03125 2.441406 Z M 5.03125 2.441406 "/>
<path style=" stroke:none;fill-rule:nonzero;fill:rgb(100%,67.45098%,20%);fill-opacity:1;" d="M 7.503906 4.628906 C 7.503906 4.972656 7.226562 5.253906 6.878906 5.253906 C 6.535156 5.253906 6.253906 4.972656 6.253906 4.628906 C 6.253906 4.28125 6.535156 4.003906 6.878906 4.003906 C 7.226562 4.003906 7.503906 4.28125 7.503906 4.628906 Z M 7.503906 4.628906 "/>
<path style=" stroke:none;fill-rule:nonzero;fill:rgb(100%,67.45098%,20%);fill-opacity:1;" d="M 8.128906 10.878906 C 7.960938 10.878906 7.804688 10.945312 7.695312 11.054688 C 8.015625 11.257812 8.363281 11.433594 8.75 11.574219 C 8.75 11.550781 8.753906 11.527344 8.753906 11.503906 C 8.753906 11.15625 8.476562 10.878906 8.128906 10.878906 Z M 1.984375 6.503906 C 1.984375 6.273438 1.796875 6.085938 1.566406 6.085938 C 1.34375 6.085938 1.160156 6.265625 1.152344 6.492188 C 1.359375 6.609375 1.585938 6.71875 1.828125 6.820312 C 1.921875 6.746094 1.984375 6.632812 1.984375 6.503906 Z M 1.984375 6.503906 "/>
</g>
</svg>
