<?xml version="1.0" encoding="UTF-8"?>
<svg xmlns="http://www.w3.org/2000/svg" xmlns:xlink="http://www.w3.org/1999/xlink" width="15pt" height="15pt" viewBox="0 0 15 15" version="1.1">
<g id="surface1">
<path style=" stroke:none;fill-rule:nonzero;fill:rgb(75.686275%,41.176471%,30.980392%);fill-opacity:1;" d="M 7.988281 7.011719 C 7.695312 6.714844 7.695312 6.234375 7.988281 5.941406 L 13.515625 0.417969 C 13.808594 0.121094 14.289062 0.121094 14.582031 0.417969 C 14.878906 0.710938 14.878906 1.191406 14.582031 1.484375 L 9.058594 7.011719 C 8.765625 7.304688 8.285156 7.304688 7.988281 7.011719 Z M 7.988281 7.011719 "/>
<path style=" stroke:none;fill-rule:nonzero;fill:rgb(40%,45.882353%,49.803922%);fill-opacity:1;" d="M 3.683594 11.402344 L 3.597656 11.316406 C 3.207031 10.925781 3.207031 10.285156 3.597656 9.890625 L 7.078125 6.414062 C 7.46875 6.019531 8.109375 6.019531 8.503906 6.414062 L 8.585938 6.496094 C 8.980469 6.890625 8.980469 7.53125 8.585938 7.921875 L 5.109375 11.402344 C 4.714844 11.792969 4.074219 11.792969 3.683594 11.402344 Z M 3.683594 11.402344 "/>
<path style=" stroke:none;fill-rule:nonzero;fill:rgb(100%,80%,30.196078%);fill-opacity:1;" d="M 8.078125 10.976562 C 8.78125 10.273438 8.359375 8.707031 7.324219 7.675781 C 6.292969 6.640625 4.726562 6.21875 4.023438 6.921875 L 0 10.898438 L 4.101562 15 Z M 8.078125 10.976562 "/>
<path style=" stroke:none;fill-rule:nonzero;fill:rgb(100%,67.45098%,20%);fill-opacity:1;" d="M 0.839844 11.742188 L 4.449219 8.132812 L 4.691406 8.375 L 1.082031 11.984375 Z M 1.566406 12.464844 L 5.175781 8.859375 L 5.417969 9.101562 L 1.808594 12.707031 Z M 2.292969 13.191406 L 5.898438 9.582031 L 6.140625 9.824219 L 2.53125 13.433594 Z M 3.015625 13.917969 L 6.625 10.308594 L 6.867188 10.550781 L 3.257812 14.15625 Z M 3.015625 13.917969 "/>
<path style=" stroke:none;fill-rule:nonzero;fill:rgb(33.333333%,67.45098%,93.333333%);fill-opacity:1;" d="M 4.113281 6.847656 C 4.085938 6.871094 4.050781 6.894531 4.023438 6.921875 L 3.109375 7.824219 L 7.175781 11.890625 L 8.078125 10.976562 C 8.105469 10.949219 8.128906 10.914062 8.152344 10.886719 Z M 4.113281 6.847656 "/>
<path style=" stroke:none;fill-rule:nonzero;fill:rgb(13.333333%,40%,60%);fill-opacity:1;" d="M 3.699219 7.59375 L 3.796875 7.355469 L 7.640625 11.199219 L 7.402344 11.296875 Z M 3.699219 7.59375 "/>
</g>
</svg>
