<?xml version="1.0" encoding="UTF-8"?>
<svg xmlns="http://www.w3.org/2000/svg" xmlns:xlink="http://www.w3.org/1999/xlink" width="15pt" height="15pt" viewBox="0 0 15 15" version="1.1">
<g id="surface1">
<path style=" stroke:none;fill-rule:nonzero;fill:rgb(75.686275%,41.176471%,30.980392%);fill-opacity:1;" d="M 10.417969 9.167969 L 10.3125 9.167969 C 10.378906 8.835938 10.417969 8.484375 10.417969 8.125 C 10.417969 5.9375 9.109375 4.167969 7.5 4.167969 C 5.890625 4.167969 4.582031 5.9375 4.582031 8.125 C 4.582031 8.484375 4.621094 8.835938 4.6875 9.167969 L 4.582031 9.167969 C 3.75 10.417969 3.957031 12.523438 4.632812 12.917969 C 7.5 14.582031 5.832031 12.082031 7.5 12.082031 C 9.167969 12.082031 7.5 14.582031 10.367188 12.917969 C 11.042969 12.523438 11.25 10.417969 10.417969 9.167969 Z M 10.417969 9.167969 "/>
<path style=" stroke:none;fill-rule:nonzero;fill:rgb(75.686275%,41.176471%,30.980392%);fill-opacity:1;" d="M 9.859375 8.523438 C 9.789062 7.878906 9.992188 7.039062 9.96875 6.335938 C 9.390625 6.789062 8.3125 7.082031 7.5 7.082031 C 6.6875 7.082031 5.621094 6.789062 5.042969 6.335938 C 5.015625 7.039062 5.210938 7.878906 5.140625 8.523438 C 4.949219 10.191406 6.121094 11.515625 7.5 11.515625 C 8.878906 11.515625 10.050781 10.191406 9.859375 8.523438 Z M 9.859375 8.523438 "/>
<path style=" stroke:none;fill-rule:nonzero;fill:rgb(75.686275%,41.176471%,30.980392%);fill-opacity:1;" d="M 5.15625 5.832031 C 5.15625 5.832031 3.070312 6.25 2.65625 8.75 C 2.238281 11.25 4.078125 11.492188 4.738281 10.832031 C 5.570312 10 4.738281 9.167969 4.738281 9.167969 C 4.738281 9.167969 5.15625 7.082031 5.15625 5.832031 Z M 9.84375 5.832031 C 9.84375 5.832031 11.929688 6.25 12.34375 8.75 C 12.761719 11.25 10.921875 11.492188 10.261719 10.832031 C 9.429688 10 10.261719 9.167969 10.261719 9.167969 C 10.261719 9.167969 9.84375 7.082031 9.84375 5.832031 Z M 9.84375 5.832031 "/>
<path style=" stroke:none;fill-rule:nonzero;fill:rgb(62.745098%,1.568627%,11.764706%);fill-opacity:1;" d="M 5.417969 5.417969 C 4.582031 5.417969 5 5.832031 5 6.25 C 5 6.667969 5.417969 7.5 6.25 7.082031 C 6.25 7.082031 5.832031 7.917969 5.832031 9.167969 C 5.832031 9.167969 6.667969 9.167969 7.082031 10 C 7.082031 10 7.5 7.082031 7.5 6.25 C 7.5 5.417969 5.832031 5.417969 5.417969 5.417969 Z M 9.582031 5.417969 C 10.417969 5.417969 10 5.832031 10 6.25 C 10 6.667969 9.582031 7.5 8.75 7.082031 C 8.75 7.082031 9.167969 7.917969 9.167969 9.167969 C 9.167969 9.167969 8.332031 9.167969 7.917969 10 C 7.917969 10 7.5 7.082031 7.5 6.25 C 7.5 5.417969 9.167969 5.417969 9.582031 5.417969 Z M 9.582031 5.417969 "/>
<path style=" stroke:none;fill-rule:nonzero;fill:rgb(75.686275%,41.176471%,30.980392%);fill-opacity:1;" d="M 6.25 1.667969 C 6.25 2.585938 5.503906 3.332031 4.582031 3.332031 C 3.664062 3.332031 2.917969 2.585938 2.917969 1.667969 C 2.917969 0.746094 3.664062 0 4.582031 0 C 5.503906 0 6.25 0.746094 6.25 1.667969 Z M 6.25 1.667969 "/>
<path style=" stroke:none;fill-rule:nonzero;fill:rgb(40%,12.941176%,7.45098%);fill-opacity:1;" d="M 5.417969 1.667969 C 5.417969 2.125 5.042969 2.5 4.582031 2.5 C 4.125 2.5 3.75 2.125 3.75 1.667969 C 3.75 1.207031 4.125 0.832031 4.582031 0.832031 C 5.042969 0.832031 5.417969 1.207031 5.417969 1.667969 Z M 5.417969 1.667969 "/>
<path style=" stroke:none;fill-rule:nonzero;fill:rgb(75.686275%,41.176471%,30.980392%);fill-opacity:1;" d="M 12.082031 1.667969 C 12.082031 2.585938 11.335938 3.332031 10.417969 3.332031 C 9.496094 3.332031 8.75 2.585938 8.75 1.667969 C 8.75 0.746094 9.496094 0 10.417969 0 C 11.335938 0 12.082031 0.746094 12.082031 1.667969 Z M 12.082031 1.667969 "/>
<path style=" stroke:none;fill-rule:nonzero;fill:rgb(40%,12.941176%,7.45098%);fill-opacity:1;" d="M 11.25 1.667969 C 11.25 2.125 10.875 2.5 10.417969 2.5 C 9.957031 2.5 9.582031 2.125 9.582031 1.667969 C 9.582031 1.207031 9.957031 0.832031 10.417969 0.832031 C 10.875 0.832031 11.25 1.207031 11.25 1.667969 Z M 11.25 1.667969 "/>
<path style=" stroke:none;fill-rule:nonzero;fill:rgb(75.686275%,41.176471%,30.980392%);fill-opacity:1;" d="M 10.832031 3.542969 C 10.832031 1.816406 9.339844 0.417969 7.5 0.417969 C 5.660156 0.417969 4.167969 1.816406 4.167969 3.542969 C 4.167969 5.265625 5.660156 6.667969 7.5 6.667969 C 9.339844 6.667969 10.832031 5.265625 10.832031 3.542969 Z M 10.832031 3.542969 "/>
<path style=" stroke:none;fill-rule:nonzero;fill:rgb(16.078431%,18.431373%,20%);fill-opacity:1;" d="M 6.667969 3.332031 C 6.667969 3.5625 6.480469 3.75 6.25 3.75 C 6.019531 3.75 5.832031 3.5625 5.832031 3.332031 C 5.832031 3.101562 6.019531 2.917969 6.25 2.917969 C 6.480469 2.917969 6.667969 3.101562 6.667969 3.332031 Z M 6.667969 3.332031 "/>
<path style=" stroke:none;fill-rule:nonzero;fill:rgb(16.078431%,18.431373%,20%);fill-opacity:1;" d="M 9.167969 3.332031 C 9.167969 3.5625 8.980469 3.75 8.75 3.75 C 8.519531 3.75 8.332031 3.5625 8.332031 3.332031 C 8.332031 3.101562 8.519531 2.917969 8.75 2.917969 C 8.980469 2.917969 9.167969 3.101562 9.167969 3.332031 Z M 9.167969 3.332031 "/>
<path style=" stroke:none;fill-rule:nonzero;fill:rgb(85.098039%,61.960784%,50.980392%);fill-opacity:1;" d="M 7.523438 3.984375 C 4.6875 3.984375 5.601562 6.300781 7.464844 6.300781 C 9.324219 6.300781 10.359375 3.984375 7.523438 3.984375 Z M 7.523438 3.984375 "/>
<path style=" stroke:none;fill-rule:nonzero;fill:rgb(16.078431%,18.431373%,20%);fill-opacity:1;" d="M 6.972656 4.609375 L 7.191406 4.988281 C 7.328125 5.226562 7.671875 5.226562 7.808594 4.988281 L 8.027344 4.609375 C 8.164062 4.375 7.992188 4.078125 7.71875 4.078125 L 7.28125 4.078125 C 7.007812 4.078125 6.835938 4.375 6.972656 4.609375 Z M 6.972656 4.609375 "/>
<path style=" stroke:none;fill-rule:nonzero;fill:rgb(57.647059%,25.098039%,20.784314%);fill-opacity:1;" d="M 4.695312 11.25 C 4.625 11.25 4.558594 11.214844 4.519531 11.15625 C 4.457031 11.058594 4.484375 10.929688 4.582031 10.867188 C 4.597656 10.855469 5.007812 10.582031 4.996094 10.023438 C 4.988281 9.613281 4.609375 9.339844 4.605469 9.339844 C 4.554688 9.304688 4.519531 9.246094 4.515625 9.183594 C 4.429688 8.203125 4.785156 7.222656 4.800781 7.183594 C 4.84375 7.074219 4.960938 7.019531 5.070312 7.058594 C 5.175781 7.097656 5.234375 7.21875 5.191406 7.324219 C 5.191406 7.335938 4.875 8.199219 4.925781 9.0625 C 5.082031 9.195312 5.402344 9.53125 5.414062 10.015625 C 5.433594 10.8125 4.832031 11.203125 4.804688 11.21875 C 4.769531 11.242188 4.730469 11.25 4.695312 11.25 Z M 10.308594 11.25 C 10.269531 11.25 10.230469 11.242188 10.195312 11.21875 C 10.167969 11.203125 9.566406 10.808594 9.585938 10.015625 C 9.597656 9.527344 9.917969 9.195312 10.074219 9.058594 C 10.125 8.195312 9.808594 7.335938 9.808594 7.324219 C 9.765625 7.21875 9.820312 7.097656 9.929688 7.058594 C 10.039062 7.019531 10.15625 7.074219 10.199219 7.179688 C 10.214844 7.222656 10.570312 8.199219 10.484375 9.183594 C 10.480469 9.246094 10.445312 9.304688 10.394531 9.339844 C 10.390625 9.339844 10.011719 9.609375 10.003906 10.023438 C 9.992188 10.589844 10.414062 10.863281 10.417969 10.867188 C 10.515625 10.929688 10.542969 11.058594 10.484375 11.152344 C 10.441406 11.214844 10.375 11.25 10.308594 11.25 Z M 10.277344 9.167969 L 10.28125 9.167969 Z M 10.277344 9.167969 "/>
<path style=" stroke:none;fill-rule:nonzero;fill:rgb(75.686275%,41.176471%,30.980392%);fill-opacity:1;" d="M 5.960938 11.382812 C 5.144531 10.570312 3.894531 10.503906 3.160156 11.234375 C 2.429688 11.96875 2.496094 13.21875 3.308594 14.035156 C 4.121094 14.847656 5.375 14.914062 6.105469 14.179688 C 6.839844 13.449219 6.773438 12.195312 5.960938 11.382812 Z M 5.960938 11.382812 "/>
<path style=" stroke:none;fill-rule:nonzero;fill:rgb(85.098039%,61.960784%,50.980392%);fill-opacity:1;" d="M 5.5625 13.84375 C 5.121094 14.285156 4.351562 14.222656 3.839844 13.710938 C 3.324219 13.199219 3.265625 12.429688 3.707031 11.988281 C 4.144531 11.550781 4.917969 11.609375 5.429688 12.121094 C 5.941406 12.632812 6 13.40625 5.5625 13.84375 Z M 5.5625 13.84375 "/>
<path style=" stroke:none;fill-rule:nonzero;fill:rgb(85.098039%,61.960784%,50.980392%);fill-opacity:1;" d="M 5.371094 13.652344 C 5.046875 13.980469 4.453125 13.914062 4.042969 13.503906 C 3.636719 13.097656 3.570312 12.503906 3.898438 12.179688 C 4.222656 11.855469 4.816406 11.921875 5.222656 12.328125 C 5.628906 12.734375 5.695312 13.328125 5.371094 13.652344 Z M 5.371094 13.652344 "/>
<path style=" stroke:none;fill-rule:nonzero;fill:rgb(75.686275%,41.176471%,30.980392%);fill-opacity:1;" d="M 11.839844 11.234375 C 11.105469 10.503906 9.855469 10.570312 9.039062 11.382812 C 8.226562 12.195312 8.160156 13.449219 8.894531 14.179688 C 9.625 14.914062 10.878906 14.847656 11.691406 14.035156 C 12.503906 13.21875 12.570312 11.96875 11.839844 11.234375 Z M 11.839844 11.234375 "/>
<path style=" stroke:none;fill-rule:nonzero;fill:rgb(85.098039%,61.960784%,50.980392%);fill-opacity:1;" d="M 9.4375 13.84375 C 9.878906 14.285156 10.648438 14.222656 11.160156 13.710938 C 11.675781 13.199219 11.734375 12.429688 11.292969 11.988281 C 10.855469 11.550781 10.082031 11.609375 9.570312 12.121094 C 9.058594 12.632812 9 13.40625 9.4375 13.84375 Z M 9.4375 13.84375 "/>
<path style=" stroke:none;fill-rule:nonzero;fill:rgb(85.098039%,61.960784%,50.980392%);fill-opacity:1;" d="M 11.101562 12.179688 C 10.777344 11.855469 10.183594 11.921875 9.777344 12.328125 C 9.371094 12.734375 9.304688 13.328125 9.628906 13.652344 C 9.953125 13.980469 10.546875 13.914062 10.957031 13.507812 C 11.363281 13.097656 11.429688 12.503906 11.101562 12.179688 Z M 11.101562 12.179688 "/>
<path style=" stroke:none;fill-rule:nonzero;fill:rgb(16.078431%,18.431373%,20%);fill-opacity:1;" d="M 7.535156 5.890625 C 7.003906 5.890625 6.597656 5.496094 6.59375 5.492188 C 6.550781 5.449219 6.550781 5.382812 6.59375 5.34375 C 6.632812 5.300781 6.699219 5.300781 6.738281 5.34375 C 6.769531 5.375 7.511719 6.089844 8.257812 5.34375 C 8.300781 5.300781 8.367188 5.300781 8.40625 5.34375 C 8.449219 5.382812 8.449219 5.449219 8.40625 5.492188 C 8.105469 5.789062 7.804688 5.890625 7.535156 5.890625 Z M 7.535156 5.890625 "/>
<path style=" stroke:none;fill-rule:nonzero;fill:rgb(57.647059%,25.098039%,20.784314%);fill-opacity:1;" d="M 6.644531 12.386719 C 6.570312 12.386719 6.496094 12.34375 6.457031 12.269531 C 5.511719 10.339844 3.628906 10.957031 3.546875 10.984375 C 3.4375 11.023438 3.320312 10.964844 3.285156 10.855469 C 3.246094 10.746094 3.304688 10.628906 3.410156 10.589844 C 3.433594 10.582031 5.722656 9.820312 6.832031 12.085938 C 6.882812 12.1875 6.839844 12.3125 6.738281 12.363281 C 6.707031 12.378906 6.675781 12.386719 6.644531 12.386719 Z M 8.355469 12.386719 C 8.328125 12.386719 8.300781 12.378906 8.273438 12.371094 C 8.167969 12.324219 8.117188 12.203125 8.164062 12.097656 C 9.101562 9.886719 11.554688 10.578125 11.578125 10.585938 C 11.6875 10.621094 11.753906 10.734375 11.71875 10.84375 C 11.6875 10.957031 11.570312 11.015625 11.460938 10.988281 C 11.375 10.960938 9.339844 10.394531 8.546875 12.257812 C 8.511719 12.339844 8.433594 12.386719 8.355469 12.386719 Z M 8.355469 12.386719 "/>
</g>
</svg>
