<?xml version="1.0" encoding="UTF-8"?>
<svg xmlns="http://www.w3.org/2000/svg" xmlns:xlink="http://www.w3.org/1999/xlink" width="15pt" height="15pt" viewBox="0 0 15 15" version="1.1">
<g id="surface1">
<path style=" stroke:none;fill-rule:nonzero;fill:rgb(88.235294%,90.980392%,92.941176%);fill-opacity:1;" d="M 2.917969 0 L 10 0 L 10 10 L 2.917969 10 Z M 2.917969 0 "/>
<path style=" stroke:none;fill-rule:nonzero;fill:rgb(60%,66.666667%,70.980392%);fill-opacity:1;" d="M 2.917969 5 L 10 5 L 10 10 L 2.917969 10 Z M 2.917969 5 "/>
<path style=" stroke:none;fill-rule:nonzero;fill:rgb(80%,83.921569%,86.666667%);fill-opacity:1;" d="M 5.832031 5 C 5.832031 2.238281 4.527344 0 2.917969 0 C 1.304688 0 0 2.238281 0 5 C 0 7.761719 1.304688 10 2.917969 10 C 4.527344 10 5.832031 7.761719 5.832031 5 Z M 5.832031 5 "/>
<path style=" stroke:none;fill-rule:nonzero;fill:rgb(88.235294%,90.980392%,92.941176%);fill-opacity:1;" d="M 13.332031 5 C 13.332031 2.238281 11.839844 0 10 0 C 8.160156 0 6.667969 2.238281 6.667969 5 C 6.667969 7.761719 8.160156 10 10 10 C 11.839844 10 13.332031 7.761719 13.332031 5 Z M 13.332031 5 "/>
<path style=" stroke:none;fill-rule:nonzero;fill:rgb(88.235294%,90.980392%,92.941176%);fill-opacity:1;" d="M 13.332031 5 L 13.332031 10 C 13.332031 13.75 15 15 15 15 L 7.5 15 C 7.5 15 5.832031 13.75 5.832031 10 L 5.832031 4.582031 Z M 13.332031 5 "/>
<path style=" stroke:none;fill-rule:nonzero;fill:rgb(96.078431%,97.254902%,98.039216%);fill-opacity:1;" d="M 13.332031 5 C 13.332031 2.949219 12.507812 1.1875 11.332031 0.417969 L 4.71875 0.417969 C 5.644531 1.367188 6.25 3.046875 6.25 5 L 6.25 10.832031 C 6.429688 13.203125 7.367188 14.292969 7.660156 14.582031 L 14.605469 14.582031 C 14.109375 13.957031 13.332031 12.5625 13.332031 10 Z M 13.332031 5 "/>
<path style=" stroke:none;fill-rule:nonzero;fill:rgb(60%,66.666667%,70.980392%);fill-opacity:1;" d="M 3.75 5 C 3.75 3.847656 3.191406 2.917969 2.5 2.917969 C 1.808594 2.917969 1.25 3.847656 1.25 5 C 1.25 6.152344 1.808594 7.082031 2.5 7.082031 C 3.191406 7.082031 3.75 6.152344 3.75 5 Z M 3.75 5 "/>
<path style=" stroke:none;fill-rule:nonzero;fill:rgb(40%,45.882353%,49.803922%);fill-opacity:1;" d="M 1.355469 4.171875 C 1.546875 3.433594 1.988281 2.917969 2.5 2.917969 C 3.191406 2.917969 3.75 3.847656 3.75 5 C 3.75 5.257812 3.71875 5.5 3.667969 5.726562 C 3.398438 4.855469 2.472656 4.210938 1.355469 4.171875 Z M 1.355469 4.171875 "/>
<path style=" stroke:none;fill-rule:nonzero;fill:rgb(80%,83.921569%,86.666667%);fill-opacity:1;" d="M 6.875 5.417969 L 6.25 5.417969 L 6.25 5 L 6.875 5 C 6.988281 5 7.082031 5.09375 7.082031 5.207031 C 7.082031 5.324219 6.988281 5.417969 6.875 5.417969 Z M 8.542969 5.417969 L 7.707031 5.417969 C 7.59375 5.417969 7.5 5.324219 7.5 5.207031 C 7.5 5.09375 7.59375 5 7.707031 5 L 8.542969 5 C 8.65625 5 8.75 5.09375 8.75 5.207031 C 8.75 5.324219 8.65625 5.417969 8.542969 5.417969 Z M 10.207031 5.417969 L 9.375 5.417969 C 9.261719 5.417969 9.167969 5.324219 9.167969 5.207031 C 9.167969 5.09375 9.261719 5 9.375 5 L 10.207031 5 C 10.324219 5 10.417969 5.09375 10.417969 5.207031 C 10.417969 5.324219 10.324219 5.417969 10.207031 5.417969 Z M 11.875 5.417969 L 11.042969 5.417969 C 10.925781 5.417969 10.832031 5.324219 10.832031 5.207031 C 10.832031 5.09375 10.925781 5 11.042969 5 L 11.875 5 C 11.988281 5 12.082031 5.09375 12.082031 5.207031 C 12.082031 5.324219 11.988281 5.417969 11.875 5.417969 Z M 13.332031 5.417969 L 12.707031 5.417969 C 12.59375 5.417969 12.5 5.324219 12.5 5.207031 C 12.5 5.09375 12.59375 5 12.707031 5 L 13.332031 5 Z M 6.875 10.417969 L 6.25 10.417969 L 6.25 10 L 6.875 10 C 6.988281 10 7.082031 10.09375 7.082031 10.207031 C 7.082031 10.324219 6.988281 10.417969 6.875 10.417969 Z M 8.542969 10.417969 L 7.707031 10.417969 C 7.59375 10.417969 7.5 10.324219 7.5 10.207031 C 7.5 10.09375 7.59375 10 7.707031 10 L 8.542969 10 C 8.65625 10 8.75 10.09375 8.75 10.207031 C 8.75 10.324219 8.65625 10.417969 8.542969 10.417969 Z M 10.207031 10.417969 L 9.375 10.417969 C 9.261719 10.417969 9.167969 10.324219 9.167969 10.207031 C 9.167969 10.09375 9.261719 10 9.375 10 L 10.207031 10 C 10.324219 10 10.417969 10.09375 10.417969 10.207031 C 10.417969 10.324219 10.324219 10.417969 10.207031 10.417969 Z M 11.875 10.417969 L 11.042969 10.417969 C 10.925781 10.417969 10.832031 10.324219 10.832031 10.207031 C 10.832031 10.09375 10.925781 10 11.042969 10 L 11.875 10 C 11.988281 10 12.082031 10.09375 12.082031 10.207031 C 12.082031 10.324219 11.988281 10.417969 11.875 10.417969 Z M 13.332031 10.417969 L 12.707031 10.417969 C 12.59375 10.417969 12.5 10.324219 12.5 10.207031 C 12.5 10.09375 12.59375 10 12.707031 10 L 13.332031 10 Z M 13.332031 10.417969 "/>
</g>
</svg>
