<?xml version="1.0" encoding="UTF-8"?>
<svg xmlns="http://www.w3.org/2000/svg" xmlns:xlink="http://www.w3.org/1999/xlink" width="15pt" height="15pt" viewBox="0 0 15 15" version="1.1">
<g id="surface1">
<path style=" stroke:none;fill-rule:nonzero;fill:rgb(60%,66.666667%,70.980392%);fill-opacity:1;" d="M 2.441406 10.113281 C 1.09375 10.113281 0 11.207031 0 12.558594 C 0 13.90625 1.09375 15 2.441406 15 C 3.792969 15 4.886719 13.90625 4.886719 12.558594 C 4.886719 11.207031 3.792969 10.113281 2.441406 10.113281 Z M 2.441406 14.300781 C 1.480469 14.300781 0.699219 13.519531 0.699219 12.558594 C 0.699219 11.59375 1.480469 10.8125 2.441406 10.8125 C 3.40625 10.8125 4.1875 11.59375 4.1875 12.558594 C 4.1875 13.519531 3.40625 14.300781 2.441406 14.300781 Z M 8.195312 1.640625 C 7.722656 2.113281 7.394531 2.554688 7.179688 2.980469 C 7 3.328125 7.078125 3.75 7.355469 4.027344 L 10.972656 7.644531 C 11.25 7.921875 11.671875 8 12.019531 7.820312 C 12.441406 7.605469 12.886719 7.273438 13.359375 6.804688 C 15.496094 4.664062 15.183594 2.667969 13.757812 1.242188 C 12.332031 -0.183594 10.335938 -0.496094 8.195312 1.640625 Z M 8.195312 1.640625 "/>
<path style=" stroke:none;fill-rule:nonzero;fill:rgb(40%,45.882353%,49.803922%);fill-opacity:1;" d="M 12.726562 4.105469 C 12.46875 5.144531 10.894531 5.808594 10.144531 4.46875 C 9.375 5.554688 10.144531 6.640625 10.636719 7.308594 C 9.773438 6.527344 8.5 5.273438 7.628906 4.300781 C 8.480469 4.910156 9.234375 4.933594 9.234375 4.65625 C 9.234375 3.648438 10.121094 2.203125 11.128906 2.203125 C 12.136719 2.203125 12.96875 3.125 12.726562 4.105469 Z M 12.726562 4.105469 "/>
<path style=" stroke:none;fill-rule:nonzero;fill:rgb(60%,66.666667%,70.980392%);fill-opacity:1;" d="M 0.566406 11.152344 C 0.824219 10.65625 4.253906 5.851562 7.738281 3.152344 L 8.144531 3.679688 C 5.09375 6.042969 1.980469 10.203125 1.285156 11.25 C 1.222656 11.347656 0.566406 11.152344 0.566406 11.152344 Z M 4.019531 14.34375 L 3.722656 13.746094 C 4.167969 13.523438 8.820312 10.261719 11.5 6.929688 L 12.019531 7.347656 C 9.339844 10.683594 4.691406 14.007812 4.019531 14.34375 Z M 4.019531 14.34375 "/>
</g>
</svg>
