<?xml version="1.0" encoding="UTF-8"?>
<svg xmlns="http://www.w3.org/2000/svg" xmlns:xlink="http://www.w3.org/1999/xlink" width="15pt" height="15pt" viewBox="0 0 15 15" version="1.1">
<g id="surface1">
<path style=" stroke:none;fill-rule:nonzero;fill:rgb(80%,83.921569%,86.666667%);fill-opacity:1;" d="M 13.332031 11.042969 C 13.332031 11.847656 12.679688 12.5 11.875 12.5 C 11.070312 12.5 10.417969 11.847656 10.417969 11.042969 C 10.417969 10.234375 11.070312 9.582031 11.875 9.582031 C 12.679688 9.582031 13.332031 10.234375 13.332031 11.042969 Z M 13.332031 11.042969 "/>
<path style=" stroke:none;fill-rule:nonzero;fill:rgb(96.078431%,97.254902%,98.039216%);fill-opacity:1;" d="M 13.332031 10.625 C 13.332031 11.199219 12.867188 11.667969 12.292969 11.667969 C 11.714844 11.667969 11.25 11.199219 11.25 10.625 C 11.25 10.050781 11.714844 9.582031 12.292969 9.582031 C 12.867188 9.582031 13.332031 10.050781 13.332031 10.625 Z M 13.332031 10.625 "/>
<path style=" stroke:none;fill-rule:nonzero;fill:rgb(80%,83.921569%,86.666667%);fill-opacity:1;" d="M 12.082031 12.5 C 12.082031 13.191406 11.523438 13.75 10.832031 13.75 C 10.144531 13.75 9.582031 13.191406 9.582031 12.5 C 9.582031 11.808594 10.144531 11.25 10.832031 11.25 C 11.523438 11.25 12.082031 11.808594 12.082031 12.5 Z M 12.082031 12.5 "/>
<path style=" stroke:none;fill-rule:nonzero;fill:rgb(96.078431%,97.254902%,98.039216%);fill-opacity:1;" d="M 12.082031 12.292969 C 12.082031 12.867188 11.617188 13.332031 11.042969 13.332031 C 10.464844 13.332031 10 12.867188 10 12.292969 C 10 11.714844 10.464844 11.25 11.042969 11.25 C 11.617188 11.25 12.082031 11.714844 12.082031 12.292969 Z M 12.082031 12.292969 "/>
<path style=" stroke:none;fill-rule:nonzero;fill:rgb(91.764706%,34.901961%,43.137255%);fill-opacity:1;" d="M 13.527344 3.410156 C 13.527344 3.410156 14.011719 4.402344 13.75 6.261719 C 13.488281 8.125 12.738281 9.484375 10.671875 11.570312 C 7.167969 15.109375 4.707031 15.511719 2.566406 13.351562 C 1.78125 12.558594 1.46875 11.730469 1.339844 10.859375 C 1.210938 9.988281 1.246094 8.878906 1.25 8.75 C 1.265625 8.234375 1.746094 6.804688 1.746094 6.804688 Z M 13.527344 3.410156 "/>
<path style=" stroke:none;fill-rule:nonzero;fill:rgb(95.686275%,67.058824%,72.941176%);fill-opacity:1;" d="M 4.277344 3.484375 C 5.613281 2.113281 7.414062 0.765625 8.867188 0.417969 C 10.359375 0.0585938 11.5 0.734375 12.402344 1.617188 C 13.179688 2.378906 13.851562 3.597656 13.710938 4.855469 C 13.527344 6.476562 12.246094 8.226562 10.722656 9.785156 C 9.433594 11.105469 7.714844 12.441406 6.300781 12.8125 C 4.75 13.222656 3.53125 12.5625 2.597656 11.648438 C 1.792969 10.863281 1.113281 9.65625 1.289062 8.347656 C 1.503906 6.757812 2.792969 5 4.277344 3.484375 Z M 4.277344 3.484375 "/>
<path style=" stroke:none;fill-rule:nonzero;fill:rgb(100%,80%,83.921569%);fill-opacity:1;" d="M 4.84375 3.488281 C 6.167969 2.140625 7.679688 0.988281 9.023438 0.769531 C 10.035156 0.601562 10.972656 1.09375 11.570312 1.683594 C 12.136719 2.238281 12.671875 3.152344 12.566406 4.101562 C 12.410156 5.484375 11.265625 7.039062 9.890625 8.441406 C 8.773438 9.578125 7.351562 10.734375 6.171875 11.082031 C 4.902344 11.457031 3.886719 10.957031 3.164062 10.25 C 2.492188 9.585938 1.988281 8.585938 2.253906 7.410156 C 2.535156 6.15625 3.644531 4.710938 4.84375 3.488281 Z M 4.84375 3.488281 "/>
<path style=" stroke:none;fill-rule:nonzero;fill:rgb(80%,83.921569%,86.666667%);fill-opacity:1;" d="M 5 4.167969 C 5 4.855469 4.441406 5.417969 3.75 5.417969 C 3.058594 5.417969 2.5 4.855469 2.5 4.167969 C 2.5 3.476562 3.058594 2.917969 3.75 2.917969 C 4.441406 2.917969 5 3.476562 5 4.167969 Z M 5 4.167969 "/>
<path style=" stroke:none;fill-rule:nonzero;fill:rgb(96.078431%,97.254902%,98.039216%);fill-opacity:1;" d="M 5 3.957031 C 5 4.535156 4.535156 5 3.957031 5 C 3.382812 5 2.917969 4.535156 2.917969 3.957031 C 2.917969 3.382812 3.382812 2.917969 3.957031 2.917969 C 4.535156 2.917969 5 3.382812 5 3.957031 Z M 5 3.957031 "/>
<path style=" stroke:none;fill-rule:nonzero;fill:rgb(80%,83.921569%,86.666667%);fill-opacity:1;" d="M 3.332031 3.542969 C 3.332031 4.117188 2.867188 4.582031 2.292969 4.582031 C 1.714844 4.582031 1.25 4.117188 1.25 3.542969 C 1.25 2.964844 1.714844 2.5 2.292969 2.5 C 2.867188 2.5 3.332031 2.964844 3.332031 3.542969 Z M 3.332031 3.542969 "/>
<path style=" stroke:none;fill-rule:nonzero;fill:rgb(80%,83.921569%,86.666667%);fill-opacity:1;" d="M 6.25 2.5 C 6.25 3.191406 5.691406 3.75 5 3.75 C 4.308594 3.75 3.75 3.191406 3.75 2.5 C 3.75 1.808594 4.308594 1.25 5 1.25 C 5.691406 1.25 6.25 1.808594 6.25 2.5 Z M 6.25 2.5 "/>
<path style=" stroke:none;fill-rule:nonzero;fill:rgb(80%,83.921569%,86.666667%);fill-opacity:1;" d="M 4.582031 1.25 C 4.582031 1.710938 4.210938 2.082031 3.75 2.082031 C 3.289062 2.082031 2.917969 1.710938 2.917969 1.25 C 2.917969 0.789062 3.289062 0.417969 3.75 0.417969 C 4.210938 0.417969 4.582031 0.789062 4.582031 1.25 Z M 4.582031 1.25 "/>
<path style=" stroke:none;fill-rule:nonzero;fill:rgb(80%,83.921569%,86.666667%);fill-opacity:1;" d="M 2.082031 1.875 C 2.082031 2.21875 1.804688 2.5 1.457031 2.5 C 1.113281 2.5 0.832031 2.21875 0.832031 1.875 C 0.832031 1.53125 1.113281 1.25 1.457031 1.25 C 1.804688 1.25 2.082031 1.53125 2.082031 1.875 Z M 2.082031 1.875 "/>
<path style=" stroke:none;fill-rule:nonzero;fill:rgb(80%,83.921569%,86.666667%);fill-opacity:1;" d="M 8.332031 1.667969 C 8.332031 2.125 7.960938 2.5 7.5 2.5 C 7.039062 2.5 6.667969 2.125 6.667969 1.667969 C 6.667969 1.207031 7.039062 0.832031 7.5 0.832031 C 7.960938 0.832031 8.332031 1.207031 8.332031 1.667969 Z M 8.332031 1.667969 "/>
<path style=" stroke:none;fill-rule:nonzero;fill:rgb(80%,83.921569%,86.666667%);fill-opacity:1;" d="M 2.917969 6.25 C 2.917969 6.710938 2.542969 7.082031 2.082031 7.082031 C 1.625 7.082031 1.25 6.710938 1.25 6.25 C 1.25 5.789062 1.625 5.417969 2.082031 5.417969 C 2.542969 5.417969 2.917969 5.789062 2.917969 6.25 Z M 2.917969 6.25 "/>
<path style=" stroke:none;fill-rule:nonzero;fill:rgb(80%,83.921569%,86.666667%);fill-opacity:1;" d="M 14.582031 10.625 C 14.582031 11.199219 14.117188 11.667969 13.542969 11.667969 C 12.964844 11.667969 12.5 11.199219 12.5 10.625 C 12.5 10.050781 12.964844 9.582031 13.542969 9.582031 C 14.117188 9.582031 14.582031 10.050781 14.582031 10.625 Z M 14.582031 10.625 "/>
<path style=" stroke:none;fill-rule:nonzero;fill:rgb(80%,83.921569%,86.666667%);fill-opacity:1;" d="M 14.582031 7.917969 C 14.582031 8.375 14.210938 8.75 13.75 8.75 C 13.289062 8.75 12.917969 8.375 12.917969 7.917969 C 12.917969 7.457031 13.289062 7.082031 13.75 7.082031 C 14.210938 7.082031 14.582031 7.457031 14.582031 7.917969 Z M 14.582031 7.917969 "/>
<path style=" stroke:none;fill-rule:nonzero;fill:rgb(96.078431%,97.254902%,98.039216%);fill-opacity:1;" d="M 3.332031 3.332031 C 3.332031 3.792969 2.960938 4.167969 2.5 4.167969 C 2.039062 4.167969 1.667969 3.792969 1.667969 3.332031 C 1.667969 2.875 2.039062 2.5 2.5 2.5 C 2.960938 2.5 3.332031 2.875 3.332031 3.332031 Z M 3.332031 3.332031 "/>
<path style=" stroke:none;fill-rule:nonzero;fill:rgb(96.078431%,97.254902%,98.039216%);fill-opacity:1;" d="M 2.917969 6.042969 C 2.917969 6.386719 2.636719 6.667969 2.292969 6.667969 C 1.945312 6.667969 1.667969 6.386719 1.667969 6.042969 C 1.667969 5.695312 1.945312 5.417969 2.292969 5.417969 C 2.636719 5.417969 2.917969 5.695312 2.917969 6.042969 Z M 2.917969 6.042969 "/>
<path style=" stroke:none;fill-rule:nonzero;fill:rgb(96.078431%,97.254902%,98.039216%);fill-opacity:1;" d="M 6.25 2.292969 C 6.25 2.867188 5.785156 3.332031 5.207031 3.332031 C 4.632812 3.332031 4.167969 2.867188 4.167969 2.292969 C 4.167969 1.714844 4.632812 1.25 5.207031 1.25 C 5.785156 1.25 6.25 1.714844 6.25 2.292969 Z M 6.25 2.292969 "/>
<path style=" stroke:none;fill-rule:nonzero;fill:rgb(96.078431%,97.254902%,98.039216%);fill-opacity:1;" d="M 4.582031 1.042969 C 4.582031 1.386719 4.304688 1.667969 3.957031 1.667969 C 3.613281 1.667969 3.332031 1.386719 3.332031 1.042969 C 3.332031 0.695312 3.613281 0.417969 3.957031 0.417969 C 4.304688 0.417969 4.582031 0.695312 4.582031 1.042969 Z M 4.582031 1.042969 "/>
<path style=" stroke:none;fill-rule:nonzero;fill:rgb(96.078431%,97.254902%,98.039216%);fill-opacity:1;" d="M 2.082031 1.667969 C 2.082031 1.898438 1.898438 2.082031 1.667969 2.082031 C 1.4375 2.082031 1.25 1.898438 1.25 1.667969 C 1.25 1.4375 1.4375 1.25 1.667969 1.25 C 1.898438 1.25 2.082031 1.4375 2.082031 1.667969 Z M 2.082031 1.667969 "/>
<path style=" stroke:none;fill-rule:nonzero;fill:rgb(96.078431%,97.254902%,98.039216%);fill-opacity:1;" d="M 8.332031 1.457031 C 8.332031 1.804688 8.054688 2.082031 7.707031 2.082031 C 7.363281 2.082031 7.082031 1.804688 7.082031 1.457031 C 7.082031 1.113281 7.363281 0.832031 7.707031 0.832031 C 8.054688 0.832031 8.332031 1.113281 8.332031 1.457031 Z M 8.332031 1.457031 "/>
<path style=" stroke:none;fill-rule:nonzero;fill:rgb(96.078431%,97.254902%,98.039216%);fill-opacity:1;" d="M 14.582031 10.417969 C 14.582031 10.875 14.210938 11.25 13.75 11.25 C 13.289062 11.25 12.917969 10.875 12.917969 10.417969 C 12.917969 9.957031 13.289062 9.582031 13.75 9.582031 C 14.210938 9.582031 14.582031 9.957031 14.582031 10.417969 Z M 14.582031 10.417969 "/>
<path style=" stroke:none;fill-rule:nonzero;fill:rgb(96.078431%,97.254902%,98.039216%);fill-opacity:1;" d="M 14.582031 7.707031 C 14.582031 8.054688 14.304688 8.332031 13.957031 8.332031 C 13.613281 8.332031 13.332031 8.054688 13.332031 7.707031 C 13.332031 7.363281 13.613281 7.082031 13.957031 7.082031 C 14.304688 7.082031 14.582031 7.363281 14.582031 7.707031 Z M 14.582031 7.707031 "/>
</g>
</svg>
