<?xml version="1.0" encoding="UTF-8"?>
<svg xmlns="http://www.w3.org/2000/svg" xmlns:xlink="http://www.w3.org/1999/xlink" width="15pt" height="15pt" viewBox="0 0 15 15" version="1.1">
<g id="surface1">
<path style=" stroke:none;fill-rule:nonzero;fill:rgb(16.078431%,18.431373%,20%);fill-opacity:1;" d="M 9.167969 0.832031 L 5.832031 0.832031 C 5.605469 0.832031 5.417969 0.644531 5.417969 0.417969 C 5.417969 0.1875 5.605469 0 5.832031 0 L 9.167969 0 C 9.394531 0 9.582031 0.1875 9.582031 0.417969 C 9.582031 0.644531 9.394531 0.832031 9.167969 0.832031 Z M 9.167969 0.832031 "/>
<path style=" stroke:none;fill-rule:nonzero;fill:rgb(16.078431%,18.431373%,20%);fill-opacity:1;" d="M 5.417969 0.417969 L 6.25 0.417969 L 6.25 1.25 L 5.417969 1.25 Z M 8.75 0.417969 L 9.582031 0.417969 L 9.582031 1.25 L 8.75 1.25 Z M 8.75 0.417969 "/>
<path style=" stroke:none;fill-rule:nonzero;fill:rgb(80%,83.921569%,86.666667%);fill-opacity:1;" d="M 5.417969 1.25 L 6.25 1.25 L 6.25 3.75 L 5.417969 3.75 Z M 8.75 1.25 L 9.582031 1.25 L 9.582031 3.75 L 8.75 3.75 Z M 8.75 1.25 "/>
<path style=" stroke:none;fill-rule:nonzero;fill:rgb(16.078431%,18.431373%,20%);fill-opacity:1;" d="M 2.917969 10.417969 C 2.6875 10.417969 2.5 10.230469 2.5 10 L 2.5 7.5 C 2.5 7.269531 2.6875 7.082031 2.917969 7.082031 C 3.144531 7.082031 3.332031 7.269531 3.332031 7.5 L 3.332031 10 C 3.332031 10.230469 3.144531 10.417969 2.917969 10.417969 Z M 4.167969 14.25 L 3.75 14.25 C 3.519531 14.25 3.332031 14.0625 3.332031 13.832031 L 3.332031 13.417969 C 3.332031 13.1875 3.519531 13 3.75 13 L 4.167969 13 C 4.394531 13 4.582031 13.1875 4.582031 13.417969 L 4.582031 13.832031 C 4.582031 14.0625 4.394531 14.25 4.167969 14.25 Z M 11.25 14.25 L 10.832031 14.25 C 10.605469 14.25 10.417969 14.0625 10.417969 13.832031 L 10.417969 13.417969 C 10.417969 13.1875 10.605469 13 10.832031 13 L 11.25 13 C 11.480469 13 11.667969 13.1875 11.667969 13.417969 L 11.667969 13.832031 C 11.667969 14.0625 11.480469 14.25 11.25 14.25 Z M 11.25 14.25 "/>
<path style=" stroke:none;fill-rule:nonzero;fill:rgb(25.882353%,53.72549%,75.686275%);fill-opacity:1;" d="M 11.25 13.75 L 3.75 13.75 C 3.292969 13.75 2.917969 13.375 2.917969 12.917969 L 2.917969 4.167969 C 2.917969 3.707031 3.292969 3.332031 3.75 3.332031 L 11.25 3.332031 C 11.707031 3.332031 12.082031 3.707031 12.082031 4.167969 L 12.082031 12.917969 C 12.082031 13.375 11.707031 13.75 11.25 13.75 Z M 11.25 13.75 "/>
<path style=" stroke:none;fill-rule:nonzero;fill:rgb(36.470588%,67.843137%,92.54902%);fill-opacity:1;" d="M 10.832031 7.5 L 4.167969 7.5 C 3.9375 7.5 3.75 7.3125 3.75 7.082031 L 3.75 4.582031 C 3.75 4.355469 3.9375 4.167969 4.167969 4.167969 L 10.832031 4.167969 C 11.0625 4.167969 11.25 4.355469 11.25 4.582031 L 11.25 7.082031 C 11.25 7.3125 11.0625 7.5 10.832031 7.5 Z M 10.832031 12.917969 L 4.167969 12.917969 C 3.9375 12.917969 3.75 12.730469 3.75 12.5 L 3.75 8.332031 C 3.75 8.105469 3.9375 7.917969 4.167969 7.917969 L 10.832031 7.917969 C 11.0625 7.917969 11.25 8.105469 11.25 8.332031 L 11.25 12.5 C 11.25 12.730469 11.0625 12.917969 10.832031 12.917969 Z M 10.832031 12.917969 "/>
<path style=" stroke:none;fill-rule:nonzero;fill:rgb(16.078431%,18.431373%,20%);fill-opacity:1;" d="M 4.167969 14.582031 C 4.167969 14.8125 3.980469 15 3.75 15 C 3.519531 15 3.332031 14.8125 3.332031 14.582031 C 3.332031 14.351562 3.519531 14.167969 3.75 14.167969 C 3.980469 14.167969 4.167969 14.351562 4.167969 14.582031 Z M 4.167969 14.582031 "/>
<path style=" stroke:none;fill-rule:nonzero;fill:rgb(16.078431%,18.431373%,20%);fill-opacity:1;" d="M 11.667969 14.582031 C 11.667969 14.8125 11.480469 15 11.25 15 C 11.019531 15 10.832031 14.8125 10.832031 14.582031 C 10.832031 14.351562 11.019531 14.167969 11.25 14.167969 C 11.480469 14.167969 11.667969 14.351562 11.667969 14.582031 Z M 11.667969 14.582031 "/>
<path style=" stroke:none;fill-rule:nonzero;fill:rgb(16.470588%,40.392157%,59.215686%);fill-opacity:1;" d="M 10.625 5 L 4.375 5 C 4.261719 5 4.167969 4.90625 4.167969 4.792969 C 4.167969 4.675781 4.261719 4.582031 4.375 4.582031 L 10.625 4.582031 C 10.738281 4.582031 10.832031 4.675781 10.832031 4.792969 C 10.832031 4.90625 10.738281 5 10.625 5 Z M 10.625 8.75 L 4.375 8.75 C 4.261719 8.75 4.167969 8.65625 4.167969 8.542969 C 4.167969 8.425781 4.261719 8.332031 4.375 8.332031 L 10.625 8.332031 C 10.738281 8.332031 10.832031 8.425781 10.832031 8.542969 C 10.832031 8.65625 10.738281 8.75 10.625 8.75 Z M 10.625 8.75 "/>
<path style=" stroke:none;fill-rule:nonzero;fill:rgb(96.078431%,97.254902%,98.039216%);fill-opacity:1;" d="M 4.792969 5 L 4.375 5 C 4.261719 5 4.167969 4.90625 4.167969 4.792969 C 4.167969 4.675781 4.261719 4.582031 4.375 4.582031 L 4.792969 4.582031 C 4.90625 4.582031 5 4.675781 5 4.792969 C 5 4.90625 4.90625 5 4.792969 5 Z M 4.792969 8.75 L 4.375 8.75 C 4.261719 8.75 4.167969 8.65625 4.167969 8.542969 C 4.167969 8.425781 4.261719 8.332031 4.375 8.332031 L 4.792969 8.332031 C 4.90625 8.332031 5 8.425781 5 8.542969 C 5 8.65625 4.90625 8.75 4.792969 8.75 Z M 4.792969 8.75 "/>
</g>
</svg>
