<?xml version="1.0" encoding="UTF-8"?>
<svg xmlns="http://www.w3.org/2000/svg" xmlns:xlink="http://www.w3.org/1999/xlink" width="15pt" height="15pt" viewBox="0 0 15 15" version="1.1">
<g id="surface1">
<path style=" stroke:none;fill-rule:nonzero;fill:rgb(40%,12.941176%,7.45098%);fill-opacity:1;" d="M 6.449219 8.765625 C 6.164062 8.574219 6.433594 8.417969 6.628906 8.132812 L 11.433594 0.316406 C 11.625 0.03125 12.015625 -0.0429688 12.300781 0.148438 C 12.585938 0.34375 12.660156 0.734375 12.46875 1.015625 L 6.972656 8.367188 C 6.777344 8.652344 6.734375 8.960938 6.449219 8.765625 Z M 7.125 8.75 C 6.894531 8.496094 7.191406 8.40625 7.449219 8.175781 L 13.957031 1.707031 C 14.210938 1.476562 14.609375 1.496094 14.839844 1.75 C 15.070312 2.003906 15.050781 2.402344 14.796875 2.632812 L 7.726562 8.484375 C 7.472656 8.714844 7.355469 9.003906 7.125 8.75 Z M 7.125 8.75 "/>
<path style=" stroke:none;fill-rule:nonzero;fill:rgb(13.333333%,40%,60%);fill-opacity:1;" d="M 6.667969 13.332031 L 14.167969 13.332031 C 14.625 13.332031 15 13.707031 15 14.167969 C 15 14.625 14.625 15 14.167969 15 L 6.667969 15 C 6.207031 15 5.832031 14.625 5.832031 14.167969 C 5.832031 13.707031 6.207031 13.332031 6.667969 13.332031 Z M 6.667969 13.332031 "/>
<path style=" stroke:none;fill-rule:nonzero;fill:rgb(13.333333%,40%,60%);fill-opacity:1;" d="M 13.332031 8.332031 C 13.332031 12.015625 10.347656 15 6.667969 15 C 2.984375 15 0 12.015625 0 8.332031 C 0 4.652344 2.984375 1.667969 6.667969 1.667969 C 10.347656 1.667969 13.332031 4.652344 13.332031 8.332031 Z M 13.332031 8.332031 "/>
<path style=" stroke:none;fill-rule:nonzero;fill:rgb(33.333333%,67.45098%,93.333333%);fill-opacity:1;" d="M 4.097656 12.371094 C 2.925781 12.371094 2.15625 12.230469 2.097656 12.21875 C 1.875 12.175781 1.726562 11.957031 1.765625 11.730469 C 1.808594 11.503906 2.027344 11.355469 2.253906 11.398438 C 2.277344 11.40625 4.695312 11.84375 7.496094 11.109375 C 10.292969 10.375 11.933594 8.828125 11.949219 8.8125 C 12.117188 8.652344 12.378906 8.65625 12.539062 8.824219 C 12.699219 8.988281 12.691406 9.253906 12.527344 9.414062 C 12.453125 9.484375 10.710938 11.125 7.707031 11.914062 C 6.34375 12.269531 5.078125 12.371094 4.097656 12.371094 Z M 4.097656 12.371094 "/>
<path style=" stroke:none;fill-rule:nonzero;fill:rgb(33.333333%,67.45098%,93.333333%);fill-opacity:1;" d="M 3.390625 10.921875 C 1.960938 10.921875 0.914062 10.761719 0.835938 10.75 C 0.609375 10.714844 0.453125 10.503906 0.488281 10.273438 C 0.523438 10.046875 0.734375 9.894531 0.964844 9.925781 C 0.996094 9.933594 4.171875 10.410156 6.984375 9.671875 C 9.785156 8.9375 12.128906 6.796875 12.152344 6.777344 C 12.320312 6.621094 12.582031 6.632812 12.738281 6.800781 C 12.894531 6.96875 12.886719 7.234375 12.714844 7.390625 C 12.613281 7.484375 10.195312 9.691406 7.195312 10.476562 C 5.878906 10.824219 4.515625 10.921875 3.390625 10.921875 Z M 3.390625 10.921875 "/>
<path style=" stroke:none;fill-rule:nonzero;fill:rgb(33.333333%,67.45098%,93.333333%);fill-opacity:1;" d="M 3 9.257812 C 1.703125 9.257812 0.804688 9.113281 0.734375 9.101562 C 0.507812 9.066406 0.355469 8.851562 0.394531 8.625 C 0.429688 8.398438 0.644531 8.238281 0.871094 8.28125 C 0.898438 8.285156 3.730469 8.738281 6.539062 8 C 9.335938 7.265625 11.398438 5.316406 11.421875 5.296875 C 11.585938 5.136719 11.851562 5.140625 12.007812 5.308594 C 12.167969 5.476562 12.164062 5.738281 11.996094 5.898438 C 11.90625 5.984375 9.753906 8.019531 6.75 8.808594 C 5.402344 9.160156 4.066406 9.257812 3 9.257812 Z M 3 9.257812 "/>
<path style=" stroke:none;fill-rule:nonzero;fill:rgb(33.333333%,67.45098%,93.333333%);fill-opacity:1;" d="M 3.101562 7.734375 C 2.902344 7.734375 2.726562 7.589844 2.691406 7.386719 C 2.199219 4.457031 3.296875 3.0625 3.34375 3.003906 C 3.488281 2.824219 3.75 2.796875 3.929688 2.941406 C 4.105469 3.085938 4.136719 3.34375 3.992188 3.523438 C 3.976562 3.546875 3.089844 4.734375 3.511719 7.25 C 3.550781 7.476562 3.398438 7.691406 3.171875 7.730469 C 3.148438 7.734375 3.125 7.734375 3.101562 7.734375 Z M 4.863281 7.636719 C 4.65625 7.636719 4.472656 7.476562 4.449219 7.265625 C 4.0625 3.847656 5.085938 2.402344 5.132812 2.339844 C 5.269531 2.15625 5.527344 2.113281 5.714844 2.25 C 5.898438 2.386719 5.9375 2.644531 5.804688 2.832031 C 5.789062 2.855469 4.933594 4.128906 5.277344 7.171875 C 5.304688 7.398438 5.140625 7.605469 4.910156 7.632812 C 4.894531 7.632812 4.878906 7.636719 4.863281 7.636719 Z M 6.691406 7.171875 C 6.484375 7.171875 6.304688 7.015625 6.277344 6.804688 C 5.929688 3.984375 6.734375 2.453125 6.769531 2.390625 C 6.878906 2.1875 7.132812 2.113281 7.332031 2.222656 C 7.535156 2.332031 7.609375 2.582031 7.503906 2.785156 C 7.488281 2.8125 6.792969 4.183594 7.105469 6.703125 C 7.132812 6.933594 6.972656 7.140625 6.742188 7.167969 C 6.726562 7.171875 6.710938 7.171875 6.691406 7.171875 Z M 8.628906 6.257812 C 8.425781 6.257812 8.246094 6.109375 8.214844 5.902344 C 7.898438 3.824219 8.316406 2.828125 8.332031 2.785156 C 8.421875 2.574219 8.671875 2.476562 8.878906 2.566406 C 9.089844 2.65625 9.1875 2.902344 9.097656 3.109375 C 9.089844 3.132812 8.765625 3.984375 9.039062 5.777344 C 9.074219 6.003906 8.917969 6.21875 8.691406 6.253906 C 8.671875 6.253906 8.648438 6.257812 8.628906 6.257812 Z M 5.46875 14.375 C 5.414062 14.375 5.363281 14.367188 5.3125 14.34375 C 4.796875 14.136719 4.324219 13.667969 4.273438 13.617188 C 4.109375 13.453125 4.113281 13.191406 4.273438 13.027344 C 4.4375 12.867188 4.703125 12.867188 4.863281 13.027344 C 4.972656 13.140625 5.324219 13.449219 5.625 13.574219 C 5.839844 13.660156 5.941406 13.902344 5.855469 14.117188 C 5.789062 14.277344 5.632812 14.375 5.46875 14.375 Z M 7.84375 14.441406 C 7.769531 14.441406 7.695312 14.421875 7.628906 14.378906 C 7.0625 14.039062 6.351562 13.339844 6.320312 13.3125 C 6.15625 13.152344 6.15625 12.886719 6.316406 12.722656 C 6.476562 12.558594 6.742188 12.558594 6.90625 12.71875 C 6.910156 12.726562 7.574219 13.375 8.058594 13.664062 C 8.257812 13.785156 8.320312 14.039062 8.203125 14.238281 C 8.125 14.367188 7.984375 14.441406 7.84375 14.441406 Z M 9.648438 13.738281 C 9.582031 13.738281 9.515625 13.722656 9.449219 13.691406 C 8.972656 13.433594 8.464844 12.886719 8.410156 12.824219 C 8.253906 12.65625 8.265625 12.390625 8.433594 12.234375 C 8.601562 12.082031 8.867188 12.089844 9.023438 12.261719 C 9.148438 12.398438 9.546875 12.796875 9.847656 12.957031 C 10.046875 13.066406 10.125 13.316406 10.015625 13.519531 C 9.941406 13.660156 9.796875 13.738281 9.648438 13.738281 Z M 11.082031 12.578125 C 11.019531 12.578125 10.953125 12.5625 10.894531 12.53125 C 10.640625 12.402344 10.359375 12.179688 10.324219 12.15625 C 10.144531 12.011719 10.113281 11.75 10.253906 11.570312 C 10.398438 11.390625 10.660156 11.359375 10.839844 11.5 C 10.910156 11.554688 11.121094 11.710938 11.273438 11.789062 C 11.476562 11.894531 11.558594 12.144531 11.453125 12.347656 C 11.378906 12.492188 11.234375 12.578125 11.082031 12.578125 Z M 1.335938 7.808594 C 1.132812 7.808594 0.953125 7.65625 0.925781 7.445312 C 0.777344 6.347656 1.066406 5.308594 1.300781 4.875 C 1.410156 4.675781 1.660156 4.597656 1.863281 4.707031 C 2.066406 4.816406 2.140625 5.070312 2.035156 5.273438 C 1.886719 5.542969 1.625 6.40625 1.75 7.332031 C 1.78125 7.5625 1.621094 7.773438 1.394531 7.800781 C 1.375 7.804688 1.355469 7.808594 1.335938 7.808594 Z M 10.347656 5.492188 C 10.152344 5.492188 9.976562 5.351562 9.941406 5.152344 C 9.824219 4.539062 9.894531 3.839844 10.023438 3.464844 C 10.097656 3.25 10.332031 3.132812 10.550781 3.207031 C 10.769531 3.28125 10.886719 3.519531 10.8125 3.738281 C 10.734375 3.964844 10.664062 4.503906 10.757812 4.996094 C 10.800781 5.222656 10.652344 5.441406 10.429688 5.484375 C 10.402344 5.488281 10.375 5.492188 10.347656 5.492188 Z M 10.347656 5.492188 "/>
</g>
</svg>
