<?xml version="1.0" encoding="UTF-8"?>
<svg xmlns="http://www.w3.org/2000/svg" xmlns:xlink="http://www.w3.org/1999/xlink" width="15pt" height="15pt" viewBox="0 0 15 15" version="1.1">
<g id="surface1">
<path style=" stroke:none;fill-rule:nonzero;fill:rgb(95.686275%,67.058824%,72.941176%);fill-opacity:1;" d="M 9.695312 0.046875 C 10.679688 0.015625 13.484375 1.125 13.484375 7.605469 C 13.425781 8.441406 13.34375 11.433594 11.246094 12.902344 L 9.023438 12.902344 C 8.597656 12.71875 8.003906 11.964844 8.003906 9.417969 C 8.003906 8.664062 8.601562 6.609375 8.617188 6.035156 C 8.648438 4.765625 8.351562 4.148438 7.847656 2.898438 C 7.210938 1.308594 8.230469 0.0859375 9.695312 0.046875 Z M 9.695312 0.046875 "/>
<path style=" stroke:none;fill-rule:nonzero;fill:rgb(91.764706%,34.901961%,43.137255%);fill-opacity:1;" d="M 12.253906 3.101562 C 12.515625 3.753906 13.949219 8.699219 11.214844 8.738281 C 10.527344 8.792969 9.292969 8.664062 10.324219 5.445312 C 10.71875 4.40625 9.753906 2.261719 9.664062 1.839844 C 9.535156 1.207031 10.609375 0.535156 11.332031 1.492188 C 11.980469 2.347656 12.253906 3.101562 12.253906 3.101562 Z M 12.253906 3.101562 "/>
<path style=" stroke:none;fill-rule:nonzero;fill:rgb(95.686275%,67.058824%,72.941176%);fill-opacity:1;" d="M 9.75 8.59375 C 9.632812 8.59375 9.519531 8.53125 9.453125 8.421875 C 9.359375 8.257812 9.414062 8.050781 9.578125 7.953125 C 10.882812 7.1875 12.234375 5.375 12.5625 4.65625 C 12.640625 4.484375 12.84375 4.40625 13.015625 4.488281 C 13.1875 4.566406 13.265625 4.769531 13.1875 4.941406 C 12.816406 5.75 11.371094 7.699219 9.921875 8.546875 C 9.871094 8.578125 9.808594 8.59375 9.75 8.59375 Z M 9.75 8.59375 "/>
<path style=" stroke:none;fill-rule:nonzero;fill:rgb(95.686275%,67.058824%,72.941176%);fill-opacity:1;" d="M 13.089844 7.371094 C 13.066406 7.371094 13.039062 7.367188 13.011719 7.359375 C 12.382812 7.207031 10.429688 6.300781 9.671875 4.730469 C 9.589844 4.558594 9.660156 4.355469 9.832031 4.273438 C 10.003906 4.191406 10.207031 4.261719 10.289062 4.433594 C 10.933594 5.765625 12.652344 6.566406 13.171875 6.695312 C 13.355469 6.738281 13.46875 6.925781 13.425781 7.109375 C 13.386719 7.265625 13.246094 7.371094 13.089844 7.371094 Z M 5.140625 2.066406 C 4.152344 2.039062 1.332031 3.152344 1.332031 9.660156 C 1.394531 10.5 1.476562 13.507812 3.585938 14.984375 L 5.816406 14.984375 C 6.246094 14.796875 6.839844 14.042969 6.839844 11.484375 C 6.839844 10.726562 6.257812 8.660156 6.226562 8.085938 C 6.148438 6.667969 6.492188 6.191406 6.996094 4.933594 C 7.636719 3.335938 6.613281 2.109375 5.140625 2.066406 Z M 5.140625 2.066406 "/>
<path style=" stroke:none;fill-rule:nonzero;fill:rgb(91.764706%,34.901961%,43.137255%);fill-opacity:1;" d="M 2.570312 5.136719 C 2.308594 5.792969 0.871094 10.757812 3.613281 10.800781 C 4.304688 10.855469 5.546875 10.726562 4.511719 7.492188 C 4.113281 6.449219 5.082031 4.296875 5.171875 3.867188 C 5.304688 3.234375 4.222656 2.558594 3.496094 3.519531 C 2.847656 4.382812 2.570312 5.136719 2.570312 5.136719 Z M 2.570312 5.136719 "/>
<path style=" stroke:none;fill-rule:nonzero;fill:rgb(95.686275%,67.058824%,72.941176%);fill-opacity:1;" d="M 5.085938 10.652344 C 5.027344 10.652344 4.964844 10.636719 4.910156 10.605469 C 3.457031 9.753906 2.003906 7.796875 1.632812 6.988281 C 1.554688 6.8125 1.632812 6.609375 1.804688 6.53125 C 1.976562 6.453125 2.183594 6.527344 2.261719 6.699219 C 2.589844 7.421875 3.949219 9.242188 5.261719 10.011719 C 5.425781 10.109375 5.480469 10.320312 5.382812 10.484375 C 5.320312 10.59375 5.203125 10.652344 5.085938 10.652344 Z M 5.085938 10.652344 "/>
<path style=" stroke:none;fill-rule:nonzero;fill:rgb(95.686275%,67.058824%,72.941176%);fill-opacity:1;" d="M 1.753906 9.402344 C 1.597656 9.402344 1.457031 9.296875 1.421875 9.136719 C 1.375 8.953125 1.488281 8.765625 1.671875 8.722656 C 2.191406 8.59375 3.90625 7.796875 4.542969 6.476562 C 4.625 6.304688 4.832031 6.234375 5.003906 6.316406 C 5.175781 6.398438 5.246094 6.601562 5.164062 6.773438 C 4.355469 8.457031 2.300781 9.277344 1.835938 9.390625 C 1.808594 9.398438 1.78125 9.402344 1.753906 9.402344 Z M 1.753906 9.402344 "/>
</g>
</svg>
