<?xml version="1.0" encoding="UTF-8"?>
<svg xmlns="http://www.w3.org/2000/svg" xmlns:xlink="http://www.w3.org/1999/xlink" width="15pt" height="15pt" viewBox="0 0 15 15" version="1.1">
<g id="surface1">
<path style=" stroke:none;fill-rule:nonzero;fill:rgb(85.098039%,61.960784%,50.980392%);fill-opacity:1;" d="M 1.214844 8.914062 L 8.914062 1.214844 C 10.257812 -0.128906 12.4375 -0.128906 13.785156 1.214844 C 15.128906 2.5625 15.128906 4.742188 13.785156 6.085938 L 6.085938 13.785156 C 4.742188 15.128906 2.5625 15.128906 1.214844 13.785156 C -0.128906 12.4375 -0.128906 10.257812 1.214844 8.914062 Z M 1.214844 8.914062 "/>
<path style=" stroke:none;fill-rule:nonzero;fill:rgb(75.686275%,41.176471%,30.980392%);fill-opacity:1;" d="M 2.234375 10.742188 C 2.234375 10.964844 2.050781 11.144531 1.828125 11.144531 C 1.605469 11.144531 1.421875 10.964844 1.421875 10.742188 C 1.421875 10.515625 1.605469 10.335938 1.828125 10.335938 C 2.050781 10.335938 2.234375 10.515625 2.234375 10.742188 Z M 2.234375 10.742188 "/>
<path style=" stroke:none;fill-rule:nonzero;fill:rgb(75.686275%,41.176471%,30.980392%);fill-opacity:1;" d="M 3.449219 11.957031 C 3.449219 12.179688 3.269531 12.359375 3.042969 12.359375 C 2.820312 12.359375 2.640625 12.179688 2.640625 11.957031 C 2.640625 11.730469 2.820312 11.550781 3.042969 11.550781 C 3.269531 11.550781 3.449219 11.730469 3.449219 11.957031 Z M 3.449219 11.957031 "/>
<path style=" stroke:none;fill-rule:nonzero;fill:rgb(75.686275%,41.176471%,30.980392%);fill-opacity:1;" d="M 4.664062 13.171875 C 4.664062 13.394531 4.484375 13.578125 4.257812 13.578125 C 4.035156 13.578125 3.855469 13.394531 3.855469 13.171875 C 3.855469 12.949219 4.035156 12.765625 4.257812 12.765625 C 4.484375 12.765625 4.664062 12.949219 4.664062 13.171875 Z M 4.664062 13.171875 "/>
<path style=" stroke:none;fill-rule:nonzero;fill:rgb(75.686275%,41.176471%,30.980392%);fill-opacity:1;" d="M 3.449219 9.527344 C 3.449219 9.75 3.269531 9.929688 3.042969 9.929688 C 2.820312 9.929688 2.640625 9.75 2.640625 9.527344 C 2.640625 9.300781 2.820312 9.121094 3.042969 9.121094 C 3.269531 9.121094 3.449219 9.300781 3.449219 9.527344 Z M 3.449219 9.527344 "/>
<path style=" stroke:none;fill-rule:nonzero;fill:rgb(75.686275%,41.176471%,30.980392%);fill-opacity:1;" d="M 4.664062 10.742188 C 4.664062 10.964844 4.484375 11.144531 4.257812 11.144531 C 4.035156 11.144531 3.855469 10.964844 3.855469 10.742188 C 3.855469 10.515625 4.035156 10.335938 4.257812 10.335938 C 4.484375 10.335938 4.664062 10.515625 4.664062 10.742188 Z M 4.664062 10.742188 "/>
<path style=" stroke:none;fill-rule:nonzero;fill:rgb(75.686275%,41.176471%,30.980392%);fill-opacity:1;" d="M 5.878906 11.957031 C 5.878906 12.179688 5.699219 12.359375 5.472656 12.359375 C 5.25 12.359375 5.070312 12.179688 5.070312 11.957031 C 5.070312 11.730469 5.25 11.550781 5.472656 11.550781 C 5.699219 11.550781 5.878906 11.730469 5.878906 11.957031 Z M 5.878906 11.957031 "/>
<path style=" stroke:none;fill-rule:nonzero;fill:rgb(75.686275%,41.176471%,30.980392%);fill-opacity:1;" d="M 9.125 2.996094 C 9.148438 2.773438 9.351562 2.613281 9.574219 2.640625 C 9.796875 2.667969 9.953125 2.871094 9.925781 3.09375 C 9.902344 3.3125 9.699219 3.472656 9.476562 3.445312 C 9.253906 3.417969 9.097656 3.21875 9.125 2.996094 Z M 9.125 2.996094 "/>
<path style=" stroke:none;fill-rule:nonzero;fill:rgb(75.686275%,41.176471%,30.980392%);fill-opacity:1;" d="M 11.144531 4.257812 C 11.144531 4.484375 10.964844 4.664062 10.742188 4.664062 C 10.515625 4.664062 10.335938 4.484375 10.335938 4.257812 C 10.335938 4.035156 10.515625 3.855469 10.742188 3.855469 C 10.964844 3.855469 11.144531 4.035156 11.144531 4.257812 Z M 11.144531 4.257812 "/>
<path style=" stroke:none;fill-rule:nonzero;fill:rgb(75.686275%,41.176471%,30.980392%);fill-opacity:1;" d="M 12.359375 5.472656 C 12.359375 5.699219 12.179688 5.878906 11.957031 5.878906 C 11.730469 5.878906 11.550781 5.699219 11.550781 5.472656 C 11.550781 5.25 11.730469 5.070312 11.957031 5.070312 C 12.179688 5.070312 12.359375 5.25 12.359375 5.472656 Z M 12.359375 5.472656 "/>
<path style=" stroke:none;fill-rule:nonzero;fill:rgb(75.686275%,41.176471%,30.980392%);fill-opacity:1;" d="M 11.144531 1.828125 C 11.144531 2.050781 10.964844 2.234375 10.742188 2.234375 C 10.515625 2.234375 10.335938 2.050781 10.335938 1.828125 C 10.335938 1.605469 10.515625 1.421875 10.742188 1.421875 C 10.964844 1.421875 11.144531 1.605469 11.144531 1.828125 Z M 11.144531 1.828125 "/>
<path style=" stroke:none;fill-rule:nonzero;fill:rgb(75.686275%,41.176471%,30.980392%);fill-opacity:1;" d="M 12.359375 3.042969 C 12.359375 3.269531 12.179688 3.449219 11.957031 3.449219 C 11.730469 3.449219 11.550781 3.269531 11.550781 3.042969 C 11.550781 2.820312 11.730469 2.640625 11.957031 2.640625 C 12.179688 2.640625 12.359375 2.820312 12.359375 3.042969 Z M 12.359375 3.042969 "/>
<path style=" stroke:none;fill-rule:nonzero;fill:rgb(75.686275%,41.176471%,30.980392%);fill-opacity:1;" d="M 13.578125 4.257812 C 13.578125 4.484375 13.394531 4.664062 13.171875 4.664062 C 12.949219 4.664062 12.765625 4.484375 12.765625 4.257812 C 12.765625 4.035156 12.949219 3.855469 13.171875 3.855469 C 13.394531 3.855469 13.578125 4.035156 13.578125 4.257812 Z M 13.578125 4.257812 "/>
<path style=" stroke:none;fill-rule:nonzero;fill:rgb(91.764706%,72.941176%,65.490196%);fill-opacity:1;" d="M 2.839844 7.296875 L 7.296875 2.839844 L 12.160156 7.703125 L 7.703125 12.160156 Z M 2.839844 7.296875 "/>
<path style=" stroke:none;fill-rule:nonzero;fill:rgb(96.862745%,87.058824%,83.529412%);fill-opacity:1;" d="M 4.082031 7.675781 C 3.980469 7.675781 3.875 7.636719 3.796875 7.558594 C 3.636719 7.398438 3.636719 7.144531 3.796875 6.984375 L 7.011719 3.769531 C 7.167969 3.613281 7.425781 3.613281 7.585938 3.769531 C 7.742188 3.929688 7.742188 4.183594 7.585938 4.34375 L 4.371094 7.558594 C 4.289062 7.636719 4.1875 7.675781 4.082031 7.675781 Z M 4.082031 7.675781 "/>
</g>
</svg>
