<?xml version="1.0" encoding="UTF-8"?>
<svg xmlns="http://www.w3.org/2000/svg" xmlns:xlink="http://www.w3.org/1999/xlink" width="15pt" height="15pt" viewBox="0 0 15 15" version="1.1">
<g id="surface1">
<path style=" stroke:none;fill-rule:nonzero;fill:rgb(19.215686%,21.568627%,23.921569%);fill-opacity:1;" d="M 12.074219 6.871094 L 12.078125 6.871094 C 11.46875 7.144531 10.785156 7.199219 10.128906 7.023438 C 9.453125 6.84375 8.878906 6.429688 8.484375 5.859375 C 8.492188 5.871094 8.5 5.882812 8.507812 5.894531 L 7.917969 5.832031 L 7.828125 6.375 C 8.253906 6.976562 8.839844 7.433594 9.523438 7.699219 L 9.488281 7.828125 C 9.316406 8.460938 9.375 9.203125 9.433594 9.984375 C 9.507812 11.003906 9.589844 12.0625 9.15625 12.875 C 8.746094 13.636719 7.9375 14.089844 6.988281 14.089844 L 6.972656 14.089844 C 6.085938 14.085938 5.28125 13.679688 4.96875 13.082031 C 4.742188 12.652344 4.71875 12.070312 4.691406 11.453125 C 4.652344 10.457031 4.605469 9.328125 3.746094 8.351562 L 2.101562 6.476562 L 1.476562 7.027344 L 3.121094 8.902344 C 3.785156 9.65625 3.824219 10.585938 3.859375 11.488281 C 3.890625 12.171875 3.917969 12.875 4.230469 13.46875 C 4.6875 14.347656 5.761719 14.917969 6.96875 14.921875 L 6.988281 14.921875 C 8.25 14.921875 9.335938 14.304688 9.890625 13.265625 C 10.4375 12.242188 10.34375 11.007812 10.261719 9.921875 C 10.210938 9.210938 10.160156 8.539062 10.292969 8.042969 L 10.328125 7.910156 C 10.515625 7.941406 10.703125 7.960938 10.890625 7.960938 C 11.414062 7.957031 11.929688 7.84375 12.410156 7.628906 L 12.5 7.082031 Z M 12.074219 6.871094 "/>
<path style=" stroke:none;fill-rule:nonzero;fill:rgb(60%,66.666667%,70.980392%);fill-opacity:1;" d="M 0.523438 7.859375 C -0.0820312 7.167969 -0.015625 6.117188 0.675781 5.507812 C 1.371094 4.902344 2.421875 4.972656 3.03125 5.664062 C 3.636719 6.355469 3.566406 7.40625 2.875 8.015625 C 2.183594 8.621094 1.132812 8.554688 0.523438 7.859375 Z M 0.523438 7.859375 "/>
<path style=" stroke:none;fill-rule:nonzero;fill:rgb(19.215686%,21.568627%,23.921569%);fill-opacity:1;" d="M 1.152344 7.3125 C 0.847656 6.964844 0.882812 6.4375 1.226562 6.136719 C 1.574219 5.832031 2.101562 5.867188 2.402344 6.210938 C 2.707031 6.558594 2.671875 7.085938 2.328125 7.386719 C 1.980469 7.691406 1.453125 7.65625 1.152344 7.3125 Z M 1.152344 7.3125 "/>
<path style=" stroke:none;fill-rule:nonzero;fill:rgb(60%,66.666667%,70.980392%);fill-opacity:1;" d="M 12.414062 7.632812 L 12.074219 6.871094 C 12.878906 6.511719 13.472656 5.816406 13.703125 4.964844 L 14.027344 3.757812 C 14.148438 3.3125 13.882812 2.855469 13.4375 2.734375 L 13.65625 1.929688 C 14.542969 2.167969 15.070312 3.085938 14.832031 3.972656 L 14.507812 5.179688 C 14.214844 6.277344 13.449219 7.167969 12.414062 7.632812 Z M 7.828125 6.375 C 7.179688 5.460938 6.972656 4.316406 7.265625 3.234375 L 7.589844 2.027344 C 7.828125 1.140625 8.742188 0.609375 9.628906 0.847656 L 9.414062 1.65625 C 8.96875 1.535156 8.511719 1.800781 8.394531 2.242188 L 8.070312 3.449219 C 7.84375 4.292969 8.003906 5.183594 8.507812 5.894531 Z M 7.828125 6.375 "/>
<path style=" stroke:none;fill-rule:nonzero;fill:rgb(19.215686%,21.568627%,23.921569%);fill-opacity:1;" d="M 9.398438 2.511719 C 9.066406 2.421875 8.871094 2.082031 8.957031 1.746094 L 9.28125 0.539062 C 9.371094 0.207031 9.714844 0.0078125 10.046875 0.0976562 C 10.382812 0.1875 10.578125 0.53125 10.488281 0.863281 L 10.164062 2.070312 C 10.078125 2.40625 9.734375 2.601562 9.398438 2.511719 Z M 13.023438 3.484375 C 12.6875 3.398438 12.492188 3.054688 12.582031 2.71875 L 12.90625 1.511719 C 12.996094 1.179688 13.335938 0.984375 13.671875 1.070312 C 14.003906 1.160156 14.203125 1.503906 14.113281 1.839844 L 13.789062 3.046875 C 13.699219 3.378906 13.355469 3.574219 13.023438 3.484375 Z M 13.023438 3.484375 "/>
</g>
</svg>
