<?xml version="1.0" encoding="UTF-8"?>
<svg xmlns="http://www.w3.org/2000/svg" xmlns:xlink="http://www.w3.org/1999/xlink" width="15pt" height="15pt" viewBox="0 0 15 15" version="1.1">
<g id="surface1">
<path style=" stroke:none;fill-rule:nonzero;fill:rgb(16.078431%,46.27451%,66.666667%);fill-opacity:1;" d="M 15 7.484375 L 15 4.167969 L 11.542969 3.332031 L 3.476562 3.332031 L 0.0234375 4.167969 L 0.0234375 7.484375 C 0.0234375 8.925781 5.15625 13.332031 6.179688 13.332031 L 8.839844 13.332031 C 9.75 13.332031 15 9.046875 15 7.484375 Z M 15 7.484375 "/>
<path style=" stroke:none;fill-rule:nonzero;fill:rgb(36.470588%,67.843137%,92.54902%);fill-opacity:1;" d="M 1.921875 7.742188 L 1.136719 7.472656 C 1.667969 5.917969 1.667969 4.542969 1.667969 3.882812 L 2.5 3.882812 C 2.5 4.589844 2.5 6.054688 1.921875 7.742188 Z M 13.097656 7.804688 C 12.5 6.09375 12.5 4.601562 12.5 3.882812 L 13.332031 3.882812 C 13.332031 4.554688 13.332031 5.953125 13.882812 7.527344 Z M 13.097656 7.804688 "/>
<path style=" stroke:none;fill-rule:nonzero;fill:rgb(36.470588%,67.843137%,92.54902%);fill-opacity:1;" d="M 15 4.167969 L 0.0234375 4.167969 L 0.0234375 3.417969 C 0.0234375 3.109375 0.269531 2.863281 0.578125 2.863281 L 14.445312 2.863281 C 14.75 2.863281 15 3.109375 15 3.417969 Z M 15 4.167969 "/>
<path style=" stroke:none;fill-rule:nonzero;fill:rgb(11.372549%,33.72549%,48.627451%);fill-opacity:1;" d="M 1.542969 7.5625 L 1.53125 7.605469 C 1.535156 7.589844 1.539062 7.578125 1.542969 7.5625 C 0.933594 7.335938 0.398438 7.203125 0.0234375 7.140625 L 0.0234375 7.484375 C 0.0234375 8.925781 5.171875 13.332031 6.1875 13.332031 L 6.578125 13.332031 C 6.097656 9.941406 3.464844 8.28125 1.542969 7.5625 Z M 15 7.484375 L 15 7.171875 C 14.625 7.234375 14.085938 7.363281 13.46875 7.589844 C 13.476562 7.617188 13.484375 7.640625 13.492188 7.667969 C 13.484375 7.640625 13.476562 7.617188 13.46875 7.589844 C 11.550781 8.296875 8.925781 9.9375 8.441406 13.332031 L 8.832031 13.332031 C 9.738281 13.332031 15 9.046875 15 7.484375 Z M 15 7.484375 "/>
</g>
</svg>
