<?xml version="1.0" encoding="UTF-8"?>
<svg xmlns="http://www.w3.org/2000/svg" xmlns:xlink="http://www.w3.org/1999/xlink" width="15pt" height="15pt" viewBox="0 0 15 15" version="1.1">
<g id="surface1">
<path style=" stroke:none;fill-rule:nonzero;fill:rgb(47.058824%,69.411765%,34.901961%);fill-opacity:1;" d="M 12.917969 2.5 L 12.917969 0.816406 C 12.917969 0.59375 12.738281 0.417969 12.519531 0.417969 L 2.480469 0.417969 C 2.261719 0.417969 2.082031 0.59375 2.082031 0.816406 L 2.082031 2.5 L 0 12.917969 L 5.832031 14.582031 L 7.5 10.191406 L 9.167969 14.582031 L 15 12.917969 Z M 12.917969 2.5 "/>
<path style=" stroke:none;fill-rule:nonzero;fill:rgb(36.470588%,56.470588%,25.098039%);fill-opacity:1;" d="M 2.082031 1.667969 L 12.917969 1.667969 L 12.917969 2.5 L 2.082031 2.5 Z M 5.742188 2.5 L 4.878906 2.5 C 4.304688 4.210938 2.601562 4.75 1.597656 4.917969 L 1.421875 5.796875 C 2.925781 5.628906 5.132812 4.796875 5.742188 2.5 Z M 5.742188 2.5 "/>
<path style=" stroke:none;fill-rule:nonzero;fill:rgb(36.470588%,56.470588%,25.098039%);fill-opacity:1;" d="M 13.578125 5.796875 L 13.402344 4.917969 C 12.398438 4.75 10.695312 4.210938 10.121094 2.5 L 9.257812 2.5 C 9.867188 4.796875 12.074219 5.628906 13.578125 5.796875 Z M 7.082031 2.5 L 7.082031 11.289062 L 7.5 10.191406 L 7.917969 11.289062 L 7.917969 2.5 Z M 7.082031 2.5 "/>
<path style=" stroke:none;fill-rule:nonzero;fill:rgb(36.470588%,56.470588%,25.098039%);fill-opacity:1;" d="M 7.5625 9.582031 L 7.5 9.582031 L 7.5 8.75 L 7.5625 8.75 C 8.21875 8.75 8.75 8.21875 8.75 7.5625 L 8.75 2.082031 L 9.582031 2.082031 L 9.582031 7.5625 C 9.582031 8.675781 8.675781 9.582031 7.5625 9.582031 Z M 7.5625 9.582031 "/>
</g>
</svg>
