<?xml version="1.0" encoding="UTF-8"?>
<svg xmlns="http://www.w3.org/2000/svg" xmlns:xlink="http://www.w3.org/1999/xlink" width="15pt" height="15pt" viewBox="0 0 15 15" version="1.1">
<g id="surface1">
<path style=" stroke:none;fill-rule:nonzero;fill:rgb(40%,45.882353%,49.803922%);fill-opacity:1;" d="M 4.976562 13.703125 C 4.898438 13.703125 4.824219 13.660156 4.789062 13.585938 L 0.273438 4.425781 C 0.21875 4.324219 0.261719 4.199219 0.367188 4.148438 C 0.472656 4.097656 0.59375 4.140625 0.644531 4.242188 L 5.164062 13.402344 C 5.214844 13.503906 5.171875 13.628906 5.070312 13.679688 C 5.039062 13.695312 5.007812 13.703125 4.976562 13.703125 Z M 4.976562 13.703125 "/>
<path style=" stroke:none;fill-rule:nonzero;fill:rgb(40%,45.882353%,49.803922%);fill-opacity:1;" d="M 4.976562 13.703125 C 4.886719 13.703125 4.804688 13.644531 4.777344 13.554688 L 1.683594 3.171875 C 1.652344 3.0625 1.714844 2.945312 1.824219 2.910156 C 1.9375 2.878906 2.050781 2.941406 2.085938 3.050781 L 5.175781 13.433594 C 5.210938 13.542969 5.148438 13.660156 5.035156 13.691406 C 5.015625 13.699219 4.996094 13.703125 4.976562 13.703125 Z M 4.976562 13.703125 "/>
<path style=" stroke:none;fill-rule:nonzero;fill:rgb(40%,45.882353%,49.803922%);fill-opacity:1;" d="M 4.976562 13.703125 C 4.867188 13.703125 4.777344 13.621094 4.769531 13.507812 L 3.839844 1.84375 C 3.828125 1.730469 3.914062 1.628906 4.03125 1.621094 C 4.148438 1.613281 4.246094 1.695312 4.253906 1.8125 L 5.183594 13.476562 C 5.195312 13.589844 5.109375 13.691406 4.992188 13.703125 Z M 4.976562 13.703125 "/>
<path style=" stroke:none;fill-rule:nonzero;fill:rgb(40%,45.882353%,49.803922%);fill-opacity:1;" d="M 4.976562 13.703125 C 4.90625 13.703125 4.835938 13.664062 4.796875 13.601562 C 4.738281 13.503906 4.769531 13.375 4.871094 13.3125 L 13.621094 8.046875 C 13.71875 7.988281 13.847656 8.019531 13.90625 8.117188 C 13.964844 8.21875 13.933594 8.347656 13.835938 8.40625 L 5.085938 13.671875 C 5.050781 13.691406 5.015625 13.703125 4.976562 13.703125 Z M 4.976562 13.703125 "/>
<path style=" stroke:none;fill-rule:nonzero;fill:rgb(40%,45.882353%,49.803922%);fill-opacity:1;" d="M 4.976562 13.703125 C 4.917969 13.703125 4.859375 13.675781 4.816406 13.628906 C 4.742188 13.542969 4.753906 13.410156 4.839844 13.335938 L 13.050781 6.269531 C 13.136719 6.195312 13.269531 6.203125 13.34375 6.292969 C 13.421875 6.378906 13.410156 6.511719 13.324219 6.585938 L 5.113281 13.652344 C 5.074219 13.683594 5.027344 13.703125 4.976562 13.703125 Z M 4.976562 13.703125 "/>
<path style=" stroke:none;fill-rule:nonzero;fill:rgb(40%,45.882353%,49.803922%);fill-opacity:1;" d="M 4.976562 13.703125 C 4.933594 13.703125 4.886719 13.6875 4.851562 13.660156 C 4.757812 13.589844 4.742188 13.457031 4.808594 13.367188 L 11.894531 4.050781 C 11.964844 3.960938 12.09375 3.941406 12.1875 4.011719 C 12.277344 4.082031 12.296875 4.214844 12.226562 4.304688 L 5.144531 13.621094 C 5.101562 13.671875 5.039062 13.703125 4.976562 13.703125 Z M 4.976562 13.703125 "/>
<path style=" stroke:none;fill-rule:nonzero;fill:rgb(62.745098%,1.568627%,11.764706%);fill-opacity:1;" d="M 13.855469 8.476562 C 13.855469 8.476562 12.558594 6.949219 7.347656 5.417969 C 2.132812 3.886719 0.21875 4.476562 0.21875 4.476562 C 0.21875 4.476562 -0.484375 -2.046875 8.742188 0.65625 C 17.96875 3.363281 13.855469 8.476562 13.855469 8.476562 Z M 13.855469 8.476562 "/>
<path style=" stroke:none;fill-rule:nonzero;fill:rgb(95.686275%,56.470588%,4.705882%);fill-opacity:1;" d="M 6.582031 12.300781 C 6.542969 12.125 6.378906 12.085938 6.320312 12.21875 C 6.257812 12.355469 6.230469 12.785156 6.230469 12.785156 C 6.230469 12.785156 6.089844 12.402344 5.957031 12.214844 L 5.945312 12.195312 C 5.921875 12.164062 5.898438 12.140625 5.878906 12.125 L 5.871094 12.121094 C 5.765625 12.035156 5.621094 11.972656 5.4375 11.917969 C 5.257812 11.863281 5.101562 11.835938 4.96875 11.855469 L 4.957031 11.855469 C 4.933594 11.855469 4.898438 11.863281 4.863281 11.878906 C 4.859375 11.878906 4.851562 11.882812 4.84375 11.886719 C 4.628906 11.972656 4.304688 12.21875 4.304688 12.21875 C 4.304688 12.21875 4.511719 11.84375 4.535156 11.695312 C 4.558594 11.550781 4.398438 11.492188 4.269531 11.621094 C 4.140625 11.75 3.796875 12.476562 3.847656 12.640625 C 3.898438 12.808594 4.175781 12.738281 4.355469 12.683594 L 4.4375 12.65625 C 4.40625 12.820312 4.390625 13.015625 4.429688 13.207031 C 4.058594 14.039062 4.089844 14.792969 4.257812 14.84375 C 4.515625 14.917969 4.730469 13.863281 4.859375 13.898438 C 4.984375 13.9375 4.640625 14.925781 4.894531 15 C 5.0625 15.046875 5.453125 14.449219 5.59375 13.546875 C 5.726562 13.40625 5.816406 13.234375 5.882812 13.078125 C 5.902344 13.101562 5.921875 13.128906 5.9375 13.148438 C 6.058594 13.289062 6.253906 13.5 6.386719 13.386719 C 6.519531 13.273438 6.621094 12.480469 6.582031 12.300781 Z M 6.582031 12.300781 "/>
<path style=" stroke:none;fill-rule:nonzero;fill:rgb(100%,67.45098%,20%);fill-opacity:1;" d="M 6.054688 11.804688 C 5.980469 12.050781 5.699219 12.425781 5.320312 12.316406 C 4.945312 12.207031 4.910156 11.734375 4.984375 11.488281 C 5.054688 11.242188 5.195312 10.765625 5.730469 10.921875 C 6.269531 11.078125 6.128906 11.558594 6.054688 11.804688 Z M 6.054688 11.804688 "/>
<path style=" stroke:none;fill-rule:nonzero;fill:rgb(16.078431%,18.431373%,20%);fill-opacity:1;" d="M 5.742188 10.882812 C 5.023438 10.671875 4.773438 11.359375 4.898438 11.570312 C 5.023438 11.777344 5.164062 11.585938 5.507812 11.6875 C 5.847656 11.785156 5.867188 12.027344 6.082031 11.917969 C 6.300781 11.808594 6.464844 11.09375 5.742188 10.882812 Z M 5.742188 10.882812 "/>
<path style=" stroke:none;fill-rule:nonzero;fill:rgb(60%,66.666667%,70.980392%);fill-opacity:1;" d="M 6.109375 11.859375 C 6.0625 12.027344 5.886719 12.121094 5.71875 12.070312 C 5.554688 12.023438 5.457031 11.847656 5.507812 11.683594 C 5.554688 11.515625 5.703125 11.511719 5.871094 11.558594 C 6.035156 11.609375 6.160156 11.691406 6.109375 11.859375 Z M 6.109375 11.859375 "/>
<path style=" stroke:none;fill-rule:nonzero;fill:rgb(53.333333%,78.823529%,97.647059%);fill-opacity:1;" d="M 6 11.84375 C 5.96875 11.953125 5.855469 12.011719 5.746094 11.980469 C 5.640625 11.949219 5.578125 11.835938 5.609375 11.730469 C 5.640625 11.621094 5.734375 11.617188 5.84375 11.652344 C 5.953125 11.683594 6.03125 11.734375 6 11.84375 Z M 6 11.84375 "/>
<path style=" stroke:none;fill-rule:nonzero;fill:rgb(60%,66.666667%,70.980392%);fill-opacity:1;" d="M 5.507812 11.683594 C 5.460938 11.847656 5.285156 11.945312 5.117188 11.894531 C 4.953125 11.847656 4.855469 11.671875 4.90625 11.503906 C 4.953125 11.339844 5.101562 11.335938 5.269531 11.382812 C 5.433594 11.433594 5.558594 11.515625 5.507812 11.683594 Z M 5.507812 11.683594 "/>
<path style=" stroke:none;fill-rule:nonzero;fill:rgb(53.333333%,78.823529%,97.647059%);fill-opacity:1;" d="M 5.398438 11.667969 C 5.363281 11.773438 5.253906 11.835938 5.144531 11.804688 C 5.035156 11.773438 4.976562 11.660156 5.007812 11.554688 C 5.039062 11.445312 5.132812 11.441406 5.242188 11.472656 C 5.347656 11.503906 5.429688 11.558594 5.398438 11.667969 Z M 5.398438 11.667969 "/>
<path style=" stroke:none;fill-rule:nonzero;fill:rgb(100%,67.45098%,20%);fill-opacity:1;" d="M 5.457031 13.621094 L 4.503906 13.34375 C 4.445312 13.328125 4.410156 13.265625 4.429688 13.207031 C 4.445312 13.148438 4.507812 13.117188 4.566406 13.132812 L 5.515625 13.410156 C 5.574219 13.429688 5.609375 13.488281 5.59375 13.546875 C 5.574219 13.605469 5.515625 13.640625 5.457031 13.621094 Z M 5.457031 13.621094 "/>
<path style=" stroke:none;fill-rule:nonzero;fill:rgb(95.686275%,67.058824%,72.941176%);fill-opacity:1;" d="M 2.980469 4.472656 C 3.449219 4.527344 3.984375 4.609375 4.585938 4.730469 L 4.621094 0.00390625 C 4.003906 0.0195312 3.46875 0.101562 3.011719 0.234375 Z M 10.039062 6.332031 C 10.613281 6.554688 11.105469 6.773438 11.53125 6.976562 L 13.792969 3.398438 C 13.480469 3.039062 13.074219 2.679688 12.5625 2.335938 Z M 10.039062 6.332031 "/>
<path style=" stroke:none;fill-rule:nonzero;fill:rgb(86.666667%,18.039216%,26.666667%);fill-opacity:1;" d="M 10.039062 6.332031 L 12.5625 2.335938 C 11.660156 1.726562 10.425781 1.152344 8.742188 0.65625 C 7.058594 0.164062 5.707031 -0.0195312 4.621094 0.00390625 L 4.585938 4.730469 C 5.382812 4.890625 6.292969 5.109375 7.347656 5.417969 C 8.398438 5.726562 9.285156 6.035156 10.039062 6.332031 Z M 10.039062 6.332031 "/>
</g>
</svg>
