<?xml version="1.0" encoding="UTF-8"?>
<svg xmlns="http://www.w3.org/2000/svg" xmlns:xlink="http://www.w3.org/1999/xlink" width="15pt" height="15pt" viewBox="0 0 15 15" version="1.1">
<g id="surface1">
<path style=" stroke:none;fill-rule:nonzero;fill:rgb(46.666667%,69.803922%,33.333333%);fill-opacity:1;" d="M 3.554688 8.875 L 8.875 3.554688 C 9.480469 2.949219 9.480469 1.960938 8.875 1.355469 L 8.183594 0.660156 C 7.578125 0.0585938 6.589844 0.0585938 5.984375 0.660156 L 0.660156 5.984375 C 0.0585938 6.589844 0.0585938 7.578125 0.660156 8.183594 L 1.355469 8.875 C 1.960938 9.480469 2.949219 9.480469 3.554688 8.875 Z M 3.554688 8.875 "/>
<path style=" stroke:none;fill-rule:nonzero;fill:rgb(46.666667%,69.803922%,33.333333%);fill-opacity:1;" d="M 14.316406 14.316406 C 14.792969 13.835938 14.792969 13.054688 14.316406 12.578125 L 6.214844 4.480469 C 5.738281 4.003906 4.957031 4.003906 4.480469 4.480469 C 4.003906 4.957031 4.003906 5.738281 4.480469 6.214844 L 12.578125 14.316406 C 13.054688 14.792969 13.835938 14.792969 14.316406 14.316406 Z M 14.316406 14.316406 "/>
<path style=" stroke:none;fill-rule:nonzero;fill:rgb(36.078431%,56.862745%,23.137255%);fill-opacity:1;" d="M 10.230469 7.914062 L 14.3125 12 C 14.949219 12.636719 14.949219 13.679688 14.3125 14.316406 C 13.679688 14.949219 12.636719 14.949219 12 14.316406 L 7.914062 10.230469 C 7.277344 9.589844 7.277344 8.554688 7.914062 7.914062 C 8.554688 7.277344 9.589844 7.277344 10.230469 7.914062 Z M 10.230469 7.914062 "/>
<path style=" stroke:none;fill-rule:nonzero;fill:rgb(88.235294%,90.980392%,92.941176%);fill-opacity:1;" d="M 2.164062 7.371094 L 7.371094 2.164062 C 7.53125 2.007812 7.53125 1.746094 7.371094 1.585938 C 7.214844 1.429688 6.953125 1.429688 6.792969 1.585938 L 1.585938 6.792969 C 1.429688 6.953125 1.429688 7.214844 1.585938 7.371094 C 1.746094 7.53125 2.007812 7.53125 2.164062 7.371094 Z M 3.035156 8.238281 L 8.238281 3.035156 C 8.398438 2.875 8.398438 2.613281 8.238281 2.457031 C 8.082031 2.296875 7.820312 2.296875 7.660156 2.457031 L 2.453125 7.660156 C 2.296875 7.820312 2.296875 8.082031 2.453125 8.238281 C 2.613281 8.398438 2.875 8.398438 3.035156 8.238281 Z M 3.035156 8.238281 "/>
<path style=" stroke:none;fill-rule:nonzero;fill:rgb(36.078431%,56.862745%,23.137255%);fill-opacity:1;" d="M 7.660156 5.925781 L 5.925781 7.660156 L 5.347656 7.082031 L 7.082031 5.347656 Z M 7.660156 5.925781 "/>
<path style=" stroke:none;fill-rule:nonzero;fill:rgb(24.313725%,44.705882%,11.372549%);fill-opacity:1;" d="M 9.832031 10.699219 L 10.699219 9.832031 C 10.9375 9.59375 10.9375 9.203125 10.699219 8.964844 C 10.460938 8.722656 10.070312 8.722656 9.832031 8.964844 L 8.964844 9.832031 C 8.722656 10.070312 8.722656 10.460938 8.964844 10.699219 C 9.203125 10.9375 9.59375 10.9375 9.832031 10.699219 Z M 11.277344 12.144531 L 12.144531 11.277344 C 12.382812 11.039062 12.382812 10.648438 12.144531 10.410156 C 11.90625 10.171875 11.515625 10.171875 11.277344 10.410156 L 10.410156 11.277344 C 10.171875 11.515625 10.171875 11.90625 10.410156 12.144531 C 10.648438 12.382812 11.039062 12.382812 11.277344 12.144531 Z M 12.722656 13.589844 L 13.589844 12.722656 C 13.828125 12.484375 13.828125 12.09375 13.589844 11.855469 C 13.351562 11.617188 12.960938 11.617188 12.722656 11.855469 L 11.855469 12.722656 C 11.617188 12.960938 11.617188 13.351562 11.855469 13.589844 C 12.09375 13.828125 12.484375 13.828125 12.722656 13.589844 Z M 12.722656 13.589844 "/>
<path style=" stroke:none;fill-rule:nonzero;fill:rgb(65.098039%,82.745098%,53.333333%);fill-opacity:1;" d="M 1.445312 6.355469 L 6.355469 1.445312 C 6.597656 1.203125 6.597656 0.8125 6.355469 0.570312 L 6.214844 0.429688 L 0.429688 6.214844 L 0.570312 6.355469 C 0.8125 6.597656 1.203125 6.597656 1.445312 6.355469 Z M 1.445312 6.355469 "/>
</g>
</svg>
