<?xml version="1.0" encoding="UTF-8"?>
<svg xmlns="http://www.w3.org/2000/svg" xmlns:xlink="http://www.w3.org/1999/xlink" width="15pt" height="15pt" viewBox="0 0 15 15" version="1.1">
<g id="surface1">
<path style=" stroke:none;fill-rule:nonzero;fill:rgb(100%,80%,30.196078%);fill-opacity:1;" d="M 11.957031 7.5 C 11.957031 9.960938 9.960938 11.957031 7.5 11.957031 C 5.039062 11.957031 3.042969 9.960938 3.042969 7.5 C 3.042969 5.039062 5.039062 3.042969 7.5 3.042969 C 9.960938 3.042969 11.957031 5.039062 11.957031 7.5 Z M 11.957031 7.5 "/>
<path style=" stroke:none;fill-rule:nonzero;fill:rgb(95.686275%,56.470588%,4.705882%);fill-opacity:1;" d="M 4.261719 9.480469 C 3.851562 9.507812 3.558594 9.351562 3.34375 9.097656 C 3.433594 9.328125 3.546875 9.546875 3.671875 9.757812 C 3.992188 9.878906 4.335938 9.929688 4.730469 9.644531 C 4.539062 9.550781 4.363281 9.472656 4.261719 9.480469 Z M 9.621094 3.585938 C 9.636719 3.722656 9.542969 3.796875 9.308594 3.738281 C 8.910156 3.640625 8.558594 4.0625 8.359375 4.414062 C 7.964844 5.101562 6.335938 5.878906 6.335938 5.28125 C 6.335938 5 4.898438 5.632812 4.714844 5.347656 C 4.539062 5.082031 4.019531 5.183594 3.914062 4.863281 C 3.441406 5.503906 3.132812 6.28125 3.0625 7.121094 C 3.21875 7.421875 3.421875 7.65625 3.625 7.757812 C 3.902344 7.894531 5.179688 8.394531 5.367188 8.074219 C 5.675781 7.542969 7.542969 7.921875 7.5 7.640625 C 7.414062 7.105469 8.511719 7.542969 8.90625 6.855469 C 9.105469 6.503906 9.542969 6.234375 9.941406 6.332031 C 10.40625 6.441406 10.980469 5.644531 10.9375 4.664062 C 10.574219 4.226562 10.125 3.859375 9.621094 3.585938 Z M 10.945312 10.328125 C 10.804688 10.394531 10.664062 10.449219 10.539062 10.460938 C 9.601562 10.5625 9.398438 11.296875 8.769531 11.171875 C 8.445312 11.105469 8.003906 11.675781 7.5 11.710938 C 7.246094 11.730469 6.878906 11.769531 6.503906 11.839844 C 6.824219 11.914062 7.15625 11.957031 7.5 11.957031 C 8.886719 11.957031 10.128906 11.320312 10.945312 10.328125 Z M 10.945312 10.328125 "/>
<path style=" stroke:none;fill-rule:nonzero;fill:rgb(90.980392%,36.862745%,0%);fill-opacity:1;" d="M 9.675781 3.613281 C 10.074219 3.835938 10.433594 4.121094 10.742188 4.449219 C 11.777344 4.382812 12.410156 4.628906 12.359375 5.1875 C 12.332031 5.484375 12.117188 5.832031 11.761719 6.203125 C 10.882812 7.128906 9.132812 8.203125 7.152344 8.953125 C 5.773438 9.476562 4.542969 9.746094 3.664062 9.761719 C 2.769531 9.773438 2.242188 9.527344 2.289062 9.007812 C 2.320312 8.667969 2.601562 8.257812 3.058594 7.820312 C 3.050781 7.710938 3.042969 7.609375 3.042969 7.5 C 3.042969 7.148438 3.089844 6.804688 3.167969 6.472656 C 1.375 7.71875 0.207031 9.085938 0.207031 10.152344 C 0.207031 11.605469 2.359375 12.054688 5.324219 11.386719 C 6.011719 11.230469 6.742188 11.015625 7.5 10.742188 C 9.125 10.148438 10.621094 9.367188 11.832031 8.523438 C 13.625 7.28125 14.792969 5.914062 14.792969 4.847656 C 14.792969 3.394531 12.640625 2.945312 9.675781 3.613281 Z M 9.675781 3.613281 "/>
<path style=" stroke:none;fill-rule:nonzero;fill:rgb(95.686275%,56.470588%,4.705882%);fill-opacity:1;" d="M 2.648438 7.519531 C 2.339844 7.816406 2.078125 8.15625 1.863281 8.515625 C 1.660156 8.867188 1.488281 9.269531 1.511719 9.625 C 1.527344 9.984375 1.796875 10.195312 2.164062 10.292969 C 2.527344 10.390625 2.929688 10.414062 3.34375 10.390625 C 4.160156 10.351562 4.980469 10.214844 5.777344 9.988281 C 6.578125 9.777344 7.355469 9.476562 8.117188 9.140625 C 9.636719 8.460938 11.0625 7.558594 12.339844 6.480469 C 12.492188 6.339844 12.660156 6.210938 12.808594 6.070312 C 12.945312 5.929688 13.078125 5.773438 13.1875 5.613281 C 13.402344 5.292969 13.53125 4.917969 13.324219 4.632812 C 13.121094 4.34375 12.703125 4.183594 12.304688 4.101562 C 11.894531 4.023438 11.464844 4.007812 11.039062 4.054688 C 11.453125 3.945312 11.890625 3.890625 12.328125 3.925781 C 12.757812 3.964844 13.234375 4.050781 13.582031 4.433594 C 13.75 4.625 13.832031 4.910156 13.800781 5.160156 C 13.777344 5.414062 13.675781 5.640625 13.566406 5.84375 C 13.449219 6.042969 13.320312 6.226562 13.171875 6.402344 C 13.023438 6.570312 12.875 6.726562 12.722656 6.886719 C 11.503906 8.136719 10.039062 9.144531 8.449219 9.871094 C 6.859375 10.589844 5.125 11.085938 3.339844 11.019531 C 2.898438 11.003906 2.441406 10.964844 1.992188 10.789062 C 1.769531 10.703125 1.539062 10.574219 1.367188 10.367188 C 1.1875 10.164062 1.101562 9.878906 1.121094 9.628906 C 1.160156 9.121094 1.414062 8.730469 1.683594 8.386719 C 1.960938 8.046875 2.285156 7.753906 2.648438 7.519531 Z M 2.648438 7.519531 "/>
</g>
</svg>
