<?xml version="1.0" encoding="UTF-8"?>
<svg xmlns="http://www.w3.org/2000/svg" xmlns:xlink="http://www.w3.org/1999/xlink" width="15pt" height="15pt" viewBox="0 0 15 15" version="1.1">
<g id="surface1">
<path style=" stroke:none;fill-rule:nonzero;fill:rgb(40.392157%,45.882353%,49.803922%);fill-opacity:1;" d="M 4.601562 7.0625 C 4.601562 7.292969 4.417969 7.480469 4.1875 7.480469 C 3.957031 7.480469 3.769531 7.292969 3.769531 7.0625 C 3.769531 6.832031 3.957031 6.648438 4.1875 6.648438 C 4.417969 6.648438 4.601562 6.832031 4.601562 7.0625 Z M 4.601562 7.0625 "/>
<path style=" stroke:none;fill-rule:nonzero;fill:rgb(40.392157%,45.882353%,49.803922%);fill-opacity:1;" d="M 0.851562 10.8125 C 0.851562 11.042969 0.667969 11.230469 0.4375 11.230469 C 0.207031 11.230469 0.0195312 11.042969 0.0195312 10.8125 C 0.0195312 10.582031 0.207031 10.398438 0.4375 10.398438 C 0.667969 10.398438 0.851562 10.582031 0.851562 10.8125 Z M 0.851562 10.8125 "/>
<path style=" stroke:none;fill-rule:nonzero;fill:rgb(40.392157%,45.882353%,49.803922%);fill-opacity:1;" d="M 8.351562 10.8125 C 8.351562 11.042969 8.167969 11.230469 7.9375 11.230469 C 7.707031 11.230469 7.519531 11.042969 7.519531 10.8125 C 7.519531 10.582031 7.707031 10.398438 7.9375 10.398438 C 8.167969 10.398438 8.351562 10.582031 8.351562 10.8125 Z M 8.351562 10.8125 "/>
<path style=" stroke:none;fill-rule:nonzero;fill:rgb(40.392157%,45.882353%,49.803922%);fill-opacity:1;" d="M 4.601562 14.5625 C 4.601562 14.792969 4.417969 14.980469 4.1875 14.980469 C 3.957031 14.980469 3.769531 14.792969 3.769531 14.5625 C 3.769531 14.332031 3.957031 14.148438 4.1875 14.148438 C 4.417969 14.148438 4.601562 14.332031 4.601562 14.5625 Z M 4.601562 14.5625 "/>
<path style=" stroke:none;fill-rule:nonzero;fill:rgb(40.392157%,45.882353%,49.803922%);fill-opacity:1;" d="M 1.894531 8.261719 C 1.894531 8.492188 1.707031 8.679688 1.476562 8.679688 C 1.246094 8.679688 1.0625 8.492188 1.0625 8.261719 C 1.0625 8.03125 1.246094 7.84375 1.476562 7.84375 C 1.707031 7.84375 1.894531 8.03125 1.894531 8.261719 Z M 1.894531 8.261719 "/>
<path style=" stroke:none;fill-rule:nonzero;fill:rgb(40.392157%,45.882353%,49.803922%);fill-opacity:1;" d="M 7.171875 13.539062 C 7.171875 13.769531 6.984375 13.957031 6.753906 13.957031 C 6.527344 13.957031 6.339844 13.769531 6.339844 13.539062 C 6.339844 13.308594 6.527344 13.121094 6.753906 13.121094 C 6.984375 13.121094 7.171875 13.308594 7.171875 13.539062 Z M 7.171875 13.539062 "/>
<path style=" stroke:none;fill-rule:nonzero;fill:rgb(16.078431%,18.431373%,20%);fill-opacity:1;" d="M 13.472656 2.222656 L 7.035156 9.445312 L 5.554688 7.964844 L 12.773438 1.523438 Z M 13.472656 2.222656 "/>
<path style=" stroke:none;fill-rule:nonzero;fill:rgb(94.509804%,56.078431%,14.901961%);fill-opacity:1;" d="M 6.492188 7.859375 C 4.863281 6.582031 2.503906 6.875 1.230469 8.507812 C -0.0429688 10.136719 0.246094 12.496094 1.878906 13.769531 C 3.511719 15.042969 5.867188 14.753906 7.140625 13.121094 C 8.417969 11.488281 8.125 9.132812 6.492188 7.859375 Z M 6.492188 7.859375 "/>
<path style=" stroke:none;fill-rule:nonzero;fill:rgb(96.078431%,97.254902%,98.039216%);fill-opacity:1;" d="M 5.980469 8.515625 C 4.710938 7.523438 2.878906 7.75 1.886719 9.019531 C 0.894531 10.289062 1.121094 12.121094 2.390625 13.113281 C 3.660156 14.105469 5.492188 13.878906 6.484375 12.609375 C 7.476562 11.339844 7.25 9.507812 5.980469 8.515625 Z M 5.980469 8.515625 "/>
<path style=" stroke:none;fill-rule:nonzero;fill:rgb(80%,83.921569%,86.666667%);fill-opacity:1;" d="M 1.929688 12.472656 L 12 2.417969 L 12.222656 2.640625 L 2.148438 12.695312 Z M 2.289062 12.835938 L 12.363281 2.78125 L 12.582031 3.003906 L 2.511719 13.054688 Z M 2.289062 12.835938 "/>
<path style=" stroke:none;fill-rule:nonzero;fill:rgb(16.078431%,18.431373%,20%);fill-opacity:1;" d="M 0.851562 13.3125 L 1.6875 12.0625 C 1.6875 12.0625 2.101562 12.0625 2.519531 12.480469 C 2.9375 12.898438 2.9375 13.3125 2.9375 13.3125 L 1.6875 14.148438 Z M 0.851562 13.3125 "/>
<path style=" stroke:none;fill-rule:nonzero;fill:rgb(40.392157%,45.882353%,49.803922%);fill-opacity:1;" d="M 3.789062 12.875 C 3.683594 12.875 3.578125 12.835938 3.496094 12.753906 L 2.246094 11.503906 C 2.082031 11.339844 2.082031 11.078125 2.246094 10.914062 C 2.410156 10.753906 2.671875 10.753906 2.835938 10.914062 L 4.085938 12.164062 C 4.246094 12.328125 4.246094 12.589844 4.085938 12.753906 C 4.003906 12.835938 3.898438 12.875 3.789062 12.875 Z M 3.789062 12.875 "/>
<path style=" stroke:none;fill-rule:nonzero;fill:rgb(94.509804%,56.078431%,14.901961%);fill-opacity:1;" d="M 14.460938 1.117188 C 14.640625 1.300781 14.640625 1.601562 14.460938 1.78125 L 13.132812 3.109375 C 12.949219 3.292969 12.652344 3.292969 12.46875 3.109375 L 11.890625 2.53125 C 11.707031 2.347656 11.707031 2.050781 11.890625 1.867188 L 13.21875 0.539062 C 13.398438 0.355469 13.699219 0.355469 13.882812 0.539062 Z M 14.460938 1.117188 "/>
<path style=" stroke:none;fill-rule:nonzero;fill:rgb(39.215686%,12.941176%,8.627451%);fill-opacity:1;" d="M 14.167969 3.332031 C 14.167969 3.5625 13.980469 3.75 13.75 3.75 C 13.519531 3.75 13.332031 3.5625 13.332031 3.332031 C 13.332031 3.101562 13.519531 2.917969 13.75 2.917969 C 13.980469 2.917969 14.167969 3.101562 14.167969 3.332031 Z M 14.167969 3.332031 "/>
<path style=" stroke:none;fill-rule:nonzero;fill:rgb(39.215686%,12.941176%,8.627451%);fill-opacity:1;" d="M 15 2.5 C 15 2.730469 14.8125 2.917969 14.582031 2.917969 C 14.351562 2.917969 14.167969 2.730469 14.167969 2.5 C 14.167969 2.269531 14.351562 2.082031 14.582031 2.082031 C 14.8125 2.082031 15 2.269531 15 2.5 Z M 15 2.5 "/>
<path style=" stroke:none;fill-rule:nonzero;fill:rgb(39.215686%,12.941176%,8.627451%);fill-opacity:1;" d="M 12.082031 1.25 C 12.082031 1.480469 11.898438 1.667969 11.667969 1.667969 C 11.4375 1.667969 11.25 1.480469 11.25 1.25 C 11.25 1.019531 11.4375 0.832031 11.667969 0.832031 C 11.898438 0.832031 12.082031 1.019531 12.082031 1.25 Z M 12.082031 1.25 "/>
<path style=" stroke:none;fill-rule:nonzero;fill:rgb(39.215686%,12.941176%,8.627451%);fill-opacity:1;" d="M 12.917969 0.417969 C 12.917969 0.648438 12.730469 0.832031 12.5 0.832031 C 12.269531 0.832031 12.082031 0.648438 12.082031 0.417969 C 12.082031 0.1875 12.269531 0 12.5 0 C 12.730469 0 12.917969 0.1875 12.917969 0.417969 Z M 12.917969 0.417969 "/>
</g>
</svg>
