<?xml version="1.0" encoding="UTF-8"?>
<svg xmlns="http://www.w3.org/2000/svg" xmlns:xlink="http://www.w3.org/1999/xlink" width="15pt" height="15pt" viewBox="0 0 15 15" version="1.1">
<g id="surface1">
<path style=" stroke:none;fill-rule:nonzero;fill:rgb(74.509804%,9.803922%,19.215686%);fill-opacity:1;" d="M 13.808594 8.941406 C 14.109375 9.085938 13.960938 9.425781 13.808594 9.71875 C 13.078125 11.140625 8.949219 14.773438 5.566406 14.773438 C 2.609375 14.773438 0.207031 12.417969 0.207031 9.71875 C 0.207031 7.023438 3.503906 8.429688 5.648438 7 C 6.363281 7 6.425781 5.445312 13.808594 8.941406 Z M 13.808594 8.941406 "/>
<path style=" stroke:none;fill-rule:nonzero;fill:rgb(49.803922%,1.176471%,11.764706%);fill-opacity:1;" d="M 13.03125 8.941406 C 14.335938 9.78125 8.433594 11.871094 5.472656 11.871094 C 2.511719 11.871094 0.207031 10.824219 0.207031 9.3125 C 0.207031 7.800781 2.609375 6.574219 5.566406 6.574219 C 8.527344 6.574219 10.699219 7.441406 13.03125 8.941406 Z M 13.03125 8.941406 "/>
<path style=" stroke:none;fill-rule:nonzero;fill:rgb(100%,67.45098%,20%);fill-opacity:1;" d="M 12.253906 9.332031 C 13.359375 10.082031 8.714844 11.914062 5.566406 11.914062 C 2.640625 11.914062 0.839844 10.902344 0.839844 9.652344 C 0.839844 8.402344 2.957031 7.390625 5.566406 7.390625 C 8.179688 7.390625 10.699219 8.277344 12.253906 9.332031 Z M 12.253906 9.332031 "/>
<path style=" stroke:none;fill-rule:nonzero;fill:rgb(0%,0%,0%);fill-opacity:1;" d="M 10.308594 10.109375 C 10.136719 10.109375 9.976562 9.992188 9.933594 9.816406 C 9.882812 9.605469 10.007812 9.394531 10.214844 9.34375 C 11.757812 8.957031 12.324219 8.609375 12.652344 7.296875 C 12.707031 7.085938 12.917969 6.960938 13.125 7.011719 C 13.332031 7.0625 13.460938 7.273438 13.40625 7.484375 C 12.945312 9.328125 11.871094 9.730469 10.40625 10.097656 C 10.375 10.105469 10.339844 10.109375 10.308594 10.109375 Z M 10.308594 10.109375 "/>
<path style=" stroke:none;fill-rule:nonzero;fill:rgb(95.686275%,56.470588%,4.705882%);fill-opacity:1;" d="M 11.144531 5.050781 C 11.144531 6.839844 12.1875 7.480469 12.96875 7.480469 C 13.75 7.480469 14.792969 6.839844 14.792969 5.050781 C 14.792969 3.257812 13.980469 1.445312 12.96875 0.230469 C 11.957031 1.445312 11.144531 3.257812 11.144531 5.050781 Z M 11.144531 5.050781 "/>
<path style=" stroke:none;fill-rule:nonzero;fill:rgb(100%,80%,30.196078%);fill-opacity:1;" d="M 13.980469 5.65625 C 13.980469 4.648438 13.527344 3.835938 12.96875 3.835938 C 12.410156 3.835938 11.957031 4.648438 11.957031 5.65625 C 11.957031 6.664062 12.410156 7.480469 12.96875 7.480469 C 13.527344 7.480469 13.980469 6.664062 13.980469 5.65625 Z M 13.980469 5.65625 "/>
<path style=" stroke:none;fill-rule:nonzero;fill:rgb(100%,80%,30.196078%);fill-opacity:1;" d="M 7.90625 9.503906 C 7.90625 8.835938 6.636719 8.289062 5.070312 8.289062 C 3.503906 8.289062 2.234375 8.835938 2.234375 9.503906 C 2.234375 10.175781 3.503906 10.722656 5.070312 10.722656 C 6.636719 10.722656 7.90625 10.175781 7.90625 9.503906 Z M 7.90625 9.503906 "/>
</g>
</svg>
