<?xml version="1.0" encoding="UTF-8"?>
<svg xmlns="http://www.w3.org/2000/svg" xmlns:xlink="http://www.w3.org/1999/xlink" width="15pt" height="15pt" viewBox="0 0 15 15" version="1.1">
<g id="surface1">
<path style=" stroke:none;fill-rule:nonzero;fill:rgb(95.686275%,56.470588%,4.705882%);fill-opacity:1;" d="M 14.675781 12.808594 L 14.664062 12.820312 C 14.261719 13.222656 13.605469 13.222656 13.203125 12.820312 L 3.265625 2.882812 C 3.023438 2.640625 3.023438 2.246094 3.265625 2.003906 L 3.859375 1.40625 C 4.101562 1.164062 4.496094 1.164062 4.738281 1.40625 L 14.675781 11.34375 C 15.078125 11.75 15.078125 12.40625 14.675781 12.808594 Z M 14.675781 12.808594 "/>
<path style=" stroke:none;fill-rule:nonzero;fill:rgb(40%,45.882353%,49.803922%);fill-opacity:1;" d="M 7.402344 2.894531 L 5.929688 1.421875 C 5.683594 1.175781 5.289062 1.175781 5.046875 1.421875 L 3.570312 2.894531 C 2.683594 3.765625 1.96875 4.152344 1.050781 4.167969 C 0.976562 4.824219 1.328125 6.332031 1.867188 6.9375 C 2.574219 7.730469 3.761719 7.980469 4.878906 7.960938 C 4.824219 6.976562 5.058594 6.121094 5.929688 5.25 L 7.402344 3.777344 C 7.644531 3.535156 7.644531 3.136719 7.402344 2.894531 Z M 7.402344 2.894531 "/>
<path style=" stroke:none;fill-rule:nonzero;fill:rgb(80%,83.921569%,86.666667%);fill-opacity:1;" d="M 1.050781 4.167969 C 0.734375 4.171875 0.402344 4.136719 0.0273438 4.0625 C -0.269531 6.125 2.972656 9.367188 5.035156 9.070312 C 4.953125 8.679688 4.898438 8.3125 4.878906 7.960938 C 3.039062 7.375 1.5 5.847656 1.050781 4.167969 Z M 1.050781 4.167969 "/>
</g>
</svg>
