<?xml version="1.0" encoding="UTF-8"?>
<svg xmlns="http://www.w3.org/2000/svg" xmlns:xlink="http://www.w3.org/1999/xlink" width="15pt" height="15pt" viewBox="0 0 15 15" version="1.1">
<g id="surface1">
<path style=" stroke:none;fill-rule:nonzero;fill:rgb(64.313725%,32.156863%,22.745098%);fill-opacity:1;" d="M 5 8.332031 C 4.542969 8.332031 4.167969 8.707031 4.167969 9.167969 L 4.167969 13.332031 C 4.167969 13.792969 4.542969 14.167969 5 14.167969 C 5.457031 14.167969 5.832031 13.792969 5.832031 13.332031 L 5.832031 9.167969 C 5.832031 8.707031 5.457031 8.332031 5 8.332031 Z M 12.5 8.332031 C 12.042969 8.332031 11.667969 8.707031 11.667969 9.167969 L 11.667969 13.332031 C 11.667969 13.792969 12.042969 14.167969 12.5 14.167969 C 12.957031 14.167969 13.332031 13.792969 13.332031 13.332031 L 13.332031 9.167969 C 13.332031 8.707031 12.957031 8.332031 12.5 8.332031 Z M 12.5 8.332031 "/>
<path style=" stroke:none;fill-rule:nonzero;fill:rgb(75.686275%,41.176471%,30.980392%);fill-opacity:1;" d="M 5.417969 0.832031 L 12.082031 0.832031 L 12.082031 4.167969 L 5.417969 4.167969 Z M 5.417969 0.832031 "/>
<path style=" stroke:none;fill-rule:nonzero;fill:rgb(75.686275%,41.176471%,30.980392%);fill-opacity:1;" d="M 6.667969 3.75 L 7.5 3.75 L 7.5 9.167969 L 6.667969 9.167969 Z M 8.332031 3.75 L 9.167969 3.75 L 9.167969 9.167969 L 8.332031 9.167969 Z M 10 3.75 L 10.832031 3.75 L 10.832031 9.167969 L 10 9.167969 Z M 2.917969 9.582031 C 2.457031 9.582031 2.082031 9.957031 2.082031 10.417969 L 2.082031 14.167969 C 2.082031 14.625 2.457031 15 2.917969 15 C 3.375 15 3.75 14.625 3.75 14.167969 L 3.75 10.417969 C 3.75 9.957031 3.375 9.582031 2.917969 9.582031 Z M 2.917969 9.582031 "/>
<path style=" stroke:none;fill-rule:nonzero;fill:rgb(75.686275%,41.176471%,30.980392%);fill-opacity:1;" d="M 10.417969 8.75 C 9.957031 8.75 9.582031 9.125 9.582031 9.582031 L 9.582031 14.167969 C 9.582031 14.625 9.957031 15 10.417969 15 C 10.875 15 11.25 14.625 11.25 14.167969 L 11.25 9.582031 C 11.25 9.125 10.875 8.75 10.417969 8.75 Z M 5 0 C 4.542969 0 4.167969 0.375 4.167969 0.832031 L 4.167969 9.167969 L 5.832031 9.167969 L 5.832031 0.832031 C 5.832031 0.375 5.457031 0 5 0 Z M 12.5 0 C 12.042969 0 11.667969 0.375 11.667969 0.832031 L 11.667969 9.167969 L 13.332031 9.167969 L 13.332031 0.832031 C 13.332031 0.375 12.957031 0 12.5 0 Z M 12.5 0 "/>
<path style=" stroke:none;fill-rule:nonzero;fill:rgb(64.313725%,32.156863%,22.745098%);fill-opacity:1;" d="M 5.832031 0.832031 L 6.25 0.832031 L 6.25 4.167969 L 5.832031 4.167969 Z M 11.667969 4.167969 L 11.25 4.167969 L 11.25 0.832031 L 11.667969 0.832031 Z M 11.667969 4.167969 "/>
<path style=" stroke:none;fill-rule:nonzero;fill:rgb(85.098039%,61.960784%,50.980392%);fill-opacity:1;" d="M 12.820312 8.332031 L 4.308594 8.332031 C 4.214844 8.332031 4.125 8.359375 4.046875 8.40625 L 1.5625 9.671875 C 1.5625 9.671875 11.035156 10.679688 11.867188 10.679688 L 13.128906 9.738281 C 13.257812 9.640625 13.332031 9.488281 13.332031 9.328125 L 13.332031 8.847656 C 13.332031 8.5625 13.105469 8.332031 12.820312 8.332031 Z M 12.820312 8.332031 "/>
<path style=" stroke:none;fill-rule:nonzero;fill:rgb(64.313725%,32.156863%,22.745098%);fill-opacity:1;" d="M 6.667969 4.167969 L 7.5 4.167969 L 7.5 4.582031 L 6.667969 4.582031 Z M 2.082031 10.832031 L 3.75 10.832031 L 3.75 11.25 L 2.082031 11.25 Z M 9.582031 10.832031 L 11.25 10.832031 L 11.25 11.25 L 9.582031 11.25 Z M 8.332031 4.167969 L 9.167969 4.167969 L 9.167969 4.582031 L 8.332031 4.582031 Z M 10 4.167969 L 10.832031 4.167969 L 10.832031 4.582031 L 10 4.582031 Z M 10 4.167969 "/>
<path style=" stroke:none;fill-rule:nonzero;fill:rgb(75.686275%,41.176471%,30.980392%);fill-opacity:1;" d="M 11.433594 10.832031 L 1.898438 10.832031 C 1.539062 10.832031 1.25 10.554688 1.25 10.207031 C 1.25 9.863281 1.539062 9.582031 1.898438 9.582031 L 11.433594 9.582031 C 11.792969 9.582031 12.082031 9.863281 12.082031 10.207031 C 12.082031 10.554688 11.792969 10.832031 11.433594 10.832031 Z M 11.433594 10.832031 "/>
</g>
</svg>
