<?xml version="1.0" encoding="UTF-8"?>
<svg xmlns="http://www.w3.org/2000/svg" xmlns:xlink="http://www.w3.org/1999/xlink" width="15pt" height="15pt" viewBox="0 0 15 15" version="1.1">
<g id="surface1">
<path style=" stroke:none;fill-rule:nonzero;fill:rgb(74.509804%,9.803922%,19.215686%);fill-opacity:1;" d="M 8.75 11.25 C 8.058594 11.25 7.5 10.691406 7.5 10 L 7.5 8.332031 C 7.5 7.644531 8.058594 7.082031 8.75 7.082031 C 9 7.082031 11.25 6.667969 11.25 5 C 11.25 4.167969 10.417969 3.332031 9.167969 3.332031 C 8.148438 3.332031 7.5 4.167969 7.5 4.582031 C 7.5 5.273438 6.941406 5.832031 6.25 5.832031 C 5.558594 5.832031 5 5.273438 5 4.582031 C 5 2.550781 6.910156 0.832031 9.167969 0.832031 C 12.5 0.832031 13.75 3.324219 13.75 5.417969 C 13.75 7.144531 12.800781 8.464844 11.078125 9.132812 C 10.703125 9.28125 10.332031 9.378906 10 9.445312 L 10 10 C 10 10.691406 9.441406 11.25 8.75 11.25 Z M 8.75 11.25 "/>
<path style=" stroke:none;fill-rule:nonzero;fill:rgb(74.509804%,9.803922%,19.215686%);fill-opacity:1;" d="M 10 13.332031 C 10 14.023438 9.441406 14.582031 8.75 14.582031 C 8.058594 14.582031 7.5 14.023438 7.5 13.332031 C 7.5 12.644531 8.058594 12.082031 8.75 12.082031 C 9.441406 12.082031 10 12.644531 10 13.332031 Z M 10 13.332031 "/>
<path style=" stroke:none;fill-rule:nonzero;fill:rgb(74.509804%,9.803922%,19.215686%);fill-opacity:1;" d="M 3.75 13.332031 C 3.75 14.023438 3.191406 14.582031 2.5 14.582031 C 1.808594 14.582031 1.25 14.023438 1.25 13.332031 C 1.25 12.644531 1.808594 12.082031 2.5 12.082031 C 3.191406 12.082031 3.75 12.644531 3.75 13.332031 Z M 3.75 13.332031 "/>
<path style=" stroke:none;fill-rule:nonzero;fill:rgb(74.509804%,9.803922%,19.215686%);fill-opacity:1;" d="M 3.75 10 C 3.75 10.691406 3.191406 11.25 2.5 11.25 C 1.808594 11.25 1.25 10.691406 1.25 10 L 1.25 2.082031 C 1.25 1.394531 1.808594 0.832031 2.5 0.832031 C 3.191406 0.832031 3.75 1.394531 3.75 2.082031 Z M 3.75 10 "/>
</g>
</svg>
