<?xml version="1.0" encoding="UTF-8"?>
<svg xmlns="http://www.w3.org/2000/svg" xmlns:xlink="http://www.w3.org/1999/xlink" width="15pt" height="15pt" viewBox="0 0 15 15" version="1.1">
<g id="surface1">
<path style=" stroke:none;fill-rule:nonzero;fill:rgb(19.215686%,21.568627%,23.921569%);fill-opacity:1;" d="M 2.171875 5.28125 L 0.988281 5.28125 C 0.46875 5.28125 0.253906 4.902344 0.253906 4.535156 C 0.253906 4.152344 0.523438 3.785156 0.988281 3.785156 L 4.976562 3.785156 C 5.441406 3.785156 5.710938 4.152344 5.710938 4.535156 C 5.710938 4.902344 5.496094 5.28125 4.976562 5.28125 L 3.796875 5.28125 L 3.796875 10.71875 C 3.796875 11.261719 3.449219 11.5625 2.984375 11.5625 C 2.515625 11.5625 2.171875 11.261719 2.171875 10.71875 Z M 6.859375 4.554688 C 6.925781 4.164062 7.347656 3.722656 7.921875 3.722656 C 8.464844 3.722656 8.886719 4.109375 9.007812 4.5 L 10.285156 8.789062 L 10.304688 8.789062 L 11.585938 4.5 C 11.703125 4.109375 12.125 3.722656 12.667969 3.722656 C 13.242188 3.722656 13.664062 4.164062 13.730469 4.554688 L 14.738281 10.597656 C 14.746094 10.664062 14.746094 10.730469 14.746094 10.785156 C 14.746094 11.261719 14.402344 11.5625 13.96875 11.5625 C 13.414062 11.5625 13.199219 11.316406 13.121094 10.804688 L 12.484375 6.398438 L 12.460938 6.398438 L 11.160156 10.9375 C 11.085938 11.195312 10.878906 11.5625 10.296875 11.5625 C 9.710938 11.5625 9.503906 11.195312 9.429688 10.9375 L 8.128906 6.398438 L 8.105469 6.398438 L 7.46875 10.804688 C 7.390625 11.316406 7.175781 11.5625 6.621094 11.5625 C 6.1875 11.5625 5.84375 11.261719 5.84375 10.785156 C 5.84375 10.730469 5.84375 10.664062 5.851562 10.597656 Z M 6.859375 4.554688 "/>
</g>
</svg>
