<?xml version="1.0" encoding="UTF-8"?>
<svg xmlns="http://www.w3.org/2000/svg" xmlns:xlink="http://www.w3.org/1999/xlink" width="15pt" height="15pt" viewBox="0 0 15 15" version="1.1">
<g id="surface1">
<path style=" stroke:none;fill-rule:nonzero;fill:rgb(23.137255%,53.333333%,76.470588%);fill-opacity:1;" d="M 0 1.667969 C 0 0.746094 0.746094 0 1.667969 0 L 13.332031 0 C 14.253906 0 15 0.746094 15 1.667969 L 15 13.332031 C 15 14.253906 14.253906 15 13.332031 15 L 1.667969 15 C 0.746094 15 0 14.253906 0 13.332031 Z M 0 1.667969 "/>
<path style=" stroke:none;fill-rule:nonzero;fill:rgb(100%,100%,100%);fill-opacity:1;" d="M 8.546875 3.363281 C 8.546875 3.945312 8.082031 4.433594 7.5 4.433594 C 6.945312 4.433594 6.453125 3.929688 6.453125 3.363281 C 6.453125 2.832031 6.945312 2.34375 7.5 2.34375 C 8.054688 2.34375 8.546875 2.820312 8.546875 3.363281 Z M 6.570312 6.167969 C 6.570312 5.546875 6.957031 5.132812 7.5 5.132812 C 8.042969 5.132812 8.429688 5.546875 8.429688 6.167969 L 8.429688 11.128906 C 8.429688 11.746094 8.042969 12.160156 7.5 12.160156 C 6.957031 12.160156 6.570312 11.746094 6.570312 11.128906 Z M 6.570312 6.167969 "/>
</g>
</svg>
