<?xml version="1.0" encoding="UTF-8"?>
<svg xmlns="http://www.w3.org/2000/svg" xmlns:xlink="http://www.w3.org/1999/xlink" width="15pt" height="15pt" viewBox="0 0 15 15" version="1.1">
<g id="surface1">
<path style=" stroke:none;fill-rule:nonzero;fill:rgb(23.137255%,53.333333%,76.470588%);fill-opacity:1;" d="M 15 13.332031 C 15 14.253906 14.253906 15 13.332031 15 L 1.667969 15 C 0.746094 15 0 14.253906 0 13.332031 L 0 1.667969 C 0 0.746094 0.746094 0 1.667969 0 L 13.332031 0 C 14.253906 0 15 0.746094 15 1.667969 Z M 15 13.332031 "/>
<path style=" stroke:none;fill-rule:nonzero;fill:rgb(100%,100%,100%);fill-opacity:1;" d="M 7.5 2.082031 L 4.167969 2.082031 L 4.167969 3.75 L 7.503906 3.75 C 9.113281 3.753906 10.417969 5.058594 10.417969 6.667969 C 10.417969 8.277344 9.109375 9.582031 7.5 9.582031 L 5.832031 9.582031 L 5.832031 7.917969 L 2.832031 10.417969 L 5.832031 12.917969 L 5.832031 11.25 L 7.5 11.25 C 10.03125 11.25 12.082031 9.199219 12.082031 6.667969 C 12.082031 4.136719 10.03125 2.082031 7.5 2.082031 Z M 7.5 2.082031 "/>
</g>
</svg>
