<?xml version="1.0" encoding="UTF-8"?>
<svg xmlns="http://www.w3.org/2000/svg" xmlns:xlink="http://www.w3.org/1999/xlink" width="15pt" height="15pt" viewBox="0 0 15 15" version="1.1">
<g id="surface1">
<path style=" stroke:none;fill-rule:nonzero;fill:rgb(23.137255%,53.333333%,76.470588%);fill-opacity:1;" d="M 0 13.332031 C 0 14.253906 0.746094 15 1.667969 15 L 13.332031 15 C 14.253906 15 15 14.253906 15 13.332031 L 15 1.667969 C 15 0.746094 14.253906 0 13.332031 0 L 1.667969 0 C 0.746094 0 0 0.746094 0 1.667969 Z M 0 13.332031 "/>
<path style=" stroke:none;fill-rule:nonzero;fill:rgb(100%,100%,100%);fill-opacity:1;" d="M 12.167969 10.417969 L 9.167969 7.917969 L 9.167969 9.582031 L 7.5 9.582031 C 5.890625 9.582031 4.582031 8.277344 4.582031 6.667969 C 4.582031 5.054688 5.890625 3.75 7.5 3.75 L 10.832031 3.75 L 10.832031 2.082031 L 7.5 2.082031 C 4.96875 2.082031 2.917969 4.136719 2.917969 6.667969 C 2.917969 9.199219 4.96875 11.25 7.5 11.25 L 9.167969 11.25 L 9.167969 12.917969 Z M 12.167969 10.417969 "/>
</g>
</svg>
