<?xml version="1.0" encoding="UTF-8"?>
<svg xmlns="http://www.w3.org/2000/svg" xmlns:xlink="http://www.w3.org/1999/xlink" width="15pt" height="15pt" viewBox="0 0 15 15" version="1.1">
<g id="surface1">
<path style=" stroke:none;fill-rule:nonzero;fill:rgb(23.137255%,53.333333%,76.470588%);fill-opacity:1;" d="M 15 13.332031 C 15 14.253906 14.253906 15 13.332031 15 L 1.667969 15 C 0.746094 15 0 14.253906 0 13.332031 L 0 1.667969 C 0 0.746094 0.746094 0 1.667969 0 L 13.332031 0 C 14.253906 0 15 0.746094 15 1.667969 Z M 15 13.332031 "/>
<path style=" stroke:none;fill-rule:nonzero;fill:rgb(100%,100%,100%);fill-opacity:1;" d="M 5.742188 6.746094 L 4.632812 6.746094 C 4.207031 6.746094 4.011719 6.4375 4.011719 6.128906 C 4.011719 5.816406 4.207031 5.507812 4.632812 5.507812 L 5.925781 5.507812 L 6.207031 3.425781 C 6.273438 2.960938 6.46875 2.808594 6.855469 2.808594 C 7.164062 2.808594 7.449219 3.015625 7.449219 3.324219 C 7.449219 3.519531 7.449219 3.425781 7.421875 3.632812 L 7.164062 5.507812 L 8.40625 5.507812 L 8.6875 3.425781 C 8.753906 2.960938 8.949219 2.808594 9.335938 2.808594 C 9.644531 2.808594 9.929688 3.015625 9.929688 3.324219 C 9.929688 3.519531 9.929688 3.425781 9.902344 3.632812 L 9.644531 5.507812 L 10.757812 5.507812 C 11.183594 5.507812 11.375 5.816406 11.375 6.128906 C 11.375 6.4375 11.183594 6.746094 10.757812 6.746094 L 9.464844 6.746094 L 9.257812 8.21875 L 10.367188 8.21875 C 10.792969 8.21875 10.988281 8.53125 10.988281 8.839844 C 10.988281 9.152344 10.792969 9.460938 10.367188 9.460938 L 9.078125 9.460938 L 8.792969 11.539062 C 8.726562 12.003906 8.535156 12.160156 8.144531 12.160156 C 7.835938 12.160156 7.550781 11.953125 7.550781 11.644531 C 7.550781 11.449219 7.550781 11.539062 7.578125 11.332031 L 7.835938 9.460938 L 6.59375 9.460938 L 6.3125 11.539062 C 6.246094 12.003906 6.054688 12.160156 5.664062 12.160156 C 5.355469 12.160156 5.070312 11.953125 5.070312 11.644531 C 5.070312 11.449219 5.070312 11.539062 5.097656 11.332031 L 5.355469 9.460938 L 4.246094 9.460938 C 3.816406 9.460938 3.625 9.152344 3.625 8.839844 C 3.625 8.53125 3.816406 8.21875 4.246094 8.21875 L 5.535156 8.21875 Z M 6.789062 8.21875 L 8.015625 8.21875 L 8.222656 6.746094 L 6.996094 6.746094 Z M 6.789062 8.21875 "/>
</g>
</svg>
