<?xml version="1.0" encoding="UTF-8"?>
<svg xmlns="http://www.w3.org/2000/svg" xmlns:xlink="http://www.w3.org/1999/xlink" width="15pt" height="15pt" viewBox="0 0 15 15" version="1.1">
<g id="surface1">
<path style=" stroke:none;fill-rule:nonzero;fill:rgb(19.215686%,21.568627%,23.921569%);fill-opacity:1;" d="M 10.417969 13.332031 C 10.417969 14.253906 9.671875 15 8.75 15 L 6.25 15 C 5.328125 15 4.582031 14.253906 4.582031 13.332031 L 4.582031 1.667969 C 4.582031 0.746094 5.328125 0 6.25 0 L 8.75 0 C 9.671875 0 10.417969 0.746094 10.417969 1.667969 Z M 10.417969 13.332031 "/>
<path style=" stroke:none;fill-rule:nonzero;fill:rgb(60%,66.666667%,70.980392%);fill-opacity:1;" d="M 13.332031 7.5 C 13.332031 7.039062 12.960938 6.667969 12.5 6.667969 L 12.082031 6.667969 C 11.625 6.667969 11.25 7.039062 11.25 7.5 C 11.25 7.960938 11.625 8.332031 12.082031 8.332031 L 12.5 8.332031 C 12.960938 8.332031 13.332031 7.960938 13.332031 7.5 Z M 13.332031 7.5 "/>
<path style=" stroke:none;fill-rule:nonzero;fill:rgb(80%,83.921569%,86.666667%);fill-opacity:1;" d="M 2.5 7.5 C 2.5 4.738281 4.738281 2.5 7.5 2.5 C 10.261719 2.5 12.5 4.738281 12.5 7.5 C 12.5 10.261719 10.261719 12.5 7.5 12.5 C 4.738281 12.5 2.5 10.261719 2.5 7.5 Z M 2.5 7.5 "/>
<path style=" stroke:none;fill-rule:nonzero;fill:rgb(96.078431%,97.254902%,98.039216%);fill-opacity:1;" d="M 4.167969 7.5 C 4.167969 5.660156 5.660156 4.167969 7.5 4.167969 C 9.339844 4.167969 10.832031 5.660156 10.832031 7.5 C 10.832031 9.339844 9.339844 10.832031 7.5 10.832031 C 5.660156 10.832031 4.167969 9.339844 4.167969 7.5 Z M 4.167969 7.5 "/>
<path style=" stroke:none;fill-rule:nonzero;fill:rgb(40%,45.882353%,49.803922%);fill-opacity:1;" d="M 9.582031 9.167969 C 9.511719 9.167969 9.4375 9.148438 9.371094 9.105469 L 7.285156 7.855469 C 7.160156 7.78125 7.082031 7.648438 7.082031 7.5 L 7.082031 4.582031 C 7.082031 4.351562 7.269531 4.167969 7.5 4.167969 C 7.730469 4.167969 7.917969 4.351562 7.917969 4.582031 L 7.917969 7.265625 L 9.796875 8.390625 C 9.996094 8.511719 10.058594 8.765625 9.941406 8.964844 C 9.863281 9.09375 9.726562 9.167969 9.582031 9.167969 Z M 9.582031 9.167969 "/>
</g>
</svg>
