<?xml version="1.0" encoding="UTF-8"?>
<svg xmlns="http://www.w3.org/2000/svg" xmlns:xlink="http://www.w3.org/1999/xlink" width="15pt" height="15pt" viewBox="0 0 15 15" version="1.1">
<g id="surface1">
<path style=" stroke:none;fill-rule:nonzero;fill:rgb(60%,66.666667%,70.980392%);fill-opacity:1;" d="M 15 11.667969 C 15 12.125 14.625 12.5 14.167969 12.5 L 0.832031 12.5 C 0.375 12.5 0 12.125 0 11.667969 L 0 5 C 0 4.539062 0.375 4.167969 0.832031 4.167969 L 14.167969 4.167969 C 14.625 4.167969 15 4.539062 15 5 Z M 15 11.667969 "/>
<path style=" stroke:none;fill-rule:nonzero;fill:rgb(16.078431%,18.431373%,20%);fill-opacity:1;" d="M 2.292969 7.917969 C 2.292969 8.148438 2.105469 8.332031 1.875 8.332031 L 1.457031 8.332031 C 1.226562 8.332031 1.042969 8.148438 1.042969 7.917969 L 1.042969 7.5 C 1.042969 7.269531 1.226562 7.082031 1.457031 7.082031 L 1.875 7.082031 C 2.105469 7.082031 2.292969 7.269531 2.292969 7.5 Z M 3.957031 7.917969 C 3.957031 8.148438 3.773438 8.332031 3.542969 8.332031 L 3.125 8.332031 C 2.894531 8.332031 2.707031 8.148438 2.707031 7.917969 L 2.707031 7.5 C 2.707031 7.269531 2.894531 7.082031 3.125 7.082031 L 3.542969 7.082031 C 3.773438 7.082031 3.957031 7.269531 3.957031 7.5 Z M 5.625 7.917969 C 5.625 8.148438 5.4375 8.332031 5.207031 8.332031 L 4.792969 8.332031 C 4.5625 8.332031 4.375 8.148438 4.375 7.917969 L 4.375 7.5 C 4.375 7.269531 4.5625 7.082031 4.792969 7.082031 L 5.207031 7.082031 C 5.4375 7.082031 5.625 7.269531 5.625 7.5 Z M 7.292969 7.917969 C 7.292969 8.148438 7.105469 8.332031 6.875 8.332031 L 6.457031 8.332031 C 6.226562 8.332031 6.042969 8.148438 6.042969 7.917969 L 6.042969 7.5 C 6.042969 7.269531 6.226562 7.082031 6.457031 7.082031 L 6.875 7.082031 C 7.105469 7.082031 7.292969 7.269531 7.292969 7.5 Z M 8.957031 7.917969 C 8.957031 8.148438 8.773438 8.332031 8.542969 8.332031 L 8.125 8.332031 C 7.894531 8.332031 7.707031 8.148438 7.707031 7.917969 L 7.707031 7.5 C 7.707031 7.269531 7.894531 7.082031 8.125 7.082031 L 8.542969 7.082031 C 8.773438 7.082031 8.957031 7.269531 8.957031 7.5 Z M 10.625 7.917969 C 10.625 8.148438 10.4375 8.332031 10.207031 8.332031 L 9.792969 8.332031 C 9.5625 8.332031 9.375 8.148438 9.375 7.917969 L 9.375 7.5 C 9.375 7.269531 9.5625 7.082031 9.792969 7.082031 L 10.207031 7.082031 C 10.4375 7.082031 10.625 7.269531 10.625 7.5 Z M 12.292969 7.917969 C 12.292969 8.148438 12.105469 8.332031 11.875 8.332031 L 11.457031 8.332031 C 11.226562 8.332031 11.042969 8.148438 11.042969 7.917969 L 11.042969 7.5 C 11.042969 7.269531 11.226562 7.082031 11.457031 7.082031 L 11.875 7.082031 C 12.105469 7.082031 12.292969 7.269531 12.292969 7.5 Z M 13.957031 7.917969 C 13.957031 8.148438 13.773438 8.332031 13.542969 8.332031 L 13.125 8.332031 C 12.894531 8.332031 12.707031 8.148438 12.707031 7.917969 L 12.707031 7.5 C 12.707031 7.269531 12.894531 7.082031 13.125 7.082031 L 13.542969 7.082031 C 13.773438 7.082031 13.957031 7.269531 13.957031 7.5 Z M 3.125 9.582031 C 3.125 9.8125 2.9375 10 2.707031 10 L 2.292969 10 C 2.0625 10 1.875 9.8125 1.875 9.582031 L 1.875 9.167969 C 1.875 8.9375 2.0625 8.75 2.292969 8.75 L 2.707031 8.75 C 2.9375 8.75 3.125 8.9375 3.125 9.167969 Z M 4.792969 9.582031 C 4.792969 9.8125 4.605469 10 4.375 10 L 3.957031 10 C 3.726562 10 3.542969 9.8125 3.542969 9.582031 L 3.542969 9.167969 C 3.542969 8.9375 3.726562 8.75 3.957031 8.75 L 4.375 8.75 C 4.605469 8.75 4.792969 8.9375 4.792969 9.167969 Z M 6.457031 9.582031 C 6.457031 9.8125 6.273438 10 6.042969 10 L 5.625 10 C 5.394531 10 5.207031 9.8125 5.207031 9.582031 L 5.207031 9.167969 C 5.207031 8.9375 5.394531 8.75 5.625 8.75 L 6.042969 8.75 C 6.273438 8.75 6.457031 8.9375 6.457031 9.167969 Z M 8.125 9.582031 C 8.125 9.8125 7.9375 10 7.707031 10 L 7.292969 10 C 7.0625 10 6.875 9.8125 6.875 9.582031 L 6.875 9.167969 C 6.875 8.9375 7.0625 8.75 7.292969 8.75 L 7.707031 8.75 C 7.9375 8.75 8.125 8.9375 8.125 9.167969 Z M 9.792969 9.582031 C 9.792969 9.8125 9.605469 10 9.375 10 L 8.957031 10 C 8.726562 10 8.542969 9.8125 8.542969 9.582031 L 8.542969 9.167969 C 8.542969 8.9375 8.726562 8.75 8.957031 8.75 L 9.375 8.75 C 9.605469 8.75 9.792969 8.9375 9.792969 9.167969 Z M 11.457031 9.582031 C 11.457031 9.8125 11.273438 10 11.042969 10 L 10.625 10 C 10.394531 10 10.207031 9.8125 10.207031 9.582031 L 10.207031 9.167969 C 10.207031 8.9375 10.394531 8.75 10.625 8.75 L 11.042969 8.75 C 11.273438 8.75 11.457031 8.9375 11.457031 9.167969 Z M 13.125 9.582031 C 13.125 9.8125 12.9375 10 12.707031 10 L 12.292969 10 C 12.0625 10 11.875 9.8125 11.875 9.582031 L 11.875 9.167969 C 11.875 8.9375 12.0625 8.75 12.292969 8.75 L 12.707031 8.75 C 12.9375 8.75 13.125 8.9375 13.125 9.167969 Z M 4.167969 11.25 C 4.167969 11.480469 3.980469 11.667969 3.75 11.667969 L 2.917969 11.667969 C 2.6875 11.667969 2.5 11.480469 2.5 11.25 L 2.5 10.832031 C 2.5 10.601562 2.6875 10.417969 2.917969 10.417969 L 3.75 10.417969 C 3.980469 10.417969 4.167969 10.601562 4.167969 10.832031 Z M 12.5 11.25 C 12.5 11.480469 12.3125 11.667969 12.082031 11.667969 L 11.25 11.667969 C 11.019531 11.667969 10.832031 11.480469 10.832031 11.25 L 10.832031 10.832031 C 10.832031 10.601562 11.019531 10.417969 11.25 10.417969 L 12.082031 10.417969 C 12.3125 10.417969 12.5 10.601562 12.5 10.832031 Z M 10.417969 11.25 C 10.417969 11.480469 10.230469 11.667969 10 11.667969 L 5 11.667969 C 4.769531 11.667969 4.582031 11.480469 4.582031 11.25 L 4.582031 10.832031 C 4.582031 10.601562 4.769531 10.417969 5 10.417969 L 10 10.417969 C 10.230469 10.417969 10.417969 10.601562 10.417969 10.832031 Z M 2.292969 5.453125 C 2.292969 5.679688 2.105469 5.867188 1.875 5.867188 L 1.457031 5.867188 C 1.226562 5.867188 1.042969 5.679688 1.042969 5.453125 C 1.042969 5.222656 1.226562 5.035156 1.457031 5.035156 L 1.875 5.035156 C 2.105469 5.035156 2.292969 5.222656 2.292969 5.453125 Z M 3.957031 5.453125 C 3.957031 5.679688 3.773438 5.867188 3.542969 5.867188 L 3.125 5.867188 C 2.894531 5.867188 2.707031 5.679688 2.707031 5.453125 C 2.707031 5.222656 2.894531 5.035156 3.125 5.035156 L 3.542969 5.035156 C 3.773438 5.035156 3.957031 5.222656 3.957031 5.453125 Z M 5.625 5.453125 C 5.625 5.679688 5.4375 5.867188 5.207031 5.867188 L 4.792969 5.867188 C 4.5625 5.867188 4.375 5.679688 4.375 5.453125 C 4.375 5.222656 4.5625 5.035156 4.792969 5.035156 L 5.207031 5.035156 C 5.4375 5.035156 5.625 5.222656 5.625 5.453125 Z M 7.292969 5.453125 C 7.292969 5.679688 7.105469 5.867188 6.875 5.867188 L 6.457031 5.867188 C 6.226562 5.867188 6.042969 5.679688 6.042969 5.453125 C 6.042969 5.222656 6.226562 5.035156 6.457031 5.035156 L 6.875 5.035156 C 7.105469 5.035156 7.292969 5.222656 7.292969 5.453125 Z M 8.957031 5.453125 C 8.957031 5.679688 8.773438 5.867188 8.542969 5.867188 L 8.125 5.867188 C 7.894531 5.867188 7.707031 5.679688 7.707031 5.453125 C 7.707031 5.222656 7.894531 5.035156 8.125 5.035156 L 8.542969 5.035156 C 8.773438 5.035156 8.957031 5.222656 8.957031 5.453125 Z M 10.625 5.453125 C 10.625 5.679688 10.4375 5.867188 10.207031 5.867188 L 9.792969 5.867188 C 9.5625 5.867188 9.375 5.679688 9.375 5.453125 C 9.375 5.222656 9.5625 5.035156 9.792969 5.035156 L 10.207031 5.035156 C 10.4375 5.035156 10.625 5.222656 10.625 5.453125 Z M 12.292969 5.453125 C 12.292969 5.679688 12.105469 5.867188 11.875 5.867188 L 11.457031 5.867188 C 11.226562 5.867188 11.042969 5.679688 11.042969 5.453125 C 11.042969 5.222656 11.226562 5.035156 11.457031 5.035156 L 11.875 5.035156 C 12.105469 5.035156 12.292969 5.222656 12.292969 5.453125 Z M 13.957031 5.453125 C 13.957031 5.679688 13.773438 5.867188 13.542969 5.867188 L 13.125 5.867188 C 12.894531 5.867188 12.707031 5.679688 12.707031 5.453125 C 12.707031 5.222656 12.894531 5.035156 13.125 5.035156 L 13.542969 5.035156 C 13.773438 5.035156 13.957031 5.222656 13.957031 5.453125 Z M 13.957031 5.453125 "/>
</g>
</svg>
