<?xml version="1.0" encoding="UTF-8"?>
<svg xmlns="http://www.w3.org/2000/svg" xmlns:xlink="http://www.w3.org/1999/xlink" width="15pt" height="15pt" viewBox="0 0 15 15" version="1.1">
<g id="surface1">
<path style=" stroke:none;fill-rule:nonzero;fill:rgb(100%,80%,30.196078%);fill-opacity:1;" d="M 8.332031 2.515625 C 8.332031 2.980469 7.957031 3.355469 7.5 3.355469 C 7.042969 3.355469 6.667969 2.980469 6.667969 2.515625 L 6.667969 0.839844 C 6.667969 0.375 7.042969 0 7.5 0 C 7.957031 0 8.332031 0.375 8.332031 0.839844 Z M 8.332031 2.515625 "/>
<path style=" stroke:none;fill-rule:nonzero;fill:rgb(100%,67.45098%,20%);fill-opacity:1;" d="M 3.824219 15 C 3.730469 15 3.636719 14.976562 3.546875 14.933594 C 3.242188 14.777344 3.117188 14.402344 3.269531 14.089844 L 6.996094 6.535156 C 7.097656 6.324219 7.316406 6.1875 7.550781 6.1875 C 7.785156 6.1875 8 6.324219 8.105469 6.535156 L 11.832031 14.089844 C 11.984375 14.402344 11.859375 14.777344 11.554688 14.933594 C 11.246094 15.089844 10.875 14.964844 10.71875 14.652344 L 7.550781 8.226562 L 4.378906 14.652344 C 4.273438 14.871094 4.050781 15 3.824219 15 Z M 3.824219 15 "/>
<path style=" stroke:none;fill-rule:nonzero;fill:rgb(34.509804%,34.901961%,35.686275%);fill-opacity:1;" d="M 7.550781 8.496094 C 7.441406 8.496094 7.335938 8.453125 7.257812 8.375 L 1.464844 2.5 C 1.300781 2.335938 1.300781 2.070312 1.464844 1.90625 C 1.625 1.742188 1.886719 1.742188 2.046875 1.90625 L 7.550781 7.484375 L 13.050781 1.90625 C 13.214844 1.742188 13.476562 1.742188 13.636719 1.90625 C 13.796875 2.070312 13.796875 2.335938 13.636719 2.5 L 7.84375 8.375 C 7.765625 8.453125 7.660156 8.496094 7.550781 8.496094 Z M 7.550781 8.496094 "/>
<path style=" stroke:none;fill-rule:nonzero;fill:rgb(86.666667%,18.039216%,26.666667%);fill-opacity:1;" d="M 14.171875 8.078125 C 14.171875 11.785156 11.207031 14.789062 7.550781 14.789062 C 3.894531 14.789062 0.929688 11.785156 0.929688 8.078125 C 0.929688 4.367188 3.894531 1.363281 7.550781 1.363281 C 11.207031 1.363281 14.171875 4.367188 14.171875 8.078125 Z M 14.171875 8.078125 "/>
<path style=" stroke:none;fill-rule:nonzero;fill:rgb(90.196078%,90.588235%,90.980392%);fill-opacity:1;" d="M 12.515625 8.078125 C 12.515625 10.859375 10.292969 13.113281 7.550781 13.113281 C 4.808594 13.113281 2.585938 10.859375 2.585938 8.078125 C 2.585938 5.296875 4.808594 3.042969 7.550781 3.042969 C 10.292969 3.042969 12.515625 5.296875 12.515625 8.078125 Z M 12.515625 8.078125 "/>
<path style=" stroke:none;fill-rule:nonzero;fill:rgb(100%,80%,30.196078%);fill-opacity:1;" d="M 12.515625 0.523438 C 11.832031 0.523438 11.210938 0.804688 10.761719 1.261719 L 14.273438 4.820312 C 14.722656 4.367188 15 3.738281 15 3.042969 C 15 1.652344 13.886719 0.523438 12.515625 0.523438 Z M 2.484375 0.523438 C 3.167969 0.523438 3.789062 0.804688 4.238281 1.261719 L 0.726562 4.820312 C 0.277344 4.367188 0 3.738281 0 3.042969 C 0 1.652344 1.113281 0.523438 2.484375 0.523438 Z M 2.484375 0.523438 "/>
<path style=" stroke:none;fill-rule:nonzero;fill:rgb(25.490196%,25.098039%,25.882353%);fill-opacity:1;" d="M 9.582031 8.332031 L 7.5 8.332031 C 7.269531 8.332031 7.082031 8.148438 7.082031 7.917969 L 7.082031 4.167969 C 7.082031 3.9375 7.269531 3.75 7.5 3.75 C 7.730469 3.75 7.917969 3.9375 7.917969 4.167969 L 7.917969 7.5 L 9.582031 7.5 C 9.8125 7.5 10 7.6875 10 7.917969 C 10 8.148438 9.8125 8.332031 9.582031 8.332031 Z M 9.582031 8.332031 "/>
</g>
</svg>
