<?xml version="1.0" encoding="UTF-8"?>
<svg xmlns="http://www.w3.org/2000/svg" xmlns:xlink="http://www.w3.org/1999/xlink" width="15pt" height="15pt" viewBox="0 0 15 15" version="1.1">
<g id="surface1">
<path style=" stroke:none;fill-rule:nonzero;fill:rgb(66.666667%,72.156863%,76.078431%);fill-opacity:1;" d="M 7.5 0 C 3.589844 0 0.417969 3.171875 0.417969 7.082031 L 0.429688 7.082031 L 0.429688 14.167969 C 0.429688 14.625 0.804688 15 1.261719 15 L 13.75 15 C 14.207031 15 14.582031 14.625 14.582031 14.167969 L 14.582031 7.082031 C 14.582031 3.171875 11.410156 0 7.5 0 Z M 7.5 0 "/>
<path style=" stroke:none;fill-rule:nonzero;fill:rgb(100%,100%,100%);fill-opacity:1;" d="M 13.332031 7.082031 C 13.332031 10.304688 10.722656 12.917969 7.5 12.917969 C 4.277344 12.917969 1.667969 10.304688 1.667969 7.082031 C 1.667969 3.863281 4.277344 1.25 7.5 1.25 C 10.722656 1.25 13.332031 3.863281 13.332031 7.082031 Z M 13.332031 7.082031 "/>
<path style=" stroke:none;fill-rule:nonzero;fill:rgb(40%,45.882353%,49.803922%);fill-opacity:1;" d="M 7.5 1.667969 C 10.492188 1.667969 12.917969 4.089844 12.917969 7.082031 C 12.917969 10.074219 10.492188 12.5 7.5 12.5 C 4.507812 12.5 2.082031 10.074219 2.082031 7.082031 C 2.082031 4.089844 4.507812 1.667969 7.5 1.667969 M 7.5 0.832031 C 4.054688 0.832031 1.25 3.636719 1.25 7.082031 C 1.25 10.53125 4.054688 13.332031 7.5 13.332031 C 10.945312 13.332031 13.75 10.53125 13.75 7.082031 C 13.75 3.636719 10.945312 0.832031 7.5 0.832031 Z M 7.5 0.832031 "/>
<path style=" stroke:none;fill-rule:nonzero;fill:rgb(16.078431%,18.431373%,20%);fill-opacity:1;" d="M 7.917969 2.5 C 7.917969 2.269531 7.730469 2.082031 7.5 2.082031 C 7.269531 2.082031 7.082031 2.269531 7.082031 2.5 L 7.082031 2.917969 C 7.082031 3.148438 7.269531 3.332031 7.5 3.332031 C 7.730469 3.332031 7.917969 3.148438 7.917969 2.917969 Z M 7.917969 11.25 C 7.917969 11.019531 7.730469 10.832031 7.5 10.832031 C 7.269531 10.832031 7.082031 11.019531 7.082031 11.25 L 7.082031 11.667969 C 7.082031 11.898438 7.269531 12.082031 7.5 12.082031 C 7.730469 12.082031 7.917969 11.898438 7.917969 11.667969 Z M 3.332031 6.667969 L 2.917969 6.667969 C 2.6875 6.667969 2.5 6.851562 2.5 7.082031 C 2.5 7.3125 2.6875 7.5 2.917969 7.5 L 3.332031 7.5 C 3.5625 7.5 3.75 7.3125 3.75 7.082031 C 3.75 6.851562 3.5625 6.667969 3.332031 6.667969 Z M 12.082031 6.667969 L 11.667969 6.667969 C 11.4375 6.667969 11.25 6.851562 11.25 7.082031 C 11.25 7.3125 11.4375 7.5 11.667969 7.5 L 12.082031 7.5 C 12.3125 7.5 12.5 7.3125 12.5 7.082031 C 12.5 6.851562 12.3125 6.667969 12.082031 6.667969 Z M 11.128906 10.121094 L 10.832031 9.828125 C 10.671875 9.664062 10.40625 9.664062 10.246094 9.828125 C 10.082031 9.992188 10.082031 10.253906 10.246094 10.417969 L 10.539062 10.710938 C 10.703125 10.875 10.964844 10.875 11.128906 10.710938 C 11.289062 10.546875 11.289062 10.285156 11.128906 10.121094 Z M 4.167969 9.828125 L 3.871094 10.121094 C 3.710938 10.285156 3.710938 10.546875 3.871094 10.710938 C 4.035156 10.875 4.296875 10.875 4.460938 10.710938 L 4.753906 10.417969 C 4.917969 10.253906 4.917969 9.988281 4.753906 9.828125 C 4.59375 9.664062 4.328125 9.664062 4.167969 9.828125 Z M 3.871094 4.042969 L 4.167969 4.339844 C 4.328125 4.503906 4.59375 4.503906 4.753906 4.339844 C 4.917969 4.175781 4.917969 3.914062 4.753906 3.75 L 4.460938 3.457031 C 4.296875 3.292969 4.035156 3.292969 3.871094 3.457031 C 3.710938 3.617188 3.710938 3.882812 3.871094 4.042969 Z M 10.832031 4.339844 L 11.128906 4.042969 C 11.289062 3.882812 11.289062 3.617188 11.128906 3.457031 C 10.964844 3.292969 10.703125 3.292969 10.539062 3.457031 L 10.246094 3.75 C 10.082031 3.914062 10.082031 4.175781 10.246094 4.339844 C 10.40625 4.503906 10.671875 4.503906 10.832031 4.339844 Z M 10.832031 4.339844 "/>
<path style=" stroke:none;fill-rule:nonzero;fill:rgb(86.666667%,18.039216%,26.666667%);fill-opacity:1;" d="M 3.714844 5.765625 C 3.675781 5.667969 3.671875 5.554688 3.71875 5.449219 C 3.808594 5.234375 4.054688 5.140625 4.265625 5.230469 L 7.664062 6.691406 C 7.875 6.78125 7.972656 7.027344 7.882812 7.238281 C 7.792969 7.449219 7.546875 7.546875 7.335938 7.457031 L 3.9375 5.996094 C 3.832031 5.949219 3.753906 5.867188 3.714844 5.765625 Z M 3.714844 5.765625 "/>
</g>
</svg>
