<?xml version="1.0" encoding="UTF-8"?>
<svg xmlns="http://www.w3.org/2000/svg" xmlns:xlink="http://www.w3.org/1999/xlink" width="15pt" height="15pt" viewBox="0 0 15 15" version="1.1">
<g id="surface1">
<path style=" stroke:none;fill-rule:nonzero;fill:rgb(100%,90.980392%,71.372549%);fill-opacity:1;" d="M 8.75 7.5 C 8.75 6.667969 10.101562 6.097656 10.832031 5 C 11.667969 3.75 11.667969 0.832031 11.667969 0.832031 L 3.332031 0.832031 C 3.332031 0.832031 3.332031 3.75 4.167969 5 C 4.898438 6.097656 6.25 6.667969 6.25 7.5 C 6.25 8.332031 4.898438 8.902344 4.167969 10 C 3.332031 11.25 3.332031 14.167969 3.332031 14.167969 L 11.667969 14.167969 C 11.667969 14.167969 11.667969 11.25 10.832031 10 C 10.101562 8.902344 8.75 8.332031 8.75 7.5 Z M 8.75 7.5 "/>
<path style=" stroke:none;fill-rule:nonzero;fill:rgb(100%,67.45098%,20%);fill-opacity:1;" d="M 7.5 0.832031 L 4.167969 0.832031 C 4.167969 0.832031 4.167969 2.5 4.582031 3.75 C 5.125 5.378906 7.082031 5.832031 7.082031 7.5 C 7.082031 9.167969 7.082031 12.917969 7.5 12.917969 C 7.917969 12.917969 7.917969 9.167969 7.917969 7.5 C 7.917969 5.832031 9.875 5.378906 10.417969 3.75 C 10.832031 2.5 10.832031 0.832031 10.832031 0.832031 Z M 7.5 0.832031 "/>
<path style=" stroke:none;fill-rule:nonzero;fill:rgb(23.137255%,53.333333%,76.470588%);fill-opacity:1;" d="M 12.5 14.167969 C 12.5 14.625 12.125 15 11.667969 15 L 3.332031 15 C 2.875 15 2.5 14.625 2.5 14.167969 C 2.5 13.707031 2.875 13.332031 3.332031 13.332031 L 11.667969 13.332031 C 12.125 13.332031 12.5 13.707031 12.5 14.167969 Z M 12.5 0.832031 C 12.5 1.292969 12.125 1.667969 11.667969 1.667969 L 3.332031 1.667969 C 2.875 1.667969 2.5 1.292969 2.5 0.832031 C 2.5 0.375 2.875 0 3.332031 0 L 11.667969 0 C 12.125 0 12.5 0.375 12.5 0.832031 Z M 12.5 0.832031 "/>
</g>
</svg>
