<?xml version="1.0" encoding="UTF-8"?>
<svg xmlns="http://www.w3.org/2000/svg" xmlns:xlink="http://www.w3.org/1999/xlink" width="15pt" height="15pt" viewBox="0 0 15 15" version="1.1">
<g id="surface1">
<path style=" stroke:none;fill-rule:nonzero;fill:rgb(23.137255%,53.333333%,76.470588%);fill-opacity:1;" d="M 15 7.5 C 15 11.640625 11.640625 15 7.5 15 C 3.359375 15 0 11.640625 0 7.5 C 0 3.359375 3.359375 0 7.5 0 C 11.640625 0 15 3.359375 15 7.5 Z M 15 7.5 "/>
<path style=" stroke:none;fill-rule:nonzero;fill:rgb(100%,100%,100%);fill-opacity:1;" d="M 3.40625 3.800781 C 3.484375 3.335938 3.988281 2.808594 4.671875 2.808594 C 5.316406 2.808594 5.820312 3.273438 5.964844 3.738281 L 7.488281 8.851562 L 7.515625 8.851562 L 9.039062 3.738281 C 9.179688 3.273438 9.683594 2.808594 10.332031 2.808594 C 11.015625 2.808594 11.519531 3.335938 11.597656 3.800781 L 12.796875 11.011719 C 12.8125 11.089844 12.8125 11.167969 12.8125 11.230469 C 12.8125 11.800781 12.398438 12.160156 11.878906 12.160156 C 11.222656 12.160156 10.964844 11.863281 10.875 11.257812 L 10.109375 6 L 10.085938 6 L 8.535156 11.410156 C 8.445312 11.722656 8.199219 12.160156 7.5 12.160156 C 6.804688 12.160156 6.558594 11.722656 6.46875 11.410156 L 4.917969 6 L 4.890625 6 L 4.128906 11.257812 C 4.039062 11.863281 3.78125 12.160156 3.121094 12.160156 C 2.605469 12.160156 2.191406 11.800781 2.191406 11.230469 C 2.191406 11.167969 2.191406 11.089844 2.203125 11.011719 Z M 3.40625 3.800781 "/>
</g>
</svg>
