<?xml version="1.0" encoding="UTF-8"?>
<svg xmlns="http://www.w3.org/2000/svg" xmlns:xlink="http://www.w3.org/1999/xlink" width="15pt" height="15pt" viewBox="0 0 15 15" version="1.1">
<g id="surface1">
<path style=" stroke:none;fill-rule:nonzero;fill:rgb(80%,83.921569%,86.666667%);fill-opacity:1;" d="M 11.25 3.332031 C 10.957031 3.332031 10.675781 3.378906 10.410156 3.457031 C 10.414062 3.414062 10.417969 3.375 10.417969 3.332031 C 10.417969 1.953125 9.296875 0.832031 7.917969 0.832031 C 6.761719 0.832031 5.792969 1.617188 5.507812 2.679688 C 5.21875 2.5625 4.910156 2.5 4.582031 2.5 C 3.203125 2.5 2.082031 3.621094 2.082031 5 C 2.082031 6.378906 3.203125 7.5 4.582031 7.5 C 5.738281 7.5 6.707031 6.71875 6.992188 5.65625 C 7.28125 5.769531 7.589844 5.832031 7.917969 5.832031 C 8.074219 5.832031 8.226562 5.816406 8.375 5.789062 C 8.347656 5.941406 8.332031 6.09375 8.332031 6.25 C 8.332031 7.859375 9.640625 9.167969 11.25 9.167969 C 12.859375 9.167969 14.167969 7.859375 14.167969 6.25 C 14.167969 4.640625 12.859375 3.332031 11.25 3.332031 Z M 11.25 3.332031 "/>
<path style=" stroke:none;fill-rule:nonzero;fill:rgb(88.235294%,90.980392%,92.941176%);fill-opacity:1;" d="M 12.917969 9.167969 C 12.722656 9.167969 12.539062 9.203125 12.359375 9.25 C 12.449219 9.03125 12.5 8.792969 12.5 8.542969 C 12.5 7.507812 11.660156 6.667969 10.625 6.667969 C 10.199219 6.667969 9.8125 6.8125 9.5 7.050781 C 9.207031 5.875 8.144531 5 6.875 5 C 5.691406 5 4.691406 5.757812 4.320312 6.816406 C 4.007812 6.71875 3.675781 6.667969 3.332031 6.667969 C 1.492188 6.667969 0 8.160156 0 10 C 0 11.839844 1.492188 13.332031 3.332031 13.332031 L 12.917969 13.332031 C 14.066406 13.332031 15 12.402344 15 11.25 C 15 10.097656 14.066406 9.167969 12.917969 9.167969 Z M 12.917969 9.167969 "/>
</g>
</svg>
