<?xml version="1.0" encoding="UTF-8"?>
<svg xmlns="http://www.w3.org/2000/svg" xmlns:xlink="http://www.w3.org/1999/xlink" width="15pt" height="15pt" viewBox="0 0 15 15" version="1.1">
<g id="surface1">
<path style=" stroke:none;fill-rule:nonzero;fill:rgb(40%,45.882353%,49.803922%);fill-opacity:1;" d="M 3.75 11.875 C 3.75 11.53125 4.03125 11.25 4.375 11.25 C 4.71875 11.25 5 11.53125 5 11.875 L 5 12.082031 C 5 12.082031 5 13.332031 6.25 13.332031 C 7.5 13.332031 7.5 12.082031 7.5 12.082031 L 7.5 1.457031 C 7.5 1.113281 7.78125 0.832031 8.125 0.832031 C 8.46875 0.832031 8.75 1.113281 8.75 1.457031 L 8.75 12.082031 C 8.75 12.082031 8.75 14.582031 6.25 14.582031 C 3.75 14.582031 3.75 12.082031 3.75 12.082031 Z M 3.75 11.875 "/>
<path style=" stroke:none;fill-rule:nonzero;fill:rgb(45.490196%,30.588235%,66.666667%);fill-opacity:1;" d="M 8.125 1.667969 C 11.921875 1.667969 15 4.089844 15 7.082031 C 15 7.082031 15 7.917969 14.582031 7.917969 C 14.167969 7.917969 13.332031 7.082031 13.332031 7.082031 L 2.917969 7.082031 C 2.917969 7.082031 2.082031 7.917969 1.667969 7.917969 C 1.25 7.917969 1.25 7.082031 1.25 7.082031 C 1.25 4.089844 4.328125 1.667969 8.125 1.667969 Z M 8.125 1.667969 "/>
<path style=" stroke:none;fill-rule:nonzero;fill:rgb(57.254902%,40%,80%);fill-opacity:1;" d="M 8.125 1.667969 C 11 1.667969 13.332031 4.089844 13.332031 7.082031 C 13.332031 7.082031 13.332031 7.917969 12.5 7.917969 C 11.667969 7.917969 10.417969 7.082031 10.417969 7.082031 L 5.832031 7.082031 C 5.832031 7.082031 4.582031 7.917969 3.75 7.917969 C 2.917969 7.917969 2.917969 7.082031 2.917969 7.082031 C 2.917969 4.089844 5.25 1.667969 8.125 1.667969 Z M 8.125 1.667969 "/>
<path style=" stroke:none;fill-rule:nonzero;fill:rgb(45.490196%,30.588235%,66.666667%);fill-opacity:1;" d="M 8.125 1.667969 C 9.621094 1.667969 10.417969 4.089844 10.417969 7.082031 C 10.417969 7.082031 9.167969 7.917969 8.332031 7.917969 L 7.917969 7.917969 C 7.082031 7.917969 5.832031 7.082031 5.832031 7.082031 C 5.832031 4.089844 6.628906 1.667969 8.125 1.667969 Z M 8.125 1.667969 "/>
</g>
</svg>
