<?xml version="1.0" encoding="UTF-8"?>
<svg xmlns="http://www.w3.org/2000/svg" xmlns:xlink="http://www.w3.org/1999/xlink" width="15pt" height="15pt" viewBox="0 0 15 15" version="1.1">
<g id="surface1">
<path style=" stroke:none;fill-rule:nonzero;fill:rgb(88.235294%,90.980392%,92.941176%);fill-opacity:1;" d="M 11.667969 10.832031 C 11.667969 13.132812 9.800781 15 7.5 15 C 5.199219 15 3.332031 13.132812 3.332031 10.832031 C 3.332031 8.53125 5.199219 6.667969 7.5 6.667969 C 9.800781 6.667969 11.667969 8.53125 11.667969 10.832031 Z M 11.667969 10.832031 "/>
<path style=" stroke:none;fill-rule:nonzero;fill:rgb(88.235294%,90.980392%,92.941176%);fill-opacity:1;" d="M 5 4.582031 C 5 3.203125 6.121094 2.082031 7.5 2.082031 C 8.878906 2.082031 10 3.203125 10 4.582031 C 10 5.964844 8.878906 7.082031 7.5 7.082031 C 6.121094 7.082031 5 5.964844 5 4.582031 Z M 5 4.582031 "/>
<path style=" stroke:none;fill-rule:nonzero;fill:rgb(25.490196%,25.098039%,25.882353%);fill-opacity:1;" d="M 9.582031 2.5 C 9.582031 2.960938 9.210938 3.332031 8.75 3.332031 L 6.25 3.332031 C 5.789062 3.332031 5.417969 2.960938 5.417969 2.5 L 5.417969 0.832031 C 5.417969 0.375 5.789062 0 6.25 0 L 8.75 0 C 9.210938 0 9.582031 0.375 9.582031 0.832031 Z M 9.582031 2.5 "/>
<path style=" stroke:none;fill-rule:nonzero;fill:rgb(13.72549%,12.156863%,12.54902%);fill-opacity:1;" d="M 10.417969 2.917969 C 10.417969 3.148438 10.230469 3.332031 10 3.332031 L 5 3.332031 C 4.769531 3.332031 4.582031 3.148438 4.582031 2.917969 C 4.582031 2.6875 4.769531 2.5 5 2.5 L 10 2.5 C 10.230469 2.5 10.417969 2.6875 10.417969 2.917969 Z M 10.417969 2.917969 "/>
<path style=" stroke:none;fill-rule:nonzero;fill:rgb(86.666667%,18.039216%,26.666667%);fill-opacity:1;" d="M 9.375 6.25 L 5.625 6.25 C 5.28125 6.25 5 6.53125 5 6.875 C 5 7.148438 5.175781 7.375 5.417969 7.460938 L 5.417969 10.417969 C 5.417969 10.648438 5.601562 10.832031 5.832031 10.832031 L 6.25 10.832031 C 6.480469 10.832031 6.667969 10.648438 6.667969 10.417969 L 6.667969 7.5 L 9.375 7.5 C 9.71875 7.5 10 7.21875 10 6.875 C 10 6.53125 9.71875 6.25 9.375 6.25 Z M 9.375 6.25 "/>
<path style=" stroke:none;fill-rule:nonzero;fill:rgb(25.490196%,25.098039%,25.882353%);fill-opacity:1;" d="M 7.917969 10 C 7.917969 10.230469 7.730469 10.417969 7.5 10.417969 C 7.269531 10.417969 7.082031 10.230469 7.082031 10 C 7.082031 9.769531 7.269531 9.582031 7.5 9.582031 C 7.730469 9.582031 7.917969 9.769531 7.917969 10 Z M 7.917969 12.082031 C 7.917969 12.3125 7.730469 12.5 7.5 12.5 C 7.269531 12.5 7.082031 12.3125 7.082031 12.082031 C 7.082031 11.851562 7.269531 11.667969 7.5 11.667969 C 7.730469 11.667969 7.917969 11.851562 7.917969 12.082031 Z M 7.917969 12.082031 "/>
<path style=" stroke:none;fill-rule:nonzero;fill:rgb(95.686275%,56.470588%,4.705882%);fill-opacity:1;" d="M 7.917969 5 C 7.917969 5.230469 7.730469 5.417969 7.5 5.417969 C 7.269531 5.417969 7.082031 5.230469 7.082031 5 C 7.082031 4.769531 7.269531 4.582031 7.5 4.582031 C 7.730469 4.582031 7.917969 4.769531 7.917969 5 Z M 7.917969 5 "/>
<path style=" stroke:none;fill-rule:nonzero;fill:rgb(25.490196%,25.098039%,25.882353%);fill-opacity:1;" d="M 6.667969 4.167969 C 6.667969 4.398438 6.480469 4.582031 6.25 4.582031 C 6.019531 4.582031 5.832031 4.398438 5.832031 4.167969 C 5.832031 3.9375 6.019531 3.75 6.25 3.75 C 6.480469 3.75 6.667969 3.9375 6.667969 4.167969 Z M 9.167969 4.167969 C 9.167969 4.398438 8.980469 4.582031 8.75 4.582031 C 8.519531 4.582031 8.332031 4.398438 8.332031 4.167969 C 8.332031 3.9375 8.519531 3.75 8.75 3.75 C 8.980469 3.75 9.167969 3.9375 9.167969 4.167969 Z M 9.167969 4.167969 "/>
<path style=" stroke:none;fill-rule:nonzero;fill:rgb(100%,67.45098%,20%);fill-opacity:1;" d="M 4.332031 8.367188 L 2.890625 7.75 L 2.664062 6.558594 C 2.621094 6.332031 2.40625 6.183594 2.175781 6.226562 C 1.953125 6.269531 1.804688 6.488281 1.847656 6.714844 L 1.96875 7.355469 L 1.414062 7.117188 C 1.203125 7.027344 0.957031 7.125 0.867188 7.335938 C 0.777344 7.546875 0.875 7.792969 1.085938 7.882812 L 1.394531 8.015625 L 0.957031 8.457031 C 0.792969 8.617188 0.792969 8.882812 0.957031 9.042969 C 1.035156 9.125 1.144531 9.167969 1.25 9.167969 C 1.355469 9.167969 1.464844 9.125 1.542969 9.042969 L 2.21875 8.371094 L 4.003906 9.132812 C 4.054688 9.15625 4.113281 9.167969 4.167969 9.167969 C 4.328125 9.167969 4.480469 9.070312 4.550781 8.914062 C 4.640625 8.703125 4.542969 8.457031 4.332031 8.367188 Z M 13.882812 7.105469 L 13.269531 6.902344 L 13.628906 6.546875 C 13.789062 6.382812 13.789062 6.117188 13.628906 5.957031 C 13.464844 5.792969 13.203125 5.792969 13.039062 5.957031 L 12.726562 6.269531 L 12.488281 5.316406 C 12.429688 5.09375 12.203125 4.957031 11.980469 5.011719 C 11.757812 5.070312 11.621094 5.296875 11.679688 5.519531 L 12.039062 6.957031 L 10.539062 8.457031 C 10.375 8.617188 10.375 8.882812 10.539062 9.046875 C 10.621094 9.125 10.726562 9.167969 10.832031 9.167969 C 10.941406 9.167969 11.046875 9.125 11.128906 9.042969 L 12.613281 7.558594 L 13.617188 7.894531 C 13.660156 7.910156 13.707031 7.917969 13.75 7.917969 C 13.925781 7.917969 14.085938 7.804688 14.144531 7.632812 C 14.21875 7.414062 14.101562 7.175781 13.882812 7.105469 Z M 13.882812 7.105469 "/>
<path style=" stroke:none;fill-rule:nonzero;fill:rgb(53.333333%,78.823529%,97.647059%);fill-opacity:1;" d="M 4.199219 0.878906 C 4.136719 0.785156 4.007812 0.757812 3.910156 0.824219 L 3.542969 1.070312 L 3.542969 0.625 C 3.542969 0.511719 3.449219 0.417969 3.332031 0.417969 C 3.21875 0.417969 3.125 0.511719 3.125 0.625 L 3.125 1.070312 L 2.753906 0.824219 C 2.660156 0.757812 2.53125 0.785156 2.464844 0.878906 C 2.402344 0.976562 2.429688 1.105469 2.523438 1.167969 L 2.957031 1.457031 L 2.523438 1.746094 C 2.429688 1.8125 2.402344 1.941406 2.464844 2.035156 C 2.507812 2.097656 2.574219 2.128906 2.640625 2.128906 C 2.679688 2.128906 2.71875 2.117188 2.753906 2.09375 L 3.125 1.847656 L 3.125 2.292969 C 3.125 2.40625 3.21875 2.5 3.332031 2.5 C 3.449219 2.5 3.542969 2.40625 3.542969 2.292969 L 3.542969 1.847656 L 3.910156 2.09375 C 3.945312 2.117188 3.988281 2.128906 4.027344 2.128906 C 4.09375 2.128906 4.160156 2.097656 4.199219 2.035156 C 4.265625 1.941406 4.238281 1.8125 4.140625 1.746094 L 3.707031 1.457031 L 4.140625 1.167969 C 4.238281 1.105469 4.265625 0.976562 4.199219 0.878906 Z M 2.535156 3.796875 C 2.46875 3.703125 2.339844 3.675781 2.246094 3.738281 L 1.875 3.984375 L 1.875 3.542969 C 1.875 3.425781 1.78125 3.332031 1.667969 3.332031 C 1.550781 3.332031 1.457031 3.425781 1.457031 3.542969 L 1.457031 3.984375 L 1.089844 3.738281 C 0.992188 3.675781 0.863281 3.703125 0.800781 3.796875 C 0.734375 3.890625 0.761719 4.023438 0.859375 4.085938 L 1.292969 4.375 L 0.859375 4.664062 C 0.761719 4.726562 0.734375 4.855469 0.800781 4.953125 C 0.839844 5.011719 0.90625 5.046875 0.972656 5.046875 C 1.011719 5.046875 1.054688 5.035156 1.089844 5.011719 L 1.457031 4.765625 L 1.457031 5.207031 C 1.457031 5.324219 1.550781 5.417969 1.667969 5.417969 C 1.78125 5.417969 1.875 5.324219 1.875 5.207031 L 1.875 4.765625 L 2.246094 5.011719 C 2.28125 5.035156 2.320312 5.046875 2.359375 5.046875 C 2.425781 5.046875 2.492188 5.011719 2.535156 4.953125 C 2.597656 4.855469 2.570312 4.726562 2.476562 4.664062 L 2.042969 4.375 L 2.476562 4.085938 C 2.570312 4.023438 2.597656 3.894531 2.535156 3.796875 Z M 2.535156 10.878906 C 2.46875 10.785156 2.339844 10.757812 2.246094 10.824219 L 1.875 11.070312 L 1.875 10.625 C 1.875 10.511719 1.78125 10.417969 1.667969 10.417969 C 1.550781 10.417969 1.457031 10.511719 1.457031 10.625 L 1.457031 11.070312 L 1.089844 10.824219 C 0.992188 10.757812 0.863281 10.785156 0.800781 10.878906 C 0.734375 10.976562 0.761719 11.105469 0.859375 11.167969 L 1.292969 11.457031 L 0.859375 11.746094 C 0.761719 11.8125 0.734375 11.941406 0.800781 12.035156 C 0.839844 12.097656 0.90625 12.128906 0.972656 12.128906 C 1.011719 12.128906 1.054688 12.117188 1.089844 12.09375 L 1.457031 11.847656 L 1.457031 12.292969 C 1.457031 12.40625 1.550781 12.5 1.667969 12.5 C 1.78125 12.5 1.875 12.40625 1.875 12.292969 L 1.875 11.847656 L 2.246094 12.09375 C 2.28125 12.117188 2.320312 12.128906 2.359375 12.128906 C 2.425781 12.128906 2.492188 12.097656 2.535156 12.035156 C 2.597656 11.941406 2.570312 11.8125 2.476562 11.746094 L 2.042969 11.457031 L 2.476562 11.167969 C 2.570312 11.105469 2.597656 10.976562 2.535156 10.878906 Z M 14.125 3.957031 L 14.558594 3.667969 C 14.65625 3.605469 14.679688 3.476562 14.617188 3.378906 C 14.554688 3.285156 14.421875 3.257812 14.328125 3.324219 L 13.957031 3.570312 L 13.957031 3.125 C 13.957031 3.011719 13.863281 2.917969 13.75 2.917969 C 13.636719 2.917969 13.542969 3.011719 13.542969 3.125 L 13.542969 3.570312 L 13.171875 3.324219 C 13.074219 3.257812 12.945312 3.285156 12.882812 3.378906 C 12.820312 3.476562 12.84375 3.605469 12.941406 3.667969 L 13.375 3.957031 L 12.941406 4.246094 C 12.84375 4.3125 12.820312 4.441406 12.882812 4.535156 C 12.921875 4.597656 12.988281 4.628906 13.058594 4.628906 C 13.097656 4.628906 13.136719 4.617188 13.171875 4.59375 L 13.542969 4.347656 L 13.542969 4.792969 C 13.542969 4.90625 13.636719 5 13.75 5 C 13.867188 5 13.957031 4.90625 13.957031 4.792969 L 13.957031 4.347656 L 14.328125 4.59375 C 14.363281 4.617188 14.402344 4.628906 14.445312 4.628906 C 14.511719 4.628906 14.578125 4.597656 14.617188 4.535156 C 14.679688 4.441406 14.65625 4.3125 14.558594 4.246094 Z M 14.199219 9.628906 C 14.136719 9.535156 14.007812 9.507812 13.910156 9.574219 L 13.542969 9.820312 L 13.542969 9.375 C 13.542969 9.261719 13.449219 9.167969 13.332031 9.167969 C 13.21875 9.167969 13.125 9.261719 13.125 9.375 L 13.125 9.820312 L 12.753906 9.574219 C 12.660156 9.507812 12.53125 9.535156 12.464844 9.628906 C 12.402344 9.726562 12.429688 9.855469 12.523438 9.917969 L 12.957031 10.207031 L 12.523438 10.496094 C 12.429688 10.5625 12.402344 10.691406 12.464844 10.785156 C 12.507812 10.847656 12.574219 10.878906 12.640625 10.878906 C 12.679688 10.878906 12.71875 10.867188 12.753906 10.84375 L 13.125 10.597656 L 13.125 11.042969 C 13.125 11.15625 13.21875 11.25 13.332031 11.25 C 13.449219 11.25 13.542969 11.15625 13.542969 11.042969 L 13.542969 10.597656 L 13.910156 10.84375 C 13.945312 10.867188 13.988281 10.878906 14.027344 10.878906 C 14.09375 10.878906 14.160156 10.847656 14.199219 10.785156 C 14.265625 10.691406 14.238281 10.5625 14.144531 10.496094 L 13.710938 10.207031 L 14.144531 9.917969 C 14.238281 9.855469 14.265625 9.726562 14.199219 9.628906 Z M 12.476562 1.746094 L 12.042969 1.457031 L 12.476562 1.167969 C 12.570312 1.105469 12.597656 0.976562 12.535156 0.878906 C 12.46875 0.785156 12.339844 0.757812 12.246094 0.824219 L 11.875 1.070312 L 11.875 0.625 C 11.875 0.511719 11.78125 0.417969 11.667969 0.417969 C 11.550781 0.417969 11.457031 0.511719 11.457031 0.625 L 11.457031 1.070312 L 11.089844 0.824219 C 10.992188 0.757812 10.863281 0.785156 10.800781 0.878906 C 10.734375 0.976562 10.761719 1.105469 10.859375 1.167969 L 11.292969 1.457031 L 10.859375 1.746094 C 10.761719 1.8125 10.734375 1.941406 10.800781 2.035156 C 10.839844 2.097656 10.90625 2.128906 10.972656 2.128906 C 11.011719 2.128906 11.054688 2.117188 11.089844 2.09375 L 11.457031 1.847656 L 11.457031 2.292969 C 11.457031 2.40625 11.550781 2.5 11.667969 2.5 C 11.78125 2.5 11.875 2.40625 11.875 2.292969 L 11.875 1.847656 L 12.246094 2.09375 C 12.28125 2.117188 12.320312 2.128906 12.359375 2.128906 C 12.425781 2.128906 12.492188 2.097656 12.535156 2.035156 C 12.597656 1.941406 12.570312 1.8125 12.476562 1.746094 Z M 12.476562 1.746094 "/>
</g>
</svg>
