<?xml version="1.0" encoding="UTF-8"?>
<svg xmlns="http://www.w3.org/2000/svg" xmlns:xlink="http://www.w3.org/1999/xlink" width="15pt" height="15pt" viewBox="0 0 15 15" version="1.1">
<g id="surface1">
<path style=" stroke:none;fill-rule:nonzero;fill:rgb(36.470588%,67.843137%,92.54902%);fill-opacity:1;" d="M 14.027344 0.0195312 C 13.546875 -0.0117188 11.582031 -0.292969 6.726562 2.796875 C 1.871094 5.886719 -0.6875 11.085938 1.5 13.886719 C 1.960938 14.476562 3.800781 15.671875 5.953125 14.109375 C 7.304688 13.125 7.71875 10.972656 8.933594 8.09375 C 9.757812 6.125 11.617188 2.429688 14.210938 0.753906 C 15.019531 0.351562 14.300781 0.0390625 14.027344 0.0195312 Z M 14.027344 0.0195312 "/>
<path style=" stroke:none;fill-rule:nonzero;fill:rgb(54.901961%,79.215686%,96.862745%);fill-opacity:1;" d="M 6.925781 5.6875 C 6.816406 5.246094 7.332031 3.902344 7.480469 3.535156 C 4.796875 4.757812 2.265625 8.375 2.28125 9.027344 C 2.285156 9.121094 2.339844 9.15625 2.457031 9.109375 C 4.707031 8.207031 6.160156 9.554688 6.542969 10.671875 C 6.582031 10.785156 6.632812 10.84375 6.683594 10.855469 C 6.757812 10.871094 6.832031 10.792969 6.890625 10.621094 C 7.734375 8.199219 9.628906 3.773438 11.597656 2.082031 C 10.496094 2.617188 7.386719 4.914062 6.925781 5.6875 Z M 6.925781 5.6875 "/>
<path style=" stroke:none;fill-rule:nonzero;fill:rgb(74.117647%,86.666667%,95.686275%);fill-opacity:1;" d="M 5.933594 5.410156 C 5.210938 5.757812 2.902344 7.992188 2.285156 9.027344 C 2.285156 9.121094 2.339844 9.15625 2.457031 9.109375 C 4.707031 8.207031 6.160156 9.554688 6.542969 10.671875 C 6.585938 10.785156 6.632812 10.84375 6.6875 10.855469 C 6.710938 9.882812 6.648438 7.679688 7.609375 6.039062 C 5.914062 7.582031 5.492188 7.546875 5.933594 5.410156 Z M 5.933594 5.410156 "/>
<path style=" stroke:none;fill-rule:nonzero;fill:rgb(96.078431%,97.254902%,98.039216%);fill-opacity:1;" d="M 3.636719 9.859375 C 2.417969 9.859375 1.429688 10.847656 1.429688 12.066406 C 1.429688 13.285156 2.417969 14.273438 3.636719 14.273438 C 4.855469 14.273438 5.84375 13.285156 5.84375 12.066406 C 5.84375 10.847656 4.855469 9.859375 3.636719 9.859375 Z M 3.636719 9.859375 "/>
</g>
</svg>
