<?xml version="1.0" encoding="UTF-8"?>
<svg xmlns="http://www.w3.org/2000/svg" xmlns:xlink="http://www.w3.org/1999/xlink" width="15pt" height="15pt" viewBox="0 0 15 15" version="1.1">
<g id="surface1">
<path style=" stroke:none;fill-rule:nonzero;fill:rgb(13.333333%,40%,60%);fill-opacity:1;" d="M 15 13.332031 C 15 14.253906 14.253906 15 13.332031 15 L 1.667969 15 C 0.746094 15 0 14.253906 0 13.332031 L 0 1.667969 C 0 0.746094 0.746094 0 1.667969 0 L 13.332031 0 C 14.253906 0 15 0.746094 15 1.667969 Z M 15 13.332031 "/>
<path style=" stroke:none;fill-rule:nonzero;fill:rgb(73.333333%,86.666667%,96.078431%);fill-opacity:1;" d="M 12.199219 2.652344 C 11.71875 2.339844 11.074219 2.476562 10.757812 2.957031 L 6.222656 9.949219 L 4.128906 8.011719 C 3.707031 7.621094 3.046875 7.648438 2.65625 8.070312 C 2.265625 8.492188 2.292969 9.152344 2.714844 9.539062 L 5.71875 12.316406 C 5.917969 12.503906 6.171875 12.59375 6.425781 12.59375 C 6.703125 12.59375 7.0625 12.476562 7.296875 12.121094 C 7.4375 11.910156 12.507812 4.089844 12.507812 4.089844 C 12.820312 3.609375 12.683594 2.964844 12.199219 2.652344 Z M 12.199219 2.652344 "/>
</g>
</svg>
