<?xml version="1.0" encoding="UTF-8"?>
<svg xmlns="http://www.w3.org/2000/svg" xmlns:xlink="http://www.w3.org/1999/xlink" width="15pt" height="15pt" viewBox="0 0 15 15" version="1.1">
<g id="surface1">
<path style=" stroke:none;fill-rule:nonzero;fill:rgb(40%,45.882353%,49.803922%);fill-opacity:1;" d="M 3.75 11.875 C 3.75 11.53125 4.03125 11.25 4.375 11.25 C 4.71875 11.25 5 11.53125 5 11.875 L 5 12.082031 C 5 12.082031 5 13.332031 6.25 13.332031 C 7.5 13.332031 7.5 12.082031 7.5 12.082031 L 7.5 1.457031 C 7.5 1.113281 7.78125 0.832031 8.125 0.832031 C 8.46875 0.832031 8.75 1.113281 8.75 1.457031 L 8.75 12.082031 C 8.75 12.082031 8.75 14.582031 6.25 14.582031 C 3.75 14.582031 3.75 12.082031 3.75 12.082031 Z M 3.75 11.875 "/>
<path style=" stroke:none;fill-rule:nonzero;fill:rgb(45.490196%,30.588235%,66.666667%);fill-opacity:1;" d="M 8.125 1.667969 C 11.921875 1.667969 15 4.089844 15 7.082031 C 15 7.082031 15 7.917969 14.582031 7.917969 C 14.167969 7.917969 13.332031 7.082031 13.332031 7.082031 L 2.917969 7.082031 C 2.917969 7.082031 2.082031 7.917969 1.667969 7.917969 C 1.25 7.917969 1.25 7.082031 1.25 7.082031 C 1.25 4.089844 4.328125 1.667969 8.125 1.667969 Z M 8.125 1.667969 "/>
<path style=" stroke:none;fill-rule:nonzero;fill:rgb(57.254902%,40%,80%);fill-opacity:1;" d="M 8.125 1.667969 C 11 1.667969 13.332031 4.089844 13.332031 7.082031 C 13.332031 7.082031 13.332031 7.917969 12.5 7.917969 C 11.667969 7.917969 10.417969 7.082031 10.417969 7.082031 L 5.832031 7.082031 C 5.832031 7.082031 4.582031 7.917969 3.75 7.917969 C 2.917969 7.917969 2.917969 7.082031 2.917969 7.082031 C 2.917969 4.089844 5.25 1.667969 8.125 1.667969 Z M 8.125 1.667969 "/>
<path style=" stroke:none;fill-rule:nonzero;fill:rgb(45.490196%,30.588235%,66.666667%);fill-opacity:1;" d="M 8.125 1.667969 C 9.621094 1.667969 10.417969 4.089844 10.417969 7.082031 C 10.417969 7.082031 9.167969 7.917969 8.332031 7.917969 L 7.917969 7.917969 C 7.082031 7.917969 5.832031 7.082031 5.832031 7.082031 C 5.832031 4.089844 6.628906 1.667969 8.125 1.667969 Z M 8.125 1.667969 "/>
<path style=" stroke:none;fill-rule:nonzero;fill:rgb(36.470588%,67.843137%,92.54902%);fill-opacity:1;" d="M 12.660156 1.863281 C 12.300781 2.453125 12.492188 3.214844 13.089844 3.570312 C 13.683594 3.925781 14.460938 3.738281 14.820312 3.148438 C 15.070312 2.734375 15.050781 2.234375 14.808594 1.851562 L 13.777344 0.0390625 Z M 9.324219 3.113281 C 8.964844 3.703125 9.15625 4.464844 9.753906 4.820312 C 10.351562 5.175781 11.125 4.988281 11.484375 4.398438 C 11.738281 3.984375 11.71875 3.484375 11.476562 3.101562 L 10.441406 1.289062 Z M 4.347656 1.863281 C 3.988281 2.453125 4.179688 3.214844 4.777344 3.570312 C 5.371094 3.925781 6.148438 3.738281 6.507812 3.148438 C 6.761719 2.734375 6.738281 2.234375 6.496094 1.851562 L 5.464844 0.0390625 Z M 0.179688 4.324219 C -0.179688 4.914062 0.015625 5.679688 0.609375 6.035156 C 1.207031 6.386719 1.980469 6.199219 2.339844 5.609375 C 2.59375 5.199219 2.574219 4.699219 2.332031 4.3125 L 1.296875 2.5 Z M 0.179688 4.324219 "/>
</g>
</svg>
