<?xml version="1.0" encoding="UTF-8"?>
<svg xmlns="http://www.w3.org/2000/svg" xmlns:xlink="http://www.w3.org/1999/xlink" width="15pt" height="15pt" viewBox="0 0 15 15" version="1.1">
<g id="surface1">
<path style=" stroke:none;fill-rule:nonzero;fill:rgb(34.509804%,20.784314%,16.078431%);fill-opacity:1;" d="M 11.246094 7.921875 C 11.140625 7.816406 10.914062 7.667969 10.648438 7.523438 L 9.851562 6.6875 L 8.96875 7.523438 L 8.726562 7.523438 L 7.683594 6.007812 C 7.109375 6.011719 6.640625 6.480469 6.648438 7.054688 L 5.164062 6.175781 C 4.824219 6.328125 4.585938 6.667969 4.585938 7.066406 L 4.585938 7.464844 L 2.917969 9.203125 L 2.925781 10.113281 L 7.085938 14.582031 C 7.085938 14.582031 11.46875 8.210938 11.480469 8.226562 C 11.425781 8.132812 11.265625 7.933594 11.246094 7.921875 Z M 11.246094 7.921875 "/>
<path style=" stroke:none;fill-rule:nonzero;fill:rgb(48.627451%,32.54902%,24.313725%);fill-opacity:1;" d="M 10.648438 2.421875 C 10.648438 1.960938 10.269531 1.582031 9.808594 1.582031 C 9.347656 1.582031 8.96875 1.960938 8.96875 2.421875 L 8.96875 7.523438 L 10.644531 7.523438 L 10.644531 2.421875 Z M 8.726562 7.523438 L 8.726562 6.671875 C 8.722656 6.210938 8.347656 5.839844 7.890625 5.84375 C 7.429688 5.847656 7.058594 6.222656 7.0625 6.683594 L 7.066406 7.523438 Z M 3.714844 6.667969 L 3.785156 6.667969 C 4.226562 6.667969 4.582031 7.023438 4.582031 7.464844 L 4.582031 9.203125 C 4.582031 9.640625 4.226562 10 3.785156 10 L 3.714844 10 C 3.273438 10 2.917969 9.640625 2.917969 9.203125 L 2.917969 7.464844 C 2.917969 7.023438 3.273438 6.667969 3.714844 6.667969 Z M 6.597656 7.898438 L 6.574219 7.925781 C 6.375 8.144531 6.25 8.429688 6.25 8.75 C 6.25 8.777344 6.253906 8.800781 6.257812 8.828125 C 6.277344 9.109375 6.386719 9.367188 6.5625 9.566406 C 6.53125 9.621094 6.492188 9.667969 6.453125 9.714844 C 6.300781 9.886719 6.082031 10 5.832031 10 C 5.375 10 5 9.625 5 9.167969 L 5 6.667969 C 5 6.484375 5.0625 6.316406 5.160156 6.175781 C 5.3125 5.96875 5.558594 5.832031 5.832031 5.832031 C 6.292969 5.832031 6.667969 6.207031 6.667969 6.667969 L 6.667969 7.824219 C 6.640625 7.847656 6.621094 7.875 6.597656 7.898438 Z M 6.597656 7.898438 "/>
<path style=" stroke:none;fill-rule:nonzero;fill:rgb(48.627451%,32.54902%,24.313725%);fill-opacity:1;" d="M 3.777344 10.417969 C 4.203125 10.417969 4.578125 10.199219 4.796875 9.867188 C 4.847656 9.941406 4.910156 10.011719 4.976562 10.074219 C 5.46875 10.539062 6.242188 10.507812 6.710938 10.035156 C 6.777344 9.972656 6.839844 9.910156 6.886719 9.832031 C 6.96875 9.878906 7.082031 10 7.5 10 L 8.558594 10 C 8.402344 10.117188 8.261719 10.257812 8.128906 10.417969 C 7.617188 11.027344 7.292969 11.917969 7.292969 12.917969 C 7.292969 13.03125 7.386719 13.125 7.5 13.125 C 7.613281 13.125 7.707031 13.03125 7.707031 12.917969 C 7.707031 11.855469 8.105469 10.925781 8.699219 10.417969 C 9.003906 10.152344 9.359375 10 9.738281 10 C 10.035156 10.03125 10.09375 9.582031 9.792969 9.582031 L 7.5 9.582031 C 7.039062 9.582031 6.667969 9.210938 6.667969 8.75 C 6.667969 8.289062 7.039062 7.917969 7.5 7.917969 L 10.832031 7.917969 C 11.191406 7.917969 11.523438 8.164062 11.628906 8.507812 L 12.082031 10 C 12.125 10.140625 12.28125 10.78125 12.253906 10.914062 C 12.253906 12.917969 10.296875 15 7.917969 15 C 5.191406 15 2.980469 12.820312 2.921875 10.109375 L 2.929688 10.113281 C 3.144531 10.300781 3.417969 10.417969 3.722656 10.417969 Z M 3.777344 10.417969 "/>
</g>
</svg>
