<?xml version="1.0" encoding="UTF-8"?>
<svg xmlns="http://www.w3.org/2000/svg" xmlns:xlink="http://www.w3.org/1999/xlink" width="15pt" height="15pt" viewBox="0 0 15 15" version="1.1">
<g id="surface1">
<path style=" stroke:none;fill-rule:nonzero;fill:rgb(80%,83.921569%,86.666667%);fill-opacity:1;" d="M 11.609375 6.980469 C 11.609375 4.378906 9.773438 2.816406 7.472656 2.816406 C 5.175781 2.816406 3.375 4.378906 3.375 6.980469 C 3.375 8.429688 3.332031 9.683594 5 10.265625 L 5 11.402344 C 5 11.832031 5.402344 12.179688 5.832031 12.179688 C 6.265625 12.179688 6.667969 11.832031 6.667969 11.402344 L 6.667969 10.582031 L 6.667969 11.402344 C 6.667969 11.832031 7.070312 12.179688 7.5 12.179688 C 7.933594 12.179688 8.332031 11.832031 8.332031 11.402344 L 8.332031 10.582031 L 8.332031 11.402344 C 8.332031 11.832031 8.734375 12.179688 9.167969 12.179688 C 9.597656 12.179688 10 11.832031 10 11.402344 L 10 10.265625 C 11.667969 9.683594 11.609375 8.429688 11.609375 6.980469 Z M 11.609375 6.980469 "/>
<path style=" stroke:none;fill-rule:nonzero;fill:rgb(16.078431%,18.431373%,20%);fill-opacity:1;" d="M 6.980469 6.460938 C 6.980469 7.179688 6.398438 7.761719 5.679688 7.761719 C 4.960938 7.761719 4.378906 7.179688 4.378906 6.460938 C 4.378906 5.742188 4.960938 5.160156 5.679688 5.160156 C 6.398438 5.160156 6.980469 5.742188 6.980469 6.460938 Z M 6.980469 6.460938 "/>
<path style=" stroke:none;fill-rule:nonzero;fill:rgb(16.078431%,18.431373%,20%);fill-opacity:1;" d="M 10.621094 6.460938 C 10.621094 7.179688 10.621094 7.761719 9.320312 7.761719 C 8.019531 7.761719 8.019531 7.179688 8.019531 6.460938 C 8.019531 5.742188 8.601562 5.160156 9.320312 5.160156 C 10.039062 5.160156 10.621094 5.742188 10.621094 6.460938 Z M 7.996094 8.816406 C 7.929688 8.65625 7.734375 8.539062 7.5 8.539062 C 7.265625 8.539062 7.070312 8.65625 7.003906 8.816406 C 6.839844 8.863281 6.71875 9.011719 6.71875 9.191406 C 6.71875 9.40625 6.894531 9.582031 7.109375 9.582031 C 7.28125 9.582031 7.421875 9.472656 7.476562 9.320312 C 7.484375 9.320312 7.492188 9.320312 7.5 9.320312 C 7.507812 9.320312 7.515625 9.320312 7.523438 9.320312 C 7.578125 9.472656 7.71875 9.582031 7.890625 9.582031 C 8.105469 9.582031 8.28125 9.40625 8.28125 9.191406 C 8.28125 9.011719 8.160156 8.863281 7.996094 8.816406 Z M 7.996094 8.816406 "/>
<path style=" stroke:none;fill-rule:nonzero;fill:rgb(66.666667%,72.156863%,76.078431%);fill-opacity:1;" d="M 4.582031 11.25 C 4.582031 11.097656 4.613281 10.953125 4.664062 10.816406 C 4.253906 10.632812 3.902344 10.367188 3.621094 9.996094 C 3.160156 10.402344 2.71875 10.777344 2.320312 11.121094 C 2.078125 10.941406 1.78125 10.832031 1.457031 10.832031 C 0.652344 10.832031 0 11.484375 0 12.292969 C 0 13.03125 0.554688 13.636719 1.269531 13.730469 C 1.363281 14.445312 1.96875 15 2.707031 15 C 3.515625 15 4.167969 14.347656 4.167969 13.542969 C 4.167969 13.21875 4.058594 12.921875 3.878906 12.679688 C 4.128906 12.386719 4.398438 12.074219 4.683594 11.742188 C 4.621094 11.59375 4.582031 11.425781 4.582031 11.25 Z M 11.613281 4.800781 C 11.980469 4.480469 12.332031 4.175781 12.660156 3.898438 C 12.898438 4.066406 13.1875 4.167969 13.5 4.167969 C 14.304688 4.167969 14.957031 3.515625 14.957031 2.707031 C 14.957031 1.980469 14.425781 1.382812 13.730469 1.273438 C 13.640625 0.554688 13.035156 0 12.292969 0 C 11.484375 0 10.832031 0.652344 10.832031 1.457031 C 10.832031 1.78125 10.941406 2.078125 11.121094 2.320312 C 10.871094 2.609375 10.605469 2.921875 10.324219 3.246094 C 10.863281 3.609375 11.308594 4.121094 11.613281 4.800781 Z M 1.457031 4.167969 C 1.78125 4.167969 2.078125 4.058594 2.320312 3.878906 C 2.652344 4.164062 3.011719 4.472656 3.386719 4.796875 C 3.691406 4.121094 4.136719 3.609375 4.675781 3.246094 C 4.394531 2.921875 4.128906 2.609375 3.878906 2.320312 C 4.058594 2.078125 4.167969 1.78125 4.167969 1.457031 C 4.167969 0.652344 3.515625 0 2.707031 0 C 1.96875 0 1.363281 0.554688 1.269531 1.269531 C 0.554688 1.363281 0 1.96875 0 2.707031 C 0 3.515625 0.652344 4.167969 1.457031 4.167969 Z M 13.5 10.832031 C 13.1875 10.832031 12.898438 10.933594 12.660156 11.101562 C 12.265625 10.765625 11.832031 10.394531 11.378906 9.996094 C 11.097656 10.367188 10.746094 10.632812 10.335938 10.816406 C 10.386719 10.953125 10.417969 11.097656 10.417969 11.25 C 10.417969 11.425781 10.378906 11.59375 10.316406 11.742188 C 10.601562 12.074219 10.871094 12.386719 11.121094 12.679688 C 10.941406 12.921875 10.832031 13.21875 10.832031 13.542969 C 10.832031 14.347656 11.484375 15 12.292969 15 C 13.035156 15 13.640625 14.445312 13.730469 13.726562 C 14.425781 13.617188 14.957031 13.019531 14.957031 12.292969 C 14.957031 11.484375 14.304688 10.832031 13.5 10.832031 Z M 13.5 10.832031 "/>
</g>
</svg>
