<?xml version="1.0" encoding="UTF-8"?>
<svg xmlns="http://www.w3.org/2000/svg" xmlns:xlink="http://www.w3.org/1999/xlink" width="15pt" height="15pt" viewBox="0 0 15 15" version="1.1">
<g id="surface1">
<path style=" stroke:none;fill-rule:nonzero;fill:rgb(95.686275%,56.470588%,4.705882%);fill-opacity:1;" d="M 14.582031 7.5 C 14.582031 11.410156 11.410156 14.582031 7.5 14.582031 C 3.589844 14.582031 0.417969 11.410156 0.417969 7.5 C 0.417969 3.589844 3.589844 0.417969 7.5 0.417969 C 11.410156 0.417969 14.582031 3.589844 14.582031 7.5 Z M 14.582031 7.5 "/>
<path style=" stroke:none;fill-rule:nonzero;fill:rgb(100%,100%,100%);fill-opacity:1;" d="M 6.363281 9 L 4.757812 11.675781 C 4.875 11.753906 4.992188 11.828125 5.113281 11.894531 C 5.824219 12.28125 6.636719 12.5 7.5 12.5 C 8.367188 12.5 9.179688 12.277344 9.890625 11.890625 C 10.011719 11.824219 10.132812 11.75 10.246094 11.671875 L 8.640625 8.996094 C 8.324219 9.238281 7.929688 9.386719 7.5 9.386719 C 7.070312 9.386719 6.679688 9.238281 6.363281 9 Z M 6.714844 5.785156 L 5.109375 3.109375 C 4.988281 3.175781 4.871094 3.25 4.753906 3.328125 C 3.453125 4.183594 2.578125 5.636719 2.511719 7.292969 C 2.507812 7.359375 2.5 7.429688 2.5 7.5 C 2.5 7.570312 2.507812 7.640625 2.511719 7.707031 L 5.632812 7.707031 C 5.625 7.640625 5.613281 7.570312 5.613281 7.5 C 5.613281 6.738281 6.066406 6.085938 6.714844 5.785156 Z M 9.386719 7.5 C 9.386719 7.570312 9.375 7.640625 9.367188 7.707031 L 12.488281 7.707031 C 12.492188 7.640625 12.5 7.570312 12.5 7.5 C 12.5 7.429688 12.492188 7.359375 12.488281 7.292969 C 12.421875 5.636719 11.546875 4.1875 10.246094 3.328125 C 10.132812 3.25 10.011719 3.175781 9.890625 3.109375 L 8.285156 5.789062 C 8.933594 6.085938 9.386719 6.738281 9.386719 7.5 Z M 9.386719 7.5 "/>
<path style=" stroke:none;fill-rule:nonzero;fill:rgb(100%,100%,100%);fill-opacity:1;" d="M 8.332031 7.5 C 8.332031 7.960938 7.960938 8.332031 7.5 8.332031 C 7.039062 8.332031 6.667969 7.960938 6.667969 7.5 C 6.667969 7.039062 7.039062 6.667969 7.5 6.667969 C 7.960938 6.667969 8.332031 7.039062 8.332031 7.5 Z M 8.332031 7.5 "/>
</g>
</svg>
