<?xml version="1.0" encoding="UTF-8"?>
<svg xmlns="http://www.w3.org/2000/svg" xmlns:xlink="http://www.w3.org/1999/xlink" width="15pt" height="15pt" viewBox="0 0 15 15" version="1.1">
<g id="surface1">
<path style=" stroke:none;fill-rule:nonzero;fill:rgb(57.254902%,40%,80%);fill-opacity:1;" d="M 15 13.332031 C 15 14.253906 14.253906 15 13.332031 15 L 1.667969 15 C 0.746094 15 0 14.253906 0 13.332031 L 0 1.667969 C 0 0.746094 0.746094 0 1.667969 0 L 13.332031 0 C 14.253906 0 15 0.746094 15 1.667969 Z M 15 13.332031 "/>
<path style=" stroke:none;fill-rule:nonzero;fill:rgb(100%,100%,100%);fill-opacity:1;" d="M 9.582031 2.5 L 8.332031 2.5 L 8.332031 1.667969 C 8.332031 1.4375 8.148438 1.25 7.917969 1.25 L 7.082031 1.25 C 6.851562 1.25 6.667969 1.4375 6.667969 1.667969 L 6.667969 2.5 L 5.417969 2.5 C 5.1875 2.5 5 2.6875 5 2.917969 L 5 3.75 C 5 3.980469 5.1875 4.167969 5.417969 4.167969 L 6.667969 4.167969 L 6.667969 13.332031 C 6.667969 13.5625 6.851562 13.75 7.082031 13.75 L 7.917969 13.75 C 8.148438 13.75 8.332031 13.5625 8.332031 13.332031 L 8.332031 4.167969 L 9.582031 4.167969 C 9.8125 4.167969 10 3.980469 10 3.75 L 10 2.917969 C 10 2.6875 9.8125 2.5 9.582031 2.5 Z M 9.582031 2.5 "/>
<path style=" stroke:none;fill-rule:nonzero;fill:rgb(100%,100%,100%);fill-opacity:1;" d="M 12.082031 5.417969 L 2.917969 5.417969 C 2.6875 5.417969 2.5 5.601562 2.5 5.832031 L 2.5 6.667969 C 2.5 6.898438 2.6875 7.082031 2.917969 7.082031 L 12.082031 7.082031 C 12.3125 7.082031 12.5 6.898438 12.5 6.667969 L 12.5 5.832031 C 12.5 5.601562 12.3125 5.417969 12.082031 5.417969 Z M 10.136719 10.386719 L 5.371094 8.859375 C 5.152344 8.792969 4.917969 8.910156 4.847656 9.132812 L 4.59375 9.925781 C 4.523438 10.144531 4.644531 10.378906 4.863281 10.449219 L 9.628906 11.972656 C 9.847656 12.042969 10.082031 11.921875 10.152344 11.703125 L 10.40625 10.910156 C 10.476562 10.691406 10.355469 10.453125 10.136719 10.386719 Z M 10.136719 10.386719 "/>
</g>
</svg>
