<?xml version="1.0" encoding="UTF-8"?>
<svg xmlns="http://www.w3.org/2000/svg" xmlns:xlink="http://www.w3.org/1999/xlink" width="15pt" height="15pt" viewBox="0 0 15 15" version="1.1">
<g id="surface1">
<path style=" stroke:none;fill-rule:nonzero;fill:rgb(57.254902%,40%,80%);fill-opacity:1;" d="M 15 13.332031 C 15 14.253906 14.253906 15 13.332031 15 L 1.667969 15 C 0.746094 15 0 14.253906 0 13.332031 L 0 1.667969 C 0 0.746094 0.746094 0 1.667969 0 L 13.332031 0 C 14.253906 0 15 0.746094 15 1.667969 Z M 15 13.332031 "/>
<path style=" stroke:none;fill-rule:nonzero;fill:rgb(100%,100%,100%);fill-opacity:1;" d="M 7.902344 1.679688 C 4.6875 1.457031 1.902344 3.882812 1.679688 7.097656 C 1.457031 10.3125 3.882812 13.097656 7.097656 13.320312 C 10.3125 13.542969 13.097656 11.117188 13.320312 7.902344 C 13.542969 4.6875 11.117188 1.902344 7.902344 1.679688 Z M 7.410156 12.507812 C 6.027344 12.480469 4.925781 11.339844 4.953125 9.957031 C 4.976562 8.578125 6.117188 7.476562 7.5 7.5 C 8.882812 7.523438 10.023438 6.425781 10.050781 5.042969 C 10.066406 3.976562 9.414062 3.066406 8.484375 2.6875 L 8.546875 2.613281 C 10.84375 3.105469 12.550781 5.15625 12.507812 7.589844 C 12.457031 10.355469 10.175781 12.558594 7.410156 12.507812 Z M 7.410156 12.507812 "/>
<path style=" stroke:none;fill-rule:nonzero;fill:rgb(100%,100%,100%);fill-opacity:1;" d="M 8.542969 10 C 8.542969 10.574219 8.074219 11.042969 7.5 11.042969 C 6.925781 11.042969 6.457031 10.574219 6.457031 10 C 6.457031 9.425781 6.925781 8.957031 7.5 8.957031 C 8.074219 8.957031 8.542969 9.425781 8.542969 10 Z M 8.542969 10 "/>
<path style=" stroke:none;fill-rule:nonzero;fill:rgb(57.254902%,40%,80%);fill-opacity:1;" d="M 8.542969 5 C 8.542969 5.574219 8.074219 6.042969 7.5 6.042969 C 6.925781 6.042969 6.457031 5.574219 6.457031 5 C 6.457031 4.425781 6.925781 3.957031 7.5 3.957031 C 8.074219 3.957031 8.542969 4.425781 8.542969 5 Z M 8.542969 5 "/>
</g>
</svg>
