<?xml version="1.0" encoding="UTF-8"?>
<svg xmlns="http://www.w3.org/2000/svg" xmlns:xlink="http://www.w3.org/1999/xlink" width="15pt" height="15pt" viewBox="0 0 15 15" version="1.1">
<g id="surface1">
<path style=" stroke:none;fill-rule:nonzero;fill:rgb(57.254902%,40%,80%);fill-opacity:1;" d="M 15 13.332031 C 15 14.253906 14.253906 15 13.332031 15 L 1.667969 15 C 0.746094 15 0 14.253906 0 13.332031 L 0 1.667969 C 0 0.746094 0.746094 0 1.667969 0 L 13.332031 0 C 14.253906 0 15 0.746094 15 1.667969 Z M 15 13.332031 "/>
<path style=" stroke:none;fill-rule:nonzero;fill:rgb(100%,100%,100%);fill-opacity:1;" d="M 13.332031 7.082031 L 12.894531 7.082031 C 12.804688 5.902344 12.335938 4.828125 11.609375 3.980469 L 12.089844 3.496094 C 12.253906 3.335938 12.253906 3.070312 12.089844 2.910156 C 11.929688 2.746094 11.664062 2.746094 11.503906 2.910156 L 11.019531 3.390625 C 10.171875 2.664062 9.097656 2.195312 7.917969 2.105469 L 7.917969 1.667969 C 7.917969 1.4375 7.730469 1.25 7.5 1.25 C 7.269531 1.25 7.082031 1.4375 7.082031 1.667969 L 7.082031 2.105469 C 5.902344 2.195312 4.828125 2.664062 3.980469 3.390625 L 3.535156 2.945312 C 3.375 2.785156 3.109375 2.785156 2.945312 2.945312 C 2.785156 3.109375 2.785156 3.375 2.945312 3.535156 L 3.390625 3.980469 C 2.664062 4.828125 2.195312 5.902344 2.105469 7.082031 L 1.667969 7.082031 C 1.4375 7.082031 1.25 7.269531 1.25 7.5 C 1.25 7.730469 1.4375 7.917969 1.667969 7.917969 L 2.105469 7.917969 C 2.195312 9.097656 2.664062 10.171875 3.390625 11.019531 L 2.910156 11.503906 C 2.746094 11.664062 2.746094 11.929688 2.910156 12.089844 C 2.988281 12.171875 3.097656 12.214844 3.203125 12.214844 C 3.308594 12.214844 3.417969 12.171875 3.496094 12.089844 L 3.980469 11.609375 C 4.828125 12.335938 5.902344 12.804688 7.082031 12.894531 L 7.082031 13.332031 C 7.082031 13.5625 7.269531 13.75 7.5 13.75 C 7.730469 13.75 7.917969 13.5625 7.917969 13.332031 L 7.917969 12.894531 C 9.097656 12.804688 10.171875 12.335938 11.019531 11.609375 L 11.464844 12.054688 C 11.546875 12.132812 11.652344 12.175781 11.757812 12.175781 C 11.863281 12.175781 11.972656 12.132812 12.054688 12.054688 C 12.214844 11.890625 12.214844 11.625 12.054688 11.464844 L 11.609375 11.019531 C 12.335938 10.171875 12.804688 9.097656 12.894531 7.917969 L 13.332031 7.917969 C 13.5625 7.917969 13.75 7.730469 13.75 7.5 C 13.75 7.269531 13.5625 7.082031 13.332031 7.082031 Z M 11.019531 4.570312 C 11.597656 5.265625 11.976562 6.132812 12.0625 7.082031 L 9.546875 7.082031 C 9.496094 6.8125 9.394531 6.5625 9.25 6.339844 Z M 7.917969 2.9375 C 8.867188 3.023438 9.734375 3.402344 10.429688 3.980469 L 8.671875 5.738281 C 8.449219 5.585938 8.191406 5.472656 7.917969 5.417969 Z M 8.75 7.457031 C 8.75 8.148438 8.1875 8.707031 7.5 8.707031 C 6.8125 8.707031 6.25 8.148438 6.25 7.457031 C 6.25 6.769531 6.8125 6.207031 7.5 6.207031 C 8.1875 6.207031 8.75 6.769531 8.75 7.457031 Z M 7.082031 2.9375 L 7.082031 5.417969 C 6.808594 5.472656 6.550781 5.585938 6.328125 5.738281 L 4.570312 3.980469 C 5.265625 3.402344 6.132812 3.023438 7.082031 2.9375 Z M 3.980469 4.570312 L 5.75 6.339844 C 5.605469 6.5625 5.503906 6.8125 5.453125 7.082031 L 2.9375 7.082031 C 3.023438 6.132812 3.402344 5.265625 3.980469 4.570312 Z M 3.980469 10.429688 C 3.402344 9.734375 3.023438 8.867188 2.9375 7.917969 L 5.472656 7.917969 C 5.53125 8.175781 5.632812 8.417969 5.78125 8.628906 Z M 7.082031 12.0625 C 6.132812 11.976562 5.265625 11.597656 4.570312 11.019531 L 6.378906 9.210938 C 6.589844 9.347656 6.828125 9.449219 7.082031 9.5 Z M 7.917969 12.0625 L 7.917969 9.5 C 8.171875 9.449219 8.40625 9.34375 8.621094 9.210938 L 10.429688 11.019531 C 9.734375 11.597656 8.867188 11.976562 7.917969 12.0625 Z M 11.019531 10.429688 L 9.21875 8.628906 C 9.367188 8.417969 9.46875 8.175781 9.527344 7.917969 L 12.0625 7.917969 C 11.976562 8.867188 11.597656 9.734375 11.019531 10.429688 Z M 11.019531 10.429688 "/>
</g>
</svg>
