<?xml version="1.0" encoding="UTF-8"?>
<svg xmlns="http://www.w3.org/2000/svg" xmlns:xlink="http://www.w3.org/1999/xlink" width="15pt" height="15pt" viewBox="0 0 15 15" version="1.1">
<g id="surface1">
<path style=" stroke:none;fill-rule:nonzero;fill:rgb(100%,80%,30.196078%);fill-opacity:1;" d="M 15 7.5 C 15 11.640625 11.640625 15 7.5 15 C 3.359375 15 0 11.640625 0 7.5 C 0 3.359375 3.359375 0 7.5 0 C 11.640625 0 15 3.359375 15 7.5 "/>
<path style=" stroke:none;fill-rule:nonzero;fill:rgb(40%,27.058824%,0%);fill-opacity:1;" d="M 5.832031 6.042969 C 5.832031 5.234375 5.367188 4.582031 4.792969 4.582031 C 4.214844 4.582031 3.75 5.234375 3.75 6.042969 C 3.75 6.847656 4.214844 7.5 4.792969 7.5 C 5.367188 7.5 5.832031 6.847656 5.832031 6.042969 Z M 5.832031 6.042969 "/>
<path style=" stroke:none;fill-rule:nonzero;fill:rgb(40%,27.058824%,0%);fill-opacity:1;" d="M 11.25 6.042969 C 11.25 5.234375 10.785156 4.582031 10.207031 4.582031 C 9.632812 4.582031 9.167969 5.234375 9.167969 6.042969 C 9.167969 6.847656 9.632812 7.5 10.207031 7.5 C 10.785156 7.5 11.25 6.847656 11.25 6.042969 Z M 11.25 6.042969 "/>
<path style=" stroke:none;fill-rule:nonzero;fill:rgb(40%,27.058824%,0%);fill-opacity:1;" d="M 3.609375 11.613281 C 3.683594 11.679688 3.796875 11.683594 3.875 11.625 C 3.890625 11.613281 5.507812 10.417969 7.5 10.417969 C 9.484375 10.417969 11.109375 11.613281 11.125 11.625 C 11.203125 11.683594 11.316406 11.679688 11.390625 11.613281 C 11.464844 11.546875 11.480469 11.4375 11.429688 11.351562 C 11.375 11.261719 10.089844 9.167969 7.5 9.167969 C 4.910156 9.167969 3.625 11.261719 3.570312 11.351562 C 3.519531 11.4375 3.535156 11.546875 3.609375 11.613281 Z M 3.609375 11.613281 "/>
</g>
</svg>
