<?xml version="1.0" encoding="UTF-8"?>
<svg xmlns="http://www.w3.org/2000/svg" xmlns:xlink="http://www.w3.org/1999/xlink" width="15pt" height="15pt" viewBox="0 0 15 15" version="1.1">
<g id="surface1">
<path style=" stroke:none;fill-rule:nonzero;fill:rgb(100%,80%,30.196078%);fill-opacity:1;" d="M 15 7.5 C 15 11.640625 11.640625 15 7.5 15 C 3.359375 15 0 11.640625 0 7.5 C 0 3.359375 3.359375 0 7.5 0 C 11.640625 0 15 3.359375 15 7.5 "/>
<path style=" stroke:none;fill-rule:nonzero;fill:rgb(100%,47.058824%,57.254902%);fill-opacity:1;" d="M 14.167969 9.167969 C 14.167969 10.316406 13.234375 11.25 12.082031 11.25 C 10.933594 11.25 10 10.316406 10 9.167969 C 10 8.015625 10.933594 7.082031 12.082031 7.082031 C 13.234375 7.082031 14.167969 8.015625 14.167969 9.167969 Z M 14.167969 9.167969 "/>
<path style=" stroke:none;fill-rule:nonzero;fill:rgb(100%,47.058824%,57.254902%);fill-opacity:1;" d="M 5 9.167969 C 5 10.316406 4.066406 11.25 2.917969 11.25 C 1.765625 11.25 0.832031 10.316406 0.832031 9.167969 C 0.832031 8.015625 1.765625 7.082031 2.917969 7.082031 C 4.066406 7.082031 5 8.015625 5 9.167969 Z M 5 9.167969 "/>
<path style=" stroke:none;fill-rule:nonzero;fill:rgb(40%,27.058824%,0%);fill-opacity:1;" d="M 12.082031 5.832031 C 11.976562 5.832031 11.871094 5.792969 11.789062 5.710938 C 10.714844 4.636719 8.847656 4.988281 8.832031 4.992188 C 8.601562 5.039062 8.386719 4.890625 8.339844 4.664062 C 8.296875 4.4375 8.441406 4.21875 8.667969 4.175781 C 8.761719 4.15625 10.984375 3.730469 12.378906 5.121094 C 12.539062 5.285156 12.539062 5.546875 12.378906 5.710938 C 12.296875 5.792969 12.191406 5.832031 12.082031 5.832031 Z M 2.917969 5.832031 C 2.808594 5.832031 2.703125 5.792969 2.621094 5.710938 C 2.460938 5.546875 2.460938 5.285156 2.621094 5.121094 C 4.015625 3.730469 6.238281 4.15625 6.332031 4.175781 C 6.558594 4.21875 6.703125 4.441406 6.660156 4.664062 C 6.613281 4.890625 6.394531 5.035156 6.167969 4.992188 C 6.140625 4.984375 4.28125 4.640625 3.210938 5.710938 C 3.128906 5.792969 3.023438 5.832031 2.917969 5.832031 Z M 10.832031 7.917969 C 10.726562 7.917969 10.621094 7.875 10.539062 7.792969 C 9.996094 7.25 8.835938 7.390625 8.433594 7.488281 C 8.207031 7.542969 7.984375 7.40625 7.929688 7.183594 C 7.875 6.960938 8.007812 6.734375 8.234375 6.679688 C 8.308594 6.660156 10.140625 6.214844 11.128906 7.207031 C 11.289062 7.367188 11.289062 7.632812 11.128906 7.792969 C 11.046875 7.875 10.941406 7.917969 10.832031 7.917969 Z M 4.167969 7.917969 C 4.058594 7.917969 3.953125 7.875 3.871094 7.792969 C 3.710938 7.632812 3.710938 7.367188 3.871094 7.207031 C 4.859375 6.214844 6.691406 6.660156 6.769531 6.679688 C 6.992188 6.734375 7.125 6.960938 7.070312 7.183594 C 7.015625 7.40625 6.789062 7.542969 6.566406 7.488281 C 6.164062 7.390625 5.003906 7.25 4.460938 7.792969 C 4.378906 7.875 4.273438 7.917969 4.167969 7.917969 Z M 4.167969 7.917969 "/>
<path style=" stroke:none;fill-rule:nonzero;fill:rgb(40%,27.058824%,0%);fill-opacity:1;" d="M 5.417969 10.417969 C 5.417969 10.417969 5.832031 12.082031 7.5 12.082031 C 9.167969 12.082031 9.582031 10.417969 9.582031 10.417969 C 9.582031 10.417969 9.167969 10.832031 7.5 10.832031 C 5.832031 10.832031 5.417969 10.417969 5.417969 10.417969 Z M 5.417969 10.417969 "/>
<path style=" stroke:none;fill-rule:nonzero;fill:rgb(40%,27.058824%,0%);fill-opacity:1;" d="M 7.5 12.292969 C 5.691406 12.292969 5.21875 10.484375 5.214844 10.46875 C 5.191406 10.375 5.234375 10.28125 5.3125 10.234375 C 5.394531 10.191406 5.492188 10.203125 5.558594 10.265625 C 5.578125 10.277344 6.003906 10.625 7.5 10.625 C 9.019531 10.625 9.4375 10.269531 9.441406 10.265625 C 9.507812 10.203125 9.609375 10.195312 9.6875 10.242188 C 9.765625 10.289062 9.808594 10.378906 9.785156 10.46875 C 9.78125 10.484375 9.308594 12.292969 7.5 12.292969 Z M 5.8125 10.835938 C 6.050781 11.28125 6.550781 11.875 7.5 11.875 C 8.449219 11.875 8.949219 11.28125 9.1875 10.835938 C 8.847656 10.945312 8.3125 11.042969 7.5 11.042969 C 6.6875 11.042969 6.152344 10.945312 5.8125 10.835938 Z M 5.417969 10.417969 L 5.421875 10.417969 Z M 5.417969 10.417969 "/>
</g>
</svg>
