<?xml version="1.0" encoding="UTF-8"?>
<svg xmlns="http://www.w3.org/2000/svg" xmlns:xlink="http://www.w3.org/1999/xlink" width="15pt" height="15pt" viewBox="0 0 15 15" version="1.1">
<g id="surface1">
<path style=" stroke:none;fill-rule:nonzero;fill:rgb(91.764706%,34.901961%,43.137255%);fill-opacity:1;" d="M 15 13.332031 C 15 14.253906 14.253906 15 13.332031 15 L 1.667969 15 C 0.746094 15 0 14.253906 0 13.332031 L 0 1.667969 C 0 0.746094 0.746094 0 1.667969 0 L 13.332031 0 C 14.253906 0 15 0.746094 15 1.667969 Z M 15 13.332031 "/>
<path style=" stroke:none;fill-rule:nonzero;fill:rgb(100%,100%,100%);fill-opacity:1;" d="M 7.5 9.375 C 5.546875 9.375 3.957031 7.785156 3.957031 5.832031 C 3.957031 3.878906 5.546875 2.292969 7.5 2.292969 C 9.453125 2.292969 11.042969 3.878906 11.042969 5.832031 C 11.042969 7.785156 9.453125 9.375 7.5 9.375 Z M 7.5 3.542969 C 6.234375 3.542969 5.207031 4.570312 5.207031 5.832031 C 5.207031 7.097656 6.234375 8.125 7.5 8.125 C 8.765625 8.125 9.792969 7.097656 9.792969 5.832031 C 9.792969 4.570312 8.765625 3.542969 7.5 3.542969 Z M 7.5 3.542969 "/>
<path style=" stroke:none;fill-rule:nonzero;fill:rgb(100%,100%,100%);fill-opacity:1;" d="M 7.5 13.125 C 7.15625 13.125 6.875 12.84375 6.875 12.5 L 6.875 8.75 C 6.875 8.40625 7.15625 8.125 7.5 8.125 C 7.84375 8.125 8.125 8.40625 8.125 8.75 L 8.125 12.5 C 8.125 12.84375 7.84375 13.125 7.5 13.125 Z M 7.5 13.125 "/>
<path style=" stroke:none;fill-rule:nonzero;fill:rgb(100%,100%,100%);fill-opacity:1;" d="M 9.53125 11.457031 L 5.46875 11.457031 C 5.125 11.457031 4.84375 11.179688 4.84375 10.832031 C 4.84375 10.488281 5.125 10.207031 5.46875 10.207031 L 9.53125 10.207031 C 9.875 10.207031 10.15625 10.488281 10.15625 10.832031 C 10.15625 11.179688 9.875 11.457031 9.53125 11.457031 Z M 9.53125 11.457031 "/>
</g>
</svg>
