<?xml version="1.0" encoding="UTF-8"?>
<svg xmlns="http://www.w3.org/2000/svg" xmlns:xlink="http://www.w3.org/1999/xlink" width="15pt" height="15pt" viewBox="0 0 15 15" version="1.1">
<g id="surface1">
<path style=" stroke:none;fill-rule:nonzero;fill:rgb(13.333333%,40%,60%);fill-opacity:1;" d="M 15 13.332031 C 15 14.253906 14.253906 15 13.332031 15 L 1.667969 15 C 0.746094 15 0 14.253906 0 13.332031 L 0 1.667969 C 0 0.746094 0.746094 0 1.667969 0 L 13.332031 0 C 14.253906 0 15 0.746094 15 1.667969 Z M 15 13.332031 "/>
<path style=" stroke:none;fill-rule:nonzero;fill:rgb(100%,100%,100%);fill-opacity:1;" d="M 6.25 12.707031 C 4.296875 12.707031 2.707031 11.121094 2.707031 9.167969 C 2.707031 7.214844 4.296875 5.625 6.25 5.625 C 8.203125 5.625 9.792969 7.214844 9.792969 9.167969 C 9.792969 11.121094 8.203125 12.707031 6.25 12.707031 Z M 6.25 6.875 C 4.988281 6.875 3.957031 7.902344 3.957031 9.167969 C 3.957031 10.429688 4.988281 11.457031 6.25 11.457031 C 7.511719 11.457031 8.542969 10.429688 8.542969 9.167969 C 8.542969 7.902344 7.511719 6.875 6.25 6.875 Z M 6.25 6.875 "/>
<path style=" stroke:none;fill-rule:nonzero;fill:rgb(100%,100%,100%);fill-opacity:1;" d="M 11.875 2.917969 L 8.136719 2.917969 C 7.792969 2.917969 7.511719 3.195312 7.511719 3.542969 C 7.511719 3.886719 7.792969 4.167969 8.136719 4.167969 L 10.367188 4.167969 L 7.449219 7.03125 L 8.332031 7.917969 L 11.25 5.050781 L 11.25 7.292969 C 11.25 7.636719 11.53125 7.917969 11.875 7.917969 C 12.21875 7.917969 12.5 7.636719 12.5 7.292969 L 12.5 3.542969 C 12.5 3.195312 12.21875 2.917969 11.875 2.917969 Z M 11.875 2.917969 "/>
</g>
</svg>
