<?xml version="1.0" encoding="UTF-8"?>
<svg xmlns="http://www.w3.org/2000/svg" xmlns:xlink="http://www.w3.org/1999/xlink" width="15pt" height="15pt" viewBox="0 0 15 15" version="1.1">
<g id="surface1">
<path style=" stroke:none;fill-rule:nonzero;fill:rgb(57.254902%,40%,80%);fill-opacity:1;" d="M 15 13.332031 C 15 14.253906 14.253906 15 13.332031 15 L 1.667969 15 C 0.746094 15 0 14.253906 0 13.332031 L 0 1.667969 C 0 0.746094 0.746094 0 1.667969 0 L 13.332031 0 C 14.253906 0 15 0.746094 15 1.667969 Z M 15 13.332031 "/>
<path style=" stroke:none;fill-rule:nonzero;fill:rgb(100%,100%,100%);fill-opacity:1;" d="M 12.527344 3.214844 C 12.167969 2.628906 11.5625 2.300781 10.847656 2.300781 C 9.351562 2.300781 8.480469 3.71875 8.160156 6.617188 C 8.097656 7.152344 7.726562 10.1875 7.5 11.667969 C 7.5 11.667969 6.835938 7.152344 6.777344 6.617188 C 6.453125 3.71875 5.582031 2.300781 4.085938 2.300781 C 3.371094 2.300781 2.765625 2.628906 2.40625 3.214844 C 2.023438 3.832031 1.976562 4.660156 2.289062 5.28125 C 2.441406 5.589844 2.820312 5.714844 3.128906 5.558594 C 3.4375 5.40625 3.5625 5.03125 3.410156 4.722656 C 3.308594 4.519531 3.1875 3.488281 4.101562 3.488281 C 5.015625 3.488281 5.433594 5.582031 5.636719 6.734375 C 5.84375 7.890625 6.667969 12.496094 6.667969 12.5 C 6.761719 12.890625 7.023438 13.332031 7.5 13.332031 C 7.976562 13.332031 8.265625 12.90625 8.328125 12.5 C 8.328125 12.484375 9.015625 8.324219 9.296875 6.734375 C 9.5 5.582031 9.917969 3.488281 10.832031 3.488281 C 11.746094 3.488281 11.625 4.519531 11.523438 4.722656 C 11.371094 5.03125 11.496094 5.40625 11.804688 5.558594 C 12.113281 5.714844 12.492188 5.589844 12.644531 5.28125 C 12.957031 4.660156 12.910156 3.832031 12.527344 3.214844 Z M 12.527344 3.214844 "/>
</g>
</svg>
