<?xml version="1.0" encoding="UTF-8"?>
<svg xmlns="http://www.w3.org/2000/svg" xmlns:xlink="http://www.w3.org/1999/xlink" width="15pt" height="15pt" viewBox="0 0 15 15" version="1.1">
<g id="surface1">
<path style=" stroke:none;fill-rule:nonzero;fill:rgb(57.254902%,40%,80%);fill-opacity:1;" d="M 15 13.332031 C 15 14.253906 14.253906 15 13.332031 15 L 1.667969 15 C 0.746094 15 0 14.253906 0 13.332031 L 0 1.667969 C 0 0.746094 0.746094 0 1.667969 0 L 13.332031 0 C 14.253906 0 15 0.746094 15 1.667969 Z M 15 13.332031 "/>
<path style=" stroke:none;fill-rule:nonzero;fill:rgb(100%,100%,100%);fill-opacity:1;" d="M 7.5 12.292969 C 5.546875 12.292969 3.957031 10.703125 3.957031 8.75 C 3.957031 6.796875 5.546875 5.207031 7.5 5.207031 C 9.453125 5.207031 11.042969 6.796875 11.042969 8.75 C 11.042969 10.703125 9.453125 12.292969 7.5 12.292969 Z M 7.5 6.457031 C 6.234375 6.457031 5.207031 7.484375 5.207031 8.75 C 5.207031 10.011719 6.234375 11.042969 7.5 11.042969 C 8.761719 11.042969 9.792969 10.011719 9.792969 8.75 C 9.792969 7.484375 8.761719 6.457031 7.5 6.457031 Z M 7.5 6.457031 "/>
<path style=" stroke:none;fill-rule:nonzero;fill:rgb(100%,100%,100%);fill-opacity:1;" d="M 7.5 6.457031 C 5.371094 6.457031 4.339844 5.296875 4.113281 4.996094 C 3.910156 4.808594 3.355469 4.375 2.917969 4.375 C 2.375 4.375 2.109375 4.609375 2.097656 4.621094 C 1.84375 4.847656 1.453125 4.835938 1.21875 4.589844 C 0.988281 4.34375 0.984375 3.964844 1.226562 3.726562 C 1.285156 3.664062 1.855469 3.125 2.917969 3.125 C 3.976562 3.125 4.921875 4.035156 5.027344 4.140625 C 5.054688 4.171875 5.082031 4.203125 5.105469 4.238281 C 5.128906 4.269531 5.808594 5.207031 7.5 5.207031 C 9.203125 5.207031 9.890625 4.246094 9.898438 4.238281 C 9.921875 4.203125 9.945312 4.171875 9.976562 4.140625 C 10.078125 4.035156 11.023438 3.125 12.082031 3.125 C 13.144531 3.125 13.714844 3.664062 13.777344 3.722656 C 14.019531 3.96875 14.019531 4.363281 13.777344 4.609375 C 13.53125 4.851562 13.136719 4.851562 12.890625 4.609375 C 12.890625 4.609375 12.621094 4.375 12.082031 4.375 C 11.644531 4.375 11.089844 4.808594 10.886719 4.996094 C 10.65625 5.296875 9.628906 6.457031 7.5 6.457031 Z M 7.5 6.457031 "/>
</g>
</svg>
