<?xml version="1.0" encoding="UTF-8"?>
<svg xmlns="http://www.w3.org/2000/svg" xmlns:xlink="http://www.w3.org/1999/xlink" width="15pt" height="15pt" viewBox="0 0 15 15" version="1.1">
<g id="surface1">
<path style=" stroke:none;fill-rule:nonzero;fill:rgb(57.254902%,40%,80%);fill-opacity:1;" d="M 15 13.332031 C 15 14.253906 14.253906 15 13.332031 15 L 1.667969 15 C 0.746094 15 0 14.253906 0 13.332031 L 0 1.667969 C 0 0.746094 0.746094 0 1.667969 0 L 13.332031 0 C 14.253906 0 15 0.746094 15 1.667969 Z M 15 13.332031 "/>
<path style=" stroke:none;fill-rule:nonzero;fill:rgb(100%,100%,100%);fill-opacity:1;" d="M 12.082031 12.707031 C 12.015625 12.707031 11.949219 12.699219 11.886719 12.675781 C 11.875 12.671875 10.644531 12.292969 7.5 12.292969 C 4.355469 12.292969 3.121094 12.671875 3.109375 12.675781 C 2.78125 12.78125 2.429688 12.601562 2.324219 12.277344 C 2.21875 11.949219 2.390625 11.597656 2.71875 11.492188 C 2.773438 11.472656 4.105469 11.042969 7.5 11.042969 C 10.894531 11.042969 12.226562 11.472656 12.28125 11.492188 C 12.609375 11.597656 12.785156 11.953125 12.675781 12.28125 C 12.589844 12.542969 12.34375 12.707031 12.082031 12.707031 Z M 12.082031 12.707031 "/>
<path style=" stroke:none;fill-rule:nonzero;fill:rgb(100%,100%,100%);fill-opacity:1;" d="M 5 3.332031 L 6.25 3.332031 L 6.25 11.667969 L 5 11.667969 Z M 8.75 3.332031 L 10 3.332031 L 10 11.667969 L 8.75 11.667969 Z M 8.75 3.332031 "/>
<path style=" stroke:none;fill-rule:nonzero;fill:rgb(100%,100%,100%);fill-opacity:1;" d="M 7.5 3.957031 C 4.105469 3.957031 2.773438 3.527344 2.71875 3.507812 C 2.390625 3.402344 2.214844 3.046875 2.324219 2.71875 C 2.433594 2.390625 2.785156 2.214844 3.109375 2.324219 C 3.128906 2.328125 4.363281 2.707031 7.5 2.707031 C 10.644531 2.707031 11.878906 2.328125 11.890625 2.324219 C 12.214844 2.21875 12.570312 2.398438 12.675781 2.722656 C 12.78125 3.050781 12.605469 3.402344 12.28125 3.507812 C 12.226562 3.527344 10.894531 3.957031 7.5 3.957031 Z M 7.5 3.957031 "/>
</g>
</svg>
