<?xml version="1.0" encoding="UTF-8"?>
<svg xmlns="http://www.w3.org/2000/svg" xmlns:xlink="http://www.w3.org/1999/xlink" width="15pt" height="15pt" viewBox="0 0 15 15" version="1.1">
<g id="surface1">
<path style=" stroke:none;fill-rule:nonzero;fill:rgb(57.254902%,40%,80%);fill-opacity:1;" d="M 15 13.332031 C 15 14.253906 14.253906 15 13.332031 15 L 1.667969 15 C 0.746094 15 0 14.253906 0 13.332031 L 0 1.667969 C 0 0.746094 0.746094 0 1.667969 0 L 13.332031 0 C 14.253906 0 15 0.746094 15 1.667969 Z M 15 13.332031 "/>
<path style=" stroke:none;fill-rule:nonzero;fill:rgb(100%,100%,100%);fill-opacity:1;" d="M 4.582031 7.199219 C 3.410156 7.199219 2.382812 6.171875 2.382812 5 C 2.382812 3.382812 3.957031 2.382812 5.417969 2.382812 C 11.097656 2.382812 12.503906 5.0625 12.558594 5.179688 C 12.691406 5.441406 12.585938 5.761719 12.320312 5.894531 C 12.0625 6.023438 11.742188 5.921875 11.609375 5.660156 C 11.585938 5.617188 10.496094 3.710938 6.296875 3.472656 C 6.621094 3.855469 6.785156 4.367188 6.785156 5 C 6.78125 6.058594 5.941406 7.199219 4.582031 7.199219 Z M 4.097656 3.863281 C 3.714844 4.132812 3.449219 4.527344 3.449219 5 C 3.449219 5.511719 3.953125 6.132812 4.582031 6.132812 C 5.261719 6.132812 5.71875 5.546875 5.71875 5 C 5.71875 4.558594 5.605469 4.246094 5.382812 4.0625 C 4.980469 3.734375 4.304688 3.8125 4.296875 3.816406 C 4.238281 3.828125 4.167969 3.835938 4.097656 3.863281 Z M 9.582031 12.617188 C 3.902344 12.617188 2.496094 9.933594 2.441406 9.820312 C 2.308594 9.558594 2.414062 9.238281 2.679688 9.105469 C 2.9375 8.976562 3.257812 9.082031 3.390625 9.339844 C 3.414062 9.382812 4.503906 11.289062 8.703125 11.527344 C 8.378906 11.144531 8.214844 10.632812 8.214844 10 C 8.214844 8.941406 9.058594 7.800781 10.417969 7.800781 C 11.589844 7.800781 12.617188 8.828125 12.617188 10 C 12.617188 11.617188 11.042969 12.617188 9.582031 12.617188 Z M 10.417969 8.867188 C 9.738281 8.867188 9.28125 9.453125 9.28125 10 C 9.28125 10.441406 9.394531 10.753906 9.617188 10.9375 C 10.019531 11.265625 10.730469 11.1875 10.734375 11.183594 C 10.792969 11.171875 10.832031 11.160156 10.902344 11.136719 C 11.285156 10.867188 11.550781 10.472656 11.550781 10 C 11.550781 9.488281 11.042969 8.867188 10.417969 8.867188 Z M 10.417969 8.867188 "/>
<path style=" stroke:none;fill-rule:nonzero;fill:rgb(57.254902%,40%,80%);fill-opacity:1;" d="M 5.835938 4.996094 C 5.835938 4.296875 5.265625 3.730469 4.566406 3.730469 C 3.867188 3.730469 3.300781 4.296875 3.300781 4.996094 C 3.300781 5.695312 3.867188 6.261719 4.566406 6.261719 C 5.265625 6.261719 5.835938 5.695312 5.835938 4.996094 Z M 11.667969 9.996094 C 11.667969 9.296875 11.101562 8.730469 10.402344 8.730469 C 9.699219 8.730469 9.132812 9.296875 9.132812 9.996094 C 9.132812 10.695312 9.699219 11.261719 10.402344 11.261719 C 11.101562 11.261719 11.667969 10.695312 11.667969 9.996094 Z M 11.667969 9.996094 "/>
</g>
</svg>
