<?xml version="1.0" encoding="UTF-8"?>
<svg xmlns="http://www.w3.org/2000/svg" xmlns:xlink="http://www.w3.org/1999/xlink" width="15pt" height="15pt" viewBox="0 0 15 15" version="1.1">
<g id="surface1">
<path style=" stroke:none;fill-rule:nonzero;fill:rgb(57.254902%,40%,80%);fill-opacity:1;" d="M 15 13.332031 C 15 14.253906 14.253906 15 13.332031 15 L 1.667969 15 C 0.746094 15 0 14.253906 0 13.332031 L 0 1.667969 C 0 0.746094 0.746094 0 1.667969 0 L 13.332031 0 C 14.253906 0 15 0.746094 15 1.667969 Z M 15 13.332031 "/>
<path style=" stroke:none;fill-rule:nonzero;fill:rgb(100%,100%,100%);fill-opacity:1;" d="M 5 11.457031 C 3.507812 11.457031 2.292969 10.242188 2.292969 8.75 C 2.292969 7.257812 3.507812 6.042969 5 6.042969 C 6.492188 6.042969 7.707031 7.257812 7.707031 8.75 C 7.707031 10.242188 6.492188 11.457031 5 11.457031 Z M 5 7.292969 C 4.195312 7.292969 3.542969 7.945312 3.542969 8.75 C 3.542969 9.554688 4.195312 10.207031 5 10.207031 C 5.804688 10.207031 6.457031 9.554688 6.457031 8.75 C 6.457031 7.945312 5.804688 7.292969 5 7.292969 Z M 5 7.292969 "/>
<path style=" stroke:none;fill-rule:nonzero;fill:rgb(100%,100%,100%);fill-opacity:1;" d="M 10.648438 12.402344 C 10.375 12.402344 10.089844 12.355469 9.800781 12.257812 C 9.113281 12.03125 8.640625 11.519531 8.476562 10.816406 C 8.210938 9.6875 8.785156 8.25 9.972656 7.058594 C 10.769531 6.261719 11.121094 5.128906 10.804688 4.371094 C 10.519531 3.683594 9.757812 3.542969 9.167969 3.542969 C 8.261719 3.542969 7.292969 4.128906 7.292969 5 C 7.292969 5.757812 7.453125 6.171875 7.625 6.609375 C 7.882812 7.269531 8.148438 7.949219 7.675781 9.363281 C 7.566406 9.691406 7.214844 9.867188 6.886719 9.757812 C 6.558594 9.648438 6.382812 9.296875 6.492188 8.96875 C 6.820312 7.984375 6.683594 7.636719 6.460938 7.066406 C 6.273438 6.589844 6.042969 5.996094 6.042969 5 C 6.042969 3.328125 7.664062 2.292969 9.167969 2.292969 C 11.019531 2.292969 11.710938 3.292969 11.960938 3.890625 C 12.46875 5.121094 12.015625 6.785156 10.859375 7.941406 C 9.867188 8.933594 9.558594 9.957031 9.695312 10.53125 C 9.757812 10.808594 9.917969 10.980469 10.199219 11.074219 C 10.578125 11.203125 10.90625 11.175781 11.148438 11 C 11.339844 10.863281 11.457031 10.640625 11.457031 10.417969 C 11.457031 10.070312 11.738281 9.792969 12.082031 9.792969 C 12.429688 9.792969 12.707031 10.070312 12.707031 10.417969 C 12.707031 11.042969 12.398438 11.640625 11.878906 12.015625 C 11.523438 12.273438 11.101562 12.402344 10.648438 12.402344 Z M 10.648438 12.402344 "/>
</g>
</svg>
