<?xml version="1.0" encoding="UTF-8"?>
<svg xmlns="http://www.w3.org/2000/svg" xmlns:xlink="http://www.w3.org/1999/xlink" width="15pt" height="15pt" viewBox="0 0 15 15" version="1.1">
<g id="surface1">
<path style=" stroke:none;fill-rule:nonzero;fill:rgb(57.254902%,40%,80%);fill-opacity:1;" d="M 15 13.332031 C 15 14.253906 14.253906 15 13.332031 15 L 1.667969 15 C 0.746094 15 0 14.253906 0 13.332031 L 0 1.667969 C 0 0.746094 0.746094 0 1.667969 0 L 13.332031 0 C 14.253906 0 15 0.746094 15 1.667969 Z M 15 13.332031 "/>
<path style=" stroke:none;fill-rule:nonzero;fill:rgb(100%,100%,100%);fill-opacity:1;" d="M 11.976562 9.75 C 12.683594 7.464844 11.578125 6.074219 11.53125 6.015625 L 11.269531 5.691406 L 10.871094 5.808594 C 10.828125 5.820312 10.21875 6.011719 9.582031 6.632812 L 9.582031 4.582031 C 9.582031 2.925781 8.84375 2.527344 8.222656 2.378906 C 7.609375 2.234375 6.984375 2.5 6.546875 2.90625 C 6.296875 2.59375 5.996094 2.445312 5.722656 2.378906 C 5.113281 2.234375 4.488281 2.496094 4.050781 2.902344 C 3.628906 2.339844 3.082031 2.292969 2.917969 2.292969 C 2.570312 2.292969 2.292969 2.570312 2.292969 2.917969 C 2.292969 3.261719 2.570312 3.542969 2.917969 3.542969 C 2.972656 3.542969 3.261719 3.746094 3.332031 4.582031 L 3.332031 9.582031 C 3.332031 9.929688 3.613281 10.207031 3.957031 10.207031 C 4.304688 10.207031 4.582031 9.929688 4.582031 9.582031 L 4.582031 4.128906 C 4.582031 3.785156 4.863281 3.503906 5.207031 3.503906 C 5.554688 3.503906 5.832031 3.785156 5.832031 4.128906 L 5.832031 9.582031 C 5.832031 9.929688 6.113281 10.207031 6.457031 10.207031 C 6.804688 10.207031 7.082031 9.929688 7.082031 9.582031 L 7.082031 4.128906 C 7.082031 3.785156 7.363281 3.503906 7.707031 3.503906 C 8.054688 3.503906 8.332031 3.785156 8.332031 4.128906 L 8.332031 8.886719 C 8.15625 9.714844 8.328125 10.621094 8.625 11.441406 C 8.050781 11.753906 7.496094 11.976562 7.164062 12.089844 C 6.835938 12.199219 6.660156 12.550781 6.769531 12.878906 C 6.875 13.207031 7.230469 13.382812 7.558594 13.277344 C 7.621094 13.253906 8.3125 13.019531 9.136719 12.582031 C 9.566406 13.410156 10.007812 13.992188 10.046875 14.046875 C 10.171875 14.207031 10.355469 14.292969 10.546875 14.292969 C 10.675781 14.292969 10.808594 14.25 10.921875 14.164062 C 11.199219 13.957031 11.25 13.5625 11.042969 13.289062 C 10.828125 13.007812 10.5 12.511719 10.199219 11.929688 C 10.980469 11.371094 11.699219 10.640625 11.976562 9.75 Z M 10.78125 9.378906 C 10.625 9.886719 10.210938 10.347656 9.703125 10.746094 C 9.511719 10.132812 9.429688 9.519531 9.585938 9.007812 C 9.890625 8.027344 10.414062 7.503906 10.789062 7.242188 C 10.949219 7.671875 11.085938 8.398438 10.78125 9.378906 Z M 10.78125 9.378906 "/>
</g>
</svg>
