<?xml version="1.0" encoding="UTF-8"?>
<svg xmlns="http://www.w3.org/2000/svg" xmlns:xlink="http://www.w3.org/1999/xlink" width="15pt" height="15pt" viewBox="0 0 15 15" version="1.1">
<g id="surface1">
<path style=" stroke:none;fill-rule:nonzero;fill:rgb(57.254902%,40%,80%);fill-opacity:1;" d="M 15 13.332031 C 15 14.253906 14.253906 15 13.332031 15 L 1.667969 15 C 0.746094 15 0 14.253906 0 13.332031 L 0 1.667969 C 0 0.746094 0.746094 0 1.667969 0 L 13.332031 0 C 14.253906 0 15 0.746094 15 1.667969 Z M 15 13.332031 "/>
<path style=" stroke:none;fill-rule:nonzero;fill:rgb(100%,100%,100%);fill-opacity:1;" d="M 12.082031 12.5 L 2.917969 12.5 C 2.570312 12.5 2.292969 12.21875 2.292969 11.875 C 2.292969 11.53125 2.570312 11.25 2.917969 11.25 L 12.082031 11.25 C 12.429688 11.25 12.707031 11.53125 12.707031 11.875 C 12.707031 12.21875 12.429688 12.5 12.082031 12.5 Z M 12.082031 10.417969 L 8.75 10.417969 C 8.488281 10.417969 8.253906 10.253906 8.164062 10.003906 C 8.074219 9.757812 8.148438 9.480469 8.347656 9.3125 C 8.867188 8.878906 10.207031 7.503906 10.207031 6.378906 C 10.207031 4.636719 8.832031 3.59375 7.5 3.59375 C 6.167969 3.59375 4.792969 4.625 4.792969 6.355469 C 4.792969 7.480469 6.136719 8.875 6.65625 9.316406 C 6.855469 9.484375 6.925781 9.761719 6.835938 10.007812 C 6.746094 10.253906 6.511719 10.417969 6.25 10.417969 L 2.917969 10.417969 C 2.570312 10.417969 2.292969 10.136719 2.292969 9.792969 C 2.292969 9.445312 2.570312 9.167969 2.917969 9.167969 L 4.777344 9.167969 C 4.171875 8.425781 3.542969 7.402344 3.542969 6.355469 C 3.542969 3.84375 5.554688 2.34375 7.5 2.34375 C 9.402344 2.34375 11.457031 3.886719 11.457031 6.378906 C 11.457031 7.425781 10.835938 8.433594 10.234375 9.167969 L 12.082031 9.167969 C 12.429688 9.167969 12.707031 9.445312 12.707031 9.792969 C 12.707031 10.136719 12.429688 10.417969 12.082031 10.417969 Z M 12.082031 10.417969 "/>
</g>
</svg>
