<?xml version="1.0" encoding="UTF-8"?>
<svg xmlns="http://www.w3.org/2000/svg" xmlns:xlink="http://www.w3.org/1999/xlink" width="15pt" height="15pt" viewBox="0 0 15 15" version="1.1">
<g id="surface1">
<path style=" stroke:none;fill-rule:nonzero;fill:rgb(57.254902%,40%,80%);fill-opacity:1;" d="M 15 13.332031 C 15 14.253906 14.253906 15 13.332031 15 L 1.667969 15 C 0.746094 15 0 14.253906 0 13.332031 L 0 1.667969 C 0 0.746094 0.746094 0 1.667969 0 L 13.332031 0 C 14.253906 0 15 0.746094 15 1.667969 Z M 15 13.332031 "/>
<path style=" stroke:none;fill-rule:nonzero;fill:rgb(100%,100%,100%);fill-opacity:1;" d="M 13.125 11.667969 L 10.832031 10 L 10.832031 13.332031 Z M 13.125 11.667969 "/>
<path style=" stroke:none;fill-rule:nonzero;fill:rgb(100%,100%,100%);fill-opacity:1;" d="M 11.25 11.042969 C 9.648438 11.042969 9.582031 10.652344 9.582031 9.167969 L 9.582031 4.582031 C 9.582031 2.925781 8.84375 2.527344 8.222656 2.378906 C 7.609375 2.234375 6.984375 2.5 6.546875 2.90625 C 6.296875 2.59375 5.996094 2.445312 5.722656 2.378906 C 5.113281 2.234375 4.488281 2.496094 4.050781 2.902344 C 3.628906 2.339844 3.082031 2.292969 2.917969 2.292969 C 2.570312 2.292969 2.292969 2.570312 2.292969 2.917969 C 2.292969 3.261719 2.570312 3.542969 2.917969 3.542969 C 2.980469 3.542969 3.332031 3.8125 3.332031 5 L 3.332031 9.582031 C 3.332031 9.929688 3.613281 10.207031 3.957031 10.207031 C 4.304688 10.207031 4.582031 9.929688 4.582031 9.582031 L 4.585938 4.128906 C 4.585938 3.785156 4.867188 3.503906 5.210938 3.503906 C 5.558594 3.503906 5.835938 3.785156 5.835938 4.128906 L 5.832031 9.582031 C 5.832031 9.929688 6.113281 10.207031 6.457031 10.207031 C 6.804688 10.207031 7.082031 9.929688 7.082031 9.582031 L 7.085938 4.128906 C 7.085938 3.785156 7.367188 3.503906 7.710938 3.503906 C 8.058594 3.503906 8.335938 3.785156 8.335938 4.128906 L 8.332031 9.167969 C 8.332031 10.8125 8.554688 12.292969 11.25 12.292969 C 11.59375 12.292969 11.875 12.011719 11.875 11.667969 C 11.875 11.320312 11.59375 11.042969 11.25 11.042969 Z M 11.25 11.042969 "/>
</g>
</svg>
