<?xml version="1.0" encoding="UTF-8"?>
<svg xmlns="http://www.w3.org/2000/svg" xmlns:xlink="http://www.w3.org/1999/xlink" width="15pt" height="15pt" viewBox="0 0 15 15" version="1.1">
<g id="surface1">
<path style=" stroke:none;fill-rule:nonzero;fill:rgb(57.254902%,40%,80%);fill-opacity:1;" d="M 15 13.332031 C 15 14.253906 14.253906 15 13.332031 15 L 1.667969 15 C 0.746094 15 0 14.253906 0 13.332031 L 0 1.667969 C 0 0.746094 0.746094 0 1.667969 0 L 13.332031 0 C 14.253906 0 15 0.746094 15 1.667969 Z M 15 13.332031 "/>
<path style=" stroke:none;fill-rule:nonzero;fill:rgb(100%,100%,100%);fill-opacity:1;" d="M 10.832031 8.136719 C 10.160156 8.136719 9.570312 8.335938 9.117188 8.6875 C 8.933594 7.777344 8.652344 6.429688 8.320312 4.882812 C 7.871094 2.785156 6.773438 2.339844 6.160156 2.265625 C 5.441406 2.171875 4.722656 2.488281 4.167969 3.089844 C 3.734375 2.363281 3.097656 2.304688 2.917969 2.304688 C 2.570312 2.304688 2.292969 2.585938 2.292969 2.929688 C 2.292969 3.273438 2.570312 3.554688 2.917969 3.554688 C 2.980469 3.554688 3.332031 3.824219 3.332031 5.011719 L 3.332031 9.597656 C 3.332031 9.941406 3.613281 10.222656 3.957031 10.222656 C 4.304688 10.222656 4.582031 9.941406 4.582031 9.597656 L 4.582031 5.085938 C 4.582031 4.53125 4.8125 3.503906 5.8125 3.503906 C 6.425781 3.503906 6.890625 4.179688 7.097656 5.144531 C 7.699219 7.957031 8.132812 10.113281 8.136719 10.136719 C 8.410156 11.652344 7.257812 11.902344 6.667969 11.886719 C 6.320312 11.878906 6.042969 12.167969 6.042969 12.511719 C 6.042969 12.859375 6.320312 13.136719 6.667969 13.136719 C 7.738281 13.136719 8.820312 12.640625 9.21875 11.675781 C 9.738281 11.980469 10.367188 12.089844 10.941406 12.03125 C 12.226562 11.90625 13.125 11.074219 13.125 10.011719 C 13.125 8.925781 12.160156 8.136719 10.832031 8.136719 Z M 10.820312 10.789062 C 10.339844 10.839844 9.753906 10.707031 9.484375 10.222656 C 9.6875 9.695312 10.164062 9.386719 10.832031 9.386719 C 11.253906 9.386719 11.875 9.554688 11.875 10.011719 C 11.875 10.453125 11.34375 10.738281 10.820312 10.789062 Z M 10.820312 10.789062 "/>
</g>
</svg>
