<?xml version="1.0" encoding="UTF-8"?>
<svg xmlns="http://www.w3.org/2000/svg" xmlns:xlink="http://www.w3.org/1999/xlink" width="15pt" height="15pt" viewBox="0 0 15 15" version="1.1">
<g id="surface1">
<path style=" stroke:none;fill-rule:nonzero;fill:rgb(57.254902%,40%,80%);fill-opacity:1;" d="M 15 13.332031 C 15 14.253906 14.253906 15 13.332031 15 L 1.667969 15 C 0.746094 15 0 14.253906 0 13.332031 L 0 1.667969 C 0 0.746094 0.746094 0 1.667969 0 L 13.332031 0 C 14.253906 0 15 0.746094 15 1.667969 Z M 15 13.332031 "/>
<path style=" stroke:none;fill-rule:nonzero;fill:rgb(100%,100%,100%);fill-opacity:1;" d="M 8.957031 6.875 C 8.871094 6.875 8.78125 6.855469 8.699219 6.820312 C 8.476562 6.71875 8.332031 6.496094 8.332031 6.25 L 8.332031 4.710938 L 6.035156 6.71875 C 5.851562 6.882812 5.589844 6.921875 5.367188 6.820312 C 5.144531 6.71875 5 6.496094 5 6.25 L 5 4.773438 L 2.925781 6.707031 C 2.675781 6.941406 2.277344 6.929688 2.042969 6.675781 C 1.808594 6.425781 1.820312 6.027344 2.074219 5.792969 L 5.199219 2.875 C 5.378906 2.707031 5.644531 2.660156 5.875 2.761719 C 6.101562 2.859375 6.25 3.085938 6.25 3.332031 L 6.25 4.871094 L 8.546875 2.863281 C 8.730469 2.703125 8.992188 2.664062 9.214844 2.765625 C 9.441406 2.867188 9.582031 3.089844 9.582031 3.332031 L 9.582031 4.871094 L 11.878906 2.863281 C 12.066406 2.703125 12.328125 2.664062 12.550781 2.765625 C 12.773438 2.867188 12.917969 3.089844 12.917969 3.332031 L 12.917969 6.25 C 12.917969 6.59375 12.636719 6.875 12.292969 6.875 C 11.945312 6.875 11.667969 6.59375 11.667969 6.25 L 11.667969 4.710938 L 9.371094 6.71875 C 9.253906 6.820312 9.105469 6.875 8.957031 6.875 Z M 8.957031 12.292969 C 8.871094 12.292969 8.78125 12.273438 8.699219 12.234375 C 8.476562 12.132812 8.332031 11.910156 8.332031 11.667969 L 8.332031 10.128906 L 6.035156 12.136719 C 5.851562 12.296875 5.589844 12.335938 5.367188 12.234375 C 5.144531 12.132812 5 11.910156 5 11.667969 L 5 10.1875 L 2.925781 12.125 C 2.675781 12.359375 2.277344 12.34375 2.042969 12.09375 C 1.808594 11.839844 1.820312 11.445312 2.074219 11.210938 L 5.199219 8.292969 C 5.378906 8.125 5.644531 8.078125 5.875 8.175781 C 6.101562 8.277344 6.25 8.5 6.25 8.75 L 6.25 10.289062 L 8.546875 8.28125 C 8.730469 8.117188 8.992188 8.078125 9.214844 8.179688 C 9.441406 8.28125 9.582031 8.503906 9.582031 8.75 L 9.582031 10.289062 L 11.878906 8.28125 C 12.066406 8.117188 12.328125 8.078125 12.550781 8.179688 C 12.773438 8.28125 12.917969 8.503906 12.917969 8.75 L 12.917969 11.667969 C 12.917969 12.011719 12.636719 12.292969 12.292969 12.292969 C 11.945312 12.292969 11.667969 12.011719 11.667969 11.667969 L 11.667969 10.128906 L 9.371094 12.136719 C 9.253906 12.238281 9.105469 12.292969 8.957031 12.292969 Z M 8.957031 12.292969 "/>
</g>
</svg>
