<?xml version="1.0" encoding="UTF-8"?>
<svg xmlns="http://www.w3.org/2000/svg" xmlns:xlink="http://www.w3.org/1999/xlink" width="15pt" height="15pt" viewBox="0 0 15 15" version="1.1">
<g id="surface1">
<path style=" stroke:none;fill-rule:nonzero;fill:rgb(57.254902%,40%,80%);fill-opacity:1;" d="M 15 13.332031 C 15 14.253906 14.253906 15 13.332031 15 L 1.667969 15 C 0.746094 15 0 14.253906 0 13.332031 L 0 1.667969 C 0 0.746094 0.746094 0 1.667969 0 L 13.332031 0 C 14.253906 0 15 0.746094 15 1.667969 Z M 15 13.332031 "/>
<path style=" stroke:none;fill-rule:nonzero;fill:rgb(100%,100%,100%);fill-opacity:1;" d="M 12.707031 7.707031 C 12.707031 7.363281 12.429688 7.082031 12.082031 7.082031 L 10.636719 7.082031 C 10.757812 4.460938 11.992188 3.457031 12.042969 3.417969 C 12.316406 3.210938 12.375 2.816406 12.167969 2.542969 C 11.960938 2.265625 11.566406 2.210938 11.289062 2.417969 C 11.214844 2.472656 9.523438 3.789062 9.386719 7.082031 L 5.609375 7.082031 C 5.476562 3.789062 3.78125 2.472656 3.707031 2.417969 C 3.433594 2.210938 3.046875 2.265625 2.839844 2.539062 C 2.632812 2.808594 2.683594 3.199219 2.953125 3.414062 C 3.007812 3.457031 4.242188 4.460938 4.363281 7.082031 L 2.917969 7.082031 C 2.570312 7.082031 2.292969 7.363281 2.292969 7.707031 C 2.292969 8.054688 2.570312 8.332031 2.917969 8.332031 L 4.332031 8.332031 C 4.109375 10.636719 3.015625 11.539062 2.953125 11.585938 C 2.679688 11.796875 2.625 12.183594 2.832031 12.457031 C 2.957031 12.621094 3.144531 12.707031 3.332031 12.707031 C 3.464844 12.707031 3.59375 12.667969 3.707031 12.582031 C 3.78125 12.53125 5.332031 11.320312 5.585938 8.332031 L 9.414062 8.332031 C 9.667969 11.320312 11.21875 12.53125 11.292969 12.582031 C 11.402344 12.667969 11.535156 12.707031 11.664062 12.707031 C 11.851562 12.707031 12.035156 12.621094 12.160156 12.460938 C 12.367188 12.191406 12.316406 11.796875 12.046875 11.585938 C 11.996094 11.546875 10.890625 10.644531 10.667969 8.332031 L 12.082031 8.332031 C 12.429688 8.332031 12.707031 8.054688 12.707031 7.707031 Z M 12.707031 7.707031 "/>
</g>
</svg>
