<?xml version="1.0" encoding="UTF-8"?>
<svg xmlns="http://www.w3.org/2000/svg" xmlns:xlink="http://www.w3.org/1999/xlink" width="15pt" height="15pt" viewBox="0 0 15 15" version="1.1">
<g id="surface1">
<path style=" stroke:none;fill-rule:nonzero;fill:rgb(19.215686%,21.568627%,23.921569%);fill-opacity:1;" d="M 11.589844 14.023438 C 11.859375 13.75 12.082031 13.363281 12.082031 12.832031 C 12.082031 11.523438 10.566406 10.019531 10 8.75 C 9.445312 7.5 9.125 6.300781 9.964844 5.964844 L 10.035156 5.933594 C 10.277344 5.84375 10.417969 5.738281 10.417969 5.625 C 10.417969 5.433594 10.011719 5.261719 9.378906 5.148438 C 10.011719 4.613281 10.417969 3.8125 10.417969 2.917969 C 10.417969 1.304688 9.109375 0 7.5 0 C 5.890625 0 4.582031 1.304688 4.582031 2.917969 C 4.582031 3.8125 4.988281 4.613281 5.621094 5.148438 C 4.988281 5.261719 4.582031 5.433594 4.582031 5.625 C 4.582031 5.738281 4.722656 5.84375 4.964844 5.933594 C 4.988281 5.941406 5.007812 5.953125 5.035156 5.964844 C 5.875 6.300781 5.554688 7.5 5 8.75 C 4.433594 10.019531 2.917969 11.523438 2.917969 12.832031 C 2.917969 13.363281 3.140625 13.75 3.410156 14.023438 C 3.097656 14.191406 2.917969 14.382812 2.917969 14.582031 C 2.917969 14.730469 3.015625 14.871094 3.183594 15 L 11.816406 15 C 11.984375 14.871094 12.082031 14.730469 12.082031 14.582031 C 12.082031 14.382812 11.902344 14.191406 11.589844 14.023438 Z M 11.589844 14.023438 "/>
<path style=" stroke:none;fill-rule:nonzero;fill:rgb(40%,45.882353%,49.803922%);fill-opacity:1;" d="M 9.167969 1.980469 C 9.050781 1.980469 8.941406 1.914062 8.886719 1.804688 C 8.875 1.78125 8.527344 1.144531 7.5 1.144531 C 6.472656 1.144531 6.125 1.78125 6.109375 1.808594 C 6.03125 1.960938 5.84375 2.023438 5.691406 1.941406 C 5.539062 1.863281 5.476562 1.679688 5.554688 1.527344 C 5.574219 1.484375 6.074219 0.519531 7.5 0.519531 C 8.925781 0.519531 9.425781 1.484375 9.445312 1.527344 C 9.523438 1.683594 9.460938 1.871094 9.304688 1.945312 C 9.261719 1.96875 9.214844 1.980469 9.167969 1.980469 Z M 9.167969 5.832031 C 9.136719 5.832031 9.105469 5.828125 9.074219 5.8125 C 9.070312 5.8125 8.660156 5.625 7.5 5.625 C 6.339844 5.625 5.929688 5.8125 5.925781 5.8125 C 5.820312 5.859375 5.695312 5.816406 5.648438 5.714844 C 5.597656 5.613281 5.636719 5.488281 5.742188 5.4375 C 5.789062 5.414062 6.238281 5.207031 7.5 5.207031 C 8.761719 5.207031 9.210938 5.414062 9.261719 5.4375 C 9.363281 5.492188 9.40625 5.617188 9.351562 5.71875 C 9.316406 5.792969 9.242188 5.832031 9.167969 5.832031 Z M 4.167969 14.375 C 4.0625 14.375 3.96875 14.296875 3.960938 14.1875 C 3.949219 14.074219 4.03125 13.972656 4.144531 13.960938 C 4.167969 13.957031 6.253906 13.75 7.5 13.75 C 8.746094 13.75 10.832031 13.957031 10.855469 13.960938 C 10.96875 13.972656 11.050781 14.074219 11.039062 14.1875 C 11.027344 14.300781 10.925781 14.386719 10.8125 14.375 C 10.792969 14.371094 8.726562 14.167969 7.5 14.167969 C 6.273438 14.167969 4.207031 14.371094 4.1875 14.375 Z M 4.167969 14.375 "/>
</g>
</svg>
