<?xml version="1.0" encoding="UTF-8"?>
<svg xmlns="http://www.w3.org/2000/svg" xmlns:xlink="http://www.w3.org/1999/xlink" width="15pt" height="15pt" viewBox="0 0 15 15" version="1.1">
<g id="surface1">
<path style=" stroke:none;fill-rule:nonzero;fill:rgb(19.215686%,21.568627%,23.921569%);fill-opacity:1;" d="M 13.667969 8.472656 C 13.667969 4.773438 7.5 0.0820312 7.5 0.0820312 C 7.5 0.0820312 1.332031 4.773438 1.332031 8.472656 C 1.332031 11.367188 4.738281 12.710938 6.652344 10.628906 C 6.511719 12.371094 4.6875 13.75 2.917969 13.75 L 3.125 13.75 C 2.78125 13.75 2.5 14.03125 2.5 14.375 C 2.5 14.71875 2.78125 15 3.125 15 L 11.875 15 C 12.21875 15 12.5 14.71875 12.5 14.375 C 12.5 14.03125 12.21875 13.75 11.875 13.75 L 12.082031 13.75 C 10.3125 13.75 8.488281 12.371094 8.347656 10.628906 C 10.261719 12.710938 13.667969 11.367188 13.667969 8.472656 Z M 13.667969 8.472656 "/>
</g>
</svg>
