<?xml version="1.0" encoding="UTF-8"?>
<svg xmlns="http://www.w3.org/2000/svg" xmlns:xlink="http://www.w3.org/1999/xlink" width="15pt" height="15pt" viewBox="0 0 15 15" version="1.1">
<g id="surface1">
<path style=" stroke:none;fill-rule:nonzero;fill:rgb(86.666667%,18.039216%,26.666667%);fill-opacity:1;" d="M 13.140625 8.988281 C 13.527344 9.421875 13.75 9.90625 13.75 10.417969 C 13.75 12.257812 10.953125 13.75 7.5 13.75 C 4.046875 13.75 1.25 12.257812 1.25 10.417969 C 1.25 9.90625 1.472656 9.421875 1.859375 8.988281 C 0.957031 9.617188 0.417969 10.398438 0.417969 11.25 C 0.417969 13.320312 3.589844 15 7.5 15 C 11.410156 15 14.582031 13.320312 14.582031 11.25 C 14.582031 10.398438 14.042969 9.617188 13.140625 8.988281 Z M 13.140625 8.988281 "/>
<path style=" stroke:none;fill-rule:nonzero;fill:rgb(86.666667%,18.039216%,26.666667%);fill-opacity:1;" d="M 3.75 11.457031 C 3.519531 11.457031 3.300781 11.332031 3.191406 11.113281 C 3.035156 10.804688 3.160156 10.429688 3.46875 10.273438 C 3.519531 10.25 4.792969 9.570312 4.792969 7.917969 C 4.792969 7.03125 4.308594 6.402344 3.792969 5.738281 C 3.261719 5.046875 2.707031 4.332031 2.707031 3.332031 C 2.707031 1.429688 3.683594 0.433594 3.722656 0.390625 C 3.96875 0.148438 4.363281 0.148438 4.609375 0.390625 C 4.851562 0.632812 4.851562 1.027344 4.613281 1.269531 C 4.578125 1.308594 3.957031 1.984375 3.957031 3.332031 C 3.957031 3.90625 4.339844 4.402344 4.78125 4.972656 C 5.34375 5.699219 6.042969 6.605469 6.042969 7.917969 C 6.042969 10.359375 4.113281 11.351562 4.03125 11.390625 C 3.941406 11.4375 3.84375 11.457031 3.75 11.457031 Z M 3.75 11.457031 "/>
<path style=" stroke:none;fill-rule:nonzero;fill:rgb(86.666667%,18.039216%,26.666667%);fill-opacity:1;" d="M 6.667969 11.457031 C 6.4375 11.457031 6.21875 11.332031 6.109375 11.113281 C 5.953125 10.804688 6.078125 10.429688 6.386719 10.273438 C 6.4375 10.25 7.707031 9.570312 7.707031 7.917969 C 7.707031 7.03125 7.222656 6.402344 6.710938 5.738281 C 6.175781 5.046875 5.625 4.332031 5.625 3.332031 C 5.625 1.429688 6.601562 0.433594 6.640625 0.390625 C 6.886719 0.148438 7.28125 0.148438 7.523438 0.390625 C 7.769531 0.632812 7.769531 1.027344 7.53125 1.269531 C 7.496094 1.308594 6.875 1.984375 6.875 3.332031 C 6.875 3.90625 7.257812 4.402344 7.699219 4.972656 C 8.261719 5.699219 8.957031 6.605469 8.957031 7.917969 C 8.957031 10.359375 7.027344 11.351562 6.945312 11.390625 C 6.855469 11.4375 6.761719 11.457031 6.667969 11.457031 Z M 6.667969 11.457031 "/>
<path style=" stroke:none;fill-rule:nonzero;fill:rgb(86.666667%,18.039216%,26.666667%);fill-opacity:1;" d="M 9.582031 11.457031 C 9.355469 11.457031 9.132812 11.332031 9.023438 11.113281 C 8.871094 10.804688 8.996094 10.429688 9.304688 10.273438 C 9.355469 10.25 10.625 9.570312 10.625 7.917969 C 10.625 7.03125 10.140625 6.402344 9.625 5.738281 C 9.09375 5.046875 8.542969 4.332031 8.542969 3.332031 C 8.542969 1.429688 9.515625 0.433594 9.558594 0.390625 C 9.800781 0.148438 10.199219 0.148438 10.441406 0.390625 C 10.683594 0.632812 10.6875 1.027344 10.445312 1.269531 C 10.410156 1.308594 9.792969 1.984375 9.792969 3.332031 C 9.792969 3.90625 10.171875 4.402344 10.617188 4.972656 C 11.175781 5.699219 11.875 6.605469 11.875 7.917969 C 11.875 10.359375 9.945312 11.351562 9.863281 11.390625 C 9.773438 11.4375 9.679688 11.457031 9.582031 11.457031 Z M 9.582031 11.457031 "/>
</g>
</svg>
