<?xml version="1.0" encoding="UTF-8"?>
<svg xmlns="http://www.w3.org/2000/svg" xmlns:xlink="http://www.w3.org/1999/xlink" width="15pt" height="15pt" viewBox="0 0 15 15" version="1.1">
<g id="surface1">
<path style=" stroke:none;fill-rule:nonzero;fill:rgb(24.313725%,44.705882%,11.372549%);fill-opacity:1;" d="M 12.5 12.082031 C 12.355469 12.082031 12.214844 12.007812 12.136719 11.875 L 10.375 8.964844 C 10.257812 8.765625 10.304688 8.515625 10.503906 8.402344 L 12.570312 7.152344 C 12.632812 7.117188 12.777344 7.082031 12.847656 7.082031 C 12.992188 7.082031 13.125 7.164062 13.203125 7.300781 L 14.496094 9.433594 L 14.566406 10.363281 C 14.679688 10.5625 14.167969 10.859375 13.964844 10.972656 L 12.707031 12.027344 C 12.640625 12.066406 12.570312 12.082031 12.5 12.082031 Z M 12.5 12.082031 "/>
<path style=" stroke:none;fill-rule:nonzero;fill:rgb(46.666667%,69.803922%,33.333333%);fill-opacity:1;" d="M 9.582031 13.332031 C 9.351562 13.332031 9.167969 13.148438 9.167969 12.917969 L 9.167969 10.417969 C 9.167969 10.1875 9.351562 10 9.582031 10 L 13.75 10 C 14.519531 10 14.394531 9.257812 14.394531 9.257812 C 14.394531 9.257812 14.53125 9.492188 14.550781 9.527344 C 14.6875 9.785156 14.777344 10.175781 14.566406 10.574219 L 13.277344 13.125 C 13.21875 13.246094 13.074219 13.332031 12.917969 13.332031 Z M 9.582031 13.332031 "/>
<path style=" stroke:none;fill-rule:nonzero;fill:rgb(46.666667%,69.803922%,33.333333%);fill-opacity:1;" d="M 9.167969 14.582031 C 9.058594 14.582031 8.953125 14.539062 8.871094 14.460938 L 6.371094 11.960938 C 6.210938 11.796875 6.210938 11.535156 6.371094 11.371094 L 8.871094 8.871094 C 8.953125 8.792969 9.058594 8.75 9.167969 8.75 C 9.21875 8.75 9.273438 8.761719 9.328125 8.78125 C 9.480469 8.847656 9.582031 9 9.582031 9.167969 L 9.582031 14.167969 C 9.582031 14.335938 9.480469 14.488281 9.328125 14.550781 C 9.273438 14.574219 9.21875 14.582031 9.167969 14.582031 Z M 9.167969 14.582031 "/>
<path style=" stroke:none;fill-rule:nonzero;fill:rgb(24.313725%,44.705882%,11.372549%);fill-opacity:1;" d="M 8.582031 1.375 C 8.644531 1.503906 8.644531 1.664062 8.558594 1.792969 L 6.769531 4.683594 C 6.644531 4.878906 6.398438 4.949219 6.207031 4.824219 L 4.15625 3.550781 C 4.09375 3.511719 4 3.398438 3.96875 3.335938 C 3.902344 3.207031 3.914062 3.050781 4 2.921875 L 5.3125 0.796875 L 6.109375 0.316406 C 6.238281 0.121094 6.730469 0.445312 6.925781 0.574219 L 8.4375 1.214844 C 8.5 1.257812 8.546875 1.3125 8.582031 1.375 Z M 8.582031 1.375 "/>
<path style=" stroke:none;fill-rule:nonzero;fill:rgb(46.666667%,69.803922%,33.333333%);fill-opacity:1;" d="M 11.019531 3.40625 C 11.121094 3.613281 11.042969 3.863281 10.835938 3.96875 L 8.609375 5.101562 C 8.402344 5.207031 8.152344 5.125 8.046875 4.921875 L 6.15625 1.207031 C 5.804688 0.519531 5.203125 0.96875 5.203125 0.96875 C 5.203125 0.96875 5.347656 0.742188 5.371094 0.707031 C 5.539062 0.46875 5.84375 0.210938 6.296875 0.21875 L 9.152344 0.207031 C 9.289062 0.207031 9.433594 0.296875 9.503906 0.4375 Z M 11.019531 3.40625 "/>
<path style=" stroke:none;fill-rule:nonzero;fill:rgb(46.666667%,69.803922%,33.333333%);fill-opacity:1;" d="M 12.320312 3.210938 C 12.371094 3.308594 12.378906 3.421875 12.347656 3.527344 L 11.253906 6.890625 C 11.183594 7.109375 10.949219 7.230469 10.730469 7.160156 L 7.367188 6.066406 C 7.257812 6.03125 7.171875 5.953125 7.125 5.859375 C 7.097656 5.8125 7.082031 5.757812 7.078125 5.703125 C 7.066406 5.535156 7.15625 5.375 7.304688 5.296875 L 11.761719 3.027344 C 11.910156 2.953125 12.09375 2.972656 12.21875 3.082031 C 12.261719 3.117188 12.296875 3.164062 12.320312 3.210938 Z M 12.320312 3.210938 "/>
<path style=" stroke:none;fill-rule:nonzero;fill:rgb(24.313725%,44.705882%,11.372549%);fill-opacity:1;" d="M 1.40625 10.226562 C 1.480469 10.101562 1.617188 10.023438 1.773438 10.027344 L 5.175781 10.027344 C 5.40625 10.035156 5.59375 10.203125 5.589844 10.433594 L 5.582031 12.847656 C 5.582031 12.921875 5.535156 13.0625 5.5 13.121094 C 5.421875 13.246094 5.28125 13.316406 5.128906 13.3125 L 2.632812 13.308594 L 1.800781 12.882812 C 1.570312 12.878906 1.585938 12.285156 1.59375 12.058594 L 1.347656 10.429688 C 1.347656 10.355469 1.371094 10.285156 1.40625 10.226562 Z M 1.40625 10.226562 "/>
<path style=" stroke:none;fill-rule:nonzero;fill:rgb(46.666667%,69.803922%,33.333333%);fill-opacity:1;" d="M 1.855469 7.085938 C 1.972656 6.886719 2.230469 6.824219 2.425781 6.945312 L 4.5625 8.246094 C 4.761719 8.363281 4.820312 8.621094 4.703125 8.816406 L 2.535156 12.375 C 2.136719 13.035156 2.835938 13.3125 2.835938 13.3125 C 2.835938 13.3125 2.566406 13.308594 2.523438 13.304688 C 2.234375 13.289062 1.851562 13.164062 1.625 12.777344 L 0.113281 10.351562 C 0.0429688 10.234375 0.0390625 10.066406 0.121094 9.933594 Z M 1.855469 7.085938 "/>
<path style=" stroke:none;fill-rule:nonzero;fill:rgb(46.666667%,69.803922%,33.333333%);fill-opacity:1;" d="M 1.003906 6.078125 C 1.058594 5.984375 1.152344 5.917969 1.261719 5.890625 L 4.695312 5.054688 C 4.917969 5 5.144531 5.136719 5.199219 5.359375 L 6.035156 8.792969 C 6.0625 8.90625 6.042969 9.015625 5.984375 9.109375 C 5.957031 9.15625 5.921875 9.195312 5.875 9.230469 C 5.742188 9.328125 5.558594 9.335938 5.414062 9.25 L 1.144531 6.652344 C 1 6.5625 0.921875 6.398438 0.949219 6.230469 C 0.957031 6.175781 0.976562 6.125 1.003906 6.078125 Z M 1.003906 6.078125 "/>
</g>
</svg>
