<?xml version="1.0" encoding="UTF-8"?>
<svg xmlns="http://www.w3.org/2000/svg" xmlns:xlink="http://www.w3.org/1999/xlink" width="15pt" height="15pt" viewBox="0 0 15 15" version="1.1">
<g id="surface1">
<path style=" stroke:none;fill-rule:nonzero;fill:rgb(23.137255%,58.039216%,85.098039%);fill-opacity:1;" d="M 15 7.5 C 15 11.640625 11.640625 15 7.5 15 C 3.359375 15 0 11.640625 0 7.5 C 0 3.359375 3.359375 0 7.5 0 C 11.640625 0 15 3.359375 15 7.5 Z M 15 7.5 "/>
<path style=" stroke:none;fill-rule:nonzero;fill:rgb(100%,100%,100%);fill-opacity:1;" d="M 10.652344 4.707031 C 9.769531 4.707031 8.902344 5.257812 8.234375 5.835938 C 8.488281 6.113281 8.660156 6.335938 8.714844 6.40625 C 8.785156 6.5 8.890625 6.628906 9.019531 6.773438 C 9.535156 6.320312 10.140625 5.921875 10.652344 5.921875 C 11.523438 5.921875 12.230469 6.628906 12.230469 7.5 C 12.230469 8.371094 11.523438 9.078125 10.652344 9.078125 C 9.679688 9.078125 8.367188 7.640625 7.984375 7.132812 C 7.796875 6.886719 6.101562 4.707031 4.347656 4.707031 C 2.808594 4.707031 1.554688 5.960938 1.554688 7.5 C 1.554688 9.039062 2.808594 10.292969 4.347656 10.292969 C 5.203125 10.292969 6.042969 9.773438 6.703125 9.210938 C 6.425781 8.910156 6.238281 8.667969 6.183594 8.59375 C 6.117188 8.511719 6.027344 8.402344 5.921875 8.277344 C 5.421875 8.710938 4.839844 9.078125 4.347656 9.078125 C 3.476562 9.078125 2.769531 8.371094 2.769531 7.5 C 2.769531 6.628906 3.476562 5.921875 4.347656 5.921875 C 5.320312 5.921875 6.632812 7.359375 7.015625 7.867188 C 7.203125 8.113281 8.898438 10.292969 10.652344 10.292969 C 12.191406 10.292969 13.445312 9.039062 13.445312 7.5 C 13.445312 5.960938 12.191406 4.707031 10.652344 4.707031 Z M 10.652344 4.707031 "/>
</g>
</svg>
