<?xml version="1.0" encoding="UTF-8"?>
<svg xmlns="http://www.w3.org/2000/svg" xmlns:xlink="http://www.w3.org/1999/xlink" width="15pt" height="15pt" viewBox="0 0 15 15" version="1.1">
<g id="surface1">
<path style=" stroke:none;fill-rule:nonzero;fill:rgb(13.333333%,40%,60%);fill-opacity:1;" d="M 15 13.332031 C 15 14.253906 14.253906 15 13.332031 15 L 1.667969 15 C 0.746094 15 0 14.253906 0 13.332031 L 0 1.667969 C 0 0.746094 0.746094 0 1.667969 0 L 13.332031 0 C 14.253906 0 15 0.746094 15 1.667969 Z M 15 13.332031 "/>
<path style=" stroke:none;fill-rule:nonzero;fill:rgb(100%,100%,100%);fill-opacity:1;" d="M 12.5 2.917969 C 12.5 3.605469 11.941406 4.167969 11.25 4.167969 C 10.558594 4.167969 10 3.605469 10 2.917969 C 10 2.226562 10.558594 1.667969 11.25 1.667969 C 11.941406 1.667969 12.5 2.226562 12.5 2.917969 Z M 12.5 2.917969 "/>
<path style=" stroke:none;fill-rule:nonzero;fill:rgb(100%,100%,100%);fill-opacity:1;" d="M 5.441406 5.441406 L 6.429688 4.457031 L 8.035156 4.9375 L 6.9375 6.125 C 7.671875 6.414062 8.304688 6.90625 8.769531 7.53125 L 10.859375 5.441406 C 11.015625 5.285156 11.078125 5.058594 11.023438 4.847656 C 10.96875 4.632812 10.804688 4.464844 10.597656 4.402344 L 6.429688 3.152344 C 6.210938 3.085938 5.96875 3.144531 5.808594 3.308594 L 4.558594 4.558594 C 4.3125 4.800781 4.3125 5.199219 4.558594 5.441406 C 4.800781 5.6875 5.199219 5.6875 5.441406 5.441406 Z M 12.136719 7.503906 C 12.003906 7.355469 11.808594 7.273438 11.609375 7.292969 L 8.78125 7.550781 C 9.046875 7.914062 9.253906 8.316406 9.390625 8.75 L 10.871094 8.617188 L 10.222656 11.53125 C 10.148438 11.867188 10.359375 12.203125 10.699219 12.277344 C 10.742188 12.285156 10.789062 12.292969 10.832031 12.292969 C 11.121094 12.292969 11.378906 12.09375 11.441406 11.800781 L 12.277344 8.050781 C 12.320312 7.855469 12.265625 7.652344 12.136719 7.503906 Z M 5.417969 6.667969 C 3.574219 6.667969 2.082031 8.160156 2.082031 10 C 2.082031 11.839844 3.574219 13.332031 5.417969 13.332031 C 7.257812 13.332031 8.75 11.839844 8.75 10 C 8.75 8.160156 7.257812 6.667969 5.417969 6.667969 Z M 5.417969 12.5 C 4.035156 12.5 2.917969 11.378906 2.917969 10 C 2.917969 8.621094 4.035156 7.5 5.417969 7.5 C 6.796875 7.5 7.917969 8.621094 7.917969 10 C 7.917969 11.378906 6.796875 12.5 5.417969 12.5 Z M 5.417969 12.5 "/>
</g>
</svg>
