<?xml version="1.0" encoding="UTF-8"?>
<svg xmlns="http://www.w3.org/2000/svg" xmlns:xlink="http://www.w3.org/1999/xlink" width="15pt" height="15pt" viewBox="0 0 15 15" version="1.1">
<g id="surface1">
<path style=" stroke:none;fill-rule:nonzero;fill:rgb(83.921569%,47.45098%,3.529412%);fill-opacity:1;" d="M 2.839844 13.867188 C 2.351562 14.351562 1.582031 14.375 1.121094 13.917969 C 0.664062 13.457031 0.6875 12.683594 1.171875 12.199219 L 10.867188 2.503906 C 11.351562 2.019531 12.125 1.996094 12.582031 2.457031 C 13.042969 2.914062 13.019531 3.6875 12.53125 4.171875 Z M 2.839844 13.867188 "/>
<path style=" stroke:none;fill-rule:nonzero;fill:rgb(83.921569%,47.45098%,3.529412%);fill-opacity:1;" d="M 13.578125 3.191406 C 13.902344 2.863281 13.902344 2.335938 13.578125 2.011719 L 12.988281 1.421875 C 12.664062 1.097656 12.136719 1.097656 11.808594 1.421875 C 11.484375 1.746094 11.484375 2.277344 11.808594 2.601562 L 12.398438 3.191406 C 12.722656 3.515625 13.253906 3.515625 13.578125 3.191406 Z M 13.578125 3.191406 "/>
<path style=" stroke:none;fill-rule:nonzero;fill:rgb(83.921569%,47.45098%,3.529412%);fill-opacity:1;" d="M 13.578125 3.191406 C 13.902344 2.863281 13.902344 2.335938 13.578125 2.011719 L 12.988281 1.421875 C 12.664062 1.097656 12.136719 1.097656 11.808594 1.421875 C 11.484375 1.746094 11.484375 2.277344 11.808594 2.601562 L 12.398438 3.191406 C 12.722656 3.515625 13.253906 3.515625 13.578125 3.191406 Z M 13.578125 3.191406 "/>
<path style=" stroke:none;fill-rule:nonzero;fill:rgb(40%,45.882353%,49.803922%);fill-opacity:1;" d="M 14.910156 5.59375 C 14.808594 4.859375 14.753906 3.777344 13.578125 2.601562 L 11.21875 0.242188 C 10.894531 -0.0820312 10.367188 -0.0820312 10.042969 0.242188 L 8.570312 1.714844 C 8.242188 2.042969 8.242188 2.570312 8.570312 2.894531 L 11.21875 5.546875 L 12.105469 6.429688 L 12.691406 7.019531 C 13.121094 7.449219 14.074219 8.402344 14.660156 7.816406 C 14.980469 7.496094 15.058594 6.625 14.910156 5.59375 Z M 14.910156 5.59375 "/>
<path style=" stroke:none;fill-rule:nonzero;fill:rgb(95.686275%,56.470588%,4.705882%);fill-opacity:1;" d="M 12.160156 13.867188 C 12.644531 14.351562 13.417969 14.375 13.878906 13.917969 C 14.335938 13.457031 14.3125 12.683594 13.828125 12.199219 L 4.132812 2.503906 C 3.648438 2.019531 2.875 1.996094 2.417969 2.457031 C 1.957031 2.914062 1.980469 3.6875 2.46875 4.171875 Z M 12.160156 13.867188 "/>
<path style=" stroke:none;fill-rule:nonzero;fill:rgb(95.686275%,56.470588%,4.705882%);fill-opacity:1;" d="M 1.421875 3.191406 C 1.097656 2.863281 1.097656 2.335938 1.421875 2.011719 L 2.011719 1.421875 C 2.335938 1.097656 2.863281 1.097656 3.191406 1.421875 C 3.515625 1.746094 3.515625 2.277344 3.191406 2.601562 L 2.601562 3.191406 C 2.277344 3.515625 1.746094 3.515625 1.421875 3.191406 Z M 1.421875 3.191406 "/>
<path style=" stroke:none;fill-rule:nonzero;fill:rgb(40%,45.882353%,49.803922%);fill-opacity:1;" d="M 1.71875 6.433594 C 2.042969 6.757812 2.570312 6.757812 2.894531 6.433594 L 6.429688 2.894531 C 6.757812 2.570312 6.757812 2.042969 6.429688 1.71875 L 4.957031 0.246094 C 4.632812 -0.0820312 4.105469 -0.0820312 3.78125 0.246094 L 0.246094 3.78125 C -0.0820312 4.105469 -0.0820312 4.632812 0.246094 4.957031 Z M 1.71875 6.433594 "/>
</g>
</svg>
