<?xml version="1.0" encoding="UTF-8"?>
<svg xmlns="http://www.w3.org/2000/svg" xmlns:xlink="http://www.w3.org/1999/xlink" width="15pt" height="15pt" viewBox="0 0 15 15" version="1.1">
<g id="surface1">
<path style=" stroke:none;fill-rule:nonzero;fill:rgb(13.333333%,40%,60%);fill-opacity:1;" d="M 12.707031 7.738281 L 10.832031 10.417969 L 11.90625 10.417969 C 11.433594 12.078125 10.054688 13.355469 8.332031 13.671875 L 8.332031 7.082031 L 9.582031 7.082031 C 10.042969 7.082031 10.417969 6.710938 10.417969 6.25 C 10.417969 5.789062 10.042969 5.417969 9.582031 5.417969 L 8.332031 5.417969 L 8.332031 4.855469 L 6.667969 4.855469 L 6.667969 5.417969 L 5.417969 5.417969 C 4.957031 5.417969 4.582031 5.789062 4.582031 6.25 C 4.582031 6.710938 4.957031 7.082031 5.417969 7.082031 L 6.667969 7.082031 L 6.667969 13.671875 C 4.945312 13.355469 3.566406 12.078125 3.09375 10.417969 L 4.167969 10.417969 L 2.292969 7.738281 L 0.417969 10.417969 L 1.804688 10.417969 C 2.378906 13.035156 4.707031 15 7.5 15 C 10.292969 15 12.621094 13.035156 13.195312 10.417969 L 14.582031 10.417969 Z M 12.707031 7.738281 "/>
<path style=" stroke:none;fill-rule:nonzero;fill:rgb(13.333333%,40%,60%);fill-opacity:1;" d="M 7.5 0 C 6.121094 0 5 1.121094 5 2.5 C 5 3.878906 6.121094 5 7.5 5 C 8.878906 5 10 3.878906 10 2.5 C 10 1.121094 8.878906 0 7.5 0 Z M 7.5 3.75 C 6.808594 3.75 6.25 3.191406 6.25 2.5 C 6.25 1.808594 6.808594 1.25 7.5 1.25 C 8.191406 1.25 8.75 1.808594 8.75 2.5 C 8.75 3.191406 8.191406 3.75 7.5 3.75 Z M 7.5 3.75 "/>
</g>
</svg>
