<?xml version="1.0" encoding="UTF-8"?>
<svg xmlns="http://www.w3.org/2000/svg" xmlns:xlink="http://www.w3.org/1999/xlink" width="15pt" height="15pt" viewBox="0 0 15 15" version="1.1">
<g id="surface1">
<path style=" stroke:none;fill-rule:nonzero;fill:rgb(80%,83.921569%,86.666667%);fill-opacity:1;" d="M 10 12.082031 L 12.082031 10 L 2.5 0.417969 L 0.417969 0.417969 L 0.417969 2.5 Z M 10 12.082031 "/>
<path style=" stroke:none;fill-rule:nonzero;fill:rgb(60.392157%,66.666667%,70.588235%);fill-opacity:1;" d="M 0.417969 0.417969 L 0.417969 2.5 L 10 12.082031 L 11.042969 11.042969 Z M 0.417969 0.417969 "/>
<path style=" stroke:none;fill-rule:nonzero;fill:rgb(39.215686%,12.941176%,8.627451%);fill-opacity:1;" d="M 13.394531 14.179688 C 13.71875 14.503906 14.503906 13.71875 14.179688 13.390625 L 12.019531 10.839844 C 11.691406 10.515625 11.253906 10.425781 11.035156 10.640625 L 10.644531 11.035156 C 10.425781 11.253906 10.515625 11.691406 10.839844 12.015625 Z M 13.394531 14.179688 "/>
<path style=" stroke:none;fill-rule:nonzero;fill:rgb(74.901961%,41.176471%,32.156863%);fill-opacity:1;" d="M 9.367188 12.605469 C 9.609375 12.851562 10.007812 12.851562 10.25 12.605469 L 12.609375 10.25 C 12.851562 10.007812 12.851562 9.609375 12.609375 9.367188 C 12.363281 9.121094 11.96875 9.121094 11.722656 9.367188 L 9.367188 11.722656 C 9.121094 11.96875 9.121094 12.363281 9.367188 12.605469 Z M 9.367188 12.605469 "/>
<path style=" stroke:none;fill-rule:nonzero;fill:rgb(98.823529%,67.058824%,25.098039%);fill-opacity:1;" d="M 13.050781 14.816406 C 13.292969 15.0625 13.6875 15.0625 13.933594 14.816406 L 14.816406 13.933594 C 15.0625 13.6875 15.0625 13.292969 14.816406 13.050781 C 14.574219 12.804688 14.175781 12.804688 13.933594 13.050781 L 13.050781 13.933594 C 12.804688 14.175781 12.804688 14.574219 13.050781 14.816406 Z M 13.050781 14.816406 "/>
<path style=" stroke:none;fill-rule:nonzero;fill:rgb(80%,83.921569%,86.666667%);fill-opacity:1;" d="M 5 12.082031 L 2.917969 10 L 12.5 0.417969 L 14.582031 0.417969 L 14.582031 2.5 Z M 5 12.082031 "/>
<path style=" stroke:none;fill-rule:nonzero;fill:rgb(60.392157%,66.666667%,70.588235%);fill-opacity:1;" d="M 5 12.082031 L 14.582031 2.5 L 14.582031 0.417969 L 3.957031 11.042969 Z M 5 12.082031 "/>
<path style=" stroke:none;fill-rule:nonzero;fill:rgb(39.215686%,12.941176%,8.627451%);fill-opacity:1;" d="M 1.605469 14.179688 C 1.28125 14.503906 0.496094 13.71875 0.820312 13.390625 L 2.980469 10.839844 C 3.308594 10.515625 3.746094 10.425781 3.964844 10.640625 L 4.355469 11.035156 C 4.574219 11.253906 4.484375 11.691406 4.160156 12.015625 Z M 1.605469 14.179688 "/>
<path style=" stroke:none;fill-rule:nonzero;fill:rgb(74.901961%,41.176471%,32.156863%);fill-opacity:1;" d="M 5.632812 12.605469 C 5.390625 12.851562 4.992188 12.851562 4.75 12.605469 L 2.394531 10.25 C 2.148438 10.007812 2.148438 9.609375 2.394531 9.367188 C 2.636719 9.121094 3.03125 9.121094 3.277344 9.367188 L 5.632812 11.722656 C 5.878906 11.96875 5.878906 12.363281 5.632812 12.605469 Z M 5.632812 12.605469 "/>
<path style=" stroke:none;fill-rule:nonzero;fill:rgb(98.823529%,67.058824%,25.098039%);fill-opacity:1;" d="M 1.949219 14.816406 C 1.707031 15.0625 1.3125 15.0625 1.066406 14.816406 L 0.183594 13.933594 C -0.0625 13.6875 -0.0625 13.292969 0.183594 13.050781 C 0.425781 12.804688 0.824219 12.804688 1.066406 13.050781 L 1.949219 13.933594 C 2.195312 14.175781 2.195312 14.574219 1.949219 14.816406 Z M 1.949219 14.816406 "/>
</g>
</svg>
