<?xml version="1.0" encoding="UTF-8"?>
<svg xmlns="http://www.w3.org/2000/svg" xmlns:xlink="http://www.w3.org/1999/xlink" width="15pt" height="15pt" viewBox="0 0 15 15" version="1.1">
<g id="surface1">
<path style=" stroke:none;fill-rule:nonzero;fill:rgb(57.254902%,40%,80%);fill-opacity:1;" d="M 15 13.332031 C 15 14.253906 14.253906 15 13.332031 15 L 1.667969 15 C 0.746094 15 0 14.253906 0 13.332031 L 0 1.667969 C 0 0.746094 0.746094 0 1.667969 0 L 13.332031 0 C 14.253906 0 15 0.746094 15 1.667969 Z M 15 13.332031 "/>
<path style=" stroke:none;fill-rule:nonzero;fill:rgb(100%,100%,100%);fill-opacity:1;" d="M 8.542969 1.875 C 8.542969 2.449219 8.074219 2.917969 7.5 2.917969 C 6.925781 2.917969 6.457031 2.449219 6.457031 1.875 C 6.457031 1.300781 6.925781 0.832031 7.5 0.832031 C 8.074219 0.832031 8.542969 1.300781 8.542969 1.875 Z M 8.542969 1.875 "/>
<path style=" stroke:none;fill-rule:nonzero;fill:rgb(100%,100%,100%);fill-opacity:1;" d="M 7.28125 7.613281 C 8.578125 7.523438 11.277344 7.335938 11.277344 6.113281 C 11.277344 4.867188 8.636719 4.773438 7.507812 4.734375 L 7.378906 4.730469 C 3.082031 4.546875 3.820312 3.519531 4.226562 3.519531 C 4.339844 3.621094 4.722656 3.914062 5.355469 3.914062 C 5.574219 3.914062 5.800781 3.878906 6.03125 3.8125 C 6.070312 3.800781 6.097656 3.765625 6.101562 3.726562 C 6.101562 3.6875 6.078125 3.652344 6.039062 3.632812 L 5.429688 3.394531 L 6.375 3.207031 C 6.410156 3.199219 6.4375 3.179688 6.449219 3.148438 C 6.460938 3.121094 6.457031 3.085938 6.4375 3.0625 C 6.417969 3.035156 5.910156 2.308594 5.042969 2.308594 C 3.855469 2.308594 2.898438 2.929688 2.898438 3.992188 C 2.898438 5.28125 5.949219 5.640625 7.316406 5.640625 C 9.929688 5.640625 10.058594 5.992188 10.058594 6.0625 C 10.058594 6.429688 9.132812 6.652344 7.300781 6.722656 C 5.347656 6.796875 4.082031 7.347656 4.082031 8.125 C 4.082031 8.859375 5.03125 9.296875 7.25 9.589844 C 8.257812 9.71875 9.464844 9.941406 9.464844 10.25 C 9.464844 10.253906 9.359375 10.660156 7.285156 10.917969 C 5.347656 11.160156 5.097656 11.617188 5.097656 11.988281 C 5.097656 12.488281 5.804688 12.828125 7.324219 13.0625 C 8.480469 13.242188 8.804688 13.652344 8.960938 13.851562 C 9.027344 13.933594 9.078125 14 9.171875 14 C 9.179688 14 9.199219 14 9.207031 13.996094 C 9.292969 13.976562 9.339844 13.886719 9.335938 13.75 C 9.332031 13.652344 9.238281 12.769531 7.449219 12.5 C 6.335938 12.332031 6.25 12.0625 6.25 11.984375 C 6.25 11.945312 6.300781 11.742188 7.273438 11.605469 C 7.40625 11.597656 10.589844 11.34375 10.589844 10.222656 C 10.589844 9.300781 8.730469 8.964844 7.089844 8.667969 C 6.261719 8.515625 5.234375 8.332031 5.234375 8.136719 C 5.234375 7.960938 5.589844 7.730469 7.28125 7.613281 Z M 7.28125 7.613281 "/>
<path style=" stroke:none;fill-rule:nonzero;fill:rgb(57.254902%,40%,80%);fill-opacity:1;" d="M 5.445312 2.875 C 5.445312 2.773438 5.304688 2.691406 5.128906 2.691406 C 4.953125 2.691406 4.8125 2.773438 4.8125 2.875 C 4.8125 2.976562 4.953125 3.058594 5.128906 3.058594 C 5.304688 3.058594 5.445312 2.976562 5.445312 2.875 Z M 5.445312 2.875 "/>
<path style=" stroke:none;fill-rule:nonzero;fill:rgb(57.254902%,40%,80%);fill-opacity:1;" d="M 6.667969 10.253906 L 7.082031 10.253906 L 7.082031 11.867188 L 6.667969 11.867188 Z M 7.917969 10.253906 L 8.332031 10.253906 L 8.332031 11.867188 L 7.917969 11.867188 Z M 6.667969 6.28125 L 7.082031 6.28125 L 7.082031 7.894531 L 6.667969 7.894531 Z M 7.917969 6.28125 L 8.332031 6.28125 L 8.332031 7.894531 L 7.917969 7.894531 Z M 7.917969 6.28125 "/>
<path style=" stroke:none;fill-rule:nonzero;fill:rgb(100%,100%,100%);fill-opacity:1;" d="M 7.082031 8.253906 L 7.917969 8.410156 L 7.917969 4.851562 L 7.082031 4.816406 Z M 7.917969 9.078125 L 7.082031 8.925781 L 7.082031 12.03125 C 7.308594 12.058594 7.683594 12.148438 7.917969 12.207031 Z M 7.082031 12.640625 L 7.082031 13.75 C 7.082031 13.980469 7.269531 14.167969 7.5 14.167969 C 7.730469 14.167969 7.917969 13.980469 7.917969 13.75 L 7.917969 12.808594 C 7.554688 12.726562 7.324219 12.695312 7.082031 12.640625 Z M 7.917969 4.347656 L 7.917969 2.222656 C 7.917969 1.992188 7.730469 1.804688 7.5 1.804688 C 7.269531 1.804688 7.082031 1.992188 7.082031 2.222656 L 7.082031 4.3125 Z M 7.917969 4.347656 "/>
</g>
</svg>
