<?xml version="1.0" encoding="UTF-8"?>
<svg xmlns="http://www.w3.org/2000/svg" xmlns:xlink="http://www.w3.org/1999/xlink" width="15pt" height="15pt" viewBox="0 0 15 15" version="1.1">
<g id="surface1">
<path style=" stroke:none;fill-rule:nonzero;fill:rgb(40.392157%,45.882353%,49.803922%);fill-opacity:1;" d="M 6.667969 14.324219 C 6.667969 14.554688 6.480469 14.738281 6.25 14.738281 C 6.019531 14.738281 5.832031 14.554688 5.832031 14.324219 L 5.832031 10.832031 C 5.832031 10.601562 6.019531 10.417969 6.25 10.417969 C 6.480469 10.417969 6.667969 10.601562 6.667969 10.832031 Z M 6.667969 14.324219 "/>
<path style=" stroke:none;fill-rule:nonzero;fill:rgb(88.235294%,90.980392%,92.941176%);fill-opacity:1;" d="M 12.203125 6.511719 C 12.203125 9.703125 9.613281 12.289062 6.421875 12.289062 C 3.226562 12.289062 0.640625 9.703125 0.640625 6.511719 C 0.640625 3.316406 3.226562 0.730469 6.421875 0.730469 C 9.613281 0.730469 12.203125 3.316406 12.203125 6.511719 Z M 12.203125 6.511719 "/>
<path style=" stroke:none;fill-rule:nonzero;fill:rgb(31.372549%,64.705882%,90.196078%);fill-opacity:1;" d="M 1.496094 6.722656 C 1.59375 9.363281 3.757812 11.476562 6.421875 11.476562 C 9.082031 11.476562 11.25 9.363281 11.34375 6.722656 Z M 1.496094 6.722656 "/>
<path style=" stroke:none;fill-rule:nonzero;fill:rgb(40.392157%,45.882353%,49.803922%);fill-opacity:1;" d="M 12.5 10 C 12.5 10.460938 12.125 10.832031 11.667969 10.832031 L 1.25 10.832031 C 0.789062 10.832031 0.417969 10.460938 0.417969 10 C 0.417969 9.539062 0.789062 9.167969 1.25 9.167969 L 11.667969 9.167969 C 12.125 9.167969 12.5 9.539062 12.5 10 Z M 12.5 10 "/>
<path style=" stroke:none;fill-rule:nonzero;fill:rgb(40.392157%,45.882353%,49.803922%);fill-opacity:1;" d="M 1.09375 14.667969 C 1.015625 14.886719 0.777344 15 0.558594 14.921875 C 0.34375 14.84375 0.230469 14.605469 0.308594 14.390625 L 1.691406 10.53125 C 1.765625 10.3125 2.003906 10.199219 2.222656 10.277344 C 2.4375 10.355469 2.550781 10.59375 2.472656 10.808594 Z M 11.824219 14.667969 C 11.902344 14.886719 12.140625 15 12.355469 14.921875 C 12.574219 14.84375 12.6875 14.605469 12.609375 14.390625 L 11.210938 10.496094 C 11.132812 10.277344 10.894531 10.164062 10.675781 10.242188 C 10.460938 10.320312 10.347656 10.558594 10.425781 10.777344 Z M 11.824219 14.667969 "/>
<path style=" stroke:none;fill-rule:nonzero;fill:rgb(88.235294%,90.980392%,92.941176%);fill-opacity:1;" d="M 7.917969 0.945312 C 7.917969 0.945312 13.484375 2.894531 14.074219 3.085938 C 15.625 3.585938 14.984375 5.261719 13.914062 4.996094 C 11.796875 4.464844 7.917969 3.300781 7.492188 3.300781 C 7.0625 3.300781 7.917969 0.945312 7.917969 0.945312 Z M 7.917969 0.945312 "/>
<path style=" stroke:none;fill-rule:nonzero;fill:rgb(60.392157%,66.666667%,70.588235%);fill-opacity:1;" d="M 12.082031 9.582031 C 12.082031 9.8125 11.898438 10 11.667969 10 L 1.25 10 C 1.019531 10 0.832031 9.8125 0.832031 9.582031 C 0.832031 9.351562 1.019531 9.167969 1.25 9.167969 L 11.667969 9.167969 C 11.898438 9.167969 12.082031 9.351562 12.082031 9.582031 Z M 12.082031 9.582031 "/>
<path style=" stroke:none;fill-rule:nonzero;fill:rgb(23.137255%,58.039216%,85.098039%);fill-opacity:1;" d="M 11.34375 6.722656 C 11.34375 6.351562 9.140625 6.046875 6.421875 6.046875 C 3.703125 6.046875 1.496094 6.351562 1.496094 6.722656 C 1.496094 7.097656 3.703125 7.402344 6.421875 7.402344 C 9.140625 7.402344 11.34375 7.097656 11.34375 6.722656 Z M 11.34375 6.722656 "/>
<path style=" stroke:none;fill-rule:nonzero;fill:rgb(66.666667%,72.156863%,76.078431%);fill-opacity:1;" d="M 14.335938 3.621094 C 14.121094 3.558594 13.878906 3.753906 13.796875 4.050781 C 13.710938 4.347656 13.820312 4.636719 14.035156 4.695312 C 14.25 4.757812 14.496094 4.566406 14.578125 4.269531 C 14.660156 3.972656 14.554688 3.679688 14.335938 3.621094 Z M 14.335938 3.621094 "/>
</g>
</svg>
