<?xml version="1.0" encoding="UTF-8"?>
<svg xmlns="http://www.w3.org/2000/svg" xmlns:xlink="http://www.w3.org/1999/xlink" width="15pt" height="15pt" viewBox="0 0 15 15" version="1.1">
<g id="surface1">
<path style=" stroke:none;fill-rule:nonzero;fill:rgb(40%,45.882353%,49.803922%);fill-opacity:1;" d="M 14.167969 6.25 L 12.765625 6.25 C 12.628906 5.679688 12.40625 5.144531 12.105469 4.660156 L 13.097656 3.667969 C 13.421875 3.34375 13.421875 2.816406 13.097656 2.492188 L 12.507812 1.902344 C 12.183594 1.578125 11.65625 1.578125 11.332031 1.902344 L 10.339844 2.894531 C 9.855469 2.59375 9.320312 2.371094 8.75 2.234375 L 8.75 0.832031 C 8.75 0.375 8.375 0 7.917969 0 L 7.082031 0 C 6.625 0 6.25 0.375 6.25 0.832031 L 6.25 2.234375 C 5.679688 2.371094 5.144531 2.59375 4.660156 2.894531 L 3.671875 1.902344 C 3.34375 1.578125 2.816406 1.578125 2.492188 1.902344 L 1.902344 2.492188 C 1.578125 2.816406 1.578125 3.34375 1.902344 3.671875 L 2.894531 4.660156 C 2.59375 5.144531 2.371094 5.679688 2.234375 6.25 L 0.832031 6.25 C 0.375 6.25 0 6.625 0 7.082031 L 0 7.917969 C 0 8.375 0.375 8.75 0.832031 8.75 L 2.234375 8.75 C 2.371094 9.320312 2.59375 9.855469 2.894531 10.339844 L 1.902344 11.328125 C 1.578125 11.65625 1.578125 12.183594 1.902344 12.507812 L 2.492188 13.097656 C 2.816406 13.421875 3.34375 13.421875 3.671875 13.097656 L 4.660156 12.105469 C 5.144531 12.40625 5.679688 12.628906 6.25 12.765625 L 6.25 14.167969 C 6.25 14.625 6.625 15 7.082031 15 L 7.917969 15 C 8.378906 15 8.75 14.625 8.75 14.167969 L 8.75 12.765625 C 9.320312 12.628906 9.855469 12.40625 10.339844 12.105469 L 11.332031 13.097656 C 11.65625 13.421875 12.183594 13.421875 12.507812 13.097656 L 13.097656 12.507812 C 13.421875 12.183594 13.421875 11.65625 13.097656 11.328125 L 12.105469 10.339844 C 12.40625 9.855469 12.628906 9.320312 12.765625 8.75 L 14.167969 8.75 C 14.625 8.75 15 8.375 15 7.917969 L 15 7.082031 C 15 6.625 14.625 6.25 14.167969 6.25 Z M 7.5 10.832031 C 5.660156 10.832031 4.167969 9.339844 4.167969 7.5 C 4.167969 5.660156 5.660156 4.167969 7.5 4.167969 C 9.339844 4.167969 10.832031 5.660156 10.832031 7.5 C 10.832031 9.339844 9.339844 10.832031 7.5 10.832031 Z M 7.5 10.832031 "/>
</g>
</svg>
