<?xml version="1.0" encoding="UTF-8"?>
<svg xmlns="http://www.w3.org/2000/svg" xmlns:xlink="http://www.w3.org/1999/xlink" width="15pt" height="15pt" viewBox="0 0 15 15" version="1.1">
<g id="surface1">
<path style=" stroke:none;fill-rule:nonzero;fill:rgb(57.254902%,40%,80%);fill-opacity:1;" d="M 15 13.332031 C 15 14.253906 14.253906 15 13.332031 15 L 1.667969 15 C 0.746094 15 0 14.253906 0 13.332031 L 0 1.667969 C 0 0.746094 0.746094 0 1.667969 0 L 13.332031 0 C 14.253906 0 15 0.746094 15 1.667969 Z M 15 13.332031 "/>
<path style=" stroke:none;fill-rule:nonzero;fill:rgb(100%,100%,100%);fill-opacity:1;" d="M 11.027344 7.5 C 12.230469 6.445312 12.9375 5.367188 12.523438 4.640625 C 12.316406 4.273438 11.886719 4.089844 11.253906 4.089844 C 10.710938 4.089844 10.019531 4.230469 9.253906 4.484375 C 8.9375 2.894531 8.347656 1.71875 7.5 1.71875 C 6.652344 1.71875 6.0625 2.894531 5.746094 4.484375 C 4.980469 4.230469 4.289062 4.089844 3.746094 4.089844 C 3.113281 4.089844 2.683594 4.273438 2.476562 4.640625 C 2.0625 5.367188 2.769531 6.445312 3.972656 7.5 C 2.769531 8.554688 2.0625 9.632812 2.476562 10.359375 C 2.683594 10.726562 3.113281 10.910156 3.746094 10.910156 C 4.289062 10.910156 4.980469 10.769531 5.746094 10.515625 C 6.0625 12.105469 6.652344 13.28125 7.5 13.28125 C 8.347656 13.28125 8.9375 12.105469 9.253906 10.515625 C 10.019531 10.769531 10.710938 10.910156 11.253906 10.910156 C 11.886719 10.910156 12.316406 10.726562 12.523438 10.359375 C 12.9375 9.632812 12.230469 8.554688 11.027344 7.5 Z M 11.253906 4.816406 C 11.585938 4.816406 11.824219 4.886719 11.890625 5 C 12.035156 5.253906 11.589844 6.050781 10.453125 7.03125 C 10.152344 6.796875 9.828125 6.566406 9.492188 6.34375 C 9.464844 5.953125 9.425781 5.574219 9.375 5.207031 C 10.101562 4.957031 10.753906 4.816406 11.253906 4.816406 Z M 8.144531 8.632812 C 7.929688 8.753906 7.714844 8.871094 7.5 8.980469 C 7.285156 8.871094 7.070312 8.753906 6.855469 8.632812 C 6.628906 8.503906 6.417969 8.375 6.214844 8.246094 C 6.207031 8.007812 6.199219 7.757812 6.199219 7.5 C 6.199219 7.242188 6.203125 6.992188 6.214844 6.753906 C 6.417969 6.625 6.628906 6.496094 6.855469 6.367188 C 7.070312 6.246094 7.285156 6.128906 7.5 6.019531 C 7.714844 6.128906 7.929688 6.246094 8.144531 6.367188 C 8.371094 6.496094 8.582031 6.625 8.785156 6.753906 C 8.792969 6.992188 8.800781 7.242188 8.800781 7.5 C 8.800781 7.757812 8.796875 8.007812 8.785156 8.246094 C 8.582031 8.375 8.371094 8.503906 8.144531 8.632812 Z M 8.722656 9.136719 C 8.710938 9.269531 8.695312 9.398438 8.675781 9.527344 C 8.558594 9.476562 8.4375 9.421875 8.3125 9.367188 C 8.378906 9.332031 8.441406 9.300781 8.503906 9.265625 C 8.578125 9.222656 8.652344 9.179688 8.722656 9.136719 Z M 6.6875 9.367188 C 6.5625 9.421875 6.441406 9.476562 6.324219 9.527344 C 6.304688 9.398438 6.289062 9.269531 6.277344 9.136719 C 6.347656 9.179688 6.421875 9.222656 6.496094 9.265625 C 6.558594 9.300781 6.621094 9.332031 6.6875 9.367188 Z M 5.472656 7.753906 C 5.351562 7.667969 5.238281 7.582031 5.128906 7.5 C 5.238281 7.417969 5.351562 7.332031 5.472656 7.246094 C 5.472656 7.332031 5.46875 7.414062 5.46875 7.5 C 5.46875 7.585938 5.472656 7.667969 5.472656 7.753906 Z M 6.277344 5.863281 C 6.289062 5.730469 6.304688 5.601562 6.324219 5.472656 C 6.441406 5.523438 6.5625 5.578125 6.6875 5.632812 C 6.621094 5.667969 6.558594 5.699219 6.496094 5.734375 C 6.421875 5.777344 6.347656 5.820312 6.277344 5.863281 Z M 8.3125 5.632812 C 8.4375 5.578125 8.558594 5.523438 8.675781 5.472656 C 8.695312 5.601562 8.710938 5.730469 8.722656 5.863281 C 8.652344 5.820312 8.578125 5.777344 8.503906 5.734375 C 8.441406 5.699219 8.378906 5.667969 8.3125 5.632812 Z M 9.527344 7.246094 C 9.648438 7.332031 9.761719 7.417969 9.871094 7.5 C 9.761719 7.582031 9.648438 7.667969 9.527344 7.753906 C 9.527344 7.667969 9.53125 7.585938 9.53125 7.5 C 9.53125 7.414062 9.527344 7.332031 9.527344 7.246094 Z M 7.5 2.449219 C 7.792969 2.449219 8.273438 3.242188 8.5625 4.738281 C 8.214844 4.875 7.859375 5.035156 7.5 5.207031 C 7.140625 5.035156 6.785156 4.875 6.4375 4.738281 C 6.726562 3.242188 7.207031 2.449219 7.5 2.449219 Z M 3.109375 5 C 3.175781 4.886719 3.414062 4.816406 3.746094 4.816406 C 4.246094 4.816406 4.898438 4.957031 5.625 5.207031 C 5.574219 5.574219 5.535156 5.953125 5.507812 6.34375 C 5.171875 6.566406 4.847656 6.796875 4.546875 7.03125 C 3.410156 6.050781 2.964844 5.253906 3.109375 5 Z M 3.746094 10.183594 C 3.414062 10.183594 3.175781 10.113281 3.109375 10 C 2.964844 9.746094 3.410156 8.949219 4.546875 7.96875 C 4.847656 8.203125 5.171875 8.433594 5.507812 8.65625 C 5.535156 9.046875 5.574219 9.425781 5.625 9.792969 C 4.898438 10.042969 4.246094 10.183594 3.746094 10.183594 Z M 7.5 12.550781 C 7.207031 12.550781 6.726562 11.757812 6.4375 10.261719 C 6.785156 10.125 7.140625 9.964844 7.5 9.792969 C 7.859375 9.964844 8.214844 10.125 8.5625 10.261719 C 8.273438 11.757812 7.792969 12.550781 7.5 12.550781 Z M 11.890625 10 C 11.824219 10.113281 11.585938 10.183594 11.253906 10.183594 C 10.753906 10.183594 10.101562 10.042969 9.375 9.792969 C 9.425781 9.425781 9.464844 9.046875 9.492188 8.65625 C 9.828125 8.433594 10.152344 8.203125 10.453125 7.96875 C 11.589844 8.949219 12.035156 9.746094 11.890625 10 Z M 11.890625 10 "/>
<path style=" stroke:none;fill-rule:nonzero;fill:rgb(100%,100%,100%);fill-opacity:1;" d="M 7.5 6.910156 C 7.175781 6.910156 6.910156 7.175781 6.910156 7.5 C 6.910156 7.824219 7.175781 8.089844 7.5 8.089844 C 7.824219 8.089844 8.089844 7.824219 8.089844 7.5 C 8.089844 7.175781 7.824219 6.910156 7.5 6.910156 Z M 7.5 6.910156 "/>
</g>
</svg>
