<?xml version="1.0" encoding="UTF-8"?>
<svg xmlns="http://www.w3.org/2000/svg" xmlns:xlink="http://www.w3.org/1999/xlink" width="15pt" height="15pt" viewBox="0 0 15 15" version="1.1">
<g id="surface1">
<path style=" stroke:none;fill-rule:nonzero;fill:rgb(100%,80%,30.196078%);fill-opacity:1;" d="M 1.105469 14.582031 C 0.339844 14.582031 0 14.027344 0.351562 13.34375 L 6.855469 0.820312 C 7.210938 0.140625 7.789062 0.140625 8.144531 0.820312 L 14.648438 13.34375 C 15 14.027344 14.660156 14.582031 13.894531 14.582031 Z M 1.105469 14.582031 "/>
<path style=" stroke:none;fill-rule:nonzero;fill:rgb(13.72549%,12.156863%,12.54902%);fill-opacity:1;" d="M 6.492188 12.0625 C 6.492188 11.507812 6.945312 11.054688 7.5 11.054688 C 8.054688 11.054688 8.507812 11.507812 8.507812 12.0625 C 8.507812 12.621094 8.054688 13.070312 7.5 13.070312 C 6.945312 13.070312 6.492188 12.621094 6.492188 12.0625 Z M 6.570312 4.441406 C 6.570312 3.898438 6.972656 3.5625 7.5 3.5625 C 8.015625 3.5625 8.429688 3.910156 8.429688 4.441406 L 8.429688 9.414062 C 8.429688 9.945312 8.015625 10.292969 7.5 10.292969 C 6.972656 10.292969 6.570312 9.957031 6.570312 9.414062 Z M 6.570312 4.441406 "/>
</g>
</svg>
