<?xml version="1.0" encoding="UTF-8"?>
<svg xmlns="http://www.w3.org/2000/svg" xmlns:xlink="http://www.w3.org/1999/xlink" width="15pt" height="15pt" viewBox="0 0 15 15" version="1.1">
<g id="surface1">
<path style=" stroke:none;fill-rule:nonzero;fill:rgb(57.254902%,40%,80%);fill-opacity:1;" d="M 15 13.332031 C 15 14.253906 14.253906 15 13.332031 15 L 1.667969 15 C 0.746094 15 0 14.253906 0 13.332031 L 0 1.667969 C 0 0.746094 0.746094 0 1.667969 0 L 13.332031 0 C 14.253906 0 15 0.746094 15 1.667969 Z M 15 13.332031 "/>
<path style=" stroke:none;fill-rule:nonzero;fill:rgb(100%,100%,100%);fill-opacity:1;" d="M 7.5 10.125 C 5.9375 10.125 4.667969 8.855469 4.667969 7.292969 C 4.667969 5.730469 5.9375 4.457031 7.5 4.457031 C 9.0625 4.457031 10.332031 5.730469 10.332031 7.292969 C 10.332031 8.855469 9.0625 10.125 7.5 10.125 Z M 7.5 5.457031 C 6.488281 5.457031 5.667969 6.28125 5.667969 7.292969 C 5.667969 8.300781 6.488281 9.125 7.5 9.125 C 8.511719 9.125 9.332031 8.300781 9.332031 7.292969 C 9.332031 6.28125 8.511719 5.457031 7.5 5.457031 Z M 7.5 5.457031 "/>
<path style=" stroke:none;fill-rule:nonzero;fill:rgb(100%,100%,100%);fill-opacity:1;" d="M 7.5 13.125 C 7.222656 13.125 7 12.902344 7 12.625 L 7 9.625 C 7 9.347656 7.222656 9.125 7.5 9.125 C 7.777344 9.125 8 9.347656 8 9.625 L 8 12.625 C 8 12.902344 7.777344 13.125 7.5 13.125 Z M 7.5 13.125 "/>
<path style=" stroke:none;fill-rule:nonzero;fill:rgb(100%,100%,100%);fill-opacity:1;" d="M 9.125 11.792969 L 5.875 11.792969 C 5.597656 11.792969 5.375 11.566406 5.375 11.292969 C 5.375 11.015625 5.597656 10.792969 5.875 10.792969 L 9.125 10.792969 C 9.402344 10.792969 9.625 11.015625 9.625 11.292969 C 9.625 11.566406 9.402344 11.792969 9.125 11.792969 Z M 12 2.292969 L 9.011719 2.292969 C 8.734375 2.292969 8.511719 2.515625 8.511719 2.792969 C 8.511719 3.066406 8.734375 3.292969 9.011719 3.292969 L 10.792969 3.292969 L 8.460938 5.585938 L 9.167969 6.292969 L 11.5 4 L 11.5 5.792969 C 11.5 6.066406 11.722656 6.292969 12 6.292969 C 12.277344 6.292969 12.5 6.066406 12.5 5.792969 L 12.5 2.792969 C 12.5 2.515625 12.277344 2.292969 12 2.292969 Z M 5.667969 4.496094 L 4.703125 5.460938 C 4.507812 5.65625 4.191406 5.65625 3.996094 5.460938 C 3.800781 5.265625 3.800781 4.949219 3.996094 4.753906 L 4.960938 3.789062 C 5.15625 3.59375 5.472656 3.59375 5.667969 3.789062 C 5.863281 3.984375 5.863281 4.300781 5.667969 4.496094 Z M 5.667969 4.496094 "/>
<path style=" stroke:none;fill-rule:nonzero;fill:rgb(100%,100%,100%);fill-opacity:1;" d="M 3 2.292969 L 5.988281 2.292969 C 6.265625 2.292969 6.488281 2.515625 6.488281 2.792969 C 6.488281 3.066406 6.265625 3.292969 5.988281 3.292969 L 4.207031 3.292969 L 6.539062 5.585938 L 5.832031 6.292969 L 3.5 4 L 3.5 5.792969 C 3.5 6.066406 3.277344 6.292969 3 6.292969 C 2.722656 6.292969 2.5 6.066406 2.5 5.792969 L 2.5 2.792969 C 2.5 2.515625 2.722656 2.292969 3 2.292969 Z M 3 2.292969 "/>
</g>
</svg>
