<?xml version="1.0" encoding="UTF-8"?>
<svg xmlns="http://www.w3.org/2000/svg" xmlns:xlink="http://www.w3.org/1999/xlink" width="15pt" height="15pt" viewBox="0 0 15 15" version="1.1">
<g id="surface1">
<path style=" stroke:none;fill-rule:nonzero;fill:rgb(85.098039%,61.960784%,50.980392%);fill-opacity:1;" d="M 9.582031 14.167969 C 9.582031 14.398438 8.464844 14.777344 7.082031 14.777344 C 5.703125 14.777344 4.582031 14.398438 4.582031 14.167969 C 4.582031 13.9375 5.703125 13.75 7.082031 13.75 C 8.464844 13.75 9.582031 13.9375 9.582031 14.167969 Z M 9.582031 14.167969 "/>
<path style=" stroke:none;fill-rule:nonzero;fill:rgb(75.686275%,41.176471%,30.980392%);fill-opacity:1;" d="M 10 2.949219 C 10 2.949219 9.582031 2.515625 10 2.097656 C 10.417969 1.683594 10.417969 0.832031 10.417969 0.832031 L 3.761719 0.832031 C 3.761719 0.832031 3.761719 1.683594 4.179688 2.097656 C 4.597656 2.515625 4.179688 2.941406 4.179688 2.941406 C 4.179688 2.941406 2.097656 3.761719 2.097656 7.097656 C 2.097656 10.429688 4.585938 14.175781 4.585938 14.175781 L 7.082031 14.167969 L 9.582031 14.167969 C 9.582031 14.167969 12.082031 10.433594 12.082031 7.097656 C 12.082031 3.765625 10 2.949219 10 2.949219 Z M 10 2.949219 "/>
<path style=" stroke:none;fill-rule:nonzero;fill:rgb(85.098039%,61.960784%,50.980392%);fill-opacity:1;" d="M 10.417969 0.832031 C 10.417969 1.0625 8.925781 1.25 7.082031 1.25 C 5.242188 1.25 3.75 1.0625 3.75 0.832031 C 3.75 0.601562 5.242188 0.105469 7.082031 0.105469 C 8.925781 0.105469 10.417969 0.601562 10.417969 0.832031 Z M 7.082031 13.84375 C 5.695312 13.84375 4.523438 13.609375 4.0625 13.300781 C 4.363281 13.839844 4.582031 14.167969 4.585938 14.175781 C 4.613281 14.40625 5.71875 14.777344 7.082031 14.777344 C 8.464844 14.777344 9.582031 14.398438 9.582031 14.167969 C 9.582031 14.167969 9.800781 13.839844 10.101562 13.304688 C 9.636719 13.609375 8.460938 13.84375 7.082031 13.84375 Z M 7.082031 13.84375 "/>
<path style=" stroke:none;fill-rule:nonzero;fill:rgb(40%,12.941176%,7.45098%);fill-opacity:1;" d="M 10.066406 1.96875 C 9.734375 2.160156 8.527344 2.386719 7.082031 2.386719 C 5.640625 2.386719 4.429688 2.160156 4.097656 1.96875 C 4.039062 2.003906 4.003906 2.039062 4.003906 2.074219 C 4.003906 2.316406 5.382812 2.601562 7.082031 2.601562 C 8.785156 2.601562 10.160156 2.316406 10.160156 2.074219 C 10.160156 2.039062 10.128906 2.003906 10.066406 1.96875 Z M 10.066406 1.96875 "/>
<path style=" stroke:none;fill-rule:nonzero;fill:rgb(40%,12.941176%,7.45098%);fill-opacity:1;" d="M 4.328125 2.695312 C 5.410156 2.992188 6.578125 3.035156 7.082031 3.035156 C 7.589844 3.035156 8.765625 2.992188 9.847656 2.695312 C 9.792969 2.53125 9.785156 2.3125 10 2.097656 L 10.003906 2.09375 L 9.953125 2.109375 C 8.921875 2.394531 7.035156 2.511719 7.035156 2.511719 C 7.035156 2.511719 5.21875 2.394531 4.1875 2.109375 C 4.394531 2.324219 4.386719 2.535156 4.328125 2.695312 Z M 4.328125 2.695312 "/>
<path style=" stroke:none;fill-rule:nonzero;fill:rgb(85.098039%,61.960784%,50.980392%);fill-opacity:1;" d="M 7.082031 7.753906 C 9.085938 7.753906 10.921875 7.433594 12.066406 6.691406 C 12.039062 6.144531 11.949219 5.667969 11.824219 5.261719 C 11.640625 5.300781 11.464844 5.40625 11.265625 5.472656 C 10.015625 5.890625 7.917969 5.996094 7.082031 5.996094 C 6.25 5.996094 4.144531 5.871094 2.894531 5.457031 C 2.695312 5.390625 2.542969 5.300781 2.351562 5.261719 C 2.21875 5.703125 2.128906 6.21875 2.105469 6.824219 C 3.273438 7.503906 5.246094 7.753906 7.082031 7.753906 Z M 7.082031 7.753906 "/>
</g>
</svg>
