<?xml version="1.0" encoding="UTF-8"?>
<svg xmlns="http://www.w3.org/2000/svg" xmlns:xlink="http://www.w3.org/1999/xlink" width="15pt" height="15pt" viewBox="0 0 15 15" version="1.1">
<g id="surface1">
<path style=" stroke:none;fill-rule:nonzero;fill:rgb(96.078431%,97.254902%,98.039216%);fill-opacity:1;" d="M 15 7.5 C 15 11.640625 11.640625 15 7.5 15 C 3.359375 15 0 11.640625 0 7.5 C 0 3.359375 3.359375 0 7.5 0 C 11.640625 0 15 3.359375 15 7.5 Z M 15 7.5 "/>
<path style=" stroke:none;fill-rule:nonzero;fill:rgb(80%,83.921569%,86.666667%);fill-opacity:1;" d="M 7.5 4.582031 C 7.269531 4.582031 7.082031 4.398438 7.082031 4.167969 L 7.082031 1.25 C 7.082031 1.019531 7.269531 0.832031 7.5 0.832031 C 7.730469 0.832031 7.917969 1.019531 7.917969 1.25 L 7.917969 4.167969 C 7.917969 4.398438 7.730469 4.582031 7.5 4.582031 Z M 4.757812 6.457031 C 4.714844 6.457031 4.671875 6.453125 4.632812 6.4375 L 1.28125 5.378906 C 1.0625 5.308594 0.941406 5.078125 1.007812 4.855469 C 1.078125 4.636719 1.3125 4.515625 1.53125 4.585938 L 4.882812 5.644531 C 5.101562 5.714844 5.222656 5.949219 5.15625 6.167969 C 5.097656 6.34375 4.933594 6.457031 4.757812 6.457031 Z M 10.433594 6.335938 C 10.253906 6.335938 10.085938 6.21875 10.035156 6.035156 C 9.96875 5.816406 10.097656 5.585938 10.316406 5.519531 L 13.128906 4.703125 C 13.351562 4.640625 13.582031 4.769531 13.648438 4.988281 C 13.710938 5.210938 13.582031 5.441406 13.363281 5.503906 L 10.550781 6.320312 C 10.511719 6.332031 10.472656 6.335938 10.433594 6.335938 Z M 11.269531 12.570312 C 11.140625 12.570312 11.015625 12.511719 10.933594 12.402344 L 8.660156 9.347656 C 8.519531 9.160156 8.558594 8.902344 8.746094 8.761719 C 8.929688 8.625 9.191406 8.664062 9.328125 8.847656 L 11.601562 11.902344 C 11.738281 12.089844 11.699219 12.347656 11.515625 12.488281 C 11.441406 12.542969 11.355469 12.570312 11.269531 12.570312 Z M 3.644531 12.535156 C 3.5625 12.535156 3.480469 12.511719 3.40625 12.460938 C 3.21875 12.328125 3.171875 12.070312 3.304688 11.878906 L 5.4375 8.808594 C 5.570312 8.617188 5.828125 8.570312 6.019531 8.703125 C 6.207031 8.835938 6.253906 9.09375 6.125 9.28125 L 3.988281 12.355469 C 3.90625 12.472656 3.777344 12.535156 3.644531 12.535156 Z M 1.457031 11.277344 C 1.273438 11.277344 1.105469 11.152344 1.054688 10.96875 L 0.144531 7.609375 C 0.0859375 7.386719 0.214844 7.160156 0.4375 7.097656 C 0.660156 7.039062 0.890625 7.167969 0.949219 7.390625 L 1.859375 10.75 C 1.921875 10.972656 1.789062 11.203125 1.566406 11.261719 C 1.53125 11.273438 1.496094 11.277344 1.457031 11.277344 Z M 9.167969 14.167969 L 5.417969 14.167969 C 5.1875 14.167969 5 13.980469 5 13.75 C 5 13.519531 5.1875 13.332031 5.417969 13.332031 L 9.167969 13.332031 C 9.398438 13.332031 9.582031 13.519531 9.582031 13.75 C 9.582031 13.980469 9.398438 14.167969 9.167969 14.167969 Z M 13.386719 11.300781 C 13.351562 11.300781 13.320312 11.296875 13.285156 11.289062 C 13.0625 11.234375 12.925781 11.007812 12.980469 10.785156 L 13.867188 7.191406 C 13.921875 6.96875 14.148438 6.832031 14.371094 6.886719 C 14.59375 6.941406 14.730469 7.167969 14.675781 7.390625 L 13.789062 10.984375 C 13.742188 11.175781 13.574219 11.300781 13.386719 11.300781 Z M 12.628906 3.203125 C 12.558594 3.203125 12.488281 3.183594 12.421875 3.148438 L 9.269531 1.324219 C 9.070312 1.210938 9.003906 0.953125 9.121094 0.753906 C 9.234375 0.554688 9.488281 0.488281 9.6875 0.601562 L 12.839844 2.425781 C 13.039062 2.542969 13.105469 2.796875 12.992188 2.996094 C 12.914062 3.128906 12.773438 3.203125 12.628906 3.203125 Z M 2.292969 3.203125 C 2.160156 3.203125 2.035156 3.144531 1.953125 3.03125 C 1.820312 2.84375 1.863281 2.582031 2.046875 2.449219 L 4.628906 0.597656 C 4.8125 0.464844 5.074219 0.507812 5.207031 0.695312 C 5.34375 0.882812 5.300781 1.140625 5.113281 1.277344 L 2.535156 3.125 C 2.460938 3.175781 2.375 3.203125 2.292969 3.203125 Z M 2.292969 3.203125 "/>
<path style=" stroke:none;fill-rule:nonzero;fill:rgb(19.215686%,21.568627%,23.921569%);fill-opacity:1;" d="M 10.621094 5.632812 L 7.617188 3.515625 C 7.472656 3.410156 7.28125 3.414062 7.136719 3.515625 L 4.148438 5.667969 C 4.003906 5.773438 3.941406 5.953125 3.992188 6.125 L 5.035156 9.699219 C 5.085938 9.878906 5.25 10 5.433594 10 L 9.167969 10 C 9.347656 10 9.503906 9.886719 9.5625 9.714844 L 10.777344 6.105469 C 10.835938 5.929688 10.773438 5.738281 10.621094 5.632812 Z M 0.539062 8.140625 C 0.5625 8.140625 0.585938 8.140625 0.609375 8.136719 C 0.734375 8.113281 0.839844 8.039062 0.902344 7.929688 L 2.308594 5.429688 C 2.328125 5.390625 2.34375 5.351562 2.351562 5.308594 L 2.910156 2.582031 C 2.933594 2.460938 2.902344 2.332031 2.824219 2.238281 C 2.742188 2.140625 2.625 2.082031 2.5 2.082031 L 2.320312 2.082031 C 0.894531 3.449219 0 5.367188 0 7.5 C 0 7.609375 0.0117188 7.71875 0.015625 7.828125 L 0.265625 8.042969 C 0.34375 8.109375 0.441406 8.140625 0.539062 8.140625 Z M 4.421875 1.246094 C 4.46875 1.339844 4.554688 1.402344 4.652344 1.417969 L 7.308594 1.855469 C 7.328125 1.855469 7.34375 1.859375 7.359375 1.859375 C 7.378906 1.859375 7.394531 1.855469 7.410156 1.855469 L 9.945312 1.4375 C 10.03125 1.421875 10.105469 1.375 10.152344 1.304688 C 10.203125 1.234375 10.21875 1.148438 10.203125 1.066406 L 10.082031 0.464844 C 9.273438 0.167969 8.410156 0 7.5 0 C 6.488281 0 5.527344 0.203125 4.648438 0.566406 L 4.429688 0.960938 C 4.382812 1.050781 4.378906 1.15625 4.421875 1.246094 Z M 12.972656 2.382812 L 12.347656 2.34375 C 12.25 2.339844 12.15625 2.375 12.09375 2.445312 C 12.027344 2.519531 12 2.613281 12.019531 2.710938 L 12.503906 5.292969 C 12.511719 5.328125 12.527344 5.355469 12.542969 5.386719 C 13.164062 6.429688 13.859375 7.59375 13.953125 7.792969 C 13.964844 7.828125 13.980469 7.828125 14 7.859375 C 14.058594 7.9375 14.15625 7.917969 14.253906 7.917969 L 14.257812 7.917969 C 14.339844 7.917969 14.394531 7.957031 14.996094 7.601562 C 14.996094 7.566406 15 7.535156 15 7.5 C 15 5.519531 14.226562 3.722656 12.972656 2.382812 Z M 6.058594 13.90625 C 6.0625 13.824219 6.035156 13.742188 5.980469 13.679688 L 4.105469 11.597656 C 4.078125 11.570312 4.050781 11.546875 4.015625 11.527344 C 1.5625 10.25 1.519531 10.234375 1.488281 10.222656 C 1.457031 10.214844 1.421875 10.207031 1.386719 10.207031 C 1.164062 10.207031 1.097656 10.234375 0.894531 11.050781 C 1.824219 12.78125 3.417969 14.101562 5.328125 14.679688 L 5.953125 14.121094 C 6.015625 14.066406 6.054688 13.988281 6.058594 13.90625 Z M 13.488281 10.335938 C 13.410156 10.304688 13.320312 10.304688 13.242188 10.339844 L 10.707031 11.449219 C 10.664062 11.46875 10.625 11.5 10.59375 11.535156 L 8.824219 13.652344 C 8.769531 13.71875 8.742188 13.800781 8.75 13.882812 C 8.757812 13.96875 8.800781 14.042969 8.863281 14.097656 C 9.148438 14.328125 9.390625 14.527344 9.601562 14.695312 C 11.449219 14.15625 13 12.925781 13.957031 11.300781 L 13.660156 10.515625 C 13.628906 10.433594 13.566406 10.371094 13.488281 10.335938 Z M 13.488281 10.335938 "/>
</g>
</svg>
