<?xml version="1.0" encoding="UTF-8"?>
<svg xmlns="http://www.w3.org/2000/svg" xmlns:xlink="http://www.w3.org/1999/xlink" width="15pt" height="15pt" viewBox="0 0 15 15" version="1.1">
<g id="surface1">
<path style=" stroke:none;fill-rule:nonzero;fill:rgb(88.235294%,90.980392%,92.941176%);fill-opacity:1;" d="M 15 7.5 C 15 11.640625 11.640625 15 7.5 15 C 3.359375 15 0 11.640625 0 7.5 C 0 3.359375 3.359375 0 7.5 0 C 11.640625 0 15 3.359375 15 7.5 Z M 15 7.5 "/>
<path style=" stroke:none;fill-rule:nonzero;fill:rgb(70.196078%,74.509804%,76.862745%);fill-opacity:1;" d="M 13.25 12.3125 C 11.996094 11.757812 11.25 10.019531 11.25 7.5 C 11.25 4.980469 11.996094 3.242188 13.25 2.6875 C 13.066406 2.46875 12.863281 2.261719 12.65625 2.0625 C 11.417969 2.753906 10.417969 4.40625 10.417969 7.5 C 10.417969 10.59375 11.417969 12.246094 12.65625 12.9375 C 12.863281 12.738281 13.066406 12.53125 13.25 12.3125 Z M 4.582031 7.5 C 4.582031 4.40625 3.582031 2.753906 2.34375 2.0625 C 2.136719 2.261719 1.933594 2.46875 1.75 2.6875 C 3.003906 3.242188 3.75 4.980469 3.75 7.5 C 3.75 10.019531 3.003906 11.757812 1.75 12.3125 C 1.933594 12.53125 2.136719 12.738281 2.34375 12.9375 C 3.582031 12.246094 4.582031 10.59375 4.582031 7.5 Z M 4.582031 7.5 "/>
<path style=" stroke:none;fill-rule:nonzero;fill:rgb(86.666667%,18.039216%,26.666667%);fill-opacity:1;" d="M 2.121094 4.234375 C 2.023438 4.234375 1.929688 4.226562 1.851562 4.210938 C 1.625 4.167969 1.476562 3.953125 1.515625 3.726562 C 1.558594 3.5 1.777344 3.347656 2.003906 3.390625 C 2.183594 3.425781 3.125 3.394531 3.316406 2.445312 C 3.359375 2.21875 3.578125 2.074219 3.804688 2.117188 C 4.03125 2.164062 4.179688 2.382812 4.132812 2.609375 C 3.890625 3.820312 2.824219 4.234375 2.121094 4.234375 Z M 2.828125 5.886719 C 2.609375 5.886719 2.433594 5.75 2.421875 5.527344 C 2.410156 5.296875 2.589844 5.148438 2.820312 5.136719 C 2.820312 5.136719 3.886719 5.121094 4.429688 4.179688 C 4.546875 3.980469 4.800781 3.917969 5 4.035156 C 5.199219 4.148438 5.265625 4.40625 5.152344 4.605469 C 4.378906 5.941406 2.835938 5.886719 2.828125 5.886719 Z M 3.75 8.035156 C 3.445312 8.035156 3.160156 7.976562 2.945312 7.875 C 2.738281 7.777344 2.648438 7.53125 2.75 7.320312 C 2.847656 7.113281 3.097656 7.027344 3.304688 7.125 C 3.648438 7.285156 4.523438 7.222656 4.859375 6.703125 C 4.980469 6.507812 5.238281 6.453125 5.433594 6.578125 C 5.628906 6.699219 5.683594 6.957031 5.558594 7.152344 C 5.15625 7.777344 4.402344 8.035156 3.75 8.035156 Z M 4.234375 10.335938 C 3.585938 10.335938 2.984375 10.046875 2.597656 9.722656 C 2.421875 9.574219 2.398438 9.3125 2.542969 9.132812 C 2.691406 8.957031 2.953125 8.933594 3.132812 9.082031 C 3.210938 9.148438 3.945312 9.734375 4.707031 9.40625 C 4.917969 9.316406 5.164062 9.417969 5.253906 9.628906 C 5.34375 9.839844 5.246094 10.085938 5.03125 10.175781 C 4.765625 10.289062 4.496094 10.335938 4.234375 10.335938 Z M 4.0625 12.5 L 4.050781 12.5 C 3.007812 12.5 2.101562 11.847656 1.746094 11.203125 C 1.632812 11.003906 1.707031 10.769531 1.90625 10.660156 C 2.109375 10.546875 2.363281 10.628906 2.472656 10.828125 C 2.675781 11.191406 3.304688 11.71875 4.074219 11.742188 C 4.304688 11.746094 4.484375 11.902344 4.480469 12.132812 C 4.472656 12.359375 4.289062 12.5 4.0625 12.5 Z M 11.328125 12.578125 C 11.300781 12.578125 11.273438 12.574219 11.246094 12.570312 C 11.019531 12.523438 10.875 12.304688 10.917969 12.078125 C 11.195312 10.695312 12.542969 10.351562 13.203125 10.476562 C 13.429688 10.519531 13.578125 10.734375 13.535156 10.960938 C 13.492188 11.1875 13.277344 11.339844 13.046875 11.292969 C 12.871094 11.261719 11.925781 11.292969 11.738281 12.242188 C 11.695312 12.441406 11.523438 12.578125 11.328125 12.578125 Z M 10.261719 10.703125 C 10.1875 10.703125 10.117188 10.683594 10.050781 10.648438 C 9.851562 10.53125 9.785156 10.277344 9.898438 10.078125 C 10.671875 8.742188 11.558594 8.703125 12.148438 8.675781 L 12.191406 8.671875 C 12.417969 8.660156 12.617188 8.839844 12.628906 9.070312 C 12.640625 9.296875 12.464844 9.496094 12.234375 9.503906 L 12.183594 9.507812 C 11.683594 9.53125 11.164062 9.554688 10.621094 10.496094 C 10.542969 10.628906 10.402344 10.703125 10.261719 10.703125 Z M 9.84375 8.175781 C 9.765625 8.175781 9.6875 8.15625 9.617188 8.109375 C 9.425781 7.988281 9.367188 7.730469 9.492188 7.535156 C 10.082031 6.617188 11.433594 6.492188 12.105469 6.8125 C 12.3125 6.910156 12.402344 7.160156 12.304688 7.367188 C 12.207031 7.574219 11.957031 7.664062 11.75 7.566406 C 11.402344 7.402344 10.53125 7.464844 10.195312 7.984375 C 10.113281 8.109375 9.980469 8.175781 9.84375 8.175781 Z M 12.1875 5.703125 C 12.09375 5.703125 12 5.671875 11.921875 5.605469 C 11.839844 5.539062 11.105469 4.957031 10.34375 5.28125 C 10.132812 5.371094 9.890625 5.269531 9.796875 5.058594 C 9.707031 4.847656 9.808594 4.601562 10.019531 4.511719 C 10.945312 4.121094 11.910156 4.511719 12.453125 4.964844 C 12.628906 5.113281 12.65625 5.375 12.507812 5.554688 C 12.425781 5.652344 12.308594 5.703125 12.1875 5.703125 Z M 12.941406 4.0625 C 12.796875 4.0625 12.65625 3.984375 12.578125 3.847656 C 12.375 3.484375 11.746094 2.964844 10.976562 2.941406 C 10.746094 2.9375 10.566406 2.730469 10.574219 2.5 C 10.578125 2.277344 10.765625 2.082031 10.988281 2.082031 L 11 2.082031 C 12.042969 2.082031 12.949219 2.789062 13.308594 3.429688 C 13.417969 3.632812 13.347656 3.890625 13.144531 4.003906 C 13.082031 4.039062 13.011719 4.0625 12.941406 4.0625 Z M 12.941406 4.0625 "/>
</g>
</svg>
