<?xml version="1.0" encoding="UTF-8"?>
<svg xmlns="http://www.w3.org/2000/svg" xmlns:xlink="http://www.w3.org/1999/xlink" width="15pt" height="15pt" viewBox="0 0 15 15" version="1.1">
<g id="surface1">
<path style=" stroke:none;fill-rule:nonzero;fill:rgb(88.235294%,90.980392%,92.941176%);fill-opacity:1;" d="M 11.667969 10.832031 C 11.667969 13.132812 9.800781 15 7.5 15 C 5.199219 15 3.332031 13.132812 3.332031 10.832031 C 3.332031 8.53125 5.199219 6.667969 7.5 6.667969 C 9.800781 6.667969 11.667969 8.53125 11.667969 10.832031 Z M 11.667969 10.832031 "/>
<path style=" stroke:none;fill-rule:nonzero;fill:rgb(88.235294%,90.980392%,92.941176%);fill-opacity:1;" d="M 5 4.582031 C 5 3.203125 6.121094 2.082031 7.5 2.082031 C 8.878906 2.082031 10 3.203125 10 4.582031 C 10 5.964844 8.878906 7.082031 7.5 7.082031 C 6.121094 7.082031 5 5.964844 5 4.582031 Z M 5 4.582031 "/>
<path style=" stroke:none;fill-rule:nonzero;fill:rgb(25.490196%,25.098039%,25.882353%);fill-opacity:1;" d="M 9.582031 2.5 C 9.582031 2.960938 9.210938 3.332031 8.75 3.332031 L 6.25 3.332031 C 5.789062 3.332031 5.417969 2.960938 5.417969 2.5 L 5.417969 0.832031 C 5.417969 0.375 5.789062 0 6.25 0 L 8.75 0 C 9.210938 0 9.582031 0.375 9.582031 0.832031 Z M 9.582031 2.5 "/>
<path style=" stroke:none;fill-rule:nonzero;fill:rgb(13.72549%,12.156863%,12.54902%);fill-opacity:1;" d="M 10.417969 2.917969 C 10.417969 3.148438 10.230469 3.332031 10 3.332031 L 5 3.332031 C 4.769531 3.332031 4.582031 3.148438 4.582031 2.917969 C 4.582031 2.6875 4.769531 2.5 5 2.5 L 10 2.5 C 10.230469 2.5 10.417969 2.6875 10.417969 2.917969 Z M 10.417969 2.917969 "/>
<path style=" stroke:none;fill-rule:nonzero;fill:rgb(86.666667%,18.039216%,26.666667%);fill-opacity:1;" d="M 9.375 6.25 L 5.625 6.25 C 5.28125 6.25 5 6.53125 5 6.875 C 5 7.148438 5.175781 7.375 5.417969 7.460938 L 5.417969 10.417969 C 5.417969 10.648438 5.601562 10.832031 5.832031 10.832031 L 6.25 10.832031 C 6.480469 10.832031 6.667969 10.648438 6.667969 10.417969 L 6.667969 7.5 L 9.375 7.5 C 9.71875 7.5 10 7.21875 10 6.875 C 10 6.53125 9.71875 6.25 9.375 6.25 Z M 9.375 6.25 "/>
<path style=" stroke:none;fill-rule:nonzero;fill:rgb(25.490196%,25.098039%,25.882353%);fill-opacity:1;" d="M 7.917969 10 C 7.917969 10.230469 7.730469 10.417969 7.5 10.417969 C 7.269531 10.417969 7.082031 10.230469 7.082031 10 C 7.082031 9.769531 7.269531 9.582031 7.5 9.582031 C 7.730469 9.582031 7.917969 9.769531 7.917969 10 Z M 7.917969 12.082031 C 7.917969 12.3125 7.730469 12.5 7.5 12.5 C 7.269531 12.5 7.082031 12.3125 7.082031 12.082031 C 7.082031 11.851562 7.269531 11.667969 7.5 11.667969 C 7.730469 11.667969 7.917969 11.851562 7.917969 12.082031 Z M 7.917969 12.082031 "/>
<path style=" stroke:none;fill-rule:nonzero;fill:rgb(95.686275%,56.470588%,4.705882%);fill-opacity:1;" d="M 7.917969 5 C 7.917969 5.230469 7.730469 5.417969 7.5 5.417969 C 7.269531 5.417969 7.082031 5.230469 7.082031 5 C 7.082031 4.769531 7.269531 4.582031 7.5 4.582031 C 7.730469 4.582031 7.917969 4.769531 7.917969 5 Z M 7.917969 5 "/>
<path style=" stroke:none;fill-rule:nonzero;fill:rgb(25.490196%,25.098039%,25.882353%);fill-opacity:1;" d="M 6.667969 4.167969 C 6.667969 4.398438 6.480469 4.582031 6.25 4.582031 C 6.019531 4.582031 5.832031 4.398438 5.832031 4.167969 C 5.832031 3.9375 6.019531 3.75 6.25 3.75 C 6.480469 3.75 6.667969 3.9375 6.667969 4.167969 Z M 9.167969 4.167969 C 9.167969 4.398438 8.980469 4.582031 8.75 4.582031 C 8.519531 4.582031 8.332031 4.398438 8.332031 4.167969 C 8.332031 3.9375 8.519531 3.75 8.75 3.75 C 8.980469 3.75 9.167969 3.9375 9.167969 4.167969 Z M 9.167969 4.167969 "/>
<path style=" stroke:none;fill-rule:nonzero;fill:rgb(100%,67.45098%,20%);fill-opacity:1;" d="M 4.332031 8.367188 L 2.890625 7.75 L 2.664062 6.558594 C 2.621094 6.332031 2.40625 6.183594 2.175781 6.226562 C 1.953125 6.269531 1.804688 6.488281 1.847656 6.714844 L 1.96875 7.355469 L 1.414062 7.117188 C 1.203125 7.027344 0.957031 7.125 0.867188 7.335938 C 0.777344 7.546875 0.875 7.792969 1.085938 7.882812 L 1.394531 8.015625 L 0.957031 8.457031 C 0.792969 8.617188 0.792969 8.882812 0.957031 9.042969 C 1.035156 9.125 1.144531 9.167969 1.25 9.167969 C 1.355469 9.167969 1.464844 9.125 1.542969 9.042969 L 2.21875 8.371094 L 4.003906 9.132812 C 4.054688 9.15625 4.113281 9.167969 4.167969 9.167969 C 4.328125 9.167969 4.480469 9.070312 4.550781 8.914062 C 4.640625 8.703125 4.542969 8.457031 4.332031 8.367188 Z M 13.882812 7.105469 L 13.269531 6.902344 L 13.628906 6.546875 C 13.789062 6.382812 13.789062 6.117188 13.628906 5.957031 C 13.464844 5.792969 13.203125 5.792969 13.039062 5.957031 L 12.726562 6.269531 L 12.488281 5.316406 C 12.429688 5.09375 12.203125 4.957031 11.980469 5.011719 C 11.757812 5.070312 11.621094 5.296875 11.679688 5.519531 L 12.039062 6.957031 L 10.539062 8.457031 C 10.375 8.617188 10.375 8.882812 10.539062 9.046875 C 10.621094 9.125 10.726562 9.167969 10.832031 9.167969 C 10.941406 9.167969 11.046875 9.125 11.128906 9.042969 L 12.613281 7.558594 L 13.617188 7.894531 C 13.660156 7.910156 13.707031 7.917969 13.75 7.917969 C 13.925781 7.917969 14.085938 7.804688 14.144531 7.632812 C 14.21875 7.414062 14.101562 7.175781 13.882812 7.105469 Z M 13.882812 7.105469 "/>
</g>
</svg>
