<?xml version="1.0" encoding="UTF-8"?>
<svg xmlns="http://www.w3.org/2000/svg" xmlns:xlink="http://www.w3.org/1999/xlink" width="15pt" height="15pt" viewBox="0 0 15 15" version="1.1">
<g id="surface1">
<path style=" stroke:none;fill-rule:nonzero;fill:rgb(100%,67.45098%,20%);fill-opacity:1;" d="M 5.832031 0.832031 C 5.832031 0.832031 5.832031 0 6.667969 0 C 7.5 0 7.5 0.832031 7.5 0.832031 L 7.5 1.667969 C 7.5 1.667969 7.5 2.5 6.667969 2.5 C 5.832031 2.5 5.832031 1.667969 5.832031 1.667969 Z M 12.5 5.832031 C 12.5 5.832031 13.332031 5.832031 13.332031 6.667969 C 13.332031 7.5 12.5 7.5 12.5 7.5 L 11.667969 7.5 C 11.667969 7.5 10.832031 7.5 10.832031 6.667969 C 10.832031 5.832031 11.667969 5.832031 11.667969 5.832031 Z M 1.667969 5.832031 C 1.667969 5.832031 2.5 5.832031 2.5 6.667969 C 2.5 7.5 1.667969 7.5 1.667969 7.5 L 0.832031 7.5 C 0.832031 7.5 0 7.5 0 6.667969 C 0 5.832031 0.832031 5.832031 0.832031 5.832031 Z M 3.28125 2.519531 C 3.28125 2.519531 3.871094 3.105469 3.28125 3.695312 C 2.691406 4.285156 2.101562 3.695312 2.101562 3.695312 L 1.511719 3.109375 C 1.511719 3.109375 0.921875 2.519531 1.511719 1.929688 C 2.101562 1.339844 2.691406 1.929688 2.691406 1.929688 Z M 11.230469 3.695312 C 11.230469 3.695312 10.644531 4.285156 10.054688 3.695312 C 9.464844 3.105469 10.054688 2.519531 10.054688 2.519531 L 10.644531 1.929688 C 10.644531 1.929688 11.230469 1.339844 11.820312 1.929688 C 12.410156 2.519531 11.820312 3.105469 11.820312 3.105469 Z M 11.230469 3.695312 "/>
<path style=" stroke:none;fill-rule:nonzero;fill:rgb(100%,67.45098%,20%);fill-opacity:1;" d="M 10.417969 6.667969 C 10.417969 8.738281 8.738281 10.417969 6.667969 10.417969 C 4.59375 10.417969 2.917969 8.738281 2.917969 6.667969 C 2.917969 4.59375 4.59375 2.917969 6.667969 2.917969 C 8.738281 2.917969 10.417969 4.59375 10.417969 6.667969 Z M 10.417969 6.667969 "/>
<path style=" stroke:none;fill-rule:nonzero;fill:rgb(88.235294%,90.980392%,92.941176%);fill-opacity:1;" d="M 11.667969 8.332031 C 11.324219 8.332031 10.992188 8.386719 10.679688 8.480469 C 10.308594 7.425781 9.308594 6.667969 8.125 6.667969 C 6.855469 6.667969 5.796875 7.539062 5.5 8.71875 C 5.1875 8.480469 4.800781 8.332031 4.375 8.332031 C 3.339844 8.332031 2.5 9.171875 2.5 10.207031 C 2.5 10.460938 2.550781 10.699219 2.640625 10.917969 C 2.460938 10.867188 2.277344 10.832031 2.082031 10.832031 C 0.933594 10.832031 0 11.765625 0 12.917969 C 0 14.066406 0.933594 15 2.082031 15 L 11.667969 15 C 13.507812 15 15 13.507812 15 11.667969 C 15 9.824219 13.507812 8.332031 11.667969 8.332031 Z M 11.667969 8.332031 "/>
</g>
</svg>
