<?xml version="1.0" encoding="UTF-8"?>
<svg xmlns="http://www.w3.org/2000/svg" xmlns:xlink="http://www.w3.org/1999/xlink" width="15pt" height="15pt" viewBox="0 0 15 15" version="1.1">
<g id="surface1">
<path style=" stroke:none;fill-rule:nonzero;fill:rgb(57.254902%,40%,80%);fill-opacity:1;" d="M 15 13.332031 C 15 14.253906 14.253906 15 13.332031 15 L 1.667969 15 C 0.746094 15 0 14.253906 0 13.332031 L 0 1.667969 C 0 0.746094 0.746094 0 1.667969 0 L 13.332031 0 C 14.253906 0 15 0.746094 15 1.667969 Z M 15 13.332031 "/>
<path style=" stroke:none;fill-rule:nonzero;fill:rgb(100%,100%,100%);fill-opacity:1;" d="M 7.5 12.707031 C 5.199219 12.707031 4.167969 10.929688 4.167969 9.167969 L 4.167969 2.917969 C 4.167969 2.570312 4.445312 2.292969 4.792969 2.292969 C 5.136719 2.292969 5.417969 2.570312 5.417969 2.917969 L 5.417969 9.167969 C 5.417969 9.703125 5.566406 11.457031 7.5 11.457031 C 9.433594 11.457031 9.582031 9.703125 9.582031 9.167969 L 9.582031 2.917969 C 9.582031 2.570312 9.863281 2.292969 10.207031 2.292969 C 10.554688 2.292969 10.832031 2.570312 10.832031 2.917969 L 10.832031 9.167969 C 10.832031 10.929688 9.800781 12.707031 7.5 12.707031 Z M 7.5 12.707031 "/>
<path style=" stroke:none;fill-rule:nonzero;fill:rgb(100%,100%,100%);fill-opacity:1;" d="M 1.667969 8.957031 C 1.507812 8.957031 1.347656 8.898438 1.222656 8.773438 C 0.980469 8.53125 0.980469 8.136719 1.222656 7.890625 C 1.441406 7.671875 1.636719 7.464844 1.8125 7.277344 C 2.679688 6.355469 3.359375 5.625 5 5.625 C 6.011719 5.625 6.9375 6.203125 7.832031 6.761719 C 8.609375 7.25 9.347656 7.707031 10 7.707031 C 11.097656 7.707031 11.464844 7.316406 12.273438 6.453125 C 12.460938 6.253906 12.664062 6.035156 12.890625 5.808594 C 13.136719 5.5625 13.53125 5.5625 13.777344 5.808594 C 14.019531 6.050781 14.019531 6.449219 13.777344 6.691406 C 13.558594 6.910156 13.363281 7.117188 13.1875 7.308594 C 12.320312 8.230469 11.640625 8.957031 10 8.957031 C 8.988281 8.957031 8.0625 8.378906 7.167969 7.820312 C 6.390625 7.335938 5.652344 6.875 5 6.875 C 3.902344 6.875 3.535156 7.269531 2.726562 8.132812 C 2.539062 8.332031 2.335938 8.546875 2.109375 8.777344 C 1.988281 8.898438 1.828125 8.957031 1.667969 8.957031 Z M 1.667969 8.957031 "/>
</g>
</svg>
