<?xml version="1.0" encoding="UTF-8"?>
<svg xmlns="http://www.w3.org/2000/svg" xmlns:xlink="http://www.w3.org/1999/xlink" width="15pt" height="15pt" viewBox="0 0 15 15" version="1.1">
<g id="surface1">
<path style=" stroke:none;fill-rule:nonzero;fill:rgb(95.686275%,56.470588%,4.705882%);fill-opacity:1;" d="M 12.160156 13.867188 C 12.644531 14.351562 13.417969 14.375 13.878906 13.917969 C 14.335938 13.457031 14.3125 12.683594 13.828125 12.199219 L 4.132812 2.503906 C 3.648438 2.019531 2.875 1.996094 2.417969 2.457031 C 1.957031 2.914062 1.980469 3.6875 2.46875 4.171875 Z M 12.160156 13.867188 "/>
<path style=" stroke:none;fill-rule:nonzero;fill:rgb(95.686275%,56.470588%,4.705882%);fill-opacity:1;" d="M 1.421875 3.191406 C 1.097656 2.863281 1.097656 2.335938 1.421875 2.011719 L 2.011719 1.421875 C 2.335938 1.097656 2.863281 1.097656 3.191406 1.421875 C 3.515625 1.746094 3.515625 2.277344 3.191406 2.601562 L 2.601562 3.191406 C 2.277344 3.515625 1.746094 3.515625 1.421875 3.191406 Z M 1.421875 3.191406 "/>
<path style=" stroke:none;fill-rule:nonzero;fill:rgb(40%,45.882353%,49.803922%);fill-opacity:1;" d="M 9.582031 0.417969 C 8.808594 0.105469 5 -0.832031 2.082031 2.082031 C -0.832031 5 0.105469 8.808594 0.417969 9.582031 C 1.25 11.667969 1.113281 9.140625 1.25 8.332031 C 1.671875 5.84375 2.84375 4.507812 3.675781 3.675781 C 4.507812 2.84375 5.855469 1.679688 8.332031 1.25 C 9.132812 1.113281 11.667969 1.25 9.582031 0.417969 Z M 9.582031 0.417969 "/>
</g>
</svg>
