<?xml version="1.0" encoding="UTF-8"?>
<svg xmlns="http://www.w3.org/2000/svg" xmlns:xlink="http://www.w3.org/1999/xlink" width="15pt" height="15pt" viewBox="0 0 15 15" version="1.1">
<g id="surface1">
<path style=" stroke:none;fill-rule:nonzero;fill:rgb(85.098039%,61.960784%,50.980392%);fill-opacity:1;" d="M 12.082031 7.082031 L 12.082031 9.167969 C 12.082031 10.890625 10.042969 12.917969 7.5 12.917969 C 4.957031 12.917969 2.917969 10.890625 2.917969 9.167969 L 2.917969 7.082031 L 2.082031 7.082031 L 2.082031 9.167969 C 2.082031 11.351562 4.277344 13.75 7.5 13.75 C 10.722656 13.75 12.917969 11.351562 12.917969 9.167969 L 12.917969 7.082031 Z M 12.082031 7.082031 "/>
<path style=" stroke:none;fill-rule:nonzero;fill:rgb(75.686275%,41.176471%,30.980392%);fill-opacity:1;" d="M 9.167969 13.367188 C 9.167969 13.808594 8.808594 14.167969 8.367188 14.167969 L 6.632812 14.167969 C 6.191406 14.167969 5.832031 13.808594 5.832031 13.367188 L 5.832031 13.296875 C 5.832031 12.859375 6.191406 12.5 6.632812 12.5 L 8.367188 12.5 C 8.808594 12.5 9.167969 12.859375 9.167969 13.296875 Z M 9.167969 13.367188 "/>
<path style=" stroke:none;fill-rule:nonzero;fill:rgb(91.764706%,34.901961%,43.137255%);fill-opacity:1;" d="M 0.832031 7.082031 C 0.832031 5.933594 3.589844 5 7.5 5 C 11.410156 5 14.167969 5.933594 14.167969 7.082031 C 14.167969 8.234375 11.410156 9.582031 7.5 9.582031 C 3.589844 9.582031 0.832031 8.234375 0.832031 7.082031 Z M 0.832031 7.082031 "/>
<path style=" stroke:none;fill-rule:nonzero;fill:rgb(86.666667%,18.039216%,26.666667%);fill-opacity:1;" d="M 1.25 6.667969 C 1.25 3.75 3.832031 0.832031 7.5 0.832031 C 11.167969 0.832031 13.75 3.75 13.75 6.667969 C 13.75 7.082031 11.167969 8.332031 7.5 8.332031 C 3.832031 8.332031 1.25 7.082031 1.25 6.667969 Z M 1.25 6.667969 "/>
<path style=" stroke:none;fill-rule:nonzero;fill:rgb(62.745098%,1.568627%,11.764706%);fill-opacity:1;" d="M 10.417969 7.917969 C 10.1875 7.917969 10 7.730469 10 7.5 C 10 4.28125 9.195312 1.824219 9.1875 1.796875 C 9.117188 1.578125 9.234375 1.34375 9.453125 1.269531 C 9.667969 1.199219 9.90625 1.316406 9.980469 1.535156 C 10.011719 1.632812 10.761719 3.914062 10.828125 7.042969 C 11.304688 6.976562 12.148438 6.792969 13.148438 6.292969 C 13.351562 6.191406 13.601562 6.273438 13.707031 6.480469 C 13.808594 6.6875 13.726562 6.9375 13.519531 7.039062 C 11.785156 7.90625 10.472656 7.917969 10.417969 7.917969 Z M 4.582031 7.917969 C 4.527344 7.917969 3.214844 7.90625 1.480469 7.039062 C 1.273438 6.9375 1.191406 6.6875 1.292969 6.480469 C 1.398438 6.273438 1.648438 6.191406 1.851562 6.292969 C 2.851562 6.792969 3.695312 6.976562 4.171875 7.042969 C 4.242188 3.914062 4.988281 1.632812 5.023438 1.535156 C 5.09375 1.316406 5.332031 1.199219 5.546875 1.269531 C 5.765625 1.34375 5.886719 1.578125 5.8125 1.796875 C 5.804688 1.824219 5 4.28125 5 7.5 C 5 7.730469 4.8125 7.917969 4.582031 7.917969 Z M 4.582031 7.917969 "/>
<path style=" stroke:none;fill-rule:nonzero;fill:rgb(100%,100%,100%);fill-opacity:1;" d="M 8.75 5 L 7.917969 5 L 7.917969 4.167969 C 7.917969 3.9375 7.730469 3.75 7.5 3.75 C 7.269531 3.75 7.082031 3.9375 7.082031 4.167969 L 7.082031 5 L 6.25 5 C 6.019531 5 5.832031 5.1875 5.832031 5.417969 C 5.832031 5.648438 6.019531 5.832031 6.25 5.832031 L 7.082031 5.832031 L 7.082031 6.667969 C 7.082031 6.898438 7.269531 7.082031 7.5 7.082031 C 7.730469 7.082031 7.917969 6.898438 7.917969 6.667969 L 7.917969 5.832031 L 8.75 5.832031 C 8.980469 5.832031 9.167969 5.648438 9.167969 5.417969 C 9.167969 5.1875 8.980469 5 8.75 5 Z M 8.75 5 "/>
</g>
</svg>
