<?xml version="1.0" encoding="UTF-8"?>
<svg xmlns="http://www.w3.org/2000/svg" xmlns:xlink="http://www.w3.org/1999/xlink" width="15pt" height="15pt" viewBox="0 0 15 15" version="1.1">
<g id="surface1">
<path style=" stroke:none;fill-rule:nonzero;fill:rgb(73.72549%,74.509804%,75.294118%);fill-opacity:1;" d="M 8.332031 0.832031 L 7.917969 0.832031 L 7.917969 0.417969 C 7.917969 0.1875 7.730469 0 7.5 0 C 7.269531 0 7.082031 0.1875 7.082031 0.417969 L 7.082031 0.832031 L 6.667969 0.832031 C 6.4375 0.832031 6.25 1.019531 6.25 1.25 C 6.25 1.480469 6.4375 1.667969 6.667969 1.667969 L 7.082031 1.667969 L 7.082031 4.167969 C 7.082031 4.398438 7.269531 4.582031 7.5 4.582031 C 7.730469 4.582031 7.917969 4.398438 7.917969 4.167969 L 7.917969 1.667969 L 8.332031 1.667969 C 8.5625 1.667969 8.75 1.480469 8.75 1.25 C 8.75 1.019531 8.5625 0.832031 8.332031 0.832031 Z M 8.332031 0.832031 "/>
<path style=" stroke:none;fill-rule:nonzero;fill:rgb(100%,85.098039%,51.372549%);fill-opacity:1;" d="M 7.5 3.75 L 5.355469 5.417969 L 5.417969 5.417969 L 5.417969 9.167969 L 9.582031 9.167969 L 9.582031 5.417969 L 9.644531 5.417969 Z M 7.5 3.75 "/>
<path style=" stroke:none;fill-rule:nonzero;fill:rgb(40%,12.941176%,7.45098%);fill-opacity:1;" d="M 8.332031 6.25 C 8.332031 5.789062 7.960938 5.417969 7.5 5.417969 C 7.039062 5.417969 6.667969 5.789062 6.667969 6.25 L 6.667969 9.167969 L 8.332031 9.167969 Z M 8.332031 6.25 "/>
<path style=" stroke:none;fill-rule:nonzero;fill:rgb(100%,85.098039%,51.372549%);fill-opacity:1;" d="M 7.5 7.5 L 1.667969 10.832031 L 1.667969 14.582031 C 1.667969 14.8125 1.851562 15 2.082031 15 L 12.917969 15 C 13.148438 15 13.332031 14.8125 13.332031 14.582031 L 13.332031 10.832031 Z M 7.5 7.5 "/>
<path style=" stroke:none;fill-rule:nonzero;fill:rgb(86.666667%,18.039216%,26.666667%);fill-opacity:1;" d="M 13.332031 11.25 C 13.261719 11.25 13.191406 11.234375 13.125 11.195312 L 7.5 7.980469 L 1.871094 11.195312 C 1.671875 11.308594 1.417969 11.238281 1.304688 11.039062 C 1.191406 10.839844 1.261719 10.585938 1.460938 10.472656 L 7.292969 7.136719 C 7.421875 7.066406 7.578125 7.066406 7.707031 7.136719 L 13.539062 10.472656 C 13.738281 10.585938 13.808594 10.839844 13.695312 11.039062 C 13.617188 11.175781 13.476562 11.25 13.332031 11.25 Z M 9.582031 5.832031 C 9.492188 5.832031 9.398438 5.804688 9.324219 5.742188 L 7.5 4.285156 L 5.675781 5.742188 C 5.496094 5.886719 5.234375 5.855469 5.089844 5.675781 C 4.949219 5.496094 4.976562 5.234375 5.15625 5.089844 L 7.238281 3.425781 C 7.390625 3.304688 7.609375 3.304688 7.761719 3.425781 L 9.84375 5.089844 C 10.023438 5.234375 10.050781 5.496094 9.910156 5.675781 C 9.828125 5.78125 9.707031 5.832031 9.582031 5.832031 Z M 9.582031 5.832031 "/>
<path style=" stroke:none;fill-rule:nonzero;fill:rgb(40%,12.941176%,7.45098%);fill-opacity:1;" d="M 5.417969 12.917969 C 5.417969 12.457031 5.042969 12.082031 4.582031 12.082031 C 4.121094 12.082031 3.75 12.457031 3.75 12.917969 L 3.75 15 L 5.417969 15 Z M 8.332031 12.082031 C 8.332031 11.625 7.960938 11.25 7.5 11.25 C 7.039062 11.25 6.667969 11.625 6.667969 12.082031 L 6.667969 15 L 8.332031 15 Z M 11.25 12.917969 C 11.25 12.457031 10.875 12.082031 10.417969 12.082031 C 9.957031 12.082031 9.582031 12.457031 9.582031 12.917969 L 9.582031 15 L 11.25 15 Z M 11.25 12.917969 "/>
</g>
</svg>
