<?xml version="1.0" encoding="UTF-8"?>
<svg xmlns="http://www.w3.org/2000/svg" xmlns:xlink="http://www.w3.org/1999/xlink" width="15pt" height="15pt" viewBox="0 0 15 15" version="1.1">
<g id="surface1">
<path style=" stroke:none;fill-rule:nonzero;fill:rgb(16.078431%,18.431373%,20%);fill-opacity:1;" d="M 7.953125 14.792969 L 5.105469 5.121094 C 5.105469 5.121094 4.511719 5.4375 4.019531 5.804688 C 3.890625 5.898438 3.195312 6.964844 3.054688 7.070312 C 2.320312 7.617188 1.574219 8.253906 1.476562 8.390625 C 1.285156 8.648438 0 15 0 15 Z M 7.953125 14.792969 "/>
<path style=" stroke:none;fill-rule:nonzero;fill:rgb(29.411765%,32.941176%,36.470588%);fill-opacity:1;" d="M 11.042969 6.355469 L 7.996094 2.515625 L 7.5 0.9375 L 5.261719 3.640625 L 4.855469 4.128906 C 4.6875 4.453125 4.167969 6.355469 4.167969 6.355469 L 3.644531 8.332031 L 1.355469 12.523438 L 0.382812 14.496094 L 13.332031 14.582031 Z M 11.042969 6.355469 "/>
<path style=" stroke:none;fill-rule:nonzero;fill:rgb(16.078431%,18.431373%,20%);fill-opacity:1;" d="M 5 14.167969 L 5.832031 14.167969 L 6.667969 7.605469 L 7.179688 6.855469 L 8.671875 4.675781 L 8.710938 4.0625 L 7.339844 5.917969 L 6.25 7.398438 L 5.253906 10.464844 L 5 11.25 L 4.253906 12.554688 L 3.332031 14.167969 Z M 10.023438 6.828125 L 9.207031 9.285156 L 8.75 10.832031 L 9.914062 14.011719 L 11.394531 13.984375 C 11.394531 13.984375 9.582031 11.09375 9.582031 10.832031 C 9.582031 10.785156 9.84375 9.714844 9.84375 9.714844 L 10.300781 7.824219 L 10.417969 7.1875 Z M 10.023438 6.828125 "/>
<path style=" stroke:none;fill-rule:nonzero;fill:rgb(16.078431%,18.431373%,20%);fill-opacity:1;" d="M 15 15 C 15 15 14.839844 13.398438 14.644531 12.046875 C 14.644531 12.046875 14.582031 10.429688 14.113281 9.894531 C 13.675781 9.398438 13.019531 9.113281 12.933594 9.078125 L 12.421875 7.609375 L 11.648438 5.417969 L 10.636719 4.53125 L 9.871094 3.855469 L 9.660156 3.59375 L 7.5 0.9375 L 8.453125 3.980469 L 8.671875 4.675781 L 10.023438 6.828125 L 10.300781 7.824219 L 10.898438 8.777344 L 11.222656 9.902344 L 11.667969 11.457031 L 10.832031 14.167969 Z M 15 15 "/>
<path style=" stroke:none;fill-rule:nonzero;fill:rgb(36.078431%,56.470588%,24.705882%);fill-opacity:1;" d="M 14.046875 13.515625 C 13.484375 13.515625 11.980469 13.75 11.769531 13.75 C 10.9375 13.75 10 13.019531 9.582031 13.019531 C 9.167969 13.019531 8.085938 13.75 7.253906 13.75 C 6.550781 13.75 6.25 13.410156 5.285156 13.410156 C 4.972656 13.410156 3.578125 13.773438 3.28125 13.738281 C 2.523438 13.640625 2.132812 13.332031 1.941406 13.332031 C 0.832031 13.332031 0 15 0 15 L 15 15 C 15 15 14.636719 13.515625 14.046875 13.515625 Z M 14.046875 13.515625 "/>
</g>
</svg>
