<?xml version="1.0" encoding="UTF-8"?>
<svg xmlns="http://www.w3.org/2000/svg" xmlns:xlink="http://www.w3.org/1999/xlink" width="15pt" height="15pt" viewBox="0 0 15 15" version="1.1">
<g id="surface1">
<path style=" stroke:none;fill-rule:nonzero;fill:rgb(100%,67.45098%,20%);fill-opacity:1;" d="M 14.167969 12.917969 L 0.832031 12.917969 C 0.375 12.917969 0 13.289062 0 13.75 L 0 15 L 15 15 L 15 13.75 C 15 13.289062 14.625 12.917969 14.167969 12.917969 Z M 14.167969 12.917969 "/>
<path style=" stroke:none;fill-rule:nonzero;fill:rgb(40%,45.882353%,49.803922%);fill-opacity:1;" d="M 7.082031 13.542969 C 7.007812 13.878906 6.675781 14.09375 6.339844 14.019531 C 6 13.945312 5.785156 13.613281 5.859375 13.277344 L 8.335938 0.625 C 8.410156 0.289062 8.742188 0.0742188 9.078125 0.148438 C 9.414062 0.21875 9.628906 0.554688 9.554688 0.890625 Z M 7.082031 13.542969 "/>
<path style=" stroke:none;fill-rule:nonzero;fill:rgb(86.666667%,18.039216%,26.666667%);fill-opacity:1;" d="M 8.902344 0.960938 C 5.191406 0.15625 1.667969 1.871094 1.035156 4.796875 C 1.035156 4.796875 0.855469 5.609375 1.265625 5.699219 C 1.671875 5.789062 2.664062 5.152344 2.664062 5.152344 L 12.84375 7.359375 C 12.84375 7.359375 13.480469 8.351562 13.886719 8.441406 C 14.292969 8.527344 14.472656 7.714844 14.472656 7.714844 C 15.105469 4.789062 12.613281 1.765625 8.902344 0.960938 Z M 8.902344 0.960938 "/>
<path style=" stroke:none;fill-rule:nonzero;fill:rgb(88.235294%,90.980392%,92.941176%);fill-opacity:1;" d="M 8.902344 0.960938 C 6.089844 0.351562 3.296875 2.226562 2.664062 5.148438 C 2.664062 5.148438 2.484375 5.964844 3.300781 6.140625 C 4.113281 6.316406 5.511719 5.769531 5.511719 5.769531 L 9.992188 6.742188 C 9.992188 6.742188 11.035156 7.820312 11.851562 7.996094 C 12.664062 8.171875 12.84375 7.359375 12.84375 7.359375 C 13.476562 4.4375 11.710938 1.570312 8.902344 0.960938 Z M 8.902344 0.960938 "/>
<path style=" stroke:none;fill-rule:nonzero;fill:rgb(86.666667%,18.039216%,26.666667%);fill-opacity:1;" d="M 8.902344 0.960938 C 7.441406 0.644531 6.148438 2.84375 5.511719 5.769531 C 5.511719 5.769531 6.558594 6.847656 7.371094 7.023438 L 7.777344 7.113281 C 8.59375 7.289062 9.992188 6.742188 9.992188 6.742188 C 10.625 3.816406 10.363281 1.277344 8.902344 0.960938 Z M 8.902344 0.960938 "/>
</g>
</svg>
