<?xml version="1.0" encoding="UTF-8"?>
<svg xmlns="http://www.w3.org/2000/svg" xmlns:xlink="http://www.w3.org/1999/xlink" width="15pt" height="15pt" viewBox="0 0 15 15" version="1.1">
<g id="surface1">
<path style=" stroke:none;fill-rule:nonzero;fill:rgb(60%,66.666667%,70.980392%);fill-opacity:1;" d="M 0.417969 9.550781 L 0.417969 12.277344 C 0.417969 13.78125 3.589844 15 7.5 15 C 11.410156 15 14.582031 13.78125 14.582031 12.277344 L 14.582031 9.550781 Z M 0.417969 9.550781 "/>
<path style=" stroke:none;fill-rule:nonzero;fill:rgb(88.235294%,90.980392%,92.941176%);fill-opacity:1;" d="M 14.582031 9.550781 C 14.582031 8.046875 11.410156 6.828125 7.5 6.828125 C 3.589844 6.828125 0.417969 8.046875 0.417969 9.550781 C 0.417969 11.054688 3.589844 12.277344 7.5 12.277344 C 11.410156 12.277344 14.582031 11.054688 14.582031 9.550781 Z M 14.582031 9.550781 "/>
<path style=" stroke:none;fill-rule:nonzero;fill:rgb(66.666667%,72.156863%,76.078431%);fill-opacity:1;" d="M 7.5 8.460938 C 10.292969 8.460938 12.628906 9.15625 13.296875 10.097656 C 13.421875 9.921875 13.492188 9.738281 13.492188 9.550781 C 13.492188 8.347656 10.808594 7.371094 7.5 7.371094 C 4.191406 7.371094 1.507812 8.347656 1.507812 9.550781 C 1.507812 9.738281 1.578125 9.921875 1.703125 10.097656 C 2.371094 9.15625 4.707031 8.460938 7.5 8.460938 Z M 7.5 8.460938 "/>
<path style=" stroke:none;fill-rule:nonzero;fill:rgb(23.137255%,53.333333%,76.470588%);fill-opacity:1;" d="M 13.296875 10.097656 C 13.296875 9.195312 10.703125 8.460938 7.5 8.460938 C 4.296875 8.460938 1.703125 9.195312 1.703125 10.097656 C 1.703125 11 4.296875 11.730469 7.5 11.730469 C 10.703125 11.730469 13.296875 11 13.296875 10.097656 Z M 13.296875 10.097656 "/>
<path style=" stroke:none;fill-rule:nonzero;fill:rgb(31.372549%,64.705882%,90.196078%);fill-opacity:1;" d="M 7.5 9.21875 C 5.625 9.21875 3.488281 9.753906 3.488281 10.097656 C 3.488281 10.4375 5.625 10.972656 7.5 10.972656 C 9.375 10.972656 11.511719 10.4375 11.511719 10.097656 C 11.511719 9.753906 9.375 9.21875 7.5 9.21875 Z M 7.5 9.21875 "/>
<path style=" stroke:none;fill-rule:nonzero;fill:rgb(88.235294%,90.980392%,92.941176%);fill-opacity:1;" d="M 6.25 9.421875 L 6.25 10 C 6.25 10.230469 6.808594 10.417969 7.5 10.417969 C 8.191406 10.417969 8.75 10.230469 8.75 10 L 8.75 9.421875 Z M 6.25 9.421875 "/>
<path style=" stroke:none;fill-rule:nonzero;fill:rgb(66.666667%,72.156863%,76.078431%);fill-opacity:1;" d="M 8.75 9.421875 C 8.75 9.191406 8.191406 9.007812 7.5 9.007812 C 6.808594 9.007812 6.25 9.191406 6.25 9.421875 C 6.25 9.652344 6.808594 9.839844 7.5 9.839844 C 8.191406 9.839844 8.75 9.652344 8.75 9.421875 Z M 8.75 9.421875 "/>
<path style=" stroke:none;fill-rule:nonzero;fill:rgb(10.980392%,38.823529%,60%);fill-opacity:1;" d="M 3.75 6.578125 C 3.519531 6.578125 3.332031 6.390625 3.332031 6.160156 L 3.332031 5.625 C 3.332031 4.359375 4.359375 3.332031 5.625 3.332031 C 6.890625 3.332031 7.917969 4.359375 7.917969 5.625 C 7.917969 5.855469 7.730469 6.042969 7.5 6.042969 C 7.269531 6.042969 7.082031 5.855469 7.082031 5.625 C 7.082031 4.820312 6.429688 4.167969 5.625 4.167969 C 4.820312 4.167969 4.167969 4.820312 4.167969 5.625 L 4.167969 6.160156 C 4.167969 6.390625 3.980469 6.578125 3.75 6.578125 Z M 3.75 6.578125 "/>
<path style=" stroke:none;fill-rule:nonzero;fill:rgb(53.333333%,78.823529%,97.647059%);fill-opacity:1;" d="M 10.832031 7.5 C 10.601562 7.5 10.417969 7.3125 10.417969 7.082031 L 10.417969 6.605469 C 10.417969 5.917969 9.855469 5.355469 9.167969 5.355469 C 8.476562 5.355469 7.917969 5.917969 7.917969 6.605469 C 7.917969 6.835938 7.730469 7.023438 7.5 7.023438 C 7.269531 7.023438 7.082031 6.835938 7.082031 6.605469 C 7.082031 5.457031 8.019531 4.523438 9.167969 4.523438 C 10.316406 4.523438 11.25 5.457031 11.25 6.605469 L 11.25 7.082031 C 11.25 7.3125 11.0625 7.5 10.832031 7.5 Z M 10.832031 7.5 "/>
<path style=" stroke:none;fill-rule:nonzero;fill:rgb(10.980392%,38.823529%,60%);fill-opacity:1;" d="M 13.332031 4.636719 C 13.101562 4.636719 12.917969 4.449219 12.917969 4.21875 C 12.917969 2.839844 11.796875 1.71875 10.417969 1.71875 C 9.039062 1.71875 7.917969 2.839844 7.917969 4.21875 C 7.917969 4.449219 7.730469 4.636719 7.5 4.636719 C 7.269531 4.636719 7.082031 4.449219 7.082031 4.21875 C 7.082031 2.378906 8.578125 0.886719 10.417969 0.886719 C 12.253906 0.886719 13.75 2.378906 13.75 4.21875 C 13.75 4.449219 13.5625 4.636719 13.332031 4.636719 Z M 13.332031 4.636719 "/>
<path style=" stroke:none;fill-rule:nonzero;fill:rgb(23.137255%,58.039216%,85.098039%);fill-opacity:1;" d="M 7.082031 9.441406 L 7.917969 9.441406 L 7.917969 3.332031 C 7.917969 1.496094 6.421875 0 4.582031 0 C 2.746094 0 1.25 1.496094 1.25 3.332031 C 1.25 3.5625 1.4375 3.75 1.667969 3.75 C 1.898438 3.75 2.082031 3.5625 2.082031 3.332031 C 2.082031 1.953125 3.203125 0.832031 4.582031 0.832031 C 5.960938 0.832031 7.082031 1.953125 7.082031 3.332031 Z M 7.082031 9.441406 "/>
<path style=" stroke:none;fill-rule:nonzero;fill:rgb(10.980392%,38.823529%,60%);fill-opacity:1;" d="M 13.75 5.832031 C 13.75 6.0625 13.5625 6.25 13.332031 6.25 C 13.101562 6.25 12.917969 6.0625 12.917969 5.832031 C 12.917969 5.601562 13.101562 5.417969 13.332031 5.417969 C 13.5625 5.417969 13.75 5.601562 13.75 5.832031 Z M 13.75 5.832031 "/>
<path style=" stroke:none;fill-rule:nonzero;fill:rgb(73.333333%,86.666667%,96.078431%);fill-opacity:1;" d="M 11.25 8.75 C 11.25 8.980469 11.0625 9.167969 10.832031 9.167969 C 10.601562 9.167969 10.417969 8.980469 10.417969 8.75 C 10.417969 8.519531 10.601562 8.332031 10.832031 8.332031 C 11.0625 8.332031 11.25 8.519531 11.25 8.75 Z M 11.25 8.75 "/>
<path style=" stroke:none;fill-rule:nonzero;fill:rgb(73.333333%,86.666667%,96.078431%);fill-opacity:1;" d="M 14.167969 0.832031 C 14.167969 1.0625 13.980469 1.25 13.75 1.25 C 13.519531 1.25 13.332031 1.0625 13.332031 0.832031 C 13.332031 0.601562 13.519531 0.417969 13.75 0.417969 C 13.980469 0.417969 14.167969 0.601562 14.167969 0.832031 Z M 14.167969 0.832031 "/>
<path style=" stroke:none;fill-rule:nonzero;fill:rgb(94.901961%,97.647059%,100%);fill-opacity:1;" d="M 6.25 8.332031 C 6.25 8.5625 6.0625 8.75 5.832031 8.75 C 5.601562 8.75 5.417969 8.5625 5.417969 8.332031 C 5.417969 8.101562 5.601562 7.917969 5.832031 7.917969 C 6.0625 7.917969 6.25 8.101562 6.25 8.332031 Z M 6.25 8.332031 "/>
<path style=" stroke:none;fill-rule:nonzero;fill:rgb(31.372549%,64.705882%,90.196078%);fill-opacity:1;" d="M 11.25 3.75 C 11.25 3.980469 11.0625 4.167969 10.832031 4.167969 C 10.601562 4.167969 10.417969 3.980469 10.417969 3.75 C 10.417969 3.519531 10.601562 3.332031 10.832031 3.332031 C 11.0625 3.332031 11.25 3.519531 11.25 3.75 Z M 11.25 3.75 "/>
<path style=" stroke:none;fill-rule:nonzero;fill:rgb(10.980392%,38.823529%,60%);fill-opacity:1;" d="M 8.75 0.417969 C 8.75 0.648438 8.5625 0.832031 8.332031 0.832031 C 8.101562 0.832031 7.917969 0.648438 7.917969 0.417969 C 7.917969 0.1875 8.101562 0 8.332031 0 C 8.5625 0 8.75 0.1875 8.75 0.417969 Z M 8.75 0.417969 "/>
<path style=" stroke:none;fill-rule:nonzero;fill:rgb(10.980392%,38.823529%,60%);fill-opacity:1;" d="M 4.167969 7.5 C 4.167969 7.730469 3.980469 7.917969 3.75 7.917969 C 3.519531 7.917969 3.332031 7.730469 3.332031 7.5 C 3.332031 7.269531 3.519531 7.082031 3.75 7.082031 C 3.980469 7.082031 4.167969 7.269531 4.167969 7.5 Z M 4.167969 7.5 "/>
<path style=" stroke:none;fill-rule:nonzero;fill:rgb(23.137255%,58.039216%,85.098039%);fill-opacity:1;" d="M 2.082031 5.417969 C 2.082031 5.648438 1.898438 5.832031 1.667969 5.832031 C 1.4375 5.832031 1.25 5.648438 1.25 5.417969 C 1.25 5.1875 1.4375 5 1.667969 5 C 1.898438 5 2.082031 5.1875 2.082031 5.417969 Z M 2.082031 5.417969 "/>
<path style=" stroke:none;fill-rule:nonzero;fill:rgb(53.333333%,78.823529%,97.647059%);fill-opacity:1;" d="M 5 2.082031 C 5 2.3125 4.8125 2.5 4.582031 2.5 C 4.351562 2.5 4.167969 2.3125 4.167969 2.082031 C 4.167969 1.851562 4.351562 1.667969 4.582031 1.667969 C 4.8125 1.667969 5 1.851562 5 2.082031 Z M 5 2.082031 "/>
</g>
</svg>
