<?xml version="1.0" encoding="UTF-8"?>
<svg xmlns="http://www.w3.org/2000/svg" xmlns:xlink="http://www.w3.org/1999/xlink" width="15pt" height="15pt" viewBox="0 0 15 15" version="1.1">
<g id="surface1">
<path style=" stroke:none;fill-rule:nonzero;fill:rgb(46.666667%,69.803922%,33.333333%);fill-opacity:1;" d="M 1.667969 15 L 13.332031 15 C 14.167969 15 14.886719 14.167969 14.886719 13.332031 C 14.886719 11.519531 12.957031 8.75 7.5 8.75 C 1.878906 8.75 0.0820312 11.441406 0.0820312 13.332031 C 0.0820312 14.167969 0.832031 15 1.667969 15 Z M 1.667969 15 "/>
<path style=" stroke:none;fill-rule:nonzero;fill:rgb(36.078431%,56.862745%,23.137255%);fill-opacity:1;" d="M 4.703125 12.292969 C 4.703125 12.292969 5.105469 12.570312 5.519531 12.570312 C 6.441406 10.539062 10.9375 9.445312 11.355469 9.445312 C 11.417969 9.445312 11.492188 9.4375 11.566406 9.425781 C 11.269531 9.308594 10.941406 9.207031 10.597656 9.117188 C 8.667969 9.144531 5.167969 10.75 4.703125 12.292969 Z M 4.703125 12.292969 "/>
<path style=" stroke:none;fill-rule:nonzero;fill:rgb(16.078431%,18.431373%,20%);fill-opacity:1;" d="M 7.917969 12.707031 C 7.917969 12.132812 6.703125 11.667969 5.207031 11.667969 C 3.710938 11.667969 2.5 12.132812 2.5 12.707031 C 2.5 13.285156 3.710938 13.75 5.207031 13.75 C 6.703125 13.75 7.917969 13.285156 7.917969 12.707031 Z M 7.917969 12.707031 "/>
<path style=" stroke:none;fill-rule:nonzero;fill:rgb(100%,67.45098%,20%);fill-opacity:1;" d="M 4.167969 1.667969 L 4.167969 12.5 C 4.167969 12.730469 4.351562 12.851562 4.582031 12.851562 C 4.8125 12.851562 5 12.730469 5 12.5 L 5 1.667969 Z M 4.167969 1.667969 "/>
<path style=" stroke:none;fill-rule:nonzero;fill:rgb(86.666667%,18.039216%,26.666667%);fill-opacity:1;" d="M 4.167969 1.25 C 4.167969 0.332031 4.871094 -0.164062 5.734375 0.144531 L 9.679688 1.550781 C 10.542969 1.859375 10.542969 2.367188 9.679688 2.671875 L 5.734375 4.082031 C 4.871094 4.390625 4.167969 3.894531 4.167969 2.976562 Z M 4.167969 1.25 "/>
</g>
</svg>
