<?xml version="1.0" encoding="UTF-8"?>
<svg xmlns="http://www.w3.org/2000/svg" xmlns:xlink="http://www.w3.org/1999/xlink" width="15pt" height="15pt" viewBox="0 0 15 15" version="1.1">
<g id="surface1">
<path style=" stroke:none;fill-rule:nonzero;fill:rgb(91.764706%,34.901961%,43.137255%);fill-opacity:1;" d="M 8.332031 4.792969 C 8.332031 4.445312 8.238281 4.167969 8.125 4.167969 C 8.011719 4.167969 7.917969 4.445312 7.917969 4.792969 C 7.917969 5.136719 8.011719 5.417969 8.125 5.417969 C 8.238281 5.417969 8.332031 5.136719 8.332031 4.792969 Z M 8.332031 4.792969 "/>
<path style=" stroke:none;fill-rule:nonzero;fill:rgb(91.764706%,34.901961%,43.137255%);fill-opacity:1;" d="M 10.832031 4.792969 C 10.832031 4.445312 10.738281 4.167969 10.625 4.167969 C 10.511719 4.167969 10.417969 4.445312 10.417969 4.792969 C 10.417969 5.136719 10.511719 5.417969 10.625 5.417969 C 10.738281 5.417969 10.832031 5.136719 10.832031 4.792969 Z M 10.832031 4.792969 "/>
<path style=" stroke:none;fill-rule:nonzero;fill:rgb(65.098039%,82.745098%,53.333333%);fill-opacity:1;" d="M 9.167969 4.792969 C 9.167969 4.445312 9.074219 4.167969 8.957031 4.167969 C 8.84375 4.167969 8.75 4.445312 8.75 4.792969 C 8.75 5.136719 8.84375 5.417969 8.957031 5.417969 C 9.074219 5.417969 9.167969 5.136719 9.167969 4.792969 Z M 9.167969 4.792969 "/>
<path style=" stroke:none;fill-rule:nonzero;fill:rgb(65.098039%,82.745098%,53.333333%);fill-opacity:1;" d="M 7.917969 4.792969 C 7.917969 4.445312 7.824219 4.167969 7.707031 4.167969 C 7.59375 4.167969 7.5 4.445312 7.5 4.792969 C 7.5 5.136719 7.59375 5.417969 7.707031 5.417969 C 7.824219 5.417969 7.917969 5.136719 7.917969 4.792969 Z M 7.917969 4.792969 "/>
<path style=" stroke:none;fill-rule:nonzero;fill:rgb(33.333333%,67.45098%,93.333333%);fill-opacity:1;" d="M 9.582031 4.792969 C 9.582031 4.445312 9.488281 4.167969 9.375 4.167969 C 9.261719 4.167969 9.167969 4.445312 9.167969 4.792969 C 9.167969 5.136719 9.261719 5.417969 9.375 5.417969 C 9.488281 5.417969 9.582031 5.136719 9.582031 4.792969 Z M 9.582031 4.792969 "/>
<path style=" stroke:none;fill-rule:nonzero;fill:rgb(33.333333%,67.45098%,93.333333%);fill-opacity:1;" d="M 11.25 4.792969 C 11.25 4.445312 11.15625 4.167969 11.042969 4.167969 C 10.925781 4.167969 10.832031 4.445312 10.832031 4.792969 C 10.832031 5.136719 10.925781 5.417969 11.042969 5.417969 C 11.15625 5.417969 11.25 5.136719 11.25 4.792969 Z M 11.25 4.792969 "/>
<path style=" stroke:none;fill-rule:nonzero;fill:rgb(33.333333%,67.45098%,93.333333%);fill-opacity:1;" d="M 12.917969 6.875 C 12.917969 6.53125 12.824219 6.25 12.707031 6.25 C 12.59375 6.25 12.5 6.53125 12.5 6.875 C 12.5 7.21875 12.59375 7.5 12.707031 7.5 C 12.824219 7.5 12.917969 7.21875 12.917969 6.875 Z M 12.917969 6.875 "/>
<path style=" stroke:none;fill-rule:nonzero;fill:rgb(33.333333%,67.45098%,93.333333%);fill-opacity:1;" d="M 1.667969 6.875 C 1.667969 6.53125 1.574219 6.25 1.457031 6.25 C 1.34375 6.25 1.25 6.53125 1.25 6.875 C 1.25 7.21875 1.34375 7.5 1.457031 7.5 C 1.574219 7.5 1.667969 7.21875 1.667969 6.875 Z M 1.667969 6.875 "/>
<path style=" stroke:none;fill-rule:nonzero;fill:rgb(65.098039%,82.745098%,53.333333%);fill-opacity:1;" d="M 13.75 6.875 C 13.75 6.53125 13.65625 6.25 13.542969 6.25 C 13.425781 6.25 13.332031 6.53125 13.332031 6.875 C 13.332031 7.21875 13.425781 7.5 13.542969 7.5 C 13.65625 7.5 13.75 7.21875 13.75 6.875 Z M 13.75 6.875 "/>
<path style=" stroke:none;fill-rule:nonzero;fill:rgb(65.098039%,82.745098%,53.333333%);fill-opacity:1;" d="M 2.917969 6.875 C 2.917969 6.53125 2.824219 6.25 2.707031 6.25 C 2.59375 6.25 2.5 6.53125 2.5 6.875 C 2.5 7.21875 2.59375 7.5 2.707031 7.5 C 2.824219 7.5 2.917969 7.21875 2.917969 6.875 Z M 2.917969 6.875 "/>
<path style=" stroke:none;fill-rule:nonzero;fill:rgb(95.686275%,56.470588%,4.705882%);fill-opacity:1;" d="M 14.167969 6.875 C 14.167969 6.53125 14.074219 6.25 13.957031 6.25 C 13.84375 6.25 13.75 6.53125 13.75 6.875 C 13.75 7.21875 13.84375 7.5 13.957031 7.5 C 14.074219 7.5 14.167969 7.21875 14.167969 6.875 Z M 14.167969 6.875 "/>
<path style=" stroke:none;fill-rule:nonzero;fill:rgb(95.686275%,56.470588%,4.705882%);fill-opacity:1;" d="M 2.5 6.875 C 2.5 6.53125 2.40625 6.25 2.292969 6.25 C 2.175781 6.25 2.082031 6.53125 2.082031 6.875 C 2.082031 7.21875 2.175781 7.5 2.292969 7.5 C 2.40625 7.5 2.5 7.21875 2.5 6.875 Z M 2.5 6.875 "/>
<path style=" stroke:none;fill-rule:nonzero;fill:rgb(95.686275%,56.470588%,4.705882%);fill-opacity:1;" d="M 10 5.207031 C 10 4.863281 9.90625 4.582031 9.792969 4.582031 C 9.675781 4.582031 9.582031 4.863281 9.582031 5.207031 C 9.582031 5.554688 9.675781 5.832031 9.792969 5.832031 C 9.90625 5.832031 10 5.554688 10 5.207031 Z M 10 5.207031 "/>
<path style=" stroke:none;fill-rule:nonzero;fill:rgb(80%,83.921569%,86.666667%);fill-opacity:1;" d="M 12.082031 6.875 L 12.082031 6.042969 C 12.082031 5.925781 12.175781 5.832031 12.292969 5.832031 L 13.082031 5.832031 L 12.917969 5 L 2.917969 5 L 2.75 5.832031 L 3.125 5.832031 C 3.238281 5.832031 3.332031 5.925781 3.332031 6.042969 L 3.332031 6.875 C 3.332031 6.988281 3.238281 7.082031 3.125 7.082031 L 11.875 7.082031 C 11.761719 7.082031 12.082031 6.988281 12.082031 6.875 Z M 12.082031 6.875 "/>
<path style=" stroke:none;fill-rule:nonzero;fill:rgb(40%,45.882353%,49.803922%);fill-opacity:1;" d="M 5.832031 6.875 C 5.832031 6.988281 5.738281 7.082031 5.625 7.082031 L 3.957031 7.082031 C 3.84375 7.082031 3.75 6.988281 3.75 6.875 L 3.75 6.042969 C 3.75 5.925781 3.84375 5.832031 3.957031 5.832031 L 5.625 5.832031 C 5.738281 5.832031 5.832031 5.925781 5.832031 6.042969 Z M 8.75 6.875 C 8.75 6.988281 8.65625 7.082031 8.542969 7.082031 L 6.875 7.082031 C 6.761719 7.082031 6.667969 6.988281 6.667969 6.875 L 6.667969 6.042969 C 6.667969 5.925781 6.761719 5.832031 6.875 5.832031 L 8.542969 5.832031 C 8.65625 5.832031 8.75 5.925781 8.75 6.042969 Z M 11.667969 6.875 C 11.667969 6.988281 11.574219 7.082031 11.457031 7.082031 L 9.792969 7.082031 C 9.675781 7.082031 9.582031 6.988281 9.582031 6.875 L 9.582031 6.042969 C 9.582031 5.925781 9.675781 5.832031 9.792969 5.832031 L 11.457031 5.832031 C 11.574219 5.832031 11.667969 5.925781 11.667969 6.042969 Z M 11.667969 6.875 "/>
<path style=" stroke:none;fill-rule:nonzero;fill:rgb(80%,83.921569%,86.666667%);fill-opacity:1;" d="M 13.917969 10.296875 C 13.917969 10.296875 14.582031 8.332031 14.582031 6.667969 L 0.417969 6.667969 C 0.832031 7.5 1.582031 8.980469 2.183594 9.53125 C 4.269531 11.445312 13.917969 10.296875 13.917969 10.296875 Z M 13.917969 10.296875 "/>
<path style=" stroke:none;fill-rule:nonzero;fill:rgb(86.666667%,18.039216%,26.666667%);fill-opacity:1;" d="M 1.566406 8.75 C 1.777344 9.070312 1.988281 9.351562 2.183594 9.53125 C 4.269531 11.445312 13.917969 10.296875 13.917969 10.296875 C 13.917969 10.296875 14.140625 9.632812 14.328125 8.75 Z M 1.566406 8.75 "/>
<path style=" stroke:none;fill-rule:nonzero;fill:rgb(40%,45.882353%,49.803922%);fill-opacity:1;" d="M 3.332031 8.125 C 3.332031 8.238281 3.238281 8.332031 3.125 8.332031 L 2.707031 8.332031 C 2.59375 8.332031 2.5 8.238281 2.5 8.125 L 2.5 7.707031 C 2.5 7.59375 2.59375 7.5 2.707031 7.5 L 3.125 7.5 C 3.238281 7.5 3.332031 7.59375 3.332031 7.707031 Z M 5 8.125 C 5 8.238281 4.90625 8.332031 4.792969 8.332031 L 4.375 8.332031 C 4.261719 8.332031 4.167969 8.238281 4.167969 8.125 L 4.167969 7.707031 C 4.167969 7.59375 4.261719 7.5 4.375 7.5 L 4.792969 7.5 C 4.90625 7.5 5 7.59375 5 7.707031 Z M 6.667969 8.125 C 6.667969 8.238281 6.574219 8.332031 6.457031 8.332031 L 6.042969 8.332031 C 5.925781 8.332031 5.832031 8.238281 5.832031 8.125 L 5.832031 7.707031 C 5.832031 7.59375 5.925781 7.5 6.042969 7.5 L 6.457031 7.5 C 6.574219 7.5 6.667969 7.59375 6.667969 7.707031 Z M 8.332031 8.125 C 8.332031 8.238281 8.238281 8.332031 8.125 8.332031 L 7.707031 8.332031 C 7.59375 8.332031 7.5 8.238281 7.5 8.125 L 7.5 7.707031 C 7.5 7.59375 7.59375 7.5 7.707031 7.5 L 8.125 7.5 C 8.238281 7.5 8.332031 7.59375 8.332031 7.707031 Z M 10 8.125 C 10 8.238281 9.90625 8.332031 9.792969 8.332031 L 9.375 8.332031 C 9.261719 8.332031 9.167969 8.238281 9.167969 8.125 L 9.167969 7.707031 C 9.167969 7.59375 9.261719 7.5 9.375 7.5 L 9.792969 7.5 C 9.90625 7.5 10 7.59375 10 7.707031 Z M 11.667969 8.125 C 11.667969 8.238281 11.574219 8.332031 11.457031 8.332031 L 11.042969 8.332031 C 10.925781 8.332031 10.832031 8.238281 10.832031 8.125 L 10.832031 7.707031 C 10.832031 7.59375 10.925781 7.5 11.042969 7.5 L 11.457031 7.5 C 11.574219 7.5 11.667969 7.59375 11.667969 7.707031 Z M 13.332031 8.125 C 13.332031 8.238281 13.238281 8.332031 13.125 8.332031 L 12.707031 8.332031 C 12.59375 8.332031 12.5 8.238281 12.5 8.125 L 12.5 7.707031 C 12.5 7.59375 12.59375 7.5 12.707031 7.5 L 13.125 7.5 C 13.238281 7.5 13.332031 7.59375 13.332031 7.707031 Z M 13.332031 8.125 "/>
<path style=" stroke:none;fill-rule:nonzero;fill:rgb(80%,83.921569%,86.666667%);fill-opacity:1;" d="M 6.25 5.417969 L 2.75 5.832031 L 3.125 3.246094 L 6.25 3.246094 Z M 6.25 5.417969 "/>
<path style=" stroke:none;fill-rule:nonzero;fill:rgb(80%,83.921569%,86.666667%);fill-opacity:1;" d="M 5.832031 3.125 C 5.832031 3.238281 5.738281 3.332031 5.625 3.332031 C 5.511719 3.332031 5.417969 3.238281 5.417969 3.125 L 5.417969 1.457031 C 5.417969 1.34375 5.511719 1.25 5.625 1.25 C 5.738281 1.25 5.832031 1.34375 5.832031 1.457031 Z M 5 3.957031 C 5 4.074219 4.90625 4.167969 4.792969 4.167969 C 4.675781 4.167969 4.582031 4.074219 4.582031 3.957031 L 4.582031 2.292969 C 4.582031 2.175781 4.675781 2.082031 4.792969 2.082031 C 4.90625 2.082031 5 2.175781 5 2.292969 Z M 5 3.957031 "/>
<path style=" stroke:none;fill-rule:nonzero;fill:rgb(13.333333%,40%,60%);fill-opacity:1;" d="M 6.457031 3.230469 C 6.457031 3.285156 6.363281 3.332031 6.25 3.332031 L 3.125 3.332031 C 3.011719 3.332031 2.917969 3.285156 2.917969 3.230469 L 2.917969 3.019531 C 2.917969 2.964844 3.011719 2.917969 3.125 2.917969 L 6.25 2.917969 C 6.363281 2.917969 6.457031 2.964844 6.457031 3.019531 Z M 6.457031 3.230469 "/>
<path style=" stroke:none;fill-rule:nonzero;fill:rgb(40%,45.882353%,49.803922%);fill-opacity:1;" d="M 5.625 3.75 L 3.0625 3.75 L 2.9375 4.582031 L 5.625 4.582031 C 5.738281 4.582031 5.832031 4.488281 5.832031 4.375 L 5.832031 3.957031 C 5.832031 3.84375 5.738281 3.75 5.625 3.75 Z M 5.625 3.75 "/>
<path style=" stroke:none;fill-rule:nonzero;fill:rgb(80%,83.921569%,86.666667%);fill-opacity:1;" d="M 4.582031 3.332031 L 5 3.332031 L 5 5 L 4.582031 5 Z M 4.582031 3.332031 "/>
<path style=" stroke:none;fill-rule:nonzero;fill:rgb(33.333333%,67.45098%,93.333333%);fill-opacity:1;" d="M 0 10 L 15 10 L 15 15 L 0 15 Z M 0 10 "/>
</g>
</svg>
