<?xml version="1.0" encoding="UTF-8"?>
<svg xmlns="http://www.w3.org/2000/svg" xmlns:xlink="http://www.w3.org/1999/xlink" width="15pt" height="15pt" viewBox="0 0 15 15" version="1.1">
<g id="surface1">
<path style=" stroke:none;fill-rule:nonzero;fill:rgb(83.137255%,67.058824%,53.333333%);fill-opacity:1;" d="M 10.953125 11.148438 C 10.734375 11.132812 10.679688 10.992188 10.660156 10.890625 C 10.59375 10.554688 10.542969 10.269531 10.519531 10.121094 L 9.019531 10.414062 C 9.089844 10.6875 9.292969 11.433594 9.546875 11.921875 C 9.695312 12.207031 9.84375 12.214844 10.242188 12.238281 C 10.242188 12.238281 11.898438 12.183594 12.96875 12.140625 C 13.335938 12.125 13.375 11.523438 13.058594 11.449219 C 12.746094 11.378906 12.394531 11.304688 12.109375 11.277344 C 11.914062 11.261719 11.054688 11.152344 10.953125 11.148438 Z M 5.773438 9.867188 C 5.535156 10.082031 5.566406 10.230469 5.644531 10.621094 C 5.644531 10.621094 6.109375 12.175781 6.417969 13.203125 C 6.527344 13.570312 7.125 13.46875 7.117188 13.144531 C 7.109375 12.824219 7.089844 12.464844 7.042969 12.183594 C 7.015625 11.992188 6.898438 11.132812 6.878906 11.035156 C 6.839844 10.816406 6.960938 10.730469 7.054688 10.683594 C 7.363281 10.535156 7.625 10.417969 7.765625 10.355469 L 7.101562 8.976562 C 6.855469 9.113281 6.1875 9.496094 5.773438 9.867188 Z M 5.773438 9.867188 "/>
<path style=" stroke:none;fill-rule:nonzero;fill:rgb(74.509804%,9.803922%,19.215686%);fill-opacity:1;" d="M 13.957031 11.242188 C 13.875 11.234375 13.585938 11.230469 13.480469 11.257812 L 12.835938 11.292969 C 12.800781 11.292969 12.777344 11.320312 12.78125 11.351562 C 12.789062 11.445312 12.910156 11.726562 12.789062 11.945312 C 12.707031 12.09375 12.515625 12.152344 12.5 12.230469 C 12.496094 12.253906 12.515625 12.277344 12.539062 12.277344 C 12.539062 12.277344 12.65625 12.273438 12.761719 12.28125 C 12.851562 12.320312 13.023438 12.355469 13.109375 12.449219 C 13.136719 12.511719 13.210938 12.566406 13.261719 12.734375 C 13.289062 12.835938 13.433594 13.289062 13.433594 13.289062 C 13.464844 13.40625 13.511719 13.433594 13.53125 13.496094 C 13.570312 13.621094 13.640625 13.964844 13.675781 14.074219 C 13.710938 14.179688 13.792969 14.226562 13.855469 14.234375 C 13.917969 14.242188 13.953125 14.230469 13.953125 14.230469 C 13.953125 14.230469 14.117188 14.078125 14.222656 13.390625 C 14.285156 12.988281 14.261719 11.347656 14.261719 11.347656 L 14.203125 11.300781 C 14.140625 11.253906 14.042969 11.25 13.957031 11.242188 Z M 13.957031 11.242188 "/>
<path style=" stroke:none;fill-rule:nonzero;fill:rgb(80%,83.921569%,86.666667%);fill-opacity:1;" d="M 13.011719 12.441406 C 12.996094 12.441406 12.984375 12.4375 12.972656 12.429688 C 12.929688 12.40625 12.914062 12.355469 12.9375 12.316406 L 13.007812 12.1875 C 13.03125 12.148438 13.082031 12.132812 13.121094 12.15625 C 13.164062 12.175781 13.175781 12.226562 13.15625 12.269531 L 13.082031 12.398438 C 13.070312 12.425781 13.039062 12.441406 13.011719 12.441406 Z M 13.011719 12.441406 "/>
<path style=" stroke:none;fill-rule:nonzero;fill:rgb(86.666667%,18.039216%,26.666667%);fill-opacity:1;" d="M 14.117188 12.21875 C 14.015625 12.179688 13.785156 12.027344 13.71875 11.863281 C 13.660156 11.714844 13.621094 11.316406 13.613281 11.242188 C 13.734375 11.230469 13.925781 11.238281 13.988281 11.242188 C 14.066406 11.25 14.175781 11.261719 14.230469 11.308594 C 14.234375 11.3125 14.136719 11.992188 14.117188 12.21875 Z M 14.117188 12.21875 "/>
<path style=" stroke:none;fill-rule:nonzero;fill:rgb(80%,83.921569%,86.666667%);fill-opacity:1;" d="M 14.226562 11.300781 C 14.226562 11.300781 14.226562 11.367188 14.195312 11.414062 C 14.164062 11.460938 14.140625 11.578125 14.132812 11.664062 C 14.125 11.75 14.089844 12.070312 14.097656 12.296875 C 14.109375 12.523438 14.179688 12.933594 14.183594 13.070312 C 14.1875 13.207031 14.183594 13.421875 14.15625 13.578125 C 14.128906 13.734375 14.097656 13.875 14.074219 13.960938 C 14.042969 14.074219 14 14.164062 13.953125 14.230469 C 13.953125 14.230469 14.132812 14.214844 14.269531 13.949219 C 14.378906 13.742188 14.4375 13.539062 14.457031 13.34375 C 14.460938 13.328125 14.503906 12.804688 14.527344 12.542969 C 14.542969 12.351562 14.566406 12.046875 14.566406 12.046875 C 14.601562 11.6875 14.609375 11.503906 14.59375 11.433594 C 14.589844 11.421875 14.589844 11.371094 14.550781 11.316406 C 14.523438 11.28125 14.234375 11.253906 14.226562 11.300781 Z M 13.199219 12.667969 C 13.167969 12.667969 13.136719 12.652344 13.121094 12.621094 C 13.101562 12.582031 13.121094 12.53125 13.160156 12.511719 L 13.292969 12.449219 C 13.335938 12.429688 13.382812 12.445312 13.40625 12.488281 C 13.425781 12.527344 13.40625 12.578125 13.367188 12.597656 L 13.234375 12.660156 C 13.222656 12.667969 13.210938 12.667969 13.199219 12.667969 Z M 13.308594 12.941406 C 13.273438 12.941406 13.242188 12.921875 13.230469 12.882812 C 13.21875 12.839844 13.242188 12.792969 13.285156 12.78125 L 13.433594 12.734375 C 13.476562 12.71875 13.523438 12.746094 13.539062 12.789062 C 13.550781 12.832031 13.527344 12.878906 13.484375 12.894531 L 13.335938 12.9375 C 13.328125 12.941406 13.316406 12.941406 13.308594 12.941406 Z M 13.40625 13.226562 C 13.367188 13.226562 13.332031 13.199219 13.324219 13.15625 C 13.316406 13.113281 13.347656 13.070312 13.390625 13.058594 L 13.53125 13.035156 C 13.578125 13.027344 13.617188 13.058594 13.625 13.101562 C 13.636719 13.148438 13.605469 13.191406 13.558594 13.199219 L 13.421875 13.222656 Z M 13.40625 13.226562 "/>
<path style=" stroke:none;fill-rule:nonzero;fill:rgb(74.509804%,9.803922%,19.215686%);fill-opacity:1;" d="M 7.546875 13.964844 C 7.53125 13.882812 7.464844 13.601562 7.414062 13.507812 L 7.21875 12.890625 C 7.210938 12.859375 7.179688 12.84375 7.148438 12.855469 C 7.058594 12.882812 6.816406 13.070312 6.574219 13.007812 C 6.414062 12.964844 6.308594 12.796875 6.230469 12.800781 C 6.203125 12.804688 6.1875 12.824219 6.191406 12.851562 C 6.191406 12.851562 6.226562 12.964844 6.246094 13.066406 C 6.226562 13.164062 6.234375 13.335938 6.167969 13.445312 C 6.113281 13.484375 6.078125 13.570312 5.929688 13.660156 C 5.839844 13.714844 5.433594 13.964844 5.433594 13.964844 C 5.328125 14.027344 5.316406 14.078125 5.257812 14.113281 C 5.144531 14.183594 4.832031 14.335938 4.734375 14.394531 C 4.640625 14.457031 4.613281 14.546875 4.621094 14.609375 C 4.628906 14.671875 4.652344 14.707031 4.652344 14.707031 C 4.652344 14.707031 4.839844 14.824219 5.53125 14.753906 C 5.9375 14.714844 7.519531 14.285156 7.519531 14.285156 L 7.550781 14.21875 C 7.582031 14.148438 7.558594 14.050781 7.546875 13.964844 Z M 7.546875 13.964844 "/>
<path style=" stroke:none;fill-rule:nonzero;fill:rgb(80%,83.921569%,86.666667%);fill-opacity:1;" d="M 6.375 13.445312 C 6.367188 13.445312 6.359375 13.445312 6.351562 13.445312 L 6.210938 13.40625 C 6.167969 13.394531 6.140625 13.347656 6.152344 13.304688 C 6.164062 13.261719 6.207031 13.234375 6.253906 13.246094 L 6.394531 13.28125 C 6.441406 13.292969 6.464844 13.339844 6.453125 13.382812 C 6.445312 13.421875 6.410156 13.445312 6.375 13.445312 Z M 6.375 13.445312 "/>
<path style=" stroke:none;fill-rule:nonzero;fill:rgb(86.666667%,18.039216%,26.666667%);fill-opacity:1;" d="M 6.640625 14.363281 C 6.65625 14.253906 6.746094 13.996094 6.886719 13.890625 C 7.015625 13.796875 7.390625 13.65625 7.460938 13.632812 C 7.503906 13.75 7.542969 13.933594 7.554688 13.996094 C 7.566406 14.074219 7.578125 14.179688 7.546875 14.246094 C 7.527344 14.292969 6.902344 14.320312 6.640625 14.363281 Z M 6.640625 14.363281 "/>
<path style=" stroke:none;fill-rule:nonzero;fill:rgb(80%,83.921569%,86.666667%);fill-opacity:1;" d="M 7.558594 14.242188 C 7.558594 14.242188 7.492188 14.257812 7.4375 14.238281 C 7.386719 14.21875 7.269531 14.226562 7.183594 14.242188 C 7.097656 14.253906 6.777344 14.300781 6.558594 14.367188 C 6.34375 14.429688 5.964844 14.601562 5.832031 14.640625 C 5.699219 14.675781 5.492188 14.726562 5.332031 14.738281 C 5.171875 14.75 5.03125 14.753906 4.941406 14.753906 C 4.824219 14.753906 4.726562 14.734375 4.652344 14.703125 C 4.652344 14.703125 4.710938 14.875 5 14.941406 C 5.230469 14.992188 5.441406 15 5.636719 14.972656 C 5.652344 14.972656 6.167969 14.886719 6.425781 14.839844 C 6.617188 14.808594 6.917969 14.757812 6.917969 14.757812 C 7.277344 14.703125 7.457031 14.664062 7.519531 14.628906 C 7.53125 14.625 7.578125 14.609375 7.621094 14.558594 C 7.648438 14.527344 7.605469 14.234375 7.558594 14.242188 Z M 6.152344 13.757812 C 6.128906 13.757812 6.105469 13.75 6.085938 13.730469 L 5.992188 13.617188 C 5.964844 13.582031 5.96875 13.53125 6.003906 13.5 C 6.039062 13.472656 6.089844 13.476562 6.121094 13.511719 L 6.214844 13.621094 C 6.246094 13.65625 6.238281 13.710938 6.203125 13.738281 C 6.1875 13.753906 6.171875 13.757812 6.152344 13.757812 Z M 5.902344 13.957031 C 5.871094 13.957031 5.84375 13.941406 5.828125 13.914062 L 5.75 13.785156 C 5.722656 13.746094 5.738281 13.695312 5.777344 13.667969 C 5.8125 13.644531 5.867188 13.65625 5.890625 13.695312 L 5.972656 13.828125 C 5.996094 13.867188 5.984375 13.917969 5.945312 13.941406 C 5.929688 13.953125 5.914062 13.957031 5.902344 13.957031 Z M 5.628906 14.117188 C 5.597656 14.117188 5.566406 14.097656 5.550781 14.066406 L 5.492188 13.9375 C 5.472656 13.898438 5.492188 13.847656 5.535156 13.828125 C 5.578125 13.808594 5.625 13.828125 5.644531 13.871094 L 5.703125 13.996094 C 5.722656 14.039062 5.703125 14.089844 5.664062 14.109375 C 5.652344 14.113281 5.640625 14.117188 5.628906 14.117188 Z M 5.628906 14.117188 "/>
<path style=" stroke:none;fill-rule:nonzero;fill:rgb(62.745098%,1.568627%,11.764706%);fill-opacity:1;" d="M 6.851562 8.929688 C 7.164062 8.765625 8.203125 8.253906 8.914062 8.179688 C 8.976562 8.171875 9.035156 8.210938 9.058594 8.269531 L 9.582031 9.703125 C 9.609375 9.777344 9.566406 9.855469 9.488281 9.882812 C 9.164062 9.988281 8.347656 10.265625 7.730469 10.59375 C 7.664062 10.628906 7.585938 10.613281 7.546875 10.554688 C 7.359375 10.292969 6.882812 9.585938 6.773438 9.078125 C 6.761719 9.019531 6.792969 8.957031 6.851562 8.929688 Z M 6.851562 8.929688 "/>
<path style=" stroke:none;fill-rule:nonzero;fill:rgb(74.509804%,9.803922%,19.215686%);fill-opacity:1;" d="M 8.925781 10.644531 C 8.847656 10.300781 8.613281 9.164062 8.71875 8.460938 C 8.730469 8.394531 8.78125 8.351562 8.839844 8.34375 L 10.332031 8.199219 C 10.410156 8.191406 10.476562 8.25 10.480469 8.335938 C 10.5 8.675781 10.5625 9.535156 10.726562 10.214844 C 10.742188 10.289062 10.707031 10.359375 10.640625 10.386719 C 10.347656 10.496094 9.554688 10.78125 9.046875 10.757812 C 8.988281 10.753906 8.9375 10.707031 8.925781 10.644531 Z M 8.925781 10.644531 "/>
<path style=" stroke:none;fill-rule:nonzero;fill:rgb(83.137255%,67.058824%,53.333333%);fill-opacity:1;" d="M 7.511719 4.441406 C 7.496094 4.699219 7.585938 5.082031 8.179688 5.136719 C 8.777344 5.1875 9.351562 5.066406 9.59375 4.976562 C 9.839844 4.890625 9.859375 5.328125 9.964844 5.730469 C 10.074219 6.136719 10.148438 6.457031 10.136719 6.542969 C 10.113281 6.6875 9.832031 6.988281 9.972656 7.226562 C 10.113281 7.46875 10.328125 7.691406 10.558594 7.585938 C 10.789062 7.476562 10.980469 7.351562 11.03125 7.214844 C 11.085938 7.074219 10.773438 6.691406 10.75 6.578125 C 10.730469 6.464844 10.71875 4.957031 10.691406 4.785156 C 10.65625 4.578125 10.621094 4.296875 10.269531 4.207031 C 9.921875 4.113281 8.539062 3.957031 8.191406 3.917969 C 7.796875 3.875 7.535156 4.101562 7.511719 4.441406 Z M 7.511719 4.441406 "/>
<path style=" stroke:none;fill-rule:nonzero;fill:rgb(83.137255%,67.058824%,53.333333%);fill-opacity:1;" d="M 7.972656 2.652344 C 8.101562 2.484375 8.199219 2.289062 8.246094 2.046875 C 8.417969 1.179688 7.917969 0.347656 7.128906 0.195312 C 6.339844 0.0390625 5.257812 0.625 5.285156 1.507812 C 5.308594 2.386719 5.796875 3.679688 6.53125 3.460938 C 6.722656 3.402344 6.917969 3.339844 7.101562 3.265625 C 7.183594 3.359375 7.238281 3.714844 7.207031 4.019531 C 7.121094 4.800781 8.199219 4.878906 8.28125 4.101562 C 8.347656 3.484375 7.960938 3.089844 7.972656 2.652344 Z M 7.972656 2.652344 "/>
<path style=" stroke:none;fill-rule:nonzero;fill:rgb(58.823529%,23.137255%,13.333333%);fill-opacity:1;" d="M 10.226562 1.035156 C 9.679688 1.03125 9.183594 0.46875 8.621094 0.828125 C 8.511719 0.898438 8.433594 0.96875 8.371094 1.039062 C 8.273438 0.742188 8.105469 0.46875 7.828125 0.289062 C 7.558594 0.113281 7.230469 -0.0195312 6.914062 0.015625 C 5.007812 0.230469 5.113281 1.609375 5.257812 1.738281 C 5.402344 1.871094 5.796875 1.5 6.089844 1.460938 C 6.226562 1.441406 6.523438 1.4375 6.683594 1.664062 C 6.808594 1.847656 6.855469 2.21875 6.855469 2.21875 C 6.855469 2.21875 6.859375 1.796875 6.871094 1.648438 C 6.882812 1.511719 7.019531 1.351562 7.203125 1.558594 C 7.367188 1.734375 7.285156 2.085938 7.171875 2.121094 C 7.085938 2.152344 7.226562 2.363281 7.441406 2.523438 C 7.835938 2.816406 8.140625 2.703125 8.1875 2.683594 C 8.230469 2.667969 8.378906 2.636719 8.457031 2.128906 C 8.464844 2.058594 8.472656 1.984375 8.480469 1.90625 C 8.632812 2.039062 8.890625 2.203125 9.238281 2.203125 C 9.628906 2.207031 10.332031 2.007812 10.734375 1.527344 C 11.042969 1.15625 11.171875 0.546875 11.171875 0.546875 C 11.007812 0.855469 10.636719 1.042969 10.226562 1.035156 Z M 10.226562 1.035156 "/>
<path style=" stroke:none;fill-rule:nonzero;fill:rgb(86.666667%,18.039216%,26.666667%);fill-opacity:1;" d="M 9.339844 4.0625 C 8.96875 3.40625 8.433594 3.097656 7.871094 3.359375 C 6.855469 3.835938 6.769531 4.550781 7.109375 5.589844 C 7.359375 6.359375 7.980469 7.125 8.320312 8.476562 C 8.320312 8.476562 9.253906 8.558594 10.585938 8.417969 C 10.585938 8.417969 10.242188 5.644531 9.339844 4.0625 Z M 9.339844 4.0625 "/>
<path style=" stroke:none;fill-rule:nonzero;fill:rgb(83.137255%,67.058824%,53.333333%);fill-opacity:1;" d="M 8.300781 4.234375 C 8.050781 4.109375 7.675781 4.117188 7.371094 4.691406 C 7.0625 5.265625 6.964844 5.734375 6.878906 6.089844 C 6.816406 6.367188 6.347656 6.265625 5.898438 6.203125 C 5.445312 6.136719 4.753906 6.070312 4.675781 6.019531 C 4.59375 5.96875 4.046875 5.859375 3.851562 5.855469 C 3.710938 5.851562 3.015625 5.972656 2.851562 6.109375 C 2.660156 6.273438 3.957031 6.246094 4.074219 6.359375 C 4.191406 6.46875 4.457031 6.546875 4.621094 6.59375 C 4.746094 6.625 6.40625 7.121094 6.589844 7.164062 C 6.808594 7.21875 7.105469 7.308594 7.34375 6.996094 C 7.582031 6.683594 8.289062 5.464844 8.476562 5.132812 C 8.691406 4.753906 8.632812 4.398438 8.300781 4.234375 Z M 8.300781 4.234375 "/>
<path style=" stroke:none;fill-rule:nonzero;fill:rgb(100%,67.45098%,20%);fill-opacity:1;" d="M 4.167969 9.097656 C 4.167969 9.925781 3.496094 10.597656 2.664062 10.597656 C 1.835938 10.597656 1.164062 9.925781 1.164062 9.097656 C 1.164062 8.265625 1.835938 7.59375 2.664062 7.59375 C 3.496094 7.59375 4.167969 8.265625 4.167969 9.097656 Z M 4.167969 9.097656 "/>
<path style=" stroke:none;fill-rule:nonzero;fill:rgb(75.686275%,41.176471%,30.980392%);fill-opacity:1;" d="M 3.070312 9.023438 C 3.386719 9.320312 3.722656 9.554688 4.039062 9.695312 C 4.089844 9.582031 4.121094 9.457031 4.144531 9.328125 C 3.882812 9.203125 3.601562 9.003906 3.335938 8.757812 L 3.878906 8.214844 C 3.804688 8.113281 3.714844 8.023438 3.617188 7.945312 L 3.070312 8.492188 C 2.800781 8.203125 2.585938 7.894531 2.460938 7.613281 C 2.335938 7.632812 2.210938 7.660156 2.097656 7.707031 C 2.101562 7.71875 2.101562 7.730469 2.109375 7.746094 C 2.25 8.070312 2.496094 8.425781 2.804688 8.757812 L 2.261719 9.300781 C 1.929688 8.992188 1.578125 8.746094 1.253906 8.605469 C 1.210938 8.726562 1.183594 8.855469 1.175781 8.988281 C 1.441406 9.113281 1.722656 9.3125 1.996094 9.566406 L 1.515625 10.046875 C 1.59375 10.144531 1.683594 10.234375 1.785156 10.304688 L 2.261719 9.832031 C 2.507812 10.097656 2.6875 10.355469 2.804688 10.582031 C 2.9375 10.570312 3.0625 10.542969 3.183594 10.5 C 3.035156 10.1875 2.800781 9.855469 2.53125 9.5625 Z M 3.070312 9.023438 "/>
</g>
</svg>
