<?xml version="1.0" encoding="UTF-8"?>
<svg xmlns="http://www.w3.org/2000/svg" xmlns:xlink="http://www.w3.org/1999/xlink" width="15pt" height="15pt" viewBox="0 0 15 15" version="1.1">
<g id="surface1">
<path style=" stroke:none;fill-rule:nonzero;fill:rgb(95.294118%,82.352941%,63.529412%);fill-opacity:1;" d="M 10.957031 11.09375 C 10.816406 11.082031 10.75 11.023438 10.722656 10.886719 C 10.644531 10.492188 10.589844 10.167969 10.574219 10.054688 L 8.941406 10.375 C 8.992188 10.570312 9.210938 11.417969 9.492188 11.960938 C 9.65625 12.277344 9.839844 12.285156 10.238281 12.308594 C 10.238281 12.308594 11.792969 12.253906 12.867188 12.214844 C 13.34375 12.195312 13.375 11.464844 12.972656 11.375 C 12.683594 11.308594 12.371094 11.25 12.117188 11.222656 C 11.921875 11.203125 11.058594 11.097656 10.957031 11.09375 Z M 7.847656 10.394531 L 7.128906 8.898438 C 6.949219 8.992188 6.1875 9.417969 5.734375 9.828125 C 5.46875 10.066406 5.503906 10.246094 5.582031 10.640625 C 5.582031 10.640625 6.035156 12.15625 6.347656 13.183594 C 6.480469 13.628906 7.1875 13.480469 7.175781 13.082031 C 7.167969 12.777344 7.148438 12.445312 7.105469 12.183594 C 7.074219 11.988281 6.960938 11.125 6.941406 11.027344 C 6.914062 10.890625 6.957031 10.808594 7.082031 10.746094 C 7.441406 10.574219 7.742188 10.441406 7.847656 10.394531 Z M 7.847656 10.394531 "/>
<path style=" stroke:none;fill-rule:nonzero;fill:rgb(86.666667%,33.333333%,12.156863%);fill-opacity:1;" d="M 13.613281 11.242188 C 13.558594 11.242188 13.511719 11.25 13.480469 11.257812 L 12.835938 11.292969 C 12.804688 11.292969 12.777344 11.320312 12.78125 11.351562 C 12.789062 11.445312 12.910156 11.726562 12.789062 11.945312 C 12.707031 12.09375 12.515625 12.152344 12.5 12.230469 C 12.496094 12.253906 12.515625 12.277344 12.539062 12.277344 C 12.539062 12.277344 12.65625 12.273438 12.761719 12.28125 C 12.851562 12.320312 13.023438 12.355469 13.109375 12.449219 C 13.136719 12.511719 13.210938 12.566406 13.261719 12.734375 C 13.292969 12.835938 13.433594 13.289062 13.433594 13.289062 C 13.464844 13.40625 13.511719 13.433594 13.53125 13.496094 C 13.570312 13.621094 13.640625 13.964844 13.675781 14.074219 C 13.710938 14.179688 13.792969 14.226562 13.855469 14.234375 C 13.917969 14.242188 13.957031 14.230469 13.957031 14.230469 C 13.957031 14.230469 14.117188 14.078125 14.222656 13.390625 C 14.285156 12.988281 14.261719 11.347656 14.261719 11.347656 Z M 13.613281 11.242188 "/>
<path style=" stroke:none;fill-rule:nonzero;fill:rgb(80%,83.921569%,86.666667%);fill-opacity:1;" d="M 13.011719 12.441406 C 12.996094 12.441406 12.984375 12.4375 12.972656 12.429688 C 12.929688 12.40625 12.914062 12.355469 12.9375 12.316406 L 13.007812 12.1875 C 13.03125 12.148438 13.082031 12.132812 13.121094 12.15625 C 13.164062 12.175781 13.175781 12.226562 13.15625 12.269531 L 13.082031 12.398438 C 13.070312 12.425781 13.039062 12.441406 13.011719 12.441406 Z M 13.011719 12.441406 "/>
<path style=" stroke:none;fill-rule:nonzero;fill:rgb(98.039216%,45.490196%,24.313725%);fill-opacity:1;" d="M 14.117188 12.21875 C 14.015625 12.179688 13.785156 12.027344 13.71875 11.863281 C 13.660156 11.714844 13.621094 11.316406 13.613281 11.242188 C 13.734375 11.230469 13.925781 11.238281 13.988281 11.242188 C 14.066406 11.25 14.171875 11.261719 14.230469 11.3125 C 14.230469 11.3125 14.140625 11.953125 14.117188 12.21875 Z M 14.117188 12.21875 "/>
<path style=" stroke:none;fill-rule:nonzero;fill:rgb(80%,83.921569%,86.666667%);fill-opacity:1;" d="M 14.226562 11.300781 C 14.226562 11.300781 14.226562 11.367188 14.195312 11.414062 C 14.164062 11.460938 14.140625 11.578125 14.132812 11.664062 C 14.125 11.75 14.089844 12.070312 14.097656 12.296875 C 14.109375 12.523438 14.179688 12.933594 14.183594 13.070312 C 14.1875 13.207031 14.183594 13.421875 14.15625 13.578125 C 14.128906 13.734375 14.097656 13.875 14.074219 13.960938 C 14.042969 14.074219 14.003906 14.164062 13.953125 14.230469 C 13.953125 14.230469 14.132812 14.214844 14.269531 13.949219 C 14.378906 13.742188 14.4375 13.539062 14.460938 13.34375 L 14.570312 12.046875 C 14.601562 11.6875 14.609375 11.503906 14.59375 11.433594 C 14.589844 11.421875 14.589844 11.371094 14.550781 11.316406 C 14.523438 11.28125 14.234375 11.253906 14.226562 11.300781 Z M 13.199219 12.667969 C 13.167969 12.667969 13.136719 12.652344 13.121094 12.621094 C 13.101562 12.582031 13.121094 12.53125 13.160156 12.511719 L 13.292969 12.449219 C 13.335938 12.429688 13.386719 12.445312 13.40625 12.488281 C 13.425781 12.527344 13.410156 12.578125 13.367188 12.597656 L 13.234375 12.660156 C 13.222656 12.667969 13.210938 12.667969 13.199219 12.667969 Z M 13.308594 12.941406 C 13.273438 12.941406 13.242188 12.921875 13.230469 12.882812 C 13.21875 12.839844 13.242188 12.792969 13.285156 12.78125 L 13.433594 12.734375 C 13.480469 12.722656 13.523438 12.746094 13.539062 12.789062 C 13.550781 12.832031 13.527344 12.878906 13.484375 12.894531 L 13.335938 12.941406 C 13.328125 12.941406 13.316406 12.941406 13.308594 12.941406 Z M 13.40625 13.226562 C 13.367188 13.226562 13.332031 13.199219 13.324219 13.15625 C 13.316406 13.113281 13.347656 13.070312 13.390625 13.058594 L 13.53125 13.035156 C 13.574219 13.027344 13.621094 13.058594 13.628906 13.101562 C 13.636719 13.148438 13.605469 13.191406 13.558594 13.199219 L 13.421875 13.222656 Z M 13.40625 13.226562 "/>
<path style=" stroke:none;fill-rule:nonzero;fill:rgb(86.666667%,33.333333%,12.156863%);fill-opacity:1;" d="M 7.464844 13.632812 C 7.445312 13.578125 7.429688 13.539062 7.414062 13.507812 L 7.222656 12.890625 C 7.210938 12.859375 7.179688 12.84375 7.148438 12.855469 C 7.058594 12.882812 6.816406 13.070312 6.574219 13.007812 C 6.414062 12.964844 6.308594 12.796875 6.230469 12.800781 C 6.207031 12.804688 6.1875 12.824219 6.191406 12.851562 C 6.191406 12.851562 6.226562 12.964844 6.246094 13.066406 C 6.226562 13.164062 6.238281 13.335938 6.167969 13.445312 C 6.113281 13.484375 6.078125 13.570312 5.929688 13.660156 C 5.839844 13.714844 5.433594 13.964844 5.433594 13.964844 C 5.332031 14.027344 5.316406 14.078125 5.257812 14.113281 C 5.144531 14.183594 4.832031 14.335938 4.734375 14.394531 C 4.640625 14.457031 4.617188 14.546875 4.621094 14.609375 C 4.628906 14.671875 4.652344 14.707031 4.652344 14.707031 C 4.652344 14.707031 4.839844 14.824219 5.53125 14.753906 C 5.9375 14.714844 7.519531 14.289062 7.519531 14.289062 C 7.519531 14.289062 7.5 13.75 7.464844 13.632812 Z M 7.464844 13.632812 "/>
<path style=" stroke:none;fill-rule:nonzero;fill:rgb(80%,83.921569%,86.666667%);fill-opacity:1;" d="M 6.375 13.445312 C 6.367188 13.445312 6.359375 13.445312 6.355469 13.445312 L 6.210938 13.40625 C 6.167969 13.394531 6.140625 13.347656 6.152344 13.304688 C 6.164062 13.261719 6.207031 13.234375 6.253906 13.246094 L 6.394531 13.28125 C 6.441406 13.292969 6.46875 13.339844 6.457031 13.382812 C 6.445312 13.421875 6.410156 13.445312 6.375 13.445312 Z M 6.375 13.445312 "/>
<path style=" stroke:none;fill-rule:nonzero;fill:rgb(98.039216%,45.490196%,24.313725%);fill-opacity:1;" d="M 6.640625 14.363281 C 6.65625 14.253906 6.746094 13.996094 6.886719 13.890625 C 7.015625 13.796875 7.390625 13.65625 7.464844 13.632812 C 7.503906 13.75 7.546875 13.933594 7.554688 13.996094 C 7.566406 14.074219 7.585938 14.167969 7.546875 14.25 C 7.546875 14.25 6.902344 14.320312 6.640625 14.363281 Z M 6.640625 14.363281 "/>
<path style=" stroke:none;fill-rule:nonzero;fill:rgb(80%,83.921569%,86.666667%);fill-opacity:1;" d="M 7.558594 14.242188 C 7.558594 14.242188 7.492188 14.257812 7.4375 14.238281 C 7.386719 14.21875 7.269531 14.226562 7.183594 14.242188 C 7.097656 14.253906 6.777344 14.300781 6.558594 14.367188 C 6.34375 14.429688 5.964844 14.601562 5.832031 14.640625 C 5.699219 14.675781 5.492188 14.726562 5.332031 14.738281 C 5.175781 14.75 5.03125 14.753906 4.941406 14.753906 C 4.824219 14.753906 4.726562 14.734375 4.652344 14.703125 C 4.652344 14.703125 4.710938 14.875 5 14.941406 C 5.230469 14.992188 5.441406 15 5.636719 14.972656 C 5.652344 14.972656 6.917969 14.757812 6.917969 14.757812 C 7.277344 14.703125 7.457031 14.664062 7.519531 14.628906 C 7.53125 14.625 7.578125 14.609375 7.621094 14.558594 C 7.648438 14.527344 7.605469 14.234375 7.558594 14.242188 Z M 6.152344 13.757812 C 6.128906 13.757812 6.105469 13.75 6.085938 13.730469 L 5.992188 13.617188 C 5.964844 13.582031 5.96875 13.53125 6.003906 13.5 C 6.039062 13.472656 6.089844 13.476562 6.121094 13.511719 L 6.214844 13.621094 C 6.246094 13.65625 6.238281 13.710938 6.203125 13.738281 C 6.1875 13.753906 6.171875 13.757812 6.152344 13.757812 Z M 5.902344 13.957031 C 5.871094 13.957031 5.84375 13.941406 5.828125 13.914062 L 5.75 13.785156 C 5.722656 13.746094 5.738281 13.695312 5.777344 13.667969 C 5.816406 13.644531 5.867188 13.65625 5.890625 13.695312 L 5.972656 13.828125 C 5.996094 13.867188 5.984375 13.917969 5.945312 13.941406 C 5.929688 13.953125 5.914062 13.957031 5.902344 13.957031 Z M 5.628906 14.117188 C 5.597656 14.117188 5.566406 14.097656 5.554688 14.066406 L 5.492188 13.9375 C 5.472656 13.898438 5.492188 13.847656 5.535156 13.828125 C 5.578125 13.808594 5.625 13.828125 5.644531 13.867188 L 5.703125 13.996094 C 5.722656 14.039062 5.707031 14.089844 5.664062 14.109375 C 5.652344 14.113281 5.640625 14.117188 5.628906 14.117188 Z M 5.628906 14.117188 "/>
<path style=" stroke:none;fill-rule:nonzero;fill:rgb(77.647059%,22.352941%,0%);fill-opacity:1;" d="M 6.835938 8.898438 C 7.140625 8.738281 8.160156 8.226562 8.863281 8.164062 C 8.929688 8.160156 8.988281 8.199219 9.007812 8.261719 L 9.554688 9.742188 C 9.582031 9.816406 9.542969 9.902344 9.464844 9.925781 C 9.144531 10.027344 8.339844 10.296875 7.734375 10.625 C 7.667969 10.660156 7.589844 10.640625 7.550781 10.582031 C 7.363281 10.3125 6.875 9.574219 6.761719 9.050781 C 6.746094 8.988281 6.777344 8.929688 6.835938 8.898438 Z M 6.835938 8.898438 "/>
<path style=" stroke:none;fill-rule:nonzero;fill:rgb(86.666667%,33.333333%,12.156863%);fill-opacity:1;" d="M 8.890625 10.65625 C 8.808594 10.3125 8.574219 9.179688 8.6875 8.472656 C 8.699219 8.40625 8.75 8.363281 8.816406 8.355469 L 10.363281 8.203125 C 10.445312 8.191406 10.515625 8.253906 10.519531 8.335938 C 10.535156 8.675781 10.597656 9.535156 10.761719 10.21875 C 10.777344 10.289062 10.742188 10.363281 10.675781 10.386719 C 10.371094 10.5 9.542969 10.789062 9.015625 10.769531 C 8.953125 10.765625 8.902344 10.71875 8.890625 10.65625 Z M 8.890625 10.65625 "/>
<path style=" stroke:none;fill-rule:nonzero;fill:rgb(95.294118%,82.352941%,63.529412%);fill-opacity:1;" d="M 7.511719 4.449219 C 7.496094 4.707031 7.585938 5.089844 8.179688 5.140625 C 8.777344 5.195312 9.351562 5.074219 9.59375 4.984375 C 9.839844 4.894531 9.859375 5.332031 9.964844 5.738281 C 10.074219 6.144531 10.148438 6.460938 10.136719 6.550781 C 10.113281 6.695312 9.832031 6.996094 9.972656 7.234375 C 10.113281 7.476562 10.328125 7.699219 10.558594 7.589844 C 10.789062 7.484375 10.980469 7.359375 11.03125 7.222656 C 11.085938 7.082031 10.773438 6.699219 10.75 6.585938 C 10.730469 6.472656 10.71875 4.964844 10.691406 4.792969 C 10.65625 4.585938 10.621094 4.304688 10.269531 4.210938 C 9.921875 4.121094 8.539062 3.964844 8.191406 3.925781 C 7.796875 3.878906 7.535156 4.109375 7.511719 4.449219 Z M 6.859375 0.40625 C 6.089844 0.324219 5.148438 0.976562 5.210938 1.824219 C 5.292969 3.007812 6.195312 3.777344 6.878906 3.503906 C 7.597656 3.214844 8.007812 2.925781 8.09375 2.078125 C 8.179688 1.234375 7.628906 0.484375 6.859375 0.40625 Z M 6.859375 0.40625 "/>
<path style=" stroke:none;fill-rule:nonzero;fill:rgb(95.294118%,82.352941%,63.529412%);fill-opacity:1;" d="M 7.953125 2.332031 C 8.628906 0.863281 6.234375 1.660156 6.234375 1.660156 C 5.777344 1.804688 6.308594 2.480469 6.207031 2.960938 C 6.140625 3.289062 6.808594 3.269531 6.808594 3.269531 C 6.808594 3.269531 7.09375 3.183594 7.207031 3.527344 L 7.207031 3.53125 C 7.234375 3.621094 7.253906 3.726562 7.253906 3.878906 C 7.242188 4.632812 8.296875 4.796875 8.304688 4.042969 C 8.308594 3.746094 8.210938 3.511719 8.105469 3.296875 L 8.097656 3.28125 C 7.941406 2.964844 7.785156 2.691406 7.953125 2.332031 Z M 7.953125 2.332031 "/>
<path style=" stroke:none;fill-rule:nonzero;fill:rgb(100%,89.803922%,11.764706%);fill-opacity:1;" d="M 7.796875 0.402344 C 7.328125 0.0351562 6.066406 -0.0546875 5.5 0.734375 C 4.972656 0.789062 4.914062 1.320312 5.035156 1.585938 C 5.128906 1.796875 5.6875 1.703125 5.9375 2.082031 C 6.003906 1.949219 5.96875 1.730469 5.917969 1.621094 C 6.136719 1.738281 6.183594 2.195312 6.9375 2.289062 C 7.671875 2.382812 7.71875 2.992188 7.71875 2.992188 C 7.71875 2.992188 8.015625 2.734375 8.179688 2.386719 C 8.488281 1.730469 8.316406 0.804688 7.796875 0.402344 Z M 7.796875 0.402344 "/>
<path style=" stroke:none;fill-rule:nonzero;fill:rgb(98.039216%,45.490196%,24.313725%);fill-opacity:1;" d="M 9.339844 4.070312 C 8.96875 3.410156 8.417969 3.070312 7.871094 3.367188 C 7.097656 3.785156 6.933594 4.300781 6.980469 4.984375 C 7.039062 5.886719 8.019531 7.433594 8.179688 8.492188 C 8.179688 8.492188 9.253906 8.566406 10.585938 8.425781 C 10.585938 8.425781 10.242188 5.652344 9.339844 4.070312 Z M 9.339844 4.070312 "/>
<path style=" stroke:none;fill-rule:nonzero;fill:rgb(95.294118%,82.352941%,63.529412%);fill-opacity:1;" d="M 8.300781 4.238281 C 8.050781 4.117188 7.628906 4.039062 7.324219 4.613281 C 7.015625 5.191406 6.894531 5.816406 6.882812 6.097656 C 6.867188 6.378906 6.417969 6.21875 5.96875 6.152344 C 5.515625 6.085938 4.78125 6.015625 4.699219 5.964844 C 4.617188 5.914062 4.046875 5.867188 3.851562 5.863281 C 3.710938 5.859375 2.976562 5.980469 2.8125 6.117188 C 2.621094 6.277344 3.949219 6.308594 4.066406 6.421875 C 4.183594 6.535156 4.433594 6.621094 4.597656 6.664062 C 4.71875 6.699219 6.425781 7.234375 6.609375 7.277344 C 6.828125 7.332031 7.128906 7.414062 7.371094 7.101562 C 7.609375 6.792969 8.351562 5.472656 8.539062 5.140625 C 8.75 4.761719 8.632812 4.402344 8.300781 4.238281 Z M 8.300781 4.238281 "/>
<path style=" stroke:none;fill-rule:nonzero;fill:rgb(100%,67.45098%,20%);fill-opacity:1;" d="M 4.167969 9.097656 C 4.167969 9.925781 3.496094 10.597656 2.664062 10.597656 C 1.835938 10.597656 1.164062 9.925781 1.164062 9.097656 C 1.164062 8.265625 1.835938 7.59375 2.664062 7.59375 C 3.496094 7.59375 4.167969 8.265625 4.167969 9.097656 Z M 4.167969 9.097656 "/>
<path style=" stroke:none;fill-rule:nonzero;fill:rgb(75.686275%,41.176471%,30.980392%);fill-opacity:1;" d="M 3.070312 9.023438 C 3.386719 9.320312 3.722656 9.554688 4.039062 9.695312 C 4.089844 9.582031 4.121094 9.457031 4.144531 9.328125 C 3.882812 9.203125 3.601562 9.003906 3.335938 8.757812 L 3.878906 8.214844 C 3.804688 8.113281 3.714844 8.023438 3.617188 7.945312 L 3.070312 8.492188 C 2.800781 8.203125 2.585938 7.894531 2.460938 7.613281 C 2.335938 7.632812 2.210938 7.660156 2.097656 7.707031 C 2.101562 7.71875 2.101562 7.730469 2.109375 7.746094 C 2.25 8.070312 2.496094 8.425781 2.804688 8.757812 L 2.261719 9.300781 C 1.929688 8.992188 1.578125 8.746094 1.253906 8.605469 C 1.210938 8.726562 1.183594 8.855469 1.175781 8.988281 C 1.441406 9.113281 1.722656 9.3125 1.996094 9.566406 L 1.515625 10.046875 C 1.59375 10.144531 1.683594 10.234375 1.785156 10.304688 L 2.261719 9.832031 C 2.507812 10.097656 2.6875 10.355469 2.804688 10.582031 C 2.9375 10.570312 3.0625 10.542969 3.183594 10.5 C 3.035156 10.1875 2.800781 9.855469 2.53125 9.5625 Z M 3.070312 9.023438 "/>
</g>
</svg>
