<?xml version="1.0" encoding="UTF-8"?>
<svg xmlns="http://www.w3.org/2000/svg" xmlns:xlink="http://www.w3.org/1999/xlink" width="15pt" height="15pt" viewBox="0 0 15 15" version="1.1">
<g id="surface1">
<path style=" stroke:none;fill-rule:nonzero;fill:rgb(95.686275%,56.470588%,4.705882%);fill-opacity:1;" d="M 7.003906 13.75 C 6.761719 13.75 6.542969 13.597656 6.460938 13.363281 L 3.5625 5.253906 C 3.5 5.074219 3.527344 4.890625 3.632812 4.734375 C 3.742188 4.582031 3.917969 4.5 4.109375 4.5 L 10.90625 4.5 C 11.136719 4.5 11.347656 4.628906 11.4375 4.839844 L 14.914062 12.949219 C 14.992188 13.128906 14.972656 13.328125 14.867188 13.492188 C 14.757812 13.65625 14.574219 13.75 14.382812 13.75 Z M 7.003906 13.75 "/>
<path style=" stroke:none;fill-rule:nonzero;fill:rgb(100%,80%,30.196078%);fill-opacity:1;" d="M 0.632812 13.75 C 0.4375 13.75 0.253906 13.652344 0.148438 13.488281 C 0.0390625 13.328125 0.0234375 13.121094 0.0976562 12.941406 L 3.578125 4.824219 C 3.667969 4.613281 3.878906 4.472656 4.109375 4.472656 C 4.339844 4.472656 4.550781 4.613281 4.640625 4.824219 L 8.121094 12.941406 C 8.199219 13.121094 8.179688 13.328125 8.070312 13.488281 C 7.964844 13.652344 7.785156 13.75 7.589844 13.75 Z M 0.632812 13.75 "/>
<path style=" stroke:none;fill-rule:nonzero;fill:rgb(16.078431%,18.431373%,20%);fill-opacity:1;" d="M 4.109375 5.910156 L 2.949219 13.75 L 5.265625 13.75 Z M 4.109375 5.910156 "/>
<path style=" stroke:none;fill-rule:nonzero;fill:rgb(100%,67.45098%,20%);fill-opacity:1;" d="M 6.441406 13.105469 L 6.699219 13.75 L 5.265625 13.75 Z M 1.773438 13.105469 L 1.515625 13.75 L 2.949219 13.75 Z M 1.773438 13.105469 "/>
<path style=" stroke:none;fill-rule:nonzero;fill:rgb(100%,90.980392%,71.372549%);fill-opacity:1;" d="M 5.265625 13.75 C 5.265625 13.75 6.320312 13.480469 6.835938 13.003906 L 4.109375 5.910156 Z M 2.949219 13.75 C 2.949219 13.75 1.894531 13.480469 1.378906 13.003906 L 4.105469 5.910156 Z M 2.949219 13.75 "/>
</g>
</svg>
