<?xml version="1.0" encoding="UTF-8"?>
<svg xmlns="http://www.w3.org/2000/svg" xmlns:xlink="http://www.w3.org/1999/xlink" width="15pt" height="15pt" viewBox="0 0 15 15" version="1.1">
<g id="surface1">
<path style=" stroke:none;fill-rule:nonzero;fill:rgb(60%,66.666667%,70.980392%);fill-opacity:1;" d="M 12.5 13.75 C 11.492188 13.75 10.417969 13.203125 10.417969 11.667969 C 10.417969 10.804688 10.882812 10.21875 11.332031 9.652344 C 11.507812 9.429688 11.6875 9.203125 11.847656 8.957031 C 11.203125 8.367188 10.488281 7.917969 10 7.917969 L 10 7.082031 C 10.675781 7.082031 11.5 7.554688 12.242188 8.195312 C 12.398438 7.78125 12.5 7.289062 12.5 6.667969 L 13.332031 6.667969 C 13.332031 7.570312 13.148438 8.257812 12.882812 8.8125 C 13.488281 9.453125 13.964844 10.15625 14.144531 10.703125 C 14.433594 11.5625 14.347656 12.464844 13.921875 13.050781 C 13.597656 13.503906 13.09375 13.75 12.5 13.75 Z M 12.445312 9.5625 C 12.292969 9.78125 12.132812 9.980469 11.984375 10.167969 C 11.574219 10.6875 11.25 11.09375 11.25 11.667969 C 11.25 12.699219 11.929688 12.917969 12.5 12.917969 C 12.828125 12.917969 13.078125 12.796875 13.246094 12.566406 C 13.511719 12.195312 13.554688 11.566406 13.355469 10.964844 C 13.21875 10.558594 12.875 10.046875 12.445312 9.5625 Z M 12.445312 9.5625 "/>
<path style=" stroke:none;fill-rule:nonzero;fill:rgb(100%,67.45098%,20%);fill-opacity:1;" d="M 8.855469 4.167969 L 3.75 4.167969 C 2.828125 4.167969 2.132812 4.914062 2.191406 5.832031 L 2.679688 13.332031 C 2.738281 14.253906 3.417969 15 4.199219 15 L 8.40625 15 C 9.1875 15 9.867188 14.253906 9.925781 13.332031 L 10.414062 5.832031 C 10.472656 4.914062 9.777344 4.167969 8.855469 4.167969 Z M 8.855469 4.167969 "/>
<path style=" stroke:none;fill-rule:nonzero;fill:rgb(66.666667%,72.156863%,76.078431%);fill-opacity:1;" d="M 10.832031 13.75 L 1.667969 13.75 C 1.4375 13.75 1.25 13.9375 1.25 14.167969 L 1.25 15 L 11.25 15 L 11.25 14.167969 C 11.25 13.9375 11.0625 13.75 10.832031 13.75 Z M 10.832031 13.75 "/>
<path style=" stroke:none;fill-rule:nonzero;fill:rgb(100%,67.45098%,20%);fill-opacity:1;" d="M 12.917969 4.167969 C 12.6875 4.167969 12.5 3.980469 12.5 3.75 L 12.5 2.402344 L 13.378906 0.648438 C 13.480469 0.441406 13.730469 0.359375 13.9375 0.460938 C 14.140625 0.5625 14.226562 0.8125 14.121094 1.019531 L 13.332031 2.597656 L 13.332031 3.75 C 13.332031 3.980469 13.148438 4.167969 12.917969 4.167969 Z M 12.917969 4.167969 "/>
<path style=" stroke:none;fill-rule:nonzero;fill:rgb(74.509804%,9.803922%,19.215686%);fill-opacity:1;" d="M 13.957031 6.667969 L 13.632812 6.667969 C 13.707031 6.542969 13.75 6.402344 13.75 6.25 L 13.75 4.582031 C 13.75 4.277344 13.582031 4.011719 13.332031 3.867188 L 13.332031 3.75 C 13.332031 3.519531 13.148438 3.332031 12.917969 3.332031 C 12.6875 3.332031 12.5 3.519531 12.5 3.75 L 12.5 3.867188 C 12.25 4.011719 12.082031 4.277344 12.082031 4.582031 L 12.082031 6.25 C 12.082031 6.402344 12.128906 6.542969 12.199219 6.667969 L 11.875 6.667969 C 11.761719 6.667969 11.667969 6.761719 11.667969 6.875 C 11.667969 6.988281 11.761719 7.082031 11.875 7.082031 L 13.957031 7.082031 C 14.074219 7.082031 14.167969 6.988281 14.167969 6.875 C 14.167969 6.761719 14.074219 6.667969 13.957031 6.667969 Z M 13.957031 6.667969 "/>
<path style=" stroke:none;fill-rule:nonzero;fill:rgb(60%,66.666667%,70.980392%);fill-opacity:1;" d="M 10.417969 5.832031 C 10.417969 6.0625 10.601562 6.25 10.832031 6.25 L 12.917969 6.25 C 13.148438 6.25 13.332031 6.0625 13.332031 5.832031 C 13.332031 5.601562 13.148438 5.417969 12.917969 5.417969 L 10.832031 5.417969 C 10.601562 5.417969 10.417969 5.601562 10.417969 5.832031 Z M 10.417969 5.832031 "/>
<path style=" stroke:none;fill-rule:nonzero;fill:rgb(88.235294%,90.980392%,92.941176%);fill-opacity:1;" d="M 11.25 5.832031 C 11.25 6.753906 10.503906 7.5 9.582031 7.5 L 2.917969 7.5 C 1.996094 7.5 1.25 6.753906 1.25 5.832031 L 1.25 1.667969 C 1.25 0.746094 1.996094 0 2.917969 0 L 9.582031 0 C 10.503906 0 11.25 0.746094 11.25 1.667969 Z M 11.25 5.832031 "/>
<path style=" stroke:none;fill-rule:nonzero;fill:rgb(40%,45.882353%,49.803922%);fill-opacity:1;" d="M 10.417969 5.832031 C 10.417969 6.292969 10.042969 6.667969 9.582031 6.667969 L 2.917969 6.667969 C 2.457031 6.667969 2.082031 6.292969 2.082031 5.832031 L 2.082031 1.667969 C 2.082031 1.207031 2.457031 0.832031 2.917969 0.832031 L 9.582031 0.832031 C 10.042969 0.832031 10.417969 1.207031 10.417969 1.667969 Z M 10.417969 5.832031 "/>
<path style=" stroke:none;fill-rule:nonzero;fill:rgb(66.666667%,72.156863%,76.078431%);fill-opacity:1;" d="M 5.417969 2.082031 L 9.167969 2.082031 L 9.167969 3.332031 L 5.417969 3.332031 Z M 5.417969 2.082031 "/>
</g>
</svg>
