<?xml version="1.0" encoding="UTF-8"?>
<svg xmlns="http://www.w3.org/2000/svg" xmlns:xlink="http://www.w3.org/1999/xlink" width="15pt" height="15pt" viewBox="0 0 15 15" version="1.1">
<g id="surface1">
<path style=" stroke:none;fill-rule:nonzero;fill:rgb(86.666667%,18.039216%,26.666667%);fill-opacity:1;" d="M 7.003906 4.449219 C 6.621094 3.59375 6.167969 2.753906 5.742188 1.839844 C 5.730469 1.8125 5.71875 1.78125 5.707031 1.753906 C 5.679688 1.695312 5.652344 1.636719 5.621094 1.582031 L 5.597656 1.535156 C 4.914062 0.289062 3.476562 -0.28125 2.273438 0.257812 C 1.003906 0.828125 0.484375 2.421875 1.113281 3.816406 C 1.738281 5.214844 3.277344 5.882812 4.546875 5.3125 C 4.589844 5.292969 4.632812 5.269531 4.671875 5.246094 C 5.480469 5.429688 5.503906 6.027344 5.503906 6.027344 C 5.503906 6.027344 7.429688 5.394531 7.003906 4.449219 Z M 2.03125 3.40625 C 1.632812 2.515625 1.925781 1.519531 2.6875 1.175781 C 3.449219 0.835938 4.390625 1.277344 4.789062 2.167969 C 5.1875 3.054688 4.894531 4.050781 4.132812 4.394531 C 3.371094 4.734375 2.429688 4.292969 2.03125 3.40625 Z M 2.03125 3.40625 "/>
<path style=" stroke:none;fill-rule:nonzero;fill:rgb(60%,66.666667%,70.980392%);fill-opacity:1;" d="M 11.242188 14.527344 C 11.726562 14.253906 12.152344 13.496094 11.878906 13.011719 L 6.980469 4.398438 C 6.519531 4.605469 5.757812 5.363281 5.503906 6.03125 Z M 11.242188 14.527344 "/>
<path style=" stroke:none;fill-rule:nonzero;fill:rgb(86.666667%,18.039216%,26.666667%);fill-opacity:1;" d="M 12.726562 0.257812 C 11.523438 -0.28125 10.085938 0.289062 9.402344 1.535156 L 9.378906 1.582031 C 9.347656 1.636719 9.316406 1.695312 9.292969 1.753906 C 9.277344 1.78125 9.269531 1.808594 9.257812 1.839844 C 8.832031 2.753906 8.378906 3.59375 7.996094 4.449219 C 7.570312 5.394531 9.496094 6.027344 9.496094 6.027344 C 9.496094 6.027344 9.519531 5.429688 10.328125 5.246094 C 10.367188 5.269531 10.410156 5.292969 10.453125 5.3125 C 11.722656 5.882812 13.257812 5.214844 13.886719 3.816406 C 14.515625 2.421875 13.992188 0.828125 12.726562 0.257812 Z M 12.96875 3.40625 C 12.570312 4.292969 11.628906 4.734375 10.867188 4.394531 C 10.105469 4.050781 9.8125 3.054688 10.210938 2.167969 C 10.609375 1.277344 11.550781 0.835938 12.3125 1.175781 C 13.074219 1.519531 13.367188 2.515625 12.96875 3.40625 Z M 12.96875 3.40625 "/>
<path style=" stroke:none;fill-rule:nonzero;fill:rgb(80%,83.921569%,86.666667%);fill-opacity:1;" d="M 3.757812 14.527344 C 3.273438 14.253906 2.847656 13.496094 3.121094 13.011719 L 8.019531 4.398438 C 8.480469 4.605469 9.242188 5.363281 9.496094 6.03125 Z M 3.757812 14.527344 "/>
<path style=" stroke:none;fill-rule:nonzero;fill:rgb(60%,66.666667%,70.980392%);fill-opacity:1;" d="M 8.152344 7.25 C 8.152344 7.609375 7.859375 7.898438 7.5 7.898438 C 7.140625 7.898438 6.847656 7.609375 6.847656 7.25 C 6.847656 6.890625 7.140625 6.597656 7.5 6.597656 C 7.859375 6.597656 8.152344 6.890625 8.152344 7.25 Z M 8.152344 7.25 "/>
</g>
</svg>
