<?xml version="1.0" encoding="UTF-8"?>
<svg xmlns="http://www.w3.org/2000/svg" xmlns:xlink="http://www.w3.org/1999/xlink" width="15pt" height="15pt" viewBox="0 0 15 15" version="1.1">
<g id="surface1">
<path style=" stroke:none;fill-rule:nonzero;fill:rgb(40%,45.882353%,49.803922%);fill-opacity:1;" d="M 12.5 9.929688 C 12.335938 10.089844 12.074219 10.089844 11.910156 9.929688 L 11.320312 9.339844 C 11.160156 9.175781 11.160156 8.914062 11.320312 8.75 L 12.5 7.570312 C 12.664062 7.410156 12.925781 7.410156 13.089844 7.570312 L 13.679688 8.160156 C 13.839844 8.324219 13.839844 8.585938 13.679688 8.75 Z M 6.25 3.679688 C 6.085938 3.839844 5.824219 3.839844 5.660156 3.679688 L 5.070312 3.089844 C 4.910156 2.925781 4.910156 2.664062 5.070312 2.5 L 6.25 1.320312 C 6.414062 1.160156 6.675781 1.160156 6.839844 1.320312 L 7.429688 1.910156 C 7.589844 2.074219 7.589844 2.335938 7.429688 2.5 Z M 6.25 3.679688 "/>
<path style=" stroke:none;fill-rule:nonzero;fill:rgb(33.333333%,67.45098%,93.333333%);fill-opacity:1;" d="M 0.832031 9.167969 C 1.667969 9.167969 5.417969 9.582031 5.417969 9.582031 C 5.417969 9.582031 5.832031 13.332031 5.832031 14.167969 C 5.832031 15 5 15 4.582031 14.582031 C 4.167969 14.167969 2.917969 12.082031 2.917969 12.082031 C 2.917969 12.082031 0.832031 10.832031 0.417969 10.417969 C 0 10 0 9.167969 0.832031 9.167969 Z M 1.667969 2.515625 C 2.917969 2.5 12.082031 2.917969 12.082031 2.917969 C 12.082031 2.917969 12.46875 12.082031 12.484375 13.332031 C 12.5 14.582031 11.332031 15 10.875 13.332031 C 10.417969 11.667969 8.75 6.25 8.75 6.25 C 8.75 6.25 2.933594 4.410156 1.664062 4.125 C 0 3.75 0.417969 2.53125 1.667969 2.515625 Z M 1.667969 2.515625 "/>
<path style=" stroke:none;fill-rule:nonzero;fill:rgb(80%,83.921569%,86.666667%);fill-opacity:1;" d="M 11.25 1.25 C 12.082031 0.417969 14.167969 0 14.582031 0.417969 C 15 0.832031 14.582031 2.917969 13.75 3.75 C 12.917969 4.582031 5.832031 11.25 5.832031 11.25 C 5.832031 11.25 3.125 13.125 2.5 12.5 C 1.875 11.875 3.75 9.167969 3.75 9.167969 C 3.75 9.167969 10.417969 2.082031 11.25 1.25 Z M 11.25 1.25 "/>
<path style=" stroke:none;fill-rule:nonzero;fill:rgb(40%,45.882353%,49.803922%);fill-opacity:1;" d="M 5.832031 9.167969 C 5.832031 9.167969 6.042969 9.375 4.167969 11.25 C 2.292969 13.125 2.082031 12.917969 2.082031 12.917969 C 2.082031 12.917969 1.875 12.707031 3.75 10.832031 C 5.625 8.957031 5.832031 9.167969 5.832031 9.167969 Z M 12.082031 1.667969 C 12.773438 1.667969 13.332031 2.226562 13.332031 2.917969 L 13.667969 2.917969 C 13.714844 2.785156 13.75 2.648438 13.75 2.5 C 13.75 1.808594 13.191406 1.25 12.5 1.25 C 12.351562 1.25 12.214844 1.285156 12.082031 1.332031 Z M 12.082031 1.667969 "/>
</g>
</svg>
