<?xml version="1.0" encoding="UTF-8"?>
<svg xmlns="http://www.w3.org/2000/svg" xmlns:xlink="http://www.w3.org/1999/xlink" width="15pt" height="15pt" viewBox="0 0 15 15" version="1.1">
<g id="surface1">
<path style=" stroke:none;fill-rule:nonzero;fill:rgb(80%,83.921569%,86.666667%);fill-opacity:1;" d="M 15 11.25 C 15 12.171875 14.253906 12.917969 13.332031 12.917969 L 1.667969 12.917969 C 0.746094 12.917969 0 12.171875 0 11.25 L 0 3.75 C 0 2.828125 0.746094 2.082031 1.667969 2.082031 L 13.332031 2.082031 C 14.253906 2.082031 15 2.828125 15 3.75 Z M 15 11.25 "/>
<path style=" stroke:none;fill-rule:nonzero;fill:rgb(60%,66.666667%,70.980392%);fill-opacity:1;" d="M 4.980469 7.347656 L 0.265625 12.0625 C 0.253906 12.074219 0.25 12.089844 0.242188 12.101562 C 0.382812 12.335938 0.578125 12.535156 0.816406 12.675781 C 0.828125 12.667969 0.84375 12.664062 0.855469 12.652344 L 5.570312 7.9375 C 5.730469 7.773438 5.730469 7.511719 5.570312 7.347656 C 5.40625 7.183594 5.140625 7.183594 4.980469 7.347656 M 14.757812 12.101562 C 14.75 12.089844 14.746094 12.074219 14.734375 12.0625 L 10.019531 7.347656 C 9.859375 7.183594 9.59375 7.183594 9.433594 7.347656 C 9.269531 7.511719 9.269531 7.773438 9.433594 7.9375 L 14.144531 12.652344 C 14.15625 12.664062 14.171875 12.667969 14.183594 12.675781 C 14.421875 12.535156 14.617188 12.335938 14.757812 12.101562 "/>
<path style=" stroke:none;fill-rule:nonzero;fill:rgb(60%,66.666667%,70.980392%);fill-opacity:1;" d="M 13.332031 2.082031 L 1.667969 2.082031 C 0.746094 2.082031 0 2.828125 0 3.75 L 0 4.179688 L 6.054688 10.21875 C 6.84375 11.007812 8.132812 11.007812 8.921875 10.21875 L 15 4.171875 L 15 3.75 C 15 2.828125 14.253906 2.082031 13.332031 2.082031 Z M 13.332031 2.082031 "/>
<path style=" stroke:none;fill-rule:nonzero;fill:rgb(88.235294%,90.980392%,92.941176%);fill-opacity:1;" d="M 13.332031 2.082031 L 1.667969 2.082031 C 1.003906 2.082031 0.4375 2.472656 0.167969 3.03125 L 6.320312 9.183594 C 6.972656 9.835938 8.027344 9.835938 8.679688 9.183594 L 14.832031 3.03125 C 14.5625 2.472656 13.996094 2.082031 13.332031 2.082031 Z M 13.332031 2.082031 "/>
</g>
</svg>
