<?xml version="1.0" encoding="UTF-8"?>
<svg xmlns="http://www.w3.org/2000/svg" xmlns:xlink="http://www.w3.org/1999/xlink" width="15pt" height="15pt" viewBox="0 0 15 15" version="1.1">
<g id="surface1">
<path style=" stroke:none;fill-rule:nonzero;fill:rgb(87.843137%,66.666667%,58.039216%);fill-opacity:1;" d="M 13.425781 4.546875 C 13.085938 4.050781 12.519531 3.726562 11.875 3.726562 L 11.667969 3.726562 C 11.667969 3.726562 9.4375 1.363281 9.519531 1.191406 C 9.0625 1.4375 8.75 1.914062 8.75 2.46875 C 8.75 2.46875 6.453125 1.039062 6.5625 0.824219 C 6.128906 1.113281 5.832031 1.644531 5.832031 2.261719 L 5.832031 2.476562 C 5.832031 2.476562 3.5625 1.800781 3.691406 1.605469 C 3.230469 1.851562 2.917969 2.328125 2.917969 2.886719 L 2.917969 3.671875 L 0.417969 6.285156 L 0.417969 7.386719 L 7.566406 13.402344 C 7.566406 13.402344 13.035156 4.167969 13.425781 4.546875 Z M 13.425781 4.546875 "/>
<path style=" stroke:none;fill-rule:nonzero;fill:rgb(96.862745%,87.058824%,80.784314%);fill-opacity:1;" d="M 1.71875 7.894531 C 2.332031 7.894531 2.859375 7.546875 3.132812 7.042969 C 3.414062 7.546875 3.949219 7.894531 4.566406 7.894531 L 4.597656 7.894531 C 5.078125 7.894531 5.503906 7.683594 5.804688 7.351562 C 5.8125 7.34375 5.832031 7.320312 5.832031 7.320312 C 5.910156 7.230469 5.976562 7.132812 6.035156 7.03125 C 6.050781 7 6.152344 6.769531 6.175781 6.683594 C 6.199219 6.609375 6.21875 6.539062 6.230469 6.464844 C 6.289062 6.53125 6.355469 6.597656 6.421875 6.65625 C 6.453125 6.679688 6.609375 6.796875 6.664062 6.828125 C 6.910156 6.972656 7.191406 7.058594 7.5 7.058594 L 8.820312 7.058594 C 8.597656 7.171875 8.402344 7.316406 8.226562 7.476562 C 7.503906 8.128906 7.152344 9.179688 7.152344 10.671875 C 7.152344 10.785156 7.246094 10.878906 7.359375 10.878906 C 7.476562 10.878906 7.566406 10.785156 7.566406 10.671875 C 7.566406 9.019531 7.988281 7.992188 8.917969 7.476562 C 9.40625 7.207031 10.035156 7.074219 10.824219 7.074219 C 10.847656 7.074219 11.042969 7.058594 11.042969 7.058594 C 11.15625 7.058594 11.25 6.96875 11.25 6.851562 C 11.25 6.738281 11.15625 6.644531 11.042969 6.644531 L 7.5 6.644531 C 6.808594 6.644531 6.25 6.085938 6.25 5.394531 C 6.25 4.703125 6.808594 4.144531 7.5 4.144531 L 12.082031 4.144531 C 12.488281 4.144531 13.035156 4.167969 13.425781 4.546875 C 13.558594 4.679688 13.675781 4.851562 13.757812 5.085938 L 14.449219 7.367188 C 14.515625 7.582031 14.753906 8.558594 14.710938 8.761719 C 14.710938 11.820312 11.085938 15 6.792969 15 C 2.636719 15 0.417969 11.617188 0.417969 7.480469 L 0.417969 7.386719 C 0.421875 7.390625 0.425781 7.394531 0.429688 7.398438 C 0.796875 7.765625 1.179688 7.894531 1.613281 7.894531 Z M 1.71875 7.894531 "/>
<path style=" stroke:none;fill-rule:nonzero;fill:rgb(96.862745%,87.058824%,80.784314%);fill-opacity:1;" d="M 1.609375 2.476562 L 1.722656 2.476562 C 2.382812 2.476562 2.917969 3.011719 2.917969 3.671875 L 2.917969 6.285156 C 2.917969 6.941406 2.382812 7.476562 1.722656 7.476562 L 1.609375 7.476562 C 0.949219 7.476562 0.417969 6.941406 0.417969 6.285156 L 0.417969 3.671875 C 0.417969 3.011719 0.949219 2.476562 1.609375 2.476562 Z M 5.832031 6.226562 C 5.832031 6.597656 5.667969 6.929688 5.410156 7.15625 C 5.191406 7.355469 4.902344 7.476562 4.582031 7.476562 C 3.894531 7.476562 3.332031 6.917969 3.332031 6.226562 L 3.332031 2.476562 C 3.332031 2.136719 3.46875 1.828125 3.691406 1.605469 C 3.917969 1.371094 4.234375 1.226562 4.582031 1.226562 C 5.273438 1.226562 5.832031 1.785156 5.832031 2.476562 Z M 7.5 3.726562 C 7 3.726562 6.554688 3.953125 6.25 4.300781 L 6.25 1.644531 C 6.25 1.328125 6.371094 1.042969 6.5625 0.824219 C 6.792969 0.5625 7.125 0.394531 7.5 0.394531 C 8.191406 0.394531 8.75 0.953125 8.75 1.644531 L 8.75 3.726562 Z M 9.167969 2.058594 C 9.167969 1.71875 9.300781 1.414062 9.519531 1.1875 C 9.746094 0.957031 10.0625 0.808594 10.414062 0.808594 L 10.417969 0.808594 C 11.109375 0.8125 11.667969 1.371094 11.667969 2.058594 L 11.667969 3.726562 L 9.167969 3.726562 Z M 9.167969 2.058594 "/>
</g>
</svg>
