<?xml version="1.0" encoding="UTF-8"?>
<svg xmlns="http://www.w3.org/2000/svg" xmlns:xlink="http://www.w3.org/1999/xlink" width="15pt" height="15pt" viewBox="0 0 15 15" version="1.1">
<g id="surface1">
<path style=" stroke:none;fill-rule:nonzero;fill:rgb(34.509804%,20.784314%,16.078431%);fill-opacity:1;" d="M 11.246094 7.921875 C 11.140625 7.816406 11.015625 7.726562 10.882812 7.660156 L 10.714844 7.09375 L 7.378906 7.070312 L 7.25 7.523438 C 7.054688 7.5625 6.816406 7.6875 6.667969 7.824219 L 5.164062 6.175781 C 4.824219 6.328125 4.585938 6.667969 4.585938 7.066406 L 4.585938 7.464844 L 2.917969 9.199219 L 2.925781 10.113281 L 7.085938 14.582031 C 7.085938 14.582031 11.46875 8.214844 11.476562 8.226562 C 11.425781 8.132812 11.265625 7.933594 11.246094 7.921875 Z M 11.246094 7.921875 "/>
<path style=" stroke:none;fill-rule:nonzero;fill:rgb(48.627451%,32.54902%,24.313725%);fill-opacity:1;" d="M 10.242188 7.5 L 7.5 7.5 C 7.414062 7.5 7.328125 7.507812 7.246094 7.527344 L 7.214844 7.410156 L 5.851562 2.214844 C 5.851562 2.214844 5.679688 1.402344 6.496094 1.226562 C 7.308594 1.054688 7.484375 1.871094 7.484375 1.871094 L 8.773438 6.691406 C 8.960938 6.699219 9.140625 6.714844 9.316406 6.734375 L 10.175781 2.355469 C 10.175781 2.355469 10.253906 1.523438 11.085938 1.601562 C 11.914062 1.679688 11.835938 2.511719 11.835938 2.511719 L 10.976562 7.160156 L 10.882812 7.660156 C 10.691406 7.5625 10.472656 7.5 10.242188 7.5 Z M 3.714844 6.667969 L 3.785156 6.667969 C 4.226562 6.667969 4.582031 7.023438 4.582031 7.464844 L 4.582031 9.203125 C 4.582031 9.640625 4.226562 10 3.785156 10 L 3.714844 10 C 3.273438 10 2.917969 9.640625 2.917969 9.203125 L 2.917969 7.464844 C 2.917969 7.023438 3.273438 6.667969 3.714844 6.667969 Z M 6.597656 7.898438 L 6.574219 7.925781 C 6.375 8.144531 6.25 8.429688 6.25 8.75 C 6.25 8.777344 6.253906 8.800781 6.257812 8.828125 C 6.277344 9.109375 6.386719 9.367188 6.5625 9.566406 C 6.53125 9.621094 6.492188 9.667969 6.453125 9.714844 C 6.300781 9.886719 6.082031 10 5.832031 10 C 5.375 10 5 9.625 5 9.167969 L 5 6.667969 C 5 6.484375 5.0625 6.316406 5.160156 6.175781 C 5.3125 5.96875 5.558594 5.832031 5.832031 5.832031 C 6.292969 5.832031 6.667969 6.207031 6.667969 6.667969 L 6.667969 7.824219 C 6.640625 7.847656 6.621094 7.875 6.597656 7.898438 Z M 6.597656 7.898438 "/>
<path style=" stroke:none;fill-rule:nonzero;fill:rgb(48.627451%,32.54902%,24.313725%);fill-opacity:1;" d="M 3.777344 10.417969 C 4.203125 10.417969 4.578125 10.199219 4.796875 9.867188 C 4.847656 9.941406 4.910156 10.011719 4.976562 10.074219 C 5.46875 10.539062 6.242188 10.507812 6.710938 10.035156 C 6.777344 9.972656 6.839844 9.910156 6.886719 9.832031 C 6.96875 9.878906 7.082031 10 7.5 10 L 8.558594 10 C 8.402344 10.117188 8.261719 10.257812 8.128906 10.417969 C 7.617188 11.027344 7.292969 11.917969 7.292969 12.917969 C 7.292969 13.03125 7.386719 13.125 7.5 13.125 C 7.613281 13.125 7.707031 13.03125 7.707031 12.917969 C 7.707031 11.855469 8.105469 10.925781 8.699219 10.417969 C 9.003906 10.152344 9.359375 10 9.738281 10 C 10.035156 10.03125 10.09375 9.582031 9.792969 9.582031 L 7.5 9.582031 C 7.039062 9.582031 6.667969 9.210938 6.667969 8.75 C 6.667969 8.289062 7.039062 7.917969 7.5 7.917969 L 10.832031 7.917969 C 11.191406 7.917969 11.523438 8.164062 11.628906 8.507812 L 12.082031 10 C 12.125 10.140625 12.28125 10.78125 12.253906 10.914062 C 12.253906 12.917969 10.296875 15 7.917969 15 C 5.191406 15 2.980469 12.820312 2.921875 10.109375 L 2.929688 10.113281 C 3.144531 10.300781 3.417969 10.417969 3.722656 10.417969 Z M 3.777344 10.417969 "/>
</g>
</svg>
