<?xml version="1.0" encoding="UTF-8"?>
<svg xmlns="http://www.w3.org/2000/svg" xmlns:xlink="http://www.w3.org/1999/xlink" width="15pt" height="15pt" viewBox="0 0 15 15" version="1.1">
<g id="surface1">
<path style=" stroke:none;fill-rule:nonzero;fill:rgb(56.470588%,37.647059%,24.313725%);fill-opacity:1;" d="M 2.585938 9.015625 C 2.550781 9.402344 2.71875 9.515625 2.980469 9.699219 C 3.234375 9.878906 4.804688 8.503906 5.316406 8.296875 C 5.832031 8.085938 10.644531 7.066406 10.4375 6.136719 C 10.226562 5.203125 8.773438 5.066406 7.652344 5.257812 C 6.53125 5.445312 4.386719 6.433594 3.761719 6.964844 C 3.132812 7.496094 2.585938 9.015625 2.585938 9.015625 Z M 6.175781 9.640625 C 6.175781 9.640625 4.695312 10.121094 4.695312 11.371094 C 4.695312 12.621094 5.054688 13.328125 5.226562 13.667969 C 5.398438 14.011719 5.929688 14.34375 6.667969 14.023438 C 7.519531 13.652344 6.460938 11.523438 9.167969 12.5 C 10.40625 12.949219 11.691406 13.554688 12.941406 13.136719 C 14.125 12.742188 14.582031 11.25 14.582031 10.417969 C 14.582031 8.710938 13.332031 9.167969 12.917969 9.582031 C 12.5 10 9.167969 10.832031 8.75 10.832031 C 8.332031 10.832031 6.175781 9.640625 6.175781 9.640625 Z M 6.175781 9.640625 "/>
<path style=" stroke:none;fill-rule:nonzero;fill:rgb(60.784314%,41.568627%,28.627451%);fill-opacity:1;" d="M 8.046875 11.746094 C 8.046875 11.746094 7.996094 11.195312 7.472656 11.132812 C 7.042969 11.082031 6.367188 11.222656 6.015625 11.925781 C 5.664062 12.628906 5.039062 12.511719 5.066406 13.097656 C 5.089844 13.683594 5.273438 14.140625 5.652344 14.257812 C 6.027344 14.375 6.5625 14.167969 6.628906 13.542969 C 6.691406 12.917969 6.769531 12.34375 7.175781 12.097656 C 7.578125 11.847656 8.046875 11.746094 8.046875 11.746094 Z M 8.046875 11.746094 "/>
<path style=" stroke:none;fill-rule:nonzero;fill:rgb(56.470588%,37.647059%,24.313725%);fill-opacity:1;" d="M 7.5 10.832031 C 7.5 10.832031 7.082031 10.417969 6.25 10.417969 C 5.417969 10.417969 3.472656 11.304688 4.0625 13.074219 C 4.480469 14.324219 5.664062 13.738281 5.832031 12.5 C 6.003906 11.261719 7.5 10.832031 7.5 10.832031 Z M 7.5 10.832031 "/>
<path style=" stroke:none;fill-rule:nonzero;fill:rgb(60.784314%,41.568627%,28.627451%);fill-opacity:1;" d="M 7.082031 10.832031 C 7.082031 10.832031 6.667969 10.417969 5.832031 10.417969 C 5 10.417969 3.796875 11.054688 3.75 12.917969 C 3.710938 14.441406 5.429688 13.75 5.417969 12.5 C 5.402344 11.25 7.082031 10.832031 7.082031 10.832031 Z M 7.082031 10.832031 "/>
<path style=" stroke:none;fill-rule:nonzero;fill:rgb(56.470588%,37.647059%,24.313725%);fill-opacity:1;" d="M 2.082031 11.25 C 2.082031 12.625 2.273438 13.453125 3.09375 13.3125 C 4.457031 13.078125 3.941406 11.390625 5.132812 10.914062 C 5.996094 10.570312 7.257812 10.652344 8.472656 11.375 C 9.273438 11.847656 8.75 10 7.917969 9.582031 C 7.082031 9.167969 4.582031 9.582031 4.167969 9.582031 C 3.75 9.582031 2.082031 11.25 2.082031 11.25 Z M 2.082031 11.25 "/>
<path style=" stroke:none;fill-rule:nonzero;fill:rgb(60.784314%,41.568627%,28.627451%);fill-opacity:1;" d="M 2.015625 11.324219 C 1.355469 12.433594 1.757812 13.582031 2.917969 13.332031 C 4.039062 13.09375 3.476562 11.636719 4.582031 10.832031 C 5.203125 10.382812 6.539062 10.230469 7.375 10.648438 C 8.207031 11.066406 8.332031 10 7.5 9.582031 C 6.667969 9.167969 3.941406 9.574219 3.527344 9.597656 C 2.730469 9.648438 2.015625 11.324219 2.015625 11.324219 Z M 2.015625 11.324219 "/>
<path style=" stroke:none;fill-rule:nonzero;fill:rgb(23.137255%,53.333333%,76.470588%);fill-opacity:1;" d="M 3.925781 12.128906 C 3.640625 12.453125 3.148438 12.488281 2.824219 12.207031 L 2.742188 12.132812 C 2.417969 11.851562 2.386719 11.359375 2.667969 11.035156 L 12.050781 0.277344 C 12.335938 -0.046875 12.828125 -0.078125 13.152344 0.203125 L 13.234375 0.273438 C 13.558594 0.558594 13.589844 1.050781 13.308594 1.375 Z M 3.925781 12.128906 "/>
<path style=" stroke:none;fill-rule:nonzero;fill:rgb(23.137255%,53.333333%,76.470588%);fill-opacity:1;" d="M 4.371094 11.621094 C 3.386719 12.746094 0.90625 14.957031 0.59375 14.683594 C 0.277344 14.410156 2.132812 11.652344 3.113281 10.523438 C 4.097656 9.394531 3.808594 10.296875 4.152344 10.601562 C 4.5 10.902344 5.355469 10.492188 4.371094 11.621094 Z M 4.371094 11.621094 "/>
<path style=" stroke:none;fill-rule:nonzero;fill:rgb(56.470588%,37.647059%,24.313725%);fill-opacity:1;" d="M 2.78125 10.425781 C 2.78125 10.84375 3.789062 11.226562 4.207031 10.808594 C 4.621094 10.390625 5.597656 9.878906 6.878906 10.417969 C 9.882812 11.671875 8.75 10 7.5 9.582031 C 6.25 9.167969 4.167969 9.582031 3.75 9.582031 C 3.332031 9.582031 2.78125 10.425781 2.78125 10.425781 Z M 2.78125 10.425781 "/>
<path style=" stroke:none;fill-rule:nonzero;fill:rgb(68.627451%,49.411765%,34.117647%);fill-opacity:1;" d="M 2.582031 9.183594 C 2.433594 8.722656 3.492188 6.152344 3.972656 5.753906 C 4.578125 5.253906 6.917969 4.476562 7.753906 4.476562 C 8.585938 4.476562 14.582031 7.5 14.582031 9.582031 C 14.582031 11.667969 13.75 11.925781 12.550781 12.253906 C 11.59375 12.511719 9.585938 12.351562 8.710938 11.535156 C 7.941406 10.820312 7.410156 10.324219 6.667969 10 C 5.289062 9.398438 4.375 10.175781 3.957031 10.59375 C 3.125 11.425781 1.554688 10.527344 2.863281 9.101562 C 3.800781 8.082031 4.625 7.761719 5.417969 7.5 C 7.917969 6.667969 9.582031 6.667969 8.75 5.832031 C 8.457031 5.539062 8.296875 5.976562 7.886719 6.050781 C 7.058594 6.203125 6.402344 6.304688 5.316406 6.664062 C 4.941406 6.789062 3.160156 7.925781 2.582031 9.183594 Z M 2.582031 9.183594 "/>
<path style=" stroke:none;fill-rule:nonzero;fill:rgb(56.470588%,37.647059%,24.313725%);fill-opacity:1;" d="M 5.5 6.78125 C 5.941406 6.621094 7.875 6.269531 8.878906 5.917969 C 9.691406 5.636719 10.402344 6.183594 8.863281 6.765625 C 7.375 7.324219 5.828125 7.277344 4.703125 7.726562 C 4.277344 7.894531 3.90625 7.359375 5.5 6.78125 Z M 5.5 6.78125 "/>
<path style=" stroke:none;fill-rule:nonzero;fill:rgb(23.137255%,53.333333%,76.470588%);fill-opacity:1;" d="M 9.371094 3.34375 C 9.371094 3.34375 6.898438 6.175781 5.851562 7.367188 C 6.789062 6.984375 7.628906 7.054688 8.433594 6.582031 C 9.234375 6.109375 9.601562 5.609375 10.820312 4.210938 C 11.273438 3.691406 9.371094 3.34375 9.371094 3.34375 Z M 9.371094 3.34375 "/>
</g>
</svg>
