<?xml version="1.0" encoding="UTF-8"?>
<svg xmlns="http://www.w3.org/2000/svg" xmlns:xlink="http://www.w3.org/1999/xlink" width="15pt" height="15pt" viewBox="0 0 15 15" version="1.1">
<g id="surface1">
<path style=" stroke:none;fill-rule:nonzero;fill:rgb(57.254902%,40%,80%);fill-opacity:1;" d="M 15 13.332031 C 15 14.253906 14.253906 15 13.332031 15 L 1.667969 15 C 0.746094 15 0 14.253906 0 13.332031 L 0 1.667969 C 0 0.746094 0.746094 0 1.667969 0 L 13.332031 0 C 14.253906 0 15 0.746094 15 1.667969 Z M 15 13.332031 "/>
<path style=" stroke:none;fill-rule:nonzero;fill:rgb(100%,100%,100%);fill-opacity:1;" d="M 10.832031 4.167969 L 8.332031 4.167969 L 8.332031 1.667969 C 8.332031 1.4375 8.148438 1.25 7.917969 1.25 L 7.082031 1.25 C 6.851562 1.25 6.667969 1.4375 6.667969 1.667969 L 6.667969 4.167969 L 4.167969 4.167969 C 3.9375 4.167969 3.75 4.351562 3.75 4.582031 L 3.75 5.417969 C 3.75 5.648438 3.9375 5.832031 4.167969 5.832031 L 6.667969 5.832031 L 6.667969 13.332031 C 6.667969 13.5625 6.851562 13.75 7.082031 13.75 L 7.917969 13.75 C 8.148438 13.75 8.332031 13.5625 8.332031 13.332031 L 8.332031 5.832031 L 10.832031 5.832031 C 11.0625 5.832031 11.25 5.648438 11.25 5.417969 L 11.25 4.582031 C 11.25 4.351562 11.0625 4.167969 10.832031 4.167969 Z M 10.832031 4.167969 "/>
</g>
</svg>
