<?xml version="1.0" encoding="UTF-8"?>
<svg xmlns="http://www.w3.org/2000/svg" xmlns:xlink="http://www.w3.org/1999/xlink" width="15pt" height="15pt" viewBox="0 0 15 15" version="1.1">
<g id="surface1">
<path style=" stroke:none;fill-rule:nonzero;fill:rgb(57.254902%,40%,80%);fill-opacity:1;" d="M 15 13.332031 C 15 14.253906 14.253906 15 13.332031 15 L 1.667969 15 C 0.746094 15 0 14.253906 0 13.332031 L 0 1.667969 C 0 0.746094 0.746094 0 1.667969 0 L 13.332031 0 C 14.253906 0 15 0.746094 15 1.667969 Z M 15 13.332031 "/>
<path style=" stroke:none;fill-rule:nonzero;fill:rgb(100%,100%,100%);fill-opacity:1;" d="M 11.3125 7.5 L 12.863281 4.789062 C 12.933594 4.660156 12.933594 4.503906 12.859375 4.375 C 12.785156 4.246094 12.648438 4.167969 12.5 4.167969 L 9.410156 4.167969 L 7.863281 1.460938 C 7.714844 1.199219 7.285156 1.199219 7.136719 1.460938 L 5.589844 4.167969 L 2.5 4.167969 C 2.351562 4.167969 2.214844 4.246094 2.140625 4.375 C 2.066406 4.503906 2.066406 4.660156 2.136719 4.789062 L 3.6875 7.5 L 2.136719 10.210938 C 2.066406 10.339844 2.066406 10.496094 2.140625 10.625 C 2.214844 10.753906 2.351562 10.832031 2.5 10.832031 L 5.589844 10.832031 L 7.136719 13.539062 C 7.210938 13.671875 7.351562 13.75 7.5 13.75 C 7.648438 13.75 7.789062 13.671875 7.863281 13.539062 L 9.410156 10.832031 L 12.5 10.832031 C 12.648438 10.832031 12.785156 10.753906 12.859375 10.625 C 12.933594 10.496094 12.933594 10.339844 12.863281 10.210938 Z M 11.78125 5 L 10.832031 6.660156 L 9.882812 5 Z M 10.351562 7.5 L 8.925781 10 L 6.074219 10 L 4.644531 7.5 L 6.074219 5 L 8.925781 5 Z M 7.5 2.507812 L 8.449219 4.167969 L 6.550781 4.167969 Z M 3.21875 5 L 5.117188 5 L 4.167969 6.660156 Z M 3.21875 10 L 4.167969 8.339844 L 5.117188 10 Z M 7.5 12.492188 L 6.550781 10.832031 L 8.449219 10.832031 Z M 9.882812 10 L 10.832031 8.339844 L 11.78125 10 Z M 9.882812 10 "/>
</g>
</svg>
