<?xml version="1.0" encoding="UTF-8"?>
<svg xmlns="http://www.w3.org/2000/svg" xmlns:xlink="http://www.w3.org/1999/xlink" width="15pt" height="15pt" viewBox="0 0 15 15" version="1.1">
<g id="surface1">
<path style=" stroke:none;fill-rule:nonzero;fill:rgb(100%,67.45098%,20%);fill-opacity:1;" d="M 14.3125 7.039062 L 10.601562 5.667969 L 9.21875 1.128906 C 9.164062 0.953125 9.003906 0.832031 8.820312 0.832031 C 8.636719 0.832031 8.476562 0.953125 8.421875 1.128906 L 7.039062 5.667969 L 3.328125 7.039062 C 3.164062 7.097656 3.058594 7.253906 3.058594 7.429688 C 3.058594 7.605469 3.164062 7.761719 3.328125 7.820312 L 7.035156 9.191406 L 8.421875 13.867188 C 8.472656 14.046875 8.636719 14.167969 8.820312 14.167969 C 9.003906 14.167969 9.167969 14.046875 9.21875 13.867188 L 10.605469 9.191406 L 14.3125 7.820312 C 14.472656 7.761719 14.582031 7.605469 14.582031 7.429688 C 14.582031 7.253906 14.472656 7.097656 14.3125 7.039062 Z M 14.3125 7.039062 "/>
<path style=" stroke:none;fill-rule:nonzero;fill:rgb(100%,80%,30.196078%);fill-opacity:1;" d="M 5.976562 11.621094 L 5.015625 11.265625 L 4.640625 9.890625 C 4.589844 9.710938 4.425781 9.582031 4.238281 9.582031 C 4.050781 9.582031 3.882812 9.710938 3.835938 9.890625 L 3.460938 11.265625 L 2.496094 11.621094 C 2.332031 11.683594 2.222656 11.839844 2.222656 12.011719 C 2.222656 12.1875 2.332031 12.34375 2.496094 12.402344 L 3.453125 12.757812 L 3.832031 14.269531 C 3.878906 14.453125 4.046875 14.582031 4.238281 14.582031 C 4.429688 14.582031 4.59375 14.453125 4.640625 14.269531 L 5.019531 12.757812 L 5.976562 12.402344 C 6.140625 12.34375 6.25 12.1875 6.25 12.011719 C 6.25 11.839844 6.140625 11.683594 5.976562 11.621094 Z M 4.171875 2.597656 L 3.183594 2.230469 L 2.820312 1.246094 C 2.761719 1.082031 2.605469 0.972656 2.429688 0.972656 C 2.253906 0.972656 2.097656 1.082031 2.039062 1.246094 L 1.675781 2.230469 L 0.6875 2.597656 C 0.523438 2.65625 0.417969 2.8125 0.417969 2.988281 C 0.417969 3.160156 0.523438 3.316406 0.6875 3.378906 L 1.675781 3.742188 L 2.039062 4.726562 C 2.097656 4.890625 2.253906 5 2.429688 5 C 2.605469 5 2.757812 4.890625 2.820312 4.726562 L 3.183594 3.742188 L 4.171875 3.378906 C 4.335938 3.316406 4.441406 3.160156 4.441406 2.988281 C 4.441406 2.8125 4.335938 2.65625 4.171875 2.597656 Z M 4.171875 2.597656 "/>
</g>
</svg>
