<?xml version="1.0" encoding="UTF-8"?>
<svg xmlns="http://www.w3.org/2000/svg" xmlns:xlink="http://www.w3.org/1999/xlink" width="15pt" height="15pt" viewBox="0 0 15 15" version="1.1">
<g id="surface1">
<path style=" stroke:none;fill-rule:nonzero;fill:rgb(46.666667%,69.803922%,33.333333%);fill-opacity:1;" d="M 15 13.332031 C 15 14.253906 14.253906 15 13.332031 15 L 1.667969 15 C 0.746094 15 0 14.253906 0 13.332031 L 0 1.667969 C 0 0.746094 0.746094 0 1.667969 0 L 13.332031 0 C 14.253906 0 15 0.746094 15 1.667969 Z M 15 13.332031 "/>
<path style=" stroke:none;fill-rule:nonzero;fill:rgb(100%,100%,100%);fill-opacity:1;" d="M 13.332031 6.667969 L 9.511719 6.667969 L 12.386719 3.792969 C 12.710938 3.464844 12.710938 2.9375 12.386719 2.613281 C 12.0625 2.289062 11.535156 2.289062 11.207031 2.613281 L 8.332031 5.488281 L 8.332031 1.667969 C 8.332031 1.207031 7.960938 0.832031 7.5 0.832031 C 7.039062 0.832031 6.667969 1.207031 6.667969 1.667969 L 6.667969 5.488281 L 3.792969 2.613281 C 3.464844 2.289062 2.9375 2.289062 2.613281 2.613281 C 2.289062 2.9375 2.289062 3.464844 2.613281 3.792969 L 5.488281 6.667969 L 1.667969 6.667969 C 1.207031 6.667969 0.832031 7.039062 0.832031 7.5 C 0.832031 7.960938 1.207031 8.332031 1.667969 8.332031 L 5.488281 8.332031 L 2.613281 11.207031 C 2.289062 11.535156 2.289062 12.0625 2.613281 12.386719 C 2.9375 12.710938 3.464844 12.710938 3.792969 12.386719 L 6.667969 9.511719 L 6.667969 13.332031 C 6.667969 13.792969 7.039062 14.167969 7.5 14.167969 C 7.960938 14.167969 8.332031 13.792969 8.332031 13.332031 L 8.332031 9.511719 L 11.207031 12.386719 C 11.535156 12.710938 12.0625 12.710938 12.386719 12.386719 C 12.710938 12.0625 12.710938 11.535156 12.386719 11.207031 L 9.511719 8.332031 L 13.332031 8.332031 C 13.792969 8.332031 14.167969 7.960938 14.167969 7.5 C 14.167969 7.039062 13.792969 6.667969 13.332031 6.667969 Z M 13.332031 6.667969 "/>
</g>
</svg>
