<?xml version="1.0" encoding="UTF-8"?>
<svg xmlns="http://www.w3.org/2000/svg" xmlns:xlink="http://www.w3.org/1999/xlink" width="15pt" height="15pt" viewBox="0 0 15 15" version="1.1">
<g id="surface1">
<path style=" stroke:none;fill-rule:nonzero;fill:rgb(19.215686%,21.568627%,23.921569%);fill-opacity:1;" d="M 5.65625 4.679688 C 6.210938 5.085938 6.753906 4.859375 6.855469 4.179688 L 7.308594 1.234375 C 7.414062 0.554688 7.585938 0.554688 7.691406 1.234375 L 8.144531 4.179688 C 8.246094 4.859375 8.789062 5.085938 9.34375 4.679688 L 11.90625 2.816406 C 12.460938 2.414062 12.585938 2.539062 12.179688 3.09375 L 10.316406 5.65625 C 9.914062 6.210938 10.140625 6.75 10.816406 6.855469 L 13.765625 7.308594 C 14.445312 7.414062 14.445312 7.585938 13.765625 7.691406 L 10.816406 8.144531 C 10.140625 8.246094 9.914062 8.789062 10.316406 9.34375 L 12.179688 11.90625 C 12.585938 12.460938 12.460938 12.585938 11.90625 12.179688 L 9.34375 10.316406 C 8.789062 9.914062 8.246094 10.136719 8.144531 10.816406 L 7.691406 13.765625 C 7.585938 14.441406 7.414062 14.441406 7.308594 13.765625 L 6.855469 10.816406 C 6.753906 10.136719 6.210938 9.914062 5.65625 10.316406 L 3.09375 12.179688 C 2.539062 12.585938 2.4375 12.476562 2.867188 11.941406 L 4.984375 9.308594 C 5.417969 8.769531 5.210938 8.253906 4.53125 8.160156 L 1.171875 7.699219 C 0.492188 7.605469 0.492188 7.441406 1.171875 7.332031 L 4.183594 6.859375 C 4.859375 6.753906 5.085938 6.210938 4.683594 5.65625 L 2.820312 3.09375 C 2.414062 2.539062 2.539062 2.414062 3.09375 2.820312 Z M 5.65625 4.679688 "/>
</g>
</svg>
