<?xml version="1.0" encoding="UTF-8"?>
<svg xmlns="http://www.w3.org/2000/svg" xmlns:xlink="http://www.w3.org/1999/xlink" width="15pt" height="15pt" viewBox="0 0 15 15" version="1.1">
<g id="surface1">
<path style=" stroke:none;fill-rule:nonzero;fill:rgb(46.666667%,69.803922%,33.333333%);fill-opacity:1;" d="M 15 13.332031 C 15 14.253906 14.253906 15 13.332031 15 L 1.667969 15 C 0.746094 15 0 14.253906 0 13.332031 L 0 1.667969 C 0 0.746094 0.746094 0 1.667969 0 L 13.332031 0 C 14.253906 0 15 0.746094 15 1.667969 Z M 15 13.332031 "/>
<path style=" stroke:none;fill-rule:nonzero;fill:rgb(100%,100%,100%);fill-opacity:1;" d="M 8.75 7.5 C 8.75 8.191406 8.191406 8.75 7.5 8.75 C 6.808594 8.75 6.25 8.191406 6.25 7.5 C 6.25 6.808594 6.808594 6.25 7.5 6.25 C 8.191406 6.25 8.75 6.808594 8.75 7.5 Z M 8.75 7.5 "/>
<path style=" stroke:none;fill-rule:nonzero;fill:rgb(100%,100%,100%);fill-opacity:1;" d="M 8.332031 1.667969 C 8.332031 1.207031 7.960938 0.832031 7.5 0.832031 C 7.039062 0.832031 6.667969 1.207031 6.667969 1.667969 L 6.667969 5 C 6.667969 5.460938 7.039062 5.832031 7.5 5.832031 C 7.960938 5.832031 8.332031 5.460938 8.332031 5 Z M 8.332031 10 C 8.332031 9.539062 7.960938 9.167969 7.5 9.167969 C 7.039062 9.167969 6.667969 9.539062 6.667969 10 L 6.667969 13.332031 C 6.667969 13.792969 7.039062 14.167969 7.5 14.167969 C 7.960938 14.167969 8.332031 13.792969 8.332031 13.332031 Z M 1.667969 6.667969 C 1.207031 6.667969 0.832031 7.039062 0.832031 7.5 C 0.832031 7.960938 1.207031 8.332031 1.667969 8.332031 L 5 8.332031 C 5.460938 8.332031 5.832031 7.960938 5.832031 7.5 C 5.832031 7.039062 5.460938 6.667969 5 6.667969 Z M 10 6.667969 C 9.539062 6.667969 9.167969 7.039062 9.167969 7.5 C 9.167969 7.960938 9.539062 8.332031 10 8.332031 L 13.332031 8.332031 C 13.792969 8.332031 14.167969 7.960938 14.167969 7.5 C 14.167969 7.039062 13.792969 6.667969 13.332031 6.667969 Z M 6.320312 5.730469 C 6.484375 5.894531 6.484375 6.160156 6.320312 6.320312 C 6.160156 6.484375 5.894531 6.484375 5.730469 6.320312 L 2.613281 3.203125 C 2.449219 3.039062 2.449219 2.777344 2.613281 2.613281 C 2.777344 2.449219 3.039062 2.449219 3.203125 2.613281 Z M 12.386719 11.796875 C 12.550781 11.960938 12.550781 12.222656 12.386719 12.386719 C 12.222656 12.550781 11.960938 12.550781 11.796875 12.386719 L 8.679688 9.265625 C 8.515625 9.105469 8.515625 8.839844 8.679688 8.679688 C 8.839844 8.515625 9.105469 8.515625 9.269531 8.679688 Z M 5.730469 8.679688 C 5.894531 8.515625 6.160156 8.515625 6.320312 8.679688 C 6.484375 8.839844 6.484375 9.105469 6.320312 9.265625 L 3.203125 12.386719 C 3.039062 12.550781 2.777344 12.550781 2.613281 12.386719 C 2.449219 12.222656 2.449219 11.960938 2.613281 11.796875 Z M 11.796875 2.613281 C 11.960938 2.449219 12.222656 2.449219 12.386719 2.613281 C 12.550781 2.777344 12.550781 3.039062 12.386719 3.203125 L 9.265625 6.320312 C 9.105469 6.484375 8.839844 6.484375 8.679688 6.320312 C 8.515625 6.160156 8.515625 5.894531 8.679688 5.730469 Z M 11.796875 2.613281 "/>
</g>
</svg>
