<?xml version="1.0" encoding="UTF-8"?>
<svg xmlns="http://www.w3.org/2000/svg" xmlns:xlink="http://www.w3.org/1999/xlink" width="15pt" height="15pt" viewBox="0 0 15 15" version="1.1">
<g id="surface1">
<path style=" stroke:none;fill-rule:nonzero;fill:rgb(86.666667%,18.039216%,26.666667%);fill-opacity:1;" d="M 8.972656 7.5 L 14.070312 2.402344 C 14.476562 1.996094 14.476562 1.335938 14.070312 0.929688 C 13.664062 0.523438 13.003906 0.523438 12.597656 0.929688 L 7.5 6.027344 L 2.402344 0.929688 C 1.996094 0.523438 1.335938 0.523438 0.929688 0.929688 C 0.523438 1.335938 0.523438 1.996094 0.929688 2.402344 L 6.027344 7.5 L 0.917969 12.609375 C 0.511719 13.015625 0.511719 13.675781 0.917969 14.082031 C 1.121094 14.285156 1.386719 14.386719 1.652344 14.386719 C 1.921875 14.386719 2.1875 14.285156 2.390625 14.082031 L 7.5 8.972656 L 12.597656 14.070312 C 12.800781 14.273438 13.066406 14.375 13.332031 14.375 C 13.601562 14.375 13.867188 14.273438 14.070312 14.070312 C 14.476562 13.664062 14.476562 13.003906 14.070312 12.597656 Z M 8.972656 7.5 "/>
</g>
</svg>
