<?xml version="1.0" encoding="UTF-8"?>
<svg xmlns="http://www.w3.org/2000/svg" xmlns:xlink="http://www.w3.org/1999/xlink" width="15pt" height="15pt" viewBox="0 0 15 15" version="1.1">
<g id="surface1">
<path style=" stroke:none;fill-rule:nonzero;fill:rgb(46.666667%,69.803922%,33.333333%);fill-opacity:1;" d="M 15 13.332031 C 15 14.253906 14.253906 15 13.332031 15 L 1.667969 15 C 0.746094 15 0 14.253906 0 13.332031 L 0 1.667969 C 0 0.746094 0.746094 0 1.667969 0 L 13.332031 0 C 14.253906 0 15 0.746094 15 1.667969 Z M 15 13.332031 "/>
<path style=" stroke:none;fill-rule:nonzero;fill:rgb(100%,100%,100%);fill-opacity:1;" d="M 8.96875 7.503906 L 12.402344 4.070312 C 12.808594 3.664062 12.808594 3.003906 12.402344 2.597656 C 11.996094 2.191406 11.335938 2.191406 10.929688 2.597656 L 7.496094 6.03125 L 4.066406 2.597656 C 3.660156 2.191406 3 2.191406 2.59375 2.597656 C 2.183594 3.003906 2.183594 3.664062 2.59375 4.070312 L 6.023438 7.503906 L 2.582031 10.941406 C 2.175781 11.351562 2.175781 12.007812 2.582031 12.417969 C 2.785156 12.621094 3.054688 12.722656 3.320312 12.722656 C 3.585938 12.722656 3.855469 12.621094 4.058594 12.417969 L 7.496094 8.976562 L 10.929688 12.40625 C 11.132812 12.609375 11.402344 12.710938 11.667969 12.710938 C 11.933594 12.710938 12.199219 12.609375 12.402344 12.40625 C 12.8125 12 12.8125 11.339844 12.402344 10.933594 Z M 8.96875 7.503906 "/>
</g>
</svg>
