<?xml version="1.0" encoding="UTF-8"?>
<svg xmlns="http://www.w3.org/2000/svg" xmlns:xlink="http://www.w3.org/1999/xlink" width="15pt" height="15pt" viewBox="0 0 15 15" version="1.1">
<g id="surface1">
<path style=" stroke:none;fill-rule:nonzero;fill:rgb(74.509804%,9.803922%,19.215686%);fill-opacity:1;" d="M 7.082031 11.25 C 6.394531 11.25 5.832031 10.691406 5.832031 10 L 5.832031 8.332031 C 5.832031 7.644531 6.394531 7.082031 7.082031 7.082031 C 7.335938 7.082031 9.582031 6.667969 9.582031 5 C 9.582031 4.167969 8.75 3.332031 7.5 3.332031 C 6.484375 3.332031 5.832031 4.167969 5.832031 4.582031 C 5.832031 5.273438 5.273438 5.832031 4.582031 5.832031 C 3.894531 5.832031 3.332031 5.273438 3.332031 4.582031 C 3.332031 2.550781 5.242188 0.832031 7.5 0.832031 C 10.832031 0.832031 12.082031 3.324219 12.082031 5.417969 C 12.082031 7.144531 11.132812 8.464844 9.410156 9.132812 C 9.035156 9.28125 8.664062 9.378906 8.332031 9.445312 L 8.332031 10 C 8.332031 10.691406 7.773438 11.25 7.082031 11.25 Z M 7.082031 11.25 "/>
<path style=" stroke:none;fill-rule:nonzero;fill:rgb(74.509804%,9.803922%,19.215686%);fill-opacity:1;" d="M 8.332031 13.332031 C 8.332031 14.023438 7.773438 14.582031 7.082031 14.582031 C 6.394531 14.582031 5.832031 14.023438 5.832031 13.332031 C 5.832031 12.644531 6.394531 12.082031 7.082031 12.082031 C 7.773438 12.082031 8.332031 12.644531 8.332031 13.332031 Z M 8.332031 13.332031 "/>
</g>
</svg>
