<?xml version="1.0" encoding="UTF-8"?>
<svg xmlns="http://www.w3.org/2000/svg" xmlns:xlink="http://www.w3.org/1999/xlink" width="15pt" height="15pt" viewBox="0 0 15 15" version="1.1">
<g id="surface1">
<path style=" stroke:none;fill-rule:nonzero;fill:rgb(74.509804%,9.803922%,19.215686%);fill-opacity:1;" d="M 8.75 13.332031 C 8.75 14.023438 8.191406 14.582031 7.5 14.582031 C 6.808594 14.582031 6.25 14.023438 6.25 13.332031 C 6.25 12.644531 6.808594 12.082031 7.5 12.082031 C 8.191406 12.082031 8.75 12.644531 8.75 13.332031 Z M 8.75 13.332031 "/>
<path style=" stroke:none;fill-rule:nonzero;fill:rgb(74.509804%,9.803922%,19.215686%);fill-opacity:1;" d="M 8.75 10 C 8.75 10.691406 8.191406 11.25 7.5 11.25 C 6.808594 11.25 6.25 10.691406 6.25 10 L 6.25 2.082031 C 6.25 1.394531 6.808594 0.832031 7.5 0.832031 C 8.191406 0.832031 8.75 1.394531 8.75 2.082031 Z M 8.75 10 "/>
</g>
</svg>
