<?xml version="1.0" encoding="UTF-8"?>
<svg xmlns="http://www.w3.org/2000/svg" xmlns:xlink="http://www.w3.org/1999/xlink" width="15pt" height="15pt" viewBox="0 0 15 15" version="1.1">
<g id="surface1">
<path style=" stroke:none;fill-rule:nonzero;fill:rgb(19.215686%,21.568627%,23.921569%);fill-opacity:1;" d="M 12.917969 6.25 L 8.75 6.25 L 8.75 2.082031 C 8.75 1.394531 8.191406 0.832031 7.5 0.832031 C 6.808594 0.832031 6.25 1.394531 6.25 2.082031 L 6.25 6.25 L 2.082031 6.25 C 1.394531 6.25 0.832031 6.808594 0.832031 7.5 C 0.832031 8.191406 1.394531 8.75 2.082031 8.75 L 6.25 8.75 L 6.25 12.917969 C 6.25 13.605469 6.808594 14.167969 7.5 14.167969 C 8.191406 14.167969 8.75 13.605469 8.75 12.917969 L 8.75 8.75 L 12.917969 8.75 C 13.605469 8.75 14.167969 8.191406 14.167969 7.5 C 14.167969 6.808594 13.605469 6.25 12.917969 6.25 Z M 12.917969 6.25 "/>
</g>
</svg>
