<?xml version="1.0" encoding="UTF-8"?>
<svg xmlns="http://www.w3.org/2000/svg" xmlns:xlink="http://www.w3.org/1999/xlink" width="15pt" height="15pt" viewBox="0 0 15 15" version="1.1">
<g id="surface1">
<path style=" stroke:none;fill-rule:nonzero;fill:rgb(19.215686%,21.568627%,23.921569%);fill-opacity:1;" d="M 14.167969 7.5 C 14.167969 8.191406 13.605469 8.75 12.917969 8.75 L 2.082031 8.75 C 1.394531 8.75 0.832031 8.191406 0.832031 7.5 C 0.832031 6.808594 1.394531 6.25 2.082031 6.25 L 12.917969 6.25 C 13.605469 6.25 14.167969 6.808594 14.167969 7.5 Z M 14.167969 7.5 "/>
<path style=" stroke:none;fill-rule:nonzero;fill:rgb(19.215686%,21.568627%,23.921569%);fill-opacity:1;" d="M 9.167969 2.917969 C 9.167969 3.835938 8.421875 4.582031 7.5 4.582031 C 6.578125 4.582031 5.832031 3.835938 5.832031 2.917969 C 5.832031 1.996094 6.578125 1.25 7.5 1.25 C 8.421875 1.25 9.167969 1.996094 9.167969 2.917969 Z M 9.167969 2.917969 "/>
<path style=" stroke:none;fill-rule:nonzero;fill:rgb(19.215686%,21.568627%,23.921569%);fill-opacity:1;" d="M 9.167969 12.082031 C 9.167969 13.003906 8.421875 13.75 7.5 13.75 C 6.578125 13.75 5.832031 13.003906 5.832031 12.082031 C 5.832031 11.164062 6.578125 10.417969 7.5 10.417969 C 8.421875 10.417969 9.167969 11.164062 9.167969 12.082031 Z M 9.167969 12.082031 "/>
</g>
</svg>
