<?xml version="1.0" encoding="UTF-8"?>
<svg xmlns="http://www.w3.org/2000/svg" xmlns:xlink="http://www.w3.org/1999/xlink" width="15pt" height="15pt" viewBox="0 0 15 15" version="1.1">
<g id="surface1">
<path style=" stroke:none;fill-rule:nonzero;fill:rgb(13.333333%,40%,60%);fill-opacity:1;" d="M 15 11.667969 C 15 12.585938 14.253906 13.332031 13.332031 13.332031 L 1.667969 13.332031 C 0.746094 13.332031 0 12.585938 0 11.667969 L 0 3.332031 C 0 2.414062 0.746094 1.667969 1.667969 1.667969 L 13.332031 1.667969 C 14.253906 1.667969 15 2.414062 15 3.332031 Z M 15 11.667969 "/>
<path style=" stroke:none;fill-rule:nonzero;fill:rgb(100%,100%,100%);fill-opacity:1;" d="M 14.367188 4.660156 C 14.3125 4.628906 13.8125 4.375 12.761719 4.375 C 12.085938 4.375 11.125 4.683594 10.238281 5.214844 C 9.378906 4.804688 8.441406 4.582031 7.636719 4.582031 L 7.363281 4.582031 C 6.5625 4.582031 5.625 4.804688 4.765625 5.214844 C 3.875 4.683594 2.917969 4.375 2.238281 4.375 C 1.191406 4.375 0.6875 4.628906 0.636719 4.660156 C 0.433594 4.769531 0.363281 5.015625 0.464844 5.214844 C 0.570312 5.417969 0.820312 5.496094 1.027344 5.394531 C 1.027344 5.394531 1.410156 5.207031 2.238281 5.207031 C 2.683594 5.207031 3.296875 5.390625 3.914062 5.699219 C 2.90625 6.390625 2.160156 7.375 2.160156 8.570312 C 2.160156 10.4375 3.683594 11.277344 4.761719 11.277344 C 5.953125 11.277344 7.15625 10.339844 7.15625 8.550781 C 7.15625 7.46875 6.476562 6.503906 5.578125 5.777344 C 6.1875 5.546875 6.816406 5.417969 7.363281 5.417969 L 7.636719 5.417969 C 8.1875 5.417969 8.816406 5.546875 9.425781 5.777344 C 8.527344 6.503906 7.84375 7.46875 7.84375 8.550781 C 7.84375 10.339844 9.050781 11.277344 10.238281 11.277344 C 11.320312 11.277344 12.839844 10.4375 12.839844 8.570312 C 12.839844 7.375 12.097656 6.390625 11.089844 5.699219 C 11.703125 5.390625 12.316406 5.207031 12.761719 5.207031 C 13.59375 5.207031 13.972656 5.394531 13.976562 5.394531 C 14.179688 5.496094 14.429688 5.417969 14.535156 5.21875 C 14.640625 5.015625 14.566406 4.769531 14.367188 4.660156 Z M 6.324219 8.550781 C 6.324219 9.851562 5.515625 10.445312 4.761719 10.445312 C 4.078125 10.445312 2.996094 9.933594 2.996094 8.570312 C 2.996094 7.585938 3.75 6.746094 4.722656 6.183594 C 5.601562 6.800781 6.324219 7.652344 6.324219 8.550781 Z M 12.007812 8.570312 C 12.007812 9.933594 10.921875 10.445312 10.238281 10.445312 C 9.488281 10.445312 8.679688 9.851562 8.679688 8.550781 C 8.679688 7.652344 9.398438 6.800781 10.277344 6.183594 C 11.253906 6.746094 12.007812 7.585938 12.007812 8.570312 Z M 12.007812 8.570312 "/>
</g>
</svg>
