<?xml version="1.0" encoding="UTF-8"?>
<svg xmlns="http://www.w3.org/2000/svg" xmlns:xlink="http://www.w3.org/1999/xlink" width="15pt" height="15pt" viewBox="0 0 15 15" version="1.1">
<g id="surface1">
<path style=" stroke:none;fill-rule:nonzero;fill:rgb(23.137255%,53.333333%,76.470588%);fill-opacity:1;" d="M 15 13.332031 C 15 14.253906 14.253906 15 13.332031 15 L 1.667969 15 C 0.746094 15 0 14.253906 0 13.332031 L 0 1.667969 C 0 0.746094 0.746094 0 1.667969 0 L 13.332031 0 C 14.253906 0 15 0.746094 15 1.667969 Z M 15 13.332031 "/>
<path style=" stroke:none;fill-rule:nonzero;fill:rgb(100%,100%,100%);fill-opacity:1;" d="M 8.578125 12.582031 L 11.078125 9.582031 L 9.582031 9.582031 L 9.582031 6.410156 C 9.582031 4.109375 7.632812 2.246094 5.332031 2.246094 C 4.742188 2.246094 4.140625 2.371094 3.628906 2.589844 L 4.753906 3.964844 C 4.921875 3.929688 5.167969 3.910156 5.339844 3.910156 C 6.722656 3.910156 7.917969 5.03125 7.917969 6.410156 L 7.917969 9.582031 L 6.078125 9.582031 Z M 8.578125 12.582031 "/>
</g>
</svg>
