<?xml version="1.0" encoding="UTF-8"?>
<svg xmlns="http://www.w3.org/2000/svg" xmlns:xlink="http://www.w3.org/1999/xlink" width="15pt" height="15pt" viewBox="0 0 15 15" version="1.1">
<g id="surface1">
<path style=" stroke:none;fill-rule:nonzero;fill:rgb(23.137255%,53.333333%,76.470588%);fill-opacity:1;" d="M 13.332031 0 L 1.667969 0 C 0.746094 0 0 0.746094 0 1.667969 L 0 13.332031 C 0 14.253906 0.746094 15 1.667969 15 L 13.332031 15 C 14.253906 15 15 14.253906 15 13.332031 L 15 1.667969 C 15 0.746094 14.253906 0 13.332031 0 Z M 13.332031 0 "/>
<path style=" stroke:none;fill-rule:nonzero;fill:rgb(100%,100%,100%);fill-opacity:1;" d="M 7.917969 2.917969 L 7.082031 2.917969 C 6.851562 2.917969 6.667969 3.101562 6.667969 3.332031 L 6.667969 11.667969 C 6.667969 11.898438 6.851562 12.082031 7.082031 12.082031 L 7.917969 12.082031 C 8.148438 12.082031 8.332031 11.898438 8.332031 11.667969 L 8.332031 3.332031 C 8.332031 3.101562 8.148438 2.917969 7.917969 2.917969 Z M 7.917969 2.917969 "/>
<path style=" stroke:none;fill-rule:nonzero;fill:rgb(100%,100%,100%);fill-opacity:1;" d="M 11.089844 4.621094 L 11.550781 5.316406 C 11.679688 5.507812 11.625 5.765625 11.433594 5.894531 L 4.488281 10.496094 C 4.296875 10.625 4.035156 10.570312 3.910156 10.378906 L 3.449219 9.683594 C 3.320312 9.492188 3.375 9.234375 3.566406 9.105469 L 10.511719 4.503906 C 10.703125 4.375 10.964844 4.429688 11.089844 4.621094 Z M 11.089844 4.621094 "/>
<path style=" stroke:none;fill-rule:nonzero;fill:rgb(100%,100%,100%);fill-opacity:1;" d="M 3.910156 4.621094 L 3.449219 5.316406 C 3.320312 5.507812 3.375 5.765625 3.566406 5.894531 L 10.511719 10.496094 C 10.703125 10.621094 10.964844 10.570312 11.089844 10.378906 L 11.550781 9.683594 C 11.679688 9.492188 11.625 9.234375 11.433594 9.105469 L 4.488281 4.503906 C 4.296875 4.375 4.035156 4.429688 3.910156 4.621094 Z M 3.910156 4.621094 "/>
</g>
</svg>
