<?xml version="1.0" encoding="UTF-8"?>
<svg xmlns="http://www.w3.org/2000/svg" xmlns:xlink="http://www.w3.org/1999/xlink" width="15pt" height="15pt" viewBox="0 0 15 15" version="1.1">
<g id="surface1">
<path style=" stroke:none;fill-rule:nonzero;fill:rgb(100%,67.45098%,20%);fill-opacity:1;" d="M 11.371094 14.429688 C 11.203125 14.429688 11.035156 14.375 10.890625 14.273438 L 7.5 11.84375 L 4.109375 14.273438 C 3.820312 14.480469 3.433594 14.480469 3.148438 14.269531 C 2.859375 14.0625 2.738281 13.691406 2.847656 13.355469 L 4.109375 9.277344 L 0.75 6.910156 C 0.464844 6.699219 0.347656 6.328125 0.457031 5.992188 C 0.566406 5.652344 0.878906 5.425781 1.234375 5.421875 L 5.394531 5.417969 L 6.71875 1.4375 C 6.832031 1.101562 7.144531 0.875 7.5 0.875 C 7.855469 0.875 8.167969 1.101562 8.28125 1.4375 L 9.582031 5.417969 L 13.765625 5.421875 C 14.121094 5.425781 14.433594 5.65625 14.542969 5.992188 C 14.652344 6.328125 14.535156 6.699219 14.246094 6.910156 L 10.890625 9.277344 L 12.152344 13.355469 C 12.261719 13.691406 12.140625 14.0625 11.851562 14.269531 C 11.707031 14.375 11.539062 14.429688 11.371094 14.429688 Z M 11.371094 14.429688 "/>
</g>
</svg>
