<?xml version="1.0" encoding="UTF-8"?>
<svg xmlns="http://www.w3.org/2000/svg" xmlns:xlink="http://www.w3.org/1999/xlink" width="15pt" height="15pt" viewBox="0 0 15 15" version="1.1">
<g id="surface1">
<path style=" stroke:none;fill-rule:nonzero;fill:rgb(23.137255%,53.333333%,76.470588%);fill-opacity:1;" d="M 15 13.332031 C 15 14.253906 14.253906 15 13.332031 15 L 1.667969 15 C 0.746094 15 0 14.253906 0 13.332031 L 0 1.667969 C 0 0.746094 0.746094 0 1.667969 0 L 13.332031 0 C 14.253906 0 15 0.746094 15 1.667969 Z M 15 13.332031 "/>
<path style=" stroke:none;fill-rule:nonzero;fill:rgb(100%,100%,100%);fill-opacity:1;" d="M 4.078125 7.484375 C 4.078125 5.378906 4.890625 2.730469 7.5 2.730469 C 10.109375 2.730469 10.925781 5.378906 10.925781 7.484375 C 10.925781 9.589844 10.109375 12.238281 7.5 12.238281 C 4.890625 12.238281 4.078125 9.589844 4.078125 7.484375 Z M 8.910156 7.484375 C 8.910156 6.503906 8.816406 4.488281 7.5 4.488281 C 6.183594 4.488281 6.09375 6.503906 6.09375 7.484375 C 6.09375 8.402344 6.183594 10.480469 7.5 10.480469 C 8.816406 10.480469 8.910156 8.402344 8.910156 7.484375 Z M 8.910156 7.484375 "/>
</g>
</svg>
