<?xml version="1.0" encoding="UTF-8"?>
<svg xmlns="http://www.w3.org/2000/svg" xmlns:xlink="http://www.w3.org/1999/xlink" width="15pt" height="15pt" viewBox="0 0 15 15" version="1.1">
<g id="surface1">
<path style=" stroke:none;fill-rule:nonzero;fill:rgb(16.078431%,18.431373%,20%);fill-opacity:1;" d="M 11.25 9.582031 C 10.171875 9.582031 9.582031 8.519531 9.011719 7.496094 C 8.558594 6.675781 8.089844 5.832031 7.5 5.832031 C 6.910156 5.832031 6.441406 6.675781 5.988281 7.496094 C 5.417969 8.519531 4.828125 9.582031 3.75 9.582031 C 2.644531 9.582031 2.144531 8.457031 1.703125 7.460938 C 1.265625 6.476562 0.941406 5.832031 0.417969 5.832031 C 0.1875 5.832031 0 5.648438 0 5.417969 C 0 5.1875 0.1875 5 0.417969 5 C 1.519531 5 2.023438 6.128906 2.464844 7.121094 C 2.902344 8.105469 3.226562 8.75 3.75 8.75 C 4.339844 8.75 4.808594 7.90625 5.261719 7.089844 C 5.832031 6.0625 6.421875 5 7.5 5 C 8.578125 5 9.167969 6.0625 9.738281 7.089844 C 10.191406 7.90625 10.660156 8.75 11.25 8.75 C 11.773438 8.75 12.097656 8.105469 12.535156 7.121094 C 12.976562 6.128906 13.480469 5 14.582031 5 C 14.8125 5 15 5.1875 15 5.417969 C 15 5.648438 14.8125 5.832031 14.582031 5.832031 C 14.058594 5.832031 13.734375 6.476562 13.296875 7.460938 C 12.855469 8.457031 12.355469 9.582031 11.25 9.582031 Z M 11.25 9.582031 "/>
</g>
</svg>
