<?xml version="1.0" encoding="UTF-8"?>
<svg xmlns="http://www.w3.org/2000/svg" xmlns:xlink="http://www.w3.org/1999/xlink" width="15pt" height="15pt" viewBox="0 0 15 15" version="1.1">
<g id="surface1">
<path style=" stroke:none;fill-rule:nonzero;fill:rgb(23.137255%,53.333333%,76.470588%);fill-opacity:1;" d="M 15 13.332031 C 15 14.253906 14.253906 15 13.332031 15 L 1.667969 15 C 0.746094 15 0 14.253906 0 13.332031 L 0 1.667969 C 0 0.746094 0.746094 0 1.667969 0 L 13.332031 0 C 14.253906 0 15 0.746094 15 1.667969 Z M 15 13.332031 "/>
<path style=" stroke:none;fill-rule:nonzero;fill:rgb(100%,100%,100%);fill-opacity:1;" d="M 6.859375 4.65625 L 6.097656 4.65625 C 5.476562 4.65625 5.21875 4.203125 5.21875 3.765625 C 5.21875 3.3125 5.542969 2.875 6.097656 2.875 L 7.929688 2.875 C 8.488281 2.875 8.796875 3.273438 8.796875 3.789062 L 8.796875 11.140625 C 8.796875 11.789062 8.382812 12.148438 7.828125 12.148438 C 7.273438 12.148438 6.859375 11.789062 6.859375 11.140625 Z M 6.859375 4.65625 "/>
</g>
</svg>
