<?xml version="1.0" encoding="UTF-8"?>
<svg xmlns="http://www.w3.org/2000/svg" xmlns:xlink="http://www.w3.org/1999/xlink" width="15pt" height="15pt" viewBox="0 0 15 15" version="1.1">
<g id="surface1">
<path style=" stroke:none;fill-rule:nonzero;fill:rgb(23.137255%,53.333333%,76.470588%);fill-opacity:1;" d="M 15 13.332031 C 15 14.253906 14.253906 15 13.332031 15 L 1.667969 15 C 0.746094 15 0 14.253906 0 13.332031 L 0 1.667969 C 0 0.746094 0.746094 0 1.667969 0 L 13.332031 0 C 14.253906 0 15 0.746094 15 1.667969 Z M 15 13.332031 "/>
<path style=" stroke:none;fill-rule:nonzero;fill:rgb(100%,100%,100%);fill-opacity:1;" d="M 9.621094 10.378906 C 10.1875 10.378906 10.628906 10.636719 10.628906 11.230469 C 10.628906 11.824219 10.1875 12.082031 9.695312 12.082031 L 5.382812 12.082031 C 4.8125 12.082031 4.375 11.824219 4.375 11.230469 C 4.375 10.960938 4.542969 10.726562 4.671875 10.570312 C 5.742188 9.292969 6.90625 8.128906 7.890625 6.707031 C 8.121094 6.371094 8.339844 5.972656 8.339844 5.507812 C 8.339844 4.976562 7.941406 4.511719 7.410156 4.511719 C 5.925781 4.511719 6.636719 6.605469 5.394531 6.605469 C 4.773438 6.605469 4.453125 6.167969 4.453125 5.660156 C 4.453125 4.035156 5.898438 2.730469 7.488281 2.730469 C 9.078125 2.730469 10.355469 3.777344 10.355469 5.417969 C 10.355469 7.210938 8.355469 8.996094 7.253906 10.378906 Z M 9.621094 10.378906 "/>
</g>
</svg>
