<?xml version="1.0" encoding="UTF-8"?>
<svg xmlns="http://www.w3.org/2000/svg" xmlns:xlink="http://www.w3.org/1999/xlink" width="15pt" height="15pt" viewBox="0 0 15 15" version="1.1">
<g id="surface1">
<path style=" stroke:none;fill-rule:nonzero;fill:rgb(86.666667%,18.039216%,26.666667%);fill-opacity:1;" d="M 15 7.5 C 15 11.640625 11.640625 15 7.5 15 C 3.359375 15 0 11.640625 0 7.5 C 0 3.359375 3.359375 0 7.5 0 C 11.640625 0 15 3.359375 15 7.5 Z M 15 7.5 "/>
<path style=" stroke:none;fill-rule:nonzero;fill:rgb(100%,100%,100%);fill-opacity:1;" d="M 4.011719 9.472656 C 4.011719 8.957031 4.035156 8.460938 4.078125 7.976562 C 3.683594 8.382812 3.257812 8.785156 2.796875 9.148438 C 2.71875 9.203125 2.628906 9.238281 2.539062 9.238281 C 2.402344 9.238281 2.269531 9.171875 2.179688 9.035156 C 2.121094 8.957031 2.101562 8.867188 2.101562 8.789062 C 2.101562 8.652344 2.167969 8.515625 2.28125 8.4375 C 3.40625 7.664062 4.765625 6.222656 5.304688 5.144531 C 5.339844 5.085938 5.351562 5.042969 5.351562 4.996094 C 5.351562 4.917969 5.28125 4.875 5.148438 4.875 L 2.707031 4.875 C 2.503906 4.875 2.390625 4.714844 2.390625 4.492188 C 2.390625 4.265625 2.503906 4.097656 2.707031 4.097656 L 4 4.097656 L 4 2.5 C 4 2.296875 4.179688 2.183594 4.429688 2.183594 C 4.6875 2.183594 4.867188 2.296875 4.867188 2.5 L 4.867188 4.097656 L 5.597656 4.097656 C 6.035156 4.097656 6.316406 4.34375 6.316406 4.726562 C 6.316406 4.875 6.273438 5.042969 6.195312 5.222656 C 5.914062 5.773438 5.472656 6.414062 5.023438 6.964844 C 5.5625 7.515625 6.058594 7.898438 6.453125 8.15625 C 6.597656 8.246094 6.667969 8.359375 6.667969 8.496094 C 6.667969 8.585938 6.632812 8.664062 6.578125 8.753906 C 6.496094 8.878906 6.375 8.933594 6.261719 8.933594 C 6.183594 8.933594 6.09375 8.910156 6.023438 8.855469 C 5.621094 8.550781 5.214844 8.15625 4.789062 7.695312 C 4.832031 8.257812 4.855469 8.710938 4.855469 9.25 L 4.855469 12.332031 C 4.855469 12.53125 4.6875 12.644531 4.429688 12.644531 C 4.179688 12.644531 4.011719 12.523438 4.011719 12.332031 Z M 8.8125 7.234375 C 8.769531 9.855469 7.992188 11.476562 6.183594 12.488281 C 6.09375 12.542969 6.003906 12.578125 5.921875 12.578125 C 5.789062 12.578125 5.652344 12.511719 5.5625 12.363281 C 5.507812 12.285156 5.484375 12.195312 5.484375 12.105469 C 5.484375 11.96875 5.550781 11.859375 5.6875 11.769531 C 7.296875 10.867188 7.949219 9.632812 7.992188 7.234375 L 7.65625 7.234375 C 6.980469 7.234375 6.6875 6.976562 6.6875 6.347656 L 6.6875 3.671875 C 6.6875 3.027344 6.980469 2.757812 7.65625 2.757812 L 11.210938 2.757812 C 11.875 2.757812 12.175781 3.027344 12.175781 3.671875 L 12.175781 6.347656 C 12.175781 6.976562 11.875 7.234375 11.210938 7.234375 L 10.589844 7.234375 L 10.589844 11.316406 C 10.589844 11.578125 10.679688 11.621094 11.222656 11.621094 C 11.695312 11.621094 11.851562 11.542969 11.929688 11.296875 C 11.996094 11.023438 12.042969 10.496094 12.054688 10.046875 C 12.054688 9.84375 12.199219 9.722656 12.414062 9.722656 L 12.445312 9.722656 C 12.695312 9.730469 12.828125 9.84375 12.828125 10.058594 L 12.828125 10.082031 C 12.816406 10.765625 12.738281 11.417969 12.558594 11.835938 C 12.492188 11.992188 12.378906 12.117188 12.234375 12.207031 C 12.019531 12.332031 11.660156 12.410156 11.175781 12.410156 L 10.984375 12.410156 C 9.960938 12.398438 9.757812 12.160156 9.757812 11.589844 L 9.757812 7.234375 Z M 10.996094 6.460938 C 11.210938 6.460938 11.335938 6.378906 11.335938 6.132812 L 11.335938 3.882812 C 11.335938 3.625 11.210938 3.570312 10.996094 3.570312 L 7.871094 3.570312 C 7.644531 3.570312 7.53125 3.625 7.53125 3.882812 L 7.53125 6.132812 C 7.53125 6.378906 7.644531 6.460938 7.871094 6.460938 Z M 10.996094 6.460938 "/>
</g>
</svg>
