<?xml version="1.0" encoding="UTF-8"?>
<svg xmlns="http://www.w3.org/2000/svg" xmlns:xlink="http://www.w3.org/1999/xlink" width="15pt" height="15pt" viewBox="0 0 15 15" version="1.1">
<g id="surface1">
<path style=" stroke:none;fill-rule:nonzero;fill:rgb(86.666667%,18.039216%,26.666667%);fill-opacity:1;" d="M 15 7.5 C 15 11.640625 11.640625 15 7.5 15 C 3.359375 15 0 11.640625 0 7.5 C 0 3.359375 3.359375 0 7.5 0 C 11.640625 0 15 3.359375 15 7.5 Z M 15 7.5 "/>
<path style=" stroke:none;fill-rule:nonzero;fill:rgb(100%,100%,100%);fill-opacity:1;" d="M 5.835938 5.066406 C 6.035156 5.066406 6.148438 5.210938 6.148438 5.4375 C 6.148438 5.671875 6.035156 5.828125 5.835938 5.828125 L 4.808594 5.828125 C 5.070312 6.425781 5.441406 6.964844 5.84375 7.371094 C 5.921875 7.449219 5.96875 7.574219 5.96875 7.683594 C 5.96875 7.785156 5.933594 7.875 5.878906 7.945312 C 5.8125 8.023438 5.722656 8.066406 5.621094 8.066406 C 5.519531 8.066406 5.394531 8.011719 5.316406 7.910156 C 5.089844 7.617188 4.832031 7.132812 4.640625 6.617188 C 4.707031 7.203125 4.765625 7.832031 4.765625 8.324219 L 4.765625 12.328125 C 4.765625 12.542969 4.617188 12.667969 4.359375 12.667969 C 4.113281 12.667969 3.976562 12.542969 3.976562 12.328125 L 3.976562 8.617188 C 3.976562 8.035156 4.066406 7.390625 4.148438 6.863281 C 3.867188 7.796875 3.394531 8.96875 2.820312 9.753906 C 2.730469 9.878906 2.605469 9.945312 2.472656 9.945312 C 2.390625 9.945312 2.3125 9.921875 2.246094 9.867188 C 2.132812 9.777344 2.078125 9.664062 2.078125 9.542969 C 2.078125 9.453125 2.109375 9.359375 2.179688 9.273438 C 2.941406 8.316406 3.539062 6.988281 3.84375 5.828125 L 2.628906 5.828125 C 2.425781 5.828125 2.3125 5.671875 2.3125 5.4375 C 2.3125 5.210938 2.425781 5.066406 2.628906 5.066406 L 3.976562 5.066406 L 3.976562 3.601562 C 3.628906 3.679688 3.269531 3.75 2.941406 3.792969 C 2.921875 3.804688 2.898438 3.804688 2.863281 3.804688 C 2.671875 3.804688 2.527344 3.691406 2.492188 3.457031 L 2.492188 3.390625 C 2.492188 3.1875 2.617188 3.039062 2.796875 3.007812 C 3.71875 2.882812 4.730469 2.613281 5.40625 2.265625 C 5.496094 2.21875 5.585938 2.195312 5.675781 2.195312 C 5.824219 2.195312 5.945312 2.277344 6.035156 2.398438 C 6.09375 2.476562 6.113281 2.558594 6.113281 2.636719 C 6.113281 2.769531 6.035156 2.882812 5.890625 2.949219 C 5.574219 3.109375 5.183594 3.253906 4.765625 3.390625 L 4.765625 5.066406 Z M 7.746094 4.839844 C 7.746094 4.636719 7.914062 4.511719 8.171875 4.511719 C 8.410156 4.511719 8.578125 4.636719 8.578125 4.851562 L 8.578125 8.695312 C 9.703125 7.203125 10.488281 5.335938 11.007812 3.152344 C 11.050781 2.960938 11.175781 2.847656 11.390625 2.847656 C 11.421875 2.847656 11.46875 2.847656 11.523438 2.859375 C 11.75 2.90625 11.882812 3.085938 11.882812 3.265625 C 11.882812 3.308594 11.882812 3.34375 11.875 3.378906 C 11.132812 6.109375 10.007812 8.316406 8.578125 9.921875 L 8.578125 11.058594 C 8.578125 11.328125 8.65625 11.441406 8.9375 11.476562 C 9.128906 11.496094 9.363281 11.507812 9.714844 11.507812 C 10.0625 11.507812 10.320312 11.476562 10.511719 11.429688 C 10.738281 11.375 10.859375 11.296875 10.929688 11.058594 C 10.996094 10.824219 11.050781 10.40625 11.0625 9.890625 C 11.074219 9.707031 11.230469 9.550781 11.480469 9.550781 L 11.503906 9.550781 C 11.761719 9.5625 11.882812 9.707031 11.882812 9.957031 L 11.882812 9.988281 C 11.863281 10.621094 11.785156 11.160156 11.648438 11.53125 C 11.515625 11.914062 11.234375 12.148438 10.773438 12.238281 C 10.480469 12.296875 10.128906 12.316406 9.714844 12.328125 C 9.265625 12.328125 8.894531 12.308594 8.601562 12.273438 C 8.003906 12.195312 7.746094 11.925781 7.746094 11.351562 L 7.746094 10.539062 C 7.195312 11.046875 6.578125 11.519531 5.925781 11.914062 C 5.824219 11.980469 5.722656 12.015625 5.632812 12.015625 C 5.496094 12.015625 5.371094 11.945312 5.304688 11.800781 C 5.25 11.734375 5.226562 11.644531 5.226562 11.5625 C 5.226562 11.417969 5.292969 11.273438 5.453125 11.183594 C 6.296875 10.710938 7.058594 10.089844 7.746094 9.394531 Z M 6.789062 6.121094 C 6.8125 6.121094 6.835938 6.121094 6.867188 6.132812 C 7.105469 6.167969 7.21875 6.3125 7.21875 6.515625 C 7.21875 6.550781 7.21875 6.582031 7.207031 6.617188 C 7.09375 7.652344 6.847656 8.742188 6.496094 9.5625 C 6.40625 9.730469 6.261719 9.820312 6.105469 9.820312 C 6.046875 9.820312 5.980469 9.8125 5.925781 9.777344 C 5.765625 9.710938 5.699219 9.597656 5.699219 9.460938 C 5.699219 9.382812 5.722656 9.304688 5.765625 9.214844 C 6.105469 8.4375 6.328125 7.449219 6.441406 6.449219 C 6.464844 6.234375 6.585938 6.121094 6.789062 6.121094 Z M 9.769531 3.5 C 9.894531 3.613281 9.972656 3.75 9.972656 3.882812 C 9.972656 3.960938 9.949219 4.039062 9.894531 4.109375 C 9.804688 4.230469 9.65625 4.300781 9.511719 4.300781 C 9.398438 4.300781 9.296875 4.265625 9.21875 4.199219 C 8.757812 3.816406 7.992188 3.320312 7.386719 3.027344 C 7.261719 2.949219 7.183594 2.828125 7.183594 2.691406 C 7.183594 2.625 7.207031 2.546875 7.25 2.476562 C 7.339844 2.332031 7.488281 2.265625 7.632812 2.265625 C 7.710938 2.265625 7.789062 2.285156 7.871094 2.320312 C 8.5 2.601562 9.296875 3.085938 9.769531 3.5 Z M 11.625 6.269531 C 11.785156 6.269531 11.917969 6.359375 11.996094 6.539062 C 12.378906 7.347656 12.628906 8.167969 12.808594 9 C 12.816406 9.058594 12.828125 9.113281 12.828125 9.160156 C 12.828125 9.339844 12.75 9.472656 12.546875 9.539062 C 12.492188 9.550781 12.4375 9.5625 12.378906 9.5625 C 12.210938 9.5625 12.078125 9.460938 12.019531 9.226562 C 11.839844 8.484375 11.582031 7.59375 11.242188 6.851562 C 11.210938 6.796875 11.199219 6.730469 11.199219 6.660156 C 11.199219 6.515625 11.277344 6.378906 11.433594 6.3125 C 11.503906 6.277344 11.570312 6.269531 11.625 6.269531 Z M 11.625 6.269531 "/>
</g>
</svg>
