<?xml version="1.0" encoding="UTF-8"?>
<svg xmlns="http://www.w3.org/2000/svg" xmlns:xlink="http://www.w3.org/1999/xlink" width="15pt" height="15pt" viewBox="0 0 15 15" version="1.1">
<g id="surface1">
<path style=" stroke:none;fill-rule:nonzero;fill:rgb(23.137255%,53.333333%,76.470588%);fill-opacity:1;" d="M 15 13.332031 C 15 14.253906 14.253906 15 13.332031 15 L 1.667969 15 C 0.746094 15 0 14.253906 0 13.332031 L 0 1.667969 C 0 0.746094 0.746094 0 1.667969 0 L 13.332031 0 C 14.253906 0 15 0.746094 15 1.667969 Z M 15 13.332031 "/>
<path style=" stroke:none;fill-rule:nonzero;fill:rgb(100%,100%,100%);fill-opacity:1;" d="M 10.046875 5.09375 C 10.046875 5.910156 9.695312 6.617188 8.984375 7.070312 C 9.917969 7.496094 10.5625 8.363281 10.5625 9.382812 C 10.5625 10.933594 9.140625 12.238281 7.308594 12.238281 C 5.394531 12.238281 4.207031 10.832031 4.207031 9.808594 C 4.207031 9.304688 4.734375 8.945312 5.203125 8.945312 C 6.078125 8.945312 5.871094 10.457031 7.332031 10.457031 C 8.003906 10.457031 8.546875 9.941406 8.546875 9.253906 C 8.546875 7.445312 6.351562 8.777344 6.351562 7.253906 C 6.351562 5.894531 8.183594 6.8125 8.183594 5.378906 C 8.183594 4.886719 7.835938 4.511719 7.253906 4.511719 C 6.027344 4.511719 6.195312 5.777344 5.316406 5.777344 C 4.789062 5.777344 4.476562 5.300781 4.476562 4.824219 C 4.476562 3.816406 5.859375 2.730469 7.292969 2.730469 C 9.15625 2.730469 10.046875 4.085938 10.046875 5.09375 Z M 10.046875 5.09375 "/>
</g>
</svg>
