<?xml version="1.0" encoding="UTF-8"?>
<svg xmlns="http://www.w3.org/2000/svg" xmlns:xlink="http://www.w3.org/1999/xlink" width="15pt" height="15pt" viewBox="0 0 15 15" version="1.1">
<g id="surface1">
<path style=" stroke:none;fill-rule:nonzero;fill:rgb(23.137255%,53.333333%,76.470588%);fill-opacity:1;" d="M 15 13.332031 C 15 14.253906 14.253906 15 13.332031 15 L 1.667969 15 C 0.746094 15 0 14.253906 0 13.332031 L 0 1.667969 C 0 0.746094 0.746094 0 1.667969 0 L 13.332031 0 C 14.253906 0 15 0.746094 15 1.667969 Z M 15 13.332031 "/>
<path style=" stroke:none;fill-rule:nonzero;fill:rgb(100%,100%,100%);fill-opacity:1;" d="M 4.488281 10.054688 C 3.855469 10.054688 3.582031 9.628906 3.582031 9.292969 C 3.582031 9.007812 3.6875 8.851562 3.765625 8.722656 L 6.65625 3.480469 C 6.941406 2.960938 7.304688 2.730469 7.976562 2.730469 C 8.726562 2.730469 9.460938 3.207031 9.460938 4.382812 L 9.460938 8.351562 L 9.679688 8.351562 C 10.183594 8.351562 10.585938 8.6875 10.585938 9.203125 C 10.585938 9.71875 10.183594 10.054688 9.679688 10.054688 L 9.460938 10.054688 L 9.460938 11.152344 C 9.460938 11.839844 9.191406 12.160156 8.53125 12.160156 C 7.871094 12.160156 7.601562 11.839844 7.601562 11.152344 L 7.601562 10.054688 Z M 7.601562 4.746094 L 7.574219 4.746094 L 5.832031 8.347656 L 7.601562 8.347656 Z M 7.601562 4.746094 "/>
</g>
</svg>
