<?xml version="1.0" encoding="UTF-8"?>
<svg xmlns="http://www.w3.org/2000/svg" xmlns:xlink="http://www.w3.org/1999/xlink" width="15pt" height="15pt" viewBox="0 0 15 15" version="1.1">
<g id="surface1">
<path style=" stroke:none;fill-rule:nonzero;fill:rgb(23.137255%,53.333333%,76.470588%);fill-opacity:1;" d="M 15 13.332031 C 15 14.253906 14.253906 15 13.332031 15 L 1.667969 15 C 0.746094 15 0 14.253906 0 13.332031 L 0 1.667969 C 0 0.746094 0.746094 0 1.667969 0 L 13.332031 0 C 14.253906 0 15 0.746094 15 1.667969 Z M 15 13.332031 "/>
<path style=" stroke:none;fill-rule:nonzero;fill:rgb(100%,100%,100%);fill-opacity:1;" d="M 6.828125 6.035156 C 7.140625 5.972656 7.476562 5.90625 7.796875 5.90625 C 9.359375 5.90625 10.472656 7.148438 10.472656 8.660156 C 10.472656 10.816406 9.285156 12.238281 7.046875 12.238281 C 6.132812 12.238281 4.207031 11.644531 4.207031 10.507812 C 4.207031 10.027344 4.605469 9.628906 5.085938 9.628906 C 5.601562 9.628906 6.222656 10.457031 7.085938 10.457031 C 7.992188 10.457031 8.457031 9.578125 8.457031 8.761719 C 8.457031 7.988281 8.019531 7.457031 7.21875 7.457031 C 6.46875 7.457031 6.351562 7.886719 5.691406 7.886719 C 5.1875 7.886719 4.929688 7.496094 4.929688 7.277344 C 4.929688 7.109375 4.957031 6.980469 4.96875 6.839844 L 5.292969 4.113281 C 5.433594 3.105469 5.679688 2.886719 6.300781 2.886719 L 9.414062 2.886719 C 10.007812 2.886719 10.355469 3.234375 10.355469 3.699219 C 10.355469 4.589844 9.683594 4.667969 9.453125 4.667969 L 7.023438 4.667969 Z M 6.828125 6.035156 "/>
</g>
</svg>
