<?xml version="1.0" encoding="UTF-8"?>
<svg xmlns="http://www.w3.org/2000/svg" xmlns:xlink="http://www.w3.org/1999/xlink" width="15pt" height="15pt" viewBox="0 0 15 15" version="1.1">
<g id="surface1">
<path style=" stroke:none;fill-rule:nonzero;fill:rgb(23.137255%,53.333333%,76.470588%);fill-opacity:1;" d="M 15 13.332031 C 15 14.253906 14.253906 15 13.332031 15 L 1.667969 15 C 0.746094 15 0 14.253906 0 13.332031 L 0 1.667969 C 0 0.746094 0.746094 0 1.667969 0 L 13.332031 0 C 14.253906 0 15 0.746094 15 1.667969 Z M 15 13.332031 "/>
<path style=" stroke:none;fill-rule:nonzero;fill:rgb(100%,100%,100%);fill-opacity:1;" d="M 4.257812 9.035156 C 4.257812 7.082031 6.234375 4.34375 7.539062 3.128906 C 7.640625 3.027344 7.796875 2.921875 7.953125 2.820312 C 8.09375 2.730469 8.238281 2.730469 8.339844 2.730469 C 8.703125 2.730469 9.257812 3.207031 9.257812 3.671875 C 9.257812 3.855469 9.140625 4.007812 8.984375 4.203125 C 8.46875 4.835938 7.628906 5.664062 7.203125 6.269531 L 7.230469 6.296875 C 7.460938 6.191406 7.757812 6.140625 8.042969 6.140625 C 9.59375 6.140625 10.742188 7.511719 10.742188 9.035156 C 10.742188 10.714844 9.410156 12.238281 7.5 12.238281 C 5.511719 12.238281 4.257812 10.753906 4.257812 9.035156 Z M 6.273438 9.035156 C 6.273438 9.757812 6.726562 10.378906 7.5 10.378906 C 8.238281 10.378906 8.726562 9.785156 8.726562 9.035156 C 8.726562 8.351562 8.316406 7.691406 7.5 7.691406 C 6.765625 7.691406 6.273438 8.273438 6.273438 9.035156 Z M 6.273438 9.035156 "/>
</g>
</svg>
