<?xml version="1.0" encoding="UTF-8"?>
<svg xmlns="http://www.w3.org/2000/svg" xmlns:xlink="http://www.w3.org/1999/xlink" width="15pt" height="15pt" viewBox="0 0 15 15" version="1.1">
<g id="surface1">
<path style=" stroke:none;fill-rule:nonzero;fill:rgb(23.137255%,53.333333%,76.470588%);fill-opacity:1;" d="M 15 13.332031 C 15 14.253906 14.253906 15 13.332031 15 L 1.667969 15 C 0.746094 15 0 14.253906 0 13.332031 L 0 1.667969 C 0 0.746094 0.746094 0 1.667969 0 L 13.332031 0 C 14.253906 0 15 0.746094 15 1.667969 Z M 15 13.332031 "/>
<path style=" stroke:none;fill-rule:nonzero;fill:rgb(100%,100%,100%);fill-opacity:1;" d="M 8.480469 4.667969 L 5.175781 4.667969 C 4.476562 4.667969 4.21875 4.214844 4.21875 3.777344 C 4.21875 3.324219 4.464844 2.886719 5.175781 2.886719 L 9.851562 2.886719 C 10.511719 2.886719 10.78125 3.480469 10.78125 3.816406 C 10.78125 4.074219 10.640625 4.34375 10.484375 4.667969 L 7.28125 11.179688 C 6.917969 11.902344 6.777344 12.160156 6.195312 12.160156 C 5.484375 12.160156 5.125 11.617188 5.125 11.242188 C 5.125 11.089844 5.160156 10.972656 5.253906 10.789062 Z M 8.480469 4.667969 "/>
</g>
</svg>
