<?xml version="1.0" encoding="UTF-8"?>
<svg xmlns="http://www.w3.org/2000/svg" xmlns:xlink="http://www.w3.org/1999/xlink" width="15pt" height="15pt" viewBox="0 0 15 15" version="1.1">
<g id="surface1">
<path style=" stroke:none;fill-rule:nonzero;fill:rgb(23.137255%,53.333333%,76.470588%);fill-opacity:1;" d="M 15 13.332031 C 15 14.253906 14.253906 15 13.332031 15 L 1.667969 15 C 0.746094 15 0 14.253906 0 13.332031 L 0 1.667969 C 0 0.746094 0.746094 0 1.667969 0 L 13.332031 0 C 14.253906 0 15 0.746094 15 1.667969 Z M 15 13.332031 "/>
<path style=" stroke:none;fill-rule:nonzero;fill:rgb(100%,100%,100%);fill-opacity:1;" d="M 4.308594 9.292969 C 4.308594 8.257812 4.878906 7.496094 5.691406 7.058594 C 5.085938 6.617188 4.710938 6.023438 4.710938 5.210938 C 4.710938 3.699219 5.964844 2.730469 7.5 2.730469 C 9 2.730469 10.304688 3.6875 10.304688 5.210938 C 10.304688 5.933594 9.941406 6.65625 9.308594 7.058594 C 10.1875 7.496094 10.691406 8.296875 10.691406 9.292969 C 10.691406 11.089844 9.230469 12.238281 7.5 12.238281 C 5.71875 12.238281 4.308594 11.023438 4.308594 9.292969 Z M 6.324219 9.164062 C 6.324219 9.824219 6.710938 10.457031 7.5 10.457031 C 8.238281 10.457031 8.675781 9.824219 8.675781 9.164062 C 8.675781 8.347656 8.210938 7.871094 7.5 7.871094 C 6.75 7.871094 6.324219 8.441406 6.324219 9.164062 Z M 6.570312 5.417969 C 6.570312 6 6.90625 6.398438 7.5 6.398438 C 8.09375 6.398438 8.445312 6 8.445312 5.417969 C 8.445312 4.863281 8.109375 4.433594 7.5 4.433594 C 6.894531 4.433594 6.570312 4.863281 6.570312 5.417969 Z M 6.570312 5.417969 "/>
</g>
</svg>
