<?xml version="1.0" encoding="UTF-8"?>
<svg xmlns="http://www.w3.org/2000/svg" xmlns:xlink="http://www.w3.org/1999/xlink" width="15pt" height="15pt" viewBox="0 0 15 15" version="1.1">
<g id="surface1">
<path style=" stroke:none;fill-rule:nonzero;fill:rgb(23.137255%,53.333333%,76.470588%);fill-opacity:1;" d="M 15 13.332031 C 15 14.253906 14.253906 15 13.332031 15 L 1.667969 15 C 0.746094 15 0 14.253906 0 13.332031 L 0 1.667969 C 0 0.746094 0.746094 0 1.667969 0 L 13.332031 0 C 14.253906 0 15 0.746094 15 1.667969 Z M 15 13.332031 "/>
<path style=" stroke:none;fill-rule:nonzero;fill:rgb(100%,100%,100%);fill-opacity:1;" d="M 10.742188 5.933594 C 10.742188 7.882812 8.765625 10.625 7.460938 11.839844 C 7.359375 11.941406 7.203125 12.042969 7.046875 12.148438 C 6.90625 12.238281 6.765625 12.238281 6.660156 12.238281 C 6.300781 12.238281 5.742188 11.761719 5.742188 11.296875 C 5.742188 11.113281 5.859375 10.960938 6.015625 10.765625 C 6.53125 10.132812 7.371094 9.304688 7.796875 8.699219 L 7.773438 8.671875 C 7.539062 8.777344 7.242188 8.828125 6.957031 8.828125 C 5.40625 8.828125 4.257812 7.457031 4.257812 5.933594 C 4.257812 4.253906 5.589844 2.730469 7.5 2.730469 C 9.492188 2.730469 10.742188 4.214844 10.742188 5.933594 Z M 8.726562 5.933594 C 8.726562 5.210938 8.277344 4.589844 7.5 4.589844 C 6.765625 4.589844 6.273438 5.183594 6.273438 5.933594 C 6.273438 6.617188 6.6875 7.277344 7.5 7.277344 C 8.238281 7.277344 8.726562 6.695312 8.726562 5.933594 Z M 8.726562 5.933594 "/>
</g>
</svg>
