<?xml version="1.0" encoding="UTF-8"?>
<svg xmlns="http://www.w3.org/2000/svg" xmlns:xlink="http://www.w3.org/1999/xlink" width="15pt" height="15pt" viewBox="0 0 15 15" version="1.1">
<g id="surface1">
<path style=" stroke:none;fill-rule:nonzero;fill:rgb(19.215686%,21.568627%,23.921569%);fill-opacity:1;" d="M 7.5 0 C 3.359375 0 0 3.359375 0 7.5 C 0 11.640625 3.359375 15 7.5 15 C 11.640625 15 15 11.640625 15 7.5 C 15 3.359375 11.640625 0 7.5 0 Z M 7.5 14.167969 C 3.816406 14.167969 0.832031 11.183594 0.832031 7.5 C 0.832031 3.816406 3.816406 0.832031 7.5 0.832031 C 11.183594 0.832031 14.167969 3.816406 14.167969 7.5 C 14.167969 11.183594 11.183594 14.167969 7.5 14.167969 Z M 7.5 14.167969 "/>
<path style=" stroke:none;fill-rule:nonzero;fill:rgb(19.215686%,21.568627%,23.921569%);fill-opacity:1;" d="M 4.492188 3.890625 C 4.492188 3.273438 4.839844 2.886719 5.484375 2.886719 L 7.757812 2.886719 C 9.75 2.886719 10.976562 3.777344 10.976562 5.804688 C 10.976562 7.226562 9.902344 8.039062 8.585938 8.246094 L 10.78125 10.597656 C 10.964844 10.792969 11.039062 10.984375 11.039062 11.167969 C 11.039062 11.671875 10.640625 12.160156 10.070312 12.160156 C 9.839844 12.160156 9.527344 12.070312 9.324219 11.824219 L 6.453125 8.347656 L 6.429688 8.347656 L 6.429688 11.152344 C 6.429688 11.800781 6.015625 12.160156 5.460938 12.160156 C 4.902344 12.160156 4.492188 11.800781 4.492188 11.152344 Z M 6.429688 6.953125 L 7.757812 6.953125 C 8.46875 6.953125 8.960938 6.527344 8.960938 5.804688 C 8.960938 5.066406 8.46875 4.667969 7.757812 4.667969 L 6.429688 4.667969 Z M 6.429688 6.953125 "/>
</g>
</svg>
