<?xml version="1.0" encoding="UTF-8"?>
<svg xmlns="http://www.w3.org/2000/svg" xmlns:xlink="http://www.w3.org/1999/xlink" width="15pt" height="15pt" viewBox="0 0 15 15" version="1.1">
<g id="surface1">
<path style=" stroke:none;fill-rule:nonzero;fill:rgb(60%,66.666667%,70.980392%);fill-opacity:1;" d="M 7.515625 5.8125 L 0 10.832031 L 0 14.167969 C 0 14.625 0.375 15 0.832031 15 L 14.167969 15 C 14.625 15 15 14.625 15 14.167969 L 15 10.839844 Z M 7.515625 5.8125 "/>
<path style=" stroke:none;fill-rule:nonzero;fill:rgb(40%,45.882353%,49.803922%);fill-opacity:1;" d="M 0 13.75 L 15 13.75 L 15 14.167969 L 0 14.167969 Z M 0 12.5 L 15 12.5 L 15 12.917969 L 0 12.917969 Z M 0 11.25 L 15 11.25 L 15 11.667969 L 0 11.667969 Z M 0.625 10.417969 L 14.371094 10.417969 L 13.753906 10 L 1.246094 10 Z M 0.625 10.417969 "/>
<path style=" stroke:none;fill-rule:nonzero;fill:rgb(88.235294%,90.980392%,92.941176%);fill-opacity:1;" d="M 7.5 0 C 4.507812 0 2.082031 0.558594 2.082031 1.25 L 2.082031 15 L 12.917969 15 L 12.917969 1.25 C 12.917969 0.558594 10.492188 0 7.5 0 Z M 7.5 0 "/>
<path style=" stroke:none;fill-rule:nonzero;fill:rgb(80%,83.921569%,86.666667%);fill-opacity:1;" d="M 7.5 5.417969 C 10.492188 5.417969 12.917969 5.976562 12.917969 6.667969 L 12.917969 5.832031 C 12.917969 5.144531 10.492188 4.582031 7.5 4.582031 C 4.507812 4.582031 2.082031 5.144531 2.082031 5.832031 L 2.082031 6.667969 C 2.082031 5.976562 4.507812 5.417969 7.5 5.417969 Z M 7.5 10.417969 C 10.492188 10.417969 12.917969 10.976562 12.917969 11.667969 L 12.917969 10.832031 C 12.917969 10.144531 10.492188 9.582031 7.5 9.582031 C 4.507812 9.582031 2.082031 10.144531 2.082031 10.832031 L 2.082031 11.667969 C 2.082031 10.976562 4.507812 10.417969 7.5 10.417969 Z M 7.5 12.917969 C 10.492188 12.917969 12.917969 13.476562 12.917969 14.167969 L 12.917969 13.332031 C 12.917969 12.644531 10.492188 12.082031 7.5 12.082031 C 4.507812 12.082031 2.082031 12.644531 2.082031 13.332031 L 2.082031 14.167969 C 2.082031 13.476562 4.507812 12.917969 7.5 12.917969 Z M 7.5 2.917969 C 10.492188 2.917969 12.917969 3.476562 12.917969 4.167969 L 12.917969 3.332031 C 12.917969 2.644531 10.492188 2.082031 7.5 2.082031 C 4.507812 2.082031 2.082031 2.644531 2.082031 3.332031 L 2.082031 4.167969 C 2.082031 3.476562 4.507812 2.917969 7.5 2.917969 Z M 7.5 2.917969 "/>
<path style=" stroke:none;fill-rule:nonzero;fill:rgb(80%,83.921569%,86.666667%);fill-opacity:1;" d="M 5.832031 0.0625 L 5.832031 15 L 6.667969 15 L 6.667969 0.015625 C 6.382812 0.0273438 6.101562 0.0390625 5.832031 0.0625 Z M 3.332031 0.453125 L 3.332031 15 L 4.167969 15 L 4.167969 0.265625 C 3.863281 0.320312 3.582031 0.382812 3.332031 0.453125 Z M 8.332031 0.015625 L 8.332031 15 L 9.167969 15 L 9.167969 0.0625 C 8.898438 0.0390625 8.617188 0.0273438 8.332031 0.015625 Z M 10.832031 0.265625 L 10.832031 15 L 11.667969 15 L 11.667969 0.453125 C 11.417969 0.382812 11.136719 0.320312 10.832031 0.265625 Z M 10.832031 0.265625 "/>
<path style=" stroke:none;fill-rule:nonzero;fill:rgb(16.078431%,18.431373%,20%);fill-opacity:1;" d="M 7.5 7.917969 C 10.492188 7.917969 12.917969 8.476562 12.917969 9.167969 L 12.917969 8.332031 C 12.917969 7.644531 10.492188 7.082031 7.5 7.082031 C 4.507812 7.082031 2.082031 7.644531 2.082031 8.332031 L 2.082031 9.167969 C 2.082031 8.476562 4.507812 7.917969 7.5 7.917969 Z M 7.5 7.917969 "/>
<path style=" stroke:none;fill-rule:nonzero;fill:rgb(74.509804%,9.803922%,19.215686%);fill-opacity:1;" d="M 4.636719 2.328125 L 4.34375 2.328125 C 4.101562 2.328125 4.003906 2.152344 4.003906 1.980469 C 4.003906 1.808594 4.128906 1.636719 4.34375 1.636719 L 5.050781 1.636719 C 5.265625 1.636719 5.386719 1.792969 5.386719 1.992188 L 5.386719 4.835938 C 5.386719 5.085938 5.226562 5.222656 5.011719 5.222656 C 4.796875 5.222656 4.636719 5.085938 4.636719 4.835938 Z M 5.835938 3.222656 C 5.835938 2.40625 6.152344 1.382812 7.160156 1.382812 C 8.171875 1.382812 8.484375 2.40625 8.484375 3.222656 C 8.484375 4.035156 8.171875 5.058594 7.160156 5.058594 C 6.152344 5.058594 5.835938 4.035156 5.835938 3.222656 Z M 7.707031 3.222656 C 7.707031 2.839844 7.671875 2.0625 7.160156 2.0625 C 6.652344 2.0625 6.617188 2.839844 6.617188 3.222656 C 6.617188 3.574219 6.652344 4.378906 7.160156 4.378906 C 7.671875 4.378906 7.707031 3.574219 7.707031 3.222656 Z M 11.285156 2.816406 C 11.285156 3.570312 10.523438 4.628906 10.015625 5.097656 C 9.976562 5.140625 9.917969 5.179688 9.855469 5.21875 C 9.800781 5.253906 9.746094 5.253906 9.707031 5.253906 C 9.566406 5.253906 9.351562 5.070312 9.351562 4.890625 C 9.351562 4.820312 9.398438 4.761719 9.457031 4.683594 C 9.65625 4.441406 9.980469 4.121094 10.148438 3.886719 L 10.136719 3.875 C 10.046875 3.914062 9.933594 3.933594 9.820312 3.933594 C 9.222656 3.933594 8.777344 3.40625 8.777344 2.816406 C 8.777344 2.167969 9.292969 1.578125 10.03125 1.578125 C 10.800781 1.578125 11.285156 2.152344 11.285156 2.816406 Z M 10.507812 2.816406 C 10.507812 2.535156 10.332031 2.296875 10.03125 2.296875 C 9.746094 2.296875 9.558594 2.527344 9.558594 2.816406 C 9.558594 3.082031 9.71875 3.335938 10.03125 3.335938 C 10.316406 3.335938 10.507812 3.109375 10.507812 2.816406 Z M 10.507812 2.816406 "/>
</g>
</svg>
